# Blender 4.0.2
# www.blender.org
mtllib portal_ring_lod1.mtl
o portal_ring_lod1
v 1.582500 0.012500 -0.887500
v 1.588462 0.143846 -0.883846
v 1.588462 0.016154 0.883846
v 1.582500 0.147500 0.887500
v -1.588462 0.016154 -0.883846
v -1.582500 0.147500 -0.887500
v -1.582500 0.012500 0.887500
v -1.588462 0.143846 0.883846
v 1.282500 0.172500 -0.637500
v 1.288461 0.263846 -0.633846
v 1.288461 0.176154 0.633846
v 1.282500 0.267500 0.637500
v -1.288461 0.176154 -0.633846
v -1.282500 0.267500 -0.637500
v -1.282500 0.172500 0.637500
v -1.288461 0.263846 0.633846
v 1.588333 0.008333 0.728333
v 1.592308 0.169231 0.730769
v 1.592308 0.010769 0.889231
v 1.588333 0.171667 0.891667
v 1.427692 0.010769 0.730769
v 1.431667 0.171667 0.728333
v 1.431667 0.008333 0.891667
v 1.427692 0.169231 0.889231
v -1.431667 0.008333 0.728333
v -1.427692 0.169231 0.730769
v -1.427692 0.010769 0.889231
v -1.431667 0.171667 0.891667
v -1.592308 0.010769 0.730769
v -1.588333 0.171667 0.728333
v -1.588333 0.008333 0.891667
v -1.592308 0.169231 0.889231
v -1.431667 0.008333 -0.891667
v -1.427692 0.169231 -0.889231
v -1.427692 0.010769 -0.730769
v -1.431667 0.171667 -0.728333
v -1.592308 0.010769 -0.889231
v -1.588333 0.171667 -0.891667
v -1.588333 0.008333 -0.728333
v -1.592308 0.169231 -0.730769
v 1.588333 0.008333 -0.891667
v 1.592308 0.169231 -0.889231
v 1.592308 0.010769 -0.730769
v 1.588333 0.171667 -0.728333
v 1.427692 0.010769 -0.889231
v 1.431667 0.171667 -0.891667
v 1.431667 0.008333 -0.728333
v 1.427692 0.169231 -0.730769
v -1.600000 1.840000 0.120000
v -1.571449 2.076286 0.144020
v -1.586629 1.909780 -0.143500
v -1.331364 1.859230 -0.141990
v -1.569256 2.152144 -0.120000
v -1.295571 2.233007 -0.149940
v -1.336306 1.975114 0.144431
v -1.475068 2.430179 0.141989
v -1.460350 2.465710 -0.141990
v -1.272639 2.211725 -0.117545
v -1.162740 2.477043 0.117545
v -1.330351 2.728912 0.120000
v -1.278262 2.784103 -0.144020
v -1.096406 2.593832 -0.140192
v -1.194005 2.478209 0.149940
v -1.171258 2.912575 0.143500
v -1.131371 2.971371 -0.120000
v -0.861742 2.890036 -0.149938
v -0.955014 2.767819 0.141990
v -0.744535 3.232924 0.150072
v -0.739019 3.266974 -0.117795
v -0.854322 2.853797 -0.121819
v -0.612863 3.015665 0.117545
v -0.775909 3.247257 0.117795
v -0.744535 3.232924 -0.150072
v -0.420081 3.111157 -0.142763
v -0.638210 3.034005 0.149940
v -0.327428 3.395577 0.140192
v -0.236286 3.411449 -0.144020
v -0.276873 3.141426 0.140192
v 0.236286 3.411449 0.144020
v -0.000000 3.440000 0.120000
v -0.000000 3.440000 -0.120000
v 0.133144 3.191831 -0.149938
v -0.147108 3.157577 -0.121819
v 0.147108 3.157577 0.121818
v 0.327428 3.395577 -0.140192
v 0.133144 3.191831 0.149938
v 0.744535 3.232924 0.150072
v 0.775909 3.247257 -0.117796
v 0.677868 2.989574 -0.140956
v 0.371724 3.112639 -0.117545
v 0.632016 3.005650 0.119302
v 0.739020 3.266974 0.117795
v 0.744535 3.232924 -0.150072
v 0.660046 3.024416 0.149929
v 1.278261 2.784103 0.144020
v 1.131371 2.971371 0.120000
v 1.171258 2.912575 -0.143500
v 0.955014 2.767819 -0.141990
v 1.029981 2.675058 0.119302
v 1.330351 2.728912 -0.120000
v 1.194005 2.478209 -0.149940
v 1.063076 2.681682 0.149949
v 1.460350 2.465710 0.141989
v 1.475067 2.430179 -0.141990
v 1.162740 2.477043 -0.117545
v 1.259900 2.280285 0.140922
v 1.569256 2.152144 0.120000
v 1.571449 2.076286 -0.144020
v 1.308316 2.082237 -0.140192
v 1.320959 1.952765 0.121819
v 1.586629 1.909780 0.143500
v 1.600000 1.840000 -0.120000
v 1.351831 1.706856 -0.149938
v 1.562467 1.547210 0.140192
v 1.531589 1.353543 -0.117796
v 1.320959 1.727235 -0.121819
v 1.336306 1.704886 0.144431
v 1.392925 1.095466 0.150072
v 1.511412 1.381519 -0.150072
v 1.194005 1.201791 -0.149940
v 1.162740 1.202957 0.117545
v 1.426974 1.100981 0.117796
v 1.278261 0.895897 -0.144020
v 1.175665 1.227138 -0.117545
v 1.194005 1.201791 0.149940
v 0.944103 0.561739 0.144020
v 1.131371 0.708629 0.120000
v 1.131371 0.708629 -0.120000
v 0.927819 0.884987 -0.141989
v 0.955014 0.912181 0.141990
v 0.868433 0.508515 -0.140192
v 0.638209 0.645995 -0.149940
v 0.612862 0.664335 0.117545
v 0.458481 0.328588 0.150072
v 0.446430 0.296269 -0.117795
v 0.637042 0.677260 -0.117545
v 0.638209 0.645995 0.149940
v 0.486458 0.308412 0.117796
v 0.458481 0.328588 -0.150072
v 0.133144 0.488169 -0.149938
v 0.112765 0.519041 0.121819
v -0.236286 0.268551 0.144020
v 0.000000 0.240000 0.120000
v -0.069779 0.253371 -0.143500
v 0.147108 0.522423 -0.121819
v 0.133144 0.488169 0.149938
v -0.312145 0.270744 -0.120000
v -0.276873 0.538574 -0.140192
v -0.242236 0.531684 0.140192
v -0.744534 0.447075 0.150072
v -0.625711 0.379650 -0.141989
v -0.601801 0.644113 -0.142763
v -0.637042 0.677260 0.117545
v -0.739019 0.413026 0.117796
v -0.944103 0.561739 -0.144020
v -0.638209 0.645995 0.149940
v -1.278261 0.895897 0.144020
v -1.131371 0.708629 0.120000
v -1.131371 0.708629 -0.120000
v -1.044915 1.004277 -0.142391
v -0.827647 0.804312 -0.121819
v -1.023188 1.000292 0.119823
v -1.426974 1.100981 -0.117796
v -1.050036 0.978258 0.149938
v -1.511412 1.381519 0.150072
v -1.392925 1.095466 -0.150072
v -1.295571 1.446993 -0.149940
v -1.261118 1.405009 0.140636
v -1.531589 1.353543 0.117796
v -1.562467 1.547210 -0.140192
v -1.266620 1.455776 -0.115437
v -1.320959 1.727235 0.121819
v -1.320690 1.840000 0.105385
v -1.323948 1.840000 -0.104000
v -1.206002 1.847598 -0.101570
v -1.206002 1.832402 0.101570
v -1.280224 2.173884 0.103462
v -1.276918 2.190015 -0.101570
v -1.163965 2.161850 -0.104660
v -1.168144 2.143852 0.103462
v -1.147782 2.502672 0.100769
v -1.144327 2.500677 -0.104286
v -1.040858 2.451147 -0.103462
v -1.050629 2.435465 0.104660
v -0.933869 2.773869 0.105385
v -0.936173 2.776173 -0.104000
v -0.847399 2.698145 -0.101570
v -0.858145 2.687400 0.101570
v -0.668579 2.982817 0.101570
v -0.655419 2.990415 -0.101570
v -0.603026 2.884472 -0.104000
v -0.604655 2.887294 0.105385
v -0.350961 3.115649 0.103461
v -0.333883 3.120225 -0.103462
v -0.312821 3.007462 -0.104286
v -0.312007 3.004425 0.102727
v -0.009627 3.162396 0.104660
v 0.009627 3.162396 -0.104660
v 0.007598 3.046002 -0.101570
v -0.007598 3.046002 0.101570
v 0.333883 3.120225 0.103461
v 0.350961 3.115649 -0.103462
v 0.320929 3.003568 -0.103462
v 0.303852 3.008144 0.103462
v 0.662672 2.987782 0.100769
v 0.661217 2.985263 -0.102500
v 0.612139 2.881003 -0.104660
v 0.595465 2.890630 0.104660
v 0.933868 2.773869 0.105385
v 0.936173 2.776173 -0.104000
v 0.858145 2.687400 -0.101570
v 0.847399 2.698145 0.101570
v 1.141347 2.509164 0.103462
v 1.150187 2.493853 -0.103462
v 1.049698 2.435836 -0.103462
v 1.040858 2.451147 0.103461
v 1.276917 2.190015 0.101570
v 1.280851 2.175337 -0.101570
v 1.168948 2.143252 -0.104660
v 1.163965 2.161850 0.104660
v 1.322396 1.849627 0.104660
v 1.322396 1.830374 -0.104660
v 1.206002 1.832402 -0.101570
v 1.206002 1.847598 0.101570
v 1.280851 1.504663 0.101570
v 1.276917 1.489985 -0.101570
v 1.163965 1.518150 -0.104660
v 1.168948 1.536748 0.104660
v 1.150187 1.186147 0.103462
v 1.141347 1.170836 -0.103461
v 1.040858 1.228853 -0.103462
v 1.049698 1.244164 0.103462
v 0.936173 0.903827 0.104000
v 0.933869 0.906132 -0.105385
v 0.847399 0.981855 -0.101570
v 0.858145 0.992601 0.101570
v 0.660677 0.695673 0.104286
v 0.662673 0.692218 -0.100769
v 0.595465 0.789371 -0.104660
v 0.611147 0.799142 0.103462
v 0.350015 0.563082 0.101570
v 0.333883 0.559776 -0.103461
v 0.303851 0.671856 -0.103461
v 0.321850 0.676035 0.104660
v 0.009627 0.517604 0.104660
v -0.009627 0.517604 -0.104660
v -0.007598 0.633998 -0.101570
v 0.007598 0.633998 0.101570
v -0.333883 0.559776 0.103462
v -0.350015 0.563083 -0.101570
v -0.321850 0.676035 -0.104660
v -0.303851 0.671856 0.103462
v -0.655419 0.689585 0.101570
v -0.669164 0.698654 -0.103461
v -0.611147 0.799142 -0.103461
v -0.595465 0.789371 0.104660
v -0.928268 0.898118 0.104660
v -0.941882 0.911732 -0.104660
v -0.858145 0.992601 -0.101570
v -0.847399 0.981855 0.101570
v -1.141347 1.170836 0.103462
v -1.150187 1.186147 -0.103462
v -1.049698 1.244164 -0.103461
v -1.040858 1.228853 0.103462
v -1.280185 1.496975 0.100769
v -1.277374 1.497728 -0.102500
v -1.168948 1.536748 -0.104660
v -1.163965 1.518150 0.104660
v 0.000000 3.050000 -0.010000
v -0.313171 3.008770 0.006667
v -0.605001 2.887891 -0.008571
v -0.855599 2.695600 0.008571
v -1.047891 2.445000 -0.006667
v -1.168770 2.153171 0.010000
v -1.210000 1.840000 -0.014286
v -1.168770 1.526829 0.013333
v -1.047891 1.235000 -0.004000
v -0.855599 0.984401 0.006667
v -0.605000 0.792109 -0.015556
v -0.313171 0.671230 0.014286
v -0.000000 0.630000 -0.010000
v 0.313171 0.671230 0.010000
v 0.605000 0.792109 -0.012000
v 0.855599 0.984401 0.020000
v 0.855599 0.984401 -0.020000
v 1.047891 1.235000 -0.006667
v 1.168770 1.526829 0.006667
v 1.210000 1.840000 -0.012000
v 1.168770 2.153171 0.013333
v 1.047891 2.445000 -0.006667
v 0.855599 2.695600 -0.000000
v 0.605001 2.887891 -0.008571
v 0.313171 3.008770 0.014286
v -1.266412 2.429059 0.148704
v -1.259566 2.408866 0.172373
v -1.397277 2.478641 0.160000
v -1.300452 2.318795 0.160000
v -1.439611 2.376437 0.160000
v -0.498802 3.148739 0.135000
v -0.480637 3.141215 0.169295
v -0.536437 3.279611 0.160000
v -0.580999 3.098118 0.160000
v -0.638641 3.237277 0.160000
v 0.580999 3.098118 0.160000
v 0.630346 3.245336 0.171296
v 0.637192 3.225143 0.147627
v 0.536437 3.279611 0.160000
v 0.498802 3.148739 0.185000
v 0.480637 3.141215 0.150705
v 1.300452 2.318795 0.160000
v 1.439611 2.376437 0.160000
v 1.278124 2.412712 0.135000
v 1.259959 2.420236 0.169295
v 1.397277 2.478641 0.160000
v 1.397277 1.201359 0.162273
v 1.258117 1.259001 0.157727
v 1.300452 1.361205 0.162273
v 1.439611 1.303564 0.157727
v 0.478795 0.539548 0.160000
v 0.548570 0.401838 0.147627
v 0.528377 0.408684 0.171296
v 0.568866 0.580434 0.172373
v 0.638641 0.442723 0.160000
v 0.589058 0.573588 0.148704
v -0.589058 0.573588 0.148704
v -0.568866 0.580434 0.172373
v -0.638641 0.442723 0.160000
v -0.478795 0.539548 0.160000
v -0.528377 0.408684 0.148704
v -0.548570 0.401838 0.172373
v -1.308739 1.341198 0.135000
v -1.301215 1.359363 0.169295
v -1.439611 1.303564 0.160000
v -1.396514 1.203201 0.150705
v -1.258117 1.259001 0.160000
v -1.388989 1.221366 0.185000
v 0.162500 3.282500 -0.187500
v 0.168462 3.553846 -0.183846
v 0.168462 3.286154 0.183846
v 0.162500 3.557500 0.187500
v -0.168462 3.286154 -0.183846
v -0.162500 3.557500 -0.187500
v -0.162500 3.282500 0.187500
v -0.168462 3.553846 0.183846
v 0.185884 3.583903 -0.219177
v 0.199384 3.612985 -0.206922
v 0.199384 3.587015 0.206922
v 0.185884 3.616097 0.219177
v -0.199384 3.587015 -0.206922
v -0.185884 3.616097 -0.219177
v -0.185884 3.583903 0.219177
v -0.199384 3.612985 0.206922
v 0.738205 0.295789 -0.192818
v 1.498414 0.292348 -0.196781
v 1.333147 0.884886 -0.193571
v 0.972902 0.888419 -0.197253
v 0.741296 0.291278 0.192817
v 1.502123 0.297287 0.196781
v 1.327397 0.889205 0.193571
v 0.966142 0.883787 0.197253
v 1.355884 0.913902 -0.229177
v 1.369384 0.942985 -0.216922
v 1.369384 0.917015 0.216922
v 1.355884 0.946098 0.229177
v 0.930616 0.917015 -0.216922
v 0.944116 0.946098 -0.229177
v 0.944116 0.913902 0.229177
v 0.930616 0.942985 0.216922
v 1.141464 0.632678 0.250000
v 1.158535 0.632678 0.210000
v 1.158535 0.567322 0.250000
v 1.141464 0.567322 0.210000
v -0.738205 0.295789 -0.192817
v -1.498414 0.292348 -0.196781
v -1.333147 0.884886 -0.193571
v -0.972902 0.888419 -0.197253
v -0.741296 0.291278 0.192818
v -1.502123 0.297287 0.196781
v -1.327397 0.889205 0.193571
v -0.966142 0.883787 0.197253
v -0.944116 0.913902 -0.229177
v -0.930616 0.942985 -0.216922
v -0.930616 0.917015 0.216922
v -0.944116 0.946098 0.229177
v -1.369384 0.917015 -0.216922
v -1.355884 0.946098 -0.229177
v -1.355884 0.913902 0.229177
v -1.369384 0.942985 0.216922
v -1.158535 0.632678 0.250000
v -1.141464 0.632678 0.210000
v -1.141464 0.567322 0.250000
v -1.158535 0.567322 0.210000
vn 0.9861 0.1610 0.0417
vn -0.0336 0.0103 -0.9994
vn 0.9082 -0.4162 0.0451
vn 0.0163 0.0140 0.9998
vn -0.0073 -0.0271 -0.9996
vn -0.0155 0.0049 -0.9999
vn 0.5111 -0.8571 0.0641
vn -0.0136 0.0041 -0.9999
vn -0.0867 -0.9907 0.1047
vn 0.0079 0.0402 -0.9992
vn -0.3735 -0.9276 -0.0085
vn -0.8145 -0.5795 0.0280
vn 0.0311 0.0164 -0.9994
vn -0.0011 0.0059 1.0000
vn -0.9989 -0.0340 0.0314
vn -0.0140 0.0243 -0.9996
vn 0.0118 -0.0099 0.9999
vn 0.9499 -0.2938 0.1068
vn 0.0144 0.0075 -0.9999
vn -0.0051 -0.0208 -0.9998
vn 0.0168 -0.0091 0.9998
vn 0.0318 -0.0176 -0.9993
vn -0.0002 0.0005 1.0000
vn -0.0002 0.0005 -1.0000
vn 0.5768 0.8165 -0.0259
vn 0.0026 0.0043 -1.0000
vn 0.6788 0.7329 -0.0451
vn -0.8713 -0.4753 0.1226
vn 0.0245 0.0093 -0.9997
vn 0.7848 -0.0882 -0.6135
vn 0.7005 -0.2056 0.6834
vn 0.5345 -0.4471 -0.7172
vn 0.4604 -0.5683 0.6820
vn -0.2776 0.7485 0.6022
vn 0.0575 -0.6193 0.7830
vn 0.2776 0.7485 -0.6022
vn -0.3369 -0.8941 0.2951
vn -0.6173 -0.4925 -0.6135
vn -0.6941 -0.0618 -0.7172
vn -0.7005 0.2056 0.6834
vn -0.4925 0.6173 -0.6135
vn -0.4604 0.5683 0.6820
vn 0.3330 -0.7256 -0.6022
vn 0.2184 0.6982 0.6818
vn 0.6651 0.3655 -0.6512
vn 0.7934 -0.6088 -0.0000
vn 0.8154 -0.3023 -0.4937
vn 0.8639 0.3224 -0.3869
vn 0.3935 -0.8320 -0.3910
vn 0.8098 -0.3097 0.4984
vn -0.3935 -0.8320 0.3910
vn 0.3023 -0.8154 0.4937
vn 0.7622 -0.3365 0.5529
vn 0.3023 0.8154 -0.4937
vn -0.3023 -0.8154 -0.4937
vn -0.3224 0.8639 -0.3869
vn 0.3223 -0.8639 0.3869
vn 0.8320 0.3935 -0.3910
vn -0.8943 -0.2336 0.3817
vn 0.8943 0.2336 0.3817
vn -0.9990 0.0453 -0.0033
vn 0.0012 1.0000 -0.0021
vn 0.9990 0.0453 0.0033
vn -0.0012 0.0278 0.9996
vn -0.0012 -1.0000 -0.0021
vn 0.0015 0.0399 -0.9992
vn -0.9979 0.0649 -0.0045
vn 0.0014 1.0000 -0.0029
vn 0.9979 0.0649 0.0045
vn -0.0015 0.0399 0.9992
vn -0.0014 -1.0000 -0.0029
vn 0.0154 0.0148 -0.9998
vn -0.9994 0.0243 -0.0243
vn 0.0154 0.9998 -0.0148
vn 0.9994 0.0243 0.0243
vn -0.0154 0.0148 0.9998
vn -0.0154 -0.9998 -0.0148
vn 0.0042 -0.0088 -1.0000
vn 0.0021 0.0089 1.0000
vn -0.0277 -0.0031 0.9996
vn -0.8663 0.4950 -0.0674
vn 0.9417 -0.3293 -0.0686
vn -0.7878 0.6156 0.0181
vn -0.0311 0.0164 0.9994
vn 0.0090 -0.0115 -0.9999
vn 0.8147 -0.5776 -0.0521
vn -0.6014 0.7985 -0.0273
vn -0.0169 -0.0097 0.9998
vn -0.2777 0.9600 -0.0355
vn 0.5842 -0.8106 -0.0412
vn 0.0198 0.0099 0.9998
vn 0.0198 -0.0072 -0.9998
vn 0.3541 -0.9318 -0.0796
vn -0.1200 0.9928 -0.0000
vn -0.0076 0.0305 0.9995
vn 0.0170 -0.0146 -0.9997
vn 0.1337 0.9909 -0.0125
vn 0.0361 -0.9984 -0.0436
vn 0.3152 0.9485 -0.0300
vn -0.0106 0.0036 0.9999
vn 0.0253 0.0237 -0.9994
vn -0.2979 -0.9492 -0.1014
vn 0.6416 0.7635 -0.0732
vn 0.0217 0.0123 0.9997
vn -0.6364 -0.7661 -0.0894
vn 0.7550 0.6556 0.0119
vn -0.0055 -0.0022 -1.0000
vn 0.8997 0.4364 -0.0080
vn 0.0106 -0.0173 0.9998
vn -0.0163 0.0140 -0.9998
vn 0.9626 0.2625 -0.0674
vn -0.8611 -0.5048 -0.0606
vn -0.9826 -0.1807 -0.0419
vn -0.0065 0.0012 1.0000
vn 0.9924 0.1218 0.0181
vn -0.0145 0.0018 -0.9999
vn 0.9902 -0.1393 -0.0139
vn 0.0092 0.0184 0.9998
vn -0.9970 -0.0569 0.0527
vn -0.9446 0.3276 -0.0182
vn 0.7868 -0.6172 -0.0000
vn 0.8713 -0.4753 -0.1226
vn -0.0005 0.0002 -1.0000
vn -0.0212 0.0065 0.9998
vn 0.0091 -0.0168 -0.9998
vn -0.8130 0.5821 0.0152
vn 0.6062 -0.7952 -0.0125
vn -0.5855 0.8104 -0.0215
vn 0.0208 0.0051 0.9998
vn 0.4478 -0.8936 -0.0300
vn 0.0361 -0.0105 -0.9993
vn -0.2791 0.9599 -0.0260
vn 0.0862 -0.9936 -0.0732
vn -0.0703 -0.9975 0.0119
vn -0.0075 -0.0144 0.9999
vn 0.0366 0.9991 0.0200
vn -0.0097 -0.0190 -0.9998
vn -0.0243 0.0140 0.9996
vn -0.3323 -0.9391 0.0877
vn 0.0215 -0.0108 0.9997
vn -0.0245 -0.0062 -0.9997
vn 0.3469 0.9377 -0.0198
vn 0.0068 -0.0035 -1.0000
vn -0.4932 -0.8636 -0.1042
vn -0.6172 -0.7868 -0.0000
vn -0.0215 -0.0121 0.9997
vn 0.0045 -0.0033 -1.0000
vn -0.7986 -0.6016 -0.0176
vn 0.6379 0.7632 -0.1028
vn 0.0372 0.0054 0.9993
vn 0.8972 0.4365 0.0673
vn -0.9975 0.0703 0.0119
vn -0.9499 -0.2938 -0.1068
vn 0.0207 -0.0053 -0.9998
vn 0.9829 0.1834 0.0152
vn -0.0329 0.0095 -0.9994
vn 0.9980 0.0625 -0.0081
vn -0.9448 0.3276 -0.0080
vn -0.3089 0.3555 -0.8822
vn 0.0017 -0.0214 -0.9998
vn -0.5147 0.1192 -0.8490
vn -0.4482 0.2796 0.8490
vn 0.6481 -0.3393 -0.6817
vn 0.6173 -0.4925 0.6135
vn -0.4432 0.5763 0.6867
vn -0.2241 -0.7261 0.6500
vn 0.2879 -0.5496 -0.7843
vn -0.2337 0.6886 -0.6865
vn 0.2402 -0.7521 0.6137
vn -0.0208 0.5370 0.8433
vn 0.1427 -0.9555 0.2581
vn 0.0208 0.5370 -0.8433
vn -0.0326 -0.4610 -0.8868
vn 0.2337 0.6886 0.6865
vn 0.3089 0.3555 0.8822
vn -0.4393 -0.5289 0.7261
vn 0.4432 0.5763 -0.6867
vn 0.4698 -0.0329 -0.8822
vn 0.4482 0.2796 -0.8490
vn -0.6100 -0.3155 0.7269
vn 0.5147 0.1192 0.8490
vn -0.6982 -0.2184 -0.6818
vn -0.7642 -0.1054 -0.6363
vn -0.6009 0.1679 -0.7815
vn 0.6878 -0.2432 0.6840
vn 0.3555 -0.3089 0.8822
vn 0.6521 -0.3217 -0.6865
vn -0.2094 0.6700 -0.7122
vn -0.5683 0.4604 -0.6820
vn -0.6173 0.4925 0.6135
vn 0.3650 -0.3944 -0.8433
vn 0.3217 -0.6521 0.6865
vn -0.2359 0.7549 0.6120
vn 0.0329 -0.4698 0.8822
vn -0.3089 -0.3555 0.8822
vn 0.0941 -0.7209 -0.6867
vn 0.0575 0.6193 -0.7830
vn 0.0618 0.6941 0.7172
vn -0.2337 -0.6886 0.6865
vn -0.1192 -0.5147 -0.8490
vn 0.4966 0.6155 0.6120
vn 0.4754 0.5842 0.6578
vn -0.3555 -0.3089 -0.8822
vn -0.4698 -0.0329 0.8822
vn -0.6521 -0.3217 0.6865
vn 0.5877 0.3070 0.7486
vn -0.6878 -0.2432 -0.6840
vn -0.9954 -0.0670 -0.0682
vn 0.7538 0.0780 -0.6524
vn 0.7662 0.1053 -0.6339
vn 0.0015 0.0056 1.0000
vn 0.0198 0.0123 -0.9997
vn 0.9911 0.1325 -0.0118
vn 0.0326 -0.0096 0.9994
vn -0.0269 0.0190 0.9995
vn 0.9275 -0.3737 -0.0137
vn -0.7852 0.6191 0.0155
vn 0.0083 0.0006 -1.0000
vn 0.0163 -0.0298 0.9994
vn 0.7945 -0.6072 -0.0084
vn -0.6066 0.7950 -0.0096
vn 0.0202 -0.0082 -0.9998
vn -0.0112 0.0324 0.9994
vn 0.6193 -0.7851 -0.0088
vn -0.3744 0.9272 -0.0104
vn -0.0199 0.0131 -0.9997
vn 0.0103 -0.0030 0.9999
vn 0.3902 -0.9206 -0.0150
vn -0.1219 0.9925 -0.0112
vn -0.0088 0.0186 -0.9998
vn 0.0074 -0.0264 0.9996
vn 0.1353 -0.9907 -0.0151
vn 0.1357 0.9907 -0.0107
vn 0.0074 0.0087 -0.9999
vn 0.0034 -0.0009 1.0000
vn -0.1206 -0.9927 -0.0090
vn 0.3874 0.9218 -0.0142
vn 0.0034 -0.0009 -1.0000
vn 0.0190 0.0269 0.9995
vn -0.3737 -0.9275 -0.0103
vn 0.6191 0.7852 0.0155
vn 0.0038 0.0189 -0.9998
vn -0.0298 -0.0163 0.9994
vn -0.6072 -0.7945 -0.0118
vn 0.7969 0.6041 -0.0107
vn -0.0053 -0.0227 -0.9997
vn 0.0029 -0.0050 1.0000
vn -0.7872 -0.6166 -0.0090
vn 0.9252 0.3795 -0.0095
vn -0.0030 0.0052 -1.0000
vn 0.0261 0.0051 0.9996
vn -0.9201 -0.3916 -0.0103
vn 0.9928 0.1197 -0.0110
vn 0.0237 0.0137 -0.9996
vn -0.0266 0.0055 0.9996
vn -0.9911 -0.1325 -0.0118
vn 0.9911 -0.1325 -0.0096
vn -0.0268 -0.0131 -0.9996
vn 0.0242 -0.0119 0.9996
vn -0.9929 0.1183 -0.0088
vn 0.9204 -0.3909 -0.0104
vn 0.0288 0.0060 -0.9996
vn 0.0028 0.0048 1.0000
vn -0.9260 0.3774 -0.0115
vn 0.7870 -0.6168 -0.0154
vn -0.0019 -0.0033 -1.0000
vn -0.0156 0.0137 0.9998
vn -0.7955 0.6058 -0.0108
vn 0.6027 -0.7977 0.0193
vn -0.0301 0.0159 -0.9994
vn -0.0037 0.0062 1.0000
vn -0.6166 0.7872 -0.0090
vn 0.3737 -0.9274 -0.0144
vn 0.0280 -0.0206 -0.9994
vn 0.0026 -0.0267 0.9996
vn -0.3916 0.9200 -0.0137
vn 0.1219 -0.9925 -0.0112
vn -0.0037 -0.0010 -1.0000
vn 0.0055 0.0266 0.9996
vn -0.1325 0.9911 -0.0084
vn -0.1325 -0.9912 -0.0056
vn -0.0093 0.0267 -0.9996
vn -0.0034 0.0009 1.0000
vn 0.1206 0.9927 -0.0090
vn -0.3909 -0.9203 -0.0145
vn 0.0060 -0.0288 -0.9996
vn -0.0148 -0.0221 0.9996
vn 0.3737 0.9275 -0.0137
vn -0.6156 -0.7880 -0.0112
vn -0.0033 0.0019 -1.0000
vn 0.0227 0.0149 0.9996
vn 0.6072 0.7945 -0.0084
vn -0.7965 -0.6046 -0.0107
vn 0.0123 0.0255 -0.9996
vn -0.0017 0.0030 1.0000
vn 0.7872 0.6166 -0.0090
vn -0.9258 -0.3779 -0.0142
vn -0.0018 0.0030 -1.0000
vn -0.0324 -0.0056 0.9995
vn 0.9201 0.3916 -0.0103
vn -0.0161 -0.0106 -0.9998
vn -0.9911 0.1332 -0.0055
vn 0.9927 -0.1206 -0.0090
vn -0.9196 0.3923 -0.0193
vn -0.0288 -0.0060 -0.9996
vn -0.9930 -0.1175 0.0155
vn 0.6088 -0.7934 -0.0000
vn -0.0039 -0.0039 -1.0000
vn -0.0000 -0.0018 1.0000
vn -0.0744 0.0308 -0.9968
vn -0.0740 0.0307 0.9968
vn -0.0695 0.1679 -0.9834
vn 0.3365 0.7622 0.5529
vn -0.0238 0.0574 0.9981
vn -0.0705 0.0951 -0.9930
vn 0.0012 0.0278 -0.9996
vn -0.0448 0.1999 0.9788
vn 0.1679 0.0695 -0.9834
vn -0.8639 0.3224 0.3869
vn 0.3439 0.7612 -0.5499
vn 0.0574 0.0238 0.9981
vn 0.0121 -0.0494 -0.9987
vn -0.3830 0.8388 -0.3869
vn -0.8666 -0.3101 -0.3910
vn 0.1489 -0.0289 -0.9884
vn 0.1118 -0.0326 0.9932
vn -0.1147 -0.0422 -0.9925
vn -0.7622 -0.3365 -0.5529
vn 0.7622 0.3365 0.5529
vn -0.3023 0.8154 -0.4937
vn -0.1433 -0.0163 0.9895
vn -0.1902 0.0092 -0.9817
vn -0.7622 0.3365 0.5529
vn -0.1472 0.2038 0.9679
vn 0.0112 0.0132 -0.9999
vn -0.8320 -0.3935 0.3910
vn -0.9996 0.0217 -0.0158
vn 0.0111 0.9999 -0.0097
vn 0.9996 0.0217 0.0158
vn -0.0112 0.0132 0.9999
vn -0.0111 -0.9999 -0.0097
vn 0.0078 0.9999 0.0076
vn -0.0078 -0.9999 0.0076
vn 0.9108 -0.4119 -0.0259
vn 0.9109 0.4119 0.0258
vn 0.0325 -0.3753 0.9263
vn -0.0325 0.3753 0.9263
vn -0.9108 -0.4119 0.0259
vn -0.9109 0.4119 -0.0258
vn -0.0325 -0.3753 -0.9263
vn 0.0325 0.3753 -0.9263
vn 0.9590 0.2831 0.0111
vn 0.0103 0.0083 -0.9999
vn -0.0149 0.9998 0.0115
vn -0.0052 -0.0055 1.0000
vn 0.0078 -0.9999 0.0125
vn -0.9349 0.3547 0.0116
vn 0.0075 0.9999 -0.0067
vn -0.0075 -0.9999 -0.0067
vn 0.9107 -0.4123 -0.0247
vn 0.9107 0.4123 0.0247
vn 0.0294 -0.3765 0.9259
vn -0.0294 0.3765 0.9259
vn -0.9107 -0.4123 0.0247
vn -0.9107 0.4123 -0.0247
vn -0.0294 -0.3765 -0.9259
vn 0.0294 0.3765 -0.9259
vn -0.9590 0.2831 0.0111
vn -0.8943 0.2336 -0.3817
vn 0.8943 -0.2336 -0.3817
vn -0.0103 0.0083 -0.9999
vn 0.0149 0.9998 0.0115
vn -0.0101 0.0084 0.9999
vn -0.0078 -0.9999 0.0125
vn 0.9349 0.3547 0.0116
vn -0.9990 -0.0453 0.0033
vn -0.0012 1.0000 0.0021
vn 0.9990 -0.0453 -0.0033
vn 0.0012 -0.0278 0.9996
vn 0.0012 -1.0000 0.0021
vn -0.0015 -0.0399 -0.9992
vn -0.9979 -0.0649 0.0045
vn -0.0014 1.0000 0.0029
vn 0.9979 -0.0649 -0.0045
vn 0.0015 -0.0399 0.9992
vn 0.0014 -1.0000 0.0029
vn -0.0154 -0.0148 -0.9998
vn -0.9994 -0.0243 0.0243
vn -0.0154 0.9998 0.0148
vn 0.9994 -0.0243 -0.0243
vn 0.0154 -0.0148 0.9998
vn 0.0154 -0.9998 0.0148
vn -0.0302 0.0166 -0.9994
vn 0.0378 -0.0017 0.9993
vn 0.0006 0.0056 1.0000
vn -0.8997 0.4364 0.0080
vn -0.7550 0.6556 -0.0119
vn -0.0057 0.0301 -0.9995
vn 0.7287 -0.6825 0.0557
vn -0.6416 0.7635 0.0732
vn -0.0036 -0.0158 0.9999
vn -0.3152 0.9485 0.0300
vn 0.0255 0.0051 0.9997
vn 0.1660 -0.9859 0.0214
vn -0.1337 0.9909 0.0125
vn -0.0232 -0.0046 0.9997
vn 0.1200 0.9928 -0.0000
vn 0.2777 0.9600 0.0355
vn 0.0075 0.0234 0.9997
vn -0.0346 -0.0280 -0.9990
vn 0.6014 0.7985 0.0273
vn -0.0005 -0.0005 1.0000
vn -0.6237 -0.7792 -0.0618
vn 0.7878 0.6156 -0.0181
vn -0.0105 -0.0345 -0.9993
vn 0.8663 0.4950 0.0674
vn 0.0240 0.0074 0.9997
vn 0.9448 0.3276 0.0080
vn -0.9332 -0.3490 0.0851
vn 0.9975 0.0703 -0.0119
vn 0.0253 -0.0173 -0.9995
vn 0.9954 -0.0670 0.0682
vn 0.0220 0.0047 0.9997
vn -0.9571 0.2788 0.0786
vn 0.7986 -0.6016 0.0176
vn -0.0106 -0.0187 0.9998
vn -0.8104 0.5855 0.0215
vn 0.6172 -0.7868 -0.0000
vn -0.5821 0.8130 -0.0152
vn 0.4824 -0.8752 0.0355
vn -0.0057 -0.0039 -1.0000
vn -0.3014 0.9532 0.0214
vn 0.1393 -0.9899 0.0273
vn -0.1218 -0.9924 -0.0181
vn 0.0372 0.9991 0.0191
vn -0.2763 -0.9611 0.0029
vn 0.0171 0.0149 0.9997
vn 0.3085 0.9479 -0.0789
vn -0.0001 0.0115 -0.9999
vn -0.6016 -0.7986 0.0176
vn 0.0004 0.0005 1.0000
vn -0.7868 -0.6172 -0.0000
vn -0.0287 0.0076 0.9996
vn 0.8589 0.5082 -0.0634
vn -0.9924 0.1218 -0.0181
vn 0.9818 -0.1695 0.0855
vn -0.9626 0.2625 0.0674
vn -0.4810 0.6429 -0.5960
vn -0.2130 -0.6703 0.7108
vn 0.4810 0.6429 0.5960
vn -0.4902 -0.5764 0.6539
vn 0.7948 -0.1145 -0.5960
vn -0.7549 0.2359 -0.6120
vn 0.6429 -0.4810 0.5960
vn -0.2149 0.6989 -0.6822
vn -0.1679 0.6009 0.7815
vn 0.1145 -0.7948 0.5960
vn -0.4810 -0.6429 0.5960
vn 0.4269 0.5050 0.7501
vn -0.6429 -0.4810 -0.5960
vn -0.7948 -0.1145 0.5960
vn -0.9902 -0.1393 0.0139
vn 0.0326 -0.0100 0.9994
vn -0.0175 -0.0068 -0.9998
vn 0.9929 0.1183 0.0088
vn -0.0344 0.0052 0.9994
vn -0.0010 -0.0037 1.0000
vn 0.9200 -0.3916 0.0137
vn -0.7977 0.6027 -0.0193
vn -0.0267 0.0026 -0.9996
vn -0.0206 0.0280 0.9994
vn 0.7872 -0.6166 0.0090
vn -0.6185 0.7856 0.0155
vn 0.0062 -0.0037 -1.0000
vn 0.0117 -0.0339 0.9994
vn 0.6064 -0.7950 0.0154
vn -0.3859 0.9225 0.0095
vn 0.0173 -0.0114 -0.9998
vn -0.0177 0.0281 0.9994
vn 0.3717 -0.9282 0.0154
vn -0.1357 0.9907 0.0107
vn -0.0082 0.0058 -0.9999
vn -0.0025 -0.0075 1.0000
vn 0.1193 -0.9928 0.0089
vn 0.1219 0.9925 0.0112
vn -0.0002 -0.0265 -0.9996
vn -0.0093 -0.0267 0.9996
vn -0.1341 -0.9909 0.0108
vn 0.3737 0.9275 0.0103
vn -0.0096 -0.0264 -0.9996
vn -0.0037 0.0010 1.0000
vn -0.3879 -0.9216 0.0115
vn 0.6052 0.7959 -0.0142
vn 0.0028 -0.0007 -1.0000
vn 0.0280 0.0206 0.9994
vn -0.6185 -0.7857 0.0088
vn 0.7870 0.6168 0.0154
vn 0.0076 0.0171 -0.9998
vn -0.0301 -0.0159 0.9994
vn -0.7955 -0.6058 0.0108
vn 0.9204 0.3909 0.0104
vn -0.0156 -0.0137 -0.9998
vn -0.0019 0.0033 1.0000
vn -0.9260 -0.3774 0.0115
vn 0.9911 0.1325 0.0096
vn 0.0028 -0.0048 -1.0000
vn 0.0288 -0.0060 0.9996
vn -0.9929 -0.1183 0.0088
vn 0.9928 -0.1197 0.0110
vn 0.0242 0.0119 -0.9996
vn -0.0268 0.0131 0.9996
vn -0.9911 0.1325 0.0118
vn 0.9252 -0.3795 0.0095
vn -0.0266 -0.0055 -0.9996
vn 0.0237 -0.0137 0.9996
vn -0.9201 0.3916 0.0103
vn 0.7969 -0.6041 0.0107
vn 0.0261 -0.0051 -0.9996
vn -0.0030 -0.0052 1.0000
vn -0.7872 0.6166 0.0090
vn 0.6191 -0.7852 -0.0155
vn 0.0029 0.0050 -1.0000
vn -0.0082 0.0202 0.9998
vn -0.6072 0.7945 0.0084
vn 0.3923 -0.9196 0.0193
vn -0.0298 0.0163 -0.9994
vn 0.0006 0.0083 1.0000
vn -0.3737 0.9275 0.0137
vn 0.1325 -0.9912 0.0056
vn 0.0190 -0.0269 -0.9995
vn -0.0060 -0.0288 0.9996
vn -0.1206 0.9927 0.0090
vn -0.1219 -0.9925 0.0112
vn 0.0034 0.0009 -1.0000
vn 0.0093 0.0267 0.9996
vn 0.1325 0.9911 0.0084
vn -0.3744 -0.9272 0.0145
vn -0.0055 0.0266 -0.9996
vn 0.0037 -0.0010 1.0000
vn 0.3916 0.9200 0.0137
vn -0.6072 -0.7945 0.0056
vn -0.0051 -0.0261 -0.9996
vn -0.0246 -0.0162 0.9996
vn 0.6166 0.7872 0.0090
vn -0.7880 -0.6156 0.0112
vn 0.0030 -0.0017 -1.0000
vn 0.0255 0.0123 0.9996
vn 0.7955 0.6058 0.0108
vn -0.9201 -0.3916 0.0103
vn 0.0254 0.0119 -0.9996
vn 0.0019 -0.0033 1.0000
vn 0.9260 0.3774 0.0115
vn -0.0014 0.0025 -1.0000
vn -0.9926 0.1204 0.0154
vn 0.9911 -0.1325 0.0084
vn -0.9274 0.3737 0.0144
vn 0.0203 0.0042 -0.9998
vn -0.9908 -0.1349 -0.0142
vn 0.3114 -0.1823 -0.9326
vn 0.1803 -0.3180 -0.9308
vn 0.0109 -0.4448 -0.8956
vn -0.1965 -0.2977 -0.9342
vn -0.2563 -0.1714 -0.9513
vn -0.4707 0.0094 -0.8822
vn 0.0213 0.0368 -0.9991
vn -0.1244 0.1212 -0.9848
vn -0.0060 0.4731 -0.8810
vn 0.2758 0.4572 -0.8455
vn 0.2734 0.1695 -0.9469
vn 0.5327 -0.0045 -0.8463
vn -0.0030 -0.0009 -1.0000
vn 0.0121 0.0665 -0.9977
vn 0.0609 0.0106 -0.9981
vn -0.1237 0.1198 -0.9851
vn -0.0068 -0.0362 -0.9993
vn -0.0305 -0.0053 -0.9995
vn -0.0053 0.0014 -1.0000
vn 0.0014 -0.0053 -1.0000
vn 0.0039 0.0039 -1.0000
vn -0.1306 -0.1264 0.9833
vn -0.1304 -0.4789 0.8681
vn 0.0954 -0.3480 0.9326
vn 0.2605 -0.2565 0.9308
vn 0.4268 -0.1256 0.8956
vn 0.4586 0.1378 0.8779
vn 0.2740 0.2498 0.9287
vn 0.1349 0.5320 0.8360
vn -0.1147 0.4391 0.8911
vn -0.4148 0.4050 0.8148
vn -0.3474 0.1013 0.9322
vn -0.4634 -0.1319 0.8763
vn -0.0017 0.0026 1.0000
vn 0.0017 0.0026 1.0000
vn -0.0551 0.0022 0.9985
vn -0.0221 -0.0481 0.9986
vn 0.0089 -0.0210 0.9997
vn 0.0329 -0.0000 0.9995
vn -0.0000 0.0055 1.0000
vn 0.0070 0.0022 1.0000
vn -0.0032 -0.0000 1.0000
vn -0.0374 -0.0904 -0.9952
vn -0.0475 -0.1147 0.9923
vn -0.2344 -0.0971 -0.9673
vn -0.0783 -0.0325 0.9964
vn 0.0424 -0.1154 -0.9924
vn -0.0012 -0.0278 -0.9996
vn 0.2061 -0.1434 0.9680
vn 0.0971 -0.2344 -0.9673
vn 0.0325 -0.0783 0.9964
vn -0.0121 0.0494 -0.9987
vn -0.1118 0.0326 -0.9932
vn -0.1489 0.0289 0.9884
vn 0.1147 0.0422 -0.9925
vn 0.1433 0.0163 0.9895
vn 0.1472 -0.2038 -0.9679
vn 0.1902 -0.0092 0.9817
vn -0.0112 -0.0132 -0.9999
vn -0.9996 -0.0217 0.0158
vn -0.0111 0.9999 0.0097
vn 0.9996 -0.0217 -0.0158
vn 0.0112 -0.0132 0.9999
vn 0.0111 -0.9999 0.0097
vn -0.0078 0.9999 -0.0076
vn 0.0078 -0.9999 -0.0076
vn 0.9631 0.2687 -0.0125
vn -0.0052 -0.0054 -1.0000
vn 0.0099 0.9999 -0.0110
vn 0.0101 0.0084 0.9999
vn -0.0046 -0.9999 -0.0117
vn -0.9297 0.3681 -0.0116
vn -0.0075 0.9999 0.0067
vn 0.0075 -0.9999 0.0067
vn -0.9631 0.2687 -0.0125
vn 0.0052 -0.0054 -1.0000
vn -0.0099 0.9999 -0.0110
vn 0.0052 -0.0055 1.0000
vn 0.0046 -0.9999 -0.0117
vn 0.9297 0.3681 -0.0116
vt 0.00000 0.16006
vt 0.00000 0.51261
vt 0.00000 0.77499
vt 0.00000 0.80717
vt 0.00000 0.92334
vt 0.00000 0.98261
vt 0.00169 0.48083
vt 0.00305 0.16219
vt 0.00616 0.53644
vt 0.00622 0.20950
vt 0.00831 0.74391
vt 0.00831 0.83825
vt 0.01060 0.10820
vt 0.01060 0.44265
vt 0.01410 0.99462
vt 0.01410 0.99811
vt 0.01680 0.23119
vt 0.01817 0.99379
vt 0.01817 0.99728
vt 0.01842 0.08536
vt 0.01842 0.41981
vt 0.02436 0.71605
vt 0.02436 0.86611
vt 0.02609 0.58497
vt 0.02676 0.50997
vt 0.02789 0.13549
vt 0.02789 0.18889
vt 0.02800 0.47352
vt 0.02820 0.99462
vt 0.02820 0.99811
vt 0.02980 0.58504
vt 0.03061 0.13746
vt 0.03122 0.19002
vt 0.03227 0.99379
vt 0.03227 0.99728
vt 0.03566 0.54901
vt 0.03658 0.92334
vt 0.03658 0.98208
vt 0.03780 0.44705
vt 0.03915 0.54946
vt 0.04201 0.09801
vt 0.04213 0.22631
vt 0.04231 0.99462
vt 0.04231 0.99811
vt 0.04589 0.27537
vt 0.04637 0.99379
vt 0.04637 0.99728
vt 0.04662 0.92334
vt 0.04662 0.98208
vt 0.04705 0.69330
vt 0.04705 0.88886
vt 0.04889 0.04600
vt 0.04889 0.38044
vt 0.04954 0.04967
vt 0.04954 0.27472
vt 0.04954 0.38411
vt 0.04994 0.41903
vt 0.05641 0.99462
vt 0.05641 0.99811
vt 0.05965 0.62141
vt 0.06047 0.99379
vt 0.06047 0.99728
vt 0.06526 0.06541
vt 0.06526 0.25897
vt 0.06526 0.59341
vt 0.06643 0.06856
vt 0.06840 0.25779
vt 0.06840 0.59224
vt 0.07485 0.67721
vt 0.07485 0.90495
vt 0.08320 0.92334
vt 0.08320 0.98261
vt 0.08516 0.30592
vt 0.08516 0.64036
vt 0.08589 0.01984
vt 0.08589 0.35428
vt 0.08595 0.38284
vt 0.08764 0.38538
vt 0.09324 0.96612
vt 0.09386 0.92537
vt 0.09429 0.97952
vt 0.09446 0.99350
vt 0.09527 0.92334
vt 0.09527 0.96739
vt 0.09777 0.61671
vt 0.10340 0.99248
vt 0.10340 0.99452
vt 0.10421 0.97930
vt 0.10543 0.99248
vt 0.10585 0.66888
vt 0.10585 0.91328
vt 0.10794 0.31376
vt 0.10794 0.64820
vt 0.10883 0.03627
vt 0.10955 0.28864
vt 0.11072 0.28581
vt 0.11642 0.97955
vt 0.11750 0.99404
vt 0.12209 0.00618
vt 0.12209 0.34062
vt 0.12237 0.36634
vt 0.12627 0.97920
vt 0.12665 0.99328
vt 0.13185 0.92410
vt 0.13185 0.96816
vt 0.13326 0.96612
vt 0.13388 0.92537
vt 0.13404 0.03130
vt 0.13516 0.63087
vt 0.13712 0.62814
vt 0.13795 0.66888
vt 0.13795 0.91328
vt 0.14392 0.92334
vt 0.14392 0.92537
vt 0.14392 0.96739
vt 0.14439 0.99248
vt 0.14488 0.97955
vt 0.14586 0.00000
vt 0.14586 0.33444
vt 0.15408 0.97822
vt 0.15510 0.99328
vt 0.15543 0.98025
vt 0.15660 0.29785
vt 0.15967 0.32438
vt 0.15967 0.65882
vt 0.16041 0.36283
vt 0.16180 0.32133
vt 0.16180 0.35977
vt 0.16180 0.65577
vt 0.16615 0.98025
vt 0.16738 0.99350
vt 0.16746 0.02664
vt 0.16818 0.97884
vt 0.16895 0.67721
vt 0.16895 0.90495
vt 0.17631 0.99248
vt 0.17631 0.99452
vt 0.17712 0.97930
vt 0.17757 0.00169
vt 0.17757 0.33614
vt 0.17834 0.99248
vt 0.18050 0.92410
vt 0.18050 0.96612
vt 0.18050 0.96816
vt 0.18843 0.63087
vt 0.18956 0.29308
vt 0.18956 0.62753
vt 0.19116 0.97822
vt 0.19161 0.99125
vt 0.19257 0.97618
vt 0.19270 0.92542
vt 0.19303 0.96414
vt 0.19675 0.69330
vt 0.19675 0.88886
vt 0.20070 0.99248
vt 0.20119 0.36647
vt 0.20141 0.97714
vt 0.20211 0.99044
vt 0.20899 0.31815
vt 0.20899 0.65259
vt 0.21182 0.03482
vt 0.21214 0.03826
vt 0.21277 0.99044
vt 0.21384 0.97740
vt 0.21477 0.28812
vt 0.21480 0.99179
vt 0.21566 0.01062
vt 0.21566 0.34507
vt 0.21945 0.71605
vt 0.21945 0.86611
vt 0.22293 0.97687
vt 0.22364 0.99152
vt 0.22496 0.97822
vt 0.22576 0.61659
vt 0.22846 0.92536
vt 0.22883 0.96410
vt 0.23063 0.30754
vt 0.23063 0.64198
vt 0.23450 0.38440
vt 0.23500 0.97822
vt 0.23549 0.74391
vt 0.23549 0.83825
vt 0.23607 0.99125
vt 0.23703 0.97687
vt 0.23765 0.38284
vt 0.23844 0.01846
vt 0.23844 0.35290
vt 0.24341 0.96410
vt 0.24378 0.92536
vt 0.24380 0.77499
vt 0.24380 0.80717
vt 0.24516 0.99248
vt 0.24612 0.97740
vt 0.24657 0.99044
vt 0.25384 0.77499
vt 0.25384 0.80717
vt 0.25562 0.06700
vt 0.25663 0.06370
vt 0.25717 0.25582
vt 0.25717 0.59026
vt 0.25723 0.99044
vt 0.25834 0.25897
vt 0.25834 0.59341
vt 0.25855 0.97714
vt 0.25926 0.99179
vt 0.26215 0.74391
vt 0.26215 0.83825
vt 0.26386 0.28686
vt 0.26386 0.62130
vt 0.26739 0.97618
vt 0.26810 0.99152
vt 0.26880 0.97822
vt 0.27271 0.41814
vt 0.27405 0.04967
vt 0.27405 0.38411
vt 0.27771 0.04901
vt 0.27771 0.38345
vt 0.27820 0.71605
vt 0.27820 0.86611
vt 0.27921 0.96414
vt 0.27954 0.92542
vt 0.28159 0.22637
vt 0.28159 0.56082
vt 0.28445 0.10936
vt 0.28445 0.44380
vt 0.28748 0.26558
vt 0.28748 0.60002
vt 0.28794 0.10981
vt 0.29299 0.18693
vt 0.29331 0.52867
vt 0.29375 0.92517
vt 0.29387 0.96207
vt 0.29528 0.49524
vt 0.29571 0.18889
vt 0.29571 0.46993
vt 0.29684 0.14886
vt 0.29993 0.24436
vt 0.29993 0.57881
vt 0.30089 0.69330
vt 0.30089 0.88886
vt 0.30680 0.09319
vt 0.30680 0.42763
vt 0.31397 0.97618
vt 0.31499 0.98921
vt 0.31600 0.97414
vt 0.31600 0.97618
vt 0.31738 0.11488
vt 0.31738 0.44932
vt 0.31750 0.19324
vt 0.31750 0.52768
vt 0.31921 0.92639
vt 0.31921 0.96103
vt 0.32007 0.19592
vt 0.32007 0.53036
vt 0.32205 0.14637
vt 0.32205 0.48081
vt 0.32515 0.97545
vt 0.32575 0.98840
vt 0.32869 0.67721
vt 0.32869 0.90495
vt 0.33126 0.92517
vt 0.33138 0.96207
vt 0.33364 0.00105
vt 0.33364 0.32398
vt 0.33364 0.33601
vt 0.33364 0.65585
vt 0.33620 0.98840
vt 0.33751 0.97516
vt 0.33823 0.98840
vt 0.33823 0.99044
vt 0.34636 0.97456
vt 0.34717 0.98942
vt 0.35672 0.92639
vt 0.35672 0.96103
vt 0.35969 0.66888
vt 0.35969 0.91328
vt 0.36675 0.92439
vt 0.36675 0.95803
vt 0.36809 0.98689
vt 0.36817 0.97139
vt 0.38363 0.98709
vt 0.38371 0.97158
vt 0.39179 0.66888
vt 0.39179 0.91328
vt 0.39642 0.98689
vt 0.39649 0.97139
vt 0.40130 0.92531
vt 0.40130 0.95896
vt 0.41196 0.98709
vt 0.41204 0.97158
vt 0.41334 0.95774
vt 0.41346 0.92531
vt 0.42279 0.67721
vt 0.42279 0.90495
vt 0.42475 0.97129
vt 0.42483 0.98706
vt 0.43969 0.97211
vt 0.43969 0.98637
vt 0.43971 0.95803
vt 0.43982 0.92561
vt 0.45059 0.69330
vt 0.45059 0.88886
vt 0.45320 0.97129
vt 0.45328 0.98706
vt 0.45386 0.95774
vt 0.45398 0.92531
vt 0.46814 0.97211
vt 0.46814 0.98637
vt 0.47328 0.71605
vt 0.47328 0.86611
vt 0.48023 0.95803
vt 0.48034 0.92561
vt 0.48933 0.74391
vt 0.48933 0.83825
vt 0.49550 0.93746
vt 0.49550 0.96586
vt 0.49558 0.95323
vt 0.49558 0.98162
vt 0.49764 0.77499
vt 0.49764 0.80717
vt 0.51044 0.00198
vt 0.51044 0.32490
vt 0.51044 0.33601
vt 0.51044 0.65585
vt 0.51044 0.93827
vt 0.51044 0.95254
vt 0.51044 0.96667
vt 0.51044 0.98093
vt 0.52048 0.61575
vt 0.52048 0.87756
vt 0.52048 0.98930
vt 0.52151 0.48787
vt 0.52173 0.45281
vt 0.52181 0.97600
vt 0.52221 0.96437
vt 0.52248 0.32368
vt 0.52251 0.99064
vt 0.52260 0.00198
vt 0.52262 0.88990
vt 0.53034 0.41878
vt 0.53044 0.52183
vt 0.53064 0.97540
vt 0.53166 0.99010
vt 0.53255 0.48642
vt 0.53269 0.45426
vt 0.53462 0.32398
vt 0.53474 0.00227
vt 0.54077 0.42312
vt 0.54077 0.51754
vt 0.54271 0.98930
vt 0.54393 0.97611
vt 0.54474 0.98930
vt 0.54474 0.99133
vt 0.54808 0.38849
vt 0.54815 0.55210
vt 0.54878 0.32368
vt 0.54889 0.00198
vt 0.55287 0.97545
vt 0.55368 0.99031
vt 0.55691 0.39528
vt 0.55702 0.54528
vt 0.56092 0.32398
vt 0.56097 0.88988
vt 0.56103 0.00227
vt 0.56205 0.96408
vt 0.56617 0.99031
vt 0.56697 0.97545
vt 0.57274 0.57709
vt 0.57289 0.36375
vt 0.57307 0.32351
vt 0.57369 0.28073
vt 0.57408 0.11676
vt 0.57423 0.15184
vt 0.57493 0.89020
vt 0.57510 0.27869
vt 0.57510 0.32478
vt 0.57510 0.99133
vt 0.57534 0.96467
vt 0.57606 0.97627
vt 0.57652 0.98930
vt 0.57955 0.56820
vt 0.57969 0.37264
vt 0.58303 0.08281
vt 0.58303 0.18581
vt 0.58513 0.15041
vt 0.58528 0.11824
vt 0.58819 0.99010
vt 0.58920 0.97540
vt 0.59336 0.18152
vt 0.59346 0.08715
vt 0.59841 0.97635
vt 0.59889 0.98930
vt 0.60065 0.21616
vt 0.60067 0.05248
vt 0.60315 0.34613
vt 0.60315 0.59452
vt 0.60741 0.58422
vt 0.60745 0.35654
vt 0.60940 0.05919
vt 0.60961 0.20927
vt 0.61368 0.96469
vt 0.61477 0.89049
vt 0.61575 0.27946
vt 0.61575 0.32554
vt 0.61716 0.32351
vt 0.61778 0.28073
vt 0.62541 0.24098
vt 0.62548 0.02774
vt 0.62718 0.89036
vt 0.62725 0.96130
vt 0.62725 0.97410
vt 0.62732 0.94580
vt 0.62733 0.98987
vt 0.62782 0.32351
vt 0.62793 0.93238
vt 0.62844 0.28073
vt 0.62914 0.89164
vt 0.62985 0.27869
vt 0.62985 0.32478
vt 0.63214 0.23219
vt 0.63229 0.03663
vt 0.63695 0.33690
vt 0.63696 0.60363
vt 0.63839 0.34789
vt 0.63844 0.59240
vt 0.64219 0.97491
vt 0.64219 0.98917
vt 0.64279 0.96150
vt 0.64287 0.94599
vt 0.64648 0.61668
vt 0.64648 0.87849
vt 0.65574 0.01012
vt 0.65574 0.25851
vt 0.65652 0.61470
vt 0.65652 0.87343
vt 0.65652 0.97378
vt 0.65652 0.99010
vt 0.65821 0.96111
vt 0.65839 0.88512
vt 0.66000 0.02042
vt 0.66000 0.24821
vt 0.67050 0.27946
vt 0.67050 0.32554
vt 0.67050 0.34825
vt 0.67052 0.59255
vt 0.67075 0.97440
vt 0.67075 0.99072
vt 0.67191 0.32351
vt 0.67195 0.33726
vt 0.67196 0.60348
vt 0.67253 0.28073
vt 0.68078 0.97378
vt 0.68078 0.99010
vt 0.68257 0.27869
vt 0.68257 0.28073
vt 0.68257 0.32478
vt 0.68956 0.00102
vt 0.68957 0.26750
vt 0.69100 0.01200
vt 0.69103 0.25639
vt 0.69501 0.97440
vt 0.69501 0.99072
vt 0.70157 0.35635
vt 0.70157 0.58430
vt 0.70505 0.97378
vt 0.70505 0.99010
vt 0.70585 0.59466
vt 0.70589 0.34589
vt 0.71652 0.94445
vt 0.71661 0.90681
vt 0.71927 0.97440
vt 0.71927 0.99072
vt 0.72309 0.01224
vt 0.72311 0.25654
vt 0.72321 0.27946
vt 0.72321 0.32351
vt 0.72321 0.32554
vt 0.72457 0.00102
vt 0.72457 0.26759
vt 0.72876 0.96143
vt 0.72925 0.56801
vt 0.72931 0.97378
vt 0.72931 0.99010
vt 0.72933 0.37252
vt 0.72964 0.88493
vt 0.73325 0.27869
vt 0.73325 0.28073
vt 0.73325 0.32478
vt 0.73605 0.57690
vt 0.73611 0.36368
vt 0.74353 0.97440
vt 0.74353 0.99072
vt 0.75192 0.39537
vt 0.75204 0.54537
vt 0.75412 0.02042
vt 0.75416 0.24829
vt 0.75456 0.98804
vt 0.75460 0.97437
vt 0.75838 0.01012
vt 0.75844 0.25865
vt 0.76069 0.38862
vt 0.76086 0.55216
vt 0.76468 0.98810
vt 0.76482 0.97442
vt 0.76817 0.42312
vt 0.76817 0.51754
vt 0.77389 0.27946
vt 0.77389 0.32351
vt 0.77389 0.32554
vt 0.77625 0.48640
vt 0.77640 0.45424
vt 0.77850 0.52183
vt 0.77860 0.41878
vt 0.78184 0.23200
vt 0.78198 0.03644
vt 0.78252 0.61470
vt 0.78252 0.87343
vt 0.78520 0.27946
vt 0.78595 0.32351
vt 0.78672 0.94467
vt 0.78680 0.90681
vt 0.78716 0.28073
vt 0.78734 0.48786
vt 0.78743 0.45278
vt 0.78864 0.24089
vt 0.78879 0.02755
vt 0.79715 0.94105
vt 0.79715 0.97568
vt 0.79715 0.98574
vt 0.79715 1.00000
vt 0.79850 0.61091
vt 0.79850 0.65157
vt 0.79850 0.69436
vt 0.79850 0.72615
vt 0.79850 0.75794
vt 0.79850 0.80448
vt 0.79850 0.84139
vt 0.79885 0.85336
vt 0.79902 0.92936
vt 0.79932 0.27946
vt 0.80008 0.32351
vt 0.80050 0.59858
vt 0.80061 0.33799
vt 0.80129 0.28073
vt 0.80451 0.05936
vt 0.80463 0.20936
vt 0.80858 0.59887
vt 0.80869 0.33828
vt 0.81138 0.98574
vt 0.81138 1.00000
vt 0.81338 0.05254
vt 0.81345 0.21615
vt 0.81345 0.27946
vt 0.81420 0.32351
vt 0.81542 0.28073
vt 0.82076 0.08710
vt 0.82076 0.18152
vt 0.82273 0.59858
vt 0.82285 0.33799
vt 0.82288 0.61091
vt 0.82288 0.64782
vt 0.82288 0.69436
vt 0.82288 0.72615
vt 0.82288 0.75794
vt 0.82288 0.80073
vt 0.82288 0.84139
vt 0.82758 0.27946
vt 0.82764 0.94105
vt 0.82764 0.97568
vt 0.82833 0.32351
vt 0.82884 0.15039
vt 0.82899 0.11822
vt 0.82954 0.28073
vt 0.83081 0.59887
vt 0.83092 0.33828
vt 0.83109 0.08281
vt 0.83120 0.18586
vt 0.83292 0.61091
vt 0.83292 0.63560
vt 0.83292 0.68111
vt 0.83292 0.72615
vt 0.83292 0.75794
vt 0.83292 0.78852
vt 0.83292 0.81669
vt 0.83292 0.84139
vt 0.83901 0.95787
vt 0.83901 0.98626
vt 0.83908 0.94236
vt 0.83908 0.97076
vt 0.83980 0.15183
vt 0.84002 0.11677
vt 0.84296 0.33601
vt 0.84296 0.36095
vt 0.84296 0.38931
vt 0.84296 0.41999
vt 0.84296 0.45182
vt 0.84296 0.50084
vt 0.84296 0.54203
vt 0.84296 0.56648
vt 0.84430 0.59336
vt 0.84437 0.57786
vt 0.85109 0.00000
vt 0.85109 0.02494
vt 0.85109 0.05329
vt 0.85109 0.08398
vt 0.85109 0.11581
vt 0.85109 0.16482
vt 0.85109 0.20601
vt 0.85109 0.23047
vt 0.85314 0.24212
vt 0.85402 0.31861
vt 0.85455 0.95806
vt 0.85455 0.98646
vt 0.85463 0.94256
vt 0.85463 0.97095
vt 0.85715 0.87002
vt 0.85724 0.90766
vt 0.85731 0.61091
vt 0.85731 0.63560
vt 0.85731 0.67703
vt 0.85731 0.72615
vt 0.85731 0.75794
vt 0.85731 0.80073
vt 0.85731 0.84139
vt 0.85984 0.59356
vt 0.85991 0.57805
vt 0.86735 0.33601
vt 0.86735 0.36095
vt 0.86735 0.38931
vt 0.86735 0.41999
vt 0.86735 0.45182
vt 0.86735 0.48357
vt 0.86735 0.52616
vt 0.86735 0.56648
vt 0.86735 0.61091
vt 0.86735 0.63897
vt 0.86735 0.67164
vt 0.86735 0.70670
vt 0.86735 0.74177
vt 0.86735 0.77444
vt 0.86735 0.80250
vt 0.86735 0.81256
vt 0.86735 0.83764
vt 0.86735 0.86697
vt 0.86735 0.89855
vt 0.86735 0.93024
vt 0.86735 0.95986
vt 0.86735 0.98541
vt 0.87548 0.00000
vt 0.87548 0.02494
vt 0.87548 0.05329
vt 0.87548 0.08398
vt 0.87548 0.11581
vt 0.87548 0.14756
vt 0.87548 0.19015
vt 0.87548 0.23047
vt 0.87738 0.33601
vt 0.87738 0.36407
vt 0.87738 0.39674
vt 0.87738 0.43181
vt 0.87738 0.46687
vt 0.87738 0.49954
vt 0.87738 0.52760
vt 0.87738 0.53766
vt 0.87738 0.59640
vt 0.88551 0.00000
vt 0.88551 0.02831
vt 0.88551 0.06115
vt 0.88551 0.09626
vt 0.88551 0.13127
vt 0.88551 0.16378
vt 0.88551 0.19157
vt 0.88564 0.61091
vt 0.88564 0.63897
vt 0.88564 0.67164
vt 0.88564 0.70670
vt 0.88564 0.74177
vt 0.88564 0.77444
vt 0.88564 0.80250
vt 0.88564 0.81256
vt 0.88564 0.83764
vt 0.88564 0.86697
vt 0.88564 0.89855
vt 0.88564 0.93024
vt 0.88564 0.95986
vt 0.88564 0.98541
vt 0.88685 0.21846
vt 0.88692 0.20295
vt 0.89567 0.33601
vt 0.89567 0.36407
vt 0.89567 0.39674
vt 0.89567 0.43181
vt 0.89567 0.46687
vt 0.89567 0.49954
vt 0.89567 0.52760
vt 0.89567 0.61091
vt 0.89567 0.63922
vt 0.89567 0.67206
vt 0.89567 0.70717
vt 0.89567 0.74218
vt 0.89567 0.77469
vt 0.89567 0.80248
vt 0.89567 0.81254
vt 0.89567 0.83786
vt 0.89567 0.86734
vt 0.89567 0.89897
vt 0.89567 0.93061
vt 0.89567 0.96009
vt 0.89567 0.98541
vt 0.90239 0.21865
vt 0.90247 0.20315
vt 0.90380 0.00000
vt 0.90380 0.02831
vt 0.90380 0.06115
vt 0.90380 0.09626
vt 0.90380 0.13127
vt 0.90380 0.16378
vt 0.90380 0.19157
vt 0.90571 0.33601
vt 0.90571 0.35639
vt 0.90571 0.39358
vt 0.90571 0.44595
vt 0.90571 0.48254
vt 0.90571 0.51733
vt 0.91110 0.25888
vt 0.91118 0.29673
vt 0.91384 0.01155
vt 0.91384 0.04362
vt 0.91384 0.06884
vt 0.91384 0.10994
vt 0.91384 0.15938
vt 0.91384 0.19015
vt 0.91397 0.53766
vt 0.91397 0.59718
vt 0.91397 0.61091
vt 0.91397 0.63922
vt 0.91397 0.67206
vt 0.91397 0.70717
vt 0.91397 0.74218
vt 0.91397 0.77469
vt 0.91397 0.80248
vt 0.91397 0.81254
vt 0.91397 0.83786
vt 0.91397 0.86734
vt 0.91397 0.89897
vt 0.91397 0.93061
vt 0.91397 0.96009
vt 0.91397 0.98541
vt 0.91518 0.21703
vt 0.91525 0.20153
vt 0.92255 0.24129
vt 0.92263 0.29663
vt 0.92270 0.31240
vt 0.92330 0.28331
vt 0.92400 0.53766
vt 0.92400 0.59718
vt 0.92400 0.61091
vt 0.92400 0.63108
vt 0.92400 0.66807
vt 0.92400 0.70550
vt 0.92400 0.74442
vt 0.92400 0.78047
vt 0.92400 0.80104
vt 0.92400 0.81110
vt 0.92400 0.83642
vt 0.92400 0.86590
vt 0.92400 0.89753
vt 0.92400 0.92917
vt 0.92400 0.95865
vt 0.92400 0.98396
vt 0.92452 0.24256
vt 0.93010 0.33601
vt 0.93010 0.36730
vt 0.93010 0.41622
vt 0.93010 0.45732
vt 0.93010 0.49293
vt 0.93010 0.52616
vt 0.93072 0.21723
vt 0.93080 0.20172
vt 0.93756 0.29744
vt 0.93756 0.31170
vt 0.93823 0.00000
vt 0.93823 0.03077
vt 0.93823 0.06884
vt 0.93823 0.10644
vt 0.93823 0.15692
vt 0.93823 0.19015
vt 0.94014 0.34671
vt 0.94014 0.37928
vt 0.94014 0.41925
vt 0.94014 0.45687
vt 0.94014 0.49512
vt 0.94014 0.52615
vt 0.94229 0.81110
vt 0.94229 0.83642
vt 0.94229 0.86590
vt 0.94229 0.89753
vt 0.94229 0.92917
vt 0.94229 0.95865
vt 0.94229 0.98396
vt 0.94839 0.61091
vt 0.94839 0.64140
vt 0.94839 0.67930
vt 0.94839 0.71688
vt 0.94839 0.75708
vt 0.94839 0.79075
vt 0.95028 0.00184
vt 0.95028 0.19525
vt 0.95039 0.18133
vt 0.95039 0.32381
vt 0.95745 0.19647
vt 0.95745 0.32277
vt 0.95843 0.80432
vt 0.95924 0.82984
vt 0.96044 0.61274
vt 0.96056 0.79224
vt 0.96058 0.53766
vt 0.96058 0.59640
vt 0.96151 0.00306
vt 0.96151 0.18029
vt 0.96249 0.80432
vt 0.96452 0.33601
vt 0.96452 0.36651
vt 0.96452 0.40441
vt 0.96452 0.44199
vt 0.96452 0.49264
vt 0.96452 0.52615
vt 0.96950 0.19525
vt 0.96961 0.32381
vt 0.97167 0.61396
vt 0.97167 0.79120
vt 0.97196 0.53889
vt 0.97196 0.56728
vt 0.97204 0.55465
vt 0.97204 0.58305
vt 0.97456 0.51030
vt 0.97592 0.48501
vt 0.97667 0.19647
vt 0.97667 0.32277
vt 0.97862 0.51030
vt 0.98171 0.61091
vt 0.98171 0.63599
vt 0.98171 0.66532
vt 0.98171 0.69690
vt 0.98171 0.72859
vt 0.98171 0.75821
vt 0.98171 0.78376
vt 0.98565 0.00000
vt 0.98565 0.01426
vt 0.98565 0.02432
vt 0.98565 0.03858
vt 0.98565 0.04864
vt 0.98565 0.06290
vt 0.98690 0.53970
vt 0.98690 0.55396
vt 0.98690 0.56810
vt 0.98690 0.58235
vt 0.99988 0.00000
vt 0.99988 0.01426
vt 0.99988 0.02432
vt 0.99988 0.03858
vt 0.99988 0.04864
vt 0.99988 0.06290
vt 1.00000 0.61091
vt 1.00000 0.63599
vt 1.00000 0.66532
vt 1.00000 0.69690
vt 1.00000 0.72859
vt 1.00000 0.75821
vt 1.00000 0.78376
s 0
usemtl MMO_plaster
f 1/263/380 3/321/380 7/322/380
f 1/263/65 7/322/65 5/264/65
f 1/347/316 6/336/316 2/338/316
f 1/347/606 5/346/606 6/336/606
f 3/830/378 1/831/378 2/816/378
f 3/830/63 2/816/63 4/815/63
f 5/819/376 7/820/376 8/809/376
f 5/819/61 8/809/61 6/807/61
f 6/265/377 8/323/377 4/324/377
f 6/265/62 4/324/62 2/266/62
f 7/364/379 3/362/379 4/356/379
f 7/364/64 4/356/64 8/357/64
usemtl MMO_oak
f 11/838/384 9/839/384 10/829/384
f 11/838/69 10/829/69 12/828/69
f 13/811/382 15/812/382 16/810/382
f 13/811/67 16/810/67 14/808/67
f 14/434/383 16/516/383 12/517/383
f 14/434/68 12/517/68 10/435/68
f 15/575/385 11/574/385 12/558/385
f 15/575/70 12/558/70 16/559/70
f 173/501/211 180/484/211 177/490/211
f 173/501/463 176/493/463 180/484/463
f 174/715/302 177/668/302 178/714/302
f 174/715/306 265/670/306 173/669/306
f 174/715/554 173/669/554 177/668/554
f 174/715/558 266/716/558 265/670/558
f 175/400/305 178/384/305 179/389/305
f 175/400/557 174/393/557 178/384/557
f 175/645/303 180/682/303 176/683/303
f 175/645/555 179/644/555 180/682/555
f 177/490/215 184/463/215 181/468/215
f 177/490/467 180/484/467 184/463/467
f 178/714/304 181/667/304 182/713/304
f 178/714/556 177/668/556 181/667/556
f 179/389/218 182/373/218 183/385/218
f 179/389/470 178/384/470 182/373/470
f 179/644/216 184/681/216 180/682/216
f 179/644/468 183/643/468 184/681/468
f 181/468/219 188/444/219 185/449/219
f 181/468/471 184/463/471 188/444/471
f 183/385/222 186/372/222 187/386/222
f 183/385/474 182/373/474 186/372/474
f 183/643/220 188/680/220 184/681/220
f 183/643/472 187/642/472 188/680/472
f 185/449/223 192/424/223 189/422/223
f 185/449/475 188/444/475 192/424/475
f 186/635/221 189/674/221 190/636/221
f 186/635/473 185/673/473 189/674/473
f 186/712/217 181/667/217 185/666/217
f 186/712/469 182/713/469 181/667/469
f 187/386/226 190/383/226 191/390/226
f 187/386/478 186/372/478 190/383/478
f 187/770/224 192/799/224 188/800/224
f 187/770/476 191/769/476 192/799/476
f 190/383/230 195/399/230 191/390/230
f 190/383/482 194/394/482 195/399/482
f 190/636/225 193/675/225 194/637/225
f 190/636/477 189/674/477 193/675/477
f 193/395/227 192/424/227 196/398/227
f 193/395/479 189/422/479 192/424/479
f 194/394/234 199/421/234 195/399/234
f 194/394/486 198/408/486 199/421/486
f 194/637/229 197/676/229 198/638/229
f 194/637/481 193/675/481 197/676/481
f 195/768/232 200/797/232 196/798/232
f 195/768/484 199/767/484 200/797/484
f 196/798/228 191/769/228 195/768/228
f 196/798/480 192/799/480 191/769/480
f 197/369/231 196/398/231 200/382/231
f 197/369/235 204/360/235 201/354/235
f 197/369/483 193/395/483 196/398/483
f 197/369/487 200/382/487 204/360/487
f 198/638/233 201/677/233 202/639/233
f 198/638/485 197/676/485 201/677/485
f 199/767/236 204/796/236 200/797/236
f 199/767/488 203/766/488 204/796/488
f 201/354/239 208/348/239 205/340/239
f 201/354/491 204/360/491 208/348/491
f 202/639/237 205/678/237 206/640/237
f 202/639/489 201/677/489 205/678/489
f 203/440/238 198/408/238 202/432/238
f 203/440/242 206/457/242 207/459/242
f 203/440/490 199/421/490 198/408/490
f 203/440/494 202/432/494 206/457/494
f 203/766/240 208/795/240 204/796/240
f 203/766/492 207/765/492 208/795/492
f 205/340/243 212/345/243 209/333/243
f 205/340/495 208/348/495 212/345/495
f 207/459/246 210/478/246 211/473/246
f 207/459/498 206/457/498 210/478/498
f 207/765/244 212/794/244 208/795/244
f 207/765/496 211/764/496 212/794/496
f 209/333/247 216/344/247 213/332/247
f 209/333/499 212/345/499 216/344/499
f 210/641/241 205/678/241 209/679/241
f 210/641/493 206/640/493 205/678/493
f 210/696/245 213/736/245 214/697/245
f 210/696/497 209/735/497 213/736/497
f 211/473/250 214/499/250 215/495/250
f 211/473/502 210/478/502 214/499/502
f 211/864/248 216/842/248 212/841/248
f 211/864/500 215/865/500 216/842/500
f 213/332/251 220/349/251 217/341/251
f 213/332/503 216/344/503 220/349/503
f 214/697/249 217/737/249 218/698/249
f 214/697/501 213/736/501 217/737/501
f 215/495/254 218/526/254 219/515/254
f 215/495/506 214/499/506 218/526/506
f 215/865/252 220/843/252 216/842/252
f 215/865/504 219/866/504 220/843/504
f 217/341/255 224/361/255 221/355/255
f 217/341/507 220/349/507 224/361/507
f 218/698/253 221/738/253 222/699/253
f 218/698/505 217/737/505 221/738/505
f 219/515/258 222/551/258 223/545/258
f 219/515/510 218/526/510 222/551/510
f 219/866/256 224/844/256 220/843/256
f 219/866/508 223/867/508 224/844/508
f 221/355/259 228/381/259 225/368/259
f 221/355/511 224/361/511 228/381/511
f 222/699/257 225/739/257 226/700/257
f 222/699/509 221/738/509 225/739/509
f 223/545/262 226/576/262 227/556/262
f 223/545/514 222/551/514 226/576/514
f 223/867/260 228/845/260 224/844/260
f 223/867/512 227/868/512 228/845/512
f 225/368/263 232/397/263 229/396/263
f 225/368/515 228/381/515 232/397/515
f 226/700/261 229/740/261 230/701/261
f 226/700/513 225/739/513 229/740/513
f 227/556/266 230/591/266 231/572/266
f 227/556/518 226/576/518 230/591/518
f 227/868/264 232/846/264 228/845/264
f 227/868/516 231/869/516 232/846/516
f 229/396/267 236/425/267 233/423/267
f 229/396/519 232/397/519 236/425/519
f 230/701/265 233/741/265 234/702/265
f 230/701/517 229/740/517 233/741/517
f 231/572/270 234/590/270 235/571/270
f 231/572/522 230/591/522 234/590/522
f 231/869/268 236/847/268 232/846/268
f 231/869/520 235/870/520 236/847/520
f 233/423/271 240/445/271 237/450/271
f 233/423/523 236/425/523 240/445/523
f 235/571/274 238/577/274 239/557/274
f 235/571/526 234/590/526 238/577/526
f 235/709/272 240/747/272 236/748/272
f 235/709/524 239/708/524 240/747/524
f 237/450/275 244/464/275 241/467/275
f 237/450/527 240/445/527 244/464/527
f 238/658/269 233/689/269 237/690/269
f 238/658/273 241/691/273 242/659/273
f 238/658/521 234/657/521 233/689/521
f 238/658/525 237/690/525 241/691/525
f 239/557/278 242/552/278 243/546/278
f 239/557/530 238/577/530 242/552/530
f 239/708/276 244/746/276 240/747/276
f 239/708/528 243/707/528 244/746/528
f 241/467/279 248/481/279 245/489/279
f 241/467/531 244/464/531 248/481/531
f 242/659/277 245/692/277 246/660/277
f 242/659/529 241/691/529 245/692/529
f 243/546/282 246/525/282 247/514/282
f 243/546/534 242/552/534 246/525/534
f 243/707/280 248/745/280 244/746/280
f 243/707/532 247/706/532 248/745/532
f 245/489/283 252/494/283 249/502/283
f 245/489/535 248/481/535 252/494/535
f 246/660/281 249/693/281 250/661/281
f 246/660/533 245/692/533 249/693/533
f 247/514/286 250/500/286 251/496/286
f 247/514/538 246/525/538 250/500/538
f 247/706/284 252/744/284 248/745/284
f 247/706/536 251/705/536 252/744/536
f 249/502/287 256/506/287 253/512/287
f 249/502/539 252/494/539 256/506/539
f 250/661/285 253/694/285 254/662/285
f 250/661/537 249/693/537 253/694/537
f 251/496/290 254/479/290 255/474/290
f 251/496/542 250/500/542 254/479/542
f 251/705/288 256/743/288 252/744/288
f 251/705/540 255/704/540 256/743/540
f 253/512/291 260/510/291 257/523/291
f 253/512/543 256/506/543 260/510/543
f 254/662/289 257/695/289 258/663/289
f 254/662/541 253/694/541 257/695/541
f 255/474/294 258/458/294 259/460/294
f 255/474/546 254/479/546 258/458/546
f 255/704/292 260/742/292 256/743/292
f 255/704/544 259/703/544 260/742/544
f 257/523/295 264/511/295 261/524/295
f 257/523/547 260/510/547 264/511/547
f 258/718/293 261/671/293 262/717/293
f 258/718/545 257/672/545 261/671/545
f 259/648/296 264/685/296 260/686/296
f 259/648/548 263/647/548 264/685/548
f 261/524/299 268/505/299 265/513/299
f 261/524/551 264/511/551 268/505/551
f 262/717/297 265/670/297 266/716/297
f 262/717/549 261/671/549 265/670/549
f 263/441/298 258/458/298 262/433/298
f 263/441/301 266/407/301 267/420/301
f 263/441/550 259/460/550 258/458/550
f 263/441/553 262/433/553 266/407/553
f 263/647/300 268/684/300 264/685/300
f 263/647/552 267/646/552 268/684/552
f 265/513/214 176/493/214 173/501/214
f 265/513/466 268/505/466 176/493/466
f 267/420/212 174/393/212 175/400/212
f 267/420/464 266/407/464 174/393/464
f 267/646/213 176/683/213 268/684/213
f 267/646/465 175/645/465 176/683/465
f 337/277/341 343/288/341 341/278/341
f 337/277/622 339/287/622 343/288/622
f 337/300/335 342/291/335 338/292/335
f 337/300/617 341/299/617 342/291/617
f 339/273/339 338/262/339 340/261/339
f 339/273/620 337/274/620 338/262/620
f 341/251/337 344/232/337 342/231/337
f 341/251/618 343/252/618 344/232/618
f 342/568/338 340/528/338 338/527/338
f 342/568/619 344/569/619 340/528/619
f 343/312/340 340/305/340 344/306/340
f 343/312/621 339/311/621 340/305/621
f 354/438/353 356/470/353 355/469/353
f 354/438/626 353/439/626 356/470/626
f 357/365/356 354/339/356 358/363/356
f 357/365/629 353/335/629 354/339/629
f 358/38/352 355/5/352 359/37/352
f 358/38/625 354/6/625 355/5/625
f 358/610/355 360/726/355 357/611/355
f 358/610/628 359/725/628 360/726/628
f 359/152/354 356/175/354 360/176/354
f 359/152/627 355/151/627 356/175/627
f 360/664/357 353/734/357 357/665/357
f 360/664/630 356/733/630 353/734/630
f 373/756/375 380/817/375 377/818/375
f 373/756/638 376/755/638 380/817/638
f 374/378/374 377/402/374 378/401/374
f 374/378/637 373/374/637 377/402/637
f 375/71/368 378/49/368 379/48/368
f 375/71/633 374/72/633 378/49/633
f 376/189/372 379/220/372 380/188/372
f 376/189/635 375/221/635 379/220/635
f 376/617/371 374/538/371 375/616/371
f 376/617/634 373/539/634 374/538/634
f 378/480/373 380/521/373 379/520/373
f 378/480/636 377/485/636 380/521/636
f 9/329/386 11/430/386 15/431/386
f 9/329/71 15/431/71 13/330/71
f 9/548/381 13/547/381 14/542/381
f 9/548/66 14/542/66 10/543/66
usemtl MMO_brass
f 100/603/108 103/651/108 104/604/108
f 100/603/416 95/650/416 103/651/416
f 102/161/180 99/162/180 106/132/180
f 103/139/109 102/161/109 106/132/109
f 103/139/181 111/99/181 107/118/181
f 103/139/417 95/167/417 102/161/417
f 104/209/13 101/203/13 97/238/13
f 104/209/179 97/238/179 100/227/179
f 104/604/111 107/652/111 108/605/111
f 104/604/418 103/651/418 107/652/418
f 105/200/182 101/203/182 109/174/182
f 105/200/38 98/223/38 101/203/38
f 105/823/112 106/789/112 99/788/112
f 105/823/12 99/788/12 98/822/12
f 106/132/114 111/99/114 103/139/114
f 106/789/113 109/824/113 110/790/113
f 106/789/419 105/823/419 109/824/419
f 108/178/16 113/145/16 109/174/16
f 108/605/115 111/653/115 112/606/115
f 108/605/420 107/652/420 111/653/420
f 109/174/116 104/209/116 108/178/116
f 109/174/39 113/145/39 116/147/39
f 109/174/421 101/203/421 104/209/421
f 112/160/178 119/129/178 108/178/178
f 112/160/452 115/125/452 119/129/452
f 112/606/117 114/654/117 115/607/117
f 112/606/422 111/653/422 114/654/422
f 113/145/184 124/110/184 116/147/184
f 113/145/453 120/109/453 124/110/453
f 114/75/118 125/63/118 118/54/118
f 114/75/423 117/94/423 125/63/423
f 116/825/119 117/791/119 110/790/119
f 116/825/15 110/790/15 109/824/15
f 117/791/120 124/826/120 121/792/120
f 117/791/424 116/825/424 124/826/424
f 117/94/14 111/99/14 106/132/14
f 117/94/17 114/75/17 111/99/17
f 117/94/183 106/132/183 110/108/183
f 117/94/40 121/66/40 125/63/40
f 118/54/124 130/41/124 126/13/124
f 118/54/185 122/52/185 114/75/185
f 118/54/426 125/63/426 130/41/426
f 119/129/123 120/109/123 113/145/123
f 119/129/125 123/93/125 120/109/125
f 119/129/187 115/125/187 123/93/187
f 119/129/19 113/145/19 108/178/19
f 122/655/122 123/608/122 115/607/122
f 122/655/18 115/607/18 114/654/18
f 123/608/121 127/656/121 128/609/121
f 123/608/425 122/655/425 127/656/425
f 123/93/20 129/85/20 120/109/20
f 124/110/189 120/109/189 129/85/189
f 124/826/126 130/793/126 121/792/126
f 124/826/427 129/827/427 130/793/427
f 127/20/186 118/54/186 126/13/186
f 127/20/454 122/52/454 118/54/454
f 128/578/127 126/619/127 131/579/127
f 128/578/428 127/618/428 126/619/428
f 129/732/128 133/786/128 130/787/128
f 129/732/429 136/731/429 133/786/429
f 129/85/131 131/60/131 132/65/131
f 129/85/431 123/93/431 131/60/431
f 130/41/129 137/26/129 126/13/129
f 130/41/190 125/63/190 121/66/190
f 130/41/42 133/32/42 137/26/42
f 131/579/130 138/620/130 135/580/130
f 131/579/430 126/619/430 138/620/430
f 131/60/191 123/93/191 128/74/191
f 133/32/193 146/27/193 137/26/193
f 133/32/456 141/33/456 146/27/456
f 133/786/132 145/730/132 141/785/132
f 133/786/432 136/731/432 145/730/432
f 134/8/192 138/1/192 126/13/192
f 135/580/133 143/621/133 144/581/133
f 135/580/433 138/620/433 143/621/433
f 136/68/41 129/85/41 132/65/41
f 137/26/21 134/8/21 126/13/21
f 139/31/137 144/9/137 140/36/137
f 139/31/196 135/24/196 144/9/196
f 139/31/22 132/65/22 131/60/22
f 139/31/24 140/36/24 132/65/24
f 139/31/43 131/60/43 135/24/43
f 141/785/136 148/729/136 149/784/136
f 141/785/435 145/730/435 148/729/435
f 142/622/139 151/583/139 147/582/139
f 142/622/436 154/623/436 151/583/436
f 143/10/194 134/8/194 142/17/194
f 143/10/457 138/1/457 134/8/457
f 144/581/134 142/622/134 147/582/134
f 144/581/434 143/621/434 142/622/434
f 144/9/141 148/25/141 140/36/141
f 145/40/188 132/65/188 140/36/188
f 145/40/455 136/68/455 132/65/455
f 146/27/135 142/17/135 134/8/135
f 146/27/138 149/42/138 142/17/138
f 146/27/198 141/33/198 149/42/198
f 146/27/23 134/8/23 137/26/23
f 148/25/143 151/7/143 152/28/143
f 148/25/197 145/40/197 140/36/197
f 148/25/439 144/9/439 151/7/439
f 148/729/142 153/783/142 149/784/142
f 148/729/438 152/728/438 153/783/438
f 149/42/44 153/67/44 156/64/44
f 150/55/140 149/42/140 156/64/140
f 150/55/146 164/95/146 157/92/146
f 150/55/199 154/45/199 142/17/199
f 150/55/437 142/17/437 149/42/437
f 150/55/441 156/64/441 164/95/441
f 151/7/147 155/14/147 152/28/147
f 151/7/200 144/9/200 147/2/200
f 153/67/201 164/95/201 156/64/201
f 153/67/459 162/96/459 164/95/459
f 154/623/144 155/584/144 151/583/144
f 155/14/26 160/57/26 152/28/26
f 155/584/145 158/624/145 159/585/145
f 155/584/440 154/623/440 158/624/440
f 157/92/150 168/123/150 165/127/150
f 157/92/443 164/95/443 168/123/443
f 158/73/195 150/55/195 157/92/195
f 158/73/458 154/45/458 150/55/458
f 159/21/203 166/56/203 155/14/203
f 159/21/460 163/53/460 166/56/460
f 159/634/148 157/598/148 163/633/148
f 159/634/442 158/599/442 157/598/442
f 160/762/27 162/806/27 161/763/27
f 161/39/202 152/28/202 160/57/202
f 161/727/149 162/782/149 153/783/149
f 161/727/25 153/783/25 152/728/25
f 164/95/206 162/96/206 168/123/206
f 165/127/205 169/124/205 157/92/205
f 165/127/394 168/123/394 55/165/394
f 165/127/79 55/165/79 50/177/79
f 166/56/154 167/77/154 160/57/154
f 166/56/156 170/76/156 167/77/156
f 166/56/207 163/53/207 170/76/207
f 166/56/29 160/57/29 155/14/29
f 168/805/151 160/762/151 171/761/151
f 168/805/444 162/806/444 160/762/444
f 169/597/153 170/632/153 163/633/153
f 169/597/28 163/633/28 157/598/28
f 17/282/387 21/281/387 22/279/387
f 17/282/72 22/279/72 18/280/72
f 17/436/392 19/446/392 23/447/392
f 17/436/77 23/447/77 21/437/77
f 170/632/208 49/596/208 51/631/208
f 170/632/462 169/597/462 49/596/462
f 171/761/155 172/804/155 168/805/155
f 171/78/209 167/77/209 52/101/209
f 171/78/45 160/57/45 167/77/45
f 19/325/390 17/326/390 18/317/390
f 19/325/75 18/317/75 20/315/75
f 21/780/388 23/781/388 24/753/388
f 21/780/73 24/753/73 22/752/73
f 22/529/389 24/549/389 20/550/389
f 22/529/74 20/550/74 18/530/74
f 23/626/391 19/625/391 20/600/391
f 23/626/76 20/600/76 24/601/76
f 25/290/387 29/289/387 30/285/387
f 25/290/72 30/285/72 26/286/72
f 25/452/392 27/461/392 31/462/392
f 25/452/77 31/462/77 29/453/77
f 27/297/390 25/298/390 26/296/390
f 27/297/75 26/296/75 28/295/75
f 29/327/388 31/328/388 32/318/388
f 29/327/73 32/318/73 30/316/73
f 30/848/389 32/858/389 28/859/389
f 30/848/74 28/859/74 26/849/74
f 31/711/391 27/710/391 28/687/391
f 31/711/76 28/687/76 32/688/76
f 33/465/392 35/471/392 39/472/392
f 33/465/77 39/472/77 37/466/77
f 33/779/387 37/778/387 38/749/387
f 33/779/72 38/749/72 34/750/72
f 345/104/344 346/107/344 347/106/344
f 346/114/351 345/113/351 350/142/351
f 347/106/343 349/80/343 345/104/343
f 347/106/346 348/105/346 351/84/346
f 347/106/624 351/84/624 349/80/624
f 348/409/345 347/417/345 346/415/345
f 349/80/350 350/83/350 345/104/350
f 35/854/390 33/855/390 34/834/390
f 35/854/75 34/834/75 36/832/75
f 350/751/349 349/771/349 352/754/349
f 351/84/348 352/79/348 349/80/348
f 352/143/342 346/114/342 350/142/342
f 352/143/347 351/144/347 348/115/347
f 352/143/623 348/115/623 346/114/623
f 361/403/359 367/376/359 365/371/359
f 361/403/360 362/406/360 363/405/360
f 361/403/632 363/405/632 367/376/632
f 362/455/367 361/454/367 366/475/367
f 363/405/362 364/404/362 367/376/362
f 364/540/361 363/544/361 362/541/361
f 365/371/366 366/375/366 361/403/366
f 366/475/358 364/456/358 362/455/358
f 366/475/631 368/476/631 364/456/631
f 366/518/365 365/522/365 368/519/365
f 367/376/364 368/370/364 365/371/364
f 368/476/363 367/477/363 364/456/363
f 37/307/388 39/308/388 40/304/388
f 37/307/73 40/304/73 38/303/73
f 38/850/389 40/860/389 36/861/389
f 38/850/74 36/861/74 34/851/74
f 381/442/359 387/419/359 385/416/359
f 381/442/360 382/451/360 383/448/360
f 381/442/632 383/448/632 387/419/632
f 382/487/367 381/486/367 386/507/367
f 383/448/362 384/443/362 387/419/362
f 384/567/361 383/573/361 382/570/361
f 385/416/366 386/418/366 381/442/366
f 386/507/358 384/488/358 382/487/358
f 386/507/631 388/508/631 384/488/631
f 386/553/365 385/555/365 388/554/365
f 387/419/364 388/414/364 385/416/364
f 388/508/363 387/509/363 384/488/363
f 39/614/391 35/612/391 36/586/391
f 39/614/76 36/586/76 40/588/76
f 41/429/387 45/428/387 46/410/387
f 41/429/72 46/410/72 42/412/72
f 41/482/392 43/491/392 47/492/392
f 41/482/77 47/492/77 45/483/77
f 43/426/390 41/427/390 42/413/390
f 43/426/75 42/413/75 44/411/75
f 45/856/388 47/857/388 48/835/388
f 45/856/73 48/835/73 46/833/73
f 46/852/389 48/862/389 44/863/389
f 46/852/74 44/863/74 42/853/74
f 47/615/391 43/613/391 44/587/391
f 47/615/76 44/587/76 48/589/76
f 49/159/204 165/127/204 50/177/204
f 49/159/461 169/124/461 165/127/461
f 51/100/160 54/128/160 52/101/160
f 51/631/152 50/595/152 53/630/152
f 51/631/445 49/596/445 50/595/445
f 52/101/393 167/77/393 170/76/393
f 52/101/78 170/76/78 51/100/78
f 52/760/1 172/804/1 171/761/1
f 52/760/157 55/803/157 172/804/157
f 52/760/446 58/759/446 55/803/446
f 53/630/158 56/594/158 57/629/158
f 53/630/447 50/595/447 56/594/447
f 55/165/210 168/123/210 172/146/210
f 55/165/31 59/199/31 63/202/31
f 56/208/162 64/237/162 60/226/162
f 56/208/395 50/177/395 55/165/395
f 56/208/80 55/165/80 63/202/80
f 57/140/161 51/100/161 53/119/161
f 57/140/2 54/128/2 51/100/2
f 57/629/396 56/594/396 60/593/396
f 57/629/81 60/593/81 61/628/81
f 58/126/163 54/128/163 62/156/163
f 58/126/30 52/101/30 54/128/30
f 58/759/82 59/802/82 55/803/82
f 61/168/5 66/185/5 62/156/5
f 61/628/397 60/593/397 64/592/397
f 61/628/83 64/592/83 65/627/83
f 62/156/32 66/185/32 70/179/32
f 62/156/398 54/128/398 57/140/398
f 62/156/85 57/140/85 61/168/85
f 62/758/3 59/802/3 58/759/3
f 62/758/399 70/757/399 67/801/399
f 62/758/86 67/801/86 59/802/86
f 63/202/84 64/237/84 56/208/84
f 65/187/159 73/215/159 61/168/159
f 65/187/448 69/217/448 73/215/448
f 65/531/400 64/560/400 72/561/400
f 65/531/87 72/561/87 69/532/87
f 67/222/164 63/202/164 59/199/164
f 67/222/33 71/229/33 75/234/33
f 67/222/4 64/237/4 63/202/4
f 68/249/165 72/253/165 64/237/165
f 68/249/34 76/255/34 72/253/34
f 68/249/401 64/237/401 67/222/401
f 68/249/88 67/222/88 75/234/88
f 69/532/402 72/561/402 76/562/402
f 69/532/89 76/562/89 77/533/89
f 70/724/90 71/776/90 67/777/90
f 73/215/168 69/217/168 77/242/168
f 73/215/6 66/185/6 61/168/6
f 73/215/92 74/213/92 66/185/92
f 73/215/96 77/242/96 74/213/96
f 74/213/167 70/179/167 66/185/167
f 74/723/404 83/722/404 78/775/404
f 74/723/7 71/776/7 70/724/7
f 74/723/93 78/775/93 71/776/93
f 75/234/403 78/236/403 76/255/403
f 75/234/91 76/255/91 68/249/91
f 76/255/170 79/241/170 80/247/170
f 76/255/406 78/236/406 86/228/406
f 76/255/95 86/228/95 79/241/95
f 77/242/8 82/235/8 74/213/8
f 77/533/405 76/562/405 80/563/405
f 77/533/94 80/563/94 81/534/94
f 78/236/169 75/234/169 71/229/169
f 79/241/100 94/198/100 87/214/100
f 79/241/409 86/228/409 94/198/409
f 81/534/407 80/563/407 79/564/407
f 81/534/97 79/564/97 85/535/97
f 83/225/171 74/213/171 82/235/171
f 83/722/98 84/774/98 78/775/98
f 85/256/10 82/235/10 77/242/10
f 85/256/101 89/230/101 82/235/101
f 85/256/172 77/242/172 81/248/172
f 85/256/410 93/250/410 89/230/410
f 85/535/408 79/564/408 92/565/408
f 85/535/99 92/565/99 88/536/99
f 86/228/35 78/236/35 84/224/35
f 87/214/104 102/161/104 95/167/104
f 87/214/174 92/216/174 79/241/174
f 87/214/412 94/198/412 102/161/412
f 88/536/103 96/566/103 97/537/103
f 88/536/411 92/565/411 96/566/411
f 89/230/107 97/238/107 98/223/107
f 89/230/415 93/250/415 97/238/415
f 89/720/11 91/773/11 90/721/11
f 90/233/173 83/225/173 82/235/173
f 90/233/37 82/235/37 89/230/37
f 90/721/102 91/773/102 84/774/102
f 90/721/9 84/774/9 83/722/9
f 91/773/105 98/719/105 99/772/105
f 91/773/413 89/720/413 98/719/413
f 93/250/177 88/254/177 97/238/177
f 93/250/36 85/256/36 88/254/36
f 94/198/166 84/224/166 91/197/166
f 94/198/449 86/228/449 84/224/449
f 96/186/175 87/214/175 95/167/175
f 96/186/450 92/216/450 87/214/450
f 97/238/110 101/203/110 98/223/110
f 97/602/106 95/650/106 100/603/106
f 97/602/414 96/649/414 95/650/414
f 99/162/176 94/198/176 91/197/176
f 99/162/451 102/161/451 94/198/451
usemtl MMO_teal_glass
f 269/313/582 270/319/582 271/320/582
f 269/313/593 271/320/593 273/310/593
f 270/169/561 269/181/561 293/190/561
f 270/169/572 293/190/572 291/182/572
f 271/320/583 272/314/583 273/310/583
f 272/134/560 271/153/560 270/169/560
f 273/310/309 281/207/309 290/283/309
f 273/310/584 274/302/584 275/294/584
f 273/310/594 275/294/594 277/276/594
f 273/310/599 277/276/599 281/207/599
f 274/90/559 273/111/559 272/134/559
f 274/90/571 272/134/571 270/169/571
f 274/90/577 270/169/577 291/182/577
f 275/294/585 276/284/585 277/276/585
f 276/50/570 275/69/570 274/90/570
f 277/276/586 278/260/586 279/240/586
f 277/276/595 279/240/595 281/207/595
f 278/11/569 277/22/569 276/50/569
f 278/11/576 276/50/576 274/90/576
f 279/240/587 280/219/587 281/207/587
f 280/4/568 279/3/568 278/11/568
f 281/207/588 282/196/588 283/195/588
f 281/207/596 283/195/596 286/218/596
f 281/207/600 286/218/600 290/283/600
f 282/23/567 281/12/567 280/4/567
f 282/23/575 280/4/575 278/11/575
f 282/23/579 278/11/579 274/90/579
f 283/195/589 284/206/589 286/218/589
f 283/814/307 285/813/307 284/821/307
f 285/70/566 283/51/566 282/23/566
f 285/836/46 286/837/46 284/840/46
f 286/218/590 287/239/590 288/259/590
f 286/218/597 288/259/597 290/283/597
f 287/112/565 286/91/565 285/70/565
f 287/112/574 285/70/574 282/23/574
f 288/259/591 289/275/591 290/283/591
f 289/154/564 288/135/564 287/112/564
f 290/283/580 291/293/580 292/301/580
f 290/283/592 292/301/592 269/313/592
f 290/283/598 269/313/598 273/310/598
f 291/182/308 282/23/308 274/90/308
f 291/182/563 290/170/563 289/154/563
f 291/182/573 289/154/573 287/112/573
f 291/182/578 287/112/578 282/23/578
f 292/301/581 293/309/581 269/313/581
f 293/190/562 292/191/562 291/182/562
f 294/380/310 298/367/310 296/379/310
f 294/380/601 297/366/601 298/367/601
f 296/334/313 295/337/313 294/331/313
f 297/366/47 294/380/47 295/377/47
f 298/342/311 295/337/311 296/334/311
f 298/342/602 297/343/602 295/337/602
f 299/86/312 303/81/312 301/88/312
f 299/86/48 301/88/48 300/89/48
f 299/86/603 302/82/603 303/81/603
f 302/82/49 299/86/49 300/87/49
f 303/102/314 300/98/314 301/97/314
f 303/102/604 302/103/604 300/98/604
f 304/131/51 308/136/51 309/137/51
f 305/120/320 306/122/320 307/117/320
f 305/133/50 304/131/50 306/130/50
f 306/122/315 309/116/315 307/117/315
f 306/122/605 304/121/605 309/116/605
f 307/138/319 309/141/319 308/136/319
f 308/136/317 305/133/317 307/138/317
f 308/136/607 304/131/607 305/133/607
f 310/359/324 313/353/324 312/352/324
f 311/358/318 312/352/318 314/351/318
f 311/358/608 310/359/608 312/352/608
f 312/352/323 313/350/323 314/351/323
f 313/392/321 311/388/321 314/391/321
f 313/392/609 310/387/609 311/388/609
f 316/498/322 318/503/322 315/497/322
f 316/498/610 317/504/610 318/503/610
f 319/204/328 320/205/328 321/201/328
f 319/204/330 322/210/330 324/212/330
f 320/205/325 324/212/325 323/211/325
f 320/205/611 319/204/611 324/212/611
f 322/184/326 321/194/326 323/183/326
f 322/184/612 319/193/612 321/194/612
f 323/183/52 321/194/52 320/192/52
f 324/180/329 322/184/329 323/183/329
f 325/148/327 329/158/327 327/149/327
f 325/148/613 328/157/613 329/158/613
f 327/149/55 329/158/55 330/155/55
f 327/172/333 326/171/333 325/173/333
f 328/157/54 325/148/54 326/150/54
f 329/163/53 328/164/53 330/166/53
f 330/166/331 326/171/331 327/172/331
f 330/166/614 328/164/614 326/171/614
f 331/246/332 334/258/332 333/244/332
f 331/246/56 333/244/56 332/243/56
f 331/246/615 335/257/615 334/258/615
f 333/272/336 334/270/336 336/269/336
f 335/257/58 331/246/58 332/245/58
f 335/268/57 336/269/57 334/267/57
f 336/269/334 332/271/334 333/272/334
f 336/269/616 335/268/616 332/271/616
usemtl MMO_oak_polished
f 370/18/369 372/19/369 369/15/369
f 370/29/60 369/34/60 371/35/60
f 372/19/59 371/16/59 369/15/59
f 372/30/370 370/29/370 371/35/370
f 390/46/369 392/47/369 389/43/369
f 390/58/60 389/61/60 391/62/60
f 392/47/59 391/44/59 389/43/59
f 392/59/370 390/58/370 391/62/370
