# Blender 4.0.2
# www.blender.org
mtllib quest_board_collision.mtl
o quest_board_collision
v 0.950000 0.000000 -0.260000
v 0.950000 0.020000 -0.280000
v 0.970000 0.020000 -0.260000
v 0.950000 0.000000 0.260000
v 0.970000 0.020000 0.260000
v 0.950000 0.020000 0.280000
v -0.950000 0.000000 -0.260000
v -0.970000 0.020000 -0.260000
v -0.950000 0.020000 -0.280000
v -0.950000 0.000000 0.260000
v -0.950000 0.020000 0.280000
v -0.970000 0.020000 0.260000
v -0.980000 2.100000 -0.330000
v -1.000000 2.106510 -0.310000
v -0.980000 2.127492 -0.311456
v -1.000000 2.145352 -0.213866
v -0.980000 2.164444 -0.220000
v -0.980000 2.191111 -0.110000
v -0.980000 2.191111 0.110000
v -1.000000 2.145352 0.213866
v -0.980000 2.164444 0.220000
v -0.980000 2.127492 0.311456
v -1.000000 2.106510 0.310000
v -0.980000 2.100000 0.330000
v -0.980000 2.080000 0.330000
v -1.000000 2.089652 0.310000
v -0.980000 2.080000 -0.330000
v -1.000000 2.089652 -0.310000
v 0.980000 2.100000 -0.330000
v 0.980000 2.127492 -0.311456
v 1.000000 2.106510 -0.310000
v 1.000000 2.145352 -0.213866
v 0.980000 2.164444 -0.220000
v 0.980000 2.191111 -0.110000
v 0.980000 2.191111 0.110000
v 1.000000 2.145352 0.213866
v 0.980000 2.164444 0.220000
v 0.980000 2.100000 0.330000
v 1.000000 2.106510 0.310000
v 0.980000 2.127492 0.311456
v 1.000000 2.089652 0.310000
v 0.980000 2.080000 0.330000
v 0.980000 2.080000 -0.330000
v 1.000000 2.089652 -0.310000
v 0.990000 2.200000 -0.030000
v 1.000000 2.190000 -0.030000
v 0.990000 2.200000 0.030000
v 1.000000 2.190000 0.030000
v -0.990000 2.200000 -0.030000
v -1.000000 2.190000 -0.030000
v -0.990000 2.200000 0.030000
v -1.000000 2.190000 0.030000
vn -0.6975 0.6974 0.1647
vn -0.7071 0.7071 -0.0000
vn -1.0000 -0.0000 -0.0000
vn -0.7064 0.6879 0.1670
vn -0.0000 0.9939 0.1104
vn -0.7071 0.6872 0.1666
vn -0.0000 0.9719 0.2356
vn -0.0000 1.0000 -0.0000
vn -0.6975 0.6974 -0.1647
vn -0.7064 0.6879 -0.1670
vn -0.7071 0.6556 0.2649
vn 0.6975 0.6974 0.1647
vn 0.7071 0.6872 0.1666
vn 0.7064 0.6879 0.1670
vn -0.0000 0.9272 0.3746
vn -0.0000 0.9939 -0.1104
vn 0.7071 0.7071 -0.0000
vn -0.0000 0.9719 -0.2356
vn -0.7071 0.6872 -0.1666
vn -0.7071 0.6556 -0.2649
vn -0.7071 -0.0000 0.7071
vn -0.5432 0.4695 0.6960
vn -0.0000 0.5592 0.8290
vn 1.0000 -0.0000 -0.0000
vn 0.7071 0.6556 0.2649
vn 0.6975 0.6974 -0.1647
vn 0.7064 0.6879 -0.1670
vn 0.7071 0.6872 -0.1666
vn -0.0000 0.9272 -0.3746
vn -0.0000 0.5592 -0.8290
vn -0.5432 0.4695 -0.6960
vn -0.7071 -0.0000 -0.7071
vn -0.9999 -0.0145 -0.0000
vn -0.7134 -0.0273 0.7002
vn -0.0000 -0.0000 1.0000
vn 0.5432 0.4695 0.6960
vn 0.7071 -0.0000 0.7071
vn 0.7071 0.6556 -0.2649
vn 0.5432 0.4695 -0.6960
vn -0.0000 -0.0000 -1.0000
vn -0.7134 -0.0273 -0.7002
vn -0.7068 -0.0275 0.7068
vn -0.0000 -0.0243 0.9997
vn -0.7071 -0.7071 -0.0000
vn -0.5774 -0.5773 0.5773
vn 0.7134 -0.0273 0.7002
vn 0.9999 -0.0145 -0.0000
vn 0.7071 -0.0000 -0.7071
vn -0.0000 -0.0243 -0.9997
vn -0.7068 -0.0275 -0.7068
vn -0.5774 -0.5773 -0.5773
vn 0.7068 -0.0275 0.7068
vn -0.0000 -0.7071 0.7071
vn -0.0000 -1.0000 -0.0000
vn 0.7134 -0.0273 -0.7002
vn 0.5774 -0.5773 0.5773
vn 0.7071 -0.7071 -0.0000
vn 0.7068 -0.0275 -0.7068
vn -0.0000 -0.7071 -0.7071
vn 0.5774 -0.5773 -0.5773
vt 0.00000 0.00485
vt 0.00000 0.51533
vt 0.00000 0.51994
vt 0.00462 0.50898
vt 0.00498 0.00000
vt 0.00498 0.00629
vt 0.00498 0.01091
vt 0.00498 0.51380
vt 0.00498 0.51770
vt 0.00747 0.48649
vt 0.01246 0.48644
vt 0.01246 0.49111
vt 0.01744 0.99537
vt 0.01744 1.00000
vt 0.02740 0.50045
vt 0.02893 0.50484
vt 0.05481 0.49430
vt 0.07474 0.49454
vt 0.08969 0.49454
vt 0.10962 0.49430
vt 0.13550 0.50484
vt 0.13703 0.50045
vt 0.14699 0.99537
vt 0.14699 1.00000
vt 0.15945 0.51380
vt 0.15945 0.51770
vt 0.15981 0.50898
vt 0.16443 0.51533
vt 0.16443 0.51994
vt 0.16788 0.51533
vt 0.16788 0.51994
vt 0.17250 0.50898
vt 0.17286 0.51380
vt 0.17286 0.51770
vt 0.18532 0.99537
vt 0.18532 1.00000
vt 0.19528 0.50045
vt 0.19681 0.50484
vt 0.22269 0.49430
vt 0.24262 0.49454
vt 0.25757 0.49454
vt 0.27750 0.49430
vt 0.30337 0.50484
vt 0.30490 0.50045
vt 0.31487 0.99537
vt 0.31487 1.00000
vt 0.32732 0.51380
vt 0.32732 0.51770
vt 0.32769 0.50898
vt 0.33231 0.51533
vt 0.33231 0.51994
vt 0.33575 0.49891
vt 0.33575 0.95126
vt 0.35854 0.49891
vt 0.35854 0.95126
vt 0.38594 0.49891
vt 0.38594 0.95126
vt 0.40587 0.49430
vt 0.40587 0.49661
vt 0.40587 0.95356
vt 0.40587 0.95587
vt 0.42082 0.49430
vt 0.42082 0.49661
vt 0.42082 0.95356
vt 0.42082 0.95587
vt 0.44075 0.49891
vt 0.44075 0.95126
vt 0.46816 0.49891
vt 0.46816 0.95126
vt 0.48582 0.48644
vt 0.48582 0.49111
vt 0.49080 0.48649
vt 0.49094 0.49891
vt 0.49094 0.95126
vt 0.49329 0.00000
vt 0.49329 0.00629
vt 0.49329 0.01091
vt 0.49828 0.00485
vt 0.50172 0.00485
vt 0.50172 0.49430
vt 0.50172 0.93279
vt 0.50670 0.00000
vt 0.50670 0.00629
vt 0.50670 0.01091
vt 0.50920 0.48649
vt 0.51418 0.48644
vt 0.51418 0.49111
vt 0.63127 0.49430
vt 0.63128 0.93279
vt 0.98754 0.48644
vt 0.98754 0.49111
vt 0.99253 0.48649
vt 0.99502 0.00000
vt 0.99502 0.00629
vt 0.99502 0.01091
vt 1.00000 0.00485
s 0
usemtl MMO_collision
f 1/91/60 2/90/60 3/92/60
f 10/71/45 11/70/45 12/72/45
f 10/71/53 4/12/53 6/11/53
f 10/71/53 6/11/53 11/70/53
f 11/70/43 42/7/43 25/77/43
f 11/70/43 6/11/43 42/7/43
f 12/13/34 25/3/34 26/9/34
f 12/72/42 11/70/42 25/77/42
f 13/28/32 27/29/32 28/26/32
f 13/28/32 28/26/32 14/25/32
f 13/83/31 14/79/31 15/82/31
f 15/27/20 14/25/20 16/21/20
f 17/22/19 16/21/19 18/20/19
f 17/22/20 15/27/20 16/21/20
f 18/20/10 16/21/10 50/19/10
f 19/66/1 51/63/1 52/62/1
f 2/90/59 1/91/59 7/87/59
f 2/90/59 7/87/59 9/86/59
f 20/16/4 19/17/4 52/18/4
f 20/16/6 21/15/6 19/17/6
f 21/68/7 35/67/7 19/66/7
f 21/68/7 37/69/7 35/67/7
f 22/4/11 21/15/11 20/16/11
f 22/73/15 37/69/15 21/68/15
f 22/73/15 40/74/15 37/69/15
f 23/8/11 22/4/11 20/16/11
f 24/76/22 22/75/22 23/78/22
f 24/76/23 38/6/23 40/5/23
f 24/76/23 40/5/23 22/75/23
f 25/77/35 38/6/35 24/76/35
f 25/77/35 42/7/35 38/6/35
f 26/9/21 24/2/21 23/8/21
f 26/9/21 25/3/21 24/2/21
f 27/29/41 8/23/41 28/26/41
f 28/26/33 12/13/33 26/9/33
f 28/26/33 8/23/33 12/13/33
f 29/94/40 27/84/40 13/83/40
f 29/94/40 43/95/40 27/84/40
f 3/35/55 43/31/55 44/34/55
f 3/92/58 2/90/58 43/95/58
f 30/32/38 33/37/38 32/38/38
f 30/93/30 13/83/30 15/82/30
f 30/93/30 29/94/30 13/83/30
f 31/33/38 30/32/38 32/38/38
f 31/96/39 29/94/39 30/93/39
f 32/38/28 33/37/28 34/39/28
f 33/55/29 15/52/29 17/54/29
f 33/55/29 30/53/29 15/52/29
f 34/57/18 17/54/18 18/56/18
f 34/57/18 33/55/18 17/54/18
f 35/67/5 47/64/5 51/63/5
f 35/67/5 51/63/5 19/66/5
f 36/43/14 48/41/14 35/42/14
f 36/43/24 31/33/24 32/38/24
f 36/43/24 32/38/24 46/40/24
f 36/43/24 39/47/24 41/48/24
f 36/43/24 41/48/24 44/34/24
f 36/43/24 44/34/24 31/33/24
f 36/43/24 46/40/24 48/41/24
f 37/44/13 36/43/13 35/42/13
f 38/50/37 41/48/37 39/47/37
f 38/50/37 42/51/37 41/48/37
f 38/6/36 39/1/36 40/5/36
f 4/46/57 1/36/57 3/35/57
f 4/46/57 3/35/57 5/45/57
f 40/49/25 36/43/25 37/44/25
f 40/49/25 39/47/25 36/43/25
f 42/51/46 5/45/46 41/48/46
f 43/95/49 2/90/49 9/86/49
f 43/95/49 9/86/49 27/84/49
f 44/34/48 29/30/48 31/33/48
f 44/34/48 43/31/48 29/30/48
f 45/60/16 18/56/16 49/59/16
f 45/60/16 34/57/16 18/56/16
f 46/40/27 32/38/27 34/39/27
f 46/61/26 34/57/26 45/60/26
f 47/64/8 45/60/8 49/59/8
f 47/64/8 49/59/8 51/63/8
f 48/65/12 47/64/12 35/67/12
f 48/65/17 45/60/17 47/64/17
f 48/65/17 46/61/17 45/60/17
f 49/59/9 18/56/9 50/58/9
f 5/45/47 3/35/47 44/34/47
f 5/45/47 44/34/47 41/48/47
f 50/19/3 14/25/3 28/26/3
f 50/19/3 16/21/3 14/25/3
f 50/19/3 20/16/3 52/18/3
f 50/19/3 23/8/3 20/16/3
f 50/19/3 26/9/3 23/8/3
f 50/19/3 28/26/3 26/9/3
f 51/63/2 49/59/2 50/58/2
f 51/63/2 50/58/2 52/62/2
f 6/11/52 5/10/52 42/7/52
f 6/11/56 4/12/56 5/10/56
f 7/81/54 1/80/54 4/88/54
f 7/81/54 4/88/54 10/89/54
f 8/23/44 10/14/44 12/13/44
f 8/23/44 7/24/44 10/14/44
f 9/86/50 8/85/50 27/84/50
f 9/86/51 7/87/51 8/85/51
