# Blender 4.0.2
# www.blender.org
mtllib quest_board.mtl
o quest_board
v 0.950000 0.000000 -0.260000
v 0.950000 0.020000 -0.280000
v 0.970000 0.020000 -0.260000
v 0.950000 0.060000 -0.280000
v 0.950000 0.080000 -0.260000
v 0.970000 0.060000 -0.260000
v 0.950000 0.000000 0.260000
v 0.970000 0.020000 0.260000
v 0.950000 0.020000 0.280000
v 0.950000 0.080000 0.260000
v 0.950000 0.060000 0.280000
v 0.970000 0.060000 0.260000
v 0.650000 0.000000 -0.260000
v 0.630000 0.020000 -0.260000
v 0.650000 0.020000 -0.280000
v 0.650000 0.080000 -0.260000
v 0.650000 0.060000 -0.280000
v 0.630000 0.060000 -0.260000
v 0.650000 0.000000 0.260000
v 0.650000 0.020000 0.280000
v 0.630000 0.020000 0.260000
v 0.650000 0.080000 0.260000
v 0.630000 0.060000 0.260000
v 0.650000 0.060000 0.280000
v 0.840000 0.080000 -0.040000
v 0.840000 0.110000 -0.070000
v 0.870000 0.110000 -0.040000
v 0.840000 1.990000 -0.070000
v 0.840000 2.020000 -0.040000
v 0.870000 1.990000 -0.040000
v 0.840000 0.080000 0.040000
v 0.870000 0.110000 0.040000
v 0.840000 0.110000 0.070000
v 0.840000 2.020000 0.040000
v 0.840000 1.990000 0.070000
v 0.870000 1.990000 0.040000
v 0.760000 0.080000 -0.040000
v 0.730000 0.110000 -0.040000
v 0.760000 0.110000 -0.070000
v 0.760000 2.020000 -0.040000
v 0.760000 1.990000 -0.070000
v 0.730000 1.990000 -0.040000
v 0.760000 0.080000 0.040000
v 0.760000 0.110000 0.070000
v 0.730000 0.110000 0.040000
v 0.760000 2.020000 0.040000
v 0.730000 1.990000 0.040000
v 0.760000 1.990000 0.070000
v 0.870000 0.080000 -0.070000
v 0.870000 0.100000 -0.090000
v 0.890000 0.100000 -0.070000
v 0.870000 0.160000 -0.090000
v 0.870000 0.180000 -0.070000
v 0.890000 0.160000 -0.070000
v 0.870000 0.080000 0.070000
v 0.890000 0.100000 0.070000
v 0.870000 0.100000 0.090000
v 0.870000 0.180000 0.070000
v 0.870000 0.160000 0.090000
v 0.890000 0.160000 0.070000
v 0.730000 0.080000 -0.070000
v 0.710000 0.100000 -0.070000
v 0.730000 0.100000 -0.090000
v 0.730000 0.180000 -0.070000
v 0.730000 0.160000 -0.090000
v 0.710000 0.160000 -0.070000
v 0.730000 0.080000 0.070000
v 0.730000 0.100000 0.090000
v 0.710000 0.100000 0.070000
v 0.730000 0.180000 0.070000
v 0.710000 0.160000 0.070000
v 0.730000 0.160000 0.090000
v 0.800000 1.804000 0.110000
v 0.800000 1.804000 0.070000
v 0.783029 1.796970 0.110000
v 0.783029 1.796970 0.070000
v 0.776000 1.780000 0.110000
v 0.776000 1.780000 0.070000
v 0.783029 1.763029 0.110000
v 0.783029 1.763029 0.070000
v 0.800000 1.756000 0.110000
v 0.800000 1.756000 0.070000
v 0.816971 1.763029 0.110000
v 0.816971 1.763029 0.070000
v 0.824000 1.780000 0.110000
v 0.824000 1.780000 0.070000
v 0.816971 1.796970 0.110000
v 0.816971 1.796970 0.070000
v 0.800000 0.644000 0.110000
v 0.800000 0.644000 0.070000
v 0.783029 0.636971 0.110000
v 0.783029 0.636971 0.070000
v 0.776000 0.620000 0.110000
v 0.776000 0.620000 0.070000
v 0.783029 0.603029 0.110000
v 0.783029 0.603029 0.070000
v 0.800000 0.596000 0.110000
v 0.800000 0.596000 0.070000
v 0.816971 0.603029 0.110000
v 0.816971 0.603029 0.070000
v 0.824000 0.620000 0.110000
v 0.824000 0.620000 0.070000
v 0.816971 0.636971 0.110000
v 0.816971 0.636971 0.070000
v -0.650000 0.000000 -0.260000
v -0.650000 0.020000 -0.280000
v -0.630000 0.020000 -0.260000
v -0.650000 0.060000 -0.280000
v -0.650000 0.080000 -0.260000
v -0.630000 0.060000 -0.260000
v -0.650000 0.000000 0.260000
v -0.630000 0.020000 0.260000
v -0.650000 0.020000 0.280000
v -0.650000 0.080000 0.260000
v -0.650000 0.060000 0.280000
v -0.630000 0.060000 0.260000
v -0.950000 0.000000 -0.260000
v -0.970000 0.020000 -0.260000
v -0.950000 0.020000 -0.280000
v -0.950000 0.080000 -0.260000
v -0.950000 0.060000 -0.280000
v -0.970000 0.060000 -0.260000
v -0.950000 0.000000 0.260000
v -0.950000 0.020000 0.280000
v -0.970000 0.020000 0.260000
v -0.950000 0.080000 0.260000
v -0.970000 0.060000 0.260000
v -0.950000 0.060000 0.280000
v -0.760000 0.080000 -0.040000
v -0.760000 0.110000 -0.070000
v -0.730000 0.110000 -0.040000
v -0.760000 1.990000 -0.070000
v -0.760000 2.020000 -0.040000
v -0.730000 1.990000 -0.040000
v -0.760000 0.080000 0.040000
v -0.730000 0.110000 0.040000
v -0.760000 0.110000 0.070000
v -0.760000 2.020000 0.040000
v -0.760000 1.990000 0.070000
v -0.730000 1.990000 0.040000
v -0.840000 0.080000 -0.040000
v -0.870000 0.110000 -0.040000
v -0.840000 0.110000 -0.070000
v -0.840000 2.020000 -0.040000
v -0.840000 1.990000 -0.070000
v -0.870000 1.990000 -0.040000
v -0.840000 0.080000 0.040000
v -0.840000 0.110000 0.070000
v -0.870000 0.110000 0.040000
v -0.840000 2.020000 0.040000
v -0.870000 1.990000 0.040000
v -0.840000 1.990000 0.070000
v -0.730000 0.080000 -0.070000
v -0.730000 0.100000 -0.090000
v -0.710000 0.100000 -0.070000
v -0.730000 0.160000 -0.090000
v -0.730000 0.180000 -0.070000
v -0.710000 0.160000 -0.070000
v -0.730000 0.080000 0.070000
v -0.710000 0.100000 0.070000
v -0.730000 0.100000 0.090000
v -0.730000 0.180000 0.070000
v -0.730000 0.160000 0.090000
v -0.710000 0.160000 0.070000
v -0.870000 0.080000 -0.070000
v -0.890000 0.100000 -0.070000
v -0.870000 0.100000 -0.090000
v -0.870000 0.180000 -0.070000
v -0.870000 0.160000 -0.090000
v -0.890000 0.160000 -0.070000
v -0.870000 0.080000 0.070000
v -0.870000 0.100000 0.090000
v -0.890000 0.100000 0.070000
v -0.870000 0.180000 0.070000
v -0.890000 0.160000 0.070000
v -0.870000 0.160000 0.090000
v -0.800000 1.804000 0.110000
v -0.800000 1.804000 0.070000
v -0.816971 1.796970 0.110000
v -0.816971 1.796970 0.070000
v -0.824000 1.780000 0.110000
v -0.824000 1.780000 0.070000
v -0.816971 1.763029 0.110000
v -0.816971 1.763029 0.070000
v -0.800000 1.756000 0.110000
v -0.800000 1.756000 0.070000
v -0.783029 1.763029 0.110000
v -0.783029 1.763029 0.070000
v -0.776000 1.780000 0.110000
v -0.776000 1.780000 0.070000
v -0.783029 1.796970 0.110000
v -0.783029 1.796970 0.070000
v -0.800000 0.644000 0.110000
v -0.800000 0.644000 0.070000
v -0.816971 0.636971 0.110000
v -0.816971 0.636971 0.070000
v -0.824000 0.620000 0.110000
v -0.824000 0.620000 0.070000
v -0.816971 0.603029 0.110000
v -0.816971 0.603029 0.070000
v -0.800000 0.596000 0.110000
v -0.800000 0.596000 0.070000
v -0.783029 0.603029 0.110000
v -0.783029 0.603029 0.070000
v -0.776000 0.620000 0.110000
v -0.776000 0.620000 0.070000
v -0.783029 0.636971 0.110000
v -0.783029 0.636971 0.070000
v 0.700000 1.720000 -0.020000
v 0.700000 1.750000 -0.050000
v 0.730000 1.750000 -0.020000
v 0.700000 1.810000 -0.050000
v 0.700000 1.840000 -0.020000
v 0.730000 1.810000 -0.020000
v 0.700000 1.720000 0.020000
v 0.730000 1.750000 0.020000
v 0.700000 1.750000 0.050000
v 0.700000 1.840000 0.020000
v 0.700000 1.810000 0.050000
v 0.730000 1.810000 0.020000
v -0.700000 1.720000 -0.020000
v -0.730000 1.750000 -0.020000
v -0.700000 1.750000 -0.050000
v -0.700000 1.840000 -0.020000
v -0.700000 1.810000 -0.050000
v -0.730000 1.810000 -0.020000
v -0.700000 1.720000 0.020000
v -0.700000 1.750000 0.050000
v -0.730000 1.750000 0.020000
v -0.700000 1.840000 0.020000
v -0.730000 1.810000 0.020000
v -0.700000 1.810000 0.050000
v 0.700000 0.560000 -0.020000
v 0.700000 0.590000 -0.050000
v 0.730000 0.590000 -0.020000
v 0.700000 0.650000 -0.050000
v 0.700000 0.680000 -0.020000
v 0.730000 0.650000 -0.020000
v 0.700000 0.560000 0.020000
v 0.730000 0.590000 0.020000
v 0.700000 0.590000 0.050000
v 0.700000 0.680000 0.020000
v 0.700000 0.650000 0.050000
v 0.730000 0.650000 0.020000
v -0.700000 0.560000 -0.020000
v -0.730000 0.590000 -0.020000
v -0.700000 0.590000 -0.050000
v -0.700000 0.680000 -0.020000
v -0.700000 0.650000 -0.050000
v -0.730000 0.650000 -0.020000
v -0.700000 0.560000 0.020000
v -0.700000 0.590000 0.050000
v -0.730000 0.590000 0.020000
v -0.700000 0.680000 0.020000
v -0.730000 0.650000 0.020000
v -0.700000 0.650000 0.050000
v 0.710000 0.680000 -0.005000
v 0.710000 0.700000 -0.025000
v 0.730000 0.700000 -0.005000
v 0.710000 1.700000 -0.025000
v 0.710000 1.720000 -0.005000
v 0.730000 1.700000 -0.005000
v 0.710000 0.680000 0.005000
v 0.730000 0.700000 0.005000
v 0.710000 0.700000 0.025000
v 0.710000 1.720000 0.005000
v 0.710000 1.700000 0.025000
v 0.730000 1.700000 0.005000
v -0.710000 0.680000 -0.005000
v -0.730000 0.700000 -0.005000
v -0.710000 0.700000 -0.025000
v -0.710000 1.720000 -0.005000
v -0.710000 1.700000 -0.025000
v -0.730000 1.700000 -0.005000
v -0.710000 0.680000 0.005000
v -0.710000 0.700000 0.025000
v -0.730000 0.700000 0.005000
v -0.710000 1.720000 0.005000
v -0.730000 1.700000 0.005000
v -0.710000 1.700000 0.025000
v 0.730000 1.630000 0.025000
v 0.730000 1.640000 0.015000
v 0.740000 1.640000 0.025000
v 0.730000 1.720000 0.015000
v 0.730000 1.730000 0.025000
v 0.740000 1.720000 0.025000
v 0.730000 1.630000 0.035000
v 0.740000 1.640000 0.035000
v 0.730000 1.640000 0.045000
v 0.730000 1.730000 0.035000
v 0.730000 1.720000 0.045000
v 0.740000 1.720000 0.035000
v 0.650000 1.630000 0.025000
v 0.640000 1.640000 0.025000
v 0.650000 1.640000 0.015000
v 0.650000 1.730000 0.025000
v 0.650000 1.720000 0.015000
v 0.640000 1.720000 0.025000
v 0.650000 1.630000 0.035000
v 0.650000 1.640000 0.045000
v 0.640000 1.640000 0.035000
v 0.650000 1.730000 0.035000
v 0.640000 1.720000 0.035000
v 0.650000 1.720000 0.045000
v -0.650000 1.630000 0.025000
v -0.650000 1.640000 0.015000
v -0.640000 1.640000 0.025000
v -0.650000 1.720000 0.015000
v -0.650000 1.730000 0.025000
v -0.640000 1.720000 0.025000
v -0.650000 1.630000 0.035000
v -0.640000 1.640000 0.035000
v -0.650000 1.640000 0.045000
v -0.650000 1.730000 0.035000
v -0.650000 1.720000 0.045000
v -0.640000 1.720000 0.035000
v -0.730000 1.630000 0.025000
v -0.740000 1.640000 0.025000
v -0.730000 1.640000 0.015000
v -0.730000 1.730000 0.025000
v -0.730000 1.720000 0.015000
v -0.740000 1.720000 0.025000
v -0.730000 1.630000 0.035000
v -0.730000 1.640000 0.045000
v -0.740000 1.640000 0.035000
v -0.730000 1.730000 0.035000
v -0.740000 1.720000 0.035000
v -0.730000 1.720000 0.045000
v -0.650000 0.670000 0.025000
v -0.650000 0.680000 0.015000
v -0.640000 0.680000 0.025000
v -0.650000 0.760000 0.015000
v -0.650000 0.770000 0.025000
v -0.640000 0.760000 0.025000
v -0.650000 0.670000 0.035000
v -0.640000 0.680000 0.035000
v -0.650000 0.680000 0.045000
v -0.650000 0.770000 0.035000
v -0.650000 0.760000 0.045000
v -0.640000 0.760000 0.035000
v -0.730000 0.670000 0.025000
v -0.740000 0.680000 0.025000
v -0.730000 0.680000 0.015000
v -0.730000 0.770000 0.025000
v -0.730000 0.760000 0.015000
v -0.740000 0.760000 0.025000
v -0.730000 0.670000 0.035000
v -0.730000 0.680000 0.045000
v -0.740000 0.680000 0.035000
v -0.730000 0.770000 0.035000
v -0.740000 0.760000 0.035000
v -0.730000 0.760000 0.045000
v 0.730000 0.670000 0.025000
v 0.730000 0.680000 0.015000
v 0.740000 0.680000 0.025000
v 0.730000 0.760000 0.015000
v 0.730000 0.770000 0.025000
v 0.740000 0.760000 0.025000
v 0.730000 0.670000 0.035000
v 0.740000 0.680000 0.035000
v 0.730000 0.680000 0.045000
v 0.730000 0.770000 0.035000
v 0.730000 0.760000 0.045000
v 0.740000 0.760000 0.035000
v 0.650000 0.670000 0.025000
v 0.640000 0.680000 0.025000
v 0.650000 0.680000 0.015000
v 0.650000 0.770000 0.025000
v 0.650000 0.760000 0.015000
v 0.640000 0.760000 0.025000
v 0.650000 0.670000 0.035000
v 0.650000 0.680000 0.045000
v 0.640000 0.680000 0.035000
v 0.650000 0.770000 0.035000
v 0.640000 0.760000 0.035000
v 0.650000 0.760000 0.045000
v 0.610770 1.149271 0.025000
v 0.588780 1.588721 0.025000
v 0.610770 1.149271 0.037000
v 0.588780 1.588721 0.037000
v 0.251220 1.131279 0.025000
v 0.229230 1.570729 0.025000
v 0.251220 1.131279 0.037000
v 0.229230 1.570729 0.037000
v 0.420000 1.548000 0.057000
v 0.420000 1.548000 0.037000
v 0.404412 1.539000 0.057000
v 0.404412 1.539000 0.037000
v 0.404412 1.521000 0.057000
v 0.404412 1.521000 0.037000
v 0.420000 1.512000 0.057000
v 0.420000 1.512000 0.037000
v 0.435588 1.521000 0.057000
v 0.435588 1.521000 0.037000
v 0.435588 1.539000 0.057000
v 0.435588 1.539000 0.037000
v 0.132274 1.223754 0.025000
v 0.147470 1.603450 0.025000
v 0.132274 1.223754 0.037000
v 0.147470 1.603450 0.037000
v -0.187470 1.236550 0.025000
v -0.172274 1.616246 0.025000
v -0.187470 1.236550 0.037000
v -0.172274 1.616246 0.037000
v -0.020000 1.578000 0.057000
v -0.020000 1.578000 0.037000
v -0.035588 1.569000 0.057000
v -0.035588 1.569000 0.037000
v -0.035588 1.551000 0.057000
v -0.035588 1.551000 0.037000
v -0.020000 1.542000 0.057000
v -0.020000 1.542000 0.037000
v -0.004412 1.551000 0.057000
v -0.004412 1.551000 0.037000
v -0.004412 1.569000 0.057000
v -0.004412 1.569000 0.037000
v -0.262578 1.055212 0.025000
v -0.277575 1.554987 0.025000
v -0.262578 1.055212 0.037000
v -0.277575 1.554987 0.037000
v -0.602425 1.045013 0.025000
v -0.617422 1.544788 0.025000
v -0.602425 1.045013 0.037000
v -0.617422 1.544788 0.037000
v -0.440000 1.518000 0.057000
v -0.440000 1.518000 0.037000
v -0.455588 1.509000 0.057000
v -0.455588 1.509000 0.037000
v -0.455588 1.491000 0.057000
v -0.455588 1.491000 0.037000
v -0.440000 1.482000 0.057000
v -0.440000 1.482000 0.037000
v -0.424412 1.491000 0.057000
v -0.424412 1.491000 0.037000
v -0.424412 1.509000 0.057000
v -0.424412 1.509000 0.037000
v 0.505406 0.743768 0.025000
v 0.514405 1.043633 0.025000
v 0.505406 0.743768 0.037000
v 0.514405 1.043633 0.037000
v 0.085595 0.756366 0.025000
v 0.094594 1.056231 0.025000
v 0.085595 0.756366 0.037000
v 0.094594 1.056231 0.037000
v 0.300000 1.018000 0.057000
v 0.300000 1.018000 0.037000
v 0.284412 1.009000 0.057000
v 0.284412 1.009000 0.037000
v 0.284412 0.991000 0.057000
v 0.284412 0.991000 0.037000
v 0.300000 0.982000 0.057000
v 0.300000 0.982000 0.037000
v 0.315588 0.991000 0.057000
v 0.315588 0.991000 0.037000
v 0.315588 1.009000 0.057000
v 0.315588 1.009000 0.037000
v -0.100076 0.759301 0.025000
v -0.120464 1.098689 0.025000
v -0.100076 0.759301 0.037000
v -0.120464 1.098689 0.037000
v -0.399536 0.741311 0.025000
v -0.419924 1.080700 0.025000
v -0.399536 0.741311 0.037000
v -0.419924 1.080700 0.037000
v -0.260000 1.058000 0.057000
v -0.260000 1.058000 0.037000
v -0.275588 1.049000 0.057000
v -0.275588 1.049000 0.037000
v -0.275588 1.031000 0.057000
v -0.275588 1.031000 0.037000
v -0.260000 1.022000 0.057000
v -0.260000 1.022000 0.037000
v -0.244412 1.031000 0.057000
v -0.244412 1.031000 0.037000
v -0.244412 1.049000 0.057000
v -0.244412 1.049000 0.037000
v 0.920000 1.930000 -0.050000
v 0.920000 1.960000 -0.080000
v 0.950000 1.960000 -0.050000
v 0.920000 2.040000 -0.080000
v 0.920000 2.070000 -0.050000
v 0.950000 2.040000 -0.050000
v 0.920000 1.930000 0.050000
v 0.950000 1.960000 0.050000
v 0.920000 1.960000 0.080000
v 0.920000 2.070000 0.050000
v 0.920000 2.040000 0.080000
v 0.950000 2.040000 0.050000
v -0.920000 1.930000 -0.050000
v -0.950000 1.960000 -0.050000
v -0.920000 1.960000 -0.080000
v -0.920000 2.070000 -0.050000
v -0.920000 2.040000 -0.080000
v -0.950000 2.040000 -0.050000
v -0.920000 1.930000 0.050000
v -0.920000 1.960000 0.080000
v -0.950000 1.960000 0.050000
v -0.920000 2.070000 0.050000
v -0.950000 2.040000 0.050000
v -0.920000 2.040000 0.080000
v 0.800000 2.024000 0.120000
v 0.800000 2.024000 0.080000
v 0.783029 2.016971 0.120000
v 0.783029 2.016971 0.080000
v 0.776000 2.000000 0.120000
v 0.776000 2.000000 0.080000
v 0.783029 1.983029 0.120000
v 0.783029 1.983029 0.080000
v 0.800000 1.976000 0.120000
v 0.800000 1.976000 0.080000
v 0.816971 1.983029 0.120000
v 0.816971 1.983029 0.080000
v 0.824000 2.000000 0.120000
v 0.824000 2.000000 0.080000
v 0.816971 2.016971 0.120000
v 0.816971 2.016971 0.080000
v -0.800000 2.024000 0.120000
v -0.800000 2.024000 0.080000
v -0.816971 2.016971 0.120000
v -0.816971 2.016971 0.080000
v -0.824000 2.000000 0.120000
v -0.824000 2.000000 0.080000
v -0.816971 1.983029 0.120000
v -0.816971 1.983029 0.080000
v -0.800000 1.976000 0.120000
v -0.800000 1.976000 0.080000
v -0.783029 1.983029 0.120000
v -0.783029 1.983029 0.080000
v -0.776000 2.000000 0.120000
v -0.776000 2.000000 0.080000
v -0.783029 2.016971 0.120000
v -0.783029 2.016971 0.080000
v -0.980000 2.100000 -0.330000
v -1.000000 2.106510 -0.310000
v -0.980000 2.127492 -0.311456
v -1.000000 2.145352 -0.213866
v -0.980000 2.164444 -0.220000
v -1.000000 2.171303 -0.106819
v -0.980000 2.191111 -0.110000
v -1.000000 2.179935 0.000000
v -0.980000 2.200000 0.000000
v -1.000000 2.171303 0.106819
v -0.980000 2.191111 0.110000
v -1.000000 2.145352 0.213866
v -0.980000 2.164444 0.220000
v -0.980000 2.127492 0.311456
v -1.000000 2.106510 0.310000
v -0.980000 2.100000 0.330000
v -0.980000 2.080000 0.330000
v -1.000000 2.089652 0.310000
v -0.980000 2.067492 0.311457
v -1.000000 2.123537 0.226134
v -0.980000 2.104445 0.220000
v -1.000000 2.150919 0.113181
v -0.980000 2.131111 0.110000
v -1.000000 2.160065 0.000000
v -0.980000 2.140000 0.000000
v -1.000000 2.150919 -0.113181
v -0.980000 2.131111 -0.110000
v -1.000000 2.123537 -0.226134
v -0.980000 2.104445 -0.220000
v -0.980000 2.080000 -0.330000
v -0.980000 2.067492 -0.311456
v -1.000000 2.089652 -0.310000
v 0.980000 2.100000 -0.330000
v 0.980000 2.127492 -0.311456
v 1.000000 2.106510 -0.310000
v 1.000000 2.145352 -0.213866
v 0.980000 2.164444 -0.220000
v 1.000000 2.171303 -0.106819
v 0.980000 2.191111 -0.110000
v 1.000000 2.179935 -0.000000
v 0.980000 2.200000 -0.000000
v 1.000000 2.171303 0.106819
v 0.980000 2.191111 0.110000
v 1.000000 2.145352 0.213866
v 0.980000 2.164444 0.220000
v 0.980000 2.100000 0.330000
v 1.000000 2.106510 0.310000
v 0.980000 2.127492 0.311456
v 0.980000 2.067492 0.311456
v 1.000000 2.089652 0.310000
v 0.980000 2.080000 0.330000
v 1.000000 2.123537 0.226134
v 0.980000 2.104445 0.220000
v 1.000000 2.150919 0.113181
v 0.980000 2.131111 0.110000
v 1.000000 2.160065 -0.000000
v 0.980000 2.140000 -0.000000
v 1.000000 2.150919 -0.113181
v 0.980000 2.131111 -0.110000
v 1.000000 2.123537 -0.226134
v 0.980000 2.104445 -0.220000
v 0.980000 2.080000 -0.330000
v 1.000000 2.089652 -0.310000
v 0.980000 2.067492 -0.311457
v 0.990000 2.160000 -0.030000
v 0.990000 2.170000 -0.040000
v 1.000000 2.170000 -0.030000
v 0.990000 2.190000 -0.040000
v 0.990000 2.200000 -0.030000
v 1.000000 2.190000 -0.030000
v 0.990000 2.160000 0.030000
v 1.000000 2.170000 0.030000
v 0.990000 2.170000 0.040000
v 0.990000 2.200000 0.030000
v 0.990000 2.190000 0.040000
v 1.000000 2.190000 0.030000
v -0.990000 2.160000 -0.030000
v -1.000000 2.170000 -0.030000
v -0.990000 2.170000 -0.040000
v -0.990000 2.200000 -0.030000
v -0.990000 2.190000 -0.040000
v -1.000000 2.190000 -0.030000
v -0.990000 2.160000 0.030000
v -0.990000 2.170000 0.040000
v -1.000000 2.170000 0.030000
v -0.990000 2.200000 0.030000
v -1.000000 2.190000 0.030000
v -0.990000 2.190000 0.040000
v 0.920000 1.960000 0.295000
v 0.920000 1.970000 0.285000
v 0.930000 1.970000 0.295000
v 0.920000 2.070000 0.285000
v 0.920000 2.080000 0.295000
v 0.930000 2.070000 0.295000
v 0.920000 1.960000 0.305000
v 0.930000 1.970000 0.305000
v 0.920000 1.970000 0.315000
v 0.920000 2.080000 0.305000
v 0.920000 2.070000 0.315000
v 0.930000 2.070000 0.305000
v -0.920000 1.960000 0.295000
v -0.930000 1.970000 0.295000
v -0.920000 1.970000 0.285000
v -0.920000 2.080000 0.295000
v -0.920000 2.070000 0.285000
v -0.930000 2.070000 0.295000
v -0.920000 1.960000 0.305000
v -0.920000 1.970000 0.315000
v -0.930000 1.970000 0.305000
v -0.920000 2.080000 0.305000
v -0.930000 2.070000 0.305000
v -0.920000 2.070000 0.315000
vn -0.0000 -0.0000 -1.0000
vn -1.0000 -0.0000 -0.0000
vn -0.0000 1.0000 -0.0000
vn 1.0000 -0.0000 -0.0000
vn -0.0000 -0.0000 1.0000
vn 0.5774 -0.5773 -0.5773
vn 0.5774 0.5773 -0.5773
vn 0.5774 -0.5773 0.5773
vn 0.5774 0.5773 0.5773
vn -0.5774 -0.5773 -0.5773
vn -0.5774 0.5773 -0.5773
vn -0.5774 -0.5773 0.5773
vn -0.5774 0.5773 0.5773
vn 0.7071 -0.7071 -0.0000
vn 0.7071 -0.0000 -0.7071
vn 0.7071 0.7071 -0.0000
vn 0.7071 -0.0000 0.7071
vn -0.0000 -0.7071 0.7071
vn -0.0000 0.7071 0.7071
vn -0.7071 -0.0000 0.7071
vn -0.7071 -0.7071 -0.0000
vn -0.7071 0.7071 -0.0000
vn -0.7071 -0.0000 -0.7071
vn -0.0000 -0.7071 -0.7071
vn -0.0000 0.7071 -0.7071
vn -0.0000 -1.0000 -0.0000
vn 0.5774 -0.5774 -0.5773
vn 0.5774 -0.5774 0.5773
vn -0.5774 -0.5774 -0.5773
vn -0.5774 -0.5774 0.5773
vn 0.5774 0.5774 -0.5773
vn 0.5774 0.5774 0.5773
vn -0.5774 0.5774 -0.5773
vn -0.5774 0.5774 0.5773
vn -0.3827 0.9239 -0.0000
vn -0.9239 0.3827 -0.0000
vn -0.9239 -0.3827 -0.0000
vn -0.3827 -0.9239 -0.0000
vn 0.3827 -0.9239 -0.0000
vn 0.9239 -0.3827 -0.0000
vn 0.9239 0.3827 -0.0000
vn 0.3827 0.9239 -0.0000
vn 0.5774 -0.5773 -0.5774
vn 0.5774 0.5773 -0.5774
vn 0.5774 -0.5773 0.5774
vn 0.5774 0.5773 0.5774
vn -0.5774 -0.5773 -0.5774
vn -0.5774 0.5773 -0.5774
vn -0.5774 -0.5773 0.5774
vn -0.5774 0.5773 0.5774
vn 0.5773 -0.5774 0.5773
vn -0.5773 -0.5774 -0.5773
vn 0.5774 -0.5774 -0.5774
vn 0.5773 0.5774 0.5774
vn -0.5773 0.5774 -0.5774
vn -0.5774 -0.5774 0.5774
vn 0.5773 -0.5774 0.5774
vn -0.5773 -0.5774 0.5774
vn -0.5773 0.5774 0.5774
vn 0.5774 0.5774 -0.5774
vn -0.5774 -0.5774 -0.5774
vn -0.5774 0.5774 -0.5774
vn 0.9988 0.0500 -0.0000
vn -0.9988 -0.0500 -0.0000
vn 0.0500 -0.9988 -0.0000
vn -0.0500 0.9988 -0.0000
vn -0.5000 0.8660 -0.0000
vn -0.5000 -0.8660 -0.0000
vn 0.5000 -0.8660 -0.0000
vn 0.5000 0.8660 -0.0000
vn 0.9992 -0.0400 -0.0000
vn -0.9992 0.0400 -0.0000
vn -0.0400 -0.9992 -0.0000
vn 0.0400 0.9992 -0.0000
vn 0.9996 0.0300 -0.0000
vn -0.9996 -0.0300 -0.0000
vn 0.0300 -0.9996 -0.0000
vn -0.0300 0.9996 -0.0000
vn 0.9995 -0.0300 -0.0000
vn -0.9996 0.0300 -0.0000
vn -0.0300 -0.9996 -0.0000
vn 0.0300 0.9995 -0.0000
vn 0.9982 0.0600 -0.0000
vn -0.9982 -0.0600 -0.0000
vn 0.0600 -0.9982 -0.0000
vn -0.0600 0.9982 -0.0000
vn 0.5773 0.5774 -0.5774
vn -0.0000 0.9272 -0.3746
vn -0.0000 0.9719 -0.2356
vn -0.0000 0.9968 -0.0805
vn -0.0000 0.9968 0.0805
vn -0.0000 0.9719 0.2356
vn -0.0000 0.9272 0.3746
vn -0.0000 -0.9272 -0.3746
vn -0.0000 -0.9719 -0.2356
vn -0.0000 -0.9968 -0.0805
vn -0.0000 -0.9968 0.0805
vn -0.0000 -0.9719 0.2356
vn -0.0000 -0.9272 0.3746
vn -0.5432 0.4695 -0.6960
vn -0.5432 0.4695 0.6960
vn -0.6923 -0.5983 0.4035
vn -0.6923 -0.5983 -0.4035
vn 0.5432 0.4695 -0.6960
vn 0.5432 0.4695 0.6960
vn 0.6923 -0.5983 0.4035
vn 0.6923 -0.5983 -0.4035
vn -0.7071 0.6556 -0.2649
vn -0.7071 0.6872 -0.1666
vn -0.7071 0.7048 -0.0570
vn -0.7071 0.7048 0.0570
vn -0.7071 0.6872 0.1666
vn -0.7071 0.6556 0.2649
vn -0.7071 -0.6556 -0.2649
vn -0.7071 -0.6872 -0.1666
vn -0.7071 -0.7048 -0.0570
vn -0.7071 -0.7048 0.0570
vn -0.7071 -0.6872 0.1666
vn -0.7071 -0.6556 0.2649
vn 0.7071 -0.6556 0.2649
vn 0.7071 -0.6872 0.1666
vn 0.7071 -0.7048 0.0570
vn 0.7071 -0.7048 -0.0570
vn 0.7071 -0.6872 -0.1666
vn 0.7071 -0.6556 -0.2649
vn 0.7071 0.6556 0.2649
vn 0.7071 0.6872 0.1666
vn 0.7071 0.7048 0.0570
vn 0.7071 0.7048 -0.0570
vn 0.7071 0.6872 -0.1666
vn 0.7071 0.6556 -0.2649
vn -0.0000 0.5592 -0.8290
vn -0.0000 0.5592 0.8290
vn -0.0000 -0.8290 0.5592
vn -0.0000 -0.8290 -0.5592
vn 0.5773 -0.5774 -0.5774
vn -0.5773 -0.5774 -0.5774
vn 0.9995 0.0300 -0.0000
vn 0.9996 -0.0300 -0.0000
vt 0.00000 0.00436
vt 0.00000 0.43122
vt 0.00000 0.45167
vt 0.00000 0.76093
vt 0.00000 0.78138
vt 0.00000 0.89463
vt 0.00000 0.91073
vt 0.00000 0.99349
vt 0.00405 0.77703
vt 0.00405 0.89899
vt 0.00435 0.44732
vt 0.00435 0.45167
vt 0.00435 0.76093
vt 0.00435 0.76529
vt 0.00457 0.00000
vt 0.00457 0.43558
vt 0.00564 0.78138
vt 0.00564 0.89463
vt 0.00598 0.00436
vt 0.00598 0.43122
vt 0.00823 0.00000
vt 0.00823 0.43558
vt 0.01034 0.00436
vt 0.01034 0.43122
vt 0.02207 0.00436
vt 0.02207 0.43122
vt 0.02663 0.00000
vt 0.02663 0.43558
vt 0.02805 0.00436
vt 0.02805 0.43122
vt 0.03030 0.00000
vt 0.03030 0.43558
vt 0.03240 0.00436
vt 0.03240 0.43122
vt 0.04413 0.00218
vt 0.04413 0.43340
vt 0.04631 0.00000
vt 0.04631 0.00218
vt 0.04631 0.43340
vt 0.04631 0.43558
vt 0.05066 0.00000
vt 0.05066 0.00218
vt 0.05066 0.43340
vt 0.05066 0.43558
vt 0.05284 0.00218
vt 0.05284 0.43340
vt 0.06457 0.00218
vt 0.06457 0.43340
vt 0.06642 0.78138
vt 0.06642 0.89463
vt 0.06674 0.00000
vt 0.06674 0.00218
vt 0.06674 0.43340
vt 0.06674 0.43558
vt 0.06964 0.91073
vt 0.06964 0.99349
vt 0.07110 0.00000
vt 0.07110 0.00218
vt 0.07110 0.43340
vt 0.07110 0.43558
vt 0.07327 0.00218
vt 0.07327 0.43340
vt 0.07815 0.78138
vt 0.07815 0.89463
vt 0.08137 0.91073
vt 0.08137 0.98478
vt 0.08221 0.77703
vt 0.08221 0.89899
vt 0.08379 0.78138
vt 0.08379 0.89463
vt 0.08500 0.00653
vt 0.08500 0.41598
vt 0.09153 0.00000
vt 0.09153 0.00653
vt 0.09153 0.41598
vt 0.09153 0.42251
vt 0.10895 0.00000
vt 0.10895 0.00653
vt 0.10895 0.41598
vt 0.10895 0.42251
vt 0.11547 0.00653
vt 0.11547 0.41598
vt 0.12720 0.00653
vt 0.12720 0.41598
vt 0.13373 0.00000
vt 0.13373 0.00653
vt 0.13373 0.41598
vt 0.13373 0.42251
vt 0.14458 0.78138
vt 0.14458 0.89463
vt 0.14666 0.91073
vt 0.14666 0.98478
vt 0.15114 0.00000
vt 0.15114 0.00653
vt 0.15114 0.41598
vt 0.15114 0.42251
vt 0.15631 0.78138
vt 0.15631 0.89463
vt 0.15767 0.00653
vt 0.15767 0.41598
vt 0.15839 0.91073
vt 0.15839 0.98478
vt 0.16444 0.78138
vt 0.16444 0.89463
vt 0.16599 0.77703
vt 0.16599 0.89899
vt 0.16940 0.00653
vt 0.16940 0.41598
vt 0.17006 0.78138
vt 0.17006 0.89463
vt 0.17593 0.00000
vt 0.17593 0.00653
vt 0.17593 0.41598
vt 0.17593 0.42251
vt 0.18179 0.78138
vt 0.18179 0.89463
vt 0.18992 0.78138
vt 0.18992 0.89463
vt 0.19148 0.77703
vt 0.19148 0.89899
vt 0.19334 0.00000
vt 0.19334 0.00653
vt 0.19334 0.41598
vt 0.19334 0.42251
vt 0.19554 0.78138
vt 0.19554 0.89463
vt 0.19987 0.00653
vt 0.19987 0.41598
vt 0.20727 0.78138
vt 0.20727 0.84672
vt 0.20727 0.86935
vt 0.20727 0.89113
vt 0.21160 0.00653
vt 0.21160 0.41598
vt 0.21162 0.77703
vt 0.21162 0.78138
vt 0.21162 0.84672
vt 0.21162 0.85108
vt 0.21340 0.86281
vt 0.21340 0.89766
vt 0.21566 0.86935
vt 0.21566 0.89113
vt 0.21813 0.00000
vt 0.21813 0.00653
vt 0.21813 0.41598
vt 0.21813 0.42251
vt 0.22033 0.77703
vt 0.22033 0.78138
vt 0.22033 0.84672
vt 0.22033 0.85108
vt 0.22198 0.44732
vt 0.22198 0.45167
vt 0.22198 0.76093
vt 0.22198 0.76529
vt 0.22368 0.91073
vt 0.22368 0.98478
vt 0.22468 0.78138
vt 0.22468 0.84672
vt 0.22634 0.45167
vt 0.22634 0.76093
vt 0.23199 0.86935
vt 0.23199 0.89113
vt 0.23541 0.91331
vt 0.23541 0.94431
vt 0.23541 0.97273
vt 0.23541 0.97709
vt 0.23541 0.98883
vt 0.23541 0.99318
vt 0.23554 0.00000
vt 0.23554 0.00653
vt 0.23554 0.41598
vt 0.23554 0.42251
vt 0.23731 0.91100
vt 0.23731 0.94200
vt 0.23767 0.91378
vt 0.23767 0.94478
vt 0.23772 0.81492
vt 0.23772 0.81858
vt 0.23772 0.82163
vt 0.23772 0.83337
vt 0.23772 0.83703
vt 0.23772 0.84007
vt 0.23929 0.97273
vt 0.23929 0.97709
vt 0.23929 0.98883
vt 0.23929 0.99318
vt 0.23946 0.43425
vt 0.23946 0.53705
vt 0.23946 0.54879
vt 0.23946 0.63987
vt 0.23946 0.65161
vt 0.23946 0.72763
vt 0.23946 0.73937
vt 0.23946 0.80318
vt 0.23947 0.91073
vt 0.23947 0.94173
vt 0.23973 0.92999
vt 0.23973 0.96099
vt 0.23983 0.91350
vt 0.23983 0.94451
vt 0.24189 0.91248
vt 0.24189 0.92971
vt 0.24189 0.94348
vt 0.24189 0.96072
vt 0.24207 0.00653
vt 0.24207 0.41598
vt 0.24207 0.43425
vt 0.24207 0.53705
vt 0.24207 0.54879
vt 0.24207 0.63987
vt 0.24207 0.65161
vt 0.24207 0.72763
vt 0.24207 0.73937
vt 0.24207 0.80318
vt 0.24207 0.81492
vt 0.24207 0.81858
vt 0.24207 0.82163
vt 0.24207 0.83337
vt 0.24207 0.83703
vt 0.24207 0.84007
vt 0.25380 0.01042
vt 0.25380 0.40781
vt 0.25380 0.79600
vt 0.25380 0.81382
vt 0.25380 0.92271
vt 0.25380 0.94098
vt 0.25380 0.96276
vt 0.25380 0.98387
vt 0.25380 0.98787
vt 0.25663 0.98104
vt 0.25663 0.99069
vt 0.25784 0.01142
vt 0.25784 0.40881
vt 0.25816 0.00560
vt 0.26033 0.42055
vt 0.26033 0.79361
vt 0.26033 0.80208
vt 0.26063 0.98104
vt 0.26063 0.99069
vt 0.26345 0.98387
vt 0.26345 0.98787
vt 0.27006 0.94098
vt 0.27006 0.96276
vt 0.27240 0.93445
vt 0.27240 0.96930
vt 0.27641 0.00291
vt 0.27774 0.00848
vt 0.27774 0.40587
vt 0.27849 0.94098
vt 0.27849 0.96276
vt 0.28209 0.42055
vt 0.28209 0.79361
vt 0.28209 0.80208
vt 0.28862 0.79600
vt 0.29022 0.94098
vt 0.29022 0.95841
vt 0.29022 0.97951
vt 0.29022 0.98351
vt 0.29305 0.97668
vt 0.29305 0.98634
vt 0.29630 0.93445
vt 0.29630 0.96494
vt 0.29705 0.97668
vt 0.29705 0.98634
vt 0.29868 0.94098
vt 0.29868 0.95841
vt 0.29987 0.97951
vt 0.29987 0.98351
vt 0.30035 0.42663
vt 0.30099 0.00073
vt 0.30168 0.00636
vt 0.30168 0.40375
vt 0.30688 0.42055
vt 0.30688 0.42902
vt 0.30688 0.80208
vt 0.31489 0.94098
vt 0.31489 0.95841
vt 0.32562 0.00000
vt 0.32562 0.00565
vt 0.32562 0.40304
vt 0.32662 0.93703
vt 0.32662 0.96573
vt 0.32662 0.98288
vt 0.32780 0.81382
vt 0.32780 0.92271
vt 0.32853 0.93473
vt 0.32865 0.42055
vt 0.32865 0.42902
vt 0.32865 0.80208
vt 0.32868 0.98182
vt 0.32878 0.96545
vt 0.32888 0.93750
vt 0.32904 0.98462
vt 0.33068 0.93445
vt 0.33084 0.98154
vt 0.33094 0.95371
vt 0.33104 0.93723
vt 0.33120 0.98434
vt 0.33310 0.93620
vt 0.33310 0.95344
vt 0.33310 0.98205
vt 0.33518 0.42663
vt 0.33987 0.88333
vt 0.33987 0.88733
vt 0.33987 0.90189
vt 0.33987 0.90491
vt 0.33987 0.90859
vt 0.34269 0.88050
vt 0.34269 0.89015
vt 0.34422 0.90189
vt 0.34422 0.90491
vt 0.34422 0.90859
vt 0.34669 0.88050
vt 0.34669 0.89015
vt 0.34691 0.42260
vt 0.34691 0.80818
vt 0.34691 0.86876
vt 0.34907 0.42056
vt 0.34909 0.42338
vt 0.34952 0.80818
vt 0.34952 0.86876
vt 0.34952 0.88333
vt 0.34952 0.88733
vt 0.34956 0.00636
vt 0.34956 0.40375
vt 0.35025 0.00073
vt 0.35125 0.42055
vt 0.35126 0.42337
vt 0.35126 0.79644
vt 0.35343 0.42256
vt 0.35343 0.79643
vt 0.35719 0.90265
vt 0.35719 0.98541
vt 0.36517 0.42058
vt 0.36517 0.71011
vt 0.36517 0.72988
vt 0.36517 0.86554
vt 0.36517 0.88132
vt 0.36517 0.89003
vt 0.36734 0.42055
vt 0.36771 0.72584
vt 0.36771 0.86958
vt 0.36916 0.88132
vt 0.36916 0.89003
vt 0.36949 0.70845
vt 0.36958 0.71410
vt 0.37123 0.73020
vt 0.37123 0.86522
vt 0.37167 0.70842
vt 0.37175 0.71407
vt 0.37209 0.88132
vt 0.37209 0.89003
vt 0.37267 0.74980
vt 0.37267 0.84562
vt 0.37350 0.00848
vt 0.37350 0.40587
vt 0.37465 0.73020
vt 0.37465 0.86522
vt 0.37483 0.00291
vt 0.37605 0.70995
vt 0.37809 0.77375
vt 0.37809 0.82167
vt 0.37811 0.74846
vt 0.37811 0.84696
vt 0.37990 0.79771
vt 0.38255 0.75113
vt 0.38255 0.84429
vt 0.38368 0.77306
vt 0.38368 0.82236
vt 0.38383 0.88132
vt 0.38383 0.89003
vt 0.38554 0.79771
vt 0.38778 0.42055
vt 0.38778 0.52378
vt 0.38778 0.53552
vt 0.38778 0.62695
vt 0.38778 0.63869
vt 0.38778 0.71302
vt 0.38782 0.77445
vt 0.38782 0.82097
vt 0.38782 0.88132
vt 0.38782 0.89003
vt 0.38957 0.79771
vt 0.39039 0.42055
vt 0.39039 0.52378
vt 0.39039 0.53552
vt 0.39039 0.62695
vt 0.39039 0.63869
vt 0.39039 0.71302
vt 0.39075 0.88132
vt 0.39075 0.89003
vt 0.39309 0.00560
vt 0.39340 0.01142
vt 0.39340 0.40881
vt 0.39744 0.01042
vt 0.39744 0.40781
vt 0.40280 0.42989
vt 0.40280 0.73915
vt 0.40280 0.75557
vt 0.40280 0.89059
vt 0.40624 0.75557
vt 0.40624 0.89059
vt 0.40715 0.42554
vt 0.40715 0.42989
vt 0.40715 0.73915
vt 0.40715 0.74351
vt 0.40917 0.00577
vt 0.40917 0.40316
vt 0.40949 0.40888
vt 0.40971 0.77383
vt 0.40971 0.87233
vt 0.41203 0.75525
vt 0.41203 0.89091
vt 0.41417 0.77650
vt 0.41417 0.86966
vt 0.41530 0.79843
vt 0.41530 0.84773
vt 0.41717 0.82308
vt 0.41946 0.79982
vt 0.41946 0.84634
vt 0.41957 0.77517
vt 0.41957 0.87099
vt 0.42123 0.82308
vt 0.42502 0.79912
vt 0.42502 0.84704
vt 0.42683 0.82308
vt 0.42683 0.90265
vt 0.42683 0.98541
vt 0.42907 0.00283
vt 0.42907 0.40022
vt 0.43041 0.40579
vt 0.43856 0.75960
vt 0.43856 0.87285
vt 0.43856 0.88895
vt 0.43856 0.98478
vt 0.45301 0.00071
vt 0.45301 0.39810
vt 0.45371 0.40373
vt 0.47695 0.00000
vt 0.47695 0.39739
vt 0.47695 0.40304
vt 0.49934 0.75960
vt 0.49934 0.87285
vt 0.50020 0.40373
vt 0.50089 0.00071
vt 0.50089 0.39810
vt 0.50093 0.75525
vt 0.50093 0.87721
vt 0.50499 0.75960
vt 0.50499 0.87285
vt 0.51672 0.75960
vt 0.51672 0.87285
vt 0.51691 0.88895
vt 0.51691 0.98478
vt 0.52350 0.40579
vt 0.52483 0.00283
vt 0.52483 0.40022
vt 0.52864 0.88895
vt 0.52864 0.98478
vt 0.54442 0.40888
vt 0.54474 0.00577
vt 0.54474 0.40316
vt 0.55647 0.00653
vt 0.55647 0.40726
vt 0.56300 0.00000
vt 0.56300 0.00653
vt 0.56300 0.40726
vt 0.56300 0.41380
vt 0.57750 0.75960
vt 0.57750 0.87285
vt 0.57909 0.75525
vt 0.57909 0.87721
vt 0.58041 0.00000
vt 0.58041 0.00653
vt 0.58041 0.40726
vt 0.58041 0.41380
vt 0.58314 0.75960
vt 0.58314 0.87285
vt 0.58693 0.00653
vt 0.58693 0.40726
vt 0.59487 0.75960
vt 0.59487 0.87285
vt 0.59867 0.00653
vt 0.59867 0.40726
vt 0.59895 0.75525
vt 0.59895 0.87721
vt 0.60046 0.75960
vt 0.60046 0.87285
vt 0.60520 0.00000
vt 0.60520 0.00653
vt 0.60520 0.40726
vt 0.60520 0.41380
vt 0.60699 0.88895
vt 0.60699 0.98478
vt 0.60863 0.75960
vt 0.60863 0.87285
vt 0.62036 0.75525
vt 0.62036 0.81906
vt 0.62036 0.83080
vt 0.62036 0.83446
vt 0.62036 0.83750
vt 0.62036 0.84924
vt 0.62036 0.85290
vt 0.62036 0.85595
vt 0.62036 0.86769
vt 0.62036 0.87135
vt 0.62036 0.87440
vt 0.62036 0.88895
vt 0.62036 0.98042
vt 0.62036 0.99412
vt 0.62036 0.99804
vt 0.62260 0.00000
vt 0.62260 0.00653
vt 0.62260 0.40726
vt 0.62260 0.41380
vt 0.62297 0.75525
vt 0.62297 0.81906
vt 0.62375 0.99216
vt 0.62375 1.00000
vt 0.62471 0.83080
vt 0.62471 0.83446
vt 0.62471 0.83750
vt 0.62471 0.84924
vt 0.62471 0.85290
vt 0.62471 0.85595
vt 0.62471 0.86769
vt 0.62471 0.87135
vt 0.62471 0.87440
vt 0.62478 0.42554
vt 0.62478 0.42989
vt 0.62478 0.73915
vt 0.62478 0.74351
vt 0.62714 0.99412
vt 0.62714 0.99804
vt 0.62913 0.00653
vt 0.62913 0.40726
vt 0.62913 0.42989
vt 0.62913 0.73915
vt 0.63733 0.82366
vt 0.63733 0.85415
vt 0.63733 0.87025
vt 0.63733 0.87327
vt 0.63733 0.87694
vt 0.63887 0.99412
vt 0.63887 0.99804
vt 0.64087 0.00218
vt 0.64087 0.40291
vt 0.64087 0.80147
vt 0.64168 0.87025
vt 0.64168 0.87327
vt 0.64168 0.87694
vt 0.64227 0.99216
vt 0.64227 1.00000
vt 0.64304 0.00000
vt 0.64304 0.00218
vt 0.64304 0.40291
vt 0.64304 0.40509
vt 0.64566 0.99412
vt 0.64566 0.99804
vt 0.64739 0.41683
vt 0.64739 0.79913
vt 0.64739 0.80757
vt 0.65341 0.87025
vt 0.65341 0.87327
vt 0.65341 0.87694
vt 0.65739 0.99412
vt 0.65739 0.99804
vt 0.65776 0.87025
vt 0.65776 0.87327
vt 0.65776 0.87694
vt 0.66078 0.99216
vt 0.66078 1.00000
vt 0.66417 0.99412
vt 0.66417 0.99804
vt 0.66480 0.00000
vt 0.66480 0.00218
vt 0.66480 0.40291
vt 0.66480 0.40509
vt 0.66480 0.41683
vt 0.66480 0.79913
vt 0.66480 0.80757
vt 0.66569 0.82366
vt 0.66569 0.85415
vt 0.66698 0.00218
vt 0.66698 0.40291
vt 0.66728 0.81931
vt 0.66728 0.85851
vt 0.67133 0.80147
vt 0.67133 0.82366
vt 0.67133 0.85415
vt 0.67590 0.99412
vt 0.67590 0.99804
vt 0.67871 0.00218
vt 0.67871 0.40291
vt 0.67930 0.99216
vt 0.67930 1.00000
vt 0.68089 0.00000
vt 0.68089 0.00218
vt 0.68089 0.40291
vt 0.68089 0.40509
vt 0.68269 0.99412
vt 0.68269 0.99804
vt 0.68306 0.41684
vt 0.68306 0.79070
vt 0.68306 0.80446
vt 0.68306 0.86660
vt 0.68524 0.41683
vt 0.68524 0.78990
vt 0.68525 0.79272
vt 0.68565 0.88895
vt 0.68565 0.98042
vt 0.68568 0.80446
vt 0.68568 0.86660
vt 0.68741 0.78988
vt 0.68743 0.79270
vt 0.68959 0.79066
vt 0.69744 0.85451
vt 0.69744 0.88732
vt 0.69744 0.90855
vt 0.69744 0.92466
vt 0.69744 0.95337
vt 0.69744 0.97055
vt 0.69744 0.98403
vt 0.69744 0.99274
vt 0.69934 0.92236
vt 0.69940 0.85226
vt 0.69950 0.96950
vt 0.69953 0.90755
vt 0.69960 0.95309
vt 0.69961 0.88710
vt 0.69968 0.85504
vt 0.69969 0.92514
vt 0.69981 0.91035
vt 0.69986 0.97229
vt 0.70034 0.98403
vt 0.70034 0.99274
vt 0.70132 0.41683
vt 0.70132 0.50094
vt 0.70132 0.51268
vt 0.70132 0.59680
vt 0.70132 0.60854
vt 0.70132 0.68495
vt 0.70132 0.69669
vt 0.70132 0.76641
vt 0.70132 0.77815
vt 0.70132 0.84029
vt 0.70150 0.92209
vt 0.70156 0.85203
vt 0.70166 0.96923
vt 0.70169 0.90733
vt 0.70176 0.94135
vt 0.70177 0.87536
vt 0.70185 0.85482
vt 0.70185 0.92486
vt 0.70198 0.91013
vt 0.70202 0.97202
vt 0.70265 0.00000
vt 0.70265 0.00218
vt 0.70265 0.40291
vt 0.70265 0.40509
vt 0.70392 0.92384
vt 0.70392 0.94107
vt 0.70392 0.96972
vt 0.70393 0.41683
vt 0.70393 0.50094
vt 0.70393 0.51268
vt 0.70393 0.59680
vt 0.70393 0.60854
vt 0.70393 0.68495
vt 0.70393 0.69669
vt 0.70393 0.76641
vt 0.70393 0.77815
vt 0.70393 0.84029
vt 0.70393 0.85384
vt 0.70393 0.87514
vt 0.70393 0.90788
vt 0.70434 0.98403
vt 0.70434 0.99274
vt 0.70483 0.00218
vt 0.70483 0.40291
vt 0.71656 0.40224
vt 0.71656 0.80065
vt 0.71656 0.81849
vt 0.71656 0.92739
vt 0.71656 0.94566
vt 0.71656 0.96308
vt 0.71656 0.98135
vt 0.71656 0.99007
vt 0.71874 0.00000
vt 0.71874 0.40145
vt 0.71874 0.40427
vt 0.72055 0.98135
vt 0.72055 0.99007
vt 0.72309 0.41601
vt 0.72309 0.79831
vt 0.72309 0.80675
vt 0.72349 0.98135
vt 0.72349 0.99007
vt 0.73179 0.00000
vt 0.73179 0.40145
vt 0.73179 0.40427
vt 0.73277 0.94566
vt 0.73277 0.96308
vt 0.73397 0.40224
vt 0.73515 0.93913
vt 0.73515 0.96962
vt 0.73522 0.98135
vt 0.73522 0.99007
vt 0.73921 0.98135
vt 0.73921 0.99007
vt 0.74050 0.41601
vt 0.74050 0.79831
vt 0.74050 0.80675
vt 0.74123 0.94566
vt 0.74123 0.96308
vt 0.74215 0.98135
vt 0.74215 0.99007
vt 0.74570 0.00203
vt 0.74703 0.80065
vt 0.74788 0.00000
vt 0.74788 0.00282
vt 0.74788 0.40427
vt 0.75296 0.94566
vt 0.75296 0.96308
vt 0.75388 0.98135
vt 0.75388 0.99007
vt 0.75678 0.98135
vt 0.75678 0.99007
vt 0.75876 0.41601
vt 0.75876 0.49034
vt 0.75876 0.50208
vt 0.75876 0.57295
vt 0.75876 0.58469
vt 0.75876 0.65529
vt 0.75876 0.66703
vt 0.75876 0.73675
vt 0.75876 0.74849
vt 0.75876 0.75284
vt 0.75876 0.76458
vt 0.75876 0.76894
vt 0.75876 0.78068
vt 0.75876 0.78503
vt 0.75876 0.79677
vt 0.75876 0.80113
vt 0.75904 0.93913
vt 0.75904 0.96962
vt 0.76077 0.98135
vt 0.76077 0.99007
vt 0.76093 0.00000
vt 0.76093 0.00282
vt 0.76093 0.40427
vt 0.76137 0.41601
vt 0.76137 0.49034
vt 0.76137 0.50208
vt 0.76137 0.57295
vt 0.76137 0.58469
vt 0.76137 0.65529
vt 0.76137 0.66703
vt 0.76137 0.73675
vt 0.76142 0.94566
vt 0.76142 0.96308
vt 0.76263 0.74849
vt 0.76263 0.75284
vt 0.76263 0.76458
vt 0.76263 0.76894
vt 0.76263 0.78068
vt 0.76263 0.78503
vt 0.76263 0.79677
vt 0.76263 0.80113
vt 0.76311 0.00203
vt 0.77250 0.98136
vt 0.77250 0.99007
vt 0.77484 0.00613
vt 0.77484 0.41031
vt 0.77541 0.98136
vt 0.77541 0.99007
vt 0.77763 0.94566
vt 0.77763 0.96308
vt 0.77940 0.98136
vt 0.77940 0.99007
vt 0.78137 0.00000
vt 0.78137 0.00839
vt 0.78137 0.39245
vt 0.78137 0.40419
vt 0.78137 0.41258
vt 0.78137 0.79663
vt 0.78936 0.93913
vt 0.78936 0.94214
vt 0.78936 0.94582
vt 0.78936 0.95756
vt 0.78936 0.96057
vt 0.78936 0.96425
vt 0.79055 0.81849
vt 0.79055 0.92739
vt 0.79371 0.93913
vt 0.79371 0.94214
vt 0.79371 0.94582
vt 0.79371 0.95756
vt 0.79371 0.96057
vt 0.79371 0.96425
vt 0.79878 0.00000
vt 0.79878 0.00839
vt 0.79878 0.39245
vt 0.79878 0.40419
vt 0.79878 0.41258
vt 0.79878 0.79663
vt 0.80270 0.80837
vt 0.80270 0.86865
vt 0.80531 0.00613
vt 0.80531 0.41031
vt 0.80531 0.80837
vt 0.80531 0.86865
vt 0.80616 0.88539
vt 0.80616 0.91588
vt 0.80616 0.93634
vt 0.80616 0.96683
vt 0.80616 0.98292
vt 0.80616 0.99163
vt 0.80906 0.98292
vt 0.80906 0.99163
vt 0.81051 0.88104
vt 0.81051 0.88539
vt 0.81051 0.91588
vt 0.81051 0.92024
vt 0.81051 0.93198
vt 0.81051 0.93634
vt 0.81051 0.96683
vt 0.81051 0.97118
vt 0.81305 0.98292
vt 0.81305 0.99163
vt 0.81704 0.00653
vt 0.81704 0.31144
vt 0.81704 0.33624
vt 0.81704 0.64115
vt 0.81704 0.66364
vt 0.82130 0.65947
vt 0.82142 0.66506
vt 0.82348 0.65942
vt 0.82357 0.00000
vt 0.82357 0.00653
vt 0.82357 0.31144
vt 0.82357 0.31797
vt 0.82357 0.32971
vt 0.82357 0.33624
vt 0.82357 0.64115
vt 0.82357 0.64768
vt 0.82357 0.88104
vt 0.82357 0.88539
vt 0.82357 0.91588
vt 0.82357 0.92024
vt 0.82357 0.93198
vt 0.82357 0.93634
vt 0.82357 0.96683
vt 0.82357 0.97118
vt 0.82360 0.66502
vt 0.82574 0.86930
vt 0.82792 0.66341
vt 0.82792 0.86925
vt 0.82792 0.88539
vt 0.82792 0.91588
vt 0.82792 0.93634
vt 0.82792 0.96683
vt 0.83663 0.00000
vt 0.83663 0.00653
vt 0.83663 0.31144
vt 0.83663 0.31797
vt 0.83663 0.32971
vt 0.83663 0.33624
vt 0.83663 0.64115
vt 0.83663 0.64768
vt 0.83965 0.65947
vt 0.83965 0.86443
vt 0.83965 0.88450
vt 0.83965 0.91499
vt 0.83965 0.93544
vt 0.83965 0.96593
vt 0.83965 0.98202
vt 0.83965 0.99073
vt 0.84183 0.65942
vt 0.84255 0.98202
vt 0.84255 0.99073
vt 0.84316 0.00653
vt 0.84316 0.31144
vt 0.84316 0.33624
vt 0.84316 0.64115
vt 0.84370 0.93108
vt 0.84370 0.97028
vt 0.84397 0.86277
vt 0.84409 0.86840
vt 0.84529 0.93544
vt 0.84529 0.96593
vt 0.84614 0.86273
vt 0.84626 0.86835
vt 0.84655 0.98202
vt 0.84655 0.99073
vt 0.85053 0.86420
vt 0.85489 0.00653
vt 0.85489 0.31144
vt 0.85489 0.33624
vt 0.85489 0.64115
vt 0.85828 0.98202
vt 0.85828 0.99073
vt 0.86118 0.98202
vt 0.86118 0.99073
vt 0.86142 0.00000
vt 0.86142 0.00653
vt 0.86142 0.31144
vt 0.86142 0.31797
vt 0.86142 0.32971
vt 0.86142 0.33624
vt 0.86142 0.64115
vt 0.86142 0.64768
vt 0.86226 0.66378
vt 0.86226 0.77703
vt 0.86226 0.79748
vt 0.86226 0.86281
vt 0.86518 0.98202
vt 0.86518 0.99073
vt 0.86634 0.65942
vt 0.86634 0.78138
vt 0.86661 0.79312
vt 0.86661 0.79748
vt 0.86661 0.86281
vt 0.86661 0.86717
vt 0.86785 0.66378
vt 0.86785 0.77703
vt 0.86801 0.88450
vt 0.86801 0.91499
vt 0.86960 0.88014
vt 0.86960 0.91934
vt 0.87366 0.88450
vt 0.87366 0.91499
vt 0.87366 0.93544
vt 0.87366 0.96593
vt 0.87447 0.00000
vt 0.87447 0.00653
vt 0.87447 0.31144
vt 0.87447 0.31797
vt 0.87447 0.32971
vt 0.87447 0.33624
vt 0.87447 0.64115
vt 0.87447 0.64768
vt 0.87532 0.79312
vt 0.87532 0.79748
vt 0.87532 0.86281
vt 0.87532 0.86717
vt 0.87602 0.66378
vt 0.87602 0.77703
vt 0.87691 0.98202
vt 0.87691 0.98638
vt 0.87967 0.79748
vt 0.87967 0.86281
vt 0.88078 0.98202
vt 0.88078 0.98638
vt 0.88100 0.00653
vt 0.88100 0.31144
vt 0.88100 0.33624
vt 0.88100 0.64115
vt 0.89273 0.00415
vt 0.89273 0.59153
vt 0.89273 0.89559
vt 0.89273 0.91777
vt 0.89273 0.94825
vt 0.89273 0.96691
vt 0.89463 0.96463
vt 0.89499 0.96743
vt 0.89679 0.91341
vt 0.89679 0.95261
vt 0.89679 0.96435
vt 0.89702 0.00003
vt 0.89705 0.98352
vt 0.89711 0.00568
vt 0.89715 0.96715
vt 0.89837 0.91777
vt 0.89837 0.94825
vt 0.89920 0.00000
vt 0.89921 0.96608
vt 0.89921 0.98324
vt 0.89926 0.30529
vt 0.89926 0.58914
vt 0.89926 0.59761
vt 0.89926 0.60935
vt 0.89926 0.89320
vt 0.89926 0.90167
vt 0.89929 0.00564
vt 0.90144 0.29355
vt 0.90361 0.00399
vt 0.90361 0.29352
vt 0.90797 0.30529
vt 0.90797 0.58914
vt 0.90797 0.59761
vt 0.90797 0.60935
vt 0.90797 0.89320
vt 0.90797 0.90167
vt 0.91094 0.96463
vt 0.91094 0.98178
vt 0.91300 0.98072
vt 0.91310 0.96435
vt 0.91336 0.98352
vt 0.91450 0.59153
vt 0.91450 0.89559
vt 0.91516 0.98044
vt 0.91534 0.00608
vt 0.91551 0.98324
vt 0.91742 0.98095
vt 0.92187 0.00000
vt 0.92187 0.00847
vt 0.92187 0.29232
vt 0.92623 0.31137
vt 0.92623 0.60935
vt 0.92623 0.70082
vt 0.92623 0.71692
vt 0.92623 0.78225
vt 0.92623 0.80270
vt 0.92623 0.86804
vt 0.92623 0.88631
vt 0.92623 0.89938
vt 0.92674 0.91777
vt 0.92674 0.94825
vt 0.92827 0.88414
vt 0.92827 0.90156
vt 0.92902 0.88631
vt 0.92902 0.89938
vt 0.93058 0.00000
vt 0.93058 0.00847
vt 0.93058 0.29232
vt 0.93058 0.71256
vt 0.93058 0.71692
vt 0.93058 0.78225
vt 0.93058 0.78661
vt 0.93058 0.79835
vt 0.93058 0.80270
vt 0.93058 0.86804
vt 0.93058 0.87240
vt 0.93276 0.30529
vt 0.93276 0.31376
vt 0.93276 0.59761
vt 0.93311 0.88631
vt 0.93311 0.89938
vt 0.93711 0.00608
vt 0.93847 0.91777
vt 0.93847 0.94825
vt 0.93847 0.96691
vt 0.93929 0.71256
vt 0.93929 0.71692
vt 0.93929 0.78225
vt 0.93929 0.78661
vt 0.93929 0.79835
vt 0.93929 0.80270
vt 0.93929 0.86804
vt 0.93929 0.87240
vt 0.94037 0.96463
vt 0.94073 0.96743
vt 0.94146 0.30529
vt 0.94146 0.31376
vt 0.94146 0.59761
vt 0.94253 0.96435
vt 0.94279 0.98352
vt 0.94282 0.91341
vt 0.94282 0.91777
vt 0.94282 0.94825
vt 0.94282 0.95261
vt 0.94289 0.96715
vt 0.94364 0.71692
vt 0.94364 0.78225
vt 0.94364 0.80270
vt 0.94364 0.86804
vt 0.94495 0.96608
vt 0.94495 0.98324
vt 0.94799 0.31137
vt 0.94884 0.00436
vt 0.94884 0.03485
vt 0.94884 0.05530
vt 0.94884 0.08579
vt 0.94884 0.10624
vt 0.94884 0.13673
vt 0.94884 0.15718
vt 0.94884 0.18767
vt 0.94884 0.20812
vt 0.94884 0.23861
vt 0.94884 0.26124
vt 0.94884 0.27866
vt 0.95292 0.05094
vt 0.95292 0.09014
vt 0.95292 0.10188
vt 0.95292 0.14108
vt 0.95319 0.00000
vt 0.95319 0.00436
vt 0.95319 0.03485
vt 0.95319 0.03920
vt 0.95443 0.05530
vt 0.95443 0.08579
vt 0.95443 0.10624
vt 0.95443 0.13673
vt 0.95537 0.71474
vt 0.95537 0.73216
vt 0.95537 0.74826
vt 0.95537 0.76568
vt 0.95537 0.78177
vt 0.95537 0.79920
vt 0.95537 0.81529
vt 0.95537 0.83272
vt 0.95537 0.84881
vt 0.95537 0.86623
vt 0.95537 0.88652
vt 0.95588 0.91341
vt 0.95588 0.91777
vt 0.95588 0.94825
vt 0.95588 0.95261
vt 0.95754 0.71256
vt 0.95754 0.71474
vt 0.95754 0.73216
vt 0.95754 0.73434
vt 0.95754 0.74608
vt 0.95754 0.74826
vt 0.95754 0.76568
vt 0.95754 0.76786
vt 0.95754 0.77960
vt 0.95754 0.78177
vt 0.95754 0.79920
vt 0.95754 0.80137
vt 0.95754 0.81312
vt 0.95754 0.81529
vt 0.95754 0.83272
vt 0.95754 0.83489
vt 0.95754 0.84663
vt 0.95754 0.84881
vt 0.95754 0.86623
vt 0.95754 0.86841
vt 0.95972 0.30747
vt 0.95972 0.32489
vt 0.95972 0.34099
vt 0.95972 0.35841
vt 0.95972 0.37450
vt 0.95972 0.39193
vt 0.95972 0.41221
vt 0.95972 0.44558
vt 0.95972 0.45454
vt 0.95972 0.47837
vt 0.95972 0.48733
vt 0.95972 0.50451
vt 0.95972 0.52170
vt 0.95972 0.55181
vt 0.95972 0.56640
vt 0.95972 0.58359
vt 0.96023 0.91777
vt 0.96023 0.94825
vt 0.96103 0.15718
vt 0.96103 0.18767
vt 0.96103 0.20812
vt 0.96103 0.23861
vt 0.96131 0.88015
vt 0.96153 0.90122
vt 0.96162 0.55411
vt 0.96178 0.52065
vt 0.96178 0.58254
vt 0.96188 0.50424
vt 0.96188 0.56612
vt 0.96190 0.30529
vt 0.96190 0.30747
vt 0.96190 0.32489
vt 0.96190 0.32707
vt 0.96190 0.33881
vt 0.96190 0.34099
vt 0.96190 0.35841
vt 0.96190 0.36059
vt 0.96190 0.37233
vt 0.96190 0.37450
vt 0.96190 0.39193
vt 0.96190 0.39411
vt 0.96198 0.55132
vt 0.96214 0.52344
vt 0.96214 0.58533
vt 0.96259 0.15282
vt 0.96259 0.19203
vt 0.96259 0.20376
vt 0.96259 0.24297
vt 0.96378 0.55438
vt 0.96394 0.52037
vt 0.96394 0.58226
vt 0.96404 0.53518
vt 0.96414 0.55159
vt 0.96428 0.89485
vt 0.96430 0.52316
vt 0.96430 0.58505
vt 0.96505 0.26124
vt 0.96505 0.27866
vt 0.96566 0.40585
vt 0.96568 0.43922
vt 0.96568 0.47202
vt 0.96584 0.45132
vt 0.96584 0.48411
vt 0.96588 0.42691
vt 0.96620 0.52087
vt 0.96620 0.53546
vt 0.96620 0.55264
vt 0.96620 0.58276
vt 0.96625 0.00000
vt 0.96625 0.00436
vt 0.96625 0.03485
vt 0.96625 0.03920
vt 0.96665 0.15718
vt 0.96665 0.18767
vt 0.96665 0.20812
vt 0.96665 0.23861
vt 0.96668 0.05530
vt 0.96668 0.08579
vt 0.96668 0.10624
vt 0.96668 0.13673
vt 0.96743 0.25471
vt 0.96743 0.28520
vt 0.96863 0.42054
vt 0.97022 0.88848
vt 0.97044 0.90060
vt 0.97060 0.00436
vt 0.97060 0.03485
vt 0.97179 0.44496
vt 0.97179 0.47776
vt 0.97196 0.91514
vt 0.97196 0.93230
vt 0.97196 0.94459
vt 0.97196 0.96174
vt 0.97196 0.97805
vt 0.97196 0.98205
vt 0.97351 0.26124
vt 0.97351 0.27866
vt 0.97402 0.91621
vt 0.97402 0.96068
vt 0.97412 0.93258
vt 0.97412 0.94431
vt 0.97438 0.91341
vt 0.97438 0.96348
vt 0.97457 0.41417
vt 0.97461 0.43865
vt 0.97461 0.47144
vt 0.97477 0.45970
vt 0.97477 0.49250
vt 0.97479 0.97522
vt 0.97479 0.98488
vt 0.97480 0.42630
vt 0.97496 0.71256
vt 0.97496 0.71474
vt 0.97496 0.73216
vt 0.97496 0.73434
vt 0.97496 0.74608
vt 0.97496 0.74826
vt 0.97496 0.76568
vt 0.97496 0.76786
vt 0.97496 0.77960
vt 0.97496 0.78177
vt 0.97496 0.79920
vt 0.97496 0.80137
vt 0.97496 0.81312
vt 0.97496 0.81529
vt 0.97496 0.83272
vt 0.97496 0.83489
vt 0.97496 0.84663
vt 0.97496 0.84881
vt 0.97496 0.86623
vt 0.97496 0.86841
vt 0.97618 0.91649
vt 0.97618 0.96040
vt 0.97638 0.88530
vt 0.97638 0.89424
vt 0.97654 0.91369
vt 0.97654 0.96320
vt 0.97713 0.71474
vt 0.97713 0.73216
vt 0.97713 0.74826
vt 0.97713 0.76568
vt 0.97713 0.78177
vt 0.97713 0.79920
vt 0.97713 0.81529
vt 0.97713 0.83272
vt 0.97713 0.84881
vt 0.97713 0.86623
vt 0.97793 0.50680
vt 0.97793 0.53542
vt 0.97793 0.55257
vt 0.97793 0.56830
vt 0.97793 0.58137
vt 0.97838 0.15565
vt 0.97838 0.15965
vt 0.97838 0.17705
vt 0.97838 0.18105
vt 0.97838 0.19845
vt 0.97838 0.20245
vt 0.97838 0.21984
vt 0.97838 0.22384
vt 0.97838 0.23841
vt 0.97838 0.24277
vt 0.97841 0.05377
vt 0.97841 0.05777
vt 0.97841 0.07517
vt 0.97841 0.07917
vt 0.97841 0.09656
vt 0.97841 0.10057
vt 0.97841 0.11796
vt 0.97841 0.12196
vt 0.97841 0.13653
vt 0.97841 0.14089
vt 0.97844 0.91597
vt 0.97844 0.96091
vt 0.97879 0.97522
vt 0.97879 0.98488
vt 0.97931 0.30529
vt 0.97931 0.30747
vt 0.97931 0.32489
vt 0.97931 0.32707
vt 0.97931 0.33881
vt 0.97931 0.34099
vt 0.97931 0.35841
vt 0.97931 0.36059
vt 0.97931 0.37233
vt 0.97931 0.37450
vt 0.97931 0.39193
vt 0.97931 0.39411
vt 0.97983 0.50451
vt 0.97999 0.55151
vt 0.98009 0.53514
vt 0.98019 0.50731
vt 0.98034 0.55431
vt 0.98073 0.45335
vt 0.98073 0.48614
vt 0.98074 0.41099
vt 0.98074 0.41993
vt 0.98121 0.15282
vt 0.98121 0.16248
vt 0.98121 0.17422
vt 0.98121 0.18388
vt 0.98121 0.19562
vt 0.98121 0.20528
vt 0.98121 0.21702
vt 0.98121 0.22667
vt 0.98123 0.05094
vt 0.98123 0.06060
vt 0.98123 0.07234
vt 0.98123 0.08200
vt 0.98123 0.09374
vt 0.98123 0.10339
vt 0.98123 0.11513
vt 0.98123 0.12479
vt 0.98148 0.30747
vt 0.98148 0.32489
vt 0.98148 0.34099
vt 0.98148 0.35841
vt 0.98148 0.37450
vt 0.98148 0.39193
vt 0.98162 0.97805
vt 0.98162 0.98205
vt 0.98199 0.50424
vt 0.98199 0.56830
vt 0.98199 0.58137
vt 0.98215 0.55123
vt 0.98225 0.52340
vt 0.98226 0.23841
vt 0.98226 0.24277
vt 0.98228 0.13653
vt 0.98228 0.14089
vt 0.98233 0.00000
vt 0.98233 0.00871
vt 0.98233 0.02045
vt 0.98233 0.02916
vt 0.98235 0.50704
vt 0.98250 0.55403
vt 0.98277 0.56612
vt 0.98277 0.58355
vt 0.98440 0.50597
vt 0.98440 0.52313
vt 0.98440 0.55174
vt 0.98480 0.56830
vt 0.98480 0.58137
vt 0.98521 0.15282
vt 0.98521 0.16248
vt 0.98521 0.17422
vt 0.98521 0.18388
vt 0.98521 0.19562
vt 0.98521 0.20528
vt 0.98521 0.21702
vt 0.98521 0.22667
vt 0.98523 0.05094
vt 0.98523 0.06060
vt 0.98523 0.07234
vt 0.98523 0.08200
vt 0.98523 0.09374
vt 0.98523 0.10339
vt 0.98523 0.11513
vt 0.98523 0.12479
vt 0.98524 0.25471
vt 0.98524 0.26342
vt 0.98524 0.27516
vt 0.98524 0.28387
vt 0.98633 0.00000
vt 0.98633 0.00871
vt 0.98633 0.02045
vt 0.98633 0.02916
vt 0.98803 0.15565
vt 0.98803 0.15965
vt 0.98803 0.17705
vt 0.98803 0.18105
vt 0.98803 0.19845
vt 0.98803 0.20245
vt 0.98803 0.21984
vt 0.98803 0.22384
vt 0.98806 0.05377
vt 0.98806 0.05777
vt 0.98806 0.07517
vt 0.98806 0.07917
vt 0.98806 0.09656
vt 0.98806 0.10057
vt 0.98806 0.11796
vt 0.98806 0.12196
vt 0.98812 0.25471
vt 0.98812 0.26342
vt 0.98812 0.88015
vt 0.98812 0.88886
vt 0.98886 0.71256
vt 0.98886 0.72127
vt 0.98886 0.73301
vt 0.98886 0.74172
vt 0.98886 0.75346
vt 0.98886 0.76217
vt 0.98886 0.77960
vt 0.98886 0.78831
vt 0.98886 0.80005
vt 0.98886 0.80876
vt 0.98886 0.82050
vt 0.98886 0.82921
vt 0.98886 0.84663
vt 0.98886 0.85534
vt 0.98924 0.27516
vt 0.98924 0.28387
vt 0.98926 0.00000
vt 0.98926 0.00871
vt 0.98926 0.02045
vt 0.98926 0.02916
vt 0.99017 0.91341
vt 0.99017 0.92212
vt 0.99017 0.94431
vt 0.99017 0.95303
vt 0.99100 0.88015
vt 0.99100 0.88886
vt 0.99152 0.60935
vt 0.99152 0.70082
vt 0.99174 0.73301
vt 0.99174 0.74172
vt 0.99174 0.80005
vt 0.99174 0.80876
vt 0.99212 0.25471
vt 0.99212 0.26342
vt 0.99212 0.27516
vt 0.99212 0.28387
vt 0.99246 0.44061
vt 0.99246 0.44453
vt 0.99246 0.46019
vt 0.99246 0.46411
vt 0.99246 0.47977
vt 0.99246 0.48369
vt 0.99247 0.40780
vt 0.99247 0.41173
vt 0.99286 0.71256
vt 0.99286 0.72127
vt 0.99286 0.75346
vt 0.99286 0.76217
vt 0.99286 0.77960
vt 0.99286 0.78831
vt 0.99286 0.82050
vt 0.99286 0.82921
vt 0.99286 0.84663
vt 0.99286 0.85534
vt 0.99305 0.91341
vt 0.99305 0.92212
vt 0.99305 0.94431
vt 0.99305 0.95303
vt 0.99321 0.30725
vt 0.99321 0.31117
vt 0.99321 0.32683
vt 0.99321 0.33075
vt 0.99321 0.34445
vt 0.99321 0.34881
vt 0.99499 0.88015
vt 0.99499 0.88886
vt 0.99574 0.71256
vt 0.99574 0.72127
vt 0.99574 0.73301
vt 0.99574 0.74172
vt 0.99574 0.75346
vt 0.99574 0.76217
vt 0.99574 0.77960
vt 0.99574 0.78831
vt 0.99574 0.80005
vt 0.99574 0.80876
vt 0.99574 0.82050
vt 0.99574 0.82921
vt 0.99574 0.84663
vt 0.99574 0.85534
vt 0.99585 0.43865
vt 0.99585 0.44649
vt 0.99585 0.45823
vt 0.99585 0.46607
vt 0.99585 0.47781
vt 0.99585 0.48565
vt 0.99586 0.40585
vt 0.99586 0.41369
vt 0.99661 0.30529
vt 0.99661 0.31313
vt 0.99661 0.32487
vt 0.99661 0.33271
vt 0.99705 0.91341
vt 0.99705 0.92212
vt 0.99705 0.94431
vt 0.99705 0.95303
vt 0.99709 0.34445
vt 0.99709 0.34881
vt 0.99924 0.44061
vt 0.99924 0.44453
vt 0.99924 0.46019
vt 0.99924 0.46411
vt 0.99924 0.47977
vt 0.99924 0.48369
vt 0.99925 0.40780
vt 0.99925 0.41173
vt 1.00000 0.30725
vt 1.00000 0.31117
vt 1.00000 0.32683
vt 1.00000 0.33075
s 0
usemtl MMO_oak
f 1/18/14 3/6/14 8/5/14
f 1/18/14 8/5/14 7/17/14
f 1/18/6 2/10/6 3/6/6
f 10/433/3 16/442/3 22/443/3
f 10/433/3 5/432/3 16/442/3
f 10/481/16 12/487/16 6/488/16
f 10/481/16 6/488/16 5/482/16
f 10/481/9 11/485/9 12/487/9
f 105/70/14 107/64/14 112/63/14
f 105/70/14 112/63/14 111/69/14
f 105/70/6 106/68/6 107/64/6
f 108/1028/15 107/1044/15 106/1045/15
f 108/1028/15 110/1027/15 107/1044/15
f 108/920/7 109/914/7 110/926/7
f 109/1012/25 108/1028/25 121/1029/25
f 109/1012/25 121/1029/25 120/1013/25
f 11/923/5 20/944/5 9/945/5
f 11/923/5 24/922/5 20/944/5
f 110/926/4 112/947/4 107/948/4
f 110/926/4 116/925/4 112/947/4
f 111/1067/18 113/1050/18 124/1049/18
f 111/1067/18 124/1049/18 123/1066/18
f 111/69/8 112/63/8 113/67/8
f 113/1050/17 112/1051/17 116/1034/17
f 113/1050/17 116/1034/17 115/1033/17
f 114/452/3 109/451/3 120/469/3
f 114/452/3 120/469/3 126/470/3
f 114/913/16 110/926/16 109/914/16
f 114/913/16 116/925/16 110/926/16
f 114/913/9 115/919/9 116/925/9
f 115/1033/5 124/1049/5 113/1050/5
f 115/1033/5 128/1032/5 124/1049/5
f 117/1065/24 106/1045/24 105/1064/24
f 117/1065/24 119/1046/24 106/1045/24
f 117/125/10 118/117/10 119/119/10
f 119/1046/23 118/1047/23 122/1030/23
f 119/1046/23 122/1030/23 121/1029/23
f 120/469/11 121/471/11 122/477/11
f 120/469/22 122/477/22 127/478/22
f 120/469/22 127/478/22 126/470/22
f 121/1029/1 106/1045/1 119/1046/1
f 121/1029/1 108/1028/1 106/1045/1
f 123/126/12 124/120/12 125/118/12
f 123/126/21 118/117/21 117/125/21
f 123/126/21 125/118/21 118/117/21
f 123/89/26 105/70/26 111/69/26
f 123/89/26 117/90/26 105/70/26
f 125/1048/20 124/1049/20 128/1032/20
f 125/1048/20 128/1032/20 127/1031/20
f 126/1014/19 115/1033/19 114/1015/19
f 126/1014/19 128/1032/19 115/1033/19
f 126/470/13 127/478/13 128/472/13
f 127/116/2 118/117/2 125/118/2
f 127/116/2 122/115/2 118/117/2
f 129/761/14 131/724/14 136/723/14
f 129/761/14 136/723/14 135/760/14
f 129/761/27 130/746/27 131/724/27
f 13/109/10 14/103/10 15/105/10
f 13/158/24 15/149/24 2/148/24
f 13/158/24 2/148/24 1/157/24
f 132/122/15 131/128/15 130/123/15
f 132/122/15 134/127/15 131/128/15
f 132/774/7 133/784/7 134/785/7
f 133/121/25 132/122/25 145/112/25
f 133/121/25 145/112/25 144/111/25
f 134/785/4 136/806/4 131/786/4
f 134/785/4 140/805/4 136/806/4
f 135/146/18 137/145/18 148/171/18
f 135/146/18 148/171/18 147/172/18
f 135/760/28 136/723/28 137/745/28
f 137/145/17 136/134/17 140/133/17
f 137/145/17 140/133/17 139/144/17
f 138/686/3 133/685/3 144/702/3
f 138/686/3 144/702/3 150/703/3
f 138/804/16 134/785/16 133/784/16
f 138/804/16 140/805/16 134/785/16
f 138/804/9 139/810/9 140/805/9
f 139/144/5 148/171/5 137/145/5
f 139/144/5 152/170/5 148/171/5
f 141/114/24 130/123/24 129/124/24
f 141/114/24 143/113/24 130/123/24
f 141/581/29 142/580/29 143/588/29
f 143/113/23 142/108/23 146/107/23
f 143/113/23 146/107/23 145/112/23
f 144/702/11 145/705/11 146/714/11
f 144/702/22 146/714/22 151/715/22
f 144/702/22 151/715/22 150/703/22
f 145/112/1 130/123/1 143/113/1
f 145/112/1 132/122/1 130/123/1
f 147/562/21 142/580/21 141/581/21
f 147/562/21 149/561/21 142/580/21
f 147/562/30 148/548/30 149/561/30
f 147/777/26 129/761/26 135/760/26
f 147/777/26 141/778/26 129/761/26
f 149/206/20 148/171/20 152/170/20
f 149/206/20 152/170/20 151/205/20
f 15/149/23 14/150/23 18/138/23
f 15/149/23 18/138/23 17/137/23
f 150/169/19 139/144/19 138/143/19
f 150/169/19 152/170/19 139/144/19
f 150/703/13 151/715/13 152/706/13
f 151/560/2 142/580/2 149/561/2
f 151/560/2 146/579/2 142/580/2
f 16/442/11 17/447/11 18/449/11
f 16/442/22 18/449/22 23/450/22
f 16/442/22 23/450/22 22/443/22
f 17/137/1 2/148/1 15/149/1
f 17/137/1 4/136/1 2/148/1
f 19/110/12 20/106/12 21/104/12
f 19/110/21 14/103/21 13/109/21
f 19/110/21 21/104/21 14/103/21
f 19/49/26 1/18/26 7/17/26
f 19/49/26 13/50/26 1/18/26
f 209/1007/14 211/1006/14 216/1024/14
f 209/1007/14 216/1024/14 215/1025/14
f 209/1007/43 210/1003/43 211/1006/43
f 21/943/20 20/944/20 24/922/20
f 21/943/20 24/922/20 23/921/20
f 212/1138/44 213/1137/44 214/1191/44
f 212/906/15 211/935/15 210/936/15
f 212/906/15 214/905/15 211/935/15
f 213/897/25 212/906/25 225/907/25
f 213/897/25 225/907/25 224/898/25
f 214/1191/4 216/1323/4 211/1236/4
f 214/1191/4 220/1217/4 216/1323/4
f 215/1025/45 216/1024/45 217/1040/45
f 215/958/18 217/941/18 228/940/18
f 215/958/18 228/940/18 227/957/18
f 217/941/17 216/942/17 220/912/17
f 217/941/17 220/912/17 219/911/17
f 218/1189/16 214/1191/16 213/1137/16
f 218/1189/16 220/1217/16 214/1191/16
f 218/1189/46 219/1234/46 220/1217/46
f 218/979/3 213/989/3 224/990/3
f 218/979/3 224/990/3 230/980/3
f 219/911/5 228/940/5 217/941/5
f 219/911/5 232/910/5 228/940/5
f 22/443/13 23/450/13 24/448/13
f 22/915/19 11/923/19 10/916/19
f 22/915/19 24/922/19 11/923/19
f 221/1264/47 222/1213/47 223/1263/47
f 221/956/24 210/936/24 209/955/24
f 221/956/24 223/937/24 210/936/24
f 223/937/23 222/938/23 226/908/23
f 223/937/23 226/908/23 225/907/23
f 224/990/22 226/991/22 231/981/22
f 224/990/22 231/981/22 230/980/22
f 224/990/48 225/1000/48 226/991/48
f 225/907/1 210/936/1 223/937/1
f 225/907/1 212/906/1 210/936/1
f 227/1026/26 209/1007/26 215/1025/26
f 227/1026/26 221/1008/26 209/1007/26
f 227/1214/21 222/1213/21 221/1264/21
f 227/1214/21 229/1183/21 222/1213/21
f 227/1214/49 228/1153/49 229/1183/49
f 229/939/20 228/940/20 232/910/20
f 229/939/20 232/910/20 231/909/20
f 23/98/2 14/103/2 21/104/2
f 23/98/2 18/97/2 14/103/2
f 230/899/19 219/911/19 218/900/19
f 230/899/19 232/910/19 219/911/19
f 230/980/50 231/981/50 232/960/50
f 231/1105/2 222/1213/2 229/1183/2
f 231/1105/2 226/1152/2 222/1213/2
f 233/1036/27 234/1009/27 235/1035/27
f 236/1140/31 237/1139/31 238/1192/31
f 236/840/15 235/863/15 234/864/15
f 236/840/15 238/839/15 235/863/15
f 237/831/25 236/840/25 249/841/25
f 237/831/25 249/841/25 248/832/25
f 238/1192/4 240/1324/4 235/1237/4
f 238/1192/4 244/1218/4 240/1324/4
f 239/1055/14 233/1036/14 235/1035/14
f 239/1055/14 235/1035/14 240/1054/14
f 239/1055/51 240/1054/51 241/1070/51
f 239/885/18 241/869/18 252/868/18
f 239/885/18 252/868/18 251/884/18
f 241/869/17 240/870/17 244/846/17
f 241/869/17 244/846/17 243/845/17
f 242/1190/16 238/1192/16 237/1139/16
f 242/1190/16 244/1218/16 238/1192/16
f 242/1190/32 243/1235/32 244/1218/32
f 242/982/3 237/992/3 248/993/3
f 242/982/3 248/993/3 254/983/3
f 243/845/5 252/868/5 241/869/5
f 243/845/5 256/844/5 252/868/5
f 245/1326/21 251/1240/21 253/1212/21
f 245/1326/21 253/1212/21 246/1233/21
f 245/1326/52 246/1233/52 247/1325/52
f 245/883/24 234/864/24 233/882/24
f 245/883/24 247/865/24 234/864/24
f 247/865/23 246/866/23 250/842/23
f 247/865/23 250/842/23 249/841/23
f 248/993/22 250/994/22 255/984/22
f 248/993/22 255/984/22 254/983/22
f 248/993/33 249/1001/33 250/994/33
f 249/841/1 234/864/1 247/865/1
f 249/841/1 236/840/1 234/864/1
f 25/266/14 27/256/14 32/255/14
f 25/266/14 32/255/14 31/265/14
f 25/266/27 26/262/27 27/256/27
f 251/1056/26 233/1036/26 239/1055/26
f 251/1056/26 245/1037/26 233/1036/26
f 251/1240/30 252/1193/30 253/1212/30
f 253/867/20 252/868/20 256/844/20
f 253/867/20 256/844/20 255/843/20
f 254/833/19 243/845/19 242/834/19
f 254/833/19 256/844/19 243/845/19
f 254/983/34 255/984/34 256/961/34
f 255/1136/2 246/1233/2 253/1212/2
f 255/1136/2 250/1188/2 246/1233/2
f 28/773/7 29/781/7 30/782/7
f 28/78/15 27/82/15 26/79/15
f 28/78/15 30/81/15 27/82/15
f 29/77/25 28/78/25 41/74/25
f 29/77/25 41/74/25 40/73/25
f 30/782/4 32/803/4 27/783/4
f 30/782/4 36/802/4 32/803/4
f 31/265/28 32/255/28 33/261/28
f 31/88/18 33/87/18 44/95/18
f 31/88/18 44/95/18 43/96/18
f 33/87/17 32/84/17 36/83/17
f 33/87/17 36/83/17 35/86/17
f 34/1082/3 29/1081/3 40/1186/3
f 34/1082/3 40/1186/3 46/1187/3
f 34/801/16 30/782/16 29/781/16
f 34/801/16 36/802/16 30/782/16
f 34/801/9 35/809/9 36/802/9
f 35/86/5 44/95/5 33/87/5
f 35/86/5 48/94/5 44/95/5
f 37/713/29 38/712/29 39/719/29
f 37/76/24 26/79/24 25/80/24
f 37/76/24 39/75/24 26/79/24
f 39/75/23 38/72/23 42/71/23
f 39/75/23 42/71/23 41/74/23
f 4/136/15 3/147/15 2/148/15
f 4/136/15 6/135/15 3/147/15
f 4/486/7 5/482/7 6/488/7
f 40/1186/11 41/1210/11 42/1225/11
f 40/1186/22 42/1225/22 47/1226/22
f 40/1186/22 47/1226/22 46/1187/22
f 41/74/1 26/79/1 39/75/1
f 41/74/1 28/78/1 26/79/1
f 43/276/26 25/266/26 31/265/26
f 43/276/26 37/277/26 25/266/26
f 43/696/21 38/712/21 37/713/21
f 43/696/21 45/695/21 38/712/21
f 43/696/30 44/682/30 45/695/30
f 45/100/20 44/95/20 48/94/20
f 45/100/20 48/94/20 47/99/20
f 46/1187/13 47/1226/13 48/1211/13
f 46/93/19 35/86/19 34/85/19
f 46/93/19 48/94/19 35/86/19
f 47/694/2 38/712/2 45/695/2
f 47/694/2 42/711/2 38/712/2
f 477/274/14 479/273/14 484/287/14
f 477/274/14 484/287/14 483/288/14
f 477/274/43 478/269/43 479/273/43
f 480/140/87 481/132/87 482/142/87
f 480/466/15 479/473/15 478/474/15
f 480/466/15 482/465/15 479/473/15
f 481/463/25 480/466/25 493/467/25
f 481/463/25 493/467/25 492/464/25
f 482/142/4 484/161/4 479/162/4
f 482/142/4 488/141/4 484/161/4
f 483/288/45 484/287/45 485/302/45
f 483/536/18 485/514/18 496/513/18
f 483/536/18 496/513/18 495/535/18
f 485/514/17 484/515/17 488/492/17
f 485/514/17 488/492/17 487/491/17
f 486/131/16 482/142/16 481/132/16
f 486/131/16 488/141/16 482/142/16
f 486/131/54 487/139/54 488/141/54
f 486/235/3 481/251/3 492/252/3
f 486/235/3 492/252/3 498/236/3
f 487/491/5 496/513/5 485/514/5
f 487/491/5 500/490/5 496/513/5
f 489/249/47 490/242/47 491/244/47
f 489/480/24 478/474/24 477/479/24
f 489/480/24 491/475/24 478/474/24
f 491/475/23 490/476/23 494/468/23
f 491/475/23 494/468/23 493/467/23
f 492/252/22 494/253/22 499/237/22
f 492/252/22 499/237/22 498/236/22
f 492/252/55 493/254/55 494/253/55
f 493/467/1 478/474/1 491/475/1
f 493/467/1 480/466/1 478/474/1
f 495/250/21 490/242/21 489/249/21
f 495/250/21 497/243/21 490/242/21
f 495/250/49 496/245/49 497/243/49
f 495/289/26 477/274/26 483/288/26
f 495/289/26 489/275/26 477/274/26
f 497/512/20 496/513/20 500/490/20
f 497/512/20 500/490/20 499/489/20
f 498/236/59 499/237/59 500/223/59
f 498/483/19 487/491/19 486/484/19
f 498/483/19 500/490/19 487/491/19
f 499/227/2 490/242/2 497/243/2
f 499/227/2 494/226/2 490/242/2
f 5/129/25 17/137/25 16/130/25
f 5/129/25 4/136/25 17/137/25
f 533/30/1 565/29/1 594/33/1
f 533/30/1 594/33/1 562/34/1
f 533/30/100 534/28/100 535/26/100
f 533/30/132 535/26/132 566/25/132
f 533/30/132 566/25/132 565/29/132
f 536/367/2 534/358/2 564/348/2
f 536/367/2 564/348/2 560/364/2
f 536/455/108 535/462/108 534/460/108
f 536/455/108 537/457/108 535/462/108
f 537/457/88 566/461/88 535/462/88
f 537/457/88 569/456/88 566/461/88
f 538/444/109 537/457/109 536/455/109
f 538/444/109 539/446/109 537/457/109
f 539/446/89 569/456/89 537/457/89
f 539/446/89 571/445/89 569/456/89
f 540/383/2 536/367/2 560/364/2
f 540/383/2 538/380/2 536/367/2
f 540/383/2 558/369/2 556/372/2
f 540/383/2 560/364/2 558/369/2
f 540/441/110 539/446/110 538/444/110
f 540/441/110 541/440/110 539/446/110
f 540/441/111 542/438/111 543/437/111
f 540/441/111 543/437/111 541/440/111
f 541/440/90 571/445/90 539/446/90
f 541/440/90 573/439/90 571/445/90
f 542/438/112 544/431/112 545/430/112
f 542/438/112 545/430/112 543/437/112
f 543/437/91 573/439/91 541/440/91
f 543/437/91 575/436/91 573/439/91
f 544/366/2 542/379/2 540/383/2
f 544/431/113 546/408/113 545/430/113
f 544/431/113 547/409/113 546/408/113
f 545/430/92 575/436/92 543/437/92
f 545/430/92 577/429/92 575/436/92
f 546/1/101 547/15/101 548/19/101
f 546/408/93 577/429/93 545/430/93
f 546/408/93 580/407/93 577/429/93
f 549/23/5 578/20/5 548/19/5
f 549/23/5 583/24/5 578/20/5
f 549/341/102 550/347/102 551/336/102
f 550/21/20 548/19/20 547/15/20
f 550/21/20 549/23/20 548/19/20
f 550/347/114 552/363/114 553/353/114
f 550/347/114 553/353/114 551/336/114
f 550/347/2 547/357/2 544/366/2
f 552/363/115 554/368/115 555/361/115
f 552/363/115 555/361/115 553/353/115
f 552/363/2 544/366/2 540/383/2
f 552/363/2 550/347/2 544/366/2
f 553/356/94 581/393/94 551/394/94
f 553/356/94 585/355/94 581/393/94
f 554/368/116 556/372/116 557/365/116
f 554/368/116 557/365/116 555/361/116
f 554/368/2 552/363/2 540/383/2
f 555/325/95 585/355/95 553/356/95
f 555/325/95 587/324/95 585/355/95
f 556/372/2 554/368/2 540/383/2
f 557/280/96 587/324/96 555/325/96
f 557/280/96 589/279/96 587/324/96
f 558/369/117 557/365/117 556/372/117
f 558/369/117 559/362/117 557/365/117
f 559/272/97 589/279/97 557/280/97
f 559/272/97 591/271/97 589/279/97
f 560/364/118 559/362/118 558/369/118
f 560/364/118 561/354/118 559/362/118
f 561/248/98 591/271/98 559/272/98
f 561/248/98 593/247/98 591/271/98
f 562/342/103 563/337/103 564/348/103
f 563/233/99 593/247/99 561/248/99
f 563/233/99 596/232/99 593/247/99
f 564/32/23 533/30/23 562/34/23
f 564/32/23 534/28/23 533/30/23
f 564/348/119 561/354/119 560/364/119
f 564/348/119 563/337/119 561/354/119
f 565/29/104 566/25/104 567/27/104
f 567/401/4 568/414/4 570/419/4
f 568/414/131 566/412/131 569/421/131
f 568/414/131 567/401/131 566/412/131
f 570/419/130 568/414/130 569/421/130
f 570/419/130 569/421/130 571/424/130
f 570/419/4 572/423/4 574/420/4
f 570/419/4 574/420/4 588/418/4
f 572/423/128 573/426/128 575/425/128
f 572/423/128 575/425/128 574/420/128
f 572/423/129 570/419/129 571/424/129
f 572/423/129 571/424/129 573/426/129
f 574/420/127 575/425/127 577/422/127
f 574/420/127 577/422/127 576/415/127
f 574/420/4 576/415/4 579/402/4
f 574/420/4 579/402/4 586/417/4
f 574/420/4 586/417/4 588/418/4
f 576/415/126 577/422/126 580/413/126
f 576/415/126 580/413/126 579/402/126
f 578/20/105 579/16/105 580/2/105
f 578/20/133 546/1/133 548/19/133
f 578/20/133 580/2/133 546/1/133
f 579/402/4 582/400/4 584/411/4
f 579/402/4 584/411/4 586/417/4
f 581/393/106 582/392/106 583/395/106
f 581/393/134 549/396/134 551/394/134
f 581/393/134 583/395/134 549/396/134
f 582/22/17 578/20/17 583/24/17
f 582/22/17 579/16/17 578/20/17
f 582/392/125 581/393/125 585/355/125
f 582/392/125 585/355/125 584/359/125
f 584/359/124 585/355/124 587/324/124
f 584/359/124 587/324/124 586/326/124
f 586/326/123 587/324/123 589/279/123
f 586/326/123 589/279/123 588/278/123
f 588/418/4 590/416/4 570/419/4
f 590/270/122 588/278/122 589/279/122
f 590/270/122 589/279/122 591/271/122
f 590/416/4 592/410/4 570/419/4
f 592/246/121 590/270/121 591/271/121
f 592/246/121 591/271/121 593/247/121
f 592/410/4 567/401/4 570/419/4
f 592/410/4 595/399/4 567/401/4
f 594/221/107 595/234/107 596/232/107
f 594/221/135 563/233/135 562/222/135
f 594/221/135 596/232/135 563/233/135
f 595/234/120 592/246/120 593/247/120
f 595/234/120 593/247/120 596/232/120
f 595/31/15 565/29/15 567/27/15
f 595/31/15 594/33/15 565/29/15
f 6/488/4 12/487/4 8/495/4
f 6/488/4 8/495/4 3/496/4
f 7/17/8 8/5/8 9/9/8
f 7/952/18 20/944/18 19/951/18
f 7/952/18 9/945/18 20/944/18
f 9/945/17 12/924/17 11/923/17
f 9/945/17 8/946/17 12/924/17
usemtl MMO_brass
f 153/891/14 155/876/14 160/875/14
f 153/891/14 160/875/14 159/890/14
f 153/891/27 154/887/27 155/876/27
f 156/1086/31 157/1076/31 158/1094/31
f 156/1088/15 155/1198/15 154/1199/15
f 156/1088/15 158/1087/15 155/1198/15
f 157/1071/25 156/1088/25 169/1089/25
f 157/1071/25 169/1089/25 168/1072/25
f 158/1094/4 160/1208/4 155/1209/4
f 158/1094/4 164/1093/4 160/1208/4
f 159/1147/18 161/1108/18 172/1107/18
f 159/1147/18 172/1107/18 171/1146/18
f 159/890/28 160/875/28 161/886/28
f 161/1108/17 160/1109/17 164/1062/17
f 161/1108/17 164/1062/17 163/1061/17
f 162/1075/16 158/1094/16 157/1076/16
f 162/1075/16 164/1093/16 158/1094/16
f 162/1075/32 163/1085/32 164/1093/32
f 162/874/3 157/873/3 168/927/3
f 162/874/3 168/927/3 174/928/3
f 163/1061/5 172/1107/5 161/1108/5
f 163/1061/5 176/1060/5 172/1107/5
f 165/1204/29 166/1150/29 167/1176/29
f 165/1216/24 154/1199/24 153/1215/24
f 165/1216/24 167/1200/24 154/1199/24
f 167/1200/23 166/1201/23 170/1090/23
f 167/1200/23 170/1090/23 169/1089/23
f 168/927/22 170/931/22 175/932/22
f 168/927/22 175/932/22 174/928/22
f 168/927/33 169/929/33 170/931/33
f 169/1089/1 154/1199/1 167/1200/1
f 169/1089/1 156/1088/1 154/1199/1
f 171/1205/21 166/1150/21 165/1204/21
f 171/1205/21 173/1151/21 166/1150/21
f 171/1205/30 172/1177/30 173/1151/30
f 171/933/26 153/891/26 159/890/26
f 171/933/26 165/934/26 153/891/26
f 173/1106/20 172/1107/20 176/1060/20
f 173/1106/20 176/1060/20 175/1059/20
f 174/1041/19 163/1061/19 162/1042/19
f 174/1041/19 176/1060/19 163/1061/19
f 174/928/34 175/932/34 176/930/34
f 175/1080/2 166/1150/2 173/1151/2
f 175/1080/2 170/1079/2 166/1150/2
f 281/1227/14 283/1231/14 288/1265/14
f 281/1227/14 288/1265/14 287/1261/14
f 281/1227/6 282/1219/6 283/1231/6
f 284/1127/15 283/1257/15 282/1258/15
f 284/1127/15 286/1126/15 283/1257/15
f 284/164/7 285/174/7 286/176/7
f 285/1103/25 284/1127/25 297/1128/25
f 285/1103/25 297/1128/25 296/1104/25
f 286/176/4 288/204/4 283/198/4
f 286/176/4 292/200/4 288/204/4
f 287/1261/57 288/1265/57 289/1302/57
f 287/1344/18 289/1308/18 300/1307/18
f 287/1344/18 300/1307/18 299/1343/18
f 289/1308/17 288/1309/17 292/1162/17
f 289/1308/17 292/1162/17 291/1161/17
f 290/1221/3 285/1230/3 296/1262/3
f 290/1221/3 296/1262/3 302/1228/3
f 290/196/16 286/176/16 285/174/16
f 290/196/16 292/200/16 286/176/16
f 290/196/9 291/203/9 292/200/9
f 291/1161/5 300/1307/5 289/1308/5
f 291/1161/5 304/1160/5 300/1307/5
f 293/1185/10 294/1180/10 295/1197/10
f 293/1276/24 282/1258/24 281/1275/24
f 293/1276/24 295/1259/24 282/1258/24
f 295/1259/23 294/1260/23 298/1129/23
f 295/1259/23 298/1129/23 297/1128/23
f 296/1262/22 298/1266/22 303/1232/22
f 296/1262/22 303/1232/22 302/1228/22
f 296/1262/55 297/1303/55 298/1266/55
f 297/1128/1 282/1258/1 295/1259/1
f 297/1128/1 284/1127/1 282/1258/1
f 299/1173/21 294/1180/21 293/1185/21
f 299/1173/21 301/1156/21 294/1180/21
f 299/1173/58 300/1145/58 301/1156/58
f 299/1229/26 281/1227/26 287/1261/26
f 299/1229/26 293/1220/26 281/1227/26
f 301/1306/20 300/1307/20 304/1160/20
f 301/1306/20 304/1160/20 303/1159/20
f 302/1130/19 291/1161/19 290/1131/19
f 302/1130/19 304/1160/19 291/1161/19
f 302/1228/59 303/1232/59 304/1222/59
f 303/1144/2 294/1180/2 301/1156/2
f 303/1144/2 298/1158/2 294/1180/2
f 305/966/14 307/965/14 312/969/14
f 305/966/14 312/969/14 311/973/14
f 305/966/6 306/964/6 307/965/6
f 308/1164/15 307/1310/15 306/1311/15
f 308/1164/15 310/1163/15 307/1310/15
f 308/281/7 309/286/7 310/292/7
f 309/1132/25 308/1164/25 321/1165/25
f 309/1132/25 321/1165/25 320/1133/25
f 310/292/4 312/300/4 307/296/4
f 310/292/4 316/297/4 312/300/4
f 311/1348/18 313/1316/18 324/1315/18
f 311/1348/18 324/1315/18 323/1347/18
f 311/973/57 312/969/57 313/977/57
f 313/1316/17 312/1317/17 316/1170/17
f 313/1316/17 316/1170/17 315/1169/17
f 314/1278/3 309/1320/3 320/1354/3
f 314/1278/3 320/1354/3 326/1319/3
f 314/294/16 310/292/16 309/286/16
f 314/294/16 316/297/16 310/292/16
f 314/294/9 315/299/9 316/297/9
f 315/1169/5 324/1315/5 313/1316/5
f 315/1169/5 328/1168/5 324/1315/5
f 317/1346/24 306/1311/24 305/1345/24
f 317/1346/24 319/1312/24 306/1311/24
f 317/656/10 318/649/10 319/663/10
f 319/1312/23 318/1313/23 322/1166/23
f 319/1312/23 322/1166/23 321/1165/23
f 320/1354/22 322/1365/22 327/1322/22
f 320/1354/22 327/1322/22 326/1319/22
f 320/1354/55 321/1370/55 322/1365/55
f 321/1165/1 306/1311/1 319/1312/1
f 321/1165/1 308/1164/1 306/1311/1
f 323/634/21 318/649/21 317/656/21
f 323/634/21 325/627/21 318/649/21
f 323/634/58 324/622/58 325/627/58
f 323/978/26 305/966/26 311/973/26
f 323/978/26 317/971/26 305/966/26
f 325/1314/20 324/1315/20 328/1168/20
f 325/1314/20 328/1168/20 327/1167/20
f 326/1134/19 315/1169/19 314/1135/19
f 326/1134/19 328/1168/19 315/1169/19
f 326/1319/59 327/1322/59 328/1279/59
f 327/621/2 318/649/2 325/627/2
f 327/621/2 322/629/2 318/649/2
f 329/1053/14 331/1052/14 336/1057/14
f 329/1053/14 336/1057/14 335/1063/14
f 329/1053/53 330/1043/53 331/1052/53
f 332/1111/15 331/1241/15 330/1242/15
f 332/1111/15 334/1110/15 331/1241/15
f 332/163/60 333/173/60 334/175/60
f 333/1095/25 332/1111/25 345/1112/25
f 333/1095/25 345/1112/25 344/1096/25
f 334/175/4 336/202/4 331/197/4
f 334/175/4 340/199/4 336/202/4
f 335/1063/51 336/1057/51 337/1068/51
f 335/1270/18 337/1247/18 348/1246/18
f 335/1270/18 348/1246/18 347/1269/18
f 337/1247/17 336/1248/17 340/1117/17
f 337/1247/17 340/1117/17 339/1116/17
f 338/195/16 334/175/16 333/173/16
f 338/195/16 340/199/16 334/175/16
f 338/195/9 339/201/9 340/199/9
f 338/282/3 333/291/3 344/295/3
f 338/282/3 344/295/3 350/290/3
f 339/1116/5 348/1246/5 337/1247/5
f 339/1116/5 352/1115/5 348/1246/5
f 341/1184/61 342/1179/61 343/1194/61
f 341/1268/24 330/1242/24 329/1267/24
f 341/1268/24 343/1243/24 330/1242/24
f 343/1243/23 342/1244/23 346/1113/23
f 343/1243/23 346/1113/23 345/1112/23
f 344/295/22 346/298/22 351/293/22
f 344/295/22 351/293/22 350/290/22
f 344/295/62 345/301/62 346/298/62
f 345/1112/1 330/1242/1 343/1243/1
f 345/1112/1 332/1111/1 330/1242/1
f 347/1069/26 329/1053/26 335/1063/26
f 347/1069/26 341/1058/26 329/1053/26
f 347/1172/21 342/1179/21 341/1184/21
f 347/1172/21 349/1155/21 342/1179/21
f 347/1172/30 348/1142/30 349/1155/30
f 349/1245/20 348/1246/20 352/1115/20
f 349/1245/20 352/1115/20 351/1114/20
f 350/1097/19 339/1116/19 338/1098/19
f 350/1097/19 352/1115/19 339/1116/19
f 350/290/34 351/293/34 352/283/34
f 351/1141/2 342/1179/2 349/1155/2
f 351/1141/2 346/1157/2 342/1179/2
f 353/1321/14 355/1318/14 360/1351/14
f 353/1321/14 360/1351/14 359/1364/14
f 353/1321/53 354/1277/53 355/1318/53
f 356/1119/15 355/1249/15 354/1250/15
f 356/1119/15 358/1118/15 355/1249/15
f 356/620/60 357/625/60 358/632/60
f 357/1099/25 356/1119/25 369/1120/25
f 357/1099/25 369/1120/25 368/1100/25
f 358/632/4 360/662/4 355/651/4
f 358/632/4 364/654/4 360/662/4
f 359/1274/18 361/1255/18 372/1254/18
f 359/1274/18 372/1254/18 371/1273/18
f 359/1364/51 360/1351/51 361/1368/51
f 361/1255/17 360/1256/17 364/1125/17
f 361/1255/17 364/1125/17 363/1124/17
f 362/647/16 358/632/16 357/625/16
f 362/647/16 364/654/16 358/632/16
f 362/647/9 363/661/9 364/654/9
f 362/995/3 357/998/3 368/1002/3
f 362/995/3 368/1002/3 374/997/3
f 363/1124/5 372/1254/5 361/1255/5
f 363/1124/5 376/1123/5 372/1254/5
f 365/1178/61 366/1182/61 367/1196/61
f 365/1272/24 354/1250/24 353/1271/24
f 365/1272/24 367/1251/24 354/1250/24
f 367/1251/23 366/1252/23 370/1121/23
f 367/1251/23 370/1121/23 369/1120/23
f 368/1002/22 370/1004/22 375/999/22
f 368/1002/22 375/999/22 374/997/22
f 368/1002/62 369/1005/62 370/1004/62
f 369/1120/1 354/1250/1 367/1251/1
f 369/1120/1 356/1119/1 354/1250/1
f 371/1154/21 366/1182/21 365/1178/21
f 371/1154/21 373/1171/21 366/1182/21
f 371/1154/30 372/1143/30 373/1171/30
f 371/1369/26 353/1321/26 359/1364/26
f 371/1369/26 365/1355/26 353/1321/26
f 373/1253/20 372/1254/20 376/1123/20
f 373/1253/20 376/1123/20 375/1122/20
f 374/1101/19 363/1124/19 362/1102/19
f 374/1101/19 376/1123/19 363/1124/19
f 374/997/34 375/999/34 376/996/34
f 375/1181/2 366/1182/2 373/1171/2
f 375/1181/2 370/1195/2 366/1182/2
f 385/166/67 386/165/67 388/183/67
f 385/166/67 388/183/67 387/184/67
f 386/573/1 394/572/1 390/566/1
f 386/573/1 396/574/1 394/572/1
f 387/595/5 389/601/5 391/602/5
f 387/595/5 391/602/5 395/592/5
f 388/215/2 389/178/2 387/177/2
f 388/215/2 390/216/2 389/178/2
f 389/178/68 390/216/68 392/217/68
f 389/178/68 392/217/68 391/179/68
f 390/566/1 388/571/1 386/573/1
f 391/602/5 393/596/5 395/592/5
f 392/737/69 393/763/69 391/738/69
f 392/737/69 394/762/69 393/763/69
f 394/543/4 395/550/4 393/551/4
f 394/543/4 396/542/4 395/550/4
f 394/572/1 392/567/1 390/566/1
f 395/592/5 385/591/5 387/595/5
f 396/542/70 385/549/70 395/550/70
f 396/542/70 386/541/70 385/549/70
f 405/1291/67 406/1290/67 408/1356/67
f 405/1291/67 408/1356/67 407/1357/67
f 406/1475/1 414/1523/1 410/1506/1
f 406/1475/1 416/1505/1 414/1523/1
f 407/1526/5 409/1508/5 411/1478/5
f 407/1526/5 411/1478/5 415/1507/5
f 408/520/2 409/500/2 407/499/2
f 408/520/2 410/521/2 409/500/2
f 409/500/68 410/521/68 412/522/68
f 409/500/68 412/522/68 411/501/68
f 410/1506/1 408/1476/1 406/1475/1
f 411/1478/5 413/1477/5 415/1507/5
f 412/767/69 413/741/69 411/766/69
f 412/767/69 414/742/69 413/741/69
f 414/1523/1 412/1524/1 410/1506/1
f 414/307/4 415/311/4 413/312/4
f 414/307/4 416/306/4 415/311/4
f 415/1507/5 405/1525/5 407/1526/5
f 416/306/70 405/310/70 415/311/70
f 416/306/70 406/305/70 405/310/70
f 425/1480/67 426/1479/67 428/1513/67
f 425/1480/67 428/1513/67 427/1514/67
f 426/1453/1 434/1515/1 430/1498/1
f 426/1453/1 436/1497/1 434/1515/1
f 427/534/5 429/519/5 431/511/5
f 427/534/5 431/511/5 435/518/5
f 428/218/2 429/181/2 427/180/2
f 428/218/2 430/219/2 429/181/2
f 430/1498/1 428/1454/1 426/1453/1
f 430/219/68 431/182/68 429/181/68
f 430/219/68 432/220/68 431/182/68
f 431/511/5 433/510/5 435/518/5
f 432/739/69 433/765/69 431/740/69
f 432/739/69 434/764/69 433/765/69
f 434/1515/1 432/1516/1 430/1498/1
f 434/789/4 435/796/4 433/797/4
f 434/789/4 436/788/4 435/796/4
f 435/518/5 425/533/5 427/534/5
f 436/788/70 425/795/70 435/796/70
f 436/788/70 426/787/70 425/795/70
f 446/1300/67 447/1359/67 445/1301/67
f 446/1300/67 448/1358/67 447/1359/67
f 446/558/1 454/553/1 450/544/1
f 446/558/1 456/559/1 454/553/1
f 447/1499/5 449/1517/5 451/1518/5
f 447/1499/5 451/1518/5 455/1456/5
f 448/523/2 449/503/2 447/502/2
f 448/523/2 450/524/2 449/503/2
f 450/524/68 451/504/68 449/503/68
f 450/524/68 452/525/68 451/504/68
f 450/544/1 448/552/1 446/558/1
f 451/1518/5 453/1500/5 455/1456/5
f 452/769/69 453/743/69 451/768/69
f 452/769/69 454/744/69 453/743/69
f 454/553/1 452/545/1 450/544/1
f 454/565/4 455/569/4 453/570/4
f 454/565/4 456/564/4 455/569/4
f 455/1456/5 445/1455/5 447/1499/5
f 456/564/70 445/568/70 455/569/70
f 456/564/70 446/563/70 445/568/70
f 466/1457/1 474/1519/1 470/1502/1
f 466/1457/1 476/1501/1 474/1519/1
f 466/167/67 467/186/67 465/168/67
f 466/167/67 468/185/67 467/186/67
f 467/1522/5 469/1504/5 471/1460/5
f 467/1522/5 471/1460/5 475/1503/5
f 468/526/2 469/506/2 467/505/2
f 468/526/2 470/527/2 469/506/2
f 469/506/68 470/527/68 472/528/68
f 469/506/68 472/528/68 471/507/68
f 470/1502/1 468/1458/1 466/1457/1
f 471/1460/5 473/1459/5 475/1503/5
f 472/954/69 473/949/69 471/953/69
f 472/954/69 474/950/69 473/949/69
f 474/1519/1 472/1520/1 470/1502/1
f 474/792/4 475/799/4 473/800/4
f 474/792/4 476/791/4 475/799/4
f 475/1503/5 465/1521/5 467/1522/5
f 476/791/70 465/798/70 475/799/70
f 476/791/70 466/790/70 465/798/70
f 49/975/14 51/963/14 56/962/14
f 49/975/14 56/962/14 55/974/14
f 49/975/27 50/968/27 51/963/27
f 52/1084/31 53/1074/31 54/1092/31
f 52/822/15 51/847/15 50/848/15
f 52/822/15 54/821/15 51/847/15
f 53/813/25 52/822/25 65/823/25
f 53/813/25 65/823/25 64/814/25
f 54/1092/4 56/1206/4 51/1207/4
f 54/1092/4 60/1091/4 56/1206/4
f 55/862/18 57/853/18 68/852/18
f 55/862/18 68/852/18 67/861/18
f 55/974/28 56/962/28 57/967/28
f 57/853/17 56/854/17 60/828/17
f 57/853/17 60/828/17 59/827/17
f 58/1073/16 54/1092/16 53/1074/16
f 58/1073/16 60/1091/16 54/1092/16
f 58/1073/32 59/1083/32 60/1091/32
f 58/540/3 53/539/3 64/582/3
f 58/540/3 64/582/3 70/583/3
f 59/827/5 68/852/5 57/853/5
f 59/827/5 72/826/5 68/852/5
f 597/721/14 599/720/14 604/749/14
f 597/721/14 604/749/14 603/750/14
f 597/721/6 598/718/6 599/720/6
f 600/1021/7 601/1017/7 602/1023/7
f 600/38/15 599/41/15 598/42/15
f 600/38/15 602/37/15 599/41/15
f 601/35/25 600/38/25 613/39/25
f 601/35/25 613/39/25 612/36/25
f 602/1023/4 604/1038/4 599/1039/4
f 602/1023/4 608/1022/4 604/1038/4
f 603/62/18 605/59/18 616/58/18
f 603/62/18 616/58/18 615/61/18
f 603/750/8 604/749/8 605/770/8
f 605/59/17 604/60/17 608/54/17
f 605/59/17 608/54/17 607/53/17
f 606/1016/16 602/1023/16 601/1017/16
f 606/1016/16 608/1022/16 602/1023/16
f 606/1016/9 607/1020/9 608/1022/9
f 606/689/3 601/699/3 612/700/3
f 606/689/3 612/700/3 618/690/3
f 607/53/5 616/58/5 605/59/5
f 607/53/5 620/52/5 616/58/5
f 609/1371/10 610/1352/10 611/1366/10
f 609/46/24 598/42/24 597/45/24
f 609/46/24 611/43/24 598/42/24
f 61/1202/29 62/1148/29 63/1174/29
f 61/860/24 50/848/24 49/859/24
f 61/860/24 63/849/24 50/848/24
f 611/43/23 610/44/23 614/40/23
f 611/43/23 614/40/23 613/39/23
f 612/700/11 613/704/11 614/701/11
f 612/700/22 614/701/22 619/691/22
f 612/700/22 619/691/22 618/690/22
f 613/39/1 598/42/1 611/43/1
f 613/39/1 600/38/1 598/42/1
f 615/1372/12 616/1367/12 617/1353/12
f 615/1372/21 610/1352/21 609/1371/21
f 615/1372/21 617/1353/21 610/1352/21
f 615/751/26 597/721/26 603/750/26
f 615/751/26 609/722/26 597/721/26
f 617/57/20 616/58/20 620/52/20
f 617/57/20 620/52/20 619/51/20
f 618/47/19 607/53/19 606/48/19
f 618/47/19 620/52/19 607/53/19
f 618/690/13 619/691/13 620/681/13
f 619/1281/2 610/1352/2 617/1353/2
f 619/1281/2 614/1280/2 610/1352/2
f 63/849/23 62/850/23 66/824/23
f 63/849/23 66/824/23 65/823/23
f 64/582/22 66/589/22 71/590/22
f 64/582/22 71/590/22 70/583/22
f 64/582/33 65/586/33 66/589/33
f 65/823/1 50/848/1 63/849/1
f 65/823/1 52/822/1 50/848/1
f 67/1018/26 49/975/26 55/974/26
f 67/1018/26 61/1019/26 49/975/26
f 67/1203/21 62/1148/21 61/1202/21
f 67/1203/21 69/1149/21 62/1148/21
f 67/1203/30 68/1175/30 69/1149/30
f 69/851/20 68/852/20 72/826/20
f 69/851/20 72/826/20 71/825/20
f 70/583/34 71/590/34 72/587/34
f 70/815/19 59/827/19 58/816/19
f 70/815/19 72/826/19 59/827/19
f 71/1078/2 62/1148/2 69/1149/2
f 71/1078/2 66/1077/2 62/1148/2
usemtl MMO_oak_polished
f 100/1434/40 101/1393/40 99/1433/40
f 100/1434/40 102/1394/40 101/1393/40
f 102/1386/1 100/1340/1 98/1297/1
f 102/1386/1 98/1297/1 94/1339/1
f 102/1394/41 103/1360/41 101/1393/41
f 102/1394/41 104/1361/41 103/1360/41
f 103/1333/5 89/1379/5 91/1403/5
f 103/1333/5 91/1403/5 95/1380/5
f 104/1439/42 89/1474/42 103/1440/42
f 104/1439/42 90/1473/42 89/1474/42
f 177/1442/35 178/1441/35 180/1481/35
f 177/1442/35 180/1481/35 179/1482/35
f 178/1401/1 192/1402/1 190/1378/1
f 179/1341/5 181/1387/5 183/1411/5
f 180/877/36 181/881/36 179/878/36
f 180/877/36 182/880/36 181/881/36
f 182/1331/1 178/1401/1 190/1378/1
f 182/1331/1 180/1377/1 178/1401/1
f 182/880/37 183/895/37 181/881/37
f 182/880/37 184/894/37 183/895/37
f 183/1411/5 185/1412/5 187/1388/5
f 183/1411/5 187/1388/5 191/1299/5
f 184/1484/38 185/1461/38 183/1483/38
f 184/1484/38 186/1462/38 185/1461/38
f 186/1287/1 184/1286/1 182/1331/1
f 186/1462/39 187/1417/39 185/1461/39
f 186/1462/39 188/1418/39 187/1417/39
f 187/1388/5 189/1342/5 191/1299/5
f 188/717/40 189/709/40 187/716/40
f 188/717/40 190/710/40 189/709/40
f 190/1378/1 186/1287/1 182/1331/1
f 190/1378/1 188/1332/1 186/1287/1
f 190/710/41 191/707/41 189/709/41
f 190/710/41 192/708/41 191/707/41
f 191/1299/5 177/1298/5 179/1341/5
f 191/1299/5 179/1341/5 183/1411/5
f 192/1415/42 177/1442/42 191/1416/42
f 192/1415/42 178/1441/42 177/1442/42
f 193/1448/35 194/1447/35 196/1491/35
f 193/1448/35 196/1491/35 195/1492/35
f 194/1381/1 208/1405/1 206/1406/1
f 195/241/5 197/239/5 199/231/5
f 196/817/36 197/820/36 195/818/36
f 196/817/36 198/819/36 197/820/36
f 198/1292/1 194/1381/1 206/1406/1
f 198/1292/1 196/1335/1 194/1381/1
f 198/819/37 199/830/37 197/820/37
f 198/819/37 200/829/37 199/830/37
f 199/231/5 201/229/5 203/228/5
f 199/231/5 203/228/5 207/238/5
f 200/1496/38 201/1469/38 199/1495/38
f 200/1496/38 202/1470/38 201/1469/38
f 202/1336/1 200/1293/1 198/1292/1
f 202/1470/39 203/1429/39 201/1469/39
f 202/1470/39 204/1430/39 203/1429/39
f 203/228/5 205/230/5 207/238/5
f 204/1436/40 205/1395/40 203/1435/40
f 204/1436/40 206/1396/40 205/1395/40
f 206/1396/41 207/1362/41 205/1395/41
f 206/1396/41 208/1363/41 207/1362/41
f 206/1406/1 202/1336/1 198/1292/1
f 206/1406/1 204/1382/1 202/1336/1
f 207/238/5 193/240/5 195/241/5
f 207/238/5 195/241/5 199/231/5
f 208/1425/42 193/1448/42 207/1426/42
f 208/1425/42 194/1447/42 193/1448/42
f 501/1414/35 502/1413/35 504/1449/35
f 501/1414/35 504/1449/35 503/1450/35
f 502/308/1 516/313/1 514/322/1
f 503/1349/5 505/1350/5 507/1305/5
f 504/725/36 505/728/36 503/726/36
f 504/725/36 506/727/36 505/728/36
f 506/304/1 502/308/1 514/322/1
f 506/304/1 504/303/1 502/308/1
f 506/727/37 507/748/37 505/728/37
f 506/727/37 508/747/37 507/748/37
f 507/1305/5 509/1239/5 511/1224/5
f 507/1305/5 511/1224/5 515/1238/5
f 507/1451/38 508/1452/38 510/1432/38
f 507/1451/38 510/1432/38 509/1431/38
f 510/1432/39 511/1391/39 509/1431/39
f 510/1432/39 512/1392/39 511/1391/39
f 510/314/1 508/309/1 506/304/1
f 511/1224/5 513/1223/5 515/1238/5
f 512/391/40 513/381/40 511/390/40
f 512/391/40 514/382/40 513/381/40
f 514/322/1 510/314/1 506/304/1
f 514/322/1 512/323/1 510/314/1
f 514/382/41 515/370/41 513/381/41
f 514/382/41 516/371/41 515/370/41
f 515/1238/5 501/1304/5 503/1349/5
f 515/1238/5 503/1349/5 507/1305/5
f 516/1389/42 501/1414/42 515/1390/42
f 516/1389/42 502/1413/42 501/1414/42
f 517/1446/35 518/1445/35 520/1485/35
f 517/1446/35 520/1485/35 519/1486/35
f 518/263/1 532/267/1 530/268/1
f 519/1373/5 521/1397/5 523/1398/5
f 520/771/36 521/776/36 519/772/36
f 520/771/36 522/775/36 521/776/36
f 522/257/1 518/263/1 530/268/1
f 522/257/1 520/259/1 518/263/1
f 522/775/37 523/780/37 521/776/37
f 522/775/37 524/779/37 523/780/37
f 523/1398/5 525/1374/5 527/1328/5
f 523/1398/5 527/1328/5 531/1282/5
f 523/1487/38 524/1488/38 526/1464/38
f 523/1487/38 526/1464/38 525/1463/38
f 526/1464/39 527/1421/39 525/1463/39
f 526/1464/39 528/1422/39 527/1421/39
f 526/260/1 524/258/1 522/257/1
f 527/1328/5 529/1283/5 531/1282/5
f 528/352/40 529/343/40 527/351/40
f 528/352/40 530/344/40 529/343/40
f 530/268/1 526/260/1 522/257/1
f 530/268/1 528/264/1 526/260/1
f 530/344/41 531/338/41 529/343/41
f 530/344/41 532/339/41 531/338/41
f 531/1282/5 517/1327/5 519/1373/5
f 531/1282/5 519/1373/5 523/1398/5
f 532/1419/42 517/1446/42 531/1420/42
f 532/1419/42 518/1445/42 517/1446/42
f 73/1472/35 74/1471/35 76/1509/35
f 73/1472/35 76/1509/35 75/1510/35
f 74/1294/1 88/1337/1 86/1383/1
f 75/1400/5 77/1376/5 79/1330/5
f 76/623/36 77/636/36 75/624/36
f 76/623/36 78/635/36 77/636/36
f 78/1338/1 74/1294/1 86/1383/1
f 78/1338/1 76/1295/1 74/1294/1
f 78/635/37 79/678/37 77/636/37
f 78/635/37 80/677/37 79/678/37
f 79/1330/5 81/1285/5 83/1284/5
f 79/1330/5 83/1284/5 87/1375/5
f 80/1490/38 81/1465/38 79/1489/38
f 80/1490/38 82/1466/38 81/1465/38
f 82/1408/1 80/1384/1 78/1338/1
f 82/1466/39 83/1423/39 81/1465/39
f 82/1466/39 84/1424/39 83/1423/39
f 83/1284/5 85/1329/5 87/1375/5
f 84/698/40 85/692/40 83/697/40
f 84/698/40 86/693/40 85/692/40
f 86/1383/1 82/1408/1 78/1338/1
f 86/1383/1 84/1407/1 82/1408/1
f 86/693/41 87/687/41 85/692/41
f 86/693/41 88/688/41 87/687/41
f 87/1375/5 73/1399/5 75/1400/5
f 87/1375/5 75/1400/5 79/1330/5
f 88/1437/42 73/1472/42 87/1438/42
f 88/1437/42 74/1471/42 73/1472/42
f 89/1474/35 90/1473/35 92/1511/35
f 89/1474/35 92/1511/35 91/1512/35
f 90/1409/1 104/1410/1 102/1386/1
f 91/1403/5 93/1404/5 95/1380/5
f 92/901/36 93/904/36 91/902/36
f 92/901/36 94/903/36 93/904/36
f 94/1339/1 90/1409/1 102/1386/1
f 94/1339/1 92/1385/1 90/1409/1
f 94/903/37 95/918/37 93/904/37
f 94/903/37 96/917/37 95/918/37
f 95/1380/5 97/1334/5 99/1289/5
f 95/1380/5 99/1289/5 103/1333/5
f 96/1494/38 97/1467/38 95/1493/38
f 96/1494/38 98/1468/38 97/1467/38
f 98/1297/1 96/1296/1 94/1339/1
f 98/1468/39 100/1428/39 99/1427/39
f 98/1468/39 99/1427/39 97/1467/39
f 99/1289/5 101/1288/5 103/1333/5
usemtl MMO_teal
f 257/972/14 259/970/14 264/976/14
f 257/972/14 264/976/14 263/985/14
f 257/972/53 258/959/53 259/970/53
f 260/12/15 259/151/15 258/152/15
f 260/12/15 262/11/15 259/151/15
f 260/835/7 261/836/7 262/837/7
f 261/3/25 260/12/25 273/13/25
f 261/3/25 273/13/25 272/4/25
f 262/837/4 264/858/4 259/856/4
f 262/837/4 268/855/4 264/858/4
f 263/538/18 265/531/18 276/530/18
f 263/538/18 276/530/18 275/537/18
f 263/985/8 264/976/8 265/987/8
f 265/531/17 264/532/17 268/406/17
f 265/531/17 268/406/17 267/405/17
f 266/334/3 261/340/3 272/349/3
f 266/334/3 272/349/3 278/345/3
f 266/838/16 262/837/16 261/836/16
f 266/838/16 268/855/16 262/837/16
f 266/838/54 267/857/54 268/855/54
f 267/405/5 276/530/5 265/531/5
f 267/405/5 280/404/5 276/530/5
f 269/160/24 258/152/24 257/159/24
f 269/160/24 271/153/24 258/152/24
f 269/893/10 270/892/10 271/896/10
f 271/153/23 270/154/23 274/14/23
f 271/153/23 274/14/23 273/13/23
f 272/349/22 274/350/22 279/346/22
f 272/349/22 279/346/22 278/345/22
f 272/349/55 273/360/55 274/350/55
f 273/13/1 258/152/1 271/153/1
f 273/13/1 260/12/1 258/152/1
f 275/889/21 270/892/21 269/893/21
f 275/889/21 277/888/21 270/892/21
f 275/889/56 276/872/56 277/888/56
f 275/988/26 257/972/26 263/985/26
f 275/988/26 269/986/26 257/972/26
f 277/529/20 276/530/20 280/404/20
f 277/529/20 280/404/20 279/403/20
f 278/345/13 279/346/13 280/335/13
f 278/397/19 267/405/19 266/398/19
f 278/397/19 280/404/19 267/405/19
f 279/871/2 270/892/2 277/888/2
f 279/871/2 274/879/2 270/892/2
f 621/319/136 622/315/136 623/318/136
f 621/319/14 623/318/14 628/327/14
f 621/319/14 628/327/14 627/328/14
f 624/555/15 623/575/15 622/576/15
f 624/555/15 626/554/15 623/575/15
f 624/617/87 625/626/87 626/631/87
f 625/546/25 624/555/25 637/556/25
f 625/546/25 637/556/25 636/547/25
f 626/631/4 628/675/4 623/652/4
f 626/631/4 632/653/4 628/675/4
f 627/328/57 628/327/57 629/330/57
f 627/680/18 629/659/18 640/658/18
f 627/680/18 640/658/18 639/679/18
f 629/659/17 628/660/17 632/600/17
f 629/659/17 632/600/17 631/599/17
f 630/603/3 625/607/3 636/614/3
f 630/603/3 636/614/3 642/608/3
f 630/648/16 626/631/16 625/626/16
f 630/648/16 632/653/16 626/631/16
f 630/648/54 631/674/54 632/653/54
f 631/599/5 640/658/5 629/659/5
f 631/599/5 644/598/5 640/658/5
f 633/585/24 622/576/24 621/584/24
f 633/585/24 635/577/24 622/576/24
f 633/655/137 634/650/137 635/676/137
f 635/577/23 634/578/23 638/557/23
f 635/577/23 638/557/23 637/556/23
f 636/614/22 638/615/22 643/609/22
f 636/614/22 643/609/22 642/608/22
f 636/614/55 637/616/55 638/615/55
f 637/556/1 622/576/1 635/577/1
f 637/556/1 624/555/1 622/576/1
f 639/331/26 621/319/26 627/328/26
f 639/331/26 633/329/26 621/319/26
f 639/633/21 634/650/21 633/655/21
f 639/633/21 641/628/21 634/650/21
f 639/633/58 640/619/58 641/628/58
f 641/657/20 640/658/20 644/598/20
f 641/657/20 644/598/20 643/597/20
f 642/593/19 631/599/19 630/594/19
f 642/593/19 644/598/19 631/599/19
f 642/608/59 643/609/59 644/604/59
f 643/618/2 634/650/2 641/628/2
f 643/618/2 638/630/2 634/650/2
usemtl MMO_plaster
f 378/375/63 379/387/63 377/376/63
f 378/375/63 380/386/63 379/387/63
f 380/377/66 378/388/66 382/389/66
f 380/377/66 382/389/66 384/378/66
f 380/458/5 383/494/5 379/459/5
f 380/458/5 384/493/5 383/494/5
f 382/434/1 377/454/1 381/435/1
f 382/434/1 378/453/1 377/454/1
f 383/753/65 377/729/65 379/752/65
f 383/753/65 381/730/65 377/729/65
f 384/189/64 381/210/64 383/190/64
f 384/189/64 382/209/64 381/210/64
f 398/641/71 399/669/71 397/642/71
f 398/641/71 400/668/71 399/669/71
f 399/333/5 400/332/5 404/427/5
f 399/333/5 404/427/5 403/428/5
f 400/193/74 398/213/74 402/214/74
f 400/193/74 402/214/74 404/194/74
f 402/7/1 397/56/1 401/8/1
f 402/7/1 398/55/1 397/56/1
f 403/517/73 397/497/73 399/516/73
f 403/517/73 401/498/73 397/497/73
f 404/191/72 401/212/72 403/192/72
f 404/191/72 402/211/72 401/212/72
f 418/373/138 420/384/138 419/385/138
f 418/373/75 419/385/75 417/374/75
f 420/224/5 423/285/5 419/225/5
f 420/224/5 424/284/5 423/285/5
f 420/735/78 418/758/78 422/759/78
f 420/735/78 422/759/78 424/736/78
f 422/683/1 417/794/1 421/684/1
f 422/683/1 418/793/1 417/794/1
f 423/671/77 417/643/77 419/670/77
f 423/671/77 421/644/77 417/643/77
f 424/187/76 421/208/76 423/188/76
f 424/187/76 422/207/76 421/208/76
f 438/316/139 440/320/139 439/321/139
f 438/316/79 439/321/79 437/317/79
f 440/509/5 443/610/5 439/611/5
f 440/509/5 444/508/5 443/610/5
f 440/637/82 438/664/82 442/665/82
f 440/637/82 442/665/82 444/638/82
f 442/1443/1 437/1011/1 441/1010/1
f 442/1443/1 438/1444/1 437/1011/1
f 443/667/81 437/639/81 439/666/81
f 443/667/81 441/640/81 437/639/81
f 444/807/80 441/812/80 443/808/80
f 444/807/80 442/811/80 441/812/80
f 458/731/83 459/755/83 457/732/83
f 458/731/83 460/754/83 459/755/83
f 460/101/5 463/156/5 459/102/5
f 460/101/5 464/155/5 463/156/5
f 460/645/86 458/672/86 462/673/86
f 460/645/86 462/673/86 464/646/86
f 461/66/1 458/91/1 457/92/1
f 461/66/1 462/65/1 458/91/1
f 463/613/85 457/605/85 459/612/85
f 463/613/85 461/606/85 457/605/85
f 464/733/84 461/757/84 463/734/84
f 464/733/84 462/756/84 461/757/84
