# Blender 4.0.2
# www.blender.org
mtllib vendor_stall_collision.mtl
o vendor_stall_collision
v 1.500000 0.000000 -0.980000
v 1.500000 2.600000 -0.980000
v 1.500000 0.000000 1.037971
v 1.500000 2.600000 1.037971
v -1.500000 0.000000 -0.980000
v -1.500000 2.600000 -0.980000
v -1.500000 0.000000 1.037971
v -1.500000 2.600000 1.037971
vn 1.0000 -0.0000 -0.0000
vn -0.0000 -0.0000 1.0000
vn -1.0000 -0.0000 -0.0000
vn -0.0000 -0.0000 -1.0000
vn -0.0000 -1.0000 -0.0000
vn -0.0000 1.0000 -0.0000
vt 0.00000 0.00000
vt 0.00000 0.49800
vt 0.00000 0.50200
vt 0.00000 1.00000
vt 0.27772 0.50200
vt 0.27772 1.00000
vt 0.28104 0.50200
vt 0.28104 1.00000
vt 0.35782 0.00000
vt 0.35782 0.49800
vt 0.36114 0.00000
vt 0.36114 0.49800
vt 0.55876 0.50200
vt 0.55876 1.00000
vt 0.56208 0.50200
vt 0.56208 0.93360
vt 0.71896 0.00000
vt 0.71896 0.49800
vt 0.72228 0.00000
vt 0.72228 0.43160
vt 0.83980 0.50200
vt 0.83980 0.93360
vt 1.00000 0.00000
vt 1.00000 0.43160
s 0
usemtl MMO_collision
f 2/15/1 3/22/1 1/16/1
f 2/15/1 4/21/1 3/22/1
f 4/14/6 2/8/6 6/7/6
f 4/14/6 6/7/6 8/13/6
f 4/2/2 7/9/2 3/10/2
f 4/2/2 8/1/2 7/9/2
f 6/12/4 1/17/4 5/18/4
f 6/12/4 2/11/4 1/17/4
f 7/6/5 1/3/5 3/5/5
f 7/6/5 5/4/5 1/3/5
f 8/19/3 5/24/3 7/20/3
f 8/19/3 6/23/3 5/24/3
