# Blender 4.0.2
# www.blender.org
mtllib display_pedestal.mtl
o display_pedestal
v 0.400000 0.000000 -0.400000
v 0.400000 0.030000 -0.430000
v 0.430000 0.030000 -0.400000
v 0.400000 0.050000 -0.430000
v 0.400000 0.080000 -0.400000
v 0.430000 0.050000 -0.400000
v 0.400000 0.000000 0.400000
v 0.430000 0.030000 0.400000
v 0.400000 0.030000 0.430000
v 0.400000 0.080000 0.400000
v 0.400000 0.050000 0.430000
v 0.430000 0.050000 0.400000
v -0.400000 0.000000 -0.400000
v -0.430000 0.030000 -0.400000
v -0.400000 0.030000 -0.430000
v -0.400000 0.080000 -0.400000
v -0.400000 0.050000 -0.430000
v -0.430000 0.050000 -0.400000
v -0.400000 0.000000 0.400000
v -0.400000 0.030000 0.430000
v -0.430000 0.030000 0.400000
v -0.400000 0.080000 0.400000
v -0.430000 0.050000 0.400000
v -0.400000 0.050000 0.430000
v 0.320000 0.080000 -0.320000
v 0.320000 0.110000 -0.350000
v 0.350000 0.110000 -0.320000
v 0.320000 0.970000 -0.350000
v 0.320000 1.000000 -0.320000
v 0.350000 0.970000 -0.320000
v 0.320000 0.080000 0.320000
v 0.350000 0.110000 0.320000
v 0.320000 0.110000 0.350000
v 0.320000 1.000000 0.320000
v 0.320000 0.970000 0.350000
v 0.350000 0.970000 0.320000
v -0.320000 0.080000 -0.320000
v -0.350000 0.110000 -0.320000
v -0.320000 0.110000 -0.350000
v -0.320000 1.000000 -0.320000
v -0.320000 0.970000 -0.350000
v -0.350000 0.970000 -0.320000
v -0.320000 0.080000 0.320000
v -0.320000 0.110000 0.350000
v -0.350000 0.110000 0.320000
v -0.320000 1.000000 0.320000
v -0.350000 0.970000 0.320000
v -0.320000 0.970000 0.350000
v 0.350000 0.900000 -0.350000
v 0.350000 0.910000 -0.360000
v 0.360000 0.910000 -0.350000
v 0.350000 0.930000 -0.360000
v 0.350000 0.940000 -0.350000
v 0.360000 0.930000 -0.350000
v 0.350000 0.900000 0.350000
v 0.360000 0.910000 0.350000
v 0.350000 0.910000 0.360000
v 0.350000 0.940000 0.350000
v 0.350000 0.930000 0.360000
v 0.360000 0.930000 0.350000
v -0.350000 0.900000 -0.350000
v -0.360000 0.910000 -0.350000
v -0.350000 0.910000 -0.360000
v -0.350000 0.940000 -0.350000
v -0.350000 0.930000 -0.360000
v -0.360000 0.930000 -0.350000
v -0.350000 0.900000 0.350000
v -0.350000 0.910000 0.360000
v -0.360000 0.910000 0.350000
v -0.350000 0.940000 0.350000
v -0.360000 0.930000 0.350000
v -0.350000 0.930000 0.360000
v 0.370000 1.000000 -0.370000
v 0.370000 1.030000 -0.400000
v 0.400000 1.030000 -0.370000
v 0.370000 1.060000 -0.400000
v 0.370000 1.090000 -0.370000
v 0.400000 1.060000 -0.370000
v 0.370000 1.000000 0.370000
v 0.400000 1.030000 0.370000
v 0.370000 1.030000 0.400000
v 0.370000 1.090000 0.370000
v 0.370000 1.060000 0.400000
v 0.400000 1.060000 0.370000
v -0.370000 1.000000 -0.370000
v -0.400000 1.030000 -0.370000
v -0.370000 1.030000 -0.400000
v -0.370000 1.090000 -0.370000
v -0.370000 1.060000 -0.400000
v -0.400000 1.060000 -0.370000
v -0.370000 1.000000 0.370000
v -0.370000 1.030000 0.400000
v -0.400000 1.030000 0.370000
v -0.370000 1.090000 0.370000
v -0.400000 1.060000 0.370000
v -0.370000 1.060000 0.400000
v 0.336000 1.090000 -0.336000
v 0.336000 1.094000 -0.340000
v 0.340000 1.094000 -0.336000
v 0.336000 1.096000 -0.340000
v 0.336000 1.100000 -0.336000
v 0.340000 1.096000 -0.336000
v 0.336000 1.090000 0.336000
v 0.340000 1.094000 0.336000
v 0.336000 1.094000 0.340000
v 0.336000 1.100000 0.336000
v 0.336000 1.096000 0.340000
v 0.340000 1.096000 0.336000
v -0.336000 1.090000 -0.336000
v -0.340000 1.094000 -0.336000
v -0.336000 1.094000 -0.340000
v -0.336000 1.100000 -0.336000
v -0.336000 1.096000 -0.340000
v -0.340000 1.096000 -0.336000
v -0.336000 1.090000 0.336000
v -0.336000 1.094000 0.340000
v -0.340000 1.094000 0.336000
v -0.336000 1.100000 0.336000
v -0.340000 1.096000 0.336000
v -0.336000 1.096000 0.340000
v -0.348000 0.110000 -0.202000
v -0.348000 0.118000 -0.210000
v -0.340000 0.118000 -0.202000
v -0.348000 0.822000 -0.210000
v -0.348000 0.830000 -0.202000
v -0.340000 0.822000 -0.202000
v -0.348000 0.110000 -0.198000
v -0.340000 0.118000 -0.198000
v -0.348000 0.118000 -0.190000
v -0.348000 0.830000 -0.198000
v -0.348000 0.822000 -0.190000
v -0.340000 0.822000 -0.198000
v -0.362000 0.110000 -0.202000
v -0.370000 0.118000 -0.202000
v -0.362000 0.118000 -0.210000
v -0.362000 0.830000 -0.202000
v -0.362000 0.822000 -0.210000
v -0.370000 0.822000 -0.202000
v -0.362000 0.110000 -0.198000
v -0.362000 0.118000 -0.190000
v -0.370000 0.118000 -0.198000
v -0.362000 0.830000 -0.198000
v -0.370000 0.822000 -0.198000
v -0.362000 0.822000 -0.190000
v -0.348000 0.110000 0.198000
v -0.348000 0.118000 0.190000
v -0.340000 0.118000 0.198000
v -0.348000 0.822000 0.190000
v -0.348000 0.830000 0.198000
v -0.340000 0.822000 0.198000
v -0.348000 0.110000 0.202000
v -0.340000 0.118000 0.202000
v -0.348000 0.118000 0.210000
v -0.348000 0.830000 0.202000
v -0.348000 0.822000 0.210000
v -0.340000 0.822000 0.202000
v -0.362000 0.110000 0.198000
v -0.370000 0.118000 0.198000
v -0.362000 0.118000 0.190000
v -0.362000 0.830000 0.198000
v -0.362000 0.822000 0.190000
v -0.370000 0.822000 0.198000
v -0.362000 0.110000 0.202000
v -0.362000 0.118000 0.210000
v -0.370000 0.118000 0.202000
v -0.362000 0.830000 0.202000
v -0.370000 0.822000 0.202000
v -0.362000 0.822000 0.210000
v -0.202000 0.110000 0.348000
v -0.210000 0.118000 0.348000
v -0.202000 0.118000 0.340000
v -0.210000 0.822000 0.348000
v -0.202000 0.830000 0.348000
v -0.202000 0.822000 0.340000
v -0.198000 0.110000 0.348000
v -0.198000 0.118000 0.340000
v -0.190000 0.118000 0.348000
v -0.198000 0.830000 0.348000
v -0.190000 0.822000 0.348000
v -0.198000 0.822000 0.340000
v -0.202000 0.110000 0.362000
v -0.202000 0.118000 0.370000
v -0.210000 0.118000 0.362000
v -0.202000 0.830000 0.362000
v -0.210000 0.822000 0.362000
v -0.202000 0.822000 0.370000
v -0.198000 0.110000 0.362000
v -0.190000 0.118000 0.362000
v -0.198000 0.118000 0.370000
v -0.198000 0.830000 0.362000
v -0.198000 0.822000 0.370000
v -0.190000 0.822000 0.362000
v 0.198000 0.110000 0.348000
v 0.190000 0.118000 0.348000
v 0.198000 0.118000 0.340000
v 0.190000 0.822000 0.348000
v 0.198000 0.830000 0.348000
v 0.198000 0.822000 0.340000
v 0.202000 0.110000 0.348000
v 0.202000 0.118000 0.340000
v 0.210000 0.118000 0.348000
v 0.202000 0.830000 0.348000
v 0.210000 0.822000 0.348000
v 0.202000 0.822000 0.340000
v 0.198000 0.110000 0.362000
v 0.198000 0.118000 0.370000
v 0.190000 0.118000 0.362000
v 0.198000 0.830000 0.362000
v 0.190000 0.822000 0.362000
v 0.198000 0.822000 0.370000
v 0.202000 0.110000 0.362000
v 0.210000 0.118000 0.362000
v 0.202000 0.118000 0.370000
v 0.202000 0.830000 0.362000
v 0.202000 0.822000 0.370000
v 0.210000 0.822000 0.362000
v 0.348000 0.110000 0.202000
v 0.348000 0.118000 0.210000
v 0.340000 0.118000 0.202000
v 0.348000 0.822000 0.210000
v 0.348000 0.830000 0.202000
v 0.340000 0.822000 0.202000
v 0.348000 0.110000 0.198000
v 0.340000 0.118000 0.198000
v 0.348000 0.118000 0.190000
v 0.348000 0.830000 0.198000
v 0.348000 0.822000 0.190000
v 0.340000 0.822000 0.198000
v 0.362000 0.110000 0.202000
v 0.370000 0.118000 0.202000
v 0.362000 0.118000 0.210000
v 0.362000 0.830000 0.202000
v 0.362000 0.822000 0.210000
v 0.370000 0.822000 0.202000
v 0.362000 0.110000 0.198000
v 0.362000 0.118000 0.190000
v 0.370000 0.118000 0.198000
v 0.362000 0.830000 0.198000
v 0.370000 0.822000 0.198000
v 0.362000 0.822000 0.190000
v 0.348000 0.110000 -0.198000
v 0.348000 0.118000 -0.190000
v 0.340000 0.118000 -0.198000
v 0.348000 0.822000 -0.190000
v 0.348000 0.830000 -0.198000
v 0.340000 0.822000 -0.198000
v 0.348000 0.110000 -0.202000
v 0.340000 0.118000 -0.202000
v 0.348000 0.118000 -0.210000
v 0.348000 0.830000 -0.202000
v 0.348000 0.822000 -0.210000
v 0.340000 0.822000 -0.202000
v 0.362000 0.110000 -0.198000
v 0.370000 0.118000 -0.198000
v 0.362000 0.118000 -0.190000
v 0.362000 0.830000 -0.198000
v 0.362000 0.822000 -0.190000
v 0.370000 0.822000 -0.198000
v 0.362000 0.110000 -0.202000
v 0.362000 0.118000 -0.210000
v 0.370000 0.118000 -0.202000
v 0.362000 0.830000 -0.202000
v 0.370000 0.822000 -0.202000
v 0.362000 0.822000 -0.210000
v 0.202000 0.110000 -0.348000
v 0.210000 0.118000 -0.348000
v 0.202000 0.118000 -0.340000
v 0.210000 0.822000 -0.348000
v 0.202000 0.830000 -0.348000
v 0.202000 0.822000 -0.340000
v 0.198000 0.110000 -0.348000
v 0.198000 0.118000 -0.340000
v 0.190000 0.118000 -0.348000
v 0.198000 0.830000 -0.348000
v 0.190000 0.822000 -0.348000
v 0.198000 0.822000 -0.340000
v 0.202000 0.110000 -0.362000
v 0.202000 0.118000 -0.370000
v 0.210000 0.118000 -0.362000
v 0.202000 0.830000 -0.362000
v 0.210000 0.822000 -0.362000
v 0.202000 0.822000 -0.370000
v 0.198000 0.110000 -0.362000
v 0.190000 0.118000 -0.362000
v 0.198000 0.118000 -0.370000
v 0.198000 0.830000 -0.362000
v 0.198000 0.822000 -0.370000
v 0.190000 0.822000 -0.362000
v -0.198000 0.110000 -0.348000
v -0.190000 0.118000 -0.348000
v -0.198000 0.118000 -0.340000
v -0.190000 0.822000 -0.348000
v -0.198000 0.830000 -0.348000
v -0.198000 0.822000 -0.340000
v -0.202000 0.110000 -0.348000
v -0.202000 0.118000 -0.340000
v -0.210000 0.118000 -0.348000
v -0.202000 0.830000 -0.348000
v -0.210000 0.822000 -0.348000
v -0.202000 0.822000 -0.340000
v -0.198000 0.110000 -0.362000
v -0.198000 0.118000 -0.370000
v -0.190000 0.118000 -0.362000
v -0.198000 0.830000 -0.362000
v -0.190000 0.822000 -0.362000
v -0.198000 0.822000 -0.370000
v -0.202000 0.110000 -0.362000
v -0.210000 0.118000 -0.362000
v -0.202000 0.118000 -0.370000
v -0.202000 0.830000 -0.362000
v -0.202000 0.822000 -0.370000
v -0.210000 0.822000 -0.362000
vn -0.0000 -0.0000 -1.0000
vn -1.0000 -0.0000 -0.0000
vn -0.0000 1.0000 -0.0000
vn 1.0000 -0.0000 -0.0000
vn -0.0000 -0.0000 1.0000
vn 0.5773 -0.5774 -0.5774
vn 0.5773 0.5773 -0.5774
vn 0.5773 -0.5774 0.5774
vn 0.5773 0.5774 0.5774
vn -0.5774 -0.5774 -0.5774
vn -0.5773 0.5774 -0.5774
vn -0.5773 -0.5774 0.5774
vn -0.5773 0.5774 0.5774
vn 0.7071 -0.7071 -0.0000
vn 0.7071 -0.0000 -0.7071
vn 0.7071 0.7071 -0.0000
vn 0.7071 -0.0000 0.7071
vn -0.0000 -0.7071 0.7071
vn -0.0000 0.7071 0.7071
vn -0.7071 -0.0000 0.7071
vn -0.7071 -0.7071 -0.0000
vn -0.7071 0.7071 -0.0000
vn -0.7071 -0.0000 -0.7071
vn -0.0000 -0.7071 -0.7071
vn -0.0000 0.7071 -0.7071
vn -0.0000 -1.0000 -0.0000
vn 0.5774 -0.5773 -0.5773
vn 0.5773 0.5774 -0.5774
vn 0.5774 -0.5773 0.5773
vn -0.5774 -0.5773 -0.5773
vn -0.5774 -0.5773 0.5773
vn 0.5774 -0.5774 -0.5774
vn 0.5774 0.5774 -0.5774
vn 0.5774 -0.5774 0.5774
vn 0.5774 0.5774 0.5774
vn -0.5774 0.5774 -0.5774
vn -0.5774 -0.5774 0.5774
vn -0.5774 0.5774 0.5774
vn 0.5774 0.5773 -0.5773
vn 0.5774 0.5773 0.5773
vn -0.5773 -0.5774 -0.5774
vn -0.5774 0.5773 -0.5773
vn -0.5774 0.5773 0.5773
vn 0.5774 0.5774 -0.5773
vn 0.5774 0.5774 0.5773
vn -0.5774 0.5774 -0.5773
vn -0.5774 0.5774 0.5773
vn 0.5774 -0.5773 -0.5774
vn 0.5774 0.5773 -0.5774
vn 0.5774 -0.5773 0.5774
vn 0.5774 0.5773 0.5774
vn -0.5774 -0.5773 -0.5774
vn -0.5774 0.5773 -0.5774
vn -0.5774 -0.5773 0.5774
vn -0.5774 0.5773 0.5774
vn -0.5773 -0.5774 -0.5773
vn 0.5773 -0.5774 -0.5773
vn -0.5773 -0.5774 0.5773
vn 0.5773 -0.5774 0.5773
vt 0.00000 0.17368
vt 0.00000 0.34827
vt 0.00000 0.35872
vt 0.00000 0.56787
vt 0.00000 0.58039
vt 0.00000 0.78955
vt 0.00085 0.35872
vt 0.00085 0.56787
vt 0.00170 0.57802
vt 0.00170 0.79192
vt 0.00255 0.35634
vt 0.00255 0.57025
vt 0.00340 0.58039
vt 0.00340 0.78955
vt 0.00425 0.35872
vt 0.00425 0.56787
vt 0.00600 0.34858
vt 0.00723 0.35872
vt 0.00723 0.56787
vt 0.00868 0.18043
vt 0.00933 0.16784
vt 0.01469 0.18073
vt 0.01509 0.35872
vt 0.01509 0.56787
vt 0.01509 0.58039
vt 0.01509 0.78955
vt 0.01534 0.16815
vt 0.01679 0.57802
vt 0.01679 0.79192
vt 0.01801 0.00000
vt 0.01806 0.35872
vt 0.01806 0.56787
vt 0.01849 0.58039
vt 0.01849 0.78955
vt 0.01976 0.35634
vt 0.01976 0.57025
vt 0.02146 0.35872
vt 0.02146 0.56787
vt 0.02231 0.35872
vt 0.02231 0.56787
vt 0.02402 0.00030
vt 0.02402 0.17489
vt 0.03188 0.16102
vt 0.03188 0.32303
vt 0.03188 0.33366
vt 0.03188 0.54282
vt 0.03273 0.33366
vt 0.03273 0.54282
vt 0.03273 0.55534
vt 0.03273 0.76449
vt 0.03273 0.92379
vt 0.03443 0.33128
vt 0.03443 0.54519
vt 0.03570 0.55534
vt 0.03570 0.76449
vt 0.03574 0.77463
vt 0.03574 0.92168
vt 0.03574 0.92589
vt 0.03613 0.33366
vt 0.03613 0.54282
vt 0.03741 0.55296
vt 0.03741 0.76687
vt 0.03911 0.33366
vt 0.03911 0.54282
vt 0.03911 0.55534
vt 0.03911 0.76449
vt 0.04053 0.16781
vt 0.04088 0.32352
vt 0.04123 0.15522
vt 0.04175 0.77463
vt 0.04175 0.92168
vt 0.04175 0.92589
vt 0.04475 0.92379
vt 0.04696 0.33366
vt 0.04696 0.54282
vt 0.04696 0.55534
vt 0.04696 0.76449
vt 0.04954 0.16830
vt 0.04989 0.00000
vt 0.04994 0.33366
vt 0.04994 0.54282
vt 0.04994 0.55534
vt 0.04994 0.76449
vt 0.05024 0.15571
vt 0.05164 0.33128
vt 0.05164 0.54519
vt 0.05164 0.55296
vt 0.05164 0.76687
vt 0.05261 0.77546
vt 0.05261 0.91748
vt 0.05321 0.91748
vt 0.05334 0.33366
vt 0.05334 0.54282
vt 0.05334 0.55534
vt 0.05334 0.76449
vt 0.05381 0.77631
vt 0.05382 0.77463
vt 0.05419 0.33366
vt 0.05419 0.54282
vt 0.05441 0.77632
vt 0.05442 0.77464
vt 0.05562 0.77549
vt 0.05889 0.00049
vt 0.05889 0.16250
vt 0.06675 0.14916
vt 0.06675 0.30845
vt 0.06675 0.51761
vt 0.06675 0.53012
vt 0.06675 0.73928
vt 0.06675 0.89858
vt 0.06760 0.53012
vt 0.06760 0.73928
vt 0.06930 0.52775
vt 0.06930 0.74166
vt 0.06973 0.30845
vt 0.06973 0.51761
vt 0.06976 0.00000
vt 0.06976 0.14705
vt 0.06976 0.15126
vt 0.06976 0.29831
vt 0.06976 0.74942
vt 0.06976 0.89648
vt 0.06976 0.90068
vt 0.07100 0.53012
vt 0.07100 0.73928
vt 0.07143 0.30607
vt 0.07143 0.51998
vt 0.07313 0.30845
vt 0.07313 0.51761
vt 0.07398 0.30845
vt 0.07398 0.51761
vt 0.07398 0.53012
vt 0.07398 0.73928
vt 0.07577 0.00000
vt 0.07577 0.14705
vt 0.07577 0.15126
vt 0.07577 0.29831
vt 0.07577 0.74942
vt 0.07577 0.89648
vt 0.07577 0.90068
vt 0.07878 0.14916
vt 0.07878 0.89858
vt 0.08664 0.14075
vt 0.08664 0.29818
vt 0.08664 0.53586
vt 0.08664 0.56145
vt 0.08664 0.78130
vt 0.08664 0.79917
vt 0.08664 0.99881
vt 0.08784 0.79798
vt 0.08784 0.79917
vt 0.08784 0.99881
vt 0.08784 1.00000
vt 0.09566 0.00000
vt 0.09566 0.13445
vt 0.09566 0.14705
vt 0.09566 0.28150
vt 0.09566 0.28927
vt 0.09566 0.29818
vt 0.09566 0.53586
vt 0.09566 0.54477
vt 0.09566 0.55253
vt 0.09566 0.56145
vt 0.09566 0.78130
vt 0.09566 0.79021
vt 0.28987 0.79798
vt 0.28987 0.79917
vt 0.28987 0.99881
vt 0.28987 1.00000
vt 0.29107 0.79917
vt 0.29107 0.99881
vt 0.31813 0.55253
vt 0.31813 0.56145
vt 0.31813 0.78130
vt 0.31813 0.79021
vt 0.32715 0.56145
vt 0.32715 0.78130
vt 0.33616 0.28927
vt 0.33616 0.29818
vt 0.33616 0.53586
vt 0.33616 0.54477
vt 0.33881 0.55491
vt 0.33881 0.76407
vt 0.33881 0.77470
vt 0.33881 0.93670
vt 0.34178 0.55491
vt 0.34178 0.76407
vt 0.34348 0.55253
vt 0.34348 0.76644
vt 0.34518 0.29818
vt 0.34518 0.53586
vt 0.34518 0.55491
vt 0.34518 0.76407
vt 0.34746 0.92992
vt 0.34781 0.77421
vt 0.34816 0.94251
vt 0.35304 0.29165
vt 0.35304 0.50080
vt 0.35304 0.51332
vt 0.35304 0.72247
vt 0.35389 0.29165
vt 0.35389 0.50080
vt 0.35420 0.00000
vt 0.35420 0.13445
vt 0.35420 0.14705
vt 0.35420 0.28150
vt 0.35559 0.28927
vt 0.35559 0.50318
vt 0.35602 0.51332
vt 0.35602 0.72247
vt 0.35647 0.92943
vt 0.35717 0.94202
vt 0.35729 0.29165
vt 0.35729 0.50080
vt 0.35772 0.51094
vt 0.35772 0.72485
vt 0.35942 0.51332
vt 0.35942 0.72247
vt 0.36027 0.29165
vt 0.36027 0.50080
vt 0.36027 0.51332
vt 0.36027 0.72247
vt 0.36322 0.14075
vt 0.36582 0.93523
vt 0.36984 0.29416
vt 0.36984 0.50332
vt 0.36984 0.51584
vt 0.36984 0.72499
vt 0.37069 0.29416
vt 0.37069 0.50332
vt 0.37069 0.51584
vt 0.37069 0.72499
vt 0.37108 0.14200
vt 0.37108 0.28401
vt 0.37168 0.28402
vt 0.37228 0.14285
vt 0.37229 0.14117
vt 0.37239 0.29179
vt 0.37239 0.50569
vt 0.37239 0.51346
vt 0.37239 0.72737
vt 0.37288 0.14285
vt 0.37289 0.14117
vt 0.37349 0.00000
vt 0.37409 0.00001
vt 0.37409 0.14202
vt 0.37409 0.29416
vt 0.37409 0.50332
vt 0.37409 0.51584
vt 0.37409 0.72499
vt 0.38194 0.00891
vt 0.38194 0.26441
vt 0.38194 0.29001
vt 0.38194 0.54551
vt 0.38194 0.56456
vt 0.38194 0.77372
vt 0.38194 0.78469
vt 0.38194 0.92671
vt 0.38255 0.92671
vt 0.38314 0.78554
vt 0.38316 0.78386
vt 0.38374 0.78554
vt 0.38376 0.78386
vt 0.38492 0.56456
vt 0.38492 0.77372
vt 0.38495 0.78471
vt 0.38662 0.56218
vt 0.38662 0.77609
vt 0.38832 0.56456
vt 0.38832 0.77372
vt 0.39618 0.56456
vt 0.39618 0.77372
vt 0.39916 0.56456
vt 0.39916 0.77372
vt 0.40086 0.56218
vt 0.40086 0.77609
vt 0.40256 0.56456
vt 0.40256 0.77372
vt 0.41042 0.56456
vt 0.41042 0.77372
vt 0.41339 0.56456
vt 0.41339 0.77372
vt 0.41509 0.56218
vt 0.41509 0.77609
vt 0.41679 0.56456
vt 0.41679 0.77372
vt 0.42465 0.56456
vt 0.42465 0.77372
vt 0.42763 0.56456
vt 0.42763 0.77372
vt 0.42933 0.56218
vt 0.42933 0.77609
vt 0.43103 0.56456
vt 0.43103 0.77372
vt 0.43889 0.56456
vt 0.43889 0.77372
vt 0.44187 0.56456
vt 0.44187 0.77372
vt 0.44356 0.56218
vt 0.44356 0.77609
vt 0.44527 0.56456
vt 0.44527 0.77372
vt 0.45312 0.56456
vt 0.45312 0.77372
vt 0.45398 0.56456
vt 0.45398 0.77372
vt 0.45567 0.56218
vt 0.45567 0.77609
vt 0.45738 0.56456
vt 0.45738 0.77372
vt 0.46523 0.56456
vt 0.46523 0.77372
vt 0.46609 0.56456
vt 0.46609 0.77372
vt 0.46779 0.56218
vt 0.46779 0.77609
vt 0.46949 0.56456
vt 0.46949 0.77372
vt 0.47734 0.56456
vt 0.47734 0.77372
vt 0.47819 0.56456
vt 0.47819 0.77372
vt 0.47990 0.56218
vt 0.47990 0.77609
vt 0.48160 0.56456
vt 0.48160 0.77372
vt 0.48945 0.56456
vt 0.48945 0.77372
vt 0.49030 0.56456
vt 0.49030 0.77372
vt 0.49201 0.56218
vt 0.49201 0.77609
vt 0.49371 0.56456
vt 0.49371 0.77372
vt 0.50156 0.56456
vt 0.50156 0.77372
vt 0.50241 0.56456
vt 0.50241 0.77372
vt 0.50411 0.56218
vt 0.50411 0.77609
vt 0.50582 0.56456
vt 0.50582 0.77372
vt 0.51367 0.56456
vt 0.51367 0.77372
vt 0.51538 0.56218
vt 0.51538 0.77609
vt 0.51708 0.56456
vt 0.51708 0.77372
vt 0.51800 0.00891
vt 0.51800 0.26441
vt 0.51800 0.29001
vt 0.51800 0.54551
vt 0.52438 0.00000
vt 0.52438 0.27333
vt 0.52438 0.28109
vt 0.52438 0.55442
vt 0.52650 0.56456
vt 0.52650 0.77372
vt 0.52735 0.56456
vt 0.52735 0.77372
vt 0.52905 0.56218
vt 0.52905 0.77609
vt 0.53075 0.00891
vt 0.53075 0.26441
vt 0.53075 0.29001
vt 0.53075 0.54551
vt 0.53075 0.56456
vt 0.53075 0.77372
vt 0.53861 0.00891
vt 0.53861 0.26441
vt 0.53861 0.29001
vt 0.53861 0.52768
vt 0.53861 0.55327
vt 0.53861 0.77312
vt 0.53861 0.79099
vt 0.53861 0.99064
vt 0.53981 0.78980
vt 0.53981 0.79099
vt 0.53981 0.99064
vt 0.53981 0.99182
vt 0.54499 0.00000
vt 0.54499 0.27333
vt 0.54763 0.28109
vt 0.54763 0.29001
vt 0.54763 0.52768
vt 0.54763 0.53659
vt 0.54763 0.54436
vt 0.54763 0.55327
vt 0.54763 0.77312
vt 0.54763 0.78203
vt 0.55137 0.00891
vt 0.55137 0.26441
vt 0.55922 0.00297
vt 0.55922 0.21094
vt 0.55922 0.23059
vt 0.55922 0.23950
vt 0.55922 0.25915
vt 0.55922 0.26509
vt 0.56135 0.25618
vt 0.56135 0.26806
vt 0.56223 0.00000
vt 0.56223 0.00297
vt 0.56223 0.21094
vt 0.56223 0.21391
vt 0.56348 0.25915
vt 0.56348 0.26509
vt 0.56560 0.22167
vt 0.56560 0.24841
vt 0.57133 0.25702
vt 0.57133 0.26038
vt 0.57198 0.23059
vt 0.57198 0.23950
vt 0.57219 0.25618
vt 0.57303 0.25870
vt 0.57389 0.25786
vt 0.57431 0.26332
vt 0.57559 0.25618
vt 0.57601 0.26164
vt 0.57686 0.26080
vt 0.57771 0.26332
vt 0.57856 0.25912
vt 0.57856 0.26248
vt 0.57984 0.23016
vt 0.57984 0.24108
vt 0.58331 0.22531
vt 0.58642 0.25702
vt 0.58642 0.26038
vt 0.58727 0.25618
vt 0.58812 0.25870
vt 0.58897 0.25786
vt 0.58940 0.26332
vt 0.59025 0.23744
vt 0.59067 0.25618
vt 0.59110 0.26164
vt 0.59195 0.26080
vt 0.59280 0.26332
vt 0.59365 0.25912
vt 0.59365 0.26248
vt 0.59372 0.22167
vt 0.59372 0.23259
vt 0.60151 0.25702
vt 0.60151 0.26038
vt 0.60158 0.22251
vt 0.60158 0.22587
vt 0.60158 0.23952
vt 0.60158 0.24288
vt 0.60236 0.25618
vt 0.60243 0.22167
vt 0.60243 0.24372
vt 0.60321 0.25870
vt 0.60328 0.22419
vt 0.60328 0.24120
vt 0.60406 0.25786
vt 0.60413 0.22335
vt 0.60413 0.24204
vt 0.60448 0.26332
vt 0.60456 0.22882
vt 0.60456 0.23658
vt 0.60576 0.25618
vt 0.60583 0.22167
vt 0.60583 0.24372
vt 0.60618 0.26164
vt 0.60626 0.22714
vt 0.60626 0.23826
vt 0.60703 0.26080
vt 0.60711 0.22629
vt 0.60711 0.23910
vt 0.60788 0.26332
vt 0.60796 0.22882
vt 0.60796 0.23658
vt 0.60874 0.25912
vt 0.60874 0.26248
vt 0.60881 0.22461
vt 0.60881 0.22798
vt 0.60881 0.23742
vt 0.60881 0.24078
vt 0.61659 0.25702
vt 0.61659 0.26038
vt 0.61667 0.22251
vt 0.61667 0.22587
vt 0.61667 0.23952
vt 0.61667 0.24288
vt 0.61744 0.25618
vt 0.61752 0.22167
vt 0.61752 0.24372
vt 0.61829 0.25870
vt 0.61837 0.22419
vt 0.61837 0.24120
vt 0.61914 0.25786
vt 0.61922 0.22335
vt 0.61922 0.24204
vt 0.61957 0.26332
vt 0.61964 0.22882
vt 0.61964 0.23658
vt 0.62084 0.25618
vt 0.62092 0.22167
vt 0.62092 0.24372
vt 0.62127 0.26164
vt 0.62135 0.22714
vt 0.62135 0.23826
vt 0.62212 0.26080
vt 0.62220 0.22629
vt 0.62220 0.23910
vt 0.62297 0.26332
vt 0.62305 0.22882
vt 0.62305 0.23658
vt 0.62382 0.25912
vt 0.62382 0.26248
vt 0.62390 0.22461
vt 0.62390 0.22798
vt 0.62390 0.23742
vt 0.62390 0.24078
vt 0.63168 0.25912
vt 0.63168 0.26248
vt 0.63175 0.22461
vt 0.63175 0.22798
vt 0.63175 0.23952
vt 0.63175 0.24288
vt 0.63253 0.26332
vt 0.63260 0.22882
vt 0.63260 0.24372
vt 0.63338 0.26080
vt 0.63345 0.22629
vt 0.63345 0.24120
vt 0.63423 0.26164
vt 0.63431 0.22714
vt 0.63431 0.24204
vt 0.63465 0.25618
vt 0.63473 0.22167
vt 0.63473 0.23658
vt 0.63593 0.26332
vt 0.63601 0.22882
vt 0.63601 0.24372
vt 0.63636 0.25786
vt 0.63643 0.22335
vt 0.63643 0.23826
vt 0.63721 0.25870
vt 0.63728 0.22419
vt 0.63728 0.23910
vt 0.63806 0.25618
vt 0.63813 0.22167
vt 0.63813 0.23658
vt 0.63891 0.25702
vt 0.63891 0.26038
vt 0.63898 0.22251
vt 0.63898 0.22587
vt 0.63898 0.23742
vt 0.63898 0.24078
vt 0.64677 0.25702
vt 0.64677 0.26038
vt 0.64684 0.22461
vt 0.64684 0.22798
vt 0.64684 0.23742
vt 0.64684 0.24078
vt 0.64762 0.25618
vt 0.64769 0.22882
vt 0.64769 0.23658
vt 0.64847 0.25870
vt 0.64854 0.22629
vt 0.64854 0.23910
vt 0.64932 0.25786
vt 0.64939 0.22714
vt 0.64939 0.23826
vt 0.64974 0.26332
vt 0.64982 0.22167
vt 0.64982 0.24372
vt 0.65102 0.25618
vt 0.65109 0.22882
vt 0.65109 0.23658
vt 0.65144 0.26164
vt 0.65152 0.22335
vt 0.65152 0.24204
vt 0.65229 0.26080
vt 0.65237 0.22419
vt 0.65237 0.24120
vt 0.65314 0.26332
vt 0.65322 0.22167
vt 0.65322 0.24372
vt 0.65399 0.25912
vt 0.65399 0.26248
vt 0.65407 0.22251
vt 0.65407 0.22587
vt 0.65407 0.23952
vt 0.65407 0.24288
vt 0.66185 0.25912
vt 0.66185 0.26248
vt 0.66193 0.22167
vt 0.66193 0.22313
vt 0.66193 0.23952
vt 0.66193 0.24288
vt 0.66227 0.22361
vt 0.66270 0.26332
vt 0.66278 0.24372
vt 0.66331 0.22216
vt 0.66355 0.26080
vt 0.66363 0.24120
vt 0.66366 0.22264
vt 0.66366 0.22410
vt 0.66440 0.26164
vt 0.66448 0.24204
vt 0.66483 0.25618
vt 0.66490 0.23658
vt 0.66610 0.26332
vt 0.66618 0.24372
vt 0.66653 0.25786
vt 0.66660 0.23826
vt 0.66738 0.25870
vt 0.66745 0.23910
vt 0.66823 0.25618
vt 0.66830 0.23658
vt 0.66908 0.25702
vt 0.66908 0.26038
vt 0.66915 0.23742
vt 0.66915 0.24078
vt 0.74184 0.78980
vt 0.74184 0.79099
vt 0.74184 0.99064
vt 0.74184 0.99182
vt 0.74304 0.79099
vt 0.74304 0.99064
vt 0.77010 0.54436
vt 0.77010 0.55327
vt 0.77010 0.77312
vt 0.77010 0.78203
vt 0.77268 0.00000
vt 0.77268 0.00297
vt 0.77268 0.21094
vt 0.77268 0.21391
vt 0.77568 0.00297
vt 0.77568 0.21094
vt 0.77912 0.55327
vt 0.77912 0.77312
vt 0.78354 0.00297
vt 0.78354 0.21094
vt 0.78655 0.00000
vt 0.78655 0.00297
vt 0.78655 0.21094
vt 0.78655 0.21391
vt 0.78698 0.55327
vt 0.78698 0.74341
vt 0.78698 0.76900
vt 0.78698 0.95914
vt 0.78814 0.28109
vt 0.78814 0.29001
vt 0.78814 0.52768
vt 0.78814 0.53659
vt 0.79600 0.54436
vt 0.79600 0.55327
vt 0.79600 0.74341
vt 0.79600 0.75232
vt 0.79600 0.76009
vt 0.79600 0.76900
vt 0.79600 0.95914
vt 0.79600 0.96805
vt 0.79716 0.29001
vt 0.79716 0.52768
vt 0.80502 0.28347
vt 0.80502 0.49262
vt 0.80672 0.28109
vt 0.80672 0.49500
vt 0.80842 0.28347
vt 0.80842 0.49262
vt 0.81628 0.28347
vt 0.81628 0.49262
vt 0.81798 0.28109
vt 0.81798 0.49500
vt 0.81968 0.28347
vt 0.81968 0.49262
vt 0.82754 0.28347
vt 0.82754 0.49262
vt 0.82924 0.28109
vt 0.82924 0.49500
vt 0.83094 0.28347
vt 0.83094 0.49262
vt 0.83880 0.28347
vt 0.83880 0.49262
vt 0.84050 0.28109
vt 0.84050 0.49500
vt 0.84220 0.28347
vt 0.84220 0.49262
vt 0.85006 0.28347
vt 0.85006 0.49262
vt 0.85176 0.28109
vt 0.85176 0.49500
vt 0.85346 0.28347
vt 0.85346 0.49262
vt 0.86132 0.28140
vt 0.86132 0.45599
vt 0.86732 0.28109
vt 0.87000 0.44924
vt 0.87065 0.46183
vt 0.87600 0.44893
vt 0.87665 0.46152
vt 0.88533 0.45477
vt 0.89319 0.28140
vt 0.89319 0.45599
vt 0.89920 0.28109
vt 0.90187 0.44924
vt 0.90253 0.46183
vt 0.90788 0.44893
vt 0.90853 0.46152
vt 0.91721 0.45477
vt 0.92507 0.28158
vt 0.92507 0.44359
vt 0.93373 0.43680
vt 0.93408 0.28109
vt 0.93443 0.44939
vt 0.94273 0.43631
vt 0.94343 0.44890
vt 0.95209 0.44212
vt 0.98841 0.54436
vt 0.98841 0.55327
vt 0.98841 0.74341
vt 0.98841 0.75232
vt 0.98841 0.76009
vt 0.98841 0.76900
vt 0.98841 0.95914
vt 0.98841 0.96805
vt 0.99699 0.00000
vt 0.99699 0.00297
vt 0.99699 0.21094
vt 0.99699 0.21391
vt 0.99743 0.55327
vt 0.99743 0.74341
vt 0.99743 0.76900
vt 0.99743 0.95914
vt 1.00000 0.00297
vt 1.00000 0.21094
s 0
usemtl Showcase_graphite
f 1/384/14 3/383/14 8/643/14
f 1/384/14 8/643/14 7/644/14
f 1/424/6 2/423/6 3/432/6
f 10/180/16 12/181/16 6/161/16
f 10/180/16 6/161/16 5/160/16
f 10/180/3 16/159/3 22/179/3
f 10/180/3 5/160/3 16/159/3
f 10/694/9 11/693/9 12/692/9
f 11/693/17 8/690/17 12/692/17
f 11/693/17 9/691/17 8/690/17
f 11/697/5 20/698/5 9/695/5
f 11/697/5 24/700/5 20/698/5
f 13/385/24 15/372/24 2/371/24
f 13/385/24 2/371/24 1/384/24
f 13/42/10 14/22/10 15/27/10
f 16/1/11 17/21/11 18/20/11
f 16/159/22 18/158/22 23/178/22
f 16/159/22 23/178/22 22/179/22
f 17/21/1 2/41/1 15/27/1
f 17/21/1 4/30/1 2/41/1
f 17/21/23 14/22/23 18/20/23
f 17/21/23 15/27/23 14/22/23
f 19/645/21 14/386/21 13/385/21
f 19/645/21 21/646/21 14/386/21
f 19/645/26 1/384/26 7/644/26
f 19/645/26 13/385/26 1/384/26
f 19/696/12 20/698/12 21/699/12
f 2/423/15 4/425/15 6/440/15
f 2/423/15 6/440/15 3/432/15
f 22/179/19 11/191/19 10/180/19
f 22/179/19 24/190/19 11/191/19
f 22/702/13 23/701/13 24/700/13
f 23/2/2 14/22/2 21/17/2
f 23/2/2 18/20/2 14/22/2
f 23/701/20 20/698/20 24/700/20
f 23/701/20 21/699/20 20/698/20
f 4/425/7 5/439/7 6/440/7
f 5/160/25 17/144/25 16/159/25
f 5/160/25 4/145/25 17/144/25
f 6/689/4 12/692/4 8/690/4
f 6/689/4 8/690/4 3/687/4
f 7/644/18 20/656/18 19/645/18
f 7/644/18 9/655/18 20/656/18
f 7/688/8 8/690/8 9/691/8
usemtl Showcase_porcelain
f 100/588/15 102/594/15 99/597/15
f 100/588/15 99/597/15 98/591/15
f 100/588/44 101/587/44 102/594/44
f 101/379/25 100/376/25 113/375/25
f 101/379/25 113/375/25 112/378/25
f 102/90/4 104/100/4 99/91/4
f 102/90/4 108/96/4 104/100/4
f 103/102/8 104/100/8 105/101/8
f 103/167/18 105/170/18 116/171/18
f 103/167/18 116/171/18 115/168/18
f 105/101/17 104/100/17 108/96/17
f 105/101/17 108/96/17 107/97/17
f 106/617/16 102/380/16 101/379/16
f 106/617/16 108/618/16 102/380/16
f 106/617/3 101/379/3 112/378/3
f 106/617/3 112/378/3 118/616/3
f 106/89/45 107/97/45 108/96/45
f 107/258/5 116/262/5 105/259/5
f 107/258/5 120/260/5 116/262/5
f 109/152/24 111/149/24 98/148/24
f 109/152/24 98/148/24 97/151/24
f 109/246/41 110/242/41 111/243/41
f 111/243/23 110/242/23 114/236/23
f 111/243/23 114/236/23 113/237/23
f 112/233/46 113/237/46 114/236/46
f 112/378/22 114/377/22 119/615/22
f 112/378/22 119/615/22 118/616/22
f 113/237/1 100/244/1 98/245/1
f 113/237/1 98/245/1 111/243/1
f 115/168/21 110/153/21 109/152/21
f 115/168/21 117/169/21 110/153/21
f 115/168/26 109/152/26 97/151/26
f 115/168/26 97/151/26 103/167/26
f 115/266/12 116/262/12 117/263/12
f 117/263/20 116/262/20 120/260/20
f 117/263/20 120/260/20 119/261/20
f 118/257/47 119/261/47 120/260/47
f 118/616/19 107/620/19 106/617/19
f 118/616/19 120/619/19 107/620/19
f 119/234/2 110/242/2 117/235/2
f 119/234/2 114/236/2 110/242/2
f 25/382/27 26/370/27 27/392/27
f 25/652/14 27/651/14 32/715/14
f 25/652/14 32/715/14 31/716/14
f 28/369/15 27/392/15 26/370/15
f 28/369/15 30/391/15 27/392/15
f 28/369/28 29/381/28 30/391/28
f 29/649/25 28/640/25 41/639/25
f 29/649/25 41/639/25 40/648/25
f 30/251/4 32/350/4 27/252/4
f 30/251/4 36/349/4 32/350/4
f 31/354/29 32/350/29 33/364/29
f 31/716/18 33/725/18 44/726/18
f 31/716/18 44/726/18 43/717/18
f 33/364/17 32/350/17 36/349/17
f 33/364/17 36/349/17 35/363/17
f 34/353/9 35/363/9 36/349/9
f 34/713/16 30/650/16 29/649/16
f 34/713/16 36/714/16 30/650/16
f 34/713/3 29/649/3 40/648/3
f 34/713/3 40/648/3 46/712/3
f 35/253/5 44/352/5 33/254/5
f 35/253/5 48/351/5 44/352/5
f 37/143/30 38/155/30 39/156/30
f 37/653/24 26/641/24 25/652/24
f 37/653/24 39/642/24 26/641/24
f 39/156/23 38/155/23 42/204/23
f 39/156/23 42/204/23 41/205/23
f 40/223/11 41/205/11 42/204/11
f 40/648/22 42/647/22 47/711/22
f 40/648/22 47/711/22 46/712/22
f 41/205/1 26/157/1 39/156/1
f 41/205/1 28/206/1 26/157/1
f 43/356/31 44/352/31 45/366/31
f 43/717/21 38/654/21 37/653/21
f 43/717/21 45/718/21 38/654/21
f 43/717/26 25/652/26 31/716/26
f 43/717/26 37/653/26 25/652/26
f 45/366/20 44/352/20 48/351/20
f 45/366/20 48/351/20 47/365/20
f 46/355/13 47/365/13 48/351/13
f 46/712/19 35/724/19 34/713/19
f 46/712/19 48/723/19 35/724/19
f 47/203/2 38/155/2 45/154/2
f 47/203/2 42/204/2 38/155/2
f 97/151/14 104/166/14 103/167/14
f 97/151/14 99/150/14 104/166/14
f 97/598/6 98/591/6 99/597/6
usemtl Showcase_amber
f 49/400/32 50/398/32 51/406/32
f 49/636/14 51/635/14 56/719/14
f 49/636/14 56/719/14 55/720/14
f 52/397/15 51/406/15 50/398/15
f 52/397/15 54/405/15 51/406/15
f 52/397/33 53/399/33 54/405/33
f 53/403/25 52/394/25 65/393/25
f 53/403/25 65/393/25 64/402/25
f 54/138/4 56/122/4 51/121/4
f 54/138/4 60/139/4 56/122/4
f 55/110/34 56/122/34 57/123/34
f 55/720/18 57/727/18 68/728/18
f 55/720/18 68/728/18 67/721/18
f 57/123/17 56/122/17 60/139/17
f 57/123/17 60/139/17 59/140/17
f 58/142/35 59/140/35 60/139/35
f 58/627/16 54/404/16 53/403/16
f 58/627/16 60/628/16 54/404/16
f 58/627/3 53/403/3 64/402/3
f 58/627/3 64/402/3 70/626/3
f 59/70/5 68/57/5 57/56/5
f 59/70/5 72/71/5 68/57/5
f 61/105/10 62/118/10 63/119/10
f 61/637/24 50/633/24 49/636/24
f 61/637/24 63/634/24 50/633/24
f 63/119/23 62/118/23 66/135/23
f 63/119/23 66/135/23 65/136/23
f 64/141/36 65/136/36 66/135/36
f 64/402/22 66/401/22 71/625/22
f 64/402/22 71/625/22 70/626/22
f 65/136/1 50/120/1 63/119/1
f 65/136/1 52/137/1 50/120/1
f 67/51/37 68/57/37 69/58/37
f 67/721/21 62/638/21 61/637/21
f 67/721/21 69/722/21 62/638/21
f 67/721/26 49/636/26 55/720/26
f 67/721/26 61/637/26 49/636/26
f 69/58/20 68/57/20 72/71/20
f 69/58/20 72/71/20 71/72/20
f 70/626/19 59/630/19 58/627/19
f 70/626/19 72/629/19 59/630/19
f 70/73/38 71/72/38 72/71/38
f 71/134/2 62/118/2 69/117/2
f 71/134/2 66/135/2 62/118/2
usemtl Showcase_graphite_metal
f 73/163/14 75/162/14 80/172/14
f 73/163/14 80/172/14 79/173/14
f 73/408/6 74/396/6 75/412/6
f 76/395/15 75/412/15 74/396/15
f 76/395/15 78/411/15 75/412/15
f 76/395/39 77/407/39 78/411/39
f 77/389/25 76/374/25 89/373/25
f 77/389/25 89/373/25 88/388/25
f 78/706/4 80/705/4 75/703/4
f 78/706/4 84/708/4 80/705/4
f 79/173/18 81/176/18 92/177/18
f 79/173/18 92/177/18 91/174/18
f 79/704/8 80/705/8 81/707/8
f 81/707/17 80/705/17 84/708/17
f 81/707/17 84/708/17 83/709/17
f 82/623/16 78/390/16 77/389/16
f 82/623/16 84/624/16 78/390/16
f 82/623/3 77/389/3 88/388/3
f 82/623/3 88/388/3 94/622/3
f 82/710/40 83/709/40 84/708/40
f 83/195/5 92/194/5 81/184/5
f 83/195/5 96/211/5 92/194/5
f 85/104/41 86/78/41 87/84/41
f 85/164/24 74/146/24 73/163/24
f 85/164/24 87/147/24 74/146/24
f 87/84/23 86/78/23 90/67/23
f 87/84/23 90/67/23 89/69/23
f 88/388/22 90/387/22 95/621/22
f 88/388/22 95/621/22 94/622/22
f 88/43/42 89/69/42 90/67/42
f 89/69/1 74/103/1 87/84/1
f 89/69/1 76/79/1 74/103/1
f 91/174/21 86/165/21 85/164/21
f 91/174/21 93/175/21 86/165/21
f 91/174/26 73/163/26 79/173/26
f 91/174/26 85/164/26 73/163/26
f 91/185/12 92/194/12 93/196/12
f 93/196/20 92/194/20 96/211/20
f 93/196/20 96/211/20 95/212/20
f 94/224/43 95/212/43 96/211/43
f 94/622/19 83/632/19 82/623/19
f 94/622/19 96/631/19 83/632/19
f 95/44/2 86/78/2 93/68/2
f 95/44/2 90/67/2 86/78/2
usemtl Showcase_steel
f 121/10/48 122/6/48 123/14/48
f 121/501/14 123/508/14 128/504/14
f 121/501/14 128/504/14 127/498/14
f 124/5/15 123/14/15 122/6/15
f 124/5/15 126/13/15 123/14/15
f 124/5/49 125/9/49 126/13/49
f 125/452/25 124/445/25 137/458/25
f 125/452/25 137/458/25 136/464/25
f 126/319/4 128/322/4 123/320/4
f 126/319/4 132/321/4 128/322/4
f 127/324/50 128/322/50 129/326/50
f 127/498/18 129/492/18 140/478/18
f 127/498/18 140/478/18 139/486/18
f 129/326/17 128/322/17 132/321/17
f 129/326/17 132/321/17 131/325/17
f 130/323/51 131/325/51 132/321/51
f 130/455/16 126/446/16 125/452/16
f 130/455/16 132/449/16 126/446/16
f 130/455/3 125/452/3 136/464/3
f 130/455/3 136/464/3 142/467/3
f 131/271/5 140/274/5 129/272/5
f 131/271/5 144/273/5 140/274/5
f 133/208/52 134/202/52 135/214/52
f 133/489/24 122/507/24 121/501/24
f 133/489/24 135/495/24 122/507/24
f 135/214/23 134/202/23 138/201/23
f 135/214/23 138/201/23 137/213/23
f 136/207/53 137/213/53 138/201/53
f 136/464/22 138/470/22 143/475/22
f 136/464/22 143/475/22 142/467/22
f 137/213/1 122/220/1 135/214/1
f 137/213/1 124/219/1 122/220/1
f 139/276/54 140/274/54 141/278/54
f 139/486/21 134/483/21 133/489/21
f 139/486/21 141/477/21 134/483/21
f 139/486/26 121/501/26 127/498/26
f 139/486/26 133/489/26 121/501/26
f 141/278/20 140/274/20 144/273/20
f 141/278/20 144/273/20 143/277/20
f 142/275/55 143/277/55 144/273/55
f 142/467/19 131/461/19 130/455/19
f 142/467/19 144/476/19 131/461/19
f 143/197/2 134/202/2 141/198/2
f 143/197/2 138/201/2 134/202/2
f 145/500/14 147/506/14 152/511/14
f 145/500/14 152/511/14 151/503/14
f 145/660/48 146/658/48 147/662/48
f 148/657/15 147/662/15 146/658/15
f 148/657/15 150/661/15 147/662/15
f 148/657/49 149/659/49 150/661/49
f 149/490/25 148/496/25 161/509/25
f 149/490/25 161/509/25 160/502/25
f 150/335/4 152/338/4 147/336/4
f 150/335/4 156/337/4 152/338/4
f 151/340/50 152/338/50 153/342/50
f 151/503/18 153/512/18 164/497/18
f 151/503/18 164/497/18 163/491/18
f 153/342/17 152/338/17 156/337/17
f 153/342/17 156/337/17 155/341/17
f 154/339/51 155/341/51 156/337/51
f 154/487/16 150/484/16 149/490/16
f 154/487/16 156/479/16 150/484/16
f 154/487/3 149/490/3 160/502/3
f 154/487/3 160/502/3 166/499/3
f 155/182/5 164/187/5 153/183/5
f 155/182/5 168/186/5 164/187/5
f 157/488/24 146/494/24 145/500/24
f 157/488/24 159/481/24 146/494/24
f 157/53/52 158/48/52 159/60/52
f 159/60/23 158/48/23 162/47/23
f 159/60/23 162/47/23 161/59/23
f 160/502/22 162/510/22 167/505/22
f 160/502/22 167/505/22 166/499/22
f 160/52/53 161/59/53 162/47/53
f 161/59/1 146/64/1 159/60/1
f 161/59/1 148/63/1 146/64/1
f 163/189/54 164/187/54 165/193/54
f 163/491/21 158/482/21 157/488/21
f 163/491/21 165/485/21 158/482/21
f 163/491/26 145/500/26 151/503/26
f 163/491/26 157/488/26 145/500/26
f 165/193/20 164/187/20 168/186/20
f 165/193/20 168/186/20 167/192/20
f 166/188/55 167/192/55 168/186/55
f 166/499/19 155/480/19 154/487/19
f 166/499/19 168/493/19 155/480/19
f 167/45/2 158/48/2 165/46/2
f 167/45/2 162/47/2 158/48/2
f 169/216/56 170/210/56 171/218/56
f 169/414/24 171/409/24 176/413/24
f 169/414/24 176/413/24 175/415/24
f 172/209/11 173/215/11 174/217/11
f 172/209/23 171/218/23 170/210/23
f 172/209/23 174/217/23 171/218/23
f 173/537/22 172/544/22 185/531/22
f 173/537/22 185/531/22 184/525/22
f 174/217/1 176/222/1 171/218/1
f 174/217/1 180/221/1 176/222/1
f 175/415/14 177/417/14 188/421/14
f 175/415/14 188/421/14 187/419/14
f 175/666/57 176/664/57 177/668/57
f 177/668/15 176/664/15 180/663/15
f 177/668/15 180/663/15 179/667/15
f 178/534/25 174/543/25 173/537/25
f 178/534/25 180/540/25 174/543/25
f 178/534/3 173/537/3 184/525/3
f 178/534/3 184/525/3 190/522/3
f 178/665/28 179/667/28 180/663/28
f 179/279/4 188/282/4 177/280/4
f 179/279/4 192/281/4 188/282/4
f 181/239/58 182/230/58 183/248/58
f 181/418/21 170/410/21 169/414/21
f 181/418/21 183/416/21 170/410/21
f 183/248/20 182/230/20 186/229/20
f 183/248/20 186/229/20 185/247/20
f 184/238/13 185/247/13 186/229/13
f 184/525/19 186/519/19 191/514/19
f 184/525/19 191/514/19 190/522/19
f 185/199/2 170/210/2 183/200/2
f 185/199/2 172/209/2 170/210/2
f 187/284/59 188/282/59 189/286/59
f 187/419/18 182/420/18 181/418/18
f 187/419/18 189/422/18 182/420/18
f 187/419/26 169/414/26 175/415/26
f 187/419/26 181/418/26 169/414/26
f 189/286/17 188/282/17 192/281/17
f 189/286/17 192/281/17 191/285/17
f 190/283/9 191/285/9 192/281/9
f 190/522/16 179/528/16 178/534/16
f 190/522/16 192/513/16 179/528/16
f 191/225/5 182/230/5 189/226/5
f 191/225/5 186/229/5 182/230/5
f 193/536/24 195/542/24 200/547/24
f 193/536/24 200/547/24 199/539/24
f 193/86/56 194/81/56 195/93/56
f 196/80/11 197/85/11 198/92/11
f 196/80/23 195/93/23 194/81/23
f 196/80/23 198/92/23 195/93/23
f 197/430/22 196/433/22 209/437/22
f 197/430/22 209/437/22 208/435/22
f 198/92/1 200/99/1 195/93/1
f 198/92/1 204/98/1 200/99/1
f 199/539/14 201/548/14 212/533/14
f 199/539/14 212/533/14 211/527/14
f 199/672/57 200/670/57 201/674/57
f 201/674/15 200/670/15 204/669/15
f 201/674/15 204/669/15 203/673/15
f 202/429/25 198/428/25 197/430/25
f 202/429/25 204/426/25 198/428/25
f 202/429/3 197/430/3 208/435/3
f 202/429/3 208/435/3 214/434/3
f 202/671/28 203/673/28 204/669/28
f 203/76/4 212/83/4 201/77/4
f 203/76/4 216/82/4 212/83/4
f 205/241/58 206/232/58 207/250/58
f 205/524/21 194/530/21 193/536/21
f 205/524/21 207/517/21 194/530/21
f 207/250/20 206/232/20 210/231/20
f 207/250/20 210/231/20 209/249/20
f 208/240/13 209/249/13 210/231/13
f 208/435/19 210/438/19 215/436/19
f 208/435/19 215/436/19 214/434/19
f 209/74/2 194/81/2 207/75/2
f 209/74/2 196/80/2 194/81/2
f 211/527/18 206/518/18 205/524/18
f 211/527/18 213/521/18 206/518/18
f 211/527/26 193/536/26 199/539/26
f 211/527/26 205/524/26 193/536/26
f 211/88/59 212/83/59 213/95/59
f 213/95/17 212/83/17 216/82/17
f 213/95/17 216/82/17 215/94/17
f 214/434/16 203/427/16 202/429/16
f 214/434/16 216/431/16 203/427/16
f 214/87/9 215/94/9 216/82/9
f 215/227/5 206/232/5 213/228/5
f 215/227/5 210/231/5 206/232/5
f 217/292/54 218/290/54 219/294/54
f 217/558/21 219/549/21 224/555/21
f 217/558/21 224/555/21 223/561/21
f 220/289/20 219/294/20 218/290/20
f 220/289/20 222/293/20 219/294/20
f 220/289/55 221/291/55 222/293/55
f 221/538/19 220/546/19 233/532/19
f 221/538/19 233/532/19 232/526/19
f 222/3/2 224/8/2 219/4/2
f 222/3/2 228/7/2 224/8/2
f 223/12/52 224/8/52 225/16/52
f 223/561/24 225/567/24 236/579/24
f 223/561/24 236/579/24 235/573/24
f 225/16/23 224/8/23 228/7/23
f 225/16/23 228/7/23 227/15/23
f 226/11/53 227/15/53 228/7/53
f 226/535/22 222/545/22 221/538/22
f 226/535/22 228/541/22 222/545/22
f 226/535/3 221/538/3 232/526/3
f 226/535/3 232/526/3 238/523/3
f 227/15/1 236/19/1 225/16/1
f 227/15/1 240/18/1 236/19/1
f 229/308/50 230/306/50 231/310/50
f 229/570/18 218/550/18 217/558/18
f 229/570/18 231/564/18 218/550/18
f 231/310/17 230/306/17 234/305/17
f 231/310/17 234/305/17 233/309/17
f 232/307/51 233/309/51 234/305/51
f 232/526/16 234/520/16 239/516/16
f 232/526/16 239/516/16 238/523/16
f 233/287/5 218/290/5 231/288/5
f 233/287/5 220/289/5 218/290/5
f 235/573/14 230/576/14 229/570/14
f 235/573/14 237/580/14 230/576/14
f 235/573/26 217/558/26 223/561/26
f 235/573/26 229/570/26 217/558/26
f 235/678/48 236/676/48 237/680/48
f 237/680/15 236/676/15 240/675/15
f 237/680/15 240/675/15 239/679/15
f 238/523/25 227/529/25 226/535/25
f 238/523/25 240/515/25 227/529/25
f 238/677/49 239/679/49 240/675/49
f 239/303/4 230/306/4 237/304/4
f 239/303/4 234/305/4 230/306/4
f 241/562/21 243/556/21 248/552/21
f 241/562/21 248/552/21 247/559/21
f 241/62/54 242/55/54 243/66/54
f 244/54/20 243/66/20 242/55/20
f 244/54/20 246/65/20 243/66/20
f 244/54/55 245/61/55 246/65/55
f 245/572/19 244/566/19 257/554/19
f 245/572/19 257/554/19 256/560/19
f 246/108/2 248/112/2 243/109/2
f 246/108/2 252/111/2 248/112/2
f 247/114/52 248/112/52 249/125/52
f 247/559/24 249/551/24 260/565/24
f 247/559/24 260/565/24 259/571/24
f 249/125/23 248/112/23 252/111/23
f 249/125/23 252/111/23 251/124/23
f 250/113/53 251/124/53 252/111/53
f 250/575/22 246/578/22 245/572/22
f 250/575/22 252/584/22 246/578/22
f 250/575/3 245/572/3 256/560/3
f 250/575/3 256/560/3 262/563/3
f 251/124/1 260/133/1 249/125/1
f 251/124/1 264/132/1 260/133/1
f 253/316/50 254/314/50 255/318/50
f 253/574/18 242/568/18 241/562/18
f 253/574/18 255/582/18 242/568/18
f 255/318/17 254/314/17 258/313/17
f 255/318/17 258/313/17 257/317/17
f 256/315/51 257/317/51 258/313/51
f 256/560/16 258/553/16 263/557/16
f 256/560/16 263/557/16 262/563/16
f 257/49/5 242/55/5 255/50/5
f 257/49/5 244/54/5 242/55/5
f 259/346/48 260/344/48 261/348/48
f 259/571/14 254/581/14 253/574/14
f 259/571/14 261/577/14 254/581/14
f 259/571/26 241/562/26 247/559/26
f 259/571/26 253/574/26 241/562/26
f 261/348/15 260/344/15 264/343/15
f 261/348/15 264/343/15 263/347/15
f 262/345/49 263/347/49 264/343/49
f 262/563/25 251/583/25 250/575/25
f 262/563/25 264/569/25 251/583/25
f 263/311/4 254/314/4 261/312/4
f 263/311/4 258/313/4 254/314/4
f 265/300/59 266/298/59 267/302/59
f 265/465/18 267/472/18 272/468/18
f 265/465/18 272/468/18 271/462/18
f 268/297/17 267/302/17 266/298/17
f 268/297/17 270/301/17 267/302/17
f 268/297/9 269/299/9 270/301/9
f 269/595/16 268/585/16 281/601/16
f 269/595/16 281/601/16 280/605/16
f 270/327/5 272/330/5 267/328/5
f 270/327/5 276/329/5 272/330/5
f 271/332/58 272/330/58 273/334/58
f 271/462/21 273/456/21 284/442/21
f 271/462/21 284/442/21 283/450/21
f 273/334/20 272/330/20 276/329/20
f 273/334/20 276/329/20 275/333/20
f 274/331/13 275/333/13 276/329/13
f 274/599/19 270/586/19 269/595/19
f 274/599/19 276/592/19 270/586/19
f 274/599/3 269/595/3 280/605/3
f 274/599/3 280/605/3 286/607/3
f 275/23/2 284/32/2 273/24/2
f 275/23/2 288/31/2 284/32/2
f 277/29/57 278/26/57 279/34/57
f 277/453/14 266/471/14 265/465/14
f 277/453/14 279/459/14 266/471/14
f 279/34/15 278/26/15 282/25/15
f 279/34/15 282/25/15 281/33/15
f 280/28/28 281/33/28 282/25/28
f 280/605/25 282/609/25 287/611/25
f 280/605/25 287/611/25 286/607/25
f 281/295/4 266/298/4 279/296/4
f 281/295/4 268/297/4 266/298/4
f 283/36/56 284/32/56 285/38/56
f 283/450/24 278/447/24 277/453/24
f 283/450/24 285/441/24 278/447/24
f 283/450/26 265/465/26 271/462/26
f 283/450/26 277/453/26 265/465/26
f 285/38/23 284/32/23 288/31/23
f 285/38/23 288/31/23 287/37/23
f 286/35/11 287/37/11 288/31/11
f 286/607/22 275/603/22 274/599/22
f 286/607/22 288/612/22 275/603/22
f 287/37/1 278/40/1 285/38/1
f 287/37/1 282/39/1 278/40/1
f 289/268/59 290/265/59 291/270/59
f 289/600/18 291/593/18 296/590/18
f 289/600/18 296/590/18 295/596/18
f 292/264/17 291/270/17 290/265/17
f 292/264/17 294/269/17 291/270/17
f 292/264/9 293/267/9 294/269/9
f 293/463/16 292/457/16 305/444/16
f 293/463/16 305/444/16 304/451/16
f 294/357/5 296/360/5 291/358/5
f 294/357/5 300/359/5 296/360/5
f 295/362/58 296/360/58 297/368/58
f 295/596/21 297/589/21 308/602/21
f 295/596/21 308/602/21 307/606/21
f 297/368/20 296/360/20 300/359/20
f 297/368/20 300/359/20 299/367/20
f 298/361/13 299/367/13 300/359/13
f 298/466/19 294/469/19 293/463/19
f 298/466/19 300/474/19 294/469/19
f 298/466/3 293/463/3 304/451/3
f 298/466/3 304/451/3 310/454/3
f 299/106/2 308/116/2 297/107/2
f 299/106/2 312/115/2 308/116/2
f 301/608/14 290/604/14 289/600/14
f 301/608/14 303/614/14 290/604/14
f 301/684/57 302/682/57 303/686/57
f 303/686/15 302/682/15 306/681/15
f 303/686/15 306/681/15 305/685/15
f 304/451/25 306/443/25 311/448/25
f 304/451/25 311/448/25 310/454/25
f 304/683/28 305/685/28 306/681/28
f 305/255/4 290/265/4 303/256/4
f 305/255/4 292/264/4 290/265/4
f 307/127/56 308/116/56 309/129/56
f 307/606/24 302/613/24 301/608/24
f 307/606/24 309/610/24 302/613/24
f 307/606/26 289/600/26 295/596/26
f 307/606/26 301/608/26 289/600/26
f 309/129/23 308/116/23 312/115/23
f 309/129/23 312/115/23 311/128/23
f 310/126/11 311/128/11 312/115/11
f 310/454/22 299/473/22 298/466/22
f 310/454/22 312/460/22 299/473/22
f 311/128/1 302/131/1 309/129/1
f 311/128/1 306/130/1 302/131/1
