# Blender 4.0.2
# www.blender.org
mtllib display_pedestal_lod1.mtl
o display_pedestal_lod1
v 0.400000 0.000000 -0.400000
v 0.399919 0.038421 -0.433158
v 0.400000 0.080000 -0.400000
v 0.433158 0.041579 -0.399919
v 0.400000 0.000000 0.400000
v 0.433158 0.038421 0.399919
v 0.400000 0.080000 0.400000
v 0.399919 0.041579 0.433158
v -0.400000 0.000000 -0.400000
v -0.433158 0.038421 -0.399919
v -0.400000 0.080000 -0.400000
v -0.399919 0.041579 -0.433158
v -0.400000 0.000000 0.400000
v -0.399919 0.038421 0.433158
v -0.400000 0.080000 0.400000
v -0.433158 0.041579 0.399919
v 0.320000 0.080000 -0.320000
v 0.320000 0.110000 -0.350000
v 0.350000 0.110000 -0.320000
v 0.326613 0.986935 -0.338548
v 0.350000 0.970000 -0.320000
v 0.350000 0.110000 0.320000
v 0.326613 0.093065 0.338548
v 0.320000 1.000000 0.320000
v 0.320000 0.970000 0.350000
v 0.350000 0.970000 0.320000
v -0.350000 0.110000 -0.320000
v -0.326613 0.093065 -0.338548
v -0.320000 1.000000 -0.320000
v -0.320000 0.970000 -0.350000
v -0.350000 0.970000 -0.320000
v -0.320000 0.080000 0.320000
v -0.320000 0.110000 0.350000
v -0.350000 0.110000 0.320000
v -0.350000 0.970000 0.320000
v -0.326613 0.986935 0.338548
v 0.354167 0.904167 -0.355833
v 0.356154 0.934615 -0.354615
v 0.356154 0.905385 0.354615
v 0.354167 0.935833 0.355833
v -0.356154 0.905385 -0.354615
v -0.354167 0.935833 -0.355833
v -0.354167 0.904167 0.355833
v -0.356154 0.934615 0.354615
v 0.370000 1.000000 -0.370000
v 0.369879 1.042632 -0.404737
v 0.370000 1.090000 -0.370000
v 0.404737 1.047368 -0.369879
v 0.370000 1.000000 0.370000
v 0.404737 1.042632 0.369879
v 0.370000 1.090000 0.370000
v 0.369879 1.047368 0.404737
v -0.370000 1.000000 -0.370000
v -0.404737 1.042632 -0.369879
v -0.370000 1.090000 -0.370000
v -0.369879 1.047368 -0.404737
v -0.370000 1.000000 0.370000
v -0.369879 1.042632 0.404737
v -0.370000 1.090000 0.370000
v -0.404737 1.047368 0.369879
v 0.339063 1.094545 -0.339063
v 0.339063 1.095455 0.339063
v -0.339063 1.095455 -0.339063
v -0.339063 1.094545 0.339063
v -0.353895 0.821943 -0.212211
v -0.342203 0.112203 -0.200000
v -0.353895 0.118057 -0.187789
v -0.342203 0.827798 -0.200000
v -0.356105 0.118057 -0.212211
v -0.367797 0.827798 -0.200000
v -0.367797 0.112203 -0.200000
v -0.356105 0.821943 -0.187789
v -0.353895 0.821943 0.187789
v -0.342203 0.112203 0.200000
v -0.353895 0.118057 0.212211
v -0.342203 0.827798 0.200000
v -0.356105 0.118057 0.187789
v -0.367797 0.827798 0.200000
v -0.367797 0.112203 0.200000
v -0.356105 0.821943 0.212211
v -0.212211 0.821943 0.353895
v -0.200000 0.112203 0.342203
v -0.187789 0.118057 0.353895
v -0.200000 0.827798 0.342203
v -0.212211 0.118057 0.356105
v -0.200000 0.827798 0.367797
v -0.200000 0.112203 0.367797
v -0.187789 0.821943 0.356105
v 0.187789 0.821943 0.353895
v 0.200000 0.112203 0.342203
v 0.212211 0.118057 0.353895
v 0.200000 0.827798 0.342203
v 0.187789 0.118057 0.356105
v 0.200000 0.827798 0.367797
v 0.200000 0.112203 0.367797
v 0.212211 0.821943 0.356105
v 0.353895 0.821943 0.212211
v 0.342203 0.112203 0.200000
v 0.353895 0.118057 0.187789
v 0.342203 0.827798 0.200000
v 0.356105 0.118057 0.212211
v 0.367797 0.827798 0.200000
v 0.367797 0.112203 0.200000
v 0.356105 0.821943 0.187789
v 0.353895 0.821943 -0.187789
v 0.342203 0.112203 -0.200000
v 0.353895 0.118057 -0.212211
v 0.342203 0.827798 -0.200000
v 0.356105 0.118057 -0.187789
v 0.367797 0.827798 -0.200000
v 0.367797 0.112203 -0.200000
v 0.356105 0.821943 -0.212211
v 0.212211 0.821943 -0.353895
v 0.200000 0.112203 -0.342203
v 0.187789 0.118057 -0.353895
v 0.200000 0.827798 -0.342203
v 0.212211 0.118057 -0.356105
v 0.200000 0.827798 -0.367797
v 0.200000 0.112203 -0.367797
v 0.187789 0.821943 -0.356105
v -0.187789 0.821943 -0.353895
v -0.200000 0.112203 -0.342203
v -0.212211 0.118057 -0.353895
v -0.200000 0.827798 -0.342203
v -0.187789 0.118057 -0.356105
v -0.200000 0.827798 -0.367797
v -0.200000 0.112203 -0.367797
v -0.212211 0.821943 -0.356105
vn 0.6340 -0.5045 -0.5861
vn 0.5861 0.5045 -0.6340
vn 0.5861 -0.5045 0.6340
vn 0.6340 0.5045 0.5861
vn -0.5861 -0.5045 -0.6340
vn -0.6340 0.5045 -0.5861
vn -0.6340 -0.5045 0.5861
vn -0.5861 0.5045 0.6340
vn 0.5774 -0.5773 -0.5773
vn 0.5773 0.5774 0.5774
vn -0.0000 1.0000 -0.0000
vn -0.5773 0.5774 -0.5774
vn -0.5774 -0.5773 0.5773
vn -0.0060 -0.7071 0.7071
vn 0.0060 0.7071 0.7071
vn 0.0060 -0.7071 -0.7071
vn -0.0060 0.7071 -0.7071
vn 0.6529 -0.4773 -0.5881
vn 0.5881 0.4773 -0.6529
vn 0.5881 -0.4773 0.6529
vn 0.6529 0.4773 0.5881
vn -0.5881 -0.4773 -0.6529
vn -0.6529 0.4773 -0.5881
vn -0.6529 -0.4773 0.5881
vn -0.5881 0.4773 0.6529
vn -0.0000 -0.9017 0.4323
vn -0.0000 0.9017 0.4323
vn -0.0000 -0.9017 -0.4323
vn -0.0000 0.9017 -0.4323
vn 0.4323 -0.9017 -0.0000
vn 0.4323 0.9017 -0.0000
vn -0.4323 -0.9017 -0.0000
vn -0.4323 0.9017 -0.0000
vn 0.7818 -0.6235 -0.0025
vn 0.7818 0.6235 0.0025
vn 0.0025 -0.6235 0.7818
vn -0.0025 0.6235 0.7818
vn -0.7818 -0.6235 0.0025
vn -0.7818 0.6235 -0.0025
vn -0.0025 -0.6235 -0.7818
vn 0.0025 0.6235 -0.7818
vn -0.0000 -1.0000 -0.0000
vn 0.0174 0.0129 -0.9998
vn -1.0000 -0.0000 -0.0000
vn 0.0196 0.9996 -0.0196
vn 1.0000 -0.0000 -0.0000
vn -0.0174 0.0129 0.9998
vn 0.7071 -0.7071 -0.0000
vn 0.7071 -0.0000 -0.7071
vn 0.7071 0.7071 -0.0000
vn 0.7071 -0.0000 0.7071
vn -0.6238 0.0055 0.7815
vn -0.7071 -0.7071 -0.0000
vn -0.7071 0.7071 -0.0000
vn -0.7071 -0.0000 -0.7071
vn -0.0196 -0.9996 -0.0196
vn 0.0018 0.0399 -0.9992
vn -0.9979 0.0650 -0.0027
vn 0.0017 1.0000 -0.0017
vn 0.9979 0.0650 0.0027
vn -0.0018 0.0399 0.9992
vn -0.0017 -1.0000 -0.0017
vn 0.8064 -0.5914 -0.0038
vn 0.8064 0.5914 0.0038
vn 0.0038 -0.5914 0.8064
vn -0.0038 0.5914 0.8064
vn -0.8064 -0.5914 0.0038
vn -0.8064 0.5914 -0.0038
vn -0.0038 -0.5914 -0.8064
vn 0.0038 0.5914 -0.8064
vn 0.0013 1.0000 0.0013
vn -0.0013 -1.0000 0.0013
vn 0.7223 -0.0000 -0.6916
vn 0.7223 -0.0000 0.6916
vn -0.6594 -0.0021 0.7518
vn -0.7223 -0.0000 -0.6916
vn -0.6916 -0.0000 -0.7223
vn 0.6916 -0.0000 -0.7223
vn 0.7518 -0.0021 0.6594
vn -0.6916 -0.0000 0.7223
vn -0.7223 -0.0000 0.6916
vn 0.6594 -0.0021 -0.7518
vn 0.6916 -0.0000 0.7223
vn -0.7518 -0.0021 -0.6594
vn 0.7571 -0.6534 -0.0000
vn 0.7571 0.6533 -0.0000
vn -0.0000 -0.6533 0.7571
vn -0.0000 0.6533 0.7571
vn -0.7571 -0.6534 -0.0000
vn -0.7571 0.6533 -0.0000
vn -0.0000 -0.6533 -0.7571
vn -0.0000 0.6533 -0.7571
vn -0.0174 -0.0129 -0.9998
vn -0.0196 0.9996 0.0196
vn 0.0174 -0.0129 0.9998
vn 0.5917 -0.8061 0.0101
vn 0.6238 0.0055 -0.7815
vn 0.5917 0.8061 -0.0101
vn 0.6238 -0.0055 0.7815
vn -0.7071 -0.0000 0.7071
vn -0.5917 -0.8061 -0.0101
vn -0.5917 0.8061 0.0101
vn -0.6238 -0.0055 -0.7815
vn 0.0196 -0.9996 0.0196
vn -0.0018 -0.0399 -0.9992
vn -0.9979 -0.0650 0.0027
vn -0.0017 1.0000 0.0017
vn 0.9979 -0.0650 -0.0027
vn 0.0018 -0.0399 0.9992
vn 0.0017 -1.0000 0.0017
vn 0.7752 -0.6317 -0.0000
vn 0.7752 0.6317 -0.0000
vn -0.0000 -0.6317 0.7752
vn -0.0000 0.6317 0.7752
vn -0.7752 -0.6317 -0.0000
vn -0.7752 0.6317 -0.0000
vn -0.0000 -0.6317 -0.7752
vn -0.0000 0.6317 -0.7752
vn -0.0013 1.0000 -0.0013
vn 0.0013 -1.0000 -0.0013
vn 0.6594 0.0021 0.7518
vn -0.6594 0.0021 -0.7518
vn 0.7518 0.0021 -0.6594
vn -0.7518 0.0021 0.6594
vt 0.00000 0.17368
vt 0.00000 0.58039
vt 0.00000 0.78955
vt 0.00145 0.56906
vt 0.00152 0.35753
vt 0.00255 0.57920
vt 0.00255 0.79073
vt 0.00551 0.56787
vt 0.00598 0.35872
vt 0.01186 0.16797
vt 0.01216 0.18061
vt 0.01594 0.57920
vt 0.01594 0.79073
vt 0.01634 0.56787
vt 0.01681 0.35872
vt 0.01849 0.58039
vt 0.01849 0.78955
vt 0.02079 0.56906
vt 0.02086 0.35753
vt 0.02402 0.17489
vt 0.03188 0.16102
vt 0.03333 0.54400
vt 0.03340 0.33247
vt 0.03398 0.76449
vt 0.03445 0.55534
vt 0.03574 0.77463
vt 0.03574 0.92333
vt 0.03738 0.54282
vt 0.03785 0.33366
vt 0.03825 0.55415
vt 0.03825 0.76568
vt 0.04175 0.77463
vt 0.04267 0.92381
vt 0.04503 0.15543
vt 0.04575 0.16809
vt 0.04822 0.54282
vt 0.04822 0.76449
vt 0.04869 0.33366
vt 0.04869 0.55534
vt 0.05249 0.55415
vt 0.05249 0.76568
vt 0.05267 0.54400
vt 0.05274 0.33247
vt 0.05889 0.16250
vt 0.06801 0.51761
vt 0.06821 0.74047
vt 0.06827 0.52894
vt 0.06848 0.30845
vt 0.06884 0.14913
vt 0.06884 0.89855
vt 0.06976 0.00000
vt 0.06976 0.29831
vt 0.06976 0.74942
vt 0.07226 0.73928
vt 0.07246 0.51879
vt 0.07253 0.30726
vt 0.07273 0.53012
vt 0.07577 0.00000
vt 0.07577 0.14961
vt 0.07577 0.29831
vt 0.07577 0.74942
vt 0.07577 0.89903
vt 0.08664 0.29818
vt 0.08664 0.53586
vt 0.08664 0.56145
vt 0.08664 0.78130
vt 0.08722 0.99922
vt 0.08744 0.79859
vt 0.09139 0.14407
vt 0.09566 0.00000
vt 0.09566 0.13445
vt 0.09566 0.28150
vt 0.09566 0.28927
vt 0.09566 0.29818
vt 0.09566 0.53586
vt 0.09566 0.54477
vt 0.09566 0.55253
vt 0.09566 0.56145
vt 0.09566 0.78130
vt 0.09566 0.79021
vt 0.29027 0.99939
vt 0.29049 0.79875
vt 0.31813 0.55253
vt 0.31813 0.56145
vt 0.31813 0.78130
vt 0.31813 0.79021
vt 0.32715 0.56145
vt 0.32715 0.78130
vt 0.33616 0.28927
vt 0.33616 0.29818
vt 0.33616 0.53586
vt 0.33616 0.54477
vt 0.33881 0.93670
vt 0.34006 0.76407
vt 0.34053 0.55491
vt 0.34433 0.55372
vt 0.34433 0.76525
vt 0.34518 0.29818
vt 0.34518 0.53586
vt 0.35125 0.92971
vt 0.35338 0.94222
vt 0.35420 0.00000
vt 0.35420 0.13445
vt 0.35420 0.14705
vt 0.35420 0.28150
vt 0.35430 0.72247
vt 0.35450 0.50199
vt 0.35456 0.29046
vt 0.35476 0.51332
vt 0.35855 0.50080
vt 0.35875 0.72366
vt 0.35882 0.51213
vt 0.35902 0.29165
vt 0.36322 0.14075
vt 0.36582 0.93523
vt 0.37129 0.50450
vt 0.37129 0.72618
vt 0.37136 0.29297
vt 0.37136 0.51465
vt 0.37409 0.29416
vt 0.37409 0.50332
vt 0.37409 0.51584
vt 0.37409 0.72499
vt 0.38194 0.00891
vt 0.38194 0.26441
vt 0.38194 0.29001
vt 0.38194 0.54551
vt 0.38320 0.77372
vt 0.38367 0.56456
vt 0.38747 0.56337
vt 0.38747 0.77490
vt 0.39743 0.77372
vt 0.39790 0.56456
vt 0.40171 0.56337
vt 0.40171 0.77490
vt 0.41167 0.77372
vt 0.41214 0.56456
vt 0.41594 0.56337
vt 0.41594 0.77490
vt 0.42591 0.77372
vt 0.42638 0.56456
vt 0.43018 0.56337
vt 0.43018 0.77490
vt 0.44014 0.77372
vt 0.44061 0.56456
vt 0.44442 0.56337
vt 0.44442 0.77490
vt 0.45458 0.77490
vt 0.45465 0.56337
vt 0.45738 0.56456
vt 0.45738 0.77372
vt 0.46669 0.77490
vt 0.46676 0.56337
vt 0.46949 0.56456
vt 0.46949 0.77372
vt 0.47880 0.77490
vt 0.47887 0.56337
vt 0.48160 0.56456
vt 0.48160 0.77372
vt 0.49091 0.77490
vt 0.49098 0.56337
vt 0.49371 0.56456
vt 0.49371 0.77372
vt 0.50302 0.77490
vt 0.50309 0.56337
vt 0.50582 0.56456
vt 0.50582 0.77372
vt 0.51367 0.56456
vt 0.51367 0.77372
vt 0.51623 0.56337
vt 0.51623 0.77490
vt 0.51800 0.00891
vt 0.51800 0.26441
vt 0.51800 0.54551
vt 0.52102 0.28579
vt 0.52438 0.00000
vt 0.52438 0.55442
vt 0.52774 0.26863
vt 0.52796 0.77490
vt 0.52802 0.56337
vt 0.53075 0.00891
vt 0.53075 0.29001
vt 0.53075 0.54551
vt 0.53075 0.56456
vt 0.53075 0.77372
vt 0.53861 0.26441
vt 0.53861 0.29001
vt 0.53861 0.52768
vt 0.53861 0.55327
vt 0.53861 0.77312
vt 0.53919 0.99104
vt 0.53941 0.79041
vt 0.54163 0.00470
vt 0.54499 0.27333
vt 0.54763 0.28109
vt 0.54763 0.29001
vt 0.54763 0.52768
vt 0.54763 0.53659
vt 0.54763 0.54436
vt 0.54763 0.55327
vt 0.54763 0.77312
vt 0.54763 0.78203
vt 0.55137 0.00891
vt 0.55137 0.26441
vt 0.55922 0.23575
vt 0.56025 0.00297
vt 0.56121 0.21199
vt 0.56560 0.22167
vt 0.56560 0.24841
vt 0.57198 0.23434
vt 0.57306 0.26208
vt 0.57353 0.25821
vt 0.57637 0.26129
vt 0.57684 0.25742
vt 0.57984 0.24108
vt 0.58130 0.22812
vt 0.58814 0.26208
vt 0.58861 0.25821
vt 0.59146 0.26129
vt 0.59193 0.25742
vt 0.59226 0.23463
vt 0.59372 0.22167
vt 0.60284 0.23828
vt 0.60323 0.26208
vt 0.60330 0.22758
vt 0.60364 0.24156
vt 0.60370 0.25821
vt 0.60377 0.22371
vt 0.60654 0.26129
vt 0.60662 0.22678
vt 0.60675 0.23875
vt 0.60701 0.25742
vt 0.60709 0.22291
vt 0.60756 0.24202
vt 0.61792 0.23828
vt 0.61832 0.26208
vt 0.61839 0.22758
vt 0.61873 0.24156
vt 0.61879 0.25821
vt 0.61886 0.22371
vt 0.62163 0.26129
vt 0.62170 0.22678
vt 0.62184 0.23875
vt 0.62210 0.25742
vt 0.62217 0.22291
vt 0.62264 0.24202
vt 0.63293 0.25788
vt 0.63301 0.22338
vt 0.63301 0.23828
vt 0.63374 0.26115
vt 0.63381 0.22665
vt 0.63381 0.24156
vt 0.63685 0.25834
vt 0.63692 0.22384
vt 0.63692 0.23875
vt 0.63765 0.26162
vt 0.63773 0.22711
vt 0.63773 0.24202
vt 0.64809 0.22338
vt 0.64849 0.26208
vt 0.64856 0.24249
vt 0.64890 0.22665
vt 0.64896 0.25821
vt 0.64903 0.23862
vt 0.65180 0.26129
vt 0.65187 0.24169
vt 0.65201 0.22384
vt 0.65227 0.25742
vt 0.65234 0.23782
vt 0.65282 0.22711
vt 0.66311 0.25788
vt 0.66318 0.23828
vt 0.66391 0.26115
vt 0.66399 0.24156
vt 0.66702 0.25834
vt 0.66710 0.23875
vt 0.66783 0.26162
vt 0.66790 0.24202
vt 0.74224 0.99121
vt 0.74246 0.79058
vt 0.77010 0.54436
vt 0.77010 0.55327
vt 0.77010 0.77312
vt 0.77010 0.78203
vt 0.77370 0.00192
vt 0.77465 0.21094
vt 0.77912 0.55327
vt 0.77912 0.77312
vt 0.78457 0.00297
vt 0.78552 0.21199
vt 0.78698 0.55327
vt 0.78698 0.76900
vt 0.78814 0.28109
vt 0.78814 0.29001
vt 0.78814 0.52768
vt 0.78814 0.53659
vt 0.79125 0.74341
vt 0.79125 0.95914
vt 0.79600 0.54436
vt 0.79600 0.55327
vt 0.79600 0.75232
vt 0.79600 0.76009
vt 0.79600 0.76900
vt 0.79600 0.96805
vt 0.79716 0.29001
vt 0.79716 0.52768
vt 0.80502 0.28347
vt 0.80502 0.49262
vt 0.80757 0.28228
vt 0.80757 0.49381
vt 0.81713 0.28228
vt 0.81713 0.49381
vt 0.81968 0.28347
vt 0.81968 0.49262
vt 0.82839 0.28228
vt 0.82839 0.49381
vt 0.83094 0.28347
vt 0.83094 0.49262
vt 0.83880 0.28347
vt 0.83880 0.49262
vt 0.84135 0.28228
vt 0.84135 0.49381
vt 0.85091 0.28228
vt 0.85091 0.49381
vt 0.85346 0.28347
vt 0.85346 0.49262
vt 0.86132 0.45599
vt 0.87253 0.44911
vt 0.87413 0.46165
vt 0.88533 0.45477
vt 0.89319 0.45599
vt 0.90440 0.44911
vt 0.90600 0.46165
vt 0.91721 0.45477
vt 0.92507 0.44359
vt 0.93752 0.43660
vt 0.93964 0.44911
vt 0.95209 0.44212
vt 0.98841 0.54436
vt 0.98841 0.74341
vt 0.98841 0.75232
vt 0.98841 0.76009
vt 0.98841 0.95914
vt 0.98841 0.96805
vt 0.99316 0.55327
vt 0.99316 0.76900
vt 0.99743 0.74341
vt 0.99743 0.95914
vt 0.99802 0.00192
vt 0.99897 0.21094
s 0
usemtl Showcase_graphite
f 1/215/1 2/216/1 4/221/1
f 10/198/38 13/295/38 16/296/38
f 10/198/89 9/197/89 13/295/89
f 11/1/6 12/10/6 10/11/6
f 12/63/41 3/75/41 2/64/41
f 12/63/92 11/74/92 3/75/92
f 13/331/7 14/332/7 16/333/7
f 14/306/36 5/294/36 8/305/36
f 14/306/87 13/295/87 5/294/87
f 15/334/8 16/333/8 14/332/8
f 15/90/11 3/75/11 11/74/11
f 15/90/11 7/91/11 3/75/11
f 16/89/39 11/74/39 10/73/39
f 16/89/90 15/90/90 11/74/90
f 2/187/40 9/197/40 12/188/40
f 2/187/91 1/196/91 9/197/91
f 2/216/2 3/222/2 4/221/2
f 4/76/35 7/91/35 6/92/35
f 4/76/86 3/75/86 7/91/86
f 5/294/42 13/295/42 9/197/42
f 5/294/42 9/197/42 1/196/42
f 5/327/3 6/328/3 8/329/3
f 6/293/34 1/196/34 4/195/34
f 6/293/85 5/294/85 1/196/85
f 7/330/4 8/329/4 6/328/4
f 8/99/37 15/90/37 14/98/37
f 8/99/88 7/91/88 15/90/88
f 9/20/5 10/11/5 12/10/5
usemtl Showcase_porcelain
f 17/194/9 18/186/9 19/204/9
f 17/303/104 23/346/104 32/343/104
f 17/303/56 32/343/56 28/298/56
f 18/186/49 21/203/49 19/204/49
f 18/186/97 20/193/97 21/203/97
f 18/72/43 30/104/43 20/105/43
f 18/72/93 28/69/93 30/104/93
f 19/125/46 21/124/46 26/172/46
f 19/125/46 26/172/46 22/173/46
f 20/297/17 30/291/17 29/300/17
f 21/301/50 24/340/50 26/341/50
f 21/301/98 20/297/98 24/340/98
f 22/342/48 17/303/48 19/302/48
f 22/342/96 23/346/96 17/303/96
f 23/346/14 33/348/14 32/343/14
f 24/176/10 25/181/10 26/172/10
f 25/181/51 22/173/51 26/172/51
f 25/181/99 23/178/99 22/173/99
f 27/304/101 28/298/101 32/343/101
f 27/304/53 32/343/53 34/344/53
f 28/298/16 18/292/16 17/303/16
f 29/114/12 30/104/12 31/103/12
f 29/300/45 24/340/45 20/297/45
f 29/300/94 36/345/94 24/340/94
f 30/104/103 28/69/103 27/71/103
f 30/104/55 27/71/55 31/103/55
f 32/177/13 33/174/13 34/183/13
f 33/174/47 25/126/47 36/175/47
f 33/174/95 23/127/95 25/126/95
f 34/70/44 31/103/44 27/71/44
f 34/70/44 35/102/44 31/103/44
f 35/182/100 34/183/100 33/174/100
f 35/182/52 33/174/52 36/175/52
f 35/339/102 36/345/102 29/300/102
f 35/339/54 29/300/54 31/299/54
f 36/345/15 25/347/15 24/340/15
f 62/82/120 64/81/120 63/67/120
f 62/82/72 63/67/72 61/68/72
f 64/280/119 62/279/119 61/191/119
f 64/280/71 61/191/71 63/192/71
usemtl Showcase_amber
f 37/289/110 39/349/110 43/350/110
f 37/289/62 43/350/62 41/290/62
f 37/52/105 41/49/105 42/59/105
f 37/52/57 42/59/57 38/60/57
f 39/50/108 37/53/108 38/61/108
f 39/50/60 38/61/60 40/62/60
f 41/49/106 43/51/106 44/58/106
f 41/49/58 44/58/58 42/59/58
f 42/206/107 44/285/107 40/286/107
f 42/206/59 40/286/59 38/207/59
f 43/27/109 39/26/109 40/32/109
f 43/27/61 40/32/61 44/33/61
usemtl Showcase_graphite_metal
f 45/209/18 46/205/18 48/210/18
f 46/205/19 47/208/19 48/210/19
f 46/65/117 45/78/117 53/79/117
f 46/65/69 53/79/69 56/66/69
f 48/202/112 47/201/112 51/283/112
f 48/202/64 51/283/64 50/284/64
f 49/335/20 50/336/20 52/337/20
f 49/84/42 53/79/42 45/78/42
f 49/84/42 57/85/42 53/79/42
f 50/83/111 49/84/111 45/78/111
f 50/83/63 45/78/63 48/77/63
f 51/338/21 52/337/21 50/336/21
f 52/288/114 51/283/114 59/282/114
f 52/288/66 59/282/66 58/287/66
f 53/44/22 54/35/22 56/34/22
f 54/80/115 53/79/115 57/85/115
f 54/80/67 57/85/67 60/86/67
f 55/21/23 56/34/23 54/35/23
f 56/189/118 55/200/118 47/201/118
f 56/189/70 47/201/70 46/190/70
f 57/93/24 58/100/24 60/101/24
f 58/88/113 57/85/113 49/84/113
f 58/88/65 49/84/65 52/87/65
f 59/115/25 60/101/25 58/100/25
f 59/282/11 47/201/11 55/200/11
f 59/282/11 51/283/11 47/201/11
f 60/281/116 59/282/116 55/200/116
f 60/281/68 55/200/68 54/199/68
usemtl Showcase_steel
f 100/254/27 97/257/27 102/251/27
f 100/5/122 104/9/122 99/8/122
f 100/5/76 99/8/76 98/4/76
f 102/149/121 97/150/121 101/151/121
f 102/149/74 101/151/74 103/148/74
f 102/251/29 104/248/29 100/254/29
f 103/265/26 101/260/26 98/263/26
f 104/319/73 102/321/73 103/322/73
f 104/319/82 103/322/82 99/320/82
f 106/262/28 107/259/28 111/267/28
f 106/31/75 109/24/75 105/25/75
f 106/31/81 105/25/81 108/30/81
f 108/266/27 105/261/27 110/264/27
f 108/47/122 112/57/122 107/54/122
f 108/47/76 107/54/76 106/46/76
f 110/153/121 105/154/121 109/155/121
f 110/153/74 109/155/74 111/152/74
f 110/264/29 112/269/29 108/266/29
f 111/267/26 109/270/26 106/262/26
f 112/168/73 110/170/73 111/171/73
f 112/168/82 111/171/82 107/169/82
f 114/147/79 117/144/79 113/145/79
f 114/147/83 113/145/83 116/146/83
f 114/229/32 115/224/32 119/227/32
f 116/161/124 120/162/124 115/163/124
f 116/161/80 115/163/80 114/160/80
f 116/273/31 113/271/31 118/275/31
f 118/12/123 113/16/123 117/17/123
f 118/12/78 117/17/78 119/13/78
f 118/275/33 120/277/33 116/273/33
f 119/227/30 117/232/30 114/229/30
f 120/15/77 118/19/77 119/18/77
f 120/15/84 119/18/84 115/14/84
f 122/131/79 125/128/79 121/129/79
f 122/131/83 121/129/83 124/130/83
f 122/274/32 123/272/32 127/276/32
f 124/180/124 128/184/124 123/185/124
f 124/180/80 123/185/80 122/179/80
f 124/230/31 121/225/31 126/228/31
f 126/228/33 128/233/33 124/230/33
f 126/323/123 121/325/123 125/326/123
f 126/323/78 125/326/78 127/324/78
f 127/276/30 125/278/30 122/274/30
f 128/48/77 126/56/77 127/55/77
f 128/48/84 127/55/84 123/45/84
f 66/241/26 67/236/26 71/239/26
f 66/7/73 65/2/73 68/6/73
f 66/7/82 69/3/82 65/2/82
f 68/157/121 72/158/121 67/159/121
f 68/157/74 67/159/74 66/156/74
f 68/226/29 65/223/29 70/231/29
f 70/108/122 65/113/122 69/110/122
f 70/108/76 69/110/76 71/107/76
f 70/231/27 72/234/27 68/226/27
f 71/239/28 69/244/28 66/241/28
f 72/133/75 71/135/75 67/132/75
f 72/133/81 70/134/81 71/135/81
f 74/243/26 75/246/26 79/238/26
f 74/310/73 73/307/73 76/309/73
f 74/310/82 77/308/82 73/307/82
f 76/165/121 80/166/121 75/167/121
f 76/165/74 75/167/74 74/164/74
f 76/240/29 73/245/29 78/242/29
f 78/23/122 73/29/122 77/28/122
f 78/23/76 77/28/76 79/22/76
f 78/242/27 80/237/27 76/240/27
f 79/238/28 77/235/28 74/243/28
f 80/95/75 79/97/75 75/94/75
f 80/95/81 78/96/81 79/97/81
f 82/111/77 81/109/77 84/112/77
f 82/111/84 85/106/84 81/109/84
f 82/212/30 83/214/30 87/213/30
f 84/253/33 81/256/33 86/250/33
f 84/311/123 88/313/123 83/314/123
f 84/311/78 83/314/78 82/312/78
f 86/118/124 81/120/124 85/121/124
f 86/118/80 85/121/80 87/116/80
f 86/250/31 88/247/31 84/253/31
f 87/213/32 85/211/32 82/212/32
f 88/137/79 87/139/79 83/136/79
f 88/137/83 86/138/83 87/139/83
f 90/255/30 91/258/30 95/252/30
f 90/42/77 89/38/77 92/43/77
f 90/42/84 93/36/84 89/38/84
f 92/218/33 89/220/33 94/219/33
f 92/315/123 96/317/123 91/318/123
f 92/315/78 91/318/78 90/316/78
f 94/119/124 89/122/124 93/123/124
f 94/119/80 93/123/80 95/117/80
f 94/219/31 96/217/31 92/218/31
f 95/252/32 93/249/32 90/255/32
f 96/39/79 95/41/79 91/37/79
f 96/39/83 94/40/83 95/41/83
f 98/143/75 101/140/75 97/141/75
f 98/143/81 97/141/81 100/142/81
f 98/263/28 99/268/28 103/265/28
