# Blender 4.0.2
# www.blender.org
mtllib display_pedestal_collision.mtl
o display_pedestal_collision
v 0.430000 0.000000 -0.430000
v 0.430000 1.100000 -0.430000
v 0.430000 0.000000 0.430000
v 0.430000 1.100000 0.430000
v -0.430000 0.000000 -0.430000
v -0.430000 1.100000 -0.430000
v -0.430000 0.000000 0.430000
v -0.430000 1.100000 0.430000
vn 1.0000 -0.0000 -0.0000
vn -0.0000 -0.0000 1.0000
vn -1.0000 -0.0000 -0.0000
vn -0.0000 -0.0000 -1.0000
vn -0.0000 -1.0000 -0.0000
vn -0.0000 1.0000 -0.0000
vt 0.00000 0.00000
vt 0.00000 0.49797
vt 0.00000 0.50203
vt 0.00000 1.00000
vt 0.33103 0.00000
vt 0.33103 0.49797
vt 0.33103 0.50203
vt 0.33103 1.00000
vt 0.33448 0.00000
vt 0.33448 0.49797
vt 0.33448 0.50203
vt 0.33448 1.00000
vt 0.66551 0.00000
vt 0.66551 0.49797
vt 0.66551 0.50203
vt 0.66551 1.00000
vt 0.66897 0.00000
vt 0.66897 0.38932
vt 0.66897 0.39338
vt 0.66897 0.78270
vt 1.00000 0.00000
vt 1.00000 0.38932
vt 1.00000 0.39338
vt 1.00000 0.78270
s 0
usemtl Showcase_collision
f 2/1/1 3/6/1 1/2/1
f 2/1/1 4/5/1 3/6/1
f 4/20/6 2/19/6 6/23/6
f 4/20/6 6/23/6 8/24/6
f 4/9/2 7/14/2 3/10/2
f 4/9/2 8/13/2 7/14/2
f 6/11/4 1/16/4 5/12/4
f 6/11/4 2/15/4 1/16/4
f 7/18/5 1/21/5 3/22/5
f 7/18/5 5/17/5 1/21/5
f 8/3/3 5/8/3 7/4/3
f 8/3/3 6/7/3 5/8/3
