# Blender 4.0.2
# www.blender.org
mtllib info_signpost_lod1.mtl
o info_signpost_lod1
v 0.280000 0.000000 -0.180000
v 0.279919 0.028421 -0.203158
v 0.280000 0.060000 -0.180000
v 0.303158 0.031579 -0.179919
v 0.280000 0.000000 0.180000
v 0.303158 0.028421 0.179919
v 0.280000 0.060000 0.180000
v 0.279919 0.031579 0.203158
v -0.280000 0.000000 -0.180000
v -0.303158 0.028421 -0.179919
v -0.280000 0.060000 -0.180000
v -0.279919 0.031579 -0.203158
v -0.280000 0.000000 0.180000
v -0.279919 0.028421 0.203158
v -0.280000 0.060000 0.180000
v -0.303158 0.031579 0.179919
v 0.030000 0.060000 -0.030000
v 0.030000 0.090000 -0.060000
v 0.060000 0.090000 -0.030000
v 0.030000 1.390000 -0.060000
v 0.030000 1.420000 -0.030000
v 0.060000 1.390000 -0.030000
v 0.030000 0.060000 0.030000
v 0.060000 0.090000 0.030000
v 0.030000 0.090000 0.060000
v 0.030000 1.420000 0.030000
v 0.030000 1.390000 0.060000
v 0.060000 1.390000 0.030000
v -0.030000 0.060000 -0.030000
v -0.060000 0.090000 -0.030000
v -0.030000 0.090000 -0.060000
v -0.030000 1.420000 -0.030000
v -0.030000 1.390000 -0.060000
v -0.060000 1.390000 -0.030000
v -0.030000 0.060000 0.030000
v -0.030000 0.090000 0.060000
v -0.060000 0.090000 0.030000
v -0.030000 1.420000 0.030000
v -0.060000 1.390000 0.030000
v -0.030000 1.390000 0.060000
v 0.524167 1.324167 -0.045833
v 0.526154 1.354615 -0.044615
v 0.526154 1.325385 0.044615
v 0.524167 1.355833 0.045833
v -0.526154 1.325385 -0.044615
v -0.524167 1.355833 -0.045833
v -0.524167 1.324167 0.045833
v -0.526154 1.354615 0.044615
v 0.470000 1.390000 -0.040000
v 0.503158 1.390081 -0.001579
v 0.470000 2.010000 -0.040000
v 0.469919 2.043158 -0.001579
v 0.469919 1.356842 0.001579
v 0.470000 1.390000 0.040000
v 0.470000 2.010000 0.040000
v 0.503158 2.009919 0.001579
v -0.469919 1.356842 -0.001579
v -0.470000 1.390000 -0.040000
v -0.470000 2.010000 -0.040000
v -0.503158 2.009919 -0.001579
v -0.470000 1.390000 0.040000
v -0.503158 1.390081 0.001579
v -0.469919 2.043158 0.001579
v -0.470000 2.010000 0.040000
v 0.524167 2.044167 -0.045833
v 0.526154 2.074615 -0.044615
v 0.526154 2.045385 0.044615
v 0.524167 2.075833 0.045833
v -0.526154 2.045385 -0.044615
v -0.524167 2.075833 -0.045833
v -0.524167 2.044167 0.045833
v -0.526154 2.074615 0.044615
v 0.500000 2.080000 -0.030000
v 0.500000 2.110000 -0.060000
v 0.530000 2.110000 -0.030000
v 0.500000 2.170000 -0.060000
v 0.500000 2.200000 -0.030000
v 0.530000 2.170000 -0.030000
v 0.500000 2.080000 0.030000
v 0.530000 2.110000 0.030000
v 0.500000 2.110000 0.060000
v 0.500000 2.200000 0.030000
v 0.500000 2.170000 0.060000
v 0.530000 2.170000 0.030000
v -0.500000 2.080000 -0.030000
v -0.530000 2.110000 -0.030000
v -0.500000 2.110000 -0.060000
v -0.500000 2.200000 -0.030000
v -0.500000 2.170000 -0.060000
v -0.530000 2.170000 -0.030000
v -0.500000 2.080000 0.030000
v -0.500000 2.110000 0.060000
v -0.530000 2.110000 0.030000
v -0.500000 2.200000 0.030000
v -0.530000 2.170000 0.030000
v -0.500000 2.170000 0.060000
v 0.339445 1.503775 0.041927
v 0.338750 1.758750 0.045545
v 0.336444 1.500511 0.047418
v 0.263556 1.500511 0.042582
v 0.260555 1.503775 0.048073
v 0.261250 1.758750 0.044455
v 0.338750 1.878750 0.045545
v 0.338750 1.801250 0.044455
v 0.261250 1.801250 0.045545
v 0.261250 1.878750 0.044455
v 0.128750 1.796250 0.045545
v 0.128750 1.763750 0.044455
v -0.328750 1.763750 0.045545
v -0.328750 1.796250 0.044455
v 0.129445 1.626274 0.041927
v 0.126444 1.656989 0.042582
v 0.126444 1.623011 0.047418
v 0.129445 1.653726 0.048073
v -0.226444 1.623011 0.042582
v -0.229445 1.626274 0.048073
v -0.228750 1.656250 0.044455
v 0.339445 1.503775 -0.048073
v 0.338750 1.758750 -0.044455
v 0.336444 1.500511 -0.042582
v 0.263556 1.500511 -0.047418
v 0.260555 1.756226 -0.048073
v 0.260555 1.503775 -0.041927
v 0.263556 1.759489 -0.042582
v 0.338750 1.878750 -0.044455
v 0.338750 1.801250 -0.045545
v 0.261250 1.801250 -0.044455
v 0.261250 1.878750 -0.045545
v 0.128750 1.796250 -0.044455
v 0.128750 1.763750 -0.045545
v -0.328750 1.763750 -0.044455
v -0.328750 1.796250 -0.045545
v 0.129445 1.626274 -0.048073
v 0.128750 1.656250 -0.044455
v 0.126444 1.623011 -0.042582
v -0.226444 1.623011 -0.047418
v -0.229445 1.626274 -0.041927
v -0.228750 1.656250 -0.045545
vn 0.6529 -0.4773 -0.5881
vn 0.5881 0.4773 -0.6529
vn 0.5881 -0.4773 0.6529
vn 0.6529 0.4773 0.5881
vn -0.5881 -0.4773 -0.6529
vn -0.6529 0.4773 -0.5881
vn -0.6529 -0.4773 0.5881
vn -0.5881 0.4773 0.6529
vn 0.5774 -0.5774 -0.5773
vn 0.5774 0.5773 -0.5773
vn 0.5773 -0.5774 0.5774
vn 0.5774 0.5774 0.5773
vn -0.5773 -0.5774 -0.5774
vn -0.5774 0.5774 -0.5773
vn -0.5774 -0.5774 0.5773
vn -0.5774 0.5774 0.5773
vn 0.5861 -0.6340 -0.5045
vn 0.6340 0.5861 -0.5045
vn 0.6340 -0.5861 0.5045
vn 0.5861 0.6340 0.5045
vn -0.6340 -0.5861 -0.5045
vn -0.5861 0.6340 -0.5045
vn -0.5861 -0.6340 0.5045
vn -0.6340 0.5861 0.5045
vn 0.5774 -0.5774 -0.5774
vn 0.5773 0.5774 -0.5774
vn 0.5773 0.5774 0.5774
vn -0.5773 0.5774 -0.5774
vn -0.5774 -0.5774 0.5774
vn -0.5774 0.5774 0.5774
vn -0.0330 -0.8670 0.4972
vn 0.0330 -0.8670 -0.4972
vn -0.0070 -0.8613 0.5080
vn 0.0009 0.8599 0.5105
vn 0.0070 -0.8613 -0.5080
vn -0.8803 0.0115 0.4743
vn -0.0042 0.8607 -0.5092
vn -0.0000 1.0000 -0.0000
vn 0.8064 -0.5913 -0.0052
vn 0.8064 0.5913 0.0052
vn 0.0033 -0.5914 0.8064
vn -0.0033 0.5914 0.8064
vn -0.8064 -0.5913 0.0052
vn -0.8064 0.5913 -0.0052
vn -0.0033 -0.5914 -0.8064
vn 0.0033 0.5914 -0.8064
vn -0.0000 -1.0000 -0.0000
vn -0.0000 -0.0000 -1.0000
vn -1.0000 -0.0000 -0.0000
vn 1.0000 -0.0000 -0.0000
vn -0.0000 -0.0000 1.0000
vn 0.7071 -0.7071 -0.0000
vn 0.7071 -0.0000 -0.7071
vn 0.7071 0.7071 -0.0000
vn 0.7071 -0.0000 0.7071
vn -0.0000 -0.7071 0.7071
vn -0.0000 0.7071 0.7071
vn -0.7071 -0.0000 0.7071
vn -0.7071 -0.7071 -0.0000
vn -0.7071 0.7071 -0.0000
vn -0.7071 -0.0000 -0.7071
vn -0.0000 -0.7071 -0.7071
vn -0.0000 0.7071 -0.7071
vn 0.0012 0.0399 -0.9992
vn -0.9977 0.0643 -0.0211
vn 0.0012 0.9999 -0.0134
vn 0.9977 0.0643 0.0211
vn -0.0012 0.0399 0.9992
vn -0.0012 -0.9999 -0.0134
vn 0.7818 0.0032 -0.6235
vn 0.7818 -0.0032 0.6235
vn -0.0000 -0.7571 0.6534
vn -0.0000 0.7571 0.6533
vn -0.7571 -0.0000 0.6533
vn -0.7818 -0.0032 -0.6235
vn -0.0000 -0.7571 -0.6534
vn -0.0000 0.7571 -0.6533
vn 0.0141 0.0142 -0.9998
vn -0.0141 0.0142 0.9998
vn -0.0141 0.0141 -0.9998
vn 0.8786 -0.0044 0.4776
vn -0.8786 -0.0044 -0.4776
vn 0.0141 0.0141 0.9998
vn -0.0024 0.0335 -0.9994
vn 0.0024 0.0335 0.9994
vn -0.0020 0.0211 -0.9998
vn 0.0029 0.1198 0.9928
vn 0.0458 0.0143 -0.9989
vn 0.8965 0.0968 -0.4324
vn 0.8965 -0.0968 0.4324
vn -0.8856 -0.0354 -0.4630
vn 0.0249 0.0023 0.9997
vn -0.8803 -0.0115 -0.4743
vn -0.0029 0.1198 -0.9928
vn 0.8856 -0.0354 0.4630
vn 0.7752 -0.6317 -0.0000
vn 0.7752 0.6317 -0.0000
vn -0.0000 -0.6317 0.7752
vn -0.0000 0.6317 0.7752
vn -0.7752 -0.6317 -0.0000
vn -0.7752 0.6317 -0.0000
vn -0.0000 -0.6317 -0.7752
vn -0.0000 0.6317 -0.7752
vn -0.0012 -0.0399 -0.9992
vn -0.9977 -0.0643 0.0211
vn -0.0012 0.9999 0.0134
vn 0.9977 -0.0643 -0.0211
vn 0.0012 -0.0399 0.9992
vn 0.0012 -0.9999 0.0134
vn 0.7571 -0.0000 -0.6533
vn 0.7571 -0.0000 0.6533
vn -0.0021 -0.7818 0.6235
vn 0.0021 0.7818 0.6235
vn -0.7818 0.0032 0.6235
vn -0.7571 -0.0000 -0.6533
vn 0.0021 -0.7818 -0.6235
vn -0.0021 0.7818 -0.6235
vn -0.0089 0.0072 -0.9999
vn 0.0089 0.0072 0.9999
vn 0.0141 -0.0141 -0.9998
vn -0.0141 -0.0141 0.9998
vn 0.0024 -0.0335 -0.9994
vn -0.0024 -0.0335 0.9994
vn -0.0054 0.0559 -0.9984
vn -0.0102 -0.0203 0.9997
vn -0.0085 -0.0027 -1.0000
vn 0.0030 0.0565 -0.9984
vn -0.0030 0.0565 0.9984
vt 0.00000 0.01312
vt 0.00000 0.58168
vt 0.00000 0.80524
vt 0.00000 0.83520
vt 0.00000 0.86144
vt 0.00000 0.91155
vt 0.00225 0.89248
vt 0.00983 0.82207
vt 0.00983 0.87456
vt 0.01391 0.00000
vt 0.01391 0.01312
vt 0.01391 0.58168
vt 0.01391 0.59480
vt 0.01713 0.79489
vt 0.01916 0.90206
vt 0.01967 0.83520
vt 0.01967 0.86144
vt 0.01988 0.81332
vt 0.02141 0.88299
vt 0.03701 0.80296
vt 0.04172 0.00000
vt 0.04172 0.01312
vt 0.04172 0.58168
vt 0.04172 0.59480
vt 0.04594 0.92436
vt 0.04713 0.80296
vt 0.04745 0.60429
vt 0.04748 0.81396
vt 0.04826 0.92593
vt 0.05563 0.01312
vt 0.05563 0.58168
vt 0.06066 0.80335
vt 0.06098 0.60468
vt 0.06456 0.01312
vt 0.06456 0.58168
vt 0.07229 0.80296
vt 0.07261 0.60429
vt 0.07847 0.00000
vt 0.07847 0.01312
vt 0.07847 0.58168
vt 0.07847 0.59480
vt 0.08071 0.92655
vt 0.08190 0.81426
vt 0.08222 0.92436
vt 0.08582 0.80335
vt 0.08614 0.60468
vt 0.09745 0.80296
vt 0.09777 0.60429
vt 0.10629 0.00000
vt 0.10629 0.01312
vt 0.10629 0.58168
vt 0.10629 0.59480
vt 0.11098 0.80335
vt 0.11129 0.60468
vt 0.12019 0.01312
vt 0.12019 0.58168
vt 0.12913 0.20178
vt 0.12913 0.51807
vt 0.12913 0.76299
vt 0.14230 0.76299
vt 0.14377 0.51807
vt 0.14649 0.19178
vt 0.14881 0.21025
vt 0.15694 0.51807
vt 0.15694 0.76299
vt 0.16618 0.20025
vt 0.17511 0.01312
vt 0.17511 0.45047
vt 0.17511 0.99382
vt 0.17790 0.48156
vt 0.17975 0.47202
vt 0.17975 0.80602
vt 0.18438 0.81445
vt 0.18438 0.98763
vt 0.18438 1.00000
vt 0.18902 0.00000
vt 0.18902 0.01312
vt 0.18902 0.45047
vt 0.18902 0.46359
vt 0.21683 0.00000
vt 0.21683 0.01312
vt 0.21683 0.45047
vt 0.21683 0.46359
vt 0.21683 0.47202
vt 0.21683 0.80602
vt 0.21841 0.48115
vt 0.23040 0.79056
vt 0.23074 0.01312
vt 0.23074 0.45047
vt 0.23967 0.01312
vt 0.23967 0.45047
vt 0.24431 0.47202
vt 0.24431 0.78128
vt 0.24431 0.79983
vt 0.25358 0.00000
vt 0.25358 0.01312
vt 0.25358 0.45047
vt 0.25358 0.46359
vt 0.27213 0.47202
vt 0.27213 0.78128
vt 0.27213 0.79983
vt 0.28140 0.00000
vt 0.28140 0.01312
vt 0.28140 0.45047
vt 0.28140 0.46359
vt 0.28603 0.79056
vt 0.29530 0.01312
vt 0.29530 0.45047
vt 0.30728 0.46035
vt 0.30729 0.79689
vt 0.30746 0.00283
vt 0.30887 0.47202
vt 0.31956 0.46077
vt 0.31973 0.00325
vt 0.33476 0.46035
vt 0.33493 0.00283
vt 0.34596 0.47202
vt 0.34704 0.46077
vt 0.34721 0.00325
vt 0.34781 0.79648
vt 0.35127 0.81445
vt 0.35127 0.98763
vt 0.35127 1.00000
vt 0.35953 0.77267
vt 0.36054 0.99382
vt 0.36224 0.46035
vt 0.36241 0.00283
vt 0.37452 0.46077
vt 0.37469 0.00325
vt 0.37689 0.76267
vt 0.37922 0.78114
vt 0.38972 0.46035
vt 0.38989 0.00283
vt 0.39658 0.77114
vt 0.40199 0.46077
vt 0.40217 0.00325
vt 0.41415 0.01312
vt 0.41415 0.42423
vt 0.41415 0.45890
vt 0.41415 0.87001
vt 0.41534 0.92510
vt 0.41566 0.89263
vt 0.42805 0.00000
vt 0.42805 0.01312
vt 0.42805 0.42423
vt 0.42805 0.43735
vt 0.42805 0.44578
vt 0.42805 0.45890
vt 0.42805 0.87001
vt 0.42805 0.88313
vt 0.44972 0.92549
vt 0.45004 0.89302
vt 0.46136 0.92510
vt 0.46168 0.89263
vt 0.49574 0.92549
vt 0.49606 0.89302
vt 0.50738 0.92510
vt 0.50770 0.89263
vt 0.54176 0.92549
vt 0.54208 0.89302
vt 0.71547 0.00000
vt 0.71547 0.01312
vt 0.71547 0.42423
vt 0.71547 0.43735
vt 0.71547 0.44578
vt 0.71547 0.45890
vt 0.71547 0.87001
vt 0.71547 0.88313
vt 0.72938 0.01312
vt 0.72938 0.42423
vt 0.72938 0.45890
vt 0.72938 0.87001
vt 0.73831 0.41131
vt 0.73831 0.47540
vt 0.73831 0.91389
vt 0.73985 0.80349
vt 0.74063 0.91546
vt 0.75222 0.00000
vt 0.75222 0.40203
vt 0.75222 0.42059
vt 0.75222 0.43914
vt 0.75222 0.44757
vt 0.75222 0.46613
vt 0.75222 0.48468
vt 0.75222 0.79394
vt 0.77308 0.91608
vt 0.77427 0.80379
vt 0.77459 0.91389
vt 0.78003 0.00000
vt 0.78003 0.40203
vt 0.78003 0.42059
vt 0.78003 0.43914
vt 0.78003 0.44757
vt 0.78003 0.46613
vt 0.78003 0.48468
vt 0.78003 0.79394
vt 0.79394 0.41131
vt 0.79394 0.47540
vt 0.80288 0.41131
vt 0.80288 0.78381
vt 0.80566 0.43856
vt 0.80751 0.42902
vt 0.80751 0.76301
vt 0.81215 0.77404
vt 0.81215 0.79000
vt 0.81215 0.96318
vt 0.81678 0.00000
vt 0.81678 0.40203
vt 0.81678 0.42059
vt 0.84460 0.00000
vt 0.84460 0.40203
vt 0.84460 0.42059
vt 0.84460 0.42902
vt 0.84460 0.76301
vt 0.84618 0.43815
vt 0.85850 0.41131
vt 0.86122 0.75388
vt 0.86280 0.42902
vt 0.86744 0.00875
vt 0.86744 0.25366
vt 0.88061 0.25366
vt 0.88208 0.00875
vt 0.89525 0.00875
vt 0.89525 0.25366
vt 0.89989 0.42902
vt 0.90174 0.75347
vt 0.90538 0.19973
vt 0.90570 0.00106
vt 0.90695 0.37581
vt 0.90798 0.21836
vt 0.91346 0.43776
vt 0.91346 0.59521
vt 0.91730 0.20961
vt 0.91730 0.38455
vt 0.91890 0.20012
vt 0.91922 0.00145
vt 0.92002 0.42902
vt 0.92002 0.60396
vt 0.92385 0.21836
vt 0.92385 0.37581
vt 0.92657 0.43776
vt 0.92657 0.59521
vt 0.93000 0.00219
vt 0.93054 0.15599
vt 0.93054 0.19941
vt 0.93086 0.16694
vt 0.93166 0.00000
vt 0.93279 0.36487
vt 0.93279 0.37986
vt 0.93279 0.41485
vt 0.93430 0.21067
vt 0.93511 0.36630
vt 0.93670 0.58501
vt 0.93670 0.75089
vt 0.93701 0.43008
vt 0.93701 0.59595
vt 0.94247 0.37837
vt 0.94290 0.41659
vt 0.94325 0.00076
vt 0.94325 0.15745
vt 0.94492 0.15526
vt 0.94557 0.00219
vt 0.94670 0.21037
vt 0.94670 0.36706
vt 0.94836 0.36487
vt 0.94902 0.21180
vt 0.94941 0.42978
vt 0.94941 0.58646
vt 0.94941 0.59565
vt 0.94941 0.75234
vt 0.95108 0.58428
vt 0.95108 0.75015
vt 0.95173 0.43120
vt 0.95173 0.59708
vt 0.95795 0.32114
vt 0.95795 0.34487
vt 0.95795 0.37111
vt 0.95875 0.21180
vt 0.96027 0.20961
vt 0.96027 0.32271
vt 0.96066 0.54054
vt 0.96066 0.56428
vt 0.96066 0.59052
vt 0.96066 0.62519
vt 0.96066 0.65143
vt 0.96220 0.43014
vt 0.96298 0.54211
vt 0.96492 0.19980
vt 0.96524 0.16733
vt 0.96900 0.00437
vt 0.96900 0.03936
vt 0.97050 0.61207
vt 0.97050 0.66455
vt 0.97762 0.34487
vt 0.97762 0.37111
vt 0.97868 0.00288
vt 0.97903 0.77502
vt 0.97903 0.79000
vt 0.97903 0.96318
vt 0.97911 0.04111
vt 0.98033 0.56428
vt 0.98033 0.59052
vt 0.98033 0.62519
vt 0.98033 0.65143
vt 0.98745 0.33175
vt 0.98745 0.38423
vt 0.98830 0.78381
vt 0.99017 0.55116
vt 0.99017 0.60364
vt 0.99272 0.32332
vt 0.99391 0.21104
vt 0.99423 0.32114
vt 0.99543 0.42963
vt 0.99543 0.54273
vt 0.99694 0.54054
vt 0.99728 0.34487
vt 0.99728 0.37111
vt 0.99775 0.43120
vt 1.00000 0.56428
vt 1.00000 0.59052
s 0
usemtl Showcase_graphite
f 1/240/1 2/234/1 4/229/1
f 10/297/100 9/298/100 13/205/100
f 10/297/43 13/205/43 16/204/43
f 108/53/123 107/47/123 110/48/123
f 108/53/85 110/48/85 109/54/85
f 109/32/122 110/26/122 107/27/122
f 109/32/84 107/27/84 108/33/84
f 11/122/6 12/125/6 10/123/6
f 112/243/89 114/247/89 111/259/89
f 113/265/125 114/252/125 117/251/125
f 113/265/33 116/263/33 115/266/33
f 113/265/87 117/251/87 116/263/87
f 113/265/90 111/264/90 114/252/90
f 115/261/124 117/244/124 112/243/124
f 115/261/35 111/259/35 113/262/35
f 115/261/86 112/243/86 111/259/86
f 115/261/91 116/260/91 117/244/91
f 117/251/34 114/252/34 112/248/34
f 12/60/103 11/59/103 3/58/103
f 12/60/46 3/58/46 2/61/46
f 13/205/7 14/200/7 16/204/7
f 130/235/123 129/227/123 132/228/123
f 130/235/85 132/228/85 131/236/85
f 131/45/122 132/36/122 129/37/122
f 131/45/84 129/37/84 130/46/84
f 135/272/128 134/254/128 138/256/128
f 135/272/33 137/269/33 136/274/33
f 135/272/87 138/256/87 137/269/87
f 135/272/95 133/270/95 134/254/95
f 136/271/127 138/253/127 134/255/127
f 136/271/35 133/267/35 135/273/35
f 136/271/91 137/268/91 138/253/91
f 136/271/94 134/255/94 133/267/94
f 14/222/41 5/224/41 8/221/41
f 14/222/98 13/223/98 5/224/98
f 15/74/38 3/121/38 11/122/38
f 15/74/38 7/73/38 3/121/38
f 15/74/8 16/75/8 14/69/8
f 16/75/101 15/74/101 11/122/101
f 16/75/44 11/122/44 10/123/44
f 2/238/2 3/232/2 4/242/2
f 2/61/102 1/64/102 9/65/102
f 2/61/45 9/65/45 12/60/45
f 4/242/40 7/231/40 6/241/40
f 4/242/97 3/232/97 7/231/97
f 5/206/47 13/205/47 9/298/47
f 5/206/47 9/298/47 1/299/47
f 5/239/3 6/230/3 8/233/3
f 6/230/39 1/240/39 4/229/39
f 6/230/96 5/239/96 1/240/96
f 7/231/4 8/237/4 6/241/4
f 73/320/25 74/309/25 75/302/25
f 73/88/62 85/89/62 87/82/62
f 73/88/62 87/82/62 74/81/62
f 74/81/53 76/77/53 78/76/53
f 74/81/53 78/76/53 75/80/53
f 75/302/50 78/283/50 84/282/50
f 75/302/50 84/282/50 80/301/50
f 75/302/52 79/319/52 73/320/52
f 75/302/52 80/301/52 79/319/52
f 76/293/26 77/285/26 78/304/26
f 79/185/47 85/195/47 73/196/47
f 79/185/47 91/184/47 85/195/47
f 79/319/11 80/301/11 81/308/11
f 8/221/42 15/219/42 14/222/42
f 8/221/99 7/220/99 15/219/99
f 81/104/51 83/97/51 96/96/51
f 81/104/51 96/96/51 92/103/51
f 82/284/27 83/292/27 84/303/27
f 82/91/57 94/90/57 96/96/57
f 82/91/57 96/96/57 83/97/57
f 83/97/55 80/105/55 84/98/55
f 83/97/55 81/104/55 80/105/55
f 84/303/54 77/285/54 82/284/54
f 84/303/54 78/304/54 77/285/54
f 85/195/13 86/194/13 87/198/13
f 87/82/48 76/77/48 74/81/48
f 87/82/48 89/78/48 76/77/48
f 88/100/28 89/106/28 90/101/28
f 88/68/63 76/77/63 89/78/63
f 88/68/63 77/67/63 76/77/63
f 89/78/61 86/83/61 90/79/61
f 89/78/61 87/82/61 86/83/61
f 9/298/5 10/297/5 12/307/5
f 90/101/60 94/93/60 88/100/60
f 90/101/60 95/94/60 94/93/60
f 91/107/56 79/108/56 81/104/56
f 91/107/56 81/104/56 92/103/56
f 91/184/29 92/174/29 93/183/29
f 93/183/49 90/193/49 86/194/49
f 93/183/49 95/182/49 90/193/49
f 93/183/59 85/195/59 91/184/59
f 93/183/59 86/194/59 85/195/59
f 94/93/30 95/94/30 96/87/30
f 94/93/38 77/99/38 88/100/38
f 94/93/38 82/92/38 77/99/38
f 95/95/58 92/103/58 96/96/58
f 95/95/58 93/102/58 92/103/58
usemtl Showcase_graphite_metal
f 17/209/9 18/199/9 19/208/9
f 17/24/62 29/13/62 31/12/62
f 17/24/62 31/12/62 18/23/62
f 18/23/48 31/12/48 33/11/48
f 18/23/48 33/11/48 20/22/48
f 18/23/53 20/22/53 22/30/53
f 18/23/53 22/30/53 19/31/53
f 20/9/10 21/5/10 22/17/10
f 21/5/54 26/4/54 28/16/54
f 21/5/54 28/16/54 22/17/54
f 23/181/47 29/191/47 17/192/47
f 23/181/47 35/180/47 29/191/47
f 23/212/11 24/211/11 25/216/11
f 23/212/52 17/209/52 19/208/52
f 23/212/52 19/208/52 24/211/52
f 24/211/50 19/208/50 22/207/50
f 24/211/50 22/207/50 28/210/50
f 26/38/57 38/49/57 40/50/57
f 26/38/57 40/50/57 27/39/57
f 26/4/12 27/8/12 28/16/12
f 27/39/55 24/35/55 28/34/55
f 27/39/55 25/40/55 24/35/55
f 29/191/13 30/190/13 31/197/13
f 29/191/59 35/180/59 37/179/59
f 29/191/59 37/179/59 30/190/59
f 30/190/49 37/179/49 39/178/49
f 30/190/49 39/178/49 34/189/49
f 32/10/63 20/22/63 33/11/63
f 32/10/63 21/21/63 20/22/63
f 32/294/14 33/305/14 34/316/14
f 33/11/61 30/2/61 34/1/61
f 33/11/61 31/12/61 30/2/61
f 35/180/15 36/173/15 37/179/15
f 35/52/56 23/41/56 25/40/56
f 35/52/56 25/40/56 36/51/56
f 36/51/51 25/40/51 27/39/51
f 36/51/51 27/39/51 40/50/51
f 38/295/16 39/317/16 40/306/16
f 38/295/38 21/276/38 32/294/38
f 38/295/38 26/277/38 21/276/38
f 38/295/60 32/294/60 34/316/60
f 38/295/60 34/316/60 39/317/60
f 39/55/58 36/51/58 40/50/58
f 39/55/58 37/56/58 36/51/58
usemtl Showcase_steel
f 41/114/104 45/113/104 46/109/104
f 41/114/64 46/109/64 42/111/64
f 41/214/109 43/203/109 47/201/109
f 41/214/69 47/201/69 45/215/69
f 43/296/107 41/300/107 42/291/107
f 43/296/67 42/291/67 44/290/67
f 45/215/105 47/201/105 48/202/105
f 45/215/65 48/202/65 46/213/65
f 46/226/106 48/217/106 44/218/106
f 46/226/66 44/218/66 42/225/66
f 47/119/108 43/118/108 44/115/108
f 47/119/68 44/115/68 48/116/68
f 65/129/104 69/128/104 70/126/104
f 65/129/64 70/126/64 66/127/64
f 65/85/109 67/72/109 71/70/109
f 65/85/69 71/70/69 69/86/69
f 67/257/107 65/258/107 66/250/107
f 67/257/67 66/250/67 68/249/67
f 69/86/105 71/70/105 72/71/105
f 69/86/65 72/71/65 70/84/65
f 70/120/106 72/110/106 68/112/106
f 70/120/66 68/112/66 66/117/66
f 71/136/108 67/135/108 68/132/108
f 71/136/68 68/132/68 72/133/68
usemtl Showcase_porcelain
f 49/162/116 53/169/116 57/170/116
f 49/162/76 57/170/76 58/163/76
f 50/161/110 49/162/110 51/144/110
f 50/161/70 51/144/70 56/143/70
f 51/6/18 52/7/18 56/15/18
f 52/7/20 55/19/20 56/15/20
f 53/18/17 49/3/17 50/14/17
f 53/18/19 50/14/19 54/20/19
f 54/167/51 55/149/51 64/148/51
f 54/167/51 64/148/51 61/166/51
f 55/149/113 52/140/113 63/139/113
f 55/149/73 63/139/73 64/148/73
f 56/150/111 55/149/111 54/167/111
f 56/150/71 54/167/71 50/168/71
f 57/63/21 62/62/21 58/66/21
f 57/63/23 61/57/23 62/62/23
f 58/163/48 51/144/48 49/162/48
f 58/163/48 59/145/48 51/144/48
f 59/145/117 63/138/117 52/137/117
f 59/145/77 52/137/77 51/144/77
f 60/146/115 59/145/115 58/163/115
f 60/146/75 58/163/75 62/164/75
f 61/166/112 57/171/112 53/172/112
f 61/166/72 53/172/72 54/167/72
f 63/130/22 59/134/22 60/131/22
f 63/130/24 60/131/24 64/124/24
f 64/148/114 60/147/114 62/165/114
f 64/148/74 62/165/74 61/166/74
usemtl Showcase_amber
f 100/177/32 97/188/32 99/186/32
f 100/177/82 101/175/82 102/176/82
f 101/44/119 99/29/119 98/28/119
f 101/44/79 98/28/79 102/43/79
f 104/151/121 103/141/121 106/142/121
f 104/151/83 106/142/83 105/152/83
f 105/288/120 106/245/120 103/246/120
f 105/288/80 103/246/80 104/289/80
f 118/312/126 121/280/126 122/278/126
f 118/312/88 122/278/88 119/311/88
f 119/311/37 122/278/37 124/279/37
f 120/287/31 123/315/31 121/314/31
f 120/287/81 118/281/81 119/286/81
f 121/280/32 118/312/32 120/310/32
f 121/280/93 123/275/93 122/278/93
f 123/315/119 120/287/119 119/286/119
f 123/315/36 124/313/36 122/318/36
f 123/315/92 119/286/92 124/313/92
f 126/159/121 125/157/121 128/158/121
f 126/159/83 128/158/83 127/160/83
f 127/155/120 128/153/120 125/154/120
f 127/155/80 125/154/80 126/156/80
f 97/188/118 100/177/118 102/176/118
f 97/188/78 102/176/78 98/187/78
f 99/29/31 101/44/31 100/42/31
f 99/29/81 97/25/81 98/28/81
