# Blender 4.0.2
# www.blender.org
mtllib info_signpost_collision.mtl
o info_signpost_collision
v 0.290309 0.006719 -0.183209
v 0.279692 0.020270 -0.200299
v 0.280000 0.000000 0.180000
v 0.300000 0.020000 0.180000
v 0.279692 0.020270 0.200299
v -0.280000 0.000000 -0.180000
v -0.300000 0.020000 -0.180000
v -0.279479 0.020393 -0.200480
v -0.280000 0.000000 0.180000
v -0.279479 0.020393 0.200480
v -0.300000 0.020000 0.180000
v 0.529403 1.328672 -0.041709
v 0.529830 1.332715 0.041429
v -0.529682 1.330196 -0.041500
v -0.529670 1.331873 0.041549
v 0.529351 2.051995 -0.042568
v 0.528782 2.053092 0.043021
v -0.528782 2.053092 -0.043021
v -0.529426 2.166027 0.037568
v 0.500000 2.170000 -0.060000
v 0.500000 2.200000 -0.030000
v 0.530000 2.170000 -0.030000
v 0.500000 2.200000 0.030000
v 0.500000 2.170000 0.060000
v 0.530000 2.170000 0.030000
v -0.500000 2.200000 -0.030000
v -0.500000 2.170000 -0.060000
v -0.530000 2.170000 -0.030000
v -0.500000 2.200000 0.030000
v -0.500000 2.170000 0.060000
vn -0.7071 0.7071 -0.0000
vn -0.5773 0.5774 -0.5774
vn -0.7053 0.0712 -0.7053
vn -0.9948 0.0010 -0.1023
vn -1.0000 -0.0004 0.0001
vn -1.0000 0.0003 0.0085
vn -0.7501 0.6598 0.0452
vn -0.5358 0.5971 0.5971
vn -0.0000 0.7071 0.7071
vn -0.0000 1.0000 -0.0000
vn -0.0000 0.7071 -0.7071
vn -0.0000 0.0652 -0.9979
vn -0.5169 0.0029 -0.8561
vn -0.5404 -0.0011 -0.8414
vn -0.7051 -0.0488 -0.7074
vn -0.9850 -0.1727 -0.0000
vn -0.9851 -0.1721 0.0036
vn -0.7051 -0.0488 0.7074
vn -0.5349 0.0003 0.8449
vn -0.6066 0.0040 0.7950
vn -0.0000 0.0652 0.9979
vn 0.5773 0.5774 0.5774
vn 0.7071 0.7071 -0.0000
vn 0.5774 0.5774 -0.5774
vn 0.7053 0.0712 -0.7053
vn 0.5185 0.0027 -0.8551
vn 0.0003 0.0651 -0.9979
vn 0.0001 -0.7086 -0.7056
vn -0.5733 -0.5733 -0.5854
vn -0.7071 -0.7071 -0.0000
vn -0.5733 -0.5733 0.5854
vn -0.0000 -0.7086 0.7056
vn 0.0001 -0.7076 0.7066
vn 0.0003 0.0651 0.9979
vn 0.7053 0.0712 0.7053
vn 0.5168 0.0029 0.8561
vn 0.9946 0.0012 0.1040
vn 1.0000 -0.0002 -0.0000
vn 1.0000 -0.0006 -0.0051
vn 0.9987 -0.0000 -0.0516
vn 0.5397 -0.0010 -0.8419
vn 0.0057 -0.7818 -0.6235
vn 0.8143 -0.0858 -0.5740
vn -0.0000 -1.0000 -0.0000
vn 0.0117 -0.9998 -0.0182
vn 0.7071 -0.7071 0.0070
vn 0.5747 -0.5747 0.5826
vn 0.5401 -0.0011 0.8416
vn 0.7058 -0.0490 0.7067
vn 0.9851 -0.1721 0.0033
vn 0.9842 -0.1759 -0.0198
vt 0.00000 0.01136
vt 0.00000 0.31231
vt 0.00087 0.05350
vt 0.01037 0.00056
vt 0.01154 0.01165
vt 0.08399 0.78528
vt 0.09088 0.79246
vt 0.09180 0.78539
vt 0.28474 0.78503
vt 0.29100 0.78495
vt 0.35539 0.00000
vt 0.35656 0.01109
vt 0.36555 0.31202
vt 0.36582 0.01227
vt 0.36878 0.01078
vt 0.36878 0.79164
vt 0.36878 0.99263
vt 0.36889 0.31266
vt 0.36920 0.05291
vt 0.37475 0.78785
vt 0.37589 1.00000
vt 0.37595 0.99285
vt 0.37919 0.01105
vt 0.37920 0.00000
vt 0.44864 0.78470
vt 0.45577 0.78474
vt 0.50091 0.79152
vt 0.50091 0.99995
vt 0.50097 0.99280
vt 0.50790 0.79158
vt 0.50802 0.99257
vt 0.64996 0.78478
vt 0.72649 0.00000
vt 0.72649 0.01105
vt 0.73668 0.05330
vt 0.73670 0.31321
vt 0.73691 0.01078
vt 0.73987 0.78853
vt 0.74619 0.79301
vt 0.77543 0.01141
vt 0.78331 0.05291
vt 0.78555 0.00044
vt 0.78663 0.01049
vt 0.78999 0.31229
vt 0.80632 0.00000
vt 0.80740 0.01005
vt 0.81290 0.05191
vt 0.81874 0.31023
vt 0.87168 0.79301
vt 0.87205 0.78537
vt 0.87501 0.76825
vt 0.92936 0.25378
vt 0.93144 0.48080
vt 0.93421 0.00000
vt 0.93730 0.26206
vt 0.93994 0.24591
vt 0.95505 0.00000
vt 0.96026 0.48124
vt 0.96077 0.24591
vt 0.96078 0.26116
vt 0.96467 0.29151
vt 0.97103 0.25378
vt 1.00000 0.76825
s 0
usemtl Showcase_collision
f 1/20/42 6/22/42 2/16/42
f 1/20/45 3/27/45 6/22/45
f 1/39/46 4/50/46 3/49/46
f 10/9/19 30/12/19 15/13/19
f 10/9/21 24/5/21 30/12/21
f 11/10/18 10/9/18 15/13/18
f 11/51/17 15/53/17 14/58/17
f 12/36/41 2/32/41 16/35/41
f 12/44/40 16/41/40 22/43/40
f 12/44/43 1/39/43 2/38/43
f 13/2/48 17/3/48 5/8/48
f 13/48/38 22/43/38 25/46/38
f 13/48/39 12/44/39 22/43/39
f 14/58/5 15/53/5 28/60/5
f 15/53/6 19/55/6 28/60/6
f 16/35/26 2/32/26 20/34/26
f 17/3/35 25/1/35 24/5/35
f 17/47/37 13/48/37 25/46/37
f 18/61/4 14/58/4 28/60/4
f 19/55/7 29/56/7 28/60/7
f 19/55/8 30/52/8 29/56/8
f 2/16/28 6/22/28 8/17/28
f 2/32/27 8/26/27 20/34/27
f 20/34/12 8/26/12 27/23/12
f 21/33/11 20/34/11 27/23/11
f 21/33/11 27/23/11 26/24/11
f 22/37/24 20/34/24 21/33/24
f 22/43/25 16/41/25 20/40/25
f 23/54/10 21/57/10 26/59/10
f 23/54/10 26/59/10 29/56/10
f 24/5/22 25/1/22 23/4/22
f 25/46/23 21/42/23 23/45/23
f 25/46/23 22/43/23 21/42/23
f 26/59/2 27/62/2 28/60/2
f 27/23/3 18/19/3 28/15/3
f 29/56/1 26/59/1 28/60/1
f 3/27/33 5/30/33 10/31/33
f 3/27/44 9/29/44 6/22/44
f 30/12/20 19/14/20 15/13/20
f 30/12/9 23/4/9 29/11/9
f 30/12/9 24/5/9 23/4/9
f 4/50/50 12/44/50 13/48/50
f 4/50/51 1/39/51 12/44/51
f 4/6/47 5/8/47 3/7/47
f 4/6/49 13/2/49 5/8/49
f 5/8/34 24/5/34 10/9/34
f 5/8/36 17/3/36 24/5/36
f 6/22/29 7/21/29 8/17/29
f 6/22/30 11/28/30 7/21/30
f 6/22/30 9/29/30 11/28/30
f 7/63/16 11/51/16 14/58/16
f 8/26/13 18/19/13 27/23/13
f 8/26/14 14/18/14 18/19/14
f 8/26/15 7/25/15 14/18/15
f 9/29/31 10/31/31 11/28/31
f 9/29/32 3/27/32 10/31/32
