# Blender 4.0.2
# www.blender.org
mtllib info_signpost.mtl
o info_signpost
v 0.280000 0.000000 -0.180000
v 0.280000 0.020000 -0.200000
v 0.300000 0.020000 -0.180000
v 0.280000 0.040000 -0.200000
v 0.280000 0.060000 -0.180000
v 0.300000 0.040000 -0.180000
v 0.280000 0.000000 0.180000
v 0.300000 0.020000 0.180000
v 0.280000 0.020000 0.200000
v 0.280000 0.060000 0.180000
v 0.280000 0.040000 0.200000
v 0.300000 0.040000 0.180000
v -0.280000 0.000000 -0.180000
v -0.300000 0.020000 -0.180000
v -0.280000 0.020000 -0.200000
v -0.280000 0.060000 -0.180000
v -0.280000 0.040000 -0.200000
v -0.300000 0.040000 -0.180000
v -0.280000 0.000000 0.180000
v -0.280000 0.020000 0.200000
v -0.300000 0.020000 0.180000
v -0.280000 0.060000 0.180000
v -0.300000 0.040000 0.180000
v -0.280000 0.040000 0.200000
v 0.030000 0.060000 -0.030000
v 0.030000 0.090000 -0.060000
v 0.060000 0.090000 -0.030000
v 0.030000 1.390000 -0.060000
v 0.030000 1.420000 -0.030000
v 0.060000 1.390000 -0.030000
v 0.030000 0.060000 0.030000
v 0.060000 0.090000 0.030000
v 0.030000 0.090000 0.060000
v 0.030000 1.420000 0.030000
v 0.030000 1.390000 0.060000
v 0.060000 1.390000 0.030000
v -0.030000 0.060000 -0.030000
v -0.060000 0.090000 -0.030000
v -0.030000 0.090000 -0.060000
v -0.030000 1.420000 -0.030000
v -0.030000 1.390000 -0.060000
v -0.060000 1.390000 -0.030000
v -0.030000 0.060000 0.030000
v -0.030000 0.090000 0.060000
v -0.060000 0.090000 0.030000
v -0.030000 1.420000 0.030000
v -0.060000 1.390000 0.030000
v -0.030000 1.390000 0.060000
v 0.520000 1.320000 -0.040000
v 0.520000 1.330000 -0.050000
v 0.530000 1.330000 -0.040000
v 0.520000 1.350000 -0.050000
v 0.520000 1.360000 -0.040000
v 0.530000 1.350000 -0.040000
v 0.520000 1.320000 0.040000
v 0.530000 1.330000 0.040000
v 0.520000 1.330000 0.050000
v 0.520000 1.360000 0.040000
v 0.520000 1.350000 0.050000
v 0.530000 1.350000 0.040000
v -0.520000 1.320000 -0.040000
v -0.530000 1.330000 -0.040000
v -0.520000 1.330000 -0.050000
v -0.520000 1.360000 -0.040000
v -0.520000 1.350000 -0.050000
v -0.530000 1.350000 -0.040000
v -0.520000 1.320000 0.040000
v -0.520000 1.330000 0.050000
v -0.530000 1.330000 0.040000
v -0.520000 1.360000 0.040000
v -0.530000 1.350000 0.040000
v -0.520000 1.350000 0.050000
v 0.470000 1.360000 -0.010000
v 0.470000 1.390000 -0.040000
v 0.500000 1.390000 -0.010000
v 0.470000 2.010000 -0.040000
v 0.470000 2.040000 -0.010000
v 0.500000 2.010000 -0.010000
v 0.470000 1.360000 0.010000
v 0.500000 1.390000 0.010000
v 0.470000 1.390000 0.040000
v 0.470000 2.040000 0.010000
v 0.470000 2.010000 0.040000
v 0.500000 2.010000 0.010000
v -0.470000 1.360000 -0.010000
v -0.500000 1.390000 -0.010000
v -0.470000 1.390000 -0.040000
v -0.470000 2.040000 -0.010000
v -0.470000 2.010000 -0.040000
v -0.500000 2.010000 -0.010000
v -0.470000 1.360000 0.010000
v -0.470000 1.390000 0.040000
v -0.500000 1.390000 0.010000
v -0.470000 2.040000 0.010000
v -0.500000 2.010000 0.010000
v -0.470000 2.010000 0.040000
v 0.520000 2.040000 -0.040000
v 0.520000 2.050000 -0.050000
v 0.530000 2.050000 -0.040000
v 0.520000 2.070000 -0.050000
v 0.520000 2.080000 -0.040000
v 0.530000 2.070000 -0.040000
v 0.520000 2.040000 0.040000
v 0.530000 2.050000 0.040000
v 0.520000 2.050000 0.050000
v 0.520000 2.080000 0.040000
v 0.520000 2.070000 0.050000
v 0.530000 2.070000 0.040000
v -0.520000 2.040000 -0.040000
v -0.530000 2.050000 -0.040000
v -0.520000 2.050000 -0.050000
v -0.520000 2.080000 -0.040000
v -0.520000 2.070000 -0.050000
v -0.530000 2.070000 -0.040000
v -0.520000 2.040000 0.040000
v -0.520000 2.050000 0.050000
v -0.530000 2.050000 0.040000
v -0.520000 2.080000 0.040000
v -0.530000 2.070000 0.040000
v -0.520000 2.070000 0.050000
v 0.500000 2.080000 -0.030000
v 0.500000 2.110000 -0.060000
v 0.530000 2.110000 -0.030000
v 0.500000 2.170000 -0.060000
v 0.500000 2.200000 -0.030000
v 0.530000 2.170000 -0.030000
v 0.500000 2.080000 0.030000
v 0.530000 2.110000 0.030000
v 0.500000 2.110000 0.060000
v 0.500000 2.200000 0.030000
v 0.500000 2.170000 0.060000
v 0.530000 2.170000 0.030000
v -0.500000 2.080000 -0.030000
v -0.530000 2.110000 -0.030000
v -0.500000 2.110000 -0.060000
v -0.500000 2.200000 -0.030000
v -0.500000 2.170000 -0.060000
v -0.530000 2.170000 -0.030000
v -0.500000 2.080000 0.030000
v -0.500000 2.110000 0.060000
v -0.530000 2.110000 0.030000
v -0.500000 2.200000 0.030000
v -0.530000 2.170000 0.030000
v -0.500000 2.170000 0.060000
v 0.335000 1.500000 0.044000
v 0.335000 1.505000 0.039000
v 0.340000 1.505000 0.044000
v 0.335000 1.755000 0.039000
v 0.335000 1.760000 0.044000
v 0.340000 1.755000 0.044000
v 0.335000 1.500000 0.046000
v 0.340000 1.505000 0.046000
v 0.335000 1.505000 0.051000
v 0.335000 1.760000 0.046000
v 0.335000 1.755000 0.051000
v 0.340000 1.755000 0.046000
v 0.265000 1.500000 0.044000
v 0.260000 1.505000 0.044000
v 0.265000 1.505000 0.039000
v 0.265000 1.760000 0.044000
v 0.265000 1.755000 0.039000
v 0.260000 1.755000 0.044000
v 0.265000 1.500000 0.046000
v 0.265000 1.505000 0.051000
v 0.260000 1.505000 0.046000
v 0.265000 1.760000 0.046000
v 0.260000 1.755000 0.046000
v 0.265000 1.755000 0.051000
v 0.335000 1.800000 0.044000
v 0.335000 1.805000 0.039000
v 0.340000 1.805000 0.044000
v 0.335000 1.875000 0.039000
v 0.335000 1.880000 0.044000
v 0.340000 1.875000 0.044000
v 0.335000 1.800000 0.046000
v 0.340000 1.805000 0.046000
v 0.335000 1.805000 0.051000
v 0.335000 1.880000 0.046000
v 0.335000 1.875000 0.051000
v 0.340000 1.875000 0.046000
v 0.265000 1.800000 0.044000
v 0.260000 1.805000 0.044000
v 0.265000 1.805000 0.039000
v 0.265000 1.880000 0.044000
v 0.265000 1.875000 0.039000
v 0.260000 1.875000 0.044000
v 0.265000 1.800000 0.046000
v 0.265000 1.805000 0.051000
v 0.260000 1.805000 0.046000
v 0.265000 1.880000 0.046000
v 0.260000 1.875000 0.046000
v 0.265000 1.875000 0.051000
v 0.125000 1.762500 0.044000
v 0.125000 1.767500 0.039000
v 0.130000 1.767500 0.044000
v 0.125000 1.792500 0.039000
v 0.125000 1.797500 0.044000
v 0.130000 1.792500 0.044000
v 0.125000 1.762500 0.046000
v 0.130000 1.767500 0.046000
v 0.125000 1.767500 0.051000
v 0.125000 1.797500 0.046000
v 0.125000 1.792500 0.051000
v 0.130000 1.792500 0.046000
v -0.325000 1.762500 0.044000
v -0.330000 1.767500 0.044000
v -0.325000 1.767500 0.039000
v -0.325000 1.797500 0.044000
v -0.325000 1.792500 0.039000
v -0.330000 1.792500 0.044000
v -0.325000 1.762500 0.046000
v -0.325000 1.767500 0.051000
v -0.330000 1.767500 0.046000
v -0.325000 1.797500 0.046000
v -0.330000 1.792500 0.046000
v -0.325000 1.792500 0.051000
v 0.125000 1.622500 0.044000
v 0.125000 1.627500 0.039000
v 0.130000 1.627500 0.044000
v 0.125000 1.652500 0.039000
v 0.125000 1.657500 0.044000
v 0.130000 1.652500 0.044000
v 0.125000 1.622500 0.046000
v 0.130000 1.627500 0.046000
v 0.125000 1.627500 0.051000
v 0.125000 1.657500 0.046000
v 0.125000 1.652500 0.051000
v 0.130000 1.652500 0.046000
v -0.225000 1.622500 0.044000
v -0.230000 1.627500 0.044000
v -0.225000 1.627500 0.039000
v -0.225000 1.657500 0.044000
v -0.225000 1.652500 0.039000
v -0.230000 1.652500 0.044000
v -0.225000 1.622500 0.046000
v -0.225000 1.627500 0.051000
v -0.230000 1.627500 0.046000
v -0.225000 1.657500 0.046000
v -0.230000 1.652500 0.046000
v -0.225000 1.652500 0.051000
v 0.335000 1.500000 -0.046000
v 0.335000 1.505000 -0.051000
v 0.340000 1.505000 -0.046000
v 0.335000 1.755000 -0.051000
v 0.335000 1.760000 -0.046000
v 0.340000 1.755000 -0.046000
v 0.335000 1.500000 -0.044000
v 0.340000 1.505000 -0.044000
v 0.335000 1.505000 -0.039000
v 0.335000 1.760000 -0.044000
v 0.335000 1.755000 -0.039000
v 0.340000 1.755000 -0.044000
v 0.265000 1.500000 -0.046000
v 0.260000 1.505000 -0.046000
v 0.265000 1.505000 -0.051000
v 0.265000 1.760000 -0.046000
v 0.265000 1.755000 -0.051000
v 0.260000 1.755000 -0.046000
v 0.265000 1.500000 -0.044000
v 0.265000 1.505000 -0.039000
v 0.260000 1.505000 -0.044000
v 0.265000 1.760000 -0.044000
v 0.260000 1.755000 -0.044000
v 0.265000 1.755000 -0.039000
v 0.335000 1.800000 -0.046000
v 0.335000 1.805000 -0.051000
v 0.340000 1.805000 -0.046000
v 0.335000 1.875000 -0.051000
v 0.335000 1.880000 -0.046000
v 0.340000 1.875000 -0.046000
v 0.335000 1.800000 -0.044000
v 0.340000 1.805000 -0.044000
v 0.335000 1.805000 -0.039000
v 0.335000 1.880000 -0.044000
v 0.335000 1.875000 -0.039000
v 0.340000 1.875000 -0.044000
v 0.265000 1.800000 -0.046000
v 0.260000 1.805000 -0.046000
v 0.265000 1.805000 -0.051000
v 0.265000 1.880000 -0.046000
v 0.265000 1.875000 -0.051000
v 0.260000 1.875000 -0.046000
v 0.265000 1.800000 -0.044000
v 0.265000 1.805000 -0.039000
v 0.260000 1.805000 -0.044000
v 0.265000 1.880000 -0.044000
v 0.260000 1.875000 -0.044000
v 0.265000 1.875000 -0.039000
v 0.125000 1.762500 -0.046000
v 0.125000 1.767500 -0.051000
v 0.130000 1.767500 -0.046000
v 0.125000 1.792500 -0.051000
v 0.125000 1.797500 -0.046000
v 0.130000 1.792500 -0.046000
v 0.125000 1.762500 -0.044000
v 0.130000 1.767500 -0.044000
v 0.125000 1.767500 -0.039000
v 0.125000 1.797500 -0.044000
v 0.125000 1.792500 -0.039000
v 0.130000 1.792500 -0.044000
v -0.325000 1.762500 -0.046000
v -0.330000 1.767500 -0.046000
v -0.325000 1.767500 -0.051000
v -0.325000 1.797500 -0.046000
v -0.325000 1.792500 -0.051000
v -0.330000 1.792500 -0.046000
v -0.325000 1.762500 -0.044000
v -0.325000 1.767500 -0.039000
v -0.330000 1.767500 -0.044000
v -0.325000 1.797500 -0.044000
v -0.330000 1.792500 -0.044000
v -0.325000 1.792500 -0.039000
v 0.125000 1.622500 -0.046000
v 0.125000 1.627500 -0.051000
v 0.130000 1.627500 -0.046000
v 0.125000 1.652500 -0.051000
v 0.125000 1.657500 -0.046000
v 0.130000 1.652500 -0.046000
v 0.125000 1.622500 -0.044000
v 0.130000 1.627500 -0.044000
v 0.125000 1.627500 -0.039000
v 0.125000 1.657500 -0.044000
v 0.125000 1.652500 -0.039000
v 0.130000 1.652500 -0.044000
v -0.225000 1.622500 -0.046000
v -0.230000 1.627500 -0.046000
v -0.225000 1.627500 -0.051000
v -0.225000 1.657500 -0.046000
v -0.225000 1.652500 -0.051000
v -0.230000 1.652500 -0.046000
v -0.225000 1.622500 -0.044000
v -0.225000 1.627500 -0.039000
v -0.230000 1.627500 -0.044000
v -0.225000 1.657500 -0.044000
v -0.230000 1.652500 -0.044000
v -0.225000 1.652500 -0.039000
vn -0.0000 -0.0000 -1.0000
vn -1.0000 -0.0000 -0.0000
vn -0.0000 1.0000 -0.0000
vn 1.0000 -0.0000 -0.0000
vn -0.0000 -0.0000 1.0000
vn 0.5773 -0.5773 -0.5774
vn 0.5773 0.5773 -0.5774
vn 0.5773 -0.5773 0.5774
vn 0.5773 0.5773 0.5774
vn -0.5773 -0.5773 -0.5774
vn -0.5773 0.5773 -0.5774
vn -0.5773 -0.5773 0.5774
vn -0.5773 0.5773 0.5774
vn 0.7071 -0.7071 -0.0000
vn 0.7071 -0.0000 -0.7071
vn 0.7071 0.7071 -0.0000
vn 0.7071 -0.0000 0.7071
vn -0.0000 -0.7071 0.7071
vn -0.0000 0.7071 0.7071
vn -0.7071 -0.0000 0.7071
vn -0.7071 -0.7071 -0.0000
vn -0.7071 0.7071 -0.0000
vn -0.7071 -0.0000 -0.7071
vn -0.0000 -0.7071 -0.7071
vn -0.0000 0.7071 -0.7071
vn -0.0000 -1.0000 -0.0000
vn 0.5774 -0.5774 -0.5773
vn 0.5774 0.5773 -0.5773
vn 0.5773 -0.5774 0.5774
vn 0.5774 0.5774 0.5773
vn -0.5773 -0.5774 -0.5774
vn -0.5774 0.5774 -0.5773
vn -0.5774 -0.5774 0.5773
vn -0.5774 0.5774 0.5773
vn 0.5773 -0.5774 -0.5774
vn 0.5773 0.5774 -0.5774
vn 0.5773 -0.5774 0.5773
vn 0.5773 0.5774 0.5773
vn -0.5774 -0.5774 -0.5774
vn -0.5774 0.5774 -0.5774
vn 0.5774 -0.5773 -0.5774
vn 0.5774 0.5774 -0.5774
vn 0.5774 -0.5773 0.5774
vn 0.5774 0.5774 0.5774
vn -0.5774 -0.5773 -0.5774
vn -0.5774 -0.5773 0.5774
vn -0.5774 0.5774 0.5774
vn 0.5773 0.5774 0.5774
vn -0.5773 0.5774 -0.5774
vn -0.5773 -0.5774 0.5774
vn -0.5773 0.5774 0.5774
vn 0.5774 -0.5774 -0.5774
vn -0.5774 -0.5774 0.5774
vn 0.5774 -0.5773 -0.5773
vn 0.5774 -0.5773 0.5773
vn 0.5774 0.5773 0.5773
vn -0.5774 -0.5773 -0.5773
vn -0.5774 0.5773 -0.5773
vn -0.5774 -0.5773 0.5773
vn -0.5774 0.5773 0.5773
vt 0.00000 0.01312
vt 0.00000 0.58168
vt 0.00000 0.60380
vt 0.00000 0.80524
vt 0.00000 0.83520
vt 0.00000 0.86144
vt 0.00000 0.89548
vt 0.00000 0.91155
vt 0.00535 0.88834
vt 0.00925 0.60323
vt 0.00983 0.82207
vt 0.00983 0.87456
vt 0.01324 0.79513
vt 0.01391 0.00000
vt 0.01391 0.01312
vt 0.01391 0.58168
vt 0.01391 0.59480
vt 0.01452 0.81364
vt 0.01606 0.90620
vt 0.01967 0.83520
vt 0.01967 0.86144
vt 0.02141 0.88299
vt 0.02141 0.89906
vt 0.02249 0.79456
vt 0.02377 0.81307
vt 0.02860 0.82216
vt 0.02860 0.84545
vt 0.02952 0.82207
vt 0.03035 0.90587
vt 0.03076 0.84371
vt 0.03106 0.84679
vt 0.03168 0.84363
vt 0.03199 0.84671
vt 0.03250 0.90762
vt 0.03281 0.90454
vt 0.03322 0.86834
vt 0.03342 0.90770
vt 0.03373 0.90462
vt 0.03414 0.84496
vt 0.03414 0.86826
vt 0.03496 0.88299
vt 0.03588 0.88307
vt 0.03588 0.90636
vt 0.03701 0.80296
vt 0.04172 0.00000
vt 0.04172 0.01312
vt 0.04172 0.58168
vt 0.04172 0.59480
vt 0.04594 0.60542
vt 0.04594 0.80222
vt 0.04594 0.81503
vt 0.04594 0.92436
vt 0.04826 0.60323
vt 0.04826 0.60542
vt 0.04826 0.80222
vt 0.04826 0.80441
vt 0.04826 0.81284
vt 0.04826 0.81503
vt 0.04826 0.92436
vt 0.04826 0.92655
vt 0.05563 0.01312
vt 0.05563 0.58168
vt 0.05985 0.60323
vt 0.05985 0.60542
vt 0.05985 0.80222
vt 0.05985 0.80441
vt 0.06217 0.60542
vt 0.06217 0.80222
vt 0.06456 0.01312
vt 0.06456 0.58168
vt 0.07110 0.60542
vt 0.07110 0.80222
vt 0.07342 0.60323
vt 0.07342 0.60542
vt 0.07342 0.80222
vt 0.07342 0.80441
vt 0.07847 0.00000
vt 0.07847 0.01312
vt 0.07847 0.58168
vt 0.07847 0.59480
vt 0.08071 0.81284
vt 0.08071 0.81503
vt 0.08071 0.92436
vt 0.08071 0.92655
vt 0.08303 0.81503
vt 0.08303 0.92436
vt 0.08501 0.60323
vt 0.08501 0.60542
vt 0.08501 0.80222
vt 0.08501 0.80441
vt 0.08733 0.60542
vt 0.08733 0.80222
vt 0.09243 0.81286
vt 0.09243 0.89175
vt 0.09336 0.81284
vt 0.09470 0.89015
vt 0.09479 0.89324
vt 0.09563 0.89012
vt 0.09572 0.89321
vt 0.09626 0.60542
vt 0.09626 0.80222
vt 0.09799 0.89161
vt 0.09858 0.60323
vt 0.09858 0.60542
vt 0.09858 0.80222
vt 0.09858 0.80441
vt 0.10629 0.00000
vt 0.10629 0.01312
vt 0.10629 0.58168
vt 0.10629 0.59480
vt 0.10693 0.81286
vt 0.10693 0.89175
vt 0.10785 0.81284
vt 0.10920 0.89015
vt 0.10929 0.89324
vt 0.11012 0.89012
vt 0.11017 0.60323
vt 0.11017 0.60542
vt 0.11017 0.80222
vt 0.11017 0.80441
vt 0.11021 0.89321
vt 0.11249 0.60542
vt 0.11249 0.80222
vt 0.11249 0.89161
vt 0.12019 0.01312
vt 0.12019 0.58168
vt 0.12913 0.20178
vt 0.12913 0.51807
vt 0.12913 0.76299
vt 0.12913 0.78940
vt 0.12913 0.89921
vt 0.13005 0.89922
vt 0.13141 0.79099
vt 0.13148 0.78790
vt 0.13164 0.78017
vt 0.13234 0.79100
vt 0.13240 0.78791
vt 0.13257 0.78018
vt 0.13371 0.00038
vt 0.13469 0.78950
vt 0.13840 0.50933
vt 0.13840 0.51807
vt 0.13840 0.76299
vt 0.13840 0.77174
vt 0.14259 0.19194
vt 0.14297 0.00000
vt 0.14345 0.21047
vt 0.14362 0.78950
vt 0.14574 0.78018
vt 0.14591 0.78791
vt 0.14597 0.79100
vt 0.14667 0.78017
vt 0.14683 0.78790
vt 0.14690 0.79099
vt 0.14767 0.50933
vt 0.14767 0.51807
vt 0.14767 0.76299
vt 0.14767 0.77174
vt 0.14826 0.89922
vt 0.14918 0.78940
vt 0.14918 0.89921
vt 0.15185 0.19156
vt 0.15271 0.21009
vt 0.15691 0.50090
vt 0.15694 0.51807
vt 0.15694 0.76299
vt 0.15812 0.78018
vt 0.15812 0.88999
vt 0.15905 0.78017
vt 0.16040 0.88840
vt 0.16047 0.89149
vt 0.16133 0.88838
vt 0.16140 0.89148
vt 0.16368 0.88989
vt 0.16618 0.20025
vt 0.16618 0.50051
vt 0.17511 0.01312
vt 0.17511 0.45047
vt 0.17511 0.48130
vt 0.17511 0.99382
vt 0.17975 0.47202
vt 0.17975 0.47821
vt 0.17975 0.48439
vt 0.17975 0.80602
vt 0.18438 0.81445
vt 0.18438 0.98763
vt 0.18438 1.00000
vt 0.18902 0.00000
vt 0.18902 0.01312
vt 0.18902 0.45047
vt 0.18902 0.46359
vt 0.21683 0.00000
vt 0.21683 0.01312
vt 0.21683 0.45047
vt 0.21683 0.46359
vt 0.21683 0.47202
vt 0.21683 0.47821
vt 0.21683 0.48439
vt 0.21683 0.80602
vt 0.22147 0.48130
vt 0.23040 0.79056
vt 0.23074 0.01312
vt 0.23074 0.45047
vt 0.23967 0.01312
vt 0.23967 0.45047
vt 0.24431 0.47202
vt 0.24431 0.78128
vt 0.24431 0.79983
vt 0.25358 0.00000
vt 0.25358 0.01312
vt 0.25358 0.45047
vt 0.25358 0.46359
vt 0.27213 0.47202
vt 0.27213 0.78128
vt 0.27213 0.79983
vt 0.28140 0.00000
vt 0.28140 0.01312
vt 0.28140 0.45047
vt 0.28140 0.46359
vt 0.28603 0.79056
vt 0.29530 0.01312
vt 0.29530 0.45047
vt 0.30424 0.00437
vt 0.30424 0.45922
vt 0.30424 0.79674
vt 0.30887 0.00000
vt 0.30887 0.00437
vt 0.30887 0.45922
vt 0.30887 0.46359
vt 0.30887 0.47202
vt 0.30887 0.79365
vt 0.30887 0.79983
vt 0.31815 0.00000
vt 0.31815 0.00437
vt 0.31815 0.45922
vt 0.31815 0.46359
vt 0.32278 0.00437
vt 0.32278 0.45922
vt 0.33171 0.00437
vt 0.33171 0.45922
vt 0.33635 0.00000
vt 0.33635 0.00437
vt 0.33635 0.45922
vt 0.33635 0.46359
vt 0.34562 0.00000
vt 0.34562 0.00437
vt 0.34562 0.45922
vt 0.34562 0.46359
vt 0.34596 0.47202
vt 0.34596 0.79365
vt 0.34596 0.79983
vt 0.35026 0.00437
vt 0.35026 0.45922
vt 0.35059 0.79674
vt 0.35127 0.81445
vt 0.35127 0.98763
vt 0.35127 1.00000
vt 0.35919 0.00437
vt 0.35919 0.45922
vt 0.35953 0.47241
vt 0.35953 0.77267
vt 0.35953 0.78999
vt 0.35953 0.79953
vt 0.36043 0.78979
vt 0.36054 0.99382
vt 0.36141 0.79752
vt 0.36216 0.80053
vt 0.36231 0.79732
vt 0.36306 0.80033
vt 0.36383 0.00000
vt 0.36383 0.00437
vt 0.36383 0.45922
vt 0.36383 0.46359
vt 0.36494 0.79832
vt 0.36879 0.47202
vt 0.37299 0.76283
vt 0.37310 0.00000
vt 0.37310 0.00437
vt 0.37310 0.45922
vt 0.37310 0.46359
vt 0.37385 0.78136
vt 0.37652 0.78982
vt 0.37652 0.86871
vt 0.37745 0.78979
vt 0.37773 0.00437
vt 0.37773 0.45922
vt 0.37879 0.86710
vt 0.37889 0.87019
vt 0.37952 0.89183
vt 0.37972 0.86708
vt 0.37981 0.87017
vt 0.38045 0.89181
vt 0.38208 0.86856
vt 0.38226 0.76245
vt 0.38312 0.78098
vt 0.38667 0.00437
vt 0.38667 0.45922
vt 0.39102 0.89951
vt 0.39131 0.00000
vt 0.39131 0.00437
vt 0.39131 0.45922
vt 0.39131 0.46359
vt 0.39330 0.90110
vt 0.39337 0.89801
vt 0.39423 0.90112
vt 0.39430 0.89803
vt 0.39565 0.78979
vt 0.39658 0.77114
vt 0.39658 0.78981
vt 0.39658 0.89962
vt 0.40058 0.00000
vt 0.40058 0.00437
vt 0.40058 0.45922
vt 0.40058 0.46359
vt 0.40521 0.00437
vt 0.40521 0.45922
vt 0.41415 0.01312
vt 0.41415 0.42423
vt 0.41415 0.45890
vt 0.41415 0.87001
vt 0.41415 0.89375
vt 0.41415 0.92436
vt 0.41646 0.89156
vt 0.41646 0.89375
vt 0.41646 0.92436
vt 0.41646 0.92655
vt 0.42805 0.00000
vt 0.42805 0.01312
vt 0.42805 0.42423
vt 0.42805 0.43735
vt 0.42805 0.44578
vt 0.42805 0.45890
vt 0.42805 0.87001
vt 0.42805 0.88313
vt 0.44892 0.89156
vt 0.44892 0.89375
vt 0.44892 0.92436
vt 0.44892 0.92655
vt 0.45123 0.89375
vt 0.45123 0.92436
vt 0.46017 0.89375
vt 0.46017 0.92436
vt 0.46248 0.89156
vt 0.46248 0.89375
vt 0.46248 0.92436
vt 0.46248 0.92655
vt 0.49494 0.89156
vt 0.49494 0.89375
vt 0.49494 0.92436
vt 0.49494 0.92655
vt 0.49725 0.89375
vt 0.49725 0.92436
vt 0.50619 0.89375
vt 0.50619 0.92436
vt 0.50850 0.89156
vt 0.50850 0.89375
vt 0.50850 0.92436
vt 0.50850 0.92655
vt 0.54095 0.89156
vt 0.54095 0.89375
vt 0.54095 0.92436
vt 0.54095 0.92655
vt 0.54327 0.89375
vt 0.54327 0.92436
vt 0.55221 0.91445
vt 0.55436 0.91619
vt 0.55467 0.91312
vt 0.55529 0.91628
vt 0.55559 0.91320
vt 0.55682 0.89156
vt 0.55775 0.89165
vt 0.55775 0.91494
vt 0.56668 0.89165
vt 0.56668 0.91494
vt 0.56760 0.89156
vt 0.56883 0.91320
vt 0.56914 0.91628
vt 0.56976 0.91312
vt 0.57007 0.91619
vt 0.57222 0.91445
vt 0.58115 0.89176
vt 0.58115 0.90130
vt 0.58205 0.89156
vt 0.58303 0.89929
vt 0.58378 0.90230
vt 0.58393 0.89909
vt 0.58469 0.90210
vt 0.58657 0.90009
vt 0.59550 0.89176
vt 0.59550 0.90130
vt 0.59640 0.89156
vt 0.59738 0.89929
vt 0.59813 0.90230
vt 0.59828 0.89909
vt 0.59904 0.90210
vt 0.60092 0.90009
vt 0.60985 0.89176
vt 0.60985 0.90130
vt 0.61075 0.89156
vt 0.61173 0.89929
vt 0.61248 0.90230
vt 0.61263 0.89909
vt 0.61338 0.90210
vt 0.61526 0.90009
vt 0.62420 0.89317
vt 0.62420 0.89585
vt 0.62474 0.89246
vt 0.62688 0.89495
vt 0.62741 0.89156
vt 0.62741 0.89424
vt 0.63635 0.89317
vt 0.63635 0.89585
vt 0.63688 0.89246
vt 0.63902 0.89496
vt 0.63956 0.89156
vt 0.63956 0.89424
vt 0.64849 0.89156
vt 0.64849 0.89424
vt 0.64903 0.89495
vt 0.65117 0.89246
vt 0.65170 0.89317
vt 0.65170 0.89585
vt 0.66064 0.89156
vt 0.66064 0.89424
vt 0.66117 0.89495
vt 0.66331 0.89246
vt 0.66385 0.89317
vt 0.66385 0.89585
vt 0.67278 0.89317
vt 0.67278 0.89585
vt 0.67332 0.89246
vt 0.67546 0.89495
vt 0.67600 0.89156
vt 0.67600 0.89424
vt 0.68493 0.89317
vt 0.68493 0.89585
vt 0.68546 0.89246
vt 0.68761 0.89495
vt 0.68814 0.89156
vt 0.68814 0.89424
vt 0.71547 0.00000
vt 0.71547 0.01312
vt 0.71547 0.42423
vt 0.71547 0.43735
vt 0.71547 0.44578
vt 0.71547 0.45890
vt 0.71547 0.87001
vt 0.71547 0.88313
vt 0.72938 0.01312
vt 0.72938 0.42423
vt 0.72938 0.45890
vt 0.72938 0.87001
vt 0.73831 0.41131
vt 0.73831 0.47540
vt 0.73831 0.80455
vt 0.73831 0.91389
vt 0.74063 0.80236
vt 0.74063 0.80455
vt 0.74063 0.91389
vt 0.74063 0.91608
vt 0.75222 0.00000
vt 0.75222 0.40203
vt 0.75222 0.42059
vt 0.75222 0.43914
vt 0.75222 0.44757
vt 0.75222 0.46613
vt 0.75222 0.48468
vt 0.75222 0.79394
vt 0.77308 0.80236
vt 0.77308 0.80455
vt 0.77308 0.91389
vt 0.77308 0.91608
vt 0.77540 0.80455
vt 0.77540 0.91389
vt 0.78003 0.00000
vt 0.78003 0.40203
vt 0.78003 0.42059
vt 0.78003 0.43914
vt 0.78003 0.44757
vt 0.78003 0.46613
vt 0.78003 0.48468
vt 0.78003 0.79394
vt 0.78433 0.80239
vt 0.78433 0.88128
vt 0.78526 0.80236
vt 0.78660 0.87967
vt 0.78670 0.88277
vt 0.78733 0.90440
vt 0.78753 0.87965
vt 0.78762 0.88274
vt 0.78826 0.90438
vt 0.78989 0.88113
vt 0.79394 0.41131
vt 0.79394 0.47540
vt 0.80288 0.41131
vt 0.80288 0.43829
vt 0.80288 0.78381
vt 0.80751 0.42902
vt 0.80751 0.43520
vt 0.80751 0.44139
vt 0.80751 0.76301
vt 0.81215 0.77144
vt 0.81215 0.77763
vt 0.81215 0.79000
vt 0.81215 0.96318
vt 0.81678 0.00000
vt 0.81678 0.40203
vt 0.81678 0.42059
vt 0.84460 0.00000
vt 0.84460 0.40203
vt 0.84460 0.42059
vt 0.84460 0.42902
vt 0.84460 0.43520
vt 0.84460 0.44139
vt 0.84460 0.76301
vt 0.84923 0.43829
vt 0.85817 0.75373
vt 0.85850 0.41131
vt 0.86280 0.42902
vt 0.86280 0.75064
vt 0.86280 0.75683
vt 0.86744 0.00875
vt 0.86744 0.25366
vt 0.86744 0.27085
vt 0.86744 0.41158
vt 0.86837 0.27084
vt 0.86973 0.41000
vt 0.86978 0.41309
vt 0.87066 0.40999
vt 0.87071 0.41308
vt 0.87300 0.41150
vt 0.87671 0.00000
vt 0.87671 0.00875
vt 0.87671 0.25366
vt 0.87671 0.26241
vt 0.88194 0.27085
vt 0.88194 0.41158
vt 0.88286 0.27084
vt 0.88423 0.41000
vt 0.88428 0.41309
vt 0.88515 0.40999
vt 0.88521 0.41308
vt 0.88598 0.00000
vt 0.88598 0.00875
vt 0.88598 0.25366
vt 0.88598 0.26241
vt 0.88750 0.41150
vt 0.89525 0.00875
vt 0.89525 0.25366
vt 0.89989 0.42902
vt 0.89989 0.75064
vt 0.89989 0.75683
vt 0.90419 0.00219
vt 0.90419 0.19900
vt 0.90419 0.21836
vt 0.90419 0.37581
vt 0.90419 0.39306
vt 0.90419 0.41636
vt 0.90452 0.75373
vt 0.90511 0.39298
vt 0.90634 0.41462
vt 0.90651 0.00000
vt 0.90651 0.00219
vt 0.90651 0.19900
vt 0.90651 0.20118
vt 0.90665 0.41769
vt 0.90726 0.41453
vt 0.90757 0.41761
vt 0.90973 0.41587
vt 0.91074 0.21836
vt 0.91074 0.37581
vt 0.91346 0.43776
vt 0.91346 0.59521
vt 0.91346 0.62171
vt 0.91562 0.61240
vt 0.91575 0.62013
vt 0.91580 0.62322
vt 0.91655 0.61239
vt 0.91668 0.62012
vt 0.91673 0.62321
vt 0.91730 0.20961
vt 0.91730 0.38455
vt 0.91809 0.00000
vt 0.91809 0.00219
vt 0.91809 0.19900
vt 0.91809 0.20118
vt 0.91809 0.76237
vt 0.91866 0.39459
vt 0.91866 0.39727
vt 0.91866 0.40730
vt 0.91866 0.40998
vt 0.91902 0.62163
vt 0.91902 0.76236
vt 0.91919 0.39387
vt 0.91919 0.40659
vt 0.92002 0.42902
vt 0.92002 0.60396
vt 0.92041 0.00219
vt 0.92041 0.19900
vt 0.92134 0.39637
vt 0.92134 0.40909
vt 0.92187 0.39298
vt 0.92187 0.39566
vt 0.92187 0.40569
vt 0.92187 0.40837
vt 0.92385 0.21836
vt 0.92385 0.37581
vt 0.92657 0.43776
vt 0.92657 0.59521
vt 0.92935 0.00219
vt 0.92935 0.15526
vt 0.92935 0.16806
vt 0.92935 0.19868
vt 0.93166 0.00000
vt 0.93166 0.00219
vt 0.93166 0.15526
vt 0.93166 0.15745
vt 0.93166 0.16588
vt 0.93166 0.16806
vt 0.93166 0.19868
vt 0.93166 0.20086
vt 0.93279 0.21180
vt 0.93279 0.36487
vt 0.93279 0.37986
vt 0.93279 0.41485
vt 0.93511 0.20961
vt 0.93511 0.21180
vt 0.93511 0.36487
vt 0.93511 0.36706
vt 0.93551 0.43120
vt 0.93551 0.58428
vt 0.93551 0.59708
vt 0.93551 0.75015
vt 0.93782 0.42902
vt 0.93782 0.43120
vt 0.93782 0.58428
vt 0.93782 0.58646
vt 0.93782 0.59489
vt 0.93782 0.59708
vt 0.93782 0.75015
vt 0.93782 0.75234
vt 0.93934 0.37986
vt 0.93934 0.41485
vt 0.94262 0.37549
vt 0.94262 0.41922
vt 0.94325 0.00000
vt 0.94325 0.00219
vt 0.94325 0.15526
vt 0.94325 0.15745
vt 0.94557 0.00219
vt 0.94557 0.15526
vt 0.94590 0.37986
vt 0.94590 0.41485
vt 0.94670 0.20961
vt 0.94670 0.21180
vt 0.94670 0.36487
vt 0.94670 0.36706
vt 0.94902 0.21180
vt 0.94902 0.36487
vt 0.94941 0.42902
vt 0.94941 0.43120
vt 0.94941 0.58428
vt 0.94941 0.58646
vt 0.94941 0.59489
vt 0.94941 0.59708
vt 0.94941 0.75015
vt 0.94941 0.75234
vt 0.95173 0.43120
vt 0.95173 0.58428
vt 0.95173 0.59708
vt 0.95173 0.75015
vt 0.95451 0.00932
vt 0.95484 0.41740
vt 0.95667 0.00001
vt 0.95680 0.00774
vt 0.95685 0.01084
vt 0.95699 0.41914
vt 0.95730 0.41606
vt 0.95760 0.00000
vt 0.95773 0.00773
vt 0.95778 0.01082
vt 0.95791 0.41922
vt 0.95795 0.21180
vt 0.95795 0.32114
vt 0.95795 0.34487
vt 0.95795 0.37111
vt 0.95822 0.41614
vt 0.95914 0.14998
vt 0.95945 0.39451
vt 0.96007 0.00924
vt 0.96007 0.14997
vt 0.96027 0.20961
vt 0.96027 0.21180
vt 0.96027 0.32114
vt 0.96027 0.32332
vt 0.96037 0.39459
vt 0.96037 0.41789
vt 0.96066 0.43120
vt 0.96066 0.54054
vt 0.96066 0.56428
vt 0.96066 0.59052
vt 0.96066 0.62519
vt 0.96066 0.65143
vt 0.96066 0.69586
vt 0.96066 0.71916
vt 0.96066 0.72776
vt 0.96066 0.75105
vt 0.96159 0.71924
vt 0.96159 0.72767
vt 0.96282 0.69761
vt 0.96282 0.74931
vt 0.96298 0.42902
vt 0.96298 0.43120
vt 0.96298 0.54054
vt 0.96298 0.54273
vt 0.96313 0.69453
vt 0.96313 0.75239
vt 0.96374 0.69769
vt 0.96374 0.74923
vt 0.96405 0.69461
vt 0.96405 0.75230
vt 0.96412 0.16588
vt 0.96412 0.16806
vt 0.96412 0.19868
vt 0.96412 0.20086
vt 0.96528 0.67298
vt 0.96620 0.67306
vt 0.96620 0.69636
vt 0.96620 0.75056
vt 0.96643 0.16806
vt 0.96643 0.19868
vt 0.96900 0.00437
vt 0.96900 0.03936
vt 0.96900 0.05654
vt 0.96900 0.09153
vt 0.96900 0.10870
vt 0.96900 0.14369
vt 0.97050 0.61207
vt 0.97050 0.66455
vt 0.97228 0.05216
vt 0.97228 0.09590
vt 0.97228 0.10433
vt 0.97228 0.14806
vt 0.97556 0.00437
vt 0.97556 0.03936
vt 0.97556 0.05654
vt 0.97556 0.09153
vt 0.97556 0.10870
vt 0.97556 0.14369
vt 0.97762 0.34487
vt 0.97762 0.37111
vt 0.97884 0.00000
vt 0.97884 0.04374
vt 0.97903 0.77144
vt 0.97903 0.77763
vt 0.97903 0.79000
vt 0.97903 0.96318
vt 0.98033 0.56428
vt 0.98033 0.59052
vt 0.98033 0.62519
vt 0.98033 0.65143
vt 0.98211 0.00437
vt 0.98211 0.03936
vt 0.98745 0.33175
vt 0.98745 0.38423
vt 0.98830 0.78381
vt 0.99017 0.55116
vt 0.99017 0.60364
vt 0.99272 0.20961
vt 0.99272 0.21180
vt 0.99272 0.32114
vt 0.99272 0.32332
vt 0.99504 0.21180
vt 0.99504 0.32114
vt 0.99543 0.42902
vt 0.99543 0.43120
vt 0.99543 0.54054
vt 0.99543 0.54273
vt 0.99728 0.34487
vt 0.99728 0.37111
vt 0.99775 0.43120
vt 0.99775 0.54054
vt 1.00000 0.56428
vt 1.00000 0.59052
s 0
usemtl Showcase_graphite
f 1/607/14 3/571/14 8/570/14
f 1/607/14 8/570/14 7/606/14
f 1/607/6 2/582/6 3/571/6
f 10/185/3 16/256/3 22/186/3
f 10/185/3 5/255/3 16/256/3
f 10/572/16 12/608/16 6/609/16
f 10/572/16 6/609/16 5/573/16
f 10/572/9 11/596/9 12/608/9
f 11/534/5 20/544/5 9/545/5
f 11/534/5 24/533/5 20/544/5
f 121/784/52 122/768/52 123/759/52
f 124/189/15 123/192/15 122/193/15
f 124/189/15 126/188/15 123/192/15
f 124/739/36 125/703/36 126/761/36
f 125/177/25 124/189/25 137/190/25
f 125/177/25 137/190/25 136/178/25
f 125/703/16 130/702/16 132/760/16
f 125/703/16 132/760/16 126/761/16
f 126/701/4 128/758/4 123/759/4
f 126/701/4 132/700/4 128/758/4
f 127/222/18 129/218/18 140/217/18
f 127/222/18 140/217/18 139/221/18
f 127/783/14 121/784/14 123/759/14
f 127/783/14 123/759/14 128/758/14
f 127/783/29 128/758/29 129/767/29
f 129/218/17 128/219/17 132/212/17
f 129/218/17 132/212/17 131/211/17
f 13/166/24 15/157/24 2/156/24
f 13/166/24 2/156/24 1/165/24
f 13/756/10 14/755/10 15/766/10
f 130/206/3 125/213/3 136/214/3
f 130/206/3 136/214/3 142/207/3
f 130/702/48 131/738/48 132/760/48
f 131/211/5 140/217/5 129/218/5
f 131/211/5 144/210/5 140/217/5
f 133/203/24 122/193/24 121/202/24
f 133/203/24 135/194/24 122/193/24
f 133/481/21 139/467/21 141/466/21
f 133/481/21 141/466/21 134/480/21
f 133/481/31 134/480/31 135/494/31
f 135/194/23 134/195/23 138/191/23
f 135/194/23 138/191/23 137/190/23
f 136/214/49 137/220/49 138/215/49
f 137/190/1 122/193/1 135/194/1
f 137/190/1 124/189/1 122/193/1
f 139/467/26 121/482/26 127/468/26
f 139/467/26 133/481/26 121/482/26
f 139/467/53 140/454/53 141/466/53
f 141/216/20 140/217/20 144/210/20
f 141/216/20 144/210/20 143/209/20
f 142/204/19 131/211/19 130/205/19
f 142/204/19 144/210/19 131/211/19
f 142/207/22 136/214/22 138/215/22
f 142/207/22 138/215/22 143/208/22
f 142/207/47 143/208/47 144/201/47
f 143/465/2 134/480/2 141/466/2
f 143/465/2 138/479/2 134/480/2
f 15/157/23 14/158/23 18/144/23
f 15/157/23 18/144/23 17/143/23
f 16/256/11 17/265/11 18/257/11
f 16/256/22 18/257/22 23/187/22
f 16/256/22 23/187/22 22/186/22
f 17/143/1 2/156/1 15/157/1
f 17/143/1 4/142/1 2/156/1
f 19/504/12 20/497/12 21/503/12
f 19/504/21 14/755/21 13/756/21
f 19/504/21 21/503/21 14/755/21
f 19/504/26 1/757/26 7/505/26
f 19/504/26 13/756/26 1/757/26
f 193/267/14 195/266/14 200/268/14
f 193/267/14 200/268/14 199/269/14
f 193/267/54 194/263/54 195/266/54
f 196/417/28 197/420/28 198/418/28
f 196/54/15 195/63/15 194/64/15
f 196/54/15 198/53/15 195/63/15
f 197/49/25 196/54/25 209/55/25
f 197/49/25 209/55/25 208/50/25
f 198/262/4 200/268/4 195/266/4
f 198/262/4 204/264/4 200/268/4
f 199/123/18 201/119/18 212/118/18
f 199/123/18 212/118/18 211/122/18
f 199/269/55 200/268/55 201/274/55
f 201/119/17 200/120/17 204/106/17
f 201/119/17 204/106/17 203/105/17
f 202/421/16 198/418/16 197/420/16
f 202/421/16 204/419/16 198/418/16
f 202/421/56 203/422/56 204/419/56
f 202/524/3 197/526/3 208/529/3
f 202/524/3 208/529/3 214/527/3
f 203/105/5 212/118/5 201/119/5
f 203/105/5 216/104/5 212/118/5
f 205/580/57 206/579/57 207/592/57
f 205/68/24 194/64/24 193/67/24
f 205/68/24 207/65/24 194/64/24
f 207/65/23 206/66/23 210/56/23
f 207/65/23 210/56/23 209/55/23
f 208/529/22 210/530/22 215/528/22
f 208/529/22 215/528/22 214/527/22
f 208/529/58 209/531/58 210/530/58
f 209/55/1 194/64/1 207/65/1
f 209/55/1 196/54/1 194/64/1
f 21/543/20 20/544/20 24/533/20
f 21/543/20 24/533/20 23/532/20
f 211/577/21 206/579/21 205/580/21
f 211/577/21 213/576/21 206/579/21
f 211/577/26 193/593/26 199/587/26
f 211/577/26 205/580/26 193/593/26
f 211/577/59 212/574/59 213/576/59
f 213/117/20 212/118/20 216/104/20
f 213/117/20 216/104/20 215/103/20
f 214/100/19 203/105/19 202/101/19
f 214/100/19 216/104/19 203/105/19
f 214/527/60 215/528/60 216/525/60
f 215/575/2 206/579/2 213/576/2
f 215/575/2 210/578/2 206/579/2
f 217/401/14 219/400/14 224/402/14
f 217/401/14 224/402/14 223/403/14
f 217/401/54 218/398/54 219/400/54
f 22/186/13 23/187/13 24/180/13
f 22/522/19 11/534/19 10/523/19
f 22/522/19 24/533/19 11/534/19
f 220/430/28 221/429/28 222/432/28
f 220/615/15 219/646/15 218/647/15
f 220/615/15 222/614/15 219/646/15
f 221/610/25 220/615/25 233/616/25
f 221/610/25 233/616/25 232/611/25
f 222/397/4 224/402/4 219/400/4
f 222/397/4 228/399/4 224/402/4
f 223/403/55 224/402/55 225/404/55
f 223/659/18 225/656/18 236/655/18
f 223/659/18 236/655/18 235/658/18
f 225/656/17 224/657/17 228/629/17
f 225/656/17 228/629/17 227/628/17
f 226/307/3 221/309/3 232/306/3
f 226/307/3 232/306/3 238/304/3
f 226/431/16 222/432/16 221/429/16
f 226/431/16 228/434/16 222/432/16
f 226/431/56 227/433/56 228/434/56
f 227/628/5 236/655/5 225/656/5
f 227/628/5 240/627/5 236/655/5
f 229/136/57 230/137/57 231/140/57
f 229/651/24 218/647/24 217/650/24
f 229/651/24 231/648/24 218/647/24
f 23/502/2 14/755/2 21/503/2
f 23/502/2 18/754/2 14/755/2
f 231/648/23 230/649/23 234/617/23
f 231/648/23 234/617/23 233/616/23
f 232/306/22 234/305/22 239/303/22
f 232/306/22 239/303/22 238/304/22
f 232/306/58 233/310/58 234/305/58
f 233/616/1 218/647/1 231/648/1
f 233/616/1 220/615/1 218/647/1
f 235/133/21 230/137/21 229/136/21
f 235/133/21 237/134/21 230/137/21
f 235/133/26 217/132/26 223/131/26
f 235/133/26 229/136/26 217/132/26
f 235/133/59 236/130/59 237/134/59
f 237/654/20 236/655/20 240/627/20
f 237/654/20 240/627/20 239/626/20
f 238/304/60 239/303/60 240/298/60
f 238/622/19 227/628/19 226/623/19
f 238/622/19 240/627/19 227/628/19
f 239/135/2 230/137/2 237/134/2
f 239/135/2 234/138/2 230/137/2
f 289/385/14 291/384/14 296/386/14
f 289/385/14 296/386/14 295/387/14
f 289/385/54 290/382/54 291/384/54
f 292/423/28 293/426/28 294/424/28
f 292/74/15 291/87/15 290/88/15
f 292/74/15 294/73/15 291/87/15
f 293/71/25 292/74/25 305/75/25
f 293/71/25 305/75/25 304/72/25
f 294/381/4 296/386/4 291/384/4
f 294/381/4 300/383/4 296/386/4
f 295/387/55 296/386/55 297/388/55
f 295/599/18 297/585/18 308/584/18
f 295/599/18 308/584/18 307/598/18
f 297/585/17 296/586/17 300/565/17
f 297/585/17 300/565/17 299/564/17
f 298/427/16 294/424/16 293/426/16
f 298/427/16 300/425/16 294/424/16
f 298/427/56 299/428/56 300/425/56
f 298/536/3 293/538/3 304/541/3
f 298/536/3 304/541/3 310/539/3
f 299/564/5 308/584/5 297/585/5
f 299/564/5 312/563/5 308/584/5
f 301/681/57 302/680/57 303/690/57
f 301/92/24 290/88/24 289/91/24
f 301/92/24 303/89/24 290/88/24
f 303/89/23 302/90/23 306/76/23
f 303/89/23 306/76/23 305/75/23
f 304/541/22 306/542/22 311/540/22
f 304/541/22 311/540/22 310/539/22
f 304/541/58 305/547/58 306/542/58
f 305/75/1 290/88/1 303/89/1
f 305/75/1 292/74/1 290/88/1
f 307/676/21 302/680/21 301/681/21
f 307/676/21 309/675/21 302/680/21
f 307/676/26 289/691/26 295/688/26
f 307/676/26 301/681/26 289/691/26
f 307/676/59 308/672/59 309/675/59
f 309/583/20 308/584/20 312/563/20
f 309/583/20 312/563/20 311/562/20
f 310/539/60 311/540/60 312/537/60
f 310/553/19 299/564/19 298/554/19
f 310/553/19 312/563/19 299/564/19
f 311/674/2 302/680/2 309/675/2
f 311/674/2 306/679/2 302/680/2
f 313/393/14 315/392/14 320/394/14
f 313/393/14 320/394/14 319/395/14
f 313/393/54 314/390/54 315/392/54
f 316/436/28 317/435/28 318/438/28
f 316/635/15 315/660/15 314/661/15
f 316/635/15 318/634/15 315/660/15
f 317/630/25 316/635/25 329/636/25
f 317/630/25 329/636/25 328/631/25
f 318/389/4 320/394/4 315/392/4
f 318/389/4 324/391/4 320/394/4
f 319/395/55 320/394/55 321/396/55
f 319/671/18 321/666/18 332/665/18
f 319/671/18 332/665/18 331/670/18
f 321/666/17 320/667/17 324/641/17
f 321/666/17 324/641/17 323/640/17
f 322/167/3 317/169/3 328/172/3
f 322/167/3 328/172/3 334/170/3
f 322/437/16 318/438/16 317/435/16
f 322/437/16 324/440/16 318/438/16
f 322/437/56 323/439/56 324/440/56
f 323/640/5 332/665/5 321/666/5
f 323/640/5 336/639/5 332/665/5
f 325/154/57 326/153/57 327/160/57
f 325/669/24 314/661/24 313/668/24
f 325/669/24 327/662/24 314/661/24
f 327/662/23 326/663/23 330/637/23
f 327/662/23 330/637/23 329/636/23
f 328/172/22 330/173/22 335/171/22
f 328/172/22 335/171/22 334/170/22
f 328/172/58 329/174/58 330/173/58
f 329/636/1 314/661/1 327/662/1
f 329/636/1 316/635/1 314/661/1
f 331/151/21 326/153/21 325/154/21
f 331/151/21 333/150/21 326/153/21
f 331/151/26 313/161/26 319/159/26
f 331/151/26 325/154/26 313/161/26
f 331/151/59 332/148/59 333/150/59
f 333/664/20 332/665/20 336/639/20
f 333/664/20 336/639/20 335/638/20
f 334/170/60 335/171/60 336/168/60
f 334/632/19 323/640/19 322/633/19
f 334/632/19 336/639/19 323/640/19
f 335/149/2 326/153/2 333/150/2
f 335/149/2 330/152/2 326/153/2
f 4/142/15 3/155/15 2/156/15
f 4/142/15 6/141/15 3/155/15
f 4/597/7 5/573/7 6/609/7
f 5/128/25 17/143/25 16/129/25
f 5/128/25 4/142/25 17/143/25
f 6/556/4 12/555/4 8/570/4
f 6/556/4 8/570/4 3/571/4
f 7/549/18 20/544/18 19/548/18
f 7/549/18 9/545/18 20/544/18
f 7/606/8 8/570/8 9/581/8
f 9/545/17 12/535/17 11/534/17
f 9/545/17 8/546/17 12/535/17
usemtl Showcase_graphite_metal
f 25/508/14 27/507/14 32/510/14
f 25/508/14 32/510/14 31/511/14
f 25/508/27 26/495/27 27/507/27
f 28/12/28 29/6/28 30/21/28
f 28/46/15 27/62/15 26/47/15
f 28/46/15 30/61/15 27/62/15
f 29/45/25 28/46/25 41/15/25
f 29/45/25 41/15/25 40/14/25
f 30/506/4 32/510/4 27/507/4
f 30/506/4 36/509/4 32/510/4
f 31/511/29 32/510/29 33/518/29
f 31/80/18 33/79/18 44/109/18
f 31/80/18 44/109/18 43/110/18
f 33/79/17 32/70/17 36/69/17
f 33/79/17 36/69/17 35/78/17
f 34/5/16 30/21/16 29/6/16
f 34/5/16 36/20/16 30/21/16
f 34/5/30 35/11/30 36/20/30
f 34/686/3 29/685/3 40/750/3
f 34/686/3 40/750/3 46/751/3
f 35/78/5 44/109/5 33/79/5
f 35/78/5 48/108/5 44/109/5
f 37/17/24 26/47/24 25/48/24
f 37/17/24 39/16/24 26/47/24
f 37/477/31 38/476/31 39/493/31
f 39/16/23 38/2/23 42/1/23
f 39/16/23 42/1/23 41/15/23
f 40/750/22 42/779/22 47/780/22
f 40/750/22 47/780/22 46/751/22
f 40/750/32 41/764/32 42/779/32
f 41/15/1 26/47/1 39/16/1
f 41/15/1 28/46/1 26/47/1
f 43/463/21 38/476/21 37/477/21
f 43/463/21 45/462/21 38/476/21
f 43/463/26 25/478/26 31/464/26
f 43/463/26 37/477/26 25/478/26
f 43/463/33 44/453/33 45/462/33
f 45/126/20 44/109/20 48/108/20
f 45/126/20 48/108/20 47/125/20
f 46/107/19 35/78/19 34/77/19
f 46/107/19 48/108/19 35/78/19
f 46/751/34 47/780/34 48/765/34
f 47/461/2 38/476/2 45/462/2
f 47/461/2 42/475/2 38/476/2
usemtl Showcase_steel
f 100/271/15 102/270/15 99/277/15
f 100/271/15 99/277/15 98/278/15
f 100/741/36 101/735/36 102/747/36
f 101/258/25 100/271/25 113/272/25
f 101/258/25 113/272/25 112/259/25
f 102/625/4 104/642/4 99/643/4
f 102/625/4 108/624/4 104/642/4
f 103/316/18 105/313/18 116/312/18
f 103/316/18 116/312/18 115/315/18
f 103/652/29 104/642/29 105/644/29
f 105/313/17 104/314/17 108/302/17
f 105/313/17 108/302/17 107/301/17
f 106/230/3 101/249/3 112/250/3
f 106/230/3 112/250/3 118/231/3
f 106/734/16 102/747/16 101/735/16
f 106/734/16 108/746/16 102/747/16
f 106/734/48 107/740/48 108/746/48
f 107/301/5 116/312/5 105/313/5
f 107/301/5 120/300/5 116/312/5
f 109/198/31 110/197/31 111/200/31
f 109/286/24 111/279/24 98/278/24
f 109/286/24 98/278/24 97/285/24
f 111/279/23 110/280/23 114/273/23
f 111/279/23 114/273/23 113/272/23
f 112/250/22 114/251/22 119/232/22
f 112/250/22 119/232/22 118/231/22
f 112/250/49 113/254/49 114/251/49
f 113/272/1 100/271/1 98/278/1
f 113/272/1 98/278/1 111/279/1
f 115/183/21 110/197/21 109/198/21
f 115/183/21 117/182/21 110/197/21
f 115/183/26 109/198/26 97/199/26
f 115/183/26 97/199/26 103/184/26
f 115/183/50 116/179/50 117/182/50
f 117/311/20 116/312/20 120/300/20
f 117/311/20 120/300/20 119/299/20
f 118/231/51 119/232/51 120/225/51
f 118/296/19 107/301/19 106/297/19
f 118/296/19 120/300/19 107/301/19
f 119/181/2 110/197/2 117/182/2
f 119/181/2 114/196/2 110/197/2
f 49/763/14 51/745/14 56/744/14
f 49/763/14 56/744/14 55/762/14
f 49/763/35 50/753/35 51/745/35
f 52/227/15 51/233/15 50/234/15
f 52/227/15 54/226/15 51/233/15
f 52/743/36 53/737/36 54/749/36
f 53/223/25 52/227/25 65/228/25
f 53/223/25 65/228/25 64/224/25
f 54/733/4 56/744/4 51/745/4
f 54/733/4 60/732/4 56/744/4
f 55/253/18 57/247/18 68/246/18
f 55/253/18 68/246/18 67/252/18
f 55/762/37 56/744/37 57/752/37
f 57/247/17 56/248/17 60/244/17
f 57/247/17 60/244/17 59/243/17
f 58/519/3 53/550/3 64/551/3
f 58/519/3 64/551/3 70/520/3
f 58/736/16 54/749/16 53/737/16
f 58/736/16 60/748/16 54/749/16
f 58/736/38 59/742/38 60/748/38
f 59/243/5 68/246/5 57/247/5
f 59/243/5 72/242/5 68/246/5
f 61/238/24 50/234/24 49/237/24
f 61/238/24 63/235/24 50/234/24
f 61/514/39 62/513/39 63/516/39
f 63/235/23 62/236/23 66/229/23
f 63/235/23 66/229/23 65/228/23
f 64/551/22 66/552/22 71/521/22
f 64/551/22 71/521/22 70/520/22
f 64/551/40 65/559/40 66/552/40
f 65/228/1 50/234/1 63/235/1
f 65/228/1 52/227/1 50/234/1
f 67/500/21 62/513/21 61/514/21
f 67/500/21 69/499/21 62/513/21
f 67/500/26 49/515/26 55/501/26
f 67/500/26 61/514/26 49/515/26
f 67/500/33 68/496/33 69/499/33
f 69/245/20 68/246/20 72/242/20
f 69/245/20 72/242/20 71/241/20
f 70/239/19 59/243/19 58/240/19
f 70/239/19 72/242/19 59/243/19
f 70/520/34 71/521/34 72/517/34
f 71/498/2 62/513/2 69/499/2
f 71/498/2 66/512/2 62/513/2
f 97/653/14 104/642/14 103/652/14
f 97/653/14 99/643/14 104/642/14
f 97/653/35 98/645/35 99/643/35
usemtl Showcase_porcelain
f 73/18/14 75/13/14 80/24/14
f 73/18/14 80/24/14 79/25/14
f 73/18/41 74/4/41 75/13/41
f 76/328/15 75/441/15 74/442/15
f 76/328/15 78/327/15 75/441/15
f 76/8/42 77/7/42 78/19/42
f 77/317/25 76/328/25 89/329/25
f 77/317/25 89/329/25 88/318/25
f 78/3/4 80/24/4 75/13/4
f 78/3/4 84/10/4 80/24/4
f 79/25/43 80/24/43 81/44/43
f 79/452/18 81/447/18 92/446/18
f 79/452/18 92/446/18 91/451/18
f 81/447/17 80/448/17 84/334/17
f 81/447/17 84/334/17 83/333/17
f 82/260/3 77/275/3 88/294/3
f 82/260/3 88/294/3 94/276/3
f 82/9/16 78/19/16 77/7/16
f 82/9/16 84/23/16 78/19/16
f 82/9/44 83/22/44 84/23/44
f 83/333/5 92/446/5 81/447/5
f 83/333/5 96/332/5 92/446/5
f 85/163/45 86/162/45 87/175/45
f 85/450/24 74/442/24 73/449/24
f 85/450/24 87/443/24 74/442/24
f 87/443/23 86/444/23 90/330/23
f 87/443/23 90/330/23 89/329/23
f 88/294/22 90/295/22 95/281/22
f 88/294/22 95/281/22 94/276/22
f 88/294/40 89/308/40 90/295/40
f 89/329/1 74/442/1 87/443/1
f 89/329/1 76/328/1 74/442/1
f 91/147/21 86/162/21 85/163/21
f 91/147/21 93/145/21 86/162/21
f 91/147/26 73/176/26 79/164/26
f 91/147/26 85/163/26 73/176/26
f 91/147/46 92/127/46 93/145/46
f 93/445/20 92/446/20 96/332/20
f 93/445/20 96/332/20 95/331/20
f 94/276/47 95/281/47 96/261/47
f 94/319/19 83/333/19 82/320/19
f 94/319/19 96/332/19 83/333/19
f 95/139/2 86/162/2 93/145/2
f 95/139/2 90/146/2 86/162/2
usemtl Showcase_amber
f 145/115/14 147/114/14 152/116/14
f 145/115/14 152/116/14 151/121/14
f 145/115/35 146/112/35 147/114/35
f 148/470/15 147/474/15 146/471/15
f 148/470/15 150/473/15 147/474/15
f 148/589/36 149/588/36 150/600/36
f 149/469/25 148/470/25 161/458/25
f 149/469/25 161/458/25 160/457/25
f 150/111/4 152/116/4 147/114/4
f 150/111/4 156/113/4 152/116/4
f 151/121/29 152/116/29 153/124/29
f 151/60/18 153/59/18 164/83/18
f 151/60/18 164/83/18 163/84/18
f 153/59/17 152/52/17 156/51/17
f 153/59/17 156/51/17 155/58/17
f 154/594/16 150/600/16 149/588/16
f 154/594/16 156/603/16 150/600/16
f 154/594/48 155/602/48 156/603/48
f 154/689/3 149/696/3 160/687/3
f 154/689/3 160/687/3 166/678/3
f 155/58/5 164/83/5 153/59/5
f 155/58/5 168/82/5 164/83/5
f 157/291/31 158/290/31 159/293/31
f 157/460/24 146/471/24 145/472/24
f 157/460/24 159/459/24 146/471/24
f 159/459/23 158/456/23 162/455/23
f 159/459/23 162/455/23 161/458/23
f 160/687/22 162/682/22 167/677/22
f 160/687/22 167/677/22 166/678/22
f 160/687/49 161/697/49 162/682/49
f 161/458/1 146/471/1 159/459/1
f 161/458/1 148/470/1 146/471/1
f 163/288/21 158/290/21 157/291/21
f 163/288/21 165/287/21 158/290/21
f 163/288/26 145/292/26 151/289/26
f 163/288/26 157/291/26 145/292/26
f 163/288/50 164/283/50 165/287/50
f 165/86/20 164/83/20 168/82/20
f 165/86/20 168/82/20 167/85/20
f 166/678/51 167/677/51 168/673/51
f 166/81/19 155/58/19 154/57/19
f 166/81/19 168/82/19 155/58/19
f 167/282/2 158/290/2 165/287/2
f 167/282/2 162/284/2 158/290/2
f 169/34/14 171/35/14 176/38/14
f 169/34/14 176/38/14 175/37/14
f 169/34/54 170/29/54 171/35/54
f 172/591/28 173/590/28 174/601/28
f 172/619/15 171/722/15 170/723/15
f 172/619/15 174/618/15 171/722/15
f 173/612/25 172/619/25 185/620/25
f 173/612/25 185/620/25 184/613/25
f 174/41/4 176/38/4 171/35/4
f 174/41/4 180/42/4 176/38/4
f 175/340/18 177/337/18 188/336/18
f 175/340/18 188/336/18 187/339/18
f 175/37/55 176/38/55 177/43/55
f 177/337/17 176/338/17 180/326/17
f 177/337/17 180/326/17 179/325/17
f 178/557/3 173/560/3 184/567/3
f 178/557/3 184/567/3 190/561/3
f 178/595/16 174/601/16 173/590/16
f 178/595/16 180/605/16 174/601/16
f 178/595/56 179/604/56 180/605/56
f 179/325/5 188/336/5 177/337/5
f 179/325/5 192/324/5 188/336/5
f 181/718/57 182/720/57 183/728/57
f 181/731/24 170/723/24 169/730/24
f 181/731/24 183/724/24 170/723/24
f 183/724/23 182/725/23 186/621/23
f 183/724/23 186/621/23 185/620/23
f 184/567/22 186/568/22 191/566/22
f 184/567/22 191/566/22 190/561/22
f 184/567/58 185/569/58 186/568/58
f 185/620/1 170/723/1 183/724/1
f 185/620/1 172/619/1 170/723/1
f 187/710/21 182/720/21 181/718/21
f 187/710/21 189/716/21 182/720/21
f 187/710/26 169/708/26 175/705/26
f 187/710/26 181/718/26 169/708/26
f 187/710/59 188/704/59 189/716/59
f 189/335/20 188/336/20 192/324/20
f 189/335/20 192/324/20 191/323/20
f 190/321/19 179/325/19 178/322/19
f 190/321/19 192/324/19 179/325/19
f 190/561/60 191/566/60 192/558/60
f 191/726/2 182/720/2 189/716/2
f 191/726/2 186/727/2 182/720/2
f 241/97/14 243/96/14 248/98/14
f 241/97/14 248/98/14 247/99/14
f 241/97/35 242/94/35 243/96/35
f 244/406/36 245/405/36 246/408/36
f 244/770/15 243/774/15 242/771/15
f 244/770/15 246/773/15 243/774/15
f 245/769/25 244/770/25 257/693/25
f 245/769/25 257/693/25 256/692/25
f 246/93/4 248/98/4 243/96/4
f 246/93/4 252/95/4 248/98/4
f 247/715/18 249/714/18 260/777/18
f 247/715/18 260/777/18 259/778/18
f 247/99/29 248/98/29 249/102/29
f 249/714/17 248/699/17 252/698/17
f 249/714/17 252/698/17 251/713/17
f 250/407/16 246/408/16 245/405/16
f 250/407/16 252/410/16 246/408/16
f 250/407/48 251/409/48 252/410/48
f 250/706/3 245/709/3 256/719/3
f 250/706/3 256/719/3 262/711/3
f 251/713/5 260/777/5 249/714/5
f 251/713/5 264/776/5 260/777/5
f 253/490/31 254/489/31 255/492/31
f 253/695/24 242/771/24 241/772/24
f 253/695/24 255/694/24 242/771/24
f 255/694/23 254/684/23 258/683/23
f 255/694/23 258/683/23 257/693/23
f 256/719/22 258/721/22 263/717/22
f 256/719/22 263/717/22 262/711/22
f 256/719/49 257/729/49 258/721/49
f 257/693/1 242/771/1 255/694/1
f 257/693/1 244/770/1 242/771/1
f 259/487/21 254/489/21 253/490/21
f 259/487/21 261/486/21 254/489/21
f 259/487/26 241/491/26 247/488/26
f 259/487/26 253/490/26 241/491/26
f 259/487/50 260/484/50 261/486/50
f 261/782/20 260/777/20 264/776/20
f 261/782/20 264/776/20 263/781/20
f 262/711/51 263/717/51 264/707/51
f 262/775/19 251/713/19 250/712/19
f 262/775/19 264/776/19 251/713/19
f 263/483/2 254/489/2 261/486/2
f 263/483/2 258/485/2 254/489/2
f 265/377/14 267/376/14 272/378/14
f 265/377/14 272/378/14 271/379/14
f 265/377/54 266/374/54 267/376/54
f 268/344/15 267/347/15 266/348/15
f 268/344/15 270/343/15 267/347/15
f 268/412/28 269/411/28 270/414/28
f 269/341/25 268/344/25 281/345/25
f 269/341/25 281/345/25 280/342/25
f 270/373/4 272/378/4 267/376/4
f 270/373/4 276/375/4 272/378/4
f 271/364/18 273/361/18 284/360/18
f 271/364/18 284/360/18 283/363/18
f 271/379/55 272/378/55 273/380/55
f 273/361/17 272/362/17 276/358/17
f 273/361/17 276/358/17 275/357/17
f 274/370/3 269/371/3 280/369/3
f 274/370/3 280/369/3 286/367/3
f 274/413/16 270/414/16 269/411/16
f 274/413/16 276/416/16 270/414/16
f 274/413/56 275/415/56 276/416/56
f 275/357/5 284/360/5 273/361/5
f 275/357/5 288/356/5 284/360/5
f 277/33/57 278/32/57 279/39/57
f 277/352/24 266/348/24 265/351/24
f 277/352/24 279/349/24 266/348/24
f 279/349/23 278/350/23 282/346/23
f 279/349/23 282/346/23 281/345/23
f 280/369/22 282/368/22 287/366/22
f 280/369/22 287/366/22 286/367/22
f 280/369/58 281/372/58 282/368/58
f 281/345/1 266/348/1 279/349/1
f 281/345/1 268/344/1 266/348/1
f 283/31/21 278/32/21 277/33/21
f 283/31/21 285/30/21 278/32/21
f 283/31/26 265/40/26 271/36/26
f 283/31/26 277/33/26 265/40/26
f 283/31/59 284/27/59 285/30/59
f 285/359/20 284/360/20 288/356/20
f 285/359/20 288/356/20 287/355/20
f 286/353/19 275/357/19 274/354/19
f 286/353/19 288/356/19 275/357/19
f 286/367/60 287/366/60 288/365/60
f 287/26/2 278/32/2 285/30/2
f 287/26/2 282/28/2 278/32/2
