# Blender 4.0.2
# www.blender.org
mtllib light_pylon_collision.mtl
o light_pylon_collision
v 0.118632 0.000000 0.286403
v 0.129304 0.030737 0.314987
v -0.118632 0.000000 0.286403
v -0.130112 0.030000 0.314119
v -0.286403 0.000000 0.118632
v -0.286403 0.000000 -0.118632
v -0.118632 0.000000 -0.286403
v 0.118632 0.000000 -0.286403
v 0.286403 0.000000 -0.118632
v 0.314195 0.030038 -0.130027
v 0.286403 0.000000 0.118632
v -0.314200 0.030038 0.130011
v -0.314251 0.030090 -0.129954
v -0.130112 0.030000 -0.314119
v 0.129304 0.030737 -0.314987
v 0.314251 0.030036 0.129954
v -0.130112 0.110000 0.314119
v -0.130112 0.110000 -0.314119
v 0.280025 2.979992 -0.180002
v 0.280000 3.000000 -0.160000
v 0.299997 2.979993 -0.160023
v 0.299996 2.979998 0.160023
v 0.280026 2.979988 0.180001
v 0.280000 3.000000 0.160000
v -0.280000 3.000000 -0.160000
v -0.280025 2.979988 -0.180002
v -0.299996 2.979998 -0.160023
v -0.280024 2.979991 0.180003
v -0.299997 2.979993 0.160023
v -0.280000 3.000000 0.160000
vn 0.5234 -0.6706 -0.5257
vn -0.0000 -0.6810 -0.7323
vn -0.0005 -0.6787 -0.7344
vn -0.0033 -0.0000 -1.0000
vn 0.0105 0.0452 -0.9989
vn 0.7072 -0.0038 -0.7070
vn 1.0000 0.0048 -0.0000
vn 1.0000 0.0048 -0.0002
vn 0.7333 -0.6799 -0.0000
vn 0.7340 -0.6792 -0.0002
vn 0.5197 -0.6780 -0.5197
vn -0.0000 -1.0000 -0.0000
vn -0.5203 -0.6773 -0.5203
vn -0.5196 -0.6785 -0.5192
vn -0.7072 -0.0038 -0.7070
vn -0.6668 -0.0000 -0.7453
vn -0.0000 0.0467 -0.9989
vn -0.0000 0.7069 -0.7073
vn -0.0000 0.7070 -0.7072
vn 0.5773 0.5777 -0.5771
vn 0.7072 0.7070 -0.0000
vn 0.7073 0.7069 -0.0000
vn 0.5198 -0.6779 0.5198
vn 0.7073 -0.0038 0.7069
vn 0.5234 -0.6706 0.5257
vn -0.7339 -0.6792 -0.0000
vn -1.0000 0.0048 -0.0000
vn -1.0000 0.0048 0.0002
vn -0.7073 0.7069 -0.0000
vn -0.7072 0.7070 -0.0000
vn -0.5772 0.5777 -0.5772
vn -0.0000 1.0000 -0.0000
vn 0.5772 0.5777 0.5772
vn 0.7072 -0.0038 0.7070
vn -0.0000 -0.6810 0.7323
vn 0.0105 0.0452 0.9989
vn -0.0033 -0.0000 1.0000
vn -0.0005 -0.6787 0.7344
vn -0.5198 -0.6780 0.5198
vn -0.5195 -0.6786 0.5193
vn -0.7071 -0.0038 0.7071
vn -0.5773 0.5776 0.5771
vn -0.7072 -0.0038 0.7070
vn -0.0000 0.7070 0.7072
vn -0.0000 0.7069 0.7073
vn -0.0000 0.0467 0.9989
vn -0.6668 -0.0000 0.7453
vt 0.00000 0.00761
vt 0.00000 0.98873
vt 0.00707 0.00092
vt 0.00711 0.00778
vt 0.06585 0.99008
vt 0.06967 1.00000
vt 0.15394 0.99961
vt 0.15785 0.96328
vt 0.15799 0.98989
vt 0.20596 0.00000
vt 0.20603 0.00686
vt 0.21310 0.00662
vt 0.21656 0.00662
vt 0.22364 0.00686
vt 0.22370 0.00000
vt 0.27169 0.98989
vt 0.27183 0.96328
vt 0.27574 0.99961
vt 0.36001 1.00000
vt 0.36383 0.99008
vt 0.42255 0.00778
vt 0.42259 0.00092
vt 0.42966 0.00760
vt 0.42966 0.98873
vt 0.43312 0.98830
vt 0.48076 0.00666
vt 0.48786 0.00669
vt 0.48787 0.00000
vt 0.49852 0.98858
vt 0.50256 0.99854
vt 0.58683 0.99854
vt 0.59085 0.98857
vt 0.60152 0.00000
vt 0.60153 0.00669
vt 0.60863 0.00666
vt 0.65626 0.98830
vt 0.65972 0.00669
vt 0.65973 0.00000
vt 0.67037 0.98858
vt 0.67442 0.99854
vt 0.75869 0.99854
vt 0.76271 0.98858
vt 0.77338 0.00000
vt 0.77339 0.00669
vt 0.77685 0.06121
vt 0.77685 0.14787
vt 0.77685 0.21237
vt 0.77685 0.39876
vt 0.78669 0.06507
vt 0.78670 0.14405
vt 0.84179 0.20913
vt 0.84213 0.00001
vt 0.84628 0.00923
vt 0.84629 0.19989
vt 0.89051 0.21237
vt 0.89051 0.39876
vt 0.93055 0.00923
vt 0.93056 0.19988
vt 0.93463 0.00000
vt 0.93471 0.20910
vt 0.99014 0.06506
vt 0.99015 0.14404
vt 0.99999 0.14789
vt 1.00000 0.06085
s 0
usemtl Showcase_collision
f 1/54/23 11/58/23 16/60/23
f 10/63/1 8/61/1 15/64/1
f 12/29/27 29/27/27 27/34/27
f 12/29/28 27/34/28 13/32/28
f 13/32/15 27/34/15 14/36/15
f 13/52/14 14/59/14 7/57/14
f 14/16/4 18/17/4 15/20/4
f 16/42/10 9/40/10 10/39/10
f 16/42/9 11/41/9 9/40/9
f 17/8/37 4/9/37 2/5/37
f 18/17/5 19/21/5 15/20/5
f 19/21/6 21/23/6 15/20/6
f 2/5/35 3/7/35 1/6/35
f 2/51/25 1/54/25 16/60/25
f 20/22/20 21/23/20 19/21/20
f 20/38/21 24/43/21 22/44/21
f 20/38/22 22/44/22 21/37/22
f 21/23/6 10/24/6 15/20/6
f 21/37/7 22/44/7 16/42/7
f 21/37/8 16/42/8 10/39/8
f 22/1/24 2/5/24 16/2/24
f 23/4/34 2/5/34 22/1/34
f 23/4/36 17/8/36 2/5/36
f 24/3/33 23/4/33 22/1/33
f 25/15/31 26/14/31 27/13/31
f 25/47/32 24/56/32 20/48/32
f 25/47/32 30/55/32 24/56/32
f 26/14/16 18/17/16 14/16/16
f 26/14/17 19/21/17 18/17/17
f 26/14/18 25/15/18 20/22/18
f 26/14/19 20/22/19 19/21/19
f 27/34/15 26/35/15 14/36/15
f 28/11/42 30/10/42 29/12/42
f 28/11/45 23/4/45 24/3/45
f 28/11/46 17/8/46 23/4/46
f 28/11/47 4/9/47 17/8/47
f 29/27/29 30/28/29 25/33/29
f 29/27/30 25/33/30 27/34/30
f 3/50/39 12/45/39 5/49/39
f 3/50/40 4/46/40 12/45/40
f 30/10/44 28/11/44 24/3/44
f 4/25/41 29/27/41 12/29/41
f 4/25/43 28/26/43 29/27/43
f 4/9/38 3/7/38 2/5/38
f 5/30/26 12/29/26 13/32/26
f 5/30/26 13/32/26 6/31/26
f 6/53/13 13/52/13 7/57/13
f 7/18/3 14/16/3 15/20/3
f 8/19/2 7/18/2 15/20/2
f 9/62/11 8/61/11 10/63/11
f 9/62/12 1/54/12 3/50/12
f 9/62/12 11/58/12 1/54/12
f 9/62/12 3/50/12 5/49/12
f 9/62/12 5/49/12 6/53/12
f 9/62/12 6/53/12 7/57/12
f 9/62/12 7/57/12 8/61/12
