# Blender 4.0.2
# www.blender.org
mtllib light_pylon.mtl
o light_pylon
v 0.118632 0.000000 0.286403
v 0.130112 0.030000 0.314119
v -0.118632 0.000000 0.286403
v -0.130112 0.030000 0.314119
v -0.286403 0.000000 0.118632
v -0.314119 0.030000 0.130112
v -0.286403 0.000000 -0.118632
v -0.314119 0.030000 -0.130112
v -0.118632 0.000000 -0.286403
v -0.130112 0.030000 -0.314119
v 0.118632 0.000000 -0.286403
v 0.130112 0.030000 -0.314119
v 0.286403 0.000000 -0.118632
v 0.314119 0.030000 -0.130112
v 0.286403 0.000000 0.118632
v 0.314119 0.030000 0.130112
v 0.130112 0.030000 0.314119
v 0.130112 0.110000 0.314119
v -0.130112 0.030000 0.314119
v -0.130112 0.110000 0.314119
v -0.314119 0.030000 0.130112
v -0.314119 0.110000 0.130112
v -0.314119 0.030000 -0.130112
v -0.314119 0.110000 -0.130112
v -0.130112 0.030000 -0.314119
v -0.130112 0.110000 -0.314119
v 0.130112 0.030000 -0.314119
v 0.130112 0.110000 -0.314119
v 0.314119 0.030000 -0.130112
v 0.314119 0.110000 -0.130112
v 0.314119 0.030000 0.130112
v 0.314119 0.110000 0.130112
v 0.130112 0.110000 0.314119
v 0.118632 0.140000 0.286403
v -0.130112 0.110000 0.314119
v -0.118632 0.140000 0.286403
v -0.314119 0.110000 0.130112
v -0.286403 0.140000 0.118632
v -0.314119 0.110000 -0.130112
v -0.286403 0.140000 -0.118632
v -0.130112 0.110000 -0.314119
v -0.118632 0.140000 -0.286403
v 0.130112 0.110000 -0.314119
v 0.118632 0.140000 -0.286403
v 0.314119 0.110000 -0.130112
v 0.286403 0.140000 -0.118632
v 0.314119 0.110000 0.130112
v 0.286403 0.140000 0.118632
v 0.049749 0.140000 0.120104
v 0.057403 0.160000 0.138582
v -0.049749 0.140000 0.120104
v -0.057403 0.160000 0.138582
v -0.120104 0.140000 0.049749
v -0.138582 0.160000 0.057403
v -0.120104 0.140000 -0.049749
v -0.138582 0.160000 -0.057403
v -0.049749 0.140000 -0.120104
v -0.057403 0.160000 -0.138582
v 0.049749 0.140000 -0.120104
v 0.057403 0.160000 -0.138582
v 0.120104 0.140000 -0.049749
v 0.138582 0.160000 -0.057403
v 0.120104 0.140000 0.049749
v 0.138582 0.160000 0.057403
v 0.057403 0.160000 0.138582
v 0.057403 0.220000 0.138582
v -0.057403 0.160000 0.138582
v -0.057403 0.220000 0.138582
v -0.138582 0.160000 0.057403
v -0.138582 0.220000 0.057403
v -0.138582 0.160000 -0.057403
v -0.138582 0.220000 -0.057403
v -0.057403 0.160000 -0.138582
v -0.057403 0.220000 -0.138582
v 0.057403 0.160000 -0.138582
v 0.057403 0.220000 -0.138582
v 0.138582 0.160000 -0.057403
v 0.138582 0.220000 -0.057403
v 0.138582 0.160000 0.057403
v 0.138582 0.220000 0.057403
v 0.057403 0.220000 0.138582
v 0.049749 0.240000 0.120104
v -0.057403 0.220000 0.138582
v -0.049749 0.240000 0.120104
v -0.138582 0.220000 0.057403
v -0.120104 0.240000 0.049749
v -0.138582 0.220000 -0.057403
v -0.120104 0.240000 -0.049749
v -0.057403 0.220000 -0.138582
v -0.049749 0.240000 -0.120104
v 0.057403 0.220000 -0.138582
v 0.049749 0.240000 -0.120104
v 0.138582 0.220000 -0.057403
v 0.120104 0.240000 -0.049749
v 0.138582 0.220000 0.057403
v 0.120104 0.240000 0.049749
v 0.050000 0.200000 -0.050000
v 0.050000 0.230000 -0.080000
v 0.080000 0.230000 -0.050000
v 0.050000 2.610000 -0.080000
v 0.050000 2.640000 -0.050000
v 0.080000 2.610000 -0.050000
v 0.050000 0.200000 0.050000
v 0.080000 0.230000 0.050000
v 0.050000 0.230000 0.080000
v 0.050000 2.640000 0.050000
v 0.050000 2.610000 0.080000
v 0.080000 2.610000 0.050000
v -0.050000 0.200000 -0.050000
v -0.080000 0.230000 -0.050000
v -0.050000 0.230000 -0.080000
v -0.050000 2.640000 -0.050000
v -0.050000 2.610000 -0.080000
v -0.080000 2.610000 -0.050000
v -0.050000 0.200000 0.050000
v -0.050000 0.230000 0.080000
v -0.080000 0.230000 0.050000
v -0.050000 2.640000 0.050000
v -0.080000 2.610000 0.050000
v -0.050000 2.610000 0.080000
v 0.007000 0.260000 0.088000
v 0.007000 0.268000 0.080000
v 0.015000 0.268000 0.088000
v 0.007000 2.452000 0.080000
v 0.007000 2.460000 0.088000
v 0.015000 2.452000 0.088000
v 0.007000 0.260000 0.102000
v 0.015000 0.268000 0.102000
v 0.007000 0.268000 0.110000
v 0.007000 2.460000 0.102000
v 0.007000 2.452000 0.110000
v 0.015000 2.452000 0.102000
v -0.007000 0.260000 0.088000
v -0.015000 0.268000 0.088000
v -0.007000 0.268000 0.080000
v -0.007000 2.460000 0.088000
v -0.007000 2.452000 0.080000
v -0.015000 2.452000 0.088000
v -0.007000 0.260000 0.102000
v -0.007000 0.268000 0.110000
v -0.015000 0.268000 0.102000
v -0.007000 2.460000 0.102000
v -0.015000 2.452000 0.102000
v -0.007000 2.452000 0.110000
v 0.007000 0.260000 -0.102000
v 0.007000 0.268000 -0.110000
v 0.015000 0.268000 -0.102000
v 0.007000 2.452000 -0.110000
v 0.007000 2.460000 -0.102000
v 0.015000 2.452000 -0.102000
v 0.007000 0.260000 -0.088000
v 0.015000 0.268000 -0.088000
v 0.007000 0.268000 -0.080000
v 0.007000 2.460000 -0.088000
v 0.007000 2.452000 -0.080000
v 0.015000 2.452000 -0.088000
v -0.007000 0.260000 -0.102000
v -0.015000 0.268000 -0.102000
v -0.007000 0.268000 -0.110000
v -0.007000 2.460000 -0.102000
v -0.007000 2.452000 -0.110000
v -0.015000 2.452000 -0.102000
v -0.007000 0.260000 -0.088000
v -0.007000 0.268000 -0.080000
v -0.015000 0.268000 -0.088000
v -0.007000 2.460000 -0.088000
v -0.015000 2.452000 -0.088000
v -0.007000 2.452000 -0.080000
v -0.088000 0.260000 -0.007000
v -0.088000 0.268000 -0.015000
v -0.080000 0.268000 -0.007000
v -0.088000 2.452000 -0.015000
v -0.088000 2.460000 -0.007000
v -0.080000 2.452000 -0.007000
v -0.088000 0.260000 0.007000
v -0.080000 0.268000 0.007000
v -0.088000 0.268000 0.015000
v -0.088000 2.460000 0.007000
v -0.088000 2.452000 0.015000
v -0.080000 2.452000 0.007000
v -0.102000 0.260000 -0.007000
v -0.110000 0.268000 -0.007000
v -0.102000 0.268000 -0.015000
v -0.102000 2.460000 -0.007000
v -0.102000 2.452000 -0.015000
v -0.110000 2.452000 -0.007000
v -0.102000 0.260000 0.007000
v -0.102000 0.268000 0.015000
v -0.110000 0.268000 0.007000
v -0.102000 2.460000 0.007000
v -0.110000 2.452000 0.007000
v -0.102000 2.452000 0.015000
v 0.102000 0.260000 -0.007000
v 0.102000 0.268000 -0.015000
v 0.110000 0.268000 -0.007000
v 0.102000 2.452000 -0.015000
v 0.102000 2.460000 -0.007000
v 0.110000 2.452000 -0.007000
v 0.102000 0.260000 0.007000
v 0.110000 0.268000 0.007000
v 0.102000 0.268000 0.015000
v 0.102000 2.460000 0.007000
v 0.102000 2.452000 0.015000
v 0.110000 2.452000 0.007000
v 0.088000 0.260000 -0.007000
v 0.080000 0.268000 -0.007000
v 0.088000 0.268000 -0.015000
v 0.088000 2.460000 -0.007000
v 0.088000 2.452000 -0.015000
v 0.080000 2.452000 -0.007000
v 0.088000 0.260000 0.007000
v 0.088000 0.268000 0.015000
v 0.080000 0.268000 0.007000
v 0.088000 2.460000 0.007000
v 0.080000 2.452000 0.007000
v 0.088000 2.452000 0.015000
v 0.042095 1.500000 0.101627
v 0.049749 1.520000 0.120104
v -0.042095 1.500000 0.101627
v -0.049749 1.520000 0.120104
v -0.101627 1.500000 0.042095
v -0.120104 1.520000 0.049749
v -0.101627 1.500000 -0.042095
v -0.120104 1.520000 -0.049749
v -0.042095 1.500000 -0.101627
v -0.049749 1.520000 -0.120104
v 0.042095 1.500000 -0.101627
v 0.049749 1.520000 -0.120104
v 0.101627 1.500000 -0.042095
v 0.120104 1.520000 -0.049749
v 0.101627 1.500000 0.042095
v 0.120104 1.520000 0.049749
v 0.049749 1.520000 0.120104
v 0.049749 1.560000 0.120104
v -0.049749 1.520000 0.120104
v -0.049749 1.560000 0.120104
v -0.120104 1.520000 0.049749
v -0.120104 1.560000 0.049749
v -0.120104 1.520000 -0.049749
v -0.120104 1.560000 -0.049749
v -0.049749 1.520000 -0.120104
v -0.049749 1.560000 -0.120104
v 0.049749 1.520000 -0.120104
v 0.049749 1.560000 -0.120104
v 0.120104 1.520000 -0.049749
v 0.120104 1.560000 -0.049749
v 0.120104 1.520000 0.049749
v 0.120104 1.560000 0.049749
v 0.049749 1.560000 0.120104
v 0.042095 1.580000 0.101627
v -0.049749 1.560000 0.120104
v -0.042095 1.580000 0.101627
v -0.120104 1.560000 0.049749
v -0.101627 1.580000 0.042095
v -0.120104 1.560000 -0.049749
v -0.101627 1.580000 -0.042095
v -0.049749 1.560000 -0.120104
v -0.042095 1.580000 -0.101627
v 0.049749 1.560000 -0.120104
v 0.042095 1.580000 -0.101627
v 0.120104 1.560000 -0.049749
v 0.101627 1.580000 -0.042095
v 0.120104 1.560000 0.049749
v 0.101627 1.580000 0.042095
v 0.250000 2.620000 -0.130000
v 0.250000 2.650000 -0.160000
v 0.280000 2.650000 -0.130000
v 0.250000 2.910000 -0.160000
v 0.250000 2.940000 -0.130000
v 0.280000 2.910000 -0.130000
v 0.250000 2.620000 0.130000
v 0.280000 2.650000 0.130000
v 0.250000 2.650000 0.160000
v 0.250000 2.940000 0.130000
v 0.250000 2.910000 0.160000
v 0.280000 2.910000 0.130000
v -0.250000 2.620000 -0.130000
v -0.280000 2.650000 -0.130000
v -0.250000 2.650000 -0.160000
v -0.250000 2.940000 -0.130000
v -0.250000 2.910000 -0.160000
v -0.280000 2.910000 -0.130000
v -0.250000 2.620000 0.130000
v -0.250000 2.650000 0.160000
v -0.280000 2.650000 0.130000
v -0.250000 2.940000 0.130000
v -0.280000 2.910000 0.130000
v -0.250000 2.910000 0.160000
v 0.222000 2.670000 0.163000
v 0.222000 2.678000 0.155000
v 0.230000 2.678000 0.163000
v 0.222000 2.862000 0.155000
v 0.222000 2.870000 0.163000
v 0.230000 2.862000 0.163000
v 0.222000 2.670000 0.167000
v 0.230000 2.678000 0.167000
v 0.222000 2.678000 0.175000
v 0.222000 2.870000 0.167000
v 0.222000 2.862000 0.175000
v 0.230000 2.862000 0.167000
v -0.222000 2.670000 0.163000
v -0.230000 2.678000 0.163000
v -0.222000 2.678000 0.155000
v -0.222000 2.870000 0.163000
v -0.222000 2.862000 0.155000
v -0.230000 2.862000 0.163000
v -0.222000 2.670000 0.167000
v -0.222000 2.678000 0.175000
v -0.230000 2.678000 0.167000
v -0.222000 2.870000 0.167000
v -0.230000 2.862000 0.167000
v -0.222000 2.862000 0.175000
v 0.280000 2.940000 -0.160000
v 0.280000 2.960000 -0.180000
v 0.300000 2.960000 -0.160000
v 0.280000 2.980000 -0.180000
v 0.280000 3.000000 -0.160000
v 0.300000 2.980000 -0.160000
v 0.280000 2.940000 0.160000
v 0.300000 2.960000 0.160000
v 0.280000 2.960000 0.180000
v 0.280000 3.000000 0.160000
v 0.280000 2.980000 0.180000
v 0.300000 2.980000 0.160000
v -0.280000 2.940000 -0.160000
v -0.300000 2.960000 -0.160000
v -0.280000 2.960000 -0.180000
v -0.280000 3.000000 -0.160000
v -0.280000 2.980000 -0.180000
v -0.300000 2.980000 -0.160000
v -0.280000 2.940000 0.160000
v -0.280000 2.960000 0.180000
v -0.300000 2.960000 0.160000
v -0.280000 3.000000 0.160000
v -0.300000 2.980000 0.160000
v -0.280000 2.980000 0.180000
vn -0.0000 -0.6786 0.7345
vn -0.5194 -0.6786 0.5194
vn -0.7345 -0.6786 -0.0000
vn -0.5194 -0.6786 -0.5194
vn -0.0000 -0.6786 -0.7345
vn 0.5194 -0.6786 -0.5194
vn -0.0000 1.0000 -0.0000
vn 0.7345 -0.6786 -0.0000
vn 0.5194 -0.6786 0.5194
vn -0.0000 -1.0000 -0.0000
vn -0.0000 -0.0000 1.0000
vn -0.7071 -0.0000 0.7071
vn -1.0000 -0.0000 -0.0000
vn -0.7071 -0.0000 -0.7071
vn -0.0000 -0.0000 -1.0000
vn 0.7071 -0.0000 -0.7071
vn 1.0000 -0.0000 -0.0000
vn 0.7071 -0.0000 0.7071
vn -0.0000 0.6786 0.7345
vn -0.5194 0.6786 0.5194
vn -0.7345 0.6786 -0.0000
vn -0.5194 0.6786 -0.5194
vn -0.0000 0.6786 -0.7345
vn 0.5194 0.6786 -0.5194
vn 0.7345 0.6786 -0.0000
vn 0.5194 0.6786 0.5194
vn 0.5773 -0.5774 -0.5774
vn 0.5773 0.5774 -0.5774
vn 0.5773 -0.5774 0.5774
vn 0.5773 0.5774 0.5773
vn -0.5773 -0.5774 -0.5774
vn -0.5773 0.5774 -0.5774
vn -0.5773 -0.5774 0.5774
vn -0.5773 0.5774 0.5773
vn 0.7071 -0.7071 -0.0000
vn 0.7071 0.7071 -0.0000
vn -0.0000 -0.7071 0.7071
vn -0.0000 0.7071 0.7071
vn -0.7071 -0.7071 -0.0000
vn -0.7071 0.7071 -0.0000
vn -0.0000 -0.7071 -0.7071
vn -0.0000 0.7071 -0.7071
vn 0.5774 -0.5773 -0.5773
vn 0.5774 0.5774 -0.5773
vn 0.5774 -0.5773 0.5773
vn 0.5774 0.5774 0.5773
vn -0.5774 -0.5773 -0.5773
vn -0.5774 0.5774 -0.5773
vn -0.5774 -0.5773 0.5773
vn -0.5774 0.5774 0.5773
vn 0.5773 -0.5773 -0.5774
vn 0.5773 0.5773 -0.5774
vn 0.5773 -0.5773 0.5774
vn 0.5773 0.5773 0.5774
vn -0.5773 -0.5773 -0.5774
vn -0.5773 0.5773 -0.5774
vn -0.5773 -0.5773 0.5774
vn -0.5773 0.5773 0.5774
vn 0.5773 0.5774 0.5774
vn -0.5773 0.5774 0.5774
vt 0.00000 0.00000
vt 0.00000 0.74548
vt 0.00000 0.75565
vt 0.00000 0.75815
vt 0.00000 0.89723
vt 0.00000 0.89973
vt 0.00000 0.91929
vt 0.00000 0.95062
vt 0.00938 0.00000
vt 0.00938 0.74548
vt 0.00938 0.90990
vt 0.00938 0.91929
vt 0.00938 0.95062
vt 0.00938 0.96001
vt 0.04066 0.00000
vt 0.04066 0.74548
vt 0.04066 0.90990
vt 0.04066 0.91929
vt 0.04066 0.95062
vt 0.04066 0.96001
vt 0.05004 0.00000
vt 0.05004 0.74548
vt 0.05004 0.91929
vt 0.05004 0.95062
vt 0.05755 0.75565
vt 0.05755 0.75815
vt 0.05755 0.89723
vt 0.05755 0.89973
vt 0.06019 0.00000
vt 0.06019 0.74548
vt 0.06770 0.75565
vt 0.06770 0.81328
vt 0.06770 0.89479
vt 0.06770 0.92700
vt 0.06770 0.95816
vt 0.06957 0.00000
vt 0.06957 0.74548
vt 0.08970 0.90496
vt 0.08970 0.98020
vt 0.09272 0.75565
vt 0.09272 0.81328
vt 0.09272 0.89479
vt 0.10085 0.00000
vt 0.10085 0.74548
vt 0.10286 0.75565
vt 0.10286 0.81328
vt 0.10286 0.89479
vt 0.11023 0.00000
vt 0.11023 0.74548
vt 0.12038 0.00000
vt 0.12038 0.74548
vt 0.12082 0.90496
vt 0.12082 0.98020
vt 0.12788 0.75565
vt 0.12788 0.81328
vt 0.12788 0.89479
vt 0.13803 0.75565
vt 0.13803 0.81328
vt 0.13803 0.89479
vt 0.14282 0.92700
vt 0.14282 0.95816
vt 0.15165 0.00000
vt 0.15165 0.74548
vt 0.15297 0.90735
vt 0.15297 0.93852
vt 0.15922 0.90496
vt 0.15922 0.94092
vt 0.16180 0.00000
vt 0.16180 0.74548
vt 0.16305 0.75565
vt 0.16305 0.81328
vt 0.16305 0.89479
vt 0.17320 0.75565
vt 0.17320 0.85588
vt 0.17320 0.86604
vt 0.17320 0.89147
vt 0.17320 0.92743
vt 0.17320 0.93999
vt 0.17320 0.96636
vt 0.17945 0.75565
vt 0.17945 0.85588
vt 0.17945 0.93759
vt 0.17945 0.96876
vt 0.18960 0.75565
vt 0.18960 0.81328
vt 0.19085 0.75565
vt 0.19085 0.81328
vt 0.19196 0.86604
vt 0.19196 0.89147
vt 0.19196 0.92743
vt 0.19308 0.00000
vt 0.19308 0.74548
vt 0.20322 0.00000
vt 0.20322 0.68409
vt 0.20322 0.70616
vt 0.20322 0.86277
vt 0.20322 0.90776
vt 0.20322 0.94372
vt 0.20573 0.00000
vt 0.20573 0.68409
vt 0.20573 0.68660
vt 0.21010 0.00000
vt 0.21010 0.68409
vt 0.21010 0.68660
vt 0.21261 0.00000
vt 0.21261 0.68409
vt 0.21261 0.69676
vt 0.21261 0.70616
vt 0.21261 0.86277
vt 0.21261 0.87217
vt 0.22275 0.00000
vt 0.22275 0.68409
vt 0.22526 0.00000
vt 0.22526 0.68409
vt 0.22526 0.68660
vt 0.22861 0.88233
vt 0.22861 0.96915
vt 0.22963 0.00000
vt 0.22963 0.68409
vt 0.22963 0.68660
vt 0.23214 0.00000
vt 0.23214 0.68409
vt 0.24228 0.00000
vt 0.24228 0.68409
vt 0.24479 0.00000
vt 0.24479 0.68409
vt 0.24479 0.68660
vt 0.24916 0.00000
vt 0.24916 0.68409
vt 0.24916 0.68660
vt 0.25167 0.00000
vt 0.25167 0.68409
vt 0.26181 0.00000
vt 0.26181 0.68409
vt 0.26432 0.00000
vt 0.26432 0.68409
vt 0.26432 0.68660
vt 0.26452 0.88233
vt 0.26452 0.96915
vt 0.26870 0.00000
vt 0.26870 0.68409
vt 0.26870 0.68660
vt 0.27120 0.00000
vt 0.27120 0.68409
vt 0.28134 0.00000
vt 0.28134 0.68409
vt 0.28385 0.00000
vt 0.28385 0.68409
vt 0.28385 0.68660
vt 0.28823 0.00000
vt 0.28823 0.68409
vt 0.28823 0.68660
vt 0.28991 0.90776
vt 0.28991 0.94372
vt 0.29073 0.00000
vt 0.29073 0.68409
vt 0.29392 0.69676
vt 0.29392 0.70616
vt 0.29392 0.86277
vt 0.29392 0.87217
vt 0.30006 0.90776
vt 0.30006 0.94372
vt 0.30087 0.00000
vt 0.30087 0.68409
vt 0.30331 0.70616
vt 0.30331 0.86277
vt 0.30338 0.00000
vt 0.30338 0.68409
vt 0.30338 0.68660
vt 0.30776 0.00000
vt 0.30776 0.68409
vt 0.30776 0.68660
vt 0.31026 0.00000
vt 0.31026 0.68409
vt 0.31345 0.70616
vt 0.31345 0.86277
vt 0.32040 0.00000
vt 0.32040 0.68409
vt 0.32284 0.69676
vt 0.32284 0.70616
vt 0.32284 0.86277
vt 0.32284 0.87217
vt 0.32291 0.00000
vt 0.32291 0.68409
vt 0.32291 0.68660
vt 0.32544 0.88233
vt 0.32544 0.96915
vt 0.32728 0.00000
vt 0.32728 0.68409
vt 0.32728 0.68660
vt 0.32979 0.00000
vt 0.32979 0.68409
vt 0.33993 0.00000
vt 0.33993 0.68409
vt 0.34244 0.00000
vt 0.34244 0.68409
vt 0.34244 0.68660
vt 0.34681 0.00000
vt 0.34681 0.68409
vt 0.34681 0.68660
vt 0.34932 0.00000
vt 0.34932 0.68409
vt 0.35946 0.00000
vt 0.35946 0.68409
vt 0.35946 0.68660
vt 0.36135 0.88233
vt 0.36135 0.96915
vt 0.36384 0.00000
vt 0.36384 0.68409
vt 0.36384 0.68660
vt 0.37399 0.00000
vt 0.37399 0.68409
vt 0.37399 0.68660
vt 0.37837 0.00000
vt 0.37837 0.68409
vt 0.37837 0.68660
vt 0.38674 0.90776
vt 0.38674 0.94372
vt 0.38852 0.00000
vt 0.38852 0.68409
vt 0.38852 0.68660
vt 0.39290 0.00000
vt 0.39290 0.68409
vt 0.39290 0.68660
vt 0.39689 0.88233
vt 0.39689 0.90776
vt 0.39689 0.94372
vt 0.40304 0.00000
vt 0.40304 0.68409
vt 0.40304 0.68660
vt 0.40415 0.69676
vt 0.40415 0.70616
vt 0.40415 0.86277
vt 0.40415 0.87217
vt 0.40742 0.00000
vt 0.40742 0.68409
vt 0.40742 0.68660
vt 0.41354 0.70616
vt 0.41354 0.86277
vt 0.41565 0.88233
vt 0.41565 0.90776
vt 0.41565 0.94372
vt 0.41757 0.00000
vt 0.41757 0.68409
vt 0.41757 0.68660
vt 0.42195 0.00000
vt 0.42195 0.68409
vt 0.42195 0.68660
vt 0.42897 0.85460
vt 0.42897 0.92892
vt 0.42897 0.94268
vt 0.42897 0.94707
vt 0.43210 0.00000
vt 0.43210 0.68409
vt 0.43210 0.68660
vt 0.43210 0.69927
vt 0.43210 0.83834
vt 0.43335 0.94268
vt 0.43335 0.94707
vt 0.43460 0.69676
vt 0.43460 0.69927
vt 0.43460 0.83834
vt 0.43460 0.84085
vt 0.43585 0.69676
vt 0.43585 0.69927
vt 0.43585 0.83834
vt 0.43585 0.84085
vt 0.43647 0.00000
vt 0.43647 0.68409
vt 0.43647 0.68660
vt 0.43835 0.69927
vt 0.43835 0.83834
vt 0.43835 0.85101
vt 0.43835 0.93252
vt 0.44662 0.00000
vt 0.44662 0.68409
vt 0.44662 0.68660
vt 0.44850 0.69927
vt 0.44850 0.83834
vt 0.44850 0.85460
vt 0.44850 0.92892
vt 0.45100 0.00000
vt 0.45100 0.68409
vt 0.45100 0.68660
vt 0.45100 0.69676
vt 0.45100 0.69927
vt 0.45100 0.83834
vt 0.45100 0.84085
vt 0.45225 0.69676
vt 0.45225 0.69927
vt 0.45225 0.83834
vt 0.45225 0.84085
vt 0.45475 0.69927
vt 0.45475 0.83834
vt 0.45788 0.85101
vt 0.45788 0.93252
vt 0.46115 0.00000
vt 0.46115 0.68409
vt 0.46115 0.68660
vt 0.46553 0.00000
vt 0.46553 0.68409
vt 0.46553 0.68660
vt 0.47567 0.05764
vt 0.47567 0.13915
vt 0.47567 0.26458
vt 0.47567 0.34609
vt 0.47567 0.47153
vt 0.47567 0.55304
vt 0.47567 0.67847
vt 0.47567 0.75998
vt 0.47567 0.82778
vt 0.47567 0.83718
vt 0.47567 0.91862
vt 0.47567 0.92801
vt 0.47567 0.94757
vt 0.47567 0.97890
vt 0.48434 0.06123
vt 0.48434 0.13555
vt 0.48506 0.93818
vt 0.48506 0.94757
vt 0.48506 0.97890
vt 0.48506 0.98829
vt 0.51633 0.93818
vt 0.51633 0.94757
vt 0.51633 0.97890
vt 0.51633 0.98829
vt 0.52572 0.94757
vt 0.52572 0.97890
vt 0.53322 0.00000
vt 0.53322 0.19678
vt 0.53322 0.20694
vt 0.53322 0.40373
vt 0.53322 0.41389
vt 0.53322 0.61067
vt 0.53322 0.62084
vt 0.53322 0.81762
vt 0.53586 0.94068
vt 0.53586 0.94507
vt 0.53681 0.00868
vt 0.53681 0.18810
vt 0.53836 0.93818
vt 0.53836 0.94068
vt 0.53836 0.94507
vt 0.53836 0.94757
vt 0.54274 0.93818
vt 0.54274 0.94068
vt 0.54274 0.94507
vt 0.54274 0.94757
vt 0.54524 0.94068
vt 0.54524 0.94507
vt 0.55699 0.82778
vt 0.55699 0.83718
vt 0.55699 0.91862
vt 0.55699 0.92801
vt 0.56714 0.85321
vt 0.56714 0.88917
vt 0.56714 0.94680
vt 0.56714 0.97796
vt 0.57292 0.85561
vt 0.57292 0.88677
vt 0.58914 0.92476
vt 0.58914 1.00000
vt 0.59253 0.82778
vt 0.59253 0.91460
vt 0.59492 0.83357
vt 0.59492 0.90881
vt 0.61102 0.00868
vt 0.61102 0.18810
vt 0.61461 0.00000
vt 0.61461 0.19678
vt 0.61461 0.20694
vt 0.61461 0.40373
vt 0.61461 0.41389
vt 0.61461 0.61067
vt 0.61461 0.62084
vt 0.61461 0.81762
vt 0.62026 0.92476
vt 0.62026 1.00000
vt 0.62604 0.83357
vt 0.62604 0.90881
vt 0.62843 0.82778
vt 0.62843 0.91460
vt 0.64226 0.94680
vt 0.64226 0.97796
vt 0.64804 0.85561
vt 0.64804 0.88677
vt 0.65382 0.85321
vt 0.65382 0.88917
vt 0.66349 0.06123
vt 0.66349 0.13555
vt 0.66397 0.82778
vt 0.66397 0.88541
vt 0.66397 0.89797
vt 0.66397 0.92914
vt 0.66522 0.82778
vt 0.66522 0.88541
vt 0.66585 0.94170
vt 0.66585 0.94609
vt 0.67022 0.89558
vt 0.67022 0.93154
vt 0.67022 0.94170
vt 0.67022 0.94609
vt 0.67216 0.05764
vt 0.67216 0.13915
vt 0.67216 0.26458
vt 0.67216 0.34609
vt 0.67216 0.47153
vt 0.67216 0.55304
vt 0.67216 0.67847
vt 0.67216 0.75998
vt 0.68231 0.05764
vt 0.68231 0.13915
vt 0.68231 0.26458
vt 0.68231 0.34609
vt 0.68231 0.42016
vt 0.68231 0.59556
vt 0.68231 0.61825
vt 0.68231 0.79366
vt 0.68231 0.81009
vt 0.68231 0.81949
vt 0.68231 0.90093
vt 0.68231 0.91032
vt 0.68231 0.94252
vt 0.68231 0.97369
vt 0.68856 0.41389
vt 0.68856 0.42016
vt 0.68856 0.59556
vt 0.68856 0.60183
vt 0.68856 0.61199
vt 0.68856 0.61825
vt 0.68856 0.79366
vt 0.68856 0.79993
vt 0.69098 0.06123
vt 0.69098 0.13555
vt 0.70431 0.92049
vt 0.70431 0.99573
vt 0.73543 0.92049
vt 0.73543 0.99573
vt 0.73986 0.00000
vt 0.73986 0.19678
vt 0.73986 0.20694
vt 0.73986 0.40373
vt 0.74345 0.00868
vt 0.74345 0.18810
vt 0.75743 0.94252
vt 0.75743 0.97369
vt 0.76362 0.81009
vt 0.76362 0.81949
vt 0.76362 0.90093
vt 0.76362 0.91032
vt 0.77377 0.81009
vt 0.77377 0.89160
vt 0.77377 0.92380
vt 0.77377 0.95497
vt 0.77955 0.92620
vt 0.77955 0.95257
vt 0.78315 0.81369
vt 0.78315 0.88801
vt 0.78864 0.41389
vt 0.78864 0.42016
vt 0.78864 0.59556
vt 0.78864 0.60183
vt 0.78864 0.61199
vt 0.78864 0.61825
vt 0.78864 0.79366
vt 0.78864 0.79993
vt 0.79490 0.42016
vt 0.79490 0.59556
vt 0.79490 0.61825
vt 0.79490 0.79366
vt 0.79578 0.90176
vt 0.79578 0.97700
vt 0.79817 0.90755
vt 0.79817 0.97122
vt 0.80192 0.81009
vt 0.80192 0.89160
vt 0.80505 0.41389
vt 0.80505 0.42016
vt 0.80505 0.59556
vt 0.80505 0.60183
vt 0.80505 0.61199
vt 0.80505 0.61825
vt 0.80505 0.79366
vt 0.80505 0.79993
vt 0.81130 0.41389
vt 0.81130 0.42016
vt 0.81130 0.59556
vt 0.81130 0.60183
vt 0.81130 0.61199
vt 0.81130 0.61825
vt 0.81130 0.79366
vt 0.81130 0.79993
vt 0.81130 0.81369
vt 0.81130 0.88801
vt 0.81765 0.00868
vt 0.81765 0.18810
vt 0.82124 0.00000
vt 0.82124 0.19678
vt 0.82124 0.20694
vt 0.82124 0.40373
vt 0.82145 0.41389
vt 0.82145 0.57051
vt 0.82145 0.58067
vt 0.82145 0.73728
vt 0.82145 0.74745
vt 0.82145 0.74995
vt 0.82145 0.88902
vt 0.82145 0.89153
vt 0.82450 0.90755
vt 0.82450 0.97122
vt 0.82689 0.90176
vt 0.82689 0.97700
vt 0.84312 0.92620
vt 0.84312 0.95257
vt 0.84890 0.92380
vt 0.84890 0.95497
vt 0.87012 0.06123
vt 0.87012 0.13555
vt 0.87274 0.90409
vt 0.87274 0.93526
vt 0.87879 0.05764
vt 0.87879 0.13915
vt 0.87879 0.26458
vt 0.87879 0.34609
vt 0.87900 0.74745
vt 0.87900 0.74995
vt 0.87900 0.88902
vt 0.87900 0.89153
vt 0.87900 0.90169
vt 0.87900 0.93765
vt 0.88894 0.00000
vt 0.88894 0.05764
vt 0.88894 0.13915
vt 0.88894 0.14931
vt 0.88894 0.24954
vt 0.88894 0.28513
vt 0.88894 0.32109
vt 0.88894 0.35668
vt 0.88894 0.39264
vt 0.88914 0.77287
vt 0.88914 0.80883
vt 0.88914 0.86985
vt 0.88914 0.90581
vt 0.88914 0.94391
vt 0.88914 0.94829
vt 0.89165 0.94140
vt 0.89165 0.94391
vt 0.89165 0.94829
vt 0.89165 0.95080
vt 0.89492 0.77527
vt 0.89492 0.80644
vt 0.89519 0.14931
vt 0.89519 0.24954
vt 0.89519 0.35908
vt 0.89519 0.39025
vt 0.89602 0.94140
vt 0.89602 0.94391
vt 0.89602 0.94829
vt 0.89602 0.95080
vt 0.89853 0.94391
vt 0.89853 0.94829
vt 0.90277 0.41389
vt 0.90277 0.57051
vt 0.90277 0.58067
vt 0.90277 0.73728
vt 0.90534 0.14931
vt 0.90534 0.23082
vt 0.90534 0.24098
vt 0.90534 0.24537
vt 0.90534 0.35668
vt 0.90534 0.39264
vt 0.90867 0.94391
vt 0.90867 0.94829
vt 0.90972 0.24098
vt 0.90972 0.24537
vt 0.91118 0.94140
vt 0.91118 0.94391
vt 0.91118 0.94829
vt 0.91118 0.95080
vt 0.91160 0.35908
vt 0.91160 0.39025
vt 0.91291 0.41389
vt 0.91291 0.49540
vt 0.91291 0.50916
vt 0.91291 0.58348
vt 0.91291 0.60083
vt 0.91291 0.67515
vt 0.91291 0.68891
vt 0.91291 0.72487
vt 0.91396 0.00000
vt 0.91396 0.05764
vt 0.91396 0.13915
vt 0.91433 0.25971
vt 0.91433 0.34652
vt 0.91453 0.74745
vt 0.91453 0.83426
vt 0.91453 0.84442
vt 0.91453 0.93124
vt 0.91473 0.15291
vt 0.91473 0.22722
vt 0.91556 0.94140
vt 0.91556 0.94391
vt 0.91556 0.94829
vt 0.91556 0.95080
vt 0.91693 0.75323
vt 0.91693 0.82847
vt 0.91806 0.94391
vt 0.91806 0.94829
vt 0.91917 0.69131
vt 0.91917 0.72247
vt 0.92175 0.35668
vt 0.92175 0.39264
vt 0.92230 0.41749
vt 0.92230 0.49180
vt 0.92230 0.50556
vt 0.92230 0.58707
vt 0.92230 0.59724
vt 0.92230 0.67875
vt 0.92411 0.02204
vt 0.92411 0.05320
vt 0.92411 0.08540
vt 0.92411 0.10744
vt 0.92411 0.13861
vt 0.92487 0.17135
vt 0.92487 0.20251
vt 0.92487 0.23722
vt 0.92487 0.24160
vt 0.92737 0.23471
vt 0.92737 0.23722
vt 0.92737 0.24160
vt 0.92737 0.24411
vt 0.92800 0.35908
vt 0.92800 0.39025
vt 0.92820 0.94140
vt 0.92820 0.94579
vt 0.92989 0.02443
vt 0.92989 0.05081
vt 0.93175 0.23471
vt 0.93175 0.23722
vt 0.93175 0.24160
vt 0.93175 0.24411
vt 0.93244 0.41389
vt 0.93244 0.43932
vt 0.93244 0.47528
vt 0.93244 0.48544
vt 0.93244 0.51087
vt 0.93244 0.54683
vt 0.93244 0.55699
vt 0.93244 0.57903
vt 0.93244 0.61020
vt 0.93244 0.62036
vt 0.93244 0.64240
vt 0.93244 0.67356
vt 0.93244 0.68372
vt 0.93244 0.70576
vt 0.93244 0.73693
vt 0.93258 0.94140
vt 0.93258 0.94579
vt 0.93426 0.23722
vt 0.93426 0.24160
vt 0.93662 0.08540
vt 0.93662 0.10744
vt 0.93662 0.13861
vt 0.93815 0.35908
vt 0.93815 0.39025
vt 0.94440 0.35668
vt 0.94440 0.39264
vt 0.94495 0.55699
vt 0.94495 0.57903
vt 0.94495 0.61020
vt 0.94495 0.62036
vt 0.94495 0.64240
vt 0.94495 0.67356
vt 0.94495 0.68372
vt 0.94495 0.70576
vt 0.94495 0.73693
vt 0.94611 0.00000
vt 0.94611 0.07524
vt 0.94677 0.08540
vt 0.94677 0.11657
vt 0.94688 0.14931
vt 0.94688 0.22455
vt 0.94805 0.75323
vt 0.94805 0.82847
vt 0.94851 0.00579
vt 0.94851 0.06945
vt 0.95024 0.25971
vt 0.95024 0.34652
vt 0.95044 0.74745
vt 0.95044 0.83426
vt 0.95044 0.84442
vt 0.95044 0.93124
vt 0.95121 0.41389
vt 0.95121 0.43932
vt 0.95121 0.47528
vt 0.95121 0.48544
vt 0.95121 0.51087
vt 0.95121 0.54683
vt 0.95302 0.08780
vt 0.95302 0.11417
vt 0.95455 0.35668
vt 0.95455 0.38785
vt 0.95510 0.55699
vt 0.95510 0.58816
vt 0.95510 0.59832
vt 0.95510 0.62949
vt 0.95510 0.64205
vt 0.95510 0.66842
vt 0.95510 0.68337
vt 0.95510 0.70975
vt 0.96081 0.35908
vt 0.96081 0.38545
vt 0.96136 0.41629
vt 0.96136 0.44266
vt 0.96136 0.55939
vt 0.96136 0.58576
vt 0.96136 0.60072
vt 0.96136 0.62709
vt 0.96136 0.63965
vt 0.96136 0.67082
vt 0.96136 0.68098
vt 0.96136 0.71214
vt 0.96761 0.41389
vt 0.96761 0.44506
vt 0.97005 0.77527
vt 0.97005 0.80644
vt 0.97484 0.00579
vt 0.97484 0.06945
vt 0.97562 0.28513
vt 0.97562 0.32109
vt 0.97583 0.77287
vt 0.97583 0.80883
vt 0.97583 0.86985
vt 0.97583 0.90581
vt 0.97723 0.00000
vt 0.97723 0.07524
vt 0.97800 0.14931
vt 0.97800 0.22455
vt 0.99346 0.02443
vt 0.99346 0.05081
vt 0.99923 0.02204
vt 0.99923 0.05320
vt 1.00000 0.17135
vt 1.00000 0.20251
s 0
usemtl Showcase_graphite
f 10/305/7 8/331/7 6/371/7
f 10/567/5 11/599/5 9/600/5
f 10/567/5 12/566/5 11/599/5
f 11/317/10 13/339/10 15/367/10
f 12/303/6 13/339/6 11/317/6
f 12/303/6 14/329/6 13/339/6
f 14/332/7 10/305/7 6/371/7
f 14/332/7 12/306/7 10/305/7
f 14/583/8 15/613/8 13/614/8
f 14/583/8 16/582/8 15/613/8
f 15/367/10 1/389/10 3/390/10
f 15/367/10 3/390/10 7/340/10
f 16/369/9 1/389/9 15/367/9
f 16/369/9 2/403/9 1/389/9
f 18/33/11 19/41/11 17/42/11
f 18/33/11 20/32/11 19/41/11
f 18/408/7 32/374/7 30/334/7
f 19/410/10 21/376/10 23/336/10
f 2/406/7 16/372/7 14/332/7
f 2/452/1 3/457/1 1/458/1
f 2/452/1 4/451/1 3/457/1
f 20/32/12 21/40/12 19/41/12
f 20/32/12 22/31/12 21/40/12
f 22/373/7 18/408/7 30/334/7
f 22/373/7 20/407/7 18/408/7
f 22/47/13 23/55/13 21/56/13
f 22/47/13 24/46/13 23/55/13
f 23/336/10 25/310/10 27/309/10
f 23/336/10 27/309/10 31/375/10
f 24/46/14 25/54/14 23/55/14
f 24/46/14 26/45/14 25/54/14
f 26/307/7 24/333/7 22/373/7
f 26/59/15 27/71/15 25/72/15
f 26/59/15 28/58/15 27/71/15
f 27/309/10 29/335/10 31/375/10
f 28/58/16 29/70/16 27/71/16
f 28/58/16 30/57/16 29/70/16
f 3/390/10 5/368/10 7/340/10
f 30/334/7 26/307/7 22/373/7
f 30/334/7 28/308/7 26/307/7
f 30/533/17 31/591/17 29/592/17
f 30/533/17 32/532/17 31/591/17
f 31/375/10 17/409/10 19/410/10
f 31/375/10 19/410/10 23/336/10
f 313/430/27 314/417/27 315/429/27
f 313/430/35 315/429/35 320/463/35
f 313/430/35 320/463/35 319/464/35
f 316/416/28 317/427/28 318/428/28
f 316/478/16 315/485/16 314/486/16
f 316/478/16 318/477/16 315/485/16
f 317/427/42 316/416/42 329/415/42
f 317/427/42 329/415/42 328/426/42
f 318/535/17 320/552/17 315/553/17
f 318/535/17 324/534/17 320/552/17
f 319/464/29 320/463/29 321/469/29
f 319/464/37 321/469/37 332/470/37
f 319/464/37 332/470/37 331/465/37
f 32/532/18 17/590/18 31/591/18
f 32/532/18 18/531/18 17/590/18
f 321/491/18 320/492/18 324/484/18
f 321/491/18 324/484/18 323/483/18
f 322/461/36 318/428/36 317/427/36
f 322/461/36 324/462/36 318/428/36
f 322/461/59 323/468/59 324/462/59
f 322/461/7 317/427/7 328/426/7
f 322/461/7 328/426/7 334/460/7
f 323/483/11 332/490/11 321/491/11
f 323/483/11 336/482/11 332/490/11
f 325/431/31 326/432/31 327/418/31
f 325/431/41 314/417/41 313/430/41
f 325/431/41 327/418/41 314/417/41
f 327/487/14 326/488/14 330/480/14
f 327/487/14 330/480/14 329/479/14
f 328/426/32 329/415/32 330/425/32
f 328/426/40 330/425/40 335/459/40
f 328/426/40 335/459/40 334/460/40
f 329/479/15 314/486/15 327/487/15
f 329/479/15 316/478/15 314/486/15
f 331/465/10 313/430/10 319/464/10
f 331/465/10 325/431/10 313/430/10
f 331/465/33 332/470/33 333/466/33
f 331/465/39 326/432/39 325/431/39
f 331/465/39 333/466/39 326/432/39
f 333/489/12 332/490/12 336/482/12
f 333/489/12 336/482/12 335/481/12
f 334/460/38 323/468/38 322/461/38
f 334/460/38 336/467/38 323/468/38
f 334/460/60 335/459/60 336/467/60
f 335/74/13 326/80/13 333/81/13
f 335/74/13 330/73/13 326/80/13
f 34/518/7 48/496/7 46/444/7
f 34/585/19 35/615/19 33/616/19
f 34/585/19 36/584/19 35/615/19
f 35/524/10 37/500/10 39/442/10
f 36/517/20 37/497/20 35/521/20
f 36/517/20 38/495/20 37/497/20
f 38/495/7 34/518/7 46/444/7
f 38/495/7 36/517/7 34/518/7
f 38/587/21 39/617/21 37/618/21
f 38/587/21 40/586/21 39/617/21
f 39/442/10 41/414/10 43/413/10
f 39/442/10 43/413/10 47/499/10
f 4/404/2 5/368/2 3/390/2
f 4/404/2 6/370/2 5/368/2
f 40/443/22 41/411/22 39/439/22
f 40/443/22 42/433/22 41/411/22
f 42/281/23 43/295/23 41/296/23
f 42/281/23 44/280/23 43/295/23
f 42/433/7 40/443/7 38/495/7
f 43/413/10 45/441/10 47/499/10
f 44/434/24 45/440/24 43/412/24
f 44/434/24 46/444/24 45/440/24
f 46/250/25 47/273/25 45/274/25
f 46/250/25 48/249/25 47/273/25
f 46/444/7 42/433/7 38/495/7
f 46/444/7 44/434/7 42/433/7
f 47/499/10 33/523/10 35/524/10
f 47/499/10 35/524/10 39/442/10
f 48/496/26 33/522/26 47/498/26
f 48/496/26 34/518/26 33/522/26
f 6/371/7 2/406/7 14/332/7
f 6/371/7 4/405/7 2/406/7
f 6/476/3 7/493/3 5/494/3
f 6/476/3 8/475/3 7/493/3
f 7/340/10 11/317/10 15/367/10
f 7/340/10 9/318/10 11/317/10
f 8/330/4 10/304/4 9/318/4
f 8/330/4 9/318/4 7/340/4
usemtl Showcase_steel
f 121/115/35 123/114/35 128/119/35
f 121/115/35 128/119/35 127/120/35
f 121/115/43 122/112/43 123/114/43
f 124/111/16 123/114/16 122/112/16
f 124/111/16 126/113/16 123/114/16
f 124/627/44 125/630/44 126/631/44
f 125/630/42 124/627/42 137/626/42
f 125/630/42 137/626/42 136/629/42
f 126/113/17 128/119/17 123/114/17
f 126/113/17 132/118/17 128/119/17
f 127/120/45 128/119/45 129/122/45
f 127/213/37 129/212/37 140/215/37
f 127/213/37 140/215/37 139/216/37
f 129/122/18 128/119/18 132/118/18
f 129/122/18 132/118/18 131/121/18
f 130/640/36 126/631/36 125/630/36
f 130/640/36 132/641/36 126/631/36
f 130/640/46 131/660/46 132/641/46
f 130/640/7 125/630/7 136/629/7
f 130/640/7 136/629/7 142/639/7
f 131/211/11 140/215/11 129/212/11
f 131/211/11 144/214/11 140/215/11
f 133/104/47 134/103/47 135/106/47
f 133/205/41 122/209/41 121/210/41
f 133/205/41 135/204/41 122/209/41
f 135/106/14 134/103/14 138/102/14
f 135/106/14 138/102/14 137/105/14
f 136/629/40 138/628/40 143/638/40
f 136/629/40 143/638/40 142/639/40
f 136/629/48 137/626/48 138/628/48
f 137/203/15 122/209/15 135/204/15
f 137/203/15 124/208/15 122/209/15
f 139/101/39 134/103/39 133/104/39
f 139/101/39 141/100/39 134/103/39
f 139/101/49 140/94/49 141/100/49
f 139/575/10 121/568/10 127/574/10
f 139/575/10 133/569/10 121/568/10
f 141/100/12 140/94/12 144/93/12
f 141/100/12 144/93/12 143/99/12
f 142/639/38 131/660/38 130/640/38
f 142/639/38 144/659/38 131/660/38
f 142/639/50 143/638/50 144/659/50
f 143/99/13 134/103/13 141/100/13
f 143/99/13 138/102/13 134/103/13
f 145/137/35 147/136/35 152/141/35
f 145/137/35 152/141/35 151/142/35
f 145/137/43 146/134/43 147/136/43
f 148/133/16 147/136/16 146/134/16
f 148/133/16 150/135/16 147/136/16
f 148/338/44 149/343/44 150/344/44
f 149/343/42 148/338/42 161/337/42
f 149/343/42 161/337/42 160/342/42
f 150/135/17 152/141/17 147/136/17
f 150/135/17 156/140/17 152/141/17
f 151/142/45 152/141/45 153/144/45
f 151/230/37 153/229/37 164/236/37
f 151/230/37 164/236/37 163/237/37
f 153/144/18 152/141/18 156/140/18
f 153/144/18 156/140/18 155/143/18
f 154/347/36 150/344/36 149/343/36
f 154/347/36 156/348/36 150/344/36
f 154/347/46 155/350/46 156/348/46
f 154/347/7 149/343/7 160/342/7
f 154/347/7 160/342/7 166/346/7
f 155/228/11 164/236/11 153/229/11
f 155/228/11 168/235/11 164/236/11
f 157/130/47 158/129/47 159/132/47
f 157/221/41 146/223/41 145/224/41
f 157/221/41 159/220/41 146/223/41
f 159/132/14 158/129/14 162/128/14
f 159/132/14 162/128/14 161/131/14
f 160/342/40 162/341/40 167/345/40
f 160/342/40 167/345/40 166/346/40
f 160/342/48 161/337/48 162/341/48
f 161/219/15 146/223/15 159/220/15
f 161/219/15 148/222/15 146/223/15
f 163/127/39 158/129/39 157/130/39
f 163/127/39 165/126/39 158/129/39
f 163/127/49 164/124/49 165/126/49
f 163/658/10 145/634/10 151/657/10
f 163/658/10 157/635/10 145/634/10
f 165/126/12 164/124/12 168/123/12
f 165/126/12 168/123/12 167/125/12
f 166/346/38 155/350/38 154/347/38
f 166/346/38 168/349/38 155/350/38
f 166/346/50 167/345/50 168/349/50
f 167/125/13 158/129/13 165/126/13
f 167/125/13 162/128/13 158/129/13
f 169/152/43 170/151/43 171/156/43
f 169/255/35 171/254/35 176/269/35
f 169/255/35 176/269/35 175/270/35
f 172/150/16 171/156/16 170/151/16
f 172/150/16 174/155/16 171/156/16
f 172/545/44 173/548/44 174/549/44
f 173/548/42 172/545/42 185/544/42
f 173/548/42 185/544/42 184/547/42
f 174/253/17 176/269/17 171/254/17
f 174/253/17 180/268/17 176/269/17
f 175/169/37 177/168/37 188/171/37
f 175/169/37 188/171/37 187/172/37
f 175/169/45 176/164/45 177/168/45
f 177/168/18 176/164/18 180/163/18
f 177/168/18 180/163/18 179/167/18
f 178/558/36 174/549/36 173/548/36
f 178/558/36 180/559/36 174/549/36
f 178/558/46 179/561/46 180/559/46
f 178/558/7 173/548/7 184/547/7
f 178/558/7 184/547/7 190/557/7
f 179/167/11 188/171/11 177/168/11
f 179/167/11 192/170/11 188/171/11
f 181/149/41 170/151/41 169/152/41
f 181/149/41 183/148/41 170/151/41
f 181/149/47 182/146/47 183/148/47
f 183/148/14 182/146/14 186/145/14
f 183/148/14 186/145/14 185/147/14
f 184/547/40 186/546/40 191/556/40
f 184/547/40 191/556/40 190/557/40
f 184/547/48 185/544/48 186/546/48
f 185/147/15 170/151/15 183/148/15
f 185/147/15 172/150/15 170/151/15
f 187/172/49 188/171/49 189/174/49
f 187/245/39 182/247/39 181/248/39
f 187/245/39 189/244/39 182/247/39
f 187/398/10 169/401/10 175/402/10
f 187/398/10 181/397/10 169/401/10
f 189/174/12 188/171/12 192/170/12
f 189/174/12 192/170/12 191/173/12
f 190/557/38 179/561/38 178/558/38
f 190/557/38 192/560/38 179/561/38
f 190/557/50 191/556/50 192/560/50
f 191/243/13 182/247/13 189/244/13
f 191/243/13 186/246/13 182/247/13
f 193/190/43 194/189/43 195/192/43
f 193/299/35 195/298/35 200/301/35
f 193/299/35 200/301/35 199/302/35
f 196/188/16 195/192/16 194/189/16
f 196/188/16 198/191/16 195/192/16
f 196/573/44 197/578/44 198/579/44
f 197/578/42 196/573/42 209/572/42
f 197/578/42 209/572/42 208/577/42
f 198/297/17 200/301/17 195/298/17
f 198/297/17 204/300/17 200/301/17
f 199/197/37 201/196/37 212/199/37
f 199/197/37 212/199/37 211/200/37
f 199/197/45 200/194/45 201/196/45
f 201/196/18 200/194/18 204/193/18
f 201/196/18 204/193/18 203/195/18
f 202/603/36 198/579/36 197/578/36
f 202/603/36 204/604/36 198/579/36
f 202/603/46 203/608/46 204/604/46
f 202/603/7 197/578/7 208/577/7
f 202/603/7 208/577/7 214/602/7
f 203/195/11 212/199/11 201/196/11
f 203/195/11 216/198/11 212/199/11
f 205/185/41 194/189/41 193/190/41
f 205/185/41 207/184/41 194/189/41
f 205/185/47 206/178/47 207/184/47
f 207/184/14 206/178/14 210/177/14
f 207/184/14 210/177/14 209/183/14
f 208/577/40 210/576/40 215/601/40
f 208/577/40 215/601/40 214/602/40
f 208/577/48 209/572/48 210/576/48
f 209/183/15 194/189/15 207/184/15
f 209/183/15 196/188/15 194/189/15
f 211/200/49 212/199/49 213/202/49
f 211/252/10 193/258/10 199/259/10
f 211/252/10 205/251/10 193/258/10
f 211/277/39 206/283/39 205/284/39
f 211/277/39 213/276/39 206/283/39
f 213/202/12 212/199/12 216/198/12
f 213/202/12 216/198/12 215/201/12
f 214/602/38 203/608/38 202/603/38
f 214/602/38 216/607/38 203/608/38
f 214/602/50 215/601/50 216/607/50
f 215/275/13 206/283/13 213/276/13
f 215/275/13 210/282/13 206/283/13
f 217/700/1 218/680/1 220/679/1
f 217/700/1 220/679/1 219/699/1
f 218/53/7 232/39/7 230/35/7
f 219/510/10 221/474/10 223/456/10
f 219/510/2 220/512/2 222/472/2
f 219/510/2 222/472/2 221/474/2
f 221/712/3 222/702/3 224/701/3
f 221/712/3 224/701/3 223/711/3
f 222/60/7 218/53/7 230/35/7
f 222/60/7 220/61/7 218/53/7
f 223/456/10 225/455/10 227/473/10
f 223/456/10 227/473/10 231/513/10
f 223/456/4 224/454/4 226/453/4
f 223/456/4 226/453/4 225/455/4
f 225/716/5 226/704/5 228/703/5
f 225/716/5 228/703/5 227/715/5
f 226/38/7 224/52/7 222/60/7
f 227/473/10 229/509/10 231/513/10
f 227/473/6 228/471/6 230/511/6
f 227/473/6 230/511/6 229/509/6
f 229/718/8 230/706/8 232/705/8
f 229/718/8 232/705/8 231/717/8
f 230/35/7 226/38/7 222/60/7
f 230/35/7 228/34/7 226/38/7
f 231/513/10 217/514/10 219/510/10
f 231/513/10 219/510/10 223/456/10
f 231/513/9 218/516/9 217/514/9
f 231/513/9 232/515/9 218/516/9
f 234/438/7 248/436/7 246/424/7
f 234/623/11 235/662/11 233/663/11
f 234/623/11 236/622/11 235/662/11
f 235/378/10 237/362/10 239/358/10
f 236/622/12 237/661/12 235/662/12
f 236/622/12 238/621/12 237/661/12
f 238/445/7 234/438/7 246/424/7
f 238/445/7 236/446/7 234/438/7
f 238/650/13 239/669/13 237/670/13
f 238/650/13 240/649/13 239/669/13
f 239/358/10 241/357/10 243/361/10
f 239/358/10 243/361/10 247/383/10
f 240/649/14 241/668/14 239/669/14
f 240/649/14 242/648/14 241/668/14
f 242/435/7 240/437/7 238/445/7
f 242/653/15 243/672/15 241/673/15
f 242/653/15 244/652/15 243/672/15
f 243/361/10 245/377/10 247/383/10
f 244/652/16 245/671/16 243/672/16
f 244/652/16 246/651/16 245/671/16
f 246/424/7 242/435/7 238/445/7
f 246/424/7 244/423/7 242/435/7
f 246/656/17 247/675/17 245/676/17
f 246/656/17 248/655/17 247/675/17
f 247/383/10 233/384/10 235/378/10
f 247/383/10 235/378/10 239/358/10
f 248/655/18 233/674/18 247/675/18
f 248/655/18 234/654/18 233/674/18
f 250/708/19 251/719/19 249/720/19
f 250/708/19 252/707/19 251/719/19
f 250/728/7 264/686/7 262/637/7
f 251/738/10 253/682/10 255/625/10
f 252/740/20 253/741/20 251/742/20
f 252/740/20 254/739/20 253/741/20
f 254/710/21 255/721/21 253/722/21
f 254/710/21 256/709/21 255/721/21
f 254/739/7 250/728/7 262/637/7
f 254/739/7 252/740/7 250/728/7
f 255/625/10 257/624/10 259/681/10
f 255/625/10 259/681/10 263/743/10
f 256/727/22 257/677/22 255/735/22
f 256/727/22 258/685/22 257/677/22
f 258/685/7 256/727/7 254/739/7
f 258/79/23 259/82/23 257/83/23
f 258/79/23 260/78/23 259/82/23
f 259/681/10 261/737/10 263/743/10
f 260/636/24 261/620/24 259/619/24
f 260/636/24 262/637/24 261/620/24
f 262/637/7 258/685/7 254/739/7
f 262/637/7 260/636/7 258/685/7
f 262/714/25 263/723/25 261/724/25
f 262/714/25 264/713/25 263/723/25
f 263/743/10 249/744/10 251/738/10
f 263/743/10 251/738/10 255/625/10
f 264/686/26 249/736/26 263/678/26
f 264/686/26 250/728/26 249/736/26
f 50/154/7 64/139/7 62/117/7
f 50/539/1 51/554/1 49/555/1
f 50/539/1 52/538/1 51/554/1
f 51/386/10 53/380/10 55/366/10
f 52/388/2 53/380/2 51/386/2
f 52/388/2 54/382/2 53/380/2
f 54/138/7 50/154/7 62/117/7
f 54/138/7 52/153/7 50/154/7
f 54/571/3 55/580/3 53/581/3
f 54/571/3 56/570/3 55/580/3
f 55/366/10 57/360/10 59/359/10
f 55/366/10 59/359/10 63/379/10
f 56/364/4 57/360/4 55/366/4
f 56/364/4 58/356/4 57/360/4
f 58/589/5 59/609/5 57/610/5
f 58/589/5 60/588/5 59/609/5
f 58/97/7 56/116/7 54/138/7
f 59/359/10 61/365/10 63/379/10
f 60/355/6 61/365/6 59/359/6
f 60/355/6 62/363/6 61/365/6
f 62/117/7 58/97/7 54/138/7
f 62/117/7 60/98/7 58/97/7
f 62/612/8 63/632/8 61/633/8
f 62/612/8 64/611/8 63/632/8
f 63/379/10 49/385/10 51/386/10
f 63/379/10 51/386/10 55/366/10
f 64/381/9 49/385/9 63/379/9
f 64/381/9 50/387/9 49/385/9
f 66/218/7 80/207/7 78/187/7
f 66/77/11 67/89/11 65/90/11
f 66/77/11 68/76/11 67/89/11
f 67/730/10 69/688/10 71/594/10
f 68/76/12 69/88/12 67/89/12
f 68/76/12 70/75/12 69/88/12
f 70/206/7 66/218/7 78/187/7
f 70/206/7 68/217/7 66/218/7
f 70/227/13 71/241/13 69/242/13
f 70/227/13 72/226/13 71/241/13
f 71/594/10 73/537/10 75/536/10
f 71/594/10 75/536/10 79/687/10
f 72/226/14 73/240/14 71/241/14
f 72/226/14 74/225/14 73/240/14
f 74/161/7 72/186/7 70/206/7
f 74/644/15 75/694/15 73/695/15
f 74/644/15 76/643/15 75/694/15
f 75/536/10 77/593/10 79/687/10
f 76/643/16 77/693/16 75/694/16
f 76/643/16 78/642/16 77/693/16
f 78/187/7 74/161/7 70/206/7
f 78/187/7 76/162/7 74/161/7
f 78/647/17 79/697/17 77/698/17
f 78/647/17 80/646/17 79/697/17
f 79/687/10 65/729/10 67/730/10
f 79/687/10 67/730/10 71/594/10
f 80/646/18 65/696/18 79/697/18
f 80/646/18 66/645/18 65/696/18
f 82/394/19 83/399/19 81/400/19
f 82/394/19 84/393/19 83/399/19
f 82/726/7 96/684/7 94/606/7
f 83/734/10 85/692/10 87/598/10
f 84/725/20 85/689/20 83/731/20
f 84/725/20 86/683/20 85/689/20
f 86/520/21 87/529/21 85/530/21
f 86/520/21 88/519/21 87/529/21
f 86/683/7 82/726/7 94/606/7
f 86/683/7 84/725/7 82/726/7
f 87/598/10 89/543/10 91/542/10
f 87/598/10 91/542/10 95/691/10
f 88/605/22 89/540/22 87/595/22
f 88/605/22 90/550/22 89/540/22
f 90/550/7 88/605/7 86/683/7
f 90/65/23 91/66/23 89/67/23
f 90/65/23 92/64/23 91/66/23
f 91/542/10 93/597/10 95/691/10
f 92/551/24 93/596/24 91/541/24
f 92/551/24 94/606/24 93/596/24
f 94/606/7 90/550/7 86/683/7
f 94/606/7 92/551/7 90/550/7
f 94/665/25 95/666/25 93/667/25
f 94/665/25 96/664/25 95/666/25
f 95/691/10 81/733/10 83/734/10
f 95/691/10 83/734/10 87/598/10
f 96/684/26 81/732/26 95/690/26
f 96/684/26 82/726/26 81/732/26
usemtl Showcase_graphite_metal
f 100/15/16 102/21/16 99/22/16
f 100/15/16 99/22/16 98/16/16
f 100/8/28 101/13/28 102/14/28
f 101/13/42 100/8/42 113/7/42
f 101/13/42 113/7/42 112/12/42
f 102/68/17 104/92/17 99/69/17
f 102/68/17 108/91/17 104/92/17
f 103/324/29 104/323/29 105/327/29
f 103/324/37 105/327/37 116/328/37
f 103/324/37 116/328/37 115/325/37
f 105/37/18 104/30/18 108/29/18
f 105/37/18 108/29/18 107/36/18
f 106/19/30 107/24/30 108/20/30
f 106/19/36 102/14/36 101/13/36
f 106/19/36 108/20/36 102/14/36
f 106/19/7 101/13/7 112/12/7
f 106/19/7 112/12/7 118/18/7
f 107/36/11 116/44/11 105/37/11
f 107/36/11 120/43/11 116/44/11
f 109/321/31 110/322/31 111/316/31
f 109/321/41 111/316/41 98/315/41
f 109/321/41 98/315/41 97/320/41
f 111/10/14 110/2/14 114/1/14
f 111/10/14 114/1/14 113/9/14
f 112/12/32 113/7/32 114/11/32
f 112/12/40 114/11/40 119/17/40
f 112/12/40 119/17/40 118/18/40
f 113/9/15 100/15/15 98/16/15
f 113/9/15 98/16/15 111/10/15
f 115/325/10 109/321/10 97/320/10
f 115/325/10 97/320/10 103/324/10
f 115/325/33 116/328/33 117/326/33
f 115/325/39 110/322/39 109/321/39
f 115/325/39 117/326/39 110/322/39
f 117/49/12 116/44/12 120/43/12
f 117/49/12 120/43/12 119/48/12
f 118/18/34 119/17/34 120/23/34
f 118/18/38 107/24/38 106/19/38
f 118/18/38 120/23/38 107/24/38
f 119/50/13 110/63/13 117/51/13
f 119/50/13 114/62/13 110/63/13
f 97/320/27 98/315/27 99/319/27
f 97/320/35 104/323/35 103/324/35
f 97/320/35 99/319/35 104/323/35
usemtl Showcase_porcelain
f 265/165/51 266/158/51 267/157/51
f 265/314/35 267/313/35 272/353/35
f 265/314/35 272/353/35 271/354/35
f 268/108/16 267/157/16 266/158/16
f 268/108/16 270/107/16 267/157/16
f 268/108/52 269/95/52 270/107/52
f 269/95/42 268/108/42 281/109/42
f 269/95/42 281/109/42 280/96/42
f 270/312/17 272/353/17 267/313/17
f 270/312/17 276/352/17 272/353/17
f 271/239/37 273/233/37 284/232/37
f 271/239/37 284/232/37 283/238/37
f 271/239/53 272/234/53 273/233/53
f 273/233/18 272/234/18 276/182/18
f 273/233/18 276/182/18 275/181/18
f 274/176/54 275/181/54 276/182/54
f 274/351/36 270/312/36 269/311/36
f 274/351/36 276/352/36 270/312/36
f 274/563/7 269/502/7 280/501/7
f 274/563/7 280/501/7 286/562/7
f 275/181/11 284/232/11 273/233/11
f 275/181/11 288/180/11 284/232/11
f 277/166/41 266/158/41 265/165/41
f 277/166/41 279/159/41 266/158/41
f 277/166/55 278/160/55 279/159/55
f 279/159/14 278/160/14 282/110/14
f 279/159/14 282/110/14 281/109/14
f 280/447/40 282/448/40 287/420/40
f 280/447/40 287/420/40 286/419/40
f 280/96/56 281/109/56 282/110/56
f 281/109/15 266/158/15 279/159/15
f 281/109/15 268/108/15 266/158/15
f 283/238/57 284/232/57 285/231/57
f 283/422/39 278/449/39 277/450/39
f 283/422/39 285/421/39 278/449/39
f 283/565/10 265/503/10 271/564/10
f 283/565/10 277/504/10 265/503/10
f 285/231/12 284/232/12 288/180/12
f 285/231/12 288/180/12 287/179/12
f 286/175/38 275/181/38 274/176/38
f 286/175/38 288/180/38 275/181/38
f 286/175/58 287/179/58 288/180/58
f 287/420/13 278/449/13 285/421/13
f 287/420/13 282/448/13 278/449/13
usemtl Showcase_amber
f 289/286/27 290/278/27 291/285/27
f 289/286/35 291/285/35 296/289/35
f 289/286/35 296/289/35 295/290/35
f 292/257/44 293/262/44 294/263/44
f 292/506/16 291/525/16 290/526/16
f 292/506/16 294/505/16 291/525/16
f 293/262/42 292/257/42 305/256/42
f 293/262/42 305/256/42 304/261/42
f 294/391/17 296/396/17 291/392/17
f 294/391/17 300/395/17 296/396/17
f 295/290/29 296/289/29 297/293/29
f 295/290/37 297/293/37 308/294/37
f 295/290/37 308/294/37 307/291/37
f 297/27/18 296/28/18 300/6/18
f 297/27/18 300/6/18 299/5/18
f 298/266/36 294/263/36 293/262/36
f 298/266/36 300/267/36 294/263/36
f 298/266/46 299/272/46 300/267/46
f 298/266/7 293/262/7 304/261/7
f 298/266/7 304/261/7 310/265/7
f 299/5/11 308/26/11 297/27/11
f 299/5/11 312/4/11 308/26/11
f 301/287/31 302/288/31 303/279/31
f 301/287/41 290/278/41 289/286/41
f 301/287/41 303/279/41 290/278/41
f 303/527/14 302/528/14 306/508/14
f 303/527/14 306/508/14 305/507/14
f 304/261/40 306/260/40 311/264/40
f 304/261/40 311/264/40 310/265/40
f 304/261/48 305/256/48 306/260/48
f 305/507/15 290/526/15 303/527/15
f 305/507/15 292/506/15 290/526/15
f 307/291/10 289/286/10 295/290/10
f 307/291/10 301/287/10 289/286/10
f 307/291/33 308/294/33 309/292/33
f 307/291/39 302/288/39 301/287/39
f 307/291/39 309/292/39 302/288/39
f 309/25/12 308/26/12 312/4/12
f 309/25/12 312/4/12 311/3/12
f 310/265/38 299/272/38 298/266/38
f 310/265/38 312/271/38 299/272/38
f 310/265/50 311/264/50 312/271/50
f 311/84/13 302/87/13 309/85/13
f 311/84/13 306/86/13 302/87/13
