# Blender 4.0.2
# www.blender.org
mtllib supply_crate.mtl
o supply_crate
v 0.350000 0.020000 -0.350000
v 0.350000 0.050000 -0.380000
v 0.380000 0.050000 -0.350000
v 0.350000 0.750000 -0.380000
v 0.350000 0.780000 -0.350000
v 0.380000 0.750000 -0.350000
v 0.350000 0.020000 0.350000
v 0.380000 0.050000 0.350000
v 0.350000 0.050000 0.380000
v 0.350000 0.780000 0.350000
v 0.350000 0.750000 0.380000
v 0.380000 0.750000 0.350000
v -0.350000 0.020000 -0.350000
v -0.380000 0.050000 -0.350000
v -0.350000 0.050000 -0.380000
v -0.350000 0.780000 -0.350000
v -0.350000 0.750000 -0.380000
v -0.380000 0.750000 -0.350000
v -0.350000 0.020000 0.350000
v -0.350000 0.050000 0.380000
v -0.380000 0.050000 0.350000
v -0.350000 0.780000 0.350000
v -0.380000 0.750000 0.350000
v -0.350000 0.750000 0.380000
v 0.380000 0.000000 -0.380000
v 0.380000 0.020000 -0.400000
v 0.400000 0.020000 -0.380000
v 0.380000 0.040000 -0.400000
v 0.380000 0.060000 -0.380000
v 0.400000 0.040000 -0.380000
v 0.380000 0.000000 0.380000
v 0.400000 0.020000 0.380000
v 0.380000 0.020000 0.400000
v 0.380000 0.060000 0.380000
v 0.380000 0.040000 0.400000
v 0.400000 0.040000 0.380000
v -0.380000 0.000000 -0.380000
v -0.400000 0.020000 -0.380000
v -0.380000 0.020000 -0.400000
v -0.380000 0.060000 -0.380000
v -0.380000 0.040000 -0.400000
v -0.400000 0.040000 -0.380000
v -0.380000 0.000000 0.380000
v -0.380000 0.020000 0.400000
v -0.400000 0.020000 0.380000
v -0.380000 0.060000 0.380000
v -0.400000 0.040000 0.380000
v -0.380000 0.040000 0.400000
v 0.380000 0.740000 -0.380000
v 0.380000 0.760000 -0.400000
v 0.400000 0.760000 -0.380000
v 0.380000 0.780000 -0.400000
v 0.380000 0.800000 -0.380000
v 0.400000 0.780000 -0.380000
v 0.380000 0.740000 0.380000
v 0.400000 0.760000 0.380000
v 0.380000 0.760000 0.400000
v 0.380000 0.800000 0.380000
v 0.380000 0.780000 0.400000
v 0.400000 0.780000 0.380000
v -0.380000 0.740000 -0.380000
v -0.400000 0.760000 -0.380000
v -0.380000 0.760000 -0.400000
v -0.380000 0.800000 -0.380000
v -0.380000 0.780000 -0.400000
v -0.400000 0.780000 -0.380000
v -0.380000 0.740000 0.380000
v -0.380000 0.760000 0.400000
v -0.400000 0.760000 0.380000
v -0.380000 0.800000 0.380000
v -0.400000 0.780000 0.380000
v -0.380000 0.780000 0.400000
v 0.380000 0.060000 -0.380000
v 0.380000 0.080000 -0.400000
v 0.400000 0.080000 -0.380000
v 0.380000 0.720000 -0.400000
v 0.380000 0.740000 -0.380000
v 0.400000 0.720000 -0.380000
v 0.380000 0.060000 -0.340000
v 0.400000 0.080000 -0.340000
v 0.380000 0.080000 -0.320000
v 0.380000 0.740000 -0.340000
v 0.380000 0.720000 -0.320000
v 0.400000 0.720000 -0.340000
v 0.340000 0.060000 -0.380000
v 0.320000 0.080000 -0.380000
v 0.340000 0.080000 -0.400000
v 0.340000 0.740000 -0.380000
v 0.340000 0.720000 -0.400000
v 0.320000 0.720000 -0.380000
v 0.340000 0.060000 -0.340000
v 0.340000 0.080000 -0.320000
v 0.320000 0.080000 -0.340000
v 0.340000 0.740000 -0.340000
v 0.320000 0.720000 -0.340000
v 0.340000 0.720000 -0.320000
v -0.340000 0.060000 -0.380000
v -0.340000 0.080000 -0.400000
v -0.320000 0.080000 -0.380000
v -0.340000 0.720000 -0.400000
v -0.340000 0.740000 -0.380000
v -0.320000 0.720000 -0.380000
v -0.340000 0.060000 -0.340000
v -0.320000 0.080000 -0.340000
v -0.340000 0.080000 -0.320000
v -0.340000 0.740000 -0.340000
v -0.340000 0.720000 -0.320000
v -0.320000 0.720000 -0.340000
v -0.380000 0.060000 -0.380000
v -0.400000 0.080000 -0.380000
v -0.380000 0.080000 -0.400000
v -0.380000 0.740000 -0.380000
v -0.380000 0.720000 -0.400000
v -0.400000 0.720000 -0.380000
v -0.380000 0.060000 -0.340000
v -0.380000 0.080000 -0.320000
v -0.400000 0.080000 -0.340000
v -0.380000 0.740000 -0.340000
v -0.400000 0.720000 -0.340000
v -0.380000 0.720000 -0.320000
v -0.340000 0.060000 0.340000
v -0.340000 0.080000 0.320000
v -0.320000 0.080000 0.340000
v -0.340000 0.720000 0.320000
v -0.340000 0.740000 0.340000
v -0.320000 0.720000 0.340000
v -0.340000 0.060000 0.380000
v -0.320000 0.080000 0.380000
v -0.340000 0.080000 0.400000
v -0.340000 0.740000 0.380000
v -0.340000 0.720000 0.400000
v -0.320000 0.720000 0.380000
v -0.380000 0.060000 0.340000
v -0.400000 0.080000 0.340000
v -0.380000 0.080000 0.320000
v -0.380000 0.740000 0.340000
v -0.380000 0.720000 0.320000
v -0.400000 0.720000 0.340000
v -0.380000 0.060000 0.380000
v -0.380000 0.080000 0.400000
v -0.400000 0.080000 0.380000
v -0.380000 0.740000 0.380000
v -0.400000 0.720000 0.380000
v -0.380000 0.720000 0.400000
v 0.380000 0.060000 0.340000
v 0.380000 0.080000 0.320000
v 0.400000 0.080000 0.340000
v 0.380000 0.720000 0.320000
v 0.380000 0.740000 0.340000
v 0.400000 0.720000 0.340000
v 0.380000 0.060000 0.380000
v 0.400000 0.080000 0.380000
v 0.380000 0.080000 0.400000
v 0.380000 0.740000 0.380000
v 0.380000 0.720000 0.400000
v 0.400000 0.720000 0.380000
v 0.340000 0.060000 0.340000
v 0.320000 0.080000 0.340000
v 0.340000 0.080000 0.320000
v 0.340000 0.740000 0.340000
v 0.340000 0.720000 0.320000
v 0.320000 0.720000 0.340000
v 0.340000 0.060000 0.380000
v 0.340000 0.080000 0.400000
v 0.320000 0.080000 0.380000
v 0.340000 0.740000 0.380000
v 0.320000 0.720000 0.380000
v 0.340000 0.720000 0.400000
v 0.387000 0.150000 -0.242000
v 0.387000 0.158000 -0.250000
v 0.395000 0.158000 -0.242000
v 0.387000 0.642000 -0.250000
v 0.387000 0.650000 -0.242000
v 0.395000 0.642000 -0.242000
v 0.387000 0.150000 0.242000
v 0.395000 0.158000 0.242000
v 0.387000 0.158000 0.250000
v 0.387000 0.650000 0.242000
v 0.387000 0.642000 0.250000
v 0.395000 0.642000 0.242000
v 0.383000 0.150000 -0.242000
v 0.375000 0.158000 -0.242000
v 0.383000 0.158000 -0.250000
v 0.383000 0.650000 -0.242000
v 0.383000 0.642000 -0.250000
v 0.375000 0.642000 -0.242000
v 0.383000 0.150000 0.242000
v 0.383000 0.158000 0.250000
v 0.375000 0.158000 0.242000
v 0.383000 0.650000 0.242000
v 0.375000 0.642000 0.242000
v 0.383000 0.642000 0.250000
v -0.383000 0.150000 -0.242000
v -0.383000 0.158000 -0.250000
v -0.375000 0.158000 -0.242000
v -0.383000 0.642000 -0.250000
v -0.383000 0.650000 -0.242000
v -0.375000 0.642000 -0.242000
v -0.383000 0.150000 0.242000
v -0.375000 0.158000 0.242000
v -0.383000 0.158000 0.250000
v -0.383000 0.650000 0.242000
v -0.383000 0.642000 0.250000
v -0.375000 0.642000 0.242000
v -0.387000 0.150000 -0.242000
v -0.395000 0.158000 -0.242000
v -0.387000 0.158000 -0.250000
v -0.387000 0.650000 -0.242000
v -0.387000 0.642000 -0.250000
v -0.395000 0.642000 -0.242000
v -0.387000 0.150000 0.242000
v -0.387000 0.158000 0.250000
v -0.395000 0.158000 0.242000
v -0.387000 0.650000 0.242000
v -0.395000 0.642000 0.242000
v -0.387000 0.642000 0.250000
v 0.162000 0.380000 0.383000
v 0.162000 0.388000 0.375000
v 0.170000 0.388000 0.383000
v 0.162000 0.532000 0.375000
v 0.162000 0.540000 0.383000
v 0.170000 0.532000 0.383000
v 0.162000 0.380000 0.387000
v 0.170000 0.388000 0.387000
v 0.162000 0.388000 0.395000
v 0.162000 0.540000 0.387000
v 0.162000 0.532000 0.395000
v 0.170000 0.532000 0.387000
v -0.162000 0.380000 0.383000
v -0.170000 0.388000 0.383000
v -0.162000 0.388000 0.375000
v -0.162000 0.540000 0.383000
v -0.162000 0.532000 0.375000
v -0.170000 0.532000 0.383000
v -0.162000 0.380000 0.387000
v -0.162000 0.388000 0.395000
v -0.170000 0.388000 0.387000
v -0.162000 0.540000 0.387000
v -0.170000 0.532000 0.387000
v -0.162000 0.532000 0.395000
vn -0.0000 -0.0000 -1.0000
vn -1.0000 -0.0000 -0.0000
vn -0.0000 1.0000 -0.0000
vn 1.0000 -0.0000 -0.0000
vn -0.0000 -0.0000 1.0000
vn 0.5773 -0.5774 -0.5774
vn 0.5773 0.5774 -0.5773
vn 0.5773 -0.5774 0.5774
vn 0.5773 0.5774 0.5773
vn -0.5773 -0.5774 -0.5774
vn -0.5773 0.5774 -0.5773
vn -0.5773 -0.5774 0.5774
vn -0.5773 0.5774 0.5773
vn 0.7071 -0.7071 -0.0000
vn 0.7071 -0.0000 -0.7071
vn 0.7071 0.7071 -0.0000
vn 0.7071 -0.0000 0.7071
vn -0.0000 -0.7071 0.7071
vn -0.0000 0.7071 0.7071
vn -0.7071 -0.0000 0.7071
vn -0.7071 -0.7071 -0.0000
vn -0.7071 0.7071 -0.0000
vn -0.7071 -0.0000 -0.7071
vn -0.0000 -0.7071 -0.7071
vn -0.0000 0.7071 -0.7071
vn -0.0000 -1.0000 -0.0000
vn 0.5774 -0.5774 -0.5773
vn 0.5774 0.5774 -0.5773
vn 0.5774 -0.5774 0.5773
vn 0.5774 0.5774 0.5773
vn -0.5774 -0.5774 -0.5773
vn -0.5774 0.5774 -0.5773
vn -0.5774 -0.5774 0.5773
vn -0.5774 0.5774 0.5773
vn 0.5773 -0.5774 -0.5773
vn 0.5773 -0.5774 0.5773
vn -0.5773 -0.5774 -0.5773
vn -0.5773 -0.5774 0.5773
vn 0.5774 -0.5774 -0.5774
vn 0.5774 0.5774 -0.5774
vn 0.5774 0.5774 0.5774
vn -0.5774 -0.5773 -0.5774
vn -0.5774 0.5774 -0.5774
vn -0.5774 -0.5773 0.5774
vn -0.5774 0.5774 0.5774
vn 0.5774 -0.5773 -0.5774
vn 0.5774 -0.5773 0.5774
vn -0.5774 -0.5774 -0.5774
vn 0.5774 0.5773 -0.5773
vn 0.5774 0.5773 0.5773
vn -0.5774 0.5773 -0.5773
vn -0.5774 0.5773 0.5773
vn 0.5773 0.5773 -0.5774
vn 0.5773 0.5773 0.5774
vn -0.5773 0.5773 -0.5774
vn -0.5773 0.5773 0.5774
vt 0.00000 0.00024
vt 0.00000 0.18160
vt 0.00000 0.38009
vt 0.00000 0.61011
vt 0.00000 0.63430
vt 0.00000 0.84461
vt 0.00000 0.86551
vt 0.00000 0.87865
vt 0.00630 0.17672
vt 0.00646 0.00000
vt 0.00647 0.85893
vt 0.00647 0.86551
vt 0.00647 0.87865
vt 0.00647 0.88522
vt 0.00663 0.18600
vt 0.00686 0.37023
vt 0.00686 0.61997
vt 0.00914 0.63430
vt 0.00914 0.84461
vt 0.01276 0.17648
vt 0.01292 0.36248
vt 0.01309 0.18577
vt 0.01372 0.38009
vt 0.01372 0.61011
vt 0.01372 0.62773
vt 0.01372 0.85118
vt 0.01829 0.63430
vt 0.01829 0.84461
vt 0.01938 0.18088
vt 0.01938 0.36224
vt 0.01940 0.85893
vt 0.01940 0.86551
vt 0.01940 0.87865
vt 0.01940 0.88522
vt 0.02586 0.86551
vt 0.02586 0.87865
vt 0.02701 0.00024
vt 0.02701 0.18160
vt 0.02701 0.38009
vt 0.02701 0.61011
vt 0.02743 0.63430
vt 0.02743 0.84461
vt 0.03331 0.17672
vt 0.03347 0.00000
vt 0.03364 0.18600
vt 0.03387 0.37023
vt 0.03387 0.61997
vt 0.03506 0.63036
vt 0.03506 0.78940
vt 0.03689 0.62773
vt 0.03689 0.79203
vt 0.03872 0.63036
vt 0.03872 0.78940
vt 0.03977 0.17648
vt 0.03994 0.36248
vt 0.04010 0.18577
vt 0.04073 0.38009
vt 0.04073 0.61011
vt 0.04640 0.18088
vt 0.04640 0.36224
vt 0.04836 0.37681
vt 0.04836 0.58711
vt 0.04836 0.60801
vt 0.04836 0.81832
vt 0.04836 0.83527
vt 0.04836 0.94174
vt 0.05094 0.83264
vt 0.05094 0.83527
vt 0.05094 0.94174
vt 0.05094 0.94437
vt 0.05224 0.83264
vt 0.05224 0.83527
vt 0.05224 0.94174
vt 0.05224 0.94437
vt 0.05403 0.00024
vt 0.05403 0.18160
vt 0.05482 0.83527
vt 0.05482 0.94174
vt 0.05750 0.37681
vt 0.05750 0.58711
vt 0.05750 0.60801
vt 0.05750 0.81832
vt 0.06032 0.17672
vt 0.06049 0.00000
vt 0.06065 0.18600
vt 0.06207 0.37023
vt 0.06207 0.59369
vt 0.06207 0.60144
vt 0.06207 0.82489
vt 0.06245 0.83527
vt 0.06245 0.94174
vt 0.06504 0.83264
vt 0.06504 0.83527
vt 0.06504 0.94174
vt 0.06504 0.94437
vt 0.06633 0.83264
vt 0.06633 0.83527
vt 0.06633 0.94174
vt 0.06633 0.94437
vt 0.06664 0.37681
vt 0.06664 0.58711
vt 0.06664 0.60801
vt 0.06664 0.81832
vt 0.06678 0.17648
vt 0.06695 0.36248
vt 0.06711 0.18577
vt 0.06892 0.83527
vt 0.06892 0.94174
vt 0.07341 0.18088
vt 0.07341 0.36224
vt 0.07579 0.37681
vt 0.07579 0.58711
vt 0.07579 0.60801
vt 0.07579 0.81832
vt 0.07655 0.83922
vt 0.07655 0.84579
vt 0.07655 0.86012
vt 0.07655 0.86817
vt 0.08028 0.87353
vt 0.08104 0.00024
vt 0.08104 0.18160
vt 0.08112 0.83264
vt 0.08112 0.85236
vt 0.08342 0.37681
vt 0.08342 0.58711
vt 0.08342 0.60801
vt 0.08342 0.81832
vt 0.08401 0.86280
vt 0.08569 0.83922
vt 0.08569 0.84579
vt 0.08733 0.17672
vt 0.08750 0.00000
vt 0.08767 0.18600
vt 0.08775 0.86817
vt 0.08775 0.87621
vt 0.08799 0.37023
vt 0.08799 0.59369
vt 0.08799 0.60144
vt 0.08799 0.82489
vt 0.09256 0.37681
vt 0.09256 0.58711
vt 0.09256 0.60801
vt 0.09256 0.81832
vt 0.09380 0.17648
vt 0.09396 0.36248
vt 0.09413 0.18577
vt 0.10042 0.18088
vt 0.10042 0.36224
vt 0.10805 0.16962
vt 0.10805 0.35357
vt 0.10805 0.60331
vt 0.10805 0.62421
vt 0.10805 0.87395
vt 0.10805 0.89485
vt 0.10805 0.90799
vt 0.11452 0.34700
vt 0.11452 0.35357
vt 0.11452 0.60331
vt 0.11452 0.60988
vt 0.11452 0.61764
vt 0.11452 0.62421
vt 0.11452 0.87395
vt 0.11452 0.88052
vt 0.11452 0.88828
vt 0.11452 0.89485
vt 0.11452 0.90799
vt 0.11452 0.91456
vt 0.11775 0.00000
vt 0.11775 0.16265
vt 0.11775 0.17659
vt 0.11775 0.33924
vt 0.12745 0.88828
vt 0.12745 0.89485
vt 0.12745 0.90799
vt 0.12745 0.91456
vt 0.13391 0.89485
vt 0.13391 0.90799
vt 0.34405 0.00000
vt 0.34405 0.16265
vt 0.34405 0.17659
vt 0.34405 0.33924
vt 0.35374 0.16962
vt 0.36021 0.34700
vt 0.36021 0.35357
vt 0.36021 0.60331
vt 0.36021 0.60988
vt 0.36021 0.61764
vt 0.36021 0.62421
vt 0.36021 0.87395
vt 0.36021 0.88052
vt 0.36137 0.16962
vt 0.36668 0.35357
vt 0.36668 0.60331
vt 0.36668 0.62421
vt 0.36668 0.87395
vt 0.37107 0.00000
vt 0.37107 0.16265
vt 0.37107 0.17659
vt 0.37107 0.33924
vt 0.37430 0.35357
vt 0.37430 0.60331
vt 0.37430 0.62421
vt 0.37430 0.87395
vt 0.38077 0.34700
vt 0.38077 0.35357
vt 0.38077 0.60331
vt 0.38077 0.60988
vt 0.38077 0.61764
vt 0.38077 0.62421
vt 0.38077 0.87395
vt 0.38077 0.88052
vt 0.59737 0.00000
vt 0.59737 0.16265
vt 0.59737 0.17659
vt 0.59737 0.33924
vt 0.60707 0.16962
vt 0.61469 0.00986
vt 0.61469 0.23988
vt 0.61469 0.26028
vt 0.61728 0.25749
vt 0.61728 0.25842
vt 0.61728 0.26214
vt 0.61728 0.33742
vt 0.62439 0.00000
vt 0.62439 0.00986
vt 0.62439 0.23988
vt 0.62439 0.24974
vt 0.62646 0.34700
vt 0.62646 0.35357
vt 0.62646 0.60331
vt 0.62646 0.60988
vt 0.62646 0.61764
vt 0.62646 0.62421
vt 0.62646 0.87395
vt 0.62646 0.88052
vt 0.63293 0.35357
vt 0.63293 0.60331
vt 0.63293 0.62421
vt 0.63293 0.87395
vt 0.64056 0.35686
vt 0.64056 0.58688
vt 0.64056 0.61106
vt 0.64056 0.82137
vt 0.64056 0.83833
vt 0.64056 0.99737
vt 0.64970 0.61106
vt 0.64970 0.82137
vt 0.65026 0.34700
vt 0.65026 0.35686
vt 0.65026 0.58688
vt 0.65026 0.59674
vt 0.65427 0.60449
vt 0.65427 0.82794
vt 0.65885 0.61106
vt 0.65885 0.82137
vt 0.66383 0.25749
vt 0.66383 0.25842
vt 0.66383 0.26214
vt 0.66383 0.33742
vt 0.66642 0.26028
vt 0.66799 0.61106
vt 0.66799 0.82137
vt 0.67405 0.26028
vt 0.67562 0.61106
vt 0.67562 0.82137
vt 0.67663 0.25749
vt 0.67663 0.25842
vt 0.67663 0.26214
vt 0.67663 0.33742
vt 0.68476 0.61106
vt 0.68476 0.82137
vt 0.68933 0.60449
vt 0.68933 0.82794
vt 0.69390 0.61106
vt 0.69390 0.82137
vt 0.70305 0.61106
vt 0.70305 0.82137
vt 0.71068 0.61106
vt 0.71068 0.82137
vt 0.71982 0.61106
vt 0.71982 0.82137
vt 0.72319 0.25749
vt 0.72319 0.25842
vt 0.72319 0.26214
vt 0.72319 0.33742
vt 0.72439 0.60449
vt 0.72439 0.82794
vt 0.72577 0.26028
vt 0.72896 0.61106
vt 0.72896 0.82137
vt 0.73340 0.26012
vt 0.73340 0.30744
vt 0.73340 0.32440
vt 0.73340 0.33097
vt 0.73523 0.25749
vt 0.73523 0.31007
vt 0.73706 0.26012
vt 0.73706 0.30744
vt 0.73797 0.31783
vt 0.73797 0.33754
vt 0.73811 0.61106
vt 0.73811 0.82137
vt 0.74255 0.32440
vt 0.74255 0.33097
vt 0.74469 0.26012
vt 0.74469 0.30744
vt 0.74574 0.61106
vt 0.74574 0.82137
vt 0.74652 0.25749
vt 0.74652 0.31007
vt 0.74835 0.26012
vt 0.74835 0.30744
vt 0.75120 0.83833
vt 0.75120 0.99737
vt 0.75303 0.83570
vt 0.75303 1.00000
vt 0.75485 0.83833
vt 0.75485 0.99737
vt 0.75488 0.61106
vt 0.75488 0.82137
vt 0.75577 0.83833
vt 0.75577 0.99737
vt 0.75597 0.26407
vt 0.75597 0.27721
vt 0.75597 0.29811
vt 0.75597 0.31125
vt 0.75945 0.60449
vt 0.75945 0.82794
vt 0.76244 0.25749
vt 0.76244 0.26407
vt 0.76244 0.27721
vt 0.76244 0.28378
vt 0.76244 0.29154
vt 0.76244 0.29811
vt 0.76244 0.31125
vt 0.76244 0.31783
vt 0.76340 0.83833
vt 0.76340 0.99737
vt 0.76402 0.61106
vt 0.76402 0.82137
vt 0.77317 0.61106
vt 0.77317 0.82137
vt 0.77537 0.25749
vt 0.77537 0.26407
vt 0.77537 0.27721
vt 0.77537 0.28378
vt 0.77537 0.29154
vt 0.77537 0.29811
vt 0.77537 0.31125
vt 0.77537 0.31783
vt 0.78080 0.61106
vt 0.78080 0.82137
vt 0.78184 0.26407
vt 0.78184 0.27721
vt 0.78184 0.29811
vt 0.78184 0.31125
vt 0.78947 0.26407
vt 0.78947 0.27721
vt 0.78947 0.29811
vt 0.78947 0.31125
vt 0.78994 0.61106
vt 0.78994 0.82137
vt 0.79451 0.60449
vt 0.79451 0.82794
vt 0.79593 0.25749
vt 0.79593 0.26407
vt 0.79593 0.27721
vt 0.79593 0.28378
vt 0.79593 0.29154
vt 0.79593 0.29811
vt 0.79593 0.31125
vt 0.79593 0.31783
vt 0.79909 0.61106
vt 0.79909 0.82137
vt 0.80823 0.61106
vt 0.80823 0.82137
vt 0.80886 0.25749
vt 0.80886 0.26407
vt 0.80886 0.27721
vt 0.80886 0.28378
vt 0.80886 0.29154
vt 0.80886 0.29811
vt 0.80886 0.31125
vt 0.80886 0.31783
vt 0.81533 0.26407
vt 0.81533 0.27721
vt 0.81533 0.29811
vt 0.81533 0.31125
vt 0.81586 0.61106
vt 0.81586 0.82137
vt 0.82043 0.60449
vt 0.82043 0.82794
vt 0.82296 0.26407
vt 0.82296 0.27721
vt 0.82296 0.29811
vt 0.82296 0.31125
vt 0.82500 0.61106
vt 0.82500 0.82137
vt 0.82942 0.25749
vt 0.82942 0.26407
vt 0.82942 0.27721
vt 0.82942 0.28378
vt 0.82942 0.29154
vt 0.82942 0.29811
vt 0.82942 0.31125
vt 0.82942 0.31783
vt 0.83263 0.61106
vt 0.83263 0.82137
vt 0.83720 0.60449
vt 0.83720 0.82794
vt 0.84178 0.61106
vt 0.84178 0.82137
vt 0.84235 0.25749
vt 0.84235 0.26407
vt 0.84235 0.27721
vt 0.84235 0.28378
vt 0.84235 0.29154
vt 0.84235 0.29811
vt 0.84235 0.31125
vt 0.84235 0.31783
vt 0.84882 0.26407
vt 0.84882 0.27721
vt 0.84882 0.29811
vt 0.84882 0.31125
vt 0.84940 0.61106
vt 0.84940 0.82137
vt 0.85069 0.00000
vt 0.85069 0.00986
vt 0.85069 0.23988
vt 0.85069 0.24974
vt 0.85398 0.60449
vt 0.85398 0.82794
vt 0.85645 0.25749
vt 0.85645 0.26554
vt 0.85855 0.61106
vt 0.85855 0.82137
vt 0.86018 0.27091
vt 0.86039 0.00986
vt 0.86039 0.23988
vt 0.86391 0.26018
vt 0.86618 0.61106
vt 0.86618 0.82137
vt 0.86765 0.26554
vt 0.86765 0.27359
vt 0.86802 0.00657
vt 0.86802 0.21688
vt 0.87075 0.60449
vt 0.87075 0.82794
vt 0.87259 0.00000
vt 0.87259 0.22345
vt 0.87404 0.83833
vt 0.87404 0.99737
vt 0.87532 0.61106
vt 0.87532 0.82137
vt 0.87587 0.83570
vt 0.87587 1.00000
vt 0.87655 0.34700
vt 0.87655 0.35686
vt 0.87655 0.58688
vt 0.87655 0.59674
vt 0.87716 0.00657
vt 0.87716 0.21688
vt 0.87769 0.83833
vt 0.87769 0.99737
vt 0.87861 0.83833
vt 0.87861 0.99737
vt 0.88295 0.61106
vt 0.88295 0.82137
vt 0.88479 0.00263
vt 0.88479 0.16167
vt 0.88479 0.17469
vt 0.88479 0.33373
vt 0.88625 0.35686
vt 0.88625 0.58688
vt 0.88752 0.60449
vt 0.88752 0.82794
vt 0.89209 0.61106
vt 0.89209 0.82137
vt 0.89388 0.34963
vt 0.89388 0.50867
vt 0.89646 0.34700
vt 0.89646 0.34963
vt 0.89646 0.50867
vt 0.89646 0.51130
vt 0.89776 0.34700
vt 0.89776 0.34963
vt 0.89776 0.50867
vt 0.89776 0.51130
vt 0.89972 0.60712
vt 0.89972 0.76617
vt 0.89972 0.77918
vt 0.89972 0.93822
vt 0.90034 0.34963
vt 0.90034 0.50867
vt 0.90155 0.77655
vt 0.90155 0.94085
vt 0.90231 0.60449
vt 0.90231 0.60712
vt 0.90231 0.76617
vt 0.90231 0.76879
vt 0.90338 0.77918
vt 0.90338 0.93822
vt 0.90360 0.60449
vt 0.90360 0.60712
vt 0.90360 0.76617
vt 0.90360 0.76879
vt 0.90619 0.60712
vt 0.90619 0.76617
vt 0.90797 0.34963
vt 0.90797 0.50867
vt 0.91056 0.34700
vt 0.91056 0.34963
vt 0.91056 0.50867
vt 0.91056 0.51130
vt 0.91185 0.34700
vt 0.91185 0.34963
vt 0.91185 0.50867
vt 0.91185 0.51130
vt 0.91382 0.60712
vt 0.91382 0.76617
vt 0.91382 0.77918
vt 0.91382 0.93822
vt 0.91444 0.34963
vt 0.91444 0.50867
vt 0.91565 0.77655
vt 0.91565 0.94085
vt 0.91640 0.60449
vt 0.91640 0.60712
vt 0.91640 0.76617
vt 0.91640 0.76879
vt 0.91747 0.77918
vt 0.91747 0.93822
vt 0.91770 0.60449
vt 0.91770 0.60712
vt 0.91770 0.76617
vt 0.91770 0.76879
vt 0.92028 0.60712
vt 0.92028 0.76617
vt 0.92207 0.34963
vt 0.92207 0.50867
vt 0.92390 0.34700
vt 0.92390 0.51130
vt 0.92573 0.34963
vt 0.92573 0.50867
vt 0.99543 0.00263
vt 0.99543 0.16167
vt 0.99543 0.17469
vt 0.99543 0.33373
vt 0.99726 0.00000
vt 0.99726 0.16430
vt 0.99726 0.17206
vt 0.99726 0.33636
vt 0.99909 0.00263
vt 0.99909 0.16167
vt 0.99909 0.17469
vt 0.99909 0.33373
vt 1.00000 0.00263
vt 1.00000 0.16167
vt 1.00000 0.17469
vt 1.00000 0.33373
s 0
usemtl Showcase_graphite
f 1/17/6 2/4/6 3/24/6
f 1/249/14 3/248/14 8/457/14
f 1/249/14 8/457/14 7/458/14
f 10/216/9 11/214/9 12/213/9
f 10/429/16 12/430/16 6/227/16
f 10/429/16 6/227/16 5/226/16
f 10/429/3 16/225/3 22/428/3
f 10/429/3 5/226/3 16/225/3
f 11/214/5 20/199/5 9/198/5
f 11/214/5 24/215/5 20/199/5
f 13/149/10 14/169/10 15/170/10
f 13/250/24 15/241/24 2/240/24
f 13/250/24 2/240/24 1/249/24
f 15/170/23 14/169/23 18/179/23
f 15/170/23 18/179/23 17/180/23
f 16/182/11 17/180/11 18/179/11
f 16/225/22 18/224/22 23/427/22
f 16/225/22 23/427/22 22/428/22
f 17/180/1 2/171/1 15/170/1
f 17/180/1 4/181/1 2/171/1
f 19/459/21 14/251/21 13/250/21
f 19/459/21 21/460/21 14/251/21
f 19/459/26 1/249/26 7/458/26
f 19/459/26 13/250/26 1/249/26
f 19/47/12 20/40/12 21/58/12
f 21/58/20 20/40/20 24/39/20
f 21/58/20 24/39/20 23/57/20
f 22/428/19 11/439/19 10/429/19
f 22/428/19 24/438/19 11/439/19
f 22/46/13 23/57/13 24/39/13
f 23/178/2 14/169/2 21/168/2
f 23/178/2 18/179/2 14/169/2
f 4/3/15 3/24/15 2/4/15
f 4/3/15 6/23/15 3/24/15
f 4/3/7 5/16/7 6/23/7
f 5/226/25 17/217/25 16/225/25
f 5/226/25 4/218/25 17/217/25
f 6/212/4 12/213/4 8/197/4
f 6/212/4 8/197/4 3/196/4
f 7/191/8 8/197/8 9/198/8
f 7/458/18 20/474/18 19/459/18
f 7/458/18 9/473/18 20/474/18
f 9/198/17 12/213/17 11/214/17
f 9/198/17 8/197/17 12/213/17
usemtl Showcase_steel
f 100/126/15 102/142/15 99/143/15
f 100/126/15 99/143/15 98/127/15
f 100/126/40 101/138/40 102/142/40
f 101/367/25 100/358/25 113/357/25
f 101/367/25 113/357/25 112/366/25
f 102/351/4 104/362/4 99/352/4
f 102/351/4 108/361/4 104/362/4
f 103/364/47 104/362/47 105/374/47
f 103/382/18 105/387/18 116/388/18
f 103/382/18 116/388/18 115/383/18
f 105/374/17 104/362/17 108/361/17
f 105/374/17 108/361/17 107/373/17
f 106/363/41 107/373/41 108/361/41
f 106/379/16 102/368/16 101/367/16
f 106/379/16 108/380/16 102/368/16
f 106/379/3 101/367/3 112/366/3
f 106/379/3 112/366/3 118/378/3
f 107/373/5 116/376/5 105/374/5
f 107/373/5 120/375/5 116/376/5
f 109/287/48 110/281/48 111/290/48
f 109/371/24 111/360/24 98/359/24
f 109/371/24 98/359/24 97/370/24
f 111/290/23 110/281/23 114/280/23
f 111/290/23 114/280/23 113/289/23
f 112/286/43 113/289/43 114/280/43
f 112/366/22 114/365/22 119/377/22
f 112/366/22 119/377/22 118/378/22
f 113/289/1 100/301/1 98/302/1
f 113/289/1 98/302/1 111/290/1
f 115/383/21 110/372/21 109/371/21
f 115/383/21 117/384/21 110/372/21
f 115/383/26 109/371/26 97/370/26
f 115/383/26 97/370/26 103/382/26
f 115/392/33 116/390/33 117/398/33
f 117/398/20 116/390/20 120/389/20
f 117/398/20 120/389/20 119/397/20
f 118/378/19 107/386/19 106/379/19
f 118/378/19 120/385/19 107/386/19
f 118/391/45 119/397/45 120/389/45
f 119/278/2 110/281/2 117/279/2
f 119/278/2 114/280/2 110/281/2
f 121/404/14 123/403/14 128/417/14
f 121/404/14 128/417/14 127/418/14
f 121/476/46 122/468/46 123/478/46
f 124/467/15 123/478/15 122/468/15
f 124/467/15 126/477/15 123/478/15
f 124/467/40 125/475/40 126/477/40
f 125/401/25 124/394/25 137/393/25
f 125/401/25 137/393/25 136/400/25
f 126/63/4 128/82/4 123/64/4
f 126/63/4 132/81/4 128/82/4
f 127/418/18 129/423/18 140/424/18
f 127/418/18 140/424/18 139/419/18
f 127/89/47 128/82/47 129/103/47
f 129/103/17 128/82/17 132/81/17
f 129/103/17 132/81/17 131/102/17
f 130/415/16 126/402/16 125/401/16
f 130/415/16 132/416/16 126/402/16
f 130/415/3 125/401/3 136/400/3
f 130/415/3 136/400/3 142/414/3
f 130/88/41 131/102/41 132/81/41
f 131/102/5 140/114/5 129/103/5
f 131/102/5 144/113/5 140/114/5
f 133/273/48 134/271/48 135/275/48
f 133/405/24 122/395/24 121/404/24
f 133/405/24 135/396/24 122/395/24
f 135/275/23 134/271/23 138/270/23
f 135/275/23 138/270/23 137/274/23
f 136/272/43 137/274/43 138/270/43
f 136/400/22 138/399/22 143/413/22
f 136/400/22 143/413/22 142/414/22
f 137/274/1 122/277/1 135/275/1
f 137/274/1 124/276/1 122/277/1
f 139/410/33 140/408/33 141/412/33
f 139/419/21 134/406/21 133/405/21
f 139/419/21 141/420/21 134/406/21
f 139/419/26 121/404/26 127/418/26
f 139/419/26 133/405/26 121/404/26
f 141/412/20 140/408/20 144/407/20
f 141/412/20 144/407/20 143/411/20
f 142/409/45 143/411/45 144/407/45
f 142/414/19 131/422/19 130/415/19
f 142/414/19 144/421/19 131/422/19
f 143/264/2 134/271/2 141/265/2
f 143/264/2 138/270/2 134/271/2
f 145/165/14 147/164/14 152/172/14
f 145/165/14 152/172/14 151/173/14
f 145/432/39 146/426/39 147/436/39
f 148/425/15 147/436/15 146/426/15
f 148/425/15 150/435/15 147/436/15
f 148/425/40 149/431/40 150/435/40
f 149/13/25 148/8/25 161/7/25
f 149/13/25 161/7/25 160/12/25
f 150/307/4 152/320/4 147/308/4
f 150/307/4 156/319/4 152/320/4
f 151/173/18 153/176/18 164/177/18
f 151/173/18 164/177/18 163/174/18
f 151/328/29 152/320/29 153/340/29
f 153/340/17 152/320/17 156/319/17
f 153/340/17 156/319/17 155/339/17
f 154/327/41 155/339/41 156/319/41
f 154/33/16 150/14/16 149/13/16
f 154/33/16 156/34/16 150/14/16
f 154/33/3 149/13/3 160/12/3
f 154/33/3 160/12/3 166/32/3
f 155/339/5 164/342/5 153/340/5
f 155/339/5 168/341/5 164/342/5
f 157/166/24 146/154/24 145/165/24
f 157/166/24 159/155/24 146/154/24
f 157/26/42 158/19/42 159/28/42
f 159/28/23 158/19/23 162/18/23
f 159/28/23 162/18/23 161/27/23
f 160/12/22 162/11/22 167/31/22
f 160/12/22 167/31/22 166/32/22
f 160/25/43 161/27/43 162/18/43
f 161/27/1 146/42/1 159/28/1
f 161/27/1 148/41/1 146/42/1
f 163/174/21 158/167/21 157/166/21
f 163/174/21 165/175/21 158/167/21
f 163/174/26 145/165/26 151/173/26
f 163/174/26 157/166/26 145/165/26
f 163/448/44 164/442/44 165/454/44
f 165/454/20 164/442/20 168/441/20
f 165/454/20 168/441/20 167/453/20
f 166/32/19 155/36/19 154/33/19
f 166/32/19 168/35/19 155/36/19
f 166/447/45 167/453/45 168/441/45
f 167/5/2 158/19/2 165/6/2
f 167/5/2 162/18/2 158/19/2
f 25/135/27 26/119/27 27/134/27
f 25/205/14 27/204/14 32/228/14
f 25/205/14 32/228/14 31/229/14
f 28/118/15 27/134/15 26/119/15
f 28/118/15 30/128/15 27/134/15
f 28/118/28 29/117/28 30/128/28
f 29/158/25 28/151/25 41/150/25
f 29/158/25 41/150/25 40/157/25
f 30/44/4 32/43/4 27/37/4
f 30/44/4 36/54/4 32/43/4
f 31/229/18 33/236/18 44/237/18
f 31/229/18 44/237/18 43/230/18
f 31/38/29 32/43/29 33/45/29
f 33/45/17 32/43/17 36/54/17
f 33/45/17 36/54/17 35/56/17
f 34/185/16 30/159/16 29/158/16
f 34/185/16 36/186/16 30/159/16
f 34/185/3 29/158/3 40/157/3
f 34/185/3 40/157/3 46/184/3
f 34/59/30 35/56/30 36/54/30
f 35/56/5 44/55/5 33/45/5
f 35/56/5 48/60/5 44/55/5
f 37/2/31 38/9/31 39/15/31
f 37/206/24 26/200/24 25/205/24
f 37/206/24 39/201/24 26/200/24
f 39/15/23 38/9/23 42/20/23
f 39/15/23 42/20/23 41/22/23
f 40/157/22 42/156/22 47/183/22
f 40/157/22 47/183/22 46/184/22
f 40/29/32 41/22/32 42/20/32
f 41/22/1 26/21/1 39/15/1
f 41/22/1 28/30/1 26/21/1
f 43/230/21 38/207/21 37/206/21
f 43/230/21 45/231/21 38/207/21
f 43/230/26 25/205/26 31/229/26
f 43/230/26 37/206/26 25/205/26
f 43/444/33 44/437/33 45/443/33
f 45/443/20 44/437/20 48/434/20
f 45/443/20 48/434/20 47/440/20
f 46/184/19 35/193/19 34/185/19
f 46/184/19 48/192/19 35/193/19
f 46/433/34 47/440/34 48/434/34
f 47/10/2 38/9/2 45/1/2
f 47/10/2 42/20/2 38/9/2
f 49/209/14 51/208/14 56/232/14
f 49/209/14 56/232/14 55/233/14
f 49/300/35 50/294/35 51/304/35
f 52/293/15 51/304/15 50/294/15
f 52/293/15 54/303/15 51/304/15
f 52/293/28 53/299/28 54/303/28
f 53/162/25 52/153/25 65/152/25
f 53/162/25 65/152/25 64/161/25
f 54/132/4 56/131/4 51/120/4
f 54/132/4 60/144/4 56/131/4
f 55/121/36 56/131/36 57/133/36
f 55/233/18 57/238/18 68/239/18
f 55/233/18 68/239/18 67/234/18
f 57/133/17 56/131/17 60/144/17
f 57/133/17 60/144/17 59/146/17
f 58/147/30 59/146/30 60/144/30
f 58/189/16 54/163/16 53/162/16
f 58/189/16 60/190/16 54/163/16
f 58/189/3 53/162/3 64/161/3
f 58/189/3 64/161/3 70/188/3
f 59/146/5 68/145/5 57/133/5
f 59/146/5 72/148/5 68/145/5
f 61/210/24 50/202/24 49/209/24
f 61/210/24 63/203/24 50/202/24
f 61/76/37 62/83/37 63/85/37
f 63/85/23 62/83/23 66/104/23
f 63/85/23 66/104/23 65/106/23
f 64/109/32 65/106/32 66/104/32
f 64/161/22 66/160/22 71/187/22
f 64/161/22 71/187/22 70/188/22
f 65/106/1 50/105/1 63/85/1
f 65/106/1 52/110/1 50/105/1
f 67/123/38 68/116/38 69/130/38
f 67/234/21 62/211/21 61/210/21
f 67/234/21 69/235/21 62/211/21
f 67/234/26 49/209/26 55/233/26
f 67/234/26 61/210/26 49/209/26
f 69/130/20 68/116/20 72/115/20
f 69/130/20 72/115/20 71/129/20
f 70/122/34 71/129/34 72/115/34
f 70/188/19 59/195/19 58/189/19
f 70/188/19 72/194/19 59/195/19
f 71/84/2 62/83/2 69/75/2
f 71/84/2 66/104/2 62/83/2
f 73/137/39 74/125/39 75/141/39
f 73/334/14 75/333/14 80/347/14
f 73/334/14 80/347/14 79/348/14
f 76/124/15 75/141/15 74/125/15
f 76/124/15 78/140/15 75/141/15
f 76/124/40 77/136/40 78/140/40
f 77/331/25 76/324/25 89/323/25
f 77/331/25 89/323/25 88/330/25
f 78/242/4 80/247/4 75/243/4
f 78/242/4 84/246/4 80/247/4
f 79/253/29 80/247/29 81/255/29
f 79/348/18 81/355/18 92/356/18
f 79/348/18 92/356/18 91/349/18
f 81/255/17 80/247/17 84/246/17
f 81/255/17 84/246/17 83/254/17
f 82/252/41 83/254/41 84/246/41
f 82/345/16 78/332/16 77/331/16
f 82/345/16 84/346/16 78/332/16
f 82/345/3 77/331/3 88/330/3
f 82/345/3 88/330/3 94/344/3
f 83/254/5 92/262/5 81/255/5
f 83/254/5 96/261/5 92/262/5
f 85/335/24 74/325/24 73/334/24
f 85/335/24 87/326/24 74/325/24
f 85/87/42 86/80/42 87/101/42
f 87/101/23 86/80/23 90/79/23
f 87/101/23 90/79/23 89/100/23
f 88/330/22 90/329/22 95/343/22
f 88/330/22 95/343/22 94/344/22
f 88/86/43 89/100/43 90/79/43
f 89/100/1 74/112/1 87/101/1
f 89/100/1 76/111/1 74/112/1
f 91/349/21 86/336/21 85/335/21
f 91/349/21 93/350/21 86/336/21
f 91/349/26 73/334/26 79/348/26
f 91/349/26 85/335/26 73/334/26
f 91/450/44 92/446/44 93/462/44
f 93/462/20 92/446/20 96/445/20
f 93/462/20 96/445/20 95/461/20
f 94/344/19 83/354/19 82/345/19
f 94/344/19 96/353/19 83/354/19
f 94/449/45 95/461/45 96/445/45
f 95/61/2 86/80/2 93/62/2
f 95/61/2 90/79/2 86/80/2
f 97/139/46 98/127/46 99/143/46
f 97/370/14 104/381/14 103/382/14
f 97/370/14 99/369/14 104/381/14
usemtl Showcase_porcelain
f 169/504/14 171/507/14 176/508/14
f 169/504/14 176/508/14 175/505/14
f 169/51/27 170/49/27 171/53/27
f 172/48/15 171/53/15 170/49/15
f 172/48/15 174/52/15 171/53/15
f 172/48/49 173/50/49 174/52/49
f 173/482/25 172/481/25 185/485/25
f 173/482/25 185/485/25 184/486/25
f 174/337/4 176/452/4 171/338/4
f 174/337/4 180/451/4 176/452/4
f 175/456/29 176/452/29 177/464/29
f 175/505/18 177/506/18 188/500/18
f 175/505/18 188/500/18 187/499/18
f 177/464/17 176/452/17 180/451/17
f 177/464/17 180/451/17 179/463/17
f 178/455/50 179/463/50 180/451/50
f 178/483/16 174/479/16 173/482/16
f 178/483/16 180/480/16 174/479/16
f 178/483/3 173/482/3 184/486/3
f 178/483/3 184/486/3 190/487/3
f 179/463/5 188/466/5 177/464/5
f 179/463/5 192/465/5 188/466/5
f 181/316/31 182/314/31 183/318/31
f 181/498/24 170/503/24 169/504/24
f 181/498/24 183/497/24 170/503/24
f 183/318/23 182/314/23 186/313/23
f 183/318/23 186/313/23 185/317/23
f 184/315/51 185/317/51 186/313/51
f 184/486/22 186/493/22 191/494/22
f 184/486/22 191/494/22 190/487/22
f 185/317/1 170/322/1 183/318/1
f 185/317/1 172/321/1 170/322/1
f 187/499/21 182/489/21 181/498/21
f 187/499/21 189/490/21 182/489/21
f 187/499/26 169/504/26 175/505/26
f 187/499/26 181/498/26 169/504/26
f 187/526/33 188/522/33 189/532/33
f 189/532/20 188/522/20 192/521/20
f 189/532/20 192/521/20 191/531/20
f 190/487/19 179/484/19 178/483/19
f 190/487/19 192/488/19 179/484/19
f 190/525/52 191/531/52 192/521/52
f 191/244/2 182/314/2 189/245/2
f 191/244/2 186/313/2 182/314/2
f 193/534/14 195/537/14 200/538/14
f 193/534/14 200/538/14 199/535/14
f 193/542/27 194/540/27 195/544/27
f 196/539/15 195/544/15 194/540/15
f 196/539/15 198/543/15 195/544/15
f 196/539/49 197/541/49 198/543/49
f 197/512/25 196/511/25 209/515/25
f 197/512/25 209/515/25 208/516/25
f 198/471/4 200/548/4 195/472/4
f 198/471/4 204/547/4 200/548/4
f 199/535/18 201/536/18 212/530/18
f 199/535/18 212/530/18 211/529/18
f 199/552/29 200/548/29 201/556/29
f 201/556/17 200/548/17 204/547/17
f 201/556/17 204/547/17 203/555/17
f 202/513/16 198/509/16 197/512/16
f 202/513/16 204/510/16 198/509/16
f 202/513/3 197/512/3 208/516/3
f 202/513/3 208/516/3 214/517/3
f 202/551/50 203/555/50 204/547/50
f 203/555/5 212/560/5 201/556/5
f 203/555/5 216/559/5 212/560/5
f 205/528/24 194/533/24 193/534/24
f 205/528/24 207/527/24 194/533/24
f 205/550/31 206/546/31 207/554/31
f 207/554/23 206/546/23 210/545/23
f 207/554/23 210/545/23 209/553/23
f 208/516/22 210/523/22 215/524/22
f 208/516/22 215/524/22 214/517/22
f 208/549/51 209/553/51 210/545/51
f 209/553/1 194/558/1 207/554/1
f 209/553/1 196/557/1 194/558/1
f 211/496/33 212/492/33 213/502/33
f 211/529/21 206/519/21 205/528/21
f 211/529/21 213/520/21 206/519/21
f 211/529/26 193/534/26 199/535/26
f 211/529/26 205/528/26 193/534/26
f 213/502/20 212/492/20 216/491/20
f 213/502/20 216/491/20 215/501/20
f 214/495/52 215/501/52 216/491/52
f 214/517/19 203/514/19 202/513/19
f 214/517/19 216/518/19 203/514/19
f 215/469/2 206/546/2 213/470/2
f 215/469/2 210/545/2 206/546/2
usemtl Showcase_amber
f 217/296/46 218/292/46 219/298/46
f 217/93/14 219/92/14 224/96/14
f 217/93/14 224/96/14 223/97/14
f 220/291/15 219/298/15 218/292/15
f 220/291/15 222/297/15 219/298/15
f 220/291/53 221/295/53 222/297/53
f 221/69/25 220/66/25 233/65/25
f 221/69/25 233/65/25 232/68/25
f 222/256/4 224/221/4 219/220/4
f 222/256/4 228/257/4 224/221/4
f 223/219/47 224/221/47 225/222/47
f 223/97/18 225/107/18 236/108/18
f 223/97/18 236/108/18 235/98/18
f 225/222/17 224/221/17 228/257/17
f 225/222/17 228/257/17 227/258/17
f 226/260/54 227/258/54 228/257/54
f 226/73/16 222/70/16 221/69/16
f 226/73/16 228/74/16 222/70/16
f 226/73/3 221/69/3 232/68/3
f 226/73/3 232/68/3 238/72/3
f 227/258/5 236/223/5 225/222/5
f 227/258/5 240/259/5 236/223/5
f 229/263/42 230/267/42 231/268/42
f 229/94/24 218/90/24 217/93/24
f 229/94/24 231/91/24 218/90/24
f 231/268/23 230/267/23 234/283/23
f 231/268/23 234/283/23 233/284/23
f 232/288/55 233/284/55 234/283/55
f 232/68/22 234/67/22 239/71/22
f 232/68/22 239/71/22 238/72/22
f 233/284/1 218/269/1 231/268/1
f 233/284/1 220/285/1 218/269/1
f 235/310/44 236/306/44 237/312/44
f 235/98/21 230/95/21 229/94/21
f 235/98/21 237/99/21 230/95/21
f 235/98/26 217/93/26 223/97/26
f 235/98/26 229/94/26 217/93/26
f 237/312/20 236/306/20 240/305/20
f 237/312/20 240/305/20 239/311/20
f 238/309/56 239/311/56 240/305/56
f 238/72/19 227/78/19 226/73/19
f 238/72/19 240/77/19 227/78/19
f 239/282/2 230/267/2 237/266/2
f 239/282/2 234/283/2 230/267/2
