# Blender 4.0.2
# www.blender.org
mtllib supply_crate_collision.mtl
o supply_crate_collision
v 0.400000 0.000000 -0.400000
v 0.400000 0.800000 -0.400000
v 0.400000 0.000000 0.400000
v 0.400000 0.800000 0.400000
v -0.400000 0.000000 -0.400000
v -0.400000 0.800000 -0.400000
v -0.400000 0.000000 0.400000
v -0.400000 0.800000 0.400000
vn 1.0000 -0.0000 -0.0000
vn -0.0000 -0.0000 1.0000
vn -1.0000 -0.0000 -0.0000
vn -0.0000 -0.0000 -1.0000
vn -0.0000 -1.0000 -0.0000
vn -0.0000 1.0000 -0.0000
vt 0.00000 0.00000
vt 0.00000 0.33121
vt 0.00000 0.33439
vt 0.00000 0.66561
vt 0.00000 0.66879
vt 0.00000 1.00000
vt 0.49761 0.00000
vt 0.49761 0.33121
vt 0.49761 0.33439
vt 0.49761 0.66561
vt 0.49761 0.66879
vt 0.49761 1.00000
vt 0.50239 0.00000
vt 0.50239 0.33121
vt 0.50239 0.33439
vt 0.50239 0.66561
vt 0.50239 0.66879
vt 0.50239 1.00000
vt 1.00000 0.00000
vt 1.00000 0.33121
vt 1.00000 0.33439
vt 1.00000 0.66561
vt 1.00000 0.66879
vt 1.00000 1.00000
s 0
usemtl Showcase_collision
f 2/13/1 3/20/1 1/14/1
f 2/13/1 4/19/1 3/20/1
f 4/15/2 7/22/2 3/16/2
f 4/15/2 8/21/2 7/22/2
f 4/4/6 2/3/6 6/9/6
f 4/4/6 6/9/6 8/10/6
f 6/18/4 1/23/4 5/24/4
f 6/18/4 2/17/4 1/23/4
f 7/2/5 1/7/5 3/8/5
f 7/2/5 5/1/5 1/7/5
f 8/6/3 5/11/3 7/12/3
f 8/6/3 6/5/3 5/11/3
