# Blender 4.0.2
# www.blender.org
mtllib supply_crate_lod1.mtl
o supply_crate_lod1
v 0.350000 0.020000 -0.350000
v 0.350000 0.050000 -0.380000
v 0.380000 0.050000 -0.350000
v 0.356613 0.766935 -0.368548
v 0.380000 0.750000 -0.350000
v 0.380000 0.050000 0.350000
v 0.356613 0.033065 0.368548
v 0.350000 0.780000 0.350000
v 0.350000 0.750000 0.380000
v 0.380000 0.750000 0.350000
v -0.380000 0.050000 -0.350000
v -0.356613 0.033065 -0.368548
v -0.350000 0.780000 -0.350000
v -0.350000 0.750000 -0.380000
v -0.380000 0.750000 -0.350000
v -0.350000 0.020000 0.350000
v -0.350000 0.050000 0.380000
v -0.380000 0.050000 0.350000
v -0.380000 0.750000 0.350000
v -0.356613 0.766935 0.368548
v 0.380000 0.000000 -0.380000
v 0.379919 0.028421 -0.403158
v 0.380000 0.060000 -0.380000
v 0.403158 0.031579 -0.379919
v 0.380000 0.000000 0.380000
v 0.403158 0.028421 0.379919
v 0.380000 0.060000 0.380000
v 0.379919 0.031579 0.403158
v -0.380000 0.000000 -0.380000
v -0.403158 0.028421 -0.379919
v -0.380000 0.060000 -0.380000
v -0.379919 0.031579 -0.403158
v -0.380000 0.000000 0.380000
v -0.379919 0.028421 0.403158
v -0.380000 0.060000 0.380000
v -0.403158 0.031579 0.379919
v 0.380000 0.740000 -0.380000
v 0.379919 0.768421 -0.403158
v 0.380000 0.800000 -0.380000
v 0.403158 0.771579 -0.379919
v 0.380000 0.740000 0.380000
v 0.403158 0.768421 0.379919
v 0.380000 0.800000 0.380000
v 0.379919 0.771579 0.403158
v -0.380000 0.740000 -0.380000
v -0.403158 0.768421 -0.379919
v -0.380000 0.800000 -0.380000
v -0.379919 0.771579 -0.403158
v -0.380000 0.740000 0.380000
v -0.379919 0.768421 0.403158
v -0.380000 0.800000 0.380000
v -0.403158 0.771579 0.379919
v 0.388333 0.068333 -0.391667
v 0.392308 0.729231 -0.389231
v 0.392308 0.070769 -0.330769
v 0.388333 0.731667 -0.328333
v 0.327692 0.070769 -0.389231
v 0.331667 0.731667 -0.391667
v 0.331667 0.068333 -0.328333
v 0.327692 0.729231 -0.330769
v -0.340000 0.060000 -0.380000
v -0.329660 0.076830 -0.394642
v -0.327692 0.729231 -0.389231
v -0.327692 0.070769 -0.330769
v -0.331667 0.731667 -0.328333
v -0.392308 0.070769 -0.389231
v -0.388333 0.731667 -0.391667
v -0.380000 0.060000 -0.340000
v -0.390340 0.076830 -0.325359
v -0.392308 0.729231 -0.330769
v -0.331667 0.068333 0.328333
v -0.327692 0.729231 0.330769
v -0.327692 0.070769 0.389231
v -0.331667 0.731667 0.391667
v -0.392308 0.070769 0.330769
v -0.388333 0.731667 0.328333
v -0.388333 0.068333 0.391667
v -0.392308 0.729231 0.389231
v 0.380000 0.060000 0.340000
v 0.390340 0.076830 0.325359
v 0.392308 0.729231 0.330769
v 0.392308 0.070769 0.389231
v 0.388333 0.731667 0.391667
v 0.327692 0.070769 0.330769
v 0.331667 0.731667 0.328333
v 0.331667 0.068333 0.391667
v 0.327692 0.729231 0.389231
v 0.384091 0.151875 -0.248125
v 0.384091 0.648125 0.248125
v 0.385909 0.648125 -0.248125
v 0.385909 0.151875 0.248125
v -0.385909 0.151875 -0.248125
v -0.385909 0.648125 0.248125
v -0.384091 0.648125 -0.248125
v -0.384091 0.151875 0.248125
v 0.168125 0.538125 0.385909
v 0.168125 0.381875 0.384091
v -0.168125 0.381875 0.385909
v -0.168125 0.538125 0.384091
vn 0.5773 -0.5774 -0.5774
vn 0.5773 0.5774 0.5773
vn -0.5773 0.5774 -0.5773
vn -0.5773 -0.5774 0.5774
vn -0.0055 -0.7071 0.7071
vn 0.0055 0.7071 0.7071
vn 0.0055 -0.7071 -0.7071
vn -0.0055 0.7071 -0.7071
vn 0.6529 -0.4773 -0.5881
vn 0.5881 0.4773 -0.6529
vn 0.5881 -0.4773 0.6529
vn 0.6529 0.4773 0.5881
vn -0.5881 -0.4773 -0.6529
vn -0.6529 0.4773 -0.5881
vn -0.6529 -0.4773 0.5881
vn -0.5881 0.4773 0.6529
vn 0.0018 -0.6557 0.7550
vn -0.0018 -0.6557 -0.7550
vn 0.0158 0.0158 -0.9997
vn -1.0000 -0.0000 -0.0000
vn 0.0180 0.9997 -0.0180
vn 1.0000 -0.0000 -0.0000
vn -0.0158 0.0158 0.9997
vn 0.7071 -0.7071 -0.0000
vn 0.7071 -0.0000 -0.7071
vn 0.7071 0.7071 -0.0000
vn 0.7071 -0.0000 0.7071
vn -0.6244 0.0067 0.7811
vn -0.7071 -0.7071 -0.0000
vn -0.7071 0.7071 -0.0000
vn -0.7071 -0.0000 -0.7071
vn -0.0180 -0.9997 -0.0180
vn -0.0000 1.0000 -0.0000
vn 0.8064 -0.5914 -0.0025
vn 0.8064 0.5914 0.0025
vn 0.0025 -0.5914 0.8064
vn -0.0025 0.5914 0.8064
vn -0.8064 -0.5914 0.0025
vn -0.8064 0.5914 -0.0025
vn -0.0025 -0.5914 -0.8064
vn 0.0025 0.5914 -0.8064
vn -0.0000 -1.0000 -0.0000
vn -0.0400 0.0039 -0.9992
vn -0.9979 0.0058 -0.0649
vn 0.0416 0.9984 -0.0372
vn 0.9979 0.0058 0.0649
vn 0.0400 0.0039 0.9992
vn -0.0416 -0.9984 -0.0372
vn 0.0405 0.0082 -0.9991
vn -0.9995 0.0061 0.0302
vn 0.9995 0.0061 -0.0302
vn -0.0405 0.0082 0.9991
vn -0.1699 -0.9707 -0.1699
vn 0.8171 -0.5710 -0.0794
vn -0.8171 -0.5710 0.0794
vn -0.1971 -0.9800 -0.0263
vn -1.0000 0.0037 0.0037
vn 1.0000 0.0037 -0.0037
vn -0.0054 0.0116 -0.9999
vn 0.0054 0.0116 0.9999
vn -0.0158 -0.0158 -0.9997
vn -0.0180 0.9997 0.0180
vn 0.0158 -0.0158 0.9997
vn 0.5913 -0.8064 0.0092
vn 0.6244 0.0067 -0.7811
vn 0.5913 0.8064 -0.0092
vn 0.6244 -0.0067 0.7811
vn -0.7071 -0.0000 0.7071
vn -0.5913 -0.8064 -0.0092
vn -0.5913 0.8064 0.0092
vn -0.6244 -0.0067 -0.7811
vn 0.0180 -0.9997 0.0180
vn 0.7752 -0.6317 -0.0000
vn 0.7752 0.6317 -0.0000
vn -0.0000 -0.6317 0.7752
vn -0.0000 0.6317 0.7752
vn -0.7752 -0.6317 -0.0000
vn -0.7752 0.6317 -0.0000
vn -0.0000 -0.6317 -0.7752
vn -0.0000 0.6317 -0.7752
vn 0.0400 -0.0039 -0.9992
vn -0.9979 -0.0058 0.0649
vn -0.0416 0.9984 0.0372
vn 0.9979 -0.0058 -0.0649
vn -0.0400 -0.0039 0.9992
vn 0.0416 -0.9984 0.0372
vn -0.0857 -0.0032 -0.9963
vn -0.9979 -0.0036 -0.0653
vn 0.9979 -0.0036 0.0653
vn 0.0857 -0.0032 0.9963
vn 0.1699 -0.9707 0.1699
vn 0.0474 -0.9782 0.2021
vn -1.0000 -0.0037 -0.0037
vn 1.0000 -0.0037 0.0037
vn 0.0054 -0.0116 -0.9999
vn -0.0054 -0.0116 0.9999
vt 0.00000 0.18160
vt 0.00000 0.61011
vt 0.00000 0.63430
vt 0.00000 0.84461
vt 0.00325 0.37543
vt 0.00426 0.88097
vt 0.00647 0.86119
vt 0.00686 0.61997
vt 0.00902 0.17661
vt 0.01037 0.18587
vt 0.01366 0.84662
vt 0.01372 0.38009
vt 0.01372 0.61011
vt 0.01470 0.63430
vt 0.01938 0.18088
vt 0.01940 0.88297
vt 0.02160 0.86318
vt 0.02701 0.18160
vt 0.02701 0.61011
vt 0.02743 0.63430
vt 0.02743 0.84461
vt 0.03026 0.37543
vt 0.03387 0.61997
vt 0.03603 0.17661
vt 0.03738 0.18587
vt 0.04073 0.38009
vt 0.04073 0.61011
vt 0.04640 0.18088
vt 0.04836 0.37681
vt 0.04836 0.58711
vt 0.04836 0.60801
vt 0.04836 0.81832
vt 0.05403 0.18160
vt 0.06201 0.58912
vt 0.06201 0.82033
vt 0.06304 0.17661
vt 0.06306 0.37681
vt 0.06306 0.60801
vt 0.06439 0.18587
vt 0.07341 0.18088
vt 0.07579 0.37681
vt 0.07579 0.58711
vt 0.07579 0.60801
vt 0.07579 0.81832
vt 0.07655 0.84302
vt 0.07655 0.86012
vt 0.07871 0.87127
vt 0.08104 0.18160
vt 0.08112 0.83264
vt 0.08112 0.85236
vt 0.08558 0.86506
vt 0.08569 0.84198
vt 0.08775 0.87621
vt 0.09005 0.17661
vt 0.09141 0.18587
vt 0.10042 0.18088
vt 0.10805 0.35357
vt 0.10805 0.60331
vt 0.10805 0.62421
vt 0.10805 0.87395
vt 0.10805 0.89485
vt 0.11232 0.91032
vt 0.11316 0.17329
vt 0.11452 0.34700
vt 0.11452 0.35357
vt 0.11452 0.60331
vt 0.11452 0.60988
vt 0.11452 0.61764
vt 0.11452 0.62421
vt 0.11452 0.87395
vt 0.11452 0.88052
vt 0.11452 0.88828
vt 0.11452 0.89485
vt 0.11775 0.00000
vt 0.11775 0.16265
vt 0.11775 0.33924
vt 0.12745 0.91231
vt 0.12965 0.89252
vt 0.34405 0.00000
vt 0.34405 0.16265
vt 0.34405 0.17659
vt 0.34405 0.33924
vt 0.35374 0.16962
vt 0.36021 0.34700
vt 0.36021 0.35357
vt 0.36021 0.60331
vt 0.36021 0.60988
vt 0.36021 0.61764
vt 0.36021 0.62421
vt 0.36021 0.87395
vt 0.36021 0.88052
vt 0.36648 0.17329
vt 0.36668 0.35357
vt 0.36668 0.60331
vt 0.36668 0.62421
vt 0.36668 0.87395
vt 0.37107 0.00000
vt 0.37107 0.16265
vt 0.37107 0.33924
vt 0.37430 0.35357
vt 0.37430 0.60331
vt 0.37430 0.62421
vt 0.37430 0.87395
vt 0.38077 0.34700
vt 0.38077 0.35357
vt 0.38077 0.60331
vt 0.38077 0.60988
vt 0.38077 0.61764
vt 0.38077 0.62421
vt 0.38077 0.87395
vt 0.38077 0.88052
vt 0.59737 0.00000
vt 0.59737 0.16265
vt 0.59737 0.17659
vt 0.59737 0.33924
vt 0.60707 0.16962
vt 0.61469 0.00986
vt 0.61639 0.25931
vt 0.61728 0.33742
vt 0.61928 0.23988
vt 0.62439 0.00000
vt 0.62439 0.00986
vt 0.62439 0.24974
vt 0.62646 0.34700
vt 0.62646 0.35357
vt 0.62646 0.60331
vt 0.62646 0.60988
vt 0.62646 0.61764
vt 0.62646 0.62421
vt 0.62646 0.87395
vt 0.62646 0.88052
vt 0.63293 0.35357
vt 0.63293 0.60331
vt 0.63293 0.62421
vt 0.63293 0.87395
vt 0.64056 0.35686
vt 0.64056 0.61106
vt 0.64056 0.82137
vt 0.64056 0.83833
vt 0.64056 0.99737
vt 0.64515 0.58688
vt 0.65026 0.34700
vt 0.65026 0.35686
vt 0.65026 0.59674
vt 0.65421 0.82338
vt 0.65526 0.61106
vt 0.66383 0.25948
vt 0.66383 0.33742
vt 0.66799 0.61106
vt 0.66799 0.82137
vt 0.67562 0.61106
vt 0.67562 0.82137
vt 0.67574 0.25931
vt 0.67663 0.33742
vt 0.68927 0.82338
vt 0.69032 0.61106
vt 0.70305 0.61106
vt 0.70305 0.82137
vt 0.71068 0.61106
vt 0.71068 0.82137
vt 0.72319 0.25948
vt 0.72319 0.33742
vt 0.72433 0.82338
vt 0.72538 0.61106
vt 0.73340 0.32820
vt 0.73797 0.31783
vt 0.73797 0.33754
vt 0.73811 0.61106
vt 0.73811 0.82137
vt 0.74255 0.32716
vt 0.74574 0.61106
vt 0.74574 0.82137
vt 0.75381 0.99737
vt 0.75399 0.83742
vt 0.75939 0.82338
vt 0.76024 0.27953
vt 0.76024 0.31358
vt 0.76044 0.61106
vt 0.76244 0.25975
vt 0.76244 0.29379
vt 0.76340 0.83833
vt 0.76340 0.99737
vt 0.77317 0.61106
vt 0.77317 0.82137
vt 0.77537 0.28153
vt 0.77537 0.31557
vt 0.77757 0.26174
vt 0.77757 0.29578
vt 0.78080 0.61106
vt 0.78080 0.82137
vt 0.78947 0.29811
vt 0.79373 0.27953
vt 0.79373 0.31358
vt 0.79445 0.82338
vt 0.79550 0.61106
vt 0.79593 0.25975
vt 0.79593 0.29154
vt 0.79593 0.29811
vt 0.80823 0.61106
vt 0.80823 0.82137
vt 0.80886 0.28153
vt 0.80886 0.31125
vt 0.80886 0.31783
vt 0.81107 0.26174
vt 0.81107 0.29578
vt 0.81533 0.31125
vt 0.82722 0.27953
vt 0.82722 0.31358
vt 0.82942 0.25975
vt 0.82942 0.29379
vt 0.84235 0.28153
vt 0.84235 0.31557
vt 0.84456 0.26174
vt 0.84456 0.29578
vt 0.85069 0.00000
vt 0.85069 0.23988
vt 0.85069 0.24974
vt 0.85580 0.00986
vt 0.85645 0.25749
vt 0.85861 0.26865
vt 0.86039 0.23988
vt 0.86549 0.26244
vt 0.86765 0.27359
vt 0.87655 0.34700
vt 0.87655 0.58688
vt 0.87655 0.59674
vt 0.87665 0.99737
vt 0.87683 0.83742
vt 0.88166 0.35686
vt 0.88479 0.00263
vt 0.88479 0.16167
vt 0.88479 0.17469
vt 0.88479 0.33373
vt 0.88625 0.58688
vt 0.99804 0.16167
vt 0.99804 0.33373
vt 0.99822 0.00172
vt 0.99822 0.17378
s 0
usemtl Showcase_graphite
f 1/143/32 16/225/32 12/141/32
f 1/143/72 7/229/72 16/225/72
f 1/8/1 2/2/1 3/13/1
f 11/144/29 16/225/29 18/226/29
f 11/144/69 12/141/69 16/225/69
f 12/141/7 2/136/7 1/143/7
f 13/122/21 8/216/21 4/120/21
f 13/122/62 20/218/62 8/216/62
f 13/83/3 14/81/3 15/80/3
f 14/81/31 11/75/31 15/80/31
f 14/81/71 12/63/71 11/75/71
f 16/23/4 17/19/4 18/27/4
f 17/99/23 9/114/23 20/115/23
f 17/99/63 7/92/63 9/114/63
f 18/74/20 15/80/20 11/75/20
f 18/74/20 19/79/20 15/80/20
f 19/215/30 13/122/30 15/121/30
f 19/215/70 20/218/70 13/122/70
f 19/26/28 17/19/28 20/22/28
f 19/26/68 18/27/68 17/19/68
f 2/2/25 5/12/25 3/13/25
f 2/2/65 4/5/65 5/12/65
f 2/76/19 14/81/19 4/82/19
f 2/76/61 12/63/61 14/81/61
f 20/218/6 9/221/6 8/216/6
f 3/97/22 10/113/22 6/98/22
f 3/97/22 5/112/22 10/113/22
f 4/120/8 14/117/8 13/122/8
f 5/123/26 8/216/26 10/217/26
f 5/123/66 4/120/66 8/216/66
f 6/224/24 1/143/24 3/142/24
f 6/224/64 7/229/64 1/143/64
f 7/229/5 17/234/5 16/225/5
f 8/116/2 9/114/2 10/113/2
f 9/114/27 6/98/27 10/113/27
f 9/114/67 7/92/67 6/98/67
usemtl Showcase_steel
f 21/53/9 22/47/9 24/51/9
f 22/100/40 29/106/40 32/101/40
f 22/100/79 21/105/79 29/106/79
f 22/47/10 23/46/10 24/51/10
f 24/67/35 27/86/35 26/87/35
f 24/67/74 23/66/74 27/86/74
f 25/125/42 29/106/42 21/105/42
f 25/125/42 33/126/42 29/106/42
f 25/18/11 26/24/11 28/25/11
f 26/124/34 21/105/34 24/104/34
f 26/124/73 25/125/73 21/105/73
f 27/28/12 28/25/12 26/24/12
f 28/94/37 35/85/37 34/93/37
f 28/94/76 27/86/76 35/85/76
f 29/1/13 30/9/13 32/10/13
f 30/107/38 33/126/38 36/127/38
f 30/107/77 29/106/77 33/126/77
f 31/15/14 32/10/14 30/9/14
f 32/57/41 23/66/41 22/58/41
f 32/57/80 31/65/80 23/66/80
f 33/223/15 34/220/15 36/222/15
f 34/133/36 25/125/36 28/132/36
f 34/133/75 33/126/75 25/125/75
f 35/219/16 36/222/16 34/220/16
f 35/85/33 23/66/33 31/65/33
f 35/85/33 27/86/33 23/66/33
f 36/84/39 31/65/39 30/64/39
f 36/84/78 35/85/78 31/65/78
f 37/167/9 38/165/9 40/170/9
f 38/102/40 45/110/40 48/103/40
f 38/102/79 37/109/79 45/110/79
f 38/165/10 39/166/10 40/170/10
f 40/71/35 43/90/35 42/91/35
f 40/71/74 39/70/74 43/90/74
f 41/129/42 45/110/42 37/109/42
f 41/129/42 49/130/42 45/110/42
f 41/48/11 42/54/11 44/55/11
f 42/128/34 37/109/34 40/108/34
f 42/128/73 41/129/73 37/109/73
f 43/56/12 44/55/12 42/54/12
f 44/96/37 51/89/37 50/95/37
f 44/96/76 43/90/76 51/89/76
f 45/33/13 46/36/13 48/39/13
f 46/111/38 49/130/38 52/131/38
f 46/111/77 45/110/77 49/130/77
f 47/40/14 48/39/14 46/36/14
f 48/59/41 39/70/41 38/60/41
f 48/59/80 47/69/80 39/70/80
f 49/50/15 50/45/15 52/52/15
f 50/135/36 41/129/36 44/134/36
f 50/135/75 49/130/75 41/129/75
f 51/49/16 52/52/16 50/45/16
f 51/89/33 39/70/33 47/69/33
f 51/89/33 43/90/33 39/70/33
f 52/88/39 47/69/39 46/68/39
f 52/88/78 51/89/78 47/69/78
f 53/180/48 59/186/48 57/177/48
f 53/180/86 55/188/86 59/186/86
f 55/145/46 54/137/46 56/146/46
f 55/145/47 60/149/47 59/150/47
f 55/145/84 53/138/84 54/137/84
f 55/145/85 56/146/85 60/149/85
f 57/34/43 54/41/43 53/42/43
f 57/34/44 60/29/44 58/37/44
f 57/34/81 58/37/81 54/41/81
f 57/34/82 59/30/82 60/29/82
f 58/179/45 56/185/45 54/176/45
f 58/179/83 60/187/83 56/185/83
f 61/198/53 68/202/53 66/193/53
f 61/198/54 62/197/54 64/205/54
f 61/198/91 64/205/91 68/202/91
f 62/169/49 67/164/49 63/168/49
f 62/169/87 66/163/87 67/164/87
f 62/190/51 65/195/51 64/194/51
f 62/190/89 63/189/89 65/195/89
f 64/205/17 69/206/17 68/202/17
f 66/193/18 62/191/18 61/198/18
f 67/196/45 65/201/45 63/192/45
f 67/196/83 70/204/83 65/201/83
f 68/202/55 69/203/55 66/193/55
f 69/160/50 67/164/50 66/163/50
f 69/160/88 70/159/88 67/164/88
f 69/200/52 65/195/52 70/199/52
f 69/200/90 64/194/90 65/195/90
f 71/210/48 77/212/48 75/208/48
f 71/210/86 73/214/86 77/212/86
f 73/35/46 72/31/46 74/38/46
f 73/35/47 78/43/47 77/44/47
f 73/35/84 71/32/84 72/31/84
f 73/35/85 74/38/85 78/43/85
f 75/155/43 72/157/43 71/158/43
f 75/155/44 78/151/44 76/156/44
f 75/155/81 76/156/81 72/157/81
f 75/155/82 77/152/82 78/151/82
f 76/209/45 74/211/45 72/207/45
f 76/209/83 78/213/83 74/211/83
f 79/73/54 80/72/54 82/78/54
f 79/73/56 86/77/56 84/62/56
f 79/73/92 82/78/92 86/77/92
f 80/172/51 83/178/51 82/175/51
f 80/172/89 81/171/89 83/178/89
f 80/21/49 85/14/49 81/20/49
f 80/21/87 84/11/87 85/14/87
f 82/175/47 87/183/47 86/184/47
f 82/175/85 83/178/85 87/183/85
f 84/11/44 87/3/44 85/14/44
f 84/11/82 86/4/82 87/3/82
f 84/62/18 80/61/18 79/73/18
f 85/7/45 83/16/45 81/6/45
f 85/7/83 87/17/83 83/16/83
usemtl Showcase_porcelain
f 88/182/58 89/228/58 91/227/58
f 88/182/94 90/181/94 89/228/94
f 91/140/57 90/174/57 88/173/57
f 91/140/93 89/139/93 90/174/93
f 92/233/58 93/238/58 95/236/58
f 92/233/94 94/232/94 93/238/94
f 95/231/57 94/237/57 92/235/57
f 95/231/93 93/230/93 94/237/93
usemtl Showcase_amber
f 97/118/60 99/148/60 98/119/60
f 97/118/96 96/147/96 99/148/96
f 98/153/59 96/162/59 97/154/59
f 98/153/95 99/161/95 96/162/95
