# TERRAFRONT procedural asset — generated by Tools/assetgen (deterministic)
# Y-up, +Z forward (muzzle), units = meters, pivot at grip/origin.
# comms_relay — TERRAFRONT P2
# Ground y=0, meters, scene Transform scale 1. AABB-collider friendly.
mtllib tf_struct.mtl
o comms_relay
v -2.1000 0.1000 -1.8000
v -2.1000 2.5000 -1.8000
v 2.1000 2.5000 -1.8000
v 2.1000 0.1000 -1.8000
v 2.1000 0.1000 1.8000
v 2.1000 2.5000 1.8000
v -2.1000 2.5000 1.8000
v -2.1000 0.1000 1.8000
v -2.1000 2.6000 -1.7000
v -2.1000 2.6000 1.7000
v 2.1000 2.6000 1.7000
v 2.1000 2.6000 -1.7000
v -2.1000 0.0000 -1.7000
v 2.1000 0.0000 -1.7000
v 2.1000 0.0000 1.7000
v -2.1000 0.0000 1.7000
v 2.2000 0.1000 -1.7000
v 2.2000 2.5000 -1.7000
v 2.2000 2.5000 1.7000
v 2.2000 0.1000 1.7000
v -2.2000 0.1000 1.7000
v -2.2000 2.5000 1.7000
v -2.2000 2.5000 -1.7000
v -2.2000 0.1000 -1.7000
v -2.1000 2.6000 -1.7000
v 2.1000 2.6000 -1.7000
v 2.1000 2.5000 -1.8000
v -2.1000 2.5000 -1.8000
v 2.1000 2.6000 1.7000
v -2.1000 2.6000 1.7000
v -2.1000 2.5000 1.8000
v 2.1000 2.5000 1.8000
v 2.1000 0.0000 -1.7000
v -2.1000 0.0000 -1.7000
v -2.1000 0.1000 -1.8000
v 2.1000 0.1000 -1.8000
v -2.1000 0.0000 1.7000
v 2.1000 0.0000 1.7000
v 2.1000 0.1000 1.8000
v -2.1000 0.1000 1.8000
v 2.2000 2.5000 -1.7000
v 2.2000 2.5000 1.7000
v 2.1000 2.6000 1.7000
v 2.1000 2.6000 -1.7000
v 2.2000 0.1000 1.7000
v 2.2000 0.1000 -1.7000
v 2.1000 0.0000 -1.7000
v 2.1000 0.0000 1.7000
v -2.2000 2.5000 1.7000
v -2.2000 2.5000 -1.7000
v -2.1000 2.6000 -1.7000
v -2.1000 2.6000 1.7000
v -2.2000 0.1000 -1.7000
v -2.2000 0.1000 1.7000
v -2.1000 0.0000 1.7000
v -2.1000 0.0000 -1.7000
v 2.2000 2.5000 -1.7000
v 2.1000 2.5000 -1.8000
v 2.1000 0.1000 -1.8000
v 2.2000 0.1000 -1.7000
v 2.2000 0.1000 1.7000
v 2.1000 0.1000 1.8000
v 2.1000 2.5000 1.8000
v 2.2000 2.5000 1.7000
v -2.2000 0.1000 -1.7000
v -2.1000 0.1000 -1.8000
v -2.1000 2.5000 -1.8000
v -2.2000 2.5000 -1.7000
v -2.2000 2.5000 1.7000
v -2.1000 2.5000 1.8000
v -2.1000 0.1000 1.8000
v -2.2000 0.1000 1.7000
v 2.1000 2.6000 1.7000
v 2.2000 2.5000 1.7000
v 2.1000 2.5000 1.8000
v -2.1000 2.5000 1.8000
v -2.2000 2.5000 1.7000
v -2.1000 2.6000 1.7000
v 2.1000 0.1000 1.8000
v 2.2000 0.1000 1.7000
v 2.1000 0.0000 1.7000
v -2.1000 0.0000 1.7000
v -2.2000 0.1000 1.7000
v -2.1000 0.1000 1.8000
v 2.1000 2.5000 -1.8000
v 2.2000 2.5000 -1.7000
v 2.1000 2.6000 -1.7000
v -2.1000 2.6000 -1.7000
v -2.2000 2.5000 -1.7000
v -2.1000 2.5000 -1.8000
v 2.1000 0.0000 -1.7000
v 2.2000 0.1000 -1.7000
v 2.1000 0.1000 -1.8000
v -2.1000 0.1000 -1.8000
v -2.2000 0.1000 -1.7000
v -2.1000 0.0000 -1.7000
v -2.3500 0.0500 -2.0000
v -2.3500 0.4500 -2.0000
v 2.3500 0.4500 -2.0000
v 2.3500 0.0500 -2.0000
v 2.3500 0.0500 2.0000
v 2.3500 0.4500 2.0000
v -2.3500 0.4500 2.0000
v -2.3500 0.0500 2.0000
v -2.3500 0.5000 -1.9500
v -2.3500 0.5000 1.9500
v 2.3500 0.5000 1.9500
v 2.3500 0.5000 -1.9500
v -2.3500 0.0000 -1.9500
v 2.3500 0.0000 -1.9500
v 2.3500 0.0000 1.9500
v -2.3500 0.0000 1.9500
v 2.4000 0.0500 -1.9500
v 2.4000 0.4500 -1.9500
v 2.4000 0.4500 1.9500
v 2.4000 0.0500 1.9500
v -2.4000 0.0500 1.9500
v -2.4000 0.4500 1.9500
v -2.4000 0.4500 -1.9500
v -2.4000 0.0500 -1.9500
v -2.3500 0.5000 -1.9500
v 2.3500 0.5000 -1.9500
v 2.3500 0.4500 -2.0000
v -2.3500 0.4500 -2.0000
v 2.3500 0.5000 1.9500
v -2.3500 0.5000 1.9500
v -2.3500 0.4500 2.0000
v 2.3500 0.4500 2.0000
v 2.3500 0.0000 -1.9500
v -2.3500 0.0000 -1.9500
v -2.3500 0.0500 -2.0000
v 2.3500 0.0500 -2.0000
v -2.3500 0.0000 1.9500
v 2.3500 0.0000 1.9500
v 2.3500 0.0500 2.0000
v -2.3500 0.0500 2.0000
v 2.4000 0.4500 -1.9500
v 2.4000 0.4500 1.9500
v 2.3500 0.5000 1.9500
v 2.3500 0.5000 -1.9500
v 2.4000 0.0500 1.9500
v 2.4000 0.0500 -1.9500
v 2.3500 0.0000 -1.9500
v 2.3500 0.0000 1.9500
v -2.4000 0.4500 1.9500
v -2.4000 0.4500 -1.9500
v -2.3500 0.5000 -1.9500
v -2.3500 0.5000 1.9500
v -2.4000 0.0500 -1.9500
v -2.4000 0.0500 1.9500
v -2.3500 0.0000 1.9500
v -2.3500 0.0000 -1.9500
v 2.4000 0.4500 -1.9500
v 2.3500 0.4500 -2.0000
v 2.3500 0.0500 -2.0000
v 2.4000 0.0500 -1.9500
v 2.4000 0.0500 1.9500
v 2.3500 0.0500 2.0000
v 2.3500 0.4500 2.0000
v 2.4000 0.4500 1.9500
v -2.4000 0.0500 -1.9500
v -2.3500 0.0500 -2.0000
v -2.3500 0.4500 -2.0000
v -2.4000 0.4500 -1.9500
v -2.4000 0.4500 1.9500
v -2.3500 0.4500 2.0000
v -2.3500 0.0500 2.0000
v -2.4000 0.0500 1.9500
v 2.3500 0.5000 1.9500
v 2.4000 0.4500 1.9500
v 2.3500 0.4500 2.0000
v -2.3500 0.4500 2.0000
v -2.4000 0.4500 1.9500
v -2.3500 0.5000 1.9500
v 2.3500 0.0500 2.0000
v 2.4000 0.0500 1.9500
v 2.3500 0.0000 1.9500
v -2.3500 0.0000 1.9500
v -2.4000 0.0500 1.9500
v -2.3500 0.0500 2.0000
v 2.3500 0.4500 -2.0000
v 2.4000 0.4500 -1.9500
v 2.3500 0.5000 -1.9500
v -2.3500 0.5000 -1.9500
v -2.4000 0.4500 -1.9500
v -2.3500 0.4500 -2.0000
v 2.3500 0.0000 -1.9500
v 2.4000 0.0500 -1.9500
v 2.3500 0.0500 -2.0000
v -2.3500 0.0500 -2.0000
v -2.4000 0.0500 -1.9500
v -2.3500 0.0000 -1.9500
v -1.8000 0.9000 1.8100
v -1.8000 2.1000 1.8100
v 1.8000 2.1000 1.8100
v 1.8000 0.9000 1.8100
v 1.8000 0.9000 1.8900
v 1.8000 2.1000 1.8900
v -1.8000 2.1000 1.8900
v -1.8000 0.9000 1.8900
v -1.8000 2.1000 1.8100
v -1.8000 2.1000 1.8900
v 1.8000 2.1000 1.8900
v 1.8000 2.1000 1.8100
v -1.8000 0.9000 1.8100
v 1.8000 0.9000 1.8100
v 1.8000 0.9000 1.8900
v -1.8000 0.9000 1.8900
v 1.8000 0.9000 1.8100
v 1.8000 2.1000 1.8100
v 1.8000 2.1000 1.8900
v 1.8000 0.9000 1.8900
v -1.8000 0.9000 1.8900
v -1.8000 2.1000 1.8900
v -1.8000 2.1000 1.8100
v -1.8000 0.9000 1.8100
v -0.7200 11.6000 -0.6000
v -0.8020 11.6000 -0.4020
v -0.8869 2.6000 -0.4869
v -0.8400 2.6000 -0.6000
v -0.8020 11.6000 -0.4020
v -1.0000 11.6000 -0.3200
v -1.0000 2.6000 -0.4400
v -0.8869 2.6000 -0.4869
v -1.0000 11.6000 -0.3200
v -1.1980 11.6000 -0.4020
v -1.1131 2.6000 -0.4869
v -1.0000 2.6000 -0.4400
v -1.1980 11.6000 -0.4020
v -1.2800 11.6000 -0.6000
v -1.1600 2.6000 -0.6000
v -1.1131 2.6000 -0.4869
v -1.2800 11.6000 -0.6000
v -1.1980 11.6000 -0.7980
v -1.1131 2.6000 -0.7131
v -1.1600 2.6000 -0.6000
v -1.1980 11.6000 -0.7980
v -1.0000 11.6000 -0.8800
v -1.0000 2.6000 -0.7600
v -1.1131 2.6000 -0.7131
v -1.0000 11.6000 -0.8800
v -0.8020 11.6000 -0.7980
v -0.8869 2.6000 -0.7131
v -1.0000 2.6000 -0.7600
v -0.8020 11.6000 -0.7980
v -0.7200 11.6000 -0.6000
v -0.8400 2.6000 -0.6000
v -0.8869 2.6000 -0.7131
v -0.8020 11.6000 -0.7980
v -1.0000 11.6000 -0.8800
v -1.1980 11.6000 -0.7980
v -1.2800 11.6000 -0.6000
v -1.1980 11.6000 -0.4020
v -1.0000 11.6000 -0.3200
v -0.8020 11.6000 -0.4020
v -0.7200 11.6000 -0.6000
v -0.8400 2.6000 -0.6000
v -0.8869 2.6000 -0.4869
v -1.0000 2.6000 -0.4400
v -1.1131 2.6000 -0.4869
v -1.1600 2.6000 -0.6000
v -1.1131 2.6000 -0.7131
v -1.0000 2.6000 -0.7600
v -0.8869 2.6000 -0.7131
v 1.0500 6.4000 0.7000
v 1.0386 6.4347 0.6543
v 1.8701 6.8661 0.5496
v 1.9500 6.6229 0.8695
v 1.0386 6.4347 0.6543
v 1.0061 6.4642 0.6156
v 1.6425 7.0722 0.2784
v 1.8701 6.8661 0.5496
v 1.0061 6.4642 0.6156
v 0.9574 6.4839 0.5897
v 1.3018 7.2100 0.0972
v 1.6425 7.0722 0.2784
v 0.9574 6.4839 0.5897
v 0.9000 6.4908 0.5806
v 0.9000 7.2583 0.0336
v 1.3018 7.2100 0.0972
v 0.9000 6.4908 0.5806
v 0.8426 6.4839 0.5897
v 0.4982 7.2100 0.0972
v 0.9000 7.2583 0.0336
v 0.8426 6.4839 0.5897
v 0.7939 6.4642 0.6156
v 0.1575 7.0722 0.2784
v 0.4982 7.2100 0.0972
v 0.7939 6.4642 0.6156
v 0.7614 6.4347 0.6543
v -0.0701 6.8661 0.5496
v 0.1575 7.0722 0.2784
v 0.7614 6.4347 0.6543
v 0.7500 6.4000 0.7000
v -0.1500 6.6229 0.8695
v -0.0701 6.8661 0.5496
v 0.7500 6.4000 0.7000
v 0.7614 6.3653 0.7457
v -0.0701 6.3797 1.1893
v -0.1500 6.6229 0.8695
v 0.7614 6.3653 0.7457
v 0.7939 6.3358 0.7844
v 0.1575 6.1736 1.4605
v -0.0701 6.3797 1.1893
v 0.7939 6.3358 0.7844
v 0.8426 6.3161 0.8103
v 0.4982 6.0358 1.6417
v 0.1575 6.1736 1.4605
v 0.8426 6.3161 0.8103
v 0.9000 6.3092 0.8194
v 0.9000 5.9875 1.7053
v 0.4982 6.0358 1.6417
v 0.9000 6.3092 0.8194
v 0.9574 6.3161 0.8103
v 1.3018 6.0358 1.6417
v 0.9000 5.9875 1.7053
v 0.9574 6.3161 0.8103
v 1.0061 6.3358 0.7844
v 1.6425 6.1736 1.4605
v 1.3018 6.0358 1.6417
v 1.0061 6.3358 0.7844
v 1.0386 6.3653 0.7457
v 1.8701 6.3797 1.1893
v 1.6425 6.1736 1.4605
v 1.0386 6.3653 0.7457
v 1.0500 6.4000 0.7000
v 1.9500 6.6229 0.8695
v 1.8701 6.3797 1.1893
v 1.9500 6.6229 0.8695
v 1.8701 6.8661 0.5496
v 2.6554 7.5167 0.6356
v 2.8000 7.0767 1.2144
v 1.8701 6.8661 0.5496
v 1.6425 7.0722 0.2784
v 2.2435 7.8897 0.1449
v 2.6554 7.5167 0.6356
v 1.6425 7.0722 0.2784
v 1.3018 7.2100 0.0972
v 1.6271 8.1390 -0.1830
v 2.2435 7.8897 0.1449
v 1.3018 7.2100 0.0972
v 0.9000 7.2583 0.0336
v 0.9000 8.2265 -0.2982
v 1.6271 8.1390 -0.1830
v 0.9000 7.2583 0.0336
v 0.4982 7.2100 0.0972
v 0.1729 8.1390 -0.1830
v 0.9000 8.2265 -0.2982
v 0.4982 7.2100 0.0972
v 0.1575 7.0722 0.2784
v -0.4435 7.8897 0.1449
v 0.1729 8.1390 -0.1830
v 0.1575 7.0722 0.2784
v -0.0701 6.8661 0.5496
v -0.8554 7.5167 0.6356
v -0.4435 7.8897 0.1449
v -0.0701 6.8661 0.5496
v -0.1500 6.6229 0.8695
v -1.0000 7.0767 1.2144
v -0.8554 7.5167 0.6356
v -0.1500 6.6229 0.8695
v -0.0701 6.3797 1.1893
v -0.8554 6.6366 1.7932
v -1.0000 7.0767 1.2144
v -0.0701 6.3797 1.1893
v 0.1575 6.1736 1.4605
v -0.4435 6.2636 2.2839
v -0.8554 6.6366 1.7932
v 0.1575 6.1736 1.4605
v 0.4982 6.0358 1.6417
v 0.1729 6.0143 2.6118
v -0.4435 6.2636 2.2839
v 0.4982 6.0358 1.6417
v 0.9000 5.9875 1.7053
v 0.9000 5.9268 2.7270
v 0.1729 6.0143 2.6118
v 0.9000 5.9875 1.7053
v 1.3018 6.0358 1.6417
v 1.6271 6.0143 2.6118
v 0.9000 5.9268 2.7270
v 1.3018 6.0358 1.6417
v 1.6425 6.1736 1.4605
v 2.2435 6.2636 2.2839
v 1.6271 6.0143 2.6118
v 1.6425 6.1736 1.4605
v 1.8701 6.3797 1.1893
v 2.6554 6.6366 1.7932
v 2.2435 6.2636 2.2839
v 1.8701 6.3797 1.1893
v 1.9500 6.6229 0.8695
v 2.8000 7.0767 1.2144
v 2.6554 6.6366 1.7932
v 1.0386 6.3653 0.7457
v 1.0061 6.3358 0.7844
v 0.9574 6.3161 0.8103
v 0.9000 6.3092 0.8194
v 0.8426 6.3161 0.8103
v 0.7939 6.3358 0.7844
v 0.7614 6.3653 0.7457
v 0.7500 6.4000 0.7000
v 0.7614 6.4347 0.6543
v 0.7939 6.4642 0.6156
v 0.8426 6.4839 0.5897
v 0.9000 6.4908 0.5806
v 0.9574 6.4839 0.5897
v 1.0061 6.4642 0.6156
v 1.0386 6.4347 0.6543
v 1.0500 6.4000 0.7000
v 0.9500 7.3539 0.5529
v 0.9250 7.3884 0.5791
v 0.9250 6.4806 1.7733
v 0.9500 6.4461 1.7471
v 0.9250 7.3884 0.5791
v 0.8750 7.3884 0.5791
v 0.8750 6.4806 1.7733
v 0.9250 6.4806 1.7733
v 0.8750 7.3884 0.5791
v 0.8500 7.3539 0.5529
v 0.8500 6.4461 1.7471
v 0.8750 6.4806 1.7733
v 0.8500 7.3539 0.5529
v 0.8750 7.3194 0.5267
v 0.8750 6.4116 1.7209
v 0.8500 6.4461 1.7471
v 0.8750 7.3194 0.5267
v 0.9250 7.3194 0.5267
v 0.9250 6.4116 1.7209
v 0.8750 6.4116 1.7209
v 0.9250 7.3194 0.5267
v 0.9500 7.3539 0.5529
v 0.9500 6.4461 1.7471
v 0.9250 6.4116 1.7209
v 0.9250 7.3194 0.5267
v 0.8750 7.3194 0.5267
v 0.8500 7.3539 0.5529
v 0.8750 7.3884 0.5791
v 0.9250 7.3884 0.5791
v 0.9500 7.3539 0.5529
v 0.9500 6.4461 1.7471
v 0.9250 6.4806 1.7733
v 0.8750 6.4806 1.7733
v 0.8500 6.4461 1.7471
v 0.8750 6.4116 1.7209
v 0.9250 6.4116 1.7209
v -0.9100 11.9000 -0.6000
v -0.9550 11.9000 -0.5221
v -0.9700 11.6000 -0.5480
v -0.9400 11.6000 -0.6000
v -0.9550 11.9000 -0.5221
v -1.0450 11.9000 -0.5221
v -1.0300 11.6000 -0.5480
v -0.9700 11.6000 -0.5480
v -1.0450 11.9000 -0.5221
v -1.0900 11.9000 -0.6000
v -1.0600 11.6000 -0.6000
v -1.0300 11.6000 -0.5480
v -1.0900 11.9000 -0.6000
v -1.0450 11.9000 -0.6779
v -1.0300 11.6000 -0.6520
v -1.0600 11.6000 -0.6000
v -1.0450 11.9000 -0.6779
v -0.9550 11.9000 -0.6779
v -0.9700 11.6000 -0.6520
v -1.0300 11.6000 -0.6520
v -0.9550 11.9000 -0.6779
v -0.9100 11.9000 -0.6000
v -0.9400 11.6000 -0.6000
v -0.9700 11.6000 -0.6520
v -0.9550 11.9000 -0.6779
v -1.0450 11.9000 -0.6779
v -1.0900 11.9000 -0.6000
v -1.0450 11.9000 -0.5221
v -0.9550 11.9000 -0.5221
v -0.9100 11.9000 -0.6000
v -0.9400 11.6000 -0.6000
v -0.9700 11.6000 -0.5480
v -1.0300 11.6000 -0.5480
v -1.0600 11.6000 -0.6000
v -1.0300 11.6000 -0.6520
v -0.9700 11.6000 -0.6520
v 0.6600 2.6600 -1.5000
v 0.6600 3.5400 -1.5000
v 1.9400 3.5400 -1.5000
v 1.9400 2.6600 -1.5000
v 1.9400 2.6600 -0.5000
v 1.9400 3.5400 -0.5000
v 0.6600 3.5400 -0.5000
v 0.6600 2.6600 -0.5000
v 0.6600 3.6000 -1.4400
v 0.6600 3.6000 -0.5600
v 1.9400 3.6000 -0.5600
v 1.9400 3.6000 -1.4400
v 0.6600 2.6000 -1.4400
v 1.9400 2.6000 -1.4400
v 1.9400 2.6000 -0.5600
v 0.6600 2.6000 -0.5600
v 2.0000 2.6600 -1.4400
v 2.0000 3.5400 -1.4400
v 2.0000 3.5400 -0.5600
v 2.0000 2.6600 -0.5600
v 0.6000 2.6600 -0.5600
v 0.6000 3.5400 -0.5600
v 0.6000 3.5400 -1.4400
v 0.6000 2.6600 -1.4400
v 0.6600 3.6000 -1.4400
v 1.9400 3.6000 -1.4400
v 1.9400 3.5400 -1.5000
v 0.6600 3.5400 -1.5000
v 1.9400 3.6000 -0.5600
v 0.6600 3.6000 -0.5600
v 0.6600 3.5400 -0.5000
v 1.9400 3.5400 -0.5000
v 1.9400 2.6000 -1.4400
v 0.6600 2.6000 -1.4400
v 0.6600 2.6600 -1.5000
v 1.9400 2.6600 -1.5000
v 0.6600 2.6000 -0.5600
v 1.9400 2.6000 -0.5600
v 1.9400 2.6600 -0.5000
v 0.6600 2.6600 -0.5000
v 2.0000 3.5400 -1.4400
v 2.0000 3.5400 -0.5600
v 1.9400 3.6000 -0.5600
v 1.9400 3.6000 -1.4400
v 2.0000 2.6600 -0.5600
v 2.0000 2.6600 -1.4400
v 1.9400 2.6000 -1.4400
v 1.9400 2.6000 -0.5600
v 0.6000 3.5400 -0.5600
v 0.6000 3.5400 -1.4400
v 0.6600 3.6000 -1.4400
v 0.6600 3.6000 -0.5600
v 0.6000 2.6600 -1.4400
v 0.6000 2.6600 -0.5600
v 0.6600 2.6000 -0.5600
v 0.6600 2.6000 -1.4400
v 2.0000 3.5400 -1.4400
v 1.9400 3.5400 -1.5000
v 1.9400 2.6600 -1.5000
v 2.0000 2.6600 -1.4400
v 2.0000 2.6600 -0.5600
v 1.9400 2.6600 -0.5000
v 1.9400 3.5400 -0.5000
v 2.0000 3.5400 -0.5600
v 0.6000 2.6600 -1.4400
v 0.6600 2.6600 -1.5000
v 0.6600 3.5400 -1.5000
v 0.6000 3.5400 -1.4400
v 0.6000 3.5400 -0.5600
v 0.6600 3.5400 -0.5000
v 0.6600 2.6600 -0.5000
v 0.6000 2.6600 -0.5600
v 1.9400 3.6000 -0.5600
v 2.0000 3.5400 -0.5600
v 1.9400 3.5400 -0.5000
v 0.6600 3.5400 -0.5000
v 0.6000 3.5400 -0.5600
v 0.6600 3.6000 -0.5600
v 1.9400 2.6600 -0.5000
v 2.0000 2.6600 -0.5600
v 1.9400 2.6000 -0.5600
v 0.6600 2.6000 -0.5600
v 0.6000 2.6600 -0.5600
v 0.6600 2.6600 -0.5000
v 1.9400 3.5400 -1.5000
v 2.0000 3.5400 -1.4400
v 1.9400 3.6000 -1.4400
v 0.6600 3.6000 -1.4400
v 0.6000 3.5400 -1.4400
v 0.6600 3.5400 -1.5000
v 1.9400 2.6000 -1.4400
v 2.0000 2.6600 -1.4400
v 1.9400 2.6600 -1.5000
v 0.6600 2.6600 -1.5000
v 0.6000 2.6600 -1.4400
v 0.6600 2.6000 -1.4400
vt 0.0152 0.5229
vt 0.0152 0.9771
vt 0.4848 0.9771
vt 0.4848 0.5229
vt 0.4848 0.5229
vt 0.4848 0.9771
vt 0.0152 0.9771
vt 0.0152 0.5229
vt 0.0152 0.5177
vt 0.0152 0.9823
vt 0.4848 0.9823
vt 0.4848 0.5177
vt 0.0152 0.5177
vt 0.4848 0.5177
vt 0.4848 0.9823
vt 0.0152 0.9823
vt 0.0177 0.5229
vt 0.0177 0.9771
vt 0.4823 0.9771
vt 0.4823 0.5229
vt 0.4823 0.5229
vt 0.4823 0.9771
vt 0.0177 0.9771
vt 0.0177 0.5229
vt 0.0152 0.9960
vt 0.4848 0.9960
vt 0.4848 0.9771
vt 0.0152 0.9771
vt 0.4848 0.9960
vt 0.0152 0.9960
vt 0.0152 0.9771
vt 0.4848 0.9771
vt 0.4848 0.5177
vt 0.0152 0.5177
vt 0.0152 0.5040
vt 0.4848 0.5040
vt 0.0152 0.9823
vt 0.4848 0.9823
vt 0.4848 0.9960
vt 0.0152 0.9960
vt 0.4960 0.5177
vt 0.4960 0.9823
vt 0.4848 0.9823
vt 0.4848 0.5177
vt 0.4960 0.9823
vt 0.4960 0.5177
vt 0.4848 0.5177
vt 0.4848 0.9823
vt 0.0040 0.9823
vt 0.0040 0.5177
vt 0.0152 0.5177
vt 0.0152 0.9823
vt 0.0040 0.5177
vt 0.0040 0.9823
vt 0.0152 0.9823
vt 0.0152 0.5177
vt 0.0177 0.9771
vt 0.0040 0.9771
vt 0.0040 0.5229
vt 0.0177 0.5229
vt 0.4823 0.5229
vt 0.4960 0.5229
vt 0.4960 0.9771
vt 0.4823 0.9771
vt 0.0177 0.5229
vt 0.0040 0.5229
vt 0.0040 0.9771
vt 0.0177 0.9771
vt 0.4823 0.9771
vt 0.4960 0.9771
vt 0.4960 0.5229
vt 0.4823 0.5229
vt 0.4848 0.9823
vt 0.4960 0.9823
vt 0.4848 0.9960
vt 0.0152 0.9960
vt 0.0040 0.9823
vt 0.0152 0.9823
vt 0.4848 0.9960
vt 0.4960 0.9823
vt 0.4848 0.9823
vt 0.0152 0.9823
vt 0.0040 0.9823
vt 0.0152 0.9960
vt 0.4848 0.5040
vt 0.4960 0.5177
vt 0.4848 0.5177
vt 0.0152 0.5177
vt 0.0040 0.5177
vt 0.0152 0.5040
vt 0.4848 0.5177
vt 0.4960 0.5177
vt 0.4848 0.5040
vt 0.0152 0.5040
vt 0.0040 0.5177
vt 0.0152 0.5177
vt 0.5065 0.2782
vt 0.5065 0.4718
vt 0.7435 0.4718
vt 0.7435 0.2782
vt 0.7435 0.2782
vt 0.7435 0.4718
vt 0.5065 0.4718
vt 0.5065 0.2782
vt 0.5065 0.2570
vt 0.5065 0.4930
vt 0.7435 0.4930
vt 0.7435 0.2570
vt 0.5065 0.2570
vt 0.7435 0.2570
vt 0.7435 0.4930
vt 0.5065 0.4930
vt 0.5070 0.2782
vt 0.5070 0.4718
vt 0.7430 0.4718
vt 0.7430 0.2782
vt 0.7430 0.2782
vt 0.7430 0.4718
vt 0.5070 0.4718
vt 0.5070 0.2782
vt 0.5065 0.2570
vt 0.7435 0.2570
vt 0.7435 0.2540
vt 0.5065 0.2540
vt 0.7435 0.4930
vt 0.5065 0.4930
vt 0.5065 0.4960
vt 0.7435 0.4960
vt 0.7435 0.2570
vt 0.5065 0.2570
vt 0.5065 0.2540
vt 0.7435 0.2540
vt 0.5065 0.4930
vt 0.7435 0.4930
vt 0.7435 0.4960
vt 0.5065 0.4960
vt 0.5070 0.4718
vt 0.7430 0.4718
vt 0.7430 0.4960
vt 0.5070 0.4960
vt 0.7430 0.2782
vt 0.5070 0.2782
vt 0.5070 0.2540
vt 0.7430 0.2540
vt 0.7430 0.4718
vt 0.5070 0.4718
vt 0.5070 0.4960
vt 0.7430 0.4960
vt 0.5070 0.2782
vt 0.7430 0.2782
vt 0.7430 0.2540
vt 0.5070 0.2540
vt 0.5070 0.4718
vt 0.5040 0.4718
vt 0.5040 0.2782
vt 0.5070 0.2782
vt 0.7430 0.2782
vt 0.7460 0.2782
vt 0.7460 0.4718
vt 0.7430 0.4718
vt 0.5070 0.2782
vt 0.5040 0.2782
vt 0.5040 0.4718
vt 0.5070 0.4718
vt 0.7430 0.4718
vt 0.7460 0.4718
vt 0.7460 0.2782
vt 0.7430 0.2782
vt 0.7430 0.4960
vt 0.7430 0.4718
vt 0.7460 0.4718
vt 0.7460 0.4718
vt 0.7430 0.4718
vt 0.7430 0.4960
vt 0.7460 0.2782
vt 0.7430 0.2782
vt 0.7430 0.2540
vt 0.7430 0.2540
vt 0.7430 0.2782
vt 0.7460 0.2782
vt 0.5040 0.4718
vt 0.5070 0.4718
vt 0.5070 0.4960
vt 0.5070 0.4960
vt 0.5070 0.4718
vt 0.5040 0.4718
vt 0.5070 0.2540
vt 0.5070 0.2782
vt 0.5040 0.2782
vt 0.5040 0.2782
vt 0.5070 0.2782
vt 0.5070 0.2540
vt 0.5040 0.0040
vt 0.5040 0.2460
vt 0.9960 0.2460
vt 0.9960 0.0040
vt 0.9960 0.0040
vt 0.9960 0.2460
vt 0.5040 0.2460
vt 0.5040 0.0040
vt 0.5040 0.2460
vt 0.5040 0.2460
vt 0.9960 0.2460
vt 0.9960 0.2460
vt 0.5040 0.0040
vt 0.9960 0.0040
vt 0.9960 0.0040
vt 0.5040 0.0040
vt 0.9960 0.0040
vt 0.9960 0.2460
vt 0.9960 0.2460
vt 0.9960 0.0040
vt 0.5040 0.0040
vt 0.5040 0.2460
vt 0.5040 0.2460
vt 0.5040 0.0040
vt 0.8750 0.4960
vt 0.9606 0.4960
vt 0.9239 0.2540
vt 0.8750 0.2540
vt 0.9606 0.4960
vt 0.8750 0.4960
vt 0.8750 0.2540
vt 0.9239 0.2540
vt 0.8750 0.4960
vt 0.7894 0.4960
vt 0.8261 0.2540
vt 0.8750 0.2540
vt 0.9606 0.4960
vt 0.8750 0.4960
vt 0.8750 0.2540
vt 0.9239 0.2540
vt 0.8750 0.4960
vt 0.7894 0.4960
vt 0.8261 0.2540
vt 0.8750 0.2540
vt 0.7894 0.4960
vt 0.8750 0.4960
vt 0.8750 0.2540
vt 0.8261 0.2540
vt 0.8750 0.4960
vt 0.9606 0.4960
vt 0.9239 0.2540
vt 0.8750 0.2540
vt 0.7894 0.4960
vt 0.8750 0.4960
vt 0.8750 0.2540
vt 0.8261 0.2540
vt 0.9606 0.2894
vt 0.8750 0.2540
vt 0.7894 0.2894
vt 0.7540 0.3750
vt 0.7894 0.4606
vt 0.8750 0.4960
vt 0.9606 0.4606
vt 0.9960 0.3750
vt 0.9441 0.3750
vt 0.9239 0.4239
vt 0.8750 0.4441
vt 0.8261 0.4239
vt 0.8059 0.3750
vt 0.8261 0.3261
vt 0.8750 0.3059
vt 0.9239 0.3261
vt 0.7694 0.6663
vt 0.7679 0.6589
vt 0.8756 0.6419
vt 0.8859 0.6939
vt 0.7679 0.6127
vt 0.7637 0.6190
vt 0.8461 0.7491
vt 0.8756 0.7049
vt 0.7637 0.6190
vt 0.7574 0.6232
vt 0.8020 0.7785
vt 0.8461 0.7491
vt 0.7574 0.6232
vt 0.7500 0.6247
vt 0.7500 0.7889
vt 0.8020 0.7785
vt 0.7500 0.6247
vt 0.7426 0.6232
vt 0.6980 0.7785
vt 0.7500 0.7889
vt 0.7426 0.6232
vt 0.7363 0.6190
vt 0.6539 0.7491
vt 0.6980 0.7785
vt 0.7363 0.6190
vt 0.7321 0.6127
vt 0.6244 0.7049
vt 0.6539 0.7491
vt 0.7321 0.6589
vt 0.7306 0.6663
vt 0.6141 0.6939
vt 0.6244 0.6419
vt 0.7306 0.6663
vt 0.7321 0.6738
vt 0.6244 0.7459
vt 0.6141 0.6939
vt 0.7321 0.6738
vt 0.7363 0.6801
vt 0.6539 0.7900
vt 0.6244 0.7459
vt 0.7363 0.6801
vt 0.7426 0.6843
vt 0.6980 0.8195
vt 0.6539 0.7900
vt 0.7426 0.6843
vt 0.7500 0.6858
vt 0.7500 0.8298
vt 0.6980 0.8195
vt 0.7500 0.6858
vt 0.7574 0.6843
vt 0.8020 0.8195
vt 0.7500 0.8298
vt 0.7574 0.6843
vt 0.7637 0.6801
vt 0.8461 0.7900
vt 0.8020 0.8195
vt 0.7637 0.6801
vt 0.7679 0.6738
vt 0.8756 0.7459
vt 0.8461 0.7900
vt 0.7679 0.6738
vt 0.7694 0.6663
vt 0.8859 0.6939
vt 0.8756 0.7459
vt 0.8859 0.6939
vt 0.8756 0.6419
vt 0.9773 0.6559
vt 0.9960 0.7500
vt 0.8756 0.7049
vt 0.8461 0.7491
vt 0.9239 0.9239
vt 0.9773 0.8441
vt 0.8461 0.7491
vt 0.8020 0.7785
vt 0.8441 0.9773
vt 0.9239 0.9239
vt 0.8020 0.7785
vt 0.7500 0.7889
vt 0.7500 0.9960
vt 0.8441 0.9773
vt 0.7500 0.7889
vt 0.6980 0.7785
vt 0.6559 0.9773
vt 0.7500 0.9960
vt 0.6980 0.7785
vt 0.6539 0.7491
vt 0.5761 0.9239
vt 0.6559 0.9773
vt 0.6539 0.7491
vt 0.6244 0.7049
vt 0.5227 0.8441
vt 0.5761 0.9239
vt 0.6244 0.6419
vt 0.6141 0.6939
vt 0.5040 0.7500
vt 0.5227 0.6559
vt 0.6141 0.6939
vt 0.6244 0.7459
vt 0.5227 0.8441
vt 0.5040 0.7500
vt 0.6244 0.7459
vt 0.6539 0.7900
vt 0.5761 0.9239
vt 0.5227 0.8441
vt 0.6539 0.7900
vt 0.6980 0.8195
vt 0.6559 0.9773
vt 0.5761 0.9239
vt 0.6980 0.8195
vt 0.7500 0.8298
vt 0.7500 0.9960
vt 0.6559 0.9773
vt 0.7500 0.8298
vt 0.8020 0.8195
vt 0.8441 0.9773
vt 0.7500 0.9960
vt 0.8020 0.8195
vt 0.8461 0.7900
vt 0.9239 0.9239
vt 0.8441 0.9773
vt 0.8461 0.7900
vt 0.8756 0.7459
vt 0.9773 0.8441
vt 0.9239 0.9239
vt 0.8756 0.7459
vt 0.8859 0.6939
vt 0.9960 0.7500
vt 0.9773 0.8441
vt 0.7679 0.6738
vt 0.7637 0.6801
vt 0.7574 0.6843
vt 0.7500 0.6858
vt 0.7426 0.6843
vt 0.7363 0.6801
vt 0.7321 0.6738
vt 0.7306 0.6663
vt 0.7321 0.6589
vt 0.7363 0.6526
vt 0.7426 0.6484
vt 0.7500 0.6469
vt 0.7574 0.6484
vt 0.7637 0.6526
vt 0.7679 0.6589
vt 0.7694 0.6663
vt 0.7591 0.4875
vt 0.7642 0.4960
vt 0.9960 0.2711
vt 0.9909 0.2625
vt 0.9355 0.2642
vt 0.8145 0.2642
vt 0.8145 0.4960
vt 0.9355 0.4960
vt 0.7642 0.4960
vt 0.7591 0.4875
vt 0.9909 0.2625
vt 0.9960 0.2711
vt 0.7591 0.4875
vt 0.7540 0.4789
vt 0.9858 0.2540
vt 0.9909 0.2625
vt 0.8145 0.2540
vt 0.9355 0.2540
vt 0.9355 0.4858
vt 0.8145 0.4858
vt 0.7540 0.4789
vt 0.7591 0.4875
vt 0.9909 0.2625
vt 0.9858 0.2540
vt 0.9355 0.4789
vt 0.8145 0.4789
vt 0.7540 0.4875
vt 0.8145 0.4960
vt 0.9355 0.4960
vt 0.9960 0.4875
vt 0.9960 0.2625
vt 0.9355 0.2711
vt 0.8145 0.2711
vt 0.7540 0.2625
vt 0.8145 0.2540
vt 0.9355 0.2540
vt 0.3750 0.1210
vt 0.4960 0.1210
vt 0.4557 0.0040
vt 0.3750 0.0040
vt 0.4355 0.1210
vt 0.3145 0.1210
vt 0.3347 0.0040
vt 0.4153 0.0040
vt 0.4960 0.1210
vt 0.3750 0.1210
vt 0.3750 0.0040
vt 0.4557 0.0040
vt 0.3750 0.1210
vt 0.2540 0.1210
vt 0.2943 0.0040
vt 0.3750 0.0040
vt 0.3145 0.1210
vt 0.4355 0.1210
vt 0.4153 0.0040
vt 0.3347 0.0040
vt 0.2540 0.1210
vt 0.3750 0.1210
vt 0.3750 0.0040
vt 0.2943 0.0040
vt 0.4355 0.0040
vt 0.3145 0.0040
vt 0.2540 0.0625
vt 0.3145 0.1210
vt 0.4355 0.1210
vt 0.4960 0.0625
vt 0.4557 0.0625
vt 0.4153 0.1015
vt 0.3347 0.1015
vt 0.2943 0.0625
vt 0.3347 0.0235
vt 0.4153 0.0235
vt 0.7644 0.2685
vt 0.7644 0.4815
vt 0.9856 0.4815
vt 0.9856 0.2685
vt 0.9856 0.2685
vt 0.9856 0.4815
vt 0.7644 0.4815
vt 0.7644 0.2685
vt 0.7644 0.2685
vt 0.7644 0.4815
vt 0.9856 0.4815
vt 0.9856 0.2685
vt 0.7644 0.2685
vt 0.9856 0.2685
vt 0.9856 0.4815
vt 0.7644 0.4815
vt 0.7685 0.2685
vt 0.7685 0.4815
vt 0.9815 0.4815
vt 0.9815 0.2685
vt 0.9815 0.2685
vt 0.9815 0.4815
vt 0.7685 0.4815
vt 0.7685 0.2685
vt 0.7644 0.4960
vt 0.9856 0.4960
vt 0.9856 0.4815
vt 0.7644 0.4815
vt 0.9856 0.4960
vt 0.7644 0.4960
vt 0.7644 0.4815
vt 0.9856 0.4815
vt 0.9856 0.2540
vt 0.7644 0.2540
vt 0.7644 0.2685
vt 0.9856 0.2685
vt 0.7644 0.2540
vt 0.9856 0.2540
vt 0.9856 0.2685
vt 0.7644 0.2685
vt 0.7685 0.4815
vt 0.9815 0.4815
vt 0.9815 0.4960
vt 0.7685 0.4960
vt 0.9815 0.2685
vt 0.7685 0.2685
vt 0.7685 0.2540
vt 0.9815 0.2540
vt 0.7540 0.4815
vt 0.7540 0.2685
vt 0.7644 0.2685
vt 0.7644 0.4815
vt 0.7540 0.2685
vt 0.7540 0.4815
vt 0.7644 0.4815
vt 0.7644 0.2685
vt 0.9960 0.4815
vt 0.9856 0.4815
vt 0.9856 0.2685
vt 0.9960 0.2685
vt 0.9960 0.2685
vt 0.9856 0.2685
vt 0.9856 0.4815
vt 0.9960 0.4815
vt 0.7540 0.2685
vt 0.7644 0.2685
vt 0.7644 0.4815
vt 0.7540 0.4815
vt 0.7540 0.4815
vt 0.7644 0.4815
vt 0.7644 0.2685
vt 0.7540 0.2685
vt 0.9815 0.4960
vt 0.9815 0.4815
vt 0.9960 0.4815
vt 0.9960 0.4815
vt 0.9815 0.4815
vt 0.9815 0.4960
vt 0.9856 0.2685
vt 0.9960 0.2685
vt 0.9856 0.2540
vt 0.7644 0.2540
vt 0.7540 0.2685
vt 0.7644 0.2685
vt 0.7540 0.4815
vt 0.7685 0.4815
vt 0.7685 0.4960
vt 0.7644 0.2685
vt 0.7540 0.2685
vt 0.7644 0.2540
vt 0.9856 0.2540
vt 0.9960 0.2685
vt 0.9856 0.2685
vt 0.7644 0.2685
vt 0.7540 0.2685
vt 0.7644 0.2540
vn 0.0000 0.0000 -1.0000
vn 0.0000 0.0000 -1.0000
vn 0.0000 0.0000 -1.0000
vn 0.0000 0.0000 -1.0000
vn 0.0000 0.0000 1.0000
vn 0.0000 0.0000 1.0000
vn 0.0000 0.0000 1.0000
vn 0.0000 0.0000 1.0000
vn 0.0000 1.0000 0.0000
vn 0.0000 1.0000 0.0000
vn 0.0000 1.0000 0.0000
vn 0.0000 1.0000 0.0000
vn 0.0000 -1.0000 0.0000
vn 0.0000 -1.0000 0.0000
vn 0.0000 -1.0000 0.0000
vn 0.0000 -1.0000 0.0000
vn 1.0000 0.0000 0.0000
vn 1.0000 0.0000 0.0000
vn 1.0000 0.0000 0.0000
vn 1.0000 0.0000 0.0000
vn -1.0000 0.0000 0.0000
vn -1.0000 0.0000 0.0000
vn -1.0000 0.0000 0.0000
vn -1.0000 0.0000 0.0000
vn 0.0000 0.7071 -0.7071
vn 0.0000 0.7071 -0.7071
vn 0.0000 0.7071 -0.7071
vn 0.0000 0.7071 -0.7071
vn 0.0000 0.7071 0.7071
vn 0.0000 0.7071 0.7071
vn 0.0000 0.7071 0.7071
vn 0.0000 0.7071 0.7071
vn 0.0000 -0.7071 -0.7071
vn 0.0000 -0.7071 -0.7071
vn 0.0000 -0.7071 -0.7071
vn 0.0000 -0.7071 -0.7071
vn 0.0000 -0.7071 0.7071
vn 0.0000 -0.7071 0.7071
vn 0.0000 -0.7071 0.7071
vn 0.0000 -0.7071 0.7071
vn -0.7071 -0.7071 0.0000
vn -0.7071 -0.7071 0.0000
vn -0.7071 -0.7071 0.0000
vn -0.7071 -0.7071 0.0000
vn -0.7071 0.7071 0.0000
vn -0.7071 0.7071 0.0000
vn -0.7071 0.7071 0.0000
vn -0.7071 0.7071 0.0000
vn 0.7071 -0.7071 0.0000
vn 0.7071 -0.7071 0.0000
vn 0.7071 -0.7071 0.0000
vn 0.7071 -0.7071 0.0000
vn 0.7071 0.7071 0.0000
vn 0.7071 0.7071 0.0000
vn 0.7071 0.7071 0.0000
vn 0.7071 0.7071 0.0000
vn -0.7071 0.0000 0.7071
vn -0.7071 0.0000 0.7071
vn -0.7071 0.0000 0.7071
vn -0.7071 0.0000 0.7071
vn -0.7071 0.0000 -0.7071
vn -0.7071 0.0000 -0.7071
vn -0.7071 0.0000 -0.7071
vn -0.7071 0.0000 -0.7071
vn 0.7071 0.0000 0.7071
vn 0.7071 0.0000 0.7071
vn 0.7071 0.0000 0.7071
vn 0.7071 0.0000 0.7071
vn 0.7071 0.0000 -0.7071
vn 0.7071 0.0000 -0.7071
vn 0.7071 0.0000 -0.7071
vn 0.7071 0.0000 -0.7071
vn -0.5774 -0.5774 -0.5774
vn -0.5774 -0.5774 -0.5774
vn -0.5774 -0.5774 -0.5774
vn 0.5774 -0.5774 -0.5774
vn 0.5774 -0.5774 -0.5774
vn 0.5774 -0.5774 -0.5774
vn -0.5774 0.5774 -0.5774
vn -0.5774 0.5774 -0.5774
vn -0.5774 0.5774 -0.5774
vn 0.5774 0.5774 -0.5774
vn 0.5774 0.5774 -0.5774
vn 0.5774 0.5774 -0.5774
vn -0.5774 -0.5774 0.5774
vn -0.5774 -0.5774 0.5774
vn -0.5774 -0.5774 0.5774
vn 0.5774 -0.5774 0.5774
vn 0.5774 -0.5774 0.5774
vn 0.5774 -0.5774 0.5774
vn -0.5774 0.5774 0.5774
vn -0.5774 0.5774 0.5774
vn -0.5774 0.5774 0.5774
vn 0.5774 0.5774 0.5774
vn 0.5774 0.5774 0.5774
vn 0.5774 0.5774 0.5774
vn 0.0000 0.0000 -1.0000
vn 0.0000 0.0000 -1.0000
vn 0.0000 0.0000 -1.0000
vn 0.0000 0.0000 -1.0000
vn 0.0000 0.0000 1.0000
vn 0.0000 0.0000 1.0000
vn 0.0000 0.0000 1.0000
vn 0.0000 0.0000 1.0000
vn 0.0000 1.0000 0.0000
vn 0.0000 1.0000 0.0000
vn 0.0000 1.0000 0.0000
vn 0.0000 1.0000 0.0000
vn 0.0000 -1.0000 0.0000
vn 0.0000 -1.0000 0.0000
vn 0.0000 -1.0000 0.0000
vn 0.0000 -1.0000 0.0000
vn 1.0000 0.0000 0.0000
vn 1.0000 0.0000 0.0000
vn 1.0000 0.0000 0.0000
vn 1.0000 0.0000 0.0000
vn -1.0000 0.0000 0.0000
vn -1.0000 0.0000 0.0000
vn -1.0000 0.0000 0.0000
vn -1.0000 0.0000 0.0000
vn 0.0000 0.7071 -0.7071
vn 0.0000 0.7071 -0.7071
vn 0.0000 0.7071 -0.7071
vn 0.0000 0.7071 -0.7071
vn 0.0000 0.7071 0.7071
vn 0.0000 0.7071 0.7071
vn 0.0000 0.7071 0.7071
vn 0.0000 0.7071 0.7071
vn 0.0000 -0.7071 -0.7071
vn 0.0000 -0.7071 -0.7071
vn 0.0000 -0.7071 -0.7071
vn 0.0000 -0.7071 -0.7071
vn 0.0000 -0.7071 0.7071
vn 0.0000 -0.7071 0.7071
vn 0.0000 -0.7071 0.7071
vn 0.0000 -0.7071 0.7071
vn -0.7071 -0.7071 0.0000
vn -0.7071 -0.7071 0.0000
vn -0.7071 -0.7071 0.0000
vn -0.7071 -0.7071 0.0000
vn -0.7071 0.7071 0.0000
vn -0.7071 0.7071 0.0000
vn -0.7071 0.7071 0.0000
vn -0.7071 0.7071 0.0000
vn 0.7071 -0.7071 0.0000
vn 0.7071 -0.7071 0.0000
vn 0.7071 -0.7071 0.0000
vn 0.7071 -0.7071 0.0000
vn 0.7071 0.7071 0.0000
vn 0.7071 0.7071 0.0000
vn 0.7071 0.7071 0.0000
vn 0.7071 0.7071 0.0000
vn -0.7071 0.0000 0.7071
vn -0.7071 0.0000 0.7071
vn -0.7071 0.0000 0.7071
vn -0.7071 0.0000 0.7071
vn -0.7071 0.0000 -0.7071
vn -0.7071 0.0000 -0.7071
vn -0.7071 0.0000 -0.7071
vn -0.7071 0.0000 -0.7071
vn 0.7071 0.0000 0.7071
vn 0.7071 0.0000 0.7071
vn 0.7071 0.0000 0.7071
vn 0.7071 0.0000 0.7071
vn 0.7071 0.0000 -0.7071
vn 0.7071 0.0000 -0.7071
vn 0.7071 0.0000 -0.7071
vn 0.7071 0.0000 -0.7071
vn -0.5774 -0.5774 -0.5774
vn -0.5774 -0.5774 -0.5774
vn -0.5774 -0.5774 -0.5774
vn 0.5774 -0.5774 -0.5774
vn 0.5774 -0.5774 -0.5774
vn 0.5774 -0.5774 -0.5774
vn -0.5774 0.5774 -0.5774
vn -0.5774 0.5774 -0.5774
vn -0.5774 0.5774 -0.5774
vn 0.5774 0.5774 -0.5774
vn 0.5774 0.5774 -0.5774
vn 0.5774 0.5774 -0.5774
vn -0.5774 -0.5774 0.5774
vn -0.5774 -0.5774 0.5774
vn -0.5774 -0.5774 0.5774
vn 0.5774 -0.5774 0.5774
vn 0.5774 -0.5774 0.5774
vn 0.5774 -0.5774 0.5774
vn -0.5774 0.5774 0.5774
vn -0.5774 0.5774 0.5774
vn -0.5774 0.5774 0.5774
vn 0.5774 0.5774 0.5774
vn 0.5774 0.5774 0.5774
vn 0.5774 0.5774 0.5774
vn 0.0000 0.0000 -1.0000
vn 0.0000 0.0000 -1.0000
vn 0.0000 0.0000 -1.0000
vn 0.0000 0.0000 -1.0000
vn 0.0000 0.0000 1.0000
vn 0.0000 0.0000 1.0000
vn 0.0000 0.0000 1.0000
vn 0.0000 0.0000 1.0000
vn 0.0000 1.0000 0.0000
vn 0.0000 1.0000 0.0000
vn 0.0000 1.0000 0.0000
vn 0.0000 1.0000 0.0000
vn 0.0000 -1.0000 0.0000
vn 0.0000 -1.0000 0.0000
vn 0.0000 -1.0000 0.0000
vn 0.0000 -1.0000 0.0000
vn 1.0000 0.0000 0.0000
vn 1.0000 0.0000 0.0000
vn 1.0000 0.0000 0.0000
vn 1.0000 0.0000 0.0000
vn -1.0000 0.0000 0.0000
vn -1.0000 0.0000 0.0000
vn -1.0000 0.0000 0.0000
vn -1.0000 0.0000 0.0000
vn 0.9238 -0.0123 0.3827
vn 0.9238 -0.0123 0.3827
vn 0.9238 -0.0123 0.3827
vn 0.9238 -0.0123 0.3827
vn 0.3827 -0.0123 0.9238
vn 0.3827 -0.0123 0.9238
vn 0.3827 -0.0123 0.9238
vn 0.3827 -0.0123 0.9238
vn -0.3827 -0.0123 0.9238
vn -0.3827 -0.0123 0.9238
vn -0.3827 -0.0123 0.9238
vn -0.3827 -0.0123 0.9238
vn -0.9238 -0.0123 0.3827
vn -0.9238 -0.0123 0.3827
vn -0.9238 -0.0123 0.3827
vn -0.9238 -0.0123 0.3827
vn -0.9238 -0.0123 -0.3827
vn -0.9238 -0.0123 -0.3827
vn -0.9238 -0.0123 -0.3827
vn -0.9238 -0.0123 -0.3827
vn -0.3827 -0.0123 -0.9238
vn -0.3827 -0.0123 -0.9238
vn -0.3827 -0.0123 -0.9238
vn -0.3827 -0.0123 -0.9238
vn 0.3827 -0.0123 -0.9238
vn 0.3827 -0.0123 -0.9238
vn 0.3827 -0.0123 -0.9238
vn 0.3827 -0.0123 -0.9238
vn 0.9238 -0.0123 -0.3827
vn 0.9238 -0.0123 -0.3827
vn 0.9238 -0.0123 -0.3827
vn 0.9238 -0.0123 -0.3827
vn 0.0000 1.0000 0.0000
vn 0.0000 1.0000 0.0000
vn 0.0000 1.0000 0.0000
vn 0.0000 1.0000 0.0000
vn 0.0000 1.0000 0.0000
vn 0.0000 1.0000 0.0000
vn 0.0000 1.0000 0.0000
vn 0.0000 1.0000 0.0000
vn 0.0000 -1.0000 0.0000
vn 0.0000 -1.0000 0.0000
vn 0.0000 -1.0000 0.0000
vn 0.0000 -1.0000 0.0000
vn 0.0000 -1.0000 0.0000
vn 0.0000 -1.0000 0.0000
vn 0.0000 -1.0000 0.0000
vn 0.0000 -1.0000 0.0000
vn 0.2965 -0.7231 -0.6238
vn 0.2965 -0.7231 -0.6238
vn 0.2965 -0.7231 -0.6238
vn 0.2965 -0.7231 -0.6238
vn 0.2514 -0.6572 -0.7106
vn 0.2514 -0.6572 -0.7106
vn 0.2514 -0.6572 -0.7106
vn 0.2514 -0.6572 -0.7106
vn 0.1680 -0.6067 -0.7770
vn 0.1680 -0.6067 -0.7770
vn 0.1680 -0.6067 -0.7770
vn 0.1680 -0.6067 -0.7770
vn 0.0590 -0.5794 -0.8129
vn 0.0590 -0.5794 -0.8129
vn 0.0590 -0.5794 -0.8129
vn 0.0590 -0.5794 -0.8129
vn -0.0590 -0.5794 -0.8129
vn -0.0590 -0.5794 -0.8129
vn -0.0590 -0.5794 -0.8129
vn -0.0590 -0.5794 -0.8129
vn -0.1680 -0.6067 -0.7770
vn -0.1680 -0.6067 -0.7770
vn -0.1680 -0.6067 -0.7770
vn -0.1680 -0.6067 -0.7770
vn -0.2514 -0.6572 -0.7106
vn -0.2514 -0.6572 -0.7106
vn -0.2514 -0.6572 -0.7106
vn -0.2514 -0.6572 -0.7106
vn -0.2965 -0.7231 -0.6238
vn -0.2965 -0.7231 -0.6238
vn -0.2965 -0.7231 -0.6238
vn -0.2965 -0.7231 -0.6238
vn -0.2965 -0.7945 -0.5299
vn -0.2965 -0.7945 -0.5299
vn -0.2965 -0.7945 -0.5299
vn -0.2965 -0.7945 -0.5299
vn -0.2514 -0.8605 -0.4431
vn -0.2514 -0.8605 -0.4431
vn -0.2514 -0.8605 -0.4431
vn -0.2514 -0.8605 -0.4431
vn -0.1680 -0.9110 -0.3767
vn -0.1680 -0.9110 -0.3767
vn -0.1680 -0.9110 -0.3767
vn -0.1680 -0.9110 -0.3767
vn -0.0590 -0.9383 -0.3408
vn -0.0590 -0.9383 -0.3408
vn -0.0590 -0.9383 -0.3408
vn -0.0590 -0.9383 -0.3408
vn 0.0590 -0.9383 -0.3408
vn 0.0590 -0.9383 -0.3408
vn 0.0590 -0.9383 -0.3408
vn 0.0590 -0.9383 -0.3408
vn 0.1680 -0.9110 -0.3767
vn 0.1680 -0.9110 -0.3767
vn 0.1680 -0.9110 -0.3767
vn 0.1680 -0.9110 -0.3767
vn 0.2514 -0.8605 -0.4431
vn 0.2514 -0.8605 -0.4431
vn 0.2514 -0.8605 -0.4431
vn 0.2514 -0.8605 -0.4431
vn 0.2965 -0.7945 -0.5299
vn 0.2965 -0.7945 -0.5299
vn 0.2965 -0.7945 -0.5299
vn 0.2965 -0.7945 -0.5299
vn 0.5536 -0.5905 -0.5872
vn 0.5536 -0.5905 -0.5872
vn 0.5536 -0.5905 -0.5872
vn 0.5536 -0.5905 -0.5872
vn 0.4693 -0.4674 -0.7492
vn 0.4693 -0.4674 -0.7492
vn 0.4693 -0.4674 -0.7492
vn 0.4693 -0.4674 -0.7492
vn 0.3136 -0.3732 -0.8732
vn 0.3136 -0.3732 -0.8732
vn 0.3136 -0.3732 -0.8732
vn 0.3136 -0.3732 -0.8732
vn 0.1101 -0.3222 -0.9403
vn 0.1101 -0.3222 -0.9403
vn 0.1101 -0.3222 -0.9403
vn 0.1101 -0.3222 -0.9403
vn -0.1101 -0.3222 -0.9403
vn -0.1101 -0.3222 -0.9403
vn -0.1101 -0.3222 -0.9403
vn -0.1101 -0.3222 -0.9403
vn -0.3136 -0.3732 -0.8732
vn -0.3136 -0.3732 -0.8732
vn -0.3136 -0.3732 -0.8732
vn -0.3136 -0.3732 -0.8732
vn -0.4693 -0.4674 -0.7492
vn -0.4693 -0.4674 -0.7492
vn -0.4693 -0.4674 -0.7492
vn -0.4693 -0.4674 -0.7492
vn -0.5536 -0.5905 -0.5872
vn -0.5536 -0.5905 -0.5872
vn -0.5536 -0.5905 -0.5872
vn -0.5536 -0.5905 -0.5872
vn -0.5536 -0.7238 -0.4119
vn -0.5536 -0.7238 -0.4119
vn -0.5536 -0.7238 -0.4119
vn -0.5536 -0.7238 -0.4119
vn -0.4693 -0.8469 -0.2499
vn -0.4693 -0.8469 -0.2499
vn -0.4693 -0.8469 -0.2499
vn -0.4693 -0.8469 -0.2499
vn -0.3136 -0.9412 -0.1260
vn -0.3136 -0.9412 -0.1260
vn -0.3136 -0.9412 -0.1260
vn -0.3136 -0.9412 -0.1260
vn -0.1101 -0.9922 -0.0589
vn -0.1101 -0.9922 -0.0589
vn -0.1101 -0.9922 -0.0589
vn -0.1101 -0.9922 -0.0589
vn 0.1101 -0.9922 -0.0589
vn 0.1101 -0.9922 -0.0589
vn 0.1101 -0.9922 -0.0589
vn 0.1101 -0.9922 -0.0589
vn 0.3136 -0.9412 -0.1260
vn 0.3136 -0.9412 -0.1260
vn 0.3136 -0.9412 -0.1260
vn 0.3136 -0.9412 -0.1260
vn 0.4693 -0.8469 -0.2499
vn 0.4693 -0.8469 -0.2499
vn 0.4693 -0.8469 -0.2499
vn 0.4693 -0.8469 -0.2499
vn 0.5536 -0.7238 -0.4119
vn 0.5536 -0.7238 -0.4119
vn 0.5536 -0.7238 -0.4119
vn 0.5536 -0.7238 -0.4119
vn -0.0000 -0.7961 -0.6052
vn -0.0000 -0.7961 -0.6052
vn -0.0000 -0.7961 -0.6052
vn -0.0000 -0.7961 -0.6052
vn -0.0000 -0.7961 -0.6052
vn -0.0000 -0.7961 -0.6052
vn -0.0000 -0.7961 -0.6052
vn -0.0000 -0.7961 -0.6052
vn -0.0000 -0.7961 -0.6052
vn -0.0000 -0.7961 -0.6052
vn -0.0000 -0.7961 -0.6052
vn -0.0000 -0.7961 -0.6052
vn -0.0000 -0.7961 -0.6052
vn -0.0000 -0.7961 -0.6052
vn -0.0000 -0.7961 -0.6052
vn -0.0000 -0.7961 -0.6052
vn 0.8660 0.3980 0.3026
vn 0.8660 0.3980 0.3026
vn 0.8660 0.3980 0.3026
vn 0.8660 0.3980 0.3026
vn 0.0000 0.7961 0.6052
vn 0.0000 0.7961 0.6052
vn 0.0000 0.7961 0.6052
vn 0.0000 0.7961 0.6052
vn -0.8660 0.3980 0.3026
vn -0.8660 0.3980 0.3026
vn -0.8660 0.3980 0.3026
vn -0.8660 0.3980 0.3026
vn -0.8660 -0.3980 -0.3026
vn -0.8660 -0.3980 -0.3026
vn -0.8660 -0.3980 -0.3026
vn -0.8660 -0.3980 -0.3026
vn 0.0000 -0.7961 -0.6052
vn 0.0000 -0.7961 -0.6052
vn 0.0000 -0.7961 -0.6052
vn 0.0000 -0.7961 -0.6052
vn 0.8660 -0.3980 -0.3026
vn 0.8660 -0.3980 -0.3026
vn 0.8660 -0.3980 -0.3026
vn 0.8660 -0.3980 -0.3026
vn -0.0000 0.6052 -0.7961
vn -0.0000 0.6052 -0.7961
vn -0.0000 0.6052 -0.7961
vn -0.0000 0.6052 -0.7961
vn -0.0000 0.6052 -0.7961
vn -0.0000 0.6052 -0.7961
vn 0.0000 -0.6052 0.7961
vn 0.0000 -0.6052 0.7961
vn 0.0000 -0.6052 0.7961
vn 0.0000 -0.6052 0.7961
vn 0.0000 -0.6052 0.7961
vn 0.0000 -0.6052 0.7961
vn 0.8628 -0.0863 0.4981
vn 0.8628 -0.0863 0.4981
vn 0.8628 -0.0863 0.4981
vn 0.8628 -0.0863 0.4981
vn 0.0000 -0.0863 0.9963
vn 0.0000 -0.0863 0.9963
vn 0.0000 -0.0863 0.9963
vn 0.0000 -0.0863 0.9963
vn -0.8628 -0.0863 0.4981
vn -0.8628 -0.0863 0.4981
vn -0.8628 -0.0863 0.4981
vn -0.8628 -0.0863 0.4981
vn -0.8628 -0.0863 -0.4981
vn -0.8628 -0.0863 -0.4981
vn -0.8628 -0.0863 -0.4981
vn -0.8628 -0.0863 -0.4981
vn 0.0000 -0.0863 -0.9963
vn 0.0000 -0.0863 -0.9963
vn 0.0000 -0.0863 -0.9963
vn 0.0000 -0.0863 -0.9963
vn 0.8628 -0.0863 -0.4981
vn 0.8628 -0.0863 -0.4981
vn 0.8628 -0.0863 -0.4981
vn 0.8628 -0.0863 -0.4981
vn 0.0000 1.0000 0.0000
vn 0.0000 1.0000 0.0000
vn 0.0000 1.0000 0.0000
vn 0.0000 1.0000 0.0000
vn 0.0000 1.0000 0.0000
vn 0.0000 1.0000 0.0000
vn 0.0000 -1.0000 0.0000
vn 0.0000 -1.0000 0.0000
vn 0.0000 -1.0000 0.0000
vn 0.0000 -1.0000 0.0000
vn 0.0000 -1.0000 0.0000
vn 0.0000 -1.0000 0.0000
vn 0.0000 0.0000 -1.0000
vn 0.0000 0.0000 -1.0000
vn 0.0000 0.0000 -1.0000
vn 0.0000 0.0000 -1.0000
vn 0.0000 0.0000 1.0000
vn 0.0000 0.0000 1.0000
vn 0.0000 0.0000 1.0000
vn 0.0000 0.0000 1.0000
vn 0.0000 1.0000 0.0000
vn 0.0000 1.0000 0.0000
vn 0.0000 1.0000 0.0000
vn 0.0000 1.0000 0.0000
vn 0.0000 -1.0000 0.0000
vn 0.0000 -1.0000 0.0000
vn 0.0000 -1.0000 0.0000
vn 0.0000 -1.0000 0.0000
vn 1.0000 0.0000 0.0000
vn 1.0000 0.0000 0.0000
vn 1.0000 0.0000 0.0000
vn 1.0000 0.0000 0.0000
vn -1.0000 0.0000 0.0000
vn -1.0000 0.0000 0.0000
vn -1.0000 0.0000 0.0000
vn -1.0000 0.0000 0.0000
vn 0.0000 0.7071 -0.7071
vn 0.0000 0.7071 -0.7071
vn 0.0000 0.7071 -0.7071
vn 0.0000 0.7071 -0.7071
vn 0.0000 0.7071 0.7071
vn 0.0000 0.7071 0.7071
vn 0.0000 0.7071 0.7071
vn 0.0000 0.7071 0.7071
vn 0.0000 -0.7071 -0.7071
vn 0.0000 -0.7071 -0.7071
vn 0.0000 -0.7071 -0.7071
vn 0.0000 -0.7071 -0.7071
vn 0.0000 -0.7071 0.7071
vn 0.0000 -0.7071 0.7071
vn 0.0000 -0.7071 0.7071
vn 0.0000 -0.7071 0.7071
vn -0.7071 -0.7071 0.0000
vn -0.7071 -0.7071 0.0000
vn -0.7071 -0.7071 0.0000
vn -0.7071 -0.7071 0.0000
vn -0.7071 0.7071 0.0000
vn -0.7071 0.7071 0.0000
vn -0.7071 0.7071 0.0000
vn -0.7071 0.7071 0.0000
vn 0.7071 -0.7071 0.0000
vn 0.7071 -0.7071 0.0000
vn 0.7071 -0.7071 0.0000
vn 0.7071 -0.7071 0.0000
vn 0.7071 0.7071 0.0000
vn 0.7071 0.7071 0.0000
vn 0.7071 0.7071 0.0000
vn 0.7071 0.7071 0.0000
vn -0.7071 0.0000 0.7071
vn -0.7071 0.0000 0.7071
vn -0.7071 0.0000 0.7071
vn -0.7071 0.0000 0.7071
vn -0.7071 0.0000 -0.7071
vn -0.7071 0.0000 -0.7071
vn -0.7071 0.0000 -0.7071
vn -0.7071 0.0000 -0.7071
vn 0.7071 0.0000 0.7071
vn 0.7071 0.0000 0.7071
vn 0.7071 0.0000 0.7071
vn 0.7071 0.0000 0.7071
vn 0.7071 0.0000 -0.7071
vn 0.7071 0.0000 -0.7071
vn 0.7071 0.0000 -0.7071
vn 0.7071 0.0000 -0.7071
vn -0.5774 -0.5774 -0.5774
vn -0.5774 -0.5774 -0.5774
vn -0.5774 -0.5774 -0.5774
vn 0.5774 -0.5774 -0.5774
vn 0.5774 -0.5774 -0.5774
vn 0.5774 -0.5774 -0.5774
vn -0.5774 0.5774 -0.5774
vn -0.5774 0.5774 -0.5774
vn -0.5774 0.5774 -0.5774
vn 0.5774 0.5774 -0.5774
vn 0.5774 0.5774 -0.5774
vn 0.5774 0.5774 -0.5774
vn -0.5774 -0.5774 0.5774
vn -0.5774 -0.5774 0.5774
vn -0.5774 -0.5774 0.5774
vn 0.5774 -0.5774 0.5774
vn 0.5774 -0.5774 0.5774
vn 0.5774 -0.5774 0.5774
vn -0.5774 0.5774 0.5774
vn -0.5774 0.5774 0.5774
vn -0.5774 0.5774 0.5774
vn 0.5774 0.5774 0.5774
vn 0.5774 0.5774 0.5774
vn 0.5774 0.5774 0.5774
usemtl TF_Struct
f 1/1/1 2/2/2 3/3/3
f 1/1/1 3/3/3 4/4/4
f 5/5/5 6/6/6 7/7/7
f 5/5/5 7/7/7 8/8/8
f 9/9/9 10/10/10 11/11/11
f 9/9/9 11/11/11 12/12/12
f 13/13/13 14/14/14 15/15/15
f 13/13/13 15/15/15 16/16/16
f 17/17/17 18/18/18 19/19/19
f 17/17/17 19/19/19 20/20/20
f 21/21/21 22/22/22 23/23/23
f 21/21/21 23/23/23 24/24/24
f 25/25/25 26/26/26 27/27/27
f 25/25/25 27/27/27 28/28/28
f 29/29/29 30/30/30 31/31/31
f 29/29/29 31/31/31 32/32/32
f 33/33/33 34/34/34 35/35/35
f 33/33/33 35/35/35 36/36/36
f 37/37/37 38/38/38 39/39/39
f 37/37/37 39/39/39 40/40/40
f 41/41/41 42/42/42 43/43/43
f 41/41/41 43/43/43 44/44/44
f 45/45/45 46/46/46 47/47/47
f 45/45/45 47/47/47 48/48/48
f 49/49/49 50/50/50 51/51/51
f 49/49/49 51/51/51 52/52/52
f 53/53/53 54/54/54 55/55/55
f 53/53/53 55/55/55 56/56/56
f 57/57/57 58/58/58 59/59/59
f 57/57/57 59/59/59 60/60/60
f 61/61/61 62/62/62 63/63/63
f 61/61/61 63/63/63 64/64/64
f 65/65/65 66/66/66 67/67/67
f 65/65/65 67/67/67 68/68/68
f 69/69/69 70/70/70 71/71/71
f 69/69/69 71/71/71 72/72/72
f 73/73/73 74/74/74 75/75/75
f 76/76/76 77/77/77 78/78/78
f 79/79/79 80/80/80 81/81/81
f 82/82/82 83/83/83 84/84/84
f 85/85/85 86/86/86 87/87/87
f 88/88/88 89/89/89 90/90/90
f 91/91/91 92/92/92 93/93/93
f 94/94/94 95/95/95 96/96/96
f 97/97/97 98/98/98 99/99/99
f 97/97/97 99/99/99 100/100/100
f 101/101/101 102/102/102 103/103/103
f 101/101/101 103/103/103 104/104/104
f 105/105/105 106/106/106 107/107/107
f 105/105/105 107/107/107 108/108/108
f 109/109/109 110/110/110 111/111/111
f 109/109/109 111/111/111 112/112/112
f 113/113/113 114/114/114 115/115/115
f 113/113/113 115/115/115 116/116/116
f 117/117/117 118/118/118 119/119/119
f 117/117/117 119/119/119 120/120/120
f 121/121/121 122/122/122 123/123/123
f 121/121/121 123/123/123 124/124/124
f 125/125/125 126/126/126 127/127/127
f 125/125/125 127/127/127 128/128/128
f 129/129/129 130/130/130 131/131/131
f 129/129/129 131/131/131 132/132/132
f 133/133/133 134/134/134 135/135/135
f 133/133/133 135/135/135 136/136/136
f 137/137/137 138/138/138 139/139/139
f 137/137/137 139/139/139 140/140/140
f 141/141/141 142/142/142 143/143/143
f 141/141/141 143/143/143 144/144/144
f 145/145/145 146/146/146 147/147/147
f 145/145/145 147/147/147 148/148/148
f 149/149/149 150/150/150 151/151/151
f 149/149/149 151/151/151 152/152/152
f 153/153/153 154/154/154 155/155/155
f 153/153/153 155/155/155 156/156/156
f 157/157/157 158/158/158 159/159/159
f 157/157/157 159/159/159 160/160/160
f 161/161/161 162/162/162 163/163/163
f 161/161/161 163/163/163 164/164/164
f 165/165/165 166/166/166 167/167/167
f 165/165/165 167/167/167 168/168/168
f 169/169/169 170/170/170 171/171/171
f 172/172/172 173/173/173 174/174/174
f 175/175/175 176/176/176 177/177/177
f 178/178/178 179/179/179 180/180/180
f 181/181/181 182/182/182 183/183/183
f 184/184/184 185/185/185 186/186/186
f 187/187/187 188/188/188 189/189/189
f 190/190/190 191/191/191 192/192/192
f 193/193/193 194/194/194 195/195/195
f 193/193/193 195/195/195 196/196/196
f 197/197/197 198/198/198 199/199/199
f 197/197/197 199/199/199 200/200/200
f 201/201/201 202/202/202 203/203/203
f 201/201/201 203/203/203 204/204/204
f 205/205/205 206/206/206 207/207/207
f 205/205/205 207/207/207 208/208/208
f 209/209/209 210/210/210 211/211/211
f 209/209/209 211/211/211 212/212/212
f 213/213/213 214/214/214 215/215/215
f 213/213/213 215/215/215 216/216/216
f 217/217/217 218/218/218 219/219/219
f 217/217/217 219/219/219 220/220/220
f 221/221/221 222/222/222 223/223/223
f 221/221/221 223/223/223 224/224/224
f 225/225/225 226/226/226 227/227/227
f 225/225/225 227/227/227 228/228/228
f 229/229/229 230/230/230 231/231/231
f 229/229/229 231/231/231 232/232/232
f 233/233/233 234/234/234 235/235/235
f 233/233/233 235/235/235 236/236/236
f 237/237/237 238/238/238 239/239/239
f 237/237/237 239/239/239 240/240/240
f 241/241/241 242/242/242 243/243/243
f 241/241/241 243/243/243 244/244/244
f 245/245/245 246/246/246 247/247/247
f 245/245/245 247/247/247 248/248/248
f 249/249/249 250/250/250 251/251/251
f 249/249/249 251/251/251 252/252/252
f 249/249/249 252/252/252 253/253/253
f 249/249/249 253/253/253 254/254/254
f 249/249/249 254/254/254 255/255/255
f 249/249/249 255/255/255 256/256/256
f 257/257/257 258/258/258 259/259/259
f 257/257/257 259/259/259 260/260/260
f 257/257/257 260/260/260 261/261/261
f 257/257/257 261/261/261 262/262/262
f 257/257/257 262/262/262 263/263/263
f 257/257/257 263/263/263 264/264/264
f 265/265/265 266/266/266 267/267/267
f 265/265/265 267/267/267 268/268/268
f 269/269/269 270/270/270 271/271/271
f 269/269/269 271/271/271 272/272/272
f 273/273/273 274/274/274 275/275/275
f 273/273/273 275/275/275 276/276/276
f 277/277/277 278/278/278 279/279/279
f 277/277/277 279/279/279 280/280/280
f 281/281/281 282/282/282 283/283/283
f 281/281/281 283/283/283 284/284/284
f 285/285/285 286/286/286 287/287/287
f 285/285/285 287/287/287 288/288/288
f 289/289/289 290/290/290 291/291/291
f 289/289/289 291/291/291 292/292/292
f 293/293/293 294/294/294 295/295/295
f 293/293/293 295/295/295 296/296/296
f 297/297/297 298/298/298 299/299/299
f 297/297/297 299/299/299 300/300/300
f 301/301/301 302/302/302 303/303/303
f 301/301/301 303/303/303 304/304/304
f 305/305/305 306/306/306 307/307/307
f 305/305/305 307/307/307 308/308/308
f 309/309/309 310/310/310 311/311/311
f 309/309/309 311/311/311 312/312/312
f 313/313/313 314/314/314 315/315/315
f 313/313/313 315/315/315 316/316/316
f 317/317/317 318/318/318 319/319/319
f 317/317/317 319/319/319 320/320/320
f 321/321/321 322/322/322 323/323/323
f 321/321/321 323/323/323 324/324/324
f 325/325/325 326/326/326 327/327/327
f 325/325/325 327/327/327 328/328/328
f 329/329/329 330/330/330 331/331/331
f 329/329/329 331/331/331 332/332/332
f 333/333/333 334/334/334 335/335/335
f 333/333/333 335/335/335 336/336/336
f 337/337/337 338/338/338 339/339/339
f 337/337/337 339/339/339 340/340/340
f 341/341/341 342/342/342 343/343/343
f 341/341/341 343/343/343 344/344/344
f 345/345/345 346/346/346 347/347/347
f 345/345/345 347/347/347 348/348/348
f 349/349/349 350/350/350 351/351/351
f 349/349/349 351/351/351 352/352/352
f 353/353/353 354/354/354 355/355/355
f 353/353/353 355/355/355 356/356/356
f 357/357/357 358/358/358 359/359/359
f 357/357/357 359/359/359 360/360/360
f 361/361/361 362/362/362 363/363/363
f 361/361/361 363/363/363 364/364/364
f 365/365/365 366/366/366 367/367/367
f 365/365/365 367/367/367 368/368/368
f 369/369/369 370/370/370 371/371/371
f 369/369/369 371/371/371 372/372/372
f 373/373/373 374/374/374 375/375/375
f 373/373/373 375/375/375 376/376/376
f 377/377/377 378/378/378 379/379/379
f 377/377/377 379/379/379 380/380/380
f 381/381/381 382/382/382 383/383/383
f 381/381/381 383/383/383 384/384/384
f 385/385/385 386/386/386 387/387/387
f 385/385/385 387/387/387 388/388/388
f 389/389/389 390/390/390 391/391/391
f 389/389/389 391/391/391 392/392/392
f 393/393/393 394/394/394 395/395/395
f 393/393/393 395/395/395 396/396/396
f 393/393/393 396/396/396 397/397/397
f 393/393/393 397/397/397 398/398/398
f 393/393/393 398/398/398 399/399/399
f 393/393/393 399/399/399 400/400/400
f 393/393/393 400/400/400 401/401/401
f 393/393/393 401/401/401 402/402/402
f 393/393/393 402/402/402 403/403/403
f 393/393/393 403/403/403 404/404/404
f 393/393/393 404/404/404 405/405/405
f 393/393/393 405/405/405 406/406/406
f 393/393/393 406/406/406 407/407/407
f 393/393/393 407/407/407 408/408/408
f 409/409/409 410/410/410 411/411/411
f 409/409/409 411/411/411 412/412/412
f 413/413/413 414/414/414 415/415/415
f 413/413/413 415/415/415 416/416/416
f 417/417/417 418/418/418 419/419/419
f 417/417/417 419/419/419 420/420/420
f 421/421/421 422/422/422 423/423/423
f 421/421/421 423/423/423 424/424/424
f 425/425/425 426/426/426 427/427/427
f 425/425/425 427/427/427 428/428/428
f 429/429/429 430/430/430 431/431/431
f 429/429/429 431/431/431 432/432/432
f 433/433/433 434/434/434 435/435/435
f 433/433/433 435/435/435 436/436/436
f 433/433/433 436/436/436 437/437/437
f 433/433/433 437/437/437 438/438/438
f 439/439/439 440/440/440 441/441/441
f 439/439/439 441/441/441 442/442/442
f 439/439/439 442/442/442 443/443/443
f 439/439/439 443/443/443 444/444/444
f 445/445/445 446/446/446 447/447/447
f 445/445/445 447/447/447 448/448/448
f 449/449/449 450/450/450 451/451/451
f 449/449/449 451/451/451 452/452/452
f 453/453/453 454/454/454 455/455/455
f 453/453/453 455/455/455 456/456/456
f 457/457/457 458/458/458 459/459/459
f 457/457/457 459/459/459 460/460/460
f 461/461/461 462/462/462 463/463/463
f 461/461/461 463/463/463 464/464/464
f 465/465/465 466/466/466 467/467/467
f 465/465/465 467/467/467 468/468/468
f 469/469/469 470/470/470 471/471/471
f 469/469/469 471/471/471 472/472/472
f 469/469/469 472/472/472 473/473/473
f 469/469/469 473/473/473 474/474/474
f 475/475/475 476/476/476 477/477/477
f 475/475/475 477/477/477 478/478/478
f 475/475/475 478/478/478 479/479/479
f 475/475/475 479/479/479 480/480/480
f 481/481/481 482/482/482 483/483/483
f 481/481/481 483/483/483 484/484/484
f 485/485/485 486/486/486 487/487/487
f 485/485/485 487/487/487 488/488/488
f 489/489/489 490/490/490 491/491/491
f 489/489/489 491/491/491 492/492/492
f 493/493/493 494/494/494 495/495/495
f 493/493/493 495/495/495 496/496/496
f 497/497/497 498/498/498 499/499/499
f 497/497/497 499/499/499 500/500/500
f 501/501/501 502/502/502 503/503/503
f 501/501/501 503/503/503 504/504/504
f 505/505/505 506/506/506 507/507/507
f 505/505/505 507/507/507 508/508/508
f 509/509/509 510/510/510 511/511/511
f 509/509/509 511/511/511 512/512/512
f 513/513/513 514/514/514 515/515/515
f 513/513/513 515/515/515 516/516/516
f 517/517/517 518/518/518 519/519/519
f 517/517/517 519/519/519 520/520/520
f 521/521/521 522/522/522 523/523/523
f 521/521/521 523/523/523 524/524/524
f 525/525/525 526/526/526 527/527/527
f 525/525/525 527/527/527 528/528/528
f 529/529/529 530/530/530 531/531/531
f 529/529/529 531/531/531 532/532/532
f 533/533/533 534/534/534 535/535/535
f 533/533/533 535/535/535 536/536/536
f 537/537/537 538/538/538 539/539/539
f 537/537/537 539/539/539 540/540/540
f 541/541/541 542/542/542 543/543/543
f 541/541/541 543/543/543 544/544/544
f 545/545/545 546/546/546 547/547/547
f 545/545/545 547/547/547 548/548/548
f 549/549/549 550/550/550 551/551/551
f 549/549/549 551/551/551 552/552/552
f 553/553/553 554/554/554 555/555/555
f 556/556/556 557/557/557 558/558/558
f 559/559/559 560/560/560 561/561/561
f 562/562/562 563/563/563 564/564/564
f 565/565/565 566/566/566 567/567/567
f 568/568/568 569/569/569 570/570/570
f 571/571/571 572/572/572 573/573/573
f 574/574/574 575/575/575 576/576/576
