# TERRAFRONT procedural asset — generated by Tools/assetgen (deterministic)
# Y-up, +Z forward (muzzle), units = meters, pivot at grip/origin.
# Ravager turret — TERRAFRONT P1
# Ground plane y=0, +Z forward, meters, Transform scale 1.
mtllib tf_vehicles.mtl
o ravager_turret
v 0.9000 0.0200 0.0000
v 0.8315 0.0200 -0.4305
v 0.7945 0.1800 -0.4114
v 0.8600 0.1800 0.0000
v 0.8315 0.0200 -0.4305
v 0.6364 0.0200 -0.7955
v 0.6081 0.1800 -0.7601
v 0.7945 0.1800 -0.4114
v 0.6364 0.0200 -0.7955
v 0.3444 0.0200 -1.0394
v 0.3291 0.1800 -0.9932
v 0.6081 0.1800 -0.7601
v 0.3444 0.0200 -1.0394
v 0.0000 0.0200 -1.1250
v 0.0000 0.1800 -1.0750
v 0.3291 0.1800 -0.9932
v 0.0000 0.0200 -1.1250
v -0.3444 0.0200 -1.0394
v -0.3291 0.1800 -0.9932
v 0.0000 0.1800 -1.0750
v -0.3444 0.0200 -1.0394
v -0.6364 0.0200 -0.7955
v -0.6081 0.1800 -0.7601
v -0.3291 0.1800 -0.9932
v -0.6364 0.0200 -0.7955
v -0.8315 0.0200 -0.4305
v -0.7945 0.1800 -0.4114
v -0.6081 0.1800 -0.7601
v -0.8315 0.0200 -0.4305
v -0.9000 0.0200 -0.0000
v -0.8600 0.1800 -0.0000
v -0.7945 0.1800 -0.4114
v -0.9000 0.0200 -0.0000
v -0.8315 0.0200 0.4305
v -0.7945 0.1800 0.4114
v -0.8600 0.1800 -0.0000
v -0.8315 0.0200 0.4305
v -0.6364 0.0200 0.7955
v -0.6081 0.1800 0.7601
v -0.7945 0.1800 0.4114
v -0.6364 0.0200 0.7955
v -0.3444 0.0200 1.0394
v -0.3291 0.1800 0.9932
v -0.6081 0.1800 0.7601
v -0.3444 0.0200 1.0394
v -0.0000 0.0200 1.1250
v -0.0000 0.1800 1.0750
v -0.3291 0.1800 0.9932
v -0.0000 0.0200 1.1250
v 0.3444 0.0200 1.0394
v 0.3291 0.1800 0.9932
v -0.0000 0.1800 1.0750
v 0.3444 0.0200 1.0394
v 0.6364 0.0200 0.7955
v 0.6081 0.1800 0.7601
v 0.3291 0.1800 0.9932
v 0.6364 0.0200 0.7955
v 0.8315 0.0200 0.4305
v 0.7945 0.1800 0.4114
v 0.6081 0.1800 0.7601
v 0.8315 0.0200 0.4305
v 0.9000 0.0200 0.0000
v 0.8600 0.1800 0.0000
v 0.7945 0.1800 0.4114
v 0.8600 0.1800 0.0000
v 0.7945 0.1800 -0.4114
v 0.5728 0.3800 -0.2966
v 0.6200 0.3800 0.0000
v 0.7945 0.1800 -0.4114
v 0.6081 0.1800 -0.7601
v 0.4384 0.3800 -0.5480
v 0.5728 0.3800 -0.2966
v 0.6081 0.1800 -0.7601
v 0.3291 0.1800 -0.9932
v 0.2373 0.3800 -0.7160
v 0.4384 0.3800 -0.5480
v 0.3291 0.1800 -0.9932
v 0.0000 0.1800 -1.0750
v 0.0000 0.3800 -0.7750
v 0.2373 0.3800 -0.7160
v 0.0000 0.1800 -1.0750
v -0.3291 0.1800 -0.9932
v -0.2373 0.3800 -0.7160
v 0.0000 0.3800 -0.7750
v -0.3291 0.1800 -0.9932
v -0.6081 0.1800 -0.7601
v -0.4384 0.3800 -0.5480
v -0.2373 0.3800 -0.7160
v -0.6081 0.1800 -0.7601
v -0.7945 0.1800 -0.4114
v -0.5728 0.3800 -0.2966
v -0.4384 0.3800 -0.5480
v -0.7945 0.1800 -0.4114
v -0.8600 0.1800 -0.0000
v -0.6200 0.3800 -0.0000
v -0.5728 0.3800 -0.2966
v -0.8600 0.1800 -0.0000
v -0.7945 0.1800 0.4114
v -0.5728 0.3800 0.2966
v -0.6200 0.3800 -0.0000
v -0.7945 0.1800 0.4114
v -0.6081 0.1800 0.7601
v -0.4384 0.3800 0.5480
v -0.5728 0.3800 0.2966
v -0.6081 0.1800 0.7601
v -0.3291 0.1800 0.9932
v -0.2373 0.3800 0.7160
v -0.4384 0.3800 0.5480
v -0.3291 0.1800 0.9932
v -0.0000 0.1800 1.0750
v -0.0000 0.3800 0.7750
v -0.2373 0.3800 0.7160
v -0.0000 0.1800 1.0750
v 0.3291 0.1800 0.9932
v 0.2373 0.3800 0.7160
v -0.0000 0.3800 0.7750
v 0.3291 0.1800 0.9932
v 0.6081 0.1800 0.7601
v 0.4384 0.3800 0.5480
v 0.2373 0.3800 0.7160
v 0.6081 0.1800 0.7601
v 0.7945 0.1800 0.4114
v 0.5728 0.3800 0.2966
v 0.4384 0.3800 0.5480
v 0.7945 0.1800 0.4114
v 0.8600 0.1800 0.0000
v 0.6200 0.3800 0.0000
v 0.5728 0.3800 0.2966
v 0.6200 0.3800 0.0000
v 0.5728 0.3800 -0.2966
v 0.2772 0.4600 -0.1435
v 0.3000 0.4600 0.0000
v 0.5728 0.3800 -0.2966
v 0.4384 0.3800 -0.5480
v 0.2121 0.4600 -0.2652
v 0.2772 0.4600 -0.1435
v 0.4384 0.3800 -0.5480
v 0.2373 0.3800 -0.7160
v 0.1148 0.4600 -0.3465
v 0.2121 0.4600 -0.2652
v 0.2373 0.3800 -0.7160
v 0.0000 0.3800 -0.7750
v 0.0000 0.4600 -0.3750
v 0.1148 0.4600 -0.3465
v 0.0000 0.3800 -0.7750
v -0.2373 0.3800 -0.7160
v -0.1148 0.4600 -0.3465
v 0.0000 0.4600 -0.3750
v -0.2373 0.3800 -0.7160
v -0.4384 0.3800 -0.5480
v -0.2121 0.4600 -0.2652
v -0.1148 0.4600 -0.3465
v -0.4384 0.3800 -0.5480
v -0.5728 0.3800 -0.2966
v -0.2772 0.4600 -0.1435
v -0.2121 0.4600 -0.2652
v -0.5728 0.3800 -0.2966
v -0.6200 0.3800 -0.0000
v -0.3000 0.4600 -0.0000
v -0.2772 0.4600 -0.1435
v -0.6200 0.3800 -0.0000
v -0.5728 0.3800 0.2966
v -0.2772 0.4600 0.1435
v -0.3000 0.4600 -0.0000
v -0.5728 0.3800 0.2966
v -0.4384 0.3800 0.5480
v -0.2121 0.4600 0.2652
v -0.2772 0.4600 0.1435
v -0.4384 0.3800 0.5480
v -0.2373 0.3800 0.7160
v -0.1148 0.4600 0.3465
v -0.2121 0.4600 0.2652
v -0.2373 0.3800 0.7160
v -0.0000 0.3800 0.7750
v -0.0000 0.4600 0.3750
v -0.1148 0.4600 0.3465
v -0.0000 0.3800 0.7750
v 0.2373 0.3800 0.7160
v 0.1148 0.4600 0.3465
v -0.0000 0.4600 0.3750
v 0.2373 0.3800 0.7160
v 0.4384 0.3800 0.5480
v 0.2121 0.4600 0.2652
v 0.1148 0.4600 0.3465
v 0.4384 0.3800 0.5480
v 0.5728 0.3800 0.2966
v 0.2772 0.4600 0.1435
v 0.2121 0.4600 0.2652
v 0.5728 0.3800 0.2966
v 0.6200 0.3800 0.0000
v 0.3000 0.4600 0.0000
v 0.2772 0.4600 0.1435
v 0.8315 0.0200 0.4305
v 0.6364 0.0200 0.7955
v 0.3444 0.0200 1.0394
v -0.0000 0.0200 1.1250
v -0.3444 0.0200 1.0394
v -0.6364 0.0200 0.7955
v -0.8315 0.0200 0.4305
v -0.9000 0.0200 -0.0000
v -0.8315 0.0200 -0.4305
v -0.6364 0.0200 -0.7955
v -0.3444 0.0200 -1.0394
v 0.0000 0.0200 -1.1250
v 0.3444 0.0200 -1.0394
v 0.6364 0.0200 -0.7955
v 0.8315 0.0200 -0.4305
v 0.9000 0.0200 0.0000
v 0.3000 0.4600 0.0000
v 0.2772 0.4600 -0.1435
v 0.2121 0.4600 -0.2652
v 0.1148 0.4600 -0.3465
v 0.0000 0.4600 -0.3750
v -0.1148 0.4600 -0.3465
v -0.2121 0.4600 -0.2652
v -0.2772 0.4600 -0.1435
v -0.3000 0.4600 -0.0000
v -0.2772 0.4600 0.1435
v -0.2121 0.4600 0.2652
v -0.1148 0.4600 0.3465
v -0.0000 0.4600 0.3750
v 0.1148 0.4600 0.3465
v 0.2121 0.4600 0.2652
v 0.2772 0.4600 0.1435
v -0.5750 0.0100 0.3450
v -0.5750 0.3500 0.3450
v 0.5750 0.3500 0.3450
v 0.5750 0.0100 0.3450
v -0.4000 0.0500 0.8950
v 0.4000 0.0500 0.8950
v 0.4000 0.3100 0.8950
v -0.4000 0.3100 0.8950
v -0.5750 0.3500 0.3450
v -0.4000 0.3100 0.8950
v 0.4000 0.3100 0.8950
v 0.5750 0.3500 0.3450
v -0.5750 0.0100 0.3450
v 0.5750 0.0100 0.3450
v 0.4000 0.0500 0.8950
v -0.4000 0.0500 0.8950
v 0.5750 0.0100 0.3450
v 0.5750 0.3500 0.3450
v 0.4000 0.3100 0.8950
v 0.4000 0.0500 0.8950
v -0.5750 0.0100 0.3450
v -0.4000 0.0500 0.8950
v -0.4000 0.3100 0.8950
v -0.5750 0.3500 0.3450
v -0.4300 0.4700 -0.1800
v -0.4300 0.5700 -0.1800
v -0.2700 0.5700 -0.1800
v -0.2700 0.4700 -0.1800
v -0.2700 0.4700 0.0800
v -0.2700 0.5700 0.0800
v -0.4300 0.5700 0.0800
v -0.4300 0.4700 0.0800
v -0.4300 0.6000 -0.1500
v -0.4300 0.6000 0.0500
v -0.2700 0.6000 0.0500
v -0.2700 0.6000 -0.1500
v -0.4300 0.4400 -0.1500
v -0.2700 0.4400 -0.1500
v -0.2700 0.4400 0.0500
v -0.4300 0.4400 0.0500
v -0.2400 0.4700 -0.1500
v -0.2400 0.5700 -0.1500
v -0.2400 0.5700 0.0500
v -0.2400 0.4700 0.0500
v -0.4600 0.4700 0.0500
v -0.4600 0.5700 0.0500
v -0.4600 0.5700 -0.1500
v -0.4600 0.4700 -0.1500
v -0.4300 0.6000 -0.1500
v -0.2700 0.6000 -0.1500
v -0.2700 0.5700 -0.1800
v -0.4300 0.5700 -0.1800
v -0.2700 0.6000 0.0500
v -0.4300 0.6000 0.0500
v -0.4300 0.5700 0.0800
v -0.2700 0.5700 0.0800
v -0.2700 0.4400 -0.1500
v -0.4300 0.4400 -0.1500
v -0.4300 0.4700 -0.1800
v -0.2700 0.4700 -0.1800
v -0.4300 0.4400 0.0500
v -0.2700 0.4400 0.0500
v -0.2700 0.4700 0.0800
v -0.4300 0.4700 0.0800
v -0.2400 0.5700 -0.1500
v -0.2400 0.5700 0.0500
v -0.2700 0.6000 0.0500
v -0.2700 0.6000 -0.1500
v -0.2400 0.4700 0.0500
v -0.2400 0.4700 -0.1500
v -0.2700 0.4400 -0.1500
v -0.2700 0.4400 0.0500
v -0.4600 0.5700 0.0500
v -0.4600 0.5700 -0.1500
v -0.4300 0.6000 -0.1500
v -0.4300 0.6000 0.0500
v -0.4600 0.4700 -0.1500
v -0.4600 0.4700 0.0500
v -0.4300 0.4400 0.0500
v -0.4300 0.4400 -0.1500
v -0.2400 0.5700 -0.1500
v -0.2700 0.5700 -0.1800
v -0.2700 0.4700 -0.1800
v -0.2400 0.4700 -0.1500
v -0.2400 0.4700 0.0500
v -0.2700 0.4700 0.0800
v -0.2700 0.5700 0.0800
v -0.2400 0.5700 0.0500
v -0.4600 0.4700 -0.1500
v -0.4300 0.4700 -0.1800
v -0.4300 0.5700 -0.1800
v -0.4600 0.5700 -0.1500
v -0.4600 0.5700 0.0500
v -0.4300 0.5700 0.0800
v -0.4300 0.4700 0.0800
v -0.4600 0.4700 0.0500
v -0.2700 0.6000 0.0500
v -0.2400 0.5700 0.0500
v -0.2700 0.5700 0.0800
v -0.4300 0.5700 0.0800
v -0.4600 0.5700 0.0500
v -0.4300 0.6000 0.0500
v -0.2700 0.4700 0.0800
v -0.2400 0.4700 0.0500
v -0.2700 0.4400 0.0500
v -0.4300 0.4400 0.0500
v -0.4600 0.4700 0.0500
v -0.4300 0.4700 0.0800
v -0.2700 0.5700 -0.1800
v -0.2400 0.5700 -0.1500
v -0.2700 0.6000 -0.1500
v -0.4300 0.6000 -0.1500
v -0.4600 0.5700 -0.1500
v -0.4300 0.5700 -0.1800
v -0.2700 0.4400 -0.1500
v -0.2400 0.4700 -0.1500
v -0.2700 0.4700 -0.1800
v -0.4300 0.4700 -0.1800
v -0.4600 0.4700 -0.1500
v -0.4300 0.4400 -0.1500
v -0.4200 0.5200 0.0750
v -0.4200 0.5600 0.0750
v -0.2800 0.5600 0.0750
v -0.2800 0.5200 0.0750
v -0.2800 0.5200 0.1050
v -0.2800 0.5600 0.1050
v -0.4200 0.5600 0.1050
v -0.4200 0.5200 0.1050
v -0.4200 0.5600 0.0750
v -0.4200 0.5600 0.1050
v -0.2800 0.5600 0.1050
v -0.2800 0.5600 0.0750
v -0.4200 0.5200 0.0750
v -0.2800 0.5200 0.0750
v -0.2800 0.5200 0.1050
v -0.4200 0.5200 0.1050
v -0.2800 0.5200 0.0750
v -0.2800 0.5600 0.0750
v -0.2800 0.5600 0.1050
v -0.2800 0.5200 0.1050
v -0.4200 0.5200 0.1050
v -0.4200 0.5600 0.1050
v -0.4200 0.5600 0.0750
v -0.4200 0.5200 0.0750
v -0.6500 0.0600 -1.1000
v -0.6500 0.3400 -1.1000
v 0.6500 0.3400 -1.1000
v 0.6500 0.0600 -1.1000
v 0.6500 0.0600 -0.6000
v 0.6500 0.3400 -0.6000
v -0.6500 0.3400 -0.6000
v -0.6500 0.0600 -0.6000
v -0.6500 0.3400 -1.1000
v -0.6500 0.3400 -0.6000
v 0.6500 0.3400 -0.6000
v 0.6500 0.3400 -1.1000
v -0.6500 0.0600 -1.1000
v 0.6500 0.0600 -1.1000
v 0.6500 0.0600 -0.6000
v -0.6500 0.0600 -0.6000
v 0.6500 0.0600 -1.1000
v 0.6500 0.3400 -1.1000
v 0.6500 0.3400 -0.6000
v 0.6500 0.0600 -0.6000
v -0.6500 0.0600 -0.6000
v -0.6500 0.3400 -0.6000
v -0.6500 0.3400 -1.1000
v -0.6500 0.0600 -1.1000
v -0.5000 0.3700 0.8800
v -0.5000 0.4300 0.8800
v 0.5000 0.4300 0.8800
v 0.5000 0.3700 0.8800
v 0.5000 0.3700 0.9200
v 0.5000 0.4300 0.9200
v -0.5000 0.4300 0.9200
v -0.5000 0.3700 0.9200
v -0.5000 0.4300 0.8800
v -0.5000 0.4300 0.9200
v 0.5000 0.4300 0.9200
v 0.5000 0.4300 0.8800
v -0.5000 0.3700 0.8800
v 0.5000 0.3700 0.8800
v 0.5000 0.3700 0.9200
v -0.5000 0.3700 0.9200
v 0.5000 0.3700 0.8800
v 0.5000 0.4300 0.8800
v 0.5000 0.4300 0.9200
v 0.5000 0.3700 0.9200
v -0.5000 0.3700 0.9200
v -0.5000 0.4300 0.9200
v -0.5000 0.4300 0.8800
v -0.5000 0.3700 0.8800
v 0.6240 0.0700 -0.4500
v 0.6240 0.3700 -0.4500
v 0.6360 0.3700 -0.4500
v 0.6360 0.0700 -0.4500
v 0.6360 0.0700 -0.1500
v 0.6360 0.3700 -0.1500
v 0.6240 0.3700 -0.1500
v 0.6240 0.0700 -0.1500
v 0.6240 0.3700 -0.4500
v 0.6240 0.3700 -0.1500
v 0.6360 0.3700 -0.1500
v 0.6360 0.3700 -0.4500
v 0.6240 0.0700 -0.4500
v 0.6360 0.0700 -0.4500
v 0.6360 0.0700 -0.1500
v 0.6240 0.0700 -0.1500
v 0.6360 0.0700 -0.4500
v 0.6360 0.3700 -0.4500
v 0.6360 0.3700 -0.1500
v 0.6360 0.0700 -0.1500
v 0.6240 0.0700 -0.1500
v 0.6240 0.3700 -0.1500
v 0.6240 0.3700 -0.4500
v 0.6240 0.0700 -0.4500
v -0.6360 0.0700 -0.4500
v -0.6360 0.3700 -0.4500
v -0.6240 0.3700 -0.4500
v -0.6240 0.0700 -0.4500
v -0.6240 0.0700 -0.1500
v -0.6240 0.3700 -0.1500
v -0.6360 0.3700 -0.1500
v -0.6360 0.0700 -0.1500
v -0.6360 0.3700 -0.4500
v -0.6360 0.3700 -0.1500
v -0.6240 0.3700 -0.1500
v -0.6240 0.3700 -0.4500
v -0.6240 0.0700 -0.1500
v -0.6360 0.0700 -0.1500
v -0.6360 0.0700 -0.4500
v -0.6240 0.0700 -0.4500
v -0.6360 0.0700 -0.1500
v -0.6360 0.3700 -0.1500
v -0.6360 0.3700 -0.4500
v -0.6360 0.0700 -0.4500
v -0.6240 0.0700 -0.4500
v -0.6240 0.3700 -0.4500
v -0.6240 0.3700 -0.1500
v -0.6240 0.0700 -0.1500
v 0.5150 1.2500 -0.7000
v 0.5075 1.2500 -0.6870
v 0.5040 0.4500 -0.6931
v 0.5080 0.4500 -0.7000
v 0.5075 1.2500 -0.6870
v 0.4925 1.2500 -0.6870
v 0.4960 0.4500 -0.6931
v 0.5040 0.4500 -0.6931
v 0.4925 1.2500 -0.6870
v 0.4850 1.2500 -0.7000
v 0.4920 0.4500 -0.7000
v 0.4960 0.4500 -0.6931
v 0.4850 1.2500 -0.7000
v 0.4925 1.2500 -0.7130
v 0.4960 0.4500 -0.7069
v 0.4920 0.4500 -0.7000
v 0.4925 1.2500 -0.7130
v 0.5075 1.2500 -0.7130
v 0.5040 0.4500 -0.7069
v 0.4960 0.4500 -0.7069
v 0.5075 1.2500 -0.7130
v 0.5150 1.2500 -0.7000
v 0.5080 0.4500 -0.7000
v 0.5040 0.4500 -0.7069
v 0.5075 1.2500 -0.7130
v 0.4925 1.2500 -0.7130
v 0.4850 1.2500 -0.7000
v 0.4925 1.2500 -0.6870
v 0.5075 1.2500 -0.6870
v 0.5150 1.2500 -0.7000
v 0.5080 0.4500 -0.7000
v 0.5040 0.4500 -0.6931
v 0.4960 0.4500 -0.6931
v 0.4920 0.4500 -0.7000
v 0.4960 0.4500 -0.7069
v 0.5040 0.4500 -0.7069
v 0.5515 0.2969 0.4336
v 0.5374 0.3186 0.4267
v 0.5989 0.4049 0.5722
v 0.6130 0.3831 0.5791
v 0.5374 0.3186 0.4267
v 0.5127 0.3276 0.4318
v 0.5742 0.4139 0.5773
v 0.5989 0.4049 0.5722
v 0.5127 0.3276 0.4318
v 0.4918 0.3186 0.4460
v 0.5533 0.4049 0.5915
v 0.5742 0.4139 0.5773
v 0.4918 0.3186 0.4460
v 0.4870 0.2969 0.4609
v 0.5485 0.3831 0.6064
v 0.5533 0.4049 0.5915
v 0.4870 0.2969 0.4609
v 0.5011 0.2751 0.4678
v 0.5626 0.3614 0.6133
v 0.5485 0.3831 0.6064
v 0.5011 0.2751 0.4678
v 0.5258 0.2661 0.4627
v 0.5873 0.3524 0.6082
v 0.5626 0.3614 0.6133
v 0.5258 0.2661 0.4627
v 0.5467 0.2751 0.4485
v 0.6082 0.3614 0.5940
v 0.5873 0.3524 0.6082
v 0.5467 0.2751 0.4485
v 0.5515 0.2969 0.4336
v 0.6130 0.3831 0.5791
v 0.6082 0.3614 0.5940
v 0.5467 0.2751 0.4485
v 0.5258 0.2661 0.4627
v 0.5011 0.2751 0.4678
v 0.4870 0.2969 0.4609
v 0.4918 0.3186 0.4460
v 0.5127 0.3276 0.4318
v 0.5374 0.3186 0.4267
v 0.5515 0.2969 0.4336
v 0.6130 0.3831 0.5791
v 0.5989 0.4049 0.5722
v 0.5742 0.4139 0.5773
v 0.5533 0.4049 0.5915
v 0.5485 0.3831 0.6064
v 0.5626 0.3614 0.6133
v 0.5873 0.3524 0.6082
v 0.6082 0.3614 0.5940
v 0.6415 0.2969 0.3736
v 0.6274 0.3186 0.3667
v 0.6889 0.4049 0.5122
v 0.7030 0.3831 0.5191
v 0.6274 0.3186 0.3667
v 0.6027 0.3276 0.3718
v 0.6642 0.4139 0.5173
v 0.6889 0.4049 0.5122
v 0.6027 0.3276 0.3718
v 0.5818 0.3186 0.3860
v 0.6433 0.4049 0.5315
v 0.6642 0.4139 0.5173
v 0.5818 0.3186 0.3860
v 0.5770 0.2969 0.4009
v 0.6385 0.3831 0.5464
v 0.6433 0.4049 0.5315
v 0.5770 0.2969 0.4009
v 0.5911 0.2751 0.4078
v 0.6526 0.3614 0.5533
v 0.6385 0.3831 0.5464
v 0.5911 0.2751 0.4078
v 0.6158 0.2661 0.4027
v 0.6773 0.3524 0.5482
v 0.6526 0.3614 0.5533
v 0.6158 0.2661 0.4027
v 0.6367 0.2751 0.3885
v 0.6982 0.3614 0.5340
v 0.6773 0.3524 0.5482
v 0.6367 0.2751 0.3885
v 0.6415 0.2969 0.3736
v 0.7030 0.3831 0.5191
v 0.6982 0.3614 0.5340
v 0.6367 0.2751 0.3885
v 0.6158 0.2661 0.4027
v 0.5911 0.2751 0.4078
v 0.5770 0.2969 0.4009
v 0.5818 0.3186 0.3860
v 0.6027 0.3276 0.3718
v 0.6274 0.3186 0.3667
v 0.6415 0.2969 0.3736
v 0.7030 0.3831 0.5191
v 0.6889 0.4049 0.5122
v 0.6642 0.4139 0.5173
v 0.6433 0.4049 0.5315
v 0.6385 0.3831 0.5464
v 0.6526 0.3614 0.5533
v 0.6773 0.3524 0.5482
v 0.6982 0.3614 0.5340
v 0.7315 0.2969 0.3136
v 0.7174 0.3186 0.3067
v 0.7789 0.4049 0.4522
v 0.7930 0.3831 0.4591
v 0.7174 0.3186 0.3067
v 0.6927 0.3276 0.3118
v 0.7542 0.4139 0.4573
v 0.7789 0.4049 0.4522
v 0.6927 0.3276 0.3118
v 0.6718 0.3186 0.3260
v 0.7333 0.4049 0.4715
v 0.7542 0.4139 0.4573
v 0.6718 0.3186 0.3260
v 0.6670 0.2969 0.3409
v 0.7285 0.3831 0.4864
v 0.7333 0.4049 0.4715
v 0.6670 0.2969 0.3409
v 0.6811 0.2751 0.3478
v 0.7426 0.3614 0.4933
v 0.7285 0.3831 0.4864
v 0.6811 0.2751 0.3478
v 0.7058 0.2661 0.3427
v 0.7673 0.3524 0.4882
v 0.7426 0.3614 0.4933
v 0.7058 0.2661 0.3427
v 0.7267 0.2751 0.3285
v 0.7882 0.3614 0.4740
v 0.7673 0.3524 0.4882
v 0.7267 0.2751 0.3285
v 0.7315 0.2969 0.3136
v 0.7930 0.3831 0.4591
v 0.7882 0.3614 0.4740
v 0.7267 0.2751 0.3285
v 0.7058 0.2661 0.3427
v 0.6811 0.2751 0.3478
v 0.6670 0.2969 0.3409
v 0.6718 0.3186 0.3260
v 0.6927 0.3276 0.3118
v 0.7174 0.3186 0.3067
v 0.7315 0.2969 0.3136
v 0.7930 0.3831 0.4591
v 0.7789 0.4049 0.4522
v 0.7542 0.4139 0.4573
v 0.7333 0.4049 0.4715
v 0.7285 0.3831 0.4864
v 0.7426 0.3614 0.4933
v 0.7673 0.3524 0.4882
v 0.7882 0.3614 0.4740
v -0.4870 0.2969 0.4609
v -0.4918 0.3186 0.4460
v -0.5533 0.4049 0.5915
v -0.5485 0.3831 0.6064
v -0.4918 0.3186 0.4460
v -0.5127 0.3276 0.4318
v -0.5742 0.4139 0.5773
v -0.5533 0.4049 0.5915
v -0.5127 0.3276 0.4318
v -0.5374 0.3186 0.4267
v -0.5989 0.4049 0.5722
v -0.5742 0.4139 0.5773
v -0.5374 0.3186 0.4267
v -0.5515 0.2969 0.4336
v -0.6130 0.3831 0.5791
v -0.5989 0.4049 0.5722
v -0.5515 0.2969 0.4336
v -0.5467 0.2751 0.4485
v -0.6082 0.3614 0.5940
v -0.6130 0.3831 0.5791
v -0.5467 0.2751 0.4485
v -0.5258 0.2661 0.4627
v -0.5873 0.3524 0.6082
v -0.6082 0.3614 0.5940
v -0.5258 0.2661 0.4627
v -0.5011 0.2751 0.4678
v -0.5626 0.3614 0.6133
v -0.5873 0.3524 0.6082
v -0.5011 0.2751 0.4678
v -0.4870 0.2969 0.4609
v -0.5485 0.3831 0.6064
v -0.5626 0.3614 0.6133
v -0.5011 0.2751 0.4678
v -0.5258 0.2661 0.4627
v -0.5467 0.2751 0.4485
v -0.5515 0.2969 0.4336
v -0.5374 0.3186 0.4267
v -0.5127 0.3276 0.4318
v -0.4918 0.3186 0.4460
v -0.4870 0.2969 0.4609
v -0.5485 0.3831 0.6064
v -0.5533 0.4049 0.5915
v -0.5742 0.4139 0.5773
v -0.5989 0.4049 0.5722
v -0.6130 0.3831 0.5791
v -0.6082 0.3614 0.5940
v -0.5873 0.3524 0.6082
v -0.5626 0.3614 0.6133
v -0.5770 0.2969 0.4009
v -0.5818 0.3186 0.3860
v -0.6433 0.4049 0.5315
v -0.6385 0.3831 0.5464
v -0.5818 0.3186 0.3860
v -0.6027 0.3276 0.3718
v -0.6642 0.4139 0.5173
v -0.6433 0.4049 0.5315
v -0.6027 0.3276 0.3718
v -0.6274 0.3186 0.3667
v -0.6889 0.4049 0.5122
v -0.6642 0.4139 0.5173
v -0.6274 0.3186 0.3667
v -0.6415 0.2969 0.3736
v -0.7030 0.3831 0.5191
v -0.6889 0.4049 0.5122
v -0.6415 0.2969 0.3736
v -0.6367 0.2751 0.3885
v -0.6982 0.3614 0.5340
v -0.7030 0.3831 0.5191
v -0.6367 0.2751 0.3885
v -0.6158 0.2661 0.4027
v -0.6773 0.3524 0.5482
v -0.6982 0.3614 0.5340
v -0.6158 0.2661 0.4027
v -0.5911 0.2751 0.4078
v -0.6526 0.3614 0.5533
v -0.6773 0.3524 0.5482
v -0.5911 0.2751 0.4078
v -0.5770 0.2969 0.4009
v -0.6385 0.3831 0.5464
v -0.6526 0.3614 0.5533
v -0.5911 0.2751 0.4078
v -0.6158 0.2661 0.4027
v -0.6367 0.2751 0.3885
v -0.6415 0.2969 0.3736
v -0.6274 0.3186 0.3667
v -0.6027 0.3276 0.3718
v -0.5818 0.3186 0.3860
v -0.5770 0.2969 0.4009
v -0.6385 0.3831 0.5464
v -0.6433 0.4049 0.5315
v -0.6642 0.4139 0.5173
v -0.6889 0.4049 0.5122
v -0.7030 0.3831 0.5191
v -0.6982 0.3614 0.5340
v -0.6773 0.3524 0.5482
v -0.6526 0.3614 0.5533
v -0.6670 0.2969 0.3409
v -0.6718 0.3186 0.3260
v -0.7333 0.4049 0.4715
v -0.7285 0.3831 0.4864
v -0.6718 0.3186 0.3260
v -0.6927 0.3276 0.3118
v -0.7542 0.4139 0.4573
v -0.7333 0.4049 0.4715
v -0.6927 0.3276 0.3118
v -0.7174 0.3186 0.3067
v -0.7789 0.4049 0.4522
v -0.7542 0.4139 0.4573
v -0.7174 0.3186 0.3067
v -0.7315 0.2969 0.3136
v -0.7930 0.3831 0.4591
v -0.7789 0.4049 0.4522
v -0.7315 0.2969 0.3136
v -0.7267 0.2751 0.3285
v -0.7882 0.3614 0.4740
v -0.7930 0.3831 0.4591
v -0.7267 0.2751 0.3285
v -0.7058 0.2661 0.3427
v -0.7673 0.3524 0.4882
v -0.7882 0.3614 0.4740
v -0.7058 0.2661 0.3427
v -0.6811 0.2751 0.3478
v -0.7426 0.3614 0.4933
v -0.7673 0.3524 0.4882
v -0.6811 0.2751 0.3478
v -0.6670 0.2969 0.3409
v -0.7285 0.3831 0.4864
v -0.7426 0.3614 0.4933
v -0.6811 0.2751 0.3478
v -0.7058 0.2661 0.3427
v -0.7267 0.2751 0.3285
v -0.7315 0.2969 0.3136
v -0.7174 0.3186 0.3067
v -0.6927 0.3276 0.3118
v -0.6718 0.3186 0.3260
v -0.6670 0.2969 0.3409
v -0.7285 0.3831 0.4864
v -0.7333 0.4049 0.4715
v -0.7542 0.4139 0.4573
v -0.7789 0.4049 0.4522
v -0.7930 0.3831 0.4591
v -0.7882 0.3614 0.4740
v -0.7673 0.3524 0.4882
v -0.7426 0.3614 0.4933
vt 0.2500 0.5040
vt 0.1559 0.5040
vt 0.1600 0.6829
vt 0.2500 0.6829
vt 0.1559 0.5040
vt 0.0761 0.5040
vt 0.0838 0.6829
vt 0.1600 0.6829
vt 0.4239 0.5040
vt 0.3441 0.5040
vt 0.3400 0.6829
vt 0.4162 0.6829
vt 0.3441 0.5040
vt 0.2500 0.5040
vt 0.2500 0.6829
vt 0.3400 0.6829
vt 0.2500 0.5040
vt 0.1559 0.5040
vt 0.1600 0.6829
vt 0.2500 0.6829
vt 0.1559 0.5040
vt 0.0761 0.5040
vt 0.0838 0.6829
vt 0.1600 0.6829
vt 0.0761 0.5040
vt 0.1559 0.5040
vt 0.1600 0.6829
vt 0.0838 0.6829
vt 0.1559 0.5040
vt 0.2500 0.5040
vt 0.2500 0.6829
vt 0.1600 0.6829
vt 0.2500 0.5040
vt 0.3441 0.5040
vt 0.3400 0.6829
vt 0.2500 0.6829
vt 0.3441 0.5040
vt 0.4239 0.5040
vt 0.4162 0.6829
vt 0.3400 0.6829
vt 0.0761 0.5040
vt 0.1559 0.5040
vt 0.1600 0.6829
vt 0.0838 0.6829
vt 0.1559 0.5040
vt 0.2500 0.5040
vt 0.2500 0.6829
vt 0.1600 0.6829
vt 0.2500 0.5040
vt 0.3441 0.5040
vt 0.3400 0.6829
vt 0.2500 0.6829
vt 0.3441 0.5040
vt 0.4239 0.5040
vt 0.4162 0.6829
vt 0.3400 0.6829
vt 0.4239 0.5040
vt 0.3441 0.5040
vt 0.3400 0.6829
vt 0.4162 0.6829
vt 0.3441 0.5040
vt 0.2500 0.5040
vt 0.2500 0.6829
vt 0.3400 0.6829
vt 0.4851 0.7500
vt 0.4672 0.6600
vt 0.4066 0.6851
vt 0.4195 0.7500
vt 0.4672 0.6600
vt 0.4162 0.5838
vt 0.3698 0.6302
vt 0.4066 0.6851
vt 0.4162 0.5838
vt 0.3400 0.5328
vt 0.3149 0.5934
vt 0.3698 0.6302
vt 0.3400 0.5328
vt 0.2500 0.5149
vt 0.2500 0.5805
vt 0.3149 0.5934
vt 0.2500 0.5149
vt 0.1600 0.5328
vt 0.1851 0.5934
vt 0.2500 0.5805
vt 0.1600 0.5328
vt 0.0838 0.5838
vt 0.1302 0.6302
vt 0.1851 0.5934
vt 0.0838 0.5838
vt 0.0328 0.6600
vt 0.0934 0.6851
vt 0.1302 0.6302
vt 0.0328 0.6600
vt 0.0149 0.7500
vt 0.0805 0.7500
vt 0.0934 0.6851
vt 0.0149 0.7500
vt 0.0328 0.8400
vt 0.0934 0.8149
vt 0.0805 0.7500
vt 0.0328 0.8400
vt 0.0838 0.9162
vt 0.1302 0.8698
vt 0.0934 0.8149
vt 0.0838 0.9162
vt 0.1600 0.9672
vt 0.1851 0.9066
vt 0.1302 0.8698
vt 0.1600 0.9672
vt 0.2500 0.9851
vt 0.2500 0.9195
vt 0.1851 0.9066
vt 0.2500 0.9851
vt 0.3400 0.9672
vt 0.3149 0.9066
vt 0.2500 0.9195
vt 0.3400 0.9672
vt 0.4162 0.9162
vt 0.3698 0.8698
vt 0.3149 0.9066
vt 0.4162 0.9162
vt 0.4672 0.8400
vt 0.4066 0.8149
vt 0.3698 0.8698
vt 0.4672 0.8400
vt 0.4851 0.7500
vt 0.4195 0.7500
vt 0.4066 0.8149
vt 0.4195 0.7500
vt 0.4066 0.6851
vt 0.3258 0.7186
vt 0.3320 0.7500
vt 0.4066 0.6851
vt 0.3698 0.6302
vt 0.3080 0.6920
vt 0.3258 0.7186
vt 0.3698 0.6302
vt 0.3149 0.5934
vt 0.2814 0.6742
vt 0.3080 0.6920
vt 0.3149 0.5934
vt 0.2500 0.5805
vt 0.2500 0.6680
vt 0.2814 0.6742
vt 0.2500 0.5805
vt 0.1851 0.5934
vt 0.2186 0.6742
vt 0.2500 0.6680
vt 0.1851 0.5934
vt 0.1302 0.6302
vt 0.1920 0.6920
vt 0.2186 0.6742
vt 0.1302 0.6302
vt 0.0934 0.6851
vt 0.1742 0.7186
vt 0.1920 0.6920
vt 0.0934 0.6851
vt 0.0805 0.7500
vt 0.1680 0.7500
vt 0.1742 0.7186
vt 0.0805 0.7500
vt 0.0934 0.8149
vt 0.1742 0.7814
vt 0.1680 0.7500
vt 0.0934 0.8149
vt 0.1302 0.8698
vt 0.1920 0.8080
vt 0.1742 0.7814
vt 0.1302 0.8698
vt 0.1851 0.9066
vt 0.2186 0.8258
vt 0.1920 0.8080
vt 0.1851 0.9066
vt 0.2500 0.9195
vt 0.2500 0.8320
vt 0.2186 0.8258
vt 0.2500 0.9195
vt 0.3149 0.9066
vt 0.2814 0.8258
vt 0.2500 0.8320
vt 0.3149 0.9066
vt 0.3698 0.8698
vt 0.3080 0.8080
vt 0.2814 0.8258
vt 0.3698 0.8698
vt 0.4066 0.8149
vt 0.3258 0.7814
vt 0.3080 0.8080
vt 0.4066 0.8149
vt 0.4195 0.7500
vt 0.3320 0.7500
vt 0.3258 0.7814
vt 0.4773 0.8441
vt 0.4239 0.9239
vt 0.3441 0.9773
vt 0.2500 0.9960
vt 0.1559 0.9773
vt 0.0761 0.9239
vt 0.0227 0.8441
vt 0.0040 0.7500
vt 0.0227 0.6559
vt 0.0761 0.5761
vt 0.1559 0.5227
vt 0.2500 0.5040
vt 0.3441 0.5227
vt 0.4239 0.5761
vt 0.4773 0.6559
vt 0.4960 0.7500
vt 0.3320 0.7500
vt 0.3258 0.7186
vt 0.3080 0.6920
vt 0.2814 0.6742
vt 0.2500 0.6680
vt 0.2186 0.6742
vt 0.1920 0.6920
vt 0.1742 0.7186
vt 0.1680 0.7500
vt 0.1742 0.7814
vt 0.1920 0.8080
vt 0.2186 0.8258
vt 0.2500 0.8320
vt 0.2814 0.8258
vt 0.3080 0.8080
vt 0.3258 0.7814
vt 0.5040 0.5040
vt 0.5040 0.9960
vt 0.9960 0.9960
vt 0.9960 0.5040
vt 0.5789 0.5619
vt 0.9211 0.5619
vt 0.9211 0.9381
vt 0.5789 0.9381
vt 0.5040 0.5040
vt 0.5789 0.9960
vt 0.9211 0.9960
vt 0.9960 0.5040
vt 0.5040 0.5040
vt 0.9960 0.5040
vt 0.9211 0.9960
vt 0.5789 0.9960
vt 0.5040 0.5040
vt 0.5040 0.9960
vt 0.9960 0.9381
vt 0.9960 0.5619
vt 0.5040 0.5040
vt 0.9960 0.5619
vt 0.9960 0.9381
vt 0.5040 0.9960
vt 0.7870 0.2994
vt 0.7870 0.4506
vt 0.9630 0.4506
vt 0.9630 0.2994
vt 0.9630 0.2994
vt 0.9630 0.4506
vt 0.7870 0.4506
vt 0.7870 0.2994
vt 0.7870 0.2819
vt 0.7870 0.4681
vt 0.9630 0.4681
vt 0.9630 0.2819
vt 0.7870 0.2819
vt 0.9630 0.2819
vt 0.9630 0.4681
vt 0.7870 0.4681
vt 0.7819 0.2994
vt 0.7819 0.4506
vt 0.9681 0.4506
vt 0.9681 0.2994
vt 0.9681 0.2994
vt 0.9681 0.4506
vt 0.7819 0.4506
vt 0.7819 0.2994
vt 0.7870 0.2819
vt 0.9630 0.2819
vt 0.9630 0.2540
vt 0.7870 0.2540
vt 0.9630 0.4681
vt 0.7870 0.4681
vt 0.7870 0.4960
vt 0.9630 0.4960
vt 0.9630 0.2540
vt 0.7870 0.2540
vt 0.7870 0.2994
vt 0.9630 0.2994
vt 0.7870 0.4681
vt 0.9630 0.4681
vt 0.9630 0.4960
vt 0.7870 0.4960
vt 0.9960 0.2819
vt 0.9960 0.4681
vt 0.9630 0.4681
vt 0.9630 0.2819
vt 0.9681 0.2994
vt 0.7819 0.2994
vt 0.7819 0.2540
vt 0.9681 0.2540
vt 0.7540 0.4681
vt 0.7540 0.2819
vt 0.7870 0.2819
vt 0.7870 0.4681
vt 0.7819 0.2994
vt 0.9681 0.2994
vt 0.9681 0.2540
vt 0.7819 0.2540
vt 0.7819 0.4506
vt 0.7540 0.4506
vt 0.7540 0.2994
vt 0.7819 0.2994
vt 0.9681 0.2994
vt 0.9960 0.2994
vt 0.9960 0.4506
vt 0.9681 0.4506
vt 0.7819 0.2994
vt 0.7540 0.2994
vt 0.7540 0.4506
vt 0.7819 0.4506
vt 0.9681 0.4506
vt 0.9960 0.4506
vt 0.9960 0.2994
vt 0.9681 0.2994
vt 0.9681 0.4960
vt 0.9681 0.4506
vt 0.9960 0.4506
vt 0.9960 0.4506
vt 0.9681 0.4506
vt 0.9681 0.4960
vt 0.9630 0.2994
vt 0.9960 0.2994
vt 0.9630 0.2540
vt 0.7870 0.2540
vt 0.7540 0.2994
vt 0.7870 0.2994
vt 0.7540 0.4506
vt 0.7819 0.4506
vt 0.7819 0.4960
vt 0.7819 0.4960
vt 0.7819 0.4506
vt 0.7540 0.4506
vt 0.9630 0.2540
vt 0.9960 0.2994
vt 0.9630 0.2994
vt 0.7870 0.2994
vt 0.7540 0.2994
vt 0.7870 0.2540
vt 0.2540 0.0040
vt 0.2540 0.1210
vt 0.4960 0.1210
vt 0.4960 0.0040
vt 0.4960 0.0040
vt 0.4960 0.1210
vt 0.2540 0.1210
vt 0.2540 0.0040
vt 0.2540 0.1210
vt 0.2540 0.1210
vt 0.4960 0.1210
vt 0.4960 0.1210
vt 0.2540 0.0040
vt 0.4960 0.0040
vt 0.4960 0.0040
vt 0.2540 0.0040
vt 0.4960 0.0040
vt 0.4960 0.1210
vt 0.4960 0.1210
vt 0.4960 0.0040
vt 0.2540 0.0040
vt 0.2540 0.1210
vt 0.2540 0.1210
vt 0.2540 0.0040
vt 0.5040 0.0040
vt 0.5040 0.2460
vt 0.9960 0.2460
vt 0.9960 0.0040
vt 0.9960 0.0040
vt 0.9960 0.2460
vt 0.5040 0.2460
vt 0.5040 0.0040
vt 0.5040 0.2460
vt 0.5040 0.2460
vt 0.9960 0.2460
vt 0.9960 0.2460
vt 0.5040 0.0040
vt 0.9960 0.0040
vt 0.9960 0.0040
vt 0.5040 0.0040
vt 0.9960 0.0040
vt 0.9960 0.2460
vt 0.9960 0.2460
vt 0.9960 0.0040
vt 0.5040 0.0040
vt 0.5040 0.2460
vt 0.5040 0.2460
vt 0.5040 0.0040
vt 0.0040 0.0040
vt 0.0040 0.2460
vt 0.2460 0.2460
vt 0.2460 0.0040
vt 0.2460 0.0040
vt 0.2460 0.2460
vt 0.0040 0.2460
vt 0.0040 0.0040
vt 0.0040 0.2460
vt 0.0040 0.2460
vt 0.2460 0.2460
vt 0.2460 0.2460
vt 0.0040 0.0040
vt 0.2460 0.0040
vt 0.2460 0.0040
vt 0.0040 0.0040
vt 0.2460 0.0040
vt 0.2460 0.2460
vt 0.2460 0.2460
vt 0.2460 0.0040
vt 0.0040 0.0040
vt 0.0040 0.2460
vt 0.0040 0.2460
vt 0.0040 0.0040
vt 0.2540 0.1290
vt 0.2540 0.2460
vt 0.2540 0.2460
vt 0.2540 0.1290
vt 0.4960 0.1290
vt 0.4960 0.2460
vt 0.4960 0.2460
vt 0.4960 0.1290
vt 0.2540 0.2460
vt 0.4960 0.2460
vt 0.4960 0.2460
vt 0.2540 0.2460
vt 0.2540 0.1290
vt 0.2540 0.1290
vt 0.4960 0.1290
vt 0.4960 0.1290
vt 0.2540 0.1290
vt 0.2540 0.2460
vt 0.4960 0.2460
vt 0.4960 0.1290
vt 0.4960 0.1290
vt 0.4960 0.2460
vt 0.2540 0.2460
vt 0.2540 0.1290
vt 0.2540 0.1290
vt 0.2540 0.2460
vt 0.2540 0.2460
vt 0.2540 0.1290
vt 0.4960 0.1290
vt 0.4960 0.2460
vt 0.4960 0.2460
vt 0.4960 0.1290
vt 0.2540 0.2460
vt 0.4960 0.2460
vt 0.4960 0.2460
vt 0.2540 0.2460
vt 0.4960 0.1290
vt 0.4960 0.1290
vt 0.2540 0.1290
vt 0.2540 0.1290
vt 0.4960 0.1290
vt 0.4960 0.2460
vt 0.2540 0.2460
vt 0.2540 0.1290
vt 0.2540 0.1290
vt 0.2540 0.2460
vt 0.4960 0.2460
vt 0.4960 0.1290
vt 0.8750 0.4960
vt 0.9960 0.4960
vt 0.9395 0.2540
vt 0.8750 0.2540
vt 0.9355 0.4960
vt 0.8145 0.4960
vt 0.8427 0.2540
vt 0.9073 0.2540
vt 0.9960 0.4960
vt 0.8750 0.4960
vt 0.8750 0.2540
vt 0.9395 0.2540
vt 0.8750 0.4960
vt 0.7540 0.4960
vt 0.8105 0.2540
vt 0.8750 0.2540
vt 0.8145 0.4960
vt 0.9355 0.4960
vt 0.9073 0.2540
vt 0.8427 0.2540
vt 0.7540 0.4960
vt 0.8750 0.4960
vt 0.8750 0.2540
vt 0.8105 0.2540
vt 0.9355 0.2540
vt 0.8145 0.2540
vt 0.7540 0.3750
vt 0.8145 0.4960
vt 0.9355 0.4960
vt 0.9960 0.3750
vt 0.9395 0.3750
vt 0.9073 0.4395
vt 0.8427 0.4395
vt 0.8105 0.3750
vt 0.8427 0.3105
vt 0.9073 0.3105
vt 0.7630 0.3043
vt 0.7540 0.3399
vt 0.9427 0.4813
vt 0.9517 0.4457
vt 0.8508 0.2540
vt 0.8034 0.2606
vt 0.9215 0.4493
vt 0.9690 0.4427
vt 0.8034 0.2606
vt 0.7633 0.2790
vt 0.8814 0.4677
vt 0.9215 0.4493
vt 0.7790 0.3399
vt 0.7983 0.3043
vt 0.9870 0.4457
vt 0.9677 0.4813
vt 0.7983 0.3043
vt 0.8073 0.2687
vt 0.9960 0.4101
vt 0.9870 0.4457
vt 0.7810 0.3073
vt 0.8285 0.3007
vt 0.9466 0.4894
vt 0.8992 0.4960
vt 0.8285 0.3007
vt 0.8686 0.2823
vt 0.9867 0.4710
vt 0.9466 0.4894
vt 0.7823 0.2687
vt 0.7630 0.3043
vt 0.9517 0.4457
vt 0.9710 0.4101
vt 0.8686 0.2687
vt 0.8285 0.2540
vt 0.7810 0.2687
vt 0.7540 0.3043
vt 0.7633 0.3399
vt 0.8034 0.3546
vt 0.8508 0.3399
vt 0.8778 0.3043
vt 0.9960 0.4457
vt 0.9690 0.4813
vt 0.9215 0.4960
vt 0.8814 0.4813
vt 0.8722 0.4457
vt 0.8992 0.4101
vt 0.9466 0.3954
vt 0.9867 0.4101
vt 0.7630 0.3043
vt 0.7540 0.3399
vt 0.9427 0.4813
vt 0.9517 0.4457
vt 0.8508 0.2540
vt 0.8034 0.2606
vt 0.9215 0.4493
vt 0.9690 0.4427
vt 0.8034 0.2606
vt 0.7633 0.2790
vt 0.8814 0.4677
vt 0.9215 0.4493
vt 0.7790 0.3399
vt 0.7983 0.3043
vt 0.9870 0.4457
vt 0.9677 0.4813
vt 0.7983 0.3043
vt 0.8073 0.2687
vt 0.9960 0.4101
vt 0.9870 0.4457
vt 0.7810 0.3073
vt 0.8285 0.3007
vt 0.9466 0.4894
vt 0.8992 0.4960
vt 0.8285 0.3007
vt 0.8686 0.2823
vt 0.9867 0.4710
vt 0.9466 0.4894
vt 0.7823 0.2687
vt 0.7630 0.3043
vt 0.9517 0.4457
vt 0.9710 0.4101
vt 0.8686 0.2687
vt 0.8285 0.2540
vt 0.7810 0.2687
vt 0.7540 0.3043
vt 0.7633 0.3399
vt 0.8034 0.3546
vt 0.8508 0.3399
vt 0.8778 0.3043
vt 0.9960 0.4457
vt 0.9690 0.4813
vt 0.9215 0.4960
vt 0.8814 0.4813
vt 0.8722 0.4457
vt 0.8992 0.4101
vt 0.9466 0.3954
vt 0.9867 0.4101
vt 0.7630 0.3043
vt 0.7540 0.3399
vt 0.9427 0.4813
vt 0.9517 0.4457
vt 0.8508 0.2540
vt 0.8034 0.2606
vt 0.9215 0.4493
vt 0.9690 0.4427
vt 0.8034 0.2606
vt 0.7633 0.2790
vt 0.8814 0.4677
vt 0.9215 0.4493
vt 0.7790 0.3399
vt 0.7983 0.3043
vt 0.9870 0.4457
vt 0.9677 0.4813
vt 0.7983 0.3043
vt 0.8073 0.2687
vt 0.9960 0.4101
vt 0.9870 0.4457
vt 0.7810 0.3073
vt 0.8285 0.3007
vt 0.9466 0.4894
vt 0.8992 0.4960
vt 0.8285 0.3007
vt 0.8686 0.2823
vt 0.9867 0.4710
vt 0.9466 0.4894
vt 0.7823 0.2687
vt 0.7630 0.3043
vt 0.9517 0.4457
vt 0.9710 0.4101
vt 0.8686 0.2687
vt 0.8285 0.2540
vt 0.7810 0.2687
vt 0.7540 0.3043
vt 0.7633 0.3399
vt 0.8034 0.3546
vt 0.8508 0.3399
vt 0.8778 0.3043
vt 0.9960 0.4457
vt 0.9690 0.4813
vt 0.9215 0.4960
vt 0.8814 0.4813
vt 0.8722 0.4457
vt 0.8992 0.4101
vt 0.9466 0.3954
vt 0.9867 0.4101
vt 0.7983 0.3043
vt 0.7790 0.3399
vt 0.9677 0.4813
vt 0.9870 0.4457
vt 0.9867 0.2790
vt 0.9466 0.2606
vt 0.8285 0.4493
vt 0.8686 0.4677
vt 0.9466 0.2606
vt 0.8992 0.2540
vt 0.7810 0.4427
vt 0.8285 0.4493
vt 0.7540 0.3399
vt 0.7630 0.3043
vt 0.9517 0.4457
vt 0.9427 0.4813
vt 0.7630 0.3043
vt 0.7823 0.2687
vt 0.9710 0.4101
vt 0.9517 0.4457
vt 0.8814 0.2823
vt 0.9215 0.3007
vt 0.8034 0.4894
vt 0.7633 0.4710
vt 0.9215 0.3007
vt 0.9690 0.3073
vt 0.8508 0.4960
vt 0.8034 0.4894
vt 0.8073 0.2687
vt 0.7983 0.3043
vt 0.9870 0.4457
vt 0.9960 0.4101
vt 0.9690 0.2687
vt 0.9215 0.2540
vt 0.8814 0.2687
vt 0.8722 0.3043
vt 0.8992 0.3399
vt 0.9466 0.3546
vt 0.9867 0.3399
vt 0.9960 0.3043
vt 0.8778 0.4457
vt 0.8686 0.4813
vt 0.8285 0.4960
vt 0.7810 0.4813
vt 0.7540 0.4457
vt 0.7633 0.4101
vt 0.8034 0.3954
vt 0.8508 0.4101
vt 0.7983 0.3043
vt 0.7790 0.3399
vt 0.9677 0.4813
vt 0.9870 0.4457
vt 0.9867 0.2790
vt 0.9466 0.2606
vt 0.8285 0.4493
vt 0.8686 0.4677
vt 0.9466 0.2606
vt 0.8992 0.2540
vt 0.7810 0.4427
vt 0.8285 0.4493
vt 0.7540 0.3399
vt 0.7630 0.3043
vt 0.9517 0.4457
vt 0.9427 0.4813
vt 0.7630 0.3043
vt 0.7823 0.2687
vt 0.9710 0.4101
vt 0.9517 0.4457
vt 0.8814 0.2823
vt 0.9215 0.3007
vt 0.8034 0.4894
vt 0.7633 0.4710
vt 0.9215 0.3007
vt 0.9690 0.3073
vt 0.8508 0.4960
vt 0.8034 0.4894
vt 0.8073 0.2687
vt 0.7983 0.3043
vt 0.9870 0.4457
vt 0.9960 0.4101
vt 0.9690 0.2687
vt 0.9215 0.2540
vt 0.8814 0.2687
vt 0.8722 0.3043
vt 0.8992 0.3399
vt 0.9466 0.3546
vt 0.9867 0.3399
vt 0.9960 0.3043
vt 0.8778 0.4457
vt 0.8686 0.4813
vt 0.8285 0.4960
vt 0.7810 0.4813
vt 0.7540 0.4457
vt 0.7633 0.4101
vt 0.8034 0.3954
vt 0.8508 0.4101
vt 0.7983 0.3043
vt 0.7790 0.3399
vt 0.9677 0.4813
vt 0.9870 0.4457
vt 0.9867 0.2790
vt 0.9466 0.2606
vt 0.8285 0.4493
vt 0.8686 0.4677
vt 0.9466 0.2606
vt 0.8992 0.2540
vt 0.7810 0.4427
vt 0.8285 0.4493
vt 0.7540 0.3399
vt 0.7630 0.3043
vt 0.9517 0.4457
vt 0.9427 0.4813
vt 0.7630 0.3043
vt 0.7823 0.2687
vt 0.9710 0.4101
vt 0.9517 0.4457
vt 0.8814 0.2823
vt 0.9215 0.3007
vt 0.8034 0.4894
vt 0.7633 0.4710
vt 0.9215 0.3007
vt 0.9690 0.3073
vt 0.8508 0.4960
vt 0.8034 0.4894
vt 0.8073 0.2687
vt 0.7983 0.3043
vt 0.9870 0.4457
vt 0.9960 0.4101
vt 0.9690 0.2687
vt 0.9215 0.2540
vt 0.8814 0.2687
vt 0.8722 0.3043
vt 0.8992 0.3399
vt 0.9466 0.3546
vt 0.9867 0.3399
vt 0.9960 0.3043
vt 0.8778 0.4457
vt 0.8686 0.4813
vt 0.8285 0.4960
vt 0.7810 0.4813
vt 0.7540 0.4457
vt 0.7633 0.4101
vt 0.8034 0.3954
vt 0.8508 0.4101
vn 0.9588 0.2397 -0.1526
vn 0.9588 0.2397 -0.1526
vn 0.9588 0.2397 -0.1526
vn 0.9588 0.2397 -0.1526
vn 0.8535 0.2517 -0.4562
vn 0.8535 0.2517 -0.4562
vn 0.8535 0.2517 -0.4562
vn 0.8535 0.2517 -0.4562
vn 0.6168 0.2722 -0.7385
vn 0.6168 0.2722 -0.7385
vn 0.6168 0.2722 -0.7385
vn 0.6168 0.2722 -0.7385
vn 0.2309 0.2902 -0.9287
vn 0.2309 0.2902 -0.9287
vn 0.2309 0.2902 -0.9287
vn 0.2309 0.2902 -0.9287
vn -0.2309 0.2902 -0.9287
vn -0.2309 0.2902 -0.9287
vn -0.2309 0.2902 -0.9287
vn -0.2309 0.2902 -0.9287
vn -0.6168 0.2722 -0.7385
vn -0.6168 0.2722 -0.7385
vn -0.6168 0.2722 -0.7385
vn -0.6168 0.2722 -0.7385
vn -0.8535 0.2517 -0.4562
vn -0.8535 0.2517 -0.4562
vn -0.8535 0.2517 -0.4562
vn -0.8535 0.2517 -0.4562
vn -0.9588 0.2397 -0.1526
vn -0.9588 0.2397 -0.1526
vn -0.9588 0.2397 -0.1526
vn -0.9588 0.2397 -0.1526
vn -0.9588 0.2397 0.1526
vn -0.9588 0.2397 0.1526
vn -0.9588 0.2397 0.1526
vn -0.9588 0.2397 0.1526
vn -0.8535 0.2517 0.4562
vn -0.8535 0.2517 0.4562
vn -0.8535 0.2517 0.4562
vn -0.8535 0.2517 0.4562
vn -0.6168 0.2722 0.7385
vn -0.6168 0.2722 0.7385
vn -0.6168 0.2722 0.7385
vn -0.6168 0.2722 0.7385
vn -0.2309 0.2902 0.9287
vn -0.2309 0.2902 0.9287
vn -0.2309 0.2902 0.9287
vn -0.2309 0.2902 0.9287
vn 0.2309 0.2902 0.9287
vn 0.2309 0.2902 0.9287
vn 0.2309 0.2902 0.9287
vn 0.2309 0.2902 0.9287
vn 0.6168 0.2722 0.7385
vn 0.6168 0.2722 0.7385
vn 0.6168 0.2722 0.7385
vn 0.6168 0.2722 0.7385
vn 0.8535 0.2517 0.4562
vn 0.8535 0.2517 0.4562
vn 0.8535 0.2517 0.4562
vn 0.8535 0.2517 0.4562
vn 0.9588 0.2397 0.1526
vn 0.9588 0.2397 0.1526
vn 0.9588 0.2397 0.1526
vn 0.9588 0.2397 0.1526
vn 0.6369 0.7643 -0.1013
vn 0.6369 0.7643 -0.1013
vn 0.6369 0.7643 -0.1013
vn 0.6369 0.7643 -0.1013
vn 0.5514 0.7805 -0.2947
vn 0.5514 0.7805 -0.2947
vn 0.5514 0.7805 -0.2947
vn 0.5514 0.7805 -0.2947
vn 0.3801 0.8052 -0.4551
vn 0.3801 0.8052 -0.4551
vn 0.3801 0.8052 -0.4551
vn 0.3801 0.8052 -0.4551
vn 0.1366 0.8242 -0.5495
vn 0.1366 0.8242 -0.5495
vn 0.1366 0.8242 -0.5495
vn 0.1366 0.8242 -0.5495
vn -0.1366 0.8242 -0.5495
vn -0.1366 0.8242 -0.5495
vn -0.1366 0.8242 -0.5495
vn -0.1366 0.8242 -0.5495
vn -0.3801 0.8052 -0.4551
vn -0.3801 0.8052 -0.4551
vn -0.3801 0.8052 -0.4551
vn -0.3801 0.8052 -0.4551
vn -0.5514 0.7805 -0.2947
vn -0.5514 0.7805 -0.2947
vn -0.5514 0.7805 -0.2947
vn -0.5514 0.7805 -0.2947
vn -0.6369 0.7643 -0.1013
vn -0.6369 0.7643 -0.1013
vn -0.6369 0.7643 -0.1013
vn -0.6369 0.7643 -0.1013
vn -0.6369 0.7643 0.1013
vn -0.6369 0.7643 0.1013
vn -0.6369 0.7643 0.1013
vn -0.6369 0.7643 0.1013
vn -0.5514 0.7805 0.2947
vn -0.5514 0.7805 0.2947
vn -0.5514 0.7805 0.2947
vn -0.5514 0.7805 0.2947
vn -0.3801 0.8052 0.4551
vn -0.3801 0.8052 0.4551
vn -0.3801 0.8052 0.4551
vn -0.3801 0.8052 0.4551
vn -0.1366 0.8242 0.5495
vn -0.1366 0.8242 0.5495
vn -0.1366 0.8242 0.5495
vn -0.1366 0.8242 0.5495
vn 0.1366 0.8242 0.5495
vn 0.1366 0.8242 0.5495
vn 0.1366 0.8242 0.5495
vn 0.1366 0.8242 0.5495
vn 0.3801 0.8052 0.4551
vn 0.3801 0.8052 0.4551
vn 0.3801 0.8052 0.4551
vn 0.3801 0.8052 0.4551
vn 0.5514 0.7805 0.2947
vn 0.5514 0.7805 0.2947
vn 0.5514 0.7805 0.2947
vn 0.5514 0.7805 0.2947
vn 0.6369 0.7643 0.1013
vn 0.6369 0.7643 0.1013
vn 0.6369 0.7643 0.1013
vn 0.6369 0.7643 0.1013
vn 0.2424 0.9694 -0.0386
vn 0.2424 0.9694 -0.0386
vn 0.2424 0.9694 -0.0386
vn 0.2424 0.9694 -0.0386
vn 0.2061 0.9723 -0.1102
vn 0.2061 0.9723 -0.1102
vn 0.2061 0.9723 -0.1102
vn 0.2061 0.9723 -0.1102
vn 0.1383 0.9765 -0.1656
vn 0.1383 0.9765 -0.1656
vn 0.1383 0.9765 -0.1656
vn 0.1383 0.9765 -0.1656
vn 0.0487 0.9794 -0.1959
vn 0.0487 0.9794 -0.1959
vn 0.0487 0.9794 -0.1959
vn 0.0487 0.9794 -0.1959
vn -0.0487 0.9794 -0.1959
vn -0.0487 0.9794 -0.1959
vn -0.0487 0.9794 -0.1959
vn -0.0487 0.9794 -0.1959
vn -0.1383 0.9765 -0.1656
vn -0.1383 0.9765 -0.1656
vn -0.1383 0.9765 -0.1656
vn -0.1383 0.9765 -0.1656
vn -0.2061 0.9723 -0.1102
vn -0.2061 0.9723 -0.1102
vn -0.2061 0.9723 -0.1102
vn -0.2061 0.9723 -0.1102
vn -0.2424 0.9694 -0.0386
vn -0.2424 0.9694 -0.0386
vn -0.2424 0.9694 -0.0386
vn -0.2424 0.9694 -0.0386
vn -0.2424 0.9694 0.0386
vn -0.2424 0.9694 0.0386
vn -0.2424 0.9694 0.0386
vn -0.2424 0.9694 0.0386
vn -0.2061 0.9723 0.1102
vn -0.2061 0.9723 0.1102
vn -0.2061 0.9723 0.1102
vn -0.2061 0.9723 0.1102
vn -0.1383 0.9765 0.1656
vn -0.1383 0.9765 0.1656
vn -0.1383 0.9765 0.1656
vn -0.1383 0.9765 0.1656
vn -0.0487 0.9794 0.1959
vn -0.0487 0.9794 0.1959
vn -0.0487 0.9794 0.1959
vn -0.0487 0.9794 0.1959
vn 0.0487 0.9794 0.1959
vn 0.0487 0.9794 0.1959
vn 0.0487 0.9794 0.1959
vn 0.0487 0.9794 0.1959
vn 0.1383 0.9765 0.1656
vn 0.1383 0.9765 0.1656
vn 0.1383 0.9765 0.1656
vn 0.1383 0.9765 0.1656
vn 0.2061 0.9723 0.1102
vn 0.2061 0.9723 0.1102
vn 0.2061 0.9723 0.1102
vn 0.2061 0.9723 0.1102
vn 0.2424 0.9694 0.0386
vn 0.2424 0.9694 0.0386
vn 0.2424 0.9694 0.0386
vn 0.2424 0.9694 0.0386
vn 0.0000 -1.0000 -0.0000
vn 0.0000 -1.0000 -0.0000
vn 0.0000 -1.0000 -0.0000
vn 0.0000 -1.0000 -0.0000
vn 0.0000 -1.0000 -0.0000
vn 0.0000 -1.0000 -0.0000
vn 0.0000 -1.0000 -0.0000
vn 0.0000 -1.0000 -0.0000
vn 0.0000 -1.0000 -0.0000
vn 0.0000 -1.0000 -0.0000
vn 0.0000 -1.0000 -0.0000
vn 0.0000 -1.0000 -0.0000
vn 0.0000 -1.0000 -0.0000
vn 0.0000 -1.0000 -0.0000
vn 0.0000 -1.0000 -0.0000
vn 0.0000 -1.0000 -0.0000
vn 0.0000 1.0000 0.0000
vn 0.0000 1.0000 0.0000
vn 0.0000 1.0000 0.0000
vn 0.0000 1.0000 0.0000
vn 0.0000 1.0000 0.0000
vn 0.0000 1.0000 0.0000
vn 0.0000 1.0000 0.0000
vn 0.0000 1.0000 0.0000
vn 0.0000 1.0000 0.0000
vn 0.0000 1.0000 0.0000
vn 0.0000 1.0000 0.0000
vn 0.0000 1.0000 0.0000
vn 0.0000 1.0000 0.0000
vn 0.0000 1.0000 0.0000
vn 0.0000 1.0000 0.0000
vn 0.0000 1.0000 0.0000
vn 0.0000 0.0000 -1.0000
vn 0.0000 0.0000 -1.0000
vn 0.0000 0.0000 -1.0000
vn 0.0000 0.0000 -1.0000
vn 0.0000 0.0000 1.0000
vn 0.0000 0.0000 1.0000
vn 0.0000 0.0000 1.0000
vn 0.0000 0.0000 1.0000
vn 0.0000 0.9974 0.0725
vn 0.0000 0.9974 0.0725
vn 0.0000 0.9974 0.0725
vn 0.0000 0.9974 0.0725
vn 0.0000 -0.9974 0.0725
vn 0.0000 -0.9974 0.0725
vn 0.0000 -0.9974 0.0725
vn 0.0000 -0.9974 0.0725
vn 0.9529 0.0000 0.3032
vn 0.9529 0.0000 0.3032
vn 0.9529 0.0000 0.3032
vn 0.9529 0.0000 0.3032
vn -0.9529 0.0000 0.3032
vn -0.9529 0.0000 0.3032
vn -0.9529 0.0000 0.3032
vn -0.9529 0.0000 0.3032
vn 0.0000 0.0000 -1.0000
vn 0.0000 0.0000 -1.0000
vn 0.0000 0.0000 -1.0000
vn 0.0000 0.0000 -1.0000
vn 0.0000 0.0000 1.0000
vn 0.0000 0.0000 1.0000
vn 0.0000 0.0000 1.0000
vn 0.0000 0.0000 1.0000
vn 0.0000 1.0000 0.0000
vn 0.0000 1.0000 0.0000
vn 0.0000 1.0000 0.0000
vn 0.0000 1.0000 0.0000
vn 0.0000 -1.0000 0.0000
vn 0.0000 -1.0000 0.0000
vn 0.0000 -1.0000 0.0000
vn 0.0000 -1.0000 0.0000
vn 1.0000 0.0000 0.0000
vn 1.0000 0.0000 0.0000
vn 1.0000 0.0000 0.0000
vn 1.0000 0.0000 0.0000
vn -1.0000 0.0000 0.0000
vn -1.0000 0.0000 0.0000
vn -1.0000 0.0000 0.0000
vn -1.0000 0.0000 0.0000
vn 0.0000 0.7071 -0.7071
vn 0.0000 0.7071 -0.7071
vn 0.0000 0.7071 -0.7071
vn 0.0000 0.7071 -0.7071
vn 0.0000 0.7071 0.7071
vn 0.0000 0.7071 0.7071
vn 0.0000 0.7071 0.7071
vn 0.0000 0.7071 0.7071
vn 0.0000 -0.7071 -0.7071
vn 0.0000 -0.7071 -0.7071
vn 0.0000 -0.7071 -0.7071
vn 0.0000 -0.7071 -0.7071
vn 0.0000 -0.7071 0.7071
vn 0.0000 -0.7071 0.7071
vn 0.0000 -0.7071 0.7071
vn 0.0000 -0.7071 0.7071
vn -0.7071 -0.7071 0.0000
vn -0.7071 -0.7071 0.0000
vn -0.7071 -0.7071 0.0000
vn -0.7071 -0.7071 0.0000
vn -0.7071 0.7071 0.0000
vn -0.7071 0.7071 0.0000
vn -0.7071 0.7071 0.0000
vn -0.7071 0.7071 0.0000
vn 0.7071 -0.7071 0.0000
vn 0.7071 -0.7071 0.0000
vn 0.7071 -0.7071 0.0000
vn 0.7071 -0.7071 0.0000
vn 0.7071 0.7071 0.0000
vn 0.7071 0.7071 0.0000
vn 0.7071 0.7071 0.0000
vn 0.7071 0.7071 0.0000
vn -0.7071 0.0000 0.7071
vn -0.7071 0.0000 0.7071
vn -0.7071 0.0000 0.7071
vn -0.7071 0.0000 0.7071
vn -0.7071 0.0000 -0.7071
vn -0.7071 0.0000 -0.7071
vn -0.7071 0.0000 -0.7071
vn -0.7071 0.0000 -0.7071
vn 0.7071 0.0000 0.7071
vn 0.7071 0.0000 0.7071
vn 0.7071 0.0000 0.7071
vn 0.7071 0.0000 0.7071
vn 0.7071 0.0000 -0.7071
vn 0.7071 0.0000 -0.7071
vn 0.7071 0.0000 -0.7071
vn 0.7071 0.0000 -0.7071
vn -0.5774 -0.5774 -0.5774
vn -0.5774 -0.5774 -0.5774
vn -0.5774 -0.5774 -0.5774
vn 0.5774 -0.5774 -0.5774
vn 0.5774 -0.5774 -0.5774
vn 0.5774 -0.5774 -0.5774
vn -0.5774 0.5774 -0.5774
vn -0.5774 0.5774 -0.5774
vn -0.5774 0.5774 -0.5774
vn 0.5774 0.5774 -0.5774
vn 0.5774 0.5774 -0.5774
vn 0.5774 0.5774 -0.5774
vn -0.5774 -0.5774 0.5774
vn -0.5774 -0.5774 0.5774
vn -0.5774 -0.5774 0.5774
vn 0.5774 -0.5774 0.5774
vn 0.5774 -0.5774 0.5774
vn 0.5774 -0.5774 0.5774
vn -0.5774 0.5774 0.5774
vn -0.5774 0.5774 0.5774
vn -0.5774 0.5774 0.5774
vn 0.5774 0.5774 0.5774
vn 0.5774 0.5774 0.5774
vn 0.5774 0.5774 0.5774
vn 0.0000 0.0000 -1.0000
vn 0.0000 0.0000 -1.0000
vn 0.0000 0.0000 -1.0000
vn 0.0000 0.0000 -1.0000
vn 0.0000 0.0000 1.0000
vn 0.0000 0.0000 1.0000
vn 0.0000 0.0000 1.0000
vn 0.0000 0.0000 1.0000
vn 0.0000 1.0000 0.0000
vn 0.0000 1.0000 0.0000
vn 0.0000 1.0000 0.0000
vn 0.0000 1.0000 0.0000
vn 0.0000 -1.0000 0.0000
vn 0.0000 -1.0000 0.0000
vn 0.0000 -1.0000 0.0000
vn 0.0000 -1.0000 0.0000
vn 1.0000 0.0000 0.0000
vn 1.0000 0.0000 0.0000
vn 1.0000 0.0000 0.0000
vn 1.0000 0.0000 0.0000
vn -1.0000 0.0000 0.0000
vn -1.0000 0.0000 0.0000
vn -1.0000 0.0000 0.0000
vn -1.0000 0.0000 0.0000
vn 0.0000 0.0000 -1.0000
vn 0.0000 0.0000 -1.0000
vn 0.0000 0.0000 -1.0000
vn 0.0000 0.0000 -1.0000
vn 0.0000 0.0000 1.0000
vn 0.0000 0.0000 1.0000
vn 0.0000 0.0000 1.0000
vn 0.0000 0.0000 1.0000
vn 0.0000 1.0000 0.0000
vn 0.0000 1.0000 0.0000
vn 0.0000 1.0000 0.0000
vn 0.0000 1.0000 0.0000
vn 0.0000 -1.0000 0.0000
vn 0.0000 -1.0000 0.0000
vn 0.0000 -1.0000 0.0000
vn 0.0000 -1.0000 0.0000
vn 1.0000 0.0000 0.0000
vn 1.0000 0.0000 0.0000
vn 1.0000 0.0000 0.0000
vn 1.0000 0.0000 0.0000
vn -1.0000 0.0000 0.0000
vn -1.0000 0.0000 0.0000
vn -1.0000 0.0000 0.0000
vn -1.0000 0.0000 0.0000
vn 0.0000 0.0000 -1.0000
vn 0.0000 0.0000 -1.0000
vn 0.0000 0.0000 -1.0000
vn 0.0000 0.0000 -1.0000
vn 0.0000 0.0000 1.0000
vn 0.0000 0.0000 1.0000
vn 0.0000 0.0000 1.0000
vn 0.0000 0.0000 1.0000
vn 0.0000 1.0000 0.0000
vn 0.0000 1.0000 0.0000
vn 0.0000 1.0000 0.0000
vn 0.0000 1.0000 0.0000
vn 0.0000 -1.0000 0.0000
vn 0.0000 -1.0000 0.0000
vn 0.0000 -1.0000 0.0000
vn 0.0000 -1.0000 0.0000
vn 1.0000 0.0000 0.0000
vn 1.0000 0.0000 0.0000
vn 1.0000 0.0000 0.0000
vn 1.0000 0.0000 0.0000
vn -1.0000 0.0000 0.0000
vn -1.0000 0.0000 0.0000
vn -1.0000 0.0000 0.0000
vn -1.0000 0.0000 0.0000
vn 0.0000 0.0000 -1.0000
vn 0.0000 0.0000 -1.0000
vn 0.0000 0.0000 -1.0000
vn 0.0000 0.0000 -1.0000
vn 0.0000 0.0000 1.0000
vn 0.0000 0.0000 1.0000
vn 0.0000 0.0000 1.0000
vn 0.0000 0.0000 1.0000
vn 0.0000 1.0000 0.0000
vn 0.0000 1.0000 0.0000
vn 0.0000 1.0000 0.0000
vn 0.0000 1.0000 0.0000
vn 0.0000 -1.0000 0.0000
vn 0.0000 -1.0000 0.0000
vn 0.0000 -1.0000 0.0000
vn 0.0000 -1.0000 0.0000
vn 1.0000 0.0000 0.0000
vn 1.0000 0.0000 0.0000
vn 1.0000 0.0000 0.0000
vn 1.0000 0.0000 0.0000
vn -1.0000 0.0000 0.0000
vn -1.0000 0.0000 0.0000
vn -1.0000 0.0000 0.0000
vn -1.0000 0.0000 0.0000
vn 0.0000 0.0000 -1.0000
vn 0.0000 0.0000 -1.0000
vn 0.0000 0.0000 -1.0000
vn 0.0000 0.0000 -1.0000
vn 0.0000 0.0000 1.0000
vn 0.0000 0.0000 1.0000
vn 0.0000 0.0000 1.0000
vn 0.0000 0.0000 1.0000
vn 0.0000 1.0000 0.0000
vn 0.0000 1.0000 0.0000
vn 0.0000 1.0000 0.0000
vn 0.0000 1.0000 0.0000
vn 0.0000 -1.0000 0.0000
vn 0.0000 -1.0000 0.0000
vn 0.0000 -1.0000 0.0000
vn 0.0000 -1.0000 0.0000
vn -1.0000 0.0000 0.0000
vn -1.0000 0.0000 0.0000
vn -1.0000 0.0000 0.0000
vn -1.0000 0.0000 0.0000
vn 1.0000 0.0000 0.0000
vn 1.0000 0.0000 0.0000
vn 1.0000 0.0000 0.0000
vn 1.0000 0.0000 0.0000
vn 0.8660 -0.0076 0.5000
vn 0.8660 -0.0076 0.5000
vn 0.8660 -0.0076 0.5000
vn 0.8660 -0.0076 0.5000
vn 0.0000 -0.0076 1.0000
vn 0.0000 -0.0076 1.0000
vn 0.0000 -0.0076 1.0000
vn 0.0000 -0.0076 1.0000
vn -0.8660 -0.0076 0.5000
vn -0.8660 -0.0076 0.5000
vn -0.8660 -0.0076 0.5000
vn -0.8660 -0.0076 0.5000
vn -0.8660 -0.0076 -0.5000
vn -0.8660 -0.0076 -0.5000
vn -0.8660 -0.0076 -0.5000
vn -0.8660 -0.0076 -0.5000
vn 0.0000 -0.0076 -1.0000
vn 0.0000 -0.0076 -1.0000
vn 0.0000 -0.0076 -1.0000
vn 0.0000 -0.0076 -1.0000
vn 0.8660 -0.0076 -0.5000
vn 0.8660 -0.0076 -0.5000
vn 0.8660 -0.0076 -0.5000
vn 0.8660 -0.0076 -0.5000
vn 0.0000 1.0000 0.0000
vn 0.0000 1.0000 0.0000
vn 0.0000 1.0000 0.0000
vn 0.0000 1.0000 0.0000
vn 0.0000 1.0000 0.0000
vn 0.0000 1.0000 0.0000
vn 0.0000 -1.0000 -0.0000
vn 0.0000 -1.0000 -0.0000
vn 0.0000 -1.0000 -0.0000
vn 0.0000 -1.0000 -0.0000
vn 0.0000 -1.0000 -0.0000
vn 0.0000 -1.0000 -0.0000
vn 0.7795 0.3358 -0.5288
vn 0.7795 0.3358 -0.5288
vn 0.7795 0.3358 -0.5288
vn 0.7795 0.3358 -0.5288
vn 0.1800 0.8108 -0.5570
vn 0.1800 0.8108 -0.5570
vn 0.1800 0.8108 -0.5570
vn 0.1800 0.8108 -0.5570
vn -0.5250 0.8108 -0.2589
vn -0.5250 0.8108 -0.2589
vn -0.5250 0.8108 -0.2589
vn -0.5250 0.8108 -0.2589
vn -0.9224 0.3358 0.1908
vn -0.9224 0.3358 0.1908
vn -0.9224 0.3358 0.1908
vn -0.9224 0.3358 0.1908
vn -0.7795 -0.3358 0.5288
vn -0.7795 -0.3358 0.5288
vn -0.7795 -0.3358 0.5288
vn -0.7795 -0.3358 0.5288
vn -0.1800 -0.8108 0.5570
vn -0.1800 -0.8108 0.5570
vn -0.1800 -0.8108 0.5570
vn -0.1800 -0.8108 0.5570
vn 0.5250 -0.8108 0.2589
vn 0.5250 -0.8108 0.2589
vn 0.5250 -0.8108 0.2589
vn 0.5250 -0.8108 0.2589
vn 0.9224 -0.3358 -0.1908
vn 0.9224 -0.3358 -0.1908
vn 0.9224 -0.3358 -0.1908
vn 0.9224 -0.3358 -0.1908
vn -0.3417 -0.4794 -0.8083
vn -0.3417 -0.4794 -0.8083
vn -0.3417 -0.4794 -0.8083
vn -0.3417 -0.4794 -0.8083
vn -0.3417 -0.4794 -0.8083
vn -0.3417 -0.4794 -0.8083
vn -0.3417 -0.4794 -0.8083
vn -0.3417 -0.4794 -0.8083
vn 0.3417 0.4794 0.8083
vn 0.3417 0.4794 0.8083
vn 0.3417 0.4794 0.8083
vn 0.3417 0.4794 0.8083
vn 0.3417 0.4794 0.8083
vn 0.3417 0.4794 0.8083
vn 0.3417 0.4794 0.8083
vn 0.3417 0.4794 0.8083
vn 0.7795 0.3358 -0.5288
vn 0.7795 0.3358 -0.5288
vn 0.7795 0.3358 -0.5288
vn 0.7795 0.3358 -0.5288
vn 0.1800 0.8108 -0.5570
vn 0.1800 0.8108 -0.5570
vn 0.1800 0.8108 -0.5570
vn 0.1800 0.8108 -0.5570
vn -0.5250 0.8108 -0.2589
vn -0.5250 0.8108 -0.2589
vn -0.5250 0.8108 -0.2589
vn -0.5250 0.8108 -0.2589
vn -0.9224 0.3358 0.1908
vn -0.9224 0.3358 0.1908
vn -0.9224 0.3358 0.1908
vn -0.9224 0.3358 0.1908
vn -0.7795 -0.3358 0.5288
vn -0.7795 -0.3358 0.5288
vn -0.7795 -0.3358 0.5288
vn -0.7795 -0.3358 0.5288
vn -0.1800 -0.8108 0.5570
vn -0.1800 -0.8108 0.5570
vn -0.1800 -0.8108 0.5570
vn -0.1800 -0.8108 0.5570
vn 0.5250 -0.8108 0.2589
vn 0.5250 -0.8108 0.2589
vn 0.5250 -0.8108 0.2589
vn 0.5250 -0.8108 0.2589
vn 0.9224 -0.3358 -0.1908
vn 0.9224 -0.3358 -0.1908
vn 0.9224 -0.3358 -0.1908
vn 0.9224 -0.3358 -0.1908
vn -0.3417 -0.4794 -0.8083
vn -0.3417 -0.4794 -0.8083
vn -0.3417 -0.4794 -0.8083
vn -0.3417 -0.4794 -0.8083
vn -0.3417 -0.4794 -0.8083
vn -0.3417 -0.4794 -0.8083
vn -0.3417 -0.4794 -0.8083
vn -0.3417 -0.4794 -0.8083
vn 0.3417 0.4794 0.8083
vn 0.3417 0.4794 0.8083
vn 0.3417 0.4794 0.8083
vn 0.3417 0.4794 0.8083
vn 0.3417 0.4794 0.8083
vn 0.3417 0.4794 0.8083
vn 0.3417 0.4794 0.8083
vn 0.3417 0.4794 0.8083
vn 0.7795 0.3358 -0.5288
vn 0.7795 0.3358 -0.5288
vn 0.7795 0.3358 -0.5288
vn 0.7795 0.3358 -0.5288
vn 0.1800 0.8108 -0.5570
vn 0.1800 0.8108 -0.5570
vn 0.1800 0.8108 -0.5570
vn 0.1800 0.8108 -0.5570
vn -0.5250 0.8108 -0.2589
vn -0.5250 0.8108 -0.2589
vn -0.5250 0.8108 -0.2589
vn -0.5250 0.8108 -0.2589
vn -0.9224 0.3358 0.1908
vn -0.9224 0.3358 0.1908
vn -0.9224 0.3358 0.1908
vn -0.9224 0.3358 0.1908
vn -0.7795 -0.3358 0.5288
vn -0.7795 -0.3358 0.5288
vn -0.7795 -0.3358 0.5288
vn -0.7795 -0.3358 0.5288
vn -0.1800 -0.8108 0.5570
vn -0.1800 -0.8108 0.5570
vn -0.1800 -0.8108 0.5570
vn -0.1800 -0.8108 0.5570
vn 0.5250 -0.8108 0.2589
vn 0.5250 -0.8108 0.2589
vn 0.5250 -0.8108 0.2589
vn 0.5250 -0.8108 0.2589
vn 0.9224 -0.3358 -0.1908
vn 0.9224 -0.3358 -0.1908
vn 0.9224 -0.3358 -0.1908
vn 0.9224 -0.3358 -0.1908
vn -0.3417 -0.4794 -0.8083
vn -0.3417 -0.4794 -0.8083
vn -0.3417 -0.4794 -0.8083
vn -0.3417 -0.4794 -0.8083
vn -0.3417 -0.4794 -0.8083
vn -0.3417 -0.4794 -0.8083
vn -0.3417 -0.4794 -0.8083
vn -0.3417 -0.4794 -0.8083
vn 0.3417 0.4794 0.8083
vn 0.3417 0.4794 0.8083
vn 0.3417 0.4794 0.8083
vn 0.3417 0.4794 0.8083
vn 0.3417 0.4794 0.8083
vn 0.3417 0.4794 0.8083
vn 0.3417 0.4794 0.8083
vn 0.3417 0.4794 0.8083
vn 0.9224 0.3358 0.1908
vn 0.9224 0.3358 0.1908
vn 0.9224 0.3358 0.1908
vn 0.9224 0.3358 0.1908
vn 0.5250 0.8108 -0.2589
vn 0.5250 0.8108 -0.2589
vn 0.5250 0.8108 -0.2589
vn 0.5250 0.8108 -0.2589
vn -0.1800 0.8108 -0.5570
vn -0.1800 0.8108 -0.5570
vn -0.1800 0.8108 -0.5570
vn -0.1800 0.8108 -0.5570
vn -0.7795 0.3358 -0.5288
vn -0.7795 0.3358 -0.5288
vn -0.7795 0.3358 -0.5288
vn -0.7795 0.3358 -0.5288
vn -0.9224 -0.3358 -0.1908
vn -0.9224 -0.3358 -0.1908
vn -0.9224 -0.3358 -0.1908
vn -0.9224 -0.3358 -0.1908
vn -0.5250 -0.8108 0.2589
vn -0.5250 -0.8108 0.2589
vn -0.5250 -0.8108 0.2589
vn -0.5250 -0.8108 0.2589
vn 0.1800 -0.8108 0.5570
vn 0.1800 -0.8108 0.5570
vn 0.1800 -0.8108 0.5570
vn 0.1800 -0.8108 0.5570
vn 0.7795 -0.3358 0.5288
vn 0.7795 -0.3358 0.5288
vn 0.7795 -0.3358 0.5288
vn 0.7795 -0.3358 0.5288
vn 0.3417 -0.4794 -0.8083
vn 0.3417 -0.4794 -0.8083
vn 0.3417 -0.4794 -0.8083
vn 0.3417 -0.4794 -0.8083
vn 0.3417 -0.4794 -0.8083
vn 0.3417 -0.4794 -0.8083
vn 0.3417 -0.4794 -0.8083
vn 0.3417 -0.4794 -0.8083
vn -0.3417 0.4794 0.8083
vn -0.3417 0.4794 0.8083
vn -0.3417 0.4794 0.8083
vn -0.3417 0.4794 0.8083
vn -0.3417 0.4794 0.8083
vn -0.3417 0.4794 0.8083
vn -0.3417 0.4794 0.8083
vn -0.3417 0.4794 0.8083
vn 0.9224 0.3358 0.1908
vn 0.9224 0.3358 0.1908
vn 0.9224 0.3358 0.1908
vn 0.9224 0.3358 0.1908
vn 0.5250 0.8108 -0.2589
vn 0.5250 0.8108 -0.2589
vn 0.5250 0.8108 -0.2589
vn 0.5250 0.8108 -0.2589
vn -0.1800 0.8108 -0.5570
vn -0.1800 0.8108 -0.5570
vn -0.1800 0.8108 -0.5570
vn -0.1800 0.8108 -0.5570
vn -0.7795 0.3358 -0.5288
vn -0.7795 0.3358 -0.5288
vn -0.7795 0.3358 -0.5288
vn -0.7795 0.3358 -0.5288
vn -0.9224 -0.3358 -0.1908
vn -0.9224 -0.3358 -0.1908
vn -0.9224 -0.3358 -0.1908
vn -0.9224 -0.3358 -0.1908
vn -0.5250 -0.8108 0.2589
vn -0.5250 -0.8108 0.2589
vn -0.5250 -0.8108 0.2589
vn -0.5250 -0.8108 0.2589
vn 0.1800 -0.8108 0.5570
vn 0.1800 -0.8108 0.5570
vn 0.1800 -0.8108 0.5570
vn 0.1800 -0.8108 0.5570
vn 0.7795 -0.3358 0.5288
vn 0.7795 -0.3358 0.5288
vn 0.7795 -0.3358 0.5288
vn 0.7795 -0.3358 0.5288
vn 0.3417 -0.4794 -0.8083
vn 0.3417 -0.4794 -0.8083
vn 0.3417 -0.4794 -0.8083
vn 0.3417 -0.4794 -0.8083
vn 0.3417 -0.4794 -0.8083
vn 0.3417 -0.4794 -0.8083
vn 0.3417 -0.4794 -0.8083
vn 0.3417 -0.4794 -0.8083
vn -0.3417 0.4794 0.8083
vn -0.3417 0.4794 0.8083
vn -0.3417 0.4794 0.8083
vn -0.3417 0.4794 0.8083
vn -0.3417 0.4794 0.8083
vn -0.3417 0.4794 0.8083
vn -0.3417 0.4794 0.8083
vn -0.3417 0.4794 0.8083
vn 0.9224 0.3358 0.1908
vn 0.9224 0.3358 0.1908
vn 0.9224 0.3358 0.1908
vn 0.9224 0.3358 0.1908
vn 0.5250 0.8108 -0.2589
vn 0.5250 0.8108 -0.2589
vn 0.5250 0.8108 -0.2589
vn 0.5250 0.8108 -0.2589
vn -0.1800 0.8108 -0.5570
vn -0.1800 0.8108 -0.5570
vn -0.1800 0.8108 -0.5570
vn -0.1800 0.8108 -0.5570
vn -0.7795 0.3358 -0.5288
vn -0.7795 0.3358 -0.5288
vn -0.7795 0.3358 -0.5288
vn -0.7795 0.3358 -0.5288
vn -0.9224 -0.3358 -0.1908
vn -0.9224 -0.3358 -0.1908
vn -0.9224 -0.3358 -0.1908
vn -0.9224 -0.3358 -0.1908
vn -0.5250 -0.8108 0.2589
vn -0.5250 -0.8108 0.2589
vn -0.5250 -0.8108 0.2589
vn -0.5250 -0.8108 0.2589
vn 0.1800 -0.8108 0.5570
vn 0.1800 -0.8108 0.5570
vn 0.1800 -0.8108 0.5570
vn 0.1800 -0.8108 0.5570
vn 0.7795 -0.3358 0.5288
vn 0.7795 -0.3358 0.5288
vn 0.7795 -0.3358 0.5288
vn 0.7795 -0.3358 0.5288
vn 0.3417 -0.4794 -0.8083
vn 0.3417 -0.4794 -0.8083
vn 0.3417 -0.4794 -0.8083
vn 0.3417 -0.4794 -0.8083
vn 0.3417 -0.4794 -0.8083
vn 0.3417 -0.4794 -0.8083
vn 0.3417 -0.4794 -0.8083
vn 0.3417 -0.4794 -0.8083
vn -0.3417 0.4794 0.8083
vn -0.3417 0.4794 0.8083
vn -0.3417 0.4794 0.8083
vn -0.3417 0.4794 0.8083
vn -0.3417 0.4794 0.8083
vn -0.3417 0.4794 0.8083
vn -0.3417 0.4794 0.8083
vn -0.3417 0.4794 0.8083
usemtl TF_Vehicles
f 1/1/1 2/2/2 3/3/3
f 1/1/1 3/3/3 4/4/4
f 5/5/5 6/6/6 7/7/7
f 5/5/5 7/7/7 8/8/8
f 9/9/9 10/10/10 11/11/11
f 9/9/9 11/11/11 12/12/12
f 13/13/13 14/14/14 15/15/15
f 13/13/13 15/15/15 16/16/16
f 17/17/17 18/18/18 19/19/19
f 17/17/17 19/19/19 20/20/20
f 21/21/21 22/22/22 23/23/23
f 21/21/21 23/23/23 24/24/24
f 25/25/25 26/26/26 27/27/27
f 25/25/25 27/27/27 28/28/28
f 29/29/29 30/30/30 31/31/31
f 29/29/29 31/31/31 32/32/32
f 33/33/33 34/34/34 35/35/35
f 33/33/33 35/35/35 36/36/36
f 37/37/37 38/38/38 39/39/39
f 37/37/37 39/39/39 40/40/40
f 41/41/41 42/42/42 43/43/43
f 41/41/41 43/43/43 44/44/44
f 45/45/45 46/46/46 47/47/47
f 45/45/45 47/47/47 48/48/48
f 49/49/49 50/50/50 51/51/51
f 49/49/49 51/51/51 52/52/52
f 53/53/53 54/54/54 55/55/55
f 53/53/53 55/55/55 56/56/56
f 57/57/57 58/58/58 59/59/59
f 57/57/57 59/59/59 60/60/60
f 61/61/61 62/62/62 63/63/63
f 61/61/61 63/63/63 64/64/64
f 65/65/65 66/66/66 67/67/67
f 65/65/65 67/67/67 68/68/68
f 69/69/69 70/70/70 71/71/71
f 69/69/69 71/71/71 72/72/72
f 73/73/73 74/74/74 75/75/75
f 73/73/73 75/75/75 76/76/76
f 77/77/77 78/78/78 79/79/79
f 77/77/77 79/79/79 80/80/80
f 81/81/81 82/82/82 83/83/83
f 81/81/81 83/83/83 84/84/84
f 85/85/85 86/86/86 87/87/87
f 85/85/85 87/87/87 88/88/88
f 89/89/89 90/90/90 91/91/91
f 89/89/89 91/91/91 92/92/92
f 93/93/93 94/94/94 95/95/95
f 93/93/93 95/95/95 96/96/96
f 97/97/97 98/98/98 99/99/99
f 97/97/97 99/99/99 100/100/100
f 101/101/101 102/102/102 103/103/103
f 101/101/101 103/103/103 104/104/104
f 105/105/105 106/106/106 107/107/107
f 105/105/105 107/107/107 108/108/108
f 109/109/109 110/110/110 111/111/111
f 109/109/109 111/111/111 112/112/112
f 113/113/113 114/114/114 115/115/115
f 113/113/113 115/115/115 116/116/116
f 117/117/117 118/118/118 119/119/119
f 117/117/117 119/119/119 120/120/120
f 121/121/121 122/122/122 123/123/123
f 121/121/121 123/123/123 124/124/124
f 125/125/125 126/126/126 127/127/127
f 125/125/125 127/127/127 128/128/128
f 129/129/129 130/130/130 131/131/131
f 129/129/129 131/131/131 132/132/132
f 133/133/133 134/134/134 135/135/135
f 133/133/133 135/135/135 136/136/136
f 137/137/137 138/138/138 139/139/139
f 137/137/137 139/139/139 140/140/140
f 141/141/141 142/142/142 143/143/143
f 141/141/141 143/143/143 144/144/144
f 145/145/145 146/146/146 147/147/147
f 145/145/145 147/147/147 148/148/148
f 149/149/149 150/150/150 151/151/151
f 149/149/149 151/151/151 152/152/152
f 153/153/153 154/154/154 155/155/155
f 153/153/153 155/155/155 156/156/156
f 157/157/157 158/158/158 159/159/159
f 157/157/157 159/159/159 160/160/160
f 161/161/161 162/162/162 163/163/163
f 161/161/161 163/163/163 164/164/164
f 165/165/165 166/166/166 167/167/167
f 165/165/165 167/167/167 168/168/168
f 169/169/169 170/170/170 171/171/171
f 169/169/169 171/171/171 172/172/172
f 173/173/173 174/174/174 175/175/175
f 173/173/173 175/175/175 176/176/176
f 177/177/177 178/178/178 179/179/179
f 177/177/177 179/179/179 180/180/180
f 181/181/181 182/182/182 183/183/183
f 181/181/181 183/183/183 184/184/184
f 185/185/185 186/186/186 187/187/187
f 185/185/185 187/187/187 188/188/188
f 189/189/189 190/190/190 191/191/191
f 189/189/189 191/191/191 192/192/192
f 193/193/193 194/194/194 195/195/195
f 193/193/193 195/195/195 196/196/196
f 193/193/193 196/196/196 197/197/197
f 193/193/193 197/197/197 198/198/198
f 193/193/193 198/198/198 199/199/199
f 193/193/193 199/199/199 200/200/200
f 193/193/193 200/200/200 201/201/201
f 193/193/193 201/201/201 202/202/202
f 193/193/193 202/202/202 203/203/203
f 193/193/193 203/203/203 204/204/204
f 193/193/193 204/204/204 205/205/205
f 193/193/193 205/205/205 206/206/206
f 193/193/193 206/206/206 207/207/207
f 193/193/193 207/207/207 208/208/208
f 209/209/209 210/210/210 211/211/211
f 209/209/209 211/211/211 212/212/212
f 209/209/209 212/212/212 213/213/213
f 209/209/209 213/213/213 214/214/214
f 209/209/209 214/214/214 215/215/215
f 209/209/209 215/215/215 216/216/216
f 209/209/209 216/216/216 217/217/217
f 209/209/209 217/217/217 218/218/218
f 209/209/209 218/218/218 219/219/219
f 209/209/209 219/219/219 220/220/220
f 209/209/209 220/220/220 221/221/221
f 209/209/209 221/221/221 222/222/222
f 209/209/209 222/222/222 223/223/223
f 209/209/209 223/223/223 224/224/224
f 225/225/225 226/226/226 227/227/227
f 225/225/225 227/227/227 228/228/228
f 229/229/229 230/230/230 231/231/231
f 229/229/229 231/231/231 232/232/232
f 233/233/233 234/234/234 235/235/235
f 233/233/233 235/235/235 236/236/236
f 237/237/237 238/238/238 239/239/239
f 237/237/237 239/239/239 240/240/240
f 241/241/241 242/242/242 243/243/243
f 241/241/241 243/243/243 244/244/244
f 245/245/245 246/246/246 247/247/247
f 245/245/245 247/247/247 248/248/248
f 249/249/249 250/250/250 251/251/251
f 249/249/249 251/251/251 252/252/252
f 253/253/253 254/254/254 255/255/255
f 253/253/253 255/255/255 256/256/256
f 257/257/257 258/258/258 259/259/259
f 257/257/257 259/259/259 260/260/260
f 261/261/261 262/262/262 263/263/263
f 261/261/261 263/263/263 264/264/264
f 265/265/265 266/266/266 267/267/267
f 265/265/265 267/267/267 268/268/268
f 269/269/269 270/270/270 271/271/271
f 269/269/269 271/271/271 272/272/272
f 273/273/273 274/274/274 275/275/275
f 273/273/273 275/275/275 276/276/276
f 277/277/277 278/278/278 279/279/279
f 277/277/277 279/279/279 280/280/280
f 281/281/281 282/282/282 283/283/283
f 281/281/281 283/283/283 284/284/284
f 285/285/285 286/286/286 287/287/287
f 285/285/285 287/287/287 288/288/288
f 289/289/289 290/290/290 291/291/291
f 289/289/289 291/291/291 292/292/292
f 293/293/293 294/294/294 295/295/295
f 293/293/293 295/295/295 296/296/296
f 297/297/297 298/298/298 299/299/299
f 297/297/297 299/299/299 300/300/300
f 301/301/301 302/302/302 303/303/303
f 301/301/301 303/303/303 304/304/304
f 305/305/305 306/306/306 307/307/307
f 305/305/305 307/307/307 308/308/308
f 309/309/309 310/310/310 311/311/311
f 309/309/309 311/311/311 312/312/312
f 313/313/313 314/314/314 315/315/315
f 313/313/313 315/315/315 316/316/316
f 317/317/317 318/318/318 319/319/319
f 317/317/317 319/319/319 320/320/320
f 321/321/321 322/322/322 323/323/323
f 324/324/324 325/325/325 326/326/326
f 327/327/327 328/328/328 329/329/329
f 330/330/330 331/331/331 332/332/332
f 333/333/333 334/334/334 335/335/335
f 336/336/336 337/337/337 338/338/338
f 339/339/339 340/340/340 341/341/341
f 342/342/342 343/343/343 344/344/344
f 345/345/345 346/346/346 347/347/347
f 345/345/345 347/347/347 348/348/348
f 349/349/349 350/350/350 351/351/351
f 349/349/349 351/351/351 352/352/352
f 353/353/353 354/354/354 355/355/355
f 353/353/353 355/355/355 356/356/356
f 357/357/357 358/358/358 359/359/359
f 357/357/357 359/359/359 360/360/360
f 361/361/361 362/362/362 363/363/363
f 361/361/361 363/363/363 364/364/364
f 365/365/365 366/366/366 367/367/367
f 365/365/365 367/367/367 368/368/368
f 369/369/369 370/370/370 371/371/371
f 369/369/369 371/371/371 372/372/372
f 373/373/373 374/374/374 375/375/375
f 373/373/373 375/375/375 376/376/376
f 377/377/377 378/378/378 379/379/379
f 377/377/377 379/379/379 380/380/380
f 381/381/381 382/382/382 383/383/383
f 381/381/381 383/383/383 384/384/384
f 385/385/385 386/386/386 387/387/387
f 385/385/385 387/387/387 388/388/388
f 389/389/389 390/390/390 391/391/391
f 389/389/389 391/391/391 392/392/392
f 393/393/393 394/394/394 395/395/395
f 393/393/393 395/395/395 396/396/396
f 397/397/397 398/398/398 399/399/399
f 397/397/397 399/399/399 400/400/400
f 401/401/401 402/402/402 403/403/403
f 401/401/401 403/403/403 404/404/404
f 405/405/405 406/406/406 407/407/407
f 405/405/405 407/407/407 408/408/408
f 409/409/409 410/410/410 411/411/411
f 409/409/409 411/411/411 412/412/412
f 413/413/413 414/414/414 415/415/415
f 413/413/413 415/415/415 416/416/416
f 417/417/417 418/418/418 419/419/419
f 417/417/417 419/419/419 420/420/420
f 421/421/421 422/422/422 423/423/423
f 421/421/421 423/423/423 424/424/424
f 425/425/425 426/426/426 427/427/427
f 425/425/425 427/427/427 428/428/428
f 429/429/429 430/430/430 431/431/431
f 429/429/429 431/431/431 432/432/432
f 433/433/433 434/434/434 435/435/435
f 433/433/433 435/435/435 436/436/436
f 437/437/437 438/438/438 439/439/439
f 437/437/437 439/439/439 440/440/440
f 441/441/441 442/442/442 443/443/443
f 441/441/441 443/443/443 444/444/444
f 445/445/445 446/446/446 447/447/447
f 445/445/445 447/447/447 448/448/448
f 449/449/449 450/450/450 451/451/451
f 449/449/449 451/451/451 452/452/452
f 453/453/453 454/454/454 455/455/455
f 453/453/453 455/455/455 456/456/456
f 457/457/457 458/458/458 459/459/459
f 457/457/457 459/459/459 460/460/460
f 461/461/461 462/462/462 463/463/463
f 461/461/461 463/463/463 464/464/464
f 465/465/465 466/466/466 467/467/467
f 465/465/465 467/467/467 468/468/468
f 469/469/469 470/470/470 471/471/471
f 469/469/469 471/471/471 472/472/472
f 473/473/473 474/474/474 475/475/475
f 473/473/473 475/475/475 476/476/476
f 477/477/477 478/478/478 479/479/479
f 477/477/477 479/479/479 480/480/480
f 481/481/481 482/482/482 483/483/483
f 481/481/481 483/483/483 484/484/484
f 485/485/485 486/486/486 487/487/487
f 485/485/485 487/487/487 488/488/488
f 489/489/489 490/490/490 491/491/491
f 489/489/489 491/491/491 492/492/492
f 489/489/489 492/492/492 493/493/493
f 489/489/489 493/493/493 494/494/494
f 495/495/495 496/496/496 497/497/497
f 495/495/495 497/497/497 498/498/498
f 495/495/495 498/498/498 499/499/499
f 495/495/495 499/499/499 500/500/500
f 501/501/501 502/502/502 503/503/503
f 501/501/501 503/503/503 504/504/504
f 505/505/505 506/506/506 507/507/507
f 505/505/505 507/507/507 508/508/508
f 509/509/509 510/510/510 511/511/511
f 509/509/509 511/511/511 512/512/512
f 513/513/513 514/514/514 515/515/515
f 513/513/513 515/515/515 516/516/516
f 517/517/517 518/518/518 519/519/519
f 517/517/517 519/519/519 520/520/520
f 521/521/521 522/522/522 523/523/523
f 521/521/521 523/523/523 524/524/524
f 525/525/525 526/526/526 527/527/527
f 525/525/525 527/527/527 528/528/528
f 529/529/529 530/530/530 531/531/531
f 529/529/529 531/531/531 532/532/532
f 533/533/533 534/534/534 535/535/535
f 533/533/533 535/535/535 536/536/536
f 533/533/533 536/536/536 537/537/537
f 533/533/533 537/537/537 538/538/538
f 533/533/533 538/538/538 539/539/539
f 533/533/533 539/539/539 540/540/540
f 541/541/541 542/542/542 543/543/543
f 541/541/541 543/543/543 544/544/544
f 541/541/541 544/544/544 545/545/545
f 541/541/541 545/545/545 546/546/546
f 541/541/541 546/546/546 547/547/547
f 541/541/541 547/547/547 548/548/548
f 549/549/549 550/550/550 551/551/551
f 549/549/549 551/551/551 552/552/552
f 553/553/553 554/554/554 555/555/555
f 553/553/553 555/555/555 556/556/556
f 557/557/557 558/558/558 559/559/559
f 557/557/557 559/559/559 560/560/560
f 561/561/561 562/562/562 563/563/563
f 561/561/561 563/563/563 564/564/564
f 565/565/565 566/566/566 567/567/567
f 565/565/565 567/567/567 568/568/568
f 569/569/569 570/570/570 571/571/571
f 569/569/569 571/571/571 572/572/572
f 573/573/573 574/574/574 575/575/575
f 573/573/573 575/575/575 576/576/576
f 577/577/577 578/578/578 579/579/579
f 577/577/577 579/579/579 580/580/580
f 581/581/581 582/582/582 583/583/583
f 581/581/581 583/583/583 584/584/584
f 581/581/581 584/584/584 585/585/585
f 581/581/581 585/585/585 586/586/586
f 581/581/581 586/586/586 587/587/587
f 581/581/581 587/587/587 588/588/588
f 589/589/589 590/590/590 591/591/591
f 589/589/589 591/591/591 592/592/592
f 589/589/589 592/592/592 593/593/593
f 589/589/589 593/593/593 594/594/594
f 589/589/589 594/594/594 595/595/595
f 589/589/589 595/595/595 596/596/596
f 597/597/597 598/598/598 599/599/599
f 597/597/597 599/599/599 600/600/600
f 601/601/601 602/602/602 603/603/603
f 601/601/601 603/603/603 604/604/604
f 605/605/605 606/606/606 607/607/607
f 605/605/605 607/607/607 608/608/608
f 609/609/609 610/610/610 611/611/611
f 609/609/609 611/611/611 612/612/612
f 613/613/613 614/614/614 615/615/615
f 613/613/613 615/615/615 616/616/616
f 617/617/617 618/618/618 619/619/619
f 617/617/617 619/619/619 620/620/620
f 621/621/621 622/622/622 623/623/623
f 621/621/621 623/623/623 624/624/624
f 625/625/625 626/626/626 627/627/627
f 625/625/625 627/627/627 628/628/628
f 629/629/629 630/630/630 631/631/631
f 629/629/629 631/631/631 632/632/632
f 629/629/629 632/632/632 633/633/633
f 629/629/629 633/633/633 634/634/634
f 629/629/629 634/634/634 635/635/635
f 629/629/629 635/635/635 636/636/636
f 637/637/637 638/638/638 639/639/639
f 637/637/637 639/639/639 640/640/640
f 637/637/637 640/640/640 641/641/641
f 637/637/637 641/641/641 642/642/642
f 637/637/637 642/642/642 643/643/643
f 637/637/637 643/643/643 644/644/644
f 645/645/645 646/646/646 647/647/647
f 645/645/645 647/647/647 648/648/648
f 649/649/649 650/650/650 651/651/651
f 649/649/649 651/651/651 652/652/652
f 653/653/653 654/654/654 655/655/655
f 653/653/653 655/655/655 656/656/656
f 657/657/657 658/658/658 659/659/659
f 657/657/657 659/659/659 660/660/660
f 661/661/661 662/662/662 663/663/663
f 661/661/661 663/663/663 664/664/664
f 665/665/665 666/666/666 667/667/667
f 665/665/665 667/667/667 668/668/668
f 669/669/669 670/670/670 671/671/671
f 669/669/669 671/671/671 672/672/672
f 673/673/673 674/674/674 675/675/675
f 673/673/673 675/675/675 676/676/676
f 677/677/677 678/678/678 679/679/679
f 677/677/677 679/679/679 680/680/680
f 677/677/677 680/680/680 681/681/681
f 677/677/677 681/681/681 682/682/682
f 677/677/677 682/682/682 683/683/683
f 677/677/677 683/683/683 684/684/684
f 685/685/685 686/686/686 687/687/687
f 685/685/685 687/687/687 688/688/688
f 685/685/685 688/688/688 689/689/689
f 685/685/685 689/689/689 690/690/690
f 685/685/685 690/690/690 691/691/691
f 685/685/685 691/691/691 692/692/692
f 693/693/693 694/694/694 695/695/695
f 693/693/693 695/695/695 696/696/696
f 697/697/697 698/698/698 699/699/699
f 697/697/697 699/699/699 700/700/700
f 701/701/701 702/702/702 703/703/703
f 701/701/701 703/703/703 704/704/704
f 705/705/705 706/706/706 707/707/707
f 705/705/705 707/707/707 708/708/708
f 709/709/709 710/710/710 711/711/711
f 709/709/709 711/711/711 712/712/712
f 713/713/713 714/714/714 715/715/715
f 713/713/713 715/715/715 716/716/716
f 717/717/717 718/718/718 719/719/719
f 717/717/717 719/719/719 720/720/720
f 721/721/721 722/722/722 723/723/723
f 721/721/721 723/723/723 724/724/724
f 725/725/725 726/726/726 727/727/727
f 725/725/725 727/727/727 728/728/728
f 725/725/725 728/728/728 729/729/729
f 725/725/725 729/729/729 730/730/730
f 725/725/725 730/730/730 731/731/731
f 725/725/725 731/731/731 732/732/732
f 733/733/733 734/734/734 735/735/735
f 733/733/733 735/735/735 736/736/736
f 733/733/733 736/736/736 737/737/737
f 733/733/733 737/737/737 738/738/738
f 733/733/733 738/738/738 739/739/739
f 733/733/733 739/739/739 740/740/740
f 741/741/741 742/742/742 743/743/743
f 741/741/741 743/743/743 744/744/744
f 745/745/745 746/746/746 747/747/747
f 745/745/745 747/747/747 748/748/748
f 749/749/749 750/750/750 751/751/751
f 749/749/749 751/751/751 752/752/752
f 753/753/753 754/754/754 755/755/755
f 753/753/753 755/755/755 756/756/756
f 757/757/757 758/758/758 759/759/759
f 757/757/757 759/759/759 760/760/760
f 761/761/761 762/762/762 763/763/763
f 761/761/761 763/763/763 764/764/764
f 765/765/765 766/766/766 767/767/767
f 765/765/765 767/767/767 768/768/768
f 769/769/769 770/770/770 771/771/771
f 769/769/769 771/771/771 772/772/772
f 773/773/773 774/774/774 775/775/775
f 773/773/773 775/775/775 776/776/776
f 773/773/773 776/776/776 777/777/777
f 773/773/773 777/777/777 778/778/778
f 773/773/773 778/778/778 779/779/779
f 773/773/773 779/779/779 780/780/780
f 781/781/781 782/782/782 783/783/783
f 781/781/781 783/783/783 784/784/784
f 781/781/781 784/784/784 785/785/785
f 781/781/781 785/785/785 786/786/786
f 781/781/781 786/786/786 787/787/787
f 781/781/781 787/787/787 788/788/788
