# Blender 5.2.0 LTS
# www.blender.org
mtllib ancient_waystone_marker_collision.mtl
g ow_waystone_collision_Cylinder.097
v 0.000000 0.000000 0.640000
v 0.000000 2.200000 0.640000
v -0.452548 0.000000 0.452548
v -0.452548 2.200000 0.452548
v -0.640000 0.000000 0.000000
v -0.640000 2.200000 0.000000
v -0.452548 0.000000 -0.452548
v -0.452548 2.200000 -0.452548
v 0.000000 0.000000 -0.640000
v 0.000000 2.200000 -0.640000
v 0.452548 0.000000 -0.452548
v 0.452548 2.200000 -0.452548
v 0.640000 0.000000 0.000000
v 0.640000 2.200000 0.000000
v 0.452548 0.000000 0.452548
v 0.452548 2.200000 0.452548
vn -0.3827 -0.0000 0.9239
vn -0.9239 -0.0000 0.3827
vn -0.9239 -0.0000 -0.3827
vn -0.3827 -0.0000 -0.9239
vn 0.3827 -0.0000 -0.9239
vn 0.9239 -0.0000 -0.3827
vn -0.0000 1.0000 -0.0000
vn 0.9239 -0.0000 0.3827
vn 0.3827 -0.0000 0.9239
vn -0.0000 -1.0000 -0.0000
vt 0.00000 0.50000
vt 0.00000 1.00000
vt 0.01000 0.25000
vt 0.08029 0.08029
vt 0.08029 0.41971
vt 0.12500 0.50000
vt 0.12500 1.00000
vt 0.25000 0.01000
vt 0.25000 0.49000
vt 0.25000 0.50000
vt 0.25000 1.00000
vt 0.37500 0.50000
vt 0.37500 1.00000
vt 0.41971 0.08029
vt 0.41971 0.41971
vt 0.49000 0.25000
vt 0.50000 0.50000
vt 0.50000 1.00000
vt 0.51000 0.25000
vt 0.58029 0.08029
vt 0.58029 0.41971
vt 0.62500 0.50000
vt 0.62500 1.00000
vt 0.75000 0.01000
vt 0.75000 0.49000
vt 0.75000 0.50000
vt 0.75000 1.00000
vt 0.87500 0.50000
vt 0.87500 1.00000
vt 0.91971 0.08029
vt 0.91971 0.41971
vt 0.99000 0.25000
vt 1.00000 0.50000
vt 1.00000 1.00000
s 0
g ow_waystone_collision_M_white
usemtl M_white
f 10/18/5 11/12/5 9/17/5
f 10/18/5 12/13/5 11/12/5
f 10/8/7 8/14/7 6/16/7
f 11/20/10 13/19/10 15/21/10
f 12/13/6 13/10/6 11/12/6
f 12/13/6 14/11/6 13/10/6
f 14/11/8 15/6/8 13/10/8
f 14/11/8 16/7/8 15/6/8
f 14/3/7 10/8/7 6/16/7
f 14/3/7 12/4/7 10/8/7
f 15/21/10 1/25/10 3/31/10
f 15/21/10 3/31/10 7/30/10
f 16/7/9 1/1/9 15/6/9
f 16/7/9 2/2/9 1/1/9
f 2/34/1 3/28/1 1/33/1
f 2/34/1 4/29/1 3/28/1
f 2/9/7 16/5/7 14/3/7
f 3/31/10 5/32/10 7/30/10
f 4/29/2 5/26/2 3/28/2
f 4/29/2 6/27/2 5/26/2
f 6/16/7 2/9/7 14/3/7
f 6/16/7 4/15/7 2/9/7
f 6/27/3 7/22/3 5/26/3
f 6/27/3 8/23/3 7/22/3
f 7/30/10 11/20/10 15/21/10
f 7/30/10 9/24/10 11/20/10
f 8/23/4 10/18/4 9/17/4
f 8/23/4 9/17/4 7/22/4
