# Blender 5.2.0 LTS
# www.blender.org
mtllib ranger_wayfinding_cairn_collision.mtl
g ow_cairn_collision_rocks_Cylinder.104
v 0.000000 0.000000 0.560000
v 0.000000 1.300000 0.560000
v -0.395980 0.000000 0.395980
v -0.395980 1.300000 0.395980
v -0.560000 0.000000 0.000000
v -0.560000 1.300000 0.000000
v -0.395980 0.000000 -0.395980
v -0.395980 1.300000 -0.395980
v 0.000000 0.000000 -0.560000
v 0.000000 1.300000 -0.560000
v 0.395980 0.000000 -0.395980
v 0.395980 1.300000 -0.395980
v 0.560000 0.000000 0.000000
v 0.560000 1.300000 0.000000
v 0.395980 0.000000 0.395980
v 0.395980 1.300000 0.395980
vn -0.3827 -0.0000 0.9239
vn -0.9239 -0.0000 0.3827
vn -0.9239 -0.0000 -0.3827
vn -0.3827 -0.0000 -0.9239
vn 0.3827 -0.0000 -0.9239
vn 0.9239 -0.0000 -0.3827
vn -0.0000 1.0000 -0.0000
vn 0.9239 -0.0000 0.3827
vn 0.3827 -0.0000 0.9239
vn -0.0000 -1.0000 -0.0000
vt 0.00000 0.50000
vt 0.00000 1.00000
vt 0.01000 0.25000
vt 0.08029 0.08029
vt 0.08029 0.41971
vt 0.12500 0.50000
vt 0.12500 0.75000
vt 0.12500 1.00000
vt 0.25000 0.01000
vt 0.25000 0.49000
vt 0.25000 0.50000
vt 0.25000 1.00000
vt 0.37500 0.00000
vt 0.37500 0.25000
vt 0.37500 0.50000
vt 0.37500 0.75000
vt 0.37500 1.00000
vt 0.41971 0.08029
vt 0.41971 0.41971
vt 0.49000 0.25000
vt 0.50000 0.50000
vt 0.50000 1.00000
vt 0.51000 0.25000
vt 0.58029 0.08029
vt 0.58029 0.41971
vt 0.62500 0.00000
vt 0.62500 0.25000
vt 0.62500 0.50000
vt 0.62500 0.75000
vt 0.62500 1.00000
vt 0.75000 0.01000
vt 0.75000 0.49000
vt 0.75000 0.50000
vt 0.75000 1.00000
vt 0.87500 0.50000
vt 0.87500 0.75000
vt 0.87500 1.00000
vt 0.91971 0.08029
vt 0.91971 0.41971
vt 0.99000 0.25000
vt 1.00000 0.50000
vt 1.00000 1.00000
s 0
g ow_cairn_collision_rocks_M_white
usemtl M_white
f 10/22/5 11/15/5 9/21/5
f 10/22/5 12/17/5 11/15/5
f 10/9/7 8/18/7 6/20/7
f 11/24/10 13/23/10 15/25/10
f 12/17/6 13/11/6 11/15/6
f 12/17/6 14/12/6 13/11/6
f 14/12/8 15/6/8 13/11/8
f 14/12/8 16/8/8 15/6/8
f 14/3/7 10/9/7 6/20/7
f 14/3/7 12/4/7 10/9/7
f 15/25/10 1/32/10 3/39/10
f 15/25/10 3/39/10 7/38/10
f 16/8/9 1/1/9 15/6/9
f 16/8/9 2/2/9 1/1/9
f 2/10/7 16/5/7 14/3/7
f 2/42/1 3/35/1 1/41/1
f 2/42/1 4/37/1 3/35/1
f 3/39/10 5/40/10 7/38/10
f 4/37/2 5/33/2 3/35/2
f 4/37/2 6/34/2 5/33/2
f 6/20/7 2/10/7 14/3/7
f 6/20/7 4/19/7 2/10/7
f 6/34/3 7/28/3 5/33/3
f 6/34/3 8/30/3 7/28/3
f 7/38/10 11/24/10 15/25/10
f 7/38/10 9/31/10 11/24/10
f 8/30/4 10/22/4 9/21/4
f 8/30/4 9/21/4 7/28/4
g ow_cairn_collision_sign_Cube.206
v -0.070000 0.000000 -0.120000
v -0.070000 1.550000 -0.120000
v -0.070000 0.000000 0.120000
v -0.070000 1.550000 0.120000
v -1.170000 0.000000 -0.120000
v -1.170000 1.550000 -0.120000
v -1.170000 0.000000 0.120000
v -1.170000 1.550000 0.120000
vn 1.0000 -0.0000 -0.0000
vn -0.0000 -0.0000 1.0000
vn -1.0000 -0.0000 -0.0000
vn -0.0000 -0.0000 -1.0000
vn -0.0000 -1.0000 -0.0000
vn -0.0000 1.0000 -0.0000
s 0
g ow_cairn_collision_sign_M_white
usemtl M_white
f 18/26/11 19/14/11 17/13/11
f 18/26/11 20/27/11 19/14/11
f 20/27/12 23/15/12 19/14/12
f 20/27/12 24/28/12 23/15/12
f 20/35/16 18/36/16 22/29/16
f 20/35/16 22/29/16 24/28/16
f 22/29/14 17/17/14 21/16/14
f 22/29/14 18/30/14 17/17/14
f 23/15/15 17/7/15 19/6/15
f 23/15/15 21/16/15 17/7/15
f 24/28/13 21/16/13 23/15/13
f 24/28/13 22/29/13 21/16/13
