# Blender 5.2.0 LTS
# www.blender.org
mtllib ranger_wayfinding_cairn.mtl
g ow_cairn_rock_0_Sphere.036
v 0.000000 0.597600 0.000000
v 0.000000 0.002400 0.000000
v -0.183389 0.557729 0.184456
v -0.317639 0.448800 0.319487
v -0.366778 0.300000 0.368912
v -0.317639 0.151200 0.319487
v -0.183389 0.042271 0.184456
v -0.296730 0.557729 0.070456
v -0.513951 0.448800 0.122033
v -0.593459 0.300000 0.140912
v -0.513951 0.151200 0.122033
v -0.296730 0.042271 0.070456
v -0.296730 0.557729 -0.070456
v -0.513951 0.448800 -0.122033
v -0.593459 0.300000 -0.140912
v -0.513951 0.151200 -0.122033
v -0.296730 0.042271 -0.070456
v -0.183389 0.557729 -0.184456
v -0.317639 0.448800 -0.319487
v -0.366778 0.300000 -0.368912
v -0.317639 0.151200 -0.319487
v -0.183389 0.042271 -0.184456
v -0.000000 0.557729 -0.228000
v 0.000000 0.448800 -0.394908
v -0.000000 0.300000 -0.456000
v 0.000000 0.151200 -0.394908
v -0.000000 0.042271 -0.228000
v 0.183389 0.557729 -0.184456
v 0.317639 0.448800 -0.319487
v 0.366778 0.300000 -0.368912
v 0.317639 0.151200 -0.319487
v 0.183389 0.042271 -0.184456
v 0.296730 0.557729 -0.070456
v 0.513951 0.448800 -0.122033
v 0.593459 0.300000 -0.140912
v 0.513951 0.151200 -0.122033
v 0.296730 0.042271 -0.070456
v 0.296730 0.557729 0.070456
v 0.513951 0.448800 0.122033
v 0.593459 0.300000 0.140912
v 0.513951 0.151200 0.122033
v 0.296730 0.042271 0.070456
v 0.183389 0.557729 0.184456
v 0.317639 0.448800 0.319487
v 0.366778 0.300000 0.368912
v 0.317639 0.151200 0.319487
v 0.183389 0.042271 0.184456
v 0.000000 0.557729 0.228000
v 0.000000 0.448800 0.394908
v 0.000000 0.300000 0.456000
v 0.000000 0.151200 0.394908
v 0.000000 0.042271 0.228000
vn -0.0000 1.0000 -0.0000
vn -0.0000 -1.0000 -0.0000
vn -0.1697 0.9284 0.3306
vn -0.3716 0.6417 0.6709
vn -0.5044 -0.0000 0.8634
vn -0.3716 -0.6417 0.6709
vn -0.1697 -0.9284 0.3306
vn -0.2991 0.9443 0.1371
vn -0.6709 0.6850 0.2840
vn -0.9303 -0.0000 0.3667
vn -0.6709 -0.6850 0.2840
vn -0.2991 -0.9443 0.1371
vn -0.2991 0.9443 -0.1371
vn -0.6709 0.6850 -0.2840
vn -0.9303 -0.0000 -0.3667
vn -0.6709 -0.6850 -0.2840
vn -0.2991 -0.9443 -0.1371
vn -0.1697 0.9284 -0.3306
vn -0.3716 0.6417 -0.6709
vn -0.5044 -0.0000 -0.8634
vn -0.3716 -0.6417 -0.6709
vn -0.1697 -0.9284 -0.3306
vn -0.0000 0.9199 -0.3921
vn -0.0000 0.6167 -0.7872
vn -0.0000 -0.0000 -1.0000
vn -0.0000 -0.6167 -0.7872
vn -0.0000 -0.9199 -0.3921
vn 0.1697 0.9284 -0.3306
vn 0.3716 0.6417 -0.6709
vn 0.5044 -0.0000 -0.8634
vn 0.3716 -0.6417 -0.6709
vn 0.1697 -0.9284 -0.3306
vn 0.2991 0.9443 -0.1371
vn 0.6709 0.6850 -0.2840
vn 0.9303 -0.0000 -0.3667
vn 0.6709 -0.6850 -0.2840
vn 0.2991 -0.9443 -0.1371
vn 0.2991 0.9443 0.1371
vn 0.6709 0.6850 0.2840
vn 0.9303 -0.0000 0.3667
vn 0.6709 -0.6850 0.2840
vn 0.2991 -0.9443 0.1371
vn 0.1697 0.9284 0.3306
vn 0.3716 0.6417 0.6709
vn 0.5044 -0.0000 0.8634
vn 0.3716 -0.6417 0.6709
vn 0.1697 -0.9284 0.3306
vn -0.0000 0.9199 0.3921
vn -0.0000 0.6167 0.7872
vn -0.0000 -0.0000 1.0000
vn -0.0000 -0.6167 0.7872
vn -0.0000 -0.9199 0.3921
vt 0.00000 0.16667
vt 0.00000 0.33333
vt 0.00000 0.50000
vt 0.00000 0.50113
vt 0.00000 0.50266
vt 0.00000 0.66667
vt 0.00000 0.83333
vt 0.00000 0.99734
vt 0.00279 1.00000
vt 0.01000 0.25000
vt 0.01571 0.29524
vt 0.01662 0.50000
vt 0.01662 1.00000
vt 0.01791 0.26750
vt 0.02437 0.50266
vt 0.02437 0.99734
vt 0.02592 0.31294
vt 0.03789 0.15418
vt 0.04144 0.13405
vt 0.05000 0.00000
vt 0.05000 1.00000
vt 0.05137 0.28502
vt 0.06096 0.11422
vt 0.07533 0.14916
vt 0.08346 0.41259
vt 0.08675 0.50266
vt 0.08675 0.99734
vt 0.09449 0.50000
vt 0.09449 1.00000
vt 0.09960 0.43526
vt 0.10000 0.16667
vt 0.10000 0.33333
vt 0.10000 0.50000
vt 0.10000 0.66667
vt 0.10000 0.83333
vt 0.10972 0.50056
vt 0.11111 0.50266
vt 0.11111 0.99734
vt 0.11250 0.99944
vt 0.11880 0.44225
vt 0.12036 0.40450
vt 0.12500 0.51902
vt 0.12500 0.54500
vt 0.12500 0.70500
vt 0.12670 0.75000
vt 0.12716 0.75000
vt 0.12773 0.50000
vt 0.12773 1.00000
vt 0.12902 0.50000
vt 0.12902 0.54500
vt 0.12902 0.70500
vt 0.12902 0.75000
vt 0.13011 0.50000
vt 0.13011 0.54500
vt 0.13011 0.70500
vt 0.13011 0.75000
vt 0.13548 0.50266
vt 0.13548 0.99734
vt 0.14911 0.04025
vt 0.15000 0.00000
vt 0.15000 1.00000
vt 0.16476 0.02712
vt 0.18102 0.06047
vt 0.19247 0.02447
vt 0.19786 0.50266
vt 0.19786 0.99734
vt 0.20000 0.16667
vt 0.20000 0.33333
vt 0.20000 0.50000
vt 0.20000 0.66667
vt 0.20000 0.83333
vt 0.20561 0.50000
vt 0.20561 1.00000
vt 0.22083 0.50056
vt 0.22222 0.50266
vt 0.22222 0.99734
vt 0.22362 0.99944
vt 0.22693 0.48160
vt 0.23884 0.50000
vt 0.23884 1.00000
vt 0.24659 0.50266
vt 0.24659 0.99734
vt 0.25000 0.00000
vt 0.25000 0.01000
vt 0.25000 0.25000
vt 0.25000 0.45169
vt 0.25000 0.49000
vt 0.25000 1.00000
vt 0.25387 0.48859
vt 0.27307 0.48160
vt 0.30000 0.16667
vt 0.30000 0.33333
vt 0.30000 0.50000
vt 0.30000 0.66667
vt 0.30000 0.83333
vt 0.30753 0.02447
vt 0.30897 0.50266
vt 0.30897 0.99734
vt 0.31672 0.50000
vt 0.31672 1.00000
vt 0.31898 0.06047
vt 0.32797 0.02447
vt 0.33194 0.50056
vt 0.33333 0.50266
vt 0.33333 0.99734
vt 0.33473 0.99944
vt 0.34995 0.50000
vt 0.34995 1.00000
vt 0.35000 0.00000
vt 0.35000 1.00000
vt 0.35089 0.04025
vt 0.35770 0.50266
vt 0.35770 0.99734
vt 0.36989 0.54500
vt 0.36989 0.70500
vt 0.37098 0.54500
vt 0.37098 0.70500
vt 0.37244 0.49744
vt 0.37244 0.75256
vt 0.37299 0.49799
vt 0.37299 0.75201
vt 0.37500 0.01902
vt 0.37500 0.04500
vt 0.37500 0.20500
vt 0.37500 0.25402
vt 0.37500 0.25511
vt 0.37500 0.54500
vt 0.37500 0.70500
vt 0.37500 0.99489
vt 0.37500 0.99598
vt 0.37639 0.50634
vt 0.37708 0.50634
vt 0.37711 0.74438
vt 0.37764 0.74423
vt 0.37817 0.25108
vt 0.37896 0.25085
vt 0.37964 0.40450
vt 0.38120 0.44225
vt 0.38134 1.00000
vt 0.38293 1.00000
vt 0.39000 0.00000
vt 0.39000 0.04500
vt 0.39000 0.20500
vt 0.39000 0.25000
vt 0.39000 0.25511
vt 0.39000 0.49489
vt 0.39000 0.50000
vt 0.39000 0.54500
vt 0.39000 0.70500
vt 0.39000 0.75000
vt 0.39000 0.75511
vt 0.39000 0.99489
vt 0.39000 1.00000
vt 0.39375 0.00000
vt 0.39375 0.04500
vt 0.39375 0.20500
vt 0.39375 0.25000
vt 0.39375 0.25402
vt 0.39375 0.49598
vt 0.39375 0.50000
vt 0.39375 0.54500
vt 0.39375 0.70500
vt 0.39375 0.75000
vt 0.39375 0.75402
vt 0.39375 0.99598
vt 0.39375 1.00000
vt 0.40000 0.16667
vt 0.40000 0.33333
vt 0.40000 0.50000
vt 0.40000 0.66667
vt 0.40000 0.83333
vt 0.40633 0.43028
vt 0.41654 0.41259
vt 0.42008 0.50266
vt 0.42008 0.99734
vt 0.42467 0.14916
vt 0.42783 0.50000
vt 0.42783 1.00000
vt 0.43904 0.11422
vt 0.44305 0.50056
vt 0.44444 0.50266
vt 0.44444 0.99734
vt 0.44584 0.99944
vt 0.44862 0.28502
vt 0.45000 0.00000
vt 0.45000 1.00000
vt 0.45469 0.12735
vt 0.46106 0.50000
vt 0.46106 1.00000
vt 0.46211 0.15418
vt 0.46881 0.50266
vt 0.46881 0.99734
vt 0.47408 0.31294
vt 0.48209 0.26750
vt 0.48564 0.28762
vt 0.49000 0.25000
vt 0.50000 0.16667
vt 0.50000 0.33333
vt 0.50000 0.50000
vt 0.50000 0.66667
vt 0.50000 0.83333
vt 0.51000 0.25000
vt 0.51436 0.28762
vt 0.51791 0.26750
vt 0.52592 0.31294
vt 0.53119 0.50266
vt 0.53119 0.99734
vt 0.53789 0.15418
vt 0.53894 0.50000
vt 0.53894 1.00000
vt 0.54531 0.12735
vt 0.55000 0.00000
vt 0.55000 1.00000
vt 0.55137 0.28502
vt 0.55416 0.50056
vt 0.55556 0.50266
vt 0.55556 0.99734
vt 0.55695 0.99944
vt 0.56096 0.11422
vt 0.57217 0.50000
vt 0.57217 1.00000
vt 0.57533 0.14916
vt 0.57992 0.50266
vt 0.57992 0.99734
vt 0.58345 0.41259
vt 0.59367 0.43028
vt 0.60000 0.16667
vt 0.60000 0.33333
vt 0.60000 0.50000
vt 0.60000 0.66667
vt 0.60000 0.83333
vt 0.60625 0.00000
vt 0.60625 0.04500
vt 0.60625 0.20500
vt 0.60625 0.25000
vt 0.60625 0.25402
vt 0.60625 0.49598
vt 0.60625 0.50000
vt 0.60625 0.54500
vt 0.60625 0.70500
vt 0.60625 0.75000
vt 0.60625 0.75402
vt 0.60625 0.99598
vt 0.60625 1.00000
vt 0.61000 0.00000
vt 0.61000 0.04500
vt 0.61000 0.20500
vt 0.61000 0.25000
vt 0.61000 0.25511
vt 0.61000 0.49489
vt 0.61000 0.50000
vt 0.61000 0.54500
vt 0.61000 0.70500
vt 0.61000 0.75000
vt 0.61000 0.75511
vt 0.61000 0.99489
vt 0.61000 1.00000
vt 0.61708 0.00000
vt 0.61866 0.00000
vt 0.61880 0.44225
vt 0.62036 0.40450
vt 0.62104 0.24049
vt 0.62183 0.24049
vt 0.62236 0.50577
vt 0.62289 0.50562
vt 0.62292 0.74366
vt 0.62361 0.74366
vt 0.62500 0.04500
vt 0.62500 0.20500
vt 0.62500 0.25402
vt 0.62500 0.25511
vt 0.62500 0.54500
vt 0.62500 0.70500
vt 0.62500 0.99489
vt 0.62500 0.99598
vt 0.62500 0.99784
vt 0.62500 0.99830
vt 0.62701 0.49799
vt 0.62701 0.75201
vt 0.62756 0.49744
vt 0.62756 0.75256
vt 0.62902 0.54500
vt 0.62902 0.70500
vt 0.63011 0.54500
vt 0.63011 0.70500
vt 0.64230 0.50266
vt 0.64230 0.99734
vt 0.64911 0.04025
vt 0.65000 0.00000
vt 0.65000 1.00000
vt 0.65005 0.50000
vt 0.65005 1.00000
vt 0.66527 0.50056
vt 0.66667 0.50266
vt 0.66667 0.99734
vt 0.66806 0.99944
vt 0.67203 0.02447
vt 0.68102 0.06047
vt 0.68328 0.50000
vt 0.68328 1.00000
vt 0.69103 0.50266
vt 0.69103 0.99734
vt 0.69247 0.02447
vt 0.70000 0.16667
vt 0.70000 0.33333
vt 0.70000 0.50000
vt 0.70000 0.66667
vt 0.70000 0.83333
vt 0.72693 0.48160
vt 0.74613 0.48859
vt 0.75000 0.00000
vt 0.75000 0.01000
vt 0.75000 0.45169
vt 0.75000 0.49000
vt 0.75000 1.00000
vt 0.75341 0.50266
vt 0.75341 0.99734
vt 0.76116 0.50000
vt 0.76116 1.00000
vt 0.77307 0.48160
vt 0.77638 0.50056
vt 0.77778 0.50266
vt 0.77778 0.99734
vt 0.77917 0.99944
vt 0.79439 0.50000
vt 0.79439 1.00000
vt 0.80000 0.16667
vt 0.80000 0.33333
vt 0.80000 0.50000
vt 0.80000 0.66667
vt 0.80000 0.83333
vt 0.80214 0.50266
vt 0.80214 0.99734
vt 0.80753 0.02447
vt 0.81898 0.06047
vt 0.83524 0.02712
vt 0.85000 0.00000
vt 0.85000 1.00000
vt 0.85089 0.04025
vt 0.86452 0.50266
vt 0.86452 0.99734
vt 0.86989 0.50000
vt 0.86989 0.54500
vt 0.86989 0.70500
vt 0.86989 0.75000
vt 0.87098 0.50000
vt 0.87098 0.54500
vt 0.87098 0.70500
vt 0.87098 0.75000
vt 0.87227 0.50000
vt 0.87227 1.00000
vt 0.87284 0.50000
vt 0.87330 0.50000
vt 0.87500 0.54500
vt 0.87500 0.70500
vt 0.87500 0.73098
vt 0.87964 0.40450
vt 0.88120 0.44225
vt 0.88750 0.50056
vt 0.88889 0.50266
vt 0.88889 0.99734
vt 0.89028 0.99944
vt 0.90000 0.16667
vt 0.90000 0.33333
vt 0.90000 0.50000
vt 0.90000 0.66667
vt 0.90000 0.83333
vt 0.90040 0.43526
vt 0.90551 0.50000
vt 0.90551 1.00000
vt 0.91325 0.50266
vt 0.91325 0.99734
vt 0.91655 0.41259
vt 0.92467 0.14916
vt 0.93904 0.11422
vt 0.94863 0.28502
vt 0.95000 0.00000
vt 0.95000 1.00000
vt 0.95856 0.13405
vt 0.96211 0.15418
vt 0.97408 0.31294
vt 0.97564 0.50266
vt 0.97564 0.99734
vt 0.98209 0.26750
vt 0.98338 0.50000
vt 0.98338 1.00000
vt 0.98430 0.29524
vt 0.99000 0.25000
vt 0.99721 0.50000
vt 1.00000 0.16667
vt 1.00000 0.33333
vt 1.00000 0.50000
vt 1.00000 0.50266
vt 1.00000 0.66667
vt 1.00000 0.83333
vt 1.00000 0.99734
vt 1.00000 0.99887
s 1
g ow_cairn_rock_0_M_stone
usemtl M_stone
f 10/199/10 15/169/15 16/168/16
f 10/199/10 16/168/16 11/198/11
f 11/198/11 16/168/16 17/167/17
f 11/198/11 17/167/17 12/197/12
f 13/171/13 1/110/1 18/95/18
f 13/171/13 18/95/18 19/94/19
f 13/171/13 19/94/19 14/170/14
f 14/170/14 19/94/19 20/93/20
f 14/170/14 20/93/20 15/169/15
f 16/168/16 15/169/15 20/93/20
f 16/168/16 20/93/20 21/92/21
f 17/167/17 16/168/16 21/92/21
f 17/167/17 21/92/21 22/91/22
f 18/95/18 1/88/1 23/71/23
f 18/95/18 23/71/23 24/70/24
f 18/95/18 24/70/24 19/94/19
f 19/94/19 24/70/24 25/69/25
f 19/94/19 25/69/25 20/93/20
f 2/109/2 17/167/17 22/91/22
f 2/185/2 12/197/12 17/167/17
f 2/20/2 32/31/32 37/1/37
f 2/212/2 7/227/7 12/197/12
f 2/289/2 52/304/52 7/227/7
f 2/311/2 47/327/47 52/304/52
f 2/337/2 42/363/42 47/327/47
f 2/377/2 37/390/37 42/363/42
f 2/60/2 27/67/27 32/31/32
f 2/83/2 22/91/22 27/67/27
f 21/92/21 20/93/20 25/69/25
f 21/92/21 25/69/25 26/68/26
f 22/91/22 21/92/21 26/68/26
f 22/91/22 26/68/26 27/67/27
f 23/71/23 1/61/1 28/35/28
f 24/70/24 23/71/23 28/35/28
f 24/70/24 28/35/28 29/34/29
f 25/69/25 24/70/24 29/34/29
f 25/69/25 29/34/29 30/33/30
f 25/69/25 30/33/30 31/32/31
f 25/69/25 31/32/31 26/68/26
f 26/68/26 31/32/31 32/31/32
f 26/68/26 32/31/32 27/67/27
f 28/35/28 1/21/1 33/7/33
f 29/34/29 28/35/28 33/7/33
f 29/34/29 33/7/33 34/6/34
f 3/231/3 1/213/1 8/201/8
f 30/33/30 29/34/29 34/6/34
f 30/33/30 34/6/34 35/3/35
f 30/33/30 35/3/35 36/2/36
f 30/33/30 36/2/36 31/32/31
f 31/32/31 36/2/36 37/1/37
f 31/32/31 37/1/37 32/31/32
f 33/395/33 1/378/1 38/367/38
f 33/395/33 38/367/38 39/366/39
f 33/395/33 39/366/39 34/394/34
f 34/394/34 39/366/39 40/365/40
f 34/394/34 40/365/40 35/392/35
f 36/391/36 35/392/35 40/365/40
f 36/391/36 40/365/40 41/364/41
f 36/391/36 41/364/41 42/363/42
f 36/391/36 42/363/42 37/390/37
f 38/367/38 1/338/1 43/331/43
f 38/367/38 43/331/43 44/330/44
f 38/367/38 44/330/44 39/366/39
f 39/366/39 44/330/44 45/329/45
f 39/366/39 45/329/45 40/365/40
f 4/230/4 3/231/3 8/201/8
f 4/230/4 8/201/8 9/200/9
f 41/364/41 40/365/40 45/329/45
f 41/364/41 45/329/45 46/328/46
f 42/363/42 41/364/41 46/328/46
f 42/363/42 46/328/46 47/327/47
f 43/331/43 1/315/1 48/308/48
f 43/331/43 48/308/48 49/307/49
f 43/331/43 49/307/49 44/330/44
f 44/330/44 49/307/49 50/306/50
f 44/330/44 50/306/50 45/329/45
f 46/328/46 45/329/45 50/306/50
f 46/328/46 50/306/50 51/305/51
f 47/327/47 46/328/46 51/305/51
f 47/327/47 51/305/51 52/304/52
f 48/308/48 1/290/1 3/231/3
f 49/307/49 3/231/3 4/230/4
f 49/307/49 48/308/48 3/231/3
f 5/229/5 10/199/10 11/198/11
f 5/229/5 11/198/11 6/228/6
f 5/229/5 4/230/4 9/200/9
f 5/229/5 9/200/9 10/199/10
f 50/306/50 4/230/4 5/229/5
f 50/306/50 49/307/49 4/230/4
f 50/306/50 5/229/5 6/228/6
f 50/306/50 6/228/6 51/305/51
f 51/305/51 6/228/6 7/227/7
f 51/305/51 7/227/7 52/304/52
f 6/228/6 11/198/11 12/197/12
f 6/228/6 12/197/12 7/227/7
f 8/201/8 1/186/1 13/171/13
f 8/201/8 13/171/13 14/170/14
f 8/201/8 14/170/14 9/200/9
f 9/200/9 14/170/14 15/169/15
f 9/200/9 15/169/15 10/199/10
g ow_cairn_rock_1_Sphere.037
v 0.060000 0.824000 0.020000
v 0.060000 0.707000 0.310465
v 0.060000 0.473000 0.310465
v 0.060000 0.356000 0.020000
v -0.071811 0.792650 0.155672
v -0.168303 0.707000 0.254991
v -0.203622 0.590000 0.291344
v -0.168303 0.473000 0.254991
v -0.071811 0.387350 0.155672
v -0.153274 0.792650 0.071822
v -0.309402 0.707000 0.109759
v -0.366549 0.590000 0.123644
v -0.309402 0.473000 0.109759
v -0.153274 0.387350 0.071822
v -0.153274 0.792650 -0.031822
v -0.309402 0.707000 -0.069759
v -0.366549 0.590000 -0.083644
v -0.309402 0.473000 -0.069759
v -0.153274 0.387350 -0.031822
v -0.071811 0.792650 -0.115672
v -0.168303 0.707000 -0.214991
v -0.203622 0.590000 -0.251344
v -0.168303 0.473000 -0.214991
v -0.071811 0.387350 -0.115672
v 0.060000 0.792650 -0.147700
v 0.060000 0.707000 -0.270465
v 0.060000 0.590000 -0.315400
v 0.060000 0.473000 -0.270465
v 0.060000 0.387350 -0.147700
v 0.191811 0.792650 -0.115672
v 0.288303 0.707000 -0.214991
v 0.323622 0.590000 -0.251344
v 0.288303 0.473000 -0.214991
v 0.191811 0.387350 -0.115672
v 0.273274 0.792650 -0.031822
v 0.429402 0.707000 -0.069759
v 0.486549 0.590000 -0.083644
v 0.429402 0.473000 -0.069759
v 0.273274 0.387350 -0.031822
v 0.273274 0.792650 0.071822
v 0.429402 0.707000 0.109759
v 0.486549 0.590000 0.123644
v 0.429402 0.473000 0.109759
v 0.273274 0.387350 0.071822
v 0.191811 0.792650 0.155672
v 0.288303 0.707000 0.254991
v 0.323622 0.590000 0.291344
v 0.288303 0.473000 0.254991
v 0.191811 0.387350 0.155672
v 0.060000 0.792650 0.187700
v 0.060000 0.590000 0.355400
v 0.060000 0.387350 0.187700
vn -0.0000 1.0000 -0.0000
vn -0.0000 0.5958 0.8031
vn -0.0000 -0.5958 0.8031
vn -0.0000 -1.0000 -0.0000
vn -0.1837 0.9195 0.3476
vn -0.3871 0.6197 0.6827
vn -0.5099 -0.0000 0.8603
vn -0.3871 -0.6197 0.6827
vn -0.1837 -0.9195 0.3476
vn -0.3219 0.9358 0.1435
vn -0.6936 0.6607 0.2869
vn -0.9317 -0.0000 0.3633
vn -0.6936 -0.6607 0.2869
vn -0.3219 -0.9358 0.1435
vn -0.3219 0.9358 -0.1435
vn -0.6936 0.6607 -0.2869
vn -0.9317 -0.0000 -0.3633
vn -0.6936 -0.6607 -0.2869
vn -0.3219 -0.9358 -0.1435
vn -0.1837 0.9195 -0.3476
vn -0.3871 0.6197 -0.6827
vn -0.5099 -0.0000 -0.8603
vn -0.3871 -0.6197 -0.6827
vn -0.1837 -0.9195 -0.3476
vn -0.0000 0.9107 -0.4131
vn -0.0000 0.5958 -0.8031
vn -0.0000 -0.0000 -1.0000
vn -0.0000 -0.5958 -0.8031
vn -0.0000 -0.9107 -0.4131
vn 0.1837 0.9195 -0.3476
vn 0.3871 0.6197 -0.6827
vn 0.5099 -0.0000 -0.8603
vn 0.3871 -0.6197 -0.6827
vn 0.1837 -0.9195 -0.3476
vn 0.3219 0.9358 -0.1435
vn 0.6936 0.6607 -0.2869
vn 0.9317 -0.0000 -0.3633
vn 0.6936 -0.6607 -0.2869
vn 0.3219 -0.9358 -0.1435
vn 0.3219 0.9358 0.1435
vn 0.6936 0.6607 0.2869
vn 0.9317 -0.0000 0.3633
vn 0.6936 -0.6607 0.2869
vn 0.3219 -0.9358 0.1435
vn 0.1837 0.9195 0.3476
vn 0.3871 0.6197 0.6827
vn 0.5099 -0.0000 0.8603
vn 0.3871 -0.6197 0.6827
vn 0.1837 -0.9195 0.3476
vn -0.0000 0.9107 0.4131
vn -0.0000 -0.0000 1.0000
vn -0.0000 -0.9107 0.4131
s 1
g ow_cairn_rock_1_M_stone
usemtl M_stone
f 100/328/100 103/306/103 55/305/55
f 100/328/100 99/329/99 103/306/103
f 101/327/101 100/328/100 55/305/55
f 101/327/101 55/305/55 104/304/104
f 102/308/102 53/290/53 57/231/57
f 103/306/103 54/307/54 58/230/58
f 103/306/103 58/230/58 59/229/59
f 103/306/103 59/229/59 60/228/60
f 103/306/103 60/228/60 55/305/55
f 54/307/54 102/308/102 57/231/57
f 54/307/54 57/231/57 58/230/58
f 55/305/55 60/228/60 61/227/61
f 55/305/55 61/227/61 104/304/104
f 56/109/56 71/167/71 76/91/76
f 56/185/56 66/197/66 71/167/71
f 56/20/56 86/31/86 91/1/91
f 56/212/56 61/227/61 66/197/66
f 56/289/56 104/304/104 61/227/61
f 56/311/56 101/327/101 104/304/104
f 56/337/56 96/363/96 101/327/101
f 56/377/56 91/390/91 96/363/96
f 56/60/56 81/67/81 86/31/86
f 56/83/56 76/91/76 81/67/81
f 57/231/57 53/213/53 62/201/62
f 58/230/58 57/231/57 62/201/62
f 58/230/58 62/201/62 63/200/63
f 59/229/59 58/230/58 63/200/63
f 59/229/59 63/200/63 64/199/64
f 59/229/59 64/199/64 65/198/65
f 59/229/59 65/198/65 60/228/60
f 60/228/60 65/198/65 66/197/66
f 60/228/60 66/197/66 61/227/61
f 62/201/62 53/186/53 67/171/67
f 62/201/62 67/171/67 68/170/68
f 62/201/62 68/170/68 63/200/63
f 63/200/63 68/170/68 69/169/69
f 63/200/63 69/169/69 64/199/64
f 64/199/64 69/169/69 70/168/70
f 64/199/64 70/168/70 65/198/65
f 65/198/65 70/168/70 71/167/71
f 65/198/65 71/167/71 66/197/66
f 67/171/67 53/110/53 72/95/72
f 67/171/67 72/95/72 73/94/73
f 67/171/67 73/94/73 68/170/68
f 68/170/68 73/94/73 74/93/74
f 68/170/68 74/93/74 69/169/69
f 70/168/70 69/169/69 74/93/74
f 70/168/70 74/93/74 75/92/75
f 71/167/71 70/168/70 75/92/75
f 71/167/71 75/92/75 76/91/76
f 72/95/72 53/88/53 77/71/77
f 72/95/72 77/71/77 78/70/78
f 72/95/72 78/70/78 73/94/73
f 73/94/73 78/70/78 79/69/79
f 73/94/73 79/69/79 74/93/74
f 75/92/75 74/93/74 79/69/79
f 75/92/75 79/69/79 80/68/80
f 76/91/76 75/92/75 80/68/80
f 76/91/76 80/68/80 81/67/81
f 77/71/77 53/61/53 82/35/82
f 78/70/78 77/71/77 82/35/82
f 78/70/78 82/35/82 83/34/83
f 79/69/79 78/70/78 83/34/83
f 79/69/79 83/34/83 84/33/84
f 79/69/79 84/33/84 85/32/85
f 79/69/79 85/32/85 80/68/80
f 80/68/80 85/32/85 86/31/86
f 80/68/80 86/31/86 81/67/81
f 82/35/82 53/21/53 87/7/87
f 83/34/83 82/35/82 87/7/87
f 83/34/83 87/7/87 88/6/88
f 84/33/84 83/34/83 88/6/88
f 84/33/84 88/6/88 89/3/89
f 84/33/84 89/3/89 90/2/90
f 84/33/84 90/2/90 85/32/85
f 85/32/85 90/2/90 91/1/91
f 85/32/85 91/1/91 86/31/86
f 87/395/87 53/378/53 92/367/92
f 87/395/87 92/367/92 93/366/93
f 87/395/87 93/366/93 88/394/88
f 88/394/88 93/366/93 94/365/94
f 88/394/88 94/365/94 89/392/89
f 90/391/90 89/392/89 94/365/94
f 90/391/90 94/365/94 95/364/95
f 90/391/90 95/364/95 96/363/96
f 90/391/90 96/363/96 91/390/91
f 92/367/92 53/338/53 97/331/97
f 92/367/92 97/331/97 98/330/98
f 92/367/92 98/330/98 93/366/93
f 93/366/93 98/330/98 99/329/99
f 93/366/93 99/329/99 94/365/94
f 95/364/95 94/365/94 99/329/99
f 95/364/95 99/329/99 100/328/100
f 96/363/96 100/328/100 101/327/101
f 96/363/96 95/364/95 100/328/100
f 97/331/97 102/308/102 54/307/54
f 97/331/97 53/315/53 102/308/102
f 97/331/97 54/307/54 98/330/98
f 98/330/98 103/306/103 99/329/99
f 98/330/98 54/307/54 103/306/103
g ow_cairn_rock_2_Sphere.038
v -0.080000 1.049800 -0.010000
v -0.080000 0.690200 -0.010000
v -0.178395 1.025711 0.092826
v -0.250426 0.959900 0.168100
v -0.276790 0.870000 0.195652
v -0.250426 0.780100 0.168100
v -0.178395 0.714289 0.092826
v -0.239207 1.025711 0.029276
v -0.355754 0.959900 0.058028
v -0.398414 0.870000 0.068552
v -0.355754 0.780100 0.058028
v -0.239207 0.714289 0.029276
v -0.239207 1.025711 -0.049276
v -0.355754 0.959900 -0.078028
v -0.398414 0.870000 -0.088552
v -0.355754 0.780100 -0.078028
v -0.239207 0.714289 -0.049276
v -0.178395 1.025711 -0.112826
v -0.250426 0.959900 -0.188100
v -0.276790 0.870000 -0.215652
v -0.250426 0.780100 -0.188100
v -0.178395 0.714289 -0.112826
v -0.080000 1.025711 -0.137100
v -0.080000 0.959900 -0.230144
v -0.080000 0.870000 -0.264200
v -0.080000 0.780100 -0.230144
v -0.080000 0.714289 -0.137100
v 0.018395 1.025711 -0.112826
v 0.090426 0.959900 -0.188100
v 0.116790 0.870000 -0.215652
v 0.090426 0.780100 -0.188100
v 0.018395 0.714289 -0.112826
v 0.079207 1.025711 -0.049276
v 0.195754 0.959900 -0.078028
v 0.238414 0.870000 -0.088552
v 0.195754 0.780100 -0.078028
v 0.079207 0.714289 -0.049276
v 0.079207 1.025711 0.029276
v 0.195754 0.959900 0.058028
v 0.238414 0.870000 0.068552
v 0.195754 0.780100 0.058028
v 0.079207 0.714289 0.029276
v 0.018395 1.025711 0.092826
v 0.090426 0.959900 0.168100
v 0.116791 0.870000 0.195652
v 0.090426 0.780100 0.168100
v 0.018395 0.714289 0.092826
v -0.080000 1.025711 0.117100
v -0.080000 0.959900 0.210144
v -0.080000 0.870000 0.244200
v -0.080000 0.780100 0.210144
v -0.080000 0.714289 0.117100
vn -0.0000 1.0000 -0.0000
vn -0.0000 -1.0000 -0.0000
vn -0.1887 0.9172 0.3510
vn -0.3934 0.6141 0.6842
vn -0.5138 -0.0000 0.8579
vn -0.3934 -0.6141 0.6842
vn -0.1887 -0.9172 0.3510
vn -0.3295 0.9331 0.1444
vn -0.7010 0.6532 0.2861
vn -0.9327 -0.0000 0.3607
vn -0.7010 -0.6532 0.2861
vn -0.3295 -0.9331 0.1444
vn -0.3295 0.9331 -0.1444
vn -0.7010 0.6532 -0.2861
vn -0.9327 -0.0000 -0.3607
vn -0.7010 -0.6532 -0.2861
vn -0.3295 -0.9331 -0.1444
vn -0.1887 0.9172 -0.3510
vn -0.3934 0.6141 -0.6842
vn -0.5138 -0.0000 -0.8579
vn -0.3934 -0.6141 -0.6842
vn -0.1887 -0.9172 -0.3510
vn -0.0000 0.9086 -0.4177
vn -0.0000 0.5913 -0.8065
vn -0.0000 -0.0000 -1.0000
vn -0.0000 -0.5913 -0.8065
vn -0.0000 -0.9086 -0.4177
vn 0.1887 0.9172 -0.3510
vn 0.3934 0.6141 -0.6842
vn 0.5138 -0.0000 -0.8579
vn 0.3934 -0.6141 -0.6842
vn 0.1887 -0.9172 -0.3510
vn 0.3295 0.9331 -0.1444
vn 0.7010 0.6532 -0.2861
vn 0.9327 -0.0000 -0.3607
vn 0.7010 -0.6532 -0.2861
vn 0.3295 -0.9331 -0.1444
vn 0.3295 0.9331 0.1444
vn 0.7010 0.6532 0.2861
vn 0.9327 -0.0000 0.3607
vn 0.7010 -0.6532 0.2861
vn 0.3295 -0.9331 0.1444
vn 0.1887 0.9172 0.3510
vn 0.3934 0.6141 0.6842
vn 0.5138 -0.0000 0.8579
vn 0.3934 -0.6141 0.6842
vn 0.1887 -0.9172 0.3510
vn -0.0000 0.9086 0.4177
vn -0.0000 0.5913 0.8065
vn -0.0000 -0.0000 1.0000
vn -0.0000 -0.5913 0.8065
vn -0.0000 -0.9086 0.4177
s 1
g ow_cairn_rock_2_M_stone
usemtl M_stone
f 106/109/106 121/167/121 126/91/126
f 106/185/106 116/197/116 121/167/121
f 106/20/106 136/31/136 141/1/141
f 106/212/106 111/227/111 116/197/116
f 106/289/106 156/304/156 111/227/111
f 106/311/106 151/327/151 156/304/156
f 106/337/106 146/363/146 151/327/151
f 106/377/106 141/390/141 146/363/146
f 106/60/106 131/67/131 136/31/136
f 106/83/106 126/91/126 131/67/131
f 107/231/107 105/213/105 112/201/112
f 108/230/108 107/231/107 112/201/112
f 108/230/108 112/201/112 113/200/113
f 109/229/109 108/230/108 113/200/113
f 109/229/109 113/200/113 114/199/114
f 109/229/109 114/199/114 115/198/115
f 109/229/109 115/198/115 110/228/110
f 110/228/110 115/198/115 116/197/116
f 110/228/110 116/197/116 111/227/111
f 112/201/112 105/186/105 117/171/117
f 112/201/112 117/171/117 118/170/118
f 112/201/112 118/170/118 113/200/113
f 113/200/113 118/170/118 119/169/119
f 113/200/113 119/169/119 114/199/114
f 115/198/115 114/199/114 119/169/119
f 115/198/115 119/169/119 120/168/120
f 115/198/115 120/168/120 121/167/121
f 115/198/115 121/167/121 116/197/116
f 117/171/117 105/110/105 122/95/122
f 117/171/117 122/95/122 123/94/123
f 117/171/117 123/94/123 118/170/118
f 118/170/118 123/94/123 124/93/124
f 118/170/118 124/93/124 119/169/119
f 120/168/120 119/169/119 124/93/124
f 120/168/120 124/93/124 125/92/125
f 121/167/121 120/168/120 125/92/125
f 121/167/121 125/92/125 126/91/126
f 122/95/122 105/88/105 127/71/127
f 122/95/122 127/71/127 128/70/128
f 122/95/122 128/70/128 123/94/123
f 123/94/123 128/70/128 129/69/129
f 123/94/123 129/69/129 124/93/124
f 125/92/125 124/93/124 129/69/129
f 125/92/125 129/69/129 130/68/130
f 126/91/126 125/92/125 130/68/130
f 126/91/126 130/68/130 131/67/131
f 127/71/127 105/61/105 132/35/132
f 128/70/128 127/71/127 132/35/132
f 128/70/128 132/35/132 133/34/133
f 129/69/129 128/70/128 133/34/133
f 129/69/129 133/34/133 134/33/134
f 129/69/129 134/33/134 135/32/135
f 129/69/129 135/32/135 130/68/130
f 130/68/130 135/32/135 136/31/136
f 130/68/130 136/31/136 131/67/131
f 132/35/132 105/21/105 137/7/137
f 133/34/133 132/35/132 137/7/137
f 133/34/133 137/7/137 138/6/138
f 134/33/134 133/34/133 138/6/138
f 134/33/134 138/6/138 139/3/139
f 134/33/134 139/3/139 140/2/140
f 134/33/134 140/2/140 135/32/135
f 135/32/135 140/2/140 141/1/141
f 135/32/135 141/1/141 136/31/136
f 137/395/137 105/378/105 142/367/142
f 138/394/138 137/395/137 142/367/142
f 138/394/138 142/367/142 143/366/143
f 138/394/138 143/366/143 144/365/144
f 138/394/138 144/365/144 139/392/139
f 140/391/140 139/392/139 144/365/144
f 140/391/140 144/365/144 145/364/145
f 140/391/140 145/364/145 146/363/146
f 140/391/140 146/363/146 141/390/141
f 142/367/142 105/338/105 147/331/147
f 142/367/142 147/331/147 148/330/148
f 142/367/142 148/330/148 143/366/143
f 143/366/143 148/330/148 149/329/149
f 143/366/143 149/329/149 144/365/144
f 145/364/145 144/365/144 149/329/149
f 145/364/145 149/329/149 150/328/150
f 146/363/146 145/364/145 150/328/150
f 146/363/146 150/328/150 151/327/151
f 147/331/147 105/315/105 152/308/152
f 147/331/147 152/308/152 153/307/153
f 147/331/147 153/307/153 148/330/148
f 148/330/148 153/307/153 154/306/154
f 148/330/148 154/306/154 149/329/149
f 150/328/150 149/329/149 154/306/154
f 150/328/150 154/306/154 155/305/155
f 151/327/151 150/328/150 155/305/155
f 151/327/151 155/305/155 156/304/156
f 152/308/152 105/290/105 107/231/107
f 153/307/153 107/231/107 108/230/108
f 153/307/153 152/308/152 107/231/107
f 154/306/154 108/230/108 109/229/109
f 154/306/154 109/229/109 110/228/110
f 154/306/154 110/228/110 155/305/155
f 154/306/154 153/307/153 108/230/108
f 155/305/155 110/228/110 111/227/111
f 155/305/155 111/227/111 156/304/156
g ow_cairn_rock_3_Sphere.039
v 0.040000 1.223200 0.000000
v 0.040000 0.976800 0.000000
v -0.025950 1.206694 0.069414
v -0.074228 1.161600 0.120228
v -0.091899 1.100000 0.138827
v -0.074228 1.038400 0.120228
v -0.025950 0.993306 0.069414
v -0.066709 1.206694 0.026514
v -0.144825 1.161600 0.045923
v -0.173417 1.100000 0.053027
v -0.144825 1.038400 0.045923
v -0.066709 0.993306 0.026514
v -0.066709 1.206694 -0.026514
v -0.144825 1.161600 -0.045923
v -0.173417 1.100000 -0.053027
v -0.144825 1.038400 -0.045923
v -0.066709 0.993306 -0.026514
v -0.025950 1.206694 -0.069414
v -0.074228 1.161600 -0.120228
v -0.091899 1.100000 -0.138827
v -0.074228 1.038400 -0.120228
v -0.025950 0.993306 -0.069414
v 0.040000 1.206694 -0.085800
v 0.040000 1.161600 -0.148610
v 0.040000 1.100000 -0.171600
v 0.040000 1.038400 -0.148610
v 0.040000 0.993306 -0.085800
v 0.105949 1.206694 -0.069414
v 0.154228 1.161600 -0.120228
v 0.171899 1.100000 -0.138827
v 0.154228 1.038400 -0.120228
v 0.105949 0.993306 -0.069414
v 0.146709 1.206694 -0.026514
v 0.224825 1.161600 -0.045923
v 0.253417 1.100000 -0.053027
v 0.224825 1.038400 -0.045923
v 0.146709 0.993306 -0.026514
v 0.146709 1.206694 0.026514
v 0.224825 1.161600 0.045923
v 0.253417 1.100000 0.053027
v 0.224825 1.038400 0.045923
v 0.146709 0.993306 0.026514
v 0.105950 1.206694 0.069414
v 0.154228 1.161600 0.120228
v 0.171899 1.100000 0.138827
v 0.154228 1.038400 0.120228
v 0.105950 0.993306 0.069414
v 0.040000 1.206694 0.085800
v 0.040000 1.161600 0.148610
v 0.040000 1.100000 0.171600
v 0.040000 1.038400 0.148610
v 0.040000 0.993306 0.085800
vn -0.0000 1.0000 -0.0000
vn -0.0000 -1.0000 -0.0000
vn -0.1924 0.9149 0.3548
vn -0.3974 0.6089 0.6865
vn -0.5156 -0.0000 0.8569
vn -0.3974 -0.6089 0.6865
vn -0.1924 -0.9149 0.3548
vn -0.3353 0.9308 0.1457
vn -0.7065 0.6472 0.2865
vn -0.9331 -0.0000 0.3596
vn -0.7065 -0.6472 0.2865
vn -0.3353 -0.9308 0.1457
vn -0.3353 0.9308 -0.1457
vn -0.7065 0.6472 -0.2865
vn -0.9331 -0.0000 -0.3596
vn -0.7065 -0.6472 -0.2865
vn -0.3353 -0.9308 -0.1457
vn -0.1924 0.9149 -0.3548
vn -0.3974 0.6090 -0.6865
vn -0.5156 -0.0000 -0.8569
vn -0.3974 -0.6090 -0.6865
vn -0.1924 -0.9149 -0.3548
vn -0.0000 0.9063 -0.4226
vn -0.0000 0.5866 -0.8099
vn -0.0000 -0.0000 -1.0000
vn -0.0000 -0.5866 -0.8099
vn -0.0000 -0.9063 -0.4226
vn 0.1924 0.9149 -0.3548
vn 0.3974 0.6090 -0.6865
vn 0.5156 -0.0000 -0.8569
vn 0.3974 -0.6090 -0.6865
vn 0.1924 -0.9149 -0.3548
vn 0.3353 0.9308 -0.1457
vn 0.7065 0.6472 -0.2865
vn 0.9331 -0.0000 -0.3596
vn 0.7065 -0.6472 -0.2865
vn 0.3353 -0.9308 -0.1457
vn 0.3353 0.9308 0.1457
vn 0.7065 0.6472 0.2865
vn 0.9331 -0.0000 0.3596
vn 0.7065 -0.6472 0.2865
vn 0.3353 -0.9308 0.1457
vn 0.1924 0.9149 0.3548
vn 0.3974 0.6090 0.6865
vn 0.5156 -0.0000 0.8569
vn 0.3974 -0.6090 0.6865
vn 0.1924 -0.9149 0.3548
vn -0.0000 0.9063 0.4226
vn -0.0000 0.5866 0.8099
vn -0.0000 -0.0000 1.0000
vn -0.0000 -0.5866 0.8099
vn -0.0000 -0.9063 0.4226
s 1
g ow_cairn_rock_3_M_stone
usemtl M_stone
f 158/109/158 173/167/173 178/91/178
f 158/185/158 168/197/168 173/167/173
f 158/20/158 188/31/188 193/1/193
f 158/212/158 163/227/163 168/197/168
f 158/289/158 208/304/208 163/227/163
f 158/311/158 203/327/203 208/304/208
f 158/337/158 198/363/198 203/327/203
f 158/377/158 193/390/193 198/363/198
f 158/60/158 183/67/183 188/31/188
f 158/83/158 178/91/178 183/67/183
f 159/231/159 157/213/157 164/201/164
f 160/230/160 159/231/159 164/201/164
f 160/230/160 164/201/164 165/200/165
f 161/229/161 160/230/160 165/200/165
f 161/229/161 165/200/165 166/199/166
f 161/229/161 166/199/166 167/198/167
f 161/229/161 167/198/167 162/228/162
f 162/228/162 167/198/167 168/197/168
f 162/228/162 168/197/168 163/227/163
f 164/201/164 157/186/157 169/171/169
f 165/200/165 164/201/164 169/171/169
f 165/200/165 169/171/169 170/170/170
f 165/200/165 170/170/170 171/169/171
f 165/200/165 171/169/171 166/199/166
f 166/199/166 171/169/171 172/168/172
f 166/199/166 172/168/172 167/198/167
f 167/198/167 172/168/172 173/167/173
f 167/198/167 173/167/173 168/197/168
f 169/171/169 157/110/157 174/95/174
f 169/171/169 174/95/174 175/94/175
f 169/171/169 175/94/175 170/170/170
f 170/170/170 175/94/175 176/93/176
f 170/170/170 176/93/176 171/169/171
f 172/168/172 171/169/171 176/93/176
f 172/168/172 176/93/176 177/92/177
f 173/167/173 172/168/172 177/92/177
f 173/167/173 177/92/177 178/91/178
f 174/95/174 157/88/157 179/71/179
f 174/95/174 179/71/179 180/70/180
f 174/95/174 180/70/180 175/94/175
f 175/94/175 180/70/180 181/69/181
f 175/94/175 181/69/181 176/93/176
f 177/92/177 176/93/176 181/69/181
f 177/92/177 181/69/181 182/68/182
f 178/91/178 177/92/177 182/68/182
f 178/91/178 182/68/182 183/67/183
f 179/71/179 157/61/157 184/35/184
f 180/70/180 179/71/179 184/35/184
f 180/70/180 184/35/184 185/34/185
f 181/69/181 180/70/180 185/34/185
f 181/69/181 185/34/185 186/33/186
f 181/69/181 186/33/186 187/32/187
f 181/69/181 187/32/187 182/68/182
f 182/68/182 187/32/187 188/31/188
f 182/68/182 188/31/188 183/67/183
f 184/35/184 157/21/157 189/7/189
f 185/34/185 184/35/184 189/7/189
f 185/34/185 189/7/189 190/6/190
f 186/33/186 185/34/185 190/6/190
f 186/33/186 190/6/190 191/3/191
f 186/33/186 191/3/191 192/2/192
f 186/33/186 192/2/192 187/32/187
f 187/32/187 192/2/192 193/1/193
f 187/32/187 193/1/193 188/31/188
f 189/395/189 157/378/157 194/367/194
f 189/395/189 194/367/194 195/366/195
f 189/395/189 195/366/195 190/394/190
f 190/394/190 195/366/195 196/365/196
f 190/394/190 196/365/196 191/392/191
f 191/392/191 196/365/196 197/364/197
f 191/392/191 197/364/197 192/391/192
f 192/391/192 197/364/197 198/363/198
f 192/391/192 198/363/198 193/390/193
f 194/367/194 157/338/157 199/331/199
f 194/367/194 199/331/199 200/330/200
f 194/367/194 200/330/200 195/366/195
f 195/366/195 200/330/200 201/329/201
f 195/366/195 201/329/201 196/365/196
f 197/364/197 196/365/196 201/329/201
f 197/364/197 201/329/201 202/328/202
f 198/363/198 197/364/197 202/328/202
f 198/363/198 202/328/202 203/327/203
f 199/331/199 157/315/157 204/308/204
f 199/331/199 204/308/204 205/307/205
f 199/331/199 205/307/205 200/330/200
f 200/330/200 205/307/205 206/306/206
f 200/330/200 206/306/206 201/329/201
f 202/328/202 201/329/201 206/306/206
f 202/328/202 206/306/206 207/305/207
f 203/327/203 202/328/202 207/305/207
f 203/327/203 207/305/207 208/304/208
f 204/308/204 157/290/157 159/231/159
f 205/307/205 159/231/159 160/230/160
f 205/307/205 204/308/204 159/231/159
f 206/306/206 160/230/160 161/229/161
f 206/306/206 161/229/161 162/228/162
f 206/306/206 162/228/162 207/305/207
f 206/306/206 205/307/205 160/230/160
f 207/305/207 162/228/162 163/227/163
f 207/305/207 163/227/163 208/304/208
g ow_cairn_signpost_Cylinder.102
v -0.620000 0.005000 0.066221
v -0.612248 0.013250 0.072178
v -0.627752 0.013250 0.072178
v -0.615539 0.007416 0.070805
v -0.620000 0.008487 0.072242
v -0.620000 0.013250 0.073347
v -0.624461 0.007416 0.070805
v -0.620000 1.555000 0.066221
v -0.627752 1.546750 0.072178
v -0.612248 1.546750 0.072178
v -0.624461 1.552584 0.070805
v -0.620000 1.551513 0.072242
v -0.620000 1.546750 0.073347
v -0.615539 1.552584 0.070805
v -0.649710 0.005000 0.055407
v -0.647601 0.013250 0.064954
v -0.659478 0.013250 0.054988
v -0.649240 0.007416 0.061786
v -0.653580 0.008487 0.060019
v -0.654291 0.013250 0.060866
v -0.656074 0.007416 0.056052
v -0.649710 1.555000 0.055407
v -0.659478 1.546750 0.054988
v -0.647601 1.546750 0.064954
v -0.656074 1.552584 0.056052
v -0.653580 1.551513 0.060019
v -0.654291 1.546750 0.060866
v -0.649240 1.552584 0.061786
v -0.665518 0.005000 0.028026
v -0.670039 0.013250 0.036695
v -0.672732 0.013250 0.021426
v -0.669259 0.007416 0.033215
v -0.671448 0.008487 0.029072
v -0.672537 0.013250 0.029264
v -0.670808 0.007416 0.024429
v -0.665518 1.555000 0.028026
v -0.672732 1.546750 0.021426
v -0.670039 1.546750 0.036695
v -0.670808 1.552584 0.024429
v -0.671448 1.551513 0.029072
v -0.672537 1.546750 0.029264
v -0.669259 1.552584 0.033215
v -0.660028 0.005000 -0.003110
v -0.669064 0.013250 0.000625
v -0.661312 0.013250 -0.012803
v -0.666229 0.007416 -0.001540
v -0.665242 0.008487 -0.006121
v -0.666200 0.013250 -0.006674
v -0.661768 0.007416 -0.009266
v -0.660028 1.555000 -0.003110
v -0.661312 1.546750 -0.012803
v -0.669064 1.546750 0.000625
v -0.661768 1.552584 -0.009266
v -0.665242 1.551513 -0.006121
v -0.666200 1.546750 -0.006674
v -0.666229 1.552584 -0.001540
v -0.635808 0.005000 -0.023433
v -0.645131 0.013250 -0.026380
v -0.630561 0.013250 -0.031683
v -0.641568 0.007416 -0.026215
v -0.637868 0.008487 -0.029091
v -0.638246 0.013250 -0.030130
v -0.633185 0.007416 -0.029267
v -0.635808 1.555000 -0.023433
v -0.630561 1.546750 -0.031683
v -0.645131 1.546750 -0.026380
v -0.633185 1.552584 -0.029267
v -0.637868 1.551513 -0.029091
v -0.638246 1.546750 -0.030130
v -0.641568 1.552584 -0.026215
v -0.604192 0.005000 -0.023433
v -0.609439 0.013250 -0.031683
v -0.594869 0.013250 -0.026380
v -0.606815 0.007416 -0.029267
v -0.602132 0.008487 -0.029091
v -0.601754 0.013250 -0.030130
v -0.598432 0.007416 -0.026215
v -0.604192 1.555000 -0.023433
v -0.594869 1.546750 -0.026380
v -0.609439 1.546750 -0.031683
v -0.598432 1.552584 -0.026215
v -0.602132 1.551513 -0.029091
v -0.601754 1.546750 -0.030130
v -0.606815 1.552584 -0.029267
v -0.579972 0.005000 -0.003110
v -0.578689 0.013250 -0.012803
v -0.570936 0.013250 0.000625
v -0.578232 0.007416 -0.009266
v -0.574758 0.008487 -0.006121
v -0.573800 0.013250 -0.006674
v -0.573771 0.007416 -0.001540
v -0.579972 1.555000 -0.003110
v -0.570936 1.546750 0.000625
v -0.578689 1.546750 -0.012803
v -0.573771 1.552584 -0.001540
v -0.574758 1.551513 -0.006121
v -0.573800 1.546750 -0.006674
v -0.578232 1.552584 -0.009266
v -0.574482 0.005000 0.028026
v -0.567268 0.013250 0.021426
v -0.569961 0.013250 0.036695
v -0.569192 0.007416 0.024429
v -0.568552 0.008487 0.029072
v -0.567463 0.013250 0.029264
v -0.570741 0.007416 0.033215
v -0.574482 1.555000 0.028026
v -0.569961 1.546750 0.036695
v -0.567268 1.546750 0.021426
v -0.570741 1.552584 0.033215
v -0.568552 1.551513 0.029072
v -0.567463 1.546750 0.029264
v -0.569192 1.552584 0.024429
v -0.590290 0.005000 0.055407
v -0.580522 0.013250 0.054988
v -0.592399 0.013250 0.064954
v -0.583926 0.007416 0.056052
v -0.586420 0.008487 0.060019
v -0.585709 0.013250 0.060866
v -0.590760 0.007416 0.061786
v -0.590290 1.555000 0.055407
v -0.592399 1.546750 0.064954
v -0.580522 1.546750 0.054988
v -0.590760 1.552584 0.061786
v -0.586420 1.551513 0.060019
v -0.585709 1.546750 0.060866
v -0.583926 1.552584 0.056052
vn 0.0462 -0.8644 0.5006
vn 0.1421 -0.3021 0.9426
vn -0.1421 -0.3021 0.9426
vn -0.0462 0.8644 0.5006
vn -0.1421 0.3021 0.9426
vn 0.1421 0.3021 0.9426
vn -0.2864 -0.8644 0.4132
vn -0.4970 -0.3021 0.8134
vn -0.7148 -0.3021 0.6307
vn -0.3572 0.8644 0.3538
vn -0.7148 0.3021 0.6307
vn -0.4970 0.3021 0.8134
vn -0.4850 -0.8644 0.1325
vn -0.9036 -0.3021 0.3036
vn -0.9530 -0.3021 0.0237
vn -0.5010 0.8645 0.0414
vn -0.9530 0.3021 0.0237
vn -0.9036 0.3021 0.3036
vn -0.4566 -0.8644 -0.2103
vn -0.8874 -0.3021 -0.3482
vn -0.7453 -0.3021 -0.5944
vn -0.4104 0.8644 -0.2903
vn -0.7453 0.3021 -0.5944
vn -0.8874 0.3021 -0.3482
vn -0.2147 -0.8644 -0.4546
vn -0.4559 -0.3021 -0.8372
vn -0.1889 -0.3021 -0.9344
vn -0.1278 0.8644 -0.4862
vn -0.1889 0.3021 -0.9344
vn -0.4559 0.3021 -0.8372
vn 0.1278 -0.8644 -0.4862
vn 0.1889 -0.3021 -0.9344
vn 0.4559 -0.3021 -0.8372
vn 0.2147 0.8644 -0.4546
vn 0.4559 0.3021 -0.8372
vn 0.1889 0.3021 -0.9344
vn 0.4104 -0.8644 -0.2903
vn 0.7453 -0.3021 -0.5944
vn 0.8874 -0.3021 -0.3482
vn 0.4566 0.8644 -0.2103
vn 0.8874 0.3021 -0.3482
vn 0.7453 0.3021 -0.5944
vn 0.5010 -0.8644 0.0414
vn 0.9530 -0.3021 0.0237
vn 0.9036 -0.3021 0.3036
vn 0.4850 0.8644 0.1324
vn 0.9036 0.3021 0.3036
vn 0.9530 0.3021 0.0237
vn 0.3572 -0.8644 0.3538
vn 0.7148 -0.3021 0.6307
vn 0.4970 -0.3021 0.8134
vn 0.2864 0.8644 0.4132
vn 0.4970 0.3021 0.8134
vn 0.7148 0.3021 0.6307
vn -0.3160 -0.3827 0.8682
vn -0.1309 -0.9239 0.3596
vn -0.3160 0.3827 0.8682
vn -0.1309 0.9239 0.3596
vn 0.1491 -0.0000 0.9888
vn -0.1491 -0.0000 0.9888
vn -0.7498 -0.0000 0.6617
vn -0.5214 -0.0000 0.8533
vn -0.8001 -0.3827 0.4619
vn -0.3314 -0.9239 0.1913
vn -0.8001 0.3827 0.4619
vn -0.3314 0.9239 0.1913
vn -0.9997 -0.0000 0.0249
vn -0.9479 -0.0000 0.3185
vn -0.9098 -0.3827 -0.1604
vn -0.3769 -0.9239 -0.0665
vn -0.9098 0.3827 -0.1604
vn -0.3769 0.9239 -0.0665
vn -0.7818 -0.0000 -0.6235
vn -0.9309 -0.0000 -0.3653
vn -0.5939 -0.3827 -0.7077
vn -0.2460 -0.9239 -0.2932
vn -0.5939 0.3827 -0.7077
vn -0.2460 0.9239 -0.2932
vn -0.1981 -0.0000 -0.9802
vn -0.4783 -0.0000 -0.8782
vn -0.0000 -0.3827 -0.9239
vn -0.0000 -0.9239 -0.3827
vn -0.0000 0.3827 -0.9239
vn -0.0000 0.9239 -0.3827
vn 0.4783 -0.0000 -0.8782
vn 0.1981 -0.0000 -0.9802
vn 0.5939 -0.3827 -0.7077
vn 0.2460 -0.9239 -0.2932
vn 0.5939 0.3827 -0.7077
vn 0.2460 0.9239 -0.2932
vn 0.9309 -0.0000 -0.3653
vn 0.7818 -0.0000 -0.6235
vn 0.9098 -0.3827 -0.1604
vn 0.3769 -0.9239 -0.0665
vn 0.9098 0.3827 -0.1604
vn 0.3769 0.9239 -0.0665
vn 0.9479 -0.0000 0.3185
vn 0.9997 -0.0000 0.0249
vn 0.8001 -0.3827 0.4619
vn 0.3314 -0.9239 0.1913
vn 0.8001 0.3827 0.4619
vn 0.3314 0.9239 0.1913
vn 0.5214 -0.0000 0.8533
vn 0.7498 -0.0000 0.6617
vn 0.3160 -0.3827 0.8682
vn 0.1309 -0.9239 0.3596
vn 0.3160 0.3827 0.8682
vn 0.1309 0.9239 0.3596
vn -0.0000 -1.0000 -0.0000
vn -0.3420 -0.0000 0.9397
vn 0.3420 -0.0000 0.9397
vn -0.0000 1.0000 -0.0000
vn -0.8660 -0.0000 0.5000
vn -0.9848 -0.0000 -0.1736
vn -0.6428 -0.0000 -0.7660
vn -0.0000 -0.0000 -1.0000
vn 0.6428 -0.0000 -0.7660
vn 0.9848 -0.0000 -0.1736
vn 0.8660 -0.0000 0.5000
vn -0.0462 -0.8644 0.5006
vn 0.2511 -0.2189 0.9429
vn -0.2511 -0.2189 0.9429
vn 0.0462 0.8644 0.5006
vn -0.2511 0.2189 0.9429
vn 0.2511 0.2189 0.9429
vn -0.3572 -0.8644 0.3538
vn -0.4137 -0.2188 0.8837
vn -0.7985 -0.2188 0.5609
vn -0.2864 0.8644 0.4132
vn -0.7985 0.2189 0.5609
vn -0.4137 0.2189 0.8837
vn -0.5010 -0.8644 0.0414
vn -0.8849 -0.2189 0.4111
vn -0.9722 -0.2189 -0.0836
vn -0.4850 0.8644 0.1324
vn -0.9722 0.2189 -0.0836
vn -0.8850 0.2189 0.4110
vn -0.4104 -0.8644 -0.2903
vn -0.9421 -0.2189 -0.2540
vn -0.6910 -0.2189 -0.6889
vn -0.4566 0.8644 -0.2103
vn -0.6910 0.2189 -0.6889
vn -0.9421 0.2188 -0.2540
vn -0.1278 -0.8644 -0.4862
vn -0.5585 -0.2189 -0.8001
vn -0.0865 -0.2189 -0.9719
vn -0.2147 0.8644 -0.4546
vn -0.0865 0.2189 -0.9719
vn -0.5585 0.2188 -0.8001
vn 0.2147 -0.8644 -0.4546
vn 0.0865 -0.2189 -0.9719
vn 0.5585 -0.2189 -0.8001
vn 0.1278 0.8644 -0.4862
vn 0.5585 0.2188 -0.8001
vn 0.0865 0.2189 -0.9719
vn 0.4566 -0.8644 -0.2103
vn 0.6910 -0.2189 -0.6889
vn 0.9421 -0.2189 -0.2540
vn 0.4104 0.8644 -0.2903
vn 0.9421 0.2188 -0.2540
vn 0.6910 0.2189 -0.6889
vn 0.4850 -0.8644 0.1325
vn 0.9722 -0.2189 -0.0836
vn 0.8849 -0.2189 0.4111
vn 0.5010 0.8644 0.0414
vn 0.8850 0.2189 0.4110
vn 0.9722 0.2188 -0.0836
vn 0.2864 -0.8644 0.4132
vn 0.7985 -0.2188 0.5609
vn 0.4137 -0.2188 0.8837
vn 0.3572 0.8644 0.3538
vn 0.4137 0.2189 0.8837
vn 0.7984 0.2189 0.5609
vn -0.3768 0.9239 -0.0665
vn 0.3768 -0.9239 -0.0665
s 0
g ow_cairn_signpost_M_wood
usemtl M_wood
f 209/313/209 213/310/209 215/320/209
f 209/313/328 212/309/328 213/310/328
f 210/15/313 212/12/313 327/28/313
f 210/15/313 327/28/313 323/26/313
f 211/382/263 224/371/263 226/369/263
f 211/382/263 226/369/263 215/385/263
f 212/309/314 209/313/314 321/261/314
f 212/309/314 321/261/314 327/260/314
f 214/5/210 212/12/210 210/15/210
f 214/5/329 213/4/329 212/12/329
f 215/385/211 214/393/211 211/382/211
f 215/385/330 213/389/330 214/393/330
f 216/86/212 220/89/212 222/78/212
f 216/86/320 286/63/320 258/176/320
f 216/86/320 314/22/320 286/63/320
f 216/86/320 328/41/320 314/22/320
f 216/86/331 219/90/331 220/89/331
f 217/383/265 219/386/265 236/370/265
f 217/383/265 236/370/265 232/372/265
f 217/383/318 224/371/318 211/382/318
f 217/383/318 232/372/318 224/371/318
f 218/16/267 214/5/267 210/15/267
f 218/16/267 221/8/267 214/5/267
f 218/16/315 329/27/315 331/29/315
f 218/16/315 331/29/315 222/13/315
f 219/90/266 216/86/266 230/137/266
f 219/90/266 230/137/266 236/138/266
f 221/396/213 219/386/213 217/383/213
f 221/396/268 211/382/268 214/393/268
f 221/396/268 217/383/268 211/382/268
f 221/396/332 220/397/332 219/386/332
f 222/13/214 221/8/214 218/16/214
f 222/13/333 220/9/333 221/8/333
f 223/357/215 227/368/215 229/373/215
f 223/357/317 237/376/317 251/374/317
f 223/357/317 251/374/317 279/298/317
f 223/357/317 279/298/317 307/214/317
f 223/357/334 226/358/334 227/368/334
f 225/340/269 228/360/269 235/361/269
f 225/340/269 235/361/269 231/341/269
f 226/358/264 209/313/264 215/320/264
f 226/358/264 223/357/264 209/313/264
f 228/360/216 226/369/216 224/371/216
f 228/360/270 224/371/270 232/372/270
f 228/360/270 232/372/270 235/361/270
f 228/360/335 227/359/335 226/369/335
f 229/350/217 228/360/217 225/340/217
f 229/350/336 227/359/336 228/360/336
f 230/137/218 234/172/218 236/138/218
f 230/137/337 233/173/337 234/172/337
f 231/341/273 233/351/273 250/326/273
f 231/341/273 250/326/273 246/333/273
f 231/341/321 238/332/321 225/340/321
f 231/341/321 246/333/321 238/332/321
f 233/173/274 230/137/274 244/184/274
f 233/173/274 244/184/274 250/193/274
f 235/361/219 233/351/219 231/341/219
f 235/361/338 234/362/338 233/351/338
f 236/370/220 235/361/220 232/372/220
f 236/370/339 234/362/339 235/361/339
f 237/376/221 241/387/221 243/384/221
f 237/376/340 240/381/340 241/387/340
f 238/332/271 229/350/271 225/340/271
f 238/332/271 240/325/271 229/350/271
f 239/316/275 242/322/275 249/323/275
f 239/316/275 249/323/275 245/317/275
f 240/381/272 223/357/272 229/373/272
f 240/381/272 237/376/272 223/357/272
f 242/322/222 240/325/222 238/332/222
f 242/322/276 238/332/276 246/333/276
f 242/322/276 246/333/276 249/323/276
f 242/322/341 241/321/341 240/325/341
f 243/318/223 242/322/223 239/316/223
f 243/318/342 241/321/342 242/322/342
f 244/184/224 248/195/224 250/193/224
f 244/184/320 230/137/320 216/86/320
f 244/184/343 247/194/343 248/195/343
f 245/317/279 247/319/279 264/300/279
f 245/317/279 264/300/279 260/302/279
f 245/317/322 252/301/322 239/316/322
f 245/317/322 260/302/322 252/301/322
f 249/323/225 247/319/225 245/317/225
f 249/323/344 248/324/344 247/319/344
f 250/326/226 249/323/226 246/333/226
f 250/326/345 248/324/345 249/323/345
f 251/374/227 255/379/227 257/375/227
f 251/374/317 265/335/317 279/298/317
f 251/374/346 254/380/346 255/379/346
f 252/301/277 243/318/277 239/316/277
f 252/301/277 254/299/277 243/318/277
f 253/286/281 256/294/281 263/295/281
f 253/286/281 263/295/281 259/287/281
f 253/286/283 266/223/283 268/220/283
f 253/286/283 268/220/283 257/291/283
f 254/380/278 237/376/278 243/384/278
f 254/380/278 251/374/278 237/376/278
f 256/294/228 254/299/228 252/301/228
f 256/294/347 255/293/347 254/299/347
f 257/291/229 256/294/229 253/286/229
f 257/291/348 255/293/348 256/294/348
f 258/176/230 262/187/230 264/190/230
f 258/176/320 244/184/320 216/86/320
f 258/176/349 261/179/349 262/187/349
f 259/287/285 261/292/285 278/221/285
f 259/287/285 278/221/285 274/224/285
f 259/287/323 266/223/323 253/286/323
f 259/287/323 274/224/323 266/223/323
f 261/179/286 258/176/286 272/101/286
f 261/179/286 272/101/286 278/111/286
f 263/295/231 261/292/231 259/287/231
f 263/295/282 252/301/282 260/302/282
f 263/295/282 256/294/282 252/301/282
f 263/295/350 262/296/350 261/292/350
f 264/190/280 244/184/280 258/176/280
f 264/190/382 247/194/382 244/184/382
f 264/300/232 263/295/232 260/302/232
f 264/300/351 262/296/351 263/295/351
f 265/335/233 269/336/233 271/334/233
f 265/335/352 268/339/352 269/336/352
f 267/206/287 270/216/287 277/217/287
f 267/206/287 277/217/287 273/207/287
f 268/339/284 251/374/284 257/375/284
f 268/339/284 265/335/284 251/374/284
f 270/216/234 268/220/234 266/223/234
f 270/216/288 266/223/288 274/224/288
f 270/216/288 274/224/288 277/217/288
f 270/216/353 269/215/353 268/220/353
f 271/209/235 270/216/235 267/206/235
f 271/209/354 269/215/354 270/216/354
f 272/101/236 276/102/236 278/111/236
f 272/101/355 275/96/355 276/102/355
f 273/207/291 275/210/291 292/189/291
f 273/207/291 292/189/291 288/192/291
f 273/207/324 280/191/324 267/206/324
f 273/207/324 288/192/324 280/191/324
f 275/96/292 272/101/292 286/63/292
f 275/96/292 286/63/292 292/64/292
f 277/217/237 275/210/237 273/207/237
f 277/217/356 276/218/356 275/210/356
f 278/221/238 277/217/238 274/224/238
f 278/221/357 276/218/357 277/217/357
f 279/298/239 283/297/239 285/288/239
f 279/298/317 293/222/317 307/214/317
f 279/298/358 282/303/358 283/297/358
f 280/191/289 271/209/289 267/206/289
f 280/191/289 282/188/289 271/209/289
f 281/174/293 284/181/293 291/182/293
f 281/174/293 291/182/293 287/175/293
f 282/303/290 265/335/290 271/334/290
f 282/303/290 279/298/290 265/335/290
f 284/181/240 282/188/240 280/191/240
f 284/181/294 280/191/294 288/192/294
f 284/181/294 288/192/294 291/182/294
f 284/181/359 283/180/359 282/188/359
f 285/177/241 284/181/241 281/174/241
f 285/177/360 283/180/360 284/181/360
f 286/63/242 290/62/242 292/64/242
f 286/63/320 272/101/320 258/176/320
f 286/63/361 289/59/361 290/62/361
f 287/175/325 294/112/325 281/174/325
f 287/175/325 302/113/325 294/112/325
f 289/59/298 286/63/298 300/24/298
f 289/59/298 300/24/298 306/23/298
f 291/182/243 289/178/243 287/175/243
f 291/182/362 290/183/362 289/178/362
f 292/189/244 291/182/244 288/192/244
f 292/189/363 290/183/363 291/182/363
f 293/222/245 297/211/245 299/208/245
f 293/222/364 296/219/364 297/211/364
f 294/112/295 285/177/295 281/174/295
f 294/112/295 296/107/295 285/177/295
f 295/97/299 298/104/299 305/105/299
f 295/97/299 305/105/299 301/98/299
f 296/219/296 279/298/296 285/288/296
f 296/219/296 293/222/296 279/298/296
f 298/104/246 296/107/246 294/112/246
f 298/104/300 294/112/300 302/113/300
f 298/104/300 302/113/300 305/105/300
f 298/104/365 297/103/365 296/107/365
f 299/208/302 307/214/302 293/222/302
f 299/208/383 310/204/383 307/214/383
f 299/99/247 298/104/247 295/97/247
f 299/99/366 297/103/366 298/104/366
f 300/24/248 304/19/248 306/23/248
f 300/24/367 303/18/367 304/19/367
f 301/98/303 303/100/303 320/80/303
f 301/98/303 320/80/303 316/82/303
f 301/98/326 308/81/326 295/97/326
f 301/98/326 316/82/326 308/81/326
f 302/113/297 287/175/297 289/178/297
f 302/113/297 289/178/297 306/108/297
f 303/18/304 300/24/304 314/22/304
f 303/18/304 314/22/304 320/14/304
f 305/105/249 303/100/249 301/98/249
f 305/105/368 304/106/368 303/100/368
f 306/108/250 305/105/250 302/113/250
f 306/108/369 304/106/369 305/105/369
f 307/214/251 311/203/251 313/205/251
f 307/214/317 321/261/317 223/357/317
f 307/214/370 310/204/370 311/203/370
f 308/81/301 299/99/301 295/97/301
f 308/81/301 310/79/301 299/99/301
f 309/65/305 312/75/305 319/76/305
f 309/65/305 319/76/305 315/66/305
f 312/75/252 310/79/252 308/81/252
f 312/75/306 308/81/306 316/82/306
f 312/75/306 316/82/306 319/76/306
f 312/75/371 311/74/371 310/79/371
f 313/72/253 312/75/253 309/65/253
f 313/72/372 311/74/372 312/75/372
f 314/22/254 318/11/254 320/14/254
f 314/22/320 300/24/320 286/63/320
f 314/22/373 317/17/373 318/11/373
f 315/66/309 317/73/309 334/48/309
f 315/66/309 334/48/309 330/58/309
f 315/66/327 322/57/327 309/65/327
f 315/66/327 330/58/327 322/57/327
f 317/17/310 314/22/310 328/41/310
f 317/17/310 328/41/310 334/25/310
f 319/76/255 317/73/255 315/66/255
f 319/76/374 318/77/374 317/73/374
f 320/80/256 319/76/256 316/82/256
f 320/80/375 318/77/375 319/76/375
f 321/261/257 325/226/257 327/260/257
f 321/261/317 209/313/317 223/357/317
f 321/261/376 324/225/376 325/226/376
f 322/57/307 313/72/307 309/65/307
f 322/57/307 324/47/307 313/72/307
f 323/26/311 326/37/311 333/38/311
f 323/26/311 333/38/311 329/27/311
f 324/225/308 307/214/308 313/205/308
f 324/225/308 321/261/308 307/214/308
f 326/37/258 324/47/258 322/57/258
f 326/37/312 322/57/312 330/58/312
f 326/37/312 330/58/312 333/38/312
f 326/37/377 325/36/377 324/47/377
f 327/28/259 326/37/259 323/26/259
f 327/28/378 325/36/378 326/37/378
f 328/41/260 332/30/260 334/25/260
f 328/41/379 331/40/379 332/30/379
f 329/27/319 210/15/319 323/26/319
f 329/27/319 218/16/319 210/15/319
f 331/40/316 216/86/316 222/78/316
f 331/40/316 328/41/316 216/86/316
f 333/38/261 331/29/261 329/27/261
f 333/38/380 332/39/380 331/29/380
f 334/48/262 333/38/262 330/58/262
f 334/48/381 332/39/381 333/38/381
g ow_cairn_signboard_Cube.203
v -0.259851 1.125831 -0.039360
v -0.258298 1.143610 -0.057513
v -0.239307 1.140794 -0.040797
v -0.259916 1.131039 -0.052114
v -0.249149 1.131720 -0.050526
v -0.245389 1.141619 -0.053130
v -0.246488 1.129048 -0.040294
v -0.217100 1.404360 -0.060393
v -0.213035 1.422138 -0.042634
v -0.198109 1.401544 -0.043677
v -0.214746 1.416931 -0.055273
v -0.204708 1.412998 -0.053634
v -0.201317 1.414940 -0.043453
v -0.204191 1.402369 -0.056011
v -0.255387 1.125831 0.024484
v -0.234843 1.140794 0.023048
v -0.251322 1.143610 0.042244
v -0.242023 1.129048 0.023550
v -0.243235 1.131720 0.034052
v -0.239149 1.141619 0.036108
v -0.253676 1.131039 0.037123
v -0.208571 1.422138 0.021210
v -0.210124 1.404360 0.039363
v -0.193644 1.401544 0.020167
v -0.208506 1.416931 0.033965
v -0.198794 1.412998 0.030944
v -0.197951 1.402369 0.033227
v -0.196853 1.414940 0.020391
v -1.091429 1.257862 0.018790
v -1.106355 1.278456 0.019833
v -1.089876 1.275640 0.000637
v -1.103147 1.265060 0.019609
v -1.101206 1.267002 0.009056
v -1.102049 1.277632 0.006773
v -1.091494 1.263069 0.006035
v -1.044613 1.554169 0.015516
v -1.048678 1.536390 -0.002244
v -1.065157 1.539206 0.016952
v -1.046324 1.548961 0.002877
v -1.056765 1.548280 0.005948
v -1.060851 1.538381 0.003892
v -1.057977 1.550953 0.016450
v -1.086965 1.257862 0.082634
v -1.082900 1.275640 0.100393
v -1.101891 1.278456 0.083677
v -1.085254 1.263069 0.095273
v -1.095292 1.267002 0.093634
v -1.095809 1.277632 0.096011
v -1.098683 1.265060 0.083453
v -1.040149 1.554169 0.079360
v -1.060693 1.539206 0.080797
v -1.041702 1.536390 0.097513
v -1.053512 1.550953 0.080294
v -1.050851 1.548280 0.090526
v -1.054611 1.538381 0.093130
v -1.040084 1.548961 0.092114
vn 0.2038 -0.9330 -0.2967
vn 0.1585 -0.4067 -0.8997
vn 0.8038 -0.4169 -0.4243
vn 0.3439 0.2208 -0.9127
vn 0.3903 0.8315 -0.3954
vn 0.9111 0.2240 -0.3461
vn 0.1649 -0.9196 0.3565
vn 0.8358 -0.5013 0.2240
vn 0.3796 -0.3357 0.8621
vn 0.5198 0.8181 0.2461
vn 0.3967 0.3186 0.8609
vn 0.9430 0.1396 0.3021
vn -0.4415 -0.8315 -0.3372
vn -0.9504 -0.2240 -0.2160
vn -0.4676 -0.2208 -0.8559
vn -0.2431 0.9330 -0.2654
vn -0.2821 0.4067 -0.8689
vn -0.8550 0.4169 -0.3083
vn -0.4805 -0.8181 0.3160
vn -0.2731 -0.3186 0.9077
vn -0.8918 -0.1396 0.4304
vn -0.1137 0.9196 0.3760
vn -0.7965 0.5013 0.3381
vn -0.2560 0.3357 0.9065
vn 0.2329 -0.9724 -0.0163
vn 0.8506 -0.5225 -0.0595
vn 0.3126 -0.0599 -0.9480
vn 0.8836 -0.1445 -0.4454
vn 0.5212 0.8526 -0.0364
vn 0.9700 0.2334 -0.0678
vn 0.4415 -0.0599 0.8953
vn 0.9370 -0.1445 0.3181
vn -0.1175 -0.9125 0.3918
vn 0.0047 -0.3780 0.9258
vn 0.1709 0.9125 0.3717
vn 0.1242 0.3780 0.9175
vn -0.8836 0.1445 0.4454
vn -0.3126 0.0599 0.9480
vn -0.5212 -0.8526 0.0364
vn -0.9700 -0.2334 0.0678
vn -0.2329 0.9724 0.0163
vn -0.8506 0.5225 0.0595
vn -0.4415 0.0599 -0.8953
vn -0.9370 0.1445 -0.3181
vn -0.1709 -0.9125 -0.3717
vn -0.1242 -0.3780 -0.9175
vn 0.1175 0.9125 -0.3918
vn -0.0047 0.3780 -0.9258
vn -0.1561 -0.9877 0.0109
vn 0.9853 -0.1564 -0.0689
vn -0.0698 -0.0000 -0.9976
vn 0.1561 0.9877 -0.0109
vn 0.0698 -0.0000 0.9976
vn -0.9853 0.1564 0.0689
vn 0.1137 -0.9196 -0.3760
vn 0.2560 -0.3357 -0.9065
vn 0.7965 -0.5013 -0.3381
vn 0.2731 0.3186 -0.9077
vn 0.4805 0.8181 -0.3160
vn 0.8918 0.1396 -0.4304
vn 0.2431 -0.9330 0.2654
vn 0.8550 -0.4169 0.3083
vn 0.2821 -0.4067 0.8689
vn 0.4415 0.8315 0.3372
vn 0.4676 0.2208 0.8559
vn 0.9504 0.2240 0.2160
vn -0.5198 -0.8181 -0.2461
vn -0.9430 -0.1396 -0.3021
vn -0.3967 -0.3186 -0.8609
vn -0.1649 0.9196 -0.3565
vn -0.3796 0.3357 -0.8621
vn -0.8358 0.5013 -0.2240
vn -0.3903 -0.8315 0.3954
vn -0.3439 -0.2208 0.9127
vn -0.9111 -0.2240 0.3461
vn -0.2038 0.9330 0.2967
vn -0.8038 0.4169 0.4243
vn -0.1585 0.4067 0.8997
s 0
g ow_cairn_signboard_M_wood
usemtl M_wood
f 335/55/384 339/46/384 341/44/384
f 335/55/408 341/44/408 352/43/408
f 335/55/408 352/43/408 349/54/408
f 335/55/428 363/115/428 369/119/428
f 335/55/428 369/119/428 338/56/428
f 335/55/438 338/56/438 339/46/438
f 336/152/385 339/139/385 338/129/385
f 336/152/439 340/153/439 339/139/439
f 337/142/386 339/122/386 340/141/386
f 337/142/440 341/123/440 339/122/440
f 341/123/409 337/142/409 350/143/409
f 341/123/409 350/143/409 352/124/409
f 342/256/387 346/276/387 348/257/387
f 342/256/410 340/153/410 336/152/410
f 342/256/410 348/257/410 340/153/410
f 342/256/441 345/274/441 346/276/441
f 343/344/388 346/356/388 345/345/388
f 343/344/430 345/345/430 373/281/430
f 343/344/430 373/281/430 370/285/430
f 343/344/442 347/355/442 346/356/442
f 344/246/389 346/259/389 347/268/389
f 344/246/433 350/143/433 337/142/433
f 344/246/433 358/247/433 350/143/433
f 344/246/443 348/245/443 346/259/443
f 345/274/431 342/256/431 371/255/431
f 345/274/431 371/255/431 373/281/431
f 347/268/413 358/247/413 344/246/413
f 347/268/413 362/269/413 358/247/413
f 348/245/411 337/142/411 340/141/411
f 348/245/411 344/246/411 337/142/411
f 349/54/390 353/42/390 355/53/390
f 349/54/444 352/43/444 353/42/444
f 350/143/391 353/135/391 352/124/391
f 350/143/445 354/144/445 353/135/445
f 351/145/392 353/135/392 354/144/392
f 351/145/446 355/126/446 353/135/446
f 354/144/415 350/143/415 358/247/415
f 354/144/415 358/247/415 361/248/415
f 355/126/417 351/145/417 378/146/417
f 355/126/417 378/146/417 380/118/417
f 356/343/393 360/352/393 362/354/393
f 356/343/412 347/355/412 343/344/412
f 356/343/412 362/354/412 347/355/412
f 356/343/418 384/284/418 390/280/418
f 356/343/418 390/280/418 359/342/418
f 356/343/435 343/344/435 370/285/435
f 356/343/435 370/285/435 384/284/435
f 356/343/447 359/342/447 360/352/447
f 357/249/394 360/263/394 359/271/394
f 357/249/414 351/145/414 354/144/414
f 357/249/414 354/144/414 361/248/414
f 357/249/436 378/146/436 351/145/436
f 357/249/436 386/250/436 378/146/436
f 357/249/448 361/248/448 360/263/448
f 358/247/395 360/263/395 361/248/395
f 358/247/449 362/269/449 360/263/449
f 363/115/396 367/133/396 369/119/396
f 363/115/450 366/128/450 367/133/450
f 364/149/397 367/133/397 366/128/397
f 364/149/451 368/150/451 367/133/451
f 365/151/398 367/133/398 368/150/398
f 365/151/452 369/119/452 367/133/452
f 368/150/427 364/149/427 372/253/427
f 368/150/427 372/253/427 375/254/427
f 369/119/429 336/152/429 338/129/429
f 369/119/429 365/151/429 336/152/429
f 370/285/399 374/267/399 376/273/399
f 370/285/424 376/273/424 387/272/424
f 370/285/424 387/272/424 384/284/424
f 370/285/453 373/281/453 374/267/453
f 371/255/400 374/267/400 373/281/400
f 371/255/426 365/151/426 368/150/426
f 371/255/426 368/150/426 375/254/426
f 371/255/434 336/152/434 365/151/434
f 371/255/434 342/256/434 336/152/434
f 371/255/454 375/254/454 374/267/454
f 372/253/401 374/267/401 375/254/401
f 372/253/455 376/273/455 374/267/455
f 376/273/425 372/253/425 385/252/425
f 376/273/425 385/252/425 387/272/425
f 377/114/402 381/131/402 383/127/402
f 377/114/416 349/54/416 355/53/416
f 377/114/416 355/53/416 380/118/416
f 377/114/422 366/128/422 363/115/422
f 377/114/422 383/127/422 366/128/422
f 377/114/432 335/55/432 349/54/432
f 377/114/432 363/115/432 335/55/432
f 377/114/456 380/118/456 381/131/456
f 378/146/403 381/131/403 380/118/403
f 378/146/457 382/147/457 381/131/457
f 379/148/404 381/131/404 382/147/404
f 379/148/420 382/147/420 389/251/420
f 379/148/420 389/251/420 385/252/420
f 379/148/458 383/127/458 381/131/458
f 383/127/423 364/149/423 366/128/423
f 383/127/423 379/148/423 364/149/423
f 384/284/405 388/265/405 390/280/405
f 384/284/459 387/272/459 388/265/459
f 385/252/406 388/265/406 387/272/406
f 385/252/437 364/149/437 379/148/437
f 385/252/437 372/253/437 364/149/437
f 385/252/460 389/251/460 388/265/460
f 386/250/407 388/265/407 389/251/407
f 386/250/461 390/280/461 388/265/461
f 389/251/421 378/146/421 386/250/421
f 389/251/421 382/147/421 378/146/421
f 390/280/419 357/249/419 359/271/419
f 390/280/419 386/250/419 357/249/419
g ow_cairn_sign_tip_Cone.048
v -0.930000 1.340000 0.180000
v -0.930000 1.180000 0.020000
v -0.930000 1.340000 -0.140000
v -0.930000 1.500000 0.020000
v -1.350000 1.340000 0.020000
vn -0.2601 -0.6828 0.6828
vn -0.2601 -0.6828 -0.6828
vn 1.0000 -0.0000 -0.0000
vn -0.2601 0.6828 -0.6828
vn -0.2601 0.6828 0.6828
s 0
g ow_cairn_sign_tip_M_wood
usemtl M_wood
f 391/87/462 395/85/462 392/196/462
f 392/196/463 395/85/463 393/84/463
f 392/388/464 393/312/464 394/202/464
f 392/388/464 394/202/464 391/314/464
f 393/84/465 395/85/465 394/10/465
f 394/10/466 395/85/466 391/87/466
g ow_cairn_mark_Cube.204
v -0.404500 1.320000 -0.053000
v -0.404500 1.324500 -0.057500
v -0.400000 1.324500 -0.053000
v -0.404500 1.321318 -0.056182
v -0.401902 1.321902 -0.055598
v -0.401318 1.324500 -0.056182
v -0.401318 1.321318 -0.053000
v -0.404500 1.375500 -0.057500
v -0.404500 1.380000 -0.053000
v -0.400000 1.375500 -0.053000
v -0.404500 1.378682 -0.056182
v -0.401902 1.378098 -0.055598
v -0.401318 1.378682 -0.053000
v -0.401318 1.375500 -0.056182
v -0.404500 1.320000 -0.037000
v -0.400000 1.324500 -0.037000
v -0.404500 1.324500 -0.032500
v -0.401318 1.321318 -0.037000
v -0.401902 1.321902 -0.034402
v -0.401318 1.324500 -0.033818
v -0.404500 1.321318 -0.033818
v -0.404500 1.380000 -0.037000
v -0.404500 1.375500 -0.032500
v -0.400000 1.375500 -0.037000
v -0.404500 1.378682 -0.033818
v -0.401902 1.378098 -0.034402
v -0.401318 1.375500 -0.033818
v -0.401318 1.378682 -0.037000
v -0.675500 1.320000 -0.053000
v -0.680000 1.324500 -0.053000
v -0.675500 1.324500 -0.057500
v -0.678682 1.321318 -0.053000
v -0.678098 1.321902 -0.055598
v -0.678682 1.324500 -0.056182
v -0.675500 1.321318 -0.056182
v -0.675500 1.380000 -0.053000
v -0.675500 1.375500 -0.057500
v -0.680000 1.375500 -0.053000
v -0.675500 1.378682 -0.056182
v -0.678098 1.378098 -0.055598
v -0.678682 1.375500 -0.056182
v -0.678682 1.378682 -0.053000
v -0.675500 1.320000 -0.037000
v -0.675500 1.324500 -0.032500
v -0.680000 1.324500 -0.037000
v -0.675500 1.321318 -0.033818
v -0.678098 1.321902 -0.034402
v -0.678682 1.324500 -0.033818
v -0.678682 1.321318 -0.037000
v -0.675500 1.380000 -0.037000
v -0.680000 1.375500 -0.037000
v -0.675500 1.375500 -0.032500
v -0.678682 1.378682 -0.037000
v -0.678098 1.378098 -0.034402
v -0.678682 1.375500 -0.033818
v -0.675500 1.378682 -0.033818
vn 0.3672 -0.8865 -0.2817
vn 0.2817 -0.3672 -0.8865
vn 0.8865 -0.2817 -0.3672
vn 0.3672 0.2817 -0.8865
vn 0.2817 0.8865 -0.3672
vn 0.8865 0.3672 -0.2817
vn 0.2817 -0.8865 0.3672
vn 0.8865 -0.3672 0.2817
vn 0.3672 -0.2817 0.8865
vn 0.3672 0.8865 0.2817
vn 0.2817 0.3672 0.8864
vn 0.8865 0.2817 0.3672
vn -0.2817 -0.8865 -0.3672
vn -0.8865 -0.3672 -0.2817
vn -0.3672 -0.2817 -0.8865
vn -0.3672 0.8865 -0.2817
vn -0.2817 0.3672 -0.8865
vn -0.8865 0.2817 -0.3672
vn -0.3672 -0.8865 0.2817
vn -0.2817 -0.3672 0.8864
vn -0.8865 -0.2817 0.3672
vn -0.2817 0.8865 0.3672
vn -0.8865 0.3672 0.2817
vn -0.3672 0.2817 0.8865
vn 0.3827 -0.9239 -0.0000
vn 0.9239 -0.3827 -0.0000
vn 0.3827 -0.0000 -0.9239
vn 0.9239 -0.0000 -0.3827
vn 0.3827 0.9239 -0.0000
vn 0.9239 0.3827 -0.0000
vn 0.3827 -0.0000 0.9239
vn 0.9239 -0.0000 0.3827
vn -0.0000 -0.9239 0.3827
vn -0.0000 -0.3827 0.9239
vn -0.0000 0.9239 0.3827
vn -0.0000 0.3827 0.9239
vn -0.9239 -0.0000 0.3827
vn -0.3827 -0.0000 0.9239
vn -0.3827 -0.9239 -0.0000
vn -0.9239 -0.3827 -0.0000
vn -0.3827 0.9239 -0.0000
vn -0.9239 0.3827 -0.0000
vn -0.3827 -0.0000 -0.9239
vn -0.9239 -0.0000 -0.3827
vn -0.0000 -0.9239 -0.3827
vn -0.0000 -0.3827 -0.9239
vn -0.0000 0.9239 -0.3827
vn -0.0000 0.3827 -0.9239
vn -0.0000 -1.0000 -0.0000
vn 1.0000 -0.0000 -0.0000
vn -0.0000 -0.0000 -1.0000
vn -0.0000 1.0000 -0.0000
vn -0.0000 -0.0000 1.0000
vn -1.0000 -0.0000 -0.0000
vn 0.2817 -0.8865 -0.3672
vn 0.3672 -0.2817 -0.8865
vn 0.8865 -0.3672 -0.2817
vn 0.2817 0.3672 -0.8865
vn 0.3672 0.8865 -0.2817
vn 0.8865 0.2817 -0.3672
vn 0.3672 -0.8865 0.2817
vn 0.8865 -0.2817 0.3672
vn 0.2817 -0.3672 0.8864
vn 0.2817 0.8865 0.3672
vn 0.3672 0.2817 0.8865
vn 0.8865 0.3672 0.2817
vn -0.3672 -0.8865 -0.2817
vn -0.8865 -0.2817 -0.3672
vn -0.2817 -0.3672 -0.8865
vn -0.2817 0.8865 -0.3672
vn -0.3672 0.2817 -0.8865
vn -0.8865 0.3672 -0.2817
vn -0.2817 -0.8865 0.3672
vn -0.3672 -0.2817 0.8865
vn -0.8865 -0.3672 0.2817
vn -0.3672 0.8865 0.2817
vn -0.8865 0.2817 0.3672
vn -0.2817 0.3672 0.8864
s 0
g ow_cairn_mark_M_gold
usemtl M_gold
f 396/51/467 400/45/467 402/44/467
f 396/51/491 402/44/491 413/43/491
f 396/51/491 413/43/491 410/50/491
f 396/51/521 399/52/521 400/45/521
f 397/165/468 400/140/468 399/130/468
f 397/165/522 401/166/522 400/140/522
f 398/155/469 400/122/469 401/154/469
f 398/155/523 402/123/523 400/122/523
f 399/130/512 426/164/512 397/165/512
f 399/130/512 430/121/512 426/164/512
f 402/123/492 398/155/492 411/156/492
f 402/123/492 411/156/492 413/124/492
f 403/243/470 407/277/470 409/244/470
f 403/243/493 401/166/493 397/165/493
f 403/243/493 409/244/493 401/166/493
f 403/243/524 406/275/524 407/277/524
f 404/348/471 407/356/471 406/349/471
f 404/348/513 406/349/513 434/279/513
f 404/348/513 434/279/513 431/283/513
f 404/348/525 408/355/525 407/356/525
f 405/233/472 407/258/472 408/268/472
f 405/233/516 411/156/516 398/155/516
f 405/233/516 419/234/516 411/156/516
f 405/233/526 409/232/526 407/258/526
f 409/232/494 398/155/494 401/154/494
f 409/232/494 405/233/494 398/155/494
f 410/50/473 414/42/473 416/49/473
f 410/50/499 416/49/499 441/120/499
f 410/50/499 441/120/499 438/116/499
f 410/50/527 413/43/527 414/42/527
f 411/156/474 414/136/474 413/124/474
f 411/156/528 415/157/528 414/136/528
f 412/158/475 414/136/475 415/157/475
f 412/158/497 415/157/497 422/235/497
f 412/158/497 422/235/497 418/236/497
f 412/158/529 416/125/529 414/136/529
f 415/157/498 411/156/498 419/234/498
f 415/157/498 419/234/498 422/235/498
f 417/347/476 421/353/476 423/354/476
f 417/347/495 408/355/495 404/348/495
f 417/347/495 423/354/495 408/355/495
f 417/347/518 404/348/518 431/283/518
f 417/347/518 431/283/518 445/282/518
f 417/347/530 420/346/530 421/353/530
f 418/236/477 421/262/477 420/270/477
f 418/236/519 439/159/519 412/158/519
f 418/236/519 447/237/519 439/159/519
f 418/236/531 422/235/531 421/262/531
f 419/234/478 421/262/478 422/235/478
f 419/234/532 423/269/532 421/262/532
f 420/270/502 447/237/502 418/236/502
f 420/270/502 451/278/502 447/237/502
f 423/269/496 405/233/496 408/268/496
f 423/269/496 419/234/496 405/233/496
f 424/117/479 428/134/479 430/121/479
f 424/117/511 399/52/511 396/51/511
f 424/117/511 430/121/511 399/52/511
f 424/117/533 427/128/533 428/134/533
f 425/162/480 428/134/480 427/128/480
f 425/162/534 429/163/534 428/134/534
f 426/164/481 428/134/481 429/163/481
f 426/164/509 429/163/509 436/241/509
f 426/164/509 436/241/509 432/242/509
f 426/164/535 430/121/535 428/134/535
f 429/163/510 425/162/510 433/240/510
f 429/163/510 433/240/510 436/241/510
f 431/283/482 435/266/482 437/273/482
f 431/283/507 437/273/507 448/272/507
f 431/283/507 448/272/507 445/282/507
f 431/283/536 434/279/536 435/266/536
f 432/242/483 435/266/483 434/279/483
f 432/242/517 397/165/517 426/164/517
f 432/242/517 403/243/517 397/165/517
f 432/242/537 436/241/537 435/266/537
f 433/240/484 435/266/484 436/241/484
f 433/240/538 437/273/538 435/266/538
f 434/279/514 403/243/514 432/242/514
f 434/279/514 406/275/514 403/243/514
f 437/273/508 433/240/508 446/239/508
f 437/273/508 446/239/508 448/272/508
f 438/116/485 442/132/485 444/127/485
f 438/116/505 427/128/505 424/117/505
f 438/116/505 444/127/505 427/128/505
f 438/116/515 396/51/515 410/50/515
f 438/116/515 424/117/515 396/51/515
f 438/116/539 441/120/539 442/132/539
f 439/159/486 442/132/486 441/120/486
f 439/159/540 443/160/540 442/132/540
f 440/161/487 442/132/487 443/160/487
f 440/161/503 443/160/503 450/238/503
f 440/161/503 450/238/503 446/239/503
f 440/161/541 444/127/541 442/132/541
f 441/120/500 412/158/500 439/159/500
f 441/120/500 416/125/500 412/158/500
f 443/160/504 439/159/504 447/237/504
f 443/160/504 447/237/504 450/238/504
f 444/127/506 425/162/506 427/128/506
f 444/127/506 440/161/506 425/162/506
f 445/282/488 449/264/488 451/278/488
f 445/282/501 420/346/501 417/347/501
f 445/282/501 451/278/501 420/346/501
f 445/282/542 448/272/542 449/264/542
f 446/239/489 449/264/489 448/272/489
f 446/239/520 425/162/520 440/161/520
f 446/239/520 433/240/520 425/162/520
f 446/239/543 450/238/543 449/264/543
f 447/237/490 449/264/490 450/238/490
f 447/237/544 451/278/544 449/264/544
