# Blender 5.2.0 LTS
# www.blender.org
mtllib traveler_camp_firepit_lod1.mtl
g ow_firepit_lod1_ring_Torus.027
v -0.660000 0.140000 0.000000
v -0.618995 0.238995 0.000000
v -0.520000 0.280000 0.000000
v -0.421005 0.238995 0.000000
v -0.380000 0.140000 0.000000
v -0.421005 0.041005 0.000000
v -0.520000 0.000000 0.000000
v -0.618995 0.041005 0.000000
v -0.627697 0.140000 0.203951
v -0.588699 0.238995 0.191280
v -0.494549 0.280000 0.160689
v -0.400400 0.238995 0.130098
v -0.361401 0.140000 0.117426
v -0.400400 0.041005 0.130098
v -0.494549 0.000000 0.160689
v -0.588699 0.041005 0.191280
v -0.533951 0.140000 0.387938
v -0.500777 0.238995 0.363836
v -0.420689 0.280000 0.305648
v -0.340600 0.238995 0.247461
v -0.307426 0.140000 0.223358
v -0.340600 0.041005 0.247461
v -0.420689 0.000000 0.305648
v -0.500777 0.041005 0.363836
v -0.387938 0.140000 0.533951
v -0.363836 0.238995 0.500777
v -0.305648 0.280000 0.420689
v -0.247460 0.238995 0.340600
v -0.223358 0.140000 0.307426
v -0.247460 0.041005 0.340600
v -0.305648 0.000000 0.420689
v -0.363836 0.041005 0.500777
v -0.203951 0.140000 0.627697
v -0.191280 0.238995 0.588699
v -0.160689 0.280000 0.494549
v -0.130098 0.238995 0.400400
v -0.117427 0.140000 0.361401
v -0.130098 0.041005 0.400400
v -0.160689 0.000000 0.494549
v -0.191280 0.041005 0.588699
v -0.000000 0.140000 0.660000
v -0.000000 0.238995 0.618995
v -0.000000 0.280000 0.520000
v -0.000000 0.238995 0.421005
v -0.000000 0.140000 0.380000
v -0.000000 0.041005 0.421005
v -0.000000 0.000000 0.520000
v -0.000000 0.041005 0.618995
v 0.203951 0.140000 0.627697
v 0.191280 0.238995 0.588699
v 0.160689 0.280000 0.494549
v 0.130098 0.238995 0.400400
v 0.117426 0.140000 0.361401
v 0.130098 0.041005 0.400400
v 0.160689 0.000000 0.494549
v 0.191280 0.041005 0.588699
v 0.387938 0.140000 0.533951
v 0.363836 0.238995 0.500777
v 0.305648 0.280000 0.420689
v 0.247461 0.238995 0.340600
v 0.223358 0.140000 0.307426
v 0.247461 0.041005 0.340600
v 0.305648 0.000000 0.420689
v 0.363836 0.041005 0.500777
v 0.533951 0.140000 0.387938
v 0.500778 0.238995 0.363836
v 0.420689 0.280000 0.305648
v 0.340600 0.238995 0.247460
v 0.307427 0.140000 0.223358
v 0.340600 0.041005 0.247460
v 0.420689 0.000000 0.305648
v 0.500778 0.041005 0.363836
v 0.627697 0.140000 0.203951
v 0.588699 0.238995 0.191280
v 0.494549 0.280000 0.160689
v 0.400400 0.238995 0.130098
v 0.361401 0.140000 0.117426
v 0.400400 0.041005 0.130098
v 0.494549 0.000000 0.160689
v 0.588699 0.041005 0.191280
v 0.660000 0.140000 0.000000
v 0.618995 0.238995 0.000000
v 0.520000 0.280000 0.000000
v 0.421005 0.238995 0.000000
v 0.380000 0.140000 0.000000
v 0.421005 0.041005 0.000000
v 0.520000 0.000000 0.000000
v 0.618995 0.041005 0.000000
v 0.627697 0.140000 -0.203951
v 0.588699 0.238995 -0.191280
v 0.494549 0.280000 -0.160689
v 0.400400 0.238995 -0.130098
v 0.361402 0.140000 -0.117426
v 0.400400 0.041005 -0.130098
v 0.494549 0.000000 -0.160689
v 0.588699 0.041005 -0.191280
v 0.533951 0.140000 -0.387938
v 0.500778 0.238995 -0.363836
v 0.420689 0.280000 -0.305648
v 0.340600 0.238995 -0.247460
v 0.307427 0.140000 -0.223358
v 0.340600 0.041005 -0.247460
v 0.420689 0.000000 -0.305648
v 0.500778 0.041005 -0.363836
v 0.387938 0.140000 -0.533951
v 0.363836 0.238995 -0.500777
v 0.305648 0.280000 -0.420689
v 0.247461 0.238995 -0.340600
v 0.223358 0.140000 -0.307426
v 0.247461 0.041005 -0.340600
v 0.305648 0.000000 -0.420689
v 0.363836 0.041005 -0.500777
v 0.203951 0.140000 -0.627697
v 0.191280 0.238995 -0.588699
v 0.160689 0.280000 -0.494549
v 0.130098 0.238995 -0.400400
v 0.117426 0.140000 -0.361401
v 0.130098 0.041005 -0.400400
v 0.160689 0.000000 -0.494549
v 0.191280 0.041005 -0.588699
v -0.000000 0.140000 -0.660000
v -0.000000 0.238995 -0.618995
v -0.000000 0.280000 -0.520000
v -0.000000 0.238995 -0.421005
v -0.000000 0.140000 -0.380000
v -0.000000 0.041005 -0.421005
v -0.000000 0.000000 -0.520000
v -0.000000 0.041005 -0.618995
v -0.203951 0.140000 -0.627697
v -0.191280 0.238995 -0.588699
v -0.160689 0.280000 -0.494549
v -0.130098 0.238995 -0.400400
v -0.117427 0.140000 -0.361401
v -0.130098 0.041005 -0.400400
v -0.160689 0.000000 -0.494549
v -0.191280 0.041005 -0.588699
v -0.387938 0.140000 -0.533951
v -0.363836 0.238995 -0.500778
v -0.305648 0.280000 -0.420689
v -0.247460 0.238995 -0.340600
v -0.223358 0.140000 -0.307427
v -0.247460 0.041005 -0.340600
v -0.305648 0.000000 -0.420689
v -0.363836 0.041005 -0.500778
v -0.533951 0.140000 -0.387939
v -0.500777 0.238995 -0.363836
v -0.420689 0.280000 -0.305649
v -0.340600 0.238995 -0.247461
v -0.307426 0.140000 -0.223359
v -0.340600 0.041005 -0.247461
v -0.420689 0.000000 -0.305649
v -0.500777 0.041005 -0.363836
v -0.627697 0.140000 -0.203951
v -0.588699 0.238995 -0.191280
v -0.494549 0.280000 -0.160689
v -0.400400 0.238995 -0.130098
v -0.361401 0.140000 -0.117427
v -0.400400 0.041005 -0.130098
v -0.494549 0.000000 -0.160689
v -0.588699 0.041005 -0.191280
vn -1.0000 -0.0000 -0.0000
vn -0.7252 0.6885 -0.0000
vn -0.0382 0.9993 -0.0000
vn 0.6870 0.7267 -0.0000
vn 1.0000 -0.0000 -0.0000
vn 0.6870 -0.7267 -0.0000
vn -0.0382 -0.9993 -0.0000
vn -0.7252 -0.6885 -0.0000
vn -0.9511 -0.0000 0.3090
vn -0.6897 0.6885 0.2241
vn -0.0363 0.9993 0.0118
vn 0.6533 0.7267 -0.2123
vn 0.9511 -0.0000 -0.3090
vn 0.6533 -0.7267 -0.2123
vn -0.0363 -0.9993 0.0118
vn -0.6897 -0.6885 0.2241
vn -0.8090 -0.0000 0.5878
vn -0.5867 0.6885 0.4263
vn -0.0309 0.9993 0.0225
vn 0.5558 0.7267 -0.4038
vn 0.8090 -0.0000 -0.5878
vn 0.5558 -0.7267 -0.4038
vn -0.0309 -0.9993 0.0225
vn -0.5867 -0.6885 0.4263
vn -0.5878 -0.0000 0.8090
vn -0.4263 0.6885 0.5867
vn -0.0225 0.9993 0.0309
vn 0.4038 0.7267 -0.5558
vn 0.5878 -0.0000 -0.8090
vn 0.4038 -0.7267 -0.5558
vn -0.0225 -0.9993 0.0309
vn -0.4263 -0.6885 0.5867
vn -0.3090 -0.0000 0.9511
vn -0.2241 0.6885 0.6897
vn -0.0118 0.9993 0.0363
vn 0.2123 0.7267 -0.6533
vn 0.3090 -0.0000 -0.9511
vn 0.2123 -0.7267 -0.6533
vn -0.0118 -0.9993 0.0363
vn -0.2241 -0.6885 0.6897
vn -0.0000 -0.0000 1.0000
vn -0.0000 0.6885 0.7252
vn -0.0000 0.9993 0.0382
vn -0.0000 0.7267 -0.6870
vn -0.0000 -0.0000 -1.0000
vn -0.0000 -0.7267 -0.6870
vn -0.0000 -0.9993 0.0382
vn -0.0000 -0.6885 0.7252
vn 0.3090 -0.0000 0.9511
vn 0.2241 0.6885 0.6897
vn 0.0118 0.9993 0.0363
vn -0.2123 0.7267 -0.6533
vn -0.3090 -0.0000 -0.9511
vn -0.2123 -0.7267 -0.6533
vn 0.0118 -0.9993 0.0363
vn 0.2241 -0.6885 0.6897
vn 0.5878 -0.0000 0.8090
vn 0.4263 0.6885 0.5867
vn 0.0225 0.9993 0.0309
vn -0.4038 0.7267 -0.5558
vn -0.5878 -0.0000 -0.8090
vn -0.4038 -0.7267 -0.5558
vn 0.0225 -0.9993 0.0309
vn 0.4263 -0.6885 0.5867
vn 0.8090 -0.0000 0.5878
vn 0.5867 0.6885 0.4263
vn 0.0309 0.9993 0.0225
vn -0.5558 0.7267 -0.4038
vn -0.8090 -0.0000 -0.5878
vn -0.5558 -0.7267 -0.4038
vn 0.0309 -0.9993 0.0225
vn 0.5867 -0.6885 0.4263
vn 0.9511 -0.0000 0.3090
vn 0.6897 0.6885 0.2241
vn 0.0363 0.9993 0.0118
vn -0.6533 0.7267 -0.2123
vn -0.9511 -0.0000 -0.3090
vn -0.6533 -0.7267 -0.2123
vn 0.0363 -0.9993 0.0118
vn 0.6897 -0.6885 0.2241
vn 0.7252 0.6885 -0.0000
vn 0.0382 0.9993 -0.0000
vn -0.6870 0.7267 -0.0000
vn -0.6870 -0.7267 -0.0000
vn 0.0382 -0.9993 -0.0000
vn 0.7252 -0.6885 -0.0000
vn 0.6897 0.6885 -0.2241
vn 0.0363 0.9993 -0.0118
vn -0.6533 0.7267 0.2123
vn -0.6533 -0.7267 0.2123
vn 0.0363 -0.9993 -0.0118
vn 0.6897 -0.6885 -0.2241
vn 0.5867 0.6885 -0.4263
vn 0.0309 0.9993 -0.0225
vn -0.5558 0.7267 0.4038
vn -0.5558 -0.7267 0.4038
vn 0.0309 -0.9993 -0.0225
vn 0.5867 -0.6885 -0.4263
vn 0.4263 0.6885 -0.5867
vn 0.0225 0.9993 -0.0309
vn -0.4038 0.7267 0.5558
vn -0.4038 -0.7267 0.5558
vn 0.0225 -0.9993 -0.0309
vn 0.4263 -0.6885 -0.5867
vn 0.2241 0.6885 -0.6897
vn 0.0118 0.9993 -0.0363
vn -0.2123 0.7267 0.6533
vn -0.2123 -0.7267 0.6533
vn 0.0118 -0.9993 -0.0363
vn 0.2241 -0.6885 -0.6897
vn -0.0000 0.6885 -0.7252
vn -0.0000 0.9993 -0.0382
vn -0.0000 0.7267 0.6870
vn -0.0000 -0.7267 0.6870
vn -0.0000 -0.9993 -0.0382
vn -0.0000 -0.6885 -0.7252
vn -0.2241 0.6885 -0.6897
vn -0.0118 0.9993 -0.0363
vn 0.2123 0.7267 0.6533
vn 0.2123 -0.7267 0.6533
vn -0.0118 -0.9993 -0.0363
vn -0.2241 -0.6885 -0.6897
vn -0.4263 0.6885 -0.5867
vn -0.0225 0.9993 -0.0309
vn 0.4038 0.7267 0.5558
vn 0.4038 -0.7267 0.5558
vn -0.0225 -0.9993 -0.0309
vn -0.4263 -0.6885 -0.5867
vn -0.5867 0.6885 -0.4263
vn -0.0309 0.9993 -0.0225
vn 0.5558 0.7267 0.4038
vn 0.5558 -0.7267 0.4038
vn -0.0309 -0.9993 -0.0225
vn -0.5867 -0.6885 -0.4263
vn -0.6897 0.6885 -0.2241
vn -0.0363 0.9993 -0.0118
vn 0.6533 0.7267 0.2123
vn 0.6533 -0.7267 0.2123
vn -0.0363 -0.9993 -0.0118
vn -0.6897 -0.6885 -0.2241
vt 0.00000 0.00000
vt 0.00000 0.12500
vt 0.00000 0.25000
vt 0.00000 0.37500
vt 0.00000 0.50000
vt 0.00000 0.62500
vt 0.00000 0.75000
vt 0.00000 0.87500
vt 0.00000 1.00000
vt 0.01602 0.19659
vt 0.05000 0.00000
vt 0.05000 0.12500
vt 0.05000 0.25000
vt 0.05000 0.37500
vt 0.05000 0.50000
vt 0.05000 0.62500
vt 0.05000 0.75000
vt 0.05000 0.87500
vt 0.05000 1.00000
vt 0.06236 0.39964
vt 0.10000 0.00000
vt 0.10000 0.12500
vt 0.10000 0.25000
vt 0.10000 0.37500
vt 0.10000 0.50000
vt 0.10000 0.62500
vt 0.10000 0.75000
vt 0.10000 0.87500
vt 0.10000 1.00000
vt 0.12500 0.51057
vt 0.12500 0.52500
vt 0.12500 0.72500
vt 0.12707 0.75000
vt 0.12990 0.50000
vt 0.12990 0.52500
vt 0.12990 0.72500
vt 0.12990 0.75000
vt 0.14587 0.03377
vt 0.15000 0.00000
vt 0.15000 0.12500
vt 0.15000 0.25000
vt 0.15000 0.37500
vt 0.15000 0.50000
vt 0.15000 0.62500
vt 0.15000 0.75000
vt 0.15000 0.87500
vt 0.15000 1.00000
vt 0.20000 0.00000
vt 0.20000 0.12500
vt 0.20000 0.25000
vt 0.20000 0.37500
vt 0.20000 0.50000
vt 0.20000 0.62500
vt 0.20000 0.75000
vt 0.20000 0.87500
vt 0.20000 1.00000
vt 0.25000 0.00000
vt 0.25000 0.12500
vt 0.25000 0.25000
vt 0.25000 0.37500
vt 0.25000 0.49000
vt 0.25000 0.50000
vt 0.25000 0.62500
vt 0.25000 0.75000
vt 0.25000 0.87500
vt 0.25000 1.00000
vt 0.30000 0.00000
vt 0.30000 0.12500
vt 0.30000 0.25000
vt 0.30000 0.37500
vt 0.30000 0.50000
vt 0.30000 0.62500
vt 0.30000 0.75000
vt 0.30000 0.87500
vt 0.30000 1.00000
vt 0.35000 0.00000
vt 0.35000 0.12500
vt 0.35000 0.25000
vt 0.35000 0.37500
vt 0.35000 0.50000
vt 0.35000 0.62500
vt 0.35000 0.75000
vt 0.35000 0.87500
vt 0.35000 1.00000
vt 0.35413 0.03377
vt 0.37010 0.52500
vt 0.37010 0.72500
vt 0.37255 0.49755
vt 0.37255 0.75245
vt 0.37500 0.01057
vt 0.37500 0.02500
vt 0.37500 0.22500
vt 0.37500 0.25490
vt 0.37500 0.52500
vt 0.37500 0.72500
vt 0.37500 0.99510
vt 0.37822 0.50352
vt 0.37891 0.74717
vt 0.38087 0.25104
vt 0.38674 1.00000
vt 0.40000 0.00000
vt 0.40000 0.12500
vt 0.40000 0.25000
vt 0.40000 0.37500
vt 0.40000 0.50000
vt 0.40000 0.62500
vt 0.40000 0.75000
vt 0.40000 0.87500
vt 0.40000 1.00000
vt 0.40278 0.00000
vt 0.40278 0.02500
vt 0.40278 0.22500
vt 0.40278 0.25000
vt 0.40278 0.25490
vt 0.40278 0.49510
vt 0.40278 0.50000
vt 0.40278 0.52500
vt 0.40278 0.72500
vt 0.40278 0.75000
vt 0.40278 0.75490
vt 0.40278 0.99510
vt 0.40278 1.00000
vt 0.43764 0.39964
vt 0.45000 0.00000
vt 0.45000 0.12500
vt 0.45000 0.25000
vt 0.45000 0.37500
vt 0.45000 0.50000
vt 0.45000 0.62500
vt 0.45000 0.75000
vt 0.45000 0.87500
vt 0.45000 1.00000
vt 0.48398 0.19659
vt 0.50000 0.00000
vt 0.50000 0.12500
vt 0.50000 0.25000
vt 0.50000 0.37500
vt 0.50000 0.50000
vt 0.50000 0.62500
vt 0.50000 0.75000
vt 0.50000 0.87500
vt 0.50000 1.00000
vt 0.51602 0.19659
vt 0.55000 0.00000
vt 0.55000 0.12500
vt 0.55000 0.25000
vt 0.55000 0.37500
vt 0.55000 0.50000
vt 0.55000 0.62500
vt 0.55000 0.75000
vt 0.55000 0.87500
vt 0.55000 1.00000
vt 0.56236 0.39964
vt 0.59722 0.00000
vt 0.59722 0.02500
vt 0.59722 0.22500
vt 0.59722 0.25000
vt 0.59722 0.25490
vt 0.59722 0.49510
vt 0.59722 0.50000
vt 0.59722 0.52500
vt 0.59722 0.72500
vt 0.59722 0.75000
vt 0.59722 0.75490
vt 0.59722 0.99510
vt 0.59722 1.00000
vt 0.60000 0.00000
vt 0.60000 0.12500
vt 0.60000 0.25000
vt 0.60000 0.37500
vt 0.60000 0.50000
vt 0.60000 0.62500
vt 0.60000 0.75000
vt 0.60000 0.87500
vt 0.60000 1.00000
vt 0.61326 0.00000
vt 0.61913 0.24472
vt 0.62109 0.50283
vt 0.62178 0.74648
vt 0.62500 0.02500
vt 0.62500 0.22500
vt 0.62500 0.25490
vt 0.62500 0.52500
vt 0.62500 0.72500
vt 0.62500 0.99510
vt 0.62500 0.99793
vt 0.62745 0.49755
vt 0.62745 0.75245
vt 0.62990 0.52500
vt 0.62990 0.72500
vt 0.64587 0.03377
vt 0.65000 0.00000
vt 0.65000 0.12500
vt 0.65000 0.25000
vt 0.65000 0.37500
vt 0.65000 0.50000
vt 0.65000 0.62500
vt 0.65000 0.75000
vt 0.65000 0.87500
vt 0.65000 1.00000
vt 0.70000 0.00000
vt 0.70000 0.12500
vt 0.70000 0.25000
vt 0.70000 0.37500
vt 0.70000 0.50000
vt 0.70000 0.62500
vt 0.70000 0.75000
vt 0.70000 0.87500
vt 0.70000 1.00000
vt 0.75000 0.00000
vt 0.75000 0.12500
vt 0.75000 0.25000
vt 0.75000 0.37500
vt 0.75000 0.49000
vt 0.75000 0.50000
vt 0.75000 0.62500
vt 0.75000 0.75000
vt 0.75000 0.87500
vt 0.75000 1.00000
vt 0.80000 0.00000
vt 0.80000 0.12500
vt 0.80000 0.25000
vt 0.80000 0.37500
vt 0.80000 0.50000
vt 0.80000 0.62500
vt 0.80000 0.75000
vt 0.80000 0.87500
vt 0.80000 1.00000
vt 0.85000 0.00000
vt 0.85000 0.12500
vt 0.85000 0.25000
vt 0.85000 0.37500
vt 0.85000 0.50000
vt 0.85000 0.62500
vt 0.85000 0.75000
vt 0.85000 0.87500
vt 0.85000 1.00000
vt 0.85413 0.03377
vt 0.87010 0.50000
vt 0.87010 0.52500
vt 0.87010 0.72500
vt 0.87010 0.75000
vt 0.87293 0.50000
vt 0.87500 0.52500
vt 0.87500 0.72500
vt 0.87500 0.73943
vt 0.90000 0.00000
vt 0.90000 0.12500
vt 0.90000 0.25000
vt 0.90000 0.37500
vt 0.90000 0.50000
vt 0.90000 0.62500
vt 0.90000 0.75000
vt 0.90000 0.87500
vt 0.90000 1.00000
vt 0.93764 0.39964
vt 0.95000 0.00000
vt 0.95000 0.12500
vt 0.95000 0.25000
vt 0.95000 0.37500
vt 0.95000 0.50000
vt 0.95000 0.62500
vt 0.95000 0.75000
vt 0.95000 0.87500
vt 0.95000 1.00000
vt 0.98398 0.19659
vt 1.00000 0.00000
vt 1.00000 0.12500
vt 1.00000 0.25000
vt 1.00000 0.37500
vt 1.00000 0.50000
vt 1.00000 0.62500
vt 1.00000 0.75000
vt 1.00000 0.87500
vt 1.00000 1.00000
s 1
g ow_firepit_lod1_ring_M_stone
usemtl M_stone
f 1/148/1 154/139/135 153/138/77
f 1/148/1 2/149/2 154/139/135
f 10/172/10 11/173/11 3/150/3
f 10/172/10 3/150/3 2/149/2
f 100/46/95 101/47/17 93/29/9
f 100/46/95 93/29/9 92/28/89
f 101/39/17 102/40/96 94/22/90
f 101/39/17 94/22/90 93/21/9
f 102/40/96 103/41/97 95/23/91
f 102/40/96 95/23/91 94/22/90
f 103/41/97 104/42/98 96/24/92
f 103/41/97 96/24/92 95/23/91
f 104/42/98 105/52/29 97/43/21
f 104/42/98 112/51/104 105/52/29
f 105/52/29 106/53/99 98/44/93
f 105/52/29 98/44/93 97/43/21
f 107/54/100 100/46/95 99/45/94
f 107/54/100 108/55/101 100/46/95
f 108/55/101 101/47/17 100/46/95
f 108/55/101 109/56/25 101/47/17
f 109/48/25 102/40/96 101/39/17
f 109/48/25 110/49/102 102/40/96
f 11/173/11 12/174/12 4/151/4
f 11/173/11 4/151/4 3/150/3
f 110/49/102 103/41/97 102/40/96
f 110/49/102 111/50/103 103/41/97
f 110/49/102 118/58/108 119/59/109
f 110/49/102 119/59/109 111/50/103
f 111/50/103 104/42/98 103/41/97
f 111/50/103 112/51/104 104/42/98
f 113/62/37 106/53/99 105/52/29
f 113/62/37 114/63/105 106/53/99
f 114/63/105 107/54/100 106/53/99
f 114/63/105 115/64/106 107/54/100
f 115/64/106 108/55/101 107/54/100
f 115/64/106 116/65/107 108/55/101
f 116/65/107 109/56/25 108/55/101
f 116/65/107 117/66/33 109/56/25
f 117/57/33 110/49/102 109/48/25
f 117/57/33 118/58/108 110/49/102
f 117/57/33 125/67/41 126/68/114
f 117/57/33 126/68/114 118/58/108
f 118/58/108 126/68/114 127/69/115
f 118/58/108 127/69/115 119/59/109
f 119/59/109 112/51/104 111/50/103
f 119/59/109 120/60/110 112/51/104
f 119/59/109 127/69/115 128/70/116
f 119/59/109 128/70/116 120/60/110
f 12/174/12 13/175/13 5/152/5
f 12/174/12 5/152/5 4/151/4
f 120/60/110 105/52/29 112/51/104
f 120/60/110 113/62/37 105/52/29
f 121/71/45 114/63/105 113/62/37
f 121/71/45 122/72/111 114/63/105
f 122/72/111 115/64/106 114/63/105
f 122/72/111 123/73/112 115/64/106
f 122/72/111 130/81/117 131/82/118
f 122/72/111 131/82/118 123/73/112
f 123/73/112 116/65/107 115/64/106
f 123/73/112 124/74/113 116/65/107
f 123/73/112 131/82/118 132/83/119
f 123/73/112 132/83/119 124/74/113
f 124/74/113 117/66/33 116/65/107
f 124/74/113 125/75/41 117/66/33
f 124/74/113 132/83/119 133/84/49
f 124/74/113 133/84/49 125/75/41
f 128/70/116 113/62/37 120/60/110
f 128/70/116 121/71/45 113/62/37
f 129/80/53 122/72/111 121/71/45
f 129/80/53 130/81/117 122/72/111
f 13/167/13 14/168/14 6/145/6
f 13/167/13 6/145/6 5/144/5
f 130/81/117 138/106/123 139/107/124
f 130/81/117 139/107/124 131/82/118
f 133/76/49 126/68/114 125/67/41
f 133/76/49 134/77/120 126/68/114
f 134/77/120 127/69/115 126/68/114
f 134/77/120 135/78/121 127/69/115
f 135/78/121 128/70/116 127/69/115
f 135/78/121 136/79/122 128/70/116
f 136/79/122 121/71/45 128/70/116
f 136/79/122 129/80/53 121/71/45
f 137/105/61 130/81/117 129/80/53
f 137/105/61 138/106/123 130/81/117
f 137/105/61 145/128/69 146/129/129
f 137/105/61 146/129/129 138/106/123
f 139/107/124 132/83/119 131/82/118
f 139/107/124 140/108/125 132/83/119
f 14/168/14 15/169/15 7/146/7
f 14/168/14 7/146/7 6/145/6
f 140/108/125 133/84/49 132/83/119
f 140/108/125 141/109/57 133/84/49
f 141/101/57 134/77/120 133/76/49
f 141/101/57 142/102/126 134/77/120
f 142/102/126 135/78/121 134/77/120
f 142/102/126 143/103/127 135/78/121
f 143/103/127 136/79/122 135/78/121
f 143/103/127 144/104/128 136/79/122
f 144/104/128 129/80/53 136/79/122
f 144/104/128 137/105/61 129/80/53
f 146/129/129 139/107/124 138/106/123
f 146/129/129 147/130/130 139/107/124
f 146/129/129 154/139/135 155/140/136
f 146/129/129 155/140/136 147/130/130
f 147/130/130 140/108/125 139/107/124
f 147/130/130 148/131/131 140/108/125
f 148/131/131 141/109/57 140/108/125
f 148/131/131 149/132/65 141/109/57
f 149/124/65 142/102/126 141/101/57
f 149/124/65 150/125/132 142/102/126
f 15/169/15 16/170/16 8/147/8
f 15/169/15 23/194/23 24/195/24
f 15/169/15 24/195/24 16/170/16
f 15/169/15 8/147/8 7/146/7
f 150/125/132 143/103/127 142/102/126
f 150/125/132 151/126/133 143/103/127
f 151/126/133 144/104/128 143/103/127
f 151/126/133 152/127/134 144/104/128
f 152/127/134 137/105/61 144/104/128
f 152/127/134 145/128/69 137/105/61
f 153/138/77 146/129/129 145/128/69
f 153/138/77 154/139/135 146/129/129
f 155/140/136 148/131/131 147/130/130
f 155/140/136 156/141/137 148/131/131
f 156/141/137 149/132/65 148/131/131
f 156/141/137 157/142/73 149/132/65
f 157/134/73 150/125/132 149/124/65
f 157/134/73 158/135/138 150/125/132
f 158/135/138 151/126/133 150/125/132
f 158/135/138 159/136/139 151/126/133
f 159/136/139 152/127/134 151/126/133
f 159/136/139 160/137/140 152/127/134
f 16/170/16 1/148/1 8/147/8
f 16/170/16 9/171/9 1/148/1
f 160/137/140 145/128/69 152/127/134
f 160/137/140 153/138/77 145/128/69
f 17/196/17 10/172/10 9/171/9
f 17/196/17 18/197/18 10/172/10
f 18/197/18 11/173/11 10/172/10
f 18/197/18 19/198/19 11/173/11
f 18/197/18 26/206/26 27/207/27
f 18/197/18 27/207/27 19/198/19
f 19/198/19 12/174/12 11/173/11
f 19/198/19 20/199/20 12/174/12
f 2/149/2 155/140/136 154/139/135
f 2/149/2 3/150/3 155/140/136
f 20/199/20 13/175/13 12/174/12
f 20/199/20 21/200/21 13/175/13
f 21/192/21 14/168/14 13/167/13
f 21/192/21 22/193/22 14/168/14
f 22/193/22 15/169/15 14/168/14
f 22/193/22 23/194/23 15/169/15
f 22/193/22 30/202/30 31/203/31
f 22/193/22 31/203/31 23/194/23
f 24/195/24 17/196/17 9/171/9
f 24/195/24 25/205/25 17/196/17
f 24/195/24 32/204/32 25/205/25
f 24/195/24 9/171/9 16/170/16
f 25/205/25 18/197/18 17/196/17
f 25/205/25 26/206/26 18/197/18
f 27/207/27 20/199/20 19/198/19
f 27/207/27 28/208/28 20/199/20
f 28/208/28 21/200/21 20/199/20
f 28/208/28 29/209/29 21/200/21
f 29/201/29 22/193/22 21/192/21
f 29/201/29 30/202/30 22/193/22
f 3/150/3 156/141/137 155/140/136
f 3/150/3 4/151/4 156/141/137
f 31/203/31 24/195/24 23/194/23
f 31/203/31 32/204/32 24/195/24
f 33/215/33 26/206/26 25/205/25
f 33/215/33 34/216/34 26/206/26
f 34/216/34 27/207/27 26/206/26
f 34/216/34 35/217/35 27/207/27
f 35/217/35 28/208/28 27/207/27
f 35/217/35 36/218/36 28/208/28
f 36/218/36 29/209/29 28/208/28
f 36/218/36 37/219/37 29/209/29
f 37/210/37 30/202/30 29/201/29
f 37/210/37 38/211/38 30/202/30
f 37/210/37 45/220/45 46/221/46
f 37/210/37 46/221/46 38/211/38
f 38/211/38 31/203/31 30/202/30
f 38/211/38 39/212/39 31/203/31
f 38/211/38 46/221/46 47/222/47
f 38/211/38 47/222/47 39/212/39
f 39/212/39 32/204/32 31/203/31
f 39/212/39 40/213/40 32/204/32
f 39/212/39 47/222/47 48/223/48
f 39/212/39 48/223/48 40/213/40
f 4/151/4 157/142/73 156/141/137
f 4/151/4 5/152/5 157/142/73
f 40/213/40 25/205/25 32/204/32
f 40/213/40 33/215/33 25/205/25
f 41/224/41 34/216/34 33/215/33
f 41/224/41 42/225/42 34/216/34
f 42/225/42 35/217/35 34/216/34
f 42/225/42 43/226/43 35/217/35
f 42/225/42 50/234/50 51/235/51
f 42/225/42 51/235/51 43/226/43
f 43/226/43 36/218/36 35/217/35
f 43/226/43 44/227/44 36/218/36
f 44/227/44 37/219/37 36/218/36
f 44/227/44 45/228/45 37/219/37
f 44/227/44 52/236/52 53/237/53
f 44/227/44 53/237/53 45/228/45
f 48/223/48 33/215/33 40/213/40
f 48/223/48 41/224/41 33/215/33
f 48/223/48 49/233/49 41/224/41
f 48/223/48 56/232/56 49/233/49
f 49/233/49 42/225/42 41/224/41
f 49/233/49 50/234/50 42/225/42
f 5/144/5 158/135/138 157/134/73
f 5/144/5 6/145/6 158/135/138
f 51/235/51 44/227/44 43/226/43
f 51/235/51 52/236/52 44/227/44
f 51/235/51 59/253/59 60/254/60
f 51/235/51 60/254/60 52/236/52
f 53/229/53 46/221/46 45/220/45
f 53/229/53 54/230/54 46/221/46
f 54/230/54 47/222/47 46/221/46
f 54/230/54 55/231/55 47/222/47
f 55/231/55 48/223/48 47/222/47
f 55/231/55 56/232/56 48/223/48
f 57/251/57 50/234/50 49/233/49
f 57/251/57 58/252/58 50/234/50
f 58/252/58 51/235/51 50/234/50
f 58/252/58 59/253/59 51/235/51
f 6/145/6 159/136/139 158/135/138
f 6/145/6 7/146/7 159/136/139
f 60/254/60 53/237/53 52/236/52
f 60/254/60 61/255/61 53/237/53
f 61/247/61 54/230/54 53/229/53
f 61/247/61 62/248/62 54/230/54
f 62/248/62 55/231/55 54/230/54
f 62/248/62 63/249/63 55/231/55
f 63/249/63 56/232/56 55/231/55
f 63/249/63 64/250/64 56/232/56
f 64/250/64 49/233/49 56/232/56
f 64/250/64 57/251/57 49/233/49
f 65/261/65 58/252/58 57/251/57
f 65/261/65 66/262/66 58/252/58
f 66/262/66 59/253/59 58/252/58
f 66/262/66 67/263/67 59/253/59
f 67/263/67 60/254/60 59/253/59
f 67/263/67 68/264/68 60/254/60
f 68/264/68 61/255/61 60/254/60
f 68/264/68 69/265/69 61/255/61
f 68/264/68 76/274/76 77/275/77
f 68/264/68 77/275/77 69/265/69
f 69/257/69 62/248/62 61/247/61
f 69/257/69 70/258/70 62/248/62
f 7/146/7 160/137/140 159/136/139
f 7/146/7 8/147/8 160/137/140
f 70/258/70 63/249/63 62/248/62
f 70/258/70 71/259/71 63/249/63
f 70/258/70 78/268/78 79/269/79
f 70/258/70 79/269/79 71/259/71
f 71/259/71 64/250/64 63/249/63
f 71/259/71 72/260/72 64/250/64
f 72/260/72 57/251/57 64/250/64
f 72/260/72 65/261/65 57/251/57
f 73/271/73 66/262/66 65/261/65
f 73/271/73 74/272/74 66/262/66
f 74/272/74 67/263/67 66/262/66
f 74/272/74 75/273/75 67/263/67
f 75/273/75 68/264/68 67/263/67
f 75/273/75 76/274/76 68/264/68
f 77/1/77 85/11/1 86/12/84
f 77/1/77 86/12/84 78/2/78
f 77/267/77 70/258/70 69/257/69
f 77/267/77 78/268/78 70/258/70
f 79/269/79 72/260/72 71/259/71
f 79/269/79 80/270/80 72/260/72
f 79/3/79 87/13/85 88/14/86
f 79/3/79 88/14/86 80/4/80
f 8/147/8 1/148/1 153/138/77
f 8/147/8 153/138/77 160/137/140
f 80/270/80 65/261/65 72/260/72
f 80/270/80 73/271/73 65/261/65
f 81/15/5 74/6/74 73/5/73
f 81/15/5 82/16/81 74/6/74
f 82/16/81 75/7/75 74/6/74
f 82/16/81 83/17/82 75/7/75
f 83/17/82 76/8/76 75/7/75
f 83/17/82 84/18/83 76/8/76
f 83/17/82 91/27/88 92/28/89
f 83/17/82 92/28/89 84/18/83
f 84/18/83 77/9/77 76/8/76
f 84/18/83 85/19/1 77/9/77
f 86/12/84 79/3/79 78/2/78
f 86/12/84 87/13/85 79/3/79
f 88/14/86 73/5/73 80/4/80
f 88/14/86 81/15/5 73/5/73
f 89/25/13 82/16/81 81/15/5
f 89/25/13 90/26/87 82/16/81
f 89/25/13 97/43/21 98/44/93
f 89/25/13 98/44/93 90/26/87
f 9/171/9 10/172/10 2/149/2
f 9/171/9 2/149/2 1/148/1
f 90/26/87 83/17/82 82/16/81
f 90/26/87 91/27/88 83/17/82
f 90/26/87 98/44/93 99/45/94
f 90/26/87 99/45/94 91/27/88
f 92/28/89 85/19/1 84/18/83
f 92/28/89 93/29/9 85/19/1
f 93/21/9 86/12/84 85/11/1
f 93/21/9 94/22/90 86/12/84
f 94/22/90 87/13/85 86/12/84
f 94/22/90 95/23/91 87/13/85
f 95/23/91 88/14/86 87/13/85
f 95/23/91 96/24/92 88/14/86
f 96/24/92 104/42/98 97/43/21
f 96/24/92 81/15/5 88/14/86
f 96/24/92 89/25/13 81/15/5
f 96/24/92 97/43/21 89/25/13
f 98/44/93 106/53/99 107/54/100
f 98/44/93 107/54/100 99/45/94
f 99/45/94 100/46/95 92/28/89
f 99/45/94 92/28/89 91/27/88
g ow_firepit_lod1_logs_Cube.202
v 0.289914 0.160000 -0.403051
v 0.275772 0.180000 -0.417193
v 0.304056 0.180000 -0.417193
v 0.279914 0.165858 -0.413051
v 0.289914 0.168453 -0.419381
v 0.289914 0.180000 -0.423051
v 0.299914 0.165858 -0.413051
v 0.275772 0.320000 -0.417193
v 0.289914 0.340000 -0.403051
v 0.304056 0.320000 -0.417193
v 0.279914 0.334142 -0.413051
v 0.289914 0.331547 -0.419381
v 0.299914 0.334142 -0.413051
v 0.289914 0.320000 -0.423051
v 0.403051 0.160000 -0.289914
v 0.417193 0.180000 -0.304056
v 0.417193 0.180000 -0.275772
v 0.413051 0.165858 -0.299914
v 0.419381 0.168453 -0.289914
v 0.423051 0.180000 -0.289914
v 0.413051 0.165858 -0.279914
v 0.403051 0.340000 -0.289914
v 0.417193 0.320000 -0.275772
v 0.417193 0.320000 -0.304056
v 0.413051 0.334142 -0.279914
v 0.419381 0.331547 -0.289914
v 0.423051 0.320000 -0.289914
v 0.413051 0.334142 -0.299914
v -0.403051 0.160000 0.289914
v -0.417193 0.180000 0.304056
v -0.417193 0.180000 0.275772
v -0.413051 0.165858 0.299914
v -0.419381 0.168453 0.289914
v -0.423051 0.180000 0.289914
v -0.413051 0.165858 0.279914
v -0.403051 0.340000 0.289914
v -0.417193 0.320000 0.275772
v -0.417193 0.320000 0.304056
v -0.413051 0.334142 0.279914
v -0.419381 0.331547 0.289914
v -0.423051 0.320000 0.289914
v -0.413051 0.334142 0.299914
v -0.289914 0.160000 0.403051
v -0.275772 0.180000 0.417193
v -0.304056 0.180000 0.417193
v -0.279914 0.165858 0.413051
v -0.289914 0.168453 0.419381
v -0.289914 0.180000 0.423051
v -0.299914 0.165858 0.413051
v -0.289914 0.340000 0.403051
v -0.304056 0.320000 0.417193
v -0.275772 0.320000 0.417193
v -0.299914 0.334142 0.413051
v -0.289914 0.331547 0.419381
v -0.289914 0.320000 0.423051
v -0.279914 0.334142 0.413051
vn 0.0604 -0.8865 -0.4589
vn -0.4276 -0.3672 -0.8260
vn 0.3672 -0.2817 -0.8865
vn -0.3672 0.2817 -0.8865
vn -0.0604 0.8865 -0.4589
vn 0.4276 0.3672 -0.8260
vn 0.4589 -0.8865 0.0604
vn 0.8260 -0.3672 -0.4276
vn 0.8865 -0.2817 0.3672
vn 0.4589 0.8865 -0.0604
vn 0.8260 0.3672 0.4276
vn 0.8865 0.2817 -0.3672
vn -0.4589 -0.8865 -0.0604
vn -0.8260 -0.3672 0.4276
vn -0.8865 -0.2817 -0.3672
vn -0.4589 0.8865 0.0604
vn -0.8260 0.3672 -0.4276
vn -0.8865 0.2817 0.3672
vn -0.0604 -0.8865 0.4589
vn 0.4276 -0.3672 0.8260
vn -0.3672 -0.2817 0.8865
vn 0.0604 0.8865 0.4589
vn -0.4276 0.3672 0.8260
vn 0.3672 0.2817 0.8865
vn 0.2706 -0.9239 -0.2706
vn 0.6533 -0.3827 -0.6533
vn -0.3827 -0.0000 -0.9239
vn 0.3827 -0.0000 -0.9239
vn 0.2706 0.9239 -0.2706
vn 0.6533 0.3827 -0.6533
vn 0.9239 -0.0000 0.3827
vn 0.9239 -0.0000 -0.3827
vn 0.2706 -0.9239 0.2706
vn 0.6533 -0.3827 0.6533
vn 0.2706 0.9239 0.2706
vn 0.6533 0.3827 0.6533
vn -0.3827 -0.0000 0.9239
vn 0.3827 -0.0000 0.9239
vn -0.2706 -0.9239 0.2706
vn -0.6533 -0.3827 0.6533
vn -0.2706 0.9239 0.2706
vn -0.6533 0.3827 0.6533
vn -0.9239 -0.0000 -0.3827
vn -0.9239 -0.0000 0.3827
vn -0.2706 -0.9239 -0.2706
vn -0.6533 -0.3827 -0.6533
vn -0.2706 0.9239 -0.2706
vn -0.6533 0.3827 -0.6533
vn -0.0000 -1.0000 -0.0000
vn 0.7071 -0.0000 -0.7071
vn -0.7071 -0.0000 -0.7071
vn -0.0000 1.0000 -0.0000
vn 0.7071 -0.0000 0.7071
vn -0.7071 -0.0000 0.7071
vn -0.0604 -0.8865 -0.4589
vn -0.3672 -0.2817 -0.8865
vn 0.4276 -0.3672 -0.8260
vn -0.4276 0.3672 -0.8260
vn 0.0604 0.8865 -0.4589
vn 0.3672 0.2817 -0.8865
vn 0.4589 -0.8865 -0.0604
vn 0.8865 -0.2817 -0.3672
vn 0.8260 -0.3672 0.4276
vn 0.4589 0.8865 0.0604
vn 0.8865 0.2817 0.3672
vn 0.8260 0.3672 -0.4276
vn -0.4589 -0.8865 0.0604
vn -0.8865 -0.2817 0.3672
vn -0.8260 -0.3672 -0.4276
vn -0.4589 0.8865 -0.0604
vn -0.8865 0.2817 -0.3672
vn -0.8260 0.3672 0.4276
vn 0.0604 -0.8865 0.4589
vn 0.3672 -0.2817 0.8865
vn -0.4276 -0.3672 0.8260
vn -0.0604 0.8865 0.4589
vn -0.3672 0.2817 0.8865
vn 0.4276 0.3672 0.8260
s 0
g ow_firepit_lod1_logs_M_wood
usemtl M_wood
f 161/36/141 165/33/141 167/32/141
f 161/36/165 167/32/165 178/31/165
f 161/36/165 178/31/165 175/35/165
f 161/36/195 164/37/195 165/33/195
f 162/121/142 165/100/142 164/96/142
f 162/121/196 166/122/196 165/100/196
f 163/111/143 165/90/143 166/110/143
f 163/111/197 167/91/197 165/90/197
f 167/91/166 163/111/166 176/112/166
f 167/91/166 176/112/166 178/92/166
f 168/165/144 172/186/144 174/166/144
f 168/165/167 166/122/167 162/121/167
f 168/165/167 174/166/167 166/122/167
f 168/165/198 171/185/198 172/186/198
f 169/241/145 172/246/145 171/242/145
f 169/241/187 171/242/187 199/188/187
f 169/241/187 199/188/187 196/190/187
f 169/241/199 173/245/199 172/246/199
f 170/155/146 172/176/146 173/180/146
f 170/155/190 176/112/190 163/111/190
f 170/155/190 184/156/190 176/112/190
f 170/155/200 174/154/200 172/176/200
f 171/185/188 168/165/188 197/164/188
f 171/185/188 197/164/188 199/188/188
f 174/154/168 163/111/168 166/110/168
f 174/154/168 170/155/168 163/111/168
f 175/35/147 179/30/147 181/34/147
f 175/35/173 181/34/173 206/88/173
f 175/35/173 206/88/173 203/86/173
f 175/35/201 178/31/201 179/30/201
f 176/112/148 179/99/148 178/92/148
f 176/112/202 180/113/202 179/99/202
f 177/114/149 179/99/149 180/113/149
f 177/114/171 180/113/171 187/157/171
f 177/114/171 187/157/171 183/158/171
f 177/114/203 181/93/203 179/99/203
f 180/113/172 176/112/172 184/156/172
f 180/113/172 184/156/172 187/157/172
f 181/93/174 177/114/174 204/115/174
f 181/93/174 204/115/174 206/88/174
f 182/240/150 186/243/150 188/244/150
f 182/240/169 173/245/169 169/241/169
f 182/240/169 188/244/169 173/245/169
f 182/240/192 169/241/192 196/190/192
f 182/240/192 196/190/192 210/189/192
f 182/240/204 185/239/204 186/243/204
f 183/158/151 186/177/151 185/182/151
f 183/158/193 204/115/193 177/114/193
f 183/158/193 212/159/193 204/115/193
f 183/158/205 187/157/205 186/177/205
f 184/156/152 186/177/152 187/157/152
f 184/156/206 188/181/206 186/177/206
f 188/181/170 170/155/170 173/180/170
f 188/181/170 184/156/170 170/155/170
f 189/87/153 193/98/153 195/89/153
f 189/87/185 164/37/185 161/36/185
f 189/87/185 195/89/185 164/37/185
f 189/87/207 192/95/207 193/98/207
f 190/118/154 193/98/154 192/95/154
f 190/118/208 194/119/208 193/98/208
f 191/120/155 193/98/155 194/119/155
f 191/120/183 194/119/183 201/163/183
f 191/120/183 201/163/183 197/164/183
f 191/120/209 195/89/209 193/98/209
f 194/119/184 190/118/184 198/162/184
f 194/119/184 198/162/184 201/163/184
f 195/89/186 162/121/186 164/96/186
f 195/89/186 191/120/186 162/121/186
f 196/190/156 200/179/156 202/184/156
f 196/190/181 202/184/181 213/183/181
f 196/190/181 213/183/181 210/189/181
f 196/190/210 199/188/210 200/179/210
f 197/164/157 200/179/157 199/188/157
f 197/164/191 162/121/191 191/120/191
f 197/164/191 168/165/191 162/121/191
f 197/164/211 201/163/211 200/179/211
f 198/162/158 200/179/158 201/163/158
f 198/162/212 202/184/212 200/179/212
f 202/184/182 198/162/182 211/161/182
f 202/184/182 211/161/182 213/183/182
f 203/86/159 207/97/159 209/94/159
f 203/86/179 192/95/179 189/87/179
f 203/86/179 209/94/179 192/95/179
f 203/86/189 161/36/189 175/35/189
f 203/86/189 189/87/189 161/36/189
f 203/86/213 206/88/213 207/97/213
f 204/115/160 207/97/160 206/88/160
f 204/115/214 208/116/214 207/97/214
f 205/117/161 207/97/161 208/116/161
f 205/117/177 208/116/177 215/160/177
f 205/117/177 215/160/177 211/161/177
f 205/117/215 209/94/215 207/97/215
f 208/116/178 204/115/178 212/159/178
f 208/116/178 212/159/178 215/160/178
f 209/94/180 190/118/180 192/95/180
f 209/94/180 205/117/180 190/118/180
f 210/189/162 214/178/162 216/187/162
f 210/189/175 185/239/175 182/240/175
f 210/189/175 216/187/175 185/239/175
f 210/189/216 213/183/216 214/178/216
f 211/161/163 214/178/163 213/183/163
f 211/161/194 190/118/194 205/117/194
f 211/161/194 198/162/194 190/118/194
f 211/161/217 215/160/217 214/178/217
f 212/159/164 214/178/164 215/160/164
f 212/159/218 216/187/218 214/178/218
f 216/187/176 183/158/176 185/182/176
f 216/187/176 212/159/176 183/158/176
g ow_firepit_lod1_flame_Cone.047
v 0.000000 0.270000 0.320000
v -0.250186 0.270000 0.199517
v -0.311977 0.270000 -0.071207
v -0.138843 0.270000 -0.288310
v 0.138843 0.270000 -0.288310
v 0.311977 0.270000 -0.071207
v 0.250186 0.270000 0.199517
v 0.000000 1.090000 0.000000
vn -0.4093 0.3317 0.8500
vn -0.9197 0.3317 0.2099
vn -0.7376 0.3317 -0.5882
vn -0.0000 0.3317 -0.9434
vn 0.7376 0.3317 -0.5882
vn -0.0000 -1.0000 -0.0000
vn 0.9197 0.3317 0.2099
vn 0.4093 0.3317 0.8500
s 0
g ow_firepit_lod1_flame_M_orange
usemtl M_orange
f 217/61/219 224/59/219 218/123/219
f 218/123/220 224/59/220 219/133/220
f 218/256/224 219/266/224 220/238/224
f 218/256/224 220/238/224 222/143/224
f 219/133/221 224/59/221 220/85/221
f 220/238/224 221/191/224 222/143/224
f 220/85/222 224/59/222 221/38/222
f 221/38/223 224/59/223 222/10/223
f 222/10/225 224/59/225 223/20/225
f 222/143/224 223/153/224 218/256/224
f 223/153/224 217/214/224 218/256/224
f 223/20/226 224/59/226 217/61/226
