# Blender 5.2.0 LTS
# www.blender.org
mtllib hunter_drone.mtl
g hunter_hover_Torus.011
v -0.355000 0.150000 0.000000
v -0.341820 0.181820 0.000000
v -0.310000 0.195000 0.000000
v -0.278180 0.181820 0.000000
v -0.265000 0.150000 0.000000
v -0.278180 0.118180 0.000000
v -0.310000 0.105000 0.000000
v -0.341820 0.118180 0.000000
v -0.337625 0.150000 0.109701
v -0.325090 0.181820 0.105628
v -0.294828 0.195000 0.095795
v -0.264565 0.181820 0.085962
v -0.252030 0.150000 0.081889
v -0.264565 0.118180 0.085962
v -0.294828 0.105000 0.095795
v -0.325090 0.118180 0.105628
v -0.287201 0.150000 0.208664
v -0.276538 0.181820 0.200917
v -0.250795 0.195000 0.182213
v -0.225052 0.181820 0.163510
v -0.214389 0.150000 0.155763
v -0.225052 0.118180 0.163510
v -0.250795 0.105000 0.182213
v -0.276538 0.118180 0.200917
v -0.208664 0.150000 0.287201
v -0.200917 0.181820 0.276538
v -0.182213 0.195000 0.250795
v -0.163510 0.181820 0.225053
v -0.155763 0.150000 0.214390
v -0.163510 0.118180 0.225053
v -0.182213 0.105000 0.250795
v -0.200917 0.118180 0.276538
v -0.109701 0.150000 0.337625
v -0.105628 0.181820 0.325090
v -0.095795 0.195000 0.294828
v -0.085962 0.181820 0.264565
v -0.081890 0.150000 0.252030
v -0.085962 0.118180 0.264565
v -0.095795 0.105000 0.294828
v -0.105628 0.118180 0.325090
v -0.000000 0.150000 0.355000
v -0.000000 0.181820 0.341820
v -0.000000 0.195000 0.310000
v -0.000000 0.181820 0.278180
v -0.000000 0.150000 0.265000
v -0.000000 0.118180 0.278180
v -0.000000 0.105000 0.310000
v -0.000000 0.118180 0.341820
v 0.109701 0.150000 0.337625
v 0.105628 0.181820 0.325090
v 0.095795 0.195000 0.294828
v 0.085962 0.181820 0.264565
v 0.081890 0.150000 0.252030
v 0.085962 0.118180 0.264565
v 0.095795 0.105000 0.294828
v 0.105628 0.118180 0.325090
v 0.208664 0.150000 0.287201
v 0.200917 0.181820 0.276538
v 0.182213 0.195000 0.250795
v 0.163510 0.181820 0.225052
v 0.155763 0.150000 0.214389
v 0.163510 0.118180 0.225052
v 0.182213 0.105000 0.250795
v 0.200917 0.118180 0.276538
v 0.287201 0.150000 0.208664
v 0.276538 0.181820 0.200917
v 0.250795 0.195000 0.182213
v 0.225053 0.181820 0.163510
v 0.214390 0.150000 0.155763
v 0.225053 0.118180 0.163510
v 0.250795 0.105000 0.182213
v 0.276538 0.118180 0.200917
v 0.337625 0.150000 0.109701
v 0.325090 0.181820 0.105628
v 0.294828 0.195000 0.095795
v 0.264565 0.181820 0.085962
v 0.252030 0.150000 0.081890
v 0.264565 0.118180 0.085962
v 0.294828 0.105000 0.095795
v 0.325090 0.118180 0.105628
v 0.355000 0.150000 0.000000
v 0.341820 0.181820 0.000000
v 0.310000 0.195000 0.000000
v 0.278180 0.181820 0.000000
v 0.265000 0.150000 0.000000
v 0.278180 0.118180 0.000000
v 0.310000 0.105000 0.000000
v 0.341820 0.118180 0.000000
v 0.337625 0.150000 -0.109701
v 0.325090 0.181820 -0.105628
v 0.294828 0.195000 -0.095795
v 0.264565 0.181820 -0.085962
v 0.252030 0.150000 -0.081889
v 0.264565 0.118180 -0.085962
v 0.294828 0.105000 -0.095795
v 0.325090 0.118180 -0.105628
v 0.287201 0.150000 -0.208664
v 0.276538 0.181820 -0.200917
v 0.250795 0.195000 -0.182213
v 0.225053 0.181820 -0.163510
v 0.214390 0.150000 -0.155763
v 0.225053 0.118180 -0.163510
v 0.250795 0.105000 -0.182213
v 0.276538 0.118180 -0.200917
v 0.208664 0.150000 -0.287201
v 0.200917 0.181820 -0.276538
v 0.182213 0.195000 -0.250795
v 0.163510 0.181820 -0.225052
v 0.155763 0.150000 -0.214389
v 0.163510 0.118180 -0.225052
v 0.182213 0.105000 -0.250795
v 0.200917 0.118180 -0.276538
v 0.109701 0.150000 -0.337625
v 0.105628 0.181820 -0.325090
v 0.095795 0.195000 -0.294828
v 0.085962 0.181820 -0.264565
v 0.081890 0.150000 -0.252030
v 0.085962 0.118180 -0.264565
v 0.095795 0.105000 -0.294828
v 0.105628 0.118180 -0.325090
v -0.000000 0.150000 -0.355000
v -0.000000 0.181820 -0.341820
v -0.000000 0.195000 -0.310000
v -0.000000 0.181820 -0.278180
v -0.000000 0.150000 -0.265000
v -0.000000 0.118180 -0.278180
v -0.000000 0.105000 -0.310000
v -0.000000 0.118180 -0.341820
v -0.109701 0.150000 -0.337625
v -0.105628 0.181820 -0.325090
v -0.095795 0.195000 -0.294828
v -0.085962 0.181820 -0.264565
v -0.081890 0.150000 -0.252030
v -0.085962 0.118180 -0.264565
v -0.095795 0.105000 -0.294828
v -0.105628 0.118180 -0.325090
v -0.208664 0.150000 -0.287201
v -0.200916 0.181820 -0.276538
v -0.182213 0.195000 -0.250795
v -0.163510 0.181820 -0.225053
v -0.155763 0.150000 -0.214390
v -0.163510 0.118180 -0.225053
v -0.182213 0.105000 -0.250795
v -0.200916 0.118180 -0.276538
v -0.287201 0.150000 -0.208664
v -0.276538 0.181820 -0.200917
v -0.250795 0.195000 -0.182214
v -0.225052 0.181820 -0.163510
v -0.214389 0.150000 -0.155763
v -0.225052 0.118180 -0.163510
v -0.250795 0.105000 -0.182214
v -0.276538 0.118180 -0.200917
v -0.337625 0.150000 -0.109701
v -0.325090 0.181820 -0.105628
v -0.294827 0.195000 -0.095795
v -0.264565 0.181820 -0.085962
v -0.252030 0.150000 -0.081890
v -0.264565 0.118180 -0.085962
v -0.294827 0.105000 -0.095795
v -0.325090 0.118180 -0.105628
vn -1.0000 -0.0000 -0.0000
vn -0.7252 0.6885 -0.0000
vn -0.0382 0.9993 -0.0000
vn 0.6870 0.7267 -0.0000
vn 1.0000 -0.0000 -0.0000
vn 0.6870 -0.7267 -0.0000
vn -0.0382 -0.9993 -0.0000
vn -0.7252 -0.6885 -0.0000
vn -0.9511 -0.0000 0.3090
vn -0.6897 0.6885 0.2241
vn -0.0363 0.9993 0.0118
vn 0.6533 0.7267 -0.2123
vn 0.9511 -0.0000 -0.3090
vn 0.6533 -0.7267 -0.2123
vn -0.0363 -0.9993 0.0118
vn -0.6897 -0.6885 0.2241
vn -0.8090 -0.0000 0.5878
vn -0.5867 0.6885 0.4263
vn -0.0309 0.9993 0.0225
vn 0.5558 0.7267 -0.4038
vn 0.8090 -0.0000 -0.5878
vn 0.5558 -0.7267 -0.4038
vn -0.0309 -0.9993 0.0225
vn -0.5867 -0.6885 0.4263
vn -0.5878 -0.0000 0.8090
vn -0.4263 0.6885 0.5867
vn -0.0225 0.9993 0.0309
vn 0.4038 0.7267 -0.5558
vn 0.5878 -0.0000 -0.8090
vn 0.4038 -0.7267 -0.5558
vn -0.0225 -0.9993 0.0309
vn -0.4263 -0.6885 0.5867
vn -0.3090 -0.0000 0.9511
vn -0.2241 0.6885 0.6897
vn -0.0118 0.9993 0.0363
vn 0.2123 0.7267 -0.6533
vn 0.3090 -0.0000 -0.9511
vn 0.2123 -0.7267 -0.6533
vn -0.0118 -0.9993 0.0363
vn -0.2241 -0.6885 0.6897
vn -0.0000 -0.0000 1.0000
vn -0.0000 0.6885 0.7252
vn -0.0000 0.9993 0.0382
vn -0.0000 0.7267 -0.6870
vn -0.0000 -0.0000 -1.0000
vn -0.0000 -0.7267 -0.6870
vn -0.0000 -0.9993 0.0382
vn -0.0000 -0.6885 0.7252
vn 0.3090 -0.0000 0.9511
vn 0.2241 0.6885 0.6897
vn 0.0118 0.9993 0.0364
vn -0.2123 0.7267 -0.6533
vn -0.3090 -0.0000 -0.9511
vn -0.2123 -0.7267 -0.6533
vn 0.0118 -0.9993 0.0363
vn 0.2241 -0.6885 0.6897
vn 0.5878 -0.0000 0.8090
vn 0.4263 0.6885 0.5867
vn 0.0225 0.9993 0.0309
vn -0.4038 0.7267 -0.5558
vn -0.5878 -0.0000 -0.8090
vn -0.4038 -0.7267 -0.5558
vn 0.0225 -0.9993 0.0309
vn 0.4263 -0.6885 0.5867
vn 0.8090 -0.0000 0.5878
vn 0.5867 0.6885 0.4263
vn 0.0309 0.9993 0.0225
vn -0.5558 0.7267 -0.4038
vn -0.8090 -0.0000 -0.5878
vn -0.5558 -0.7267 -0.4038
vn 0.0309 -0.9993 0.0225
vn 0.5867 -0.6885 0.4263
vn 0.9511 -0.0000 0.3090
vn 0.6897 0.6885 0.2241
vn 0.0363 0.9993 0.0118
vn -0.6533 0.7267 -0.2123
vn -0.9511 -0.0000 -0.3090
vn -0.6533 -0.7267 -0.2123
vn 0.0363 -0.9993 0.0118
vn 0.6897 -0.6885 0.2241
vn 0.7252 0.6885 -0.0000
vn 0.0382 0.9993 -0.0000
vn -0.6870 0.7267 -0.0000
vn -0.6870 -0.7267 -0.0000
vn 0.0382 -0.9993 -0.0000
vn 0.7252 -0.6885 -0.0000
vn 0.6897 0.6885 -0.2241
vn 0.0363 0.9993 -0.0118
vn -0.6533 0.7267 0.2123
vn -0.6533 -0.7267 0.2123
vn 0.0363 -0.9993 -0.0118
vn 0.6897 -0.6885 -0.2241
vn 0.5867 0.6885 -0.4263
vn 0.0309 0.9993 -0.0225
vn -0.5558 0.7267 0.4038
vn -0.5558 -0.7267 0.4038
vn 0.0309 -0.9993 -0.0225
vn 0.5867 -0.6885 -0.4263
vn 0.4263 0.6885 -0.5867
vn 0.0225 0.9993 -0.0309
vn -0.4038 0.7267 0.5558
vn -0.4038 -0.7267 0.5558
vn 0.0225 -0.9993 -0.0309
vn 0.4263 -0.6885 -0.5867
vn 0.2241 0.6885 -0.6897
vn 0.0118 0.9993 -0.0363
vn -0.2123 0.7267 0.6533
vn -0.2123 -0.7267 0.6533
vn 0.0118 -0.9993 -0.0363
vn 0.2241 -0.6885 -0.6897
vn -0.0000 0.6885 -0.7252
vn -0.0000 0.9993 -0.0382
vn -0.0000 0.7267 0.6870
vn -0.0000 -0.7267 0.6870
vn -0.0000 -0.9993 -0.0382
vn -0.0000 -0.6885 -0.7252
vn -0.2241 0.6885 -0.6897
vn -0.0118 0.9993 -0.0363
vn 0.2123 0.7267 0.6533
vn 0.2123 -0.7267 0.6533
vn -0.0118 -0.9993 -0.0363
vn -0.2241 -0.6885 -0.6897
vn -0.4263 0.6885 -0.5867
vn -0.0225 0.9993 -0.0309
vn 0.4038 0.7267 0.5558
vn 0.4038 -0.7267 0.5558
vn -0.0225 -0.9993 -0.0309
vn -0.4263 -0.6885 -0.5867
vn -0.5867 0.6885 -0.4263
vn -0.0309 0.9993 -0.0225
vn 0.5558 0.7267 0.4038
vn 0.5558 -0.7267 0.4038
vn -0.0309 -0.9993 -0.0225
vn -0.5867 -0.6885 -0.4263
vn -0.6897 0.6885 -0.2241
vn -0.0363 0.9993 -0.0118
vn 0.6533 0.7267 0.2123
vn 0.6533 -0.7267 0.2123
vn -0.0363 -0.9993 -0.0118
vn -0.6897 -0.6885 -0.2241
vt 0.00000 0.00000
vt 0.00000 0.08333
vt 0.00000 0.12500
vt 0.00000 0.16667
vt 0.00000 0.25000
vt 0.00000 0.33333
vt 0.00000 0.37500
vt 0.00000 0.41667
vt 0.00000 0.50000
vt 0.00000 0.55000
vt 0.00000 0.58333
vt 0.00000 0.62500
vt 0.00000 0.66667
vt 0.00000 0.75000
vt 0.00000 0.83333
vt 0.00000 0.87500
vt 0.00000 0.91667
vt 0.00000 0.95000
vt 0.00000 1.00000
vt 0.00066 0.50000
vt 0.00066 1.00000
vt 0.01000 0.25000
vt 0.01019 0.25000
vt 0.02500 0.00000
vt 0.02500 1.00000
vt 0.02727 0.25000
vt 0.02845 0.15823
vt 0.02845 0.34177
vt 0.04423 0.16477
vt 0.04423 0.33523
vt 0.05000 0.00000
vt 0.05000 0.08333
vt 0.05000 0.12500
vt 0.05000 0.16667
vt 0.05000 0.25000
vt 0.05000 0.33333
vt 0.05000 0.37500
vt 0.05000 0.41667
vt 0.05000 0.50000
vt 0.05000 0.58333
vt 0.05000 0.62500
vt 0.05000 0.66667
vt 0.05000 0.75000
vt 0.05000 0.83333
vt 0.05000 0.87500
vt 0.05000 0.91667
vt 0.05000 1.00000
vt 0.06250 0.50000
vt 0.06250 0.55000
vt 0.06250 0.95000
vt 0.06250 1.00000
vt 0.07500 0.00000
vt 0.07500 1.00000
vt 0.08029 0.08029
vt 0.08029 0.41971
vt 0.08043 0.08043
vt 0.08043 0.41957
vt 0.09251 0.09251
vt 0.09251 0.40749
vt 0.10000 0.00000
vt 0.10000 0.08333
vt 0.10000 0.12500
vt 0.10000 0.16667
vt 0.10000 0.25000
vt 0.10000 0.33333
vt 0.10000 0.37500
vt 0.10000 0.41667
vt 0.10000 0.50000
vt 0.10000 0.58333
vt 0.10000 0.62500
vt 0.10000 0.66667
vt 0.10000 0.75000
vt 0.10000 0.83333
vt 0.10000 0.87500
vt 0.10000 0.91667
vt 0.10000 1.00000
vt 0.12500 0.00000
vt 0.12500 0.50000
vt 0.12500 0.51902
vt 0.12500 0.54500
vt 0.12500 0.55000
vt 0.12500 0.70500
vt 0.12500 0.95000
vt 0.12500 1.00000
vt 0.13134 0.75000
vt 0.14000 0.50000
vt 0.14000 0.54500
vt 0.14000 0.70500
vt 0.14000 0.75000
vt 0.15000 0.00000
vt 0.15000 0.08333
vt 0.15000 0.12500
vt 0.15000 0.16667
vt 0.15000 0.25000
vt 0.15000 0.33333
vt 0.15000 0.37500
vt 0.15000 0.41667
vt 0.15000 0.50000
vt 0.15000 0.58333
vt 0.15000 0.62500
vt 0.15000 0.66667
vt 0.15000 0.75000
vt 0.15000 0.83333
vt 0.15000 0.87500
vt 0.15000 0.91667
vt 0.15000 1.00000
vt 0.15823 0.02845
vt 0.15823 0.47155
vt 0.16477 0.04423
vt 0.16477 0.45577
vt 0.17500 0.00000
vt 0.17500 1.00000
vt 0.18750 0.50000
vt 0.18750 0.55000
vt 0.18750 0.95000
vt 0.18750 1.00000
vt 0.20000 0.00000
vt 0.20000 0.08333
vt 0.20000 0.12500
vt 0.20000 0.16667
vt 0.20000 0.25000
vt 0.20000 0.33333
vt 0.20000 0.37500
vt 0.20000 0.41667
vt 0.20000 0.50000
vt 0.20000 0.58333
vt 0.20000 0.62500
vt 0.20000 0.66667
vt 0.20000 0.75000
vt 0.20000 0.83333
vt 0.20000 0.87500
vt 0.20000 0.91667
vt 0.20000 1.00000
vt 0.22500 0.00000
vt 0.22500 1.00000
vt 0.25000 0.00000
vt 0.25000 0.01000
vt 0.25000 0.01019
vt 0.25000 0.02727
vt 0.25000 0.08333
vt 0.25000 0.12500
vt 0.25000 0.16667
vt 0.25000 0.25000
vt 0.25000 0.33333
vt 0.25000 0.37500
vt 0.25000 0.41667
vt 0.25000 0.47273
vt 0.25000 0.48981
vt 0.25000 0.49000
vt 0.25000 0.50000
vt 0.25000 0.55000
vt 0.25000 0.58333
vt 0.25000 0.62500
vt 0.25000 0.66667
vt 0.25000 0.75000
vt 0.25000 0.83333
vt 0.25000 0.87500
vt 0.25000 0.91667
vt 0.25000 0.95000
vt 0.25000 1.00000
vt 0.27500 0.00000
vt 0.27500 1.00000
vt 0.30000 0.00000
vt 0.30000 0.08333
vt 0.30000 0.12500
vt 0.30000 0.16667
vt 0.30000 0.25000
vt 0.30000 0.33333
vt 0.30000 0.37500
vt 0.30000 0.41667
vt 0.30000 0.50000
vt 0.30000 0.58333
vt 0.30000 0.62500
vt 0.30000 0.66667
vt 0.30000 0.75000
vt 0.30000 0.83333
vt 0.30000 0.87500
vt 0.30000 0.91667
vt 0.30000 1.00000
vt 0.31250 0.50000
vt 0.31250 0.55000
vt 0.31250 0.95000
vt 0.31250 1.00000
vt 0.32500 0.00000
vt 0.32500 1.00000
vt 0.33523 0.04423
vt 0.33523 0.45577
vt 0.34177 0.02845
vt 0.34177 0.47155
vt 0.35000 0.00000
vt 0.35000 0.08333
vt 0.35000 0.12500
vt 0.35000 0.16667
vt 0.35000 0.25000
vt 0.35000 0.33333
vt 0.35000 0.37500
vt 0.35000 0.41667
vt 0.35000 0.50000
vt 0.35000 0.58333
vt 0.35000 0.62500
vt 0.35000 0.66667
vt 0.35000 0.75000
vt 0.35000 0.83333
vt 0.35000 0.87500
vt 0.35000 0.91667
vt 0.35000 1.00000
vt 0.36000 0.54500
vt 0.36000 0.70500
vt 0.36750 0.49250
vt 0.36750 0.75750
vt 0.37500 0.00000
vt 0.37500 0.01902
vt 0.37500 0.04500
vt 0.37500 0.20500
vt 0.37500 0.26500
vt 0.37500 0.50000
vt 0.37500 0.54500
vt 0.37500 0.55000
vt 0.37500 0.70500
vt 0.37500 0.95000
vt 0.37500 0.98500
vt 0.37500 1.00000
vt 0.37817 0.50634
vt 0.38028 0.74577
vt 0.38293 0.25317
vt 0.39085 1.00000
vt 0.40000 0.00000
vt 0.40000 0.08333
vt 0.40000 0.12500
vt 0.40000 0.16667
vt 0.40000 0.25000
vt 0.40000 0.33333
vt 0.40000 0.37500
vt 0.40000 0.41667
vt 0.40000 0.50000
vt 0.40000 0.58333
vt 0.40000 0.62500
vt 0.40000 0.66667
vt 0.40000 0.75000
vt 0.40000 0.83333
vt 0.40000 0.87500
vt 0.40000 0.91667
vt 0.40000 1.00000
vt 0.40749 0.09251
vt 0.40749 0.40749
vt 0.41250 0.00000
vt 0.41250 0.04500
vt 0.41250 0.20500
vt 0.41250 0.25000
vt 0.41250 0.26500
vt 0.41250 0.48500
vt 0.41250 0.50000
vt 0.41250 0.54500
vt 0.41250 0.70500
vt 0.41250 0.75000
vt 0.41250 0.76500
vt 0.41250 0.98500
vt 0.41250 1.00000
vt 0.41957 0.08043
vt 0.41957 0.41957
vt 0.41971 0.08029
vt 0.41971 0.41971
vt 0.42500 0.00000
vt 0.42500 1.00000
vt 0.43750 0.50000
vt 0.43750 0.55000
vt 0.43750 0.95000
vt 0.43750 1.00000
vt 0.45000 0.00000
vt 0.45000 0.08333
vt 0.45000 0.12500
vt 0.45000 0.16667
vt 0.45000 0.25000
vt 0.45000 0.33333
vt 0.45000 0.37500
vt 0.45000 0.41667
vt 0.45000 0.50000
vt 0.45000 0.58333
vt 0.45000 0.62500
vt 0.45000 0.66667
vt 0.45000 0.75000
vt 0.45000 0.83333
vt 0.45000 0.87500
vt 0.45000 0.91667
vt 0.45000 1.00000
vt 0.45577 0.16477
vt 0.45577 0.33523
vt 0.47155 0.15823
vt 0.47155 0.34177
vt 0.47273 0.25000
vt 0.47500 0.00000
vt 0.47500 1.00000
vt 0.48981 0.25000
vt 0.49000 0.25000
vt 0.50000 0.00000
vt 0.50000 0.08333
vt 0.50000 0.12500
vt 0.50000 0.16667
vt 0.50000 0.25000
vt 0.50000 0.33333
vt 0.50000 0.37500
vt 0.50000 0.41667
vt 0.50000 0.50000
vt 0.50000 0.55000
vt 0.50000 0.58333
vt 0.50000 0.62500
vt 0.50000 0.66667
vt 0.50000 0.75000
vt 0.50000 0.83333
vt 0.50000 0.87500
vt 0.50000 0.91667
vt 0.50000 0.95000
vt 0.50000 1.00000
vt 0.51000 0.25000
vt 0.51019 0.25000
vt 0.52500 0.00000
vt 0.52500 1.00000
vt 0.52727 0.25000
vt 0.52845 0.15823
vt 0.52845 0.34177
vt 0.54423 0.16477
vt 0.54423 0.33523
vt 0.55000 0.00000
vt 0.55000 0.08333
vt 0.55000 0.12500
vt 0.55000 0.16667
vt 0.55000 0.25000
vt 0.55000 0.33333
vt 0.55000 0.37500
vt 0.55000 0.41667
vt 0.55000 0.50000
vt 0.55000 0.58333
vt 0.55000 0.62500
vt 0.55000 0.66667
vt 0.55000 0.75000
vt 0.55000 0.83333
vt 0.55000 0.87500
vt 0.55000 0.91667
vt 0.55000 1.00000
vt 0.56250 0.50000
vt 0.56250 0.55000
vt 0.56250 0.95000
vt 0.56250 1.00000
vt 0.57500 0.00000
vt 0.57500 1.00000
vt 0.58029 0.08029
vt 0.58029 0.41971
vt 0.58043 0.08043
vt 0.58043 0.41957
vt 0.58750 0.00000
vt 0.58750 0.04500
vt 0.58750 0.20500
vt 0.58750 0.25000
vt 0.58750 0.26500
vt 0.58750 0.48500
vt 0.58750 0.50000
vt 0.58750 0.54500
vt 0.58750 0.70500
vt 0.58750 0.75000
vt 0.58750 0.76500
vt 0.58750 0.98500
vt 0.58750 1.00000
vt 0.59251 0.09251
vt 0.59251 0.40749
vt 0.60000 0.00000
vt 0.60000 0.08333
vt 0.60000 0.12500
vt 0.60000 0.16667
vt 0.60000 0.25000
vt 0.60000 0.33333
vt 0.60000 0.37500
vt 0.60000 0.41667
vt 0.60000 0.50000
vt 0.60000 0.58333
vt 0.60000 0.62500
vt 0.60000 0.66667
vt 0.60000 0.75000
vt 0.60000 0.83333
vt 0.60000 0.87500
vt 0.60000 0.91667
vt 0.60000 1.00000
vt 0.60915 0.00000
vt 0.61708 0.24049
vt 0.61972 0.50423
vt 0.62183 0.74366
vt 0.62500 0.00000
vt 0.62500 0.04500
vt 0.62500 0.20500
vt 0.62500 0.26500
vt 0.62500 0.50000
vt 0.62500 0.54500
vt 0.62500 0.55000
vt 0.62500 0.70500
vt 0.62500 0.95000
vt 0.62500 0.98500
vt 0.62500 0.99366
vt 0.62500 1.00000
vt 0.63250 0.49250
vt 0.63250 0.75750
vt 0.64000 0.54500
vt 0.64000 0.70500
vt 0.65000 0.00000
vt 0.65000 0.08333
vt 0.65000 0.12500
vt 0.65000 0.16667
vt 0.65000 0.25000
vt 0.65000 0.33333
vt 0.65000 0.37500
vt 0.65000 0.41667
vt 0.65000 0.50000
vt 0.65000 0.58333
vt 0.65000 0.62500
vt 0.65000 0.66667
vt 0.65000 0.75000
vt 0.65000 0.83333
vt 0.65000 0.87500
vt 0.65000 0.91667
vt 0.65000 1.00000
vt 0.65823 0.02845
vt 0.65823 0.47155
vt 0.66477 0.04423
vt 0.66477 0.45577
vt 0.67500 0.00000
vt 0.67500 1.00000
vt 0.68750 0.50000
vt 0.68750 0.55000
vt 0.68750 0.95000
vt 0.68750 1.00000
vt 0.70000 0.00000
vt 0.70000 0.08333
vt 0.70000 0.12500
vt 0.70000 0.16667
vt 0.70000 0.25000
vt 0.70000 0.33333
vt 0.70000 0.37500
vt 0.70000 0.41667
vt 0.70000 0.50000
vt 0.70000 0.58333
vt 0.70000 0.62500
vt 0.70000 0.66667
vt 0.70000 0.75000
vt 0.70000 0.83333
vt 0.70000 0.87500
vt 0.70000 0.91667
vt 0.70000 1.00000
vt 0.72500 0.00000
vt 0.72500 1.00000
vt 0.75000 0.00000
vt 0.75000 0.01000
vt 0.75000 0.01019
vt 0.75000 0.02727
vt 0.75000 0.08333
vt 0.75000 0.12500
vt 0.75000 0.16667
vt 0.75000 0.25000
vt 0.75000 0.33333
vt 0.75000 0.37500
vt 0.75000 0.41667
vt 0.75000 0.47273
vt 0.75000 0.48981
vt 0.75000 0.49000
vt 0.75000 0.50000
vt 0.75000 0.55000
vt 0.75000 0.58333
vt 0.75000 0.62500
vt 0.75000 0.66667
vt 0.75000 0.75000
vt 0.75000 0.83333
vt 0.75000 0.87500
vt 0.75000 0.91667
vt 0.75000 0.95000
vt 0.75000 1.00000
vt 0.77500 0.00000
vt 0.77500 1.00000
vt 0.80000 0.00000
vt 0.80000 0.08333
vt 0.80000 0.12500
vt 0.80000 0.16667
vt 0.80000 0.25000
vt 0.80000 0.33333
vt 0.80000 0.37500
vt 0.80000 0.41667
vt 0.80000 0.50000
vt 0.80000 0.58333
vt 0.80000 0.62500
vt 0.80000 0.66667
vt 0.80000 0.75000
vt 0.80000 0.83333
vt 0.80000 0.87500
vt 0.80000 0.91667
vt 0.80000 1.00000
vt 0.81250 0.50000
vt 0.81250 0.55000
vt 0.81250 0.95000
vt 0.81250 1.00000
vt 0.82500 0.00000
vt 0.82500 1.00000
vt 0.83523 0.04423
vt 0.83523 0.45577
vt 0.84177 0.02845
vt 0.84177 0.47155
vt 0.85000 0.00000
vt 0.85000 0.08333
vt 0.85000 0.12500
vt 0.85000 0.16667
vt 0.85000 0.25000
vt 0.85000 0.33333
vt 0.85000 0.37500
vt 0.85000 0.41667
vt 0.85000 0.50000
vt 0.85000 0.58333
vt 0.85000 0.62500
vt 0.85000 0.66667
vt 0.85000 0.75000
vt 0.85000 0.83333
vt 0.85000 0.87500
vt 0.85000 0.91667
vt 0.85000 1.00000
vt 0.86000 0.50000
vt 0.86000 0.54500
vt 0.86000 0.70500
vt 0.86000 0.75000
vt 0.86866 0.50000
vt 0.87500 0.00000
vt 0.87500 0.50000
vt 0.87500 0.54500
vt 0.87500 0.55000
vt 0.87500 0.70500
vt 0.87500 0.73098
vt 0.87500 0.95000
vt 0.87500 1.00000
vt 0.90000 0.00000
vt 0.90000 0.08333
vt 0.90000 0.12500
vt 0.90000 0.16667
vt 0.90000 0.25000
vt 0.90000 0.33333
vt 0.90000 0.37500
vt 0.90000 0.41667
vt 0.90000 0.50000
vt 0.90000 0.58333
vt 0.90000 0.62500
vt 0.90000 0.66667
vt 0.90000 0.75000
vt 0.90000 0.83333
vt 0.90000 0.87500
vt 0.90000 0.91667
vt 0.90000 1.00000
vt 0.90749 0.09251
vt 0.90749 0.40749
vt 0.91957 0.08043
vt 0.91957 0.41957
vt 0.91971 0.08029
vt 0.91971 0.41971
vt 0.92500 0.00000
vt 0.92500 1.00000
vt 0.93750 0.50000
vt 0.93750 0.55000
vt 0.93750 0.95000
vt 0.93750 1.00000
vt 0.95000 0.00000
vt 0.95000 0.08333
vt 0.95000 0.12500
vt 0.95000 0.16667
vt 0.95000 0.25000
vt 0.95000 0.33333
vt 0.95000 0.37500
vt 0.95000 0.41667
vt 0.95000 0.50000
vt 0.95000 0.58333
vt 0.95000 0.62500
vt 0.95000 0.66667
vt 0.95000 0.75000
vt 0.95000 0.83333
vt 0.95000 0.87500
vt 0.95000 0.91667
vt 0.95000 1.00000
vt 0.95577 0.16477
vt 0.95577 0.33523
vt 0.97155 0.15823
vt 0.97155 0.34177
vt 0.97273 0.25000
vt 0.97500 0.00000
vt 0.97500 1.00000
vt 0.98981 0.25000
vt 0.99000 0.25000
vt 0.99934 0.50000
vt 0.99934 1.00000
vt 1.00000 0.00000
vt 1.00000 0.08333
vt 1.00000 0.12500
vt 1.00000 0.16667
vt 1.00000 0.25000
vt 1.00000 0.33333
vt 1.00000 0.37500
vt 1.00000 0.41667
vt 1.00000 0.50000
vt 1.00000 0.55000
vt 1.00000 0.58333
vt 1.00000 0.62500
vt 1.00000 0.66667
vt 1.00000 0.75000
vt 1.00000 0.83333
vt 1.00000 0.87500
vt 1.00000 0.91667
vt 1.00000 0.95000
vt 1.00000 1.00000
s 1
g hunter_hover_M_magenta
usemtl M_magenta
f 1/331/1 154/306/135 153/303/77
f 1/331/1 2/333/2 154/306/135
f 100/104/95 101/106/17 93/76/9
f 100/104/95 93/76/9 92/74/89
f 101/90/17 102/92/96 94/62/90
f 101/90/17 94/62/90 93/60/9
f 102/92/96 103/94/97 95/64/91
f 102/92/96 95/64/91 94/62/90
f 103/94/97 104/96/98 96/66/92
f 103/94/97 96/66/92 95/64/91
f 106/127/99 107/129/100 99/102/94
f 106/127/99 99/102/94 98/100/93
f 107/129/100 100/104/95 99/102/94
f 107/129/100 108/131/101 100/104/95
f 108/131/101 101/106/17 100/104/95
f 108/131/101 109/133/25 101/106/17
f 109/117/25 102/92/96 101/90/17
f 109/117/25 110/119/102 102/92/96
f 109/117/25 117/136/33 118/141/108
f 109/117/25 118/141/108 110/119/102
f 11/377/11 12/379/12 4/337/4
f 11/377/11 4/337/4 3/335/3
f 110/119/102 103/94/97 102/92/96
f 110/119/102 111/121/103 103/94/97
f 110/119/102 118/141/108 119/143/109
f 110/119/102 119/143/109 111/121/103
f 111/121/103 104/96/98 103/94/97
f 111/121/103 112/123/104 104/96/98
f 111/121/103 119/143/109 120/145/110
f 111/121/103 120/145/110 112/123/104
f 112/123/104 105/125/29 97/98/21
f 112/123/104 113/150/37 105/125/29
f 112/123/104 120/145/110 113/150/37
f 112/123/104 97/98/21 104/96/98
f 113/150/37 106/127/99 105/125/29
f 113/150/37 114/153/105 106/127/99
f 114/153/105 107/129/100 106/127/99
f 114/153/105 115/155/106 107/129/100
f 115/155/106 108/131/101 107/129/100
f 115/155/106 116/157/107 108/131/101
f 116/157/107 109/133/25 108/131/101
f 116/157/107 117/160/33 109/133/25
f 118/141/108 126/165/114 127/167/115
f 118/141/108 127/167/115 119/143/109
f 12/379/12 13/381/13 5/339/5
f 12/379/12 5/339/5 4/337/4
f 121/171/45 114/153/105 113/150/37
f 121/171/45 122/173/111 114/153/105
f 122/173/111 115/155/106 114/153/105
f 122/173/111 123/175/112 115/155/106
f 122/173/111 130/200/117 131/202/118
f 122/173/111 131/202/118 123/175/112
f 123/175/112 116/157/107 115/155/106
f 123/175/112 124/177/113 116/157/107
f 124/177/113 117/160/33 116/157/107
f 124/177/113 125/179/41 117/160/33
f 124/177/113 132/204/119 133/206/49
f 124/177/113 133/206/49 125/179/41
f 125/163/41 118/141/108 117/136/33
f 125/163/41 126/165/114 118/141/108
f 127/167/115 120/145/110 119/143/109
f 127/167/115 128/169/116 120/145/110
f 128/169/116 113/150/37 120/145/110
f 128/169/116 121/171/45 113/150/37
f 129/198/53 122/173/111 121/171/45
f 129/198/53 130/200/117 122/173/111
f 13/365/13 14/367/14 6/325/6
f 13/365/13 21/402/21 22/404/22
f 13/365/13 22/404/22 14/367/14
f 13/365/13 6/325/6 5/323/5
f 131/202/118 124/177/113 123/175/112
f 131/202/118 132/204/119 124/177/113
f 133/190/49 126/165/114 125/163/41
f 133/190/49 134/192/120 126/165/114
f 134/192/120 127/167/115 126/165/114
f 134/192/120 135/194/121 127/167/115
f 135/194/121 128/169/116 127/167/115
f 135/194/121 136/196/122 128/169/116
f 136/196/122 121/171/45 128/169/116
f 136/196/122 129/198/53 121/171/45
f 137/235/61 130/200/117 129/198/53
f 137/235/61 138/237/123 130/200/117
f 138/237/123 131/202/118 130/200/117
f 138/237/123 139/239/124 131/202/118
f 138/237/123 146/279/129 147/281/130
f 138/237/123 147/281/130 139/239/124
f 139/239/124 132/204/119 131/202/118
f 139/239/124 140/241/125 132/204/119
f 14/367/14 15/369/15 7/327/7
f 14/367/14 7/327/7 6/325/6
f 140/241/125 133/206/49 132/204/119
f 140/241/125 141/243/57 133/206/49
f 141/227/57 134/192/120 133/190/49
f 141/227/57 142/229/126 134/192/120
f 142/229/126 135/194/121 134/192/120
f 142/229/126 143/231/127 135/194/121
f 143/231/127 136/196/122 135/194/121
f 143/231/127 144/233/128 136/196/122
f 144/233/128 129/198/53 136/196/122
f 144/233/128 137/235/61 129/198/53
f 144/233/128 145/277/69 137/235/61
f 144/233/128 152/275/134 145/277/69
f 145/277/69 138/237/123 137/235/61
f 145/277/69 146/279/129 138/237/123
f 147/281/130 140/241/125 139/239/124
f 147/281/130 148/283/131 140/241/125
f 147/281/130 155/308/136 156/310/137
f 147/281/130 156/310/137 148/283/131
f 148/283/131 141/243/57 140/241/125
f 148/283/131 149/285/65 141/243/57
f 149/269/65 142/229/126 141/227/57
f 149/269/65 150/271/132 142/229/126
f 15/369/15 16/371/16 8/329/8
f 15/369/15 8/329/8 7/327/7
f 150/271/132 143/231/127 142/229/126
f 150/271/132 151/273/133 143/231/127
f 151/273/133 144/233/128 143/231/127
f 151/273/133 152/275/134 144/233/128
f 151/273/133 159/299/139 160/301/140
f 151/273/133 160/301/140 152/275/134
f 153/303/77 146/279/129 145/277/69
f 153/303/77 154/306/135 146/279/129
f 154/306/135 147/281/130 146/279/129
f 154/306/135 155/308/136 147/281/130
f 156/310/137 149/285/65 148/283/131
f 156/310/137 157/313/73 149/285/65
f 156/310/137 4/337/4 5/339/5
f 156/310/137 5/339/5 157/313/73
f 157/295/73 150/271/132 149/269/65
f 157/295/73 158/297/138 150/271/132
f 158/297/138 151/273/133 150/271/132
f 158/297/138 159/299/139 151/273/133
f 158/297/138 6/325/6 7/327/7
f 158/297/138 7/327/7 159/299/139
f 160/301/140 145/277/69 152/275/134
f 160/301/140 153/303/77 145/277/69
f 18/412/18 11/377/11 10/375/10
f 18/412/18 19/414/19 11/377/11
f 19/414/19 12/379/12 11/377/11
f 19/414/19 20/416/20 12/379/12
f 19/414/19 27/441/27 28/443/28
f 19/414/19 28/443/28 20/416/20
f 2/333/2 10/375/10 11/377/11
f 2/333/2 11/377/11 3/335/3
f 2/333/2 155/308/136 154/306/135
f 2/333/2 3/335/3 155/308/136
f 20/416/20 13/381/13 12/379/12
f 20/416/20 21/418/21 13/381/13
f 20/416/20 28/443/28 29/445/29
f 20/416/20 29/445/29 21/418/21
f 22/404/22 15/369/15 14/367/14
f 22/404/22 23/406/23 15/369/15
f 23/406/23 16/371/16 15/369/15
f 23/406/23 24/408/24 16/371/16
f 24/408/24 17/410/17 9/373/9
f 24/408/24 9/373/9 16/371/16
f 25/437/25 18/412/18 17/410/17
f 25/437/25 26/439/26 18/412/18
f 26/439/26 19/414/19 18/412/18
f 26/439/26 27/441/27 19/414/19
f 26/439/26 34/465/34 35/467/35
f 26/439/26 35/467/35 27/441/27
f 27/441/27 35/467/35 36/469/36
f 27/441/27 36/469/36 28/443/28
f 29/429/29 22/404/22 21/402/21
f 29/429/29 30/431/30 22/404/22
f 3/335/3 156/310/137 155/308/136
f 3/335/3 4/337/4 156/310/137
f 30/431/30 23/406/23 22/404/22
f 30/431/30 31/433/31 23/406/23
f 31/433/31 24/408/24 23/406/23
f 31/433/31 32/435/32 24/408/24
f 32/435/32 17/410/17 24/408/24
f 32/435/32 25/437/25 17/410/17
f 32/435/32 33/462/33 25/437/25
f 32/435/32 40/457/40 33/462/33
f 33/462/33 26/439/26 25/437/25
f 33/462/33 34/465/34 26/439/26
f 36/469/36 29/445/29 28/443/28
f 36/469/36 37/472/37 29/445/29
f 37/448/37 30/431/30 29/429/29
f 37/448/37 38/453/38 30/431/30
f 37/448/37 45/475/45 46/477/46
f 37/448/37 46/477/46 38/453/38
f 38/453/38 31/433/31 30/431/30
f 38/453/38 39/455/39 31/433/31
f 39/455/39 32/435/32 31/433/31
f 39/455/39 40/457/40 32/435/32
f 41/483/41 34/465/34 33/462/33
f 41/483/41 42/485/42 34/465/34
f 41/483/41 49/510/49 50/512/50
f 41/483/41 50/512/50 42/485/42
f 42/485/42 35/467/35 34/465/34
f 42/485/42 43/487/43 35/467/35
f 43/487/43 36/469/36 35/467/35
f 43/487/43 44/489/44 36/469/36
f 44/489/44 37/472/37 36/469/36
f 44/489/44 45/491/45 37/472/37
f 46/477/46 39/455/39 38/453/38
f 46/477/46 47/479/47 39/455/39
f 47/479/47 40/457/40 39/455/39
f 47/479/47 48/481/48 40/457/40
f 48/481/48 33/462/33 40/457/40
f 48/481/48 41/483/41 33/462/33
f 49/510/49 57/540/57 58/542/58
f 49/510/49 58/542/58 50/512/50
f 5/323/5 158/297/138 157/295/73
f 5/323/5 6/325/6 158/297/138
f 50/512/50 43/487/43 42/485/42
f 50/512/50 51/514/51 43/487/43
f 50/512/50 58/542/58 59/544/59
f 50/512/50 59/544/59 51/514/51
f 51/514/51 44/489/44 43/487/43
f 51/514/51 52/516/52 44/489/44
f 51/514/51 59/544/59 60/546/60
f 51/514/51 60/546/60 52/516/52
f 52/516/52 45/491/45 44/489/44
f 52/516/52 53/518/53 45/491/45
f 52/516/52 60/546/60 61/548/61
f 52/516/52 61/548/61 53/518/53
f 53/502/53 46/477/46 45/475/45
f 53/502/53 54/504/54 46/477/46
f 54/504/54 47/479/47 46/477/46
f 54/504/54 55/506/55 47/479/47
f 55/506/55 48/481/48 47/479/47
f 55/506/55 56/508/56 48/481/48
f 56/508/56 41/483/41 48/481/48
f 56/508/56 49/510/49 41/483/41
f 60/546/60 68/575/68 69/577/69
f 60/546/60 69/577/69 61/548/61
f 61/532/61 54/504/54 53/502/53
f 61/532/61 62/534/62 54/504/54
f 62/534/62 55/506/55 54/504/54
f 62/534/62 63/536/63 55/506/55
f 63/536/63 56/508/56 55/506/55
f 63/536/63 64/538/64 56/508/56
f 64/538/64 49/510/49 56/508/56
f 64/538/64 57/540/57 49/510/49
f 64/538/64 65/569/65 57/540/57
f 64/538/64 72/567/72 65/569/65
f 65/569/65 58/542/58 57/540/57
f 65/569/65 66/571/66 58/542/58
f 65/569/65 73/597/73 74/600/74
f 65/569/65 74/600/74 66/571/66
f 66/571/66 59/544/59 58/542/58
f 66/571/66 67/573/67 59/544/59
f 67/573/67 60/546/60 59/544/59
f 67/573/67 68/575/68 60/546/60
f 67/573/67 75/602/75 76/604/76
f 67/573/67 76/604/76 68/575/68
f 69/561/69 62/534/62 61/532/61
f 69/561/69 70/563/70 62/534/62
f 7/327/7 160/301/140 159/299/139
f 7/327/7 8/329/8 160/301/140
f 70/563/70 63/536/63 62/534/62
f 70/563/70 71/565/71 63/536/63
f 71/565/71 64/538/64 63/536/63
f 71/565/71 72/567/72 64/538/64
f 71/565/71 79/593/79 80/595/80
f 71/565/71 80/595/80 72/567/72
f 74/600/74 67/573/67 66/571/66
f 74/600/74 75/602/75 67/573/67
f 75/14/75 83/43/82 84/45/83
f 75/14/75 84/45/83 76/16/76
f 76/16/76 84/45/83 85/47/1
f 76/16/76 85/47/1 77/19/77
f 76/604/76 69/577/69 68/575/68
f 76/604/76 77/607/77 69/577/69
f 77/589/77 70/563/70 69/561/69
f 77/589/77 78/591/78 70/563/70
f 78/591/78 71/565/71 70/563/70
f 78/591/78 79/593/79 71/565/71
f 8/329/8 1/331/1 153/303/77
f 8/329/8 153/303/77 160/301/140
f 8/329/8 16/371/16 9/373/9
f 8/329/8 9/373/9 1/331/1
f 80/595/80 65/569/65 72/567/72
f 80/595/80 73/597/73 65/569/65
f 81/39/5 74/12/74 73/9/73
f 81/39/5 82/41/81 74/12/74
f 82/41/81 75/14/75 74/12/74
f 82/41/81 83/43/82 75/14/75
f 85/31/1 78/3/78 77/1/77
f 85/31/1 86/33/84 78/3/78
f 86/33/84 79/5/79 78/3/78
f 86/33/84 87/35/85 79/5/79
f 87/35/85 80/7/80 79/5/79
f 87/35/85 88/37/86 80/7/80
f 88/37/86 73/9/73 80/7/80
f 88/37/86 81/39/5 73/9/73
f 89/68/13 82/41/81 81/39/5
f 89/68/13 90/70/87 82/41/81
f 9/373/9 10/375/10 2/333/2
f 9/373/9 17/410/17 18/412/18
f 9/373/9 18/412/18 10/375/10
f 9/373/9 2/333/2 1/331/1
f 90/70/87 83/43/82 82/41/81
f 90/70/87 91/72/88 83/43/82
f 91/72/88 84/45/83 83/43/82
f 91/72/88 92/74/89 84/45/83
f 92/74/89 85/47/1 84/45/83
f 92/74/89 93/76/9 85/47/1
f 93/60/9 86/33/84 85/31/1
f 93/60/9 94/62/90 86/33/84
f 94/62/90 87/35/85 86/33/84
f 94/62/90 95/64/91 87/35/85
f 95/64/91 88/37/86 87/35/85
f 95/64/91 96/66/92 88/37/86
f 96/66/92 104/96/98 97/98/21
f 96/66/92 81/39/5 88/37/86
f 96/66/92 89/68/13 81/39/5
f 96/66/92 97/98/21 89/68/13
f 97/98/21 105/125/29 106/127/99
f 97/98/21 106/127/99 98/100/93
f 97/98/21 90/70/87 89/68/13
f 97/98/21 98/100/93 90/70/87
f 98/100/93 91/72/88 90/70/87
f 98/100/93 99/102/94 91/72/88
f 99/102/94 100/104/95 92/74/89
f 99/102/94 92/74/89 91/72/88
g hunter_body_Sphere.016
v 0.000000 0.683200 0.000000
v 0.000000 0.675595 0.065792
v 0.000000 0.571600 0.220144
v 0.000000 0.517768 0.245538
v 0.000000 0.402232 0.245538
v 0.000000 0.348400 0.220144
v 0.000000 0.244405 0.065792
v 0.000000 0.236800 0.000000
v -0.024794 0.675595 0.062572
v -0.047898 0.653297 0.120879
v -0.067737 0.617826 0.170949
v -0.082961 0.571600 0.209369
v -0.092531 0.517768 0.233521
v -0.095795 0.460000 0.241759
v -0.092531 0.402232 0.233521
v -0.082961 0.348400 0.209369
v -0.067737 0.302174 0.170949
v -0.047898 0.266703 0.120879
v -0.024794 0.244405 0.062572
v -0.047160 0.675595 0.053227
v -0.091107 0.653297 0.102826
v -0.128844 0.617826 0.145418
v -0.157801 0.571600 0.178100
v -0.176005 0.517768 0.198645
v -0.182213 0.460000 0.205652
v -0.176005 0.402232 0.198645
v -0.157801 0.348400 0.178100
v -0.128844 0.302174 0.145418
v -0.091107 0.266703 0.102826
v -0.047160 0.244405 0.053227
v -0.064911 0.675595 0.038671
v -0.125398 0.653297 0.074708
v -0.177339 0.617826 0.105652
v -0.217195 0.571600 0.129397
v -0.242250 0.517768 0.144324
v -0.250795 0.460000 0.149415
v -0.242250 0.402232 0.144324
v -0.217195 0.348400 0.129397
v -0.177339 0.302174 0.105652
v -0.125398 0.266703 0.074708
v -0.064911 0.244405 0.038671
v -0.076307 0.675595 0.020331
v -0.147414 0.653297 0.039276
v -0.208475 0.617826 0.055545
v -0.255328 0.571600 0.068028
v -0.284782 0.517768 0.075876
v -0.294828 0.460000 0.078552
v -0.284782 0.402232 0.075876
v -0.255328 0.348400 0.068028
v -0.208475 0.302174 0.055545
v -0.147414 0.266703 0.039276
v -0.076307 0.244405 0.020331
v -0.080234 0.675595 0.000000
v -0.155000 0.653297 -0.000000
v -0.219203 0.617826 0.000000
v -0.268468 0.571600 0.000000
v -0.299437 0.517768 0.000000
v -0.310000 0.460000 -0.000000
v -0.299437 0.402232 0.000000
v -0.268468 0.348400 0.000000
v -0.219203 0.302174 0.000000
v -0.155000 0.266703 -0.000000
v -0.080234 0.244405 0.000000
v -0.076307 0.675595 -0.020331
v -0.147414 0.653297 -0.039276
v -0.208475 0.617826 -0.055545
v -0.255328 0.571600 -0.068028
v -0.284782 0.517768 -0.075876
v -0.294828 0.460000 -0.078552
v -0.284782 0.402232 -0.075876
v -0.255328 0.348400 -0.068028
v -0.208475 0.302174 -0.055545
v -0.147414 0.266703 -0.039276
v -0.076307 0.244405 -0.020331
v -0.064911 0.675595 -0.038671
v -0.125398 0.653297 -0.074708
v -0.177339 0.617826 -0.105652
v -0.217195 0.571600 -0.129397
v -0.242250 0.517768 -0.144324
v -0.250795 0.460000 -0.149415
v -0.242250 0.402232 -0.144324
v -0.217195 0.348400 -0.129397
v -0.177339 0.302174 -0.105652
v -0.125398 0.266703 -0.074708
v -0.064911 0.244405 -0.038671
v -0.047160 0.675595 -0.053227
v -0.091107 0.653297 -0.102826
v -0.128844 0.617826 -0.145418
v -0.157801 0.571600 -0.178100
v -0.176005 0.517768 -0.198645
v -0.182213 0.460000 -0.205652
v -0.176005 0.402232 -0.198645
v -0.157801 0.348400 -0.178100
v -0.128844 0.302174 -0.145418
v -0.091107 0.266703 -0.102826
v -0.047160 0.244405 -0.053227
v -0.024794 0.675595 -0.062572
v -0.047898 0.653297 -0.120879
v -0.067738 0.617826 -0.170949
v -0.082961 0.571600 -0.209369
v -0.092531 0.517768 -0.233521
v -0.095795 0.460000 -0.241759
v -0.092531 0.402232 -0.233521
v -0.082961 0.348400 -0.209369
v -0.067738 0.302174 -0.170949
v -0.047898 0.266703 -0.120879
v -0.024794 0.244405 -0.062572
v 0.000000 0.675595 -0.065792
v 0.000000 0.653297 -0.127100
v 0.000000 0.617826 -0.179747
v 0.000000 0.571600 -0.220144
v 0.000000 0.517768 -0.245538
v 0.000000 0.460000 -0.254200
v 0.000000 0.402232 -0.245538
v 0.000000 0.348400 -0.220144
v 0.000000 0.302174 -0.179747
v 0.000000 0.266703 -0.127100
v 0.000000 0.244405 -0.065792
v 0.024794 0.675595 -0.062572
v 0.047898 0.653297 -0.120879
v 0.067738 0.617826 -0.170949
v 0.082961 0.571600 -0.209369
v 0.092531 0.517768 -0.233521
v 0.095795 0.460000 -0.241759
v 0.092531 0.402232 -0.233521
v 0.082961 0.348400 -0.209369
v 0.067738 0.302174 -0.170949
v 0.047898 0.266703 -0.120879
v 0.024794 0.244405 -0.062572
v 0.047160 0.675595 -0.053227
v 0.091107 0.653297 -0.102826
v 0.128844 0.617826 -0.145418
v 0.157802 0.571600 -0.178100
v 0.176005 0.517768 -0.198645
v 0.182214 0.460000 -0.205652
v 0.176005 0.402232 -0.198645
v 0.157802 0.348400 -0.178100
v 0.128844 0.302174 -0.145418
v 0.091107 0.266703 -0.102826
v 0.047160 0.244405 -0.053227
v 0.064911 0.675595 -0.038671
v 0.125398 0.653297 -0.074708
v 0.177339 0.617826 -0.105652
v 0.217195 0.571600 -0.129397
v 0.242250 0.517768 -0.144324
v 0.250795 0.460000 -0.149415
v 0.242250 0.402232 -0.144324
v 0.217195 0.348400 -0.129397
v 0.177339 0.302174 -0.105652
v 0.125398 0.266703 -0.074708
v 0.064911 0.244405 -0.038671
v 0.076307 0.675595 -0.020331
v 0.147414 0.653297 -0.039276
v 0.208475 0.617826 -0.055545
v 0.255328 0.571600 -0.068028
v 0.284782 0.517768 -0.075876
v 0.294828 0.460000 -0.078552
v 0.284782 0.402232 -0.075876
v 0.255328 0.348400 -0.068028
v 0.208475 0.302174 -0.055545
v 0.147414 0.266703 -0.039276
v 0.076307 0.244405 -0.020331
v 0.080234 0.675595 0.000000
v 0.155000 0.653297 0.000000
v 0.219203 0.617826 -0.000000
v 0.268468 0.571600 0.000000
v 0.299437 0.517768 0.000000
v 0.310000 0.460000 0.000000
v 0.299437 0.402232 0.000000
v 0.268468 0.348400 0.000000
v 0.219203 0.302174 -0.000000
v 0.155000 0.266703 0.000000
v 0.080234 0.244405 0.000000
v 0.076307 0.675595 0.020331
v 0.147414 0.653297 0.039276
v 0.208475 0.617826 0.055545
v 0.255328 0.571600 0.068028
v 0.284782 0.517768 0.075876
v 0.294828 0.460000 0.078552
v 0.284782 0.402232 0.075876
v 0.255328 0.348400 0.068028
v 0.208475 0.302174 0.055545
v 0.147414 0.266703 0.039276
v 0.076307 0.244405 0.020331
v 0.064911 0.675595 0.038671
v 0.125398 0.653297 0.074708
v 0.177339 0.617826 0.105652
v 0.217195 0.571600 0.129397
v 0.242250 0.517768 0.144324
v 0.250795 0.460000 0.149415
v 0.242250 0.402232 0.144324
v 0.217195 0.348400 0.129397
v 0.177339 0.302174 0.105652
v 0.125398 0.266703 0.074708
v 0.064911 0.244405 0.038671
v 0.047160 0.675595 0.053227
v 0.091107 0.653297 0.102826
v 0.128844 0.617826 0.145418
v 0.157802 0.571600 0.178100
v 0.176005 0.517768 0.198645
v 0.182214 0.460000 0.205652
v 0.176005 0.402232 0.198645
v 0.157802 0.348400 0.178100
v 0.128844 0.302174 0.145418
v 0.091107 0.266703 0.102826
v 0.047160 0.244405 0.053227
v 0.024794 0.675595 0.062572
v 0.047898 0.653297 0.120879
v 0.067738 0.617826 0.170949
v 0.082961 0.571600 0.209369
v 0.092531 0.517768 0.233521
v 0.095795 0.460000 0.241759
v 0.092531 0.402232 0.233521
v 0.082961 0.348400 0.209369
v 0.067738 0.302174 0.170949
v 0.047898 0.266703 0.120879
v 0.024794 0.244405 0.062572
v 0.000000 0.653297 0.127100
v 0.000000 0.617826 0.179747
v 0.000000 0.460000 0.254200
v 0.000000 0.302174 0.179747
v 0.000000 0.266703 0.127100
vn -0.0000 1.0000 -0.0000
vn -0.0000 0.9710 0.2389
vn -0.0000 0.5425 0.8401
vn -0.0000 0.2873 0.9578
vn -0.0000 -0.2873 0.9578
vn -0.0000 -0.5425 0.8401
vn -0.0000 -0.9710 0.2389
vn -0.0000 -1.0000 -0.0000
vn -0.0598 0.9718 0.2281
vn -0.1170 0.8899 0.4410
vn -0.1708 0.7497 0.6394
vn -0.2170 0.5482 0.8077
vn -0.2492 0.2913 0.9236
vn -0.2608 -0.0000 0.9654
vn -0.2492 -0.2913 0.9236
vn -0.2170 -0.5482 0.8077
vn -0.1708 -0.7497 0.6394
vn -0.1170 -0.8899 0.4410
vn -0.0598 -0.9718 0.2281
vn -0.1150 0.9738 0.1962
vn -0.2253 0.8972 0.3799
vn -0.3315 0.7630 0.5549
vn -0.4253 0.5641 0.7077
vn -0.4926 0.3025 0.8160
vn -0.5175 -0.0000 0.8557
vn -0.4926 -0.3025 0.8160
vn -0.4253 -0.5641 0.7077
vn -0.3315 -0.7630 0.5549
vn -0.2253 -0.8972 0.3799
vn -0.1150 -0.9738 0.1962
vn -0.1607 0.9763 0.1447
vn -0.3153 0.9065 0.2807
vn -0.4685 0.7804 0.4141
vn -0.6091 0.5855 0.5349
vn -0.7141 0.3180 0.6237
vn -0.7539 -0.0000 0.6570
vn -0.7141 -0.3180 0.6237
vn -0.6091 -0.5855 0.5349
vn -0.4685 -0.7804 0.4141
vn -0.3153 -0.9065 0.2807
vn -0.1607 -0.9763 0.1447
vn -0.1914 0.9785 0.0771
vn -0.3762 0.9144 0.1498
vn -0.5636 0.7954 0.2228
vn -0.7415 0.6045 0.2911
vn -0.8787 0.3320 0.3429
vn -0.9319 -0.0000 0.3627
vn -0.8787 -0.3320 0.3429
vn -0.7415 -0.6045 0.2911
vn -0.5636 -0.7954 0.2228
vn -0.3762 -0.9144 0.1498
vn -0.1914 -0.9785 0.0771
vn -0.2023 0.9793 -0.0000
vn -0.3979 0.9174 -0.0000
vn -0.5981 0.8014 -0.0000
vn -0.7907 0.6122 -0.0000
vn -0.9412 0.3378 -0.0000
vn -1.0000 -0.0000 -0.0000
vn -0.9412 -0.3378 -0.0000
vn -0.7907 -0.6122 -0.0000
vn -0.5981 -0.8014 -0.0000
vn -0.3979 -0.9174 -0.0000
vn -0.2023 -0.9793 -0.0000
vn -0.1914 0.9785 -0.0771
vn -0.3762 0.9144 -0.1498
vn -0.5636 0.7954 -0.2228
vn -0.7415 0.6045 -0.2911
vn -0.8787 0.3320 -0.3429
vn -0.9319 -0.0000 -0.3627
vn -0.8787 -0.3320 -0.3429
vn -0.7415 -0.6045 -0.2911
vn -0.5636 -0.7954 -0.2228
vn -0.3762 -0.9144 -0.1498
vn -0.1914 -0.9785 -0.0771
vn -0.1607 0.9763 -0.1447
vn -0.3153 0.9065 -0.2807
vn -0.4685 0.7804 -0.4141
vn -0.6091 0.5855 -0.5349
vn -0.7141 0.3180 -0.6237
vn -0.7539 -0.0000 -0.6570
vn -0.7141 -0.3180 -0.6237
vn -0.6091 -0.5855 -0.5349
vn -0.4685 -0.7804 -0.4141
vn -0.3153 -0.9065 -0.2807
vn -0.1607 -0.9763 -0.1447
vn -0.1150 0.9738 -0.1962
vn -0.2253 0.8972 -0.3799
vn -0.3315 0.7630 -0.5549
vn -0.4253 0.5641 -0.7077
vn -0.4926 0.3025 -0.8160
vn -0.5175 -0.0000 -0.8557
vn -0.4926 -0.3025 -0.8160
vn -0.4253 -0.5641 -0.7077
vn -0.3315 -0.7630 -0.5549
vn -0.2253 -0.8972 -0.3799
vn -0.1150 -0.9738 -0.1962
vn -0.0598 0.9718 -0.2281
vn -0.1170 0.8899 -0.4410
vn -0.1708 0.7497 -0.6394
vn -0.2170 0.5482 -0.8077
vn -0.2492 0.2913 -0.9236
vn -0.2608 -0.0000 -0.9654
vn -0.2492 -0.2913 -0.9236
vn -0.2170 -0.5482 -0.8077
vn -0.1708 -0.7497 -0.6394
vn -0.1170 -0.8899 -0.4410
vn -0.0598 -0.9718 -0.2281
vn -0.0000 0.9710 -0.2389
vn -0.0000 0.8871 -0.4615
vn -0.0000 0.7448 -0.6673
vn -0.0000 0.5425 -0.8401
vn -0.0000 0.2873 -0.9578
vn -0.0000 -0.0000 -1.0000
vn -0.0000 -0.2873 -0.9578
vn -0.0000 -0.5425 -0.8401
vn -0.0000 -0.7448 -0.6673
vn -0.0000 -0.8871 -0.4615
vn -0.0000 -0.9710 -0.2389
vn 0.0598 0.9718 -0.2281
vn 0.1170 0.8899 -0.4410
vn 0.1708 0.7497 -0.6394
vn 0.2170 0.5482 -0.8077
vn 0.2492 0.2913 -0.9236
vn 0.2608 -0.0000 -0.9654
vn 0.2492 -0.2913 -0.9236
vn 0.2170 -0.5482 -0.8077
vn 0.1708 -0.7497 -0.6394
vn 0.1170 -0.8899 -0.4410
vn 0.0598 -0.9718 -0.2281
vn 0.1150 0.9738 -0.1962
vn 0.2253 0.8972 -0.3799
vn 0.3315 0.7630 -0.5549
vn 0.4253 0.5641 -0.7077
vn 0.4926 0.3025 -0.8160
vn 0.5175 -0.0000 -0.8557
vn 0.4926 -0.3025 -0.8160
vn 0.4253 -0.5641 -0.7077
vn 0.3315 -0.7630 -0.5549
vn 0.2253 -0.8972 -0.3799
vn 0.1150 -0.9738 -0.1962
vn 0.1607 0.9763 -0.1447
vn 0.3153 0.9065 -0.2807
vn 0.4685 0.7804 -0.4141
vn 0.6091 0.5855 -0.5349
vn 0.7141 0.3180 -0.6237
vn 0.7539 -0.0000 -0.6570
vn 0.7141 -0.3180 -0.6237
vn 0.6091 -0.5855 -0.5349
vn 0.4685 -0.7804 -0.4141
vn 0.3153 -0.9065 -0.2807
vn 0.1607 -0.9763 -0.1447
vn 0.1914 0.9785 -0.0771
vn 0.3762 0.9144 -0.1498
vn 0.5636 0.7954 -0.2228
vn 0.7415 0.6045 -0.2911
vn 0.8787 0.3320 -0.3429
vn 0.9319 -0.0000 -0.3627
vn 0.8787 -0.3320 -0.3429
vn 0.7415 -0.6045 -0.2911
vn 0.5636 -0.7954 -0.2228
vn 0.3762 -0.9144 -0.1498
vn 0.1914 -0.9785 -0.0771
vn 0.2023 0.9793 -0.0000
vn 0.3979 0.9174 -0.0000
vn 0.5981 0.8014 -0.0000
vn 0.7907 0.6122 -0.0000
vn 0.9412 0.3378 -0.0000
vn 1.0000 -0.0000 -0.0000
vn 0.9412 -0.3378 -0.0000
vn 0.7907 -0.6122 -0.0000
vn 0.5981 -0.8014 -0.0000
vn 0.3979 -0.9174 -0.0000
vn 0.2023 -0.9793 -0.0000
vn 0.1914 0.9785 0.0771
vn 0.3762 0.9144 0.1498
vn 0.5636 0.7954 0.2228
vn 0.7415 0.6045 0.2911
vn 0.8787 0.3320 0.3429
vn 0.9319 -0.0000 0.3627
vn 0.8787 -0.3320 0.3429
vn 0.7415 -0.6045 0.2911
vn 0.5636 -0.7954 0.2228
vn 0.3762 -0.9144 0.1498
vn 0.1914 -0.9785 0.0771
vn 0.1607 0.9763 0.1447
vn 0.3153 0.9065 0.2807
vn 0.4685 0.7804 0.4141
vn 0.6091 0.5855 0.5349
vn 0.7141 0.3180 0.6237
vn 0.7539 -0.0000 0.6570
vn 0.7141 -0.3180 0.6237
vn 0.6091 -0.5855 0.5349
vn 0.4685 -0.7804 0.4141
vn 0.3153 -0.9065 0.2807
vn 0.1607 -0.9763 0.1447
vn 0.1150 0.9738 0.1962
vn 0.2253 0.8972 0.3799
vn 0.3315 0.7630 0.5549
vn 0.4253 0.5641 0.7077
vn 0.4926 0.3025 0.8160
vn 0.5175 -0.0000 0.8557
vn 0.4926 -0.3025 0.8160
vn 0.4253 -0.5641 0.7077
vn 0.3315 -0.7630 0.5549
vn 0.2253 -0.8972 0.3799
vn 0.1150 -0.9738 0.1962
vn 0.0598 0.9718 0.2281
vn 0.1170 0.8899 0.4410
vn 0.1708 0.7497 0.6394
vn 0.2170 0.5482 0.8077
vn 0.2492 0.2913 0.9236
vn 0.2608 -0.0000 0.9654
vn 0.2492 -0.2913 0.9236
vn 0.2170 -0.5482 0.8077
vn 0.1708 -0.7497 0.6394
vn 0.1170 -0.8899 0.4410
vn 0.0598 -0.9718 0.2281
vn -0.0000 0.8871 0.4615
vn -0.0000 0.7448 0.6673
vn -0.0000 -0.0000 1.0000
vn -0.0000 -0.7448 0.6673
vn -0.0000 -0.8871 0.4615
s 1
g hunter_body_M_gunmetal
usemtl M_gunmetal
f 162/470/142 161/447/141 169/444/149
f 163/466/143 171/441/151 172/440/152
f 163/466/143 379/467/359 171/441/151
f 164/464/144 163/466/143 172/440/152
f 164/464/144 172/440/152 173/438/153
f 165/458/145 175/436/155 176/434/156
f 165/458/145 176/434/156 166/456/146
f 166/456/146 176/434/156 177/433/157
f 166/456/146 177/433/157 381/455/361
f 168/111/148 289/118/269 300/91/280
f 168/134/148 278/140/258 289/118/269
f 168/161/148 267/164/247 278/140/258
f 168/184/148 256/191/236 267/164/247
f 168/211/148 245/228/225 256/191/236
f 168/24/148 322/32/302 333/2/313
f 168/263/148 234/270/214 245/228/225
f 168/291/148 223/296/203 234/270/214
f 168/316/148 212/324/192 223/296/203
f 168/344/148 201/366/181 212/324/192
f 168/386/148 190/403/170 201/366/181
f 168/423/148 179/430/159 190/403/170
f 168/446/148 167/452/147 179/430/159
f 168/473/148 377/476/357 167/452/147
f 168/496/148 366/503/346 377/476/357
f 168/52/148 311/61/291 322/32/302
f 168/524/148 355/533/335 366/503/346
f 168/555/148 344/562/324 355/533/335
f 168/583/148 333/590/313 344/562/324
f 168/77/148 300/91/280 311/61/291
f 169/444/149 161/424/141 180/417/160
f 170/442/150 169/444/149 180/417/160
f 170/442/150 180/417/160 181/415/161
f 171/441/151 170/442/150 181/415/161
f 171/441/151 181/415/161 182/414/162
f 172/440/152 171/441/151 182/414/162
f 172/440/152 182/414/162 183/413/163
f 173/438/153 172/440/152 183/413/163
f 173/438/153 183/413/163 184/411/164
f 174/437/154 173/438/153 184/411/164
f 174/437/154 184/411/164 185/410/165
f 174/437/154 185/410/165 186/409/166
f 174/437/154 186/409/166 175/436/155
f 175/436/155 186/409/166 187/407/167
f 175/436/155 187/407/167 176/434/156
f 176/434/156 187/407/167 188/406/168
f 176/434/156 188/406/168 177/433/157
f 177/433/157 188/406/168 189/405/169
f 177/433/157 189/405/169 178/432/158
f 178/432/158 189/405/169 190/403/170
f 178/432/158 190/403/170 179/430/159
f 180/417/160 161/397/141 191/380/171
f 181/415/161 180/417/160 191/380/171
f 181/415/161 191/380/171 192/378/172
f 182/414/162 181/415/161 192/378/172
f 182/414/162 192/378/172 193/377/173
f 183/413/163 182/414/162 193/377/173
f 183/413/163 193/377/173 194/376/174
f 184/411/164 183/413/163 194/376/174
f 184/411/164 194/376/174 195/374/175
f 185/410/165 184/411/164 195/374/175
f 185/410/165 195/374/175 196/373/176
f 185/410/165 196/373/176 197/372/177
f 185/410/165 197/372/177 186/409/166
f 186/409/166 197/372/177 198/370/178
f 186/409/166 198/370/178 187/407/167
f 187/407/167 198/370/178 199/369/179
f 187/407/167 199/369/179 188/406/168
f 188/406/168 199/369/179 200/368/180
f 188/406/168 200/368/180 189/405/169
f 189/405/169 200/368/180 201/366/181
f 189/405/169 201/366/181 190/403/170
f 191/380/171 161/345/141 202/338/182
f 192/378/172 191/380/171 202/338/182
f 192/378/172 202/338/182 203/336/183
f 193/377/173 192/378/172 203/336/183
f 193/377/173 203/336/183 204/335/184
f 194/376/174 193/377/173 204/335/184
f 194/376/174 204/335/184 205/334/185
f 195/374/175 194/376/174 205/334/185
f 195/374/175 205/334/185 206/332/186
f 196/373/176 195/374/175 206/332/186
f 196/373/176 206/332/186 207/331/187
f 196/373/176 207/331/187 208/330/188
f 196/373/176 208/330/188 197/372/177
f 197/372/177 208/330/188 209/328/189
f 197/372/177 209/328/189 198/370/178
f 198/370/178 209/328/189 210/327/190
f 198/370/178 210/327/190 199/369/179
f 199/369/179 210/327/190 211/326/191
f 199/369/179 211/326/191 200/368/180
f 200/368/180 211/326/191 212/324/192
f 200/368/180 212/324/192 201/366/181
f 202/338/182 161/317/141 213/311/193
f 203/336/183 202/338/182 213/311/193
f 203/336/183 213/311/193 214/309/194
f 204/335/184 203/336/183 214/309/194
f 204/335/184 214/309/194 215/308/195
f 205/334/185 204/335/184 215/308/195
f 205/334/185 215/308/195 216/307/196
f 206/332/186 205/334/185 216/307/196
f 206/332/186 216/307/196 217/305/197
f 207/331/187 206/332/186 217/305/197
f 207/331/187 217/305/197 218/303/198
f 207/331/187 218/303/198 219/302/199
f 207/331/187 219/302/199 208/330/188
f 208/330/188 219/302/199 220/300/200
f 208/330/188 220/300/200 209/328/189
f 209/328/189 220/300/200 221/299/201
f 209/328/189 221/299/201 210/327/190
f 210/327/190 221/299/201 222/298/202
f 210/327/190 222/298/202 211/326/191
f 211/326/191 222/298/202 223/296/203
f 211/326/191 223/296/203 212/324/192
f 213/311/193 161/292/141 224/284/204
f 213/311/193 224/284/204 225/282/205
f 213/311/193 225/282/205 214/309/194
f 214/309/194 225/282/205 226/281/206
f 214/309/194 226/281/206 215/308/195
f 215/308/195 226/281/206 227/280/207
f 215/308/195 227/280/207 216/307/196
f 216/307/196 227/280/207 228/278/208
f 216/307/196 228/278/208 217/305/197
f 217/305/197 228/278/208 229/277/209
f 217/305/197 229/277/209 218/303/198
f 219/302/199 218/303/198 229/277/209
f 219/302/199 229/277/209 230/276/210
f 220/300/200 219/302/199 230/276/210
f 220/300/200 230/276/210 231/274/211
f 221/299/201 220/300/200 231/274/211
f 221/299/201 231/274/211 232/273/212
f 222/298/202 221/299/201 232/273/212
f 222/298/202 232/273/212 233/272/213
f 223/296/203 222/298/202 233/272/213
f 223/296/203 233/272/213 234/270/214
f 224/284/204 161/264/141 235/242/215
f 224/284/204 235/242/215 236/240/216
f 224/284/204 236/240/216 225/282/205
f 225/282/205 236/240/216 237/239/217
f 225/282/205 237/239/217 226/281/206
f 226/281/206 237/239/217 238/238/218
f 226/281/206 238/238/218 227/280/207
f 227/280/207 238/238/218 239/236/219
f 227/280/207 239/236/219 228/278/208
f 228/278/208 239/236/219 240/235/220
f 228/278/208 240/235/220 229/277/209
f 230/276/210 229/277/209 240/235/220
f 230/276/210 240/235/220 241/234/221
f 231/274/211 230/276/210 241/234/221
f 231/274/211 241/234/221 242/232/222
f 232/273/212 231/274/211 242/232/222
f 232/273/212 242/232/222 243/231/223
f 233/272/213 232/273/212 243/231/223
f 233/272/213 243/231/223 244/230/224
f 234/270/214 233/272/213 244/230/224
f 234/270/214 244/230/224 245/228/225
f 235/242/215 161/222/141 246/205/226
f 235/242/215 246/205/226 247/203/227
f 235/242/215 247/203/227 236/240/216
f 236/240/216 247/203/227 248/202/228
f 236/240/216 248/202/228 237/239/217
f 237/239/217 248/202/228 249/201/229
f 237/239/217 249/201/229 238/238/218
f 238/238/218 249/201/229 250/199/230
f 238/238/218 250/199/230 239/236/219
f 239/236/219 250/199/230 251/198/231
f 239/236/219 251/198/231 240/235/220
f 241/234/221 240/235/220 251/198/231
f 241/234/221 251/198/231 252/197/232
f 242/232/222 241/234/221 252/197/232
f 242/232/222 252/197/232 253/195/233
f 243/231/223 242/232/222 253/195/233
f 243/231/223 253/195/233 254/194/234
f 244/230/224 243/231/223 254/194/234
f 244/230/224 254/194/234 255/193/235
f 245/228/225 244/230/224 255/193/235
f 245/228/225 255/193/235 256/191/236
f 246/205/226 161/185/141 257/178/237
f 246/205/226 257/178/237 258/176/238
f 246/205/226 258/176/238 247/203/227
f 247/203/227 258/176/238 259/175/239
f 247/203/227 259/175/239 248/202/228
f 248/202/228 259/175/239 260/174/240
f 248/202/228 260/174/240 249/201/229
f 249/201/229 260/174/240 261/172/241
f 249/201/229 261/172/241 250/199/230
f 250/199/230 261/172/241 262/171/242
f 250/199/230 262/171/242 251/198/231
f 252/197/232 251/198/231 262/171/242
f 252/197/232 262/171/242 263/170/243
f 253/195/233 252/197/232 263/170/243
f 253/195/233 263/170/243 264/168/244
f 254/194/234 253/195/233 264/168/244
f 254/194/234 264/168/244 265/167/245
f 255/193/235 254/194/234 265/167/245
f 255/193/235 265/167/245 266/166/246
f 256/191/236 255/193/235 266/166/246
f 256/191/236 266/166/246 267/164/247
f 257/178/237 161/162/141 268/158/248
f 257/178/237 268/158/248 269/156/249
f 257/178/237 269/156/249 258/176/238
f 258/176/238 269/156/249 270/155/250
f 258/176/238 270/155/250 259/175/239
f 259/175/239 270/155/250 271/154/251
f 259/175/239 271/154/251 260/174/240
f 260/174/240 271/154/251 272/152/252
f 260/174/240 272/152/252 261/172/241
f 261/172/241 272/152/252 273/150/253
f 261/172/241 273/150/253 262/171/242
f 263/170/243 262/171/242 273/150/253
f 263/170/243 273/150/253 274/146/254
f 264/168/244 263/170/243 274/146/254
f 264/168/244 274/146/254 275/144/255
f 265/167/245 264/168/244 275/144/255
f 265/167/245 275/144/255 276/143/256
f 266/166/246 265/167/245 276/143/256
f 266/166/246 276/143/256 277/142/257
f 267/164/247 266/166/246 277/142/257
f 267/164/247 277/142/257 278/140/258
f 268/158/248 161/135/141 279/132/259
f 269/156/249 268/158/248 279/132/259
f 269/156/249 279/132/259 280/130/260
f 270/155/250 269/156/249 280/130/260
f 270/155/250 280/130/260 281/129/261
f 271/154/251 270/155/250 281/129/261
f 271/154/251 281/129/261 282/128/262
f 272/152/252 271/154/251 282/128/262
f 272/152/252 282/128/262 283/126/263
f 273/150/253 272/152/252 283/126/263
f 273/150/253 283/126/263 284/125/264
f 273/150/253 284/125/264 285/124/265
f 273/150/253 285/124/265 274/146/254
f 274/146/254 285/124/265 286/122/266
f 274/146/254 286/122/266 275/144/255
f 275/144/255 286/122/266 287/121/267
f 275/144/255 287/121/267 276/143/256
f 276/143/256 287/121/267 288/120/268
f 276/143/256 288/120/268 277/142/257
f 277/142/257 288/120/268 289/118/269
f 277/142/257 289/118/269 278/140/258
f 279/132/259 161/112/141 290/105/270
f 280/130/260 279/132/259 290/105/270
f 280/130/260 290/105/270 291/103/271
f 281/129/261 280/130/260 291/103/271
f 281/129/261 291/103/271 292/102/272
f 282/128/262 281/129/261 292/102/272
f 282/128/262 292/102/272 293/101/273
f 283/126/263 282/128/262 293/101/273
f 283/126/263 293/101/273 294/99/274
f 284/125/264 283/126/263 294/99/274
f 284/125/264 294/99/274 295/98/275
f 284/125/264 295/98/275 296/97/276
f 284/125/264 296/97/276 285/124/265
f 285/124/265 296/97/276 297/95/277
f 285/124/265 297/95/277 286/122/266
f 286/122/266 297/95/277 298/94/278
f 286/122/266 298/94/278 287/121/267
f 287/121/267 298/94/278 299/93/279
f 287/121/267 299/93/279 288/120/268
f 288/120/268 299/93/279 300/91/280
f 288/120/268 300/91/280 289/118/269
f 290/105/270 161/84/141 301/75/281
f 291/103/271 290/105/270 301/75/281
f 291/103/271 301/75/281 302/73/282
f 292/102/272 291/103/271 302/73/282
f 292/102/272 302/73/282 303/72/283
f 293/101/273 292/102/272 303/72/283
f 293/101/273 303/72/283 304/71/284
f 294/99/274 293/101/273 304/71/284
f 294/99/274 304/71/284 305/69/285
f 295/98/275 294/99/274 305/69/285
f 295/98/275 305/69/285 306/68/286
f 295/98/275 306/68/286 307/67/287
f 295/98/275 307/67/287 296/97/276
f 296/97/276 307/67/287 308/65/288
f 296/97/276 308/65/288 297/95/277
f 297/95/277 308/65/288 309/64/289
f 297/95/277 309/64/289 298/94/278
f 298/94/278 309/64/289 310/63/290
f 298/94/278 310/63/290 299/93/279
f 299/93/279 310/63/290 311/61/291
f 299/93/279 311/61/291 300/91/280
f 301/75/281 161/53/141 312/46/292
f 302/73/282 301/75/281 312/46/292
f 302/73/282 312/46/292 313/44/293
f 303/72/283 302/73/282 313/44/293
f 303/72/283 313/44/293 314/43/294
f 304/71/284 303/72/283 314/43/294
f 304/71/284 314/43/294 315/42/295
f 305/69/285 304/71/284 315/42/295
f 305/69/285 315/42/295 316/40/296
f 306/68/286 305/69/285 316/40/296
f 306/68/286 316/40/296 317/39/297
f 306/68/286 317/39/297 318/38/298
f 306/68/286 318/38/298 307/67/287
f 307/67/287 318/38/298 319/36/299
f 307/67/287 319/36/299 308/65/288
f 308/65/288 319/36/299 320/35/300
f 308/65/288 320/35/300 309/64/289
f 309/64/289 320/35/300 321/34/301
f 309/64/289 321/34/301 310/63/290
f 310/63/290 321/34/301 322/32/302
f 310/63/290 322/32/302 311/61/291
f 312/46/292 161/25/141 323/17/303
f 313/44/293 312/46/292 323/17/303
f 313/44/293 323/17/303 324/15/304
f 314/43/294 313/44/293 324/15/304
f 314/43/294 324/15/304 325/14/305
f 315/42/295 314/43/294 325/14/305
f 315/42/295 325/14/305 326/13/306
f 316/40/296 315/42/295 326/13/306
f 316/40/296 326/13/306 327/11/307
f 317/39/297 316/40/296 327/11/307
f 317/39/297 327/11/307 328/9/308
f 317/39/297 328/9/308 329/8/309
f 317/39/297 329/8/309 318/38/298
f 318/38/298 329/8/309 330/6/310
f 318/38/298 330/6/310 319/36/299
f 319/36/299 330/6/310 331/5/311
f 319/36/299 331/5/311 320/35/300
f 320/35/300 331/5/311 332/4/312
f 320/35/300 332/4/312 321/34/301
f 321/34/301 332/4/312 333/2/313
f 321/34/301 333/2/313 322/32/302
f 323/605/303 161/584/141 334/576/314
f 323/605/303 334/576/314 335/574/315
f 323/605/303 335/574/315 324/603/304
f 324/603/304 335/574/315 336/573/316
f 324/603/304 336/573/316 325/602/305
f 325/602/305 336/573/316 337/572/317
f 325/602/305 337/572/317 326/601/306
f 326/601/306 337/572/317 338/570/318
f 326/601/306 338/570/318 327/599/307
f 327/599/307 338/570/318 339/569/319
f 327/599/307 339/569/319 328/597/308
f 329/596/309 328/597/308 339/569/319
f 329/596/309 339/569/319 340/568/320
f 330/594/310 329/596/309 340/568/320
f 330/594/310 340/568/320 341/566/321
f 331/593/311 330/594/310 341/566/321
f 331/593/311 341/566/321 342/565/322
f 332/592/312 331/593/311 342/565/322
f 332/592/312 342/565/322 343/564/323
f 333/590/313 332/592/312 343/564/323
f 333/590/313 343/564/323 344/562/324
f 334/576/314 161/556/141 345/547/325
f 334/576/314 345/547/325 346/545/326
f 334/576/314 346/545/326 335/574/315
f 335/574/315 346/545/326 347/544/327
f 335/574/315 347/544/327 336/573/316
f 336/573/316 347/544/327 348/543/328
f 336/573/316 348/543/328 337/572/317
f 337/572/317 348/543/328 349/541/329
f 337/572/317 349/541/329 338/570/318
f 338/570/318 349/541/329 350/540/330
f 338/570/318 350/540/330 339/569/319
f 340/568/320 339/569/319 350/540/330
f 340/568/320 350/540/330 351/539/331
f 341/566/321 340/568/320 351/539/331
f 341/566/321 351/539/331 352/537/332
f 342/565/322 341/566/321 352/537/332
f 342/565/322 352/537/332 353/536/333
f 343/564/323 342/565/322 353/536/333
f 343/564/323 353/536/333 354/535/334
f 344/562/324 343/564/323 354/535/334
f 344/562/324 354/535/334 355/533/335
f 345/547/325 161/531/141 356/517/336
f 345/547/325 356/517/336 357/515/337
f 345/547/325 357/515/337 346/545/326
f 346/545/326 357/515/337 358/514/338
f 346/545/326 358/514/338 347/544/327
f 347/544/327 358/514/338 359/513/339
f 347/544/327 359/513/339 348/543/328
f 348/543/328 359/513/339 360/511/340
f 348/543/328 360/511/340 349/541/329
f 349/541/329 360/511/340 361/510/341
f 349/541/329 361/510/341 350/540/330
f 351/539/331 350/540/330 361/510/341
f 351/539/331 361/510/341 362/509/342
f 352/537/332 351/539/331 362/509/342
f 352/537/332 362/509/342 363/507/343
f 353/536/333 352/537/332 363/507/343
f 353/536/333 363/507/343 364/506/344
f 354/535/334 353/536/333 364/506/344
f 354/535/334 364/506/344 365/505/345
f 355/533/335 354/535/334 365/505/345
f 355/533/335 365/505/345 366/503/346
f 356/517/336 161/497/141 367/490/347
f 356/517/336 367/490/347 368/488/348
f 356/517/336 368/488/348 357/515/337
f 357/515/337 368/488/348 369/487/349
f 357/515/337 369/487/349 358/514/338
f 358/514/338 369/487/349 370/486/350
f 358/514/338 370/486/350 359/513/339
f 359/513/339 370/486/350 371/484/351
f 359/513/339 371/484/351 360/511/340
f 360/511/340 371/484/351 372/483/352
f 360/511/340 372/483/352 361/510/341
f 362/509/342 361/510/341 372/483/352
f 362/509/342 372/483/352 373/482/353
f 363/507/343 362/509/342 373/482/353
f 363/507/343 373/482/353 374/480/354
f 364/506/344 363/507/343 374/480/354
f 364/506/344 374/480/354 375/479/355
f 365/505/345 364/506/344 375/479/355
f 365/505/345 375/479/355 376/478/356
f 366/503/346 365/505/345 376/478/356
f 366/503/346 376/478/356 377/476/357
f 367/490/347 161/474/141 162/470/142
f 367/490/347 162/470/142 378/468/358
f 367/490/347 378/468/358 368/488/348
f 368/488/348 378/468/358 379/467/359
f 368/488/348 379/467/359 369/487/349
f 369/487/349 163/466/143 370/486/350
f 369/487/349 379/467/359 163/466/143
f 370/486/350 163/466/143 164/464/144
f 370/486/350 164/464/144 371/484/351
f 371/484/351 164/464/144 380/462/360
f 371/484/351 380/462/360 372/483/352
f 373/482/353 372/483/352 380/462/360
f 373/482/353 380/462/360 165/458/145
f 374/480/354 165/458/145 166/456/146
f 374/480/354 373/482/353 165/458/145
f 375/479/355 166/456/146 381/455/361
f 375/479/355 374/480/354 166/456/146
f 376/478/356 375/479/355 381/455/361
f 376/478/356 381/455/361 382/454/362
f 377/476/357 376/478/356 382/454/362
f 377/476/357 382/454/362 167/452/147
f 378/468/358 162/470/142 169/444/149
f 378/468/358 169/444/149 170/442/150
f 379/467/359 170/442/150 171/441/151
f 379/467/359 378/468/358 170/442/150
f 380/462/360 164/464/144 173/438/153
f 380/462/360 173/438/153 174/437/154
f 380/462/360 174/437/154 175/436/155
f 380/462/360 175/436/155 165/458/145
f 381/455/361 177/433/157 178/432/158
f 381/455/361 178/432/158 382/454/362
f 382/454/362 178/432/158 179/430/159
f 382/454/362 179/430/159 167/452/147
g hunter_shell_Cone.018
v 0.000000 0.545000 0.240000
v 0.000000 0.895000 0.100000
v -0.169706 0.545000 0.169706
v -0.070711 0.895000 0.070711
v -0.240000 0.545000 0.000000
v -0.100000 0.895000 0.000000
v -0.169706 0.545000 -0.169706
v -0.070711 0.895000 -0.070711
v 0.000000 0.545000 -0.240000
v 0.000000 0.895000 -0.100000
v 0.169706 0.545000 -0.169706
v 0.070711 0.895000 -0.070711
v 0.240000 0.545000 0.000000
v 0.100000 0.895000 0.000000
v 0.169706 0.545000 0.169706
v 0.070711 0.895000 0.070711
vn -0.3590 0.3466 0.8666
vn -0.8666 0.3466 0.3590
vn -0.8666 0.3466 -0.3590
vn -0.3590 0.3466 -0.8666
vn 0.3590 0.3466 -0.8666
vn 0.8666 0.3466 -0.3590
vn -0.0000 1.0000 -0.0000
vn 0.8666 0.3466 0.3590
vn 0.3590 0.3466 0.8666
vn -0.0000 -1.0000 -0.0000
s 0
g hunter_shell_M_red
usemtl M_red
f 384/149/369 398/55/369 396/22/369
f 384/607/363 385/525/363 383/597/363
f 384/607/363 386/531/363 385/525/363
f 385/554/372 387/586/372 389/553/372
f 386/531/364 387/462/364 385/525/364
f 386/531/364 388/472/364 387/462/364
f 388/294/369 384/149/369 396/22/369
f 388/294/369 386/262/369 384/149/369
f 388/472/365 389/390/365 387/462/365
f 388/472/365 390/397/365 389/390/365
f 389/553/372 391/449/372 393/346/372
f 389/553/372 393/346/372 397/347/372
f 390/397/366 391/303/366 389/390/366
f 390/397/366 392/313/366 391/303/366
f 392/137/369 390/261/369 388/294/369
f 392/313/367 393/216/367 391/303/367
f 392/313/367 394/222/367 393/216/367
f 393/346/372 395/314/372 397/347/372
f 394/222/368 395/150/368 393/216/368
f 394/222/368 396/160/368 395/150/368
f 396/160/370 397/78/370 395/150/370
f 396/160/370 398/84/370 397/78/370
f 396/22/369 392/137/369 388/294/369
f 396/22/369 394/54/369 392/137/369
f 397/347/372 383/461/372 385/554/372
f 397/347/372 385/554/372 389/553/372
f 398/84/371 383/9/371 397/78/371
f 398/84/371 384/19/371 383/9/371
g hunter_eye_Cylinder.060
v 0.000000 0.558882 -0.225000
v 0.000000 0.565000 -0.231000
v -0.000000 0.563208 -0.226757
v 0.000000 0.558882 -0.285000
v 0.000000 0.565000 -0.279000
v 0.000000 0.563208 -0.283243
v -0.030187 0.552878 -0.225000
v -0.032528 0.558530 -0.231000
v -0.031842 0.556874 -0.226757
v -0.030187 0.552878 -0.285000
v -0.032528 0.558530 -0.279000
v -0.031842 0.556874 -0.283243
v -0.055778 0.535778 -0.225000
v -0.060104 0.540104 -0.231000
v -0.058837 0.538837 -0.226757
v -0.055778 0.535778 -0.285000
v -0.060104 0.540104 -0.279000
v -0.058837 0.538837 -0.283243
v -0.072878 0.510187 -0.225000
v -0.078530 0.512528 -0.231000
v -0.076874 0.511842 -0.226757
v -0.072878 0.510187 -0.285000
v -0.078530 0.512528 -0.279000
v -0.076874 0.511842 -0.283243
v -0.078882 0.480000 -0.225000
v -0.085000 0.480000 -0.231000
v -0.083208 0.480000 -0.226757
v -0.078882 0.480000 -0.285000
v -0.085000 0.480000 -0.279000
v -0.083208 0.480000 -0.283243
v -0.072878 0.449813 -0.225000
v -0.078530 0.447472 -0.231000
v -0.076874 0.448158 -0.226757
v -0.072878 0.449813 -0.285000
v -0.078530 0.447472 -0.279000
v -0.076874 0.448158 -0.283243
v -0.055778 0.424222 -0.225000
v -0.060104 0.419896 -0.231000
v -0.058837 0.421163 -0.226757
v -0.055778 0.424222 -0.285000
v -0.060104 0.419896 -0.279000
v -0.058837 0.421163 -0.283243
v -0.030187 0.407122 -0.225000
v -0.032528 0.401470 -0.231000
v -0.031842 0.403126 -0.226757
v -0.030187 0.407122 -0.285000
v -0.032528 0.401470 -0.279000
v -0.031842 0.403126 -0.283243
v 0.000000 0.401118 -0.225000
v 0.000000 0.395000 -0.231000
v 0.000000 0.396792 -0.226757
v 0.000000 0.401118 -0.285000
v 0.000000 0.395000 -0.279000
v -0.000000 0.396792 -0.283243
v 0.030187 0.407122 -0.225000
v 0.032528 0.401470 -0.231000
v 0.031842 0.403126 -0.226757
v 0.030187 0.407122 -0.285000
v 0.032528 0.401470 -0.279000
v 0.031842 0.403126 -0.283243
v 0.055778 0.424222 -0.225000
v 0.060104 0.419896 -0.231000
v 0.058837 0.421163 -0.226757
v 0.055778 0.424222 -0.285000
v 0.060104 0.419896 -0.279000
v 0.058837 0.421163 -0.283243
v 0.072878 0.449813 -0.225000
v 0.078530 0.447472 -0.231000
v 0.076874 0.448158 -0.226757
v 0.072878 0.449813 -0.285000
v 0.078530 0.447472 -0.279000
v 0.076874 0.448158 -0.283243
v 0.078882 0.480000 -0.225000
v 0.085000 0.480000 -0.231000
v 0.083208 0.480000 -0.226757
v 0.078882 0.480000 -0.285000
v 0.085000 0.480000 -0.279000
v 0.083208 0.480000 -0.283243
v 0.072878 0.510187 -0.225000
v 0.078530 0.512528 -0.231000
v 0.076874 0.511842 -0.226757
v 0.072878 0.510187 -0.285000
v 0.078530 0.512528 -0.279000
v 0.076874 0.511842 -0.283243
v 0.055778 0.535778 -0.225000
v 0.060104 0.540104 -0.231000
v 0.058837 0.538837 -0.226757
v 0.055778 0.535778 -0.285000
v 0.060104 0.540104 -0.279000
v 0.058837 0.538837 -0.283243
v 0.030187 0.552878 -0.225000
v 0.032528 0.558530 -0.231000
v 0.031842 0.556874 -0.226757
v 0.030187 0.552878 -0.285000
v 0.032528 0.558530 -0.279000
v 0.031842 0.556874 -0.283243
vn -0.1802 0.9061 0.3827
vn -0.0747 0.3753 0.9239
vn -0.1802 0.9061 -0.3827
vn -0.0747 0.3753 -0.9239
vn -0.5133 0.7682 0.3827
vn -0.2126 0.3182 0.9239
vn -0.5133 0.7682 -0.3827
vn -0.2126 0.3182 -0.9239
vn -0.7682 0.5133 0.3827
vn -0.3182 0.2126 0.9239
vn -0.7682 0.5133 -0.3827
vn -0.3182 0.2126 -0.9239
vn -0.9061 0.1802 0.3827
vn -0.3753 0.0747 0.9239
vn -0.9061 0.1802 -0.3827
vn -0.3753 0.0747 -0.9239
vn -0.9061 -0.1802 0.3827
vn -0.3753 -0.0747 0.9239
vn -0.9061 -0.1802 -0.3827
vn -0.3753 -0.0747 -0.9239
vn -0.7682 -0.5133 0.3827
vn -0.3182 -0.2126 0.9239
vn -0.7682 -0.5133 -0.3827
vn -0.3182 -0.2126 -0.9239
vn -0.5133 -0.7682 0.3827
vn -0.2126 -0.3182 0.9239
vn -0.5133 -0.7682 -0.3827
vn -0.2126 -0.3182 -0.9239
vn -0.1802 -0.9061 0.3827
vn -0.0747 -0.3753 0.9239
vn -0.1802 -0.9061 -0.3827
vn -0.0747 -0.3753 -0.9239
vn 0.1802 -0.9061 0.3827
vn 0.0747 -0.3753 0.9239
vn 0.1802 -0.9061 -0.3827
vn 0.0747 -0.3753 -0.9239
vn 0.5133 -0.7682 0.3827
vn 0.2126 -0.3182 0.9239
vn 0.5133 -0.7682 -0.3827
vn 0.2126 -0.3182 -0.9239
vn 0.7682 -0.5133 0.3827
vn 0.3182 -0.2126 0.9239
vn 0.7682 -0.5133 -0.3827
vn 0.3182 -0.2126 -0.9239
vn 0.9061 -0.1802 0.3827
vn 0.3753 -0.0747 0.9239
vn 0.9061 -0.1802 -0.3827
vn 0.3753 -0.0747 -0.9239
vn 0.9061 0.1802 0.3827
vn 0.3753 0.0747 0.9239
vn 0.9061 0.1802 -0.3827
vn 0.3753 0.0747 -0.9239
vn 0.7682 0.5133 0.3827
vn 0.3182 0.2126 0.9239
vn 0.7682 0.5133 -0.3827
vn 0.3182 0.2126 -0.9239
vn 0.5133 0.7682 0.3827
vn 0.2126 0.3182 0.9239
vn 0.5133 0.7682 -0.3827
vn 0.2126 0.3182 -0.9239
vn 0.1802 0.9061 0.3827
vn 0.0747 0.3753 0.9239
vn 0.1802 0.9061 -0.3827
vn 0.0747 0.3753 -0.9239
vn -0.0000 -0.0000 1.0000
vn -0.1951 0.9808 -0.0000
vn 0.1951 0.9808 -0.0000
vn -0.0000 -0.0000 -1.0000
vn -0.5556 0.8315 -0.0000
vn -0.8315 0.5556 -0.0000
vn -0.9808 0.1951 -0.0000
vn -0.9808 -0.1951 -0.0000
vn -0.8315 -0.5556 -0.0000
vn -0.5556 -0.8315 -0.0000
vn -0.1951 -0.9808 -0.0000
vn 0.1951 -0.9808 -0.0000
vn 0.5556 -0.8315 -0.0000
vn 0.8315 -0.5556 -0.0000
vn 0.9808 -0.1951 -0.0000
vn 0.9808 0.1951 -0.0000
vn 0.8315 0.5556 -0.0000
vn 0.5556 0.8315 -0.0000
s 0
g hunter_eye_M_orange
usemtl M_orange
f 400/10/433 401/20/433 491/48/433
f 400/10/433 491/48/433 490/49/433
f 401/460/434 399/459/434 489/422/434
f 401/460/434 489/422/434 491/420/434
f 402/147/440 492/110/440 486/59/440
f 403/606/375 404/588/375 410/560/375
f 403/606/375 410/560/375 409/559/375
f 403/606/438 406/558/438 400/598/438
f 403/606/438 409/559/438 406/558/438
f 404/148/376 402/147/376 408/187/376
f 404/148/376 408/187/376 410/189/376
f 405/499/437 411/550/437 417/579/437
f 406/558/373 401/587/373 400/598/373
f 406/558/373 407/557/373 401/587/373
f 407/501/374 399/459/374 401/460/374
f 407/501/374 405/499/374 399/459/374
f 409/559/379 410/560/379 416/531/379
f 409/559/379 416/531/379 415/530/379
f 409/559/441 412/527/441 406/558/441
f 409/559/441 415/530/441 412/527/441
f 410/189/380 408/187/380 414/245/380
f 410/189/380 414/245/380 416/260/380
f 412/527/377 407/557/377 406/558/377
f 412/527/377 413/525/377 407/557/377
f 413/552/378 405/499/378 407/501/378
f 413/552/378 411/550/378 405/499/378
f 414/245/440 402/147/440 486/59/440
f 414/245/440 408/187/440 402/147/440
f 414/245/440 486/59/440 462/58/440
f 415/530/383 416/531/383 422/495/383
f 415/530/383 422/495/383 421/494/383
f 415/530/442 418/493/442 412/527/442
f 415/530/442 421/494/442 418/493/442
f 416/260/384 414/245/384 420/287/384
f 416/260/384 420/287/384 422/289/384
f 417/579/437 423/582/437 429/578/437
f 417/579/437 429/578/437 441/498/437
f 418/493/381 413/525/381 412/527/381
f 418/493/381 419/492/381 413/525/381
f 419/581/382 411/550/382 413/552/382
f 419/581/382 417/579/382 411/550/382
f 421/494/387 422/495/387 428/472/387
f 421/494/387 428/472/387 427/471/387
f 421/494/443 424/463/443 418/493/443
f 421/494/443 427/471/443 424/463/443
f 422/289/388 420/287/388 426/290/388
f 422/289/388 426/290/388 428/293/388
f 424/463/385 419/492/385 418/493/385
f 424/463/385 425/462/385 419/492/385
f 425/585/386 417/579/386 419/581/386
f 425/585/386 423/582/386 417/579/386
f 426/290/440 420/287/440 414/245/440
f 427/471/391 428/472/391 434/428/391
f 427/471/391 434/428/391 433/427/391
f 427/471/444 430/426/444 424/463/444
f 427/471/444 433/427/444 430/426/444
f 428/293/392 426/290/392 432/286/392
f 428/293/392 432/286/392 434/288/392
f 429/578/437 435/549/437 441/498/437
f 430/426/389 425/462/389 424/463/389
f 430/426/389 431/425/389 425/462/389
f 431/580/390 423/582/390 425/585/390
f 431/580/390 429/578/390 423/582/390
f 433/427/395 434/428/395 440/397/395
f 433/427/395 440/397/395 439/394/395
f 433/427/445 436/392/445 430/426/445
f 433/427/445 439/394/445 436/392/445
f 434/288/396 432/286/396 438/244/396
f 434/288/396 438/244/396 440/259/396
f 436/392/393 431/425/393 430/426/393
f 436/392/393 437/390/393 431/425/393
f 437/551/394 429/578/394 431/580/394
f 437/551/394 435/549/394 429/578/394
f 438/244/440 426/290/440 414/245/440
f 438/244/440 432/286/440 426/290/440
f 439/394/399 440/397/399 446/343/399
f 439/394/399 446/343/399 445/342/399
f 439/394/446 442/341/446 436/392/446
f 439/394/446 445/342/446 442/341/446
f 440/259/400 438/244/400 444/186/400
f 440/259/400 444/186/400 446/188/400
f 441/498/437 447/451/437 453/421/437
f 441/498/437 453/421/437 465/321/437
f 441/498/437 465/321/437 489/422/437
f 442/341/397 437/390/397 436/392/397
f 442/341/397 443/340/397 437/390/397
f 443/500/398 435/549/398 437/551/398
f 443/500/398 441/498/398 435/549/398
f 445/342/403 446/343/403 452/313/403
f 445/342/403 452/313/403 451/312/403
f 445/342/447 448/304/447 442/341/447
f 445/342/447 451/312/447 448/304/447
f 446/188/404 444/186/404 450/139/404
f 446/188/404 450/139/404 452/138/404
f 448/304/401 443/340/401 442/341/401
f 448/304/401 449/303/401 443/340/401
f 449/450/402 441/498/402 443/500/402
f 449/450/402 447/451/402 441/498/402
f 450/139/440 444/186/440 438/244/440
f 451/312/407 452/313/407 458/268/407
f 451/312/407 458/268/407 457/267/407
f 451/312/448 454/266/448 448/304/448
f 451/312/448 457/267/448 454/266/448
f 452/138/408 450/139/408 456/109/408
f 452/138/408 456/109/408 458/107/408
f 453/421/437 459/363/437 465/321/437
f 454/266/405 449/303/405 448/304/405
f 454/266/405 455/265/405 449/303/405
f 455/419/406 447/451/406 449/450/406
f 455/419/406 453/421/406 447/451/406
f 457/267/411 458/268/411 464/222/411
f 457/267/411 464/222/411 463/220/411
f 457/267/449 460/218/449 454/266/449
f 457/267/449 463/220/449 460/218/449
f 458/107/412 456/109/412 462/58/412
f 458/107/412 462/58/412 464/56/412
f 460/218/409 455/265/409 454/266/409
f 460/218/409 461/216/409 455/265/409
f 461/348/410 453/421/410 455/419/410
f 461/348/410 459/363/410 453/421/410
f 462/58/440 438/244/440 414/245/440
f 462/58/440 450/139/440 438/244/440
f 462/58/440 456/109/440 450/139/440
f 463/220/415 464/222/415 470/183/415
f 463/220/415 470/183/415 469/182/415
f 463/220/450 466/181/450 460/218/450
f 463/220/450 469/182/450 466/181/450
f 464/56/416 462/58/416 468/29/416
f 464/56/416 468/29/416 470/27/416
f 465/321/437 471/318/437 477/322/437
f 465/321/437 477/322/437 489/422/437
f 466/181/413 461/216/413 460/218/413
f 466/181/413 467/180/413 461/216/413
f 467/319/414 459/363/414 461/348/414
f 467/319/414 465/321/414 459/363/414
f 469/182/419 470/183/419 476/160/419
f 469/182/419 476/160/419 475/159/419
f 469/182/451 472/151/451 466/181/451
f 469/182/451 475/159/451 472/151/451
f 470/27/420 468/29/420 474/26/420
f 470/27/420 474/26/420 476/23/420
f 472/151/417 467/180/417 466/181/417
f 472/151/417 473/150/417 467/180/417
f 473/315/418 465/321/418 467/319/418
f 473/315/418 471/318/418 465/321/418
f 474/26/440 468/29/440 462/58/440
f 475/159/423 476/160/423 482/116/423
f 475/159/423 482/116/423 481/115/423
f 475/159/452 478/114/452 472/151/452
f 475/159/452 481/115/452 478/114/452
f 476/23/424 474/26/424 480/30/424
f 476/23/424 480/30/424 482/28/424
f 477/322/437 483/364/437 489/422/437
f 478/114/421 473/150/421 472/151/421
f 478/114/421 479/113/421 473/150/421
f 479/320/422 471/318/422 473/315/422
f 479/320/422 477/322/422 471/318/422
f 481/115/427 482/116/427 488/84/427
f 481/115/427 488/84/427 487/83/427
f 481/115/453 484/81/453 478/114/453
f 481/115/453 487/83/453 484/81/453
f 482/28/428 480/30/428 486/59/428
f 482/28/428 486/59/428 488/57/428
f 484/81/425 479/113/425 478/114/425
f 484/81/425 485/78/425 479/113/425
f 485/349/426 477/322/426 479/320/426
f 485/349/426 483/364/426 477/322/426
f 486/59/440 474/26/440 462/58/440
f 486/59/440 480/30/440 474/26/440
f 487/83/431 488/84/431 494/51/431
f 487/83/431 494/51/431 493/50/431
f 487/83/454 490/49/454 484/81/454
f 487/83/454 493/50/454 490/49/454
f 488/57/432 486/59/432 492/110/432
f 488/57/432 492/110/432 494/108/432
f 489/422/437 399/459/437 405/499/437
f 489/422/437 405/499/437 417/579/437
f 489/422/437 417/579/437 441/498/437
f 490/49/429 485/78/429 484/81/429
f 490/49/429 491/48/429 485/78/429
f 491/420/430 483/364/430 485/349/430
f 491/420/430 489/422/430 483/364/430
f 493/50/435 404/21/435 403/18/435
f 493/50/435 494/51/435 404/21/435
f 493/50/439 400/10/439 490/49/439
f 493/50/439 403/18/439 400/10/439
f 494/108/436 402/147/436 404/148/436
f 494/108/436 492/110/436 402/147/436
g hunter_fin_l_Cube.125
v 0.472000 0.400000 -0.032000
v 0.472000 0.418000 -0.050000
v 0.490000 0.418000 -0.032000
v 0.472000 0.405272 -0.044728
v 0.482392 0.407608 -0.042392
v 0.484728 0.418000 -0.044728
v 0.484728 0.405272 -0.032000
v 0.472000 0.502000 -0.050000
v 0.472000 0.520000 -0.032000
v 0.490000 0.502000 -0.032000
v 0.472000 0.514728 -0.044728
v 0.482392 0.512392 -0.042392
v 0.484728 0.514728 -0.032000
v 0.484728 0.502000 -0.044728
v 0.472000 0.400000 0.032000
v 0.490000 0.418000 0.032000
v 0.472000 0.418000 0.050000
v 0.484728 0.405272 0.032000
v 0.482392 0.407608 0.042392
v 0.484728 0.418000 0.044728
v 0.472000 0.405272 0.044728
v 0.472000 0.520000 0.032000
v 0.472000 0.502000 0.050000
v 0.490000 0.502000 0.032000
v 0.472000 0.514728 0.044728
v 0.482392 0.512392 0.042392
v 0.484728 0.502000 0.044728
v 0.484728 0.514728 0.032000
v 0.208000 0.400000 -0.032000
v 0.190000 0.418000 -0.032000
v 0.208000 0.418000 -0.050000
v 0.195272 0.405272 -0.032000
v 0.197608 0.407608 -0.042392
v 0.195272 0.418000 -0.044728
v 0.208000 0.405272 -0.044728
v 0.208000 0.520000 -0.032000
v 0.208000 0.502000 -0.050000
v 0.190000 0.502000 -0.032000
v 0.208000 0.514728 -0.044728
v 0.197608 0.512392 -0.042392
v 0.195272 0.502000 -0.044728
v 0.195272 0.514728 -0.032000
v 0.208000 0.400000 0.032000
v 0.208000 0.418000 0.050000
v 0.190000 0.418000 0.032000
v 0.208000 0.405272 0.044728
v 0.197608 0.407608 0.042392
v 0.195272 0.418000 0.044728
v 0.195272 0.405272 0.032000
v 0.208000 0.520000 0.032000
v 0.190000 0.502000 0.032000
v 0.208000 0.502000 0.050000
v 0.195272 0.514728 0.032000
v 0.197608 0.512392 0.042392
v 0.195272 0.502000 0.044728
v 0.208000 0.514728 0.044728
vn 0.3672 -0.8865 -0.2817
vn 0.2817 -0.3672 -0.8865
vn 0.8865 -0.2817 -0.3672
vn 0.3672 0.2817 -0.8865
vn 0.2817 0.8865 -0.3672
vn 0.8865 0.3672 -0.2817
vn 0.2817 -0.8865 0.3672
vn 0.8865 -0.3672 0.2817
vn 0.3672 -0.2817 0.8865
vn 0.3672 0.8865 0.2817
vn 0.2817 0.3672 0.8865
vn 0.8865 0.2817 0.3672
vn -0.2817 -0.8865 -0.3672
vn -0.8865 -0.3672 -0.2817
vn -0.3672 -0.2817 -0.8865
vn -0.3672 0.8865 -0.2817
vn -0.2817 0.3672 -0.8865
vn -0.8865 0.2817 -0.3672
vn -0.3672 -0.8865 0.2817
vn -0.2817 -0.3672 0.8865
vn -0.8865 -0.2817 0.3672
vn -0.2817 0.8865 0.3672
vn -0.8865 0.3672 0.2817
vn -0.3672 0.2817 0.8865
vn 0.3827 -0.9239 -0.0000
vn 0.9239 -0.3827 -0.0000
vn 0.3827 -0.0000 -0.9239
vn 0.9239 -0.0000 -0.3827
vn 0.3827 0.9239 -0.0000
vn 0.9239 0.3827 -0.0000
vn 0.3827 -0.0000 0.9239
vn 0.9239 -0.0000 0.3827
vn -0.0000 -0.9239 0.3827
vn -0.0000 -0.3827 0.9239
vn -0.0000 0.9239 0.3827
vn -0.0000 0.3827 0.9239
vn -0.9239 -0.0000 0.3827
vn -0.3827 -0.0000 0.9239
vn -0.3827 -0.9239 -0.0000
vn -0.9239 -0.3827 -0.0000
vn -0.3827 0.9239 -0.0000
vn -0.9239 0.3827 -0.0000
vn -0.3827 -0.0000 -0.9239
vn -0.9239 -0.0000 -0.3827
vn -0.0000 -0.9239 -0.3827
vn -0.0000 -0.3827 -0.9239
vn -0.0000 0.9239 -0.3827
vn -0.0000 0.3827 -0.9239
vn -0.0000 -1.0000 -0.0000
vn 1.0000 -0.0000 -0.0000
vn -0.0000 -0.0000 -1.0000
vn -0.0000 1.0000 -0.0000
vn -0.0000 -0.0000 1.0000
vn -1.0000 -0.0000 -0.0000
vn 0.2817 -0.8865 -0.3672
vn 0.3672 -0.2817 -0.8865
vn 0.8865 -0.3672 -0.2817
vn 0.2817 0.3672 -0.8865
vn 0.3672 0.8865 -0.2817
vn 0.8865 0.2817 -0.3672
vn 0.3672 -0.8865 0.2817
vn 0.8865 -0.2817 0.3672
vn 0.2817 -0.3672 0.8865
vn 0.2817 0.8865 0.3672
vn 0.3672 0.2817 0.8865
vn 0.8865 0.3672 0.2817
vn -0.3672 -0.8865 -0.2817
vn -0.8865 -0.2817 -0.3672
vn -0.2817 -0.3672 -0.8865
vn -0.2817 0.8865 -0.3672
vn -0.3672 0.2817 -0.8865
vn -0.8865 0.3672 -0.2817
vn -0.2817 -0.8865 0.3672
vn -0.3672 -0.2817 0.8865
vn -0.8865 -0.3672 0.2817
vn -0.3672 0.8865 0.2817
vn -0.8865 0.2817 0.3672
vn -0.2817 0.3672 0.8865
s 0
g hunter_fin_l_M_steel
usemtl M_steel
f 495/88/455 499/85/455 501/82/455
f 495/88/479 501/82/479 512/80/479
f 495/88/479 512/80/479 509/87/479
f 495/88/509 498/89/509 499/85/509
f 496/257/456 499/226/456 498/221/456
f 496/257/510 500/258/510 499/226/510
f 497/247/457 499/212/457 500/246/457
f 497/247/511 501/213/511 499/212/511
f 501/213/480 497/247/480 510/248/480
f 501/213/480 510/248/480 512/214/480
f 502/361/458 506/396/458 508/362/458
f 502/361/481 500/258/481 496/257/481
f 502/361/481 508/362/481 500/258/481
f 502/361/512 505/395/512 506/396/512
f 503/521/459 506/529/459 505/522/459
f 503/521/501 505/522/501 533/399/501
f 503/521/501 533/399/501 530/401/501
f 503/521/513 507/528/513 506/529/513
f 504/351/460 506/382/460 507/387/460
f 504/351/504 510/248/504 497/247/504
f 504/351/504 518/352/504 510/248/504
f 504/351/514 508/350/514 506/382/514
f 505/395/502 502/361/502 531/360/502
f 505/395/502 531/360/502 533/399/502
f 508/350/482 497/247/482 500/246/482
f 508/350/482 504/351/482 497/247/482
f 509/87/461 513/79/461 515/86/461
f 509/87/487 515/86/487 540/209/487
f 509/87/487 540/209/487 537/207/487
f 509/87/515 512/80/515 513/79/515
f 510/248/462 513/225/462 512/214/462
f 510/248/516 514/249/516 513/225/516
f 511/250/463 513/225/463 514/249/463
f 511/250/485 514/249/485 521/353/485
f 511/250/485 521/353/485 517/354/485
f 511/250/517 515/215/517 513/225/517
f 514/249/486 510/248/486 518/352/486
f 514/249/486 518/352/486 521/353/486
f 515/215/488 511/250/488 538/251/488
f 515/215/488 538/251/488 540/209/488
f 516/520/464 520/523/464 522/526/464
f 516/520/483 507/528/483 503/521/483
f 516/520/483 522/526/483 507/528/483
f 516/520/506 503/521/506 530/401/506
f 516/520/506 530/401/506 544/400/506
f 516/520/518 519/519/518 520/523/518
f 517/354/465 520/383/465 519/389/465
f 517/354/507 538/251/507 511/250/507
f 517/354/507 546/355/507 538/251/507
f 517/354/519 521/353/519 520/383/519
f 518/352/466 520/383/466 521/353/466
f 518/352/520 522/388/520 520/383/520
f 522/388/484 504/351/484 507/387/484
f 522/388/484 518/352/484 504/351/484
f 523/208/467 527/224/467 529/210/467
f 523/208/499 498/89/499 495/88/499
f 523/208/499 529/210/499 498/89/499
f 523/208/521 526/219/521 527/224/521
f 524/254/468 527/224/468 526/219/468
f 524/254/522 528/255/522 527/224/522
f 525/256/469 527/224/469 528/255/469
f 525/256/497 528/255/497 535/359/497
f 525/256/497 535/359/497 531/360/497
f 525/256/523 529/210/523 527/224/523
f 528/255/498 524/254/498 532/358/498
f 528/255/498 532/358/498 535/359/498
f 529/210/500 496/257/500 498/221/500
f 529/210/500 525/256/500 496/257/500
f 530/401/470 534/385/470 536/393/470
f 530/401/495 536/393/495 547/391/495
f 530/401/495 547/391/495 544/400/495
f 530/401/524 533/399/524 534/385/524
f 531/360/471 534/385/471 533/399/471
f 531/360/505 496/257/505 525/256/505
f 531/360/505 502/361/505 496/257/505
f 531/360/525 535/359/525 534/385/525
f 532/358/472 534/385/472 535/359/472
f 532/358/526 536/393/526 534/385/526
f 536/393/496 532/358/496 545/357/496
f 536/393/496 545/357/496 547/391/496
f 537/207/473 541/223/473 543/217/473
f 537/207/493 526/219/493 523/208/493
f 537/207/493 543/217/493 526/219/493
f 537/207/503 495/88/503 509/87/503
f 537/207/503 523/208/503 495/88/503
f 537/207/527 540/209/527 541/223/527
f 538/251/474 541/223/474 540/209/474
f 538/251/528 542/252/528 541/223/528
f 539/253/475 541/223/475 542/252/475
f 539/253/491 542/252/491 549/356/491
f 539/253/491 549/356/491 545/357/491
f 539/253/529 543/217/529 541/223/529
f 542/252/492 538/251/492 546/355/492
f 542/252/492 546/355/492 549/356/492
f 543/217/494 524/254/494 526/219/494
f 543/217/494 539/253/494 524/254/494
f 544/400/476 548/384/476 550/398/476
f 544/400/489 519/519/489 516/520/489
f 544/400/489 550/398/489 519/519/489
f 544/400/530 547/391/530 548/384/530
f 545/357/477 548/384/477 547/391/477
f 545/357/508 524/254/508 539/253/508
f 545/357/508 532/358/508 524/254/508
f 545/357/531 549/356/531 548/384/531
f 546/355/478 548/384/478 549/356/478
f 546/355/532 550/398/532 548/384/532
f 550/398/490 517/354/490 519/389/490
f 550/398/490 546/355/490 517/354/490
g hunter_fin_r_Cube.126
v -0.208000 0.400000 -0.032000
v -0.208000 0.418000 -0.050000
v -0.190000 0.418000 -0.032000
v -0.208000 0.405272 -0.044728
v -0.197608 0.407608 -0.042392
v -0.195272 0.418000 -0.044728
v -0.195272 0.405272 -0.032000
v -0.208000 0.502000 -0.050000
v -0.208000 0.520000 -0.032000
v -0.190000 0.502000 -0.032000
v -0.208000 0.514728 -0.044728
v -0.197608 0.512392 -0.042392
v -0.195272 0.514728 -0.032000
v -0.195272 0.502000 -0.044728
v -0.208000 0.400000 0.032000
v -0.190000 0.418000 0.032000
v -0.208000 0.418000 0.050000
v -0.195272 0.405272 0.032000
v -0.197608 0.407608 0.042392
v -0.195272 0.418000 0.044728
v -0.208000 0.405272 0.044728
v -0.208000 0.520000 0.032000
v -0.208000 0.502000 0.050000
v -0.190000 0.502000 0.032000
v -0.208000 0.514728 0.044728
v -0.197608 0.512392 0.042392
v -0.195272 0.502000 0.044728
v -0.195272 0.514728 0.032000
v -0.472000 0.400000 -0.032000
v -0.490000 0.418000 -0.032000
v -0.472000 0.418000 -0.050000
v -0.484728 0.405272 -0.032000
v -0.482392 0.407608 -0.042392
v -0.484728 0.418000 -0.044728
v -0.472000 0.405272 -0.044728
v -0.472000 0.520000 -0.032000
v -0.472000 0.502000 -0.050000
v -0.490000 0.502000 -0.032000
v -0.472000 0.514728 -0.044728
v -0.482392 0.512392 -0.042392
v -0.484728 0.502000 -0.044728
v -0.484728 0.514728 -0.032000
v -0.472000 0.400000 0.032000
v -0.472000 0.418000 0.050000
v -0.490000 0.418000 0.032000
v -0.472000 0.405272 0.044728
v -0.482392 0.407608 0.042392
v -0.484728 0.418000 0.044728
v -0.484728 0.405272 0.032000
v -0.472000 0.520000 0.032000
v -0.490000 0.502000 0.032000
v -0.472000 0.502000 0.050000
v -0.484728 0.514728 0.032000
v -0.482392 0.512392 0.042392
v -0.484728 0.502000 0.044728
v -0.472000 0.514728 0.044728
vn 0.3672 -0.8865 -0.2817
vn 0.2817 -0.3672 -0.8865
vn 0.8865 -0.2817 -0.3672
vn 0.3672 0.2817 -0.8865
vn 0.2817 0.8865 -0.3672
vn 0.8865 0.3672 -0.2817
vn 0.2817 -0.8865 0.3672
vn 0.8865 -0.3672 0.2817
vn 0.3672 -0.2817 0.8865
vn 0.3672 0.8865 0.2817
vn 0.2817 0.3672 0.8865
vn 0.8865 0.2817 0.3672
vn -0.2817 -0.8865 -0.3672
vn -0.8865 -0.3672 -0.2817
vn -0.3672 -0.2817 -0.8865
vn -0.3672 0.8865 -0.2817
vn -0.2817 0.3672 -0.8865
vn -0.8865 0.2817 -0.3672
vn -0.3672 -0.8865 0.2817
vn -0.2817 -0.3672 0.8865
vn -0.8865 -0.2817 0.3672
vn -0.2817 0.8865 0.3672
vn -0.8865 0.3672 0.2817
vn -0.3672 0.2817 0.8865
vn 0.3827 -0.9239 -0.0000
vn 0.9239 -0.3827 -0.0000
vn 0.3827 -0.0000 -0.9239
vn 0.9239 -0.0000 -0.3827
vn 0.3827 0.9239 -0.0000
vn 0.9239 0.3827 -0.0000
vn 0.3827 -0.0000 0.9239
vn 0.9239 -0.0000 0.3827
vn -0.0000 -0.9239 0.3827
vn -0.0000 -0.3827 0.9239
vn -0.0000 0.9239 0.3827
vn -0.0000 0.3827 0.9239
vn -0.9239 -0.0000 0.3827
vn -0.3827 -0.0000 0.9239
vn -0.3827 -0.9239 -0.0000
vn -0.9239 -0.3827 -0.0000
vn -0.3827 0.9239 -0.0000
vn -0.9239 0.3827 -0.0000
vn -0.3827 -0.0000 -0.9239
vn -0.9239 -0.0000 -0.3827
vn -0.0000 -0.9239 -0.3827
vn -0.0000 -0.3827 -0.9239
vn -0.0000 0.9239 -0.3827
vn -0.0000 0.3827 -0.9239
vn -0.0000 -1.0000 -0.0000
vn 1.0000 -0.0000 -0.0000
vn -0.0000 -0.0000 -1.0000
vn -0.0000 1.0000 -0.0000
vn -0.0000 -0.0000 1.0000
vn -1.0000 -0.0000 -0.0000
vn 0.2817 -0.8865 -0.3672
vn 0.3672 -0.2817 -0.8865
vn 0.8865 -0.3672 -0.2817
vn 0.2817 0.3672 -0.8865
vn 0.3672 0.8865 -0.2817
vn 0.8865 0.2817 -0.3672
vn 0.3672 -0.8865 0.2817
vn 0.8865 -0.2817 0.3672
vn 0.2817 -0.3672 0.8865
vn 0.2817 0.8865 0.3672
vn 0.3672 0.2817 0.8865
vn 0.8865 0.3672 0.2817
vn -0.3672 -0.8865 -0.2817
vn -0.8865 -0.2817 -0.3672
vn -0.2817 -0.3672 -0.8865
vn -0.2817 0.8865 -0.3672
vn -0.3672 0.2817 -0.8865
vn -0.8865 0.3672 -0.2817
vn -0.2817 -0.8865 0.3672
vn -0.3672 -0.2817 0.8865
vn -0.8865 -0.3672 0.2817
vn -0.3672 0.8865 0.2817
vn -0.8865 0.2817 0.3672
vn -0.2817 0.3672 0.8865
s 0
g hunter_fin_r_M_steel
usemtl M_steel
f 551/88/533 555/85/533 557/82/533
f 551/88/557 557/82/557 568/80/557
f 551/88/557 568/80/557 565/87/557
f 551/88/587 554/89/587 555/85/587
f 552/257/534 555/226/534 554/221/534
f 552/257/588 556/258/588 555/226/588
f 553/247/535 555/212/535 556/246/535
f 553/247/589 557/213/589 555/212/589
f 557/213/558 553/247/558 566/248/558
f 557/213/558 566/248/558 568/214/558
f 558/361/536 562/396/536 564/362/536
f 558/361/559 556/258/559 552/257/559
f 558/361/559 564/362/559 556/258/559
f 558/361/590 561/395/590 562/396/590
f 559/521/537 562/529/537 561/522/537
f 559/521/579 561/522/579 589/399/579
f 559/521/579 589/399/579 586/401/579
f 559/521/591 563/528/591 562/529/591
f 560/351/538 562/382/538 563/387/538
f 560/351/582 566/248/582 553/247/582
f 560/351/582 574/352/582 566/248/582
f 560/351/592 564/350/592 562/382/592
f 561/395/580 558/361/580 587/360/580
f 561/395/580 587/360/580 589/399/580
f 564/350/560 553/247/560 556/246/560
f 564/350/560 560/351/560 553/247/560
f 565/87/539 569/79/539 571/86/539
f 565/87/565 571/86/565 596/209/565
f 565/87/565 596/209/565 593/207/565
f 565/87/593 568/80/593 569/79/593
f 566/248/540 569/225/540 568/214/540
f 566/248/594 570/249/594 569/225/594
f 567/250/541 569/225/541 570/249/541
f 567/250/563 570/249/563 577/353/563
f 567/250/563 577/353/563 573/354/563
f 567/250/595 571/215/595 569/225/595
f 570/249/564 566/248/564 574/352/564
f 570/249/564 574/352/564 577/353/564
f 571/215/566 567/250/566 594/251/566
f 571/215/566 594/251/566 596/209/566
f 572/520/542 576/523/542 578/526/542
f 572/520/561 563/528/561 559/521/561
f 572/520/561 578/526/561 563/528/561
f 572/520/584 559/521/584 586/401/584
f 572/520/584 586/401/584 600/400/584
f 572/520/596 575/519/596 576/523/596
f 573/354/543 576/383/543 575/389/543
f 573/354/585 594/251/585 567/250/585
f 573/354/585 602/355/585 594/251/585
f 573/354/597 577/353/597 576/383/597
f 574/352/544 576/383/544 577/353/544
f 574/352/598 578/388/598 576/383/598
f 578/388/562 560/351/562 563/387/562
f 578/388/562 574/352/562 560/351/562
f 579/208/545 583/224/545 585/210/545
f 579/208/577 554/89/577 551/88/577
f 579/208/577 585/210/577 554/89/577
f 579/208/599 582/219/599 583/224/599
f 580/254/546 583/224/546 582/219/546
f 580/254/600 584/255/600 583/224/600
f 581/256/547 583/224/547 584/255/547
f 581/256/575 584/255/575 591/359/575
f 581/256/575 591/359/575 587/360/575
f 581/256/601 585/210/601 583/224/601
f 584/255/576 580/254/576 588/358/576
f 584/255/576 588/358/576 591/359/576
f 585/210/578 552/257/578 554/221/578
f 585/210/578 581/256/578 552/257/578
f 586/401/548 590/385/548 592/393/548
f 586/401/573 592/393/573 603/391/573
f 586/401/573 603/391/573 600/400/573
f 586/401/602 589/399/602 590/385/602
f 587/360/549 590/385/549 589/399/549
f 587/360/583 552/257/583 581/256/583
f 587/360/583 558/361/583 552/257/583
f 587/360/603 591/359/603 590/385/603
f 588/358/550 590/385/550 591/359/550
f 588/358/604 592/393/604 590/385/604
f 592/393/574 588/358/574 601/357/574
f 592/393/574 601/357/574 603/391/574
f 593/207/551 597/223/551 599/217/551
f 593/207/571 582/219/571 579/208/571
f 593/207/571 599/217/571 582/219/571
f 593/207/581 551/88/581 565/87/581
f 593/207/581 579/208/581 551/88/581
f 593/207/605 596/209/605 597/223/605
f 594/251/552 597/223/552 596/209/552
f 594/251/606 598/252/606 597/223/606
f 595/253/553 597/223/553 598/252/553
f 595/253/569 598/252/569 605/356/569
f 595/253/569 605/356/569 601/357/569
f 595/253/607 599/217/607 597/223/607
f 598/252/570 594/251/570 602/355/570
f 598/252/570 602/355/570 605/356/570
f 599/217/572 580/254/572 582/219/572
f 599/217/572 595/253/572 580/254/572
f 600/400/554 604/384/554 606/398/554
f 600/400/567 575/519/567 572/520/567
f 600/400/567 606/398/567 575/519/567
f 600/400/608 603/391/608 604/384/608
f 601/357/555 604/384/555 603/391/555
f 601/357/586 580/254/586 595/253/586
f 601/357/586 588/358/586 580/254/586
f 601/357/609 605/356/609 604/384/609
f 602/355/556 604/384/556 605/356/556
f 602/355/610 606/398/610 604/384/610
f 606/398/568 573/354/568 575/389/568
f 606/398/568 602/355/568 573/354/568
