# Blender 5.2.0 LTS
# www.blender.org
mtllib skirmish_wall.mtl
g skirmish_wall_core_Cube.127
v 0.465000 0.000000 -0.065000
v 0.465000 0.035000 -0.100000
v 0.500000 0.035000 -0.065000
v 0.465000 0.010251 -0.089749
v 0.485207 0.014793 -0.085207
v 0.489749 0.035000 -0.089749
v 0.489749 0.010251 -0.065000
v 0.465000 0.685000 -0.100000
v 0.465000 0.720000 -0.065000
v 0.500000 0.685000 -0.065000
v 0.465000 0.709749 -0.089749
v 0.485207 0.705207 -0.085207
v 0.489749 0.709749 -0.065000
v 0.489749 0.685000 -0.089749
v 0.465000 0.000000 0.065000
v 0.500000 0.035000 0.065000
v 0.465000 0.035000 0.100000
v 0.489749 0.010251 0.065000
v 0.485207 0.014793 0.085207
v 0.489749 0.035000 0.089749
v 0.465000 0.010251 0.089749
v 0.465000 0.720000 0.065000
v 0.465000 0.685000 0.100000
v 0.500000 0.685000 0.065000
v 0.465000 0.709749 0.089749
v 0.485207 0.705207 0.085207
v 0.489749 0.685000 0.089749
v 0.489749 0.709749 0.065000
v -0.465000 0.000000 -0.065000
v -0.500000 0.035000 -0.065000
v -0.465000 0.035000 -0.100000
v -0.489749 0.010251 -0.065000
v -0.485207 0.014793 -0.085207
v -0.489749 0.035000 -0.089749
v -0.465000 0.010251 -0.089749
v -0.465000 0.720000 -0.065000
v -0.465000 0.685000 -0.100000
v -0.500000 0.685000 -0.065000
v -0.465000 0.709749 -0.089749
v -0.485207 0.705207 -0.085207
v -0.489749 0.685000 -0.089749
v -0.489749 0.709749 -0.065000
v -0.465000 0.000000 0.065000
v -0.465000 0.035000 0.100000
v -0.500000 0.035000 0.065000
v -0.465000 0.010251 0.089749
v -0.485207 0.014793 0.085207
v -0.489749 0.035000 0.089749
v -0.489749 0.010251 0.065000
v -0.465000 0.720000 0.065000
v -0.500000 0.685000 0.065000
v -0.465000 0.685000 0.100000
v -0.489749 0.709749 0.065000
v -0.485207 0.705207 0.085207
v -0.489749 0.685000 0.089749
v -0.465000 0.709749 0.089749
vn 0.3672 -0.8865 -0.2817
vn 0.2817 -0.3672 -0.8865
vn 0.8865 -0.2817 -0.3672
vn 0.3672 0.2817 -0.8865
vn 0.2817 0.8865 -0.3672
vn 0.8865 0.3672 -0.2817
vn 0.2817 -0.8865 0.3672
vn 0.8865 -0.3672 0.2817
vn 0.3672 -0.2817 0.8865
vn 0.3672 0.8865 0.2817
vn 0.2817 0.3672 0.8865
vn 0.8865 0.2817 0.3672
vn -0.2817 -0.8865 -0.3672
vn -0.8865 -0.3672 -0.2817
vn -0.3672 -0.2817 -0.8865
vn -0.3672 0.8865 -0.2817
vn -0.2817 0.3672 -0.8865
vn -0.8865 0.2817 -0.3672
vn -0.3672 -0.8865 0.2817
vn -0.2817 -0.3672 0.8865
vn -0.8865 -0.2817 0.3672
vn -0.2817 0.8865 0.3672
vn -0.8865 0.3672 0.2817
vn -0.3672 0.2817 0.8865
vn 0.3827 -0.9239 -0.0000
vn 0.9239 -0.3827 -0.0000
vn 0.3827 -0.0000 -0.9239
vn 0.9239 -0.0000 -0.3827
vn 0.3827 0.9239 -0.0000
vn 0.9239 0.3827 -0.0000
vn 0.3827 -0.0000 0.9239
vn 0.9239 -0.0000 0.3827
vn -0.0000 -0.9239 0.3827
vn -0.0000 -0.3827 0.9239
vn -0.0000 0.9239 0.3827
vn -0.0000 0.3827 0.9239
vn -0.9239 -0.0000 0.3827
vn -0.3827 -0.0000 0.9239
vn -0.3827 -0.9239 -0.0000
vn -0.9239 -0.3827 -0.0000
vn -0.3827 0.9239 -0.0000
vn -0.9239 0.3827 -0.0000
vn -0.3827 -0.0000 -0.9239
vn -0.9239 -0.0000 -0.3827
vn -0.0000 -0.9239 -0.3827
vn -0.0000 -0.3827 -0.9239
vn -0.0000 0.9239 -0.3827
vn -0.0000 0.3827 -0.9239
vn -0.0000 -1.0000 -0.0000
vn 1.0000 -0.0000 -0.0000
vn -0.0000 -0.0000 -1.0000
vn -0.0000 1.0000 -0.0000
vn -0.0000 -0.0000 1.0000
vn -1.0000 -0.0000 -0.0000
vn 0.2817 -0.8865 -0.3672
vn 0.3672 -0.2817 -0.8865
vn 0.8865 -0.3672 -0.2817
vn 0.2817 0.3672 -0.8865
vn 0.3672 0.8865 -0.2817
vn 0.8865 0.2817 -0.3672
vn 0.3672 -0.8865 0.2817
vn 0.8865 -0.2817 0.3672
vn 0.2817 -0.3672 0.8865
vn 0.2817 0.8865 0.3672
vn 0.3672 0.2817 0.8865
vn 0.8865 0.3672 0.2817
vn -0.3672 -0.8865 -0.2817
vn -0.8865 -0.2817 -0.3672
vn -0.2817 -0.3672 -0.8865
vn -0.2817 0.8865 -0.3672
vn -0.3672 0.2817 -0.8865
vn -0.8865 0.3672 -0.2817
vn -0.2817 -0.8865 0.3672
vn -0.3672 -0.2817 0.8865
vn -0.8865 -0.3672 0.2817
vn -0.3672 0.8865 0.2817
vn -0.8865 0.2817 0.3672
vn -0.2817 0.3672 0.8865
vt 0.12500 0.50679
vt 0.12500 0.50805
vt 0.12500 0.51607
vt 0.12500 0.51849
vt 0.12500 0.51902
vt 0.12500 0.51904
vt 0.12500 0.54375
vt 0.12500 0.54500
vt 0.12500 0.70500
vt 0.12500 0.70625
vt 0.12500 0.73096
vt 0.12500 0.73393
vt 0.12595 0.75000
vt 0.12701 0.75000
vt 0.12725 0.50000
vt 0.12725 0.54500
vt 0.12725 0.70500
vt 0.12725 0.75000
vt 0.12870 0.75000
vt 0.12976 0.50000
vt 0.12976 0.51904
vt 0.12976 0.73096
vt 0.12976 0.75000
vt 0.13375 0.50000
vt 0.13375 0.54375
vt 0.13375 0.70625
vt 0.13375 0.75000
vt 0.14402 0.75000
vt 0.17000 0.50000
vt 0.17000 0.51607
vt 0.17000 0.73393
vt 0.17000 0.75000
vt 0.33000 0.51607
vt 0.33000 0.73393
vt 0.35250 0.47750
vt 0.35250 0.77250
vt 0.36625 0.54375
vt 0.36625 0.70625
vt 0.36938 0.50226
vt 0.37024 0.51904
vt 0.37024 0.73096
vt 0.37062 0.49562
vt 0.37062 0.75438
vt 0.37262 0.49762
vt 0.37262 0.75238
vt 0.37275 0.54500
vt 0.37275 0.70500
vt 0.37388 0.49888
vt 0.37388 0.75113
vt 0.37500 0.00679
vt 0.37500 0.00805
vt 0.37500 0.01607
vt 0.37500 0.01849
vt 0.37500 0.01902
vt 0.37500 0.01904
vt 0.37500 0.04375
vt 0.37500 0.04500
vt 0.37500 0.20500
vt 0.37500 0.20625
vt 0.37500 0.23096
vt 0.37500 0.23393
vt 0.37500 0.25225
vt 0.37500 0.25476
vt 0.37500 0.25875
vt 0.37500 0.29500
vt 0.37500 0.51607
vt 0.37500 0.51904
vt 0.37500 0.54375
vt 0.37500 0.54500
vt 0.37500 0.70500
vt 0.37500 0.70625
vt 0.37500 0.73096
vt 0.37500 0.73393
vt 0.37500 0.95500
vt 0.37500 0.99125
vt 0.37500 0.99524
vt 0.37500 0.99775
vt 0.37548 0.50616
vt 0.37572 0.75408
vt 0.37608 0.25951
vt 0.37671 0.74507
vt 0.37716 1.00000
vt 0.37757 0.25185
vt 0.37764 0.50634
vt 0.37796 0.74398
vt 0.37944 0.25048
vt 0.38011 0.00000
vt 0.38011 0.01607
vt 0.38011 0.23393
vt 0.38011 0.25000
vt 0.38011 0.29500
vt 0.38011 0.45500
vt 0.38011 0.50000
vt 0.38011 0.51607
vt 0.38011 0.73393
vt 0.38011 0.75000
vt 0.38011 0.79500
vt 0.38011 0.95500
vt 0.38011 1.00000
vt 0.38014 1.00000
vt 0.38067 0.50268
vt 0.38134 0.74799
vt 0.38388 1.00000
vt 0.38451 0.25101
vt 0.38715 0.00000
vt 0.38715 0.04375
vt 0.38715 0.20625
vt 0.38715 0.25000
vt 0.38715 0.25875
vt 0.38715 0.49125
vt 0.38715 0.50000
vt 0.38715 0.54375
vt 0.38715 0.70625
vt 0.38715 0.75000
vt 0.38715 0.75875
vt 0.38715 0.99125
vt 0.38715 1.00000
vt 0.39402 1.00000
vt 0.39600 0.00000
vt 0.39600 0.04500
vt 0.39600 0.20500
vt 0.39600 0.25000
vt 0.39600 0.25225
vt 0.39600 0.49775
vt 0.39600 0.50000
vt 0.39600 0.54500
vt 0.39600 0.70500
vt 0.39600 0.75000
vt 0.39600 0.75225
vt 0.39600 0.99775
vt 0.39600 1.00000
vt 0.42000 0.00000
vt 0.42000 0.01904
vt 0.42000 0.23096
vt 0.42000 0.25000
vt 0.42000 0.25476
vt 0.42000 0.49524
vt 0.42000 0.50000
vt 0.42000 0.51904
vt 0.42000 0.73096
vt 0.42000 0.75000
vt 0.42000 0.75476
vt 0.42000 0.99524
vt 0.42000 1.00000
vt 0.58000 0.00000
vt 0.58000 0.01904
vt 0.58000 0.23096
vt 0.58000 0.25000
vt 0.58000 0.25476
vt 0.58000 0.49524
vt 0.58000 0.50000
vt 0.58000 0.51904
vt 0.58000 0.73096
vt 0.58000 0.75000
vt 0.58000 0.75476
vt 0.58000 0.99524
vt 0.58000 1.00000
vt 0.60400 0.00000
vt 0.60400 0.04500
vt 0.60400 0.20500
vt 0.60400 0.25000
vt 0.60400 0.25225
vt 0.60400 0.49775
vt 0.60400 0.50000
vt 0.60400 0.54500
vt 0.60400 0.70500
vt 0.60400 0.75000
vt 0.60400 0.75225
vt 0.60400 0.99775
vt 0.60400 1.00000
vt 0.60598 0.00000
vt 0.61285 0.00000
vt 0.61285 0.04375
vt 0.61285 0.20625
vt 0.61285 0.25000
vt 0.61285 0.25875
vt 0.61285 0.49125
vt 0.61285 0.50000
vt 0.61285 0.54375
vt 0.61285 0.70625
vt 0.61285 0.75000
vt 0.61285 0.75875
vt 0.61285 0.99125
vt 0.61285 1.00000
vt 0.61549 0.24598
vt 0.61612 0.00000
vt 0.61866 0.50201
vt 0.61933 0.74732
vt 0.61986 0.00000
vt 0.61989 0.00000
vt 0.61989 0.01607
vt 0.61989 0.23393
vt 0.61989 0.25000
vt 0.61989 0.29500
vt 0.61989 0.45500
vt 0.61989 0.50000
vt 0.61989 0.51607
vt 0.61989 0.73393
vt 0.61989 0.75000
vt 0.61989 0.79500
vt 0.61989 0.95500
vt 0.61989 1.00000
vt 0.62056 0.24049
vt 0.62204 0.50602
vt 0.62236 0.74366
vt 0.62243 0.24075
vt 0.62284 0.00000
vt 0.62329 0.50493
vt 0.62392 0.24660
vt 0.62428 0.49592
vt 0.62452 0.74384
vt 0.62500 0.01607
vt 0.62500 0.01904
vt 0.62500 0.04375
vt 0.62500 0.04500
vt 0.62500 0.20500
vt 0.62500 0.20625
vt 0.62500 0.23096
vt 0.62500 0.23393
vt 0.62500 0.25225
vt 0.62500 0.25476
vt 0.62500 0.25875
vt 0.62500 0.29500
vt 0.62500 0.51607
vt 0.62500 0.51904
vt 0.62500 0.54375
vt 0.62500 0.54500
vt 0.62500 0.70500
vt 0.62500 0.70625
vt 0.62500 0.73096
vt 0.62500 0.73393
vt 0.62500 0.95500
vt 0.62500 0.98098
vt 0.62500 0.99125
vt 0.62500 0.99524
vt 0.62500 0.99630
vt 0.62500 0.99775
vt 0.62500 0.99799
vt 0.62500 0.99905
vt 0.62613 0.49888
vt 0.62613 0.75113
vt 0.62725 0.54500
vt 0.62725 0.70500
vt 0.62738 0.49762
vt 0.62738 0.75238
vt 0.62938 0.49562
vt 0.62938 0.75438
vt 0.62976 0.51904
vt 0.62976 0.73096
vt 0.63062 0.74774
vt 0.63375 0.54375
vt 0.63375 0.70625
vt 0.64750 0.47750
vt 0.64750 0.77250
vt 0.67000 0.51607
vt 0.67000 0.73393
vt 0.83000 0.50000
vt 0.83000 0.51607
vt 0.83000 0.73393
vt 0.83000 0.75000
vt 0.85598 0.50000
vt 0.86625 0.50000
vt 0.86625 0.54375
vt 0.86625 0.70625
vt 0.86625 0.75000
vt 0.87024 0.50000
vt 0.87024 0.51904
vt 0.87024 0.73096
vt 0.87024 0.75000
vt 0.87130 0.50000
vt 0.87275 0.50000
vt 0.87275 0.54500
vt 0.87275 0.70500
vt 0.87275 0.75000
vt 0.87299 0.50000
vt 0.87405 0.50000
vt 0.87500 0.51607
vt 0.87500 0.51904
vt 0.87500 0.54375
vt 0.87500 0.54500
vt 0.87500 0.70500
vt 0.87500 0.70625
vt 0.87500 0.73096
vt 0.87500 0.73098
vt 0.87500 0.73151
vt 0.87500 0.73393
vt 0.87500 0.74195
vt 0.87500 0.74321
s 0
g skirmish_wall_core_M_navy
usemtl M_navy
f 1/26/1 5/19/1 7/10/1
f 1/26/25 18/7/25 15/25/25
f 1/26/25 7/10/25 18/7/25
f 1/26/55 4/27/55 5/19/55
f 10/173/50 16/107/50 3/106/50
f 10/173/50 24/174/50 16/107/50
f 10/173/6 12/189/6 13/214/6
f 10/173/60 14/172/60 12/189/60
f 11/234/48 37/182/48 39/247/48
f 11/234/48 8/183/48 37/182/48
f 14/172/28 10/173/28 3/106/28
f 14/172/28 3/106/28 6/105/28
f 15/25/33 21/24/33 46/42/33
f 15/25/33 46/42/33 43/37/33
f 15/25/61 18/7/61 19/4/61
f 15/25/7 19/4/7 21/24/7
f 16/107/62 20/108/62 19/83/62
f 16/107/8 19/83/8 18/59/8
f 17/109/31 20/108/31 27/175/31
f 17/109/31 27/175/31 23/176/31
f 17/109/63 21/64/63 19/83/63
f 17/109/9 19/83/9 20/108/9
f 2/116/2 5/100/2 4/75/2
f 2/116/56 6/117/56 5/100/56
f 20/108/32 16/107/32 24/174/32
f 20/108/32 24/174/32 27/175/32
f 21/64/34 17/109/34 44/110/34
f 21/64/34 44/110/34 46/42/34
f 22/263/10 26/270/10 28/279/10
f 22/263/29 13/282/29 9/264/29
f 22/263/29 28/279/29 13/282/29
f 22/263/52 36/252/52 50/251/52
f 22/263/52 9/264/52 36/252/52
f 22/263/64 25/262/64 26/270/64
f 23/176/11 26/206/11 25/222/11
f 23/176/53 44/110/53 17/109/53
f 23/176/53 52/177/53 44/110/53
f 23/176/65 27/175/65 26/206/65
f 24/174/12 26/206/12 27/175/12
f 24/174/66 28/217/66 26/206/66
f 28/217/30 10/173/30 13/214/30
f 28/217/30 24/174/30 10/173/30
f 29/38/13 33/81/13 35/43/13
f 29/38/45 35/43/45 4/27/45
f 29/38/45 4/27/45 1/26/45
f 29/38/67 32/71/67 33/81/67
f 3/106/3 5/53/3 6/105/3
f 3/106/57 7/56/57 5/53/57
f 30/113/14 33/81/14 32/71/14
f 30/113/68 34/114/68 33/81/68
f 31/115/15 33/81/15 34/114/15
f 31/115/43 34/114/43 41/181/43
f 31/115/43 41/181/43 37/182/43
f 31/115/69 35/43/69 33/81/69
f 34/114/44 30/113/44 38/180/44
f 34/114/44 38/180/44 41/181/44
f 35/43/46 2/116/46 4/75/46
f 35/43/46 31/115/46 2/116/46
f 36/252/16 40/211/16 42/229/16
f 36/252/41 42/229/41 53/226/41
f 36/252/41 53/226/41 50/251/41
f 36/252/70 39/247/70 40/211/70
f 37/182/17 40/211/17 39/247/17
f 37/182/51 2/116/51 31/115/51
f 37/182/51 8/183/51 2/116/51
f 37/182/71 41/181/71 40/211/71
f 38/180/18 40/211/18 41/181/18
f 38/180/72 42/229/72 40/211/72
f 42/229/42 38/180/42 51/179/42
f 42/229/42 51/179/42 53/226/42
f 43/37/19 47/78/19 49/68/19
f 43/37/39 32/71/39 29/38/39
f 43/37/39 49/68/39 32/71/39
f 43/37/49 1/26/49 15/25/49
f 43/37/49 29/38/49 1/26/49
f 43/37/73 46/42/73 47/78/73
f 44/110/20 47/78/20 46/42/20
f 44/110/74 48/111/74 47/78/74
f 45/112/21 47/78/21 48/111/21
f 45/112/37 48/111/37 55/178/37
f 45/112/37 55/178/37 51/179/37
f 45/112/75 49/68/75 47/78/75
f 48/111/38 44/110/38 52/177/38
f 48/111/38 52/177/38 55/178/38
f 49/68/40 30/113/40 32/71/40
f 49/68/40 45/112/40 30/113/40
f 50/251/22 54/208/22 56/246/22
f 50/251/35 25/262/35 22/263/35
f 50/251/35 56/246/35 25/262/35
f 50/251/76 53/226/76 54/208/76
f 51/179/23 54/208/23 53/226/23
f 51/179/54 30/113/54 45/112/54
f 51/179/54 38/180/54 30/113/54
f 51/179/77 55/178/77 54/208/77
f 52/177/24 54/208/24 55/178/24
f 52/177/78 56/246/78 54/208/78
f 56/246/36 23/176/36 25/222/36
f 56/246/36 52/177/36 23/176/36
f 7/56/26 16/107/26 18/59/26
f 7/56/26 3/106/26 16/107/26
f 8/183/27 14/184/27 6/117/27
f 8/183/27 6/117/27 2/116/27
f 8/183/4 12/236/4 14/184/4
f 8/183/58 11/234/58 12/236/58
f 9/264/47 11/265/47 39/247/47
f 9/264/47 39/247/47 36/252/47
f 9/264/5 12/285/5 11/265/5
f 9/264/59 13/282/59 12/285/59
g skirmish_wall_cap_Cube.128
v 0.500200 0.720000 -0.110200
v 0.500200 0.739800 -0.130000
v 0.520000 0.739800 -0.110200
v 0.500200 0.725799 -0.124201
v 0.511631 0.728368 -0.121632
v 0.514201 0.739800 -0.124201
v 0.514201 0.725799 -0.110200
v 0.500200 0.810200 -0.130000
v 0.500200 0.830000 -0.110200
v 0.520000 0.810200 -0.110200
v 0.500200 0.824201 -0.124201
v 0.511631 0.821631 -0.121632
v 0.514201 0.824201 -0.110200
v 0.514201 0.810200 -0.124201
v 0.500200 0.720000 0.110200
v 0.520000 0.739800 0.110200
v 0.500200 0.739800 0.130000
v 0.514201 0.725799 0.110200
v 0.511632 0.728368 0.121632
v 0.514201 0.739800 0.124201
v 0.500200 0.725799 0.124201
v 0.500200 0.830000 0.110200
v 0.500200 0.810200 0.130000
v 0.520000 0.810200 0.110200
v 0.500200 0.824201 0.124201
v 0.511631 0.821631 0.121632
v 0.514201 0.810200 0.124201
v 0.514201 0.824201 0.110200
v -0.500200 0.720000 -0.110200
v -0.520000 0.739800 -0.110200
v -0.500200 0.739800 -0.130000
v -0.514201 0.725799 -0.110200
v -0.511632 0.728368 -0.121632
v -0.514201 0.739800 -0.124201
v -0.500200 0.725799 -0.124201
v -0.500200 0.830000 -0.110200
v -0.500200 0.810200 -0.130000
v -0.520000 0.810200 -0.110200
v -0.500200 0.824201 -0.124201
v -0.511631 0.821631 -0.121632
v -0.514201 0.810200 -0.124201
v -0.514201 0.824201 -0.110200
v -0.500200 0.720000 0.110200
v -0.500200 0.739800 0.130000
v -0.520000 0.739800 0.110200
v -0.500200 0.725799 0.124201
v -0.511631 0.728368 0.121632
v -0.514201 0.739800 0.124201
v -0.514201 0.725799 0.110200
v -0.500200 0.830000 0.110200
v -0.520000 0.810200 0.110200
v -0.500200 0.810200 0.130000
v -0.514201 0.824201 0.110200
v -0.511632 0.821631 0.121632
v -0.514201 0.810200 0.124201
v -0.500200 0.824201 0.124201
vn 0.3672 -0.8865 -0.2817
vn 0.2817 -0.3672 -0.8865
vn 0.8865 -0.2817 -0.3672
vn 0.3672 0.2817 -0.8865
vn 0.2817 0.8865 -0.3672
vn 0.8865 0.3672 -0.2817
vn 0.2817 -0.8865 0.3672
vn 0.8865 -0.3672 0.2817
vn 0.3672 -0.2817 0.8865
vn 0.3672 0.8865 0.2817
vn 0.2817 0.3672 0.8865
vn 0.8865 0.2817 0.3672
vn -0.2817 -0.8865 -0.3672
vn -0.8865 -0.3672 -0.2817
vn -0.3672 -0.2817 -0.8865
vn -0.3672 0.8865 -0.2817
vn -0.2817 0.3672 -0.8865
vn -0.8865 0.2817 -0.3672
vn -0.3672 -0.8865 0.2817
vn -0.2817 -0.3672 0.8865
vn -0.8865 -0.2817 0.3672
vn -0.2817 0.8865 0.3672
vn -0.8865 0.3672 0.2817
vn -0.3672 0.2817 0.8865
vn 0.3827 -0.9239 -0.0000
vn 0.9239 -0.3827 -0.0000
vn 0.3827 -0.0000 -0.9239
vn 0.9239 -0.0000 -0.3827
vn 0.3827 0.9239 -0.0000
vn 0.9239 0.3827 -0.0000
vn 0.3827 -0.0000 0.9239
vn 0.9239 -0.0000 0.3827
vn -0.0000 -0.9239 0.3827
vn -0.0000 -0.3827 0.9239
vn -0.0000 0.9239 0.3827
vn -0.0000 0.3827 0.9239
vn -0.9239 -0.0000 0.3827
vn -0.3827 -0.0000 0.9239
vn -0.3827 -0.9239 -0.0000
vn -0.9239 -0.3827 -0.0000
vn -0.3827 0.9239 -0.0000
vn -0.9239 0.3827 -0.0000
vn -0.3827 -0.0000 -0.9239
vn -0.9239 -0.0000 -0.3827
vn -0.0000 -0.9239 -0.3827
vn -0.0000 -0.3827 -0.9239
vn -0.0000 0.9239 -0.3827
vn -0.0000 0.3827 -0.9239
vn -0.0000 -1.0000 -0.0000
vn 1.0000 -0.0000 -0.0000
vn -0.0000 -0.0000 -1.0000
vn -0.0000 1.0000 -0.0000
vn -0.0000 -0.0000 1.0000
vn -1.0000 -0.0000 -0.0000
vn 0.2817 -0.8865 -0.3672
vn 0.3672 -0.2817 -0.8865
vn 0.8865 -0.3672 -0.2817
vn 0.2817 0.3672 -0.8865
vn 0.3672 0.8865 -0.2817
vn 0.8865 0.2817 -0.3672
vn 0.3672 -0.8865 0.2817
vn 0.8865 -0.2817 0.3672
vn 0.2817 -0.3672 0.8865
vn 0.2817 0.8865 0.3672
vn 0.3672 0.2817 0.8865
vn 0.8865 0.3672 0.2817
vn -0.3672 -0.8865 -0.2817
vn -0.8865 -0.2817 -0.3672
vn -0.2817 -0.3672 -0.8865
vn -0.2817 0.8865 -0.3672
vn -0.3672 0.2817 -0.8865
vn -0.8865 0.3672 -0.2817
vn -0.2817 -0.8865 0.3672
vn -0.3672 -0.2817 0.8865
vn -0.8865 -0.3672 0.2817
vn -0.3672 0.8865 0.2817
vn -0.8865 0.2817 0.3672
vn -0.2817 0.3672 0.8865
s 0
g skirmish_wall_cap_M_gunmetal
usemtl M_gunmetal
f 100/137/152 104/138/152 103/101/152
f 100/137/98 103/101/98 102/44/98
f 101/139/115 104/138/115 111/151/115
f 101/139/115 111/151/115 107/152/115
f 101/139/153 105/67/153 103/101/153
f 101/139/99 103/101/99 104/138/99
f 104/138/116 100/137/116 108/150/116
f 104/138/116 108/150/116 111/151/116
f 105/67/118 101/139/118 86/140/118
f 105/67/118 86/140/118 88/72/118
f 106/248/100 110/187/100 112/244/100
f 106/248/113 112/244/113 81/266/113
f 106/248/113 81/266/113 78/267/113
f 106/248/119 92/249/119 98/230/119
f 106/248/119 98/230/119 109/225/119
f 106/248/154 109/225/154 110/187/154
f 107/152/101 110/187/101 109/225/101
f 107/152/132 86/140/132 101/139/132
f 107/152/132 94/153/132 86/140/132
f 107/152/155 111/151/155 110/187/155
f 108/150/102 110/187/102 111/151/102
f 108/150/156 112/244/156 110/187/156
f 112/244/114 108/150/114 79/149/114
f 112/244/114 79/149/114 81/221/114
f 57/22/133 60/23/133 61/14/133
f 57/22/79 61/14/79 63/11/79
f 58/143/134 62/144/134 61/118/134
f 58/143/80 61/118/80 60/76/80
f 59/133/135 63/55/135 61/51/135
f 59/133/81 61/51/81 62/132/81
f 62/132/106 66/146/106 59/133/106
f 62/132/106 70/145/106 66/146/106
f 63/55/104 59/133/104 72/134/104
f 63/55/104 72/134/104 74/60/104
f 64/156/105 62/144/105 58/143/105
f 64/156/105 70/157/105 62/144/105
f 64/156/136 67/235/136 68/238/136
f 64/156/82 68/238/82 70/157/82
f 65/268/125 67/269/125 95/245/125
f 65/268/125 95/245/125 92/249/125
f 65/268/137 69/283/137 68/287/137
f 65/268/83 68/287/83 67/269/83
f 66/146/128 72/134/128 59/133/128
f 66/146/128 80/147/128 72/134/128
f 66/146/138 70/145/138 68/171/138
f 66/146/84 68/171/84 69/213/84
f 67/235/126 64/156/126 93/155/126
f 67/235/126 93/155/126 95/245/126
f 71/21/103 57/22/103 63/11/103
f 71/21/103 63/11/103 74/6/103
f 71/21/111 102/44/111 99/40/111
f 71/21/111 77/20/111 102/44/111
f 71/21/139 74/6/139 75/2/139
f 71/21/85 75/2/85 77/20/85
f 72/134/140 76/135/140 75/104/140
f 72/134/86 75/104/86 74/60/86
f 73/136/109 76/135/109 83/148/109
f 73/136/109 83/148/109 79/149/109
f 73/136/141 77/63/141 75/104/141
f 73/136/87 75/104/87 76/135/87
f 76/135/110 72/134/110 80/147/110
f 76/135/110 80/147/110 83/148/110
f 77/63/112 100/137/112 102/44/112
f 77/63/112 73/136/112 100/137/112
f 78/267/107 69/283/107 65/268/107
f 78/267/107 84/278/107 69/283/107
f 78/267/130 65/268/130 92/249/130
f 78/267/130 92/249/130 106/248/130
f 78/267/142 81/266/142 82/275/142
f 78/267/88 82/275/88 84/278/88
f 79/149/131 100/137/131 73/136/131
f 79/149/131 108/150/131 100/137/131
f 79/149/143 83/148/143 82/185/143
f 79/149/89 82/185/89 81/221/89
f 80/147/144 84/218/144 82/185/144
f 80/147/90 82/185/90 83/148/90
f 84/218/108 66/146/108 69/213/108
f 84/218/108 80/147/108 66/146/108
f 85/41/117 105/67/117 88/72/117
f 85/41/117 99/40/117 105/67/117
f 85/41/123 60/23/123 57/22/123
f 85/41/123 91/45/123 60/23/123
f 85/41/145 88/72/145 89/102/145
f 85/41/91 89/102/91 91/45/91
f 86/140/146 90/141/146 89/102/146
f 86/140/92 89/102/92 88/72/92
f 87/142/121 90/141/121 97/154/121
f 87/142/121 97/154/121 93/155/121
f 87/142/147 91/45/147 89/102/147
f 87/142/93 89/102/93 90/141/93
f 90/141/122 86/140/122 94/153/122
f 90/141/122 94/153/122 97/154/122
f 91/45/124 58/143/124 60/76/124
f 91/45/124 87/142/124 58/143/124
f 92/249/148 95/245/148 96/188/148
f 92/249/94 96/188/94 98/230/94
f 93/155/129 58/143/129 87/142/129
f 93/155/129 64/156/129 58/143/129
f 93/155/149 97/154/149 96/188/149
f 93/155/95 96/188/95 95/245/95
f 94/153/150 98/230/150 96/188/150
f 94/153/96 96/188/96 97/154/96
f 98/230/120 107/152/120 109/225/120
f 98/230/120 94/153/120 107/152/120
f 99/40/127 57/22/127 71/21/127
f 99/40/127 85/41/127 57/22/127
f 99/40/151 102/44/151 103/101/151
f 99/40/97 103/101/97 105/67/97
g skirmish_wall_signal_Cube.129
v 0.343700 0.422500 -0.136200
v 0.343700 0.428800 -0.142500
v 0.350000 0.428800 -0.136200
v 0.343700 0.424345 -0.140655
v 0.347337 0.425163 -0.139837
v 0.348155 0.428800 -0.140655
v 0.348155 0.424345 -0.136200
v 0.343700 0.491200 -0.142500
v 0.343700 0.497500 -0.136200
v 0.350000 0.491200 -0.136200
v 0.343700 0.495655 -0.140655
v 0.347337 0.494837 -0.139837
v 0.348155 0.495655 -0.136200
v 0.348155 0.491200 -0.140655
v 0.343700 0.422500 -0.113800
v 0.350000 0.428800 -0.113800
v 0.343700 0.428800 -0.107500
v 0.348155 0.424345 -0.113800
v 0.347337 0.425163 -0.110163
v 0.348155 0.428800 -0.109345
v 0.343700 0.424345 -0.109345
v 0.343700 0.497500 -0.113800
v 0.343700 0.491200 -0.107500
v 0.350000 0.491200 -0.113800
v 0.343700 0.495655 -0.109345
v 0.347337 0.494837 -0.110163
v 0.348155 0.491200 -0.109345
v 0.348155 0.495655 -0.113800
v -0.343700 0.422500 -0.136200
v -0.350000 0.428800 -0.136200
v -0.343700 0.428800 -0.142500
v -0.348155 0.424345 -0.136200
v -0.347337 0.425163 -0.139837
v -0.348155 0.428800 -0.140655
v -0.343700 0.424345 -0.140655
v -0.343700 0.497500 -0.136200
v -0.343700 0.491200 -0.142500
v -0.350000 0.491200 -0.136200
v -0.343700 0.495655 -0.140655
v -0.347337 0.494837 -0.139837
v -0.348155 0.491200 -0.140655
v -0.348155 0.495655 -0.136200
v -0.343700 0.422500 -0.113800
v -0.343700 0.428800 -0.107500
v -0.350000 0.428800 -0.113800
v -0.343700 0.424345 -0.109345
v -0.347337 0.425163 -0.110163
v -0.348155 0.428800 -0.109345
v -0.348155 0.424345 -0.113800
v -0.343700 0.497500 -0.113800
v -0.350000 0.491200 -0.113800
v -0.343700 0.491200 -0.107500
v -0.348155 0.495655 -0.113800
v -0.347337 0.494837 -0.110163
v -0.348155 0.491200 -0.109345
v -0.343700 0.495655 -0.109345
vn 0.3672 -0.8865 -0.2817
vn 0.2817 -0.3672 -0.8865
vn 0.8865 -0.2817 -0.3672
vn 0.3672 0.2818 -0.8864
vn 0.2817 0.8865 -0.3672
vn 0.8864 0.3672 -0.2818
vn 0.2817 -0.8865 0.3672
vn 0.8864 -0.3672 0.2818
vn 0.3672 -0.2818 0.8864
vn 0.3672 0.8865 0.2817
vn 0.2817 0.3672 0.8865
vn 0.8865 0.2817 0.3672
vn -0.2817 -0.8865 -0.3672
vn -0.8864 -0.3672 -0.2818
vn -0.3672 -0.2818 -0.8864
vn -0.3672 0.8865 -0.2817
vn -0.2817 0.3672 -0.8865
vn -0.8865 0.2817 -0.3672
vn -0.3672 -0.8865 0.2817
vn -0.2817 -0.3672 0.8865
vn -0.8865 -0.2817 0.3672
vn -0.2817 0.8865 0.3672
vn -0.8864 0.3672 0.2818
vn -0.3672 0.2818 0.8864
vn 0.3827 -0.9239 -0.0000
vn 0.9239 -0.3827 -0.0000
vn 0.3827 -0.0000 -0.9239
vn 0.9239 -0.0000 -0.3827
vn 0.3827 0.9239 -0.0000
vn 0.9239 0.3827 -0.0000
vn 0.3827 -0.0000 0.9239
vn 0.9239 -0.0000 0.3827
vn -0.0000 -0.9239 0.3827
vn -0.0000 -0.3827 0.9239
vn -0.0000 0.9239 0.3827
vn -0.0000 0.3827 0.9239
vn -0.9239 -0.0000 0.3827
vn -0.3827 -0.0000 0.9239
vn -0.3827 -0.9239 -0.0000
vn -0.9239 -0.3827 -0.0000
vn -0.3827 0.9239 -0.0000
vn -0.9239 0.3827 -0.0000
vn -0.3827 -0.0000 -0.9239
vn -0.9239 -0.0000 -0.3827
vn -0.0000 -0.9239 -0.3827
vn -0.0000 -0.3827 -0.9239
vn -0.0000 0.9239 -0.3827
vn -0.0000 0.3827 -0.9239
vn -0.0000 -1.0000 -0.0000
vn 1.0000 -0.0000 -0.0000
vn -0.0000 -0.0000 -1.0000
vn -0.0000 1.0000 -0.0000
vn -0.0000 -0.0000 1.0000
vn -1.0000 -0.0000 -0.0000
vn 0.2817 -0.8865 -0.3672
vn 0.3672 -0.2818 -0.8864
vn 0.8864 -0.3672 -0.2818
vn 0.2817 0.3672 -0.8865
vn 0.3672 0.8865 -0.2817
vn 0.8865 0.2817 -0.3672
vn 0.3672 -0.8865 0.2817
vn 0.8865 -0.2817 0.3672
vn 0.2817 -0.3672 0.8865
vn 0.2817 0.8865 0.3672
vn 0.3672 0.2818 0.8864
vn 0.8864 0.3672 0.2818
vn -0.3672 -0.8865 -0.2817
vn -0.8865 -0.2817 -0.3672
vn -0.2817 -0.3672 -0.8865
vn -0.2817 0.8865 -0.3672
vn -0.3672 0.2818 -0.8864
vn -0.8864 0.3672 -0.2818
vn -0.2817 -0.8865 0.3672
vn -0.3672 -0.2818 0.8864
vn -0.8864 -0.3672 0.2818
vn -0.3672 0.8865 0.2817
vn -0.8865 0.2817 0.3672
vn -0.2817 0.3672 0.8865
s 0
g skirmish_wall_signal_M_cyan
usemtl M_cyan
f 113/17/157 117/13/157 119/9/157
f 113/17/181 119/9/181 130/8/181
f 113/17/181 130/8/181 127/16/181
f 113/17/211 116/18/211 117/13/211
f 114/130/158 117/103/158 116/77/158
f 114/130/212 118/131/212 117/103/212
f 115/120/159 117/54/159 118/119/159
f 115/120/213 119/57/213 117/54/213
f 119/57/182 115/120/182 128/121/182
f 119/57/182 128/121/182 130/58/182
f 120/169/160 124/239/160 126/170/160
f 120/169/183 118/131/183 114/130/183
f 120/169/183 126/170/183 118/131/183
f 120/169/214 123/237/214 124/239/214
f 121/273/161 124/284/161 123/274/161
f 121/273/203 123/274/203 151/241/203
f 121/273/203 151/241/203 148/243/203
f 121/273/215 125/281/215 124/284/215
f 122/159/162 124/186/162 125/215/162
f 122/159/206 128/121/206 115/120/206
f 122/159/206 136/160/206 128/121/206
f 122/159/216 126/158/216 124/186/216
f 123/237/204 120/169/204 149/168/204
f 123/237/204 149/168/204 151/241/204
f 126/158/184 115/120/184 118/119/184
f 126/158/184 122/159/184 115/120/184
f 127/16/163 131/5/163 133/15/163
f 127/16/189 133/15/189 158/48/189
f 127/16/189 158/48/189 155/46/189
f 127/16/217 130/8/217 131/5/217
f 128/121/164 131/86/164 130/58/164
f 128/121/218 132/122/218 131/86/218
f 129/123/165 131/86/165 132/122/165
f 129/123/187 132/122/187 139/161/187
f 129/123/187 139/161/187 135/162/187
f 129/123/219 133/62/219 131/86/219
f 132/122/188 128/121/188 136/160/188
f 132/122/188 136/160/188 139/161/188
f 133/62/190 129/123/190 156/124/190
f 133/62/190 156/124/190 158/48/190
f 134/272/166 138/276/166 140/280/166
f 134/272/185 125/281/185 121/273/185
f 134/272/185 140/280/185 125/281/185
f 134/272/208 121/273/208 148/243/208
f 134/272/208 148/243/208 162/242/208
f 134/272/220 137/271/220 138/276/220
f 135/162/167 138/203/167 137/220/167
f 135/162/209 156/124/209 129/123/209
f 135/162/209 164/163/209 156/124/209
f 135/162/221 139/161/221 138/203/221
f 136/160/168 138/203/168 139/161/168
f 136/160/222 140/216/222 138/203/222
f 140/216/186 122/159/186 125/215/186
f 140/216/186 136/160/186 122/159/186
f 141/47/169 145/85/169 147/49/169
f 141/47/201 116/18/201 113/17/201
f 141/47/201 147/49/201 116/18/201
f 141/47/223 144/70/223 145/85/223
f 142/127/170 145/85/170 144/70/170
f 142/127/224 146/128/224 145/85/224
f 143/129/171 145/85/171 146/128/171
f 143/129/199 146/128/199 153/167/199
f 143/129/199 153/167/199 149/168/199
f 143/129/225 147/49/225 145/85/225
f 146/128/200 142/127/200 150/166/200
f 146/128/200 150/166/200 153/167/200
f 147/49/202 114/130/202 116/77/202
f 147/49/202 143/129/202 114/130/202
f 148/243/172 152/205/172 154/228/172
f 148/243/197 154/228/197 165/227/197
f 148/243/197 165/227/197 162/242/197
f 148/243/226 151/241/226 152/205/226
f 149/168/173 152/205/173 151/241/173
f 149/168/207 114/130/207 143/129/207
f 149/168/207 120/169/207 114/130/207
f 149/168/227 153/167/227 152/205/227
f 150/166/174 152/205/174 153/167/174
f 150/166/228 154/228/228 152/205/228
f 154/228/198 150/166/198 163/165/198
f 154/228/198 163/165/198 165/227/198
f 155/46/175 159/84/175 161/69/175
f 155/46/195 144/70/195 141/47/195
f 155/46/195 161/69/195 144/70/195
f 155/46/205 113/17/205 127/16/205
f 155/46/205 141/47/205 113/17/205
f 155/46/229 158/48/229 159/84/229
f 156/124/176 159/84/176 158/48/176
f 156/124/230 160/125/230 159/84/230
f 157/126/177 159/84/177 160/125/177
f 157/126/231 161/69/231 159/84/231
f 160/125/194 156/124/194 164/163/194
f 160/125/194 164/163/194 167/164/194
f 161/69/196 142/127/196 144/70/196
f 161/69/196 157/126/196 142/127/196
f 162/242/178 166/204/178 168/240/178
f 162/242/191 137/271/191 134/272/191
f 162/242/191 168/240/191 137/271/191
f 162/242/232 165/227/232 166/204/232
f 163/165/179 166/204/179 165/227/179
f 163/165/193 157/126/193 160/125/193
f 163/165/193 160/125/193 167/164/193
f 163/165/210 142/127/210 157/126/210
f 163/165/210 150/166/210 142/127/210
f 163/165/233 167/164/233 166/204/233
f 164/163/180 166/204/180 167/164/180
f 164/163/234 168/240/234 166/204/234
f 168/240/192 135/162/192 137/220/192
f 168/240/192 164/163/192 135/162/192
g skirmish_wall_end_l_Cube.130
v 0.512000 0.000000 -0.122000
v 0.512000 0.018000 -0.140000
v 0.530000 0.018000 -0.122000
v 0.512000 0.005272 -0.134728
v 0.522392 0.007608 -0.132392
v 0.524728 0.018000 -0.134728
v 0.524728 0.005272 -0.122000
v 0.512000 0.862000 -0.140000
v 0.512000 0.880000 -0.122000
v 0.530000 0.862000 -0.122000
v 0.512000 0.874728 -0.134728
v 0.522392 0.872392 -0.132392
v 0.524728 0.874728 -0.122000
v 0.524728 0.862000 -0.134728
v 0.512000 0.000000 0.122000
v 0.530000 0.018000 0.122000
v 0.512000 0.018000 0.140000
v 0.524728 0.005272 0.122000
v 0.522392 0.007608 0.132392
v 0.524728 0.018000 0.134728
v 0.512000 0.005272 0.134728
v 0.512000 0.880000 0.122000
v 0.512000 0.862000 0.140000
v 0.530000 0.862000 0.122000
v 0.512000 0.874728 0.134728
v 0.522392 0.872392 0.132392
v 0.524728 0.862000 0.134728
v 0.524728 0.874728 0.122000
v 0.448000 0.000000 -0.122000
v 0.430000 0.018000 -0.122000
v 0.448000 0.018000 -0.140000
v 0.435272 0.005272 -0.122000
v 0.437608 0.007608 -0.132392
v 0.435272 0.018000 -0.134728
v 0.448000 0.005272 -0.134728
v 0.448000 0.880000 -0.122000
v 0.448000 0.862000 -0.140000
v 0.430000 0.862000 -0.122000
v 0.448000 0.874728 -0.134728
v 0.437608 0.872392 -0.132392
v 0.435272 0.862000 -0.134728
v 0.435272 0.874728 -0.122000
v 0.448000 0.000000 0.122000
v 0.448000 0.018000 0.140000
v 0.430000 0.018000 0.122000
v 0.448000 0.005272 0.134728
v 0.437608 0.007608 0.132392
v 0.435272 0.018000 0.134728
v 0.435272 0.005272 0.122000
v 0.448000 0.880000 0.122000
v 0.430000 0.862000 0.122000
v 0.448000 0.862000 0.140000
v 0.435272 0.874728 0.122000
v 0.437608 0.872392 0.132392
v 0.435272 0.862000 0.134728
v 0.448000 0.874728 0.134728
vn 0.3672 -0.8864 -0.2817
vn 0.2817 -0.3672 -0.8865
vn 0.8865 -0.2817 -0.3672
vn 0.3672 0.2817 -0.8865
vn 0.2817 0.8865 -0.3672
vn 0.8865 0.3672 -0.2817
vn 0.2817 -0.8865 0.3672
vn 0.8865 -0.3672 0.2817
vn 0.3672 -0.2817 0.8865
vn 0.3672 0.8864 0.2817
vn 0.2817 0.3672 0.8865
vn 0.8865 0.2817 0.3672
vn -0.2817 -0.8865 -0.3672
vn -0.8865 -0.3672 -0.2817
vn -0.3672 -0.2817 -0.8865
vn -0.3672 0.8864 -0.2817
vn -0.2817 0.3672 -0.8865
vn -0.8865 0.2817 -0.3672
vn -0.3672 -0.8864 0.2817
vn -0.2817 -0.3672 0.8865
vn -0.8865 -0.2817 0.3672
vn -0.2817 0.8865 0.3672
vn -0.8865 0.3672 0.2817
vn -0.3672 0.2817 0.8865
vn 0.3827 -0.9239 -0.0000
vn 0.9239 -0.3827 -0.0000
vn 0.3827 -0.0000 -0.9239
vn 0.9239 -0.0000 -0.3827
vn 0.3827 0.9239 -0.0000
vn 0.9239 0.3827 -0.0000
vn 0.3827 -0.0000 0.9239
vn 0.9239 -0.0000 0.3827
vn -0.0000 -0.9239 0.3827
vn -0.0000 -0.3827 0.9239
vn -0.0000 0.9239 0.3827
vn -0.0000 0.3827 0.9239
vn -0.9239 -0.0000 0.3827
vn -0.3827 -0.0000 0.9239
vn -0.3827 -0.9239 -0.0000
vn -0.9239 -0.3827 -0.0000
vn -0.3827 0.9239 -0.0000
vn -0.9239 0.3827 -0.0000
vn -0.3827 -0.0000 -0.9239
vn -0.9239 -0.0000 -0.3827
vn -0.0000 -0.9239 -0.3827
vn -0.0000 -0.3827 -0.9239
vn -0.0000 0.9239 -0.3827
vn -0.0000 0.3827 -0.9239
vn -0.0000 -1.0000 -0.0000
vn 1.0000 -0.0000 -0.0000
vn -0.0000 -0.0000 -1.0000
vn -0.0000 1.0000 -0.0000
vn -0.0000 -0.0000 1.0000
vn -1.0000 -0.0000 -0.0000
vn 0.2817 -0.8865 -0.3672
vn 0.3672 -0.2817 -0.8865
vn 0.8865 -0.3672 -0.2817
vn 0.2817 0.3672 -0.8865
vn 0.3672 0.8864 -0.2817
vn 0.8865 0.2817 -0.3672
vn 0.3672 -0.8864 0.2817
vn 0.8865 -0.2817 0.3672
vn 0.2817 -0.3672 0.8865
vn 0.2817 0.8865 0.3672
vn 0.3672 0.2817 0.8865
vn 0.8865 0.3672 0.2817
vn -0.3672 -0.8864 -0.2817
vn -0.8865 -0.2817 -0.3672
vn -0.2817 -0.3672 -0.8865
vn -0.2817 0.8865 -0.3672
vn -0.3672 0.2817 -0.8865
vn -0.8865 0.3672 -0.2817
vn -0.2817 -0.8865 0.3672
vn -0.3672 -0.2817 0.8865
vn -0.8865 -0.3672 0.2817
vn -0.3672 0.8864 0.2817
vn -0.8865 0.2817 0.3672
vn -0.2817 0.3672 0.8865
s 0
g skirmish_wall_end_l_M_steel
usemtl M_steel
f 169/31/235 173/28/235 175/12/235
f 169/31/259 175/12/259 186/3/259
f 169/31/259 186/3/259 183/30/259
f 169/31/289 172/32/289 173/28/289
f 170/98/236 173/82/236 172/74/236
f 170/98/290 174/99/290 173/82/290
f 171/88/237 173/50/237 174/87/237
f 171/88/291 175/52/291 173/50/291
f 175/52/260 171/88/260 184/89/260
f 175/52/260 184/89/260 186/61/260
f 176/201/238 180/233/238 182/202/238
f 176/201/261 174/99/261 170/98/261
f 176/201/261 182/202/261 174/99/261
f 176/201/292 179/232/292 180/233/292
f 177/259/239 180/288/239 179/260/239
f 177/259/281 179/260/281 207/254/281
f 177/259/281 207/254/281 204/256/281
f 177/259/293 181/286/293 180/288/293
f 178/191/240 180/207/240 181/212/240
f 178/191/284 184/89/284 171/88/284
f 178/191/284 192/192/284 184/89/284
f 178/191/294 182/190/294 180/207/294
f 179/232/282 176/201/282 205/200/282
f 179/232/282 205/200/282 207/254/282
f 182/190/262 171/88/262 174/87/262
f 182/190/262 178/191/262 171/88/262
f 183/30/241 187/1/241 189/29/241
f 183/30/267 189/29/267 214/35/267
f 183/30/267 214/35/267 211/33/267
f 183/30/295 186/3/295 187/1/295
f 184/89/242 187/80/242 186/61/242
f 184/89/296 188/90/296 187/80/296
f 185/91/243 187/80/243 188/90/243
f 185/91/265 188/90/265 195/193/265
f 185/91/265 195/193/265 191/194/265
f 185/91/297 189/65/297 187/80/297
f 188/90/266 184/89/266 192/192/266
f 188/90/266 192/192/266 195/193/266
f 189/65/268 185/91/268 212/92/268
f 189/65/268 212/92/268 214/35/268
f 190/258/244 194/261/244 196/277/244
f 190/258/263 181/286/263 177/259/263
f 190/258/263 196/277/263 181/286/263
f 190/258/286 177/259/286 204/256/286
f 190/258/286 204/256/286 218/255/286
f 190/258/298 193/257/298 194/261/298
f 191/194/245 194/209/245 193/223/245
f 191/194/287 212/92/287 185/91/287
f 191/194/287 220/195/287 212/92/287
f 191/194/299 195/193/299 194/209/299
f 192/192/246 194/209/246 195/193/246
f 192/192/300 196/219/300 194/209/300
f 196/219/264 178/191/264 181/212/264
f 196/219/264 192/192/264 178/191/264
f 197/34/247 201/79/247 203/36/247
f 197/34/279 172/32/279 169/31/279
f 197/34/279 203/36/279 172/32/279
f 197/34/301 200/73/301 201/79/301
f 198/95/248 201/79/248 200/73/248
f 198/95/302 202/96/302 201/79/302
f 199/97/249 201/79/249 202/96/249
f 199/97/277 202/96/277 209/199/277
f 199/97/277 209/199/277 205/200/277
f 199/97/303 203/36/303 201/79/303
f 202/96/278 198/95/278 206/198/278
f 202/96/278 206/198/278 209/199/278
f 203/36/280 170/98/280 172/74/280
f 203/36/280 199/97/280 170/98/280
f 204/256/250 208/250/250 210/231/250
f 204/256/275 210/231/275 221/224/275
f 204/256/275 221/224/275 218/255/275
f 204/256/304 207/254/304 208/250/304
f 205/200/251 208/250/251 207/254/251
f 205/200/285 170/98/285 199/97/285
f 205/200/285 176/201/285 170/98/285
f 205/200/305 209/199/305 208/250/305
f 206/198/252 208/250/252 209/199/252
f 206/198/306 210/231/306 208/250/306
f 210/231/276 206/198/276 219/197/276
f 210/231/276 219/197/276 221/224/276
f 211/33/253 215/39/253 217/66/253
f 211/33/273 200/73/273 197/34/273
f 211/33/273 217/66/273 200/73/273
f 211/33/283 169/31/283 183/30/283
f 211/33/283 197/34/283 169/31/283
f 211/33/307 214/35/307 215/39/307
f 212/92/254 215/39/254 214/35/254
f 212/92/308 216/93/308 215/39/308
f 213/94/255 215/39/255 216/93/255
f 213/94/271 216/93/271 223/196/271
f 213/94/271 223/196/271 219/197/271
f 213/94/309 217/66/309 215/39/309
f 216/93/272 212/92/272 220/195/272
f 216/93/272 220/195/272 223/196/272
f 217/66/274 198/95/274 200/73/274
f 217/66/274 213/94/274 198/95/274
f 218/255/256 222/210/256 224/253/256
f 218/255/269 193/257/269 190/258/269
f 218/255/269 224/253/269 193/257/269
f 218/255/310 221/224/310 222/210/310
f 219/197/257 222/210/257 221/224/257
f 219/197/288 198/95/288 213/94/288
f 219/197/288 206/198/288 198/95/288
f 219/197/311 223/196/311 222/210/311
f 220/195/258 222/210/258 223/196/258
f 220/195/312 224/253/312 222/210/312
f 224/253/270 191/194/270 193/223/270
f 224/253/270 220/195/270 191/194/270
g skirmish_wall_end_r_Cube.131
v -0.448000 0.000000 -0.122000
v -0.448000 0.018000 -0.140000
v -0.430000 0.018000 -0.122000
v -0.448000 0.005272 -0.134728
v -0.437608 0.007608 -0.132392
v -0.435272 0.018000 -0.134728
v -0.435272 0.005272 -0.122000
v -0.448000 0.862000 -0.140000
v -0.448000 0.880000 -0.122000
v -0.430000 0.862000 -0.122000
v -0.448000 0.874728 -0.134728
v -0.437608 0.872392 -0.132392
v -0.435272 0.874728 -0.122000
v -0.435272 0.862000 -0.134728
v -0.448000 0.000000 0.122000
v -0.430000 0.018000 0.122000
v -0.448000 0.018000 0.140000
v -0.435272 0.005272 0.122000
v -0.437608 0.007608 0.132392
v -0.435272 0.018000 0.134728
v -0.448000 0.005272 0.134728
v -0.448000 0.880000 0.122000
v -0.448000 0.862000 0.140000
v -0.430000 0.862000 0.122000
v -0.448000 0.874728 0.134728
v -0.437608 0.872392 0.132392
v -0.435272 0.862000 0.134728
v -0.435272 0.874728 0.122000
v -0.512000 0.000000 -0.122000
v -0.530000 0.018000 -0.122000
v -0.512000 0.018000 -0.140000
v -0.524728 0.005272 -0.122000
v -0.522392 0.007608 -0.132392
v -0.524728 0.018000 -0.134728
v -0.512000 0.005272 -0.134728
v -0.512000 0.880000 -0.122000
v -0.512000 0.862000 -0.140000
v -0.530000 0.862000 -0.122000
v -0.512000 0.874728 -0.134728
v -0.522392 0.872392 -0.132392
v -0.524728 0.862000 -0.134728
v -0.524728 0.874728 -0.122000
v -0.512000 0.000000 0.122000
v -0.512000 0.018000 0.140000
v -0.530000 0.018000 0.122000
v -0.512000 0.005272 0.134728
v -0.522392 0.007608 0.132392
v -0.524728 0.018000 0.134728
v -0.524728 0.005272 0.122000
v -0.512000 0.880000 0.122000
v -0.530000 0.862000 0.122000
v -0.512000 0.862000 0.140000
v -0.524728 0.874728 0.122000
v -0.522392 0.872392 0.132392
v -0.524728 0.862000 0.134728
v -0.512000 0.874728 0.134728
vn 0.3672 -0.8864 -0.2817
vn 0.2817 -0.3672 -0.8865
vn 0.8865 -0.2817 -0.3672
vn 0.3672 0.2817 -0.8865
vn 0.2817 0.8865 -0.3672
vn 0.8865 0.3672 -0.2817
vn 0.2817 -0.8865 0.3672
vn 0.8865 -0.3672 0.2817
vn 0.3672 -0.2817 0.8865
vn 0.3672 0.8864 0.2817
vn 0.2817 0.3672 0.8865
vn 0.8865 0.2817 0.3672
vn -0.2817 -0.8865 -0.3672
vn -0.8865 -0.3672 -0.2817
vn -0.3672 -0.2817 -0.8865
vn -0.3672 0.8864 -0.2817
vn -0.2817 0.3672 -0.8865
vn -0.8865 0.2817 -0.3672
vn -0.3672 -0.8864 0.2817
vn -0.2817 -0.3672 0.8865
vn -0.8865 -0.2817 0.3672
vn -0.2817 0.8865 0.3672
vn -0.8865 0.3672 0.2817
vn -0.3672 0.2817 0.8865
vn 0.3827 -0.9239 -0.0000
vn 0.9239 -0.3827 -0.0000
vn 0.3827 -0.0000 -0.9239
vn 0.9239 -0.0000 -0.3827
vn 0.3827 0.9239 -0.0000
vn 0.9239 0.3827 -0.0000
vn 0.3827 -0.0000 0.9239
vn 0.9239 -0.0000 0.3827
vn -0.0000 -0.9239 0.3827
vn -0.0000 -0.3827 0.9239
vn -0.0000 0.9239 0.3827
vn -0.0000 0.3827 0.9239
vn -0.9239 -0.0000 0.3827
vn -0.3827 -0.0000 0.9239
vn -0.3827 -0.9239 -0.0000
vn -0.9239 -0.3827 -0.0000
vn -0.3827 0.9239 -0.0000
vn -0.9239 0.3827 -0.0000
vn -0.3827 -0.0000 -0.9239
vn -0.9239 -0.0000 -0.3827
vn -0.0000 -0.9239 -0.3827
vn -0.0000 -0.3827 -0.9239
vn -0.0000 0.9239 -0.3827
vn -0.0000 0.3827 -0.9239
vn -0.0000 -1.0000 -0.0000
vn 1.0000 -0.0000 -0.0000
vn -0.0000 -0.0000 -1.0000
vn -0.0000 1.0000 -0.0000
vn -0.0000 -0.0000 1.0000
vn -1.0000 -0.0000 -0.0000
vn 0.2817 -0.8865 -0.3672
vn 0.3672 -0.2817 -0.8865
vn 0.8865 -0.3672 -0.2817
vn 0.2817 0.3672 -0.8865
vn 0.3672 0.8864 -0.2817
vn 0.8865 0.2817 -0.3672
vn 0.3672 -0.8864 0.2817
vn 0.8865 -0.2817 0.3672
vn 0.2817 -0.3672 0.8865
vn 0.2817 0.8865 0.3672
vn 0.3672 0.2817 0.8865
vn 0.8865 0.3672 0.2817
vn -0.3672 -0.8864 -0.2817
vn -0.8865 -0.2817 -0.3672
vn -0.2817 -0.3672 -0.8865
vn -0.2817 0.8865 -0.3672
vn -0.3672 0.2817 -0.8865
vn -0.8865 0.3672 -0.2817
vn -0.2817 -0.8865 0.3672
vn -0.3672 -0.2817 0.8865
vn -0.8865 -0.3672 0.2817
vn -0.3672 0.8864 0.2817
vn -0.8865 0.2817 0.3672
vn -0.2817 0.3672 0.8865
s 0
g skirmish_wall_end_r_M_steel
usemtl M_steel
f 225/31/313 229/28/313 231/12/313
f 225/31/337 231/12/337 242/3/337
f 225/31/337 242/3/337 239/30/337
f 225/31/367 228/32/367 229/28/367
f 226/98/314 229/82/314 228/74/314
f 226/98/368 230/99/368 229/82/368
f 227/88/315 229/50/315 230/87/315
f 227/88/369 231/52/369 229/50/369
f 231/52/338 227/88/338 240/89/338
f 231/52/338 240/89/338 242/61/338
f 232/201/316 236/233/316 238/202/316
f 232/201/339 230/99/339 226/98/339
f 232/201/339 238/202/339 230/99/339
f 232/201/370 235/232/370 236/233/370
f 233/259/317 236/288/317 235/260/317
f 233/259/359 235/260/359 263/254/359
f 233/259/359 263/254/359 260/256/359
f 233/259/371 237/286/371 236/288/371
f 234/191/318 236/207/318 237/212/318
f 234/191/362 240/89/362 227/88/362
f 234/191/362 248/192/362 240/89/362
f 234/191/372 238/190/372 236/207/372
f 235/232/360 232/201/360 261/200/360
f 235/232/360 261/200/360 263/254/360
f 238/190/340 227/88/340 230/87/340
f 238/190/340 234/191/340 227/88/340
f 239/30/319 243/1/319 245/29/319
f 239/30/345 245/29/345 270/35/345
f 239/30/345 270/35/345 267/33/345
f 239/30/373 242/3/373 243/1/373
f 240/89/320 243/80/320 242/61/320
f 240/89/374 244/90/374 243/80/374
f 241/91/321 243/80/321 244/90/321
f 241/91/343 244/90/343 251/193/343
f 241/91/343 251/193/343 247/194/343
f 241/91/375 245/65/375 243/80/375
f 244/90/344 240/89/344 248/192/344
f 244/90/344 248/192/344 251/193/344
f 245/65/346 241/91/346 268/92/346
f 245/65/346 268/92/346 270/35/346
f 246/258/322 250/261/322 252/277/322
f 246/258/341 237/286/341 233/259/341
f 246/258/341 252/277/341 237/286/341
f 246/258/364 233/259/364 260/256/364
f 246/258/364 260/256/364 274/255/364
f 246/258/376 249/257/376 250/261/376
f 247/194/323 250/209/323 249/223/323
f 247/194/365 268/92/365 241/91/365
f 247/194/365 276/195/365 268/92/365
f 247/194/377 251/193/377 250/209/377
f 248/192/324 250/209/324 251/193/324
f 248/192/378 252/219/378 250/209/378
f 252/219/342 234/191/342 237/212/342
f 252/219/342 248/192/342 234/191/342
f 253/34/325 257/79/325 259/36/325
f 253/34/357 228/32/357 225/31/357
f 253/34/357 259/36/357 228/32/357
f 253/34/379 256/73/379 257/79/379
f 254/95/326 257/79/326 256/73/326
f 254/95/380 258/96/380 257/79/380
f 255/97/327 257/79/327 258/96/327
f 255/97/355 258/96/355 265/199/355
f 255/97/355 265/199/355 261/200/355
f 255/97/381 259/36/381 257/79/381
f 258/96/356 254/95/356 262/198/356
f 258/96/356 262/198/356 265/199/356
f 259/36/358 226/98/358 228/74/358
f 259/36/358 255/97/358 226/98/358
f 260/256/328 264/250/328 266/231/328
f 260/256/353 266/231/353 277/224/353
f 260/256/353 277/224/353 274/255/353
f 260/256/382 263/254/382 264/250/382
f 261/200/329 264/250/329 263/254/329
f 261/200/363 226/98/363 255/97/363
f 261/200/363 232/201/363 226/98/363
f 261/200/383 265/199/383 264/250/383
f 262/198/330 264/250/330 265/199/330
f 262/198/384 266/231/384 264/250/384
f 266/231/354 262/198/354 275/197/354
f 266/231/354 275/197/354 277/224/354
f 267/33/331 271/39/331 273/66/331
f 267/33/351 256/73/351 253/34/351
f 267/33/351 273/66/351 256/73/351
f 267/33/361 225/31/361 239/30/361
f 267/33/361 253/34/361 225/31/361
f 267/33/385 270/35/385 271/39/385
f 268/92/332 271/39/332 270/35/332
f 268/92/386 272/93/386 271/39/386
f 269/94/333 271/39/333 272/93/333
f 269/94/349 272/93/349 279/196/349
f 269/94/349 279/196/349 275/197/349
f 269/94/387 273/66/387 271/39/387
f 272/93/350 268/92/350 276/195/350
f 272/93/350 276/195/350 279/196/350
f 273/66/352 254/95/352 256/73/352
f 273/66/352 269/94/352 254/95/352
f 274/255/334 278/210/334 280/253/334
f 274/255/347 249/257/347 246/258/347
f 274/255/347 280/253/347 249/257/347
f 274/255/388 277/224/388 278/210/388
f 275/197/335 278/210/335 277/224/335
f 275/197/366 254/95/366 269/94/366
f 275/197/366 262/198/366 254/95/366
f 275/197/389 279/196/389 278/210/389
f 276/195/336 278/210/336 279/196/336
f 276/195/390 280/253/390 278/210/390
f 280/253/348 247/194/348 249/223/348
f 280/253/348 276/195/348 247/194/348
