# Blender 5.2.0 LTS
# www.blender.org
mtllib circuit_hologram_checkpoint_lod1.mtl
g race_checkpoint_lod1_base_Cone.033
v 0.000000 0.000000 0.480000
v 0.000000 0.700000 0.200000
v -0.339411 0.000000 0.339411
v -0.141421 0.700000 0.141421
v -0.480000 0.000000 0.000000
v -0.200000 0.700000 0.000000
v -0.339411 0.000000 -0.339411
v -0.141421 0.700000 -0.141421
v 0.000000 0.000000 -0.480000
v 0.000000 0.700000 -0.200000
v 0.339411 0.000000 -0.339411
v 0.141421 0.700000 -0.141421
v 0.480000 0.000000 0.000000
v 0.200000 0.700000 0.000000
v 0.339411 0.000000 0.339411
v 0.141421 0.700000 0.141421
vn -0.3590 0.3466 0.8666
vn -0.8666 0.3466 0.3590
vn -0.8666 0.3466 -0.3590
vn -0.3590 0.3466 -0.8666
vn 0.3590 0.3466 -0.8666
vn 0.8666 0.3466 -0.3590
vn -0.0000 1.0000 -0.0000
vn 0.8666 0.3466 0.3590
vn 0.3590 0.3466 0.8666
vn -0.0000 -1.0000 -0.0000
vt 0.00000 0.00000
vt 0.00000 0.12500
vt 0.00000 0.16667
vt 0.00000 0.25000
vt 0.00000 0.33333
vt 0.00000 0.37500
vt 0.00000 0.50000
vt 0.00000 0.62500
vt 0.00000 0.66667
vt 0.00000 0.75000
vt 0.00000 0.83333
vt 0.00000 0.87500
vt 0.00000 1.00000
vt 0.01000 0.25000
vt 0.05000 0.00000
vt 0.05000 0.12500
vt 0.05000 0.25000
vt 0.05000 0.37500
vt 0.05000 0.50000
vt 0.05000 0.62500
vt 0.05000 0.75000
vt 0.05000 0.87500
vt 0.05000 1.00000
vt 0.08029 0.08029
vt 0.08029 0.41971
vt 0.10000 0.00000
vt 0.10000 0.12500
vt 0.10000 0.16667
vt 0.10000 0.25000
vt 0.10000 0.33333
vt 0.10000 0.37500
vt 0.10000 0.50000
vt 0.10000 0.62500
vt 0.10000 0.66667
vt 0.10000 0.75000
vt 0.10000 0.83333
vt 0.10000 0.87500
vt 0.10000 1.00000
vt 0.12500 0.50000
vt 0.12500 1.00000
vt 0.15000 0.00000
vt 0.15000 0.12500
vt 0.15000 0.25000
vt 0.15000 0.37500
vt 0.15000 0.50000
vt 0.15000 0.62500
vt 0.15000 0.75000
vt 0.15000 0.87500
vt 0.15000 1.00000
vt 0.20000 0.00000
vt 0.20000 0.12500
vt 0.20000 0.16667
vt 0.20000 0.25000
vt 0.20000 0.33333
vt 0.20000 0.37500
vt 0.20000 0.50000
vt 0.20000 0.62500
vt 0.20000 0.66667
vt 0.20000 0.75000
vt 0.20000 0.83333
vt 0.20000 0.87500
vt 0.20000 1.00000
vt 0.25000 0.00000
vt 0.25000 0.01000
vt 0.25000 0.12500
vt 0.25000 0.25000
vt 0.25000 0.37500
vt 0.25000 0.49000
vt 0.25000 0.50000
vt 0.25000 0.62500
vt 0.25000 0.75000
vt 0.25000 0.87500
vt 0.25000 1.00000
vt 0.30000 0.00000
vt 0.30000 0.12500
vt 0.30000 0.16667
vt 0.30000 0.25000
vt 0.30000 0.33333
vt 0.30000 0.37500
vt 0.30000 0.50000
vt 0.30000 0.62500
vt 0.30000 0.66667
vt 0.30000 0.75000
vt 0.30000 0.83333
vt 0.30000 0.87500
vt 0.30000 1.00000
vt 0.35000 0.00000
vt 0.35000 0.12500
vt 0.35000 0.25000
vt 0.35000 0.37500
vt 0.35000 0.50000
vt 0.35000 0.62500
vt 0.35000 0.75000
vt 0.35000 0.87500
vt 0.35000 1.00000
vt 0.37500 0.50000
vt 0.37500 1.00000
vt 0.40000 0.00000
vt 0.40000 0.12500
vt 0.40000 0.16667
vt 0.40000 0.25000
vt 0.40000 0.33333
vt 0.40000 0.37500
vt 0.40000 0.50000
vt 0.40000 0.62500
vt 0.40000 0.66667
vt 0.40000 0.75000
vt 0.40000 0.83333
vt 0.40000 0.87500
vt 0.40000 1.00000
vt 0.41971 0.08029
vt 0.41971 0.41971
vt 0.45000 0.00000
vt 0.45000 0.12500
vt 0.45000 0.25000
vt 0.45000 0.37500
vt 0.45000 0.50000
vt 0.45000 0.62500
vt 0.45000 0.75000
vt 0.45000 0.87500
vt 0.45000 1.00000
vt 0.49000 0.25000
vt 0.50000 0.00000
vt 0.50000 0.12500
vt 0.50000 0.16667
vt 0.50000 0.25000
vt 0.50000 0.33333
vt 0.50000 0.37500
vt 0.50000 0.50000
vt 0.50000 0.62500
vt 0.50000 0.66667
vt 0.50000 0.75000
vt 0.50000 0.83333
vt 0.50000 0.87500
vt 0.50000 1.00000
vt 0.51000 0.25000
vt 0.55000 0.00000
vt 0.55000 0.12500
vt 0.55000 0.25000
vt 0.55000 0.37500
vt 0.55000 0.50000
vt 0.55000 0.62500
vt 0.55000 0.75000
vt 0.55000 0.87500
vt 0.55000 1.00000
vt 0.58029 0.08029
vt 0.58029 0.41971
vt 0.60000 0.00000
vt 0.60000 0.12500
vt 0.60000 0.16667
vt 0.60000 0.25000
vt 0.60000 0.33333
vt 0.60000 0.37500
vt 0.60000 0.50000
vt 0.60000 0.62500
vt 0.60000 0.66667
vt 0.60000 0.75000
vt 0.60000 0.83333
vt 0.60000 0.87500
vt 0.60000 1.00000
vt 0.62500 0.50000
vt 0.62500 1.00000
vt 0.65000 0.00000
vt 0.65000 0.12500
vt 0.65000 0.25000
vt 0.65000 0.37500
vt 0.65000 0.50000
vt 0.65000 0.62500
vt 0.65000 0.75000
vt 0.65000 0.87500
vt 0.65000 1.00000
vt 0.70000 0.00000
vt 0.70000 0.12500
vt 0.70000 0.16667
vt 0.70000 0.25000
vt 0.70000 0.33333
vt 0.70000 0.37500
vt 0.70000 0.50000
vt 0.70000 0.62500
vt 0.70000 0.66667
vt 0.70000 0.75000
vt 0.70000 0.83333
vt 0.70000 0.87500
vt 0.70000 1.00000
vt 0.75000 0.00000
vt 0.75000 0.01000
vt 0.75000 0.12500
vt 0.75000 0.25000
vt 0.75000 0.37500
vt 0.75000 0.49000
vt 0.75000 0.50000
vt 0.75000 0.62500
vt 0.75000 0.75000
vt 0.75000 0.87500
vt 0.75000 1.00000
vt 0.80000 0.00000
vt 0.80000 0.12500
vt 0.80000 0.16667
vt 0.80000 0.25000
vt 0.80000 0.33333
vt 0.80000 0.37500
vt 0.80000 0.50000
vt 0.80000 0.62500
vt 0.80000 0.66667
vt 0.80000 0.75000
vt 0.80000 0.83333
vt 0.80000 0.87500
vt 0.80000 1.00000
vt 0.85000 0.00000
vt 0.85000 0.12500
vt 0.85000 0.25000
vt 0.85000 0.37500
vt 0.85000 0.50000
vt 0.85000 0.62500
vt 0.85000 0.75000
vt 0.85000 0.87500
vt 0.85000 1.00000
vt 0.87500 0.50000
vt 0.87500 1.00000
vt 0.90000 0.00000
vt 0.90000 0.12500
vt 0.90000 0.16667
vt 0.90000 0.25000
vt 0.90000 0.33333
vt 0.90000 0.37500
vt 0.90000 0.50000
vt 0.90000 0.62500
vt 0.90000 0.66667
vt 0.90000 0.75000
vt 0.90000 0.83333
vt 0.90000 0.87500
vt 0.90000 1.00000
vt 0.91971 0.08029
vt 0.91971 0.41971
vt 0.95000 0.00000
vt 0.95000 0.12500
vt 0.95000 0.25000
vt 0.95000 0.37500
vt 0.95000 0.50000
vt 0.95000 0.62500
vt 0.95000 0.75000
vt 0.95000 0.87500
vt 0.95000 1.00000
vt 0.99000 0.25000
vt 1.00000 0.00000
vt 1.00000 0.12500
vt 1.00000 0.16667
vt 1.00000 0.25000
vt 1.00000 0.33333
vt 1.00000 0.37500
vt 1.00000 0.50000
vt 1.00000 0.62500
vt 1.00000 0.66667
vt 1.00000 0.75000
vt 1.00000 0.83333
vt 1.00000 0.87500
vt 1.00000 1.00000
s 0
g race_checkpoint_lod1_base_M_gunmetal
usemtl M_gunmetal
f 10/135/5 11/96/5 9/129/5
f 10/135/5 12/97/5 11/96/5
f 10/64/7 8/111/7 6/122/7
f 11/146/10 13/136/10 15/147/10
f 12/97/6 13/69/6 11/96/6
f 12/97/6 14/73/6 13/69/6
f 14/14/7 10/64/7 6/122/7
f 14/14/7 12/24/7 10/64/7
f 14/73/8 15/39/8 13/69/8
f 14/73/8 16/40/8 15/39/8
f 15/147/10 1/190/10 3/234/10
f 15/147/10 3/234/10 7/233/10
f 16/40/9 1/7/9 15/39/9
f 16/40/9 2/13/9 1/7/9
f 2/257/1 3/218/1 1/251/1
f 2/257/1 4/219/1 3/218/1
f 2/68/7 16/25/7 14/14/7
f 3/234/10 5/244/10 7/233/10
f 4/219/2 5/191/2 3/218/2
f 4/219/2 6/195/2 5/191/2
f 6/122/7 2/68/7 14/14/7
f 6/122/7 4/112/7 2/68/7
f 6/195/3 7/161/3 5/191/3
f 6/195/3 8/162/3 7/161/3
f 7/233/10 11/146/10 15/147/10
f 7/233/10 9/186/10 11/146/10
f 8/162/4 10/135/4 9/129/4
f 8/162/4 9/129/4 7/161/4
g race_checkpoint_lod1_ring_Torus.019
v -0.615000 1.040000 0.000000
v -0.598891 1.040000 -0.038891
v -0.560000 1.040000 -0.055000
v -0.521109 1.040000 -0.038891
v -0.505000 1.040000 -0.000000
v -0.521109 1.040000 0.038891
v -0.560000 1.040000 0.055000
v -0.598891 1.040000 0.038891
v -0.584900 1.230045 0.000000
v -0.569579 1.225067 -0.038891
v -0.532592 1.213049 -0.055000
v -0.495604 1.201031 -0.038891
v -0.480284 1.196054 0.000000
v -0.495604 1.201031 0.038891
v -0.532592 1.213049 0.055000
v -0.569579 1.225067 0.038891
v -0.497545 1.401488 0.000000
v -0.484513 1.392019 -0.038891
v -0.453050 1.369160 -0.055000
v -0.421586 1.346300 -0.038891
v -0.408554 1.336832 0.000000
v -0.421586 1.346300 0.038891
v -0.453050 1.369160 0.055000
v -0.484513 1.392019 0.038891
v -0.361488 1.537545 0.000000
v -0.352019 1.524513 -0.038891
v -0.329160 1.493050 -0.055000
v -0.306300 1.461586 -0.038891
v -0.296831 1.448554 0.000000
v -0.306300 1.461586 0.038891
v -0.329160 1.493050 0.055000
v -0.352019 1.524513 0.038891
v -0.190046 1.624900 0.000000
v -0.185068 1.609579 -0.038891
v -0.173050 1.572592 -0.055000
v -0.161032 1.535604 -0.038891
v -0.156054 1.520283 0.000000
v -0.161032 1.535604 0.038891
v -0.173050 1.572592 0.055000
v -0.185068 1.609579 0.038891
v -0.000000 1.655000 0.000000
v -0.000000 1.638891 -0.038891
v -0.000000 1.600000 -0.055000
v -0.000000 1.561109 -0.038891
v -0.000000 1.545000 0.000000
v -0.000000 1.561109 0.038891
v -0.000000 1.600000 0.055000
v -0.000000 1.638891 0.038891
v 0.190045 1.624900 0.000000
v 0.185067 1.609579 -0.038891
v 0.173050 1.572592 -0.055000
v 0.161032 1.535604 -0.038891
v 0.156054 1.520283 0.000000
v 0.161032 1.535604 0.038891
v 0.173050 1.572592 0.055000
v 0.185067 1.609579 0.038891
v 0.361488 1.537545 0.000000
v 0.352019 1.524513 -0.038891
v 0.329160 1.493049 -0.055000
v 0.306300 1.461586 -0.038891
v 0.296832 1.448553 0.000000
v 0.306300 1.461586 0.038891
v 0.329160 1.493049 0.055000
v 0.352019 1.524513 0.038891
v 0.497546 1.401488 0.000000
v 0.484513 1.392019 -0.038891
v 0.453050 1.369160 -0.055000
v 0.421586 1.346300 -0.038891
v 0.408554 1.336831 0.000000
v 0.421586 1.346300 0.038891
v 0.453050 1.369160 0.055000
v 0.484513 1.392019 0.038891
v 0.584900 1.230045 0.000000
v 0.569579 1.225067 -0.038891
v 0.532592 1.213050 -0.055000
v 0.495604 1.201032 -0.038891
v 0.480284 1.196054 0.000000
v 0.495604 1.201032 0.038891
v 0.532592 1.213050 0.055000
v 0.569579 1.225067 0.038891
v 0.615000 1.040000 0.000000
v 0.598891 1.040000 -0.038891
v 0.560000 1.040000 -0.055000
v 0.521109 1.040000 -0.038891
v 0.505000 1.040000 0.000000
v 0.521109 1.040000 0.038891
v 0.560000 1.040000 0.055000
v 0.598891 1.040000 0.038891
v 0.584900 0.849955 -0.000000
v 0.569579 0.854933 -0.038891
v 0.532592 0.866951 -0.055000
v 0.495604 0.878969 -0.038891
v 0.480284 0.883947 -0.000000
v 0.495604 0.878969 0.038891
v 0.532592 0.866951 0.055000
v 0.569579 0.854933 0.038891
v 0.497546 0.678512 -0.000000
v 0.484513 0.687981 -0.038891
v 0.453050 0.710840 -0.055000
v 0.421586 0.733700 -0.038891
v 0.408554 0.743169 -0.000000
v 0.421586 0.733700 0.038891
v 0.453050 0.710840 0.055000
v 0.484513 0.687981 0.038891
v 0.361488 0.542455 -0.000000
v 0.352019 0.555487 -0.038891
v 0.329160 0.586951 -0.055000
v 0.306300 0.618414 -0.038891
v 0.296832 0.631446 -0.000000
v 0.306300 0.618414 0.038891
v 0.329160 0.586951 0.055000
v 0.352019 0.555487 0.038891
v 0.190045 0.455100 -0.000000
v 0.185067 0.470421 -0.038891
v 0.173050 0.507408 -0.055000
v 0.161032 0.544396 -0.038891
v 0.156054 0.559716 -0.000000
v 0.161032 0.544396 0.038891
v 0.173050 0.507408 0.055000
v 0.185067 0.470421 0.038891
v -0.000000 0.425000 -0.000000
v -0.000000 0.441109 -0.038891
v -0.000000 0.480000 -0.055000
v -0.000000 0.518891 -0.038891
v -0.000000 0.535000 -0.000000
v -0.000000 0.518891 0.038891
v -0.000000 0.480000 0.055000
v -0.000000 0.441109 0.038891
v -0.190046 0.455100 -0.000000
v -0.185068 0.470421 -0.038891
v -0.173050 0.507408 -0.055000
v -0.161032 0.544396 -0.038891
v -0.156054 0.559716 -0.000000
v -0.161032 0.544396 0.038891
v -0.173050 0.507408 0.055000
v -0.185068 0.470421 0.038891
v -0.361488 0.542454 -0.000000
v -0.352019 0.555487 -0.038891
v -0.329159 0.586950 -0.055000
v -0.306300 0.618414 -0.038891
v -0.296831 0.631446 -0.000000
v -0.306300 0.618414 0.038891
v -0.329159 0.586950 0.055000
v -0.352019 0.555487 0.038891
v -0.497545 0.678512 -0.000000
v -0.484513 0.687980 -0.038891
v -0.453049 0.710840 -0.055000
v -0.421586 0.733700 -0.038891
v -0.408553 0.743168 -0.000000
v -0.421586 0.733700 0.038891
v -0.453049 0.710840 0.055000
v -0.484513 0.687980 0.038891
v -0.584900 0.849954 -0.000000
v -0.569579 0.854932 -0.038891
v -0.532592 0.866950 -0.055000
v -0.495604 0.878968 -0.038891
v -0.480283 0.883946 -0.000000
v -0.495604 0.878968 0.038891
v -0.532592 0.866950 0.055000
v -0.569579 0.854932 0.038891
vn -1.0000 -0.0000 -0.0000
vn -0.7252 -0.0000 -0.6885
vn -0.0382 -0.0000 -0.9993
vn 0.6870 -0.0000 -0.7267
vn 1.0000 -0.0000 -0.0000
vn 0.6870 -0.0000 0.7267
vn -0.0382 -0.0000 0.9993
vn -0.7252 -0.0000 0.6885
vn -0.9511 0.3090 -0.0000
vn -0.6897 0.2241 -0.6885
vn -0.0364 0.0118 -0.9993
vn 0.6533 -0.2123 -0.7267
vn 0.9511 -0.3090 -0.0000
vn 0.6533 -0.2123 0.7267
vn -0.0364 0.0118 0.9993
vn -0.6897 0.2241 0.6885
vn -0.8090 0.5878 -0.0000
vn -0.5867 0.4263 -0.6885
vn -0.0309 0.0225 -0.9993
vn 0.5558 -0.4038 -0.7267
vn 0.8090 -0.5878 -0.0000
vn 0.5558 -0.4038 0.7267
vn -0.0309 0.0225 0.9993
vn -0.5867 0.4263 0.6885
vn -0.5878 0.8090 -0.0000
vn -0.4263 0.5867 -0.6885
vn -0.0225 0.0309 -0.9993
vn 0.4038 -0.5558 -0.7267
vn 0.5878 -0.8090 -0.0000
vn 0.4038 -0.5558 0.7267
vn -0.0225 0.0309 0.9993
vn -0.4263 0.5867 0.6885
vn -0.3090 0.9511 -0.0000
vn -0.2241 0.6897 -0.6885
vn -0.0118 0.0363 -0.9993
vn 0.2123 -0.6533 -0.7267
vn 0.3090 -0.9511 -0.0000
vn 0.2123 -0.6533 0.7267
vn -0.0118 0.0363 0.9993
vn -0.2241 0.6897 0.6885
vn -0.0000 1.0000 -0.0000
vn -0.0000 0.7252 -0.6885
vn -0.0000 0.0382 -0.9993
vn -0.0000 -0.6870 -0.7267
vn -0.0000 -1.0000 -0.0000
vn -0.0000 -0.6870 0.7267
vn -0.0000 0.0382 0.9993
vn -0.0000 0.7252 0.6885
vn 0.3090 0.9511 -0.0000
vn 0.2241 0.6897 -0.6885
vn 0.0118 0.0364 -0.9993
vn -0.2123 -0.6533 -0.7267
vn -0.3090 -0.9511 -0.0000
vn -0.2123 -0.6533 0.7267
vn 0.0118 0.0363 0.9993
vn 0.2241 0.6897 0.6885
vn 0.5878 0.8090 -0.0000
vn 0.4263 0.5867 -0.6885
vn 0.0225 0.0309 -0.9993
vn -0.4038 -0.5558 -0.7267
vn -0.5878 -0.8090 -0.0000
vn -0.4038 -0.5558 0.7267
vn 0.0225 0.0309 0.9993
vn 0.4263 0.5867 0.6885
vn 0.8090 0.5878 -0.0000
vn 0.5867 0.4263 -0.6885
vn 0.0309 0.0225 -0.9993
vn -0.5558 -0.4038 -0.7267
vn -0.8090 -0.5878 -0.0000
vn -0.5558 -0.4038 0.7267
vn 0.0309 0.0225 0.9993
vn 0.5867 0.4263 0.6885
vn 0.9511 0.3090 -0.0000
vn 0.6897 0.2241 -0.6885
vn 0.0363 0.0118 -0.9993
vn -0.6533 -0.2123 -0.7267
vn -0.9511 -0.3090 -0.0000
vn -0.6533 -0.2123 0.7267
vn 0.0363 0.0118 0.9993
vn 0.6897 0.2241 0.6885
vn 0.7252 -0.0000 -0.6885
vn 0.0382 -0.0000 -0.9993
vn -0.6870 -0.0000 -0.7267
vn -0.6870 -0.0000 0.7267
vn 0.0382 -0.0000 0.9993
vn 0.7252 -0.0000 0.6885
vn 0.6897 -0.2241 -0.6885
vn 0.0364 -0.0118 -0.9993
vn -0.6533 0.2123 -0.7267
vn -0.6533 0.2123 0.7267
vn 0.0363 -0.0118 0.9993
vn 0.6897 -0.2241 0.6885
vn 0.5867 -0.4263 -0.6885
vn 0.0309 -0.0225 -0.9993
vn -0.5558 0.4038 -0.7267
vn -0.5558 0.4038 0.7267
vn 0.0309 -0.0225 0.9993
vn 0.5867 -0.4263 0.6885
vn 0.4263 -0.5867 -0.6885
vn 0.0225 -0.0309 -0.9993
vn -0.4038 0.5558 -0.7267
vn -0.4038 0.5558 0.7267
vn 0.0225 -0.0309 0.9993
vn 0.4263 -0.5867 0.6885
vn 0.2241 -0.6897 -0.6885
vn 0.0118 -0.0363 -0.9993
vn -0.2123 0.6533 -0.7267
vn -0.2123 0.6533 0.7267
vn 0.0118 -0.0364 0.9993
vn 0.2241 -0.6897 0.6885
vn -0.0000 -0.7252 -0.6885
vn -0.0000 -0.0382 -0.9993
vn -0.0000 0.6870 -0.7267
vn -0.0000 0.6870 0.7267
vn -0.0000 -0.0382 0.9993
vn -0.0000 -0.7252 0.6885
vn -0.2241 -0.6897 -0.6885
vn -0.0118 -0.0364 -0.9993
vn 0.2123 0.6533 -0.7267
vn 0.2123 0.6533 0.7267
vn -0.0118 -0.0363 0.9993
vn -0.2241 -0.6897 0.6885
vn -0.4263 -0.5867 -0.6885
vn -0.0225 -0.0309 -0.9993
vn 0.4038 0.5558 -0.7267
vn 0.4038 0.5558 0.7267
vn -0.0225 -0.0309 0.9993
vn -0.4263 -0.5867 0.6885
vn -0.5867 -0.4263 -0.6885
vn -0.0309 -0.0225 -0.9993
vn 0.5558 0.4038 -0.7267
vn 0.5558 0.4038 0.7267
vn -0.0309 -0.0225 0.9993
vn -0.5867 -0.4263 0.6885
vn -0.6897 -0.2241 -0.6885
vn -0.0364 -0.0118 -0.9993
vn 0.6533 0.2123 -0.7267
vn 0.6533 0.2123 0.7267
vn -0.0363 -0.0118 0.9993
vn -0.6897 -0.2241 0.6885
s 1
g race_checkpoint_lod1_ring_M_cyan
usemtl M_cyan
f 100/22/93 101/23/11 93/13/87
f 100/22/93 93/13/87 92/12/86
f 101/15/11 102/16/94 94/2/88
f 101/15/11 94/2/88 93/1/87
f 102/16/94 103/17/95 95/4/89
f 102/16/94 95/4/89 94/2/88
f 103/17/95 104/18/96 96/6/90
f 103/17/95 96/6/90 95/4/89
f 104/18/96 89/7/83 96/6/90
f 104/18/96 97/19/15 89/7/83
f 105/32/23 106/33/97 98/20/91
f 105/32/23 98/20/91 97/19/15
f 106/33/97 107/35/98 99/21/92
f 106/33/97 99/21/92 98/20/91
f 107/35/98 100/22/93 99/21/92
f 107/35/98 108/37/99 100/22/93
f 107/35/98 115/47/104 116/48/105
f 107/35/98 116/48/105 108/37/99
f 108/37/99 101/23/11 100/22/93
f 108/37/99 109/38/19 101/23/11
f 109/26/19 102/16/94 101/15/11
f 109/26/19 110/27/100 102/16/94
f 109/26/19 117/41/27 118/42/106
f 109/26/19 118/42/106 110/27/100
f 110/27/100 103/17/95 102/16/94
f 110/27/100 111/29/101 103/17/95
f 111/29/101 104/18/96 103/17/95
f 111/29/101 112/31/102 104/18/96
f 112/31/102 105/32/23 97/19/15
f 112/31/102 97/19/15 104/18/96
f 113/45/31 106/33/97 105/32/23
f 113/45/31 114/46/103 106/33/97
f 114/46/103 107/35/98 106/33/97
f 114/46/103 115/47/104 107/35/98
f 116/48/105 109/38/19 108/37/99
f 116/48/105 117/49/27 109/38/19
f 117/41/27 125/50/35 126/51/112
f 117/41/27 126/51/112 118/42/106
f 118/42/106 111/29/101 110/27/100
f 118/42/106 119/43/107 111/29/101
f 119/43/107 112/31/102 111/29/101
f 119/43/107 120/44/108 112/31/102
f 119/43/107 127/53/113 128/55/114
f 119/43/107 128/55/114 120/44/108
f 120/44/108 105/32/23 112/31/102
f 120/44/108 113/45/31 105/32/23
f 120/44/108 121/56/39 113/45/31
f 120/44/108 128/55/114 121/56/39
f 121/56/39 114/46/103 113/45/31
f 121/56/39 122/57/109 114/46/103
f 122/57/109 115/47/104 114/46/103
f 122/57/109 123/59/110 115/47/104
f 123/59/110 116/48/105 115/47/104
f 123/59/110 124/61/111 116/48/105
f 124/61/111 117/49/27 116/48/105
f 124/61/111 125/62/35 117/49/27
f 124/61/111 132/72/117 133/73/43
f 124/61/111 133/73/43 125/62/35
f 125/50/35 133/63/43 134/65/118
f 125/50/35 134/65/118 126/51/112
f 126/51/112 119/43/107 118/42/106
f 126/51/112 127/53/113 119/43/107
f 126/51/112 134/65/118 135/66/119
f 126/51/112 135/66/119 127/53/113
f 128/55/114 129/69/47 121/56/39
f 128/55/114 136/67/120 129/69/47
f 129/69/47 122/57/109 121/56/39
f 129/69/47 130/70/115 122/57/109
f 130/70/115 123/59/110 122/57/109
f 130/70/115 131/71/116 123/59/110
f 131/71/116 124/61/111 123/59/110
f 131/71/116 132/72/117 124/61/111
f 135/66/119 128/55/114 127/53/113
f 135/66/119 136/67/120 128/55/114
f 136/67/120 137/80/55 129/69/47
f 136/67/120 144/79/126 137/80/55
f 137/80/55 130/70/115 129/69/47
f 137/80/55 138/81/121 130/70/115
f 138/81/121 131/71/116 130/70/115
f 138/81/121 139/83/122 131/71/116
f 139/83/122 132/72/117 131/71/116
f 139/83/122 140/85/123 132/72/117
f 140/85/123 133/73/43 132/72/117
f 140/85/123 141/86/51 133/73/43
f 141/74/51 134/65/118 133/63/43
f 141/74/51 142/75/124 134/65/118
f 142/75/124 135/66/119 134/65/118
f 142/75/124 143/77/125 135/66/119
f 143/77/125 136/67/120 135/66/119
f 143/77/125 144/79/126 136/67/120
f 143/77/125 151/89/131 152/90/132
f 143/77/125 152/90/132 144/79/126
f 145/91/63 138/81/121 137/80/55
f 145/91/63 146/92/127 138/81/121
f 146/92/127 139/83/122 138/81/121
f 146/92/127 147/93/128 139/83/122
f 147/93/128 140/85/123 139/83/122
f 147/93/128 148/94/129 140/85/123
f 147/93/128 155/107/134 156/109/135
f 147/93/128 156/109/135 148/94/129
f 148/94/129 141/86/51 140/85/123
f 148/94/129 149/95/59 141/86/51
f 149/87/59 142/75/124 141/74/51
f 149/87/59 150/88/130 142/75/124
f 150/88/130 143/77/125 142/75/124
f 150/88/130 151/89/131 143/77/125
f 152/90/132 137/80/55 144/79/126
f 152/90/132 145/91/63 137/80/55
f 152/90/132 153/104/71 145/91/63
f 152/90/132 160/103/138 153/104/71
f 153/104/71 146/92/127 145/91/63
f 153/104/71 154/105/133 146/92/127
f 154/105/133 147/93/128 146/92/127
f 154/105/133 155/107/134 147/93/128
f 156/109/135 149/95/59 148/94/129
f 156/109/135 157/110/67 149/95/59
f 157/98/67 150/88/130 149/87/59
f 157/98/67 158/99/136 150/88/130
f 158/99/136 151/89/131 150/88/130
f 158/99/136 159/101/137 151/89/131
f 159/101/137 152/90/132 151/89/131
f 159/101/137 160/103/138 152/90/132
f 161/117/79 154/105/133 153/104/71
f 161/117/79 162/118/139 154/105/133
f 162/118/139 155/107/134 154/105/133
f 162/118/139 163/119/140 155/107/134
f 162/118/139 170/130/145 171/132/146
f 162/118/139 171/132/146 163/119/140
f 163/119/140 156/109/135 155/107/134
f 163/119/140 164/120/141 156/109/135
f 164/120/141 157/110/67 156/109/135
f 164/120/141 165/121/75 157/110/67
f 165/113/75 158/99/136 157/98/67
f 165/113/75 166/114/142 158/99/136
f 166/114/142 159/101/137 158/99/136
f 166/114/142 167/115/143 159/101/137
f 167/115/143 160/103/138 159/101/137
f 167/115/143 168/116/144 160/103/138
f 168/116/144 153/104/71 160/103/138
f 168/116/144 161/117/79 153/104/71
f 169/129/87 162/118/139 161/117/79
f 169/129/87 170/130/145 162/118/139
f 17/141/11 170/130/145 169/129/87
f 17/141/11 18/142/12 170/130/145
f 171/132/146 164/120/141 163/119/140
f 171/132/146 172/134/147 164/120/141
f 172/134/147 165/121/75 164/120/141
f 172/134/147 173/135/83 165/121/75
f 173/123/83 166/114/142 165/113/75
f 173/123/83 174/124/148 166/114/142
f 174/124/148 167/115/143 166/114/142
f 174/124/148 175/126/149 167/115/143
f 175/126/149 168/116/144 167/115/143
f 175/126/149 176/128/150 168/116/144
f 176/128/150 161/117/79 168/116/144
f 176/128/150 169/129/87 161/117/79
f 18/142/12 171/132/146 170/130/145
f 18/142/12 19/143/13 171/132/146
f 19/143/13 172/134/147 171/132/146
f 19/143/13 20/144/14 172/134/147
f 20/144/14 173/135/83 172/134/147
f 20/144/14 21/145/15 173/135/83
f 21/137/15 174/124/148 173/123/83
f 21/137/15 22/138/16 174/124/148
f 22/138/16 175/126/149 174/124/148
f 22/138/16 23/139/17 175/126/149
f 22/138/16 30/149/24 31/151/25
f 22/138/16 31/151/25 23/139/17
f 23/139/17 176/128/150 175/126/149
f 23/139/17 24/140/18 176/128/150
f 24/140/18 169/129/87 176/128/150
f 24/140/18 17/141/11 169/129/87
f 25/154/19 18/142/12 17/141/11
f 25/154/19 26/155/20 18/142/12
f 26/155/20 19/143/13 18/142/12
f 26/155/20 27/157/21 19/143/13
f 27/157/21 20/144/14 19/143/13
f 27/157/21 28/159/22 20/144/14
f 27/157/21 35/169/29 36/170/30
f 27/157/21 36/170/30 28/159/22
f 28/159/22 21/145/15 20/144/14
f 28/159/22 29/160/23 21/145/15
f 29/148/23 22/138/16 21/137/15
f 29/148/23 30/149/24 22/138/16
f 31/151/25 24/140/18 23/139/17
f 31/151/25 32/153/26 24/140/18
f 31/151/25 39/165/33 40/166/34
f 31/151/25 40/166/34 32/153/26
f 32/153/26 17/141/11 24/140/18
f 32/153/26 25/154/19 17/141/11
f 33/167/27 26/155/20 25/154/19
f 33/167/27 34/168/28 26/155/20
f 34/168/28 27/157/21 26/155/20
f 34/168/28 35/169/29 27/157/21
f 35/169/29 43/181/37 44/183/38
f 35/169/29 44/183/38 36/170/30
f 36/170/30 29/160/23 28/159/22
f 36/170/30 37/171/31 29/160/23
f 36/170/30 44/183/38 45/184/39
f 36/170/30 45/184/39 37/171/31
f 37/163/31 30/149/24 29/148/23
f 37/163/31 38/164/32 30/149/24
f 38/164/32 31/151/25 30/149/24
f 38/164/32 39/165/33 31/151/25
f 40/166/34 25/154/19 32/153/26
f 40/166/34 33/167/27 25/154/19
f 41/178/35 34/168/28 33/167/27
f 41/178/35 42/179/36 34/168/28
f 42/179/36 35/169/29 34/168/28
f 42/179/36 43/181/37 35/169/29
f 42/179/36 50/192/44 51/193/45
f 42/179/36 51/193/45 43/181/37
f 43/181/37 51/193/45 52/194/46
f 43/181/37 52/194/46 44/183/38
f 44/183/38 52/194/46 53/195/47
f 44/183/38 53/195/47 45/184/39
f 45/172/39 38/164/32 37/163/31
f 45/172/39 46/173/40 38/164/32
f 46/173/40 39/165/33 38/164/32
f 46/173/40 47/175/41 39/165/33
f 47/175/41 40/166/34 39/165/33
f 47/175/41 48/177/42 40/166/34
f 48/177/42 33/167/27 40/166/34
f 48/177/42 41/178/35 33/167/27
f 49/191/43 42/179/36 41/178/35
f 49/191/43 50/192/44 42/179/36
f 50/192/44 58/203/52 59/205/53
f 50/192/44 59/205/53 51/193/45
f 53/185/47 46/173/40 45/172/39
f 53/185/47 54/187/48 46/173/40
f 54/187/48 47/175/41 46/173/40
f 54/187/48 55/188/49 47/175/41
f 55/188/49 48/177/42 47/175/41
f 55/188/49 56/189/50 48/177/42
f 56/189/50 41/178/35 48/177/42
f 56/189/50 49/191/43 41/178/35
f 57/202/51 50/192/44 49/191/43
f 57/202/51 58/203/52 50/192/44
f 59/205/53 52/194/46 51/193/45
f 59/205/53 60/207/54 52/194/46
f 60/207/54 53/195/47 52/194/46
f 60/207/54 61/208/55 53/195/47
f 61/196/55 54/187/48 53/185/47
f 61/196/55 62/197/56 54/187/48
f 62/197/56 55/188/49 54/187/48
f 62/197/56 63/199/57 55/188/49
f 63/199/57 56/189/50 55/188/49
f 63/199/57 64/201/58 56/189/50
f 64/201/58 49/191/43 56/189/50
f 64/201/58 57/202/51 49/191/43
f 65/213/59 58/203/52 57/202/51
f 65/213/59 66/214/60 58/203/52
f 66/214/60 59/205/53 58/203/52
f 66/214/60 67/215/61 59/205/53
f 67/215/61 60/207/54 59/205/53
f 67/215/61 68/216/62 60/207/54
f 68/216/62 61/208/55 60/207/54
f 68/216/62 69/217/63 61/208/55
f 69/209/63 62/197/56 61/196/55
f 69/209/63 70/210/64 62/197/56
f 69/209/63 77/220/71 78/221/72
f 69/209/63 78/221/72 70/210/64
f 70/210/64 63/199/57 62/197/56
f 70/210/64 71/211/65 63/199/57
f 71/211/65 64/201/58 63/199/57
f 71/211/65 72/212/66 64/201/58
f 72/212/66 57/202/51 64/201/58
f 72/212/66 65/213/59 57/202/51
f 73/226/67 66/214/60 65/213/59
f 73/226/67 74/227/68 66/214/60
f 74/227/68 67/215/61 66/214/60
f 74/227/68 75/229/69 67/215/61
f 75/229/69 68/216/62 67/215/61
f 75/229/69 76/231/70 68/216/62
f 76/231/70 69/217/63 68/216/62
f 76/231/70 77/232/71 69/217/63
f 76/231/70 84/242/78 85/243/79
f 76/231/70 85/243/79 77/232/71
f 78/221/72 71/211/65 70/210/64
f 78/221/72 79/223/73 71/211/65
f 79/223/73 72/212/66 71/211/65
f 79/223/73 80/225/74 72/212/66
f 80/225/74 65/213/59 72/212/66
f 80/225/74 73/226/67 65/213/59
f 81/239/75 74/227/68 73/226/67
f 81/239/75 82/240/76 74/227/68
f 82/240/76 75/229/69 74/227/68
f 82/240/76 83/241/77 75/229/69
f 83/241/77 76/231/70 75/229/69
f 83/241/77 84/242/78 76/231/70
f 85/235/79 78/221/72 77/220/71
f 85/235/79 86/236/80 78/221/72
f 86/236/80 79/223/73 78/221/72
f 86/236/80 87/237/81 79/223/73
f 87/237/81 80/225/74 79/223/73
f 87/237/81 88/238/82 80/225/74
f 87/237/81 95/248/89 96/250/90
f 87/237/81 96/250/90 88/238/82
f 88/238/82 73/226/67 80/225/74
f 88/238/82 81/239/75 73/226/67
f 89/251/83 82/240/76 81/239/75
f 89/251/83 90/252/84 82/240/76
f 89/7/83 97/19/15 98/20/91
f 89/7/83 98/20/91 90/8/84
f 90/252/84 83/241/77 82/240/76
f 90/252/84 91/254/85 83/241/77
f 91/254/85 84/242/78 83/241/77
f 91/254/85 92/256/86 84/242/78
f 92/256/86 85/243/79 84/242/78
f 92/256/86 93/257/87 85/243/79
f 93/245/87 86/236/80 85/235/79
f 93/245/87 94/246/88 86/236/80
f 94/246/88 87/237/81 86/236/80
f 94/246/88 95/248/89 87/237/81
f 96/250/90 81/239/75 88/238/82
f 96/250/90 89/251/83 81/239/75
f 98/20/91 91/10/85 90/8/84
f 98/20/91 99/21/92 91/10/85
f 99/21/92 100/22/93 92/12/86
f 99/21/92 92/12/86 91/10/85
g race_checkpoint_lod1_core_Sphere.021
v 0.000000 1.170000 0.000000
v 0.000000 1.152583 0.065000
v 0.000000 1.040000 0.130000
v 0.000000 0.927417 0.065000
v 0.000000 0.910000 0.000000
v -0.038206 1.152583 0.052586
v -0.066175 1.105000 0.091082
v -0.076412 1.040000 0.105172
v -0.066175 0.975000 0.091082
v -0.038206 0.927417 0.052586
v -0.061819 1.152583 0.020086
v -0.107073 1.105000 0.034790
v -0.123637 1.040000 0.040172
v -0.107073 0.975000 0.034790
v -0.061819 0.927417 0.020086
v -0.061819 1.152583 -0.020086
v -0.107073 1.105000 -0.034790
v -0.123637 1.040000 -0.040172
v -0.107073 0.975000 -0.034790
v -0.061819 0.927417 -0.020086
v -0.038206 1.152583 -0.052586
v -0.066175 1.105000 -0.091082
v -0.076412 1.040000 -0.105172
v -0.066175 0.975000 -0.091082
v -0.038206 0.927417 -0.052586
v 0.000000 1.152583 -0.065000
v -0.000000 1.105000 -0.112583
v 0.000000 1.040000 -0.130000
v -0.000000 0.975000 -0.112583
v 0.000000 0.927417 -0.065000
v 0.038206 1.152583 -0.052586
v 0.066175 1.105000 -0.091082
v 0.076412 1.040000 -0.105172
v 0.066175 0.975000 -0.091082
v 0.038206 0.927417 -0.052586
v 0.061819 1.152583 -0.020086
v 0.107073 1.105000 -0.034790
v 0.123637 1.040000 -0.040172
v 0.107073 0.975000 -0.034790
v 0.061819 0.927417 -0.020086
v 0.061819 1.152583 0.020086
v 0.107073 1.105000 0.034790
v 0.123637 1.040000 0.040172
v 0.107073 0.975000 0.034790
v 0.061819 0.927417 0.020086
v 0.038206 1.152583 0.052586
v 0.066175 1.105000 0.091082
v 0.076412 1.040000 0.105172
v 0.066175 0.975000 0.091082
v 0.038206 0.927417 0.052586
v 0.000000 1.105000 0.112583
v 0.000000 0.975000 0.112583
vn -0.0000 1.0000 -0.0000
vn -0.0000 0.8438 0.5367
vn -0.0000 -0.0000 1.0000
vn -0.0000 -0.8438 0.5367
vn -0.0000 -1.0000 -0.0000
vn -0.3155 0.8438 0.4342
vn -0.5159 0.4791 0.7101
vn -0.5878 -0.0000 0.8090
vn -0.5159 -0.4791 0.7101
vn -0.3155 -0.8438 0.4342
vn -0.5104 0.8438 0.1659
vn -0.8348 0.4791 0.2712
vn -0.9511 -0.0000 0.3090
vn -0.8348 -0.4791 0.2713
vn -0.5104 -0.8438 0.1659
vn -0.5104 0.8438 -0.1659
vn -0.8348 0.4791 -0.2713
vn -0.9511 -0.0000 -0.3090
vn -0.8348 -0.4791 -0.2712
vn -0.5104 -0.8438 -0.1659
vn -0.3155 0.8438 -0.4342
vn -0.5159 0.4791 -0.7101
vn -0.5878 -0.0000 -0.8090
vn -0.5159 -0.4791 -0.7101
vn -0.3155 -0.8438 -0.4342
vn -0.0000 0.8438 -0.5367
vn -0.0000 0.4791 -0.8778
vn -0.0000 -0.0000 -1.0000
vn -0.0000 -0.4791 -0.8778
vn -0.0000 -0.8438 -0.5367
vn 0.3155 0.8438 -0.4342
vn 0.5159 0.4791 -0.7101
vn 0.5878 -0.0000 -0.8090
vn 0.5159 -0.4791 -0.7101
vn 0.3155 -0.8438 -0.4342
vn 0.5104 0.8438 -0.1659
vn 0.8348 0.4791 -0.2713
vn 0.9511 -0.0000 -0.3090
vn 0.8348 -0.4791 -0.2713
vn 0.5104 -0.8438 -0.1659
vn 0.5104 0.8438 0.1659
vn 0.8348 0.4791 0.2712
vn 0.9511 -0.0000 0.3090
vn 0.8348 -0.4791 0.2712
vn 0.5104 -0.8438 0.1659
vn 0.3155 0.8438 0.4342
vn 0.5159 0.4791 0.7101
vn 0.5878 -0.0000 0.8090
vn 0.5159 -0.4791 0.7101
vn 0.3155 -0.8438 0.4342
vn -0.0000 0.4791 0.8778
vn -0.0000 -0.4791 0.8778
s 1
g race_checkpoint_lod1_core_M_gold
usemtl M_gold
f 178/182/152 177/171/151 182/158/156
f 178/182/152 182/158/156 183/156/157
f 178/182/152 183/156/157 227/180/201
f 179/178/153 184/154/158 185/152/159
f 179/178/153 185/152/159 228/176/202
f 181/113/155 191/125/165 196/100/170
f 181/137/155 186/150/160 191/125/165
f 181/15/155 211/28/185 216/3/190
f 181/163/155 180/174/154 186/150/160
f 181/185/155 226/198/200 180/174/154
f 181/209/155 221/222/195 226/198/200
f 181/235/155 216/247/190 221/222/195
f 181/41/155 206/52/180 211/28/185
f 181/63/155 201/76/175 206/52/180
f 181/87/155 196/100/170 201/76/175
f 182/158/156 177/145/151 187/133/161
f 182/158/156 187/133/161 188/131/162
f 182/158/156 188/131/162 183/156/157
f 183/156/157 188/131/162 189/129/163
f 183/156/157 189/129/163 184/154/158
f 184/154/158 189/129/163 190/127/164
f 184/154/158 190/127/164 185/152/159
f 186/150/160 185/152/159 190/127/164
f 186/150/160 190/127/164 191/125/165
f 187/133/161 177/121/151 192/108/166
f 187/133/161 192/108/166 193/106/167
f 187/133/161 193/106/167 188/131/162
f 188/131/162 193/106/167 194/104/168
f 188/131/162 194/104/168 189/129/163
f 189/129/163 194/104/168 195/102/169
f 189/129/163 195/102/169 190/127/164
f 190/127/164 195/102/169 196/100/170
f 190/127/164 196/100/170 191/125/165
f 192/108/166 177/95/151 197/84/171
f 192/108/166 197/84/171 198/82/172
f 192/108/166 198/82/172 193/106/167
f 193/106/167 198/82/172 199/80/173
f 193/106/167 199/80/173 194/104/168
f 194/104/168 199/80/173 200/78/174
f 194/104/168 200/78/174 195/102/169
f 196/100/170 195/102/169 200/78/174
f 196/100/170 200/78/174 201/76/175
f 197/84/171 177/73/151 202/60/176
f 197/84/171 202/60/176 203/58/177
f 197/84/171 203/58/177 198/82/172
f 198/82/172 203/58/177 204/56/178
f 198/82/172 204/56/178 199/80/173
f 199/80/173 204/56/178 205/54/179
f 199/80/173 205/54/179 200/78/174
f 200/78/174 205/54/179 206/52/180
f 200/78/174 206/52/180 201/76/175
f 202/60/176 177/49/151 207/36/181
f 202/60/176 207/36/181 208/34/182
f 202/60/176 208/34/182 203/58/177
f 204/56/178 203/58/177 208/34/182
f 204/56/178 208/34/182 209/32/183
f 204/56/178 209/32/183 210/30/184
f 204/56/178 210/30/184 205/54/179
f 205/54/179 210/30/184 211/28/185
f 205/54/179 211/28/185 206/52/180
f 207/36/181 177/23/151 212/11/186
f 207/36/181 212/11/186 213/9/187
f 207/36/181 213/9/187 208/34/182
f 209/32/183 208/34/182 213/9/187
f 209/32/183 213/9/187 214/7/188
f 209/32/183 214/7/188 215/5/189
f 209/32/183 215/5/189 210/30/184
f 210/30/184 215/5/189 216/3/190
f 210/30/184 216/3/190 211/28/185
f 212/255/186 177/243/151 217/230/191
f 212/255/186 217/230/191 218/228/192
f 212/255/186 218/228/192 213/253/187
f 214/251/188 213/253/187 218/228/192
f 214/251/188 218/228/192 219/226/193
f 214/251/188 219/226/193 220/224/194
f 214/251/188 220/224/194 215/249/189
f 215/249/189 220/224/194 221/222/195
f 215/249/189 221/222/195 216/247/190
f 217/230/191 177/217/151 222/206/196
f 217/230/191 222/206/196 223/204/197
f 217/230/191 223/204/197 218/228/192
f 218/228/192 223/204/197 224/202/198
f 218/228/192 224/202/198 219/226/193
f 219/226/193 224/202/198 225/200/199
f 219/226/193 225/200/199 220/224/194
f 220/224/194 225/200/199 226/198/200
f 220/224/194 226/198/200 221/222/195
f 222/206/196 177/195/151 178/182/152
f 222/206/196 178/182/152 227/180/201
f 222/206/196 227/180/201 223/204/197
f 224/202/198 179/178/153 228/176/202
f 224/202/198 223/204/197 227/180/201
f 224/202/198 227/180/201 179/178/153
f 224/202/198 228/176/202 225/200/199
f 225/200/199 180/174/154 226/198/200
f 225/200/199 228/176/202 180/174/154
f 227/180/201 183/156/157 184/154/158
f 227/180/201 184/154/158 179/178/153
f 228/176/202 185/152/159 186/150/160
f 228/176/202 186/150/160 180/174/154
