# Blender 5.2.0 LTS
# www.blender.org
mtllib neon_start_light_gantry_lod1.mtl
g race_gantry_lod1_post_l_Cube.153
v 1.445000 0.000000 -0.135000
v 1.445000 0.015000 -0.150000
v 1.460000 0.015000 -0.135000
v 1.445000 0.004393 -0.145607
v 1.453660 0.006340 -0.143660
v 1.455607 0.015000 -0.145607
v 1.455607 0.004393 -0.135000
v 1.445000 2.135000 -0.150000
v 1.445000 2.150000 -0.135000
v 1.460000 2.135000 -0.135000
v 1.445000 2.145607 -0.145607
v 1.453660 2.143660 -0.143660
v 1.455607 2.145607 -0.135000
v 1.455607 2.135000 -0.145607
v 1.445000 0.000000 0.135000
v 1.460000 0.015000 0.135000
v 1.445000 0.015000 0.150000
v 1.455607 0.004393 0.135000
v 1.453660 0.006340 0.143660
v 1.455607 0.015000 0.145607
v 1.445000 0.004393 0.145607
v 1.445000 2.150000 0.135000
v 1.445000 2.135000 0.150000
v 1.460000 2.135000 0.135000
v 1.445000 2.145607 0.145607
v 1.453660 2.143660 0.143660
v 1.455607 2.135000 0.145607
v 1.455607 2.145607 0.135000
v 1.255000 0.000000 -0.135000
v 1.240000 0.015000 -0.135000
v 1.255000 0.015000 -0.150000
v 1.244393 0.004393 -0.135000
v 1.246340 0.006340 -0.143660
v 1.244393 0.015000 -0.145607
v 1.255000 0.004393 -0.145607
v 1.255000 2.150000 -0.135000
v 1.255000 2.135000 -0.150000
v 1.240000 2.135000 -0.135000
v 1.255000 2.145607 -0.145607
v 1.246340 2.143660 -0.143660
v 1.244393 2.135000 -0.145607
v 1.244393 2.145607 -0.135000
v 1.255000 0.000000 0.135000
v 1.255000 0.015000 0.150000
v 1.240000 0.015000 0.135000
v 1.255000 0.004393 0.145607
v 1.246340 0.006340 0.143660
v 1.244393 0.015000 0.145607
v 1.244393 0.004393 0.135000
v 1.255000 2.150000 0.135000
v 1.240000 2.135000 0.135000
v 1.255000 2.135000 0.150000
v 1.244393 2.145607 0.135000
v 1.246340 2.143660 0.143660
v 1.244393 2.135000 0.145607
v 1.255000 2.145607 0.145607
vn 0.3672 -0.8864 -0.2818
vn 0.2818 -0.3672 -0.8865
vn 0.8864 -0.2818 -0.3672
vn 0.3672 0.2817 -0.8865
vn 0.2818 0.8864 -0.3672
vn 0.8865 0.3672 -0.2818
vn 0.2818 -0.8864 0.3672
vn 0.8865 -0.3672 0.2818
vn 0.3672 -0.2817 0.8865
vn 0.3672 0.8864 0.2818
vn 0.2818 0.3672 0.8865
vn 0.8864 0.2818 0.3672
vn -0.2818 -0.8864 -0.3672
vn -0.8865 -0.3672 -0.2818
vn -0.3672 -0.2817 -0.8865
vn -0.3672 0.8864 -0.2818
vn -0.2818 0.3672 -0.8865
vn -0.8864 0.2818 -0.3672
vn -0.3672 -0.8864 0.2818
vn -0.2818 -0.3672 0.8865
vn -0.8864 -0.2818 0.3672
vn -0.2818 0.8864 0.3672
vn -0.8865 0.3672 0.2818
vn -0.3672 0.2817 0.8865
vn 0.3827 -0.9239 -0.0000
vn 0.9239 -0.3827 -0.0000
vn 0.3827 -0.0000 -0.9239
vn 0.9239 -0.0000 -0.3827
vn 0.3827 0.9239 -0.0000
vn 0.9239 0.3827 -0.0000
vn 0.3827 -0.0000 0.9239
vn 0.9239 -0.0000 0.3827
vn -0.0000 -0.9239 0.3827
vn -0.0000 -0.3827 0.9239
vn -0.0000 0.9239 0.3827
vn -0.0000 0.3827 0.9239
vn -0.9239 -0.0000 0.3827
vn -0.3827 -0.0000 0.9239
vn -0.3827 -0.9239 -0.0000
vn -0.9239 -0.3827 -0.0000
vn -0.3827 0.9239 -0.0000
vn -0.9239 0.3827 -0.0000
vn -0.3827 -0.0000 -0.9239
vn -0.9239 -0.0000 -0.3827
vn -0.0000 -0.9239 -0.3827
vn -0.0000 -0.3827 -0.9239
vn -0.0000 0.9239 -0.3827
vn -0.0000 0.3827 -0.9239
vn -0.0000 -1.0000 -0.0000
vn 1.0000 -0.0000 -0.0000
vn -0.0000 -0.0000 -1.0000
vn -0.0000 1.0000 -0.0000
vn -0.0000 -0.0000 1.0000
vn -1.0000 -0.0000 -0.0000
vn 0.2818 -0.8864 -0.3672
vn 0.3672 -0.2817 -0.8865
vn 0.8865 -0.3672 -0.2818
vn 0.2818 0.3672 -0.8865
vn 0.3672 0.8864 -0.2818
vn 0.8864 0.2818 -0.3672
vn 0.3672 -0.8864 0.2818
vn 0.8864 -0.2818 0.3672
vn 0.2818 -0.3672 0.8865
vn 0.2818 0.8864 0.3672
vn 0.3672 0.2817 0.8865
vn 0.8865 0.3672 0.2818
vn -0.3672 -0.8864 -0.2818
vn -0.8864 -0.2818 -0.3672
vn -0.2818 -0.3672 -0.8865
vn -0.2818 0.8864 -0.3672
vn -0.3672 0.2817 -0.8865
vn -0.8865 0.3672 -0.2818
vn -0.2818 -0.8864 0.3672
vn -0.3672 -0.2817 0.8865
vn -0.8865 -0.3672 0.2818
vn -0.3672 0.8864 0.2818
vn -0.8864 0.2818 0.3672
vn -0.2818 0.3672 0.8865
vt 0.12500 0.50528
vt 0.12500 0.50621
vt 0.12500 0.51250
vt 0.12500 0.51471
vt 0.12500 0.51509
vt 0.12500 0.53571
vt 0.12500 0.71429
vt 0.12500 0.73529
vt 0.12500 0.73750
vt 0.12560 0.75000
vt 0.12570 0.75000
vt 0.12643 0.50000
vt 0.12643 0.53571
vt 0.12643 0.71429
vt 0.12643 0.75000
vt 0.12667 0.50000
vt 0.12667 0.51471
vt 0.12667 0.73529
vt 0.12667 0.75000
vt 0.13220 0.75000
vt 0.14205 0.50000
vt 0.14205 0.51250
vt 0.14205 0.73750
vt 0.14205 0.75000
vt 0.35796 0.51250
vt 0.35796 0.73750
vt 0.36648 0.49148
vt 0.36648 0.75852
vt 0.37284 0.50176
vt 0.37333 0.51471
vt 0.37333 0.73529
vt 0.37357 0.53571
vt 0.37357 0.71429
vt 0.37417 0.49917
vt 0.37417 0.75083
vt 0.37429 0.49929
vt 0.37429 0.75071
vt 0.37500 0.00528
vt 0.37500 0.00622
vt 0.37500 0.01250
vt 0.37500 0.01471
vt 0.37500 0.01510
vt 0.37500 0.03571
vt 0.37500 0.21429
vt 0.37500 0.23529
vt 0.37500 0.23750
vt 0.37500 0.25143
vt 0.37500 0.25167
vt 0.37500 0.26704
vt 0.37500 0.51250
vt 0.37500 0.51471
vt 0.37500 0.53571
vt 0.37500 0.71429
vt 0.37500 0.73529
vt 0.37500 0.73750
vt 0.37500 0.98296
vt 0.37500 0.99833
vt 0.37500 0.99857
vt 0.37525 0.75064
vt 0.37537 0.25360
vt 0.37574 1.00000
vt 0.37656 0.50503
vt 0.37674 0.00000
vt 0.37674 0.01250
vt 0.37674 0.23750
vt 0.37674 0.25000
vt 0.37674 0.26704
vt 0.37674 0.48296
vt 0.37674 0.50000
vt 0.37674 0.51250
vt 0.37674 0.73750
vt 0.37674 0.75000
vt 0.37674 0.76704
vt 0.37674 0.98296
vt 0.37674 1.00000
vt 0.37676 0.74517
vt 0.37697 0.50207
vt 0.37720 0.74816
vt 0.37764 0.25030
vt 0.37830 0.25035
vt 0.38028 1.00000
vt 0.38160 1.00000
vt 0.38750 0.00000
vt 0.38750 0.03571
vt 0.38750 0.21429
vt 0.38750 0.25000
vt 0.38750 0.25143
vt 0.38750 0.49857
vt 0.38750 0.50000
vt 0.38750 0.53571
vt 0.38750 0.71429
vt 0.38750 0.75000
vt 0.38750 0.75143
vt 0.38750 0.99857
vt 0.38750 1.00000
vt 0.39062 0.00000
vt 0.39062 0.01471
vt 0.39062 0.23529
vt 0.39062 0.25000
vt 0.39062 0.25167
vt 0.39062 0.49833
vt 0.39062 0.50000
vt 0.39062 0.51471
vt 0.39062 0.73529
vt 0.39062 0.75000
vt 0.39062 0.75167
vt 0.39062 0.99833
vt 0.39062 1.00000
vt 0.60938 0.00000
vt 0.60938 0.01471
vt 0.60938 0.23529
vt 0.60938 0.25000
vt 0.60938 0.25167
vt 0.60938 0.49833
vt 0.60938 0.50000
vt 0.60938 0.51471
vt 0.60938 0.73529
vt 0.60938 0.75000
vt 0.60938 0.75167
vt 0.60938 0.99833
vt 0.60938 1.00000
vt 0.61250 0.00000
vt 0.61250 0.03571
vt 0.61250 0.21429
vt 0.61250 0.25000
vt 0.61250 0.25143
vt 0.61250 0.49857
vt 0.61250 0.50000
vt 0.61250 0.53571
vt 0.61250 0.71429
vt 0.61250 0.75000
vt 0.61250 0.75143
vt 0.61250 0.99857
vt 0.61250 1.00000
vt 0.61840 0.00000
vt 0.61972 0.00000
vt 0.62170 0.24689
vt 0.62236 0.24245
vt 0.62280 0.50184
vt 0.62303 0.74793
vt 0.62324 0.50483
vt 0.62326 0.00000
vt 0.62326 0.01250
vt 0.62326 0.23750
vt 0.62326 0.25000
vt 0.62326 0.26704
vt 0.62326 0.48296
vt 0.62326 0.50000
vt 0.62326 0.51250
vt 0.62326 0.73750
vt 0.62326 0.75000
vt 0.62326 0.76704
vt 0.62326 0.98296
vt 0.62326 1.00000
vt 0.62344 0.74497
vt 0.62426 0.00000
vt 0.62463 0.24736
vt 0.62475 0.49936
vt 0.62500 0.01250
vt 0.62500 0.01471
vt 0.62500 0.03571
vt 0.62500 0.21429
vt 0.62500 0.23529
vt 0.62500 0.23750
vt 0.62500 0.25143
vt 0.62500 0.25167
vt 0.62500 0.26704
vt 0.62500 0.51250
vt 0.62500 0.51471
vt 0.62500 0.53571
vt 0.62500 0.71429
vt 0.62500 0.73529
vt 0.62500 0.73750
vt 0.62500 0.98296
vt 0.62500 0.99280
vt 0.62500 0.99833
vt 0.62500 0.99857
vt 0.62500 0.99930
vt 0.62500 0.99940
vt 0.62571 0.49929
vt 0.62571 0.75071
vt 0.62583 0.49917
vt 0.62583 0.75083
vt 0.62643 0.53571
vt 0.62643 0.71429
vt 0.62667 0.51471
vt 0.62667 0.73529
vt 0.62716 0.74824
vt 0.63352 0.49148
vt 0.63352 0.75852
vt 0.64204 0.51250
vt 0.64204 0.73750
vt 0.85796 0.50000
vt 0.85796 0.51250
vt 0.85796 0.73750
vt 0.85796 0.75000
vt 0.86780 0.50000
vt 0.87333 0.50000
vt 0.87333 0.51471
vt 0.87333 0.73529
vt 0.87333 0.75000
vt 0.87357 0.50000
vt 0.87357 0.53571
vt 0.87357 0.71429
vt 0.87357 0.75000
vt 0.87430 0.50000
vt 0.87440 0.50000
vt 0.87500 0.51250
vt 0.87500 0.51471
vt 0.87500 0.53571
vt 0.87500 0.71429
vt 0.87500 0.73491
vt 0.87500 0.73529
vt 0.87500 0.73750
vt 0.87500 0.74379
vt 0.87500 0.74472
s 0
g race_gantry_lod1_post_l_M_gunmetal
usemtl M_gunmetal
f 1/23/1 5/20/1 7/9/1
f 1/23/25 18/3/25 15/22/25
f 1/23/25 7/9/25 18/3/25
f 1/23/55 4/24/55 5/20/55
f 10/143/50 16/65/50 3/64/50
f 10/143/50 24/144/50 16/65/50
f 10/143/6 12/156/6 13/159/6
f 10/143/60 14/142/60 12/156/60
f 11/174/48 37/152/48 39/190/48
f 11/174/48 8/153/48 37/152/48
f 14/142/28 10/143/28 3/64/28
f 14/142/28 3/64/28 6/63/28
f 15/22/33 21/21/33 46/27/33
f 15/22/33 46/27/33 43/25/33
f 15/22/61 18/3/61 19/1/61
f 15/22/7 19/1/7 21/21/7
f 16/65/62 20/66/62 19/60/62
f 16/65/8 19/60/8 18/46/8
f 17/67/31 20/66/31 27/145/31
f 17/67/31 27/145/31 23/146/31
f 17/67/63 21/49/63 19/60/63
f 17/67/9 19/60/9 20/66/9
f 2/74/2 5/61/2 4/56/2
f 2/74/56 6/75/56 5/61/56
f 20/66/32 16/65/32 24/144/32
f 20/66/32 24/144/32 27/145/32
f 21/49/34 17/67/34 44/68/34
f 21/49/34 44/68/34 46/27/34
f 22/194/10 26/197/10 28/208/10
f 22/194/29 13/214/29 9/195/29
f 22/194/29 28/208/29 13/214/29
f 22/194/52 36/192/52 50/191/52
f 22/194/52 9/195/52 36/192/52
f 22/194/64 25/193/64 26/197/64
f 23/146/11 26/157/11 25/167/11
f 23/146/53 44/68/53 17/67/53
f 23/146/53 52/147/53 44/68/53
f 23/146/65 27/145/65 26/157/65
f 24/144/12 26/157/12 27/145/12
f 24/144/66 28/164/66 26/157/66
f 28/164/30 10/143/30 13/159/30
f 28/164/30 24/144/30 10/143/30
f 29/26/13 33/59/13 35/28/13
f 29/26/45 35/28/45 4/24/45
f 29/26/45 4/24/45 1/23/45
f 29/26/67 32/55/67 33/59/67
f 3/64/3 5/38/3 6/63/3
f 3/64/57 7/40/57 5/38/57
f 30/71/14 33/59/14 32/55/14
f 30/71/68 34/72/68 33/59/68
f 31/73/15 33/59/15 34/72/15
f 31/73/43 34/72/43 41/151/43
f 31/73/43 41/151/43 37/152/43
f 31/73/69 35/28/69 33/59/69
f 34/72/44 30/71/44 38/150/44
f 34/72/44 38/150/44 41/151/44
f 35/28/46 2/74/46 4/56/46
f 35/28/46 31/73/46 2/74/46
f 36/192/16 40/188/16 42/173/16
f 36/192/41 42/173/41 53/168/41
f 36/192/41 53/168/41 50/191/41
f 36/192/70 39/190/70 40/188/70
f 37/152/17 40/188/17 39/190/17
f 37/152/51 2/74/51 31/73/51
f 37/152/51 8/153/51 2/74/51
f 37/152/71 41/151/71 40/188/71
f 38/150/18 40/188/18 41/151/18
f 38/150/72 42/173/72 40/188/72
f 42/173/42 38/150/42 51/149/42
f 42/173/42 51/149/42 53/168/42
f 43/25/19 47/29/19 49/50/19
f 43/25/39 32/55/39 29/26/39
f 43/25/39 49/50/39 32/55/39
f 43/25/49 1/23/49 15/22/49
f 43/25/49 29/26/49 1/23/49
f 43/25/73 46/27/73 47/29/73
f 44/68/20 47/29/20 46/27/20
f 44/68/74 48/69/74 47/29/74
f 45/70/21 47/29/21 48/69/21
f 45/70/37 48/69/37 55/148/37
f 45/70/37 55/148/37 51/149/37
f 45/70/75 49/50/75 47/29/75
f 48/69/38 44/68/38 52/147/38
f 48/69/38 52/147/38 55/148/38
f 49/50/40 30/71/40 32/55/40
f 49/50/40 45/70/40 30/71/40
f 50/191/22 54/158/22 56/189/22
f 50/191/35 25/193/35 22/194/35
f 50/191/35 56/189/35 25/193/35
f 50/191/76 53/168/76 54/158/76
f 51/149/23 54/158/23 53/168/23
f 51/149/54 30/71/54 45/70/54
f 51/149/54 38/150/54 30/71/54
f 51/149/77 55/148/77 54/158/77
f 52/147/24 54/158/24 55/148/24
f 52/147/78 56/189/78 54/158/78
f 56/189/36 23/146/36 25/167/36
f 56/189/36 52/147/36 23/146/36
f 7/40/26 16/65/26 18/46/26
f 7/40/26 3/64/26 16/65/26
f 8/153/27 14/154/27 6/75/27
f 8/153/27 6/75/27 2/74/27
f 8/153/4 12/175/4 14/154/4
f 8/153/58 11/174/58 12/175/58
f 9/195/47 11/196/47 39/190/47
f 9/195/47 39/190/47 36/192/47
f 9/195/5 12/216/5 11/196/5
f 9/195/59 13/214/59 12/216/59
g race_gantry_lod1_post_r_Cube.154
v -1.255000 0.000000 -0.135000
v -1.255000 0.015000 -0.150000
v -1.240000 0.015000 -0.135000
v -1.255000 0.004393 -0.145607
v -1.246340 0.006340 -0.143660
v -1.244393 0.015000 -0.145607
v -1.244393 0.004393 -0.135000
v -1.255000 2.135000 -0.150000
v -1.255000 2.150000 -0.135000
v -1.240000 2.135000 -0.135000
v -1.255000 2.145607 -0.145607
v -1.246340 2.143660 -0.143660
v -1.244393 2.145607 -0.135000
v -1.244393 2.135000 -0.145607
v -1.255000 0.000000 0.135000
v -1.240000 0.015000 0.135000
v -1.255000 0.015000 0.150000
v -1.244393 0.004393 0.135000
v -1.246340 0.006340 0.143660
v -1.244393 0.015000 0.145607
v -1.255000 0.004393 0.145607
v -1.255000 2.150000 0.135000
v -1.255000 2.135000 0.150000
v -1.240000 2.135000 0.135000
v -1.255000 2.145607 0.145607
v -1.246340 2.143660 0.143660
v -1.244393 2.135000 0.145607
v -1.244393 2.145607 0.135000
v -1.445000 0.000000 -0.135000
v -1.460000 0.015000 -0.135000
v -1.445000 0.015000 -0.150000
v -1.455607 0.004393 -0.135000
v -1.453660 0.006340 -0.143660
v -1.455607 0.015000 -0.145607
v -1.445000 0.004393 -0.145607
v -1.445000 2.150000 -0.135000
v -1.445000 2.135000 -0.150000
v -1.460000 2.135000 -0.135000
v -1.445000 2.145607 -0.145607
v -1.453660 2.143660 -0.143660
v -1.455607 2.135000 -0.145607
v -1.455607 2.145607 -0.135000
v -1.445000 0.000000 0.135000
v -1.445000 0.015000 0.150000
v -1.460000 0.015000 0.135000
v -1.445000 0.004393 0.145607
v -1.453660 0.006340 0.143660
v -1.455607 0.015000 0.145607
v -1.455607 0.004393 0.135000
v -1.445000 2.150000 0.135000
v -1.460000 2.135000 0.135000
v -1.445000 2.135000 0.150000
v -1.455607 2.145607 0.135000
v -1.453660 2.143660 0.143660
v -1.455607 2.135000 0.145607
v -1.445000 2.145607 0.145607
vn 0.3672 -0.8864 -0.2818
vn 0.2818 -0.3672 -0.8865
vn 0.8864 -0.2818 -0.3672
vn 0.3672 0.2817 -0.8865
vn 0.2818 0.8864 -0.3672
vn 0.8865 0.3672 -0.2818
vn 0.2818 -0.8864 0.3672
vn 0.8865 -0.3672 0.2818
vn 0.3672 -0.2817 0.8865
vn 0.3672 0.8864 0.2818
vn 0.2818 0.3672 0.8865
vn 0.8864 0.2818 0.3672
vn -0.2818 -0.8864 -0.3672
vn -0.8865 -0.3672 -0.2818
vn -0.3672 -0.2817 -0.8865
vn -0.3672 0.8864 -0.2818
vn -0.2818 0.3672 -0.8865
vn -0.8864 0.2818 -0.3672
vn -0.3672 -0.8864 0.2818
vn -0.2818 -0.3672 0.8865
vn -0.8864 -0.2818 0.3672
vn -0.2818 0.8864 0.3672
vn -0.8865 0.3672 0.2818
vn -0.3672 0.2817 0.8865
vn 0.3827 -0.9239 -0.0000
vn 0.9239 -0.3827 -0.0000
vn 0.3827 -0.0000 -0.9239
vn 0.9239 -0.0000 -0.3827
vn 0.3827 0.9239 -0.0000
vn 0.9239 0.3827 -0.0000
vn 0.3827 -0.0000 0.9239
vn 0.9239 -0.0000 0.3827
vn -0.0000 -0.9239 0.3827
vn -0.0000 -0.3827 0.9239
vn -0.0000 0.9239 0.3827
vn -0.0000 0.3827 0.9239
vn -0.9239 -0.0000 0.3827
vn -0.3827 -0.0000 0.9239
vn -0.3827 -0.9239 -0.0000
vn -0.9239 -0.3827 -0.0000
vn -0.3827 0.9239 -0.0000
vn -0.9239 0.3827 -0.0000
vn -0.3827 -0.0000 -0.9239
vn -0.9239 -0.0000 -0.3827
vn -0.0000 -0.9239 -0.3827
vn -0.0000 -0.3827 -0.9239
vn -0.0000 0.9239 -0.3827
vn -0.0000 0.3827 -0.9239
vn -0.0000 -1.0000 -0.0000
vn 1.0000 -0.0000 -0.0000
vn -0.0000 -0.0000 -1.0000
vn -0.0000 1.0000 -0.0000
vn -0.0000 -0.0000 1.0000
vn -1.0000 -0.0000 -0.0000
vn 0.2818 -0.8864 -0.3672
vn 0.3672 -0.2817 -0.8865
vn 0.8865 -0.3672 -0.2818
vn 0.2818 0.3672 -0.8865
vn 0.3672 0.8864 -0.2818
vn 0.8864 0.2818 -0.3672
vn 0.3672 -0.8864 0.2818
vn 0.8864 -0.2818 0.3672
vn 0.2818 -0.3672 0.8865
vn 0.2818 0.8864 0.3672
vn 0.3672 0.2817 0.8865
vn 0.8865 0.3672 0.2818
vn -0.3672 -0.8864 -0.2818
vn -0.8864 -0.2818 -0.3672
vn -0.2818 -0.3672 -0.8865
vn -0.2818 0.8864 -0.3672
vn -0.3672 0.2817 -0.8865
vn -0.8865 0.3672 -0.2818
vn -0.2818 -0.8864 0.3672
vn -0.3672 -0.2817 0.8865
vn -0.8865 -0.3672 0.2818
vn -0.3672 0.8864 0.2818
vn -0.8864 0.2818 0.3672
vn -0.2818 0.3672 0.8865
s 0
g race_gantry_lod1_post_r_M_gunmetal
usemtl M_gunmetal
f 100/68/152 104/69/152 103/29/152
f 100/68/98 103/29/98 102/27/98
f 101/70/115 104/69/115 111/148/115
f 101/70/115 111/148/115 107/149/115
f 101/70/153 105/50/153 103/29/153
f 101/70/99 103/29/99 104/69/99
f 104/69/116 100/68/116 108/147/116
f 104/69/116 108/147/116 111/148/116
f 105/50/118 101/70/118 86/71/118
f 105/50/118 86/71/118 88/55/118
f 106/191/100 110/158/100 112/189/100
f 106/191/113 112/189/113 81/193/113
f 106/191/113 81/193/113 78/194/113
f 106/191/154 109/168/154 110/158/154
f 107/149/101 110/158/101 109/168/101
f 107/149/132 86/71/132 101/70/132
f 107/149/132 94/150/132 86/71/132
f 107/149/155 111/148/155 110/158/155
f 108/147/102 110/158/102 111/148/102
f 108/147/156 112/189/156 110/158/156
f 112/189/114 108/147/114 79/146/114
f 112/189/114 79/146/114 81/167/114
f 57/23/103 63/9/103 74/3/103
f 57/23/103 74/3/103 71/22/103
f 57/23/133 60/24/133 61/20/133
f 57/23/79 61/20/79 63/9/79
f 58/74/134 62/75/134 61/61/134
f 58/74/80 61/61/80 60/56/80
f 59/64/135 63/40/135 61/38/135
f 59/64/81 61/38/81 62/63/81
f 63/40/104 59/64/104 72/65/104
f 63/40/104 72/65/104 74/46/104
f 64/153/105 62/75/105 58/74/105
f 64/153/105 70/154/105 62/75/105
f 64/153/136 67/174/136 68/175/136
f 64/153/82 68/175/82 70/154/82
f 65/195/125 67/196/125 95/190/125
f 65/195/125 95/190/125 92/192/125
f 65/195/137 69/214/137 68/216/137
f 65/195/83 68/216/83 67/196/83
f 66/143/128 72/65/128 59/64/128
f 66/143/128 80/144/128 72/65/128
f 66/143/138 70/142/138 68/156/138
f 66/143/84 68/156/84 69/159/84
f 67/174/126 64/153/126 93/152/126
f 67/174/126 93/152/126 95/190/126
f 70/142/106 59/64/106 62/63/106
f 70/142/106 66/143/106 59/64/106
f 71/22/111 102/27/111 99/25/111
f 71/22/111 77/21/111 102/27/111
f 71/22/139 74/3/139 75/1/139
f 71/22/85 75/1/85 77/21/85
f 72/65/140 76/66/140 75/60/140
f 72/65/86 75/60/86 74/46/86
f 73/67/109 76/66/109 83/145/109
f 73/67/109 83/145/109 79/146/109
f 73/67/141 77/49/141 75/60/141
f 73/67/87 75/60/87 76/66/87
f 76/66/110 72/65/110 80/144/110
f 76/66/110 80/144/110 83/145/110
f 77/49/112 100/68/112 102/27/112
f 77/49/112 73/67/112 100/68/112
f 78/194/107 69/214/107 65/195/107
f 78/194/107 84/208/107 69/214/107
f 78/194/130 65/195/130 92/192/130
f 78/194/130 92/192/130 106/191/130
f 78/194/142 81/193/142 82/197/142
f 78/194/88 82/197/88 84/208/88
f 79/146/131 100/68/131 73/67/131
f 79/146/131 108/147/131 100/68/131
f 79/146/143 83/145/143 82/157/143
f 79/146/89 82/157/89 81/167/89
f 80/144/144 84/164/144 82/157/144
f 80/144/90 82/157/90 83/145/90
f 84/164/108 66/143/108 69/159/108
f 84/164/108 80/144/108 66/143/108
f 85/26/123 60/24/123 57/23/123
f 85/26/123 91/28/123 60/24/123
f 85/26/145 88/55/145 89/59/145
f 85/26/91 89/59/91 91/28/91
f 86/71/146 90/72/146 89/59/146
f 86/71/92 89/59/92 88/55/92
f 87/73/121 90/72/121 97/151/121
f 87/73/121 97/151/121 93/152/121
f 87/73/147 91/28/147 89/59/147
f 87/73/93 89/59/93 90/72/93
f 90/72/122 86/71/122 94/150/122
f 90/72/122 94/150/122 97/151/122
f 91/28/124 58/74/124 60/56/124
f 91/28/124 87/73/124 58/74/124
f 92/192/119 109/168/119 106/191/119
f 92/192/119 98/173/119 109/168/119
f 92/192/148 95/190/148 96/188/148
f 92/192/94 96/188/94 98/173/94
f 93/152/129 58/74/129 87/73/129
f 93/152/129 64/153/129 58/74/129
f 93/152/149 97/151/149 96/188/149
f 93/152/95 96/188/95 95/190/95
f 94/150/150 98/173/150 96/188/150
f 94/150/96 96/188/96 97/151/96
f 98/173/120 107/149/120 109/168/120
f 98/173/120 94/150/120 107/149/120
f 99/25/117 105/50/117 88/55/117
f 99/25/117 88/55/117 85/26/117
f 99/25/127 57/23/127 71/22/127
f 99/25/127 85/26/127 57/23/127
f 99/25/151 102/27/151 103/29/151
f 99/25/97 103/29/97 105/50/97
g race_gantry_lod1_header_Cube.155
v 1.480000 1.910000 -0.150000
v 1.480000 1.930000 -0.170000
v 1.500000 1.930000 -0.150000
v 1.480000 1.915858 -0.164142
v 1.491547 1.918453 -0.161547
v 1.494142 1.930000 -0.164142
v 1.494142 1.915858 -0.150000
v 1.480000 2.210000 -0.170000
v 1.480000 2.230000 -0.150000
v 1.500000 2.210000 -0.150000
v 1.480000 2.224142 -0.164142
v 1.491547 2.221547 -0.161547
v 1.494142 2.224142 -0.150000
v 1.494142 2.210000 -0.164142
v 1.480000 1.910000 0.150000
v 1.500000 1.930000 0.150000
v 1.480000 1.930000 0.170000
v 1.494142 1.915858 0.150000
v 1.491547 1.918453 0.161547
v 1.494142 1.930000 0.164142
v 1.480000 1.915858 0.164142
v 1.480000 2.230000 0.150000
v 1.480000 2.210000 0.170000
v 1.500000 2.210000 0.150000
v 1.480000 2.224142 0.164142
v 1.491547 2.221547 0.161547
v 1.494142 2.210000 0.164142
v 1.494142 2.224142 0.150000
v -1.480000 1.910000 -0.150000
v -1.500000 1.930000 -0.150000
v -1.480000 1.930000 -0.170000
v -1.494142 1.915858 -0.150000
v -1.491547 1.918453 -0.161547
v -1.494142 1.930000 -0.164142
v -1.480000 1.915858 -0.164142
v -1.480000 2.230000 -0.150000
v -1.480000 2.210000 -0.170000
v -1.500000 2.210000 -0.150000
v -1.480000 2.224142 -0.164142
v -1.491547 2.221547 -0.161547
v -1.494142 2.210000 -0.164142
v -1.494142 2.224142 -0.150000
v -1.480000 1.910000 0.150000
v -1.480000 1.930000 0.170000
v -1.500000 1.930000 0.150000
v -1.480000 1.915858 0.164142
v -1.491547 1.918453 0.161547
v -1.494142 1.930000 0.164142
v -1.494142 1.915858 0.150000
v -1.480000 2.230000 0.150000
v -1.500000 2.210000 0.150000
v -1.480000 2.210000 0.170000
v -1.494142 2.224142 0.150000
v -1.491547 2.221547 0.161547
v -1.494142 2.210000 0.164142
v -1.480000 2.224142 0.164142
vn 0.3672 -0.8865 -0.2817
vn 0.2817 -0.3672 -0.8865
vn 0.8865 -0.2818 -0.3672
vn 0.3672 0.2818 -0.8865
vn 0.2818 0.8865 -0.3672
vn 0.8865 0.3672 -0.2817
vn 0.2818 -0.8865 0.3672
vn 0.8865 -0.3672 0.2817
vn 0.3672 -0.2818 0.8865
vn 0.3672 0.8865 0.2817
vn 0.2817 0.3672 0.8865
vn 0.8865 0.2818 0.3672
vn -0.2818 -0.8865 -0.3672
vn -0.8865 -0.3672 -0.2817
vn -0.3672 -0.2818 -0.8865
vn -0.3672 0.8865 -0.2817
vn -0.2817 0.3672 -0.8865
vn -0.8865 0.2818 -0.3672
vn -0.3672 -0.8865 0.2817
vn -0.2817 -0.3672 0.8865
vn -0.8865 -0.2818 0.3672
vn -0.2818 0.8865 0.3672
vn -0.8865 0.3672 0.2817
vn -0.3672 0.2818 0.8865
vn 0.3827 -0.9239 -0.0000
vn 0.9239 -0.3827 -0.0000
vn 0.3827 -0.0000 -0.9239
vn 0.9239 -0.0000 -0.3827
vn 0.3827 0.9239 -0.0000
vn 0.9239 0.3827 -0.0000
vn 0.3827 -0.0000 0.9239
vn 0.9239 -0.0000 0.3827
vn -0.0000 -0.9239 0.3827
vn -0.0000 -0.3827 0.9239
vn -0.0000 0.9239 0.3827
vn -0.0000 0.3827 0.9239
vn -0.9239 -0.0000 0.3827
vn -0.3827 -0.0000 0.9239
vn -0.3827 -0.9239 -0.0000
vn -0.9239 -0.3827 -0.0000
vn -0.3827 0.9239 -0.0000
vn -0.9239 0.3827 -0.0000
vn -0.3827 -0.0000 -0.9239
vn -0.9239 -0.0000 -0.3827
vn -0.0000 -0.9239 -0.3827
vn -0.0000 -0.3827 -0.9239
vn -0.0000 0.9239 -0.3827
vn -0.0000 0.3827 -0.9239
vn -0.0000 -1.0000 -0.0000
vn 1.0000 -0.0000 -0.0000
vn -0.0000 -0.0000 -1.0000
vn -0.0000 1.0000 -0.0000
vn -0.0000 -0.0000 1.0000
vn -1.0000 -0.0000 -0.0000
vn 0.2818 -0.8865 -0.3672
vn 0.3672 -0.2818 -0.8865
vn 0.8865 -0.3672 -0.2817
vn 0.2817 0.3672 -0.8865
vn 0.3672 0.8865 -0.2817
vn 0.8865 0.2818 -0.3672
vn 0.3672 -0.8865 0.2817
vn 0.8865 -0.2818 0.3672
vn 0.2817 -0.3672 0.8865
vn 0.2818 0.8865 0.3672
vn 0.3672 0.2818 0.8865
vn 0.8865 0.3672 0.2817
vn -0.3672 -0.8865 -0.2817
vn -0.8865 -0.2818 -0.3672
vn -0.2817 -0.3672 -0.8865
vn -0.2818 0.8865 -0.3672
vn -0.3672 0.2818 -0.8865
vn -0.8865 0.3672 -0.2817
vn -0.2818 -0.8865 0.3672
vn -0.3672 -0.2818 0.8865
vn -0.8865 -0.3672 0.2817
vn -0.3672 0.8865 0.2817
vn -0.8865 0.2818 0.3672
vn -0.2817 0.3672 0.8865
s 0
g race_gantry_lod1_header_M_navy
usemtl M_navy
f 113/18/157 117/11/157 119/8/157
f 113/18/181 119/8/181 130/4/181
f 113/18/181 130/4/181 127/17/181
f 113/18/211 116/19/211 117/11/211
f 114/107/158 117/82/158 116/57/158
f 114/107/212 118/108/212 117/82/212
f 115/97/159 117/39/159 118/96/159
f 115/97/213 119/41/213 117/39/213
f 119/41/182 115/97/182 128/98/182
f 119/41/182 128/98/182 130/45/182
f 120/120/160 124/178/160 126/121/160
f 120/120/183 118/108/183 114/107/183
f 120/120/183 126/121/183 118/108/183
f 120/120/214 123/176/214 124/178/214
f 121/200/161 124/215/161 123/201/161
f 121/200/203 123/201/203 151/183/203
f 121/200/203 151/183/203 148/187/203
f 121/200/215 125/213/215 124/215/215
f 122/110/162 124/135/162 125/160/162
f 122/110/206 128/98/206 115/97/206
f 122/110/206 136/111/206 128/98/206
f 122/110/216 126/109/216 124/135/216
f 123/176/204 120/120/204 149/119/204
f 123/176/204 149/119/204 151/183/204
f 126/109/184 115/97/184 118/96/184
f 126/109/184 122/110/184 115/97/184
f 127/17/163 131/2/163 133/16/163
f 127/17/189 133/16/189 158/34/189
f 127/17/189 158/34/189 155/30/189
f 127/17/217 130/4/217 131/2/217
f 128/98/164 131/80/164 130/45/164
f 128/98/218 132/99/218 131/80/218
f 129/100/165 131/80/165 132/99/165
f 129/100/187 132/99/187 139/112/187
f 129/100/187 139/112/187 135/113/187
f 129/100/219 133/48/219 131/80/219
f 132/99/188 128/98/188 136/111/188
f 132/99/188 136/111/188 139/112/188
f 133/48/190 129/100/190 156/101/190
f 133/48/190 156/101/190 158/34/190
f 134/199/166 138/206/166 140/209/166
f 134/199/185 125/213/185 121/200/185
f 134/199/185 140/209/185 125/213/185
f 134/199/208 121/200/208 148/187/208
f 134/199/208 148/187/208 162/186/208
f 134/199/220 137/198/220 138/206/220
f 135/113/167 138/137/167 137/166/167
f 135/113/209 156/101/209 129/100/209
f 135/113/209 164/114/209 156/101/209
f 135/113/221 139/112/221 138/137/221
f 136/111/168 138/137/168 139/112/168
f 136/111/222 140/163/222 138/137/222
f 140/163/186 122/110/186 125/160/186
f 140/163/186 136/111/186 122/110/186
f 141/31/169 145/78/169 147/35/169
f 141/31/201 116/19/201 113/18/201
f 141/31/201 147/35/201 116/19/201
f 141/31/223 144/54/223 145/78/223
f 142/104/170 145/78/170 144/54/170
f 142/104/224 146/105/224 145/78/224
f 143/106/171 145/78/171 146/105/171
f 143/106/199 146/105/199 153/118/199
f 143/106/199 153/118/199 149/119/199
f 143/106/225 147/35/225 145/78/225
f 146/105/200 142/104/200 150/117/200
f 146/105/200 150/117/200 153/118/200
f 147/35/202 114/107/202 116/57/202
f 147/35/202 143/106/202 114/107/202
f 148/187/172 152/140/172 154/172/172
f 148/187/197 154/172/197 165/169/197
f 148/187/197 165/169/197 162/186/197
f 148/187/226 151/183/226 152/140/226
f 149/119/173 152/140/173 151/183/173
f 149/119/207 114/107/207 143/106/207
f 149/119/207 120/120/207 114/107/207
f 149/119/227 153/118/227 152/140/227
f 150/117/174 152/140/174 153/118/174
f 150/117/228 154/172/228 152/140/228
f 154/172/198 150/117/198 163/116/198
f 154/172/198 163/116/198 165/169/198
f 155/30/175 159/77/175 161/51/175
f 155/30/195 144/54/195 141/31/195
f 155/30/195 161/51/195 144/54/195
f 155/30/205 113/18/205 127/17/205
f 155/30/205 141/31/205 113/18/205
f 155/30/229 158/34/229 159/77/229
f 156/101/176 159/77/176 158/34/176
f 156/101/230 160/102/230 159/77/230
f 157/103/177 159/77/177 160/102/177
f 157/103/193 160/102/193 167/115/193
f 157/103/193 167/115/193 163/116/193
f 157/103/231 161/51/231 159/77/231
f 160/102/194 156/101/194 164/114/194
f 160/102/194 164/114/194 167/115/194
f 161/51/196 142/104/196 144/54/196
f 161/51/196 157/103/196 142/104/196
f 162/186/178 166/139/178 168/182/178
f 162/186/191 137/198/191 134/199/191
f 162/186/191 168/182/191 137/198/191
f 162/186/232 165/169/232 166/139/232
f 163/116/179 166/139/179 165/169/179
f 163/116/210 142/104/210 157/103/210
f 163/116/210 150/117/210 142/104/210
f 163/116/233 167/115/233 166/139/233
f 164/114/180 166/139/180 167/115/180
f 164/114/234 168/182/234 166/139/234
f 168/182/192 135/113/192 137/166/192
f 168/182/192 164/114/192 135/113/192
g race_gantry_lod1_lights_Cube.156
v 0.865000 1.970000 -0.230000
v 0.865000 1.980000 -0.240000
v 0.875000 1.980000 -0.230000
v 0.865000 1.972929 -0.237071
v 0.870773 1.974226 -0.235774
v 0.872071 1.980000 -0.237071
v 0.872071 1.972929 -0.230000
v 0.865000 2.160000 -0.240000
v 0.865000 2.170000 -0.230000
v 0.875000 2.160000 -0.230000
v 0.865000 2.167071 -0.237071
v 0.870773 2.165773 -0.235774
v 0.872071 2.167071 -0.230000
v 0.872071 2.160000 -0.237071
v 0.865000 1.970000 -0.180000
v 0.875000 1.980000 -0.180000
v 0.865000 1.980000 -0.170000
v 0.872071 1.972929 -0.180000
v 0.870773 1.974226 -0.174226
v 0.872071 1.980000 -0.172929
v 0.865000 1.972929 -0.172929
v 0.865000 2.170000 -0.180000
v 0.865000 2.160000 -0.170000
v 0.875000 2.160000 -0.180000
v 0.865000 2.167071 -0.172929
v 0.870773 2.165773 -0.174226
v 0.872071 2.160000 -0.172929
v 0.872071 2.167071 -0.180000
v -0.865000 1.970000 -0.230000
v -0.875000 1.980000 -0.230000
v -0.865000 1.980000 -0.240000
v -0.872071 1.972929 -0.230000
v -0.870773 1.974226 -0.235774
v -0.872071 1.980000 -0.237071
v -0.865000 1.972929 -0.237071
v -0.865000 2.170000 -0.230000
v -0.865000 2.160000 -0.240000
v -0.875000 2.160000 -0.230000
v -0.865000 2.167071 -0.237071
v -0.870773 2.165773 -0.235774
v -0.872071 2.160000 -0.237071
v -0.872071 2.167071 -0.230000
v -0.865000 1.970000 -0.180000
v -0.865000 1.980000 -0.170000
v -0.875000 1.980000 -0.180000
v -0.865000 1.972929 -0.172929
v -0.870773 1.974226 -0.174226
v -0.872071 1.980000 -0.172929
v -0.872071 1.972929 -0.180000
v -0.865000 2.170000 -0.180000
v -0.875000 2.160000 -0.180000
v -0.865000 2.160000 -0.170000
v -0.872071 2.167071 -0.180000
v -0.870773 2.165773 -0.174226
v -0.872071 2.160000 -0.172929
v -0.865000 2.167071 -0.172929
vn 0.3672 -0.8865 -0.2817
vn 0.2817 -0.3672 -0.8865
vn 0.8865 -0.2818 -0.3672
vn 0.3672 0.2818 -0.8864
vn 0.2817 0.8864 -0.3672
vn 0.8865 0.3672 -0.2817
vn 0.2817 -0.8864 0.3672
vn 0.8865 -0.3672 0.2817
vn 0.3672 -0.2818 0.8864
vn 0.3672 0.8865 0.2817
vn 0.2817 0.3672 0.8865
vn 0.8865 0.2818 0.3672
vn -0.2817 -0.8864 -0.3672
vn -0.8865 -0.3672 -0.2817
vn -0.3672 -0.2818 -0.8864
vn -0.3672 0.8865 -0.2817
vn -0.2817 0.3672 -0.8865
vn -0.8865 0.2818 -0.3672
vn -0.3672 -0.8865 0.2817
vn -0.2817 -0.3672 0.8865
vn -0.8865 -0.2818 0.3672
vn -0.2817 0.8864 0.3672
vn -0.8865 0.3672 0.2817
vn -0.3672 0.2818 0.8864
vn 0.3827 -0.9239 -0.0000
vn 0.9239 -0.3827 -0.0000
vn 0.3827 -0.0000 -0.9239
vn 0.9239 -0.0000 -0.3827
vn 0.3827 0.9239 -0.0000
vn 0.9239 0.3827 -0.0000
vn 0.3827 -0.0000 0.9239
vn 0.9239 -0.0000 0.3827
vn -0.0000 -0.9239 0.3827
vn -0.0000 -0.3827 0.9239
vn -0.0000 0.9239 0.3827
vn -0.0000 0.3827 0.9239
vn -0.9239 -0.0000 0.3827
vn -0.3827 -0.0000 0.9239
vn -0.3827 -0.9239 -0.0000
vn -0.9239 -0.3827 -0.0000
vn -0.3827 0.9239 -0.0000
vn -0.9239 0.3827 -0.0000
vn -0.3827 -0.0000 -0.9239
vn -0.9239 -0.0000 -0.3827
vn -0.0000 -0.9239 -0.3827
vn -0.0000 -0.3827 -0.9239
vn -0.0000 0.9239 -0.3827
vn -0.0000 0.3827 -0.9239
vn -0.0000 -1.0000 -0.0000
vn 1.0000 -0.0000 -0.0000
vn -0.0000 -0.0000 -1.0000
vn -0.0000 1.0000 -0.0000
vn -0.0000 -0.0000 1.0000
vn -1.0000 -0.0000 -0.0000
vn 0.2817 -0.8864 -0.3672
vn 0.3672 -0.2818 -0.8864
vn 0.8865 -0.3672 -0.2817
vn 0.2817 0.3672 -0.8865
vn 0.3672 0.8865 -0.2817
vn 0.8865 0.2818 -0.3672
vn 0.3672 -0.8865 0.2817
vn 0.8865 -0.2818 0.3672
vn 0.2817 -0.3672 0.8865
vn 0.2817 0.8864 0.3672
vn 0.3672 0.2818 0.8864
vn 0.8865 0.3672 0.2817
vn -0.3672 -0.8865 -0.2817
vn -0.8865 -0.2818 -0.3672
vn -0.2817 -0.3672 -0.8865
vn -0.2817 0.8864 -0.3672
vn -0.3672 0.2818 -0.8864
vn -0.8865 0.3672 -0.2817
vn -0.2817 -0.8864 0.3672
vn -0.3672 -0.2818 0.8864
vn -0.8865 -0.3672 0.2817
vn -0.3672 0.8865 0.2817
vn -0.8865 0.2818 0.3672
vn -0.2817 0.3672 0.8865
s 0
g race_gantry_lod1_lights_M_red
usemtl M_red
f 169/14/235 173/10/235 175/7/235
f 169/14/259 175/7/259 186/6/259
f 169/14/259 186/6/259 183/13/259
f 169/14/289 172/15/289 173/10/289
f 170/94/236 173/81/236 172/58/236
f 170/94/290 174/95/290 173/81/290
f 171/84/237 173/42/237 174/83/237
f 171/84/284 178/123/284 192/124/284
f 171/84/284 192/124/284 184/85/284
f 171/84/291 175/43/291 173/42/291
f 175/43/260 171/84/260 184/85/260
f 175/43/260 184/85/260 186/44/260
f 176/133/238 180/179/238 182/134/238
f 176/133/261 174/95/261 170/94/261
f 176/133/261 182/134/261 174/95/261
f 176/133/292 179/177/292 180/179/292
f 177/204/239 180/212/239 179/205/239
f 177/204/281 179/205/281 207/181/281
f 177/204/281 207/181/281 204/185/281
f 177/204/293 181/211/293 180/212/293
f 178/123/240 180/136/240 181/161/240
f 178/123/294 182/122/294 180/136/294
f 179/177/282 176/133/282 205/132/282
f 179/177/282 205/132/282 207/181/282
f 182/122/262 171/84/262 174/83/262
f 182/122/262 178/123/262 171/84/262
f 183/13/241 187/5/241 189/12/241
f 183/13/267 189/12/267 214/36/267
f 183/13/267 214/36/267 211/32/267
f 183/13/295 186/6/295 187/5/295
f 184/85/242 187/79/242 186/44/242
f 184/85/296 188/86/296 187/79/296
f 185/87/243 187/79/243 188/86/243
f 185/87/265 188/86/265 195/125/265
f 185/87/265 195/125/265 191/126/265
f 185/87/297 189/47/297 187/79/297
f 188/86/266 184/85/266 192/124/266
f 188/86/266 192/124/266 195/125/266
f 189/47/268 185/87/268 212/88/268
f 189/47/268 212/88/268 214/36/268
f 190/203/244 194/207/244 196/210/244
f 190/203/263 181/211/263 177/204/263
f 190/203/263 196/210/263 181/211/263
f 190/203/286 177/204/286 204/185/286
f 190/203/286 204/185/286 218/184/286
f 190/203/298 193/202/298 194/207/298
f 191/126/245 194/138/245 193/165/245
f 191/126/287 212/88/287 185/87/287
f 191/126/287 220/127/287 212/88/287
f 191/126/299 195/125/299 194/138/299
f 192/124/246 194/138/246 195/125/246
f 192/124/300 196/162/300 194/138/300
f 196/162/264 178/123/264 181/161/264
f 196/162/264 192/124/264 178/123/264
f 197/33/247 201/76/247 203/37/247
f 197/33/279 172/15/279 169/14/279
f 197/33/279 203/37/279 172/15/279
f 197/33/301 200/53/301 201/76/301
f 198/91/248 201/76/248 200/53/248
f 198/91/302 202/92/302 201/76/302
f 199/93/249 201/76/249 202/92/249
f 199/93/277 202/92/277 209/131/277
f 199/93/277 209/131/277 205/132/277
f 199/93/303 203/37/303 201/76/303
f 202/92/278 198/91/278 206/130/278
f 202/92/278 206/130/278 209/131/278
f 203/37/280 170/94/280 172/58/280
f 203/37/280 199/93/280 170/94/280
f 204/185/250 208/155/250 210/171/250
f 204/185/275 210/171/275 221/170/275
f 204/185/275 221/170/275 218/184/275
f 204/185/304 207/181/304 208/155/304
f 205/132/251 208/155/251 207/181/251
f 205/132/285 170/94/285 199/93/285
f 205/132/285 176/133/285 170/94/285
f 205/132/305 209/131/305 208/155/305
f 206/130/252 208/155/252 209/131/252
f 206/130/306 210/171/306 208/155/306
f 210/171/276 206/130/276 219/129/276
f 210/171/276 219/129/276 221/170/276
f 211/32/253 215/62/253 217/52/253
f 211/32/273 200/53/273 197/33/273
f 211/32/273 217/52/273 200/53/273
f 211/32/283 169/14/283 183/13/283
f 211/32/283 197/33/283 169/14/283
f 211/32/307 214/36/307 215/62/307
f 212/88/254 215/62/254 214/36/254
f 212/88/308 216/89/308 215/62/308
f 213/90/255 215/62/255 216/89/255
f 213/90/271 216/89/271 223/128/271
f 213/90/271 223/128/271 219/129/271
f 213/90/288 206/130/288 198/91/288
f 213/90/288 219/129/288 206/130/288
f 213/90/309 217/52/309 215/62/309
f 216/89/272 212/88/272 220/127/272
f 216/89/272 220/127/272 223/128/272
f 217/52/274 198/91/274 200/53/274
f 217/52/274 213/90/274 198/91/274
f 218/184/256 222/141/256 224/180/256
f 218/184/269 193/202/269 190/203/269
f 218/184/269 224/180/269 193/202/269
f 218/184/310 221/170/310 222/141/310
f 219/129/257 222/141/257 221/170/257
f 219/129/311 223/128/311 222/141/311
f 220/127/258 222/141/258 223/128/258
f 220/127/312 224/180/312 222/141/312
f 224/180/270 191/126/270 193/165/270
f 224/180/270 220/127/270 191/126/270
