# Blender 4.0.2
# www.blender.org
mtllib banner.mtl
o banner
v -0.313648 -0.492186 -0.051461
v -0.313648 0.384444 -0.051461
v -0.299002 -0.492186 -0.044567
v -0.299002 0.384444 -0.044567
v -0.288281 -0.492186 -0.025731
v -0.288281 0.384444 -0.025731
v -0.284356 -0.492186 0.000000
v -0.284356 0.384444 0.000000
v -0.288281 -0.492186 0.025731
v -0.288281 0.384444 0.025731
v -0.299002 -0.492186 0.044567
v -0.299002 0.384444 0.044567
v -0.313648 -0.492186 0.051461
v -0.313648 0.384444 0.051461
v -0.328293 -0.492186 0.044567
v -0.328293 0.384444 0.044567
v -0.339015 -0.492186 0.025731
v -0.339015 0.384444 0.025731
v -0.342939 -0.492186 0.000000
v -0.342939 0.384444 0.000000
v -0.339015 -0.492186 -0.025731
v -0.339015 0.384444 -0.025731
v -0.328293 -0.492186 -0.044567
v -0.328293 0.384444 -0.044567
v -0.313648 0.356551 0.000000
v -0.275967 0.396199 0.033066
v -0.328040 0.396199 0.053503
v -0.360223 0.396199 0.000000
v -0.328040 0.396199 -0.053503
v -0.275967 0.396199 -0.033066
v -0.299255 0.460352 0.053503
v -0.351328 0.460352 0.033066
v -0.351328 0.460352 -0.033066
v -0.299255 0.460352 -0.053503
v -0.267072 0.460352 0.000000
v -0.313648 0.500000 0.000000
v -0.417794 0.367708 -0.000000
v 0.500000 0.367709 0.000000
v -0.417794 0.363274 -0.030728
v 0.500000 0.363274 -0.030728
v -0.417794 0.352567 -0.043456
v 0.500000 0.352567 -0.043456
v -0.417794 0.341860 -0.030728
v 0.500000 0.341860 -0.030728
v -0.417794 0.337425 -0.000000
v 0.500000 0.337425 0.000000
v -0.417794 0.341860 0.030728
v 0.500000 0.341860 0.030728
v -0.417794 0.352567 0.043456
v 0.500000 0.352567 0.043456
v -0.417794 0.363274 0.030728
v 0.500000 0.363274 0.030728
v -0.296778 -0.372801 0.000000
v 0.002645 -0.452495 0.000000
v -0.301719 -0.379758 -0.052561
v -0.002296 -0.459452 -0.052561
v -0.313648 -0.396554 -0.074333
v -0.014225 -0.476247 -0.074333
v -0.325576 -0.413349 -0.052561
v -0.026154 -0.493043 -0.052561
v -0.330518 -0.420306 0.000000
v -0.031095 -0.500000 -0.000000
v -0.325576 -0.413349 0.052561
v -0.026154 -0.493043 0.052561
v -0.313648 -0.396554 0.074333
v -0.014225 -0.476247 0.074333
v -0.301719 -0.379758 0.052561
v -0.002296 -0.459452 0.052561
v -0.322083 -0.372801 -0.025668
v -0.471794 -0.452495 -0.481237
v -0.345521 -0.379758 0.008131
v -0.495232 -0.459452 -0.447439
v -0.350289 -0.396554 0.037166
v -0.500000 -0.476247 -0.418403
v -0.333592 -0.413349 0.044430
v -0.483304 -0.493043 -0.411139
v -0.305213 -0.420306 0.025668
v -0.454924 -0.500000 -0.429902
v -0.281774 -0.413349 -0.008131
v -0.431485 -0.493043 -0.463701
v -0.277006 -0.396554 -0.037166
v -0.426717 -0.476247 -0.492736
v -0.293703 -0.379758 -0.044430
v -0.443414 -0.459452 -0.500000
v -0.322083 -0.372801 0.025668
v -0.471794 -0.452495 0.481237
v -0.293703 -0.379758 0.044430
v -0.443414 -0.459452 0.500000
v -0.277006 -0.396554 0.037166
v -0.426717 -0.476247 0.492736
v -0.281774 -0.413349 0.008131
v -0.431485 -0.493043 0.463701
v -0.305213 -0.420306 -0.025668
v -0.454924 -0.500000 0.429902
v -0.333592 -0.413349 -0.044430
v -0.483304 -0.493043 0.411139
v -0.350289 -0.396554 -0.037166
v -0.500000 -0.476247 0.418403
v -0.345521 -0.379758 -0.008131
v -0.495232 -0.459452 0.447439
v -0.274593 0.324674 0.000000
v -0.186719 0.324674 -0.077323
v -0.098845 0.324674 -0.102064
v -0.010971 0.324674 -0.057398
v 0.076903 0.324674 0.026301
v 0.164777 0.324674 0.092114
v 0.252651 0.324674 0.095287
v 0.340525 0.324674 0.033661
v 0.428399 0.324674 -0.050855
v -0.274593 0.248965 -0.033351
v -0.186719 0.248965 -0.095162
v -0.098845 0.248965 -0.092260
v -0.010971 0.248965 -0.026618
v 0.076903 0.248965 0.057126
v 0.164777 0.248965 0.102022
v 0.252651 0.248965 0.077539
v 0.340525 0.248965 0.000328
v 0.428399 0.248965 -0.077107
v -0.274593 0.173256 -0.063103
v -0.186719 0.173256 -0.102732
v -0.098845 0.173256 -0.072499
v -0.010971 0.173256 0.007035
v 0.076903 0.173256 0.081786
v 0.164777 0.173256 0.100919
v 0.252651 0.173256 0.051424
v 0.340525 0.173256 -0.033041
v 0.428399 0.173256 -0.095037
v -0.274593 0.097547 -0.086046
v -0.186719 0.097547 -0.099215
v -0.098845 0.097547 -0.044915
v -0.010971 0.097547 0.039929
v 0.076903 0.097547 0.097620
v 0.164777 0.097547 0.088926
v 0.252651 0.097547 0.019760
v 0.340525 0.097547 -0.062844
v 0.428399 0.097547 -0.102712
v -0.274593 0.021838 -0.099702
v -0.186719 0.021838 -0.084992
v -0.098845 0.021838 -0.012484
v -0.010971 0.021838 0.068513
v 0.076903 0.021838 0.102919
v 0.164777 0.021838 0.067336
v 0.252651 0.021838 -0.014037
v 0.340525 0.021838 -0.085865
v 0.428399 0.021838 -0.099302
v -0.274593 -0.053871 -0.102599
v -0.186719 -0.053871 -0.061596
v -0.098845 -0.053871 0.021295
v -0.010971 -0.053871 0.089704
v 0.076903 -0.053871 0.097112
v 0.164777 -0.053871 0.038480
v 0.252651 -0.053871 -0.046319
v 0.340525 -0.053871 -0.099620
v 0.428399 -0.053871 -0.085176
v -0.274593 -0.129580 -0.094425
v -0.186719 -0.105672 -0.031553
v -0.098845 -0.081764 0.052775
v -0.010971 -0.057856 0.101215
v 0.076903 -0.033948 0.080825
v 0.164777 -0.057856 0.005471
v 0.252651 -0.081764 -0.073603
v 0.340525 -0.105672 -0.102625
v 0.428399 -0.129580 -0.061858
v -0.271402 0.324163 0.012440
v -0.184796 0.324366 -0.064052
v -0.099899 0.324843 -0.088476
v -0.014118 0.325178 -0.044922
v 0.073712 0.325185 0.038740
v 0.163699 0.324846 0.105697
v 0.254531 0.324373 0.108578
v 0.343911 0.324132 0.045929
v 0.432001 0.324098 -0.038791
v -0.271765 0.248512 -0.020625
v -0.185360 0.248748 -0.081663
v -0.100422 0.249217 -0.078839
v -0.014273 0.249493 -0.014275
v 0.074019 0.249426 0.069810
v 0.164304 0.249041 0.115718
v 0.254963 0.248595 0.090604
v 0.343930 0.248420 0.012579
v 0.431794 0.248422 -0.064846
v -0.272704 0.172954 -0.049816
v -0.186500 0.173221 -0.089015
v -0.101331 0.173654 -0.059541
v -0.014369 0.173800 0.019292
v 0.074762 0.173599 0.094946
v 0.165481 0.173143 0.114582
v 0.255644 0.172777 0.064025
v 0.343770 0.172737 -0.020647
v 0.431215 0.172805 -0.082303
v -0.273949 0.097444 -0.072373
v -0.187670 0.097699 -0.085602
v -0.101943 0.098043 -0.032399
v -0.014137 0.098054 0.052389
v 0.075771 0.097728 0.111188
v 0.166564 0.097261 0.102260
v 0.256001 0.097011 0.032061
v 0.343281 0.097106 -0.050066
v 0.430287 0.097245 -0.089424
v -0.275309 0.021953 -0.086041
v -0.188713 0.022157 -0.071755
v -0.102228 0.022379 -0.000213
v -0.013577 0.022255 0.081394
v 0.076931 0.021834 0.116642
v 0.167417 0.021416 0.080195
v 0.256029 0.021297 -0.001761
v 0.342477 0.021526 -0.072608
v 0.429054 0.021733 -0.085631
v -0.276607 -0.053525 -0.089378
v -0.189601 -0.053291 -0.048951
v -0.102369 -0.052873 0.033202
v -0.014684 -0.052775 0.101361
v 0.074718 -0.057978 0.103000
v 0.166480 -0.056878 0.048722
v 0.255404 -0.054983 -0.033880
v 0.341391 -0.054079 -0.085995
v 0.427740 -0.053737 -0.071507
v -0.277223 -0.129112 -0.081573
v -0.189898 -0.104952 -0.019190
v -0.102444 -0.080346 0.064254
v -0.017053 -0.055026 0.104074
v 0.074928 -0.036060 0.069012
v 0.165577 -0.061975 0.012299
v 0.254690 -0.083057 -0.060887
v 0.340375 -0.105734 -0.088906
v 0.427118 -0.129319 -0.048342
v 0.070394 0.049731 0.152668
v 0.213596 0.149348 0.152668
v 0.070394 0.268888 0.152668
v -0.072808 0.149348 0.152668
v 0.070394 0.049731 0.121791
v 0.213596 0.149348 0.121791
v 0.070394 0.268888 0.121791
v -0.072808 0.149348 0.121791
v -0.206246 0.340613 0.000000
v -0.209826 0.340613 0.010894
v -0.216986 0.340613 0.010894
v -0.220566 0.340613 0.000000
v -0.216986 0.340613 -0.010894
v -0.209826 0.340613 -0.010894
v -0.208317 0.348616 0.000000
v -0.211722 0.347939 0.010894
v -0.218531 0.346585 0.010894
v -0.221936 0.345907 0.000000
v -0.218531 0.346585 -0.010894
v -0.211722 0.347939 -0.010894
v -0.214327 0.355837 0.000000
v -0.217223 0.354548 0.010894
v -0.223016 0.351972 0.010894
v -0.225912 0.350684 0.000000
v -0.223016 0.351972 -0.010894
v -0.217223 0.354548 -0.010894
v -0.223687 0.361567 0.000000
v -0.225791 0.359793 0.010894
v -0.230000 0.356247 0.010894
v -0.232104 0.354474 0.000000
v -0.230000 0.356247 -0.010894
v -0.225791 0.359793 -0.010894
v -0.235481 0.365245 0.000000
v -0.236588 0.363161 0.010894
v -0.238800 0.358992 0.010894
v -0.239907 0.356908 0.000000
v -0.238800 0.358992 -0.010894
v -0.236588 0.363161 -0.010894
v -0.248556 0.366513 0.000000
v -0.248556 0.364321 0.010894
v -0.248556 0.359938 0.010894
v -0.248556 0.357747 0.000000
v -0.248556 0.359938 -0.010894
v -0.248556 0.364321 -0.010894
v -0.261630 0.365245 0.000000
v -0.260524 0.363161 0.010894
v -0.258311 0.358992 0.010894
v -0.257205 0.356908 0.000000
v -0.258311 0.358992 -0.010894
v -0.260524 0.363161 -0.010894
v -0.273425 0.361567 0.000000
v -0.271320 0.359793 0.010894
v -0.267112 0.356247 0.010894
v -0.265008 0.354474 0.000000
v -0.267112 0.356247 -0.010894
v -0.271320 0.359793 -0.010894
v -0.282785 0.355837 0.000000
v -0.279889 0.354548 0.010894
v -0.274096 0.351972 0.010894
v -0.271200 0.350684 0.000000
v -0.274096 0.351972 -0.010894
v -0.279889 0.354548 -0.010894
v -0.288795 0.348616 0.000000
v -0.285390 0.347939 0.010894
v -0.278580 0.346585 0.010894
v -0.275175 0.345907 0.000000
v -0.278580 0.346585 -0.010894
v -0.285390 0.347939 -0.010894
v -0.290865 0.340613 0.000000
v -0.287285 0.340613 0.010894
v -0.280125 0.340613 0.010894
v -0.276545 0.340613 0.000000
v -0.280125 0.340613 -0.010894
v -0.287285 0.340613 -0.010894
v -0.288795 0.332609 0.000000
v -0.285390 0.333286 0.010894
v -0.278580 0.334641 0.010894
v -0.275175 0.335318 0.000000
v -0.278580 0.334641 -0.010894
v -0.285390 0.333286 -0.010894
v -0.282785 0.325389 0.000000
v -0.279889 0.326677 0.010894
v -0.274096 0.329253 0.010894
v -0.271200 0.330541 0.000000
v -0.274096 0.329253 -0.010894
v -0.279889 0.326677 -0.010894
v -0.273425 0.319659 0.000000
v -0.271320 0.321432 0.010894
v -0.267112 0.324978 0.010894
v -0.265008 0.326751 0.000000
v -0.267112 0.324978 -0.010894
v -0.271320 0.321432 -0.010894
v -0.261630 0.315980 0.000000
v -0.260524 0.318064 0.010894
v -0.258311 0.322233 0.010894
v -0.257205 0.324317 0.000000
v -0.258311 0.322233 -0.010894
v -0.260524 0.318064 -0.010894
v -0.248556 0.314712 0.000000
v -0.248556 0.316904 0.010894
v -0.248556 0.321287 0.010894
v -0.248556 0.323478 0.000000
v -0.248556 0.321287 -0.010894
v -0.248556 0.316904 -0.010894
v -0.235481 0.315980 0.000000
v -0.236588 0.318064 0.010894
v -0.238800 0.322233 0.010894
v -0.239907 0.324317 0.000000
v -0.238800 0.322233 -0.010894
v -0.236588 0.318064 -0.010894
v -0.223687 0.319659 0.000000
v -0.225791 0.321432 0.010894
v -0.230000 0.324978 0.010894
v -0.232104 0.326751 0.000000
v -0.230000 0.324978 -0.010894
v -0.225791 0.321432 -0.010894
v -0.214327 0.325389 0.000000
v -0.217223 0.326677 0.010894
v -0.223016 0.329253 0.010894
v -0.225912 0.330541 0.000000
v -0.223016 0.329253 -0.010894
v -0.217223 0.326677 -0.010894
v -0.208317 0.332609 0.000000
v -0.211722 0.333286 0.010894
v -0.218531 0.334641 0.010894
v -0.221936 0.335318 0.000000
v -0.218531 0.334641 -0.010894
v -0.211722 0.333286 -0.010894
v 0.470709 0.340613 0.000000
v 0.467129 0.340613 0.010894
v 0.459969 0.340613 0.010894
v 0.456389 0.340613 0.000000
v 0.459969 0.340613 -0.010894
v 0.467129 0.340613 -0.010894
v 0.468638 0.348616 0.000000
v 0.465233 0.347939 0.010894
v 0.458423 0.346585 0.010894
v 0.455019 0.345907 0.000000
v 0.458423 0.346585 -0.010894
v 0.465233 0.347939 -0.010894
v 0.462628 0.355837 0.000000
v 0.459732 0.354548 0.010894
v 0.453939 0.351972 0.010894
v 0.451043 0.350684 0.000000
v 0.453939 0.351972 -0.010894
v 0.459732 0.354548 -0.010894
v 0.453268 0.361567 0.000000
v 0.451164 0.359793 0.010894
v 0.446955 0.356247 0.010894
v 0.444851 0.354474 0.000000
v 0.446955 0.356247 -0.010894
v 0.451164 0.359793 -0.010894
v 0.441473 0.365245 0.000000
v 0.440367 0.363161 0.010894
v 0.438155 0.358992 0.010894
v 0.437048 0.356908 0.000000
v 0.438155 0.358992 -0.010894
v 0.440367 0.363161 -0.010894
v 0.428399 0.366513 0.000000
v 0.428399 0.364321 0.010894
v 0.428399 0.359938 0.010894
v 0.428399 0.357747 0.000000
v 0.428399 0.359938 -0.010894
v 0.428399 0.364321 -0.010894
v 0.415325 0.365245 0.000000
v 0.416431 0.363161 0.010894
v 0.418644 0.358992 0.010894
v 0.419750 0.356908 0.000000
v 0.418644 0.358992 -0.010894
v 0.416431 0.363161 -0.010894
v 0.403530 0.361567 0.000000
v 0.405634 0.359793 0.010894
v 0.409843 0.356247 0.010894
v 0.411947 0.354474 0.000000
v 0.409843 0.356247 -0.010894
v 0.405634 0.359793 -0.010894
v 0.394170 0.355837 0.000000
v 0.397066 0.354548 0.010894
v 0.402859 0.351972 0.010894
v 0.405755 0.350684 0.000000
v 0.402859 0.351972 -0.010894
v 0.397066 0.354548 -0.010894
v 0.388160 0.348616 0.000000
v 0.391565 0.347939 0.010894
v 0.398375 0.346585 0.010894
v 0.401779 0.345907 0.000000
v 0.398375 0.346585 -0.010894
v 0.391565 0.347939 -0.010894
v 0.386089 0.340613 0.000000
v 0.389669 0.340613 0.010894
v 0.396830 0.340613 0.010894
v 0.400410 0.340613 0.000000
v 0.396830 0.340613 -0.010894
v 0.389669 0.340613 -0.010894
v 0.388160 0.332609 0.000000
v 0.391565 0.333286 0.010894
v 0.398375 0.334641 0.010894
v 0.401779 0.335318 0.000000
v 0.398375 0.334641 -0.010894
v 0.391565 0.333286 -0.010894
v 0.394170 0.325389 0.000000
v 0.397066 0.326677 0.010894
v 0.402859 0.329253 0.010894
v 0.405755 0.330541 0.000000
v 0.402859 0.329253 -0.010894
v 0.397066 0.326677 -0.010894
v 0.403530 0.319659 0.000000
v 0.405634 0.321432 0.010894
v 0.409843 0.324978 0.010894
v 0.411947 0.326751 0.000000
v 0.409843 0.324978 -0.010894
v 0.405634 0.321432 -0.010894
v 0.415325 0.315980 0.000000
v 0.416431 0.318064 0.010894
v 0.418644 0.322233 0.010894
v 0.419750 0.324317 0.000000
v 0.418644 0.322233 -0.010894
v 0.416431 0.318064 -0.010894
v 0.428399 0.314712 0.000000
v 0.428399 0.316904 0.010894
v 0.428399 0.321287 0.010894
v 0.428399 0.323478 0.000000
v 0.428399 0.321287 -0.010894
v 0.428399 0.316904 -0.010894
v 0.441473 0.315980 0.000000
v 0.440367 0.318064 0.010894
v 0.438155 0.322233 0.010894
v 0.437048 0.324317 0.000000
v 0.438155 0.322233 -0.010894
v 0.440367 0.318064 -0.010894
v 0.453268 0.319659 0.000000
v 0.451164 0.321432 0.010894
v 0.446955 0.324978 0.010894
v 0.444851 0.326751 0.000000
v 0.446955 0.324978 -0.010894
v 0.451164 0.321432 -0.010894
v 0.462628 0.325389 0.000000
v 0.459732 0.326677 0.010894
v 0.453939 0.329253 0.010894
v 0.451043 0.330541 0.000000
v 0.453939 0.329253 -0.010894
v 0.459732 0.326677 -0.010894
v 0.468638 0.332609 0.000000
v 0.465233 0.333286 0.010894
v 0.458423 0.334641 0.010894
v 0.455019 0.335318 0.000000
v 0.458423 0.334641 -0.010894
v 0.465233 0.333286 -0.010894
vn -0.0000 0.6226 -0.7825
vn 0.5190 -0.6450 -0.5609
vn -0.0000 -0.6226 -0.7825
vn 0.5190 0.6450 -0.5609
vn 0.7027 -0.6683 -0.2441
vn 0.7027 0.6683 -0.2441
vn 0.7381 -0.6747 -0.0000
vn 0.7381 0.6747 -0.0000
vn 0.7026 -0.6683 0.2441
vn 0.7027 0.6683 0.2441
vn 0.5190 -0.6450 0.5609
vn 0.5190 0.6450 0.5609
vn -0.0000 -0.6226 0.7825
vn -0.0000 0.6226 0.7825
vn -0.5190 -0.6450 0.5609
vn -0.5190 0.6450 0.5609
vn -0.7026 -0.6683 0.2441
vn -0.7027 0.6683 0.2441
vn -0.7381 -0.6747 -0.0000
vn -0.7381 0.6747 -0.0000
vn -0.7027 -0.6683 -0.2441
vn -0.0000 1.0000 -0.0000
vn -0.7027 0.6683 -0.2441
vn -0.5190 -0.6450 -0.5609
vn -0.5190 0.6450 -0.5609
vn -0.0000 -1.0000 -0.0000
vn 0.2429 -0.7470 0.6189
vn 0.7249 -0.6889 -0.0000
vn -0.6039 -0.7094 0.3633
vn -0.6039 -0.7094 -0.3633
vn 0.2429 -0.7470 -0.6189
vn 0.9905 -0.1373 -0.0000
vn 0.3605 -0.1618 0.9186
vn -0.8478 -0.1453 0.5100
vn -0.8478 -0.1453 -0.5100
vn 0.3605 -0.1618 -0.9186
vn 0.8478 0.1453 0.5100
vn -0.3605 0.1618 0.9186
vn -0.9905 0.1373 -0.0000
vn -0.3605 0.1618 -0.9186
vn 0.8478 0.1453 -0.5100
vn 0.6039 0.7094 0.3633
vn -0.2429 0.7470 0.6189
vn -0.7249 0.6889 -0.0000
vn -0.2429 0.7470 -0.6189
vn 0.6039 0.7094 -0.3633
vn 0.6763 0.7366 -0.0000
vn -0.6502 0.6933 -0.3107
vn -0.6763 0.7366 -0.0000
vn 0.6502 0.6933 -0.3107
vn -0.5688 -0.0000 -0.8224
vn 0.5688 -0.0000 -0.8224
vn -0.6502 -0.6933 -0.3107
vn 0.6763 -0.7366 -0.0000
vn -0.6763 -0.7366 -0.0000
vn -0.6502 -0.6933 0.3107
vn 0.6502 -0.6933 0.3107
vn -0.5688 -0.0000 0.8224
vn 1.0000 -0.0000 -0.0000
vn 0.5688 -0.0000 0.8224
vn -0.6502 0.6933 0.3107
vn 0.6502 0.6933 0.3107
vn -1.0000 -0.0000 -0.0000
vn -0.2964 0.9551 -0.0000
vn 0.8730 0.3312 -0.3581
vn -0.2874 0.9074 -0.3068
vn 0.5259 -0.2083 -0.8246
vn -0.5259 0.2083 -0.8246
vn 0.2874 -0.9074 -0.3068
vn -0.8730 -0.3312 -0.3581
vn 0.2964 -0.9551 -0.0000
vn -0.9249 -0.3801 -0.0000
vn -0.8730 -0.3312 0.3581
vn 0.2874 -0.9074 0.3068
vn -0.5259 0.2083 0.8246
vn 0.8153 -0.5791 -0.0000
vn 0.5259 -0.2083 0.8246
vn -0.2874 0.9074 0.3068
vn 0.8730 0.3312 0.3581
vn -0.8153 0.5791 -0.0000
vn 0.1306 0.9758 0.1754
vn -0.8914 0.2027 -0.4053
vn -0.2137 0.9040 0.3703
vn -0.9704 -0.2355 -0.0536
vn -0.4708 0.3472 0.8110
vn -0.5168 -0.8561 0.0003
vn 0.0317 -0.2404 0.9702
vn 0.6031 -0.3602 0.7117
vn -0.1306 -0.9758 -0.1754
vn 0.8914 -0.2027 0.4053
vn 0.2137 -0.9040 -0.3703
vn 0.9704 0.2355 0.0536
vn -0.5006 -0.7112 -0.4936
vn 0.4708 -0.3472 -0.8110
vn 0.5168 0.8561 -0.0003
vn -0.6031 0.3602 -0.7117
vn 0.5006 0.7112 0.4936
vn -0.6031 0.3602 0.7117
vn 0.5168 0.8561 0.0003
vn 0.1306 0.9758 -0.1754
vn 0.4708 -0.3472 0.8110
vn 0.9704 0.2355 -0.0536
vn 0.2137 -0.9040 0.3703
vn 0.8914 -0.2027 -0.4052
vn -0.1306 -0.9758 0.1754
vn 0.6031 -0.3602 -0.7117
vn -0.5168 -0.8561 -0.0003
vn 0.0317 -0.2404 -0.9702
vn -0.4708 0.3472 -0.8110
vn -0.5006 -0.7112 0.4936
vn -0.9704 -0.2355 0.0536
vn -0.2137 0.9040 -0.3703
vn -0.8914 0.2027 0.4053
vn 0.5006 0.7112 -0.4936
vn -0.6272 0.3140 -0.7128
vn -0.2643 0.2212 -0.9387
vn 0.4501 -0.1147 -0.8856
vn 0.6616 -0.2824 -0.6946
vn 0.5700 -0.3098 -0.7610
vn 0.0358 -0.1297 -0.9909
vn -0.5639 0.1885 -0.8041
vn -0.6607 0.3025 -0.6870
vn -0.5477 0.3060 -0.7787
vn 0.0328 0.0994 -0.9945
vn 0.5858 -0.2047 -0.7842
vn 0.6567 -0.3063 -0.6891
vn 0.4370 -0.2786 -0.8553
vn -0.2684 0.0140 -0.9632
vn -0.6390 0.2508 -0.7272
vn -0.6277 0.3140 -0.7123
vn -0.3963 0.2663 -0.8787
vn 0.3250 -0.0439 -0.9447
vn 0.6478 -0.2608 -0.7158
vn 0.6151 -0.3142 -0.7231
vn 0.2084 -0.2002 -0.9573
vn -0.4861 0.1367 -0.8631
vn -0.6635 0.2887 -0.6903
vn -0.5488 0.3062 -0.7779
vn -0.1459 0.1756 -0.9736
vn 0.5191 -0.1578 -0.8400
vn 0.6638 -0.2945 -0.6875
vn 0.5234 -0.3010 -0.7972
vn -0.0982 -0.0695 -0.9927
vn -0.6035 0.2187 -0.7668
vn -0.6513 0.3093 -0.6929
vn -0.3982 0.2669 -0.8776
vn 0.1650 0.0377 -0.9856
vn 0.6191 -0.2319 -0.7503
vn 0.6440 -0.3117 -0.6987
vn 0.3528 -0.2522 -0.9011
vn -0.3744 0.0709 -0.9246
vn -0.6543 0.2693 -0.7066
vn -0.6010 0.3135 -0.7352
vn -0.1488 0.1768 -0.9729
vn 0.4208 -0.0974 -0.9019
vn 0.6322 -0.3887 -0.6702
vn 0.4587 -0.6651 -0.5893
vn 0.1783 -0.9298 -0.3219
vn 0.4590 0.5623 0.6879
vn -0.1149 0.9862 -0.1191
vn -0.3978 0.6415 -0.6559
vn 0.1619 0.0571 -0.9851
vn 0.6289 -0.3139 0.7113
vn 0.2739 0.1197 0.9543
vn -0.4500 0.1159 0.8855
vn -0.6616 0.2826 0.6946
vn -0.5667 0.3107 0.7631
vn -0.0308 0.1307 0.9909
vn 0.5634 -0.1876 0.8046
vn 0.6607 -0.3025 0.6871
vn 0.5497 -0.3070 0.7769
vn -0.0336 0.2477 0.9683
vn -0.5872 0.2069 0.7826
vn -0.6563 0.3066 0.6894
vn -0.4342 0.2796 0.8563
vn 0.2669 -0.0103 0.9637
vn 0.6382 -0.2496 0.7283
vn 0.6277 -0.3140 0.7123
vn 0.3994 -0.2684 0.8766
vn -0.3269 0.0477 0.9439
vn -0.6484 0.2618 0.7148
vn -0.6139 0.3145 0.7241
vn -0.2062 0.2022 0.9574
vn 0.4843 -0.1335 0.8647
vn 0.6634 -0.2882 0.6906
vn 0.5487 -0.3061 0.7779
vn 0.1487 0.1763 0.9730
vn -0.5209 0.1608 0.8383
vn -0.6638 0.2949 0.6874
vn -0.5211 0.3017 0.7984
vn 0.0980 0.0728 0.9925
vn 0.6024 -0.2167 0.7682
vn 0.6519 -0.3091 0.6925
vn 0.3976 -0.2661 0.8781
vn -0.1625 -0.0408 0.9859
vn -0.6201 0.2337 0.7489
vn -0.6433 0.3117 0.6993
vn -0.3508 0.2457 0.9037
vn 0.3677 -0.1666 0.9149
vn 0.6496 -0.2903 0.7027
vn 0.6023 -0.3140 0.7339
vn 0.1459 0.1795 0.9729
vn -0.4196 0.0966 0.9025
vn -0.6325 0.3894 0.6696
vn -0.4581 0.6663 0.5884
vn -0.0389 -0.8397 -0.5417
vn -0.2972 -0.8016 -0.5188
vn 0.1450 -0.9804 0.1336
vn 0.4033 -0.6397 0.6543
vn -0.1650 -0.0522 0.9849
vn 0.0181 0.9996 0.0206
vn -0.0036 0.9999 -0.0127
vn 0.0147 0.9992 -0.0366
vn 0.0313 0.9990 -0.0330
vn 0.0125 0.9999 -0.0117
vn 0.0045 0.9997 0.0220
vn 0.0259 0.9990 0.0370
vn 0.0357 0.9987 0.0371
vn -0.9646 -0.1017 0.2432
vn 0.9608 0.0908 -0.2620
vn -0.9743 -0.0706 0.2139
vn 0.9755 0.0507 -0.2140
vn -0.9898 -0.0255 0.1401
vn 0.9900 0.0142 -0.1403
vn 0.9987 -0.0187 -0.0480
vn -0.9984 0.0195 -0.0525
vn 0.9988 -0.0084 0.0482
vn -0.2720 -0.9608 -0.0541
vn -0.9885 -0.0162 -0.1502
vn -0.9988 0.0095 0.0471
vn -0.2594 -0.9657 -0.0072
vn 0.2092 -0.9747 0.0783
vn 0.1700 -0.9803 0.1008
vn 0.2006 -0.9626 0.1818
vn 0.9954 0.0206 0.0939
vn -0.5089 -0.7621 -0.4002
vn 0.3753 -0.1215 0.9189
vn 0.1525 0.9681 -0.1986
vn -0.0000 -0.0000 1.0000
vn -0.0000 -0.0000 -1.0000
vn 0.5711 -0.8209 -0.0000
vn 0.6408 0.7677 -0.0000
vn -0.6408 0.7677 -0.0000
vn -0.5711 -0.8209 -0.0000
vn 0.8948 0.4464 -0.0000
vn 0.6419 -0.0000 0.7668
vn 0.5692 0.3007 0.7652
vn -0.5175 -0.0000 0.8557
vn -0.4786 -0.2388 0.8449
vn -0.4786 -0.2388 -0.8449
vn -0.5175 -0.0000 -0.8557
vn 0.5692 0.3007 -0.7652
vn 0.6419 -0.0000 -0.7668
vn 0.6630 0.7486 -0.0000
vn 0.4175 0.4956 0.7617
vn -0.3759 -0.4244 0.8238
vn -0.8842 -0.4671 -0.0000
vn -0.3759 -0.4244 -0.8238
vn 0.4175 0.4956 -0.7617
vn 0.4204 0.9073 -0.0000
vn 0.2643 0.5961 0.7581
vn -0.2487 -0.5367 0.8063
vn -0.6443 -0.7648 -0.0000
vn -0.2487 -0.5367 -0.8063
vn 0.2643 0.5961 -0.7581
vn 0.2020 0.9794 -0.0000
vn 0.1272 0.6424 0.7558
vn -0.1222 -0.5924 0.7963
vn -0.4053 -0.9142 -0.0000
vn -0.1222 -0.5924 -0.7963
vn 0.1272 0.6424 -0.7558
vn -0.0000 0.6558 0.7550
vn -0.0000 -0.6091 0.7931
vn -0.1942 -0.9810 -0.0000
vn -0.0000 -0.6091 -0.7931
vn -0.0000 0.6558 -0.7550
vn -0.1272 0.6424 0.7558
vn 0.1222 -0.5924 0.7963
vn 0.1942 -0.9810 -0.0000
vn 0.1222 -0.5924 -0.7963
vn -0.1272 0.6424 -0.7558
vn -0.2020 0.9794 -0.0000
vn -0.2643 0.5961 0.7581
vn 0.2487 -0.5367 0.8063
vn 0.4053 -0.9142 -0.0000
vn 0.2487 -0.5367 -0.8063
vn -0.2643 0.5961 -0.7581
vn -0.4204 0.9073 -0.0000
vn -0.4175 0.4956 0.7617
vn 0.3759 -0.4244 0.8238
vn 0.6443 -0.7648 -0.0000
vn 0.3759 -0.4244 -0.8238
vn -0.4175 0.4956 -0.7617
vn -0.6630 0.7486 -0.0000
vn -0.5692 0.3007 0.7652
vn 0.4786 -0.2388 0.8449
vn 0.8842 -0.4671 -0.0000
vn 0.4786 -0.2388 -0.8449
vn -0.5692 0.3007 -0.7652
vn -0.8948 0.4464 -0.0000
vn -0.6419 -0.0000 0.7668
vn 0.5175 -0.0000 0.8557
vn 0.5175 -0.0000 -0.8557
vn -0.6419 -0.0000 -0.7668
vn -0.8948 -0.4464 -0.0000
vn -0.5692 -0.3007 0.7652
vn 0.4786 0.2388 0.8449
vn 0.4786 0.2388 -0.8449
vn -0.5692 -0.3007 -0.7652
vn -0.6630 -0.7486 -0.0000
vn -0.4175 -0.4956 0.7617
vn 0.3759 0.4244 0.8238
vn 0.8842 0.4671 -0.0000
vn 0.3759 0.4244 -0.8238
vn -0.4175 -0.4956 -0.7617
vn -0.4204 -0.9073 -0.0000
vn -0.2643 -0.5961 0.7581
vn 0.2487 0.5367 0.8063
vn 0.6443 0.7648 -0.0000
vn 0.2487 0.5367 -0.8063
vn -0.2643 -0.5961 -0.7581
vn -0.2020 -0.9794 -0.0000
vn -0.1272 -0.6424 0.7558
vn 0.1222 0.5924 0.7963
vn 0.4053 0.9142 -0.0000
vn 0.1222 0.5924 -0.7963
vn -0.1272 -0.6424 -0.7558
vn -0.0000 -0.6558 0.7550
vn -0.0000 0.6091 0.7931
vn 0.1942 0.9810 -0.0000
vn -0.0000 0.6091 -0.7931
vn -0.0000 -0.6558 -0.7550
vn 0.1272 -0.6424 0.7558
vn -0.1222 0.5924 0.7963
vn -0.1942 0.9810 -0.0000
vn -0.1222 0.5924 -0.7963
vn 0.1272 -0.6424 -0.7558
vn 0.2020 -0.9794 -0.0000
vn 0.2643 -0.5961 0.7581
vn -0.2487 0.5367 0.8063
vn -0.4053 0.9142 -0.0000
vn -0.2487 0.5367 -0.8063
vn 0.2643 -0.5961 -0.7581
vn 0.4204 -0.9073 -0.0000
vn 0.4175 -0.4956 0.7617
vn -0.3759 0.4244 0.8238
vn -0.6443 0.7648 -0.0000
vn -0.3759 0.4244 -0.8238
vn 0.4175 -0.4956 -0.7617
vn 0.6630 -0.7486 -0.0000
vn 0.5692 -0.3007 0.7652
vn -0.4787 0.2388 0.8449
vn -0.8842 0.4671 -0.0000
vn -0.4787 0.2388 -0.8449
vn 0.5692 -0.3007 -0.7652
vn 0.8948 -0.4464 -0.0000
vn 0.6502 -0.6933 -0.3107
vn 0.9249 0.3801 -0.0000
vn -0.8153 0.5790 -0.0000
vn -0.0317 0.2404 -0.9702
vn -0.0317 0.2404 0.9702
vn -0.5649 0.1892 -0.8031
vn 0.0327 -0.1284 -0.9912
vn 0.5690 -0.3097 -0.7618
vn 0.6617 -0.2827 -0.6944
vn 0.4519 -0.1157 -0.8845
vn -0.2618 0.2203 -0.9397
vn -0.6267 0.3140 -0.7132
vn -0.6398 0.2518 -0.7261
vn -0.4094 0.0908 -0.9078
vn 0.3159 -0.2396 -0.9181
vn 0.6373 -0.3130 -0.7042
vn 0.6289 -0.2408 -0.7393
vn 0.2127 0.0142 -0.9770
vn -0.4700 0.2878 -0.8344
vn -0.6604 0.3028 -0.6871
vn -0.5660 0.1900 -0.8022
vn -0.1481 -0.0459 -0.9879
vn 0.5021 -0.2961 -0.8126
vn 0.6630 -0.2983 -0.6866
vn 0.5406 -0.1722 -0.8235
vn -0.0973 0.1557 -0.9830
vn -0.5876 0.3122 -0.7465
vn -0.6584 0.2757 -0.7004
vn -0.4114 0.0919 -0.9068
vn 0.1623 -0.1822 -0.9698
vn 0.6043 -0.3137 -0.7324
vn 0.6531 -0.2675 -0.7085
vn 0.3638 -0.0650 -0.9292
vn -0.3629 0.2555 -0.8961
vn -0.6457 0.3113 -0.6973
vn -0.6160 0.2292 -0.7537
vn -0.1510 -0.0445 -0.9875
vn 0.4072 -0.2697 -0.8726
vn 0.6527 -0.3087 -0.6919
vn 0.5998 -0.2157 -0.7705
vn 0.0838 0.0762 -0.9936
vn -0.5291 0.3022 -0.7929
vn -0.6639 0.2933 -0.6879
vn -0.5125 0.1535 -0.8449
vn 0.1595 -0.1811 -0.9704
vn 0.6028 -0.4003 -0.6902
vn 0.6432 -0.5731 -0.5078
vn 0.4008 -0.8658 -0.2997
vn -0.0651 0.6316 0.7726
vn 0.1650 0.9792 -0.1182
vn -0.4127 0.6369 -0.6512
vn -0.2995 0.0552 -0.9525
vn 0.3415 -0.2767 -0.8983
vn 0.5667 -0.1909 0.8015
vn -0.0311 -0.2265 0.9735
vn -0.5710 0.3091 0.7605
vn -0.6615 0.2823 0.6948
vn -0.4499 0.1135 0.8858
vn 0.2593 -0.2215 0.9401
vn 0.6256 -0.3144 0.7140
vn 0.6398 -0.2517 0.7261
vn 0.4123 -0.0944 0.9061
vn -0.3254 -0.0867 0.9416
vn -0.6382 0.3128 0.7035
vn -0.6280 0.2393 0.7405
vn -0.2116 -0.0179 0.9772
vn 0.4674 -0.2887 0.8356
vn 0.6602 -0.3031 0.6872
vn 0.5659 -0.1896 0.8024
vn 0.1513 0.0423 0.9876
vn -0.5046 0.2953 0.8113
vn -0.6631 0.2980 0.6867
vn -0.5390 0.1695 0.8251
vn 0.0958 -0.1582 0.9827
vn 0.5859 -0.3126 0.7476
vn 0.6587 -0.2764 0.6997
vn 0.4106 -0.0906 0.9073
vn -0.1599 -0.1731 0.9718
vn -0.6058 0.3134 0.7313
vn -0.6526 0.2666 0.7093
vn -0.3620 0.0613 0.9302
vn 0.3601 -0.2569 0.8969
vn 0.6450 -0.3115 0.6978
vn 0.6171 -0.2309 0.7522
vn 0.1485 0.0472 0.9878
vn -0.4065 0.2687 0.8732
vn -0.6530 0.3084 0.6918
vn -0.5996 0.2141 0.7711
vn -0.0278 -0.1677 0.9855
vn 0.4833 -0.3315 0.8103
vn 0.6530 -0.2984 0.6961
vn 0.5131 -0.1568 0.8439
vn -0.1624 -0.1698 0.9720
vn -0.6034 0.4007 0.6895
vn -0.6442 0.5736 0.5060
vn -0.4104 0.8451 0.3427
vn 0.1174 0.7115 0.6928
vn -0.1898 -0.9717 0.1407
vn 0.3889 -0.6438 0.6590
vn 0.2960 -0.0595 0.9533
vn -0.3439 0.2777 0.8970
vn 0.0276 0.9990 0.0339
vn 0.0010 0.9997 0.0230
vn 0.0061 0.9999 -0.0119
vn 0.0310 0.9990 -0.0325
vn 0.0258 0.9991 -0.0344
vn 0.0005 0.9999 -0.0127
vn 0.0169 0.9997 0.0202
vn 0.0338 0.9988 0.0348
vn -0.9726 -0.0937 0.2127
vn 0.9552 0.0940 -0.2807
vn -0.9887 -0.0547 0.1393
vn 0.9630 0.0536 -0.2642
vn -0.9988 -0.0142 0.0469
vn 0.9764 0.0083 -0.2157
vn 0.9900 -0.0063 -0.1408
vn -0.9886 0.0058 -0.1508
vn 0.9988 -0.0089 -0.0479
vn -0.2648 -0.9643 -0.0073
vn -0.9797 -0.0127 -0.2001
vn -0.9986 0.0095 -0.0525
vn -0.2598 -0.9657 -0.0059
vn 0.1937 -0.9753 0.1066
vn 0.1232 -0.9794 0.1597
vn -0.1016 -0.8066 0.5824
vn 0.9987 0.0148 0.0480
vn -0.3025 -0.9519 -0.0483
vn -0.2868 0.9502 -0.1219
vn -0.5370 -0.7486 -0.3887
vt 0.135388 0.000040
vt 0.144432 0.557913
vt 0.135388 0.557953
vt 0.062425 0.000016
vt 0.074307 0.557988
vt 0.062425 0.557917
vt 0.074307 0.000087
vt 0.090369 0.558011
vt 0.090369 0.000109
vt 0.106307 0.557979
vt 0.106307 0.000078
vt 0.117852 0.557902
vt 0.152795 0.000025
vt 0.161970 0.557925
vt 0.152795 0.557950
vt 0.161970 0.000000
vt 0.171013 0.557952
vt 0.179375 0.003627
vt 0.192670 0.552251
vt 0.179375 0.551825
vt 0.192670 0.004052
vt 0.208539 0.551640
vt 0.208539 0.003442
vt 0.222731 0.550157
vt 0.928735 0.018623
vt 0.905896 0.064756
vt 0.897537 0.013755
vt 0.222731 0.001958
vt 0.231441 0.548198
vt 0.126214 0.000003
vt 0.126214 0.557916
vt 0.892711 0.108116
vt 0.913257 0.076482
vt 0.920777 0.132684
vt 0.916089 0.671097
vt 0.885844 0.655444
vt 0.916406 0.643882
vt 0.332416 0.890511
vt 0.356828 0.912157
vt 0.332427 0.932588
vt 0.925075 0.186074
vt 0.892710 0.206640
vt 0.892710 0.168018
vt 0.924419 0.146765
vt 0.846855 0.669212
vt 0.847143 0.642824
vt 0.877482 0.653847
vt 0.292579 0.911406
vt 0.885844 0.611868
vt 0.629908 0.872913
vt 0.594216 0.886721
vt 0.595306 0.844651
vt 0.650205 0.857956
vt 0.629908 0.826873
vt 0.877482 0.610588
vt 0.292352 0.877884
vt 0.916089 0.600590
vt 0.846855 0.599217
vt 0.292370 0.945966
vt 0.034310 0.954169
vt 0.000000 0.935548
vt 0.024821 0.920220
vt 0.055514 0.925940
vt 0.594216 0.812228
vt 0.000000 0.895810
vt 0.034309 0.889873
vt 0.027015 0.584134
vt 0.007906 0.000002
vt 0.027015 0.000000
vt 0.007906 0.584136
vt 0.000000 0.000008
vt 0.293863 0.524999
vt 0.285870 0.003232
vt 0.293863 0.000279
vt 0.266725 0.529094
vt 0.266725 0.004374
vt 0.247644 0.003035
vt 0.247644 0.527755
vt 0.239803 0.000000
vt 0.905893 0.215196
vt 0.911353 0.243941
vt 0.898171 0.269927
vt 0.054063 0.584141
vt 0.046134 0.000002
vt 0.054063 0.000008
vt 0.046134 0.584136
vt 0.826352 0.670030
vt 0.821057 0.706445
vt 0.808272 0.703579
vt 0.436760 0.767098
vt 0.404074 0.954550
vt 0.404074 0.763941
vt 0.390553 0.946959
vt 0.390553 0.756351
vt 0.583861 0.759449
vt 0.570193 0.950770
vt 0.570193 0.757298
vt 0.537448 0.949823
vt 0.537448 0.756351
vt 0.504807 0.757162
vt 0.504807 0.950634
vt 0.491391 0.759257
vt 0.801212 0.500449
vt 0.809706 0.549565
vt 0.789199 0.594235
vt 0.483028 0.947003
vt 0.469464 0.763972
vt 0.483028 0.756395
vt 0.469464 0.954580
vt 0.334220 0.860039
vt 0.324856 0.797797
vt 0.347463 0.790594
vt 0.744338 0.671860
vt 0.772342 0.383206
vt 0.764329 0.688203
vt 0.316493 0.471135
vt 0.302225 0.765697
vt 0.302225 0.456918
vt 0.654037 0.794970
vt 0.664819 0.506620
vt 0.666706 0.802499
vt 0.686509 0.794550
vt 0.684623 0.498671
vt 0.701846 0.775780
vt 0.349347 0.753393
vt 0.336067 0.473267
vt 0.349347 0.456918
vt 0.701846 0.461306
vt 0.652150 0.499092
vt 0.336067 0.769741
vt 0.324856 0.476275
vt 0.724079 0.665603
vt 0.752351 0.366863
vt 0.763684 0.712554
vt 0.723434 0.689953
vt 0.752353 0.345775
vt 0.724090 0.046884
vt 0.744352 0.040610
vt 0.382190 0.475838
vt 0.371060 0.765078
vt 0.371060 0.473386
vt 0.357709 0.748610
vt 0.357709 0.456918
vt 0.594216 0.777208
vt 0.611312 0.498144
vt 0.609490 0.795782
vt 0.631091 0.506034
vt 0.629269 0.803672
vt 0.641966 0.796256
vt 0.643788 0.498619
vt 0.594216 0.461193
vt 0.574626 0.711090
vt 0.559538 0.470960
vt 0.574626 0.456919
vt 0.772339 0.329444
vt 0.764337 0.024279
vt 0.723422 0.022606
vt 0.763669 0.000000
vt 0.303200 0.391694
vt 0.350060 0.448040
vt 0.302787 0.448362
vt 0.303327 0.335534
vt 0.350389 0.391522
vt 0.303077 0.280044
vt 0.350366 0.335629
vt 0.302615 0.224931
vt 0.350002 0.280342
vt 0.302249 0.169646
vt 0.349539 0.225229
vt 0.302225 0.113755
vt 0.349288 0.169742
vt 0.302553 0.057239
vt 0.349414 0.113584
vt 0.303005 0.000501
vt 0.349826 0.056917
vt 0.397314 0.447753
vt 0.397523 0.391449
vt 0.397351 0.335819
vt 0.396911 0.280667
vt 0.396497 0.225467
vt 0.396386 0.169731
vt 0.396648 0.113332
vt 0.350240 0.000247
vt 0.397100 0.056594
vt 0.444531 0.447531
vt 0.444596 0.391483
vt 0.444293 0.336086
vt 0.443824 0.280984
vt 0.443503 0.225620
vt 0.443543 0.169615
vt 0.443912 0.113026
vt 0.397430 0.000074
vt 0.444354 0.056306
vt 0.491698 0.447399
vt 0.491611 0.391620
vt 0.491209 0.336399
vt 0.490761 0.281261
vt 0.490567 0.225672
vt 0.490753 0.169407
vt 0.491188 0.112699
vt 0.444564 0.000000
vt 0.491572 0.056084
vt 0.538806 0.447371
vt 0.538576 0.391846
vt 0.538118 0.336726
vt 0.537738 0.281465
vt 0.537691 0.225616
vt 0.538002 0.169128
vt 0.538456 0.112387
vt 0.491638 0.000033
vt 0.538739 0.055951
vt 0.585854 0.447450
vt 0.701846 0.865213
vt 0.669838 0.830530
vt 0.701846 0.811055
vt 0.555296 0.337030
vt 0.382190 0.833506
vt 0.382190 0.776086
vt 0.379839 0.834165
vt 0.819860 0.583563
vt 0.836154 0.643364
vt 0.828518 0.650211
vt 0.823432 0.505926
vt 0.835284 0.569703
vt 0.555954 0.112124
vt 0.538653 0.000169
vt 0.570976 0.055922
vt 0.550629 0.507211
vt 0.496573 0.458560
vt 0.551175 0.458942
vt 0.443505 0.505919
vt 0.443539 0.457822
vt 0.390613 0.456918
vt 0.788223 0.772399
vt 0.728594 0.728899
vt 0.796101 0.721109
vt 0.224690 0.643672
vt 0.170057 0.594584
vt 0.225372 0.595579
vt 0.168986 0.642780
vt 0.113594 0.593898
vt 0.112359 0.642180
vt 0.057400 0.593316
vt 0.056273 0.641616
vt 0.001797 0.592697
vt 0.550478 0.555411
vt 0.496301 0.506753
vt 0.443806 0.553943
vt 0.843286 0.817177
vt 0.844604 0.767739
vt 0.778686 0.824160
vt 0.720380 0.780272
vt 0.223680 0.691826
vt 0.167449 0.691069
vt 0.110884 0.690516
vt 0.055259 0.689900
vt 0.000882 0.640950
vt 0.550583 0.603557
vt 0.496488 0.554853
vt 0.496797 0.602911
vt 0.837481 0.867887
vt 0.769345 0.875856
vt 0.715421 0.830704
vt 0.222416 0.740037
vt 0.165863 0.739390
vt 0.109561 0.738841
vt 0.054487 0.738139
vt 0.000282 0.689138
vt 0.497128 0.650942
vt 0.889150 0.913626
vt 0.887365 0.865070
vt 0.828763 0.919420
vt 0.276902 0.789134
vt 0.277761 0.741010
vt 0.220954 0.788301
vt 0.164325 0.787725
vt 0.108423 0.787144
vt 0.053979 0.786325
vt 0.000000 0.737257
vt 0.551169 0.699715
vt 0.550845 0.651660
vt 0.885835 0.963556
vt 0.819267 0.970889
vt 0.762242 0.926906
vt 0.276999 0.836819
vt 0.221364 0.839162
vt 0.163784 0.837672
vt 0.107703 0.835808
vt 0.000179 0.833297
vt 0.000014 0.785309
vt 0.551175 0.747795
vt 0.497449 0.698880
vt 0.875516 1.000000
vt 0.805174 0.992714
vt 0.760526 0.976137
vt 0.802031 0.001365
vt 0.802539 0.052413
vt 0.780701 0.049194
vt 0.791434 0.110930
vt 0.811803 0.121045
vt 0.819027 0.178204
vt 0.107591 0.853778
vt 0.053733 0.834496
vt 0.053797 0.867389
vt 0.667975 0.000000
vt 0.622919 0.052943
vt 0.614818 0.050908
vt 0.602692 0.105220
vt 0.594216 0.105052
vt 0.616586 0.163466
vt 0.624499 0.162239
vt 0.663122 0.224281
vt 0.671015 0.223025
vt 0.698584 0.283996
vt 0.707058 0.284149
vt 0.695265 0.339857
vt 0.703381 0.341866
vt 0.659219 0.394632
vt 0.651826 0.391731
vt 0.601469 0.445221
vt 0.594216 0.442197
vt 0.855437 0.304813
vt 0.857524 0.352691
vt 0.847558 0.303640
vt 0.876783 0.000000
vt 0.869151 0.048732
vt 0.861467 0.048532
vt 0.865494 0.353866
vt 0.865363 0.401463
vt 0.859292 0.097080
vt 0.851324 0.096950
vt 0.873464 0.402631
vt 0.869415 0.449719
vt 0.855853 0.145249
vt 0.847558 0.145227
vt 0.850682 0.193352
vt 0.859193 0.193235
vt 0.876112 0.498325
vt 0.861249 0.543973
vt 0.868335 0.497269
vt 0.860468 0.241329
vt 0.868954 0.241052
vt 0.839195 0.193693
vt 0.825734 0.249729
vt 0.831349 0.191847
vt 0.854463 0.590661
vt 0.868500 0.544937
vt 0.877482 0.450851
vt 0.788089 0.295084
vt 0.833526 0.253293
vt 0.811497 0.362495
vt 0.803048 0.308132
vt 0.809922 0.303640
vt 0.803449 0.430811
vt 0.804582 0.366494
vt 0.807324 0.481485
vt 0.796638 0.434105
vt 0.875969 0.289180
vt 0.884348 0.288819
vt 0.816344 0.121321
vt 0.286554 0.541913
vt 0.286554 0.600298
vt 0.286886 0.537650
vt 0.584622 0.457625
vt 0.582988 0.517528
vt 0.582988 0.456919
vt 0.895357 0.562710
vt 1.000000 0.473314
vt 1.000000 0.592033
vt 0.990484 0.414235
vt 0.885844 0.324840
vt 0.999996 0.303640
vt 0.297306 0.851650
vt 0.316493 0.788470
vt 0.316493 0.850919
vt 0.819989 0.485923
vt 0.839066 0.394722
vt 0.839195 0.485923
vt 0.819860 0.394722
vt 0.839195 0.303640
vt 0.799910 0.602791
vt 0.780705 0.712553
vt 0.780705 0.602823
vt 0.186290 0.565443
vt 0.193040 0.570525
vt 0.186322 0.570551
vt 0.156317 0.890623
vt 0.152097 0.894408
vt 0.151668 0.889873
vt 0.563506 0.746949
vt 0.567398 0.740248
vt 0.566958 0.747528
vt 0.563506 0.733897
vt 0.566958 0.734476
vt 0.118168 0.894408
vt 0.113948 0.890623
vt 0.118598 0.889873
vt 0.179491 0.570528
vt 0.186195 0.560807
vt 0.193010 0.565849
vt 0.160739 0.893701
vt 0.155887 0.895020
vt 0.834749 0.708430
vt 0.841484 0.710769
vt 0.834715 0.712500
vt 0.848301 0.708483
vt 0.848267 0.712553
vt 0.114378 0.895020
vt 0.109526 0.893701
vt 0.179462 0.565853
vt 0.904292 0.758720
vt 0.911076 0.762837
vt 0.904298 0.764680
vt 0.164501 0.898806
vt 0.159492 0.897529
vt 0.834773 0.703241
vt 0.841514 0.707161
vt 0.848325 0.703295
vt 0.110773 0.897529
vt 0.105765 0.898806
vt 0.897523 0.762837
vt 0.904288 0.751211
vt 0.911070 0.757381
vt 0.167234 0.905438
vt 0.162558 0.901690
vt 0.834786 0.697442
vt 0.841536 0.702561
vt 0.848338 0.697495
vt 0.107707 0.901689
vt 0.103032 0.905437
vt 0.897517 0.757381
vt 0.904287 0.742889
vt 0.911067 0.750508
vt 0.168671 0.912947
vt 0.164786 0.907095
vt 0.834786 0.691600
vt 0.841547 0.697419
vt 0.848338 0.691653
vt 0.105480 0.907095
vt 0.101595 0.912946
vt 0.897514 0.750508
vt 0.911067 0.735274
vt 0.911065 0.742890
vt 0.165957 0.919454
vt 0.165957 0.913216
vt 0.841536 0.687529
vt 0.841547 0.692240
vt 0.104308 0.919453
vt 0.104308 0.913216
vt 0.897514 0.735274
vt 0.897512 0.742891
vt 0.904288 0.734569
vt 0.911070 0.728404
vt 0.168671 0.920599
vt 0.164786 0.925197
vt 0.834773 0.686287
vt 0.841514 0.683749
vt 0.848325 0.686341
vt 0.105480 0.925197
vt 0.101595 0.920599
vt 0.897517 0.728404
vt 0.904292 0.727064
vt 0.911076 0.722953
vt 0.167234 0.927645
vt 0.162558 0.929884
vt 0.834749 0.682023
vt 0.841484 0.681269
vt 0.848301 0.682077
vt 0.107707 0.929883
vt 0.103032 0.927644
vt 0.897523 0.722953
vt 0.164521 0.566508
vt 0.158258 0.571646
vt 0.157486 0.566815
vt 0.164501 0.933394
vt 0.159492 0.933055
vt 0.076069 0.566567
vt 0.069277 0.570421
vt 0.069340 0.567409
vt 0.062520 0.566571
vt 0.110774 0.933055
vt 0.105765 0.933394
vt 0.171013 0.571886
vt 0.170241 0.567055
vt 0.165364 0.571785
vt 0.158258 0.576456
vt 0.160739 0.937285
vt 0.155887 0.934401
vt 0.075998 0.569964
vt 0.069256 0.573781
vt 0.062449 0.569968
vt 0.114378 0.934401
vt 0.109526 0.937285
vt 0.171013 0.576696
vt 0.164521 0.581758
vt 0.165364 0.577040
vt 0.151667 0.938186
vt 0.156317 0.938936
vt 0.075998 0.577566
vt 0.075974 0.573754
vt 0.062449 0.577570
vt 0.062425 0.573758
vt 0.118598 0.938186
vt 0.113948 0.938936
vt 0.246615 0.543105
vt 0.239891 0.539380
vt 0.246660 0.537650
vt 0.147245 0.935108
vt 0.152097 0.933789
vt 0.076069 0.581025
vt 0.069277 0.577160
vt 0.062520 0.581029
vt 0.118168 0.933790
vt 0.123020 0.935108
vt 0.253443 0.539434
vt 0.246582 0.550059
vt 0.239849 0.544374
vt 0.143483 0.930003
vt 0.148493 0.931280
vt 0.892244 0.684490
vt 0.885461 0.681886
vt 0.892239 0.680043
vt 0.878691 0.684490
vt 0.878686 0.680043
vt 0.121773 0.931281
vt 0.126782 0.930004
vt 0.253402 0.544427
vt 0.246565 0.557831
vt 0.239819 0.550739
vt 0.140750 0.923372
vt 0.145426 0.927119
vt 0.892247 0.690093
vt 0.885465 0.685829
vt 0.878694 0.690093
vt 0.124839 0.927120
vt 0.129515 0.923372
vt 0.253372 0.550793
vt 0.246565 0.565660
vt 0.239803 0.557853
vt 0.139314 0.915862
vt 0.143199 0.921714
vt 0.892248 0.696302
vt 0.885468 0.690796
vt 0.878695 0.696302
vt 0.127066 0.921714
vt 0.130951 0.915863
vt 0.253356 0.557907
vt 0.239819 0.571538
vt 0.239803 0.565020
vt 0.142027 0.909355
vt 0.142027 0.915593
vt 0.885468 0.701806
vt 0.885469 0.696301
vt 0.128238 0.909356
vt 0.128238 0.915593
vt 0.253372 0.571592
vt 0.253356 0.565074
vt 0.246582 0.572780
vt 0.239849 0.576769
vt 0.139314 0.908210
vt 0.143199 0.903612
vt 0.892247 0.702511
vt 0.885465 0.706770
vt 0.878694 0.702511
vt 0.127066 0.903613
vt 0.130951 0.908211
vt 0.253402 0.576822
vt 0.246615 0.578495
vt 0.239891 0.580201
vt 0.140751 0.901165
vt 0.145426 0.898926
vt 0.892244 0.708111
vt 0.885461 0.710709
vt 0.878691 0.708111
vt 0.124839 0.898926
vt 0.129514 0.901165
vt 0.253443 0.580254
vt 0.186195 0.580184
vt 0.193010 0.575174
vt 0.192924 0.579342
vt 0.143484 0.895415
vt 0.148493 0.895754
vt 0.574626 0.746740
vt 0.570795 0.740184
vt 0.574196 0.739549
vt 0.574626 0.733688
vt 0.121772 0.895754
vt 0.126781 0.895415
vt 0.179462 0.575178
vt 0.179375 0.579346
vt 0.186290 0.575631
vt 0.147245 0.891524
vt 0.570789 0.747456
vt 0.570789 0.734404
vt 0.123020 0.891524
vt 0.208317 0.565443
vt 0.215068 0.570525
vt 0.208350 0.570551
vt 0.194037 0.890623
vt 0.189817 0.894408
vt 0.189387 0.889873
vt 0.106732 0.579828
vt 0.110624 0.573127
vt 0.110184 0.580407
vt 0.106732 0.566776
vt 0.110184 0.567355
vt 0.080449 0.894408
vt 0.076229 0.890623
vt 0.080879 0.889873
vt 0.201519 0.570528
vt 0.208222 0.560807
vt 0.215038 0.565849
vt 0.198459 0.893701
vt 0.193607 0.895020
vt 0.856734 0.708430
vt 0.863470 0.710770
vt 0.856700 0.712500
vt 0.870286 0.708483
vt 0.870253 0.712553
vt 0.076659 0.895020
vt 0.071807 0.893701
vt 0.201489 0.565853
vt 0.375406 0.880332
vt 0.382191 0.884449
vt 0.375413 0.886292
vt 0.202221 0.898806
vt 0.197212 0.897529
vt 0.856759 0.703241
vt 0.863500 0.707161
vt 0.870311 0.703295
vt 0.073055 0.897529
vt 0.068046 0.898805
vt 0.368637 0.884449
vt 0.375402 0.872823
vt 0.382185 0.878994
vt 0.204954 0.905438
vt 0.200278 0.901690
vt 0.856771 0.697442
vt 0.863521 0.702561
vt 0.870324 0.697495
vt 0.069988 0.901689
vt 0.065313 0.905437
vt 0.368632 0.878994
vt 0.375401 0.864502
vt 0.382181 0.872120
vt 0.206390 0.912947
vt 0.202505 0.907095
vt 0.856771 0.691600
vt 0.863533 0.697419
vt 0.870324 0.691653
vt 0.067761 0.907095
vt 0.063876 0.912946
vt 0.368628 0.872120
vt 0.382181 0.856886
vt 0.382180 0.864503
vt 0.203677 0.919454
vt 0.203677 0.913216
vt 0.863521 0.687529
vt 0.863533 0.692240
vt 0.066590 0.919453
vt 0.066590 0.913216
vt 0.368628 0.856886
vt 0.368627 0.864503
vt 0.375402 0.856181
vt 0.382185 0.850016
vt 0.206390 0.920599
vt 0.202505 0.925197
vt 0.856759 0.686287
vt 0.863500 0.683749
vt 0.870311 0.686341
vt 0.067761 0.925197
vt 0.063876 0.920598
vt 0.368632 0.850016
vt 0.375406 0.848676
vt 0.382191 0.844566
vt 0.204953 0.927645
vt 0.200278 0.929884
vt 0.856734 0.682023
vt 0.863470 0.681269
vt 0.870286 0.682077
vt 0.069989 0.929883
vt 0.065313 0.927644
vt 0.368637 0.844566
vt 0.133249 0.566509
vt 0.126986 0.571647
vt 0.126214 0.566817
vt 0.202220 0.933394
vt 0.197211 0.933055
vt 0.098075 0.566567
vt 0.091283 0.570421
vt 0.091346 0.567409
vt 0.084526 0.566571
vt 0.073055 0.933055
vt 0.068046 0.933394
vt 0.139741 0.571887
vt 0.138969 0.567056
vt 0.134092 0.571786
vt 0.126986 0.576458
vt 0.198459 0.937285
vt 0.193607 0.934401
vt 0.098004 0.569965
vt 0.091262 0.573781
vt 0.084455 0.569968
vt 0.076659 0.934401
vt 0.071807 0.937285
vt 0.139741 0.576697
vt 0.133249 0.581759
vt 0.134092 0.577041
vt 0.189387 0.938186
vt 0.194037 0.938936
vt 0.098004 0.577566
vt 0.097980 0.573754
vt 0.084455 0.577570
vt 0.084431 0.573758
vt 0.080879 0.938186
vt 0.076230 0.938936
vt 0.268617 0.543105
vt 0.261892 0.539380
vt 0.268662 0.537650
vt 0.184965 0.935108
vt 0.189817 0.933789
vt 0.098075 0.581025
vt 0.091283 0.577160
vt 0.084526 0.581029
vt 0.080449 0.933790
vt 0.085301 0.935108
vt 0.275445 0.539434
vt 0.268584 0.550059
vt 0.261851 0.544374
vt 0.181203 0.930003
vt 0.186212 0.931280
vt 0.228310 0.894320
vt 0.221528 0.891716
vt 0.228306 0.889873
vt 0.214757 0.894320
vt 0.214753 0.889873
vt 0.084054 0.931281
vt 0.089063 0.930004
vt 0.275403 0.544427
vt 0.268566 0.557831
vt 0.261821 0.550739
vt 0.178470 0.923372
vt 0.183146 0.927119
vt 0.228313 0.899923
vt 0.221532 0.895659
vt 0.214760 0.899923
vt 0.087120 0.927120
vt 0.091796 0.923372
vt 0.275373 0.550793
vt 0.268566 0.565660
vt 0.261805 0.557854
vt 0.177033 0.915862
vt 0.180918 0.921714
vt 0.228314 0.906132
vt 0.221535 0.900626
vt 0.214761 0.906132
vt 0.089348 0.921714
vt 0.093232 0.915863
vt 0.275357 0.557907
vt 0.261821 0.571538
vt 0.261805 0.565020
vt 0.179747 0.909355
vt 0.179747 0.915593
vt 0.221535 0.911636
vt 0.221535 0.906131
vt 0.090519 0.909356
vt 0.090519 0.915593
vt 0.275373 0.571592
vt 0.275357 0.565074
vt 0.268584 0.572780
vt 0.261851 0.576769
vt 0.177033 0.908210
vt 0.180918 0.903612
vt 0.228313 0.912341
vt 0.221532 0.916600
vt 0.214760 0.912341
vt 0.089348 0.903613
vt 0.093233 0.908211
vt 0.275403 0.576823
vt 0.268617 0.578495
vt 0.261892 0.580201
vt 0.178470 0.901165
vt 0.183146 0.898926
vt 0.228310 0.917940
vt 0.221528 0.920539
vt 0.214757 0.917940
vt 0.087120 0.898926
vt 0.091796 0.901165
vt 0.275445 0.580254
vt 0.208222 0.580184
vt 0.215038 0.575174
vt 0.214951 0.579342
vt 0.181203 0.895415
vt 0.186212 0.895754
vt 0.117852 0.579619
vt 0.114021 0.573063
vt 0.117422 0.572428
vt 0.117852 0.566567
vt 0.084054 0.895754
vt 0.089063 0.895415
vt 0.201489 0.575178
vt 0.201402 0.579346
vt 0.208317 0.575631
vt 0.184965 0.891524
vt 0.114015 0.580335
vt 0.114015 0.567283
vt 0.085301 0.891524
vt 0.144432 0.000000
vt 0.117852 0.000000
vt 0.171013 0.000027
vt 0.905896 0.002932
vt 0.915549 0.000000
vt 0.923908 0.005743
vt 0.928735 0.035189
vt 0.923908 0.051001
vt 0.915549 0.061824
vt 0.897537 0.059013
vt 0.892711 0.046133
vt 0.892711 0.029567
vt 0.231441 0.000000
vt 0.913257 0.138209
vt 0.904573 0.135039
vt 0.897052 0.124024
vt 0.892711 0.091576
vt 0.897052 0.078837
vt 0.904573 0.073312
vt 0.920777 0.087497
vt 0.925119 0.103405
vt 0.925119 0.119945
vt 0.000000 0.584141
vt 0.285870 0.527952
vt 0.239803 0.524720
vt 0.892711 0.260936
vt 0.892710 0.241182
vt 0.898171 0.222236
vt 0.911353 0.224187
vt 0.905893 0.262887
vt 0.808272 0.684778
vt 0.813568 0.667164
vt 0.821057 0.661055
vt 0.826352 0.688831
vt 0.813568 0.712553
vt 0.436760 0.957706
vt 0.583861 0.952921
vt 0.491391 0.952729
vt 0.780705 0.578929
vt 0.780705 0.545119
vt 0.789199 0.512612
vt 0.809706 0.515755
vt 0.801212 0.582072
vt 0.356828 0.820223
vt 0.356828 0.852835
vt 0.347463 0.869328
vt 0.324856 0.830410
vt 0.334220 0.781305
vt 0.316493 0.779914
vt 0.699960 0.479901
vt 0.654037 0.480497
vt 0.669374 0.461726
vt 0.689177 0.453777
vt 0.324856 0.772749
vt 0.732093 0.360606
vt 0.772342 0.705059
vt 0.743426 0.706296
vt 0.715421 0.673097
vt 0.732092 0.352050
vt 0.382190 0.767530
vt 0.596038 0.479570
vt 0.606913 0.453777
vt 0.626692 0.461668
vt 0.641966 0.480242
vt 0.559538 0.725132
vt 0.715421 0.039427
vt 0.743407 0.006275
vt 0.772339 0.007458
vt 0.570633 0.392136
vt 0.684718 0.885436
vt 0.540154 0.281576
vt 0.370195 0.779023
vt 0.836154 0.494479
vt 0.585618 0.000395
vt 0.390553 0.504973
vt 0.443997 0.601966
vt 0.715421 0.879714
vt 0.497613 0.731649
vt 0.759823 0.978105
vt 0.800752 0.000000
vt 0.000000 0.881317
vt 0.675485 0.002787
vt 0.884348 0.000225
vt 0.847558 0.589746
vt 0.780701 0.290897
vt 0.811497 0.483301
vt 0.293863 0.598832
vt 0.585294 0.516387
vt 0.885844 0.452117
vt 0.885844 0.443561
vt 0.297306 0.789201
vt 0.819989 0.303640
vt 0.799910 0.712522
vt 0.564338 0.739734
vt 0.192924 0.561604
vt 0.179375 0.561608
vt 0.904298 0.721110
vt 0.834715 0.679226
vt 0.848267 0.679280
vt 0.157486 0.580775
vt 0.170241 0.581015
vt 0.069340 0.580228
vt 0.246660 0.582244
vt 0.892239 0.712553
vt 0.878686 0.712553
vt 0.107564 0.572613
vt 0.214951 0.561604
vt 0.201402 0.561608
vt 0.375413 0.842722
vt 0.856700 0.679226
vt 0.870253 0.679280
vt 0.126214 0.580776
vt 0.138969 0.581016
vt 0.091346 0.580228
vt 0.268662 0.582244
vt 0.228306 0.922383
vt 0.214753 0.922383
s 1
usemtl MMO_oak
f 2/1/1 3/2/2 1/3/3
f 4/4/4 5/5/5 3/6/2
f 6/7/6 7/8/7 5/5/5
f 8/9/8 9/10/9 7/8/7
f 10/11/10 11/12/11 9/10/9
f 12/13/12 13/14/13 11/15/11
f 14/16/14 15/17/15 13/14/13
f 16/18/16 17/19/17 15/20/15
f 18/21/18 19/22/19 17/19/17
f 20/23/20 21/24/21 19/22/19
s 0
f 22/25/22 14/26/22 6/27/22
s 1
f 22/28/23 23/29/24 21/24/21
f 24/30/25 1/3/3 23/31/24
s 0
f 7/32/26 15/33/26 23/34/26
s 1
f 2/1/1 4/808/4 3/2/2
f 4/4/4 6/7/6 5/5/5
f 6/7/6 8/9/8 7/8/7
f 8/9/8 10/11/10 9/10/9
f 10/11/10 12/809/12 11/12/11
f 12/13/12 14/16/14 13/14/13
f 14/16/14 16/810/16 15/17/15
f 16/18/16 18/21/18 17/19/17
f 18/21/18 20/23/20 19/22/19
f 20/23/20 22/28/23 21/24/21
s 0
f 6/27/22 4/811/22 2/812/22
f 2/812/22 24/813/22 22/25/22
f 22/25/22 20/814/22 18/815/22
f 18/815/22 16/816/22 14/26/22
f 14/26/22 12/817/22 10/818/22
f 10/818/22 8/819/22 6/27/22
f 6/27/22 2/812/22 22/25/22
f 22/25/22 18/815/22 14/26/22
f 14/26/22 10/818/22 6/27/22
s 1
f 22/28/23 24/820/25 23/29/24
f 24/30/25 2/1/1 1/3/3
s 0
f 23/34/26 1/821/26 3/822/26
f 3/822/26 5/823/26 7/32/26
f 7/32/26 9/824/26 11/825/26
f 11/825/26 13/826/26 15/33/26
f 15/33/26 17/827/26 19/828/26
f 19/828/26 21/829/26 23/34/26
f 23/34/26 3/822/26 7/32/26
f 7/32/26 11/825/26 15/33/26
f 15/33/26 19/828/26 23/34/26
usemtl MMO_brass
f 25/35/27 26/36/27 27/37/27
f 26/38/28 25/39/28 30/40/28
f 25/41/29 27/42/29 28/43/29
f 25/41/30 28/43/30 29/44/30
f 25/45/31 29/46/31 30/47/31
f 26/38/32 30/40/32 35/48/32
f 27/37/33 26/36/33 31/49/33
f 28/50/34 27/51/34 32/52/34
f 29/53/35 28/50/35 33/54/35
f 30/47/36 29/46/36 34/55/36
f 26/38/37 35/48/37 31/56/37
f 27/37/38 31/49/38 32/57/38
f 28/50/39 32/52/39 33/54/39
f 29/46/40 33/58/40 34/55/40
f 30/40/41 34/59/41 35/48/41
f 31/60/42 35/61/42 36/62/42
f 32/63/43 31/60/43 36/62/43
f 33/54/44 32/52/44 36/64/44
f 34/65/45 33/66/45 36/62/45
f 35/61/46 34/65/46 36/62/46
f 227/367/239 229/368/239 230/369/239
f 231/370/240 233/371/240 232/372/240
f 231/373/241 228/374/241 227/375/241
f 232/376/242 229/377/242 228/378/242
f 233/379/243 230/380/243 229/377/243
f 234/381/244 227/382/244 230/383/244
f 227/367/239 228/896/239 229/368/239
f 231/370/240 234/897/240 233/371/240
f 231/373/241 232/898/241 228/374/241
f 232/376/242 233/379/242 229/377/242
f 233/379/243 234/899/243 230/380/243
f 234/381/244 231/900/244 227/382/244
s 1
usemtl MMO_iron
f 38/67/47 39/68/48 37/69/49
f 40/70/50 41/71/51 39/68/48
f 42/72/52 43/73/53 41/74/51
f 43/73/53 46/75/54 45/76/55
f 46/75/54 47/77/56 45/76/55
f 48/78/57 49/79/58 47/77/56
s 0
f 50/80/59 46/81/59 42/82/59
s 1
f 50/83/60 51/84/61 49/85/58
f 52/86/62 37/69/49 51/84/61
s 0
f 43/87/63 47/88/63 51/89/63
s 1
f 53/90/64 56/91/65 55/92/66
f 55/92/66 58/93/67 57/94/68
f 57/95/68 60/96/69 59/97/70
f 59/97/70 62/98/71 61/99/72
f 62/98/71 63/100/73 61/99/72
f 64/101/74 65/102/75 63/100/73
s 0
f 66/103/76 62/104/76 58/105/76
s 1
f 66/106/77 67/107/78 65/108/75
f 68/109/79 53/90/64 67/107/78
s 0
f 59/110/80 63/111/80 67/112/80
s 1
f 69/113/81 72/114/82 71/115/83
f 71/116/83 74/117/84 73/118/85
f 73/119/85 76/120/86 75/121/87
f 76/120/86 77/122/88 75/121/87
f 78/123/89 79/124/90 77/122/88
f 80/125/91 81/126/92 79/127/90
s 0
f 82/128/93 78/123/93 74/129/93
s 1
f 82/130/94 83/131/95 81/126/92
f 83/132/95 70/133/96 69/113/81
s 0
f 75/134/97 79/135/97 83/132/97
s 1
f 86/136/98 87/137/99 85/138/100
f 87/139/99 90/140/101 89/141/102
f 89/141/102 92/142/103 91/143/104
f 91/144/104 94/145/105 93/146/106
f 93/146/106 96/147/107 95/148/108
f 96/147/107 97/149/109 95/148/108
s 0
f 98/150/110 94/145/110 90/151/110
s 1
f 98/152/111 99/153/112 97/154/109
f 100/155/113 85/138/100 99/156/112
s 0
f 91/157/114 95/158/114 99/156/114
s 1
f 241/384/245 236/385/246 235/386/59
f 242/387/247 237/388/248 236/389/246
f 243/390/249 238/391/63 237/392/248
f 238/391/63 245/393/250 239/394/251
f 239/395/251 246/396/252 240/397/253
f 240/398/253 241/384/245 235/386/59
f 247/399/254 242/400/247 241/384/245
f 248/401/255 243/402/249 242/387/247
f 249/403/256 244/404/257 243/405/249
f 244/404/257 251/406/258 245/407/250
f 245/408/250 252/409/259 246/396/252
f 246/410/252 247/399/254 241/384/245
f 253/411/260 248/412/255 247/413/254
f 254/414/261 249/415/256 248/401/255
f 255/416/262 250/417/263 249/403/256
f 250/417/263 257/418/264 251/406/258
f 251/419/258 258/420/265 252/409/259
f 252/421/259 253/411/260 247/413/254
f 259/422/266 254/423/261 253/411/260
f 260/424/267 255/425/262 254/414/261
f 261/426/268 256/427/269 255/416/262
f 256/427/269 263/428/270 257/418/264
f 257/429/264 264/430/271 258/420/265
f 258/431/265 259/422/266 253/411/260
f 265/432/22 260/433/267 259/422/266
f 266/434/272 261/435/268 260/424/267
f 267/436/273 262/437/274 261/426/268
f 262/437/274 269/438/275 263/428/270
f 263/439/270 270/440/276 264/430/271
f 264/441/271 265/432/22 259/422/266
f 265/432/22 272/442/277 266/443/272
f 266/434/272 273/444/278 267/445/273
f 267/436/273 274/446/279 268/447/26
f 274/446/279 269/438/275 268/447/26
f 275/448/280 270/440/276 269/449/275
f 276/450/281 265/432/22 270/451/276
f 271/452/282 278/453/283 272/442/277
f 272/454/277 279/455/284 273/444/278
f 273/456/278 280/457/285 274/446/279
f 280/457/285 275/458/280 274/446/279
f 281/459/286 276/460/281 275/448/280
f 282/461/287 271/452/282 276/450/281
f 277/462/288 284/463/289 278/453/283
f 278/464/283 285/465/290 279/455/284
f 279/466/284 286/467/291 280/457/285
f 286/467/291 281/468/286 280/457/285
f 287/469/292 282/470/287 281/459/286
f 288/471/293 277/462/288 282/461/287
f 283/472/294 290/473/295 284/474/289
f 284/475/289 291/476/296 285/465/290
f 285/477/290 292/478/297 286/479/291
f 292/478/297 287/480/292 286/479/291
f 293/481/298 288/482/293 287/469/292
f 294/483/299 283/472/294 288/484/293
f 289/485/300 296/486/301 290/473/295
f 290/487/295 297/488/302 291/476/296
f 291/489/296 298/490/59 292/478/297
f 298/490/59 293/491/298 292/478/297
f 299/492/303 294/493/299 293/481/298
f 300/494/304 289/485/300 294/483/299
f 301/495/305 296/486/301 295/496/63
f 302/497/306 297/488/302 296/498/301
f 303/499/307 298/490/59 297/500/302
f 298/490/59 305/501/308 299/502/303
f 299/492/303 306/503/309 300/504/304
f 300/494/304 301/495/305 295/496/63
f 307/505/310 302/506/306 301/507/305
f 308/508/311 303/509/307 302/497/306
f 309/510/312 304/511/313 303/499/307
f 304/511/313 311/512/314 305/501/308
f 305/513/308 312/514/315 306/503/309
f 306/515/309 307/505/310 301/507/305
f 313/516/316 308/517/311 307/505/310
f 314/518/317 309/519/312 308/508/311
f 315/520/318 310/521/319 309/522/312
f 310/521/319 317/523/320 311/524/314
f 311/525/314 318/526/321 312/514/315
f 312/527/315 313/516/316 307/505/310
f 319/528/322 314/529/317 313/516/316
f 320/530/323 315/531/318 314/518/317
f 321/532/324 316/533/325 315/520/318
f 316/533/325 323/534/326 317/523/320
f 317/535/320 324/536/327 318/526/321
f 318/537/321 319/528/322 313/516/316
f 325/538/26 320/539/323 319/528/322
f 326/540/328 321/541/324 320/530/323
f 327/542/329 322/543/330 321/532/324
f 322/543/330 329/544/331 323/534/326
f 323/545/326 330/546/332 324/536/327
f 324/547/327 325/538/26 319/528/322
f 325/538/26 332/548/333 326/549/328
f 326/540/328 333/550/334 327/551/329
f 327/542/329 334/552/335 328/553/22
f 334/552/335 329/544/331 328/553/22
f 335/554/336 330/546/332 329/555/331
f 336/556/337 325/538/26 330/557/332
f 331/558/338 338/559/339 332/548/333
f 332/560/333 339/561/340 333/550/334
f 333/562/334 340/563/341 334/552/335
f 340/563/341 335/564/336 334/552/335
f 341/565/342 336/566/337 335/554/336
f 342/567/343 331/558/338 336/556/337
f 337/568/344 344/569/345 338/559/339
f 338/570/339 345/571/346 339/561/340
f 339/572/340 346/573/347 340/563/341
f 346/573/347 341/574/342 340/563/341
f 347/575/348 342/576/343 341/565/342
f 348/577/349 337/568/344 342/567/343
f 343/578/350 350/579/351 344/580/345
f 344/581/345 351/582/352 345/571/346
f 345/583/346 352/584/353 346/585/347
f 352/584/353 347/586/348 346/585/347
f 353/587/354 348/588/349 347/575/348
f 354/589/355 343/578/350 348/590/349
f 349/591/356 236/385/246 350/579/351
f 350/592/351 237/388/248 351/582/352
f 351/593/352 238/391/63 352/584/353
f 238/391/63 353/594/354 352/584/353
f 239/395/251 354/595/355 353/587/354
f 240/398/253 349/591/356 354/589/355
f 361/596/245 356/597/246 355/598/59
f 362/599/247 357/600/248 356/601/246
f 363/602/249 358/603/63 357/604/248
f 358/603/63 365/605/250 359/606/251
f 359/607/251 366/608/252 360/609/253
f 360/610/253 361/596/245 355/598/59
f 367/611/254 362/612/247 361/596/245
f 368/613/255 363/614/249 362/599/247
f 369/615/256 364/616/257 363/617/249
f 364/616/257 371/618/258 365/619/250
f 365/620/250 372/621/259 366/608/252
f 366/622/252 367/611/254 361/596/245
f 373/623/260 368/624/255 367/625/254
f 374/626/261 369/627/256 368/613/255
f 375/628/262 370/629/263 369/615/256
f 370/629/263 377/630/264 371/618/258
f 371/631/258 378/632/265 372/621/259
f 372/633/259 373/623/260 367/625/254
f 379/634/266 374/635/261 373/623/260
f 380/636/267 375/637/262 374/626/261
f 381/638/268 376/639/269 375/628/262
f 376/639/269 383/640/270 377/630/264
f 377/641/264 384/642/271 378/632/265
f 378/643/265 379/634/266 373/623/260
f 385/644/22 380/645/267 379/634/266
f 386/646/272 381/647/268 380/636/267
f 387/648/273 382/649/274 381/638/268
f 382/649/274 389/650/275 383/640/270
f 383/651/270 390/652/276 384/642/271
f 384/653/271 385/644/22 379/634/266
f 385/644/22 392/654/277 386/655/272
f 386/646/272 393/656/278 387/657/273
f 387/648/273 394/658/279 388/659/26
f 394/658/279 389/650/275 388/659/26
f 395/660/280 390/652/276 389/661/275
f 396/662/281 385/644/22 390/663/276
f 391/664/282 398/665/283 392/654/277
f 392/666/277 399/667/284 393/656/278
f 393/668/278 400/669/285 394/658/279
f 400/669/285 395/670/280 394/658/279
f 401/671/286 396/672/281 395/660/280
f 402/673/287 391/664/282 396/662/281
f 397/674/288 404/675/289 398/665/283
f 398/676/283 405/677/290 399/667/284
f 399/678/284 406/679/291 400/669/285
f 406/679/291 401/680/286 400/669/285
f 407/681/292 402/682/287 401/671/286
f 408/683/293 397/674/288 402/673/287
f 403/684/294 410/685/295 404/686/289
f 404/687/289 411/688/296 405/677/290
f 405/689/290 412/690/297 406/691/291
f 412/690/297 407/692/292 406/691/291
f 413/693/298 408/694/293 407/681/292
f 414/695/299 403/684/294 408/696/293
f 409/697/300 416/698/301 410/685/295
f 410/699/295 417/700/302 411/688/296
f 411/701/296 418/702/59 412/690/297
f 418/702/59 413/703/298 412/690/297
f 419/704/303 414/705/299 413/693/298
f 420/706/304 409/697/300 414/695/299
f 421/707/305 416/698/301 415/708/63
f 422/709/306 417/700/302 416/710/301
f 423/711/307 418/702/59 417/712/302
f 418/702/59 425/713/308 419/714/303
f 419/704/303 426/715/309 420/716/304
f 420/706/304 421/707/305 415/708/63
f 427/717/310 422/718/306 421/719/305
f 428/720/311 423/721/307 422/709/306
f 429/722/312 424/723/313 423/711/307
f 424/723/313 431/724/314 425/713/308
f 425/725/308 432/726/315 426/715/309
f 426/727/309 427/717/310 421/719/305
f 433/728/316 428/729/311 427/717/310
f 434/730/317 429/731/312 428/720/311
f 435/732/318 430/733/319 429/734/312
f 430/733/319 437/735/320 431/736/314
f 431/737/314 438/738/321 432/726/315
f 432/739/315 433/728/316 427/717/310
f 439/740/322 434/741/317 433/728/316
f 440/742/323 435/743/318 434/730/317
f 441/744/324 436/745/325 435/732/318
f 436/745/325 443/746/326 437/735/320
f 437/747/320 444/748/327 438/738/321
f 438/749/321 439/740/322 433/728/316
f 445/750/26 440/751/323 439/740/322
f 446/752/328 441/753/324 440/742/323
f 447/754/329 442/755/330 441/744/324
f 442/755/330 449/756/331 443/746/326
f 443/757/326 450/758/332 444/748/327
f 444/759/327 445/750/26 439/740/322
f 445/750/26 452/760/333 446/761/328
f 446/752/328 453/762/334 447/763/329
f 447/754/329 454/764/335 448/765/22
f 454/764/335 449/756/331 448/765/22
f 455/766/336 450/758/332 449/767/331
f 456/768/337 445/750/26 450/769/332
f 451/770/338 458/771/339 452/760/333
f 452/772/333 459/773/340 453/762/334
f 453/774/334 460/775/341 454/764/335
f 460/775/341 455/776/336 454/764/335
f 461/777/342 456/778/337 455/766/336
f 462/779/343 451/770/338 456/768/337
f 457/780/344 464/781/345 458/771/339
f 458/782/339 465/783/346 459/773/340
f 459/784/340 466/785/347 460/775/341
f 466/785/347 461/786/342 460/775/341
f 467/787/348 462/788/343 461/777/342
f 468/789/349 457/780/344 462/779/343
f 463/790/350 470/791/351 464/792/345
f 464/793/345 471/794/352 465/783/346
f 465/795/346 472/796/353 466/797/347
f 472/796/353 467/798/348 466/797/347
f 473/799/354 468/800/349 467/787/348
f 474/801/355 463/790/350 468/802/349
f 469/803/356 356/597/246 470/791/351
f 470/804/351 357/600/248 471/794/352
f 471/805/352 358/603/63 472/796/353
f 358/603/63 473/806/354 472/796/353
f 359/607/251 474/807/355 473/799/354
f 360/610/253 469/803/356 474/801/355
f 38/67/47 40/70/50 39/68/48
f 40/70/50 42/830/52 41/71/51
f 42/72/52 44/831/357 43/73/53
f 43/73/53 44/831/357 46/75/54
f 46/75/54 48/78/57 47/77/56
f 48/78/57 50/832/60 49/79/58
s 0
f 42/82/59 40/833/59 38/834/59
f 38/834/59 52/835/59 50/80/59
f 50/80/59 48/836/59 46/81/59
f 46/81/59 44/837/59 42/82/59
f 42/82/59 38/834/59 50/80/59
s 1
f 50/83/60 52/86/62 51/84/61
f 52/86/62 38/67/47 37/69/49
s 0
f 51/89/63 37/838/63 39/839/63
f 39/839/63 41/840/63 43/87/63
f 43/87/63 45/841/63 47/88/63
f 47/88/63 49/842/63 51/89/63
f 51/89/63 39/839/63 43/87/63
s 1
f 53/90/64 54/843/358 56/91/65
f 55/92/66 56/91/65 58/93/67
f 57/95/68 58/844/67 60/96/69
f 59/97/70 60/96/69 62/98/71
f 62/98/71 64/101/74 63/100/73
f 64/101/74 66/845/77 65/102/75
s 0
f 58/105/76 56/846/76 54/847/76
f 54/847/76 68/848/76 66/103/76
f 66/103/76 64/849/76 62/104/76
f 62/104/76 60/850/76 58/105/76
f 58/105/76 54/847/76 66/103/76
s 1
f 66/106/77 68/109/79 67/107/78
f 68/109/79 54/843/358 53/90/64
s 0
f 67/112/359 53/851/359 55/852/359
f 55/852/80 57/853/80 59/110/80
f 59/110/80 61/854/80 63/111/80
f 63/111/80 65/855/80 67/112/80
f 67/112/80 55/852/80 59/110/80
s 1
f 69/113/81 70/133/96 72/114/82
f 71/116/83 72/856/82 74/117/84
f 73/119/85 74/129/84 76/120/86
f 76/120/86 78/123/89 77/122/88
f 78/123/89 80/857/91 79/124/90
f 80/125/91 82/130/94 81/126/92
s 0
f 74/129/93 72/858/93 70/859/93
f 70/859/93 84/860/93 82/128/93
f 82/128/93 80/857/93 78/123/93
f 78/123/93 76/120/93 74/129/93
f 74/129/93 70/859/93 82/128/93
s 1
f 82/130/94 84/861/360 83/131/95
f 83/132/95 84/862/360 70/133/96
s 0
f 83/132/97 69/113/97 71/115/97
f 71/115/97 73/863/97 75/134/97
f 75/134/97 77/864/97 79/135/97
f 79/135/97 81/865/97 83/132/97
f 83/132/97 71/115/97 75/134/97
s 1
f 86/136/98 88/866/361 87/137/99
f 87/139/99 88/867/361 90/140/101
f 89/141/102 90/140/101 92/142/103
f 91/144/104 92/868/103 94/145/105
f 93/146/106 94/145/105 96/147/107
f 96/147/107 98/150/111 97/149/109
s 0
f 90/151/110 88/869/110 86/870/110
f 86/870/110 100/871/110 98/150/110
f 98/150/110 96/147/110 94/145/110
f 94/145/110 92/868/110 90/151/110
f 90/151/110 86/870/110 98/150/110
s 1
f 98/152/111 100/872/113 99/153/112
f 100/155/113 86/136/98 85/138/100
s 0
f 99/156/114 85/138/114 87/137/114
f 87/137/114 89/873/114 91/157/114
f 91/157/114 93/874/114 95/158/114
f 95/158/114 97/875/114 99/156/114
f 99/156/114 87/137/114 91/157/114
s 1
f 241/384/245 242/400/247 236/385/246
f 242/387/247 243/402/249 237/388/248
f 243/390/249 244/901/257 238/391/63
f 238/391/63 244/901/257 245/393/250
f 239/395/251 245/408/250 246/396/252
f 240/398/253 246/410/252 241/384/245
f 247/399/254 248/902/255 242/400/247
f 248/401/255 249/415/256 243/402/249
f 249/403/256 250/417/263 244/404/257
f 244/404/257 250/417/263 251/406/258
f 245/408/250 251/419/258 252/409/259
f 246/410/252 252/903/259 247/399/254
f 253/411/260 254/423/261 248/412/255
f 254/414/261 255/425/262 249/415/256
f 255/416/262 256/427/269 250/417/263
f 250/417/263 256/427/269 257/418/264
f 251/419/258 257/429/264 258/420/265
f 252/421/259 258/431/265 253/411/260
f 259/422/266 260/433/267 254/423/261
f 260/424/267 261/435/268 255/425/262
f 261/426/268 262/437/274 256/427/269
f 256/427/269 262/437/274 263/428/270
f 257/429/264 263/439/270 264/430/271
f 258/431/265 264/441/271 259/422/266
f 265/432/22 266/443/272 260/433/267
f 266/434/272 267/445/273 261/435/268
f 267/436/273 268/447/26 262/437/274
f 262/437/274 268/447/26 269/438/275
f 263/439/270 269/449/275 270/440/276
f 264/441/271 270/451/276 265/432/22
f 265/432/22 271/452/282 272/442/277
f 266/434/272 272/454/277 273/444/278
f 267/436/273 273/456/278 274/446/279
f 274/446/279 275/458/280 269/438/275
f 275/448/280 276/460/281 270/440/276
f 276/450/281 271/452/282 265/432/22
f 271/452/282 277/462/288 278/453/283
f 272/454/277 278/464/283 279/455/284
f 273/456/278 279/466/284 280/457/285
f 280/457/285 281/468/286 275/458/280
f 281/459/286 282/470/287 276/460/281
f 282/461/287 277/462/288 271/452/282
f 277/462/288 283/904/294 284/463/289
f 278/464/283 284/475/289 285/465/290
f 279/466/284 285/905/290 286/467/291
f 286/467/291 287/906/292 281/468/286
f 287/469/292 288/482/293 282/470/287
f 288/471/293 283/904/294 277/462/288
f 283/472/294 289/485/300 290/473/295
f 284/475/289 290/487/295 291/476/296
f 285/477/290 291/489/296 292/478/297
f 292/478/297 293/491/298 287/480/292
f 293/481/298 294/493/299 288/482/293
f 294/483/299 289/485/300 283/472/294
f 289/485/300 295/496/63 296/486/301
f 290/487/295 296/498/301 297/488/302
f 291/489/296 297/500/302 298/490/59
f 298/490/59 299/502/303 293/491/298
f 299/492/303 300/504/304 294/493/299
f 300/494/304 295/496/63 289/485/300
f 301/495/305 302/907/306 296/486/301
f 302/497/306 303/509/307 297/488/302
f 303/499/307 304/511/313 298/490/59
f 298/490/59 304/511/313 305/501/308
f 299/492/303 305/513/308 306/503/309
f 300/494/304 306/908/309 301/495/305
f 307/505/310 308/517/311 302/506/306
f 308/508/311 309/519/312 303/509/307
f 309/510/312 310/909/319 304/511/313
f 304/511/313 310/909/319 311/512/314
f 305/513/308 311/525/314 312/514/315
f 306/515/309 312/527/315 307/505/310
f 313/516/316 314/529/317 308/517/311
f 314/518/317 315/531/318 309/519/312
f 315/520/318 316/533/325 310/521/319
f 310/521/319 316/533/325 317/523/320
f 311/525/314 317/535/320 318/526/321
f 312/527/315 318/537/321 313/516/316
f 319/528/322 320/539/323 314/529/317
f 320/530/323 321/541/324 315/531/318
f 321/532/324 322/543/330 316/533/325
f 316/533/325 322/543/330 323/534/326
f 317/535/320 323/545/326 324/536/327
f 318/537/321 324/547/327 319/528/322
f 325/538/26 326/549/328 320/539/323
f 326/540/328 327/551/329 321/541/324
f 327/542/329 328/553/22 322/543/330
f 322/543/330 328/553/22 329/544/331
f 323/545/326 329/555/331 330/546/332
f 324/547/327 330/557/332 325/538/26
f 325/538/26 331/558/338 332/548/333
f 326/540/328 332/560/333 333/550/334
f 327/542/329 333/562/334 334/552/335
f 334/552/335 335/564/336 329/544/331
f 335/554/336 336/566/337 330/546/332
f 336/556/337 331/558/338 325/538/26
f 331/558/338 337/568/344 338/559/339
f 332/560/333 338/570/339 339/561/340
f 333/562/334 339/572/340 340/563/341
f 340/563/341 341/574/342 335/564/336
f 341/565/342 342/576/343 336/566/337
f 342/567/343 337/568/344 331/558/338
f 337/568/344 343/910/350 344/569/345
f 338/570/339 344/581/345 345/571/346
f 339/572/340 345/911/346 346/573/347
f 346/573/347 347/912/348 341/574/342
f 347/575/348 348/588/349 342/576/343
f 348/577/349 343/910/350 337/568/344
f 343/578/350 349/591/356 350/579/351
f 344/581/345 350/592/351 351/582/352
f 345/583/346 351/593/352 352/584/353
f 352/584/353 353/594/354 347/586/348
f 353/587/354 354/595/355 348/588/349
f 354/589/355 349/591/356 343/578/350
f 349/591/356 235/386/59 236/385/246
f 350/592/351 236/389/246 237/388/248
f 351/593/352 237/392/248 238/391/63
f 238/391/63 239/394/251 353/594/354
f 239/395/251 240/397/253 354/595/355
f 240/398/253 235/386/59 349/591/356
f 361/596/245 362/612/247 356/597/246
f 362/599/247 363/614/249 357/600/248
f 363/602/249 364/913/257 358/603/63
f 358/603/63 364/913/257 365/605/250
f 359/607/251 365/620/250 366/608/252
f 360/610/253 366/622/252 361/596/245
f 367/611/254 368/914/255 362/612/247
f 368/613/255 369/627/256 363/614/249
f 369/615/256 370/629/263 364/616/257
f 364/616/257 370/629/263 371/618/258
f 365/620/250 371/631/258 372/621/259
f 366/622/252 372/915/259 367/611/254
f 373/623/260 374/635/261 368/624/255
f 374/626/261 375/637/262 369/627/256
f 375/628/262 376/639/269 370/629/263
f 370/629/263 376/639/269 377/630/264
f 371/631/258 377/641/264 378/632/265
f 372/633/259 378/643/265 373/623/260
f 379/634/266 380/645/267 374/635/261
f 380/636/267 381/647/268 375/637/262
f 381/638/268 382/649/274 376/639/269
f 376/639/269 382/649/274 383/640/270
f 377/641/264 383/651/270 384/642/271
f 378/643/265 384/653/271 379/634/266
f 385/644/22 386/655/272 380/645/267
f 386/646/272 387/657/273 381/647/268
f 387/648/273 388/659/26 382/649/274
f 382/649/274 388/659/26 389/650/275
f 383/651/270 389/661/275 390/652/276
f 384/653/271 390/663/276 385/644/22
f 385/644/22 391/664/282 392/654/277
f 386/646/272 392/666/277 393/656/278
f 387/648/273 393/668/278 394/658/279
f 394/658/279 395/670/280 389/650/275
f 395/660/280 396/672/281 390/652/276
f 396/662/281 391/664/282 385/644/22
f 391/664/282 397/674/288 398/665/283
f 392/666/277 398/676/283 399/667/284
f 393/668/278 399/678/284 400/669/285
f 400/669/285 401/680/286 395/670/280
f 401/671/286 402/682/287 396/672/281
f 402/673/287 397/674/288 391/664/282
f 397/674/288 403/916/294 404/675/289
f 398/676/283 404/687/289 405/677/290
f 399/678/284 405/917/290 406/679/291
f 406/679/291 407/918/292 401/680/286
f 407/681/292 408/694/293 402/682/287
f 408/683/293 403/916/294 397/674/288
f 403/684/294 409/697/300 410/685/295
f 404/687/289 410/699/295 411/688/296
f 405/689/290 411/701/296 412/690/297
f 412/690/297 413/703/298 407/692/292
f 413/693/298 414/705/299 408/694/293
f 414/695/299 409/697/300 403/684/294
f 409/697/300 415/708/63 416/698/301
f 410/699/295 416/710/301 417/700/302
f 411/701/296 417/712/302 418/702/59
f 418/702/59 419/714/303 413/703/298
f 419/704/303 420/716/304 414/705/299
f 420/706/304 415/708/63 409/697/300
f 421/707/305 422/919/306 416/698/301
f 422/709/306 423/721/307 417/700/302
f 423/711/307 424/723/313 418/702/59
f 418/702/59 424/723/313 425/713/308
f 419/704/303 425/725/308 426/715/309
f 420/706/304 426/920/309 421/707/305
f 427/717/310 428/729/311 422/718/306
f 428/720/311 429/731/312 423/721/307
f 429/722/312 430/921/319 424/723/313
f 424/723/313 430/921/319 431/724/314
f 425/725/308 431/737/314 432/726/315
f 426/727/309 432/739/315 427/717/310
f 433/728/316 434/741/317 428/729/311
f 434/730/317 435/743/318 429/731/312
f 435/732/318 436/745/325 430/733/319
f 430/733/319 436/745/325 437/735/320
f 431/737/314 437/747/320 438/738/321
f 432/739/315 438/749/321 433/728/316
f 439/740/322 440/751/323 434/741/317
f 440/742/323 441/753/324 435/743/318
f 441/744/324 442/755/330 436/745/325
f 436/745/325 442/755/330 443/746/326
f 437/747/320 443/757/326 444/748/327
f 438/749/321 444/759/327 439/740/322
f 445/750/26 446/761/328 440/751/323
f 446/752/328 447/763/329 441/753/324
f 447/754/329 448/765/22 442/755/330
f 442/755/330 448/765/22 449/756/331
f 443/757/326 449/767/331 450/758/332
f 444/759/327 450/769/332 445/750/26
f 445/750/26 451/770/338 452/760/333
f 446/752/328 452/772/333 453/762/334
f 447/754/329 453/774/334 454/764/335
f 454/764/335 455/776/336 449/756/331
f 455/766/336 456/778/337 450/758/332
f 456/768/337 451/770/338 445/750/26
f 451/770/338 457/780/344 458/771/339
f 452/772/333 458/782/339 459/773/340
f 453/774/334 459/784/340 460/775/341
f 460/775/341 461/786/342 455/776/336
f 461/777/342 462/788/343 456/778/337
f 462/779/343 457/780/344 451/770/338
f 457/780/344 463/922/350 464/781/345
f 458/782/339 464/793/345 465/783/346
f 459/784/340 465/923/346 466/785/347
f 466/785/347 467/924/348 461/786/342
f 467/787/348 468/800/349 462/788/343
f 468/789/349 463/922/350 457/780/344
f 463/790/350 469/803/356 470/791/351
f 464/793/345 470/804/351 471/794/352
f 465/795/346 471/805/352 472/796/353
f 472/796/353 473/806/354 467/798/348
f 473/799/354 474/807/355 468/800/349
f 474/801/355 469/803/356 463/790/350
f 469/803/356 355/598/59 356/597/246
f 470/804/351 356/601/246 357/600/248
f 471/805/352 357/604/248 358/603/63
f 358/603/63 359/606/251 473/806/354
f 359/607/251 360/609/253 474/807/355
f 360/610/253 355/598/59 469/803/356
s 0
usemtl MMO_teal
f 102/159/115 110/160/115 101/161/115
f 103/162/116 111/163/116 102/159/116
f 104/164/117 112/165/117 103/162/117
f 105/166/118 113/167/118 104/164/118
f 106/168/119 114/169/119 105/166/119
f 107/170/120 115/171/120 106/168/120
f 108/172/121 116/173/121 107/170/121
f 109/174/122 117/175/122 108/172/122
f 111/163/123 119/176/123 110/160/123
f 112/165/124 120/177/124 111/163/124
f 113/167/125 121/178/125 112/165/125
f 114/169/126 122/179/126 113/167/126
f 115/171/127 123/180/127 114/169/127
f 116/173/128 124/181/128 115/171/128
f 117/175/129 125/182/129 116/173/129
f 118/183/130 126/184/130 117/175/130
f 120/177/131 128/185/131 119/176/131
f 121/178/132 129/186/132 120/177/132
f 122/179/133 130/187/133 121/178/133
f 123/180/134 131/188/134 122/179/134
f 124/181/135 132/189/135 123/180/135
f 125/182/136 133/190/136 124/181/136
f 126/184/137 134/191/137 125/182/137
f 127/192/138 135/193/138 126/184/138
f 129/186/139 137/194/139 128/185/139
f 130/187/140 138/195/140 129/186/140
f 131/188/141 139/196/141 130/187/141
f 132/189/142 140/197/142 131/188/142
f 133/190/143 141/198/143 132/189/143
f 134/191/144 142/199/144 133/190/144
f 135/193/145 143/200/145 134/191/145
f 136/201/146 144/202/146 135/193/146
f 138/195/147 146/203/147 137/194/147
f 139/196/148 147/204/148 138/195/148
f 140/197/149 148/205/149 139/196/149
f 141/198/150 149/206/150 140/197/150
f 142/199/151 150/207/151 141/198/151
f 143/200/152 151/208/152 142/199/152
f 144/202/153 152/209/153 143/200/153
f 145/210/154 153/211/154 144/202/154
f 147/204/155 155/212/155 146/203/155
f 148/213/156 156/214/156 147/215/156
f 149/206/157 157/216/157 148/205/157
f 149/217/158 159/218/158 158/219/158
f 151/220/159 159/221/159 150/222/159
f 152/223/160 160/224/160 151/220/160
f 153/211/161 161/225/161 152/209/161
f 154/226/162 162/227/162 153/211/162
f 173/228/163 165/229/163 164/230/163
f 165/229/164 175/231/164 166/232/164
f 175/231/165 167/233/165 166/232/165
f 176/234/166 168/235/166 167/236/166
f 177/237/167 169/238/167 168/239/167
f 178/240/168 170/241/168 169/238/168
f 179/242/169 171/243/169 170/241/169
f 180/244/170 172/245/170 171/243/170
f 182/246/171 174/247/171 173/228/171
f 174/247/172 184/248/172 175/231/172
f 184/249/173 176/234/173 175/250/173
f 185/251/174 177/252/174 176/234/174
f 186/253/175 178/240/175 177/237/175
f 187/254/176 179/242/176 178/240/176
f 188/255/177 180/244/177 179/242/177
f 189/256/178 181/257/178 180/244/178
f 191/258/179 183/259/179 182/246/179
f 192/260/180 184/248/180 183/259/180
f 193/261/181 185/251/181 184/249/181
f 194/262/182 186/263/182 185/251/182
f 195/264/183 187/254/183 186/253/183
f 196/265/184 188/255/184 187/254/184
f 197/266/185 189/256/185 188/255/185
f 198/267/186 190/268/186 189/256/186
f 191/258/187 201/269/187 192/260/187
f 201/270/188 193/261/188 192/271/188
f 202/272/189 194/262/189 193/261/189
f 203/273/190 195/264/190 194/274/190
f 204/275/191 196/265/191 195/264/191
f 205/276/192 197/266/192 196/265/192
f 206/277/193 198/267/193 197/266/193
f 207/278/194 199/279/194 198/267/194
f 209/280/195 201/269/195 200/281/195
f 210/282/196 202/272/196 201/270/196
f 211/283/197 203/284/197 202/272/197
f 212/285/198 204/275/198 203/273/198
f 213/286/199 205/276/199 204/275/199
f 214/287/200 206/277/200 205/276/200
f 215/288/201 207/278/201 206/277/201
f 207/278/202 217/289/202 208/290/202
f 218/291/203 210/292/203 209/280/203
f 219/293/204 211/283/204 210/282/204
f 220/294/205 212/295/205 211/283/205
f 212/296/206 222/297/206 213/298/206
f 222/297/207 214/299/207 213/298/207
f 223/300/208 215/301/208 214/299/208
f 224/302/209 216/303/209 215/288/209
f 225/304/210 217/289/210 216/303/210
f 101/305/211 165/306/211 102/307/211
f 102/307/212 166/308/212 103/309/212
f 104/310/213 166/308/213 167/311/213
f 105/312/214 167/311/214 168/313/214
f 106/314/215 168/313/215 169/315/215
f 107/316/216 169/315/216 170/317/216
f 107/316/217 171/318/217 108/319/217
f 108/319/218 172/320/218 109/321/218
f 101/322/219 173/323/219 164/324/219
f 109/325/220 181/326/220 118/327/220
f 110/328/221 182/329/221 173/323/221
f 118/327/222 190/330/222 127/331/222
f 119/332/223 191/333/223 182/329/223
f 127/331/224 199/334/224 136/335/224
f 145/336/225 199/334/225 208/337/225
f 137/338/226 209/339/226 200/340/226
f 154/341/227 208/337/227 217/342/227
f 161/343/228 225/344/228 224/345/228
f 155/346/229 209/339/229 146/347/229
f 128/348/230 200/340/230 191/333/230
f 163/349/231 225/344/231 162/350/231
f 156/351/232 218/352/232 155/353/232
f 157/354/233 219/355/233 156/351/233
f 157/354/234 221/356/234 220/357/234
f 163/358/235 217/342/235 226/359/235
f 160/360/236 224/345/236 223/300/236
f 158/361/237 222/362/237 221/363/237
f 159/364/238 223/365/238 222/366/238
f 102/159/362 111/163/362 110/160/362
f 103/162/363 112/165/363 111/163/363
f 104/164/364 113/167/364 112/165/364
f 105/166/365 114/169/365 113/167/365
f 106/168/366 115/171/366 114/169/366
f 107/170/367 116/173/367 115/171/367
f 108/172/368 117/175/368 116/173/368
f 109/174/369 118/183/369 117/175/369
f 111/163/370 120/177/370 119/176/370
f 112/165/371 121/178/371 120/177/371
f 113/167/372 122/179/372 121/178/372
f 114/169/373 123/180/373 122/179/373
f 115/171/374 124/181/374 123/180/374
f 116/173/375 125/182/375 124/181/375
f 117/175/376 126/184/376 125/182/376
f 118/183/377 127/192/377 126/184/377
f 120/177/378 129/186/378 128/185/378
f 121/178/379 130/187/379 129/186/379
f 122/179/380 131/188/380 130/187/380
f 123/180/381 132/189/381 131/188/381
f 124/181/382 133/190/382 132/189/382
f 125/182/383 134/191/383 133/190/383
f 126/184/384 135/193/384 134/191/384
f 127/192/385 136/201/385 135/193/385
f 129/186/386 138/195/386 137/194/386
f 130/187/387 139/196/387 138/195/387
f 131/188/388 140/197/388 139/196/388
f 132/189/389 141/198/389 140/197/389
f 133/190/390 142/199/390 141/198/390
f 134/191/391 143/200/391 142/199/391
f 135/193/392 144/202/392 143/200/392
f 136/201/393 145/210/393 144/202/393
f 138/195/394 147/204/394 146/203/394
f 139/196/395 148/205/395 147/204/395
f 140/197/396 149/206/396 148/205/396
f 141/198/397 150/207/397 149/206/397
f 142/199/398 151/208/398 150/207/398
f 143/200/399 152/209/399 151/208/399
f 144/202/400 153/211/400 152/209/400
f 145/210/401 154/226/401 153/211/401
f 147/204/402 156/876/402 155/212/402
f 148/213/403 157/877/403 156/214/403
f 149/206/404 158/878/404 157/216/404
f 149/217/405 150/879/405 159/218/405
f 151/220/406 160/224/406 159/221/406
f 152/223/407 161/880/407 160/224/407
f 153/211/408 162/227/408 161/225/408
f 154/226/409 163/881/409 162/227/409
f 173/228/410 174/247/410 165/229/410
f 165/229/411 174/247/411 175/231/411
f 175/231/412 176/882/412 167/233/412
f 176/234/413 177/252/413 168/235/413
f 177/237/414 178/240/414 169/238/414
f 178/240/415 179/242/415 170/241/415
f 179/242/416 180/244/416 171/243/416
f 180/244/417 181/257/417 172/245/417
f 182/246/418 183/259/418 174/247/418
f 174/247/419 183/259/419 184/248/419
f 184/249/420 185/251/420 176/234/420
f 185/251/421 186/263/421 177/252/421
f 186/253/422 187/254/422 178/240/422
f 187/254/423 188/255/423 179/242/423
f 188/255/424 189/256/424 180/244/424
f 189/256/425 190/268/425 181/257/425
f 191/258/426 192/260/426 183/259/426
f 192/260/427 193/883/427 184/248/427
f 193/261/428 194/262/428 185/251/428
f 194/262/429 195/884/429 186/263/429
f 195/264/430 196/265/430 187/254/430
f 196/265/431 197/266/431 188/255/431
f 197/266/432 198/267/432 189/256/432
f 198/267/433 199/279/433 190/268/433
f 191/258/434 200/281/434 201/269/434
f 201/270/435 202/272/435 193/261/435
f 202/272/436 203/284/436 194/262/436
f 203/273/437 204/275/437 195/264/437
f 204/275/438 205/276/438 196/265/438
f 205/276/439 206/277/439 197/266/439
f 206/277/440 207/278/440 198/267/440
f 207/278/441 208/290/441 199/279/441
f 209/280/442 210/292/442 201/269/442
f 210/282/443 211/283/443 202/272/443
f 211/283/444 212/295/444 203/284/444
f 212/285/445 213/286/445 204/275/445
f 213/286/446 214/287/446 205/276/446
f 214/287/447 215/288/447 206/277/447
f 215/288/448 216/303/448 207/278/448
f 207/278/449 216/303/449 217/289/449
f 218/291/450 219/885/450 210/292/450
f 219/293/451 220/294/451 211/283/451
f 220/294/452 221/886/452 212/295/452
f 212/296/453 221/887/453 222/297/453
f 222/297/454 223/300/454 214/299/454
f 223/300/455 224/345/455 215/301/455
f 224/302/456 225/304/456 216/303/456
f 225/304/457 226/888/457 217/289/457
f 101/305/458 164/889/458 165/306/458
f 102/307/459 165/306/459 166/308/459
f 104/310/460 103/309/460 166/308/460
f 105/312/461 104/310/461 167/311/461
f 106/314/462 105/312/462 168/313/462
f 107/316/463 106/314/463 169/315/463
f 107/316/464 170/317/464 171/318/464
f 108/319/465 171/318/465 172/320/465
f 101/322/466 110/328/466 173/323/466
f 109/325/467 172/890/467 181/326/467
f 110/328/468 119/332/468 182/329/468
f 118/327/469 181/326/469 190/330/469
f 119/332/470 128/348/470 191/333/470
f 127/331/471 190/330/471 199/334/471
f 145/336/472 136/335/472 199/334/472
f 137/338/473 146/347/473 209/339/473
f 154/341/474 145/336/474 208/337/474
f 161/343/475 162/350/475 225/344/475
f 155/346/476 218/891/476 209/339/476
f 128/348/477 137/338/477 200/340/477
f 163/349/478 226/892/478 225/344/478
f 156/351/479 219/355/479 218/352/479
f 157/354/480 220/357/480 219/355/480
f 157/354/481 158/893/481 221/356/481
f 163/358/482 154/341/482 217/342/482
f 160/360/483 161/343/483 224/345/483
f 158/361/484 159/894/484 222/362/484
f 159/364/485 160/895/485 223/365/485
