# Blender 4.0.2
# www.blender.org
mtllib pillar.mtl
o pillar
v 0.000000 -1.500000 -0.300000
v 0.000000 -1.239566 -0.300000
v 0.212132 -1.500000 -0.212132
v 0.212132 -1.239566 -0.212132
v 0.300000 -1.500000 0.000000
v 0.300000 -1.239566 0.000000
v 0.212132 -1.500000 0.212132
v 0.212132 -1.239566 0.212132
v 0.000000 -1.500000 0.300000
v 0.000000 -1.239566 0.300000
v -0.212132 -1.500000 0.212132
v -0.212132 -1.239566 0.212132
v -0.300000 -1.500000 0.000000
v -0.300000 -1.239566 0.000000
v -0.212132 -1.500000 -0.212132
v -0.212132 -1.239566 -0.212132
v 0.000000 -1.239566 -0.250000
v 0.000000 -1.079299 -0.250000
v 0.125000 -1.239566 -0.216506
v 0.125000 -1.079299 -0.216506
v 0.216506 -1.239566 -0.125000
v 0.216506 -1.079299 -0.125000
v 0.250000 -1.239566 0.000000
v 0.250000 -1.079299 0.000000
v 0.216506 -1.239566 0.125000
v 0.216506 -1.079299 0.125000
v 0.125000 -1.239566 0.216506
v 0.125000 -1.079299 0.216506
v 0.000000 -1.239566 0.250000
v 0.000000 -1.079299 0.250000
v -0.125000 -1.239566 0.216506
v -0.125000 -1.079299 0.216506
v -0.216506 -1.239566 0.125000
v -0.216506 -1.079299 0.125000
v -0.250000 -1.239566 0.000000
v -0.250000 -1.079299 0.000000
v -0.216506 -1.239566 -0.125000
v -0.216506 -1.079299 -0.125000
v -0.125000 -1.239566 -0.216506
v -0.125000 -1.079299 -0.216506
v 0.000000 -1.099332 -0.191667
v 0.000000 1.104340 -0.179167
v 0.073348 -1.099332 -0.177077
v 0.068564 1.104340 -0.165528
v 0.135529 -1.099332 -0.135529
v 0.126690 1.104340 -0.126690
v 0.177077 -1.099332 -0.073348
v 0.165528 1.104340 -0.068564
v 0.191667 -1.099332 0.000000
v 0.179167 1.104340 0.000000
v 0.177077 -1.099332 0.073348
v 0.165528 1.104340 0.068564
v 0.135529 -1.099332 0.135529
v 0.126690 1.104340 0.126690
v 0.073348 -1.099332 0.177077
v 0.068564 1.104340 0.165528
v 0.000000 -1.099332 0.191667
v 0.000000 1.104340 0.179167
v -0.073348 -1.099332 0.177077
v -0.068564 1.104340 0.165528
v -0.135529 -1.099332 0.135529
v -0.126690 1.104340 0.126690
v -0.177077 -1.099332 0.073348
v -0.165528 1.104340 0.068564
v -0.191667 -1.099332 0.000000
v -0.179167 1.104340 0.000000
v -0.177077 -1.099332 -0.073348
v -0.165528 1.104340 -0.068564
v -0.135529 -1.099332 -0.135529
v -0.126690 1.104340 -0.126690
v -0.073348 -1.099332 -0.177077
v -0.068564 1.104340 -0.165528
v 0.207499 -0.998976 -0.000007
v 0.195833 1.004363 0.000007
v 0.196250 -0.999071 0.019478
v 0.184583 1.004268 0.019493
v 0.173750 -0.999260 0.019478
v 0.162084 1.004079 0.019493
v 0.162501 -0.999355 -0.000007
v 0.150834 1.003984 0.000007
v 0.173750 -0.999260 -0.019493
v 0.162084 1.004079 -0.019478
v 0.196250 -0.999070 -0.019493
v 0.184583 1.004268 -0.019478
v 0.146717 -0.998976 -0.146724
v 0.138482 1.004363 -0.138475
v 0.152541 -0.999071 -0.124991
v 0.144306 1.004268 -0.116742
v 0.136631 -0.999260 -0.109082
v 0.128396 1.004079 -0.100832
v 0.114898 -0.999355 -0.114905
v 0.106663 1.003984 -0.106656
v 0.109074 -0.999260 -0.136638
v 0.100839 1.004079 -0.128389
v 0.124984 -0.999071 -0.152548
v 0.116749 1.004268 -0.144298
v 0.000000 -0.998976 -0.207492
v 0.000000 1.004363 -0.195840
v 0.019486 -0.999071 -0.196242
v 0.019486 1.004268 -0.184590
v 0.019486 -0.999260 -0.173743
v 0.019486 1.004079 -0.162091
v 0.000000 -0.999354 -0.162493
v 0.000000 1.003985 -0.150841
v -0.019486 -0.999260 -0.173743
v -0.019486 1.004079 -0.162091
v -0.019486 -0.999071 -0.196242
v -0.019486 1.004268 -0.184590
v -0.146717 -0.998976 -0.146724
v -0.138482 1.004363 -0.138475
v -0.124984 -0.999071 -0.152548
v -0.116749 1.004268 -0.144298
v -0.109074 -0.999260 -0.136638
v -0.100839 1.004079 -0.128389
v -0.114898 -0.999355 -0.114905
v -0.106663 1.003984 -0.106656
v -0.136631 -0.999260 -0.109082
v -0.128396 1.004079 -0.100832
v -0.152541 -0.999071 -0.124991
v -0.144306 1.004268 -0.116742
v -0.207499 -0.998976 -0.000007
v -0.195833 1.004363 0.000007
v -0.196250 -0.999070 -0.019493
v -0.184583 1.004268 -0.019478
v -0.173750 -0.999260 -0.019493
v -0.162084 1.004079 -0.019478
v -0.162501 -0.999355 -0.000007
v -0.150834 1.003984 0.000007
v -0.173750 -0.999260 0.019478
v -0.162084 1.004079 0.019493
v -0.196250 -0.999071 0.019478
v -0.184583 1.004268 0.019493
v -0.146732 -0.998976 0.146724
v -0.138467 1.004363 0.138475
v -0.152555 -0.999070 0.124991
v -0.144291 1.004268 0.116742
v -0.136646 -0.999260 0.109082
v -0.128382 1.004079 0.100832
v -0.114913 -0.999355 0.114905
v -0.106648 1.003984 0.106656
v -0.109089 -0.999260 0.136638
v -0.100825 1.004079 0.128389
v -0.124998 -0.999071 0.152548
v -0.116734 1.004268 0.144298
v 0.000000 -0.998976 0.207507
v 0.000000 1.004363 0.195826
v -0.019486 -0.999071 0.196257
v -0.019486 1.004268 0.184576
v -0.019486 -0.999260 0.173758
v -0.019486 1.004079 0.162076
v -0.000000 -0.999355 0.162508
v -0.000000 1.003984 0.150827
v 0.019486 -0.999260 0.173758
v 0.019486 1.004079 0.162076
v 0.019486 -0.999071 0.196257
v 0.019486 1.004268 0.184576
v 0.146732 -0.998976 0.146724
v 0.138467 1.004363 0.138475
v 0.124998 -0.999071 0.152548
v 0.116734 1.004268 0.144298
v 0.109089 -0.999260 0.136638
v 0.100825 1.004079 0.128389
v 0.114913 -0.999355 0.114905
v 0.106648 1.003984 0.106656
v 0.136646 -0.999260 0.109082
v 0.128382 1.004079 0.100832
v 0.152555 -0.999070 0.124991
v 0.144291 1.004268 0.116742
v 0.000000 -1.069282 -0.233333
v 0.000000 -0.949082 -0.233333
v 0.089293 -1.069282 -0.215572
v 0.089293 -0.949082 -0.215572
v 0.164992 -1.069282 -0.164992
v 0.164992 -0.949082 -0.164992
v 0.215572 -1.069282 -0.089293
v 0.215572 -0.949082 -0.089293
v 0.233333 -1.069282 0.000000
v 0.233333 -0.949082 0.000000
v 0.215572 -1.069282 0.089293
v 0.215572 -0.949082 0.089293
v 0.164992 -1.069282 0.164992
v 0.164992 -0.949082 0.164992
v 0.089293 -1.069282 0.215572
v 0.089293 -0.949082 0.215572
v 0.000000 -1.069282 0.233333
v 0.000000 -0.949082 0.233333
v -0.089293 -1.069282 0.215572
v -0.089293 -0.949082 0.215572
v -0.164992 -1.069282 0.164992
v -0.164992 -0.949082 0.164992
v -0.215572 -1.069282 0.089293
v -0.215572 -0.949082 0.089293
v -0.233333 -1.069282 0.000000
v -0.233333 -0.949082 0.000000
v -0.215572 -1.069282 -0.089293
v -0.215572 -0.949082 -0.089293
v -0.164992 -1.069282 -0.164992
v -0.164992 -0.949082 -0.164992
v -0.089293 -1.069282 -0.215572
v -0.089293 -0.949082 -0.215572
v 0.000000 0.974123 -0.233333
v 0.000000 1.094324 -0.233333
v 0.089293 0.974123 -0.215572
v 0.089293 1.094324 -0.215572
v 0.164992 0.974123 -0.164992
v 0.164992 1.094324 -0.164992
v 0.215572 0.974123 -0.089293
v 0.215572 1.094324 -0.089293
v 0.233333 0.974123 0.000000
v 0.233333 1.094324 0.000000
v 0.215572 0.974123 0.089293
v 0.215572 1.094324 0.089293
v 0.164992 0.974123 0.164992
v 0.164992 1.094324 0.164992
v 0.089293 0.974123 0.215572
v 0.089293 1.094324 0.215572
v 0.000000 0.974123 0.233333
v 0.000000 1.094324 0.233333
v -0.089293 0.974123 0.215572
v -0.089293 1.094324 0.215572
v -0.164992 0.974123 0.164992
v -0.164992 1.094324 0.164992
v -0.215572 0.974123 0.089293
v -0.215572 1.094324 0.089293
v -0.233333 0.974123 0.000000
v -0.233333 1.094324 0.000000
v -0.215572 0.974123 -0.089293
v -0.215572 1.094324 -0.089293
v -0.164992 0.974123 -0.164992
v -0.164992 1.094324 -0.164992
v -0.089293 0.974123 -0.215572
v -0.089293 1.094324 -0.215572
v 0.000000 1.134391 -0.233333
v 0.000000 1.254591 -0.233333
v 0.089293 1.134391 -0.215572
v 0.089293 1.254591 -0.215572
v 0.164992 1.134391 -0.164992
v 0.164992 1.254591 -0.164992
v 0.215572 1.134391 -0.089293
v 0.215572 1.254591 -0.089293
v 0.233333 1.134391 0.000000
v 0.233333 1.254591 0.000000
v 0.215572 1.134391 0.089293
v 0.215572 1.254591 0.089293
v 0.164992 1.134391 0.164992
v 0.164992 1.254591 0.164992
v 0.089293 1.134391 0.215572
v 0.089293 1.254591 0.215572
v 0.000000 1.134391 0.233333
v 0.000000 1.254591 0.233333
v -0.089293 1.134391 0.215572
v -0.089293 1.254591 0.215572
v -0.164992 1.134391 0.164992
v -0.164992 1.254591 0.164992
v -0.215572 1.134391 0.089293
v -0.215572 1.254591 0.089293
v -0.233333 1.134391 0.000000
v -0.233333 1.254591 0.000000
v -0.215572 1.134391 -0.089293
v -0.215572 1.254591 -0.089293
v -0.164992 1.134391 -0.164992
v -0.164992 1.254591 -0.164992
v -0.089293 1.134391 -0.215572
v -0.089293 1.254591 -0.215572
v 0.000000 1.269616 -0.300000
v 0.000000 1.500000 -0.300000
v 0.212132 1.269616 -0.212132
v 0.212132 1.500000 -0.212132
v 0.300000 1.269616 0.000000
v 0.300000 1.500000 0.000000
v 0.212132 1.269616 0.212132
v 0.212132 1.500000 0.212132
v 0.000000 1.269616 0.300000
v 0.000000 1.500000 0.300000
v -0.212132 1.269616 0.212132
v -0.212132 1.500000 0.212132
v -0.300000 1.269616 0.000000
v -0.300000 1.500000 0.000000
v -0.212132 1.269616 -0.212132
v -0.212132 1.500000 -0.212132
vn -0.0000 0.6303 -0.7764
vn 0.5490 -0.6303 -0.5490
vn -0.0000 -0.6303 -0.7764
vn 0.5490 0.6303 -0.5490
vn 0.7764 -0.6303 -0.0000
vn 0.7764 0.6303 -0.0000
vn 0.5490 -0.6303 0.5490
vn 0.5490 0.6303 0.5490
vn -0.0000 -0.6303 0.7764
vn -0.0000 0.6303 0.7764
vn -0.5490 -0.6303 0.5490
vn -0.5490 0.6303 0.5490
vn -0.7764 -0.6303 -0.0000
vn -0.0000 1.0000 -0.0000
vn -0.7764 0.6303 -0.0000
vn -0.5490 -0.6303 -0.5490
vn -0.5490 0.6303 -0.5490
vn -0.0000 -1.0000 -0.0000
vn -0.0000 0.6532 -0.7572
vn 0.3786 -0.6532 -0.6557
vn -0.0000 -0.6532 -0.7572
vn 0.3786 0.6532 -0.6557
vn 0.6557 -0.6532 -0.3786
vn 0.6557 0.6532 -0.3786
vn 0.7572 -0.6532 -0.0000
vn 0.7572 0.6532 -0.0000
vn 0.6557 -0.6532 0.3786
vn 0.6557 0.6532 0.3786
vn 0.3786 -0.6532 0.6557
vn 0.3786 0.6532 0.6557
vn -0.0000 -0.6532 0.7572
vn -0.0000 0.6532 0.7572
vn -0.3786 -0.6532 0.6557
vn -0.3786 0.6532 0.6557
vn -0.6557 -0.6532 0.3786
vn -0.6557 0.6532 0.3786
vn -0.7572 -0.6532 -0.0000
vn -0.7572 0.6532 -0.0000
vn -0.6557 -0.6532 -0.3786
vn -0.6557 0.6532 -0.3786
vn -0.3786 -0.6532 -0.6557
vn -0.3786 0.6532 -0.6557
vn -0.0000 0.6678 -0.7443
vn 0.2863 -0.6636 -0.6911
vn -0.0000 -0.6636 -0.7481
vn 0.2848 0.6678 -0.6877
vn 0.5290 -0.6636 -0.5290
vn 0.6877 0.6678 -0.2848
vn 0.6911 -0.6636 -0.2863
vn 0.7481 -0.6636 -0.0000
vn 0.7443 0.6678 -0.0000
vn 0.6911 -0.6636 0.2863
vn 0.6877 0.6678 0.2848
vn 0.5290 -0.6636 0.5290
vn 0.2848 0.6678 0.6877
vn 0.2863 -0.6636 0.6911
vn -0.0000 -0.6636 0.7481
vn -0.0000 0.6678 0.7443
vn -0.2863 -0.6636 0.6911
vn -0.2848 0.6678 0.6877
vn -0.5290 -0.6636 0.5290
vn -0.6877 0.6678 0.2848
vn -0.6911 -0.6636 0.2863
vn -0.7481 -0.6636 -0.0000
vn -0.7443 0.6678 -0.0000
vn -0.6911 -0.6636 -0.2863
vn -0.6877 0.6678 -0.2848
vn -0.5290 -0.6636 -0.5290
vn -0.2848 0.6678 -0.6877
vn -0.2863 -0.6636 -0.6911
vn 0.7968 -0.6043 -0.0000
vn 0.3917 0.6128 0.6863
vn 0.4006 -0.6071 0.6862
vn -0.4006 0.6071 0.6862
vn -0.3917 -0.6128 0.6863
vn -0.7968 0.6043 -0.0000
vn -0.7880 -0.6157 -0.0000
vn -0.3917 -0.6128 -0.6863
vn -0.0084 1.0000 -0.0000
vn -0.4006 0.6071 -0.6862
vn 0.4006 -0.6071 -0.6862
vn 0.3917 0.6128 -0.6863
vn 0.0084 -1.0000 -0.0000
vn 0.5634 -0.6043 -0.5634
vn 0.7623 0.6128 0.2083
vn 0.7685 -0.6071 0.2019
vn 0.2019 0.6071 0.7685
vn 0.2083 -0.6128 0.7623
vn -0.5634 0.6043 0.5634
vn -0.5572 -0.6157 0.5572
vn -0.7623 -0.6128 -0.2083
vn -0.0059 1.0000 0.0060
vn -0.7685 0.6071 -0.2019
vn -0.2019 -0.6071 -0.7685
vn -0.2083 0.6128 -0.7623
vn 0.0059 -1.0000 -0.0059
vn -0.0000 -0.6043 -0.7968
vn 0.6863 0.6128 -0.3917
vn 0.6862 -0.6071 -0.4006
vn 0.6862 0.6071 0.4006
vn 0.6863 -0.6128 0.3917
vn -0.0000 0.6043 0.7968
vn -0.0000 -0.6157 0.7880
vn -0.6863 -0.6128 0.3917
vn -0.0000 1.0000 0.0084
vn -0.6862 0.6071 0.4006
vn -0.6862 -0.6071 -0.4006
vn -0.6863 0.6128 -0.3917
vn -0.0000 -1.0000 -0.0084
vn -0.5634 -0.6043 -0.5634
vn 0.2083 0.6128 -0.7623
vn 0.2019 -0.6071 -0.7685
vn 0.7685 0.6071 -0.2019
vn 0.7623 -0.6128 -0.2083
vn 0.5634 0.6043 0.5634
vn 0.5572 -0.6157 0.5572
vn -0.2083 -0.6128 0.7623
vn 0.0059 1.0000 0.0060
vn -0.2019 0.6071 0.7685
vn -0.7685 -0.6071 0.2019
vn -0.7623 0.6128 0.2083
vn -0.0059 -1.0000 -0.0059
vn -0.7968 -0.6043 -0.0000
vn -0.3917 0.6128 -0.6863
vn -0.4006 -0.6071 -0.6862
vn 0.4006 0.6071 -0.6862
vn 0.3917 -0.6128 -0.6863
vn 0.7968 0.6043 -0.0000
vn 0.7880 -0.6157 -0.0000
vn 0.3917 -0.6128 0.6863
vn 0.0084 1.0000 -0.0000
vn 0.4006 0.6071 0.6862
vn -0.4006 -0.6071 0.6862
vn -0.3917 0.6128 0.6863
vn -0.0084 -1.0000 -0.0000
vn -0.5634 -0.6043 0.5634
vn -0.7623 0.6128 -0.2083
vn -0.7685 -0.6071 -0.2019
vn -0.2019 0.6071 -0.7685
vn -0.2083 -0.6128 -0.7623
vn 0.5634 0.6043 -0.5634
vn 0.5572 -0.6157 -0.5572
vn 0.7623 -0.6128 0.2083
vn 0.0060 1.0000 -0.0059
vn 0.7685 0.6071 0.2019
vn 0.2019 -0.6071 0.7685
vn 0.2083 0.6128 0.7623
vn -0.0060 -1.0000 0.0059
vn -0.0000 -0.6043 0.7968
vn -0.6863 0.6128 0.3917
vn -0.6862 -0.6071 0.4007
vn -0.6862 0.6071 -0.4007
vn -0.6863 -0.6128 -0.3917
vn -0.0000 0.6043 -0.7968
vn -0.0000 -0.6157 -0.7880
vn 0.6863 -0.6128 -0.3917
vn -0.0000 1.0000 -0.0084
vn 0.6862 0.6071 -0.4007
vn 0.6862 -0.6071 0.4007
vn 0.6863 0.6128 0.3917
vn -0.0000 -1.0000 0.0084
vn 0.5634 -0.6043 0.5634
vn -0.2083 0.6128 0.7623
vn -0.2019 -0.6071 0.7685
vn -0.7685 0.6071 0.2019
vn -0.7623 -0.6128 0.2083
vn -0.5634 0.6043 -0.5634
vn -0.5572 -0.6157 -0.5572
vn 0.2083 -0.6128 -0.7623
vn -0.0060 1.0000 -0.0059
vn 0.2019 0.6071 -0.7685
vn 0.7685 -0.6071 -0.2019
vn 0.7623 0.6128 -0.2083
vn 0.0060 -1.0000 0.0059
vn -0.0000 0.6657 -0.7462
vn 0.2856 -0.6657 -0.6894
vn -0.0000 -0.6657 -0.7462
vn 0.2856 0.6657 -0.6894
vn 0.5276 -0.6657 -0.5276
vn 0.5276 0.6657 -0.5276
vn 0.6894 -0.6657 -0.2856
vn 0.6894 0.6657 -0.2856
vn 0.7462 -0.6657 -0.0000
vn 0.7462 0.6657 -0.0000
vn 0.6894 -0.6657 0.2856
vn 0.6894 0.6657 0.2856
vn 0.5276 -0.6657 0.5276
vn 0.5276 0.6657 0.5276
vn 0.2856 -0.6657 0.6894
vn 0.2856 0.6657 0.6894
vn -0.0000 -0.6657 0.7462
vn -0.0000 0.6657 0.7462
vn -0.2856 -0.6657 0.6894
vn -0.2856 0.6657 0.6894
vn -0.5276 -0.6657 0.5276
vn -0.5276 0.6657 0.5276
vn -0.6894 -0.6657 0.2856
vn -0.6894 0.6657 0.2856
vn -0.7462 -0.6657 -0.0000
vn -0.7462 0.6657 -0.0000
vn -0.6894 -0.6657 -0.2856
vn -0.6894 0.6657 -0.2856
vn -0.5276 -0.6657 -0.5276
vn -0.5276 0.6657 -0.5276
vn -0.2856 -0.6657 -0.6894
vn -0.2856 0.6657 -0.6894
vn 0.5263 0.6678 -0.5263
vn 0.5263 0.6678 0.5263
vn -0.5263 0.6678 0.5263
vn -0.5263 0.6678 -0.5263
vn 0.7880 0.6157 -0.0000
vn 0.5572 0.6157 -0.5572
vn -0.0059 1.0000 0.0059
vn -0.0060 1.0000 0.0060
vn 0.0059 -1.0000 -0.0060
vn -0.0000 0.6157 -0.7880
vn -0.5572 0.6157 -0.5572
vn 0.0059 1.0000 0.0059
vn 0.0060 1.0000 0.0060
vn -0.0059 -1.0000 -0.0060
vn -0.7880 0.6157 -0.0000
vn -0.5572 0.6157 0.5572
vn 0.0060 1.0000 -0.0060
vn -0.0000 0.6157 0.7880
vn 0.5572 0.6157 0.5572
vn -0.0060 1.0000 -0.0060
vt 0.443607 0.963611
vt 0.511642 0.902859
vt 0.511633 0.963611
vt 0.443615 0.902859
vt 0.511617 0.851387
vt 0.624631 0.962488
vt 0.692663 0.901255
vt 0.692657 0.962488
vt 0.624637 0.901255
vt 0.692639 0.851389
vt 0.958489 0.832217
vt 0.890462 0.894145
vt 0.890462 0.832217
vt 0.958488 0.894145
vt 0.890486 0.938503
vt 0.486000 0.700315
vt 0.443591 0.594588
vt 0.545975 0.550795
vt 0.967762 0.000000
vt 0.899735 0.061928
vt 0.899736 0.000000
vt 0.967762 0.061928
vt 0.899759 0.106286
vt 0.000000 0.710538
vt 0.042409 0.604812
vt 0.144793 0.648605
vt 0.404502 0.573832
vt 0.362631 0.606893
vt 0.362639 0.573832
vt 0.404494 0.606893
vt 0.362636 0.641124
vt 0.404499 0.641124
vt 0.362653 0.667352
vt 0.404500 0.677752
vt 0.362631 0.711285
vt 0.362638 0.677752
vt 0.404494 0.711285
vt 0.362637 0.745172
vt 0.744613 0.851389
vt 0.702738 0.878803
vt 0.702750 0.851389
vt 0.744601 0.878803
vt 0.702735 0.913348
vt 0.744598 0.913348
vt 0.702743 0.945768
vt 0.941612 0.350061
vt 0.899738 0.377475
vt 0.899750 0.350061
vt 0.941600 0.377475
vt 0.899735 0.412021
vt 0.523568 0.840986
vt 0.443591 0.758398
vt 0.552842 0.728169
vt 0.941598 0.412021
vt 0.899742 0.444440
vt 0.404520 0.550799
vt 0.362658 0.550799
vt 0.670788 0.840988
vt 0.641514 0.728170
vt 0.750765 0.758400
vt 0.257441 0.000010
vt 0.273681 0.594418
vt 0.255629 0.594412
vt 0.274316 0.000015
vt 0.293215 0.594418
vt 0.309442 0.000010
vt 0.311257 0.594412
vt 0.164364 0.000000
vt 0.176165 0.594411
vt 0.161735 0.594402
vt 0.177853 0.000009
vt 0.194536 0.594416
vt 0.195025 0.000013
vt 0.214049 0.594415
vt 0.229799 0.000007
vt 0.231735 0.594409
vt 0.002339 0.000000
vt 0.016100 0.594409
vt 0.000000 0.594402
vt 0.017388 0.000006
vt 0.035207 0.594411
vt 0.035250 0.000008
vt 0.054414 0.594409
vt 0.068517 0.000001
vt 0.070795 0.594403
vt 0.083206 0.000000
vt 0.096967 0.594409
vt 0.080867 0.594402
vt 0.098256 0.000006
vt 0.116075 0.594411
vt 0.116117 0.000008
vt 0.135281 0.594409
vt 0.221495 0.898597
vt 0.258264 0.955423
vt 0.203235 0.993393
vt 0.149384 0.000001
vt 0.151663 0.594403
vt 0.244521 0.000000
vt 0.241807 0.594402
vt 0.076916 0.906309
vt 0.090729 0.978017
vt 0.021288 0.992281
vt 0.772372 0.540369
vt 0.778248 0.000008
vt 0.778248 0.540376
vt 0.504133 0.540371
vt 0.509533 0.000023
vt 0.509533 0.540394
vt 0.514242 0.000020
vt 0.514242 0.540391
vt 0.820165 0.000012
vt 0.826002 0.540364
vt 0.820165 0.540376
vt 0.433519 0.582440
vt 0.423340 0.582440
vt 0.428429 0.573337
vt 0.423361 0.000025
vt 0.428250 0.540373
vt 0.423361 0.540397
vt 0.428250 0.000001
vt 0.433519 0.540372
vt 0.433519 0.643987
vt 0.428429 0.653090
vt 0.423339 0.643987
vt 0.348143 0.540367
vt 0.351966 0.000023
vt 0.352559 0.540389
vt 0.693001 0.540373
vt 0.698707 0.000017
vt 0.698707 0.540390
vt 0.836074 0.540364
vt 0.841890 0.000013
vt 0.841890 0.540377
vt 0.584753 0.000020
vt 0.589369 0.540393
vt 0.584753 0.540391
vt 0.433519 0.553833
vt 0.428429 0.562936
vt 0.423340 0.553832
vt 0.589369 0.000022
vt 0.594827 0.540372
vt 0.341984 0.000024
vt 0.342577 0.540391
vt 0.347470 0.550791
vt 0.352560 0.559895
vt 0.342380 0.559895
vt 0.788320 0.540369
vt 0.794185 0.000006
vt 0.794185 0.540375
vt 0.382862 0.540370
vt 0.387893 0.000027
vt 0.387893 0.540397
vt 0.393039 0.000024
vt 0.393039 0.540394
vt 0.804257 0.000012
vt 0.810093 0.540364
vt 0.804257 0.540376
vt 0.352560 0.604972
vt 0.342380 0.604972
vt 0.347470 0.595869
vt 0.463772 0.000021
vt 0.469172 0.540374
vt 0.463772 0.540394
vt 0.469172 0.000002
vt 0.473880 0.540373
vt 0.342380 0.627511
vt 0.347470 0.618407
vt 0.352560 0.627511
vt 0.604899 0.540374
vt 0.608777 0.000006
vt 0.608777 0.540379
vt 0.614541 0.000022
vt 0.614541 0.540396
vt 0.660773 0.540362
vt 0.667151 0.000027
vt 0.666419 0.540389
vt 0.564607 0.000020
vt 0.569223 0.540393
vt 0.564607 0.540391
vt 0.326822 0.630545
vt 0.321732 0.621442
vt 0.331912 0.621442
vt 0.569223 0.000022
vt 0.574681 0.540372
vt 0.740595 0.000012
vt 0.746412 0.540367
vt 0.740595 0.540379
vt 0.331912 0.582433
vt 0.321732 0.582433
vt 0.326822 0.573330
vt 0.724687 0.540367
vt 0.730523 0.000011
vt 0.730523 0.540379
vt 0.362631 0.540369
vt 0.367520 0.000029
vt 0.367520 0.540398
vt 0.372790 0.000026
vt 0.372790 0.540396
vt 0.867850 0.000007
vt 0.873726 0.540365
vt 0.867850 0.540372
vt 0.321732 0.604972
vt 0.326822 0.595869
vt 0.331912 0.604972
vt 0.443591 0.000021
vt 0.448991 0.540374
vt 0.443591 0.540394
vt 0.448991 0.000002
vt 0.453700 0.540373
vt 0.614541 0.553831
vt 0.609451 0.562934
vt 0.604361 0.553831
vt 0.524314 0.540373
vt 0.528930 0.000002
vt 0.528930 0.540375
vt 0.534388 0.000021
vt 0.534388 0.540394
vt 0.321329 0.540363
vt 0.327496 0.000028
vt 0.326896 0.540390
vt 0.331312 0.540362
vt 0.326822 0.640946
vt 0.331912 0.650049
vt 0.321732 0.650049
vt 0.677223 0.000019
vt 0.682929 0.540372
vt 0.677223 0.540391
vt 0.756484 0.000012
vt 0.762300 0.540367
vt 0.756484 0.540379
vt 0.331912 0.559895
vt 0.321732 0.559895
vt 0.326822 0.550791
vt 0.708779 0.540367
vt 0.714615 0.000011
vt 0.714615 0.540379
vt 0.483952 0.540371
vt 0.489353 0.000023
vt 0.489353 0.540394
vt 0.494061 0.000020
vt 0.494061 0.540391
vt 0.883798 0.000006
vt 0.889663 0.540365
vt 0.883798 0.540371
vt 0.423340 0.598910
vt 0.433519 0.598910
vt 0.428429 0.608013
vt 0.403111 0.000024
vt 0.408142 0.540373
vt 0.403111 0.540396
vt 0.408142 0.000001
vt 0.413289 0.540372
vt 0.433519 0.621448
vt 0.428429 0.630552
vt 0.423340 0.621448
vt 0.544460 0.540373
vt 0.549076 0.000002
vt 0.549076 0.540375
vt 0.554535 0.000021
vt 0.554535 0.540394
vt 0.851962 0.540364
vt 0.857778 0.000013
vt 0.857778 0.540377
vt 0.624613 0.000017
vt 0.628491 0.540390
vt 0.624613 0.540390
vt 0.347470 0.640946
vt 0.352560 0.650049
vt 0.342380 0.650049
vt 0.628491 0.000018
vt 0.634254 0.540372
vt 0.644326 0.000024
vt 0.650701 0.540366
vt 0.645055 0.540391
vt 0.347470 0.573330
vt 0.352559 0.582433
vt 0.342380 0.582434
vt 0.992139 0.728093
vt 0.960735 0.750787
vt 0.960742 0.728093
vt 0.992132 0.750787
vt 0.960735 0.775344
vt 0.992132 0.775344
vt 0.960742 0.798026
vt 0.981995 0.550797
vt 0.950588 0.568938
vt 0.950598 0.550797
vt 0.981984 0.568938
vt 0.950582 0.592032
vt 0.981979 0.592032
vt 0.950583 0.616563
vt 0.981980 0.616563
vt 0.950590 0.638797
vt 0.940510 0.550797
vt 0.909105 0.571036
vt 0.909113 0.550797
vt 0.940502 0.571036
vt 0.909103 0.595057
vt 0.940499 0.595057
vt 0.909105 0.619202
vt 0.940502 0.619202
vt 0.909113 0.639796
vt 0.611222 0.710716
vt 0.579818 0.730955
vt 0.579825 0.710716
vt 0.611215 0.730955
vt 0.579815 0.754976
vt 0.611212 0.754976
vt 0.579817 0.779122
vt 0.009100 0.861427
vt 0.025916 0.774130
vt 0.110453 0.791494
vt 0.611214 0.779122
vt 0.579825 0.799715
vt 0.992151 0.710717
vt 0.960754 0.710717
vt 0.166465 0.838746
vt 0.214351 0.764739
vt 0.286018 0.814189
vt 0.999988 0.849593
vt 0.968584 0.872287
vt 0.968591 0.849593
vt 0.999981 0.872287
vt 0.968584 0.896844
vt 0.999981 0.896844
vt 0.968591 0.919526
vt 0.983097 0.350061
vt 0.951690 0.368202
vt 0.951701 0.350061
vt 0.983087 0.368202
vt 0.951684 0.391296
vt 0.983081 0.391296
vt 0.951685 0.415827
vt 0.983082 0.415827
vt 0.951692 0.438061
vt 0.299744 0.898597
vt 0.268339 0.918836
vt 0.268347 0.898597
vt 0.299736 0.918836
vt 0.268336 0.942857
vt 0.299733 0.942857
vt 0.268339 0.967002
vt 0.299736 0.967002
vt 0.268346 0.987596
vt 0.139684 0.898590
vt 0.108279 0.918829
vt 0.108287 0.898590
vt 0.139676 0.918829
vt 0.108276 0.942850
vt 0.139673 0.942850
vt 0.108279 0.966995
vt 0.305190 0.861434
vt 0.322006 0.774137
vt 0.406542 0.791501
vt 0.139676 0.966995
vt 0.108286 0.987589
vt 1.000000 0.832217
vt 0.968603 0.832217
vt 0.760837 0.784724
vt 0.808723 0.710717
vt 0.880390 0.760167
vt 0.983088 0.465838
vt 0.951684 0.488532
vt 0.951691 0.465838
vt 0.983081 0.488532
vt 0.951684 0.513089
vt 0.983081 0.513089
vt 0.951691 0.535770
vt 0.424187 0.898597
vt 0.392780 0.916737
vt 0.392791 0.898597
vt 0.424177 0.916737
vt 0.392774 0.939832
vt 0.424171 0.939832
vt 0.392775 0.964363
vt 0.424172 0.964363
vt 0.392782 0.986597
vt 0.341223 0.898597
vt 0.309819 0.918836
vt 0.309826 0.898597
vt 0.341215 0.918836
vt 0.309816 0.942857
vt 0.341213 0.942857
vt 0.309818 0.967002
vt 0.341215 0.967002
vt 0.309826 0.987596
vt 0.382702 0.898597
vt 0.351298 0.918836
vt 0.351306 0.898597
vt 0.382695 0.918836
vt 0.351295 0.942857
vt 0.382692 0.942857
vt 0.351298 0.967002
vt 0.788578 0.647491
vt 0.805394 0.560194
vt 0.889930 0.577559
vt 0.382694 0.967002
vt 0.351305 0.987596
vt 0.983100 0.448462
vt 0.951703 0.448462
vt 0.760837 0.918581
vt 0.808723 0.844574
vt 0.880390 0.894024
vt 0.521729 0.963611
vt 0.581915 0.902859
vt 0.581907 0.963611
vt 0.521738 0.902859
vt 0.581891 0.851387
vt 0.890480 0.821816
vt 0.950663 0.760584
vt 0.950657 0.821816
vt 0.890486 0.760584
vt 0.950639 0.710717
vt 0.899759 0.222973
vt 0.959936 0.161045
vt 0.959936 0.222973
vt 0.899759 0.161045
vt 0.959912 0.116687
vt 0.208874 0.754339
vt 0.166465 0.648612
vt 0.268849 0.604819
vt 0.899759 0.339660
vt 0.959936 0.277732
vt 0.959936 0.339660
vt 0.899759 0.277732
vt 0.959912 0.233374
vt 0.624613 0.656523
vt 0.667022 0.550797
vt 0.769406 0.594590
vt 0.443591 0.851387
vt 0.624613 0.851389
vt 0.958512 0.938503
vt 0.588384 0.594588
vt 0.588384 0.656522
vt 0.545975 0.700315
vt 0.443591 0.656522
vt 0.486000 0.550795
vt 0.967786 0.106286
vt 0.144793 0.710538
vt 0.102384 0.754332
vt 0.042409 0.754332
vt 0.000000 0.648605
vt 0.102384 0.604812
vt 0.404515 0.667352
vt 0.404499 0.745172
vt 0.744605 0.945768
vt 0.569743 0.758398
vt 0.569743 0.793304
vt 0.552842 0.823533
vt 0.489766 0.840986
vt 0.460492 0.823533
vt 0.443591 0.793304
vt 0.460492 0.728169
vt 0.489766 0.710716
vt 0.523568 0.710716
vt 0.941605 0.444440
vt 0.750765 0.793305
vt 0.733864 0.823535
vt 0.704590 0.840988
vt 0.641514 0.823535
vt 0.624613 0.793305
vt 0.624613 0.758400
vt 0.670788 0.710717
vt 0.704590 0.710717
vt 0.733864 0.728170
vt 0.292576 0.000015
vt 0.213266 0.000012
vt 0.053204 0.000006
vt 0.134071 0.000006
vt 0.186364 0.986177
vt 0.173453 0.972844
vt 0.166465 0.955423
vt 0.166465 0.936567
vt 0.173453 0.919146
vt 0.186364 0.905812
vt 0.203235 0.898597
vt 0.238365 0.905812
vt 0.251277 0.919146
vt 0.258264 0.936567
vt 0.251277 0.972844
vt 0.238365 0.986177
vt 0.221495 0.993393
vt 0.007475 0.978017
vt 0.000000 0.959381
vt 0.000000 0.939209
vt 0.007475 0.920573
vt 0.021288 0.906309
vt 0.039335 0.898590
vt 0.058869 0.898590
vt 0.090729 0.920573
vt 0.098204 0.939209
vt 0.098204 0.959381
vt 0.076916 0.992281
vt 0.058869 1.000000
vt 0.039335 1.000000
vt 0.772372 0.000000
vt 0.504133 0.000000
vt 0.826002 0.000000
vt 0.433519 0.576371
vt 0.428429 0.585474
vt 0.423340 0.576371
vt 0.433519 0.000000
vt 0.428429 0.640952
vt 0.433519 0.650056
vt 0.423339 0.650056
vt 0.347550 0.000000
vt 0.693001 0.000000
vt 0.836074 0.000000
vt 0.428429 0.550798
vt 0.433519 0.559901
vt 0.423340 0.559901
vt 0.594827 0.000000
vt 0.342380 0.553826
vt 0.352560 0.553826
vt 0.347470 0.562929
vt 0.788320 0.000000
vt 0.382862 0.000000
vt 0.810093 0.000000
vt 0.352559 0.598903
vt 0.347470 0.608007
vt 0.342380 0.598903
vt 0.473880 0.000000
vt 0.347470 0.630545
vt 0.342380 0.621442
vt 0.352560 0.621442
vt 0.604899 0.000000
vt 0.661506 0.000000
vt 0.331912 0.627511
vt 0.321732 0.627511
vt 0.326822 0.618407
vt 0.574681 0.000000
vt 0.746412 0.000000
vt 0.331912 0.576365
vt 0.326822 0.585468
vt 0.321732 0.576364
vt 0.724687 0.000000
vt 0.362631 0.000000
vt 0.873726 0.000000
vt 0.326822 0.608007
vt 0.321732 0.598903
vt 0.331912 0.598903
vt 0.453700 0.000000
vt 0.609451 0.550796
vt 0.614541 0.559900
vt 0.604361 0.559900
vt 0.524314 0.000000
vt 0.321929 0.000001
vt 0.331912 0.000000
vt 0.321732 0.643980
vt 0.331912 0.643980
vt 0.326822 0.653083
vt 0.682929 0.000000
vt 0.762300 0.000000
vt 0.331912 0.553826
vt 0.326822 0.562929
vt 0.321732 0.553826
vt 0.708779 0.000000
vt 0.483952 0.000000
vt 0.889663 0.000000
vt 0.423340 0.604979
vt 0.428429 0.595875
vt 0.433519 0.604979
vt 0.413289 0.000000
vt 0.428429 0.618414
vt 0.433519 0.627517
vt 0.423340 0.627517
vt 0.544460 0.000000
vt 0.851962 0.000000
vt 0.342380 0.643980
vt 0.352560 0.643980
vt 0.347470 0.653084
vt 0.634254 0.000000
vt 0.649972 0.000000
vt 0.342380 0.576365
vt 0.352559 0.576364
vt 0.347470 0.585468
vt 0.992139 0.798026
vt 0.981987 0.638797
vt 0.940509 0.639796
vt 0.119553 0.814182
vt 0.119553 0.838739
vt 0.110453 0.861427
vt 0.093637 0.878791
vt 0.071667 0.888189
vt 0.047886 0.888189
vt 0.025916 0.878791
vt 0.000000 0.838739
vt 0.000000 0.814182
vt 0.009100 0.791494
vt 0.047886 0.764733
vt 0.071667 0.764733
vt 0.093637 0.774130
vt 0.611222 0.799715
vt 0.286018 0.838746
vt 0.276917 0.861434
vt 0.260102 0.878798
vt 0.238132 0.888196
vt 0.214351 0.888196
vt 0.192381 0.878798
vt 0.175565 0.861434
vt 0.166465 0.814189
vt 0.175565 0.791501
vt 0.192381 0.774137
vt 0.238132 0.764739
vt 0.260102 0.774137
vt 0.276917 0.791501
vt 0.999988 0.919526
vt 0.983089 0.438061
vt 0.299743 0.987596
vt 0.415643 0.814189
vt 0.415643 0.838746
vt 0.406542 0.861434
vt 0.389727 0.878798
vt 0.367757 0.888196
vt 0.343976 0.888196
vt 0.322006 0.878798
vt 0.296090 0.838746
vt 0.296090 0.814189
vt 0.305190 0.791501
vt 0.343976 0.764739
vt 0.367757 0.764739
vt 0.389727 0.774137
vt 0.139683 0.987589
vt 0.880390 0.784724
vt 0.871289 0.807411
vt 0.854474 0.824776
vt 0.832504 0.834173
vt 0.808723 0.834173
vt 0.786753 0.824776
vt 0.769937 0.807411
vt 0.760837 0.760167
vt 0.769937 0.737479
vt 0.786753 0.720115
vt 0.832504 0.710717
vt 0.854474 0.720115
vt 0.871289 0.737479
vt 0.983088 0.535770
vt 0.424179 0.986597
vt 0.341222 0.987596
vt 0.899031 0.600246
vt 0.899031 0.624803
vt 0.889930 0.647491
vt 0.873115 0.664855
vt 0.851144 0.674253
vt 0.827364 0.674253
vt 0.805394 0.664855
vt 0.779478 0.624803
vt 0.779478 0.600246
vt 0.788578 0.577559
vt 0.827364 0.550797
vt 0.851144 0.550797
vt 0.873115 0.560194
vt 0.382702 0.987596
vt 0.880390 0.918581
vt 0.871289 0.941269
vt 0.854474 0.958633
vt 0.832504 0.968031
vt 0.808723 0.968031
vt 0.786753 0.958633
vt 0.769937 0.941269
vt 0.760837 0.894024
vt 0.769937 0.871336
vt 0.786753 0.853972
vt 0.832504 0.844574
vt 0.854474 0.853972
vt 0.871289 0.871336
vt 0.521714 0.851387
vt 0.890462 0.710717
vt 0.899735 0.116687
vt 0.311257 0.648612
vt 0.311257 0.710545
vt 0.268849 0.754339
vt 0.166465 0.710545
vt 0.208874 0.604819
vt 0.899735 0.233374
vt 0.769406 0.656523
vt 0.726997 0.700316
vt 0.667022 0.700316
vt 0.624613 0.594590
vt 0.726997 0.550797
s 1
usemtl MMO_stone
f 2/1/1 3/2/2 1/3/3
f 4/4/4 5/5/5 3/2/2
f 6/6/6 7/7/7 5/8/5
f 8/9/8 9/10/9 7/7/7
f 10/11/10 11/12/11 9/13/9
f 12/14/12 13/15/13 11/12/11
s 0
f 14/16/14 10/17/14 6/18/14
s 1
f 14/19/15 15/20/16 13/21/13
f 16/22/17 1/23/3 15/20/16
s 0
f 7/24/18 11/25/18 15/26/18
s 1
f 42/61/43 43/62/44 41/63/45
f 44/64/46 45/65/47 43/62/44
f 45/65/47 48/66/48 47/67/49
f 48/68/48 49/69/50 47/70/49
f 50/71/51 51/72/52 49/69/50
f 52/73/53 53/74/54 51/72/52
f 53/74/54 56/75/55 55/76/56
f 56/77/55 57/78/57 55/79/56
f 58/80/58 59/81/59 57/78/57
f 60/82/60 61/83/61 59/81/59
f 61/83/61 64/84/62 63/85/63
f 64/86/62 65/87/64 63/88/63
f 66/89/65 67/90/66 65/87/64
f 68/91/67 69/92/68 67/90/66
s 0
f 62/93/14 54/94/14 46/95/14
s 1
f 69/92/68 72/96/69 71/97/70
f 72/98/69 41/63/45 71/99/70
s 0
f 55/100/18 63/101/18 71/102/18
s 1
f 266/404/1 267/405/2 265/406/3
f 268/407/4 269/408/5 267/405/2
f 270/409/6 271/410/7 269/411/5
f 272/412/8 273/413/9 271/410/7
f 274/414/10 275/415/11 273/416/9
f 276/417/12 277/418/13 275/415/11
s 0
f 278/419/14 274/420/14 270/421/14
s 1
f 278/422/15 279/423/16 277/424/13
f 280/425/17 265/426/3 279/423/16
s 0
f 271/427/18 275/428/18 279/429/18
s 1
f 2/1/1 4/4/4 3/2/2
f 4/4/4 6/430/6 5/5/5
f 6/6/6 8/9/8 7/7/7
f 8/9/8 10/431/10 9/10/9
f 10/11/10 12/14/12 11/12/11
f 12/14/12 14/432/15 13/15/13
s 0
f 6/18/14 4/433/14 2/434/14
f 2/434/14 16/435/14 14/16/14
f 14/16/14 12/436/14 10/17/14
f 10/17/14 8/437/14 6/18/14
f 6/18/14 2/434/14 14/16/14
s 1
f 14/19/15 16/22/17 15/20/16
f 16/22/17 2/438/1 1/23/3
s 0
f 15/26/18 1/439/18 3/440/18
f 3/440/18 5/441/18 7/24/18
f 7/24/18 9/442/18 11/25/18
f 11/25/18 13/443/18 15/26/18
f 15/26/18 3/440/18 7/24/18
s 1
f 42/61/43 44/64/46 43/62/44
f 44/64/46 46/466/207 45/65/47
f 45/65/47 46/466/207 48/66/48
f 48/68/48 50/71/51 49/69/50
f 50/71/51 52/73/53 51/72/52
f 52/73/53 54/467/208 53/74/54
f 53/74/54 54/467/208 56/75/55
f 56/77/55 58/80/58 57/78/57
f 58/80/58 60/82/60 59/81/59
f 60/82/60 62/468/209 61/83/61
f 61/83/61 62/468/209 64/84/62
f 64/86/62 66/89/65 65/87/64
f 66/89/65 68/91/67 67/90/66
f 68/91/67 70/469/210 69/92/68
s 0
f 46/95/14 44/470/14 42/471/14
f 42/471/14 72/472/14 70/473/14
f 70/473/14 68/474/14 66/475/14
f 66/475/14 64/476/14 62/93/14
f 62/93/14 60/477/14 58/478/14
f 58/478/14 56/479/14 54/94/14
f 54/94/14 52/480/14 50/481/14
f 50/481/14 48/482/14 46/95/14
f 46/95/14 42/471/14 70/473/14
f 70/473/14 66/475/14 62/93/14
f 62/93/14 58/478/14 54/94/14
f 54/94/14 50/481/14 46/95/14
f 46/95/14 70/473/14 62/93/14
s 1
f 69/92/68 70/469/210 72/96/69
f 72/98/69 42/61/43 41/63/45
s 0
f 71/102/18 41/483/18 43/484/18
f 43/484/18 45/485/18 47/486/18
f 47/486/18 49/487/18 51/488/18
f 51/488/18 53/489/18 55/100/18
f 55/100/18 57/490/18 59/491/18
f 59/491/18 61/492/18 63/101/18
f 63/101/18 65/493/18 67/494/18
f 67/494/18 69/495/18 71/102/18
f 71/102/18 43/484/18 47/486/18
f 47/486/18 51/488/18 55/100/18
f 55/100/18 59/491/18 63/101/18
f 63/101/18 67/494/18 71/102/18
f 71/102/18 47/486/18 55/100/18
s 1
f 266/404/1 268/407/4 267/405/2
f 268/407/4 270/667/6 269/408/5
f 270/409/6 272/412/8 271/410/7
f 272/412/8 274/668/10 273/413/9
f 274/414/10 276/417/12 275/415/11
f 276/417/12 278/669/15 277/418/13
s 0
f 270/421/14 268/670/14 266/671/14
f 266/671/14 280/672/14 278/419/14
f 278/419/14 276/673/14 274/420/14
f 274/420/14 272/674/14 270/421/14
f 270/421/14 266/671/14 278/419/14
s 1
f 278/422/15 280/425/17 279/423/16
f 280/425/17 266/675/1 265/426/3
s 0
f 279/429/18 265/676/18 267/677/18
f 267/677/18 269/678/18 271/427/18
f 271/427/18 273/679/18 275/428/18
f 275/428/18 277/680/18 279/429/18
f 279/429/18 267/677/18 271/427/18
s 1
usemtl MMO_limestone
f 18/27/19 19/28/20 17/29/21
f 20/30/22 21/31/23 19/28/20
f 22/32/24 23/33/25 21/31/23
f 24/34/26 25/35/27 23/36/25
f 26/37/28 27/38/29 25/35/27
f 28/39/30 29/40/31 27/41/29
f 30/42/32 31/43/33 29/40/31
f 32/44/34 33/45/35 31/43/33
f 34/46/36 35/47/37 33/48/35
f 36/49/38 37/50/39 35/47/37
s 0
f 38/51/14 30/52/14 22/53/14
s 1
f 38/54/40 39/55/41 37/50/39
f 40/56/42 17/29/21 39/57/41
s 0
f 23/58/18 31/59/18 39/60/18
s 1
f 73/103/71 76/104/72 75/105/73
f 75/106/73 78/107/74 77/108/75
f 77/108/75 80/109/76 79/110/77
f 80/111/76 81/112/78 79/113/77
s 0
f 74/114/79 82/115/79 78/116/79
s 1
f 82/117/80 83/118/81 81/119/78
f 84/120/82 73/121/71 83/118/81
s 0
f 75/122/83 79/123/83 83/124/83
s 1
f 85/125/84 88/126/85 87/127/86
f 87/128/86 90/129/87 89/130/88
f 89/131/88 92/132/89 91/133/90
f 92/134/89 93/135/91 91/136/90
s 0
f 86/137/92 94/138/92 90/139/92
s 1
f 94/140/93 95/141/94 93/135/91
f 96/142/95 85/125/84 95/143/94
s 0
f 87/144/96 91/145/96 95/146/96
s 1
f 97/147/97 100/148/98 99/149/99
f 99/150/99 102/151/100 101/152/101
f 101/152/101 104/153/102 103/154/103
f 104/155/102 105/156/104 103/157/103
s 0
f 98/158/105 106/159/105 102/160/105
s 1
f 106/161/106 107/162/107 105/163/104
f 108/164/108 97/165/97 107/162/107
s 0
f 99/166/109 103/167/109 107/168/109
s 1
f 109/169/110 112/170/111 111/171/112
f 111/171/112 114/172/113 113/173/114
f 113/174/114 116/175/115 115/176/116
f 116/177/115 117/178/117 115/179/116
s 0
f 110/180/118 118/181/118 114/182/118
s 1
f 118/183/119 119/184/120 117/178/117
f 120/185/121 109/186/110 119/187/120
s 0
f 111/188/122 115/189/122 119/190/122
s 1
f 121/191/123 124/192/124 123/193/125
f 123/194/125 126/195/126 125/196/127
f 125/196/127 128/197/128 127/198/129
f 128/199/128 129/200/130 127/201/129
s 0
f 122/202/131 130/203/131 126/204/131
s 1
f 130/205/132 131/206/133 129/207/130
f 132/208/134 121/209/123 131/206/133
s 0
f 123/210/135 127/211/135 131/212/135
s 1
f 133/213/136 136/214/137 135/215/138
f 135/215/138 138/216/139 137/217/140
f 137/218/140 140/219/141 139/220/142
f 140/219/141 141/221/143 139/220/142
s 0
f 134/222/144 142/223/144 138/224/144
s 1
f 142/225/145 143/226/146 141/227/143
f 144/228/147 133/229/136 143/230/146
s 0
f 135/231/148 139/232/148 143/233/148
s 1
f 145/234/149 148/235/150 147/236/151
f 147/237/151 150/238/152 149/239/153
f 149/239/153 152/240/154 151/241/155
f 152/242/154 153/243/156 151/244/155
s 0
f 146/245/157 154/246/157 150/247/157
s 1
f 154/248/158 155/249/159 153/250/156
f 156/251/160 145/252/149 155/249/159
s 0
f 147/253/161 151/254/161 155/255/161
s 1
f 157/256/162 160/257/163 159/258/164
f 159/258/164 162/259/165 161/260/166
f 161/261/166 164/262/167 163/263/168
f 164/264/167 165/265/169 163/266/168
s 0
f 158/267/170 166/268/170 162/269/170
s 1
f 166/270/171 167/271/172 165/265/169
f 168/272/173 157/273/162 167/274/172
s 0
f 159/275/174 163/276/174 167/277/174
s 1
f 170/278/175 171/279/176 169/280/177
f 172/281/178 173/282/179 171/279/176
f 174/283/180 175/284/181 173/282/179
f 176/285/182 177/286/183 175/287/181
f 178/288/184 179/289/185 177/286/183
f 180/290/186 181/291/187 179/289/185
f 182/292/188 183/293/189 181/291/187
f 184/294/190 185/295/191 183/296/189
f 186/297/192 187/298/193 185/295/191
f 188/299/194 189/300/195 187/298/193
f 190/301/196 191/302/197 189/300/195
f 192/303/198 193/304/199 191/305/197
f 194/306/200 195/307/201 193/304/199
f 196/308/202 197/309/203 195/307/201
s 0
f 190/310/14 182/311/14 174/312/14
s 1
f 198/313/204 199/314/205 197/309/203
f 200/315/206 169/280/177 199/316/205
s 0
f 183/317/18 191/318/18 199/319/18
s 1
f 202/320/175 203/321/176 201/322/177
f 204/323/178 205/324/179 203/321/176
f 206/325/180 207/326/181 205/324/179
f 208/327/182 209/328/183 207/329/181
f 210/330/184 211/331/185 209/328/183
f 212/332/186 213/333/187 211/331/185
f 214/334/188 215/335/189 213/333/187
f 216/336/190 217/337/191 215/338/189
f 218/339/192 219/340/193 217/337/191
f 220/341/194 221/342/195 219/340/193
f 222/343/196 223/344/197 221/342/195
f 224/345/198 225/346/199 223/347/197
f 226/348/200 227/349/201 225/346/199
f 228/350/202 229/351/203 227/349/201
s 0
f 222/352/14 214/353/14 206/354/14
s 1
f 230/355/204 231/356/205 229/351/203
f 232/357/206 201/322/177 231/358/205
s 0
f 215/359/18 223/360/18 231/361/18
s 1
f 234/362/175 235/363/176 233/364/177
f 236/365/178 237/366/179 235/363/176
f 238/367/180 239/368/181 237/366/179
f 240/369/182 241/370/183 239/371/181
f 242/372/184 243/373/185 241/370/183
f 244/374/186 245/375/187 243/373/185
f 246/376/188 247/377/189 245/375/187
f 248/378/190 249/379/191 247/380/189
f 250/381/192 251/382/193 249/379/191
f 252/383/194 253/384/195 251/382/193
f 254/385/196 255/386/197 253/384/195
f 256/387/198 257/388/199 255/389/197
f 258/390/200 259/391/201 257/388/199
f 260/392/202 261/393/203 259/391/201
s 0
f 254/394/14 246/395/14 238/396/14
s 1
f 262/397/204 263/398/205 261/393/203
f 264/399/206 233/364/177 263/400/205
s 0
f 247/401/18 255/402/18 263/403/18
s 1
f 18/27/19 20/30/22 19/28/20
f 20/30/22 22/32/24 21/31/23
f 22/32/24 24/444/26 23/33/25
f 24/34/26 26/37/28 25/35/27
f 26/37/28 28/445/30 27/38/29
f 28/39/30 30/42/32 29/40/31
f 30/42/32 32/44/34 31/43/33
f 32/44/34 34/446/36 33/45/35
f 34/46/36 36/49/38 35/47/37
f 36/49/38 38/54/40 37/50/39
s 0
f 22/53/14 20/447/14 18/448/14
f 18/448/14 40/449/14 38/51/14
f 38/51/14 36/450/14 34/451/14
f 34/451/14 32/452/14 30/52/14
f 30/52/14 28/453/14 26/454/14
f 26/454/14 24/455/14 22/53/14
f 22/53/14 18/448/14 38/51/14
f 38/51/14 34/451/14 30/52/14
f 30/52/14 26/454/14 22/53/14
s 1
f 38/54/40 40/456/42 39/55/41
f 40/56/42 18/27/19 17/29/21
s 0
f 39/60/18 17/457/18 19/458/18
f 19/458/18 21/459/18 23/58/18
f 23/58/18 25/460/18 27/461/18
f 27/461/18 29/462/18 31/59/18
f 31/59/18 33/463/18 35/464/18
f 35/464/18 37/465/18 39/60/18
f 39/60/18 19/458/18 23/58/18
f 23/58/18 27/461/18 31/59/18
f 31/59/18 35/464/18 39/60/18
s 1
f 73/103/71 74/496/211 76/104/72
f 75/106/73 76/497/72 78/107/74
f 77/108/75 78/107/74 80/109/76
f 80/111/76 82/498/80 81/112/78
s 0
f 78/116/79 76/499/79 74/114/79
f 74/114/79 84/500/79 82/115/79
f 82/115/79 80/501/79 78/116/79
s 1
f 82/117/80 84/120/82 83/118/81
f 84/120/82 74/502/211 73/121/71
s 0
f 83/124/83 73/503/83 75/122/83
f 75/122/83 77/504/83 79/123/83
f 79/123/83 81/505/83 83/124/83
s 1
f 85/125/84 86/506/212 88/126/85
f 87/128/86 88/507/85 90/129/87
f 89/131/88 90/508/87 92/132/89
f 92/134/89 94/140/93 93/135/91
s 0
f 90/139/92 88/509/92 86/137/92
f 86/137/213 96/510/213 94/138/213
f 94/138/214 92/511/214 90/139/214
s 1
f 94/140/93 96/512/95 95/141/94
f 96/142/95 86/506/212 85/125/84
s 0
f 95/146/96 85/513/96 87/144/96
f 87/144/215 89/514/215 91/145/215
f 91/145/96 93/515/96 95/146/96
s 1
f 97/147/97 98/516/216 100/148/98
f 99/150/99 100/517/98 102/151/100
f 101/152/101 102/151/100 104/153/102
f 104/155/102 106/518/106 105/156/104
s 0
f 102/160/105 100/519/105 98/158/105
f 98/158/105 108/520/105 106/159/105
f 106/159/105 104/521/105 102/160/105
s 1
f 106/161/106 108/164/108 107/162/107
f 108/164/108 98/522/216 97/165/97
s 0
f 107/168/109 97/523/109 99/166/109
f 99/166/109 101/524/109 103/167/109
f 103/167/109 105/525/109 107/168/109
s 1
f 109/169/110 110/526/217 112/170/111
f 111/171/112 112/170/111 114/172/113
f 113/174/114 114/527/113 116/175/115
f 116/177/115 118/183/119 117/178/117
s 0
f 114/182/218 112/528/218 110/180/218
f 110/180/118 120/529/118 118/181/118
f 118/181/219 116/530/219 114/182/219
s 1
f 118/183/119 120/531/121 119/184/120
f 120/185/121 110/532/217 109/186/110
s 0
f 119/190/122 109/533/122 111/188/122
f 111/188/122 113/534/122 115/189/122
f 115/189/220 117/535/220 119/190/220
s 1
f 121/191/123 122/536/221 124/192/124
f 123/194/125 124/537/124 126/195/126
f 125/196/127 126/195/126 128/197/128
f 128/199/128 130/538/132 129/200/130
s 0
f 126/204/131 124/539/131 122/202/131
f 122/202/131 132/540/131 130/203/131
f 130/203/131 128/541/131 126/204/131
s 1
f 130/205/132 132/208/134 131/206/133
f 132/208/134 122/542/221 121/209/123
s 0
f 131/212/135 121/543/135 123/210/135
f 123/210/135 125/544/135 127/211/135
f 127/211/135 129/545/135 131/212/135
s 1
f 133/213/136 134/546/222 136/214/137
f 135/215/138 136/214/137 138/216/139
f 137/218/140 138/547/139 140/219/141
f 140/219/141 142/548/145 141/221/143
s 0
f 138/224/144 136/549/144 134/222/144
f 134/222/144 144/550/144 142/223/144
f 142/223/223 140/551/223 138/224/223
s 1
f 142/225/145 144/552/147 143/226/146
f 144/228/147 134/553/222 133/229/136
s 0
f 143/233/148 133/554/148 135/231/148
f 135/231/148 137/555/148 139/232/148
f 139/232/148 141/556/148 143/233/148
s 1
f 145/234/149 146/557/224 148/235/150
f 147/237/151 148/558/150 150/238/152
f 149/239/153 150/238/152 152/240/154
f 152/242/154 154/559/158 153/243/156
s 0
f 150/247/157 148/560/157 146/245/157
f 146/245/157 156/561/157 154/246/157
f 154/246/157 152/562/157 150/247/157
s 1
f 154/248/158 156/251/160 155/249/159
f 156/251/160 146/563/224 145/252/149
s 0
f 155/255/161 145/564/161 147/253/161
f 147/253/161 149/565/161 151/254/161
f 151/254/161 153/566/161 155/255/161
s 1
f 157/256/162 158/567/225 160/257/163
f 159/258/164 160/257/163 162/259/165
f 161/261/166 162/568/165 164/262/167
f 164/264/167 166/270/171 165/265/169
s 0
f 162/269/170 160/569/170 158/267/170
f 158/267/170 168/570/170 166/268/170
f 166/268/226 164/571/226 162/269/226
s 1
f 166/270/171 168/572/173 167/271/172
f 168/272/173 158/573/225 157/273/162
s 0
f 167/277/174 157/574/174 159/275/174
f 159/275/174 161/575/174 163/276/174
f 163/276/174 165/576/174 167/277/174
s 1
f 170/278/175 172/281/178 171/279/176
f 172/281/178 174/283/180 173/282/179
f 174/283/180 176/577/182 175/284/181
f 176/285/182 178/288/184 177/286/183
f 178/288/184 180/290/186 179/289/185
f 180/290/186 182/292/188 181/291/187
f 182/292/188 184/578/190 183/293/189
f 184/294/190 186/297/192 185/295/191
f 186/297/192 188/299/194 187/298/193
f 188/299/194 190/301/196 189/300/195
f 190/301/196 192/579/198 191/302/197
f 192/303/198 194/306/200 193/304/199
f 194/306/200 196/308/202 195/307/201
f 196/308/202 198/313/204 197/309/203
s 0
f 174/312/14 172/580/14 170/581/14
f 170/581/14 200/582/14 198/583/14
f 198/583/14 196/584/14 194/585/14
f 194/585/14 192/586/14 190/310/14
f 190/310/14 188/587/14 186/588/14
f 186/588/14 184/589/14 182/311/14
f 182/311/14 180/590/14 178/591/14
f 178/591/14 176/592/14 174/312/14
f 174/312/14 170/581/14 198/583/14
f 198/583/14 194/585/14 190/310/14
f 190/310/14 186/588/14 182/311/14
f 182/311/14 178/591/14 174/312/14
f 174/312/14 198/583/14 190/310/14
s 1
f 198/313/204 200/593/206 199/314/205
f 200/315/206 170/278/175 169/280/177
s 0
f 199/319/18 169/594/18 171/595/18
f 171/595/18 173/596/18 175/597/18
f 175/597/18 177/598/18 179/599/18
f 179/599/18 181/600/18 183/317/18
f 183/317/18 185/601/18 187/602/18
f 187/602/18 189/603/18 191/318/18
f 191/318/18 193/604/18 195/605/18
f 195/605/18 197/606/18 199/319/18
f 199/319/18 171/595/18 175/597/18
f 175/597/18 179/599/18 183/317/18
f 183/317/18 187/602/18 191/318/18
f 191/318/18 195/605/18 199/319/18
f 199/319/18 175/597/18 183/317/18
s 1
f 202/320/175 204/323/178 203/321/176
f 204/323/178 206/325/180 205/324/179
f 206/325/180 208/607/182 207/326/181
f 208/327/182 210/330/184 209/328/183
f 210/330/184 212/332/186 211/331/185
f 212/332/186 214/334/188 213/333/187
f 214/334/188 216/608/190 215/335/189
f 216/336/190 218/339/192 217/337/191
f 218/339/192 220/341/194 219/340/193
f 220/341/194 222/343/196 221/342/195
f 222/343/196 224/609/198 223/344/197
f 224/345/198 226/348/200 225/346/199
f 226/348/200 228/350/202 227/349/201
f 228/350/202 230/355/204 229/351/203
s 0
f 206/354/14 204/610/14 202/611/14
f 202/611/14 232/612/14 230/613/14
f 230/613/14 228/614/14 226/615/14
f 226/615/14 224/616/14 222/352/14
f 222/352/14 220/617/14 218/618/14
f 218/618/14 216/619/14 214/353/14
f 214/353/14 212/620/14 210/621/14
f 210/621/14 208/622/14 206/354/14
f 206/354/14 202/611/14 230/613/14
f 230/613/14 226/615/14 222/352/14
f 222/352/14 218/618/14 214/353/14
f 214/353/14 210/621/14 206/354/14
f 206/354/14 230/613/14 222/352/14
s 1
f 230/355/204 232/623/206 231/356/205
f 232/357/206 202/320/175 201/322/177
s 0
f 231/361/18 201/624/18 203/625/18
f 203/625/18 205/626/18 207/627/18
f 207/627/18 209/628/18 211/629/18
f 211/629/18 213/630/18 215/359/18
f 215/359/18 217/631/18 219/632/18
f 219/632/18 221/633/18 223/360/18
f 223/360/18 225/634/18 227/635/18
f 227/635/18 229/636/18 231/361/18
f 231/361/18 203/625/18 207/627/18
f 207/627/18 211/629/18 215/359/18
f 215/359/18 219/632/18 223/360/18
f 223/360/18 227/635/18 231/361/18
f 231/361/18 207/627/18 215/359/18
s 1
f 234/362/175 236/365/178 235/363/176
f 236/365/178 238/367/180 237/366/179
f 238/367/180 240/637/182 239/368/181
f 240/369/182 242/372/184 241/370/183
f 242/372/184 244/374/186 243/373/185
f 244/374/186 246/376/188 245/375/187
f 246/376/188 248/638/190 247/377/189
f 248/378/190 250/381/192 249/379/191
f 250/381/192 252/383/194 251/382/193
f 252/383/194 254/385/196 253/384/195
f 254/385/196 256/639/198 255/386/197
f 256/387/198 258/390/200 257/388/199
f 258/390/200 260/392/202 259/391/201
f 260/392/202 262/397/204 261/393/203
s 0
f 238/396/14 236/640/14 234/641/14
f 234/641/14 264/642/14 262/643/14
f 262/643/14 260/644/14 258/645/14
f 258/645/14 256/646/14 254/394/14
f 254/394/14 252/647/14 250/648/14
f 250/648/14 248/649/14 246/395/14
f 246/395/14 244/650/14 242/651/14
f 242/651/14 240/652/14 238/396/14
f 238/396/14 234/641/14 262/643/14
f 262/643/14 258/645/14 254/394/14
f 254/394/14 250/648/14 246/395/14
f 246/395/14 242/651/14 238/396/14
f 238/396/14 262/643/14 254/394/14
s 1
f 262/397/204 264/653/206 263/398/205
f 264/399/206 234/362/175 233/364/177
s 0
f 263/403/18 233/654/18 235/655/18
f 235/655/18 237/656/18 239/657/18
f 239/657/18 241/658/18 243/659/18
f 243/659/18 245/660/18 247/401/18
f 247/401/18 249/661/18 251/662/18
f 251/662/18 253/663/18 255/402/18
f 255/402/18 257/664/18 259/665/18
f 259/665/18 261/666/18 263/403/18
f 263/403/18 235/655/18 239/657/18
f 239/657/18 243/659/18 247/401/18
f 247/401/18 251/662/18 255/402/18
f 255/402/18 259/665/18 263/403/18
f 263/403/18 239/657/18 247/401/18
