# Blender 4.0.2
# www.blender.org
mtllib rock_large.mtl
o rock_large
v -0.024465 -0.500000 -0.012619
v 0.306229 -0.194867 0.236650
v -0.166608 -0.221303 0.441264
v -0.438512 -0.197593 -0.012619
v -0.161491 -0.212759 -0.450163
v 0.343453 -0.218608 -0.289946
v 0.093016 0.212213 0.362511
v -0.376326 0.240460 0.252605
v -0.369771 0.236279 -0.272902
v 0.100249 0.224291 -0.410844
v 0.375371 0.222353 -0.012619
v -0.024465 0.500000 -0.012619
v -0.102174 -0.403860 0.235518
v 0.167937 -0.381057 0.132409
v 0.092220 -0.224779 0.359956
v 0.340329 -0.216615 -0.012619
v 0.170551 -0.386451 -0.159616
v -0.285882 -0.420452 -0.012619
v -0.330027 -0.224844 0.217708
v -0.105654 -0.422661 -0.271866
v -0.367690 -0.254536 -0.271335
v 0.093555 -0.227534 -0.389456
v 0.461294 0.016046 0.151129
v 0.435535 0.016046 -0.167683
v -0.024465 0.016046 0.416769
v 0.236557 0.016046 0.360117
v -0.430654 0.016046 0.124306
v -0.277323 0.016046 0.348460
v -0.267608 0.016046 -0.359825
v -0.451990 0.016046 -0.156736
v 0.222817 0.016046 -0.365734
v -0.024465 0.016046 -0.500000
v 0.277738 0.350722 0.215176
v -0.147359 0.358422 0.379786
v -0.447030 0.366355 -0.012619
v -0.159969 0.371435 -0.445288
v 0.285213 0.353668 -0.246048
v 0.053983 0.443548 0.237875
v 0.220014 0.435709 -0.012619
v -0.224280 0.437803 0.137997
v -0.210344 0.423422 -0.152730
v 0.047977 0.427321 -0.243934
v 0.311943 -0.403718 -0.154497
v 0.464083 -0.309648 -0.014644
v 0.253832 -0.309648 0.071792
v 0.123886 -0.309648 -0.154497
v 0.253832 -0.309648 -0.380786
v 0.464083 -0.309648 -0.294350
v 0.370054 -0.157439 0.071792
v 0.159803 -0.157439 -0.014644
v 0.159803 -0.157439 -0.294350
v 0.370054 -0.157439 -0.380786
v 0.500000 -0.157439 -0.154497
v 0.311943 -0.063369 -0.154497
v -0.332838 -0.398046 0.170641
v -0.197602 -0.313383 0.270092
v -0.384493 -0.313383 0.331557
v -0.500000 -0.313383 0.170641
v -0.384493 -0.313383 0.009724
v -0.197602 -0.313383 0.071190
v -0.281184 -0.176394 0.331557
v -0.468074 -0.176394 0.270092
v -0.468074 -0.176394 0.071190
v -0.281184 -0.176394 0.009724
v -0.165676 -0.176394 0.170641
v -0.332838 -0.091731 0.170641
v 0.111033 -0.392373 0.389370
v 0.215841 -0.329660 0.457742
v 0.071001 -0.329660 0.500000
v -0.018518 -0.329660 0.389370
v 0.071001 -0.329660 0.278740
v 0.215841 -0.329660 0.320997
v 0.151065 -0.228187 0.500000
v 0.006225 -0.228187 0.457742
v 0.006225 -0.228187 0.320997
v 0.151065 -0.228187 0.278740
v 0.240583 -0.228187 0.389370
v 0.111033 -0.165474 0.389370
vn 0.2323 -0.8802 0.4138
vn 0.7481 -0.6444 0.1586
vn -0.2804 -0.9214 0.2692
vn -0.2858 -0.9391 -0.1907
vn 0.2602 -0.8999 -0.3499
vn 0.8252 -0.5417 0.1601
vn 0.2978 -0.0801 0.9513
vn -0.8923 -0.2199 0.3943
vn -0.6546 -0.0051 -0.7560
vn 0.3711 -0.1071 -0.9224
vn 0.6673 -0.1996 0.7176
vn -0.2527 0.2478 0.9353
vn -0.9971 -0.0118 0.0757
vn -0.4964 0.1097 -0.8611
vn 0.6770 0.1132 -0.7272
vn 0.2873 0.4914 0.8222
vn -0.5881 0.6942 0.4150
vn -0.4720 0.7246 -0.5022
vn 0.4427 0.6347 -0.6334
vn 0.8083 0.5885 0.0189
vn 0.2482 0.9437 -0.2188
vn 0.2854 0.9263 -0.2459
vn 0.1960 0.6523 -0.7321
vn -0.1322 0.9331 -0.3346
vn -0.0811 0.9788 -0.1879
vn -0.6574 0.7142 -0.2401
vn -0.3394 0.9385 -0.0627
vn -0.2676 0.9616 -0.0604
vn -0.5428 0.6934 0.4738
vn -0.1100 0.9617 0.2512
vn -0.1447 0.9255 0.3499
vn 0.3548 0.4891 0.7968
vn 0.2519 0.9580 0.1370
vn 0.3927 0.8898 0.2325
vn 0.8083 0.5886 0.0148
vn 0.9161 0.3747 -0.1430
vn 0.6754 0.1323 -0.7255
vn 0.5851 0.1727 -0.7923
vn 0.2613 0.2434 -0.9341
vn -0.4986 -0.0570 -0.8649
vn -0.6379 0.0080 -0.7701
vn -0.9222 0.1582 -0.3528
vn -0.9970 -0.0170 0.0757
vn -0.9556 0.0674 0.2868
vn -0.5300 0.1245 0.8388
vn -0.2608 0.0107 0.9653
vn 0.1709 0.1663 0.9712
vn 0.4391 0.3110 0.8429
vn 0.6632 0.2272 0.7131
vn 0.8800 0.4601 0.1179
vn 0.4752 0.0901 -0.8752
vn 0.4706 -0.1653 -0.8667
vn 0.2015 -0.3222 -0.9250
vn -0.7381 -0.0779 -0.6701
vn -0.7393 0.0539 -0.6712
vn -0.9544 -0.2059 -0.2160
vn -0.8192 -0.1220 0.5604
vn -0.8189 -0.1249 0.5602
vn -0.7979 -0.1432 0.5855
vn 0.2100 0.1418 0.9674
vn 0.2104 -0.1267 0.9694
vn 0.5071 -0.3045 0.8063
vn 0.9404 0.3314 -0.0760
vn 0.9050 -0.4191 -0.0731
vn 0.9285 -0.3712 0.0131
vn 0.2685 -0.7479 -0.6071
vn 0.3414 -0.7157 -0.6092
vn 0.1482 -0.6170 -0.7728
vn -0.4184 -0.6501 -0.6343
vn -0.5072 -0.7894 -0.3459
vn -0.8208 -0.5622 -0.1010
vn -0.7854 -0.5379 0.3063
vn -0.5687 -0.6775 0.4664
vn -0.5775 -0.6920 0.4331
vn 0.7015 -0.7125 0.0130
vn 0.6986 -0.7152 0.0195
vn 0.5145 -0.8572 0.0204
vn 0.2057 -0.6991 0.6848
vn 0.2936 -0.7396 0.6056
vn 0.4405 -0.6649 0.6032
vn 0.1707 -0.8935 0.4153
vn 0.5259 -0.8505 -0.0000
vn -0.4333 -0.8662 0.2488
vn -0.4333 -0.8662 -0.2488
vn 0.1707 -0.8935 -0.4153
vn 0.9733 -0.2297 -0.0000
vn 0.3652 -0.2788 0.8882
vn -0.8407 -0.2452 0.4828
vn -0.8407 -0.2452 -0.4828
vn 0.3652 -0.2788 -0.8882
vn 0.8407 0.2452 0.4828
vn -0.3652 0.2788 0.8882
vn -0.9733 0.2297 -0.0000
vn -0.3652 0.2788 -0.8882
vn 0.8407 0.2452 -0.4828
vn 0.4333 0.8662 0.2488
vn -0.1707 0.8935 0.4153
vn -0.5259 0.8505 -0.0000
vn -0.1707 0.8935 -0.4153
vn 0.4333 0.8662 -0.2488
vn 0.1645 -0.8502 0.5001
vn 0.5306 -0.8476 -0.0000
vn -0.4298 -0.8486 0.3085
vn -0.4298 -0.8486 -0.3085
vn 0.1645 -0.8502 -0.5001
vn 0.9739 -0.2270 -0.0000
vn 0.3041 -0.2293 0.9246
vn -0.7910 -0.2279 0.5678
vn -0.7910 -0.2279 -0.5678
vn 0.3041 -0.2293 -0.9246
vn 0.7910 0.2279 0.5678
vn -0.3041 0.2293 0.9246
vn -0.9739 0.2270 -0.0000
vn -0.3041 0.2293 -0.9246
vn 0.7910 0.2279 -0.5678
vn 0.4298 0.8486 0.3085
vn -0.1645 0.8502 0.5001
vn -0.5306 0.8476 -0.0000
vn -0.1645 0.8502 -0.5001
vn 0.4298 0.8486 -0.3085
vn 0.1543 -0.8345 0.5289
vn 0.5135 -0.8581 -0.0000
vn -0.4109 -0.8489 0.3325
vn -0.4109 -0.8489 -0.3325
vn 0.1543 -0.8345 -0.5289
vn 0.9715 -0.2369 -0.0000
vn 0.2735 -0.2158 0.9374
vn -0.7569 -0.2281 0.6124
vn -0.7569 -0.2281 -0.6124
vn 0.2735 -0.2158 -0.9374
vn 0.7569 0.2281 0.6124
vn -0.2735 0.2158 0.9374
vn -0.9715 0.2369 -0.0000
vn -0.2735 0.2158 -0.9374
vn 0.7569 0.2281 -0.6124
vn 0.4109 0.8489 0.3325
vn -0.1543 0.8345 0.5289
vn -0.5135 0.8581 -0.0000
vn -0.1543 0.8345 -0.5289
vn 0.4109 0.8489 -0.3325
vt 0.776519 0.251599
vt 0.692613 0.173249
vt 0.804796 0.123107
vt 0.642115 0.100713
vt 0.640697 0.216469
vt 0.901388 0.231247
vt 0.837046 0.352524
vt 0.709635 0.304549
vt 0.674042 0.509776
vt 0.672271 0.431608
vt 0.761049 0.416936
vt 0.691074 0.750790
vt 0.672271 0.627748
vt 0.788463 0.677951
vt 0.991482 0.190947
vt 0.925461 0.095650
vt 1.000000 0.095638
vt 0.209714 0.339903
vt 0.084568 0.313880
vt 0.185673 0.214963
vt 0.634925 0.203728
vt 0.618185 0.314093
vt 0.522216 0.263422
vt 0.769991 0.560394
vt 0.811713 0.759351
vt 0.000000 0.252800
vt 0.000000 0.144339
vt 0.068134 0.170571
vt 0.306414 0.260355
vt 0.532522 0.127091
vt 0.870433 0.608783
vt 0.924886 0.491187
vt 0.983977 0.581035
vt 0.394272 0.766431
vt 0.312186 0.661990
vt 0.434041 0.648047
vt 0.162532 0.094704
vt 0.087004 0.000000
vt 0.214619 0.019092
vt 0.419075 0.312614
vt 0.327501 0.398977
vt 0.312186 0.261866
vt 0.424082 0.083033
vt 0.370897 0.194690
vt 0.312186 0.124784
vt 0.425397 0.451594
vt 0.551296 0.496833
vt 0.470495 0.536263
vt 0.507530 0.416936
vt 0.554365 0.612603
vt 0.666500 0.570558
vt 0.616560 0.705061
vt 0.528817 0.736978
vt 0.346524 0.545483
vt 0.955322 0.701374
vt 0.312186 0.472965
vt 0.341579 0.023928
vt 0.504032 0.385910
vt 0.302070 0.078843
vt 0.439767 0.823708
vt 0.319300 0.787091
vt 0.514709 0.000000
vt 0.587821 0.411009
vt 0.916937 0.000000
vt 0.989301 0.003784
vt 0.838261 0.000000
vt 0.615769 0.100588
vt 0.774347 0.379327
vt 0.656880 0.340675
vt 0.853088 0.885528
vt 0.825853 0.765279
vt 0.885909 0.765279
vt 0.147484 0.422336
vt 0.278255 0.372714
vt 0.970789 0.317649
vt 0.727176 0.044318
vt 0.058810 0.542654
vt 0.000000 0.461532
vt 0.093275 0.428263
vt 0.003045 0.587700
vt 0.153969 0.533871
vt 0.098202 0.632409
vt 0.820082 0.771004
vt 0.768623 0.863515
vt 0.753365 0.765279
vt 0.172288 0.783285
vt 0.159740 0.677763
vt 0.232326 0.731196
vt 0.153969 0.447320
vt 0.159740 0.571250
vt 0.159740 0.456139
vt 0.230113 0.510564
vt 0.696961 0.924229
vt 0.677271 0.859977
vt 0.232326 0.620442
vt 0.148671 0.839637
vt 0.069652 0.839795
vt 0.148671 0.773305
vt 0.230443 0.428263
vt 0.230443 0.614514
vt 0.000000 0.756380
vt 0.056787 0.721851
vt 0.127856 0.648798
vt 0.035973 0.638336
vt 0.672271 0.765279
vt 0.364500 0.913555
vt 0.312186 0.852895
vt 0.395102 0.829636
vt 0.314985 0.942596
vt 0.449148 0.904962
vt 0.399632 0.974776
vt 0.578323 0.866291
vt 0.531188 0.924572
vt 0.526201 0.842835
vt 0.305622 0.449018
vt 0.305622 0.539587
vt 0.245914 0.487504
vt 0.449148 0.838991
vt 0.241869 0.688559
vt 0.241989 0.598075
vt 0.305279 0.639260
vt 0.462990 0.961889
vt 0.454919 0.901918
vt 0.236215 0.574808
vt 0.236215 0.428263
vt 0.305622 0.580735
vt 0.305427 0.727139
vt 0.235095 0.941532
vt 0.159740 0.912629
vt 0.194758 0.864470
vt 0.281665 0.865256
vt 0.235094 0.789212
vt 0.159740 0.818490
vt 0.454919 0.829636
vt 0.882361 0.958540
vt 0.840453 1.000000
vt 0.825853 0.933788
vt 0.900518 0.998590
vt 0.876896 0.891455
vt 0.923041 0.931506
vt 0.981638 0.798277
vt 0.947278 0.836589
vt 0.945595 0.777315
vt 0.635216 0.847324
vt 0.635216 0.916146
vt 0.590896 0.876963
vt 0.831610 0.891455
vt 0.096159 0.922583
vt 0.096228 0.856601
vt 0.143120 0.885959
vt 0.894403 0.861186
vt 0.891680 0.816195
vt 0.584095 0.940993
vt 0.584095 0.829636
vt 0.143356 0.845723
vt 0.143244 0.952482
vt 0.034524 0.845723
vt 0.090388 0.859886
vt 0.064432 0.898560
vt 0.000000 0.904628
vt 0.034525 0.955198
vt 0.090388 0.927546
vt 0.891680 0.765279
s 0
usemtl MMO_stone
f 1/1/1 14/2/1 13/3/1
f 1/1/3 13/3/3 18/6/3
f 1/1/5 20/7/5 17/8/5
f 3/12/7 15/13/7 25/14/7
f 4/15/8 19/16/8 27/17/8
f 5/18/9 21/19/9 29/20/9
f 6/21/10 22/22/10 31/23/10
f 3/12/12 25/14/12 28/25/12
f 4/26/13 27/27/13 30/28/13
f 5/18/14 29/20/14 32/29/14
f 6/21/15 31/23/15 24/30/15
f 7/31/16 33/32/16 38/33/16
f 8/34/17 34/35/17 40/36/17
f 9/37/18 35/38/18 41/39/18
f 11/43/20 37/44/20 39/45/20
f 39/46/21 42/47/21 12/48/21
f 39/46/22 37/49/22 42/47/22
f 37/44/23 10/40/23 42/42/23
f 42/47/25 36/51/25 41/50/25
f 36/51/26 9/52/26 41/50/26
f 41/50/27 40/36/27 12/48/27
f 41/50/28 35/53/28 40/36/28
f 35/53/29 8/34/29 40/36/29
f 40/36/30 38/54/30 12/48/30
f 40/36/31 34/35/31 38/54/31
f 34/55/32 7/31/32 38/33/32
f 38/54/33 39/46/33 12/48/33
f 24/30/37 31/23/37 37/44/37
f 31/23/38 10/40/38 37/44/38
f 32/58/39 36/41/39 10/40/39
f 32/29/40 29/20/40 36/59/40
f 29/20/41 9/37/41 36/59/41
f 30/28/42 35/38/42 9/37/42
f 30/28/43 27/27/43 35/38/43
f 28/25/46 25/14/46 34/55/46
f 25/14/47 7/31/47 34/55/47
f 26/24/48 33/32/48 7/31/48
f 23/62/50 11/43/50 33/57/50
f 31/23/52 22/22/52 32/58/52
f 22/22/53 5/63/53 32/58/53
f 29/20/54 30/28/54 9/37/54
f 29/20/55 21/19/55 30/28/55
f 21/19/56 4/26/56 30/28/56
f 19/16/59 3/66/59 28/64/59
f 25/14/61 15/13/61 26/24/61
f 23/62/63 24/30/63 11/43/63
f 23/62/64 16/67/64 24/30/64
f 16/67/65 6/21/65 24/30/65
f 17/70/67 20/71/67 22/72/67
f 18/6/71 4/15/71 21/75/71
f 18/6/72 19/16/72 4/15/72
f 13/3/74 3/66/74 19/16/74
f 16/5/75 17/8/75 6/69/75
f 16/5/76 14/2/76 17/8/76
f 13/3/78 15/76/78 3/66/78
f 14/2/80 2/4/80 15/76/80
f 43/77/81 44/78/81 45/79/81
f 44/78/82 43/77/82 48/80/82
f 43/77/83 45/79/83 46/81/83
f 43/77/84 46/81/84 47/82/84
f 43/77/85 47/82/85 48/80/85
f 44/83/86 48/84/86 53/85/86
f 45/86/87 44/87/87 49/88/87
f 46/81/88 45/79/88 50/89/88
f 47/90/89 46/91/89 51/92/89
f 48/84/90 47/93/90 52/94/90
f 44/87/91 53/95/91 49/88/91
f 45/96/92 49/97/92 50/98/92
f 46/91/93 50/99/93 51/92/93
f 47/90/94 51/92/94 52/100/94
f 48/84/95 52/94/95 53/85/95
f 49/97/96 53/101/96 54/102/96
f 50/98/97 49/97/97 54/102/97
f 51/103/98 50/98/98 54/102/98
f 52/104/99 51/103/99 54/102/99
f 53/85/100 52/94/100 54/105/100
f 55/106/101 56/107/101 57/108/101
f 56/107/102 55/106/102 60/109/102
f 55/106/103 57/108/103 58/110/103
f 55/106/104 58/110/104 59/111/104
f 55/106/105 59/111/105 60/109/105
f 56/112/106 60/113/106 65/114/106
f 57/115/107 56/116/107 61/117/107
f 58/110/108 57/108/108 62/118/108
f 59/119/109 58/120/109 63/121/109
f 60/113/110 59/122/110 64/123/110
f 56/116/111 65/124/111 61/117/111
f 57/115/112 61/117/112 62/125/112
f 58/120/113 62/126/113 63/121/113
f 59/119/114 63/121/114 64/127/114
f 60/113/115 64/123/115 65/114/115
f 61/128/116 65/129/116 66/130/116
f 62/131/117 61/128/117 66/130/117
f 63/132/118 62/131/118 66/130/118
f 64/133/119 63/132/119 66/130/119
f 65/114/120 64/123/120 66/134/120
f 67/135/121 68/136/121 69/137/121
f 68/136/122 67/135/122 72/138/122
f 67/135/123 69/137/123 70/139/123
f 67/135/124 70/139/124 71/140/124
f 67/135/125 71/140/125 72/138/125
f 68/141/126 72/142/126 77/143/126
f 69/144/127 68/145/127 73/146/127
f 70/139/128 69/137/128 74/147/128
f 71/148/129 70/149/129 75/150/129
f 72/142/130 71/151/130 76/152/130
f 68/145/131 77/153/131 73/146/131
f 69/144/132 73/146/132 74/154/132
f 70/149/133 74/155/133 75/150/133
f 71/148/134 75/150/134 76/156/134
f 72/142/135 76/152/135 77/143/135
f 73/157/136 77/158/136 78/159/136
f 74/160/137 73/157/137 78/159/137
f 75/161/138 74/160/138 78/159/138
f 76/162/139 75/161/139 78/159/139
f 77/143/140 76/152/140 78/163/140
usemtl MMO_limestone
f 2/4/2 14/2/2 16/5/2
f 1/1/4 18/6/4 20/7/4
f 2/9/11 23/11/11 26/24/11
f 10/40/19 36/41/19 42/42/19
f 38/54/34 33/56/34 39/46/34
f 33/57/35 11/43/35 39/45/35
f 27/60/44 8/34/44 35/53/44
f 28/61/45 34/35/45 8/34/45
f 26/24/49 23/11/49 33/32/49
f 31/23/51 32/58/51 10/40/51
f 27/17/57 28/64/57 8/65/57
f 25/14/60 26/24/60 7/31/60
f 15/13/62 2/9/62 26/24/62
f 20/73/69 21/19/69 5/18/69
f 20/7/70 18/6/70 21/75/70
f 14/2/77 1/1/77 17/8/77
f 13/3/79 14/2/79 15/76/79
usemtl MMO_iron_edge
f 2/9/6 16/10/6 23/11/6
f 42/47/24 41/50/24 12/48/24
f 24/30/36 37/44/36 11/43/36
f 27/17/58 19/16/58 28/64/58
f 17/8/66 22/68/66 6/69/66
f 20/73/68 5/18/68 22/74/68
f 18/6/73 13/3/73 19/16/73
