# Blender 4.0.2
# www.blender.org
mtllib tent.mtl
o tent
v -1.214002 0.011299 1.237225
v 0.000000 1.909604 1.237225
v 0.000000 1.909604 -1.237225
v -1.214002 0.011299 -1.237225
v -1.204340 0.003332 1.237225
v 0.009662 1.901637 1.237225
v 0.009662 1.901637 -1.237225
v -1.204340 0.003332 -1.237225
v -1.214002 0.079096 1.237225
v -1.214002 0.079096 -1.237225
v -1.238629 0.067513 1.237225
v -1.238629 0.067513 -1.237225
v -1.248829 0.039548 1.237225
v -1.248830 0.039548 -1.237225
v -1.238629 0.011583 1.237225
v -1.238629 0.011583 -1.237225
v -1.214002 0.000000 1.237225
v -1.214002 0.000000 -1.237225
v -1.189375 0.011583 1.237225
v -1.189375 0.011583 -1.237225
v -1.179174 0.039548 1.237225
v -1.179174 0.039548 -1.237225
v -1.189375 0.067513 1.237225
v -1.189375 0.067513 -1.237225
v 1.214002 0.011299 1.237225
v 0.000000 1.909604 1.237225
v 0.000000 1.909604 -1.237225
v 1.214002 0.011299 -1.237225
v 1.223664 0.019267 1.237225
v 0.009662 1.917572 1.237225
v 0.009662 1.917572 -1.237225
v 1.223664 0.019267 -1.237225
v 1.214002 0.079096 1.237225
v 1.214002 0.079096 -1.237225
v 1.189375 0.067513 1.237225
v 1.189375 0.067513 -1.237225
v 1.179174 0.039548 1.237225
v 1.179174 0.039548 -1.237225
v 1.189375 0.011583 1.237225
v 1.189375 0.011583 -1.237225
v 1.214002 0.000000 1.237225
v 1.214002 0.000000 -1.237225
v 1.238629 0.011583 1.237225
v 1.238629 0.011583 -1.237225
v 1.248830 0.039548 1.237225
v 1.248829 0.039548 -1.237225
v 1.238629 0.067513 1.237225
v 1.238629 0.067513 -1.237225
v -1.214002 0.011299 -1.223777
v 1.214002 0.011299 -1.223777
v 0.000000 1.909604 -1.223777
v -1.214002 0.011299 -1.250674
v 1.214002 0.011299 -1.250674
v 0.000000 1.909604 -1.250674
v -1.204051 0.011299 1.269501
v -0.398033 0.124294 1.344810
v -0.238820 1.446328 1.344810
v 0.000000 1.909604 1.269501
v -1.201778 0.010059 1.256882
v -0.395761 0.123053 1.332191
v -0.236547 1.445087 1.332191
v 0.002273 1.908364 1.256882
v -0.861215 0.556258 1.004715
v -1.478167 0.087332 1.478089
v -0.851511 0.549315 1.013264
v -1.468463 0.080389 1.486638
v -0.846068 0.535430 1.009088
v -1.463019 0.066504 1.482461
v -0.850328 0.528488 0.996362
v -1.467280 0.059561 1.469736
v -0.860033 0.535430 0.987813
v -1.476984 0.066504 1.461187
v -0.865476 0.549315 0.991989
v -1.482428 0.080389 1.465363
v -1.500000 0.017752 1.473912
v -1.450246 0.288939 1.473912
v -1.486362 0.014526 1.447824
v -1.436607 0.285712 1.447824
v -1.459085 0.008073 1.447824
v -1.409331 0.279260 1.447824
v -1.445447 0.004847 1.473912
v -1.395692 0.276033 1.473912
v -1.459085 0.008073 1.500000
v -1.409331 0.279260 1.500000
v -1.486362 0.014526 1.500000
v -1.436607 0.285712 1.500000
v -0.861215 0.556258 -1.004715
v -1.478167 0.087332 -1.478088
v -0.865476 0.549316 -0.991990
v -1.482428 0.080389 -1.465363
v -0.860033 0.535430 -0.987813
v -1.476984 0.066504 -1.461186
v -0.850328 0.528488 -0.996362
v -1.467280 0.059561 -1.469735
v -0.846068 0.535430 -1.009088
v -1.463019 0.066504 -1.482461
v -0.851511 0.549316 -1.013265
v -1.468463 0.080389 -1.486638
v -1.500000 0.017752 -1.473912
v -1.450246 0.288939 -1.473912
v -1.486362 0.014526 -1.500000
v -1.436607 0.285712 -1.500000
v -1.459085 0.008073 -1.500000
v -1.409331 0.279260 -1.500000
v -1.445447 0.004847 -1.473912
v -1.395692 0.276033 -1.473912
v -1.459085 0.008073 -1.447824
v -1.409331 0.279260 -1.447824
v -1.486362 0.014526 -1.447824
v -1.436607 0.285712 -1.447824
v 1.204051 0.011299 1.269501
v 0.398033 0.124294 1.344810
v 0.238820 1.446328 1.344810
v 0.000000 1.909604 1.269501
v 1.206324 0.012540 1.282120
v 0.400306 0.125534 1.357429
v 0.241093 1.447568 1.357429
v 0.002273 1.910845 1.282120
v 0.861215 0.556258 1.004715
v 1.478167 0.087332 1.478089
v 0.865476 0.549315 0.991989
v 1.482428 0.080389 1.465363
v 0.860033 0.535430 0.987813
v 1.476984 0.066504 1.461187
v 0.850328 0.528488 0.996362
v 1.467280 0.059561 1.469736
v 0.846068 0.535430 1.009088
v 1.463019 0.066504 1.482461
v 0.851511 0.549315 1.013264
v 1.468463 0.080389 1.486638
v 1.500000 0.017752 1.473912
v 1.450246 0.288939 1.473912
v 1.486362 0.014526 1.500000
v 1.436607 0.285712 1.500000
v 1.459085 0.008073 1.500000
v 1.409331 0.279260 1.500000
v 1.445447 0.004847 1.473912
v 1.395692 0.276033 1.473912
v 1.459085 0.008073 1.447824
v 1.409331 0.279260 1.447824
v 1.486362 0.014526 1.447824
v 1.436607 0.285712 1.447824
v 0.861215 0.556258 -1.004715
v 1.478167 0.087332 -1.478088
v 0.851511 0.549316 -1.013265
v 1.468463 0.080389 -1.486638
v 0.846068 0.535430 -1.009088
v 1.463019 0.066504 -1.482461
v 0.850328 0.528488 -0.996362
v 1.467280 0.059561 -1.469735
v 0.860033 0.535430 -0.987813
v 1.476984 0.066504 -1.461186
v 0.865476 0.549316 -0.991990
v 1.482428 0.080389 -1.465363
v 1.500000 0.017752 -1.473912
v 1.450246 0.288939 -1.473912
v 1.486362 0.014526 -1.447824
v 1.436607 0.285712 -1.447824
v 1.459085 0.008073 -1.447824
v 1.409331 0.279260 -1.447824
v 1.445447 0.004847 -1.473912
v 1.395692 0.276033 -1.473912
v 1.459085 0.008073 -1.500000
v 1.409331 0.279260 -1.500000
v 1.486362 0.014526 -1.500000
v 1.436607 0.285712 -1.500000
v 0.000000 1.994350 1.452395
v -0.000000 1.994350 -1.452395
v -0.031663 1.979457 1.452395
v -0.031663 1.979457 -1.452395
v -0.044779 1.943503 1.452395
v -0.044779 1.943503 -1.452395
v -0.031663 1.907548 1.452395
v -0.031663 1.907548 -1.452395
v 0.000000 1.892655 1.452395
v -0.000000 1.892655 -1.452395
v 0.031663 1.907548 1.452395
v 0.031663 1.907548 -1.452395
v 0.044779 1.943503 1.452395
v 0.044779 1.943503 -1.452395
v 0.031663 1.979457 1.452395
v 0.031663 1.979457 -1.452395
v 0.000000 0.011299 1.274880
v 0.000000 2.000000 1.274880
v -0.024627 0.011299 1.263851
v -0.024627 2.000000 1.263851
v -0.034828 0.011299 1.237225
v -0.034828 2.000000 1.237225
v -0.024627 0.011299 1.210600
v -0.024627 2.000000 1.210600
v -0.000000 0.011299 1.199571
v -0.000000 2.000000 1.199571
v 0.024627 0.011299 1.210600
v 0.024627 2.000000 1.210600
v 0.034828 0.011299 1.237225
v 0.034828 2.000000 1.237225
v 0.024627 0.011299 1.263851
v 0.024627 2.000000 1.263851
v 0.000000 0.011299 -1.274880
v 0.000000 2.000000 -1.274880
v 0.024627 0.011299 -1.263851
v 0.024627 2.000000 -1.263851
v 0.034828 0.011299 -1.237225
v 0.034828 2.000000 -1.237225
v 0.024627 0.011299 -1.210600
v 0.024627 2.000000 -1.210600
v 0.000000 0.011299 -1.199571
v 0.000000 2.000000 -1.199571
v -0.024627 0.011299 -1.210600
v -0.024627 2.000000 -1.210600
v -0.034828 0.011299 -1.237225
v -0.034828 2.000000 -1.237225
v -0.024627 0.011299 -1.263851
v -0.024627 2.000000 -1.263851
vn -0.8425 0.5388 -0.0000
vn 0.8425 -0.5388 -0.0000
vn -0.0000 -0.0000 -1.0000
vn -0.0000 -0.0000 1.0000
vn 0.6362 0.7715 -0.0000
vn -0.6362 -0.7715 -0.0000
vn -0.0000 0.7825 -0.6227
vn -0.5729 0.5236 0.6306
vn -0.0000 0.7825 0.6227
vn -0.5729 0.5236 -0.6306
vn -0.7705 -0.0000 0.6375
vn -0.7705 -0.0000 -0.6375
vn -0.5729 -0.5236 0.6306
vn -0.5729 -0.5236 -0.6306
vn -0.0000 -0.7825 0.6227
vn 0.5729 -0.5236 -0.6306
vn 0.5729 -0.5236 0.6306
vn 0.7705 -0.0000 0.6375
vn 0.7705 -0.0000 -0.6375
vn 0.5729 0.5236 0.6306
vn 0.5729 0.5236 -0.6306
vn -0.8425 -0.5388 -0.0000
vn 0.8425 0.5388 -0.0000
vn -0.6362 0.7715 -0.0000
vn 0.6362 -0.7715 -0.0000
vn -0.0000 -1.0000 -0.0000
vn -0.7187 0.4558 0.5251
vn 0.0946 -0.0114 -0.9954
vn 0.8837 -0.4229 0.2007
vn 0.1269 -0.9847 0.1196
vn 0.9753 -0.1175 0.1872
vn -0.8273 0.5247 -0.2006
vn -0.7498 0.4083 0.5206
vn 0.6890 0.6264 0.3645
vn 0.1227 0.9882 -0.0917
vn -0.1897 0.0501 0.9806
vn 0.9888 -0.0512 0.1403
vn -0.1227 -0.9882 0.0917
vn 0.7498 -0.4083 -0.5206
vn -0.6890 -0.6264 -0.3645
vn 0.1897 -0.0500 -0.9806
vn -0.7499 -0.4420 0.4922
vn -0.9888 0.0512 -0.1403
vn -0.1081 0.6348 -0.7651
vn 0.7499 0.4420 -0.4922
vn -0.8988 -0.4384 -0.0000
vn -0.2722 0.6786 -0.6822
vn -0.5255 -0.5101 -0.6810
vn 0.5255 0.5101 -0.6810
vn 0.2722 -0.6786 -0.6822
vn 0.8988 0.4384 -0.0000
vn 0.6449 -0.7643 -0.0000
vn 0.2722 -0.6786 0.6822
vn 0.2302 0.9731 -0.0000
vn 0.5255 0.5101 0.6810
vn -0.5255 -0.5101 0.6810
vn -0.2722 0.6786 0.6822
vn -0.2302 -0.9731 -0.0000
vn 0.1227 0.9882 0.0917
vn -0.9888 0.0512 0.1403
vn -0.1081 0.6348 0.7651
vn 0.1897 -0.0500 0.9806
vn -0.6890 -0.6264 0.3645
vn 0.7498 -0.4083 0.5206
vn -0.1227 -0.9882 -0.0917
vn 0.9888 -0.0512 -0.1403
vn -0.7499 -0.4420 -0.4922
vn -0.1897 0.0500 -0.9806
vn 0.6890 0.6264 -0.3645
vn -0.7498 0.4083 -0.5206
vn 0.7499 0.4420 0.4922
vn -0.7187 -0.4558 -0.5251
vn 0.0946 0.0114 0.9954
vn -0.8837 -0.4229 0.2007
vn -0.1269 -0.9847 0.1196
vn -0.9753 -0.1175 0.1872
vn 0.8273 0.5247 -0.2006
vn -0.1227 0.9882 -0.0917
vn 0.9888 0.0512 -0.1403
vn 0.1081 0.6348 -0.7651
vn -0.1897 -0.0500 -0.9806
vn 0.6890 -0.6264 -0.3645
vn -0.7498 -0.4083 -0.5206
vn 0.1227 -0.9882 0.0917
vn -0.9888 -0.0512 0.1403
vn 0.7499 -0.4420 0.4922
vn 0.1897 0.0501 0.9806
vn -0.6890 0.6264 0.3645
vn 0.7498 0.4083 0.5206
vn -0.7499 0.4420 -0.4922
vn 0.8988 -0.4384 -0.0000
vn 0.2722 0.6786 0.6822
vn 0.5255 -0.5101 0.6810
vn -0.5255 0.5101 0.6810
vn -0.2722 -0.6786 0.6822
vn -0.8988 0.4384 -0.0000
vn -0.6449 -0.7643 -0.0000
vn -0.2722 -0.6786 -0.6822
vn -0.2302 0.9731 -0.0000
vn -0.5255 0.5101 -0.6810
vn 0.5255 -0.5101 -0.6810
vn 0.2722 0.6786 -0.6822
vn 0.2302 -0.9731 -0.0000
vn 0.7498 0.4083 -0.5206
vn -0.6890 0.6264 -0.3645
vn -0.1227 0.9882 0.0917
vn 0.1897 0.0500 -0.9806
vn -0.9888 -0.0512 -0.1403
vn 0.1227 -0.9882 -0.0917
vn -0.7498 -0.4083 0.5206
vn 0.6890 -0.6264 0.3645
vn -0.1897 -0.0500 0.9806
vn 0.7499 -0.4420 -0.4922
vn 0.9888 0.0512 0.1403
vn 0.1081 0.6348 0.7651
vn -0.7499 0.4420 0.4922
vn -0.0000 -0.7825 -0.6227
vn -0.0000 0.6256 0.7801
vn -0.5638 -0.6304 0.5336
vn -0.0000 -0.6256 0.7801
vn -0.5638 0.6304 0.5336
vn -0.7727 -0.6347 -0.0000
vn -0.7727 0.6347 -0.0000
vn -0.5638 -0.6304 -0.5336
vn -0.5638 0.6304 -0.5336
vn -0.0000 -0.6256 -0.7801
vn -0.0000 0.6256 -0.7801
vn 0.5638 -0.6304 -0.5336
vn 0.5638 0.6304 -0.5336
vn 0.7727 -0.6347 -0.0000
vn -0.0000 1.0000 -0.0000
vn 0.7727 0.6347 -0.0000
vn 0.5638 -0.6304 0.5336
vn 0.5638 0.6304 0.5336
vn -0.0946 0.0114 0.9954
vn 0.7187 -0.4558 -0.5251
vn 0.1081 -0.6348 0.7651
vn -0.6449 0.7643 -0.0000
vn 0.1081 -0.6348 -0.7651
vn -0.0946 -0.0114 -0.9954
vn 0.7187 0.4558 0.5251
vn -0.1081 -0.6348 0.7651
vn 0.6449 0.7643 -0.0000
vn -0.1081 -0.6348 -0.7651
vt 0.673691 0.000000
vt 0.371772 0.339003
vt 0.371772 0.001120
vt 0.364338 0.340040
vt 0.066972 0.000000
vt 0.364338 0.002221
vt 0.000000 0.711747
vt 0.001715 0.404245
vt 0.001715 0.711952
vt 0.945916 0.307708
vt 0.944201 0.000206
vt 0.945916 0.000000
vt 0.739822 0.000005
vt 0.741520 0.337883
vt 0.739822 0.337888
vt 0.018430 0.741818
vt 0.016746 0.404035
vt 0.018430 0.404046
vt 0.688367 0.337901
vt 0.684805 0.000000
vt 0.688367 0.000018
vt 0.684805 0.337883
vt 0.681125 0.000028
vt 0.732388 0.337786
vt 0.728472 0.000051
vt 0.732388 0.000014
vt 0.728472 0.337822
vt 0.725133 0.000000
vt 0.725473 0.346387
vt 0.721851 0.684231
vt 0.721851 0.346412
vt 0.718277 0.346362
vt 0.321487 0.354102
vt 0.315104 0.357545
vt 0.312459 0.350842
vt 0.703069 0.337904
vt 0.699207 0.000000
vt 0.703069 0.000021
vt 0.699207 0.337883
vt 0.695801 0.000024
vt 0.351767 0.357212
vt 0.345383 0.354907
vt 0.348027 0.347732
vt 0.681464 0.346362
vt 0.371772 0.684934
vt 0.371772 0.347162
vt 0.358561 0.742418
vt 0.050210 0.403938
vt 0.358561 0.404534
vt 0.935052 0.000206
vt 0.936767 0.307708
vt 0.935052 0.307913
vt 0.944565 0.346568
vt 0.942850 0.654070
vt 0.942850 0.346362
vt 0.747595 0.346362
vt 0.749318 0.684247
vt 0.747595 0.684245
vt 0.035252 0.741811
vt 0.033524 0.403993
vt 0.035252 0.403992
vt 0.696141 0.684263
vt 0.692578 0.346362
vt 0.696141 0.346380
vt 0.692578 0.684245
vt 0.688898 0.346390
vt 0.740161 0.684148
vt 0.736246 0.346413
vt 0.740161 0.346376
vt 0.736246 0.684184
vt 0.732907 0.346362
vt 0.717699 0.000025
vt 0.714077 0.337869
vt 0.714077 0.000050
vt 0.710503 0.000000
vt 0.321487 0.371607
vt 0.315103 0.375051
vt 0.312459 0.368347
vt 0.710843 0.684266
vt 0.706980 0.346362
vt 0.710843 0.346383
vt 0.706980 0.684245
vt 0.703575 0.346386
vt 0.335305 0.357212
vt 0.328921 0.354907
vt 0.331565 0.347732
vt 0.371772 0.692292
vt 0.653968 0.821348
vt 0.371772 1.000000
vt 0.703574 0.999335
vt 0.703574 0.691628
vt 0.985771 0.820683
vt 0.675631 0.944673
vt 0.679340 0.692370
vt 0.679340 0.944751
vt 0.953350 0.305233
vt 0.957060 0.000000
vt 0.957060 0.305226
vt 0.975087 0.346376
vt 0.971377 0.645222
vt 0.971377 0.346362
vt 0.842367 0.653339
vt 0.835895 0.417351
vt 0.842367 0.346362
vt 0.748954 0.306978
vt 0.755427 0.070989
vt 0.834569 0.235084
vt 0.984271 0.346475
vt 0.992741 0.412152
vt 0.982521 0.346362
vt 0.992441 0.545962
vt 0.982521 0.639689
vt 0.990691 0.545849
vt 0.994491 0.412265
vt 0.973675 0.000101
vt 0.975421 0.297877
vt 0.973675 0.297978
vt 0.177546 0.856505
vt 0.175960 0.749776
vt 0.177546 0.750241
vt 0.175960 0.856039
vt 0.173989 0.750338
vt 0.067052 0.749787
vt 0.064990 0.873712
vt 0.064990 0.749776
vt 0.155564 0.749873
vt 0.153978 0.856602
vt 0.153978 0.750338
vt 0.200896 0.389226
vt 0.199098 0.392039
vt 0.197299 0.389415
vt 0.152007 0.856039
vt 0.152007 0.749776
vt 0.086035 0.873320
vt 0.083967 0.749776
vt 0.086035 0.749778
vt 0.189865 0.391144
vt 0.186595 0.391584
vt 0.188230 0.388415
vt 0.234051 0.378950
vt 0.237686 0.347477
vt 0.237686 0.377946
vt 0.134747 0.385049
vt 0.138609 0.347593
vt 0.138609 0.385243
vt 0.245120 0.377804
vt 0.248655 0.347398
vt 0.248655 0.376602
vt 0.252314 0.377661
vt 0.364161 0.384830
vt 0.361328 0.389963
vt 0.358495 0.383413
vt 0.066972 0.347593
vt 0.070834 0.385049
vt 0.066972 0.385243
vt 0.230489 0.347398
vt 0.230489 0.377867
vt 0.263634 0.391726
vt 0.258046 0.390075
vt 0.260840 0.385163
vt 0.095530 0.749776
vt 0.093469 0.873142
vt 0.093469 0.749787
vt 0.210489 0.855168
vt 0.208501 0.750325
vt 0.210489 0.749776
vt 0.208501 0.855717
vt 0.206942 0.749827
vt 0.076533 0.873561
vt 0.074486 0.749776
vt 0.076533 0.749779
vt 0.160100 0.389091
vt 0.159886 0.392652
vt 0.157339 0.390872
vt 0.221470 0.750325
vt 0.219482 0.855168
vt 0.219482 0.749776
vt 0.217923 0.855666
vt 0.217923 0.750274
vt 0.170915 0.389091
vt 0.171035 0.392649
vt 0.168312 0.390870
vt 0.219420 0.378950
vt 0.223055 0.347477
vt 0.223055 0.377946
vt 0.078267 0.385049
vt 0.082130 0.347593
vt 0.082130 0.385243
vt 0.259748 0.377804
vt 0.263284 0.347398
vt 0.263284 0.376602
vt 0.266943 0.377661
vt 0.299084 0.387692
vt 0.296251 0.392825
vt 0.293418 0.386275
vt 0.089563 0.347593
vt 0.093425 0.385049
vt 0.089563 0.385243
vt 0.215858 0.347398
vt 0.215858 0.377866
vt 0.247866 0.385163
vt 0.250612 0.390255
vt 0.245120 0.391746
vt 0.935416 0.653339
vt 0.928944 0.417351
vt 0.935416 0.346362
vt 0.842003 0.306978
vt 0.848476 0.070989
vt 0.927618 0.235084
vt 0.953750 0.416362
vt 0.962192 0.346412
vt 0.963943 0.346362
vt 0.963943 0.652087
vt 0.954374 0.572738
vt 0.956125 0.572688
vt 0.951999 0.416412
vt 0.964494 0.304354
vt 0.966241 0.000066
vt 0.966241 0.304420
vt 0.105044 0.749776
vt 0.102964 0.871720
vt 0.102964 0.749780
vt 0.166555 0.856039
vt 0.164584 0.750338
vt 0.166555 0.749776
vt 0.164584 0.856602
vt 0.162998 0.749873
vt 0.124071 0.871085
vt 0.121988 0.749784
vt 0.124071 0.749776
vt 0.362592 0.365796
vt 0.361044 0.368907
vt 0.359496 0.366013
vt 0.144573 0.750338
vt 0.142602 0.856039
vt 0.142602 0.749776
vt 0.141016 0.856504
vt 0.141016 0.750241
vt 0.217430 0.386309
vt 0.219003 0.389454
vt 0.215858 0.389144
vt 0.204859 0.381056
vt 0.208424 0.347398
vt 0.208424 0.380169
vt 0.100859 0.385049
vt 0.104721 0.347593
vt 0.104721 0.385243
vt 0.157339 0.381624
vt 0.161001 0.347398
vt 0.161001 0.380892
vt 0.164533 0.381733
vt 0.280455 0.387581
vt 0.277416 0.392863
vt 0.274377 0.386405
vt 0.146043 0.347593
vt 0.149905 0.385049
vt 0.146043 0.385243
vt 0.201226 0.347460
vt 0.201226 0.380230
vt 0.351061 0.388608
vt 0.344882 0.387643
vt 0.347972 0.382174
vt 0.199508 0.855666
vt 0.197948 0.749776
vt 0.199508 0.750274
vt 0.197948 0.855168
vt 0.195961 0.750325
vt 0.133582 0.749776
vt 0.131505 0.870220
vt 0.131505 0.749796
vt 0.188527 0.749827
vt 0.186967 0.855717
vt 0.186967 0.750325
vt 0.067977 0.392602
vt 0.070444 0.394334
vt 0.067703 0.396066
vt 0.184980 0.855168
vt 0.184980 0.749776
vt 0.114554 0.871352
vt 0.112478 0.749776
vt 0.114554 0.749793
vt 0.229532 0.389116
vt 0.226436 0.389470
vt 0.227984 0.386309
vt 0.190228 0.381056
vt 0.193793 0.347398
vt 0.193793 0.380169
vt 0.112155 0.385049
vt 0.116017 0.347593
vt 0.116017 0.385243
vt 0.171967 0.381624
vt 0.175629 0.347398
vt 0.175629 0.380892
vt 0.179161 0.381733
vt 0.312459 0.384937
vt 0.318496 0.383822
vt 0.315478 0.390290
vt 0.123451 0.347593
vt 0.127313 0.385049
vt 0.123451 0.385243
vt 0.186595 0.347460
vt 0.186595 0.380230
vt 0.337448 0.388608
vt 0.331270 0.387643
vt 0.334359 0.382174
vt 0.009312 0.396668
vt 0.004732 0.000000
vt 0.009312 0.000023
vt 0.000000 0.396681
vt 0.000000 0.000036
vt 0.059538 0.396533
vt 0.054503 0.000065
vt 0.059538 0.000018
vt 0.054503 0.396580
vt 0.050210 0.000000
vt 0.042777 0.396603
vt 0.038119 0.000064
vt 0.042777 0.000033
vt 0.038119 0.396634
vt 0.033524 0.000000
vt 0.305025 0.356017
vt 0.296818 0.360444
vt 0.293418 0.351826
vt 0.026090 0.396673
vt 0.021124 0.000000
vt 0.026090 0.000027
vt 0.021124 0.396646
vt 0.016746 0.000031
vt 0.282584 0.360016
vt 0.274377 0.357052
vt 0.277776 0.347827
vt 0.692296 0.691648
vt 0.695693 0.963200
vt 0.692296 0.963217
vt 0.000000 0.720076
vt 0.003724 0.934562
vt 0.000000 0.935327
vt 0.003724 0.719311
vt 0.007342 0.935494
vt 0.661402 0.692309
vt 0.664800 0.963862
vt 0.661402 0.963879
vt 0.664800 0.692293
vt 0.668198 0.963879
vt 0.016746 0.749269
vt 0.020446 0.958478
vt 0.016746 0.957631
vt 0.345383 0.368894
vt 0.350106 0.364904
vt 0.352062 0.370825
vt 0.020446 0.750116
vt 0.024091 0.957538
vt 0.688898 0.691631
vt 0.688898 0.963200
vt 0.274377 0.370013
vt 0.279313 0.368485
vt 0.281358 0.375467
vt 0.986252 0.000000
vt 0.989650 0.271586
vt 0.986252 0.271569
vt 0.050210 0.749869
vt 0.053911 0.959078
vt 0.050210 0.958231
vt 0.053911 0.750716
vt 0.057556 0.958138
vt 0.993205 0.691628
vt 0.996602 0.963214
vt 0.993205 0.963197
vt 0.996602 0.691644
vt 1.000000 0.963197
vt 0.033524 0.749936
vt 0.037248 0.964421
vt 0.033524 0.965187
vt 0.337949 0.370825
vt 0.333226 0.374816
vt 0.331270 0.368894
vt 0.037248 0.749171
vt 0.040866 0.965354
vt 0.982855 0.000017
vt 0.982855 0.271586
vt 0.300399 0.375467
vt 0.295463 0.376996
vt 0.293418 0.370013
vt 0.673691 0.337883
vt 0.066972 0.337819
vt 0.000000 0.404039
vt 0.944201 0.307913
vt 0.741520 0.000000
vt 0.016746 0.741806
vt 0.681125 0.337911
vt 0.725133 0.337772
vt 0.725473 0.684206
vt 0.718277 0.684181
vt 0.315104 0.347732
vt 0.318843 0.347398
vt 0.321487 0.350037
vt 0.318843 0.357212
vt 0.312459 0.354907
vt 0.695801 0.337907
vt 0.351767 0.347398
vt 0.354411 0.350037
vt 0.354411 0.354102
vt 0.348027 0.357545
vt 0.345383 0.350842
vt 0.681464 0.684133
vt 0.050210 0.741821
vt 0.936767 0.000000
vt 0.944565 0.654275
vt 0.749318 0.346364
vt 0.033524 0.741812
vt 0.688898 0.684273
vt 0.732907 0.684133
vt 0.717699 0.337844
vt 0.710503 0.337819
vt 0.315104 0.365237
vt 0.318843 0.364904
vt 0.321487 0.367542
vt 0.318843 0.374717
vt 0.312459 0.372412
vt 0.703575 0.684269
vt 0.335305 0.347398
vt 0.337949 0.350037
vt 0.337949 0.354102
vt 0.331565 0.357545
vt 0.328921 0.350842
vt 0.675631 0.692292
vt 0.953350 0.000007
vt 0.975087 0.645236
vt 0.756752 0.581446
vt 0.748954 0.000000
vt 0.984271 0.639802
vt 0.975421 0.000000
vt 0.173989 0.856602
vt 0.067052 0.873722
vt 0.155564 0.856136
vt 0.199098 0.388415
vt 0.200896 0.391038
vt 0.197299 0.391227
vt 0.083967 0.873319
vt 0.189865 0.389177
vt 0.188230 0.392347
vt 0.186595 0.389618
vt 0.234051 0.348482
vt 0.134747 0.347398
vt 0.245120 0.348601
vt 0.252314 0.348457
vt 0.361328 0.382174
vt 0.364161 0.388724
vt 0.358495 0.387307
vt 0.070834 0.347398
vt 0.263634 0.387901
vt 0.260840 0.392813
vt 0.258046 0.386250
vt 0.095530 0.873131
vt 0.206942 0.855219
vt 0.074486 0.873559
vt 0.158330 0.389091
vt 0.160878 0.390872
vt 0.158117 0.392652
vt 0.221470 0.855717
vt 0.169140 0.389091
vt 0.171863 0.390870
vt 0.169259 0.392649
vt 0.219420 0.348482
vt 0.078267 0.347398
vt 0.259748 0.348601
vt 0.266943 0.348457
vt 0.296251 0.385036
vt 0.299084 0.391586
vt 0.293418 0.390169
vt 0.093425 0.347398
vt 0.245120 0.387854
vt 0.250612 0.386363
vt 0.247866 0.392946
vt 0.849801 0.581446
vt 0.842003 0.000000
vt 0.962192 0.652137
vt 0.964494 0.000000
vt 0.105044 0.871717
vt 0.162998 0.856137
vt 0.121988 0.871093
vt 0.361044 0.364904
vt 0.362592 0.367798
vt 0.359496 0.368015
vt 0.144573 0.856602
vt 0.215858 0.387151
vt 0.219003 0.387460
vt 0.217430 0.390296
vt 0.204859 0.348285
vt 0.100859 0.347398
vt 0.157339 0.348130
vt 0.164533 0.348239
vt 0.277416 0.385036
vt 0.280455 0.391495
vt 0.274377 0.390318
vt 0.149905 0.347398
vt 0.351061 0.384640
vt 0.347972 0.390109
vt 0.344882 0.383676
vt 0.195961 0.855717
vt 0.133582 0.870200
vt 0.188527 0.855219
vt 0.066972 0.394334
vt 0.069713 0.392602
vt 0.069439 0.396066
vt 0.112478 0.871335
vt 0.229532 0.387127
vt 0.227984 0.390288
vt 0.226436 0.387480
vt 0.190228 0.348285
vt 0.112155 0.347398
vt 0.171967 0.348130
vt 0.179161 0.348239
vt 0.312459 0.388877
vt 0.315478 0.382409
vt 0.318496 0.387762
vt 0.127313 0.347398
vt 0.337448 0.384640
vt 0.334359 0.390109
vt 0.331270 0.383676
vt 0.004732 0.396645
vt 0.050210 0.396514
vt 0.033524 0.396570
vt 0.296818 0.347827
vt 0.301626 0.347398
vt 0.305025 0.350791
vt 0.301626 0.360016
vt 0.293418 0.357052
vt 0.016746 0.396676
vt 0.282584 0.347398
vt 0.285984 0.350791
vt 0.285984 0.356017
vt 0.277776 0.360444
vt 0.274377 0.351826
vt 0.695693 0.691631
vt 0.007342 0.720243
vt 0.668198 0.692309
vt 0.350106 0.374047
vt 0.347339 0.374816
vt 0.345383 0.372682
vt 0.347339 0.365673
vt 0.352062 0.367038
vt 0.024091 0.749176
vt 0.279313 0.377678
vt 0.276421 0.376996
vt 0.274377 0.373821
vt 0.276421 0.367803
vt 0.281358 0.371659
vt 0.989650 0.000017
vt 0.057556 0.749776
vt 1.000000 0.691628
vt 0.333226 0.365673
vt 0.335993 0.364904
vt 0.337949 0.367038
vt 0.335993 0.374047
vt 0.331270 0.372682
vt 0.040866 0.750103
vt 0.295463 0.367803
vt 0.298354 0.368485
vt 0.300399 0.371659
vt 0.298354 0.377678
vt 0.293418 0.373821
s 0
usemtl MMO_cream
f 2/1/1 4/2/1 1/3/1
f 8/4/2 6/5/2 5/6/2
f 4/7/3 7/8/3 8/9/3
f 1/10/4 6/11/4 2/12/4
f 2/13/5 7/14/5 3/15/5
f 4/16/6 5/17/6 1/18/6
f 26/44/22 28/45/22 25/46/22
f 32/47/23 30/48/23 29/49/23
f 27/50/3 32/51/3 28/52/3
f 26/53/4 29/54/4 30/55/4
f 26/56/24 31/57/24 27/58/24
f 28/59/25 29/60/25 25/61/25
f 51/87/4 49/88/4 50/89/4
f 52/90/3 54/91/3 53/92/3
f 52/93/26 50/94/26 49/95/26
f 53/96/23 51/97/23 50/98/23
f 54/99/1 49/100/1 51/101/1
f 2/1/1 3/384/1 4/2/1
f 8/4/2 7/385/2 6/5/2
f 4/7/3 3/386/3 7/8/3
f 1/10/4 5/387/4 6/11/4
f 2/13/5 6/388/5 7/14/5
f 4/16/6 8/389/6 5/17/6
f 26/44/22 27/405/22 28/45/22
f 32/47/23 31/406/23 30/48/23
f 27/50/3 31/407/3 32/51/3
f 26/53/4 25/408/4 29/54/4
f 26/56/24 30/409/24 31/57/24
f 28/59/25 32/410/25 29/60/25
f 52/93/26 53/426/26 50/94/26
f 53/96/23 54/427/23 51/97/23
f 54/99/1 52/428/1 49/100/1
s 1
usemtl MMO_oak
f 10/19/7 11/20/8 9/21/9
f 12/22/10 13/23/11 11/20/8
f 14/24/12 15/25/13 13/26/11
f 16/27/14 17/28/15 15/25/13
f 17/29/15 20/30/16 19/31/17
f 20/30/16 21/32/18 19/31/17
s 0
f 22/33/3 18/34/3 14/35/3
s 1
f 22/36/19 23/37/20 21/38/18
f 24/39/21 9/40/9 23/37/20
s 0
f 15/41/4 19/42/4 23/43/4
s 1
f 34/62/7 35/63/8 33/64/9
f 36/65/10 37/66/11 35/63/8
f 38/67/12 39/68/13 37/69/11
f 40/70/14 41/71/15 39/68/13
f 41/72/15 44/73/16 43/74/17
f 44/73/16 45/75/18 43/74/17
s 0
f 46/76/3 42/77/3 38/78/3
s 1
f 46/79/19 47/80/20 45/81/18
f 48/82/21 33/83/9 47/80/20
s 0
f 39/84/4 43/85/4 47/86/4
s 1
f 10/19/7 12/22/10 11/20/8
f 12/22/10 14/390/12 13/23/11
f 14/24/12 16/27/14 15/25/13
f 16/27/14 18/391/117 17/28/15
f 17/29/15 18/392/117 20/30/16
f 20/30/16 22/393/19 21/32/18
s 0
f 14/35/3 12/394/3 10/395/3
f 10/395/3 24/396/3 22/33/3
f 22/33/3 20/397/3 18/34/3
f 18/34/3 16/398/3 14/35/3
f 14/35/3 10/395/3 22/33/3
s 1
f 22/36/19 24/39/21 23/37/20
f 24/39/21 10/399/7 9/40/9
s 0
f 23/43/4 9/400/4 11/401/4
f 11/401/4 13/402/4 15/41/4
f 15/41/4 17/403/4 19/42/4
f 19/42/4 21/404/4 23/43/4
f 23/43/4 11/401/4 15/41/4
s 1
f 34/62/7 36/65/10 35/63/8
f 36/65/10 38/411/12 37/66/11
f 38/67/12 40/70/14 39/68/13
f 40/70/14 42/412/117 41/71/15
f 41/72/15 42/413/117 44/73/16
f 44/73/16 46/414/19 45/75/18
s 0
f 38/78/3 36/415/3 34/416/3
f 34/416/3 48/417/3 46/76/3
f 46/76/3 44/418/3 42/77/3
f 42/77/3 40/419/3 38/78/3
f 38/78/3 34/416/3 46/76/3
s 1
f 46/79/19 48/82/21 47/80/20
f 48/82/21 34/420/7 33/83/9
s 0
f 47/86/4 33/421/4 35/422/4
f 35/422/4 37/423/4 39/84/4
f 39/84/4 41/424/4 43/85/4
f 43/85/4 45/425/4 47/86/4
f 47/86/4 35/422/4 39/84/4
usemtl MMO_teal
f 55/102/27 57/103/27 58/104/27
f 59/105/28 61/106/28 60/107/28
f 58/108/29 61/109/29 62/110/29
f 56/111/30 59/112/30 60/113/30
f 56/111/31 61/109/31 57/114/31
f 58/115/32 59/116/32 55/117/32
f 111/204/72 113/205/72 114/206/72
f 115/207/73 117/208/73 116/209/73
f 113/210/74 118/211/74 114/212/74
f 111/213/75 116/214/75 112/215/75
f 113/210/76 116/214/76 117/216/76
f 111/217/77 118/218/77 115/219/77
f 55/102/135 56/429/135 57/103/135
f 59/105/136 62/430/136 61/106/136
f 58/108/29 57/114/29 61/109/29
f 56/111/30 55/431/30 59/112/30
f 56/111/31 60/113/31 61/109/31
f 58/115/32 62/432/32 59/116/32
f 111/204/140 112/475/140 113/205/140
f 115/207/141 118/476/141 117/208/141
f 113/210/74 117/216/74 118/211/74
f 111/213/75 115/477/75 116/214/75
f 113/210/76 112/215/76 116/214/76
f 111/217/77 114/478/77 118/218/77
s 1
usemtl MMO_honey
f 64/118/33 65/119/34 63/120/35
f 66/121/36 67/122/37 65/119/34
f 67/123/37 70/124/38 69/125/39
f 69/126/39 72/127/40 71/128/41
s 0
f 64/129/42 72/130/42 68/131/42
s 1
f 71/128/41 74/132/43 73/133/44
f 74/134/43 63/135/35 73/136/44
s 0
f 65/137/45 69/138/45 73/139/45
s 1
f 87/161/59 90/162/60 89/163/61
f 90/164/60 91/165/62 89/166/61
f 92/167/63 93/168/64 91/165/62
f 94/169/65 95/170/66 93/171/64
s 0
f 88/172/67 96/173/67 92/174/67
s 1
f 95/175/66 98/176/68 97/177/69
f 97/177/69 88/178/70 87/179/59
s 0
f 89/180/71 93/181/71 97/182/71
s 1
f 119/220/78 122/221/79 121/222/80
f 122/223/79 123/224/81 121/225/80
f 124/226/82 125/227/83 123/224/81
f 126/228/84 127/229/85 125/230/83
s 0
f 120/231/86 128/232/86 124/233/86
s 1
f 127/234/85 130/235/87 129/236/88
f 129/236/88 120/237/89 119/238/78
s 0
f 121/239/90 125/240/90 129/241/90
s 1
f 144/263/104 145/264/105 143/265/106
f 146/266/107 147/267/108 145/264/105
f 147/268/108 150/269/109 149/270/110
f 149/271/110 152/272/111 151/273/112
s 0
f 144/274/113 152/275/113 148/276/113
s 1
f 151/273/112 154/277/114 153/278/115
f 154/279/114 143/280/106 153/281/115
s 0
f 145/282/116 149/283/116 153/284/116
s 1
f 64/118/33 66/121/36 65/119/34
f 66/121/36 68/433/137 67/122/37
f 67/123/37 68/434/137 70/124/38
f 69/126/39 70/435/38 72/127/40
s 0
f 68/131/42 66/436/42 64/129/42
f 64/129/42 74/437/42 72/130/42
f 72/130/42 70/438/42 68/131/42
s 1
f 71/128/41 72/127/40 74/132/43
f 74/134/43 64/439/33 63/135/35
s 0
f 73/139/45 63/440/45 65/137/45
f 65/137/45 67/441/45 69/138/45
f 69/138/45 71/442/45 73/139/45
s 1
f 87/161/59 88/454/70 90/162/60
f 90/164/60 92/167/63 91/165/62
f 92/167/63 94/455/65 93/168/64
f 94/169/65 96/456/139 95/170/66
s 0
f 92/174/67 90/457/67 88/172/67
f 88/172/67 98/458/67 96/173/67
f 96/173/67 94/459/67 92/174/67
s 1
f 95/175/66 96/460/139 98/176/68
f 97/177/69 98/176/68 88/178/70
s 0
f 97/182/71 87/461/71 89/180/71
f 89/180/71 91/462/71 93/181/71
f 93/181/71 95/463/71 97/182/71
s 1
f 119/220/78 120/479/89 122/221/79
f 122/223/79 124/226/82 123/224/81
f 124/226/82 126/480/84 125/227/83
f 126/228/84 128/481/142 127/229/85
s 0
f 124/233/86 122/482/86 120/231/86
f 120/231/86 130/483/86 128/232/86
f 128/232/86 126/484/86 124/233/86
s 1
f 127/234/85 128/485/142 130/235/87
f 129/236/88 130/235/87 120/237/89
s 0
f 129/241/90 119/486/90 121/239/90
f 121/239/90 123/487/90 125/240/90
f 125/240/90 127/488/90 129/241/90
s 1
f 144/263/104 146/266/107 145/264/105
f 146/266/107 148/500/144 147/267/108
f 147/268/108 148/501/144 150/269/109
f 149/271/110 150/502/109 152/272/111
s 0
f 148/276/113 146/503/113 144/274/113
f 144/274/113 154/504/113 152/275/113
f 152/275/113 150/505/113 148/276/113
s 1
f 151/273/112 152/272/111 154/277/114
f 154/279/114 144/506/104 143/280/106
s 0
f 153/284/116 143/507/116 145/282/116
f 145/282/116 147/508/116 149/283/116
f 149/283/116 151/509/116 153/284/116
s 1
usemtl MMO_darkwood
f 75/140/46 78/141/47 77/142/48
f 77/143/48 80/144/49 79/145/50
f 79/146/50 82/147/51 81/148/52
f 82/147/51 83/149/53 81/148/52
s 0
f 76/150/54 84/151/54 80/152/54
s 1
f 84/153/55 85/154/56 83/155/53
f 86/156/57 75/140/46 85/157/56
s 0
f 77/158/58 81/159/58 85/160/58
s 1
f 99/183/46 102/184/47 101/185/48
f 101/186/48 104/187/49 103/188/50
f 103/189/50 106/190/51 105/191/52
f 106/190/51 107/192/53 105/191/52
s 0
f 100/193/54 108/194/54 104/195/54
s 1
f 108/196/55 109/197/56 107/198/53
f 110/199/57 99/183/46 109/200/56
s 0
f 101/201/58 105/202/58 109/203/58
s 1
f 131/242/91 134/243/92 133/244/93
f 133/245/93 136/246/94 135/247/95
f 135/248/95 138/249/96 137/250/97
f 138/249/96 139/251/98 137/250/97
s 0
f 132/252/99 140/253/99 136/254/99
s 1
f 140/255/100 141/256/101 139/257/98
f 142/258/102 131/242/91 141/259/101
s 0
f 133/260/103 137/261/103 141/262/103
s 1
f 155/285/91 158/286/92 157/287/93
f 157/288/93 160/289/94 159/290/95
f 159/291/95 162/292/96 161/293/97
f 162/292/96 163/294/98 161/293/97
s 0
f 156/295/99 164/296/99 160/297/99
s 1
f 164/298/100 165/299/101 163/300/98
f 166/301/102 155/285/91 165/302/101
s 0
f 157/303/103 161/304/103 165/305/103
s 1
f 168/306/7 169/307/8 167/308/9
f 169/307/8 172/309/12 171/310/11
f 172/311/12 173/312/13 171/313/11
f 174/314/14 175/315/15 173/312/13
f 176/316/117 177/317/17 175/318/15
f 178/319/16 179/320/18 177/317/17
s 0
f 180/321/3 176/322/3 172/323/3
s 1
f 180/324/19 181/325/20 179/326/18
f 182/327/21 167/328/9 181/325/20
s 0
f 173/329/4 177/330/4 181/331/4
s 1
f 184/332/118 185/333/119 183/334/120
f 186/335/121 187/336/122 185/337/119
f 188/338/123 189/339/124 187/336/122
f 190/340/125 191/341/126 189/342/124
f 192/343/127 193/344/128 191/341/126
f 194/345/129 195/346/130 193/347/128
s 0
f 196/348/131 192/349/131 188/350/131
s 1
f 196/351/132 197/352/133 195/346/130
f 198/353/134 183/334/120 197/354/133
s 0
f 189/355/26 193/356/26 197/357/26
s 1
f 200/358/127 201/359/128 199/360/126
f 202/361/129 203/362/130 201/363/128
f 204/364/132 205/365/133 203/362/130
f 206/366/134 207/367/120 205/368/133
f 208/369/118 209/370/119 207/367/120
f 210/371/121 211/372/122 209/373/119
s 0
f 212/374/131 208/375/131 204/376/131
s 1
f 212/377/123 213/378/124 211/372/122
f 214/379/125 199/360/126 213/380/124
s 0
f 205/381/26 209/382/26 213/383/26
s 1
f 75/140/46 76/443/138 78/141/47
f 77/143/48 78/444/47 80/144/49
f 79/146/50 80/445/49 82/147/51
f 82/147/51 84/446/55 83/149/53
s 0
f 80/152/54 78/447/54 76/150/54
f 76/150/54 86/448/54 84/151/54
f 84/151/54 82/449/54 80/152/54
s 1
f 84/153/55 86/450/57 85/154/56
f 86/156/57 76/443/138 75/140/46
s 0
f 85/160/58 75/451/58 77/158/58
f 77/158/58 79/452/58 81/159/58
f 81/159/58 83/453/58 85/160/58
s 1
f 99/183/46 100/464/138 102/184/47
f 101/186/48 102/465/47 104/187/49
f 103/189/50 104/466/49 106/190/51
f 106/190/51 108/467/55 107/192/53
s 0
f 104/195/54 102/468/54 100/193/54
f 100/193/54 110/469/54 108/194/54
f 108/194/54 106/470/54 104/195/54
s 1
f 108/196/55 110/471/57 109/197/56
f 110/199/57 100/464/138 99/183/46
s 0
f 109/203/58 99/472/58 101/201/58
f 101/201/58 103/473/58 105/202/58
f 105/202/58 107/474/58 109/203/58
s 1
f 131/242/91 132/489/143 134/243/92
f 133/245/93 134/490/92 136/246/94
f 135/248/95 136/491/94 138/249/96
f 138/249/96 140/492/100 139/251/98
s 0
f 136/254/99 134/493/99 132/252/99
f 132/252/99 142/494/99 140/253/99
f 140/253/99 138/495/99 136/254/99
s 1
f 140/255/100 142/496/102 141/256/101
f 142/258/102 132/489/143 131/242/91
s 0
f 141/262/103 131/497/103 133/260/103
f 133/260/103 135/498/103 137/261/103
f 137/261/103 139/499/103 141/262/103
s 1
f 155/285/91 156/510/143 158/286/92
f 157/288/93 158/511/92 160/289/94
f 159/291/95 160/512/94 162/292/96
f 162/292/96 164/513/100 163/294/98
s 0
f 160/297/99 158/514/99 156/295/99
f 156/295/99 166/515/99 164/296/99
f 164/296/99 162/516/99 160/297/99
s 1
f 164/298/100 166/517/102 165/299/101
f 166/301/102 156/510/143 155/285/91
s 0
f 165/305/103 155/518/103 157/303/103
f 157/303/103 159/519/103 161/304/103
f 161/304/103 163/520/103 165/305/103
s 1
f 168/306/7 170/521/10 169/307/8
f 169/307/8 170/521/10 172/309/12
f 172/311/12 174/314/14 173/312/13
f 174/314/14 176/522/117 175/315/15
f 176/316/117 178/319/16 177/317/17
f 178/319/16 180/523/19 179/320/18
s 0
f 172/323/3 170/524/3 168/525/3
f 168/525/3 182/526/3 180/321/3
f 180/321/3 178/527/3 176/322/3
f 176/322/3 174/528/3 172/323/3
f 172/323/3 168/525/3 180/321/3
s 1
f 180/324/19 182/327/21 181/325/20
f 182/327/21 168/529/7 167/328/9
s 0
f 181/331/4 167/530/4 169/531/4
f 169/531/4 171/532/4 173/329/4
f 173/329/4 175/533/4 177/330/4
f 177/330/4 179/534/4 181/331/4
f 181/331/4 169/531/4 173/329/4
s 1
f 184/332/118 186/535/121 185/333/119
f 186/335/121 188/338/123 187/336/122
f 188/338/123 190/536/125 189/339/124
f 190/340/125 192/343/127 191/341/126
f 192/343/127 194/537/129 193/344/128
f 194/345/129 196/351/132 195/346/130
s 0
f 188/350/131 186/538/131 184/539/131
f 184/539/131 198/540/131 196/348/131
f 196/348/131 194/541/131 192/349/131
f 192/349/131 190/542/131 188/350/131
f 188/350/131 184/539/131 196/348/131
s 1
f 196/351/132 198/543/134 197/352/133
f 198/353/134 184/332/118 183/334/120
s 0
f 197/357/26 183/544/26 185/545/26
f 185/545/26 187/546/26 189/355/26
f 189/355/26 191/547/26 193/356/26
f 193/356/26 195/548/26 197/357/26
f 197/357/26 185/545/26 189/355/26
s 1
f 200/358/127 202/549/129 201/359/128
f 202/361/129 204/364/132 203/362/130
f 204/364/132 206/550/134 205/365/133
f 206/366/134 208/369/118 207/367/120
f 208/369/118 210/551/121 209/370/119
f 210/371/121 212/377/123 211/372/122
s 0
f 204/376/131 202/552/131 200/553/131
f 200/553/131 214/554/131 212/374/131
f 212/374/131 210/555/131 208/375/131
f 208/375/131 206/556/131 204/376/131
f 204/376/131 200/553/131 212/374/131
s 1
f 212/377/123 214/557/125 213/378/124
f 214/379/125 200/358/127 199/360/126
s 0
f 213/383/26 199/558/26 201/559/26
f 201/559/26 203/560/26 205/381/26
f 205/381/26 207/561/26 209/382/26
f 209/382/26 211/562/26 213/383/26
f 213/383/26 201/559/26 205/381/26
