# Blender 4.0.2
# www.blender.org
mtllib torch.mtl
o torch
v -0.000000 -0.500000 -0.040909
v -0.000000 0.182540 -0.040909
v 0.023642 -0.500000 -0.033096
v 0.023642 0.182540 -0.033096
v 0.038253 -0.500000 -0.012642
v 0.038253 0.182540 -0.012642
v 0.038253 -0.500000 0.012642
v 0.038253 0.182540 0.012642
v 0.023642 -0.500000 0.033096
v 0.023642 0.182540 0.033096
v -0.000000 -0.500000 0.040909
v -0.000000 0.182540 0.040909
v -0.023642 -0.500000 0.033096
v -0.023642 0.182540 0.033096
v -0.038253 -0.500000 0.012642
v -0.038253 0.182540 0.012642
v -0.038253 -0.500000 -0.012642
v -0.038253 0.182540 -0.012642
v -0.023642 -0.500000 -0.033096
v -0.023642 0.182540 -0.033096
v 0.064355 0.071429 0.000000
v 0.058992 0.079676 0.000000
v 0.048266 0.079676 0.000000
v 0.042903 0.071429 0.000000
v 0.048266 0.063181 0.000000
v 0.058992 0.063181 0.000000
v 0.061205 0.071429 -0.020227
v 0.056105 0.079676 -0.018541
v 0.045904 0.079676 -0.015170
v 0.040803 0.071429 -0.013484
v 0.045904 0.063181 -0.015170
v 0.056105 0.063181 -0.018541
v 0.052064 0.071429 -0.038473
v 0.047726 0.079676 -0.035267
v 0.039048 0.079676 -0.028855
v 0.034710 0.071429 -0.025649
v 0.039048 0.063181 -0.028855
v 0.047726 0.063181 -0.035267
v 0.037827 0.071429 -0.052954
v 0.034675 0.079676 -0.048541
v 0.028370 0.079676 -0.039715
v 0.025218 0.071429 -0.035303
v 0.028370 0.063181 -0.039715
v 0.034675 0.063181 -0.048541
v 0.019887 0.071429 -0.062251
v 0.018230 0.079676 -0.057063
v 0.014915 0.079676 -0.046688
v 0.013258 0.071429 -0.041501
v 0.014915 0.063181 -0.046688
v 0.018230 0.063181 -0.057063
v 0.000000 0.071429 -0.065455
v 0.000000 0.079676 -0.060000
v 0.000000 0.079676 -0.049091
v -0.000000 0.071429 -0.043636
v 0.000000 0.063181 -0.049091
v 0.000000 0.063181 -0.060000
v -0.019887 0.071429 -0.062251
v -0.018230 0.079676 -0.057063
v -0.014915 0.079676 -0.046688
v -0.013258 0.071429 -0.041501
v -0.014915 0.063181 -0.046688
v -0.018230 0.063181 -0.057063
v -0.037827 0.071429 -0.052954
v -0.034675 0.079676 -0.048541
v -0.028370 0.079676 -0.039715
v -0.025218 0.071429 -0.035303
v -0.028370 0.063181 -0.039715
v -0.034675 0.063181 -0.048541
v -0.052064 0.071429 -0.038473
v -0.047726 0.079676 -0.035267
v -0.039048 0.079676 -0.028855
v -0.034710 0.071429 -0.025649
v -0.039048 0.063181 -0.028855
v -0.047726 0.063181 -0.035267
v -0.061205 0.071429 -0.020227
v -0.056105 0.079676 -0.018541
v -0.045904 0.079676 -0.015170
v -0.040804 0.071429 -0.013484
v -0.045904 0.063181 -0.015170
v -0.056105 0.063181 -0.018541
v -0.064355 0.071429 -0.000000
v -0.058992 0.079676 -0.000000
v -0.048266 0.079676 -0.000000
v -0.042903 0.071429 -0.000000
v -0.048266 0.063181 -0.000000
v -0.058992 0.063181 -0.000000
v -0.061205 0.071429 0.020227
v -0.056105 0.079676 0.018541
v -0.045904 0.079676 0.015170
v -0.040804 0.071429 0.013484
v -0.045904 0.063181 0.015170
v -0.056105 0.063181 0.018541
v -0.052064 0.071429 0.038473
v -0.047726 0.079676 0.035267
v -0.039048 0.079676 0.028855
v -0.034710 0.071429 0.025649
v -0.039048 0.063181 0.028855
v -0.047726 0.063181 0.035267
v -0.037827 0.071429 0.052954
v -0.034675 0.079676 0.048541
v -0.028370 0.079676 0.039715
v -0.025218 0.071429 0.035303
v -0.028370 0.063181 0.039715
v -0.034675 0.063181 0.048541
v -0.019887 0.071429 0.062251
v -0.018230 0.079676 0.057063
v -0.014915 0.079676 0.046688
v -0.013258 0.071429 0.041501
v -0.014915 0.063181 0.046688
v -0.018230 0.063181 0.057063
v 0.000000 0.071429 0.065455
v 0.000000 0.079676 0.060000
v 0.000000 0.079676 0.049091
v -0.000000 0.071429 0.043636
v 0.000000 0.063181 0.049091
v 0.000000 0.063181 0.060000
v 0.019887 0.071429 0.062251
v 0.018230 0.079676 0.057063
v 0.014915 0.079676 0.046688
v 0.013258 0.071429 0.041501
v 0.014915 0.063181 0.046688
v 0.018230 0.063181 0.057063
v 0.037827 0.071429 0.052954
v 0.034675 0.079676 0.048541
v 0.028370 0.079676 0.039715
v 0.025218 0.071429 0.035303
v 0.028370 0.063181 0.039715
v 0.034675 0.063181 0.048541
v 0.052064 0.071429 0.038473
v 0.047726 0.079676 0.035267
v 0.039048 0.079676 0.028855
v 0.034710 0.071429 0.025649
v 0.039048 0.063181 0.028855
v 0.047726 0.063181 0.035267
v 0.061205 0.071429 0.020227
v 0.056105 0.079676 0.018541
v 0.045904 0.079676 0.015170
v 0.040803 0.071429 0.013484
v 0.045904 0.063181 0.015170
v 0.056105 0.063181 0.018541
v 0.064355 0.150794 0.000000
v 0.058992 0.159042 0.000000
v 0.048266 0.159042 0.000000
v 0.042903 0.150794 0.000000
v 0.048266 0.142546 0.000000
v 0.058992 0.142546 0.000000
v 0.061205 0.150794 -0.020227
v 0.056105 0.159042 -0.018541
v 0.045904 0.159042 -0.015170
v 0.040803 0.150794 -0.013484
v 0.045904 0.142546 -0.015170
v 0.056105 0.142546 -0.018541
v 0.052064 0.150794 -0.038473
v 0.047726 0.159042 -0.035267
v 0.039048 0.159042 -0.028855
v 0.034710 0.150794 -0.025649
v 0.039048 0.142546 -0.028855
v 0.047726 0.142546 -0.035267
v 0.037827 0.150794 -0.052954
v 0.034675 0.159042 -0.048541
v 0.028370 0.159042 -0.039715
v 0.025218 0.150794 -0.035303
v 0.028370 0.142546 -0.039715
v 0.034675 0.142546 -0.048541
v 0.019887 0.150794 -0.062251
v 0.018230 0.159042 -0.057063
v 0.014915 0.159042 -0.046688
v 0.013258 0.150794 -0.041501
v 0.014915 0.142546 -0.046688
v 0.018230 0.142546 -0.057063
v 0.000000 0.150794 -0.065455
v 0.000000 0.159042 -0.060000
v 0.000000 0.159042 -0.049091
v -0.000000 0.150794 -0.043636
v 0.000000 0.142546 -0.049091
v 0.000000 0.142546 -0.060000
v -0.019887 0.150794 -0.062251
v -0.018230 0.159042 -0.057063
v -0.014915 0.159042 -0.046688
v -0.013258 0.150794 -0.041501
v -0.014915 0.142546 -0.046688
v -0.018230 0.142546 -0.057063
v -0.037827 0.150794 -0.052954
v -0.034675 0.159042 -0.048541
v -0.028370 0.159042 -0.039715
v -0.025218 0.150794 -0.035303
v -0.028370 0.142546 -0.039715
v -0.034675 0.142546 -0.048541
v -0.052064 0.150794 -0.038473
v -0.047726 0.159042 -0.035267
v -0.039048 0.159042 -0.028855
v -0.034710 0.150794 -0.025649
v -0.039048 0.142546 -0.028855
v -0.047726 0.142546 -0.035267
v -0.061205 0.150794 -0.020227
v -0.056105 0.159042 -0.018541
v -0.045904 0.159042 -0.015170
v -0.040804 0.150794 -0.013484
v -0.045904 0.142546 -0.015170
v -0.056105 0.142546 -0.018541
v -0.064355 0.150794 -0.000000
v -0.058992 0.159042 -0.000000
v -0.048266 0.159042 -0.000000
v -0.042903 0.150794 -0.000000
v -0.048266 0.142546 -0.000000
v -0.058992 0.142546 -0.000000
v -0.061205 0.150794 0.020227
v -0.056105 0.159042 0.018541
v -0.045904 0.159042 0.015170
v -0.040804 0.150794 0.013484
v -0.045904 0.142546 0.015170
v -0.056105 0.142546 0.018541
v -0.052064 0.150794 0.038473
v -0.047726 0.159042 0.035267
v -0.039048 0.159042 0.028855
v -0.034710 0.150794 0.025649
v -0.039048 0.142546 0.028855
v -0.047726 0.142546 0.035267
v -0.037827 0.150794 0.052954
v -0.034675 0.159042 0.048541
v -0.028370 0.159042 0.039715
v -0.025218 0.150794 0.035303
v -0.028370 0.142546 0.039715
v -0.034675 0.142546 0.048541
v -0.019887 0.150794 0.062251
v -0.018230 0.159042 0.057063
v -0.014915 0.159042 0.046688
v -0.013258 0.150794 0.041501
v -0.014915 0.142546 0.046688
v -0.018230 0.142546 0.057063
v 0.000000 0.150794 0.065455
v 0.000000 0.159042 0.060000
v 0.000000 0.159042 0.049091
v -0.000000 0.150794 0.043636
v 0.000000 0.142546 0.049091
v 0.000000 0.142546 0.060000
v 0.019887 0.150794 0.062251
v 0.018230 0.159042 0.057063
v 0.014915 0.159042 0.046688
v 0.013258 0.150794 0.041501
v 0.014915 0.142546 0.046688
v 0.018230 0.142546 0.057063
v 0.037827 0.150794 0.052954
v 0.034675 0.159042 0.048541
v 0.028370 0.159042 0.039715
v 0.025218 0.150794 0.035303
v 0.028370 0.142546 0.039715
v 0.034675 0.142546 0.048541
v 0.052064 0.150794 0.038473
v 0.047726 0.159042 0.035267
v 0.039048 0.159042 0.028855
v 0.034710 0.150794 0.025649
v 0.039048 0.142546 0.028855
v 0.047726 0.142546 0.035267
v 0.061205 0.150794 0.020227
v 0.056105 0.159042 0.018541
v 0.045904 0.159042 0.015170
v 0.040803 0.150794 0.013484
v 0.045904 0.142546 0.015170
v 0.056105 0.142546 0.018541
v -0.000000 0.130952 -0.068182
v -0.000000 0.265873 -0.100000
v 0.033518 0.130952 -0.059047
v 0.049160 0.265873 -0.086603
v 0.058055 0.130952 -0.034091
v 0.085148 0.265873 -0.050000
v 0.067036 0.130952 0.000000
v 0.098320 0.265873 0.000000
v 0.058055 0.130952 0.034091
v 0.085148 0.265873 0.050000
v 0.033518 0.130952 0.059047
v 0.049160 0.265873 0.086603
v -0.000000 0.130952 0.068182
v -0.000000 0.265873 0.100000
v -0.033518 0.130952 0.059047
v -0.049160 0.265873 0.086603
v -0.058055 0.130952 0.034091
v -0.085148 0.265873 0.050000
v -0.067036 0.130952 0.000000
v -0.098320 0.265873 0.000000
v -0.058055 0.130952 -0.034091
v -0.085148 0.265873 -0.050000
v -0.033518 0.130952 -0.059047
v -0.049160 0.265873 -0.086603
v 0.051949 0.136268 -0.000000
v 0.078764 0.302934 0.000000
v 0.057258 0.135594 -0.009448
v 0.084073 0.302261 -0.009448
v 0.067876 0.134247 -0.009448
v 0.094691 0.300914 -0.009448
v 0.073185 0.133574 -0.000000
v 0.100000 0.300240 0.000000
v 0.067876 0.134247 0.009448
v 0.094691 0.300914 0.009448
v 0.057258 0.135594 0.009448
v 0.084073 0.302261 0.009448
v 0.025975 0.136268 -0.045758
v 0.039382 0.302934 -0.069377
v 0.020585 0.135594 -0.055158
v 0.033992 0.302261 -0.078777
v 0.025894 0.134247 -0.064511
v 0.039301 0.300914 -0.088130
v 0.036593 0.133574 -0.064463
v 0.050000 0.300240 -0.088082
v 0.041983 0.134247 -0.055063
v 0.055390 0.300914 -0.078682
v 0.036674 0.135594 -0.045711
v 0.050081 0.302261 -0.069330
v -0.025975 0.136268 -0.045758
v -0.039382 0.302934 -0.069377
v -0.036674 0.135594 -0.045711
v -0.050081 0.302261 -0.069330
v -0.041983 0.134247 -0.055063
v -0.055390 0.300914 -0.078682
v -0.036593 0.133574 -0.064463
v -0.050000 0.300240 -0.088082
v -0.025894 0.134247 -0.064511
v -0.039301 0.300914 -0.088130
v -0.020585 0.135594 -0.055158
v -0.033992 0.302261 -0.078777
v -0.051949 0.136268 -0.000000
v -0.078764 0.302934 0.000000
v -0.057258 0.135594 0.009448
v -0.084073 0.302261 0.009448
v -0.067876 0.134247 0.009448
v -0.094691 0.300914 0.009448
v -0.073185 0.133574 -0.000000
v -0.100000 0.300240 0.000000
v -0.067876 0.134247 -0.009448
v -0.094691 0.300914 -0.009448
v -0.057258 0.135594 -0.009448
v -0.084073 0.302261 -0.009448
v -0.025975 0.136267 0.045758
v -0.039382 0.302934 0.069377
v -0.020585 0.135594 0.055158
v -0.033992 0.302261 0.078777
v -0.025894 0.134247 0.064511
v -0.039301 0.300914 0.088130
v -0.036593 0.133574 0.064463
v -0.050000 0.300240 0.088082
v -0.041983 0.134247 0.055063
v -0.055390 0.300914 0.078682
v -0.036674 0.135594 0.045711
v -0.050081 0.302261 0.069330
v 0.025975 0.136267 0.045758
v 0.039382 0.302934 0.069377
v 0.036674 0.135594 0.045711
v 0.050081 0.302261 0.069330
v 0.041983 0.134247 0.055063
v 0.055390 0.300914 0.078682
v 0.036593 0.133574 0.064463
v 0.050000 0.300240 0.088082
v 0.025894 0.134247 0.064511
v 0.039301 0.300914 0.088130
v 0.020585 0.135594 0.055158
v 0.033992 0.302261 0.078777
v -0.000000 0.150794 0.000000
v 0.058209 0.247312 0.038234
v -0.022233 0.247312 0.061865
v -0.071951 0.247312 0.000000
v -0.022233 0.247312 -0.061865
v 0.058209 0.247312 -0.038234
v 0.022233 0.403482 0.061865
v -0.058209 0.403482 0.038234
v -0.058209 0.403482 -0.038234
v 0.022233 0.403482 -0.061865
v 0.071951 0.403482 0.000000
v -0.000000 0.500000 0.000000
v 0.012513 0.206349 0.018182
v 0.043558 0.280931 0.040644
v 0.000656 0.280931 0.054527
v -0.025860 0.280931 0.018182
v 0.000656 0.280931 -0.018164
v 0.043558 0.280931 -0.004281
v 0.024371 0.401608 0.054527
v -0.018531 0.401608 0.040644
v -0.018531 0.401608 -0.004281
v 0.024371 0.401608 -0.018164
v 0.050887 0.401608 0.018182
v 0.012513 0.476190 0.018182
vn -0.0000 0.6428 -0.7660
vn 0.4540 -0.6434 -0.6163
vn -0.0000 -0.6428 -0.7660
vn 0.4540 0.6434 -0.6163
vn 0.7282 -0.6444 -0.2334
vn 0.7282 0.6444 -0.2334
vn 0.7282 -0.6444 0.2334
vn 0.7282 0.6444 0.2334
vn 0.4540 -0.6434 0.6163
vn 0.4540 0.6434 0.6163
vn -0.0000 -0.6428 0.7660
vn -0.0000 0.6428 0.7660
vn -0.4540 -0.6434 0.6163
vn -0.4540 0.6434 0.6163
vn -0.7282 -0.6444 0.2334
vn -0.7282 0.6444 0.2334
vn -0.7282 -0.6444 -0.2334
vn -0.0000 1.0000 -0.0000
vn -0.7282 0.6444 -0.2334
vn -0.4540 -0.6434 -0.6163
vn -0.4540 0.6434 -0.6163
vn -0.0000 -1.0000 -0.0000
vn 1.0000 -0.0000 -0.0000
vn 0.4871 0.8594 -0.1554
vn 0.5115 0.8593 -0.0000
vn -0.4178 0.8986 0.1338
vn -0.4391 0.8984 -0.0000
vn -0.9527 -0.0000 0.3040
vn -1.0000 -0.0000 -0.0000
vn -0.4391 -0.8984 -0.0000
vn -0.4178 -0.8986 0.1338
vn 0.5115 -0.8593 -0.0000
vn 0.4871 -0.8594 -0.1554
vn 0.9524 -0.0000 -0.3050
vn 0.4157 0.8597 -0.2966
vn -0.3557 0.8992 0.2547
vn -0.8140 -0.0000 0.5808
vn -0.3557 -0.8992 0.2547
vn 0.4157 -0.8597 -0.2966
vn 0.8130 -0.0000 -0.5822
vn 0.3033 0.8602 -0.4100
vn -0.2588 0.8999 0.3510
vn -0.5947 -0.0000 0.8039
vn -0.2588 -0.8999 0.3510
vn 0.3033 -0.8602 -0.4100
vn 0.5933 -0.0000 -0.8050
vn 0.1600 0.8605 -0.4836
vn -0.1362 0.9005 0.4131
vn -0.3141 -0.0000 0.9494
vn -0.1362 -0.9005 0.4131
vn 0.1600 -0.8605 -0.4836
vn 0.3131 -0.0000 -0.9497
vn -0.0000 0.8607 -0.5091
vn -0.0000 0.9007 0.4345
vn -0.0000 -0.0000 1.0000
vn -0.0000 -0.9007 0.4345
vn -0.0000 -0.8607 -0.5091
vn -0.3131 -0.0000 -0.9497
vn -0.0000 -0.0000 -1.0000
vn -0.1600 0.8605 -0.4836
vn 0.1362 0.9005 0.4131
vn 0.1362 -0.9005 0.4131
vn -0.1600 -0.8605 -0.4836
vn -0.5933 -0.0000 -0.8050
vn -0.3033 0.8602 -0.4100
vn 0.2588 0.8999 0.3510
vn 0.3141 -0.0000 0.9494
vn 0.2588 -0.8999 0.3510
vn -0.3033 -0.8602 -0.4100
vn -0.8130 -0.0000 -0.5822
vn -0.4157 0.8597 -0.2966
vn 0.3557 0.8992 0.2547
vn 0.5947 -0.0000 0.8039
vn 0.3557 -0.8992 0.2547
vn -0.4157 -0.8597 -0.2966
vn -0.9524 -0.0000 -0.3050
vn -0.4871 0.8594 -0.1554
vn 0.4178 0.8986 0.1338
vn 0.8140 -0.0000 0.5808
vn 0.4178 -0.8986 0.1338
vn -0.4871 -0.8594 -0.1554
vn -0.5115 0.8593 -0.0000
vn 0.4391 0.8984 -0.0000
vn 0.9527 -0.0000 0.3040
vn 0.4391 -0.8984 -0.0000
vn -0.5115 -0.8593 -0.0000
vn -0.4871 0.8594 0.1554
vn 0.4178 0.8986 -0.1338
vn 0.9527 -0.0000 -0.3040
vn 0.4178 -0.8986 -0.1338
vn -0.4871 -0.8594 0.1554
vn -0.9524 -0.0000 0.3050
vn -0.4157 0.8597 0.2966
vn 0.3557 0.8992 -0.2547
vn 0.8140 -0.0000 -0.5808
vn 0.3557 -0.8992 -0.2547
vn -0.4157 -0.8597 0.2966
vn -0.8130 -0.0000 0.5822
vn -0.3033 0.8602 0.4100
vn 0.2588 0.8999 -0.3510
vn 0.5947 -0.0000 -0.8039
vn 0.2588 -0.8999 -0.3510
vn -0.3033 -0.8602 0.4100
vn -0.5933 -0.0000 0.8050
vn -0.1600 0.8605 0.4836
vn 0.1362 0.9005 -0.4131
vn 0.3141 -0.0000 -0.9494
vn 0.1362 -0.9005 -0.4131
vn -0.1600 -0.8605 0.4836
vn -0.3131 -0.0000 0.9497
vn -0.0000 0.8607 0.5091
vn -0.0000 0.9007 -0.4345
vn -0.0000 -0.9007 -0.4345
vn -0.0000 -0.8607 0.5091
vn 0.3131 -0.0000 0.9497
vn 0.1600 0.8605 0.4836
vn -0.1362 0.9005 -0.4131
vn -0.1362 -0.9005 -0.4131
vn 0.1600 -0.8605 0.4836
vn 0.5933 -0.0000 0.8050
vn 0.3033 0.8602 0.4100
vn -0.2588 0.8999 -0.3510
vn -0.3141 -0.0000 -0.9494
vn -0.2588 -0.8999 -0.3510
vn 0.3033 -0.8602 0.4100
vn 0.8130 -0.0000 0.5822
vn 0.4157 0.8597 0.2966
vn -0.3557 0.8992 -0.2547
vn -0.5947 -0.0000 -0.8039
vn -0.3557 -0.8992 -0.2547
vn 0.4157 -0.8597 0.2966
vn 0.9524 -0.0000 0.3050
vn 0.4871 0.8594 0.1554
vn -0.4178 0.8986 -0.1338
vn -0.8140 -0.0000 -0.5808
vn -0.4178 -0.8986 -0.1338
vn 0.4871 -0.8594 0.1554
vn -0.9527 -0.0000 -0.3040
vn -0.0000 -0.7357 -0.6774
vn 0.4169 0.5644 -0.7124
vn 0.3427 -0.7357 -0.5842
vn 0.7164 0.5660 -0.4080
vn 0.5888 -0.7358 -0.3346
vn 0.8239 0.5667 -0.0000
vn 0.6772 -0.7358 -0.0000
vn 0.5888 -0.7358 0.3346
vn 0.7164 0.5660 0.4080
vn 0.3427 -0.7357 0.5842
vn 0.4169 0.5644 0.7124
vn -0.0000 -0.7357 0.6774
vn -0.4169 0.5644 0.7124
vn -0.3427 -0.7357 0.5842
vn -0.7164 0.5660 0.4080
vn -0.5888 -0.7358 0.3346
vn -0.8239 0.5667 -0.0000
vn -0.6772 -0.7358 -0.0000
vn -0.5888 -0.7358 -0.3346
vn -0.7164 0.5660 -0.4080
vn -0.3427 -0.7357 -0.5842
vn -0.4169 0.5644 -0.7124
vn -0.6970 0.7171 -0.0000
vn -0.4806 -0.5468 -0.6855
vn -0.8700 -0.4931 -0.0000
vn -0.3099 0.6598 -0.6845
vn 0.3099 -0.6598 -0.6845
vn 0.4806 0.5468 -0.6855
vn 0.6970 -0.7171 -0.0000
vn 0.4806 0.5468 0.6855
vn 0.3099 -0.6598 0.6845
vn 0.1258 0.9921 -0.0000
vn -0.3099 0.6598 0.6845
vn -0.4806 -0.5468 0.6855
vn -0.1258 -0.9921 -0.0000
vn -0.3516 0.7158 0.6033
vn -0.8329 -0.5488 0.0706
vn -0.4380 -0.4913 0.7529
vn -0.7465 0.6610 -0.0767
vn -0.4427 -0.6592 -0.6078
vn -0.3584 0.5474 -0.7562
vn 0.3516 -0.7158 -0.6033
vn 0.8329 0.5488 -0.0706
vn 0.7465 -0.6610 0.0767
vn 0.0629 0.9922 -0.1072
vn 0.4428 0.6592 0.6078
vn 0.3584 -0.5474 0.7562
vn -0.0629 -0.9922 0.1072
vn 0.3516 0.7158 0.6033
vn -0.3584 -0.5474 0.7562
vn 0.4380 -0.4913 0.7529
vn -0.4428 0.6592 0.6078
vn -0.7465 -0.6610 0.0767
vn -0.8329 0.5488 -0.0706
vn -0.3516 -0.7158 -0.6033
vn 0.3584 0.5474 -0.7562
vn 0.4427 -0.6592 -0.6078
vn -0.0629 0.9922 -0.1072
vn 0.7465 0.6610 -0.0767
vn 0.8329 -0.5488 0.0706
vn 0.0629 -0.9922 0.1072
vn 0.6970 0.7171 -0.0000
vn 0.4806 -0.5468 0.6855
vn 0.8700 -0.4931 -0.0000
vn 0.3099 0.6598 0.6845
vn -0.3099 -0.6598 0.6845
vn -0.4806 0.5468 0.6855
vn -0.6970 -0.7171 -0.0000
vn -0.4806 0.5468 -0.6855
vn -0.3099 -0.6598 -0.6845
vn -0.1258 0.9921 -0.0000
vn 0.3099 0.6598 -0.6845
vn 0.4806 -0.5468 -0.6855
vn 0.1258 -0.9921 -0.0000
vn 0.3516 0.7158 -0.6033
vn 0.8329 -0.5488 -0.0706
vn 0.4380 -0.4913 -0.7529
vn 0.7465 0.6610 0.0767
vn 0.4427 -0.6592 0.6078
vn 0.3584 0.5474 0.7562
vn -0.3516 -0.7158 0.6033
vn -0.8329 0.5488 0.0706
vn -0.7465 -0.6610 -0.0767
vn -0.0629 0.9922 0.1072
vn -0.4428 0.6592 -0.6078
vn -0.3584 -0.5474 -0.7562
vn 0.0629 -0.9922 -0.1072
vn -0.3516 0.7158 -0.6033
vn 0.3584 -0.5474 -0.7562
vn -0.4380 -0.4913 -0.7529
vn 0.4428 0.6592 -0.6078
vn 0.7465 -0.6610 -0.0767
vn 0.8329 0.5488 0.0706
vn 0.3516 -0.7158 0.6033
vn -0.3584 0.5474 0.7562
vn -0.4427 -0.6592 0.6078
vn 0.0629 0.9922 0.1072
vn -0.7465 0.6610 0.0767
vn -0.8329 -0.5488 -0.0706
vn -0.0629 -0.9922 -0.1072
vn 0.2470 -0.4820 0.8407
vn 0.8563 -0.5164 -0.0000
vn -0.6740 -0.5024 0.5416
vn -0.6740 -0.5024 -0.5416
vn 0.2470 -0.4820 -0.8407
vn 0.9962 -0.0877 -0.0000
vn 0.2809 -0.0800 0.9564
vn -0.7767 -0.0845 0.6242
vn -0.7767 -0.0845 -0.6242
vn 0.2809 -0.0800 -0.9564
vn 0.7767 0.0845 0.6242
vn -0.2809 0.0800 0.9564
vn -0.9962 0.0877 -0.0000
vn -0.2809 0.0800 -0.9564
vn 0.7767 0.0845 -0.6242
vn 0.6740 0.5024 0.5416
vn -0.2470 0.4820 0.8407
vn -0.8563 0.5164 -0.0000
vn -0.2470 0.4820 -0.8407
vn 0.6740 0.5024 -0.5416
vn 0.2844 -0.3831 0.8789
vn 0.9232 -0.3843 -0.0000
vn -0.7460 -0.3838 0.5442
vn -0.7460 -0.3838 -0.5442
vn 0.2844 -0.3831 -0.8789
vn 0.9982 -0.0606 -0.0000
vn 0.3073 -0.0604 0.9497
vn -0.8064 -0.0605 0.5883
vn -0.8064 -0.0605 -0.5883
vn 0.3073 -0.0604 -0.9497
vn 0.8064 0.0605 0.5883
vn -0.3073 0.0604 0.9497
vn -0.9982 0.0606 -0.0000
vn -0.3073 0.0604 -0.9497
vn 0.8064 0.0605 -0.5883
vn 0.7460 0.3838 0.5442
vn -0.2844 0.3831 0.8789
vn -0.9232 0.3843 -0.0000
vn -0.2844 0.3831 -0.8789
vn 0.7460 0.3838 -0.5442
vn -0.0000 0.5637 -0.8260
vn -0.0000 0.5637 0.8260
vn 0.8700 0.4931 -0.0000
vn 0.4380 0.4913 -0.7529
vn -0.4380 0.4913 -0.7529
vn -0.8700 0.4931 -0.0000
vn -0.4380 0.4913 0.7529
vn 0.4380 0.4913 0.7529
vt 0.000000 0.000000
vt 0.020858 0.774325
vt 0.000000 0.773486
vt 0.020858 0.000840
vt 0.048031 0.774398
vt 0.048031 0.000913
vt 0.071139 0.773677
vt 0.079578 0.002682
vt 0.099362 0.769519
vt 0.079578 0.771791
vt 0.099362 0.000410
vt 0.126106 0.769109
vt 0.126106 0.000000
vt 0.149594 0.770717
vt 0.149594 0.001608
vt 0.160853 0.773730
vt 0.169292 0.001781
vt 0.192400 0.769123
vt 0.169292 0.770904
vt 0.435643 1.000000
vt 0.409655 0.917045
vt 0.461632 0.917587
vt 0.192400 0.000000
vt 0.219573 0.769303
vt 0.219573 0.000181
vt 0.240431 0.771377
vt 0.528184 0.908587
vt 0.554172 0.991000
vt 0.502195 0.991542
vt 0.038523 0.885067
vt 0.047235 0.862269
vt 0.047664 0.881781
vt 0.748483 0.855285
vt 0.749893 0.877968
vt 0.740203 0.863816
vt 0.517171 0.612578
vt 0.524436 0.604290
vt 0.525434 0.615942
vt 0.534907 0.612797
vt 0.096105 0.874851
vt 0.079578 0.860130
vt 0.091051 0.858258
vt 0.029397 0.862317
vt 0.029826 0.881829
vt 0.038055 0.863780
vt 0.047087 0.841154
vt 0.760327 0.872581
vt 0.754988 0.894491
vt 0.749205 0.895349
vt 0.744677 0.880661
vt 0.109825 0.884643
vt 0.101280 0.872071
vt 0.105718 0.888995
vt 0.085755 0.880411
vt 0.029249 0.841202
vt 0.037894 0.840746
vt 0.047235 0.820504
vt 0.766553 0.892777
vt 0.754988 0.911770
vt 0.749205 0.910708
vt 0.121586 0.893808
vt 0.118949 0.899305
vt 0.097504 0.897698
vt 0.029397 0.820552
vt 0.038055 0.818219
vt 0.047664 0.802341
vt 0.766553 0.913896
vt 0.749893 0.928113
vt 0.895449 0.723773
vt 0.886057 0.740247
vt 0.887065 0.728281
vt 0.877712 0.723847
vt 0.134504 0.904773
vt 0.113676 0.910299
vt 0.029826 0.802389
vt 0.038523 0.798405
vt 0.048332 0.788442
vt 0.760327 0.933870
vt 0.740203 0.941920
vt 0.894315 0.737235
vt 0.885527 0.754542
vt 0.876578 0.737308
vt 0.150858 0.904863
vt 0.132686 0.916982
vt 0.152675 0.917092
vt 0.131778 0.923086
vt 0.734840 0.968384
vt 0.748483 0.950745
vt 0.752623 0.955158
vt 0.732182 0.962869
vt 0.893719 0.770447
vt 0.893719 0.753317
vt 0.875982 0.770520
vt 0.875982 0.753391
vt 0.171686 0.910617
vt 0.219621 0.894340
vt 0.230687 0.884330
vt 0.228888 0.899503
vt 0.231842 0.864509
vt 0.239007 0.880314
vt 0.713018 0.969055
vt 0.726866 0.951840
vt 0.894315 0.786947
vt 0.885527 0.769769
vt 0.876578 0.787020
vt 0.166413 0.899566
vt 0.187858 0.898193
vt 0.221270 0.880432
vt 0.232240 0.841979
vt 0.240066 0.862144
vt 0.692869 0.968697
vt 0.711187 0.956901
vt 0.895449 0.801201
vt 0.886057 0.784435
vt 0.877712 0.801275
vt 0.179644 0.889400
vt 0.199607 0.881035
vt 0.222329 0.862262
vt 0.231842 0.818947
vt 0.240431 0.841492
vt 0.673706 0.961831
vt 0.694701 0.956608
vt 0.679022 0.950990
vt 0.695617 0.950564
vt 0.887065 0.797106
vt 0.879273 0.811889
vt 0.189257 0.875362
vt 0.205784 0.860823
vt 0.222694 0.841610
vt 0.230687 0.797666
vt 0.240066 0.820379
vt 0.657404 0.949128
vt 0.876221 0.701745
vt 0.885789 0.710171
vt 0.876676 0.714841
vt 0.894059 0.701834
vt 0.894514 0.714930
vt 0.194311 0.858825
vt 0.205784 0.839535
vt 0.222329 0.820497
vt 0.237358 0.784880
vt 0.239007 0.800872
vt 0.655994 0.926446
vt 0.665684 0.940597
vt 0.885172 0.684337
vt 0.885385 0.698530
vt 0.189257 0.824814
vt 0.194311 0.841407
vt 0.219621 0.784998
vt 0.221270 0.800990
vt 0.640344 0.934526
vt 0.639334 0.911637
vt 0.645561 0.931833
vt 0.650899 0.909922
vt 0.875982 0.685778
vt 0.885172 0.668980
vt 0.893820 0.685867
vt 0.179644 0.810670
vt 0.199607 0.819254
vt 0.187858 0.801967
vt 0.204782 0.816475
vt 0.633551 0.912494
vt 0.639334 0.890518
vt 0.650899 0.892643
vt 0.875982 0.668502
vt 0.885385 0.653964
vt 0.893820 0.668591
vt 0.166413 0.800360
vt 0.171686 0.789366
vt 0.191965 0.797616
vt 0.374843 0.801079
vt 0.364703 0.821846
vt 0.366381 0.805423
vt 0.655994 0.876300
vt 0.876221 0.651608
vt 0.885789 0.640757
vt 0.894059 0.651697
vt 0.150858 0.794892
vt 0.382438 0.822118
vt 0.384116 0.805695
vt 0.373013 0.818995
vt 0.363626 0.841485
vt 0.645561 0.870543
vt 0.665684 0.862493
vt 0.876676 0.636750
vt 0.886345 0.630652
vt 0.135412 0.800917
vt 0.149950 0.800996
vt 0.134504 0.794802
vt 0.152675 0.782683
vt 0.381361 0.841757
vt 0.371433 0.863255
vt 0.371838 0.840420
vt 0.673705 0.841544
vt 0.657404 0.853668
vt 0.679022 0.852574
vt 0.669824 0.866906
vt 0.523062 0.683799
vt 0.533784 0.677784
vt 0.532238 0.689137
vt 0.113676 0.789047
vt 0.132686 0.782573
vt 0.371838 0.885266
vt 0.363255 0.862417
vt 0.692869 0.835359
vt 0.517171 0.662719
vt 0.524436 0.673708
vt 0.516048 0.677566
vt 0.534907 0.662937
vt 0.118949 0.800099
vt 0.097504 0.801472
vt 0.380990 0.862689
vt 0.373013 0.904299
vt 0.363626 0.882594
vt 0.713018 0.835716
vt 0.694701 0.847513
vt 0.517761 0.645830
vt 0.525434 0.660511
vt 0.535497 0.646049
vt 0.105718 0.810264
vt 0.085755 0.818630
vt 0.381361 0.882866
vt 0.734840 0.837162
vt 0.713934 0.829672
vt 0.732182 0.842583
vt 0.711187 0.847805
vt 0.517761 0.628553
vt 0.525959 0.645498
vt 0.535497 0.628772
vt 0.096105 0.824303
vt 0.079578 0.838842
vt 0.382438 0.900313
vt 0.374843 0.918489
vt 0.048332 0.897782
vt 0.039251 0.902523
vt 0.726866 0.853423
vt 0.525959 0.630141
vt 0.091051 0.840840
vt 0.030493 0.897830
vt 0.344516 0.902614
vt 0.353228 0.879816
vt 0.353657 0.899328
vt 0.981930 0.025614
vt 0.983340 0.048296
vt 0.973650 0.034145
vt 0.485261 0.613047
vt 0.492527 0.604759
vt 0.493525 0.616410
vt 0.502998 0.613266
vt 0.811767 0.918199
vt 0.795240 0.903478
vt 0.806713 0.901606
vt 0.335390 0.879864
vt 0.335819 0.899376
vt 0.344048 0.881327
vt 0.353081 0.858701
vt 0.993773 0.042909
vt 0.988435 0.064820
vt 0.982652 0.065677
vt 0.978124 0.050989
vt 0.825487 0.927992
vt 0.816942 0.915419
vt 0.821380 0.932343
vt 0.801417 0.923759
vt 0.335242 0.858749
vt 0.343887 0.858293
vt 0.353228 0.838051
vt 1.000000 0.063105
vt 0.988435 0.082099
vt 0.982652 0.081036
vt 0.837248 0.937156
vt 0.834611 0.942653
vt 0.813166 0.941046
vt 0.335390 0.838099
vt 0.344048 0.835766
vt 0.353657 0.819888
vt 1.000000 0.084224
vt 0.983340 0.098442
vt 0.921452 0.200564
vt 0.912059 0.217038
vt 0.913067 0.205072
vt 0.903714 0.200638
vt 0.850166 0.948121
vt 0.829338 0.953647
vt 0.335819 0.819936
vt 0.344516 0.815952
vt 0.354325 0.805989
vt 0.993773 0.104199
vt 0.973650 0.112249
vt 0.920317 0.214026
vt 0.911529 0.231333
vt 0.902580 0.214099
vt 0.866520 0.948211
vt 0.848348 0.960330
vt 0.868338 0.960440
vt 0.847440 0.966435
vt 0.968287 0.138712
vt 0.981930 0.121074
vt 0.986070 0.125486
vt 0.965629 0.133198
vt 0.919721 0.247238
vt 0.919721 0.230108
vt 0.901984 0.247311
vt 0.901984 0.230182
vt 0.887348 0.953966
vt 0.000000 0.897362
vt 0.011066 0.887352
vt 0.009267 0.902525
vt 0.012221 0.867530
vt 0.019386 0.883335
vt 0.946465 0.139384
vt 0.960312 0.122168
vt 0.920317 0.263737
vt 0.911529 0.246560
vt 0.902580 0.263811
vt 0.882075 0.942914
vt 0.903520 0.941541
vt 0.001649 0.883453
vt 0.012619 0.845001
vt 0.020445 0.865166
vt 0.926316 0.139026
vt 0.944633 0.127229
vt 0.921452 0.277992
vt 0.912059 0.261226
vt 0.903714 0.278066
vt 0.895306 0.932748
vt 0.915269 0.924383
vt 0.002708 0.865284
vt 0.012221 0.821969
vt 0.020810 0.844514
vt 0.907152 0.132160
vt 0.928147 0.126937
vt 0.912468 0.121319
vt 0.929063 0.120892
vt 0.913067 0.273897
vt 0.905275 0.288680
vt 0.904919 0.918710
vt 0.921446 0.904171
vt 0.003073 0.844632
vt 0.011066 0.800688
vt 0.020445 0.823401
vt 0.890851 0.119457
vt 0.875674 0.572374
vt 0.885243 0.580799
vt 0.876129 0.585469
vt 0.893513 0.572463
vt 0.893968 0.585558
vt 0.909973 0.902173
vt 0.921446 0.882883
vt 0.002708 0.823519
vt 0.017737 0.787902
vt 0.019386 0.803894
vt 0.889441 0.096775
vt 0.899131 0.110926
vt 0.884626 0.554965
vt 0.884838 0.569158
vt 0.904919 0.868162
vt 0.909973 0.884755
vt 0.000000 0.788019
vt 0.001649 0.804011
vt 0.873791 0.104854
vt 0.872781 0.081965
vt 0.879007 0.102161
vt 0.884346 0.080251
vt 0.875435 0.556406
vt 0.884626 0.539609
vt 0.893273 0.556495
vt 0.895306 0.854018
vt 0.915269 0.862602
vt 0.903520 0.845315
vt 0.920444 0.859823
vt 0.866998 0.082823
vt 0.872781 0.060847
vt 0.884346 0.062972
vt 0.875435 0.539130
vt 0.884838 0.524592
vt 0.893273 0.539219
vt 0.882075 0.843708
vt 0.887348 0.832714
vt 0.907627 0.840964
vt 0.884272 0.200564
vt 0.874132 0.221331
vt 0.875810 0.204908
vt 0.889441 0.046629
vt 0.875674 0.522236
vt 0.885243 0.511385
vt 0.893513 0.522325
vt 0.866520 0.838240
vt 0.891868 0.221603
vt 0.893545 0.205180
vt 0.882442 0.218480
vt 0.873055 0.240970
vt 0.879007 0.040872
vt 0.899131 0.032822
vt 0.876129 0.507379
vt 0.885799 0.501281
vt 0.851074 0.844265
vt 0.865612 0.844345
vt 0.850166 0.838150
vt 0.868338 0.826031
vt 0.890790 0.241242
vt 0.880862 0.262740
vt 0.881267 0.239905
vt 0.907152 0.011873
vt 0.890851 0.023997
vt 0.912468 0.022902
vt 0.903271 0.037234
vt 0.491153 0.684267
vt 0.501875 0.678253
vt 0.500329 0.689605
vt 0.829338 0.832395
vt 0.848348 0.825921
vt 0.881267 0.284751
vt 0.872684 0.261902
vt 0.926316 0.005687
vt 0.485261 0.663187
vt 0.492527 0.674176
vt 0.484138 0.678034
vt 0.502998 0.663406
vt 0.834611 0.843447
vt 0.813166 0.844820
vt 0.890419 0.262174
vt 0.882442 0.303784
vt 0.873055 0.282079
vt 0.946465 0.006045
vt 0.928147 0.017841
vt 0.485852 0.646298
vt 0.493525 0.660979
vt 0.503588 0.646517
vt 0.821380 0.853613
vt 0.801417 0.861978
vt 0.890790 0.282351
vt 0.968287 0.007491
vt 0.947381 0.000000
vt 0.965629 0.012911
vt 0.944633 0.018134
vt 0.485852 0.629021
vt 0.494050 0.645967
vt 0.503588 0.629240
vt 0.811767 0.867651
vt 0.795240 0.882190
vt 0.891868 0.299798
vt 0.884272 0.317974
vt 0.354325 0.915330
vt 0.345245 0.920070
vt 0.960312 0.023752
vt 0.494050 0.630609
vt 0.806713 0.884188
vt 0.336487 0.915377
vt 0.836693 0.165320
vt 0.693429 0.152723
vt 0.837946 0.136193
vt 0.694102 0.095785
vt 0.838405 0.097372
vt 0.693429 0.039884
vt 0.837946 0.059258
vt 0.836693 0.032064
vt 0.540667 0.710108
vt 0.396786 0.773008
vt 0.393593 0.740310
vt 0.545351 0.758066
vt 0.397955 0.812301
vt 0.545351 0.867552
vt 0.396786 0.847658
vt 0.540667 0.899743
vt 0.393593 0.869607
vt 0.786801 0.789999
vt 0.635213 0.780921
vt 0.783706 0.762789
vt 0.782573 0.724669
vt 0.633551 0.537077
vt 0.764059 0.397126
vt 0.811828 0.586295
vt 0.633551 0.725011
vt 0.783706 0.685852
vt 0.635213 0.668080
vt 0.786801 0.656740
vt 0.691590 0.259711
vt 0.813142 0.223995
vt 0.780573 0.353552
vt 0.315076 0.710398
vt 0.326803 0.895550
vt 0.315076 0.895949
vt 0.274733 0.709999
vt 0.281036 0.899813
vt 0.274733 0.898375
vt 0.281036 0.711437
vt 0.292768 0.899479
vt 0.820993 0.816792
vt 0.828784 0.625383
vt 0.828784 0.816217
vt 0.720071 0.369123
vt 0.740113 0.368631
vt 0.730092 0.387319
vt 0.840111 0.625999
vt 0.840111 0.816833
vt 0.309713 0.898467
vt 0.711632 0.381417
vt 0.691590 0.380925
vt 0.701611 0.362730
vt 0.480191 0.400608
vt 0.485505 0.589676
vt 0.480191 0.591096
vt 0.485505 0.399188
vt 0.497204 0.589136
vt 0.497204 0.398648
vt 0.503588 0.590016
vt 0.559660 0.897537
vt 0.571402 0.709539
vt 0.571402 0.897694
vt 0.866998 0.173219
vt 0.887043 0.173343
vt 0.877020 0.191721
vt 0.847846 0.585026
vt 0.855657 0.397126
vt 0.855657 0.583307
vt 0.866997 0.397931
vt 0.866997 0.584112
vt 0.326803 0.925688
vt 0.306759 0.925812
vt 0.316781 0.907310
vt 0.856131 0.625383
vt 0.867543 0.810448
vt 0.856131 0.810056
vt 0.512027 0.399118
vt 0.517498 0.590463
vt 0.512027 0.590627
vt 0.517498 0.398954
vt 0.529234 0.590228
vt 0.535497 0.398648
vt 0.535497 0.590157
vt 0.615014 0.909497
vt 0.625113 0.927953
vt 0.604916 0.927642
vt 0.846844 0.191295
vt 0.858559 0.000426
vt 0.858559 0.191721
vt 0.848550 0.812316
vt 0.229643 0.908346
vt 0.239666 0.926848
vt 0.219621 0.926724
vt 0.579841 0.711059
vt 0.587305 0.898972
vt 0.579841 0.900551
vt 0.587305 0.709480
vt 0.598713 0.898874
vt 0.795240 0.625383
vt 0.800814 0.816865
vt 0.795240 0.816863
vt 0.812554 0.625597
vt 0.812554 0.817078
vt 0.010228 0.911368
vt 0.020456 0.929437
vt 0.000000 0.929437
vt 0.607152 0.900653
vt 0.613376 0.709382
vt 0.613376 0.900160
vt 0.625113 0.709640
vt 0.625113 0.900418
vt 0.029249 0.929437
vt 0.039477 0.911368
vt 0.049704 0.929437
vt 0.372378 0.600755
vt 0.384116 0.791259
vt 0.372378 0.791456
vt 0.366165 0.400142
vt 0.373757 0.591323
vt 0.366165 0.591715
vt 0.373757 0.399750
vt 0.385154 0.591106
vt 0.248870 0.901205
vt 0.254574 0.710000
vt 0.254574 0.900139
vt 0.797081 0.381234
vt 0.777036 0.381110
vt 0.787058 0.362733
vt 0.266294 0.710405
vt 0.266294 0.900545
vt 0.366165 0.792236
vt 0.274733 0.926802
vt 0.284831 0.908656
vt 0.294929 0.927113
vt 0.335242 0.399823
vt 0.341518 0.591449
vt 0.335242 0.591258
vt 0.341518 0.400013
vt 0.353224 0.590968
vt 0.335242 0.600292
vt 0.342933 0.791831
vt 0.335242 0.791738
vt 0.354317 0.600500
vt 0.354317 0.791946
vt 0.805519 0.381234
vt 0.815542 0.362733
vt 0.825564 0.381110
vt 0.846844 0.388097
vt 0.852501 0.200564
vt 0.852501 0.385787
vt 0.864245 0.200703
vt 0.864245 0.385926
vt 0.758575 0.387316
vt 0.748552 0.368814
vt 0.768597 0.368938
vt 0.431935 0.389805
vt 0.393593 0.267996
vt 0.483258 0.279937
vt 0.385154 0.295677
vt 0.300926 0.390689
vt 0.315825 0.286171
vt 0.875435 0.436034
vt 0.936151 0.397126
vt 0.936151 0.487168
vt 0.570219 0.388283
vt 0.547114 0.265981
vt 0.631191 0.281654
vt 0.248870 0.271876
vt 0.385154 0.118142
vt 0.459562 0.097728
vt 0.521602 0.294820
vt 0.538675 0.114307
vt 0.616910 0.098485
vt 0.300925 0.103432
vt 0.393593 0.094985
vt 0.547114 0.091909
vt 0.683152 0.117268
vt 0.483259 0.000000
vt 0.631189 0.000000
vt 0.361046 0.000000
vt 0.413589 0.701264
vt 0.393593 0.611059
vt 0.441897 0.615312
vt 0.625113 0.622461
vt 0.576907 0.700538
vt 0.584221 0.618369
vt 0.461894 0.622759
vt 0.260284 0.701156
vt 0.248870 0.610610
vt 0.297036 0.617440
vt 0.547114 0.611940
vt 0.625113 0.485607
vt 0.429539 0.476804
vt 0.471752 0.484035
vt 0.289982 0.478246
vt 0.576906 0.479105
vt 0.393593 0.477153
vt 0.248870 0.475935
vt 0.326803 0.486987
vt 0.441898 0.398648
vt 0.297035 0.399533
vt 0.613279 0.397126
vt 0.071139 0.000191
vt 0.160853 0.004621
vt 0.477694 0.940608
vt 0.477694 0.968856
vt 0.461632 0.991542
vt 0.409655 0.991000
vt 0.393593 0.967979
vt 0.393593 0.939730
vt 0.435643 0.908587
vt 0.240431 0.002254
vt 0.486133 0.968856
vt 0.486133 0.940608
vt 0.502195 0.917587
vt 0.554172 0.917045
vt 0.570234 0.939730
vt 0.570234 0.967979
vt 0.528184 1.000000
vt 0.516048 0.599471
vt 0.533784 0.599689
vt 0.039251 0.783242
vt 0.153584 0.923206
vt 0.681680 0.945570
vt 0.888453 0.806541
vt 0.228888 0.780220
vt 0.633551 0.889455
vt 0.174323 0.783869
vt 0.894514 0.636839
vt 0.877302 0.625383
vt 0.681680 0.858089
vt 0.364703 0.900041
vt 0.384116 0.913321
vt 0.484138 0.599939
vt 0.501875 0.600158
vt 0.345245 0.800789
vt 0.869246 0.966554
vt 0.915126 0.115898
vt 0.914455 0.283332
vt 0.009267 0.783242
vt 0.866998 0.059784
vt 0.889985 0.827217
vt 0.893968 0.507468
vt 0.876755 0.496011
vt 0.915126 0.028417
vt 0.874132 0.299526
vt 0.893545 0.312806
vt 0.691590 0.195443
vt 0.691590 0.000000
vt 0.547065 0.815695
vt 0.639752 0.820828
vt 0.764059 0.616049
vt 0.708900 0.616539
vt 0.661131 0.587633
vt 0.633551 0.478416
vt 0.661131 0.427370
vt 0.708900 0.397616
vt 0.811828 0.426032
vt 0.839407 0.476589
vt 0.839407 0.535249
vt 0.639752 0.625383
vt 0.742964 0.353886
vt 0.710395 0.334177
vt 0.691590 0.299707
vt 0.710395 0.224907
vt 0.742964 0.204620
vt 0.780573 0.204286
vt 0.831946 0.258465
vt 0.831946 0.298461
vt 0.813142 0.333265
vt 0.326803 0.709999
vt 0.292768 0.711103
vt 0.820993 0.625957
vt 0.720071 0.381417
vt 0.730092 0.362730
vt 0.740113 0.380925
vt 0.309713 0.712916
vt 0.711632 0.369123
vt 0.701611 0.387319
vt 0.691590 0.368631
vt 0.503588 0.399529
vt 0.559660 0.709382
vt 0.866998 0.185512
vt 0.877020 0.167135
vt 0.887043 0.185636
vt 0.847846 0.398845
vt 0.326803 0.913395
vt 0.316781 0.931896
vt 0.306759 0.913519
vt 0.867543 0.625775
vt 0.529234 0.398719
vt 0.604916 0.915442
vt 0.625113 0.915752
vt 0.615014 0.933898
vt 0.846844 0.000000
vt 0.848550 0.627643
vt 0.219621 0.914431
vt 0.239666 0.914555
vt 0.229643 0.932932
vt 0.598713 0.709382
vt 0.800814 0.625384
vt 0.000000 0.917391
vt 0.020456 0.917391
vt 0.010228 0.935460
vt 0.607152 0.709875
vt 0.039477 0.935460
vt 0.029249 0.917391
vt 0.049704 0.917391
vt 0.384116 0.600558
vt 0.385154 0.399533
vt 0.248870 0.711066
vt 0.797081 0.368941
vt 0.787058 0.387319
vt 0.777036 0.368817
vt 0.366165 0.601535
vt 0.284831 0.933058
vt 0.274733 0.914601
vt 0.294929 0.914912
vt 0.353224 0.399533
vt 0.342933 0.600385
vt 0.815542 0.387319
vt 0.805519 0.368941
vt 0.825564 0.368817
vt 0.846844 0.202874
vt 0.768597 0.381231
vt 0.748552 0.381107
vt 0.758575 0.362729
s 1
usemtl MMO_oak
f 2/1/1 3/2/2 1/3/3
f 4/4/4 5/5/5 3/2/2
f 6/6/6 7/7/7 5/5/5
f 8/8/8 9/9/9 7/10/7
f 10/11/10 11/12/11 9/9/9
f 12/13/12 13/14/13 11/12/11
f 14/15/14 15/16/15 13/14/13
f 16/17/16 17/18/17 15/19/15
s 0
f 18/20/18 10/21/18 6/22/18
s 1
f 18/23/19 19/24/20 17/18/17
f 20/25/21 1/26/3 19/24/20
s 0
f 7/27/22 15/28/22 19/29/22
s 1
f 2/1/1 4/4/4 3/2/2
f 4/4/4 6/6/6 5/5/5
f 6/6/6 8/651/8 7/7/7
f 8/8/8 10/11/10 9/9/9
f 10/11/10 12/13/12 11/12/11
f 12/13/12 14/15/14 13/14/13
f 14/15/14 16/652/16 15/16/15
f 16/17/16 18/23/19 17/18/17
s 0
f 6/22/18 4/653/18 2/654/18
f 2/654/18 20/655/18 18/20/18
f 18/20/18 16/656/18 14/657/18
f 14/657/18 12/658/18 10/21/18
f 10/21/18 8/659/18 6/22/18
f 6/22/18 2/654/18 18/20/18
f 18/20/18 14/657/18 10/21/18
s 1
f 18/23/19 20/25/21 19/24/20
f 20/25/21 2/660/1 1/26/3
s 0
f 19/29/22 1/661/22 3/662/22
f 3/662/22 5/663/22 7/27/22
f 7/27/22 9/664/22 11/665/22
f 11/665/22 13/666/22 15/28/22
f 15/28/22 17/667/22 19/29/22
f 19/29/22 3/662/22 7/27/22
f 7/27/22 11/665/22 15/28/22
s 1
usemtl MMO_iron
f 21/30/23 28/31/24 22/32/25
f 22/33/25 29/34/26 23/35/27
f 23/36/27 30/37/28 24/38/29
f 30/37/28 25/39/30 24/38/29
f 31/40/31 26/41/32 25/42/30
f 32/43/33 21/30/23 26/44/32
f 27/45/34 34/46/35 28/31/24
f 28/47/24 35/48/36 29/34/26
f 29/34/26 36/49/37 30/50/28
f 36/51/37 31/40/31 30/52/28
f 37/53/38 32/54/33 31/40/31
f 38/55/39 27/45/34 32/43/33
f 33/56/40 40/57/41 34/46/35
f 34/58/35 41/59/42 35/48/36
f 35/48/36 42/60/43 36/49/37
f 42/61/43 37/53/38 36/51/37
f 43/62/44 38/63/39 37/53/38
f 44/64/45 33/56/40 38/55/39
f 39/65/46 46/66/47 40/57/41
f 40/67/41 47/68/48 41/59/42
f 41/69/42 48/70/49 42/71/43
f 48/70/49 43/72/44 42/71/43
f 49/73/50 44/74/45 43/62/44
f 50/75/51 39/65/46 44/64/45
f 45/76/52 52/77/53 46/66/47
f 46/78/47 53/79/54 47/68/48
f 47/80/48 54/81/55 48/70/49
f 54/81/55 49/82/50 48/70/49
f 55/83/56 50/84/51 49/73/50
f 56/85/57 45/86/52 50/84/51
f 57/87/58 52/88/53 51/89/59
f 58/90/60 53/79/54 52/88/53
f 59/91/61 54/81/55 53/92/54
f 54/81/55 61/93/62 55/94/56
f 55/83/56 62/95/63 56/85/57
f 56/96/57 57/97/58 51/98/59
f 63/99/64 58/100/60 57/97/58
f 64/101/65 59/102/61 58/90/60
f 65/103/66 60/104/67 59/91/61
f 60/104/67 67/105/68 61/93/62
f 61/106/62 68/107/69 62/95/63
f 62/108/63 63/99/64 57/97/58
f 69/109/70 64/110/65 63/99/64
f 70/111/71 65/112/66 64/101/65
f 71/113/72 66/114/73 65/103/66
f 66/114/73 73/115/74 67/105/68
f 67/116/68 74/117/75 68/107/69
f 68/118/69 69/109/70 63/99/64
f 75/119/76 70/120/71 69/109/70
f 76/121/77 71/122/72 70/111/71
f 77/123/78 72/124/79 71/122/72
f 72/125/79 79/126/80 73/115/74
f 73/127/74 80/128/81 74/117/75
f 74/129/75 75/119/76 69/109/70
f 81/130/29 76/131/77 75/119/76
f 82/132/82 77/123/78 76/121/77
f 83/133/83 78/134/84 77/135/78
f 78/134/84 85/136/85 79/137/80
f 79/138/80 86/139/86 80/128/81
f 80/140/81 81/130/29 75/119/76
f 81/130/29 88/141/87 82/142/82
f 82/132/82 89/143/88 83/144/83
f 83/133/83 90/145/89 84/146/23
f 90/145/89 85/136/85 84/146/23
f 91/147/90 86/139/86 85/148/85
f 92/149/91 81/130/29 86/150/86
f 87/151/92 94/152/93 88/153/87
f 88/153/87 95/154/94 89/143/88
f 89/155/88 96/156/95 90/145/89
f 96/156/95 91/157/90 90/145/89
f 97/158/96 92/159/91 91/147/90
f 98/160/97 87/161/92 92/159/91
f 93/162/98 100/163/99 94/152/93
f 94/152/93 101/164/100 95/154/94
f 95/165/94 102/166/101 96/156/95
f 102/166/101 97/167/96 96/156/95
f 103/168/102 98/160/97 97/158/96
f 104/169/103 93/170/98 98/160/97
f 99/171/104 106/172/105 100/173/99
f 100/163/99 107/174/106 101/164/100
f 101/175/100 108/176/107 102/166/101
f 108/176/107 103/177/102 102/166/101
f 109/178/108 104/169/103 103/168/102
f 110/179/109 99/171/104 104/180/103
f 105/181/110 112/182/111 106/172/105
f 106/183/105 113/184/112 107/174/106
f 107/185/106 114/186/59 108/176/107
f 114/187/59 109/178/108 108/188/107
f 115/189/113 110/190/109 109/178/108
f 116/191/114 105/181/110 110/179/109
f 117/192/115 112/182/111 111/193/55
f 118/194/116 113/184/112 112/195/111
f 119/196/117 114/197/59 113/184/112
f 114/198/59 121/199/118 115/200/113
f 115/189/113 122/201/119 116/202/114
f 116/191/114 117/192/115 111/193/55
f 123/203/120 118/204/116 117/192/115
f 124/205/121 119/196/117 118/194/116
f 125/206/122 120/207/123 119/208/117
f 120/207/123 127/209/124 121/199/118
f 121/210/118 128/211/125 122/201/119
f 122/212/119 123/203/120 117/192/115
f 129/213/126 124/214/121 123/203/120
f 130/215/127 125/216/122 124/205/121
f 131/217/128 126/218/129 125/206/122
f 126/218/129 133/219/130 127/209/124
f 127/220/124 134/221/131 128/211/125
f 128/222/125 129/213/126 123/203/120
f 135/223/132 130/215/127 129/224/126
f 136/225/133 131/226/128 130/215/127
f 137/227/134 132/228/135 131/217/128
f 132/228/135 139/229/136 133/219/130
f 133/230/130 140/231/137 134/221/131
f 134/232/131 135/233/132 129/213/126
f 21/30/23 136/234/133 135/235/132
f 22/33/25 137/236/134 136/225/133
f 23/36/27 138/237/138 137/227/134
f 138/237/138 25/39/30 139/229/136
f 139/238/136 26/41/32 140/231/137
f 140/239/137 21/30/23 135/235/132
f 141/240/23 148/241/24 142/242/25
f 142/243/25 149/244/26 143/245/27
f 143/246/27 150/247/28 144/248/29
f 150/247/28 145/249/30 144/248/29
f 151/250/31 146/251/32 145/252/30
f 152/253/33 141/240/23 146/254/32
f 147/255/34 154/256/35 148/241/24
f 148/257/24 155/258/36 149/244/26
f 149/244/26 156/259/37 150/260/28
f 156/261/37 151/250/31 150/262/28
f 157/263/38 152/264/33 151/250/31
f 158/265/39 147/255/34 152/253/33
f 153/266/40 160/267/41 154/256/35
f 154/268/35 161/269/42 155/258/36
f 155/258/36 162/270/43 156/259/37
f 162/271/43 157/263/38 156/261/37
f 163/272/44 158/273/39 157/263/38
f 164/274/45 153/266/40 158/265/39
f 159/275/46 166/276/47 160/267/41
f 160/277/41 167/278/48 161/269/42
f 161/279/42 168/280/49 162/281/43
f 168/280/49 163/282/44 162/281/43
f 169/283/50 164/284/45 163/272/44
f 170/285/51 159/275/46 164/274/45
f 165/286/52 172/287/53 166/276/47
f 166/288/47 173/289/54 167/278/48
f 167/290/48 174/291/55 168/280/49
f 174/291/55 169/292/50 168/280/49
f 175/293/56 170/294/51 169/283/50
f 176/295/57 165/296/52 170/294/51
f 177/297/58 172/298/53 171/299/59
f 178/300/60 173/289/54 172/298/53
f 179/301/61 174/291/55 173/302/54
f 174/291/55 181/303/62 175/304/56
f 175/293/56 182/305/63 176/295/57
f 176/306/57 177/307/58 171/308/59
f 183/309/64 178/310/60 177/307/58
f 184/311/65 179/312/61 178/300/60
f 185/313/66 180/314/67 179/301/61
f 180/314/67 187/315/68 181/303/62
f 181/316/62 188/317/69 182/305/63
f 182/318/63 183/309/64 177/307/58
f 189/319/70 184/320/65 183/309/64
f 190/321/71 185/322/66 184/311/65
f 191/323/72 186/324/73 185/313/66
f 186/324/73 193/325/74 187/315/68
f 187/326/68 194/327/75 188/317/69
f 188/328/69 189/319/70 183/309/64
f 195/329/76 190/330/71 189/319/70
f 196/331/77 191/332/72 190/321/71
f 197/333/78 192/334/79 191/332/72
f 192/335/79 199/336/80 193/325/74
f 193/337/74 200/338/81 194/327/75
f 194/339/75 195/329/76 189/319/70
f 201/340/29 196/341/77 195/329/76
f 202/342/82 197/333/78 196/331/77
f 203/343/83 198/344/84 197/345/78
f 198/344/84 205/346/85 199/347/80
f 199/348/80 206/349/86 200/338/81
f 200/350/81 201/340/29 195/329/76
f 201/340/29 208/351/87 202/352/82
f 202/342/82 209/353/88 203/354/83
f 203/343/83 210/355/89 204/356/23
f 210/355/89 205/346/85 204/356/23
f 211/357/90 206/349/86 205/358/85
f 212/359/91 201/340/29 206/360/86
f 207/361/92 214/362/93 208/363/87
f 208/363/87 215/364/94 209/353/88
f 209/365/88 216/366/95 210/355/89
f 216/366/95 211/367/90 210/355/89
f 217/368/96 212/369/91 211/357/90
f 218/370/97 207/371/92 212/369/91
f 213/372/98 220/373/99 214/362/93
f 214/362/93 221/374/100 215/364/94
f 215/375/94 222/376/101 216/366/95
f 222/376/101 217/377/96 216/366/95
f 223/378/102 218/370/97 217/368/96
f 224/379/103 213/380/98 218/370/97
f 219/381/104 226/382/105 220/383/99
f 220/373/99 227/384/106 221/374/100
f 221/385/100 228/386/107 222/376/101
f 228/386/107 223/387/102 222/376/101
f 229/388/108 224/379/103 223/378/102
f 230/389/109 219/381/104 224/390/103
f 225/391/110 232/392/111 226/382/105
f 226/393/105 233/394/112 227/384/106
f 227/395/106 234/396/59 228/386/107
f 234/397/59 229/388/108 228/398/107
f 235/399/113 230/400/109 229/388/108
f 236/401/114 225/391/110 230/389/109
f 237/402/115 232/392/111 231/403/55
f 238/404/116 233/394/112 232/405/111
f 239/406/117 234/407/59 233/394/112
f 234/408/59 241/409/118 235/410/113
f 235/399/113 242/411/119 236/412/114
f 236/401/114 237/402/115 231/403/55
f 243/413/120 238/414/116 237/402/115
f 244/415/121 239/406/117 238/404/116
f 245/416/122 240/417/123 239/418/117
f 240/417/123 247/419/124 241/409/118
f 241/420/118 248/421/125 242/411/119
f 242/422/119 243/413/120 237/402/115
f 249/423/126 244/424/121 243/413/120
f 250/425/127 245/426/122 244/415/121
f 251/427/128 246/428/129 245/416/122
f 246/428/129 253/429/130 247/419/124
f 247/430/124 254/431/131 248/421/125
f 248/432/125 249/423/126 243/413/120
f 255/433/132 250/425/127 249/434/126
f 256/435/133 251/436/128 250/425/127
f 257/437/134 252/438/135 251/427/128
f 252/438/135 259/439/136 253/429/130
f 253/440/130 260/441/137 254/431/131
f 254/442/131 255/443/132 249/423/126
f 141/240/23 256/444/133 255/445/132
f 142/243/25 257/446/134 256/435/133
f 143/246/27 258/447/138 257/437/134
f 258/447/138 145/249/30 259/439/136
f 259/448/136 146/251/32 260/441/137
f 260/449/137 141/240/23 255/445/132
f 261/450/139 264/451/140 263/452/141
f 263/452/141 266/453/142 265/454/143
f 265/454/143 268/455/144 267/456/145
f 268/455/144 269/457/146 267/456/145
f 270/458/147 271/459/148 269/460/146
f 272/461/149 273/462/150 271/459/148
f 273/462/150 276/463/151 275/464/152
f 275/464/152 278/465/153 277/466/154
f 277/467/154 280/468/155 279/469/156
f 280/468/155 281/470/157 279/469/156
s 0
f 282/471/18 274/472/18 266/473/18
s 1
f 282/474/158 283/475/159 281/470/157
f 284/476/160 261/477/139 283/475/159
s 0
f 267/478/22 275/479/22 283/480/22
s 1
f 286/481/161 287/482/162 285/483/163
f 288/484/164 289/485/165 287/486/162
f 290/487/166 291/488/167 289/485/165
f 291/489/167 294/490/168 293/491/169
s 0
f 286/492/170 294/493/170 290/494/170
s 1
f 293/491/169 296/495/171 295/496/172
f 295/497/172 286/481/161 285/483/163
s 0
f 287/498/173 291/499/173 295/500/173
s 1
f 298/501/174 299/502/175 297/503/176
f 300/504/177 301/505/178 299/502/175
f 302/506/179 303/507/180 301/505/178
f 303/508/180 306/509/181 305/510/182
s 0
f 298/511/183 306/512/183 302/513/183
s 1
f 305/514/182 308/515/184 307/516/185
f 307/516/185 298/517/174 297/518/176
s 0
f 299/519/186 303/520/186 307/521/186
s 1
f 310/522/187 311/523/188 309/524/189
f 312/525/190 313/526/191 311/527/188
f 314/528/192 315/529/193 313/526/191
f 315/529/193 318/530/194 317/531/195
s 0
f 310/532/196 318/533/196 314/534/196
s 1
f 317/535/195 320/536/197 319/537/198
f 319/538/198 310/522/187 309/524/189
s 0
f 311/539/199 315/540/199 319/541/199
s 1
f 322/542/200 323/543/201 321/544/202
f 324/545/203 325/546/204 323/543/201
f 326/547/205 327/548/206 325/549/204
f 327/548/206 330/550/207 329/551/208
s 0
f 322/552/209 330/553/209 326/554/209
s 1
f 329/555/208 332/556/210 331/557/211
f 331/557/211 322/558/200 321/559/202
s 0
f 323/560/212 327/561/212 331/562/212
s 1
f 334/563/213 335/564/214 333/565/215
f 336/566/216 337/567/217 335/568/214
f 338/569/218 339/570/219 337/567/217
f 339/571/219 342/572/220 341/573/221
s 0
f 334/574/222 342/575/222 338/576/222
s 1
f 341/573/221 344/577/223 343/578/224
f 343/579/224 334/563/213 333/565/215
s 0
f 335/580/225 339/581/225 343/582/225
s 1
f 346/583/226 347/584/227 345/585/228
f 348/586/229 349/587/230 347/584/227
f 350/588/231 351/589/232 349/590/230
f 351/589/232 354/591/233 353/592/234
s 0
f 346/593/235 354/594/235 350/595/235
s 1
f 353/596/234 356/597/236 355/598/237
f 355/598/237 346/599/226 345/600/228
s 0
f 347/601/238 351/602/238 355/603/238
s 1
f 21/30/23 27/45/34 28/31/24
f 22/33/25 28/47/24 29/34/26
f 23/36/27 29/668/26 30/37/28
f 30/37/28 31/669/31 25/39/30
f 31/40/31 32/54/33 26/41/32
f 32/43/33 27/45/34 21/30/23
f 27/45/34 33/56/40 34/46/35
f 28/47/24 34/58/35 35/48/36
f 29/34/26 35/48/36 36/49/37
f 36/51/37 37/53/38 31/40/31
f 37/53/38 38/63/39 32/54/33
f 38/55/39 33/56/40 27/45/34
f 33/56/40 39/65/46 40/57/41
f 34/58/35 40/67/41 41/59/42
f 35/48/36 41/59/42 42/60/43
f 42/61/43 43/62/44 37/53/38
f 43/62/44 44/74/45 38/63/39
f 44/64/45 39/65/46 33/56/40
f 39/65/46 45/76/52 46/66/47
f 40/67/41 46/78/47 47/68/48
f 41/69/42 47/80/48 48/70/49
f 48/70/49 49/82/50 43/72/44
f 49/73/50 50/84/51 44/74/45
f 50/75/51 45/76/52 39/65/46
f 45/76/52 51/670/59 52/77/53
f 46/78/47 52/88/53 53/79/54
f 47/80/48 53/92/54 54/81/55
f 54/81/55 55/94/56 49/82/50
f 55/83/56 56/85/57 50/84/51
f 56/85/57 51/671/59 45/86/52
f 57/87/58 58/90/60 52/88/53
f 58/90/60 59/102/61 53/79/54
f 59/91/61 60/104/67 54/81/55
f 54/81/55 60/104/67 61/93/62
f 55/83/56 61/106/62 62/95/63
f 56/96/57 62/108/63 57/97/58
f 63/99/64 64/110/65 58/100/60
f 64/101/65 65/112/66 59/102/61
f 65/103/66 66/114/73 60/104/67
f 60/104/67 66/114/73 67/105/68
f 61/106/62 67/116/68 68/107/69
f 62/108/63 68/118/69 63/99/64
f 69/109/70 70/120/71 64/110/65
f 70/111/71 71/122/72 65/112/66
f 71/113/72 72/125/79 66/114/73
f 66/114/73 72/125/79 73/115/74
f 67/116/68 73/127/74 74/117/75
f 68/118/69 74/129/75 69/109/70
f 75/119/76 76/131/77 70/120/71
f 76/121/77 77/123/78 71/122/72
f 77/123/78 78/672/84 72/124/79
f 72/125/79 78/673/84 79/126/80
f 73/127/74 79/138/80 80/128/81
f 74/129/75 80/140/81 75/119/76
f 81/130/29 82/142/82 76/131/77
f 82/132/82 83/144/83 77/123/78
f 83/133/83 84/146/23 78/134/84
f 78/134/84 84/146/23 85/136/85
f 79/138/80 85/148/85 86/139/86
f 80/140/81 86/150/86 81/130/29
f 81/130/29 87/674/92 88/141/87
f 82/132/82 88/153/87 89/143/88
f 83/133/83 89/155/88 90/145/89
f 90/145/89 91/157/90 85/136/85
f 91/147/90 92/159/91 86/139/86
f 92/149/91 87/674/92 81/130/29
f 87/151/92 93/162/98 94/152/93
f 88/153/87 94/152/93 95/154/94
f 89/155/88 95/165/94 96/156/95
f 96/156/95 97/167/96 91/157/90
f 97/158/96 98/160/97 92/159/91
f 98/160/97 93/170/98 87/161/92
f 93/162/98 99/675/104 100/163/99
f 94/152/93 100/163/99 101/164/100
f 95/165/94 101/175/100 102/166/101
f 102/166/101 103/177/102 97/167/96
f 103/168/102 104/169/103 98/160/97
f 104/169/103 99/676/104 93/170/98
f 99/171/104 105/181/110 106/172/105
f 100/163/99 106/183/105 107/174/106
f 101/175/100 107/185/106 108/176/107
f 108/176/107 109/677/108 103/177/102
f 109/178/108 110/190/109 104/169/103
f 110/179/109 105/181/110 99/171/104
f 105/181/110 111/193/55 112/182/111
f 106/183/105 112/195/111 113/184/112
f 107/185/106 113/678/112 114/186/59
f 114/187/59 115/189/113 109/178/108
f 115/189/113 116/202/114 110/190/109
f 116/191/114 111/193/55 105/181/110
f 117/192/115 118/204/116 112/182/111
f 118/194/116 119/196/117 113/184/112
f 119/196/117 120/679/123 114/197/59
f 114/198/59 120/207/123 121/199/118
f 115/189/113 121/210/118 122/201/119
f 116/191/114 122/212/119 117/192/115
f 123/203/120 124/214/121 118/204/116
f 124/205/121 125/216/122 119/196/117
f 125/206/122 126/218/129 120/207/123
f 120/207/123 126/218/129 127/209/124
f 121/210/118 127/220/124 128/211/125
f 122/212/119 128/222/125 123/203/120
f 129/213/126 130/680/127 124/214/121
f 130/215/127 131/226/128 125/216/122
f 131/217/128 132/228/135 126/218/129
f 126/218/129 132/228/135 133/219/130
f 127/220/124 133/230/130 134/221/131
f 128/222/125 134/232/131 129/213/126
f 135/223/132 136/225/133 130/215/127
f 136/225/133 137/236/134 131/226/128
f 137/227/134 138/237/138 132/228/135
f 132/228/135 138/237/138 139/229/136
f 133/230/130 139/238/136 140/231/137
f 134/232/131 140/681/137 135/233/132
f 21/30/23 22/32/25 136/234/133
f 22/33/25 23/35/27 137/236/134
f 23/36/27 24/38/29 138/237/138
f 138/237/138 24/38/29 25/39/30
f 139/238/136 25/42/30 26/41/32
f 140/239/137 26/44/32 21/30/23
f 141/240/23 147/255/34 148/241/24
f 142/243/25 148/257/24 149/244/26
f 143/246/27 149/682/26 150/247/28
f 150/247/28 151/683/31 145/249/30
f 151/250/31 152/264/33 146/251/32
f 152/253/33 147/255/34 141/240/23
f 147/255/34 153/266/40 154/256/35
f 148/257/24 154/268/35 155/258/36
f 149/244/26 155/258/36 156/259/37
f 156/261/37 157/263/38 151/250/31
f 157/263/38 158/273/39 152/264/33
f 158/265/39 153/266/40 147/255/34
f 153/266/40 159/275/46 160/267/41
f 154/268/35 160/277/41 161/269/42
f 155/258/36 161/269/42 162/270/43
f 162/271/43 163/272/44 157/263/38
f 163/272/44 164/284/45 158/273/39
f 164/274/45 159/275/46 153/266/40
f 159/275/46 165/286/52 166/276/47
f 160/277/41 166/288/47 167/278/48
f 161/279/42 167/290/48 168/280/49
f 168/280/49 169/292/50 163/282/44
f 169/283/50 170/294/51 164/284/45
f 170/285/51 165/286/52 159/275/46
f 165/286/52 171/684/59 172/287/53
f 166/288/47 172/298/53 173/289/54
f 167/290/48 173/302/54 174/291/55
f 174/291/55 175/304/56 169/292/50
f 175/293/56 176/295/57 170/294/51
f 176/295/57 171/685/59 165/296/52
f 177/297/58 178/300/60 172/298/53
f 178/300/60 179/312/61 173/289/54
f 179/301/61 180/314/67 174/291/55
f 174/291/55 180/314/67 181/303/62
f 175/293/56 181/316/62 182/305/63
f 176/306/57 182/318/63 177/307/58
f 183/309/64 184/320/65 178/310/60
f 184/311/65 185/322/66 179/312/61
f 185/313/66 186/324/73 180/314/67
f 180/314/67 186/324/73 187/315/68
f 181/316/62 187/326/68 188/317/69
f 182/318/63 188/328/69 183/309/64
f 189/319/70 190/330/71 184/320/65
f 190/321/71 191/332/72 185/322/66
f 191/323/72 192/335/79 186/324/73
f 186/324/73 192/335/79 193/325/74
f 187/326/68 193/337/74 194/327/75
f 188/328/69 194/339/75 189/319/70
f 195/329/76 196/341/77 190/330/71
f 196/331/77 197/333/78 191/332/72
f 197/333/78 198/686/84 192/334/79
f 192/335/79 198/687/84 199/336/80
f 193/337/74 199/348/80 200/338/81
f 194/339/75 200/350/81 195/329/76
f 201/340/29 202/352/82 196/341/77
f 202/342/82 203/354/83 197/333/78
f 203/343/83 204/356/23 198/344/84
f 198/344/84 204/356/23 205/346/85
f 199/348/80 205/358/85 206/349/86
f 200/350/81 206/360/86 201/340/29
f 201/340/29 207/688/92 208/351/87
f 202/342/82 208/363/87 209/353/88
f 203/343/83 209/365/88 210/355/89
f 210/355/89 211/367/90 205/346/85
f 211/357/90 212/369/91 206/349/86
f 212/359/91 207/688/92 201/340/29
f 207/361/92 213/372/98 214/362/93
f 208/363/87 214/362/93 215/364/94
f 209/365/88 215/375/94 216/366/95
f 216/366/95 217/377/96 211/367/90
f 217/368/96 218/370/97 212/369/91
f 218/370/97 213/380/98 207/371/92
f 213/372/98 219/689/104 220/373/99
f 214/362/93 220/373/99 221/374/100
f 215/375/94 221/385/100 222/376/101
f 222/376/101 223/387/102 217/377/96
f 223/378/102 224/379/103 218/370/97
f 224/379/103 219/690/104 213/380/98
f 219/381/104 225/391/110 226/382/105
f 220/373/99 226/393/105 227/384/106
f 221/385/100 227/395/106 228/386/107
f 228/386/107 229/691/108 223/387/102
f 229/388/108 230/400/109 224/379/103
f 230/389/109 225/391/110 219/381/104
f 225/391/110 231/403/55 232/392/111
f 226/393/105 232/405/111 233/394/112
f 227/395/106 233/692/112 234/396/59
f 234/397/59 235/399/113 229/388/108
f 235/399/113 236/412/114 230/400/109
f 236/401/114 231/403/55 225/391/110
f 237/402/115 238/414/116 232/392/111
f 238/404/116 239/406/117 233/394/112
f 239/406/117 240/693/123 234/407/59
f 234/408/59 240/417/123 241/409/118
f 235/399/113 241/420/118 242/411/119
f 236/401/114 242/422/119 237/402/115
f 243/413/120 244/424/121 238/414/116
f 244/415/121 245/426/122 239/406/117
f 245/416/122 246/428/129 240/417/123
f 240/417/123 246/428/129 247/419/124
f 241/420/118 247/430/124 248/421/125
f 242/422/119 248/432/125 243/413/120
f 249/423/126 250/694/127 244/424/121
f 250/425/127 251/436/128 245/426/122
f 251/427/128 252/438/135 246/428/129
f 246/428/129 252/438/135 253/429/130
f 247/430/124 253/440/130 254/431/131
f 248/432/125 254/442/131 249/423/126
f 255/433/132 256/435/133 250/425/127
f 256/435/133 257/446/134 251/436/128
f 257/437/134 258/447/138 252/438/135
f 252/438/135 258/447/138 259/439/136
f 253/440/130 259/448/136 260/441/137
f 254/442/131 260/695/137 255/443/132
f 141/240/23 142/242/25 256/444/133
f 142/243/25 143/245/27 257/446/134
f 143/246/27 144/248/29 258/447/138
f 258/447/138 144/248/29 145/249/30
f 259/448/136 145/252/30 146/251/32
f 260/449/137 146/254/32 141/240/23
f 261/450/139 262/696/279 264/451/140
f 263/452/141 264/451/140 266/453/142
f 265/454/143 266/453/142 268/455/144
f 268/455/144 270/697/147 269/457/146
f 270/458/147 272/461/149 271/459/148
f 272/461/149 274/698/280 273/462/150
f 273/462/150 274/698/280 276/463/151
f 275/464/152 276/463/151 278/465/153
f 277/467/154 278/699/153 280/468/155
f 280/468/155 282/474/158 281/470/157
s 0
f 266/473/18 264/700/18 262/701/18
f 262/701/18 284/702/18 282/471/18
f 282/471/18 280/703/18 278/704/18
f 278/704/18 276/705/18 274/472/18
f 274/472/18 272/706/18 270/707/18
f 270/707/18 268/708/18 266/473/18
f 266/473/18 262/701/18 282/471/18
f 282/471/18 278/704/18 274/472/18
f 274/472/18 270/707/18 266/473/18
s 1
f 282/474/158 284/476/160 283/475/159
f 284/476/160 262/709/279 261/477/139
s 0
f 283/480/22 261/710/22 263/711/22
f 263/711/22 265/712/22 267/478/22
f 267/478/22 269/713/22 271/714/22
f 271/714/22 273/715/22 275/479/22
f 275/479/22 277/716/22 279/717/22
f 279/717/22 281/718/22 283/480/22
f 283/480/22 263/711/22 267/478/22
f 267/478/22 271/714/22 275/479/22
f 275/479/22 279/717/22 283/480/22
s 1
f 286/481/161 288/719/164 287/482/162
f 288/484/164 290/487/166 289/485/165
f 290/487/166 292/720/281 291/488/167
f 291/489/167 292/721/281 294/490/168
s 0
f 290/494/170 288/722/170 286/492/170
f 286/492/170 296/723/170 294/493/170
f 294/493/170 292/724/170 290/494/170
s 1
f 293/491/169 294/490/168 296/495/171
f 295/497/172 296/725/171 286/481/161
s 0
f 295/500/173 285/726/173 287/498/173
f 287/498/173 289/727/173 291/499/173
f 291/499/173 293/728/173 295/500/173
s 1
f 298/501/174 300/504/177 299/502/175
f 300/504/177 302/506/179 301/505/178
f 302/506/179 304/729/282 303/507/180
f 303/508/180 304/730/282 306/509/181
s 0
f 302/513/183 300/731/183 298/511/183
f 298/511/183 308/732/183 306/512/183
f 306/512/183 304/733/183 302/513/183
s 1
f 305/514/182 306/734/181 308/515/184
f 307/516/185 308/515/184 298/517/174
s 0
f 307/521/186 297/735/186 299/519/186
f 299/519/186 301/736/186 303/520/186
f 303/520/186 305/737/186 307/521/186
s 1
f 310/522/187 312/738/190 311/523/188
f 312/525/190 314/528/192 313/526/191
f 314/528/192 316/739/283 315/529/193
f 315/529/193 316/739/283 318/530/194
s 0
f 314/534/196 312/740/196 310/532/196
f 310/532/196 320/741/196 318/533/196
f 318/533/196 316/742/196 314/534/196
s 1
f 317/535/195 318/743/194 320/536/197
f 319/538/198 320/744/197 310/522/187
s 0
f 319/541/199 309/745/199 311/539/199
f 311/539/199 313/746/199 315/540/199
f 315/540/199 317/747/199 319/541/199
s 1
f 322/542/200 324/545/203 323/543/201
f 324/545/203 326/748/205 325/546/204
f 326/547/205 328/749/284 327/548/206
f 327/548/206 328/749/284 330/550/207
s 0
f 326/554/209 324/750/209 322/552/209
f 322/552/209 332/751/209 330/553/209
f 330/553/209 328/752/209 326/554/209
s 1
f 329/555/208 330/753/207 332/556/210
f 331/557/211 332/556/210 322/558/200
s 0
f 331/562/212 321/754/212 323/560/212
f 323/560/212 325/755/212 327/561/212
f 327/561/212 329/756/212 331/562/212
s 1
f 334/563/213 336/757/216 335/564/214
f 336/566/216 338/569/218 337/567/217
f 338/569/218 340/758/285 339/570/219
f 339/571/219 340/759/285 342/572/220
s 0
f 338/576/222 336/760/222 334/574/222
f 334/574/222 344/761/222 342/575/222
f 342/575/222 340/762/222 338/576/222
s 1
f 341/573/221 342/572/220 344/577/223
f 343/579/224 344/763/223 334/563/213
s 0
f 343/582/225 333/764/225 335/580/225
f 335/580/225 337/765/225 339/581/225
f 339/581/225 341/766/225 343/582/225
s 1
f 346/583/226 348/586/229 347/584/227
f 348/586/229 350/767/231 349/587/230
f 350/588/231 352/768/286 351/589/232
f 351/589/232 352/768/286 354/591/233
s 0
f 350/595/235 348/769/235 346/593/235
f 346/593/235 356/770/235 354/594/235
f 354/594/235 352/771/235 350/595/235
s 1
f 353/596/234 354/772/233 356/597/236
f 355/598/237 356/597/236 346/599/226
s 0
f 355/603/238 345/773/238 347/601/238
f 347/601/238 349/774/238 351/602/238
f 351/602/238 353/775/238 355/603/238
usemtl MMO_ember
f 357/604/239 358/605/239 359/606/239
f 358/607/240 357/608/240 362/609/240
f 357/610/241 359/611/241 360/612/241
f 357/613/242 360/614/242 361/615/242
f 357/608/243 361/616/243 362/609/243
f 358/607/244 362/609/244 367/617/244
f 359/606/245 358/605/245 363/618/245
f 360/619/246 359/606/246 364/620/246
f 361/615/247 360/614/247 365/621/247
f 362/609/248 361/616/248 366/622/248
f 358/605/249 367/623/249 363/618/249
f 359/606/250 363/618/250 364/620/250
f 360/614/251 364/624/251 365/621/251
f 361/615/252 365/621/252 366/625/252
f 362/609/253 366/622/253 367/617/253
f 363/618/254 367/623/254 368/626/254
f 364/620/255 363/618/255 368/626/255
f 365/621/256 364/624/256 368/627/256
f 366/625/257 365/621/257 368/627/257
f 367/617/258 366/622/258 368/628/258
usemtl MMO_flame
f 369/629/259 370/630/259 371/631/259
f 370/632/260 369/633/260 374/634/260
f 369/629/261 371/631/261 372/635/261
f 369/636/262 372/637/262 373/638/262
f 369/633/263 373/639/263 374/634/263
f 370/632/264 374/634/264 379/640/264
f 371/631/265 370/630/265 375/641/265
f 372/635/266 371/631/266 376/642/266
f 373/638/267 372/637/267 377/643/267
f 374/634/268 373/639/268 378/644/268
f 370/630/269 379/645/269 375/641/269
f 371/631/270 375/641/270 376/642/270
f 372/637/271 376/646/271 377/643/271
f 373/638/272 377/643/272 378/647/272
f 374/634/273 378/644/273 379/640/273
f 375/641/274 379/645/274 380/648/274
f 376/642/275 375/641/275 380/648/275
f 377/643/276 376/646/276 380/649/276
f 378/647/277 377/643/277 380/649/277
f 379/640/278 378/644/278 380/650/278
