# Blender 4.0.2
# www.blender.org
mtllib tree_pine.mtl
o tree_pine
v 0.000000 0.000000 -0.151535
v 0.000000 1.523810 -0.108239
v 0.089070 0.000000 -0.122594
v 0.063621 1.523810 -0.087567
v 0.144118 0.000000 -0.046827
v 0.102942 1.523810 -0.033448
v 0.144118 0.000000 0.046827
v 0.102942 1.523810 0.033448
v 0.089070 0.000000 0.122594
v 0.063621 1.523810 0.087567
v 0.000000 0.000000 0.151535
v 0.000000 1.523810 0.108239
v -0.089070 0.000000 0.122594
v -0.063621 1.523810 0.087567
v -0.144118 0.000000 0.046827
v -0.102942 1.523810 0.033448
v -0.144118 0.000000 -0.046827
v -0.102942 1.523810 -0.033448
v -0.089070 0.000000 -0.122594
v -0.063621 1.523810 -0.087567
v 0.930857 0.684425 0.000000
v 1.000000 0.720920 -0.414214
v 0.658216 0.693820 -0.658216
v 0.414214 0.720882 -1.000000
v 0.000000 0.771066 -0.930857
v -0.414214 0.635470 -1.000000
v -0.658216 0.730374 -0.658216
v -1.000000 0.620714 -0.414214
v -0.930857 0.723810 -0.000000
v -1.000000 0.744080 0.414214
v -0.658216 0.636570 0.658216
v -0.414214 0.757240 1.000000
v -0.000000 0.718996 0.930857
v 0.414214 0.708956 1.000000
v 0.658216 0.648174 0.658216
v 1.000000 0.708094 0.414214
v 0.725203 0.973545 0.000000
v 0.670000 0.973545 -0.277523
v 0.512796 0.973545 -0.512796
v 0.277523 0.973545 -0.670000
v 0.000000 0.973545 -0.725203
v -0.277523 0.973545 -0.670000
v -0.512796 0.973545 -0.512796
v -0.670000 0.973545 -0.277523
v -0.725203 0.973545 -0.000000
v -0.670000 0.973545 0.277523
v -0.512796 0.973545 0.512796
v -0.277523 0.973545 0.670000
v -0.000000 0.973545 0.725203
v 0.277523 0.973545 0.670000
v 0.512796 0.973545 0.512796
v 0.670000 0.973545 0.277523
v 0.048708 1.714286 0.000000
v 0.045000 1.714286 -0.018640
v 0.034442 1.714286 -0.034442
v 0.018640 1.714286 -0.045000
v 0.000000 1.714286 -0.048708
v -0.018640 1.714286 -0.045000
v -0.034442 1.714286 -0.034442
v -0.045000 1.714286 -0.018640
v -0.048708 1.714286 0.000000
v -0.045000 1.714286 0.018640
v -0.034442 1.714286 0.034442
v -0.018640 1.714286 0.045000
v 0.000000 1.714286 0.048708
v 0.018640 1.714286 0.045000
v 0.034442 1.714286 0.034442
v 0.045000 1.714286 0.018640
v 0.791229 1.245162 0.000000
v 0.850000 1.212055 -0.352082
v 0.559483 1.283074 -0.559483
v 0.352082 1.201142 -0.850000
v 0.000000 1.258009 -0.791229
v -0.352082 1.299217 -0.850000
v -0.559483 1.314298 -0.559483
v -0.850000 1.194406 -0.352082
v -0.791229 1.227641 -0.000000
v -0.850000 1.260697 0.352082
v -0.559483 1.299026 0.559483
v -0.352082 1.255372 0.850000
v -0.000000 1.244128 0.791229
v 0.352082 1.197278 0.850000
v 0.559483 1.214090 0.559483
v 0.850000 1.206156 0.352082
v 0.616422 1.544974 0.000000
v 0.569500 1.544974 -0.235895
v 0.435876 1.544974 -0.435876
v 0.235895 1.544974 -0.569500
v 0.000000 1.544974 -0.616422
v -0.235895 1.544974 -0.569500
v -0.435876 1.544974 -0.435876
v -0.569500 1.544974 -0.235895
v -0.616422 1.544974 -0.000000
v -0.569500 1.544974 0.235895
v -0.435876 1.544974 0.435876
v -0.235895 1.544974 0.569500
v -0.000000 1.544974 0.616422
v 0.235895 1.544974 0.569500
v 0.435876 1.544974 0.435876
v 0.569500 1.544974 0.235895
v 0.041402 2.285714 0.000000
v 0.038250 2.285714 -0.015844
v 0.029275 2.285714 -0.029275
v 0.015844 2.285714 -0.038250
v 0.000000 2.285714 -0.041402
v -0.015844 2.285714 -0.038250
v -0.029275 2.285714 -0.029275
v -0.038250 2.285714 -0.015844
v -0.041402 2.285714 0.000000
v -0.038250 2.285714 0.015844
v -0.029275 2.285714 0.029275
v -0.015844 2.285714 0.038250
v 0.000000 2.285714 0.041402
v 0.015844 2.285714 0.038250
v 0.029275 2.285714 0.029275
v 0.038250 2.285714 0.015844
v 0.651600 1.845529 0.000000
v 0.700000 1.777929 -0.289950
v 0.460751 1.778051 -0.460751
v 0.289950 1.771791 -0.700000
v 0.000000 1.851570 -0.651600
v -0.289950 1.835399 -0.700000
v -0.460751 1.783186 -0.460751
v -0.700000 1.866692 -0.289950
v -0.651600 1.749305 -0.000000
v -0.700000 1.795951 0.289950
v -0.460751 1.822775 0.460751
v -0.289950 1.756793 0.700000
v -0.000000 1.786376 0.651600
v 0.289950 1.902439 0.700000
v 0.460751 1.763820 0.460751
v 0.700000 1.770473 0.289950
v 0.507642 2.116402 0.000000
v 0.469000 2.116402 -0.194266
v 0.358957 2.116402 -0.358957
v 0.194266 2.116402 -0.469000
v 0.000000 2.116402 -0.507642
v -0.194266 2.116402 -0.469000
v -0.358957 2.116402 -0.358957
v -0.469000 2.116402 -0.194266
v -0.507642 2.116402 -0.000000
v -0.469000 2.116402 0.194266
v -0.358957 2.116402 0.358957
v -0.194266 2.116402 0.469000
v -0.000000 2.116402 0.507642
v 0.194266 2.116402 0.469000
v 0.358957 2.116402 0.358957
v 0.469000 2.116402 0.194266
v 0.034095 2.857143 0.000000
v 0.031500 2.857143 -0.013048
v 0.024109 2.857143 -0.024109
v 0.013048 2.857143 -0.031500
v 0.000000 2.857143 -0.034095
v -0.013048 2.857143 -0.031500
v -0.024109 2.857143 -0.024109
v -0.031500 2.857143 -0.013048
v -0.034095 2.857143 0.000000
v -0.031500 2.857143 0.013048
v -0.024109 2.857143 0.024109
v -0.013048 2.857143 0.031500
v 0.000000 2.857143 0.034095
v 0.013048 2.857143 0.031500
v 0.024109 2.857143 0.024109
v 0.031500 2.857143 0.013048
v 0.511972 2.485783 0.000000
v 0.550000 2.344432 -0.227817
v 0.362019 2.379198 -0.362019
v 0.227817 2.484058 -0.550000
v 0.000000 2.411493 -0.511972
v -0.227817 2.463294 -0.550000
v -0.362019 2.447134 -0.362019
v -0.550000 2.411038 -0.227817
v -0.511972 2.380655 -0.000000
v -0.550000 2.320766 0.227817
v -0.362019 2.380850 0.362019
v -0.227817 2.372242 0.550000
v -0.000000 2.463591 0.511972
v 0.227817 2.385999 0.550000
v 0.362019 2.450824 0.362019
v 0.550000 2.391482 0.227817
v 0.398862 2.687831 0.000000
v 0.368500 2.687831 -0.152638
v 0.282038 2.687831 -0.282038
v 0.152638 2.687831 -0.368500
v 0.000000 2.687831 -0.398862
v -0.152638 2.687831 -0.368500
v -0.282038 2.687831 -0.282038
v -0.368500 2.687831 -0.152638
v -0.398862 2.687831 0.000000
v -0.368500 2.687831 0.152638
v -0.282038 2.687831 0.282038
v -0.152638 2.687831 0.368500
v -0.000000 2.687831 0.398862
v 0.152638 2.687831 0.368500
v 0.282038 2.687831 0.282038
v 0.368500 2.687831 0.152638
v 0.026789 3.428571 0.000000
v 0.024750 3.428571 -0.010252
v 0.018943 3.428571 -0.018943
v 0.010252 3.428571 -0.024750
v 0.000000 3.428571 -0.026789
v -0.010252 3.428571 -0.024750
v -0.018943 3.428571 -0.018943
v -0.024750 3.428571 -0.010252
v -0.026789 3.428571 0.000000
v -0.024750 3.428571 0.010252
v -0.018943 3.428571 0.018943
v -0.010252 3.428571 0.024750
v 0.000000 3.428571 0.026789
v 0.010252 3.428571 0.024750
v 0.018943 3.428571 0.018943
v 0.024750 3.428571 0.010252
v 0.372343 2.890097 0.000000
v 0.400000 3.058085 -0.165685
v 0.263286 2.936352 -0.263286
v 0.165685 2.918032 -0.400000
v 0.000000 2.909004 -0.372343
v -0.165685 2.973777 -0.400000
v -0.263286 2.989013 -0.263286
v -0.400000 3.026452 -0.165685
v -0.372343 2.993203 0.000000
v -0.400000 2.915871 0.165685
v -0.263286 3.033339 0.263286
v -0.165685 2.913289 0.400000
v -0.000000 3.033273 0.372343
v 0.165685 3.039316 0.400000
v 0.263286 2.966143 0.263286
v 0.400000 3.052283 0.165685
v 0.290081 3.259259 0.000000
v 0.268000 3.259259 -0.111009
v 0.205118 3.259259 -0.205118
v 0.111009 3.259259 -0.268000
v 0.000000 3.259259 -0.290081
v -0.111009 3.259259 -0.268000
v -0.205118 3.259259 -0.205118
v -0.268000 3.259259 -0.111009
v -0.290081 3.259259 0.000000
v -0.268000 3.259259 0.111009
v -0.205118 3.259259 0.205118
v -0.111009 3.259259 0.268000
v 0.000000 3.259259 0.290081
v 0.111009 3.259259 0.268000
v 0.205118 3.259259 0.205118
v 0.268000 3.259259 0.111009
v 0.019483 4.000000 0.000000
v 0.018000 4.000000 -0.007456
v 0.013777 4.000000 -0.013777
v 0.007456 4.000000 -0.018000
v 0.000000 4.000000 -0.019483
v -0.007456 4.000000 -0.018000
v -0.013777 4.000000 -0.013777
v -0.018000 4.000000 -0.007456
v -0.019483 4.000000 0.000000
v -0.018000 4.000000 0.007456
v -0.013777 4.000000 0.013777
v -0.007456 4.000000 0.018000
v 0.000000 4.000000 0.019483
v 0.007456 4.000000 0.018000
v 0.013777 4.000000 0.013777
v 0.018000 4.000000 0.007456
vn -0.0000 0.6543 -0.7562
vn 0.4550 -0.6331 -0.6263
vn -0.0000 -0.6331 -0.7741
vn 0.4445 0.6543 -0.6118
vn 0.7362 -0.6331 -0.2392
vn 0.7192 0.6543 -0.2337
vn 0.7362 -0.6331 0.2392
vn 0.7192 0.6543 0.2337
vn 0.4550 -0.6331 0.6263
vn 0.4445 0.6543 0.6118
vn -0.0000 -0.6331 0.7741
vn -0.0000 0.6543 0.7562
vn -0.4550 -0.6331 0.6263
vn -0.4445 0.6543 0.6118
vn -0.7362 -0.6331 0.2392
vn -0.7192 0.6543 0.2337
vn -0.7362 -0.6331 -0.2392
vn -0.0000 1.0000 -0.0000
vn -0.7192 0.6543 -0.2337
vn -0.4550 -0.6331 -0.6263
vn -0.4445 0.6543 -0.6118
vn -0.0000 -1.0000 -0.0000
vn -0.0211 -0.9972 -0.0717
vn 0.8044 0.5722 -0.1600
vn 0.3424 0.7520 -0.5632
vn 0.4506 0.5849 -0.6744
vn -0.0057 0.7929 -0.6094
vn -0.1382 0.7057 -0.6949
vn -0.4680 0.7069 -0.5304
vn -0.6400 0.6384 -0.4276
vn -0.7191 0.6929 -0.0524
vn -0.7630 0.6283 0.1518
vn -0.2350 0.7242 0.6483
vn -0.4767 0.5136 0.7134
vn 0.1712 0.7900 0.5887
vn 0.1529 0.6211 0.7687
vn 0.6219 0.7162 0.3166
vn 0.7067 0.5269 0.4722
vn 0.6569 0.7385 -0.1519
vn 0.7306 0.6672 -0.1453
vn 0.6193 0.6672 -0.4138
vn 0.4138 0.6672 -0.6193
vn 0.1453 0.6672 -0.7306
vn -0.1453 0.6672 -0.7306
vn -0.4138 0.6672 -0.6193
vn -0.6193 0.6672 -0.4138
vn -0.7306 0.6672 -0.1453
vn -0.7306 0.6672 0.1453
vn -0.6193 0.6672 0.4138
vn -0.4138 0.6672 0.6193
vn -0.1453 0.6672 0.7306
vn 0.1453 0.6672 0.7306
vn 0.4138 0.6672 0.6193
vn 0.6193 0.6672 0.4138
vn 0.7306 0.6672 0.1453
vn 0.0111 -0.9996 -0.0273
vn 0.8514 0.4964 -0.1694
vn 0.5422 0.6448 -0.5387
vn 0.4648 0.5477 -0.6957
vn -0.0290 0.6260 -0.7793
vn -0.1675 0.5129 -0.8420
vn -0.5353 0.7327 -0.4202
vn -0.6673 0.5965 -0.4459
vn -0.7906 0.6078 0.0746
vn -0.8629 0.4753 0.1716
vn -0.4775 0.6923 0.5410
vn -0.4558 0.5719 0.6821
vn 0.1444 0.6579 0.7391
vn 0.1695 0.4951 0.8521
vn 0.6321 0.6034 0.4862
vn 0.7383 0.4601 0.4933
vn 0.7790 0.6240 -0.0609
vn 0.7804 0.6058 -0.1552
vn 0.6616 0.6058 -0.4420
vn 0.4420 0.6058 -0.6616
vn 0.1552 0.6058 -0.7804
vn -0.1552 0.6058 -0.7804
vn -0.4420 0.6058 -0.6616
vn -0.6616 0.6058 -0.4420
vn -0.7804 0.6058 -0.1552
vn -0.7804 0.6058 0.1552
vn -0.6616 0.6058 0.4420
vn -0.4420 0.6058 0.6616
vn -0.1552 0.6058 0.7804
vn 0.1552 0.6058 0.7804
vn 0.4420 0.6058 0.6616
vn 0.6616 0.6058 0.4420
vn 0.7804 0.6058 0.1552
vn 0.0734 -0.9939 -0.0826
vn 0.8697 0.4622 -0.1730
vn 0.4925 0.5310 -0.6895
vn 0.5127 0.3851 -0.7673
vn 0.0157 0.5597 -0.8285
vn -0.1722 0.4705 -0.8655
vn -0.7231 0.5686 -0.3922
vn -0.7656 0.3901 -0.5115
vn -0.6998 0.7007 -0.1392
vn -0.9154 0.3590 0.1821
vn -0.5201 0.5659 0.6397
vn -0.5007 0.4334 0.7493
vn 0.0884 0.5216 0.8486
vn -0.2987 0.3816 0.8747
vn 0.3653 0.7535 0.5466
vn 0.7719 0.3718 0.5158
vn 0.8309 0.5563 0.0053
vn 0.8310 0.5312 -0.1653
vn 0.7044 0.5312 -0.4707
vn 0.4707 0.5312 -0.7044
vn 0.1653 0.5312 -0.8310
vn -0.1653 0.5312 -0.8310
vn -0.4707 0.5312 -0.7044
vn -0.7044 0.5312 -0.4707
vn -0.8310 0.5312 -0.1653
vn -0.8310 0.5312 0.1653
vn -0.7044 0.5312 0.4707
vn -0.4707 0.5312 0.7044
vn -0.1653 0.5312 0.8310
vn 0.1653 0.5312 0.8310
vn 0.4707 0.5312 0.7044
vn 0.7044 0.5312 0.4707
vn 0.8310 0.5312 0.1653
vn 0.1020 -0.9939 0.0422
vn 0.8597 0.4813 -0.1710
vn 0.5721 0.4522 -0.6843
vn 0.8457 0.3282 -0.4207
vn 0.1418 0.6871 -0.7126
vn -0.1810 0.3726 -0.9102
vn -0.6840 0.5832 -0.4382
vn -0.7551 0.4186 -0.5046
vn -0.8430 0.4966 0.2069
vn -0.9225 0.3397 0.1835
vn -0.6109 0.4373 0.6600
vn -0.5225 0.3399 0.7820
vn -0.0605 0.5084 0.8590
vn 0.1749 0.4434 0.8791
vn 0.6030 0.5160 0.6084
vn 0.7531 0.4239 0.5032
vn 0.8406 0.5355 0.0813
vn 0.8798 0.4419 -0.1750
vn 0.7459 0.4419 -0.4984
vn 0.4984 0.4419 -0.7459
vn 0.1750 0.4419 -0.8798
vn -0.1750 0.4419 -0.8798
vn -0.4984 0.4419 -0.7459
vn -0.7459 0.4419 -0.4984
vn -0.8798 0.4419 -0.1750
vn -0.8798 0.4419 0.1750
vn -0.7459 0.4419 0.4984
vn -0.4984 0.4419 0.7459
vn -0.1750 0.4419 0.8798
vn 0.1750 0.4419 0.8798
vn 0.4984 0.4419 0.7459
vn 0.7459 0.4419 0.4984
vn 0.8798 0.4419 0.1750
vn -0.1366 -0.9868 0.0865
vn 0.9114 0.2031 0.3580
vn 0.6823 0.5716 -0.4559
vn 0.5390 0.2424 -0.8067
vn -0.1729 0.3311 -0.9276
vn 0.2443 0.2217 -0.9440
vn -0.7248 0.3986 -0.5619
vn -0.5044 0.2841 -0.8154
vn -0.8684 0.4377 0.2328
vn -0.9386 0.2902 0.1867
vn -0.7294 0.3718 0.5742
vn -0.5232 0.3363 0.7830
vn -0.1139 0.3698 0.9221
vn 0.1837 0.3362 0.9237
vn 0.4686 0.5373 0.7012
vn 0.4479 0.2587 0.8558
vn 0.8122 0.5606 0.1615
vn 0.9233 0.3373 -0.1837
vn 0.7827 0.3373 -0.5230
vn 0.5230 0.3373 -0.7827
vn 0.1837 0.3373 -0.9233
vn -0.1837 0.3373 -0.9233
vn -0.5230 0.3373 -0.7827
vn -0.7827 0.3373 -0.5230
vn -0.9233 0.3373 -0.1837
vn -0.9233 0.3373 0.1837
vn -0.7827 0.3373 0.5230
vn -0.5230 0.3373 0.7827
vn -0.1837 0.3373 0.9233
vn 0.1837 0.3373 0.9233
vn 0.5230 0.3373 0.7827
vn 0.7827 0.3373 0.5230
vn 0.9233 0.3373 0.1837
vn 0.1895 -0.9816 0.0244
vn -0.0476 -0.9887 0.1418
vn -0.0279 -0.9362 0.3505
vn -0.2981 -0.9545 -0.0030
vn 0.4018 -0.9021 0.1574
vn 0.2226 -0.8867 0.4052
vn -0.1192 -0.9928 0.0065
vn 0.1258 -0.9898 -0.0662
vn -0.1544 -0.9809 -0.1180
vn 0.2076 -0.9548 -0.2126
vn 0.0695 -0.9974 0.0188
vn -0.1332 -0.9902 0.0410
vn -0.0211 -0.9996 0.0160
vn 0.6429 0.7462 0.1731
vn 0.6744 0.5849 -0.4506
vn 0.5632 0.7520 -0.3425
vn 0.1382 0.7057 -0.6949
vn -0.1206 0.7180 -0.6856
vn -0.4276 0.6384 -0.6400
vn -0.5520 0.6949 -0.4609
vn -0.7630 0.6283 -0.1518
vn -0.6036 0.7851 -0.1392
vn -0.7134 0.5136 0.4767
vn -0.6519 0.7292 0.2079
vn -0.1529 0.6211 0.7687
vn -0.0893 0.7587 0.6453
vn 0.4722 0.5269 0.7067
vn 0.3183 0.7158 0.6216
vn 0.8044 0.5722 0.1600
vn -0.0942 -0.9911 -0.0941
vn -0.1086 -0.9849 -0.1345
vn -0.0506 -0.9923 -0.1130
vn 0.0576 -0.9930 0.1028
vn 0.3941 -0.9188 0.0209
vn -0.1116 -0.9934 -0.0281
vn -0.0959 -0.9380 0.3330
vn -0.2679 -0.9624 0.0458
vn -0.0918 -0.9914 -0.0931
vn -0.1758 -0.9647 0.1959
vn -0.1900 -0.9553 -0.2267
vn 0.0872 -0.9908 -0.1032
vn 0.0111 -0.9999 0.0098
vn 0.7748 0.6283 0.0703
vn 0.6957 0.5477 -0.4648
vn 0.5320 0.6359 -0.5591
vn 0.1675 0.5129 -0.8420
vn 0.1968 0.6956 -0.6909
vn -0.4459 0.5965 -0.6673
vn -0.6035 0.6403 -0.4752
vn -0.8629 0.4753 -0.1716
vn -0.7362 0.6512 -0.1840
vn -0.6821 0.5719 0.4558
vn -0.5379 0.6879 0.4874
vn -0.1695 0.4951 0.8521
vn -0.0490 0.6172 0.7853
vn 0.4933 0.4601 0.7383
vn 0.4717 0.6092 0.6375
vn 0.8514 0.4964 0.1694
vn 0.6615 0.6058 -0.4420
vn -0.6615 0.6058 0.4420
vn -0.1353 -0.9644 -0.2271
vn 0.2098 -0.7736 0.5980
vn 0.0477 -0.9537 -0.2971
vn -0.0024 -0.9874 0.1584
vn -0.4783 -0.8389 -0.2598
vn 0.0811 -0.9843 -0.1569
vn -0.2309 -0.9543 0.1898
vn -0.1445 -0.9687 0.2017
vn -0.1423 -0.9628 -0.2297
vn -0.1681 -0.9603 0.2228
vn 0.1410 -0.9899 -0.0144
vn -0.2494 -0.9380 0.2407
vn 0.0736 -0.9971 -0.0169
vn 0.8269 0.5624 0.0069
vn 0.7673 0.3851 -0.5127
vn 0.6850 0.5272 -0.5028
vn 0.1722 0.4705 -0.8655
vn 0.0969 0.6122 -0.7848
vn -0.5115 0.3901 -0.7656
vn -0.3256 0.5856 -0.7423
vn -0.8909 0.3494 0.2902
vn -0.8212 0.5258 -0.2217
vn -0.7493 0.4334 0.5007
vn -0.6096 0.5369 0.5833
vn -0.1794 0.3933 0.9017
vn 0.1283 0.7535 0.6448
vn 0.8455 0.3584 0.3959
vn 0.4869 0.5194 0.7023
vn 0.8697 0.4622 0.1730
vn -0.0001 1.0000 -0.0000
vn 0.0001 1.0000 -0.0000
vn -0.4612 -0.8444 -0.2726
vn -0.2185 -0.8639 -0.4539
vn 0.3193 -0.9085 -0.2695
vn 0.4070 -0.8978 -0.1681
vn 0.0853 -0.9857 -0.1457
vn -0.1827 -0.9598 -0.2129
vn 0.1627 -0.8077 -0.5667
vn -0.4446 -0.7925 0.4175
vn -0.0897 -0.9871 -0.1325
vn 0.2641 -0.9583 -0.1089
vn -0.1993 -0.9459 -0.2562
vn -0.2303 -0.9035 0.3614
vn 0.1020 -0.9930 0.0589
vn 0.8579 0.4884 -0.1598
vn 0.7825 0.3383 -0.5228
vn 0.4037 0.6871 -0.6042
vn -0.2653 0.3652 -0.8923
vn 0.2580 0.5536 -0.7918
vn -0.5046 0.4186 -0.7551
vn -0.5560 0.5369 -0.6344
vn -0.9225 0.3397 -0.1835
vn -0.8987 0.4372 -0.0351
vn -0.7820 0.3399 0.5225
vn -0.7074 0.4714 0.5266
vn -0.1749 0.4434 0.8791
vn 0.0353 0.5215 0.8526
vn 0.5032 0.4239 0.7531
vn 0.5987 0.5210 0.6083
vn 0.8597 0.4813 0.1710
vn 0.6833 -0.5755 0.4493
vn -0.0422 -0.8931 0.4479
vn 0.3073 -0.5955 -0.7423
vn 0.7153 -0.6714 -0.1939
vn -0.3463 -0.9292 -0.1287
vn -0.3403 -0.9299 -0.1393
vn 0.0683 -0.9941 0.0845
vn 0.7521 -0.5214 -0.4031
vn -0.1575 -0.9642 0.2133
vn -0.0750 -0.9807 0.1806
vn -0.3352 -0.9340 -0.1240
vn 0.2019 -0.9470 -0.2500
vn -0.1332 -0.9624 0.2368
vn 0.8048 0.5716 -0.1601
vn 0.4186 0.2335 -0.8776
vn 0.7426 0.3418 -0.5759
vn 0.1901 0.2245 -0.9558
vn -0.1751 0.4406 -0.8804
vn -0.5324 0.2861 -0.7967
vn -0.7124 0.5157 -0.4760
vn -0.9386 0.2902 -0.1867
vn -0.9327 0.3605 0.0126
vn -0.7830 0.3363 0.5232
vn -0.5714 0.3698 0.7326
vn -0.1837 0.3362 0.9237
vn -0.1616 0.4780 0.8634
vn 0.8463 0.2602 0.4649
vn 0.6885 0.5606 0.4600
vn 0.9137 0.2036 -0.3518
vn 0.5230 0.3373 -0.7828
vn -0.5230 0.3373 -0.7828
vn -0.5230 0.3373 0.7828
vn 0.5230 0.3373 0.7828
vn -0.0002 1.0000 -0.0000
vn 0.0002 1.0000 -0.0000
vt 0.239023 0.298411
vt 0.250329 0.501345
vt 0.239776 0.504341
vt 0.220748 0.511989
vt 0.226517 0.716280
vt 0.215830 0.712943
vt 0.228381 0.514373
vt 0.239695 0.716262
vt 0.237794 0.514359
vt 0.250332 0.712896
vt 0.671655 0.482035
vt 0.675726 0.687394
vt 0.664760 0.684224
vt 0.679488 0.484300
vt 0.688893 0.687292
vt 0.677345 0.000000
vt 0.681303 0.204608
vt 0.670491 0.201281
vt 0.685067 0.002376
vt 0.694478 0.204611
vt 0.535515 0.232460
vt 0.558954 0.214995
vt 0.564487 0.232460
vt 0.221919 0.296272
vt 0.226598 0.504341
vt 0.215830 0.501345
vt 0.229611 0.298411
vt 0.722182 0.239216
vt 0.709648 0.199652
vt 0.734716 0.199652
vt 0.233340 0.049337
vt 0.233335 0.239315
vt 0.048098 0.239341
vt 0.068735 0.427521
vt 0.081142 0.361708
vt 0.105022 0.393604
vt 0.019170 0.345197
vt 0.029927 0.382957
vt 0.061094 0.303627
vt 0.065717 0.330112
vt 0.416049 0.379886
vt 0.413860 0.327784
vt 0.467029 0.350746
vt 0.356235 0.376208
vt 0.388652 0.353039
vt 0.332719 0.436775
vt 0.386914 0.432706
vt 0.289863 0.403036
vt 0.321545 0.393764
vt 0.079912 0.701183
vt 0.111855 0.647814
vt 0.140033 0.710681
vt 0.034475 0.658565
vt 0.073753 0.656471
vt 0.886570 0.239702
vt 0.832780 0.200218
vt 0.886570 0.178430
vt 0.610159 0.933221
vt 0.664798 0.896130
vt 0.664884 0.923465
vt 0.616564 0.170054
vt 0.629795 0.105887
vt 0.663067 0.142195
vt 0.563828 0.144113
vt 0.596935 0.128789
vt 0.139562 0.489707
vt 0.188029 0.446637
vt 0.188329 0.510769
vt 0.133720 0.420945
vt 0.162869 0.439568
vt 0.107190 0.472499
vt 0.204521 0.300536
vt 0.202917 0.298394
vt 0.296021 0.252981
vt 0.428023 0.304289
vt 0.295070 0.254559
vt 0.293377 0.256256
vt 0.291200 0.257812
vt 0.059424 0.518383
vt 0.142980 0.633910
vt 0.057334 0.519317
vt 0.054775 0.519899
vt 0.000000 0.653775
vt 0.052137 0.520039
vt 0.543702 0.000000
vt 0.657407 0.078893
vt 0.541848 0.001813
vt 0.539641 0.003351
vt 0.535515 0.149524
vt 0.537417 0.004380
vt 0.208406 0.303623
vt 0.206448 0.302372
vt 0.265812 0.482926
vt 0.257753 0.477403
vt 0.263138 0.469137
vt 0.487207 0.041938
vt 0.487205 0.203422
vt 0.329747 0.203427
vt 0.583132 0.402613
vt 0.525932 0.380250
vt 0.554359 0.362406
vt 0.508589 0.435043
vt 0.547757 0.439036
vt 0.476268 0.392425
vt 0.498510 0.390791
vt 0.292821 0.828300
vt 0.345559 0.849741
vt 0.288870 0.879147
vt 0.336994 0.785393
vt 0.338937 0.819781
vt 0.301556 0.741004
vt 0.288870 0.783012
vt 0.347572 0.724154
vt 0.340027 0.751813
vt 0.768822 0.184328
vt 0.797107 0.126657
vt 0.818952 0.187861
vt 0.730975 0.132463
vt 0.764406 0.132372
vt 0.615986 0.658623
vt 0.653266 0.622638
vt 0.657336 0.682012
vt 0.597017 0.603444
vt 0.626693 0.616841
vt 0.537938 0.623255
vt 0.573025 0.653962
vt 0.546212 0.562849
vt 0.568756 0.584484
vt 0.640749 0.346812
vt 0.605505 0.295198
vt 0.667635 0.313654
vt 0.579464 0.339977
vt 0.597424 0.316376
vt 0.628100 0.379550
vt 0.478204 0.256073
vt 0.476295 0.257271
vt 0.465285 0.795372
vt 0.355851 0.870713
vt 0.464594 0.793963
vt 0.464149 0.791951
vt 0.464018 0.789641
vt 0.756807 0.000000
vt 0.824098 0.116189
vt 0.754994 0.000703
vt 0.752798 0.001087
vt 0.701902 0.126917
vt 0.750552 0.001093
vt 0.657336 0.487073
vt 0.655343 0.486173
vt 0.653445 0.484900
vt 0.532818 0.541833
vt 0.651931 0.483447
vt 0.481097 0.252981
vt 0.479890 0.254567
vt 0.264603 0.502261
vt 0.257753 0.497566
vt 0.262330 0.490540
vt 0.452226 0.516579
vt 0.452210 0.649543
vt 0.322538 0.649540
vt 0.765341 0.399936
vt 0.718218 0.375048
vt 0.742698 0.362318
vt 0.708669 0.432530
vt 0.736664 0.431945
vt 0.676667 0.381693
vt 0.695031 0.381852
vt 0.797857 0.816295
vt 0.792294 0.765143
vt 0.837812 0.804597
vt 0.749148 0.795182
vt 0.773170 0.781122
vt 0.738617 0.855337
vt 0.769676 0.841843
vt 0.701230 0.809601
vt 0.723886 0.805183
vt 0.082044 0.894191
vt 0.048761 0.843493
vt 0.075985 0.845813
vt 0.039522 0.899510
vt 0.022079 0.836533
vt 0.791333 0.655426
vt 0.824894 0.612655
vt 0.827062 0.671259
vt 0.777482 0.600721
vt 0.802707 0.609702
vt 0.725494 0.630662
vt 0.754026 0.658047
vt 0.696317 0.596355
vt 0.753059 0.587078
vt 0.833973 0.321872
vt 0.781001 0.327437
vt 0.788992 0.310597
vt 0.819969 0.364270
vt 0.764744 0.345599
vt 0.806605 0.388822
vt 0.678261 0.255324
vt 0.675059 0.256636
vt 0.676616 0.256179
vt 0.803610 0.749678
vt 0.700911 0.679912
vt 0.701671 0.678873
vt 0.699627 0.680985
vt 0.696317 0.682601
vt 0.698014 0.681929
vt 0.099606 0.843142
vt 0.070515 0.719626
vt 0.072101 0.719446
vt 0.068686 0.719470
vt 0.065411 0.718295
vt 0.066894 0.719003
vt 0.825368 0.485139
vt 0.827062 0.485742
vt 0.733156 0.570851
vt 0.823727 0.484223
vt 0.821561 0.482035
vt 0.822391 0.483133
vt 0.679741 0.254201
vt 0.680833 0.252981
vt 0.265411 0.519527
vt 0.259769 0.515661
vt 0.263539 0.509875
vt 0.922626 0.684367
vt 0.994665 0.758248
vt 0.922605 0.832133
vt 0.179696 0.861614
vt 0.176229 0.820254
vt 0.194525 0.831962
vt 0.132163 0.842011
vt 0.141901 0.865113
vt 0.118346 0.810132
vt 0.162344 0.807029
vt 0.938731 0.119204
vt 0.892925 0.104671
vt 0.908946 0.093484
vt 0.913257 0.142377
vt 0.873197 0.114018
vt 0.859976 0.157762
vt 0.886384 0.152429
vt 0.834738 0.121995
vt 0.852764 0.120102
vt 0.643166 0.861177
vt 0.670433 0.815386
vt 0.675314 0.863634
vt 0.627822 0.809877
vt 0.648987 0.814461
vt 0.574494 0.856283
vt 0.601374 0.811013
vt 0.601711 0.870820
vt 0.563442 0.805161
vt 0.583807 0.810334
vt 0.526517 0.828118
vt 0.547532 0.855784
vt 0.526673 0.785048
vt 0.543379 0.796282
vt 0.226992 0.881389
vt 0.247251 0.842866
vt 0.250333 0.894025
vt 0.214447 0.840371
vt 0.232962 0.844199
vt 0.201691 0.889663
vt 0.247751 0.725568
vt 0.246522 0.724782
vt 0.835959 0.000000
vt 0.918819 0.082159
vt 0.835295 0.000761
vt 0.834219 0.001512
vt 0.832894 0.002140
vt 0.666163 0.695691
vt 0.688893 0.812510
vt 0.664923 0.695884
vt 0.663482 0.695822
vt 0.610159 0.802331
vt 0.662061 0.695514
vt 0.601711 0.692122
vt 0.600343 0.691774
vt 0.598995 0.691178
vt 0.515866 0.773170
vt 0.597873 0.690423
vt 0.250333 0.726390
vt 0.249089 0.726133
vt 0.478886 0.473559
vt 0.474453 0.470521
vt 0.477415 0.465975
vt 0.789675 0.962977
vt 0.715553 0.962988
vt 0.715545 0.886994
vt 0.150403 0.660270
vt 0.178231 0.631166
vt 0.170485 0.683886
vt 0.276444 0.386899
vt 0.257753 0.360357
vt 0.263053 0.355524
vt 0.276942 0.343894
vt 0.257753 0.296272
vt 0.268072 0.298227
vt 0.910663 0.997703
vt 0.904348 0.942970
vt 0.932109 0.987934
vt 0.889569 1.000000
vt 0.892123 0.950166
vt 0.869073 0.998917
vt 0.877309 0.955816
vt 0.845236 0.998635
vt 0.862162 0.959059
vt 0.880390 0.402332
vt 0.885560 0.358450
vt 0.902427 0.393741
vt 0.855310 0.366433
vt 0.870818 0.363717
vt 0.841397 0.400390
vt 0.860664 0.419730
vt 0.896915 0.630690
vt 0.881666 0.595648
vt 0.896915 0.596212
vt 0.857352 0.625803
vt 0.875168 0.649228
vt 0.852567 0.586960
vt 0.866093 0.592399
vt 0.774130 0.232802
vt 0.763699 0.195795
vt 0.774130 0.195476
vt 0.257753 0.446780
vt 0.276728 0.419246
vt 0.276728 0.461523
vt 0.196406 0.668117
vt 0.193865 0.632213
vt 0.162969 0.627458
vt 0.194663 0.519022
vt 0.150403 0.621654
vt 0.193638 0.518773
vt 0.848591 0.845252
vt 0.912123 0.935322
vt 0.848069 0.845765
vt 0.847248 0.846249
vt 0.846253 0.846628
vt 0.845225 0.252981
vt 0.897290 0.351434
vt 0.844437 0.253453
vt 0.843447 0.253806
vt 0.841397 0.366184
vt 0.842405 0.253989
vt 0.896862 0.483113
vt 0.895838 0.483076
vt 0.894792 0.482857
vt 0.843146 0.580160
vt 0.893883 0.482492
vt 0.196628 0.518973
vt 0.207492 0.630438
vt 0.195713 0.519092
vt 0.489681 0.467171
vt 0.493484 0.466395
vt 0.494240 0.470295
vt 0.246561 0.296272
vt 0.245392 0.511955
vt 0.688893 0.484227
vt 0.694478 0.002379
vt 0.558954 0.240271
vt 0.550001 0.243255
vt 0.541048 0.240271
vt 0.535515 0.222806
vt 0.541048 0.214995
vt 0.550001 0.212012
vt 0.564487 0.222806
vt 0.742462 0.210587
vt 0.742462 0.224104
vt 0.734716 0.235039
vt 0.709648 0.235039
vt 0.701902 0.224104
vt 0.701902 0.210587
vt 0.722182 0.195476
vt 0.000000 0.204119
vt 0.009736 0.144356
vt 0.000000 0.084557
vt 0.048094 0.049339
vt 0.082426 0.000000
vt 0.140726 0.010015
vt 0.199002 0.000004
vt 0.281446 0.084583
vt 0.271705 0.144331
vt 0.281444 0.204140
vt 0.199004 0.288657
vt 0.140720 0.278687
vt 0.082429 0.288658
vt 0.000000 0.296272
vt 0.288870 0.474421
vt 0.022581 0.710681
vt 0.831522 0.232973
vt 0.610159 0.874751
vt 0.568245 0.204398
vt 0.201881 0.296272
vt 0.288870 0.258991
vt 0.049821 0.519717
vt 0.535515 0.004744
vt 0.265812 0.469137
vt 0.268283 0.470186
vt 0.270174 0.472126
vt 0.271197 0.474660
vt 0.271197 0.477403
vt 0.270174 0.479937
vt 0.268283 0.481876
vt 0.263138 0.482926
vt 0.260667 0.481876
vt 0.258776 0.479937
vt 0.257753 0.474660
vt 0.258776 0.472126
vt 0.260667 0.470186
vt 0.288870 0.173507
vt 0.297139 0.122690
vt 0.288870 0.071882
vt 0.329746 0.041935
vt 0.358929 0.000003
vt 0.408469 0.008471
vt 0.458017 0.000000
vt 0.528091 0.071880
vt 0.519809 0.122658
vt 0.528081 0.173476
vt 0.458026 0.245367
vt 0.408473 0.236862
vt 0.358936 0.245365
vt 0.474453 0.458361
vt 0.290998 0.691709
vt 0.719609 0.187861
vt 0.493303 0.599898
vt 0.474453 0.257979
vt 0.464222 0.787386
vt 0.748600 0.000721
vt 0.651031 0.482035
vt 0.264603 0.490540
vt 0.266703 0.491432
vt 0.268311 0.493081
vt 0.269181 0.495235
vt 0.269181 0.497566
vt 0.268311 0.499720
vt 0.266703 0.501369
vt 0.262330 0.502261
vt 0.260230 0.501369
vt 0.258623 0.499720
vt 0.257753 0.495235
vt 0.258623 0.493081
vt 0.260230 0.491432
vt 0.288881 0.624910
vt 0.295694 0.583066
vt 0.288870 0.541178
vt 0.322550 0.516563
vt 0.346589 0.482044
vt 0.387383 0.489011
vt 0.428188 0.482035
vt 0.485879 0.541197
vt 0.479076 0.583067
vt 0.485879 0.624899
vt 0.428182 0.684095
vt 0.387381 0.677106
vt 0.346579 0.684090
vt 0.675059 0.442547
vt 0.696317 0.859630
vt 0.000000 0.889470
vt 0.000000 0.825994
vt 0.720804 0.554509
vt 0.265411 0.509875
vt 0.267141 0.510610
vt 0.268464 0.511967
vt 0.269181 0.513741
vt 0.269181 0.515661
vt 0.268464 0.517435
vt 0.267141 0.518793
vt 0.263539 0.519527
vt 0.261810 0.518793
vt 0.260486 0.517435
vt 0.259769 0.513741
vt 0.260486 0.511967
vt 0.261810 0.510610
vt 0.890574 0.837635
vt 0.871671 0.810499
vt 0.845236 0.791140
vt 0.850563 0.758251
vt 0.845236 0.725383
vt 0.871684 0.706012
vt 0.890584 0.678889
vt 0.954675 0.678873
vt 0.973551 0.705997
vt 1.000000 0.725362
vt 0.999998 0.791118
vt 0.973576 0.810502
vt 0.954703 0.837638
vt 0.154984 0.794301
vt 0.831522 0.170816
vt 0.610159 0.867137
vt 0.493303 0.824081
vt 0.245589 0.723894
vt 0.831522 0.002548
vt 0.660874 0.695008
vt 0.597147 0.689626
vt 0.478886 0.465975
vt 0.480245 0.466552
vt 0.481285 0.467619
vt 0.481848 0.469013
vt 0.481848 0.470521
vt 0.481285 0.471915
vt 0.480245 0.472982
vt 0.477415 0.473559
vt 0.476056 0.472982
vt 0.475016 0.471915
vt 0.474453 0.469013
vt 0.475016 0.467619
vt 0.476056 0.466552
vt 0.729325 0.867244
vt 0.752616 0.871245
vt 0.775951 0.867244
vt 0.789685 0.886976
vt 0.808888 0.901074
vt 0.805032 0.924974
vt 0.808891 0.948899
vt 0.775951 0.982705
vt 0.752625 0.978718
vt 0.729306 0.982712
vt 0.696317 0.948902
vt 0.700213 0.924987
vt 0.696356 0.901062
vt 0.257753 0.406731
vt 0.257753 0.347910
vt 0.848988 0.959401
vt 0.834486 0.619907
vt 0.749886 0.236102
vt 0.270363 0.414345
vt 0.192794 0.518383
vt 0.845236 0.846846
vt 0.841471 0.253972
vt 0.893250 0.482035
vt 0.493484 0.471071
vt 0.492496 0.471491
vt 0.491426 0.471491
vt 0.490437 0.471071
vt 0.489681 0.470295
vt 0.489272 0.469281
vt 0.489272 0.468184
vt 0.490437 0.466395
vt 0.491426 0.465975
vt 0.492496 0.465975
vt 0.494240 0.467171
vt 0.494650 0.468184
vt 0.494650 0.469281
s 1
usemtl MMO_oak
f 2/1/1 3/2/2 1/3/3
f 4/4/4 5/5/5 3/6/2
f 6/7/6 7/8/7 5/5/5
f 8/9/8 9/10/9 7/8/7
f 10/11/10 11/12/11 9/13/9
f 12/14/12 13/15/13 11/12/11
f 14/16/14 15/17/15 13/18/13
f 16/19/16 17/20/17 15/17/15
s 0
f 18/21/18 10/22/18 6/23/18
s 1
f 18/24/19 19/25/20 17/26/17
f 20/27/21 1/3/3 19/25/20
s 0
f 7/28/22 15/29/22 19/30/22
s 1
f 2/1/1 4/354/4 3/2/2
f 4/4/4 6/7/6 5/5/5
f 6/7/6 8/9/8 7/8/7
f 8/9/8 10/355/10 9/10/9
f 10/11/10 12/14/12 11/12/11
f 12/14/12 14/356/14 13/15/13
f 14/16/14 16/19/16 15/17/15
f 16/19/16 18/357/19 17/20/17
s 0
f 6/23/18 4/358/18 2/359/18
f 2/359/18 20/360/18 18/21/18
f 18/21/18 16/361/18 14/362/18
f 14/362/18 12/363/18 10/22/18
f 10/22/18 8/364/18 6/23/18
f 6/23/18 2/359/18 18/21/18
f 18/21/18 14/362/18 10/22/18
s 1
f 18/24/19 20/27/21 19/25/20
f 20/27/21 2/1/1 1/3/3
s 0
f 19/30/22 1/365/22 3/366/22
f 3/366/22 5/367/22 7/28/22
f 7/28/22 9/368/22 11/369/22
f 11/369/22 13/370/22 15/29/22
f 15/29/22 17/371/22 19/30/22
f 19/30/22 3/366/22 7/28/22
f 7/28/22 11/369/22 15/29/22
usemtl MMO_pine
f 29/31/23 25/32/23 21/33/23
f 21/34/24 38/35/24 37/36/24
f 23/37/25 38/35/25 22/38/25
f 25/41/28 42/44/28 41/45/28
f 27/46/30 44/48/30 43/49/30
f 29/50/31 44/51/31 28/52/31
f 29/50/32 46/53/32 45/54/32
f 31/55/33 46/56/33 30/57/33
f 31/58/34 48/59/34 47/60/34
f 33/61/36 50/64/36 49/65/36
f 35/66/37 50/67/37 34/68/37
f 21/34/39 52/69/39 36/71/39
f 38/35/40 53/72/40 37/36/40
f 39/40/41 54/73/41 38/35/41
f 40/42/42 55/74/42 39/75/42
f 43/49/45 58/78/45 42/44/45
f 44/51/46 59/79/46 43/80/46
f 46/53/48 61/82/48 45/54/48
f 47/83/49 62/84/49 46/53/49
f 48/62/50 63/85/50 47/86/50
f 49/65/51 64/87/51 48/62/51
f 50/64/52 65/88/52 49/65/52
f 52/69/54 67/91/54 51/70/54
f 37/36/55 68/92/55 52/69/55
f 69/99/57 86/100/57 85/101/57
f 71/102/58 86/100/58 70/103/58
f 71/102/59 88/104/59 87/105/59
f 73/106/60 88/107/60 72/108/60
f 77/115/64 92/116/64 76/117/64
f 77/115/65 94/118/65 93/119/65
f 79/120/66 94/121/66 78/122/66
f 81/125/68 96/123/68 80/126/68
f 83/129/71 100/132/71 99/133/71
f 69/99/72 100/132/72 84/134/72
f 86/100/73 101/135/73 85/101/73
f 87/105/74 102/136/74 86/100/74
f 88/107/75 103/137/75 87/138/75
f 89/110/76 104/139/76 88/107/76
f 90/109/77 105/140/77 89/110/77
f 91/114/78 106/141/78 90/109/78
f 93/119/80 108/144/80 92/116/80
f 94/118/81 109/145/81 93/119/81
f 96/123/83 111/148/83 95/124/83
f 97/128/84 112/149/84 96/123/84
f 85/101/88 116/154/88 100/132/88
f 108/155/18 112/156/18 116/157/18
f 125/158/89 121/159/89 117/160/89
f 117/161/90 134/162/90 133/163/90
f 119/164/91 134/162/91 118/165/91
f 119/164/92 136/166/92 135/167/92
f 121/168/93 136/169/93 120/170/93
f 123/173/95 138/171/95 122/174/95
f 123/173/96 140/175/96 139/176/96
f 124/177/97 141/178/97 140/179/97
f 125/180/98 142/181/98 141/178/98
f 127/182/99 142/183/99 126/184/99
f 127/182/100 144/185/100 143/186/100
f 129/187/101 144/185/101 128/188/101
f 130/189/102 145/190/102 129/187/102
f 130/191/103 147/192/103 146/193/103
f 131/194/104 148/195/104 147/192/104
f 117/161/105 148/195/105 132/196/105
f 134/162/107 151/198/107 150/199/107
f 135/200/108 152/201/108 151/202/108
f 137/172/109 152/201/109 136/169/109
f 138/171/110 153/203/110 137/172/110
f 138/171/111 155/204/111 154/205/111
f 139/206/112 156/207/112 155/208/112
f 141/178/113 156/207/113 140/179/113
f 142/181/114 157/209/114 141/178/114
f 143/186/116 160/212/116 159/213/116
f 145/190/117 160/212/117 144/185/117
f 146/214/118 161/215/118 145/190/118
f 146/214/119 163/216/119 162/217/119
f 147/192/120 164/218/120 163/219/120
f 133/163/121 164/218/121 148/195/121
f 156/220/18 160/221/18 164/222/18
f 173/223/122 169/224/122 165/225/122
f 165/226/123 182/227/123 181/228/123
f 167/229/124 182/227/124 166/230/124
f 168/231/125 183/232/125 167/229/125
f 168/233/126 185/234/126 184/235/126
f 169/236/127 186/237/127 185/234/127
f 171/238/129 188/240/129 187/241/129
f 173/242/131 190/245/131 189/246/131
f 175/247/133 192/250/133 191/251/133
f 177/252/134 192/250/134 176/253/134
f 177/252/135 194/254/135 193/255/135
f 179/256/136 194/257/136 178/258/136
f 179/256/137 196/259/137 195/260/137
f 165/226/138 196/259/138 180/261/138
f 182/227/139 197/262/139 181/228/139
f 183/232/140 198/263/140 182/227/140
f 184/235/141 199/264/141 183/265/141
f 186/237/143 201/267/143 185/234/143
f 188/243/145 203/269/145 187/270/145
f 189/246/146 204/271/146 188/243/146
f 190/245/147 205/272/147 189/246/147
f 191/273/148 206/274/148 190/245/148
f 193/255/150 208/276/150 192/250/150
f 194/254/151 209/277/151 193/255/151
f 196/259/153 211/280/153 195/260/153
f 181/228/154 212/281/154 196/259/154
f 204/282/18 208/283/18 212/284/18
f 221/285/155 217/286/155 213/287/155
f 214/288/156 229/289/156 213/290/156
f 214/291/157 231/292/157 230/293/157
f 215/294/158 232/295/158 231/296/158
f 217/297/159 232/298/159 216/299/159
f 218/300/160 233/301/160 217/297/160
f 219/302/161 234/303/161 218/300/161
f 220/304/162 235/305/162 219/302/162
f 221/306/163 236/307/163 220/308/163
f 221/306/164 238/309/164 237/310/164
f 223/311/165 238/309/165 222/312/165
f 223/313/166 240/314/166 239/315/166
f 225/316/167 240/314/167 224/317/167
f 225/316/168 242/318/168 241/319/168
f 226/320/169 243/321/169 242/322/169
f 228/323/170 243/324/170 227/325/170
f 230/328/172 245/329/172 229/289/172
f 231/330/173 246/331/173 230/328/173
f 232/298/174 247/332/174 231/333/174
f 233/301/175 248/334/175 232/298/175
f 234/303/176 249/335/176 233/301/176
f 236/307/178 251/337/178 235/338/178
f 238/309/180 253/340/180 237/310/180
f 239/341/181 254/342/181 238/309/181
f 240/314/182 255/343/182 239/315/182
f 242/318/184 257/345/184 241/319/184
f 244/327/186 259/348/186 243/349/186
f 229/289/187 260/350/187 244/327/187
f 252/351/18 256/352/18 260/353/18
f 21/33/188 36/372/188 35/373/188
f 35/373/189 34/374/189 33/375/189
f 33/375/190 32/376/190 31/377/190
f 31/377/191 30/378/191 29/31/191
f 29/31/192 28/379/192 27/380/192
f 27/380/193 26/381/193 25/32/193
f 25/32/194 24/382/194 23/383/194
f 23/383/195 22/384/195 21/33/195
f 21/33/196 35/373/196 33/375/196
f 33/375/197 31/377/197 29/31/197
f 29/31/198 27/380/198 25/32/198
f 25/32/199 23/383/199 21/33/199
f 21/33/200 33/375/200 29/31/200
f 21/34/201 22/38/201 38/35/201
f 23/37/202 39/40/202 38/35/202
f 25/41/205 26/47/205 42/44/205
f 27/46/207 28/386/207 44/48/207
f 29/50/208 45/54/208 44/51/208
f 29/50/209 30/387/209 46/53/209
f 31/55/210 47/388/210 46/56/210
f 31/58/211 32/389/211 48/59/211
f 33/61/213 34/390/213 50/64/213
f 35/66/214 51/70/214 50/67/214
f 21/34/216 37/36/216 52/69/216
f 38/35/40 54/73/40 53/72/40
f 39/40/41 55/391/41 54/73/41
f 40/42/42 56/76/42 55/74/42
f 43/49/45 59/392/45 58/78/45
f 44/51/46 60/81/46 59/79/46
f 46/53/48 62/84/48 61/82/48
f 47/83/49 63/393/49 62/84/49
f 48/62/50 64/87/50 63/85/50
f 49/65/51 65/88/51 64/87/51
f 50/64/52 66/90/52 65/88/52
f 52/69/54 68/92/54 67/91/54
f 37/36/55 53/72/55 68/92/55
f 69/99/230 70/103/230 86/100/230
f 71/102/231 87/105/231 86/100/231
f 71/102/232 72/421/232 88/104/232
f 73/106/233 89/110/233 88/107/233
f 77/115/237 93/119/237 92/116/237
f 77/115/238 78/423/238 94/118/238
f 79/120/239 95/124/239 94/121/239
f 81/125/241 97/128/241 96/123/241
f 83/129/244 84/134/244 100/132/244
f 69/99/245 85/101/245 100/132/245
f 86/100/73 102/136/73 101/135/73
f 87/105/246 103/425/246 102/136/246
f 88/107/75 104/139/75 103/137/75
f 89/110/76 105/140/76 104/139/76
f 90/109/77 106/141/77 105/140/77
f 91/114/78 107/426/78 106/141/78
f 93/119/80 109/145/80 108/144/80
f 94/118/81 110/147/81 109/145/81
f 96/123/83 112/149/83 111/148/83
f 97/128/84 113/150/84 112/149/84
f 85/101/88 101/135/88 116/154/88
f 116/157/18 101/429/18 102/430/18
f 102/430/18 103/431/18 104/432/18
f 104/432/18 105/433/18 106/434/18
f 106/434/18 107/435/18 108/155/18
f 108/155/18 109/436/18 110/437/18
f 110/437/18 111/438/18 112/156/18
f 112/156/18 113/439/18 114/440/18
f 114/440/18 115/441/18 116/157/18
f 116/157/18 102/430/18 104/432/18
f 104/432/18 106/434/18 108/155/18
f 108/155/18 110/437/18 112/156/18
f 112/156/18 114/440/18 116/157/18
f 116/157/18 104/432/18 108/155/18
f 117/160/248 132/442/248 131/443/248
f 131/443/249 130/444/249 129/445/249
f 129/445/250 128/446/250 127/447/250
f 127/447/251 126/448/251 125/158/251
f 125/158/252 124/449/252 123/450/252
f 123/450/253 122/451/253 121/159/253
f 121/159/254 120/452/254 119/453/254
f 119/453/255 118/454/255 117/160/255
f 117/160/256 131/443/256 129/445/256
f 129/445/257 127/447/257 125/158/257
f 125/158/258 123/450/258 121/159/258
f 121/159/259 119/453/259 117/160/259
f 117/160/260 129/445/260 125/158/260
f 117/161/261 118/165/261 134/162/261
f 119/164/262 135/167/262 134/162/262
f 119/164/263 120/455/263 136/166/263
f 121/168/264 137/172/264 136/169/264
f 123/173/266 139/176/266 138/171/266
f 123/173/267 124/456/267 140/175/267
f 124/177/268 125/180/268 141/178/268
f 125/180/269 126/457/269 142/181/269
f 127/182/270 143/186/270 142/183/270
f 127/182/271 128/188/271 144/185/271
f 129/187/272 145/190/272 144/185/272
f 130/189/273 146/214/273 145/190/273
f 130/191/274 131/194/274 147/192/274
f 131/194/275 132/196/275 148/195/275
f 117/161/276 133/163/276 148/195/276
f 134/162/107 135/167/107 151/198/107
f 135/200/108 136/169/108 152/201/108
f 137/172/109 153/203/109 152/201/109
f 138/171/110 154/205/110 153/203/110
f 138/171/111 139/176/111 155/204/111
f 139/206/112 140/179/112 156/207/112
f 141/178/113 157/209/113 156/207/113
f 142/181/114 158/211/114 157/209/114
f 143/186/116 144/185/116 160/212/116
f 145/190/117 161/215/117 160/212/117
f 146/214/118 162/217/118 161/215/118
f 146/214/119 147/459/119 163/216/119
f 147/192/120 148/195/120 164/218/120
f 133/163/121 149/197/121 164/218/121
f 164/222/18 149/460/18 150/461/18
f 150/461/277 151/462/277 152/463/277
f 152/463/18 153/464/18 154/465/18
f 154/465/278 155/466/278 156/220/278
f 156/220/18 157/467/18 158/468/18
f 158/468/278 159/469/278 160/221/278
f 160/221/18 161/470/18 162/471/18
f 162/471/277 163/472/277 164/222/277
f 164/222/18 150/461/18 152/463/18
f 152/463/18 154/465/18 156/220/18
f 156/220/18 158/468/18 160/221/18
f 160/221/18 162/471/18 164/222/18
f 164/222/18 152/463/18 156/220/18
f 165/225/279 180/473/279 179/474/279
f 179/474/280 178/475/280 177/476/280
f 177/476/281 176/477/281 175/478/281
f 175/478/282 174/479/282 173/223/282
f 173/223/283 172/480/283 171/481/283
f 171/481/284 170/482/284 169/224/284
f 169/224/285 168/483/285 167/484/285
f 167/484/286 166/485/286 165/225/286
f 165/225/287 179/474/287 177/476/287
f 177/476/288 175/478/288 173/223/288
f 173/223/289 171/481/289 169/224/289
f 169/224/290 167/484/290 165/225/290
f 165/225/291 177/476/291 173/223/291
f 165/226/292 166/230/292 182/227/292
f 167/229/293 183/232/293 182/227/293
f 168/231/294 184/486/294 183/232/294
f 168/233/295 169/236/295 185/234/295
f 169/236/296 170/239/296 186/237/296
f 171/238/298 172/487/298 188/240/298
f 173/242/300 174/488/300 190/245/300
f 175/247/302 176/253/302 192/250/302
f 177/252/303 193/255/303 192/250/303
f 177/252/304 178/489/304 194/254/304
f 179/256/305 195/260/305 194/257/305
f 179/256/306 180/261/306 196/259/306
f 165/226/307 181/228/307 196/259/307
f 182/227/139 198/263/139 197/262/139
f 183/232/140 199/490/140 198/263/140
f 184/235/141 200/266/141 199/264/141
f 186/237/143 202/268/143 201/267/143
f 188/243/145 204/271/145 203/269/145
f 189/246/146 205/272/146 204/271/146
f 190/245/147 206/274/147 205/272/147
f 191/273/148 207/492/148 206/274/148
f 193/255/150 209/277/150 208/276/150
f 194/254/151 210/279/151 209/277/151
f 196/259/153 212/281/153 211/280/153
f 181/228/154 197/262/154 212/281/154
f 212/284/18 197/494/18 198/495/18
f 198/495/278 199/496/278 200/497/278
f 200/497/18 201/498/18 202/499/18
f 202/499/277 203/500/277 204/282/277
f 204/282/18 205/501/18 206/502/18
f 206/502/277 207/503/277 208/283/277
f 208/283/18 209/504/18 210/505/18
f 210/505/278 211/506/278 212/284/278
f 212/284/18 198/495/18 200/497/18
f 200/497/18 202/499/18 204/282/18
f 204/282/18 206/502/18 208/283/18
f 208/283/18 210/505/18 212/284/18
f 212/284/18 200/497/18 204/282/18
f 213/287/308 228/507/308 227/508/308
f 227/508/309 226/509/309 225/510/309
f 225/510/310 224/511/310 223/512/310
f 223/512/311 222/513/311 221/285/311
f 221/285/312 220/514/312 219/515/312
f 219/515/313 218/516/313 217/286/313
f 217/286/314 216/517/314 215/518/314
f 215/518/315 214/519/315 213/287/315
f 213/287/316 227/508/316 225/510/316
f 225/510/317 223/512/317 221/285/317
f 221/285/318 219/515/318 217/286/318
f 217/286/319 215/518/319 213/287/319
f 213/287/320 225/510/320 221/285/320
f 214/288/321 230/328/321 229/289/321
f 214/291/322 215/520/322 231/292/322
f 215/294/323 216/521/323 232/295/323
f 217/297/324 233/301/324 232/298/324
f 218/300/325 234/303/325 233/301/325
f 219/302/326 235/305/326 234/303/326
f 220/304/327 236/522/327 235/305/327
f 221/306/328 237/310/328 236/307/328
f 221/306/329 222/312/329 238/309/329
f 223/311/330 239/341/330 238/309/330
f 223/313/331 224/317/331 240/314/331
f 225/316/332 241/319/332 240/314/332
f 225/316/333 226/523/333 242/318/333
f 226/320/334 227/524/334 243/321/334
f 228/323/335 244/525/335 243/324/335
f 230/328/172 246/331/172 245/329/172
f 231/330/173 247/526/173 246/331/173
f 232/298/337 248/334/337 247/332/337
f 233/301/175 249/335/175 248/334/175
f 234/303/176 250/336/176 249/335/176
f 236/307/178 252/339/178 251/337/178
f 238/309/180 254/342/180 253/340/180
f 239/341/181 255/528/181 254/342/181
f 240/314/339 256/344/339 255/343/339
f 242/318/184 258/347/184 257/345/184
f 244/327/186 260/350/186 259/348/186
f 229/289/187 245/329/187 260/350/187
f 260/353/18 245/530/18 246/531/18
f 246/531/341 247/532/341 248/533/341
f 248/533/18 249/534/18 250/535/18
f 250/535/342 251/536/342 252/351/342
f 252/351/18 253/537/18 254/538/18
f 254/538/342 255/539/342 256/352/342
f 256/352/18 257/540/18 258/541/18
f 258/541/341 259/542/341 260/353/341
f 260/353/18 246/531/18 248/533/18
f 248/533/18 250/535/18 252/351/18
f 252/351/18 254/538/18 256/352/18
f 256/352/18 258/541/18 260/353/18
f 260/353/18 248/533/18 252/351/18
usemtl MMO_pine_light
f 23/37/26 40/39/26 39/40/26
f 25/41/27 40/42/27 24/43/27
f 27/46/29 42/44/29 26/47/29
f 33/61/35 48/62/35 32/63/35
f 35/66/38 52/69/38 51/70/38
f 41/45/43 56/76/43 40/42/43
f 42/44/44 57/77/44 41/45/44
f 45/54/47 60/81/47 44/51/47
f 51/89/53 66/90/53 50/64/53
f 60/93/18 64/94/18 68/95/18
f 77/96/56 73/97/56 69/98/56
f 73/106/61 90/109/61 89/110/61
f 75/111/62 90/109/62 74/112/62
f 75/111/63 92/113/63 91/114/63
f 79/120/67 96/123/67 95/124/67
f 81/125/69 98/127/69 97/128/69
f 83/129/70 98/130/70 82/131/70
f 92/116/79 107/142/79 91/143/79
f 95/146/82 110/147/82 94/118/82
f 98/127/85 113/150/85 97/128/85
f 99/151/86 114/152/86 98/127/86
f 100/132/87 115/153/87 99/133/87
f 121/168/94 138/171/94 137/172/94
f 134/162/106 149/197/106 133/163/106
f 142/181/115 159/210/115 158/211/115
f 171/238/128 186/237/128 170/239/128
f 173/242/130 188/243/130 172/244/130
f 175/247/132 190/248/132 174/249/132
f 185/234/142 200/266/142 184/235/142
f 187/241/144 202/268/144 186/237/144
f 192/250/149 207/275/149 191/251/149
f 195/278/152 210/279/152 194/254/152
f 228/326/171 229/289/171 244/327/171
f 235/305/177 250/336/177 234/303/177
f 237/310/179 252/339/179 236/307/179
f 241/319/183 256/344/183 240/314/183
f 243/346/185 258/347/185 242/318/185
f 23/37/203 24/385/203 40/39/203
f 25/41/204 41/45/204 40/42/204
f 27/46/206 43/49/206 42/44/206
f 33/61/212 49/65/212 48/62/212
f 35/66/215 36/71/215 52/69/215
f 41/45/43 57/77/43 56/76/43
f 42/44/44 58/78/44 57/77/44
f 45/54/47 61/82/47 60/81/47
f 51/89/53 67/394/53 66/90/53
f 68/95/18 53/395/18 54/396/18
f 54/396/18 55/397/18 56/398/18
f 56/398/18 57/399/18 58/400/18
f 58/400/18 59/401/18 60/93/18
f 60/93/18 61/402/18 62/403/18
f 62/403/18 63/404/18 64/94/18
f 64/94/18 65/405/18 66/406/18
f 66/406/18 67/407/18 68/95/18
f 68/95/18 54/396/18 56/398/18
f 56/398/18 58/400/18 60/93/18
f 60/93/18 62/403/18 64/94/18
f 64/94/18 66/406/18 68/95/18
f 68/95/18 56/398/18 60/93/18
f 69/98/217 84/408/217 83/409/217
f 83/409/218 82/410/218 81/411/218
f 81/411/219 80/412/219 79/413/219
f 79/413/220 78/414/220 77/96/220
f 77/96/221 76/415/221 75/416/221
f 75/416/222 74/417/222 73/97/222
f 73/97/223 72/418/223 71/419/223
f 71/419/224 70/420/224 69/98/224
f 69/98/225 83/409/225 81/411/225
f 81/411/226 79/413/226 77/96/226
f 77/96/227 75/416/227 73/97/227
f 73/97/228 71/419/228 69/98/228
f 69/98/229 81/411/229 77/96/229
f 73/106/234 74/112/234 90/109/234
f 75/111/235 91/114/235 90/109/235
f 75/111/236 76/422/236 92/113/236
f 79/120/240 80/126/240 96/123/240
f 81/125/242 82/424/242 98/127/242
f 83/129/243 99/133/243 98/130/243
f 92/116/79 108/144/79 107/142/79
f 95/146/247 111/427/247 110/147/247
f 98/127/85 114/152/85 113/150/85
f 99/151/86 115/428/86 114/152/86
f 100/132/87 116/154/87 115/153/87
f 121/168/265 122/174/265 138/171/265
f 134/162/106 150/199/106 149/197/106
f 142/181/115 143/458/115 159/210/115
f 171/238/297 187/241/297 186/237/297
f 173/242/299 189/246/299 188/243/299
f 175/247/301 191/251/301 190/248/301
f 185/234/142 201/267/142 200/266/142
f 187/241/144 203/491/144 202/268/144
f 192/250/149 208/276/149 207/275/149
f 195/278/152 211/493/152 210/279/152
f 228/326/336 213/290/336 229/289/336
f 235/305/338 251/527/338 250/336/338
f 237/310/179 253/340/179 252/339/179
f 241/319/183 257/345/183 256/344/183
f 243/346/340 259/529/340 258/347/340
