# Blender 5.2.0 LTS
# www.blender.org
mtllib Plane.mtl
g Plane_Cube.002
v 0.496000 0.000000 -0.496000
v 0.496000 0.004000 -0.500000
v 0.500000 0.004000 -0.496000
v 0.496000 0.001172 -0.498828
v 0.498309 0.001691 -0.498309
v 0.498828 0.004000 -0.498828
v 0.498828 0.001172 -0.496000
v 0.496000 0.031000 -0.500000
v 0.496000 0.035000 -0.496000
v 0.500000 0.031000 -0.496000
v 0.496000 0.033828 -0.498828
v 0.498309 0.033309 -0.498309
v 0.498828 0.033828 -0.496000
v 0.498828 0.031000 -0.498828
v 0.496000 0.000000 0.496000
v 0.500000 0.004000 0.496000
v 0.496000 0.004000 0.500000
v 0.498828 0.001172 0.496000
v 0.498309 0.001691 0.498309
v 0.498828 0.004000 0.498828
v 0.496000 0.001172 0.498828
v 0.496000 0.035000 0.496000
v 0.496000 0.031000 0.500000
v 0.500000 0.031000 0.496000
v 0.496000 0.033828 0.498828
v 0.498309 0.033309 0.498309
v 0.498828 0.031000 0.498828
v 0.498828 0.033828 0.496000
v -0.496000 0.000000 -0.496000
v -0.500000 0.004000 -0.496000
v -0.496000 0.004000 -0.500000
v -0.498828 0.001172 -0.496000
v -0.498309 0.001691 -0.498309
v -0.498828 0.004000 -0.498828
v -0.496000 0.001172 -0.498828
v -0.496000 0.035000 -0.496000
v -0.496000 0.031000 -0.500000
v -0.500000 0.031000 -0.496000
v -0.496000 0.033828 -0.498828
v -0.498309 0.033309 -0.498309
v -0.498828 0.031000 -0.498828
v -0.498828 0.033828 -0.496000
v -0.496000 0.000000 0.496000
v -0.496000 0.004000 0.500000
v -0.500000 0.004000 0.496000
v -0.496000 0.001172 0.498828
v -0.498309 0.001691 0.498309
v -0.498828 0.004000 0.498828
v -0.498828 0.001172 0.496000
v -0.496000 0.035000 0.496000
v -0.500000 0.031000 0.496000
v -0.496000 0.031000 0.500000
v -0.498828 0.033828 0.496000
v -0.498309 0.033309 0.498309
v -0.498828 0.031000 0.498828
v -0.496000 0.033828 0.498828
vn 0.3672 -0.8865 -0.2817
vn 0.2817 -0.3672 -0.8864
vn 0.8865 -0.2817 -0.3672
vn 0.3672 0.2818 -0.8864
vn 0.2817 0.8864 -0.3672
vn 0.8864 0.3672 -0.2818
vn 0.2817 -0.8864 0.3672
vn 0.8864 -0.3672 0.2818
vn 0.3672 -0.2818 0.8864
vn 0.3672 0.8865 0.2817
vn 0.2817 0.3672 0.8864
vn 0.8865 0.2817 0.3672
vn -0.2817 -0.8864 -0.3672
vn -0.8864 -0.3672 -0.2818
vn -0.3672 -0.2818 -0.8864
vn -0.3672 0.8865 -0.2817
vn -0.2817 0.3672 -0.8864
vn -0.8865 0.2817 -0.3672
vn -0.3672 -0.8865 0.2817
vn -0.2817 -0.3672 0.8864
vn -0.8865 -0.2817 0.3672
vn -0.2817 0.8864 0.3672
vn -0.8864 0.3672 0.2818
vn -0.3672 0.2818 0.8864
vn 0.3827 -0.9239 -0.0000
vn 0.9239 -0.3827 -0.0000
vn 0.3827 -0.0000 -0.9239
vn 0.9239 -0.0000 -0.3827
vn 0.3827 0.9239 -0.0000
vn 0.9239 0.3827 -0.0000
vn 0.3827 -0.0000 0.9239
vn 0.9239 -0.0000 0.3827
vn -0.0000 -0.9239 0.3827
vn -0.0000 -0.3827 0.9239
vn -0.0000 0.9239 0.3827
vn -0.0000 0.3827 0.9239
vn -0.9239 -0.0000 0.3827
vn -0.3827 -0.0000 0.9239
vn -0.3827 -0.9239 -0.0000
vn -0.9239 -0.3827 -0.0000
vn -0.3827 0.9239 -0.0000
vn -0.9239 0.3827 -0.0000
vn -0.3827 -0.0000 -0.9239
vn -0.9239 -0.0000 -0.3827
vn -0.0000 -0.9239 -0.3827
vn -0.0000 -0.3827 -0.9239
vn -0.0000 0.9239 -0.3827
vn -0.0000 0.3827 -0.9239
vn -0.0000 -1.0000 -0.0000
vn 1.0000 -0.0000 -0.0000
vn -0.0000 -0.0000 -1.0000
vn -0.0000 1.0000 -0.0000
vn -0.0000 -0.0000 1.0000
vn -1.0000 -0.0000 -0.0000
vn 0.2817 -0.8864 -0.3672
vn 0.3672 -0.2818 -0.8864
vn 0.8864 -0.3672 -0.2818
vn 0.2817 0.3672 -0.8864
vn 0.3672 0.8865 -0.2817
vn 0.8865 0.2817 -0.3672
vn 0.3672 -0.8865 0.2817
vn 0.8865 -0.2817 0.3672
vn 0.2817 -0.3672 0.8864
vn 0.2817 0.8864 0.3672
vn 0.3672 0.2818 0.8864
vn 0.8864 0.3672 0.2818
vn -0.3672 -0.8865 -0.2817
vn -0.8865 -0.2817 -0.3672
vn -0.2817 -0.3672 -0.8864
vn -0.2817 0.8864 -0.3672
vn -0.3672 0.2818 -0.8864
vn -0.8864 0.3672 -0.2818
vn -0.2817 -0.8864 0.3672
vn -0.3672 -0.2818 0.8864
vn -0.8864 -0.3672 0.2818
vn -0.3672 0.8865 0.2817
vn -0.8865 0.2817 0.3672
vn -0.2817 0.3672 0.8864
vt 0.126000 0.749000
vt 0.125423 0.750000
vt 0.125000 0.749000
vt 0.403571 0.999000
vt 0.387076 1.000000
vt 0.375000 0.999000
vt 0.403571 0.001000
vt 0.375000 0.000423
vt 0.403571 0.000000
vt 0.596429 0.999000
vt 0.625000 0.999577
vt 0.596429 1.000000
vt 0.874000 0.749000
vt 0.875000 0.749577
vt 0.874000 0.750000
vt 0.596429 0.001000
vt 0.612924 0.000000
vt 0.625000 0.001000
vt 0.126000 0.501000
vt 0.125000 0.500423
vt 0.126000 0.500000
vt 0.403571 0.249000
vt 0.381038 0.250211
vt 0.375000 0.249000
vt 0.403571 0.251000
vt 0.403571 0.250000
vt 0.874000 0.501000
vt 0.874577 0.500000
vt 0.875000 0.501000
vt 0.596429 0.251000
vt 0.618962 0.249789
vt 0.625000 0.251000
vt 0.596429 0.249000
vt 0.596429 0.250000
vt 0.374000 0.749000
vt 0.379025 0.750000
vt 0.374500 0.750500
vt 0.403571 0.749000
vt 0.375000 0.749000
vt 0.403571 0.751000
vt 0.403571 0.750000
vt 0.626000 0.749000
vt 0.621116 0.749859
vt 0.625000 0.749000
vt 0.596429 0.751000
vt 0.625500 0.750500
vt 0.596429 0.749000
vt 0.596429 0.750000
vt 0.374000 0.501000
vt 0.378884 0.500141
vt 0.375000 0.501000
vt 0.403571 0.499000
vt 0.374500 0.499500
vt 0.403571 0.501000
vt 0.403571 0.500000
vt 0.626000 0.501000
vt 0.620975 0.500000
vt 0.625500 0.499500
vt 0.596429 0.501000
vt 0.625000 0.501000
vt 0.596429 0.499000
vt 0.596429 0.500000
vt 0.125000 0.501000
vt 0.375000 0.001000
vt 0.403571 1.000000
vt 0.875000 0.749000
vt 0.625000 0.249000
vt 0.375000 0.251000
vt 0.874000 0.500000
vt 0.126000 0.750000
vt 0.625000 0.999000
vt 0.596429 0.000000
s 0
g Plane_M_stone
usemtl M_stone
f 1/1/1 5/2/1 7/3/1
f 2/4/2 5/5/2 4/6/2
f 3/7/3 5/8/3 6/9/3
f 8/10/4 12/11/4 14/12/4
f 9/13/5 12/14/5 11/15/5
f 10/16/6 12/17/6 13/18/6
f 15/19/7 19/20/7 21/21/7
f 16/22/8 19/23/8 18/24/8
f 17/25/9 19/23/9 20/26/9
f 22/27/10 26/28/10 28/29/10
f 23/30/11 26/31/11 25/32/11
f 24/33/12 26/31/12 27/34/12
f 29/35/13 33/36/13 35/37/13
f 30/38/14 33/36/14 32/39/14
f 31/40/15 33/36/15 34/41/15
f 36/42/16 40/43/16 42/44/16
f 37/45/17 40/43/17 39/46/17
f 38/47/18 40/43/18 41/48/18
f 43/49/19 47/50/19 49/51/19
f 44/52/20 47/50/20 46/53/20
f 45/54/21 47/50/21 48/55/21
f 50/56/22 54/57/22 56/58/22
f 51/59/23 54/57/23 53/60/23
f 52/61/24 54/57/24 55/62/24
f 1/1/25 18/63/25 15/19/25
f 7/64/26 16/22/26 18/24/26
f 8/10/27 6/65/27 2/4/27
f 6/9/28 10/16/28 3/7/28
f 22/27/29 13/66/29 9/13/29
f 28/67/30 10/16/30 13/18/30
f 17/25/31 27/34/31 23/30/31
f 27/34/32 16/22/32 24/33/32
f 15/19/33 46/53/33 43/49/33
f 21/68/34 44/52/34 46/53/34
f 50/56/35 25/69/35 22/27/35
f 56/58/36 23/30/36 25/32/36
f 45/54/37 55/62/37 51/59/37
f 55/62/38 44/52/38 52/61/38
f 43/49/39 32/39/39 29/35/39
f 49/51/40 30/38/40 32/39/40
f 36/42/41 53/60/41 50/56/41
f 42/44/42 51/59/42 53/60/42
f 31/40/43 41/48/43 37/45/43
f 41/48/44 30/38/44 38/47/44
f 29/35/45 4/70/45 1/1/45
f 35/37/46 2/4/46 4/6/46
f 9/13/47 39/46/47 36/42/47
f 11/71/48 37/45/48 39/46/48
f 43/49/49 1/1/49 15/19/49
f 10/16/50 16/22/50 3/7/50
f 37/45/51 2/4/51 31/40/51
f 22/27/52 36/42/52 50/56/52
f 23/30/53 44/52/53 17/25/53
f 51/59/54 30/38/54 45/54/54
f 1/1/55 4/70/55 5/2/55
f 2/4/56 6/65/56 5/5/56
f 3/7/57 7/64/57 5/8/57
f 8/10/58 11/71/58 12/11/58
f 9/13/59 13/66/59 12/14/59
f 10/16/60 14/72/60 12/17/60
f 15/19/61 18/63/61 19/20/61
f 16/22/62 20/26/62 19/23/62
f 17/25/63 21/68/63 19/23/63
f 22/27/64 25/69/64 26/28/64
f 23/30/65 27/34/65 26/31/65
f 24/33/66 28/67/66 26/31/66
f 29/35/67 32/39/67 33/36/67
f 30/38/68 34/41/68 33/36/68
f 31/40/69 35/37/69 33/36/69
f 36/42/70 39/46/70 40/43/70
f 37/45/71 41/48/71 40/43/71
f 38/47/72 42/44/72 40/43/72
f 43/49/73 46/53/73 47/50/73
f 44/52/74 48/55/74 47/50/74
f 45/54/75 49/51/75 47/50/75
f 50/56/76 53/60/76 54/57/76
f 51/59/77 55/62/77 54/57/77
f 52/61/78 56/58/78 54/57/78
f 1/1/25 7/3/25 18/63/25
f 7/64/26 3/7/26 16/22/26
f 8/10/27 14/12/27 6/65/27
f 6/9/28 14/72/28 10/16/28
f 22/27/29 28/29/29 13/66/29
f 28/67/30 24/33/30 10/16/30
f 17/25/31 20/26/31 27/34/31
f 27/34/32 20/26/32 16/22/32
f 15/19/33 21/21/33 46/53/33
f 21/68/34 17/25/34 44/52/34
f 50/56/35 56/58/35 25/69/35
f 56/58/36 52/61/36 23/30/36
f 45/54/37 48/55/37 55/62/37
f 55/62/38 48/55/38 44/52/38
f 43/49/39 49/51/39 32/39/39
f 49/51/40 45/54/40 30/38/40
f 36/42/41 42/44/41 53/60/41
f 42/44/42 38/47/42 51/59/42
f 31/40/43 34/41/43 41/48/43
f 41/48/44 34/41/44 30/38/44
f 29/35/45 35/37/45 4/70/45
f 35/37/46 31/40/46 2/4/46
f 9/13/47 11/15/47 39/46/47
f 11/71/48 8/10/48 37/45/48
f 43/49/49 29/35/49 1/1/49
f 10/16/50 24/33/50 16/22/50
f 37/45/51 8/10/51 2/4/51
f 22/27/52 9/13/52 36/42/52
f 23/30/53 52/61/53 44/52/53
f 51/59/54 38/47/54 30/38/54
