# Blender 5.2.0 LTS
# www.blender.org
mtllib Pyramid.mtl
g Pyramid_Cone
v 0.487904 0.000000 0.487904
v -0.487904 0.000000 0.487904
v -0.487904 0.000000 -0.487904
v 0.487904 0.000000 -0.487904
v 0.000000 1.000000 0.000000
vn -0.0000 0.4385 0.8987
vn -0.8987 0.4385 -0.0000
vn -0.0000 -1.0000 -0.0000
vn -0.0000 0.4385 -0.8987
vn 0.8987 0.4385 -0.0000
vt 0.01000 0.25000
vt 0.25000 0.01000
vt 0.25000 0.25000
vt 0.25000 0.49000
vt 0.49000 0.25000
vt 0.51000 0.25000
vt 0.75000 0.01000
vt 0.75000 0.49000
vt 0.99000 0.25000
s 0
g Pyramid_M_gold
usemtl M_gold
f 1/4/1 5/3/1 2/5/1
f 2/5/2 5/3/2 3/2/2
f 2/9/3 3/7/3 4/6/3
f 2/9/3 4/6/3 1/8/3
f 3/2/4 5/3/4 4/1/4
f 4/1/5 5/3/5 1/4/5
