# TERRAFRONT procedural asset — generated by Tools/assetgen (deterministic)
# Y-up, +Z forward (muzzle), units = meters, pivot at grip/origin.
# Fabricator Torch — TERRAFRONT P0
# charm lug: see README_charm_mounts.md
mtllib tf_weapons_common.mtl
o tool_repair
v -0.0170 0.0030 -0.0450
v -0.0170 0.0570 -0.0450
v 0.0170 0.0570 -0.0450
v 0.0170 0.0030 -0.0450
v 0.0170 0.0030 0.1450
v 0.0170 0.0570 0.1450
v -0.0170 0.0570 0.1450
v -0.0170 0.0030 0.1450
v -0.0170 0.0650 -0.0370
v -0.0170 0.0650 0.1370
v 0.0170 0.0650 0.1370
v 0.0170 0.0650 -0.0370
v -0.0170 -0.0050 -0.0370
v 0.0170 -0.0050 -0.0370
v 0.0170 -0.0050 0.1370
v -0.0170 -0.0050 0.1370
v 0.0250 0.0030 -0.0370
v 0.0250 0.0570 -0.0370
v 0.0250 0.0570 0.1370
v 0.0250 0.0030 0.1370
v -0.0250 0.0030 0.1370
v -0.0250 0.0570 0.1370
v -0.0250 0.0570 -0.0370
v -0.0250 0.0030 -0.0370
v -0.0170 0.0650 -0.0370
v 0.0170 0.0650 -0.0370
v 0.0170 0.0570 -0.0450
v -0.0170 0.0570 -0.0450
v 0.0170 0.0650 0.1370
v -0.0170 0.0650 0.1370
v -0.0170 0.0570 0.1450
v 0.0170 0.0570 0.1450
v 0.0170 -0.0050 -0.0370
v -0.0170 -0.0050 -0.0370
v -0.0170 0.0030 -0.0450
v 0.0170 0.0030 -0.0450
v -0.0170 -0.0050 0.1370
v 0.0170 -0.0050 0.1370
v 0.0170 0.0030 0.1450
v -0.0170 0.0030 0.1450
v 0.0250 0.0570 -0.0370
v 0.0250 0.0570 0.1370
v 0.0170 0.0650 0.1370
v 0.0170 0.0650 -0.0370
v 0.0250 0.0030 0.1370
v 0.0250 0.0030 -0.0370
v 0.0170 -0.0050 -0.0370
v 0.0170 -0.0050 0.1370
v -0.0250 0.0570 0.1370
v -0.0250 0.0570 -0.0370
v -0.0170 0.0650 -0.0370
v -0.0170 0.0650 0.1370
v -0.0250 0.0030 -0.0370
v -0.0250 0.0030 0.1370
v -0.0170 -0.0050 0.1370
v -0.0170 -0.0050 -0.0370
v 0.0250 0.0570 -0.0370
v 0.0170 0.0570 -0.0450
v 0.0170 0.0030 -0.0450
v 0.0250 0.0030 -0.0370
v 0.0250 0.0030 0.1370
v 0.0170 0.0030 0.1450
v 0.0170 0.0570 0.1450
v 0.0250 0.0570 0.1370
v -0.0250 0.0030 -0.0370
v -0.0170 0.0030 -0.0450
v -0.0170 0.0570 -0.0450
v -0.0250 0.0570 -0.0370
v -0.0250 0.0570 0.1370
v -0.0170 0.0570 0.1450
v -0.0170 0.0030 0.1450
v -0.0250 0.0030 0.1370
v 0.0170 0.0650 0.1370
v 0.0250 0.0570 0.1370
v 0.0170 0.0570 0.1450
v -0.0170 0.0570 0.1450
v -0.0250 0.0570 0.1370
v -0.0170 0.0650 0.1370
v 0.0170 0.0030 0.1450
v 0.0250 0.0030 0.1370
v 0.0170 -0.0050 0.1370
v -0.0170 -0.0050 0.1370
v -0.0250 0.0030 0.1370
v -0.0170 0.0030 0.1450
v 0.0170 0.0570 -0.0450
v 0.0250 0.0570 -0.0370
v 0.0170 0.0650 -0.0370
v -0.0170 0.0650 -0.0370
v -0.0250 0.0570 -0.0370
v -0.0170 0.0570 -0.0450
v 0.0170 -0.0050 -0.0370
v 0.0250 0.0030 -0.0370
v 0.0170 0.0030 -0.0450
v -0.0170 0.0030 -0.0450
v -0.0250 0.0030 -0.0370
v -0.0170 -0.0050 -0.0370
v 0.0220 0.0300 0.1450
v 0.0178 0.0429 0.1450
v 0.0049 0.0335 0.2200
v 0.0060 0.0300 0.2200
v 0.0178 0.0429 0.1450
v 0.0068 0.0509 0.1450
v 0.0019 0.0357 0.2200
v 0.0049 0.0335 0.2200
v 0.0068 0.0509 0.1450
v -0.0068 0.0509 0.1450
v -0.0019 0.0357 0.2200
v 0.0019 0.0357 0.2200
v -0.0068 0.0509 0.1450
v -0.0178 0.0429 0.1450
v -0.0049 0.0335 0.2200
v -0.0019 0.0357 0.2200
v -0.0178 0.0429 0.1450
v -0.0220 0.0300 0.1450
v -0.0060 0.0300 0.2200
v -0.0049 0.0335 0.2200
v -0.0220 0.0300 0.1450
v -0.0178 0.0171 0.1450
v -0.0049 0.0265 0.2200
v -0.0060 0.0300 0.2200
v -0.0178 0.0171 0.1450
v -0.0068 0.0091 0.1450
v -0.0019 0.0243 0.2200
v -0.0049 0.0265 0.2200
v -0.0068 0.0091 0.1450
v 0.0068 0.0091 0.1450
v 0.0019 0.0243 0.2200
v -0.0019 0.0243 0.2200
v 0.0068 0.0091 0.1450
v 0.0178 0.0171 0.1450
v 0.0049 0.0265 0.2200
v 0.0019 0.0243 0.2200
v 0.0178 0.0171 0.1450
v 0.0220 0.0300 0.1450
v 0.0060 0.0300 0.2200
v 0.0049 0.0265 0.2200
v 0.0040 0.0300 0.2100
v 0.0028 0.0328 0.2100
v 0.0021 0.0321 0.2400
v 0.0030 0.0300 0.2400
v 0.0028 0.0328 0.2100
v 0.0000 0.0340 0.2100
v 0.0000 0.0330 0.2400
v 0.0021 0.0321 0.2400
v 0.0000 0.0340 0.2100
v -0.0028 0.0328 0.2100
v -0.0021 0.0321 0.2400
v 0.0000 0.0330 0.2400
v -0.0028 0.0328 0.2100
v -0.0040 0.0300 0.2100
v -0.0030 0.0300 0.2400
v -0.0021 0.0321 0.2400
v -0.0040 0.0300 0.2100
v -0.0028 0.0272 0.2100
v -0.0021 0.0279 0.2400
v -0.0030 0.0300 0.2400
v -0.0028 0.0272 0.2100
v -0.0000 0.0260 0.2100
v -0.0000 0.0270 0.2400
v -0.0021 0.0279 0.2400
v -0.0000 0.0260 0.2100
v 0.0028 0.0272 0.2100
v 0.0021 0.0279 0.2400
v -0.0000 0.0270 0.2400
v 0.0028 0.0272 0.2100
v 0.0040 0.0300 0.2100
v 0.0030 0.0300 0.2400
v 0.0021 0.0279 0.2400
v 0.0028 0.0272 0.2100
v -0.0000 0.0260 0.2100
v -0.0028 0.0272 0.2100
v -0.0040 0.0300 0.2100
v -0.0028 0.0328 0.2100
v 0.0000 0.0340 0.2100
v 0.0028 0.0328 0.2100
v 0.0040 0.0300 0.2100
v 0.0030 0.0300 0.2400
v 0.0021 0.0321 0.2400
v 0.0000 0.0330 0.2400
v -0.0021 0.0321 0.2400
v -0.0030 0.0300 0.2400
v -0.0021 0.0279 0.2400
v -0.0000 0.0270 0.2400
v 0.0021 0.0279 0.2400
v 0.0500 0.0450 -0.0600
v 0.0466 0.0556 -0.0600
v 0.0466 0.0556 0.0500
v 0.0500 0.0450 0.0500
v 0.0466 0.0556 -0.0600
v 0.0376 0.0621 -0.0600
v 0.0376 0.0621 0.0500
v 0.0466 0.0556 0.0500
v 0.0376 0.0621 -0.0600
v 0.0264 0.0621 -0.0600
v 0.0264 0.0621 0.0500
v 0.0376 0.0621 0.0500
v 0.0264 0.0621 -0.0600
v 0.0174 0.0556 -0.0600
v 0.0174 0.0556 0.0500
v 0.0264 0.0621 0.0500
v 0.0174 0.0556 -0.0600
v 0.0140 0.0450 -0.0600
v 0.0140 0.0450 0.0500
v 0.0174 0.0556 0.0500
v 0.0140 0.0450 -0.0600
v 0.0174 0.0344 -0.0600
v 0.0174 0.0344 0.0500
v 0.0140 0.0450 0.0500
v 0.0174 0.0344 -0.0600
v 0.0264 0.0279 -0.0600
v 0.0264 0.0279 0.0500
v 0.0174 0.0344 0.0500
v 0.0264 0.0279 -0.0600
v 0.0376 0.0279 -0.0600
v 0.0376 0.0279 0.0500
v 0.0264 0.0279 0.0500
v 0.0376 0.0279 -0.0600
v 0.0466 0.0344 -0.0600
v 0.0466 0.0344 0.0500
v 0.0376 0.0279 0.0500
v 0.0466 0.0344 -0.0600
v 0.0500 0.0450 -0.0600
v 0.0500 0.0450 0.0500
v 0.0466 0.0344 0.0500
v 0.0466 0.0344 -0.0600
v 0.0376 0.0279 -0.0600
v 0.0264 0.0279 -0.0600
v 0.0174 0.0344 -0.0600
v 0.0140 0.0450 -0.0600
v 0.0174 0.0556 -0.0600
v 0.0264 0.0621 -0.0600
v 0.0376 0.0621 -0.0600
v 0.0466 0.0556 -0.0600
v 0.0500 0.0450 -0.0600
v 0.0500 0.0450 0.0500
v 0.0466 0.0556 0.0500
v 0.0376 0.0621 0.0500
v 0.0264 0.0621 0.0500
v 0.0174 0.0556 0.0500
v 0.0140 0.0450 0.0500
v 0.0174 0.0344 0.0500
v 0.0264 0.0279 0.0500
v 0.0376 0.0279 0.0500
v 0.0466 0.0344 0.0500
v 0.0090 0.0710 0.0100
v 0.0064 0.0710 0.0164
v 0.0064 0.0650 0.0164
v 0.0090 0.0650 0.0100
v 0.0064 0.0710 0.0164
v 0.0000 0.0710 0.0190
v 0.0000 0.0650 0.0190
v 0.0064 0.0650 0.0164
v 0.0000 0.0710 0.0190
v -0.0064 0.0710 0.0164
v -0.0064 0.0650 0.0164
v 0.0000 0.0650 0.0190
v -0.0064 0.0710 0.0164
v -0.0090 0.0710 0.0100
v -0.0090 0.0650 0.0100
v -0.0064 0.0650 0.0164
v -0.0090 0.0710 0.0100
v -0.0064 0.0710 0.0036
v -0.0064 0.0650 0.0036
v -0.0090 0.0650 0.0100
v -0.0064 0.0710 0.0036
v -0.0000 0.0710 0.0010
v -0.0000 0.0650 0.0010
v -0.0064 0.0650 0.0036
v -0.0000 0.0710 0.0010
v 0.0064 0.0710 0.0036
v 0.0064 0.0650 0.0036
v -0.0000 0.0650 0.0010
v 0.0064 0.0710 0.0036
v 0.0090 0.0710 0.0100
v 0.0090 0.0650 0.0100
v 0.0064 0.0650 0.0036
v 0.0064 0.0710 0.0036
v -0.0000 0.0710 0.0010
v -0.0064 0.0710 0.0036
v -0.0090 0.0710 0.0100
v -0.0064 0.0710 0.0164
v 0.0000 0.0710 0.0190
v 0.0064 0.0710 0.0164
v 0.0090 0.0710 0.0100
v 0.0090 0.0650 0.0100
v 0.0064 0.0650 0.0164
v 0.0000 0.0650 0.0190
v -0.0064 0.0650 0.0164
v -0.0090 0.0650 0.0100
v -0.0064 0.0650 0.0036
v -0.0000 0.0650 0.0010
v 0.0064 0.0650 0.0036
v -0.0230 -0.0030 0.0690
v -0.0230 0.0030 0.0690
v 0.0230 0.0030 0.0690
v 0.0230 -0.0030 0.0690
v 0.0230 -0.0030 0.0810
v 0.0230 0.0030 0.0810
v -0.0230 0.0030 0.0810
v -0.0230 -0.0030 0.0810
v -0.0230 0.0060 0.0720
v -0.0230 0.0060 0.0780
v 0.0230 0.0060 0.0780
v 0.0230 0.0060 0.0720
v -0.0230 -0.0060 0.0720
v 0.0230 -0.0060 0.0720
v 0.0230 -0.0060 0.0780
v -0.0230 -0.0060 0.0780
v 0.0260 -0.0030 0.0720
v 0.0260 0.0030 0.0720
v 0.0260 0.0030 0.0780
v 0.0260 -0.0030 0.0780
v -0.0260 -0.0030 0.0780
v -0.0260 0.0030 0.0780
v -0.0260 0.0030 0.0720
v -0.0260 -0.0030 0.0720
v -0.0230 0.0060 0.0720
v 0.0230 0.0060 0.0720
v 0.0230 0.0030 0.0690
v -0.0230 0.0030 0.0690
v 0.0230 0.0060 0.0780
v -0.0230 0.0060 0.0780
v -0.0230 0.0030 0.0810
v 0.0230 0.0030 0.0810
v 0.0230 -0.0060 0.0720
v -0.0230 -0.0060 0.0720
v -0.0230 -0.0030 0.0690
v 0.0230 -0.0030 0.0690
v -0.0230 -0.0060 0.0780
v 0.0230 -0.0060 0.0780
v 0.0230 -0.0030 0.0810
v -0.0230 -0.0030 0.0810
v 0.0260 0.0030 0.0720
v 0.0260 0.0030 0.0780
v 0.0230 0.0060 0.0780
v 0.0230 0.0060 0.0720
v 0.0260 -0.0030 0.0780
v 0.0260 -0.0030 0.0720
v 0.0230 -0.0060 0.0720
v 0.0230 -0.0060 0.0780
v -0.0260 0.0030 0.0780
v -0.0260 0.0030 0.0720
v -0.0230 0.0060 0.0720
v -0.0230 0.0060 0.0780
v -0.0260 -0.0030 0.0720
v -0.0260 -0.0030 0.0780
v -0.0230 -0.0060 0.0780
v -0.0230 -0.0060 0.0720
v 0.0260 0.0030 0.0720
v 0.0230 0.0030 0.0690
v 0.0230 -0.0030 0.0690
v 0.0260 -0.0030 0.0720
v 0.0260 -0.0030 0.0780
v 0.0230 -0.0030 0.0810
v 0.0230 0.0030 0.0810
v 0.0260 0.0030 0.0780
v -0.0260 -0.0030 0.0720
v -0.0230 -0.0030 0.0690
v -0.0230 0.0030 0.0690
v -0.0260 0.0030 0.0720
v -0.0260 0.0030 0.0780
v -0.0230 0.0030 0.0810
v -0.0230 -0.0030 0.0810
v -0.0260 -0.0030 0.0780
v 0.0230 0.0060 0.0780
v 0.0260 0.0030 0.0780
v 0.0230 0.0030 0.0810
v -0.0230 0.0030 0.0810
v -0.0260 0.0030 0.0780
v -0.0230 0.0060 0.0780
v 0.0230 -0.0030 0.0810
v 0.0260 -0.0030 0.0780
v 0.0230 -0.0060 0.0780
v -0.0230 -0.0060 0.0780
v -0.0260 -0.0030 0.0780
v -0.0230 -0.0030 0.0810
v 0.0230 0.0030 0.0690
v 0.0260 0.0030 0.0720
v 0.0230 0.0060 0.0720
v -0.0230 0.0060 0.0720
v -0.0260 0.0030 0.0720
v -0.0230 0.0030 0.0690
v 0.0230 -0.0060 0.0720
v 0.0260 -0.0030 0.0720
v 0.0230 -0.0030 0.0690
v -0.0230 -0.0030 0.0690
v -0.0260 -0.0030 0.0720
v -0.0230 -0.0060 0.0720
v -0.0230 -0.0030 0.1010
v -0.0230 0.0030 0.1010
v 0.0230 0.0030 0.1010
v 0.0230 -0.0030 0.1010
v 0.0230 -0.0030 0.1130
v 0.0230 0.0030 0.1130
v -0.0230 0.0030 0.1130
v -0.0230 -0.0030 0.1130
v -0.0230 0.0060 0.1040
v -0.0230 0.0060 0.1100
v 0.0230 0.0060 0.1100
v 0.0230 0.0060 0.1040
v -0.0230 -0.0060 0.1040
v 0.0230 -0.0060 0.1040
v 0.0230 -0.0060 0.1100
v -0.0230 -0.0060 0.1100
v 0.0260 -0.0030 0.1040
v 0.0260 0.0030 0.1040
v 0.0260 0.0030 0.1100
v 0.0260 -0.0030 0.1100
v -0.0260 -0.0030 0.1100
v -0.0260 0.0030 0.1100
v -0.0260 0.0030 0.1040
v -0.0260 -0.0030 0.1040
v -0.0230 0.0060 0.1040
v 0.0230 0.0060 0.1040
v 0.0230 0.0030 0.1010
v -0.0230 0.0030 0.1010
v 0.0230 0.0060 0.1100
v -0.0230 0.0060 0.1100
v -0.0230 0.0030 0.1130
v 0.0230 0.0030 0.1130
v 0.0230 -0.0060 0.1040
v -0.0230 -0.0060 0.1040
v -0.0230 -0.0030 0.1010
v 0.0230 -0.0030 0.1010
v -0.0230 -0.0060 0.1100
v 0.0230 -0.0060 0.1100
v 0.0230 -0.0030 0.1130
v -0.0230 -0.0030 0.1130
v 0.0260 0.0030 0.1040
v 0.0260 0.0030 0.1100
v 0.0230 0.0060 0.1100
v 0.0230 0.0060 0.1040
v 0.0260 -0.0030 0.1100
v 0.0260 -0.0030 0.1040
v 0.0230 -0.0060 0.1040
v 0.0230 -0.0060 0.1100
v -0.0260 0.0030 0.1100
v -0.0260 0.0030 0.1040
v -0.0230 0.0060 0.1040
v -0.0230 0.0060 0.1100
v -0.0260 -0.0030 0.1040
v -0.0260 -0.0030 0.1100
v -0.0230 -0.0060 0.1100
v -0.0230 -0.0060 0.1040
v 0.0260 0.0030 0.1040
v 0.0230 0.0030 0.1010
v 0.0230 -0.0030 0.1010
v 0.0260 -0.0030 0.1040
v 0.0260 -0.0030 0.1100
v 0.0230 -0.0030 0.1130
v 0.0230 0.0030 0.1130
v 0.0260 0.0030 0.1100
v -0.0260 -0.0030 0.1040
v -0.0230 -0.0030 0.1010
v -0.0230 0.0030 0.1010
v -0.0260 0.0030 0.1040
v -0.0260 0.0030 0.1100
v -0.0230 0.0030 0.1130
v -0.0230 -0.0030 0.1130
v -0.0260 -0.0030 0.1100
v 0.0230 0.0060 0.1100
v 0.0260 0.0030 0.1100
v 0.0230 0.0030 0.1130
v -0.0230 0.0030 0.1130
v -0.0260 0.0030 0.1100
v -0.0230 0.0060 0.1100
v 0.0230 -0.0030 0.1130
v 0.0260 -0.0030 0.1100
v 0.0230 -0.0060 0.1100
v -0.0230 -0.0060 0.1100
v -0.0260 -0.0030 0.1100
v -0.0230 -0.0030 0.1130
v 0.0230 0.0030 0.1010
v 0.0260 0.0030 0.1040
v 0.0230 0.0060 0.1040
v -0.0230 0.0060 0.1040
v -0.0260 0.0030 0.1040
v -0.0230 0.0030 0.1010
v 0.0230 -0.0060 0.1040
v 0.0260 -0.0030 0.1040
v 0.0230 -0.0030 0.1010
v -0.0230 -0.0030 0.1010
v -0.0260 -0.0030 0.1040
v -0.0230 -0.0060 0.1040
v -0.0230 -0.0030 0.1330
v -0.0230 0.0030 0.1330
v 0.0230 0.0030 0.1330
v 0.0230 -0.0030 0.1330
v 0.0230 -0.0030 0.1450
v 0.0230 0.0030 0.1450
v -0.0230 0.0030 0.1450
v -0.0230 -0.0030 0.1450
v -0.0230 0.0060 0.1360
v -0.0230 0.0060 0.1420
v 0.0230 0.0060 0.1420
v 0.0230 0.0060 0.1360
v -0.0230 -0.0060 0.1360
v 0.0230 -0.0060 0.1360
v 0.0230 -0.0060 0.1420
v -0.0230 -0.0060 0.1420
v 0.0260 -0.0030 0.1360
v 0.0260 0.0030 0.1360
v 0.0260 0.0030 0.1420
v 0.0260 -0.0030 0.1420
v -0.0260 -0.0030 0.1420
v -0.0260 0.0030 0.1420
v -0.0260 0.0030 0.1360
v -0.0260 -0.0030 0.1360
v -0.0230 0.0060 0.1360
v 0.0230 0.0060 0.1360
v 0.0230 0.0030 0.1330
v -0.0230 0.0030 0.1330
v 0.0230 0.0060 0.1420
v -0.0230 0.0060 0.1420
v -0.0230 0.0030 0.1450
v 0.0230 0.0030 0.1450
v 0.0230 -0.0060 0.1360
v -0.0230 -0.0060 0.1360
v -0.0230 -0.0030 0.1330
v 0.0230 -0.0030 0.1330
v -0.0230 -0.0060 0.1420
v 0.0230 -0.0060 0.1420
v 0.0230 -0.0030 0.1450
v -0.0230 -0.0030 0.1450
v 0.0260 0.0030 0.1360
v 0.0260 0.0030 0.1420
v 0.0230 0.0060 0.1420
v 0.0230 0.0060 0.1360
v 0.0260 -0.0030 0.1420
v 0.0260 -0.0030 0.1360
v 0.0230 -0.0060 0.1360
v 0.0230 -0.0060 0.1420
v -0.0260 0.0030 0.1420
v -0.0260 0.0030 0.1360
v -0.0230 0.0060 0.1360
v -0.0230 0.0060 0.1420
v -0.0260 -0.0030 0.1360
v -0.0260 -0.0030 0.1420
v -0.0230 -0.0060 0.1420
v -0.0230 -0.0060 0.1360
v 0.0260 0.0030 0.1360
v 0.0230 0.0030 0.1330
v 0.0230 -0.0030 0.1330
v 0.0260 -0.0030 0.1360
v 0.0260 -0.0030 0.1420
v 0.0230 -0.0030 0.1450
v 0.0230 0.0030 0.1450
v 0.0260 0.0030 0.1420
v -0.0260 -0.0030 0.1360
v -0.0230 -0.0030 0.1330
v -0.0230 0.0030 0.1330
v -0.0260 0.0030 0.1360
v -0.0260 0.0030 0.1420
v -0.0230 0.0030 0.1450
v -0.0230 -0.0030 0.1450
v -0.0260 -0.0030 0.1420
v 0.0230 0.0060 0.1420
v 0.0260 0.0030 0.1420
v 0.0230 0.0030 0.1450
v -0.0230 0.0030 0.1450
v -0.0260 0.0030 0.1420
v -0.0230 0.0060 0.1420
v 0.0230 -0.0030 0.1450
v 0.0260 -0.0030 0.1420
v 0.0230 -0.0060 0.1420
v -0.0230 -0.0060 0.1420
v -0.0260 -0.0030 0.1420
v -0.0230 -0.0030 0.1450
v 0.0230 0.0030 0.1330
v 0.0260 0.0030 0.1360
v 0.0230 0.0060 0.1360
v -0.0230 0.0060 0.1360
v -0.0260 0.0030 0.1360
v -0.0230 0.0030 0.1330
v 0.0230 -0.0060 0.1360
v 0.0260 -0.0030 0.1360
v 0.0230 -0.0030 0.1330
v -0.0230 -0.0030 0.1330
v -0.0260 -0.0030 0.1360
v -0.0230 -0.0060 0.1360
v -0.0080 -0.0837 -0.0180
v -0.0080 -0.0187 -0.0381
v 0.0080 -0.0187 -0.0381
v 0.0080 -0.0837 -0.0180
v 0.0080 -0.0713 0.0221
v 0.0080 -0.0063 0.0020
v -0.0080 -0.0063 0.0020
v -0.0080 -0.0713 0.0221
v -0.0080 -0.0112 -0.0342
v -0.0080 -0.0024 -0.0055
v 0.0080 -0.0024 -0.0055
v 0.0080 -0.0112 -0.0342
v -0.0080 -0.0876 -0.0105
v 0.0080 -0.0876 -0.0105
v 0.0080 -0.0788 0.0182
v -0.0080 -0.0788 0.0182
v 0.0140 -0.0819 -0.0123
v 0.0140 -0.0170 -0.0324
v 0.0140 -0.0081 -0.0037
v 0.0140 -0.0730 0.0164
v -0.0140 -0.0730 0.0164
v -0.0140 -0.0081 -0.0037
v -0.0140 -0.0170 -0.0324
v -0.0140 -0.0819 -0.0123
v -0.0080 -0.0112 -0.0342
v 0.0080 -0.0112 -0.0342
v 0.0080 -0.0187 -0.0381
v -0.0080 -0.0187 -0.0381
v 0.0080 -0.0024 -0.0055
v -0.0080 -0.0024 -0.0055
v -0.0080 -0.0063 0.0020
v 0.0080 -0.0063 0.0020
v 0.0080 -0.0876 -0.0105
v -0.0080 -0.0876 -0.0105
v -0.0080 -0.0837 -0.0180
v 0.0080 -0.0837 -0.0180
v -0.0080 -0.0788 0.0182
v 0.0080 -0.0788 0.0182
v 0.0080 -0.0713 0.0221
v -0.0080 -0.0713 0.0221
v 0.0140 -0.0170 -0.0324
v 0.0140 -0.0081 -0.0037
v 0.0080 -0.0024 -0.0055
v 0.0080 -0.0112 -0.0342
v 0.0140 -0.0730 0.0164
v 0.0140 -0.0819 -0.0123
v 0.0080 -0.0876 -0.0105
v 0.0080 -0.0788 0.0182
v -0.0140 -0.0081 -0.0037
v -0.0140 -0.0170 -0.0324
v -0.0080 -0.0112 -0.0342
v -0.0080 -0.0024 -0.0055
v -0.0140 -0.0819 -0.0123
v -0.0140 -0.0730 0.0164
v -0.0080 -0.0788 0.0182
v -0.0080 -0.0876 -0.0105
v 0.0140 -0.0170 -0.0324
v 0.0080 -0.0187 -0.0381
v 0.0080 -0.0837 -0.0180
v 0.0140 -0.0819 -0.0123
v 0.0140 -0.0730 0.0164
v 0.0080 -0.0713 0.0221
v 0.0080 -0.0063 0.0020
v 0.0140 -0.0081 -0.0037
v -0.0140 -0.0819 -0.0123
v -0.0080 -0.0837 -0.0180
v -0.0080 -0.0187 -0.0381
v -0.0140 -0.0170 -0.0324
v -0.0140 -0.0081 -0.0037
v -0.0080 -0.0063 0.0020
v -0.0080 -0.0713 0.0221
v -0.0140 -0.0730 0.0164
v 0.0080 -0.0024 -0.0055
v 0.0140 -0.0081 -0.0037
v 0.0080 -0.0063 0.0020
v -0.0080 -0.0063 0.0020
v -0.0140 -0.0081 -0.0037
v -0.0080 -0.0024 -0.0055
v 0.0080 -0.0713 0.0221
v 0.0140 -0.0730 0.0164
v 0.0080 -0.0788 0.0182
v -0.0080 -0.0788 0.0182
v -0.0140 -0.0730 0.0164
v -0.0080 -0.0713 0.0221
v 0.0080 -0.0187 -0.0381
v 0.0140 -0.0170 -0.0324
v 0.0080 -0.0112 -0.0342
v -0.0080 -0.0112 -0.0342
v -0.0140 -0.0170 -0.0324
v -0.0080 -0.0187 -0.0381
v 0.0080 -0.0876 -0.0105
v 0.0140 -0.0819 -0.0123
v 0.0080 -0.0837 -0.0180
v -0.0080 -0.0837 -0.0180
v -0.0140 -0.0819 -0.0123
v -0.0080 -0.0876 -0.0105
v -0.0045 -0.0440 0.0393
v -0.0045 -0.0050 0.0393
v 0.0045 -0.0050 0.0393
v 0.0045 -0.0440 0.0393
v 0.0045 -0.0440 0.0483
v 0.0045 -0.0050 0.0483
v -0.0045 -0.0050 0.0483
v -0.0045 -0.0440 0.0483
v -0.0045 -0.0050 0.0393
v -0.0045 -0.0050 0.0483
v 0.0045 -0.0050 0.0483
v 0.0045 -0.0050 0.0393
v -0.0045 -0.0440 0.0393
v 0.0045 -0.0440 0.0393
v 0.0045 -0.0440 0.0483
v -0.0045 -0.0440 0.0483
v 0.0045 -0.0440 0.0393
v 0.0045 -0.0050 0.0393
v 0.0045 -0.0050 0.0483
v 0.0045 -0.0440 0.0483
v -0.0045 -0.0440 0.0483
v -0.0045 -0.0050 0.0483
v -0.0045 -0.0050 0.0393
v -0.0045 -0.0440 0.0393
v -0.0045 -0.0290 -0.0155
v -0.0045 -0.0050 -0.0155
v 0.0045 -0.0050 -0.0155
v 0.0045 -0.0290 -0.0155
v 0.0045 -0.0290 -0.0065
v 0.0045 -0.0050 -0.0065
v -0.0045 -0.0050 -0.0065
v -0.0045 -0.0290 -0.0065
v -0.0045 -0.0050 -0.0155
v -0.0045 -0.0050 -0.0065
v 0.0045 -0.0050 -0.0065
v 0.0045 -0.0050 -0.0155
v -0.0045 -0.0290 -0.0155
v 0.0045 -0.0290 -0.0155
v 0.0045 -0.0290 -0.0065
v -0.0045 -0.0290 -0.0065
v 0.0045 -0.0290 -0.0155
v 0.0045 -0.0050 -0.0155
v 0.0045 -0.0050 -0.0065
v 0.0045 -0.0290 -0.0065
v -0.0045 -0.0290 -0.0065
v -0.0045 -0.0050 -0.0065
v -0.0045 -0.0050 -0.0155
v -0.0045 -0.0290 -0.0155
v -0.0045 -0.0515 -0.0151
v -0.0045 -0.0425 -0.0151
v 0.0045 -0.0425 -0.0151
v 0.0045 -0.0515 -0.0151
v 0.0045 -0.0515 0.0486
v 0.0045 -0.0425 0.0486
v -0.0045 -0.0425 0.0486
v -0.0045 -0.0515 0.0486
v -0.0045 -0.0425 -0.0151
v -0.0045 -0.0425 0.0486
v 0.0045 -0.0425 0.0486
v 0.0045 -0.0425 -0.0151
v -0.0045 -0.0515 -0.0151
v 0.0045 -0.0515 -0.0151
v 0.0045 -0.0515 0.0486
v -0.0045 -0.0515 0.0486
v 0.0045 -0.0515 -0.0151
v 0.0045 -0.0425 -0.0151
v 0.0045 -0.0425 0.0486
v 0.0045 -0.0515 0.0486
v -0.0045 -0.0515 0.0486
v -0.0045 -0.0425 0.0486
v -0.0045 -0.0425 -0.0151
v -0.0045 -0.0515 -0.0151
v -0.0040 -0.0292 0.0070
v -0.0040 -0.0076 0.0133
v 0.0040 -0.0076 0.0133
v 0.0040 -0.0292 0.0070
v 0.0040 -0.0314 0.0147
v 0.0040 -0.0098 0.0210
v -0.0040 -0.0098 0.0210
v -0.0040 -0.0314 0.0147
v -0.0040 -0.0076 0.0133
v -0.0040 -0.0098 0.0210
v 0.0040 -0.0098 0.0210
v 0.0040 -0.0076 0.0133
v -0.0040 -0.0292 0.0070
v 0.0040 -0.0292 0.0070
v 0.0040 -0.0314 0.0147
v -0.0040 -0.0314 0.0147
v 0.0040 -0.0292 0.0070
v 0.0040 -0.0076 0.0133
v 0.0040 -0.0098 0.0210
v 0.0040 -0.0314 0.0147
v -0.0040 -0.0314 0.0147
v -0.0040 -0.0098 0.0210
v -0.0040 -0.0076 0.0133
v -0.0040 -0.0292 0.0070
v -0.0080 -0.0400 0.0540
v -0.0080 -0.0358 0.0558
v 0.0080 -0.0358 0.0558
v 0.0080 -0.0400 0.0540
v -0.0080 -0.0358 0.0558
v -0.0080 -0.0340 0.0600
v 0.0080 -0.0340 0.0600
v 0.0080 -0.0358 0.0558
v -0.0080 -0.0340 0.0600
v -0.0080 -0.0358 0.0642
v 0.0080 -0.0358 0.0642
v 0.0080 -0.0340 0.0600
v -0.0080 -0.0358 0.0642
v -0.0080 -0.0400 0.0660
v 0.0080 -0.0400 0.0660
v 0.0080 -0.0358 0.0642
v -0.0080 -0.0400 0.0660
v -0.0080 -0.0442 0.0642
v 0.0080 -0.0442 0.0642
v 0.0080 -0.0400 0.0660
v -0.0080 -0.0442 0.0642
v -0.0080 -0.0460 0.0600
v 0.0080 -0.0460 0.0600
v 0.0080 -0.0442 0.0642
v -0.0080 -0.0460 0.0600
v -0.0080 -0.0442 0.0558
v 0.0080 -0.0442 0.0558
v 0.0080 -0.0460 0.0600
v -0.0080 -0.0442 0.0558
v -0.0080 -0.0400 0.0540
v 0.0080 -0.0400 0.0540
v 0.0080 -0.0442 0.0558
v -0.0080 -0.0442 0.0558
v -0.0080 -0.0460 0.0600
v -0.0080 -0.0442 0.0642
v -0.0080 -0.0400 0.0660
v -0.0080 -0.0358 0.0642
v -0.0080 -0.0340 0.0600
v -0.0080 -0.0358 0.0558
v -0.0080 -0.0400 0.0540
v 0.0080 -0.0400 0.0540
v 0.0080 -0.0358 0.0558
v 0.0080 -0.0340 0.0600
v 0.0080 -0.0358 0.0642
v 0.0080 -0.0400 0.0660
v 0.0080 -0.0442 0.0642
v 0.0080 -0.0460 0.0600
v 0.0080 -0.0442 0.0558
vt 0.0827 0.5602
vt 0.0827 0.9398
vt 0.4173 0.9398
vt 0.4173 0.5602
vt 0.4173 0.5602
vt 0.4173 0.9398
vt 0.0827 0.9398
vt 0.0827 0.5602
vt 0.0827 0.5247
vt 0.0827 0.9753
vt 0.4173 0.9753
vt 0.4173 0.5247
vt 0.0827 0.5247
vt 0.4173 0.5247
vt 0.4173 0.9753
vt 0.0827 0.9753
vt 0.0247 0.5602
vt 0.0247 0.9398
vt 0.4753 0.9398
vt 0.4753 0.5602
vt 0.4753 0.5602
vt 0.4753 0.9398
vt 0.0247 0.9398
vt 0.0247 0.5602
vt 0.0827 0.5247
vt 0.4173 0.5247
vt 0.4173 0.5040
vt 0.0827 0.5040
vt 0.4173 0.9753
vt 0.0827 0.9753
vt 0.0827 0.9960
vt 0.4173 0.9960
vt 0.4173 0.5247
vt 0.0827 0.5247
vt 0.0827 0.5040
vt 0.4173 0.5040
vt 0.0827 0.9753
vt 0.4173 0.9753
vt 0.4173 0.9960
vt 0.0827 0.9960
vt 0.0247 0.9398
vt 0.4753 0.9398
vt 0.4753 0.9960
vt 0.0247 0.9960
vt 0.4753 0.5602
vt 0.0247 0.5602
vt 0.0247 0.5040
vt 0.4753 0.5040
vt 0.4753 0.9398
vt 0.0247 0.9398
vt 0.0247 0.9960
vt 0.4753 0.9960
vt 0.0247 0.5602
vt 0.4753 0.5602
vt 0.4753 0.5040
vt 0.0247 0.5040
vt 0.0247 0.9398
vt 0.0040 0.9398
vt 0.0040 0.5602
vt 0.0247 0.5602
vt 0.4753 0.5602
vt 0.4960 0.5602
vt 0.4960 0.9398
vt 0.4753 0.9398
vt 0.0247 0.5602
vt 0.0040 0.5602
vt 0.0040 0.9398
vt 0.0247 0.9398
vt 0.4753 0.9398
vt 0.4960 0.9398
vt 0.4960 0.5602
vt 0.4753 0.5602
vt 0.4173 0.9753
vt 0.4960 0.9753
vt 0.4173 0.9960
vt 0.0827 0.9960
vt 0.0040 0.9753
vt 0.0827 0.9753
vt 0.4173 0.9960
vt 0.4960 0.9753
vt 0.4173 0.9753
vt 0.0827 0.9753
vt 0.0040 0.9753
vt 0.0827 0.9960
vt 0.0040 0.9398
vt 0.0247 0.9398
vt 0.0247 0.9960
vt 0.0247 0.9960
vt 0.0247 0.9398
vt 0.0040 0.9398
vt 0.0247 0.5040
vt 0.0247 0.5602
vt 0.0040 0.5602
vt 0.0040 0.5602
vt 0.0247 0.5602
vt 0.0247 0.5040
vt 0.7540 0.3750
vt 0.7540 0.4498
vt 0.9960 0.3954
vt 0.9960 0.3750
vt 0.9729 0.2540
vt 0.9124 0.2540
vt 0.8852 0.4960
vt 0.9017 0.4960
vt 0.9124 0.2540
vt 0.8376 0.2540
vt 0.8648 0.4960
vt 0.8852 0.4960
vt 0.8376 0.2540
vt 0.7771 0.2540
vt 0.8483 0.4960
vt 0.8648 0.4960
vt 0.7540 0.4498
vt 0.7540 0.3750
vt 0.9960 0.3750
vt 0.9960 0.3954
vt 0.7540 0.3750
vt 0.7540 0.3002
vt 0.9960 0.3546
vt 0.9960 0.3750
vt 0.7771 0.2540
vt 0.8376 0.2540
vt 0.8648 0.4960
vt 0.8483 0.4960
vt 0.8376 0.2540
vt 0.9124 0.2540
vt 0.8852 0.4960
vt 0.8648 0.4960
vt 0.9124 0.2540
vt 0.9729 0.2540
vt 0.9017 0.4960
vt 0.8852 0.4960
vt 0.7540 0.3002
vt 0.7540 0.3750
vt 0.9960 0.3750
vt 0.9960 0.3546
vt 0.2540 0.0625
vt 0.2540 0.1039
vt 0.4960 0.0935
vt 0.4960 0.0625
vt 0.4606 0.0040
vt 0.3750 0.0040
vt 0.3750 0.1210
vt 0.4392 0.1210
vt 0.3750 0.0040
vt 0.2894 0.0040
vt 0.3108 0.1210
vt 0.3750 0.1210
vt 0.2540 0.1039
vt 0.2540 0.0625
vt 0.4960 0.0625
vt 0.4960 0.0935
vt 0.2540 0.0625
vt 0.2540 0.0211
vt 0.4960 0.0315
vt 0.4960 0.0625
vt 0.2894 0.0040
vt 0.3750 0.0040
vt 0.3750 0.1210
vt 0.3108 0.1210
vt 0.3750 0.0040
vt 0.4606 0.0040
vt 0.4392 0.1210
vt 0.3750 0.1210
vt 0.2540 0.0211
vt 0.2540 0.0625
vt 0.4960 0.0625
vt 0.4960 0.0315
vt 0.4606 0.0211
vt 0.3750 0.0040
vt 0.2894 0.0211
vt 0.2540 0.0625
vt 0.2894 0.1039
vt 0.3750 0.1210
vt 0.4606 0.1039
vt 0.4960 0.0625
vt 0.4657 0.0625
vt 0.4392 0.0935
vt 0.3750 0.1064
vt 0.3108 0.0935
vt 0.2843 0.0625
vt 0.3108 0.0315
vt 0.3750 0.0186
vt 0.4392 0.0315
vt 0.0040 0.1250
vt 0.0040 0.1998
vt 0.2460 0.1998
vt 0.2460 0.1250
vt 0.2229 0.0040
vt 0.1624 0.0040
vt 0.1624 0.2460
vt 0.2229 0.2460
vt 0.1624 0.0040
vt 0.0876 0.0040
vt 0.0876 0.2460
vt 0.1624 0.2460
vt 0.0876 0.0040
vt 0.0271 0.0040
vt 0.0271 0.2460
vt 0.0876 0.2460
vt 0.0040 0.1998
vt 0.0040 0.1250
vt 0.2460 0.1250
vt 0.2460 0.1998
vt 0.0040 0.1250
vt 0.0040 0.0502
vt 0.2460 0.0502
vt 0.2460 0.1250
vt 0.0271 0.0040
vt 0.0876 0.0040
vt 0.0876 0.2460
vt 0.0271 0.2460
vt 0.0876 0.0040
vt 0.1624 0.0040
vt 0.1624 0.2460
vt 0.0876 0.2460
vt 0.1624 0.0040
vt 0.2229 0.0040
vt 0.2229 0.2460
vt 0.1624 0.2460
vt 0.0040 0.0502
vt 0.0040 0.1250
vt 0.2460 0.1250
vt 0.2460 0.0502
vt 0.2229 0.0502
vt 0.1624 0.0040
vt 0.0876 0.0040
vt 0.0271 0.0502
vt 0.0040 0.1250
vt 0.0271 0.1998
vt 0.0876 0.2460
vt 0.1624 0.2460
vt 0.2229 0.1998
vt 0.2460 0.1250
vt 0.2460 0.1250
vt 0.2229 0.1998
vt 0.1624 0.2460
vt 0.0876 0.2460
vt 0.0271 0.1998
vt 0.0040 0.1250
vt 0.0271 0.0502
vt 0.0876 0.0040
vt 0.1624 0.0040
vt 0.2229 0.0502
vt 0.3750 0.1210
vt 0.4606 0.1210
vt 0.4606 0.0040
vt 0.3750 0.0040
vt 0.4606 0.1210
vt 0.3750 0.1210
vt 0.3750 0.0040
vt 0.4606 0.0040
vt 0.3750 0.1210
vt 0.2894 0.1210
vt 0.2894 0.0040
vt 0.3750 0.0040
vt 0.4606 0.1210
vt 0.3750 0.1210
vt 0.3750 0.0040
vt 0.4606 0.0040
vt 0.3750 0.1210
vt 0.2894 0.1210
vt 0.2894 0.0040
vt 0.3750 0.0040
vt 0.2894 0.1210
vt 0.3750 0.1210
vt 0.3750 0.0040
vt 0.2894 0.0040
vt 0.3750 0.1210
vt 0.4606 0.1210
vt 0.4606 0.0040
vt 0.3750 0.0040
vt 0.2894 0.1210
vt 0.3750 0.1210
vt 0.3750 0.0040
vt 0.2894 0.0040
vt 0.4606 0.0211
vt 0.3750 0.0040
vt 0.2894 0.0211
vt 0.2540 0.0625
vt 0.2894 0.1039
vt 0.3750 0.1210
vt 0.4606 0.1039
vt 0.4960 0.0625
vt 0.4960 0.0625
vt 0.4606 0.1039
vt 0.3750 0.1210
vt 0.2894 0.1039
vt 0.2540 0.0625
vt 0.2894 0.0211
vt 0.3750 0.0040
vt 0.4606 0.0211
vt 0.5324 0.0645
vt 0.5324 0.1855
vt 0.9676 0.1855
vt 0.9676 0.0645
vt 0.9676 0.0645
vt 0.9676 0.1855
vt 0.5324 0.1855
vt 0.5324 0.0645
vt 0.5324 0.0136
vt 0.5324 0.0327
vt 0.9676 0.0327
vt 0.9676 0.0136
vt 0.5324 0.0136
vt 0.9676 0.0136
vt 0.9676 0.0327
vt 0.5324 0.0327
vt 0.5234 0.0645
vt 0.5234 0.1855
vt 0.5623 0.1855
vt 0.5623 0.0645
vt 0.5623 0.0645
vt 0.5623 0.1855
vt 0.5234 0.1855
vt 0.5234 0.0645
vt 0.5324 0.0136
vt 0.9676 0.0136
vt 0.9676 0.0040
vt 0.5324 0.0040
vt 0.9676 0.0327
vt 0.5324 0.0327
vt 0.5324 0.0422
vt 0.9676 0.0422
vt 0.9676 0.0136
vt 0.5324 0.0136
vt 0.5324 0.0040
vt 0.9676 0.0040
vt 0.5324 0.0327
vt 0.9676 0.0327
vt 0.9676 0.0422
vt 0.5324 0.0422
vt 0.5234 0.1855
vt 0.5623 0.1855
vt 0.5623 0.2460
vt 0.5234 0.2460
vt 0.5623 0.0645
vt 0.5234 0.0645
vt 0.5234 0.0040
vt 0.5623 0.0040
vt 0.5623 0.1855
vt 0.5234 0.1855
vt 0.5234 0.2460
vt 0.5623 0.2460
vt 0.5234 0.0645
vt 0.5623 0.0645
vt 0.5623 0.0040
vt 0.5234 0.0040
vt 0.5234 0.1855
vt 0.5040 0.1855
vt 0.5040 0.0645
vt 0.5234 0.0645
vt 0.5623 0.0645
vt 0.5817 0.0645
vt 0.5817 0.1855
vt 0.5623 0.1855
vt 0.5234 0.0645
vt 0.5040 0.0645
vt 0.5040 0.1855
vt 0.5234 0.1855
vt 0.5623 0.1855
vt 0.5817 0.1855
vt 0.5817 0.0645
vt 0.5623 0.0645
vt 0.5623 0.2460
vt 0.5623 0.1855
vt 0.5817 0.1855
vt 0.5817 0.1855
vt 0.5623 0.1855
vt 0.5623 0.2460
vt 0.5817 0.0645
vt 0.5623 0.0645
vt 0.5623 0.0040
vt 0.5623 0.0040
vt 0.5623 0.0645
vt 0.5817 0.0645
vt 0.5040 0.1855
vt 0.5234 0.1855
vt 0.5234 0.2460
vt 0.5234 0.2460
vt 0.5234 0.1855
vt 0.5040 0.1855
vt 0.5234 0.0040
vt 0.5234 0.0645
vt 0.5040 0.0645
vt 0.5040 0.0645
vt 0.5234 0.0645
vt 0.5234 0.0040
vt 0.5324 0.0645
vt 0.5324 0.1855
vt 0.9676 0.1855
vt 0.9676 0.0645
vt 0.9676 0.0645
vt 0.9676 0.1855
vt 0.5324 0.1855
vt 0.5324 0.0645
vt 0.5324 0.1154
vt 0.5324 0.1346
vt 0.9676 0.1346
vt 0.9676 0.1154
vt 0.5324 0.1154
vt 0.9676 0.1154
vt 0.9676 0.1346
vt 0.5324 0.1346
vt 0.7306 0.0645
vt 0.7306 0.1855
vt 0.7694 0.1855
vt 0.7694 0.0645
vt 0.7694 0.0645
vt 0.7694 0.1855
vt 0.7306 0.1855
vt 0.7306 0.0645
vt 0.5324 0.1154
vt 0.9676 0.1154
vt 0.9676 0.1059
vt 0.5324 0.1059
vt 0.9676 0.1346
vt 0.5324 0.1346
vt 0.5324 0.1441
vt 0.9676 0.1441
vt 0.9676 0.1154
vt 0.5324 0.1154
vt 0.5324 0.1059
vt 0.9676 0.1059
vt 0.5324 0.1346
vt 0.9676 0.1346
vt 0.9676 0.1441
vt 0.5324 0.1441
vt 0.7306 0.1855
vt 0.7694 0.1855
vt 0.7694 0.2460
vt 0.7306 0.2460
vt 0.7694 0.0645
vt 0.7306 0.0645
vt 0.7306 0.0040
vt 0.7694 0.0040
vt 0.7694 0.1855
vt 0.7306 0.1855
vt 0.7306 0.2460
vt 0.7694 0.2460
vt 0.7306 0.0645
vt 0.7694 0.0645
vt 0.7694 0.0040
vt 0.7306 0.0040
vt 0.7306 0.1855
vt 0.7112 0.1855
vt 0.7112 0.0645
vt 0.7306 0.0645
vt 0.7694 0.0645
vt 0.7888 0.0645
vt 0.7888 0.1855
vt 0.7694 0.1855
vt 0.7306 0.0645
vt 0.7112 0.0645
vt 0.7112 0.1855
vt 0.7306 0.1855
vt 0.7694 0.1855
vt 0.7888 0.1855
vt 0.7888 0.0645
vt 0.7694 0.0645
vt 0.7694 0.2460
vt 0.7694 0.1855
vt 0.7888 0.1855
vt 0.7888 0.1855
vt 0.7694 0.1855
vt 0.7694 0.2460
vt 0.7888 0.0645
vt 0.7694 0.0645
vt 0.7694 0.0040
vt 0.7694 0.0040
vt 0.7694 0.0645
vt 0.7888 0.0645
vt 0.7112 0.1855
vt 0.7306 0.1855
vt 0.7306 0.2460
vt 0.7306 0.2460
vt 0.7306 0.1855
vt 0.7112 0.1855
vt 0.7306 0.0040
vt 0.7306 0.0645
vt 0.7112 0.0645
vt 0.7112 0.0645
vt 0.7306 0.0645
vt 0.7306 0.0040
vt 0.5324 0.0645
vt 0.5324 0.1855
vt 0.9676 0.1855
vt 0.9676 0.0645
vt 0.9676 0.0645
vt 0.9676 0.1855
vt 0.5324 0.1855
vt 0.5324 0.0645
vt 0.5324 0.2173
vt 0.5324 0.2364
vt 0.9676 0.2364
vt 0.9676 0.2173
vt 0.5324 0.2173
vt 0.9676 0.2173
vt 0.9676 0.2364
vt 0.5324 0.2364
vt 0.9377 0.0645
vt 0.9377 0.1855
vt 0.9766 0.1855
vt 0.9766 0.0645
vt 0.9766 0.0645
vt 0.9766 0.1855
vt 0.9377 0.1855
vt 0.9377 0.0645
vt 0.5324 0.2173
vt 0.9676 0.2173
vt 0.9676 0.2078
vt 0.5324 0.2078
vt 0.9676 0.2364
vt 0.5324 0.2364
vt 0.5324 0.2460
vt 0.9676 0.2460
vt 0.9676 0.2173
vt 0.5324 0.2173
vt 0.5324 0.2078
vt 0.9676 0.2078
vt 0.5324 0.2364
vt 0.9676 0.2364
vt 0.9676 0.2460
vt 0.5324 0.2460
vt 0.9377 0.1855
vt 0.9766 0.1855
vt 0.9766 0.2460
vt 0.9377 0.2460
vt 0.9766 0.0645
vt 0.9377 0.0645
vt 0.9377 0.0040
vt 0.9766 0.0040
vt 0.9766 0.1855
vt 0.9377 0.1855
vt 0.9377 0.2460
vt 0.9766 0.2460
vt 0.9377 0.0645
vt 0.9766 0.0645
vt 0.9766 0.0040
vt 0.9377 0.0040
vt 0.9377 0.1855
vt 0.9183 0.1855
vt 0.9183 0.0645
vt 0.9377 0.0645
vt 0.9766 0.0645
vt 0.9960 0.0645
vt 0.9960 0.1855
vt 0.9766 0.1855
vt 0.9377 0.0645
vt 0.9183 0.0645
vt 0.9183 0.1855
vt 0.9377 0.1855
vt 0.9766 0.1855
vt 0.9960 0.1855
vt 0.9960 0.0645
vt 0.9766 0.0645
vt 0.9766 0.2460
vt 0.9766 0.1855
vt 0.9960 0.1855
vt 0.9960 0.1855
vt 0.9766 0.1855
vt 0.9766 0.2460
vt 0.9960 0.0645
vt 0.9766 0.0645
vt 0.9766 0.0040
vt 0.9766 0.0040
vt 0.9766 0.0645
vt 0.9960 0.0645
vt 0.9183 0.1855
vt 0.9377 0.1855
vt 0.9377 0.2460
vt 0.9377 0.2460
vt 0.9377 0.1855
vt 0.9183 0.1855
vt 0.9377 0.0040
vt 0.9377 0.0645
vt 0.9183 0.0645
vt 0.9183 0.0645
vt 0.9377 0.0645
vt 0.9377 0.0040
vt 0.5559 0.2652
vt 0.5559 0.4496
vt 0.6941 0.4496
vt 0.6941 0.2652
vt 0.6941 0.3004
vt 0.6941 0.4848
vt 0.5559 0.4848
vt 0.5559 0.3004
vt 0.5559 0.2699
vt 0.5559 0.3851
vt 0.6941 0.3851
vt 0.6941 0.2699
vt 0.5559 0.3649
vt 0.6941 0.3649
vt 0.6941 0.4801
vt 0.5559 0.4801
vt 0.6078 0.2703
vt 0.5270 0.4546
vt 0.6422 0.4797
vt 0.7230 0.2954
vt 0.7230 0.2954
vt 0.6422 0.4797
vt 0.5270 0.4546
vt 0.6078 0.2703
vt 0.5559 0.4708
vt 0.6941 0.4708
vt 0.6941 0.4496
vt 0.5559 0.4496
vt 0.6941 0.3851
vt 0.5559 0.3851
vt 0.5559 0.4152
vt 0.6941 0.4152
vt 0.6941 0.3649
vt 0.5559 0.3649
vt 0.5559 0.3348
vt 0.6941 0.3348
vt 0.5559 0.2792
vt 0.6941 0.2792
vt 0.6941 0.3004
vt 0.5559 0.3004
vt 0.5270 0.4546
vt 0.6422 0.4797
vt 0.6351 0.4960
vt 0.5199 0.4708
vt 0.7230 0.2954
vt 0.6078 0.2703
vt 0.6149 0.2540
vt 0.7301 0.2792
vt 0.6422 0.4797
vt 0.5270 0.4546
vt 0.5199 0.4708
vt 0.6351 0.4960
vt 0.6078 0.2703
vt 0.7230 0.2954
vt 0.7301 0.2792
vt 0.6149 0.2540
vt 0.5270 0.4546
vt 0.5040 0.4496
vt 0.5848 0.2652
vt 0.6078 0.2703
vt 0.7230 0.2954
vt 0.7460 0.3004
vt 0.6652 0.4848
vt 0.6422 0.4797
vt 0.6078 0.2703
vt 0.5848 0.2652
vt 0.5040 0.4496
vt 0.5270 0.4546
vt 0.6422 0.4797
vt 0.6652 0.4848
vt 0.7460 0.3004
vt 0.7230 0.2954
vt 0.6941 0.3851
vt 0.7460 0.3922
vt 0.6941 0.4152
vt 0.5559 0.4152
vt 0.5040 0.3922
vt 0.5559 0.3851
vt 0.6941 0.3004
vt 0.7460 0.2954
vt 0.6941 0.2792
vt 0.5559 0.2792
vt 0.5040 0.2954
vt 0.5559 0.3004
vt 0.6941 0.4496
vt 0.7460 0.4546
vt 0.6941 0.4708
vt 0.5559 0.4708
vt 0.5040 0.4546
vt 0.5559 0.4496
vt 0.6941 0.3649
vt 0.7460 0.3578
vt 0.6941 0.3348
vt 0.5559 0.3348
vt 0.5040 0.3578
vt 0.5559 0.3649
vt 0.7540 0.2540
vt 0.7540 0.4960
vt 0.9960 0.4960
vt 0.9960 0.2540
vt 0.9960 0.2540
vt 0.9960 0.4960
vt 0.7540 0.4960
vt 0.7540 0.2540
vt 0.7540 0.2540
vt 0.7540 0.4960
vt 0.9960 0.4960
vt 0.9960 0.2540
vt 0.7540 0.2540
vt 0.9960 0.2540
vt 0.9960 0.4960
vt 0.7540 0.4960
vt 0.7540 0.2540
vt 0.7540 0.4960
vt 0.9960 0.4960
vt 0.9960 0.2540
vt 0.9960 0.2540
vt 0.9960 0.4960
vt 0.7540 0.4960
vt 0.7540 0.2540
vt 0.7540 0.2540
vt 0.7540 0.4960
vt 0.9960 0.4960
vt 0.9960 0.2540
vt 0.9960 0.2540
vt 0.9960 0.4960
vt 0.7540 0.4960
vt 0.7540 0.2540
vt 0.7540 0.2540
vt 0.7540 0.4960
vt 0.9960 0.4960
vt 0.9960 0.2540
vt 0.7540 0.2540
vt 0.9960 0.2540
vt 0.9960 0.4960
vt 0.7540 0.4960
vt 0.7540 0.2540
vt 0.7540 0.4960
vt 0.9960 0.4960
vt 0.9960 0.2540
vt 0.9960 0.2540
vt 0.9960 0.4960
vt 0.7540 0.4960
vt 0.7540 0.2540
vt 0.7540 0.2540
vt 0.7540 0.4960
vt 0.9960 0.4960
vt 0.9960 0.2540
vt 0.9960 0.2540
vt 0.9960 0.4960
vt 0.7540 0.4960
vt 0.7540 0.2540
vt 0.7540 0.2540
vt 0.7540 0.4960
vt 0.9960 0.4960
vt 0.9960 0.2540
vt 0.7540 0.2540
vt 0.9960 0.2540
vt 0.9960 0.4960
vt 0.7540 0.4960
vt 0.7540 0.2540
vt 0.7540 0.4960
vt 0.9960 0.4960
vt 0.9960 0.2540
vt 0.9960 0.2540
vt 0.9960 0.4960
vt 0.7540 0.4960
vt 0.7540 0.2540
vt 0.7540 0.2764
vt 0.7540 0.4960
vt 0.9960 0.4960
vt 0.9960 0.2764
vt 0.9960 0.2540
vt 0.9960 0.4736
vt 0.7540 0.4736
vt 0.7540 0.2540
vt 0.7540 0.3622
vt 0.7540 0.4960
vt 0.9960 0.4960
vt 0.9960 0.3622
vt 0.7540 0.2540
vt 0.9960 0.2540
vt 0.9960 0.3878
vt 0.7540 0.3878
vt 0.7540 0.2764
vt 0.8622 0.4960
vt 0.9960 0.4736
vt 0.8878 0.2540
vt 0.8878 0.2540
vt 0.9960 0.4736
vt 0.8622 0.4960
vt 0.7540 0.2764
vt 0.7540 0.3750
vt 0.7540 0.4606
vt 0.9960 0.4606
vt 0.9960 0.3750
vt 0.7540 0.2894
vt 0.7540 0.3750
vt 0.9960 0.3750
vt 0.9960 0.2894
vt 0.7540 0.3750
vt 0.7540 0.4606
vt 0.9960 0.4606
vt 0.9960 0.3750
vt 0.7540 0.4606
vt 0.7540 0.3750
vt 0.9960 0.3750
vt 0.9960 0.4606
vt 0.7540 0.3750
vt 0.7540 0.2894
vt 0.9960 0.2894
vt 0.9960 0.3750
vt 0.7540 0.4606
vt 0.7540 0.3750
vt 0.9960 0.3750
vt 0.9960 0.4606
vt 0.7540 0.3750
vt 0.7540 0.2894
vt 0.9960 0.2894
vt 0.9960 0.3750
vt 0.7540 0.2894
vt 0.7540 0.3750
vt 0.9960 0.3750
vt 0.9960 0.2894
vt 0.7894 0.2894
vt 0.8750 0.2540
vt 0.9606 0.2894
vt 0.9960 0.3750
vt 0.9606 0.4606
vt 0.8750 0.4960
vt 0.7894 0.4606
vt 0.7540 0.3750
vt 0.7540 0.3750
vt 0.7894 0.4606
vt 0.8750 0.4960
vt 0.9606 0.4606
vt 0.9960 0.3750
vt 0.9606 0.2894
vt 0.8750 0.2540
vt 0.7894 0.2894
vn 0.0000 0.0000 -1.0000
vn 0.0000 0.0000 -1.0000
vn 0.0000 0.0000 -1.0000
vn 0.0000 0.0000 -1.0000
vn 0.0000 0.0000 1.0000
vn 0.0000 0.0000 1.0000
vn 0.0000 0.0000 1.0000
vn 0.0000 0.0000 1.0000
vn 0.0000 1.0000 0.0000
vn 0.0000 1.0000 0.0000
vn 0.0000 1.0000 0.0000
vn 0.0000 1.0000 0.0000
vn 0.0000 -1.0000 0.0000
vn 0.0000 -1.0000 0.0000
vn 0.0000 -1.0000 0.0000
vn 0.0000 -1.0000 0.0000
vn 1.0000 0.0000 0.0000
vn 1.0000 0.0000 0.0000
vn 1.0000 0.0000 0.0000
vn 1.0000 0.0000 0.0000
vn -1.0000 0.0000 0.0000
vn -1.0000 0.0000 0.0000
vn -1.0000 0.0000 0.0000
vn -1.0000 0.0000 0.0000
vn 0.0000 0.7071 -0.7071
vn 0.0000 0.7071 -0.7071
vn 0.0000 0.7071 -0.7071
vn 0.0000 0.7071 -0.7071
vn 0.0000 0.7071 0.7071
vn 0.0000 0.7071 0.7071
vn 0.0000 0.7071 0.7071
vn 0.0000 0.7071 0.7071
vn 0.0000 -0.7071 -0.7071
vn 0.0000 -0.7071 -0.7071
vn 0.0000 -0.7071 -0.7071
vn 0.0000 -0.7071 -0.7071
vn 0.0000 -0.7071 0.7071
vn 0.0000 -0.7071 0.7071
vn 0.0000 -0.7071 0.7071
vn 0.0000 -0.7071 0.7071
vn -0.7071 -0.7071 0.0000
vn -0.7071 -0.7071 0.0000
vn -0.7071 -0.7071 0.0000
vn -0.7071 -0.7071 0.0000
vn -0.7071 0.7071 0.0000
vn -0.7071 0.7071 0.0000
vn -0.7071 0.7071 0.0000
vn -0.7071 0.7071 0.0000
vn 0.7071 -0.7071 0.0000
vn 0.7071 -0.7071 0.0000
vn 0.7071 -0.7071 0.0000
vn 0.7071 -0.7071 0.0000
vn 0.7071 0.7071 0.0000
vn 0.7071 0.7071 0.0000
vn 0.7071 0.7071 0.0000
vn 0.7071 0.7071 0.0000
vn -0.7071 0.0000 0.7071
vn -0.7071 0.0000 0.7071
vn -0.7071 0.0000 0.7071
vn -0.7071 0.0000 0.7071
vn -0.7071 0.0000 -0.7071
vn -0.7071 0.0000 -0.7071
vn -0.7071 0.0000 -0.7071
vn -0.7071 0.0000 -0.7071
vn 0.7071 0.0000 0.7071
vn 0.7071 0.0000 0.7071
vn 0.7071 0.0000 0.7071
vn 0.7071 0.0000 0.7071
vn 0.7071 0.0000 -0.7071
vn 0.7071 0.0000 -0.7071
vn 0.7071 0.0000 -0.7071
vn 0.7071 0.0000 -0.7071
vn -0.5774 -0.5774 -0.5774
vn -0.5774 -0.5774 -0.5774
vn -0.5774 -0.5774 -0.5774
vn 0.5774 -0.5774 -0.5774
vn 0.5774 -0.5774 -0.5774
vn 0.5774 -0.5774 -0.5774
vn -0.5774 0.5774 -0.5774
vn -0.5774 0.5774 -0.5774
vn -0.5774 0.5774 -0.5774
vn 0.5774 0.5774 -0.5774
vn 0.5774 0.5774 -0.5774
vn 0.5774 0.5774 -0.5774
vn -0.5774 -0.5774 0.5774
vn -0.5774 -0.5774 0.5774
vn -0.5774 -0.5774 0.5774
vn 0.5774 -0.5774 0.5774
vn 0.5774 -0.5774 0.5774
vn 0.5774 -0.5774 0.5774
vn -0.5774 0.5774 0.5774
vn -0.5774 0.5774 0.5774
vn -0.5774 0.5774 0.5774
vn 0.5774 0.5774 0.5774
vn 0.5774 0.5774 0.5774
vn 0.5774 0.5774 0.5774
vn 0.9321 0.3028 0.1988
vn 0.9321 0.3028 0.1988
vn 0.9321 0.3028 0.1988
vn 0.9321 0.3028 0.1988
vn 0.5760 0.7929 0.1988
vn 0.5760 0.7929 0.1988
vn 0.5760 0.7929 0.1988
vn 0.5760 0.7929 0.1988
vn 0.0000 0.9800 0.1988
vn 0.0000 0.9800 0.1988
vn 0.0000 0.9800 0.1988
vn 0.0000 0.9800 0.1988
vn -0.5760 0.7929 0.1988
vn -0.5760 0.7929 0.1988
vn -0.5760 0.7929 0.1988
vn -0.5760 0.7929 0.1988
vn -0.9321 0.3028 0.1988
vn -0.9321 0.3028 0.1988
vn -0.9321 0.3028 0.1988
vn -0.9321 0.3028 0.1988
vn -0.9321 -0.3028 0.1988
vn -0.9321 -0.3028 0.1988
vn -0.9321 -0.3028 0.1988
vn -0.9321 -0.3028 0.1988
vn -0.5760 -0.7929 0.1988
vn -0.5760 -0.7929 0.1988
vn -0.5760 -0.7929 0.1988
vn -0.5760 -0.7929 0.1988
vn -0.0000 -0.9800 0.1988
vn -0.0000 -0.9800 0.1988
vn -0.0000 -0.9800 0.1988
vn -0.0000 -0.9800 0.1988
vn 0.5760 -0.7929 0.1988
vn 0.5760 -0.7929 0.1988
vn 0.5760 -0.7929 0.1988
vn 0.5760 -0.7929 0.1988
vn 0.9321 -0.3028 0.1988
vn 0.9321 -0.3028 0.1988
vn 0.9321 -0.3028 0.1988
vn 0.9321 -0.3028 0.1988
vn 0.9234 0.3825 0.0308
vn 0.9234 0.3825 0.0308
vn 0.9234 0.3825 0.0308
vn 0.9234 0.3825 0.0308
vn 0.3825 0.9234 0.0308
vn 0.3825 0.9234 0.0308
vn 0.3825 0.9234 0.0308
vn 0.3825 0.9234 0.0308
vn -0.3825 0.9234 0.0308
vn -0.3825 0.9234 0.0308
vn -0.3825 0.9234 0.0308
vn -0.3825 0.9234 0.0308
vn -0.9234 0.3825 0.0308
vn -0.9234 0.3825 0.0308
vn -0.9234 0.3825 0.0308
vn -0.9234 0.3825 0.0308
vn -0.9234 -0.3825 0.0308
vn -0.9234 -0.3825 0.0308
vn -0.9234 -0.3825 0.0308
vn -0.9234 -0.3825 0.0308
vn -0.3825 -0.9234 0.0308
vn -0.3825 -0.9234 0.0308
vn -0.3825 -0.9234 0.0308
vn -0.3825 -0.9234 0.0308
vn 0.3825 -0.9234 0.0308
vn 0.3825 -0.9234 0.0308
vn 0.3825 -0.9234 0.0308
vn 0.3825 -0.9234 0.0308
vn 0.9234 -0.3825 0.0308
vn 0.9234 -0.3825 0.0308
vn 0.9234 -0.3825 0.0308
vn 0.9234 -0.3825 0.0308
vn -0.0000 0.0000 -1.0000
vn -0.0000 0.0000 -1.0000
vn -0.0000 0.0000 -1.0000
vn -0.0000 0.0000 -1.0000
vn -0.0000 0.0000 -1.0000
vn -0.0000 0.0000 -1.0000
vn -0.0000 0.0000 -1.0000
vn -0.0000 0.0000 -1.0000
vn 0.0000 0.0000 1.0000
vn 0.0000 0.0000 1.0000
vn 0.0000 0.0000 1.0000
vn 0.0000 0.0000 1.0000
vn 0.0000 0.0000 1.0000
vn 0.0000 0.0000 1.0000
vn 0.0000 0.0000 1.0000
vn 0.0000 0.0000 1.0000
vn 0.9511 0.3090 0.0000
vn 0.9511 0.3090 0.0000
vn 0.9511 0.3090 0.0000
vn 0.9511 0.3090 0.0000
vn 0.5878 0.8090 0.0000
vn 0.5878 0.8090 0.0000
vn 0.5878 0.8090 0.0000
vn 0.5878 0.8090 0.0000
vn 0.0000 1.0000 0.0000
vn 0.0000 1.0000 0.0000
vn 0.0000 1.0000 0.0000
vn 0.0000 1.0000 0.0000
vn -0.5878 0.8090 0.0000
vn -0.5878 0.8090 0.0000
vn -0.5878 0.8090 0.0000
vn -0.5878 0.8090 0.0000
vn -0.9511 0.3090 0.0000
vn -0.9511 0.3090 0.0000
vn -0.9511 0.3090 0.0000
vn -0.9511 0.3090 0.0000
vn -0.9511 -0.3090 0.0000
vn -0.9511 -0.3090 0.0000
vn -0.9511 -0.3090 0.0000
vn -0.9511 -0.3090 0.0000
vn -0.5878 -0.8090 0.0000
vn -0.5878 -0.8090 0.0000
vn -0.5878 -0.8090 0.0000
vn -0.5878 -0.8090 0.0000
vn 0.0000 -1.0000 0.0000
vn 0.0000 -1.0000 0.0000
vn 0.0000 -1.0000 0.0000
vn 0.0000 -1.0000 0.0000
vn 0.5878 -0.8090 0.0000
vn 0.5878 -0.8090 0.0000
vn 0.5878 -0.8090 0.0000
vn 0.5878 -0.8090 0.0000
vn 0.9511 -0.3090 0.0000
vn 0.9511 -0.3090 0.0000
vn 0.9511 -0.3090 0.0000
vn 0.9511 -0.3090 0.0000
vn -0.0000 0.0000 -1.0000
vn -0.0000 0.0000 -1.0000
vn -0.0000 0.0000 -1.0000
vn -0.0000 0.0000 -1.0000
vn -0.0000 0.0000 -1.0000
vn -0.0000 0.0000 -1.0000
vn -0.0000 0.0000 -1.0000
vn -0.0000 0.0000 -1.0000
vn -0.0000 0.0000 -1.0000
vn -0.0000 0.0000 -1.0000
vn 0.0000 0.0000 1.0000
vn 0.0000 0.0000 1.0000
vn 0.0000 0.0000 1.0000
vn 0.0000 0.0000 1.0000
vn 0.0000 0.0000 1.0000
vn 0.0000 0.0000 1.0000
vn 0.0000 0.0000 1.0000
vn 0.0000 0.0000 1.0000
vn 0.0000 0.0000 1.0000
vn 0.0000 0.0000 1.0000
vn 0.9239 0.0000 0.3827
vn 0.9239 0.0000 0.3827
vn 0.9239 0.0000 0.3827
vn 0.9239 0.0000 0.3827
vn 0.3827 0.0000 0.9239
vn 0.3827 0.0000 0.9239
vn 0.3827 0.0000 0.9239
vn 0.3827 0.0000 0.9239
vn -0.3827 0.0000 0.9239
vn -0.3827 0.0000 0.9239
vn -0.3827 0.0000 0.9239
vn -0.3827 0.0000 0.9239
vn -0.9239 0.0000 0.3827
vn -0.9239 0.0000 0.3827
vn -0.9239 0.0000 0.3827
vn -0.9239 0.0000 0.3827
vn -0.9239 0.0000 -0.3827
vn -0.9239 0.0000 -0.3827
vn -0.9239 0.0000 -0.3827
vn -0.9239 0.0000 -0.3827
vn -0.3827 0.0000 -0.9239
vn -0.3827 0.0000 -0.9239
vn -0.3827 0.0000 -0.9239
vn -0.3827 0.0000 -0.9239
vn 0.3827 0.0000 -0.9239
vn 0.3827 0.0000 -0.9239
vn 0.3827 0.0000 -0.9239
vn 0.3827 0.0000 -0.9239
vn 0.9239 0.0000 -0.3827
vn 0.9239 0.0000 -0.3827
vn 0.9239 0.0000 -0.3827
vn 0.9239 0.0000 -0.3827
vn 0.0000 1.0000 -0.0000
vn 0.0000 1.0000 -0.0000
vn 0.0000 1.0000 -0.0000
vn 0.0000 1.0000 -0.0000
vn 0.0000 1.0000 -0.0000
vn 0.0000 1.0000 -0.0000
vn 0.0000 1.0000 -0.0000
vn 0.0000 1.0000 -0.0000
vn 0.0000 -1.0000 0.0000
vn 0.0000 -1.0000 0.0000
vn 0.0000 -1.0000 0.0000
vn 0.0000 -1.0000 0.0000
vn 0.0000 -1.0000 0.0000
vn 0.0000 -1.0000 0.0000
vn 0.0000 -1.0000 0.0000
vn 0.0000 -1.0000 0.0000
vn 0.0000 0.0000 -1.0000
vn 0.0000 0.0000 -1.0000
vn 0.0000 0.0000 -1.0000
vn 0.0000 0.0000 -1.0000
vn 0.0000 0.0000 1.0000
vn 0.0000 0.0000 1.0000
vn 0.0000 0.0000 1.0000
vn 0.0000 0.0000 1.0000
vn 0.0000 1.0000 0.0000
vn 0.0000 1.0000 0.0000
vn 0.0000 1.0000 0.0000
vn 0.0000 1.0000 0.0000
vn 0.0000 -1.0000 0.0000
vn 0.0000 -1.0000 0.0000
vn 0.0000 -1.0000 0.0000
vn 0.0000 -1.0000 0.0000
vn 1.0000 0.0000 0.0000
vn 1.0000 0.0000 0.0000
vn 1.0000 0.0000 0.0000
vn 1.0000 0.0000 0.0000
vn -1.0000 0.0000 0.0000
vn -1.0000 0.0000 0.0000
vn -1.0000 0.0000 0.0000
vn -1.0000 0.0000 0.0000
vn 0.0000 0.7071 -0.7071
vn 0.0000 0.7071 -0.7071
vn 0.0000 0.7071 -0.7071
vn 0.0000 0.7071 -0.7071
vn 0.0000 0.7071 0.7071
vn 0.0000 0.7071 0.7071
vn 0.0000 0.7071 0.7071
vn 0.0000 0.7071 0.7071
vn 0.0000 -0.7071 -0.7071
vn 0.0000 -0.7071 -0.7071
vn 0.0000 -0.7071 -0.7071
vn 0.0000 -0.7071 -0.7071
vn 0.0000 -0.7071 0.7071
vn 0.0000 -0.7071 0.7071
vn 0.0000 -0.7071 0.7071
vn 0.0000 -0.7071 0.7071
vn -0.7071 -0.7071 0.0000
vn -0.7071 -0.7071 0.0000
vn -0.7071 -0.7071 0.0000
vn -0.7071 -0.7071 0.0000
vn -0.7071 0.7071 0.0000
vn -0.7071 0.7071 0.0000
vn -0.7071 0.7071 0.0000
vn -0.7071 0.7071 0.0000
vn 0.7071 -0.7071 0.0000
vn 0.7071 -0.7071 0.0000
vn 0.7071 -0.7071 0.0000
vn 0.7071 -0.7071 0.0000
vn 0.7071 0.7071 0.0000
vn 0.7071 0.7071 0.0000
vn 0.7071 0.7071 0.0000
vn 0.7071 0.7071 0.0000
vn -0.7071 0.0000 0.7071
vn -0.7071 0.0000 0.7071
vn -0.7071 0.0000 0.7071
vn -0.7071 0.0000 0.7071
vn -0.7071 0.0000 -0.7071
vn -0.7071 0.0000 -0.7071
vn -0.7071 0.0000 -0.7071
vn -0.7071 0.0000 -0.7071
vn 0.7071 0.0000 0.7071
vn 0.7071 0.0000 0.7071
vn 0.7071 0.0000 0.7071
vn 0.7071 0.0000 0.7071
vn 0.7071 0.0000 -0.7071
vn 0.7071 0.0000 -0.7071
vn 0.7071 0.0000 -0.7071
vn 0.7071 0.0000 -0.7071
vn -0.5774 -0.5774 -0.5774
vn -0.5774 -0.5774 -0.5774
vn -0.5774 -0.5774 -0.5774
vn 0.5774 -0.5774 -0.5774
vn 0.5774 -0.5774 -0.5774
vn 0.5774 -0.5774 -0.5774
vn -0.5774 0.5774 -0.5774
vn -0.5774 0.5774 -0.5774
vn -0.5774 0.5774 -0.5774
vn 0.5774 0.5774 -0.5774
vn 0.5774 0.5774 -0.5774
vn 0.5774 0.5774 -0.5774
vn -0.5774 -0.5774 0.5774
vn -0.5774 -0.5774 0.5774
vn -0.5774 -0.5774 0.5774
vn 0.5774 -0.5774 0.5774
vn 0.5774 -0.5774 0.5774
vn 0.5774 -0.5774 0.5774
vn -0.5774 0.5774 0.5774
vn -0.5774 0.5774 0.5774
vn -0.5774 0.5774 0.5774
vn 0.5774 0.5774 0.5774
vn 0.5774 0.5774 0.5774
vn 0.5774 0.5774 0.5774
vn 0.0000 0.0000 -1.0000
vn 0.0000 0.0000 -1.0000
vn 0.0000 0.0000 -1.0000
vn 0.0000 0.0000 -1.0000
vn 0.0000 0.0000 1.0000
vn 0.0000 0.0000 1.0000
vn 0.0000 0.0000 1.0000
vn 0.0000 0.0000 1.0000
vn 0.0000 1.0000 0.0000
vn 0.0000 1.0000 0.0000
vn 0.0000 1.0000 0.0000
vn 0.0000 1.0000 0.0000
vn 0.0000 -1.0000 0.0000
vn 0.0000 -1.0000 0.0000
vn 0.0000 -1.0000 0.0000
vn 0.0000 -1.0000 0.0000
vn 1.0000 0.0000 0.0000
vn 1.0000 0.0000 0.0000
vn 1.0000 0.0000 0.0000
vn 1.0000 0.0000 0.0000
vn -1.0000 0.0000 0.0000
vn -1.0000 0.0000 0.0000
vn -1.0000 0.0000 0.0000
vn -1.0000 0.0000 0.0000
vn 0.0000 0.7071 -0.7071
vn 0.0000 0.7071 -0.7071
vn 0.0000 0.7071 -0.7071
vn 0.0000 0.7071 -0.7071
vn 0.0000 0.7071 0.7071
vn 0.0000 0.7071 0.7071
vn 0.0000 0.7071 0.7071
vn 0.0000 0.7071 0.7071
vn 0.0000 -0.7071 -0.7071
vn 0.0000 -0.7071 -0.7071
vn 0.0000 -0.7071 -0.7071
vn 0.0000 -0.7071 -0.7071
vn 0.0000 -0.7071 0.7071
vn 0.0000 -0.7071 0.7071
vn 0.0000 -0.7071 0.7071
vn 0.0000 -0.7071 0.7071
vn -0.7071 -0.7071 0.0000
vn -0.7071 -0.7071 0.0000
vn -0.7071 -0.7071 0.0000
vn -0.7071 -0.7071 0.0000
vn -0.7071 0.7071 0.0000
vn -0.7071 0.7071 0.0000
vn -0.7071 0.7071 0.0000
vn -0.7071 0.7071 0.0000
vn 0.7071 -0.7071 0.0000
vn 0.7071 -0.7071 0.0000
vn 0.7071 -0.7071 0.0000
vn 0.7071 -0.7071 0.0000
vn 0.7071 0.7071 0.0000
vn 0.7071 0.7071 0.0000
vn 0.7071 0.7071 0.0000
vn 0.7071 0.7071 0.0000
vn -0.7071 0.0000 0.7071
vn -0.7071 0.0000 0.7071
vn -0.7071 0.0000 0.7071
vn -0.7071 0.0000 0.7071
vn -0.7071 0.0000 -0.7071
vn -0.7071 0.0000 -0.7071
vn -0.7071 0.0000 -0.7071
vn -0.7071 0.0000 -0.7071
vn 0.7071 0.0000 0.7071
vn 0.7071 0.0000 0.7071
vn 0.7071 0.0000 0.7071
vn 0.7071 0.0000 0.7071
vn 0.7071 0.0000 -0.7071
vn 0.7071 0.0000 -0.7071
vn 0.7071 0.0000 -0.7071
vn 0.7071 0.0000 -0.7071
vn -0.5774 -0.5774 -0.5774
vn -0.5774 -0.5774 -0.5774
vn -0.5774 -0.5774 -0.5774
vn 0.5774 -0.5774 -0.5774
vn 0.5774 -0.5774 -0.5774
vn 0.5774 -0.5774 -0.5774
vn -0.5774 0.5774 -0.5774
vn -0.5774 0.5774 -0.5774
vn -0.5774 0.5774 -0.5774
vn 0.5774 0.5774 -0.5774
vn 0.5774 0.5774 -0.5774
vn 0.5774 0.5774 -0.5774
vn -0.5774 -0.5774 0.5774
vn -0.5774 -0.5774 0.5774
vn -0.5774 -0.5774 0.5774
vn 0.5774 -0.5774 0.5774
vn 0.5774 -0.5774 0.5774
vn 0.5774 -0.5774 0.5774
vn -0.5774 0.5774 0.5774
vn -0.5774 0.5774 0.5774
vn -0.5774 0.5774 0.5774
vn 0.5774 0.5774 0.5774
vn 0.5774 0.5774 0.5774
vn 0.5774 0.5774 0.5774
vn 0.0000 0.0000 -1.0000
vn 0.0000 0.0000 -1.0000
vn 0.0000 0.0000 -1.0000
vn 0.0000 0.0000 -1.0000
vn 0.0000 0.0000 1.0000
vn 0.0000 0.0000 1.0000
vn 0.0000 0.0000 1.0000
vn 0.0000 0.0000 1.0000
vn 0.0000 1.0000 0.0000
vn 0.0000 1.0000 0.0000
vn 0.0000 1.0000 0.0000
vn 0.0000 1.0000 0.0000
vn 0.0000 -1.0000 0.0000
vn 0.0000 -1.0000 0.0000
vn 0.0000 -1.0000 0.0000
vn 0.0000 -1.0000 0.0000
vn 1.0000 0.0000 0.0000
vn 1.0000 0.0000 0.0000
vn 1.0000 0.0000 0.0000
vn 1.0000 0.0000 0.0000
vn -1.0000 0.0000 0.0000
vn -1.0000 0.0000 0.0000
vn -1.0000 0.0000 0.0000
vn -1.0000 0.0000 0.0000
vn 0.0000 0.7071 -0.7071
vn 0.0000 0.7071 -0.7071
vn 0.0000 0.7071 -0.7071
vn 0.0000 0.7071 -0.7071
vn 0.0000 0.7071 0.7071
vn 0.0000 0.7071 0.7071
vn 0.0000 0.7071 0.7071
vn 0.0000 0.7071 0.7071
vn 0.0000 -0.7071 -0.7071
vn 0.0000 -0.7071 -0.7071
vn 0.0000 -0.7071 -0.7071
vn 0.0000 -0.7071 -0.7071
vn 0.0000 -0.7071 0.7071
vn 0.0000 -0.7071 0.7071
vn 0.0000 -0.7071 0.7071
vn 0.0000 -0.7071 0.7071
vn -0.7071 -0.7071 0.0000
vn -0.7071 -0.7071 0.0000
vn -0.7071 -0.7071 0.0000
vn -0.7071 -0.7071 0.0000
vn -0.7071 0.7071 0.0000
vn -0.7071 0.7071 0.0000
vn -0.7071 0.7071 0.0000
vn -0.7071 0.7071 0.0000
vn 0.7071 -0.7071 0.0000
vn 0.7071 -0.7071 0.0000
vn 0.7071 -0.7071 0.0000
vn 0.7071 -0.7071 0.0000
vn 0.7071 0.7071 0.0000
vn 0.7071 0.7071 0.0000
vn 0.7071 0.7071 0.0000
vn 0.7071 0.7071 0.0000
vn -0.7071 0.0000 0.7071
vn -0.7071 0.0000 0.7071
vn -0.7071 0.0000 0.7071
vn -0.7071 0.0000 0.7071
vn -0.7071 0.0000 -0.7071
vn -0.7071 0.0000 -0.7071
vn -0.7071 0.0000 -0.7071
vn -0.7071 0.0000 -0.7071
vn 0.7071 0.0000 0.7071
vn 0.7071 0.0000 0.7071
vn 0.7071 0.0000 0.7071
vn 0.7071 0.0000 0.7071
vn 0.7071 0.0000 -0.7071
vn 0.7071 0.0000 -0.7071
vn 0.7071 0.0000 -0.7071
vn 0.7071 0.0000 -0.7071
vn -0.5774 -0.5774 -0.5774
vn -0.5774 -0.5774 -0.5774
vn -0.5774 -0.5774 -0.5774
vn 0.5774 -0.5774 -0.5774
vn 0.5774 -0.5774 -0.5774
vn 0.5774 -0.5774 -0.5774
vn -0.5774 0.5774 -0.5774
vn -0.5774 0.5774 -0.5774
vn -0.5774 0.5774 -0.5774
vn 0.5774 0.5774 -0.5774
vn 0.5774 0.5774 -0.5774
vn 0.5774 0.5774 -0.5774
vn -0.5774 -0.5774 0.5774
vn -0.5774 -0.5774 0.5774
vn -0.5774 -0.5774 0.5774
vn 0.5774 -0.5774 0.5774
vn 0.5774 -0.5774 0.5774
vn 0.5774 -0.5774 0.5774
vn -0.5774 0.5774 0.5774
vn -0.5774 0.5774 0.5774
vn -0.5774 0.5774 0.5774
vn 0.5774 0.5774 0.5774
vn 0.5774 0.5774 0.5774
vn 0.5774 0.5774 0.5774
vn 0.0000 -0.2955 -0.9553
vn 0.0000 -0.2955 -0.9553
vn 0.0000 -0.2955 -0.9553
vn 0.0000 -0.2955 -0.9553
vn 0.0000 0.2955 0.9553
vn 0.0000 0.2955 0.9553
vn 0.0000 0.2955 0.9553
vn 0.0000 0.2955 0.9553
vn 0.0000 0.9553 -0.2955
vn 0.0000 0.9553 -0.2955
vn 0.0000 0.9553 -0.2955
vn 0.0000 0.9553 -0.2955
vn 0.0000 -0.9553 0.2955
vn 0.0000 -0.9553 0.2955
vn 0.0000 -0.9553 0.2955
vn 0.0000 -0.9553 0.2955
vn 1.0000 0.0000 0.0000
vn 1.0000 0.0000 0.0000
vn 1.0000 0.0000 0.0000
vn 1.0000 0.0000 0.0000
vn -1.0000 0.0000 0.0000
vn -1.0000 0.0000 0.0000
vn -1.0000 0.0000 0.0000
vn -1.0000 0.0000 0.0000
vn 0.0000 0.4666 -0.8845
vn 0.0000 0.4666 -0.8845
vn 0.0000 0.4666 -0.8845
vn 0.0000 0.4666 -0.8845
vn 0.0000 0.8845 0.4666
vn 0.0000 0.8845 0.4666
vn 0.0000 0.8845 0.4666
vn 0.0000 0.8845 0.4666
vn 0.0000 -0.8845 -0.4666
vn 0.0000 -0.8845 -0.4666
vn 0.0000 -0.8845 -0.4666
vn 0.0000 -0.8845 -0.4666
vn 0.0000 -0.4666 0.8845
vn 0.0000 -0.4666 0.8845
vn 0.0000 -0.4666 0.8845
vn 0.0000 -0.4666 0.8845
vn -0.7071 -0.6755 0.2090
vn -0.7071 -0.6755 0.2090
vn -0.7071 -0.6755 0.2090
vn -0.7071 -0.6755 0.2090
vn -0.7071 0.6755 -0.2090
vn -0.7071 0.6755 -0.2090
vn -0.7071 0.6755 -0.2090
vn -0.7071 0.6755 -0.2090
vn 0.7071 -0.6755 0.2090
vn 0.7071 -0.6755 0.2090
vn 0.7071 -0.6755 0.2090
vn 0.7071 -0.6755 0.2090
vn 0.7071 0.6755 -0.2090
vn 0.7071 0.6755 -0.2090
vn 0.7071 0.6755 -0.2090
vn 0.7071 0.6755 -0.2090
vn -0.7071 0.2090 0.6755
vn -0.7071 0.2090 0.6755
vn -0.7071 0.2090 0.6755
vn -0.7071 0.2090 0.6755
vn -0.7071 -0.2090 -0.6755
vn -0.7071 -0.2090 -0.6755
vn -0.7071 -0.2090 -0.6755
vn -0.7071 -0.2090 -0.6755
vn 0.7071 0.2090 0.6755
vn 0.7071 0.2090 0.6755
vn 0.7071 0.2090 0.6755
vn 0.7071 0.2090 0.6755
vn 0.7071 -0.2090 -0.6755
vn 0.7071 -0.2090 -0.6755
vn 0.7071 -0.2090 -0.6755
vn 0.7071 -0.2090 -0.6755
vn -0.5774 -0.7222 -0.3809
vn -0.5774 -0.7222 -0.3809
vn -0.5774 -0.7222 -0.3809
vn 0.5774 -0.7222 -0.3809
vn 0.5774 -0.7222 -0.3809
vn 0.5774 -0.7222 -0.3809
vn -0.5774 0.3809 -0.7222
vn -0.5774 0.3809 -0.7222
vn -0.5774 0.3809 -0.7222
vn 0.5774 0.3809 -0.7222
vn 0.5774 0.3809 -0.7222
vn 0.5774 0.3809 -0.7222
vn -0.5774 -0.3809 0.7222
vn -0.5774 -0.3809 0.7222
vn -0.5774 -0.3809 0.7222
vn 0.5774 -0.3809 0.7222
vn 0.5774 -0.3809 0.7222
vn 0.5774 -0.3809 0.7222
vn -0.5774 0.7222 0.3809
vn -0.5774 0.7222 0.3809
vn -0.5774 0.7222 0.3809
vn 0.5774 0.7222 0.3809
vn 0.5774 0.7222 0.3809
vn 0.5774 0.7222 0.3809
vn 0.0000 0.0000 -1.0000
vn 0.0000 0.0000 -1.0000
vn 0.0000 0.0000 -1.0000
vn 0.0000 0.0000 -1.0000
vn 0.0000 0.0000 1.0000
vn 0.0000 0.0000 1.0000
vn 0.0000 0.0000 1.0000
vn 0.0000 0.0000 1.0000
vn 0.0000 1.0000 0.0000
vn 0.0000 1.0000 0.0000
vn 0.0000 1.0000 0.0000
vn 0.0000 1.0000 0.0000
vn 0.0000 -1.0000 0.0000
vn 0.0000 -1.0000 0.0000
vn 0.0000 -1.0000 0.0000
vn 0.0000 -1.0000 0.0000
vn 1.0000 0.0000 0.0000
vn 1.0000 0.0000 0.0000
vn 1.0000 0.0000 0.0000
vn 1.0000 0.0000 0.0000
vn -1.0000 0.0000 0.0000
vn -1.0000 0.0000 0.0000
vn -1.0000 0.0000 0.0000
vn -1.0000 0.0000 0.0000
vn 0.0000 0.0000 -1.0000
vn 0.0000 0.0000 -1.0000
vn 0.0000 0.0000 -1.0000
vn 0.0000 0.0000 -1.0000
vn 0.0000 0.0000 1.0000
vn 0.0000 0.0000 1.0000
vn 0.0000 0.0000 1.0000
vn 0.0000 0.0000 1.0000
vn 0.0000 1.0000 0.0000
vn 0.0000 1.0000 0.0000
vn 0.0000 1.0000 0.0000
vn 0.0000 1.0000 0.0000
vn 0.0000 -1.0000 0.0000
vn 0.0000 -1.0000 0.0000
vn 0.0000 -1.0000 0.0000
vn 0.0000 -1.0000 0.0000
vn 1.0000 0.0000 0.0000
vn 1.0000 0.0000 0.0000
vn 1.0000 0.0000 0.0000
vn 1.0000 0.0000 0.0000
vn -1.0000 0.0000 0.0000
vn -1.0000 0.0000 0.0000
vn -1.0000 0.0000 0.0000
vn -1.0000 0.0000 0.0000
vn 0.0000 0.0000 -1.0000
vn 0.0000 0.0000 -1.0000
vn 0.0000 0.0000 -1.0000
vn 0.0000 0.0000 -1.0000
vn 0.0000 0.0000 1.0000
vn 0.0000 0.0000 1.0000
vn 0.0000 0.0000 1.0000
vn 0.0000 0.0000 1.0000
vn 0.0000 1.0000 0.0000
vn 0.0000 1.0000 0.0000
vn 0.0000 1.0000 0.0000
vn 0.0000 1.0000 0.0000
vn 0.0000 -1.0000 0.0000
vn 0.0000 -1.0000 0.0000
vn 0.0000 -1.0000 0.0000
vn 0.0000 -1.0000 0.0000
vn 1.0000 0.0000 0.0000
vn 1.0000 0.0000 0.0000
vn 1.0000 0.0000 0.0000
vn 1.0000 0.0000 0.0000
vn -1.0000 0.0000 0.0000
vn -1.0000 0.0000 0.0000
vn -1.0000 0.0000 0.0000
vn -1.0000 0.0000 0.0000
vn 0.0000 0.2764 -0.9611
vn 0.0000 0.2764 -0.9611
vn 0.0000 0.2764 -0.9611
vn 0.0000 0.2764 -0.9611
vn 0.0000 -0.2764 0.9611
vn 0.0000 -0.2764 0.9611
vn 0.0000 -0.2764 0.9611
vn 0.0000 -0.2764 0.9611
vn 0.0000 0.9611 0.2764
vn 0.0000 0.9611 0.2764
vn 0.0000 0.9611 0.2764
vn 0.0000 0.9611 0.2764
vn 0.0000 -0.9611 -0.2764
vn 0.0000 -0.9611 -0.2764
vn 0.0000 -0.9611 -0.2764
vn 0.0000 -0.9611 -0.2764
vn 1.0000 0.0000 0.0000
vn 1.0000 0.0000 0.0000
vn 1.0000 0.0000 0.0000
vn 1.0000 0.0000 0.0000
vn -1.0000 0.0000 0.0000
vn -1.0000 0.0000 0.0000
vn -1.0000 0.0000 0.0000
vn -1.0000 0.0000 0.0000
vn 0.0000 0.3827 -0.9239
vn 0.0000 0.3827 -0.9239
vn 0.0000 0.3827 -0.9239
vn 0.0000 0.3827 -0.9239
vn 0.0000 0.9239 -0.3827
vn 0.0000 0.9239 -0.3827
vn 0.0000 0.9239 -0.3827
vn 0.0000 0.9239 -0.3827
vn 0.0000 0.9239 0.3827
vn 0.0000 0.9239 0.3827
vn 0.0000 0.9239 0.3827
vn 0.0000 0.9239 0.3827
vn 0.0000 0.3827 0.9239
vn 0.0000 0.3827 0.9239
vn 0.0000 0.3827 0.9239
vn 0.0000 0.3827 0.9239
vn 0.0000 -0.3827 0.9239
vn 0.0000 -0.3827 0.9239
vn 0.0000 -0.3827 0.9239
vn 0.0000 -0.3827 0.9239
vn 0.0000 -0.9239 0.3827
vn 0.0000 -0.9239 0.3827
vn 0.0000 -0.9239 0.3827
vn 0.0000 -0.9239 0.3827
vn 0.0000 -0.9239 -0.3827
vn 0.0000 -0.9239 -0.3827
vn 0.0000 -0.9239 -0.3827
vn 0.0000 -0.9239 -0.3827
vn 0.0000 -0.3827 -0.9239
vn 0.0000 -0.3827 -0.9239
vn 0.0000 -0.3827 -0.9239
vn 0.0000 -0.3827 -0.9239
vn -1.0000 0.0000 0.0000
vn -1.0000 0.0000 0.0000
vn -1.0000 0.0000 0.0000
vn -1.0000 0.0000 0.0000
vn -1.0000 0.0000 0.0000
vn -1.0000 0.0000 0.0000
vn -1.0000 0.0000 0.0000
vn -1.0000 0.0000 0.0000
vn 1.0000 0.0000 0.0000
vn 1.0000 0.0000 0.0000
vn 1.0000 0.0000 0.0000
vn 1.0000 0.0000 0.0000
vn 1.0000 0.0000 0.0000
vn 1.0000 0.0000 0.0000
vn 1.0000 0.0000 0.0000
vn 1.0000 0.0000 0.0000
usemtl TF_Weapons_COMMON
f 1/1/1 2/2/2 3/3/3
f 1/1/1 3/3/3 4/4/4
f 5/5/5 6/6/6 7/7/7
f 5/5/5 7/7/7 8/8/8
f 9/9/9 10/10/10 11/11/11
f 9/9/9 11/11/11 12/12/12
f 13/13/13 14/14/14 15/15/15
f 13/13/13 15/15/15 16/16/16
f 17/17/17 18/18/18 19/19/19
f 17/17/17 19/19/19 20/20/20
f 21/21/21 22/22/22 23/23/23
f 21/21/21 23/23/23 24/24/24
f 25/25/25 26/26/26 27/27/27
f 25/25/25 27/27/27 28/28/28
f 29/29/29 30/30/30 31/31/31
f 29/29/29 31/31/31 32/32/32
f 33/33/33 34/34/34 35/35/35
f 33/33/33 35/35/35 36/36/36
f 37/37/37 38/38/38 39/39/39
f 37/37/37 39/39/39 40/40/40
f 41/41/41 42/42/42 43/43/43
f 41/41/41 43/43/43 44/44/44
f 45/45/45 46/46/46 47/47/47
f 45/45/45 47/47/47 48/48/48
f 49/49/49 50/50/50 51/51/51
f 49/49/49 51/51/51 52/52/52
f 53/53/53 54/54/54 55/55/55
f 53/53/53 55/55/55 56/56/56
f 57/57/57 58/58/58 59/59/59
f 57/57/57 59/59/59 60/60/60
f 61/61/61 62/62/62 63/63/63
f 61/61/61 63/63/63 64/64/64
f 65/65/65 66/66/66 67/67/67
f 65/65/65 67/67/67 68/68/68
f 69/69/69 70/70/70 71/71/71
f 69/69/69 71/71/71 72/72/72
f 73/73/73 74/74/74 75/75/75
f 76/76/76 77/77/77 78/78/78
f 79/79/79 80/80/80 81/81/81
f 82/82/82 83/83/83 84/84/84
f 85/85/85 86/86/86 87/87/87
f 88/88/88 89/89/89 90/90/90
f 91/91/91 92/92/92 93/93/93
f 94/94/94 95/95/95 96/96/96
f 97/97/97 98/98/98 99/99/99
f 97/97/97 99/99/99 100/100/100
f 101/101/101 102/102/102 103/103/103
f 101/101/101 103/103/103 104/104/104
f 105/105/105 106/106/106 107/107/107
f 105/105/105 107/107/107 108/108/108
f 109/109/109 110/110/110 111/111/111
f 109/109/109 111/111/111 112/112/112
f 113/113/113 114/114/114 115/115/115
f 113/113/113 115/115/115 116/116/116
f 117/117/117 118/118/118 119/119/119
f 117/117/117 119/119/119 120/120/120
f 121/121/121 122/122/122 123/123/123
f 121/121/121 123/123/123 124/124/124
f 125/125/125 126/126/126 127/127/127
f 125/125/125 127/127/127 128/128/128
f 129/129/129 130/130/130 131/131/131
f 129/129/129 131/131/131 132/132/132
f 133/133/133 134/134/134 135/135/135
f 133/133/133 135/135/135 136/136/136
f 137/137/137 138/138/138 139/139/139
f 137/137/137 139/139/139 140/140/140
f 141/141/141 142/142/142 143/143/143
f 141/141/141 143/143/143 144/144/144
f 145/145/145 146/146/146 147/147/147
f 145/145/145 147/147/147 148/148/148
f 149/149/149 150/150/150 151/151/151
f 149/149/149 151/151/151 152/152/152
f 153/153/153 154/154/154 155/155/155
f 153/153/153 155/155/155 156/156/156
f 157/157/157 158/158/158 159/159/159
f 157/157/157 159/159/159 160/160/160
f 161/161/161 162/162/162 163/163/163
f 161/161/161 163/163/163 164/164/164
f 165/165/165 166/166/166 167/167/167
f 165/165/165 167/167/167 168/168/168
f 169/169/169 170/170/170 171/171/171
f 169/169/169 171/171/171 172/172/172
f 169/169/169 172/172/172 173/173/173
f 169/169/169 173/173/173 174/174/174
f 169/169/169 174/174/174 175/175/175
f 169/169/169 175/175/175 176/176/176
f 177/177/177 178/178/178 179/179/179
f 177/177/177 179/179/179 180/180/180
f 177/177/177 180/180/180 181/181/181
f 177/177/177 181/181/181 182/182/182
f 177/177/177 182/182/182 183/183/183
f 177/177/177 183/183/183 184/184/184
f 185/185/185 186/186/186 187/187/187
f 185/185/185 187/187/187 188/188/188
f 189/189/189 190/190/190 191/191/191
f 189/189/189 191/191/191 192/192/192
f 193/193/193 194/194/194 195/195/195
f 193/193/193 195/195/195 196/196/196
f 197/197/197 198/198/198 199/199/199
f 197/197/197 199/199/199 200/200/200
f 201/201/201 202/202/202 203/203/203
f 201/201/201 203/203/203 204/204/204
f 205/205/205 206/206/206 207/207/207
f 205/205/205 207/207/207 208/208/208
f 209/209/209 210/210/210 211/211/211
f 209/209/209 211/211/211 212/212/212
f 213/213/213 214/214/214 215/215/215
f 213/213/213 215/215/215 216/216/216
f 217/217/217 218/218/218 219/219/219
f 217/217/217 219/219/219 220/220/220
f 221/221/221 222/222/222 223/223/223
f 221/221/221 223/223/223 224/224/224
f 225/225/225 226/226/226 227/227/227
f 225/225/225 227/227/227 228/228/228
f 225/225/225 228/228/228 229/229/229
f 225/225/225 229/229/229 230/230/230
f 225/225/225 230/230/230 231/231/231
f 225/225/225 231/231/231 232/232/232
f 225/225/225 232/232/232 233/233/233
f 225/225/225 233/233/233 234/234/234
f 235/235/235 236/236/236 237/237/237
f 235/235/235 237/237/237 238/238/238
f 235/235/235 238/238/238 239/239/239
f 235/235/235 239/239/239 240/240/240
f 235/235/235 240/240/240 241/241/241
f 235/235/235 241/241/241 242/242/242
f 235/235/235 242/242/242 243/243/243
f 235/235/235 243/243/243 244/244/244
f 245/245/245 246/246/246 247/247/247
f 245/245/245 247/247/247 248/248/248
f 249/249/249 250/250/250 251/251/251
f 249/249/249 251/251/251 252/252/252
f 253/253/253 254/254/254 255/255/255
f 253/253/253 255/255/255 256/256/256
f 257/257/257 258/258/258 259/259/259
f 257/257/257 259/259/259 260/260/260
f 261/261/261 262/262/262 263/263/263
f 261/261/261 263/263/263 264/264/264
f 265/265/265 266/266/266 267/267/267
f 265/265/265 267/267/267 268/268/268
f 269/269/269 270/270/270 271/271/271
f 269/269/269 271/271/271 272/272/272
f 273/273/273 274/274/274 275/275/275
f 273/273/273 275/275/275 276/276/276
f 277/277/277 278/278/278 279/279/279
f 277/277/277 279/279/279 280/280/280
f 277/277/277 280/280/280 281/281/281
f 277/277/277 281/281/281 282/282/282
f 277/277/277 282/282/282 283/283/283
f 277/277/277 283/283/283 284/284/284
f 285/285/285 286/286/286 287/287/287
f 285/285/285 287/287/287 288/288/288
f 285/285/285 288/288/288 289/289/289
f 285/285/285 289/289/289 290/290/290
f 285/285/285 290/290/290 291/291/291
f 285/285/285 291/291/291 292/292/292
f 293/293/293 294/294/294 295/295/295
f 293/293/293 295/295/295 296/296/296
f 297/297/297 298/298/298 299/299/299
f 297/297/297 299/299/299 300/300/300
f 301/301/301 302/302/302 303/303/303
f 301/301/301 303/303/303 304/304/304
f 305/305/305 306/306/306 307/307/307
f 305/305/305 307/307/307 308/308/308
f 309/309/309 310/310/310 311/311/311
f 309/309/309 311/311/311 312/312/312
f 313/313/313 314/314/314 315/315/315
f 313/313/313 315/315/315 316/316/316
f 317/317/317 318/318/318 319/319/319
f 317/317/317 319/319/319 320/320/320
f 321/321/321 322/322/322 323/323/323
f 321/321/321 323/323/323 324/324/324
f 325/325/325 326/326/326 327/327/327
f 325/325/325 327/327/327 328/328/328
f 329/329/329 330/330/330 331/331/331
f 329/329/329 331/331/331 332/332/332
f 333/333/333 334/334/334 335/335/335
f 333/333/333 335/335/335 336/336/336
f 337/337/337 338/338/338 339/339/339
f 337/337/337 339/339/339 340/340/340
f 341/341/341 342/342/342 343/343/343
f 341/341/341 343/343/343 344/344/344
f 345/345/345 346/346/346 347/347/347
f 345/345/345 347/347/347 348/348/348
f 349/349/349 350/350/350 351/351/351
f 349/349/349 351/351/351 352/352/352
f 353/353/353 354/354/354 355/355/355
f 353/353/353 355/355/355 356/356/356
f 357/357/357 358/358/358 359/359/359
f 357/357/357 359/359/359 360/360/360
f 361/361/361 362/362/362 363/363/363
f 361/361/361 363/363/363 364/364/364
f 365/365/365 366/366/366 367/367/367
f 368/368/368 369/369/369 370/370/370
f 371/371/371 372/372/372 373/373/373
f 374/374/374 375/375/375 376/376/376
f 377/377/377 378/378/378 379/379/379
f 380/380/380 381/381/381 382/382/382
f 383/383/383 384/384/384 385/385/385
f 386/386/386 387/387/387 388/388/388
f 389/389/389 390/390/390 391/391/391
f 389/389/389 391/391/391 392/392/392
f 393/393/393 394/394/394 395/395/395
f 393/393/393 395/395/395 396/396/396
f 397/397/397 398/398/398 399/399/399
f 397/397/397 399/399/399 400/400/400
f 401/401/401 402/402/402 403/403/403
f 401/401/401 403/403/403 404/404/404
f 405/405/405 406/406/406 407/407/407
f 405/405/405 407/407/407 408/408/408
f 409/409/409 410/410/410 411/411/411
f 409/409/409 411/411/411 412/412/412
f 413/413/413 414/414/414 415/415/415
f 413/413/413 415/415/415 416/416/416
f 417/417/417 418/418/418 419/419/419
f 417/417/417 419/419/419 420/420/420
f 421/421/421 422/422/422 423/423/423
f 421/421/421 423/423/423 424/424/424
f 425/425/425 426/426/426 427/427/427
f 425/425/425 427/427/427 428/428/428
f 429/429/429 430/430/430 431/431/431
f 429/429/429 431/431/431 432/432/432
f 433/433/433 434/434/434 435/435/435
f 433/433/433 435/435/435 436/436/436
f 437/437/437 438/438/438 439/439/439
f 437/437/437 439/439/439 440/440/440
f 441/441/441 442/442/442 443/443/443
f 441/441/441 443/443/443 444/444/444
f 445/445/445 446/446/446 447/447/447
f 445/445/445 447/447/447 448/448/448
f 449/449/449 450/450/450 451/451/451
f 449/449/449 451/451/451 452/452/452
f 453/453/453 454/454/454 455/455/455
f 453/453/453 455/455/455 456/456/456
f 457/457/457 458/458/458 459/459/459
f 457/457/457 459/459/459 460/460/460
f 461/461/461 462/462/462 463/463/463
f 464/464/464 465/465/465 466/466/466
f 467/467/467 468/468/468 469/469/469
f 470/470/470 471/471/471 472/472/472
f 473/473/473 474/474/474 475/475/475
f 476/476/476 477/477/477 478/478/478
f 479/479/479 480/480/480 481/481/481
f 482/482/482 483/483/483 484/484/484
f 485/485/485 486/486/486 487/487/487
f 485/485/485 487/487/487 488/488/488
f 489/489/489 490/490/490 491/491/491
f 489/489/489 491/491/491 492/492/492
f 493/493/493 494/494/494 495/495/495
f 493/493/493 495/495/495 496/496/496
f 497/497/497 498/498/498 499/499/499
f 497/497/497 499/499/499 500/500/500
f 501/501/501 502/502/502 503/503/503
f 501/501/501 503/503/503 504/504/504
f 505/505/505 506/506/506 507/507/507
f 505/505/505 507/507/507 508/508/508
f 509/509/509 510/510/510 511/511/511
f 509/509/509 511/511/511 512/512/512
f 513/513/513 514/514/514 515/515/515
f 513/513/513 515/515/515 516/516/516
f 517/517/517 518/518/518 519/519/519
f 517/517/517 519/519/519 520/520/520
f 521/521/521 522/522/522 523/523/523
f 521/521/521 523/523/523 524/524/524
f 525/525/525 526/526/526 527/527/527
f 525/525/525 527/527/527 528/528/528
f 529/529/529 530/530/530 531/531/531
f 529/529/529 531/531/531 532/532/532
f 533/533/533 534/534/534 535/535/535
f 533/533/533 535/535/535 536/536/536
f 537/537/537 538/538/538 539/539/539
f 537/537/537 539/539/539 540/540/540
f 541/541/541 542/542/542 543/543/543
f 541/541/541 543/543/543 544/544/544
f 545/545/545 546/546/546 547/547/547
f 545/545/545 547/547/547 548/548/548
f 549/549/549 550/550/550 551/551/551
f 549/549/549 551/551/551 552/552/552
f 553/553/553 554/554/554 555/555/555
f 553/553/553 555/555/555 556/556/556
f 557/557/557 558/558/558 559/559/559
f 560/560/560 561/561/561 562/562/562
f 563/563/563 564/564/564 565/565/565
f 566/566/566 567/567/567 568/568/568
f 569/569/569 570/570/570 571/571/571
f 572/572/572 573/573/573 574/574/574
f 575/575/575 576/576/576 577/577/577
f 578/578/578 579/579/579 580/580/580
f 581/581/581 582/582/582 583/583/583
f 581/581/581 583/583/583 584/584/584
f 585/585/585 586/586/586 587/587/587
f 585/585/585 587/587/587 588/588/588
f 589/589/589 590/590/590 591/591/591
f 589/589/589 591/591/591 592/592/592
f 593/593/593 594/594/594 595/595/595
f 593/593/593 595/595/595 596/596/596
f 597/597/597 598/598/598 599/599/599
f 597/597/597 599/599/599 600/600/600
f 601/601/601 602/602/602 603/603/603
f 601/601/601 603/603/603 604/604/604
f 605/605/605 606/606/606 607/607/607
f 605/605/605 607/607/607 608/608/608
f 609/609/609 610/610/610 611/611/611
f 609/609/609 611/611/611 612/612/612
f 613/613/613 614/614/614 615/615/615
f 613/613/613 615/615/615 616/616/616
f 617/617/617 618/618/618 619/619/619
f 617/617/617 619/619/619 620/620/620
f 621/621/621 622/622/622 623/623/623
f 621/621/621 623/623/623 624/624/624
f 625/625/625 626/626/626 627/627/627
f 625/625/625 627/627/627 628/628/628
f 629/629/629 630/630/630 631/631/631
f 629/629/629 631/631/631 632/632/632
f 633/633/633 634/634/634 635/635/635
f 633/633/633 635/635/635 636/636/636
f 637/637/637 638/638/638 639/639/639
f 637/637/637 639/639/639 640/640/640
f 641/641/641 642/642/642 643/643/643
f 641/641/641 643/643/643 644/644/644
f 645/645/645 646/646/646 647/647/647
f 645/645/645 647/647/647 648/648/648
f 649/649/649 650/650/650 651/651/651
f 649/649/649 651/651/651 652/652/652
f 653/653/653 654/654/654 655/655/655
f 656/656/656 657/657/657 658/658/658
f 659/659/659 660/660/660 661/661/661
f 662/662/662 663/663/663 664/664/664
f 665/665/665 666/666/666 667/667/667
f 668/668/668 669/669/669 670/670/670
f 671/671/671 672/672/672 673/673/673
f 674/674/674 675/675/675 676/676/676
f 677/677/677 678/678/678 679/679/679
f 677/677/677 679/679/679 680/680/680
f 681/681/681 682/682/682 683/683/683
f 681/681/681 683/683/683 684/684/684
f 685/685/685 686/686/686 687/687/687
f 685/685/685 687/687/687 688/688/688
f 689/689/689 690/690/690 691/691/691
f 689/689/689 691/691/691 692/692/692
f 693/693/693 694/694/694 695/695/695
f 693/693/693 695/695/695 696/696/696
f 697/697/697 698/698/698 699/699/699
f 697/697/697 699/699/699 700/700/700
f 701/701/701 702/702/702 703/703/703
f 701/701/701 703/703/703 704/704/704
f 705/705/705 706/706/706 707/707/707
f 705/705/705 707/707/707 708/708/708
f 709/709/709 710/710/710 711/711/711
f 709/709/709 711/711/711 712/712/712
f 713/713/713 714/714/714 715/715/715
f 713/713/713 715/715/715 716/716/716
f 717/717/717 718/718/718 719/719/719
f 717/717/717 719/719/719 720/720/720
f 721/721/721 722/722/722 723/723/723
f 721/721/721 723/723/723 724/724/724
f 725/725/725 726/726/726 727/727/727
f 725/725/725 727/727/727 728/728/728
f 729/729/729 730/730/730 731/731/731
f 729/729/729 731/731/731 732/732/732
f 733/733/733 734/734/734 735/735/735
f 733/733/733 735/735/735 736/736/736
f 737/737/737 738/738/738 739/739/739
f 737/737/737 739/739/739 740/740/740
f 741/741/741 742/742/742 743/743/743
f 741/741/741 743/743/743 744/744/744
f 745/745/745 746/746/746 747/747/747
f 745/745/745 747/747/747 748/748/748
f 749/749/749 750/750/750 751/751/751
f 749/749/749 751/751/751 752/752/752
f 753/753/753 754/754/754 755/755/755
f 753/753/753 755/755/755 756/756/756
f 757/757/757 758/758/758 759/759/759
f 757/757/757 759/759/759 760/760/760
f 761/761/761 762/762/762 763/763/763
f 761/761/761 763/763/763 764/764/764
f 765/765/765 766/766/766 767/767/767
f 765/765/765 767/767/767 768/768/768
f 769/769/769 770/770/770 771/771/771
f 769/769/769 771/771/771 772/772/772
f 773/773/773 774/774/774 775/775/775
f 773/773/773 775/775/775 776/776/776
f 777/777/777 778/778/778 779/779/779
f 777/777/777 779/779/779 780/780/780
f 781/781/781 782/782/782 783/783/783
f 781/781/781 783/783/783 784/784/784
f 785/785/785 786/786/786 787/787/787
f 785/785/785 787/787/787 788/788/788
f 789/789/789 790/790/790 791/791/791
f 789/789/789 791/791/791 792/792/792
f 793/793/793 794/794/794 795/795/795
f 793/793/793 795/795/795 796/796/796
f 797/797/797 798/798/798 799/799/799
f 797/797/797 799/799/799 800/800/800
f 801/801/801 802/802/802 803/803/803
f 801/801/801 803/803/803 804/804/804
f 805/805/805 806/806/806 807/807/807
f 805/805/805 807/807/807 808/808/808
f 805/805/805 808/808/808 809/809/809
f 805/805/805 809/809/809 810/810/810
f 805/805/805 810/810/810 811/811/811
f 805/805/805 811/811/811 812/812/812
f 813/813/813 814/814/814 815/815/815
f 813/813/813 815/815/815 816/816/816
f 813/813/813 816/816/816 817/817/817
f 813/813/813 817/817/817 818/818/818
f 813/813/813 818/818/818 819/819/819
f 813/813/813 819/819/819 820/820/820
