# Repository-original low-poly RPGStarter village ground.
# Layered, upward-facing triangles keep the grass, road, and quest plaza readable.
mtllib village_ground.mtl
o VillageGround
vn 0.000000 1.000000 0.000000

v -18.000000 0.000000 -14.000000
v -18.000000 0.000000 18.000000
v 18.000000 0.000000 18.000000
v 18.000000 0.000000 -14.000000
usemtl VillageGrass
f 1//1 2//1 3//1
f 1//1 3//1 4//1

v -1.350000 0.012000 -14.000000
v -1.350000 0.012000 -0.800000
v 1.350000 0.012000 -0.800000
v 1.350000 0.012000 -14.000000
usemtl VillagePath
f 5//1 6//1 7//1
f 5//1 7//1 8//1

v -5.000000 0.024000 -0.800000
v -5.000000 0.024000 6.600000
v 5.000000 0.024000 6.600000
v 5.000000 0.024000 -0.800000
usemtl VillagePlaza
f 9//1 10//1 11//1
f 9//1 11//1 12//1

v -1.350000 0.012000 6.600000
v -1.350000 0.012000 18.000000
v 1.350000 0.012000 18.000000
v 1.350000 0.012000 6.600000
usemtl VillagePath
f 13//1 14//1 15//1
f 13//1 15//1 16//1

# Two faceted hills close the horizon behind the inn without external assets.
v -16.000000 0.000000 10.000000
v -16.000000 0.000000 18.000000
v -4.000000 0.000000 18.000000
v -4.000000 0.000000 10.000000
v -10.000000 5.200000 14.000000
usemtl VillageHill
f 17//1 18//1 21//1
f 18//1 19//1 21//1
f 19//1 20//1 21//1
f 20//1 17//1 21//1

v 4.000000 0.000000 11.000000
v 4.000000 0.000000 18.000000
v 16.000000 0.000000 18.000000
v 16.000000 0.000000 11.000000
v 10.000000 4.600000 14.500000
usemtl VillageHill
f 22//1 23//1 26//1
f 23//1 24//1 26//1
f 24//1 25//1 26//1
f 25//1 22//1 26//1
