# Blender 5.2.0 LTS
# www.blender.org
mtllib wayfinder_crystal.mtl
g crystal_plinth_Cylinder.053
v 0.000000 0.000000 0.289804
v 0.000000 0.010000 0.300000
v 0.000000 0.002929 0.297014
v 0.000000 0.100000 0.289804
v 0.000000 0.090000 0.300000
v 0.000000 0.097071 0.297014
v -0.110903 0.000000 0.267744
v -0.114805 0.010000 0.277164
v -0.113662 0.002929 0.274405
v -0.110903 0.100000 0.267744
v -0.114805 0.090000 0.277164
v -0.113662 0.097071 0.274405
v -0.204922 0.000000 0.204922
v -0.212132 0.010000 0.212132
v -0.210020 0.002929 0.210020
v -0.204922 0.100000 0.204922
v -0.212132 0.090000 0.212132
v -0.210020 0.097071 0.210020
v -0.267744 0.000000 0.110903
v -0.277164 0.010000 0.114805
v -0.274405 0.002929 0.113662
v -0.267744 0.100000 0.110903
v -0.277164 0.090000 0.114805
v -0.274405 0.097071 0.113662
v -0.289804 0.000000 0.000000
v -0.300000 0.010000 0.000000
v -0.297014 0.002929 0.000000
v -0.289804 0.100000 0.000000
v -0.300000 0.090000 0.000000
v -0.297014 0.097071 0.000000
v -0.267744 0.000000 -0.110903
v -0.277164 0.010000 -0.114805
v -0.274405 0.002929 -0.113662
v -0.267744 0.100000 -0.110903
v -0.277164 0.090000 -0.114805
v -0.274405 0.097071 -0.113662
v -0.204922 0.000000 -0.204922
v -0.212132 0.010000 -0.212132
v -0.210020 0.002929 -0.210020
v -0.204922 0.100000 -0.204922
v -0.212132 0.090000 -0.212132
v -0.210020 0.097071 -0.210020
v -0.110903 0.000000 -0.267744
v -0.114805 0.010000 -0.277164
v -0.113662 0.002929 -0.274405
v -0.110903 0.100000 -0.267744
v -0.114805 0.090000 -0.277164
v -0.113662 0.097071 -0.274405
v 0.000000 0.000000 -0.289804
v 0.000000 0.010000 -0.300000
v 0.000000 0.002929 -0.297014
v 0.000000 0.100000 -0.289804
v 0.000000 0.090000 -0.300000
v 0.000000 0.097071 -0.297014
v 0.110903 0.000000 -0.267744
v 0.114805 0.010000 -0.277164
v 0.113662 0.002929 -0.274405
v 0.110903 0.100000 -0.267744
v 0.114805 0.090000 -0.277164
v 0.113662 0.097071 -0.274405
v 0.204922 0.000000 -0.204922
v 0.212132 0.010000 -0.212132
v 0.210020 0.002929 -0.210020
v 0.204922 0.100000 -0.204922
v 0.212132 0.090000 -0.212132
v 0.210020 0.097071 -0.210020
v 0.267744 0.000000 -0.110903
v 0.277164 0.010000 -0.114805
v 0.274405 0.002929 -0.113662
v 0.267744 0.100000 -0.110903
v 0.277164 0.090000 -0.114805
v 0.274405 0.097071 -0.113662
v 0.289804 0.000000 0.000000
v 0.300000 0.010000 0.000000
v 0.297014 0.002929 0.000000
v 0.289804 0.100000 0.000000
v 0.300000 0.090000 0.000000
v 0.297014 0.097071 0.000000
v 0.267744 0.000000 0.110903
v 0.277164 0.010000 0.114805
v 0.274405 0.002929 0.113662
v 0.267744 0.100000 0.110903
v 0.277164 0.090000 0.114805
v 0.274405 0.097071 0.113662
v 0.204922 0.000000 0.204922
v 0.212132 0.010000 0.212132
v 0.210020 0.002929 0.210020
v 0.204922 0.100000 0.204922
v 0.212132 0.090000 0.212132
v 0.210020 0.097071 0.210020
v 0.110903 0.000000 0.267744
v 0.114805 0.010000 0.277164
v 0.113662 0.002929 0.274405
v 0.110903 0.100000 0.267744
v 0.114805 0.090000 0.277164
v 0.113662 0.097071 0.274405
vn -0.1802 -0.3827 0.9061
vn -0.0747 -0.9239 0.3753
vn -0.1802 0.3827 0.9061
vn -0.0747 0.9239 0.3753
vn -0.5133 -0.3827 0.7682
vn -0.2126 -0.9239 0.3182
vn -0.5133 0.3827 0.7682
vn -0.2126 0.9239 0.3182
vn -0.7682 -0.3827 0.5133
vn -0.3182 -0.9239 0.2126
vn -0.7682 0.3827 0.5133
vn -0.3182 0.9239 0.2126
vn -0.9061 -0.3827 0.1802
vn -0.3753 -0.9239 0.0747
vn -0.9061 0.3827 0.1802
vn -0.3753 0.9239 0.0747
vn -0.9061 -0.3827 -0.1802
vn -0.3753 -0.9239 -0.0747
vn -0.9061 0.3827 -0.1802
vn -0.3753 0.9239 -0.0747
vn -0.7682 -0.3827 -0.5133
vn -0.3182 -0.9239 -0.2126
vn -0.7682 0.3827 -0.5133
vn -0.3182 0.9239 -0.2126
vn -0.5133 -0.3827 -0.7682
vn -0.2126 -0.9239 -0.3182
vn -0.5133 0.3827 -0.7682
vn -0.2126 0.9239 -0.3182
vn -0.1802 -0.3827 -0.9061
vn -0.0747 -0.9239 -0.3753
vn -0.1802 0.3827 -0.9061
vn -0.0747 0.9239 -0.3753
vn 0.1802 -0.3827 -0.9061
vn 0.0747 -0.9239 -0.3753
vn 0.1802 0.3827 -0.9061
vn 0.0747 0.9239 -0.3753
vn 0.5133 -0.3827 -0.7682
vn 0.2126 -0.9239 -0.3182
vn 0.5133 0.3827 -0.7682
vn 0.2126 0.9239 -0.3182
vn 0.7682 -0.3827 -0.5133
vn 0.3182 -0.9239 -0.2126
vn 0.7682 0.3827 -0.5133
vn 0.3182 0.9239 -0.2126
vn 0.9061 -0.3827 -0.1802
vn 0.3753 -0.9239 -0.0747
vn 0.9061 0.3827 -0.1802
vn 0.3753 0.9239 -0.0747
vn 0.9061 -0.3827 0.1802
vn 0.3753 -0.9239 0.0747
vn 0.9061 0.3827 0.1802
vn 0.3753 0.9239 0.0747
vn 0.7682 -0.3827 0.5133
vn 0.3182 -0.9239 0.2126
vn 0.7682 0.3827 0.5133
vn 0.3182 0.9239 0.2126
vn 0.5133 -0.3827 0.7682
vn 0.2126 -0.9239 0.3182
vn 0.5133 0.3827 0.7682
vn 0.2126 0.9239 0.3182
vn 0.1802 -0.3827 0.9061
vn 0.0747 -0.9239 0.3753
vn 0.1802 0.3827 0.9061
vn 0.0747 0.9239 0.3753
vn -0.0000 -1.0000 -0.0000
vn -0.1951 -0.0000 0.9808
vn 0.1951 -0.0000 0.9808
vn -0.0000 1.0000 -0.0000
vn -0.5556 -0.0000 0.8315
vn -0.8315 -0.0000 0.5556
vn -0.9808 -0.0000 0.1951
vn -0.9808 -0.0000 -0.1951
vn -0.8315 -0.0000 -0.5556
vn -0.5556 -0.0000 -0.8315
vn -0.1951 -0.0000 -0.9808
vn 0.1951 -0.0000 -0.9808
vn 0.5556 -0.0000 -0.8315
vn 0.8315 -0.0000 -0.5556
vn 0.9808 -0.0000 -0.1951
vn 0.9808 -0.0000 0.1951
vn 0.8315 -0.0000 0.5556
vn 0.5556 -0.0000 0.8315
vt 0.00000 0.00000
vt 0.00000 0.12500
vt 0.00000 0.25000
vt 0.00000 0.37500
vt 0.00000 0.50000
vt 0.00000 0.55000
vt 0.00000 0.62500
vt 0.00000 0.75000
vt 0.00000 0.87500
vt 0.00000 0.95000
vt 0.00000 1.00000
vt 0.00031 0.50000
vt 0.00031 1.00000
vt 0.01009 0.25000
vt 0.01816 0.25000
vt 0.02835 0.15819
vt 0.02835 0.34181
vt 0.03580 0.16128
vt 0.03580 0.33872
vt 0.04215 0.13000
vt 0.04215 0.37000
vt 0.05000 0.00000
vt 0.05000 0.12500
vt 0.05000 0.25000
vt 0.05000 0.37500
vt 0.05000 0.50000
vt 0.05000 0.62500
vt 0.05000 0.75000
vt 0.05000 0.87500
vt 0.05000 1.00000
vt 0.06250 0.50000
vt 0.06250 0.55000
vt 0.06250 0.95000
vt 0.06250 1.00000
vt 0.08036 0.08036
vt 0.08036 0.41964
vt 0.08606 0.08606
vt 0.08606 0.41394
vt 0.10000 0.00000
vt 0.10000 0.12500
vt 0.10000 0.25000
vt 0.10000 0.37500
vt 0.10000 0.50000
vt 0.10000 0.62500
vt 0.10000 0.75000
vt 0.10000 0.87500
vt 0.10000 1.00000
vt 0.12500 0.50000
vt 0.12500 0.55000
vt 0.12500 0.95000
vt 0.12500 1.00000
vt 0.15000 0.00000
vt 0.15000 0.12500
vt 0.15000 0.25000
vt 0.15000 0.37500
vt 0.15000 0.50000
vt 0.15000 0.62500
vt 0.15000 0.75000
vt 0.15000 0.87500
vt 0.15000 1.00000
vt 0.15819 0.02835
vt 0.15819 0.47165
vt 0.16128 0.03580
vt 0.16128 0.46420
vt 0.16667 0.50000
vt 0.16667 1.00000
vt 0.18750 0.50000
vt 0.18750 0.55000
vt 0.18750 0.95000
vt 0.18750 1.00000
vt 0.20000 0.00000
vt 0.20000 0.12500
vt 0.20000 0.25000
vt 0.20000 0.37500
vt 0.20000 0.50000
vt 0.20000 0.62500
vt 0.20000 0.75000
vt 0.20000 0.87500
vt 0.20000 1.00000
vt 0.25000 0.00000
vt 0.25000 0.01000
vt 0.25000 0.01009
vt 0.25000 0.01816
vt 0.25000 0.12500
vt 0.25000 0.25000
vt 0.25000 0.37500
vt 0.25000 0.48184
vt 0.25000 0.48991
vt 0.25000 0.49000
vt 0.25000 0.50000
vt 0.25000 0.55000
vt 0.25000 0.62500
vt 0.25000 0.75000
vt 0.25000 0.87500
vt 0.25000 0.95000
vt 0.25000 1.00000
vt 0.30000 0.00000
vt 0.30000 0.12500
vt 0.30000 0.25000
vt 0.30000 0.37500
vt 0.30000 0.50000
vt 0.30000 0.62500
vt 0.30000 0.75000
vt 0.30000 0.87500
vt 0.30000 1.00000
vt 0.31250 0.50000
vt 0.31250 0.55000
vt 0.31250 0.95000
vt 0.31250 1.00000
vt 0.33333 0.50000
vt 0.33333 1.00000
vt 0.33872 0.03580
vt 0.33872 0.46420
vt 0.34181 0.02835
vt 0.34181 0.47165
vt 0.35000 0.00000
vt 0.35000 0.12500
vt 0.35000 0.25000
vt 0.35000 0.37500
vt 0.35000 0.50000
vt 0.35000 0.62500
vt 0.35000 0.75000
vt 0.35000 0.87500
vt 0.35000 1.00000
vt 0.37500 0.50000
vt 0.37500 0.55000
vt 0.37500 0.95000
vt 0.37500 1.00000
vt 0.40000 0.00000
vt 0.40000 0.12500
vt 0.40000 0.25000
vt 0.40000 0.37500
vt 0.40000 0.50000
vt 0.40000 0.62500
vt 0.40000 0.75000
vt 0.40000 0.87500
vt 0.40000 1.00000
vt 0.41394 0.08606
vt 0.41394 0.41394
vt 0.41964 0.08036
vt 0.41964 0.41964
vt 0.43750 0.50000
vt 0.43750 0.55000
vt 0.43750 0.95000
vt 0.43750 1.00000
vt 0.45000 0.00000
vt 0.45000 0.12500
vt 0.45000 0.25000
vt 0.45000 0.37500
vt 0.45000 0.50000
vt 0.45000 0.62500
vt 0.45000 0.75000
vt 0.45000 0.87500
vt 0.45000 1.00000
vt 0.45785 0.13000
vt 0.45785 0.37000
vt 0.46420 0.16128
vt 0.46420 0.33872
vt 0.47165 0.15819
vt 0.47165 0.34181
vt 0.48184 0.25000
vt 0.48991 0.25000
vt 0.50000 0.00000
vt 0.50000 0.12500
vt 0.50000 0.25000
vt 0.50000 0.37500
vt 0.50000 0.50000
vt 0.50000 0.55000
vt 0.50000 0.62500
vt 0.50000 0.75000
vt 0.50000 0.87500
vt 0.50000 0.95000
vt 0.50000 1.00000
vt 0.51009 0.25000
vt 0.51816 0.25000
vt 0.52835 0.15819
vt 0.52835 0.34181
vt 0.53580 0.16128
vt 0.53580 0.33872
vt 0.54215 0.13000
vt 0.54215 0.37000
vt 0.55000 0.00000
vt 0.55000 0.12500
vt 0.55000 0.25000
vt 0.55000 0.37500
vt 0.55000 0.50000
vt 0.55000 0.62500
vt 0.55000 0.75000
vt 0.55000 0.87500
vt 0.55000 1.00000
vt 0.56250 0.50000
vt 0.56250 0.55000
vt 0.56250 0.95000
vt 0.56250 1.00000
vt 0.58036 0.08036
vt 0.58036 0.41964
vt 0.58606 0.08606
vt 0.58606 0.41394
vt 0.60000 0.00000
vt 0.60000 0.12500
vt 0.60000 0.25000
vt 0.60000 0.37500
vt 0.60000 0.50000
vt 0.60000 0.62500
vt 0.60000 0.75000
vt 0.60000 0.87500
vt 0.60000 1.00000
vt 0.62500 0.50000
vt 0.62500 0.55000
vt 0.62500 0.95000
vt 0.62500 1.00000
vt 0.65000 0.00000
vt 0.65000 0.12500
vt 0.65000 0.25000
vt 0.65000 0.37500
vt 0.65000 0.50000
vt 0.65000 0.62500
vt 0.65000 0.75000
vt 0.65000 0.87500
vt 0.65000 1.00000
vt 0.65819 0.02835
vt 0.65819 0.47165
vt 0.66128 0.03580
vt 0.66128 0.46420
vt 0.66667 0.50000
vt 0.66667 1.00000
vt 0.68750 0.50000
vt 0.68750 0.55000
vt 0.68750 0.95000
vt 0.68750 1.00000
vt 0.70000 0.00000
vt 0.70000 0.12500
vt 0.70000 0.25000
vt 0.70000 0.37500
vt 0.70000 0.50000
vt 0.70000 0.62500
vt 0.70000 0.75000
vt 0.70000 0.87500
vt 0.70000 1.00000
vt 0.75000 0.00000
vt 0.75000 0.01000
vt 0.75000 0.01009
vt 0.75000 0.01816
vt 0.75000 0.12500
vt 0.75000 0.25000
vt 0.75000 0.37500
vt 0.75000 0.48184
vt 0.75000 0.48991
vt 0.75000 0.49000
vt 0.75000 0.50000
vt 0.75000 0.55000
vt 0.75000 0.62500
vt 0.75000 0.75000
vt 0.75000 0.87500
vt 0.75000 0.95000
vt 0.75000 1.00000
vt 0.80000 0.00000
vt 0.80000 0.12500
vt 0.80000 0.25000
vt 0.80000 0.37500
vt 0.80000 0.50000
vt 0.80000 0.62500
vt 0.80000 0.75000
vt 0.80000 0.87500
vt 0.80000 1.00000
vt 0.81250 0.50000
vt 0.81250 0.55000
vt 0.81250 0.95000
vt 0.81250 1.00000
vt 0.83333 0.50000
vt 0.83333 1.00000
vt 0.83872 0.03580
vt 0.83872 0.46420
vt 0.84181 0.02835
vt 0.84181 0.47165
vt 0.85000 0.00000
vt 0.85000 0.12500
vt 0.85000 0.25000
vt 0.85000 0.37500
vt 0.85000 0.50000
vt 0.85000 0.62500
vt 0.85000 0.75000
vt 0.85000 0.87500
vt 0.85000 1.00000
vt 0.87500 0.50000
vt 0.87500 0.55000
vt 0.87500 0.95000
vt 0.87500 1.00000
vt 0.90000 0.00000
vt 0.90000 0.12500
vt 0.90000 0.25000
vt 0.90000 0.37500
vt 0.90000 0.50000
vt 0.90000 0.62500
vt 0.90000 0.75000
vt 0.90000 0.87500
vt 0.90000 1.00000
vt 0.91394 0.08606
vt 0.91394 0.41394
vt 0.91964 0.08036
vt 0.91964 0.41964
vt 0.93750 0.50000
vt 0.93750 0.55000
vt 0.93750 0.95000
vt 0.93750 1.00000
vt 0.95000 0.00000
vt 0.95000 0.12500
vt 0.95000 0.25000
vt 0.95000 0.37500
vt 0.95000 0.50000
vt 0.95000 0.62500
vt 0.95000 0.75000
vt 0.95000 0.87500
vt 0.95000 1.00000
vt 0.95785 0.13000
vt 0.95785 0.37000
vt 0.96420 0.16128
vt 0.96420 0.33872
vt 0.97165 0.15819
vt 0.97165 0.34181
vt 0.98184 0.25000
vt 0.98991 0.25000
vt 0.99969 0.50000
vt 0.99969 1.00000
vt 1.00000 0.00000
vt 1.00000 0.12500
vt 1.00000 0.25000
vt 1.00000 0.37500
vt 1.00000 0.50000
vt 1.00000 0.55000
vt 1.00000 0.62500
vt 1.00000 0.75000
vt 1.00000 0.87500
vt 1.00000 0.95000
vt 1.00000 1.00000
s 0
g crystal_plinth_M_stone
usemtl M_stone
f 11/304/3 5/334/3 6/324/3
f 11/304/3 6/324/3 12/305/3
f 11/304/69 14/286/69 8/303/69
f 11/304/69 17/287/69 14/286/69
f 11/304/7 12/305/7 18/288/7
f 11/304/7 18/288/7 17/287/7
f 12/115/8 10/113/8 16/139/8
f 12/115/8 16/139/8 18/141/8
f 14/286/5 15/285/5 9/302/5
f 14/286/5 9/302/5 8/303/5
f 15/301/6 13/299/6 7/273/6
f 15/301/6 7/273/6 9/275/6
f 16/139/68 10/113/68 4/87/68
f 16/139/68 4/87/68 88/38/68
f 16/139/68 88/38/68 64/37/68
f 17/287/11 18/288/11 24/269/11
f 17/287/11 24/269/11 23/268/11
f 17/287/70 20/267/70 14/286/70
f 17/287/70 23/268/70 20/267/70
f 18/141/12 16/139/12 22/158/12
f 18/141/12 22/158/12 24/160/12
f 19/318/65 25/321/65 31/317/65
f 19/318/65 31/317/65 43/272/65
f 20/267/13 26/251/13 27/250/13
f 20/267/13 27/250/13 21/266/13
f 20/267/9 15/285/9 14/286/9
f 20/267/9 21/266/9 15/285/9
f 21/320/10 13/299/10 15/301/10
f 21/320/10 19/318/10 13/299/10
f 23/268/15 24/269/15 30/256/15
f 23/268/15 30/256/15 29/255/15
f 23/268/71 26/251/71 20/267/71
f 23/268/71 29/255/71 26/251/71
f 24/160/16 22/158/16 28/161/16
f 24/160/16 28/161/16 30/162/16
f 27/322/14 19/318/14 21/320/14
f 27/322/14 25/321/14 19/318/14
f 28/161/68 22/158/68 16/139/68
f 29/255/72 32/228/72 26/251/72
f 29/255/72 35/229/72 32/228/72
f 3/248/62 1/247/62 91/224/62
f 3/248/62 91/224/62 93/222/62
f 30/162/20 28/161/20 34/157/20
f 30/162/20 34/157/20 36/159/20
f 31/317/65 37/298/65 43/272/65
f 32/228/17 27/250/17 26/251/17
f 32/228/17 33/227/17 27/250/17
f 33/319/18 25/321/18 27/322/18
f 33/319/18 31/317/18 25/321/18
f 35/229/19 29/255/19 30/256/19
f 35/229/19 30/256/19 36/230/19
f 35/229/23 36/230/23 42/211/23
f 35/229/23 42/211/23 41/210/23
f 35/229/73 38/209/73 32/228/73
f 35/229/73 41/210/73 38/209/73
f 36/159/24 34/157/24 40/138/24
f 36/159/24 40/138/24 42/140/24
f 38/209/21 33/227/21 32/228/21
f 38/209/21 39/208/21 33/227/21
f 39/300/22 31/317/22 33/319/22
f 39/300/22 37/298/22 31/317/22
f 4/87/68 94/64/68 88/38/68
f 40/138/68 28/161/68 16/139/68
f 40/138/68 34/157/68 28/161/68
f 41/210/27 42/211/27 48/194/27
f 41/210/27 48/194/27 47/193/27
f 41/210/74 44/192/74 38/209/74
f 41/210/74 47/193/74 44/192/74
f 42/140/28 40/138/28 46/112/28
f 42/140/28 46/112/28 48/114/28
f 43/272/65 49/243/65 55/223/65
f 43/272/65 55/223/65 67/178/65
f 43/272/65 67/178/65 91/224/65
f 44/192/25 39/208/25 38/209/25
f 44/192/25 45/191/25 39/208/25
f 44/192/29 50/168/29 51/167/29
f 44/192/29 51/167/29 45/191/29
f 45/274/26 37/298/26 39/300/26
f 45/274/26 43/272/26 37/298/26
f 47/193/31 48/194/31 54/173/31
f 47/193/31 54/173/31 53/172/31
f 47/193/75 50/168/75 44/192/75
f 47/193/75 53/172/75 50/168/75
f 48/114/32 46/112/32 52/83/32
f 48/114/32 52/83/32 54/82/32
f 5/334/66 11/304/66 8/303/66
f 5/334/66 8/303/66 2/330/66
f 51/242/30 43/272/30 45/274/30
f 51/242/30 49/243/30 43/272/30
f 52/83/68 46/112/68 40/138/68
f 53/172/76 56/143/76 50/168/76
f 53/172/76 59/144/76 56/143/76
f 54/82/36 52/83/36 58/63/36
f 54/82/36 58/63/36 60/61/36
f 55/223/65 61/197/65 67/178/65
f 56/143/33 51/167/33 50/168/33
f 56/143/33 57/142/33 51/167/33
f 57/221/34 49/243/34 51/242/34
f 57/221/34 55/223/34 49/243/34
f 59/144/35 53/172/35 54/173/35
f 59/144/35 54/173/35 60/145/35
f 59/144/39 60/145/39 66/128/39
f 59/144/39 66/128/39 65/127/39
f 59/144/77 62/126/77 56/143/77
f 59/144/77 65/127/77 62/126/77
f 6/88/4 10/113/4 12/115/4
f 6/88/4 4/87/4 10/113/4
f 60/61/40 58/63/40 64/37/40
f 60/61/40 64/37/40 66/35/40
f 62/126/37 57/142/37 56/143/37
f 62/126/37 63/125/37 57/142/37
f 63/195/38 55/223/38 57/221/38
f 63/195/38 61/197/38 55/223/38
f 64/37/68 40/138/68 16/139/68
f 64/37/68 52/83/68 40/138/68
f 64/37/68 58/63/68 52/83/68
f 65/127/43 66/128/43 72/109/43
f 65/127/43 72/109/43 71/108/43
f 65/127/78 68/107/78 62/126/78
f 65/127/78 71/108/78 68/107/78
f 66/35/44 64/37/44 70/18/44
f 66/35/44 70/18/44 72/16/44
f 67/178/65 73/175/65 79/179/65
f 67/178/65 79/179/65 91/224/65
f 68/107/41 63/125/41 62/126/41
f 68/107/41 69/106/41 63/125/41
f 68/107/45 74/91/45 75/90/45
f 68/107/45 75/90/45 69/106/45
f 69/176/42 61/197/42 63/195/42
f 69/176/42 67/178/42 61/197/42
f 7/273/65 13/299/65 19/318/65
f 71/108/47 72/109/47 78/96/47
f 71/108/47 78/96/47 77/95/47
f 71/108/79 74/91/79 68/107/79
f 71/108/79 77/95/79 74/91/79
f 72/16/48 70/18/48 76/15/48
f 72/16/48 76/15/48 78/14/48
f 75/174/46 67/178/46 69/176/46
f 75/174/46 73/175/46 67/178/46
f 76/15/68 70/18/68 64/37/68
f 77/95/80 80/68/80 74/91/80
f 77/95/80 83/69/80 80/68/80
f 78/14/52 76/15/52 82/19/52
f 78/14/52 82/19/52 84/17/52
f 79/179/65 85/198/65 91/224/65
f 8/303/1 3/323/1 2/330/1
f 8/303/1 9/302/1 3/323/1
f 80/68/49 75/90/49 74/91/49
f 80/68/49 81/67/49 75/90/49
f 81/177/50 73/175/50 75/174/50
f 81/177/50 79/179/50 73/175/50
f 83/69/51 77/95/51 78/96/51
f 83/69/51 78/96/51 84/70/51
f 83/69/55 84/70/55 90/51/55
f 83/69/55 90/51/55 89/50/55
f 83/69/81 86/49/81 80/68/81
f 83/69/81 89/50/81 86/49/81
f 84/17/56 82/19/56 88/38/56
f 84/17/56 88/38/56 90/36/56
f 86/49/53 81/67/53 80/68/53
f 86/49/53 87/48/53 81/67/53
f 87/196/54 79/179/54 81/177/54
f 87/196/54 85/198/54 79/179/54
f 88/38/68 76/15/68 64/37/68
f 88/38/68 82/19/68 76/15/68
f 89/50/59 90/51/59 96/34/59
f 89/50/59 96/34/59 95/33/59
f 89/50/82 92/32/82 86/49/82
f 89/50/82 95/33/82 92/32/82
f 9/275/2 1/247/2 3/248/2
f 9/275/2 7/273/2 1/247/2
f 90/36/60 88/38/60 94/64/60
f 90/36/60 94/64/60 96/62/60
f 91/224/65 1/247/65 7/273/65
f 91/224/65 19/318/65 43/272/65
f 91/224/65 7/273/65 19/318/65
f 92/32/57 87/48/57 86/49/57
f 92/32/57 93/31/57 87/48/57
f 92/32/61 2/6/61 3/12/61
f 92/32/61 3/12/61 93/31/61
f 93/222/58 85/198/58 87/196/58
f 93/222/58 91/224/58 85/198/58
f 95/33/63 6/13/63 5/10/63
f 95/33/63 96/34/63 6/13/63
f 95/33/67 2/6/67 92/32/67
f 95/33/67 5/10/67 2/6/67
f 96/62/64 4/87/64 6/88/64
f 96/62/64 94/64/64 4/87/64
g crystal_lower_Cone.016
v 0.000000 0.100000 0.170000
v 0.000000 0.440000 0.100000
v -0.147224 0.100000 0.085000
v -0.086603 0.440000 0.050000
v -0.147224 0.100000 -0.085000
v -0.086603 0.440000 -0.050000
v 0.000000 0.100000 -0.170000
v 0.000000 0.440000 -0.100000
v 0.147224 0.100000 -0.085000
v 0.086603 0.440000 -0.050000
v 0.147224 0.100000 0.085000
v 0.086603 0.440000 0.050000
vn -0.4922 0.1755 0.8526
vn -0.9845 0.1755 -0.0000
vn -0.4922 0.1755 -0.8526
vn 0.4922 0.1755 -0.8526
vn -0.0000 1.0000 -0.0000
vn 0.9845 0.1755 -0.0000
vn 0.4922 0.1755 0.8526
vn -0.0000 -1.0000 -0.0000
s 0
g crystal_lower_M_purple
usemtl M_purple
f 100/271/84 101/225/84 99/270/84
f 100/271/84 102/226/84 101/225/84
f 102/155/87 100/156/87 98/89/87
f 102/226/85 103/167/85 101/225/85
f 102/226/85 104/173/85 103/167/85
f 103/241/90 105/180/90 107/181/90
f 104/173/86 105/110/86 103/167/86
f 104/173/86 106/111/86 105/110/86
f 106/111/88 107/65/88 105/110/88
f 106/111/88 108/66/88 107/65/88
f 106/20/87 104/81/87 102/155/87
f 107/181/90 97/249/90 99/316/90
f 108/66/89 97/5/89 107/65/89
f 108/66/89 98/11/89 97/5/89
f 98/335/83 100/271/83 99/270/83
f 98/335/83 99/270/83 97/329/83
f 98/89/87 106/20/87 102/155/87
f 98/89/87 108/21/87 106/20/87
f 99/316/90 101/315/90 103/241/90
f 99/316/90 103/241/90 107/181/90
g crystal_upper_Cone.017
v 0.000000 0.440000 0.100000
v -0.086603 0.440000 0.050000
v -0.086603 0.440000 -0.050000
v 0.000000 0.440000 -0.100000
v 0.086603 0.440000 -0.050000
v 0.086603 0.440000 0.050000
v 0.000000 0.840000 0.000000
vn -0.4887 0.2116 0.8464
vn -0.9774 0.2116 -0.0000
vn -0.4887 0.2116 -0.8464
vn 0.4887 0.2116 -0.8464
vn -0.0000 -1.0000 -0.0000
vn 0.9774 0.2116 -0.0000
vn 0.4887 0.2116 0.8464
s 0
g crystal_upper_M_cyan
usemtl M_cyan
f 109/89/91 115/85/91 110/156/91
f 110/156/92 115/85/92 111/155/92
f 110/316/95 111/315/95 112/241/95
f 110/316/95 112/241/95 114/181/95
f 111/155/93 115/85/93 112/81/93
f 112/241/95 113/180/95 114/181/95
f 112/81/94 115/85/94 113/20/94
f 113/20/96 115/85/96 114/21/96
f 114/181/95 109/249/95 110/316/95
f 114/21/97 115/85/97 109/89/97
g crystal_aura_Torus.009
v -0.296000 0.440000 0.000000
v -0.288385 0.458385 0.000000
v -0.270000 0.466000 0.000000
v -0.251615 0.458385 0.000000
v -0.244000 0.440000 0.000000
v -0.251615 0.421615 0.000000
v -0.270000 0.414000 0.000000
v -0.288385 0.421615 0.000000
v -0.281513 0.440000 0.091469
v -0.274270 0.458385 0.089116
v -0.256785 0.466000 0.083435
v -0.239300 0.458385 0.077753
v -0.232058 0.440000 0.075400
v -0.239300 0.421615 0.077753
v -0.256785 0.414000 0.083435
v -0.274270 0.421615 0.089116
v -0.239469 0.440000 0.173984
v -0.233308 0.458385 0.169508
v -0.218435 0.466000 0.158702
v -0.203561 0.458385 0.147896
v -0.197400 0.440000 0.143420
v -0.203561 0.421615 0.147896
v -0.218435 0.414000 0.158702
v -0.233308 0.421615 0.169508
v -0.173984 0.440000 0.239469
v -0.169508 0.458385 0.233308
v -0.158702 0.466000 0.218435
v -0.147896 0.458385 0.203561
v -0.143420 0.440000 0.197400
v -0.147896 0.421615 0.203561
v -0.158702 0.414000 0.218435
v -0.169508 0.421615 0.233308
v -0.091469 0.440000 0.281513
v -0.089116 0.458385 0.274270
v -0.083435 0.466000 0.256785
v -0.077753 0.458385 0.239300
v -0.075400 0.440000 0.232058
v -0.077753 0.421615 0.239300
v -0.083435 0.414000 0.256785
v -0.089116 0.421615 0.274270
v -0.000000 0.440000 0.296000
v -0.000000 0.458385 0.288385
v -0.000000 0.466000 0.270000
v -0.000000 0.458385 0.251615
v -0.000000 0.440000 0.244000
v -0.000000 0.421615 0.251615
v -0.000000 0.414000 0.270000
v -0.000000 0.421615 0.288385
v 0.091469 0.440000 0.281513
v 0.089116 0.458385 0.274270
v 0.083435 0.466000 0.256785
v 0.077753 0.458385 0.239300
v 0.075400 0.440000 0.232058
v 0.077753 0.421615 0.239300
v 0.083435 0.414000 0.256785
v 0.089116 0.421615 0.274270
v 0.173984 0.440000 0.239469
v 0.169508 0.458385 0.233308
v 0.158702 0.466000 0.218435
v 0.147896 0.458385 0.203561
v 0.143420 0.440000 0.197400
v 0.147896 0.421615 0.203561
v 0.158702 0.414000 0.218435
v 0.169508 0.421615 0.233308
v 0.239469 0.440000 0.173984
v 0.233308 0.458385 0.169508
v 0.218435 0.466000 0.158702
v 0.203561 0.458385 0.147896
v 0.197400 0.440000 0.143420
v 0.203561 0.421615 0.147896
v 0.218435 0.414000 0.158702
v 0.233308 0.421615 0.169508
v 0.281513 0.440000 0.091469
v 0.274270 0.458385 0.089116
v 0.256785 0.466000 0.083435
v 0.239300 0.458385 0.077753
v 0.232058 0.440000 0.075400
v 0.239300 0.421615 0.077753
v 0.256785 0.414000 0.083435
v 0.274270 0.421615 0.089116
v 0.296000 0.440000 0.000000
v 0.288385 0.458385 0.000000
v 0.270000 0.466000 0.000000
v 0.251615 0.458385 0.000000
v 0.244000 0.440000 0.000000
v 0.251615 0.421615 0.000000
v 0.270000 0.414000 0.000000
v 0.288385 0.421615 0.000000
v 0.281513 0.440000 -0.091469
v 0.274270 0.458385 -0.089116
v 0.256785 0.466000 -0.083434
v 0.239300 0.458385 -0.077753
v 0.232058 0.440000 -0.075400
v 0.239300 0.421615 -0.077753
v 0.256785 0.414000 -0.083434
v 0.274270 0.421615 -0.089116
v 0.239469 0.440000 -0.173984
v 0.233308 0.458385 -0.169508
v 0.218435 0.466000 -0.158702
v 0.203561 0.458385 -0.147896
v 0.197400 0.440000 -0.143420
v 0.203561 0.421615 -0.147896
v 0.218435 0.414000 -0.158702
v 0.233308 0.421615 -0.169508
v 0.173984 0.440000 -0.239469
v 0.169508 0.458385 -0.233308
v 0.158702 0.466000 -0.218435
v 0.147896 0.458385 -0.203561
v 0.143420 0.440000 -0.197400
v 0.147896 0.421615 -0.203561
v 0.158702 0.414000 -0.218435
v 0.169508 0.421615 -0.233308
v 0.091469 0.440000 -0.281513
v 0.089116 0.458385 -0.274270
v 0.083435 0.466000 -0.256785
v 0.077753 0.458385 -0.239300
v 0.075400 0.440000 -0.232058
v 0.077753 0.421615 -0.239300
v 0.083435 0.414000 -0.256785
v 0.089116 0.421615 -0.274270
v -0.000000 0.440000 -0.296000
v -0.000000 0.458385 -0.288385
v -0.000000 0.466000 -0.270000
v -0.000000 0.458385 -0.251615
v -0.000000 0.440000 -0.244000
v -0.000000 0.421615 -0.251615
v -0.000000 0.414000 -0.270000
v -0.000000 0.421615 -0.288385
v -0.091469 0.440000 -0.281513
v -0.089116 0.458385 -0.274270
v -0.083435 0.466000 -0.256785
v -0.077753 0.458385 -0.239300
v -0.075400 0.440000 -0.232058
v -0.077753 0.421615 -0.239300
v -0.083435 0.414000 -0.256785
v -0.089116 0.421615 -0.274270
v -0.173984 0.440000 -0.239469
v -0.169508 0.458385 -0.233308
v -0.158702 0.466000 -0.218435
v -0.147896 0.458385 -0.203561
v -0.143419 0.440000 -0.197400
v -0.147896 0.421615 -0.203561
v -0.158702 0.414000 -0.218435
v -0.169508 0.421615 -0.233308
v -0.239469 0.440000 -0.173985
v -0.233308 0.458385 -0.169508
v -0.218435 0.466000 -0.158702
v -0.203561 0.458385 -0.147896
v -0.197400 0.440000 -0.143420
v -0.203561 0.421615 -0.147896
v -0.218435 0.414000 -0.158702
v -0.233308 0.421615 -0.169508
v -0.281513 0.440000 -0.091469
v -0.274270 0.458385 -0.089116
v -0.256785 0.466000 -0.083435
v -0.239300 0.458385 -0.077753
v -0.232058 0.440000 -0.075400
v -0.239300 0.421615 -0.077753
v -0.256785 0.414000 -0.083435
v -0.274270 0.421615 -0.089116
vn -1.0000 -0.0000 -0.0000
vn -0.7252 0.6885 -0.0000
vn -0.0382 0.9993 -0.0000
vn 0.6870 0.7267 -0.0000
vn 1.0000 -0.0000 -0.0000
vn 0.6870 -0.7267 -0.0000
vn -0.0382 -0.9993 -0.0000
vn -0.7252 -0.6885 -0.0000
vn -0.9511 -0.0000 0.3090
vn -0.6897 0.6885 0.2241
vn -0.0363 0.9993 0.0118
vn 0.6533 0.7267 -0.2123
vn 0.9511 -0.0000 -0.3090
vn 0.6533 -0.7267 -0.2123
vn -0.0363 -0.9993 0.0118
vn -0.6897 -0.6885 0.2241
vn -0.8090 -0.0000 0.5878
vn -0.5867 0.6885 0.4263
vn -0.0309 0.9993 0.0225
vn 0.5558 0.7267 -0.4038
vn 0.8090 -0.0000 -0.5878
vn 0.5558 -0.7267 -0.4038
vn -0.0309 -0.9993 0.0225
vn -0.5867 -0.6885 0.4263
vn -0.5878 -0.0000 0.8090
vn -0.4263 0.6885 0.5867
vn -0.0225 0.9993 0.0309
vn 0.4038 0.7267 -0.5558
vn 0.5878 -0.0000 -0.8090
vn 0.4038 -0.7267 -0.5558
vn -0.0225 -0.9993 0.0309
vn -0.4263 -0.6885 0.5867
vn -0.3090 -0.0000 0.9511
vn -0.2241 0.6885 0.6897
vn -0.0118 0.9993 0.0363
vn 0.2123 0.7267 -0.6533
vn 0.3090 -0.0000 -0.9511
vn 0.2123 -0.7267 -0.6533
vn -0.0118 -0.9993 0.0363
vn -0.2241 -0.6885 0.6897
vn -0.0000 -0.0000 1.0000
vn -0.0000 0.6885 0.7252
vn -0.0000 0.9993 0.0382
vn -0.0000 0.7267 -0.6870
vn -0.0000 -0.0000 -1.0000
vn -0.0000 -0.7267 -0.6870
vn -0.0000 -0.9993 0.0382
vn -0.0000 -0.6885 0.7252
vn 0.3090 -0.0000 0.9511
vn 0.2241 0.6885 0.6897
vn 0.0118 0.9993 0.0364
vn -0.2123 0.7267 -0.6533
vn -0.3090 -0.0000 -0.9511
vn -0.2123 -0.7267 -0.6533
vn 0.0118 -0.9993 0.0363
vn 0.2241 -0.6885 0.6897
vn 0.5878 -0.0000 0.8090
vn 0.4263 0.6885 0.5867
vn 0.0225 0.9993 0.0309
vn -0.4038 0.7267 -0.5558
vn -0.5878 -0.0000 -0.8090
vn -0.4038 -0.7267 -0.5558
vn 0.0225 -0.9993 0.0309
vn 0.4263 -0.6885 0.5867
vn 0.8090 -0.0000 0.5878
vn 0.5867 0.6885 0.4263
vn 0.0309 0.9993 0.0225
vn -0.5558 0.7267 -0.4038
vn -0.8090 -0.0000 -0.5878
vn -0.5558 -0.7267 -0.4038
vn 0.0309 -0.9993 0.0225
vn 0.5867 -0.6885 0.4263
vn 0.9511 -0.0000 0.3090
vn 0.6897 0.6885 0.2241
vn 0.0363 0.9993 0.0118
vn -0.6533 0.7267 -0.2123
vn -0.9511 -0.0000 -0.3090
vn -0.6533 -0.7267 -0.2123
vn 0.0363 -0.9993 0.0118
vn 0.6897 -0.6885 0.2241
vn 0.7252 0.6885 -0.0000
vn 0.0382 0.9993 -0.0000
vn -0.6870 0.7267 -0.0000
vn -0.6870 -0.7267 -0.0000
vn 0.0382 -0.9993 -0.0000
vn 0.7252 -0.6885 -0.0000
vn 0.6897 0.6885 -0.2241
vn 0.0363 0.9993 -0.0118
vn -0.6533 0.7267 0.2123
vn -0.6533 -0.7267 0.2123
vn 0.0363 -0.9993 -0.0118
vn 0.6897 -0.6885 -0.2241
vn 0.5867 0.6885 -0.4263
vn 0.0309 0.9993 -0.0225
vn -0.5558 0.7267 0.4038
vn -0.5558 -0.7267 0.4038
vn 0.0309 -0.9993 -0.0225
vn 0.5867 -0.6885 -0.4263
vn 0.4263 0.6885 -0.5867
vn 0.0225 0.9993 -0.0309
vn -0.4038 0.7267 0.5558
vn -0.4038 -0.7267 0.5558
vn 0.0225 -0.9993 -0.0309
vn 0.4263 -0.6885 -0.5867
vn 0.2241 0.6885 -0.6897
vn 0.0118 0.9993 -0.0363
vn -0.2123 0.7267 0.6533
vn -0.2123 -0.7267 0.6533
vn 0.0118 -0.9993 -0.0364
vn 0.2241 -0.6885 -0.6897
vn -0.0000 0.6885 -0.7252
vn -0.0000 0.9993 -0.0382
vn -0.0000 0.7267 0.6870
vn -0.0000 -0.7267 0.6870
vn -0.0000 -0.9993 -0.0382
vn -0.0000 -0.6885 -0.7252
vn -0.2241 0.6885 -0.6897
vn -0.0118 0.9993 -0.0363
vn 0.2123 0.7267 0.6533
vn 0.2123 -0.7267 0.6533
vn -0.0118 -0.9993 -0.0364
vn -0.2241 -0.6885 -0.6897
vn -0.4263 0.6885 -0.5867
vn -0.0225 0.9993 -0.0309
vn 0.4038 0.7267 0.5558
vn 0.4038 -0.7267 0.5558
vn -0.0225 -0.9993 -0.0309
vn -0.4263 -0.6885 -0.5867
vn -0.5867 0.6885 -0.4263
vn -0.0309 0.9993 -0.0225
vn 0.5558 0.7267 0.4038
vn 0.5558 -0.7267 0.4038
vn -0.0309 -0.9993 -0.0225
vn -0.5867 -0.6885 -0.4263
vn -0.6897 0.6885 -0.2241
vn -0.0363 0.9993 -0.0118
vn 0.6533 0.7267 0.2123
vn 0.6533 -0.7267 0.2123
vn -0.0363 -0.9993 -0.0118
vn -0.6897 -0.6885 -0.2241
s 1
g crystal_aura_M_gold
usemtl M_gold
f 116/186/98 117/187/99 269/169/232
f 116/186/98 269/169/232 268/167/174
f 118/188/100 119/189/101 271/171/234
f 118/188/100 271/171/234 270/170/233
f 119/189/101 120/190/102 272/173/170
f 119/189/101 272/173/170 271/171/234
f 120/182/102 121/183/103 273/164/235
f 120/182/102 273/164/235 272/163/170
f 121/183/103 129/200/111 130/201/112
f 121/183/103 130/201/112 122/184/104
f 123/185/105 116/186/98 268/167/174
f 123/185/105 268/167/174 275/166/237
f 124/203/106 117/187/99 116/186/98
f 124/203/106 125/204/107 117/187/99
f 125/204/107 118/188/100 117/187/99
f 125/204/107 126/205/108 118/188/100
f 126/205/108 119/189/101 118/188/100
f 126/205/108 127/206/109 119/189/101
f 127/206/109 120/190/102 119/189/101
f 127/206/109 128/207/110 120/190/102
f 128/199/110 121/183/103 120/182/102
f 128/199/110 129/200/111 121/183/103
f 129/200/111 137/213/119 138/214/120
f 129/200/111 138/214/120 130/201/112
f 130/201/112 123/185/105 122/184/104
f 130/201/112 131/202/113 123/185/105
f 131/202/113 116/186/98 123/185/105
f 131/202/113 124/203/106 116/186/98
f 132/216/114 125/204/107 124/203/106
f 132/216/114 133/217/115 125/204/107
f 133/217/115 126/205/108 125/204/107
f 133/217/115 134/218/116 126/205/108
f 133/217/115 141/236/123 142/237/124
f 133/217/115 142/237/124 134/218/116
f 134/218/116 127/206/109 126/205/108
f 134/218/116 135/219/117 127/206/109
f 135/219/117 128/207/110 127/206/109
f 135/219/117 136/220/118 128/207/110
f 135/219/117 143/238/125 144/239/126
f 135/219/117 144/239/126 136/220/118
f 136/212/118 129/200/111 128/199/110
f 136/212/118 137/213/119 129/200/111
f 137/213/119 145/232/127 146/233/128
f 137/213/119 146/233/128 138/214/120
f 138/214/120 131/202/113 130/201/112
f 138/214/120 139/215/121 131/202/113
f 139/215/121 124/203/106 131/202/113
f 139/215/121 132/216/114 124/203/106
f 140/235/122 133/217/115 132/216/114
f 140/235/122 141/236/123 133/217/115
f 142/237/124 135/219/117 134/218/116
f 142/237/124 143/238/125 135/219/117
f 142/237/124 150/253/132 151/254/133
f 142/237/124 151/254/133 143/238/125
f 143/238/125 151/254/133 152/256/134
f 143/238/125 152/256/134 144/239/126
f 144/231/126 137/213/119 136/212/118
f 144/231/126 145/232/127 137/213/119
f 146/233/128 139/215/121 138/214/120
f 146/233/128 147/234/129 139/215/121
f 147/234/129 132/216/114 139/215/121
f 147/234/129 140/235/122 132/216/114
f 148/250/130 141/236/123 140/235/122
f 148/250/130 149/252/131 141/236/123
f 148/250/130 156/261/138 157/262/139
f 148/250/130 157/262/139 149/252/131
f 149/252/131 142/237/124 141/236/123
f 149/252/131 150/253/132 142/237/124
f 152/240/134 145/232/127 144/231/126
f 152/240/134 153/244/135 145/232/127
f 153/244/135 146/233/128 145/232/127
f 153/244/135 154/245/136 146/233/128
f 154/245/136 147/234/129 146/233/128
f 154/245/136 155/246/137 147/234/129
f 155/246/137 140/235/122 147/234/129
f 155/246/137 148/250/130 140/235/122
f 155/246/137 156/261/138 148/250/130
f 155/246/137 163/260/145 156/261/138
f 156/261/138 164/280/146 165/281/147
f 156/261/138 165/281/147 157/262/139
f 157/262/139 150/253/132 149/252/131
f 157/262/139 158/263/140 150/253/132
f 158/263/140 151/254/133 150/253/132
f 158/263/140 159/264/141 151/254/133
f 159/264/141 152/256/134 151/254/133
f 159/264/141 160/265/142 152/256/134
f 160/257/142 153/244/135 152/240/134
f 160/257/142 161/258/143 153/244/135
f 161/258/143 154/245/136 153/244/135
f 161/258/143 162/259/144 154/245/136
f 162/259/144 155/246/137 154/245/136
f 162/259/144 163/260/145 155/246/137
f 163/260/145 164/280/146 156/261/138
f 163/260/145 171/279/153 164/280/146
f 164/280/146 172/293/154 173/294/155
f 164/280/146 173/294/155 165/281/147
f 165/281/147 158/263/140 157/262/139
f 165/281/147 166/282/148 158/263/140
f 166/282/148 159/264/141 158/263/140
f 166/282/148 167/283/149 159/264/141
f 166/282/148 174/295/156 175/296/157
f 166/282/148 175/296/157 167/283/149
f 167/283/149 160/265/142 159/264/141
f 167/283/149 168/284/150 160/265/142
f 168/276/150 161/258/143 160/257/142
f 168/276/150 169/277/151 161/258/143
f 169/277/151 162/259/144 161/258/143
f 169/277/151 170/278/152 162/259/144
f 170/278/152 163/260/145 162/259/144
f 170/278/152 171/279/153 163/260/145
f 173/294/155 166/282/148 165/281/147
f 173/294/155 174/295/156 166/282/148
f 175/296/157 168/284/150 167/283/149
f 175/296/157 176/297/158 168/284/150
f 176/289/158 169/277/151 168/276/150
f 176/289/158 177/290/159 169/277/151
f 176/289/158 184/306/166 185/307/167
f 176/289/158 185/307/167 177/290/159
f 177/290/159 170/278/152 169/277/151
f 177/290/159 178/291/160 170/278/152
f 178/291/160 171/279/153 170/278/152
f 178/291/160 179/292/161 171/279/153
f 179/292/161 164/280/146 171/279/153
f 179/292/161 172/293/154 164/280/146
f 179/292/161 180/310/162 172/293/154
f 179/292/161 187/309/169 180/310/162
f 180/310/162 173/294/155 172/293/154
f 180/310/162 181/311/163 173/294/155
f 181/311/163 174/295/156 173/294/155
f 181/311/163 182/312/164 174/295/156
f 182/312/164 175/296/157 174/295/156
f 182/312/164 183/313/165 175/296/157
f 183/313/165 176/297/158 175/296/157
f 183/313/165 184/314/166 176/297/158
f 185/307/167 178/291/160 177/290/159
f 185/307/167 186/308/168 178/291/160
f 186/308/168 179/292/161 178/291/160
f 186/308/168 187/309/169 179/292/161
f 186/308/168 194/327/176 195/328/177
f 186/308/168 195/328/177 187/309/169
f 188/329/170 181/311/163 180/310/162
f 188/329/170 189/331/171 181/311/163
f 189/331/171 182/312/164 181/311/163
f 189/331/171 190/332/172 182/312/164
f 190/332/172 183/313/165 182/312/164
f 190/332/172 191/333/173 183/313/165
f 191/333/173 184/314/166 183/313/165
f 191/333/173 192/335/174 184/314/166
f 191/9/173 199/29/180 200/30/98
f 191/9/173 200/30/98 192/11/174
f 192/325/174 185/307/167 184/306/166
f 192/325/174 193/326/175 185/307/167
f 193/326/175 186/308/168 185/307/167
f 193/326/175 194/327/176 186/308/168
f 195/328/177 180/310/162 187/309/169
f 195/328/177 188/329/170 180/310/162
f 196/26/102 189/7/171 188/5/170
f 196/26/102 197/27/178 189/7/171
f 197/27/178 190/8/172 189/7/171
f 197/27/178 198/28/179 190/8/172
f 198/28/179 191/9/173 190/8/172
f 198/28/179 199/29/180 191/9/173
f 200/22/98 193/2/175 192/1/174
f 200/22/98 201/23/181 193/2/175
f 201/23/181 194/3/176 193/2/175
f 201/23/181 202/24/182 194/3/176
f 202/24/182 195/4/177 194/3/176
f 202/24/182 203/25/183 195/4/177
f 203/25/183 188/5/170 195/4/177
f 203/25/183 196/26/102 188/5/170
f 204/43/110 197/27/178 196/26/102
f 204/43/110 205/44/184 197/27/178
f 205/44/184 198/28/179 197/27/178
f 205/44/184 206/45/185 198/28/179
f 206/45/185 199/29/180 198/28/179
f 206/45/185 207/46/186 199/29/180
f 207/46/186 200/30/98 199/29/180
f 207/46/186 208/47/106 200/30/98
f 208/39/106 201/23/181 200/22/98
f 208/39/106 209/40/187 201/23/181
f 209/40/187 202/24/182 201/23/181
f 209/40/187 210/41/188 202/24/182
f 210/41/188 203/25/183 202/24/182
f 210/41/188 211/42/189 203/25/183
f 211/42/189 196/26/102 203/25/183
f 211/42/189 204/43/110 196/26/102
f 212/56/118 205/44/184 204/43/110
f 212/56/118 213/57/190 205/44/184
f 212/56/118 220/75/126 221/76/196
f 212/56/118 221/76/196 213/57/190
f 213/57/190 206/45/185 205/44/184
f 213/57/190 214/58/191 206/45/185
f 214/58/191 207/46/186 206/45/185
f 214/58/191 215/59/192 207/46/186
f 214/58/191 222/77/197 223/78/198
f 214/58/191 223/78/198 215/59/192
f 215/59/192 208/47/106 207/46/186
f 215/59/192 216/60/114 208/47/106
f 216/52/114 209/40/187 208/39/106
f 216/52/114 217/53/193 209/40/187
f 217/53/193 210/41/188 209/40/187
f 217/53/193 218/54/194 210/41/188
f 217/53/193 225/72/199 226/73/200
f 217/53/193 226/73/200 218/54/194
f 218/54/194 211/42/189 210/41/188
f 218/54/194 219/55/195 211/42/189
f 219/55/195 204/43/110 211/42/189
f 219/55/195 212/56/118 204/43/110
f 221/76/196 214/58/191 213/57/190
f 221/76/196 222/77/197 214/58/191
f 223/78/198 216/60/114 215/59/192
f 223/78/198 224/79/122 216/60/114
f 224/71/122 217/53/193 216/52/114
f 224/71/122 225/72/199 217/53/193
f 225/72/199 233/84/205 234/85/206
f 225/72/199 234/85/206 226/73/200
f 226/73/200 219/55/195 218/54/194
f 226/73/200 227/74/201 219/55/195
f 227/74/201 212/56/118 219/55/195
f 227/74/201 220/75/126 212/56/118
f 227/74/201 228/90/134 220/75/126
f 227/74/201 235/86/207 228/90/134
f 228/90/134 221/76/196 220/75/126
f 228/90/134 229/92/202 221/76/196
f 228/90/134 236/101/142 237/102/208
f 228/90/134 237/102/208 229/92/202
f 229/92/202 222/77/197 221/76/196
f 229/92/202 230/93/203 222/77/197
f 230/93/203 223/78/198 222/77/197
f 230/93/203 231/94/204 223/78/198
f 231/94/204 224/79/122 223/78/198
f 231/94/204 232/96/130 224/79/122
f 232/80/130 225/72/199 224/71/122
f 232/80/130 233/84/205 225/72/199
f 234/85/206 227/74/201 226/73/200
f 234/85/206 235/86/207 227/74/201
f 235/86/207 236/101/142 228/90/134
f 235/86/207 243/100/213 236/101/142
f 236/101/142 244/120/150 245/121/214
f 236/101/142 245/121/214 237/102/208
f 237/102/208 230/93/203 229/92/202
f 237/102/208 238/103/209 230/93/203
f 238/103/209 231/94/204 230/93/203
f 238/103/209 239/104/210 231/94/204
f 239/104/210 232/96/130 231/94/204
f 239/104/210 240/105/138 232/96/130
f 240/97/138 233/84/205 232/80/130
f 240/97/138 241/98/211 233/84/205
f 241/98/211 234/85/206 233/84/205
f 241/98/211 242/99/212 234/85/206
f 241/98/211 249/117/217 250/118/218
f 241/98/211 250/118/218 242/99/212
f 242/99/212 235/86/207 234/85/206
f 242/99/212 243/100/213 235/86/207
f 243/100/213 244/120/150 236/101/142
f 243/100/213 251/119/219 244/120/150
f 245/121/214 238/103/209 237/102/208
f 245/121/214 246/122/215 238/103/209
f 245/121/214 253/134/220 254/135/221
f 245/121/214 254/135/221 246/122/215
f 246/122/215 239/104/210 238/103/209
f 246/122/215 247/123/216 239/104/210
f 247/123/216 240/105/138 239/104/210
f 247/123/216 248/124/146 240/105/138
f 248/116/146 241/98/211 240/97/138
f 248/116/146 249/117/217 241/98/211
f 250/118/218 243/100/213 242/99/212
f 250/118/218 251/119/219 243/100/213
f 252/133/158 245/121/214 244/120/150
f 252/133/158 253/134/220 245/121/214
f 254/135/221 247/123/216 246/122/215
f 254/135/221 255/136/222 247/123/216
f 254/135/221 262/152/227 263/153/228
f 254/135/221 263/153/228 255/136/222
f 255/136/222 248/124/146 247/123/216
f 255/136/222 256/137/154 248/124/146
f 256/129/154 249/117/217 248/116/146
f 256/129/154 257/130/223 249/117/217
f 257/130/223 250/118/218 249/117/217
f 257/130/223 258/131/224 250/118/218
f 258/131/224 251/119/219 250/118/218
f 258/131/224 259/132/225 251/119/219
f 259/132/225 244/120/150 251/119/219
f 259/132/225 252/133/158 244/120/150
f 260/150/166 253/134/220 252/133/158
f 260/150/166 261/151/226 253/134/220
f 261/151/226 254/135/221 253/134/220
f 261/151/226 262/152/227 254/135/221
f 263/153/228 256/137/154 255/136/222
f 263/153/228 264/154/162 256/137/154
f 264/146/162 257/130/223 256/129/154
f 264/146/162 265/147/229 257/130/223
f 265/147/229 258/131/224 257/130/223
f 265/147/229 266/148/230 258/131/224
f 266/148/230 259/132/225 258/131/224
f 266/148/230 267/149/231 259/132/225
f 267/149/231 252/133/158 259/132/225
f 267/149/231 260/150/166 252/133/158
f 268/167/174 261/151/226 260/150/166
f 268/167/174 269/169/232 261/151/226
f 269/169/232 117/187/99 118/188/100
f 269/169/232 118/188/100 270/170/233
f 269/169/232 262/152/227 261/151/226
f 269/169/232 270/170/233 262/152/227
f 270/170/233 263/153/228 262/152/227
f 270/170/233 271/171/234 263/153/228
f 271/171/234 264/154/162 263/153/228
f 271/171/234 272/173/170 264/154/162
f 272/163/170 265/147/229 264/146/162
f 272/163/170 273/164/235 265/147/229
f 273/164/235 121/183/103 122/184/104
f 273/164/235 122/184/104 274/165/236
f 273/164/235 266/148/230 265/147/229
f 273/164/235 274/165/236 266/148/230
f 274/165/236 122/184/104 123/185/105
f 274/165/236 123/185/105 275/166/237
f 274/165/236 267/149/231 266/148/230
f 274/165/236 275/166/237 267/149/231
f 275/166/237 260/150/166 267/149/231
f 275/166/237 268/167/174 260/150/166
