# Blender 4.0.2
# www.blender.org
mtllib barracks_crimson_lod1.mtl
o barracks_crimson_lod1
v 3.982500 0.012500 -2.987500
v 3.988462 0.333846 -2.983846
v 3.988462 0.016154 2.983846
v 3.982500 0.337500 2.987500
v -3.988462 0.016154 -2.983846
v -3.982500 0.337500 -2.987500
v -3.982500 0.012500 2.987500
v -3.988462 0.333846 2.983846
v 3.682500 0.362500 -2.687500
v 3.688462 0.633846 -2.683846
v 3.688462 0.366154 2.683846
v 3.682500 0.637500 2.687500
v -3.688462 0.366154 -2.683846
v -3.682500 0.637500 -2.687500
v -3.682500 0.362500 2.687500
v -3.688462 0.633846 2.683846
v 3.382500 0.662500 -2.187500
v 3.388462 3.333846 -2.183846
v 3.388462 0.666154 2.183846
v 3.382500 3.337500 2.187500
v -3.388462 0.666154 -2.183846
v -3.382500 3.337500 -2.187500
v -3.382500 0.662500 2.187500
v -3.388462 3.333846 2.183846
v 3.532500 0.662500 -2.487500
v 3.538462 3.033847 -2.483846
v 3.538462 0.666154 2.483846
v 3.532500 3.037500 2.487500
v 2.861539 0.666154 -2.483846
v 2.867500 3.037500 -2.487500
v 2.867500 0.662500 2.487500
v 2.861539 3.033846 2.483846
v -2.867500 0.662500 -2.487500
v -2.861539 3.033846 -2.483846
v -2.861539 0.666154 2.483846
v -2.867500 3.037500 2.487500
v -3.538462 0.666154 -2.483846
v -3.532500 3.037500 -2.487500
v -3.532500 0.662500 2.487500
v -3.538461 3.033847 2.483846
v 3.482500 3.362500 -2.287500
v 3.488462 3.553846 -2.283846
v 3.488462 3.366154 2.283846
v 3.482500 3.557500 2.287500
v -3.488462 3.366154 -2.283846
v -3.482500 3.557500 -2.287500
v -3.482500 3.362500 2.287500
v -3.488462 3.553846 2.283846
v -3.787500 3.587500 -2.787500
v -3.787500 3.582500 2.782500
v -3.782651 3.780300 2.790521
v -3.800000 5.534451 0.000000
v -3.772521 5.559352 0.004188
v -3.782651 3.787204 -2.786728
v 3.787500 3.582500 -2.782500
v 3.787500 3.587500 2.787500
v 3.782651 3.787204 2.786728
v 3.800000 5.534451 -0.000000
v 3.772521 5.559352 -0.004188
v 3.782651 3.780300 -2.790521
v 3.850000 5.570000 0.100000
v -3.850000 5.570000 0.100000
v 3.850000 5.483398 0.050000
v -3.850000 5.483397 0.050000
v 3.850000 5.483398 -0.050000
v -3.850000 5.483397 -0.050000
v 3.850000 5.570000 -0.100000
v -3.850000 5.570000 -0.100000
v 3.850000 5.656603 -0.050000
v -3.850000 5.656602 -0.050000
v 3.850000 5.656603 0.050000
v -3.850000 5.656602 0.050000
v 2.657500 4.162500 -1.262500
v 2.663462 5.733846 -1.258846
v 2.663462 4.166154 -0.741154
v 2.657500 5.737500 -0.737500
v 2.136539 4.166154 -1.258846
v 2.142500 5.737500 -1.262500
v 2.155000 4.150000 -0.755000
v 2.139491 4.175245 -0.733038
v 2.136539 5.733846 -0.741154
v -2.155000 4.150000 -1.245000
v -2.139491 4.175245 -1.266962
v -2.136539 5.733846 -1.258846
v -2.136539 4.166154 -0.741154
v -2.155000 5.750000 -0.755000
v -2.139491 5.724754 -0.733038
v -2.663462 4.166154 -1.258846
v -2.657500 5.737500 -1.262500
v -2.657500 4.162500 -0.737500
v -2.663462 5.733846 -0.741154
v -1.188462 0.666154 2.066154
v -1.183846 0.661538 2.433846
v -0.867500 0.662500 2.062500
v -0.862500 0.667500 2.437500
v -1.187885 1.816550 2.059808
v -1.191346 1.781404 2.440192
v -0.858654 1.818596 2.059808
v -0.862116 1.783450 2.440192
v -1.094305 2.263734 2.058011
v -1.101700 2.245882 2.441990
v -0.790787 2.135808 2.062645
v -0.796624 2.121719 2.437356
v -0.836701 2.647485 2.062645
v -0.847315 2.634768 2.440192
v -0.602362 2.416026 2.058010
v -0.614801 2.402255 2.440192
v -0.446972 2.902268 2.059808
v -0.463365 2.895478 2.440192
v -0.321137 2.598475 2.059808
v -0.337529 2.591685 2.440192
v 0.008872 2.989412 2.059808
v -0.008872 2.989412 2.440192
v 0.008872 2.660588 2.059808
v -0.008872 2.660588 2.440192
v 0.463365 2.895478 2.059808
v 0.446972 2.902268 2.440192
v 0.337529 2.591685 2.059808
v 0.321137 2.598475 2.440192
v 0.847315 2.634768 2.059808
v 0.836701 2.647485 2.437356
v 0.614801 2.402255 2.059808
v 0.602363 2.416026 2.441990
v 1.101700 2.245882 2.058011
v 1.094305 2.263734 2.441990
v 0.796624 2.121719 2.062645
v 0.790787 2.135808 2.437356
v 1.191346 1.781404 2.059808
v 1.187885 1.816550 2.440192
v 0.862116 1.783450 2.059808
v 0.858654 1.818596 2.440192
v 1.183846 0.661538 2.066154
v 1.188462 0.666154 2.433846
v 0.862500 0.667500 2.062500
v 0.867500 0.662500 2.437500
v 0.823607 0.659344 2.180492
v 0.856316 0.680162 2.216842
v 0.826613 1.786935 2.181452
v 0.826613 0.663064 2.258548
v 0.823607 1.790656 2.259508
v 0.856316 1.769838 2.223158
v -0.826613 0.663065 2.181452
v -0.823607 1.790656 2.180492
v -0.856316 1.769838 2.216842
v -0.823607 0.659344 2.259508
v -0.856316 0.680162 2.223158
v -0.826613 1.786936 2.258548
v 0.833004 1.808075 2.183473
v -0.832089 1.805768 2.183473
v -0.002225 2.587434 2.180762
v 0.832089 1.805768 2.256527
v -0.833004 1.808075 2.256527
v 0.002225 2.587434 2.259238
v 1.182500 0.012500 2.612500
v 1.188462 0.283846 2.616154
v 1.188462 0.016154 2.983846
v 1.182500 0.287500 2.987500
v -1.188462 0.016154 2.616154
v -1.182500 0.287500 2.612500
v -1.182500 0.012500 2.987500
v -1.188462 0.283846 2.983846
v 3.483548 3.148618 2.537627
v 2.900416 3.134565 2.538704
v 2.920000 1.394907 2.525000
v 2.903633 1.364670 2.556522
v 3.200000 1.593093 2.525000
v 3.499584 3.134565 2.561296
v 2.916452 3.148618 2.562373
v 3.200000 1.593093 2.575000
v 3.200000 1.611424 2.550000
v 3.480000 1.394907 2.575000
v 3.496367 1.364669 2.543478
v 2.780000 3.193778 2.583410
v 3.620000 3.144178 2.554773
v 2.780000 3.144178 2.545227
v 3.620000 3.193778 2.516591
v 2.780000 3.202044 2.521363
v 3.620000 3.202044 2.578637
v -2.916452 3.148618 2.537627
v -3.499584 3.134565 2.538704
v -3.480000 1.394907 2.525000
v -3.496367 1.364669 2.556522
v -3.200000 1.593093 2.525000
v -2.900416 3.134565 2.561296
v -3.483548 3.148618 2.562373
v -3.200000 1.593093 2.575000
v -3.200000 1.611424 2.550000
v -2.920000 1.394907 2.575000
v -2.903633 1.364669 2.543478
v -3.620000 3.193778 2.583410
v -2.780000 3.144178 2.554773
v -3.620000 3.144178 2.545227
v -2.780000 3.193778 2.516591
v -3.620000 3.202044 2.521363
v -2.780000 3.202044 2.578637
vn 0.0006 0.8442 0.5360
vn -0.0000 1.0000 -0.0000
vn 0.0003 -0.6562 0.7546
vn 0.0005 0.0114 -0.9999
vn -0.0003 0.6562 0.7546
vn -0.0003 -0.6562 -0.7546
vn 0.5204 -0.8537 0.0206
vn 0.5204 0.8537 -0.0206
vn -0.5204 -0.8537 -0.0206
vn -0.5204 0.8537 0.0206
vn -0.0000 -0.0035 -1.0000
vn -0.0000 -0.0035 1.0000
vn 0.4957 -0.7004 0.5135
vn -0.5499 -0.6736 0.4939
vn 0.5499 -0.6736 -0.4939
vn 1.0000 -0.0000 -0.0000
vn -0.5499 -0.6735 0.4939
vn -0.9998 0.0185 -0.0010
vn 0.0005 1.0000 -0.0006
vn 0.9998 0.0185 0.0010
vn -0.0005 0.0114 0.9999
vn -0.0005 -1.0000 -0.0006
vn 0.0005 0.0135 -0.9999
vn -0.9998 0.0220 -0.0011
vn 0.0005 1.0000 -0.0007
vn 0.9998 0.0220 0.0011
vn -0.0005 0.0135 0.9999
vn -0.0005 -1.0000 -0.0007
vn 0.0005 0.0014 -1.0000
vn -1.0000 0.0022 -0.0014
vn 0.0005 1.0000 -0.0008
vn 1.0000 0.0022 0.0014
vn -0.0005 0.0014 1.0000
vn -0.0005 -1.0000 -0.0008
vn -0.0054 0.0016 -1.0000
vn -1.0000 0.0025 -0.0012
vn 0.0054 1.0000 0.0007
vn 1.0000 0.0025 0.0012
vn 0.0054 0.0016 1.0000
vn -0.0054 -1.0000 0.0007
vn 0.0005 0.0191 -0.9998
vn -0.9995 0.0311 -0.0013
vn 0.9995 0.0311 0.0013
vn -0.0005 0.0191 0.9998
vn 0.0005 0.0039 1.0000
vn -1.0000 -0.0081 -0.0012
vn 0.0005 0.8428 -0.5382
vn 1.0000 -0.0081 0.0012
vn 0.0007 -1.0000 0.0009
vn 0.0006 -0.0405 -0.9992
vn -0.6462 0.6443 0.4090
vn -0.5649 0.6975 -0.4409
vn 0.6462 0.6443 -0.4090
vn 0.5649 0.6975 0.4408
vn -0.0000 -0.5000 0.8660
vn -0.0000 -1.0000 -0.0000
vn -0.0000 -0.5000 -0.8660
vn -0.0000 0.5000 -0.8660
vn -1.0000 -0.0000 -0.0000
vn -0.0000 0.5000 0.8660
vn -0.0070 0.0024 -1.0000
vn -1.0000 0.0038 0.0055
vn 0.0071 1.0000 -0.0069
vn 0.9999 0.0038 0.0114
vn -0.0070 0.0052 1.0000
vn -0.0072 -0.9995 -0.0318
vn -0.8465 -0.5322 0.0140
vn 0.0070 0.0052 -1.0000
vn -0.9999 0.0038 -0.0114
vn 0.0072 0.9995 -0.0318
vn 1.0000 0.0019 -0.0056
vn -0.0154 0.0023 0.9999
vn -0.0316 -0.9995 -0.0066
vn 0.8465 -0.5322 -0.0140
vn 0.8465 0.5322 0.0140
vn -1.0000 0.0005 -0.0091
vn 0.9999 -0.0003 -0.0133
vn -0.0000 -0.0024 1.0000
vn 0.0175 0.0052 -0.9998
vn -0.9788 0.2048 -0.0093
vn 0.9817 -0.1901 -0.0086
vn 0.0172 0.0050 0.9998
vn -0.0217 -0.0019 -0.9998
vn -0.8302 0.5574 -0.0046
vn 0.8392 -0.5438 -0.0074
vn 0.0028 0.0028 1.0000
vn 0.0050 0.0021 -1.0000
vn -0.5472 0.8369 -0.0086
vn 0.5641 -0.8256 -0.0114
vn -0.0000 -0.0000 1.0000
vn -0.0000 -0.0000 -1.0000
vn -0.1878 0.9822 -0.0088
vn 0.2052 -0.9787 -0.0086
vn 0.2024 0.9793 -0.0088
vn -0.1850 -0.9827 -0.0086
vn 0.5617 0.8272 -0.0121
vn -0.5442 -0.8389 -0.0085
vn 0.0123 0.0076 0.9999
vn -0.0088 -0.0158 -0.9998
vn 0.8368 0.5474 -0.0093
vn -0.8299 -0.5579 -0.0069
vn -0.0159 0.0014 0.9999
vn -0.0000 -0.0039 -1.0000
vn 0.9818 0.1895 -0.0086
vn -0.9778 -0.2093 -0.0074
vn -0.0000 -0.0040 1.0000
vn 0.0113 -0.0057 -0.9999
vn 0.9999 -0.0068 -0.0125
vn -0.9999 -0.0076 -0.0084
vn 0.0114 -0.0055 0.9999
vn -0.0184 -0.9997 -0.0131
vn -0.0000 -0.0023 -1.0000
vn 0.0184 -0.9997 0.0131
vn 0.0006 0.0008 -1.0000
vn 0.0023 0.9989 -0.0475
vn -0.0006 0.0008 1.0000
vn 0.8152 0.0034 -0.5792
vn 0.8152 -0.0034 0.5792
vn -0.7438 -0.0014 0.6684
vn -0.8152 -0.0034 -0.5792
vn -0.0023 -0.9989 -0.0475
vn -0.6818 0.7305 0.0387
vn -0.0014 -0.9995 0.0316
vn 0.6854 0.7275 0.0316
vn 0.0016 0.0134 -0.9999
vn -0.9996 0.0217 -0.0158
vn 0.0016 1.0000 -0.0098
vn 0.9996 0.0217 0.0158
vn -0.0016 0.0134 0.9999
vn -0.0016 -1.0000 -0.0098
vn 0.0811 0.0246 -0.9964
vn 0.0066 0.0093 0.9999
vn 0.8290 0.0041 -0.5592
vn -0.0218 0.8661 -0.4994
vn -0.8850 -0.0063 -0.4655
vn -0.4957 -0.7004 -0.5135
vn 0.8850 -0.0063 0.4655
vn -0.0090 -0.6100 0.7924
vn -0.8290 0.0041 0.5592
vn 0.0218 0.8661 0.4994
vn -0.0090 -0.3812 -0.9244
vn -0.0090 0.9912 0.1321
vn -0.0005 0.8428 0.5382
vn -0.0005 -0.0114 -0.9999
vn 0.5866 -0.7147 -0.3810
vn -0.9998 -0.0185 0.0010
vn -0.0005 1.0000 0.0006
vn 0.9998 -0.0185 -0.0010
vn 0.0005 -0.0114 0.9999
vn 0.0005 -1.0000 0.0006
vn -0.0005 -0.0135 -0.9999
vn -0.9998 -0.0220 0.0011
vn -0.0005 1.0000 0.0007
vn 0.9998 -0.0220 -0.0011
vn 0.0005 -0.0135 0.9999
vn 0.0005 -1.0000 0.0007
vn -0.0005 -0.0014 -1.0000
vn -1.0000 -0.0022 0.0014
vn -0.0005 1.0000 0.0008
vn 1.0000 -0.0022 -0.0014
vn 0.0005 -0.0014 1.0000
vn 0.0005 -1.0000 0.0008
vn 0.0054 -0.0016 -1.0000
vn -1.0000 -0.0025 0.0012
vn -0.0054 1.0000 -0.0007
vn 1.0000 -0.0025 -0.0012
vn -0.0054 -0.0016 1.0000
vn 0.0054 -1.0000 -0.0007
vn -0.0005 -0.0191 -0.9998
vn -0.9995 -0.0311 0.0013
vn 0.9995 -0.0311 -0.0013
vn 0.0005 -0.0191 0.9998
vn -0.0006 -0.0405 0.9992
vn -0.9997 0.0243 -0.0000
vn -0.9995 0.0236 0.0211
vn -0.0006 0.8442 -0.5360
vn 0.9997 0.0243 -0.0000
vn 0.9995 0.0236 -0.0211
vn -0.0007 -1.0000 -0.0009
vn -0.0005 0.0039 -1.0000
vn 0.0070 -0.0024 -1.0000
vn -0.9999 -0.0020 -0.0114
vn -0.0071 1.0000 0.0069
vn 0.9999 -0.0038 -0.0114
vn 0.0154 -0.0023 0.9999
vn 0.0316 -0.9995 0.0066
vn -0.0154 -0.0023 -0.9999
vn -0.9999 -0.0038 0.0114
vn -0.0316 0.9995 0.0066
vn 1.0000 -0.0019 0.0056
vn 0.0070 -0.0052 1.0000
vn 0.0072 -0.9995 0.0318
vn -0.9999 -0.0068 0.0125
vn 0.9999 -0.0076 0.0084
vn -0.0113 -0.0057 0.9999
vn -0.0000 -0.0040 -1.0000
vn -0.9818 0.1895 0.0086
vn 0.9778 -0.2093 0.0074
vn -0.0000 -0.0039 1.0000
vn 0.0159 0.0014 -0.9999
vn -0.8368 0.5474 0.0093
vn 0.8299 -0.5579 0.0069
vn 0.0088 -0.0158 0.9998
vn -0.0123 0.0076 -0.9999
vn -0.5617 0.8272 0.0121
vn 0.5442 -0.8389 0.0085
vn -0.2024 0.9793 0.0088
vn 0.1850 -0.9827 0.0086
vn 0.1878 0.9822 0.0088
vn -0.2052 -0.9787 0.0086
vn 0.5472 0.8369 0.0086
vn -0.5641 -0.8256 0.0114
vn -0.0050 0.0021 1.0000
vn -0.0028 0.0028 -1.0000
vn 0.8302 0.5574 0.0046
vn -0.8392 -0.5438 0.0074
vn 0.0217 -0.0019 0.9998
vn -0.0172 0.0050 -0.9998
vn 0.9788 0.2048 0.0093
vn -0.9817 -0.1901 0.0086
vn -0.0175 0.0052 0.9998
vn -0.0000 -0.0024 -1.0000
vn 1.0000 0.0005 0.0091
vn -0.9999 -0.0003 0.0133
vn -0.0000 -0.0023 1.0000
vn 0.0115 -0.9999 0.0124
vn -0.0114 -0.0055 -0.9999
vn -0.0115 -0.9999 -0.0124
vn -0.0006 -0.0008 -1.0000
vn -0.0023 0.9989 0.0475
vn 0.0006 -0.0008 1.0000
vn 0.7438 -0.0014 -0.6684
vn 0.7438 0.0014 0.6684
vn -0.8152 0.0034 0.5792
vn -0.7438 0.0014 -0.6684
vn 0.0023 -0.9989 0.0475
vn -0.6854 0.7275 -0.0316
vn 0.0014 -0.9995 -0.0316
vn 0.6818 0.7305 -0.0387
vn -0.0016 -0.0134 -0.9999
vn -0.9996 -0.0217 0.0158
vn -0.0016 1.0000 0.0098
vn 0.9996 -0.0217 -0.0158
vn 0.0016 -0.0134 0.9999
vn 0.0016 -1.0000 0.0098
vn -0.0055 0.0078 -1.0000
vn -0.0018 -0.0033 -1.0000
vn 0.0020 0.0079 1.0000
vn -0.0600 -0.0028 0.9982
vn -0.5866 -0.7146 0.3810
vn 0.0090 -0.3812 0.9244
vn 0.0090 -0.6100 -0.7924
vn 0.0090 0.9912 -0.1321
vt 0.00000 0.30020
vt 0.00000 0.57376
vt 0.00001 0.84079
vt 0.00001 0.99962
vt 0.00064 0.00081
vt 0.00064 0.58451
vt 0.00071 0.28955
vt 0.00071 0.82972
vt 0.09427 0.84074
vt 0.09464 0.99935
vt 0.10621 0.84036
vt 0.10621 0.92568
vt 0.10621 0.93622
vt 0.10621 0.99256
vt 0.12371 0.93622
vt 0.12398 0.99243
vt 0.12906 0.84036
vt 0.12934 0.92555
vt 0.13563 0.93622
vt 0.13563 0.99256
vt 0.13992 0.84036
vt 0.13992 0.92526
vt 0.15206 0.84036
vt 0.15206 0.92526
vt 0.15313 0.93622
vt 0.15341 0.99243
vt 0.15642 0.58440
vt 0.15649 0.82961
vt 0.16691 0.58370
vt 0.16691 0.82824
vt 0.16692 0.83861
vt 0.16692 0.99744
vt 0.19784 0.30020
vt 0.19784 0.57376
vt 0.20762 0.30021
vt 0.20762 0.37400
vt 0.20762 0.51835
vt 0.20762 0.55789
vt 0.20762 0.57036
vt 0.20811 0.47804
vt 0.20834 0.44777
vt 0.20834 0.50839
vt 0.20845 0.36398
vt 0.20845 0.43776
vt 0.20869 0.55898
vt 0.20879 0.30020
vt 0.20879 0.37399
vt 0.20910 0.56915
vt 0.20930 0.55787
vt 0.20939 0.57106
vt 0.20941 0.36315
vt 0.20941 0.43694
vt 0.20952 0.51833
vt 0.21012 0.55898
vt 0.21048 0.44777
vt 0.21048 0.50839
vt 0.21071 0.47812
vt 0.21119 0.51835
vt 0.21119 0.55789
vt 0.21356 0.00070
vt 0.21362 0.28945
vt 0.22405 0.00000
vt 0.22405 0.28808
vt 0.22405 0.29911
vt 0.22405 0.57267
vt 0.26119 0.83857
vt 0.26156 0.99717
vt 0.27205 0.83927
vt 0.27205 0.92417
vt 0.27243 0.93521
vt 0.27247 0.99108
vt 0.27312 0.99217
vt 0.28101 0.83899
vt 0.28114 0.92417
vt 0.29127 0.93521
vt 0.29131 0.99108
vt 0.29152 0.83927
vt 0.29152 0.92417
vt 0.30048 0.83899
vt 0.30061 0.92417
vt 0.30255 0.93520
vt 0.30255 0.99154
vt 0.31137 0.86866
vt 0.31137 0.90908
vt 0.31166 0.83818
vt 0.31166 0.87860
vt 0.31315 0.83818
vt 0.31315 0.86866
vt 0.31315 0.87860
vt 0.31315 0.90908
vt 0.32005 0.93520
vt 0.32005 0.99214
vt 0.32046 0.99102
vt 0.32190 0.58370
vt 0.32190 0.82824
vt 0.32299 0.57267
vt 0.32329 0.29911
vt 0.33168 0.58479
vt 0.33168 0.82933
vt 0.33225 0.84145
vt 0.33233 0.93818
vt 0.33237 0.85225
vt 0.33237 0.91583
vt 0.33239 0.92668
vt 0.33239 0.95663
vt 0.35062 0.93808
vt 0.35068 0.95652
vt 0.36175 0.93818
vt 0.36181 0.95663
vt 0.37267 0.84091
vt 0.37267 0.92688
vt 0.37278 0.85250
vt 0.37278 0.91529
vt 0.37968 0.95624
vt 0.38004 0.93808
vt 0.38033 0.95667
vt 0.38450 0.85496
vt 0.38450 0.91284
vt 0.38887 0.84424
vt 0.38887 0.92356
vt 0.39053 0.93738
vt 0.39053 0.95515
vt 0.39455 0.90610
vt 0.39458 0.86166
vt 0.40124 0.87188
vt 0.40124 0.89592
vt 0.40259 0.91429
vt 0.40264 0.85345
vt 0.40359 0.88390
vt 0.40803 0.93738
vt 0.40803 0.95515
vt 0.41175 0.86745
vt 0.41175 0.90034
vt 0.41445 0.88390
vt 0.42223 0.29911
vt 0.42223 0.57267
vt 0.42424 0.92119
vt 0.42424 0.95167
vt 0.42462 0.87084
vt 0.42490 0.84036
vt 0.42549 0.92119
vt 0.42549 0.95167
vt 0.42623 0.58451
vt 0.42636 0.82933
vt 0.42640 0.84036
vt 0.42640 0.87084
vt 0.43201 0.29803
vt 0.43201 0.37182
vt 0.43201 0.51723
vt 0.43201 0.55677
vt 0.43240 0.56820
vt 0.43252 0.50618
vt 0.43256 0.44668
vt 0.43270 0.57011
vt 0.43284 0.36180
vt 0.43284 0.43559
vt 0.43308 0.55786
vt 0.43317 0.29802
vt 0.43317 0.37181
vt 0.43368 0.44559
vt 0.43368 0.55675
vt 0.43379 0.36097
vt 0.43379 0.43476
vt 0.43391 0.50727
vt 0.43391 0.51721
vt 0.43417 0.56890
vt 0.43451 0.55786
vt 0.43502 0.50618
vt 0.43507 0.44668
vt 0.43558 0.51723
vt 0.43558 0.55677
vt 0.43617 0.00000
vt 0.43617 0.28808
vt 0.44596 0.00109
vt 0.44596 0.28917
vt 0.44660 0.30100
vt 0.44660 0.57943
vt 0.44667 0.56798
vt 0.44667 0.83189
vt 0.44703 0.84254
vt 0.44703 0.92786
vt 0.45670 0.00081
vt 0.45683 0.28917
vt 0.46721 0.00109
vt 0.46721 0.28917
vt 0.46989 0.84254
vt 0.47016 0.92772
vt 0.47795 0.00081
vt 0.47809 0.28917
vt 0.48074 0.84254
vt 0.48074 0.90540
vt 0.48088 0.94569
vt 0.48846 0.00000
vt 0.48846 0.27937
vt 0.49074 0.89822
vt 0.49165 0.00000
vt 0.49165 0.27937
vt 0.49464 0.00000
vt 0.49464 0.27937
vt 0.50074 0.84254
vt 0.50074 0.90540
vt 0.50443 0.00000
vt 0.50443 0.27937
vt 0.50742 0.00000
vt 0.50742 0.27937
vt 0.50846 0.91553
vt 0.50854 0.97573
vt 0.51052 0.84254
vt 0.51052 0.90540
vt 0.51060 0.00000
vt 0.51060 0.27937
vt 0.51871 0.94569
vt 0.52038 0.00000
vt 0.52038 0.27937
vt 0.52052 0.89822
vt 0.52396 0.00000
vt 0.52396 0.27937
vt 0.53052 0.84254
vt 0.53052 0.90540
vt 0.53374 0.00000
vt 0.53374 0.27937
vt 0.53731 0.00000
vt 0.53731 0.27937
vt 0.54031 0.84254
vt 0.54031 0.90540
vt 0.54629 0.91553
vt 0.54636 0.97573
vt 0.54749 0.28609
vt 0.54778 0.28799
vt 0.54779 0.27465
vt 0.54800 0.00109
vt 0.54926 0.28678
vt 0.55031 0.89822
vt 0.55471 0.27509
vt 0.55507 0.00109
vt 0.55677 0.91535
vt 0.55681 0.97122
vt 0.55746 0.97231
vt 0.55904 0.28713
vt 0.56030 0.84254
vt 0.56030 0.90540
vt 0.56052 0.28591
vt 0.56082 0.28782
vt 0.56600 0.27465
vt 0.56621 0.00109
vt 0.57009 0.84254
vt 0.57009 0.90540
vt 0.57292 0.27509
vt 0.57328 0.00109
vt 0.57561 0.91535
vt 0.57565 0.97122
vt 0.58009 0.89822
vt 0.58352 0.00000
vt 0.58352 0.26631
vt 0.58352 0.27625
vt 0.58352 0.28859
vt 0.58619 0.91535
vt 0.58646 0.97159
vt 0.59009 0.84254
vt 0.59009 0.90540
vt 0.59388 0.27625
vt 0.59388 0.28859
vt 0.59987 0.89384
vt 0.59987 0.90400
vt 0.60025 0.87301
vt 0.60054 0.84254
vt 0.60062 0.88351
vt 0.60076 0.89384
vt 0.60090 0.90417
vt 0.60166 0.88368
vt 0.60166 0.89384
vt 0.60203 0.84254
vt 0.60203 0.87301
vt 0.60366 0.27625
vt 0.60366 0.28859
vt 0.60503 0.91535
vt 0.60508 0.97122
vt 0.60952 0.57933
vt 0.60959 0.83179
vt 0.61402 0.27625
vt 0.61402 0.28859
vt 0.62001 0.57862
vt 0.62001 0.83042
vt 0.62001 0.93738
vt 0.62001 0.95515
vt 0.62058 0.84145
vt 0.62070 0.85225
vt 0.62070 0.91583
vt 0.62072 0.92668
vt 0.62380 0.27806
vt 0.62380 0.28169
vt 0.62689 0.27625
vt 0.62689 0.28351
vt 0.62999 0.27806
vt 0.62999 0.28169
vt 0.63751 0.93738
vt 0.63751 0.95515
vt 0.63809 0.30090
vt 0.63816 0.56787
vt 0.63977 0.27806
vt 0.63977 0.28169
vt 0.64286 0.27625
vt 0.64286 0.28351
vt 0.64595 0.27806
vt 0.64595 0.28169
vt 0.64731 0.93780
vt 0.64731 0.95150
vt 0.64858 0.30128
vt 0.64858 0.56759
vt 0.65588 0.93776
vt 0.65625 0.95124
vt 0.65754 0.30100
vt 0.65768 0.56759
vt 0.66100 0.84091
vt 0.66100 0.92688
vt 0.66111 0.85250
vt 0.66111 0.91529
vt 0.66675 0.93780
vt 0.66675 0.95150
vt 0.66805 0.30128
vt 0.66805 0.56759
vt 0.67283 0.85496
vt 0.67283 0.91284
vt 0.67532 0.93776
vt 0.67569 0.95124
vt 0.67701 0.30100
vt 0.67714 0.56759
vt 0.67720 0.84424
vt 0.67720 0.92356
vt 0.68288 0.90610
vt 0.68292 0.86166
vt 0.68752 0.30128
vt 0.68752 0.55308
vt 0.68957 0.87188
vt 0.68957 0.89592
vt 0.69092 0.91429
vt 0.69097 0.85345
vt 0.69192 0.88390
vt 0.69363 0.30100
vt 0.69376 0.55308
vt 0.70008 0.86745
vt 0.70008 0.90034
vt 0.70278 0.88390
vt 0.70414 0.30128
vt 0.70414 0.55308
vt 0.71025 0.30100
vt 0.71038 0.55308
vt 0.71364 0.84036
vt 0.71364 0.92568
vt 0.71364 0.93622
vt 0.71364 0.99256
vt 0.72076 0.30128
vt 0.72076 0.54582
vt 0.73114 0.93622
vt 0.73114 0.99316
vt 0.73156 0.99204
vt 0.73649 0.84036
vt 0.73677 0.92555
vt 0.74199 0.93622
vt 0.74199 0.94623
vt 0.74199 0.95803
vt 0.74199 0.96983
vt 0.74199 0.97984
vt 0.74842 0.84036
vt 0.74842 0.92568
vt 0.75413 0.93622
vt 0.75413 0.94623
vt 0.75413 0.95803
vt 0.75413 0.96983
vt 0.75413 0.97984
vt 0.77128 0.84036
vt 0.77155 0.92555
vt 0.77422 0.00000
vt 0.77422 0.26631
vt 0.77495 0.93622
vt 0.77495 0.96670
vt 0.77620 0.93622
vt 0.77620 0.96670
vt 0.78214 0.57862
vt 0.78214 0.83042
vt 0.78400 0.22763
vt 0.78400 0.28786
vt 0.78401 0.00043
vt 0.78401 0.21731
vt 0.78614 0.22763
vt 0.78614 0.28786
vt 0.79194 0.57905
vt 0.79194 0.79593
vt 0.79194 0.80668
vt 0.79194 0.97277
vt 0.79437 0.00038
vt 0.79474 0.21704
vt 0.79765 0.80664
vt 0.79802 0.97250
vt 0.80229 0.57901
vt 0.80266 0.79566
vt 0.80523 0.10067
vt 0.80523 0.10251
vt 0.80576 0.24374
vt 0.80591 0.10159
vt 0.80594 0.28470
vt 0.80630 0.21312
vt 0.80630 0.22707
vt 0.81316 0.67929
vt 0.81316 0.68113
vt 0.81317 0.79217
vt 0.81317 0.97277
vt 0.81383 0.68021
vt 0.81530 0.30100
vt 0.81543 0.54582
vt 0.81844 0.21312
vt 0.81844 0.22707
vt 0.81899 0.24374
vt 0.81911 0.28432
vt 0.82582 0.30062
vt 0.82582 0.49573
vt 0.82634 0.52040
vt 0.82634 0.53685
vt 0.82634 0.55329
vt 0.82688 0.50606
vt 0.82688 0.56763
vt 0.82983 0.24374
vt 0.83001 0.28470
vt 0.83037 0.21312
vt 0.83037 0.22707
vt 0.83439 0.30058
vt 0.83476 0.49546
vt 0.83902 0.50606
vt 0.83902 0.56763
vt 0.83957 0.52040
vt 0.83957 0.53685
vt 0.83957 0.55329
vt 0.84251 0.21312
vt 0.84251 0.22707
vt 0.84306 0.24374
vt 0.84318 0.28432
vt 0.84527 0.30062
vt 0.84527 0.49573
vt 0.84988 0.50606
vt 0.84988 0.56556
vt 0.85131 0.50606
vt 0.85131 0.56556
vt 0.85384 0.30058
vt 0.85389 0.23504
vt 0.85405 0.27614
vt 0.85420 0.49546
vt 0.85444 0.21312
vt 0.85444 0.22324
vt 0.86471 0.30062
vt 0.86471 0.48122
vt 0.86522 0.51346
vt 0.86538 0.55456
vt 0.86577 0.49155
vt 0.86577 0.50167
vt 0.86658 0.21312
vt 0.86658 0.22324
vt 0.86713 0.23504
vt 0.86728 0.27572
vt 0.86790 0.20222
vt 0.86917 0.00025
vt 0.87499 0.20279
vt 0.87526 0.00072
vt 0.87583 0.78084
vt 0.87709 0.57888
vt 0.87791 0.49155
vt 0.87791 0.50167
vt 0.87846 0.51346
vt 0.87861 0.55415
vt 0.88292 0.78141
vt 0.88319 0.57934
vt 0.88586 0.00043
vt 0.88586 0.18102
vt 0.88650 0.19216
vt 0.88656 0.27772
vt 0.88877 0.49263
vt 0.88877 0.55214
vt 0.89379 0.57905
vt 0.89379 0.75965
vt 0.89672 0.79213
vt 0.89709 0.97250
vt 0.89943 0.19205
vt 0.89949 0.27762
vt 0.90827 0.79246
vt 0.90838 0.97250
vt 0.90992 0.19244
vt 0.90992 0.25194
vt 0.91050 0.28401
vt 0.91054 0.26319
vt 0.91108 0.28452
vt 0.91112 0.26370
vt 0.92149 0.27385
vt 0.92149 0.28401
vt 0.92224 0.26352
vt 0.92238 0.27385
vt 0.92252 0.28419
vt 0.92327 0.26370
vt 0.92327 0.27385
vt 0.92817 0.55214
vt 0.92822 0.49263
vt 0.93178 0.79240
vt 0.93189 0.97243
vt 0.93364 0.28401
vt 0.93368 0.26319
vt 0.93422 0.28452
vt 0.93426 0.26370
vt 0.93893 0.49156
vt 0.93919 0.54780
vt 0.94305 0.79246
vt 0.94316 0.97250
vt 0.94826 0.30058
vt 0.94863 0.48095
vt 0.94932 0.25194
vt 0.94937 0.19244
vt 0.95777 0.49156
vt 0.95781 0.54742
vt 0.95912 0.30020
vt 0.95912 0.47943
vt 0.96657 0.79240
vt 0.96667 0.97243
vt 0.96941 0.00038
vt 0.96978 0.18076
vt 0.97715 0.79174
vt 0.97715 0.97097
vt 0.97734 0.57901
vt 0.97771 0.75938
vt 0.98029 0.00043
vt 0.98029 0.16651
vt 0.98198 0.30020
vt 0.98198 0.47943
vt 0.98600 0.00038
vt 0.98637 0.16624
vt 1.00000 0.79174
vt 1.00000 0.97097
s 0
usemtl RTS_stone
f 1/182/144 5/183/144 6/175/144
f 1/182/4 6/175/4 2/174/4
f 1/62/150 3/172/150 7/173/150
f 1/62/22 7/173/22 5/63/22
f 100/412/201 101/403/201 105/402/201
f 100/412/84 105/402/84 104/411/84
f 101/329/199 97/315/199 99/317/199
f 101/329/203 103/323/203 107/330/203
f 101/329/82 99/317/82 103/323/82
f 101/329/86 107/330/86 105/336/86
f 102/117/200 100/119/200 104/128/200
f 102/117/83 104/128/83 106/124/83
f 102/448/202 106/447/202 107/455/202
f 102/448/85 107/455/85 103/456/85
f 104/420/205 105/428/205 109/430/205
f 104/420/88 109/430/88 108/417/88
f 105/336/90 107/330/90 111/335/90
f 105/336/90 111/335/90 109/342/90
f 106/124/204 104/128/204 108/132/204
f 106/124/87 108/132/87 110/125/87
f 106/363/206 110/362/206 111/369/206
f 106/363/89 111/369/89 107/370/89
f 108/417/207 109/430/207 113/431/207
f 108/417/92 113/431/92 112/418/92
f 109/342/90 111/335/90 115/338/90
f 109/342/90 115/338/90 113/343/90
f 11/443/154 9/446/154 10/438/154
f 11/443/26 10/438/26 12/437/26
f 110/125/91 108/132/91 112/134/91
f 110/125/91 112/134/91 114/129/91
f 110/362/208 114/361/208 115/368/208
f 110/362/93 115/368/93 111/369/93
f 112/418/209 113/431/209 117/432/209
f 112/418/94 117/432/94 116/419/94
f 113/343/90 115/338/90 119/334/90
f 113/343/90 119/334/90 117/341/90
f 114/129/91 112/134/91 116/133/91
f 114/129/91 116/133/91 118/126/91
f 114/361/210 118/360/210 119/367/210
f 114/361/95 119/367/95 115/368/95
f 116/419/211 117/432/211 121/429/211
f 116/419/96 121/429/96 120/421/96
f 117/341/213 119/334/213 123/331/213
f 117/341/98 123/331/98 121/337/98
f 118/126/91 116/133/91 120/127/91
f 118/126/91 120/127/91 122/123/91
f 118/360/212 122/359/212 123/366/212
f 118/360/97 123/366/97 119/367/97
f 120/424/100 125/434/100 124/425/100
f 120/424/215 121/433/215 125/434/215
f 121/337/102 127/322/102 125/328/102
f 121/337/217 123/331/217 127/322/217
f 122/123/214 120/127/214 124/120/214
f 122/123/99 124/120/99 126/118/99
f 122/465/101 127/454/101 123/453/101
f 122/465/216 126/466/216 127/454/216
f 124/425/104 129/435/104 128/422/104
f 124/425/219 125/434/219 129/435/219
f 125/328/106 131/316/106 129/314/106
f 125/328/221 127/322/221 131/316/221
f 126/466/105 131/451/105 127/454/105
f 126/466/220 130/467/220 131/451/220
f 128/422/108 133/436/108 132/423/108
f 128/422/223 129/435/223 133/436/223
f 129/314/110 135/287/110 133/286/110
f 129/314/225 131/316/225 135/287/225
f 13/426/152 15/427/152 16/416/152
f 13/426/24 16/416/24 14/415/24
f 130/113/103 124/120/103 128/111/103
f 130/113/218 126/118/218 124/120/218
f 130/467/109 135/452/109 131/451/109
f 130/467/224 134/468/224 135/452/224
f 132/261/111 135/256/111 134/255/111
f 132/261/226 133/262/226 135/256/226
f 134/103/107 128/111/107 132/104/107
f 134/103/222 130/113/222 128/111/222
f 14/176/153 16/298/153 12/299/153
f 14/176/25 12/299/25 10/178/25
f 15/326/155 11/327/155 12/321/155
f 15/326/27 12/321/27 16/320/27
f 154/21/130 160/24/130 158/22/130
f 154/21/245 156/23/245 160/24/245
f 154/73/125 159/69/125 155/68/125
f 154/73/240 158/74/240 159/69/240
f 156/324/128 155/319/128 157/318/128
f 156/324/243 154/325/243 155/319/243
f 158/310/126 161/307/126 159/306/126
f 158/310/241 160/311/241 161/307/241
f 159/473/127 157/482/127 155/474/127
f 159/473/242 161/481/242 157/482/242
f 160/79/129 157/78/129 161/77/129
f 160/79/244 156/80/244 157/78/244
f 27/349/167 28/348/167 32/357/167
f 27/349/39 32/357/39 31/358/39
f 27/479/166 25/480/166 26/407/166
f 27/479/38 26/407/38 28/406/38
f 27/529/168 31/517/168 29/516/168
f 27/529/40 29/516/40 25/528/40
f 29/12/163 30/11/163 26/17/163
f 29/12/35 26/17/35 25/18/35
f 29/510/164 31/511/164 32/450/164
f 29/510/36 32/450/36 30/449/36
f 3/395/148 1/396/148 2/388/148
f 3/395/20 2/388/20 4/387/20
f 32/501/165 28/484/165 26/483/165
f 32/501/37 26/483/37 30/500/37
f 35/181/167 36/180/167 40/186/167
f 35/181/39 40/186/39 39/187/39
f 35/524/166 33/525/166 34/478/166
f 35/524/38 34/478/38 36/477/38
f 35/533/168 39/523/168 37/522/168
f 35/533/40 37/522/40 33/532/40
f 37/365/163 38/364/163 34/371/163
f 37/365/35 34/371/35 33/372/35
f 37/520/164 39/521/164 40/472/164
f 37/520/36 40/472/36 38/471/36
f 40/519/165 36/509/165 34/508/165
f 40/519/37 34/508/37 38/518/37
f 5/391/146 7/392/146 8/384/146
f 5/391/18 8/384/18 6/383/18
f 6/61/147 8/7/147 4/5/147
f 6/61/19 4/5/19 2/60/19
f 7/188/149 3/189/149 4/185/149
f 7/188/21 4/185/21 8/184/21
f 73/130/186 75/131/186 79/122/186
f 73/130/66 79/122/66 77/121/66
f 75/277/184 73/258/184 74/257/184
f 75/277/64 74/257/64 76/276/64
f 75/82/3 80/93/3 79/92/3
f 77/20/181 78/19/181 74/25/181
f 77/20/61 74/25/61 73/26/61
f 78/101/183 81/106/183 76/107/183
f 78/101/63 76/107/63 74/105/63
f 79/238/67 80/237/67 77/251/67
f 80/237/182 81/236/182 78/250/182
f 80/237/62 78/250/62 77/251/62
f 80/93/185 75/82/185 76/81/185
f 80/93/65 76/81/65 81/91/65
f 82/296/192 85/297/192 90/285/192
f 82/296/73 90/285/73 88/284/73
f 82/72/74 83/71/74 85/76/74
f 83/356/187 88/351/187 89/350/187
f 83/356/68 89/350/68 84/354/68
f 83/71/190 84/70/190 87/75/190
f 83/71/71 87/75/71 85/76/71
f 86/114/75 87/116/75 84/109/75
f 88/351/6 83/356/6 82/355/6
f 88/515/188 90/507/188 91/506/188
f 88/515/69 91/506/69 89/514/69
f 89/108/189 91/115/189 86/114/189
f 89/108/70 86/114/70 84/109/70
f 9/253/156 11/373/156 15/374/156
f 9/253/28 15/374/28 13/254/28
f 9/312/151 13/313/151 14/309/151
f 9/312/23 14/309/23 10/308/23
f 90/16/191 85/14/191 87/13/191
f 90/16/72 87/13/72 91/15/72
f 91/115/5 87/116/5 86/114/5
f 92/414/193 93/401/193 97/399/193
f 92/414/76 97/399/76 96/413/76
f 93/275/113 94/280/113 95/281/113
f 93/275/228 92/274/228 94/280/228
f 94/102/112 96/110/112 98/112/112
f 94/102/227 92/100/227 96/110/227
f 94/445/194 98/444/194 99/457/194
f 94/445/77 99/457/77 95/458/77
f 96/413/197 97/399/197 101/403/197
f 96/413/80 101/403/80 100/412/80
f 97/315/195 93/289/195 95/288/195
f 97/315/78 95/288/78 99/317/78
f 98/112/196 96/110/196 100/119/196
f 98/112/79 100/119/79 102/117/79
f 98/444/198 102/448/198 103/456/198
f 98/444/81 103/456/81 99/457/81
usemtl RTS_stone_dressed
f 17/29/162 19/94/162 23/95/162
f 17/29/34 23/95/34 21/30/34
f 17/409/157 21/410/157 22/353/157
f 17/409/29 22/353/29 18/352/29
f 19/9/160 17/10/160 18/4/160
f 19/9/32 18/4/32 20/3/32
f 21/66/158 23/67/158 24/32/158
f 21/66/30 24/32/30 22/31/30
f 22/6/159 24/27/159 20/28/159
f 22/6/31 20/28/31 18/8/31
f 23/143/161 19/144/161 20/99/161
f 23/143/33 20/99/33 24/98/33
usemtl RTS_crimson_trim
f 41/282/162 43/379/162 47/380/162
f 41/282/34 47/380/34 45/283/34
f 41/339/169 45/340/169 46/333/169
f 41/339/41 46/333/41 42/332/41
f 43/530/171 41/531/171 42/527/171
f 43/530/43 42/527/43 44/526/43
f 45/393/170 47/394/170 48/390/170
f 45/393/42 48/390/42 46/389/42
f 46/177/159 48/278/159 44/279/159
f 46/177/31 44/279/31 42/179/31
f 47/346/172 43/347/172 44/345/172
f 47/346/44 44/345/44 48/344/44
f 49/248/180 54/244/180 60/245/180
f 49/248/50 60/245/50 55/249/50
f 50/1/179 49/33/179 55/34/179
f 50/1/49 55/34/49 56/2/49
f 50/461/175 51/459/175 52/400/175
f 50/461/46 52/400/46 54/460/46
f 51/231/173 50/235/173 56/234/173
f 51/231/45 56/234/45 57/230/45
f 51/459/51 53/398/51 52/400/51
f 52/400/52 53/397/52 54/460/52
f 53/96/1 57/64/1 59/97/1
f 53/96/143 51/65/143 57/64/143
f 54/136/176 53/96/176 59/97/176
f 54/136/47 59/97/47 60/135/47
f 54/460/174 49/462/174 50/461/174
f 55/469/178 60/463/178 58/408/178
f 55/469/48 58/408/48 57/464/48
f 57/464/177 56/470/177 55/469/177
f 58/408/54 59/404/54 57/464/54
f 60/463/53 59/405/53 58/408/53
usemtl RTS_iron
f 136/439/121 145/442/121 142/440/121
f 136/439/236 139/441/236 145/442/236
f 136/45/7 137/49/7 139/54/7
f 136/499/114 143/476/114 138/475/114
f 136/499/229 142/498/229 143/476/229
f 137/49/117 138/37/117 141/53/117
f 137/49/232 136/38/232 138/37/232
f 140/168/8 141/164/8 138/152/8
f 141/53/118 139/59/118 137/49/118
f 141/53/233 140/58/233 139/59/233
f 143/153/10 144/160/10 147/169/10
f 143/153/115 140/168/115 138/152/115
f 143/153/230 147/169/230 140/168/230
f 144/165/120 142/171/120 146/161/120
f 144/165/235 143/170/235 142/171/235
f 145/157/9 146/161/9 142/167/9
f 145/513/116 140/486/116 147/485/116
f 145/513/231 139/512/231 140/486/231
f 147/149/119 146/161/119 145/150/119
f 147/149/234 144/165/234 146/161/234
f 148/226/11 149/227/11 150/212/11
f 148/55/124 153/40/124 151/41/124
f 148/55/239 150/57/239 153/40/239
f 149/382/123 151/385/123 152/386/123
f 149/382/238 148/381/238 151/385/238
f 150/57/122 152/42/122 153/40/122
f 150/57/237 149/56/237 152/42/237
f 153/192/12 152/206/12 151/207/12
f 174/88/138 173/85/138 175/87/138
f 174/88/251 178/83/251 173/85/251
f 175/229/59 173/228/59 177/232/59
f 176/140/141 175/146/141 177/139/141
f 176/140/252 174/145/252 175/146/252
f 176/239/16 178/242/16 174/243/16
f 178/142/142 177/137/142 173/141/142
f 178/142/253 176/138/253 177/137/253
f 191/273/138 190/266/138 192/272/138
f 191/273/251 195/265/251 190/266/251
f 192/154/59 190/151/59 194/166/59
f 193/39/16 195/48/16 191/50/16
f 193/86/141 192/90/141 194/84/141
f 193/86/252 191/89/252 192/90/252
f 195/378/142 194/375/142 190/377/142
f 195/378/253 193/376/253 194/375/253
f 61/196/55 62/197/55 64/194/55
f 61/196/55 64/194/55 63/193/55
f 61/304/16 63/305/16 65/303/16
f 63/216/56 64/217/56 66/214/56
f 63/216/56 66/214/56 65/213/56
f 64/295/59 62/293/59 72/291/59
f 65/210/57 66/211/57 68/205/57
f 65/210/57 68/205/57 67/204/57
f 65/303/16 67/301/16 69/300/16
f 67/204/58 68/205/58 70/203/58
f 67/204/58 70/203/58 69/202/58
f 68/292/59 66/294/59 64/295/59
f 69/221/2 70/220/2 72/222/2
f 69/221/2 72/222/2 71/223/2
f 69/300/16 61/304/16 65/303/16
f 69/300/16 71/302/16 61/304/16
f 71/198/60 62/197/60 61/196/60
f 71/198/60 72/199/60 62/197/60
f 72/291/59 68/292/59 64/295/59
f 72/291/59 70/290/59 68/292/59
usemtl RTS_crimson_cloth
f 163/190/247 162/200/247 172/201/247
f 163/488/134 168/490/134 162/487/134
f 164/51/135 165/43/135 163/46/135
f 165/269/15 170/268/15 169/271/15
f 165/43/139 168/35/139 163/46/139
f 166/195/131 163/190/131 172/201/131
f 166/195/246 164/191/246 163/190/246
f 167/489/140 162/487/140 168/490/140
f 168/218/132 169/215/132 171/209/132
f 168/218/249 165/219/249 169/215/249
f 170/268/13 164/264/13 166/263/13
f 170/268/136 171/270/136 169/271/136
f 170/268/145 165/269/145 164/264/145
f 170/268/250 172/267/250 171/270/250
f 171/209/248 167/208/248 168/218/248
f 171/52/137 172/44/137 167/47/137
f 172/267/14 170/268/14 166/263/14
f 172/44/133 162/36/133 167/47/133
f 180/224/247 179/240/247 189/241/247
f 180/503/134 185/505/134 179/502/134
f 181/162/135 182/155/135 180/158/135
f 182/155/139 185/147/139 180/158/139
f 182/495/15 187/494/15 186/497/15
f 183/233/131 180/224/131 189/241/131
f 183/233/246 181/225/246 180/224/246
f 184/504/140 179/502/140 185/505/140
f 185/259/132 186/252/132 188/247/132
f 185/259/249 182/260/249 186/252/249
f 187/494/13 181/492/13 183/491/13
f 187/494/136 188/496/136 186/497/136
f 187/494/145 182/495/145 181/492/145
f 187/494/250 189/493/250 188/496/250
f 188/163/137 189/156/137 184/159/137
f 188/247/248 184/246/248 185/259/248
f 189/156/133 179/148/133 184/159/133
f 189/493/17 187/494/17 183/491/17
