# Blender 4.0.2
# www.blender.org
mtllib barracks_crimson.mtl
o barracks_crimson
v 3.970000 0.000000 -2.970000
v 3.970000 0.030000 -3.000000
v 4.000000 0.030000 -2.970000
v 3.970000 0.320000 -3.000000
v 3.970000 0.350000 -2.970000
v 4.000000 0.320000 -2.970000
v 3.970000 0.000000 2.970000
v 4.000000 0.030000 2.970000
v 3.970000 0.030000 3.000000
v 3.970000 0.350000 2.970000
v 3.970000 0.320000 3.000000
v 4.000000 0.320000 2.970000
v -3.970000 0.000000 -2.970000
v -4.000000 0.030000 -2.970000
v -3.970000 0.030000 -3.000000
v -3.970000 0.350000 -2.970000
v -3.970000 0.320000 -3.000000
v -4.000000 0.320000 -2.970000
v -3.970000 0.000000 2.970000
v -3.970000 0.030000 3.000000
v -4.000000 0.030000 2.970000
v -3.970000 0.350000 2.970000
v -4.000000 0.320000 2.970000
v -3.970000 0.320000 3.000000
v 3.670000 0.350000 -2.670000
v 3.670000 0.380000 -2.700000
v 3.700000 0.380000 -2.670000
v 3.670000 0.620000 -2.700000
v 3.670000 0.650000 -2.670000
v 3.700000 0.620000 -2.670000
v 3.670000 0.350000 2.670000
v 3.700000 0.380000 2.670000
v 3.670000 0.380000 2.700000
v 3.670000 0.650000 2.670000
v 3.670000 0.620000 2.700000
v 3.700000 0.620000 2.670000
v -3.670000 0.350000 -2.670000
v -3.700000 0.380000 -2.670000
v -3.670000 0.380000 -2.700000
v -3.670000 0.650000 -2.670000
v -3.670000 0.620000 -2.700000
v -3.700000 0.620000 -2.670000
v -3.670000 0.350000 2.670000
v -3.670000 0.380000 2.700000
v -3.700000 0.380000 2.670000
v -3.670000 0.650000 2.670000
v -3.700000 0.620000 2.670000
v -3.670000 0.620000 2.700000
v 3.370000 0.650000 -2.170000
v 3.370000 0.680000 -2.200000
v 3.400000 0.680000 -2.170000
v 3.370000 3.320000 -2.200000
v 3.370000 3.350000 -2.170000
v 3.400000 3.320000 -2.170000
v 3.370000 0.650000 2.170000
v 3.400000 0.680000 2.170000
v 3.370000 0.680000 2.200000
v 3.370000 3.350000 2.170000
v 3.370000 3.320000 2.200000
v 3.400000 3.320000 2.170000
v -3.370000 0.650000 -2.170000
v -3.400000 0.680000 -2.170000
v -3.370000 0.680000 -2.200000
v -3.370000 3.350000 -2.170000
v -3.370000 3.320000 -2.200000
v -3.400000 3.320000 -2.170000
v -3.370000 0.650000 2.170000
v -3.370000 0.680000 2.200000
v -3.400000 0.680000 2.170000
v -3.370000 3.350000 2.170000
v -3.400000 3.320000 2.170000
v -3.370000 3.320000 2.200000
v 3.520000 0.650000 -2.470000
v 3.520000 0.680000 -2.500000
v 3.550000 0.680000 -2.470000
v 3.520000 3.020000 -2.500000
v 3.520000 3.050000 -2.470000
v 3.550000 3.020000 -2.470000
v 3.520000 0.650000 2.470000
v 3.550000 0.680000 2.470000
v 3.520000 0.680000 2.500000
v 3.520000 3.050000 2.470000
v 3.520000 3.020000 2.500000
v 3.550000 3.020000 2.470000
v 2.880000 0.650000 -2.470000
v 2.850000 0.680000 -2.470000
v 2.880000 0.680000 -2.500000
v 2.880000 3.050000 -2.470000
v 2.880000 3.020000 -2.500000
v 2.850000 3.020000 -2.470000
v 2.880000 0.650000 2.470000
v 2.880000 0.680000 2.500000
v 2.850000 0.680000 2.470000
v 2.880000 3.050000 2.470000
v 2.850000 3.020000 2.470000
v 2.880000 3.020000 2.500000
v -2.880000 0.650000 -2.470000
v -2.880000 0.680000 -2.500000
v -2.850000 0.680000 -2.470000
v -2.880000 3.020000 -2.500000
v -2.880000 3.050000 -2.470000
v -2.850000 3.020000 -2.470000
v -2.880000 0.650000 2.470000
v -2.850000 0.680000 2.470000
v -2.880000 0.680000 2.500000
v -2.880000 3.050000 2.470000
v -2.880000 3.020000 2.500000
v -2.850000 3.020000 2.470000
v -3.520000 0.650000 -2.470000
v -3.550000 0.680000 -2.470000
v -3.520000 0.680000 -2.500000
v -3.520000 3.050000 -2.470000
v -3.520000 3.020000 -2.500000
v -3.550000 3.020000 -2.470000
v -3.520000 0.650000 2.470000
v -3.520000 0.680000 2.500000
v -3.550000 0.680000 2.470000
v -3.520000 3.050000 2.470000
v -3.550000 3.020000 2.470000
v -3.520000 3.020000 2.500000
v 3.470000 3.350000 -2.270000
v 3.470000 3.380000 -2.300000
v 3.500000 3.380000 -2.270000
v 3.470000 3.540000 -2.300000
v 3.470000 3.570000 -2.270000
v 3.500000 3.540000 -2.270000
v 3.470000 3.350000 2.270000
v 3.500000 3.380000 2.270000
v 3.470000 3.380000 2.300000
v 3.470000 3.570000 2.270000
v 3.470000 3.540000 2.300000
v 3.500000 3.540000 2.270000
v -3.470000 3.350000 -2.270000
v -3.500000 3.380000 -2.270000
v -3.470000 3.380000 -2.300000
v -3.470000 3.570000 -2.270000
v -3.470000 3.540000 -2.300000
v -3.500000 3.540000 -2.270000
v -3.470000 3.350000 2.270000
v -3.470000 3.380000 2.300000
v -3.500000 3.380000 2.270000
v -3.470000 3.570000 2.270000
v -3.500000 3.540000 2.270000
v -3.470000 3.540000 2.300000
v -3.770000 3.600000 -2.800000
v -3.800000 3.600000 -2.770000
v -3.770000 3.570000 -2.770000
v -3.770000 3.570000 2.770000
v -3.800000 3.600000 2.770000
v -3.770000 3.600000 2.800000
v -3.770000 3.760000 2.800000
v -3.800000 3.773523 2.770000
v -3.770000 3.806094 2.774683
v -3.770000 5.553905 0.025317
v -3.800000 5.534451 0.000000
v -3.770000 5.553905 -0.025317
v -3.770000 3.760000 -2.800000
v -3.770000 3.806094 -2.774683
v -3.800000 3.773523 -2.770000
v 3.770000 3.600000 -2.800000
v 3.770000 3.570000 -2.770000
v 3.800000 3.600000 -2.770000
v 3.770000 3.600000 2.800000
v 3.800000 3.600000 2.770000
v 3.770000 3.570000 2.770000
v 3.770000 3.806094 2.774683
v 3.800000 3.773523 2.770000
v 3.770000 3.760000 2.800000
v 3.770000 5.553905 -0.025317
v 3.800000 5.534451 -0.000000
v 3.770000 5.553905 0.025317
v 3.770000 3.760000 -2.800000
v 3.800000 3.773523 -2.770000
v 3.770000 3.806094 -2.774683
v 3.850000 5.570000 0.100000
v -3.850000 5.570000 0.100000
v 3.850000 5.483398 0.050000
v -3.850000 5.483397 0.050000
v 3.850000 5.483398 -0.050000
v -3.850000 5.483397 -0.050000
v 3.850000 5.570000 -0.100000
v -3.850000 5.570000 -0.100000
v 3.850000 5.656603 -0.050000
v -3.850000 5.656602 -0.050000
v 3.850000 5.656603 0.050000
v -3.850000 5.656602 0.050000
v 2.645000 4.150000 -1.245000
v 2.645000 4.180000 -1.275000
v 2.675000 4.180000 -1.245000
v 2.645000 5.720000 -1.275000
v 2.645000 5.750000 -1.245000
v 2.675000 5.720000 -1.245000
v 2.645000 4.150000 -0.755000
v 2.675000 4.180000 -0.755000
v 2.645000 4.180000 -0.725000
v 2.645000 5.750000 -0.755000
v 2.645000 5.720000 -0.725000
v 2.675000 5.720000 -0.755000
v 2.155000 4.150000 -1.245000
v 2.125000 4.180000 -1.245000
v 2.155000 4.180000 -1.275000
v 2.155000 5.750000 -1.245000
v 2.155000 5.720000 -1.275000
v 2.125000 5.720000 -1.245000
v 2.155000 4.150000 -0.755000
v 2.155000 4.180000 -0.725000
v 2.125000 4.180000 -0.755000
v 2.155000 5.750000 -0.755000
v 2.125000 5.720000 -0.755000
v 2.155000 5.720000 -0.725000
v -2.155000 4.150000 -1.245000
v -2.155000 4.180000 -1.275000
v -2.125000 4.180000 -1.245000
v -2.155000 5.720000 -1.275000
v -2.155000 5.750000 -1.245000
v -2.125000 5.720000 -1.245000
v -2.155000 4.150000 -0.755000
v -2.125000 4.180000 -0.755000
v -2.155000 4.180000 -0.725000
v -2.155000 5.750000 -0.755000
v -2.155000 5.720000 -0.725000
v -2.125000 5.720000 -0.755000
v -2.645000 4.150000 -1.245000
v -2.675000 4.180000 -1.245000
v -2.645000 4.180000 -1.275000
v -2.645000 5.750000 -1.245000
v -2.645000 5.720000 -1.275000
v -2.675000 5.720000 -1.245000
v -2.645000 4.150000 -0.755000
v -2.645000 4.180000 -0.725000
v -2.675000 4.180000 -0.755000
v -2.645000 5.750000 -0.755000
v -2.675000 5.720000 -0.755000
v -2.645000 5.720000 -0.725000
v -1.170000 0.650000 2.080000
v -1.200000 0.680000 2.080000
v -1.170000 0.680000 2.050000
v -1.170000 0.650000 2.420000
v -1.170000 0.680000 2.450000
v -1.200000 0.680000 2.420000
v -0.880000 0.650000 2.080000
v -0.880000 0.680000 2.050000
v -0.850000 0.680000 2.080000
v -0.880000 0.650000 2.420000
v -0.850000 0.680000 2.420000
v -0.880000 0.680000 2.450000
v -1.200000 1.800000 2.080000
v -1.170000 1.797045 2.050000
v -1.170000 1.797045 2.450000
v -1.200000 1.800000 2.420000
v -0.880000 1.802955 2.050000
v -0.850000 1.800000 2.080000
v -0.850000 1.800000 2.420000
v -0.880000 1.802955 2.450000
v -1.108655 2.259220 2.080000
v -1.080396 2.247515 2.050000
v -1.080396 2.247515 2.450000
v -1.108655 2.259220 2.420000
v -0.813557 2.136986 2.050000
v -0.785298 2.125281 2.080000
v -0.785298 2.125281 2.420000
v -0.813557 2.136986 2.450000
v -0.848528 2.648528 2.080000
v -0.826899 2.626899 2.050000
v -0.826899 2.626899 2.450000
v -0.848528 2.648528 2.420000
v -0.622670 2.422669 2.050000
v -0.601041 2.401041 2.080000
v -0.601041 2.401041 2.420000
v -0.622670 2.422669 2.450000
v -0.459220 2.908655 2.080000
v -0.447515 2.880396 2.050000
v -0.447515 2.880396 2.450000
v -0.459220 2.908655 2.420000
v -0.336986 2.613557 2.050000
v -0.325281 2.585298 2.080000
v -0.325281 2.585298 2.420000
v -0.336986 2.613557 2.450000
v -0.000000 3.000000 2.080000
v 0.000000 2.969412 2.050000
v -0.000000 2.969412 2.450000
v -0.000000 3.000000 2.420000
v 0.000000 2.680588 2.050000
v -0.000000 2.650000 2.080000
v -0.000000 2.650000 2.420000
v -0.000000 2.680588 2.450000
v 0.459220 2.908655 2.080000
v 0.447515 2.880396 2.050000
v 0.447515 2.880396 2.450000
v 0.459220 2.908655 2.420000
v 0.336986 2.613557 2.050000
v 0.325281 2.585298 2.080000
v 0.325281 2.585298 2.420000
v 0.336986 2.613557 2.450000
v 0.848528 2.648528 2.080000
v 0.826899 2.626899 2.050000
v 0.826899 2.626899 2.450000
v 0.848528 2.648528 2.420000
v 0.622670 2.422669 2.050000
v 0.601041 2.401041 2.080000
v 0.601041 2.401041 2.420000
v 0.622670 2.422669 2.450000
v 1.108655 2.259220 2.080000
v 1.080396 2.247515 2.050000
v 1.080396 2.247515 2.450000
v 1.108655 2.259220 2.420000
v 0.813557 2.136986 2.050000
v 0.785298 2.125281 2.080000
v 0.785298 2.125281 2.420000
v 0.813557 2.136986 2.450000
v 1.200000 1.800000 2.080000
v 1.170000 1.797045 2.050000
v 1.170000 1.797045 2.450000
v 1.200000 1.800000 2.420000
v 0.880000 1.802955 2.050000
v 0.850000 1.800000 2.080000
v 0.850000 1.800000 2.420000
v 0.880000 1.802955 2.450000
v 1.200000 0.680000 2.080000
v 1.170000 0.650000 2.080000
v 1.170000 0.680000 2.050000
v 1.170000 0.650000 2.420000
v 1.200000 0.680000 2.420000
v 1.170000 0.680000 2.450000
v 0.880000 0.650000 2.080000
v 0.850000 0.680000 2.080000
v 0.880000 0.680000 2.050000
v 0.850000 0.680000 2.420000
v 0.880000 0.650000 2.420000
v 0.880000 0.680000 2.450000
v 0.820000 0.650000 2.200000
v 0.820000 0.680000 2.170000
v 0.850000 0.680000 2.200000
v 0.820000 1.770000 2.170000
v 0.820000 1.800000 2.200000
v 0.850000 1.770000 2.200000
v 0.820000 0.650000 2.240000
v 0.850000 0.680000 2.240000
v 0.820000 0.680000 2.270000
v 0.820000 1.800000 2.240000
v 0.820000 1.770000 2.270000
v 0.850000 1.770000 2.240000
v -0.820000 0.650000 2.200000
v -0.850000 0.680000 2.200000
v -0.820000 0.680000 2.170000
v -0.820000 1.800000 2.200000
v -0.820000 1.770000 2.170000
v -0.850000 1.770000 2.200000
v -0.820000 0.650000 2.240000
v -0.820000 0.680000 2.270000
v -0.850000 0.680000 2.240000
v -0.820000 1.800000 2.240000
v -0.850000 1.770000 2.240000
v -0.820000 1.770000 2.270000
v 0.835436 1.813707 2.190000
v 0.799568 1.820000 2.170000
v 0.830000 1.800000 2.190000
v -0.830000 1.800000 2.190000
v -0.799568 1.820000 2.170000
v -0.835436 1.813707 2.190000
v 0.014564 2.586293 2.190000
v -0.014564 2.586293 2.190000
v 0.000000 2.572535 2.170000
v 0.835436 1.813707 2.250000
v 0.830000 1.800000 2.250000
v 0.799568 1.820000 2.270000
v -0.835436 1.813707 2.250000
v -0.799568 1.820000 2.270000
v -0.830000 1.800000 2.250000
v 0.014564 2.586293 2.250000
v 0.000000 2.572535 2.270000
v -0.014564 2.586293 2.250000
v 1.170000 0.000000 2.630000
v 1.170000 0.030000 2.600000
v 1.200000 0.030000 2.630000
v 1.170000 0.270000 2.600000
v 1.170000 0.300000 2.630000
v 1.200000 0.270000 2.630000
v 1.170000 0.000000 2.970000
v 1.200000 0.030000 2.970000
v 1.170000 0.030000 3.000000
v 1.170000 0.300000 2.970000
v 1.170000 0.270000 3.000000
v 1.200000 0.270000 2.970000
v -1.170000 0.000000 2.630000
v -1.200000 0.030000 2.630000
v -1.170000 0.030000 2.600000
v -1.170000 0.300000 2.630000
v -1.170000 0.270000 2.600000
v -1.200000 0.270000 2.630000
v -1.170000 0.000000 2.970000
v -1.170000 0.030000 3.000000
v -1.200000 0.030000 2.970000
v -1.170000 0.300000 2.970000
v -1.200000 0.270000 2.970000
v -1.170000 0.270000 3.000000
v 3.500000 3.130000 2.545000
v 3.480000 3.130000 2.525000
v 3.480000 3.150000 2.545000
v 2.920000 3.150000 2.545000
v 2.920000 3.130000 2.525000
v 2.900000 3.130000 2.545000
v 2.900000 1.370000 2.545000
v 2.920000 1.394907 2.525000
v 2.914866 1.363379 2.545000
v 3.185134 1.606621 2.545000
v 3.200000 1.593093 2.525000
v 3.214866 1.606621 2.545000
v 3.500000 1.370000 2.545000
v 3.485134 1.363379 2.545000
v 3.480000 1.394907 2.525000
v 3.500000 3.130000 2.555000
v 3.480000 3.150000 2.555000
v 3.480000 3.130000 2.575000
v 2.900000 3.130000 2.555000
v 2.920000 3.130000 2.575000
v 2.920000 3.150000 2.555000
v 2.914866 1.363379 2.555000
v 2.920000 1.394907 2.575000
v 2.900000 1.370000 2.555000
v 3.214866 1.606621 2.555000
v 3.200000 1.593093 2.575000
v 3.185134 1.606621 2.555000
v 3.500000 1.370000 2.555000
v 3.480000 1.394907 2.575000
v 3.485134 1.363379 2.555000
v 3.620000 3.180000 2.585000
v 2.780000 3.180000 2.585000
v 3.620000 3.149689 2.567500
v 2.780000 3.149689 2.567500
v 3.620000 3.149689 2.532500
v 2.780000 3.149689 2.532500
v 3.620000 3.180000 2.515000
v 2.780000 3.180000 2.515000
v 3.620000 3.210311 2.532500
v 2.780000 3.210311 2.532500
v 3.620000 3.210311 2.567500
v 2.780000 3.210311 2.567500
v -2.900000 3.130000 2.545000
v -2.920000 3.130000 2.525000
v -2.920000 3.150000 2.545000
v -3.480000 3.150000 2.545000
v -3.480000 3.130000 2.525000
v -3.500000 3.130000 2.545000
v -3.500000 1.370000 2.545000
v -3.480000 1.394907 2.525000
v -3.485134 1.363379 2.545000
v -3.214866 1.606621 2.545000
v -3.200000 1.593093 2.525000
v -3.185134 1.606621 2.545000
v -2.900000 1.370000 2.545000
v -2.914866 1.363379 2.545000
v -2.920000 1.394907 2.525000
v -2.900000 3.130000 2.555000
v -2.920000 3.150000 2.555000
v -2.920000 3.130000 2.575000
v -3.500000 3.130000 2.555000
v -3.480000 3.130000 2.575000
v -3.480000 3.150000 2.555000
v -3.485134 1.363379 2.555000
v -3.480000 1.394907 2.575000
v -3.500000 1.370000 2.555000
v -3.185134 1.606621 2.555000
v -3.200000 1.593093 2.575000
v -3.214866 1.606621 2.555000
v -2.900000 1.370000 2.555000
v -2.920000 1.394907 2.575000
v -2.914866 1.363379 2.555000
v -2.780000 3.180000 2.585000
v -3.620000 3.180000 2.585000
v -2.780000 3.149689 2.567500
v -3.620000 3.149689 2.567500
v -2.780000 3.149689 2.532500
v -3.620000 3.149689 2.532500
v -2.780000 3.180000 2.515000
v -3.620000 3.180000 2.515000
v -2.780000 3.210311 2.532500
v -3.620000 3.210311 2.532500
v -2.780000 3.210311 2.567500
v -3.620000 3.210311 2.567500
vn -0.0000 -0.0000 -1.0000
vn -1.0000 -0.0000 -0.0000
vn -0.0000 1.0000 -0.0000
vn 1.0000 -0.0000 -0.0000
vn -0.0000 -0.0000 1.0000
vn 0.5773 -0.5774 -0.5774
vn 0.5773 0.5774 -0.5774
vn 0.5773 -0.5774 0.5774
vn 0.5773 0.5774 0.5774
vn -0.5773 -0.5774 -0.5774
vn -0.5773 0.5774 -0.5774
vn -0.5773 -0.5774 0.5774
vn -0.5773 0.5774 0.5774
vn 0.7071 -0.7071 -0.0000
vn 0.7071 -0.0000 -0.7071
vn 0.7071 0.7071 -0.0000
vn 0.7071 -0.0000 0.7071
vn -0.0000 -0.7071 0.7071
vn -0.0000 0.7071 0.7071
vn -0.7071 -0.0000 0.7071
vn -0.7071 -0.7071 -0.0000
vn -0.7071 0.7071 -0.0000
vn -0.7071 -0.0000 -0.7071
vn -0.0000 -0.7071 -0.7071
vn -0.0000 0.7071 -0.7071
vn -0.0000 -1.0000 -0.0000
vn 0.5774 -0.5773 -0.5773
vn 0.5774 0.5773 -0.5773
vn 0.5774 -0.5773 0.5773
vn 0.5774 0.5773 0.5773
vn -0.5774 -0.5773 -0.5773
vn -0.5774 0.5773 -0.5773
vn -0.5774 -0.5773 0.5773
vn -0.5774 0.5773 0.5773
vn 0.5774 -0.5773 -0.5774
vn 0.5773 0.5773 -0.5774
vn 0.5774 -0.5773 0.5774
vn 0.5773 0.5773 0.5774
vn -0.5774 -0.5773 -0.5774
vn -0.5773 0.5773 -0.5774
vn -0.5774 -0.5773 0.5774
vn -0.5773 0.5773 0.5774
vn 0.5773 -0.5774 -0.5773
vn 0.5774 0.5774 -0.5773
vn 0.5773 -0.5774 0.5773
vn 0.5774 0.5774 0.5773
vn -0.5773 -0.5774 -0.5773
vn -0.5774 0.5774 -0.5773
vn -0.5773 -0.5774 0.5773
vn -0.5774 0.5774 0.5773
vn -0.0000 0.8439 0.5365
vn -0.0000 0.8439 -0.5365
vn -0.5505 0.4019 0.7317
vn -0.5441 0.8390 -0.0000
vn -0.5506 0.4019 -0.7317
vn 0.5506 0.4019 0.7317
vn 0.5441 0.8390 -0.0000
vn 0.5505 0.4019 -0.7317
vn -0.7071 0.5967 0.3793
vn -0.7071 0.5967 -0.3794
vn 0.7071 0.5967 -0.3793
vn 0.7071 0.5967 0.3794
vn -0.0000 0.4814 0.8765
vn -0.0000 0.4814 -0.8765
vn -0.0000 -0.5000 0.8660
vn -0.0000 -0.5000 -0.8660
vn -0.0000 0.5000 -0.8660
vn -0.0000 0.5000 0.8660
vn -0.9808 0.1951 -0.0000
vn 0.9808 -0.1951 -0.0000
vn -0.8315 0.5556 -0.0000
vn 0.8315 -0.5556 -0.0000
vn -0.5556 0.8315 -0.0000
vn 0.5556 -0.8315 -0.0000
vn -0.1951 0.9808 -0.0000
vn 0.1951 -0.9808 -0.0000
vn 0.1951 0.9808 -0.0000
vn -0.1951 -0.9808 -0.0000
vn 0.5556 0.8315 -0.0000
vn -0.5556 -0.8315 -0.0000
vn 0.8315 0.5556 -0.0000
vn -0.8315 -0.5556 -0.0000
vn 0.9808 0.1951 -0.0000
vn -0.9808 -0.1951 -0.0000
vn -0.6935 0.1380 -0.7071
vn 0.6935 -0.1380 -0.7071
vn 0.6935 -0.1379 0.7071
vn -0.6935 0.1379 0.7071
vn -0.5879 0.3929 -0.7071
vn 0.5879 -0.3928 -0.7071
vn 0.5879 -0.3928 0.7071
vn -0.5879 0.3929 0.7071
vn -0.3928 0.5879 -0.7071
vn 0.3928 -0.5879 -0.7071
vn 0.3928 -0.5879 0.7071
vn -0.3928 0.5879 0.7071
vn -0.1379 0.6935 -0.7071
vn 0.1379 -0.6935 -0.7071
vn 0.1380 -0.6935 0.7071
vn -0.1380 0.6935 0.7071
vn 0.1380 0.6935 -0.7071
vn -0.1380 -0.6935 -0.7071
vn -0.1379 -0.6935 0.7071
vn 0.1379 0.6935 0.7071
vn 0.3928 0.5879 -0.7071
vn -0.3928 -0.5879 -0.7071
vn -0.3928 -0.5879 0.7071
vn 0.3928 0.5879 0.7071
vn 0.5879 0.3929 -0.7071
vn -0.5879 -0.3928 -0.7071
vn -0.5879 -0.3928 0.7071
vn 0.5879 0.3928 0.7071
vn 0.6935 0.1379 -0.7071
vn -0.6935 -0.1379 -0.7071
vn -0.6935 -0.1380 0.7071
vn 0.6935 0.1380 0.7071
vn 0.5773 0.5774 -0.5773
vn -0.5773 0.5774 -0.5773
vn -0.6854 0.7282 -0.0000
vn 0.4547 -0.1803 -0.8722
vn -0.4547 -0.1803 -0.8722
vn -0.0000 0.8239 -0.5667
vn 0.4547 -0.1803 0.8722
vn -0.4547 -0.1803 0.8722
vn -0.0000 0.8239 0.5667
vn 0.4846 0.5149 -0.7071
vn -0.4846 0.5149 -0.7071
vn 0.4846 0.5149 0.7071
vn -0.4846 0.5149 0.7071
vn 0.9296 -0.3686 -0.0000
vn -0.9296 -0.3686 -0.0000
vn 0.6854 0.7282 -0.0000
vn 0.5774 0.5774 -0.5774
vn 0.5773 0.5774 0.5773
vn -0.5774 0.5774 -0.5774
vn -0.5773 0.5774 0.5773
vn 0.6690 -0.7433 -0.0000
vn -0.6690 -0.7433 -0.0000
vn 0.5774 0.5773 -0.5774
vn -0.2211 -0.4965 -0.8394
vn -0.0000 -0.8283 0.5603
vn 0.2211 -0.4965 -0.8394
vn 0.5774 0.5773 0.5774
vn -0.2211 -0.4965 0.8394
vn -0.0000 -0.8283 -0.5603
vn 0.2211 -0.4965 0.8394
vn 0.4730 -0.5256 -0.7071
vn -0.4123 -0.5825 0.7005
vn -0.4730 -0.5256 0.7071
vn 0.4123 -0.5825 -0.7005
vn -0.4068 -0.9135 -0.0000
vn 0.4068 -0.9135 -0.0000
vn -0.5774 0.5773 -0.5774
vn -0.5774 0.5773 0.5774
vn -0.7071 0.5967 0.3794
vn 0.7071 0.5967 -0.3794
vn -0.6935 0.1379 -0.7071
vn 0.6935 -0.1379 -0.7071
vn 0.6935 -0.1380 0.7071
vn -0.6935 0.1380 0.7071
vn -0.5879 0.3928 -0.7071
vn -0.5879 0.3928 0.7071
vn -0.1380 0.6935 -0.7071
vn 0.1380 -0.6935 -0.7071
vn 0.1379 -0.6935 0.7071
vn -0.1379 0.6935 0.7071
vn 0.1379 0.6935 -0.7071
vn -0.1379 -0.6935 -0.7071
vn -0.1380 -0.6935 0.7071
vn 0.1380 0.6935 0.7071
vn 0.5879 0.3928 -0.7071
vn 0.5879 0.3929 0.7071
vn 0.6935 0.1380 -0.7071
vn -0.6935 -0.1380 -0.7071
vn -0.6935 -0.1379 0.7071
vn 0.6935 0.1379 0.7071
vn 0.4123 -0.5825 0.7005
vn -0.4730 -0.5256 -0.7071
vn -0.4123 -0.5825 -0.7005
vn 0.4730 -0.5256 0.7071
vt 0.00000 0.00109
vt 0.00000 0.28917
vt 0.00000 0.30020
vt 0.00000 0.57376
vt 0.00000 0.58479
vt 0.00000 0.82933
vt 0.00000 0.84145
vt 0.00000 0.99891
vt 0.00002 0.84036
vt 0.00002 1.00000
vt 0.00107 0.00000
vt 0.00107 0.00109
vt 0.00107 0.28917
vt 0.00107 0.29025
vt 0.00107 0.58370
vt 0.00107 0.58479
vt 0.00107 0.82933
vt 0.00107 0.83042
vt 0.09426 0.84145
vt 0.09426 0.99891
vt 0.09428 0.84036
vt 0.09428 1.00000
vt 0.09535 0.84145
vt 0.09535 0.99891
vt 0.10514 0.92520
vt 0.10514 0.99208
vt 0.10621 0.84036
vt 0.10621 0.92514
vt 0.10621 0.92629
vt 0.10621 0.93622
vt 0.10621 0.99202
vt 0.10621 0.99316
vt 0.12371 0.93622
vt 0.12371 0.99202
vt 0.12371 0.99316
vt 0.12478 0.99208
vt 0.12906 0.84036
vt 0.12906 0.92514
vt 0.12906 0.92629
vt 0.13014 0.92520
vt 0.13456 0.99208
vt 0.13563 0.93622
vt 0.13563 0.99202
vt 0.13563 0.99316
vt 0.13992 0.84036
vt 0.13992 0.92526
vt 0.15206 0.84036
vt 0.15206 0.92526
vt 0.15313 0.93622
vt 0.15313 0.99202
vt 0.15313 0.99316
vt 0.15420 0.99208
vt 0.15606 0.58370
vt 0.15606 0.58479
vt 0.15606 0.82933
vt 0.15606 0.83042
vt 0.15713 0.58479
vt 0.15713 0.82933
vt 0.16691 0.58370
vt 0.16691 0.82824
vt 0.16691 0.83927
vt 0.16691 0.99674
vt 0.16693 0.83818
vt 0.16693 0.99782
vt 0.19784 0.30020
vt 0.19784 0.57376
vt 0.20762 0.30021
vt 0.20762 0.36315
vt 0.20762 0.37400
vt 0.20762 0.43694
vt 0.20762 0.47808
vt 0.20762 0.51835
vt 0.20762 0.55789
vt 0.20762 0.56956
vt 0.20762 0.57083
vt 0.20834 0.30020
vt 0.20834 0.36404
vt 0.20834 0.37398
vt 0.20834 0.43783
vt 0.20834 0.44777
vt 0.20834 0.47755
vt 0.20834 0.47861
vt 0.20834 0.50839
vt 0.20869 0.30020
vt 0.20869 0.36404
vt 0.20869 0.37398
vt 0.20869 0.43783
vt 0.20869 0.51833
vt 0.20869 0.55787
vt 0.20869 0.55898
vt 0.20871 0.56892
vt 0.20871 0.57146
vt 0.20941 0.30021
vt 0.20941 0.36315
vt 0.20941 0.37400
vt 0.20941 0.43694
vt 0.20979 0.56956
vt 0.20979 0.57083
vt 0.21012 0.51833
vt 0.21012 0.55787
vt 0.21012 0.55898
vt 0.21048 0.44777
vt 0.21048 0.47755
vt 0.21048 0.47861
vt 0.21048 0.50839
vt 0.21119 0.47808
vt 0.21119 0.51835
vt 0.21119 0.55789
vt 0.21320 0.00000
vt 0.21320 0.00109
vt 0.21320 0.28917
vt 0.21320 0.29025
vt 0.21427 0.00109
vt 0.21427 0.28917
vt 0.22405 0.00000
vt 0.22405 0.28808
vt 0.22405 0.29911
vt 0.22405 0.57267
vt 0.26118 0.83927
vt 0.26118 0.99674
vt 0.26120 0.83818
vt 0.26120 0.99782
vt 0.26227 0.83927
vt 0.26227 0.99674
vt 0.27205 0.83927
vt 0.27205 0.92417
vt 0.27205 0.93522
vt 0.27205 0.99108
vt 0.27312 0.93520
vt 0.27312 0.99106
vt 0.27312 0.99217
vt 0.28061 0.83927
vt 0.28061 0.92417
vt 0.28066 0.83818
vt 0.28066 0.92526
vt 0.28174 0.83927
vt 0.28174 0.92417
vt 0.29062 0.93520
vt 0.29062 0.99106
vt 0.29062 0.99217
vt 0.29152 0.83927
vt 0.29152 0.92417
vt 0.29169 0.93522
vt 0.29169 0.99108
vt 0.30008 0.83927
vt 0.30008 0.92417
vt 0.30013 0.83818
vt 0.30013 0.92526
vt 0.30120 0.83927
vt 0.30120 0.92417
vt 0.30147 0.99105
vt 0.30255 0.93520
vt 0.30255 0.99099
vt 0.30255 0.99214
vt 0.31099 0.83818
vt 0.31099 0.86866
vt 0.31099 0.87860
vt 0.31099 0.90908
vt 0.31204 0.83818
vt 0.31204 0.86866
vt 0.31204 0.87860
vt 0.31204 0.90908
vt 0.31315 0.83818
vt 0.31315 0.86866
vt 0.31315 0.87860
vt 0.31315 0.90908
vt 0.32005 0.93520
vt 0.32005 0.99099
vt 0.32005 0.99214
vt 0.32112 0.99105
vt 0.32190 0.58370
vt 0.32190 0.82824
vt 0.32223 0.29911
vt 0.32223 0.57267
vt 0.32314 0.29802
vt 0.32314 0.57376
vt 0.32404 0.29911
vt 0.32404 0.57267
vt 0.33168 0.58479
vt 0.33168 0.82933
vt 0.33168 0.84145
vt 0.33168 0.85197
vt 0.33168 0.91583
vt 0.33168 0.92635
vt 0.33168 0.93846
vt 0.33168 0.95624
vt 0.33275 0.84036
vt 0.33275 0.85306
vt 0.33275 0.91474
vt 0.33275 0.92744
vt 0.33276 0.93738
vt 0.33276 0.93846
vt 0.33276 0.95624
vt 0.33276 0.95733
vt 0.33281 0.84145
vt 0.33281 0.85197
vt 0.33281 0.91583
vt 0.33281 0.92635
vt 0.35025 0.93738
vt 0.35025 0.93846
vt 0.35025 0.95624
vt 0.35025 0.95733
vt 0.35132 0.93846
vt 0.35132 0.95624
vt 0.36111 0.93846
vt 0.36111 0.95624
vt 0.36218 0.93738
vt 0.36218 0.93846
vt 0.36218 0.95624
vt 0.36218 0.95733
vt 0.37265 0.84145
vt 0.37265 0.92635
vt 0.37269 0.84036
vt 0.37269 0.85306
vt 0.37269 0.91474
vt 0.37269 0.92744
vt 0.37286 0.85197
vt 0.37286 0.91583
vt 0.37968 0.93738
vt 0.37968 0.93846
vt 0.37968 0.95624
vt 0.37968 0.95733
vt 0.38075 0.93846
vt 0.38075 0.95624
vt 0.38429 0.85541
vt 0.38429 0.91239
vt 0.38477 0.85438
vt 0.38477 0.91341
vt 0.38871 0.84470
vt 0.38871 0.92310
vt 0.38907 0.84367
vt 0.38907 0.92412
vt 0.39053 0.93738
vt 0.39053 0.95515
vt 0.39413 0.86209
vt 0.39413 0.90570
vt 0.39496 0.86131
vt 0.39496 0.90649
vt 0.40070 0.87210
vt 0.40070 0.89570
vt 0.40176 0.87167
vt 0.40176 0.89612
vt 0.40224 0.85390
vt 0.40224 0.91390
vt 0.40295 0.85311
vt 0.40295 0.91468
vt 0.40301 0.88390
vt 0.40415 0.88390
vt 0.40803 0.93738
vt 0.40803 0.95515
vt 0.41128 0.86766
vt 0.41128 0.90014
vt 0.41223 0.86724
vt 0.41223 0.90056
vt 0.41445 0.88390
vt 0.42223 0.29911
vt 0.42223 0.57267
vt 0.42424 0.84036
vt 0.42424 0.87084
vt 0.42424 0.88078
vt 0.42424 0.91125
vt 0.42424 0.92119
vt 0.42424 0.95167
vt 0.42529 0.84036
vt 0.42529 0.87084
vt 0.42549 0.88078
vt 0.42549 0.91125
vt 0.42549 0.92119
vt 0.42549 0.95167
vt 0.42583 0.58479
vt 0.42583 0.82933
vt 0.42589 0.58370
vt 0.42589 0.83042
vt 0.42640 0.84036
vt 0.42640 0.87084
vt 0.42695 0.58479
vt 0.42695 0.82933
vt 0.43201 0.29803
vt 0.43201 0.36097
vt 0.43201 0.37182
vt 0.43201 0.43476
vt 0.43201 0.44668
vt 0.43201 0.50618
vt 0.43201 0.51723
vt 0.43201 0.55677
vt 0.43201 0.56844
vt 0.43201 0.56971
vt 0.43272 0.29802
vt 0.43272 0.36186
vt 0.43272 0.37181
vt 0.43272 0.43565
vt 0.43308 0.29802
vt 0.43308 0.36186
vt 0.43308 0.37181
vt 0.43308 0.43565
vt 0.43308 0.44559
vt 0.43308 0.44668
vt 0.43308 0.50618
vt 0.43308 0.50727
vt 0.43308 0.51721
vt 0.43308 0.55675
vt 0.43308 0.55786
vt 0.43309 0.56780
vt 0.43309 0.57034
vt 0.43379 0.29803
vt 0.43379 0.36097
vt 0.43379 0.37182
vt 0.43379 0.43476
vt 0.43417 0.56844
vt 0.43417 0.56971
vt 0.43451 0.44559
vt 0.43451 0.44668
vt 0.43451 0.50618
vt 0.43451 0.50727
vt 0.43451 0.51721
vt 0.43451 0.55675
vt 0.43451 0.55786
vt 0.43558 0.44668
vt 0.43558 0.50618
vt 0.43558 0.51723
vt 0.43558 0.55677
vt 0.43617 0.00000
vt 0.43617 0.28808
vt 0.44596 0.00109
vt 0.44596 0.28917
vt 0.44596 0.30128
vt 0.44596 0.56759
vt 0.44596 0.57971
vt 0.44596 0.83151
vt 0.44596 0.92737
vt 0.44703 0.30020
vt 0.44703 0.30128
vt 0.44703 0.56759
vt 0.44703 0.56868
vt 0.44703 0.57862
vt 0.44703 0.57971
vt 0.44703 0.83151
vt 0.44703 0.83260
vt 0.44703 0.84254
vt 0.44703 0.92732
vt 0.44703 0.92846
vt 0.45630 0.00109
vt 0.45630 0.28917
vt 0.45636 0.00000
vt 0.45636 0.29025
vt 0.45743 0.00109
vt 0.45743 0.28917
vt 0.46721 0.00109
vt 0.46721 0.28917
vt 0.46989 0.84254
vt 0.46989 0.92732
vt 0.46989 0.92846
vt 0.47096 0.92737
vt 0.47755 0.00109
vt 0.47755 0.28917
vt 0.47761 0.00000
vt 0.47761 0.29025
vt 0.47868 0.00109
vt 0.47868 0.28917
vt 0.48074 0.84254
vt 0.48074 0.90540
vt 0.48074 0.94512
vt 0.48074 0.94618
vt 0.48119 0.94565
vt 0.48846 0.00000
vt 0.48846 0.27937
vt 0.49074 0.89822
vt 0.49165 0.00000
vt 0.49165 0.27937
vt 0.49464 0.00000
vt 0.49464 0.27937
vt 0.50074 0.84254
vt 0.50074 0.90540
vt 0.50443 0.00000
vt 0.50443 0.27937
vt 0.50742 0.00000
vt 0.50742 0.27937
vt 0.50803 0.91664
vt 0.50803 0.97466
vt 0.50829 0.91534
vt 0.50829 0.97596
vt 0.50878 0.91554
vt 0.50878 0.97577
vt 0.51052 0.84254
vt 0.51052 0.90540
vt 0.51060 0.00000
vt 0.51060 0.27937
vt 0.51857 0.94512
vt 0.51857 0.94618
vt 0.51902 0.94565
vt 0.52038 0.00000
vt 0.52038 0.27937
vt 0.52052 0.89822
vt 0.52396 0.00000
vt 0.52396 0.27937
vt 0.53052 0.84254
vt 0.53052 0.90540
vt 0.53374 0.00000
vt 0.53374 0.27937
vt 0.53731 0.00000
vt 0.53731 0.27937
vt 0.54031 0.84254
vt 0.54031 0.90540
vt 0.54585 0.91664
vt 0.54585 0.97466
vt 0.54612 0.91534
vt 0.54612 0.97596
vt 0.54661 0.91554
vt 0.54661 0.97577
vt 0.54710 0.00109
vt 0.54710 0.27465
vt 0.54710 0.28632
vt 0.54710 0.28759
vt 0.54818 0.28568
vt 0.54818 0.28822
vt 0.54827 0.00000
vt 0.54827 0.27574
vt 0.54869 0.00109
vt 0.54869 0.27465
vt 0.54926 0.28632
vt 0.54926 0.28759
vt 0.55031 0.89822
vt 0.55440 0.00109
vt 0.55440 0.27465
vt 0.55445 0.00000
vt 0.55445 0.27574
vt 0.55552 0.00109
vt 0.55552 0.27465
vt 0.55639 0.91536
vt 0.55639 0.97123
vt 0.55746 0.91534
vt 0.55746 0.97121
vt 0.55746 0.97231
vt 0.55905 0.28632
vt 0.55905 0.28759
vt 0.56013 0.28568
vt 0.56013 0.28822
vt 0.56030 0.84254
vt 0.56030 0.90540
vt 0.56121 0.28632
vt 0.56121 0.28759
vt 0.56531 0.00109
vt 0.56531 0.27465
vt 0.56648 0.00000
vt 0.56648 0.27574
vt 0.56690 0.00109
vt 0.56690 0.27465
vt 0.57009 0.84254
vt 0.57009 0.90540
vt 0.57099 0.28568
vt 0.57099 0.28786
vt 0.57149 0.28568
vt 0.57149 0.28786
vt 0.57261 0.00109
vt 0.57261 0.27465
vt 0.57267 0.00000
vt 0.57267 0.27574
vt 0.57374 0.00109
vt 0.57374 0.27465
vt 0.57496 0.91534
vt 0.57496 0.97121
vt 0.57496 0.97231
vt 0.57603 0.91536
vt 0.57603 0.97123
vt 0.58009 0.89822
vt 0.58352 0.00000
vt 0.58352 0.26631
vt 0.58352 0.27625
vt 0.58352 0.28859
vt 0.58581 0.91536
vt 0.58581 0.97123
vt 0.58689 0.91534
vt 0.58689 0.97121
vt 0.58689 0.97231
vt 0.59009 0.84254
vt 0.59009 0.90540
vt 0.59388 0.27625
vt 0.59388 0.28859
vt 0.59987 0.84254
vt 0.59987 0.87301
vt 0.59987 0.88368
vt 0.59987 0.89384
vt 0.59987 0.90400
vt 0.60058 0.88295
vt 0.60058 0.88349
vt 0.60058 0.89330
vt 0.60058 0.89438
vt 0.60058 0.90418
vt 0.60058 0.90472
vt 0.60092 0.84254
vt 0.60092 0.87301
vt 0.60094 0.88295
vt 0.60094 0.88349
vt 0.60094 0.89330
vt 0.60094 0.89438
vt 0.60094 0.90418
vt 0.60094 0.90472
vt 0.60166 0.88368
vt 0.60166 0.89384
vt 0.60166 0.90400
vt 0.60203 0.84254
vt 0.60203 0.87301
vt 0.60366 0.27625
vt 0.60366 0.28859
vt 0.60438 0.91534
vt 0.60438 0.97121
vt 0.60438 0.97231
vt 0.60546 0.91536
vt 0.60546 0.97123
vt 0.60916 0.57862
vt 0.60916 0.57971
vt 0.60916 0.83151
vt 0.60916 0.83260
vt 0.61023 0.57971
vt 0.61023 0.83151
vt 0.61402 0.27625
vt 0.61402 0.28859
vt 0.62001 0.57862
vt 0.62001 0.83042
vt 0.62001 0.84145
vt 0.62001 0.85197
vt 0.62001 0.91583
vt 0.62001 0.92635
vt 0.62001 0.93738
vt 0.62001 0.95515
vt 0.62108 0.84036
vt 0.62108 0.85306
vt 0.62108 0.91474
vt 0.62108 0.92744
vt 0.62114 0.84145
vt 0.62114 0.85197
vt 0.62114 0.91583
vt 0.62114 0.92635
vt 0.62380 0.27806
vt 0.62380 0.28169
vt 0.62689 0.27625
vt 0.62689 0.28351
vt 0.62999 0.27806
vt 0.62999 0.28169
vt 0.63751 0.93738
vt 0.63751 0.95515
vt 0.63773 0.30020
vt 0.63773 0.30128
vt 0.63773 0.56759
vt 0.63773 0.56868
vt 0.63880 0.30128
vt 0.63880 0.56759
vt 0.63977 0.27806
vt 0.63977 0.28169
vt 0.64286 0.27625
vt 0.64286 0.28351
vt 0.64595 0.27806
vt 0.64595 0.28169
vt 0.64730 0.93846
vt 0.64730 0.95080
vt 0.64732 0.93738
vt 0.64732 0.95189
vt 0.64858 0.30128
vt 0.64858 0.56759
vt 0.65574 0.27625
vt 0.65574 0.27843
vt 0.65574 0.28837
vt 0.65574 0.28956
vt 0.65587 0.93846
vt 0.65587 0.95080
vt 0.65589 0.93738
vt 0.65589 0.95189
vt 0.65623 0.27625
vt 0.65623 0.27843
vt 0.65630 0.28942
vt 0.65696 0.93846
vt 0.65696 0.95080
vt 0.65714 0.30128
vt 0.65714 0.56759
vt 0.65720 0.30020
vt 0.65720 0.56868
vt 0.65827 0.30128
vt 0.65827 0.56759
vt 0.66098 0.84145
vt 0.66098 0.92635
vt 0.66102 0.84036
vt 0.66102 0.85306
vt 0.66102 0.91474
vt 0.66102 0.92744
vt 0.66119 0.85197
vt 0.66119 0.91583
vt 0.66602 0.27730
vt 0.66609 0.28942
vt 0.66658 0.27625
vt 0.66658 0.27744
vt 0.66665 0.28837
vt 0.66665 0.28956
vt 0.66674 0.93846
vt 0.66674 0.95080
vt 0.66676 0.93738
vt 0.66676 0.95189
vt 0.66805 0.30128
vt 0.66805 0.56759
vt 0.67263 0.85541
vt 0.67263 0.91239
vt 0.67310 0.85438
vt 0.67310 0.91341
vt 0.67531 0.93846
vt 0.67531 0.95080
vt 0.67533 0.93738
vt 0.67533 0.95189
vt 0.67636 0.27625
vt 0.67636 0.27744
vt 0.67640 0.93846
vt 0.67640 0.95080
vt 0.67644 0.28952
vt 0.67661 0.30128
vt 0.67661 0.56759
vt 0.67667 0.30020
vt 0.67667 0.56868
vt 0.67674 0.28837
vt 0.67693 0.27730
vt 0.67702 0.28952
vt 0.67704 0.84470
vt 0.67704 0.92310
vt 0.67740 0.84367
vt 0.67740 0.92412
vt 0.67774 0.30128
vt 0.67774 0.56759
vt 0.68246 0.86209
vt 0.68246 0.90570
vt 0.68329 0.86131
vt 0.68329 0.90649
vt 0.68671 0.27740
vt 0.68680 0.28952
vt 0.68702 0.27625
vt 0.68708 0.28837
vt 0.68729 0.27740
vt 0.68738 0.28952
vt 0.68752 0.30128
vt 0.68752 0.55308
vt 0.68752 0.56526
vt 0.68780 0.56411
vt 0.68810 0.56526
vt 0.68903 0.87210
vt 0.68903 0.89570
vt 0.69009 0.87167
vt 0.69009 0.89612
vt 0.69057 0.85390
vt 0.69057 0.91390
vt 0.69128 0.85311
vt 0.69128 0.91468
vt 0.69134 0.88390
vt 0.69248 0.88390
vt 0.69323 0.30128
vt 0.69323 0.55308
vt 0.69329 0.30020
vt 0.69329 0.55417
vt 0.69435 0.30128
vt 0.69435 0.55308
vt 0.69961 0.86766
vt 0.69961 0.90014
vt 0.70056 0.86724
vt 0.70056 0.90056
vt 0.70278 0.88390
vt 0.70414 0.30128
vt 0.70414 0.55308
vt 0.70984 0.30128
vt 0.70984 0.55308
vt 0.70990 0.30020
vt 0.70990 0.55417
vt 0.71097 0.30128
vt 0.71097 0.55308
vt 0.71257 0.92520
vt 0.71257 0.99208
vt 0.71364 0.84036
vt 0.71364 0.92514
vt 0.71364 0.92629
vt 0.71364 0.93622
vt 0.71364 0.99202
vt 0.71364 0.99316
vt 0.72076 0.30128
vt 0.72076 0.54582
vt 0.73114 0.93622
vt 0.73114 0.99202
vt 0.73114 0.99316
vt 0.73221 0.99208
vt 0.73649 0.84036
vt 0.73649 0.92514
vt 0.73649 0.92629
vt 0.73757 0.92520
vt 0.74199 0.93622
vt 0.74199 0.94623
vt 0.74199 0.95803
vt 0.74199 0.96983
vt 0.74199 0.97984
vt 0.74735 0.92520
vt 0.74842 0.84036
vt 0.74842 0.92514
vt 0.74842 0.92629
vt 0.75413 0.93622
vt 0.75413 0.94623
vt 0.75413 0.95803
vt 0.75413 0.96983
vt 0.75413 0.97984
vt 0.76392 0.93622
vt 0.76392 0.96670
vt 0.76517 0.93622
vt 0.76517 0.96670
vt 0.77128 0.84036
vt 0.77128 0.92514
vt 0.77128 0.92629
vt 0.77235 0.92520
vt 0.77422 0.00000
vt 0.77422 0.26631
vt 0.77495 0.93622
vt 0.77495 0.96670
vt 0.77620 0.93622
vt 0.77620 0.96670
vt 0.78214 0.57862
vt 0.78214 0.83042
vt 0.78400 0.00109
vt 0.78400 0.21660
vt 0.78400 0.22763
vt 0.78400 0.28786
vt 0.78402 0.00000
vt 0.78402 0.21769
vt 0.78614 0.22763
vt 0.78614 0.28786
vt 0.79193 0.57971
vt 0.79193 0.79523
vt 0.79193 0.80734
vt 0.79193 0.97206
vt 0.79195 0.57862
vt 0.79195 0.79631
vt 0.79195 0.80625
vt 0.79195 0.97315
vt 0.79436 0.00109
vt 0.79436 0.21660
vt 0.79438 0.00000
vt 0.79438 0.21769
vt 0.79545 0.00109
vt 0.79545 0.21660
vt 0.79764 0.80734
vt 0.79764 0.97206
vt 0.79766 0.80625
vt 0.79766 0.97315
vt 0.79873 0.80734
vt 0.79873 0.97206
vt 0.80228 0.57971
vt 0.80228 0.79523
vt 0.80230 0.57862
vt 0.80230 0.79631
vt 0.80337 0.57971
vt 0.80337 0.79523
vt 0.80523 0.10067
vt 0.80523 0.10251
vt 0.80523 0.24380
vt 0.80523 0.28432
vt 0.80591 0.10159
vt 0.80630 0.21312
vt 0.80630 0.22707
vt 0.80630 0.24368
vt 0.80630 0.28430
vt 0.80630 0.28541
vt 0.81316 0.67929
vt 0.81316 0.68113
vt 0.81316 0.79283
vt 0.81316 0.97206
vt 0.81317 0.79174
vt 0.81317 0.97315
vt 0.81383 0.68021
vt 0.81490 0.30128
vt 0.81490 0.54582
vt 0.81496 0.30020
vt 0.81496 0.54691
vt 0.81603 0.30128
vt 0.81603 0.54582
vt 0.81844 0.21312
vt 0.81844 0.22707
vt 0.81844 0.24368
vt 0.81844 0.28430
vt 0.81844 0.28541
vt 0.81951 0.24380
vt 0.81951 0.28432
vt 0.82581 0.30128
vt 0.82581 0.49503
vt 0.82581 0.52061
vt 0.82581 0.53685
vt 0.82581 0.55308
vt 0.82583 0.30020
vt 0.82583 0.49612
vt 0.82688 0.50606
vt 0.82688 0.52018
vt 0.82688 0.53685
vt 0.82688 0.55351
vt 0.82688 0.56763
vt 0.82930 0.24380
vt 0.82930 0.28432
vt 0.83037 0.21312
vt 0.83037 0.22707
vt 0.83037 0.24368
vt 0.83037 0.28430
vt 0.83037 0.28541
vt 0.83438 0.30128
vt 0.83438 0.49503
vt 0.83440 0.30020
vt 0.83440 0.49612
vt 0.83547 0.30128
vt 0.83547 0.49503
vt 0.83902 0.50606
vt 0.83902 0.52018
vt 0.83902 0.53685
vt 0.83902 0.55351
vt 0.83902 0.56763
vt 0.84010 0.52061
vt 0.84010 0.53685
vt 0.84010 0.55308
vt 0.84251 0.21312
vt 0.84251 0.22707
vt 0.84251 0.24368
vt 0.84251 0.28430
vt 0.84251 0.28541
vt 0.84358 0.24380
vt 0.84358 0.28432
vt 0.84525 0.30128
vt 0.84525 0.49503
vt 0.84527 0.30020
vt 0.84527 0.49612
vt 0.84988 0.50606
vt 0.84988 0.56556
vt 0.85131 0.50606
vt 0.85131 0.56556
vt 0.85337 0.23499
vt 0.85337 0.27573
vt 0.85382 0.30128
vt 0.85382 0.49503
vt 0.85384 0.30020
vt 0.85384 0.49612
vt 0.85444 0.21312
vt 0.85444 0.22324
vt 0.85444 0.23508
vt 0.85444 0.27571
vt 0.85444 0.27682
vt 0.85491 0.30128
vt 0.85491 0.49503
vt 0.86470 0.30128
vt 0.86470 0.48052
vt 0.86470 0.51342
vt 0.86470 0.55416
vt 0.86472 0.30020
vt 0.86472 0.48161
vt 0.86577 0.49155
vt 0.86577 0.50167
vt 0.86577 0.51351
vt 0.86577 0.55414
vt 0.86577 0.55525
vt 0.86658 0.21312
vt 0.86658 0.22324
vt 0.86658 0.23508
vt 0.86658 0.27571
vt 0.86658 0.27682
vt 0.86764 0.00092
vt 0.86764 0.20226
vt 0.86765 0.23499
vt 0.86765 0.27573
vt 0.86878 0.00109
vt 0.86878 0.20209
vt 0.86928 0.00000
vt 0.86928 0.20318
vt 0.87498 0.00109
vt 0.87498 0.20209
vt 0.87500 0.00000
vt 0.87500 0.20318
vt 0.87556 0.57954
vt 0.87556 0.78088
vt 0.87607 0.00109
vt 0.87607 0.20209
vt 0.87671 0.57971
vt 0.87671 0.78071
vt 0.87721 0.57862
vt 0.87721 0.78180
vt 0.87791 0.49155
vt 0.87791 0.50167
vt 0.87791 0.51351
vt 0.87791 0.55414
vt 0.87791 0.55525
vt 0.87898 0.51342
vt 0.87898 0.55416
vt 0.88290 0.57971
vt 0.88290 0.78071
vt 0.88292 0.57862
vt 0.88292 0.78180
vt 0.88399 0.57971
vt 0.88399 0.78071
vt 0.88585 0.00109
vt 0.88585 0.18032
vt 0.88585 0.19244
vt 0.88585 0.27734
vt 0.88587 0.00000
vt 0.88587 0.18141
vt 0.88692 0.19135
vt 0.88692 0.19244
vt 0.88692 0.27734
vt 0.88692 0.27843
vt 0.88877 0.49263
vt 0.88877 0.55214
vt 0.89378 0.57971
vt 0.89378 0.75894
vt 0.89380 0.57862
vt 0.89380 0.76003
vt 0.89671 0.79283
vt 0.89671 0.97206
vt 0.89673 0.79174
vt 0.89673 0.97315
vt 0.89780 0.79283
vt 0.89780 0.97206
vt 0.89906 0.19135
vt 0.89906 0.19244
vt 0.89906 0.27734
vt 0.89906 0.27843
vt 0.90014 0.19244
vt 0.90014 0.27734
vt 0.90758 0.79283
vt 0.90758 0.97206
vt 0.90865 0.79174
vt 0.90865 0.79283
vt 0.90865 0.97206
vt 0.90865 0.97315
vt 0.90992 0.19244
vt 0.90992 0.25194
vt 0.90992 0.26370
vt 0.90992 0.28401
vt 0.91063 0.26297
vt 0.91063 0.26370
vt 0.91063 0.28401
vt 0.91063 0.28474
vt 0.91099 0.26297
vt 0.91099 0.26370
vt 0.91099 0.28401
vt 0.91099 0.28474
vt 0.91170 0.26370
vt 0.91170 0.28401
vt 0.92149 0.26370
vt 0.92149 0.27385
vt 0.92149 0.28401
vt 0.92220 0.26297
vt 0.92220 0.26351
vt 0.92220 0.27331
vt 0.92220 0.27439
vt 0.92220 0.28420
vt 0.92220 0.28474
vt 0.92256 0.26297
vt 0.92256 0.26351
vt 0.92256 0.27331
vt 0.92256 0.27439
vt 0.92256 0.28420
vt 0.92256 0.28474
vt 0.92327 0.26370
vt 0.92327 0.27385
vt 0.92327 0.28401
vt 0.92764 0.49263
vt 0.92764 0.55214
vt 0.92769 0.49155
vt 0.92769 0.55322
vt 0.92876 0.49263
vt 0.92876 0.55214
vt 0.93151 0.79174
vt 0.93151 0.79283
vt 0.93151 0.97206
vt 0.93151 0.97315
vt 0.93258 0.79283
vt 0.93258 0.97206
vt 0.93306 0.26370
vt 0.93306 0.28401
vt 0.93377 0.26297
vt 0.93377 0.26370
vt 0.93377 0.28401
vt 0.93377 0.28474
vt 0.93413 0.26297
vt 0.93413 0.26370
vt 0.93413 0.28401
vt 0.93413 0.28474
vt 0.93484 0.26370
vt 0.93484 0.28401
vt 0.93855 0.49156
vt 0.93855 0.54743
vt 0.93962 0.49155
vt 0.93962 0.54741
vt 0.93962 0.54852
vt 0.94236 0.79283
vt 0.94236 0.97206
vt 0.94343 0.79174
vt 0.94343 0.79283
vt 0.94343 0.97206
vt 0.94343 0.97315
vt 0.94825 0.30128
vt 0.94825 0.48052
vt 0.94827 0.30020
vt 0.94827 0.48161
vt 0.94879 0.19244
vt 0.94879 0.25194
vt 0.94885 0.19135
vt 0.94885 0.25303
vt 0.94934 0.30128
vt 0.94934 0.48052
vt 0.94992 0.19244
vt 0.94992 0.25194
vt 0.95712 0.49155
vt 0.95712 0.54741
vt 0.95712 0.54852
vt 0.95819 0.49156
vt 0.95819 0.54743
vt 0.95912 0.30020
vt 0.95912 0.47943
vt 0.96629 0.79174
vt 0.96629 0.79283
vt 0.96629 0.97206
vt 0.96629 0.97315
vt 0.96736 0.79283
vt 0.96736 0.97206
vt 0.96940 0.00109
vt 0.96940 0.18032
vt 0.96942 0.00000
vt 0.96942 0.18141
vt 0.97049 0.00109
vt 0.97049 0.18032
vt 0.97715 0.79174
vt 0.97715 0.97097
vt 0.97733 0.57971
vt 0.97733 0.75894
vt 0.97735 0.57862
vt 0.97735 0.76003
vt 0.97842 0.57971
vt 0.97842 0.75894
vt 0.98028 0.00109
vt 0.98028 0.16581
vt 0.98030 0.00000
vt 0.98030 0.16690
vt 0.98198 0.30020
vt 0.98198 0.47943
vt 0.98599 0.00109
vt 0.98599 0.16581
vt 0.98601 0.00000
vt 0.98601 0.16690
vt 0.98708 0.00109
vt 0.98708 0.16581
vt 1.00000 0.79174
vt 1.00000 0.97097
s 0
usemtl RTS_stone
f 1/346/6 2/342/6 3/344/6
f 1/750/14 3/746/14 8/745/14
f 1/750/14 8/745/14 7/749/14
f 10/12/16 12/11/16 6/109/16
f 10/12/16 6/109/16 5/110/16
f 10/12/3 16/111/3 22/13/3
f 10/12/3 5/110/3 16/111/3
f 10/12/9 11/1/9 12/11/9
f 100/906/15 102/904/15 99/1026/15
f 100/906/15 99/1026/15 98/1028/15
f 100/988/44 101/989/44 102/986/44
f 101/989/25 100/988/25 113/1011/25
f 101/989/25 113/1011/25 112/1012/25
f 102/904/4 104/1025/4 99/1026/4
f 102/904/4 108/903/4 104/1025/4
f 103/341/18 105/340/18 116/351/18
f 103/341/18 116/351/18 115/352/18
f 103/341/45 104/330/45 105/340/45
f 105/1027/17 104/1025/17 108/903/17
f 105/1027/17 108/903/17 107/905/17
f 106/990/16 102/986/16 101/989/16
f 106/990/16 108/987/16 102/986/16
f 106/990/3 101/989/3 112/1012/3
f 106/990/3 112/1012/3 118/1013/3
f 106/990/46 107/991/46 108/987/46
f 107/339/5 116/351/5 105/340/5
f 107/339/5 120/350/5 116/351/5
f 109/695/24 111/694/24 98/706/24
f 109/695/24 98/706/24 97/707/24
f 109/695/47 110/692/47 111/694/47
f 11/349/5 20/354/5 9/355/5
f 11/349/5 24/348/5 20/354/5
f 111/1019/23 110/1017/23 114/891/23
f 111/1019/23 114/891/23 113/895/23
f 112/1012/22 114/1015/22 119/1016/22
f 112/1012/22 119/1016/22 118/1013/22
f 112/1012/48 113/1011/48 114/1015/48
f 113/693/1 100/705/1 98/706/1
f 113/693/1 98/706/1 111/694/1
f 115/1022/21 110/1017/21 109/1021/21
f 115/1022/21 117/1018/21 110/1017/21
f 115/1024/26 109/1023/26 97/1043/26
f 115/1024/26 97/1043/26 103/1044/26
f 115/352/49 116/351/49 117/353/49
f 117/1018/20 116/1020/20 120/896/20
f 117/1018/20 120/896/20 119/892/20
f 118/1013/19 107/991/19 106/990/19
f 118/1013/19 120/1014/19 107/991/19
f 118/1013/50 119/1016/50 120/1014/50
f 119/892/2 110/1017/2 117/1018/2
f 119/892/2 114/891/2 110/1017/2
f 13/347/10 14/345/10 15/343/10
f 13/347/24 15/343/24 2/342/24
f 13/347/24 2/342/24 1/346/24
f 15/735/23 14/733/23 18/717/23
f 15/735/23 18/717/23 17/721/23
f 16/111/11 17/114/11 18/112/11
f 16/111/22 18/112/22 23/14/22
f 16/111/22 23/14/22 22/13/22
f 17/325/1 2/342/1 15/343/1
f 17/325/1 4/324/1 2/342/1
f 187/474/14 189/473/14 194/506/14
f 187/474/14 194/506/14 193/507/14
f 187/51/6 188/50/6 189/52/6
f 19/323/26 1/115/26 7/322/26
f 19/323/26 13/116/26 1/115/26
f 19/358/12 20/354/12 21/356/12
f 19/738/21 14/733/21 13/737/21
f 19/738/21 21/734/21 14/733/21
f 190/186/7 191/193/7 192/194/7
f 190/470/15 189/473/15 188/471/15
f 190/470/15 192/472/15 189/473/15
f 191/193/25 190/186/25 203/185/25
f 191/193/25 203/185/25 202/192/25
f 192/472/4 194/506/4 189/473/4
f 192/472/4 198/505/4 194/506/4
f 193/154/18 195/153/18 206/168/18
f 193/154/18 206/168/18 205/169/18
f 193/154/8 194/151/8 195/153/8
f 195/509/17 194/506/17 198/505/17
f 195/509/17 198/505/17 197/508/17
f 196/201/16 192/194/16 191/193/16
f 196/201/16 198/202/16 192/194/16
f 196/201/3 191/193/3 202/192/3
f 196/201/3 202/192/3 208/200/3
f 196/201/9 197/204/9 198/202/9
f 197/152/5 206/168/5 195/153/5
f 197/152/5 210/167/5 206/168/5
f 199/44/10 200/41/10 201/43/10
f 199/44/24 188/50/24 187/51/24
f 199/44/24 201/43/24 188/50/24
f 201/464/23 200/461/23 204/460/23
f 201/464/23 204/460/23 203/463/23
f 202/192/11 203/185/11 204/191/11
f 202/192/22 204/191/22 209/199/22
f 202/192/22 209/199/22 208/200/22
f 203/42/1 188/50/1 201/43/1
f 203/42/1 190/49/1 188/50/1
f 205/169/12 206/168/12 207/170/12
f 205/234/26 187/249/26 193/250/26
f 205/234/26 199/233/26 187/249/26
f 205/433/21 200/461/21 199/462/21
f 205/433/21 207/432/21 200/461/21
f 207/432/20 206/430/20 210/429/20
f 207/432/20 210/429/20 209/431/20
f 208/200/13 209/199/13 210/203/13
f 208/200/19 197/204/19 196/201/19
f 208/200/19 210/203/19 197/204/19
f 209/431/2 200/461/2 207/432/2
f 209/431/2 204/460/2 200/461/2
f 21/734/20 20/736/20 24/722/20
f 21/734/20 24/722/20 23/718/20
f 211/131/14 213/130/14 218/139/14
f 211/131/14 218/139/14 217/140/14
f 211/681/6 212/680/6 213/682/6
f 214/127/15 213/130/15 212/128/15
f 214/127/15 216/129/15 213/130/15
f 214/206/7 215/209/7 216/210/7
f 215/209/25 214/206/25 227/205/25
f 215/209/25 227/205/25 226/208/25
f 216/129/4 218/139/4 213/130/4
f 216/129/4 222/138/4 218/139/4
f 217/32/18 219/31/18 230/34/18
f 217/32/18 230/34/18 229/35/18
f 217/32/8 218/26/8 219/31/8
f 219/144/17 218/139/17 222/138/17
f 219/144/17 222/138/17 221/143/17
f 22/13/13 23/14/13 24/2/13
f 22/13/19 11/1/19 10/12/19
f 22/13/19 24/2/19 11/1/19
f 220/221/16 216/210/16 215/209/16
f 220/221/16 222/222/16 216/210/16
f 220/221/3 215/209/3 226/208/3
f 220/221/3 226/208/3 232/220/3
f 220/221/9 221/224/9 222/222/9
f 221/30/5 230/34/5 219/31/5
f 221/30/5 234/33/5 230/34/5
f 223/676/10 224/670/10 225/675/10
f 223/676/24 212/680/24 211/681/24
f 223/676/24 225/675/24 212/680/24
f 225/1008/23 224/1005/23 228/1004/23
f 225/1008/23 228/1004/23 227/1007/23
f 226/208/11 227/205/11 228/207/11
f 226/208/22 228/207/22 233/219/22
f 226/208/22 233/219/22 232/220/22
f 227/674/1 212/680/1 225/675/1
f 227/674/1 214/679/1 212/680/1
f 229/35/12 230/34/12 231/36/12
f 229/525/26 211/540/26 217/541/26
f 229/525/26 223/524/26 211/540/26
f 229/985/21 224/1005/21 223/1006/21
f 229/985/21 231/984/21 224/1005/21
f 23/718/2 14/733/2 21/734/2
f 23/718/2 18/717/2 14/733/2
f 231/984/20 230/982/20 234/981/20
f 231/984/20 234/981/20 233/983/20
f 232/220/13 233/219/13 234/223/13
f 232/220/19 221/224/19 220/221/19
f 232/220/19 234/223/19 221/224/19
f 233/983/2 224/1005/2 231/984/2
f 233/983/2 228/1004/2 224/1005/2
f 235/181/24 237/195/24 242/196/24
f 235/181/24 242/196/24 241/182/24
f 235/181/39 236/187/39 237/195/39
f 236/777/23 247/776/23 248/779/23
f 236/777/23 248/779/23 237/780/23
f 238/523/41 239/533/41 240/529/41
f 238/760/21 236/777/21 235/778/21
f 238/760/21 240/759/21 236/777/21
f 240/759/20 239/754/20 249/753/20
f 240/759/20 249/753/20 250/758/20
f 241/182/35 242/196/35 243/188/35
f 241/516/26 238/504/26 235/503/26
f 241/516/26 244/517/26 238/504/26
f 241/839/14 243/838/14 245/856/14
f 241/839/14 245/856/14 244/857/14
f 244/522/18 239/533/18 238/523/18
f 244/522/18 246/532/18 239/533/18
f 244/522/37 245/528/37 246/532/37
f 246/532/5 249/580/5 239/533/5
f 246/532/5 254/586/5 249/580/5
f 247/213/157 255/231/157 256/229/157
f 247/213/85 256/229/85 248/211/85
f 248/211/1 242/196/1 237/195/1
f 248/211/1 251/217/1 242/196/1
f 25/577/27 26/573/27 27/575/27
f 25/841/14 27/832/14 32/831/14
f 25/841/14 32/831/14 31/840/14
f 250/584/160 249/580/160 257/620/160
f 250/584/88 257/620/88 258/622/88
f 250/758/2 236/777/2 240/759/2
f 250/758/2 247/776/2 236/777/2
f 252/837/15 242/830/15 251/829/15
f 252/837/15 243/838/15 242/830/15
f 252/837/4 245/856/4 243/838/4
f 252/837/4 253/855/4 245/856/4
f 253/855/17 246/861/17 245/856/17
f 253/855/17 254/860/17 246/861/17
f 254/586/5 257/620/5 249/580/5
f 254/586/5 262/602/5 257/620/5
f 255/231/161 263/245/161 264/243/161
f 255/231/89 264/243/89 256/229/89
f 256/229/1 251/217/1 248/211/1
f 256/229/1 259/227/1 251/217/1
f 256/229/1 264/243/1 267/237/1
f 256/229/1 267/237/1 259/227/1
f 258/757/69 247/776/69 250/758/69
f 258/757/69 255/775/69 247/776/69
f 260/225/158 252/214/158 251/217/158
f 260/225/86 251/217/86 259/227/86
f 260/225/90 259/227/90 267/237/90
f 260/225/90 267/237/90 268/235/90
f 260/836/70 253/855/70 252/837/70
f 260/836/70 261/854/70 253/855/70
f 261/600/159 262/602/159 254/586/159
f 261/600/87 254/586/87 253/583/87
f 263/245/93 271/253/93 272/251/93
f 263/245/93 272/251/93 264/243/93
f 266/647/162 258/622/162 257/620/162
f 266/647/92 257/620/92 265/645/92
f 266/647/96 265/645/96 273/657/96
f 266/647/96 273/657/96 274/659/96
f 266/756/71 255/775/71 258/757/71
f 266/756/71 263/774/71 255/775/71
f 268/235/94 267/237/94 275/241/94
f 268/235/94 275/241/94 276/239/94
f 268/835/72 261/854/72 260/836/72
f 268/835/72 269/853/72 261/854/72
f 269/626/91 262/602/91 261/600/91
f 269/626/91 270/628/91 262/602/91
f 269/626/95 277/641/95 278/643/95
f 269/626/95 278/643/95 270/628/95
f 270/628/5 257/620/5 262/602/5
f 270/628/5 265/645/5 257/620/5
f 271/789/163 279/790/163 280/784/163
f 271/789/97 280/784/97 272/783/97
f 272/251/1 267/237/1 264/243/1
f 272/251/1 275/241/1 267/237/1
f 274/807/100 281/812/100 282/808/100
f 274/807/166 273/811/166 281/812/166
f 274/807/73 263/788/73 266/806/73
f 274/807/73 271/789/73 263/788/73
f 276/690/74 269/700/74 268/691/74
f 276/690/74 277/699/74 269/700/74
f 278/643/5 265/645/5 270/628/5
f 278/643/5 273/657/5 265/645/5
f 28/327/28 29/333/28 30/334/28
f 28/824/15 27/832/15 26/834/15
f 28/824/15 30/822/15 27/832/15
f 280/255/1 275/241/1 272/251/1
f 280/255/1 283/248/1 275/241/1
f 282/808/75 271/789/75 274/807/75
f 282/808/75 279/790/75 271/789/75
f 284/247/102 291/242/102 292/240/102
f 284/247/164 276/239/164 275/241/164
f 284/247/168 283/248/168 291/242/168
f 284/247/98 275/241/98 283/248/98
f 284/689/76 277/699/76 276/690/76
f 284/689/76 285/698/76 277/699/76
f 285/648/103 294/642/103 286/649/103
f 285/648/165 286/649/165 278/643/165
f 285/648/169 293/640/169 294/642/169
f 285/648/99 278/643/99 277/641/99
f 286/649/5 273/657/5 278/643/5
f 286/649/5 281/660/5 273/657/5
f 287/791/101 280/784/101 279/790/101
f 287/791/167 288/785/167 280/784/167
f 288/252/1 283/248/1 280/255/1
f 288/252/1 291/242/1 283/248/1
f 29/333/25 28/327/25 41/326/25
f 29/333/25 41/326/25 40/332/25
f 290/809/104 281/812/104 289/813/104
f 290/809/170 282/808/170 281/812/170
f 290/809/77 279/790/77 282/808/77
f 290/809/77 287/791/77 279/790/77
f 292/688/78 285/698/78 284/689/78
f 292/688/78 293/697/78 285/698/78
f 294/642/5 281/660/5 286/649/5
f 294/642/5 289/656/5 281/660/5
f 295/246/105 288/252/105 287/254/105
f 295/246/105 296/244/105 288/252/105
f 295/246/109 304/230/109 296/244/109
f 295/246/171 303/232/171 304/230/171
f 296/244/1 291/242/1 288/252/1
f 296/244/1 299/238/1 291/242/1
f 298/646/108 289/656/108 297/644/108
f 298/646/108 290/658/108 289/656/108
f 298/646/112 305/619/112 306/621/112
f 298/646/172 297/644/172 305/619/172
f 298/810/79 287/791/79 290/809/79
f 298/810/79 295/792/79 287/791/79
f 30/822/4 32/831/4 27/832/4
f 30/822/4 36/821/4 32/831/4
f 300/236/106 291/242/106 299/238/106
f 300/236/106 292/240/106 291/242/106
f 300/687/80 293/697/80 292/688/80
f 300/687/80 301/696/80 293/697/80
f 301/625/107 294/642/107 293/640/107
f 301/625/107 302/627/107 294/642/107
f 302/627/5 289/656/5 294/642/5
f 302/627/5 297/644/5 289/656/5
f 302/627/5 305/619/5 297/644/5
f 302/627/5 310/601/5 305/619/5
f 304/230/1 299/238/1 296/244/1
f 304/230/1 307/228/1 299/238/1
f 304/230/1 312/212/1 315/218/1
f 304/230/1 315/218/1 307/228/1
f 306/815/81 295/795/81 298/814/81
f 306/815/81 303/796/81 295/795/81
f 308/226/110 299/238/110 307/228/110
f 308/226/110 300/236/110 299/238/110
f 308/226/114 315/218/114 316/215/114
f 308/226/174 307/228/174 315/218/174
f 308/879/82 301/848/82 300/878/82
f 308/879/82 309/849/82 301/848/82
f 309/599/111 302/627/111 301/625/111
f 309/599/111 310/601/111 302/627/111
f 309/599/115 318/585/115 310/601/115
f 309/599/175 317/582/175 318/585/175
f 31/624/18 33/613/18 44/612/18
f 31/624/18 44/612/18 43/623/18
f 31/624/29 32/615/29 33/613/29
f 311/216/113 304/230/113 303/232/113
f 311/216/173 312/212/173 304/230/173
f 312/212/1 321/198/1 327/197/1
f 312/212/1 327/197/1 315/218/1
f 314/581/116 305/619/116 313/579/116
f 314/581/176 306/621/176 305/619/176
f 314/816/83 303/796/83 306/815/83
f 314/816/83 311/797/83 303/796/83
f 316/880/23 315/883/23 327/884/23
f 316/880/23 327/884/23 326/881/23
f 316/880/84 309/849/84 308/879/84
f 316/880/84 317/850/84 309/849/84
f 317/850/20 328/851/20 330/845/20
f 317/850/20 330/845/20 318/844/20
f 318/585/5 305/619/5 310/601/5
f 318/585/5 313/579/5 305/619/5
f 319/190/35 320/184/35 321/198/35
f 319/798/15 312/793/15 311/797/15
f 319/798/15 321/794/15 312/793/15
f 320/799/14 319/798/14 323/817/14
f 320/799/14 323/817/14 322/818/14
f 322/520/18 324/530/18 330/531/18
f 322/520/18 330/531/18 329/521/18
f 322/520/37 323/526/37 324/530/37
f 323/817/17 313/819/17 324/820/17
f 323/817/17 314/816/17 313/819/17
f 323/817/4 311/797/4 314/816/4
f 323/817/4 319/798/4 311/797/4
f 325/183/24 321/198/24 320/184/24
f 325/183/24 327/197/24 321/198/24
f 325/183/39 326/189/39 327/197/39
f 326/881/2 317/850/2 316/880/2
f 326/881/2 328/851/2 317/850/2
f 328/527/41 329/521/41 330/531/41
f 329/469/26 320/477/26 322/478/26
f 329/469/26 325/468/26 320/477/26
f 329/852/21 326/881/21 325/882/21
f 329/852/21 328/851/21 326/881/21
f 33/833/17 32/831/17 36/821/17
f 33/833/17 36/821/17 35/823/17
f 330/531/5 313/579/5 318/585/5
f 330/531/5 324/530/5 313/579/5
f 34/544/16 30/334/16 29/333/16
f 34/544/16 36/545/16 30/334/16
f 34/544/3 29/333/3 40/332/3
f 34/544/3 40/332/3 46/543/3
f 34/544/30 35/547/30 36/545/30
f 35/598/5 44/612/5 33/613/5
f 35/598/5 48/597/5 44/612/5
f 37/578/24 26/573/24 25/577/24
f 37/578/24 39/574/24 26/573/24
f 37/578/31 38/576/31 39/574/31
f 373/136/6 374/132/6 375/134/6
f 373/610/14 375/604/14 380/603/14
f 373/610/14 380/603/14 379/609/14
f 376/596/15 375/604/15 374/606/15
f 376/596/15 378/594/15 375/604/15
f 376/894/133 377/899/133 378/900/133
f 377/899/25 376/894/25 389/893/25
f 377/899/25 389/893/25 388/898/25
f 378/594/4 380/603/4 375/604/4
f 378/594/4 384/593/4 380/603/4
f 379/150/18 381/146/18 392/145/18
f 379/150/18 392/145/18 391/149/18
f 379/150/45 380/148/45 381/146/45
f 381/605/17 380/603/17 384/593/17
f 381/605/17 384/593/17 383/595/17
f 382/915/134 383/918/134 384/916/134
f 382/915/16 378/900/16 377/899/16
f 382/915/16 384/916/16 378/900/16
f 382/915/3 377/899/3 388/898/3
f 382/915/3 388/898/3 394/914/3
f 383/142/5 392/145/5 381/146/5
f 383/142/5 396/141/5 392/145/5
f 385/137/10 386/135/10 387/133/10
f 385/137/24 374/132/24 373/136/24
f 385/137/24 387/133/24 374/132/24
f 387/566/23 386/564/23 390/554/23
f 387/566/23 390/554/23 389/556/23
f 388/898/135 389/893/135 390/897/135
f 388/898/22 390/897/22 395/913/22
f 388/898/22 395/913/22 394/914/22
f 389/126/1 374/132/1 387/133/1
f 389/126/1 376/125/1 374/132/1
f 39/802/23 38/800/23 42/781/23
f 39/802/23 42/781/23 41/786/23
f 391/149/49 392/145/49 393/147/49
f 391/48/26 373/45/26 379/47/26
f 391/48/26 385/46/26 373/45/26
f 391/572/21 386/564/21 385/571/21
f 391/572/21 393/565/21 386/564/21
f 393/565/20 392/567/20 396/557/20
f 393/565/20 396/557/20 395/555/20
f 394/914/136 395/913/136 396/917/136
f 394/914/19 383/918/19 382/915/19
f 394/914/19 396/917/19 383/918/19
f 395/555/2 386/564/2 393/565/2
f 395/555/2 390/554/2 386/564/2
f 4/113/7 5/110/7 6/109/7
f 4/730/15 3/746/15 2/748/15
f 4/730/15 6/726/15 3/746/15
f 40/332/22 42/331/22 47/542/22
f 40/332/22 47/542/22 46/543/22
f 40/332/32 41/326/32 42/331/32
f 41/559/1 26/573/1 39/574/1
f 41/559/1 28/558/1 26/573/1
f 43/623/33 44/612/33 45/614/33
f 43/710/26 25/466/26 31/709/26
f 43/710/26 37/467/26 25/466/26
f 43/805/21 38/800/21 37/804/21
f 43/805/21 45/801/21 38/800/21
f 45/801/20 44/803/20 48/787/20
f 45/801/20 48/787/20 47/782/20
f 46/543/19 35/547/19 34/544/19
f 46/543/19 48/546/19 35/547/19
f 46/543/34 47/542/34 48/546/34
f 47/782/2 38/800/2 45/801/2
f 47/782/2 42/781/2 38/800/2
f 5/110/25 17/114/25 16/111/25
f 5/110/25 4/113/25 17/114/25
f 6/726/4 12/725/4 8/745/4
f 6/726/4 8/745/4 3/746/4
f 7/359/18 20/354/18 19/358/18
f 7/359/18 9/355/18 20/354/18
f 7/359/8 8/357/8 9/355/8
f 73/39/43 74/38/43 75/40/43
f 73/912/14 75/908/14 80/907/14
f 73/912/14 80/907/14 79/911/14
f 76/766/15 75/908/15 74/910/15
f 76/766/15 78/764/15 75/908/15
f 76/921/44 77/922/44 78/919/44
f 77/922/25 76/921/25 89/963/25
f 77/922/25 89/963/25 88/964/25
f 78/764/4 80/907/4 75/908/4
f 78/764/4 84/763/4 80/907/4
f 79/673/18 81/672/18 92/684/18
f 79/673/18 92/684/18 91/685/18
f 79/673/45 80/669/45 81/672/45
f 81/909/17 80/907/17 84/763/17
f 81/909/17 84/763/17 83/765/17
f 82/923/16 78/919/16 77/922/16
f 82/923/16 84/920/16 78/919/16
f 82/923/3 77/922/3 88/964/3
f 82/923/3 88/964/3 94/965/3
f 82/923/46 83/924/46 84/920/46
f 83/671/5 92/684/5 81/672/5
f 83/671/5 96/683/5 92/684/5
f 85/29/24 74/38/24 73/39/24
f 85/29/24 87/28/24 74/38/24
f 85/29/47 86/25/47 87/28/47
f 87/994/23 86/992/23 90/842/23
f 87/994/23 90/842/23 89/846/23
f 88/964/22 90/967/22 95/968/22
f 88/964/22 95/968/22 94/965/22
f 88/964/48 89/963/48 90/967/48
f 89/27/1 74/38/1 87/28/1
f 89/27/1 76/37/1 74/38/1
f 9/747/17 12/725/17 11/729/17
f 9/747/17 8/745/17 12/725/17
f 91/1001/21 86/992/21 85/1000/21
f 91/1001/21 93/993/21 86/992/21
f 91/1010/26 73/1035/26 79/1036/26
f 91/1010/26 85/1009/26 73/1035/26
f 91/685/49 92/684/49 93/686/49
f 93/993/20 92/995/20 96/847/20
f 93/993/20 96/847/20 95/843/20
f 94/965/19 83/924/19 82/923/19
f 94/965/19 96/966/19 83/924/19
f 94/965/50 95/968/50 96/966/50
f 95/843/2 86/992/2 93/993/2
f 95/843/2 90/842/2 86/992/2
f 97/1030/14 104/1025/14 103/1029/14
f 97/1030/14 99/1026/14 104/1025/14
f 97/707/43 98/706/43 99/708/43
usemtl RTS_stone_dressed
f 49/24/14 51/20/14 56/19/14
f 49/24/14 56/19/14 55/23/14
f 49/772/35 50/768/35 51/770/35
f 52/10/15 51/20/15 50/22/15
f 52/10/15 54/8/15 51/20/15
f 52/6/36 53/17/36 54/18/36
f 53/17/25 52/6/25 65/5/25
f 53/17/25 65/5/25 64/16/25
f 54/8/4 56/19/4 51/20/4
f 54/8/4 60/7/4 56/19/4
f 55/277/18 57/271/18 68/270/18
f 55/277/18 68/270/18 67/276/18
f 55/277/37 56/273/37 57/271/37
f 57/21/17 56/19/17 60/7/17
f 57/21/17 60/7/17 59/9/17
f 58/55/16 54/18/16 53/17/16
f 58/55/16 60/56/16 54/18/16
f 58/55/3 53/17/3 64/16/3
f 58/55/3 64/16/3 70/54/3
f 58/55/38 59/58/38 60/56/38
f 59/180/5 68/270/5 57/271/5
f 59/180/5 72/179/5 68/270/5
f 61/773/24 50/768/24 49/772/24
f 61/773/24 63/769/24 50/768/24
f 61/773/39 62/771/39 63/769/39
f 63/121/23 62/119/23 66/61/23
f 63/121/23 66/61/23 65/63/23
f 64/16/22 66/15/22 71/53/22
f 64/16/22 71/53/22 70/54/22
f 64/16/40 65/5/40 66/15/40
f 65/678/1 50/768/1 63/769/1
f 65/678/1 52/677/1 50/768/1
f 67/124/21 62/119/21 61/123/21
f 67/124/21 69/120/21 62/119/21
f 67/172/26 49/59/26 55/171/26
f 67/172/26 61/60/26 49/59/26
f 67/276/41 68/270/41 69/272/41
f 69/120/20 68/122/20 72/64/20
f 69/120/20 72/64/20 71/62/20
f 70/54/19 59/58/19 58/55/19
f 70/54/19 72/57/19 59/58/19
f 70/54/42 71/53/42 72/57/42
f 71/62/2 62/119/2 69/120/2
f 71/62/2 66/61/2 62/119/2
usemtl RTS_crimson_trim
f 121/1042/14 123/1038/14 128/1037/14
f 121/1042/14 128/1037/14 127/1041/14
f 121/654/6 122/650/6 123/652/6
f 124/1034/15 123/1038/15 122/1040/15
f 124/1034/15 126/1032/15 123/1038/15
f 124/329/7 125/337/7 126/338/7
f 125/337/25 124/329/25 137/328/25
f 125/337/25 137/328/25 136/336/25
f 126/1032/4 128/1037/4 123/1038/4
f 126/1032/4 132/1031/4 128/1037/4
f 127/668/18 129/664/18 140/663/18
f 127/668/18 140/663/18 139/667/18
f 127/668/8 128/666/8 129/664/8
f 129/1039/17 128/1037/17 132/1031/17
f 129/1039/17 132/1031/17 131/1033/17
f 130/512/16 126/338/16 125/337/16
f 130/512/16 132/513/16 126/338/16
f 130/512/3 125/337/3 136/336/3
f 130/512/3 136/336/3 142/511/3
f 130/512/9 131/515/9 132/513/9
f 131/662/5 140/663/5 129/664/5
f 131/662/5 144/661/5 140/663/5
f 133/655/10 134/653/10 135/651/10
f 133/655/24 122/650/24 121/654/24
f 133/655/24 135/651/24 122/650/24
f 135/741/23 134/739/23 138/727/23
f 135/741/23 138/727/23 137/731/23
f 136/336/11 137/328/11 138/335/11
f 136/336/22 138/335/22 143/510/22
f 136/336/22 143/510/22 142/511/22
f 137/636/1 122/650/1 135/651/1
f 137/636/1 124/635/1 122/650/1
f 139/667/12 140/663/12 141/665/12
f 139/716/26 121/518/26 127/715/26
f 139/716/26 133/519/26 121/518/26
f 139/744/21 134/739/21 133/743/21
f 139/744/21 141/740/21 134/739/21
f 141/740/20 140/742/20 144/732/20
f 141/740/20 144/732/20 143/728/20
f 142/511/13 143/510/13 144/514/13
f 142/511/19 131/515/19 130/512/19
f 142/511/19 144/514/19 131/515/19
f 143/728/2 134/739/2 141/740/2
f 143/728/2 138/727/2 134/739/2
f 145/455/10 147/459/10 146/457/10
f 147/872/21 148/873/21 149/867/21
f 147/872/21 149/867/21 146/866/21
f 148/427/12 150/423/12 149/425/12
f 148/427/18 163/424/18 150/423/18
f 148/427/18 165/428/18 163/424/18
f 149/867/2 152/863/2 155/755/2
f 149/867/2 155/755/2 159/862/2
f 149/867/20 150/869/20 151/865/20
f 149/867/20 151/865/20 152/863/20
f 151/418/53 153/410/53 152/416/53
f 151/418/63 166/411/63 153/410/63
f 151/418/63 168/419/63 166/411/63
f 153/859/155 154/752/155 155/755/155
f 153/859/59 155/755/59 152/863/59
f 154/174/3 169/177/3 156/178/3
f 154/174/3 171/173/3 169/177/3
f 154/174/54 156/178/54 155/176/54
f 155/755/60 156/751/60 158/858/60
f 155/755/60 158/858/60 159/862/60
f 157/447/55 159/445/55 158/443/55
f 157/864/23 145/868/23 146/866/23
f 157/864/23 146/866/23 159/862/23
f 158/443/64 172/446/64 157/447/64
f 158/443/64 174/442/64 172/446/64
f 159/862/2 146/866/2 149/867/2
f 160/454/6 162/456/6 161/458/6
f 161/458/24 145/455/24 160/454/24
f 161/458/24 147/459/24 145/455/24
f 161/66/26 148/3/26 147/65/26
f 161/66/26 165/4/26 148/3/26
f 162/886/15 160/888/15 172/877/15
f 162/886/15 172/877/15 173/875/15
f 162/886/4 173/875/4 170/767/4
f 163/424/5 151/418/5 150/423/5
f 163/424/5 168/419/5 151/418/5
f 163/424/8 165/428/8 164/426/8
f 165/889/14 161/890/14 162/886/14
f 165/889/14 162/886/14 164/885/14
f 166/117/51 154/174/51 153/118/51
f 166/117/51 171/173/51 154/174/51
f 166/411/56 168/419/56 167/417/56
f 168/876/17 163/887/17 164/885/17
f 168/876/17 164/885/17 167/874/17
f 169/177/52 158/257/52 156/178/52
f 169/177/52 174/256/52 158/257/52
f 169/177/57 171/173/57 170/175/57
f 170/767/4 164/885/4 162/886/4
f 170/767/4 167/874/4 164/885/4
f 170/767/62 166/870/62 167/874/62
f 170/767/62 171/761/62 166/870/62
f 172/446/1 145/455/1 157/447/1
f 172/446/1 160/454/1 145/455/1
f 172/446/58 174/442/58 173/444/58
f 174/871/156 169/762/156 170/767/156
f 174/871/61 170/767/61 173/875/61
usemtl RTS_iron
f 176/369/65 177/365/65 175/368/65
f 176/369/65 178/366/65 177/365/65
f 176/537/2 184/534/2 180/538/2
f 176/537/2 186/535/2 184/534/2
f 177/553/4 179/551/4 181/549/4
f 177/553/4 181/549/4 185/550/4
f 178/395/26 179/391/26 177/394/26
f 178/395/26 180/392/26 179/391/26
f 180/387/66 181/376/66 179/386/66
f 180/387/66 182/377/66 181/376/66
f 180/538/2 178/539/2 176/537/2
f 181/549/4 183/548/4 185/550/4
f 182/377/67 183/374/67 181/376/67
f 182/377/67 184/375/67 183/374/67
f 184/398/3 185/401/3 183/399/3
f 184/398/3 186/400/3 185/401/3
f 184/534/2 182/536/2 180/538/2
f 185/550/4 175/552/4 177/553/4
f 186/371/68 175/368/68 185/370/68
f 186/371/68 176/369/68 175/368/68
f 331/90/14 333/89/14 338/100/14
f 331/90/14 338/100/14 337/101/14
f 331/961/43 332/957/43 333/959/43
f 334/283/117 335/298/117 336/299/117
f 334/72/15 333/89/15 332/73/15
f 334/72/15 336/88/15 333/89/15
f 335/298/25 334/283/25 347/282/25
f 335/298/25 347/282/25 346/297/25
f 336/88/4 338/100/4 333/89/4
f 336/88/4 342/99/4 338/100/4
f 337/1003/18 339/997/18 350/996/18
f 337/1003/18 350/996/18 349/1002/18
f 337/1003/45 338/999/45 339/997/45
f 339/108/17 338/100/17 342/99/17
f 339/108/17 342/99/17 341/107/17
f 340/313/16 336/299/16 335/298/16
f 340/313/16 342/314/16 336/299/16
f 340/313/3 335/298/3 346/297/3
f 340/313/3 346/297/3 352/312/3
f 340/313/46 341/319/46 342/314/46
f 341/926/5 350/996/5 339/997/5
f 341/926/5 354/925/5 350/996/5
f 343/962/24 332/957/24 331/961/24
f 343/962/24 345/958/24 332/957/24
f 343/962/47 344/960/47 345/958/47
f 345/321/23 344/316/23 348/315/23
f 345/321/23 348/315/23 347/320/23
f 346/297/118 347/282/118 348/296/118
f 346/297/22 348/296/22 353/311/22
f 346/297/22 353/311/22 352/312/22
f 347/902/1 332/957/1 345/958/1
f 347/902/1 334/901/1 332/957/1
f 349/1002/49 350/996/49 351/998/49
f 349/302/21 344/316/21 343/317/21
f 349/302/21 351/301/21 344/316/21
f 349/828/26 331/825/26 337/827/26
f 349/828/26 343/826/26 331/825/26
f 351/301/20 350/285/20 354/284/20
f 351/301/20 354/284/20 353/300/20
f 352/312/19 341/319/19 340/313/19
f 352/312/19 354/318/19 341/319/19
f 352/312/50 353/311/50 354/318/50
f 353/300/2 344/316/2 351/301/2
f 353/300/2 348/315/2 344/316/2
f 355/406/120 357/408/120 356/404/120
f 356/404/1 359/405/1 363/390/1
f 357/408/24 358/409/24 359/405/24
f 357/408/24 359/405/24 356/404/24
f 358/409/121 360/407/121 359/405/121
f 358/568/131 367/561/131 360/560/131
f 358/568/131 369/569/131 367/561/131
f 359/405/127 360/407/127 362/389/127
f 359/405/127 362/389/127 363/390/127
f 361/103/122 363/106/122 362/104/122
f 361/388/126 355/406/126 356/404/126
f 361/388/126 356/404/126 363/390/126
f 362/104/3 370/81/3 361/103/3
f 362/104/3 372/82/3 370/81/3
f 364/381/123 366/379/123 365/383/123
f 365/452/130 355/451/130 364/450/130
f 365/452/130 357/453/130 355/451/130
f 365/723/26 358/720/26 357/719/26
f 365/723/26 369/724/26 358/720/26
f 366/379/128 364/381/128 370/363/128
f 366/379/128 370/363/128 371/364/128
f 367/380/124 369/382/124 368/378/124
f 367/83/119 362/104/119 360/105/119
f 367/83/119 372/82/119 362/104/119
f 369/382/18 365/383/18 366/379/18
f 369/382/18 366/379/18 368/378/18
f 370/81/125 372/82/125 371/71/125
f 370/81/132 355/102/132 361/103/132
f 370/81/132 364/80/132 355/102/132
f 371/364/5 368/378/5 366/379/5
f 372/362/129 367/380/129 368/378/129
f 372/362/129 368/378/129 371/364/129
f 428/159/65 429/164/65 427/160/65
f 428/159/65 430/163/65 429/164/65
f 428/412/2 436/420/2 432/415/2
f 428/412/2 438/414/2 436/420/2
f 429/441/4 431/437/4 433/435/4
f 429/441/4 433/435/4 437/436/4
f 430/267/26 431/260/26 429/266/26
f 430/267/26 432/261/26 431/260/26
f 432/275/66 433/264/66 431/274/66
f 432/275/66 434/265/66 433/264/66
f 432/415/2 430/413/2 428/412/2
f 433/435/4 435/434/4 437/436/4
f 434/265/67 435/258/67 433/264/67
f 434/265/67 436/259/67 435/258/67
f 436/262/3 437/269/3 435/263/3
f 436/262/3 438/268/3 437/269/3
f 436/420/2 434/421/2 432/415/2
f 437/436/4 427/440/4 429/441/4
f 438/155/68 427/160/68 437/156/68
f 438/155/68 428/159/68 427/160/68
f 470/286/2 478/309/2 474/304/2
f 470/286/2 480/303/2 478/309/2
f 470/490/65 471/502/65 469/491/65
f 470/490/65 472/501/65 471/502/65
f 471/98/4 473/92/4 475/75/4
f 471/98/4 475/75/4 479/91/4
f 472/704/26 473/701/26 471/703/26
f 472/704/26 474/702/26 473/701/26
f 474/166/66 475/161/66 473/165/66
f 474/166/66 476/162/66 475/161/66
f 474/304/2 472/287/2 470/286/2
f 475/75/4 477/74/4 479/91/4
f 476/162/67 477/157/67 475/161/67
f 476/162/67 478/158/67 477/157/67
f 478/309/2 476/310/2 474/304/2
f 478/711/3 479/714/3 477/712/3
f 478/711/3 480/713/3 479/714/3
f 479/91/4 469/97/4 471/98/4
f 480/479/68 469/491/68 479/480/68
f 480/479/68 470/490/68 469/491/68
usemtl RTS_crimson_cloth
f 397/78/4 412/86/4 424/87/4
f 397/78/4 424/87/4 409/79/4
f 397/932/139 398/928/139 399/931/139
f 397/932/16 399/931/16 413/935/16
f 397/932/16 413/935/16 412/936/16
f 400/930/3 413/935/3 399/931/3
f 400/930/3 417/934/3 413/935/3
f 400/930/32 401/927/32 402/929/32
f 401/360/1 398/372/1 411/373/1
f 401/927/25 399/931/25 398/928/25
f 401/927/25 400/930/25 399/931/25
f 403/630/140 404/632/140 405/634/140
f 403/85/2 415/76/2 402/84/2
f 403/85/2 420/77/2 415/76/2
f 404/483/147 406/487/147 405/488/147
f 404/483/177 407/482/177 406/487/177
f 404/94/23 402/84/23 401/93/23
f 404/94/23 403/85/23 402/84/23
f 406/487/137 418/496/137 405/488/137
f 406/487/137 423/495/137 418/496/137
f 406/487/141 407/482/141 408/486/141
f 407/367/1 404/361/1 401/360/1
f 409/590/142 410/587/142 411/589/142
f 410/485/138 421/494/138 408/486/138
f 410/485/138 426/493/138 421/494/138
f 411/373/1 407/367/1 401/360/1
f 411/481/148 408/486/148 407/482/148
f 411/481/178 410/485/178 408/486/178
f 411/70/15 397/78/15 409/79/15
f 411/70/15 398/69/15 397/78/15
f 412/936/143 413/935/143 414/938/143
f 414/384/5 416/396/5 419/397/5
f 414/384/5 419/397/5 422/393/5
f 414/938/19 413/935/19 417/934/19
f 414/938/19 417/934/19 416/937/19
f 415/933/22 400/930/22 402/929/22
f 415/933/22 417/934/22 400/930/22
f 415/933/34 416/937/34 417/934/34
f 418/496/151 403/489/151 405/488/151
f 418/496/151 420/497/151 403/489/151
f 418/611/144 419/616/144 420/618/144
f 419/500/150 423/495/150 422/499/150
f 419/500/180 418/496/180 423/495/180
f 419/68/20 415/76/20 420/77/20
f 419/68/20 416/67/20 415/76/20
f 421/494/145 422/499/145 423/495/145
f 421/494/26 406/487/26 408/486/26
f 421/494/26 423/495/26 406/487/26
f 422/393/5 425/385/5 414/384/5
f 424/492/152 410/485/152 409/484/152
f 424/492/152 426/493/152 410/485/152
f 424/608/146 425/607/146 426/617/146
f 425/498/149 421/494/149 426/493/149
f 425/498/179 422/499/179 421/494/179
f 425/96/17 412/86/17 414/95/17
f 425/96/17 424/87/17 412/86/17
f 439/290/4 454/294/4 466/295/4
f 439/290/4 466/295/4 451/291/4
f 439/974/16 441/973/16 455/977/16
f 439/974/16 455/977/16 454/978/16
f 439/974/28 440/970/28 441/973/28
f 442/972/153 443/969/153 444/971/153
f 442/972/3 455/977/3 441/973/3
f 442/972/3 459/976/3 455/977/3
f 443/402/1 440/438/1 453/439/1
f 443/969/25 441/973/25 440/970/25
f 443/969/25 442/972/25 441/973/25
f 445/293/2 457/288/2 444/292/2
f 445/293/2 462/289/2 457/288/2
f 445/563/140 446/562/140 447/570/140
f 446/306/23 444/292/23 443/305/23
f 446/306/23 445/293/23 444/292/23
f 446/941/147 448/945/147 447/946/147
f 446/941/177 449/940/177 448/945/177
f 448/945/137 460/952/137 447/946/137
f 448/945/137 465/951/137 460/952/137
f 448/945/141 449/940/141 450/944/141
f 449/422/1 446/403/1 443/402/1
f 451/633/142 452/629/142 453/631/142
f 452/943/138 463/950/138 450/944/138
f 452/943/138 468/949/138 463/950/138
f 453/281/15 439/290/15 451/291/15
f 453/281/15 440/280/15 439/290/15
f 453/439/1 449/422/1 443/402/1
f 453/939/148 450/944/148 449/940/148
f 453/939/178 452/943/178 450/944/178
f 454/978/30 455/977/30 456/980/30
f 456/448/5 458/475/5 461/476/5
f 456/448/5 461/476/5 464/465/5
f 456/980/19 455/977/19 459/976/19
f 456/980/19 459/976/19 458/979/19
f 457/975/154 458/979/154 459/976/154
f 457/975/22 442/972/22 444/971/22
f 457/975/22 459/976/22 442/972/22
f 460/588/144 461/591/144 462/592/144
f 460/952/151 445/947/151 447/946/151
f 460/952/151 462/953/151 445/947/151
f 461/279/20 457/288/20 462/289/20
f 461/279/20 458/278/20 457/288/20
f 461/956/150 465/951/150 464/955/150
f 461/956/180 460/952/180 465/951/180
f 463/950/145 464/955/145 465/951/145
f 463/950/26 448/945/26 450/944/26
f 463/950/26 465/951/26 448/945/26
f 464/465/5 467/449/5 456/448/5
f 466/637/146 467/638/146 468/639/146
f 466/948/152 452/943/152 451/942/152
f 466/948/152 468/949/152 452/943/152
f 467/308/17 454/294/17 456/307/17
f 467/308/17 466/295/17 454/294/17
f 467/954/149 463/950/149 468/949/149
f 467/954/179 464/955/179 463/950/179
