# Blender 4.0.2
# www.blender.org
mtllib command_center_crimson_collision.mtl
o command_center_crimson_collision
v 4.970000 0.000000 -4.970000
v 4.970000 0.030000 -5.000000
v 5.000000 0.030000 -4.970000
v 4.970000 0.420000 -5.000000
v 5.000000 0.420000 -4.970000
v 4.970000 0.000000 4.970000
v 5.000000 0.030000 4.970000
v 4.970000 0.030000 5.000000
v 4.970000 0.420000 5.000000
v 5.000000 0.420000 4.970000
v -4.970000 0.000000 -4.970000
v -5.000000 0.030000 -4.970000
v -4.970000 0.030000 -5.000000
v -4.970000 0.420000 -5.000000
v -5.000000 0.420000 -4.970000
v -4.970000 0.000000 4.970000
v -4.970000 0.030000 5.000000
v -5.000000 0.030000 4.970000
v -5.000000 0.420000 4.970000
v -4.970000 0.420000 5.000000
v 0.000000 8.360000 0.030000
v -0.025981 8.360000 0.015000
v -0.025981 8.360000 -0.015000
v 0.000000 8.360000 -0.030000
v 0.025981 8.360000 -0.015000
v 0.025981 8.360000 0.015000
v -3.650000 5.850000 4.800000
v -3.650000 7.750000 3.690000
v -4.463173 5.850000 4.463173
v -3.678284 7.750000 3.678284
v -4.800000 5.850000 3.650000
v -3.690000 7.750000 3.650000
v 3.650000 5.850000 4.800000
v 3.650000 7.750000 3.690000
v 4.800000 5.850000 3.650000
v 3.690000 7.750000 3.650000
v 4.463173 5.850000 4.463173
v 3.678284 7.750000 3.678284
v 3.650000 5.850000 -4.800000
v 3.650000 7.750000 -3.690000
v 4.463173 5.850000 -4.463173
v 3.678284 7.750000 -3.678284
v 4.800000 5.850000 -3.650000
v 3.690000 7.750000 -3.650000
v -4.800000 5.850000 -3.650000
v -3.690000 7.750000 -3.650000
v -4.463173 5.850000 -4.463173
v -3.678284 7.750000 -3.678284
v -3.650000 5.850000 -4.800000
v -3.650000 7.750000 -3.690000
v 1.270000 0.620000 5.000000
v -1.270000 0.620000 5.000000
vn -0.7007 0.1347 0.7007
vn -0.7071 -0.0000 0.7071
vn -0.0000 -0.0000 1.0000
vn -0.0020 0.0373 0.9993
vn -0.3796 0.1260 0.9165
vn -0.9165 0.1260 0.3796
vn -0.3368 0.4750 0.8130
vn -0.8130 0.4750 0.3368
vn -1.0000 -0.0000 -0.0000
vn -0.9993 0.0368 -0.0000
vn -0.5774 -0.5774 0.5773
vn -0.0000 -0.7071 0.7071
vn -0.0000 0.0382 0.9993
vn -0.0000 0.5044 0.8634
vn -0.8130 0.4750 0.3367
vn -0.8634 0.5044 -0.0000
vn -0.0485 0.9919 0.1170
vn -0.0606 0.9926 0.1049
vn -0.1170 0.9919 0.0485
vn -0.9165 0.1260 -0.3796
vn -0.7007 0.1347 -0.7007
vn -0.7071 -0.0000 -0.7071
vn -0.7071 -0.7071 -0.0000
vn -0.0000 -1.0000 -0.0000
vn 0.5774 -0.5774 0.5773
vn 0.7071 -0.0000 0.7071
vn 0.0020 0.0373 0.9993
vn -0.0000 0.9864 0.1644
vn 0.3796 0.1260 0.9165
vn 0.3368 0.4750 0.8130
vn -0.8130 0.4750 -0.3367
vn -0.8130 0.4750 -0.3368
vn -0.1642 0.9864 -0.0000
vn 0.0485 0.9919 0.1170
vn 0.0606 0.9926 0.1049
vn -0.0000 1.0000 -0.0000
vn -0.5774 -0.5774 -0.5773
vn -0.3368 0.4750 -0.8130
vn -0.3796 0.1260 -0.9165
vn -0.0000 0.0368 -0.9993
vn -0.0000 -0.0000 -1.0000
vn -0.0000 -0.7071 -0.7071
vn 0.7071 -0.7071 -0.0000
vn 1.0000 -0.0000 -0.0000
vn 0.7007 0.1347 0.7007
vn 0.9165 0.1260 0.3796
vn 0.8130 0.4750 0.3368
vn 0.1170 0.9919 0.0485
vn 0.8130 0.4750 0.3367
vn -0.1170 0.9919 -0.0485
vn -0.0606 0.9926 -0.1049
vn -0.0485 0.9919 -0.1170
vn 0.1642 0.9864 -0.0000
vn -0.0000 0.5044 -0.8634
vn 0.3796 0.1260 -0.9165
vn 0.7007 0.1347 -0.7007
vn 0.7071 -0.0000 -0.7071
vn 0.5774 -0.5774 -0.5773
vn 0.9993 0.0368 -0.0000
vn 0.8634 0.5044 -0.0000
vn 0.0606 0.9926 -0.1049
vn 0.0485 0.9919 -0.1170
vn -0.0000 0.9864 -0.1644
vn 0.1170 0.9919 -0.0485
vn 0.3368 0.4750 -0.8130
vn 0.9165 0.1260 -0.3796
vn 0.8130 0.4750 -0.3368
vn 0.8130 0.4750 -0.3367
vt 0.00000 0.07339
vt 0.00000 0.48304
vt 0.00000 0.63187
vt 0.00000 0.86630
vt 0.00073 0.86751
vt 0.00178 0.86652
vt 0.00219 0.85109
vt 0.00397 0.85131
vt 0.01743 0.27710
vt 0.01743 0.27933
vt 0.01747 0.27822
vt 0.03390 0.63720
vt 0.04389 0.55947
vt 0.04507 0.55965
vt 0.04626 0.55977
vt 0.06811 0.64042
vt 0.08268 0.04242
vt 0.08268 0.51402
vt 0.10011 0.24613
vt 0.10011 0.31031
vt 0.10125 0.27822
vt 0.26476 0.57079
vt 0.28660 0.65145
vt 0.29929 0.88153
vt 0.30148 0.86633
vt 0.30872 0.00000
vt 0.30872 0.55643
vt 0.30913 0.10325
vt 0.31519 0.17413
vt 0.32515 0.00000
vt 0.32515 0.55643
vt 0.33245 0.27738
vt 0.33245 0.27905
vt 0.34888 0.27738
vt 0.34888 0.27905
vt 0.35007 0.27822
vt 0.35332 0.00118
vt 0.35332 0.39346
vt 0.35332 0.65335
vt 0.35346 0.65224
vt 0.35352 0.65113
vt 0.35434 0.44677
vt 0.35459 0.00000
vt 0.35459 0.00118
vt 0.35459 0.39346
vt 0.35459 0.39464
vt 0.43295 0.69066
vt 0.43695 0.65877
vt 0.43868 0.62670
vt 0.43950 0.42234
vt 0.64085 0.77915
vt 0.66727 0.67761
vt 0.66742 0.67594
vt 0.66853 0.39768
vt 0.68364 0.67889
vt 0.68379 0.67722
vt 0.68490 0.39896
vt 0.68490 0.67814
vt 0.68815 0.47863
vt 0.68815 0.71033
vt 0.68815 0.99842
vt 0.68865 0.70922
vt 0.68865 0.99954
vt 0.68985 0.70876
vt 0.68985 1.00000
vt 0.71000 0.39797
vt 0.71119 0.39786
vt 0.71237 0.39768
vt 0.72236 0.47541
vt 0.75230 0.68952
vt 0.75407 0.68930
vt 0.75449 0.70473
vt 0.75553 0.70572
vt 0.75626 0.47008
vt 0.75626 0.70451
vt 0.77461 0.00000
vt 0.77461 0.00118
vt 0.77461 0.39346
vt 0.77461 0.39464
vt 0.77588 0.00118
vt 0.77588 0.39346
vt 0.84281 0.85438
vt 0.84344 0.85335
vt 0.84344 0.85540
vt 0.84471 0.85335
vt 0.84471 0.85540
vt 0.84535 0.85438
vt 0.99831 0.70876
vt 0.99831 1.00000
vt 0.99950 0.70922
vt 0.99950 0.99954
vt 1.00000 0.71033
vt 1.00000 0.99842
s 0
usemtl RTS_collision
f 1/44/43 3/43/43 7/76/43
f 1/44/43 7/76/43 6/77/43
f 10/33/45 37/21/45 9/32/45
f 10/33/46 35/20/46 37/21/46
f 11/45/24 1/44/24 6/77/24
f 11/45/24 6/77/24 16/78/24
f 12/46/23 11/45/23 16/78/23
f 12/46/23 16/78/23 18/79/23
f 13/38/42 1/44/42 11/45/42
f 13/38/42 2/37/42 1/44/42
f 13/6/37 11/5/37 12/4/37
f 14/8/22 12/4/22 15/7/22
f 14/8/22 13/6/22 12/4/22
f 15/54/9 12/57/9 18/56/9
f 15/54/9 18/56/9 19/53/9
f 16/78/12 6/77/12 8/80/12
f 16/78/12 8/80/12 17/81/12
f 17/30/3 51/29/3 52/28/3
f 17/30/3 52/28/3 20/26/3
f 17/30/3 8/34/3 9/32/3
f 17/30/3 9/32/3 51/29/3
f 18/56/11 16/58/11 17/55/11
f 19/53/2 17/55/2 20/52/2
f 19/53/2 18/56/2 17/55/2
f 2/72/58 3/75/58 1/73/58
f 21/87/18 22/85/18 30/90/18
f 22/85/19 32/88/19 30/90/19
f 22/85/33 23/83/33 46/64/33
f 22/85/33 46/64/33 32/88/33
f 23/83/50 48/62/50 46/64/50
f 23/83/51 24/82/51 48/62/51
f 24/82/52 50/60/52 48/62/52
f 25/84/61 42/63/61 24/82/61
f 26/86/36 22/85/36 21/87/36
f 26/86/36 23/83/36 22/85/36
f 26/86/36 24/82/36 23/83/36
f 26/86/36 25/84/36 24/82/36
f 27/47/5 29/48/5 20/52/5
f 27/47/7 30/40/7 29/48/7
f 28/39/7 30/40/7 27/47/7
f 28/92/17 21/87/17 30/90/17
f 29/48/1 19/53/1 20/52/1
f 3/31/44 10/33/44 7/35/44
f 3/31/44 5/27/44 10/33/44
f 30/40/15 32/41/15 31/49/15
f 30/40/8 31/49/8 29/48/8
f 31/49/10 15/54/10 19/53/10
f 31/49/10 45/50/10 15/54/10
f 31/49/6 19/53/6 29/48/6
f 32/41/16 45/50/16 31/49/16
f 32/41/16 46/42/16 45/50/16
f 33/19/14 28/1/14 27/17/14
f 33/19/14 34/9/14 28/1/14
f 34/93/28 21/87/28 28/92/28
f 34/93/34 38/91/34 21/87/34
f 35/20/47 38/11/47 37/21/47
f 35/20/49 36/10/49 38/11/49
f 36/89/48 26/86/48 38/91/48
f 36/89/53 25/84/53 26/86/53
f 36/89/53 44/65/53 25/84/53
f 37/21/30 38/11/30 33/19/30
f 38/11/30 34/9/30 33/19/30
f 38/91/35 26/86/35 21/87/35
f 39/59/55 41/69/55 4/70/55
f 4/25/41 13/6/41 14/8/41
f 4/25/41 2/24/41 13/6/41
f 40/61/63 50/60/63 24/82/63
f 40/66/65 42/67/65 39/59/65
f 41/69/56 5/71/56 4/70/56
f 42/63/62 40/61/62 24/82/62
f 42/67/65 41/69/65 39/59/65
f 42/67/67 43/74/67 41/69/67
f 42/67/68 44/68/68 43/74/68
f 43/18/60 36/10/60 35/20/60
f 43/18/60 44/2/60 36/10/60
f 43/74/66 5/71/66 41/69/66
f 44/65/64 42/63/64 25/84/64
f 45/3/20 47/12/20 15/7/20
f 46/13/31 48/14/31 45/3/31
f 47/12/21 14/8/21 15/7/21
f 48/14/32 47/12/32 45/3/32
f 48/14/38 49/16/38 47/12/38
f 49/16/39 14/8/39 47/12/39
f 49/16/40 39/23/40 4/25/40
f 49/16/40 4/25/40 14/8/40
f 5/27/59 35/20/59 10/33/59
f 5/27/59 43/18/59 35/20/59
f 5/71/57 2/72/57 4/70/57
f 5/71/57 3/75/57 2/72/57
f 50/15/38 49/16/38 48/14/38
f 50/15/54 39/23/54 49/16/54
f 50/15/54 40/22/54 39/23/54
f 51/29/13 27/17/13 52/28/13
f 51/29/13 33/19/13 27/17/13
f 52/51/4 27/47/4 20/52/4
f 6/36/25 7/35/25 8/34/25
f 7/35/26 10/33/26 9/32/26
f 7/35/26 9/32/26 8/34/26
f 9/32/27 33/19/27 51/29/27
f 9/32/29 37/21/29 33/19/29
