# Blender 4.0.2
# www.blender.org
mtllib command_center_crimson.mtl
o command_center_crimson
v 4.970000 0.000000 -4.970000
v 4.970000 0.030000 -5.000000
v 5.000000 0.030000 -4.970000
v 4.970000 0.420000 -5.000000
v 4.970000 0.450000 -4.970000
v 5.000000 0.420000 -4.970000
v 4.970000 0.000000 4.970000
v 5.000000 0.030000 4.970000
v 4.970000 0.030000 5.000000
v 4.970000 0.450000 4.970000
v 4.970000 0.420000 5.000000
v 5.000000 0.420000 4.970000
v -4.970000 0.000000 -4.970000
v -5.000000 0.030000 -4.970000
v -4.970000 0.030000 -5.000000
v -4.970000 0.450000 -4.970000
v -4.970000 0.420000 -5.000000
v -5.000000 0.420000 -4.970000
v -4.970000 0.000000 4.970000
v -4.970000 0.030000 5.000000
v -5.000000 0.030000 4.970000
v -4.970000 0.450000 4.970000
v -5.000000 0.420000 4.970000
v -4.970000 0.420000 5.000000
v 4.470000 0.450000 -4.470000
v 4.470000 0.480000 -4.500000
v 4.500000 0.480000 -4.470000
v 4.470000 0.820000 -4.500000
v 4.470000 0.850000 -4.470000
v 4.500000 0.820000 -4.470000
v 4.470000 0.450000 4.470000
v 4.500000 0.480000 4.470000
v 4.470000 0.480000 4.500000
v 4.470000 0.850000 4.470000
v 4.470000 0.820000 4.500000
v 4.500000 0.820000 4.470000
v -4.470000 0.450000 -4.470000
v -4.500000 0.480000 -4.470000
v -4.470000 0.480000 -4.500000
v -4.470000 0.850000 -4.470000
v -4.470000 0.820000 -4.500000
v -4.500000 0.820000 -4.470000
v -4.470000 0.450000 4.470000
v -4.470000 0.480000 4.500000
v -4.500000 0.480000 4.470000
v -4.470000 0.850000 4.470000
v -4.500000 0.820000 4.470000
v -4.470000 0.820000 4.500000
v 3.470000 0.850000 -3.470000
v 3.470000 0.880000 -3.500000
v 3.500000 0.880000 -3.470000
v 3.470000 4.220000 -3.500000
v 3.470000 4.250000 -3.470000
v 3.500000 4.220000 -3.470000
v 3.470000 0.850000 3.470000
v 3.500000 0.880000 3.470000
v 3.470000 0.880000 3.500000
v 3.470000 4.250000 3.470000
v 3.470000 4.220000 3.500000
v 3.500000 4.220000 3.470000
v -3.470000 0.850000 -3.470000
v -3.500000 0.880000 -3.470000
v -3.470000 0.880000 -3.500000
v -3.470000 4.250000 -3.470000
v -3.470000 4.220000 -3.500000
v -3.500000 4.220000 -3.470000
v -3.470000 0.850000 3.470000
v -3.470000 0.880000 3.500000
v -3.500000 0.880000 3.470000
v -3.470000 4.250000 3.470000
v -3.500000 4.220000 3.470000
v -3.470000 4.220000 3.500000
v 3.670000 4.250000 -3.670000
v 3.670000 4.280000 -3.700000
v 3.700000 4.280000 -3.670000
v 3.670000 4.480000 -3.700000
v 3.670000 4.510000 -3.670000
v 3.700000 4.480000 -3.670000
v 3.670000 4.250000 3.670000
v 3.700000 4.280000 3.670000
v 3.670000 4.280000 3.700000
v 3.670000 4.510000 3.670000
v 3.670000 4.480000 3.700000
v 3.700000 4.480000 3.670000
v -3.670000 4.250000 -3.670000
v -3.700000 4.280000 -3.670000
v -3.670000 4.280000 -3.700000
v -3.670000 4.510000 -3.670000
v -3.670000 4.480000 -3.700000
v -3.700000 4.480000 -3.670000
v -3.670000 4.250000 3.670000
v -3.670000 4.280000 3.700000
v -3.700000 4.280000 3.670000
v -3.670000 4.510000 3.670000
v -3.700000 4.480000 3.670000
v -3.670000 4.480000 3.700000
v 3.878016 4.530414 -3.826512
v 3.870000 4.510000 -3.870000
v 3.847134 4.526641 -3.875039
v -3.878016 4.530414 -3.826512
v -3.847134 4.526641 -3.875039
v -3.870000 4.510000 -3.870000
v -3.847134 4.526641 3.875039
v -3.878016 4.530414 3.826512
v -3.870000 4.510000 3.870000
v 3.878016 4.530414 3.826512
v 3.847134 4.526641 3.875039
v 3.870000 4.510000 3.870000
v 1.130777 7.081422 0.000000
v 1.082976 7.093359 -0.024961
v 1.082976 7.093359 0.024962
v -1.130777 7.081422 0.000000
v -1.082976 7.093359 0.024961
v -1.082976 7.093359 -0.024962
v 0.000000 7.060000 0.120000
v 0.000000 8.360000 0.030000
v -0.103923 7.060000 0.060000
v -0.025981 8.360000 0.015000
v -0.103923 7.060000 -0.060000
v -0.025981 8.360000 -0.015000
v 0.000000 7.060000 -0.120000
v 0.000000 8.360000 -0.030000
v 0.103923 7.060000 -0.060000
v 0.025981 8.360000 -0.015000
v 0.103923 7.060000 0.060000
v 0.025981 8.360000 0.015000
v -3.650000 0.850000 4.567528
v -3.650000 0.880000 4.600000
v -3.650000 5.850000 4.567528
v -3.650000 5.820000 4.600000
v -4.298790 0.850000 4.298790
v -4.321752 0.880000 4.321752
v -4.298790 5.850000 4.298790
v -4.321752 5.820000 4.321752
v -4.567528 0.850000 3.650000
v -4.600000 0.880000 3.650000
v -4.567528 5.850000 3.650000
v -4.600000 5.820000 3.650000
v -4.298790 0.850000 3.001210
v -4.321752 0.880000 2.978249
v -4.298790 5.850000 3.001210
v -4.321752 5.820000 2.978249
v -3.650000 0.850000 2.732472
v -3.650000 0.880000 2.700000
v -3.650000 5.850000 2.732472
v -3.650000 5.820000 2.700000
v -3.001210 0.850000 3.001210
v -2.978249 0.880000 2.978249
v -3.001210 5.850000 3.001210
v -2.978249 5.820000 2.978249
v -2.732472 0.850000 3.650000
v -2.700000 0.880000 3.650000
v -2.732472 5.850000 3.650000
v -2.700000 5.820000 3.650000
v -3.001210 0.850000 4.298790
v -2.978249 0.880000 4.321752
v -3.001210 5.850000 4.298790
v -2.978249 5.820000 4.321752
v -3.650000 5.550000 4.667528
v -3.650000 5.580000 4.700000
v -3.650000 5.850000 4.667528
v -3.650000 5.820000 4.700000
v -4.369501 5.550000 4.369501
v -4.392462 5.580000 4.392462
v -4.369501 5.850000 4.369501
v -4.392462 5.820000 4.392462
v -4.667528 5.550000 3.650000
v -4.700000 5.580000 3.650000
v -4.667528 5.850000 3.650000
v -4.700000 5.820000 3.650000
v -4.369501 5.550000 2.930499
v -4.392462 5.580000 2.907538
v -4.369501 5.850000 2.930499
v -4.392462 5.820000 2.907538
v -3.650000 5.550000 2.632472
v -3.650000 5.580000 2.600000
v -3.650000 5.850000 2.632472
v -3.650000 5.820000 2.600000
v -2.930499 5.550000 2.930499
v -2.907538 5.580000 2.907538
v -2.930499 5.850000 2.930499
v -2.907538 5.820000 2.907538
v -2.632472 5.550000 3.650000
v -2.600000 5.580000 3.650000
v -2.632472 5.850000 3.650000
v -2.600000 5.820000 3.650000
v -2.930499 5.550000 4.369501
v -2.907538 5.580000 4.392462
v -2.930499 5.850000 4.369501
v -2.907538 5.820000 4.392462
v -3.650000 5.850000 4.800000
v -3.650000 7.750000 3.690000
v -4.463173 5.850000 4.463173
v -3.678284 7.750000 3.678284
v -4.800000 5.850000 3.650000
v -3.690000 7.750000 3.650000
v -4.463173 5.850000 2.836827
v -3.678284 7.750000 3.621716
v -3.650000 5.850000 2.500000
v -3.650000 7.750000 3.610000
v -2.836827 5.850000 2.836827
v -3.621716 7.750000 3.621716
v -2.500000 5.850000 3.650000
v -3.610000 7.750000 3.650000
v -2.836827 5.850000 4.463173
v -3.621716 7.750000 3.678284
v 3.650000 0.850000 4.567528
v 3.650000 0.880000 4.600000
v 3.650000 5.850000 4.567528
v 3.650000 5.820000 4.600000
v 3.001210 0.850000 4.298790
v 2.978249 0.880000 4.321752
v 3.001210 5.850000 4.298790
v 2.978249 5.820000 4.321752
v 2.732472 0.850000 3.650000
v 2.700000 0.880000 3.650000
v 2.732472 5.850000 3.650000
v 2.700000 5.820000 3.650000
v 3.001210 0.850000 3.001210
v 2.978249 0.880000 2.978249
v 3.001210 5.850000 3.001210
v 2.978249 5.820000 2.978249
v 3.650000 0.850000 2.732472
v 3.650000 0.880000 2.700000
v 3.650000 5.850000 2.732472
v 3.650000 5.820000 2.700000
v 4.298790 0.850000 3.001210
v 4.321752 0.880000 2.978249
v 4.298790 5.850000 3.001210
v 4.321752 5.820000 2.978249
v 4.567528 0.850000 3.650000
v 4.600000 0.880000 3.650000
v 4.567528 5.850000 3.650000
v 4.600000 5.820000 3.650000
v 4.298790 0.850000 4.298790
v 4.321752 0.880000 4.321752
v 4.298790 5.850000 4.298790
v 4.321752 5.820000 4.321752
v 3.650000 5.550000 4.667528
v 3.650000 5.580000 4.700000
v 3.650000 5.850000 4.667528
v 3.650000 5.820000 4.700000
v 2.930499 5.550000 4.369501
v 2.907538 5.580000 4.392462
v 2.930499 5.850000 4.369501
v 2.907538 5.820000 4.392462
v 2.632472 5.550000 3.650000
v 2.600000 5.580000 3.650000
v 2.632472 5.850000 3.650000
v 2.600000 5.820000 3.650000
v 2.930499 5.550000 2.930499
v 2.907538 5.580000 2.907538
v 2.930499 5.850000 2.930499
v 2.907538 5.820000 2.907538
v 3.650000 5.550000 2.632472
v 3.650000 5.580000 2.600000
v 3.650000 5.850000 2.632472
v 3.650000 5.820000 2.600000
v 4.369501 5.550000 2.930499
v 4.392462 5.580000 2.907538
v 4.369501 5.850000 2.930499
v 4.392462 5.820000 2.907538
v 4.667528 5.550000 3.650000
v 4.700000 5.580000 3.650000
v 4.667528 5.850000 3.650000
v 4.700000 5.820000 3.650000
v 4.369501 5.550000 4.369501
v 4.392462 5.580000 4.392462
v 4.369501 5.850000 4.369501
v 4.392462 5.820000 4.392462
v 3.650000 5.850000 4.800000
v 3.650000 7.750000 3.690000
v 2.836827 5.850000 4.463173
v 3.621716 7.750000 3.678284
v 2.500000 5.850000 3.650000
v 3.610000 7.750000 3.650000
v 2.836827 5.850000 2.836827
v 3.621716 7.750000 3.621716
v 3.650000 5.850000 2.500000
v 3.650000 7.750000 3.610000
v 4.463173 5.850000 2.836827
v 3.678284 7.750000 3.621716
v 4.800000 5.850000 3.650000
v 3.690000 7.750000 3.650000
v 4.463173 5.850000 4.463173
v 3.678284 7.750000 3.678284
v 3.650000 0.850000 -2.732472
v 3.650000 0.880000 -2.700000
v 3.650000 5.850000 -2.732472
v 3.650000 5.820000 -2.700000
v 3.001210 0.850000 -3.001210
v 2.978249 0.880000 -2.978249
v 3.001210 5.850000 -3.001210
v 2.978249 5.820000 -2.978249
v 2.732472 0.850000 -3.650000
v 2.700000 0.880000 -3.650000
v 2.732472 5.850000 -3.650000
v 2.700000 5.820000 -3.650000
v 3.001210 0.850000 -4.298790
v 2.978249 0.880000 -4.321752
v 3.001210 5.850000 -4.298790
v 2.978249 5.820000 -4.321752
v 3.650000 0.850000 -4.567528
v 3.650000 0.880000 -4.600000
v 3.650000 5.850000 -4.567528
v 3.650000 5.820000 -4.600000
v 4.298790 0.850000 -4.298790
v 4.321752 0.880000 -4.321752
v 4.298790 5.850000 -4.298790
v 4.321752 5.820000 -4.321752
v 4.567528 0.850000 -3.650000
v 4.600000 0.880000 -3.650000
v 4.567528 5.850000 -3.650000
v 4.600000 5.820000 -3.650000
v 4.298790 0.850000 -3.001210
v 4.321752 0.880000 -2.978249
v 4.298790 5.850000 -3.001210
v 4.321752 5.820000 -2.978249
v 3.650000 5.550000 -2.632472
v 3.650000 5.580000 -2.600000
v 3.650000 5.850000 -2.632472
v 3.650000 5.820000 -2.600000
v 2.930499 5.550000 -2.930499
v 2.907538 5.580000 -2.907538
v 2.930499 5.850000 -2.930499
v 2.907538 5.820000 -2.907538
v 2.632472 5.550000 -3.650000
v 2.600000 5.580000 -3.650000
v 2.632472 5.850000 -3.650000
v 2.600000 5.820000 -3.650000
v 2.930499 5.550000 -4.369501
v 2.907538 5.580000 -4.392462
v 2.930499 5.850000 -4.369501
v 2.907538 5.820000 -4.392462
v 3.650000 5.550000 -4.667528
v 3.650000 5.580000 -4.700000
v 3.650000 5.850000 -4.667528
v 3.650000 5.820000 -4.700000
v 4.369501 5.550000 -4.369501
v 4.392462 5.580000 -4.392462
v 4.369501 5.850000 -4.369501
v 4.392462 5.820000 -4.392462
v 4.667528 5.550000 -3.650000
v 4.700000 5.580000 -3.650000
v 4.667528 5.850000 -3.650000
v 4.700000 5.820000 -3.650000
v 4.369501 5.550000 -2.930499
v 4.392462 5.580000 -2.907538
v 4.369501 5.850000 -2.930499
v 4.392462 5.820000 -2.907538
v 3.650000 5.850000 -2.500000
v 3.650000 7.750000 -3.610000
v 2.836827 5.850000 -2.836827
v 3.621716 7.750000 -3.621716
v 2.500000 5.850000 -3.650000
v 3.610000 7.750000 -3.650000
v 2.836827 5.850000 -4.463173
v 3.621716 7.750000 -3.678284
v 3.650000 5.850000 -4.800000
v 3.650000 7.750000 -3.690000
v 4.463173 5.850000 -4.463173
v 3.678284 7.750000 -3.678284
v 4.800000 5.850000 -3.650000
v 3.690000 7.750000 -3.650000
v 4.463173 5.850000 -2.836827
v 3.678284 7.750000 -3.621716
v -3.650000 0.850000 -2.732472
v -3.650000 0.880000 -2.700000
v -3.650000 5.850000 -2.732472
v -3.650000 5.820000 -2.700000
v -4.298790 0.850000 -3.001210
v -4.321752 0.880000 -2.978249
v -4.298790 5.850000 -3.001210
v -4.321752 5.820000 -2.978249
v -4.567528 0.850000 -3.650000
v -4.600000 0.880000 -3.650000
v -4.567528 5.850000 -3.650000
v -4.600000 5.820000 -3.650000
v -4.298790 0.850000 -4.298790
v -4.321752 0.880000 -4.321752
v -4.298790 5.850000 -4.298790
v -4.321752 5.820000 -4.321752
v -3.650000 0.850000 -4.567528
v -3.650000 0.880000 -4.600000
v -3.650000 5.850000 -4.567528
v -3.650000 5.820000 -4.600000
v -3.001210 0.850000 -4.298790
v -2.978249 0.880000 -4.321752
v -3.001210 5.850000 -4.298790
v -2.978249 5.820000 -4.321752
v -2.732472 0.850000 -3.650000
v -2.700000 0.880000 -3.650000
v -2.732472 5.850000 -3.650000
v -2.700000 5.820000 -3.650000
v -3.001210 0.850000 -3.001210
v -2.978249 0.880000 -2.978249
v -3.001210 5.850000 -3.001210
v -2.978249 5.820000 -2.978249
v -3.650000 5.550000 -2.632472
v -3.650000 5.580000 -2.600000
v -3.650000 5.850000 -2.632472
v -3.650000 5.820000 -2.600000
v -4.369501 5.550000 -2.930499
v -4.392462 5.580000 -2.907538
v -4.369501 5.850000 -2.930499
v -4.392462 5.820000 -2.907538
v -4.667528 5.550000 -3.650000
v -4.700000 5.580000 -3.650000
v -4.667528 5.850000 -3.650000
v -4.700000 5.820000 -3.650000
v -4.369501 5.550000 -4.369501
v -4.392462 5.580000 -4.392462
v -4.369501 5.850000 -4.369501
v -4.392462 5.820000 -4.392462
v -3.650000 5.550000 -4.667528
v -3.650000 5.580000 -4.700000
v -3.650000 5.850000 -4.667528
v -3.650000 5.820000 -4.700000
v -2.930499 5.550000 -4.369501
v -2.907538 5.580000 -4.392462
v -2.930499 5.850000 -4.369501
v -2.907538 5.820000 -4.392462
v -2.632472 5.550000 -3.650000
v -2.600000 5.580000 -3.650000
v -2.632472 5.850000 -3.650000
v -2.600000 5.820000 -3.650000
v -2.930499 5.550000 -2.930499
v -2.907538 5.580000 -2.907538
v -2.930499 5.850000 -2.930499
v -2.907538 5.820000 -2.907538
v -3.650000 5.850000 -2.500000
v -3.650000 7.750000 -3.610000
v -4.463173 5.850000 -2.836827
v -3.678284 7.750000 -3.621716
v -4.800000 5.850000 -3.650000
v -3.690000 7.750000 -3.650000
v -4.463173 5.850000 -4.463173
v -3.678284 7.750000 -3.678284
v -3.650000 5.850000 -4.800000
v -3.650000 7.750000 -3.690000
v -2.836827 5.850000 -4.463173
v -3.621716 7.750000 -3.678284
v -2.500000 5.850000 -3.650000
v -3.610000 7.750000 -3.650000
v -2.836827 5.850000 -2.836827
v -3.621716 7.750000 -3.621716
v -1.320000 0.850000 3.330000
v -1.350000 0.880000 3.330000
v -1.320000 0.880000 3.300000
v -1.320000 0.850000 3.770000
v -1.320000 0.880000 3.800000
v -1.350000 0.880000 3.770000
v -0.980000 0.850000 3.330000
v -0.980000 0.880000 3.300000
v -0.950000 0.880000 3.330000
v -0.980000 0.850000 3.770000
v -0.950000 0.880000 3.770000
v -0.980000 0.880000 3.800000
v -1.350000 2.250000 3.330000
v -1.320000 2.247045 3.300000
v -1.320000 2.247045 3.800000
v -1.350000 2.250000 3.770000
v -0.980000 2.252955 3.300000
v -0.950000 2.250000 3.330000
v -0.950000 2.250000 3.770000
v -0.980000 2.252955 3.800000
v -1.247237 2.766623 3.330000
v -1.218978 2.754917 3.300000
v -1.218978 2.754917 3.800000
v -1.247237 2.766623 3.770000
v -0.905945 2.625255 3.300000
v -0.877686 2.613549 3.330000
v -0.877686 2.613549 3.770000
v -0.905945 2.625255 3.800000
v -0.954594 3.204594 3.330000
v -0.932965 3.182965 3.300000
v -0.932965 3.182965 3.800000
v -0.954594 3.204594 3.770000
v -0.693380 2.943380 3.300000
v -0.671751 2.921751 3.330000
v -0.671751 2.921751 3.770000
v -0.693380 2.943380 3.800000
v -0.516623 3.497237 3.330000
v -0.504917 3.468978 3.300000
v -0.504917 3.468978 3.800000
v -0.516623 3.497237 3.770000
v -0.375255 3.155945 3.300000
v -0.363549 3.127686 3.330000
v -0.363549 3.127686 3.770000
v -0.375255 3.155945 3.800000
v -0.000000 3.600000 3.330000
v 0.000000 3.569412 3.300000
v 0.000000 3.569412 3.800000
v -0.000000 3.600000 3.770000
v -0.000000 3.230588 3.300000
v -0.000000 3.200000 3.330000
v -0.000000 3.200000 3.770000
v 0.000000 3.230588 3.800000
v 0.516623 3.497237 3.330000
v 0.504917 3.468978 3.300000
v 0.504917 3.468978 3.800000
v 0.516623 3.497237 3.770000
v 0.375255 3.155945 3.300000
v 0.363549 3.127686 3.330000
v 0.363549 3.127686 3.770000
v 0.375255 3.155945 3.800000
v 0.954594 3.204594 3.330000
v 0.932965 3.182965 3.300000
v 0.932965 3.182965 3.800000
v 0.954594 3.204594 3.770000
v 0.693380 2.943380 3.300000
v 0.671751 2.921751 3.330000
v 0.671751 2.921751 3.770000
v 0.693380 2.943380 3.800000
v 1.247237 2.766623 3.330000
v 1.218978 2.754917 3.300000
v 1.218978 2.754917 3.800000
v 1.247237 2.766623 3.770000
v 0.905945 2.625255 3.300000
v 0.877686 2.613549 3.330000
v 0.877686 2.613549 3.770000
v 0.905945 2.625255 3.800000
v 1.350000 2.250000 3.330000
v 1.320000 2.247045 3.300000
v 1.320000 2.247045 3.800000
v 1.350000 2.250000 3.770000
v 0.980000 2.252955 3.300000
v 0.950000 2.250000 3.330000
v 0.950000 2.250000 3.770000
v 0.980000 2.252955 3.800000
v 1.350000 0.880000 3.330000
v 1.320000 0.850000 3.330000
v 1.320000 0.880000 3.300000
v 1.320000 0.850000 3.770000
v 1.350000 0.880000 3.770000
v 1.320000 0.880000 3.800000
v 0.980000 0.850000 3.330000
v 0.950000 0.880000 3.330000
v 0.980000 0.880000 3.300000
v 0.950000 0.880000 3.770000
v 0.980000 0.850000 3.770000
v 0.980000 0.880000 3.800000
v 0.920000 0.850000 3.490000
v 0.920000 0.880000 3.460000
v 0.950000 0.880000 3.490000
v 0.920000 2.220000 3.460000
v 0.920000 2.250000 3.490000
v 0.950000 2.220000 3.490000
v 0.920000 0.850000 3.550000
v 0.950000 0.880000 3.550000
v 0.920000 0.880000 3.580000
v 0.920000 2.250000 3.550000
v 0.920000 2.220000 3.580000
v 0.950000 2.220000 3.550000
v -0.920000 0.850000 3.490000
v -0.950000 0.880000 3.490000
v -0.920000 0.880000 3.460000
v -0.920000 2.250000 3.490000
v -0.920000 2.220000 3.460000
v -0.950000 2.220000 3.490000
v -0.920000 0.850000 3.550000
v -0.920000 0.880000 3.580000
v -0.950000 0.880000 3.550000
v -0.920000 2.250000 3.550000
v -0.950000 2.220000 3.550000
v -0.920000 2.220000 3.580000
v 0.935481 2.263755 3.480000
v 0.899808 2.270000 3.460000
v 0.930000 2.250000 3.480000
v -0.930000 2.250000 3.480000
v -0.899808 2.270000 3.460000
v -0.935481 2.263755 3.480000
v 0.014519 3.136245 3.480000
v -0.014519 3.136245 3.480000
v 0.000000 3.122450 3.460000
v 0.935481 2.263755 3.560000
v 0.930000 2.250000 3.560000
v 0.899808 2.270000 3.580000
v -0.935481 2.263755 3.560000
v -0.899808 2.270000 3.580000
v -0.930000 2.250000 3.560000
v 0.014519 3.136245 3.560000
v -0.000000 3.122450 3.580000
v -0.014519 3.136245 3.560000
v 1.270000 0.450000 4.530000
v 1.270000 0.480000 4.500000
v 1.300000 0.480000 4.530000
v 1.270000 0.620000 4.500000
v 1.270000 0.650000 4.530000
v 1.300000 0.620000 4.530000
v 1.270000 0.450000 4.970000
v 1.300000 0.480000 4.970000
v 1.270000 0.480000 5.000000
v 1.270000 0.650000 4.970000
v 1.270000 0.620000 5.000000
v 1.300000 0.620000 4.970000
v -1.270000 0.450000 4.530000
v -1.300000 0.480000 4.530000
v -1.270000 0.480000 4.500000
v -1.270000 0.650000 4.530000
v -1.270000 0.620000 4.500000
v -1.300000 0.620000 4.530000
v -1.270000 0.450000 4.970000
v -1.270000 0.480000 5.000000
v -1.300000 0.480000 4.970000
v -1.270000 0.650000 4.970000
v -1.300000 0.620000 4.970000
v -1.270000 0.620000 5.000000
v 2.650000 3.930000 3.545000
v 2.630000 3.930000 3.525000
v 2.630000 3.950000 3.545000
v 1.670000 3.950000 3.545000
v 1.670000 3.930000 3.525000
v 1.650000 3.930000 3.545000
v 1.650000 1.770000 3.545000
v 1.670000 1.794907 3.525000
v 1.664866 1.763379 3.545000
v 2.135134 2.186621 3.545000
v 2.150000 2.173093 3.525000
v 2.164866 2.186621 3.545000
v 2.650000 1.770000 3.545000
v 2.635134 1.763379 3.545000
v 2.630000 1.794907 3.525000
v 2.650000 3.930000 3.555000
v 2.630000 3.950000 3.555000
v 2.630000 3.930000 3.575000
v 1.650000 3.930000 3.555000
v 1.670000 3.930000 3.575000
v 1.670000 3.950000 3.555000
v 1.664866 1.763379 3.555000
v 1.670000 1.794907 3.575000
v 1.650000 1.770000 3.555000
v 2.164866 2.186621 3.555000
v 2.150000 2.173093 3.575000
v 2.135134 2.186621 3.555000
v 2.650000 1.770000 3.555000
v 2.630000 1.794907 3.575000
v 2.635134 1.763379 3.555000
v 2.770000 3.980000 3.585000
v 1.530000 3.980000 3.585000
v 2.770000 3.949689 3.567500
v 1.530000 3.949689 3.567500
v 2.770000 3.949689 3.532500
v 1.530000 3.949689 3.532500
v 2.770000 3.980000 3.515000
v 1.530000 3.980000 3.515000
v 2.770000 4.010311 3.532500
v 1.530000 4.010311 3.532500
v 2.770000 4.010311 3.567500
v 1.530000 4.010311 3.567500
v -1.650000 3.930000 3.545000
v -1.670000 3.930000 3.525000
v -1.670000 3.950000 3.545000
v -2.630000 3.950000 3.545000
v -2.630000 3.930000 3.525000
v -2.650000 3.930000 3.545000
v -2.650000 1.770000 3.545000
v -2.630000 1.794907 3.525000
v -2.635134 1.763379 3.545000
v -2.164866 2.186621 3.545000
v -2.150000 2.173093 3.525000
v -2.135134 2.186621 3.545000
v -1.650000 1.770000 3.545000
v -1.664866 1.763379 3.545000
v -1.670000 1.794907 3.525000
v -1.650000 3.930000 3.555000
v -1.670000 3.950000 3.555000
v -1.670000 3.930000 3.575000
v -2.650000 3.930000 3.555000
v -2.630000 3.930000 3.575000
v -2.630000 3.950000 3.555000
v -2.635134 1.763379 3.555000
v -2.630000 1.794907 3.575000
v -2.650000 1.770000 3.555000
v -2.135134 2.186621 3.555000
v -2.150000 2.173093 3.575000
v -2.164866 2.186621 3.555000
v -1.650000 1.770000 3.555000
v -1.670000 1.794907 3.575000
v -1.664866 1.763379 3.555000
v -1.530000 3.980000 3.585000
v -2.770000 3.980000 3.585000
v -1.530000 3.949689 3.567500
v -2.770000 3.949689 3.567500
v -1.530000 3.949689 3.532500
v -2.770000 3.949689 3.532500
v -1.530000 3.980000 3.515000
v -2.770000 3.980000 3.515000
v -1.530000 4.010311 3.532500
v -2.770000 4.010311 3.532500
v -1.530000 4.010311 3.567500
v -2.770000 4.010311 3.567500
vn -0.0000 -0.0000 -1.0000
vn -1.0000 -0.0000 -0.0000
vn -0.0000 1.0000 -0.0000
vn 1.0000 -0.0000 -0.0000
vn -0.0000 -0.0000 1.0000
vn 0.5774 -0.5774 -0.5773
vn 0.5774 0.5774 -0.5773
vn 0.5774 -0.5774 0.5773
vn 0.5774 0.5774 0.5773
vn -0.5774 -0.5774 -0.5773
vn -0.5774 0.5774 -0.5773
vn -0.5774 -0.5774 0.5773
vn -0.5774 0.5774 0.5773
vn 0.7071 -0.7071 -0.0000
vn 0.7071 -0.0000 -0.7071
vn 0.7071 0.7071 -0.0000
vn 0.7071 -0.0000 0.7071
vn -0.0000 -0.7071 0.7071
vn -0.0000 0.7071 0.7071
vn -0.7071 -0.0000 0.7071
vn -0.7071 -0.7071 -0.0000
vn -0.7071 0.7071 -0.0000
vn -0.7071 -0.0000 -0.7071
vn -0.0000 -0.7071 -0.7071
vn -0.0000 0.7071 -0.7071
vn -0.0000 -1.0000 -0.0000
vn 0.5773 -0.5774 -0.5774
vn 0.5773 0.5774 -0.5774
vn 0.5773 -0.5774 0.5774
vn 0.5773 0.5774 0.5774
vn -0.5773 -0.5774 -0.5774
vn -0.5773 0.5774 -0.5774
vn -0.5773 -0.5774 0.5774
vn -0.5773 0.5774 0.5774
vn -0.0000 0.8321 -0.5547
vn -0.6805 0.7328 -0.0000
vn -0.0000 0.8321 0.5547
vn 0.5913 0.6826 -0.4294
vn -0.5913 0.6826 -0.4294
vn -0.5913 0.6826 0.4294
vn 0.5913 0.6826 0.4294
vn 0.2423 0.9702 -0.0000
vn -0.2423 0.9702 -0.0000
vn 0.9308 -0.3655 -0.0000
vn -0.0000 -0.2898 0.9571
vn -0.9308 -0.3655 -0.0000
vn -0.0000 -0.2898 -0.9571
vn 0.3792 0.8721 -0.3091
vn -0.3792 0.8721 -0.3091
vn -0.3792 0.8721 0.3091
vn 0.3792 0.8721 0.3091
vn 0.6805 0.7328 -0.0000
vn -0.4991 0.0598 0.8645
vn -0.9982 0.0598 -0.0000
vn -0.4991 0.0598 -0.8645
vn 0.4991 0.0598 -0.8645
vn 0.9982 0.0598 -0.0000
vn 0.4991 0.0598 0.8645
vn 0.3827 -0.0000 0.9239
vn -0.9239 -0.0000 -0.3827
vn -0.3827 -0.0000 -0.9239
vn 0.3827 -0.0000 -0.9239
vn 0.9239 -0.0000 -0.3827
vn 0.9239 -0.0000 0.3827
vn -0.9239 -0.0000 0.3827
vn -0.3827 -0.0000 0.9239
vn -0.2706 -0.7071 0.6533
vn -0.2706 0.7071 0.6533
vn -0.6533 -0.7071 0.2706
vn -0.6533 0.7071 0.2706
vn -0.6533 -0.7071 -0.2706
vn -0.6533 0.7071 -0.2706
vn -0.2706 -0.7071 -0.6533
vn -0.2706 0.7071 -0.6533
vn 0.2706 -0.7071 -0.6533
vn 0.2706 0.7071 -0.6533
vn 0.6533 -0.7071 -0.2706
vn 0.6533 0.7071 -0.2706
vn 0.6533 -0.7071 0.2706
vn 0.6533 0.7071 0.2706
vn 0.2706 -0.7071 0.6533
vn 0.2706 0.7071 0.6533
vn -0.3368 0.4750 0.8130
vn -0.8130 0.4750 0.3368
vn -0.8130 0.4750 -0.3368
vn -0.3368 0.4750 -0.8130
vn 0.3368 0.4750 -0.8130
vn 0.8130 0.4750 -0.3368
vn 0.8130 0.4750 0.3368
vn 0.3368 0.4750 0.8130
vn -0.9808 0.1951 -0.0000
vn 0.9808 -0.1951 -0.0000
vn -0.8315 0.5556 -0.0000
vn 0.8315 -0.5556 -0.0000
vn -0.5556 0.8315 -0.0000
vn 0.5556 -0.8315 -0.0000
vn -0.1951 0.9808 -0.0000
vn 0.1951 -0.9808 -0.0000
vn 0.1951 0.9808 -0.0000
vn -0.1951 -0.9808 -0.0000
vn 0.5556 0.8315 -0.0000
vn -0.5556 -0.8315 -0.0000
vn 0.8315 0.5556 -0.0000
vn -0.8315 -0.5556 -0.0000
vn 0.9808 0.1951 -0.0000
vn -0.9808 -0.1951 -0.0000
vn -0.5774 -0.5773 -0.5774
vn 0.5774 -0.5773 -0.5774
vn 0.5773 -0.5774 0.5773
vn -0.5773 -0.5774 0.5773
vn -0.6935 0.1380 -0.7071
vn 0.6935 -0.1380 -0.7071
vn 0.6935 -0.1379 0.7071
vn -0.6935 0.1379 0.7071
vn -0.5879 0.3928 -0.7071
vn 0.5879 -0.3928 -0.7071
vn 0.5879 -0.3928 0.7071
vn -0.5879 0.3928 0.7071
vn -0.3928 0.5879 -0.7071
vn 0.3929 -0.5879 -0.7071
vn 0.3928 -0.5879 0.7071
vn -0.3928 0.5879 0.7071
vn -0.1380 0.6935 -0.7071
vn 0.1380 -0.6935 -0.7071
vn 0.1379 -0.6935 0.7071
vn -0.1380 0.6935 0.7071
vn 0.1379 0.6935 -0.7071
vn -0.1380 -0.6935 -0.7071
vn -0.1379 -0.6935 0.7071
vn 0.1380 0.6935 0.7071
vn 0.3928 0.5879 -0.7071
vn -0.3929 -0.5879 -0.7071
vn -0.3928 -0.5879 0.7071
vn 0.3928 0.5879 0.7071
vn 0.5879 0.3928 -0.7071
vn -0.5879 -0.3928 -0.7071
vn -0.5879 -0.3928 0.7071
vn 0.5879 0.3928 0.7071
vn 0.6935 0.1379 -0.7071
vn -0.6935 -0.1380 -0.7071
vn -0.6935 -0.1379 0.7071
vn 0.6935 0.1380 0.7071
vn 0.5773 -0.5774 -0.5773
vn -0.5773 -0.5774 -0.5773
vn -0.6877 0.7260 -0.0000
vn 0.4565 -0.1819 -0.8710
vn -0.4565 -0.1819 -0.8710
vn -0.0000 0.8232 -0.5678
vn 0.4565 -0.1819 0.8710
vn -0.4565 -0.1819 0.8710
vn -0.0000 0.8232 0.5678
vn 0.4863 0.5133 -0.7071
vn -0.4863 0.5133 -0.7071
vn 0.4863 0.5133 0.7071
vn -0.4863 0.5133 0.7071
vn 0.9290 -0.3702 -0.0000
vn -0.9290 -0.3702 -0.0000
vn 0.6877 0.7260 -0.0000
vn 0.5774 0.5773 -0.5774
vn 0.5774 -0.5773 0.5774
vn 0.5774 0.5773 0.5774
vn -0.5774 0.5773 -0.5774
vn -0.5774 -0.5773 0.5774
vn -0.5774 0.5773 0.5774
vn 0.6690 -0.7433 -0.0000
vn -0.6690 -0.7433 -0.0000
vn 0.5773 0.5773 -0.5774
vn -0.5773 0.5773 -0.5774
vn -0.2211 -0.4965 -0.8394
vn -0.0000 -0.8283 0.5603
vn 0.2211 -0.4965 -0.8394
vn 0.5773 0.5773 0.5774
vn -0.5773 0.5773 0.5774
vn -0.2211 -0.4965 0.8394
vn -0.0000 -0.8283 -0.5603
vn 0.2211 -0.4965 0.8394
vn 0.4730 -0.5256 -0.7071
vn -0.4395 -0.5578 0.7040
vn -0.4730 -0.5256 0.7071
vn 0.4395 -0.5578 -0.7040
vn -0.4068 -0.9135 -0.0000
vn 0.4068 -0.9135 -0.0000
vn -0.0000 -0.5000 0.8660
vn -0.0000 -0.5000 -0.8660
vn -0.0000 0.5000 -0.8660
vn -0.0000 0.5000 0.8660
vn -0.0001 1.0000 -0.0000
vn -0.8130 0.4750 0.3367
vn 0.8130 0.4750 -0.3367
vn 0.8130 0.4750 0.3367
vn -0.8130 0.4750 -0.3367
vn -0.6935 0.1379 -0.7071
vn -0.6935 0.1380 0.7071
vn 0.3928 -0.5879 -0.7071
vn -0.1379 0.6935 -0.7071
vn -0.1379 0.6935 0.7071
vn 0.1380 0.6935 -0.7071
vn 0.1379 0.6935 0.7071
vn -0.3928 -0.5879 -0.7071
vn 0.6935 0.1380 -0.7071
vn 0.6935 0.1379 0.7071
vn 0.4395 -0.5578 0.7040
vn -0.4730 -0.5256 -0.7071
vn -0.4395 -0.5578 -0.7040
vn 0.4730 -0.5256 0.7071
vt 0.00000 0.00076
vt 0.00000 0.25323
vt 0.00000 0.26529
vt 0.00000 0.51775
vt 0.00000 0.52981
vt 0.00000 0.71624
vt 0.00000 0.72869
vt 0.00000 0.85397
vt 0.00000 0.87669
vt 0.00000 0.88951
vt 0.00000 0.90233
vt 0.00000 0.92505
vt 0.00000 0.96277
vt 0.00017 0.94391
vt 0.00076 0.00000
vt 0.00076 0.00076
vt 0.00076 0.25323
vt 0.00076 0.25399
vt 0.00076 0.52905
vt 0.00076 0.52981
vt 0.00076 0.71624
vt 0.00076 0.71700
vt 0.00076 0.86526
vt 0.00076 0.87639
vt 0.00076 0.88951
vt 0.00076 0.90263
vt 0.00076 0.91376
vt 0.00610 0.92505
vt 0.00610 0.96277
vt 0.00626 0.94391
vt 0.01194 0.86526
vt 0.01194 0.87639
vt 0.01194 0.88951
vt 0.01194 0.90263
vt 0.01194 0.91376
vt 0.01271 0.87669
vt 0.01271 0.88951
vt 0.01271 0.90233
vt 0.01707 0.72830
vt 0.01707 0.85357
vt 0.02401 0.86526
vt 0.02401 0.90298
vt 0.02445 0.88412
vt 0.02523 0.94369
vt 0.02523 0.96216
vt 0.02600 0.94400
vt 0.02600 0.96184
vt 0.03010 0.86526
vt 0.03010 0.90298
vt 0.03054 0.88412
vt 0.03414 0.72869
vt 0.03414 0.85397
vt 0.03830 0.93063
vt 0.03830 0.97522
vt 0.03861 0.93139
vt 0.03861 0.97445
vt 0.04545 0.72845
vt 0.04545 0.85389
vt 0.04545 0.86519
vt 0.04545 0.91933
vt 0.05646 0.93139
vt 0.05646 0.97445
vt 0.05678 0.93063
vt 0.05678 0.97522
vt 0.05764 0.90974
vt 0.06252 0.72830
vt 0.06252 0.85374
vt 0.06908 0.94400
vt 0.06908 0.96184
vt 0.06984 0.86519
vt 0.06984 0.91933
vt 0.06984 0.94369
vt 0.06984 0.96216
vt 0.07959 0.72845
vt 0.07959 0.85389
vt 0.08115 0.87962
vt 0.08115 0.90003
vt 0.08115 0.97285
vt 0.08191 0.87994
vt 0.08191 0.89972
vt 0.09089 0.72845
vt 0.09089 0.85389
vt 0.09559 0.86519
vt 0.09559 0.91447
vt 0.09590 0.86595
vt 0.09590 0.91370
vt 0.10109 0.92578
vt 0.10181 0.92576
vt 0.10181 0.97237
vt 0.10253 0.92578
vt 0.10796 0.72830
vt 0.10796 0.85374
vt 0.11569 0.86595
vt 0.11569 0.91370
vt 0.11601 0.86519
vt 0.11601 0.91447
vt 0.12248 0.97285
vt 0.12503 0.72845
vt 0.12503 0.85389
vt 0.12969 0.87994
vt 0.12969 0.89972
vt 0.13045 0.87962
vt 0.13045 0.90003
vt 0.13634 0.72845
vt 0.13634 0.85389
vt 0.14175 0.86595
vt 0.14175 0.91268
vt 0.14175 0.97183
vt 0.15341 0.72830
vt 0.15341 0.85374
vt 0.16170 0.92476
vt 0.16242 0.92475
vt 0.16242 0.97135
vt 0.16314 0.92476
vt 0.17048 0.72845
vt 0.17048 0.85389
vt 0.17575 0.86595
vt 0.17575 0.91268
vt 0.17580 0.86519
vt 0.17580 0.91345
vt 0.17656 0.86595
vt 0.17656 0.91268
vt 0.18178 0.72906
vt 0.18178 0.77579
vt 0.18178 0.78785
vt 0.18178 0.83459
vt 0.18255 0.72830
vt 0.18255 0.72906
vt 0.18255 0.77579
vt 0.18255 0.77656
vt 0.18308 0.97183
vt 0.18331 0.78785
vt 0.18331 0.83459
vt 0.18407 0.72830
vt 0.18407 0.72906
vt 0.18407 0.77579
vt 0.18407 0.77656
vt 0.18483 0.72906
vt 0.18483 0.77579
vt 0.18729 0.52905
vt 0.18729 0.52981
vt 0.18729 0.71624
vt 0.18729 0.71700
vt 0.18805 0.52981
vt 0.18805 0.71624
vt 0.19935 0.52944
vt 0.19935 0.65472
vt 0.19935 0.66641
vt 0.19935 0.79168
vt 0.19935 0.80313
vt 0.19935 0.92858
vt 0.19935 0.95293
vt 0.19935 0.97140
vt 0.20012 0.95325
vt 0.20012 0.97108
vt 0.21242 0.93987
vt 0.21242 0.98446
vt 0.21274 0.94064
vt 0.21274 0.98370
vt 0.21643 0.52905
vt 0.21643 0.65432
vt 0.21643 0.66602
vt 0.21643 0.79129
vt 0.21643 0.80298
vt 0.21643 0.92842
vt 0.23058 0.94064
vt 0.23058 0.98370
vt 0.23090 0.93987
vt 0.23090 0.98446
vt 0.23350 0.52944
vt 0.23350 0.65472
vt 0.23350 0.66641
vt 0.23350 0.79168
vt 0.23350 0.80313
vt 0.23350 0.92858
vt 0.24320 0.95325
vt 0.24320 0.97108
vt 0.24396 0.95293
vt 0.24396 0.97140
vt 0.24480 0.52981
vt 0.24480 0.59432
vt 0.24480 0.60715
vt 0.24480 0.67166
vt 0.24480 0.68373
vt 0.24480 0.73795
vt 0.24480 0.77363
vt 0.24480 0.80868
vt 0.24480 0.84640
vt 0.24480 0.85770
vt 0.24480 0.89541
vt 0.24524 0.82754
vt 0.24524 0.87656
vt 0.24531 0.68372
vt 0.24531 0.73857
vt 0.24531 0.74987
vt 0.24531 0.77326
vt 0.24531 0.77399
vt 0.24531 0.79739
vt 0.24556 0.68372
vt 0.24556 0.73857
vt 0.24607 0.68373
vt 0.24607 0.73795
vt 0.24734 0.74987
vt 0.24734 0.77326
vt 0.24734 0.77399
vt 0.24734 0.79739
vt 0.24785 0.77363
vt 0.24835 0.52981
vt 0.24835 0.59432
vt 0.24835 0.60715
vt 0.24835 0.67166
vt 0.24840 0.52905
vt 0.24840 0.59508
vt 0.24840 0.60638
vt 0.24840 0.67242
vt 0.24916 0.52981
vt 0.24916 0.59432
vt 0.24916 0.60715
vt 0.24916 0.67166
vt 0.25089 0.80868
vt 0.25089 0.84640
vt 0.25089 0.85770
vt 0.25089 0.89541
vt 0.25133 0.82754
vt 0.25133 0.87656
vt 0.25260 0.26529
vt 0.25260 0.51775
vt 0.25336 0.00000
vt 0.25336 0.00076
vt 0.25336 0.25323
vt 0.25336 0.25399
vt 0.25412 0.00076
vt 0.25412 0.25323
vt 0.26543 0.00076
vt 0.26543 0.25323
vt 0.26543 0.26605
vt 0.26543 0.49311
vt 0.26543 0.50596
vt 0.26543 0.70138
vt 0.26543 0.71386
vt 0.26543 0.83913
vt 0.26543 0.88394
vt 0.26543 0.91868
vt 0.26543 0.94380
vt 0.26543 0.96226
vt 0.26555 0.50538
vt 0.26555 0.70196
vt 0.26619 0.26529
vt 0.26619 0.26605
vt 0.26619 0.49311
vt 0.26619 0.49388
vt 0.26619 0.88397
vt 0.26619 0.91863
vt 0.26619 0.91944
vt 0.26619 0.94411
vt 0.26619 0.96195
vt 0.26666 0.50517
vt 0.26666 0.70217
vt 0.26804 0.87083
vt 0.26876 0.87109
vt 0.27483 0.88382
vt 0.27483 0.91863
vt 0.27483 0.91944
vt 0.27532 0.00076
vt 0.27532 0.25323
vt 0.27536 0.00000
vt 0.27536 0.25399
vt 0.27547 0.85973
vt 0.27559 0.88394
vt 0.27559 0.91868
vt 0.27602 0.86023
vt 0.27613 0.00076
vt 0.27613 0.25323
vt 0.27671 0.87438
vt 0.27743 0.87472
vt 0.27849 0.93074
vt 0.27849 0.97532
vt 0.27881 0.93150
vt 0.27881 0.97456
vt 0.28211 0.86631
vt 0.28250 0.71347
vt 0.28250 0.83874
vt 0.28266 0.86690
vt 0.28660 0.85231
vt 0.28690 0.85298
vt 0.28743 0.00076
vt 0.28743 0.25323
vt 0.29020 0.86092
vt 0.29049 0.86168
vt 0.29665 0.93150
vt 0.29665 0.97456
vt 0.29697 0.93074
vt 0.29697 0.97532
vt 0.29733 0.00076
vt 0.29733 0.25323
vt 0.29737 0.00000
vt 0.29737 0.25399
vt 0.29813 0.00076
vt 0.29813 0.25323
vt 0.29957 0.71386
vt 0.29957 0.83913
vt 0.29973 0.85043
vt 0.29973 0.85903
vt 0.29973 0.85984
vt 0.30897 0.86168
vt 0.30927 0.86092
vt 0.30927 0.94411
vt 0.30927 0.96195
vt 0.30943 0.00076
vt 0.30943 0.25323
vt 0.30945 0.00000
vt 0.30945 0.25399
vt 0.31003 0.94380
vt 0.31003 0.96226
vt 0.31087 0.71386
vt 0.31087 0.83913
vt 0.31256 0.85298
vt 0.31286 0.85231
vt 0.31680 0.86690
vt 0.31735 0.86631
vt 0.31934 0.00076
vt 0.31934 0.25323
vt 0.31936 0.00000
vt 0.31936 0.25399
vt 0.32012 0.00076
vt 0.32012 0.25323
vt 0.32134 0.93074
vt 0.32134 0.96845
vt 0.32150 0.94959
vt 0.32204 0.87472
vt 0.32275 0.87438
vt 0.32344 0.86023
vt 0.32387 0.88394
vt 0.32387 0.91868
vt 0.32399 0.85973
vt 0.32464 0.88382
vt 0.32464 0.91863
vt 0.32464 0.91944
vt 0.32744 0.93074
vt 0.32744 0.96845
vt 0.32760 0.94959
vt 0.32794 0.71347
vt 0.32794 0.83874
vt 0.33071 0.87109
vt 0.33143 0.00076
vt 0.33143 0.25323
vt 0.33143 0.87083
vt 0.33144 0.00000
vt 0.33144 0.25399
vt 0.33328 0.88397
vt 0.33328 0.91863
vt 0.33328 0.91944
vt 0.33404 0.88394
vt 0.33404 0.91868
vt 0.34133 0.00076
vt 0.34133 0.25323
vt 0.34135 0.00000
vt 0.34135 0.25399
vt 0.34211 0.00076
vt 0.34211 0.25323
vt 0.34501 0.71386
vt 0.34501 0.83913
vt 0.34534 0.86624
vt 0.34534 0.88860
vt 0.34534 0.96279
vt 0.35342 0.00000
vt 0.35342 0.22706
vt 0.35342 0.23913
vt 0.35342 0.25030
vt 0.35343 0.23836
vt 0.35343 0.25106
vt 0.35632 0.71386
vt 0.35632 0.83913
vt 0.35697 0.23913
vt 0.35697 0.25030
vt 0.35699 0.23836
vt 0.35699 0.25106
vt 0.35775 0.23913
vt 0.35775 0.25030
vt 0.36116 0.85043
vt 0.36116 0.90440
vt 0.36327 0.57616
vt 0.36327 0.63118
vt 0.36390 0.57495
vt 0.36390 0.63239
vt 0.36453 0.57616
vt 0.36453 0.63118
vt 0.36529 0.91572
vt 0.36601 0.91570
vt 0.36601 0.96231
vt 0.36673 0.91572
vt 0.36906 0.23913
vt 0.36906 0.25030
vt 0.36907 0.23836
vt 0.36907 0.25106
vt 0.37261 0.23913
vt 0.37261 0.25030
vt 0.37263 0.23836
vt 0.37263 0.25106
vt 0.37339 0.23913
vt 0.37339 0.25030
vt 0.37339 0.71347
vt 0.37339 0.83874
vt 0.38353 0.85043
vt 0.38353 0.90440
vt 0.38470 0.23836
vt 0.38470 0.24954
vt 0.38667 0.96279
vt 0.39046 0.71386
vt 0.39046 0.83913
vt 0.39334 0.23836
vt 0.39334 0.24954
vt 0.39798 0.91570
vt 0.39798 0.94720
vt 0.39887 0.91570
vt 0.39887 0.94720
vt 0.39934 0.86624
vt 0.39934 0.88860
vt 0.40176 0.71386
vt 0.40176 0.83913
vt 0.40464 0.23836
vt 0.40464 0.24954
vt 0.41065 0.85043
vt 0.41065 0.90458
vt 0.41065 0.96296
vt 0.41328 0.23836
vt 0.41328 0.24954
vt 0.41883 0.71347
vt 0.41883 0.83874
vt 0.42284 0.89499
vt 0.42458 0.23989
vt 0.42458 0.24294
vt 0.42723 0.23836
vt 0.42723 0.24446
vt 0.42987 0.23989
vt 0.42987 0.24294
vt 0.43059 0.91589
vt 0.43131 0.91588
vt 0.43131 0.96248
vt 0.43203 0.91589
vt 0.43504 0.85043
vt 0.43504 0.90458
vt 0.43590 0.71386
vt 0.43590 0.83913
vt 0.44117 0.23836
vt 0.44117 0.24039
vt 0.44117 0.25169
vt 0.44117 0.25373
vt 0.44152 0.23836
vt 0.44152 0.24039
vt 0.44152 0.25169
vt 0.44152 0.25373
vt 0.44721 0.71348
vt 0.44721 0.76769
vt 0.44721 0.79676
vt 0.44721 0.83163
vt 0.44721 0.86084
vt 0.44721 0.89570
vt 0.44772 0.71347
vt 0.44772 0.76831
vt 0.44797 0.71347
vt 0.44797 0.76831
vt 0.44797 0.77961
vt 0.44797 0.78755
vt 0.44797 0.79682
vt 0.44797 0.83161
vt 0.44797 0.83239
vt 0.44797 0.84369
vt 0.44797 0.85162
vt 0.44797 0.86090
vt 0.44797 0.89568
vt 0.44797 0.89646
vt 0.44848 0.71348
vt 0.44848 0.76769
vt 0.45198 0.96296
vt 0.45283 0.23891
vt 0.45283 0.23969
vt 0.45283 0.25209
vt 0.45283 0.25287
vt 0.45338 0.23836
vt 0.45338 0.24024
vt 0.45338 0.25154
vt 0.45338 0.25342
vt 0.45416 0.23836
vt 0.45416 0.24024
vt 0.45416 0.25154
vt 0.45416 0.25342
vt 0.45471 0.23891
vt 0.45471 0.23969
vt 0.45471 0.25209
vt 0.45471 0.25287
vt 0.45915 0.77961
vt 0.45915 0.78755
vt 0.45915 0.79682
vt 0.45915 0.83161
vt 0.45915 0.83239
vt 0.45915 0.84369
vt 0.45915 0.85162
vt 0.45915 0.86090
vt 0.45915 0.89568
vt 0.45915 0.89646
vt 0.45978 0.71348
vt 0.45978 0.76769
vt 0.45992 0.79676
vt 0.45992 0.83163
vt 0.45992 0.86084
vt 0.45992 0.89570
vt 0.46029 0.71347
vt 0.46029 0.76831
vt 0.46055 0.71347
vt 0.46055 0.76831
vt 0.46105 0.71348
vt 0.46105 0.76769
vt 0.46114 0.50517
vt 0.46114 0.70217
vt 0.46224 0.50538
vt 0.46224 0.70196
vt 0.46237 0.50596
vt 0.46237 0.70138
vt 0.46601 0.23891
vt 0.46601 0.23969
vt 0.46601 0.25209
vt 0.46601 0.25287
vt 0.46656 0.23836
vt 0.46656 0.24024
vt 0.46656 0.25154
vt 0.46656 0.25342
vt 0.46734 0.23836
vt 0.46734 0.24024
vt 0.46734 0.25154
vt 0.46734 0.25342
vt 0.46789 0.23891
vt 0.46789 0.23969
vt 0.46789 0.25209
vt 0.46789 0.25287
vt 0.47368 0.50517
vt 0.47368 0.70176
vt 0.47368 0.71382
vt 0.47368 0.89009
vt 0.47368 0.91658
vt 0.47368 0.93699
vt 0.47444 0.91690
vt 0.47444 0.93668
vt 0.47919 0.23881
vt 0.47919 0.23970
vt 0.47919 0.25188
vt 0.47919 0.25277
vt 0.47996 0.23836
vt 0.47996 0.24014
vt 0.47996 0.25144
vt 0.47996 0.25322
vt 0.48073 0.23881
vt 0.48073 0.23970
vt 0.48073 0.25189
vt 0.48073 0.25277
vt 0.48812 0.90215
vt 0.48812 0.95143
vt 0.48843 0.90291
vt 0.48843 0.95066
vt 0.49204 0.23881
vt 0.49204 0.23970
vt 0.49204 0.25189
vt 0.49204 0.25277
vt 0.49281 0.23836
vt 0.49281 0.24014
vt 0.49281 0.25144
vt 0.49281 0.25322
vt 0.49337 0.26529
vt 0.49337 0.26605
vt 0.49337 0.49311
vt 0.49337 0.49388
vt 0.49358 0.23881
vt 0.49358 0.23970
vt 0.49358 0.25188
vt 0.49358 0.25277
vt 0.49413 0.26605
vt 0.49413 0.49311
vt 0.50488 0.23874
vt 0.50488 0.23951
vt 0.50488 0.25144
vt 0.50488 0.25228
vt 0.50528 0.25217
vt 0.50544 0.26605
vt 0.50544 0.49311
vt 0.50554 0.23836
vt 0.50554 0.23989
vt 0.50620 0.23874
vt 0.50620 0.23951
vt 0.50822 0.90291
vt 0.50822 0.95066
vt 0.50854 0.90215
vt 0.50854 0.95143
vt 0.51407 0.26605
vt 0.51407 0.49311
vt 0.51411 0.26529
vt 0.51411 0.49388
vt 0.51487 0.26605
vt 0.51487 0.49311
vt 0.51659 0.25217
vt 0.51699 0.25144
vt 0.51699 0.25228
vt 0.51751 0.23910
vt 0.51791 0.23836
vt 0.51791 0.23920
vt 0.52222 0.91690
vt 0.52222 0.93668
vt 0.52298 0.91658
vt 0.52298 0.93699
vt 0.52617 0.26605
vt 0.52617 0.49311
vt 0.52829 0.25144
vt 0.52829 0.25227
vt 0.52869 0.25218
vt 0.52921 0.23917
vt 0.52943 0.23836
vt 0.52963 0.23917
vt 0.53428 0.94998
vt 0.53480 0.26605
vt 0.53480 0.49311
vt 0.53484 0.26529
vt 0.53484 0.49388
vt 0.53560 0.26605
vt 0.53560 0.49311
vt 0.54000 0.25225
vt 0.54022 0.25144
vt 0.54041 0.25225
vt 0.54093 0.23917
vt 0.54113 0.23836
vt 0.54135 0.23917
vt 0.54691 0.26605
vt 0.54691 0.49311
vt 0.54693 0.26529
vt 0.54693 0.49388
vt 0.55172 0.25225
vt 0.55191 0.25144
vt 0.55213 0.25225
vt 0.55423 0.90216
vt 0.55495 0.90215
vt 0.55495 0.94979
vt 0.55555 0.26605
vt 0.55555 0.49311
vt 0.55556 0.26529
vt 0.55556 0.49388
vt 0.55567 0.90216
vt 0.55633 0.26605
vt 0.55633 0.49311
vt 0.55842 0.71382
vt 0.55842 0.89009
vt 0.55846 0.71306
vt 0.55846 0.89085
vt 0.55922 0.71382
vt 0.55922 0.89009
vt 0.56763 0.26605
vt 0.56763 0.49311
vt 0.56765 0.26529
vt 0.56765 0.49388
vt 0.57053 0.71382
vt 0.57053 0.89009
vt 0.57561 0.94998
vt 0.57627 0.26605
vt 0.57627 0.49311
vt 0.57629 0.26529
vt 0.57629 0.49388
vt 0.57705 0.26605
vt 0.57705 0.49311
vt 0.58060 0.00000
vt 0.58060 0.22706
vt 0.58692 0.94998
vt 0.58835 0.26639
vt 0.58835 0.46077
vt 0.58888 0.26529
vt 0.58888 0.46187
vt 0.59191 0.00111
vt 0.59191 0.19548
vt 0.59191 0.20788
vt 0.59191 0.24560
vt 0.59234 0.22674
vt 0.59243 0.00000
vt 0.59243 0.19659
vt 0.59799 0.20788
vt 0.59799 0.24560
vt 0.59843 0.22674
vt 0.60018 0.26587
vt 0.60018 0.46129
vt 0.60061 0.26529
vt 0.60061 0.46187
vt 0.60373 0.00058
vt 0.60373 0.19601
vt 0.60416 0.00000
vt 0.60416 0.19659
vt 0.60686 0.90216
vt 0.60758 0.90215
vt 0.60758 0.94979
vt 0.60830 0.90216
vt 0.61191 0.26529
vt 0.61191 0.45171
vt 0.61191 0.46352
vt 0.61191 0.47571
vt 0.61191 0.48790
vt 0.61242 0.46301
vt 0.61242 0.46339
vt 0.61242 0.47533
vt 0.61242 0.47609
vt 0.61242 0.48803
vt 0.61242 0.48841
vt 0.61268 0.46301
vt 0.61268 0.46339
vt 0.61268 0.47533
vt 0.61268 0.47609
vt 0.61268 0.48803
vt 0.61268 0.48841
vt 0.61318 0.46352
vt 0.61318 0.47571
vt 0.61318 0.48790
vt 0.61547 0.00076
vt 0.61547 0.18719
vt 0.61547 0.21506
vt 0.61547 0.23741
vt 0.62054 0.00076
vt 0.62054 0.18719
vt 0.62058 0.00000
vt 0.62058 0.18795
vt 0.62135 0.00076
vt 0.62135 0.18719
vt 0.62449 0.46352
vt 0.62449 0.48790
vt 0.62500 0.46301
vt 0.62500 0.46352
vt 0.62500 0.48790
vt 0.62500 0.48841
vt 0.62525 0.46301
vt 0.62525 0.46352
vt 0.62525 0.48790
vt 0.62525 0.48841
vt 0.62576 0.46352
vt 0.62576 0.48790
vt 0.62825 0.94998
vt 0.63128 0.19925
vt 0.63128 0.25322
vt 0.63265 0.00076
vt 0.63265 0.18719
vt 0.63706 0.46352
vt 0.63706 0.48790
vt 0.63757 0.46301
vt 0.63757 0.46352
vt 0.63757 0.48790
vt 0.63757 0.48841
vt 0.63772 0.00076
vt 0.63772 0.18719
vt 0.63777 0.00000
vt 0.63777 0.18795
vt 0.63783 0.46301
vt 0.63783 0.46352
vt 0.63783 0.48790
vt 0.63783 0.48841
vt 0.63833 0.46352
vt 0.63833 0.48790
vt 0.63853 0.00076
vt 0.63853 0.18719
vt 0.63955 0.92554
vt 0.63955 0.92628
vt 0.63987 0.92591
vt 0.64964 0.46352
vt 0.64964 0.47571
vt 0.64964 0.48790
vt 0.64983 0.00076
vt 0.64983 0.18719
vt 0.64985 0.00000
vt 0.64985 0.18795
vt 0.65015 0.46301
vt 0.65015 0.46339
vt 0.65015 0.47533
vt 0.65015 0.47609
vt 0.65015 0.48803
vt 0.65015 0.48841
vt 0.65040 0.46301
vt 0.65040 0.46339
vt 0.65040 0.47533
vt 0.65040 0.47609
vt 0.65040 0.48803
vt 0.65040 0.48841
vt 0.65091 0.46352
vt 0.65091 0.47571
vt 0.65091 0.48790
vt 0.65365 0.19925
vt 0.65365 0.25322
vt 0.65491 0.00076
vt 0.65491 0.18719
vt 0.65493 0.00000
vt 0.65493 0.18795
vt 0.65527 0.71382
vt 0.65527 0.89009
vt 0.65531 0.71306
vt 0.65531 0.89085
vt 0.65569 0.00076
vt 0.65569 0.18719
vt 0.65608 0.71382
vt 0.65608 0.89009
vt 0.66150 0.90306
vt 0.66150 0.94876
vt 0.66169 0.90215
vt 0.66169 0.94967
vt 0.66204 0.90229
vt 0.66204 0.94953
vt 0.66700 0.00076
vt 0.66700 0.18719
vt 0.66701 0.00000
vt 0.66701 0.18795
vt 0.66738 0.71307
vt 0.66738 0.76729
vt 0.66738 0.77921
vt 0.66738 0.82645
vt 0.66738 0.83775
vt 0.66738 0.86924
vt 0.66789 0.71306
vt 0.66789 0.76791
vt 0.66812 0.83775
vt 0.66812 0.86924
vt 0.66814 0.71306
vt 0.66814 0.76791
vt 0.66865 0.71307
vt 0.66865 0.76729
vt 0.66892 0.83775
vt 0.66892 0.86924
vt 0.66941 0.77921
vt 0.66941 0.82645
vt 0.66946 0.21506
vt 0.66946 0.23741
vt 0.67037 0.50517
vt 0.67037 0.70176
vt 0.67208 0.00076
vt 0.67208 0.18719
vt 0.67209 0.00000
vt 0.67209 0.18795
vt 0.67286 0.00076
vt 0.67286 0.18719
vt 0.68167 0.50594
vt 0.68167 0.68220
vt 0.68167 0.69503
vt 0.68167 0.87129
vt 0.68167 0.89779
vt 0.68167 0.91820
vt 0.68167 0.95699
vt 0.68167 0.97545
vt 0.68243 0.50517
vt 0.68243 0.50594
vt 0.68243 0.68220
vt 0.68243 0.68297
vt 0.68243 0.69426
vt 0.68243 0.87206
vt 0.68243 0.89810
vt 0.68243 0.91788
vt 0.68243 0.95730
vt 0.68243 0.97514
vt 0.68245 0.69503
vt 0.68245 0.87129
vt 0.68416 0.00000
vt 0.68416 0.17627
vt 0.68416 0.18833
vt 0.68416 0.25284
vt 0.68492 0.18757
vt 0.68492 0.18833
vt 0.68492 0.25284
vt 0.68492 0.25360
vt 0.69474 0.94393
vt 0.69474 0.98851
vt 0.69505 0.94469
vt 0.69505 0.98775
vt 0.69610 0.18757
vt 0.69610 0.18833
vt 0.69610 0.25284
vt 0.69610 0.25360
vt 0.69611 0.88335
vt 0.69611 0.93263
vt 0.69643 0.88412
vt 0.69643 0.93187
vt 0.69687 0.18833
vt 0.69687 0.25284
vt 0.70817 0.18757
vt 0.70817 0.25208
vt 0.71290 0.94469
vt 0.71290 0.98775
vt 0.71321 0.94393
vt 0.71321 0.98851
vt 0.71622 0.88412
vt 0.71622 0.93187
vt 0.71653 0.88335
vt 0.71653 0.93263
vt 0.71935 0.18757
vt 0.71935 0.25208
vt 0.72552 0.95730
vt 0.72552 0.97514
vt 0.72628 0.95699
vt 0.72628 0.97545
vt 0.73021 0.89810
vt 0.73021 0.91788
vt 0.73066 0.21168
vt 0.73066 0.24640
vt 0.73097 0.89779
vt 0.73097 0.91820
vt 0.73142 0.18757
vt 0.73142 0.19853
vt 0.73142 0.21159
vt 0.73142 0.24638
vt 0.73142 0.24716
vt 0.73758 0.95699
vt 0.73758 0.97545
vt 0.73835 0.95730
vt 0.73835 0.97514
vt 0.74228 0.89779
vt 0.74228 0.91820
vt 0.74260 0.18757
vt 0.74260 0.19853
vt 0.74260 0.21159
vt 0.74260 0.24638
vt 0.74260 0.24716
vt 0.74304 0.89810
vt 0.74304 0.91788
vt 0.74336 0.21168
vt 0.74336 0.24640
vt 0.75065 0.94393
vt 0.75065 0.98851
vt 0.75096 0.94469
vt 0.75096 0.98775
vt 0.75467 0.21168
vt 0.75467 0.24640
vt 0.75543 0.18757
vt 0.75543 0.19853
vt 0.75543 0.21159
vt 0.75543 0.24638
vt 0.75543 0.24716
vt 0.75672 0.88335
vt 0.75672 0.93263
vt 0.75704 0.88412
vt 0.75704 0.93187
vt 0.76661 0.18757
vt 0.76661 0.19853
vt 0.76661 0.21159
vt 0.76661 0.24638
vt 0.76661 0.24716
vt 0.76729 0.69426
vt 0.76729 0.87206
vt 0.76731 0.69503
vt 0.76731 0.87129
vt 0.76737 0.21168
vt 0.76737 0.24640
vt 0.76881 0.94469
vt 0.76881 0.98775
vt 0.76913 0.94393
vt 0.76913 0.98851
vt 0.77683 0.88412
vt 0.77683 0.93187
vt 0.77714 0.88335
vt 0.77714 0.93263
vt 0.77861 0.69503
vt 0.77861 0.87129
vt 0.77868 0.20337
vt 0.77868 0.22573
vt 0.77937 0.69426
vt 0.77937 0.87206
vt 0.77939 0.69503
vt 0.77939 0.87129
vt 0.78143 0.95730
vt 0.78143 0.97514
vt 0.78219 0.95699
vt 0.78219 0.97545
vt 0.79082 0.89810
vt 0.79082 0.91788
vt 0.79158 0.89779
vt 0.79158 0.91820
vt 0.79350 0.95699
vt 0.79350 0.97545
vt 0.79426 0.95730
vt 0.79426 0.97514
vt 0.79449 0.18757
vt 0.79449 0.24154
vt 0.79844 0.26529
vt 0.79844 0.45171
vt 0.80289 0.89779
vt 0.80289 0.91820
vt 0.80365 0.89810
vt 0.80365 0.91788
vt 0.80656 0.94393
vt 0.80656 0.98851
vt 0.80688 0.94469
vt 0.80688 0.98775
vt 0.80974 0.26568
vt 0.80974 0.39095
vt 0.80974 0.43576
vt 0.80974 0.47050
vt 0.81051 0.43579
vt 0.81051 0.47046
vt 0.81051 0.47126
vt 0.81236 0.42265
vt 0.81307 0.42291
vt 0.81686 0.18757
vt 0.81686 0.24154
vt 0.81733 0.88335
vt 0.81733 0.93263
vt 0.81764 0.88412
vt 0.81764 0.93187
vt 0.81915 0.43564
vt 0.81915 0.47046
vt 0.81915 0.47126
vt 0.81979 0.41155
vt 0.81991 0.43576
vt 0.81991 0.47050
vt 0.82034 0.41205
vt 0.82103 0.42620
vt 0.82175 0.42654
vt 0.82472 0.94469
vt 0.82472 0.98775
vt 0.82504 0.94393
vt 0.82504 0.98851
vt 0.82643 0.41813
vt 0.82681 0.26529
vt 0.82681 0.39056
vt 0.82698 0.41872
vt 0.83092 0.40413
vt 0.83122 0.40480
vt 0.83268 0.20337
vt 0.83268 0.22573
vt 0.83451 0.41274
vt 0.83481 0.41350
vt 0.83734 0.95730
vt 0.83734 0.97514
vt 0.83743 0.88412
vt 0.83743 0.93187
vt 0.83775 0.88335
vt 0.83775 0.93263
vt 0.83810 0.95699
vt 0.83810 0.97545
vt 0.84388 0.26568
vt 0.84388 0.39095
vt 0.84398 0.20337
vt 0.84398 0.22573
vt 0.84405 0.40225
vt 0.84405 0.41085
vt 0.84405 0.41166
vt 0.84941 0.94393
vt 0.84941 0.95176
vt 0.84941 0.96099
vt 0.84941 0.97023
vt 0.84941 0.97805
vt 0.85143 0.89810
vt 0.85143 0.91788
vt 0.85219 0.89779
vt 0.85219 0.91820
vt 0.85329 0.41350
vt 0.85359 0.41274
vt 0.85519 0.26544
vt 0.85519 0.39088
vt 0.85688 0.40480
vt 0.85718 0.40413
vt 0.85879 0.50517
vt 0.85879 0.50594
vt 0.85879 0.68220
vt 0.85879 0.68297
vt 0.85956 0.50594
vt 0.85956 0.68220
vt 0.85980 0.18757
vt 0.85980 0.24154
vt 0.86052 0.00000
vt 0.86052 0.17627
vt 0.86059 0.94393
vt 0.86059 0.95176
vt 0.86059 0.96099
vt 0.86059 0.97023
vt 0.86059 0.97805
vt 0.86112 0.41872
vt 0.86167 0.41813
vt 0.86423 0.69426
vt 0.86423 0.87206
vt 0.86425 0.69503
vt 0.86425 0.87129
vt 0.86635 0.42654
vt 0.86707 0.42620
vt 0.86776 0.41205
vt 0.86819 0.43576
vt 0.86819 0.47050
vt 0.86831 0.41155
vt 0.86895 0.43564
vt 0.86895 0.47046
vt 0.86895 0.47126
vt 0.87086 0.50533
vt 0.87086 0.63077
vt 0.87086 0.64206
vt 0.87086 0.67978
vt 0.87130 0.66092
vt 0.87182 0.00015
vt 0.87182 0.12559
vt 0.87182 0.13689
vt 0.87182 0.17461
vt 0.87226 0.15575
vt 0.87226 0.26529
vt 0.87226 0.39073
vt 0.87503 0.42291
vt 0.87555 0.69442
vt 0.87555 0.81986
vt 0.87555 0.83115
vt 0.87555 0.88530
vt 0.87555 0.91103
vt 0.87555 0.93144
vt 0.87574 0.42265
vt 0.87631 0.91135
vt 0.87631 0.93113
vt 0.87695 0.64206
vt 0.87695 0.67978
vt 0.87739 0.66092
vt 0.87759 0.43579
vt 0.87759 0.47046
vt 0.87759 0.47126
vt 0.87792 0.13689
vt 0.87792 0.17461
vt 0.87835 0.15575
vt 0.87836 0.43576
vt 0.87836 0.47050
vt 0.88216 0.18757
vt 0.88216 0.24154
vt 0.88775 0.87571
vt 0.88793 0.50517
vt 0.88793 0.63062
vt 0.88869 0.64206
vt 0.88869 0.67978
vt 0.88890 0.00000
vt 0.88890 0.12544
vt 0.88913 0.66092
vt 0.88933 0.26544
vt 0.88933 0.39088
vt 0.88966 0.13689
vt 0.88966 0.17461
vt 0.88966 0.40225
vt 0.88966 0.45640
vt 0.88999 0.89660
vt 0.88999 0.94588
vt 0.89009 0.15575
vt 0.89031 0.89736
vt 0.89031 0.94511
vt 0.89262 0.69426
vt 0.89262 0.81971
vt 0.89478 0.64206
vt 0.89478 0.67978
vt 0.89522 0.66092
vt 0.89575 0.13689
vt 0.89575 0.17461
vt 0.89618 0.15575
vt 0.89798 0.20337
vt 0.89798 0.22573
vt 0.89995 0.83115
vt 0.89995 0.88530
vt 0.90063 0.27972
vt 0.90063 0.30013
vt 0.90063 0.34030
vt 0.90063 0.36071
vt 0.90140 0.28003
vt 0.90140 0.29981
vt 0.90140 0.34061
vt 0.90140 0.36039
vt 0.90186 0.44681
vt 0.90500 0.50533
vt 0.90500 0.63077
vt 0.90597 0.00015
vt 0.90597 0.12559
vt 0.90929 0.18833
vt 0.90929 0.23506
vt 0.90969 0.69442
vt 0.90969 0.81986
vt 0.91010 0.89736
vt 0.91010 0.94511
vt 0.91041 0.89660
vt 0.91041 0.94588
vt 0.91125 0.87898
vt 0.91406 0.40225
vt 0.91406 0.45640
vt 0.91507 0.26529
vt 0.91507 0.31456
vt 0.91507 0.32586
vt 0.91507 0.37514
vt 0.91539 0.26605
vt 0.91539 0.31380
vt 0.91539 0.32662
vt 0.91539 0.37438
vt 0.91631 0.55300
vt 0.91631 0.61213
vt 0.91631 0.67125
vt 0.91727 0.04783
vt 0.91727 0.10695
vt 0.91727 0.16534
vt 0.92100 0.74135
vt 0.92100 0.79973
vt 0.92409 0.91135
vt 0.92409 0.93113
vt 0.92485 0.91103
vt 0.92485 0.93144
vt 0.92536 0.44934
vt 0.92536 0.49356
vt 0.92734 0.46066
vt 0.92800 0.46064
vt 0.92800 0.49348
vt 0.92866 0.46066
vt 0.93064 0.49356
vt 0.93120 0.83116
vt 0.93192 0.83115
vt 0.93192 0.87880
vt 0.93263 0.83116
vt 0.93518 0.26605
vt 0.93518 0.31380
vt 0.93518 0.32662
vt 0.93518 0.37438
vt 0.93550 0.26529
vt 0.93550 0.31456
vt 0.93550 0.32586
vt 0.93550 0.37514
vt 0.93616 0.91999
vt 0.93616 0.92073
vt 0.93616 0.96847
vt 0.93616 0.98694
vt 0.93625 0.50518
vt 0.93625 0.56430
vt 0.93625 0.62343
vt 0.93648 0.92036
vt 0.93692 0.96879
vt 0.93692 0.98663
vt 0.93697 0.50517
vt 0.93697 0.55282
vt 0.93697 0.56430
vt 0.93697 0.61194
vt 0.93697 0.62342
vt 0.93697 0.67107
vt 0.93722 0.00001
vt 0.93722 0.05913
vt 0.93722 0.11827
vt 0.93769 0.50518
vt 0.93769 0.56430
vt 0.93769 0.62343
vt 0.93794 0.00000
vt 0.93794 0.04764
vt 0.93794 0.05912
vt 0.93794 0.10677
vt 0.93794 0.11825
vt 0.93794 0.16486
vt 0.93865 0.00001
vt 0.93865 0.05913
vt 0.93865 0.11827
vt 0.94094 0.69428
vt 0.94094 0.75266
vt 0.94166 0.69426
vt 0.94166 0.74087
vt 0.94166 0.75265
vt 0.94166 0.79926
vt 0.94195 0.49356
vt 0.94238 0.69428
vt 0.94238 0.75266
vt 0.94328 0.18833
vt 0.94328 0.23506
vt 0.94333 0.18757
vt 0.94333 0.23582
vt 0.94393 0.46066
vt 0.94409 0.18833
vt 0.94409 0.23506
vt 0.94459 0.46064
vt 0.94459 0.49348
vt 0.94525 0.46066
vt 0.94531 0.40227
vt 0.94603 0.40225
vt 0.94603 0.44886
vt 0.94674 0.40227
vt 0.94723 0.49356
vt 0.94918 0.28003
vt 0.94918 0.29981
vt 0.94918 0.34061
vt 0.94918 0.36039
vt 0.94922 0.95542
vt 0.94922 1.00000
vt 0.94954 0.95618
vt 0.94954 0.99924
vt 0.94994 0.27972
vt 0.94994 0.30013
vt 0.94994 0.34030
vt 0.94994 0.36071
vt 0.95258 0.87898
vt 0.95539 0.20062
vt 0.95539 0.21909
vt 0.95615 0.20094
vt 0.95615 0.21878
vt 0.95764 0.55300
vt 0.95764 0.61213
vt 0.95764 0.67125
vt 0.95811 0.89750
vt 0.95811 0.94321
vt 0.95830 0.89660
vt 0.95830 0.94412
vt 0.95853 0.49361
vt 0.95860 0.04783
vt 0.95860 0.10695
vt 0.95860 0.16534
vt 0.95864 0.89674
vt 0.95864 0.94398
vt 0.95968 0.46064
vt 0.96044 0.46064
vt 0.96124 0.26529
vt 0.96124 0.30300
vt 0.96124 0.31430
vt 0.96124 0.35202
vt 0.96141 0.28414
vt 0.96141 0.33316
vt 0.96158 0.49361
vt 0.96233 0.74135
vt 0.96233 0.79973
vt 0.96388 0.83115
vt 0.96388 0.86887
vt 0.96405 0.85001
vt 0.96669 0.44934
vt 0.96734 0.26529
vt 0.96734 0.30300
vt 0.96734 0.31430
vt 0.96734 0.35202
vt 0.96739 0.95618
vt 0.96739 0.99924
vt 0.96751 0.28414
vt 0.96751 0.33316
vt 0.96770 0.95542
vt 0.96770 1.00000
vt 0.96846 0.18757
vt 0.96846 0.23215
vt 0.96877 0.18833
vt 0.96877 0.23139
vt 0.96894 0.50517
vt 0.96894 0.54289
vt 0.96894 0.55419
vt 0.96894 0.59190
vt 0.96894 0.60320
vt 0.96894 0.64092
vt 0.96911 0.52403
vt 0.96911 0.57305
vt 0.96911 0.62206
vt 0.96990 0.13647
vt 0.96990 0.16797
vt 0.96991 0.00002
vt 0.96991 0.03404
vt 0.96991 0.04612
vt 0.96991 0.08015
vt 0.96991 0.12518
vt 0.96995 0.89660
vt 0.96995 0.92809
vt 0.96998 0.83115
vt 0.96998 0.86887
vt 0.97015 0.85001
vt 0.97067 0.00000
vt 0.97067 0.03403
vt 0.97067 0.03481
vt 0.97067 0.04610
vt 0.97067 0.08013
vt 0.97067 0.08091
vt 0.97070 0.13647
vt 0.97070 0.16797
vt 0.97074 0.89660
vt 0.97074 0.92809
vt 0.97105 0.09221
vt 0.97144 0.13647
vt 0.97144 0.16797
vt 0.97149 0.89660
vt 0.97149 0.92809
vt 0.97181 0.09221
vt 0.97219 0.00000
vt 0.97219 0.03403
vt 0.97219 0.03481
vt 0.97219 0.04610
vt 0.97219 0.08013
vt 0.97219 0.08091
vt 0.97289 0.46064
vt 0.97289 0.49213
vt 0.97295 0.00002
vt 0.97295 0.03404
vt 0.97295 0.04612
vt 0.97295 0.08015
vt 0.97295 0.12518
vt 0.97363 0.46064
vt 0.97363 0.49213
vt 0.97363 0.69426
vt 0.97363 0.72576
vt 0.97363 0.73706
vt 0.97363 0.76855
vt 0.97363 0.77985
vt 0.97363 0.81134
vt 0.97442 0.46064
vt 0.97442 0.49213
vt 0.97452 0.69426
vt 0.97452 0.72576
vt 0.97452 0.73706
vt 0.97452 0.76855
vt 0.97452 0.77985
vt 0.97452 0.81134
vt 0.97504 0.50517
vt 0.97504 0.54289
vt 0.97504 0.55419
vt 0.97504 0.59190
vt 0.97504 0.60320
vt 0.97504 0.64092
vt 0.97520 0.52403
vt 0.97520 0.57305
vt 0.97520 0.62206
vt 0.98000 0.96879
vt 0.98000 0.98663
vt 0.98077 0.96847
vt 0.98077 0.98694
vt 0.98662 0.18833
vt 0.98662 0.23139
vt 0.98694 0.18757
vt 0.98694 0.23215
vt 0.99924 0.20094
vt 0.99924 0.21878
vt 1.00000 0.20062
vt 1.00000 0.21909
s 0
usemtl RTS_stone
f 1/272/6 2/264/6 3/266/6
f 1/360/14 3/356/14 8/355/14
f 1/360/14 8/355/14 7/359/14
f 10/230/16 12/231/16 6/18/16
f 10/230/16 6/18/16 5/17/16
f 10/230/3 16/16/3 22/229/3
f 10/230/3 5/17/3 16/16/3
f 10/230/9 11/233/9 12/231/9
f 11/287/5 20/294/5 9/295/5
f 11/287/5 24/286/5 20/294/5
f 128/1410/67 131/1327/67 127/1408/67
f 128/1410/67 132/1325/67 131/1327/67
f 129/56/3 157/47/3 153/46/3
f 13/273/10 14/267/10 15/265/10
f 13/273/24 15/265/24 2/264/24
f 13/273/24 2/264/24 1/272/24
f 130/160/66 132/171/66 128/161/66
f 130/160/66 134/170/66 132/171/66
f 130/54/68 129/56/68 133/62/68
f 130/54/68 133/62/68 134/64/68
f 131/1327/26 135/1285/26 139/1284/26
f 132/1325/69 135/1285/69 131/1327/69
f 132/1325/69 136/1283/69 135/1285/69
f 134/1085/65 136/1122/65 132/1086/65
f 134/1085/65 138/1121/65 136/1122/65
f 134/64/70 133/62/70 137/69/70
f 134/64/70 137/69/70 138/73/70
f 137/69/3 129/56/3 153/46/3
f 137/69/3 133/62/3 129/56/3
f 138/1121/60 140/1161/60 136/1122/60
f 138/1121/60 142/1160/60 140/1161/60
f 138/73/72 137/69/72 141/68/72
f 138/73/72 141/68/72 142/72/72
f 139/1284/26 143/1326/26 147/1407/26
f 139/1284/26 147/1407/26 155/1412/26
f 140/1282/71 135/1285/71 136/1283/71
f 140/1282/71 139/1284/71 135/1285/71
f 142/372/61 144/403/61 140/373/61
f 142/372/61 146/402/61 144/403/61
f 144/1324/73 139/1284/73 140/1282/73
f 144/1324/73 143/1326/73 139/1284/73
f 144/1324/75 147/1407/75 143/1326/75
f 144/1324/75 148/1409/75 147/1407/75
f 145/61/3 141/68/3 137/69/3
f 146/402/62 148/410/62 144/403/62
f 146/402/62 150/409/62 148/410/62
f 146/63/74 141/68/74 145/61/74
f 146/63/74 142/72/74 141/68/74
f 146/63/76 145/61/76 149/55/76
f 146/63/76 149/55/76 150/53/76
f 147/1407/26 151/1411/26 155/1412/26
f 15/323/23 14/321/23 18/309/23
f 15/323/23 18/309/23 17/311/23
f 150/53/78 149/55/78 153/46/78
f 150/53/78 153/46/78 154/44/78
f 150/57/63 152/67/63 148/58/63
f 150/57/63 154/66/63 152/67/63
f 152/1413/77 147/1407/77 148/1409/77
f 152/1413/77 151/1411/77 147/1407/77
f 152/1413/79 155/1412/79 151/1411/79
f 152/1413/79 156/1414/79 155/1412/79
f 153/46/3 145/61/3 137/69/3
f 153/46/3 149/55/3 145/61/3
f 154/44/80 153/46/80 157/47/80
f 154/44/80 157/47/80 158/45/80
f 154/66/64 156/75/64 152/67/64
f 154/66/64 158/74/64 156/75/64
f 155/1412/26 127/1408/26 131/1327/26
f 155/1412/26 131/1327/26 139/1284/26
f 156/1414/81 127/1408/81 155/1412/81
f 156/1414/81 128/1410/81 127/1408/81
f 158/146/59 128/161/59 156/147/59
f 158/146/59 130/160/59 128/161/59
f 158/45/82 129/56/82 130/54/82
f 158/45/82 157/47/82 129/56/82
f 16/16/11 17/1/11 18/15/11
f 16/16/22 18/15/22 23/228/22
f 16/16/22 23/228/22 22/229/22
f 17/235/1 2/264/1 15/265/1
f 17/235/1 4/234/1 2/264/1
f 19/298/12 20/294/12 21/296/12
f 19/326/21 14/321/21 13/325/21
f 19/326/21 21/322/21 14/321/21
f 19/4/26 1/226/26 7/227/26
f 19/4/26 13/3/26 1/226/26
f 209/1319/3 237/1276/3 233/1223/3
f 21/322/20 20/324/20 24/312/20
f 21/322/20 24/312/20 23/310/20
f 210/1323/68 209/1319/68 213/1404/68
f 210/1323/68 213/1404/68 214/1406/68
f 210/162/66 212/173/66 208/163/66
f 210/162/66 214/172/66 212/173/66
f 211/256/26 215/255/26 219/278/26
f 212/245/67 207/279/67 208/277/67
f 212/245/67 211/256/67 207/279/67
f 214/1090/65 216/1126/65 212/1091/65
f 214/1090/65 218/1125/65 216/1126/65
f 216/244/69 211/256/69 212/245/69
f 216/244/69 215/255/69 211/256/69
f 216/244/71 219/278/71 215/255/71
f 216/244/71 220/276/71 219/278/71
f 217/1403/3 209/1319/3 233/1223/3
f 217/1403/3 213/1404/3 209/1319/3
f 218/1125/60 220/1163/60 216/1126/60
f 218/1125/60 222/1162/60 220/1163/60
f 218/1405/70 213/1404/70 217/1403/70
f 218/1405/70 214/1406/70 213/1404/70
f 218/1405/72 217/1403/72 221/1318/72
f 218/1405/72 221/1318/72 222/1322/72
f 219/278/26 223/290/26 227/307/26
f 219/278/26 227/307/26 235/291/26
f 22/229/13 23/228/13 24/232/13
f 22/229/19 11/233/19 10/230/19
f 22/229/19 24/232/19 11/233/19
f 222/1322/74 221/1318/74 225/1275/74
f 222/1322/74 225/1275/74 226/1273/74
f 222/419/61 224/429/61 220/420/61
f 222/419/61 226/428/61 224/429/61
f 224/292/73 219/278/73 220/276/73
f 224/292/73 223/290/73 219/278/73
f 224/292/75 227/307/75 223/290/75
f 224/292/75 228/313/75 227/307/75
f 225/1275/3 221/1318/3 217/1403/3
f 226/1273/76 225/1275/76 229/1222/76
f 226/1273/76 229/1222/76 230/1216/76
f 226/428/62 228/444/62 224/429/62
f 226/428/62 230/443/62 228/444/62
f 227/307/26 231/308/26 235/291/26
f 228/313/77 231/308/77 227/307/77
f 228/313/77 232/314/77 231/308/77
f 23/310/2 14/321/2 21/322/2
f 23/310/2 18/309/2 14/321/2
f 230/1216/78 229/1222/78 233/1223/78
f 230/1216/78 233/1223/78 234/1217/78
f 230/81/63 232/92/63 228/82/63
f 230/81/63 234/91/63 232/92/63
f 232/314/79 235/291/79 231/308/79
f 232/314/79 236/293/79 235/291/79
f 233/1223/3 225/1275/3 217/1403/3
f 233/1223/3 229/1222/3 225/1275/3
f 234/1217/80 233/1223/80 237/1276/80
f 234/1217/80 237/1276/80 238/1274/80
f 234/91/64 236/99/64 232/92/64
f 234/91/64 238/98/64 236/99/64
f 235/291/26 207/279/26 211/256/26
f 235/291/26 211/256/26 219/278/26
f 236/293/81 207/279/81 235/291/81
f 236/293/81 208/277/81 207/279/81
f 238/1274/82 209/1319/82 210/1323/82
f 238/1274/82 237/1276/82 209/1319/82
f 238/148/59 208/163/59 236/149/59
f 238/148/59 210/162/59 208/163/59
f 25/597/6 26/593/6 27/595/6
f 25/665/14 27/661/14 32/660/14
f 25/665/14 32/660/14 31/664/14
f 28/237/7 29/250/7 30/251/7
f 28/656/15 27/661/15 26/663/15
f 28/656/15 30/654/15 27/661/15
f 288/844/67 291/853/67 287/854/67
f 288/844/67 292/843/67 291/853/67
f 288/844/81 287/854/81 315/868/81
f 288/844/81 315/868/81 316/866/81
f 289/155/3 317/154/3 313/158/3
f 29/250/25 28/237/25 41/236/25
f 29/250/25 41/236/25 40/249/25
f 290/1016/66 292/1034/66 288/1017/66
f 290/1016/66 294/1033/66 292/1034/66
f 290/153/68 289/155/68 293/159/68
f 290/153/68 293/159/68 294/157/68
f 290/153/82 317/154/82 289/155/82
f 290/153/82 318/152/82 317/154/82
f 291/853/26 295/867/26 299/881/26
f 294/104/65 296/110/65 292/105/65
f 294/104/65 298/109/65 296/110/65
f 294/157/70 293/159/70 297/167/70
f 294/157/70 297/167/70 298/169/70
f 296/865/69 291/853/69 292/843/69
f 296/865/69 295/867/69 291/853/69
f 296/865/71 299/881/71 295/867/71
f 296/865/71 300/883/71 299/881/71
f 297/167/3 289/155/3 313/158/3
f 297/167/3 293/159/3 289/155/3
f 298/109/60 300/116/60 296/110/60
f 298/109/60 302/115/60 300/116/60
f 298/169/72 297/167/72 301/177/72
f 298/169/72 301/177/72 302/179/72
f 299/881/26 303/891/26 307/892/26
f 299/881/26 307/892/26 315/868/26
f 30/654/4 32/660/4 27/661/4
f 30/654/4 36/653/4 32/660/4
f 300/883/73 303/891/73 299/881/73
f 300/883/73 304/893/73 303/891/73
f 302/179/74 301/177/74 305/176/74
f 302/179/74 305/176/74 306/178/74
f 302/240/61 304/282/61 300/241/61
f 302/240/61 306/281/61 304/282/61
f 304/893/75 307/892/75 303/891/75
f 304/893/75 308/894/75 307/892/75
f 305/176/3 301/177/3 297/167/3
f 306/178/76 305/176/76 309/166/76
f 306/178/76 309/166/76 310/168/76
f 306/281/62 308/301/62 304/282/62
f 306/281/62 310/300/62 308/301/62
f 307/892/26 311/882/26 315/868/26
f 308/894/77 311/882/77 307/892/77
f 308/894/77 312/884/77 311/882/77
f 31/623/18 33/619/18 44/618/18
f 31/623/18 44/618/18 43/622/18
f 31/623/8 32/621/8 33/619/8
f 310/1098/63 312/1140/63 308/1099/63
f 310/1098/63 314/1139/63 312/1140/63
f 310/168/78 309/166/78 313/158/78
f 310/168/78 313/158/78 314/156/78
f 313/158/3 305/176/3 297/167/3
f 313/158/3 309/166/3 305/176/3
f 314/1139/64 316/1167/64 312/1140/64
f 314/1139/64 318/1166/64 316/1167/64
f 314/156/80 313/158/80 317/154/80
f 314/156/80 317/154/80 318/152/80
f 315/868/26 287/854/26 291/853/26
f 315/868/26 291/853/26 299/881/26
f 316/866/79 311/882/79 312/884/79
f 316/866/79 315/868/79 311/882/79
f 318/987/59 288/1017/59 316/988/59
f 318/987/59 290/1016/59 288/1017/59
f 33/662/17 32/660/17 36/653/17
f 33/662/17 36/653/17 35/655/17
f 34/570/16 30/251/16 29/250/16
f 34/570/16 36/571/16 30/251/16
f 34/570/3 29/250/3 40/249/3
f 34/570/3 40/249/3 46/569/3
f 34/570/9 35/577/9 36/571/9
f 35/610/5 44/618/5 33/619/5
f 35/610/5 48/609/5 44/618/5
f 368/972/67 371/973/67 367/974/67
f 368/972/67 372/971/67 371/973/67
f 368/972/81 367/974/81 395/986/81
f 368/972/81 395/986/81 396/984/81
f 369/909/3 397/908/3 393/923/3
f 37/598/10 38/596/10 39/594/10
f 37/598/24 26/593/24 25/597/24
f 37/598/24 39/594/24 26/593/24
f 370/39/66 372/52/66 368/40/66
f 370/39/66 374/51/66 372/52/66
f 370/907/68 369/909/68 373/924/68
f 370/907/68 373/924/68 374/922/68
f 371/973/26 375/985/26 379/1011/26
f 372/971/69 375/985/69 371/973/69
f 372/971/69 376/983/69 375/985/69
f 374/1051/65 376/1096/65 372/1052/65
f 374/1051/65 378/1095/65 376/1096/65
f 374/922/70 373/924/70 377/948/70
f 374/922/70 377/948/70 378/950/70
f 376/983/71 379/1011/71 375/985/71
f 376/983/71 380/1013/71 379/1011/71
f 377/948/3 369/909/3 393/923/3
f 377/948/3 373/924/3 369/909/3
f 378/1095/60 380/1129/60 376/1096/60
f 378/1095/60 382/1128/60 380/1129/60
f 378/950/72 377/948/72 381/964/72
f 378/950/72 381/964/72 382/966/72
f 379/1011/26 383/1025/26 387/1026/26
f 379/1011/26 387/1026/26 395/986/26
f 380/1013/73 383/1025/73 379/1011/73
f 380/1013/73 384/1031/73 383/1025/73
f 382/315/61 384/343/61 380/316/61
f 382/315/61 386/342/61 384/343/61
f 382/966/74 381/964/74 385/963/74
f 382/966/74 385/963/74 386/965/74
f 385/963/3 381/964/3 377/948/3
f 386/342/62 388/362/62 384/343/62
f 386/342/62 390/361/62 388/362/62
f 386/965/76 385/963/76 389/947/76
f 386/965/76 389/947/76 390/949/76
f 387/1026/26 391/1012/26 395/986/26
f 388/1032/75 383/1025/75 384/1031/75
f 388/1032/75 387/1026/75 383/1025/75
f 39/642/23 38/640/23 42/630/23
f 39/642/23 42/630/23 41/632/23
f 390/150/63 392/165/63 388/151/63
f 390/150/63 394/164/63 392/165/63
f 392/1014/77 387/1026/77 388/1032/77
f 392/1014/77 391/1012/77 387/1026/77
f 392/1014/79 395/986/79 391/1012/79
f 392/1014/79 396/984/79 395/986/79
f 393/923/3 385/963/3 377/948/3
f 393/923/3 389/947/3 385/963/3
f 394/164/64 396/175/64 392/165/64
f 394/164/64 398/174/64 396/175/64
f 394/921/78 389/947/78 393/923/78
f 394/921/78 390/949/78 389/947/78
f 394/921/80 393/923/80 397/908/80
f 394/921/80 397/908/80 398/906/80
f 395/986/26 367/974/26 371/973/26
f 395/986/26 371/973/26 379/1011/26
f 398/7/59 368/40/59 396/8/59
f 398/7/59 370/39/59 368/40/59
f 398/906/82 369/909/82 370/907/82
f 398/906/82 397/908/82 369/909/82
f 4/2/7 5/17/7 6/18/7
f 4/349/15 3/356/15 2/358/15
f 4/349/15 6/346/15 3/356/15
f 40/249/11 41/236/11 42/248/11
f 40/249/22 42/248/22 47/568/22
f 40/249/22 47/568/22 46/569/22
f 41/584/1 26/593/1 39/594/1
f 41/584/1 28/583/1 26/593/1
f 43/367/26 25/666/26 31/667/26
f 43/367/26 37/366/26 25/666/26
f 43/622/12 44/618/12 45/620/12
f 43/646/21 38/640/21 37/645/21
f 43/646/21 45/641/21 38/640/21
f 447/254/107 448/243/107 449/253/107
f 447/254/24 449/253/24 454/262/24
f 447/254/24 454/262/24 453/263/24
f 448/915/23 459/914/23 460/919/23
f 448/915/23 460/919/23 449/920/23
f 45/641/20 44/643/20 48/633/20
f 45/641/20 48/633/20 47/631/20
f 450/1112/33 451/1111/33 452/1117/33
f 450/905/21 448/915/21 447/916/21
f 450/905/21 452/904/21 448/915/21
f 452/904/20 451/898/20 461/897/20
f 452/904/20 461/897/20 462/903/20
f 453/263/108 454/262/108 455/270/108
f 453/426/26 450/422/26 447/421/26
f 453/426/26 456/427/26 450/422/26
f 453/467/14 455/466/14 457/495/14
f 453/467/14 457/495/14 456/496/14
f 456/1084/109 457/1080/109 458/1083/109
f 456/1084/18 451/1111/18 450/1112/18
f 456/1084/18 458/1083/18 451/1111/18
f 458/1083/5 461/1110/5 451/1111/5
f 458/1083/5 466/1082/5 461/1110/5
f 459/242/111 468/260/111 460/252/111
f 459/242/192 467/259/192 468/260/192
f 46/569/13 47/568/13 48/576/13
f 46/569/19 35/577/19 34/570/19
f 46/569/19 48/576/19 35/577/19
f 460/252/1 454/262/1 449/253/1
f 460/252/1 463/261/1 454/262/1
f 462/1116/114 469/1097/114 470/1104/114
f 462/1116/193 461/1110/193 469/1097/193
f 462/903/2 448/915/2 452/904/2
f 462/903/2 459/914/2 448/915/2
f 464/465/15 454/456/15 463/455/15
f 464/465/15 455/466/15 454/456/15
f 464/465/4 457/495/4 455/466/4
f 464/465/4 465/494/4 457/495/4
f 465/494/17 458/505/17 457/495/17
f 465/494/17 466/504/17 458/505/17
f 466/1082/5 469/1097/5 461/1110/5
f 466/1082/5 474/1077/5 469/1097/5
f 468/260/1 463/261/1 460/252/1
f 468/260/1 471/274/1 463/261/1
f 468/260/1 476/271/1 479/280/1
f 468/260/1 479/280/1 471/274/1
f 47/631/2 38/640/2 45/641/2
f 47/631/2 42/630/2 38/640/2
f 470/902/91 459/914/91 462/903/91
f 470/902/91 467/913/91 459/914/91
f 472/275/112 463/261/112 471/274/112
f 472/275/112 464/269/112 463/261/112
f 472/464/92 465/494/92 464/465/92
f 472/464/92 473/493/92 465/494/92
f 473/1076/113 466/1082/113 465/1079/113
f 473/1076/113 474/1077/113 466/1082/113
f 475/268/115 468/260/115 467/259/115
f 475/268/115 476/271/115 468/260/115
f 475/268/119 483/284/119 484/285/119
f 475/268/119 484/285/119 476/271/119
f 478/1081/118 469/1097/118 477/1078/118
f 478/1081/118 470/1104/118 469/1097/118
f 478/1081/122 477/1078/122 485/1053/122
f 478/1081/122 485/1053/122 486/1054/122
f 478/901/93 467/913/93 470/902/93
f 478/901/93 475/912/93 467/913/93
f 480/283/116 471/274/116 479/280/116
f 480/283/116 472/275/116 471/274/116
f 480/283/120 487/288/120 488/289/120
f 480/283/194 479/280/194 487/288/194
f 480/463/94 473/493/94 472/464/94
f 480/463/94 481/492/94 473/493/94
f 481/1070/117 474/1077/117 473/1076/117
f 481/1070/117 482/1071/117 474/1077/117
f 482/1071/5 469/1097/5 474/1077/5
f 482/1071/5 477/1078/5 469/1097/5
f 482/1071/5 485/1053/5 477/1078/5
f 482/1071/5 490/1050/5 485/1053/5
f 484/285/1 479/280/1 476/271/1
f 484/285/1 487/288/1 479/280/1
f 486/32/126 493/37/126 494/33/126
f 486/32/196 485/36/196 493/37/196
f 486/32/95 475/23/95 478/31/95
f 486/32/95 483/24/95 475/23/95
f 488/1043/96 481/1069/96 480/1044/96
f 488/1043/96 489/1068/96 481/1069/96
f 488/289/124 487/288/124 495/303/124
f 488/289/124 495/303/124 496/304/124
f 489/1049/121 482/1071/121 481/1070/121
f 489/1049/121 490/1050/121 482/1071/121
f 491/25/123 484/9/123 483/24/123
f 491/25/127 500/11/127 492/10/127
f 491/25/195 492/10/195 484/9/195
f 491/25/197 499/26/197 500/11/197
f 492/302/1 487/288/1 484/285/1
f 492/302/1 495/303/1 487/288/1
f 494/33/130 501/38/130 502/34/130
f 494/33/198 493/37/198 501/38/198
f 494/33/97 483/24/97 486/32/97
f 494/33/97 491/25/97 483/24/97
f 496/1042/98 489/1068/98 488/1043/98
f 496/1042/98 497/1067/98 489/1068/98
f 497/1039/125 490/1050/125 489/1049/125
f 497/1039/125 498/1038/125 490/1050/125
f 497/1039/129 505/1024/129 506/1023/129
f 497/1039/129 506/1023/129 498/1038/129
f 498/1038/5 485/1053/5 490/1050/5
f 498/1038/5 493/1037/5 485/1053/5
f 5/17/25 17/1/25 16/16/25
f 5/17/25 4/2/25 17/1/25
f 500/317/1 495/303/1 492/302/1
f 500/317/1 503/306/1 495/303/1
f 500/317/1 508/332/1 511/320/1
f 500/317/1 511/320/1 503/306/1
f 502/34/99 491/25/99 494/33/99
f 502/34/99 499/26/99 491/25/99
f 504/1041/100 497/1067/100 496/1042/100
f 504/1041/100 505/1066/100 497/1067/100
f 504/305/128 495/303/128 503/306/128
f 504/305/128 496/304/128 495/303/128
f 504/305/132 511/320/132 512/319/132
f 504/305/199 503/306/199 511/320/199
f 506/1023/5 493/1037/5 498/1038/5
f 506/1023/5 501/1020/5 493/1037/5
f 507/335/131 500/317/131 499/318/131
f 507/335/131 508/332/131 500/317/131
f 507/335/135 515/347/135 516/344/135
f 507/335/135 516/344/135 508/332/135
f 510/1005/134 501/1020/134 509/1008/134
f 510/1005/134 502/1019/134 501/1020/134
f 510/1005/138 509/1008/138 517/995/138
f 510/1005/138 517/995/138 518/994/138
f 510/35/101 499/26/101 502/34/101
f 510/35/101 507/27/101 499/26/101
f 512/1040/102 505/1066/102 504/1041/102
f 512/1040/102 513/1065/102 505/1066/102
f 513/1018/133 506/1023/133 505/1024/133
f 513/1018/133 514/1015/133 506/1023/133
f 513/1018/137 521/1010/137 522/1009/137
f 513/1018/137 522/1009/137 514/1015/137
f 514/1015/5 501/1020/5 506/1023/5
f 514/1015/5 509/1008/5 501/1020/5
f 514/1015/5 517/995/5 509/1008/5
f 514/1015/5 522/1009/5 517/995/5
f 516/344/1 511/320/1 508/332/1
f 516/344/1 519/331/1 511/320/1
f 516/344/1 524/350/1 527/336/1
f 516/344/1 527/336/1 519/331/1
f 518/937/103 507/927/103 510/936/103
f 518/937/103 515/928/103 507/927/103
f 520/330/136 511/320/136 519/331/136
f 520/330/136 512/319/136 511/320/136
f 520/330/140 519/331/140 527/336/140
f 520/330/140 527/336/140 528/333/140
f 520/498/104 513/468/104 512/497/104
f 520/498/104 521/469/104 513/468/104
f 521/1010/141 529/1006/141 530/1002/141
f 521/1010/141 530/1002/141 522/1009/141
f 523/353/139 516/344/139 515/347/139
f 523/353/200 524/350/200 516/344/200
f 524/350/1 533/351/1 539/337/1
f 524/350/1 539/337/1 527/336/1
f 526/938/105 515/928/105 518/937/105
f 526/938/105 523/929/105 515/928/105
f 526/989/142 517/995/142 525/991/142
f 526/989/201 518/994/201 517/995/201
f 528/499/106 521/469/106 520/498/106
f 528/499/106 529/470/106 521/469/106
f 528/499/23 527/506/23 539/507/23
f 528/499/23 539/507/23 538/500/23
f 529/470/20 540/471/20 542/458/20
f 529/470/20 542/458/20 530/457/20
f 530/1002/5 517/995/5 522/1009/5
f 530/1002/5 525/991/5 517/995/5
f 531/354/108 532/352/108 533/351/108
f 531/930/15 524/925/15 523/929/15
f 531/930/15 533/926/15 524/925/15
f 532/931/14 531/930/14 535/939/14
f 532/931/14 535/939/14 534/940/14
f 534/993/18 536/992/18 542/1003/18
f 534/993/18 542/1003/18 541/1004/18
f 534/993/29 535/990/29 536/992/29
f 535/939/17 525/945/17 536/946/17
f 535/939/17 526/938/17 525/945/17
f 535/939/4 523/929/4 526/938/4
f 535/939/4 531/930/4 523/929/4
f 537/338/107 538/334/107 539/337/107
f 537/338/24 533/351/24 532/352/24
f 537/338/24 539/337/24 533/351/24
f 538/500/2 529/470/2 528/499/2
f 538/500/2 540/471/2 529/470/2
f 540/1007/110 541/1004/110 542/1003/110
f 541/407/26 532/411/26 534/412/26
f 541/407/26 537/406/26 532/411/26
f 541/472/21 538/500/21 537/501/21
f 541/472/21 540/471/21 538/500/21
f 542/1003/5 525/991/5 530/1002/5
f 542/1003/5 536/992/5 525/991/5
f 585/216/108 586/208/108 587/212/108
f 585/401/14 587/397/14 592/396/14
f 585/401/14 592/396/14 591/400/14
f 588/395/15 587/397/15 586/399/15
f 588/395/15 590/393/15 587/397/15
f 588/860/159 589/863/159 590/864/159
f 589/863/25 588/860/25 601/859/25
f 589/863/25 601/859/25 600/862/25
f 590/393/4 592/396/4 587/397/4
f 590/393/4 596/392/4 592/396/4
f 591/219/160 592/215/160 593/211/160
f 591/219/18 593/211/18 604/210/18
f 591/219/18 604/210/18 603/218/18
f 593/398/17 592/396/17 596/392/17
f 593/398/17 596/392/17 595/394/17
f 594/871/16 590/864/16 589/863/16
f 594/871/16 596/872/16 590/864/16
f 594/871/161 595/878/161 596/872/161
f 594/871/3 589/863/3 600/862/3
f 594/871/3 600/862/3 606/870/3
f 595/183/5 604/210/5 593/211/5
f 595/183/5 608/182/5 604/210/5
f 597/217/107 598/213/107 599/209/107
f 597/217/24 586/208/24 585/216/24
f 597/217/24 599/209/24 586/208/24
f 599/376/23 598/374/23 602/368/23
f 599/376/23 602/368/23 601/370/23
f 6/346/4 12/345/4 8/355/4
f 6/346/4 8/355/4 3/356/4
f 600/862/162 601/859/162 602/861/162
f 600/862/22 602/861/22 607/869/22
f 600/862/22 607/869/22 606/870/22
f 601/181/1 586/208/1 599/209/1
f 601/181/1 588/180/1 586/208/1
f 603/218/163 604/210/163 605/214/163
f 603/379/21 598/374/21 597/378/21
f 603/379/21 605/375/21 598/374/21
f 603/890/26 585/879/26 591/889/26
f 603/890/26 597/880/26 585/879/26
f 605/375/20 604/377/20 608/371/20
f 605/375/20 608/371/20 607/369/20
f 606/870/164 607/869/164 608/877/164
f 606/870/19 595/878/19 594/871/19
f 606/870/19 608/877/19 595/878/19
f 607/369/2 598/374/2 605/375/2
f 607/369/2 602/368/2 598/374/2
f 7/299/18 20/294/18 19/298/18
f 7/299/18 9/295/18 20/294/18
f 7/299/8 8/297/8 9/295/8
f 9/357/17 12/345/17 11/348/17
f 9/357/17 8/355/17 12/345/17
usemtl RTS_stone_dressed
f 49/651/27 50/647/27 51/649/27
f 49/955/14 51/961/14 56/962/14
f 49/955/14 56/962/14 55/956/14
f 52/1072/15 51/961/15 50/959/15
f 52/1072/15 54/1074/15 51/961/15
f 52/838/28 53/847/28 54/848/28
f 53/847/25 52/838/25 65/837/25
f 53/847/25 65/837/25 64/846/25
f 54/1074/4 56/962/4 51/961/4
f 54/1074/4 60/1075/4 56/962/4
f 55/798/18 57/792/18 68/791/18
f 55/798/18 68/791/18 67/797/18
f 55/798/29 56/794/29 57/792/29
f 57/960/17 56/962/17 60/1075/17
f 57/960/17 60/1075/17 59/1073/17
f 58/1057/16 54/848/16 53/847/16
f 58/1057/16 60/1058/16 54/848/16
f 58/1057/3 53/847/3 64/846/3
f 58/1057/3 64/846/3 70/1056/3
f 58/1057/30 59/1060/30 60/1058/30
f 59/658/5 68/791/5 57/792/5
f 59/658/5 72/657/5 68/791/5
f 61/652/24 50/647/24 49/651/24
f 61/652/24 63/648/24 50/647/24
f 61/652/31 62/650/31 63/648/31
f 63/850/23 62/856/23 66/944/23
f 63/850/23 66/944/23 65/942/23
f 64/846/22 66/845/22 71/1055/22
f 64/846/22 71/1055/22 70/1056/22
f 64/846/32 65/837/32 66/845/32
f 65/539/1 50/647/1 63/648/1
f 65/539/1 52/538/1 50/647/1
f 67/797/33 68/791/33 69/793/33
f 67/839/21 62/856/21 61/840/21
f 67/839/21 69/855/21 62/856/21
f 67/858/26 49/1063/26 55/1064/26
f 67/858/26 61/857/26 49/1063/26
f 69/855/20 68/849/20 72/941/20
f 69/855/20 72/941/20 71/943/20
f 70/1056/19 59/1060/19 58/1057/19
f 70/1056/19 72/1059/19 59/1060/19
f 70/1056/34 71/1055/34 72/1059/34
f 71/943/2 62/856/2 69/855/2
f 71/943/2 66/944/2 62/856/2
usemtl RTS_crimson_trim
f 100/515/36 104/258/36 112/385/36
f 100/515/39 101/519/39 102/517/39
f 100/515/49 112/385/49 114/387/49
f 100/515/49 114/387/49 101/519/49
f 100/673/46 102/678/46 105/679/46
f 100/673/46 105/679/46 104/674/46
f 101/519/35 110/386/35 99/518/35
f 101/519/35 114/387/35 110/386/35
f 103/239/40 104/258/40 105/247/40
f 103/683/45 105/685/45 108/686/45
f 103/683/45 108/686/45 107/684/45
f 105/537/26 102/536/26 98/829/26
f 105/537/26 98/829/26 108/830/26
f 106/257/41 107/238/41 108/246/41
f 106/257/51 109/384/51 111/382/51
f 106/257/51 111/382/51 107/238/51
f 106/257/52 97/514/52 109/384/52
f 106/669/44 108/671/44 98/672/44
f 106/669/44 98/672/44 97/670/44
f 107/238/37 111/382/37 113/383/37
f 107/238/37 113/383/37 103/239/37
f 109/384/42 110/386/42 111/382/42
f 111/382/3 110/386/3 114/387/3
f 111/382/3 114/387/3 113/383/3
f 112/385/43 113/383/43 114/387/43
f 113/383/50 104/258/50 103/239/50
f 113/383/50 112/385/50 104/258/50
f 160/96/67 163/86/67 159/94/67
f 160/96/67 164/84/67 163/86/67
f 160/96/81 159/94/81 187/101/81
f 160/96/81 187/101/81 188/103/81
f 161/1182/3 189/1158/3 185/1157/3
f 162/1143/66 164/1124/66 160/1127/66
f 162/1143/66 166/1142/66 164/1124/66
f 162/1178/68 161/1182/68 165/1209/68
f 162/1178/68 165/1209/68 166/1213/68
f 162/1178/82 189/1158/82 161/1182/82
f 162/1178/82 190/1154/82 189/1158/82
f 163/86/26 167/80/26 171/79/26
f 166/1346/65 168/1312/65 164/1310/65
f 166/1346/65 170/1348/65 168/1312/65
f 168/77/69 163/86/69 164/84/69
f 168/77/69 167/80/69 163/86/69
f 168/77/71 171/79/71 167/80/71
f 168/77/71 172/76/71 171/79/71
f 169/1272/3 161/1182/3 185/1157/3
f 169/1272/3 165/1209/3 161/1182/3
f 170/1280/70 165/1209/70 169/1272/70
f 170/1280/70 166/1213/70 165/1209/70
f 170/1280/72 169/1272/72 173/1271/72
f 170/1280/72 173/1271/72 174/1279/72
f 170/1348/60 172/1311/60 168/1312/60
f 170/1348/60 174/1347/60 172/1311/60
f 171/79/26 175/85/26 179/93/26
f 171/79/26 179/93/26 187/101/26
f 174/1279/74 173/1271/74 177/1208/74
f 174/1279/74 177/1208/74 178/1212/74
f 174/680/61 176/677/61 172/675/61
f 174/680/61 178/682/61 176/677/61
f 176/83/73 171/79/73 172/76/73
f 176/83/73 175/85/73 171/79/73
f 176/83/75 179/93/75 175/85/75
f 176/83/75 180/95/75 179/93/75
f 177/1208/3 173/1271/3 169/1272/3
f 178/1212/76 177/1208/76 181/1181/76
f 178/1212/76 181/1181/76 182/1177/76
f 178/682/62 180/676/62 176/677/62
f 178/682/62 182/681/62 180/676/62
f 179/93/26 183/100/26 187/101/26
f 182/28/63 184/14/63 180/12/63
f 182/28/63 186/30/63 184/14/63
f 184/102/77 179/93/77 180/95/77
f 184/102/77 183/100/77 179/93/77
f 185/1157/3 177/1208/3 169/1272/3
f 185/1157/3 181/1181/3 177/1208/3
f 186/1153/78 181/1181/78 185/1157/78
f 186/1153/78 182/1177/78 181/1181/78
f 186/1153/80 185/1157/80 189/1158/80
f 186/1153/80 189/1158/80 190/1154/80
f 186/30/64 188/13/64 184/14/64
f 186/30/64 190/29/64 188/13/64
f 187/101/26 159/94/26 163/86/26
f 187/101/26 163/86/26 171/79/26
f 188/103/79 183/100/79 184/102/79
f 188/103/79 187/101/79 183/100/79
f 190/1141/59 160/1127/59 188/1123/59
f 190/1141/59 162/1143/59 160/1127/59
f 192/438/83 193/475/83 191/439/83
f 192/438/83 194/440/83 193/475/83
f 192/481/3 206/477/3 204/476/3
f 193/718/26 195/717/26 197/738/26
f 194/1219/188 196/1226/188 195/1227/188
f 194/1219/84 195/1227/84 193/1184/84
f 196/1226/85 197/1287/85 195/1227/85
f 196/1226/85 198/1234/85 197/1287/85
f 196/489/3 192/481/3 204/476/3
f 196/489/3 194/485/3 192/481/3
f 197/738/26 199/785/26 201/827/26
f 197/738/26 201/827/26 205/786/26
f 198/1232/86 199/1241/86 197/1188/86
f 198/1232/86 200/1240/86 199/1241/86
f 200/1240/87 201/1296/87 199/1241/87
f 200/1240/87 202/1244/87 201/1296/87
f 200/484/3 198/488/3 196/489/3
f 201/827/26 203/828/26 205/786/26
f 202/637/189 204/638/189 203/639/189
f 202/637/88 203/639/88 201/617/88
f 204/476/3 200/484/3 196/489/3
f 204/476/3 202/480/3 200/484/3
f 204/638/190 206/644/190 205/659/190
f 204/638/89 205/659/89 203/639/89
f 205/786/26 191/739/26 193/718/26
f 205/786/26 193/718/26 197/738/26
f 206/437/90 191/439/90 205/425/90
f 206/437/90 192/438/90 191/439/90
f 240/557/67 243/543/67 239/559/67
f 240/557/67 244/541/67 243/543/67
f 240/557/81 239/559/81 267/590/81
f 240/557/81 267/590/81 268/592/81
f 241/886/3 269/876/3 265/852/3
f 242/1146/66 244/1131/66 240/1136/66
f 242/1146/66 246/1145/66 244/1131/66
f 242/888/68 241/886/68 245/896/68
f 242/888/68 245/896/68 246/900/68
f 242/888/82 269/876/82 241/886/82
f 242/888/82 270/874/82 269/876/82
f 243/543/26 247/542/26 251/558/26
f 246/1394/65 248/1334/65 244/1328/65
f 246/1394/65 250/1400/65 248/1334/65
f 246/900/70 245/896/70 249/895/70
f 246/900/70 249/895/70 250/899/70
f 248/540/69 243/543/69 244/541/69
f 248/540/69 247/542/69 243/543/69
f 248/540/71 251/558/71 247/542/71
f 248/540/71 252/556/71 251/558/71
f 249/895/3 241/886/3 265/852/3
f 249/895/3 245/896/3 241/886/3
f 250/1400/60 252/1329/60 248/1334/60
f 250/1400/60 254/1395/60 252/1329/60
f 250/899/72 249/895/72 253/885/72
f 250/899/72 253/885/72 254/887/72
f 251/558/26 255/589/26 259/605/26
f 251/558/26 259/605/26 267/590/26
f 254/220/61 256/191/61 252/187/61
f 254/220/61 258/224/61 256/191/61
f 256/591/73 251/558/73 252/556/73
f 256/591/73 255/589/73 251/558/73
f 257/875/3 253/885/3 249/895/3
f 258/224/62 260/188/62 256/191/62
f 258/224/62 262/221/62 260/188/62
f 258/873/74 253/885/74 257/875/74
f 258/873/74 254/887/74 253/885/74
f 258/873/76 257/875/76 261/851/76
f 258/873/76 261/851/76 262/841/76
f 259/605/26 263/606/26 267/590/26
f 260/607/75 255/589/75 256/591/75
f 260/607/75 259/605/75 255/589/75
f 262/1314/63 264/1305/63 260/1301/63
f 262/1314/63 266/1320/63 264/1305/63
f 264/608/77 259/605/77 260/607/77
f 264/608/77 263/606/77 259/605/77
f 264/608/79 267/590/79 263/606/79
f 264/608/79 268/592/79 267/590/79
f 265/852/3 257/875/3 249/895/3
f 265/852/3 261/851/3 257/875/3
f 266/1320/64 268/1302/64 264/1305/64
f 266/1320/64 270/1315/64 268/1302/64
f 266/842/78 261/851/78 265/852/78
f 266/842/78 262/841/78 261/851/78
f 266/842/80 265/852/80 269/876/80
f 266/842/80 269/876/80 270/874/80
f 267/590/26 239/559/26 243/543/26
f 267/590/26 243/543/26 251/558/26
f 270/1144/59 240/1136/59 268/1130/59
f 270/1144/59 242/1146/59 240/1136/59
f 272/1265/83 273/1313/83 271/1266/83
f 272/1265/83 274/1267/83 273/1313/83
f 272/533/3 286/529/3 284/525/3
f 273/997/26 275/976/26 277/958/26
f 274/1230/188 276/1236/188 275/1237/188
f 274/1230/84 275/1237/84 273/1186/84
f 276/1236/191 278/1242/191 277/1294/191
f 276/1236/85 277/1294/85 275/1237/85
f 276/528/3 272/533/3 284/525/3
f 276/528/3 274/532/3 272/533/3
f 277/958/26 279/957/26 281/975/26
f 277/958/26 281/975/26 285/1021/26
f 278/1245/86 279/1248/86 277/1189/86
f 278/1245/86 280/1247/86 279/1248/86
f 280/1247/87 281/1308/87 279/1248/87
f 280/1247/87 282/1252/87 281/1308/87
f 280/520/3 278/524/3 276/528/3
f 281/975/26 283/996/26 285/1021/26
f 282/691/189 284/692/189 283/693/189
f 282/691/88 283/693/88 281/668/88
f 284/525/3 280/520/3 276/528/3
f 284/525/3 282/521/3 280/520/3
f 284/692/89 285/737/89 283/693/89
f 284/692/89 286/694/89 285/737/89
f 285/1021/26 271/1022/26 273/997/26
f 285/1021/26 273/997/26 277/958/26
f 286/1264/90 271/1266/90 285/1195/90
f 286/1264/90 272/1265/90 271/1266/90
f 320/980/67 323/981/67 319/982/67
f 320/980/67 324/979/67 323/981/67
f 320/980/81 319/982/81 347/1001/81
f 320/980/81 347/1001/81 348/999/81
f 321/918/3 349/917/3 345/934/3
f 322/1109/66 324/1088/66 320/1089/66
f 322/1109/66 326/1108/66 324/1088/66
f 322/911/68 321/918/68 325/935/68
f 322/911/68 325/935/68 326/933/68
f 323/981/26 327/1000/26 331/1027/26
f 326/1316/65 328/1306/65 324/1303/65
f 326/1316/65 330/1321/65 328/1306/65
f 328/998/69 323/981/69 324/979/69
f 328/998/69 327/1000/69 323/981/69
f 329/952/3 321/918/3 345/934/3
f 329/952/3 325/935/3 321/918/3
f 330/1321/60 332/1304/60 328/1306/60
f 330/1321/60 334/1317/60 332/1304/60
f 330/954/70 325/935/70 329/952/70
f 330/954/70 326/933/70 325/935/70
f 330/954/72 329/952/72 333/968/72
f 330/954/72 333/968/72 334/970/72
f 331/1027/26 335/1045/26 339/1046/26
f 331/1027/26 339/1046/26 347/1001/26
f 332/1029/71 327/1000/71 328/998/71
f 332/1029/71 331/1027/71 327/1000/71
f 334/222/61 336/192/61 332/189/61
f 334/222/61 338/225/61 336/192/61
f 336/1047/73 331/1027/73 332/1029/73
f 336/1047/73 335/1045/73 331/1027/73
f 336/1047/75 339/1046/75 335/1045/75
f 336/1047/75 340/1048/75 339/1046/75
f 337/967/3 333/968/3 329/952/3
f 338/225/62 340/190/62 336/192/62
f 338/225/62 342/223/62 340/190/62
f 338/969/74 333/968/74 337/967/74
f 338/969/74 334/970/74 333/968/74
f 338/969/76 337/967/76 341/951/76
f 338/969/76 341/951/76 342/953/76
f 339/1046/26 343/1028/26 347/1001/26
f 342/1396/63 344/1335/63 340/1330/63
f 342/1396/63 346/1401/63 344/1335/63
f 344/1030/77 339/1046/77 340/1048/77
f 344/1030/77 343/1028/77 339/1046/77
f 344/1030/79 347/1001/79 343/1028/79
f 344/1030/79 348/999/79 347/1001/79
f 345/934/3 337/967/3 329/952/3
f 345/934/3 341/951/3 337/967/3
f 346/1401/64 348/1331/64 344/1335/64
f 346/1401/64 350/1397/64 348/1331/64
f 346/932/78 341/951/78 345/934/78
f 346/932/78 342/953/78 341/951/78
f 346/932/80 345/934/80 349/917/80
f 346/932/80 349/917/80 350/910/80
f 347/1001/26 319/982/26 323/981/26
f 347/1001/26 323/981/26 331/1027/26
f 350/1107/59 320/1089/59 348/1087/59
f 350/1107/59 322/1109/59 320/1089/59
f 350/910/82 321/918/82 322/911/82
f 350/910/82 349/917/82 321/918/82
f 352/1249/83 353/1309/83 351/1250/83
f 352/1249/83 354/1253/83 353/1309/83
f 352/483/3 366/479/3 364/478/3
f 353/1036/26 355/1035/26 357/1061/26
f 354/1202/188 356/1203/188 355/1204/188
f 354/1202/84 355/1204/84 353/1172/84
f 356/1203/191 358/1205/191 357/1281/191
f 356/1203/85 357/1281/85 355/1204/85
f 356/491/3 352/483/3 364/478/3
f 356/491/3 354/487/3 352/483/3
f 357/1061/26 359/1118/26 361/1147/26
f 357/1061/26 361/1147/26 365/1119/26
f 358/111/86 359/113/86 357/108/86
f 358/111/86 360/112/86 359/113/86
f 360/112/87 361/131/87 359/113/87
f 360/112/87 362/114/87 361/131/87
f 360/486/3 358/490/3 356/491/3
f 361/1147/26 363/1148/26 365/1119/26
f 362/1220/189 364/1228/189 363/1229/189
f 362/1220/88 363/1229/88 361/1185/88
f 364/1228/89 365/1288/89 363/1229/89
f 364/1228/89 366/1235/89 365/1288/89
f 364/478/3 360/486/3 356/491/3
f 364/478/3 362/482/3 360/486/3
f 365/1119/26 351/1062/26 353/1036/26
f 365/1119/26 353/1036/26 357/1061/26
f 366/1246/90 351/1250/90 365/1190/90
f 366/1246/90 352/1249/90 351/1250/90
f 400/1152/81 399/1156/81 427/1180/81
f 400/1152/81 427/1180/81 428/1176/81
f 401/1106/3 429/1105/3 425/1137/3
f 402/1103/68 401/1106/68 405/1138/68
f 402/1103/68 405/1138/68 406/1135/68
f 402/1103/82 429/1105/82 401/1106/82
f 402/1103/82 430/1102/82 429/1105/82
f 402/1115/66 404/1093/66 400/1094/66
f 402/1115/66 406/1114/66 404/1093/66
f 403/1155/26 407/1179/26 411/1206/26
f 404/1151/67 399/1156/67 400/1152/67
f 404/1151/67 403/1155/67 399/1156/67
f 406/339/65 408/329/65 404/327/65
f 406/339/65 410/341/65 408/329/65
f 408/1175/69 403/1155/69 404/1151/69
f 408/1175/69 407/1179/69 403/1155/69
f 408/1175/71 411/1206/71 407/1179/71
f 408/1175/71 412/1210/71 411/1206/71
f 409/1169/3 401/1106/3 425/1137/3
f 409/1169/3 405/1138/3 401/1106/3
f 410/1171/70 405/1138/70 409/1169/70
f 410/1171/70 406/1135/70 405/1138/70
f 410/1171/72 409/1169/72 413/1192/72
f 410/1171/72 413/1192/72 414/1194/72
f 410/341/60 412/328/60 408/329/60
f 410/341/60 414/340/60 412/328/60
f 411/1206/26 415/1269/26 419/1270/26
f 411/1206/26 419/1270/26 427/1180/26
f 414/48/61 416/43/61 412/41/61
f 414/48/61 418/50/61 416/43/61
f 416/1277/73 411/1206/73 412/1210/73
f 416/1277/73 415/1269/73 411/1206/73
f 416/1277/75 419/1270/75 415/1269/75
f 416/1277/75 420/1278/75 419/1270/75
f 417/1191/3 413/1192/3 409/1169/3
f 418/1193/74 413/1192/74 417/1191/74
f 418/1193/74 414/1194/74 413/1192/74
f 418/1193/76 417/1191/76 421/1168/76
f 418/1193/76 421/1168/76 422/1170/76
f 418/50/62 420/42/62 416/43/62
f 418/50/62 422/49/62 420/42/62
f 419/1270/26 423/1207/26 427/1180/26
f 422/1170/78 421/1168/78 425/1137/78
f 422/1170/78 425/1137/78 426/1134/78
f 422/1398/63 424/1336/63 420/1332/63
f 422/1398/63 426/1402/63 424/1336/63
f 424/1211/77 419/1270/77 420/1278/77
f 424/1211/77 423/1207/77 419/1270/77
f 424/1211/79 427/1180/79 423/1207/79
f 424/1211/79 428/1176/79 427/1180/79
f 425/1137/3 417/1191/3 409/1169/3
f 425/1137/3 421/1168/3 417/1191/3
f 426/1134/80 425/1137/80 429/1105/80
f 426/1134/80 429/1105/80 430/1102/80
f 426/1402/64 428/1333/64 424/1336/64
f 426/1402/64 430/1399/64 428/1333/64
f 427/1180/26 399/1156/26 403/1155/26
f 427/1180/26 403/1155/26 411/1206/26
f 430/1113/59 400/1094/59 428/1092/59
f 430/1113/59 402/1115/59 400/1094/59
f 432/389/83 433/408/83 431/390/83
f 432/389/83 434/391/83 433/408/83
f 432/535/3 446/531/3 444/527/3
f 433/405/26 435/381/26 437/364/26
f 434/1218/188 436/1224/188 435/1225/188
f 434/1218/84 435/1225/84 433/1183/84
f 436/1224/85 437/1286/85 435/1225/85
f 436/1224/85 438/1233/85 437/1286/85
f 436/530/3 432/535/3 444/527/3
f 436/530/3 434/534/3 432/535/3
f 437/364/26 439/363/26 441/380/26
f 437/364/26 441/380/26 445/417/26
f 438/87/86 439/89/86 437/78/86
f 438/87/86 440/88/86 439/89/86
f 440/522/3 438/526/3 436/530/3
f 440/88/87 441/97/87 439/89/87
f 440/88/87 442/90/87 441/97/87
f 441/380/26 443/404/26 445/417/26
f 442/1231/189 444/1238/189 443/1239/189
f 442/1231/88 443/1239/88 441/1187/88
f 444/1238/190 446/1243/190 445/1295/190
f 444/1238/89 445/1295/89 443/1239/89
f 444/527/3 440/522/3 436/530/3
f 444/527/3 442/523/3 440/522/3
f 445/417/26 431/418/26 433/405/26
f 445/417/26 433/405/26 437/364/26
f 446/388/90 431/390/90 445/365/90
f 446/388/90 432/389/90 431/390/90
f 73/723/27 74/719/27 75/721/27
f 73/836/14 75/832/14 80/831/14
f 73/836/14 80/831/14 79/835/14
f 76/6/28 77/21/28 78/22/28
f 76/808/15 75/832/15 74/834/15
f 76/808/15 78/806/15 75/832/15
f 77/21/25 76/6/25 89/5/25
f 77/21/25 89/5/25 88/20/25
f 78/806/4 80/831/4 75/832/4
f 78/806/4 84/805/4 80/831/4
f 79/759/18 81/749/18 92/748/18
f 79/759/18 92/748/18 91/758/18
f 79/759/29 80/751/29 81/749/29
f 81/833/17 80/831/17 84/805/17
f 81/833/17 84/805/17 83/807/17
f 82/142/16 78/22/16 77/21/16
f 82/142/16 84/143/16 78/22/16
f 82/142/3 77/21/3 88/20/3
f 82/142/3 88/20/3 94/141/3
f 82/142/30 83/145/30 84/143/30
f 83/741/5 92/748/5 81/749/5
f 83/741/5 96/740/5 92/748/5
f 85/724/24 74/719/24 73/723/24
f 85/724/24 87/720/24 74/719/24
f 85/724/31 86/722/31 87/720/31
f 87/789/23 86/787/23 90/766/23
f 87/789/23 90/766/23 89/768/23
f 88/20/22 90/19/22 95/140/22
f 88/20/22 95/140/22 94/141/22
f 88/20/32 89/5/32 90/19/32
f 89/716/1 74/719/1 87/720/1
f 89/716/1 76/715/1 74/719/1
f 91/696/26 73/977/26 79/978/26
f 91/696/26 85/695/26 73/977/26
f 91/758/33 92/748/33 93/750/33
f 91/796/21 86/787/21 85/795/21
f 91/796/21 93/788/21 86/787/21
f 93/788/20 92/790/20 96/769/20
f 93/788/20 96/769/20 95/767/20
f 94/141/19 83/145/19 82/142/19
f 94/141/19 96/144/19 83/145/19
f 94/141/34 95/140/34 96/144/34
f 95/767/2 86/787/2 93/788/2
f 95/767/2 90/766/2 86/787/2
f 97/514/38 98/516/38 99/518/38
f 97/514/48 110/386/48 109/384/48
f 97/514/48 99/518/48 110/386/48
f 99/687/47 102/690/47 101/688/47
f 99/687/47 98/689/47 102/690/47
usemtl RTS_iron
f 116/1198/53 117/1201/53 115/1199/53
f 116/1198/53 118/1200/53 117/1201/53
f 116/586/187 126/579/187 124/578/187
f 116/586/3 124/578/3 120/587/3
f 117/432/26 119/431/26 121/433/26
f 117/432/26 121/433/26 125/436/26
f 118/1299/54 119/1307/54 117/1293/54
f 118/1299/54 120/1300/54 119/1307/54
f 120/1258/55 121/1262/55 119/1251/55
f 120/1258/55 122/1261/55 121/1262/55
f 120/587/3 118/588/3 116/586/3
f 121/433/26 123/435/26 125/436/26
f 122/1261/56 123/1268/56 121/1262/56
f 122/1261/56 124/1263/56 123/1268/56
f 124/1359/57 125/1377/57 123/1343/57
f 124/1359/57 126/1364/57 125/1377/57
f 124/578/3 122/585/3 120/587/3
f 125/436/26 115/434/26 117/432/26
f 126/1197/58 115/1199/58 125/1196/58
f 126/1197/58 116/1198/58 115/1199/58
f 543/121/143 544/117/143 545/119/143
f 543/1354/14 545/1353/14 550/1369/14
f 543/1354/14 550/1369/14 549/1370/14
f 546/124/7 547/129/7 548/130/7
f 546/1341/15 545/1353/15 544/1342/15
f 546/1341/15 548/1352/15 545/1353/15
f 547/129/25 546/124/25 559/123/25
f 547/129/25 559/123/25 558/128/25
f 548/1352/4 550/1369/4 545/1353/4
f 548/1352/4 554/1368/4 550/1369/4
f 549/1260/109 550/1257/109 551/1255/109
f 549/1260/18 551/1255/18 562/1254/18
f 549/1260/18 562/1254/18 561/1259/18
f 551/1376/17 550/1369/17 554/1368/17
f 551/1376/17 554/1368/17 553/1375/17
f 552/136/16 548/130/16 547/129/16
f 552/136/16 554/137/16 548/130/16
f 552/136/3 547/129/3 558/128/3
f 552/136/3 558/128/3 564/135/3
f 552/136/9 553/139/9 554/137/9
f 553/1165/5 562/1254/5 551/1255/5
f 553/1165/5 566/1164/5 562/1254/5
f 555/122/144 556/120/144 557/118/144
f 555/122/24 544/117/24 543/121/24
f 555/122/24 557/118/24 544/117/24
f 557/1374/23 556/1366/23 560/1365/23
f 557/1374/23 560/1365/23 559/1373/23
f 558/128/11 559/123/11 560/127/11
f 558/128/22 560/127/22 565/134/22
f 558/128/22 565/134/22 564/135/22
f 559/107/1 544/117/1 557/118/1
f 559/107/1 546/106/1 544/117/1
f 561/1259/110 562/1254/110 563/1256/110
f 561/133/26 543/125/26 549/132/26
f 561/133/26 555/126/26 543/125/26
f 561/1351/21 556/1366/21 555/1367/21
f 561/1351/21 563/1350/21 556/1366/21
f 563/1350/20 562/1340/20 566/1339/20
f 563/1350/20 566/1339/20 565/1349/20
f 564/135/13 565/134/13 566/138/13
f 564/135/19 553/139/19 552/136/19
f 564/135/19 566/138/19 553/139/19
f 565/1349/2 556/1366/2 563/1350/2
f 565/1349/2 560/1365/2 556/1366/2
f 567/801/146 569/803/146 568/799/146
f 568/799/1 571/800/1 575/762/1
f 569/803/24 570/804/24 571/800/24
f 569/803/24 571/800/24 568/799/24
f 570/451/157 579/448/157 572/447/157
f 570/451/157 581/452/157 579/448/157
f 570/804/147 572/802/147 571/800/147
f 571/800/153 572/802/153 574/761/153
f 571/800/153 574/761/153 575/762/153
f 573/204/148 575/207/148 574/205/148
f 573/760/152 567/801/152 568/799/152
f 573/760/152 568/799/152 575/762/152
f 574/205/3 582/196/3 573/204/3
f 574/205/3 584/197/3 582/196/3
f 576/1292/149 578/1290/149 577/1298/149
f 577/449/156 567/446/156 576/445/156
f 577/449/156 569/450/156 567/446/156
f 577/825/26 570/812/26 569/811/26
f 577/825/26 581/826/26 570/812/26
f 578/1290/154 576/1292/154 582/1215/154
f 578/1290/154 582/1215/154 583/1221/154
f 579/1291/150 581/1297/150 580/1289/150
f 579/198/145 574/205/145 572/206/145
f 579/198/145 584/197/145 574/205/145
f 581/1297/18 577/1298/18 578/1290/18
f 581/1297/18 578/1290/18 580/1289/18
f 582/196/151 584/197/151 583/186/151
f 582/196/158 567/203/158 573/204/158
f 582/196/158 576/195/158 567/203/158
f 583/1221/5 580/1289/5 578/1290/5
f 584/1214/155 579/1291/155 580/1289/155
f 584/1214/155 580/1289/155 583/1221/155
f 640/1356/183 641/1337/183 639/1355/183
f 640/1356/183 642/1338/183 641/1337/183
f 640/563/2 648/566/2 644/575/2
f 640/563/2 650/562/2 648/566/2
f 641/551/4 643/547/4 645/546/4
f 641/551/4 645/546/4 649/554/4
f 642/416/26 643/413/26 641/415/26
f 642/416/26 644/414/26 643/413/26
f 644/1387/184 645/1378/184 643/1386/184
f 644/1387/184 646/1379/184 645/1378/184
f 644/575/2 642/567/2 640/563/2
f 645/546/4 647/550/4 649/554/4
f 646/1379/185 647/1371/185 645/1378/185
f 646/1379/185 648/1372/185 647/1371/185
f 648/1382/3 649/1391/3 647/1383/3
f 648/1382/3 650/1390/3 649/1391/3
f 648/566/2 646/574/2 644/575/2
f 649/554/4 639/555/4 641/551/4
f 650/1361/186 639/1355/186 649/1360/186
f 650/1361/186 640/1356/186 639/1355/186
f 682/1358/183 683/1344/183 681/1357/183
f 682/1358/183 684/1345/183 683/1344/183
f 682/549/2 690/544/2 686/552/2
f 682/549/2 692/545/2 690/544/2
f 683/565/4 685/561/4 687/560/4
f 683/565/4 687/560/4 691/572/4
f 684/1393/26 685/1384/26 683/1392/26
f 684/1393/26 686/1385/26 685/1384/26
f 686/552/2 684/553/2 682/549/2
f 686/824/184 687/817/184 685/823/184
f 686/824/184 688/818/184 687/817/184
f 687/560/4 689/564/4 691/572/4
f 688/818/185 689/813/185 687/817/185
f 688/818/185 690/814/185 689/813/185
f 690/1380/3 691/1389/3 689/1381/3
f 690/1380/3 692/1388/3 691/1389/3
f 690/544/2 688/548/2 686/552/2
f 691/572/4 681/573/4 683/565/4
f 692/1363/186 681/1357/186 691/1362/186
f 692/1363/186 682/1358/186 681/1357/186
usemtl RTS_crimson_cloth
f 609/459/4 624/461/4 636/462/4
f 609/459/4 636/462/4 621/460/4
f 609/747/16 611/746/16 625/754/16
f 609/747/16 625/754/16 624/755/16
f 609/747/167 610/743/167 611/746/167
f 612/745/168 613/742/168 614/744/168
f 612/745/3 625/754/3 611/746/3
f 612/745/3 629/753/3 625/754/3
f 613/1100/1 610/1149/1 623/1150/1
f 613/742/25 611/746/25 610/743/25
f 613/742/25 612/745/25 611/746/25
f 615/200/2 627/193/2 614/199/2
f 615/200/2 632/194/2 627/193/2
f 615/612/169 616/611/169 617/613/169
f 616/202/23 614/199/23 613/201/23
f 616/202/23 615/200/23 614/199/23
f 616/699/177 618/703/177 617/704/177
f 616/699/202 619/698/202 618/703/202
f 618/703/165 630/710/165 617/704/165
f 618/703/165 635/709/165 630/710/165
f 618/703/170 619/698/170 620/702/170
f 619/1120/1 616/1101/1 613/1100/1
f 621/626/171 622/624/171 623/625/171
f 622/701/166 633/708/166 620/702/166
f 622/701/166 638/707/166 633/708/166
f 623/1150/1 619/1120/1 613/1100/1
f 623/454/15 609/459/15 621/460/15
f 623/454/15 610/453/15 609/459/15
f 623/697/178 620/702/178 619/698/178
f 623/697/203 622/701/203 620/702/203
f 624/755/172 625/754/172 626/757/172
f 626/423/5 628/441/5 631/442/5
f 626/423/5 631/442/5 634/430/5
f 626/757/19 625/754/19 629/753/19
f 626/757/19 629/753/19 628/756/19
f 627/752/173 628/756/173 629/753/173
f 627/752/22 612/745/22 614/744/22
f 627/752/22 629/753/22 612/745/22
f 630/581/174 631/580/174 632/582/174
f 630/710/181 615/705/181 617/704/181
f 630/710/181 632/711/181 615/705/181
f 631/185/20 627/193/20 632/194/20
f 631/185/20 628/184/20 627/193/20
f 631/714/180 635/709/180 634/713/180
f 631/714/205 630/710/205 635/709/205
f 633/708/175 634/713/175 635/709/175
f 633/708/26 618/703/26 620/702/26
f 633/708/26 635/709/26 618/703/26
f 634/430/5 637/424/5 626/423/5
f 636/627/176 637/628/176 638/629/176
f 636/706/182 622/701/182 621/700/182
f 636/706/182 638/707/182 622/701/182
f 637/474/17 624/461/17 626/473/17
f 637/474/17 636/462/17 624/461/17
f 637/712/179 633/708/179 638/707/179
f 637/712/204 634/713/204 633/708/204
f 651/730/16 653/729/16 667/733/16
f 651/730/16 667/733/16 666/734/16
f 651/730/167 652/726/167 653/729/167
f 651/815/4 666/819/4 678/820/4
f 651/815/4 678/820/4 663/816/4
f 654/728/168 655/725/168 656/727/168
f 654/728/3 667/733/3 653/729/3
f 654/728/3 671/732/3 667/733/3
f 655/1132/1 652/1173/1 665/1174/1
f 655/725/25 653/729/25 652/726/25
f 655/725/25 654/728/25 653/729/25
f 657/511/2 669/508/2 656/510/2
f 657/511/2 674/509/2 669/508/2
f 657/634/169 658/635/169 659/636/169
f 658/513/23 656/510/23 655/512/23
f 658/513/23 657/511/23 656/510/23
f 658/765/177 660/773/177 659/774/177
f 658/765/202 661/764/202 660/773/202
f 660/773/165 672/780/165 659/774/165
f 660/773/165 677/779/165 672/780/165
f 660/773/170 661/764/170 662/772/170
f 661/1159/1 658/1133/1 655/1132/1
f 663/604/171 664/602/171 665/603/171
f 664/771/166 675/778/166 662/772/166
f 664/771/166 680/777/166 675/778/166
f 665/1174/1 661/1159/1 655/1132/1
f 665/763/178 662/772/178 661/764/178
f 665/763/203 664/771/203 662/772/203
f 665/810/15 651/815/15 663/816/15
f 665/810/15 652/809/15 651/815/15
f 666/734/172 667/733/172 668/736/172
f 668/59/5 670/70/5 673/71/5
f 668/59/5 673/71/5 676/65/5
f 668/736/19 667/733/19 671/732/19
f 668/736/19 671/732/19 670/735/19
f 669/731/173 670/735/173 671/732/173
f 669/731/22 654/728/22 656/727/22
f 669/731/22 671/732/22 654/728/22
f 672/614/174 673/615/174 674/616/174
f 672/780/181 657/775/181 659/774/181
f 672/780/181 674/781/181 657/775/181
f 673/503/20 669/508/20 674/509/20
f 673/503/20 670/502/20 669/508/20
f 673/784/180 677/779/180 676/783/180
f 673/784/205 672/780/205 677/779/205
f 675/778/175 676/783/175 677/779/175
f 675/778/26 660/773/26 662/772/26
f 675/778/26 677/779/26 660/773/26
f 676/65/5 679/60/5 668/59/5
f 678/599/176 679/600/176 680/601/176
f 678/776/182 664/771/182 663/770/182
f 678/776/182 680/777/182 664/771/182
f 679/782/179 675/778/179 680/777/179
f 679/782/204 676/783/204 675/778/204
f 679/822/17 666/819/17 668/821/17
f 679/822/17 678/820/17 666/819/17
