# Blender 4.0.2
# www.blender.org
mtllib command_center_lod1.mtl
o command_center_lod1
v 4.982500 0.012500 -4.987500
v 4.988461 0.433846 -4.983846
v 4.988461 0.016154 4.983846
v 4.982500 0.437500 4.987500
v -4.988461 0.016154 -4.983846
v -4.982500 0.437500 -4.987500
v -4.982500 0.012500 4.987500
v -4.988461 0.433846 4.983846
v 4.482500 0.462500 -4.487500
v 4.488461 0.833846 -4.483846
v 4.488461 0.466154 4.483846
v 4.482500 0.837500 4.487500
v -4.488461 0.466154 -4.483846
v -4.482500 0.837500 -4.487500
v -4.482500 0.462500 4.487500
v -4.488461 0.833846 4.483846
v 3.482500 0.862500 -3.487500
v 3.488462 4.233847 -3.483846
v 3.488462 0.866154 3.483846
v 3.482500 4.237500 3.487500
v -3.488462 0.866154 -3.483846
v -3.482500 4.237500 -3.487500
v -3.482500 0.862500 3.487500
v -3.488462 4.233847 3.483846
v 3.682500 4.262500 -3.687500
v 3.688462 4.493846 -3.683846
v 3.688462 4.266154 3.683846
v 3.682500 4.497500 3.687500
v -3.688462 4.266154 -3.683846
v -3.682500 4.497500 -3.687500
v -3.682500 4.262500 3.687500
v -3.688462 4.493846 3.683846
v 3.872478 4.515550 -3.871546
v -3.871505 4.517610 -3.872405
v -3.872478 4.515550 3.871546
v 3.871505 4.517610 3.872405
v 1.099033 7.096377 -0.004202
v -1.099033 7.096377 0.004202
v 0.000000 7.060000 0.120000
v -0.122738 7.061129 0.016353
v 0.000000 8.362315 0.000000
v 0.000000 7.060000 -0.120000
v 0.122738 7.061129 -0.016353
v -3.647265 0.867791 4.593204
v -3.654523 5.840192 4.588760
v -4.310606 0.859808 4.317002
v -4.318880 5.832209 4.315012
v -4.593204 0.867791 3.652735
v -4.587759 5.841990 3.645075
v -4.316579 0.858010 2.990387
v -4.315012 5.832209 2.981121
v -3.652735 0.867791 2.706796
v -3.645478 5.840192 2.711240
v -2.989395 0.859808 2.982999
v -2.981121 5.832209 2.984988
v -2.706796 0.867791 3.647266
v -2.712241 5.841990 3.654926
v -2.983421 0.858010 4.309614
v -2.984988 5.832209 4.318880
v -3.647265 5.567791 4.693204
v -3.653888 5.837356 4.690339
v -4.382883 5.562644 4.388380
v -4.389590 5.832209 4.385723
v -4.690339 5.562644 3.653888
v -4.687759 5.841990 3.645075
v -4.387290 5.558011 2.919676
v -4.382882 5.837355 2.911620
v -3.652735 5.567791 2.606797
v -3.646113 5.837355 2.609661
v -2.917118 5.562644 2.911620
v -2.910410 5.832209 2.914278
v -2.609661 5.562644 3.646113
v -2.612241 5.841990 3.654926
v -2.912711 5.558011 4.380324
v -2.917118 5.837355 4.388380
v -3.650000 5.850000 4.800000
v -4.463173 5.850000 4.463173
v -4.800000 5.850000 3.650000
v -3.669896 7.760303 3.623392
v -4.463173 5.850000 2.836827
v -3.650000 5.850000 2.500000
v -2.836827 5.850000 2.836827
v -2.500000 5.850000 3.650000
v -3.623270 7.751649 3.684171
v -2.836827 5.850000 4.463173
v 3.652735 0.867791 4.593204
v 3.645478 5.840192 4.588760
v 2.989395 0.859808 4.317002
v 2.981121 5.832209 4.315012
v 2.706796 0.867791 3.652735
v 2.712241 5.841990 3.645075
v 2.983421 0.858011 2.990387
v 2.984988 5.832209 2.981121
v 3.647266 0.867791 2.706796
v 3.654523 5.840192 2.711240
v 4.310606 0.859808 2.982999
v 4.318880 5.832209 2.984988
v 4.593204 0.867791 3.647265
v 4.587759 5.841990 3.654925
v 4.316579 0.858010 4.309614
v 4.315012 5.832209 4.318880
v 3.652735 5.567791 4.693204
v 3.646113 5.837356 4.690339
v 2.917118 5.562644 4.388380
v 2.910410 5.832209 4.385723
v 2.609661 5.562644 3.653888
v 2.612241 5.841990 3.645075
v 2.912711 5.558011 2.919676
v 2.917118 5.837355 2.911621
v 3.647266 5.567791 2.606797
v 3.653888 5.837355 2.609661
v 4.382883 5.562644 2.911620
v 4.389590 5.832209 2.914278
v 4.690339 5.562644 3.646113
v 4.687759 5.841990 3.654926
v 4.387290 5.558011 4.380324
v 4.382882 5.837355 4.388380
v 3.650000 5.850000 4.800000
v 2.836827 5.850000 4.463173
v 2.500000 5.850000 3.650000
v 2.836827 5.850000 2.836827
v 3.623392 7.760303 3.669896
v 3.650000 5.850000 2.500000
v 4.463173 5.850000 2.836827
v 4.800000 5.850000 3.650000
v 3.684171 7.751649 3.623270
v 4.463173 5.850000 4.463173
v 3.652735 0.867791 -2.706796
v 3.645478 5.840192 -2.711240
v 2.989395 0.859808 -2.982999
v 2.981121 5.832209 -2.984988
v 2.706796 0.867791 -3.647266
v 2.712241 5.841990 -3.654926
v 2.983421 0.858010 -4.309614
v 2.984988 5.832209 -4.318880
v 3.647265 0.867791 -4.593204
v 3.654523 5.840192 -4.588760
v 4.310606 0.859808 -4.317002
v 4.318880 5.832209 -4.315012
v 4.593204 0.867791 -3.652735
v 4.587759 5.841990 -3.645075
v 4.316579 0.858010 -2.990387
v 4.315012 5.832209 -2.981121
v 3.652735 5.567791 -2.606797
v 3.646113 5.837355 -2.609661
v 2.917118 5.562644 -2.911620
v 2.910410 5.832209 -2.914278
v 2.609661 5.562644 -3.646113
v 2.612241 5.841990 -3.654926
v 2.912711 5.558011 -4.380324
v 2.917118 5.837355 -4.388380
v 3.647265 5.567791 -4.693204
v 3.653888 5.837356 -4.690339
v 4.382883 5.562644 -4.388380
v 4.389590 5.832209 -4.385723
v 4.690339 5.562644 -3.653888
v 4.687759 5.841990 -3.645075
v 4.387290 5.558011 -2.919676
v 4.382882 5.837355 -2.911620
v 3.650000 5.850000 -2.500000
v 2.836827 5.850000 -2.836827
v 2.500000 5.850000 -3.650000
v 3.623270 7.751649 -3.684171
v 2.836827 5.850000 -4.463173
v 3.650000 5.850000 -4.800000
v 4.463173 5.850000 -4.463173
v 4.800000 5.850000 -3.650000
v 3.669896 7.760303 -3.623392
v 4.463173 5.850000 -2.836827
v -3.647266 0.867791 -2.706796
v -3.654523 5.840192 -2.711240
v -4.310606 0.859808 -2.982999
v -4.318880 5.832209 -2.984988
v -4.593204 0.867791 -3.647265
v -4.587759 5.841990 -3.654925
v -4.316579 0.858010 -4.309614
v -4.315012 5.832209 -4.318880
v -3.652735 0.867791 -4.593204
v -3.645478 5.840192 -4.588760
v -2.989395 0.859808 -4.317002
v -2.981121 5.832209 -4.315012
v -2.706796 0.867791 -3.652735
v -2.712241 5.841990 -3.645075
v -2.983421 0.858011 -2.990387
v -2.984988 5.832209 -2.981121
v -3.647266 5.567791 -2.606797
v -3.653888 5.837355 -2.609661
v -4.382883 5.562644 -2.911620
v -4.389590 5.832209 -2.914278
v -4.690339 5.562644 -3.646113
v -4.687759 5.841990 -3.654926
v -4.387290 5.558011 -4.380324
v -4.382882 5.837355 -4.388380
v -3.652735 5.567791 -4.693204
v -3.646113 5.837356 -4.690339
v -2.917118 5.562644 -4.388380
v -2.910410 5.832209 -4.385723
v -2.609661 5.562644 -3.653888
v -2.612241 5.841990 -3.645075
v -2.912711 5.558011 -2.919676
v -2.917118 5.837355 -2.911621
v -3.650000 5.850000 -2.500000
v -4.463173 5.850000 -2.836827
v -4.800000 5.850000 -3.650000
v -3.684171 7.751649 -3.623270
v -4.463173 5.850000 -4.463173
v -3.650000 5.850000 -4.800000
v -2.836827 5.850000 -4.463173
v -2.500000 5.850000 -3.650000
v -2.836827 5.850000 -2.836827
v -3.623392 7.760303 -3.669896
v -1.338462 0.866154 3.316154
v -1.333846 0.861538 3.783846
v -0.967500 0.862500 3.312500
v -0.962500 0.867500 3.787500
v -1.287870 2.656685 3.307775
v -1.301354 2.611910 3.791209
v -0.930087 2.519468 3.311254
v -0.924847 2.533215 3.787808
v -0.942767 3.203551 3.312645
v -0.953551 3.192767 3.787355
v -0.553339 3.055316 3.310116
v -0.686736 2.923073 3.791990
v -0.504374 3.490850 3.309808
v -0.521136 3.482888 3.791990
v -0.177387 3.209509 3.787344
v 0.008872 3.589412 3.309808
v -0.008872 3.589412 3.790192
v 0.177387 3.209509 3.312655
v 0.521136 3.482888 3.308011
v 0.504374 3.490850 3.790192
v 0.553339 3.055315 3.789884
v 0.953551 3.192767 3.312645
v 0.942768 3.203551 3.787355
v 0.686736 2.923073 3.308011
v 1.301354 2.611909 3.308791
v 1.287870 2.656685 3.792225
v 0.924847 2.533215 3.312192
v 0.930087 2.519468 3.788746
v 1.333846 0.861539 3.316154
v 1.338462 0.866154 3.783846
v 0.962500 0.867500 3.312500
v 0.967500 0.862500 3.787500
v 0.932500 0.862500 3.472500
v 0.938462 2.233846 3.476154
v 0.938462 0.866154 3.563846
v 0.932500 2.237500 3.567500
v -0.938462 0.866154 3.476154
v -0.932500 2.237500 3.472500
v -0.932500 0.862500 3.567500
v -0.938462 2.233846 3.563846
v 0.933034 2.258102 3.473457
v -0.932112 2.255787 3.473457
v 0.932112 2.255787 3.566543
v -0.933034 2.258102 3.566543
v 0.000000 3.159027 3.520000
v 1.282500 0.462500 4.512500
v 1.288461 0.633846 4.516154
v 1.288461 0.466154 4.983846
v 1.282500 0.637500 4.987500
v -1.288461 0.466154 4.516154
v -1.282500 0.637500 4.512500
v -1.282500 0.462500 4.987500
v -1.288461 0.633846 4.983846
v 2.645313 3.945313 3.550000
v 1.651071 1.765369 3.549780
v 1.654688 3.945313 3.550000
v 2.150000 2.173093 3.575000
v 2.152665 2.191055 3.538078
v 2.648930 1.765369 3.550220
v 2.770000 3.966223 3.583409
v 1.530000 3.980000 3.550000
v 2.770000 3.988384 3.524308
v -1.654688 3.945313 3.550000
v -2.648930 1.765369 3.549780
v -2.645313 3.945313 3.550000
v -2.150000 2.173093 3.575000
v -2.147336 2.191055 3.538078
v -1.651071 1.765369 3.550220
v -1.530000 3.966223 3.583409
v -2.770000 3.980000 3.550000
v -1.530000 3.988384 3.524308
vn -0.6811 0.7321 0.0001
vn 0.6811 0.7321 -0.0001
vn -0.6432 0.0703 0.7625
vn -0.7416 0.0616 -0.6680
vn 0.6432 0.0703 -0.7625
vn 0.7416 0.0616 0.6680
vn -0.8089 0.4832 0.3350
vn -0.8125 0.4760 -0.3366
vn -0.3368 0.4747 -0.8132
vn 0.3357 0.4801 -0.8104
vn 0.8133 0.4744 0.3369
vn 0.3372 0.4729 0.8140
vn -0.3366 0.4760 0.8125
vn -0.8132 0.4747 0.3368
vn -0.8104 0.4801 -0.3357
vn 0.3369 0.4744 -0.8133
vn 0.8140 0.4729 -0.3372
vn 0.3350 0.4832 0.8089
vn -0.3357 0.4801 0.8104
vn -0.8133 0.4744 -0.3369
vn -0.3372 0.4729 -0.8140
vn 0.8089 0.4832 -0.3350
vn 0.8125 0.4760 0.3366
vn 0.3368 0.4747 0.8132
vn -0.3369 0.4744 0.8133
vn -0.8140 0.4729 0.3372
vn -0.3350 0.4832 -0.8089
vn 0.3366 0.4760 -0.8125
vn 0.8132 0.4747 -0.3368
vn 0.8104 0.4801 0.3357
vn -0.0065 -0.0000 -1.0000
vn 0.2036 -0.9672 0.1521
vn -0.0056 -0.0100 -0.9999
vn -0.4868 -0.8674 0.1033
vn -0.6950 0.7185 -0.0248
vn -0.0001 0.0515 -0.9987
vn 0.0001 0.0515 0.9987
vn 0.6109 -0.7284 -0.3102
vn -0.0009 -0.9363 -0.3511
vn 0.0009 0.9363 0.3511
vn 0.6109 -0.7284 -0.3103
vn -0.9999 0.0141 -0.0006
vn 0.0004 1.0000 -0.0004
vn 0.9999 0.0141 0.0006
vn -0.0004 0.0087 1.0000
vn -0.0004 -1.0000 -0.0004
vn 0.0004 0.0098 -1.0000
vn -0.9999 0.0160 -0.0007
vn 0.9999 0.0160 0.0007
vn -0.0004 0.0098 1.0000
vn 0.0005 0.0011 -1.0000
vn -1.0000 0.0018 -0.0009
vn 0.0005 1.0000 -0.0005
vn 1.0000 0.0018 0.0009
vn -0.0005 0.0011 1.0000
vn -0.0005 -1.0000 -0.0005
vn 0.0005 0.0158 -0.9999
vn -0.9997 0.0257 -0.0008
vn 0.9997 0.0257 0.0008
vn -0.0005 0.0158 0.9999
vn -0.0021 0.8333 -0.5528
vn 0.0021 0.8333 0.5528
vn -0.0003 -1.0000 0.0003
vn 0.0092 -1.0000 -0.0000
vn 0.3739 0.0014 0.9275
vn -0.9228 -0.0004 -0.3854
vn -0.3739 0.0014 -0.9275
vn 0.3844 -0.0003 -0.9232
vn 0.9280 0.0016 -0.3725
vn 0.9228 -0.0004 0.3854
vn -0.9280 0.0016 0.3725
vn -0.3844 -0.0003 0.9232
vn -0.0000 1.0000 -0.0000
vn 0.3792 0.0191 0.9251
vn -0.0000 -1.0000 -0.0000
vn -0.9234 0.0035 -0.3839
vn -0.3792 0.0191 -0.9251
vn 0.3826 -0.0004 -0.9239
vn 0.9274 0.0204 -0.3736
vn 0.9234 0.0035 0.3839
vn -0.9274 0.0204 0.3736
vn -0.3826 -0.0004 0.9239
vn -0.0035 1.0000 -0.0035
vn -0.6426 0.5159 0.5665
vn 0.0049 -1.0000 -0.0000
vn 0.8086 0.4837 -0.3349
vn -0.3349 0.4837 -0.8086
vn 0.5665 0.5159 0.6426
vn -0.8086 0.4837 0.3349
vn 0.6426 0.5159 -0.5665
vn -0.5665 0.5159 -0.6426
vn 0.3349 0.4837 0.8086
vn -0.9993 0.0281 -0.0253
vn 0.9997 -0.0226 -0.0103
vn 0.0081 -0.0044 1.0000
vn -0.0058 0.0019 -1.0000
vn -0.8456 0.5337 -0.0071
vn 0.8534 -0.5213 0.0057
vn 0.0093 0.0011 1.0000
vn -0.5481 0.8364 -0.0052
vn 0.0004 0.0087 -1.0000
vn 0.0109 -0.0032 0.9999
vn 0.4868 -0.8674 -0.1033
vn 0.0037 -0.0011 -1.0000
vn -0.1886 0.9820 -0.0070
vn 0.2036 0.9790 -0.0091
vn 0.0056 -0.0100 0.9999
vn -0.0013 -0.0069 1.0000
vn -0.2036 -0.9672 -0.1521
vn 0.0134 0.0040 -0.9999
vn 0.5572 0.8304 -0.0062
vn 0.0174 -0.0001 -0.9998
vn 0.0065 -0.0000 1.0000
vn 0.8576 0.5137 -0.0237
vn -0.8162 -0.5737 -0.0685
vn -0.0106 0.0022 0.9999
vn 0.0098 -0.0000 -1.0000
vn 0.9998 0.0185 -0.0100
vn -0.9997 -0.0226 0.0103
vn -0.0078 -0.0049 1.0000
vn -0.0159 -0.9998 -0.0104
vn -0.0099 -0.0005 -1.0000
vn 0.0159 -0.9998 0.0104
vn 0.0020 0.0027 -1.0000
vn -0.9979 0.0042 -0.0650
vn 0.0020 0.9992 -0.0398
vn 0.9979 0.0042 0.0650
vn -0.0020 0.0027 1.0000
vn -0.0020 -0.9992 -0.0398
vn -0.0012 -0.9997 0.0248
vn 0.0015 0.0213 -0.9998
vn 0.6950 0.7185 0.0248
vn -0.9993 0.0345 -0.0124
vn 0.0014 1.0000 -0.0077
vn 0.9993 0.0345 0.0124
vn -0.0015 0.0213 0.9998
vn -0.0014 -1.0000 -0.0077
vn 0.0400 0.0181 -0.9990
vn 0.0790 0.0361 0.9962
vn -0.5952 -0.7049 -0.3859
vn -0.9999 -0.0141 0.0006
vn -0.0004 1.0000 0.0004
vn 0.9999 -0.0141 -0.0006
vn 0.0004 -0.0087 1.0000
vn 0.0004 -1.0000 0.0004
vn -0.0004 -0.0098 -1.0000
vn -0.9999 -0.0160 0.0007
vn 0.9999 -0.0160 -0.0007
vn 0.0004 -0.0098 1.0000
vn -0.0005 -0.0011 -1.0000
vn -1.0000 -0.0018 0.0009
vn -0.0005 1.0000 0.0005
vn 1.0000 -0.0018 -0.0009
vn 0.0005 -0.0011 1.0000
vn 0.0005 -1.0000 0.0005
vn -0.0005 -0.0158 -0.9999
vn -0.9997 -0.0257 0.0008
vn 0.9997 -0.0257 -0.0008
vn 0.0005 -0.0158 0.9999
vn 0.0003 0.8319 -0.5549
vn -0.0003 0.8319 0.5549
vn 0.0003 -1.0000 -0.0003
vn -0.0092 -1.0000 -0.0000
vn 0.3928 -0.0016 0.9196
vn -0.9250 0.0004 -0.3800
vn -0.3928 -0.0016 -0.9196
vn 0.3810 0.0003 -0.9246
vn 0.9202 -0.0014 -0.3915
vn 0.9250 0.0004 0.3800
vn -0.9202 -0.0014 0.3915
vn -0.3810 0.0003 0.9246
vn -0.0361 0.9993 -0.0001
vn -0.0001 0.9996 0.0294
vn 0.0361 0.9993 0.0001
vn 0.0001 0.9996 -0.0294
vn 0.3916 -0.0204 0.9199
vn 0.0256 -0.9993 0.0254
vn -0.0207 -0.9996 0.0208
vn -0.0256 -0.9993 -0.0254
vn 0.0207 -0.9996 -0.0208
vn -0.9244 -0.0035 -0.3815
vn -0.3916 -0.0204 -0.9199
vn 0.3828 0.0004 -0.9238
vn 0.9223 -0.0191 -0.3861
vn 0.9244 -0.0035 0.3815
vn -0.9223 -0.0191 0.3861
vn -0.3828 0.0004 0.9238
vn 0.0035 1.0000 0.0085
vn 0.0239 0.9997 0.0036
vn -0.0035 1.0000 -0.0085
vn -0.0239 0.9997 -0.0036
vn 0.0035 1.0000 0.0035
vn -0.3357 0.4802 0.8104
vn -0.0085 -1.0000 0.0035
vn -0.0194 -0.9997 -0.0143
vn 0.0085 -1.0000 -0.0035
vn 0.0194 -0.9997 0.0143
vn -0.0049 -1.0000 -0.0000
vn 0.7165 0.5089 -0.4772
vn 0.3916 -0.0203 0.9199
vn -0.3916 -0.0203 -0.9199
vn -0.4772 0.5089 -0.7165
vn 0.8104 0.4802 0.3357
vn -0.7165 0.5089 0.4772
vn 0.3357 0.4802 -0.8104
vn -0.8104 0.4802 -0.3357
vn 0.4772 0.5089 0.7165
vn -0.9998 0.0185 0.0100
vn -0.0098 -0.0000 1.0000
vn 0.0106 0.0022 -0.9999
vn -0.8576 0.5137 0.0237
vn 0.8162 -0.5737 0.0685
vn -0.0174 -0.0001 0.9998
vn -0.5572 0.8304 0.0062
vn -0.0004 -0.0087 -1.0000
vn -0.0134 0.0040 0.9999
vn 0.0013 -0.0069 -1.0000
vn -0.2036 0.9790 0.0091
vn 0.1886 0.9820 0.0070
vn -0.0037 -0.0011 1.0000
vn -0.0109 -0.0032 -0.9999
vn 0.5481 0.8364 0.0052
vn -0.0093 0.0011 -1.0000
vn 0.8456 0.5337 0.0071
vn -0.8534 -0.5213 -0.0057
vn 0.0058 0.0019 1.0000
vn -0.0081 -0.0044 -1.0000
vn 0.9993 0.0281 0.0253
vn 0.0099 -0.0005 1.0000
vn 0.0099 -0.9999 0.0098
vn 0.0078 -0.0049 -1.0000
vn -0.0099 -0.9999 -0.0098
vn -0.0020 -0.0027 -1.0000
vn -0.9979 -0.0042 0.0650
vn -0.0020 0.9992 0.0398
vn 0.9979 -0.0042 -0.0650
vn 0.0020 -0.0027 1.0000
vn 0.0020 -0.9992 0.0398
vn 0.0012 -0.9997 -0.0248
vn -0.0015 -0.0213 -0.9998
vn -0.9993 -0.0345 0.0124
vn -0.0014 1.0000 0.0077
vn 0.9993 -0.0345 -0.0124
vn 0.0015 -0.0213 0.9998
vn 0.0014 -1.0000 0.0077
vn -0.0234 0.0001 -0.9997
vn -0.0000 -0.0001 -1.0000
vn -0.0505 -0.0000 0.9987
vt 0.00000 0.26529
vt 0.00000 0.51775
vt 0.00000 0.72869
vt 0.00000 0.85397
vt 0.00000 0.92505
vt 0.00000 0.96277
vt 0.00017 0.94391
vt 0.00034 0.90247
vt 0.00038 0.87654
vt 0.00038 0.88951
vt 0.00046 0.00056
vt 0.00046 0.52961
vt 0.00050 0.25350
vt 0.00050 0.71651
vt 0.00076 0.86526
vt 0.00076 0.91376
vt 0.00610 0.92505
vt 0.00610 0.96277
vt 0.00626 0.94391
vt 0.01194 0.86526
vt 0.01194 0.91376
vt 0.01233 0.88951
vt 0.01233 0.90248
vt 0.01236 0.87655
vt 0.01707 0.72830
vt 0.01707 0.85357
vt 0.02401 0.86526
vt 0.02401 0.90298
vt 0.02445 0.88412
vt 0.02546 0.96206
vt 0.02565 0.94386
vt 0.03010 0.86526
vt 0.03010 0.90298
vt 0.03054 0.88412
vt 0.03414 0.72869
vt 0.03414 0.85397
vt 0.03839 0.93086
vt 0.03846 0.97484
vt 0.04545 0.72845
vt 0.04545 0.85389
vt 0.04545 0.91933
vt 0.05662 0.93101
vt 0.05668 0.97499
vt 0.05764 0.90974
vt 0.06252 0.72830
vt 0.06252 0.85374
vt 0.06943 0.96199
vt 0.06961 0.94378
vt 0.06984 0.86519
vt 0.06984 0.91933
vt 0.07959 0.72845
vt 0.07959 0.85389
vt 0.08115 0.97285
vt 0.08147 0.89990
vt 0.08156 0.87979
vt 0.09089 0.72845
vt 0.09089 0.85389
vt 0.09568 0.86542
vt 0.09572 0.91414
vt 0.10181 0.97237
vt 0.10192 0.92578
vt 0.10796 0.72830
vt 0.10796 0.85374
vt 0.11587 0.86551
vt 0.11591 0.91424
vt 0.12248 0.97285
vt 0.12503 0.72845
vt 0.12503 0.85389
vt 0.13004 0.89986
vt 0.13012 0.87976
vt 0.13634 0.72845
vt 0.13634 0.85389
vt 0.14175 0.86595
vt 0.14175 0.91268
vt 0.14175 0.97183
vt 0.15341 0.72830
vt 0.15341 0.85374
vt 0.16214 0.92475
vt 0.16242 0.97135
vt 0.16314 0.92476
vt 0.17048 0.72845
vt 0.17048 0.85389
vt 0.17604 0.86575
vt 0.17613 0.91268
vt 0.18178 0.78785
vt 0.18178 0.83459
vt 0.18224 0.72886
vt 0.18229 0.77606
vt 0.18308 0.97183
vt 0.18331 0.78785
vt 0.18331 0.83459
vt 0.18433 0.72879
vt 0.18438 0.77599
vt 0.18755 0.52954
vt 0.18759 0.71643
vt 0.19935 0.52944
vt 0.19935 0.65472
vt 0.19935 0.66641
vt 0.19935 0.79168
vt 0.19935 0.80313
vt 0.19935 0.92858
vt 0.19958 0.95303
vt 0.19973 0.97124
vt 0.21252 0.98423
vt 0.21259 0.94029
vt 0.21643 0.52905
vt 0.21643 0.65432
vt 0.21643 0.66602
vt 0.21643 0.79129
vt 0.21643 0.80298
vt 0.21643 0.92842
vt 0.23073 0.98405
vt 0.23080 0.94010
vt 0.23350 0.52944
vt 0.23350 0.65472
vt 0.23350 0.66641
vt 0.23350 0.79168
vt 0.23350 0.80313
vt 0.23350 0.92858
vt 0.24358 0.95309
vt 0.24373 0.97130
vt 0.24480 0.52981
vt 0.24480 0.59432
vt 0.24480 0.60715
vt 0.24480 0.67166
vt 0.24480 0.80868
vt 0.24480 0.84640
vt 0.24480 0.85770
vt 0.24480 0.89541
vt 0.24524 0.82754
vt 0.24524 0.87656
vt 0.24531 0.74987
vt 0.24531 0.79739
vt 0.24632 0.77363
vt 0.24734 0.74987
vt 0.24734 0.79739
vt 0.24864 0.52961
vt 0.24864 0.60695
vt 0.24873 0.59432
vt 0.24873 0.67166
vt 0.25089 0.80868
vt 0.25089 0.84640
vt 0.25089 0.85770
vt 0.25089 0.89541
vt 0.25133 0.82754
vt 0.25133 0.87656
vt 0.25260 0.26529
vt 0.25260 0.51775
vt 0.25362 0.00049
vt 0.25366 0.25342
vt 0.26543 0.00076
vt 0.26543 0.25323
vt 0.26543 0.71386
vt 0.26543 0.83913
vt 0.26558 0.50551
vt 0.26559 0.70191
vt 0.26565 0.94389
vt 0.26581 0.96210
vt 0.26588 0.26585
vt 0.26593 0.49338
vt 0.26619 0.91904
vt 0.26781 0.87408
vt 0.27503 0.91895
vt 0.27561 0.00056
vt 0.27570 0.25323
vt 0.27571 0.85995
vt 0.27653 0.87744
vt 0.27859 0.97509
vt 0.27866 0.93115
vt 0.28250 0.71347
vt 0.28250 0.83874
vt 0.28588 0.86425
vt 0.28675 0.85265
vt 0.28743 0.00076
vt 0.28743 0.25323
vt 0.29680 0.97491
vt 0.29687 0.93097
vt 0.29761 0.00056
vt 0.29770 0.25323
vt 0.29957 0.71386
vt 0.29957 0.83913
vt 0.29973 0.85043
vt 0.30388 0.86028
vt 0.30944 0.00030
vt 0.30944 0.25372
vt 0.30966 0.94395
vt 0.30980 0.96217
vt 0.31087 0.71386
vt 0.31087 0.83913
vt 0.31270 0.85268
vt 0.31711 0.86657
vt 0.31935 0.00027
vt 0.31961 0.25353
vt 0.32134 0.93074
vt 0.32134 0.96845
vt 0.32150 0.94959
vt 0.32276 0.87656
vt 0.32375 0.85995
vt 0.32464 0.91895
vt 0.32744 0.93074
vt 0.32744 0.96845
vt 0.32760 0.94959
vt 0.32794 0.71347
vt 0.32794 0.83874
vt 0.33143 0.00030
vt 0.33143 0.25372
vt 0.33177 0.87465
vt 0.33351 0.91893
vt 0.34134 0.00027
vt 0.34161 0.25353
vt 0.34501 0.71386
vt 0.34501 0.83913
vt 0.34534 0.86624
vt 0.34534 0.88860
vt 0.34534 0.96279
vt 0.35342 0.00000
vt 0.35342 0.22706
vt 0.35343 0.23866
vt 0.35343 0.25079
vt 0.35632 0.71386
vt 0.35632 0.83913
vt 0.35698 0.23863
vt 0.35725 0.25061
vt 0.36116 0.85043
vt 0.36116 0.90440
vt 0.36382 0.63153
vt 0.36398 0.57581
vt 0.36529 0.91572
vt 0.36601 0.96231
vt 0.36645 0.91571
vt 0.36907 0.23866
vt 0.36907 0.25079
vt 0.37262 0.23863
vt 0.37289 0.25061
vt 0.37339 0.71347
vt 0.37339 0.83874
vt 0.38353 0.85043
vt 0.38353 0.90440
vt 0.38470 0.23836
vt 0.38470 0.24954
vt 0.38667 0.96279
vt 0.39046 0.71386
vt 0.39046 0.83913
vt 0.39334 0.23836
vt 0.39334 0.24954
vt 0.39798 0.91570
vt 0.39836 0.94720
vt 0.39887 0.91570
vt 0.39934 0.86624
vt 0.39934 0.88860
vt 0.40176 0.71386
vt 0.40176 0.83913
vt 0.40464 0.23836
vt 0.40464 0.24954
vt 0.41065 0.90458
vt 0.41065 0.96296
vt 0.41328 0.23836
vt 0.41328 0.24954
vt 0.41883 0.71347
vt 0.41883 0.83874
vt 0.42284 0.89499
vt 0.42458 0.24183
vt 0.42723 0.23836
vt 0.42723 0.24446
vt 0.42987 0.24100
vt 0.43103 0.91588
vt 0.43131 0.96248
vt 0.43203 0.91589
vt 0.43504 0.85043
vt 0.43504 0.90458
vt 0.43590 0.71386
vt 0.43590 0.83913
vt 0.44770 0.83191
vt 0.44770 0.89599
vt 0.44785 0.79040
vt 0.44785 0.85447
vt 0.44797 0.77961
vt 0.44797 0.84369
vt 0.45198 0.96296
vt 0.45915 0.77961
vt 0.45915 0.84369
vt 0.45924 0.78953
vt 0.45924 0.85360
vt 0.45965 0.83162
vt 0.45965 0.89570
vt 0.46221 0.50543
vt 0.46222 0.70183
vt 0.47368 0.50517
vt 0.47368 0.70176
vt 0.47368 0.71382
vt 0.47368 0.89009
vt 0.47400 0.91672
vt 0.47400 0.93686
vt 0.48821 0.95120
vt 0.48829 0.90256
vt 0.49363 0.26578
vt 0.49368 0.49331
vt 0.50544 0.26605
vt 0.50544 0.49311
vt 0.50837 0.95101
vt 0.50844 0.90238
vt 0.51435 0.26585
vt 0.51445 0.49311
vt 0.52265 0.91672
vt 0.52265 0.93686
vt 0.52617 0.26605
vt 0.52617 0.49311
vt 0.53428 0.94998
vt 0.53509 0.26585
vt 0.53518 0.49311
vt 0.54692 0.26559
vt 0.54692 0.49361
vt 0.55423 0.90216
vt 0.55495 0.94979
vt 0.55548 0.90215
vt 0.55556 0.26556
vt 0.55582 0.49342
vt 0.55871 0.71362
vt 0.55880 0.89009
vt 0.56764 0.26559
vt 0.56764 0.49361
vt 0.57053 0.71382
vt 0.57053 0.89009
vt 0.57561 0.94998
vt 0.57628 0.26556
vt 0.57654 0.49342
vt 0.58060 0.00000
vt 0.58060 0.22706
vt 0.58692 0.94998
vt 0.59191 0.20788
vt 0.59191 0.24560
vt 0.59234 0.22674
vt 0.59799 0.20788
vt 0.59799 0.24560
vt 0.59843 0.22674
vt 0.60714 0.90215
vt 0.60758 0.94979
vt 0.60830 0.90216
vt 0.61191 0.26529
vt 0.61191 0.45171
vt 0.61235 0.47571
vt 0.61252 0.46341
vt 0.61258 0.48801
vt 0.61318 0.47571
vt 0.61547 0.00076
vt 0.61547 0.18719
vt 0.61547 0.21506
vt 0.61547 0.23741
vt 0.62083 0.00056
vt 0.62092 0.18719
vt 0.62825 0.94998
vt 0.63128 0.19925
vt 0.63128 0.25322
vt 0.63265 0.00076
vt 0.63265 0.18719
vt 0.63801 0.00056
vt 0.63810 0.18719
vt 0.63965 0.92594
vt 0.64984 0.00030
vt 0.64984 0.18768
vt 0.65007 0.47571
vt 0.65024 0.46341
vt 0.65031 0.48801
vt 0.65091 0.47571
vt 0.65365 0.19925
vt 0.65365 0.25322
vt 0.65492 0.00027
vt 0.65519 0.18749
vt 0.65556 0.71362
vt 0.65565 0.89009
vt 0.66181 0.90228
vt 0.66187 0.94951
vt 0.66701 0.00030
vt 0.66701 0.18768
vt 0.66738 0.77921
vt 0.66738 0.82645
vt 0.66941 0.77921
vt 0.66941 0.82645
vt 0.66946 0.21506
vt 0.66946 0.23741
vt 0.67037 0.50517
vt 0.67037 0.70176
vt 0.67209 0.00027
vt 0.67235 0.18749
vt 0.68190 0.89788
vt 0.68190 0.97536
vt 0.68205 0.95715
vt 0.68208 0.91803
vt 0.68213 0.50574
vt 0.68217 0.68247
vt 0.68218 0.69472
vt 0.68244 0.87179
vt 0.68416 0.00000
vt 0.68416 0.17627
vt 0.68462 0.18813
vt 0.68466 0.25311
vt 0.69483 0.94416
vt 0.69491 0.98810
vt 0.69625 0.88368
vt 0.69625 0.93231
vt 0.69636 0.18806
vt 0.69641 0.25304
vt 0.70817 0.18757
vt 0.70817 0.25208
vt 0.71304 0.94434
vt 0.71312 0.98828
vt 0.71640 0.88368
vt 0.71640 0.93231
vt 0.71935 0.18757
vt 0.71935 0.25208
vt 0.72590 0.97530
vt 0.72605 0.95708
vt 0.73056 0.89796
vt 0.73074 0.91810
vt 0.73116 0.24666
vt 0.73131 0.20224
vt 0.73142 0.18757
vt 0.73781 0.95708
vt 0.73796 0.97530
vt 0.74260 0.18757
vt 0.74260 0.89792
vt 0.74260 0.91806
vt 0.74269 0.20166
vt 0.74307 0.24639
vt 0.75074 0.98828
vt 0.75082 0.94434
vt 0.75517 0.24666
vt 0.75532 0.20224
vt 0.75543 0.18757
vt 0.75681 0.93240
vt 0.75689 0.88377
vt 0.76661 0.18757
vt 0.76670 0.20166
vt 0.76708 0.24639
vt 0.76730 0.69453
vt 0.76730 0.87176
vt 0.76896 0.98810
vt 0.76903 0.94416
vt 0.77697 0.93222
vt 0.77705 0.88358
vt 0.77868 0.20337
vt 0.77868 0.22573
vt 0.77912 0.69472
vt 0.77938 0.87179
vt 0.78181 0.95715
vt 0.78196 0.97536
vt 0.79126 0.89792
vt 0.79126 0.91806
vt 0.79373 0.97536
vt 0.79387 0.95715
vt 0.79449 0.18757
vt 0.79449 0.24154
vt 0.79844 0.26529
vt 0.79844 0.45171
vt 0.80312 0.91810
vt 0.80321 0.89792
vt 0.80666 0.94416
vt 0.80673 0.98810
vt 0.80974 0.26568
vt 0.80974 0.39095
vt 0.81051 0.47086
vt 0.81212 0.42590
vt 0.81686 0.18757
vt 0.81686 0.24154
vt 0.81746 0.88368
vt 0.81750 0.93222
vt 0.81934 0.47077
vt 0.82003 0.41177
vt 0.82084 0.42926
vt 0.82487 0.94434
vt 0.82494 0.98828
vt 0.82681 0.26529
vt 0.82681 0.39056
vt 0.83020 0.41607
vt 0.83107 0.40447
vt 0.83268 0.20337
vt 0.83268 0.22573
vt 0.83758 0.88377
vt 0.83761 0.93231
vt 0.83773 0.97530
vt 0.83787 0.95708
vt 0.84388 0.26568
vt 0.84388 0.39095
vt 0.84398 0.20337
vt 0.84398 0.22573
vt 0.84405 0.40225
vt 0.84819 0.41210
vt 0.84941 0.94393
vt 0.84941 0.95691
vt 0.84941 0.97460
vt 0.85186 0.91806
vt 0.85196 0.89788
vt 0.85519 0.26544
vt 0.85519 0.39088
vt 0.85701 0.40450
vt 0.85905 0.50567
vt 0.85910 0.68240
vt 0.85980 0.18757
vt 0.85980 0.24154
vt 0.86052 0.00000
vt 0.86052 0.17627
vt 0.86059 0.94738
vt 0.86059 0.96507
vt 0.86059 0.97805
vt 0.86142 0.41839
vt 0.86424 0.69453
vt 0.86424 0.87176
vt 0.86708 0.42838
vt 0.86807 0.41177
vt 0.86895 0.47077
vt 0.87086 0.50533
vt 0.87086 0.63077
vt 0.87086 0.64206
vt 0.87086 0.67978
vt 0.87130 0.66092
vt 0.87182 0.00015
vt 0.87182 0.12559
vt 0.87182 0.13689
vt 0.87182 0.17461
vt 0.87226 0.15575
vt 0.87226 0.26529
vt 0.87226 0.39073
vt 0.87555 0.69442
vt 0.87555 0.81986
vt 0.87555 0.83115
vt 0.87555 0.88530
vt 0.87588 0.91117
vt 0.87588 0.93131
vt 0.87609 0.42647
vt 0.87695 0.64206
vt 0.87695 0.67978
vt 0.87739 0.66092
vt 0.87783 0.47075
vt 0.87792 0.13689
vt 0.87792 0.17461
vt 0.87835 0.15575
vt 0.88216 0.18757
vt 0.88216 0.24154
vt 0.88775 0.87571
vt 0.88793 0.50517
vt 0.88793 0.63062
vt 0.88869 0.64206
vt 0.88869 0.67978
vt 0.88890 0.00000
vt 0.88890 0.12544
vt 0.88913 0.66092
vt 0.88933 0.26544
vt 0.88933 0.39088
vt 0.88966 0.13689
vt 0.88966 0.17461
vt 0.88966 0.40225
vt 0.88966 0.45640
vt 0.89009 0.15575
vt 0.89009 0.94565
vt 0.89016 0.89701
vt 0.89262 0.69426
vt 0.89262 0.81971
vt 0.89478 0.64206
vt 0.89478 0.67978
vt 0.89522 0.66092
vt 0.89575 0.13689
vt 0.89575 0.17461
vt 0.89618 0.15575
vt 0.89798 0.20337
vt 0.89798 0.22573
vt 0.89995 0.83115
vt 0.89995 0.88530
vt 0.90086 0.30004
vt 0.90096 0.27985
vt 0.90096 0.36057
vt 0.90105 0.34047
vt 0.90186 0.44681
vt 0.90500 0.50533
vt 0.90500 0.63077
vt 0.90597 0.00015
vt 0.90597 0.12559
vt 0.90929 0.18833
vt 0.90929 0.23506
vt 0.90969 0.69442
vt 0.90969 0.81986
vt 0.91024 0.94546
vt 0.91032 0.89683
vt 0.91125 0.87898
vt 0.91406 0.40225
vt 0.91406 0.45640
vt 0.91517 0.32609
vt 0.91521 0.26561
vt 0.91521 0.37481
vt 0.91525 0.31415
vt 0.91631 0.55300
vt 0.91631 0.61213
vt 0.91631 0.67125
vt 0.91727 0.04783
vt 0.91727 0.10695
vt 0.91727 0.16534
vt 0.92100 0.74135
vt 0.92100 0.79973
vt 0.92453 0.91117
vt 0.92453 0.93131
vt 0.92536 0.44934
vt 0.92536 0.49356
vt 0.92800 0.49348
vt 0.92812 0.46065
vt 0.93064 0.49356
vt 0.93120 0.83116
vt 0.93192 0.87880
vt 0.93245 0.83116
vt 0.93533 0.26570
vt 0.93536 0.31424
vt 0.93536 0.32619
vt 0.93540 0.37491
vt 0.93626 0.92038
vt 0.93639 0.96857
vt 0.93653 0.50518
vt 0.93657 0.98677
vt 0.93697 0.55282
vt 0.93697 0.61194
vt 0.93697 0.67107
vt 0.93730 0.56430
vt 0.93730 0.62343
vt 0.93769 0.50518
vt 0.93771 0.00001
vt 0.93771 0.05913
vt 0.93794 0.04764
vt 0.93794 0.10677
vt 0.93794 0.16486
vt 0.93807 0.11826
vt 0.94094 0.69428
vt 0.94166 0.74087
vt 0.94166 0.79926
vt 0.94180 0.75266
vt 0.94195 0.49356
vt 0.94210 0.69427
vt 0.94357 0.18813
vt 0.94366 0.23506
vt 0.94459 0.49348
vt 0.94471 0.46065
vt 0.94603 0.44886
vt 0.94613 0.40226
vt 0.94723 0.49356
vt 0.94932 0.99977
vt 0.94938 0.95579
vt 0.94953 0.36054
vt 0.94961 0.30000
vt 0.94961 0.34043
vt 0.94971 0.27981
vt 0.95258 0.87898
vt 0.95562 0.21900
vt 0.95581 0.20080
vt 0.95764 0.55300
vt 0.95764 0.61213
vt 0.95764 0.67125
vt 0.95842 0.89673
vt 0.95847 0.94395
vt 0.95860 0.04783
vt 0.95860 0.10695
vt 0.95860 0.16534
vt 0.96124 0.26529
vt 0.96124 0.30300
vt 0.96124 0.31430
vt 0.96124 0.35202
vt 0.96141 0.28414
vt 0.96141 0.33316
vt 0.96233 0.74135
vt 0.96233 0.79973
vt 0.96388 0.83115
vt 0.96388 0.86887
vt 0.96405 0.85001
vt 0.96669 0.44934
vt 0.96734 0.26529
vt 0.96734 0.30300
vt 0.96734 0.31430
vt 0.96734 0.35202
vt 0.96751 0.28414
vt 0.96751 0.33316
vt 0.96754 0.99962
vt 0.96761 0.95564
vt 0.96855 0.18779
vt 0.96861 0.23177
vt 0.96894 0.50517
vt 0.96894 0.54289
vt 0.96894 0.55419
vt 0.96894 0.59190
vt 0.96894 0.60320
vt 0.96894 0.64092
vt 0.96911 0.52403
vt 0.96911 0.57305
vt 0.96911 0.62206
vt 0.96998 0.83115
vt 0.96998 0.86887
vt 0.97015 0.85001
vt 0.97017 0.00001
vt 0.97017 0.04611
vt 0.97036 0.03430
vt 0.97036 0.08040
vt 0.97041 0.13647
vt 0.97045 0.89660
vt 0.97091 0.16797
vt 0.97095 0.92809
vt 0.97144 0.13647
vt 0.97149 0.89660
vt 0.97266 0.00001
vt 0.97266 0.04611
vt 0.97268 0.03404
vt 0.97268 0.08014
vt 0.97363 0.77985
vt 0.97401 0.81134
vt 0.97452 0.77985
vt 0.97504 0.50517
vt 0.97504 0.54289
vt 0.97504 0.55419
vt 0.97504 0.59190
vt 0.97504 0.60320
vt 0.97504 0.64092
vt 0.97520 0.52403
vt 0.97520 0.57305
vt 0.97520 0.62206
vt 0.98035 0.96864
vt 0.98054 0.98685
vt 0.98678 0.18794
vt 0.98684 0.23192
vt 0.99959 0.21892
vt 0.99977 0.20072
s 0
usemtl RTS_stone
f 1/147/145 3/148/145 7/2/145
f 1/147/46 7/2/46 5/1/46
f 1/164/101 6/152/101 2/151/101
f 1/164/215 5/165/215 6/152/215
f 101/641/172 99/615/172 97/613/172
f 101/641/73 97/613/73 93/677/73
f 11/325/148 9/326/148 10/321/148
f 11/325/49 10/321/49 12/320/49
f 128/386/180 130/387/180 132/397/180
f 128/473/164 142/460/164 143/459/164
f 128/473/171 129/472/171 131/482/171
f 128/473/65 143/459/65 129/472/65
f 128/473/72 131/482/72 130/483/72
f 13/316/147 15/317/147 16/312/147
f 13/316/48 16/312/48 14/311/48
f 131/104/175 129/103/175 143/102/175
f 132/397/177 134/405/177 136/412/177
f 132/397/75 136/412/75 140/406/75
f 132/77/165 133/76/165 135/81/165
f 132/77/170 130/72/170 131/71/170
f 132/77/66 135/81/66 134/82/66
f 132/77/71 131/71/71 133/76/71
f 135/121/174 133/112/174 131/104/174
f 135/121/73 131/104/73 143/102/73
f 136/171/166 134/154/166 135/153/166
f 136/171/167 137/170/167 139/180/167
f 136/171/67 135/153/67 137/170/67
f 136/171/68 139/180/68 138/181/68
f 136/412/178 138/411/178 140/406/178
f 139/113/173 137/120/173 135/121/173
f 14/159/142 16/296/142 12/297/142
f 14/159/43 12/297/43 10/160/43
f 140/406/179 142/398/179 128/386/179
f 140/406/75 128/386/75 132/397/75
f 140/557/168 138/524/168 139/523/168
f 140/557/169 141/556/169 143/579/169
f 140/557/69 139/523/69 141/556/69
f 140/557/70 143/579/70 142/580/70
f 143/102/172 141/105/172 139/113/172
f 143/102/73 139/113/73 135/121/73
f 15/309/149 11/310/149 12/307/149
f 15/309/50 12/307/50 16/306/50
f 170/26/164 184/4/164 185/3/164
f 170/26/171 171/25/171 173/35/171
f 170/26/65 185/3/65 171/25/65
f 170/26/72 173/35/72 172/36/72
f 170/449/180 172/450/180 174/457/180
f 173/425/175 171/419/175 185/418/175
f 174/457/177 176/470/177 178/481/177
f 174/457/75 178/481/75 182/471/75
f 174/522/165 175/521/165 177/547/165
f 174/522/170 172/494/170 173/493/170
f 174/522/66 177/547/66 176/548/66
f 174/522/71 173/493/71 175/521/71
f 177/446/174 175/437/174 173/425/174
f 177/446/73 173/425/73 185/418/73
f 178/204/166 176/189/166 177/188/166
f 178/204/167 179/203/167 181/211/167
f 178/204/67 177/188/67 179/203/67
f 178/204/68 181/211/68 180/212/68
f 178/481/178 180/480/178 182/471/178
f 181/438/173 179/445/173 177/446/173
f 182/111/168 180/101/168 181/100/168
f 182/111/169 183/110/169 185/118/169
f 182/111/69 181/100/69 183/110/69
f 182/111/70 185/118/70 184/119/70
f 182/471/179 184/458/179 170/449/179
f 182/471/75 170/449/75 174/457/75
f 185/418/172 183/426/172 181/438/172
f 185/418/73 181/438/73 177/446/73
f 212/161/122 218/167/122 214/163/122
f 212/161/231 216/162/231 218/167/231
f 212/424/208 213/415/208 217/416/208
f 212/424/93 217/416/93 216/423/93
f 213/254/123 214/257/123 215/258/123
f 213/254/232 212/253/232 214/257/232
f 213/533/209 215/510/209 219/508/209
f 213/533/95 219/508/95 217/529/95
f 215/284/94 214/273/94 218/275/94
f 215/284/94 218/275/94 219/282/94
f 216/423/211 217/416/211 221/417/211
f 216/423/97 221/417/97 220/420/97
f 218/167/210 216/162/210 220/166/210
f 218/167/96 220/166/96 222/172/96
f 218/275/212 222/277/212 223/280/212
f 218/275/98 223/280/98 219/282/98
f 219/508/213 223/505/213 221/509/213
f 219/508/99 221/509/99 217/529/99
f 220/15/100 225/24/100 224/9/100
f 220/15/214 221/20/214 225/24/214
f 222/490/103 226/503/103 223/504/103
f 224/173/104 229/183/104 222/172/104
f 224/173/217 227/182/217 229/183/217
f 224/173/31 222/172/31 220/166/31
f 224/9/105 228/22/105 227/10/105
f 224/9/218 225/24/218 228/22/218
f 225/495/102 223/505/102 226/487/102
f 225/495/216 221/509/216 223/505/216
f 226/487/107 228/486/107 225/495/107
f 226/487/108 231/475/108 228/486/108
f 226/487/220 232/474/220 231/475/220
f 227/10/106 231/23/106 230/8/106
f 227/10/219 228/22/219 231/23/219
f 229/489/109 232/502/109 226/503/109
f 229/489/32 226/503/32 222/490/32
f 230/190/33 229/183/33 227/182/33
f 230/8/111 234/21/111 233/16/111
f 230/8/222 231/23/222 234/21/222
f 232/474/113 234/468/113 231/475/113
f 233/198/112 238/197/112 235/191/112
f 233/198/223 236/207/223 238/197/223
f 233/429/114 237/433/114 236/428/114
f 233/429/224 234/432/224 237/433/224
f 234/468/116 239/469/116 237/462/116
f 234/468/226 232/474/226 239/469/226
f 235/191/110 230/190/110 233/198/110
f 235/191/221 229/183/221 230/190/221
f 235/281/115 239/276/115 232/278/115
f 235/281/225 238/283/225 239/276/225
f 235/488/34 232/502/34 229/489/34
f 236/428/118 241/434/118 240/427/118
f 236/428/228 237/433/228 241/434/228
f 238/197/117 240/208/117 242/199/117
f 238/197/227 236/207/227 240/208/227
f 239/276/119 238/283/119 242/285/119
f 239/276/119 242/285/119 243/274/119
f 239/469/120 241/461/120 237/462/120
f 239/469/229 243/467/229 241/461/229
f 240/244/121 243/240/121 242/239/121
f 240/244/230 241/245/230 243/240/230
f 257/137/131 262/123/131 258/122/131
f 257/137/240 261/139/240 262/123/240
f 257/403/137 263/410/137 261/404/137
f 257/403/245 259/409/245 263/410/245
f 259/233/135 258/232/135 260/231/135
f 259/233/243 257/234/243 258/232/243
f 261/222/133 264/219/133 262/218/133
f 261/222/241 263/223/241 264/219/241
f 262/395/134 260/402/134 258/396/134
f 262/395/242 264/401/242 260/402/242
f 263/138/136 260/125/136 264/124/136
f 263/138/244 259/140/244 260/125/244
f 3/209/143 1/210/143 2/206/143
f 3/209/44 2/206/44 4/205/44
f 44/107/164 58/97/164 59/96/164
f 44/107/171 45/106/171 47/114/171
f 44/107/65 59/96/65 45/106/65
f 44/107/72 47/114/72 46/115/72
f 44/721/180 46/679/180 48/648/180
f 47/43/175 45/38/175 59/30/175
f 48/541/165 49/540/165 51/573/165
f 48/541/170 46/512/170 47/511/170
f 48/541/66 51/573/66 50/574/66
f 48/541/71 47/511/71 49/540/71
f 48/648/177 50/649/177 52/678/177
f 48/648/75 52/678/75 56/723/75
f 5/192/141 7/193/141 8/185/141
f 5/192/42 8/185/42 6/184/42
f 51/48/174 49/47/174 47/43/174
f 51/48/73 47/43/73 59/30/73
f 52/236/166 50/221/166 51/220/166
f 52/236/167 53/235/167 55/242/167
f 52/236/67 51/220/67 53/235/67
f 52/236/68 55/242/68 54/243/68
f 52/678/178 54/720/178 56/723/178
f 55/37/173 53/42/173 51/48/173
f 56/46/168 54/40/168 55/39/168
f 56/46/169 57/45/169 59/51/169
f 56/46/69 55/39/69 57/45/69
f 56/46/70 59/51/70 58/52/70
f 56/723/179 58/722/179 44/721/179
f 56/723/75 44/721/75 48/648/75
f 59/30/172 57/31/172 55/37/172
f 59/30/73 55/37/73 51/48/73
f 6/11/142 8/149/142 4/150/142
f 6/11/43 4/150/43 2/13/43
f 7/178/144 3/179/144 4/175/144
f 7/178/45 4/175/45 8/174/45
f 86/109/164 100/99/164 101/98/164
f 86/109/171 87/108/171 89/116/171
f 86/109/65 101/98/65 87/108/65
f 86/109/72 89/116/72 88/117/72
f 86/168/180 88/158/180 90/157/180
f 89/719/175 87/676/175 101/641/175
f 9/302/146 13/303/146 14/299/146
f 9/302/47 14/299/47 10/298/47
f 9/327/145 11/328/145 15/217/145
f 9/327/46 15/217/46 13/216/46
f 90/157/177 92/169/177 94/177/177
f 90/157/75 94/177/75 98/187/75
f 90/545/165 91/544/165 93/575/165
f 90/545/170 88/517/170 89/516/170
f 90/545/66 93/575/66 92/576/66
f 90/545/71 89/516/71 91/544/71
f 93/677/174 91/718/174 89/719/174
f 93/677/73 89/719/73 101/641/73
f 94/177/178 96/186/178 98/187/178
f 94/260/166 92/252/166 93/251/166
f 94/260/167 95/259/167 97/271/167
f 94/260/67 93/251/67 95/259/67
f 94/260/68 97/271/68 96/272/68
f 97/613/173 95/642/173 93/677/173
f 98/187/179 100/176/179 86/168/179
f 98/187/75 86/168/75 90/157/75
f 98/63/168 96/57/168 97/56/168
f 98/63/169 99/62/169 101/67/169
f 98/63/69 97/56/69 99/62/69
f 98/63/70 101/67/70 100/68/70
usemtl RTS_stone_dressed
f 17/318/150 21/319/150 22/291/150
f 17/318/51 22/291/51 18/290/51
f 17/500/155 19/501/155 23/394/155
f 17/500/56 23/394/56 21/393/56
f 19/444/153 17/443/153 18/506/153
f 19/444/54 18/506/54 20/507/54
f 21/392/151 23/391/151 24/435/151
f 21/392/52 24/435/52 22/436/52
f 22/389/152 24/496/152 20/497/152
f 22/389/53 20/497/53 18/390/53
f 23/369/154 19/370/154 20/323/154
f 23/369/55 20/323/55 24/322/55
usemtl RTS_azure_trim
f 102/294/196 104/293/196 106/292/196
f 102/294/85 106/292/85 110/301/85
f 102/553/200 116/549/200 117/561/200
f 102/553/74 117/561/74 103/563/74
f 104/550/187 102/553/187 103/563/187
f 104/550/82 103/563/82 105/562/82
f 105/414/190 103/408/190 117/400/190
f 105/414/83 117/400/83 113/385/83
f 106/292/197 108/295/197 110/301/197
f 106/686/186 104/680/186 105/709/186
f 106/686/81 105/709/81 107/715/81
f 108/681/181 106/686/181 107/715/181
f 108/681/76 107/715/76 109/710/76
f 109/407/189 107/413/189 105/414/189
f 110/130/201 108/126/201 109/141/201
f 110/130/77 109/141/77 111/145/77
f 110/301/194 112/304/194 114/305/194
f 110/301/198 114/305/198 102/294/198
f 112/127/183 110/130/183 111/145/183
f 112/127/78 111/145/78 113/142/78
f 113/385/188 111/399/188 109/407/188
f 113/385/192 109/407/192 105/414/192
f 114/305/195 116/300/195 102/294/195
f 114/662/184 112/658/184 113/670/184
f 114/662/79 113/670/79 115/674/79
f 116/659/185 114/662/185 115/674/185
f 116/659/80 115/674/80 117/671/80
f 117/400/191 115/388/191 113/385/191
f 118/477/75 119/464/75 120/452/75
f 120/452/75 121/442/75 123/441/75
f 120/452/75 123/441/75 125/463/75
f 121/596/202 122/628/202 126/633/202
f 121/596/87 126/633/87 123/629/87
f 122/622/14 120/624/14 119/593/14
f 122/622/15 121/655/15 120/624/15
f 122/639/13 119/669/13 118/638/13
f 122/639/18 118/638/18 127/600/18
f 123/441/75 124/451/75 125/463/75
f 125/463/75 118/477/75 120/452/75
f 125/463/75 127/476/75 118/477/75
f 126/336/17 125/337/17 124/329/17
f 126/633/16 124/664/16 123/629/16
f 127/351/203 125/337/203 126/336/203
f 127/351/88 126/336/88 122/338/88
f 144/455/196 146/456/196 148/465/196
f 144/455/85 148/465/85 152/492/85
f 144/515/176 158/513/176 159/530/176
f 144/515/74 159/530/74 145/532/74
f 146/514/187 144/515/187 145/532/187
f 146/514/82 145/532/82 147/531/82
f 147/430/190 145/422/190 159/421/190
f 147/430/83 159/421/83 155/440/83
f 148/465/197 150/478/197 152/492/197
f 148/663/186 146/660/186 147/672/186
f 148/663/81 147/672/81 149/675/81
f 150/661/181 148/663/181 149/675/181
f 150/661/76 149/675/76 151/673/76
f 151/448/189 149/439/189 147/430/189
f 152/131/182 150/128/182 151/143/182
f 152/131/77 151/143/77 153/146/77
f 152/492/194 154/491/194 156/479/194
f 152/492/198 156/479/198 144/455/198
f 154/129/183 152/131/183 153/146/183
f 154/129/78 153/146/78 155/144/78
f 155/440/188 153/447/188 151/448/188
f 155/440/192 151/448/192 147/430/192
f 156/479/195 158/466/195 144/455/195
f 156/687/184 154/682/184 155/711/184
f 156/687/79 155/711/79 157/716/79
f 158/683/185 156/687/185 157/716/185
f 158/683/80 157/716/80 159/712/80
f 159/421/191 157/431/191 155/440/191
f 160/499/75 161/485/75 162/484/75
f 161/583/204 168/605/204 163/607/204
f 161/583/89 163/607/89 162/606/89
f 162/484/75 164/498/75 165/537/75
f 162/484/75 165/537/75 167/565/75
f 163/607/20 164/647/20 162/606/20
f 163/78/21 165/79/21 164/75/21
f 165/537/75 166/564/75 167/565/75
f 166/89/205 165/79/205 163/78/205
f 166/89/90 163/78/90 168/80/90
f 167/565/75 160/499/75 162/484/75
f 167/565/75 169/538/75 160/499/75
f 168/620/22 167/618/22 166/592/22
f 168/620/23 169/652/23 167/618/23
f 168/631/19 161/665/19 160/630/19
f 168/631/24 160/630/24 169/597/24
f 186/520/200 200/518/200 201/534/200
f 186/520/74 201/534/74 187/536/74
f 186/568/196 188/569/196 190/587/196
f 186/568/85 190/587/85 194/646/85
f 188/519/187 186/520/187 187/536/187
f 188/519/82 187/536/82 189/535/82
f 189/554/190 187/528/190 201/527/190
f 189/554/83 201/527/83 197/582/83
f 190/196/186 188/194/186 189/200/186
f 190/196/81 189/200/81 191/202/81
f 190/587/197 192/608/197 194/646/197
f 192/195/181 190/196/181 191/202/181
f 192/195/76 191/202/76 193/201/76
f 193/599/189 191/581/189 189/554/189
f 194/29/201 192/27/201 193/32/201
f 194/29/77 193/32/77 195/34/77
f 194/646/194 196/644/194 198/609/194
f 194/646/198 198/609/198 186/568/198
f 196/28/183 194/29/183 195/34/183
f 196/28/78 195/34/78 197/33/78
f 197/582/188 195/598/188 193/599/188
f 197/582/192 193/599/192 189/554/192
f 198/609/195 200/589/195 186/568/195
f 198/688/184 196/684/184 197/713/184
f 198/688/79 197/713/79 199/717/79
f 200/685/185 198/688/185 199/717/185
f 200/685/80 199/717/80 201/714/80
f 201/527/191 199/555/191 197/582/191
f 202/250/75 203/238/75 204/225/75
f 204/225/75 206/214/75 207/213/75
f 204/225/75 207/213/75 209/237/75
f 205/230/25 203/241/25 202/229/25
f 205/614/26 204/616/26 203/590/26
f 206/650/206 204/616/206 205/614/206
f 206/650/91 205/614/91 211/621/91
f 207/213/75 208/224/75 209/237/75
f 209/237/75 202/250/75 204/225/75
f 209/237/75 210/249/75 202/250/75
f 210/215/207 211/228/207 205/230/207
f 210/215/92 205/230/92 202/229/92
f 211/61/27 207/60/27 206/53/27
f 211/61/28 208/66/28 207/60/28
f 211/623/29 209/625/29 208/594/29
f 211/623/30 210/656/30 209/625/30
f 25/349/156 29/350/156 30/346/156
f 25/349/57 30/346/57 26/345/57
f 25/453/155 27/454/155 31/340/155
f 25/453/56 31/340/56 29/339/56
f 27/383/158 25/384/158 26/374/158
f 27/383/59 26/374/59 28/373/59
f 29/367/157 31/368/157 32/360/157
f 29/367/58 32/360/58 30/359/58
f 30/12/152 32/94/152 28/95/152
f 30/12/53 28/95/53 26/14/53
f 31/356/159 27/357/159 28/355/159
f 31/356/60 28/355/60 32/354/60
f 34/287/1 35/156/1 38/226/1
f 36/155/2 33/286/2 37/227/2
f 36/382/162 35/289/162 34/288/162
f 36/382/63 34/288/63 33/381/63
f 37/227/160 33/286/160 34/287/160
f 37/227/61 34/287/61 38/226/61
f 38/226/161 35/156/161 36/155/161
f 38/226/62 36/155/62 37/227/62
f 60/546/176 74/542/176 75/558/176
f 60/546/74 75/558/74 61/560/74
f 60/65/196 62/59/196 64/54/196
f 60/65/85 64/54/85 68/58/85
f 62/543/187 60/546/187 61/560/187
f 62/543/82 61/560/82 63/559/82
f 63/611/190 61/588/190 75/570/190
f 63/611/83 75/570/83 71/586/83
f 64/54/197 66/55/197 68/58/197
f 64/668/186 62/666/186 63/689/186
f 64/668/81 63/689/81 65/691/81
f 66/667/181 64/668/181 65/691/181
f 66/667/76 65/691/76 67/690/76
f 67/645/189 65/643/189 63/611/189
f 68/332/182 66/330/182 67/333/182
f 68/332/77 67/333/77 69/335/77
f 68/58/194 70/64/194 72/70/194
f 68/58/198 72/70/198 60/65/198
f 70/331/183 68/332/183 69/335/183
f 70/331/78 69/335/78 71/334/78
f 71/586/188 69/610/188 67/645/188
f 71/586/192 67/645/192 63/611/192
f 72/7/184 70/5/184 71/17/184
f 72/7/79 71/17/79 73/19/79
f 72/70/195 74/69/195 60/65/195
f 74/6/185 72/7/185 73/19/185
f 74/6/80 73/19/80 75/18/80
f 75/570/191 73/571/191 71/586/191
f 76/353/75 77/348/75 78/347/75
f 77/279/193 76/267/193 84/266/193
f 77/279/84 84/266/84 79/268/84
f 78/347/75 80/352/75 81/365/75
f 78/347/75 81/365/75 83/380/75
f 79/619/7 78/617/7 77/591/7
f 79/619/8 80/651/8 78/617/8
f 79/627/10 82/657/10 81/626/10
f 79/627/9 81/626/9 80/595/9
f 81/365/75 82/379/75 83/380/75
f 82/308/199 79/313/199 84/315/199
f 82/308/86 84/315/86 83/314/86
f 83/380/75 76/353/75 78/347/75
f 83/380/75 85/366/75 76/353/75
f 84/266/12 76/267/12 85/256/12
f 84/315/11 85/324/11 83/314/11
usemtl RTS_iron
f 244/83/124 249/74/124 245/73/124
f 244/83/233 248/84/233 249/74/233
f 244/85/129 250/91/129 248/86/129
f 244/85/238 246/90/238 250/91/238
f 246/705/127 245/693/127 247/703/127
f 246/705/236 244/695/236 245/693/236
f 248/704/125 251/692/125 249/702/125
f 248/704/234 250/694/234 251/692/234
f 249/87/126 247/93/126 245/88/126
f 249/87/235 251/92/235 247/93/235
f 250/634/128 247/578/128 251/577/128
f 250/634/237 246/635/237 247/578/237
f 252/371/36 253/372/36 256/358/36
f 253/376/130 254/377/130 255/378/130
f 253/376/239 252/375/239 254/377/239
f 255/133/35 256/134/35 253/136/35
f 256/134/132 254/132/132 252/135/132
f 256/612/37 255/653/37 254/654/37
f 272/247/39 273/246/39 271/248/39
f 272/698/40 271/696/40 273/700/40
f 281/699/40 280/697/40 282/701/40
f 281/707/39 282/706/39 280/708/39
f 39/264/163 40/262/163 42/263/163
f 39/264/64 42/263/64 43/265/64
f 41/603/3 40/604/3 39/602/3
f 41/603/6 39/602/6 43/601/6
f 41/637/4 42/636/4 40/632/4
f 41/637/5 43/640/5 42/636/5
usemtl RTS_azure_cloth
f 266/343/38 269/341/38 268/344/38
f 267/269/139 268/261/139 270/255/139
f 267/269/248 266/270/248 268/261/248
f 267/525/247 265/566/247 270/567/247
f 269/539/138 267/525/138 270/567/138
f 269/539/246 266/526/246 267/525/246
f 270/342/140 268/344/140 269/341/140
f 275/363/41 278/361/41 277/364/41
f 276/49/139 277/44/139 279/41/139
f 276/49/248 275/50/248 277/44/248
f 276/551/247 274/584/247 279/585/247
f 278/572/138 276/551/138 279/585/138
f 278/572/246 275/552/246 276/551/246
f 279/362/140 277/364/140 278/361/140
