# Blender 4.0.2
# www.blender.org
mtllib rally_flag_crimson_collision.mtl
o rally_flag_crimson_collision
v 0.350000 0.000000 -0.350000
v 0.350000 3.000000 -0.350000
v 0.350000 0.000000 0.350000
v 0.350000 3.000000 0.350000
v -1.043668 0.000000 -0.350000
v -1.043668 3.000000 -0.350000
v -1.043668 0.000000 0.350000
v -1.043668 3.000000 0.350000
vn 1.0000 -0.0000 -0.0000
vn -0.0000 -0.0000 1.0000
vn -1.0000 -0.0000 -0.0000
vn -0.0000 -0.0000 -1.0000
vn -0.0000 -1.0000 -0.0000
vn -0.0000 1.0000 -0.0000
vt 0.00000 0.00000
vt 0.00000 0.68058
vt 0.00000 0.68383
vt 0.00000 1.00000
vt 0.16547 0.68383
vt 0.16547 1.00000
vt 0.16886 0.68383
vt 0.16886 1.00000
vt 0.32944 0.00000
vt 0.32944 0.68058
vt 0.33283 0.00000
vt 0.33283 0.68058
vt 0.33433 0.68383
vt 0.33433 1.00000
vt 0.66228 0.00000
vt 0.66228 0.68058
vt 0.66567 0.00000
vt 0.66567 0.68058
vt 0.83114 0.00000
vt 0.83114 0.68058
vt 0.83453 0.00000
vt 0.83453 0.68058
vt 1.00000 0.00000
vt 1.00000 0.68058
s 0
usemtl RTS_collision
f 2/17/1 3/20/1 1/18/1
f 2/17/1 4/19/1 3/20/1
f 4/1/2 7/10/2 3/2/2
f 4/1/2 8/9/2 7/10/2
f 4/14/6 2/8/6 6/7/6
f 4/14/6 6/7/6 8/13/6
f 6/11/4 1/16/4 5/12/4
f 6/11/4 2/15/4 1/16/4
f 7/6/5 1/3/5 3/5/5
f 7/6/5 5/4/5 1/3/5
f 8/21/3 5/24/3 7/22/3
f 8/21/3 6/23/3 5/24/3
