# Blender 4.0.2
# www.blender.org
mtllib rally_flag_crimson_lod1.mtl
o rally_flag_crimson_lod1
v 0.332500 0.012500 -0.337500
v 0.338462 0.143846 -0.333846
v 0.338462 0.016154 0.333846
v 0.332500 0.147500 0.337500
v -0.338462 0.016154 -0.333846
v -0.332500 0.147500 -0.337500
v -0.332500 0.012500 0.337500
v -0.338462 0.143846 0.333846
v 0.212500 0.172500 -0.217500
v 0.218462 0.283846 -0.213846
v 0.218462 0.176154 0.213846
v 0.212500 0.287500 0.217500
v -0.218462 0.176154 -0.213846
v -0.212500 0.287500 -0.217500
v -0.212500 0.172500 0.217500
v -0.218462 0.283846 0.213846
v 0.000000 0.300000 0.045000
v 0.000000 2.740000 0.045000
v -0.046057 0.300000 0.006136
v -0.046057 2.740000 -0.006136
v 0.000000 0.300000 -0.045000
v 0.000000 2.740000 -0.045000
v 0.046057 0.300000 -0.006136
v 0.046057 2.740000 0.006136
v 0.000000 0.740000 0.070000
v 0.000000 0.860000 0.070000
v -0.060622 0.740000 0.035000
v -0.060622 0.860000 0.035000
v -0.060622 0.740000 -0.035000
v -0.060622 0.860000 -0.035000
v 0.000000 0.740000 -0.070000
v 0.000000 0.860000 -0.070000
v 0.060622 0.740000 -0.035000
v 0.060622 0.860000 -0.035000
v 0.060622 0.740000 0.035000
v 0.060622 0.860000 0.035000
v 0.000000 2.740000 0.070000
v -0.070000 2.740000 0.000000
v 0.000000 2.740000 -0.070000
v 0.000000 3.001143 0.000000
v 0.070000 2.740000 0.000000
v -1.043225 1.999646 -0.000036
v -0.041563 2.001563 -0.000000
v -0.041563 2.658438 0.000000
v -1.043225 2.660355 0.000036
v -0.792921 2.330000 0.015000
v -0.783843 2.328343 -0.007385
vn -0.6947 0.1862 0.6947
vn -0.6947 0.1862 -0.6947
vn 0.6947 0.1862 -0.6947
vn 0.6947 0.1862 0.6947
vn -0.7626 -0.5898 -0.2656
vn -0.9989 0.0451 -0.0086
vn 0.0055 1.0000 -0.0054
vn 0.9989 0.0451 0.0086
vn -0.0056 0.0276 0.9996
vn -0.0055 -1.0000 -0.0054
vn 0.0087 0.0323 -0.9994
vn -0.9985 0.0530 -0.0134
vn 0.0085 0.9999 -0.0084
vn 0.9985 0.0530 0.0134
vn -0.0087 0.0323 0.9994
vn -0.0085 -0.9999 -0.0084
vn -0.7430 0.0034 0.6692
vn -0.6449 -0.0000 -0.7643
vn 0.7430 0.0034 -0.6692
vn -0.0000 1.0000 -0.0000
vn 0.6449 -0.0000 0.7643
vn -0.0000 -1.0000 -0.0000
vn -0.5000 -0.0000 0.8660
vn -1.0000 -0.0000 -0.0000
vn -0.5000 -0.0000 -0.8660
vn 0.5000 -0.0000 -0.8660
vn 1.0000 -0.0000 -0.0000
vn 0.5000 -0.0000 0.8660
vn 0.0301 0.0458 -0.9985
vn 0.0593 -0.0901 0.9942
vn 0.0056 0.0276 -0.9996
vn -0.7410 0.5771 -0.3432
vn -0.9989 -0.0451 0.0086
vn -0.0055 1.0000 0.0054
vn 0.9989 -0.0451 -0.0086
vn 0.0056 -0.0276 0.9996
vn 0.0055 -1.0000 0.0054
vn -0.0087 -0.0323 -0.9994
vn -0.9985 -0.0530 0.0134
vn -0.0085 0.9999 0.0084
vn 0.9985 -0.0530 -0.0134
vn 0.0087 -0.0323 0.9994
vn 0.0085 -0.9999 0.0084
vn -0.6449 -0.0000 0.7643
vn -0.7430 -0.0034 -0.6692
vn 0.6449 -0.0000 -0.7643
vn 0.7430 -0.0034 0.6692
vn -0.0000 -0.0000 -1.0000
vn 0.0001 -0.0224 -0.9997
vn -0.0000 -0.0000 1.0000
vn 0.0001 0.0453 0.9990
vn -0.0056 -0.0276 -0.9996
vt 0.00000 0.00000
vt 0.00000 1.00000
vt 0.01838 0.00000
vt 0.01838 1.00000
vt 0.03676 0.00000
vt 0.03676 1.00000
vt 0.04347 0.00000
vt 0.04347 1.00000
vt 0.06186 0.00000
vt 0.06186 1.00000
vt 0.08024 0.00000
vt 0.08024 1.00000
vt 0.11489 0.71840
vt 0.11489 0.73553
vt 0.11489 0.76038
vt 0.11489 0.78522
vt 0.13322 0.70711
vt 0.13901 0.72969
vt 0.15734 0.71840
vt 0.17148 0.73553
vt 0.17148 0.76038
vt 0.17148 0.78522
vt 0.18491 0.00214
vt 0.18491 0.40529
vt 0.18977 0.69176
vt 0.18977 0.88613
vt 0.19406 0.42947
vt 0.19406 0.72219
vt 0.33584 0.30857
vt 0.39137 0.71728
vt 0.39272 0.89031
vt 0.40858 0.72219
vt 0.40858 0.88613
vt 0.44478 0.71800
vt 0.44611 0.89103
vt 0.48889 0.40995
vt 0.48922 0.00283
vt 0.49819 0.00605
vt 0.49819 0.40990
vt 0.50456 0.42456
vt 0.50591 0.69595
vt 0.52177 0.42947
vt 0.52177 0.69176
vt 0.56465 0.42528
vt 0.56598 0.69667
vt 0.58867 0.72219
vt 0.58867 0.88613
vt 0.59538 0.81645
vt 0.62840 0.81645
vt 0.62879 0.70990
vt 0.64911 0.10276
vt 0.66141 0.81645
vt 0.67287 0.81438
vt 0.67529 0.71104
vt 0.68227 0.81266
vt 0.68899 0.76224
vt 0.70550 0.70990
vt 0.70550 0.74467
vt 0.70550 0.77981
vt 0.73851 0.70990
vt 0.73851 0.74467
vt 0.73851 0.77981
vt 0.75502 0.76224
vt 0.76173 0.72424
vt 0.76173 0.75293
vt 0.78857 0.42947
vt 0.78857 0.69176
vt 0.79033 0.70990
vt 0.79033 0.76727
vt 0.80168 0.40920
vt 0.80293 0.00228
vt 0.80458 0.69493
vt 0.80510 0.42512
vt 0.81892 0.72424
vt 0.81892 0.75293
vt 0.82563 0.70990
vt 0.82563 0.73474
vt 0.82563 0.75958
vt 0.82563 0.77464
vt 0.83233 0.39928
vt 0.83733 0.79895
vt 0.84163 0.27776
vt 0.84215 0.00795
vt 0.85069 0.76877
vt 0.86092 0.69611
vt 0.86145 0.42630
vt 0.86239 0.79309
vt 0.86535 0.39928
vt 0.86574 0.29272
vt 0.87746 0.42947
vt 0.87746 0.69176
vt 0.88223 0.70990
vt 0.88223 0.73474
vt 0.88223 0.75958
vt 0.88894 0.72161
vt 0.88894 0.75674
vt 0.88894 0.76258
vt 0.88894 0.80851
vt 0.89797 0.27894
vt 0.89836 0.39928
vt 0.89849 0.00912
vt 0.92196 0.76258
vt 0.92196 0.80851
vt 0.92380 0.17940
vt 0.92380 0.37376
vt 0.92433 0.00795
vt 0.92433 0.20231
vt 0.92706 0.70990
vt 0.92706 0.74503
vt 0.92881 0.42528
vt 0.92979 0.69667
vt 0.94649 0.42947
vt 0.94649 0.59340
vt 0.94649 0.77405
vt 0.95366 0.61345
vt 0.95613 0.77467
vt 0.97071 0.18058
vt 0.97071 0.37494
vt 0.97124 0.00912
vt 0.97124 0.20348
vt 0.98904 0.42528
vt 0.99001 0.59831
s 0
usemtl RTS_stone
f 1/45/10 7/66/10 5/67/10
f 1/45/37 3/44/37 7/66/37
f 1/86/31 6/72/31 2/73/31
f 1/86/52 5/85/52 6/72/52
f 11/34/14 10/33/14 12/32/14
f 11/34/41 9/35/41 10/33/41
f 13/121/12 16/113/12 14/112/12
f 13/121/39 15/122/39 16/113/39
f 14/30/13 12/26/13 10/28/13
f 14/30/40 16/31/40 12/26/40
f 15/120/15 12/105/15 16/107/15
f 15/120/42 11/118/42 12/105/42
f 3/44/35 1/45/35 2/43/35
f 3/44/8 2/43/8 4/42/8
f 5/110/33 7/111/33 8/91/33
f 5/110/6 8/91/6 6/90/6
f 6/40/34 8/41/34 4/25/34
f 6/40/7 4/25/7 2/27/7
f 7/101/36 3/99/36 4/82/36
f 7/101/9 4/82/9 8/83/9
f 9/119/11 14/104/11 10/106/11
f 9/119/38 13/117/38 14/104/38
f 9/35/16 15/46/16 13/47/16
f 9/35/43 11/34/43 15/46/43
usemtl RTS_iron
f 17/4/21 24/1/21 18/3/21
f 17/4/47 23/2/47 24/1/47
f 18/87/20 22/79/20 20/84/20
f 18/87/20 24/81/20 22/79/20
f 19/6/17 18/3/17 20/5/17
f 19/6/44 17/4/44 18/3/44
f 21/10/18 20/7/18 22/9/18
f 21/10/45 19/8/45 20/7/45
f 21/13/22 17/19/22 19/18/22
f 21/13/22 23/17/22 17/19/22
f 23/12/19 22/9/19 24/11/19
f 23/12/46 21/10/46 22/9/46
f 37/108/22 38/109/22 39/96/22
f 37/108/22 39/96/22 41/95/22
f 37/88/1 40/89/1 38/100/1
f 38/48/2 40/50/2 39/49/2
f 39/49/3 40/50/3 41/52/3
f 41/80/4 40/89/4 37/88/4
usemtl RTS_crimson_trim
f 25/63/22 27/62/22 29/59/22
f 25/63/22 29/59/22 33/58/22
f 25/93/23 26/77/23 28/76/23
f 25/93/23 28/76/23 27/92/23
f 27/98/24 28/97/24 30/102/24
f 27/98/24 30/102/24 29/103/24
f 28/74/20 26/75/20 36/69/20
f 28/74/20 36/69/20 32/64/20
f 29/22/25 30/16/25 32/15/25
f 29/22/25 32/15/25 31/21/25
f 29/59/22 31/56/22 33/58/22
f 31/21/26 32/15/26 34/14/26
f 31/21/26 34/14/26 33/20/26
f 32/64/20 30/68/20 28/74/20
f 33/58/22 35/61/22 25/63/22
f 33/58/27 34/57/27 36/60/27
f 33/58/27 36/60/27 35/61/27
f 35/94/28 26/77/28 25/93/28
f 35/94/28 36/78/28 26/77/28
f 36/69/20 34/65/20 32/64/20
usemtl RTS_crimson_cloth
f 42/54/32 46/55/32 47/53/32
f 42/71/50 43/70/50 44/39/50
f 43/37/29 47/29/29 45/24/29
f 43/37/49 42/36/49 47/29/49
f 44/39/30 46/51/30 42/71/30
f 44/39/51 45/38/51 46/51/51
f 45/115/5 47/116/5 46/114/5
f 45/24/48 44/23/48 43/37/48
