# Blender 4.0.2
# www.blender.org
mtllib rally_flag.mtl
o rally_flag
v 0.320000 0.000000 -0.320000
v 0.320000 0.030000 -0.350000
v 0.350000 0.030000 -0.320000
v 0.320000 0.130000 -0.350000
v 0.320000 0.160000 -0.320000
v 0.350000 0.130000 -0.320000
v 0.320000 0.000000 0.320000
v 0.350000 0.030000 0.320000
v 0.320000 0.030000 0.350000
v 0.320000 0.160000 0.320000
v 0.320000 0.130000 0.350000
v 0.350000 0.130000 0.320000
v -0.320000 0.000000 -0.320000
v -0.350000 0.030000 -0.320000
v -0.320000 0.030000 -0.350000
v -0.320000 0.160000 -0.320000
v -0.320000 0.130000 -0.350000
v -0.350000 0.130000 -0.320000
v -0.320000 0.000000 0.320000
v -0.320000 0.030000 0.350000
v -0.350000 0.030000 0.320000
v -0.320000 0.160000 0.320000
v -0.350000 0.130000 0.320000
v -0.320000 0.130000 0.350000
v 0.200000 0.160000 -0.200000
v 0.200000 0.190000 -0.230000
v 0.230000 0.190000 -0.200000
v 0.200000 0.270000 -0.230000
v 0.200000 0.300000 -0.200000
v 0.230000 0.270000 -0.200000
v 0.200000 0.160000 0.200000
v 0.230000 0.190000 0.200000
v 0.200000 0.190000 0.230000
v 0.200000 0.300000 0.200000
v 0.200000 0.270000 0.230000
v 0.230000 0.270000 0.200000
v -0.200000 0.160000 -0.200000
v -0.230000 0.190000 -0.200000
v -0.200000 0.190000 -0.230000
v -0.200000 0.300000 -0.200000
v -0.200000 0.270000 -0.230000
v -0.230000 0.270000 -0.200000
v -0.200000 0.160000 0.200000
v -0.200000 0.190000 0.230000
v -0.230000 0.190000 0.200000
v -0.200000 0.300000 0.200000
v -0.230000 0.270000 0.200000
v -0.200000 0.270000 0.230000
v 0.000000 0.300000 0.045000
v 0.000000 2.740000 0.045000
v -0.038971 0.300000 0.022500
v -0.038971 2.740000 0.022500
v -0.038971 0.300000 -0.022500
v -0.038971 2.740000 -0.022500
v 0.000000 0.300000 -0.045000
v 0.000000 2.740000 -0.045000
v 0.038971 0.300000 -0.022500
v 0.038971 2.740000 -0.022500
v 0.038971 0.300000 0.022500
v 0.038971 2.740000 0.022500
v 0.000000 0.740000 0.070000
v 0.000000 0.860000 0.070000
v -0.060622 0.740000 0.035000
v -0.060622 0.860000 0.035000
v -0.060622 0.740000 -0.035000
v -0.060622 0.860000 -0.035000
v 0.000000 0.740000 -0.070000
v 0.000000 0.860000 -0.070000
v 0.060622 0.740000 -0.035000
v 0.060622 0.860000 -0.035000
v 0.060622 0.740000 0.035000
v 0.060622 0.860000 0.035000
v 0.000000 2.740000 0.070000
v 0.000000 3.000000 0.005000
v -0.070000 2.740000 0.000000
v -0.005000 3.000000 0.000000
v 0.000000 2.740000 -0.070000
v 0.000000 3.000000 -0.005000
v 0.070000 2.740000 0.000000
v 0.005000 3.000000 0.000000
v -0.040000 2.650000 -0.005000
v -0.050000 2.650000 -0.015000
v -0.050000 2.660000 -0.005000
v -1.040000 2.660000 -0.005000
v -1.028898 2.650000 -0.015000
v -1.043668 2.652261 -0.005000
v -0.786332 2.337740 -0.005000
v -0.792921 2.330000 -0.015000
v -0.786332 2.322260 -0.005000
v -1.043668 2.007740 -0.005000
v -1.028898 2.010000 -0.015000
v -1.040000 2.000000 -0.005000
v -0.040000 2.010000 -0.005000
v -0.050000 2.000000 -0.005000
v -0.050000 2.010000 -0.015000
v -0.040000 2.650000 0.005000
v -0.050000 2.660000 0.005000
v -0.050000 2.650000 0.015000
v -1.043668 2.652261 0.005000
v -1.028898 2.650000 0.015000
v -1.040000 2.660000 0.005000
v -0.786332 2.322260 0.005000
v -0.792921 2.330000 0.015000
v -0.786332 2.337740 0.005000
v -1.040000 2.000000 0.005000
v -1.028898 2.010000 0.015000
v -1.043668 2.007740 0.005000
v -0.040000 2.010000 0.005000
v -0.050000 2.010000 0.015000
v -0.050000 2.000000 0.005000
vn -0.0000 -0.0000 -1.0000
vn -1.0000 -0.0000 -0.0000
vn -0.0000 1.0000 -0.0000
vn 1.0000 -0.0000 -0.0000
vn -0.0000 -0.0000 1.0000
vn 0.5774 -0.5773 -0.5773
vn 0.5774 0.5773 -0.5773
vn 0.5774 -0.5773 0.5773
vn 0.5774 0.5773 0.5773
vn -0.5774 -0.5773 -0.5773
vn -0.5774 0.5773 -0.5773
vn -0.5774 -0.5773 0.5773
vn -0.5774 0.5773 0.5773
vn 0.7071 -0.7071 -0.0000
vn 0.7071 -0.0000 -0.7071
vn 0.7071 0.7071 -0.0000
vn 0.7071 -0.0000 0.7071
vn -0.0000 -0.7071 0.7071
vn -0.0000 0.7071 0.7071
vn -0.7071 -0.0000 0.7071
vn -0.7071 -0.7071 -0.0000
vn -0.7071 0.7071 -0.0000
vn -0.7071 -0.0000 -0.7071
vn -0.0000 -0.7071 -0.7071
vn -0.0000 0.7071 -0.7071
vn -0.0000 -1.0000 -0.0000
vn 0.5774 -0.5774 -0.5774
vn 0.5774 -0.5774 0.5774
vn -0.5774 -0.5774 -0.5774
vn -0.5774 -0.5774 0.5774
vn -0.5000 -0.0000 0.8660
vn -0.5000 -0.0000 -0.8660
vn 0.5000 -0.0000 -0.8660
vn 0.5000 -0.0000 0.8660
vn -0.6963 0.1741 0.6963
vn -0.6963 0.1741 -0.6963
vn 0.6963 0.1741 -0.6963
vn 0.6963 0.1741 0.6963
vn -0.7740 -0.6332 -0.0000
vn -0.7740 0.6332 -0.0000
vn -0.5175 0.2452 -0.8198
vn -0.8351 -0.0000 0.5502
vn -0.5175 -0.2452 -0.8198
vn 0.5773 -0.5774 -0.5774
vn -0.5175 0.2452 0.8198
vn -0.8351 -0.0000 -0.5502
vn -0.5175 -0.2452 0.8198
vn 0.5773 -0.5774 0.5774
vn -0.5473 -0.4478 -0.7071
vn -0.5721 0.4219 0.7034
vn -0.5473 0.4478 0.7071
vn -0.5721 -0.4219 -0.7034
vn -0.9037 0.4282 -0.0000
vn -0.9037 -0.4282 -0.0000
vn -0.5721 -0.4219 0.7034
vn -0.5473 0.4478 -0.7071
vn -0.5721 0.4219 -0.7034
vn -0.5473 -0.4478 0.7071
vt 0.00000 0.00000
vt 0.00000 1.00000
vt 0.01838 0.00000
vt 0.01838 1.00000
vt 0.03676 0.00000
vt 0.03676 1.00000
vt 0.04347 0.00000
vt 0.04347 1.00000
vt 0.06186 0.00000
vt 0.06186 1.00000
vt 0.08024 0.00000
vt 0.08024 1.00000
vt 0.08695 0.00000
vt 0.08695 0.93387
vt 0.10817 0.00000
vt 0.10817 0.93387
vt 0.11489 0.71840
vt 0.11489 0.73553
vt 0.11489 0.76038
vt 0.11489 0.78522
vt 0.12550 0.00000
vt 0.12550 0.70711
vt 0.12550 0.72969
vt 0.14672 0.00000
vt 0.14672 0.70711
vt 0.14672 0.72969
vt 0.15734 0.71840
vt 0.16405 0.18847
vt 0.16405 0.48401
vt 0.16405 0.49014
vt 0.16405 0.49698
vt 0.16405 0.50793
vt 0.16405 0.51203
vt 0.16570 0.00006
vt 0.16792 0.48502
vt 0.16792 0.49597
vt 0.16792 0.50209
vt 0.16808 0.50793
vt 0.16808 0.51203
vt 0.16872 0.18551
vt 0.16881 0.19131
vt 0.17042 0.00000
vt 0.17148 0.73553
vt 0.17148 0.76038
vt 0.17148 0.78522
vt 0.17344 0.18545
vt 0.17348 0.47818
vt 0.17353 0.19125
vt 0.17464 0.48401
vt 0.17464 0.48691
vt 0.17797 0.48401
vt 0.17797 0.48691
vt 0.17820 0.18829
vt 0.17820 0.47812
vt 0.18491 0.00000
vt 0.18491 0.00410
vt 0.18491 0.40529
vt 0.18491 0.42947
vt 0.18491 0.69176
vt 0.18491 0.72219
vt 0.18491 0.88613
vt 0.19906 0.42947
vt 0.19906 0.69176
vt 0.19906 0.72219
vt 0.19906 0.88613
vt 0.33584 0.30857
vt 0.38772 0.70990
vt 0.38772 0.72219
vt 0.38772 0.88613
vt 0.38772 0.89842
vt 0.40187 0.72219
vt 0.40187 0.88613
vt 0.40858 0.72219
vt 0.40858 0.88613
vt 0.43526 0.72219
vt 0.43526 0.88613
vt 0.44526 0.70990
vt 0.44526 0.89842
vt 0.45527 0.72219
vt 0.45527 0.88613
vt 0.48676 0.00000
vt 0.48676 0.00410
vt 0.48676 0.40529
vt 0.48783 0.41134
vt 0.49147 0.00410
vt 0.49147 0.40984
vt 0.49819 0.00605
vt 0.49819 0.40724
vt 0.49819 0.41134
vt 0.50091 0.41718
vt 0.50091 0.42947
vt 0.50091 0.69176
vt 0.50091 0.70406
vt 0.51506 0.42947
vt 0.51506 0.69176
vt 0.52177 0.42947
vt 0.52177 0.69176
vt 0.55512 0.42947
vt 0.55512 0.69176
vt 0.56513 0.41718
vt 0.56513 0.70406
vt 0.57513 0.42947
vt 0.57513 0.69176
vt 0.58867 0.72219
vt 0.58867 0.88613
vt 0.59538 0.81645
vt 0.62604 0.70990
vt 0.62840 0.70990
vt 0.62840 0.81645
vt 0.63075 0.70990
vt 0.64911 0.10276
vt 0.66141 0.81645
vt 0.66813 0.71595
vt 0.66813 0.81266
vt 0.67284 0.70990
vt 0.67284 0.81536
vt 0.67756 0.70990
vt 0.67756 0.81536
vt 0.68227 0.71595
vt 0.68227 0.81266
vt 0.68899 0.76224
vt 0.70550 0.70990
vt 0.70550 0.74467
vt 0.70550 0.77981
vt 0.73851 0.70990
vt 0.73851 0.74467
vt 0.73851 0.77981
vt 0.75502 0.76224
vt 0.76173 0.72424
vt 0.76173 0.75293
vt 0.78857 0.42947
vt 0.78857 0.69176
vt 0.79033 0.70990
vt 0.79033 0.76727
vt 0.79528 0.42947
vt 0.79528 0.69176
vt 0.80003 0.00605
vt 0.80003 0.40724
vt 0.80003 0.41134
vt 0.80110 0.00000
vt 0.80475 0.00150
vt 0.80475 0.40724
vt 0.80943 0.41718
vt 0.80943 0.42947
vt 0.80943 0.69176
vt 0.80943 0.70406
vt 0.81147 0.00455
vt 0.81147 0.40574
vt 0.81618 0.00000
vt 0.81618 0.40574
vt 0.81618 0.40984
vt 0.81892 0.72424
vt 0.81892 0.75293
vt 0.82090 0.00000
vt 0.82090 0.40574
vt 0.82090 0.40984
vt 0.82561 0.00455
vt 0.82561 0.40574
vt 0.82563 0.70990
vt 0.82563 0.73474
vt 0.82563 0.75958
vt 0.82563 0.77464
vt 0.82563 0.79309
vt 0.83233 0.01230
vt 0.83233 0.27459
vt 0.83233 0.39928
vt 0.84401 0.76542
vt 0.84401 0.80231
vt 0.84648 0.00000
vt 0.84648 0.01230
vt 0.84648 0.27459
vt 0.84648 0.28689
vt 0.85659 0.41718
vt 0.85659 0.42947
vt 0.85659 0.69176
vt 0.85659 0.70406
vt 0.86239 0.77464
vt 0.86239 0.79309
vt 0.86299 0.29272
vt 0.86535 0.29272
vt 0.86535 0.39928
vt 0.86770 0.29272
vt 0.87074 0.42947
vt 0.87074 0.69176
vt 0.87746 0.42947
vt 0.87746 0.69176
vt 0.88223 0.70990
vt 0.88223 0.73474
vt 0.88223 0.75958
vt 0.88894 0.72161
vt 0.88894 0.75674
vt 0.88894 0.76258
vt 0.88894 0.80851
vt 0.89364 0.00000
vt 0.89364 0.01230
vt 0.89364 0.27459
vt 0.89364 0.28689
vt 0.89836 0.39928
vt 0.90779 0.01230
vt 0.90779 0.27459
vt 0.91451 0.01230
vt 0.91451 0.17623
vt 0.91451 0.20666
vt 0.91451 0.37059
vt 0.92150 0.42947
vt 0.92150 0.69176
vt 0.92196 0.76258
vt 0.92196 0.80851
vt 0.92656 0.41718
vt 0.92656 0.70406
vt 0.92706 0.70990
vt 0.92706 0.74503
vt 0.92866 0.00000
vt 0.92866 0.01230
vt 0.92866 0.17623
vt 0.92866 0.18852
vt 0.92866 0.19436
vt 0.92866 0.20666
vt 0.92866 0.37059
vt 0.92866 0.38288
vt 0.93978 0.42947
vt 0.93978 0.69176
vt 0.94649 0.42947
vt 0.94649 0.59340
vt 0.94649 0.61699
vt 0.94649 0.77405
vt 0.95121 0.61154
vt 0.95121 0.61396
vt 0.95121 0.77205
vt 0.95121 0.77798
vt 0.95592 0.61154
vt 0.95592 0.61396
vt 0.95592 0.77205
vt 0.95592 0.77798
vt 0.96064 0.61699
vt 0.96064 0.77405
vt 0.96639 0.00000
vt 0.96639 0.01230
vt 0.96639 0.17623
vt 0.96639 0.18852
vt 0.96639 0.19436
vt 0.96639 0.20666
vt 0.96639 0.37059
vt 0.96639 0.38288
vt 0.98054 0.01230
vt 0.98054 0.17623
vt 0.98054 0.20666
vt 0.98054 0.37059
vt 0.98173 0.42947
vt 0.98173 0.59340
vt 0.98679 0.41718
vt 0.98679 0.60570
vt 1.00000 0.42947
vt 1.00000 0.59340
s 0
usemtl RTS_stone
f 1/103/14 3/99/14 8/98/14
f 1/103/14 8/98/14 7/102/14
f 1/103/6 2/101/6 3/99/6
f 10/165/9 11/171/9 12/172/9
f 10/63/16 12/59/16 6/58/16
f 10/63/16 6/58/16 5/62/16
f 10/63/3 16/91/3 22/92/3
f 10/63/3 5/62/3 16/91/3
f 11/171/5 20/195/5 9/196/5
f 11/171/5 24/170/5 20/195/5
f 13/184/24 15/175/24 2/174/24
f 13/184/24 2/174/24 1/183/24
f 13/221/10 14/205/10 15/209/10
f 15/175/23 14/176/23 18/146/23
f 15/175/23 18/146/23 17/145/23
f 16/91/11 17/90/11 18/94/11
f 16/91/22 18/94/22 23/95/22
f 16/91/22 23/95/22 22/92/22
f 17/145/1 2/174/1 15/175/1
f 17/145/1 4/144/1 2/174/1
f 19/131/26 1/103/26 7/102/26
f 19/131/26 13/132/26 1/103/26
f 19/222/12 20/210/12 21/206/12
f 19/222/21 14/205/21 13/221/21
f 19/222/21 21/206/21 14/205/21
f 21/194/20 20/195/20 24/170/20
f 21/194/20 24/170/20 23/169/20
f 22/164/19 11/171/19 10/165/19
f 22/164/19 24/170/19 11/171/19
f 22/92/13 23/95/13 24/93/13
f 23/186/2 14/205/2 21/206/2
f 23/186/2 18/185/2 14/205/2
f 25/80/14 27/76/14 32/75/14
f 25/80/14 32/75/14 31/79/14
f 25/80/27 26/78/27 27/76/27
f 28/214/15 27/237/15 26/238/15
f 28/214/15 30/213/15 27/237/15
f 28/214/7 29/201/7 30/213/7
f 29/201/25 28/214/25 41/215/25
f 29/201/25 41/215/25 40/202/25
f 30/74/4 32/75/4 27/76/4
f 30/74/4 36/73/4 32/75/4
f 31/248/18 33/243/18 44/242/18
f 31/248/18 44/242/18 43/247/18
f 31/79/28 32/75/28 33/77/28
f 33/243/17 32/244/17 36/220/17
f 33/243/17 36/220/17 35/219/17
f 34/204/9 35/219/9 36/220/9
f 34/65/16 30/60/16 29/64/16
f 34/65/16 36/61/16 30/60/16
f 34/65/3 29/64/3 40/68/3
f 34/65/3 40/68/3 46/69/3
f 35/219/5 44/242/5 33/243/5
f 35/219/5 48/218/5 44/242/5
f 37/246/24 26/238/24 25/245/24
f 37/246/24 39/239/24 26/238/24
f 37/253/29 38/249/29 39/251/29
f 39/239/23 38/240/23 42/216/23
f 39/239/23 42/216/23 41/215/23
f 4/144/15 3/173/15 2/174/15
f 4/144/15 6/143/15 3/173/15
f 4/144/7 5/135/7 6/143/7
f 40/68/11 41/67/11 42/71/11
f 40/68/22 42/71/22 47/72/22
f 40/68/22 47/72/22 46/69/22
f 41/215/1 26/238/1 39/239/1
f 41/215/1 28/214/1 26/238/1
f 43/104/26 25/80/26 31/79/26
f 43/104/26 37/105/26 25/80/26
f 43/254/21 38/249/21 37/253/21
f 43/254/21 45/250/21 38/249/21
f 43/254/30 44/252/30 45/250/30
f 45/241/20 44/242/20 48/218/20
f 45/241/20 48/218/20 47/217/20
f 46/203/19 35/219/19 34/204/19
f 46/203/19 48/218/19 35/219/19
f 46/69/13 47/72/13 48/70/13
f 47/224/2 38/249/2 45/250/2
f 47/224/2 42/223/2 38/249/2
f 5/135/25 17/145/25 16/136/25
f 5/135/25 4/144/25 17/145/25
f 6/97/4 12/96/4 8/98/4
f 6/97/4 8/98/4 3/99/4
f 7/102/8 8/98/8 9/100/8
f 7/200/18 20/195/18 19/199/18
f 7/200/18 9/196/18 20/195/18
f 9/196/17 12/172/17 11/171/17
f 9/196/17 8/197/17 12/172/17
usemtl RTS_iron
f 50/178/3 58/163/3 54/167/3
f 50/178/3 60/168/3 58/163/3
f 50/3/31 51/6/31 49/4/31
f 50/3/31 52/5/31 51/6/31
f 51/26/26 53/23/26 55/17/26
f 51/26/26 55/17/26 59/25/26
f 52/13/2 53/16/2 51/14/2
f 52/13/2 54/15/2 53/16/2
f 54/167/3 52/177/3 50/178/3
f 54/7/32 55/10/32 53/8/32
f 54/7/32 56/9/32 55/10/32
f 55/17/26 57/22/26 59/25/26
f 56/9/33 57/12/33 55/10/33
f 56/9/33 58/11/33 57/12/33
f 58/163/3 56/162/3 54/167/3
f 58/21/4 59/25/4 57/22/4
f 58/21/4 60/24/4 59/25/4
f 59/25/26 49/27/26 51/26/26
f 60/1/34 49/4/34 59/2/34
f 60/1/34 50/3/34 49/4/34
f 73/181/35 74/180/35 76/182/35
f 73/181/35 76/182/35 75/198/35
f 74/52/3 78/49/3 76/51/3
f 74/52/3 80/50/3 78/49/3
f 75/106/36 76/107/36 78/108/36
f 75/106/36 78/108/36 77/109/36
f 75/212/26 77/191/26 79/190/26
f 75/212/26 79/190/26 73/211/26
f 77/109/37 78/108/37 80/110/37
f 77/109/37 80/110/37 79/112/37
f 79/166/38 74/180/38 73/181/38
f 79/166/38 80/179/38 74/180/38
usemtl RTS_azure_trim
f 62/153/3 70/130/3 66/133/3
f 62/153/3 72/134/3 70/130/3
f 62/160/31 63/187/31 61/188/31
f 62/160/31 64/159/31 63/187/31
f 63/127/26 65/124/26 67/121/26
f 63/127/26 67/121/26 71/126/26
f 64/192/2 65/208/2 63/193/2
f 64/192/2 66/207/2 65/208/2
f 66/133/3 64/152/3 62/153/3
f 66/20/32 67/44/32 65/45/32
f 66/20/32 68/19/32 67/44/32
f 67/121/26 69/123/26 71/126/26
f 68/19/33 69/43/33 67/44/33
f 68/19/33 70/18/33 69/43/33
f 70/122/4 71/126/4 69/123/4
f 70/122/4 72/125/4 71/126/4
f 70/130/3 68/129/3 66/133/3
f 71/126/26 61/128/26 63/127/26
f 72/161/34 61/188/34 71/189/34
f 72/161/34 62/160/34 61/188/34
usemtl RTS_azure_cloth
f 100/157/19 97/155/19 101/154/19
f 100/157/19 98/158/19 97/155/19
f 100/225/52 104/229/52 103/226/52
f 100/225/58 99/228/58 104/229/58
f 102/230/2 104/229/2 87/233/2
f 102/230/2 87/233/2 89/234/2
f 102/230/46 103/226/46 104/229/46
f 105/141/47 106/137/47 107/140/47
f 105/32/54 107/38/54 90/39/54
f 105/32/54 90/39/54 92/33/54
f 106/119/51 102/118/51 107/117/51
f 106/119/57 103/120/57 102/118/57
f 106/137/18 105/141/18 110/142/18
f 106/137/18 110/142/18 109/138/18
f 106/137/5 109/138/5 98/88/5
f 108/46/14 110/48/14 94/41/14
f 108/46/14 94/41/14 93/40/14
f 108/46/48 109/53/48 110/48/48
f 109/138/17 108/139/17 96/89/17
f 109/138/17 96/89/17 98/88/17
f 81/151/16 83/150/16 97/155/16
f 81/151/16 97/155/16 96/156/16
f 81/151/7 82/148/7 83/150/7
f 81/34/4 108/46/4 93/40/4
f 81/34/4 96/42/4 108/46/4
f 82/56/15 81/55/15 93/81/15
f 82/56/15 93/81/15 95/82/15
f 84/149/3 101/154/3 97/155/3
f 84/149/3 97/155/3 83/150/3
f 84/35/41 85/30/41 86/29/41
f 85/147/25 83/150/25 82/148/25
f 85/147/25 84/149/25 83/150/25
f 85/235/49 87/233/49 86/232/49
f 85/235/55 88/236/55 87/233/55
f 85/57/1 82/56/1 95/82/1
f 87/233/39 104/229/39 99/228/39
f 87/233/39 99/228/39 86/232/39
f 87/233/42 88/236/42 89/234/42
f 90/115/40 102/118/40 89/116/40
f 90/115/40 107/117/40 102/118/40
f 90/84/43 91/83/43 92/86/43
f 91/113/50 89/116/50 88/114/50
f 91/113/56 90/115/56 89/116/56
f 91/83/24 94/85/24 92/86/24
f 91/83/24 95/82/24 94/85/24
f 93/40/44 94/41/44 95/28/44
f 94/41/26 105/54/26 92/47/26
f 94/41/26 110/48/26 105/54/26
f 95/82/1 88/66/1 85/57/1
f 95/82/1 91/83/1 88/66/1
f 96/156/9 97/155/9 98/158/9
f 98/88/5 100/87/5 103/111/5
f 98/88/5 103/111/5 106/137/5
f 99/228/53 101/227/53 84/231/53
f 99/228/53 84/231/53 86/232/53
f 99/36/45 100/37/45 101/31/45
