# Blender 4.0.2
# www.blender.org
mtllib resource_node_lod1.mtl
o resource_node_lod1
v 0.971504 0.015409 0.753489
v 0.688305 0.543659 0.533842
v 0.020023 0.008469 1.228812
v 0.009205 0.536295 0.877922
v -0.952527 0.018144 0.780914
v -0.672595 0.541523 0.551416
v -1.200175 0.008588 -0.256912
v -0.853363 0.542191 -0.182672
v -0.550482 0.016989 -1.100798
v -0.389209 0.536295 -0.786986
v 0.515579 0.010169 -1.115990
v 0.370575 0.542890 -0.787053
v 1.196569 0.014063 -0.290183
v 0.850729 0.537269 -0.206313
v -0.568078 0.016406 -0.069788
v -0.552924 0.460640 -0.320102
v -1.068716 0.009795 0.009647
v -1.200271 0.462452 -0.264131
v -1.442032 0.016406 -0.333258
v -1.408466 0.010425 -0.835165
v -1.131407 0.460543 -0.884791
v -0.991145 0.019195 -1.129537
v -0.507803 0.008929 -0.978147
v -0.617815 0.438204 -0.858051
v -0.315766 0.014543 -0.509973
v 1.053789 0.014537 0.975241
v 0.607685 0.007269 0.854347
v 0.702598 0.388278 0.742235
v 0.413810 0.019166 0.434279
v 0.621765 0.411658 0.279905
v 0.632013 0.013192 0.021405
v 1.086828 0.013192 -0.065837
v 1.204484 0.405436 0.149400
v 1.434479 0.008923 0.233943
v 1.426099 0.017959 0.694439
v 1.172810 0.410168 0.746841
v 0.380910 0.018017 -0.515429
v 0.484272 0.355029 -0.669137
v 0.033067 0.008610 -0.655591
v 0.115899 0.334245 -0.739984
v -0.080553 0.018017 -1.016566
v 0.101306 0.356431 -1.122674
v 0.135626 0.011701 -1.328709
v 0.511990 0.016438 -1.352638
v 0.587990 0.351729 -1.167085
v 0.763963 0.010424 -1.077566
v 0.708276 0.013207 -0.704908
v 0.128831 0.120000 0.364647
v 0.339604 0.120000 -0.038951
v -0.128831 0.120000 -0.264647
v -0.339604 0.120000 0.138951
v 0.128831 2.193600 0.364647
v 0.336908 2.193600 0.095752
v 0.208076 2.193600 -0.218895
v -0.128831 2.193600 -0.264647
v -0.336908 2.193600 0.004248
v -0.208076 2.193600 0.318895
v 0.000000 3.000000 0.050000
v -0.434350 0.121466 0.579877
v -0.317868 0.127999 0.233164
v -0.637938 0.119575 0.096354
v -0.782132 0.112001 0.466836
v -0.713998 1.626653 0.587896
v -0.375571 1.550184 0.505186
v -0.463044 1.657273 0.160736
v -0.810091 1.539620 0.219737
v -0.609488 2.099030 0.367308
v 0.734341 0.092707 0.175409
v 0.425600 0.132575 0.011659
v 0.247525 0.149939 0.294633
v 0.574400 0.107425 0.488341
v 0.896455 1.361978 0.322886
v 0.693494 1.469643 0.027399
v 0.411959 1.422316 0.215079
v 0.615315 1.489564 0.498290
v 0.714177 1.886871 0.276365
v -0.434997 0.089285 -0.371810
v -0.104465 0.141184 -0.336382
v -0.183024 0.132953 -0.709156
v -0.386472 1.254886 -0.286114
v -0.204010 1.206579 -0.533684
v -0.490802 1.228390 -0.692929
v -0.555022 1.528532 -0.450560
v 0.259833 0.136553 -0.156877
v 0.488820 0.044022 -0.384913
v 0.152208 0.179103 -0.496763
v 0.602222 0.993141 -0.150608
v 0.817816 0.923498 -0.428096
v 0.526770 1.053235 -0.478801
v 0.758773 1.261237 -0.352400
v -0.682419 0.125129 -0.139759
v -0.862975 0.172208 -0.377899
v -0.994364 0.063916 -0.081753
v -0.772320 0.821831 0.074407
v -1.001113 0.871316 -0.148544
v -1.039855 0.978969 0.122873
v 0.781355 0.117733 0.029341
v 1.057990 0.117724 -0.042170
v 0.868411 0.124361 -0.281247
v 0.933957 0.737077 0.087807
v 1.021109 0.754386 -0.205168
v 0.823192 0.909835 -0.111689
v -1.080698 -0.015625 0.435200
v -1.061010 0.275625 0.438719
v -1.119302 -0.015625 0.764800
v -1.138990 0.275625 0.761281
v 1.017543 0.275625 -0.649934
v 1.006482 -0.015625 -0.633271
v 1.293519 -0.015625 -0.466729
v 1.282457 0.275625 -0.450066
v -0.181540 0.012500 1.085853
v -0.134505 0.275625 1.188035
v -0.150356 0.016154 1.274735
v -0.449644 0.016154 1.125265
v -0.418460 0.012500 1.314147
v -0.465495 0.275625 1.211965
vn 0.8421 0.2427 0.4817
vn -0.5605 0.2582 -0.7869
vn -0.6538 0.2433 0.7165
vn 0.5781 0.2705 0.7698
vn -0.8492 0.2719 -0.4527
vn 0.6395 0.2135 -0.7386
vn 0.4897 0.2330 0.8402
vn -0.7931 0.2524 -0.5544
vn 0.7246 0.2006 -0.6593
vn 0.7429 0.3430 0.5749
vn 0.8693 0.3430 -0.3559
vn 0.1264 0.3430 -0.9308
vn -0.7429 0.3430 -0.5749
vn -0.8693 0.3430 0.3559
vn -0.1264 0.3430 0.9308
vn 0.2962 0.3495 0.8889
vn 0.9238 0.3631 -0.1217
vn 0.3932 -0.0062 -0.9194
vn -0.1878 0.0624 -0.9802
vn -0.2670 0.3342 -0.9039
vn -0.9404 0.2906 0.1768
vn 0.8383 0.2481 -0.4854
vn 0.4588 -0.0815 -0.8848
vn -0.5467 0.4489 -0.7069
vn -0.7743 0.4443 0.4505
vn -0.5089 0.0089 0.8608
vn 0.5955 0.2737 0.7553
vn 0.1563 -0.9877 -0.0111
vn -0.0956 -0.0690 0.9930
vn 0.6737 0.6385 0.3720
vn 0.4152 0.6237 -0.6623
vn 0.7897 0.0006 0.6134
vn 0.2755 0.2558 -0.9266
vn -0.7210 0.6331 0.2817
vn 0.1326 -0.9484 -0.2880
vn 0.4500 0.8503 -0.2730
vn -0.0060 -0.9997 -0.0230
vn 0.6672 0.7051 0.2401
vn 0.7769 -0.1135 -0.6192
vn -0.8066 0.1446 0.5731
vn -0.9806 -0.1133 0.1597
vn 0.9806 -0.1133 -0.1597
vn -0.8334 0.5130 0.2057
vn -0.6780 0.5228 -0.5167
vn -0.0046 0.5245 -0.8514
vn 0.6596 0.5226 -0.5403
vn -0.3629 0.5301 0.7663
vn 0.3793 0.5176 0.7669
vn 0.0009 1.0000 -0.0037
vn -0.8524 0.5140 -0.0962
vn -0.0018 -1.0000 0.0002
vn 0.0667 0.5000 -0.8634
vn 0.8533 0.5064 -0.1241
vn 0.0026 1.0000 -0.0028
vn 0.0744 0.5318 0.8436
vn -0.1822 0.5145 -0.8379
vn -0.0024 -1.0000 -0.0049
vn 0.8403 0.5421 0.0047
vn -0.8406 0.5134 0.1729
vn 0.0090 0.9999 -0.0074
vn -0.0320 0.5069 0.8614
vn -0.0742 0.4957 -0.8653
vn 0.0131 -0.9999 0.0004
vn 0.8323 0.5277 0.1699
vn -0.8710 0.4874 0.0615
vn -0.0678 0.9959 0.0603
vn -0.3616 0.3190 0.8760
vn -0.0000 -1.0000 -0.0000
vn -0.0047 -1.0000 -0.0036
vn 0.7909 -0.0000 0.6120
vn 0.1346 -0.0000 -0.9909
vn 0.9251 0.0258 -0.3788
vn -0.7909 -0.0000 -0.6120
vn -0.1346 -0.0000 0.9909
vn -0.9251 0.0258 0.3788
vn 0.0300 -0.9995 -0.0087
vn 0.9718 0.0818 -0.2214
vn 0.2458 0.0405 0.9685
vn -0.9687 0.0238 0.2472
vn -0.1203 -0.9926 -0.0148
vn -0.3070 -0.0621 0.9497
vn -0.5647 0.1227 -0.8161
vn 0.8173 -0.0376 -0.5750
vn 0.8751 -0.1646 0.4550
vn -0.8197 0.1407 0.5552
vn 0.9769 0.0529 -0.2070
vn -0.9847 -0.0903 -0.1491
vn 0.4887 0.1500 -0.8595
vn 0.7352 -0.2440 0.6324
vn -0.7159 -0.0215 0.6979
vn -0.3730 -0.9278 0.0020
vn 0.1520 -0.0449 -0.9874
vn -0.8798 0.3493 0.3223
vn 0.6923 0.3448 -0.6339
vn -0.9908 -0.0193 -0.1338
vn 0.2255 -0.2596 0.9390
vn -0.9697 0.0684 -0.2344
vn 0.2474 -0.1513 0.9570
vn 0.9484 0.1291 0.2897
vn -0.2970 0.1851 -0.9367
vn -0.9629 0.0028 -0.2698
vn 0.9697 0.0684 0.2344
vn -0.5007 0.0684 0.8629
vn 0.5007 0.0684 -0.8629
vn -0.0669 0.3716 -0.9260
vn 0.8343 0.5215 0.1786
vn 0.0669 0.3716 0.9260
vn -0.0161 -0.9997 -0.0167
vn -0.8277 0.5271 0.1926
vn -0.6780 0.5138 -0.5257
vn -0.0089 0.5192 -0.8546
vn 0.6593 0.5167 -0.5462
vn -0.3550 0.5125 0.7819
vn 0.3811 0.5217 0.7633
vn -0.0171 0.9998 -0.0124
vn -0.0087 0.9998 0.0169
vn 0.0105 0.9999 -0.0017
vn 0.0053 1.0000 0.0050
vn -0.8732 0.4832 -0.0642
vn -0.0017 -0.9998 -0.0180
vn 0.0190 -0.9998 0.0047
vn -0.0063 -0.9999 0.0099
vn -0.0014 -1.0000 0.0010
vn 0.2889 0.3259 -0.9002
vn 0.8735 0.3252 -0.3622
vn 0.0459 0.9978 -0.0471
vn 0.1310 0.4833 0.8656
vn -0.1592 0.5344 -0.8301
vn 0.0086 -0.9996 -0.0287
vn 0.0309 -0.9994 0.0140
vn -0.0287 -0.9993 0.0237
vn -0.0011 -1.0000 0.0036
vn 0.8604 0.5079 0.0416
vn -0.8531 0.3311 0.4031
vn -0.0470 0.9972 0.0586
vn -0.2519 0.3304 0.9096
vn -0.0610 0.5076 -0.8594
vn 0.0031 -0.9999 0.0161
vn -0.0287 -0.9994 0.0191
vn 0.0144 -0.9999 0.0069
vn -0.0223 -0.9996 -0.0180
vn 0.8679 0.4805 0.1261
vn -0.9057 0.3063 0.2931
vn 0.0092 0.9999 -0.0047
vn -0.1928 0.4555 0.8691
vn 0.0429 -0.9983 -0.0395
vn 0.0145 -0.9994 0.0303
vn -0.0275 -0.9996 0.0034
vn -0.0096 -0.9999 0.0088
vn 0.8860 -0.0289 0.4627
vn 0.4335 -0.0506 -0.8997
vn -0.8860 -0.0289 -0.4627
vn -0.4335 -0.0506 0.8997
vn 0.9478 -0.0224 0.3180
vn -0.9283 -0.0810 -0.3629
vn -0.8419 0.0754 -0.5344
vn 0.5221 -0.0216 0.8526
vn 0.8083 0.1794 0.5607
vn -0.7707 -0.2076 -0.6025
vn 0.6280 -0.2564 0.7347
vn 0.2595 -0.1440 -0.9549
vn -0.8864 0.3742 0.2723
vn 0.7922 0.2704 -0.5471
vn -0.9075 -0.0422 -0.4180
vn 0.0500 -0.2156 0.9752
vn -0.9909 -0.0684 -0.1161
vn 0.9909 -0.0684 0.1161
vn -0.6009 -0.0684 0.7964
vn 0.6009 -0.0684 -0.7964
vn -0.1343 0.3066 -0.9423
vn 0.8337 0.5224 0.1791
vn 0.1343 0.3067 0.9423
vn 0.0161 -0.9997 0.0167
vt 0.00000 0.11620
vt 0.00000 0.40739
vt 0.00000 0.46183
vt 0.00000 0.65095
vt 0.00000 0.76959
vt 0.00000 0.88210
vt 0.00577 0.54320
vt 0.01510 0.93882
vt 0.03011 0.70706
vt 0.03011 0.83211
vt 0.03842 0.00000
vt 0.04410 0.11814
vt 0.06797 0.87335
vt 0.06855 0.40745
vt 0.07445 0.68075
vt 0.07470 0.42063
vt 0.08252 0.11518
vt 0.08307 0.93007
vt 0.08311 0.53262
vt 0.09305 0.11462
vt 0.09361 0.96587
vt 0.09361 0.99396
vt 0.09620 0.90097
vt 0.09776 0.69161
vt 0.09776 0.84755
vt 0.09832 0.95212
vt 0.09993 0.85809
vt 0.11346 0.49103
vt 0.11508 0.40768
vt 0.12244 0.99610
vt 0.12372 0.96800
vt 0.12710 0.66929
vt 0.12767 0.11883
vt 0.13913 0.00000
vt 0.14073 0.49645
vt 0.14117 0.92210
vt 0.14219 0.87135
vt 0.14648 0.41975
vt 0.15323 0.73424
vt 0.15382 0.80507
vt 0.17375 0.11714
vt 0.17375 0.40752
vt 0.17375 0.49345
vt 0.17375 0.66899
vt 0.18429 0.11842
vt 0.18429 0.40926
vt 0.18429 0.46153
vt 0.18429 0.65080
vt 0.18429 0.86910
vt 0.18429 0.95551
vt 0.18582 0.69241
vt 0.18648 0.90893
vt 0.18691 0.84177
vt 0.19054 0.54312
vt 0.19528 0.00000
vt 0.23023 0.11685
vt 0.23023 0.40769
vt 0.23470 0.85311
vt 0.23516 0.96907
vt 0.23903 0.90688
vt 0.24076 0.11788
vt 0.24076 0.40862
vt 0.25919 0.68080
vt 0.25986 0.42100
vt 0.26215 0.71619
vt 0.26215 0.82493
vt 0.26535 0.00000
vt 0.26776 0.53274
vt 0.28539 0.87964
vt 0.28874 0.11796
vt 0.28874 0.40870
vt 0.28904 0.95132
vt 0.28926 0.98650
vt 0.29927 0.09287
vt 0.29927 0.24188
vt 0.29927 0.42481
vt 0.29927 0.68249
vt 0.29927 0.80387
vt 0.30603 0.92740
vt 0.30616 0.83202
vt 0.31829 0.62639
vt 0.31895 0.98597
vt 0.32009 0.95107
vt 0.33265 0.34538
vt 0.33441 0.67947
vt 0.33441 0.80085
vt 0.33602 0.95121
vt 0.33621 0.98644
vt 0.34585 0.42623
vt 0.35752 0.93840
vt 0.35755 0.82071
vt 0.36253 0.62561
vt 0.36594 0.98601
vt 0.36709 0.95105
vt 0.37307 0.42574
vt 0.37307 0.62595
vt 0.38234 0.95066
vt 0.38236 0.98601
vt 0.39872 0.85330
vt 0.39909 0.90614
vt 0.40039 0.34538
vt 0.40793 0.42691
vt 0.41185 0.98615
vt 0.41201 0.95074
vt 0.41574 0.00000
vt 0.41574 0.33484
vt 0.42160 0.62587
vt 0.42383 0.91841
vt 0.42517 0.85192
vt 0.43526 0.42441
vt 0.44139 0.68848
vt 0.44580 0.42631
vt 0.44580 0.62563
vt 0.44627 0.80143
vt 0.45963 0.63772
vt 0.47299 0.34538
vt 0.47484 0.81604
vt 0.47562 0.93215
vt 0.47818 0.87147
vt 0.48072 0.42786
vt 0.48072 0.62718
vt 0.48072 0.68952
vt 0.48072 0.80047
vt 0.49126 0.62678
vt 0.49126 0.68958
vt 0.49126 0.81288
vt 0.49126 0.85879
vt 0.49495 0.95388
vt 0.49515 0.98850
vt 0.50218 0.63732
vt 0.50325 0.94236
vt 0.50372 0.82342
vt 0.50618 0.42703
vt 0.51524 0.85887
vt 0.51926 0.68899
vt 0.51926 0.81230
vt 0.52478 0.98794
vt 0.52601 0.95359
vt 0.52791 0.62658
vt 0.53845 0.96423
vt 0.53941 0.90751
vt 0.53988 0.47004
vt 0.54083 0.80113
vt 0.54167 0.69450
vt 0.54838 0.61384
vt 0.54855 0.34583
vt 0.56097 0.03322
vt 0.56097 0.30174
vt 0.58078 0.88098
vt 0.58261 0.97447
vt 0.58529 0.92327
vt 0.59791 0.96429
vt 0.59896 0.90991
vt 0.61723 0.47589
vt 0.62269 0.38580
vt 0.62269 0.58047
vt 0.62440 0.62702
vt 0.62467 0.86703
vt 0.62561 0.16750
vt 0.63323 0.59869
vt 0.63614 0.25217
vt 0.63614 0.26332
vt 0.63614 0.30744
vt 0.64019 0.88098
vt 0.64180 0.97453
vt 0.64424 0.92312
vt 0.64752 0.41891
vt 0.65283 0.07180
vt 0.66175 0.27479
vt 0.66838 0.59834
vt 0.66896 0.94501
vt 0.66951 0.25278
vt 0.67892 0.41569
vt 0.68005 0.20694
vt 0.69161 0.06125
vt 0.69489 0.88752
vt 0.69652 0.59657
vt 0.70026 0.23859
vt 0.70044 0.31328
vt 0.70657 0.41561
vt 0.71172 0.34538
vt 0.71291 0.96880
vt 0.71331 0.00999
vt 0.72195 0.20972
vt 0.72842 0.65163
vt 0.72899 0.84431
vt 0.73937 0.41566
vt 0.73937 0.59659
vt 0.74178 0.92612
vt 0.74991 0.55405
vt 0.75494 0.06026
vt 0.75746 0.57273
vt 0.76029 0.60710
vt 0.76385 0.31790
vt 0.76433 0.35566
vt 0.76748 0.00000
vt 0.77134 0.20991
vt 0.77357 0.25498
vt 0.77432 0.74761
vt 0.78089 0.40903
vt 0.78089 0.55456
vt 0.78838 0.69591
vt 0.78838 0.88993
vt 0.78838 0.92799
vt 0.78838 0.98029
vt 0.78973 0.81808
vt 0.79142 0.40349
vt 0.79142 0.55391
vt 0.79146 0.58910
vt 0.79638 0.05923
vt 0.80692 0.13992
vt 0.80692 0.30110
vt 0.80692 0.33451
vt 0.80848 0.34538
vt 0.81583 0.63888
vt 0.81583 0.75291
vt 0.81641 0.01345
vt 0.82241 0.40346
vt 0.82241 0.55388
vt 0.83126 0.30752
vt 0.83226 0.04134
vt 0.83226 0.14013
vt 0.83295 0.38392
vt 0.83295 0.47474
vt 0.84427 0.29151
vt 0.84475 0.20653
vt 0.84486 0.53248
vt 0.84561 0.32689
vt 0.84601 0.77816
vt 0.84643 0.90530
vt 0.84674 0.98774
vt 0.84793 0.91756
vt 0.84850 0.15168
vt 0.84850 0.27611
vt 0.85051 0.83737
vt 0.85250 0.03418
vt 0.85810 0.13158
vt 0.85933 0.35975
vt 0.86287 0.96708
vt 0.86390 0.48011
vt 0.86516 0.83055
vt 0.86929 0.90092
vt 0.87056 0.77751
vt 0.87106 0.29002
vt 0.87240 0.32540
vt 0.87751 0.62478
vt 0.87751 0.76697
vt 0.88308 0.91868
vt 0.88597 0.03645
vt 0.88597 0.13422
vt 0.88600 0.60400
vt 0.88652 0.46265
vt 0.89558 0.37983
vt 0.89650 0.10334
vt 0.89773 0.03675
vt 0.90545 0.23974
vt 0.90649 0.16945
vt 0.90682 0.49462
vt 0.91049 0.97622
vt 0.91288 0.46419
vt 0.91558 0.35752
vt 0.91872 0.33277
vt 0.91966 0.28062
vt 0.92616 0.86467
vt 0.92636 0.93034
vt 0.92697 0.66422
vt 0.92697 0.72750
vt 0.92744 0.79599
vt 0.92841 0.26919
vt 0.92864 0.16272
vt 0.93690 0.96477
vt 0.93751 0.74343
vt 0.93785 0.37907
vt 0.93785 0.44891
vt 0.93798 0.80452
vt 0.93798 0.87430
vt 0.94600 0.55188
vt 0.94700 0.18496
vt 0.94768 0.11733
vt 0.94824 0.00148
vt 0.94950 0.65950
vt 0.95098 0.05632
vt 0.95633 0.91843
vt 0.95773 0.26804
vt 0.96149 0.74347
vt 0.96337 0.28850
vt 0.96337 0.32794
vt 0.96468 0.83915
vt 0.96672 0.03313
vt 0.96673 0.00053
vt 0.96826 0.22967
vt 0.96962 0.89425
vt 0.97097 0.46929
vt 0.97203 0.65606
vt 0.97250 0.85816
vt 0.97428 0.42762
vt 0.98019 0.20149
vt 0.98270 0.97339
vt 0.98298 0.79837
vt 0.98391 0.62800
vt 0.98895 0.41071
vt 0.98960 0.34608
vt 0.99066 0.23200
vt 0.99434 0.65853
vt 0.99635 0.00153
vt 0.99739 0.03479
vt 0.99797 0.92945
s 0
usemtl RTS_stone
f 1/106/120 3/75/120 5/74/120
f 1/68/106 14/48/106 2/54/106
f 1/68/114 2/54/114 4/47/114
f 1/68/171 13/63/171 14/48/171
f 1/68/48 4/47/48 3/64/48
f 10/157/117 8/185/117 6/199/117
f 11/19/111 9/15/111 10/4/111
f 11/19/45 10/4/45 12/7/45
f 13/148/123 1/106/123 5/74/123
f 13/16/112 11/19/112 12/7/112
f 13/16/46 12/7/46 14/3/46
f 14/143/116 12/144/116 10/157/116
f 14/143/49 10/157/49 6/199/49
f 15/25/129 17/10/129 19/5/129
f 16/227/126 24/258/126 21/277/126
f 16/227/54 21/277/54 18/251/54
f 17/226/127 15/233/127 16/257/127
f 17/226/3 18/256/3 19/234/3
f 17/226/55 16/257/55 18/256/55
f 19/5/130 20/9/130 22/24/130
f 19/5/57 22/24/57 25/40/57
f 20/235/119 19/230/119 18/203/119
f 20/235/50 18/203/50 21/206/50
f 21/206/2 22/229/2 20/235/2
f 22/24/131 23/39/131 25/40/131
f 24/204/124 23/232/124 22/231/124
f 24/204/52 22/231/52 21/205/52
f 25/241/1 16/264/1 15/242/1
f 25/241/125 23/243/125 24/268/125
f 25/241/53 24/268/53 16/264/53
f 25/40/132 15/25/132 19/5/132
f 27/216/141 29/202/141 32/246/141
f 28/52/136 27/60/136 26/59/136
f 28/52/61 26/59/61 36/50/61
f 29/202/138 31/215/138 32/246/138
f 29/301/5 30/273/5 31/302/5
f 29/58/134 27/60/134 28/52/134
f 29/58/59 28/52/59 30/49/59
f 30/198/135 28/194/135 36/179/135
f 30/198/60 36/179/60 33/178/60
f 32/246/139 34/266/139 35/267/139
f 32/246/63 35/267/63 27/216/63
f 32/282/128 31/279/128 30/254/128
f 32/282/56 30/254/56 33/255/56
f 32/282/6 33/255/6 34/280/6
f 34/118/133 33/108/133 36/109/133
f 34/118/58 36/109/58 35/119/58
f 35/267/140 26/247/140 27/216/140
f 36/109/4 26/117/4 35/119/4
f 37/100/146 39/90/146 41/79/146
f 37/263/145 38/286/145 40/287/145
f 37/263/67 40/287/67 39/262/67
f 38/141/7 37/149/7 47/151/7
f 38/171/144 45/176/144 42/189/144
f 38/171/66 42/189/66 40/182/66
f 4/186/115 2/158/115 14/143/115
f 41/23/143 39/27/143 40/37/143
f 41/23/65 40/37/65 42/36/65
f 41/79/147 43/69/147 44/80/147
f 41/79/69 44/80/69 47/99/69
f 42/36/8 43/26/8 41/23/8
f 44/166/137 43/165/137 42/152/137
f 44/166/62 42/152/62 45/153/62
f 44/80/148 46/91/148 47/99/148
f 45/153/9 46/164/9 44/166/9
f 47/151/142 46/150/142 45/140/142
f 47/151/64 45/140/64 38/141/64
f 47/99/149 37/100/149 41/79/149
f 5/53/113 3/51/113 4/65/113
f 5/53/47 4/65/47 6/66/47
f 5/74/121 7/105/121 9/147/121
f 5/74/51 9/147/51 13/148/51
f 6/199/118 4/186/118 14/143/118
f 7/142/109 5/146/109 6/155/109
f 7/142/110 8/154/110 10/156/110
f 7/142/43 6/155/43 8/154/43
f 7/142/44 10/156/44 9/145/44
f 9/147/122 11/159/122 13/148/122
usemtl RTS_crystal
f 100/134/38 101/127/38 102/132/38
f 48/42/150 49/29/150 53/33/150
f 48/42/70 53/33/70 52/41/70
f 49/29/72 54/20/72 53/33/72
f 50/57/152 51/46/152 56/45/152
f 50/57/73 56/45/73 55/56/73
f 50/6/68 48/18/68 51/8/68
f 50/6/68 49/13/68 48/18/68
f 51/14/75 57/12/75 56/17/75
f 52/41/10 53/33/10 58/34/10
f 53/33/11 54/20/11 58/34/11
f 54/70/12 55/61/12 58/67/12
f 54/70/151 49/71/151 50/62/151
f 54/70/71 50/62/71 55/61/71
f 55/56/13 56/45/13 58/55/13
f 56/17/14 57/12/14 58/11/14
f 57/12/15 52/1/15 58/11/15
f 57/12/153 51/14/153 48/2/153
f 57/12/74 48/2/74 52/1/74
f 59/107/78 64/102/78 63/110/78
f 60/265/76 59/259/76 62/239/76
f 60/265/76 62/239/76 61/248/76
f 61/81/18 65/89/18 60/92/18
f 61/81/19 66/76/19 65/89/19
f 62/139/81 59/124/81 63/133/81
f 63/110/16 64/102/16 67/101/16
f 64/102/154 59/107/154 60/96/154
f 64/102/17 65/95/17 67/101/17
f 64/102/77 60/96/77 65/95/77
f 65/89/20 66/76/20 67/84/20
f 66/120/155 61/121/155 62/113/155
f 66/120/21 63/112/21 67/116/21
f 66/120/79 62/113/79 63/112/79
f 68/32/83 73/28/83 72/35/83
f 69/160/23 73/167/23 68/170/23
f 69/188/156 70/177/156 74/180/156
f 69/188/82 74/180/82 73/187/82
f 69/307/80 68/298/80 71/271/80
f 69/307/80 71/271/80 70/283/80
f 70/177/85 75/173/85 74/180/85
f 71/161/26 75/168/26 70/172/26
f 72/35/157 75/43/157 71/44/157
f 72/35/22 73/28/22 76/38/22
f 72/35/84 71/44/84 68/32/84
f 73/187/24 74/180/24 76/181/24
f 74/180/25 75/173/25 76/181/25
f 75/43/27 72/35/27 76/38/27
f 77/184/90 80/175/90 83/183/90
f 78/174/29 80/175/29 77/184/29
f 78/288/28 77/275/28 79/299/28
f 79/197/88 82/191/88 81/210/88
f 80/218/30 81/207/30 83/214/30
f 81/207/158 80/218/158 78/219/158
f 81/207/86 78/219/86 79/208/86
f 81/210/31 82/191/31 83/196/31
f 82/200/159 79/201/159 77/190/159
f 82/200/87 77/190/87 83/195/87
f 84/274/91 86/296/91 85/293/91
f 87/122/160 84/123/160 85/114/160
f 87/122/32 88/111/32 90/115/32
f 87/122/89 85/114/89 88/111/89
f 87/77/162 89/85/162 86/86/162
f 87/77/93 86/86/93 84/78/93
f 88/135/161 85/136/161 86/126/161
f 88/135/33 89/125/33 90/130/33
f 88/135/92 86/126/92 89/125/92
f 89/162/34 87/169/34 90/163/34
f 93/276/35 92/295/35 91/292/35
f 94/212/36 95/220/36 96/213/36
f 94/223/165 96/238/165 93/240/165
f 94/223/96 93/240/96 91/224/96
f 94/249/163 91/250/163 92/237/163
f 94/249/94 92/237/94 95/236/94
f 95/221/164 92/222/164 93/211/164
f 95/221/95 93/211/95 96/217/95
f 97/260/40 100/253/40 102/261/40
f 97/260/98 98/252/98 100/253/98
f 98/131/99 101/127/99 100/134/99
f 99/209/37 98/193/37 97/192/37
f 99/269/100 102/270/100 101/278/100
f 99/269/39 101/278/39 98/284/39
f 99/285/101 97/272/101 102/281/101
usemtl RTS_stone_dressed
f 103/88/166 105/87/166 106/94/166
f 103/88/97 106/94/97 104/93/97
f 105/73/102 104/83/102 106/82/102
f 105/73/167 103/72/167 104/83/167
f 108/306/104 110/290/104 109/305/104
f 108/306/169 107/289/169 110/290/169
f 109/103/103 107/97/103 108/104/103
f 109/103/168 110/98/168 107/97/168
f 111/129/105 116/138/105 112/137/105
f 111/129/170 114/128/170 116/138/170
f 111/245/108 115/225/108 114/244/108
f 111/245/173 113/228/173 115/225/173
f 112/300/42 113/304/42 111/294/42
f 115/30/107 112/21/107 116/31/107
f 115/30/172 113/22/172 112/21/172
f 116/297/41 114/303/41 115/291/41
