# Blender 4.0.2
# www.blender.org
mtllib resource_node_collision.mtl
o resource_node_collision
v 0.016449 0.000000 1.216591
v -1.426194 0.000000 -0.339591
v -1.446629 0.028223 -0.331420
v -1.300460 0.421777 -0.389868
v -1.392581 0.000000 -0.830207
v -1.411711 0.028223 -0.841089
v -1.274879 0.421777 -0.763252
v -0.988045 0.000000 -1.109821
v -0.991464 0.028223 -1.131562
v -0.967006 0.421777 -0.976052
v 1.050165 0.000000 0.956901
v 1.054371 0.028121 0.978187
v 1.026882 0.371879 0.839076
v 1.421903 0.000000 0.239551
v 1.441720 0.028121 0.230713
v 1.312214 0.371879 0.288468
v 1.408763 0.000000 0.687736
v 1.428027 0.028121 0.697719
v 1.302127 0.371879 0.632476
v 0.144726 0.000000 -1.312634
v 0.133708 0.028338 -1.332099
v 0.189442 0.321662 -1.233640
v 0.505533 0.000000 -1.336588
v 0.513881 0.028338 -1.357339
v 0.471652 0.321662 -1.252376
v 0.128831 2.193600 0.364647
v 0.000000 3.000000 0.050000
v -0.607703 1.542185 0.622021
v -0.824963 1.536903 0.479297
v -0.609488 2.099030 0.367308
v 0.728607 1.379572 0.507324
v 0.714177 1.886871 0.276365
v -1.199869 0.000000 0.704049
v -1.205148 0.030000 0.733581
v -1.229401 0.030000 0.698770
v -1.229401 0.230000 0.698770
v -1.205148 0.230000 0.733581
v 1.294222 0.000000 -0.550282
v 1.310814 0.030000 -0.575276
v 1.319216 0.030000 -0.533690
v 1.319216 0.230000 -0.533690
v 1.310814 0.230000 -0.575276
v -0.170484 0.000000 1.263449
v -0.166522 0.030000 1.293186
v -0.166522 0.230000 1.293186
v -0.408382 0.000000 1.295150
v -0.404419 0.030000 1.324887
v -0.404419 0.230000 1.324887
vn -0.8163 -0.5749 -0.0559
vn -0.7757 -0.6093 0.1646
vn -0.9785 -0.0000 0.2063
vn -0.9396 0.3137 0.1367
vn -0.9333 0.3548 0.0553
vn -0.9386 0.3390 -0.0643
vn -0.4652 -0.5749 -0.6731
vn -0.5349 0.3390 -0.7739
vn -0.0000 -1.0000 -0.0000
vn -0.7175 -0.6789 0.1556
vn -0.6699 -0.5774 0.4667
vn -0.8205 -0.0000 0.5716
vn -0.7745 0.3303 0.5396
vn -0.5195 0.3541 0.7777
vn -0.9302 0.3647 0.0410
vn -0.5642 0.3128 0.7641
vn -0.5224 0.3383 0.7827
vn -0.9125 0.4042 -0.0625
vn -0.1407 -0.5971 -0.7897
vn -0.1390 -0.6148 -0.7763
vn -0.1711 0.3713 -0.9126
vn -0.1649 0.3419 -0.9252
vn -0.8418 0.4886 -0.2295
vn -0.5002 0.4756 -0.7236
vn -0.4461 -0.6665 0.5973
vn -0.4823 -0.5837 0.6532
vn -0.5940 -0.0000 0.8044
vn -0.4247 0.3755 0.8238
vn -0.1799 0.4328 0.8833
vn 0.1321 -0.0000 0.9912
vn 0.1210 0.4004 0.9083
vn -0.0540 -0.5795 -0.8132
vn -0.0626 0.3283 -0.9425
vn -0.1631 0.4170 -0.8942
vn -0.0599 0.4280 -0.9018
vn 0.2377 0.3858 0.8914
vn 0.3216 0.3883 0.8636
vn 0.3489 0.3965 0.8492
vn 0.8249 0.4634 -0.3237
vn 0.5940 0.4340 -0.6774
vn 0.0934 -0.7071 0.7009
vn 0.2498 -0.0000 0.9683
vn 0.2892 0.3733 0.8815
vn 0.6123 0.3431 -0.7124
vn 0.7004 -0.0000 -0.7137
vn 0.5667 -0.5889 -0.5762
vn 0.5041 -0.7001 -0.5057
vn 0.3052 0.3781 0.8740
vn 0.3053 0.3781 0.8740
vn 0.3924 0.3903 0.8329
vn 0.5533 0.3880 0.7371
vn 0.9297 0.3672 0.0273
vn 0.9289 0.3662 -0.0553
vn 0.8923 0.4140 -0.1803
vn 0.9802 -0.0000 -0.1980
vn 0.1725 -0.7048 0.6881
vn 0.1731 -0.7036 0.6892
vn 0.1970 -0.6103 0.7673
vn 0.4929 -0.5708 0.6567
vn 0.5627 0.3484 0.7497
vn 0.8003 -0.5774 -0.1617
vn 0.7958 -0.5917 -0.1290
vn 0.7913 -0.5978 -0.1279
vn 0.9370 0.3484 0.0275
vn 0.9314 0.3600 -0.0542
vn 0.9874 -0.0000 -0.1582
vn 0.8207 -0.5708 0.0241
vt 0.00000 0.36343
vt 0.00000 0.69822
vt 0.00209 0.32270
vt 0.00530 0.82294
vt 0.01436 0.33737
vt 0.04514 0.86031
vt 0.06375 0.64403
vt 0.10882 0.62244
vt 0.10961 0.61720
vt 0.12606 0.44050
vt 0.12713 0.44523
vt 0.13193 0.44351
vt 0.14042 0.41445
vt 0.14629 0.41745
vt 0.17234 0.64698
vt 0.17580 0.64278
vt 0.18266 0.97107
vt 0.18731 0.62033
vt 0.20770 0.20792
vt 0.23937 0.22882
vt 0.25108 0.57391
vt 0.25198 1.00000
vt 0.26284 0.53930
vt 0.26918 0.50179
vt 0.27160 0.49916
vt 0.27873 0.14560
vt 0.29705 0.44042
vt 0.30332 0.97842
vt 0.30512 0.74424
vt 0.32647 0.51901
vt 0.32912 0.76183
vt 0.33111 0.51705
vt 0.33354 0.75704
vt 0.34065 0.00000
vt 0.34065 0.45352
vt 0.34371 0.37328
vt 0.34647 0.73812
vt 0.35211 0.56836
vt 0.35694 0.78565
vt 0.36136 0.78086
vt 0.37322 0.33534
vt 0.37429 0.76194
vt 0.38156 0.90065
vt 0.38693 0.52199
vt 0.38693 0.89686
vt 0.46321 0.44251
vt 0.46943 0.44468
vt 0.47277 0.41482
vt 0.47900 0.41700
vt 0.57300 0.82807
vt 0.57855 0.82747
vt 0.58366 0.48354
vt 0.58856 0.66666
vt 0.59157 0.66102
vt 0.59519 0.66634
vt 0.59951 0.85796
vt 0.60371 0.85583
vt 0.60823 0.43268
vt 0.64922 0.56016
vt 0.65317 0.50317
vt 0.65446 0.56195
vt 0.65943 0.44714
vt 0.67668 0.19576
vt 0.68872 0.93155
vt 0.68920 0.44382
vt 0.68998 0.50615
vt 0.69358 0.00000
vt 0.69358 0.49866
vt 0.69358 0.51011
vt 0.69358 0.92981
vt 0.69665 0.42549
vt 0.69812 0.42904
vt 0.73040 0.37056
vt 0.76584 0.45692
vt 0.76701 0.45445
vt 0.78194 0.39178
vt 0.94020 0.49433
vt 0.95739 0.44965
vt 0.99760 0.50503
vt 1.00000 0.00000
vt 1.00000 0.45760
s 0
usemtl RTS_collision
f 1/29/56 44/33/56 43/31/56
f 1/29/57 11/15/57 44/33/57
f 10/76/21 22/78/21 9/75/21
f 11/15/58 12/16/58 44/33/58
f 11/15/59 18/9/59 12/16/59
f 12/16/43 26/38/43 45/37/43
f 12/16/48 31/21/48 26/38/48
f 12/16/49 13/18/49 31/21/49
f 13/18/50 32/23/50 31/21/50
f 13/65/51 19/62/51 32/63/51
f 15/52/64 16/58/64 19/62/64
f 15/52/65 41/49/65 16/58/65
f 15/52/66 40/47/66 41/49/66
f 15/59/63 14/61/63 38/55/63
f 16/58/53 41/49/53 32/63/53
f 17/69/67 14/61/67 15/59/67
f 17/69/67 15/59/67 18/66/67
f 17/8/59 18/9/59 11/15/59
f 18/60/60 13/65/60 12/68/60
f 18/60/60 19/62/60 13/65/60
f 18/60/64 15/52/64 19/62/64
f 19/62/52 16/58/52 32/63/52
f 2/24/2 35/12/2 3/25/2
f 20/57/20 8/70/20 9/64/20
f 21/56/19 20/57/19 9/64/19
f 22/78/22 21/77/22 9/75/22
f 22/78/33 25/81/33 21/77/33
f 24/50/32 20/57/32 21/56/32
f 24/50/32 23/51/32 20/57/32
f 25/41/44 42/48/44 24/36/44
f 25/81/33 24/79/33 21/77/33
f 26/38/37 31/21/37 27/44/37
f 27/80/24 10/76/24 7/73/24
f 27/80/34 22/78/34 10/76/34
f 27/80/35 25/81/35 22/78/35
f 28/19/14 30/26/14 29/20/14
f 29/20/5 4/27/5 3/25/5
f 30/26/15 4/27/15 29/20/15
f 30/26/18 7/35/18 4/27/18
f 30/26/23 27/34/23 7/35/23
f 31/21/38 32/23/38 27/44/38
f 32/63/39 42/48/39 27/67/39
f 33/11/10 35/12/10 2/24/10
f 33/11/11 34/10/11 35/12/11
f 34/10/12 36/14/12 35/12/12
f 34/10/12 37/13/12 36/14/12
f 35/12/3 36/14/3 3/25/3
f 36/14/4 29/20/4 3/25/4
f 37/13/13 29/20/13 36/14/13
f 37/13/16 48/5/16 29/20/16
f 39/53/46 23/51/46 24/50/46
f 39/53/47 38/55/47 23/51/47
f 4/27/6 6/32/6 3/25/6
f 4/27/6 7/35/6 6/32/6
f 40/54/61 38/55/61 39/53/61
f 40/54/62 15/59/62 38/55/62
f 41/49/54 42/48/54 32/63/54
f 41/49/55 39/46/55 42/48/55
f 41/49/55 40/47/55 39/46/55
f 42/48/40 25/41/40 27/67/40
f 42/48/45 39/46/45 24/36/45
f 43/31/41 44/33/41 47/40/41
f 43/31/41 47/40/41 46/39/41
f 44/33/42 12/16/42 45/37/42
f 45/3/31 27/34/31 48/5/31
f 45/37/36 26/38/36 27/44/36
f 46/39/25 34/45/25 33/43/25
f 46/39/26 47/40/26 34/45/26
f 47/1/27 37/13/27 34/10/27
f 47/1/27 48/5/27 37/13/27
f 47/40/30 44/33/30 45/37/30
f 47/40/30 45/37/30 48/42/30
f 48/5/17 28/19/17 29/20/17
f 48/5/28 30/26/28 28/19/28
f 48/5/29 27/34/29 30/26/29
f 5/30/1 2/24/1 3/25/1
f 6/32/1 5/30/1 3/25/1
f 7/73/8 10/76/8 9/75/8
f 7/73/8 9/75/8 6/71/8
f 8/17/9 1/29/9 43/31/9
f 8/17/9 11/15/9 1/29/9
f 8/17/9 14/7/9 17/8/9
f 8/17/9 17/8/9 11/15/9
f 8/17/9 2/28/9 5/22/9
f 8/17/9 20/6/9 23/4/9
f 8/17/9 23/4/9 38/2/9
f 8/17/9 33/43/9 2/28/9
f 8/17/9 38/2/9 14/7/9
f 8/17/9 43/31/9 46/39/9
f 8/17/9 46/39/9 33/43/9
f 9/75/7 5/72/7 6/71/7
f 9/75/7 8/74/7 5/72/7
