# Blender 4.0.2
# www.blender.org
mtllib unit_marker_lod1.mtl
o unit_marker_lod1
v -0.500000 0.020000 -0.000000
v -0.415385 0.040000 -0.153893
v -0.456672 0.000000 0.216465
v -0.443549 0.040000 0.242220
v -0.392738 0.040000 0.186160
v -0.415385 0.000000 0.153893
v -0.229680 0.020000 0.450773
v -0.186160 0.000000 0.392738
v 0.000000 0.020000 0.500000
v -0.153893 0.040000 0.415385
v 0.216465 0.000000 0.456672
v 0.242220 0.040000 0.443549
v 0.186160 0.040000 0.392738
v 0.153893 0.000000 0.415385
v 0.483006 0.000000 0.178946
v 0.456672 0.040000 0.216465
v 0.387665 0.020000 0.197525
v 0.430000 0.020000 0.000000
v 0.456672 0.000000 -0.216465
v 0.483006 0.040000 -0.178946
v 0.387665 0.020000 -0.197525
v 0.242220 0.000000 -0.443549
v 0.216465 0.040000 -0.456672
v 0.186160 0.000000 -0.392738
v 0.000000 0.020000 -0.500000
v 0.153893 0.040000 -0.415385
v -0.229680 0.020000 -0.450773
v -0.186160 0.040000 -0.392738
v -0.153893 0.000000 -0.415385
v -0.450773 0.020000 -0.229680
v -0.392738 0.000000 -0.186160
v 0.070000 0.015000 0.360000
v -0.000000 0.015000 0.270000
v -0.070000 0.015000 0.360000
v 0.305234 0.000000 0.317020
v 0.352375 0.050000 0.317020
v 0.352375 0.000000 0.340590
v 0.305234 0.050000 0.340590
v 0.360000 0.015000 -0.070000
v 0.270000 0.015000 0.000000
v 0.360000 0.015000 0.070000
v 0.305234 0.050000 -0.317020
v 0.317020 0.000000 -0.305234
v 0.340590 0.000000 -0.352375
v 0.352375 0.050000 -0.340590
v -0.070000 0.015000 -0.360000
v 0.000000 0.015000 -0.270000
v 0.070000 0.015000 -0.360000
v -0.317020 0.000000 -0.352375
v -0.352375 0.050000 -0.317020
v -0.305234 0.050000 -0.340590
v -0.340590 0.000000 -0.305234
v -0.360000 0.015000 0.070000
v -0.270000 0.015000 0.000000
v -0.360000 0.015000 -0.070000
v -0.352375 0.000000 0.317020
v -0.305234 0.050000 0.317020
v -0.305234 0.000000 0.340590
v -0.352375 0.050000 0.340590
vn 0.8884 -0.4553 -0.0592
vn -0.6919 -0.2165 0.6888
vn -0.0772 0.9297 0.3601
vn -0.0592 -0.4553 -0.8884
vn -0.6813 0.1431 -0.7179
vn -0.2136 -0.9758 -0.0458
vn 0.8576 -0.5111 -0.0571
vn 0.2091 -0.1807 -0.9611
vn -0.0703 0.9918 -0.1066
vn 0.0592 -0.4553 0.8884
vn -0.3601 0.9297 -0.0772
vn -0.0000 -1.0000 -0.0000
vn -0.0000 1.0000 -0.0000
vn 0.4121 -0.3885 -0.8242
vn -0.4121 -0.3885 0.8242
vn -0.9611 0.1807 0.2091
vn -0.1720 0.9687 0.1792
vn -0.1066 -0.9918 -0.0703
vn 0.7135 0.1484 -0.6848
vn -0.1454 -0.9639 0.2231
vn -0.0609 -0.9569 0.2841
vn 0.0592 0.4553 -0.8884
vn 0.0137 0.9784 0.2063
vn 0.2091 0.1807 0.9611
vn 0.7065 -0.2360 0.6672
vn -0.0703 -0.9918 0.1066
vn 0.0479 0.9975 -0.0528
vn -0.2430 -0.9416 -0.2332
vn -0.2636 0.9630 -0.0565
vn 0.8576 0.5111 0.0571
vn -0.4375 -0.8988 0.0291
vn -0.2136 0.9758 0.0458
vn 0.7107 0.1719 -0.6821
vn 0.0354 0.9979 0.0536
vn -0.2194 -0.9534 0.2072
vn -0.6813 -0.1431 0.7179
vn -0.0654 -0.9953 -0.0721
vn -0.0592 0.4553 0.8884
vn -0.0137 0.9784 -0.2063
vn -0.1792 0.9687 -0.1720
vn -0.0772 -0.9297 -0.3601
vn -0.2063 0.9784 0.0137
vn 0.6848 0.1484 0.7135
vn -0.1897 -0.9633 -0.1897
vn -0.2841 -0.9569 -0.0609
vn 0.8884 0.4553 0.0592
vn -0.8528 0.3015 -0.4264
vn -0.4121 0.3885 -0.8242
vn 0.4121 0.3885 0.8242
vn 0.8528 0.3015 0.4264
vn 0.0495 0.9978 0.0449
vn 0.6848 -0.1484 -0.7135
vn -0.0137 -0.9784 0.2063
vn -0.0654 0.9953 0.0721
vn 0.7107 -0.1719 0.6821
vn -0.2194 0.9534 -0.2072
vn 0.0354 -0.9979 -0.0536
vn -0.4375 0.8988 -0.0291
vn -0.2636 -0.9630 0.0565
vn 0.7065 0.2360 -0.6672
vn -0.2430 0.9416 0.2332
vn 0.0479 -0.9975 0.0528
vn 0.0137 -0.9784 -0.2063
vn -0.0609 0.9569 -0.2841
vn -0.1897 0.9633 -0.1897
vn -0.0721 0.9953 -0.0654
vn 0.7135 -0.1484 0.6848
vn -0.1720 -0.9687 -0.1792
vn -0.2063 -0.9784 -0.0137
vn -0.4264 -0.3015 -0.8528
vn 0.4264 -0.3015 0.8528
vt 0.00000 0.24150
vt 0.00000 0.74394
vt 0.03438 0.36313
vt 0.03438 0.86557
vt 0.04917 0.25504
vt 0.04917 0.75748
vt 0.07312 0.09666
vt 0.07312 0.59910
vt 0.10167 0.12809
vt 0.13309 0.61001
vt 0.13647 0.44577
vt 0.13647 0.94821
vt 0.15187 0.40329
vt 0.15187 0.90573
vt 0.18979 0.52679
vt 0.21240 0.05577
vt 0.31279 0.00691
vt 0.34096 0.49756
vt 0.34240 0.03483
vt 0.34240 0.53727
vt 0.36008 0.46273
vt 0.36008 0.96517
vt 0.36152 0.50244
vt 0.38969 0.99309
vt 0.49008 0.94423
vt 0.51269 0.47321
vt 0.55061 0.09427
vt 0.55061 0.59671
vt 0.56601 0.05179
vt 0.56601 0.55423
vt 0.56939 0.38999
vt 0.60081 0.87191
vt 0.62936 0.40090
vt 0.62936 0.90334
vt 0.65331 0.24252
vt 0.65331 0.74496
vt 0.66810 0.13443
vt 0.66810 0.63687
vt 0.70248 0.25606
vt 0.70248 0.75850
vt 0.70937 0.10815
vt 0.70937 0.36109
vt 0.70937 0.41853
vt 0.70937 0.42341
vt 0.70937 0.48085
vt 0.70937 0.52903
vt 0.70937 0.59135
vt 0.70937 0.61036
vt 0.70937 0.66780
vt 0.72359 0.00000
vt 0.72359 0.25498
vt 0.73782 0.09430
vt 0.74471 0.10815
vt 0.74471 0.26191
vt 0.74471 0.35621
vt 0.75182 0.67268
vt 0.75182 0.69787
vt 0.75893 0.00000
vt 0.77316 0.09430
vt 0.77316 0.27875
vt 0.78005 0.07746
vt 0.78005 0.26191
vt 0.78738 0.67268
vt 0.78738 0.69787
vt 0.78797 0.40439
vt 0.78797 0.46671
vt 0.78797 0.48573
vt 0.78797 0.54317
vt 0.78797 0.54805
vt 0.78797 0.60548
vt 0.78797 0.65366
vt 0.79427 0.35621
vt 0.80850 0.00000
vt 0.80850 0.09430
vt 0.80850 0.24806
vt 0.85072 0.06662
vt 0.85072 0.22524
vt 0.85072 0.30634
vt 0.85072 0.53646
vt 0.85072 0.61757
vt 0.85072 0.62245
vt 0.85072 0.67988
vt 0.86495 0.39828
vt 0.87917 0.00000
vt 0.87917 0.08110
vt 0.87917 0.23973
vt 0.87917 0.55095
vt 0.88606 0.06662
vt 0.88606 0.37784
vt 0.88606 0.53646
vt 0.88606 0.61757
vt 0.90029 0.21929
vt 0.91451 0.00000
vt 0.91451 0.08110
vt 0.91451 0.31122
vt 0.91451 0.39233
vt 0.91451 0.55095
vt 0.92140 0.01414
vt 0.92140 0.10562
vt 0.92140 0.53862
vt 0.92140 0.56869
vt 0.92140 0.59036
vt 0.92140 0.61555
vt 0.92932 0.63659
vt 0.93621 0.62245
vt 0.93621 0.64763
vt 0.93621 0.68258
vt 0.93621 0.70777
vt 0.94963 0.12463
vt 0.94963 0.14982
vt 0.94963 0.15470
vt 0.94963 0.17989
vt 0.94963 0.43053
vt 0.94963 0.46059
vt 0.95696 0.53022
vt 0.95696 0.55541
vt 0.95696 0.56029
vt 0.95696 0.58548
vt 0.95696 0.59036
vt 0.95696 0.61555
vt 0.96148 0.45572
vt 0.96148 0.48578
vt 0.96385 0.55541
vt 0.96385 0.58548
vt 0.97177 0.62245
vt 0.97177 0.64763
vt 0.97177 0.68258
vt 0.97177 0.70777
vt 0.98519 0.14143
vt 0.98519 0.17150
vt 0.98519 0.43053
vt 0.98519 0.46059
vt 0.98756 0.53022
vt 0.98756 0.56029
vt 0.99942 0.55541
vt 0.99942 0.58548
vt 1.00000 0.00000
vt 1.00000 0.05744
vt 1.00000 0.06232
vt 1.00000 0.11976
s 0
usemtl RTS_azure_trim
f 1/26/11 2/31/11 30/33/11
f 1/26/42 5/21/42 2/31/42
f 1/26/66 4/18/66 5/21/66
f 10/76/22 14/84/22 8/85/22
f 11/12/28 17/22/28 15/24/28
f 11/12/57 14/14/57 17/22/57
f 11/59/24 12/53/24 9/58/24
f 11/59/25 16/54/25 12/53/25
f 11/59/55 15/60/55 16/54/55
f 12/1/27 17/9/27 13/5/27
f 12/1/56 16/7/56 17/9/56
f 13/79/4 14/87/4 10/80/4
f 14/14/26 11/12/26 9/4/26
f 15/60/30 20/55/30 16/54/30
f 16/7/29 18/16/29 17/9/29
f 16/7/58 20/17/58 18/16/58
f 17/83/5 14/87/5 13/79/5
f 18/25/31 19/34/31 15/24/31
f 18/25/59 21/32/59 19/34/59
f 18/25/6 15/24/6 17/22/6
f 19/74/33 23/62/33 20/61/33
f 19/74/60 22/75/60 23/62/60
f 19/74/7 20/61/7 15/73/7
f 2/89/46 6/95/46 31/96/46
f 20/17/32 21/19/32 18/16/32
f 21/19/34 23/29/34 26/27/34
f 21/19/61 20/17/61 23/29/61
f 21/32/35 22/40/35 19/34/35
f 21/32/62 24/36/62 22/40/62
f 24/36/37 25/38/37 22/40/37
f 24/36/63 29/28/63 25/38/63
f 25/37/39 28/35/39 26/27/39
f 25/37/64 27/39/64 28/35/64
f 25/37/9 26/27/9 23/29/9
f 25/72/8 23/62/8 22/75/8
f 26/88/36 24/94/36 21/92/36
f 26/88/38 29/93/38 24/94/38
f 27/30/44 31/20/44 30/23/44
f 27/30/68 29/28/68 31/20/68
f 28/35/40 30/33/40 2/31/40
f 28/35/65 27/39/65 30/33/65
f 28/90/10 29/97/10 26/91/10
f 28/90/43 31/96/43 29/97/43
f 28/90/67 2/89/67 31/96/67
f 29/28/41 27/30/41 25/38/41
f 3/52/16 4/41/16 1/50/16
f 3/8/12 6/10/12 8/6/12
f 3/8/20 8/6/20 7/2/20
f 31/20/45 1/15/45 30/23/45
f 31/20/69 6/10/69 1/15/69
f 5/21/17 7/11/17 10/13/17
f 5/21/51 4/18/51 7/11/51
f 5/77/1 6/86/1 2/78/1
f 5/77/19 8/85/19 6/86/19
f 5/77/52 10/76/52 8/85/52
f 6/10/18 3/8/18 1/15/18
f 7/51/2 4/41/2 3/52/2
f 8/6/21 9/4/21 7/2/21
f 8/6/53 14/14/53 9/4/53
f 9/3/23 13/5/23 10/13/23
f 9/3/3 10/13/3 7/11/3
f 9/3/54 12/1/54 13/5/54
usemtl RTS_azure_cloth
f 33/137/13 34/138/13 32/98/13
f 34/82/12 33/81/12 32/104/12
f 40/140/13 41/99/13 39/139/13
f 41/65/12 40/43/12 39/42/12
f 47/68/13 48/46/13 46/67/13
f 48/66/12 47/45/12 46/44/12
f 54/49/13 55/48/13 53/71/13
f 55/69/12 54/70/12 53/47/12
usemtl RTS_iron
f 36/100/14 37/115/14 35/116/14
f 36/114/49 38/132/49 37/122/49
f 38/101/15 35/117/15 37/118/15
f 38/113/48 36/131/48 35/121/48
f 43/120/47 45/102/47 44/119/47
f 43/120/70 42/103/70 45/102/70
f 44/126/50 42/105/50 43/125/50
f 44/126/71 45/106/71 42/105/71
f 49/57/50 50/63/50 52/64/50
f 49/57/71 51/56/71 50/63/71
f 52/108/47 51/127/47 49/128/47
f 52/108/70 50/107/70 51/127/70
f 57/110/49 59/109/49 58/129/49
f 57/133/14 58/135/14 56/123/14
f 59/112/48 57/111/48 56/130/48
f 59/134/15 56/136/15 58/124/15
