# Blender 4.0.2
# www.blender.org
mtllib unit_marker.mtl
o unit_marker
v -0.500000 0.000000 0.000000
v -0.500000 0.040000 0.000000
v -0.430000 0.040000 0.000000
v -0.430000 0.000000 0.000000
v -0.475528 0.000000 0.154509
v -0.475528 0.040000 0.154509
v -0.408954 0.040000 0.132877
v -0.408954 0.000000 0.132877
v -0.404509 0.000000 0.293893
v -0.404509 0.040000 0.293893
v -0.347877 0.040000 0.252748
v -0.347877 0.000000 0.252748
v -0.293893 0.000000 0.404509
v -0.293893 0.040000 0.404509
v -0.252748 0.040000 0.347877
v -0.252748 0.000000 0.347877
v -0.154509 0.000000 0.475528
v -0.154509 0.040000 0.475528
v -0.132877 0.040000 0.408954
v -0.132877 0.000000 0.408954
v -0.000000 0.000000 0.500000
v -0.000000 0.040000 0.500000
v -0.000000 0.040000 0.430000
v -0.000000 0.000000 0.430000
v 0.154509 0.000000 0.475528
v 0.154509 0.040000 0.475528
v 0.132877 0.040000 0.408954
v 0.132877 0.000000 0.408954
v 0.293893 0.000000 0.404509
v 0.293893 0.040000 0.404509
v 0.252748 0.040000 0.347877
v 0.252748 0.000000 0.347877
v 0.404509 0.000000 0.293893
v 0.404509 0.040000 0.293893
v 0.347877 0.040000 0.252748
v 0.347877 0.000000 0.252748
v 0.475528 0.000000 0.154509
v 0.475528 0.040000 0.154509
v 0.408954 0.040000 0.132877
v 0.408954 0.000000 0.132877
v 0.500000 0.000000 0.000000
v 0.500000 0.040000 0.000000
v 0.430000 0.040000 0.000000
v 0.430000 0.000000 0.000000
v 0.475528 0.000000 -0.154509
v 0.475528 0.040000 -0.154509
v 0.408954 0.040000 -0.132877
v 0.408954 0.000000 -0.132877
v 0.404509 0.000000 -0.293893
v 0.404509 0.040000 -0.293893
v 0.347877 0.040000 -0.252748
v 0.347877 0.000000 -0.252748
v 0.293893 0.000000 -0.404509
v 0.293893 0.040000 -0.404509
v 0.252748 0.040000 -0.347877
v 0.252748 0.000000 -0.347877
v 0.154509 0.000000 -0.475528
v 0.154509 0.040000 -0.475528
v 0.132877 0.040000 -0.408954
v 0.132877 0.000000 -0.408954
v 0.000000 0.000000 -0.500000
v 0.000000 0.040000 -0.500000
v 0.000000 0.040000 -0.430000
v 0.000000 0.000000 -0.430000
v -0.154509 0.000000 -0.475528
v -0.154509 0.040000 -0.475528
v -0.132877 0.040000 -0.408954
v -0.132877 0.000000 -0.408954
v -0.293893 0.000000 -0.404509
v -0.293893 0.040000 -0.404509
v -0.252748 0.040000 -0.347877
v -0.252748 0.000000 -0.347877
v -0.404509 0.000000 -0.293893
v -0.404509 0.040000 -0.293893
v -0.347877 0.040000 -0.252748
v -0.347877 0.000000 -0.252748
v -0.475528 0.000000 -0.154509
v -0.475528 0.040000 -0.154509
v -0.408954 0.040000 -0.132877
v -0.408954 0.000000 -0.132877
v -0.070000 0.000000 0.360000
v 0.070000 0.000000 0.360000
v -0.000000 0.000000 0.270000
v -0.070000 0.030000 0.360000
v 0.070000 0.030000 0.360000
v -0.000000 0.030000 0.270000
v 0.293449 0.000000 0.328805
v 0.293449 0.050000 0.328805
v 0.328805 0.000000 0.293449
v 0.328805 0.050000 0.293449
v 0.328805 0.000000 0.364160
v 0.328805 0.050000 0.364160
v 0.364160 0.000000 0.328805
v 0.364160 0.050000 0.328805
v 0.360000 0.000000 0.070000
v 0.360000 0.000000 -0.070000
v 0.270000 0.000000 0.000000
v 0.360000 0.030000 0.070000
v 0.360000 0.030000 -0.070000
v 0.270000 0.030000 0.000000
v 0.328805 0.000000 -0.293449
v 0.328805 0.050000 -0.293449
v 0.293449 0.000000 -0.328805
v 0.293449 0.050000 -0.328805
v 0.364160 0.000000 -0.328805
v 0.364160 0.050000 -0.328805
v 0.328805 0.000000 -0.364160
v 0.328805 0.050000 -0.364160
v 0.070000 0.000000 -0.360000
v -0.070000 0.000000 -0.360000
v 0.000000 0.000000 -0.270000
v 0.070000 0.030000 -0.360000
v -0.070000 0.030000 -0.360000
v 0.000000 0.030000 -0.270000
v -0.293449 0.000000 -0.328805
v -0.293449 0.050000 -0.328805
v -0.328805 0.000000 -0.293449
v -0.328805 0.050000 -0.293449
v -0.328805 0.000000 -0.364160
v -0.328805 0.050000 -0.364160
v -0.364160 0.000000 -0.328805
v -0.364160 0.050000 -0.328805
v -0.360000 0.000000 -0.070000
v -0.360000 0.000000 0.070000
v -0.270000 0.000000 0.000000
v -0.360000 0.030000 -0.070000
v -0.360000 0.030000 0.070000
v -0.270000 0.030000 0.000000
v -0.328805 0.000000 0.293449
v -0.328805 0.050000 0.293449
v -0.293449 0.000000 0.328805
v -0.293449 0.050000 0.328805
v -0.364160 0.000000 0.328805
v -0.364160 0.050000 0.328805
v -0.328805 0.000000 0.364160
v -0.328805 0.050000 0.364160
vn -0.9877 -0.0000 0.1564
vn -0.0000 1.0000 -0.0000
vn 0.9877 -0.0000 -0.1564
vn -0.0000 -1.0000 -0.0000
vn -0.8910 -0.0000 0.4540
vn 0.8910 -0.0000 -0.4540
vn -0.7071 -0.0000 0.7071
vn 0.7071 -0.0000 -0.7071
vn -0.4540 -0.0000 0.8910
vn 0.4540 -0.0000 -0.8910
vn -0.1564 -0.0000 0.9877
vn 0.1564 -0.0000 -0.9877
vn 0.1564 -0.0000 0.9877
vn -0.1564 -0.0000 -0.9877
vn 0.4540 -0.0000 0.8910
vn -0.4540 -0.0000 -0.8910
vn 0.7071 -0.0000 0.7071
vn -0.7071 -0.0000 -0.7071
vn 0.8910 -0.0000 0.4540
vn -0.8910 -0.0000 -0.4540
vn 0.9877 -0.0000 0.1564
vn -0.9877 -0.0000 -0.1564
vn -0.0000 -0.0000 1.0000
vn 0.7894 -0.0000 -0.6139
vn -0.7894 -0.0000 -0.6139
vn 1.0000 -0.0000 -0.0000
vn -0.6139 -0.0000 -0.7894
vn -0.6139 -0.0000 0.7894
vn -0.0000 -0.0000 -1.0000
vn -0.7894 -0.0000 0.6139
vn 0.7894 -0.0000 0.6139
vn -1.0000 -0.0000 -0.0000
vn 0.6139 -0.0000 0.7894
vn 0.6139 -0.0000 -0.7894
vt 0.00000 0.20938
vt 0.00000 0.28818
vt 0.00000 0.71182
vt 0.00000 0.79062
vt 0.03438 0.13443
vt 0.03438 0.36313
vt 0.03438 0.63687
vt 0.03438 0.86557
vt 0.04917 0.21489
vt 0.04917 0.28267
vt 0.04917 0.71733
vt 0.04917 0.78511
vt 0.07874 0.15044
vt 0.07874 0.34712
vt 0.07874 0.65288
vt 0.07874 0.84956
vt 0.09978 0.07067
vt 0.09978 0.42689
vt 0.09978 0.57311
vt 0.09978 0.92933
vt 0.13498 0.09561
vt 0.13498 0.40195
vt 0.13498 0.59805
vt 0.13498 0.90439
vt 0.18979 0.02435
vt 0.18979 0.47321
vt 0.18979 0.52679
vt 0.18979 0.97565
vt 0.21240 0.05577
vt 0.21240 0.44179
vt 0.21240 0.55821
vt 0.21240 0.94423
vt 0.29561 0.00000
vt 0.29561 0.49756
vt 0.29561 0.50244
vt 0.29561 1.00000
vt 0.30340 0.03483
vt 0.30340 0.46273
vt 0.30340 0.53727
vt 0.30340 0.96517
vt 0.39908 0.03483
vt 0.39908 0.46273
vt 0.39908 0.53727
vt 0.39908 0.96517
vt 0.40687 0.00000
vt 0.40687 0.49756
vt 0.40687 0.50244
vt 0.40687 1.00000
vt 0.49008 0.05577
vt 0.49008 0.44179
vt 0.49008 0.55821
vt 0.49008 0.94423
vt 0.51269 0.02435
vt 0.51269 0.47321
vt 0.51269 0.52679
vt 0.51269 0.97565
vt 0.56749 0.09561
vt 0.56749 0.40195
vt 0.56749 0.59805
vt 0.56749 0.90439
vt 0.60270 0.07067
vt 0.60270 0.42689
vt 0.60270 0.57311
vt 0.60270 0.92933
vt 0.62374 0.15044
vt 0.62374 0.34712
vt 0.62374 0.65288
vt 0.62374 0.84956
vt 0.65331 0.21489
vt 0.65331 0.28267
vt 0.65331 0.71733
vt 0.65331 0.78511
vt 0.66810 0.13443
vt 0.66810 0.36313
vt 0.66810 0.63687
vt 0.66810 0.86557
vt 0.70248 0.20938
vt 0.70248 0.28818
vt 0.70248 0.71182
vt 0.70248 0.79062
vt 0.70937 0.00000
vt 0.70937 0.06376
vt 0.70937 0.13870
vt 0.70937 0.21751
vt 0.70937 0.29246
vt 0.70937 0.35621
vt 0.70937 0.36109
vt 0.70937 0.41853
vt 0.70937 0.42341
vt 0.70937 0.48085
vt 0.70937 0.52903
vt 0.70937 0.59135
vt 0.70937 0.61036
vt 0.70937 0.66780
vt 0.70937 0.67268
vt 0.70937 0.69787
vt 0.73782 0.00000
vt 0.73782 0.06376
vt 0.73782 0.13870
vt 0.73782 0.21751
vt 0.73782 0.29246
vt 0.73782 0.35621
vt 0.74471 0.00000
vt 0.74471 0.06376
vt 0.74471 0.13870
vt 0.74471 0.21751
vt 0.74471 0.29246
vt 0.74471 0.35621
vt 0.74493 0.67268
vt 0.74493 0.69787
vt 0.75182 0.67268
vt 0.75182 0.69787
vt 0.77316 0.00000
vt 0.77316 0.06376
vt 0.77316 0.13870
vt 0.77316 0.21751
vt 0.77316 0.29246
vt 0.77316 0.35621
vt 0.78005 0.00000
vt 0.78005 0.06376
vt 0.78005 0.13870
vt 0.78005 0.21751
vt 0.78005 0.29246
vt 0.78005 0.35621
vt 0.78738 0.67268
vt 0.78738 0.69787
vt 0.78797 0.40439
vt 0.78797 0.46671
vt 0.78797 0.48573
vt 0.78797 0.54317
vt 0.78797 0.54805
vt 0.78797 0.60548
vt 0.78797 0.65366
vt 0.79486 0.36109
vt 0.79486 0.41809
vt 0.79486 0.42341
vt 0.79486 0.48041
vt 0.79486 0.48573
vt 0.79486 0.54272
vt 0.79486 0.54760
vt 0.79486 0.60460
vt 0.79486 0.60948
vt 0.79486 0.66647
vt 0.79486 0.67135
vt 0.79486 0.69654
vt 0.80850 0.00000
vt 0.80850 0.06376
vt 0.80850 0.13870
vt 0.80850 0.21751
vt 0.80850 0.29246
vt 0.80850 0.35621
vt 0.81539 0.00000
vt 0.81539 0.06376
vt 0.81539 0.13870
vt 0.81539 0.21751
vt 0.81539 0.29246
vt 0.81539 0.35621
vt 0.81619 0.36109
vt 0.81619 0.41809
vt 0.81619 0.42341
vt 0.81619 0.48041
vt 0.81619 0.48573
vt 0.81619 0.54272
vt 0.81619 0.54760
vt 0.81619 0.60460
vt 0.81619 0.60948
vt 0.81619 0.66647
vt 0.83042 0.67135
vt 0.83042 0.69654
vt 0.84384 0.00000
vt 0.84384 0.06376
vt 0.84384 0.13870
vt 0.84384 0.21751
vt 0.84384 0.29246
vt 0.84384 0.35621
vt 0.85072 0.00000
vt 0.85072 0.05483
vt 0.85072 0.11929
vt 0.85072 0.18706
vt 0.85072 0.25151
vt 0.85072 0.30634
vt 0.85072 0.31122
vt 0.85072 0.36605
vt 0.85072 0.43051
vt 0.85072 0.49828
vt 0.85072 0.56274
vt 0.85072 0.61757
vt 0.85072 0.62245
vt 0.85072 0.67988
vt 0.87917 0.00000
vt 0.87917 0.05483
vt 0.87917 0.11929
vt 0.87917 0.18706
vt 0.87917 0.25151
vt 0.87917 0.30634
vt 0.87917 0.31122
vt 0.87917 0.36605
vt 0.87917 0.43051
vt 0.87917 0.49828
vt 0.87917 0.56274
vt 0.87917 0.61757
vt 0.88606 0.00000
vt 0.88606 0.05483
vt 0.88606 0.11929
vt 0.88606 0.18706
vt 0.88606 0.25151
vt 0.88606 0.30634
vt 0.88606 0.31122
vt 0.88606 0.36605
vt 0.88606 0.43051
vt 0.88606 0.49828
vt 0.88606 0.56274
vt 0.88606 0.61757
vt 0.91451 0.00000
vt 0.91451 0.05483
vt 0.91451 0.11929
vt 0.91451 0.18706
vt 0.91451 0.25151
vt 0.91451 0.30634
vt 0.91451 0.31122
vt 0.91451 0.36605
vt 0.91451 0.43051
vt 0.91451 0.49828
vt 0.91451 0.56274
vt 0.91451 0.61757
vt 0.92140 0.01414
vt 0.92140 0.10562
vt 0.92140 0.12463
vt 0.92140 0.18163
vt 0.92140 0.18651
vt 0.92140 0.24350
vt 0.92140 0.24838
vt 0.92140 0.30538
vt 0.92140 0.31122
vt 0.92140 0.36109
vt 0.92140 0.36597
vt 0.92140 0.41584
vt 0.92140 0.42072
vt 0.92140 0.47059
vt 0.92140 0.47547
vt 0.92140 0.52534
vt 0.92140 0.53022
vt 0.92140 0.55541
vt 0.92140 0.56029
vt 0.92140 0.58548
vt 0.92140 0.59036
vt 0.92140 0.61555
vt 0.92932 0.63659
vt 0.93621 0.62245
vt 0.93621 0.64763
vt 0.93621 0.65251
vt 0.93621 0.67770
vt 0.93621 0.68258
vt 0.93621 0.70777
vt 0.94274 0.12463
vt 0.94274 0.18163
vt 0.94274 0.18651
vt 0.94274 0.24350
vt 0.94274 0.24838
vt 0.94274 0.30538
vt 0.94274 0.31122
vt 0.94274 0.36109
vt 0.94274 0.36597
vt 0.94274 0.41584
vt 0.94274 0.42072
vt 0.94274 0.47059
vt 0.94274 0.47547
vt 0.94274 0.52534
vt 0.94963 0.12463
vt 0.94963 0.14982
vt 0.94963 0.15470
vt 0.94963 0.17989
vt 0.94963 0.18477
vt 0.94963 0.20996
vt 0.94963 0.21484
vt 0.94963 0.24003
vt 0.94963 0.24491
vt 0.94963 0.27009
vt 0.94963 0.27497
vt 0.94963 0.30016
vt 0.94963 0.31026
vt 0.94963 0.33544
vt 0.94963 0.34032
vt 0.94963 0.36551
vt 0.94963 0.37039
vt 0.94963 0.39558
vt 0.94963 0.40046
vt 0.94963 0.42565
vt 0.94963 0.43053
vt 0.94963 0.45572
vt 0.94963 0.46059
vt 0.94963 0.48578
vt 0.94963 0.49066
vt 0.94963 0.51585
vt 0.95696 0.53022
vt 0.95696 0.55541
vt 0.95696 0.56029
vt 0.95696 0.58548
vt 0.95696 0.59036
vt 0.95696 0.61555
vt 0.96385 0.53022
vt 0.96385 0.55541
vt 0.96385 0.56029
vt 0.96385 0.58548
vt 0.97177 0.62245
vt 0.97177 0.64763
vt 0.97177 0.65251
vt 0.97177 0.67770
vt 0.97177 0.68258
vt 0.97177 0.70777
vt 0.98519 0.12463
vt 0.98519 0.14982
vt 0.98519 0.15470
vt 0.98519 0.17989
vt 0.98519 0.18477
vt 0.98519 0.20996
vt 0.98519 0.21484
vt 0.98519 0.24003
vt 0.98519 0.24491
vt 0.98519 0.27009
vt 0.98519 0.27497
vt 0.98519 0.30016
vt 0.98519 0.31026
vt 0.98519 0.33544
vt 0.98519 0.34032
vt 0.98519 0.36551
vt 0.98519 0.37039
vt 0.98519 0.39558
vt 0.98519 0.40046
vt 0.98519 0.42565
vt 0.98519 0.43053
vt 0.98519 0.45572
vt 0.98519 0.46059
vt 0.98519 0.48578
vt 0.98519 0.49066
vt 0.98519 0.51585
vt 0.99942 0.53022
vt 0.99942 0.55541
vt 0.99942 0.56029
vt 0.99942 0.58548
vt 1.00000 0.00000
vt 1.00000 0.05744
vt 1.00000 0.06232
vt 1.00000 0.11976
s 0
usemtl RTS_azure_trim
f 1/175/22 2/157/22 78/156/22
f 1/175/22 78/156/22 77/174/22
f 10/34/2 11/38/2 7/42/2
f 10/34/2 7/42/2 6/46/2
f 11/179/6 12/193/6 8/194/6
f 11/179/6 8/194/6 7/180/6
f 13/100/7 10/83/7 9/99/7
f 13/100/7 14/84/7 10/83/7
f 14/26/2 11/38/2 10/34/2
f 14/26/2 15/30/2 11/38/2
f 14/26/2 18/18/2 19/22/2
f 14/26/2 19/22/2 15/30/2
f 15/178/8 12/193/8 11/179/8
f 15/178/8 16/192/8 12/193/8
f 16/11/4 13/3/4 9/7/4
f 16/11/4 9/7/4 12/15/4
f 17/101/9 14/84/9 13/100/9
f 17/101/9 18/85/9 14/84/9
f 19/177/10 16/192/10 15/178/10
f 19/177/10 20/191/10 16/192/10
f 2/54/2 3/50/2 79/58/2
f 2/54/2 79/58/2 78/62/2
f 20/12/4 13/3/4 16/11/4
f 20/12/4 17/4/4 13/3/4
f 21/102/11 18/85/11 17/101/11
f 21/102/11 22/86/11 18/85/11
f 22/6/2 19/22/2 18/18/2
f 22/6/2 23/14/2 19/22/2
f 23/176/12 20/191/12 19/177/12
f 23/176/12 24/190/12 20/191/12
f 24/16/4 17/4/4 20/12/4
f 24/16/4 21/8/4 17/4/4
f 25/114/13 22/103/13 21/113/13
f 25/114/13 26/104/13 22/103/13
f 26/2/2 23/14/2 22/6/2
f 26/2/2 27/10/2 23/14/2
f 27/186/14 24/201/14 23/187/14
f 27/186/14 28/200/14 24/201/14
f 28/24/4 21/8/4 24/16/4
f 28/24/4 25/20/4 21/8/4
f 28/24/4 29/28/4 25/20/4
f 28/24/4 32/32/4 29/28/4
f 29/115/15 26/104/15 25/114/15
f 29/115/15 30/105/15 26/104/15
f 3/208/21 4/220/21 80/221/21
f 3/208/21 80/221/21 79/209/21
f 30/1/2 27/10/2 26/2/2
f 30/1/2 31/9/2 27/10/2
f 31/185/16 28/200/16 27/186/16
f 31/185/16 32/199/16 28/200/16
f 33/116/17 30/105/17 29/115/17
f 33/116/17 34/106/17 30/105/17
f 34/5/2 31/9/2 30/1/2
f 34/5/2 35/13/2 31/9/2
f 34/5/2 38/17/2 39/21/2
f 34/5/2 39/21/2 35/13/2
f 35/184/18 32/199/18 31/185/18
f 35/184/18 36/198/18 32/199/18
f 36/40/4 29/28/4 32/32/4
f 36/40/4 33/36/4 29/28/4
f 37/117/19 34/106/19 33/116/19
f 37/117/19 38/107/19 34/106/19
f 39/183/20 36/198/20 35/184/20
f 39/183/20 40/197/20 36/198/20
f 4/31/4 1/27/4 77/35/4
f 4/31/4 77/35/4 80/39/4
f 40/44/4 33/36/4 36/40/4
f 40/44/4 37/48/4 33/36/4
f 41/118/21 38/107/21 37/117/21
f 41/118/21 42/108/21 38/107/21
f 42/25/2 39/21/2 38/17/2
f 42/25/2 43/29/2 39/21/2
f 43/182/22 40/197/22 39/183/22
f 43/182/22 44/196/22 40/197/22
f 44/52/4 37/48/4 40/44/4
f 44/52/4 41/56/4 37/48/4
f 45/147/3 42/119/3 41/146/3
f 45/147/3 46/120/3 42/119/3
f 46/33/2 43/29/2 42/25/2
f 46/33/2 47/37/2 43/29/2
f 47/206/1 44/219/1 43/207/1
f 47/206/1 48/218/1 44/219/1
f 48/60/4 41/56/4 44/52/4
f 48/60/4 45/64/4 41/56/4
f 48/60/4 49/76/4 45/64/4
f 48/60/4 52/68/4 49/76/4
f 49/148/6 46/120/6 45/147/6
f 49/148/6 50/121/6 46/120/6
f 5/98/1 2/81/1 1/97/1
f 5/98/1 6/82/1 2/81/1
f 50/45/2 47/37/2 46/33/2
f 50/45/2 51/41/2 47/37/2
f 51/205/5 48/218/5 47/206/5
f 51/205/5 52/217/5 48/218/5
f 53/149/8 50/121/8 49/148/8
f 53/149/8 54/122/8 50/121/8
f 54/53/2 51/41/2 50/45/2
f 54/53/2 55/49/2 51/41/2
f 54/53/2 58/61/2 59/57/2
f 54/53/2 59/57/2 55/49/2
f 55/204/7 52/217/7 51/205/7
f 55/204/7 56/216/7 52/217/7
f 56/72/4 49/76/4 52/68/4
f 56/72/4 53/80/4 49/76/4
f 57/150/10 54/122/10 53/149/10
f 57/150/10 58/123/10 54/122/10
f 59/203/9 56/216/9 55/204/9
f 59/203/9 60/215/9 56/216/9
f 6/46/2 3/50/2 2/54/2
f 6/46/2 7/42/2 3/50/2
f 60/71/4 53/80/4 56/72/4
f 60/71/4 57/79/4 53/80/4
f 61/151/12 58/123/12 57/150/12
f 61/151/12 62/124/12 58/123/12
f 62/73/2 59/57/2 58/61/2
f 62/73/2 63/65/2 59/57/2
f 63/202/11 60/215/11 59/203/11
f 63/202/11 64/214/11 60/215/11
f 64/67/4 57/79/4 60/71/4
f 64/67/4 61/75/4 57/79/4
f 65/171/14 62/152/14 61/170/14
f 65/171/14 66/153/14 62/152/14
f 66/77/2 63/65/2 62/73/2
f 66/77/2 67/69/2 63/65/2
f 67/212/13 64/225/13 63/213/13
f 67/212/13 68/224/13 64/225/13
f 68/59/4 61/75/4 64/67/4
f 68/59/4 65/63/4 61/75/4
f 68/59/4 69/55/4 65/63/4
f 68/59/4 72/51/4 69/55/4
f 69/172/16 66/153/16 65/171/16
f 69/172/16 70/154/16 66/153/16
f 7/180/3 4/195/3 3/181/3
f 7/180/3 8/194/3 4/195/3
f 70/78/2 67/69/2 66/77/2
f 70/78/2 71/70/2 67/69/2
f 71/211/15 68/224/15 67/212/15
f 71/211/15 72/223/15 68/224/15
f 73/173/18 70/154/18 69/172/18
f 73/173/18 74/155/18 70/154/18
f 74/74/2 71/70/2 70/78/2
f 74/74/2 75/66/2 71/70/2
f 74/74/2 78/62/2 79/58/2
f 74/74/2 79/58/2 75/66/2
f 75/210/17 72/223/17 71/211/17
f 75/210/17 76/222/17 72/223/17
f 76/43/4 69/55/4 72/51/4
f 76/43/4 73/47/4 69/55/4
f 77/174/20 74/155/20 73/173/20
f 77/174/20 78/156/20 74/155/20
f 79/209/19 76/222/19 75/210/19
f 79/209/19 80/221/19 76/222/19
f 8/23/4 1/27/4 4/31/4
f 8/23/4 12/15/4 9/7/4
f 8/23/4 5/19/4 1/27/4
f 8/23/4 9/7/4 5/19/4
f 80/39/4 73/47/4 76/43/4
f 80/39/4 77/35/4 73/47/4
f 9/99/5 10/83/5 6/82/5
f 9/99/5 6/82/5 5/98/5
usemtl RTS_azure_cloth
f 100/344/2 98/227/2 99/343/2
f 109/128/4 111/90/4 110/89/4
f 109/258/31 112/231/31 114/230/31
f 109/258/31 114/230/31 111/257/31
f 110/266/29 112/238/29 109/265/29
f 110/266/29 113/239/29 112/238/29
f 111/134/30 113/159/30 110/135/30
f 111/134/30 114/158/30 113/159/30
f 114/130/2 112/91/2 113/129/2
f 123/131/4 125/132/4 124/92/4
f 123/161/34 126/137/34 128/136/34
f 123/161/34 128/136/34 125/160/34
f 124/268/32 126/240/32 123/267/32
f 124/268/32 127/241/32 126/240/32
f 125/232/33 127/260/33 124/233/33
f 125/232/33 128/259/33 127/260/33
f 128/94/2 126/93/2 127/133/2
f 81/165/25 84/141/25 86/140/25
f 81/165/25 86/140/25 83/164/25
f 81/189/4 83/188/4 82/248/4
f 82/262/23 84/234/23 81/261/23
f 82/262/23 85/235/23 84/234/23
f 83/138/24 85/163/24 82/139/24
f 83/138/24 86/162/24 85/163/24
f 86/341/2 84/342/2 85/226/2
f 95/127/4 97/88/4 96/87/4
f 96/264/26 98/236/26 95/263/26
f 96/264/26 99/237/26 98/236/26
f 97/142/27 100/166/27 99/167/27
f 97/142/27 99/167/27 96/143/27
f 97/255/28 95/256/28 98/229/28
f 97/255/28 98/229/28 100/228/28
usemtl RTS_iron
f 102/293/7 103/336/7 101/294/7
f 102/293/7 104/335/7 103/336/7
f 104/247/18 107/299/18 103/300/18
f 104/247/18 108/246/18 107/299/18
f 104/325/2 102/326/2 106/284/2
f 104/325/2 106/284/2 108/283/2
f 106/250/17 101/305/17 105/306/17
f 106/250/17 102/249/17 101/305/17
f 107/317/4 101/276/4 103/275/4
f 107/317/4 105/318/4 101/276/4
f 108/95/8 105/110/8 107/96/8
f 108/95/8 106/109/8 105/110/8
f 116/111/17 117/126/17 115/112/17
f 116/111/17 118/125/17 117/126/17
f 118/252/7 121/307/7 117/308/7
f 118/252/7 122/251/7 121/307/7
f 118/278/2 116/277/2 120/319/2
f 118/278/2 120/319/2 122/320/2
f 120/145/8 115/168/8 119/169/8
f 120/145/8 116/144/8 115/168/8
f 121/286/4 115/327/4 117/328/4
f 121/286/4 119/285/4 115/327/4
f 122/253/18 119/310/18 121/254/18
f 122/253/18 120/309/18 119/310/18
f 130/301/8 131/338/8 129/302/8
f 130/301/8 132/337/8 131/338/8
f 132/270/17 135/311/17 131/312/17
f 132/270/17 136/269/17 135/311/17
f 132/288/2 130/287/2 134/329/2
f 132/288/2 134/329/2 136/330/2
f 134/272/18 129/313/18 133/314/18
f 134/272/18 130/271/18 129/313/18
f 135/280/4 129/321/4 131/322/4
f 135/280/4 133/279/4 129/321/4
f 136/303/7 133/340/7 135/304/7
f 136/303/7 134/339/7 133/340/7
f 88/289/18 89/332/18 87/290/18
f 88/289/18 90/331/18 89/332/18
f 90/243/8 93/295/8 89/296/8
f 90/243/8 94/242/8 93/295/8
f 90/315/2 88/316/2 92/274/2
f 90/315/2 92/274/2 94/273/2
f 92/245/7 87/297/7 91/298/7
f 92/245/7 88/244/7 87/297/7
f 93/323/4 87/282/4 89/281/4
f 93/323/4 91/324/4 87/282/4
f 94/291/17 91/334/17 93/292/17
f 94/291/17 92/333/17 91/334/17
