# Blender 5.2.0 LTS
# www.blender.org
mtllib assembly_barracks_module_collision.mtl
g rts_barracks_collision_Cube.194
v 0.900000 0.000000 -0.650000
v 0.900000 1.300000 -0.650000
v 0.900000 0.000000 0.650000
v 0.900000 1.300000 0.650000
v -0.900000 0.000000 -0.650000
v -0.900000 1.300000 -0.650000
v -0.900000 0.000000 0.650000
v -0.900000 1.300000 0.650000
vn 1.0000 -0.0000 -0.0000
vn -0.0000 -0.0000 1.0000
vn -1.0000 -0.0000 -0.0000
vn -0.0000 -0.0000 -1.0000
vn -0.0000 -1.0000 -0.0000
vn -0.0000 1.0000 -0.0000
vt 0.12500 0.50000
vt 0.12500 0.75000
vt 0.37500 0.00000
vt 0.37500 0.25000
vt 0.37500 0.50000
vt 0.37500 0.75000
vt 0.37500 1.00000
vt 0.62500 0.00000
vt 0.62500 0.25000
vt 0.62500 0.50000
vt 0.62500 0.75000
vt 0.62500 1.00000
vt 0.87500 0.50000
vt 0.87500 0.75000
s 0
g rts_barracks_collision_M_white
usemtl M_white
f 2/8/1 3/4/1 1/3/1
f 2/8/1 4/9/1 3/4/1
f 4/13/6 2/14/6 6/11/6
f 4/13/6 6/11/6 8/10/6
f 4/9/2 7/5/2 3/4/2
f 4/9/2 8/10/2 7/5/2
f 6/11/4 1/7/4 5/6/4
f 6/11/4 2/12/4 1/7/4
f 7/5/5 1/2/5 3/1/5
f 7/5/5 5/6/5 1/2/5
f 8/10/3 5/6/3 7/5/3
f 8/10/3 6/11/3 5/6/3
