# Blender 4.0.2
# www.blender.org
mtllib coin_lod1.mtl
o coin_lod1
v 0.151805 0.096049 0.034803
v 0.210065 0.248289 0.040444
v 0.149748 0.397329 0.040444
v 0.079374 0.441626 0.042802
v -0.078808 0.444730 0.040444
v -0.146664 0.396664 0.042802
v -0.205000 0.250000 0.045000
v -0.193013 0.168376 0.040867
v -0.144957 0.105043 0.045000
v -0.078764 0.055802 0.040867
v -0.000000 0.045000 0.045000
v 0.078450 0.060605 0.045000
v 0.189395 0.171550 0.045000
v 0.189395 0.328450 0.045000
v 0.000000 0.455000 0.045000
v -0.194198 0.328764 0.040867
v -0.205000 0.250000 0.045000
v -0.189395 0.171550 0.045000
v -0.144957 0.105043 0.045000
v -0.078450 0.060605 0.045000
v -0.000000 0.045000 0.045000
v 0.078450 0.060605 0.045000
v 0.144957 0.105043 0.045000
v 0.189395 0.171550 0.045000
v 0.205000 0.250000 0.045000
v 0.189395 0.328450 0.045000
v 0.144957 0.394957 0.045000
v 0.083229 0.438671 0.056780
v 0.000000 0.455000 0.045000
v -0.078450 0.439395 0.045000
v -0.144957 0.394957 0.045000
v -0.189395 0.328450 0.045000
v -0.237826 0.159778 0.039845
v 0.204920 0.109168 0.043827
v -0.192468 0.405772 0.042133
v -0.015197 -0.003490 0.038250
v 0.256245 0.217844 -0.027150
v 0.211163 0.381855 0.038764
v -0.040594 0.495636 0.036843
v -0.243825 0.291483 -0.039562
v -0.201743 0.106922 -0.039562
v -0.041483 0.006175 -0.039562
v 0.136308 0.046001 -0.040887
v 0.192468 0.405771 -0.042133
v 0.040395 0.495082 -0.038146
v -0.143164 0.452116 -0.038832
v -0.205000 0.250000 -0.045000
v -0.189395 0.171550 -0.045000
v -0.144957 0.105043 -0.045000
v -0.078450 0.060605 -0.045000
v -0.000000 0.045000 -0.045000
v 0.078450 0.060605 -0.045000
v 0.144957 0.105043 -0.045000
v 0.189395 0.171550 -0.045000
v 0.205000 0.250000 -0.045000
v 0.189395 0.328450 -0.045000
v 0.144957 0.394957 -0.045000
v 0.078450 0.439395 -0.045000
v 0.000000 0.455000 -0.045000
v -0.078450 0.439395 -0.045000
v -0.144957 0.394957 -0.045000
v -0.189395 0.328450 -0.045000
v -0.189395 0.171550 -0.045000
v -0.147329 0.100252 -0.040444
v -0.078450 0.060605 -0.045000
v -0.000000 0.042585 -0.042802
v 0.083108 0.050815 -0.035096
v 0.144957 0.105043 -0.045000
v 0.194730 0.171192 -0.040444
v 0.205000 0.250000 -0.045000
v 0.193420 0.331969 -0.040444
v 0.144957 0.394957 -0.045000
v 0.079374 0.441626 -0.042802
v 0.000000 0.455000 -0.045000
v -0.078808 0.444730 -0.040444
v -0.151521 0.396981 -0.039599
v -0.189395 0.328450 -0.045000
v -0.210065 0.248289 -0.040444
v -0.054876 0.257699 -0.040000
v -0.123637 0.290172 0.000000
v -0.076412 0.144828 0.000000
v 0.024039 0.194664 -0.040000
v 0.048921 0.276027 -0.040000
v 0.123637 0.290172 0.000000
v 0.000000 0.380000 0.000000
v 0.009636 0.304569 0.040000
v -0.039870 0.211516 0.040000
v 0.045199 0.210037 0.040000
vn -0.0176 -0.0001 -0.9998
vn -0.0223 -0.0227 -0.9995
vn 0.0470 0.0190 -0.9987
vn -0.0218 0.0186 -0.9996
vn 0.0154 0.0264 -0.9995
vn -0.0315 -0.0046 -0.9995
vn 0.0011 0.0277 -0.9996
vn -0.3413 -0.0025 -0.9400
vn -0.2395 -0.2431 -0.9400
vn -0.1010 -0.0201 0.9947
vn -0.0910 -0.0608 0.9940
vn -0.0258 -0.1299 0.9912
vn 0.0292 -0.1468 0.9887
vn 0.0218 -0.0326 0.9992
vn 0.0205 -0.0137 0.9997
vn 0.0419 -0.0083 0.9991
vn 0.1889 0.0376 0.9813
vn 0.1076 0.0719 0.9916
vn 0.0307 -0.1542 -0.9876
vn -0.0328 0.1651 0.9857
vn -0.0449 0.0672 0.9967
vn -0.0523 0.0349 0.9980
vn 0.8160 -0.0079 0.5779
vn 0.4303 -0.8551 0.2891
vn 0.3409 0.8677 0.3618
vn -0.4958 0.8487 0.1839
vn -0.9230 0.1670 0.3467
vn 0.0756 0.1725 -0.9821
vn -0.3548 -0.1503 0.9228
vn -0.0870 -0.2616 0.9612
vn 0.4928 -0.4231 0.7604
vn 0.3853 0.0031 0.9228
vn 0.1805 0.2084 0.9612
vn -0.4128 0.1574 0.8971
vn -0.0255 -0.0108 0.9996
vn -0.0689 -0.2159 0.9740
vn 0.0474 0.0004 0.9989
vn -0.0017 0.0197 0.9998
vn 0.0153 0.0199 0.9997
vn 0.0021 0.0144 0.9999
vn -0.0174 0.0012 0.9998
vn 0.0745 0.8330 -0.5482
vn -0.8963 0.2899 0.3355
vn 0.9383 -0.2869 -0.1930
vn 0.4339 -0.7048 -0.5612
vn 0.8955 0.2923 0.3355
vn -0.2751 -0.3837 0.8816
vn 0.6329 -0.2146 -0.7439
vn 0.3572 0.1445 -0.9228
vn 0.0197 0.2750 -0.9612
vn -0.2574 0.0385 0.9655
vn 0.1087 -0.2598 0.9595
vn 0.7694 -0.0058 0.6387
vn 0.0556 -0.1858 0.9810
vn -0.1257 0.0730 0.9894
vn -0.0828 0.1974 0.9768
vn -0.5307 -0.8443 0.0744
vn -0.9351 -0.2132 -0.2830
vn 0.4930 0.8274 0.2692
vn 0.2132 -0.9581 -0.1910
vn 0.8037 -0.5412 -0.2474
vn 0.9424 0.3098 -0.1262
vn -0.1967 -0.0448 -0.9794
vn -0.2201 0.9443 -0.2447
vn -0.8286 0.5202 -0.2068
vn -0.1074 -0.1708 -0.9794
vn -0.0973 -0.0650 -0.9931
vn 0.0291 -0.1626 -0.9863
vn -0.0228 -0.1147 -0.9931
vn 0.1319 -0.0881 -0.9873
vn 0.0514 -0.0769 -0.9957
vn 0.2944 0.0237 -0.9554
vn 0.2953 -0.0587 -0.9536
vn -0.0416 0.2090 -0.9770
vn 0.0523 0.0349 -0.9980
vn 0.0449 0.0672 -0.9967
vn 0.0280 0.1410 -0.9896
vn -0.1753 0.1143 -0.9778
vn -0.0730 0.1093 -0.9913
vn -0.1147 0.0228 -0.9931
vn 0.0197 0.2750 0.9612
vn 0.1838 0.2301 -0.9557
vn -0.2756 -0.1037 0.9557
vn -0.5547 -0.7614 -0.3355
vn 0.5363 -0.6305 0.5612
vn -0.0171 -0.9810 0.1930
vn 0.0013 0.9420 -0.3355
vn -0.8153 0.1865 0.5482
vn 0.0352 -0.3428 -0.9387
vn -0.1936 -0.2898 0.9373
vn -0.1535 0.0305 0.9877
vn -0.5698 -0.7796 0.2600
vn 0.4197 0.8922 0.1668
vn -0.1750 -0.0348 -0.9839
vn -0.0991 -0.1484 -0.9839
vn 0.0348 -0.1750 -0.9839
vn 0.3724 -0.1872 -0.9090
vn 0.3688 0.0734 -0.9266
vn -0.0488 0.2239 -0.9734
vn -0.1661 0.1110 -0.9799
vn -0.4400 0.1346 -0.8879
vn -0.2286 -0.2862 -0.9305
vn 0.0080 0.4600 0.8879
vn 0.3428 0.1290 0.9305
vt 0.00000 0.16265
vt 0.00000 0.87981
vt 0.01004 0.54287
vt 0.01786 0.42775
vt 0.01786 0.71175
vt 0.01786 0.79288
vt 0.02329 0.24210
vt 0.02365 0.16735
vt 0.03572 0.79880
vt 0.05098 0.10141
vt 0.05098 0.30467
vt 0.06251 0.68799
vt 0.06251 0.79288
vt 0.06634 0.47661
vt 0.07144 0.87981
vt 0.08629 0.95786
vt 0.08676 0.55940
vt 0.08809 0.37517
vt 0.10148 0.05094
vt 0.10148 0.35513
vt 0.10885 0.02303
vt 0.11362 0.49240
vt 0.14300 0.87330
vt 0.16353 0.74484
vt 0.16371 0.44302
vt 0.16747 0.02363
vt 0.16747 0.38245
vt 0.17635 0.95047
vt 0.21607 0.77935
vt 0.21993 0.88108
vt 0.23011 0.77344
vt 0.23889 0.02363
vt 0.23889 0.38245
vt 0.27209 0.42775
vt 0.27209 0.76031
vt 0.28523 0.39040
vt 0.28932 0.02556
vt 0.30221 0.84729
vt 0.30221 0.98194
vt 0.30224 0.91842
vt 0.30264 0.78044
vt 0.30488 0.05094
vt 0.30488 0.35513
vt 0.31738 0.97363
vt 0.34441 0.91444
vt 0.35539 0.10141
vt 0.35539 0.30467
vt 0.35903 0.78075
vt 0.35959 0.84908
vt 0.35959 0.91933
vt 0.36551 0.81602
vt 0.36751 0.44196
vt 0.38272 0.16735
vt 0.38272 0.23872
vt 0.38349 0.71161
vt 0.40123 0.90630
vt 0.41363 0.18298
vt 0.41807 0.49349
vt 0.43222 0.62710
vt 0.43695 0.77935
vt 0.43695 0.82648
vt 0.43776 0.18160
vt 0.43815 0.62710
vt 0.44287 0.77935
vt 0.45230 0.49349
vt 0.46746 0.16735
vt 0.46746 0.23872
vt 0.47858 0.86090
vt 0.49110 0.05645
vt 0.49131 0.71603
vt 0.49479 0.10141
vt 0.49479 0.30467
vt 0.50533 0.44183
vt 0.50602 0.35650
vt 0.51430 0.77935
vt 0.52023 0.77935
vt 0.52023 0.86090
vt 0.54530 0.05094
vt 0.54530 0.35513
vt 0.59166 0.79744
vt 0.59758 0.77935
vt 0.59758 0.86665
vt 0.59758 0.93803
vt 0.61129 0.02363
vt 0.61129 0.38245
vt 0.62142 0.41394
vt 0.63330 0.86073
vt 0.63823 0.90234
vt 0.63909 0.77292
vt 0.63934 0.00000
vt 0.66822 0.44040
vt 0.66902 0.77935
vt 0.67494 0.86037
vt 0.67494 0.94417
vt 0.68271 0.02363
vt 0.68271 0.38245
vt 0.70625 0.44193
vt 0.70625 0.74612
vt 0.71066 0.77935
vt 0.71066 0.86629
vt 0.72221 0.71161
vt 0.74638 0.86037
vt 0.74638 0.94417
vt 0.74870 0.05094
vt 0.74870 0.35513
vt 0.75672 0.49367
vt 0.78405 0.62971
vt 0.78408 0.55834
vt 0.79000 0.78918
vt 0.79819 0.71624
vt 0.79920 0.10141
vt 0.79920 0.30467
vt 0.80100 0.47414
vt 0.80175 0.61577
vt 0.80363 0.32115
vt 0.80482 0.06440
vt 0.82654 0.16735
vt 0.82654 0.23872
vt 0.85018 0.16265
vt 0.85251 0.42775
vt 0.85251 0.74113
vt 0.85610 0.39247
vt 0.85683 0.88766
vt 0.85818 0.54097
vt 0.86302 0.68623
vt 0.86409 0.03821
vt 0.87085 0.24114
vt 0.88427 0.46595
vt 0.88801 0.81695
vt 0.89182 0.31198
vt 0.90128 0.62318
vt 0.91979 0.96769
vt 0.92426 0.26892
vt 0.92548 0.13142
vt 0.92754 0.39247
vt 0.93030 0.00541
vt 0.94059 0.87981
vt 0.94239 0.13848
vt 0.94294 0.06823
vt 0.94294 0.20273
vt 0.94486 0.47402
vt 0.94939 0.65210
vt 0.95697 0.34824
vt 0.95714 0.21002
vt 0.95757 0.27612
vt 0.96349 0.13848
vt 0.96409 0.06627
vt 0.96409 0.20174
vt 0.97676 0.43023
vt 0.97732 0.56698
vt 0.97776 0.49494
vt 0.97824 0.21002
vt 0.97864 0.34799
vt 0.97867 0.27686
s 0
usemtl Platformer_gold_satin
f 1/24/1 8/25/1 16/34/1
f 1/24/2 10/17/2 8/25/2
f 1/24/3 3/55/3 2/35/3
f 1/24/4 4/59/4 3/55/4
f 1/24/48 2/35/48 13/31/48
f 1/24/5 5/58/5 4/59/5
f 1/24/6 6/52/6 5/58/6
f 1/24/7 16/34/7 6/52/7
f 10/17/9 9/22/9 8/25/9
f 10/45/19 12/49/19 11/50/19
f 10/45/89 1/48/89 12/49/89
f 2/143/49 3/144/49 14/145/49
f 4/153/50 5/152/50 15/154/50
f 63/97/29 64/106/29 78/91/29
f 64/106/36 66/107/36 67/101/36
f 65/108/30 66/107/30 64/106/30
f 68/98/31 69/89/31 67/101/31
f 69/89/37 71/70/37 67/101/37
f 70/146/32 71/147/32 69/148/32
f 71/70/38 73/63/38 67/101/38
f 72/39/33 73/40/33 71/44/33
f 73/63/39 75/65/39 67/101/39
f 74/38/81 75/41/81 73/40/81
f 75/65/40 76/73/40 67/101/40
f 76/73/41 78/91/41 67/101/41
f 78/150/34 76/149/34 77/151/34
f 78/91/35 64/106/35 67/101/35
f 8/140/8 7/138/8 16/139/8
usemtl Platformer_gold
f 17/32/10 33/37/10 18/42/10
f 17/32/51 35/21/51 33/37/51
f 17/32/91 32/26/91 35/21/91
f 18/42/11 33/37/11 19/46/11
f 20/53/12 36/57/12 21/54/12
f 25/27/17 38/18/17 26/20/17
f 25/27/53 34/36/53 38/18/53
f 28/125/59 44/110/59 45/114/59
f 28/125/93 38/121/93 44/110/93
f 28/7/55 39/1/55 29/8/55
f 34/14/61 43/3/61 37/4/61
f 34/36/14 23/43/14 22/47/14
f 34/36/15 24/33/15 23/43/15
f 34/36/16 25/27/16 24/33/16
f 35/21/21 31/19/21 30/10/21
f 35/21/22 32/26/22 31/19/22
f 36/12/57 41/6/57 42/5/57
f 36/12/92 33/13/92 41/6/92
f 36/57/13 22/47/13 21/54/13
f 36/57/47 19/46/47 33/37/47
f 36/57/52 34/36/52 22/47/52
f 36/57/90 20/53/90 19/46/90
f 37/131/23 38/141/23 34/142/23
f 37/131/62 44/128/62 38/141/62
f 37/86/72 56/105/72 44/115/72
f 37/86/73 54/85/73 55/96/73
f 37/86/98 55/96/98 56/105/98
f 38/18/18 27/11/18 26/20/18
f 38/18/54 28/7/54 27/11/54
f 39/1/20 30/10/20 29/8/20
f 39/1/56 35/21/56 30/10/56
f 40/134/27 33/127/27 35/126/27
f 40/134/58 41/133/58 33/127/58
f 40/90/63 48/78/63 41/69/63
f 40/90/94 47/84/94 48/78/94
f 41/69/66 50/66/66 42/62/66
f 41/69/95 49/71/95 50/66/95
f 42/5/60 43/3/60 36/12/60
f 42/62/68 52/72/68 43/74/68
f 42/62/96 51/67/96 52/72/96
f 43/3/24 34/14/24 36/12/24
f 45/114/25 39/124/25 28/125/25
f 45/114/64 46/113/64 39/124/64
f 46/113/26 35/120/26 39/124/26
f 46/116/100 61/104/100 62/95/100
f 46/116/78 62/95/78 40/90/78
f 46/116/79 60/111/79 61/104/79
f 46/136/65 40/134/65 35/126/65
f 48/78/67 49/71/67 41/69/67
f 50/66/69 51/67/69 42/62/69
f 52/72/71 53/79/71 43/74/71
f 54/85/70 43/74/70 53/79/70
f 54/85/97 37/86/97 43/74/97
f 56/105/75 57/112/75 44/115/75
f 57/112/76 58/118/76 44/115/76
f 58/118/28 45/119/28 44/115/28
f 58/118/77 59/117/77 45/119/77
f 60/111/74 45/119/74 59/117/74
f 60/111/99 46/116/99 45/119/99
f 62/95/80 47/84/80 40/90/80
usemtl Platformer_gold_mirror
f 79/15/88 86/2/88 85/9/88
f 79/83/84 87/82/84 80/88/84
f 80/130/42 86/135/42 79/122/42
f 80/29/103 87/30/103 88/28/103
f 81/68/43 87/64/43 79/75/43
f 82/137/102 81/132/102 79/123/102
f 82/137/82 79/123/82 85/109/82
f 82/51/85 87/61/85 81/56/85
f 82/51/86 88/60/86 87/61/86
f 83/76/44 88/80/44 82/77/44
f 83/81/87 86/92/87 84/87/87
f 84/100/45 88/103/45 83/94/45
f 85/109/101 83/129/101 82/137/101
f 85/99/46 86/102/46 83/93/46
f 88/28/104 84/16/104 86/23/104
f 88/28/83 86/23/83 80/29/83
