# Blender 4.0.2
# www.blender.org
mtllib floating_platform_lod1.mtl
o floating_platform_lod1
v 1.429058 0.629914 -1.424223
v 1.426740 0.689313 -1.488733
v 1.480988 0.678137 -1.438862
v 1.439478 0.968577 -1.469724
v 1.488733 0.930687 -1.426740
v 1.488733 0.689313 1.426740
v 1.439478 0.651423 1.469724
v 1.429058 0.990086 1.424223
v 1.426740 0.930687 1.488733
v 1.480988 0.941863 1.438862
v -1.488733 0.689313 -1.426740
v -1.439478 0.651423 -1.469724
v -1.429058 0.990086 -1.424223
v -1.426740 0.930687 -1.488733
v -1.480988 0.941863 -1.438862
v -1.429058 0.629914 1.424223
v -1.426740 0.689313 1.488733
v -1.480988 0.678137 1.438862
v -1.488733 0.930687 1.426740
v -1.439478 0.968577 1.469724
v 0.380000 0.460000 1.370000
v 0.459474 0.460243 1.465263
v 0.380000 0.660000 1.370000
v 0.379757 0.739474 1.465263
v 0.379757 0.380526 1.474737
v 0.380000 0.460000 1.570000
v 0.380000 0.660000 1.570000
v 0.459474 0.659757 1.474737
v -0.379757 0.380526 1.465263
v -0.380000 0.460000 1.370000
v -0.380000 0.660000 1.370000
v -0.459474 0.659757 1.465263
v -0.380000 0.460000 1.570000
v -0.459474 0.460243 1.474737
v -0.379757 0.739474 1.474737
v -0.380000 0.660000 1.570000
v -1.465263 0.380526 0.020243
v -1.370000 0.460000 0.020000
v -1.465263 0.659757 -0.059474
v -1.370000 0.660000 0.020000
v -1.370000 0.460000 0.680000
v -1.465263 0.460243 0.759474
v -1.465263 0.739474 0.679757
v -1.370000 0.660000 0.680000
v -1.570000 0.460000 0.020000
v -1.474737 0.460243 -0.059474
v -1.474737 0.739474 0.020243
v -1.570000 0.660000 0.020000
v -1.474737 0.380526 0.679757
v -1.570000 0.460000 0.680000
v -1.570000 0.660000 0.680000
v -1.474737 0.659757 0.759474
v 0.630000 0.460000 -1.570000
v 0.709474 0.460243 -1.474737
v 0.630000 0.660000 -1.570000
v 0.629757 0.739474 -1.474737
v 0.629757 0.380526 -1.465263
v 0.630000 0.460000 -1.370000
v 0.630000 0.660000 -1.370000
v 0.709474 0.659757 -1.465263
v -0.029757 0.380526 -1.474737
v -0.030000 0.460000 -1.570000
v -0.030000 0.660000 -1.570000
v -0.109474 0.659757 -1.474737
v -0.030000 0.460000 -1.370000
v -0.109474 0.460243 -1.465263
v -0.029757 0.739474 -1.465263
v -0.030000 0.660000 -1.370000
v 1.474737 0.380526 -0.679757
v 1.570000 0.460000 -0.680000
v 1.474737 0.659757 -0.759474
v 1.570000 0.660000 -0.680000
v 1.570000 0.460000 -0.120000
v 1.474737 0.460243 -0.040526
v 1.474737 0.739474 -0.120243
v 1.570000 0.660000 -0.120000
v 1.370000 0.460000 -0.680000
v 1.465263 0.460243 -0.759474
v 1.465263 0.739474 -0.679757
v 1.370000 0.660000 -0.680000
v 1.465263 0.380526 -0.120243
v 1.370000 0.460000 -0.120000
v 1.370000 0.660000 -0.120000
v 1.465263 0.659757 -0.040526
v 1.332500 0.182500 -1.337500
v 1.338462 0.653846 -1.333846
v 1.338462 0.186154 1.333846
v 1.332500 0.657500 1.337500
v -1.338462 0.186154 -1.333846
v -1.332500 0.657500 -1.337500
v -1.332500 0.182500 1.337500
v -1.338462 0.653846 1.333846
v 1.378333 0.323333 -1.381667
v 1.382308 0.394231 -1.379231
v 1.382308 0.325769 1.379231
v 1.378333 0.396667 1.381667
v -1.382308 0.325769 -1.379231
v -1.378333 0.396667 -1.381667
v -1.378333 0.323333 1.381667
v -1.382308 0.394231 1.379231
v -0.358204 -0.006205 0.424569
v -0.427463 -0.004998 -0.360645
v 0.358204 -0.006205 -0.424569
v 0.427463 -0.004998 0.360645
v 0.427715 0.195071 1.034458
v -0.428720 0.192487 1.034075
v -1.034488 0.195794 0.427621
v -1.034075 0.192487 -0.428720
v -0.427715 0.195071 -1.034458
v 0.428720 0.192487 -1.034075
v 1.034488 0.195794 -0.427621
v 1.034075 0.192487 0.428720
v -0.093333 0.356667 1.283333
v -0.088462 0.538462 1.275385
v 0.088462 0.361538 1.275385
v 0.093333 0.543333 1.283333
v -0.088462 0.361538 1.464615
v -0.093333 0.543333 1.456667
v 0.093333 0.356667 1.456667
v 0.088462 0.538462 1.464615
v -1.283333 0.356667 -0.093333
v -1.275385 0.538462 -0.088462
v -1.275385 0.361538 0.088462
v -1.283333 0.543333 0.093333
v -1.464615 0.361538 -0.088462
v -1.456667 0.543333 -0.093333
v -1.456667 0.356667 0.093333
v -1.464615 0.538462 0.088462
v 0.093333 0.356667 -1.283333
v 0.088462 0.538462 -1.275385
v -0.088462 0.361538 -1.275385
v -0.093333 0.543333 -1.283333
v 0.088462 0.361538 -1.464615
v 0.093333 0.543333 -1.456667
v -0.093333 0.356667 -1.456667
v -0.088462 0.538462 -1.464615
v 1.283333 0.356667 0.093333
v 1.275385 0.538462 0.088462
v 1.275385 0.361538 -0.088462
v 1.283333 0.543333 -0.093333
v 1.464615 0.361538 0.088462
v 1.456667 0.543333 0.093333
v 1.456667 0.356667 -0.093333
v 1.464615 0.538462 -0.088462
vn 0.4338 -0.6550 -0.6187
vn 0.4338 0.6550 0.6187
vn -0.4338 0.6550 -0.6187
vn -0.4338 -0.6550 0.6187
vn -0.0052 -0.7355 0.6775
vn 0.0052 0.7355 0.6775
vn 0.0052 -0.7355 -0.6775
vn -0.0052 0.7355 -0.6775
vn 0.5874 -0.6454 -0.4884
vn 0.6454 0.5874 -0.4884
vn 0.6454 -0.5874 0.4884
vn 0.5874 0.6454 0.4884
vn -0.6454 -0.5874 -0.4884
vn -0.5874 0.6454 -0.4884
vn -0.5874 -0.6454 0.4884
vn -0.6454 0.5874 0.4884
vn 0.4884 -0.5874 -0.6454
vn 0.4884 0.6454 -0.5874
vn 0.4884 -0.6454 0.5874
vn 0.4884 0.5874 0.6454
vn -0.4884 -0.6454 -0.5874
vn -0.4884 0.5874 -0.6454
vn -0.4884 -0.5874 0.6454
vn -0.4884 0.6454 0.5874
vn -0.9995 0.0305 -0.0026
vn 0.0074 0.9999 -0.0074
vn 0.9995 0.0305 0.0026
vn -0.0057 0.0676 0.9977
vn 0.6806 -0.7326 0.0010
vn 0.6783 0.0145 -0.7346
vn 0.6806 0.7326 -0.0010
vn 0.6783 -0.0145 0.7346
vn -0.6662 0.0204 0.7455
vn 0.0057 0.0676 -0.9977
vn -0.6806 -0.7326 -0.0010
vn -0.6806 0.7326 0.0010
vn -0.6783 -0.0145 -0.7346
vn -0.0074 -0.9999 -0.0074
vn -0.0000 -0.0000 -1.0000
vn -0.0000 -0.0000 1.0000
vn 0.7963 0.0287 -0.6042
vn 0.7963 -0.0287 0.6042
vn -0.0000 -0.7679 0.6406
vn -0.0000 0.7679 0.6406
vn -0.7679 -0.0000 0.6406
vn -0.7963 -0.0287 -0.6042
vn -0.0000 -0.7679 -0.6406
vn -0.0000 0.7679 -0.6406
vn -1.0000 -0.0000 -0.0000
vn 1.0000 -0.0000 -0.0000
vn 0.6406 -0.7679 -0.0000
vn 0.6406 -0.0000 -0.7679
vn 0.6406 0.7679 -0.0000
vn 0.6406 -0.0000 0.7679
vn -0.6042 -0.0287 0.7963
vn -0.6406 -0.7679 -0.0000
vn -0.6406 0.7679 -0.0000
vn -0.6406 -0.0000 -0.7679
vn 0.0014 0.0077 -1.0000
vn -0.9999 0.0126 -0.0022
vn 0.0014 1.0000 -0.0014
vn 0.9999 0.0126 0.0022
vn -0.0014 0.0077 1.0000
vn -0.0014 -1.0000 -0.0014
vn 0.0009 0.0343 -0.9994
vn -0.9984 0.0559 -0.0014
vn 0.0009 1.0000 -0.0009
vn 0.9984 0.0559 0.0014
vn -0.0009 0.0343 0.9994
vn -0.0009 -1.0000 -0.0009
vn -0.3099 -0.9508 0.0035
vn 0.2698 -0.9231 0.2740
vn -0.0027 -0.9507 -0.3102
vn -0.2698 -0.9231 -0.2740
vn 0.3099 -0.9508 -0.0035
vn 0.2745 -0.9231 -0.2692
vn 0.0027 -0.9507 0.3102
vn -0.0016 -1.0000 -0.0014
vn -0.2745 -0.9231 0.2692
vn -0.9993 0.0256 -0.0275
vn -0.0000 1.0000 -0.0000
vn -0.0425 0.0425 0.9982
vn -0.0256 0.9993 -0.0275
vn 0.0425 0.0425 -0.9982
vn 0.9993 0.0256 0.0275
vn -0.0256 -0.9993 0.0275
vn 0.0275 0.0256 -0.9993
vn -0.9982 0.0425 -0.0425
vn 0.0275 0.9993 -0.0256
vn 0.9982 0.0425 0.0425
vn -0.0275 0.0256 0.9993
vn -0.0275 -0.9993 -0.0256
vn 0.0256 0.9993 0.0275
vn 0.0256 -0.9993 -0.0275
vn -0.0275 0.9993 0.0256
vn 0.0275 -0.9993 0.0256
vn -0.9995 -0.0305 0.0026
vn -0.0074 0.9999 0.0074
vn 0.9995 -0.0305 -0.0026
vn 0.0057 -0.0677 0.9977
vn 0.6117 -0.7911 0.0037
vn 0.6662 0.0204 -0.7455
vn 0.6117 0.7911 -0.0037
vn 0.6662 -0.0204 0.7455
vn -0.6783 0.0145 0.7346
vn -0.0057 -0.0677 -0.9977
vn -0.6117 -0.7911 -0.0037
vn -0.6117 0.7911 0.0037
vn -0.6662 -0.0204 -0.7455
vn 0.0074 -0.9999 0.0074
vn 0.7679 -0.0000 -0.6406
vn 0.7679 -0.0000 0.6406
vn -0.0075 -0.7966 0.6044
vn 0.0075 0.7966 0.6044
vn -0.7963 0.0287 0.6042
vn -0.7679 -0.0000 -0.6406
vn 0.0075 -0.7966 -0.6044
vn -0.0075 0.7966 -0.6044
vn 0.6044 -0.7966 0.0087
vn 0.6042 -0.0287 -0.7963
vn 0.6044 0.7966 -0.0087
vn 0.6042 0.0287 0.7963
vn -0.6406 -0.0000 0.7679
vn -0.6044 -0.7966 -0.0087
vn -0.6044 0.7966 0.0087
vn -0.6042 0.0287 -0.7963
vn -0.0087 -0.7966 0.6044
vn 0.0087 0.7966 0.6044
vn 0.0087 -0.7966 -0.6044
vn -0.0087 0.7966 -0.6044
vn 0.6044 -0.7966 0.0102
vn 0.6044 0.7966 -0.0102
vn -0.6044 -0.7966 -0.0102
vn -0.6044 0.7966 0.0102
vn -0.0014 -0.0077 -1.0000
vn -0.9999 -0.0126 0.0022
vn -0.0014 1.0000 0.0014
vn 0.9999 -0.0126 -0.0022
vn 0.0014 -0.0077 1.0000
vn 0.0014 -1.0000 0.0014
vn -0.0009 -0.0343 -0.9994
vn -0.9984 -0.0559 0.0014
vn -0.0009 1.0000 0.0009
vn 0.9984 -0.0559 -0.0014
vn 0.0009 -0.0343 0.9994
vn 0.0009 -1.0000 0.0009
vn -0.2860 -0.9579 0.0238
vn -0.0246 -0.9583 -0.2845
vn 0.2860 -0.9579 -0.0238
vn 0.0246 -0.9583 0.2845
vn 0.0016 -1.0000 0.0014
vn -0.9993 -0.0256 0.0275
vn -0.0093 0.9999 0.0039
vn 0.0030 1.0000 0.0073
vn 0.0093 0.9999 -0.0039
vn -0.0030 1.0000 -0.0073
vn 0.0425 -0.0425 0.9982
vn -0.0425 -0.0425 -0.9982
vn 0.9993 -0.0256 -0.0275
vn -0.0275 -0.0256 -0.9993
vn -0.9982 -0.0425 0.0425
vn 0.9982 -0.0425 -0.0425
vn 0.0275 -0.0256 0.9993
vt 0.00000 0.73081
vt 0.00000 0.81739
vt 0.00000 0.89999
vt 0.00000 0.95463
vt 0.00000 0.97058
vt 0.00304 0.92785
vt 0.00341 0.23606
vt 0.00341 0.70945
vt 0.00448 0.91339
vt 0.00448 0.94239
vt 0.00478 0.22869
vt 0.00478 0.70208
vt 0.00613 0.00093
vt 0.00613 0.47433
vt 0.00663 0.46480
vt 0.00767 0.89435
vt 0.00767 0.90563
vt 0.00821 0.83313
vt 0.01051 0.81739
vt 0.01155 0.73081
vt 0.01337 0.97069
vt 0.01408 0.95333
vt 0.01982 0.92858
vt 0.01992 0.91339
vt 0.01992 0.94239
vt 0.02206 0.73081
vt 0.02206 0.81739
vt 0.02957 0.73081
vt 0.02957 0.80600
vt 0.02972 0.89435
vt 0.02972 0.90563
vt 0.03026 0.83313
vt 0.03070 0.23695
vt 0.03070 0.71034
vt 0.03177 0.91787
vt 0.03177 0.93382
vt 0.03177 0.95070
vt 0.03177 0.96664
vt 0.03209 0.22958
vt 0.03209 0.70297
vt 0.03281 0.00084
vt 0.03281 0.47423
vt 0.03332 0.46470
vt 0.03749 0.89999
vt 0.04007 0.80600
vt 0.04112 0.73081
vt 0.04455 0.22232
vt 0.04455 0.67477
vt 0.04514 0.93393
vt 0.04577 0.96813
vt 0.04585 0.91657
vt 0.04648 0.95080
vt 0.04715 0.00000
vt 0.04715 0.44469
vt 0.04715 0.45245
vt 0.05073 0.22269
vt 0.05073 0.67514
vt 0.05162 0.73081
vt 0.05162 0.80600
vt 0.05266 0.00000
vt 0.05266 0.44469
vt 0.05266 0.45245
vt 0.06274 0.21506
vt 0.06274 0.90245
vt 0.06387 0.67401
vt 0.06504 0.94441
vt 0.06524 0.66663
vt 0.06561 0.00000
vt 0.06561 0.43019
vt 0.06561 0.68739
vt 0.06590 0.91620
vt 0.06659 0.43888
vt 0.07217 0.94583
vt 0.07304 0.91763
vt 0.08664 0.95397
vt 0.08803 0.97154
vt 0.08817 0.92711
vt 0.08961 0.91266
vt 0.08961 0.94166
vt 0.09116 0.67490
vt 0.09255 0.66752
vt 0.09327 0.43878
vt 0.10495 0.92785
vt 0.10504 0.91266
vt 0.10504 0.94166
vt 0.10568 0.65995
vt 0.10648 0.95236
vt 0.10761 0.43795
vt 0.10787 0.96992
vt 0.11187 0.66031
vt 0.11227 0.21561
vt 0.11227 0.90300
vt 0.11312 0.43795
vt 0.11413 0.00000
vt 0.11413 0.43019
vt 0.11413 0.68739
vt 0.12424 0.69581
vt 0.12427 0.00645
vt 0.12427 0.35264
vt 0.12529 0.99779
vt 0.12744 0.33130
vt 0.12744 0.67750
vt 0.12934 0.33724
vt 0.12934 0.68344
vt 0.12942 0.00235
vt 0.12942 0.34855
vt 0.13086 0.00825
vt 0.13086 0.35445
vt 0.41867 0.69460
vt 0.41972 0.99658
vt 0.42836 0.70037
vt 0.42836 0.78695
vt 0.42836 0.81066
vt 0.42836 0.87446
vt 0.42836 0.94117
vt 0.42836 0.95712
vt 0.43033 0.92098
vt 0.43107 0.89820
vt 0.43850 0.89020
vt 0.43850 0.92893
vt 0.43887 0.78695
vt 0.43887 0.87446
vt 0.43991 0.70037
vt 0.43991 0.81066
vt 0.44236 0.95861
vt 0.44294 0.33019
vt 0.44294 0.67639
vt 0.44307 0.94128
vt 0.44396 0.89822
vt 0.44396 0.92101
vt 0.44439 0.33609
vt 0.44439 0.68228
vt 0.44446 0.00120
vt 0.44446 0.34739
vt 0.44636 0.00713
vt 0.44636 0.35333
vt 0.44954 0.33199
vt 0.44954 0.67819
vt 0.45042 0.70037
vt 0.45042 0.78695
vt 0.45042 0.81066
vt 0.45042 0.87446
vt 0.45896 0.00228
vt 0.45896 0.32676
vt 0.45934 0.65238
vt 0.45966 0.31525
vt 0.45966 0.63973
vt 0.46039 0.95436
vt 0.75377 0.65117
vt 0.75482 0.95315
vt 0.76332 0.00147
vt 0.76332 0.32595
vt 0.76346 0.71798
vt 0.76346 0.81560
vt 0.76346 0.94313
vt 0.76402 0.31444
vt 0.76402 0.63892
vt 0.77113 0.93749
vt 0.77113 0.94877
vt 0.77153 0.89238
vt 0.77229 0.06890
vt 0.77229 0.16635
vt 0.77557 0.45759
vt 0.77744 0.24301
vt 0.79319 0.93749
vt 0.79319 0.94877
vt 0.79358 0.89238
vt 0.80096 0.94313
vt 0.80824 0.47626
vt 0.80824 0.55145
vt 0.80998 0.94343
vt 0.81044 0.92317
vt 0.81118 0.90039
vt 0.81138 0.96099
vt 0.81861 0.89238
vt 0.81861 0.93111
vt 0.81875 0.55145
vt 0.81979 0.47626
vt 0.82148 0.77217
vt 0.82406 0.90041
vt 0.82406 0.92319
vt 0.82511 0.45814
vt 0.82596 0.24301
vt 0.82982 0.94182
vt 0.83027 0.64896
vt 0.83027 0.88462
vt 0.83030 0.47626
vt 0.83030 0.55145
vt 0.83122 0.95938
vt 0.83354 0.92317
vt 0.83428 0.90039
vt 0.83493 0.25099
vt 0.83493 0.32618
vt 0.83493 0.34989
vt 0.83493 0.42508
vt 0.83781 0.47626
vt 0.83781 0.54006
vt 0.83781 0.56627
vt 0.83898 0.00000
vt 0.83898 0.23525
vt 0.84171 0.89238
vt 0.84171 0.93111
vt 0.84175 0.94343
vt 0.84315 0.96099
vt 0.84544 0.32618
vt 0.84544 0.42508
vt 0.84548 0.57190
vt 0.84550 0.55783
vt 0.84601 0.63313
vt 0.84648 0.25099
vt 0.84648 0.34989
vt 0.84717 0.90041
vt 0.84717 0.92319
vt 0.84831 0.54006
vt 0.84936 0.47626
vt 0.85665 0.92317
vt 0.85699 0.25099
vt 0.85699 0.32618
vt 0.85699 0.34989
vt 0.85699 0.42508
vt 0.85739 0.90039
vt 0.85986 0.47626
vt 0.85986 0.54006
vt 0.86159 0.94182
vt 0.86299 0.95938
vt 0.86450 0.25349
vt 0.86450 0.37886
vt 0.86450 0.44785
vt 0.86482 0.89238
vt 0.86482 0.93111
vt 0.86737 0.52709
vt 0.86753 0.57190
vt 0.86755 0.55859
vt 0.86807 0.63313
vt 0.87028 0.90041
vt 0.87028 0.92319
vt 0.87217 0.25912
vt 0.87217 0.37322
vt 0.87217 0.44221
vt 0.87219 0.24505
vt 0.87219 0.38654
vt 0.87219 0.45552
vt 0.87234 0.70890
vt 0.87256 0.39709
vt 0.87264 0.31229
vt 0.87264 0.32005
vt 0.87352 0.94343
vt 0.87492 0.96099
vt 0.87504 0.52145
vt 0.87504 0.53273
vt 0.87530 0.56627
vt 0.87551 0.46828
vt 0.87779 0.90041
vt 0.87779 0.92319
vt 0.88269 0.82468
vt 0.88281 0.61460
vt 0.88324 0.89238
vt 0.88324 0.93111
vt 0.88870 0.90041
vt 0.88870 0.92319
vt 0.89048 0.60896
vt 0.89048 0.62024
vt 0.89095 0.55579
vt 0.89336 0.94182
vt 0.89422 0.25912
vt 0.89422 0.37322
vt 0.89422 0.44221
vt 0.89424 0.24581
vt 0.89425 0.38730
vt 0.89425 0.45628
vt 0.89462 0.39709
vt 0.89469 0.31229
vt 0.89469 0.32005
vt 0.89476 0.95938
vt 0.89621 0.90041
vt 0.89621 0.92319
vt 0.89710 0.52145
vt 0.89710 0.53273
vt 0.89756 0.46828
vt 0.90167 0.89238
vt 0.90167 0.93111
vt 0.90199 0.25349
vt 0.90199 0.37886
vt 0.90199 0.44785
vt 0.90487 0.52709
vt 0.90529 0.94343
vt 0.90669 0.96099
vt 0.90713 0.90041
vt 0.90713 0.92319
vt 0.90950 0.25104
vt 0.90950 0.27382
vt 0.90950 0.29753
vt 0.90950 0.32032
vt 0.91253 0.60896
vt 0.91253 0.62024
vt 0.91255 0.42398
vt 0.91300 0.55579
vt 0.91388 0.34981
vt 0.91388 0.38657
vt 0.91389 0.47284
vt 0.91389 0.50566
vt 0.91398 0.33600
vt 0.91398 0.36500
vt 0.91398 0.37276
vt 0.91398 0.40176
vt 0.91398 0.40952
vt 0.91398 0.43852
vt 0.91496 0.24301
vt 0.91496 0.28175
vt 0.91496 0.28951
vt 0.91496 0.32824
vt 0.91529 0.49040
vt 0.91529 0.52323
vt 0.91615 0.89694
vt 0.91755 0.91450
vt 0.92030 0.61460
vt 0.92042 0.25104
vt 0.92042 0.27382
vt 0.92042 0.29753
vt 0.92042 0.32032
vt 0.92476 0.64896
vt 0.92476 0.88462
vt 0.92513 0.94182
vt 0.92653 0.95938
vt 0.92781 0.56028
vt 0.92781 0.57623
vt 0.92781 0.59310
vt 0.92781 0.60905
vt 0.92932 0.42471
vt 0.92942 0.33600
vt 0.92942 0.36500
vt 0.92942 0.37276
vt 0.92942 0.40176
vt 0.92942 0.40952
vt 0.92942 0.43852
vt 0.93068 0.35054
vt 0.93068 0.38730
vt 0.93330 0.00000
vt 0.93330 0.23525
vt 0.93355 0.76141
vt 0.93373 0.47123
vt 0.93373 0.50405
vt 0.93512 0.48879
vt 0.93512 0.52161
vt 0.93599 0.89533
vt 0.93739 0.91289
vt 0.94118 0.57633
vt 0.94181 0.61053
vt 0.94189 0.55898
vt 0.94252 0.59320
vt 0.99157 0.71798
vt 0.99157 0.81560
vt 1.00000 0.06890
vt 1.00000 0.16635
s 0
usemtl Platformer_grass
f 1/108/1 2/99/1 3/106/1
f 1/108/110 7/136/110 16/127/110
f 1/108/38 16/127/38 12/102/38
f 11/104/107 12/102/107 16/127/107
f 11/104/35 16/127/35 18/132/35
f 11/12/25 19/42/25 15/40/25
f 11/12/97 18/14/97 19/42/97
f 12/102/7 2/99/7 1/108/7
f 13/107/26 8/126/26 4/101/26
f 13/107/3 14/98/3 15/105/3
f 13/107/98 20/135/98 8/126/98
f 14/34/109 12/8/109 11/12/109
f 14/34/37 11/12/37 15/40/37
f 16/127/4 17/138/4 18/132/4
f 17/15/100 7/7/100 9/33/100
f 17/15/28 9/33/28 20/43/28
f 19/133/108 20/135/108 13/107/108
f 19/133/36 13/107/36 15/105/36
f 19/74/105 18/73/105 17/66/105
f 19/74/33 17/66/33 20/71/33
f 2/67/102 4/81/102 5/80/102
f 2/67/106 12/72/106 14/82/106
f 2/67/30 5/80/30 3/65/30
f 2/67/34 14/82/34 4/81/34
f 20/135/6 9/137/6 8/126/6
f 21/1/117 25/20/117 29/19/117
f 21/1/47 29/19/47 30/2/47
f 22/17/111 21/16/111 23/30/111
f 22/17/41 23/30/41 28/31/41
f 23/30/10 24/44/10 28/31/10
f 24/251/12 27/232/12 28/233/12
f 25/198/11 22/208/11 26/207/11
f 25/3/9 21/16/9 22/17/9
f 26/207/40 27/232/40 36/234/40
f 26/207/40 36/234/40 33/209/40
f 27/140/114 24/121/114 35/123/114
f 27/140/44 35/123/44 36/139/44
f 28/233/112 27/232/112 26/207/112
f 28/233/42 26/207/42 22/208/42
f 29/230/13 34/216/13 30/236/13
f 29/309/15 33/291/15 34/318/15
f 30/18/39 23/30/39 21/16/39
f 30/18/39 31/32/39 23/30/39
f 31/111/118 35/123/118 24/121/118
f 31/111/48 24/121/48 23/112/48
f 32/221/116 31/235/116 30/236/116
f 32/221/46 30/236/46 34/216/46
f 33/27/113 29/19/113 25/20/113
f 33/27/43 25/20/43 26/26/43
f 35/229/14 31/235/14 32/221/14
f 35/308/16 32/317/16 36/290/16
f 36/290/115 32/317/115 34/318/115
f 36/290/45 34/318/45 33/291/45
f 37/120/17 46/117/17 38/130/17
f 37/256/21 45/261/21 46/262/21
f 38/130/120 46/117/120 39/118/120
f 38/130/52 39/118/52 40/129/52
f 38/246/50 40/273/50 44/266/50
f 38/246/50 44/266/50 41/238/50
f 39/118/18 47/119/18 40/129/18
f 4/101/8 14/98/8 13/107/8
f 40/192/121 47/210/121 43/205/121
f 40/192/53 43/205/53 44/193/53
f 41/220/119 49/206/119 37/211/119
f 41/220/51 37/211/51 38/219/51
f 43/257/24 51/259/24 52/253/24
f 43/283/20 52/269/20 44/266/20
f 44/266/122 52/269/122 42/241/122
f 44/266/54 42/241/54 41/238/54
f 45/194/124 37/211/124 49/206/124
f 45/194/56 49/206/56 50/195/56
f 47/316/22 39/295/22 48/294/22
f 48/294/126 39/295/126 46/262/126
f 48/294/58 46/262/58 45/261/58
f 49/227/19 41/238/19 42/241/19
f 49/258/23 42/254/23 50/260/23
f 5/103/103 4/101/103 8/126/103
f 5/103/31 8/126/31 10/131/31
f 50/263/49 48/294/49 45/261/49
f 50/263/49 51/297/49 48/294/49
f 51/218/125 43/205/125 47/210/125
f 51/218/57 47/210/57 48/217/57
f 52/253/123 51/259/123 50/260/123
f 52/253/55 50/260/55 42/254/55
f 53/169/129 57/178/129 61/177/129
f 53/169/47 61/177/47 62/170/47
f 54/250/111 53/249/111 55/277/111
f 54/250/41 55/277/41 60/278/41
f 55/277/10 56/285/10 60/278/10
f 56/282/12 59/265/12 60/268/12
f 57/226/11 54/240/11 58/237/11
f 57/231/9 53/249/9 54/250/9
f 58/237/40 59/265/40 68/272/40
f 58/237/40 68/272/40 65/245/40
f 59/59/128 56/45/128 67/46/128
f 59/59/44 67/46/44 68/58/44
f 6/11/27 5/41/27 10/39/27
f 6/11/99 3/13/99 5/41/99
f 6/134/101 7/136/101 1/108/101
f 6/134/29 1/108/29 3/106/29
f 60/268/112 59/265/112 58/237/112
f 60/268/42 58/237/42 54/240/42
f 61/176/13 66/172/13 62/181/13
f 61/311/15 65/293/15 66/320/15
f 62/252/39 55/277/39 53/249/39
f 62/252/39 63/279/39 55/277/39
f 63/28/130 67/46/130 56/45/130
f 63/28/48 56/45/48 55/29/48
f 64/173/116 63/180/116 62/181/116
f 64/173/46 62/181/46 66/172/46
f 65/188/127 61/177/127 57/178/127
f 65/188/43 57/178/43 58/187/43
f 67/175/14 63/180/14 64/173/14
f 67/310/16 64/319/16 68/292/16
f 68/292/115 64/319/115 66/320/115
f 68/292/45 66/320/45 65/293/45
f 69/155/21 77/158/21 78/159/21
f 69/202/17 78/190/17 70/213/17
f 7/136/5 17/138/5 16/127/5
f 70/213/120 78/190/120 71/191/120
f 70/213/52 71/191/52 72/212/52
f 70/244/50 72/271/50 76/267/50
f 70/244/50 76/267/50 73/239/50
f 71/191/18 79/201/18 72/212/18
f 72/113/132 79/124/132 75/122/132
f 72/113/53 75/122/53 76/114/53
f 73/223/131 81/214/131 69/215/131
f 73/223/51 69/215/51 70/222/51
f 75/280/24 83/288/24 84/275/24
f 75/284/20 84/270/20 76/267/20
f 76/267/122 84/270/122 74/242/122
f 76/267/54 74/242/54 73/239/54
f 77/196/133 69/215/133 81/214/133
f 77/196/56 81/214/56 82/197/56
f 79/168/22 71/166/22 80/165/22
f 8/126/2 9/137/2 10/131/2
f 80/165/126 71/166/126 78/159/126
f 80/165/58 78/159/58 77/158/58
f 81/228/19 73/239/19 74/242/19
f 81/281/23 74/276/23 82/289/23
f 82/160/49 80/165/49 77/158/49
f 82/160/49 83/167/49 80/165/49
f 83/142/134 75/122/134 79/124/134
f 83/142/57 79/124/57 80/141/57
f 84/275/123 83/288/123 82/289/123
f 84/275/55 82/289/55 74/276/55
f 9/33/104 7/7/104 6/11/104
f 9/33/32 6/11/32 10/39/32
usemtl Platformer_brick
f 85/163/135 89/164/135 90/183/135
f 85/163/59 90/183/59 86/182/59
f 85/97/140 87/109/140 91/110/140
f 85/97/64 91/110/64 89/100/64
f 87/63/138 85/68/138 86/94/138
f 87/63/62 86/94/62 88/91/62
f 89/64/136 91/70/136 92/96/136
f 89/64/60 92/96/60 90/92/60
f 90/145/137 92/149/137 88/150/137
f 90/145/61 88/150/61 86/148/61
f 91/69/139 87/63/139 88/91/139
f 91/69/63 88/91/63 92/95/63
usemtl Platformer_brick_glazed
f 101/255/150 104/340/150 105/352/150
f 101/255/77 105/352/77 106/322/77
f 102/179/147 101/255/147 107/186/147
f 102/179/71 107/186/71 108/154/71
f 103/243/148 102/179/148 109/153/148
f 103/243/151 104/340/151 101/255/151
f 103/243/73 109/153/73 110/185/73
f 103/243/78 101/255/78 102/179/78
f 104/340/149 103/243/149 111/321/149
f 104/340/75 111/321/75 112/351/75
f 106/322/79 107/186/79 101/255/79
f 106/354/156 105/339/156 112/200/156
f 108/154/74 109/153/74 102/179/74
f 108/338/155 107/353/155 106/354/155
f 108/338/81 106/354/81 112/200/81
f 110/161/154 109/199/154 108/338/154
f 110/185/76 111/321/76 103/243/76
f 112/200/153 111/162/153 110/161/153
f 112/200/81 110/161/81 108/338/81
f 112/351/72 105/352/72 104/340/72
f 93/144/146 95/152/146 99/157/146
f 93/144/70 99/157/70 97/147/70
f 93/86/141 97/88/141 98/93/141
f 93/86/65 98/93/65 94/90/65
f 95/47/144 93/53/144 94/60/144
f 95/47/68 94/60/68 96/56/68
f 97/48/142 99/55/142 100/62/142
f 97/48/66 100/62/66 98/57/66
f 98/143/143 100/151/143 96/156/143
f 98/143/67 96/156/67 94/146/67
f 99/54/145 95/47/145 96/56/145
f 99/54/69 96/56/69 100/61/69
usemtl Platformer_gold
f 113/203/86 119/225/86 117/204/86
f 113/203/94 115/224/94 119/225/94
f 113/21/152 117/5/152 118/4/152
f 113/21/80 118/4/80 114/22/80
f 115/348/158 113/328/158 114/327/158
f 115/348/84 114/327/84 116/350/84
f 117/303/157 119/298/157 120/336/157
f 117/303/82 120/336/82 118/331/82
f 118/189/83 116/171/83 114/184/83
f 118/189/93 120/174/93 116/171/93
f 119/298/159 115/302/159 116/330/159
f 119/298/85 116/330/85 120/336/85
f 121/286/92 127/324/92 125/287/92
f 121/286/96 123/323/96 127/324/96
f 121/347/160 125/326/160 126/325/160
f 121/347/87 126/325/87 122/349/87
f 123/77/162 121/78/162 122/84/162
f 123/77/90 122/84/90 124/83/90
f 125/125/161 127/116/161 128/115/161
f 125/125/88 128/115/88 126/128/88
f 126/247/89 124/274/89 122/248/89
f 126/247/95 128/264/95 124/274/95
f 127/79/163 123/77/163 124/83/163
f 127/79/91 124/83/91 128/85/91
f 129/299/159 133/304/159 134/332/159
f 129/299/85 134/332/85 130/337/85
f 129/344/86 131/313/86 135/301/86
f 129/344/94 135/301/94 133/342/94
f 131/305/157 129/299/157 130/337/157
f 131/305/82 130/337/82 132/333/82
f 133/50/158 135/38/158 136/37/158
f 133/50/84 136/37/84 134/52/84
f 134/300/83 136/341/83 132/343/83
f 134/300/93 132/343/93 130/312/93
f 135/49/152 131/36/152 132/35/152
f 135/49/80 132/35/80 136/51/80
f 137/307/163 141/296/163 142/329/163
f 137/307/91 142/329/91 138/335/91
f 137/89/92 139/76/92 143/75/92
f 137/89/96 143/75/96 141/87/96
f 139/6/161 137/9/161 138/24/161
f 139/6/88 138/24/88 140/23/88
f 141/296/162 143/306/162 144/334/162
f 141/296/90 144/334/90 142/329/90
f 142/314/89 144/345/89 140/346/89
f 142/314/95 140/346/95 138/315/95
f 143/10/160 139/6/160 140/23/160
f 143/10/87 140/23/87 144/25/87
