# Blender 4.0.2
# www.blender.org
mtllib floating_platform.mtl
o floating_platform
v 1.390000 0.620000 -1.390000
v 1.390000 0.730000 -1.500000
v 1.500000 0.730000 -1.390000
v 1.390000 0.634696 -1.444928
v 1.444928 0.634696 -1.390000
v 1.442603 0.648970 -1.442603
v 1.444928 0.730000 -1.485304
v 1.390000 0.675072 -1.485304
v 1.442603 0.677397 -1.471029
v 1.485304 0.675072 -1.390000
v 1.485304 0.730000 -1.444928
v 1.471029 0.677397 -1.442603
v 1.390000 0.890000 -1.500000
v 1.390000 1.000000 -1.390000
v 1.500000 0.890000 -1.390000
v 1.390000 0.944928 -1.485304
v 1.444928 0.890000 -1.485304
v 1.442603 0.942603 -1.471029
v 1.444928 0.985304 -1.390000
v 1.390000 0.985304 -1.444928
v 1.442603 0.971030 -1.442603
v 1.485304 0.890000 -1.444928
v 1.485304 0.944928 -1.390000
v 1.471029 0.942603 -1.442603
v 1.390000 0.620000 1.390000
v 1.500000 0.730000 1.390000
v 1.390000 0.730000 1.500000
v 1.444928 0.634696 1.390000
v 1.390000 0.634696 1.444928
v 1.442603 0.648970 1.442603
v 1.485304 0.730000 1.444928
v 1.485304 0.675072 1.390000
v 1.471029 0.677397 1.442603
v 1.390000 0.675072 1.485304
v 1.444928 0.730000 1.485304
v 1.442603 0.677397 1.471029
v 1.390000 1.000000 1.390000
v 1.390000 0.890000 1.500000
v 1.500000 0.890000 1.390000
v 1.390000 0.985304 1.444928
v 1.444928 0.985304 1.390000
v 1.442603 0.971030 1.442603
v 1.444928 0.890000 1.485304
v 1.390000 0.944928 1.485304
v 1.442603 0.942603 1.471029
v 1.485304 0.944928 1.390000
v 1.485304 0.890000 1.444928
v 1.471029 0.942603 1.442603
v -1.390000 0.620000 -1.390000
v -1.500000 0.730000 -1.390000
v -1.390000 0.730000 -1.500000
v -1.444928 0.634696 -1.390000
v -1.390000 0.634696 -1.444928
v -1.442603 0.648970 -1.442603
v -1.485304 0.730000 -1.444928
v -1.485304 0.675072 -1.390000
v -1.471029 0.677397 -1.442603
v -1.390000 0.675072 -1.485304
v -1.444928 0.730000 -1.485304
v -1.442603 0.677397 -1.471029
v -1.390000 1.000000 -1.390000
v -1.390000 0.890000 -1.500000
v -1.500000 0.890000 -1.390000
v -1.390000 0.985304 -1.444928
v -1.444928 0.985304 -1.390000
v -1.442603 0.971030 -1.442603
v -1.444928 0.890000 -1.485304
v -1.390000 0.944928 -1.485304
v -1.442603 0.942603 -1.471029
v -1.485304 0.944928 -1.390000
v -1.485304 0.890000 -1.444928
v -1.471029 0.942603 -1.442603
v -1.390000 0.620000 1.390000
v -1.390000 0.730000 1.500000
v -1.500000 0.730000 1.390000
v -1.390000 0.634696 1.444928
v -1.444928 0.634696 1.390000
v -1.442603 0.648970 1.442603
v -1.444928 0.730000 1.485304
v -1.390000 0.675072 1.485304
v -1.442603 0.677397 1.471029
v -1.485304 0.675072 1.390000
v -1.485304 0.730000 1.444928
v -1.471029 0.677397 1.442603
v -1.390000 1.000000 1.390000
v -1.500000 0.890000 1.390000
v -1.390000 0.890000 1.500000
v -1.444928 0.985304 1.390000
v -1.390000 0.985304 1.444928
v -1.442603 0.971030 1.442603
v -1.485304 0.890000 1.444928
v -1.485304 0.944928 1.390000
v -1.471029 0.942603 1.442603
v -1.390000 0.944928 1.485304
v -1.444928 0.890000 1.485304
v -1.442603 0.942603 1.471029
v 0.380000 0.390000 1.440000
v 0.380000 0.460000 1.370000
v 0.450000 0.460000 1.440000
v 0.380000 0.660000 1.370000
v 0.380000 0.730000 1.440000
v 0.450000 0.660000 1.440000
v 0.380000 0.390000 1.500000
v 0.450000 0.460000 1.500000
v 0.380000 0.460000 1.570000
v 0.380000 0.730000 1.500000
v 0.380000 0.660000 1.570000
v 0.450000 0.660000 1.500000
v -0.380000 0.390000 1.440000
v -0.450000 0.460000 1.440000
v -0.380000 0.460000 1.370000
v -0.380000 0.730000 1.440000
v -0.380000 0.660000 1.370000
v -0.450000 0.660000 1.440000
v -0.380000 0.390000 1.500000
v -0.380000 0.460000 1.570000
v -0.450000 0.460000 1.500000
v -0.380000 0.730000 1.500000
v -0.450000 0.660000 1.500000
v -0.380000 0.660000 1.570000
v -1.440000 0.390000 0.020000
v -1.440000 0.460000 -0.050000
v -1.370000 0.460000 0.020000
v -1.440000 0.660000 -0.050000
v -1.440000 0.730000 0.020000
v -1.370000 0.660000 0.020000
v -1.440000 0.390000 0.680000
v -1.370000 0.460000 0.680000
v -1.440000 0.460000 0.750000
v -1.440000 0.730000 0.680000
v -1.440000 0.660000 0.750000
v -1.370000 0.660000 0.680000
v -1.500000 0.390000 0.020000
v -1.570000 0.460000 0.020000
v -1.500000 0.460000 -0.050000
v -1.500000 0.730000 0.020000
v -1.500000 0.660000 -0.050000
v -1.570000 0.660000 0.020000
v -1.500000 0.390000 0.680000
v -1.500000 0.460000 0.750000
v -1.570000 0.460000 0.680000
v -1.500000 0.730000 0.680000
v -1.570000 0.660000 0.680000
v -1.500000 0.660000 0.750000
v 0.630000 0.390000 -1.500000
v 0.630000 0.460000 -1.570000
v 0.700000 0.460000 -1.500000
v 0.630000 0.660000 -1.570000
v 0.630000 0.730000 -1.500000
v 0.700000 0.660000 -1.500000
v 0.630000 0.390000 -1.440000
v 0.700000 0.460000 -1.440000
v 0.630000 0.460000 -1.370000
v 0.630000 0.730000 -1.440000
v 0.630000 0.660000 -1.370000
v 0.700000 0.660000 -1.440000
v -0.030000 0.390000 -1.500000
v -0.100000 0.460000 -1.500000
v -0.030000 0.460000 -1.570000
v -0.030000 0.730000 -1.500000
v -0.030000 0.660000 -1.570000
v -0.100000 0.660000 -1.500000
v -0.030000 0.390000 -1.440000
v -0.030000 0.460000 -1.370000
v -0.100000 0.460000 -1.440000
v -0.030000 0.730000 -1.440000
v -0.100000 0.660000 -1.440000
v -0.030000 0.660000 -1.370000
v 1.500000 0.390000 -0.680000
v 1.500000 0.460000 -0.750000
v 1.570000 0.460000 -0.680000
v 1.500000 0.660000 -0.750000
v 1.500000 0.730000 -0.680000
v 1.570000 0.660000 -0.680000
v 1.500000 0.390000 -0.120000
v 1.570000 0.460000 -0.120000
v 1.500000 0.460000 -0.050000
v 1.500000 0.730000 -0.120000
v 1.500000 0.660000 -0.050000
v 1.570000 0.660000 -0.120000
v 1.440000 0.390000 -0.680000
v 1.370000 0.460000 -0.680000
v 1.440000 0.460000 -0.750000
v 1.440000 0.730000 -0.680000
v 1.440000 0.660000 -0.750000
v 1.370000 0.660000 -0.680000
v 1.440000 0.390000 -0.120000
v 1.440000 0.460000 -0.050000
v 1.370000 0.460000 -0.120000
v 1.440000 0.730000 -0.120000
v 1.370000 0.660000 -0.120000
v 1.440000 0.660000 -0.050000
v 1.320000 0.170000 -1.320000
v 1.320000 0.200000 -1.350000
v 1.350000 0.200000 -1.320000
v 1.320000 0.640000 -1.350000
v 1.320000 0.670000 -1.320000
v 1.350000 0.640000 -1.320000
v 1.320000 0.170000 1.320000
v 1.350000 0.200000 1.320000
v 1.320000 0.200000 1.350000
v 1.320000 0.670000 1.320000
v 1.320000 0.640000 1.350000
v 1.350000 0.640000 1.320000
v -1.320000 0.170000 -1.320000
v -1.350000 0.200000 -1.320000
v -1.320000 0.200000 -1.350000
v -1.320000 0.670000 -1.320000
v -1.320000 0.640000 -1.350000
v -1.350000 0.640000 -1.320000
v -1.320000 0.170000 1.320000
v -1.320000 0.200000 1.350000
v -1.350000 0.200000 1.320000
v -1.320000 0.670000 1.320000
v -1.350000 0.640000 1.320000
v -1.320000 0.640000 1.350000
v 1.370000 0.315000 -1.370000
v 1.370000 0.335000 -1.390000
v 1.390000 0.335000 -1.370000
v 1.370000 0.385000 -1.390000
v 1.370000 0.405000 -1.370000
v 1.390000 0.385000 -1.370000
v 1.370000 0.315000 1.370000
v 1.390000 0.335000 1.370000
v 1.370000 0.335000 1.390000
v 1.370000 0.405000 1.370000
v 1.370000 0.385000 1.390000
v 1.390000 0.385000 1.370000
v -1.370000 0.315000 -1.370000
v -1.390000 0.335000 -1.370000
v -1.370000 0.335000 -1.390000
v -1.370000 0.405000 -1.370000
v -1.370000 0.385000 -1.390000
v -1.390000 0.385000 -1.370000
v -1.370000 0.315000 1.370000
v -1.370000 0.335000 1.390000
v -1.390000 0.335000 1.370000
v -1.370000 0.405000 1.370000
v -1.390000 0.385000 1.370000
v -1.370000 0.385000 1.390000
v 0.210476 0.000000 0.508134
v -0.210476 0.000000 0.508134
v -0.508134 0.000000 0.210476
v -0.508134 0.000000 -0.210476
v -0.210476 0.000000 -0.508134
v 0.210476 0.000000 -0.508134
v 0.508134 0.000000 -0.210476
v 0.508134 0.000000 0.210476
v 0.427660 0.200000 1.032461
v 0.428397 0.189819 1.034242
v -0.427659 0.200000 1.032461
v -0.428397 0.189818 1.034242
v -1.032461 0.200000 0.427660
v -1.034242 0.189819 0.428397
v -1.032461 0.200000 -0.427659
v -1.034242 0.189818 -0.428397
v -0.427660 0.200000 -1.032461
v -0.428397 0.189819 -1.034242
v 0.427659 0.200000 -1.032461
v 0.428397 0.189818 -1.034242
v 1.032461 0.200000 -0.427660
v 1.034242 0.189819 -0.428397
v 1.032461 0.200000 0.427659
v 1.034242 0.189818 0.428397
v -0.070000 0.340000 1.300000
v -0.110000 0.380000 1.300000
v -0.070000 0.380000 1.260000
v -0.110000 0.520000 1.300000
v -0.070000 0.560000 1.300000
v -0.070000 0.520000 1.260000
v 0.070000 0.340000 1.300000
v 0.070000 0.380000 1.260000
v 0.110000 0.380000 1.300000
v 0.070000 0.560000 1.300000
v 0.110000 0.520000 1.300000
v 0.070000 0.520000 1.260000
v -0.070000 0.340000 1.440000
v -0.070000 0.380000 1.480000
v -0.110000 0.380000 1.440000
v -0.070000 0.560000 1.440000
v -0.110000 0.520000 1.440000
v -0.070000 0.520000 1.480000
v 0.070000 0.340000 1.440000
v 0.110000 0.380000 1.440000
v 0.070000 0.380000 1.480000
v 0.070000 0.560000 1.440000
v 0.070000 0.520000 1.480000
v 0.110000 0.520000 1.440000
v -1.300000 0.340000 -0.070000
v -1.300000 0.380000 -0.110000
v -1.260000 0.380000 -0.070000
v -1.300000 0.520000 -0.110000
v -1.300000 0.560000 -0.070000
v -1.260000 0.520000 -0.070000
v -1.300000 0.340000 0.070000
v -1.260000 0.380000 0.070000
v -1.300000 0.380000 0.110000
v -1.300000 0.560000 0.070000
v -1.300000 0.520000 0.110000
v -1.260000 0.520000 0.070000
v -1.440000 0.340000 -0.070000
v -1.480000 0.380000 -0.070000
v -1.440000 0.380000 -0.110000
v -1.440000 0.560000 -0.070000
v -1.440000 0.520000 -0.110000
v -1.480000 0.520000 -0.070000
v -1.440000 0.340000 0.070000
v -1.440000 0.380000 0.110000
v -1.480000 0.380000 0.070000
v -1.440000 0.560000 0.070000
v -1.480000 0.520000 0.070000
v -1.440000 0.520000 0.110000
v 0.070000 0.340000 -1.300000
v 0.110000 0.380000 -1.300000
v 0.070000 0.380000 -1.260000
v 0.110000 0.520000 -1.300000
v 0.070000 0.560000 -1.300000
v 0.070000 0.520000 -1.260000
v -0.070000 0.340000 -1.300000
v -0.070000 0.380000 -1.260000
v -0.110000 0.380000 -1.300000
v -0.070000 0.560000 -1.300000
v -0.110000 0.520000 -1.300000
v -0.070000 0.520000 -1.260000
v 0.070000 0.340000 -1.440000
v 0.070000 0.380000 -1.480000
v 0.110000 0.380000 -1.440000
v 0.070000 0.560000 -1.440000
v 0.110000 0.520000 -1.440000
v 0.070000 0.520000 -1.480000
v -0.070000 0.340000 -1.440000
v -0.110000 0.380000 -1.440000
v -0.070000 0.380000 -1.480000
v -0.070000 0.560000 -1.440000
v -0.070000 0.520000 -1.480000
v -0.110000 0.520000 -1.440000
v 1.300000 0.340000 0.070000
v 1.300000 0.380000 0.110000
v 1.260000 0.380000 0.070000
v 1.300000 0.520000 0.110000
v 1.300000 0.560000 0.070000
v 1.260000 0.520000 0.070000
v 1.300000 0.340000 -0.070000
v 1.260000 0.380000 -0.070000
v 1.300000 0.380000 -0.110000
v 1.300000 0.560000 -0.070000
v 1.300000 0.520000 -0.110000
v 1.260000 0.520000 -0.070000
v 1.440000 0.340000 0.070000
v 1.480000 0.380000 0.070000
v 1.440000 0.380000 0.110000
v 1.440000 0.560000 0.070000
v 1.440000 0.520000 0.110000
v 1.480000 0.520000 0.070000
v 1.440000 0.340000 -0.070000
v 1.440000 0.380000 -0.110000
v 1.480000 0.380000 -0.070000
v 1.440000 0.560000 -0.070000
v 1.480000 0.520000 -0.070000
v 1.440000 0.520000 -0.110000
vn -0.0000 -0.0000 -1.0000
vn -1.0000 -0.0000 -0.0000
vn -0.0000 1.0000 -0.0000
vn 1.0000 -0.0000 -0.0000
vn -0.0000 -0.0000 1.0000
vn 0.2502 -0.9353 -0.2502
vn 0.2178 -0.6901 -0.6901
vn 0.2502 -0.2502 -0.9353
vn 0.6901 -0.2178 -0.6901
vn 0.9353 -0.2502 -0.2502
vn 0.6901 -0.6901 -0.2178
vn 0.5774 -0.5773 -0.5773
vn 0.2502 0.2502 -0.9353
vn 0.2178 0.6901 -0.6901
vn 0.2502 0.9353 -0.2502
vn 0.6901 0.6901 -0.2178
vn 0.9353 0.2502 -0.2502
vn 0.6901 0.2178 -0.6901
vn 0.5774 0.5773 -0.5773
vn 0.2502 -0.9353 0.2502
vn 0.6901 -0.6901 0.2178
vn 0.9353 -0.2502 0.2502
vn 0.6901 -0.2178 0.6901
vn 0.2502 -0.2502 0.9353
vn 0.2178 -0.6901 0.6901
vn 0.5774 -0.5773 0.5773
vn 0.2502 0.9353 0.2502
vn 0.2178 0.6901 0.6901
vn 0.2502 0.2502 0.9353
vn 0.6901 0.2178 0.6901
vn 0.9353 0.2502 0.2502
vn 0.6901 0.6901 0.2178
vn 0.5774 0.5773 0.5773
vn -0.2502 -0.9353 -0.2502
vn -0.6901 -0.6901 -0.2178
vn -0.9353 -0.2502 -0.2502
vn -0.6901 -0.2178 -0.6901
vn -0.2502 -0.2502 -0.9353
vn -0.2178 -0.6901 -0.6901
vn -0.5774 -0.5773 -0.5773
vn -0.2502 0.9353 -0.2502
vn -0.2178 0.6901 -0.6901
vn -0.2502 0.2502 -0.9353
vn -0.6901 0.2178 -0.6901
vn -0.9353 0.2502 -0.2502
vn -0.6901 0.6901 -0.2178
vn -0.5774 0.5773 -0.5773
vn -0.2502 -0.9353 0.2502
vn -0.2178 -0.6901 0.6901
vn -0.2502 -0.2502 0.9353
vn -0.6901 -0.2178 0.6901
vn -0.9353 -0.2502 0.2502
vn -0.6901 -0.6901 0.2178
vn -0.5774 -0.5773 0.5773
vn -0.2502 0.9353 0.2502
vn -0.6901 0.6901 0.2178
vn -0.9353 0.2502 0.2502
vn -0.6901 0.2178 0.6901
vn -0.2502 0.2502 0.9353
vn -0.2178 0.6901 0.6901
vn -0.5774 0.5773 0.5773
vn 0.2585 -0.9660 -0.0000
vn 0.7071 -0.7071 -0.0000
vn 0.9660 -0.2585 -0.0000
vn 0.2585 -0.0000 -0.9660
vn 0.7071 -0.0000 -0.7071
vn 0.9660 -0.0000 -0.2585
vn 0.2585 0.9660 -0.0000
vn 0.7071 0.7071 -0.0000
vn 0.9660 0.2585 -0.0000
vn 0.2585 -0.0000 0.9660
vn 0.7071 -0.0000 0.7071
vn 0.9660 -0.0000 0.2585
vn -0.0000 -0.9660 0.2585
vn -0.0000 -0.7071 0.7071
vn -0.0000 -0.2585 0.9660
vn -0.0000 0.9660 0.2585
vn -0.0000 0.7071 0.7071
vn -0.0000 0.2585 0.9660
vn -0.9660 -0.0000 0.2585
vn -0.7071 -0.0000 0.7071
vn -0.2585 -0.0000 0.9660
vn -0.2585 -0.9660 -0.0000
vn -0.7071 -0.7071 -0.0000
vn -0.9660 -0.2585 -0.0000
vn -0.2585 0.9660 -0.0000
vn -0.7071 0.7071 -0.0000
vn -0.9660 0.2585 -0.0000
vn -0.2585 -0.0000 -0.9660
vn -0.7071 -0.0000 -0.7071
vn -0.9660 -0.0000 -0.2585
vn -0.0000 -0.9660 -0.2585
vn -0.0000 -0.7071 -0.7071
vn -0.0000 -0.2585 -0.9660
vn -0.0000 0.9660 -0.2585
vn -0.0000 0.7071 -0.7071
vn -0.0000 0.2585 -0.9660
vn -0.0000 -1.0000 -0.0000
vn 0.5773 -0.5774 -0.5773
vn 0.5774 0.5774 -0.5773
vn 0.5773 -0.5774 0.5773
vn 0.5774 0.5774 0.5773
vn -0.5773 -0.5774 -0.5773
vn -0.5774 0.5774 -0.5773
vn -0.5773 -0.5774 0.5773
vn -0.5774 0.5774 0.5773
vn 0.5773 -0.5774 -0.5774
vn 0.5774 0.5773 -0.5774
vn 0.5773 -0.5774 0.5774
vn 0.5774 0.5774 0.5774
vn -0.5773 -0.5774 -0.5774
vn -0.5774 0.5773 -0.5774
vn -0.5773 -0.5774 0.5774
vn -0.5774 0.5774 0.5774
vn 0.5774 0.5774 -0.5774
vn 0.5773 0.5774 0.5773
vn -0.5774 -0.5774 -0.5773
vn -0.5774 -0.5774 0.5773
vn 0.5774 0.5773 0.5774
vn -0.5774 0.5774 -0.5774
vn -0.5774 0.5773 0.5774
vn 0.2400 -0.9406 0.2400
vn -0.3394 -0.9406 -0.0000
vn -0.2400 -0.9406 -0.2400
vn -0.0000 -0.9406 -0.3394
vn 0.2400 -0.9406 -0.2400
vn 0.3394 -0.9406 -0.0000
vn -0.0000 -0.9406 0.3394
vn -0.2400 -0.9406 0.2400
vn -0.0000 0.1723 0.9851
vn -0.6965 0.1723 0.6965
vn -0.9851 0.1723 -0.0000
vn -0.6965 0.1723 -0.6965
vn -0.0000 0.1723 -0.9851
vn 0.6965 0.1723 -0.6965
vn 0.9851 0.1723 -0.0000
vn 0.6965 0.1723 0.6965
vn -0.5774 -0.5773 -0.5774
vn -0.5773 0.5774 -0.5774
vn 0.5773 0.5774 -0.5774
vn -0.5774 -0.5773 0.5774
vn -0.5773 0.5773 0.5774
vn 0.5774 -0.5773 0.5774
vn 0.5773 0.5773 0.5774
vn 0.5774 -0.5773 -0.5774
vn 0.5773 0.5774 0.5774
vn 0.5773 0.5773 -0.5774
vn -0.5773 0.5773 -0.5774
vn 0.5774 -0.5774 0.5773
vn 0.5774 -0.5774 -0.5773
vn 0.2635 -0.9280 -0.2635
vn 0.2635 -0.2635 -0.9280
vn 0.9280 -0.2635 -0.2635
vn 0.2635 0.2635 -0.9280
vn 0.2635 0.9280 -0.2635
vn 0.9280 0.2635 -0.2635
vn 0.2635 -0.9280 0.2635
vn 0.9280 -0.2635 0.2635
vn 0.2635 -0.2635 0.9280
vn 0.2635 0.9280 0.2635
vn 0.2635 0.2635 0.9280
vn 0.9280 0.2635 0.2635
vn -0.2635 -0.9280 -0.2635
vn -0.9280 -0.2635 -0.2635
vn -0.2635 -0.2635 -0.9280
vn -0.2635 0.9280 -0.2635
vn -0.2635 0.2635 -0.9280
vn -0.9280 0.2635 -0.2635
vn -0.2635 -0.9280 0.2635
vn -0.2635 -0.2635 0.9280
vn -0.9280 -0.2635 0.2635
vn -0.2635 0.9280 0.2635
vn -0.9280 0.2635 0.2635
vn -0.2635 0.2635 0.9280
vn -0.9850 0.1723 -0.0000
vn 0.9850 0.1723 -0.0000
vt 0.00000 0.23282
vt 0.00000 0.70621
vt 0.00000 0.73081
vt 0.00000 0.81739
vt 0.00000 0.89999
vt 0.00000 0.92789
vt 0.00000 0.95463
vt 0.00000 0.97058
vt 0.00288 0.22514
vt 0.00288 0.24049
vt 0.00288 0.69853
vt 0.00288 0.71389
vt 0.00312 0.23053
vt 0.00312 0.23511
vt 0.00312 0.70392
vt 0.00312 0.70850
vt 0.00438 0.92467
vt 0.00438 0.93111
vt 0.00448 0.91339
vt 0.00448 0.94239
vt 0.00485 0.00118
vt 0.00485 0.46445
vt 0.00485 0.47458
vt 0.00767 0.89435
vt 0.00767 0.90563
vt 0.00772 0.72283
vt 0.00772 0.73081
vt 0.00772 0.81739
vt 0.00772 0.82537
vt 0.00821 0.83313
vt 0.00890 0.22956
vt 0.00890 0.23607
vt 0.00890 0.70296
vt 0.00890 0.70946
vt 0.00893 0.22396
vt 0.00893 0.24168
vt 0.00893 0.69735
vt 0.00893 0.71507
vt 0.01089 0.00000
vt 0.01089 0.46564
vt 0.01089 0.47339
vt 0.01092 0.95474
vt 0.01092 0.97069
vt 0.01404 0.95015
vt 0.01404 0.97521
vt 0.01434 0.72283
vt 0.01434 0.73081
vt 0.01434 0.81739
vt 0.01434 0.82537
vt 0.01716 0.95474
vt 0.01716 0.97069
vt 0.01982 0.92467
vt 0.01982 0.93111
vt 0.01992 0.91339
vt 0.01992 0.94239
vt 0.02206 0.73081
vt 0.02206 0.81739
vt 0.02426 0.92789
vt 0.02655 0.22956
vt 0.02655 0.23607
vt 0.02655 0.70296
vt 0.02655 0.70946
vt 0.02658 0.22396
vt 0.02658 0.24168
vt 0.02658 0.69735
vt 0.02658 0.71507
vt 0.02854 0.00000
vt 0.02854 0.46564
vt 0.02854 0.47339
vt 0.02957 0.73081
vt 0.02957 0.80600
vt 0.02972 0.89435
vt 0.02972 0.90563
vt 0.03026 0.83313
vt 0.03177 0.91787
vt 0.03177 0.93382
vt 0.03177 0.95070
vt 0.03177 0.96664
vt 0.03236 0.23053
vt 0.03236 0.23511
vt 0.03236 0.70392
vt 0.03236 0.70850
vt 0.03264 0.22514
vt 0.03264 0.24049
vt 0.03264 0.69853
vt 0.03264 0.71389
vt 0.03460 0.00118
vt 0.03460 0.46445
vt 0.03460 0.47458
vt 0.03551 0.23282
vt 0.03551 0.70621
vt 0.03728 0.72283
vt 0.03728 0.73081
vt 0.03728 0.80600
vt 0.03728 0.81398
vt 0.03749 0.89999
vt 0.04269 0.91798
vt 0.04269 0.93393
vt 0.04269 0.95080
vt 0.04269 0.96675
vt 0.04303 0.22234
vt 0.04303 0.67479
vt 0.04303 0.68875
vt 0.04303 0.70470
vt 0.04390 0.72283
vt 0.04390 0.73081
vt 0.04390 0.80600
vt 0.04390 0.81398
vt 0.04522 0.22073
vt 0.04522 0.22396
vt 0.04522 0.67318
vt 0.04522 0.67640
vt 0.04538 0.82632
vt 0.04538 0.84227
vt 0.04538 0.85914
vt 0.04538 0.87509
vt 0.04581 0.91339
vt 0.04581 0.93845
vt 0.04581 0.94621
vt 0.04581 0.97127
vt 0.04614 0.68416
vt 0.04614 0.70923
vt 0.04715 0.00000
vt 0.04715 0.44469
vt 0.04715 0.45245
vt 0.04850 0.82173
vt 0.04850 0.84680
vt 0.04850 0.85456
vt 0.04850 0.87962
vt 0.04893 0.91798
vt 0.04893 0.93393
vt 0.04893 0.95080
vt 0.04893 0.96675
vt 0.04926 0.68875
vt 0.04926 0.70470
vt 0.05073 0.22073
vt 0.05073 0.22396
vt 0.05073 0.67318
vt 0.05073 0.67640
vt 0.05162 0.73081
vt 0.05162 0.80600
vt 0.05162 0.82632
vt 0.05162 0.84227
vt 0.05162 0.85914
vt 0.05162 0.87509
vt 0.05266 0.00000
vt 0.05266 0.44469
vt 0.05266 0.45245
vt 0.05295 0.22234
vt 0.05295 0.67479
vt 0.06046 0.21509
vt 0.06046 0.67076
vt 0.06046 0.90248
vt 0.06046 0.92189
vt 0.06046 0.94012
vt 0.06161 0.91562
vt 0.06161 0.94637
vt 0.06334 0.66309
vt 0.06334 0.67844
vt 0.06357 0.66848
vt 0.06357 0.67305
vt 0.06375 0.21268
vt 0.06375 0.21751
vt 0.06375 0.90006
vt 0.06375 0.90490
vt 0.06531 0.43913
vt 0.06561 0.00000
vt 0.06561 0.43019
vt 0.06561 0.68739
vt 0.06589 0.92192
vt 0.06589 0.94015
vt 0.06682 0.91592
vt 0.06682 0.94613
vt 0.06904 0.91266
vt 0.06904 0.94935
vt 0.06936 0.66751
vt 0.06936 0.67402
vt 0.06939 0.66190
vt 0.06939 0.67963
vt 0.07125 0.91592
vt 0.07125 0.94613
vt 0.07135 0.43795
vt 0.07219 0.92192
vt 0.07219 0.94015
vt 0.07647 0.91562
vt 0.07647 0.94637
vt 0.07762 0.92189
vt 0.07762 0.94012
vt 0.08513 0.92716
vt 0.08513 0.95397
vt 0.08513 0.96992
vt 0.08701 0.66751
vt 0.08701 0.67402
vt 0.08704 0.66190
vt 0.08704 0.67963
vt 0.08900 0.43795
vt 0.08951 0.92393
vt 0.08951 0.93038
vt 0.08954 0.94942
vt 0.08954 0.95397
vt 0.08954 0.96992
vt 0.08954 0.97448
vt 0.08961 0.91266
vt 0.08961 0.94166
vt 0.09282 0.66848
vt 0.09282 0.67305
vt 0.09310 0.66309
vt 0.09310 0.67844
vt 0.09506 0.43913
vt 0.09597 0.67076
vt 0.10348 0.66029
vt 0.10495 0.92393
vt 0.10495 0.93038
vt 0.10497 0.94942
vt 0.10497 0.95397
vt 0.10497 0.96992
vt 0.10497 0.97448
vt 0.10504 0.91266
vt 0.10504 0.94166
vt 0.10568 0.65868
vt 0.10568 0.66190
vt 0.10761 0.43795
vt 0.10938 0.92716
vt 0.10939 0.95397
vt 0.10939 0.96992
vt 0.11119 0.65868
vt 0.11119 0.66190
vt 0.11227 0.21268
vt 0.11227 0.21751
vt 0.11227 0.90006
vt 0.11227 0.90490
vt 0.11312 0.43795
vt 0.11341 0.66029
vt 0.11413 0.00000
vt 0.11413 0.43019
vt 0.11413 0.68739
vt 0.11560 0.21509
vt 0.11560 0.90248
vt 0.12311 0.01086
vt 0.12311 0.32758
vt 0.12311 0.35705
vt 0.12311 0.67378
vt 0.12311 0.69581
vt 0.12311 0.99658
vt 0.12468 0.00487
vt 0.12468 0.33357
vt 0.12468 0.35106
vt 0.12468 0.67977
vt 0.12641 0.69239
vt 0.12641 0.69581
vt 0.12641 0.99658
vt 0.12641 1.00000
vt 0.12756 0.01086
vt 0.12756 0.32758
vt 0.12756 0.35705
vt 0.12756 0.67378
vt 0.12782 0.00163
vt 0.12782 0.00487
vt 0.12782 0.33357
vt 0.12782 0.33681
vt 0.12782 0.34782
vt 0.12782 0.35106
vt 0.12782 0.67977
vt 0.12782 0.68301
vt 0.13362 0.00000
vt 0.13362 0.00460
vt 0.13362 0.01086
vt 0.13362 0.32758
vt 0.13362 0.33384
vt 0.13362 0.33844
vt 0.13362 0.34620
vt 0.13362 0.35080
vt 0.13362 0.35705
vt 0.13362 0.67378
vt 0.13362 0.68003
vt 0.13362 0.68463
vt 0.41755 0.69239
vt 0.41755 0.69581
vt 0.41755 0.99658
vt 0.41755 1.00000
vt 0.42085 0.69581
vt 0.42085 0.99658
vt 0.42836 0.70037
vt 0.42836 0.78695
vt 0.42836 0.81066
vt 0.42836 0.87446
vt 0.42836 0.89818
vt 0.42836 0.92096
vt 0.42836 0.94117
vt 0.42836 0.95712
vt 0.43304 0.89822
vt 0.43304 0.92101
vt 0.43608 0.69239
vt 0.43608 0.70037
vt 0.43608 0.78695
vt 0.43608 0.79493
vt 0.43608 0.80269
vt 0.43608 0.81066
vt 0.43608 0.87446
vt 0.43608 0.88244
vt 0.43850 0.89020
vt 0.43850 0.92893
vt 0.43928 0.94128
vt 0.43928 0.95722
vt 0.44019 0.00000
vt 0.44019 0.00460
vt 0.44019 0.01086
vt 0.44019 0.32758
vt 0.44019 0.33384
vt 0.44019 0.33844
vt 0.44019 0.34620
vt 0.44019 0.35080
vt 0.44019 0.35705
vt 0.44019 0.67378
vt 0.44019 0.68003
vt 0.44019 0.68463
vt 0.44240 0.93669
vt 0.44240 0.96175
vt 0.44270 0.69239
vt 0.44270 0.70037
vt 0.44270 0.78695
vt 0.44270 0.79493
vt 0.44270 0.80269
vt 0.44270 0.81066
vt 0.44270 0.87446
vt 0.44270 0.88244
vt 0.44396 0.89822
vt 0.44396 0.92101
vt 0.44552 0.94128
vt 0.44552 0.95722
vt 0.44599 0.00163
vt 0.44599 0.00487
vt 0.44599 0.33357
vt 0.44599 0.33681
vt 0.44599 0.34782
vt 0.44599 0.35106
vt 0.44599 0.67977
vt 0.44599 0.68301
vt 0.44624 0.01086
vt 0.44624 0.32758
vt 0.44624 0.35705
vt 0.44624 0.67378
vt 0.44912 0.00487
vt 0.44912 0.33357
vt 0.44912 0.35106
vt 0.44912 0.67977
vt 0.45042 0.70037
vt 0.45042 0.78695
vt 0.45042 0.81066
vt 0.45042 0.87446
vt 0.45070 0.01086
vt 0.45070 0.32758
vt 0.45070 0.35705
vt 0.45070 0.67378
vt 0.45821 0.00228
vt 0.45821 0.31444
vt 0.45821 0.32676
vt 0.45821 0.63892
vt 0.45821 0.65238
vt 0.45821 0.95315
vt 0.46041 0.00000
vt 0.46041 0.00228
vt 0.46041 0.31444
vt 0.46041 0.31672
vt 0.46041 0.32448
vt 0.46041 0.32676
vt 0.46041 0.63892
vt 0.46041 0.64120
vt 0.46152 0.64896
vt 0.46152 0.65238
vt 0.46152 0.95315
vt 0.46152 0.95657
vt 0.75265 0.64896
vt 0.75265 0.65238
vt 0.75265 0.95315
vt 0.75265 0.95657
vt 0.75595 0.65238
vt 0.75595 0.95315
vt 0.76257 0.00000
vt 0.76257 0.00228
vt 0.76257 0.31444
vt 0.76257 0.31672
vt 0.76257 0.32448
vt 0.76257 0.32676
vt 0.76257 0.63892
vt 0.76257 0.64120
vt 0.76346 0.71798
vt 0.76346 0.81560
vt 0.76346 0.94313
vt 0.76478 0.00228
vt 0.76478 0.31444
vt 0.76478 0.32676
vt 0.76478 0.63892
vt 0.77113 0.93749
vt 0.77113 0.94877
vt 0.77153 0.89238
vt 0.77229 0.06890
vt 0.77229 0.16635
vt 0.77229 0.45811
vt 0.77229 0.53731
vt 0.77264 0.46828
vt 0.77264 0.63492
vt 0.77341 0.53739
vt 0.77377 0.46848
vt 0.77377 0.63483
vt 0.77557 0.45569
vt 0.77557 0.46052
vt 0.77744 0.24301
vt 0.78128 0.53731
vt 0.78163 0.46828
vt 0.78163 0.63492
vt 0.78240 0.53739
vt 0.78275 0.46848
vt 0.78275 0.63483
vt 0.79026 0.53731
vt 0.79062 0.46828
vt 0.79062 0.63492
vt 0.79139 0.53739
vt 0.79174 0.46848
vt 0.79174 0.63483
vt 0.79319 0.93749
vt 0.79319 0.94877
vt 0.79358 0.89238
vt 0.79925 0.53731
vt 0.79961 0.46828
vt 0.79961 0.63492
vt 0.80038 0.53739
vt 0.80073 0.46848
vt 0.80073 0.63483
vt 0.80096 0.94313
vt 0.80824 0.47626
vt 0.80824 0.55145
vt 0.80824 0.57063
vt 0.80824 0.62075
vt 0.80847 0.90036
vt 0.80847 0.92315
vt 0.80847 0.94343
vt 0.80847 0.95938
vt 0.81058 0.56719
vt 0.81058 0.62415
vt 0.81288 0.93887
vt 0.81288 0.94343
vt 0.81288 0.95938
vt 0.81288 0.96394
vt 0.81292 0.57063
vt 0.81292 0.62075
vt 0.81315 0.90041
vt 0.81315 0.92319
vt 0.81596 0.46828
vt 0.81596 0.47626
vt 0.81596 0.55145
vt 0.81596 0.55943
vt 0.81861 0.89238
vt 0.81861 0.93111
vt 0.82043 0.57177
vt 0.82043 0.58772
vt 0.82043 0.60459
vt 0.82043 0.62054
vt 0.82148 0.74281
vt 0.82148 0.79077
vt 0.82258 0.46828
vt 0.82258 0.47626
vt 0.82258 0.55145
vt 0.82258 0.55943
vt 0.82355 0.56719
vt 0.82355 0.59225
vt 0.82355 0.60001
vt 0.82355 0.62507
vt 0.82406 0.90041
vt 0.82406 0.92319
vt 0.82409 0.45569
vt 0.82409 0.46052
vt 0.82596 0.24301
vt 0.82667 0.57177
vt 0.82667 0.58772
vt 0.82667 0.60459
vt 0.82667 0.62054
vt 0.82742 0.45811
vt 0.82832 0.93887
vt 0.82832 0.94343
vt 0.82832 0.95938
vt 0.82832 0.96394
vt 0.83027 0.64896
vt 0.83027 0.88462
vt 0.83030 0.47626
vt 0.83030 0.55145
vt 0.83157 0.90036
vt 0.83157 0.92315
vt 0.83273 0.94343
vt 0.83273 0.95938
vt 0.83493 0.25099
vt 0.83493 0.32618
vt 0.83493 0.34989
vt 0.83493 0.42508
vt 0.83493 0.44311
vt 0.83493 0.44881
vt 0.83625 0.90041
vt 0.83625 0.92319
vt 0.83649 0.44082
vt 0.83649 0.45107
vt 0.83781 0.47626
vt 0.83781 0.54006
vt 0.83781 0.56627
vt 0.83805 0.44311
vt 0.83805 0.44881
vt 0.83898 0.00000
vt 0.83898 0.23525
vt 0.84024 0.94343
vt 0.84024 0.95938
vt 0.84171 0.89238
vt 0.84171 0.93111
vt 0.84265 0.24301
vt 0.84265 0.25099
vt 0.84265 0.32618
vt 0.84265 0.33416
vt 0.84265 0.34192
vt 0.84265 0.34989
vt 0.84265 0.42508
vt 0.84265 0.43306
vt 0.84465 0.93887
vt 0.84465 0.94343
vt 0.84465 0.95938
vt 0.84465 0.96394
vt 0.84548 0.56063
vt 0.84548 0.57190
vt 0.84552 0.55579
vt 0.84553 0.46828
vt 0.84553 0.47626
vt 0.84553 0.54006
vt 0.84553 0.54803
vt 0.84601 0.63313
vt 0.84717 0.90041
vt 0.84717 0.92319
vt 0.84927 0.24301
vt 0.84927 0.25099
vt 0.84927 0.32618
vt 0.84927 0.33416
vt 0.84927 0.34192
vt 0.84927 0.34989
vt 0.84927 0.42508
vt 0.84927 0.43306
vt 0.85214 0.46828
vt 0.85214 0.47626
vt 0.85214 0.54006
vt 0.85214 0.54803
vt 0.85431 0.70890
vt 0.85431 0.82468
vt 0.85468 0.90036
vt 0.85468 0.92315
vt 0.85699 0.25099
vt 0.85699 0.32618
vt 0.85699 0.34989
vt 0.85699 0.42508
vt 0.85936 0.90041
vt 0.85936 0.92319
vt 0.85986 0.47626
vt 0.85986 0.54006
vt 0.86009 0.93887
vt 0.86009 0.94343
vt 0.86009 0.95938
vt 0.86009 0.96394
vt 0.86450 0.25349
vt 0.86450 0.37886
vt 0.86450 0.44785
vt 0.86450 0.94343
vt 0.86450 0.95938
vt 0.86482 0.89238
vt 0.86482 0.93111
vt 0.86737 0.52709
vt 0.86753 0.56063
vt 0.86753 0.57190
vt 0.86757 0.55579
vt 0.86807 0.63313
vt 0.87028 0.90041
vt 0.87028 0.92319
vt 0.87201 0.94343
vt 0.87201 0.95938
vt 0.87217 0.24785
vt 0.87217 0.25912
vt 0.87217 0.37322
vt 0.87217 0.38450
vt 0.87217 0.44221
vt 0.87217 0.45349
vt 0.87221 0.24301
vt 0.87221 0.38933
vt 0.87221 0.45832
vt 0.87256 0.39709
vt 0.87264 0.31229
vt 0.87264 0.32005
vt 0.87504 0.52145
vt 0.87504 0.53273
vt 0.87530 0.56627
vt 0.87551 0.46828
vt 0.87642 0.93887
vt 0.87642 0.94343
vt 0.87642 0.95938
vt 0.87642 0.96394
vt 0.87779 0.90041
vt 0.87779 0.92319
vt 0.88281 0.61460
vt 0.88324 0.89238
vt 0.88324 0.93111
vt 0.88870 0.90041
vt 0.88870 0.92319
vt 0.89048 0.60896
vt 0.89048 0.62024
vt 0.89095 0.55579
vt 0.89186 0.93887
vt 0.89186 0.94343
vt 0.89186 0.95938
vt 0.89186 0.96394
vt 0.89422 0.24785
vt 0.89422 0.25912
vt 0.89422 0.37322
vt 0.89422 0.38450
vt 0.89422 0.44221
vt 0.89422 0.45349
vt 0.89426 0.24301
vt 0.89426 0.38933
vt 0.89426 0.45832
vt 0.89462 0.39709
vt 0.89469 0.31229
vt 0.89469 0.32005
vt 0.89621 0.90041
vt 0.89621 0.92319
vt 0.89627 0.94343
vt 0.89627 0.95938
vt 0.89710 0.52145
vt 0.89710 0.53273
vt 0.89756 0.46828
vt 0.90073 0.70890
vt 0.90073 0.82468
vt 0.90167 0.89238
vt 0.90167 0.93111
vt 0.90199 0.25349
vt 0.90199 0.37886
vt 0.90199 0.44785
vt 0.90378 0.94343
vt 0.90378 0.95938
vt 0.90487 0.52709
vt 0.90713 0.90041
vt 0.90713 0.92319
vt 0.90819 0.93887
vt 0.90819 0.94343
vt 0.90819 0.95938
vt 0.90819 0.96394
vt 0.90950 0.25104
vt 0.90950 0.27382
vt 0.90950 0.29753
vt 0.90950 0.32032
vt 0.90950 0.35050
vt 0.90950 0.38726
vt 0.90950 0.42402
vt 0.91238 0.47284
vt 0.91238 0.48879
vt 0.91238 0.50566
vt 0.91238 0.52161
vt 0.91253 0.60896
vt 0.91253 0.62024
vt 0.91300 0.55579
vt 0.91388 0.34728
vt 0.91388 0.35372
vt 0.91388 0.38404
vt 0.91388 0.39048
vt 0.91388 0.42080
vt 0.91388 0.42724
vt 0.91398 0.33600
vt 0.91398 0.36500
vt 0.91398 0.37276
vt 0.91398 0.40176
vt 0.91398 0.40952
vt 0.91398 0.43852
vt 0.91464 0.89694
vt 0.91464 0.91289
vt 0.91496 0.24301
vt 0.91496 0.28175
vt 0.91496 0.28951
vt 0.91496 0.32824
vt 0.91679 0.46828
vt 0.91679 0.47284
vt 0.91679 0.48879
vt 0.91679 0.49335
vt 0.91679 0.50111
vt 0.91679 0.50566
vt 0.91679 0.52161
vt 0.91679 0.52617
vt 0.91905 0.89238
vt 0.91905 0.89694
vt 0.91905 0.91289
vt 0.91905 0.91744
vt 0.92030 0.61460
vt 0.92042 0.25104
vt 0.92042 0.27382
vt 0.92042 0.29753
vt 0.92042 0.32032
vt 0.92363 0.93887
vt 0.92363 0.94343
vt 0.92363 0.95938
vt 0.92363 0.96394
vt 0.92476 0.64896
vt 0.92476 0.88462
vt 0.92781 0.56028
vt 0.92781 0.57623
vt 0.92781 0.59310
vt 0.92781 0.60905
vt 0.92804 0.94343
vt 0.92804 0.95938
vt 0.92932 0.34728
vt 0.92932 0.35372
vt 0.92932 0.38404
vt 0.92932 0.39048
vt 0.92932 0.42080
vt 0.92932 0.42724
vt 0.92942 0.33600
vt 0.92942 0.36500
vt 0.92942 0.37276
vt 0.92942 0.40176
vt 0.92942 0.40952
vt 0.92942 0.43852
vt 0.93223 0.46828
vt 0.93223 0.47284
vt 0.93223 0.48879
vt 0.93223 0.49335
vt 0.93223 0.50111
vt 0.93223 0.50566
vt 0.93223 0.52161
vt 0.93223 0.52617
vt 0.93330 0.00000
vt 0.93330 0.23525
vt 0.93355 0.74281
vt 0.93355 0.79077
vt 0.93376 0.35050
vt 0.93376 0.38726
vt 0.93376 0.42402
vt 0.93449 0.89238
vt 0.93449 0.89694
vt 0.93449 0.91289
vt 0.93449 0.91744
vt 0.93664 0.47284
vt 0.93664 0.48879
vt 0.93664 0.50566
vt 0.93664 0.52161
vt 0.93873 0.56038
vt 0.93873 0.57633
vt 0.93873 0.59320
vt 0.93873 0.60915
vt 0.93890 0.89694
vt 0.93890 0.91289
vt 0.94185 0.55579
vt 0.94185 0.58086
vt 0.94185 0.58861
vt 0.94185 0.61368
vt 0.94497 0.56038
vt 0.94497 0.57633
vt 0.94497 0.59320
vt 0.94497 0.60915
vt 0.99157 0.71798
vt 0.99157 0.81560
vt 1.00000 0.06890
vt 1.00000 0.16635
s 0
usemtl Platformer_grass
f 1/273/62 28/312/62 25/313/62
f 1/273/62 5/272/62 28/312/62
f 10/159/10 11/177/10 3/179/10
f 10/159/153 12/161/153 11/177/153
f 10/21/64 26/35/64 32/9/64
f 10/21/64 3/39/64 26/35/64
f 100/72/100 101/96/100 102/73/100
f 100/72/66 102/73/66 99/25/66
f 100/72/66 99/25/66 98/24/66
f 101/295/96 100/284/96 113/283/96
f 101/295/96 113/283/96 112/294/96
f 102/572/4 104/524/4 99/526/4
f 102/572/4 108/570/4 104/524/4
f 103/47/75 105/56/75 116/57/75
f 103/47/75 116/57/75 115/48/75
f 103/503/101 104/524/101 105/525/101
f 105/525/72 104/524/72 108/570/72
f 105/525/72 108/570/72 107/571/72
f 106/321/3 101/295/3 112/294/3
f 106/321/3 112/294/3 118/320/3
f 106/321/69 102/296/69 101/295/69
f 106/321/69 108/322/69 102/296/69
f 106/592/102 107/571/102 108/570/102
f 107/571/5 116/531/5 105/525/5
f 107/571/5 120/573/5 116/531/5
f 109/28/93 111/4/93 98/3/93
f 109/28/93 98/3/93 97/27/93
f 109/568/103 110/555/103 111/575/103
f 11/177/9 12/161/9 9/160/9
f 11/177/9 9/160/9 7/176/9
f 111/575/90 110/555/90 114/554/90
f 111/575/90 114/554/90 113/574/90
f 112/294/87 114/293/87 119/319/87
f 112/294/87 119/319/87 118/320/87
f 112/567/104 113/574/104 114/554/104
f 113/74/1 100/72/1 98/24/1
f 113/74/1 98/24/1 111/30/1
f 115/48/84 110/29/84 109/28/84
f 115/48/84 117/49/84 110/29/84
f 115/48/98 109/28/98 97/27/98
f 115/48/98 97/27/98 103/47/98
f 115/676/105 116/648/105 117/693/105
f 117/693/81 116/648/81 120/647/81
f 117/693/81 120/647/81 119/692/81
f 118/320/78 107/348/78 106/321/78
f 118/320/78 120/347/78 107/348/78
f 118/675/106 119/692/106 120/647/106
f 119/548/2 110/555/2 117/549/2
f 119/548/2 114/554/2 110/555/2
f 121/302/107 122/292/107 123/328/107
f 121/539/63 123/552/63 128/553/63
f 121/539/63 128/553/63 127/540/63
f 124/291/108 125/301/108 126/327/108
f 124/291/66 123/328/66 122/292/66
f 124/291/66 126/327/66 123/328/66
f 125/513/96 124/512/96 137/534/96
f 125/513/96 137/534/96 136/535/96
f 126/623/4 128/580/4 123/589/4
f 126/623/4 132/614/4 128/580/4
f 127/540/75 129/541/75 140/519/75
f 127/540/75 140/519/75 139/518/75
f 127/563/109 128/580/109 129/581/109
f 129/581/72 128/580/72 132/614/72
f 129/581/72 132/614/72 131/615/72
f 13/194/65 17/192/65 7/176/65
f 13/194/65 7/176/65 2/178/65
f 130/514/3 125/513/3 136/535/3
f 130/514/3 136/535/3 142/536/3
f 130/514/69 126/491/69 125/513/69
f 130/514/69 132/492/69 126/491/69
f 130/636/110 131/615/110 132/614/110
f 131/615/5 140/585/5 129/581/5
f 131/615/5 144/619/5 140/585/5
f 133/517/93 122/538/93 121/539/93
f 133/517/93 135/516/93 122/538/93
f 133/600/111 134/605/111 135/606/111
f 135/606/90 134/605/90 138/658/90
f 135/606/90 138/658/90 137/659/90
f 136/535/87 138/550/87 143/551/87
f 136/535/87 143/551/87 142/536/87
f 136/691/112 137/659/112 138/658/112
f 137/287/1 122/292/1 135/288/1
f 137/287/1 124/291/1 122/292/1
f 139/518/84 134/493/84 133/517/84
f 139/518/84 141/494/84 134/493/84
f 139/518/98 121/539/98 127/540/98
f 139/518/98 133/517/98 121/539/98
f 139/602/113 140/599/113 141/604/113
f 14/268/95 20/254/95 64/253/95
f 14/268/95 64/253/95 61/267/95
f 141/604/81 140/599/81 144/598/81
f 141/604/81 144/598/81 143/603/81
f 142/536/78 131/515/78 130/514/78
f 142/536/78 144/537/78 131/515/78
f 142/601/114 143/603/114 144/598/114
f 143/660/2 134/605/2 141/607/2
f 143/660/2 138/658/2 134/605/2
f 145/450/63 147/449/63 152/461/63
f 145/450/63 152/461/63 151/462/63
f 145/569/107 146/590/107 147/591/107
f 148/628/115 149/640/115 150/629/115
f 148/628/66 147/591/66 146/590/66
f 148/628/66 150/629/66 147/591/66
f 149/94/96 148/71/96 161/70/96
f 149/94/96 161/70/96 160/93/96
f 15/67/4 26/35/4 3/39/4
f 15/67/4 39/63/4 26/35/4
f 150/618/4 152/578/4 147/584/4
f 150/618/4 156/612/4 152/578/4
f 151/462/75 153/485/75 164/486/75
f 151/462/75 164/486/75 163/463/75
f 151/562/101 152/578/101 153/579/101
f 153/579/72 152/578/72 156/612/72
f 153/579/72 156/612/72 155/613/72
f 154/107/3 149/94/3 160/93/3
f 154/107/3 160/93/3 166/106/3
f 154/107/69 150/95/69 149/94/69
f 154/107/69 156/108/69 150/95/69
f 154/635/116 155/613/116 156/612/116
f 155/613/5 164/588/5 153/579/5
f 155/613/5 168/622/5 164/588/5
f 157/451/93 146/431/93 145/450/93
f 157/451/93 159/432/93 146/431/93
f 157/454/117 158/448/117 159/470/117
f 159/470/90 158/448/90 162/447/90
f 159/470/90 162/447/90 161/469/90
f 16/207/13 17/192/13 13/194/13
f 16/207/154 18/205/154 17/192/154
f 16/207/97 13/194/97 62/196/97
f 16/207/97 62/196/97 68/209/97
f 160/453/104 161/469/104 162/447/104
f 160/93/87 162/92/87 167/105/87
f 160/93/87 167/105/87 166/106/87
f 161/630/1 146/590/1 159/593/1
f 161/630/1 148/628/1 146/590/1
f 163/463/84 158/452/84 157/451/84
f 163/463/84 165/464/84 158/452/84
f 163/463/98 145/450/98 151/462/98
f 163/463/98 157/451/98 145/450/98
f 163/678/118 164/650/118 165/695/118
f 165/695/81 164/650/81 168/649/81
f 165/695/81 168/649/81 167/694/81
f 166/106/78 155/141/78 154/107/78
f 166/106/78 168/140/78 155/141/78
f 166/677/106 167/694/106 168/649/106
f 167/435/2 158/448/2 165/436/2
f 167/435/2 162/447/2 158/448/2
f 169/511/107 170/498/107 171/533/107
f 169/543/63 171/556/63 176/557/63
f 169/543/63 176/557/63 175/544/63
f 17/192/18 18/205/18 24/206/18
f 17/192/18 24/206/18 22/193/18
f 17/192/66 11/177/66 7/176/66
f 17/192/66 22/193/66 11/177/66
f 172/497/115 173/510/115 174/532/115
f 172/497/66 171/533/66 170/498/66
f 172/497/66 174/532/66 171/533/66
f 173/298/96 172/297/96 185/323/96
f 173/298/96 185/323/96 184/324/96
f 174/621/4 176/582/4 171/587/4
f 174/621/4 180/616/4 176/582/4
f 175/544/75 177/545/75 188/530/75
f 175/544/75 188/530/75 187/529/75
f 175/564/109 176/582/109 177/583/109
f 177/583/72 176/582/72 180/616/72
f 177/583/72 180/616/72 179/617/72
f 178/299/3 173/298/3 184/324/3
f 178/299/3 184/324/3 190/325/3
f 178/299/69 174/285/69 173/298/69
f 178/299/69 180/286/69 174/285/69
f 178/637/119 179/617/119 180/616/119
f 179/617/5 188/586/5 177/583/5
f 179/617/5 192/620/5 188/586/5
f 18/205/19 21/210/19 24/206/19
f 181/389/111 182/394/111 183/395/111
f 181/528/93 170/542/93 169/543/93
f 181/528/93 183/527/93 170/542/93
f 183/395/90 182/394/90 186/421/90
f 183/395/90 186/421/90 185/422/90
f 184/324/87 186/349/87 191/350/87
f 184/324/87 191/350/87 190/325/87
f 184/430/120 185/422/120 186/421/120
f 185/487/1 170/498/1 183/488/1
f 185/487/1 172/497/1 170/498/1
f 187/529/84 182/501/84 181/528/84
f 187/529/84 189/502/84 182/501/84
f 187/529/98 169/543/98 175/544/98
f 187/529/98 181/528/98 169/543/98
f 187/634/113 188/625/113 189/642/113
f 189/642/81 188/625/81 192/624/81
f 189/642/81 192/624/81 191/641/81
f 19/269/15 20/254/15 14/268/15
f 19/269/155 21/259/155 20/254/155
f 19/269/16 23/270/16 24/260/16
f 19/269/16 24/260/16 21/259/16
f 190/325/78 179/300/78 178/299/78
f 190/325/78 192/326/78 179/300/78
f 190/633/121 191/641/121 192/624/121
f 191/423/2 182/394/2 189/396/2
f 191/423/2 186/421/2 182/394/2
f 20/254/14 18/246/14 16/240/14
f 20/254/14 21/259/14 18/246/14
f 20/254/96 16/240/96 68/239/96
f 20/254/96 68/239/96 64/253/96
f 22/193/156 24/206/156 23/208/156
f 22/193/17 23/208/17 15/195/17
f 22/193/67 15/195/67 3/179/67
f 22/193/67 3/179/67 11/177/67
f 25/313/74 29/341/74 76/342/74
f 25/313/74 76/342/74 73/314/74
f 27/36/71 35/32/71 43/60/71
f 27/36/71 43/60/71 38/64/71
f 28/312/157 30/336/157 29/341/157
f 28/312/20 29/341/20 25/313/20
f 28/312/21 32/311/21 33/335/21
f 28/312/21 33/335/21 30/336/21
f 29/341/25 30/336/25 36/345/25
f 29/341/25 36/345/25 34/353/25
f 29/341/75 34/353/75 80/354/75
f 29/341/75 80/354/75 76/342/75
f 30/1/26 33/13/26 36/14/26
f 31/31/158 33/13/158 32/9/158
f 31/31/22 32/9/22 26/35/22
f 31/31/73 26/35/73 39/63/73
f 31/31/73 39/63/73 47/59/73
f 34/10/159 36/14/159 35/32/159
f 34/10/24 35/32/24 27/36/24
f 34/10/76 27/36/76 74/40/76
f 34/10/76 74/40/76 80/22/76
f 35/32/23 33/13/23 31/31/23
f 35/32/23 36/14/23 33/13/23
f 35/32/72 31/31/72 47/59/72
f 35/32/72 47/59/72 43/60/72
f 37/308/3 14/268/3 61/267/3
f 37/308/3 61/267/3 85/307/3
f 37/308/68 19/269/68 14/268/68
f 37/308/68 41/309/68 19/269/68
f 38/64/5 74/40/5 27/36/5
f 38/64/5 87/68/5 74/40/5
f 4/255/151 6/262/151 5/272/151
f 4/255/6 5/272/6 1/273/6
f 4/255/7 8/241/7 9/247/7
f 4/255/7 9/247/7 6/262/7
f 40/340/160 42/333/160 41/309/160
f 40/340/27 41/309/27 37/308/27
f 40/340/28 44/352/28 45/344/28
f 40/340/28 45/344/28 42/333/28
f 41/309/32 42/333/32 48/334/32
f 41/309/32 48/334/32 46/310/32
f 41/309/69 23/270/69 19/269/69
f 41/309/69 46/310/69 23/270/69
f 42/90/33 45/80/33 48/79/33
f 43/60/161 45/80/161 44/84/161
f 43/60/29 44/84/29 38/64/29
f 46/83/162 48/79/162 47/59/162
f 46/83/31 47/59/31 39/63/31
f 46/83/70 15/67/70 23/87/70
f 46/83/70 39/63/70 15/67/70
f 47/59/30 45/80/30 43/60/30
f 47/59/30 48/79/30 45/80/30
f 49/274/92 4/255/92 1/273/92
f 49/274/92 53/256/92 4/255/92
f 5/272/11 12/261/11 10/271/11
f 5/272/11 6/262/11 12/261/11
f 5/272/63 10/271/63 32/311/63
f 5/272/63 32/311/63 28/312/63
f 51/38/89 59/34/89 67/62/89
f 51/38/89 67/62/89 62/66/89
f 52/275/163 54/263/163 53/256/163
f 52/275/34 53/256/34 49/274/34
f 52/275/35 56/276/35 57/264/35
f 52/275/35 57/264/35 54/263/35
f 53/256/39 54/263/39 60/248/39
f 53/256/39 60/248/39 58/242/39
f 53/256/93 58/242/93 8/241/93
f 53/256/93 8/241/93 4/255/93
f 54/2/40 57/15/40 60/16/40
f 55/33/164 57/15/164 56/11/164
f 55/33/36 56/11/36 50/37/36
f 55/33/91 50/37/91 63/65/91
f 55/33/91 63/65/91 71/61/91
f 58/12/165 60/16/165 59/34/165
f 58/12/38 59/34/38 51/38/38
f 58/166/94 2/178/94 8/158/94
f 58/166/94 51/182/94 2/178/94
f 59/34/37 57/15/37 55/33/37
f 59/34/37 60/16/37 57/15/37
f 59/34/90 55/33/90 71/61/90
f 59/34/90 71/61/90 67/62/90
f 6/152/12 9/160/12 12/161/12
f 61/267/86 65/266/86 88/306/86
f 61/267/86 88/306/86 85/307/86
f 62/196/1 13/194/1 2/178/1
f 62/196/1 2/178/1 51/182/1
f 64/253/166 66/258/166 65/266/166
f 64/253/41 65/266/41 61/267/41
f 64/253/42 68/239/42 69/245/42
f 64/253/42 69/245/42 66/258/42
f 65/266/46 66/258/46 72/257/46
f 65/266/46 72/257/46 70/265/46
f 65/266/87 70/265/87 92/305/87
f 65/266/87 92/305/87 88/306/87
f 66/91/47 69/82/47 72/81/47
f 67/62/167 69/82/167 68/86/167
f 67/62/43 68/86/43 62/66/43
f 7/176/152 9/160/152 8/158/152
f 7/176/8 8/158/8 2/178/8
f 70/85/168 72/81/168 71/61/168
f 70/85/45 71/61/45 63/65/45
f 70/85/88 63/65/88 86/69/88
f 70/85/88 86/69/88 92/89/88
f 71/61/44 69/82/44 67/62/44
f 71/61/44 72/81/44 69/82/44
f 73/314/83 52/275/83 49/274/83
f 73/314/83 77/315/83 52/275/83
f 73/314/98 1/273/98 25/313/98
f 73/314/98 49/274/98 1/273/98
f 75/188/80 83/184/80 91/183/80
f 75/188/80 91/183/80 86/187/80
f 76/342/169 78/337/169 77/315/169
f 76/342/48 77/315/48 73/314/48
f 76/342/49 80/354/49 81/346/49
f 76/342/49 81/346/49 78/337/49
f 77/315/53 78/337/53 84/338/53
f 77/315/53 84/338/53 82/316/53
f 77/315/84 56/276/84 52/275/84
f 77/315/84 82/316/84 56/276/84
f 78/175/54 81/173/54 84/181/54
f 79/171/170 81/173/170 80/157/170
f 79/171/50 80/157/50 74/155/50
f 79/171/82 74/155/82 87/154/82
f 79/171/82 87/154/82 95/170/82
f 82/186/171 84/181/171 83/184/171
f 82/186/52 83/184/52 75/188/52
f 82/23/85 50/37/85 56/11/85
f 82/23/85 75/41/85 50/37/85
f 83/184/51 81/173/51 79/171/51
f 83/184/51 84/181/51 81/173/51
f 83/184/81 79/171/81 95/170/81
f 83/184/81 95/170/81 91/183/81
f 85/307/77 40/340/77 37/308/77
f 85/307/77 89/339/77 40/340/77
f 86/69/2 50/37/2 75/41/2
f 86/69/2 63/65/2 50/37/2
f 88/306/172 90/332/172 89/339/172
f 88/306/55 89/339/55 85/307/55
f 88/306/56 92/305/56 93/331/56
f 88/306/56 93/331/56 90/332/56
f 89/339/60 90/332/60 96/343/60
f 89/339/60 96/343/60 94/351/60
f 89/339/78 44/352/78 40/340/78
f 89/339/78 94/351/78 44/352/78
f 90/174/61 93/180/61 96/172/61
f 91/183/173 93/180/173 92/185/173
f 91/183/57 92/185/57 86/187/57
f 94/156/174 96/172/174 95/170/174
f 94/156/59 95/170/59 87/154/59
f 94/88/79 38/64/79 44/84/79
f 94/88/79 87/68/79 38/64/79
f 95/170/58 93/180/58 91/183/58
f 95/170/58 96/172/58 93/180/58
f 97/27/63 104/46/63 103/47/63
f 97/27/63 99/26/63 104/46/63
f 97/5/99 98/24/99 99/25/99
usemtl Platformer_brick
f 193/250/63 195/249/63 200/277/63
f 193/250/63 200/277/63 199/278/63
f 193/399/107 194/406/107 195/407/107
f 196/471/115 197/478/115 198/472/115
f 196/471/66 195/407/66 194/406/66
f 196/471/66 198/472/66 195/407/66
f 197/371/96 196/360/96 209/359/96
f 197/371/96 209/359/96 208/370/96
f 198/234/4 200/162/4 195/167/4
f 198/234/4 204/228/4 200/162/4
f 199/151/109 200/162/109 201/163/109
f 199/278/75 201/281/75 212/282/75
f 199/278/75 212/282/75 211/279/75
f 201/163/72 200/162/72 204/228/72
f 201/163/72 204/228/72 203/229/72
f 202/237/110 203/229/110 204/228/110
f 202/375/3 197/371/3 208/370/3
f 202/375/3 208/370/3 214/374/3
f 202/375/69 198/372/69 197/371/69
f 202/375/69 204/376/69 198/372/69
f 203/229/5 212/168/5 201/163/5
f 203/229/5 216/235/5 212/168/5
f 205/153/111 206/164/111 207/165/111
f 205/251/93 194/243/93 193/250/93
f 205/251/93 207/244/93 194/243/93
f 207/165/90 206/164/90 210/230/90
f 207/165/90 210/230/90 209/231/90
f 208/238/120 209/231/120 210/230/120
f 208/370/87 210/369/87 215/373/87
f 208/370/87 215/373/87 214/374/87
f 209/473/1 194/406/1 207/408/1
f 209/473/1 196/471/1 194/406/1
f 211/279/84 206/252/84 205/251/84
f 211/279/84 213/280/84 206/252/84
f 211/279/98 193/250/98 199/278/98
f 211/279/98 205/251/98 193/250/98
f 211/440/113 212/434/113 213/446/113
f 213/446/81 212/434/81 216/433/81
f 213/446/81 216/433/81 215/445/81
f 214/374/78 203/378/78 202/375/78
f 214/374/78 216/377/78 203/378/78
f 214/439/114 215/445/114 216/433/114
f 215/236/2 206/164/2 213/169/2
f 215/236/2 210/230/2 206/164/2
usemtl Platformer_brick_glazed
f 217/211/12 218/220/12 219/221/12
f 217/366/63 219/365/63 224/383/63
f 217/366/63 224/383/63 223/384/63
f 220/226/19 221/233/19 222/227/19
f 220/226/66 219/221/66 218/220/66
f 220/226/66 222/227/66 219/221/66
f 221/363/96 220/356/96 233/355/96
f 221/363/96 233/355/96 232/362/96
f 222/146/4 224/109/4 219/123/4
f 222/146/4 228/136/4 224/109/4
f 223/101/26 224/109/26 225/110/26
f 223/384/75 225/392/75 236/393/75
f 223/384/75 236/393/75 235/385/75
f 225/110/72 224/109/72 228/136/72
f 225/110/72 228/136/72 227/137/72
f 226/149/33 227/137/33 228/136/33
f 226/381/3 221/363/3 232/362/3
f 226/381/3 232/362/3 238/380/3
f 226/381/69 222/364/69 221/363/69
f 226/381/69 228/382/69 222/364/69
f 227/137/5 236/124/5 225/110/5
f 227/137/5 240/147/5 236/124/5
f 229/102/40 230/111/40 231/112/40
f 229/367/93 218/357/93 217/366/93
f 229/367/93 231/358/93 218/357/93
f 231/112/90 230/111/90 234/138/90
f 231/112/90 234/138/90 233/139/90
f 232/150/47 233/139/47 234/138/47
f 232/362/87 234/361/87 239/379/87
f 232/362/87 239/379/87 238/380/87
f 233/232/1 218/220/1 231/222/1
f 233/232/1 220/226/1 218/220/1
f 235/385/84 230/368/84 229/367/84
f 235/385/84 237/386/84 230/368/84
f 235/385/98 217/366/98 223/384/98
f 235/385/98 229/367/98 217/366/98
f 235/500/54 236/496/54 237/505/54
f 237/505/81 236/496/81 240/495/81
f 237/505/81 240/495/81 239/504/81
f 238/380/78 227/391/78 226/381/78
f 238/380/78 240/390/78 227/391/78
f 238/499/61 239/504/61 240/495/61
f 239/148/2 230/111/2 237/125/2
f 239/148/2 234/138/2 230/111/2
f 242/632/98 243/547/98 244/460/98
f 244/460/98 245/459/98 246/546/98
f 244/460/98 246/546/98 248/730/98
f 246/546/98 247/631/98 248/730/98
f 248/730/98 241/731/98 242/632/98
f 248/730/98 242/632/98 244/460/98
f 249/729/3 263/507/3 261/398/3
f 250/410/130 249/413/130 251/412/130
f 250/410/130 251/412/130 252/409/130
f 250/758/128 242/632/128 241/731/128
f 250/758/128 252/701/128 242/632/128
f 252/409/131 251/412/131 253/414/131
f 252/409/131 253/414/131 254/411/131
f 252/701/129 243/547/129 242/632/129
f 252/701/129 254/484/129 243/547/129
f 253/759/3 249/729/3 261/398/3
f 253/759/3 251/760/3 249/729/3
f 254/416/132 255/418/132 256/415/132
f 254/416/175 253/419/175 255/418/175
f 254/484/123 244/460/123 243/547/123
f 254/484/123 256/388/123 244/460/123
f 256/388/124 245/459/124 244/460/124
f 256/388/124 258/387/124 245/459/124
f 256/415/133 255/418/133 257/420/133
f 256/415/133 257/420/133 258/417/133
f 257/506/3 255/728/3 253/759/3
f 258/387/125 246/546/125 245/459/125
f 258/387/125 260/483/125 246/546/125
f 258/401/134 257/404/134 259/403/134
f 258/401/134 259/403/134 260/400/134
f 260/400/135 259/403/135 261/405/135
f 260/400/135 261/405/135 262/402/135
f 260/483/126 247/631/126 246/546/126
f 260/483/126 262/700/126 247/631/126
f 261/398/3 257/506/3 253/759/3
f 261/398/3 259/397/3 257/506/3
f 262/425/136 263/427/136 264/424/136
f 262/425/176 261/428/176 263/427/176
f 262/700/127 248/730/127 247/631/127
f 262/700/127 264/757/127 248/730/127
f 264/424/137 249/429/137 250/426/137
f 264/424/137 263/427/137 249/429/137
f 264/757/122 241/731/122 248/730/122
f 264/757/122 250/758/122 241/731/122
usemtl Platformer_gold
f 265/45/138 266/43/138 267/51/138
f 265/521/93 267/520/93 272/558/93
f 265/521/93 272/558/93 271/559/93
f 268/42/139 269/44/139 270/50/139
f 268/42/90 267/51/90 266/43/90
f 268/42/90 270/50/90 267/51/90
f 269/480/87 268/489/87 281/490/87
f 269/480/87 281/490/87 280/481/87
f 270/704/1 272/746/1 267/705/1
f 270/704/1 276/745/1 272/746/1
f 271/559/63 273/565/63 284/566/63
f 271/559/63 284/566/63 283/560/63
f 271/752/107 272/746/107 273/756/107
f 273/756/66 272/746/66 276/745/66
f 273/756/66 276/745/66 275/755/66
f 274/442/3 269/480/3 280/481/3
f 274/442/3 280/481/3 286/443/3
f 274/442/96 270/479/96 269/480/96
f 274/442/96 276/441/96 270/479/96
f 274/751/140 275/755/140 276/745/140
f 275/714/4 284/661/4 273/667/4
f 275/714/4 288/708/4 284/661/4
f 277/122/141 278/104/141 279/135/141
f 277/522/84 266/508/84 265/521/84
f 277/522/84 279/509/84 266/508/84
f 279/135/81 278/104/81 282/103/81
f 279/135/81 282/103/81 281/134/81
f 280/121/142 281/134/142 282/103/142
f 280/481/78 282/482/78 287/444/78
f 280/481/78 287/444/78 286/443/78
f 281/7/2 266/43/2 279/8/2
f 281/7/2 268/42/2 266/43/2
f 283/560/75 278/523/75 277/522/75
f 283/560/75 285/561/75 278/523/75
f 283/560/98 265/521/98 271/559/98
f 283/560/98 277/522/98 265/521/98
f 283/651/143 284/661/143 285/662/143
f 285/662/72 284/661/72 288/708/72
f 285/662/72 288/708/72 287/709/72
f 286/443/69 275/437/69 274/442/69
f 286/443/69 288/438/69 275/437/69
f 286/732/144 287/709/144 288/708/144
f 287/709/5 278/668/5 285/662/5
f 287/709/5 282/715/5 278/668/5
f 289/644/63 291/643/63 296/696/63
f 289/644/63 296/696/63 295/697/63
f 289/750/145 290/744/145 291/754/145
f 292/743/108 293/749/108 294/753/108
f 292/743/66 291/754/66 290/744/66
f 292/743/66 294/753/66 291/754/66
f 293/596/96 292/577/96 305/576/96
f 293/596/96 305/576/96 304/595/96
f 294/218/4 296/197/4 291/203/4
f 294/218/4 300/212/4 296/197/4
f 295/189/143 296/197/143 297/198/143
f 295/697/75 297/706/75 308/707/75
f 295/697/75 308/707/75 307/698/75
f 297/198/72 296/197/72 300/212/72
f 297/198/72 300/212/72 299/213/72
f 298/223/119 299/213/119 300/212/119
f 298/610/3 293/596/3 304/595/3
f 298/610/3 304/595/3 310/609/3
f 298/610/69 294/597/69 293/596/69
f 298/610/69 300/611/69 294/597/69
f 299/213/5 308/204/5 297/198/5
f 299/213/5 312/219/5 308/204/5
f 301/318/117 302/304/117 303/330/117
f 301/645/93 290/638/93 289/644/93
f 301/645/93 303/639/93 290/638/93
f 303/330/90 302/304/90 306/303/90
f 303/330/90 306/303/90 305/329/90
f 304/317/104 305/329/104 306/303/104
f 304/595/87 306/594/87 311/608/87
f 304/595/87 311/608/87 310/609/87
f 305/702/1 290/744/1 303/703/1
f 305/702/1 292/743/1 290/744/1
f 307/127/118 308/114/118 309/143/118
f 307/698/84 302/646/84 301/645/84
f 307/698/84 309/699/84 302/646/84
f 307/698/98 289/644/98 295/697/98
f 307/698/98 301/645/98 289/644/98
f 309/143/81 308/114/81 312/113/81
f 309/143/81 312/113/81 311/142/81
f 310/126/106 311/142/106 312/113/106
f 310/609/78 299/627/78 298/610/78
f 310/609/78 312/626/78 299/627/78
f 311/289/2 302/304/2 309/290/2
f 311/289/2 306/303/2 302/304/2
f 313/652/109 314/663/109 315/664/109
f 313/726/75 315/727/75 320/686/75
f 313/726/75 320/686/75 319/685/75
f 316/710/146 317/733/146 318/711/146
f 316/710/72 315/664/72 314/663/72
f 316/710/72 318/711/72 315/664/72
f 317/681/69 316/655/69 329/654/69
f 317/681/69 329/654/69 328/680/69
f 318/711/5 320/670/5 315/664/5
f 318/711/5 324/717/5 320/670/5
f 319/468/141 320/458/141 321/477/141
f 319/685/84 321/657/84 332/656/84
f 319/685/84 332/656/84 331/684/84
f 321/477/81 320/458/81 324/457/81
f 321/477/81 324/457/81 323/476/81
f 322/467/142 323/476/142 324/457/142
f 322/722/3 317/681/3 328/680/3
f 322/722/3 328/680/3 334/721/3
f 322/722/78 318/682/78 317/681/78
f 322/722/78 324/723/78 318/682/78
f 323/75/2 332/98/2 321/76/2
f 323/75/2 336/97/2 332/98/2
f 325/120/145 326/100/145 327/133/145
f 325/725/63 314/742/63 313/726/63
f 325/725/63 327/741/63 314/742/63
f 327/133/66 326/100/66 330/99/66
f 327/133/66 330/99/66 329/132/66
f 328/119/147 329/132/147 330/99/147
f 328/680/96 330/679/96 335/720/96
f 328/680/96 335/720/96 334/721/96
f 329/716/4 314/663/4 327/669/4
f 329/716/4 316/710/4 314/663/4
f 331/118/138 332/98/138 333/131/138
f 331/684/93 326/724/93 325/725/93
f 331/684/93 333/683/93 326/724/93
f 331/684/98 313/726/98 319/685/98
f 331/684/98 325/725/98 313/726/98
f 333/131/90 332/98/90 336/97/90
f 333/131/90 336/97/90 335/130/90
f 334/117/148 335/130/148 336/97/148
f 334/721/87 323/740/87 322/722/87
f 334/721/87 336/739/87 323/740/87
f 335/77/1 326/100/1 333/78/1
f 335/77/1 330/99/1 326/100/1
f 337/129/141 338/116/141 339/145/141
f 337/216/84 339/217/84 344/202/84
f 337/216/84 344/202/84 343/201/84
f 340/115/121 341/128/121 342/144/121
f 340/115/81 339/145/81 338/116/81
f 340/115/81 342/144/81 339/145/81
f 341/689/78 340/674/78 353/673/78
f 341/689/78 353/673/78 352/688/78
f 342/54/2 344/17/2 339/19/2
f 342/54/2 348/52/2 344/17/2
f 343/201/93 345/191/93 356/190/93
f 343/201/93 356/190/93 355/200/93
f 343/6/138 344/17/138 345/18/138
f 345/18/90 344/17/90 348/52/90
f 345/18/90 348/52/90 347/53/90
f 346/58/112 347/53/112 348/52/112
f 346/737/3 341/689/3 352/688/3
f 346/737/3 352/688/3 358/736/3
f 346/737/87 342/690/87 341/689/87
f 346/737/87 348/738/87 342/690/87
f 347/53/1 356/20/1 345/18/1
f 347/53/1 360/55/1 356/20/1
f 349/215/75 338/225/75 337/216/75
f 349/215/75 351/224/75 338/225/75
f 349/653/149 350/665/149 351/666/149
f 351/666/72 350/665/72 354/712/72
f 351/666/72 354/712/72 353/713/72
f 352/688/69 354/687/69 359/735/69
f 352/688/69 359/735/69 358/736/69
f 352/734/102 353/713/102 354/712/102
f 353/713/5 338/672/5 351/666/5
f 353/713/5 340/719/5 338/672/5
f 355/200/63 350/214/63 349/215/63
f 355/200/63 357/199/63 350/214/63
f 355/200/98 337/216/98 343/201/98
f 355/200/98 349/215/98 337/216/98
f 355/466/150 356/456/150 357/475/150
f 357/475/66 356/456/66 360/455/66
f 357/475/66 360/455/66 359/474/66
f 358/465/100 359/474/100 360/455/100
f 358/736/96 347/748/96 346/737/96
f 358/736/96 360/747/96 347/748/96
f 359/718/4 350/665/4 357/671/4
f 359/718/4 354/712/4 350/665/4
