# Blender 4.0.2
# www.blender.org
mtllib goal_flag.mtl
o goal_flag
v 0.410000 0.000000 -0.410000
v 0.410000 0.040000 -0.450000
v 0.450000 0.040000 -0.410000
v 0.410000 0.160000 -0.450000
v 0.410000 0.200000 -0.410000
v 0.450000 0.160000 -0.410000
v 0.410000 0.000000 0.410000
v 0.450000 0.040000 0.410000
v 0.410000 0.040000 0.450000
v 0.410000 0.200000 0.410000
v 0.410000 0.160000 0.450000
v 0.450000 0.160000 0.410000
v -0.410000 0.000000 -0.410000
v -0.450000 0.040000 -0.410000
v -0.410000 0.040000 -0.450000
v -0.410000 0.200000 -0.410000
v -0.410000 0.160000 -0.450000
v -0.450000 0.160000 -0.410000
v -0.410000 0.000000 0.410000
v -0.410000 0.040000 0.450000
v -0.450000 0.040000 0.410000
v -0.410000 0.200000 0.410000
v -0.450000 0.160000 0.410000
v -0.410000 0.160000 0.450000
v 0.270000 0.200000 -0.270000
v 0.270000 0.230000 -0.300000
v 0.300000 0.230000 -0.270000
v 0.270000 0.310000 -0.300000
v 0.270000 0.340000 -0.270000
v 0.300000 0.310000 -0.270000
v 0.270000 0.200000 0.270000
v 0.300000 0.230000 0.270000
v 0.270000 0.230000 0.300000
v 0.270000 0.340000 0.270000
v 0.270000 0.310000 0.300000
v 0.300000 0.310000 0.270000
v -0.270000 0.200000 -0.270000
v -0.300000 0.230000 -0.270000
v -0.270000 0.230000 -0.300000
v -0.270000 0.340000 -0.270000
v -0.270000 0.310000 -0.300000
v -0.300000 0.310000 -0.270000
v -0.270000 0.200000 0.270000
v -0.270000 0.230000 0.300000
v -0.300000 0.230000 0.270000
v -0.270000 0.340000 0.270000
v -0.300000 0.310000 0.270000
v -0.270000 0.310000 0.300000
v 0.000000 0.340000 0.060000
v 0.000000 3.260000 0.060000
v -0.042426 0.340000 0.042426
v -0.042426 3.260000 0.042426
v -0.060000 0.340000 0.000000
v -0.060000 3.260000 0.000000
v -0.042426 0.340000 -0.042426
v -0.042426 3.260000 -0.042426
v 0.000000 0.340000 -0.060000
v 0.000000 3.260000 -0.060000
v 0.042426 0.340000 -0.042426
v 0.042426 3.260000 -0.042426
v 0.060000 0.340000 0.000000
v 0.060000 3.260000 0.000000
v 0.042426 0.340000 0.042426
v 0.042426 3.260000 0.042426
v 0.000000 0.340000 0.100000
v 0.000000 0.460000 0.100000
v -0.070711 0.340000 0.070711
v -0.070711 0.460000 0.070711
v -0.100000 0.340000 0.000000
v -0.100000 0.460000 0.000000
v -0.070711 0.340000 -0.070711
v -0.070711 0.460000 -0.070711
v 0.000000 0.340000 -0.100000
v 0.000000 0.460000 -0.100000
v 0.070711 0.340000 -0.070711
v 0.070711 0.460000 -0.070711
v 0.100000 0.340000 0.000000
v 0.100000 0.460000 0.000000
v 0.070711 0.340000 0.070711
v 0.070711 0.460000 0.070711
v 0.000000 3.260000 0.000000
v -0.060000 3.276077 0.000000
v -0.048541 3.276077 0.035267
v -0.018541 3.276077 0.057063
v 0.018541 3.276077 0.057063
v 0.048541 3.276077 0.035267
v 0.060000 3.276077 0.000000
v 0.048541 3.276077 -0.035267
v 0.018541 3.276077 -0.057063
v -0.018541 3.276077 -0.057063
v -0.048541 3.276077 -0.035267
v -0.103923 3.320000 0.000000
v -0.084076 3.320000 0.061084
v -0.032114 3.320000 0.098837
v 0.032114 3.320000 0.098837
v 0.084076 3.320000 0.061084
v 0.103923 3.320000 0.000000
v 0.084076 3.320000 -0.061084
v 0.032114 3.320000 -0.098837
v -0.032114 3.320000 -0.098837
v -0.084076 3.320000 -0.061084
v -0.120000 3.380000 0.000000
v -0.097082 3.380000 0.070534
v -0.037082 3.380000 0.114127
v 0.037082 3.380000 0.114127
v 0.097082 3.380000 0.070534
v 0.120000 3.380000 0.000000
v 0.097082 3.380000 -0.070534
v 0.037082 3.380000 -0.114127
v -0.037082 3.380000 -0.114127
v -0.097082 3.380000 -0.070534
v -0.103923 3.440000 0.000000
v -0.084076 3.440000 0.061084
v -0.032114 3.440000 0.098837
v 0.032114 3.440000 0.098837
v 0.084076 3.440000 0.061084
v 0.103923 3.440000 0.000000
v 0.084076 3.440000 -0.061084
v 0.032114 3.440000 -0.098837
v -0.032114 3.440000 -0.098837
v -0.084076 3.440000 -0.061084
v -0.060000 3.483923 0.000000
v -0.048541 3.483923 0.035267
v -0.018541 3.483923 0.057063
v 0.018541 3.483923 0.057063
v 0.048541 3.483923 0.035267
v 0.060000 3.483923 0.000000
v 0.048541 3.483923 -0.035267
v 0.018541 3.483923 -0.057063
v -0.018541 3.483923 -0.057063
v -0.048541 3.483923 -0.035267
v 0.000000 3.500000 0.000000
v -0.060000 3.180000 -0.005000
v -0.080000 3.178390 -0.025000
v -0.079940 3.198454 -0.005000
v -1.330060 3.101546 -0.005000
v -1.309177 3.083105 -0.025000
v -1.336984 3.084815 -0.005000
v -1.063016 2.765185 -0.005000
v -1.076342 2.750000 -0.025000
v -1.063016 2.734815 -0.005000
v -1.336984 2.415185 -0.005000
v -1.309177 2.416895 -0.025000
v -1.330060 2.398454 -0.005000
v -0.060000 2.320000 -0.005000
v -0.079940 2.301546 -0.005000
v -0.080000 2.321610 -0.025000
v -0.060000 3.180000 0.005000
v -0.079940 3.198454 0.005000
v -0.080000 3.178390 0.025000
v -1.336984 3.084815 0.005000
v -1.309177 3.083105 0.025000
v -1.330060 3.101546 0.005000
v -1.063016 2.734815 0.005000
v -1.076342 2.750000 0.025000
v -1.063016 2.765185 0.005000
v -1.330060 2.398454 0.005000
v -1.309177 2.416895 0.025000
v -1.336984 2.415185 0.005000
v -0.060000 2.320000 0.005000
v -0.080000 2.321610 0.025000
v -0.079940 2.301546 0.005000
v -0.629962 2.818766 -0.035000
v -0.770211 2.811803 -0.035000
v -0.660840 2.723734 -0.035000
v -0.697557 2.588197 -0.035000
v -0.580000 2.665000 -0.035000
v -0.462443 2.588197 -0.035000
v -0.499160 2.723734 -0.035000
v -0.389789 2.811803 -0.035000
v -0.530038 2.818766 -0.035000
v -0.580000 2.950000 -0.035000
v -0.629962 2.818766 0.035000
v -0.770211 2.811803 0.035000
v -0.660840 2.723734 0.035000
v -0.697557 2.588197 0.035000
v -0.580000 2.665000 0.035000
v -0.462443 2.588197 0.035000
v -0.499160 2.723734 0.035000
v -0.389789 2.811803 0.035000
v -0.530038 2.818766 0.035000
v -0.580000 2.950000 0.035000
vn -0.0000 -0.0000 -1.0000
vn -1.0000 -0.0000 -0.0000
vn -0.0000 1.0000 -0.0000
vn 1.0000 -0.0000 -0.0000
vn -0.0000 -0.0000 1.0000
vn 0.5774 -0.5774 -0.5773
vn 0.5774 0.5774 -0.5774
vn 0.5773 -0.5774 0.5774
vn 0.5774 0.5774 0.5774
vn -0.5773 -0.5774 -0.5774
vn -0.5774 0.5774 -0.5774
vn -0.5774 -0.5774 0.5773
vn -0.5774 0.5774 0.5774
vn 0.7071 -0.7071 -0.0000
vn 0.7071 -0.0000 -0.7071
vn 0.7071 0.7071 -0.0000
vn 0.7071 -0.0000 0.7071
vn -0.0000 -0.7071 0.7071
vn -0.0000 0.7071 0.7071
vn -0.7071 -0.0000 0.7071
vn -0.7071 -0.7071 -0.0000
vn -0.7071 0.7071 -0.0000
vn -0.7071 -0.0000 -0.7071
vn -0.0000 -0.7071 -0.7071
vn -0.0000 0.7071 -0.7071
vn -0.0000 -1.0000 -0.0000
vn 0.5773 -0.5774 -0.5774
vn 0.5773 0.5774 -0.5774
vn 0.5773 0.5774 0.5774
vn -0.5773 0.5774 -0.5774
vn -0.5773 -0.5774 0.5774
vn -0.5773 0.5774 0.5774
vn -0.3827 -0.0000 0.9239
vn -0.9239 -0.0000 0.3827
vn -0.9239 -0.0000 -0.3827
vn -0.3827 -0.0000 -0.9239
vn 0.3827 -0.0000 -0.9239
vn 0.9239 -0.0000 -0.3827
vn 0.9239 -0.0000 0.3827
vn 0.3827 -0.0000 0.9239
vn -0.2579 -0.9625 0.0838
vn -0.1594 -0.9625 0.2194
vn -0.0000 -0.9625 0.2712
vn 0.1594 -0.9625 0.2194
vn 0.2579 -0.9625 0.0838
vn 0.2579 -0.9625 -0.0838
vn 0.1594 -0.9625 -0.2194
vn -0.0000 -0.9625 -0.2712
vn -0.1594 -0.9625 -0.2194
vn -0.2579 -0.9625 -0.0838
vn -0.6892 -0.6891 0.2239
vn -0.4259 -0.6891 0.5862
vn -0.0000 -0.6892 0.7246
vn 0.4259 -0.6891 0.5862
vn 0.6891 -0.6892 0.2239
vn 0.6892 -0.6891 -0.2239
vn 0.4259 -0.6891 -0.5862
vn -0.0000 -0.6892 -0.7246
vn -0.4259 -0.6891 -0.5862
vn -0.6891 -0.6892 -0.2239
vn -0.9216 -0.2469 0.2994
vn -0.5696 -0.2469 0.7840
vn -0.0000 -0.2469 0.9690
vn 0.5696 -0.2469 0.7840
vn 0.9216 -0.2469 0.2994
vn 0.9216 -0.2469 -0.2994
vn 0.5696 -0.2469 -0.7840
vn -0.0000 -0.2469 -0.9690
vn -0.5696 -0.2469 -0.7840
vn -0.9216 -0.2469 -0.2994
vn -0.9216 0.2469 0.2994
vn -0.5696 0.2469 0.7840
vn -0.0000 0.2469 0.9690
vn 0.5696 0.2469 0.7840
vn 0.9216 0.2469 0.2994
vn 0.9216 0.2469 -0.2994
vn 0.5696 0.2469 -0.7840
vn -0.0000 0.2469 -0.9690
vn -0.5696 0.2469 -0.7840
vn -0.9216 0.2469 -0.2994
vn -0.6892 0.6891 0.2239
vn -0.4259 0.6891 0.5862
vn -0.0000 0.6892 0.7246
vn 0.4259 0.6892 0.5862
vn 0.6892 0.6892 0.2239
vn 0.6892 0.6891 -0.2239
vn 0.4259 0.6891 -0.5862
vn -0.0000 0.6892 -0.7246
vn -0.4259 0.6892 -0.5862
vn -0.6892 0.6892 -0.2239
vn -0.2579 0.9625 0.0838
vn -0.1594 0.9625 0.2194
vn -0.0000 0.9625 0.2712
vn 0.1594 0.9625 0.2194
vn 0.2579 0.9625 0.0838
vn 0.2579 0.9625 -0.0838
vn 0.1594 0.9625 -0.2194
vn -0.0000 0.9625 -0.2712
vn -0.1594 0.9625 -0.2194
vn -0.2579 0.9625 -0.0838
vn -0.7593 -0.6508 -0.0000
vn -0.7593 0.6508 -0.0000
vn -0.0773 -0.9970 -0.0000
vn -0.0773 0.9970 -0.0000
vn 0.5464 0.5904 -0.5940
vn -0.5587 0.2312 -0.7965
vn -0.8322 -0.0000 0.5545
vn -0.5587 -0.2312 -0.7965
vn 0.5464 -0.5904 -0.5940
vn 0.5464 0.5904 0.5940
vn -0.5587 0.2312 0.7965
vn -0.8322 -0.0000 -0.5545
vn -0.5587 -0.2312 0.7965
vn 0.5464 -0.5904 0.5940
vn -0.0547 0.7050 -0.7071
vn -0.5369 -0.4602 -0.7071
vn -0.5851 0.4090 0.7003
vn -0.0547 -0.7050 -0.7071
vn -0.0547 -0.7050 0.7071
vn -0.5369 0.4602 0.7071
vn -0.5851 -0.4090 -0.7003
vn -0.0547 0.7050 0.7071
vn 0.6792 0.7339 -0.0000
vn -0.9240 0.3824 -0.0000
vn -0.9240 -0.3824 -0.0000
vn 0.6792 -0.7339 -0.0000
vn -0.0496 0.9988 -0.0000
vn -0.6272 -0.7789 -0.0000
vn -0.9652 0.2615 -0.0000
vn 0.5469 -0.8372 -0.0000
vn -0.5469 -0.8372 -0.0000
vn 0.9652 0.2615 -0.0000
vn 0.6272 -0.7789 -0.0000
vn 0.0496 0.9988 -0.0000
vn 0.9346 0.3558 -0.0000
vn -0.9346 0.3558 -0.0000
vn -0.6891 -0.6892 0.2239
vn -0.4259 -0.6892 0.5862
vn 0.4259 -0.6892 0.5862
vn 0.6892 -0.6891 0.2239
vn 0.6891 -0.6892 -0.2239
vn 0.4259 -0.6892 -0.5862
vn -0.4259 -0.6892 -0.5862
vn -0.6892 -0.6891 -0.2239
vn -0.6892 0.6892 0.2239
vn -0.4259 0.6892 0.5862
vn 0.6892 0.6891 0.2239
vn 0.6892 0.6892 -0.2239
vn 0.4259 0.6892 -0.5862
vn -0.6892 0.6891 -0.2239
vn -0.5851 -0.4090 0.7003
vn -0.5369 0.4602 -0.7071
vn -0.5851 0.4090 -0.7003
vn -0.5369 -0.4602 0.7071
vt 0.00000 0.00000
vt 0.00000 1.00000
vt 0.01430 0.00000
vt 0.01430 1.00000
vt 0.02861 0.00000
vt 0.02861 1.00000
vt 0.03633 0.00000
vt 0.03633 1.00000
vt 0.05063 0.00000
vt 0.05063 1.00000
vt 0.06494 0.00000
vt 0.06494 1.00000
vt 0.07266 0.00000
vt 0.07266 0.99874
vt 0.08696 0.00030
vt 0.08696 0.99904
vt 0.10127 0.00000
vt 0.10127 0.99874
vt 0.10899 0.00231
vt 0.10899 0.92576
vt 0.10899 0.93361
vt 0.10899 0.98060
vt 0.12329 0.00000
vt 0.12329 0.92345
vt 0.13259 0.93361
vt 0.13259 0.98060
vt 0.13760 0.00231
vt 0.13760 0.92576
vt 0.14532 0.00683
vt 0.14532 0.45887
vt 0.14532 0.73969
vt 0.14532 0.77120
vt 0.14532 0.95612
vt 0.15154 0.00000
vt 0.15209 0.00685
vt 0.17799 0.43495
vt 0.18363 0.43732
vt 0.18421 0.42780
vt 0.29651 0.34806
vt 0.32372 0.77162
vt 0.32372 0.95654
vt 0.32574 0.76123
vt 0.32574 0.96670
vt 0.33565 0.77153
vt 0.33565 0.95645
vt 0.34337 0.76981
vt 0.34337 0.90575
vt 0.35012 0.76123
vt 0.35012 0.76562
vt 0.35012 0.90270
vt 0.35012 0.91231
vt 0.35349 0.76123
vt 0.35349 0.76562
vt 0.35349 0.90270
vt 0.35349 0.91231
vt 0.36023 0.76981
vt 0.36023 0.90575
vt 0.36795 0.76123
vt 0.36795 0.80346
vt 0.36795 0.84150
vt 0.36795 0.87016
vt 0.36795 0.89718
vt 0.36795 0.94695
vt 0.36795 0.97311
vt 0.37491 0.85961
vt 0.37771 0.88240
vt 0.38231 0.91232
vt 0.38587 0.92823
vt 0.38587 0.99137
vt 0.38976 0.86412
vt 0.39155 0.76123
vt 0.39155 0.80346
vt 0.39155 0.84150
vt 0.39358 0.89525
vt 0.39927 0.76123
vt 0.39927 0.80927
vt 0.39951 0.84934
vt 0.40156 0.92006
vt 0.40750 0.87415
vt 0.40881 0.42780
vt 0.40939 0.43732
vt 0.41121 0.92790
vt 0.41121 0.99105
vt 0.41131 0.90528
vt 0.41503 0.43495
vt 0.41876 0.85708
vt 0.42177 0.45887
vt 0.42177 0.73969
vt 0.42183 0.44517
vt 0.42183 0.75339
vt 0.42288 0.76123
vt 0.42288 0.80927
vt 0.42337 0.88700
vt 0.42616 0.90979
vt 0.42912 0.94617
vt 0.42912 0.97232
vt 0.43195 0.76123
vt 0.43195 0.76743
vt 0.43312 0.87222
vt 0.43312 0.89924
vt 0.43532 0.45887
vt 0.43532 0.73969
vt 0.43532 0.76123
vt 0.43532 0.76743
vt 0.44094 0.00685
vt 0.44148 0.00000
vt 0.44304 0.45838
vt 0.44304 0.73918
vt 0.44304 0.77149
vt 0.44304 0.95642
vt 0.44770 0.00683
vt 0.45542 0.00683
vt 0.46165 0.00000
vt 0.46219 0.00685
vt 0.48810 0.43495
vt 0.49374 0.43732
vt 0.49431 0.42780
vt 0.60661 0.34806
vt 0.62509 0.77149
vt 0.62509 0.95642
vt 0.62514 0.76121
vt 0.62514 0.96669
vt 0.63525 0.77149
vt 0.63525 0.95642
vt 0.64298 0.77149
vt 0.64298 0.95642
vt 0.65232 0.76121
vt 0.65232 0.96669
vt 0.65620 0.77149
vt 0.65620 0.95642
vt 0.68110 0.77149
vt 0.68110 0.95642
vt 0.68883 0.77149
vt 0.68883 0.95642
vt 0.69893 0.76121
vt 0.69893 0.96669
vt 0.69944 0.77149
vt 0.69944 0.95642
vt 0.71395 0.45902
vt 0.71395 0.73982
vt 0.71663 0.44517
vt 0.71663 0.75337
vt 0.71891 0.42780
vt 0.71949 0.43732
vt 0.72513 0.43495
vt 0.72637 0.77149
vt 0.72637 0.95642
vt 0.72985 0.45890
vt 0.72985 0.73970
vt 0.73757 0.45887
vt 0.73757 0.73969
vt 0.73757 0.82637
vt 0.73757 0.92018
vt 0.73757 0.94720
vt 0.74453 0.90963
vt 0.74733 0.93241
vt 0.75104 0.00685
vt 0.75106 0.44517
vt 0.75106 0.45887
vt 0.75106 0.73969
vt 0.75106 0.75339
vt 0.75158 0.00000
vt 0.75193 0.96234
vt 0.75780 0.00683
vt 0.75938 0.91414
vt 0.76319 0.94527
vt 0.76553 0.00000
vt 0.76553 0.00680
vt 0.76553 0.43507
vt 0.76890 0.00000
vt 0.76890 0.00680
vt 0.76890 0.43507
vt 0.76913 0.89936
vt 0.77118 0.97008
vt 0.77662 0.00680
vt 0.77712 0.92417
vt 0.78093 0.95530
vt 0.78182 0.80926
vt 0.78182 0.84349
vt 0.78326 0.00007
vt 0.78346 0.00802
vt 0.78416 0.76123
vt 0.78416 0.89151
vt 0.78663 0.00000
vt 0.78683 0.00795
vt 0.78838 0.90710
vt 0.79010 0.42088
vt 0.79151 0.44517
vt 0.79151 0.45887
vt 0.79151 0.73969
vt 0.79151 0.75339
vt 0.79299 0.93702
vt 0.79347 0.00647
vt 0.79347 0.42082
vt 0.79578 0.95981
vt 0.80120 0.01370
vt 0.80120 0.29452
vt 0.80120 0.32060
vt 0.80120 0.40087
vt 0.80274 0.92224
vt 0.80274 0.94926
vt 0.80500 0.45887
vt 0.80500 0.73969
vt 0.80794 0.31606
vt 0.80794 0.41040
vt 0.81046 0.91229
vt 0.81046 0.95413
vt 0.81131 0.31606
vt 0.81131 0.41040
vt 0.81272 0.45887
vt 0.81272 0.73969
vt 0.81385 0.79869
vt 0.81385 0.85406
vt 0.81468 0.00000
vt 0.81468 0.01370
vt 0.81468 0.29452
vt 0.81468 0.30822
vt 0.81805 0.32060
vt 0.81805 0.40087
vt 0.81851 0.93321
vt 0.82237 0.92113
vt 0.82237 0.94529
vt 0.82517 0.44517
vt 0.82517 0.75339
vt 0.82578 0.34704
vt 0.82578 0.35956
vt 0.82578 0.38176
vt 0.82578 0.43019
vt 0.82605 0.32238
vt 0.82798 0.89936
vt 0.82798 0.96706
vt 0.82957 0.40598
vt 0.83035 0.45887
vt 0.83035 0.73969
vt 0.83249 0.91367
vt 0.83249 0.95275
vt 0.83308 0.33705
vt 0.83308 0.36983
vt 0.83366 0.82637
vt 0.83871 0.93321
vt 0.84431 0.35458
vt 0.84490 0.33341
vt 0.84490 0.37392
vt 0.84499 0.91367
vt 0.84499 0.95275
vt 0.84652 0.31606
vt 0.84963 0.89936
vt 0.84963 0.96706
vt 0.85510 0.92113
vt 0.85510 0.94529
vt 0.85514 0.00000
vt 0.85514 0.01370
vt 0.85514 0.29452
vt 0.85514 0.30822
vt 0.85672 0.33749
vt 0.85672 0.37027
vt 0.85897 0.93321
vt 0.85955 0.78612
vt 0.85955 0.86663
vt 0.86314 0.38176
vt 0.86314 0.43019
vt 0.86402 0.34776
vt 0.86402 0.36028
vt 0.86693 0.40598
vt 0.86699 0.32315
vt 0.86715 0.91229
vt 0.86715 0.95413
vt 0.86727 0.78612
vt 0.86727 0.86663
vt 0.86771 0.45887
vt 0.86771 0.73969
vt 0.86862 0.01370
vt 0.86862 0.29452
vt 0.87384 0.93321
vt 0.87543 0.45887
vt 0.87543 0.73969
vt 0.87635 0.00000
vt 0.87635 0.29415
vt 0.87964 0.34093
vt 0.87964 0.36261
vt 0.87972 0.00000
vt 0.87972 0.29415
vt 0.88157 0.91367
vt 0.88157 0.95275
vt 0.88545 0.92113
vt 0.88545 0.94529
vt 0.88693 0.93321
vt 0.88744 0.01027
vt 0.88744 0.19521
vt 0.88744 0.22360
vt 0.88744 0.40853
vt 0.88890 0.44517
vt 0.88890 0.75339
vt 0.88958 0.45887
vt 0.88958 0.73969
vt 0.89316 0.82637
vt 0.89700 0.89936
vt 0.89700 0.96706
vt 0.89756 0.00000
vt 0.89756 0.01027
vt 0.89756 0.19521
vt 0.89756 0.20548
vt 0.89756 0.21332
vt 0.89756 0.22360
vt 0.89756 0.40853
vt 0.89756 0.41880
vt 0.90372 0.91229
vt 0.90372 0.95413
vt 0.90629 0.93321
vt 0.91297 0.79869
vt 0.91297 0.85406
vt 0.92408 0.90905
vt 0.92408 0.95737
vt 0.92453 0.00000
vt 0.92453 0.01027
vt 0.92453 0.19521
vt 0.92453 0.20548
vt 0.92453 0.21332
vt 0.92453 0.22360
vt 0.92453 0.40853
vt 0.92453 0.41880
vt 0.92705 0.93321
vt 0.92998 0.45887
vt 0.92998 0.73969
vt 0.93464 0.01027
vt 0.93464 0.19521
vt 0.93464 0.22360
vt 0.93464 0.40853
vt 0.93771 0.46370
vt 0.93771 0.48991
vt 0.93771 0.55267
vt 0.93771 0.58116
vt 0.93771 0.62959
vt 0.93771 0.63744
vt 0.93771 0.66165
vt 0.93771 0.68587
vt 0.93771 0.69371
vt 0.93771 0.71793
vt 0.93771 0.74215
vt 0.93820 0.60537
vt 0.94089 0.53193
vt 0.94089 0.57297
vt 0.94108 0.91229
vt 0.94108 0.95413
vt 0.94237 0.00000
vt 0.94237 0.04802
vt 0.94237 0.05586
vt 0.94237 0.10161
vt 0.94237 0.10945
vt 0.94237 0.15415
vt 0.94237 0.16210
vt 0.94237 0.20482
vt 0.94237 0.21332
vt 0.94237 0.25306
vt 0.94237 0.27234
vt 0.94237 0.28803
vt 0.94237 0.31795
vt 0.94237 0.33368
vt 0.94237 0.35265
vt 0.94237 0.38759
vt 0.94266 0.76123
vt 0.94266 0.89151
vt 0.94365 0.93321
vt 0.94500 0.80926
vt 0.94500 0.84349
vt 0.94960 0.51629
vt 0.95312 0.26110
vt 0.95312 0.29899
vt 0.95331 0.30683
vt 0.95331 0.34480
vt 0.95595 0.44517
vt 0.95595 0.50845
vt 0.96149 0.51649
vt 0.96149 0.53227
vt 0.96149 0.55307
vt 0.96149 0.57331
vt 0.96596 0.00000
vt 0.96596 0.04802
vt 0.96596 0.05586
vt 0.96596 0.10161
vt 0.96596 0.10956
vt 0.96596 0.15426
vt 0.96596 0.16225
vt 0.96596 0.20496
vt 0.96596 0.21332
vt 0.96596 0.25306
vt 0.96596 0.35265
vt 0.96596 0.38759
vt 0.96832 0.26091
vt 0.96832 0.29879
vt 0.96879 0.30683
vt 0.96879 0.34480
vt 0.97337 0.51629
vt 0.97811 0.58116
vt 0.97811 0.62959
vt 0.97816 0.63744
vt 0.97816 0.66165
vt 0.97816 0.68587
vt 0.97816 0.69371
vt 0.97816 0.71793
vt 0.97816 0.74215
vt 0.97861 0.60537
vt 0.97907 0.27187
vt 0.97907 0.28756
vt 0.97974 0.31795
vt 0.97974 0.33368
vt 0.98176 0.44517
vt 0.98176 0.50845
vt 0.98208 0.53193
vt 0.98208 0.57297
vt 0.98526 0.55267
vt 0.98925 0.82637
vt 1.00000 0.46370
vt 1.00000 0.48991
s 0
usemtl Platformer_brick
f 1/139/14 3/148/14 8/149/14
f 1/139/14 8/149/14 7/140/14
f 1/139/6 2/141/6 3/148/6
f 10/275/16 12/294/16 6/295/16
f 10/275/16 6/295/16 5/276/16
f 10/275/9 11/292/9 12/294/9
f 10/31/3 16/87/3 22/88/3
f 10/31/3 5/30/3 16/87/3
f 11/216/5 20/252/5 9/253/5
f 11/216/5 24/215/5 20/252/5
f 13/203/24 15/190/24 2/189/24
f 13/203/24 2/189/24 1/202/24
f 13/211/10 14/234/10 15/224/10
f 15/190/23 14/191/23 18/161/23
f 15/190/23 18/161/23 17/160/23
f 16/87/11 17/89/11 18/101/11
f 16/87/22 18/101/22 23/102/22
f 16/87/22 23/102/22 22/88/22
f 17/160/1 2/189/1 15/190/1
f 17/160/1 4/159/1 2/189/1
f 19/108/26 1/139/26 7/140/26
f 19/108/26 13/107/26 1/139/26
f 19/210/12 20/223/12 21/233/12
f 19/210/21 14/234/21 13/211/21
f 19/210/21 21/233/21 14/234/21
f 21/251/20 20/252/20 24/215/20
f 21/251/20 24/215/20 23/214/20
f 22/196/19 11/216/19 10/197/19
f 22/196/19 24/215/19 11/216/19
f 22/88/13 23/102/13 24/90/13
f 23/270/2 14/234/2 21/233/2
f 23/270/2 18/271/2 14/234/2
f 4/159/15 3/188/15 2/189/15
f 4/159/15 6/158/15 3/188/15
f 4/293/7 5/276/7 6/295/7
f 5/150/25 17/160/25 16/151/25
f 5/150/25 4/159/25 17/160/25
f 6/295/4 12/294/4 8/323/4
f 6/295/4 8/323/4 3/324/4
f 7/140/8 8/149/8 9/142/8
f 7/273/18 20/252/18 19/272/18
f 7/273/18 9/253/18 20/252/18
f 9/253/17 12/217/17 11/216/17
f 9/253/17 8/254/17 12/217/17
usemtl Platformer_brick_glazed
f 25/40/14 27/44/14 32/45/14
f 25/40/14 32/45/14 31/41/14
f 25/40/27 26/42/27 27/44/27
f 28/136/28 29/134/28 30/138/28
f 28/300/15 27/314/15 26/315/15
f 28/300/15 30/299/15 27/314/15
f 29/288/25 28/300/25 41/301/25
f 29/288/25 41/301/25 40/289/25
f 30/138/4 32/146/4 27/147/4
f 30/138/4 36/137/4 32/146/4
f 31/328/18 33/320/18 44/319/18
f 31/328/18 44/319/18 43/327/18
f 31/41/8 32/45/8 33/43/8
f 33/320/17 32/321/17 36/306/17
f 33/320/17 36/306/17 35/305/17
f 34/110/3 29/109/3 40/119/3
f 34/110/3 40/119/3 46/120/3
f 34/133/16 30/138/16 29/134/16
f 34/133/16 36/137/16 30/138/16
f 34/133/29 35/135/29 36/137/29
f 35/305/5 44/319/5 33/320/5
f 35/305/5 48/304/5 44/319/5
f 37/126/10 38/130/10 39/128/10
f 37/326/24 26/315/24 25/325/24
f 37/326/24 39/316/24 26/315/24
f 39/316/23 38/317/23 42/302/23
f 39/316/23 42/302/23 41/301/23
f 40/119/22 42/123/22 47/124/22
f 40/119/22 47/124/22 46/120/22
f 40/119/30 41/121/30 42/123/30
f 41/301/1 26/315/1 39/316/1
f 41/301/1 28/300/1 26/315/1
f 43/125/21 38/130/21 37/126/21
f 43/125/21 45/129/21 38/130/21
f 43/125/31 44/127/31 45/129/31
f 43/33/26 25/40/26 31/41/26
f 43/33/26 37/32/26 25/40/26
f 45/318/20 44/319/20 48/304/20
f 45/318/20 48/304/20 47/303/20
f 46/120/32 47/124/32 48/122/32
f 46/290/19 35/305/19 34/291/19
f 46/290/19 48/304/19 35/305/19
f 47/131/2 38/130/2 45/129/2
f 47/131/2 42/132/2 38/130/2
usemtl Platformer_sky_metal
f 50/3/33 51/6/33 49/4/33
f 50/3/33 52/5/33 51/6/33
f 50/369/3 64/391/3 62/405/3
f 51/403/26 53/404/26 55/390/26
f 52/19/34 53/24/34 51/20/34
f 52/19/34 54/23/34 53/24/34
f 54/23/35 55/28/35 53/24/35
f 54/23/35 56/27/35 55/28/35
f 54/358/3 50/369/3 62/405/3
f 54/358/3 52/357/3 50/369/3
f 55/390/26 57/368/26 59/356/26
f 55/390/26 59/356/26 63/367/26
f 56/7/36 57/10/36 55/8/36
f 56/7/36 58/9/36 57/10/36
f 58/392/3 56/370/3 54/358/3
f 58/9/37 59/12/37 57/10/37
f 58/9/37 60/11/37 59/12/37
f 59/356/26 61/355/26 63/367/26
f 60/13/38 61/16/38 59/14/38
f 60/13/38 62/15/38 61/16/38
f 62/15/39 63/18/39 61/16/39
f 62/15/39 64/17/39 63/18/39
f 62/405/3 58/392/3 54/358/3
f 62/405/3 60/406/3 58/392/3
f 63/367/26 49/389/26 51/403/26
f 63/367/26 51/403/26 55/390/26
f 64/1/40 49/4/40 63/2/40
f 64/1/40 50/3/40 49/4/40
usemtl Platformer_gold
f 100/177/68 109/176/68 99/192/68
f 100/177/68 110/166/68 109/176/68
f 101/174/69 110/166/69 100/177/69
f 101/174/69 111/163/69 110/166/69
f 102/322/80 112/363/80 121/344/80
f 102/322/80 121/344/80 111/313/80
f 103/312/71 112/363/71 102/322/71
f 103/312/71 113/343/71 112/363/71
f 104/79/72 113/77/72 103/86/72
f 104/79/72 114/70/72 113/77/72
f 105/74/73 114/70/73 104/79/73
f 105/74/73 115/66/73 114/70/73
f 106/67/74 115/66/74 105/74/74
f 106/67/74 116/62/74 115/66/74
f 107/375/75 116/409/75 106/411/75
f 107/375/75 117/374/75 116/409/75
f 108/331/76 117/374/76 107/375/76
f 108/331/76 118/341/76 117/374/76
f 109/176/77 118/173/77 108/186/77
f 109/176/77 119/165/77 118/173/77
f 110/166/78 119/165/78 109/176/78
f 110/166/78 120/156/78 119/165/78
f 111/163/79 120/156/79 110/166/79
f 111/163/79 121/154/79 120/156/79
f 113/267/145 123/250/145 122/257/145
f 113/267/81 122/257/81 112/274/81
f 114/248/146 124/245/146 123/250/146
f 114/248/82 123/250/82 113/267/82
f 115/66/83 124/65/83 114/70/83
f 115/66/83 125/61/83 124/65/83
f 116/207/84 125/236/84 115/231/84
f 116/207/84 126/222/84 125/236/84
f 116/409/147 117/374/147 127/373/147
f 116/409/85 127/373/85 126/393/85
f 118/341/148 128/366/148 127/373/148
f 118/341/86 127/373/86 117/374/86
f 119/230/149 129/235/149 128/221/149
f 119/230/87 128/221/87 118/206/87
f 120/156/88 129/155/88 119/165/88
f 120/156/88 130/153/88 129/155/88
f 121/266/150 112/274/150 122/257/150
f 121/266/89 130/244/89 120/247/89
f 121/266/89 131/249/89 130/244/89
f 121/266/90 122/257/90 131/249/90
f 122/257/91 123/250/91 132/240/91
f 123/250/92 124/245/92 132/240/92
f 124/245/93 125/236/93 132/240/93
f 125/236/94 126/222/94 132/240/94
f 126/222/95 127/220/95 132/240/95
f 127/220/96 128/221/96 132/240/96
f 128/221/97 129/235/97 132/240/97
f 129/235/98 130/244/98 132/240/98
f 130/244/99 131/249/99 132/240/99
f 131/249/100 122/257/100 132/240/100
f 163/310/1 169/365/1 165/296/1
f 163/310/1 171/364/1 169/365/1
f 163/310/1 172/361/1 171/364/1
f 163/388/136 173/360/136 182/359/136
f 163/388/136 182/359/136 172/387/136
f 164/92/127 173/75/127 163/91/127
f 164/92/127 174/76/127 173/75/127
f 165/296/1 164/268/1 163/310/1
f 165/72/128 174/58/128 164/71/128
f 165/72/128 175/59/128 174/58/128
f 166/73/129 175/59/129 165/72/129
f 166/73/129 176/60/129 175/59/129
f 167/311/1 166/269/1 165/296/1
f 167/349/130 176/382/130 166/350/130
f 167/349/130 177/381/130 176/382/130
f 168/386/131 177/353/131 167/385/131
f 168/386/131 178/354/131 177/353/131
f 169/21/132 178/26/132 168/22/132
f 169/21/132 179/25/132 178/26/132
f 169/365/1 167/311/1 165/296/1
f 169/365/1 168/362/1 167/311/1
f 170/351/133 179/384/133 169/352/133
f 170/351/133 180/383/133 179/384/133
f 171/364/1 170/412/1 169/365/1
f 171/378/134 180/345/134 170/377/134
f 171/378/134 181/346/134 180/345/134
f 172/347/135 181/380/135 171/348/135
f 172/347/135 182/379/135 181/380/135
f 173/212/5 174/258/5 175/239/5
f 175/239/5 176/259/5 177/213/5
f 175/239/5 177/213/5 179/179/5
f 175/239/5 179/179/5 181/178/5
f 177/213/5 178/183/5 179/179/5
f 179/179/5 180/152/5 181/178/5
f 181/178/5 173/212/5 175/239/5
f 181/178/5 182/182/5 173/212/5
f 66/335/33 67/396/33 65/397/33
f 66/335/33 68/334/33 67/396/33
f 66/372/3 80/330/3 78/329/3
f 67/95/26 69/96/26 71/83/26
f 68/260/34 69/232/34 67/227/34
f 68/260/34 70/264/34 69/232/34
f 70/264/35 71/228/35 69/232/35
f 70/264/35 72/261/35 71/228/35
f 70/414/3 66/372/3 78/329/3
f 70/414/3 68/408/3 66/372/3
f 71/83/26 73/69/26 75/64/26
f 71/83/26 75/64/26 79/68/26
f 72/339/36 73/400/36 71/401/36
f 72/339/36 74/338/36 73/400/36
f 74/338/37 75/399/37 73/400/37
f 74/338/37 76/337/37 75/399/37
f 74/407/3 72/413/3 70/414/3
f 75/64/26 77/63/26 79/68/26
f 76/333/38 77/402/38 75/395/38
f 76/333/38 78/340/38 77/402/38
f 78/329/3 74/407/3 70/414/3
f 78/329/3 76/371/3 74/407/3
f 78/340/39 79/394/39 77/402/39
f 78/340/39 80/332/39 79/394/39
f 79/68/26 65/82/26 67/95/26
f 79/68/26 67/95/26 71/83/26
f 80/336/40 65/397/40 79/398/40
f 80/336/40 66/335/40 65/397/40
f 81/241/41 83/243/41 82/238/41
f 81/241/42 84/256/42 83/243/42
f 81/241/43 85/263/43 84/256/43
f 81/241/44 86/262/44 85/263/44
f 81/241/45 87/255/45 86/262/45
f 81/241/46 88/242/46 87/255/46
f 81/241/47 89/237/47 88/242/47
f 81/241/48 90/225/48 89/237/48
f 81/241/49 91/226/49 90/225/49
f 81/241/50 82/238/50 91/226/50
f 82/287/137 83/285/137 93/307/137
f 82/287/144 92/309/144 101/308/144
f 82/287/51 93/307/51 92/309/51
f 82/287/60 101/308/60 91/286/60
f 84/283/138 94/297/138 93/307/138
f 84/283/52 93/307/52 83/285/52
f 85/94/53 94/93/53 84/100/53
f 85/94/53 95/84/53 94/93/53
f 86/262/139 96/279/139 95/280/139
f 86/262/54 95/280/54 85/263/54
f 87/255/140 97/265/140 96/279/140
f 87/255/141 88/242/141 98/246/141
f 87/255/55 96/279/55 86/262/55
f 87/255/56 98/246/56 97/265/56
f 89/237/142 99/229/142 98/246/142
f 89/237/57 98/246/57 88/242/57
f 90/195/58 100/177/58 99/192/58
f 90/195/58 99/192/58 89/201/58
f 91/286/143 101/308/143 100/298/143
f 91/286/59 100/298/59 90/284/59
f 92/309/70 102/322/70 111/313/70
f 92/309/70 111/313/70 101/308/70
f 93/307/61 102/322/61 92/309/61
f 93/307/61 103/312/61 102/322/61
f 94/93/62 103/86/62 93/99/62
f 94/93/62 104/79/62 103/86/62
f 95/84/63 104/79/63 94/93/63
f 95/84/63 105/74/63 104/79/63
f 96/78/64 105/74/64 95/84/64
f 96/78/64 106/67/64 105/74/64
f 97/376/65 106/411/65 96/410/65
f 97/376/65 107/375/65 106/411/65
f 98/342/66 107/375/66 97/376/66
f 98/342/66 108/331/66 107/375/66
f 99/192/67 108/186/67 98/200/67
f 99/192/67 109/176/67 108/186/67
usemtl Platformer_grass
f 133/170/123 135/171/123 149/168/123
f 133/170/123 149/168/123 148/167/123
f 133/277/4 148/281/4 160/282/4
f 133/277/4 160/282/4 145/278/4
f 133/34/105 134/35/105 135/29/105
f 134/35/15 133/34/15 145/106/15
f 134/35/15 145/106/15 147/105/15
f 136/172/104 149/168/104 135/171/104
f 136/172/104 153/169/104 149/168/104
f 136/36/106 137/38/106 138/37/106
f 137/38/1 134/35/1 147/105/1
f 137/38/115 135/29/115 134/35/115
f 137/38/115 136/36/115 135/29/115
f 137/56/116 139/54/116 138/53/116
f 137/56/151 140/57/151 139/54/151
f 138/53/101 139/54/101 156/50/101
f 138/53/101 156/50/101 151/49/101
f 139/54/107 140/57/107 141/55/107
f 142/209/102 154/204/102 141/208/102
f 142/209/102 159/205/102 154/204/102
f 142/81/108 143/80/108 144/85/108
f 143/219/117 141/208/117 140/218/117
f 143/219/152 142/209/152 141/208/152
f 143/80/118 146/111/118 144/85/118
f 143/80/118 147/105/118 146/111/118
f 145/180/109 146/181/109 147/175/109
f 146/181/103 157/194/103 144/187/103
f 146/181/103 162/185/103 157/194/103
f 147/105/1 140/39/1 137/38/1
f 147/105/1 143/80/1 140/39/1
f 148/162/110 149/164/110 150/157/110
f 150/157/17 160/113/17 148/162/17
f 150/157/17 161/114/17 160/113/17
f 150/157/5 152/143/5 155/118/5
f 150/157/5 155/118/5 158/117/5
f 151/144/111 152/143/111 153/145/111
f 151/49/124 136/52/124 138/53/124
f 151/49/124 153/48/124 136/52/124
f 152/143/122 149/164/122 153/145/122
f 152/143/122 150/157/122 149/164/122
f 152/46/121 156/50/121 155/47/121
f 152/46/154 151/49/154 156/50/154
f 154/51/112 155/47/112 156/50/112
f 154/51/2 139/54/2 141/55/2
f 154/51/2 156/50/2 139/54/2
f 157/115/113 158/117/113 159/116/113
f 157/98/125 142/103/125 144/104/125
f 157/98/125 159/97/125 142/103/125
f 158/117/119 157/115/119 162/112/119
f 158/117/119 162/112/119 161/114/119
f 158/117/5 161/114/5 150/157/5
f 158/199/120 154/204/120 159/205/120
f 158/199/153 155/198/153 154/204/153
f 160/184/114 161/193/114 162/185/114
f 160/184/126 146/181/126 145/180/126
f 160/184/126 162/185/126 146/181/126
