# Blender 4.0.2
# www.blender.org
mtllib spike_hazard.mtl
o spike_hazard
v 0.470000 0.000000 -0.470000
v 0.470000 0.030000 -0.500000
v 0.500000 0.030000 -0.470000
v 0.470000 0.070000 -0.500000
v 0.470000 0.100000 -0.470000
v 0.500000 0.070000 -0.470000
v 0.470000 0.000000 0.470000
v 0.500000 0.030000 0.470000
v 0.470000 0.030000 0.500000
v 0.470000 0.100000 0.470000
v 0.470000 0.070000 0.500000
v 0.500000 0.070000 0.470000
v -0.470000 0.000000 -0.470000
v -0.500000 0.030000 -0.470000
v -0.470000 0.030000 -0.500000
v -0.470000 0.100000 -0.470000
v -0.470000 0.070000 -0.500000
v -0.500000 0.070000 -0.470000
v -0.470000 0.000000 0.470000
v -0.470000 0.030000 0.500000
v -0.500000 0.030000 0.470000
v -0.470000 0.100000 0.470000
v -0.500000 0.070000 0.470000
v -0.470000 0.070000 0.500000
v 0.432000 0.100000 -0.432000
v 0.432000 0.118000 -0.450000
v 0.450000 0.118000 -0.432000
v 0.432000 0.122000 -0.450000
v 0.432000 0.140000 -0.432000
v 0.450000 0.122000 -0.432000
v 0.432000 0.100000 0.432000
v 0.450000 0.118000 0.432000
v 0.432000 0.118000 0.450000
v 0.432000 0.140000 0.432000
v 0.432000 0.122000 0.450000
v 0.450000 0.122000 0.432000
v -0.432000 0.100000 -0.432000
v -0.450000 0.118000 -0.432000
v -0.432000 0.118000 -0.450000
v -0.432000 0.140000 -0.432000
v -0.432000 0.122000 -0.450000
v -0.450000 0.122000 -0.432000
v -0.432000 0.100000 0.432000
v -0.432000 0.118000 0.450000
v -0.450000 0.118000 0.432000
v -0.432000 0.140000 0.432000
v -0.450000 0.122000 0.432000
v -0.432000 0.122000 0.450000
v 0.300000 0.140000 -0.180000
v 0.300000 0.476000 -0.260000
v 0.196077 0.140000 -0.240000
v 0.265359 0.476000 -0.280000
v 0.196077 0.140000 -0.360000
v 0.265359 0.476000 -0.320000
v 0.300000 0.140000 -0.420000
v 0.300000 0.476000 -0.340000
v 0.403923 0.140000 -0.360000
v 0.334641 0.476000 -0.320000
v 0.403923 0.140000 -0.240000
v 0.334641 0.476000 -0.280000
v 0.300000 0.476000 -0.260000
v 0.300000 0.560000 -0.296000
v 0.265359 0.476000 -0.280000
v 0.296536 0.560000 -0.298000
v 0.265359 0.476000 -0.320000
v 0.296536 0.560000 -0.302000
v 0.300000 0.476000 -0.340000
v 0.300000 0.560000 -0.304000
v 0.334641 0.476000 -0.320000
v 0.303464 0.560000 -0.302000
v 0.334641 0.476000 -0.280000
v 0.303464 0.560000 -0.298000
v 0.000000 0.140000 -0.180000
v 0.000000 0.476000 -0.260000
v -0.103923 0.140000 -0.240000
v -0.034641 0.476000 -0.280000
v -0.103923 0.140000 -0.360000
v -0.034641 0.476000 -0.320000
v 0.000000 0.140000 -0.420000
v 0.000000 0.476000 -0.340000
v 0.103923 0.140000 -0.360000
v 0.034641 0.476000 -0.320000
v 0.103923 0.140000 -0.240000
v 0.034641 0.476000 -0.280000
v 0.000000 0.476000 -0.260000
v 0.000000 0.560000 -0.296000
v -0.034641 0.476000 -0.280000
v -0.003464 0.560000 -0.298000
v -0.034641 0.476000 -0.320000
v -0.003464 0.560000 -0.302000
v 0.000000 0.476000 -0.340000
v 0.000000 0.560000 -0.304000
v 0.034641 0.476000 -0.320000
v 0.003464 0.560000 -0.302000
v 0.034641 0.476000 -0.280000
v 0.003464 0.560000 -0.298000
v -0.300000 0.140000 -0.180000
v -0.300000 0.476000 -0.260000
v -0.403923 0.140000 -0.240000
v -0.334641 0.476000 -0.280000
v -0.403923 0.140000 -0.360000
v -0.334641 0.476000 -0.320000
v -0.300000 0.140000 -0.420000
v -0.300000 0.476000 -0.340000
v -0.196077 0.140000 -0.360000
v -0.265359 0.476000 -0.320000
v -0.196077 0.140000 -0.240000
v -0.265359 0.476000 -0.280000
v -0.300000 0.476000 -0.260000
v -0.300000 0.560000 -0.296000
v -0.334641 0.476000 -0.280000
v -0.303464 0.560000 -0.298000
v -0.334641 0.476000 -0.320000
v -0.303464 0.560000 -0.302000
v -0.300000 0.476000 -0.340000
v -0.300000 0.560000 -0.304000
v -0.265359 0.476000 -0.320000
v -0.296536 0.560000 -0.302000
v -0.265359 0.476000 -0.280000
v -0.296536 0.560000 -0.298000
v 0.300000 0.140000 0.120000
v 0.300000 0.476000 0.040000
v 0.196077 0.140000 0.060000
v 0.265359 0.476000 0.020000
v 0.196077 0.140000 -0.060000
v 0.265359 0.476000 -0.020000
v 0.300000 0.140000 -0.120000
v 0.300000 0.476000 -0.040000
v 0.403923 0.140000 -0.060000
v 0.334641 0.476000 -0.020000
v 0.403923 0.140000 0.060000
v 0.334641 0.476000 0.020000
v 0.300000 0.476000 0.040000
v 0.300000 0.560000 0.004000
v 0.265359 0.476000 0.020000
v 0.296536 0.560000 0.002000
v 0.265359 0.476000 -0.020000
v 0.296536 0.560000 -0.002000
v 0.300000 0.476000 -0.040000
v 0.300000 0.560000 -0.004000
v 0.334641 0.476000 -0.020000
v 0.303464 0.560000 -0.002000
v 0.334641 0.476000 0.020000
v 0.303464 0.560000 0.002000
v 0.000000 0.140000 0.120000
v 0.000000 0.540000 0.040000
v -0.103923 0.140000 0.060000
v -0.034641 0.540000 0.020000
v -0.103923 0.140000 -0.060000
v -0.034641 0.540000 -0.020000
v 0.000000 0.140000 -0.120000
v 0.000000 0.540000 -0.040000
v 0.103923 0.140000 -0.060000
v 0.034641 0.540000 -0.020000
v 0.103923 0.140000 0.060000
v 0.034641 0.540000 0.020000
v 0.000000 0.540000 0.040000
v 0.000000 0.640000 0.004000
v -0.034641 0.540000 0.020000
v -0.003464 0.640000 0.002000
v -0.034641 0.540000 -0.020000
v -0.003464 0.640000 -0.002000
v 0.000000 0.540000 -0.040000
v 0.000000 0.640000 -0.004000
v 0.034641 0.540000 -0.020000
v 0.003464 0.640000 -0.002000
v 0.034641 0.540000 0.020000
v 0.003464 0.640000 0.002000
v -0.300000 0.140000 0.120000
v -0.300000 0.476000 0.040000
v -0.403923 0.140000 0.060000
v -0.334641 0.476000 0.020000
v -0.403923 0.140000 -0.060000
v -0.334641 0.476000 -0.020000
v -0.300000 0.140000 -0.120000
v -0.300000 0.476000 -0.040000
v -0.196077 0.140000 -0.060000
v -0.265359 0.476000 -0.020000
v -0.196077 0.140000 0.060000
v -0.265359 0.476000 0.020000
v -0.300000 0.476000 0.040000
v -0.300000 0.560000 0.004000
v -0.334641 0.476000 0.020000
v -0.303464 0.560000 0.002000
v -0.334641 0.476000 -0.020000
v -0.303464 0.560000 -0.002000
v -0.300000 0.476000 -0.040000
v -0.300000 0.560000 -0.004000
v -0.265359 0.476000 -0.020000
v -0.296536 0.560000 -0.002000
v -0.265359 0.476000 0.020000
v -0.296536 0.560000 0.002000
v 0.300000 0.140000 0.420000
v 0.300000 0.476000 0.340000
v 0.196077 0.140000 0.360000
v 0.265359 0.476000 0.320000
v 0.196077 0.140000 0.240000
v 0.265359 0.476000 0.280000
v 0.300000 0.140000 0.180000
v 0.300000 0.476000 0.260000
v 0.403923 0.140000 0.240000
v 0.334641 0.476000 0.280000
v 0.403923 0.140000 0.360000
v 0.334641 0.476000 0.320000
v 0.300000 0.476000 0.340000
v 0.300000 0.560000 0.304000
v 0.265359 0.476000 0.320000
v 0.296536 0.560000 0.302000
v 0.265359 0.476000 0.280000
v 0.296536 0.560000 0.298000
v 0.300000 0.476000 0.260000
v 0.300000 0.560000 0.296000
v 0.334641 0.476000 0.280000
v 0.303464 0.560000 0.298000
v 0.334641 0.476000 0.320000
v 0.303464 0.560000 0.302000
v 0.000000 0.140000 0.420000
v 0.000000 0.476000 0.340000
v -0.103923 0.140000 0.360000
v -0.034641 0.476000 0.320000
v -0.103923 0.140000 0.240000
v -0.034641 0.476000 0.280000
v 0.000000 0.140000 0.180000
v 0.000000 0.476000 0.260000
v 0.103923 0.140000 0.240000
v 0.034641 0.476000 0.280000
v 0.103923 0.140000 0.360000
v 0.034641 0.476000 0.320000
v 0.000000 0.476000 0.340000
v 0.000000 0.560000 0.304000
v -0.034641 0.476000 0.320000
v -0.003464 0.560000 0.302000
v -0.034641 0.476000 0.280000
v -0.003464 0.560000 0.298000
v 0.000000 0.476000 0.260000
v 0.000000 0.560000 0.296000
v 0.034641 0.476000 0.280000
v 0.003464 0.560000 0.298000
v 0.034641 0.476000 0.320000
v 0.003464 0.560000 0.302000
v -0.300000 0.140000 0.420000
v -0.300000 0.476000 0.340000
v -0.403923 0.140000 0.360000
v -0.334641 0.476000 0.320000
v -0.403923 0.140000 0.240000
v -0.334641 0.476000 0.280000
v -0.300000 0.140000 0.180000
v -0.300000 0.476000 0.260000
v -0.196077 0.140000 0.240000
v -0.265359 0.476000 0.280000
v -0.196077 0.140000 0.360000
v -0.265359 0.476000 0.320000
v -0.300000 0.476000 0.340000
v -0.300000 0.560000 0.304000
v -0.334641 0.476000 0.320000
v -0.303464 0.560000 0.302000
v -0.334641 0.476000 0.280000
v -0.303464 0.560000 0.298000
v -0.300000 0.476000 0.260000
v -0.300000 0.560000 0.296000
v -0.265359 0.476000 0.280000
v -0.296536 0.560000 0.298000
v -0.265359 0.476000 0.320000
v -0.296536 0.560000 0.302000
vn -0.0000 -0.0000 -1.0000
vn -1.0000 -0.0000 -0.0000
vn -0.0000 1.0000 -0.0000
vn 1.0000 -0.0000 -0.0000
vn -0.0000 -0.0000 1.0000
vn 0.5773 -0.5774 -0.5774
vn 0.5773 0.5774 -0.5774
vn 0.5773 -0.5774 0.5774
vn 0.5773 0.5774 0.5774
vn -0.5773 -0.5774 -0.5774
vn -0.5773 0.5774 -0.5774
vn -0.5773 -0.5774 0.5774
vn -0.5773 0.5774 0.5774
vn 0.7071 -0.7071 -0.0000
vn 0.7071 -0.0000 -0.7071
vn 0.7071 0.7071 -0.0000
vn 0.7071 -0.0000 0.7071
vn -0.0000 -0.7071 0.7071
vn -0.0000 0.7071 0.7071
vn -0.7071 -0.0000 0.7071
vn -0.7071 -0.7071 -0.0000
vn -0.7071 0.7071 -0.0000
vn -0.7071 -0.0000 -0.7071
vn -0.0000 -0.7071 -0.7071
vn -0.0000 0.7071 -0.7071
vn -0.0000 -1.0000 -0.0000
vn 0.5774 -0.5773 -0.5774
vn 0.5774 0.5773 -0.5774
vn 0.5774 -0.5774 0.5773
vn 0.5774 0.5773 0.5774
vn -0.5774 -0.5774 -0.5773
vn -0.5774 0.5773 -0.5774
vn -0.5774 -0.5773 0.5774
vn -0.5774 0.5774 0.5773
vn -0.4897 0.2019 0.8482
vn -0.9794 0.2019 -0.0000
vn -0.4897 0.2019 -0.8482
vn 0.4897 0.2019 -0.8482
vn 0.9794 0.2019 -0.0000
vn 0.4897 0.2019 0.8482
vn -0.4688 0.3480 0.8119
vn -0.9375 0.3480 -0.0000
vn -0.4688 0.3480 -0.8119
vn 0.4688 0.3480 -0.8119
vn 0.9375 0.3480 -0.0000
vn 0.4688 0.3480 0.8119
vn -0.4927 0.1707 0.8533
vn -0.9853 0.1707 -0.0000
vn -0.4927 0.1707 -0.8533
vn 0.4927 0.1707 -0.8533
vn 0.9853 0.1707 -0.0000
vn 0.4927 0.1707 0.8533
vn -0.4773 0.2976 0.8268
vn -0.9547 0.2976 -0.0000
vn -0.4773 0.2976 -0.8268
vn 0.4773 0.2976 -0.8268
vn 0.9547 0.2976 -0.0000
vn 0.4773 0.2976 0.8268
vn 0.4687 0.3480 -0.8119
vn -0.4687 0.3480 0.8119
vn -0.4687 0.3480 -0.8119
vn 0.4687 0.3480 0.8119
vn 0.0001 1.0000 -0.0000
vt 0.00000 0.01013
vt 0.00000 0.32759
vt 0.00000 0.34847
vt 0.00000 0.66593
vt 0.00000 0.78705
vt 0.00000 0.92170
vt 0.00000 0.93921
vt 0.00000 0.95272
vt 0.01016 0.00000
vt 0.01016 0.01013
vt 0.01016 0.32759
vt 0.01016 0.33772
vt 0.01173 0.93246
vt 0.01173 0.95947
vt 0.01355 0.80595
vt 0.02346 0.93921
vt 0.02346 0.95272
vt 0.02709 0.80595
vt 0.03425 0.93921
vt 0.03425 0.95272
vt 0.03448 0.79520
vt 0.03656 0.67668
vt 0.04064 0.92170
vt 0.04598 0.93246
vt 0.04598 0.95947
vt 0.04806 0.67940
vt 0.05142 0.92170
vt 0.05771 0.93921
vt 0.05771 0.95272
vt 0.05987 0.67940
vt 0.06497 0.80595
vt 0.06850 0.93921
vt 0.06850 0.95272
vt 0.06992 0.79520
vt 0.07852 0.80595
vt 0.08023 0.93246
vt 0.08023 0.95947
vt 0.08070 0.78705
vt 0.09196 0.93921
vt 0.09196 0.95272
vt 0.09207 0.92170
vt 0.10285 0.92170
vt 0.10285 0.93921
vt 0.10285 0.95272
vt 0.11458 0.93246
vt 0.11458 0.95947
vt 0.11518 0.79520
vt 0.11640 0.80595
vt 0.11726 0.67668
vt 0.12631 0.93921
vt 0.12631 0.95272
vt 0.12876 0.67940
vt 0.12994 0.80595
vt 0.14057 0.67940
vt 0.14349 0.92170
vt 0.15061 0.79520
vt 0.15427 0.93921
vt 0.15427 0.95272
vt 0.16140 0.79520
vt 0.16140 0.92170
vt 0.16601 0.93246
vt 0.16601 0.95947
vt 0.17145 0.67940
vt 0.17495 0.80595
vt 0.17774 0.93921
vt 0.17774 0.95272
vt 0.18326 0.67940
vt 0.18849 0.80595
vt 0.18852 0.93921
vt 0.18852 0.95272
vt 0.19475 0.67668
vt 0.19684 0.79520
vt 0.20025 0.93246
vt 0.20025 0.95947
vt 0.20204 0.92170
vt 0.21199 0.93921
vt 0.21199 0.95272
vt 0.21282 0.92170
vt 0.22277 0.93921
vt 0.22277 0.95272
vt 0.22637 0.80595
vt 0.23131 0.78705
vt 0.23450 0.93246
vt 0.23450 0.95947
vt 0.23992 0.80595
vt 0.24210 0.78705
vt 0.24624 0.93921
vt 0.24624 0.95272
vt 0.25346 0.92170
vt 0.26425 0.92170
vt 0.26425 0.93921
vt 0.26425 0.95272
vt 0.27598 0.93246
vt 0.27598 0.95947
vt 0.27658 0.79520
vt 0.27780 0.80595
vt 0.27866 0.67668
vt 0.28771 0.93921
vt 0.28771 0.95272
vt 0.29016 0.67940
vt 0.29134 0.80595
vt 0.30197 0.67940
vt 0.30489 0.92170
vt 0.31201 0.79520
vt 0.31835 0.34847
vt 0.31835 0.66593
vt 0.32851 0.00000
vt 0.32851 0.01013
vt 0.32851 0.32759
vt 0.32851 0.33772
vt 0.32914 0.35455
vt 0.32914 0.64634
vt 0.32914 0.79988
vt 0.32914 0.81132
vt 0.32914 0.84720
vt 0.32914 0.85875
vt 0.32914 0.88961
vt 0.32914 0.93045
vt 0.32914 0.94796
vt 0.32914 0.96147
vt 0.33029 0.85848
vt 0.33030 0.81110
vt 0.33134 0.85795
vt 0.33138 0.81063
vt 0.33523 0.34847
vt 0.33523 0.35455
vt 0.33523 0.64634
vt 0.33523 0.65242
vt 0.33523 0.90037
vt 0.33659 0.90037
vt 0.33867 0.01013
vt 0.33867 0.32759
vt 0.34063 0.88691
vt 0.34075 0.84507
vt 0.34087 0.94120
vt 0.34087 0.96822
vt 0.34268 0.66317
vt 0.34268 0.93045
vt 0.34946 0.01013
vt 0.34946 0.32759
vt 0.35119 0.88163
vt 0.35157 0.84033
vt 0.35260 0.94796
vt 0.35260 0.96147
vt 0.35347 0.93045
vt 0.35623 0.66317
vt 0.35931 0.00000
vt 0.35931 0.33772
vt 0.35956 0.90037
vt 0.36092 0.90037
vt 0.36179 0.01013
vt 0.36179 0.32759
vt 0.36701 0.93045
vt 0.36978 0.79988
vt 0.37493 0.01013
vt 0.37493 0.32759
vt 0.38056 0.77354
vt 0.38056 0.90282
vt 0.38056 0.92848
vt 0.38056 0.94198
vt 0.38571 0.01013
vt 0.38571 0.32759
vt 0.39229 0.92172
vt 0.39229 0.94874
vt 0.39556 0.00000
vt 0.39556 0.33772
vt 0.39805 0.01013
vt 0.39805 0.32759
vt 0.40403 0.92848
vt 0.40403 0.94198
vt 0.41119 0.01013
vt 0.41119 0.32759
vt 0.41481 0.92848
vt 0.41481 0.94198
vt 0.41504 0.78169
vt 0.41504 0.91097
vt 0.41712 0.66317
vt 0.41712 0.79245
vt 0.42197 0.01013
vt 0.42197 0.32759
vt 0.42654 0.92172
vt 0.42654 0.94874
vt 0.42862 0.66589
vt 0.42862 0.79516
vt 0.43192 0.00000
vt 0.43192 0.33772
vt 0.43398 0.01013
vt 0.43398 0.32759
vt 0.43827 0.92848
vt 0.43827 0.94198
vt 0.44043 0.66589
vt 0.44043 0.79516
vt 0.44519 0.00000
vt 0.44519 0.33772
vt 0.44725 0.01013
vt 0.44725 0.32759
vt 0.44906 0.92848
vt 0.44906 0.94198
vt 0.45048 0.78169
vt 0.45048 0.91097
vt 0.45803 0.01013
vt 0.45803 0.32759
vt 0.46079 0.92172
vt 0.46079 0.94874
vt 0.46126 0.77354
vt 0.46126 0.90282
vt 0.46798 0.00000
vt 0.46798 0.33772
vt 0.47004 0.01013
vt 0.47004 0.32759
vt 0.47252 0.92848
vt 0.47252 0.94198
vt 0.48124 0.00000
vt 0.48124 0.33772
vt 0.48330 0.01013
vt 0.48330 0.32759
vt 0.48331 0.92848
vt 0.48331 0.94198
vt 0.49409 0.00000
vt 0.49409 0.29179
vt 0.49409 0.32622
vt 0.49504 0.92172
vt 0.49504 0.94874
vt 0.49574 0.78169
vt 0.49574 0.91097
vt 0.49782 0.66317
vt 0.49782 0.79245
vt 0.50465 0.33150
vt 0.50677 0.92848
vt 0.50677 0.94198
vt 0.50932 0.66589
vt 0.50932 0.79516
vt 0.51394 0.30254
vt 0.51499 0.30307
vt 0.51614 0.30334
vt 0.51614 0.33420
vt 0.52113 0.66589
vt 0.52113 0.79516
vt 0.52693 0.30334
vt 0.52693 0.33420
vt 0.52808 0.30307
vt 0.52913 0.30254
vt 0.53118 0.78169
vt 0.53118 0.91097
vt 0.53842 0.33150
vt 0.54196 0.77354
vt 0.54196 0.90819
vt 0.54196 0.93921
vt 0.54196 0.97974
vt 0.54898 0.32622
vt 0.55551 0.79245
vt 0.55977 0.32622
vt 0.56905 0.79245
vt 0.57033 0.33150
vt 0.57644 0.78169
vt 0.57716 0.91895
vt 0.57716 1.00000
vt 0.57852 0.66317
vt 0.57962 0.30254
vt 0.58067 0.30307
vt 0.58182 0.30334
vt 0.58182 0.33420
vt 0.58260 0.90819
vt 0.59002 0.66589
vt 0.59261 0.32622
vt 0.59339 0.90819
vt 0.60183 0.66589
vt 0.60317 0.33150
vt 0.60693 0.79245
vt 0.61188 0.78169
vt 0.61235 0.93921
vt 0.61235 0.97974
vt 0.61246 0.30254
vt 0.61352 0.30307
vt 0.61467 0.30334
vt 0.61467 0.33420
vt 0.62048 0.79245
vt 0.62266 0.78169
vt 0.62314 0.93921
vt 0.62314 0.97974
vt 0.62545 0.30334
vt 0.62545 0.33420
vt 0.62660 0.30307
vt 0.62765 0.30254
vt 0.62784 0.34847
vt 0.62784 0.35455
vt 0.62784 0.64634
vt 0.62784 0.65242
vt 0.63271 0.66589
vt 0.63394 0.35455
vt 0.63394 0.64634
vt 0.63403 0.90819
vt 0.63694 0.33150
vt 0.64452 0.66589
vt 0.64472 0.35455
vt 0.64472 0.64634
vt 0.64481 0.90819
vt 0.64750 0.32622
vt 0.65064 0.34847
vt 0.65064 0.65242
vt 0.65213 0.35455
vt 0.65213 0.64634
vt 0.65344 0.35455
vt 0.65344 0.64634
vt 0.65601 0.66317
vt 0.65810 0.78169
vt 0.65829 0.32622
vt 0.65833 0.91895
vt 0.65833 1.00000
vt 0.65836 0.79245
vt 0.66423 0.35455
vt 0.66423 0.64634
vt 0.66885 0.33150
vt 0.67014 0.34847
vt 0.67014 0.65242
vt 0.67163 0.35455
vt 0.67163 0.64634
vt 0.67190 0.79245
vt 0.67294 0.35455
vt 0.67294 0.64634
vt 0.67814 0.30254
vt 0.67920 0.30307
vt 0.68035 0.30334
vt 0.68035 0.33420
vt 0.68373 0.35455
vt 0.68373 0.64634
vt 0.68545 0.90819
vt 0.68970 0.34847
vt 0.68970 0.65242
vt 0.69093 0.35455
vt 0.69093 0.64634
vt 0.69102 0.34847
vt 0.69102 0.65242
vt 0.69113 0.30334
vt 0.69113 0.33420
vt 0.69226 0.35455
vt 0.69226 0.64634
vt 0.69228 0.30307
vt 0.69258 0.77354
vt 0.69334 0.30254
vt 0.69353 0.93921
vt 0.69353 0.97974
vt 0.69624 0.82777
vt 0.69624 0.86860
vt 0.70233 0.79245
vt 0.70233 0.83852
vt 0.70263 0.33150
vt 0.70304 0.35455
vt 0.70304 0.64634
vt 0.70336 0.66385
vt 0.70336 0.66520
vt 0.70336 0.67730
vt 0.70336 0.67865
vt 0.70336 0.69076
vt 0.70336 0.69211
vt 0.70336 0.70421
vt 0.70336 0.70556
vt 0.70336 0.71767
vt 0.70336 0.71902
vt 0.70336 0.73113
vt 0.70336 0.73248
vt 0.70336 0.74458
vt 0.70336 0.74593
vt 0.70336 0.75804
vt 0.70336 0.75939
vt 0.70336 0.77149
vt 0.70336 0.77284
vt 0.70369 0.79245
vt 0.70369 0.83852
vt 0.70453 0.66317
vt 0.70453 0.66587
vt 0.70453 0.67663
vt 0.70453 0.67933
vt 0.70453 0.69008
vt 0.70453 0.69278
vt 0.70453 0.70354
vt 0.70453 0.70624
vt 0.70453 0.71699
vt 0.70453 0.71969
vt 0.70453 0.73045
vt 0.70453 0.73315
vt 0.70453 0.74391
vt 0.70453 0.74661
vt 0.70453 0.75736
vt 0.70453 0.76006
vt 0.70453 0.77082
vt 0.70453 0.77352
vt 0.70571 0.66385
vt 0.70571 0.66520
vt 0.70571 0.67730
vt 0.70571 0.67865
vt 0.70571 0.69076
vt 0.70571 0.69211
vt 0.70571 0.70421
vt 0.70571 0.70556
vt 0.70571 0.71767
vt 0.70571 0.71902
vt 0.70571 0.73113
vt 0.70571 0.73248
vt 0.70571 0.74458
vt 0.70571 0.74593
vt 0.70571 0.75804
vt 0.70571 0.75939
vt 0.70571 0.77149
vt 0.70571 0.77284
vt 0.70901 0.34847
vt 0.70901 0.65242
vt 0.70978 0.82777
vt 0.70978 0.86860
vt 0.71025 0.35455
vt 0.71025 0.64634
vt 0.71034 0.34847
vt 0.71034 0.65242
vt 0.71157 0.35455
vt 0.71157 0.64634
vt 0.71319 0.32622
vt 0.72236 0.47986
vt 0.72236 0.63016
vt 0.72236 0.78577
vt 0.72236 0.91227
vt 0.72236 0.92978
vt 0.72236 0.94329
vt 0.72397 0.30334
vt 0.72397 0.33420
vt 0.72512 0.30307
vt 0.72618 0.30254
vt 0.73409 0.92303
vt 0.73409 0.95005
vt 0.73547 0.33150
vt 0.73590 0.64907
vt 0.73590 0.79653
vt 0.74582 0.92978
vt 0.74582 0.94329
vt 0.74603 0.32622
vt 0.74945 0.64907
vt 0.74945 0.79653
vt 0.75681 0.30334
vt 0.75681 0.33420
vt 0.75684 0.48801
vt 0.75684 0.63831
vt 0.75796 0.30307
vt 0.75902 0.30254
vt 0.76138 0.34847
vt 0.76138 0.49877
vt 0.76300 0.78577
vt 0.76300 0.91227
vt 0.76831 0.33150
vt 0.77288 0.35119
vt 0.77288 0.50149
vt 0.77378 0.75944
vt 0.77378 0.88871
vt 0.77378 0.92788
vt 0.77378 0.96841
vt 0.77887 0.32622
vt 0.78469 0.35119
vt 0.78469 0.50149
vt 0.78670 0.00000
vt 0.78670 0.29179
vt 0.79227 0.48801
vt 0.79227 0.63831
vt 0.79748 0.11037
vt 0.79748 0.24780
vt 0.79748 0.25924
vt 0.79748 0.29512
vt 0.79748 0.30667
vt 0.79748 0.33753
vt 0.79863 0.30640
vt 0.79865 0.25902
vt 0.79969 0.30587
vt 0.79973 0.25855
vt 0.80306 0.46699
vt 0.80306 0.58812
vt 0.80306 0.63710
vt 0.80753 0.13199
vt 0.80826 0.76759
vt 0.80826 0.89686
vt 0.80898 0.33483
vt 0.80898 0.90762
vt 0.80898 0.98867
vt 0.80910 0.29299
vt 0.80915 0.60702
vt 0.81034 0.64907
vt 0.81034 0.77834
vt 0.81051 0.60702
vt 0.81310 0.35119
vt 0.81660 0.63710
vt 0.81934 0.13199
vt 0.81954 0.32955
vt 0.81991 0.28825
vt 0.82184 0.65178
vt 0.82184 0.78106
vt 0.82492 0.35119
vt 0.82739 0.63710
vt 0.83032 0.30667
vt 0.83032 0.33753
vt 0.83070 0.29387
vt 0.83084 0.12928
vt 0.83147 0.30640
vt 0.83196 0.11852
vt 0.83253 0.30587
vt 0.83292 0.24780
vt 0.83349 0.60702
vt 0.83365 0.65178
vt 0.83365 0.78106
vt 0.83405 0.00000
vt 0.83484 0.60702
vt 0.83641 0.34847
vt 0.83679 0.25855
vt 0.83754 0.59627
vt 0.83815 0.25855
vt 0.83849 0.46699
vt 0.83962 0.47775
vt 0.84093 0.63710
vt 0.84182 0.33483
vt 0.84370 0.76759
vt 0.84370 0.89686
vt 0.84417 0.92788
vt 0.84417 0.96841
vt 0.84425 0.29387
vt 0.84554 0.00272
vt 0.85111 0.48046
vt 0.85172 0.63710
vt 0.85238 0.32955
vt 0.85448 0.76482
vt 0.85448 0.89132
vt 0.85503 0.25935
vt 0.85503 0.29021
vt 0.85618 0.25908
vt 0.85724 0.25855
vt 0.85725 0.93215
vt 0.85735 0.00272
vt 0.85782 0.60702
vt 0.85917 0.60702
vt 0.86293 0.48046
vt 0.86316 0.30667
vt 0.86316 0.33753
vt 0.86334 0.90207
vt 0.86431 0.30640
vt 0.86470 0.90207
vt 0.86527 0.63710
vt 0.86537 0.30587
vt 0.86653 0.28751
vt 0.86740 0.11852
vt 0.86740 0.23965
vt 0.86803 0.64907
vt 0.86803 0.77557
vt 0.87079 0.93215
vt 0.87297 0.45884
vt 0.87297 0.59627
vt 0.87466 0.33483
vt 0.87709 0.28223
vt 0.87818 0.11575
vt 0.87818 0.24780
vt 0.88158 0.64907
vt 0.88158 0.77557
vt 0.88158 0.93215
vt 0.88376 0.46422
vt 0.88376 0.59349
vt 0.88376 0.60505
vt 0.88376 0.63591
vt 0.88491 0.60478
vt 0.88522 0.32955
vt 0.88596 0.60425
vt 0.88767 0.90207
vt 0.88787 0.25935
vt 0.88787 0.29021
vt 0.88902 0.25908
vt 0.88903 0.90207
vt 0.89008 0.25855
vt 0.89173 0.00000
vt 0.89173 0.13205
vt 0.89512 0.76482
vt 0.89512 0.89132
vt 0.89512 0.93215
vt 0.89525 0.63320
vt 0.89601 0.33596
vt 0.89730 0.34847
vt 0.89730 0.47775
vt 0.89937 0.28751
vt 0.90210 0.30587
vt 0.90346 0.30587
vt 0.90528 0.00000
vt 0.90528 0.13205
vt 0.90581 0.62793
vt 0.90591 0.66933
vt 0.90591 0.70986
vt 0.90591 0.76114
vt 0.90591 0.80166
vt 0.90591 0.85294
vt 0.90591 0.89347
vt 0.90591 0.93124
vt 0.90591 0.94475
vt 0.90955 0.33596
vt 0.90993 0.28223
vt 0.91085 0.34847
vt 0.91085 0.47775
vt 0.91660 0.63433
vt 0.91764 0.92449
vt 0.91764 0.95150
vt 0.91882 0.11575
vt 0.91882 0.24780
vt 0.92269 0.60425
vt 0.92405 0.60425
vt 0.92440 0.46422
vt 0.92440 0.59349
vt 0.92937 0.93124
vt 0.92937 0.94475
vt 0.92961 0.02026
vt 0.92961 0.06079
vt 0.92961 0.09856
vt 0.92961 0.11207
vt 0.92961 0.15231
vt 0.92961 0.19284
vt 0.92961 0.24412
vt 0.92961 0.28464
vt 0.93014 0.63433
vt 0.93518 0.37855
vt 0.93518 0.41939
vt 0.93518 0.46023
vt 0.93518 0.50506
vt 0.93518 0.54589
vt 0.93518 0.58673
vt 0.94016 0.93124
vt 0.94016 0.94475
vt 0.94093 0.61100
vt 0.94093 0.62451
vt 0.94110 0.64907
vt 0.94110 0.73012
vt 0.94110 0.74087
vt 0.94110 0.82193
vt 0.94110 0.83268
vt 0.94110 0.91373
vt 0.94128 0.34847
vt 0.94128 0.38931
vt 0.94128 0.43014
vt 0.94128 0.47497
vt 0.94128 0.51581
vt 0.94128 0.55665
vt 0.94134 0.09181
vt 0.94134 0.11882
vt 0.94263 0.34847
vt 0.94263 0.38931
vt 0.94263 0.43014
vt 0.94263 0.47497
vt 0.94263 0.51581
vt 0.94263 0.55665
vt 0.94873 0.37855
vt 0.94873 0.41939
vt 0.94873 0.46023
vt 0.94873 0.50506
vt 0.94873 0.54589
vt 0.94873 0.58673
vt 0.95189 0.92449
vt 0.95189 0.95150
vt 0.95266 0.60425
vt 0.95266 0.63127
vt 0.95307 0.09856
vt 0.95307 0.11207
vt 0.96362 0.93124
vt 0.96362 0.94475
vt 0.96439 0.61100
vt 0.96439 0.62451
vt 0.96480 0.00000
vt 0.96480 0.08105
vt 0.96480 0.13205
vt 0.96480 0.21310
vt 0.96480 0.22385
vt 0.96480 0.30491
vt 0.97630 0.66933
vt 0.97630 0.70986
vt 0.97630 0.76114
vt 0.97630 0.80166
vt 0.97630 0.85294
vt 0.97630 0.89347
vt 1.00000 0.02026
vt 1.00000 0.06079
vt 1.00000 0.15231
vt 1.00000 0.19284
vt 1.00000 0.24412
vt 1.00000 0.28464
s 0
usemtl Platformer_brick
f 1/10/14 3/9/14 8/107/14
f 1/10/14 8/107/14 7/108/14
f 1/10/6 2/1/6 3/9/6
f 10/161/16 12/167/16 6/168/16
f 10/161/16 6/168/16 5/162/16
f 10/161/9 11/165/9 12/167/9
f 10/4/3 16/105/3 22/106/3
f 10/4/3 5/3/3 16/105/3
f 11/210/5 20/215/5 9/216/5
f 11/210/5 24/209/5 20/215/5
f 13/11/10 14/12/10 15/2/10
f 13/11/24 15/2/24 2/1/24
f 13/11/24 2/1/24 1/10/24
f 15/196/23 14/194/23 18/186/23
f 15/196/23 18/186/23 17/188/23
f 16/139/11 17/147/11 18/151/11
f 16/139/22 18/151/22 23/152/22
f 16/139/22 23/152/22 22/140/22
f 17/188/1 2/195/1 15/196/1
f 17/188/1 4/187/1 2/195/1
f 19/109/12 20/132/12 21/110/12
f 19/109/21 14/12/21 13/11/21
f 19/109/21 21/110/21 14/12/21
f 19/109/26 1/10/26 7/108/26
f 19/109/26 13/11/26 1/10/26
f 21/213/20 20/215/20 24/209/20
f 21/213/20 24/209/20 23/207/20
f 22/140/13 23/152/13 24/148/13
f 22/201/19 11/210/19 10/202/19
f 22/201/19 24/209/19 11/210/19
f 23/152/2 14/155/2 21/156/2
f 23/152/2 18/151/2 14/155/2
f 4/166/7 5/162/7 6/168/7
f 4/187/15 3/193/15 2/195/15
f 4/187/15 6/185/15 3/193/15
f 5/179/25 17/188/25 16/180/25
f 5/179/25 4/187/25 17/188/25
f 6/168/4 12/167/4 8/171/4
f 6/168/4 8/171/4 3/172/4
f 7/108/18 20/132/18 19/109/18
f 7/108/18 9/131/18 20/132/18
f 7/108/8 8/107/8 9/131/8
f 9/216/17 12/208/17 11/210/17
f 9/216/17 8/214/17 12/208/17
usemtl Platformer_brick_glazed
f 25/126/14 27/125/14 32/285/14
f 25/126/14 32/285/14 31/286/14
f 25/126/27 26/111/27 27/125/27
f 26/336/15 28/330/15 30/328/15
f 26/336/15 30/328/15 27/332/15
f 28/315/28 29/312/28 30/317/28
f 29/325/25 28/330/25 41/331/25
f 29/325/25 41/331/25 40/326/25
f 30/317/4 32/319/4 27/320/4
f 30/317/4 36/316/4 32/319/4
f 31/286/18 33/290/18 44/291/18
f 31/286/18 44/291/18 43/287/18
f 31/286/29 32/285/29 33/290/29
f 34/220/3 29/219/3 40/457/3
f 34/220/3 40/457/3 46/458/3
f 34/311/16 30/317/16 29/312/16
f 34/311/16 36/316/16 30/317/16
f 34/311/30 35/314/30 36/316/30
f 35/411/17 32/413/17 36/407/17
f 35/411/17 33/415/17 32/413/17
f 35/411/5 44/414/5 33/415/5
f 35/411/5 48/410/5 44/414/5
f 37/127/24 26/111/24 25/126/24
f 37/127/24 39/112/24 26/111/24
f 37/127/31 38/128/31 39/112/31
f 40/295/22 42/301/22 47/302/22
f 40/295/22 47/302/22 46/296/22
f 40/295/32 41/299/32 42/301/32
f 41/331/1 26/336/1 39/337/1
f 41/331/1 28/330/1 26/336/1
f 41/331/23 38/333/23 42/329/23
f 41/331/23 39/337/23 38/333/23
f 43/287/21 38/128/21 37/127/21
f 43/287/21 45/288/21 38/128/21
f 43/287/26 25/126/26 31/286/26
f 43/287/26 37/127/26 25/126/26
f 43/287/33 44/291/33 45/288/33
f 46/296/34 47/302/34 48/300/34
f 46/348/19 35/411/19 34/349/19
f 46/348/19 48/410/19 35/411/19
f 47/302/2 38/303/2 45/304/2
f 47/302/2 42/301/2 38/303/2
f 47/406/20 44/414/20 48/410/20
f 47/406/20 45/412/20 44/414/20
usemtl Platformer_sky_metal
f 100/546/36 101/573/36 99/525/36
f 100/546/36 102/555/36 101/573/36
f 102/28/3 100/29/3 98/25/3
f 102/512/37 103/509/37 101/472/37
f 102/512/37 104/521/37 103/509/37
f 103/452/26 105/478/26 107/517/26
f 104/521/38 105/549/38 103/509/38
f 104/521/38 106/534/38 105/549/38
f 106/19/3 104/24/3 102/28/3
f 106/31/39 107/41/39 105/27/39
f 106/31/39 108/35/39 107/41/39
f 107/517/26 97/518/26 99/479/26
f 108/289/40 97/306/40 107/278/40
f 108/289/40 98/294/40 97/306/40
f 121/21/35 122/26/35 124/30/35
f 121/21/35 124/30/35 123/34/35
f 122/164/3 130/159/3 126/169/3
f 122/164/3 132/160/3 130/159/3
f 123/628/26 125/586/26 127/585/26
f 123/628/26 127/585/26 131/669/26
f 124/48/36 125/55/36 123/42/36
f 124/48/36 126/53/36 125/55/36
f 126/169/3 124/170/3 122/164/3
f 126/177/37 127/175/37 125/157/37
f 126/177/37 128/183/37 127/175/37
f 127/585/26 129/627/26 131/669/26
f 128/183/38 129/199/38 127/175/38
f 128/183/38 130/191/38 129/199/38
f 130/159/3 128/163/3 126/169/3
f 130/251/39 131/263/39 129/247/39
f 130/251/39 132/253/39 131/263/39
f 131/669/26 121/670/26 123/628/26
f 132/22/40 121/21/40 131/5/40
f 132/22/40 122/26/40 121/21/40
f 145/439/47 146/448/47 148/455/47
f 145/439/47 148/455/47 147/459/47
f 146/433/3 154/422/3 150/427/3
f 146/433/3 156/428/3 154/422/3
f 147/249/26 149/248/26 151/256/26
f 147/249/26 151/256/26 155/272/26
f 148/430/48 149/445/48 147/419/48
f 148/430/48 150/435/48 149/445/48
f 150/427/3 148/432/3 146/433/3
f 150/444/49 151/440/49 149/418/49
f 150/444/49 152/449/49 151/440/49
f 151/256/26 153/271/26 155/272/26
f 151/440/50 152/449/50 154/456/50
f 151/440/50 154/456/50 153/460/50
f 154/137/51 155/154/51 153/113/51
f 154/137/51 156/146/51 155/154/51
f 154/422/3 152/421/3 150/427/3
f 155/272/26 145/257/26 147/249/26
f 156/443/52 145/439/52 155/417/52
f 156/443/52 146/448/52 145/439/52
f 170/204/3 178/197/3 174/211/3
f 170/204/3 180/198/3 178/197/3
f 170/231/35 171/243/35 169/224/35
f 170/231/35 172/237/35 171/243/35
f 171/630/26 173/588/26 175/587/26
f 171/630/26 175/587/26 179/671/26
f 172/269/36 173/292/36 171/266/36
f 172/269/36 174/277/36 173/292/36
f 174/211/3 172/212/3 170/204/3
f 174/49/37 175/47/37 173/38/37
f 174/49/37 176/52/37 175/47/37
f 175/47/38 176/52/38 178/54/38
f 175/47/38 178/54/38 177/56/38
f 175/587/26 177/629/26 179/671/26
f 178/197/3 176/203/3 174/211/3
f 178/64/39 179/75/39 177/60/39
f 178/64/39 180/68/39 179/75/39
f 179/671/26 169/672/26 171/630/26
f 180/226/40 169/224/40 179/205/40
f 180/226/40 170/231/40 169/224/40
f 194/46/3 202/43/3 198/50/3
f 194/46/3 204/44/3 202/43/3
f 194/491/35 195/516/35 193/476/35
f 194/491/35 196/504/35 195/516/35
f 195/664/26 197/609/26 199/608/26
f 195/664/26 199/608/26 203/675/26
f 196/81/36 197/89/36 195/78/36
f 196/81/36 198/85/36 197/89/36
f 198/50/3 196/51/3 194/46/3
f 198/63/37 199/72/37 197/59/37
f 198/63/37 200/67/37 199/72/37
f 199/608/26 201/663/26 203/675/26
f 199/72/38 200/67/38 202/71/38
f 199/72/38 202/71/38 201/82/38
f 202/310/39 203/327/39 201/297/39
f 202/310/39 204/318/39 203/327/39
f 202/43/3 200/45/3 198/50/3
f 203/675/26 193/676/26 195/664/26
f 204/483/40 193/476/40 203/451/40
f 204/483/40 194/491/40 193/476/40
f 218/232/35 219/244/35 217/225/35
f 218/232/35 220/238/35 219/244/35
f 218/656/3 226/625/3 222/661/3
f 218/656/3 228/626/3 226/625/3
f 219/280/26 221/279/26 223/308/26
f 219/280/26 223/308/26 227/342/26
f 220/96/36 221/103/36 219/90/36
f 220/96/36 222/101/36 221/103/36
f 222/505/37 223/499/37 221/461/37
f 222/505/37 224/520/37 223/499/37
f 222/661/3 220/662/3 218/656/3
f 223/308/26 225/341/26 227/342/26
f 224/520/38 225/543/38 223/499/38
f 224/520/38 226/531/38 225/543/38
f 226/577/39 227/604/39 225/557/39
f 226/577/39 228/595/39 227/604/39
f 226/625/3 224/655/3 222/661/3
f 227/206/40 218/232/40 217/225/40
f 227/206/40 228/227/40 218/232/40
f 227/342/26 217/309/26 219/280/26
f 242/492/35 243/548/35 241/511/35
f 242/492/35 244/507/35 243/548/35
f 242/74/3 250/69/3 246/76/3
f 242/74/3 252/70/3 250/69/3
f 243/612/26 245/665/26 247/677/26
f 243/612/26 247/677/26 251/666/26
f 244/431/36 245/446/36 243/420/36
f 244/431/36 246/436/36 245/446/36
f 246/76/3 244/77/3 242/74/3
f 246/97/37 247/95/37 245/86/37
f 246/97/37 248/100/37 247/95/37
f 247/677/26 249/678/26 251/666/26
f 248/100/38 249/104/38 247/95/38
f 248/100/38 250/102/38 249/104/38
f 250/578/39 251/605/39 249/558/39
f 250/578/39 252/596/39 251/605/39
f 250/69/3 248/73/3 246/76/3
f 251/666/26 241/613/26 243/612/26
f 252/485/40 241/511/40 251/471/40
f 252/485/40 242/492/40 241/511/40
f 50/264/35 51/270/35 49/255/35
f 50/264/35 52/267/35 51/270/35
f 50/599/3 58/591/3 54/606/3
f 50/599/3 60/592/3 58/591/3
f 51/589/26 53/631/26 55/673/26
f 51/589/26 55/673/26 59/632/26
f 52/570/36 53/600/36 51/552/36
f 52/570/36 54/582/36 53/600/36
f 54/474/37 55/501/37 53/462/37
f 54/474/37 56/487/37 55/501/37
f 54/606/3 52/607/3 50/599/3
f 55/673/26 57/674/26 59/632/26
f 56/487/38 57/544/38 55/501/38
f 56/487/38 58/497/38 57/544/38
f 58/545/39 59/572/39 57/524/39
f 58/545/39 60/554/39 59/572/39
f 58/591/3 56/598/3 54/606/3
f 59/632/26 49/590/26 51/589/26
f 60/258/40 49/255/40 59/246/40
f 60/258/40 50/264/40 49/255/40
f 74/490/35 75/515/35 73/475/35
f 74/490/35 76/503/35 75/515/35
f 74/94/3 82/91/3 78/98/3
f 74/94/3 84/92/3 82/91/3
f 75/615/26 77/614/26 79/667/26
f 75/615/26 79/667/26 83/680/26
f 76/571/36 77/601/36 75/553/36
f 76/571/36 78/583/36 77/601/36
f 77/158/37 78/178/37 80/184/37
f 77/158/37 80/184/37 79/176/37
f 78/98/3 76/99/3 74/94/3
f 79/667/26 81/679/26 83/680/26
f 80/184/38 81/200/38 79/176/38
f 80/184/38 82/192/38 81/200/38
f 82/15/39 83/23/39 81/6/39
f 82/15/39 84/18/39 83/23/39
f 82/91/3 80/93/3 78/98/3
f 83/680/26 73/668/26 75/615/26
f 84/482/40 73/475/40 83/450/40
f 84/482/40 74/490/40 73/475/40
f 97/306/35 100/305/35 99/339/35
f 97/306/35 98/294/35 100/305/35
f 98/25/3 106/19/3 102/28/3
f 98/25/3 108/20/3 106/19/3
f 99/479/26 101/453/26 103/452/26
f 99/479/26 103/452/26 107/517/26
usemtl Platformer_gold
f 109/447/41 112/442/41 111/454/41
f 109/447/60 110/441/60 112/442/60
f 110/389/3 118/351/3 114/370/3
f 110/389/3 120/371/3 118/351/3
f 111/33/26 113/32/26 115/36/26
f 111/33/26 115/36/26 119/40/26
f 112/537/42 113/547/42 111/530/42
f 112/537/42 114/539/42 113/547/42
f 114/239/43 115/245/43 113/240/43
f 114/239/43 116/241/43 115/245/43
f 114/370/3 112/388/3 110/389/3
f 115/245/44 116/241/44 118/242/44
f 115/245/44 118/242/44 117/250/44
f 115/36/26 117/39/26 119/40/26
f 118/351/3 116/350/3 114/370/3
f 118/502/45 119/513/45 117/493/45
f 118/502/45 120/506/45 119/513/45
f 119/40/26 109/37/26 111/33/26
f 120/437/46 109/447/46 119/438/46
f 120/437/46 110/441/46 109/447/46
f 134/338/41 135/416/41 133/347/41
f 134/338/41 136/340/41 135/416/41
f 134/403/3 142/365/3 138/384/3
f 134/403/3 144/385/3 142/365/3
f 135/174/26 137/173/26 139/181/26
f 135/174/26 139/181/26 143/190/26
f 136/580/42 137/593/42 135/576/42
f 136/580/42 138/581/42 137/593/42
f 138/259/43 139/254/43 137/252/43
f 138/259/61 140/260/61 139/254/61
f 138/384/3 136/402/3 134/403/3
f 139/181/26 141/189/26 143/190/26
f 140/260/44 141/262/44 139/254/44
f 140/260/44 142/261/44 141/262/44
f 142/365/3 140/364/3 138/384/3
f 142/637/45 143/651/45 141/621/45
f 142/637/45 144/645/45 143/651/45
f 143/190/26 133/182/26 135/174/26
f 144/334/46 133/347/46 143/335/46
f 144/334/62 134/338/62 133/347/62
f 158/401/3 166/363/3 162/382/3
f 158/401/3 168/383/3 166/363/3
f 158/468/53 159/489/53 157/480/53
f 158/468/53 160/470/53 159/489/53
f 159/640/26 161/611/26 163/610/26
f 159/640/26 163/610/26 167/657/26
f 160/345/54 161/408/54 159/343/54
f 160/345/54 162/368/54 161/408/54
f 162/114/55 163/134/55 161/115/55
f 162/114/55 164/122/55 163/134/55
f 162/382/63 160/400/63 158/401/63
f 163/610/26 165/639/26 167/657/26
f 164/122/56 165/142/56 163/134/56
f 164/122/56 166/124/56 165/142/56
f 166/363/3 164/362/3 162/382/3
f 166/508/57 167/519/57 165/496/57
f 166/508/57 168/510/57 167/519/57
f 167/657/26 157/658/26 159/640/26
f 168/463/58 157/480/58 167/464/58
f 168/463/58 158/468/58 157/480/58
f 182/274/41 183/276/41 181/268/41
f 182/274/41 184/275/41 183/276/41
f 182/405/3 190/367/3 186/386/3
f 182/405/3 192/387/3 190/367/3
f 183/218/26 185/217/26 187/222/26
f 183/218/26 187/222/26 191/230/26
f 184/638/42 185/652/42 183/622/42
f 184/638/42 186/646/42 185/652/42
f 186/386/3 184/404/3 182/405/3
f 186/423/43 187/429/43 185/424/43
f 186/423/61 188/425/61 187/429/61
f 187/222/26 189/229/26 191/230/26
f 188/425/44 189/434/44 187/429/44
f 188/425/44 190/426/44 189/434/44
f 190/367/3 188/366/3 186/386/3
f 190/602/45 191/616/45 189/597/45
f 190/602/45 192/603/45 191/616/45
f 191/230/26 181/223/26 183/218/26
f 192/273/46 181/268/46 191/265/46
f 192/273/62 182/274/62 181/268/62
f 205/293/41 206/283/41 208/284/41
f 205/293/41 208/284/41 207/298/41
f 206/391/3 214/353/3 210/372/3
f 206/391/3 216/373/3 214/353/3
f 207/58/26 209/57/26 211/61/26
f 207/58/26 211/61/26 215/66/26
f 208/532/42 209/540/42 207/522/42
f 208/532/42 210/533/42 209/540/42
f 210/372/3 208/390/3 206/391/3
f 210/465/43 211/477/43 209/466/43
f 210/465/43 212/467/43 211/477/43
f 211/477/44 214/469/44 213/488/44
f 211/477/59 212/467/59 214/469/59
f 211/61/26 213/65/26 215/66/26
f 214/353/3 212/352/3 210/372/3
f 214/633/45 215/647/45 213/617/45
f 214/633/45 216/641/45 215/647/45
f 215/66/26 205/62/26 207/58/26
f 216/281/46 205/293/46 215/282/46
f 216/281/46 206/283/46 205/293/46
f 229/542/41 230/528/41 232/529/41
f 229/542/41 232/529/41 231/551/41
f 230/379/3 238/358/3 234/396/3
f 230/379/3 240/359/3 238/358/3
f 231/120/26 233/119/26 235/135/26
f 231/120/26 235/135/26 239/144/26
f 231/618/42 232/634/42 234/642/42
f 231/618/42 234/642/42 233/648/42
f 234/396/3 232/397/3 230/379/3
f 234/565/43 235/579/43 233/566/43
f 234/565/43 236/567/43 235/579/43
f 235/135/26 237/143/26 239/144/26
f 236/567/44 237/594/44 235/579/44
f 236/567/44 238/569/44 237/594/44
f 237/619/45 238/635/45 240/643/45
f 237/619/45 240/643/45 239/649/45
f 238/358/3 236/378/3 234/396/3
f 239/144/26 229/136/26 231/120/26
f 240/526/46 229/542/46 239/527/46
f 240/526/46 230/528/46 229/542/46
f 253/313/41 256/323/41 255/324/41
f 253/313/60 254/322/60 256/323/60
f 254/399/3 262/361/3 258/380/3
f 254/399/3 264/381/3 262/361/3
f 255/80/26 257/79/26 259/83/26
f 255/80/26 259/83/26 263/88/26
f 256/636/42 257/650/42 255/620/42
f 256/636/42 258/644/42 257/650/42
f 258/116/43 259/133/43 257/117/43
f 258/116/43 260/121/43 259/133/43
f 258/380/3 256/398/3 254/399/3
f 259/133/44 260/121/44 262/123/44
f 259/133/44 262/123/44 261/141/44
f 259/83/26 261/87/26 263/88/26
f 262/346/45 263/409/45 261/344/45
f 262/346/45 264/369/45 263/409/45
f 262/361/3 260/360/3 258/380/3
f 263/307/46 254/322/46 253/313/46
f 263/307/46 264/321/46 254/322/46
f 263/88/26 253/84/26 255/80/26
f 61/550/41 62/538/41 64/541/41
f 61/550/41 64/541/41 63/562/41
f 62/393/3 70/355/3 66/374/3
f 62/393/3 72/375/3 70/355/3
f 63/8/26 65/7/26 67/13/26
f 63/8/26 67/13/26 71/17/26
f 64/481/42 65/486/42 63/473/42
f 64/481/42 66/484/42 65/486/42
f 65/221/43 66/233/43 68/234/43
f 65/221/43 68/234/43 67/228/43
f 66/374/3 64/392/3 62/393/3
f 67/13/26 69/16/26 71/17/26
f 67/228/44 70/235/44 69/236/44
f 67/228/59 68/234/59 70/235/59
f 70/129/45 71/138/45 69/118/45
f 70/129/45 72/130/45 71/138/45
f 70/355/3 68/354/3 66/374/3
f 71/17/26 61/14/26 63/8/26
f 72/535/46 61/550/46 71/536/46
f 72/535/46 62/538/46 61/550/46
f 86/377/3 94/356/3 90/394/3
f 86/377/3 96/357/3 94/356/3
f 86/561/41 87/584/41 85/575/41
f 86/561/41 88/563/41 87/584/41
f 87/145/42 88/149/42 90/150/42
f 87/145/42 90/150/42 89/153/42
f 87/624/26 89/623/26 91/653/26
f 87/624/26 91/653/26 95/660/26
f 90/394/3 88/395/3 86/377/3
f 90/494/43 91/514/43 89/495/43
f 90/494/43 92/498/43 91/514/43
f 91/514/44 92/498/44 94/500/44
f 91/514/44 94/500/44 93/523/44
f 91/653/26 93/659/26 95/660/26
f 93/556/45 94/564/45 96/568/45
f 93/556/45 96/568/45 95/574/45
f 94/356/3 92/376/3 90/394/3
f 95/660/26 85/654/26 87/624/26
f 96/559/46 85/575/46 95/560/46
f 96/559/46 86/561/46 85/575/46
