# Blender 4.0.2
# www.blender.org
mtllib spike_hazard_lod1.mtl
o spike_hazard_lod1
v 0.473607 0.009344 -0.489508
v 0.496774 0.072473 -0.485054
v 0.496774 0.027527 0.485054
v 0.473607 0.090656 0.489508
v -0.496774 0.027527 -0.485054
v -0.473607 0.090656 -0.489508
v -0.473607 0.009344 0.489508
v -0.496774 0.072473 0.485054
v 0.445000 0.118182 -0.445000
v 0.445000 0.121818 0.445000
v -0.445000 0.121818 -0.445000
v -0.445000 0.118182 0.445000
v 0.300000 0.140000 -0.180000
v 0.262123 0.478676 -0.286879
v 0.196077 0.140000 -0.240000
v 0.196077 0.140000 -0.360000
v 0.300000 0.140000 -0.420000
v 0.403923 0.140000 -0.360000
v 0.403923 0.140000 -0.240000
v 0.337637 0.479722 -0.313038
v 0.300000 0.476000 -0.260000
v 0.259942 0.478010 -0.305337
v 0.300000 0.561435 -0.300000
v 0.333483 0.479121 -0.319331
v 0.000000 0.140000 -0.180000
v -0.034242 0.477935 -0.280230
v -0.103923 0.140000 -0.240000
v -0.103923 0.140000 -0.360000
v 0.000000 0.140000 -0.420000
v 0.000000 0.476000 -0.340000
v 0.103923 0.140000 -0.360000
v 0.103923 0.140000 -0.240000
v 0.040638 0.477237 -0.294586
v -0.040058 0.478010 -0.294663
v -0.000000 0.561435 -0.300000
v 0.000000 0.476000 -0.340000
v 0.033041 0.480311 -0.280924
v -0.300000 0.140000 -0.180000
v -0.403923 0.140000 -0.240000
v -0.334641 0.476000 -0.280000
v -0.403923 0.140000 -0.360000
v -0.300000 0.140000 -0.420000
v -0.315659 0.476929 -0.337971
v -0.196077 0.140000 -0.360000
v -0.265758 0.477935 -0.280230
v -0.196077 0.140000 -0.240000
v -0.328851 0.481882 -0.275014
v -0.300000 0.561435 -0.300000
v -0.270620 0.480279 -0.325444
v 0.300000 0.140000 0.120000
v 0.319726 0.476585 0.034166
v 0.196077 0.140000 0.060000
v 0.196077 0.140000 -0.060000
v 0.257136 0.477696 0.000000
v 0.300000 0.140000 -0.120000
v 0.403923 0.140000 -0.060000
v 0.325054 0.476929 -0.032546
v 0.403923 0.140000 0.060000
v 0.271149 0.481882 0.024986
v 0.300000 0.561435 -0.000000
v 0.329380 0.480279 -0.025444
v 0.000000 0.140000 0.120000
v 0.038050 0.542285 0.013181
v -0.103923 0.140000 0.060000
v -0.103923 0.140000 -0.060000
v 0.000000 0.140000 -0.120000
v -0.037877 0.543185 -0.013121
v 0.103923 0.140000 -0.060000
v 0.103923 0.140000 0.060000
v -0.037183 0.543773 -0.012881
v 0.036685 0.545212 0.012708
v -0.000000 0.641303 0.000000
v -0.300000 0.140000 0.120000
v -0.403923 0.140000 0.060000
v -0.325082 0.476744 0.032582
v -0.403923 0.140000 -0.060000
v -0.300000 0.140000 -0.120000
v -0.319709 0.476731 -0.034137
v -0.196077 0.140000 -0.060000
v -0.196077 0.140000 0.060000
v -0.257136 0.477696 0.000000
v -0.328851 0.481882 0.024986
v -0.300000 0.561435 0.000000
v -0.270620 0.480279 -0.025444
v 0.300000 0.140000 0.420000
v 0.315676 0.476744 0.338013
v 0.196077 0.140000 0.360000
v 0.196077 0.140000 0.240000
v 0.300000 0.140000 0.180000
v 0.265915 0.478697 0.280321
v 0.403923 0.140000 0.240000
v 0.334641 0.476000 0.280000
v 0.403923 0.140000 0.360000
v 0.270620 0.480279 0.274556
v 0.300000 0.561435 0.300000
v 0.328851 0.481882 0.324986
v 0.000000 0.140000 0.420000
v 0.000000 0.476000 0.340000
v -0.103923 0.140000 0.360000
v -0.103923 0.140000 0.240000
v -0.040638 0.477237 0.294586
v 0.000000 0.140000 0.180000
v 0.103923 0.140000 0.240000
v 0.103923 0.140000 0.360000
v 0.034085 0.478697 0.280321
v -0.033483 0.479121 0.280669
v 0.000000 0.561435 0.300000
v 0.031582 0.484242 0.318234
v -0.300000 0.140000 0.420000
v -0.269698 0.478676 0.326242
v -0.403923 0.140000 0.360000
v -0.403923 0.140000 0.240000
v -0.300000 0.140000 0.180000
v -0.330110 0.479722 0.273924
v -0.196077 0.140000 0.240000
v -0.196077 0.140000 0.360000
v -0.333041 0.480311 0.319076
v -0.300000 0.561435 0.300000
v -0.300000 0.476000 0.260000
v -0.259942 0.478010 0.305337
vn -0.4886 0.2124 0.8463
vn -0.9815 0.1914 -0.0000
vn 0.4886 0.2123 -0.8463
vn 0.9815 0.1915 -0.0000
vn -0.7084 0.2993 0.6392
vn -0.1870 0.1519 -0.9706
vn 0.8427 0.2283 0.4876
vn -0.4897 0.2019 0.8482
vn -0.9794 0.2019 -0.0000
vn 0.9828 0.1844 -0.0000
vn -0.1872 0.1520 0.9705
vn -0.7084 0.2993 -0.6392
vn 0.8425 0.2284 -0.4879
vn -0.4914 0.1844 -0.8512
vn 0.9794 0.2019 -0.0000
vn 0.4897 0.2019 0.8482
vn -0.6547 -0.0000 -0.7559
vn 0.6547 -0.0000 0.7559
vn -0.9840 0.1779 -0.0000
vn 0.4914 0.1844 -0.8512
vn 0.0143 0.9999 0.0063
vn 0.4911 0.1881 0.8506
vn -0.9868 0.1617 -0.0000
vn -0.4919 0.1796 -0.8519
vn 0.9869 0.1616 -0.0000
vn 0.4919 0.1797 0.8519
vn -0.3273 -0.0000 0.9449
vn 0.3273 -0.0000 -0.9449
vn -0.4914 0.1844 0.8512
vn -0.4911 0.1881 -0.8506
vn 0.9840 0.1779 -0.0000
vn -0.4897 0.2019 -0.8482
vn 0.4914 0.1844 0.8512
vn -0.6547 -0.0000 0.7559
vn 0.6547 -0.0000 -0.7559
vn -0.9828 0.1844 -0.0000
vn 0.4897 0.2019 -0.8482
vn -0.0122 0.9992 0.0382
vn -0.5000 -0.0000 0.8660
vn 0.5000 -0.0000 -0.8660
vn 0.0059 0.0682 -0.9977
vn -0.9772 0.2123 -0.0000
vn -0.4907 0.1915 -0.8500
vn 0.9772 0.2124 -0.0000
vn 0.4908 0.1914 0.8500
vn -0.8425 0.2284 -0.4879
vn 0.7084 0.2993 -0.6392
vn 0.1872 0.1520 0.9705
vn 0.0188 0.9997 -0.0182
vn -0.0059 0.0682 0.9977
vn -0.0188 -0.9997 -0.0182
vn 0.9390 -0.3435 -0.0159
vn 0.9390 0.3435 0.0159
vn -0.9390 -0.3435 0.0159
vn -0.9390 0.3435 -0.0159
vn 0.0041 1.0000 0.0041
vn -0.0041 -1.0000 0.0041
vn -0.3144 0.3166 -0.8949
vn 0.3065 0.3175 0.8974
vn -0.0000 -1.0000 -0.0000
vn -0.8278 0.2848 -0.4834
vn 0.0057 -0.9988 -0.0493
vn 0.7160 0.2600 -0.6478
vn 0.1825 0.2965 0.9374
vn 0.0035 0.9995 -0.0304
vn -0.0048 0.2848 0.9586
vn 0.0198 -0.9979 0.0617
vn -0.9189 0.2601 -0.2967
vn 0.7200 0.2966 -0.6274
vn -0.0281 0.9996 0.0068
vn -0.4624 0.2355 0.8548
vn -0.4152 0.2574 -0.8726
vn 0.9657 0.2476 0.0784
vn -0.3122 0.2713 0.9105
vn 0.3180 0.2707 -0.9086
vn -0.9658 0.2475 -0.0778
vn 0.4626 0.2355 -0.8547
vn 0.4149 0.2575 0.8727
vn -0.0147 0.9999 -0.0014
vn -0.7183 0.2962 0.6296
vn 0.0067 0.2846 -0.9586
vn 0.9187 0.2602 0.2970
vn 0.0392 0.9992 -0.0000
vn -0.7160 0.2600 0.6478
vn -0.1847 0.2962 -0.9371
vn 0.8268 0.2846 0.4851
vn -0.6178 0.3166 0.7197
vn 0.6239 0.3175 -0.7141
vn -0.0198 -0.9979 0.0617
vn -0.0059 -0.0682 -0.9977
vn -0.0188 0.9997 0.0182
vn 0.0059 -0.0682 0.9977
vn 0.0188 -0.9997 0.0182
vn -0.0041 1.0000 -0.0041
vn 0.0041 -1.0000 -0.0041
vn -0.4809 0.2736 -0.8330
vn 0.4810 0.2730 0.8331
vn 0.4868 0.2278 0.8432
vn 0.4868 0.2279 -0.8432
vn -0.4851 0.2427 0.8401
vn -0.4857 0.2373 -0.8413
vn 0.9737 0.2279 -0.0000
vn -0.4863 0.2324 0.8423
vn 0.4863 0.2328 -0.8422
vn -0.9737 0.2280 -0.0000
vn 0.4851 0.2426 -0.8401
vn 0.4857 0.2373 0.8413
vn -0.4868 0.2280 0.8432
vn -0.4868 0.2278 -0.8432
vn -0.4809 0.2736 0.8330
vn 0.4810 0.2730 -0.8331
vt 0.00000 0.34847
vt 0.00000 0.66593
vt 0.00000 0.78705
vt 0.00000 0.92170
vt 0.00000 0.94416
vt 0.00527 0.01013
vt 0.00741 0.33251
vt 0.01016 0.00000
vt 0.01173 0.95947
vt 0.01977 0.94171
vt 0.02215 0.80595
vt 0.03448 0.79520
vt 0.03826 0.95077
vt 0.04064 0.92170
vt 0.04231 0.67804
vt 0.05026 0.93492
vt 0.05142 0.92170
vt 0.05771 0.95272
vt 0.05987 0.67940
vt 0.06992 0.79520
vt 0.07425 0.80595
vt 0.08070 0.78705
vt 0.09207 0.92170
vt 0.10285 0.92170
vt 0.10285 0.93921
vt 0.11031 0.95701
vt 0.11518 0.79520
vt 0.12230 0.94117
vt 0.12301 0.67804
vt 0.12317 0.80595
vt 0.14057 0.67940
vt 0.14349 0.92170
vt 0.15061 0.79520
vt 0.16140 0.79520
vt 0.16140 0.92170
vt 0.17735 0.67940
vt 0.18172 0.80595
vt 0.19475 0.67668
vt 0.19684 0.79520
vt 0.20204 0.92170
vt 0.21282 0.92170
vt 0.22649 0.95024
vt 0.23131 0.78705
vt 0.23450 0.93246
vt 0.23564 0.80595
vt 0.24210 0.78705
vt 0.24624 0.94777
vt 0.25346 0.92170
vt 0.26425 0.92170
vt 0.26425 0.94779
vt 0.27598 0.93246
vt 0.27658 0.79520
vt 0.28326 0.67777
vt 0.28402 0.95022
vt 0.28640 0.80595
vt 0.30197 0.67940
vt 0.30489 0.92170
vt 0.31201 0.79520
vt 0.31835 0.34847
vt 0.31835 0.66593
vt 0.32851 0.33772
vt 0.32914 0.79988
vt 0.32914 0.88961
vt 0.33043 0.85832
vt 0.33047 0.81096
vt 0.33126 0.00521
vt 0.33211 0.64849
vt 0.33213 0.84665
vt 0.33316 0.35158
vt 0.33340 0.32759
vt 0.34063 0.88691
vt 0.35019 0.66317
vt 0.35119 0.88163
vt 0.35157 0.84033
vt 0.35419 0.00526
vt 0.36080 0.33033
vt 0.36940 0.01013
vt 0.36978 0.79988
vt 0.38056 0.77354
vt 0.38056 0.90282
vt 0.38484 0.92601
vt 0.38643 0.94536
vt 0.39045 0.00526
vt 0.39706 0.33033
vt 0.40403 0.93523
vt 0.40566 0.01013
vt 0.41504 0.78169
vt 0.41504 0.91097
vt 0.41712 0.66317
vt 0.41712 0.79245
vt 0.42774 0.32759
vt 0.42862 0.79516
vt 0.43277 0.00521
vt 0.43612 0.66589
vt 0.44043 0.79516
vt 0.44353 0.33251
vt 0.44725 0.01013
vt 0.44906 0.93523
vt 0.45048 0.78169
vt 0.45048 0.91097
vt 0.46126 0.77354
vt 0.46126 0.90282
vt 0.46380 0.32759
vt 0.46665 0.92510
vt 0.46825 0.94444
vt 0.46883 0.00521
vt 0.47959 0.33251
vt 0.48330 0.01013
vt 0.49409 0.00000
vt 0.49409 0.29179
vt 0.49409 0.32622
vt 0.49574 0.78169
vt 0.49574 0.91097
vt 0.49782 0.66317
vt 0.49782 0.79245
vt 0.50932 0.79516
vt 0.51252 0.33335
vt 0.51521 0.30304
vt 0.51683 0.66589
vt 0.52113 0.79516
vt 0.52693 0.33420
vt 0.52823 0.30291
vt 0.53118 0.78169
vt 0.53118 0.91097
vt 0.54196 0.77354
vt 0.54196 0.90819
vt 0.54196 0.93921
vt 0.54196 0.97974
vt 0.54429 0.32856
vt 0.55551 0.79245
vt 0.55977 0.32622
vt 0.56905 0.79245
vt 0.57644 0.78169
vt 0.57716 0.91895
vt 0.57716 1.00000
vt 0.57724 0.33313
vt 0.57852 0.66317
vt 0.58058 0.30291
vt 0.58260 0.90819
vt 0.59261 0.32622
vt 0.59339 0.90819
vt 0.59880 0.66589
vt 0.60693 0.79245
vt 0.61007 0.33312
vt 0.61188 0.78169
vt 0.61235 0.93921
vt 0.61235 0.97974
vt 0.61340 0.30290
vt 0.62048 0.79245
vt 0.62266 0.78169
vt 0.62314 0.93921
vt 0.62314 0.97974
vt 0.62675 0.30291
vt 0.62991 0.64931
vt 0.63055 0.33300
vt 0.63096 0.35239
vt 0.63403 0.90819
vt 0.63861 0.66589
vt 0.64481 0.90819
vt 0.64750 0.32622
vt 0.65601 0.66317
vt 0.65810 0.78169
vt 0.65829 0.32622
vt 0.65833 0.91895
vt 0.65833 1.00000
vt 0.65836 0.79245
vt 0.67190 0.79245
vt 0.67670 0.33335
vt 0.67941 0.30304
vt 0.68545 0.90819
vt 0.69113 0.33420
vt 0.69208 0.30301
vt 0.69258 0.77354
vt 0.69353 0.93921
vt 0.69353 0.97974
vt 0.70897 0.32833
vt 0.72236 0.47986
vt 0.72236 0.63016
vt 0.72236 0.78577
vt 0.72236 0.91227
vt 0.72397 0.33420
vt 0.72495 0.30301
vt 0.74182 0.32832
vt 0.74341 0.64907
vt 0.74451 0.79653
vt 0.75681 0.33420
vt 0.75684 0.48801
vt 0.75684 0.63831
vt 0.75811 0.30291
vt 0.76300 0.78577
vt 0.76300 0.91227
vt 0.76713 0.34983
vt 0.76713 0.50013
vt 0.77378 0.75944
vt 0.77378 0.88871
vt 0.77378 0.92788
vt 0.77378 0.96841
vt 0.77418 0.32856
vt 0.78469 0.35119
vt 0.78469 0.50149
vt 0.78670 0.00000
vt 0.78670 0.29179
vt 0.79227 0.48801
vt 0.79227 0.63831
vt 0.79748 0.11037
vt 0.79748 0.24780
vt 0.79859 0.25893
vt 0.79878 0.30624
vt 0.80051 0.29457
vt 0.80259 0.33633
vt 0.80306 0.46699
vt 0.80306 0.58812
vt 0.80753 0.13199
vt 0.80826 0.76759
vt 0.80826 0.89686
vt 0.80898 0.90762
vt 0.80898 0.98867
vt 0.81034 0.64907
vt 0.81765 0.78007
vt 0.81783 0.35119
vt 0.81954 0.32955
vt 0.81991 0.28825
vt 0.82788 0.12998
vt 0.82993 0.65178
vt 0.83032 0.33753
vt 0.83125 0.30638
vt 0.83196 0.11852
vt 0.83292 0.24780
vt 0.83365 0.78106
vt 0.83405 0.00000
vt 0.83641 0.34847
vt 0.83754 0.59627
vt 0.83849 0.46699
vt 0.84182 0.33483
vt 0.84370 0.76759
vt 0.84370 0.89686
vt 0.84417 0.92788
vt 0.84417 0.96841
vt 0.84693 0.47947
vt 0.85238 0.32955
vt 0.85363 0.00272
vt 0.85448 0.76482
vt 0.85448 0.89132
vt 0.85596 0.25905
vt 0.85941 0.28918
vt 0.86293 0.48046
vt 0.86316 0.33753
vt 0.86446 0.30624
vt 0.86740 0.11852
vt 0.86740 0.23965
vt 0.86803 0.77557
vt 0.87297 0.45884
vt 0.87297 0.59627
vt 0.87466 0.33483
vt 0.87664 0.64907
vt 0.87709 0.28223
vt 0.87818 0.11575
vt 0.87818 0.24780
vt 0.88158 0.77557
vt 0.88376 0.46422
vt 0.88376 0.59349
vt 0.88469 0.60475
vt 0.88522 0.32955
vt 0.88740 0.63505
vt 0.88880 0.25905
vt 0.89149 0.28936
vt 0.89512 0.76482
vt 0.89512 0.89132
vt 0.89850 0.13205
vt 0.90034 0.00000
vt 0.90408 0.34847
vt 0.90581 0.62793
vt 0.90591 0.47775
vt 0.90591 0.66933
vt 0.90591 0.70986
vt 0.90591 0.76114
vt 0.90591 0.80166
vt 0.90591 0.85294
vt 0.90591 0.89347
vt 0.90993 0.28223
vt 0.91882 0.11575
vt 0.91882 0.24780
vt 0.92440 0.46422
vt 0.92440 0.59349
vt 0.92961 0.02026
vt 0.92961 0.06079
vt 0.92961 0.15231
vt 0.92961 0.19284
vt 0.92961 0.24412
vt 0.92961 0.28464
vt 0.94016 0.93980
vt 0.94110 0.64907
vt 0.94110 0.73012
vt 0.94110 0.74087
vt 0.94110 0.82193
vt 0.94110 0.83268
vt 0.94110 0.91373
vt 0.94463 0.61350
vt 0.95189 0.92449
vt 0.95266 0.63127
vt 0.95990 0.94227
vt 0.96439 0.61593
vt 0.96480 0.00000
vt 0.96480 0.08105
vt 0.96480 0.13205
vt 0.96480 0.21310
vt 0.96480 0.22385
vt 0.96480 0.30491
vt 0.97630 0.66933
vt 0.97630 0.70986
vt 0.97630 0.76114
vt 0.97630 0.80166
vt 0.97630 0.85294
vt 0.97630 0.89347
vt 1.00000 0.02026
vt 1.00000 0.06079
vt 1.00000 0.15231
vt 1.00000 0.19284
vt 1.00000 0.24412
vt 1.00000 0.28464
s 0
usemtl Platformer_brick
f 1/6/51 7/70/51 5/7/51
f 1/6/52 2/8/52 3/66/52
f 1/6/93 3/66/93 7/70/93
f 1/97/41 6/91/41 2/93/41
f 1/97/90 5/96/90 6/91/90
f 4/83/53 3/86/53 2/84/53
f 6/59/49 4/2/49 2/1/49
f 6/59/91 8/60/91 4/2/91
f 6/75/55 5/77/55 8/76/55
f 7/108/50 4/103/50 8/106/50
f 7/108/92 3/107/92 4/103/92
f 7/70/54 8/61/54 5/7/54
usemtl Platformer_brick_glazed
f 10/156/57 11/67/57 9/69/57
f 10/156/95 12/154/95 11/67/95
f 12/202/56 9/109/56 11/201/56
f 12/202/94 10/110/94 9/109/94
usemtl Platformer_sky_metal
f 100/151/60 102/164/60 103/174/60
f 101/55/36 100/57/36 99/49/36
f 102/227/109 100/205/109 101/230/109
f 102/227/85 101/230/85 105/241/85
f 103/174/60 104/175/60 97/165/60
f 105/241/37 103/249/37 102/227/37
f 105/271/15 104/283/15 103/260/15
f 105/298/38 101/302/38 98/300/38
f 109/288/60 111/287/60 112/305/60
f 109/288/60 112/305/60 115/318/60
f 110/220/45 109/233/45 116/211/45
f 110/273/44 116/284/44 115/261/44
f 111/252/110 109/233/110 110/220/110
f 111/252/87 110/220/87 114/231/87
f 112/305/60 113/317/60 115/318/60
f 114/185/42 112/191/42 111/180/42
f 114/53/43 113/52/43 112/46/43
f 115/318/60 116/306/60 109/288/60
f 115/58/111 113/52/111 114/53/111
f 115/58/88 114/53/88 110/56/88
f 13/133/59 20/137/59 14/142/59
f 13/133/97 19/125/97 20/137/97
f 13/279/60 15/278/60 16/296/60
f 13/279/60 16/296/60 18/314/60
f 14/142/1 15/145/1 13/133/1
f 14/270/2 16/281/2 15/257/2
f 16/296/60 17/313/60 18/314/60
f 17/228/58 14/213/58 20/223/58
f 17/228/96 16/206/96 14/213/96
f 18/314/60 19/297/60 13/279/60
f 20/223/3 18/250/3 17/228/3
f 20/255/4 19/267/4 18/242/4
f 25/214/64 33/218/64 26/224/64
f 25/214/98 32/194/98 33/218/98
f 25/308/60 27/290/60 28/289/60
f 25/308/60 28/289/60 31/319/60
f 26/224/8 27/235/8 25/214/8
f 26/269/9 28/282/9 27/258/9
f 28/289/60 29/307/60 31/319/60
f 30/92/32 29/88/32 28/80/32
f 30/92/61 28/80/61 26/90/61
f 31/100/37 29/88/37 30/92/37
f 31/100/63 30/92/63 33/95/63
f 31/319/60 32/320/60 25/308/60
f 33/11/10 32/14/10 31/4/10
f 33/50/65 30/51/65 26/54/65
f 38/238/60 39/217/60 41/197/60
f 38/238/60 41/197/60 44/216/60
f 40/161/66 38/162/66 45/158/66
f 40/161/8 39/173/8 38/162/8
f 41/197/60 42/196/60 44/216/60
f 41/268/68 40/251/68 43/259/68
f 41/268/9 39/243/9 40/251/9
f 43/16/70 40/18/70 45/13/70
f 43/239/14 42/232/14 41/212/14
f 44/216/60 46/237/60 38/238/60
f 44/253/69 43/239/69 45/246/69
f 44/253/99 42/232/99 43/239/99
f 45/158/16 38/162/16 46/150/16
f 45/21/15 46/23/15 44/17/15
f 50/310/60 52/293/60 53/275/60
f 50/310/60 53/275/60 56/292/60
f 51/15/22 50/12/22 58/3/22
f 52/20/100 50/12/100 51/15/100
f 52/20/71 51/15/71 54/19/71
f 53/275/60 55/274/60 56/292/60
f 54/30/19 53/32/19 52/24/19
f 55/87/101 53/79/101 54/89/101
f 55/87/72 54/89/72 57/94/72
f 56/292/60 58/309/60 50/310/60
f 57/81/21 54/85/21 51/82/21
f 57/94/20 56/99/20 55/87/20
f 58/139/102 56/126/102 57/130/102
f 58/139/73 57/130/73 51/132/73
f 62/135/60 64/128/60 65/127/60
f 63/192/26 62/187/26 69/177/26
f 63/200/104 68/204/104 66/188/104
f 63/200/75 66/188/75 67/193/75
f 63/72/25 69/78/25 68/62/25
f 65/127/60 66/134/60 68/146/60
f 67/184/23 65/190/23 64/179/23
f 67/193/24 66/188/24 65/178/24
f 67/199/103 64/203/103 62/187/103
f 67/199/74 62/187/74 63/192/74
f 68/146/60 62/135/60 65/127/60
f 68/146/60 69/147/60 62/135/60
f 73/112/107 80/101/107 81/114/107
f 73/112/78 81/114/78 75/119/78
f 73/312/60 74/295/60 76/277/60
f 73/312/60 76/277/60 79/294/60
f 75/119/29 74/123/29 73/112/29
f 76/157/105 74/141/105 75/143/105
f 76/157/76 75/143/76 78/149/76
f 76/277/60 77/276/60 79/294/60
f 78/29/30 77/27/30 76/22/30
f 79/294/60 80/311/60 73/312/60
f 79/33/106 77/27/106 78/29/106
f 79/33/77 78/29/77 81/31/77
f 81/37/31 80/40/31 79/35/31
f 81/98/79 78/104/79 75/105/79
f 85/316/60 87/304/60 88/286/60
f 85/316/60 88/286/60 91/303/60
f 86/219/33 85/215/33 93/195/33
f 87/236/108 85/215/108 86/219/108
f 87/236/80 86/219/80 90/229/80
f 88/286/60 89/285/60 91/303/60
f 90/36/32 89/39/32 88/34/32
f 90/45/9 88/48/9 87/41/9
f 91/303/60 93/315/60 85/316/60
f 92/25/83 90/28/83 86/26/83
f 92/38/37 91/43/37 89/39/37
f 92/38/81 89/39/81 90/36/81
f 93/170/15 91/159/15 92/166/15
f 93/170/82 92/166/82 86/167/82
f 97/165/60 100/151/60 103/174/60
f 97/165/60 99/152/60 100/151/60
f 98/116/16 97/113/16 104/102/16
f 98/116/86 104/102/86 105/115/86
f 99/124/8 97/113/8 98/116/8
f 99/124/84 98/116/84 101/120/84
usemtl Platformer_gold
f 107/265/40 108/280/40 106/266/40
f 108/245/39 107/244/39 106/256/39
f 118/64/46 119/71/46 117/63/46
f 119/71/47 118/64/47 120/73/47
f 120/163/48 118/169/48 117/168/48
f 120/47/89 117/42/89 119/44/89
f 21/254/5 23/248/5 22/263/5
f 21/9/62 22/5/62 24/10/62
f 22/111/6 23/118/6 24/117/6
f 23/248/7 21/254/7 24/247/7
f 35/226/12 36/234/12 34/225/12
f 35/262/11 34/272/11 37/264/11
f 36/234/13 35/226/13 37/240/13
f 37/301/67 34/291/67 36/299/67
f 48/122/17 49/129/17 47/121/17
f 48/189/18 47/198/18 49/186/18
f 60/138/17 61/136/17 59/131/17
f 60/172/18 59/176/18 61/171/18
f 72/207/27 70/222/27 71/209/27
f 72/65/28 71/74/28 70/68/28
f 83/148/18 82/144/18 84/140/18
f 83/182/17 84/183/17 82/181/17
f 94/210/35 95/208/35 96/221/35
f 96/155/34 95/153/34 94/160/34
