# Blender 4.0.2
# www.blender.org
mtllib spring_pad_collision.mtl
o spring_pad_collision
v -0.000000 0.000000 0.458589
v 0.000000 0.040000 0.500000
v 0.000000 0.100000 0.500000
v -0.229294 0.000000 0.397150
v -0.250000 0.040000 0.433013
v -0.250000 0.100000 0.433013
v -0.397150 0.000000 0.229294
v -0.433013 0.040000 0.250000
v -0.433013 0.100000 0.250000
v -0.458589 0.000000 -0.000000
v -0.500000 0.040000 0.000000
v -0.500000 0.100000 0.000000
v -0.397150 0.000000 -0.229294
v -0.433013 0.040000 -0.250000
v -0.433013 0.100000 -0.250000
v -0.229294 0.000000 -0.397150
v -0.250000 0.040000 -0.433013
v -0.250000 0.100000 -0.433013
v 0.000000 0.000000 -0.458589
v 0.000000 0.040000 -0.500000
v 0.000000 0.100000 -0.500000
v 0.229294 0.000000 -0.397150
v 0.250000 0.040000 -0.433013
v 0.250000 0.100000 -0.433013
v 0.397150 0.000000 -0.229294
v 0.433013 0.040000 -0.250000
v 0.433013 0.100000 -0.250000
v 0.458589 0.000000 0.000000
v 0.500000 0.040000 0.000000
v 0.500000 0.100000 0.000000
v 0.397150 0.000000 0.229294
v 0.433013 0.040000 0.250000
v 0.433013 0.100000 0.250000
v 0.229294 0.000000 0.397150
v 0.250000 0.040000 0.433013
v 0.250000 0.100000 0.433013
v 0.000000 0.550000 0.404100
v 0.000000 0.515000 0.440000
v -0.175332 0.550000 0.364081
v -0.190909 0.515000 0.396426
v -0.315938 0.550000 0.251952
v -0.344006 0.515000 0.274336
v -0.393968 0.550000 0.089921
v -0.428968 0.515000 0.097909
v -0.393968 0.550000 -0.089921
v -0.428968 0.515000 -0.097909
v -0.315938 0.550000 -0.251952
v -0.344006 0.515000 -0.274336
v -0.175332 0.550000 -0.364081
v -0.190909 0.515000 -0.396426
v 0.000000 0.550000 -0.404100
v 0.000000 0.515000 -0.440000
v 0.175332 0.550000 -0.364081
v 0.190909 0.515000 -0.396426
v 0.315938 0.550000 -0.251952
v 0.344006 0.515000 -0.274336
v 0.393968 0.550000 -0.089921
v 0.428968 0.515000 -0.097909
v 0.393968 0.550000 0.089921
v 0.428968 0.515000 0.097909
v 0.315938 0.550000 0.251952
v 0.344006 0.515000 0.274336
v 0.175332 0.550000 0.364081
v 0.190909 0.515000 0.396426
v -0.460000 0.490000 0.000000
v -0.414446 0.490000 0.199587
v -0.286805 0.490000 0.359642
v -0.102360 0.490000 0.448467
v 0.102360 0.490000 0.448467
v 0.286805 0.490000 0.359642
v 0.414446 0.490000 0.199587
v 0.460000 0.490000 0.000000
v 0.414446 0.490000 -0.199587
v 0.286805 0.490000 -0.359642
v 0.102360 0.490000 -0.448467
v -0.102360 0.490000 -0.448467
v -0.286805 0.490000 -0.359642
v -0.414446 0.490000 -0.199587
v 0.000000 0.580000 0.160000
v -0.138564 0.580000 0.080000
v -0.138564 0.580000 -0.080000
v 0.000000 0.580000 -0.160000
v 0.138564 0.580000 -0.080000
v 0.138564 0.580000 0.080000
vn -0.2584 0.0596 0.9642
vn -0.2588 -0.0000 0.9659
vn 0.2588 -0.0000 0.9659
vn 0.2584 0.0596 0.9642
vn -0.0000 0.1310 0.9914
vn -0.0000 0.3208 0.9472
vn -0.1163 0.7112 0.6933
vn -0.1496 0.7401 0.6556
vn -0.1960 0.7112 0.6752
vn -0.4110 0.3208 0.8534
vn -0.4303 0.1275 0.8936
vn -0.7056 0.0662 0.7056
vn -0.7071 -0.0000 0.7071
vn 0.1830 -0.7071 0.6830
vn -0.1830 -0.7071 0.6830
vn 0.7071 -0.0000 0.7071
vn 0.7056 0.0662 0.7056
vn 0.4303 0.1275 0.8936
vn 0.4110 0.3208 0.8534
vn 0.1960 0.7112 0.6752
vn 0.1496 0.7401 0.6556
vn 0.1163 0.7112 0.6933
vn 0.0278 0.9921 0.1219
vn -0.0278 0.9921 0.1219
vn -0.0564 0.9936 0.0976
vn -0.0758 0.9926 0.0950
vn -0.4193 0.7401 0.5258
vn -0.4056 0.7112 0.5742
vn -0.4695 0.7112 0.5232
vn -0.7405 0.3208 0.5905
vn -0.7765 0.1170 0.6192
vn -0.9629 0.0792 0.2580
vn -0.9659 -0.0000 0.2588
vn -0.5000 -0.7071 0.5000
vn -0.0000 -1.0000 -0.0000
vn 0.5000 -0.7071 0.5000
vn 0.9659 -0.0000 0.2588
vn 0.9629 0.0792 0.2580
vn 0.7765 0.1170 0.6192
vn 0.7405 0.3208 0.5905
vn 0.4695 0.7112 0.5232
vn 0.4193 0.7401 0.5258
vn 0.4056 0.7112 0.5742
vn 0.0758 0.9926 0.0950
vn 0.0564 0.9936 0.0976
vn -0.0000 1.0000 -0.0000
vn -0.1167 0.9932 -0.0000
vn -0.1144 0.9919 0.0551
vn -0.6059 0.7401 0.2918
vn -0.6146 0.7112 0.3413
vn -0.6501 0.7112 0.2677
vn -0.9234 0.3208 0.2108
vn -0.9701 0.0995 0.2214
vn -0.9701 0.0995 -0.2214
vn -0.9629 0.0792 -0.2580
vn -0.9659 -0.0000 -0.2588
vn -0.6830 -0.7071 0.1830
vn 0.6830 -0.7071 0.1830
vn 0.9629 0.0792 -0.2580
vn 0.9701 0.0995 -0.2214
vn 0.9701 0.0995 0.2214
vn 0.9659 -0.0000 -0.2588
vn 0.9234 0.3208 0.2108
vn 0.6501 0.7112 0.2677
vn 0.6059 0.7401 0.2918
vn 0.6146 0.7112 0.3413
vn 0.1144 0.9919 0.0551
vn 0.1167 0.9932 -0.0000
vn -0.0758 0.9926 -0.0950
vn -0.1144 0.9919 -0.0551
vn -0.0564 0.9936 -0.0976
vn -0.7018 0.7112 0.0409
vn -0.6725 0.7401 -0.0000
vn -0.7018 0.7112 -0.0409
vn -0.9234 0.3208 -0.2108
vn -0.6830 -0.7071 -0.1830
vn -0.6501 0.7112 -0.2677
vn -0.6059 0.7401 -0.2918
vn -0.6146 0.7112 -0.3413
vn -0.7405 0.3208 -0.5905
vn -0.7765 0.1170 -0.6192
vn -0.7056 0.0662 -0.7056
vn -0.7071 -0.0000 -0.7071
vn 0.6830 -0.7071 -0.1830
vn 0.7056 0.0662 -0.7056
vn 0.7765 0.1170 -0.6192
vn 0.7071 -0.0000 -0.7071
vn 0.9234 0.3208 -0.2108
vn 0.7405 0.3208 -0.5905
vn 0.6146 0.7112 -0.3413
vn 0.6059 0.7401 -0.2918
vn 0.6501 0.7112 -0.2677
vn 0.7018 0.7112 -0.0409
vn 0.6725 0.7401 -0.0000
vn 0.7018 0.7112 0.0409
vn 0.0564 0.9936 -0.0976
vn 0.1144 0.9919 -0.0551
vn 0.0758 0.9926 -0.0950
vn -0.1960 0.7112 -0.6752
vn -0.4056 0.7112 -0.5742
vn -0.4193 0.7401 -0.5258
vn -0.0278 0.9921 -0.1219
vn -0.1496 0.7401 -0.6556
vn -0.4695 0.7112 -0.5232
vn 0.0278 0.9921 -0.1219
vn -0.5000 -0.7071 -0.5000
vn -0.4110 0.3208 -0.8534
vn -0.4303 0.1275 -0.8936
vn -0.2584 0.0596 -0.9642
vn -0.2588 -0.0000 -0.9659
vn 0.5000 -0.7071 -0.5000
vn 0.2584 0.0596 -0.9642
vn 0.4303 0.1275 -0.8936
vn 0.2588 -0.0000 -0.9659
vn 0.4695 0.7112 -0.5232
vn 0.4110 0.3208 -0.8534
vn 0.4056 0.7112 -0.5742
vn 0.4193 0.7401 -0.5258
vn 0.1960 0.7112 -0.6752
vn 0.1496 0.7401 -0.6556
vn -0.1163 0.7112 -0.6933
vn -0.0000 0.3208 -0.9472
vn -0.0000 0.1310 -0.9914
vn 0.1163 0.7112 -0.6933
vn -0.1830 -0.7071 -0.6830
vn 0.1830 -0.7071 -0.6830
vt 0.00000 0.18686
vt 0.00000 0.32365
vt 0.00000 0.70279
vt 0.00000 0.81098
vt 0.00464 0.75689
vt 0.02192 0.19252
vt 0.02192 0.31798
vt 0.02432 0.75689
vt 0.02852 0.65599
vt 0.04625 0.66422
vt 0.04625 0.84955
vt 0.04868 0.60531
vt 0.04868 0.90846
vt 0.07093 0.06839
vt 0.07093 0.44211
vt 0.08698 0.08387
vt 0.08698 0.42663
vt 0.09544 0.57508
vt 0.09544 0.93870
vt 0.10771 0.58991
vt 0.10771 0.92386
vt 0.13641 0.53785
vt 0.13641 0.97592
vt 0.15909 0.74428
vt 0.19113 0.82300
vt 0.19214 0.98360
vt 0.19379 0.00000
vt 0.19379 0.51050
vt 0.19652 0.54867
vt 0.19652 0.96510
vt 0.19966 0.02114
vt 0.19966 0.48936
vt 0.21377 0.67817
vt 0.24581 0.51377
vt 0.24581 1.00000
vt 0.27785 0.83560
vt 0.29509 0.54867
vt 0.29509 0.96510
vt 0.29947 0.53017
vt 0.29947 0.98360
vt 0.30049 0.69077
vt 0.32977 0.02114
vt 0.32977 0.48936
vt 0.33253 0.76949
vt 0.33565 0.00000
vt 0.33565 0.51050
vt 0.35520 0.53785
vt 0.35520 0.97592
vt 0.38390 0.58991
vt 0.38390 0.92386
vt 0.39617 0.57508
vt 0.39617 0.93870
vt 0.44245 0.08387
vt 0.44245 0.42663
vt 0.44293 0.60531
vt 0.44293 0.90846
vt 0.44536 0.66422
vt 0.44536 0.84955
vt 0.45850 0.06839
vt 0.45850 0.44211
vt 0.46309 0.65599
vt 0.46309 0.85778
vt 0.46730 0.75689
vt 0.49162 0.70279
vt 0.49162 0.81098
vt 0.50751 0.19252
vt 0.50751 0.31798
vt 0.52943 0.18686
vt 0.52943 0.32365
vt 0.53282 0.24154
vt 0.53282 0.33054
vt 0.53282 0.79651
vt 0.53282 0.82809
vt 0.53314 0.29896
vt 0.53454 0.27307
vt 0.53585 0.58868
vt 0.54852 0.03631
vt 0.55761 0.53492
vt 0.58213 0.02544
vt 0.58339 0.57815
vt 0.59166 0.54440
vt 0.60487 0.32028
vt 0.60519 0.28871
vt 0.60526 0.24881
vt 0.60698 0.28034
vt 0.60938 0.04169
vt 0.61817 0.52704
vt 0.62533 0.59458
vt 0.65483 0.80281
vt 0.65483 0.83439
vt 0.65890 0.02829
vt 0.66814 0.00788
vt 0.66825 0.53839
vt 0.67838 0.55840
vt 0.68125 0.58199
vt 0.68514 0.56188
vt 0.70503 0.04212
vt 0.71372 0.52267
vt 0.72836 0.31518
vt 0.72868 0.28361
vt 0.72886 0.24881
vt 0.73058 0.28034
vt 0.73533 0.59651
vt 0.76053 0.02625
vt 0.76147 0.00600
vt 0.76987 0.53624
vt 0.77171 0.55643
vt 0.78368 0.56167
vt 0.78855 0.58175
vt 0.79668 0.80296
vt 0.79668 0.83454
vt 0.81654 0.03752
vt 0.82533 0.52267
vt 0.84405 0.59409
vt 0.85914 0.00000
vt 0.86687 0.01971
vt 0.86955 0.55840
vt 0.87021 0.31661
vt 0.87052 0.24154
vt 0.87053 0.28504
vt 0.87224 0.27307
vt 0.87640 0.53839
vt 0.88402 0.57748
vt 0.92036 0.79691
vt 0.92036 0.82849
vt 0.92181 0.02880
vt 0.92996 0.58780
vt 0.93089 0.52704
vt 0.94877 0.57003
vt 0.95687 0.00998
vt 0.97605 0.57890
vt 0.99227 0.22894
vt 0.99241 0.32418
vt 0.99272 0.29261
vt 0.99274 0.78628
vt 0.99274 0.81786
vt 0.99398 0.26047
vt 1.00000 0.01768
s 0
usemtl Platformer_collision
f 1/67/14 34/66/14 2/69/14
f 11/28/57 10/32/57 7/43/57
f 11/28/57 7/43/57 8/46/57
f 12/84/33 11/85/33 8/75/33
f 12/84/33 8/75/33 9/70/33
f 13/17/76 10/32/76 11/28/76
f 14/15/76 13/17/76 11/28/76
f 15/101/56 11/85/56 12/84/56
f 15/101/56 14/102/56 11/85/56
f 17/2/106 13/17/106 14/15/106
f 17/2/106 16/7/106 13/17/106
f 18/119/83 14/102/83 15/101/83
f 18/119/83 17/121/83 14/102/83
f 19/6/126 20/1/126 22/16/126
f 2/111/3 35/90/3 36/89/3
f 2/111/3 36/89/3 3/110/3
f 20/1/125 16/7/125 17/2/125
f 20/1/125 19/6/125 16/7/125
f 20/1/126 23/14/126 22/16/126
f 21/132/110 17/121/110 18/119/110
f 21/132/110 20/137/110 17/121/110
f 21/133/112 75/128/112 24/118/112
f 22/16/111 23/14/111 26/27/111
f 22/16/111 26/27/111 25/31/111
f 23/120/114 20/134/114 21/133/114
f 23/120/114 21/133/114 24/118/114
f 24/118/85 74/113/85 27/99/85
f 25/31/84 26/27/84 29/45/84
f 25/31/84 29/45/84 28/42/84
f 26/100/87 23/120/87 24/118/87
f 26/100/87 24/118/87 27/99/87
f 27/99/59 73/98/59 30/82/59
f 28/42/58 29/45/58 31/53/58
f 29/45/58 32/59/58 31/53/58
f 29/83/62 26/100/62 27/99/62
f 29/83/62 27/99/62 30/82/62
f 30/82/38 71/78/38 33/71/38
f 31/53/36 32/59/36 35/68/36
f 31/53/36 35/68/36 34/66/36
f 32/74/37 29/83/37 30/82/37
f 32/74/37 30/82/37 33/71/37
f 33/72/17 70/88/17 36/89/17
f 34/66/14 35/68/14 2/69/14
f 35/90/16 32/73/16 33/72/16
f 35/90/16 33/72/16 36/89/16
f 36/89/4 69/103/4 3/110/4
f 37/108/22 38/109/22 69/103/22
f 37/21/8 39/30/8 68/23/8
f 38/19/7 37/21/7 68/23/7
f 39/30/9 40/26/9 68/23/9
f 4/54/15 1/67/15 2/69/15
f 4/54/35 10/32/35 13/17/35
f 4/54/35 13/17/35 16/7/35
f 4/54/35 16/7/35 19/6/35
f 4/54/35 19/6/35 22/16/35
f 4/54/35 22/16/35 25/31/35
f 4/54/35 25/31/35 28/42/35
f 4/54/35 28/42/35 31/53/35
f 4/54/35 31/53/35 34/66/35
f 4/54/35 34/66/35 1/67/35
f 4/54/35 7/43/35 10/32/35
f 40/123/10 67/127/10 68/114/10
f 41/38/27 67/35/27 39/30/27
f 41/38/29 42/40/29 67/35/29
f 42/129/30 66/131/30 67/127/30
f 43/50/48 41/38/48 80/36/48
f 43/50/49 66/48/49 41/38/49
f 43/50/51 44/52/51 66/48/51
f 44/79/52 65/86/52 66/77/52
f 45/58/73 65/56/73 43/50/73
f 45/58/74 46/62/74 65/56/74
f 45/58/78 47/63/78 78/65/78
f 46/91/75 78/97/75 65/86/75
f 46/91/77 45/92/77 78/97/77
f 47/105/79 48/104/79 78/97/79
f 47/63/70 45/58/70 81/44/70
f 48/104/80 77/112/80 78/97/80
f 49/57/69 47/63/69 81/44/69
f 5/60/15 4/54/15 2/69/15
f 50/116/100 77/112/100 49/115/100
f 50/116/107 76/126/107 77/112/107
f 51/49/103 76/55/103 49/57/103
f 51/49/121 52/51/121 76/55/121
f 52/130/122 75/138/122 76/126/122
f 53/37/105 51/49/105 82/41/105
f 53/37/118 55/29/118 74/34/118
f 53/37/96 82/41/96 83/33/96
f 54/122/117 53/117/117 74/113/117
f 54/39/119 75/47/119 53/37/119
f 55/107/115 56/106/115 74/113/115
f 55/29/91 57/20/91 73/22/91
f 55/29/98 53/37/98 83/33/98
f 56/106/90 55/107/90 73/98/90
f 57/20/94 59/10/94 72/12/94
f 57/20/97 55/29/97 83/33/97
f 57/94/92 58/93/92 73/98/92
f 58/18/93 57/20/93 72/12/93
f 58/93/88 72/87/88 73/98/88
f 59/10/65 61/8/65 71/3/65
f 59/10/67 84/24/67 61/8/67
f 59/10/68 57/20/68 83/33/68
f 59/10/68 83/33/68 84/24/68
f 59/10/95 60/9/95 72/12/95
f 6/124/2 2/111/2 3/110/2
f 6/124/2 5/125/2 2/111/2
f 60/9/64 59/10/64 71/3/64
f 61/8/42 63/11/42 70/4/42
f 61/8/44 84/24/44 63/11/44
f 61/8/66 62/5/66 71/3/66
f 62/5/41 61/8/41 70/4/41
f 63/11/21 37/21/21 69/13/21
f 63/11/23 79/25/23 37/21/23
f 63/96/43 64/95/43 70/88/43
f 64/95/20 63/96/20 69/103/20
f 65/56/72 44/52/72 43/50/72
f 65/86/53 12/84/53 66/77/53
f 65/86/54 78/97/54 12/84/54
f 66/131/31 9/135/31 67/127/31
f 66/48/50 42/40/50 41/38/50
f 66/77/32 12/84/32 9/70/32
f 67/127/11 6/124/11 68/114/11
f 67/127/12 9/135/12 6/124/12
f 67/35/28 40/26/28 39/30/28
f 68/114/1 6/124/1 3/110/1
f 69/103/5 68/114/5 3/110/5
f 69/103/6 38/109/6 68/114/6
f 70/88/18 69/103/18 36/89/18
f 70/88/19 64/95/19 69/103/19
f 71/76/39 70/88/39 33/72/39
f 71/76/40 62/80/40 70/88/40
f 72/87/61 71/78/61 30/82/61
f 72/87/63 60/81/63 71/78/63
f 73/98/60 72/87/60 30/82/60
f 74/113/86 73/98/86 27/99/86
f 74/113/89 56/106/89 73/98/89
f 75/128/113 74/113/113 24/118/113
f 75/128/116 54/122/116 74/113/116
f 75/138/123 21/132/123 76/126/123
f 75/47/120 51/49/120 53/37/120
f 75/47/124 52/51/124 51/49/124
f 76/126/108 18/119/108 77/112/108
f 76/126/109 21/132/109 18/119/109
f 76/55/99 50/61/99 49/57/99
f 77/112/104 48/104/104 47/105/104
f 77/112/81 15/101/81 78/97/81
f 77/112/82 18/119/82 15/101/82
f 77/64/101 47/63/101 49/57/101
f 78/97/55 15/101/55 12/84/55
f 79/25/24 39/30/24 37/21/24
f 79/25/25 80/36/25 39/30/25
f 8/46/34 4/54/34 5/60/34
f 8/46/34 7/43/34 4/54/34
f 80/36/26 41/38/26 39/30/26
f 81/44/47 43/50/47 80/36/47
f 81/44/47 45/58/47 43/50/47
f 82/41/102 51/49/102 49/57/102
f 82/41/71 49/57/71 81/44/71
f 84/24/45 79/25/45 63/11/45
f 84/24/46 80/36/46 79/25/46
f 84/24/46 81/44/46 80/36/46
f 84/24/46 82/41/46 81/44/46
f 84/24/46 83/33/46 82/41/46
f 9/135/13 5/125/13 6/124/13
f 9/135/13 8/136/13 5/125/13
