# Blender 4.0.2
# www.blender.org
mtllib barrier_segment_collision.mtl
o barrier_segment_collision
v 2.000000 0.000000 -0.300000
v 2.000000 0.900000 -0.300000
v 2.000000 0.000000 0.300000
v 2.000000 0.900000 0.300000
v -2.000000 0.000000 -0.300000
v -2.000000 0.900000 -0.300000
v -2.000000 0.000000 0.300000
v -2.000000 0.900000 0.300000
vn 1.0000 -0.0000 -0.0000
vn -0.0000 -0.0000 1.0000
vn -1.0000 -0.0000 -0.0000
vn -0.0000 -0.0000 -1.0000
vn -0.0000 -1.0000 -0.0000
vn -0.0000 1.0000 -0.0000
vt 0.00000 0.00000
vt 0.00000 1.00000
vt 0.24634 0.00000
vt 0.24634 1.00000
vt 0.25000 0.00000
vt 0.25000 1.00000
vt 0.49634 0.00000
vt 0.49634 1.00000
vt 0.50000 0.00000
vt 0.50000 1.00000
vt 0.66422 0.00000
vt 0.66422 1.00000
vt 0.66789 0.00000
vt 0.66789 1.00000
vt 0.83211 0.00000
vt 0.83211 1.00000
vt 0.83578 0.00000
vt 0.83578 0.22500
vt 0.83578 0.22834
vt 0.83578 0.45334
vt 1.00000 0.00000
vt 1.00000 0.22500
vt 1.00000 0.22834
vt 1.00000 0.45334
s 0
usemtl Racing_collision
f 2/17/1 3/22/1 1/18/1
f 2/17/1 4/21/1 3/22/1
f 4/16/6 2/14/6 6/13/6
f 4/16/6 6/13/6 8/15/6
f 4/2/2 7/3/2 3/4/2
f 4/2/2 8/1/2 7/3/2
f 6/6/4 1/7/4 5/8/4
f 6/6/4 2/5/4 1/7/4
f 7/12/5 1/9/5 3/11/5
f 7/12/5 5/10/5 1/9/5
f 8/19/3 5/24/3 7/20/3
f 8/19/3 6/23/3 5/24/3
