# Blender 4.0.2
# www.blender.org
mtllib checkpoint_arch_lod1.mtl
o checkpoint_arch_lod1
v -5.987537 0.016234 -0.433803
v -5.983136 0.011596 0.433803
v -5.216783 0.012437 -0.437537
v -5.211541 0.017411 0.437537
v -5.887741 1.096372 0.444873
v -5.967131 0.627171 0.420000
v -5.169847 0.818826 -0.449984
v -5.138045 0.842484 0.417409
v -5.868886 1.247470 -0.420000
v -5.938618 0.766737 -0.444392
v -5.146914 0.786489 -0.417409
v -5.169847 0.818823 0.449984
v -5.695135 1.833466 -0.438374
v -5.696831 1.836591 0.436318
v -4.960481 1.598751 -0.432493
v -4.963582 1.597067 0.435035
v -5.685123 1.860391 -0.437435
v -5.688100 1.866632 0.437435
v -4.954355 1.625466 -0.435035
v -4.952835 1.622280 0.432492
v -5.427806 2.538702 -0.442951
v -5.409868 2.567525 0.444629
v -4.663789 2.376318 -0.449986
v -4.626228 2.388995 0.417409
v -5.196152 3.000000 -0.420000
v -5.196152 3.000000 0.420000
v -4.651967 2.338481 -0.417409
v -4.663788 2.376320 0.449986
v -4.849823 3.503624 -0.438374
v -4.850471 3.507119 0.436318
v -4.223656 3.053376 -0.432492
v -4.227126 3.052733 0.435035
v -4.830822 3.529777 -0.438374
v -4.834347 3.529313 0.436318
v -4.212661 3.074835 -0.433858
v -4.206062 3.075704 0.433858
v -4.458869 4.014784 -0.420000
v -4.119462 4.347736 0.444109
v -4.458869 4.014784 0.420000
v -3.701203 3.701204 -0.449986
v -3.661564 3.701653 0.417409
v -4.014784 4.458869 -0.420000
v -4.224827 4.224823 -0.450022
v -3.701653 3.661565 -0.417409
v -3.701204 3.701203 0.449986
v -3.529777 4.830822 -0.438374
v -3.529313 4.834347 0.436318
v -3.073390 4.209115 -0.432492
v -3.076889 4.209575 0.435035
v -3.504591 4.853518 -0.437435
v -3.505851 4.846720 0.437435
v -3.056303 4.226126 -0.433858
v -3.049758 4.224913 0.433858
v -2.861954 5.261368 -0.444109
v -2.574315 5.407928 0.444109
v -3.000000 5.196152 0.420000
v -2.376320 4.663788 -0.449986
v -2.338481 4.651967 0.417409
v -2.440420 5.481273 -0.420000
v -2.388995 4.626228 -0.417409
v -2.376318 4.663789 0.449986
v -1.860391 5.685123 -0.437435
v -1.866632 5.688100 0.437435
v -1.625423 4.950647 -0.433858
v -1.622558 4.956655 0.433858
v -1.833245 5.698948 -0.437435
v -1.836544 5.692872 0.437435
v -1.600772 4.963734 -0.433858
v -1.594922 4.960558 0.433858
v -1.096372 5.887741 -0.444873
v -0.766737 5.938618 0.444392
v -1.247470 5.868886 0.420000
v -0.818823 5.169847 -0.449984
v -0.786489 5.146914 0.417409
v -0.627171 5.967131 -0.420000
v -0.842484 5.138045 -0.417409
v -0.818826 5.169847 0.449984
v -0.015034 5.984158 -0.434930
v -0.012602 5.986721 0.432481
v -0.013529 5.212838 -0.436384
v -0.016110 5.215287 0.438518
v 0.016234 5.987537 -0.433803
v 0.011596 5.983136 0.433803
v 0.012437 5.216783 -0.437537
v 0.017411 5.211541 0.437537
v 1.096372 5.887741 0.444873
v 0.627171 5.967131 0.420000
v 0.818826 5.169847 -0.449984
v 0.842484 5.138045 0.417409
v 1.247470 5.868886 -0.420000
v 0.766737 5.938618 -0.444392
v 0.786489 5.146914 -0.417409
v 0.818823 5.169847 0.449984
v 1.836544 5.692872 -0.437435
v 1.833245 5.698948 0.437435
v 1.594922 4.960558 -0.433858
v 1.600772 4.963734 0.433858
v 1.864211 5.685145 -0.438374
v 1.862680 5.688354 0.436318
v 1.622558 4.956655 -0.433858
v 1.625423 4.950647 0.433858
v 2.440420 5.481273 -0.420000
v 2.861952 5.261369 0.444109
v 2.440420 5.481273 0.420000
v 2.376318 4.663789 -0.449986
v 2.388995 4.626228 0.417409
v 3.000000 5.196152 -0.420000
v 2.712502 5.323591 -0.450022
v 2.338481 4.651967 -0.417409
v 2.376320 4.663788 0.449986
v 3.503624 4.849823 -0.438374
v 3.507119 4.850471 0.436318
v 3.053376 4.223656 -0.432492
v 3.052733 4.227126 0.435035
v 3.532992 4.832884 -0.437435
v 3.526137 4.831982 0.437435
v 3.074835 4.212661 -0.433858
v 3.075704 4.206062 0.433858
v 4.119462 4.347735 -0.444109
v 4.347736 4.119462 0.444109
v 4.014784 4.458869 0.420000
v 3.701204 3.701203 -0.449986
v 3.701653 3.661564 0.417409
v 4.458869 4.014784 -0.420000
v 3.661565 3.701653 -0.417409
v 3.701203 3.701204 0.449986
v 4.830822 3.529777 -0.438374
v 4.834347 3.529313 0.436318
v 4.209115 3.073390 -0.432492
v 4.209575 3.076889 0.435035
v 4.853518 3.504591 -0.437435
v 4.846720 3.505851 0.437435
v 4.226126 3.056303 -0.433858
v 4.224913 3.049758 0.433858
v 5.407928 2.574315 0.444109
v 5.196152 3.000000 0.420000
v 4.663788 2.376320 -0.449986
v 4.651967 2.338481 0.417409
v 5.481273 2.440420 -0.420000
v 5.255864 2.870001 -0.443565
v 4.626228 2.388995 -0.417409
v 4.663789 2.376318 0.449986
v 5.685145 1.864211 -0.438375
v 5.688354 1.862680 0.436318
v 4.952835 1.622280 -0.432492
v 4.954355 1.625466 0.435035
v 5.696831 1.836591 -0.436318
v 5.695135 1.833466 0.438374
v 4.963582 1.597067 -0.435035
v 4.960481 1.598751 0.432493
v 5.887741 1.096372 -0.444873
v 5.938618 0.766737 0.444392
v 5.868886 1.247470 0.420000
v 5.169847 0.818823 -0.449984
v 5.146914 0.786489 0.417409
v 5.967131 0.627171 -0.420000
v 5.138045 0.842484 -0.417409
v 5.169847 0.818826 0.449984
v 5.984158 0.015034 -0.434930
v 5.986721 0.012602 0.432481
v 5.212838 0.013529 -0.436384
v 5.215287 0.016110 0.438518
v 5.982500 0.012500 -0.687500
v 5.988461 0.433846 -0.683846
v 5.988461 0.016154 0.683846
v 5.982500 0.437500 0.687500
v 5.211538 0.016154 -0.683846
v 5.217500 0.437500 -0.687500
v 5.217500 0.012500 0.687500
v 5.211538 0.433846 0.683846
v 2.033158 4.390081 -0.001579
v 2.001579 4.849919 -0.033158
v 2.001579 4.390081 0.033158
v 2.033158 4.849919 0.001579
v 2.000000 4.363500 0.000000
v 1.998421 4.390081 -0.033158
v 1.966842 4.849919 -0.001579
v 1.966842 4.390081 0.001579
v 2.000000 4.876500 0.000000
v 1.998421 4.849919 0.033158
v -5.217500 0.012500 -0.687500
v -5.211538 0.433846 -0.683846
v -5.211538 0.016154 0.683846
v -5.217500 0.437500 0.687500
v -5.988461 0.016154 -0.683846
v -5.982500 0.437500 -0.687500
v -5.982500 0.012500 0.687500
v -5.988461 0.433846 0.683846
v -1.966842 4.390081 -0.001579
v -1.998421 4.849919 -0.033158
v -2.000000 4.876500 -0.000000
v -2.000000 4.363500 0.000000
v -1.998421 4.390081 0.033158
v -1.966842 4.849919 0.001579
v -2.001579 4.390081 -0.033158
v -2.033158 4.849919 -0.001579
v -2.033158 4.390081 0.001579
v -2.001579 4.849919 0.033158
v 2.482500 3.412500 -0.047500
v 2.488461 4.383846 -0.043846
v 2.488462 3.416154 0.043846
v 2.482500 4.387500 0.047500
v -2.488462 3.416154 -0.043846
v -2.482500 4.387500 -0.047500
v -2.482500 3.412500 0.047500
v -2.488462 4.383847 0.043846
vn 0.7897 -0.0554 -0.6109
vn -0.4658 0.0319 0.8843
vn -0.4735 0.1130 -0.8735
vn 0.7683 -0.1919 0.6107
vn 0.7344 -0.2963 -0.6107
vn -0.4083 0.2488 -0.8783
vn 0.6714 -0.4199 0.6107
vn 0.6049 -0.5097 -0.6118
vn -0.3751 0.3194 0.8702
vn -0.6155 0.6155 -0.4921
vn -0.3615 0.4305 -0.8270
vn 0.5088 -0.6068 0.6107
vn 0.4178 -0.6717 -0.6118
vn -0.2547 0.4123 0.8747
vn -0.1839 0.4484 -0.8747
vn 0.2978 -0.7328 0.6118
vn 0.1898 -0.7679 -0.6118
vn -0.1114 0.4602 0.8808
vn -0.0347 0.4799 -0.8766
vn 0.0535 -0.7908 0.6098
vn -0.0554 -0.7897 -0.6109
vn 0.0319 0.4658 0.8843
vn 0.1114 0.4602 -0.8808
vn -0.1898 -0.7679 0.6118
vn -0.2978 -0.7328 -0.6118
vn 0.1878 0.4555 0.8702
vn 0.3952 0.7756 -0.4921
vn 0.2977 0.4768 -0.8270
vn -0.4199 -0.6714 0.6107
vn -0.5097 -0.6049 -0.6118
vn 0.3134 0.3696 0.8747
vn 0.3788 0.3234 -0.8672
vn -0.6068 -0.5088 0.6107
vn -0.6717 -0.4178 -0.6118
vn 0.4123 0.2547 0.8747
vn 0.4448 0.1853 -0.8763
vn -0.7344 -0.2963 0.6107
vn -0.7683 -0.1919 -0.6107
vn 0.4735 0.1130 0.8735
vn 0.4799 0.0347 -0.8766
vn -0.7908 -0.0535 0.6098
vn 0.5042 -0.6619 -0.5546
vn 0.5546 0.6619 -0.5042
vn 0.5546 -0.6619 0.5042
vn 0.5042 0.6619 0.5546
vn -0.5546 -0.6619 -0.5042
vn -0.5042 0.6619 -0.5546
vn -0.5042 -0.6619 0.5546
vn -0.5546 0.6619 0.5042
vn 0.5547 0.6619 -0.5042
vn 0.9960 -0.0888 -0.0046
vn -0.0107 -0.0093 0.9999
vn -0.9897 0.1434 0.0035
vn 0.0140 0.0187 -0.9997
vn -0.9588 0.2842 -0.0029
vn 0.9743 -0.2253 0.0030
vn 0.0051 0.0102 0.9999
vn 0.3105 0.9506 0.0030
vn -0.0063 -0.0151 -0.9999
vn 0.0075 -1.0000 0.0056
vn 0.7321 -0.0486 0.6794
vn 0.7139 -0.1764 -0.6777
vn -0.9294 0.3689 0.0068
vn 0.9200 -0.3920 -0.0046
vn 0.0029 -0.0114 0.9999
vn -0.8937 0.4486 0.0035
vn 0.0191 0.0134 -0.9997
vn -0.8240 0.5666 -0.0029
vn 0.8570 -0.5154 0.0030
vn 0.0124 0.0141 0.9998
vn 0.5891 0.8081 0.0030
vn -0.0124 -0.0151 -0.9998
vn -0.3060 -0.9520 -0.0030
vn -0.9977 0.0647 -0.0225
vn 0.6812 -0.2769 0.6777
vn 0.6244 -0.3884 -0.6777
vn -0.4152 0.2549 0.8733
vn -0.7910 0.6118 -0.0000
vn 0.7544 -0.6564 -0.0047
vn -0.0122 0.0012 0.9999
vn -0.7071 0.7071 0.0053
vn 0.0223 0.0069 -0.9997
vn -0.6086 0.7935 -0.0029
vn 0.6558 -0.7550 0.0030
vn 0.0093 0.0047 0.9999
vn 0.8099 0.5865 0.0030
vn -0.0089 -0.0090 -0.9999
vn -0.5853 -0.8108 0.0053
vn -0.4305 0.3615 -0.8270
vn 0.5630 -0.4719 0.6785
vn 0.4738 -0.5623 -0.6777
vn -0.5359 0.8440 -0.0219
vn 0.5147 -0.8574 -0.0047
vn -0.0103 0.0052 0.9999
vn -0.4627 0.8865 0.0036
vn 0.0208 0.0018 -0.9998
vn -0.3317 0.9434 -0.0056
vn 0.3915 -0.9202 0.0051
vn 0.0100 -0.0015 0.9999
vn 0.9486 0.3165 0.0057
vn -0.0197 -0.0062 -0.9998
vn -0.8063 -0.5915 0.0053
vn 0.3896 -0.6228 0.6785
vn 0.2748 -0.6813 -0.6785
vn -0.2483 0.9684 -0.0223
vn 0.2245 -0.9745 -0.0047
vn -0.0083 0.0078 0.9999
vn -0.1671 0.9859 0.0055
vn 0.0168 0.0019 -0.9999
vn -0.0279 0.9996 -0.0029
vn 0.0883 -0.9961 0.0030
vn 0.0153 0.0078 0.9999
vn 1.0000 -0.0045 0.0030
vn -0.0204 -0.0008 -0.9998
vn -0.9496 -0.3133 0.0053
vn 0.1781 -0.7127 0.6785
vn 0.0506 -0.7328 -0.6786
vn 0.0647 0.9977 -0.0225
vn -0.0888 -0.9960 -0.0046
vn -0.0093 0.0107 0.9999
vn 0.1434 0.9897 0.0035
vn 0.0179 -0.0108 -0.9998
vn 0.2861 0.9582 -0.0056
vn -0.2241 -0.9745 0.0051
vn 0.0082 -0.0075 0.9999
vn 0.9534 -0.3015 0.0057
vn -0.0151 0.0063 -0.9999
vn -1.0000 -0.0075 0.0056
vn -0.0486 -0.7321 0.6794
vn -0.1781 -0.7127 -0.6785
vn 0.3374 0.9414 -0.0000
vn -0.3911 -0.9203 -0.0047
vn -0.0027 0.0120 0.9999
vn 0.4540 0.8910 0.0053
vn 0.0134 -0.0191 -0.9997
vn 0.5666 0.8240 -0.0029
vn -0.5154 -0.8570 0.0030
vn 0.0074 -0.0074 0.9999
vn 0.8081 -0.5891 0.0030
vn -0.0113 0.0057 -0.9999
vn -0.9520 0.3061 0.0053
vn 0.2108 0.5211 -0.8270
vn -0.2748 -0.6813 0.6785
vn -0.3884 -0.6244 -0.6777
vn 0.6371 0.7705 -0.0219
vn -0.6564 -0.7544 -0.0047
vn 0.0017 0.0114 0.9999
vn 0.7002 0.7140 0.0036
vn 0.0069 -0.0223 -0.9997
vn 0.7935 0.6086 -0.0029
vn -0.7550 -0.6558 0.0030
vn 0.0047 -0.0093 0.9999
vn 0.5865 -0.8099 0.0030
vn -0.0120 0.0168 -0.9998
vn -0.8117 0.5841 0.0053
vn -0.4719 -0.5630 0.6785
vn -0.5623 -0.4738 -0.6777
vn 0.8442 0.5355 -0.0222
vn -0.8574 -0.5147 -0.0047
vn 0.0052 0.0103 0.9999
vn 0.8854 0.4648 0.0031
vn -0.0003 -0.0233 -0.9997
vn 0.9427 0.3336 -0.0029
vn -0.9207 -0.3904 0.0030
vn 0.0016 -0.0103 0.9999
vn 0.3075 -0.9515 0.0030
vn -0.0058 0.0200 -0.9998
vn -0.5915 0.8063 0.0053
vn -0.6228 -0.3896 0.6785
vn -0.6812 -0.2769 -0.6777
vn 0.9680 0.2499 -0.0226
vn -0.9747 -0.2236 -0.0046
vn 0.0078 0.0074 0.9999
vn 0.9859 0.1671 0.0055
vn 0.0019 -0.0168 -0.9999
vn 0.9996 0.0279 -0.0029
vn -0.9961 -0.0883 0.0030
vn 0.0078 -0.0153 0.9999
vn -0.0045 -1.0000 0.0030
vn -0.0003 0.0191 -0.9998
vn -0.3105 0.9506 -0.0030
vn -0.7139 -0.1764 0.6777
vn -0.7328 -0.0506 -0.6786
vn 0.0048 0.0086 -1.0000
vn -0.9999 0.0141 -0.0043
vn 0.0047 1.0000 0.0027
vn 0.9999 0.0141 0.0043
vn -0.0048 0.0086 1.0000
vn -0.0047 -1.0000 0.0027
vn 0.7399 0.0046 -0.6727
vn 0.7399 -0.0046 0.6727
vn -0.6727 -0.0046 0.7399
vn -0.7399 -0.0046 -0.6727
vn 0.0007 0.0038 -1.0000
vn -0.9979 0.0059 -0.0649
vn 0.0008 0.9992 -0.0399
vn 0.9979 0.0059 0.0649
vn -0.0007 0.0038 1.0000
vn -0.0008 -0.9992 -0.0399
vn 0.9959 -0.0898 -0.0055
vn -0.0047 -0.0153 0.9999
vn -0.9859 0.1671 -0.0055
vn -0.0078 0.0074 -0.9999
vn -0.9680 0.2499 0.0226
vn 0.9747 -0.2236 0.0046
vn 0.0003 0.0191 0.9998
vn 0.3044 0.9526 -0.0028
vn -0.0049 -0.0138 -0.9999
vn -0.0050 -1.0000 -0.0053
vn -0.9350 0.3546 -0.0057
vn 0.9207 -0.3904 -0.0030
vn -0.0120 -0.0186 0.9998
vn -0.8965 0.4430 -0.0000
vn -0.0073 0.0091 -0.9999
vn -0.8263 0.5632 -0.0000
vn 0.8579 -0.5139 0.0046
vn -0.0043 0.0114 0.9999
vn 0.5838 0.8119 -0.0028
vn 0.0006 -0.0084 -1.0000
vn -0.3153 -0.9490 0.0057
vn -0.9996 0.0261 0.0052
vn -0.7935 0.6086 -0.0029
vn 0.7542 -0.6567 -0.0051
vn -0.0093 -0.0183 0.9998
vn -0.7003 0.7139 -0.0000
vn 0.0090 0.0089 -0.9999
vn -0.6358 0.7715 0.0222
vn 0.6571 -0.7538 0.0046
vn 0.0108 0.0161 0.9998
vn 0.8061 0.5917 -0.0028
vn -0.0073 -0.0198 -0.9998
vn -0.5927 -0.8054 -0.0028
vn -0.5682 0.8229 0.0056
vn 0.5143 -0.8576 -0.0051
vn -0.0137 -0.0158 0.9998
vn -0.4453 0.8954 -0.0036
vn 0.0019 0.0113 -0.9999
vn -0.3678 0.9296 0.0219
vn 0.3911 -0.9203 0.0047
vn 0.0166 0.0123 0.9998
vn 0.9524 0.3047 -0.0053
vn -0.0047 -0.0090 -0.9999
vn -0.8136 -0.5814 -0.0057
vn -0.2861 0.9582 0.0056
vn 0.2241 -0.9745 -0.0051
vn -0.0179 -0.0108 0.9998
vn -0.1434 0.9897 -0.0035
vn 0.0083 0.0103 -0.9999
vn -0.0633 0.9977 0.0227
vn 0.0900 -0.9959 0.0045
vn 0.0139 0.0063 0.9999
vn 1.0000 0.0020 -0.0028
vn -0.0082 -0.0075 -0.9999
vn -0.9534 -0.3015 -0.0057
vn 0.0261 0.9996 0.0052
vn -0.0898 -0.9959 -0.0055
vn -0.0153 0.0047 0.9999
vn 0.1671 0.9859 -0.0055
vn 0.0083 0.0078 -0.9999
vn 0.2483 0.9684 0.0223
vn -0.2245 -0.9745 0.0047
vn 0.0204 -0.0008 0.9998
vn 0.9496 -0.3133 -0.0053
vn -0.0138 0.0049 -0.9999
vn -1.0000 0.0050 -0.0053
vn 0.3336 0.9427 -0.0029
vn -0.3915 -0.9202 -0.0051
vn -0.0203 0.0032 0.9998
vn 0.4625 0.8866 -0.0000
vn 0.0113 -0.0058 -0.9999
vn 0.5372 0.8431 0.0222
vn -0.5139 -0.8579 0.0046
vn 0.0187 -0.0053 0.9998
vn 0.8119 -0.5838 -0.0028
vn -0.0211 0.0008 -0.9998
vn -0.9491 0.3148 -0.0028
vn 0.6070 0.7947 0.0056
vn -0.6567 -0.7542 -0.0051
vn -0.0192 0.0081 0.9998
vn 0.7140 0.7002 -0.0036
vn 0.0106 0.0022 -0.9999
vn 0.7715 0.6358 0.0222
vn -0.7538 -0.6571 0.0046
vn 0.0161 -0.0108 0.9998
vn 0.5917 -0.8061 -0.0028
vn -0.0100 0.0016 -0.9999
vn -0.8043 0.5941 -0.0057
vn 0.8229 0.5682 0.0056
vn -0.8576 -0.5143 -0.0051
vn -0.0158 0.0137 0.9998
vn 0.8954 0.4452 -0.0051
vn 0.0112 -0.0004 -0.9999
vn 0.9302 0.3663 0.0222
vn -0.9200 -0.3920 0.0046
vn 0.0120 -0.0153 0.9998
vn 0.3137 -0.9495 -0.0028
vn -0.0087 0.0042 -1.0000
vn -0.5814 0.8136 -0.0057
vn 0.9588 0.2842 0.0029
vn -0.9743 -0.2253 -0.0030
vn -0.0140 0.0187 0.9997
vn 0.9897 0.1434 -0.0035
vn 0.0103 -0.0083 -0.9999
vn 0.9977 0.0633 0.0227
vn -0.9959 -0.0900 0.0045
vn 0.0063 -0.0139 0.9999
vn 0.0020 -1.0000 -0.0028
vn -0.0051 0.0102 -0.9999
vn -0.3044 0.9526 0.0028
vn -0.0048 -0.0086 -1.0000
vn -0.9999 -0.0141 0.0043
vn -0.0047 1.0000 -0.0027
vn 0.9999 -0.0141 -0.0043
vn 0.0048 -0.0086 1.0000
vn 0.0047 -1.0000 -0.0027
vn 0.6727 -0.0046 -0.7399
vn 0.6727 0.0046 0.7399
vn -0.7399 0.0046 0.6727
vn -0.6727 0.0046 -0.7399
vn -0.0007 -0.0038 -1.0000
vn -0.9979 -0.0059 0.0649
vn -0.0008 0.9992 0.0399
vn 0.9979 -0.0059 -0.0649
vn 0.0007 -0.0038 1.0000
vn 0.0008 -0.9992 0.0399
vt 0.00000 0.50499
vt 0.00092 0.90105
vt 0.00122 0.54754
vt 0.00172 0.78345
vt 0.00175 0.43687
vt 0.00182 0.91545
vt 0.00182 0.98917
vt 0.00185 0.00170
vt 0.00267 0.62823
vt 0.00267 0.67855
vt 0.00267 0.72766
vt 0.00267 0.77168
vt 0.00654 0.45295
vt 0.00735 0.61285
vt 0.04497 0.91545
vt 0.04497 0.98917
vt 0.05689 0.91545
vt 0.05689 0.98917
vt 0.06837 0.53255
vt 0.06941 0.90105
vt 0.07022 0.78345
vt 0.07104 0.53504
vt 0.07396 0.60258
vt 0.07432 0.46263
vt 0.07736 0.62761
vt 0.07736 0.67855
vt 0.07736 0.72766
vt 0.07736 0.77168
vt 0.08306 0.78345
vt 0.08306 0.90105
vt 0.08625 0.00160
vt 0.08625 0.43712
vt 0.08869 0.46363
vt 0.08936 0.60238
vt 0.09252 0.53006
vt 0.09462 0.62628
vt 0.09462 0.67030
vt 0.09462 0.71941
vt 0.09462 0.77004
vt 0.09519 0.53255
vt 0.09969 0.91545
vt 0.09992 0.43687
vt 0.10002 0.00170
vt 0.10038 0.98917
vt 0.11378 0.91282
vt 0.11378 0.98654
vt 0.14847 0.91282
vt 0.14847 0.98654
vt 0.14885 0.78345
vt 0.14885 0.90105
vt 0.15611 0.45207
vt 0.15706 0.61216
vt 0.16078 0.78608
vt 0.16078 0.85980
vt 0.16078 0.87684
vt 0.16078 0.95056
vt 0.16234 0.51756
vt 0.16356 0.56011
vt 0.16931 0.62628
vt 0.16931 0.67030
vt 0.16931 0.71941
vt 0.16931 0.77004
vt 0.17725 0.45217
vt 0.17736 0.57172
vt 0.18442 0.00160
vt 0.18442 0.43712
vt 0.18567 0.62786
vt 0.18577 0.74741
vt 0.19795 0.00195
vt 0.19810 0.43712
vt 0.20341 0.58594
vt 0.20341 0.60267
vt 0.20361 0.58966
vt 0.20361 0.60640
vt 0.20525 0.00170
vt 0.20539 0.58771
vt 0.20539 0.60444
vt 0.20541 0.43687
vt 0.20718 0.58575
vt 0.20718 0.60248
vt 0.20738 0.58947
vt 0.20738 0.60620
vt 0.21288 0.45322
vt 0.21288 0.57082
vt 0.21678 0.87601
vt 0.21701 0.95147
vt 0.21703 0.86049
vt 0.21705 0.78512
vt 0.21894 0.00000
vt 0.21894 0.43355
vt 0.22130 0.62891
vt 0.22130 0.74652
vt 0.22427 0.00000
vt 0.22427 0.43355
vt 0.23619 0.58149
vt 0.23619 0.84349
vt 0.23619 0.91721
vt 0.23741 0.62404
vt 0.23769 0.32758
vt 0.23774 0.50333
vt 0.23781 0.01220
vt 0.23781 0.15179
vt 0.23781 0.36359
vt 0.23789 0.82695
vt 0.23792 0.18760
vt 0.23886 0.70278
vt 0.23886 0.76842
vt 0.24097 0.07948
vt 0.24097 0.25517
vt 0.24097 0.43087
vt 0.24274 0.52945
vt 0.24364 0.08196
vt 0.24364 0.25766
vt 0.24364 0.43335
vt 0.24364 0.68953
vt 0.30039 0.84349
vt 0.30039 0.91721
vt 0.30363 0.00091
vt 0.30363 0.35230
vt 0.30364 0.17663
vt 0.30456 0.60905
vt 0.30547 0.33726
vt 0.30552 0.51296
vt 0.30554 0.16158
vt 0.30723 0.61154
vt 0.31051 0.53913
vt 0.31071 0.06786
vt 0.31071 0.24355
vt 0.31077 0.44805
vt 0.31106 0.67797
vt 0.31201 0.10952
vt 0.31201 0.28522
vt 0.31201 0.40580
vt 0.31355 0.70278
vt 0.31355 0.76398
vt 0.31425 0.82703
vt 0.32393 0.05441
vt 0.32393 0.10952
vt 0.32393 0.23010
vt 0.32393 0.40580
vt 0.32489 0.45101
vt 0.32523 0.27176
vt 0.32555 0.53928
vt 0.32638 0.67999
vt 0.32660 0.08196
vt 0.32814 0.84167
vt 0.32814 0.91539
vt 0.32871 0.60656
vt 0.32989 0.99805
vt 0.32999 0.93149
vt 0.33011 0.70484
vt 0.33043 0.17805
vt 0.33048 0.00236
vt 0.33048 0.35375
vt 0.33081 0.76683
vt 0.33081 0.82727
vt 0.33138 0.60905
vt 0.33230 0.16295
vt 0.33231 0.33869
vt 0.33231 0.51439
vt 0.36630 0.99830
vt 0.36640 0.93174
vt 0.38183 0.99805
vt 0.38193 0.93149
vt 0.39137 0.52799
vt 0.39230 0.08196
vt 0.39230 0.25766
vt 0.39230 0.43335
vt 0.39241 0.68949
vt 0.39261 0.84084
vt 0.39280 0.91630
vt 0.39497 0.08445
vt 0.39497 0.26015
vt 0.39497 0.43584
vt 0.39803 0.15202
vt 0.39803 0.32771
vt 0.39813 0.18783
vt 0.39825 0.01204
vt 0.39825 0.36343
vt 0.39845 0.59492
vt 0.39908 0.50223
vt 0.39975 0.63661
vt 0.40550 0.76247
vt 0.40550 0.82727
vt 0.40647 0.70491
vt 0.40664 0.84167
vt 0.40664 0.91539
vt 0.41167 0.05441
vt 0.41167 0.23010
vt 0.41280 0.35139
vt 0.41280 0.40246
vt 0.41280 0.45712
vt 0.41280 0.51050
vt 0.41297 0.09607
vt 0.41297 0.27176
vt 0.41329 0.67888
vt 0.41340 0.53900
vt 0.41645 0.60656
vt 0.41814 0.00235
vt 0.41817 0.17805
vt 0.41824 0.99830
vt 0.41834 0.93174
vt 0.41912 0.60905
vt 0.42005 0.16302
vt 0.42005 0.33872
vt 0.42184 0.70486
vt 0.42276 0.76683
vt 0.42276 0.82727
vt 0.43377 0.99805
vt 0.43386 0.93149
vt 0.47017 0.99830
vt 0.47027 0.93174
vt 0.47079 0.91608
vt 0.47088 0.84167
vt 0.47911 0.52802
vt 0.48004 0.08196
vt 0.48004 0.25766
vt 0.48100 0.68866
vt 0.48271 0.08445
vt 0.48271 0.26015
vt 0.48587 0.01213
vt 0.48587 0.15173
vt 0.48587 0.18783
vt 0.48587 0.32743
vt 0.48619 0.59494
vt 0.48648 0.91539
vt 0.48657 0.84098
vt 0.48749 0.35139
vt 0.48749 0.40246
vt 0.48749 0.45712
vt 0.48749 0.51124
vt 0.48749 0.63661
vt 0.49745 0.76246
vt 0.49745 0.82727
vt 0.49828 0.70462
vt 0.49941 0.05441
vt 0.50071 0.09607
vt 0.50091 0.67897
vt 0.50095 0.32763
vt 0.50103 0.36359
vt 0.50107 0.50306
vt 0.50113 0.18760
vt 0.50113 0.53900
vt 0.50419 0.25517
vt 0.50419 0.43087
vt 0.50419 0.60656
vt 0.50590 0.00235
vt 0.50686 0.25766
vt 0.50686 0.43335
vt 0.50686 0.60905
vt 0.50779 0.16302
vt 0.51380 0.70463
vt 0.51471 0.78795
vt 0.52004 0.78795
vt 0.52111 0.70453
vt 0.53463 0.70278
vt 0.53463 0.77650
vt 0.55071 0.84167
vt 0.55071 0.91539
vt 0.56399 0.78827
vt 0.56399 0.82864
vt 0.56652 0.82864
vt 0.56680 0.78827
vt 0.56685 0.17663
vt 0.56685 0.35230
vt 0.56686 0.52806
vt 0.56775 0.51375
vt 0.56778 0.08196
vt 0.56869 0.33726
vt 0.56869 0.68865
vt 0.56933 0.70278
vt 0.56933 0.77650
vt 0.56933 0.78827
vt 0.56933 0.82864
vt 0.57045 0.08445
vt 0.57256 0.60905
vt 0.57361 0.01213
vt 0.57393 0.41922
vt 0.57401 0.24272
vt 0.57455 0.15084
vt 0.57523 0.28522
vt 0.57523 0.46091
vt 0.57523 0.58149
vt 0.57523 0.63661
vt 0.58715 0.05441
vt 0.58715 0.23010
vt 0.58715 0.52709
vt 0.58715 0.57815
vt 0.58715 0.63282
vt 0.58715 0.68657
vt 0.58715 0.84032
vt 0.58715 0.91404
vt 0.58845 0.09610
vt 0.58845 0.27179
vt 0.58877 0.50318
vt 0.58890 0.70170
vt 0.58890 0.99670
vt 0.58900 0.93015
vt 0.58901 0.36333
vt 0.58982 0.76472
vt 0.58982 0.82592
vt 0.59193 0.43087
vt 0.59449 0.00152
vt 0.59460 0.43335
vt 0.59462 0.17726
vt 0.59552 0.16300
vt 0.59552 0.33869
vt 0.62531 0.99696
vt 0.62541 0.93040
vt 0.65162 0.83950
vt 0.65181 0.91495
vt 0.65552 0.08196
vt 0.65552 0.25766
vt 0.65562 0.35305
vt 0.65647 0.51296
vt 0.65819 0.08445
vt 0.65819 0.26015
vt 0.66052 0.01102
vt 0.66124 0.15202
vt 0.66124 0.32771
vt 0.66131 0.18795
vt 0.66175 0.41837
vt 0.66184 0.52709
vt 0.66184 0.57815
vt 0.66184 0.63282
vt 0.66184 0.68701
vt 0.66297 0.46091
vt 0.66451 0.76029
vt 0.66451 0.82592
vt 0.66534 0.70146
vt 0.67376 0.52709
vt 0.67376 0.57778
vt 0.67376 0.63222
vt 0.67376 0.68595
vt 0.67489 0.00093
vt 0.67489 0.05504
vt 0.67489 0.10948
vt 0.67489 0.16018
vt 0.67756 0.17195
vt 0.67756 0.21677
vt 0.67756 0.26658
vt 0.67756 0.31740
vt 0.67756 0.33109
vt 0.67756 0.37591
vt 0.67756 0.42572
vt 0.67756 0.47685
vt 0.67995 0.83630
vt 0.67995 0.91002
vt 0.69021 0.70089
vt 0.69112 0.78420
vt 0.69402 0.92442
vt 0.69646 0.78420
vt 0.69752 0.70078
vt 0.69759 0.99815
vt 0.71282 0.70061
vt 0.71293 0.82017
vt 0.74702 0.83630
vt 0.74704 0.91002
vt 0.74845 0.52709
vt 0.74845 0.57778
vt 0.74845 0.63222
vt 0.74845 0.68641
vt 0.74845 0.70167
vt 0.74845 0.81927
vt 0.74845 0.92442
vt 0.74845 0.99815
vt 0.74958 0.00170
vt 0.74958 0.05504
vt 0.74958 0.10948
vt 0.74958 0.16018
vt 0.75225 0.17195
vt 0.75225 0.21677
vt 0.75225 0.26658
vt 0.75225 0.31801
vt 0.75225 0.33109
vt 0.75225 0.37591
vt 0.75225 0.42572
vt 0.75225 0.47685
vt 0.76038 0.92619
vt 0.76038 0.99991
vt 0.76212 0.52915
vt 0.76221 0.81545
vt 0.76304 0.60009
vt 0.76304 0.66630
vt 0.76304 0.67806
vt 0.76304 0.74919
vt 0.76304 0.82904
vt 0.76304 0.86912
vt 0.76304 0.91263
vt 0.76347 0.00201
vt 0.76417 0.07257
vt 0.76417 0.13859
vt 0.76684 0.45862
vt 0.76861 0.32388
vt 0.76872 0.44344
vt 0.76881 0.17395
vt 0.76944 0.45697
vt 0.76950 0.24452
vt 0.76950 0.31054
vt 0.76964 0.45879
vt 0.77217 0.45885
vt 0.78409 0.45885
vt 0.78654 0.45698
vt 0.78690 0.45877
vt 0.78942 0.45862
vt 0.80134 0.45885
vt 0.80379 0.45698
vt 0.80415 0.45877
vt 0.80424 0.32494
vt 0.80424 0.44254
vt 0.80667 0.45862
vt 0.81124 0.92619
vt 0.81481 0.99991
vt 0.81708 0.43991
vt 0.81789 0.32230
vt 0.81859 0.45885
vt 0.82104 0.45698
vt 0.82140 0.45877
vt 0.82392 0.45862
vt 0.83585 0.45694
vt 0.83585 0.49731
vt 0.83773 0.59517
vt 0.83773 0.66630
vt 0.83773 0.67806
vt 0.83773 0.74427
vt 0.83773 0.82904
vt 0.83773 0.86912
vt 0.83773 0.91263
vt 0.83837 0.49731
vt 0.83857 0.52891
vt 0.83865 0.45694
vt 0.83865 0.81521
vt 0.83886 0.06768
vt 0.83886 0.13859
vt 0.83983 0.00214
vt 0.84118 0.45694
vt 0.84118 0.49731
vt 0.84420 0.23963
vt 0.84420 0.31054
vt 0.84517 0.17408
vt 0.85232 0.52709
vt 0.85232 0.64469
vt 0.85232 0.75623
vt 0.85232 0.82995
vt 0.85310 0.45694
vt 0.85310 0.49731
vt 0.85345 0.09076
vt 0.85345 0.13113
vt 0.85394 0.84699
vt 0.85394 0.92071
vt 0.85491 0.00263
vt 0.85493 0.07635
vt 0.85499 0.65646
vt 0.85499 0.69653
vt 0.85499 0.74004
vt 0.85563 0.49731
vt 0.85591 0.45694
vt 0.85598 0.13113
vt 0.85626 0.09076
vt 0.85844 0.45694
vt 0.85844 0.49731
vt 0.85878 0.09076
vt 0.85878 0.13113
vt 0.85878 0.17458
vt 0.85878 0.24830
vt 0.88558 0.43991
vt 0.88638 0.32230
vt 0.90055 0.32494
vt 0.90055 0.41569
vt 0.90117 0.39866
vt 0.90117 0.48941
vt 0.91812 0.52709
vt 0.91812 0.64469
vt 0.91813 0.84699
vt 0.91813 0.92071
vt 0.91890 0.75523
vt 0.91914 0.83101
vt 0.92205 0.00263
vt 0.92205 0.07635
vt 0.92528 0.17358
vt 0.92552 0.24936
vt 0.92968 0.65646
vt 0.92968 0.69653
vt 0.92968 0.74004
vt 0.93005 0.52972
vt 0.93005 0.60344
vt 0.93191 0.92167
vt 0.93193 0.84630
vt 0.93285 0.75623
vt 0.93285 0.82995
vt 0.93544 0.00263
vt 0.93612 0.07635
vt 0.94068 0.17458
vt 0.94136 0.24830
vt 0.94609 0.65909
vt 0.94609 0.73281
vt 0.96447 0.32494
vt 0.96447 0.39866
vt 0.96447 0.41569
vt 0.96447 0.48941
vt 0.98498 0.52889
vt 0.98521 0.60435
vt 0.98712 0.84699
vt 0.98712 0.92071
vt 0.98789 0.75623
vt 0.98789 0.82995
vt 0.99082 0.00263
vt 0.99082 0.07635
vt 0.99494 0.17458
vt 0.99494 0.24830
vt 1.00000 0.65909
vt 1.00000 0.73281
s 0
usemtl Racing_kerb_red
f 1/231/221 2/193/221 6/192/221
f 1/231/74 6/192/74 10/230/74
f 10/230/202 6/192/202 5/191/202
f 10/230/53 5/191/53 9/229/53
f 101/106/132 109/135/132 106/107/132
f 101/106/267 100/134/267 109/135/267
f 102/283/142 108/276/142 98/266/142
f 102/61/131 99/39/131 104/38/131
f 102/61/134 103/37/134 107/60/134
f 102/61/266 98/62/266 99/39/266
f 102/61/269 104/38/269 103/37/269
f 103/194/138 114/222/138 112/204/138
f 103/194/273 110/216/273 114/222/273
f 104/188/26 99/199/26 103/194/26
f 105/250/135 111/270/135 113/238/135
f 105/250/140 98/266/140 108/276/140
f 105/250/270 108/276/270 111/270/270
f 105/250/275 100/243/275 98/266/275
f 106/107/137 113/136/137 114/104/137
f 106/107/272 109/135/272 113/136/272
f 106/219/143 110/216/143 101/221/143
f 106/219/29 114/222/29 110/216/29
f 107/284/27 108/276/27 102/283/27
f 107/284/28 111/270/28 108/276/28
f 107/60/136 112/36/136 111/59/136
f 107/60/271 103/37/271 112/36/271
f 109/246/144 105/250/144 113/238/144
f 109/246/25 100/243/25 105/250/25
f 11/22/1 3/23/1 7/19/1
f 11/22/62 7/19/62 15/24/62
f 113/512/139 112/495/139 114/511/139
f 113/512/274 111/496/274 112/495/274
f 131/343/158 136/376/158 140/344/158
f 131/343/288 132/375/288 136/376/288
f 132/247/160 142/268/160 135/237/160
f 132/247/290 134/277/290 142/268/290
f 132/492/168 133/507/168 134/508/168
f 132/492/298 131/491/298 133/507/298
f 133/242/167 140/279/167 137/248/167
f 133/242/297 131/264/297 140/279/297
f 134/206/159 141/233/159 138/207/159
f 134/206/289 133/235/289 141/233/289
f 135/237/165 146/280/165 144/251/165
f 135/237/295 142/268/295 146/280/295
f 136/236/35 132/247/35 135/237/35
f 137/248/162 143/269/162 145/239/162
f 137/248/292 140/279/292 143/269/292
f 138/207/164 145/234/164 146/208/164
f 138/207/294 141/233/294 145/234/294
f 138/275/169 142/268/169 134/277/169
f 138/275/37 146/280/37 142/268/37
f 139/281/36 143/269/36 140/279/36
f 139/345/163 144/378/163 143/346/163
f 139/345/293 135/377/293 144/378/293
f 140/344/161 135/377/161 139/345/161
f 140/344/291 136/376/291 135/377/291
f 141/244/170 137/248/170 145/239/170
f 141/244/34 133/242/34 137/248/34
f 145/227/166 144/259/166 146/226/166
f 145/227/296 143/258/296 144/259/296
f 15/96/207 13/116/207 14/117/207
f 15/96/58 14/117/58 16/97/58
f 2/267/201 4/241/201 12/249/201
f 2/267/52 12/249/52 5/278/52
f 2/444/209 1/443/209 3/476/209
f 2/444/60 3/476/60 4/477/60
f 3/23/208 1/14/208 10/3/208
f 3/23/59 10/3/59 7/19/59
f 34/124/224 36/102/224 45/112/224
f 34/124/80 45/112/80 38/127/80
f 34/486/232 33/485/232 35/501/232
f 34/486/88 35/501/88 36/502/88
f 36/47/223 35/48/223 44/46/223
f 36/47/79 44/46/79 41/45/79
f 37/138/89 43/145/89 33/158/89
f 37/427/222 33/428/222 34/389/222
f 37/427/225 39/388/225 38/387/225
f 37/427/78 34/389/78 39/388/78
f 37/427/81 38/387/81 42/426/81
f 38/127/229 45/112/229 49/101/229
f 38/127/85 49/101/85 47/118/85
f 39/131/9 34/124/9 38/127/9
f 4/434/200 3/392/200 11/391/200
f 4/434/51 11/391/51 8/433/51
f 40/166/226 43/145/226 46/153/226
f 40/166/231 35/175/231 33/158/231
f 40/166/82 46/153/82 48/178/82
f 40/166/87 33/158/87 43/145/87
f 41/108/12 49/101/12 45/112/12
f 41/108/90 45/112/90 36/102/90
f 41/354/228 44/351/228 48/365/228
f 41/354/84 48/365/84 49/366/84
f 42/137/10 43/145/10 37/138/10
f 42/137/11 46/153/11 43/145/11
f 42/15/227 38/16/227 47/7/227
f 42/15/83 47/7/83 46/6/83
f 44/172/8 35/175/8 40/166/8
f 44/172/91 40/166/91 48/178/91
f 48/87/230 46/54/230 47/53/230
f 48/87/86 47/53/86 49/88/86
f 5/278/206 12/249/206 16/240/206
f 5/278/57 16/240/57 14/265/57
f 6/282/2 2/267/2 5/278/2
f 66/331/105 72/360/105 70/332/105
f 66/331/244 67/359/244 72/360/244
f 67/470/115 68/497/115 69/498/115
f 67/470/254 66/468/254 68/497/254
f 67/52/107 77/40/107 71/57/107
f 67/52/246 69/34/246 77/40/246
f 68/319/114 70/293/114 73/312/114
f 68/319/253 66/306/253 70/293/253
f 69/381/106 76/422/106 74/383/106
f 69/381/245 68/430/245 76/422/245
f 7/19/203 10/3/203 13/13/203
f 7/19/54 13/13/54 15/24/54
f 70/332/108 71/361/108 75/333/108
f 70/332/247 72/360/247 71/361/247
f 71/57/112 81/33/112 79/51/112
f 71/57/251 77/40/251 81/33/251
f 72/58/18 67/52/18 71/57/18
f 73/312/109 78/303/109 80/318/109
f 73/312/248 70/293/248 78/303/248
f 74/35/116 77/40/116 69/34/116
f 74/35/20 81/33/20 77/40/20
f 74/383/111 80/423/111 81/384/111
f 74/383/250 76/422/250 80/423/250
f 75/285/19 78/303/19 70/293/19
f 75/333/110 79/362/110 78/334/110
f 75/333/249 71/361/249 79/362/249
f 76/316/117 73/312/117 80/318/117
f 76/316/17 68/319/17 73/312/17
f 8/245/4 16/240/4 12/249/4
f 8/245/61 12/249/61 4/241/61
f 8/433/205 11/391/205 15/390/205
f 8/433/56 15/390/56 16/435/56
f 80/358/113 79/347/113 81/357/113
f 80/358/252 78/348/252 79/347/252
f 9/1/3 13/13/3 10/3/3
f 9/229/204 5/191/204 14/190/204
f 9/229/55 14/190/55 13/228/55
f 99/147/141 100/170/141 101/171/141
f 99/147/276 98/146/276 100/170/276
f 99/199/133 110/216/133 103/194/133
f 99/199/268 101/221/268 110/216/268
usemtl Racing_kerb_white
f 115/41/145 121/18/145 119/17/145
f 115/41/277 116/44/277 121/18/277
f 116/200/147 126/217/147 120/195/147
f 116/200/279 118/223/279 126/217/279
f 116/56/155 117/85/155 118/86/155
f 116/56/287 115/55/287 117/85/287
f 117/105/154 119/128/154 122/113/154
f 117/105/286 115/120/286 119/128/286
f 118/380/146 125/412/146 123/413/146
f 118/380/278 117/379/278 125/412/278
f 119/453/148 120/483/148 124/454/148
f 119/453/280 121/482/280 120/483/280
f 120/195/152 130/224/152 128/205/152
f 120/195/284 126/217/284 130/224/284
f 121/189/31 116/200/31 120/195/31
f 122/113/149 127/122/149 129/99/149
f 122/113/281 119/128/281 127/122/281
f 123/220/156 126/217/156 118/223/156
f 123/220/33 130/224/33 126/217/33
f 123/257/151 129/271/151 130/272/151
f 123/257/283 125/256/283 129/271/283
f 124/132/32 127/122/32 119/128/32
f 124/454/150 128/484/150 127/455/150
f 124/454/282 120/483/282 128/484/282
f 125/109/157 122/113/157 129/99/157
f 125/109/30 117/105/30 122/113/30
f 129/488/153 128/504/153 130/487/153
f 129/488/285 127/503/285 128/504/285
f 147/287/171 153/324/171 151/288/171
f 147/287/299 148/323/299 153/324/299
f 148/111/173 158/121/173 152/98/173
f 148/111/301 150/126/301 158/121/301
f 149/143/180 151/180/180 154/157/180
f 149/143/308 147/165/308 151/180/308
f 150/396/172 157/438/172 155/398/172
f 150/396/300 149/440/300 157/438/300
f 150/475/181 147/449/181 149/474/181
f 150/475/309 148/450/309 147/449/309
f 151/288/174 152/325/174 156/289/174
f 151/288/302 153/324/302 152/325/302
f 152/98/178 162/130/178 160/115/178
f 152/98/306 158/121/306 162/130/306
f 153/95/39 148/111/39 152/98/39
f 154/157/175 159/169/175 161/144/175
f 154/157/303 151/180/303 159/169/303
f 155/125/182 158/121/182 150/126/182
f 155/125/41 162/130/41 158/121/41
f 155/398/177 161/439/177 162/399/177
f 155/398/305 157/438/305 161/439/305
f 156/182/40 159/169/40 151/180/40
f 156/289/176 160/326/176 159/290/176
f 156/289/304 152/325/304 160/326/304
f 157/148/183 154/157/183 161/144/183
f 157/148/38 149/143/38 154/157/38
f 161/451/179 160/479/179 162/452/179
f 161/451/307 159/478/307 160/479/307
f 19/181/219 17/160/219 21/141/219
f 19/181/72 21/141/72 23/168/72
f 20/100/212 28/114/212 22/129/212
f 20/100/65 22/129/65 18/123/65
f 20/184/211 19/156/211 27/155/211
f 20/184/64 27/155/64 24/183/64
f 20/213/220 18/187/220 17/186/220
f 20/213/73 17/186/73 19/214/73
f 21/373/210 17/374/210 18/342/210
f 21/373/63 18/342/63 22/341/63
f 22/341/213 26/340/213 25/372/213
f 22/341/66 25/372/66 21/373/66
f 23/168/214 21/141/214 29/154/214
f 23/168/67 29/154/67 31/179/67
f 24/110/7 32/103/7 28/114/7
f 24/110/75 28/114/75 20/100/75
f 24/183/216 27/155/216 31/151/216
f 24/183/69 31/151/69 32/185/69
f 25/140/6 29/154/6 21/141/6
f 25/372/215 26/340/215 30/339/215
f 25/372/68 30/339/68 29/371/68
f 26/133/77 22/129/77 30/119/77
f 27/174/5 19/181/5 23/168/5
f 27/174/76 23/168/76 31/179/76
f 30/119/217 22/129/217 28/114/217
f 30/119/70 28/114/70 32/103/70
f 31/489/218 29/505/218 30/506/218
f 31/489/71 30/506/71 32/490/71
f 50/28/233 51/12/233 56/11/233
f 50/28/92 56/11/92 54/27/92
f 51/218/235 53/196/235 61/203/235
f 51/218/94 61/203/94 55/225/94
f 51/494/102 52/509/102 53/510/102
f 51/494/243 50/493/243 52/509/243
f 52/176/101 54/142/101 57/167/101
f 52/176/242 50/159/242 54/142/242
f 53/296/234 52/330/234 60/328/234
f 53/296/93 60/328/93 58/300/93
f 54/27/236 56/11/236 55/10/236
f 54/27/95 55/10/95 59/26/95
f 55/225/240 61/203/240 65/197/240
f 55/225/99 65/197/99 63/215/99
f 56/232/14 51/218/14 55/225/14
f 57/167/237 54/142/237 62/152/237
f 57/167/96 62/152/96 64/177/96
f 58/198/103 61/203/103 53/196/103
f 58/198/16 65/197/16 61/203/16
f 58/300/239 60/328/239 64/329/239
f 58/300/98 64/329/98 65/301/98
f 59/139/15 62/152/15 54/142/15
f 59/26/238 55/10/238 63/9/238
f 59/26/97 63/9/97 62/25/97
f 60/173/104 57/167/104 64/177/104
f 60/173/13 52/176/13 57/167/13
f 65/310/100 62/292/100 63/291/100
f 65/310/241 64/311/241 62/292/241
f 82/335/118 87/368/118 91/336/118
f 82/335/255 83/367/255 87/368/255
f 83/305/120 93/313/120 86/294/120
f 83/305/257 85/321/257 93/313/257
f 83/465/128 84/480/128 85/481/128
f 83/465/265 82/464/265 84/480/265
f 84/299/127 91/322/127 88/304/127
f 84/299/264 82/314/264 91/322/264
f 85/385/119 92/425/119 89/386/119
f 85/385/256 84/424/256 92/425/256
f 86/294/125 97/320/125 95/307/125
f 86/294/262 93/313/262 97/320/262
f 87/286/22 83/305/22 86/294/22
f 88/304/122 94/315/122 96/295/122
f 88/304/259 91/322/259 94/315/259
f 89/317/129 93/313/129 85/321/129
f 89/317/24 97/320/24 93/313/24
f 89/386/124 96/432/124 97/382/124
f 89/386/261 92/425/261 96/432/261
f 90/327/23 94/315/23 91/322/23
f 90/337/123 95/370/123 94/338/123
f 90/337/260 86/369/260 95/370/260
f 91/336/121 86/369/121 90/337/121
f 91/336/258 87/368/258 86/369/258
f 92/302/130 88/304/130 96/295/130
f 92/302/21 84/299/21 88/304/21
f 97/499/126 94/471/126 95/469/126
f 97/499/263 96/500/263 94/471/263
usemtl Racing_asphalt
f 163/309/184 168/297/184 164/298/184
f 163/309/310 167/308/310 168/297/310
f 165/409/187 164/395/187 166/394/187
f 165/409/313 163/410/313 164/395/313
f 165/466/189 167/415/189 163/467/189
f 165/466/315 169/414/315 167/415/315
f 167/91/185 170/68/185 168/67/185
f 167/91/311 169/92/311 170/68/311
f 169/162/188 166/149/188 170/150/188
f 169/162/314 165/161/314 166/149/314
f 170/50/186 164/29/186 168/49/186
f 170/50/312 166/30/312 164/29/312
f 171/274/190 172/263/190 174/273/190
f 171/274/316 176/262/316 172/263/316
f 172/393/43 179/397/43 174/400/43
f 174/420/191 173/429/191 171/421/191
f 174/420/317 180/431/317 173/429/317
f 175/76/42 176/71/42 171/79/42
f 175/76/44 171/79/44 173/81/44
f 175/76/46 178/73/46 176/71/46
f 175/76/48 173/81/48 178/73/48
f 177/260/193 176/262/193 178/261/193
f 177/260/319 172/263/319 176/262/319
f 179/397/45 180/401/45 174/400/45
f 179/403/47 172/405/47 177/404/47
f 179/403/49 177/404/49 180/402/49
f 180/431/192 178/437/192 173/429/192
f 180/431/318 177/436/318 178/437/318
f 181/202/184 186/163/184 182/164/184
f 181/202/310 185/201/310 186/163/310
f 183/20/189 185/4/189 181/21/189
f 183/20/315 187/2/315 185/4/315
f 183/363/187 182/356/187 184/355/187
f 183/363/313 181/364/313 182/356/313
f 185/83/185 188/64/185 186/63/185
f 185/83/311 187/84/311 188/64/311
f 187/212/188 184/209/188 188/210/188
f 187/212/314 183/211/314 184/209/314
f 188/473/186 182/441/186 186/472/186
f 188/473/312 184/442/312 182/441/312
f 189/461/190 190/457/190 194/460/190
f 189/461/316 195/456/316 190/457/316
f 190/416/50 191/417/50 194/418/50
f 191/407/47 190/411/47 196/408/47
f 191/407/49 196/408/49 198/406/49
f 191/417/45 198/419/45 194/418/45
f 192/77/42 195/72/42 189/80/42
f 192/77/44 189/80/44 193/82/44
f 192/77/46 197/74/46 195/72/46
f 192/77/48 193/82/48 197/74/48
f 194/447/191 193/458/191 189/448/191
f 194/447/317 198/459/317 193/458/317
f 196/445/193 195/456/193 197/446/193
f 196/445/319 190/457/319 195/456/319
f 198/459/192 197/463/192 193/458/192
f 198/459/318 196/462/318 197/463/318
usemtl Racing_sponsor_cyan
f 199/31/194 204/5/194 200/8/194
f 199/31/320 203/32/320 204/5/320
f 199/69/199 205/78/199 203/70/199
f 199/69/325 201/75/325 205/78/325
f 201/254/197 200/252/197 202/255/197
f 201/254/323 199/253/323 200/252/323
f 203/352/195 206/349/195 204/353/195
f 203/352/321 205/350/321 206/349/321
f 204/89/196 202/94/196 200/90/196
f 204/89/322 206/93/322 202/94/322
f 205/65/198 202/42/198 206/43/198
f 205/65/324 201/66/324 202/42/324
