# Blender 4.0.2
# www.blender.org
mtllib checkpoint_arch.mtl
o checkpoint_arch
v -5.970000 0.000000 -0.420000
v -5.998430 0.029959 -0.420000
v -5.968387 0.030000 -0.450000
v -5.970000 0.000000 0.420000
v -5.968387 0.030000 0.450000
v -5.998430 0.029959 0.420000
v -5.230000 0.000000 -0.420000
v -5.228468 0.030000 -0.450000
v -5.198430 0.029959 -0.420000
v -5.230000 0.000000 0.420000
v -5.198430 0.029959 0.420000
v -5.228468 0.030000 0.450000
v -5.967131 0.627171 -0.420000
v -5.937255 0.624029 -0.450000
v -5.937255 0.624029 0.450000
v -5.967131 0.627171 0.420000
v -5.201390 0.546690 -0.450000
v -5.171514 0.543548 -0.420000
v -5.171514 0.543548 0.420000
v -5.201390 0.546690 0.450000
v -5.868886 1.247470 -0.420000
v -5.839501 1.241223 -0.450000
v -5.839501 1.241223 0.450000
v -5.868886 1.247470 0.420000
v -5.115752 1.087387 -0.450000
v -5.086368 1.081141 -0.420000
v -5.086368 1.081141 0.420000
v -5.115752 1.087387 0.450000
v -5.714103 1.825124 -0.420000
v -5.677807 1.844831 -0.420000
v -5.685543 1.815801 -0.450000
v -5.677807 1.844832 0.420000
v -5.714103 1.825124 0.420000
v -5.685543 1.815801 0.450000
v -4.974025 1.616159 -0.420000
v -4.953259 1.577911 -0.420000
v -4.981840 1.587154 -0.450000
v -4.953259 1.577911 0.420000
v -4.974025 1.616159 0.420000
v -4.981840 1.587154 0.450000
v -5.677807 1.844832 -0.420000
v -5.695588 1.882109 -0.420000
v -5.667002 1.872865 -0.450000
v -5.677807 1.844831 0.420000
v -5.667002 1.872865 0.450000
v -5.695588 1.882110 0.420000
v -4.974025 1.616159 -0.420000
v -4.963299 1.644217 -0.450000
v -4.934742 1.634896 -0.420000
v -4.974025 1.616159 0.420000
v -4.934742 1.634896 0.420000
v -4.963299 1.644217 0.450000
v -5.481273 2.440420 -0.420000
v -5.453828 2.428203 -0.450000
v -5.453828 2.428203 0.450000
v -5.481273 2.440420 0.420000
v -4.777881 2.127247 -0.450000
v -4.750436 2.115031 -0.420000
v -4.750436 2.115031 0.420000
v -4.777881 2.127247 0.450000
v -5.196152 3.000000 -0.420000
v -5.170137 2.984977 -0.450000
v -5.170137 2.984977 0.450000
v -5.196152 3.000000 0.420000
v -4.529347 2.615023 -0.450000
v -4.503332 2.600000 -0.420000
v -4.503332 2.600000 0.420000
v -4.529347 2.615023 0.450000
v -4.870441 3.501551 -0.420000
v -4.829832 3.509078 -0.420000
v -4.846160 3.483859 -0.450000
v -4.829832 3.509078 0.420000
v -4.870441 3.501551 0.420000
v -4.846160 3.483859 0.450000
v -4.231159 3.074117 -0.420000
v -4.223228 3.031323 -0.420000
v -4.247554 3.048946 -0.450000
v -4.223228 3.031323 0.420000
v -4.231159 3.074117 0.420000
v -4.247554 3.048946 0.450000
v -4.829832 3.509078 -0.420000
v -4.835223 3.550026 -0.420000
v -4.810893 3.532400 -0.450000
v -4.829832 3.509078 0.420000
v -4.810893 3.532400 0.450000
v -4.835223 3.550026 0.420000
v -4.231159 3.074117 -0.420000
v -4.212286 3.097487 -0.450000
v -4.188009 3.079798 -0.420000
v -4.231159 3.074117 0.420000
v -4.188009 3.079798 0.420000
v -4.212286 3.097487 0.450000
v -4.458869 4.014784 -0.420000
v -4.436543 3.994684 -0.450000
v -4.436543 3.994683 0.450000
v -4.458869 4.014784 0.420000
v -3.886678 3.499581 -0.450000
v -3.864353 3.479479 -0.420000
v -3.864353 3.479479 0.420000
v -3.886678 3.499581 0.450000
v -4.014784 4.458869 -0.420000
v -3.994683 4.436543 -0.450000
v -3.994684 4.436543 0.450000
v -4.014784 4.458869 0.420000
v -3.499581 3.886678 -0.450000
v -3.479479 3.864353 -0.420000
v -3.479479 3.864353 0.420000
v -3.499581 3.886678 0.450000
v -3.550026 4.835223 -0.420000
v -3.509078 4.829832 -0.420000
v -3.532400 4.810893 -0.450000
v -3.509078 4.829832 0.420000
v -3.550026 4.835223 0.420000
v -3.532400 4.810893 0.450000
v -3.074117 4.231159 -0.420000
v -3.079798 4.188009 -0.420000
v -3.097487 4.212286 -0.450000
v -3.079798 4.188009 0.420000
v -3.074117 4.231159 0.420000
v -3.097487 4.212286 0.450000
v -3.509078 4.829832 -0.420000
v -3.501551 4.870441 -0.420000
v -3.483859 4.846160 -0.450000
v -3.509078 4.829832 0.420000
v -3.483859 4.846160 0.450000
v -3.501551 4.870441 0.420000
v -3.074117 4.231159 -0.420000
v -3.048946 4.247554 -0.450000
v -3.031323 4.223228 -0.420000
v -3.074117 4.231159 0.420000
v -3.031323 4.223228 0.420000
v -3.048946 4.247554 0.450000
v -3.000000 5.196152 -0.420000
v -2.984977 5.170137 -0.450000
v -2.984977 5.170137 0.450000
v -3.000000 5.196152 0.420000
v -2.615023 4.529347 -0.450000
v -2.600000 4.503332 -0.420000
v -2.600000 4.503332 0.420000
v -2.615023 4.529347 0.450000
v -2.440420 5.481273 -0.420000
v -2.428203 5.453828 -0.450000
v -2.428203 5.453828 0.450000
v -2.440420 5.481273 0.420000
v -2.127247 4.777881 -0.450000
v -2.115031 4.750436 -0.420000
v -2.115031 4.750436 0.420000
v -2.127247 4.777881 0.450000
v -1.882110 5.695588 -0.420000
v -1.844831 5.677807 -0.420000
v -1.872865 5.667002 -0.450000
v -1.844832 5.677807 0.420000
v -1.882109 5.695588 0.420000
v -1.872865 5.667002 0.450000
v -1.616159 4.974025 -0.420000
v -1.634896 4.934742 -0.420000
v -1.644217 4.963299 -0.450000
v -1.634896 4.934742 0.420000
v -1.616159 4.974025 0.420000
v -1.644217 4.963299 0.450000
v -1.844832 5.677807 -0.420000
v -1.825124 5.714103 -0.420000
v -1.815801 5.685543 -0.450000
v -1.844831 5.677807 0.420000
v -1.815801 5.685543 0.450000
v -1.825124 5.714103 0.420000
v -1.616159 4.974025 -0.420000
v -1.587154 4.981840 -0.450000
v -1.577911 4.953259 -0.420000
v -1.616159 4.974025 0.420000
v -1.577911 4.953259 0.420000
v -1.587154 4.981840 0.450000
v -1.247470 5.868886 -0.420000
v -1.241223 5.839501 -0.450000
v -1.241223 5.839501 0.450000
v -1.247470 5.868886 0.420000
v -1.087387 5.115752 -0.450000
v -1.081141 5.086368 -0.420000
v -1.081141 5.086368 0.420000
v -1.087387 5.115752 0.450000
v -0.627171 5.967131 -0.420000
v -0.624029 5.937255 -0.450000
v -0.624029 5.937255 0.450000
v -0.627171 5.967131 0.420000
v -0.546690 5.201390 -0.450000
v -0.543548 5.171514 -0.420000
v -0.543548 5.171514 0.420000
v -0.546690 5.201390 0.450000
v -0.029959 5.998430 -0.420000
v -0.000000 5.970000 -0.420000
v -0.030000 5.968387 -0.450000
v -0.000000 5.970000 0.420000
v -0.029959 5.998430 0.420000
v -0.030000 5.968387 0.450000
v -0.000000 5.230000 -0.420000
v -0.029959 5.198430 -0.420000
v -0.030000 5.228468 -0.450000
v -0.029959 5.198430 0.420000
v -0.000000 5.230000 0.420000
v -0.030000 5.228468 0.450000
v -0.000000 5.970000 -0.420000
v 0.029959 5.998430 -0.420000
v 0.030000 5.968387 -0.450000
v -0.000000 5.970000 0.420000
v 0.030000 5.968387 0.450000
v 0.029959 5.998430 0.420000
v -0.000000 5.230000 -0.420000
v 0.030000 5.228468 -0.450000
v 0.029959 5.198430 -0.420000
v -0.000000 5.230000 0.420000
v 0.029959 5.198430 0.420000
v 0.030000 5.228468 0.450000
v 0.627171 5.967131 -0.420000
v 0.624029 5.937255 -0.450000
v 0.624029 5.937255 0.450000
v 0.627171 5.967131 0.420000
v 0.546690 5.201390 -0.450000
v 0.543548 5.171514 -0.420000
v 0.543548 5.171514 0.420000
v 0.546690 5.201390 0.450000
v 1.247470 5.868886 -0.420000
v 1.241223 5.839501 -0.450000
v 1.241223 5.839501 0.450000
v 1.247470 5.868886 0.420000
v 1.087387 5.115752 -0.450000
v 1.081141 5.086368 -0.420000
v 1.081141 5.086368 0.420000
v 1.087387 5.115752 0.450000
v 1.825124 5.714103 -0.420000
v 1.844831 5.677807 -0.420000
v 1.815801 5.685543 -0.450000
v 1.844832 5.677807 0.420000
v 1.825124 5.714103 0.420000
v 1.815801 5.685543 0.450000
v 1.616159 4.974025 -0.420000
v 1.577911 4.953259 -0.420000
v 1.587154 4.981840 -0.450000
v 1.577911 4.953259 0.420000
v 1.616159 4.974025 0.420000
v 1.587154 4.981840 0.450000
v 1.844832 5.677807 -0.420000
v 1.882109 5.695588 -0.420000
v 1.872865 5.667002 -0.450000
v 1.844831 5.677807 0.420000
v 1.872865 5.667002 0.450000
v 1.882110 5.695588 0.420000
v 1.616159 4.974025 -0.420000
v 1.644217 4.963299 -0.450000
v 1.634896 4.934742 -0.420000
v 1.616159 4.974025 0.420000
v 1.634896 4.934742 0.420000
v 1.644217 4.963299 0.450000
v 2.440420 5.481273 -0.420000
v 2.428203 5.453828 -0.450000
v 2.428203 5.453828 0.450000
v 2.440420 5.481273 0.420000
v 2.127247 4.777881 -0.450000
v 2.115031 4.750436 -0.420000
v 2.115031 4.750436 0.420000
v 2.127247 4.777881 0.450000
v 3.000000 5.196152 -0.420000
v 2.984977 5.170137 -0.450000
v 2.984977 5.170137 0.450000
v 3.000000 5.196152 0.420000
v 2.615023 4.529347 -0.450000
v 2.600000 4.503332 -0.420000
v 2.600000 4.503332 0.420000
v 2.615023 4.529347 0.450000
v 3.501551 4.870441 -0.420000
v 3.509078 4.829832 -0.420000
v 3.483859 4.846160 -0.450000
v 3.509078 4.829832 0.420000
v 3.501551 4.870441 0.420000
v 3.483859 4.846160 0.450000
v 3.074117 4.231159 -0.420000
v 3.031323 4.223228 -0.420000
v 3.048946 4.247554 -0.450000
v 3.031323 4.223228 0.420000
v 3.074117 4.231159 0.420000
v 3.048946 4.247554 0.450000
v 3.509078 4.829832 -0.420000
v 3.550026 4.835223 -0.420000
v 3.532400 4.810893 -0.450000
v 3.509078 4.829832 0.420000
v 3.532400 4.810893 0.450000
v 3.550026 4.835223 0.420000
v 3.074117 4.231159 -0.420000
v 3.097487 4.212286 -0.450000
v 3.079798 4.188009 -0.420000
v 3.074117 4.231159 0.420000
v 3.079798 4.188009 0.420000
v 3.097487 4.212286 0.450000
v 4.014784 4.458869 -0.420000
v 3.994684 4.436543 -0.450000
v 3.994683 4.436543 0.450000
v 4.014784 4.458869 0.420000
v 3.499581 3.886678 -0.450000
v 3.479479 3.864353 -0.420000
v 3.479479 3.864353 0.420000
v 3.499581 3.886678 0.450000
v 4.458869 4.014784 -0.420000
v 4.436543 3.994683 -0.450000
v 4.436543 3.994684 0.450000
v 4.458869 4.014784 0.420000
v 3.886678 3.499581 -0.450000
v 3.864353 3.479479 -0.420000
v 3.864353 3.479479 0.420000
v 3.886678 3.499581 0.450000
v 4.835223 3.550026 -0.420000
v 4.829832 3.509078 -0.420000
v 4.810893 3.532400 -0.450000
v 4.829832 3.509078 0.420000
v 4.835223 3.550026 0.420000
v 4.810893 3.532400 0.450000
v 4.231159 3.074117 -0.420000
v 4.188009 3.079798 -0.420000
v 4.212286 3.097487 -0.450000
v 4.188009 3.079798 0.420000
v 4.231159 3.074117 0.420000
v 4.212286 3.097487 0.450000
v 4.829832 3.509078 -0.420000
v 4.870441 3.501551 -0.420000
v 4.846160 3.483859 -0.450000
v 4.829832 3.509078 0.420000
v 4.846160 3.483859 0.450000
v 4.870441 3.501551 0.420000
v 4.231159 3.074117 -0.420000
v 4.247554 3.048946 -0.450000
v 4.223228 3.031323 -0.420000
v 4.231159 3.074117 0.420000
v 4.223228 3.031323 0.420000
v 4.247554 3.048946 0.450000
v 5.196152 3.000000 -0.420000
v 5.170137 2.984977 -0.450000
v 5.170137 2.984977 0.450000
v 5.196152 3.000000 0.420000
v 4.529347 2.615023 -0.450000
v 4.503332 2.600000 -0.420000
v 4.503332 2.600000 0.420000
v 4.529347 2.615023 0.450000
v 5.481273 2.440420 -0.420000
v 5.453828 2.428203 -0.450000
v 5.453828 2.428203 0.450000
v 5.481273 2.440420 0.420000
v 4.777881 2.127247 -0.450000
v 4.750436 2.115031 -0.420000
v 4.750436 2.115031 0.420000
v 4.777881 2.127247 0.450000
v 5.695588 1.882110 -0.420000
v 5.677807 1.844831 -0.420000
v 5.667002 1.872865 -0.450000
v 5.677807 1.844832 0.420000
v 5.695588 1.882109 0.420000
v 5.667002 1.872865 0.450000
v 4.974025 1.616159 -0.420000
v 4.934742 1.634896 -0.420000
v 4.963299 1.644217 -0.450000
v 4.934742 1.634896 0.420000
v 4.974025 1.616159 0.420000
v 4.963299 1.644217 0.450000
v 5.677807 1.844832 -0.420000
v 5.714103 1.825124 -0.420000
v 5.685543 1.815801 -0.450000
v 5.677807 1.844831 0.420000
v 5.685543 1.815801 0.450000
v 5.714103 1.825124 0.420000
v 4.974025 1.616159 -0.420000
v 4.981840 1.587154 -0.450000
v 4.953259 1.577911 -0.420000
v 4.974025 1.616159 0.420000
v 4.953259 1.577911 0.420000
v 4.981840 1.587154 0.450000
v 5.868886 1.247470 -0.420000
v 5.839501 1.241223 -0.450000
v 5.839501 1.241223 0.450000
v 5.868886 1.247470 0.420000
v 5.115752 1.087387 -0.450000
v 5.086368 1.081141 -0.420000
v 5.086368 1.081141 0.420000
v 5.115752 1.087387 0.450000
v 5.967131 0.627171 -0.420000
v 5.937255 0.624029 -0.450000
v 5.937255 0.624029 0.450000
v 5.967131 0.627171 0.420000
v 5.201390 0.546690 -0.450000
v 5.171514 0.543548 -0.420000
v 5.171514 0.543548 0.420000
v 5.201390 0.546690 0.450000
v 5.998430 0.029959 -0.420000
v 5.970000 0.000000 -0.420000
v 5.968387 0.030000 -0.450000
v 5.970000 0.000000 0.420000
v 5.998430 0.029959 0.420000
v 5.968387 0.030000 0.450000
v 5.230000 0.000000 -0.420000
v 5.198430 0.029959 -0.420000
v 5.228468 0.030000 -0.450000
v 5.198430 0.029959 0.420000
v 5.230000 0.000000 0.420000
v 5.228468 0.030000 0.450000
v 5.970000 0.000000 -0.670000
v 5.970000 0.030000 -0.700000
v 6.000000 0.030000 -0.670000
v 5.970000 0.420000 -0.700000
v 5.970000 0.450000 -0.670000
v 6.000000 0.420000 -0.670000
v 5.970000 0.000000 0.670000
v 6.000000 0.030000 0.670000
v 5.970000 0.030000 0.700000
v 5.970000 0.450000 0.670000
v 5.970000 0.420000 0.700000
v 6.000000 0.420000 0.670000
v 5.230000 0.000000 -0.670000
v 5.200000 0.030000 -0.670000
v 5.230000 0.030000 -0.700000
v 5.230000 0.450000 -0.670000
v 5.230000 0.420000 -0.700000
v 5.200000 0.420000 -0.670000
v 5.230000 0.000000 0.670000
v 5.230000 0.030000 0.700000
v 5.200000 0.030000 0.670000
v 5.230000 0.450000 0.670000
v 5.200000 0.420000 0.670000
v 5.230000 0.420000 0.700000
v 2.010000 4.370000 -0.010000
v 2.010000 4.390000 -0.030000
v 2.030000 4.390000 -0.010000
v 2.010000 4.850000 -0.030000
v 2.010000 4.870000 -0.010000
v 2.030000 4.850000 -0.010000
v 2.010000 4.370000 0.010000
v 2.030000 4.390000 0.010000
v 2.010000 4.390000 0.030000
v 2.010000 4.870000 0.010000
v 2.010000 4.850000 0.030000
v 2.030000 4.850000 0.010000
v 1.990000 4.370000 -0.010000
v 1.970000 4.390000 -0.010000
v 1.990000 4.390000 -0.030000
v 1.990000 4.870000 -0.010000
v 1.990000 4.850000 -0.030000
v 1.970000 4.850000 -0.010000
v 1.990000 4.370000 0.010000
v 1.990000 4.390000 0.030000
v 1.970000 4.390000 0.010000
v 1.990000 4.870000 0.010000
v 1.970000 4.850000 0.010000
v 1.990000 4.850000 0.030000
v -5.230000 0.000000 -0.670000
v -5.230000 0.030000 -0.700000
v -5.200000 0.030000 -0.670000
v -5.230000 0.420000 -0.700000
v -5.230000 0.450000 -0.670000
v -5.200000 0.420000 -0.670000
v -5.230000 0.000000 0.670000
v -5.200000 0.030000 0.670000
v -5.230000 0.030000 0.700000
v -5.230000 0.450000 0.670000
v -5.230000 0.420000 0.700000
v -5.200000 0.420000 0.670000
v -5.970000 0.000000 -0.670000
v -6.000000 0.030000 -0.670000
v -5.970000 0.030000 -0.700000
v -5.970000 0.450000 -0.670000
v -5.970000 0.420000 -0.700000
v -6.000000 0.420000 -0.670000
v -5.970000 0.000000 0.670000
v -5.970000 0.030000 0.700000
v -6.000000 0.030000 0.670000
v -5.970000 0.450000 0.670000
v -6.000000 0.420000 0.670000
v -5.970000 0.420000 0.700000
v -1.990000 4.370000 -0.010000
v -1.990000 4.390000 -0.030000
v -1.970000 4.390000 -0.010000
v -1.990000 4.850000 -0.030000
v -1.990000 4.870000 -0.010000
v -1.970000 4.850000 -0.010000
v -1.990000 4.370000 0.010000
v -1.970000 4.390000 0.010000
v -1.990000 4.390000 0.030000
v -1.990000 4.870000 0.010000
v -1.990000 4.850000 0.030000
v -1.970000 4.850000 0.010000
v -2.010000 4.370000 -0.010000
v -2.030000 4.390000 -0.010000
v -2.010000 4.390000 -0.030000
v -2.010000 4.870000 -0.010000
v -2.010000 4.850000 -0.030000
v -2.030000 4.850000 -0.010000
v -2.010000 4.370000 0.010000
v -2.010000 4.390000 0.030000
v -2.030000 4.390000 0.010000
v -2.010000 4.870000 0.010000
v -2.030000 4.850000 0.010000
v -2.010000 4.850000 0.030000
v 2.470000 3.400000 -0.030000
v 2.470000 3.430000 -0.060000
v 2.500000 3.430000 -0.030000
v 2.470000 4.370000 -0.060000
v 2.470000 4.400000 -0.030000
v 2.500000 4.370000 -0.030000
v 2.470000 3.400000 0.030000
v 2.500000 3.430000 0.030000
v 2.470000 3.430000 0.060000
v 2.470000 4.400000 0.030000
v 2.470000 4.370000 0.060000
v 2.500000 4.370000 0.030000
v -2.470000 3.400000 -0.030000
v -2.500000 3.430000 -0.030000
v -2.470000 3.430000 -0.060000
v -2.470000 4.400000 -0.030000
v -2.470000 4.370000 -0.060000
v -2.500000 4.370000 -0.030000
v -2.470000 3.400000 0.030000
v -2.470000 3.430000 0.060000
v -2.500000 3.430000 0.030000
v -2.470000 4.400000 0.030000
v -2.500000 4.370000 0.030000
v -2.470000 4.370000 0.060000
vn -0.9986 0.0523 -0.0000
vn 0.9986 -0.0523 -0.0000
vn -0.0000 -0.0000 1.0000
vn -0.0000 -0.0000 -1.0000
vn -0.9877 0.1564 -0.0000
vn 0.9877 -0.1564 -0.0000
vn -0.9659 0.2588 -0.0000
vn 0.9659 -0.2588 -0.0000
vn 0.3090 0.9511 -0.0000
vn -0.5866 -0.5567 -0.5882
vn -0.5866 -0.5567 0.5882
vn 0.5665 -0.5970 -0.5681
vn 0.5665 -0.5970 0.5681
vn -0.3859 0.7107 -0.5882
vn -0.3859 0.7107 0.5882
vn 0.7233 0.3927 -0.5681
vn 0.7233 0.3927 0.5680
vn -0.0000 -0.7071 -0.7071
vn -0.7062 0.0370 -0.7071
vn 0.7061 -0.0370 -0.7071
vn -0.0000 -0.7071 0.7071
vn 0.7061 -0.0370 0.7071
vn -0.7061 0.0370 0.7071
vn -0.7254 -0.6884 -0.0000
vn 0.6884 -0.7254 -0.0000
vn -0.6984 0.1106 -0.7071
vn 0.6984 -0.1106 -0.7071
vn 0.6984 -0.1106 0.7071
vn -0.6984 0.1106 0.7071
vn -0.6830 0.1830 -0.7071
vn 0.2185 0.6725 -0.7071
vn 0.6830 -0.1830 -0.7071
vn 0.6830 -0.1830 0.7071
vn 0.2185 0.6725 0.7071
vn -0.6830 0.1830 0.7071
vn -0.4772 0.8788 -0.0000
vn 0.8788 0.4772 -0.0000
vn -0.0000 -1.0000 -0.0000
vn -0.9336 0.3584 -0.0000
vn 0.9336 -0.3584 -0.0000
vn -0.8910 0.4540 -0.0000
vn 0.8910 -0.4540 -0.0000
vn -0.8387 0.5446 -0.0000
vn 0.8387 -0.5446 -0.0000
vn 0.5878 0.8090 -0.0000
vn -0.7299 -0.3482 -0.5882
vn -0.7299 -0.3481 0.5882
vn 0.3543 -0.7428 -0.5681
vn 0.3543 -0.7428 0.5681
vn -0.1474 0.7952 -0.5882
vn -0.1474 0.7952 0.5882
vn 0.8092 0.1500 -0.5681
vn 0.8092 0.1500 0.5681
vn -0.2185 -0.6725 -0.7071
vn -0.6601 0.2534 -0.7071
vn 0.6601 -0.2534 -0.7071
vn -0.2185 -0.6725 0.7071
vn 0.6601 -0.2534 0.7071
vn -0.6601 0.2534 0.7071
vn -0.9026 -0.4305 -0.0000
vn 0.4305 -0.9026 -0.0000
vn -0.6300 0.3210 -0.7071
vn 0.6300 -0.3210 -0.7071
vn 0.6300 -0.3210 0.7071
vn -0.6300 0.3210 0.7071
vn -0.5930 0.3851 -0.7071
vn 0.4156 0.5721 -0.7071
vn 0.5930 -0.3851 -0.7071
vn 0.5930 -0.3851 0.7071
vn 0.4156 0.5721 0.7071
vn -0.5930 0.3851 0.7071
vn -0.1822 0.9833 -0.0000
vn 0.9833 0.1822 -0.0000
vn -0.3090 -0.9511 -0.0000
vn -0.7771 0.6293 -0.0000
vn 0.7771 -0.6293 -0.0000
vn -0.7071 0.7071 -0.0000
vn 0.7071 -0.7071 -0.0000
vn -0.6293 0.7771 -0.0000
vn 0.6293 -0.7771 -0.0000
vn 0.8090 0.5878 -0.0000
vn -0.8018 -0.1056 -0.5882
vn -0.8018 -0.1056 0.5882
vn 0.1074 -0.8159 -0.5681
vn 0.1074 -0.8159 0.5681
vn 0.1056 0.8018 -0.5882
vn 0.1056 0.8018 0.5882
vn 0.8159 -0.1074 -0.5681
vn 0.8159 -0.1074 0.5681
vn -0.4156 -0.5721 -0.7071
vn -0.5495 0.4450 -0.7071
vn 0.5495 -0.4450 -0.7071
vn -0.4156 -0.5721 0.7071
vn 0.5495 -0.4450 0.7071
vn -0.5495 0.4450 0.7071
vn -0.9914 -0.1305 -0.0000
vn 0.1305 -0.9914 -0.0000
vn -0.5000 0.5000 -0.7071
vn 0.5000 -0.5000 -0.7071
vn 0.5000 -0.5000 0.7071
vn -0.5000 0.5000 0.7071
vn -0.4450 0.5495 -0.7071
vn 0.5721 0.4156 -0.7071
vn 0.4450 -0.5495 -0.7071
vn 0.4450 -0.5495 0.7071
vn 0.5721 0.4156 0.7071
vn -0.4450 0.5495 0.7071
vn 0.1305 0.9914 -0.0000
vn 0.9914 -0.1305 -0.0000
vn -0.5878 -0.8090 -0.0000
vn -0.5446 0.8387 -0.0000
vn 0.5446 -0.8387 -0.0000
vn -0.4540 0.8910 -0.0000
vn 0.4540 -0.8910 -0.0000
vn -0.3584 0.9336 -0.0000
vn 0.3584 -0.9336 -0.0000
vn 0.9511 0.3090 -0.0000
vn -0.7952 0.1474 -0.5882
vn -0.7952 0.1474 0.5882
vn -0.1500 -0.8092 -0.5681
vn -0.1500 -0.8092 0.5681
vn 0.3481 0.7299 -0.5882
vn 0.3481 0.7299 0.5882
vn 0.7428 -0.3543 -0.5680
vn 0.7428 -0.3543 0.5680
vn -0.5721 -0.4156 -0.7071
vn -0.3851 0.5930 -0.7071
vn 0.3851 -0.5930 -0.7071
vn -0.5721 -0.4156 0.7071
vn 0.3851 -0.5930 0.7071
vn -0.3851 0.5930 0.7071
vn -0.9833 0.1822 -0.0000
vn -0.1822 -0.9833 -0.0000
vn -0.3210 0.6300 -0.7071
vn 0.3210 -0.6300 -0.7071
vn 0.3210 -0.6300 0.7071
vn -0.3210 0.6300 0.7071
vn -0.2534 0.6601 -0.7071
vn 0.6725 0.2185 -0.7071
vn 0.2534 -0.6601 -0.7071
vn 0.2534 -0.6601 0.7071
vn 0.6725 0.2185 0.7071
vn -0.2534 0.6601 0.7071
vn 0.4305 0.9026 -0.0000
vn 0.9026 -0.4305 -0.0000
vn -0.8090 -0.5878 -0.0000
vn -0.2588 0.9659 -0.0000
vn 0.2588 -0.9659 -0.0000
vn -0.1564 0.9877 -0.0000
vn 0.1564 -0.9877 -0.0000
vn -0.0523 0.9986 -0.0000
vn 0.0523 -0.9986 -0.0000
vn 1.0000 -0.0000 -0.0000
vn -0.7107 0.3859 -0.5882
vn -0.7107 0.3859 0.5882
vn -0.3927 -0.7233 -0.5681
vn -0.3927 -0.7233 0.5681
vn 0.5567 0.5866 -0.5882
vn 0.5567 0.5866 0.5882
vn 0.5970 -0.5665 -0.5681
vn 0.5970 -0.5665 0.5681
vn -0.6725 -0.2185 -0.7071
vn -0.1830 0.6830 -0.7071
vn 0.1830 -0.6830 -0.7071
vn -0.6725 -0.2185 0.7071
vn 0.1830 -0.6830 0.7071
vn -0.1830 0.6830 0.7071
vn -0.8788 0.4772 -0.0000
vn -0.4771 -0.8788 -0.0000
vn -0.1106 0.6984 -0.7071
vn 0.1106 -0.6984 -0.7071
vn 0.1106 -0.6984 0.7071
vn -0.1106 0.6984 0.7071
vn -0.0370 0.7061 -0.7071
vn 0.7071 -0.0000 -0.7071
vn 0.0370 -0.7061 -0.7071
vn 0.0370 -0.7061 0.7071
vn 0.7071 -0.0000 0.7071
vn -0.0370 0.7061 0.7071
vn 0.6884 0.7254 -0.0000
vn 0.7254 -0.6884 -0.0000
vn -0.9511 -0.3090 -0.0000
vn 0.0523 0.9986 -0.0000
vn -0.0523 -0.9986 -0.0000
vn 0.1564 0.9877 -0.0000
vn -0.1564 -0.9877 -0.0000
vn 0.2588 0.9659 -0.0000
vn -0.2588 -0.9659 -0.0000
vn 0.9511 -0.3090 -0.0000
vn -0.5567 0.5866 -0.5882
vn -0.5567 0.5866 0.5882
vn -0.5970 -0.5665 -0.5681
vn -0.5970 -0.5665 0.5681
vn 0.7107 0.3859 -0.5882
vn 0.7107 0.3859 0.5882
vn 0.3927 -0.7233 -0.5681
vn 0.3927 -0.7233 0.5681
vn -0.7071 -0.0000 -0.7071
vn 0.0370 0.7061 -0.7071
vn -0.0370 -0.7061 -0.7071
vn -0.7071 -0.0000 0.7071
vn -0.0370 -0.7061 0.7071
vn 0.0370 0.7061 0.7071
vn -0.6884 0.7254 -0.0000
vn 0.1106 0.6984 -0.7071
vn -0.1106 -0.6984 -0.7071
vn -0.1106 -0.6984 0.7071
vn 0.1106 0.6984 0.7071
vn 0.1830 0.6830 -0.7071
vn 0.6725 -0.2185 -0.7071
vn -0.1830 -0.6830 -0.7071
vn -0.1830 -0.6830 0.7071
vn 0.6725 -0.2185 0.7071
vn 0.1830 0.6830 0.7071
vn 0.4771 -0.8788 -0.0000
vn -1.0000 -0.0000 -0.0000
vn 0.3584 0.9336 -0.0000
vn -0.3584 -0.9336 -0.0000
vn 0.4540 0.8910 -0.0000
vn -0.4540 -0.8910 -0.0000
vn 0.5446 0.8387 -0.0000
vn -0.5446 -0.8387 -0.0000
vn 0.8090 -0.5878 -0.0000
vn -0.3481 0.7299 -0.5882
vn -0.3481 0.7299 0.5882
vn -0.7428 -0.3543 -0.5680
vn -0.7428 -0.3543 0.5680
vn 0.7952 0.1474 -0.5882
vn 0.7952 0.1474 0.5882
vn 0.1500 -0.8092 -0.5681
vn 0.1500 -0.8092 0.5681
vn -0.6725 0.2185 -0.7071
vn 0.2534 0.6601 -0.7071
vn -0.2534 -0.6601 -0.7071
vn -0.6725 0.2185 0.7071
vn -0.2534 -0.6601 0.7071
vn 0.2534 0.6601 0.7071
vn -0.4305 0.9026 -0.0000
vn 0.3210 0.6300 -0.7071
vn -0.3210 -0.6300 -0.7071
vn -0.3210 -0.6300 0.7071
vn 0.3210 0.6300 0.7071
vn 0.3851 0.5930 -0.7071
vn 0.5721 -0.4156 -0.7071
vn -0.3851 -0.5930 -0.7071
vn -0.3851 -0.5930 0.7071
vn 0.5721 -0.4156 0.7071
vn 0.3851 0.5930 0.7071
vn 0.1822 -0.9833 -0.0000
vn -0.9511 0.3090 -0.0000
vn 0.6293 0.7771 -0.0000
vn -0.6293 -0.7771 -0.0000
vn 0.7071 0.7071 -0.0000
vn -0.7071 -0.7071 -0.0000
vn 0.7771 0.6293 -0.0000
vn -0.7771 -0.6293 -0.0000
vn 0.5878 -0.8090 -0.0000
vn -0.1056 0.8018 -0.5882
vn -0.1056 0.8018 0.5882
vn -0.8159 -0.1074 -0.5681
vn -0.8159 -0.1074 0.5681
vn 0.8018 -0.1056 -0.5882
vn 0.8018 -0.1056 0.5882
vn -0.1074 -0.8159 -0.5681
vn -0.1074 -0.8159 0.5681
vn -0.5721 0.4156 -0.7071
vn 0.4450 0.5495 -0.7071
vn -0.4450 -0.5495 -0.7071
vn -0.5721 0.4156 0.7071
vn -0.4450 -0.5495 0.7071
vn 0.4450 0.5495 0.7071
vn -0.1305 0.9914 -0.0000
vn 0.5000 0.5000 -0.7071
vn -0.5000 -0.5000 -0.7071
vn -0.5000 -0.5000 0.7071
vn 0.5000 0.5000 0.7071
vn 0.5495 0.4450 -0.7071
vn 0.4156 -0.5721 -0.7071
vn -0.5495 -0.4450 -0.7071
vn -0.5495 -0.4450 0.7071
vn 0.4156 -0.5721 0.7071
vn 0.5495 0.4450 0.7071
vn -0.1305 -0.9914 -0.0000
vn -0.8090 0.5878 -0.0000
vn 0.8387 0.5446 -0.0000
vn -0.8387 -0.5446 -0.0000
vn 0.8910 0.4540 -0.0000
vn -0.8910 -0.4540 -0.0000
vn 0.9336 0.3584 -0.0000
vn -0.9336 -0.3584 -0.0000
vn 0.3090 -0.9511 -0.0000
vn 0.1474 0.7952 -0.5882
vn 0.1474 0.7952 0.5882
vn -0.8092 0.1500 -0.5681
vn -0.8092 0.1500 0.5681
vn 0.7299 -0.3481 -0.5882
vn 0.7299 -0.3482 0.5882
vn -0.3543 -0.7428 -0.5681
vn -0.3543 -0.7428 0.5681
vn -0.4156 0.5721 -0.7071
vn 0.5930 0.3851 -0.7071
vn -0.5930 -0.3851 -0.7071
vn -0.4156 0.5721 0.7071
vn -0.5930 -0.3851 0.7071
vn 0.5930 0.3851 0.7071
vn 0.1822 0.9833 -0.0000
vn 0.6300 0.3210 -0.7071
vn -0.6300 -0.3210 -0.7071
vn -0.6300 -0.3210 0.7071
vn 0.6300 0.3210 0.7071
vn 0.6601 0.2534 -0.7071
vn 0.2185 -0.6725 -0.7071
vn -0.6601 -0.2534 -0.7071
vn -0.6601 -0.2534 0.7071
vn 0.2185 -0.6725 0.7071
vn 0.6601 0.2534 0.7071
vn -0.4305 -0.9026 -0.0000
vn -0.5878 0.8090 -0.0000
vn 0.9659 0.2588 -0.0000
vn -0.9659 -0.2588 -0.0000
vn 0.9877 0.1564 -0.0000
vn -0.9877 -0.1564 -0.0000
vn 0.9986 0.0523 -0.0000
vn -0.9986 -0.0523 -0.0000
vn 0.3859 0.7107 -0.5882
vn 0.3859 0.7107 0.5882
vn -0.7233 0.3927 -0.5680
vn -0.7233 0.3927 0.5681
vn 0.5866 -0.5567 -0.5882
vn 0.5866 -0.5567 0.5882
vn -0.5665 -0.5970 -0.5681
vn -0.5665 -0.5970 0.5681
vn -0.2185 0.6725 -0.7071
vn 0.6830 0.1830 -0.7071
vn -0.6830 -0.1830 -0.7071
vn -0.2185 0.6725 0.7071
vn -0.6830 -0.1830 0.7071
vn 0.6830 0.1830 0.7071
vn 0.4772 0.8788 -0.0000
vn 0.6984 0.1106 -0.7071
vn -0.6984 -0.1106 -0.7071
vn -0.6984 -0.1106 0.7071
vn 0.6984 0.1106 0.7071
vn 0.7061 0.0370 -0.7071
vn -0.7061 -0.0370 -0.7071
vn -0.7061 -0.0370 0.7071
vn 0.7062 0.0370 0.7071
vn -0.6884 -0.7254 -0.0000
vn -0.3090 0.9511 -0.0000
vn -0.0000 1.0000 -0.0000
vn 0.5774 -0.5774 -0.5773
vn 0.5774 0.5774 -0.5773
vn 0.5774 -0.5774 0.5773
vn 0.5774 0.5774 0.5773
vn -0.5773 -0.5774 -0.5773
vn -0.5773 0.5774 -0.5773
vn -0.5773 -0.5774 0.5773
vn -0.5773 0.5774 0.5773
vn -0.0000 0.7071 0.7071
vn -0.0000 0.7071 -0.7071
vn 0.5773 -0.5774 -0.5774
vn 0.5773 0.5774 -0.5774
vn 0.5773 -0.5774 0.5774
vn 0.5773 0.5774 0.5774
vn -0.5773 -0.5774 -0.5774
vn -0.5773 0.5774 -0.5774
vn -0.5773 -0.5774 0.5774
vn -0.5773 0.5774 0.5774
vn 0.5773 -0.5774 -0.5773
vn 0.5773 0.5774 -0.5773
vn 0.5773 -0.5774 0.5773
vn 0.5773 0.5774 0.5773
vn -0.5774 -0.5774 -0.5773
vn -0.5774 0.5774 -0.5773
vn -0.5774 -0.5774 0.5773
vn -0.5774 0.5774 0.5773
vn 0.5773 -0.5773 -0.5774
vn 0.5774 0.5773 -0.5774
vn 0.5773 -0.5773 0.5774
vn 0.5774 0.5773 0.5774
vn -0.5773 -0.5773 -0.5774
vn -0.5774 0.5773 -0.5774
vn -0.5773 -0.5773 0.5774
vn -0.5774 0.5773 0.5774
vn -0.7061 0.0370 -0.7071
vn -0.7062 0.0370 0.7071
vn -0.1823 0.9833 -0.0000
vn -0.4772 -0.8788 -0.0000
vn 0.7254 -0.6883 -0.0000
vn -0.7254 -0.6883 -0.0000
vn 0.4772 -0.8788 -0.0000
vn 0.1823 0.9833 -0.0000
vn 0.7062 0.0370 -0.7071
vn 0.7061 0.0370 0.7071
vt 0.00000 0.00263
vt 0.00000 0.43619
vt 0.00000 0.50499
vt 0.00000 0.56011
vt 0.00000 0.62874
vt 0.00000 0.78345
vt 0.00000 0.90105
vt 0.00000 0.91545
vt 0.00000 0.98917
vt 0.00207 0.91282
vt 0.00207 0.99181
vt 0.00267 0.00000
vt 0.00267 0.00263
vt 0.00267 0.43619
vt 0.00267 0.43882
vt 0.00267 0.50513
vt 0.00267 0.55997
vt 0.00267 0.62628
vt 0.00267 0.62955
vt 0.00267 0.67855
vt 0.00267 0.72766
vt 0.00267 0.77168
vt 0.00267 0.78345
vt 0.00267 0.90105
vt 0.00364 0.91545
vt 0.00364 0.98917
vt 0.00556 0.45279
vt 0.00556 0.61231
vt 0.00820 0.45321
vt 0.00820 0.61189
vt 0.00847 0.45059
vt 0.00847 0.61451
vt 0.04497 0.91545
vt 0.04497 0.98917
vt 0.05689 0.91545
vt 0.05689 0.98917
vt 0.06837 0.50853
vt 0.06837 0.55657
vt 0.06847 0.78345
vt 0.06847 0.90105
vt 0.07104 0.50867
vt 0.07104 0.55644
vt 0.07113 0.78345
vt 0.07113 0.90105
vt 0.07318 0.46337
vt 0.07318 0.60173
vt 0.07346 0.46075
vt 0.07346 0.60435
vt 0.07582 0.46378
vt 0.07582 0.60132
vt 0.07736 0.62628
vt 0.07736 0.62955
vt 0.07736 0.67855
vt 0.07736 0.72766
vt 0.07736 0.77168
vt 0.08003 0.62874
vt 0.08306 0.78345
vt 0.08306 0.90105
vt 0.08625 0.00000
vt 0.08625 0.00263
vt 0.08625 0.43619
vt 0.08625 0.43882
vt 0.08774 0.46378
vt 0.08774 0.60132
vt 0.09009 0.46075
vt 0.09009 0.60435
vt 0.09038 0.46337
vt 0.09038 0.60173
vt 0.09195 0.76922
vt 0.09252 0.50867
vt 0.09252 0.55644
vt 0.09462 0.62628
vt 0.09462 0.67030
vt 0.09462 0.71941
vt 0.09462 0.76841
vt 0.09462 0.77168
vt 0.09519 0.50853
vt 0.09519 0.55657
vt 0.09817 0.00263
vt 0.09817 0.43619
vt 0.09821 0.91545
vt 0.09821 0.98917
vt 0.09978 0.91282
vt 0.09978 0.99181
vt 0.10084 0.00000
vt 0.10084 0.00263
vt 0.10084 0.43619
vt 0.10084 0.43882
vt 0.10185 0.91545
vt 0.10185 0.98917
vt 0.11378 0.91282
vt 0.11378 0.98654
vt 0.14847 0.91282
vt 0.14847 0.98654
vt 0.14885 0.78345
vt 0.14885 0.90105
vt 0.15508 0.45059
vt 0.15508 0.61451
vt 0.15536 0.45321
vt 0.15536 0.61189
vt 0.15800 0.45279
vt 0.15800 0.61231
vt 0.16078 0.78608
vt 0.16078 0.85980
vt 0.16078 0.87684
vt 0.16078 0.95056
vt 0.16089 0.50513
vt 0.16089 0.55997
vt 0.16356 0.50499
vt 0.16356 0.56011
vt 0.16931 0.62628
vt 0.16931 0.67030
vt 0.16931 0.71941
vt 0.16931 0.76841
vt 0.16931 0.77168
vt 0.17197 0.76922
vt 0.17548 0.45322
vt 0.17548 0.57082
vt 0.17548 0.58522
vt 0.17548 0.58698
vt 0.17548 0.58873
vt 0.17548 0.59049
vt 0.17726 0.58522
vt 0.17726 0.58698
vt 0.17726 0.58873
vt 0.17726 0.59049
vt 0.17814 0.45059
vt 0.17814 0.57346
vt 0.17822 0.45322
vt 0.17822 0.57082
vt 0.18390 0.62891
vt 0.18390 0.74652
vt 0.18442 0.00000
vt 0.18442 0.00263
vt 0.18442 0.43619
vt 0.18442 0.43882
vt 0.18656 0.62628
vt 0.18656 0.74915
vt 0.18664 0.62891
vt 0.18664 0.74652
vt 0.18918 0.58522
vt 0.18918 0.58698
vt 0.18918 0.58873
vt 0.18918 0.59049
vt 0.19096 0.58522
vt 0.19096 0.58698
vt 0.19096 0.58873
vt 0.19096 0.59049
vt 0.19634 0.00263
vt 0.19634 0.43619
vt 0.19901 0.00000
vt 0.19901 0.00263
vt 0.19901 0.43619
vt 0.19901 0.43882
vt 0.20288 0.58646
vt 0.20288 0.58895
vt 0.20288 0.60320
vt 0.20288 0.60568
vt 0.20414 0.58522
vt 0.20414 0.58771
vt 0.20414 0.59019
vt 0.20414 0.60196
vt 0.20414 0.60444
vt 0.20414 0.60692
vt 0.20435 0.00000
vt 0.20435 0.00263
vt 0.20435 0.43619
vt 0.20435 0.43882
vt 0.20539 0.58646
vt 0.20539 0.58895
vt 0.20539 0.60320
vt 0.20539 0.60568
vt 0.20665 0.58522
vt 0.20665 0.58771
vt 0.20665 0.59019
vt 0.20665 0.60196
vt 0.20665 0.60444
vt 0.20665 0.60692
vt 0.20702 0.00263
vt 0.20702 0.43619
vt 0.20791 0.58646
vt 0.20791 0.58895
vt 0.20791 0.60320
vt 0.20791 0.60568
vt 0.21288 0.45322
vt 0.21288 0.57082
vt 0.21510 0.78608
vt 0.21510 0.85980
vt 0.21510 0.87684
vt 0.21510 0.95056
vt 0.21672 0.78345
vt 0.21672 0.86244
vt 0.21672 0.87420
vt 0.21672 0.95319
vt 0.21892 0.78608
vt 0.21892 0.85980
vt 0.21892 0.87684
vt 0.21892 0.95056
vt 0.21894 0.00000
vt 0.21894 0.43355
vt 0.22130 0.62891
vt 0.22130 0.74652
vt 0.22427 0.00000
vt 0.22427 0.43355
vt 0.23619 0.01319
vt 0.23619 0.15074
vt 0.23619 0.18888
vt 0.23619 0.32643
vt 0.23619 0.36458
vt 0.23619 0.50213
vt 0.23619 0.58149
vt 0.23619 0.63661
vt 0.23619 0.82688
vt 0.23619 0.84349
vt 0.23619 0.91721
vt 0.23855 0.01016
vt 0.23855 0.15377
vt 0.23855 0.18585
vt 0.23855 0.32946
vt 0.23855 0.36155
vt 0.23855 0.50516
vt 0.23883 0.01278
vt 0.23883 0.15115
vt 0.23883 0.18848
vt 0.23883 0.32684
vt 0.23883 0.36417
vt 0.23883 0.50254
vt 0.23886 0.58163
vt 0.23886 0.63647
vt 0.23886 0.70278
vt 0.23886 0.74492
vt 0.23886 0.78748
vt 0.23886 0.82534
vt 0.23886 0.82909
vt 0.24097 0.05808
vt 0.24097 0.10585
vt 0.24097 0.23377
vt 0.24097 0.28154
vt 0.24097 0.40947
vt 0.24097 0.45724
vt 0.24175 0.52929
vt 0.24175 0.68881
vt 0.24364 0.05794
vt 0.24364 0.10599
vt 0.24364 0.23364
vt 0.24364 0.28168
vt 0.24364 0.40933
vt 0.24364 0.45738
vt 0.24439 0.52971
vt 0.24439 0.68839
vt 0.24467 0.52709
vt 0.24467 0.69101
vt 0.29877 0.84349
vt 0.29877 0.91721
vt 0.29946 0.84086
vt 0.29946 0.91985
vt 0.30200 0.84349
vt 0.30200 0.91721
vt 0.30354 0.00000
vt 0.30354 0.16393
vt 0.30354 0.17569
vt 0.30354 0.33962
vt 0.30354 0.35139
vt 0.30354 0.51532
vt 0.30382 0.00262
vt 0.30382 0.16131
vt 0.30382 0.17832
vt 0.30382 0.33700
vt 0.30382 0.35401
vt 0.30382 0.51270
vt 0.30456 0.58503
vt 0.30456 0.63307
vt 0.30645 0.00221
vt 0.30645 0.16172
vt 0.30645 0.17790
vt 0.30645 0.33742
vt 0.30645 0.35360
vt 0.30645 0.51311
vt 0.30723 0.58516
vt 0.30723 0.63293
vt 0.30934 0.05454
vt 0.30934 0.10938
vt 0.30934 0.23024
vt 0.30934 0.28508
vt 0.30934 0.40593
vt 0.30934 0.46077
vt 0.30937 0.53987
vt 0.30937 0.67823
vt 0.30966 0.53724
vt 0.30966 0.68085
vt 0.31201 0.05441
vt 0.31201 0.10952
vt 0.31201 0.23010
vt 0.31201 0.28522
vt 0.31201 0.40580
vt 0.31201 0.46091
vt 0.31201 0.54027
vt 0.31201 0.67782
vt 0.31355 0.70278
vt 0.31355 0.74492
vt 0.31355 0.78748
vt 0.31355 0.82534
vt 0.31355 0.82909
vt 0.31622 0.82688
vt 0.32393 0.05441
vt 0.32393 0.10952
vt 0.32393 0.23010
vt 0.32393 0.28522
vt 0.32393 0.40580
vt 0.32393 0.46091
vt 0.32393 0.54027
vt 0.32393 0.67782
vt 0.32629 0.53724
vt 0.32629 0.68085
vt 0.32657 0.53987
vt 0.32657 0.67823
vt 0.32660 0.05454
vt 0.32660 0.10938
vt 0.32660 0.23024
vt 0.32660 0.28508
vt 0.32660 0.40593
vt 0.32660 0.46077
vt 0.32814 0.70495
vt 0.32814 0.84167
vt 0.32814 0.91539
vt 0.32814 0.93242
vt 0.32814 0.99737
vt 0.32871 0.58516
vt 0.32871 0.63293
vt 0.32949 0.00221
vt 0.32949 0.16172
vt 0.32949 0.17790
vt 0.32949 0.33742
vt 0.32949 0.35360
vt 0.32949 0.51311
vt 0.33081 0.70278
vt 0.33081 0.70656
vt 0.33081 0.74369
vt 0.33081 0.78561
vt 0.33081 0.82727
vt 0.33081 0.92979
vt 0.33081 0.93242
vt 0.33081 0.99737
vt 0.33081 1.00000
vt 0.33138 0.58503
vt 0.33138 0.63307
vt 0.33213 0.00262
vt 0.33213 0.16131
vt 0.33213 0.17832
vt 0.33213 0.33700
vt 0.33213 0.35401
vt 0.33213 0.51270
vt 0.33241 0.00000
vt 0.33241 0.16393
vt 0.33241 0.17569
vt 0.33241 0.33962
vt 0.33241 0.35139
vt 0.33241 0.51532
vt 0.36549 0.92979
vt 0.36549 0.93242
vt 0.36549 0.99737
vt 0.36549 1.00000
vt 0.36816 0.93242
vt 0.36816 0.99737
vt 0.38008 0.93242
vt 0.38008 0.99737
vt 0.38275 0.92979
vt 0.38275 0.93242
vt 0.38275 0.99737
vt 0.38275 1.00000
vt 0.39128 0.52709
vt 0.39128 0.69101
vt 0.39128 0.84167
vt 0.39128 0.91539
vt 0.39155 0.52971
vt 0.39155 0.68839
vt 0.39216 0.83903
vt 0.39216 0.91802
vt 0.39230 0.05794
vt 0.39230 0.10599
vt 0.39230 0.23364
vt 0.39230 0.28168
vt 0.39230 0.40933
vt 0.39230 0.45738
vt 0.39419 0.52929
vt 0.39419 0.68881
vt 0.39472 0.84167
vt 0.39472 0.91539
vt 0.39497 0.05808
vt 0.39497 0.10585
vt 0.39497 0.23377
vt 0.39497 0.28154
vt 0.39497 0.40947
vt 0.39497 0.45724
vt 0.39708 0.58163
vt 0.39708 0.63647
vt 0.39711 0.01278
vt 0.39711 0.15115
vt 0.39711 0.18848
vt 0.39711 0.32684
vt 0.39711 0.36417
vt 0.39711 0.50254
vt 0.39739 0.01016
vt 0.39739 0.15377
vt 0.39739 0.18585
vt 0.39739 0.32946
vt 0.39739 0.36155
vt 0.39739 0.50516
vt 0.39975 0.01319
vt 0.39975 0.15074
vt 0.39975 0.18888
vt 0.39975 0.32643
vt 0.39975 0.36458
vt 0.39975 0.50213
vt 0.39975 0.58149
vt 0.39975 0.63661
vt 0.40550 0.70278
vt 0.40550 0.70656
vt 0.40550 0.74369
vt 0.40550 0.78561
vt 0.40550 0.82727
vt 0.40664 0.84167
vt 0.40664 0.91539
vt 0.40817 0.70495
vt 0.41167 0.05441
vt 0.41167 0.10952
vt 0.41167 0.23010
vt 0.41167 0.28522
vt 0.41167 0.54027
vt 0.41167 0.67782
vt 0.41280 0.35139
vt 0.41280 0.40246
vt 0.41280 0.45712
vt 0.41280 0.50959
vt 0.41280 0.51215
vt 0.41403 0.53724
vt 0.41403 0.68085
vt 0.41431 0.53987
vt 0.41431 0.67823
vt 0.41434 0.05454
vt 0.41434 0.10938
vt 0.41434 0.23024
vt 0.41434 0.28508
vt 0.41645 0.58516
vt 0.41645 0.63293
vt 0.41723 0.00221
vt 0.41723 0.16172
vt 0.41723 0.17790
vt 0.41723 0.33742
vt 0.41742 0.92979
vt 0.41742 0.93242
vt 0.41742 0.99737
vt 0.41742 1.00000
vt 0.41912 0.58503
vt 0.41912 0.63307
vt 0.41987 0.00262
vt 0.41987 0.16131
vt 0.41987 0.17832
vt 0.41987 0.33700
vt 0.42009 0.70495
vt 0.42009 0.93242
vt 0.42009 0.99737
vt 0.42014 0.00000
vt 0.42014 0.16393
vt 0.42014 0.17569
vt 0.42014 0.33962
vt 0.42276 0.70278
vt 0.42276 0.70656
vt 0.42276 0.74369
vt 0.42276 0.78561
vt 0.42276 0.82727
vt 0.43201 0.93242
vt 0.43201 0.99737
vt 0.43468 0.92979
vt 0.43468 0.93242
vt 0.43468 0.99737
vt 0.43468 1.00000
vt 0.46922 0.84167
vt 0.46922 0.91539
vt 0.46936 0.92979
vt 0.46936 0.93242
vt 0.46936 0.99737
vt 0.46936 1.00000
vt 0.47018 0.83903
vt 0.47018 0.91802
vt 0.47202 0.93242
vt 0.47202 0.99737
vt 0.47272 0.84167
vt 0.47272 0.91539
vt 0.47902 0.52709
vt 0.47902 0.69101
vt 0.47929 0.52971
vt 0.47929 0.68839
vt 0.48004 0.05794
vt 0.48004 0.10599
vt 0.48004 0.23364
vt 0.48004 0.28168
vt 0.48193 0.52929
vt 0.48193 0.68881
vt 0.48271 0.05808
vt 0.48271 0.10585
vt 0.48271 0.23377
vt 0.48271 0.28154
vt 0.48464 0.84167
vt 0.48464 0.91539
vt 0.48482 0.58163
vt 0.48482 0.63647
vt 0.48485 0.01278
vt 0.48485 0.15115
vt 0.48485 0.18848
vt 0.48485 0.32684
vt 0.48513 0.01016
vt 0.48513 0.15377
vt 0.48513 0.18585
vt 0.48513 0.32946
vt 0.48718 0.83903
vt 0.48718 0.91802
vt 0.48749 0.01319
vt 0.48749 0.15074
vt 0.48749 0.18888
vt 0.48749 0.32643
vt 0.48749 0.35139
vt 0.48749 0.40246
vt 0.48749 0.45712
vt 0.48749 0.50959
vt 0.48749 0.51215
vt 0.48749 0.58149
vt 0.48749 0.63661
vt 0.48813 0.84167
vt 0.48813 0.91539
vt 0.49745 0.70278
vt 0.49745 0.70656
vt 0.49745 0.74369
vt 0.49745 0.78561
vt 0.49745 0.82727
vt 0.49941 0.05441
vt 0.49941 0.10952
vt 0.49941 0.18888
vt 0.49941 0.32643
vt 0.49941 0.36458
vt 0.49941 0.50213
vt 0.49941 0.54027
vt 0.49941 0.67782
vt 0.50012 0.70495
vt 0.50177 0.18585
vt 0.50177 0.32946
vt 0.50177 0.36155
vt 0.50177 0.50516
vt 0.50177 0.53724
vt 0.50177 0.68085
vt 0.50205 0.18848
vt 0.50205 0.32684
vt 0.50205 0.36417
vt 0.50205 0.50254
vt 0.50205 0.53987
vt 0.50205 0.67823
vt 0.50208 0.05454
vt 0.50208 0.10938
vt 0.50419 0.23377
vt 0.50419 0.28154
vt 0.50419 0.40947
vt 0.50419 0.45724
vt 0.50419 0.58516
vt 0.50419 0.63293
vt 0.50497 0.00221
vt 0.50497 0.16172
vt 0.50686 0.23364
vt 0.50686 0.28168
vt 0.50686 0.40933
vt 0.50686 0.45738
vt 0.50686 0.58503
vt 0.50686 0.63307
vt 0.50761 0.00262
vt 0.50761 0.16131
vt 0.50788 0.00000
vt 0.50788 0.16393
vt 0.51204 0.70541
vt 0.51471 0.70278
vt 0.51471 0.70549
vt 0.51471 0.78795
vt 0.52004 0.70278
vt 0.52004 0.70549
vt 0.52004 0.78795
vt 0.52271 0.70541
vt 0.53463 0.70278
vt 0.53463 0.77650
vt 0.55071 0.84167
vt 0.55071 0.91539
vt 0.56399 0.78827
vt 0.56399 0.82864
vt 0.56577 0.78827
vt 0.56577 0.82864
vt 0.56676 0.17569
vt 0.56676 0.33962
vt 0.56676 0.35139
vt 0.56676 0.51532
vt 0.56676 0.52709
vt 0.56676 0.69101
vt 0.56703 0.17832
vt 0.56703 0.33700
vt 0.56703 0.35401
vt 0.56703 0.51270
vt 0.56703 0.52971
vt 0.56703 0.68839
vt 0.56755 0.78827
vt 0.56755 0.82864
vt 0.56778 0.05794
vt 0.56778 0.10599
vt 0.56933 0.70278
vt 0.56933 0.77650
vt 0.56933 0.78827
vt 0.56933 0.82864
vt 0.56967 0.17790
vt 0.56967 0.33742
vt 0.56967 0.35360
vt 0.56967 0.51311
vt 0.56967 0.52929
vt 0.56967 0.68881
vt 0.57045 0.05808
vt 0.57045 0.10585
vt 0.57256 0.23024
vt 0.57256 0.28508
vt 0.57256 0.40593
vt 0.57256 0.46077
vt 0.57256 0.58163
vt 0.57256 0.63647
vt 0.57259 0.01278
vt 0.57259 0.15115
vt 0.57287 0.01016
vt 0.57287 0.15377
vt 0.57523 0.01319
vt 0.57523 0.15074
vt 0.57523 0.23010
vt 0.57523 0.28522
vt 0.57523 0.40580
vt 0.57523 0.46091
vt 0.57523 0.58149
vt 0.57523 0.63661
vt 0.58715 0.05441
vt 0.58715 0.10952
vt 0.58715 0.23010
vt 0.58715 0.28522
vt 0.58715 0.36458
vt 0.58715 0.50213
vt 0.58715 0.52709
vt 0.58715 0.57815
vt 0.58715 0.63282
vt 0.58715 0.68529
vt 0.58715 0.68784
vt 0.58715 0.70182
vt 0.58715 0.84032
vt 0.58715 0.91404
vt 0.58715 0.93108
vt 0.58715 0.99602
vt 0.58950 0.36155
vt 0.58950 0.50516
vt 0.58979 0.36417
vt 0.58979 0.50254
vt 0.58982 0.05454
vt 0.58982 0.10938
vt 0.58982 0.23024
vt 0.58982 0.28508
vt 0.58982 0.69961
vt 0.58982 0.70337
vt 0.58982 0.74122
vt 0.58982 0.78378
vt 0.58982 0.82592
vt 0.58982 0.92844
vt 0.58982 0.93108
vt 0.58982 0.99602
vt 0.58982 0.99866
vt 0.59193 0.40947
vt 0.59193 0.45724
vt 0.59271 0.00221
vt 0.59271 0.16172
vt 0.59271 0.17790
vt 0.59271 0.33742
vt 0.59460 0.40933
vt 0.59460 0.45738
vt 0.59535 0.00262
vt 0.59535 0.16131
vt 0.59535 0.17832
vt 0.59535 0.33700
vt 0.59562 0.00000
vt 0.59562 0.16393
vt 0.59562 0.17569
vt 0.59562 0.33962
vt 0.62450 0.92844
vt 0.62450 0.93108
vt 0.62450 0.99602
vt 0.62450 0.99866
vt 0.62716 0.93108
vt 0.62716 0.99602
vt 0.65029 0.84032
vt 0.65029 0.91404
vt 0.65117 0.83769
vt 0.65117 0.91668
vt 0.65373 0.84032
vt 0.65373 0.91404
vt 0.65449 0.35139
vt 0.65449 0.51532
vt 0.65477 0.35401
vt 0.65477 0.51270
vt 0.65552 0.05794
vt 0.65552 0.10599
vt 0.65552 0.23364
vt 0.65552 0.28168
vt 0.65741 0.35360
vt 0.65741 0.51311
vt 0.65819 0.05808
vt 0.65819 0.10585
vt 0.65819 0.23377
vt 0.65819 0.28154
vt 0.66030 0.40593
vt 0.66030 0.46077
vt 0.66033 0.01278
vt 0.66033 0.15115
vt 0.66033 0.18848
vt 0.66033 0.32684
vt 0.66061 0.01016
vt 0.66061 0.15377
vt 0.66061 0.18585
vt 0.66061 0.32946
vt 0.66184 0.52709
vt 0.66184 0.57815
vt 0.66184 0.63282
vt 0.66184 0.68529
vt 0.66184 0.68784
vt 0.66297 0.01319
vt 0.66297 0.15074
vt 0.66297 0.18888
vt 0.66297 0.32643
vt 0.66297 0.40580
vt 0.66297 0.46091
vt 0.66451 0.69961
vt 0.66451 0.70337
vt 0.66451 0.74122
vt 0.66451 0.78378
vt 0.66451 0.82592
vt 0.66717 0.70182
vt 0.67376 0.52709
vt 0.67376 0.57778
vt 0.67376 0.63222
vt 0.67376 0.68464
vt 0.67376 0.68727
vt 0.67489 0.00000
vt 0.67489 0.00263
vt 0.67489 0.05504
vt 0.67489 0.10948
vt 0.67489 0.16018
vt 0.67489 0.31683
vt 0.67489 0.47598
vt 0.67756 0.17195
vt 0.67756 0.21677
vt 0.67756 0.26658
vt 0.67756 0.31610
vt 0.67756 0.31932
vt 0.67756 0.33109
vt 0.67756 0.37591
vt 0.67756 0.42572
vt 0.67756 0.47524
vt 0.67756 0.47846
vt 0.67869 0.92442
vt 0.67869 0.99815
vt 0.67995 0.83630
vt 0.67995 0.91002
vt 0.68845 0.70166
vt 0.69112 0.69903
vt 0.69112 0.70174
vt 0.69112 0.78420
vt 0.69646 0.69903
vt 0.69646 0.70174
vt 0.69646 0.78420
vt 0.69912 0.70166
vt 0.71105 0.70167
vt 0.71105 0.81927
vt 0.71291 0.92442
vt 0.71291 0.99815
vt 0.71371 0.69903
vt 0.71371 0.82190
vt 0.71379 0.70167
vt 0.71379 0.81927
vt 0.74572 0.83630
vt 0.74572 0.91002
vt 0.74578 0.83367
vt 0.74578 0.91266
vt 0.74845 0.52709
vt 0.74845 0.57778
vt 0.74845 0.63222
vt 0.74845 0.68464
vt 0.74845 0.68727
vt 0.74845 0.70167
vt 0.74845 0.81927
vt 0.74845 0.83630
vt 0.74845 0.91002
vt 0.74845 0.92442
vt 0.74845 0.99815
vt 0.74958 0.00000
vt 0.74958 0.00263
vt 0.74958 0.05504
vt 0.74958 0.10948
vt 0.74958 0.16018
vt 0.75225 0.17195
vt 0.75225 0.21677
vt 0.75225 0.26658
vt 0.75225 0.31610
vt 0.75225 0.31932
vt 0.75225 0.33109
vt 0.75225 0.37591
vt 0.75225 0.42572
vt 0.75225 0.47524
vt 0.75225 0.47846
vt 0.75491 0.31683
vt 0.75491 0.47598
vt 0.76038 0.52963
vt 0.76038 0.81473
vt 0.76038 0.91233
vt 0.76038 0.92619
vt 0.76038 0.99991
vt 0.76150 0.00252
vt 0.76304 0.52709
vt 0.76304 0.53044
vt 0.76304 0.57404
vt 0.76304 0.62122
vt 0.76304 0.66630
vt 0.76304 0.67806
vt 0.76304 0.72314
vt 0.76304 0.77032
vt 0.76304 0.81392
vt 0.76304 0.81727
vt 0.76304 0.82904
vt 0.76304 0.86912
vt 0.76304 0.91084
vt 0.76304 0.91442
vt 0.76417 0.00000
vt 0.76417 0.00341
vt 0.76417 0.04665
vt 0.76417 0.09360
vt 0.76417 0.13859
vt 0.76684 0.17447
vt 0.76684 0.32494
vt 0.76684 0.44254
vt 0.76684 0.45862
vt 0.76684 0.49906
vt 0.76861 0.45874
vt 0.76861 0.49914
vt 0.76869 0.45694
vt 0.76950 0.17195
vt 0.76950 0.17536
vt 0.76950 0.21860
vt 0.76950 0.26555
vt 0.76950 0.31054
vt 0.76950 0.32230
vt 0.76950 0.44517
vt 0.76958 0.32494
vt 0.76958 0.44254
vt 0.77039 0.45882
vt 0.77047 0.45702
vt 0.77217 0.45885
vt 0.78409 0.45885
vt 0.78579 0.45702
vt 0.78587 0.45882
vt 0.78756 0.45694
vt 0.78764 0.45874
vt 0.78764 0.49914
vt 0.78942 0.45862
vt 0.78942 0.49906
vt 0.79591 0.92619
vt 0.79591 0.99991
vt 0.80134 0.45885
vt 0.80304 0.45702
vt 0.80312 0.45882
vt 0.80424 0.32494
vt 0.80424 0.44254
vt 0.80482 0.45694
vt 0.80489 0.49914
vt 0.80490 0.45874
vt 0.80667 0.45862
vt 0.80667 0.49906
vt 0.81617 0.32230
vt 0.81617 0.43991
vt 0.81859 0.45885
vt 0.81883 0.32230
vt 0.81883 0.43991
vt 0.82029 0.45702
vt 0.82037 0.45882
vt 0.82207 0.45694
vt 0.82215 0.45874
vt 0.82215 0.49914
vt 0.82392 0.45862
vt 0.82392 0.49906
vt 0.83014 0.92619
vt 0.83014 0.99991
vt 0.83585 0.45694
vt 0.83585 0.49731
vt 0.83762 0.45694
vt 0.83762 0.49731
vt 0.83773 0.52709
vt 0.83773 0.53044
vt 0.83773 0.57404
vt 0.83773 0.62122
vt 0.83773 0.66630
vt 0.83773 0.67806
vt 0.83773 0.72314
vt 0.83773 0.77032
vt 0.83773 0.81392
vt 0.83773 0.81727
vt 0.83773 0.82904
vt 0.83773 0.86912
vt 0.83773 0.91084
vt 0.83773 0.91442
vt 0.83886 0.00000
vt 0.83886 0.00341
vt 0.83886 0.04665
vt 0.83886 0.09360
vt 0.83886 0.13859
vt 0.83940 0.45694
vt 0.83940 0.49731
vt 0.84040 0.52963
vt 0.84040 0.81473
vt 0.84040 0.91233
vt 0.84118 0.45694
vt 0.84118 0.49731
vt 0.84153 0.00252
vt 0.84420 0.17195
vt 0.84420 0.17536
vt 0.84420 0.21860
vt 0.84420 0.26555
vt 0.84420 0.31054
vt 0.84686 0.17447
vt 0.85232 0.52709
vt 0.85232 0.64469
vt 0.85232 0.73974
vt 0.85232 0.75623
vt 0.85232 0.82995
vt 0.85232 0.84699
vt 0.85232 0.92071
vt 0.85310 0.45694
vt 0.85310 0.49731
vt 0.85345 0.00263
vt 0.85345 0.07635
vt 0.85345 0.09076
vt 0.85345 0.13113
vt 0.85486 0.84436
vt 0.85486 0.92334
vt 0.85488 0.45694
vt 0.85488 0.49731
vt 0.85499 0.65646
vt 0.85499 0.69653
vt 0.85499 0.73825
vt 0.85499 0.74183
vt 0.85523 0.09076
vt 0.85523 0.13113
vt 0.85555 0.84699
vt 0.85555 0.92071
vt 0.85612 0.00000
vt 0.85612 0.07899
vt 0.85626 0.00263
vt 0.85626 0.07635
vt 0.85666 0.45694
vt 0.85666 0.49731
vt 0.85701 0.09076
vt 0.85701 0.13113
vt 0.85844 0.45694
vt 0.85844 0.49731
vt 0.85878 0.09076
vt 0.85878 0.13113
vt 0.85878 0.17458
vt 0.85878 0.24830
vt 0.88463 0.32230
vt 0.88463 0.43991
vt 0.88730 0.32230
vt 0.88730 0.43991
vt 0.89922 0.32494
vt 0.89922 0.39866
vt 0.89922 0.41569
vt 0.89922 0.48941
vt 0.90174 0.32230
vt 0.90174 0.40129
vt 0.90174 0.41306
vt 0.90174 0.49205
vt 0.90250 0.32494
vt 0.90250 0.39866
vt 0.90250 0.41569
vt 0.90250 0.48941
vt 0.91812 0.52709
vt 0.91812 0.64469
vt 0.91812 0.75623
vt 0.91812 0.82995
vt 0.91813 0.84699
vt 0.91813 0.92071
vt 0.91826 0.75360
vt 0.91826 0.83259
vt 0.92093 0.75623
vt 0.92093 0.82995
vt 0.92205 0.00263
vt 0.92205 0.07635
vt 0.92456 0.17458
vt 0.92456 0.24830
vt 0.92462 0.17195
vt 0.92462 0.25094
vt 0.92729 0.17458
vt 0.92729 0.24830
vt 0.92968 0.65646
vt 0.92968 0.69653
vt 0.92968 0.73825
vt 0.92968 0.74183
vt 0.93005 0.52972
vt 0.93005 0.60344
vt 0.93005 0.84699
vt 0.93005 0.92071
vt 0.93221 0.84436
vt 0.93221 0.92334
vt 0.93235 0.73974
vt 0.93285 0.75623
vt 0.93285 0.82995
vt 0.93389 0.84699
vt 0.93389 0.92071
vt 0.93398 0.00263
vt 0.93398 0.07635
vt 0.93614 0.00000
vt 0.93614 0.07899
vt 0.93759 0.00263
vt 0.93759 0.07635
vt 0.93921 0.17458
vt 0.93921 0.24830
vt 0.94132 0.17195
vt 0.94132 0.25094
vt 0.94284 0.17458
vt 0.94284 0.24830
vt 0.94427 0.65909
vt 0.94427 0.73281
vt 0.94638 0.65646
vt 0.94638 0.73544
vt 0.94790 0.65909
vt 0.94790 0.73281
vt 0.96447 0.32494
vt 0.96447 0.39866
vt 0.96447 0.41569
vt 0.96447 0.48941
vt 0.98328 0.52972
vt 0.98328 0.60344
vt 0.98496 0.52709
vt 0.98496 0.60607
vt 0.98608 0.75623
vt 0.98608 0.82995
vt 0.98711 0.52972
vt 0.98711 0.60344
vt 0.98712 0.84699
vt 0.98712 0.92071
vt 0.98754 0.75360
vt 0.98754 0.83259
vt 0.98969 0.75623
vt 0.98969 0.82995
vt 0.99082 0.00263
vt 0.99082 0.07635
vt 0.99494 0.17458
vt 0.99494 0.24830
vt 1.00000 0.65909
vt 1.00000 0.73281
s 0
usemtl Racing_kerb_red
f 1/32/10 2/28/10 3/30/10
f 10/548/21 12/554/21 5/602/21
f 10/548/21 5/602/21 4/596/21
f 10/989/13 11/995/13 12/993/13
f 100/244/3 103/281/3 95/282/3
f 100/244/3 108/243/3 103/281/3
f 100/244/3 85/266/3 92/223/3
f 100/244/3 95/282/3 85/266/3
f 101/305/102 109/330/102 111/347/102
f 101/305/102 111/347/102 102/317/102
f 101/305/98 102/317/98 94/318/98
f 101/305/98 94/318/98 93/306/98
f 104/291/107 103/281/107 114/265/107
f 104/291/107 114/265/107 113/273/107
f 104/831/77 101/908/77 93/909/77
f 104/831/77 93/909/77 96/832/77
f 106/389/104 105/379/104 117/397/104
f 106/389/104 117/397/104 116/409/104
f 106/389/99 97/380/99 105/379/99
f 106/389/99 98/390/99 97/380/99
f 106/777/78 107/778/78 99/764/78
f 106/777/78 99/764/78 98/763/78
f 107/235/105 118/205/105 120/222/105
f 107/235/105 120/222/105 108/243/105
f 108/243/3 114/265/3 103/281/3
f 108/243/3 120/222/3 114/265/3
f 109/25/86 110/8/86 111/10/86
f 110/8/108 109/25/108 113/26/108
f 110/8/108 113/26/108 112/9/108
f 111/347/4 105/379/4 102/317/4
f 111/347/4 117/397/4 105/379/4
f 112/103/81 115/188/81 110/104/81
f 112/103/81 119/187/81 115/188/81
f 112/9/87 113/26/87 114/11/87
f 113/26/79 101/33/79 104/34/79
f 113/26/79 109/25/79 101/33/79
f 115/188/88 116/196/88 117/192/88
f 115/403/103 111/347/103 110/353/103
f 115/403/103 117/397/103 111/347/103
f 116/796/80 107/778/80 106/777/80
f 116/796/80 118/797/80 107/778/80
f 118/195/89 119/187/89 120/191/89
f 119/187/109 116/196/109 115/188/109
f 119/187/109 118/195/109 116/196/109
f 119/216/106 112/259/106 114/265/106
f 119/216/106 114/265/106 120/222/106
f 12/554/3 15/624/3 5/602/3
f 12/554/3 20/570/3 15/624/3
f 13/4/19 3/30/19 2/28/19
f 13/4/26 21/3/26 22/16/26
f 13/4/26 22/16/26 14/17/26
f 13/4/385 14/17/385 3/30/385
f 14/17/4 17/38/4 8/46/4
f 14/17/4 8/46/4 3/30/4
f 16/433/1 13/524/1 2/525/1
f 16/433/1 2/525/1 6/434/1
f 16/636/23 5/602/23 15/624/23
f 16/636/29 15/624/29 23/623/29
f 16/636/29 23/623/29 24/635/29
f 16/636/386 6/616/386 5/602/386
f 161/982/154 162/974/154 163/978/154
f 163/681/4 174/660/4 177/705/4
f 163/681/4 177/705/4 168/717/4
f 164/983/155 165/979/155 166/975/155
f 164/983/168 162/974/168 161/982/168
f 164/983/168 166/975/168 162/974/168
f 167/1037/182 164/983/182 161/982/182
f 167/1037/182 170/1038/182 164/983/182
f 167/721/162 161/685/162 163/681/162
f 167/721/162 163/681/162 168/717/162
f 167/898/156 168/919/156 169/899/156
f 167/898/169 171/822/169 170/821/169
f 167/898/388 169/899/388 171/822/388
f 170/66/165 165/100/165 164/98/165
f 170/66/165 172/68/165 165/100/165
f 170/821/157 171/822/157 172/815/157
f 173/640/163 163/681/163 162/675/163
f 173/640/163 174/660/163 163/681/163
f 174/660/4 182/659/4 185/704/4
f 174/660/4 185/704/4 177/705/4
f 176/110/167 165/100/167 175/108/167
f 176/110/167 166/102/167 165/100/167
f 176/788/147 162/741/147 166/787/147
f 176/788/147 173/742/147 162/741/147
f 178/711/164 168/717/164 177/705/164
f 178/711/164 169/730/164 168/717/164
f 178/711/171 177/705/171 185/704/171
f 178/711/171 185/704/171 186/710/171
f 178/900/148 171/822/148 169/899/148
f 178/900/148 179/823/148 171/822/148
f 179/71/166 172/68/166 171/64/166
f 179/71/166 180/78/166 172/68/166
f 179/71/172 187/70/172 188/77/172
f 179/71/172 188/77/172 180/78/172
f 18/42/20 8/46/20 17/38/20
f 18/42/20 9/50/20 8/46/20
f 18/838/2 11/916/2 9/839/2
f 18/838/2 19/915/2 11/916/2
f 180/78/3 165/100/3 172/68/3
f 180/78/3 175/108/3 165/100/3
f 181/639/170 174/660/170 173/640/170
f 181/639/170 182/659/170 174/660/170
f 181/639/174 189/674/174 191/680/174
f 181/639/174 191/680/174 182/659/174
f 182/659/4 191/680/4 197/716/4
f 182/659/4 197/716/4 185/704/4
f 184/109/173 175/108/173 183/107/173
f 184/109/173 176/110/173 175/108/173
f 184/109/179 183/107/179 194/99/179
f 184/109/179 194/99/179 193/101/179
f 184/789/149 173/742/149 176/788/149
f 184/789/149 181/743/149 173/742/149
f 186/710/176 185/704/176 197/716/176
f 186/710/176 197/716/176 196/729/176
f 186/901/150 179/823/150 178/900/150
f 186/901/150 187/824/150 179/823/150
f 187/70/177 198/63/177 200/67/177
f 187/70/177 200/67/177 188/77/177
f 188/77/3 175/108/3 180/78/3
f 188/77/3 183/107/3 175/108/3
f 189/674/158 190/684/158 191/680/158
f 19/562/22 12/554/22 11/541/22
f 19/562/22 20/570/22 12/554/22
f 190/745/180 189/744/180 193/790/180
f 190/745/180 193/790/180 192/791/180
f 192/765/153 195/784/153 190/766/153
f 192/765/153 199/783/153 195/784/153
f 192/97/159 193/101/159 194/99/159
f 193/790/151 181/743/151 184/789/151
f 193/790/151 189/744/151 181/743/151
f 195/720/175 191/680/175 190/684/175
f 195/720/175 197/716/175 191/680/175
f 195/784/160 196/795/160 197/786/160
f 196/902/152 187/824/152 186/901/152
f 196/902/152 198/825/152 187/824/152
f 198/794/161 199/783/161 200/785/161
f 199/65/178 192/97/178 194/99/178
f 199/65/178 194/99/178 200/67/178
f 199/783/181 196/795/181 195/784/181
f 199/783/389 198/794/389 196/795/389
f 20/570/3 23/623/3 15/624/3
f 20/570/3 28/569/3 23/623/3
f 200/67/3 183/107/3 188/77/3
f 200/67/3 194/99/3 183/107/3
f 21/3/30 29/27/30 31/29/30
f 21/3/30 31/29/30 22/16/30
f 22/16/4 17/38/4 14/17/4
f 22/16/4 25/37/4 17/38/4
f 24/432/5 13/524/5 16/433/5
f 24/432/5 21/523/5 13/524/5
f 24/635/35 23/623/35 34/601/35
f 24/635/35 34/601/35 33/615/35
f 241/115/224 242/114/224 243/116/224
f 243/603/4 254/625/4 257/571/4
f 243/603/4 257/571/4 248/555/4
f 244/76/225 245/69/225 246/75/225
f 244/76/238 242/114/238 241/115/238
f 244/76/238 246/75/238 242/114/238
f 246/75/217 253/113/217 242/114/217
f 246/75/217 256/74/217 253/113/217
f 247/373/226 248/377/226 249/387/226
f 247/373/250 244/325/250 241/324/250
f 247/373/250 250/374/250 244/325/250
f 247/373/60 249/387/60 251/388/60
f 247/373/60 251/388/60 250/374/60
f 247/549/232 241/597/232 243/603/232
f 247/549/232 243/603/232 248/555/232
f 250/374/227 251/388/227 252/378/227
f 250/512/235 245/456/235 244/463/235
f 250/512/235 252/508/235 245/456/235
f 253/637/233 243/603/233 242/617/233
f 253/637/233 254/625/233 243/603/233
f 256/425/237 245/456/237 255/440/237
f 256/425/237 246/446/237 245/456/237
f 256/425/242 255/440/242 263/441/242
f 256/425/242 263/441/242 264/426/242
f 258/300/218 251/230/218 249/299/218
f 258/300/218 259/231/218 251/230/218
f 258/563/234 248/555/234 257/571/234
f 258/563/234 249/542/234 248/555/234
f 258/563/240 257/571/240 265/572/240
f 258/563/240 265/572/240 266/564/240
f 259/500/236 252/508/236 251/518/236
f 259/500/236 260/494/236 252/508/236
f 26/41/27 17/38/27 25/37/27
f 26/41/27 18/42/27 17/38/27
f 26/41/32 25/37/32 37/45/32
f 26/41/32 37/45/32 36/49/32
f 26/837/6 19/915/6 18/838/6
f 26/837/6 27/914/6 19/915/6
f 260/494/3 245/456/3 252/508/3
f 260/494/3 255/440/3 245/456/3
f 260/494/3 263/441/3 255/440/3
f 260/494/3 268/495/3 263/441/3
f 261/638/239 254/625/239 253/637/239
f 261/638/239 262/626/239 254/625/239
f 261/638/243 269/618/243 271/604/243
f 261/638/243 271/604/243 262/626/243
f 262/626/4 257/571/4 254/625/4
f 262/626/4 265/572/4 257/571/4
f 264/426/248 263/441/248 274/457/248
f 264/426/248 274/457/248 273/447/248
f 264/73/219 253/113/219 256/74/219
f 264/73/219 261/112/219 253/113/219
f 266/301/220 259/231/220 258/300/220
f 266/301/220 267/232/220 259/231/220
f 266/564/245 265/572/245 277/556/245
f 266/564/245 277/556/245 276/543/245
f 267/501/241 260/494/241 259/500/241
f 267/501/241 268/495/241 260/494/241
f 267/501/246 278/519/246 280/509/246
f 267/501/246 280/509/246 268/495/246
f 268/495/3 274/457/3 263/441/3
f 268/495/3 280/509/3 274/457/3
f 269/1032/228 270/1036/228 271/1034/228
f 27/561/28 20/570/28 19/562/28
f 27/561/28 28/569/28 20/570/28
f 27/561/33 38/540/33 40/553/33
f 27/561/33 40/553/33 28/569/33
f 270/1036/73 269/1032/73 273/1031/73
f 270/1036/73 273/1031/73 272/1035/73
f 271/604/4 265/572/4 262/626/4
f 271/604/4 277/556/4 265/572/4
f 272/1035/223 275/1060/223 270/1036/223
f 272/1035/223 279/1059/223 275/1060/223
f 272/1035/229 273/1031/229 274/1033/229
f 273/72/221 261/112/221 264/73/221
f 273/72/221 269/111/221 261/112/221
f 275/303/230 276/302/230 277/304/230
f 275/550/244 271/604/244 270/598/244
f 275/550/244 277/556/244 271/604/244
f 276/302/222 267/232/222 266/301/222
f 276/302/222 278/233/222 267/232/222
f 278/233/231 279/234/231 280/213/231
f 279/234/249 276/302/249 275/303/249
f 279/234/249 278/233/249 276/302/249
f 279/513/247 272/464/247 274/457/247
f 279/513/247 274/457/247 280/509/247
f 28/569/3 34/601/3 23/623/3
f 28/569/3 40/553/3 34/601/3
f 29/257/14 30/253/14 31/255/14
f 30/253/36 29/257/36 33/258/36
f 30/253/36 33/258/36 32/254/36
f 31/29/4 25/37/4 22/16/4
f 31/29/4 37/45/4 25/37/4
f 32/254/15 33/258/15 34/256/15
f 32/254/9 35/214/9 30/253/9
f 32/254/9 39/215/9 35/214/9
f 321/1023/292 322/1019/292 323/1021/292
f 323/599/4 334/621/4 337/567/4
f 323/599/4 337/567/4 328/551/4
f 324/1024/293 325/1022/293 326/1020/293
f 324/1024/306 322/1019/306 321/1023/306
f 324/1024/392 326/1020/392 322/1019/392
f 327/1055/318 324/1024/318 321/1023/318
f 327/1055/318 330/1056/318 324/1024/318
f 327/531/132 329/532/132 331/468/132
f 327/531/132 331/468/132 330/467/132
f 327/531/294 328/544/294 329/532/294
f 327/545/300 321/593/300 323/599/300
f 327/545/300 323/599/300 328/551/300
f 33/431/7 21/523/7 24/432/7
f 33/431/7 29/522/7 21/523/7
f 330/467/295 331/468/295 332/460/295
f 330/629/303 325/573/303 324/575/303
f 330/629/303 332/627/303 325/573/303
f 333/633/301 323/599/301 322/613/301
f 333/633/301 334/621/301 323/599/301
f 333/633/307 341/634/307 342/622/307
f 333/633/307 342/622/307 334/621/307
f 336/536/305 325/573/305 335/557/305
f 336/536/305 326/565/305 325/573/305
f 336/536/310 335/557/310 343/558/310
f 336/536/310 343/558/310 344/537/310
f 336/809/285 322/758/285 326/808/285
f 336/809/285 333/759/285 322/758/285
f 338/533/286 331/468/286 329/532/286
f 338/533/286 339/469/286 331/468/286
f 338/559/302 328/551/302 337/567/302
f 338/559/302 329/538/302 328/551/302
f 338/559/308 337/567/308 345/568/308
f 338/559/308 345/568/308 346/560/308
f 339/619/304 332/627/304 331/631/304
f 339/619/304 340/607/304 332/627/304
f 340/607/3 325/573/3 332/627/3
f 340/607/3 335/557/3 325/573/3
f 341/634/311 349/614/311 351/600/311
f 341/634/311 351/600/311 342/622/311
f 342/622/4 337/567/4 334/621/4
f 342/622/4 345/568/4 337/567/4
f 344/537/316 343/558/316 354/574/316
f 344/537/316 354/574/316 353/566/316
f 344/810/287 333/759/287 336/809/287
f 344/810/287 341/760/287 333/759/287
f 346/534/288 339/469/288 338/533/288
f 346/534/288 347/470/288 339/469/288
f 346/560/313 345/568/313 357/552/313
f 346/560/313 357/552/313 356/539/313
f 347/620/309 340/607/309 339/619/309
f 347/620/309 348/608/309 340/607/309
f 347/620/314 358/632/314 360/628/314
f 347/620/314 360/628/314 348/608/314
f 348/608/3 335/557/3 340/607/3
f 348/608/3 343/558/3 335/557/3
f 348/608/3 354/574/3 343/558/3
f 348/608/3 360/628/3 354/574/3
f 349/761/296 350/762/296 351/752/296
f 35/47/31 31/29/31 30/31/31
f 35/47/31 37/45/31 31/29/31
f 35/835/16 36/836/16 37/820/16
f 350/762/145 349/761/145 353/811/145
f 350/762/145 353/811/145 352/812/145
f 351/600/4 345/568/4 342/622/4
f 351/600/4 357/552/4 345/568/4
f 352/588/291 355/529/291 350/587/291
f 352/588/291 359/530/291 355/529/291
f 352/812/297 353/811/297 354/814/297
f 353/811/289 341/760/289 344/810/289
f 353/811/289 349/761/289 341/760/289
f 355/529/298 356/504/298 357/516/298
f 355/529/317 358/505/317 356/504/317
f 355/529/317 359/530/317 358/505/317
f 355/546/312 351/600/312 350/594/312
f 355/546/312 357/552/312 351/600/312
f 356/535/290 347/470/290 346/534/290
f 356/535/290 358/471/290 347/470/290
f 358/505/299 359/530/299 360/517/299
f 359/630/315 352/576/315 354/574/315
f 359/630/315 354/574/315 360/628/315
f 36/836/8 27/914/8 26/837/8
f 36/836/8 38/913/8 27/914/8
f 38/913/17 39/912/17 40/924/17
f 39/547/34 32/595/34 34/601/34
f 39/547/34 34/601/34 40/553/34
f 39/912/37 36/836/37 35/835/37
f 39/912/37 38/913/37 36/836/37
f 4/435/24 2/525/24 1/526/24
f 4/435/24 6/434/24 2/525/24
f 4/596/11 5/602/11 6/616/11
f 7/48/18 1/32/18 3/30/18
f 7/48/18 3/30/18 8/46/18
f 7/988/12 8/992/12 9/994/12
f 7/988/25 11/995/25 10/989/25
f 7/988/25 9/994/25 11/995/25
f 7/988/38 10/989/38 4/935/38
f 7/988/38 4/935/38 1/934/38
f 81/911/82 82/910/82 83/921/82
f 83/348/4 94/318/4 97/380/4
f 83/348/4 97/380/4 88/398/4
f 84/834/83 85/817/83 86/833/83
f 84/834/96 82/910/96 81/911/96
f 84/834/96 86/833/96 82/910/96
f 86/833/75 93/909/75 82/910/75
f 86/833/75 96/832/75 93/909/75
f 87/1041/110 84/1009/110 81/1008/110
f 87/1041/110 90/1042/110 84/1009/110
f 87/1041/84 88/1043/84 89/1047/84
f 87/1041/97 89/1047/97 91/1048/97
f 87/1041/97 91/1048/97 90/1042/97
f 87/404/90 81/354/90 83/348/90
f 87/404/90 83/348/90 88/398/90
f 90/1042/85 91/1048/85 92/1044/85
f 90/217/93 85/266/93 84/260/93
f 90/217/93 92/223/93 85/266/93
f 93/306/91 83/348/91 82/331/91
f 93/306/91 94/318/91 83/348/91
f 94/318/4 102/317/4 105/379/4
f 94/318/4 105/379/4 97/380/4
f 96/292/101 103/281/101 104/291/101
f 96/292/101 95/282/101 103/281/101
f 96/292/95 85/266/95 95/282/95
f 96/292/95 86/274/95 85/266/95
f 98/390/92 88/398/92 97/380/92
f 98/390/92 89/410/92 88/398/92
f 98/92/76 91/93/76 89/94/76
f 98/92/76 99/91/76 91/93/76
f 99/236/100 107/235/100 108/243/100
f 99/236/100 108/243/100 100/244/100
f 99/236/94 100/244/94 92/223/94
f 99/236/94 92/223/94 91/206/94
usemtl Racing_kerb_white
f 121/1029/118 122/1025/118 123/1027/118
f 123/350/4 134/320/4 137/382/4
f 123/350/4 137/382/4 128/400/4
f 124/1030/119 125/1028/119 126/1026/119
f 124/1030/132 122/1025/132 121/1029/132
f 124/1030/132 126/1026/132 122/1025/132
f 127/1057/146 124/1030/146 121/1029/146
f 127/1057/146 130/1058/146 124/1030/146
f 127/406/126 121/356/126 123/350/126
f 127/406/126 123/350/126 128/400/126
f 127/735/120 128/740/120 129/736/120
f 127/735/133 129/736/133 131/664/133
f 127/735/133 131/664/133 130/663/133
f 130/437/129 125/493/129 124/491/129
f 130/437/129 132/439/129 125/493/129
f 130/663/121 131/664/121 132/650/121
f 133/308/127 123/350/127 122/333/127
f 133/308/127 134/320/127 123/350/127
f 136/21/111 122/55/111 126/22/111
f 136/21/111 133/54/111 122/55/111
f 136/528/131 125/493/131 135/507/131
f 136/528/131 126/499/131 125/493/131
f 136/528/137 135/507/137 143/506/137
f 136/528/137 143/506/137 144/527/137
f 138/392/128 128/400/128 137/382/128
f 138/392/128 129/412/128 128/400/128
f 138/392/135 137/382/135 145/381/135
f 138/392/135 145/381/135 146/391/135
f 138/737/112 131/664/112 129/736/112
f 138/737/112 139/665/112 131/664/112
f 139/445/130 132/439/130 131/430/130
f 139/445/130 140/455/130 132/439/130
f 140/455/3 125/493/3 132/439/3
f 140/455/3 135/507/3 125/493/3
f 141/307/134 134/320/134 133/308/134
f 141/307/134 142/319/134 134/320/134
f 141/307/138 149/332/138 151/349/138
f 141/307/138 151/349/138 142/319/138
f 142/319/4 137/382/4 134/320/4
f 142/319/4 145/381/4 137/382/4
f 144/20/113 133/54/113 136/21/113
f 144/20/113 141/53/113 133/54/113
f 144/527/143 143/506/143 154/492/143
f 144/527/143 154/492/143 153/498/143
f 146/391/140 145/381/140 157/399/140
f 146/391/140 157/399/140 156/411/140
f 146/738/114 139/665/114 138/737/114
f 146/738/114 147/666/114 139/665/114
f 147/444/136 140/455/136 139/445/136
f 147/444/136 148/454/136 140/455/136
f 147/444/141 158/429/141 160/438/141
f 147/444/141 160/438/141 148/454/141
f 148/454/3 135/507/3 140/455/3
f 148/454/3 143/506/3 135/507/3
f 148/454/3 154/492/3 143/506/3
f 148/454/3 160/438/3 154/492/3
f 149/52/122 150/51/122 151/56/122
f 150/51/144 149/52/144 153/19/144
f 150/51/144 153/19/144 152/18/144
f 150/652/117 152/651/117 159/694/117
f 150/652/117 159/694/117 155/695/117
f 151/349/4 145/381/4 142/319/4
f 151/349/4 157/399/4 145/381/4
f 152/18/123 153/19/123 154/5/123
f 153/19/115 141/53/115 144/20/115
f 153/19/115 149/52/115 141/53/115
f 155/405/139 151/349/139 150/355/139
f 155/405/139 157/399/139 151/349/139
f 155/695/124 156/699/124 157/697/124
f 156/739/116 147/666/116 146/738/116
f 156/739/116 158/667/116 147/666/116
f 158/698/125 159/694/125 160/696/125
f 159/436/142 152/490/142 154/492/142
f 159/436/142 154/492/142 160/438/142
f 159/694/145 156/699/145 155/695/145
f 159/694/145 158/698/145 156/699/145
f 201/700/190 202/708/190 203/702/190
f 204/686/191 205/682/191 206/676/191
f 204/798/204 202/747/204 201/746/204
f 204/798/204 206/799/204 202/747/204
f 207/655/198 201/700/198 203/702/198
f 207/655/198 203/702/198 208/657/198
f 207/998/192 208/1000/192 209/1002/192
f 207/998/216 204/969/216 201/968/216
f 207/998/216 210/999/216 204/969/216
f 207/998/24 211/1003/24 210/999/24
f 207/998/390 209/1002/390 211/1003/390
f 210/722/201 205/682/201 204/686/201
f 210/722/201 212/718/201 205/682/201
f 210/999/193 211/1003/193 212/1001/193
f 212/718/3 215/661/3 205/682/3
f 212/718/3 220/706/3 215/661/3
f 213/733/199 203/702/199 202/708/199
f 213/733/199 214/714/199 203/702/199
f 213/733/205 221/734/205 222/715/205
f 213/733/205 222/715/205 214/714/205
f 214/714/4 208/657/4 203/702/4
f 214/714/4 217/678/4 208/657/4
f 216/641/203 205/682/203 215/661/203
f 216/641/203 206/676/203 205/682/203
f 216/641/208 215/661/208 223/662/208
f 216/641/208 223/662/208 224/642/208
f 216/800/183 202/747/183 206/799/183
f 216/800/183 213/748/183 202/747/183
f 218/672/200 208/657/200 217/678/200
f 218/672/200 209/643/200 208/657/200
f 218/904/184 211/826/184 209/903/184
f 218/904/184 219/827/184 211/826/184
f 219/712/202 212/718/202 211/731/202
f 219/712/202 220/706/202 212/718/202
f 220/706/3 223/662/3 215/661/3
f 220/706/3 228/707/3 223/662/3
f 221/734/209 229/709/209 231/703/209
f 221/734/209 231/703/209 222/715/209
f 222/715/4 217/678/4 214/714/4
f 222/715/4 225/679/4 217/678/4
f 224/642/214 223/662/214 234/683/214
f 224/642/214 234/683/214 233/677/214
f 224/801/185 213/748/185 216/800/185
f 224/801/185 221/749/185 213/748/185
f 226/673/206 217/678/206 225/679/206
f 226/673/206 218/672/206 217/678/206
f 226/673/211 225/679/211 237/658/211
f 226/673/211 237/658/211 236/644/211
f 226/905/186 219/827/186 218/904/186
f 226/905/186 227/828/186 219/827/186
f 227/713/207 220/706/207 219/712/207
f 227/713/207 228/707/207 220/706/207
f 227/713/212 238/732/212 240/719/212
f 227/713/212 240/719/212 228/707/212
f 228/707/3 234/683/3 223/662/3
f 228/707/3 240/719/3 234/683/3
f 229/977/194 230/985/194 231/981/194
f 230/985/189 232/984/189 239/1039/189
f 230/985/189 239/1039/189 235/1040/189
f 230/985/37 229/977/37 233/976/37
f 230/985/37 233/976/37 232/984/37
f 231/703/4 225/679/4 222/715/4
f 231/703/4 237/658/4 225/679/4
f 232/984/195 233/976/195 234/980/195
f 233/802/187 221/749/187 224/801/187
f 233/802/187 229/750/187 221/749/187
f 235/656/210 231/703/210 230/701/210
f 235/656/210 237/658/210 231/703/210
f 235/907/196 236/906/196 237/920/196
f 236/906/188 227/828/188 226/905/188
f 236/906/188 238/829/188 227/828/188
f 238/829/197 239/830/197 240/816/197
f 239/723/213 232/687/213 234/683/213
f 239/723/213 234/683/213 240/719/213
f 239/830/215 236/906/215 235/907/215
f 239/830/391 238/829/391 236/906/391
f 281/89/258 282/81/258 283/83/258
f 283/267/4 294/283/4 297/245/4
f 283/267/4 297/245/4 288/224/4
f 284/90/259 285/84/259 286/82/259
f 284/90/272 282/81/272 281/89/272
f 284/90/272 286/82/272 282/81/272
f 287/189/260 288/193/260 289/197/260
f 287/189/284 284/106/284 281/105/284
f 287/189/284 290/190/284 284/106/284
f 287/189/96 289/197/96 291/198/96
f 287/189/96 291/198/96 290/190/96
f 287/218/266 281/261/266 283/267/266
f 287/218/266 283/267/266 288/224/266
f 290/190/261 291/198/261 292/194/261
f 290/514/269 285/458/269 284/465/269
f 290/514/269 292/510/269 285/458/269
f 293/293/267 283/267/267 282/275/267
f 293/293/267 294/283/267 283/267/267
f 294/283/4 302/284/4 305/246/4
f 294/283/4 305/246/4 297/245/4
f 296/36/251 282/81/251 286/82/251
f 296/36/251 293/35/251 282/81/251
f 296/427/271 285/458/271 295/442/271
f 296/427/271 286/448/271 285/458/271
f 296/427/276 295/442/276 303/443/276
f 296/427/276 303/443/276 304/428/276
f 298/237/268 288/224/268 297/245/268
f 298/237/268 289/207/268 288/224/268
f 298/868/252 291/819/252 289/818/252
f 298/868/252 299/869/252 291/819/252
f 299/502/270 292/510/270 291/520/270
f 299/502/270 300/496/270 292/510/270
f 299/502/275 307/503/275 308/497/275
f 299/502/275 308/497/275 300/496/275
f 300/496/3 285/458/3 292/510/3
f 300/496/3 295/442/3 285/458/3
f 300/496/3 303/443/3 295/442/3
f 300/496/3 308/497/3 303/443/3
f 301/294/273 294/283/273 293/293/273
f 301/294/273 302/284/273 294/283/273
f 301/294/277 309/276/277 311/268/277
f 301/294/277 311/268/277 302/284/277
f 304/1005/253 293/948/253 296/1004/253
f 304/1005/253 301/949/253 293/948/253
f 304/428/282 303/443/282 314/459/282
f 304/428/282 314/459/282 313/449/282
f 306/238/274 297/245/274 305/246/274
f 306/238/274 298/237/274 297/245/274
f 306/238/279 305/246/279 317/225/279
f 306/238/279 317/225/279 316/208/279
f 306/892/254 299/869/254 298/868/254
f 306/892/254 307/893/254 299/869/254
f 307/503/280 318/521/280 320/511/280
f 307/503/280 320/511/280 308/497/280
f 308/497/3 314/459/3 303/443/3
f 308/497/3 320/511/3 314/459/3
f 309/950/262 310/951/262 311/933/262
f 310/951/109 309/950/109 313/1006/109
f 310/951/109 313/1006/109 312/1007/109
f 311/268/4 305/246/4 302/284/4
f 311/268/4 317/225/4 305/246/4
f 312/1007/263 313/1006/263 314/1014/263
f 312/1050/257 315/1017/257 310/1049/257
f 312/1050/257 319/1018/257 315/1017/257
f 313/1006/255 301/949/255 304/1005/255
f 313/1006/255 309/950/255 301/949/255
f 315/1017/264 316/1010/264 317/1012/264
f 315/219/278 311/268/278 310/262/278
f 315/219/278 317/225/278 311/268/278
f 316/609/256 307/586/256 306/585/256
f 316/609/256 318/610/256 307/586/256
f 318/1011/265 319/1018/265 320/1013/265
f 319/1018/283 316/1010/283 315/1017/283
f 319/1018/283 318/1011/283 316/1010/283
f 319/515/281 312/466/281 314/459/281
f 319/515/281 314/459/281 320/511/281
f 361/954/325 362/936/325 363/944/325
f 361/954/349 367/990/349 370/991/349
f 361/954/349 370/991/349 364/955/349
f 363/375/4 374/395/4 377/345/4
f 363/375/4 377/345/4 368/315/4
f 364/955/326 365/945/326 366/937/326
f 364/955/339 362/936/339 361/954/339
f 364/955/339 366/937/339 362/936/339
f 367/313/333 361/371/333 363/375/333
f 367/313/333 363/375/333 368/315/333
f 367/925/168 369/926/168 371/849/168
f 367/925/168 371/849/168 370/848/168
f 367/925/327 368/930/327 369/926/327
f 370/289/336 365/249/336 364/251/336
f 370/289/336 372/287/336 365/249/336
f 370/848/328 371/849/328 372/840/328
f 373/415/334 363/375/334 362/385/334
f 373/415/334 374/395/334 363/375/334
f 374/395/4 382/396/4 385/346/4
f 374/395/4 385/346/4 377/345/4
f 376/211/338 365/249/338 375/228/338
f 376/211/338 366/241/338 365/249/338
f 376/725/319 362/645/319 366/724/319
f 376/725/319 373/646/319 362/645/319
f 378/328/335 368/315/335 377/345/335
f 378/328/335 369/311/335 368/315/335
f 378/328/341 377/345/341 385/346/341
f 378/328/341 385/346/341 386/329/341
f 378/927/320 371/849/320 369/926/320
f 378/927/320 379/850/320 371/849/320
f 379/279/337 372/287/337 371/297/337
f 379/279/337 380/271/337 372/287/337
f 379/279/342 387/280/342 388/272/342
f 379/279/342 388/272/342 380/271/342
f 380/271/3 365/249/3 372/287/3
f 380/271/3 375/228/3 365/249/3
f 381/416/340 374/395/340 373/415/340
f 381/416/340 382/396/340 374/395/340
f 381/416/344 391/376/344 382/396/344
f 381/416/393 389/386/393 391/376/393
f 382/396/4 391/376/4 397/316/4
f 382/396/4 397/316/4 385/346/4
f 384/212/343 375/228/343 383/229/343
f 384/212/343 376/211/343 375/228/343
f 384/212/347 394/250/347 393/242/347
f 384/212/394 383/229/394 394/250/394
f 384/726/321 373/646/321 376/725/321
f 384/726/321 381/647/321 373/646/321
f 386/329/345 385/346/345 397/316/345
f 386/329/345 397/316/345 396/312/345
f 386/928/322 379/850/322 378/927/322
f 386/928/322 387/851/322 379/850/322
f 387/280/346 398/298/346 400/288/346
f 387/280/346 400/288/346 388/272/346
f 388/272/3 375/228/3 380/271/3
f 388/272/3 383/229/3 375/228/3
f 389/386/329 390/372/329 391/376/329
f 390/649/181 389/648/181 393/727/181
f 390/649/181 393/727/181 392/728/181
f 392/252/330 393/242/330 394/250/330
f 392/997/38 395/958/38 390/996/38
f 392/997/38 399/959/38 395/958/38
f 393/727/323 381/647/323 384/726/323
f 393/727/323 389/648/323 381/647/323
f 395/314/18 391/376/18 390/372/18
f 395/314/18 397/316/18 391/376/18
f 395/958/331 396/940/331 397/956/331
f 396/929/324 387/851/324 386/928/324
f 396/929/324 398/852/324 387/851/324
f 398/941/332 399/959/332 400/957/332
f 399/290/21 392/252/21 394/250/21
f 399/290/21 394/250/21 400/288/21
f 399/959/348 396/940/348 395/958/348
f 399/959/348 398/941/348 396/940/348
f 400/288/3 383/229/3 388/272/3
f 400/288/3 394/250/3 383/229/3
f 41/422/74 47/478/74 50/479/74
f 41/422/74 50/479/74 44/423/74
f 41/807/46 42/806/46 43/813/46
f 43/352/4 54/322/4 57/384/4
f 43/352/4 57/384/4 48/402/4
f 44/757/47 45/751/47 46/756/47
f 44/757/60 42/806/60 41/807/60
f 44/757/60 46/756/60 42/806/60
f 46/756/39 53/805/39 42/806/39
f 46/756/39 56/755/39 53/805/39
f 47/408/54 41/358/54 43/352/54
f 47/408/54 43/352/54 48/402/54
f 47/478/48 48/484/48 49/488/48
f 50/221/57 45/270/57 44/264/57
f 50/221/57 52/227/57 45/270/57
f 50/479/49 51/489/49 52/485/49
f 50/479/61 47/478/61 49/488/61
f 50/479/61 49/488/61 51/489/61
f 53/310/55 43/352/55 42/335/55
f 53/310/55 54/322/55 43/352/55
f 56/296/59 45/270/59 55/286/59
f 56/296/59 46/278/59 45/270/59
f 58/339/40 51/421/40 49/340/40
f 58/339/40 59/420/40 51/421/40
f 58/394/56 48/402/56 57/384/56
f 58/394/56 49/414/56 48/402/56
f 58/394/63 57/384/63 65/383/63
f 58/394/63 65/383/63 66/393/63
f 59/240/58 52/227/58 51/210/58
f 59/240/58 60/248/58 52/227/58
f 60/248/3 45/270/3 52/227/3
f 60/248/3 55/286/3 45/270/3
f 60/248/3 63/285/3 55/286/3
f 60/248/3 68/247/3 63/285/3
f 61/309/62 54/322/62 53/310/62
f 61/309/62 62/321/62 54/322/62
f 61/309/66 69/334/66 71/351/66
f 61/309/66 71/351/66 62/321/66
f 62/321/4 57/384/4 54/322/4
f 62/321/4 65/383/4 57/384/4
f 64/295/65 55/286/65 63/285/65
f 64/295/65 56/296/65 55/286/65
f 64/295/71 63/285/71 74/269/71
f 64/295/71 74/269/71 73/277/71
f 64/754/41 53/805/41 56/755/41
f 64/754/41 61/804/41 53/805/41
f 66/338/42 59/420/42 58/339/42
f 66/338/42 67/419/42 59/420/42
f 66/393/68 65/383/68 77/401/68
f 66/393/68 77/401/68 76/413/68
f 67/239/64 60/248/64 59/240/64
f 67/239/64 68/247/64 60/248/64
f 67/239/69 78/209/69 80/226/69
f 67/239/69 80/226/69 68/247/69
f 68/247/3 74/269/3 63/285/3
f 68/247/3 80/226/3 74/269/3
f 69/1053/50 70/1045/50 71/1051/50
f 70/1045/387 69/1053/387 73/1054/387
f 70/1045/72 73/1054/72 72/1046/72
f 71/351/4 65/383/4 62/321/4
f 71/351/4 77/401/4 65/383/4
f 72/1046/45 75/1015/45 70/1045/45
f 72/1046/45 79/1016/45 75/1015/45
f 72/1046/51 73/1054/51 74/1052/51
f 73/753/43 61/804/43 64/754/43
f 73/753/43 69/803/43 61/804/43
f 75/336/52 76/337/52 77/323/52
f 75/407/67 71/351/67 70/357/67
f 75/407/67 77/401/67 71/351/67
f 76/337/44 67/419/44 66/338/44
f 76/337/44 78/418/44 67/419/44
f 78/418/53 79/417/53 80/424/53
f 79/220/70 72/263/70 74/269/70
f 79/220/70 74/269/70 80/226/70
f 79/417/73 76/337/73 75/336/73
f 79/417/73 78/418/73 76/337/73
usemtl Racing_asphalt
f 401/692/351 402/689/351 403/688/351
f 401/970/78 403/972/78 408/973/78
f 401/970/78 408/973/78 407/971/78
f 404/669/175 403/688/175 402/689/175
f 404/669/175 406/668/175 403/688/175
f 404/854/352 405/842/352 406/856/352
f 405/653/360 404/669/360 417/670/360
f 405/653/360 417/670/360 416/654/360
f 406/856/153 408/873/153 403/874/153
f 406/856/153 412/855/153 408/873/153
f 407/364/21 409/361/21 420/360/21
f 407/364/21 420/360/21 419/363/21
f 407/364/353 408/362/353 409/361/353
f 409/361/178 408/362/178 412/344/178
f 409/361/178 412/344/178 411/343/178
f 410/58/350 405/57/350 416/95/350
f 410/58/350 416/95/350 422/96/350
f 410/841/253 406/856/253 405/842/253
f 410/841/253 412/855/253 406/856/253
f 410/841/354 411/853/354 412/855/354
f 411/343/3 420/360/3 409/361/3
f 411/343/3 424/342/3 420/360/3
f 413/693/18 402/689/18 401/692/18
f 413/693/18 415/690/18 402/689/18
f 413/693/355 414/691/355 415/690/355
f 415/690/198 414/691/198 418/671/198
f 415/690/198 418/671/198 417/670/198
f 416/131/356 417/137/356 418/139/356
f 416/131/77 418/139/77 423/140/77
f 416/131/77 423/140/77 422/132/77
f 417/670/4 402/689/4 415/690/4
f 417/670/4 404/669/4 402/689/4
f 419/363/357 420/360/357 421/359/357
f 419/884/254 414/880/254 413/883/254
f 419/884/254 421/881/254 414/880/254
f 419/884/38 401/970/38 407/971/38
f 419/884/38 413/883/38 401/970/38
f 421/359/201 420/360/201 424/342/201
f 421/359/201 424/342/201 423/341/201
f 422/132/358 423/140/358 424/138/358
f 422/326/359 411/343/359 410/327/359
f 422/326/359 424/342/359 411/343/359
f 423/140/216 414/201/216 421/202/216
f 423/140/216 418/139/216 414/201/216
f 425/169/361 426/159/361 427/173/361
f 425/169/78 427/173/78 432/181/78
f 425/169/78 432/181/78 431/174/78
f 428/605/175 427/612/175 426/606/175
f 428/605/175 430/611/175 427/612/175
f 428/843/362 429/847/362 430/845/362
f 429/120/360 428/119/360 441/123/360
f 429/120/360 441/123/360 440/124/360
f 430/845/153 432/846/153 427/844/153
f 430/845/153 436/857/153 432/846/153
f 431/174/21 433/182/21 444/175/21
f 431/174/21 444/175/21 443/170/21
f 431/174/363 432/181/363 433/182/363
f 433/897/178 432/895/178 436/894/178
f 433/897/178 436/894/178 435/896/178
f 434/121/350 429/120/350 440/124/350
f 434/121/350 440/124/350 446/125/350
f 434/858/253 430/845/253 429/847/253
f 434/858/253 436/857/253 430/845/253
f 434/858/364 435/859/364 436/857/364
f 435/896/3 444/918/3 433/897/3
f 435/896/3 448/917/3 444/918/3
f 437/160/18 426/159/18 425/169/18
f 437/160/18 439/155/18 426/159/18
f 437/160/365 438/156/365 439/155/365
f 439/592/198 438/590/198 442/589/198
f 439/592/198 442/589/198 441/591/198
f 440/863/366 441/866/366 442/864/366
f 440/863/77 442/864/77 447/862/77
f 440/863/77 447/862/77 446/861/77
f 441/591/4 426/606/4 439/592/4
f 441/591/4 428/605/4 426/606/4
f 443/170/254 438/156/254 437/160/254
f 443/170/254 445/161/254 438/156/254
f 443/170/367 444/175/367 445/161/367
f 443/170/38 425/169/38 431/174/38
f 443/170/38 437/160/38 425/169/38
f 445/923/201 444/918/201 448/917/201
f 445/923/201 448/917/201 447/922/201
f 446/125/359 435/122/359 434/121/359
f 446/125/359 448/126/359 435/122/359
f 446/861/368 447/862/368 448/860/368
f 447/862/216 438/867/216 445/865/216
f 447/862/216 442/864/216 438/867/216
f 449/39/78 451/43/78 456/44/78
f 449/39/78 456/44/78 455/40/78
f 449/461/369 450/451/369 451/450/369
f 452/368/175 451/450/175 450/451/175
f 452/368/175 454/367/175 451/450/175
f 452/780/370 453/776/370 454/782/370
f 453/365/360 452/368/360 465/369/360
f 453/365/360 465/369/360 464/366/360
f 454/782/153 456/792/153 451/793/153
f 454/782/153 460/781/153 456/792/153
f 455/487/21 457/482/21 468/481/21
f 455/487/21 468/481/21 467/486/21
f 455/487/371 456/483/371 457/482/371
f 457/482/178 456/483/178 460/477/178
f 457/482/178 460/477/178 459/476/178
f 458/775/253 454/782/253 453/776/253
f 458/775/253 460/781/253 454/782/253
f 458/775/372 459/779/372 460/781/372
f 458/932/350 453/931/350 464/986/350
f 458/932/350 464/986/350 470/987/350
f 459/476/3 468/481/3 457/482/3
f 459/476/3 472/475/3 468/481/3
f 461/462/18 450/451/18 449/461/18
f 461/462/18 463/452/18 450/451/18
f 461/462/373 462/453/373 463/452/373
f 463/452/198 462/453/198 466/370/198
f 463/452/198 466/370/198 465/369/198
f 464/117/374 465/127/374 466/129/374
f 464/117/77 466/129/77 471/130/77
f 464/117/77 471/130/77 470/118/77
f 465/369/4 450/451/4 463/452/4
f 465/369/4 452/368/4 450/451/4
f 467/24/254 462/6/254 461/23/254
f 467/24/254 469/7/254 462/6/254
f 467/24/38 449/39/38 455/40/38
f 467/24/38 461/23/38 449/39/38
f 467/486/375 468/481/375 469/480/375
f 469/480/201 468/481/201 472/475/201
f 469/480/201 472/475/201 471/474/201
f 470/118/376 471/130/376 472/128/376
f 470/472/359 459/476/359 458/473/359
f 470/472/359 472/475/359 459/476/359
f 471/130/216 462/185/216 469/186/216
f 471/130/216 466/129/216 462/185/216
f 473/171/361 474/162/361 475/176/361
f 473/171/78 475/176/78 480/183/78
f 473/171/78 480/183/78 479/177/78
f 476/882/362 477/885/362 478/886/362
f 476/960/175 475/965/175 474/961/175
f 476/960/175 478/964/175 475/965/175
f 477/142/360 476/141/360 489/145/360
f 477/142/360 489/145/360 488/146/360
f 478/886/153 480/891/153 475/889/153
f 478/886/153 484/888/153 480/891/153
f 479/177/21 481/184/21 492/178/21
f 479/177/21 492/178/21 491/172/21
f 479/177/363 480/183/363 481/184/363
f 481/953/178 480/943/178 484/942/178
f 481/953/178 484/942/178 483/952/178
f 482/143/350 477/142/350 488/146/350
f 482/143/350 488/146/350 494/147/350
f 482/887/253 478/886/253 477/885/253
f 482/887/253 484/888/253 478/886/253
f 482/887/364 483/890/364 484/888/364
f 483/952/3 492/963/3 481/953/3
f 483/952/3 496/962/3 492/963/3
f 485/163/18 474/162/18 473/171/18
f 485/163/18 487/157/18 474/162/18
f 485/163/365 486/158/365 487/157/365
f 487/947/198 486/939/198 490/938/198
f 487/947/198 490/938/198 489/946/198
f 488/875/366 489/878/366 490/877/366
f 488/875/77 490/877/77 495/872/77
f 488/875/77 495/872/77 494/871/77
f 489/946/4 474/961/4 487/947/4
f 489/946/4 476/960/4 474/961/4
f 491/172/254 486/158/254 485/163/254
f 491/172/254 493/164/254 486/158/254
f 491/172/367 492/178/367 493/164/367
f 491/172/38 473/171/38 479/177/38
f 491/172/38 485/163/38 473/171/38
f 493/967/201 492/963/201 496/962/201
f 493/967/201 496/962/201 495/966/201
f 494/147/359 483/144/359 482/143/359
f 494/147/359 496/148/359 483/144/359
f 494/871/368 495/872/368 496/870/368
f 495/872/216 486/879/216 493/876/216
f 495/872/216 490/877/216 486/879/216
usemtl Racing_sponsor_cyan
f 497/152/377 498/149/377 499/151/377
f 497/152/78 499/151/78 504/165/78
f 497/152/78 504/165/78 503/166/78
f 500/13/175 499/59/175 498/60/175
f 500/13/175 502/12/175 499/59/175
f 500/577/378 501/578/378 502/579/378
f 501/1/360 500/13/360 513/14/360
f 501/1/360 513/14/360 512/2/360
f 502/579/153 504/583/153 499/580/153
f 502/579/153 508/582/153 504/583/153
f 503/166/21 505/179/21 516/180/21
f 503/166/21 516/180/21 515/167/21
f 503/166/379 504/165/379 505/179/379
f 505/135/178 504/136/178 508/88/178
f 505/135/178 508/88/178 507/87/178
f 506/204/350 501/200/350 512/199/350
f 506/204/350 512/199/350 518/203/350
f 506/581/253 502/579/253 501/578/253
f 506/581/253 508/582/253 502/579/253
f 506/581/380 507/584/380 508/582/380
f 507/87/3 516/134/3 505/135/3
f 507/87/3 520/86/3 516/134/3
f 509/153/18 498/149/18 497/152/18
f 509/153/18 511/150/18 498/149/18
f 509/153/381 510/154/381 511/150/381
f 511/61/198 510/62/198 514/15/198
f 511/61/198 514/15/198 513/14/198
f 512/771/382 513/774/382 514/772/382
f 512/771/77 514/772/77 519/769/77
f 512/771/77 519/769/77 518/768/77
f 513/14/4 498/60/4 511/61/4
f 513/14/4 500/13/4 498/60/4
f 515/167/254 510/154/254 509/153/254
f 515/167/254 517/168/254 510/154/254
f 515/167/38 497/152/38 503/166/38
f 515/167/38 509/153/38 497/152/38
f 515/167/383 516/180/383 517/168/383
f 517/133/201 516/134/201 520/86/201
f 517/133/201 520/86/201 519/85/201
f 518/768/384 519/769/384 520/767/384
f 518/79/359 507/87/359 506/80/359
f 518/79/359 520/86/359 507/87/359
f 519/769/216 510/773/216 517/770/216
f 519/769/216 514/772/216 510/773/216
