# Blender 4.0.2
# www.blender.org
mtllib start_gantry_collision.mtl
o start_gantry_collision
v 7.000000 0.000000 -0.600000
v 7.000000 7.000000 -0.600000
v 7.000000 0.000000 0.600000
v 7.000000 7.000000 0.600000
v -7.000000 0.000000 -0.600000
v -7.000000 7.000000 -0.600000
v -7.000000 0.000000 0.600000
v -7.000000 7.000000 0.600000
vn 1.0000 -0.0000 -0.0000
vn -0.0000 -0.0000 1.0000
vn -1.0000 -0.0000 -0.0000
vn -0.0000 -0.0000 -1.0000
vn -0.0000 -1.0000 -0.0000
vn -0.0000 1.0000 -0.0000
vt 0.00000 0.00000
vt 0.00000 0.99615
vt 0.39290 0.00000
vt 0.39290 0.99615
vt 0.39593 0.00000
vt 0.39593 0.99615
vt 0.78883 0.00000
vt 0.78883 0.99615
vt 0.79187 0.00000
vt 0.79187 0.99615
vt 0.85922 0.00000
vt 0.85922 0.99615
vt 0.86226 0.00000
vt 0.86226 0.99615
vt 0.92961 0.00000
vt 0.92961 0.99615
vt 0.93265 0.00000
vt 0.93265 0.49808
vt 0.93265 0.50192
vt 0.93265 1.00000
vt 1.00000 0.00000
vt 1.00000 0.49808
vt 1.00000 0.50192
vt 1.00000 1.00000
s 0
usemtl Racing_collision
f 2/17/1 3/22/1 1/18/1
f 2/17/1 4/21/1 3/22/1
f 4/16/6 2/14/6 6/13/6
f 4/16/6 6/13/6 8/15/6
f 4/2/2 7/3/2 3/4/2
f 4/2/2 8/1/2 7/3/2
f 6/6/4 1/7/4 5/8/4
f 6/6/4 2/5/4 1/7/4
f 7/12/5 1/9/5 3/11/5
f 7/12/5 5/10/5 1/9/5
f 8/19/3 5/24/3 7/20/3
f 8/19/3 6/23/3 5/24/3
