# Blender 4.0.2
# www.blender.org
mtllib start_gantry_lod1.mtl
o start_gantry_lod1
v 6.982500 0.012500 -0.587500
v 6.988461 0.383846 -0.583846
v 6.988461 0.016154 0.583846
v 6.970000 0.400000 0.570000
v 6.985509 0.374755 0.591962
v 6.011539 0.016154 -0.583846
v 6.030000 0.400000 -0.570000
v 6.014491 0.374755 -0.591962
v 6.017500 0.012500 0.587500
v 6.011539 0.383846 0.583846
v 6.870000 0.400000 -0.370000
v 6.885510 0.425245 -0.391962
v 6.888462 1.033846 -0.383846
v 6.888462 0.416154 0.383846
v 6.882500 1.037500 0.387500
v 6.111538 0.416154 -0.383846
v 6.117500 1.037500 -0.387500
v 6.130000 0.400000 0.370000
v 6.114491 0.425245 0.391962
v 6.111538 1.033846 0.383846
v 6.870000 1.050000 -0.370000
v 6.885510 1.075245 -0.391962
v 6.888462 1.683846 -0.383846
v 6.888462 1.066154 0.383846
v 6.870000 1.700000 0.370000
v 6.885510 1.674755 0.391962
v 6.111538 1.066154 -0.383846
v 6.130000 1.700000 -0.370000
v 6.114491 1.674755 -0.391962
v 6.130000 1.050000 0.370000
v 6.114491 1.075245 0.391962
v 6.111538 1.683846 0.383846
v 6.882500 1.712500 -0.387500
v 6.888462 2.333846 -0.383846
v 6.888462 1.716154 0.383846
v 6.882500 2.337500 0.387500
v 6.111538 1.716154 -0.383846
v 6.117500 2.337500 -0.387500
v 6.117500 1.712500 0.387500
v 6.111538 2.333846 0.383846
v 6.882500 2.362500 -0.387500
v 6.888462 2.983846 -0.383846
v 6.888462 2.366154 0.383846
v 6.882500 2.987500 0.387500
v 6.111538 2.366154 -0.383846
v 6.117500 2.987500 -0.387500
v 6.117500 2.362500 0.387500
v 6.111538 2.983846 0.383846
v 6.870000 3.000000 -0.370000
v 6.885510 3.025245 -0.391962
v 6.888462 3.633846 -0.383846
v 6.888462 3.016154 0.383846
v 6.870000 3.650000 0.370000
v 6.885510 3.624755 0.391962
v 6.111538 3.016154 -0.383846
v 6.130000 3.650000 -0.370000
v 6.114491 3.624755 -0.391962
v 6.117500 3.012500 0.387500
v 6.111538 3.633846 0.383846
v 6.882500 3.662500 -0.387500
v 6.888462 4.283846 -0.383846
v 6.888462 3.666154 0.383846
v 6.870000 4.300000 0.370000
v 6.885510 4.274755 0.391962
v 6.111538 3.666154 -0.383846
v 6.130000 4.300000 -0.370000
v 6.114491 4.274755 -0.391962
v 6.117500 3.662500 0.387500
v 6.111538 4.283846 0.383846
v 6.870000 4.300000 -0.370000
v 6.885510 4.325245 -0.391962
v 6.888462 4.933846 -0.383846
v 6.888462 4.316154 0.383846
v 6.882501 4.937500 0.387500
v 6.111538 4.316154 -0.383846
v 6.117500 4.937500 -0.387500
v 6.130000 4.300000 0.370000
v 6.114491 4.325245 0.391962
v 6.111538 4.933846 0.383846
v 6.870000 4.950000 -0.370000
v 6.885510 4.975245 -0.391962
v 6.888462 5.583846 -0.383846
v 6.888462 4.966154 0.383846
v 6.882500 5.587500 0.387500
v 6.111538 4.966154 -0.383846
v 6.117500 5.587500 -0.387500
v 6.130000 4.950000 0.370000
v 6.114491 4.975245 0.391962
v 6.111538 5.583846 0.383846
v -6.017500 0.012500 -0.587500
v -6.011539 0.383846 -0.583846
v -6.011539 0.016154 0.583846
v -6.030000 0.400000 0.570000
v -6.014491 0.374755 0.591962
v -6.988461 0.016154 -0.583846
v -6.970000 0.400000 -0.570000
v -6.985509 0.374755 -0.591962
v -6.982500 0.012500 0.587500
v -6.988461 0.383846 0.583846
v -6.130000 0.400000 -0.370000
v -6.114491 0.425245 -0.391962
v -6.111538 1.033846 -0.383846
v -6.111538 0.416154 0.383846
v -6.130000 1.050000 0.370000
v -6.114491 1.024755 0.391962
v -6.888462 0.416154 -0.383846
v -6.870000 1.050000 -0.370000
v -6.885510 1.024755 -0.391962
v -6.870000 0.400000 0.370000
v -6.885510 0.425245 0.391962
v -6.888462 1.033846 0.383846
v -6.130000 1.050000 -0.370000
v -6.114491 1.075245 -0.391962
v -6.111538 1.683846 -0.383846
v -6.111538 1.066154 0.383846
v -6.130000 1.700000 0.370000
v -6.114491 1.674755 0.391962
v -6.888462 1.066154 -0.383846
v -6.870000 1.700000 -0.370000
v -6.885510 1.674755 -0.391962
v -6.870000 1.050000 0.370000
v -6.885510 1.075245 0.391962
v -6.888462 1.683846 0.383846
v -6.117500 1.712500 -0.387500
v -6.111538 2.333846 -0.383846
v -6.111538 1.716154 0.383846
v -6.117500 2.337500 0.387500
v -6.888462 1.716154 -0.383846
v -6.882500 2.337500 -0.387500
v -6.882500 1.712500 0.387500
v -6.888462 2.333846 0.383846
v -6.117500 2.362500 -0.387500
v -6.111538 2.983846 -0.383846
v -6.111538 2.366154 0.383846
v -6.117500 2.987500 0.387500
v -6.888462 2.366154 -0.383846
v -6.882500 2.987500 -0.387500
v -6.882500 2.362500 0.387500
v -6.888462 2.983846 0.383846
v -6.117500 3.012500 -0.387500
v -6.111538 3.633846 -0.383846
v -6.111538 3.016154 0.383846
v -6.130000 3.650000 0.370000
v -6.114491 3.624755 0.391962
v -6.888462 3.016154 -0.383846
v -6.870000 3.650000 -0.370000
v -6.885510 3.624755 -0.391962
v -6.882500 3.012500 0.387500
v -6.888462 3.633846 0.383846
v -6.117500 3.662500 -0.387500
v -6.111538 4.283846 -0.383846
v -6.111538 3.666154 0.383846
v -6.130000 4.300000 0.370000
v -6.114491 4.274755 0.391962
v -6.888462 3.666154 -0.383846
v -6.870000 4.300000 -0.370000
v -6.885510 4.274755 -0.391962
v -6.882500 3.662500 0.387500
v -6.888462 4.283846 0.383846
v -6.130000 4.300000 -0.370000
v -6.114491 4.325245 -0.391962
v -6.111538 4.933846 -0.383846
v -6.111538 4.316154 0.383846
v -6.117500 4.937500 0.387500
v -6.888462 4.316154 -0.383846
v -6.882501 4.937500 -0.387500
v -6.870000 4.300000 0.370000
v -6.885510 4.325245 0.391962
v -6.888462 4.933846 0.383846
v -6.130000 4.950000 -0.370000
v -6.114491 4.975245 -0.391962
v -6.111538 5.583846 -0.383846
v -6.111538 4.966154 0.383846
v -6.117500 5.587500 0.387500
v -6.888462 4.966154 -0.383846
v -6.882500 5.587500 -0.387500
v -6.870000 4.950000 0.370000
v -6.885510 4.975245 0.391962
v -6.888462 5.583846 0.383846
v 6.970000 5.600000 -0.320000
v 6.985509 5.625245 -0.341962
v 6.988461 5.783846 -0.333846
v 6.988461 5.616154 0.333846
v 6.970000 5.800000 0.320000
v 6.985509 5.774755 0.341962
v -6.988461 5.616154 -0.333846
v -6.970000 5.800000 -0.320000
v -6.985509 5.774755 -0.341962
v -6.970000 5.600000 0.320000
v -6.985509 5.625245 0.341962
v -6.988461 5.783846 0.333846
v 6.982500 6.812500 -0.337500
v 6.988461 6.983847 -0.333846
v 6.988461 6.816154 0.333846
v 6.982500 6.987500 0.337500
v -6.988461 6.816154 -0.333846
v -6.982500 6.987500 -0.337500
v -6.982500 6.812500 0.337500
v -6.988461 6.983847 0.333846
v 6.048334 5.808334 -0.051667
v 6.052308 6.789231 -0.049231
v 6.052308 5.810770 0.049231
v 6.048333 6.791667 0.051667
v 5.947692 5.810770 -0.049231
v 5.951667 6.791667 -0.051667
v 5.951667 5.808334 0.051667
v 5.947692 6.789231 0.049231
v 6.009690 5.838014 -0.041667
v 4.028553 6.833025 -0.039231
v 6.009288 5.842658 0.039231
v 4.024597 6.830560 0.041667
v 5.971447 5.766975 -0.039231
v 3.990310 6.761987 -0.041666
v 5.975403 5.769441 0.041667
v 3.990712 6.757343 0.039230
v 4.048334 5.808334 -0.051667
v 4.052308 6.789231 -0.049231
v 4.052308 5.810770 0.049231
v 4.048334 6.791667 0.051667
v 3.947692 5.810770 -0.049231
v 3.951667 6.791667 -0.051667
v 3.951667 5.808334 0.051667
v 3.947692 6.789231 0.049231
v 2.024597 5.769441 -0.041667
v 4.009288 6.757343 -0.039231
v 2.028553 5.766975 0.039231
v 4.009690 6.761987 0.041667
v 1.990712 5.842658 -0.039231
v 3.975403 6.830560 -0.041667
v 1.990310 5.838014 0.041667
v 3.971447 6.833025 0.039231
v 2.048333 5.808334 -0.051667
v 2.052308 6.789231 -0.049231
v 2.052308 5.810770 0.049231
v 2.048333 6.791667 0.051667
v 1.947692 5.810770 -0.049231
v 1.951667 6.791667 -0.051667
v 1.951667 5.808334 0.051667
v 1.947692 6.789231 0.049231
v 2.009690 5.838014 -0.041667
v 0.028553 6.833025 -0.039231
v 2.009289 5.842658 0.039231
v 0.024597 6.830560 0.041667
v 1.971447 5.766975 -0.039231
v -0.009690 6.761987 -0.041667
v 1.975403 5.769441 0.041667
v -0.009288 6.757343 0.039231
v 0.048333 5.808334 -0.051667
v 0.052308 6.789231 -0.049231
v 0.052308 5.810770 0.049231
v 0.048333 6.791667 0.051667
v -0.052308 5.810770 -0.049231
v -0.048333 6.791667 -0.051667
v -0.048333 5.808334 0.051667
v -0.052308 6.789231 0.049231
v -1.975403 5.769441 -0.041667
v 0.009288 6.757343 -0.039231
v -1.971447 5.766975 0.039231
v 0.009690 6.761987 0.041667
v -2.009289 5.842658 -0.039231
v -0.024597 6.830560 -0.041667
v -2.009690 5.838014 0.041667
v -0.028553 6.833025 0.039231
v -1.951667 5.808334 -0.051667
v -1.947692 6.789231 -0.049231
v -1.947692 5.810770 0.049231
v -1.951667 6.791667 0.051667
v -2.052308 5.810770 -0.049231
v -2.048333 6.791667 -0.051667
v -2.048333 5.808334 0.051667
v -2.052308 6.789231 0.049231
v -1.990310 5.838014 -0.041667
v -3.971447 6.833025 -0.039231
v -1.990712 5.842658 0.039231
v -3.975403 6.830560 0.041667
v -2.028553 5.766975 -0.039231
v -4.009690 6.761987 -0.041667
v -2.024597 5.769441 0.041667
v -4.009288 6.757343 0.039231
v -3.951667 5.808334 -0.051667
v -3.947692 6.789231 -0.049231
v -3.947692 5.810770 0.049231
v -3.951667 6.791667 0.051667
v -4.052308 5.810770 -0.049231
v -4.048334 6.791667 -0.051667
v -4.048334 5.808334 0.051667
v -4.052308 6.789231 0.049231
v -5.975403 5.769441 -0.041667
v -3.990712 6.757343 -0.039231
v -5.971447 5.766975 0.039231
v -3.990310 6.761987 0.041666
v -6.009288 5.842658 -0.039231
v -4.024597 6.830560 -0.041667
v -6.009690 5.838014 0.041667
v -4.028553 6.833025 0.039231
v -5.951667 5.808334 -0.051667
v -5.947692 6.789231 -0.049231
v -5.947692 5.810770 0.049231
v -5.951667 6.791667 0.051667
v -6.052308 5.810770 -0.049231
v -6.048333 6.791667 -0.051667
v -6.048334 5.808334 0.051667
v -6.052308 6.789231 0.049231
v 3.488333 5.858334 0.368333
v 3.492308 6.739231 0.370769
v 3.492308 5.860770 0.429231
v 3.488333 6.741667 0.431667
v -3.492308 5.860770 0.370769
v -3.488333 6.741667 0.368333
v -3.488333 5.858334 0.431667
v -3.492308 6.739231 0.429231
v 2.232500 4.712501 -0.162500
v 2.238462 5.583846 -0.158846
v 2.238462 4.716154 0.158846
v 2.232500 5.587500 0.162500
v 1.761538 4.716154 -0.158846
v 1.767500 5.587500 -0.162500
v 1.767500 4.712501 0.162500
v 1.761538 5.583846 0.158846
v 2.000000 5.220000 0.170000
v 2.000000 5.220000 0.230000
v 1.888287 5.267567 0.170000
v 1.877569 5.282319 0.230000
v 1.866852 5.403263 0.170000
v 1.866852 5.403263 0.230000
v 1.946613 5.494810 0.170000
v 1.963954 5.500444 0.230000
v 2.111713 5.452434 0.170000
v 2.122431 5.437682 0.230000
v 2.122431 5.282319 0.170000
v 2.111713 5.267567 0.230000
v 2.000000 4.800000 0.170000
v 2.000000 4.800000 0.230000
v 1.888287 4.847567 0.170000
v 1.877569 4.862319 0.230000
v 1.866852 4.983263 0.170000
v 1.866852 4.983263 0.230000
v 1.946613 5.074810 0.170000
v 1.963954 5.080444 0.230000
v 2.111713 5.032434 0.170000
v 2.122431 5.017682 0.230000
v 2.122431 4.862319 0.170000
v 2.111713 4.847567 0.230000
v 1.232500 4.712501 -0.162500
v 1.238462 5.583846 -0.158846
v 1.238462 4.716154 0.158846
v 1.232500 5.587500 0.162500
v 0.761538 4.716154 -0.158846
v 0.767500 5.587500 -0.162500
v 0.767500 4.712501 0.162500
v 0.761538 5.583846 0.158846
v 1.000000 5.220000 0.170000
v 1.000000 5.220000 0.230000
v 0.888287 5.267567 0.170000
v 0.877569 5.282318 0.230000
v 0.877570 5.437682 0.170000
v 0.888287 5.452434 0.230000
v 1.036047 5.500444 0.170000
v 1.053388 5.494810 0.230000
v 1.133148 5.403263 0.170000
v 1.133148 5.403263 0.230000
v 1.122431 5.282319 0.170000
v 1.111713 5.267567 0.230000
v 1.000000 4.800000 0.170000
v 1.000000 4.800000 0.230000
v 0.888287 4.847567 0.170000
v 0.877569 4.862318 0.230000
v 0.877570 5.017682 0.170000
v 0.888287 5.032434 0.230000
v 1.036047 5.080444 0.170000
v 1.053388 5.074810 0.230000
v 1.133148 4.983263 0.170000
v 1.133148 4.983263 0.230000
v 1.122431 4.862319 0.170000
v 1.111713 4.847567 0.230000
v 0.232500 4.712501 -0.162500
v 0.238462 5.583846 -0.158846
v 0.238462 4.716154 0.158846
v 0.232500 5.587500 0.162500
v -0.238462 4.716154 -0.158846
v -0.232500 5.587500 -0.162500
v -0.232500 4.712501 0.162500
v -0.238462 5.583846 0.158846
v 0.000000 5.220000 0.170000
v 0.000000 5.220000 0.230000
v -0.111713 5.267567 0.170000
v -0.122431 5.282319 0.230000
v -0.133148 5.403263 0.170000
v -0.053388 5.494810 0.170000
v -0.111713 5.452434 0.230000
v 0.111713 5.452434 0.170000
v 0.053388 5.494810 0.230000
v 0.133148 5.403263 0.230000
v 0.122431 5.282319 0.170000
v 0.111713 5.267567 0.230000
v 0.000000 4.800000 0.170000
v 0.000000 4.800000 0.230000
v -0.111713 4.847567 0.170000
v -0.122431 4.862319 0.230000
v -0.133148 4.983263 0.170000
v -0.053388 5.074810 0.170000
v -0.111713 5.032434 0.230000
v 0.111713 5.032434 0.170000
v 0.053388 5.074810 0.230000
v 0.133148 4.983263 0.230000
v 0.122431 4.862319 0.170000
v 0.111713 4.847567 0.230000
v -0.767500 4.712501 -0.162500
v -0.761538 5.583846 -0.158846
v -0.761538 4.716154 0.158846
v -0.767500 5.587500 0.162500
v -1.238462 4.716154 -0.158846
v -1.232500 5.587500 -0.162500
v -1.232500 4.712501 0.162500
v -1.238462 5.583846 0.158846
v -1.000000 5.220000 0.170000
v -1.000000 5.220000 0.230000
v -1.111713 5.267567 0.170000
v -1.122431 5.282319 0.230000
v -1.133148 5.403263 0.170000
v -1.133148 5.403263 0.230000
v -1.053388 5.494810 0.170000
v -1.036047 5.500444 0.230000
v -0.888287 5.452434 0.170000
v -0.877570 5.437682 0.230000
v -0.877569 5.282318 0.170000
v -0.888287 5.267567 0.230000
v -1.000000 4.800000 0.170000
v -1.000000 4.800000 0.230000
v -1.111713 4.847567 0.170000
v -1.122431 4.862319 0.230000
v -1.133148 4.983263 0.170000
v -1.133148 4.983263 0.230000
v -1.053388 5.074810 0.170000
v -1.036047 5.080444 0.230000
v -0.888287 5.032434 0.170000
v -0.877570 5.017682 0.230000
v -0.877569 4.862318 0.170000
v -0.888287 4.847567 0.230000
v -1.767500 4.712501 -0.162500
v -1.761538 5.583846 -0.158846
v -1.761538 4.716154 0.158846
v -1.767500 5.587500 0.162500
v -2.238462 4.716154 -0.158846
v -2.232500 5.587500 -0.162500
v -2.232500 4.712501 0.162500
v -2.238462 5.583846 0.158846
v -2.000000 5.220000 0.170000
v -2.000000 5.220000 0.230000
v -2.111713 5.267567 0.170000
v -2.122431 5.282319 0.230000
v -2.122431 5.437682 0.170000
v -2.111713 5.452434 0.230000
v -1.963954 5.500444 0.170000
v -1.946613 5.494810 0.230000
v -1.866852 5.403263 0.170000
v -1.866852 5.403263 0.230000
v -1.877569 5.282319 0.170000
v -1.888287 5.267567 0.230000
v -2.000000 4.800000 0.170000
v -2.000000 4.800000 0.230000
v -2.111713 4.847567 0.170000
v -2.122431 4.862319 0.230000
v -2.122431 5.017682 0.170000
v -2.111713 5.032434 0.230000
v -1.963954 5.080444 0.170000
v -1.946613 5.074810 0.230000
v -1.866852 4.983263 0.170000
v -1.866852 4.983263 0.230000
v -1.877569 4.862319 0.170000
v -1.888287 4.847567 0.230000
vn -0.0002 0.6563 0.7545
vn 0.0002 0.6563 -0.7545
vn 0.0002 -0.6563 0.7545
vn 0.0082 0.0097 -0.9999
vn -0.0002 -0.6563 -0.7545
vn -0.0000 -0.6563 0.7545
vn -0.0000 0.6563 0.7545
vn -0.0000 -0.6563 -0.7545
vn -0.0000 0.6563 -0.7545
vn 0.3918 -0.9201 -0.0000
vn -0.4494 -0.8828 0.1368
vn -0.0077 0.0042 -1.0000
vn -0.7281 0.6344 -0.2598
vn 0.2274 0.8858 -0.4046
vn -1.0000 0.0082 -0.0026
vn 0.0167 0.9998 -0.0137
vn 1.0000 0.0082 0.0026
vn -0.0082 0.0097 0.9999
vn -0.0038 -1.0000 -0.0031
vn 0.8496 0.5274 0.0062
vn -0.8496 0.5274 -0.0062
vn 0.0048 0.0133 -0.9999
vn -0.9999 0.0095 -0.0077
vn 0.0048 1.0000 -0.0047
vn 0.9999 0.0095 0.0077
vn -0.0048 0.0133 0.9999
vn -0.0209 -0.9996 -0.0209
vn 0.8483 -0.5294 -0.0094
vn -0.8483 -0.5294 0.0094
vn 0.0103 0.0133 -0.9999
vn -1.0000 0.0048 -0.0039
vn 0.0209 0.9996 -0.0209
vn 1.0000 0.0048 0.0039
vn -0.0103 0.0133 0.9999
vn 0.8483 0.5294 0.0094
vn -0.8483 0.5294 -0.0094
vn 0.0048 0.0058 -1.0000
vn -0.0048 0.0058 1.0000
vn -0.0048 -1.0000 -0.0047
vn -0.0104 0.0058 0.9999
vn -0.0212 -0.9998 -0.0046
vn 0.0104 0.0058 -0.9999
vn 0.0005 0.0511 -0.9987
vn -0.9998 0.0184 -0.0046
vn 0.0011 0.9997 -0.0247
vn 0.9998 0.0184 0.0046
vn -0.0005 0.0511 0.9987
vn -0.0011 -0.9997 -0.0247
vn 0.8478 -0.5303 -0.0108
vn 0.8478 0.5303 0.0108
vn -0.8478 -0.5303 0.0108
vn -0.8478 0.5303 -0.0108
vn 0.0003 0.0213 -0.9998
vn -0.9994 0.0346 -0.0087
vn 0.0003 1.0000 -0.0054
vn 0.9994 0.0346 0.0087
vn -0.0003 0.0213 0.9998
vn -0.0003 -1.0000 -0.0054
vn -0.0241 0.0026 -0.9997
vn -0.9992 0.0040 -0.0393
vn 0.0248 0.9994 -0.0232
vn 0.9992 0.0040 0.0393
vn 0.0241 0.0026 0.9997
vn -0.0248 -0.9994 -0.0232
vn -0.0145 -0.0265 -0.9995
vn -0.4482 -0.8926 -0.0490
vn -0.8797 0.4746 -0.0286
vn 0.4451 0.8941 0.0490
vn 0.0125 0.0275 0.9995
vn 0.8797 -0.4746 -0.0286
vn -0.0247 -0.9994 -0.0232
vn -0.0125 0.0275 -0.9995
vn -0.4451 0.8941 -0.0490
vn 0.9075 0.4191 -0.0286
vn 0.4482 -0.8926 0.0490
vn 0.0145 -0.0265 0.9995
vn -0.9075 -0.4190 -0.0286
vn 0.0247 0.9994 -0.0232
vn -0.8798 0.4746 -0.0286
vn 0.9075 0.4190 -0.0285
vn 0.0003 0.0028 -1.0000
vn -0.9979 0.0043 -0.0649
vn 0.0004 0.9992 -0.0399
vn 0.9979 0.0043 0.0649
vn -0.0003 0.0028 1.0000
vn -0.0004 -0.9992 -0.0399
vn -0.9998 0.0068 -0.0185
vn 0.0078 0.9999 -0.0112
vn 0.9998 0.0068 0.0185
vn 0.0077 0.0042 1.0000
vn -0.0078 -0.9999 -0.0112
vn -0.9961 -0.0883 -0.0000
vn -0.7007 0.7002 0.1368
vn 0.3634 0.9177 0.1607
vn 0.9851 -0.0621 0.1607
vn -0.0000 -0.0000 1.0000
vn -0.0000 -0.0000 -1.0000
vn -0.9851 0.0621 0.1607
vn -0.2454 0.9560 0.1607
vn 0.7540 0.6569 -0.0000
vn 0.9785 -0.1546 0.1368
vn -0.9546 0.0601 0.2917
vn -0.2274 0.8858 0.4046
vn 0.7281 0.6344 0.2598
vn -0.0038 -0.0226 -0.9997
vn 0.4494 -0.8828 -0.1368
vn -0.3918 -0.9201 -0.0000
vn 0.0077 -0.0042 -1.0000
vn -0.9999 -0.0160 0.0050
vn -0.0167 0.9998 0.0137
vn 0.9999 -0.0160 -0.0050
vn 0.0038 -0.0226 0.9997
vn 0.0038 -1.0000 0.0031
vn -0.0104 -0.0058 -0.9999
vn -1.0000 -0.0048 0.0039
vn -0.0048 1.0000 0.0047
vn 1.0000 -0.0048 -0.0039
vn 0.0104 -0.0058 0.9999
vn 0.0209 -0.9996 0.0209
vn -0.0103 -0.0133 -0.9999
vn -0.0209 0.9996 0.0209
vn 0.0103 -0.0133 0.9999
vn -0.0048 -0.0058 -1.0000
vn -0.9999 -0.0095 0.0077
vn 0.9999 -0.0095 -0.0077
vn 0.0048 -0.0058 1.0000
vn 0.0048 -1.0000 0.0047
vn 0.0048 -0.0133 0.9999
vn 0.0048 -0.9998 0.0213
vn -0.0048 -0.0133 -0.9999
vn -0.0005 -0.0511 -0.9987
vn -0.9998 -0.0184 0.0046
vn -0.0011 0.9997 0.0247
vn 0.9998 -0.0184 -0.0046
vn 0.0005 -0.0511 0.9987
vn 0.0011 -0.9997 0.0247
vn -0.0003 -0.0213 -0.9998
vn -0.9994 -0.0346 0.0087
vn -0.0003 1.0000 0.0054
vn 0.9994 -0.0346 -0.0087
vn 0.0003 -0.0213 0.9998
vn 0.0003 -1.0000 0.0054
vn 0.0241 -0.0026 -0.9997
vn -0.9992 -0.0040 0.0393
vn -0.0247 0.9994 0.0232
vn 0.9992 -0.0040 -0.0393
vn -0.0241 -0.0026 0.9997
vn 0.0247 -0.9994 0.0232
vn 0.0145 0.0265 -0.9995
vn -0.4451 -0.8941 0.0490
vn -0.9075 0.4191 0.0285
vn 0.4482 0.8926 -0.0490
vn -0.0125 -0.0275 0.9995
vn 0.9075 -0.4190 0.0286
vn 0.0125 -0.0275 -0.9995
vn -0.4482 0.8926 0.0490
vn 0.8798 0.4746 0.0285
vn 0.4451 -0.8941 -0.0490
vn -0.0145 0.0265 0.9995
vn -0.8797 -0.4746 0.0286
vn -0.9075 0.4191 0.0286
vn 0.9075 -0.4191 0.0286
vn 0.8798 0.4746 0.0286
vn -0.0248 0.9994 0.0232
vn -0.8798 -0.4746 0.0286
vn 0.0248 -0.9994 0.0232
vn -0.0003 -0.0028 -1.0000
vn -0.9979 -0.0043 0.0650
vn -0.0004 0.9992 0.0399
vn 0.9979 -0.0043 -0.0650
vn 0.0003 -0.0028 1.0000
vn 0.0004 -0.9992 0.0399
vn -0.9998 -0.0068 0.0185
vn -0.0078 0.9999 0.0112
vn 0.9998 -0.0068 -0.0185
vn -0.0077 -0.0042 1.0000
vn 0.0078 -0.9999 0.0112
vn -0.9785 -0.1546 -0.1368
vn -0.7540 0.6569 -0.0000
vn 0.2454 0.9560 -0.1607
vn 0.9851 0.0621 -0.1607
vn -0.9851 -0.0621 -0.1607
vn -0.3634 0.9177 -0.1607
vn 0.7007 0.7002 -0.1368
vn 0.9961 -0.0883 -0.0000
vn 0.9546 0.0601 -0.2917
vn 0.7008 0.7002 -0.1368
vt 0.00000 0.86402
vt 0.00000 0.91021
vt 0.00000 0.92606
vt 0.00000 0.97089
vt 0.00000 0.98563
vt 0.00000 0.99259
vt 0.00071 0.00110
vt 0.00120 0.84693
vt 0.00182 0.00182
vt 0.00363 0.98563
vt 0.00363 0.99364
vt 0.01837 0.98563
vt 0.01837 0.99062
vt 0.01837 0.99560
vt 0.02200 0.98563
vt 0.02200 0.99062
vt 0.02200 0.99560
vt 0.03571 0.86395
vt 0.03571 0.91014
vt 0.03571 0.92606
vt 0.03571 0.97089
vt 0.03674 0.98563
vt 0.03674 0.99259
vt 0.04037 0.98563
vt 0.04037 0.99364
vt 0.04056 0.84628
vt 0.04118 0.00117
vt 0.04166 0.84700
vt 0.05045 0.86402
vt 0.05045 0.91021
vt 0.05045 0.92606
vt 0.05045 0.97089
vt 0.05589 0.98643
vt 0.05601 0.99218
vt 0.05782 0.00110
vt 0.05831 0.84693
vt 0.05893 0.00182
vt 0.06147 0.98636
vt 0.06159 0.99210
vt 0.07789 0.98643
vt 0.07801 0.99218
vt 0.08347 0.98636
vt 0.08359 0.99210
vt 0.08617 0.86395
vt 0.08617 0.91014
vt 0.08617 0.92606
vt 0.08617 0.97089
vt 0.09767 0.84628
vt 0.09829 0.00117
vt 0.09877 0.84700
vt 0.10090 0.86402
vt 0.10090 0.91021
vt 0.10090 0.92606
vt 0.10090 0.97089
vt 0.10169 0.98643
vt 0.10180 0.99218
vt 0.10727 0.98636
vt 0.10738 0.99210
vt 0.11531 0.00135
vt 0.11542 0.84693
vt 0.12369 0.98643
vt 0.12380 0.99218
vt 0.12927 0.98636
vt 0.12939 0.99210
vt 0.13662 0.86395
vt 0.13662 0.91014
vt 0.13662 0.92606
vt 0.13662 0.97089
vt 0.14569 0.98643
vt 0.14580 0.99218
vt 0.15127 0.98636
vt 0.15135 0.86402
vt 0.15135 0.91021
vt 0.15135 0.92606
vt 0.15135 0.97089
vt 0.15139 0.99211
vt 0.15540 0.00117
vt 0.15550 0.84675
vt 0.16769 0.98643
vt 0.16781 0.99218
vt 0.17242 0.00135
vt 0.17253 0.84693
vt 0.17327 0.98636
vt 0.17339 0.99210
vt 0.18707 0.86395
vt 0.18707 0.91014
vt 0.18707 0.92606
vt 0.18707 0.97089
vt 0.18969 0.98643
vt 0.18981 0.99218
vt 0.19527 0.98636
vt 0.19539 0.99211
vt 0.20181 0.86402
vt 0.20181 0.91021
vt 0.20181 0.92606
vt 0.20181 0.97089
vt 0.21169 0.98643
vt 0.21181 0.99218
vt 0.21251 0.00117
vt 0.21261 0.84675
vt 0.21727 0.98636
vt 0.21739 0.99210
vt 0.22844 0.00117
vt 0.22844 0.84700
vt 0.23369 0.98643
vt 0.23381 0.99218
vt 0.23692 0.00110
vt 0.23692 0.84693
vt 0.23752 0.86395
vt 0.23752 0.91014
vt 0.23752 0.92606
vt 0.23752 0.97089
vt 0.23928 0.98636
vt 0.23939 0.99210
vt 0.25165 0.00117
vt 0.25165 0.84700
vt 0.25226 0.86402
vt 0.25226 0.91021
vt 0.25226 0.92606
vt 0.25226 0.97089
vt 0.25569 0.98643
vt 0.25581 0.99218
vt 0.26013 0.00110
vt 0.26013 0.84693
vt 0.26128 0.98636
vt 0.26139 0.99210
vt 0.27487 0.00117
vt 0.27487 0.84700
vt 0.27769 0.98643
vt 0.27781 0.99218
vt 0.28328 0.98636
vt 0.28334 0.00110
vt 0.28334 0.84693
vt 0.28339 0.99210
vt 0.28797 0.86395
vt 0.28797 0.91014
vt 0.28797 0.92606
vt 0.28797 0.97089
vt 0.29808 0.00117
vt 0.29808 0.84700
vt 0.30271 0.86285
vt 0.30271 0.86709
vt 0.30271 0.87400
vt 0.30271 0.89132
vt 0.30271 0.89556
vt 0.30271 0.90247
vt 0.30271 0.92175
vt 0.30271 0.92976
vt 0.30271 0.94451
vt 0.30271 0.94949
vt 0.30271 0.95448
vt 0.30271 0.96922
vt 0.30271 0.97421
vt 0.30271 0.97919
vt 0.30271 0.99515
vt 0.30271 0.99879
vt 0.30634 0.86285
vt 0.30634 0.86709
vt 0.30634 0.87490
vt 0.30634 0.89132
vt 0.30634 0.89556
vt 0.30634 0.90337
vt 0.30634 0.92281
vt 0.30634 0.92976
vt 0.30634 0.94451
vt 0.30634 0.94949
vt 0.30634 0.95448
vt 0.30634 0.96922
vt 0.30634 0.97421
vt 0.30634 0.97919
vt 0.30655 0.00110
vt 0.30655 0.84693
vt 0.30659 0.99467
vt 0.30674 0.99916
vt 0.32129 0.63292
vt 0.32129 0.64949
vt 0.32129 0.68826
vt 0.32202 0.00090
vt 0.32209 0.42327
vt 0.32209 0.43974
vt 0.32250 0.55941
vt 0.32255 0.57534
vt 0.32310 0.63363
vt 0.32533 0.00078
vt 0.32540 0.42315
vt 0.32613 0.55941
vt 0.32659 0.43963
vt 0.32976 0.64949
vt 0.32976 0.68826
vt 0.33260 0.84877
vt 0.33260 0.89496
vt 0.33260 0.91081
vt 0.33260 0.95564
vt 0.33260 0.97625
vt 0.33332 0.78549
vt 0.33369 0.72253
vt 0.33380 0.76847
vt 0.33380 0.83168
vt 0.33442 0.78621
vt 0.33447 0.98406
vt 0.33765 0.97137
vt 0.34066 0.98735
vt 0.34160 0.00090
vt 0.34167 0.42327
vt 0.34208 0.43880
vt 0.34208 0.44304
vt 0.34208 0.44995
vt 0.34208 0.46894
vt 0.34208 0.47842
vt 0.34208 0.49574
vt 0.34208 0.49998
vt 0.34208 0.50689
vt 0.34208 0.52588
vt 0.34208 0.53536
vt 0.34424 0.63357
vt 0.34431 0.57551
vt 0.34491 0.00078
vt 0.34498 0.42315
vt 0.34571 0.43880
vt 0.34571 0.44304
vt 0.34571 0.45085
vt 0.34571 0.46984
vt 0.34571 0.47932
vt 0.34571 0.49574
vt 0.34571 0.49998
vt 0.34571 0.50779
vt 0.34571 0.52678
vt 0.34571 0.53626
vt 0.34686 0.97368
vt 0.34751 0.98316
vt 0.35440 0.65555
vt 0.35440 0.70643
vt 0.36045 0.00000
vt 0.36045 0.42163
vt 0.36045 0.57174
vt 0.36045 0.64080
vt 0.36120 0.55616
vt 0.36166 0.43637
vt 0.36346 0.97235
vt 0.36346 0.98036
vt 0.36529 0.43637
vt 0.36567 0.55604
vt 0.36709 0.97039
vt 0.36709 0.97839
vt 0.36832 0.91081
vt 0.36832 0.95564
vt 0.36887 0.89489
vt 0.36894 0.84895
vt 0.37921 0.83103
vt 0.37983 0.72235
vt 0.37983 0.78556
vt 0.37994 0.76829
vt 0.38032 0.83175
vt 0.38103 0.57174
vt 0.38103 0.64080
vt 0.38103 0.65555
vt 0.38103 0.70643
vt 0.38199 0.55616
vt 0.38245 0.43637
vt 0.38305 0.91985
vt 0.38305 0.98326
vt 0.38427 0.94671
vt 0.38492 0.95619
vt 0.38608 0.43637
vt 0.38613 0.92615
vt 0.38613 0.97585
vt 0.38613 0.98957
vt 0.38649 0.55605
vt 0.38810 0.91179
vt 0.39111 0.95948
vt 0.39308 0.94316
vt 0.39308 0.97487
vt 0.39413 0.92679
vt 0.39413 0.99021
vt 0.39577 0.63050
vt 0.39577 0.71391
vt 0.39577 0.71815
vt 0.39577 0.72506
vt 0.39577 0.74405
vt 0.39577 0.75354
vt 0.39577 0.77252
vt 0.39577 0.78201
vt 0.39577 0.79932
vt 0.39577 0.80356
vt 0.39577 0.81048
vt 0.39577 0.82779
vt 0.39577 0.83203
vt 0.39577 0.83895
vt 0.39577 0.85794
vt 0.39577 0.86742
vt 0.39577 0.88473
vt 0.39577 0.88972
vt 0.39577 0.89470
vt 0.39620 0.64706
vt 0.39624 0.69916
vt 0.39703 0.57291
vt 0.39731 0.91410
vt 0.39758 0.63121
vt 0.39796 0.95530
vt 0.39918 0.92191
vt 0.39918 0.94838
vt 0.39918 0.98216
vt 0.39940 0.71391
vt 0.39940 0.71815
vt 0.39940 0.72596
vt 0.39940 0.74238
vt 0.39940 0.74662
vt 0.39940 0.75443
vt 0.39940 0.77085
vt 0.39940 0.77509
vt 0.39940 0.78290
vt 0.39940 0.79932
vt 0.39940 0.80356
vt 0.39940 0.81137
vt 0.39940 0.82779
vt 0.39940 0.83203
vt 0.39940 0.83984
vt 0.39940 0.85883
vt 0.39940 0.86831
vt 0.39940 0.88473
vt 0.39940 0.88972
vt 0.39940 0.89470
vt 0.40014 0.64706
vt 0.40018 0.69916
vt 0.40286 0.43733
vt 0.40324 0.55699
vt 0.40687 0.55699
vt 0.40733 0.43721
vt 0.41251 0.00000
vt 0.41251 0.42163
vt 0.41535 0.64706
vt 0.41535 0.69795
vt 0.41535 0.88577
vt 0.41535 0.90351
vt 0.41535 0.94969
vt 0.41606 0.71380
vt 0.41644 0.77726
vt 0.41654 0.75999
vt 0.41654 0.82320
vt 0.41656 0.96973
vt 0.41661 0.84029
vt 0.41716 0.71452
vt 0.41716 0.88648
vt 0.41721 0.97921
vt 0.41872 0.63114
vt 0.41879 0.57309
vt 0.42341 0.98250
vt 0.42357 0.55616
vt 0.42403 0.43637
vt 0.42537 0.96618
vt 0.42724 0.00000
vt 0.42724 0.42163
vt 0.42766 0.43637
vt 0.42804 0.55604
vt 0.43025 0.97832
vt 0.43147 0.97140
vt 0.43472 0.63050
vt 0.43598 0.57291
vt 0.43653 0.63121
vt 0.44198 0.64706
vt 0.44198 0.69795
vt 0.44445 0.43733
vt 0.44482 0.55699
vt 0.44620 0.97140
vt 0.44807 0.97921
vt 0.44845 0.55699
vt 0.44891 0.43721
vt 0.45106 0.90343
vt 0.45106 0.94962
vt 0.45125 0.96652
vt 0.45288 0.84022
vt 0.45343 0.88641
vt 0.45426 0.98250
vt 0.45469 0.84094
vt 0.45767 0.63114
vt 0.45774 0.57309
vt 0.46046 0.96884
vt 0.46111 0.97832
vt 0.46196 0.75934
vt 0.46258 0.71387
vt 0.46258 0.77708
vt 0.46268 0.82302
vt 0.46306 0.76006
vt 0.46515 0.55616
vt 0.46561 0.43637
vt 0.46924 0.43637
vt 0.46943 0.84079
vt 0.46943 0.85028
vt 0.46943 0.86926
vt 0.46943 0.87875
vt 0.46943 0.89803
vt 0.46943 0.90603
vt 0.46943 0.92078
vt 0.46943 0.92576
vt 0.46943 0.93075
vt 0.46962 0.55604
vt 0.47306 0.84169
vt 0.47306 0.85117
vt 0.47306 0.87016
vt 0.47306 0.87964
vt 0.47306 0.89908
vt 0.47306 0.90603
vt 0.47306 0.92078
vt 0.47306 0.92576
vt 0.47306 0.93075
vt 0.47367 0.57174
vt 0.47367 0.62989
vt 0.47410 0.64464
vt 0.47414 0.69674
vt 0.47804 0.64464
vt 0.47808 0.69674
vt 0.47851 0.57174
vt 0.47851 0.62989
vt 0.47930 0.00000
vt 0.47930 0.42163
vt 0.49404 0.65888
vt 0.49404 0.70977
vt 0.49404 0.85211
vt 0.49404 0.89830
vt 0.49404 0.91415
vt 0.49404 0.95898
vt 0.49404 0.98483
vt 0.49447 0.58598
vt 0.49448 0.00121
vt 0.49452 0.64414
vt 0.49479 0.13462
vt 0.49482 0.28482
vt 0.49482 0.43503
vt 0.49488 0.45157
vt 0.49494 0.15098
vt 0.49494 0.30121
vt 0.49513 0.72587
vt 0.49513 0.78908
vt 0.49524 0.77181
vt 0.49524 0.83502
vt 0.49525 0.57123
vt 0.49526 0.97791
vt 0.49888 0.57123
vt 0.49920 0.13468
vt 0.49920 0.28489
vt 0.49931 0.00084
vt 0.49934 0.15104
vt 0.49934 0.30125
vt 0.49934 0.45145
vt 0.49966 0.43466
vt 0.50013 0.99005
vt 0.50083 0.58598
vt 0.50088 0.64414
vt 0.50407 0.97437
vt 0.50708 0.98907
vt 0.51016 0.98166
vt 0.51558 0.13462
vt 0.51558 0.28483
vt 0.51561 0.43503
vt 0.51567 0.45157
vt 0.51573 0.00077
vt 0.51573 0.15098
vt 0.51573 0.30121
vt 0.51604 0.57123
vt 0.51647 0.58598
vt 0.51652 0.64414
vt 0.51967 0.57123
vt 0.51999 0.13468
vt 0.51999 0.28489
vt 0.52013 0.00084
vt 0.52013 0.15104
vt 0.52013 0.30125
vt 0.52013 0.45145
vt 0.52045 0.43466
vt 0.52067 0.65888
vt 0.52067 0.70977
vt 0.52283 0.58598
vt 0.52288 0.64414
vt 0.52490 0.97373
vt 0.52490 0.97871
vt 0.52490 0.98370
vt 0.52853 0.97373
vt 0.52853 0.97871
vt 0.52853 0.98370
vt 0.52975 0.91415
vt 0.52975 0.95898
vt 0.53031 0.89823
vt 0.53038 0.85229
vt 0.53541 0.65888
vt 0.53541 0.70977
vt 0.53606 0.15142
vt 0.53637 0.28483
vt 0.53637 0.43503
vt 0.53637 0.57040
vt 0.53640 0.13462
vt 0.53652 0.00077
vt 0.53652 0.30119
vt 0.53683 0.45062
vt 0.53847 0.58598
vt 0.53852 0.64414
vt 0.54046 0.45062
vt 0.54078 0.13468
vt 0.54078 0.28489
vt 0.54078 0.43510
vt 0.54088 0.57029
vt 0.54089 0.00084
vt 0.54089 0.15105
vt 0.54092 0.30125
vt 0.54127 0.72569
vt 0.54127 0.78890
vt 0.54138 0.77163
vt 0.54138 0.83484
vt 0.54483 0.58598
vt 0.54488 0.64414
vt 0.54631 0.86204
vt 0.54631 0.89168
vt 0.54631 0.92339
vt 0.54631 0.95193
vt 0.54631 0.97975
vt 0.54631 0.98775
vt 0.54752 0.85513
vt 0.54817 0.95974
vt 0.54939 0.89799
vt 0.54939 0.92970
vt 0.54994 0.97778
vt 0.54994 0.98578
vt 0.55135 0.88363
vt 0.55135 0.91534
vt 0.55135 0.94705
vt 0.55240 0.86726
vt 0.55437 0.96303
vt 0.55633 0.85158
vt 0.55716 0.13462
vt 0.55716 0.28483
vt 0.55716 0.43503
vt 0.55720 0.72619
vt 0.55720 0.73567
vt 0.55720 0.75466
vt 0.55720 0.76414
vt 0.55720 0.78313
vt 0.55720 0.79261
vt 0.55720 0.81160
vt 0.55720 0.82108
vt 0.55721 0.45156
vt 0.55731 0.00077
vt 0.55731 0.15098
vt 0.55731 0.30119
vt 0.55738 0.89863
vt 0.55738 0.93034
vt 0.55762 0.57123
vt 0.55935 0.86628
vt 0.56056 0.88594
vt 0.56056 0.91765
vt 0.56056 0.94936
vt 0.56084 0.72708
vt 0.56084 0.73657
vt 0.56084 0.75299
vt 0.56084 0.75723
vt 0.56084 0.76504
vt 0.56084 0.78146
vt 0.56084 0.78570
vt 0.56084 0.79351
vt 0.56084 0.81250
vt 0.56084 0.82198
vt 0.56121 0.95884
vt 0.56125 0.57123
vt 0.56157 0.43510
vt 0.56171 0.00084
vt 0.56171 0.15104
vt 0.56171 0.30125
vt 0.56171 0.45145
vt 0.56203 0.13425
vt 0.56203 0.28445
vt 0.56205 0.65888
vt 0.56205 0.70977
vt 0.56243 0.85887
vt 0.56243 0.89375
vt 0.56243 0.92546
vt 0.57720 0.20442
vt 0.57720 0.27793
vt 0.57720 0.45328
vt 0.57720 0.55183
vt 0.57720 0.62089
vt 0.57720 0.63564
vt 0.57720 0.69380
vt 0.57720 0.88161
vt 0.57720 0.89935
vt 0.57720 0.94554
vt 0.57783 0.36947
vt 0.57783 0.53709
vt 0.57795 0.11978
vt 0.57829 0.70989
vt 0.57829 0.77310
vt 0.57829 0.96274
vt 0.57838 0.13536
vt 0.57838 0.30041
vt 0.57838 0.38422
vt 0.57838 0.46803
vt 0.57840 0.75583
vt 0.57840 0.81904
vt 0.57840 0.99050
vt 0.57841 0.00000
vt 0.57846 0.22035
vt 0.57846 0.83614
vt 0.57902 0.20442
vt 0.57902 0.27864
vt 0.57902 0.45328
vt 0.57902 0.88233
vt 0.58205 0.00000
vt 0.58205 0.63564
vt 0.58205 0.69380
vt 0.58242 0.11966
vt 0.59678 0.63564
vt 0.59678 0.69380
vt 0.59719 0.96256
vt 0.59730 0.99033
vt 0.59778 0.55183
vt 0.59778 0.62089
vt 0.59799 0.00000
vt 0.59799 0.06906
vt 0.59921 0.08799
vt 0.59986 0.09748
vt 0.60015 0.27858
vt 0.60022 0.22052
vt 0.60162 0.63564
vt 0.60162 0.69380
vt 0.60605 0.08381
vt 0.60907 0.09979
vt 0.61225 0.08710
vt 0.61252 0.55183
vt 0.61252 0.62089
vt 0.61292 0.89928
vt 0.61292 0.94547
vt 0.61313 0.96725
vt 0.61396 0.99393
vt 0.61409 0.99794
vt 0.61411 0.09491
vt 0.61473 0.83607
vt 0.61499 0.97506
vt 0.61529 0.88226
vt 0.61636 0.63564
vt 0.61636 0.69380
vt 0.61655 0.83678
vt 0.61658 0.21917
vt 0.61663 0.27733
vt 0.61800 0.99431
vt 0.61800 0.99794
vt 0.61817 0.96237
vt 0.61857 0.00000
vt 0.61857 0.06906
vt 0.62119 0.97835
vt 0.62120 0.63564
vt 0.62120 0.69380
vt 0.62294 0.21917
vt 0.62299 0.27733
vt 0.62443 0.70972
vt 0.62443 0.77293
vt 0.62454 0.75566
vt 0.62454 0.81887
vt 0.62738 0.96468
vt 0.62765 0.89818
vt 0.62765 0.90316
vt 0.62765 0.90815
vt 0.62765 0.92290
vt 0.62765 0.92985
vt 0.62803 0.97416
vt 0.63129 0.89818
vt 0.63129 0.90316
vt 0.63129 0.90815
vt 0.63129 0.92290
vt 0.63129 0.93090
vt 0.63310 0.55183
vt 0.63310 0.62089
vt 0.63331 0.07290
vt 0.63331 0.11773
vt 0.63374 0.00000
vt 0.63379 0.05815
vt 0.63592 0.13536
vt 0.63592 0.38422
vt 0.63656 0.20442
vt 0.63656 0.36947
vt 0.63656 0.45328
vt 0.63656 0.53709
vt 0.63711 0.30041
vt 0.63711 0.46803
vt 0.63774 0.13536
vt 0.63774 0.38422
vt 0.63858 0.21917
vt 0.63863 0.27733
vt 0.64010 0.00000
vt 0.64015 0.05815
vt 0.64494 0.21917
vt 0.64499 0.27733
vt 0.64784 0.62474
vt 0.64784 0.68289
vt 0.64784 0.82711
vt 0.64784 0.87377
vt 0.64784 0.89087
vt 0.64784 0.93705
vt 0.64784 0.95291
vt 0.64784 0.99774
vt 0.64827 0.55183
vt 0.64831 0.60999
vt 0.64848 0.69764
vt 0.64855 0.74853
vt 0.64855 0.76438
vt 0.64904 0.81056
vt 0.64965 0.76509
vt 0.65247 0.53022
vt 0.65268 0.62474
vt 0.65268 0.68289
vt 0.65290 0.13536
vt 0.65290 0.30041
vt 0.65290 0.37332
vt 0.65290 0.44622
vt 0.65295 0.19352
vt 0.65295 0.35857
vt 0.65295 0.43147
vt 0.65295 0.50437
vt 0.65369 0.52331
vt 0.65463 0.55183
vt 0.65468 0.60999
vt 0.65574 0.00000
vt 0.65579 0.05815
vt 0.65857 0.53544
vt 0.65926 0.13536
vt 0.65926 0.30041
vt 0.65926 0.37332
vt 0.65926 0.44622
vt 0.65931 0.19352
vt 0.65931 0.35857
vt 0.65931 0.43147
vt 0.65931 0.50437
vt 0.66053 0.51912
vt 0.66058 0.21917
vt 0.66063 0.27733
vt 0.66210 0.00000
vt 0.66215 0.05815
vt 0.66673 0.52241
vt 0.66694 0.21917
vt 0.66699 0.27733
vt 0.66738 0.53190
vt 0.66742 0.62474
vt 0.66742 0.68289
vt 0.66831 0.69764
vt 0.66838 0.74853
vt 0.66903 0.07290
vt 0.66903 0.11773
vt 0.67027 0.55183
vt 0.67031 0.60999
vt 0.67226 0.62474
vt 0.67226 0.68289
vt 0.67447 0.13536
vt 0.67447 0.19352
vt 0.67447 0.30041
vt 0.67447 0.35857
vt 0.67447 0.37332
vt 0.67447 0.43147
vt 0.67447 0.44622
vt 0.67447 0.50437
vt 0.67663 0.55183
vt 0.67668 0.60999
vt 0.67731 0.00000
vt 0.67731 0.05815
vt 0.67932 0.13536
vt 0.67932 0.19352
vt 0.67932 0.30041
vt 0.67932 0.35857
vt 0.67932 0.37332
vt 0.67932 0.43147
vt 0.67932 0.44622
vt 0.67932 0.50437
vt 0.68216 0.00000
vt 0.68216 0.05815
vt 0.68216 0.21917
vt 0.68216 0.27733
vt 0.68355 0.89080
vt 0.68355 0.93698
vt 0.68355 0.95291
vt 0.68355 0.99774
vt 0.68376 0.69931
vt 0.68376 0.70880
vt 0.68376 0.72611
vt 0.68376 0.73035
vt 0.68376 0.73727
vt 0.68700 0.21917
vt 0.68700 0.27733
vt 0.68700 0.62474
vt 0.68700 0.68289
vt 0.68739 0.70021
vt 0.68739 0.70969
vt 0.68739 0.72611
vt 0.68739 0.73035
vt 0.68739 0.73816
vt 0.69184 0.55183
vt 0.69184 0.60999
vt 0.69184 0.62474
vt 0.69184 0.68289
vt 0.69263 0.82766
vt 0.69263 0.87433
vt 0.69405 0.13536
vt 0.69405 0.18625
vt 0.69405 0.30041
vt 0.69405 0.35130
vt 0.69405 0.36605
vt 0.69405 0.41693
vt 0.69405 0.43168
vt 0.69405 0.48257
vt 0.69405 0.49731
vt 0.69405 0.53608
vt 0.69445 0.80992
vt 0.69507 0.76445
vt 0.69555 0.81063
vt 0.69668 0.55183
vt 0.69668 0.60999
vt 0.69689 0.00000
vt 0.69689 0.05089
vt 0.69689 0.06563
vt 0.69689 0.11652
vt 0.69829 0.98174
vt 0.69829 0.98974
vt 0.69938 0.89104
vt 0.69938 0.93608
vt 0.69949 0.91881
vt 0.69949 0.96385
vt 0.70192 0.98279
vt 0.70192 0.98974
vt 0.70238 0.21917
vt 0.70245 0.27006
vt 0.70253 0.49731
vt 0.70253 0.53608
vt 0.70722 0.62474
vt 0.70722 0.69037
vt 0.70729 0.67562
vt 0.70729 0.74126
vt 0.71164 0.76711
vt 0.71164 0.82846
vt 0.71164 0.86224
vt 0.71206 0.55183
vt 0.71213 0.60272
vt 0.71286 0.76019
vt 0.71286 0.79190
vt 0.71286 0.85532
vt 0.71351 0.80138
vt 0.71472 0.83477
vt 0.71666 0.97977
vt 0.71666 0.98476
vt 0.71666 0.98974
vt 0.71669 0.82041
vt 0.71727 0.49731
vt 0.71727 0.53608
vt 0.71774 0.77233
vt 0.71774 0.86746
vt 0.71828 0.89087
vt 0.71828 0.93591
vt 0.71839 0.91864
vt 0.71839 0.96367
vt 0.71971 0.75601
vt 0.71971 0.78772
vt 0.72029 0.97977
vt 0.72029 0.98476
vt 0.72029 0.98974
vt 0.72069 0.13536
vt 0.72069 0.18625
vt 0.72069 0.30041
vt 0.72069 0.35130
vt 0.72069 0.36605
vt 0.72069 0.41693
vt 0.72069 0.43168
vt 0.72069 0.48257
vt 0.72167 0.85177
vt 0.72221 0.21917
vt 0.72228 0.27006
vt 0.72272 0.80370
vt 0.72272 0.83541
vt 0.72353 0.00000
vt 0.72353 0.05089
vt 0.72353 0.06563
vt 0.72353 0.11652
vt 0.72469 0.86648
vt 0.72574 0.49731
vt 0.72574 0.53608
vt 0.72590 0.75930
vt 0.72590 0.79101
vt 0.72590 0.82272
vt 0.72655 0.76878
vt 0.72705 0.62474
vt 0.72705 0.69037
vt 0.72712 0.67562
vt 0.72712 0.74126
vt 0.72776 0.79882
vt 0.72776 0.83053
vt 0.72776 0.85906
vt 0.73189 0.55183
vt 0.73196 0.60272
vt 0.73607 0.13536
vt 0.73607 0.30041
vt 0.73607 0.36605
vt 0.73607 0.43168
vt 0.73614 0.18625
vt 0.73614 0.35130
vt 0.73614 0.41693
vt 0.73614 0.48257
vt 0.73830 0.21917
vt 0.73837 0.27006
vt 0.73898 0.06431
vt 0.73936 0.00135
vt 0.73946 0.04729
vt 0.73946 0.11050
vt 0.74008 0.06503
vt 0.74048 0.49731
vt 0.74048 0.53608
vt 0.74250 0.81437
vt 0.74250 0.81619
vt 0.74250 0.86166
vt 0.74250 0.87875
vt 0.74250 0.92494
vt 0.74250 0.94079
vt 0.74250 0.98562
vt 0.74321 0.62584
vt 0.74321 0.68905
vt 0.74359 0.75251
vt 0.74370 0.67202
vt 0.74370 0.73524
vt 0.74370 0.79845
vt 0.74432 0.62655
vt 0.74432 0.68976
vt 0.74844 0.55318
vt 0.74854 0.59912
vt 0.74895 0.49731
vt 0.74895 0.53608
vt 0.75590 0.13536
vt 0.75590 0.30041
vt 0.75590 0.36605
vt 0.75590 0.43168
vt 0.75597 0.18625
vt 0.75597 0.35130
vt 0.75597 0.41693
vt 0.75597 0.48257
vt 0.75813 0.21917
vt 0.75820 0.27006
vt 0.77135 0.49004
vt 0.77135 0.53487
vt 0.77206 0.13647
vt 0.77206 0.30151
vt 0.77206 0.36473
vt 0.77244 0.42818
vt 0.77255 0.18265
vt 0.77255 0.34770
vt 0.77255 0.41091
vt 0.77255 0.47412
vt 0.77316 0.13718
vt 0.77316 0.30223
vt 0.77316 0.36544
vt 0.77467 0.22052
vt 0.77478 0.26646
vt 0.77822 0.87869
vt 0.77822 0.92487
vt 0.77822 0.94079
vt 0.77822 0.98562
vt 0.78487 0.10986
vt 0.78549 0.00117
vt 0.78549 0.06438
vt 0.78560 0.04711
vt 0.78598 0.11057
vt 0.78730 0.81554
vt 0.78730 0.86101
vt 0.78730 0.86283
vt 0.78911 0.73459
vt 0.78973 0.62591
vt 0.78973 0.68912
vt 0.78973 0.75233
vt 0.78984 0.67185
vt 0.78984 0.79827
vt 0.79022 0.73531
vt 0.79295 0.87875
vt 0.79295 0.92494
vt 0.79295 0.94079
vt 0.79295 0.98562
vt 0.79457 0.55301
vt 0.79468 0.59895
vt 0.80203 0.81437
vt 0.80203 0.81619
vt 0.80203 0.86166
vt 0.80214 0.00110
vt 0.80252 0.06456
vt 0.80263 0.04729
vt 0.80263 0.11050
vt 0.80324 0.00182
vt 0.80638 0.68905
vt 0.80676 0.62609
vt 0.80676 0.75251
vt 0.80686 0.67203
vt 0.80686 0.73524
vt 0.80686 0.79845
vt 0.80706 0.49004
vt 0.80706 0.53487
vt 0.80748 0.68976
vt 0.81122 0.55294
vt 0.81171 0.59912
vt 0.81232 0.55365
vt 0.81796 0.18201
vt 0.81796 0.34706
vt 0.81796 0.41027
vt 0.81858 0.13654
vt 0.81858 0.30159
vt 0.81858 0.36480
vt 0.81858 0.42801
vt 0.81868 0.47395
vt 0.81906 0.18272
vt 0.81906 0.34777
vt 0.81906 0.41098
vt 0.82081 0.22035
vt 0.82092 0.26628
vt 0.82180 0.49004
vt 0.82180 0.53487
vt 0.82867 0.87869
vt 0.82867 0.92487
vt 0.82867 0.94079
vt 0.82867 0.98562
vt 0.83451 0.13536
vt 0.83451 0.13718
vt 0.83451 0.18265
vt 0.83451 0.30041
vt 0.83451 0.30223
vt 0.83451 0.34770
vt 0.83451 0.36424
vt 0.83451 0.41091
vt 0.83451 0.47348
vt 0.83577 0.42801
vt 0.83633 0.47419
vt 0.83675 0.26582
vt 0.83801 0.22035
vt 0.83856 0.26653
vt 0.84341 0.87875
vt 0.84341 0.92494
vt 0.84341 0.94079
vt 0.84341 0.98562
vt 0.84683 0.81554
vt 0.84683 0.86101
vt 0.84683 0.86283
vt 0.84804 0.04664
vt 0.84866 0.00117
vt 0.84866 0.06438
vt 0.84876 0.11033
vt 0.84914 0.04736
vt 0.85228 0.73459
vt 0.85289 0.62591
vt 0.85289 0.68912
vt 0.85289 0.75233
vt 0.85300 0.67185
vt 0.85300 0.79827
vt 0.85338 0.73531
vt 0.85712 0.59848
vt 0.85752 0.49004
vt 0.85752 0.53487
vt 0.85774 0.55301
vt 0.85822 0.59919
vt 0.86157 0.81554
vt 0.86157 0.86173
vt 0.86459 0.00118
vt 0.86459 0.04736
vt 0.86459 0.06438
vt 0.86459 0.11057
vt 0.86883 0.62591
vt 0.86883 0.67210
vt 0.86883 0.68912
vt 0.86883 0.73531
vt 0.86883 0.75233
vt 0.86883 0.79852
vt 0.87204 0.42794
vt 0.87225 0.49004
vt 0.87225 0.53487
vt 0.87260 0.47412
vt 0.87367 0.55301
vt 0.87367 0.59919
vt 0.87386 0.42865
vt 0.87428 0.22027
vt 0.87483 0.26646
vt 0.87609 0.22099
vt 0.87912 0.87869
vt 0.87912 0.92487
vt 0.87912 0.94079
vt 0.87912 0.98562
vt 0.87931 0.13654
vt 0.87931 0.18201
vt 0.87931 0.18383
vt 0.87931 0.30159
vt 0.87931 0.34706
vt 0.87931 0.34887
vt 0.87931 0.36480
vt 0.87931 0.41146
vt 0.88860 0.42801
vt 0.88860 0.47419
vt 0.89083 0.22035
vt 0.89083 0.26653
vt 0.89386 0.87875
vt 0.89386 0.92494
vt 0.89386 0.94079
vt 0.89386 0.98562
vt 0.89404 0.13654
vt 0.89404 0.18272
vt 0.89404 0.30159
vt 0.89404 0.34777
vt 0.89404 0.36480
vt 0.89404 0.41098
vt 0.89784 0.86166
vt 0.89790 0.81572
vt 0.90031 0.06431
vt 0.90031 0.11050
vt 0.90086 0.04729
vt 0.90093 0.00135
vt 0.90454 0.62584
vt 0.90454 0.67203
vt 0.90454 0.68905
vt 0.90454 0.73524
vt 0.90454 0.75226
vt 0.90454 0.79845
vt 0.90797 0.49004
vt 0.90797 0.53487
vt 0.90939 0.55294
vt 0.90939 0.59912
vt 0.91383 0.81554
vt 0.91383 0.86173
vt 0.91504 0.06321
vt 0.91504 0.10804
vt 0.91686 0.00000
vt 0.91686 0.04483
vt 0.91928 0.62474
vt 0.91928 0.66956
vt 0.91928 0.68795
vt 0.91928 0.73278
vt 0.91928 0.74752
vt 0.91928 0.79235
vt 0.92270 0.49004
vt 0.92270 0.53487
vt 0.92412 0.55183
vt 0.92412 0.59666
vt 0.92431 0.42794
vt 0.92431 0.47412
vt 0.92654 0.22027
vt 0.92654 0.26646
vt 0.92957 0.87869
vt 0.92957 0.92487
vt 0.92957 0.94079
vt 0.92957 0.98562
vt 0.92976 0.13647
vt 0.92976 0.18265
vt 0.92976 0.30151
vt 0.92976 0.34770
vt 0.92976 0.36473
vt 0.92976 0.41091
vt 0.93905 0.42683
vt 0.93905 0.47166
vt 0.94128 0.21917
vt 0.94128 0.26400
vt 0.94128 0.27996
vt 0.94128 0.28359
vt 0.94431 0.87758
vt 0.94431 0.92241
vt 0.94431 0.93716
vt 0.94431 0.98198
vt 0.94450 0.13536
vt 0.94450 0.18019
vt 0.94450 0.30041
vt 0.94450 0.34524
vt 0.94450 0.36362
vt 0.94450 0.40845
vt 0.94519 0.27996
vt 0.94522 0.19584
vt 0.94529 0.20143
vt 0.94532 0.28397
vt 0.94955 0.81547
vt 0.94955 0.86166
vt 0.95076 0.06321
vt 0.95076 0.10804
vt 0.95096 0.19572
vt 0.95103 0.20131
vt 0.95257 0.00000
vt 0.95257 0.04483
vt 0.95500 0.62474
vt 0.95500 0.66956
vt 0.95500 0.68795
vt 0.95500 0.73278
vt 0.95500 0.74752
vt 0.95500 0.79235
vt 0.95842 0.49004
vt 0.95842 0.53487
vt 0.95984 0.55183
vt 0.95984 0.59666
vt 0.96176 0.27955
vt 0.96189 0.28405
vt 0.96428 0.81437
vt 0.96428 0.85920
vt 0.96550 0.10825
vt 0.96550 0.11520
vt 0.96576 0.27996
vt 0.96576 0.28359
vt 0.96659 0.06456
vt 0.96669 0.09233
vt 0.96723 0.19584
vt 0.96730 0.20143
vt 0.96840 0.00135
vt 0.96851 0.02911
vt 0.96913 0.10825
vt 0.96913 0.11625
vt 0.97082 0.62609
vt 0.97082 0.67112
vt 0.97082 0.71616
vt 0.97082 0.76120
vt 0.97093 0.65385
vt 0.97093 0.69889
vt 0.97093 0.74393
vt 0.97093 0.78896
vt 0.97296 0.19572
vt 0.97303 0.20131
vt 0.97425 0.49139
vt 0.97435 0.51916
vt 0.97458 0.56087
vt 0.97458 0.59465
vt 0.97476 0.42683
vt 0.97476 0.47166
vt 0.97579 0.58773
vt 0.97700 0.21917
vt 0.97700 0.26400
vt 0.97765 0.55345
vt 0.97765 0.56718
vt 0.98002 0.87758
vt 0.98002 0.92241
vt 0.98002 0.93716
vt 0.98002 0.98198
vt 0.98021 0.13536
vt 0.98021 0.18019
vt 0.98021 0.30041
vt 0.98021 0.34524
vt 0.98021 0.36362
vt 0.98021 0.40845
vt 0.98050 0.27996
vt 0.98050 0.28359
vt 0.98067 0.59987
vt 0.98386 0.10825
vt 0.98386 0.11323
vt 0.98386 0.11822
vt 0.98438 0.27950
vt 0.98454 0.28397
vt 0.98460 0.55247
vt 0.98460 0.58418
vt 0.98549 0.06438
vt 0.98559 0.09215
vt 0.98565 0.56781
vt 0.98730 0.00117
vt 0.98741 0.02894
vt 0.98750 0.10825
vt 0.98750 0.11323
vt 0.98750 0.11822
vt 0.98762 0.59889
vt 0.98928 0.19574
vt 0.98940 0.20148
vt 0.98950 0.42880
vt 0.98950 0.43680
vt 0.98950 0.45155
vt 0.98950 0.45654
vt 0.98950 0.46152
vt 0.98972 0.62591
vt 0.98972 0.67095
vt 0.98972 0.71599
vt 0.98972 0.76102
vt 0.98983 0.65368
vt 0.98983 0.69871
vt 0.98983 0.74375
vt 0.98983 0.78879
vt 0.99070 0.55976
vt 0.99070 0.59147
vt 0.99173 0.24119
vt 0.99173 0.24482
vt 0.99257 0.22001
vt 0.99270 0.22402
vt 0.99313 0.42985
vt 0.99313 0.43680
vt 0.99313 0.45155
vt 0.99313 0.45654
vt 0.99313 0.46152
vt 0.99314 0.49122
vt 0.99325 0.51898
vt 0.99476 0.89960
vt 0.99476 0.90323
vt 0.99476 0.94121
vt 0.99476 0.94484
vt 0.99486 0.19567
vt 0.99498 0.20141
vt 0.99560 0.87842
vt 0.99560 0.92003
vt 0.99562 0.24070
vt 0.99563 0.96160
vt 0.99572 0.88243
vt 0.99572 0.92404
vt 0.99576 0.96611
vt 0.99577 0.24520
vt 0.99661 0.22038
vt 0.99661 0.22402
vt 0.99864 0.89914
vt 0.99867 0.94121
vt 0.99877 0.94526
vt 0.99879 0.90361
vt 0.99963 0.87879
vt 0.99963 0.88243
vt 0.99963 0.92040
vt 0.99963 0.92404
vt 0.99963 0.96202
vt 0.99963 0.96565
vt 1.00000 0.81437
vt 1.00000 0.85920
s 0
usemtl Racing_asphalt
f 1/619/105 6/618/105 8/601/105
f 1/619/4 8/601/4 2/598/4
f 1/679/113 3/676/113 9/584/113
f 1/679/19 9/584/19 6/591/19
f 10/296/1 5/298/1 4/275/1
f 2/598/2 8/601/2 7/575/2
f 3/612/111 1/613/111 2/578/111
f 3/612/17 2/578/17 5/577/17
f 312/818/177 314/850/177 318/852/177
f 312/818/91 318/852/91 316/820/91
f 314/232/176 315/231/176 319/256/176
f 314/232/90 319/256/90 318/257/90
f 314/884/175 312/829/175 313/827/175
f 314/884/89 313/827/89 315/882/89
f 316/332/108 317/331/108 313/360/108
f 316/332/12 313/360/12 312/361/12
f 316/868/173 318/824/173 319/823/173
f 316/868/87 319/823/87 317/867/87
f 317/817/174 319/849/174 315/851/174
f 317/817/88 315/851/88 313/819/88
f 344/1198/177 346/1246/177 350/1247/177
f 344/1198/91 350/1247/91 348/1199/91
f 346/485/176 347/484/176 351/569/176
f 346/485/90 351/569/90 350/570/90
f 346/885/175 344/830/175 345/828/175
f 346/885/89 345/828/89 347/883/89
f 348/417/108 349/416/108 345/470/108
f 348/417/12 345/470/12 344/471/12
f 348/890/173 350/835/173 351/834/173
f 348/890/87 351/834/87 349/889/87
f 349/1194/174 351/1243/174 347/1244/174
f 349/1194/88 347/1244/88 345/1195/88
f 376/1203/177 378/1260/177 382/1264/177
f 376/1203/91 382/1264/91 380/1207/91
f 378/814/176 379/813/176 383/873/176
f 378/814/90 383/873/90 382/874/90
f 378/931/175 376/895/175 377/891/175
f 378/931/89 377/891/89 379/927/89
f 380/741/173 382/700/173 383/699/173
f 380/741/87 383/699/87 381/740/87
f 380/812/108 381/811/108 377/871/108
f 380/812/12 377/871/12 376/872/12
f 381/1202/174 383/1259/174 379/1263/174
f 381/1202/88 379/1263/88 377/1206/88
f 4/600/20 5/574/20 2/590/20
f 408/1205/177 410/1262/177 414/1266/177
f 408/1205/91 414/1266/91 412/1209/91
f 410/799/176 411/798/176 415/860/176
f 410/799/90 415/860/90 414/861/90
f 410/933/175 408/897/175 409/893/175
f 410/933/89 409/893/89 411/929/89
f 412/797/108 413/796/108 409/858/108
f 412/797/12 409/858/12 408/859/12
f 412/932/173 414/896/173 415/892/173
f 412/932/87 415/892/87 413/928/87
f 413/1204/174 415/1261/174 411/1265/174
f 413/1204/88 411/1265/88 409/1208/88
f 440/1212/177 442/1278/177 446/1279/177
f 440/1212/91 446/1279/91 444/1213/91
f 442/803/176 443/802/176 447/864/176
f 442/803/90 447/864/90 446/865/90
f 442/936/175 440/900/175 441/899/175
f 442/936/89 441/899/89 443/935/89
f 444/801/108 445/800/108 441/862/108
f 444/801/12 441/862/12 440/863/12
f 444/934/173 446/898/173 447/894/173
f 444/934/87 447/894/87 445/930/87
f 445/589/174 447/610/174 443/611/174
f 445/589/88 443/611/88 441/596/88
f 6/644/109 9/645/109 10/615/109
f 6/644/15 10/615/15 8/614/15
f 7/673/110 10/675/110 4/600/110
f 7/673/16 4/600/16 2/590/16
f 7/673/21 8/681/21 10/675/21
f 9/346/112 3/345/112 5/298/112
f 9/346/18 5/298/18 10/296/18
f 90/376/105 95/375/105 97/359/105
f 90/376/4 97/359/4 91/358/4
f 90/680/113 92/678/113 98/585/113
f 90/680/19 98/585/19 95/593/19
f 91/358/2 97/359/2 96/357/2
f 92/254/111 90/255/111 91/236/111
f 92/254/17 91/236/17 94/235/17
f 93/602/20 94/576/20 91/592/20
f 95/667/109 98/668/109 99/626/109
f 95/667/15 99/626/15 97/625/15
f 96/674/110 99/677/110 93/602/110
f 96/674/16 93/602/16 91/592/16
f 96/674/21 97/682/21 99/677/21
f 98/216/112 92/215/112 94/183/112
f 98/216/18 94/183/18 99/182/18
f 99/182/1 94/183/1 93/175/1
usemtl Racing_kerb_red
f 100/949/119 103/1002/119 109/999/119
f 100/949/27 109/999/27 106/945/27
f 100/949/28 101/941/28 103/1002/28
f 101/772/120 106/773/120 108/694/120
f 101/772/30 108/694/30 102/693/30
f 102/944/2 108/940/2 107/948/2
f 103/1002/3 110/1007/3 109/999/3
f 103/1014/117 101/1015/117 102/974/117
f 103/1014/33 102/974/33 105/973/33
f 104/998/35 105/1006/35 102/944/35
f 106/945/5 101/941/5 100/949/5
f 106/954/115 110/955/115 111/914/115
f 106/954/31 111/914/31 108/913/31
f 107/948/121 111/1001/121 104/998/121
f 107/948/32 104/998/32 102/944/32
f 107/948/36 108/940/36 111/1001/36
f 109/999/29 110/1007/29 106/945/29
f 11/342/119 14/380/119 18/379/119
f 11/342/27 18/379/27 16/338/27
f 11/342/28 12/336/28 14/380/28
f 110/627/122 103/628/122 105/583/122
f 110/627/34 105/583/34 111/582/34
f 111/1001/1 105/1006/1 104/998/1
f 12/1144/114 16/1145/114 17/1099/114
f 12/1144/22 17/1099/22 13/1098/22
f 124/1022/127 126/1086/127 130/1087/127
f 124/1022/39 130/1087/39 128/1023/39
f 124/483/123 128/482/123 129/419/123
f 124/483/37 129/419/37 125/418/37
f 126/1229/125 124/1230/125 125/1161/125
f 126/1229/25 125/1161/25 127/1160/25
f 128/1227/124 130/1228/124 131/1159/124
f 128/1227/23 131/1159/23 129/1158/23
f 129/942/116 131/1003/116 127/1004/116
f 129/942/24 127/1004/24 125/946/24
f 130/1107/126 126/1106/126 127/1057/126
f 130/1107/38 127/1057/38 131/1056/38
f 14/1225/117 12/1226/117 13/1157/117
f 14/1225/25 13/1157/25 15/1156/25
f 14/380/3 19/383/3 18/379/3
f 140/1076/130 145/1077/130 147/1031/130
f 140/1076/42 147/1031/42 141/1030/42
f 140/433/127 142/505/127 148/507/127
f 140/433/39 148/507/39 145/435/39
f 141/198/2 147/195/2 146/199/2
f 142/20/125 140/21/125 141/4/125
f 142/20/33 141/4/33 144/3/33
f 143/249/35 144/253/35 141/198/35
f 145/1184/124 148/1185/124 149/1133/124
f 145/1184/31 149/1133/31 147/1132/31
f 146/199/121 149/251/121 143/249/121
f 146/199/32 143/249/32 141/198/32
f 146/199/36 147/195/36 149/251/36
f 148/1136/128 142/1137/128 144/1091/128
f 148/1136/40 144/1091/40 149/1090/40
f 149/251/1 144/253/1 143/249/1
f 16/1231/115 19/1232/115 20/1163/115
f 16/1231/23 20/1163/23 17/1162/23
f 16/338/5 12/336/5 11/342/5
f 160/993/119 163/1044/119 167/1042/119
f 160/993/27 167/1042/27 165/989/27
f 160/993/28 161/985/28 163/1044/28
f 161/1138/114 165/1139/114 166/1093/114
f 161/1138/22 166/1093/22 162/1092/22
f 163/1044/3 168/1048/3 167/1042/3
f 163/111/117 161/112/117 162/96/117
f 163/111/25 162/96/25 164/95/25
f 165/87/115 168/88/115 169/75/115
f 165/87/23 169/75/23 166/74/23
f 165/989/5 161/985/5 160/993/5
f 166/986/116 169/1043/116 164/1046/116
f 166/986/24 164/1046/24 162/988/24
f 167/1042/29 168/1048/29 165/989/29
f 168/1142/118 163/1143/118 164/1097/118
f 168/1142/26 164/1097/26 169/1096/26
f 17/587/116 20/651/116 15/653/116
f 17/587/24 15/653/24 13/594/24
f 18/379/29 19/383/29 16/338/29
f 19/1146/118 14/1147/118 15/1101/118
f 19/1146/26 15/1101/26 20/1100/26
f 320/292/10 331/320/10 321/321/10
f 320/292/106 330/291/106 331/320/106
f 320/526/97 322/517/97 324/513/97
f 321/270/96 329/262/96 325/301/96
f 321/270/96 331/263/96 329/262/96
f 322/293/107 320/292/107 321/321/107
f 322/293/11 321/321/11 323/322/11
f 324/220/178 322/221/178 323/207/178
f 324/220/92 323/207/92 325/206/92
f 324/513/97 326/524/97 328/549/97
f 324/513/97 328/549/97 320/526/97
f 325/301/96 323/299/96 321/270/96
f 326/219/179 324/220/179 325/206/179
f 326/219/93 325/206/93 327/205/93
f 328/392/180 326/391/180 327/401/180
f 328/392/94 327/401/94 329/402/94
f 328/549/97 330/560/97 320/526/97
f 329/262/96 327/271/96 325/301/96
f 33/1103/123 37/1102/123 38/1055/123
f 33/1103/37 38/1055/37 34/1054/37
f 33/691/127 35/794/127 39/795/127
f 33/691/39 39/795/39 37/692/39
f 330/209/181 328/208/181 329/222/181
f 330/209/95 329/222/95 331/223/95
f 332/657/10 343/662/10 333/663/10
f 332/657/106 342/656/106 343/662/106
f 332/704/97 334/715/97 336/729/97
f 333/632/96 341/617/96 337/622/96
f 333/632/96 343/623/96 341/617/96
f 334/658/107 332/657/107 333/663/107
f 334/658/11 333/663/11 335/664/11
f 336/225/178 334/226/178 335/212/178
f 336/225/92 335/212/92 337/211/92
f 336/729/97 338/734/97 340/737/97
f 336/729/97 340/737/97 332/704/97
f 337/622/96 335/624/96 333/632/96
f 338/224/179 336/225/179 337/211/179
f 338/224/93 337/211/93 339/210/93
f 340/148/180 338/147/180 339/163/180
f 340/148/94 339/163/94 341/164/94
f 340/737/97 342/720/97 332/704/97
f 341/617/96 339/616/96 337/622/96
f 342/214/181 340/213/181 341/227/181
f 342/214/95 341/227/95 343/228/95
f 35/1223/125 33/1224/125 34/1155/125
f 35/1223/25 34/1155/25 36/1154/25
f 352/265/97 354/260/97 356/269/97
f 352/394/10 363/403/10 353/404/10
f 352/394/106 362/393/106 363/403/106
f 354/395/107 352/394/107 353/404/107
f 354/395/11 353/404/11 355/405/11
f 355/451/96 353/450/96 363/446/96
f 356/269/97 358/297/97 360/300/97
f 356/269/97 360/300/97 352/265/97
f 356/785/182 354/786/182 355/777/182
f 356/785/98 355/777/98 357/776/98
f 358/660/183 356/659/183 357/665/183
f 358/660/99 357/665/99 359/666/99
f 359/437/96 357/449/96 355/451/96
f 360/277/100 359/303/100 361/304/100
f 360/277/184 358/276/184 359/303/184
f 360/300/97 362/273/97 352/265/97
f 362/278/101 361/304/101 363/305/101
f 362/278/185 360/277/185 361/304/185
f 363/446/96 359/437/96 355/451/96
f 363/446/96 361/422/96 359/437/96
f 364/150/10 375/165/10 365/166/10
f 364/150/106 374/149/106 375/165/106
f 364/510/97 366/516/97 368/527/97
f 366/151/107 364/150/107 365/166/107
f 366/151/11 365/166/11 367/167/11
f 367/880/96 365/887/96 375/870/96
f 368/527/97 370/571/97 372/546/97
f 368/527/97 372/546/97 364/510/97
f 368/550/182 366/551/182 367/532/182
f 368/550/98 367/532/98 369/531/98
f 37/1219/124 39/1220/124 40/1151/124
f 37/1219/23 40/1151/23 38/1150/23
f 370/1191/183 368/1190/183 369/1200/183
f 370/1191/99 369/1200/99 371/1201/99
f 371/832/96 369/844/96 367/880/96
f 372/546/97 374/525/97 364/510/97
f 372/779/100 371/787/100 373/788/100
f 372/779/184 370/778/184 371/787/184
f 374/780/101 373/788/101 375/789/101
f 374/780/185 372/779/185 373/788/185
f 375/870/96 371/832/96 367/880/96
f 375/870/96 373/840/96 371/832/96
f 38/196/116 40/250/116 36/252/116
f 38/196/24 36/252/24 34/197/24
f 384/153/10 395/168/10 385/169/10
f 384/153/106 394/152/106 395/168/106
f 384/202/97 386/200/97 388/194/97
f 386/154/107 384/153/107 385/169/107
f 386/154/11 385/169/11 387/170/11
f 387/378/96 385/373/96 395/365/96
f 388/194/97 389/201/97 391/229/97
f 388/194/97 391/229/97 384/202/97
f 388/307/102 387/280/102 390/279/102
f 388/307/178 386/308/178 387/280/178
f 39/248/126 35/247/126 36/191/126
f 39/248/38 36/191/38 40/190/38
f 390/243/103 392/244/103 389/239/103
f 390/279/13 389/306/13 388/307/13
f 391/229/97 394/230/97 384/202/97
f 392/244/14 391/240/14 389/239/14
f 392/370/96 390/377/96 387/378/96
f 392/552/104 393/553/104 391/533/104
f 394/534/101 393/553/101 395/554/101
f 394/534/186 391/533/186 393/553/186
f 395/365/96 392/370/96 387/378/96
f 395/365/96 393/364/96 392/370/96
f 396/1222/97 398/1214/97 400/1221/97
f 396/475/10 407/477/10 397/478/10
f 396/475/106 406/474/106 407/477/106
f 398/476/107 396/475/107 397/478/107
f 398/476/11 397/478/11 399/479/11
f 399/274/96 397/267/96 407/261/96
f 400/1221/97 401/1241/97 403/1267/97
f 400/1221/97 403/1267/97 396/1222/97
f 400/310/102 399/282/102 402/281/102
f 400/310/178 398/311/178 399/282/178
f 402/281/13 401/309/13 400/310/13
f 402/520/103 404/521/103 401/514/103
f 403/1267/97 406/1245/97 396/1222/97
f 404/272/96 402/302/96 399/274/96
f 404/521/14 403/515/14 401/514/14
f 404/555/104 405/556/104 403/535/104
f 406/536/101 405/556/101 407/557/101
f 406/536/186 403/535/186 405/556/186
f 407/261/96 404/272/96 399/274/96
f 407/261/96 405/266/96 404/272/96
f 416/1237/10 427/1248/10 417/1249/10
f 416/1237/106 426/1236/106 427/1248/106
f 416/1251/97 418/1235/97 420/1215/97
f 417/519/96 425/523/96 421/573/96
f 417/519/96 427/512/96 425/523/96
f 418/1238/107 416/1237/107 417/1249/107
f 418/1238/11 417/1249/11 419/1250/11
f 420/1215/97 422/1218/97 424/1242/97
f 420/1215/97 424/1242/97 416/1251/97
f 420/313/178 418/314/178 419/285/178
f 420/313/92 419/285/92 421/284/92
f 421/573/96 419/544/96 417/519/96
f 422/312/179 420/313/179 421/284/179
f 422/312/93 421/284/93 423/283/93
f 424/1242/97 426/1268/97 416/1251/97
f 424/816/180 422/815/180 423/821/180
f 424/816/94 423/821/94 425/822/94
f 425/523/96 423/548/96 421/573/96
f 426/538/181 424/537/181 425/558/181
f 426/538/95 425/558/95 427/559/95
f 428/572/97 430/543/97 432/518/97
f 428/842/10 439/855/10 429/856/10
f 428/842/106 438/841/106 439/855/106
f 429/833/96 437/866/96 433/875/96
f 429/833/96 439/838/96 437/866/96
f 430/843/107 428/842/107 429/856/107
f 430/843/11 429/856/11 431/857/11
f 432/316/178 430/317/178 431/288/178
f 432/316/92 431/288/92 433/287/92
f 432/518/97 434/511/97 436/522/97
f 432/518/97 436/522/97 428/572/97
f 433/875/96 431/848/96 429/833/96
f 434/315/179 432/316/179 433/287/179
f 434/315/93 433/287/93 435/286/93
f 436/1255/180 434/1254/180 435/1273/180
f 436/1255/94 435/1273/94 437/1274/94
f 436/522/97 438/547/97 428/572/97
f 437/866/96 435/888/96 433/875/96
f 438/388/181 436/387/181 437/397/181
f 438/388/95 437/397/95 439/398/95
f 448/1257/10 459/1275/10 449/1276/10
f 448/1257/106 458/1256/106 459/1275/106
f 448/347/97 450/344/97 452/340/97
f 450/1258/107 448/1257/107 449/1276/107
f 450/1258/11 449/1276/11 451/1277/11
f 451/661/96 449/646/96 459/634/96
f 452/318/182 450/319/182 451/290/182
f 452/318/98 451/290/98 453/289/98
f 452/340/97 454/350/97 456/356/97
f 452/340/97 456/356/97 448/347/97
f 454/6/183 452/5/183 453/10/183
f 454/6/99 453/10/99 455/11/99
f 455/643/96 453/655/96 451/661/96
f 456/142/100 455/157/100 457/158/100
f 456/142/184 454/141/184 455/157/184
f 456/356/97 458/355/97 448/347/97
f 458/143/101 457/158/101 459/159/101
f 458/143/185 456/142/185 457/158/185
f 459/634/96 455/643/96 451/661/96
f 459/634/96 457/629/96 455/643/96
f 460/13/10 471/15/10 461/16/10
f 460/13/106 470/12/106 471/15/106
f 460/886/97 462/869/97 464/839/97
f 462/14/107 460/13/107 461/16/107
f 462/14/11 461/16/11 463/17/11
f 463/847/96 461/831/96 471/836/96
f 464/399/182 462/400/182 463/390/182
f 464/399/98 463/390/98 465/389/98
f 464/839/97 466/837/97 468/854/97
f 464/839/97 468/854/97 460/886/97
f 466/23/183 464/22/183 465/24/183
f 466/23/99 465/24/99 467/25/99
f 467/878/96 465/881/96 463/847/96
f 468/145/100 467/160/100 469/161/100
f 468/145/187 466/144/187 467/160/187
f 468/854/97 470/879/97 460/886/97
f 470/146/101 469/161/101 471/162/101
f 470/146/185 468/145/185 469/161/185
f 471/836/96 467/878/96 463/847/96
f 471/836/96 469/853/96 467/878/96
f 49/921/129 52/965/129 58/968/129
f 49/921/28 50/915/28 52/965/28
f 49/921/41 58/968/41 55/918/41
f 50/85/120 55/86/120 57/73/120
f 50/85/30 57/73/30 51/72/30
f 51/904/2 57/901/2 56/905/2
f 52/1114/117 50/1115/117 51/1068/117
f 52/1114/33 51/1068/33 54/1067/33
f 53/956/35 54/960/35 51/904/35
f 55/1050/124 58/1051/124 59/1011/124
f 55/1050/31 59/1011/31 57/1010/31
f 55/918/5 50/915/5 49/921/5
f 56/905/121 59/958/121 53/956/121
f 56/905/32 53/956/32 51/904/32
f 56/905/36 57/901/36 59/958/36
f 58/109/128 52/110/128 54/94/128
f 58/109/40 54/94/40 59/93/40
f 59/958/1 54/960/1 53/956/1
f 70/703/119 73/807/119 77/806/119
f 70/703/27 77/806/27 75/702/27
f 70/703/28 71/701/28 73/807/28
f 71/135/114 75/136/114 76/118/114
f 71/135/22 76/118/22 72/117/22
f 73/1176/117 71/1177/117 72/1125/117
f 73/1176/25 72/1125/25 74/1124/25
f 73/807/3 78/808/3 77/806/3
f 75/245/115 78/246/115 79/193/115
f 75/245/23 79/193/23 76/192/23
f 75/702/5 71/701/5 70/703/5
f 76/917/116 79/967/116 74/969/116
f 76/917/24 74/969/24 72/920/24
f 77/806/29 78/808/29 75/702/29
f 78/1134/118 73/1135/118 74/1089/118
f 78/1134/26 74/1089/26 79/1088/26
usemtl Racing_kerb_white
f 112/1020/119 115/1083/119 121/1084/119
f 112/1020/27 121/1084/27 118/1021/27
f 112/1020/28 113/1019/28 115/1083/28
f 113/633/120 118/635/120 120/603/120
f 113/633/30 120/603/30 114/599/30
f 114/599/2 120/603/2 119/581/2
f 115/1306/117 113/1307/117 114/1189/117
f 115/1306/33 114/1189/33 117/1188/33
f 115/372/3 122/371/3 121/374/3
f 116/1081/35 117/1082/35 114/1018/35
f 118/635/5 113/633/5 112/638/5
f 118/774/115 122/775/115 123/696/115
f 118/774/31 123/696/31 120/695/31
f 119/1017/121 123/1080/121 116/1081/121
f 119/1017/32 116/1081/32 114/1018/32
f 119/1017/36 120/1016/36 123/1080/36
f 121/1084/29 122/1085/29 118/1021/29
f 122/371/122 115/372/122 117/343/122
f 122/371/34 117/343/34 123/341/34
f 123/341/1 117/343/1 116/333/1
f 132/337/127 134/381/127 138/382/127
f 132/337/39 138/382/39 136/339/39
f 132/952/123 136/953/123 137/912/123
f 132/952/37 137/912/37 133/911/37
f 134/1182/125 132/1183/125 133/1131/125
f 134/1182/25 133/1131/25 135/1130/25
f 136/480/124 138/481/124 139/421/124
f 136/480/23 139/421/23 137/420/23
f 137/950/116 139/1008/116 135/1009/116
f 137/950/24 135/1009/24 133/951/24
f 138/1012/126 134/1013/126 135/972/126
f 138/1012/38 135/972/38 139/971/38
f 150/368/130 155/369/130 157/335/130
f 150/368/42 157/335/42 151/334/42
f 150/981/127 152/1039/127 158/1040/127
f 150/981/39 158/1040/39 155/983/39
f 151/982/2 157/980/2 156/984/2
f 152/67/125 150/68/125 151/54/125
f 152/67/33 151/54/33 154/53/33
f 153/1037/35 154/1041/35 151/982/35
f 155/46/124 158/47/124 159/32/124
f 155/46/31 159/32/31 157/31/31
f 156/984/121 159/1038/121 153/1037/121
f 156/984/32 153/1037/32 151/982/32
f 156/984/36 157/980/36 159/1038/36
f 158/18/128 152/19/128 154/2/128
f 158/18/40 154/2/40 159/1/40
f 159/1038/1 154/1041/1 153/1037/1
f 170/996/119 173/1052/119 177/1049/119
f 170/996/27 177/1049/27 175/995/27
f 170/996/28 171/994/28 173/1052/28
f 171/1110/114 175/1111/114 176/1063/114
f 171/1110/22 176/1063/22 172/1062/22
f 173/1052/3 178/1053/3 177/1049/3
f 173/1216/117 171/1217/117 172/1149/117
f 173/1216/25 172/1149/25 174/1148/25
f 175/137/115 178/138/115 179/120/115
f 175/137/23 179/120/23 176/119/23
f 175/995/5 171/994/5 170/996/5
f 176/987/116 179/1045/116 174/1047/116
f 176/987/24 174/1047/24 172/990/24
f 177/1049/29 178/1053/29 175/995/29
f 178/1112/118 173/1113/118 174/1065/118
f 178/1112/26 174/1065/26 179/1064/26
f 21/978/119 24/1034/119 30/1035/119
f 21/978/27 30/1035/27 27/979/27
f 21/978/28 22/977/28 24/1034/28
f 22/1066/120 27/1069/120 29/1026/120
f 22/1066/30 29/1026/30 23/1025/30
f 23/1025/2 29/1026/2 28/1024/2
f 24/1074/3 31/1073/3 30/1075/3
f 24/1140/117 22/1141/117 23/1095/117
f 24/1140/33 23/1095/33 26/1094/33
f 25/962/35 26/963/35 23/910/35
f 27/1069/5 22/1066/5 21/1072/5
f 27/1078/115 31/1079/115 32/1033/115
f 27/1078/31 32/1033/31 29/1032/31
f 28/909/121 32/961/121 25/962/121
f 28/909/32 25/962/32 23/910/32
f 28/909/36 29/908/36 32/961/36
f 30/1035/29 31/1036/29 27/979/29
f 31/1073/122 24/1074/122 26/1029/122
f 31/1073/34 26/1029/34 32/1028/34
f 32/1028/1 26/1029/1 25/1027/1
f 41/44/123 45/45/123 46/30/123
f 41/44/37 46/30/37 42/29/37
f 41/902/127 43/957/127 47/959/127
f 41/902/39 47/959/39 45/903/39
f 43/991/125 41/992/125 42/938/125
f 43/991/25 42/938/25 44/937/25
f 45/742/124 47/743/124 48/670/124
f 45/742/23 48/670/23 46/669/23
f 46/432/116 48/504/116 44/506/116
f 46/432/24 44/506/24 42/434/24
f 47/65/126 43/66/126 44/52/126
f 47/65/38 44/52/38 48/51/38
f 60/1116/130 65/1117/130 67/1071/130
f 60/1116/42 67/1071/42 61/1070/42
f 60/923/127 62/975/127 68/976/127
f 60/923/39 68/976/39 65/924/39
f 61/919/2 67/916/2 66/922/2
f 62/1174/125 60/1175/125 61/1123/125
f 62/1174/33 61/1123/33 64/1122/33
f 63/964/35 64/970/35 61/919/35
f 65/1170/124 68/1171/124 69/1121/124
f 65/1170/31 69/1121/31 67/1120/31
f 66/922/121 69/966/121 63/964/121
f 66/922/32 63/964/32 61/919/32
f 66/922/36 67/916/36 69/966/36
f 68/1168/128 62/1169/128 64/1119/128
f 68/1168/40 64/1119/40 69/1118/40
f 69/966/1 64/970/1 63/964/1
f 80/947/119 83/1000/119 87/997/119
f 80/947/27 87/997/27 85/943/27
f 80/947/28 81/939/28 83/1000/28
f 81/1104/114 85/1105/114 86/1059/114
f 81/1104/22 86/1059/22 82/1058/22
f 83/1000/3 88/1005/3 87/997/3
f 83/1180/117 81/1181/117 82/1129/117
f 83/1180/25 82/1129/25 84/1128/25
f 85/1178/115 88/1179/115 89/1127/115
f 85/1178/23 89/1127/23 86/1126/23
f 85/943/5 81/939/5 80/947/5
f 86/588/116 89/652/116 84/654/116
f 86/588/24 84/654/24 82/595/24
f 87/997/29 88/1005/29 85/943/29
f 88/1108/118 83/1109/118 84/1061/118
f 88/1108/26 84/1061/26 89/1060/26
usemtl Racing_kerb_white_steel
f 180/37/136 183/49/136 189/48/136
f 180/37/48 189/48/48 186/36/48
f 180/37/49 181/35/49 183/49/49
f 181/107/131 186/108/131 188/104/131
f 181/107/43 188/104/43 182/103/43
f 182/8/9 188/7/9 187/9/9
f 183/49/6 190/50/6 189/48/6
f 183/825/134 181/826/134 182/805/134
f 183/825/46 182/805/46 185/804/46
f 184/26/50 185/28/50 182/8/50
f 186/188/132 190/189/132 191/177/132
f 186/188/44 191/177/44 188/176/44
f 186/36/8 181/35/8 180/37/8
f 187/9/133 191/27/133 184/26/133
f 187/9/45 184/26/45 182/8/45
f 187/9/52 188/7/52 191/27/52
f 189/48/51 190/50/51 186/36/51
f 190/123/135 183/124/135 185/116/135
f 190/123/47 185/116/47 191/115/47
f 191/27/7 185/28/7 184/26/7
f 192/132/137 196/133/137 197/128/137
f 192/132/53 197/128/53 193/127/53
f 192/81/142 194/99/142 198/100/142
f 192/81/58 198/100/58 196/82/58
f 194/925/140 192/926/140 193/907/140
f 194/925/56 193/907/56 195/906/56
f 196/876/138 198/877/138 199/846/138
f 196/876/54 199/846/54 197/845/54
f 197/59/139 199/77/139 195/78/139
f 197/59/55 195/78/55 193/60/55
f 198/171/141 194/172/141 195/140/141
f 198/171/57 195/140/57 199/139/57
f 200/42/148 202/43/148 206/41/148
f 200/42/64 206/41/64 204/40/64
f 202/686/146 200/672/146 201/671/146
f 202/686/62 201/671/62 203/685/62
f 202/753/147 203/752/147 207/764/147
f 202/753/63 207/764/63 206/765/63
f 204/650/144 206/640/144 207/639/144
f 204/650/60 207/639/60 205/649/60
f 204/751/143 205/750/143 201/762/143
f 204/751/59 201/762/59 200/763/59
f 205/38/145 207/39/145 203/34/145
f 205/38/61 203/34/61 201/33/61
f 208/1187/154 210/1186/154 214/1192/154
f 208/1187/70 214/1192/70 212/1193/70
f 210/259/152 208/264/152 209/268/152
f 210/259/68 209/268/68 211/258/68
f 210/427/153 211/430/153 215/442/153
f 210/427/69 215/442/69 214/440/69
f 212/242/150 214/237/150 215/238/150
f 212/242/66 215/238/66 213/241/66
f 212/426/149 213/424/149 209/441/149
f 212/426/65 209/441/65 208/439/65
f 213/1164/151 215/1167/151 211/1153/151
f 213/1164/67 211/1153/67 209/1152/67
f 216/63/148 218/64/148 222/62/148
f 216/63/71 222/62/71 220/61/71
f 218/473/146 216/461/146 217/460/146
f 218/473/62 217/460/62 219/472/62
f 218/759/147 219/758/147 223/768/147
f 218/759/63 223/768/63 222/769/63
f 220/448/144 222/425/144 223/423/144
f 220/448/60 223/423/60 221/447/60
f 220/755/143 221/754/143 217/766/143
f 220/755/59 217/766/59 216/767/59
f 221/57/145 223/58/145 219/56/145
f 221/57/61 219/56/61 217/55/61
f 224/1294/160 226/1295/160 230/1272/160
f 224/1294/77 230/1272/77 228/1271/77
f 226/325/158 224/328/158 225/327/158
f 226/325/75 225/327/75 227/326/75
f 226/528/159 227/540/159 231/563/159
f 226/528/76 231/563/76 230/567/76
f 228/462/156 230/459/156 231/455/156
f 228/462/73 231/455/73 229/468/73
f 228/488/155 229/492/155 225/503/155
f 228/488/72 225/503/72 224/499/72
f 229/1234/157 231/1233/157 227/1239/157
f 229/1234/74 227/1239/74 225/1240/74
f 232/83/148 234/84/148 238/80/148
f 232/83/71 238/80/71 236/79/71
f 234/688/146 232/684/146 233/683/146
f 234/688/62 233/683/62 235/687/62
f 234/739/147 235/738/147 239/746/147
f 234/739/63 239/746/63 238/747/63
f 236/509/144 238/495/144 239/494/144
f 236/509/60 239/494/60 237/508/60
f 236/690/143 237/689/143 233/705/143
f 236/690/59 233/705/59 232/706/59
f 237/71/145 239/76/145 235/70/145
f 237/71/78 235/70/78 233/69/78
f 240/631/162 242/630/162 246/641/162
f 240/631/70 246/641/70 244/642/70
f 242/349/152 240/353/152 241/354/152
f 242/349/68 241/354/68 243/348/68
f 242/452/153 243/456/153 247/465/153
f 242/452/69 247/465/69 246/463/69
f 244/428/149 245/431/149 241/443/149
f 244/428/65 241/443/65 240/445/65
f 244/500/150 246/489/150 247/493/150
f 244/500/66 247/493/66 245/496/66
f 245/1288/161 247/1293/161 243/1270/161
f 245/1288/67 243/1270/67 241/1269/67
f 248/1196/148 250/1210/148 254/1211/148
f 248/1196/71 254/1211/71 252/1197/71
f 250/725/146 248/711/146 249/707/146
f 250/725/62 249/707/62 251/721/62
f 250/749/147 251/748/147 255/760/147
f 250/749/63 255/760/63 254/761/63
f 252/407/143 253/406/143 249/412/143
f 252/407/59 249/412/59 248/413/59
f 252/717/144 254/698/144 255/697/144
f 252/717/60 255/697/60 253/716/60
f 253/1165/145 255/1172/145 251/1173/145
f 253/1165/78 251/1173/78 249/1166/78
f 256/1300/160 258/1301/160 262/1290/160
f 256/1300/77 262/1290/77 260/1286/77
f 258/454/159 259/458/159 263/467/159
f 258/454/76 263/467/76 262/469/76
f 258/539/158 256/566/158 257/561/158
f 258/539/75 257/561/75 259/545/75
f 260/366/156 262/363/156 263/362/156
f 260/366/73 263/362/73 261/367/73
f 260/453/155 261/457/155 257/466/155
f 260/453/72 257/466/72 256/464/72
f 261/156/163 263/155/163 259/173/163
f 261/156/74 259/173/74 257/174/74
f 264/101/148 266/102/148 270/98/148
f 264/101/71 270/98/71 268/97/71
f 266/727/146 264/713/146 265/709/146
f 266/727/62 265/709/62 267/723/62
f 266/784/147 267/783/147 271/792/147
f 266/784/63 271/792/63 270/793/63
f 268/726/144 270/712/144 271/708/144
f 268/726/60 271/708/60 269/722/60
f 268/771/143 269/770/143 265/781/143
f 268/771/59 265/781/59 264/782/59
f 269/91/145 271/92/145 267/90/145
f 269/91/78 267/90/78 265/89/78
f 272/1291/162 274/1287/162 278/1302/162
f 272/1291/70 278/1302/70 276/1303/70
f 274/530/153 275/542/153 279/565/153
f 274/530/69 279/565/69 278/562/69
f 274/597/152 272/604/152 273/607/152
f 274/597/68 273/607/68 275/586/68
f 276/396/150 278/384/150 279/385/150
f 276/396/66 279/385/66 277/386/66
f 276/529/149 277/541/149 273/564/149
f 276/529/65 273/564/65 272/568/65
f 277/1296/161 279/1299/161 275/1281/161
f 277/1296/79 275/1281/79 273/1280/79
f 280/125/148 282/126/148 286/122/148
f 280/125/71 286/122/71 284/121/71
f 282/609/147 283/608/147 287/620/147
f 282/609/63 287/620/63 286/621/63
f 282/733/146 280/719/146 281/718/146
f 282/733/62 281/718/62 283/732/62
f 284/580/143 285/579/143 281/605/143
f 284/580/59 281/605/59 280/606/59
f 284/728/144 286/714/144 287/710/144
f 284/728/60 287/710/60 285/724/60
f 285/113/164 287/114/164 283/106/164
f 285/113/61 283/106/61 281/105/61
f 288/1304/165 290/1305/165 294/1292/165
f 288/1304/77 294/1292/77 292/1289/77
f 290/429/158 288/444/158 289/438/158
f 290/429/75 289/438/75 291/436/75
f 290/487/159 291/486/159 295/502/159
f 290/487/76 295/502/76 294/498/76
f 292/186/156 294/181/156 295/180/156
f 292/186/73 295/180/73 293/187/73
f 292/490/155 293/491/155 289/501/155
f 292/490/72 289/501/72 288/497/72
f 293/1283/157 295/1282/157 291/1297/157
f 293/1283/80 291/1297/80 289/1298/80
f 296/1284/166 298/1285/166 302/1253/166
f 296/1284/71 302/1253/71 300/1252/71
f 298/757/146 296/745/146 297/744/146
f 298/757/62 297/744/62 299/756/62
f 298/791/147 299/790/147 303/809/147
f 298/791/63 303/809/63 302/810/63
f 300/637/143 301/636/143 297/647/143
f 300/637/59 297/647/59 296/648/59
f 300/736/144 302/731/144 303/730/144
f 300/736/60 303/730/60 301/735/60
f 301/131/164 303/134/164 299/130/164
f 301/131/78 299/130/78 297/129/78
usemtl Racing_sponsor_cyan
f 304/203/172 306/217/172 310/218/172
f 304/203/86 310/218/86 308/204/86
f 304/329/167 308/330/167 309/234/167
f 304/329/81 309/234/81 305/233/81
f 306/324/170 304/295/170 305/294/170
f 306/324/84 305/294/84 307/323/84
f 308/411/168 310/409/168 311/408/168
f 308/411/82 311/408/82 309/410/82
f 309/178/169 311/184/169 307/185/169
f 309/178/83 307/185/83 305/179/83
f 310/414/171 306/415/171 307/352/171
f 310/414/85 307/352/85 311/351/85
