# Blender 4.0.2
# www.blender.org
mtllib traffic_cone_collision.mtl
o traffic_cone_collision
v 0.190000 0.000000 -0.190000
v 0.190000 0.020000 -0.210000
v 0.210000 0.020000 -0.190000
v 0.190000 0.030000 -0.210000
v 0.210000 0.030000 -0.190000
v 0.190000 0.000000 0.190000
v 0.210000 0.020000 0.190000
v 0.190000 0.020000 0.210000
v 0.190000 0.030000 0.210000
v 0.210000 0.030000 0.190000
v -0.190000 0.000000 -0.190000
v -0.210000 0.020000 -0.190000
v -0.190000 0.020000 -0.210000
v -0.190000 0.030000 -0.210000
v -0.210000 0.030000 -0.190000
v -0.190000 0.000000 0.190000
v -0.190000 0.020000 0.210000
v -0.210000 0.020000 0.190000
v -0.210000 0.030000 0.190000
v -0.190000 0.030000 0.210000
v 0.000000 0.700000 0.024485
v 0.000000 0.690139 0.036745
v -0.014392 0.700000 0.019809
v -0.021598 0.690139 0.029727
v -0.023287 0.700000 0.007566
v -0.034946 0.690139 0.011355
v -0.023287 0.700000 -0.007566
v -0.034946 0.690139 -0.011355
v -0.014392 0.700000 -0.019809
v -0.021598 0.690139 -0.029727
v 0.000000 0.700000 -0.024485
v -0.000000 0.690139 -0.036745
v 0.014392 0.700000 -0.019809
v 0.021598 0.690139 -0.029727
v 0.023287 0.700000 -0.007566
v 0.034946 0.690139 -0.011355
v 0.023287 0.700000 0.007566
v 0.034946 0.690139 0.011355
v 0.014392 0.700000 0.019809
v 0.021598 0.690139 0.029727
vn -1.0000 -0.0000 -0.0000
vn -0.7071 -0.0000 0.7071
vn -0.6624 0.3499 0.6624
vn -0.7579 0.3500 0.5506
vn -0.9666 0.2563 -0.0000
vn -0.7071 -0.0000 -0.7071
vn -0.7579 0.3500 -0.5506
vn -0.6624 0.3499 -0.6624
vn -0.7071 -0.7071 -0.0000
vn -0.5774 -0.5774 0.5773
vn -0.0000 -0.0000 1.0000
vn -0.0000 0.2539 0.9672
vn -0.2927 0.3207 0.9008
vn -0.1996 0.7635 0.6142
vn -0.5224 0.7635 0.3796
vn -0.5225 0.7635 0.3796
vn -0.6458 0.7635 -0.0000
vn -0.0000 -0.0000 -1.0000
vn -0.2927 0.3207 -0.9008
vn -0.0000 0.2539 -0.9672
vn -0.5774 -0.5774 -0.5774
vn -0.5225 0.7635 -0.3796
vn -0.1996 0.7635 -0.6142
vn -0.0000 -1.0000 -0.0000
vn -0.0000 -0.7071 0.7071
vn 0.7071 -0.0000 0.7071
vn 0.6624 0.3499 0.6624
vn 0.2927 0.3207 0.9008
vn 0.1996 0.7635 0.6142
vn -0.0000 1.0000 -0.0000
vn 0.7071 -0.0000 -0.7071
vn 0.2927 0.3207 -0.9008
vn 0.6624 0.3499 -0.6624
vn -0.0000 -0.7071 -0.7071
vn 0.1996 0.7635 -0.6142
vn 0.5774 -0.5774 0.5773
vn 0.7071 -0.7071 -0.0000
vn 0.7579 0.3500 0.5506
vn 1.0000 -0.0000 -0.0000
vn 0.9666 0.2563 -0.0000
vn 0.5225 0.7635 0.3796
vn 0.7579 0.3500 -0.5506
vn 0.5774 -0.5774 -0.5774
vn 0.5224 0.7635 -0.3796
vn 0.5225 0.7635 -0.3796
vn 0.6458 0.7635 -0.0000
vt 0.00000 0.49088
vt 0.00000 0.51819
vt 0.00000 0.79316
vt 0.01577 0.49355
vt 0.01577 0.50066
vt 0.01577 0.50372
vt 0.01577 0.51819
vt 0.01577 0.79316
vt 0.01577 0.80763
vt 0.14853 0.00000
vt 0.16555 0.00094
vt 0.18258 0.00000
vt 0.31534 0.49355
vt 0.31534 0.50066
vt 0.31534 0.50372
vt 0.31534 0.51819
vt 0.31534 0.79316
vt 0.31534 0.80763
vt 0.33111 0.49088
vt 0.33111 0.51819
vt 0.33111 0.79316
vt 0.33445 0.49088
vt 0.33445 0.52209
vt 0.33445 0.53853
vt 0.34364 0.52484
vt 0.34364 0.53578
vt 0.34497 0.50880
vt 0.34497 0.55182
vt 0.35021 0.49355
vt 0.35021 0.50066
vt 0.35065 0.51598
vt 0.35065 0.54464
vt 0.36200 0.50372
vt 0.36200 0.51259
vt 0.36200 0.54803
vt 0.36200 0.55690
vt 0.37334 0.51598
vt 0.37334 0.54464
vt 0.37902 0.50880
vt 0.37902 0.55182
vt 0.38035 0.52484
vt 0.38035 0.53578
vt 0.38955 0.52209
vt 0.38955 0.53853
vt 0.48297 0.00000
vt 0.50000 0.00094
vt 0.51703 0.00000
vt 0.64979 0.49355
vt 0.64979 0.50066
vt 0.66555 0.49088
vt 0.66889 0.48942
vt 0.66889 0.49660
vt 0.66889 0.99095
vt 0.66889 0.99813
vt 0.68466 0.49129
vt 0.68466 0.49847
vt 0.68466 0.99282
vt 0.68466 1.00000
vt 0.81101 0.00000
vt 0.81101 0.50153
vt 0.82549 0.00125
vt 0.82549 0.50278
vt 0.84340 0.00125
vt 0.84340 0.50278
vt 0.85788 0.00000
vt 0.85788 0.50153
vt 0.98423 0.49129
vt 0.98423 0.49847
vt 0.98423 0.99282
vt 0.98423 1.00000
vt 1.00000 0.48942
vt 1.00000 0.49660
vt 1.00000 0.99095
vt 1.00000 0.99813
s 0
usemtl Racing_collision
f 1/7/37 3/6/37 7/15/37
f 1/7/37 7/15/37 6/16/37
f 10/1/27 40/10/27 9/4/27
f 11/8/24 1/7/24 6/16/24
f 11/8/24 6/16/24 16/17/24
f 12/9/9 11/8/9 16/17/9
f 12/9/9 16/17/9 18/18/9
f 13/3/21 11/8/21 12/9/21
f 14/71/6 12/68/6 15/67/6
f 14/71/6 13/72/6 12/68/6
f 15/67/1 12/68/1 18/56/1
f 15/67/1 18/56/1 19/55/1
f 16/17/10 17/21/10 18/18/10
f 17/14/11 8/5/11 9/4/11
f 17/14/11 9/4/11 20/13/11
f 18/56/2 17/52/2 20/51/2
f 18/56/2 20/51/2 19/55/2
f 2/2/34 1/7/34 11/8/34
f 2/2/34 11/8/34 13/3/34
f 20/13/3 24/12/3 19/19/3
f 21/26/14 23/32/14 24/28/14
f 22/11/13 24/12/13 20/13/13
f 22/24/14 21/26/14 24/28/14
f 23/32/15 25/35/15 24/28/15
f 24/59/4 26/61/4 19/55/4
f 25/35/16 26/36/16 24/28/16
f 25/35/17 27/38/17 28/40/17
f 25/35/17 28/40/17 26/36/17
f 26/61/5 15/67/5 19/55/5
f 26/61/5 28/63/5 15/67/5
f 27/38/22 29/42/22 30/44/22
f 27/38/22 30/44/22 28/40/22
f 28/63/7 30/65/7 15/67/7
f 29/42/23 31/41/23 30/44/23
f 3/6/43 1/7/43 2/2/43
f 30/45/19 32/46/19 14/29/19
f 30/45/8 14/29/8 15/22/8
f 31/41/23 32/43/23 30/44/23
f 31/41/35 34/39/35 32/43/35
f 32/46/20 4/48/20 14/29/20
f 32/46/32 34/47/32 4/48/32
f 33/37/35 34/39/35 31/41/35
f 33/37/44 35/34/44 34/39/44
f 34/47/33 5/50/33 4/48/33
f 34/60/42 36/62/42 5/57/42
f 35/34/45 36/33/45 34/39/45
f 36/33/46 35/34/46 37/31/46
f 36/33/46 37/31/46 38/27/46
f 37/31/41 39/25/41 40/23/41
f 38/27/41 37/31/41 40/23/41
f 38/64/38 40/66/38 10/69/38
f 39/25/30 23/32/30 21/26/30
f 39/25/30 25/35/30 23/32/30
f 39/25/30 27/38/30 25/35/30
f 39/25/30 29/42/30 27/38/30
f 39/25/30 31/41/30 29/42/30
f 39/25/30 33/37/30 31/41/30
f 39/25/30 35/34/30 33/37/30
f 39/25/30 37/31/30 35/34/30
f 4/48/18 13/30/18 14/29/18
f 4/48/18 2/49/18 13/30/18
f 40/10/28 22/11/28 9/4/28
f 40/23/29 21/26/29 22/24/29
f 40/23/29 39/25/29 21/26/29
f 5/57/31 2/54/31 4/53/31
f 5/57/31 3/58/31 2/54/31
f 5/57/40 36/62/40 38/64/40
f 5/57/40 38/64/40 10/69/40
f 6/16/25 17/21/25 16/17/25
f 6/16/25 8/20/25 17/21/25
f 7/15/36 8/20/36 6/16/36
f 7/70/39 3/58/39 5/57/39
f 7/70/39 5/57/39 10/69/39
f 8/74/26 10/69/26 9/73/26
f 8/74/26 7/70/26 10/69/26
f 9/4/12 22/11/12 20/13/12
