# Blender 4.0.2
# www.blender.org
mtllib tyre_stack.mtl
o tyre_stack
v -0.320000 0.030000 0.000000
v -0.289228 0.000000 0.000000
v -0.289228 0.300000 0.000000
v -0.320000 0.270000 0.000000
v -0.160000 0.270000 0.000000
v -0.190772 0.300000 0.000000
v -0.190772 0.000000 0.000000
v -0.160000 0.030000 0.000000
v -0.260586 0.000000 0.125492
v -0.288310 0.030000 0.138843
v -0.288310 0.270000 0.138843
v -0.260586 0.300000 0.125492
v -0.171879 0.300000 0.082773
v -0.144155 0.270000 0.069421
v -0.144155 0.030000 0.069421
v -0.171879 0.000000 0.082773
v -0.180331 0.000000 0.226128
v -0.199517 0.030000 0.250186
v -0.199517 0.270000 0.250186
v -0.180331 0.300000 0.226128
v -0.118944 0.300000 0.149151
v -0.099758 0.270000 0.125093
v -0.099758 0.030000 0.125093
v -0.118944 0.000000 0.149151
v -0.064359 0.000000 0.281977
v -0.071207 0.030000 0.311977
v -0.071207 0.270000 0.311977
v -0.064359 0.300000 0.281977
v -0.042451 0.300000 0.185988
v -0.035603 0.270000 0.155988
v -0.035603 0.030000 0.155988
v -0.042451 0.000000 0.185988
v 0.064359 0.000000 0.281977
v 0.071207 0.030000 0.311977
v 0.071207 0.270000 0.311977
v 0.064359 0.300000 0.281977
v 0.042451 0.300000 0.185988
v 0.035603 0.270000 0.155988
v 0.035603 0.030000 0.155988
v 0.042451 0.000000 0.185988
v 0.180331 0.000000 0.226128
v 0.199517 0.030000 0.250186
v 0.199517 0.270000 0.250186
v 0.180331 0.300000 0.226128
v 0.118944 0.300000 0.149151
v 0.099758 0.270000 0.125093
v 0.099758 0.030000 0.125093
v 0.118944 0.000000 0.149151
v 0.260586 0.000000 0.125492
v 0.288310 0.030000 0.138843
v 0.288310 0.270000 0.138843
v 0.260586 0.300000 0.125492
v 0.171879 0.300000 0.082773
v 0.144155 0.270000 0.069421
v 0.144155 0.030000 0.069421
v 0.171879 0.000000 0.082773
v 0.289228 0.000000 0.000000
v 0.320000 0.030000 0.000000
v 0.320000 0.270000 0.000000
v 0.289228 0.300000 0.000000
v 0.190772 0.300000 0.000000
v 0.160000 0.270000 0.000000
v 0.160000 0.030000 0.000000
v 0.190772 0.000000 0.000000
v 0.260586 0.000000 -0.125492
v 0.288310 0.030000 -0.138843
v 0.288310 0.270000 -0.138843
v 0.260586 0.300000 -0.125492
v 0.171879 0.300000 -0.082773
v 0.144155 0.270000 -0.069421
v 0.144155 0.030000 -0.069421
v 0.171879 0.000000 -0.082773
v 0.180331 0.000000 -0.226128
v 0.199517 0.030000 -0.250186
v 0.199517 0.270000 -0.250186
v 0.180331 0.300000 -0.226128
v 0.118944 0.300000 -0.149151
v 0.099758 0.270000 -0.125093
v 0.099758 0.030000 -0.125093
v 0.118944 0.000000 -0.149151
v 0.064359 0.000000 -0.281977
v 0.071207 0.030000 -0.311977
v 0.071207 0.270000 -0.311977
v 0.064359 0.300000 -0.281977
v 0.042451 0.300000 -0.185988
v 0.035603 0.270000 -0.155988
v 0.035603 0.030000 -0.155988
v 0.042451 0.000000 -0.185988
v -0.064359 0.000000 -0.281977
v -0.071207 0.030000 -0.311977
v -0.071207 0.270000 -0.311977
v -0.064359 0.300000 -0.281977
v -0.042451 0.300000 -0.185988
v -0.035603 0.270000 -0.155988
v -0.035603 0.030000 -0.155988
v -0.042451 0.000000 -0.185988
v -0.180331 0.000000 -0.226128
v -0.199517 0.030000 -0.250186
v -0.199517 0.270000 -0.250186
v -0.180331 0.300000 -0.226128
v -0.118944 0.300000 -0.149151
v -0.099758 0.270000 -0.125093
v -0.099758 0.030000 -0.125093
v -0.118944 0.000000 -0.149151
v -0.260586 0.000000 -0.125492
v -0.288310 0.030000 -0.138843
v -0.288310 0.270000 -0.138843
v -0.260586 0.300000 -0.125492
v -0.171879 0.300000 -0.082773
v -0.144155 0.270000 -0.069421
v -0.144155 0.030000 -0.069421
v -0.171879 0.000000 -0.082773
v -0.320000 0.330000 0.000000
v -0.289228 0.300000 0.000000
v -0.289228 0.600000 0.000000
v -0.320000 0.570000 0.000000
v -0.160000 0.570000 0.000000
v -0.190772 0.600000 0.000000
v -0.190772 0.300000 0.000000
v -0.160000 0.330000 0.000000
v -0.260586 0.300000 0.125492
v -0.288310 0.330000 0.138843
v -0.288310 0.570000 0.138843
v -0.260586 0.600000 0.125492
v -0.171879 0.600000 0.082773
v -0.144155 0.570000 0.069421
v -0.144155 0.330000 0.069421
v -0.171879 0.300000 0.082773
v -0.180331 0.300000 0.226128
v -0.199517 0.330000 0.250186
v -0.199517 0.570000 0.250186
v -0.180331 0.600000 0.226128
v -0.118944 0.600000 0.149151
v -0.099758 0.570000 0.125093
v -0.099758 0.330000 0.125093
v -0.118944 0.300000 0.149151
v -0.064359 0.300000 0.281977
v -0.071207 0.330000 0.311977
v -0.071207 0.570000 0.311977
v -0.064359 0.600000 0.281977
v -0.042451 0.600000 0.185988
v -0.035603 0.570000 0.155988
v -0.035603 0.330000 0.155988
v -0.042451 0.300000 0.185988
v 0.064359 0.300000 0.281977
v 0.071207 0.330000 0.311977
v 0.071207 0.570000 0.311977
v 0.064359 0.600000 0.281977
v 0.042451 0.600000 0.185988
v 0.035603 0.570000 0.155988
v 0.035603 0.330000 0.155988
v 0.042451 0.300000 0.185988
v 0.180331 0.300000 0.226128
v 0.199517 0.330000 0.250186
v 0.199517 0.570000 0.250186
v 0.180331 0.600000 0.226128
v 0.118944 0.600000 0.149151
v 0.099758 0.570000 0.125093
v 0.099758 0.330000 0.125093
v 0.118944 0.300000 0.149151
v 0.260586 0.300000 0.125492
v 0.288310 0.330000 0.138843
v 0.288310 0.570000 0.138843
v 0.260586 0.600000 0.125492
v 0.171879 0.600000 0.082773
v 0.144155 0.570000 0.069421
v 0.144155 0.330000 0.069421
v 0.171879 0.300000 0.082773
v 0.289228 0.300000 0.000000
v 0.320000 0.330000 0.000000
v 0.320000 0.570000 0.000000
v 0.289228 0.600000 0.000000
v 0.190772 0.600000 0.000000
v 0.160000 0.570000 0.000000
v 0.160000 0.330000 0.000000
v 0.190772 0.300000 0.000000
v 0.260586 0.300000 -0.125492
v 0.288310 0.330000 -0.138843
v 0.288310 0.570000 -0.138843
v 0.260586 0.600000 -0.125492
v 0.171879 0.600000 -0.082773
v 0.144155 0.570000 -0.069421
v 0.144155 0.330000 -0.069421
v 0.171879 0.300000 -0.082773
v 0.180331 0.300000 -0.226128
v 0.199517 0.330000 -0.250186
v 0.199517 0.570000 -0.250186
v 0.180331 0.600000 -0.226128
v 0.118944 0.600000 -0.149151
v 0.099758 0.570000 -0.125093
v 0.099758 0.330000 -0.125093
v 0.118944 0.300000 -0.149151
v 0.064359 0.300000 -0.281977
v 0.071207 0.330000 -0.311977
v 0.071207 0.570000 -0.311977
v 0.064359 0.600000 -0.281977
v 0.042451 0.600000 -0.185988
v 0.035603 0.570000 -0.155988
v 0.035603 0.330000 -0.155988
v 0.042451 0.300000 -0.185988
v -0.064359 0.300000 -0.281977
v -0.071207 0.330000 -0.311977
v -0.071207 0.570000 -0.311977
v -0.064359 0.600000 -0.281977
v -0.042451 0.600000 -0.185988
v -0.035603 0.570000 -0.155988
v -0.035603 0.330000 -0.155988
v -0.042451 0.300000 -0.185988
v -0.180331 0.300000 -0.226128
v -0.199517 0.330000 -0.250186
v -0.199517 0.570000 -0.250186
v -0.180331 0.600000 -0.226128
v -0.118944 0.600000 -0.149151
v -0.099758 0.570000 -0.125093
v -0.099758 0.330000 -0.125093
v -0.118944 0.300000 -0.149151
v -0.260586 0.300000 -0.125492
v -0.288310 0.330000 -0.138843
v -0.288310 0.570000 -0.138843
v -0.260586 0.600000 -0.125492
v -0.171879 0.600000 -0.082773
v -0.144155 0.570000 -0.069421
v -0.144155 0.330000 -0.069421
v -0.171879 0.300000 -0.082773
v -0.320000 0.630000 0.000000
v -0.289228 0.600000 0.000000
v -0.289228 0.900000 0.000000
v -0.320000 0.870000 0.000000
v -0.160000 0.870000 0.000000
v -0.190772 0.900000 0.000000
v -0.190772 0.600000 0.000000
v -0.160000 0.630000 0.000000
v -0.260586 0.600000 0.125492
v -0.288310 0.630000 0.138843
v -0.288310 0.870000 0.138843
v -0.260586 0.900000 0.125492
v -0.171879 0.900000 0.082773
v -0.144155 0.870000 0.069421
v -0.144155 0.630000 0.069421
v -0.171879 0.600000 0.082773
v -0.180331 0.600000 0.226128
v -0.199517 0.630000 0.250186
v -0.199517 0.870000 0.250186
v -0.180331 0.900000 0.226128
v -0.118944 0.900000 0.149151
v -0.099758 0.870000 0.125093
v -0.099758 0.630000 0.125093
v -0.118944 0.600000 0.149151
v -0.064359 0.600000 0.281977
v -0.071207 0.630000 0.311977
v -0.071207 0.870000 0.311977
v -0.064359 0.900000 0.281977
v -0.042451 0.900000 0.185988
v -0.035603 0.870000 0.155988
v -0.035603 0.630000 0.155988
v -0.042451 0.600000 0.185988
v 0.064359 0.600000 0.281977
v 0.071207 0.630000 0.311977
v 0.071207 0.870000 0.311977
v 0.064359 0.900000 0.281977
v 0.042451 0.900000 0.185988
v 0.035603 0.870000 0.155988
v 0.035603 0.630000 0.155988
v 0.042451 0.600000 0.185988
v 0.180331 0.600000 0.226128
v 0.199517 0.630000 0.250186
v 0.199517 0.870000 0.250186
v 0.180331 0.900000 0.226128
v 0.118944 0.900000 0.149151
v 0.099758 0.870000 0.125093
v 0.099758 0.630000 0.125093
v 0.118944 0.600000 0.149151
v 0.260586 0.600000 0.125492
v 0.288310 0.630000 0.138843
v 0.288310 0.870000 0.138843
v 0.260586 0.900000 0.125492
v 0.171879 0.900000 0.082773
v 0.144155 0.870000 0.069421
v 0.144155 0.630000 0.069421
v 0.171879 0.600000 0.082773
v 0.289228 0.600000 0.000000
v 0.320000 0.630000 0.000000
v 0.320000 0.870000 0.000000
v 0.289228 0.900000 0.000000
v 0.190772 0.900000 0.000000
v 0.160000 0.870000 0.000000
v 0.160000 0.630000 0.000000
v 0.190772 0.600000 0.000000
v 0.260586 0.600000 -0.125492
v 0.288310 0.630000 -0.138843
v 0.288310 0.870000 -0.138843
v 0.260586 0.900000 -0.125492
v 0.171879 0.900000 -0.082773
v 0.144155 0.870000 -0.069421
v 0.144155 0.630000 -0.069421
v 0.171879 0.600000 -0.082773
v 0.180331 0.600000 -0.226128
v 0.199517 0.630000 -0.250186
v 0.199517 0.870000 -0.250186
v 0.180331 0.900000 -0.226128
v 0.118944 0.900000 -0.149151
v 0.099758 0.870000 -0.125093
v 0.099758 0.630000 -0.125093
v 0.118944 0.600000 -0.149151
v 0.064359 0.600000 -0.281977
v 0.071207 0.630000 -0.311977
v 0.071207 0.870000 -0.311977
v 0.064359 0.900000 -0.281977
v 0.042451 0.900000 -0.185988
v 0.035603 0.870000 -0.155988
v 0.035603 0.630000 -0.155988
v 0.042451 0.600000 -0.185988
v -0.064359 0.600000 -0.281977
v -0.071207 0.630000 -0.311977
v -0.071207 0.870000 -0.311977
v -0.064359 0.900000 -0.281977
v -0.042451 0.900000 -0.185988
v -0.035603 0.870000 -0.155988
v -0.035603 0.630000 -0.155988
v -0.042451 0.600000 -0.185988
v -0.180331 0.600000 -0.226128
v -0.199517 0.630000 -0.250186
v -0.199517 0.870000 -0.250186
v -0.180331 0.900000 -0.226128
v -0.118944 0.900000 -0.149151
v -0.099758 0.870000 -0.125093
v -0.099758 0.630000 -0.125093
v -0.118944 0.600000 -0.149151
v -0.260586 0.600000 -0.125492
v -0.288310 0.630000 -0.138843
v -0.288310 0.870000 -0.138843
v -0.260586 0.900000 -0.125492
v -0.171879 0.900000 -0.082773
v -0.144155 0.870000 -0.069421
v -0.144155 0.630000 -0.069421
v -0.171879 0.600000 -0.082773
v -0.320000 0.930000 0.000000
v -0.289228 0.900000 0.000000
v -0.289228 1.200000 0.000000
v -0.320000 1.170000 0.000000
v -0.160000 1.170000 0.000000
v -0.190772 1.200000 0.000000
v -0.190772 0.900000 0.000000
v -0.160000 0.930000 0.000000
v -0.260586 0.900000 0.125492
v -0.288310 0.930000 0.138843
v -0.288310 1.170000 0.138843
v -0.260586 1.200000 0.125492
v -0.171879 1.200000 0.082773
v -0.144155 1.170000 0.069421
v -0.144155 0.930000 0.069421
v -0.171879 0.900000 0.082773
v -0.180331 0.900000 0.226128
v -0.199517 0.930000 0.250186
v -0.199517 1.170000 0.250186
v -0.180331 1.200000 0.226128
v -0.118944 1.200000 0.149151
v -0.099758 1.170000 0.125093
v -0.099758 0.930000 0.125093
v -0.118944 0.900000 0.149151
v -0.064359 0.900000 0.281977
v -0.071207 0.930000 0.311977
v -0.071207 1.170000 0.311977
v -0.064359 1.200000 0.281977
v -0.042451 1.200000 0.185988
v -0.035603 1.170000 0.155988
v -0.035603 0.930000 0.155988
v -0.042451 0.900000 0.185988
v 0.064359 0.900000 0.281977
v 0.071207 0.930000 0.311977
v 0.071207 1.170000 0.311977
v 0.064359 1.200000 0.281977
v 0.042451 1.200000 0.185988
v 0.035603 1.170000 0.155988
v 0.035603 0.930000 0.155988
v 0.042451 0.900000 0.185988
v 0.180331 0.900000 0.226128
v 0.199517 0.930000 0.250186
v 0.199517 1.170000 0.250186
v 0.180331 1.200000 0.226128
v 0.118944 1.200000 0.149151
v 0.099758 1.170000 0.125093
v 0.099758 0.930000 0.125093
v 0.118944 0.900000 0.149151
v 0.260586 0.900000 0.125492
v 0.288310 0.930000 0.138843
v 0.288310 1.170000 0.138843
v 0.260586 1.200000 0.125492
v 0.171879 1.200000 0.082773
v 0.144155 1.170000 0.069421
v 0.144155 0.930000 0.069421
v 0.171879 0.900000 0.082773
v 0.289228 0.900000 0.000000
v 0.320000 0.930000 0.000000
v 0.320000 1.170000 0.000000
v 0.289228 1.200000 0.000000
v 0.190772 1.200000 0.000000
v 0.160000 1.170000 0.000000
v 0.160000 0.930000 0.000000
v 0.190772 0.900000 0.000000
v 0.260586 0.900000 -0.125492
v 0.288310 0.930000 -0.138843
v 0.288310 1.170000 -0.138843
v 0.260586 1.200000 -0.125492
v 0.171879 1.200000 -0.082773
v 0.144155 1.170000 -0.069421
v 0.144155 0.930000 -0.069421
v 0.171879 0.900000 -0.082773
v 0.180331 0.900000 -0.226128
v 0.199517 0.930000 -0.250186
v 0.199517 1.170000 -0.250186
v 0.180331 1.200000 -0.226128
v 0.118944 1.200000 -0.149151
v 0.099758 1.170000 -0.125093
v 0.099758 0.930000 -0.125093
v 0.118944 0.900000 -0.149151
v 0.064359 0.900000 -0.281977
v 0.071207 0.930000 -0.311977
v 0.071207 1.170000 -0.311977
v 0.064359 1.200000 -0.281977
v 0.042451 1.200000 -0.185988
v 0.035603 1.170000 -0.155988
v 0.035603 0.930000 -0.155988
v 0.042451 0.900000 -0.185988
v -0.064359 0.900000 -0.281977
v -0.071207 0.930000 -0.311977
v -0.071207 1.170000 -0.311977
v -0.064359 1.200000 -0.281977
v -0.042451 1.200000 -0.185988
v -0.035603 1.170000 -0.155988
v -0.035603 0.930000 -0.155988
v -0.042451 0.900000 -0.185988
v -0.180331 0.900000 -0.226128
v -0.199517 0.930000 -0.250186
v -0.199517 1.170000 -0.250186
v -0.180331 1.200000 -0.226128
v -0.118944 1.200000 -0.149151
v -0.099758 1.170000 -0.125093
v -0.099758 0.930000 -0.125093
v -0.118944 0.900000 -0.149151
v -0.260586 0.900000 -0.125492
v -0.288310 0.930000 -0.138843
v -0.288310 1.170000 -0.138843
v -0.260586 1.200000 -0.125492
v -0.171879 1.200000 -0.082773
v -0.144155 1.170000 -0.069421
v -0.144155 0.930000 -0.069421
v -0.171879 0.900000 -0.082773
v 0.088000 0.050000 0.327000
v 0.088000 0.062000 0.315000
v 0.100000 0.062000 0.327000
v 0.088000 1.138000 0.315000
v 0.088000 1.150000 0.327000
v 0.100000 1.138000 0.327000
v 0.088000 0.050000 0.333000
v 0.100000 0.062000 0.333000
v 0.088000 0.062000 0.345000
v 0.088000 1.150000 0.333000
v 0.088000 1.138000 0.345000
v 0.100000 1.138000 0.333000
v -0.088000 0.050000 0.327000
v -0.100000 0.062000 0.327000
v -0.088000 0.062000 0.315000
v -0.088000 1.150000 0.327000
v -0.088000 1.138000 0.315000
v -0.100000 1.138000 0.327000
v -0.088000 0.050000 0.333000
v -0.088000 0.062000 0.345000
v -0.100000 0.062000 0.333000
v -0.088000 1.150000 0.333000
v -0.100000 1.138000 0.333000
v -0.088000 1.138000 0.345000
vn -0.0000 -1.0000 -0.0000
vn -0.0000 1.0000 -0.0000
vn 0.9749 -0.0000 0.2225
vn 0.7818 -0.0000 -0.6235
vn -0.4339 -0.0000 0.9010
vn 0.4339 -0.0000 -0.9010
vn -0.0000 -0.0000 1.0000
vn -0.0000 -0.0000 -1.0000
vn 0.4339 -0.0000 0.9010
vn -0.4339 -0.0000 -0.9010
vn 0.7818 -0.0000 0.6235
vn -0.7818 -0.0000 -0.6235
vn -0.9749 -0.0000 -0.2225
vn 0.9749 -0.0000 -0.2225
vn -0.9749 -0.0000 0.2225
vn -0.7818 -0.0000 0.6235
vn -0.6894 -0.7071 0.1573
vn -0.6894 0.7071 0.1573
vn 0.6894 0.7071 -0.1573
vn 0.6894 -0.7071 -0.1573
vn -0.5528 -0.7071 0.4409
vn -0.5528 0.7071 0.4409
vn 0.5528 0.7071 -0.4409
vn 0.5528 -0.7071 -0.4409
vn -0.3068 -0.7071 0.6371
vn -0.3068 0.7071 0.6371
vn 0.3068 0.7071 -0.6371
vn 0.3068 -0.7071 -0.6371
vn -0.0000 -0.7071 0.7071
vn -0.0000 0.7071 0.7071
vn -0.0000 0.7071 -0.7071
vn -0.0000 -0.7071 -0.7071
vn 0.3068 -0.7071 0.6371
vn 0.3068 0.7071 0.6371
vn -0.3068 0.7071 -0.6371
vn -0.3068 -0.7071 -0.6371
vn 0.5528 -0.7071 0.4409
vn 0.5528 0.7071 0.4409
vn -0.5528 0.7071 -0.4409
vn -0.5528 -0.7071 -0.4409
vn 0.6894 -0.7071 0.1573
vn 0.6894 0.7071 0.1573
vn -0.6894 0.7071 -0.1573
vn -0.6894 -0.7071 -0.1573
vn -1.0000 -0.0000 -0.0000
vn 1.0000 -0.0000 -0.0000
vn 0.5774 -0.5773 -0.5774
vn 0.5774 0.5773 -0.5774
vn 0.5773 -0.5773 0.5774
vn 0.5774 0.5773 0.5774
vn -0.5774 -0.5773 -0.5774
vn -0.5774 0.5773 -0.5774
vn -0.5773 -0.5773 0.5774
vn -0.5774 0.5773 0.5774
vn 0.7071 -0.7071 -0.0000
vn 0.7071 -0.0000 -0.7071
vn 0.7071 0.7071 -0.0000
vn 0.7071 -0.0000 0.7071
vn -0.7071 -0.0000 0.7071
vn -0.7071 -0.7071 -0.0000
vn -0.7071 0.7071 -0.0000
vn -0.7071 -0.0000 -0.7071
vt 0.00000 0.00431
vt 0.00000 0.39111
vt 0.00000 0.50264
vt 0.00000 0.55328
vt 0.00000 0.64114
vt 0.00000 0.67732
vt 0.00000 0.72243
vt 0.00000 0.76754
vt 0.00000 0.80372
vt 0.00000 0.82036
vt 0.00000 0.92820
vt 0.00455 0.00000
vt 0.00455 0.00431
vt 0.00455 0.39111
vt 0.00455 0.39542
vt 0.00912 0.83114
vt 0.00912 0.91742
vt 0.01137 0.63249
vt 0.01137 0.67252
vt 0.01137 0.72243
vt 0.01137 0.77234
vt 0.01137 0.81237
vt 0.01604 0.50525
vt 0.01604 0.55101
vt 0.01776 0.45489
vt 0.01776 0.59677
vt 0.02516 0.82036
vt 0.02516 0.92820
vt 0.03022 0.83114
vt 0.03022 0.91742
vt 0.03209 0.46208
vt 0.03209 0.59032
vt 0.04362 0.50972
vt 0.04362 0.53991
vt 0.04976 0.41948
vt 0.04976 0.62450
vt 0.05421 0.48125
vt 0.05421 0.56584
vt 0.05654 0.82036
vt 0.05654 0.83114
vt 0.05654 0.91742
vt 0.05654 0.92820
vt 0.06101 0.43008
vt 0.06101 0.61538
vt 0.07126 0.00000
vt 0.07126 0.00431
vt 0.07126 0.39111
vt 0.07126 0.39542
vt 0.07329 0.46014
vt 0.07329 0.58237
vt 0.07581 0.00431
vt 0.07581 0.39111
vt 0.08285 0.83114
vt 0.08285 0.91742
vt 0.08424 0.00431
vt 0.08424 0.39111
vt 0.08791 0.82036
vt 0.08791 0.92820
vt 0.08879 0.00000
vt 0.08879 0.00431
vt 0.08879 0.39111
vt 0.08879 0.39542
vt 0.08966 0.40342
vt 0.08966 0.57409
vt 0.09708 0.41556
vt 0.09708 0.45057
vt 0.09708 0.58623
vt 0.09708 0.62124
vt 0.10234 0.63249
vt 0.10234 0.67252
vt 0.10234 0.72243
vt 0.10234 0.77234
vt 0.10234 0.81237
vt 0.10395 0.83114
vt 0.10395 0.91742
vt 0.10961 0.46355
vt 0.10961 0.56606
vt 0.11307 0.82036
vt 0.11307 0.92820
vt 0.11372 0.64114
vt 0.11372 0.67732
vt 0.11372 0.72243
vt 0.11372 0.76754
vt 0.11372 0.80372
vt 0.12087 0.45443
vt 0.12087 0.57666
vt 0.12561 0.47741
vt 0.12561 0.54835
vt 0.13314 0.42142
vt 0.13314 0.60672
vt 0.13449 0.49916
vt 0.13449 0.52447
vt 0.13994 0.47096
vt 0.13994 0.55555
vt 0.15053 0.49689
vt 0.15053 0.52708
vt 0.15550 0.00000
vt 0.15550 0.00431
vt 0.15550 0.39111
vt 0.15550 0.39542
vt 0.16005 0.00431
vt 0.16005 0.39111
vt 0.16206 0.44648
vt 0.16206 0.57472
vt 0.16848 0.00000
vt 0.16848 0.00431
vt 0.16848 0.39111
vt 0.16848 0.39542
vt 0.17075 0.00000
vt 0.17075 0.00431
vt 0.17075 0.39111
vt 0.17075 0.39542
vt 0.17812 0.48579
vt 0.17812 0.53156
vt 0.17918 0.05040
vt 0.17922 0.32024
vt 0.17922 0.37073
vt 0.18149 0.37091
vt 0.18285 0.00004
vt 0.18350 0.32345
vt 0.18368 0.04748
vt 0.18379 0.05356
vt 0.18405 0.31739
vt 0.18512 0.00000
vt 0.18577 0.32364
vt 0.18596 0.04744
vt 0.18606 0.05353
vt 0.18631 0.31757
vt 0.18828 0.30939
vt 0.19055 0.05022
vt 0.19055 0.30936
vt 0.19055 0.32116
vt 0.19898 0.11601
vt 0.19898 0.35588
vt 0.19898 0.57895
vt 0.19898 0.62959
vt 0.19898 0.78931
vt 0.19898 0.83558
vt 0.19898 0.87727
vt 0.19898 0.89216
vt 0.19898 1.00000
vt 0.20200 0.07897
vt 0.20200 0.31883
vt 0.20626 0.90294
vt 0.20626 0.98922
vt 0.21035 0.70880
vt 0.21035 0.74072
vt 0.21035 0.78684
vt 0.21035 0.83804
vt 0.21035 0.88416
vt 0.21081 0.15959
vt 0.21081 0.39945
vt 0.21502 0.58155
vt 0.21502 0.62732
vt 0.21633 0.14657
vt 0.21633 0.38643
vt 0.21674 0.53120
vt 0.21674 0.67308
vt 0.22477 0.04277
vt 0.22477 0.28263
vt 0.22798 0.89216
vt 0.22798 1.00000
vt 0.23057 0.90294
vt 0.23057 0.98922
vt 0.23107 0.53839
vt 0.23107 0.66663
vt 0.23397 0.10486
vt 0.23397 0.34472
vt 0.23596 0.08042
vt 0.23596 0.32029
vt 0.24261 0.58603
vt 0.24261 0.61622
vt 0.24541 0.12501
vt 0.24541 0.36487
vt 0.24847 0.10765
vt 0.24847 0.34752
vt 0.24872 0.17952
vt 0.24872 0.41938
vt 0.24874 0.49578
vt 0.24874 0.70081
vt 0.25014 0.08716
vt 0.25014 0.32702
vt 0.25060 0.16458
vt 0.25060 0.40444
vt 0.25098 0.05655
vt 0.25098 0.29641
vt 0.25319 0.55756
vt 0.25319 0.64215
vt 0.25756 0.90294
vt 0.25756 0.98922
vt 0.25999 0.50638
vt 0.25999 0.69169
vt 0.26016 0.89216
vt 0.26016 1.00000
vt 0.26274 0.06713
vt 0.26274 0.30700
vt 0.26279 0.01459
vt 0.26279 0.25445
vt 0.26802 0.13689
vt 0.26802 0.37675
vt 0.27227 0.53645
vt 0.27227 0.65868
vt 0.27606 0.03796
vt 0.27606 0.27782
vt 0.28188 0.90294
vt 0.28188 0.98922
vt 0.28377 0.05154
vt 0.28377 0.29141
vt 0.28865 0.47973
vt 0.28865 0.65039
vt 0.29126 0.11738
vt 0.29127 0.35725
vt 0.29500 0.16648
vt 0.29500 0.40634
vt 0.29606 0.49187
vt 0.29606 0.52688
vt 0.29606 0.66254
vt 0.29606 0.69755
vt 0.29730 0.13814
vt 0.29730 0.37801
vt 0.29785 0.18162
vt 0.29785 0.42148
vt 0.29871 0.90294
vt 0.29871 0.98922
vt 0.30133 0.70880
vt 0.30133 0.74072
vt 0.30133 0.78684
vt 0.30133 0.83804
vt 0.30133 0.88416
vt 0.30623 0.02834
vt 0.30623 0.26820
vt 0.30714 0.90294
vt 0.30714 0.98922
vt 0.30854 0.00000
vt 0.30854 0.23986
vt 0.30860 0.53985
vt 0.30860 0.64237
vt 0.30908 0.04347
vt 0.30908 0.28334
vt 0.31230 0.10179
vt 0.31230 0.34166
vt 0.31270 0.78931
vt 0.31270 0.83558
vt 0.31270 0.87727
vt 0.31985 0.53074
vt 0.31985 0.65297
vt 0.32113 0.78931
vt 0.32113 0.83558
vt 0.32113 0.87727
vt 0.32397 0.90294
vt 0.32397 0.98922
vt 0.32460 0.55372
vt 0.32460 0.62466
vt 0.32637 0.23187
vt 0.32637 0.47173
vt 0.32748 0.12852
vt 0.32748 0.36839
vt 0.33213 0.49772
vt 0.33213 0.68303
vt 0.33250 0.70880
vt 0.33250 0.74072
vt 0.33250 0.78684
vt 0.33250 0.83804
vt 0.33250 0.88416
vt 0.33348 0.57546
vt 0.33348 0.60078
vt 0.33364 0.04453
vt 0.33364 0.28439
vt 0.33552 0.02959
vt 0.33552 0.26945
vt 0.33760 0.09372
vt 0.33760 0.33359
vt 0.33893 0.54727
vt 0.33893 0.63186
vt 0.34074 0.15190
vt 0.34074 0.39176
vt 0.34569 0.89216
vt 0.34569 1.00000
vt 0.34829 0.90294
vt 0.34829 0.98922
vt 0.34846 0.16548
vt 0.34846 0.40534
vt 0.34951 0.57320
vt 0.34951 0.60339
vt 0.35256 0.10993
vt 0.35256 0.34980
vt 0.35260 0.05449
vt 0.35260 0.29435
vt 0.35294 0.00190
vt 0.35294 0.24176
vt 0.35812 0.04147
vt 0.35812 0.28133
vt 0.36105 0.52279
vt 0.36105 0.65102
vt 0.36758 0.08606
vt 0.36758 0.32592
vt 0.36956 0.06162
vt 0.36956 0.30149
vt 0.37528 0.90294
vt 0.37528 0.98922
vt 0.37698 0.21573
vt 0.37698 0.45559
vt 0.37710 0.56210
vt 0.37710 0.60786
vt 0.37788 0.89216
vt 0.37788 1.00000
vt 0.37877 0.12371
vt 0.37877 0.36357
vt 0.38553 0.57895
vt 0.38553 0.62959
vt 0.38721 0.01991
vt 0.38721 0.25977
vt 0.39053 0.13430
vt 0.39053 0.37416
vt 0.39960 0.90294
vt 0.39960 0.98922
vt 0.40154 0.08751
vt 0.40154 0.32737
vt 0.40157 0.58155
vt 0.40157 0.62732
vt 0.40329 0.53120
vt 0.40329 0.67308
vt 0.40455 0.05047
vt 0.40455 0.29033
vt 0.40687 0.89216
vt 0.40687 1.00000
vt 0.41530 0.89216
vt 0.41530 1.00000
vt 0.41572 0.09425
vt 0.41572 0.33411
vt 0.41762 0.53839
vt 0.41762 0.66663
vt 0.41905 0.05326
vt 0.41905 0.18455
vt 0.41905 0.29312
vt 0.41905 0.42441
vt 0.42257 0.90294
vt 0.42257 0.98922
vt 0.42347 0.70880
vt 0.42347 0.74072
vt 0.42347 0.78684
vt 0.42347 0.83804
vt 0.42347 0.88416
vt 0.42748 0.11601
vt 0.42748 0.35588
vt 0.42915 0.58603
vt 0.42915 0.61622
vt 0.43049 0.07897
vt 0.43049 0.31883
vt 0.43484 0.78931
vt 0.43484 0.83558
vt 0.43484 0.87727
vt 0.43529 0.49578
vt 0.43529 0.70081
vt 0.43930 0.15959
vt 0.43930 0.39945
vt 0.43974 0.55756
vt 0.43974 0.64215
vt 0.44327 0.71570
vt 0.44327 0.75739
vt 0.44327 0.80366
vt 0.44429 0.89216
vt 0.44429 1.00000
vt 0.44483 0.14657
vt 0.44483 0.38643
vt 0.44654 0.50638
vt 0.44654 0.69169
vt 0.44689 0.90294
vt 0.44689 0.98922
vt 0.45327 0.04277
vt 0.45327 0.28263
vt 0.45465 0.70880
vt 0.45465 0.75492
vt 0.45465 0.80612
vt 0.45465 0.85224
vt 0.45465 0.88416
vt 0.45882 0.53645
vt 0.45882 0.65868
vt 0.46247 0.10486
vt 0.46247 0.34472
vt 0.46446 0.08042
vt 0.46446 0.32029
vt 0.47388 0.90294
vt 0.47388 0.98922
vt 0.47391 0.12501
vt 0.47391 0.36487
vt 0.47519 0.47973
vt 0.47519 0.65039
vt 0.47648 0.89216
vt 0.47648 1.00000
vt 0.47697 0.10765
vt 0.47697 0.34752
vt 0.47722 0.17952
vt 0.47722 0.41938
vt 0.47864 0.08716
vt 0.47864 0.32702
vt 0.47910 0.16458
vt 0.47910 0.40444
vt 0.47948 0.05655
vt 0.47948 0.29641
vt 0.48261 0.49187
vt 0.48261 0.52688
vt 0.48261 0.66254
vt 0.48261 0.69755
vt 0.49124 0.06713
vt 0.49124 0.30700
vt 0.49129 0.01459
vt 0.49129 0.25445
vt 0.49514 0.53985
vt 0.49514 0.64237
vt 0.49651 0.13689
vt 0.49651 0.37675
vt 0.49820 0.90294
vt 0.49820 0.98922
vt 0.50456 0.03796
vt 0.50456 0.27782
vt 0.50640 0.53074
vt 0.50640 0.65297
vt 0.51114 0.55372
vt 0.51114 0.62466
vt 0.51227 0.05154
vt 0.51227 0.29141
vt 0.51503 0.90294
vt 0.51503 0.98922
vt 0.51867 0.49772
vt 0.51867 0.68303
vt 0.51976 0.11738
vt 0.51976 0.35725
vt 0.52002 0.57546
vt 0.52002 0.60078
vt 0.52346 0.90294
vt 0.52346 0.98922
vt 0.52350 0.16648
vt 0.52350 0.40634
vt 0.52547 0.54727
vt 0.52547 0.63186
vt 0.52580 0.13814
vt 0.52580 0.37801
vt 0.52634 0.18162
vt 0.52634 0.42148
vt 0.53473 0.02834
vt 0.53473 0.26820
vt 0.53606 0.57320
vt 0.53606 0.60339
vt 0.53703 0.00000
vt 0.53703 0.23986
vt 0.53758 0.04347
vt 0.53758 0.28334
vt 0.54029 0.90294
vt 0.54029 0.98922
vt 0.54080 0.10179
vt 0.54080 0.34166
vt 0.54562 0.70880
vt 0.54562 0.75492
vt 0.54562 0.80612
vt 0.54562 0.85224
vt 0.54562 0.88416
vt 0.54760 0.52279
vt 0.54760 0.65103
vt 0.55487 0.23187
vt 0.55487 0.47173
vt 0.55597 0.12852
vt 0.55597 0.36839
vt 0.55699 0.71570
vt 0.55699 0.75739
vt 0.55699 0.80366
vt 0.56201 0.89216
vt 0.56201 1.00000
vt 0.56214 0.04453
vt 0.56214 0.28439
vt 0.56365 0.56210
vt 0.56365 0.60786
vt 0.56402 0.02959
vt 0.56402 0.26945
vt 0.56460 0.90294
vt 0.56460 0.98922
vt 0.56610 0.09372
vt 0.56610 0.33359
vt 0.56924 0.15190
vt 0.56924 0.39176
vt 0.57208 0.57895
vt 0.57208 0.62959
vt 0.57208 0.71570
vt 0.57208 0.75739
vt 0.57208 0.80366
vt 0.57695 0.16548
vt 0.57695 0.40534
vt 0.58105 0.10993
vt 0.58105 0.34980
vt 0.58110 0.05449
vt 0.58110 0.29435
vt 0.58144 0.00190
vt 0.58144 0.24176
vt 0.58345 0.70880
vt 0.58345 0.75492
vt 0.58345 0.80612
vt 0.58345 0.85224
vt 0.58345 0.88416
vt 0.58662 0.04147
vt 0.58662 0.28133
vt 0.58811 0.58155
vt 0.58811 0.62732
vt 0.58983 0.53120
vt 0.58983 0.67308
vt 0.59159 0.90294
vt 0.59159 0.98922
vt 0.59419 0.89216
vt 0.59419 1.00000
vt 0.59608 0.08606
vt 0.59608 0.32592
vt 0.59806 0.06162
vt 0.59806 0.30149
vt 0.60416 0.53839
vt 0.60416 0.66663
vt 0.60548 0.21573
vt 0.60548 0.45559
vt 0.60727 0.12371
vt 0.60727 0.36357
vt 0.61570 0.01991
vt 0.61570 0.25977
vt 0.61570 0.58603
vt 0.61570 0.61622
vt 0.61591 0.90294
vt 0.61591 0.98922
vt 0.61902 0.13430
vt 0.61902 0.37416
vt 0.62183 0.49578
vt 0.62183 0.70081
vt 0.62319 0.89216
vt 0.62319 1.00000
vt 0.62629 0.55756
vt 0.62629 0.64215
vt 0.63004 0.08751
vt 0.63004 0.32737
vt 0.63305 0.05047
vt 0.63305 0.29033
vt 0.63309 0.50638
vt 0.63309 0.69169
vt 0.64422 0.09425
vt 0.64422 0.33411
vt 0.64536 0.53645
vt 0.64536 0.65868
vt 0.64755 0.05326
vt 0.64755 0.18455
vt 0.64755 0.29312
vt 0.64755 0.42441
vt 0.65598 0.00865
vt 0.65598 0.04482
vt 0.65598 0.08994
vt 0.65598 0.13505
vt 0.65598 0.17122
vt 0.65598 0.19651
vt 0.65598 0.23269
vt 0.65598 0.27780
vt 0.65598 0.32291
vt 0.65598 0.35909
vt 0.66174 0.47973
vt 0.66174 0.65039
vt 0.66735 0.00000
vt 0.66735 0.04002
vt 0.66735 0.08994
vt 0.66735 0.13985
vt 0.66735 0.17987
vt 0.66735 0.18787
vt 0.66735 0.22789
vt 0.66735 0.27780
vt 0.66735 0.32771
vt 0.66735 0.36774
vt 0.66915 0.49187
vt 0.66915 0.52688
vt 0.66915 0.66254
vt 0.66915 0.69755
vt 0.67442 0.70880
vt 0.67442 0.75492
vt 0.67442 0.80612
vt 0.67442 0.85224
vt 0.67442 0.88416
vt 0.68169 0.53985
vt 0.68169 0.64237
vt 0.68579 0.71570
vt 0.68579 0.75739
vt 0.68579 0.80366
vt 0.69294 0.53074
vt 0.69294 0.65297
vt 0.69769 0.55372
vt 0.69769 0.62466
vt 0.70522 0.49772
vt 0.70522 0.68303
vt 0.70657 0.57546
vt 0.70657 0.60078
vt 0.71202 0.54727
vt 0.71202 0.63185
vt 0.72260 0.57320
vt 0.72260 0.60339
vt 0.73414 0.52279
vt 0.73414 0.65102
vt 0.75019 0.56210
vt 0.75019 0.60786
vt 0.75833 0.00000
vt 0.75833 0.04002
vt 0.75833 0.08994
vt 0.75833 0.13985
vt 0.75833 0.17987
vt 0.75833 0.18787
vt 0.75833 0.22789
vt 0.75833 0.27780
vt 0.75833 0.32771
vt 0.75833 0.36774
vt 0.75862 0.48837
vt 0.75862 0.52455
vt 0.75862 0.56966
vt 0.75862 0.61477
vt 0.75862 0.65095
vt 0.75862 0.74810
vt 0.75862 0.79437
vt 0.75862 0.83606
vt 0.75862 0.85095
vt 0.75862 0.95879
vt 0.76774 0.86173
vt 0.76774 0.94801
vt 0.76970 0.00865
vt 0.76970 0.04482
vt 0.76970 0.08994
vt 0.76970 0.13505
vt 0.76970 0.17122
vt 0.76970 0.19651
vt 0.76970 0.23269
vt 0.76970 0.27780
vt 0.76970 0.32291
vt 0.76970 0.35909
vt 0.76999 0.47973
vt 0.76999 0.51975
vt 0.76999 0.56966
vt 0.76999 0.61957
vt 0.76999 0.65960
vt 0.76999 0.66759
vt 0.76999 0.69951
vt 0.76999 0.74564
vt 0.76999 0.79683
vt 0.76999 0.84295
vt 0.77813 0.00690
vt 0.77813 0.04859
vt 0.77813 0.09486
vt 0.77813 0.26386
vt 0.77813 0.31013
vt 0.77813 0.35182
vt 0.78378 0.85095
vt 0.78378 0.95879
vt 0.78884 0.86173
vt 0.78884 0.94801
vt 0.78950 0.00000
vt 0.78950 0.04612
vt 0.78950 0.09732
vt 0.78950 0.14344
vt 0.78950 0.17536
vt 0.78950 0.18336
vt 0.78950 0.21527
vt 0.78950 0.26140
vt 0.78950 0.31259
vt 0.78950 0.35872
vt 0.81516 0.85095
vt 0.81516 0.86173
vt 0.81516 0.94801
vt 0.81516 0.95879
vt 0.84147 0.86173
vt 0.84147 0.94801
vt 0.84653 0.85095
vt 0.84653 0.95879
vt 0.86096 0.47973
vt 0.86096 0.51975
vt 0.86096 0.56966
vt 0.86096 0.61957
vt 0.86096 0.65960
vt 0.86096 0.66759
vt 0.86096 0.69951
vt 0.86096 0.74564
vt 0.86096 0.79683
vt 0.86096 0.84295
vt 0.86257 0.86173
vt 0.86257 0.94801
vt 0.87169 0.85095
vt 0.87169 0.95879
vt 0.87234 0.48837
vt 0.87234 0.52455
vt 0.87234 0.56966
vt 0.87234 0.61477
vt 0.87234 0.65095
vt 0.87234 0.74810
vt 0.87234 0.79437
vt 0.87234 0.83606
vt 0.88047 0.00000
vt 0.88047 0.04612
vt 0.88047 0.09732
vt 0.88047 0.14344
vt 0.88047 0.17536
vt 0.88047 0.18336
vt 0.88047 0.21527
vt 0.88047 0.26140
vt 0.88047 0.31259
vt 0.88047 0.35872
vt 0.88077 0.48662
vt 0.88077 0.52831
vt 0.88077 0.57458
vt 0.88077 0.66759
vt 0.88077 0.77543
vt 0.88077 0.78343
vt 0.88077 0.89127
vt 0.88989 0.67838
vt 0.88989 0.76465
vt 0.88989 0.79421
vt 0.88989 0.88049
vt 0.89184 0.00690
vt 0.89184 0.04859
vt 0.89184 0.09486
vt 0.89184 0.26386
vt 0.89184 0.31013
vt 0.89184 0.35182
vt 0.89214 0.47973
vt 0.89214 0.52585
vt 0.89214 0.57704
vt 0.89214 0.62317
vt 0.89214 0.65509
vt 0.90027 0.00000
vt 0.90027 0.10784
vt 0.90027 0.12662
vt 0.90027 0.21290
vt 0.90027 0.23167
vt 0.90027 0.33952
vt 0.90027 0.35829
vt 0.90027 0.44457
vt 0.90593 0.66759
vt 0.90593 0.77543
vt 0.90593 0.78343
vt 0.90593 0.89127
vt 0.90754 0.01078
vt 0.90754 0.09706
vt 0.90754 0.24246
vt 0.90754 0.32873
vt 0.91099 0.67838
vt 0.91099 0.76465
vt 0.91099 0.79421
vt 0.91099 0.88049
vt 0.91710 0.12662
vt 0.91710 0.21290
vt 0.91710 0.35829
vt 0.91710 0.44457
vt 0.92927 0.00000
vt 0.92927 0.10784
vt 0.92927 0.23167
vt 0.92927 0.33952
vt 0.93186 0.01078
vt 0.93186 0.09706
vt 0.93186 0.24246
vt 0.93186 0.32873
vt 0.93730 0.66759
vt 0.93730 0.67838
vt 0.93730 0.76465
vt 0.93730 0.77543
vt 0.93730 0.78343
vt 0.93730 0.79421
vt 0.93730 0.88049
vt 0.93730 0.89127
vt 0.93882 0.11584
vt 0.93882 0.22368
vt 0.93882 0.34751
vt 0.93882 0.45535
vt 0.94142 0.12662
vt 0.94142 0.21290
vt 0.94142 0.35829
vt 0.94142 0.44457
vt 0.95885 0.01078
vt 0.95885 0.09706
vt 0.95885 0.24246
vt 0.95885 0.32873
vt 0.96145 0.00000
vt 0.96145 0.10784
vt 0.96145 0.23167
vt 0.96145 0.33952
vt 0.96362 0.67838
vt 0.96362 0.76465
vt 0.96362 0.79421
vt 0.96362 0.88049
vt 0.96841 0.12662
vt 0.96841 0.21290
vt 0.96841 0.35829
vt 0.96841 0.44457
vt 0.96868 0.66759
vt 0.96868 0.77543
vt 0.96868 0.78343
vt 0.96868 0.89127
vt 0.97101 0.11584
vt 0.97101 0.22368
vt 0.97101 0.34751
vt 0.97101 0.45535
vt 0.98311 0.47973
vt 0.98311 0.52585
vt 0.98311 0.57704
vt 0.98311 0.62317
vt 0.98311 0.65509
vt 0.98317 0.01078
vt 0.98317 0.09706
vt 0.98317 0.24246
vt 0.98317 0.32873
vt 0.98472 0.67838
vt 0.98472 0.76465
vt 0.98472 0.79421
vt 0.98472 0.88049
vt 0.99273 0.12662
vt 0.99273 0.21290
vt 0.99273 0.35829
vt 0.99273 0.44457
vt 0.99384 0.66759
vt 0.99384 0.77543
vt 0.99384 0.78343
vt 0.99384 0.89127
vt 0.99448 0.48662
vt 0.99448 0.52831
vt 0.99448 0.57458
vt 1.00000 0.01078
vt 1.00000 0.09706
vt 1.00000 0.11584
vt 1.00000 0.22368
vt 1.00000 0.24246
vt 1.00000 0.32873
vt 1.00000 0.34751
vt 1.00000 0.45535
s 0
usemtl Racing_asphalt_rubber
f 1/301/13 107/313/13 106/334/13
f 1/301/13 4/281/13 107/313/13
f 10/254/15 11/221/15 4/281/15
f 10/254/15 4/281/15 1/301/15
f 102/708/38 101/704/38 109/731/38
f 102/708/38 109/731/38 110/739/38
f 102/810/9 103/811/9 95/786/9
f 102/810/9 95/786/9 94/785/9
f 104/201/1 105/165/1 97/191/1
f 104/201/1 112/187/1 105/165/1
f 104/201/1 89/215/1 96/216/1
f 104/201/1 97/191/1 89/215/1
f 105/165/40 106/157/40 98/179/40
f 105/165/40 98/179/40 97/191/40
f 106/577/12 107/498/12 99/497/12
f 106/577/12 99/497/12 98/576/12
f 108/307/2 101/295/2 100/317/2
f 108/307/2 109/285/2 101/295/2
f 108/307/39 100/317/39 99/329/39
f 108/307/39 99/329/39 107/313/39
f 110/739/11 103/709/11 102/708/11
f 110/739/11 111/740/11 103/709/11
f 110/739/42 109/731/42 6/755/42
f 110/739/42 6/755/42 5/756/42
f 112/187/1 2/153/1 105/165/1
f 112/187/1 7/171/1 2/153/1
f 112/732/37 103/709/37 111/740/37
f 112/732/37 104/705/37 103/709/37
f 112/732/41 111/740/41 8/757/41
f 112/732/41 8/757/41 7/758/41
f 12/213/2 20/183/2 21/199/2
f 12/213/2 21/199/2 13/219/2
f 12/213/22 11/221/22 19/177/22
f 12/213/22 19/177/22 20/183/22
f 14/779/14 15/780/14 8/757/14
f 14/779/14 8/757/14 5/756/14
f 14/779/19 5/756/19 6/755/19
f 14/779/19 6/755/19 13/787/19
f 16/172/1 2/153/1 7/171/1
f 16/172/1 9/154/1 2/153/1
f 16/788/24 15/780/24 23/805/24
f 16/788/24 23/805/24 24/813/24
f 18/697/16 11/656/16 10/696/16
f 18/697/16 19/657/16 11/656/16
f 2/153/17 10/136/17 1/135/17
f 2/153/17 9/154/17 10/136/17
f 2/153/44 1/135/44 106/157/44
f 2/153/44 106/157/44 105/165/44
f 20/183/26 19/177/26 27/151/26
f 20/183/26 27/151/26 28/155/26
f 22/737/27 21/727/27 29/749/27
f 22/737/27 29/749/27 30/753/27
f 22/804/23 13/787/23 21/812/23
f 22/804/23 14/779/23 13/787/23
f 22/804/4 15/780/4 14/779/4
f 22/804/4 23/805/4 15/780/4
f 225/302/13 228/282/13 331/314/13
f 225/302/13 331/314/13 330/336/13
f 226/319/17 233/320/17 234/310/17
f 226/319/17 234/310/17 225/309/17
f 226/319/44 225/309/44 330/321/44
f 226/319/44 330/321/44 329/331/44
f 227/276/18 228/282/18 235/222/18
f 227/276/18 235/222/18 236/214/18
f 227/276/2 230/257/2 333/286/2
f 227/276/2 236/214/2 237/220/2
f 227/276/2 237/220/2 230/257/2
f 227/276/2 333/286/2 332/308/2
f 227/276/43 331/314/43 228/282/43
f 227/276/43 332/308/43 331/314/43
f 229/760/19 230/759/19 237/789/19
f 229/760/19 237/789/19 238/781/19
f 229/760/3 232/761/3 335/742/3
f 229/760/3 335/742/3 334/741/3
f 231/762/20 232/761/20 239/782/20
f 231/762/20 239/782/20 240/790/20
f 231/762/41 335/742/41 232/761/41
f 231/762/41 336/734/41 335/742/41
f 233/320/21 241/332/21 242/322/21
f 233/320/21 242/322/21 234/310/21
f 234/255/15 228/282/15 225/302/15
f 234/255/15 235/222/15 228/282/15
f 236/214/2 244/184/2 245/200/2
f 236/214/2 245/200/2 237/220/2
f 236/214/22 235/222/22 243/178/22
f 236/214/22 243/178/22 244/184/22
f 238/781/14 232/761/14 229/760/14
f 238/781/14 239/782/14 232/761/14
f 24/188/1 17/166/1 9/154/1
f 24/188/1 25/192/1 17/166/1
f 24/188/1 32/202/1 25/192/1
f 24/188/1 9/154/1 16/172/1
f 24/728/28 23/738/28 31/754/28
f 24/728/28 31/754/28 32/750/28
f 240/347/1 226/319/1 231/346/1
f 240/347/1 233/320/1 226/319/1
f 240/790/24 239/782/24 247/807/24
f 240/790/24 247/807/24 248/815/24
f 242/226/16 235/146/16 234/225/16
f 242/226/16 243/147/16 235/146/16
f 244/184/26 243/178/26 251/152/26
f 244/184/26 251/152/26 252/156/26
f 246/144/27 245/140/27 253/161/27
f 246/144/27 253/161/27 254/163/27
f 246/806/23 237/789/23 245/814/23
f 246/806/23 238/781/23 237/789/23
f 246/806/4 239/782/4 238/781/4
f 246/806/4 247/807/4 239/782/4
f 248/141/28 247/145/28 255/164/28
f 248/141/28 255/164/28 256/162/28
f 248/358/1 233/320/1 240/347/1
f 248/358/1 241/332/1 233/320/1
f 248/358/1 249/367/1 241/332/1
f 248/358/1 256/378/1 249/367/1
f 249/367/25 242/322/25 241/332/25
f 249/367/25 250/354/25 242/322/25
f 25/192/25 18/158/25 17/166/25
f 25/192/25 26/180/25 18/158/25
f 250/227/5 243/147/5 242/226/5
f 250/227/5 251/148/5 243/147/5
f 252/137/30 251/148/30 259/149/30
f 252/137/30 259/149/30 260/138/30
f 252/156/2 245/200/2 244/184/2
f 252/156/2 253/174/2 245/200/2
f 254/163/31 253/161/31 261/193/31
f 254/163/31 261/193/31 262/189/31
f 254/163/6 247/145/6 246/144/6
f 254/163/6 255/164/6 247/145/6
f 256/162/32 255/164/32 263/190/32
f 256/162/32 263/190/32 264/194/32
f 257/243/29 250/227/29 249/242/29
f 257/243/29 258/228/29 250/227/29
f 258/228/7 251/148/7 250/227/7
f 258/228/7 259/149/7 251/148/7
f 26/698/5 19/657/5 18/697/5
f 26/698/5 27/658/5 19/657/5
f 260/134/2 253/174/2 252/156/2
f 260/134/2 261/168/2 253/174/2
f 260/134/2 268/143/2 269/170/2
f 260/134/2 269/170/2 261/168/2
f 260/138/34 259/149/34 267/150/34
f 260/138/34 267/150/34 268/139/34
f 262/176/35 261/168/35 269/170/35
f 262/176/35 269/170/35 270/182/35
f 262/189/8 255/164/8 254/163/8
f 262/189/8 263/190/8 255/164/8
f 264/403/1 249/367/1 256/378/1
f 264/403/1 257/404/1 249/367/1
f 264/403/36 263/388/36 271/410/36
f 264/403/36 271/410/36 272/418/36
f 265/244/33 258/228/33 257/243/33
f 265/244/33 266/229/33 258/228/33
f 266/229/9 259/149/9 258/228/9
f 266/229/9 267/150/9 259/149/9
f 270/182/39 269/170/39 277/186/39
f 270/182/39 277/186/39 278/196/39
f 270/205/10 263/190/10 262/189/10
f 270/205/10 271/206/10 263/190/10
f 272/418/1 257/404/1 264/403/1
f 272/418/1 265/426/1 257/404/1
f 272/418/1 273/459/1 265/426/1
f 272/418/1 280/436/1 273/459/1
f 273/81/37 266/69/37 265/80/37
f 273/81/37 274/70/37 266/69/37
f 274/70/11 267/18/11 266/69/11
f 274/70/11 275/19/11 267/18/11
f 276/160/2 269/170/2 268/143/2
f 276/160/2 277/186/2 269/170/2
f 276/6/38 267/18/38 275/19/38
f 276/6/38 268/5/38 267/18/38
f 278/196/43 277/186/43 285/204/43
f 278/196/43 285/204/43 286/208/43
f 278/223/12 271/206/12 270/205/12
f 278/223/12 279/224/12 271/206/12
f 28/155/2 21/199/2 20/183/2
f 28/155/2 29/173/2 21/199/2
f 28/644/30 27/658/30 35/659/30
f 28/644/30 35/659/30 36/645/30
f 280/436/1 281/472/1 273/459/1
f 280/436/1 288/444/1 281/472/1
f 280/436/40 271/410/40 279/420/40
f 280/436/40 272/418/40 271/410/40
f 281/82/20 289/83/20 290/72/20
f 281/82/20 290/72/20 282/71/20
f 281/82/41 274/70/41 273/81/41
f 281/82/41 282/71/41 274/70/41
f 282/71/3 275/19/3 274/70/3
f 282/71/3 283/20/3 275/19/3
f 284/198/2 277/186/2 276/160/2
f 284/198/2 285/204/2 277/186/2
f 284/198/2 292/235/2 293/231/2
f 284/198/2 293/231/2 285/204/2
f 284/7/19 283/20/19 291/21/19
f 284/7/19 291/21/19 292/8/19
f 284/7/42 275/19/42 283/20/42
f 284/7/42 276/6/42 275/19/42
f 286/208/13 279/212/13 278/196/13
f 286/208/13 287/241/13 279/212/13
f 286/208/18 285/204/18 293/231/18
f 286/208/18 293/231/18 294/239/18
f 288/444/17 287/430/17 295/429/17
f 288/444/17 295/429/17 296/443/17
f 288/444/44 279/420/44 287/430/44
f 288/444/44 280/436/44 279/420/44
f 289/83/24 297/84/24 298/73/24
f 289/83/24 298/73/24 290/72/24
f 290/72/14 283/20/14 282/71/14
f 290/72/14 291/21/14 283/20/14
f 292/235/2 300/290/2 301/270/2
f 292/235/2 301/270/2 293/231/2
f 292/8/23 291/21/23 299/22/23
f 292/8/23 299/22/23 300/9/23
f 294/239/15 287/241/15 286/208/15
f 294/239/15 295/272/15 287/241/15
f 296/443/1 281/472/1 288/444/1
f 296/443/1 289/471/1 281/472/1
f 296/443/21 295/429/21 303/419/21
f 296/443/21 303/419/21 304/435/21
f 298/73/4 291/21/4 290/72/4
f 298/73/4 299/22/4 291/21/4
f 3/275/18 11/221/18 12/213/18
f 3/275/18 4/281/18 11/221/18
f 3/275/2 109/285/2 108/307/2
f 3/275/2 12/213/2 13/219/2
f 3/275/2 13/219/2 6/256/2
f 3/275/2 6/256/2 109/285/2
f 3/275/43 107/313/43 4/281/43
f 3/275/43 108/307/43 107/313/43
f 30/753/31 29/749/31 37/777/31
f 30/753/31 37/777/31 38/773/31
f 30/753/6 23/738/6 22/737/6
f 30/753/6 31/754/6 23/738/6
f 300/701/27 299/718/27 307/719/27
f 300/701/27 307/719/27 308/702/27
f 302/250/16 295/233/16 294/232/16
f 302/250/16 303/251/16 295/233/16
f 302/268/22 293/231/22 301/270/22
f 302/268/22 294/239/22 293/231/22
f 302/268/26 301/270/26 309/292/26
f 302/268/26 309/292/26 310/288/26
f 304/435/1 289/471/1 296/443/1
f 304/435/1 297/458/1 289/471/1
f 304/435/1 305/425/1 297/458/1
f 304/435/1 312/417/1 305/425/1
f 304/435/25 303/419/25 311/409/25
f 304/435/25 311/409/25 312/417/25
f 305/817/28 298/795/28 297/816/28
f 305/817/28 306/796/28 298/795/28
f 306/796/6 299/718/6 298/795/6
f 306/796/6 307/719/6 299/718/6
f 308/312/2 301/270/2 300/290/2
f 308/312/2 309/292/2 301/270/2
f 308/702/31 307/719/31 315/720/31
f 308/702/31 315/720/31 316/703/31
f 310/279/30 309/277/30 317/305/30
f 310/279/30 317/305/30 318/299/30
f 310/279/5 303/251/5 302/250/5
f 310/279/5 311/280/5 303/251/5
f 312/278/29 311/280/29 319/300/29
f 312/278/29 319/300/29 320/306/29
f 313/818/32 306/796/32 305/817/32
f 313/818/32 314/797/32 306/796/32
f 314/797/8 307/719/8 306/796/8
f 314/797/8 315/720/8 307/719/8
f 316/324/2 309/292/2 308/312/2
f 316/324/2 317/298/2 309/292/2
f 316/324/2 324/318/2 325/296/2
f 316/324/2 325/296/2 317/298/2
f 316/324/35 315/335/35 323/330/35
f 316/324/35 323/330/35 324/318/35
f 318/299/34 317/305/34 325/325/34
f 318/299/34 325/325/34 326/315/34
f 318/299/7 311/280/7 310/279/7
f 318/299/7 319/300/7 311/280/7
f 32/750/32 31/754/32 39/774/32
f 32/750/32 39/774/32 40/778/32
f 320/306/33 319/300/33 327/316/33
f 320/306/33 327/316/33 328/326/33
f 320/402/1 305/425/1 312/417/1
f 320/402/1 313/401/1 305/425/1
f 321/366/36 314/387/36 313/401/36
f 321/366/36 322/353/36 314/387/36
f 322/798/10 315/720/10 314/797/10
f 322/798/10 323/721/10 315/720/10
f 326/315/9 319/300/9 318/299/9
f 326/315/9 327/316/9 319/300/9
f 326/710/38 325/706/38 333/733/38
f 326/710/38 333/733/38 334/741/38
f 328/377/1 313/401/1 320/402/1
f 328/377/1 321/366/1 313/401/1
f 328/377/1 329/331/1 321/366/1
f 328/377/1 336/357/1 329/331/1
f 329/331/40 322/353/40 321/366/40
f 329/331/40 330/321/40 322/353/40
f 33/716/29 26/698/29 25/715/29
f 33/716/29 34/699/29 26/698/29
f 330/799/12 323/721/12 322/798/12
f 330/799/12 331/722/12 323/721/12
f 332/308/2 325/296/2 324/318/2
f 332/308/2 333/286/2 325/296/2
f 332/308/39 323/330/39 331/314/39
f 332/308/39 324/318/39 323/330/39
f 334/741/11 327/711/11 326/710/11
f 334/741/11 335/742/11 327/711/11
f 334/741/42 230/759/42 229/760/42
f 334/741/42 333/733/42 230/759/42
f 336/357/1 226/319/1 329/331/1
f 336/357/1 231/346/1 226/319/1
f 336/734/37 327/711/37 335/742/37
f 336/734/37 328/707/37 327/711/37
f 34/699/7 27/658/7 26/698/7
f 34/699/7 35/659/7 27/658/7
f 36/133/2 29/173/2 28/155/2
f 36/133/2 37/167/2 29/173/2
f 36/133/2 44/142/2 45/169/2
f 36/133/2 45/169/2 37/167/2
f 36/645/34 35/659/34 43/660/34
f 36/645/34 43/660/34 44/646/34
f 38/175/35 37/167/35 45/169/35
f 38/175/35 45/169/35 46/181/35
f 38/773/8 31/754/8 30/753/8
f 38/773/8 39/774/8 31/754/8
f 40/217/1 25/192/1 32/202/1
f 40/217/1 33/218/1 25/192/1
f 40/217/36 39/210/36 47/237/36
f 40/217/36 47/237/36 48/246/36
f 41/717/33 34/699/33 33/716/33
f 41/717/33 42/700/33 34/699/33
f 42/700/9 35/659/9 34/699/9
f 42/700/9 43/660/9 35/659/9
f 46/181/39 45/169/39 53/185/39
f 46/181/39 53/185/39 54/195/39
f 46/802/10 39/774/10 38/773/10
f 46/802/10 47/803/10 39/774/10
f 48/246/1 33/218/1 40/217/1
f 48/246/1 41/259/1 33/218/1
f 48/246/1 49/294/1 41/259/1
f 48/246/1 56/274/1 49/294/1
f 49/627/37 42/604/37 41/626/37
f 49/627/37 50/605/37 42/604/37
f 5/756/3 111/740/3 110/739/3
f 5/756/3 8/757/3 111/740/3
f 50/605/11 43/564/11 42/604/11
f 50/605/11 51/565/11 43/564/11
f 52/159/2 45/169/2 44/142/2
f 52/159/2 53/185/2 45/169/2
f 52/553/38 43/564/38 51/565/38
f 52/553/38 44/552/38 43/564/38
f 54/195/43 53/185/43 61/203/43
f 54/195/43 61/203/43 62/207/43
f 54/823/12 47/803/12 46/802/12
f 54/823/12 55/824/12 47/803/12
f 56/274/1 57/304/1 49/294/1
f 56/274/1 64/284/1 57/304/1
f 56/274/40 47/237/40 55/253/40
f 56/274/40 48/246/40 47/237/40
f 56/274/44 55/253/44 63/266/44
f 56/274/44 63/266/44 64/284/44
f 57/628/20 65/629/20 66/607/20
f 57/628/20 66/607/20 58/606/20
f 57/628/41 50/605/41 49/627/41
f 57/628/41 58/606/41 50/605/41
f 58/606/3 51/565/3 50/605/3
f 58/606/3 59/566/3 51/565/3
f 60/197/2 53/185/2 52/159/2
f 60/197/2 61/203/2 53/185/2
f 60/197/2 68/234/2 69/230/2
f 60/197/2 69/230/2 61/203/2
f 60/554/19 59/566/19 67/567/19
f 60/554/19 67/567/19 68/555/19
f 60/554/42 51/565/42 59/566/42
f 60/554/42 52/553/42 51/565/42
f 62/207/13 55/211/13 54/195/13
f 62/207/13 63/240/13 55/211/13
f 64/284/17 63/266/17 71/265/17
f 64/284/17 71/265/17 72/283/17
f 65/629/24 73/630/24 74/608/24
f 65/629/24 74/608/24 66/607/24
f 66/607/14 59/566/14 58/606/14
f 66/607/14 67/567/14 59/566/14
f 68/234/2 76/289/2 77/269/2
f 68/234/2 77/269/2 69/230/2
f 68/555/23 67/567/23 75/568/23
f 68/555/23 75/568/23 76/556/23
f 7/758/20 15/780/20 16/788/20
f 7/758/20 8/757/20 15/780/20
f 70/238/15 63/240/15 62/207/15
f 70/238/15 71/271/15 63/240/15
f 70/238/18 61/203/18 69/230/18
f 70/238/18 62/207/18 61/203/18
f 72/283/1 57/304/1 64/284/1
f 72/283/1 65/303/1 57/304/1
f 72/283/21 71/265/21 79/252/21
f 72/283/21 79/252/21 80/273/21
f 74/608/4 67/567/4 66/607/4
f 74/608/4 75/568/4 67/567/4
f 76/483/27 75/494/27 83/495/27
f 76/483/27 83/495/27 84/484/27
f 78/267/22 69/230/22 77/269/22
f 78/267/22 70/238/22 69/230/22
f 78/267/26 77/269/26 85/291/26
f 78/267/26 85/291/26 86/287/26
f 78/745/16 71/730/16 70/729/16
f 78/745/16 79/746/16 71/730/16
f 80/273/1 65/303/1 72/283/1
f 80/273/1 73/293/1 65/303/1
f 80/273/1 81/258/1 73/293/1
f 80/273/1 88/245/1 81/258/1
f 80/273/25 79/252/25 87/236/25
f 80/273/25 87/236/25 88/245/25
f 81/581/28 74/573/28 73/580/28
f 81/581/28 82/574/28 74/573/28
f 82/574/6 75/494/6 74/573/6
f 82/574/6 83/495/6 75/494/6
f 84/311/2 77/269/2 76/289/2
f 84/311/2 85/291/2 77/269/2
f 84/484/31 83/495/31 91/496/31
f 84/484/31 91/496/31 92/485/31
f 86/769/30 85/765/30 93/793/30
f 86/769/30 93/793/30 94/785/30
f 86/769/5 79/746/5 78/745/5
f 86/769/5 87/770/5 79/746/5
f 88/766/29 87/770/29 95/786/29
f 88/766/29 95/786/29 96/794/29
f 89/582/32 82/574/32 81/581/32
f 89/582/32 90/575/32 82/574/32
f 9/154/21 17/166/21 18/158/21
f 9/154/21 18/158/21 10/136/21
f 90/575/8 83/495/8 82/574/8
f 90/575/8 91/496/8 83/495/8
f 92/323/2 100/317/2 101/295/2
f 92/323/2 101/295/2 93/297/2
f 92/323/2 85/291/2 84/311/2
f 92/323/2 93/297/2 85/291/2
f 92/323/35 91/333/35 99/329/35
f 92/323/35 99/329/35 100/317/35
f 94/785/34 101/825/34 102/810/34
f 94/785/34 93/793/34 101/825/34
f 94/785/7 87/770/7 86/769/7
f 94/785/7 95/786/7 87/770/7
f 96/216/1 81/258/1 88/245/1
f 96/216/1 89/215/1 81/258/1
f 96/794/33 103/811/33 104/826/33
f 96/794/33 95/786/33 103/811/33
f 97/191/36 90/209/36 89/215/36
f 97/191/36 98/179/36 90/209/36
f 98/576/10 91/496/10 90/575/10
f 98/576/10 99/497/10 91/496/10
usemtl Racing_kerb_white
f 113/516/13 116/487/13 219/526/13
f 113/516/13 219/526/13 218/546/13
f 114/23/17 121/24/17 122/4/17
f 114/23/17 122/4/17 113/3/17
f 114/23/44 113/3/44 218/25/44
f 114/23/44 218/25/44 217/31/44
f 115/480/18 116/487/18 123/440/18
f 115/480/18 123/440/18 124/434/18
f 115/480/2 118/463/2 221/489/2
f 115/480/2 124/434/2 125/438/2
f 115/480/2 125/438/2 118/463/2
f 115/480/2 221/489/2 220/518/2
f 115/480/43 219/526/43 116/487/43
f 115/480/43 220/518/43 219/526/43
f 117/40/3 120/41/3 223/30/3
f 117/40/3 223/30/3 222/29/3
f 119/42/20 120/41/20 127/54/20
f 119/42/20 127/54/20 128/58/20
f 121/24/21 129/32/21 130/26/21
f 121/24/21 130/26/21 122/4/21
f 122/461/15 116/487/15 113/516/15
f 122/461/15 123/440/15 116/487/15
f 124/434/2 132/398/2 133/412/2
f 124/434/2 133/412/2 125/438/2
f 124/434/22 123/440/22 131/394/22
f 124/434/22 131/394/22 132/398/22
f 126/53/14 120/41/14 117/40/14
f 126/53/14 127/54/14 120/41/14
f 126/53/19 117/40/19 118/39/19
f 126/53/19 118/39/19 125/57/19
f 128/34/1 114/23/1 119/33/1
f 128/34/1 121/24/1 114/23/1
f 128/58/24 127/54/24 135/75/24
f 128/58/24 135/75/24 136/79/24
f 130/675/16 123/636/16 122/674/16
f 130/675/16 131/637/16 123/636/16
f 134/735/27 133/723/27 141/747/27
f 134/735/27 141/747/27 142/751/27
f 134/74/23 125/57/23 133/78/23
f 134/74/23 126/53/23 125/57/23
f 134/74/4 127/54/4 126/53/4
f 134/74/4 135/75/4 127/54/4
f 136/38/1 121/24/1 128/34/1
f 136/38/1 129/32/1 121/24/1
f 136/38/1 137/44/1 129/32/1
f 136/38/1 144/50/1 137/44/1
f 136/724/28 135/736/28 143/752/28
f 136/724/28 143/752/28 144/748/28
f 137/44/25 130/26/25 129/32/25
f 137/44/25 138/36/25 130/26/25
f 138/676/5 131/637/5 130/675/5
f 138/676/5 139/638/5 131/637/5
f 140/365/2 133/412/2 132/398/2
f 140/365/2 141/386/2 133/412/2
f 140/365/26 131/394/26 139/356/26
f 140/365/26 132/398/26 131/394/26
f 140/614/30 139/638/30 147/639/30
f 140/614/30 147/639/30 148/615/30
f 142/751/31 141/747/31 149/775/31
f 142/751/31 149/775/31 150/771/31
f 142/751/6 135/736/6 134/735/6
f 142/751/6 143/752/6 135/736/6
f 144/748/32 143/752/32 151/772/32
f 144/748/32 151/772/32 152/776/32
f 145/689/29 138/676/29 137/688/29
f 145/689/29 146/677/29 138/676/29
f 146/677/7 139/638/7 138/676/7
f 146/677/7 147/639/7 139/638/7
f 148/345/2 141/386/2 140/365/2
f 148/345/2 149/380/2 141/386/2
f 148/345/2 156/349/2 157/382/2
f 148/345/2 157/382/2 149/380/2
f 150/392/35 149/380/35 157/382/35
f 150/392/35 157/382/35 158/396/35
f 150/771/8 143/752/8 142/751/8
f 150/771/8 151/772/8 143/752/8
f 152/67/1 137/44/1 144/50/1
f 152/67/1 145/68/1 137/44/1
f 152/67/36 151/64/36 159/77/36
f 152/67/36 159/77/36 160/86/36
f 153/690/33 146/677/33 145/689/33
f 153/690/33 154/678/33 146/677/33
f 154/678/9 147/639/9 146/677/9
f 154/678/9 155/640/9 147/639/9
f 156/616/34 147/639/34 155/640/34
f 156/616/34 148/615/34 147/639/34
f 158/396/39 157/382/39 165/400/39
f 158/396/39 165/400/39 166/406/39
f 158/800/10 151/772/10 150/771/10
f 158/800/10 159/801/10 151/772/10
f 160/86/1 145/68/1 152/67/1
f 160/86/1 153/90/1 145/68/1
f 160/86/1 161/104/1 153/90/1
f 160/86/1 168/94/1 161/104/1
f 161/622/37 154/599/37 153/621/37
f 161/622/37 162/600/37 154/599/37
f 162/600/11 155/559/11 154/599/11
f 162/600/11 163/560/11 155/559/11
f 164/371/2 157/382/2 156/349/2
f 164/371/2 165/400/2 157/382/2
f 164/548/38 155/559/38 163/560/38
f 164/548/38 156/547/38 155/559/38
f 166/406/43 165/400/43 173/416/43
f 166/406/43 173/416/43 174/422/43
f 166/819/12 159/801/12 158/800/12
f 166/819/12 167/820/12 159/801/12
f 168/94/1 169/114/1 161/104/1
f 168/94/1 176/96/1 169/114/1
f 168/94/40 159/77/40 167/88/40
f 168/94/40 160/86/40 159/77/40
f 168/94/44 167/88/44 175/92/44
f 168/94/44 175/92/44 176/96/44
f 169/623/20 177/624/20 178/602/20
f 169/623/20 178/602/20 170/601/20
f 169/623/41 162/600/41 161/622/41
f 169/623/41 170/601/41 162/600/41
f 170/601/3 163/560/3 162/600/3
f 170/601/3 171/561/3 163/560/3
f 172/408/2 165/400/2 164/371/2
f 172/408/2 173/416/2 165/400/2
f 172/408/2 180/446/2 181/442/2
f 172/408/2 181/442/2 173/416/2
f 172/549/19 171/561/19 179/562/19
f 172/549/19 179/562/19 180/550/19
f 172/549/42 163/560/42 171/561/42
f 172/549/42 164/548/42 163/560/42
f 174/422/13 167/428/13 166/406/13
f 174/422/13 175/452/13 167/428/13
f 176/96/17 175/92/17 183/91/17
f 176/96/17 183/91/17 184/95/17
f 177/624/24 185/625/24 186/603/24
f 177/624/24 186/603/24 178/602/24
f 178/602/14 171/561/14 170/601/14
f 178/602/14 179/562/14 171/561/14
f 180/446/2 188/493/2 189/474/2
f 180/446/2 189/474/2 181/442/2
f 180/550/23 179/562/23 187/563/23
f 180/550/23 187/563/23 188/551/23
f 182/448/15 175/452/15 174/422/15
f 182/448/15 183/478/15 175/452/15
f 182/448/18 173/416/18 181/442/18
f 182/448/18 174/422/18 173/416/18
f 184/95/1 169/114/1 176/96/1
f 184/95/1 177/113/1 169/114/1
f 184/95/21 183/91/21 191/87/21
f 184/95/21 191/87/21 192/93/21
f 186/603/4 179/562/4 178/602/4
f 186/603/4 187/563/4 179/562/4
f 190/470/22 181/442/22 189/474/22
f 190/470/22 182/448/22 181/442/22
f 190/470/26 189/474/26 197/500/26
f 190/470/26 197/500/26 198/491/26
f 190/743/16 183/726/16 182/725/16
f 190/743/16 191/744/16 183/726/16
f 192/93/1 177/113/1 184/95/1
f 192/93/1 185/103/1 177/113/1
f 192/93/1 193/89/1 185/103/1
f 192/93/1 200/85/1 193/89/1
f 192/93/25 191/87/25 199/76/25
f 192/93/25 199/76/25 200/85/25
f 193/713/28 186/691/28 185/712/28
f 193/713/28 194/692/28 186/691/28
f 194/692/6 187/651/6 186/691/6
f 194/692/6 195/652/6 187/651/6
f 196/520/2 189/474/2 188/493/2
f 196/520/2 197/500/2 189/474/2
f 196/642/27 187/651/27 195/652/27
f 196/642/27 188/641/27 187/651/27
f 196/642/31 195/652/31 203/653/31
f 196/642/31 203/653/31 204/643/31
f 198/767/30 197/763/30 205/791/30
f 198/767/30 205/791/30 206/783/30
f 198/767/5 191/744/5 190/743/5
f 198/767/5 199/768/5 191/744/5
f 200/764/29 199/768/29 207/784/29
f 200/764/29 207/784/29 208/792/29
f 201/714/32 194/692/32 193/713/32
f 201/714/32 202/693/32 194/692/32
f 202/693/8 195/652/8 194/692/8
f 202/693/8 203/653/8 195/652/8
f 204/536/2 197/500/2 196/520/2
f 204/536/2 205/512/2 197/500/2
f 204/536/2 212/534/2 213/510/2
f 204/536/2 213/510/2 205/512/2
f 206/783/34 205/791/34 213/821/34
f 206/783/34 213/821/34 214/808/34
f 206/783/7 199/768/7 198/767/7
f 206/783/7 207/784/7 199/768/7
f 208/66/1 193/89/1 200/85/1
f 208/66/1 201/65/1 193/89/1
f 208/792/33 207/784/33 215/809/33
f 208/792/33 215/809/33 216/822/33
f 209/43/36 202/63/36 201/65/36
f 209/43/36 210/35/36 202/63/36
f 210/694/10 203/653/10 202/693/10
f 210/694/10 211/654/10 203/653/10
f 212/534/35 203/545/35 211/540/35
f 212/534/35 204/536/35 203/545/35
f 214/16/38 213/10/38 221/27/38
f 214/16/38 221/27/38 222/29/38
f 214/808/9 207/784/9 206/783/9
f 214/808/9 215/809/9 207/784/9
f 216/49/1 201/65/1 208/66/1
f 216/49/1 209/43/1 201/65/1
f 216/49/1 217/31/1 209/43/1
f 216/49/1 224/37/1 217/31/1
f 217/31/40 210/35/40 209/43/40
f 217/31/40 218/25/40 210/35/40
f 218/695/12 211/654/12 210/694/12
f 218/695/12 219/655/12 211/654/12
f 220/518/2 213/510/2 212/534/2
f 220/518/2 221/489/2 213/510/2
f 220/518/39 211/540/39 219/526/39
f 220/518/39 212/534/39 211/540/39
f 222/29/11 215/17/11 214/16/11
f 222/29/11 223/30/11 215/17/11
f 222/29/42 118/39/42 117/40/42
f 222/29/42 221/27/42 118/39/42
f 224/28/37 215/17/37 223/30/37
f 224/28/37 216/11/37 215/17/37
f 224/28/41 120/41/41 119/42/41
f 224/28/41 223/30/41 120/41/41
f 224/37/1 114/23/1 217/31/1
f 224/37/1 119/33/1 114/23/1
usemtl Racing_kerb_red
f 337/515/13 340/486/13 443/525/13
f 337/515/13 443/525/13 442/544/13
f 338/501/17 345/502/17 346/482/17
f 338/501/17 346/482/17 337/481/17
f 338/501/44 337/481/44 442/503/44
f 338/501/44 442/503/44 441/513/44
f 339/479/18 340/486/18 347/439/18
f 339/479/18 347/439/18 348/433/18
f 339/479/2 342/462/2 445/488/2
f 339/479/2 348/433/2 349/437/2
f 339/479/2 349/437/2 342/462/2
f 339/479/2 445/488/2 444/517/2
f 339/479/43 443/525/43 340/486/43
f 339/479/43 444/517/43 443/525/43
f 341/662/19 342/661/19 349/667/19
f 341/662/19 349/667/19 350/665/19
f 341/662/3 344/663/3 447/650/3
f 341/662/3 447/650/3 446/649/3
f 343/664/20 344/663/20 351/666/20
f 343/664/20 351/666/20 352/668/20
f 343/664/41 447/650/41 344/663/41
f 343/664/41 448/648/41 447/650/41
f 345/502/21 353/514/21 354/504/21
f 345/502/21 354/504/21 346/482/21
f 346/460/15 340/486/15 337/515/15
f 346/460/15 347/439/15 340/486/15
f 348/433/2 356/397/2 357/411/2
f 348/433/2 357/411/2 349/437/2
f 348/433/22 347/439/22 355/393/22
f 348/433/22 355/393/22 356/397/22
f 350/665/14 344/663/14 341/662/14
f 350/665/14 351/666/14 344/663/14
f 352/522/1 338/501/1 343/521/1
f 352/522/1 345/502/1 338/501/1
f 352/668/24 351/666/24 359/680/24
f 352/668/24 359/680/24 360/682/24
f 354/340/16 347/260/16 346/339/16
f 354/340/16 355/261/16 347/260/16
f 356/397/26 355/393/26 363/355/26
f 356/397/26 363/355/26 364/364/26
f 358/337/27 357/327/27 365/362/27
f 358/337/27 365/362/27 366/368/27
f 358/679/23 349/667/23 357/681/23
f 358/679/23 350/665/23 349/667/23
f 358/679/4 351/666/4 350/665/4
f 358/679/4 359/680/4 351/666/4
f 360/328/28 359/338/28 367/369/28
f 360/328/28 367/369/28 368/363/28
f 360/532/1 345/502/1 352/522/1
f 360/532/1 353/514/1 345/502/1
f 360/532/1 361/538/1 353/514/1
f 360/532/1 368/542/1 361/538/1
f 361/538/25 354/504/25 353/514/25
f 361/538/25 362/528/25 354/504/25
f 362/341/5 355/261/5 354/340/5
f 362/341/5 363/262/5 355/261/5
f 364/247/30 363/262/30 371/263/30
f 364/247/30 371/263/30 372/248/30
f 364/364/2 357/411/2 356/397/2
f 364/364/2 365/385/2 357/411/2
f 366/368/31 365/362/31 373/389/31
f 366/368/31 373/389/31 374/383/31
f 366/368/6 359/338/6 358/337/6
f 366/368/6 367/369/6 359/338/6
f 368/363/32 367/369/32 375/384/32
f 368/363/32 375/384/32 376/390/32
f 369/351/29 362/341/29 361/350/29
f 369/351/29 370/342/29 362/341/29
f 370/342/7 363/262/7 362/341/7
f 370/342/7 371/263/7 363/262/7
f 372/248/34 371/263/34 379/264/34
f 372/248/34 379/264/34 380/249/34
f 372/344/2 365/385/2 364/364/2
f 372/344/2 373/379/2 365/385/2
f 372/344/2 380/348/2 381/381/2
f 372/344/2 381/381/2 373/379/2
f 374/383/8 367/369/8 366/368/8
f 374/383/8 375/384/8 367/369/8
f 374/391/35 373/379/35 381/381/35
f 374/391/35 381/381/35 382/395/35
f 376/571/1 361/538/1 368/542/1
f 376/571/1 369/572/1 361/538/1
f 376/571/36 375/558/36 383/579/36
f 376/571/36 383/579/36 384/584/36
f 377/352/33 370/342/33 369/351/33
f 377/352/33 378/343/33 370/342/33
f 378/343/9 371/263/9 370/342/9
f 378/343/9 379/264/9 371/263/9
f 382/395/39 381/381/39 389/399/39
f 382/395/39 389/399/39 390/405/39
f 382/413/10 375/384/10 374/383/10
f 382/413/10 383/414/10 375/384/10
f 384/584/1 369/572/1 376/571/1
f 384/584/1 377/588/1 369/572/1
f 384/584/1 385/596/1 377/588/1
f 384/584/1 392/592/1 385/596/1
f 385/684/37 378/669/37 377/683/37
f 385/684/37 386/670/37 378/669/37
f 386/670/11 379/631/11 378/669/11
f 386/670/11 387/632/11 379/631/11
f 388/370/2 381/381/2 380/348/2
f 388/370/2 389/399/2 381/381/2
f 388/610/38 379/631/38 387/632/38
f 388/610/38 380/609/38 379/631/38
f 390/405/43 389/399/43 397/415/43
f 390/405/43 397/415/43 398/421/43
f 390/423/12 383/414/12 382/413/12
f 390/423/12 391/424/12 383/414/12
f 392/592/1 393/598/1 385/596/1
f 392/592/1 400/594/1 393/598/1
f 392/592/40 383/579/40 391/586/40
f 392/592/40 384/584/40 383/579/40
f 393/685/20 401/686/20 402/672/20
f 393/685/20 402/672/20 394/671/20
f 393/685/41 386/670/41 385/684/41
f 393/685/41 394/671/41 386/670/41
f 394/671/3 387/632/3 386/670/3
f 394/671/3 395/633/3 387/632/3
f 396/407/2 389/399/2 388/370/2
f 396/407/2 397/415/2 389/399/2
f 396/407/2 404/445/2 405/441/2
f 396/407/2 405/441/2 397/415/2
f 396/611/19 395/633/19 403/634/19
f 396/611/19 403/634/19 404/612/19
f 396/611/42 387/632/42 395/633/42
f 396/611/42 388/610/42 387/632/42
f 398/421/13 391/427/13 390/405/13
f 398/421/13 399/451/13 391/427/13
f 398/421/18 397/415/18 405/441/18
f 398/421/18 405/441/18 406/447/18
f 400/594/17 399/590/17 407/589/17
f 400/594/17 407/589/17 408/593/17
f 400/594/44 391/586/44 399/590/44
f 400/594/44 392/592/44 391/586/44
f 401/686/24 409/687/24 410/673/24
f 401/686/24 410/673/24 402/672/24
f 402/672/14 395/633/14 394/671/14
f 402/672/14 403/634/14 395/633/14
f 404/445/2 412/492/2 413/473/2
f 404/445/2 413/473/2 405/441/2
f 404/612/23 403/634/23 411/635/23
f 404/612/23 411/635/23 412/613/23
f 406/447/15 399/451/15 398/421/15
f 406/447/15 407/477/15 399/451/15
f 408/593/1 393/598/1 400/594/1
f 408/593/1 401/597/1 393/598/1
f 408/593/21 407/589/21 415/585/21
f 408/593/21 415/585/21 416/591/21
f 410/673/4 403/634/4 402/672/4
f 410/673/4 411/635/4 403/634/4
f 412/359/27 411/372/27 419/373/27
f 412/359/27 419/373/27 420/360/27
f 414/449/16 407/432/16 406/431/16
f 414/449/16 415/450/16 407/432/16
f 414/469/22 405/441/22 413/473/22
f 414/469/22 406/447/22 405/441/22
f 414/469/26 413/473/26 421/499/26
f 414/469/26 421/499/26 422/490/26
f 416/591/1 401/597/1 408/593/1
f 416/591/1 409/595/1 401/597/1
f 416/591/1 417/587/1 409/595/1
f 416/591/1 424/583/1 417/587/1
f 416/591/25 415/585/25 423/578/25
f 416/591/25 423/578/25 424/583/25
f 417/465/28 410/453/28 409/464/28
f 417/465/28 418/454/28 410/453/28
f 418/454/6 411/372/6 410/453/6
f 418/454/6 419/373/6 411/372/6
f 420/360/31 419/373/31 427/374/31
f 420/360/31 427/374/31 428/361/31
f 420/519/2 413/473/2 412/492/2
f 420/519/2 421/499/2 413/473/2
f 422/475/30 421/467/30 429/507/30
f 422/475/30 429/507/30 430/505/30
f 422/475/5 415/450/5 414/449/5
f 422/475/5 423/476/5 415/450/5
f 424/468/29 423/476/29 431/506/29
f 424/468/29 431/506/29 432/508/29
f 425/466/32 418/454/32 417/465/32
f 425/466/32 426/455/32 418/454/32
f 426/455/8 419/373/8 418/454/8
f 426/455/8 427/374/8 419/373/8
f 428/535/2 421/499/2 420/519/2
f 428/535/2 429/511/2 421/499/2
f 428/535/2 436/533/2 437/509/2
f 428/535/2 437/509/2 429/511/2
f 428/535/35 427/543/35 435/539/35
f 428/535/35 435/539/35 436/533/35
f 430/505/34 429/507/34 437/529/34
f 430/505/34 437/529/34 438/523/34
f 430/505/7 423/476/7 422/475/7
f 430/505/7 431/506/7 423/476/7
f 432/508/33 431/506/33 439/524/33
f 432/508/33 439/524/33 440/530/33
f 432/570/1 417/587/1 424/583/1
f 432/570/1 425/569/1 417/587/1
f 433/537/36 426/557/36 425/569/36
f 433/537/36 434/527/36 426/557/36
f 434/456/10 427/374/10 426/455/10
f 434/456/10 435/375/10 427/374/10
f 438/523/9 431/506/9 430/505/9
f 438/523/9 439/524/9 431/506/9
f 438/619/38 437/617/38 445/647/38
f 438/619/38 445/647/38 446/649/38
f 440/541/1 425/569/1 432/570/1
f 440/541/1 433/537/1 425/569/1
f 440/541/1 441/513/1 433/537/1
f 440/541/1 448/531/1 441/513/1
f 441/513/40 434/527/40 433/537/40
f 441/513/40 442/503/40 434/527/40
f 442/457/12 435/375/12 434/456/12
f 442/457/12 443/376/12 435/375/12
f 444/517/2 437/509/2 436/533/2
f 444/517/2 445/488/2 437/509/2
f 444/517/39 435/539/39 443/525/39
f 444/517/39 436/533/39 435/539/39
f 446/649/11 439/620/11 438/619/11
f 446/649/11 447/650/11 439/620/11
f 446/649/42 342/661/42 341/662/42
f 446/649/42 445/647/42 342/661/42
f 448/531/1 338/501/1 441/513/1
f 448/531/1 343/521/1 338/501/1
f 448/648/37 439/620/37 447/650/37
f 448/648/37 440/618/37 439/620/37
usemtl Racing_sponsor_cyan
f 449/108/55 451/107/55 456/111/55
f 449/108/55 456/111/55 455/112/55
f 449/48/47 450/47/47 451/52/47
f 452/46/48 453/45/48 454/51/48
f 452/46/56 451/52/56 450/47/56
f 452/46/56 454/51/56 451/52/56
f 453/45/31 452/46/31 465/13/31
f 453/45/31 465/13/31 464/12/31
f 454/106/46 456/111/46 451/107/46
f 454/106/46 460/110/46 456/111/46
f 455/62/29 457/61/29 468/99/29
f 455/62/29 468/99/29 467/100/29
f 455/62/49 456/56/49 457/61/49
f 457/61/58 456/56/58 460/55/58
f 457/61/58 460/55/58 459/60/58
f 458/109/57 454/106/57 453/105/57
f 458/109/57 460/110/57 454/106/57
f 458/119/2 453/124/2 464/126/2
f 458/119/2 464/126/2 470/121/2
f 458/59/50 459/60/50 460/55/50
f 459/60/7 468/99/7 457/61/7
f 459/60/7 472/98/7 468/99/7
f 461/125/51 462/128/51 463/132/51
f 461/15/32 450/47/32 449/48/32
f 461/15/32 463/14/32 450/47/32
f 463/14/62 462/2/62 466/1/62
f 463/14/62 466/1/62 465/13/62
f 464/126/52 465/130/52 466/127/52
f 464/126/61 466/127/61 471/122/61
f 464/126/61 471/122/61 470/121/61
f 465/13/8 450/47/8 463/14/8
f 465/13/8 452/46/8 450/47/8
f 467/120/1 449/118/1 455/117/1
f 467/120/1 461/125/1 449/118/1
f 467/120/53 468/116/53 469/123/53
f 467/120/60 462/128/60 461/125/60
f 467/120/60 469/123/60 462/128/60
f 469/102/59 468/99/59 472/98/59
f 469/102/59 472/98/59 471/101/59
f 470/121/54 471/122/54 472/115/54
f 470/97/30 459/60/30 458/59/30
f 470/97/30 472/98/30 459/60/30
f 471/122/45 462/131/45 469/129/45
f 471/122/45 466/127/45 462/131/45
