# Blender 4.0.2
# www.blender.org
mtllib tyre_stack_lod1.mtl
o tyre_stack_lod1
v -0.305831 0.003979 -0.043520
v -0.157873 0.270670 -0.041366
v -0.185910 0.299147 0.076119
v -0.288310 0.030000 0.138843
v -0.288310 0.270000 0.138843
v -0.305831 0.296021 0.043520
v -0.154282 0.010939 0.085295
v -0.214046 0.006288 0.220630
v -0.156728 0.294854 0.267040
v -0.130125 0.267900 0.098451
v 0.011544 0.289575 0.318642
v 0.000069 0.288416 0.173335
v -0.030361 0.009653 0.174423
v 0.156728 0.005146 0.267040
v -0.011544 0.010425 0.318642
v 0.214046 0.293712 0.220630
v 0.136667 0.294324 0.115501
v 0.153491 0.032814 0.069653
v 0.305831 0.003979 0.043520
v 0.288310 0.030000 0.138843
v 0.288310 0.270000 0.138843
v 0.134534 0.000768 0.149313
v 0.308400 0.291990 -0.008470
v 0.185910 0.299147 -0.076119
v 0.157873 0.270670 0.041366
v 0.288310 0.030000 -0.138843
v 0.257071 0.294854 -0.172594
v 0.154282 0.010939 -0.085295
v 0.214046 0.006288 -0.220630
v 0.199517 0.270000 -0.250186
v 0.130125 0.267900 -0.098451
v 0.025625 0.296021 -0.307847
v -0.000069 0.288416 -0.173335
v 0.030361 0.009653 -0.174423
v -0.156728 0.005146 -0.267040
v 0.011544 0.010425 -0.318642
v -0.071207 0.270000 -0.311977
v -0.214046 0.293712 -0.220630
v -0.136667 0.294324 -0.115501
v -0.153491 0.032814 -0.069653
v -0.288310 0.030000 -0.138843
v -0.288310 0.270000 -0.138843
v -0.134534 0.000768 -0.149313
v -0.305831 0.303979 -0.043520
v -0.290222 0.600379 -0.066241
v -0.157873 0.570670 -0.041366
v -0.185910 0.599147 0.076119
v -0.288310 0.330000 0.138843
v -0.262388 0.594207 0.162029
v -0.154282 0.310939 0.085295
v -0.214046 0.306288 0.220630
v -0.199517 0.570000 0.250186
v -0.130125 0.567900 0.098451
v 0.025625 0.303979 0.307847
v -0.071207 0.330000 0.311977
v -0.061253 0.590192 0.303323
v 0.000069 0.588416 0.173335
v -0.030361 0.309653 0.174423
v 0.096823 0.594515 0.291231
v 0.257071 0.305146 0.172594
v 0.199517 0.330000 0.250186
v 0.199517 0.570000 0.250186
v 0.136667 0.594324 0.115501
v 0.153491 0.332814 0.069653
v 0.320374 0.568660 0.062459
v 0.134534 0.300768 0.149313
v 0.308400 0.308010 0.008470
v 0.290222 0.600379 0.066241
v 0.185910 0.599147 -0.076119
v 0.157873 0.570670 0.041366
v 0.288310 0.330000 -0.138843
v 0.262388 0.594207 -0.162029
v 0.154282 0.310939 -0.085295
v 0.214046 0.306288 -0.220630
v 0.127365 0.586566 -0.292424
v 0.130125 0.567900 -0.098451
v -0.000069 0.588416 -0.173335
v 0.030361 0.309653 -0.174423
v -0.156728 0.305146 -0.267040
v 0.011544 0.310425 -0.318642
v -0.096823 0.594515 -0.291231
v -0.199517 0.570000 -0.250186
v -0.136667 0.594324 -0.115501
v -0.153491 0.332814 -0.069653
v -0.288310 0.330000 -0.138843
v -0.320374 0.568660 -0.062459
v -0.134534 0.300768 -0.149313
v -0.305831 0.603979 -0.043520
v -0.185910 0.600853 -0.076119
v -0.288310 0.630000 0.138843
v -0.288310 0.870000 0.138843
v -0.305831 0.896021 0.043520
v -0.134534 0.899232 0.149313
v -0.136793 0.609260 0.108454
v -0.214046 0.606288 0.220630
v -0.156728 0.894854 0.267040
v -0.153491 0.867186 0.069653
v 0.011544 0.889575 0.318642
v -0.000069 0.611584 0.173335
v 0.156728 0.605146 0.267040
v -0.011544 0.610425 0.318642
v 0.030361 0.890347 0.174423
v 0.214046 0.893712 0.220630
v 0.153491 0.632814 0.069653
v 0.305831 0.603979 0.043520
v 0.288310 0.630000 0.138843
v 0.288310 0.870000 0.138843
v 0.154282 0.889061 0.085295
v 0.305831 0.896021 -0.043520
v 0.185910 0.600853 0.076119
v 0.288310 0.630000 -0.138843
v 0.288310 0.870000 -0.138843
v 0.134534 0.899232 -0.149313
v 0.136793 0.609260 -0.108454
v 0.214046 0.606288 -0.220630
v 0.156728 0.894854 -0.267040
v 0.153491 0.867186 -0.069653
v -0.011544 0.889575 -0.318642
v 0.000069 0.611584 -0.173335
v -0.156728 0.605146 -0.267040
v 0.011544 0.610425 -0.318642
v -0.030361 0.890347 -0.174423
v -0.214046 0.893712 -0.220630
v -0.153491 0.632814 -0.069653
v -0.288310 0.630000 -0.138843
v -0.288310 0.870000 -0.138843
v -0.154282 0.889061 -0.085295
v -0.305831 0.903979 -0.043520
v -0.185911 0.900853 -0.076119
v -0.288310 0.930000 0.138843
v -0.288310 1.170000 0.138843
v -0.305831 1.196021 0.043520
v -0.134534 1.199232 0.149313
v -0.136793 0.909260 0.108454
v -0.214046 0.906288 0.220630
v -0.156728 1.194854 0.267040
v -0.153491 1.167186 0.069653
v 0.011544 1.189575 0.318642
v -0.000069 0.911584 0.173335
v 0.156728 0.905146 0.267040
v -0.011544 0.910425 0.318642
v 0.030361 1.190347 0.174423
v 0.214046 1.193712 0.220630
v 0.153491 0.932814 0.069653
v 0.305831 0.903979 0.043520
v 0.288310 0.930000 0.138843
v 0.288310 1.170000 0.138843
v 0.154282 1.189061 0.085295
v 0.305831 1.196021 -0.043520
v 0.185911 0.900853 0.076119
v 0.288310 0.930000 -0.138843
v 0.288310 1.170000 -0.138843
v 0.134534 1.199232 -0.149313
v 0.136793 0.909260 -0.108454
v 0.214046 0.906288 -0.220630
v 0.156728 1.194854 -0.267040
v 0.153491 1.167186 -0.069653
v -0.011544 1.189575 -0.318642
v 0.000069 0.911584 -0.173335
v -0.156728 0.905146 -0.267040
v 0.011544 0.910425 -0.318642
v -0.030361 1.190347 -0.174423
v -0.214046 1.193712 -0.220630
v -0.153491 0.932814 -0.069653
v -0.288310 0.930000 -0.138843
v -0.288310 1.170000 -0.138843
v -0.154282 1.189061 -0.085295
v 0.097187 1.147188 0.331364
v 0.097187 0.052813 0.328636
v -0.097187 0.052813 0.331364
v -0.097187 1.147188 0.328636
vn 0.0109 -0.9995 -0.0295
vn 0.0190 -0.9998 0.0029
vn 0.0346 0.9993 -0.0107
vn 0.0373 -0.9989 0.0301
vn -0.9625 -0.0145 -0.2707
vn -0.0109 -0.9995 0.0295
vn -0.0190 -0.9998 -0.0029
vn -0.0373 -0.9989 -0.0301
vn 0.9625 -0.0145 0.2707
vn -0.9175 0.3932 -0.0602
vn 0.9175 0.3932 0.0602
vn 0.0069 -0.9989 -0.0454
vn -0.0566 -0.9982 -0.0187
vn -0.0294 0.9992 -0.0275
vn -0.0483 0.9988 -0.0120
vn 0.9497 -0.1048 0.2952
vn -0.0429 0.9990 -0.0108
vn 0.4321 -0.0961 -0.8967
vn 0.0355 0.9991 0.0225
vn 0.0483 0.9988 0.0120
vn -0.0373 -0.9988 -0.0301
vn 0.0429 0.9990 0.0108
vn -0.9778 -0.0679 -0.1983
vn 0.0545 0.9985 0.0102
vn 1.0000 0.0028 -0.0047
vn -0.0499 -0.9986 0.0148
vn 0.0335 -0.9991 0.0276
vn -1.0000 0.0028 0.0047
vn -0.0545 0.9985 -0.0102
vn -0.0085 0.9990 0.0440
vn 0.0499 -0.9986 -0.0148
vn -0.0335 -0.9991 -0.0276
vn 0.0085 0.9990 -0.0440
vn 0.1091 0.9130 -0.3932
vn -0.4088 -0.5604 -0.7203
vn -0.1091 0.9130 0.3932
vn 0.4088 -0.5604 0.7203
vn 0.0545 -0.9985 -0.0102
vn -0.2924 0.0242 0.9560
vn 0.0085 -0.9990 0.0440
vn 0.5838 -0.0133 -0.8118
vn -0.0335 0.9991 0.0276
vn -0.0286 -0.9996 0.0091
vn 0.0499 0.9986 0.0148
vn 0.4339 0.0584 0.8990
vn -0.4993 0.0511 -0.8649
vn 0.7403 -0.0000 0.6722
vn -0.0311 0.9991 0.0287
vn 0.9904 0.0160 0.1375
vn 0.9521 0.0745 -0.2965
vn -0.0085 -0.9990 -0.0440
vn 0.0389 0.9986 0.0351
vn -0.9998 0.0175 -0.0076
vn -0.0545 -0.9985 0.0102
vn 0.8003 0.0180 -0.5994
vn 0.3174 0.0202 -0.9481
vn 0.0589 0.9983 -0.0010
vn -0.5838 -0.0133 0.8118
vn -0.0248 0.9977 -0.0627
vn 0.0329 0.0361 -0.9988
vn 0.0286 -0.9996 -0.0091
vn -0.5350 0.0295 -0.8443
vn 0.4993 0.0511 0.8649
vn -0.7403 -0.0000 -0.6722
vn 0.0311 0.9991 -0.0287
vn -0.9835 -0.0000 0.1808
vn 0.9998 0.0175 0.0076
vn -0.7000 0.0242 0.7138
vn -0.9946 0.0297 -0.0998
vn -0.4635 -0.8699 0.1687
vn 0.5126 0.8545 -0.0848
vn -0.4605 0.8312 0.3115
vn 0.4624 0.2099 -0.8615
vn -0.1091 -0.9130 -0.3932
vn 0.4605 -0.8312 0.3115
vn 0.4853 0.8527 0.1935
vn -0.9648 -0.0815 -0.2500
vn 0.4635 -0.8699 -0.1687
vn -0.5126 0.8545 0.0848
vn 0.2825 0.8327 -0.4763
vn -0.4624 0.2099 0.8615
vn -0.1996 0.8263 -0.5266
vn 0.1091 -0.9130 0.3932
vn -0.4605 -0.8312 -0.3115
vn -0.4635 0.8699 -0.1687
vn 0.9648 -0.0815 0.2500
vn -0.3641 0.0449 0.9303
vn 0.0342 0.9993 -0.0164
vn 0.0752 0.0386 0.9964
vn 0.0519 0.9986 0.0109
vn 0.3711 -0.0000 0.9286
vn 0.0282 -0.9988 0.0396
vn 0.8407 0.0242 0.5410
vn 0.0070 -0.9991 -0.0427
vn 0.9676 0.0737 -0.2415
vn -0.0342 0.9993 0.0164
vn -0.0314 -0.9993 0.0205
vn 0.6935 0.0301 -0.7199
vn 0.0301 0.9991 -0.0307
vn -0.0180 0.9994 -0.0298
vn -0.0317 0.9983 -0.0495
vn -0.0019 0.0953 -0.9954
vn -0.3710 -0.0008 -0.9286
vn -0.8395 0.0601 -0.5400
vn -0.9676 0.0737 0.2415
vn -0.8102 0.0281 0.5855
vn 0.3370 0.8880 0.3128
vn -0.0301 0.9991 0.0307
vn -0.7144 0.6917 0.1058
vn -0.1996 -0.8263 0.5266
vn -0.2937 0.8475 0.4422
vn 0.2825 -0.8327 0.4763
vn -0.3370 0.8880 -0.3128
vn 0.4853 -0.8527 -0.1935
vn 0.7144 0.6917 -0.1058
vn 0.0340 -0.9994 -0.0031
vn 0.0234 -0.9997 -0.0061
vn -0.0373 0.9988 0.0301
vn 0.4277 -0.1073 -0.8975
vn -0.0346 -0.9993 -0.0107
vn 0.0468 0.9978 0.0459
vn -0.5645 0.0648 -0.8229
vn 0.9946 0.0297 0.0998
vn -0.0190 0.9998 0.0029
vn 0.9835 -0.0000 -0.1808
vn -0.0109 0.9995 -0.0295
vn -0.0340 -0.9994 0.0031
vn 0.7000 0.0242 -0.7138
vn -0.9949 0.0514 0.0865
vn 0.2924 0.0242 -0.9560
vn -0.0234 -0.9997 0.0061
vn 0.0373 0.9988 -0.0301
vn -0.4277 -0.1073 0.8975
vn -0.4339 0.0584 -0.8990
vn 0.0346 -0.9993 0.0107
vn -0.0468 0.9978 -0.0459
vn 0.5645 0.0648 0.8229
vn 0.0190 0.9998 -0.0029
vn 0.0109 0.9995 0.0295
vn 0.9949 0.0514 -0.0865
vn 0.9175 -0.3932 -0.0602
vn 0.7090 -0.6874 -0.1574
vn 0.4635 0.8699 0.1687
vn -0.9175 -0.3932 0.0602
vn -0.7090 -0.6874 0.1574
vn 0.4605 0.8312 -0.3115
vn 0.0140 0.0025 -0.9999
vn -0.4339 -0.0584 0.8990
vn 0.5046 -0.0584 -0.8614
vn -0.0468 -0.9978 0.0459
vn 0.2924 -0.0242 0.9560
vn -0.3913 0.1344 -0.9104
vn 0.7000 -0.0242 0.7138
vn -0.0234 0.9997 -0.0061
vn 0.9835 -0.0000 0.1808
vn 0.9947 -0.0268 -0.0994
vn 0.0116 0.9999 -0.0027
vn -0.9773 -0.0819 0.1956
vn 0.7448 -0.0337 -0.6665
vn 0.4331 -0.0768 -0.8981
vn -0.5046 -0.0584 0.8614
vn -0.0251 0.9983 0.0516
vn 0.0468 -0.9978 -0.0459
vn -0.2905 -0.0681 -0.9544
vn 0.3913 0.1344 0.9104
vn -0.7000 -0.0242 -0.7138
vn 0.0117 0.9982 0.0587
vn -0.9946 -0.0297 0.0998
vn 0.9773 -0.0819 -0.1956
vn -0.7403 -0.0000 0.6722
vn -0.9835 -0.0000 -0.1808
vn -0.5299 -0.0656 0.8456
vn 0.0510 0.0312 0.9982
vn -0.0126 0.9989 0.0463
vn 0.3178 -0.0237 0.9478
vn 0.8032 -0.0000 0.5958
vn 0.0368 -0.9993 -0.0059
vn 0.9903 -0.0170 -0.1376
vn 0.7384 0.0133 -0.6743
vn 0.0027 1.0000 -0.0078
vn -0.0006 0.9983 -0.0579
vn -0.2926 -0.0194 -0.9560
vn -0.7028 -0.0685 -0.7081
vn -0.9936 -0.0473 0.1022
vn -0.7448 -0.0337 0.6665
vn 0.6786 0.5935 0.4327
vn -0.6786 0.5935 -0.4327
vn -0.0127 -0.9987 0.0489
vn 0.0223 -0.9997 -0.0111
vn 0.4993 -0.0511 -0.8649
vn 0.0286 0.9996 0.0091
vn -0.5828 0.0513 -0.8110
vn 0.9946 -0.0297 -0.0998
vn 0.0127 -0.9987 -0.0489
vn 0.7403 -0.0000 -0.6722
vn 0.4339 -0.0584 -0.8990
vn -0.0223 -0.9997 0.0111
vn -0.4993 -0.0511 0.8649
vn -0.2924 -0.0242 -0.9560
vn -0.0286 0.9996 -0.0091
vn 0.5828 0.0513 0.8110
vn -0.0140 -0.0025 -0.9999
vt 0.00000 0.55328
vt 0.00220 0.39260
vt 0.00303 0.00222
vt 0.00386 0.73733
vt 0.00494 0.80748
vt 0.00575 0.64570
vt 0.00992 0.82269
vt 0.01052 0.92820
vt 0.01137 0.67252
vt 0.01137 0.77234
vt 0.01590 0.49010
vt 0.01776 0.45489
vt 0.02087 0.58387
vt 0.03365 0.91742
vt 0.04146 0.83114
vt 0.04362 0.52773
vt 0.04976 0.62450
vt 0.06559 0.57570
vt 0.06829 0.42057
vt 0.07224 0.46618
vt 0.07278 0.39320
vt 0.07361 0.00282
vt 0.07555 0.61774
vt 0.08212 0.82036
vt 0.08577 0.92220
vt 0.08966 0.57409
vt 0.09217 0.83114
vt 0.10234 0.67252
vt 0.10234 0.77234
vt 0.10796 0.79915
vt 0.10877 0.63738
vt 0.10986 0.70752
vt 0.11831 0.46242
vt 0.12191 0.57062
vt 0.12391 0.54478
vt 0.13314 0.42142
vt 0.13896 0.49708
vt 0.14481 0.59381
vt 0.17009 0.46613
vt 0.17812 0.53156
vt 0.19898 0.11601
vt 0.19898 0.35588
vt 0.19898 0.62959
vt 0.20251 0.99477
vt 0.20474 0.88075
vt 0.20626 0.90294
vt 0.20686 0.81464
vt 0.21035 0.70880
vt 0.21035 0.74072
vt 0.21338 0.06087
vt 0.21338 0.30073
vt 0.21348 0.89216
vt 0.21488 0.56641
vt 0.21674 0.53120
vt 0.21986 0.66018
vt 0.23822 0.16500
vt 0.23822 0.40486
vt 0.24218 0.34171
vt 0.24261 0.60404
vt 0.24377 0.07433
vt 0.24493 0.11191
vt 0.24602 0.99419
vt 0.25094 0.89799
vt 0.25494 0.69579
vt 0.25826 0.30494
vt 0.26279 0.01459
vt 0.26458 0.65201
vt 0.26727 0.49688
vt 0.27122 0.54249
vt 0.27172 0.06048
vt 0.27368 0.37382
vt 0.28566 0.24716
vt 0.28865 0.65039
vt 0.28970 0.90294
vt 0.29329 0.98922
vt 0.29785 0.18162
vt 0.29785 0.42148
vt 0.30133 0.70880
vt 0.30133 0.74072
vt 0.30139 0.13376
vt 0.30214 0.03272
vt 0.30332 0.10845
vt 0.30332 0.34831
vt 0.30482 0.81024
vt 0.30716 0.28681
vt 0.30776 0.86620
vt 0.31061 0.69169
vt 0.31256 0.90294
vt 0.31615 0.98922
vt 0.31730 0.53873
vt 0.31992 0.04394
vt 0.32090 0.64693
vt 0.32289 0.62109
vt 0.32637 0.23187
vt 0.32637 0.47173
vt 0.32688 0.88076
vt 0.32825 0.16132
vt 0.32825 0.40119
vt 0.32901 0.81464
vt 0.32986 0.27239
vt 0.33213 0.49772
vt 0.33250 0.70880
vt 0.33250 0.74072
vt 0.33503 0.00113
vt 0.33760 0.09372
vt 0.33760 0.33359
vt 0.33795 0.57338
vt 0.34244 0.35729
vt 0.35260 0.29435
vt 0.35728 0.05223
vt 0.36152 0.09569
vt 0.36374 0.99419
vt 0.36876 0.31134
vt 0.36907 0.54244
vt 0.36907 0.62945
vt 0.37338 0.25251
vt 0.37402 0.89799
vt 0.37698 0.21573
vt 0.37698 0.45559
vt 0.38553 0.62959
vt 0.39053 0.13430
vt 0.39053 0.37416
vt 0.39756 0.03814
vt 0.39960 0.90294
vt 0.39960 0.98922
vt 0.40143 0.56641
vt 0.40309 0.09986
vt 0.40309 0.33972
vt 0.40329 0.53120
vt 0.40640 0.66018
vt 0.40687 1.00000
vt 0.41107 0.29158
vt 0.41882 0.99477
vt 0.41905 0.05326
vt 0.41905 0.18455
vt 0.41905 0.42441
vt 0.42257 0.90294
vt 0.42347 0.70880
vt 0.42347 0.74072
vt 0.42696 0.81024
vt 0.42748 0.11601
vt 0.42899 0.33736
vt 0.42980 0.89216
vt 0.42990 0.86620
vt 0.43547 0.63169
vt 0.44087 0.56332
vt 0.44148 0.69579
vt 0.44188 0.06087
vt 0.44210 0.39287
vt 0.44822 0.72676
vt 0.45115 0.78272
vt 0.45382 0.49688
vt 0.45465 0.85224
vt 0.45465 0.88416
vt 0.46234 0.99419
vt 0.46672 0.16500
vt 0.46725 0.89799
vt 0.47068 0.10184
vt 0.47227 0.31419
vt 0.47228 0.26854
vt 0.47343 0.35178
vt 0.47419 0.65528
vt 0.47722 0.41938
vt 0.48675 0.06507
vt 0.49378 0.53458
vt 0.49715 0.69169
vt 0.50022 0.30034
vt 0.50218 0.13396
vt 0.50601 0.90294
vt 0.50944 0.62109
vt 0.50961 0.98922
vt 0.51341 0.41318
vt 0.51416 0.00729
vt 0.51867 0.49772
vt 0.52273 0.56068
vt 0.52434 0.62610
vt 0.52634 0.18162
vt 0.52888 0.90294
vt 0.52989 0.37362
vt 0.53064 0.27259
vt 0.53182 0.10845
vt 0.53182 0.34831
vt 0.53247 0.98922
vt 0.53566 0.04695
vt 0.54562 0.85224
vt 0.54562 0.88416
vt 0.54842 0.28380
vt 0.54911 0.77833
vt 0.55124 0.71221
vt 0.55487 0.23187
vt 0.55487 0.47173
vt 0.55562 0.54244
vt 0.55562 0.62945
vt 0.55675 0.16132
vt 0.55836 0.03252
vt 0.55924 0.24081
vt 0.56610 0.09372
vt 0.56610 0.33359
vt 0.57094 0.11743
vt 0.57208 0.62959
vt 0.57208 0.71570
vt 0.57698 0.77203
vt 0.58005 0.99419
vt 0.58110 0.05449
vt 0.58345 0.70880
vt 0.58345 0.80612
vt 0.58345 0.85224
vt 0.58345 0.88416
vt 0.58578 0.29209
vt 0.58798 0.56641
vt 0.58825 0.37767
vt 0.58983 0.53120
vt 0.59002 0.33555
vt 0.59034 0.89799
vt 0.59295 0.66018
vt 0.59492 0.39203
vt 0.59726 0.07148
vt 0.60188 0.01265
vt 0.60548 0.21573
vt 0.60548 0.45559
vt 0.61570 0.25977
vt 0.61591 0.90294
vt 0.61591 0.98922
vt 0.61902 0.13430
vt 0.62202 0.63169
vt 0.62319 1.00000
vt 0.62741 0.56332
vt 0.62803 0.69579
vt 0.63159 0.09986
vt 0.63957 0.05172
vt 0.63957 0.30097
vt 0.64036 0.49688
vt 0.64422 0.33411
vt 0.64755 0.18455
vt 0.64755 0.42441
vt 0.65598 0.00865
vt 0.65598 0.06738
vt 0.66073 0.65528
vt 0.66092 0.33720
vt 0.66109 0.27780
vt 0.66148 0.14671
vt 0.66173 0.20108
vt 0.66735 0.00000
vt 0.66735 0.06862
vt 0.66735 0.17987
vt 0.66735 0.22789
vt 0.66735 0.36774
vt 0.67442 0.85224
vt 0.67442 0.88416
vt 0.67791 0.77833
vt 0.68004 0.71221
vt 0.68033 0.53458
vt 0.68370 0.69169
vt 0.69598 0.62109
vt 0.70522 0.49772
vt 0.70927 0.56068
vt 0.71089 0.62610
vt 0.74217 0.54244
vt 0.74217 0.62945
vt 0.75833 0.00000
vt 0.75833 0.13985
vt 0.75833 0.22789
vt 0.75833 0.32771
vt 0.76248 0.58457
vt 0.76356 0.65471
vt 0.76394 0.16666
vt 0.76394 0.35453
vt 0.76424 0.74688
vt 0.76432 0.80600
vt 0.76437 0.49294
vt 0.76458 0.08994
vt 0.76475 0.03053
vt 0.76475 0.19276
vt 0.76584 0.26290
vt 0.76999 0.51975
vt 0.76999 0.61957
vt 0.76999 0.66759
vt 0.76999 0.69951
vt 0.76999 0.84295
vt 0.78383 0.09609
vt 0.78388 0.35531
vt 0.78593 0.85695
vt 0.78601 0.28919
vt 0.78627 0.02661
vt 0.78950 0.14344
vt 0.78950 0.17536
vt 0.78950 0.18336
vt 0.78950 0.21527
vt 0.78957 0.95879
vt 0.79227 0.94801
vt 0.83805 0.86173
vt 0.85730 0.95357
vt 0.86096 0.51975
vt 0.86096 0.61957
vt 0.86096 0.66759
vt 0.86096 0.69951
vt 0.86096 0.74564
vt 0.86096 0.84295
vt 0.86118 0.85095
vt 0.86658 0.64639
vt 0.86739 0.48462
vt 0.86743 0.77973
vt 0.86848 0.55476
vt 0.87234 0.83606
vt 0.88047 0.14344
vt 0.88047 0.17536
vt 0.88047 0.18336
vt 0.88047 0.21527
vt 0.88396 0.06952
vt 0.88396 0.28480
vt 0.88571 0.49769
vt 0.88609 0.00341
vt 0.88690 0.34076
vt 0.88865 0.55364
vt 0.89069 0.66992
vt 0.89128 0.77543
vt 0.89214 0.62317
vt 0.89214 0.65509
vt 0.90027 0.00000
vt 0.90027 0.23167
vt 0.90754 0.01078
vt 0.90754 0.09706
vt 0.90754 0.24246
vt 0.90754 0.32873
vt 0.90770 0.12662
vt 0.90770 0.35829
vt 0.90807 0.78943
vt 0.90928 0.21290
vt 0.90928 0.44457
vt 0.91172 0.89127
vt 0.91441 0.76465
vt 0.91441 0.88049
vt 0.92222 0.67838
vt 0.93312 0.10201
vt 0.93312 0.33369
vt 0.94341 0.00581
vt 0.94341 0.23748
vt 0.94804 0.21785
vt 0.94804 0.44952
vt 0.95296 0.12165
vt 0.95296 0.35332
vt 0.96019 0.79421
vt 0.96289 0.66759
vt 0.96653 0.76944
vt 0.97293 0.67838
vt 0.97944 0.88605
vt 0.98311 0.62317
vt 0.98311 0.65509
vt 0.98317 0.01078
vt 0.98317 0.24246
vt 0.98332 0.78343
vt 0.98550 0.22368
vt 0.98550 0.45535
vt 0.98660 0.54925
vt 0.98873 0.48313
vt 0.99273 0.21290
vt 0.99273 0.44457
vt 0.99458 0.09706
vt 0.99458 0.32873
vt 0.99843 0.11817
vt 0.99843 0.34984
vt 1.00000 0.01078
vt 1.00000 0.24246
s 0
usemtl Racing_asphalt_rubber
f 1/53/70 8/55/70 4/43/70
f 1/53/84 41/54/84 35/68/84
f 10/323/149 12/337/149 13/335/149
f 10/323/41 13/335/41 7/324/41
f 10/323/73 3/320/73 12/337/73
f 10/345/71 2/333/71 3/343/71
f 102/63/122 104/75/122 99/62/122
f 102/63/192 108/74/192 104/75/192
f 103/51/126 108/65/126 102/58/126
f 103/6/153 100/31/153 106/28/153
f 103/6/47 106/28/47 107/9/47
f 105/193/127 114/175/127 115/192/127
f 105/193/194 110/176/194 114/175/194
f 105/32/75 106/28/75 100/31/75
f 105/32/78 115/30/78 111/29/78
f 107/9/123 105/32/123 109/4/123
f 107/9/155 106/28/155 105/32/155
f 109/4/125 111/29/125 112/10/125
f 109/4/143 103/6/143 107/9/143
f 109/4/146 112/10/146 116/5/146
f 109/4/193 105/32/193 111/29/193
f 109/72/132 116/116/132 113/100/132
f 109/72/29 108/65/29 103/51/29
f 109/72/30 113/100/30 108/65/30
f 11/283/151 15/310/151 14/313/151
f 11/283/45 14/313/45 16/281/45
f 11/41/3 12/61/3 9/56/3
f 110/176/145 104/170/145 114/175/145
f 110/176/26 100/166/26 99/162/26
f 110/176/27 105/193/27 100/166/27
f 112/10/128 115/30/128 116/5/128
f 112/10/195 111/29/195 115/30/195
f 115/192/131 119/165/131 121/174/131
f 115/192/197 114/175/197 119/165/197
f 116/116/136 122/113/136 113/100/136
f 116/116/200 118/132/200 122/113/200
f 116/311/130 121/354/130 118/314/130
f 116/311/196 115/355/196 121/354/196
f 117/85/129 114/106/129 104/83/129
f 117/85/144 108/65/144 113/100/144
f 117/85/28 104/83/28 108/65/28
f 117/85/36 113/100/36 122/109/36
f 117/88/133 119/112/133 114/89/133
f 117/88/198 122/117/198 119/112/198
f 118/132/138 123/128/138 122/113/138
f 118/314/134 120/347/134 123/317/134
f 118/314/199 121/354/199 120/347/199
f 119/112/37 124/125/37 89/131/37
f 119/165/135 120/152/135 121/174/135
f 12/337/152 17/350/152 18/359/152
f 12/337/46 18/359/46 13/335/46
f 12/61/154 11/41/154 16/50/154
f 12/61/48 16/50/48 17/60/48
f 122/117/137 124/125/137 119/112/137
f 122/117/201 127/124/201 124/125/201
f 123/128/139 127/108/139 122/113/139
f 123/317/166 120/347/166 125/348/166
f 123/317/64 125/348/64 126/318/64
f 126/122/171 125/136/171 88/119/171
f 126/122/69 88/119/69 92/98/69
f 13/67/1 8/55/1 7/59/1
f 13/67/150 22/92/150 14/87/150
f 13/67/2 15/64/2 8/55/2
f 13/67/43 14/87/43 15/64/43
f 16/242/153 14/273/153 20/262/153
f 16/242/47 20/262/47 21/246/47
f 17/60/157 16/50/157 23/66/157
f 17/60/52 23/66/52 24/81/52
f 19/274/75 20/262/75 14/273/75
f 19/274/78 29/267/78 26/263/78
f 2/333/169 10/345/169 7/344/169
f 2/333/67 7/344/67 40/331/67
f 2/333/86 39/315/86 3/343/86
f 2/333/9 40/331/9 39/315/9
f 21/246/155 20/262/155 19/274/155
f 21/246/49 19/274/49 23/240/49
f 22/92/10 18/93/10 28/107/10
f 22/92/4 19/115/4 14/87/4
f 22/92/51 28/107/51 19/115/51
f 22/92/74 13/73/74 18/93/74
f 23/240/156 19/274/156 26/263/156
f 23/240/50 26/263/50 27/239/50
f 23/240/76 16/242/76 21/246/76
f 23/66/57 27/104/57 24/81/57
f 25/363/5 18/359/5 17/350/5
f 25/70/158 31/91/158 28/105/158
f 25/70/53 28/105/53 18/82/53
f 25/70/77 17/60/77 24/81/77
f 26/263/159 29/267/159 30/247/159
f 26/263/55 30/247/55 27/239/55
f 27/104/162 32/123/162 33/110/162
f 27/104/59 33/110/59 24/81/59
f 27/201/80 30/205/80 32/202/80
f 28/107/54 29/114/54 19/115/54
f 30/205/160 29/251/160 36/250/160
f 30/205/56 36/250/56 32/202/56
f 31/326/161 33/341/161 34/339/161
f 31/326/58 34/339/58 28/329/58
f 31/91/79 25/70/79 24/81/79
f 31/91/81 24/81/81 33/110/81
f 32/123/82 37/134/82 38/127/82
f 33/110/167 32/123/167 38/127/167
f 33/110/65 38/127/65 39/111/65
f 33/341/165 39/361/165 40/357/165
f 33/341/63 40/357/63 34/339/63
f 34/90/163 43/69/163 35/68/163
f 34/90/6 29/114/6 28/107/6
f 34/90/61 35/68/61 36/101/61
f 34/90/7 36/101/7 29/114/7
f 36/250/60 37/206/60 32/202/60
f 37/206/164 36/250/164 35/248/164
f 37/206/62 35/248/62 38/207/62
f 38/207/166 35/248/166 41/249/166
f 38/207/64 41/249/64 42/208/64
f 39/111/100 6/97/100 3/80/100
f 39/111/180 38/127/180 6/97/180
f 42/121/171 41/135/171 1/118/171
f 42/121/69 1/118/69 6/97/69
f 43/316/11 40/331/11 7/344/11
f 43/353/83 34/339/83 40/357/83
f 43/69/40 7/59/40 1/53/40
f 43/69/8 1/53/8 35/68/8
f 5/287/170 4/307/170 8/308/170
f 5/287/68 8/308/68 9/288/68
f 6/97/168 1/118/168 4/94/168
f 6/97/42 9/56/42 3/80/42
f 6/97/66 4/94/66 5/76/66
f 6/97/72 5/76/72 9/56/72
f 6/97/85 38/127/85 42/121/85
f 7/59/38 8/55/38 1/53/38
f 88/126/116 94/145/116 95/130/116
f 88/126/188 89/146/188 94/145/188
f 88/126/70 95/130/70 90/120/70
f 88/126/84 125/129/84 120/152/84
f 89/146/31 120/152/31 119/165/31
f 89/146/32 88/126/32 120/152/32
f 89/330/142 124/332/142 94/346/142
f 9/288/148 8/308/148 15/310/148
f 9/288/39 15/310/39 11/283/39
f 9/56/44 12/61/44 3/80/44
f 91/48/170 90/78/170 95/79/170
f 91/48/68 95/79/68 96/49/68
f 92/98/118 96/57/118 93/71/118
f 92/98/168 88/119/168 90/95/168
f 92/98/24 127/108/24 123/128/24
f 92/98/33 93/71/33 127/108/33
f 92/98/66 90/95/66 91/77/66
f 92/98/72 91/77/72 96/57/72
f 92/98/85 123/128/85 126/122/85
f 95/130/117 99/162/117 101/147/117
f 95/130/189 94/145/189 99/162/189
f 96/49/148 95/79/148 101/84/148
f 96/49/39 101/84/39 98/47/39
f 96/57/121 102/58/121 93/71/121
f 96/57/191 98/42/191 102/58/191
f 97/342/140 94/346/140 124/332/140
f 97/342/141 127/327/141 93/351/141
f 97/342/25 124/332/25 127/327/25
f 97/46/119 99/62/119 94/44/119
f 97/46/190 102/63/190 99/62/190
f 97/46/34 93/52/34 102/63/34
f 98/42/124 103/51/124 102/58/124
f 98/47/151 101/84/151 100/86/151
f 98/47/45 100/86/45 103/45/45
f 99/162/120 100/166/120 101/147/120
f 99/162/35 104/170/35 110/176/35
usemtl Racing_kerb_white
f 44/11/70 51/13/70 48/1/70
f 44/11/84 85/12/84 79/19/84
f 44/220/23 86/216/23 85/235/23
f 45/211/108 49/172/108 47/179/108
f 45/211/109 86/216/109 49/172/109
f 45/211/22 83/213/22 81/231/22
f 45/211/88 47/179/88 83/213/88
f 46/15/169 53/27/169 50/25/169
f 46/15/67 50/25/67 84/14/67
f 46/15/86 83/7/86 47/24/86
f 46/15/9 84/14/9 83/7/9
f 47/179/174 49/172/174 56/149/174
f 47/179/90 56/149/90 57/161/90
f 48/295/106 52/278/106 49/277/106
f 48/295/185 51/296/185 52/278/185
f 50/16/38 51/13/38 44/11/38
f 52/278/172 51/296/172 55/297/172
f 52/278/87 55/297/87 56/268/87
f 53/27/71 46/15/71 47/24/71
f 53/321/149 57/336/149 58/334/149
f 53/321/41 58/334/41 50/322/41
f 53/321/73 47/319/73 57/336/73
f 54/23/110 55/17/110 51/13/110
f 56/149/111 49/172/111 52/163/111
f 56/268/173 55/297/173 54/302/173
f 56/268/89 54/302/89 59/269/89
f 57/336/152 63/349/152 64/358/152
f 57/336/46 64/358/46 58/334/46
f 58/18/1 51/13/1 50/16/1
f 58/18/12 54/23/12 51/13/12
f 59/142/14 57/161/14 56/149/14
f 59/142/15 63/159/15 57/161/15
f 59/269/175 54/302/175 61/298/175
f 59/269/91 61/298/91 62/279/91
f 60/304/112 61/298/112 54/302/112
f 62/243/107 68/237/107 59/236/107
f 62/243/176 61/260/176 60/272/176
f 62/243/186 65/244/186 68/237/186
f 62/243/93 60/272/93 65/244/93
f 65/244/178 67/271/178 71/261/178
f 65/244/95 71/261/95 72/241/95
f 66/34/10 64/35/10 73/37/10
f 66/34/13 54/23/13 58/18/13
f 66/34/74 58/26/74 64/35/74
f 66/34/92 60/38/92 54/23/92
f 67/271/114 74/266/114 71/261/114
f 67/271/16 65/244/16 60/272/16
f 67/40/177 60/38/177 66/34/177
f 67/40/94 66/34/94 73/37/94
f 68/160/17 63/159/17 59/142/17
f 68/160/96 69/180/96 63/159/96
f 68/160/99 72/196/99 69/180/99
f 68/237/115 65/244/115 72/241/115
f 69/180/101 75/221/101 77/209/101
f 69/180/181 72/196/181 75/221/181
f 70/167/158 76/187/158 73/198/158
f 70/167/53 73/198/53 64/182/53
f 70/167/77 63/159/77 69/180/77
f 70/362/5 64/358/5 63/349/5
f 72/241/179 71/261/179 74/266/179
f 72/241/98 74/266/98 75/245/98
f 73/37/97 74/39/97 67/40/97
f 76/187/79 70/167/79 69/180/79
f 76/187/81 69/180/81 77/209/81
f 76/325/161 77/340/161 78/338/161
f 76/325/58 78/338/58 73/328/58
f 77/340/165 83/360/165 84/356/165
f 77/340/63 84/356/63 78/338/63
f 78/33/163 87/20/163 79/19/163
f 78/33/6 74/39/6 73/37/6
f 78/33/61 79/19/61 80/36/61
f 78/33/7 80/36/7 74/39/7
f 80/309/102 81/280/102 75/284/102
f 80/309/18 75/284/18 74/312/18
f 81/231/19 77/209/19 75/221/19
f 81/231/20 83/213/20 77/209/20
f 81/280/103 79/305/103 82/285/103
f 81/280/182 80/309/182 79/305/182
f 82/233/113 45/211/113 81/231/113
f 82/233/187 86/216/187 45/211/187
f 82/285/104 85/306/104 86/286/104
f 82/285/183 79/305/183 85/306/183
f 86/216/105 48/191/105 49/172/105
f 86/216/184 44/220/184 48/191/184
f 87/20/21 44/11/21 79/19/21
f 87/20/40 50/16/40 44/11/40
f 87/352/83 78/338/83 84/356/83
f 87/8/11 84/14/11 50/25/11
usemtl Racing_kerb_red
f 128/210/116 134/225/116 135/215/116
f 128/210/188 129/227/188 134/225/188
f 128/210/70 135/215/70 130/200/70
f 128/210/84 165/212/84 160/232/84
f 129/227/31 160/232/31 159/252/31
f 129/227/32 128/210/32 160/232/32
f 129/289/142 164/290/142 134/292/142
f 131/102/170 130/138/170 135/139/170
f 131/102/68 135/139/68 136/103/68
f 132/194/118 136/156/118 133/168/118
f 132/194/168 128/219/168 130/190/168
f 132/194/24 167/199/24 163/229/24
f 132/194/33 133/168/33 167/199/33
f 132/194/66 130/190/66 131/177/66
f 132/194/72 131/177/72 136/156/72
f 132/194/85 163/229/85 166/224/85
f 135/215/117 139/238/117 141/228/117
f 135/215/189 134/225/189 139/238/189
f 136/103/148 135/139/148 141/140/148
f 136/103/39 141/140/39 138/99/39
f 136/156/121 142/158/121 133/168/121
f 136/156/191 138/141/191 142/158/191
f 137/137/119 139/155/119 134/133/119
f 137/137/190 142/157/190 139/155/190
f 137/137/34 133/143/34 142/157/34
f 137/291/140 134/292/140 164/290/140
f 137/291/141 167/282/141 133/299/141
f 137/291/25 164/290/25 167/282/25
f 138/141/124 143/148/124 142/158/124
f 138/99/151 141/140/151 140/144/151
f 138/99/45 140/144/45 143/96/45
f 139/238/120 140/253/120 141/228/120
f 139/238/35 144/254/35 150/257/35
f 142/157/122 144/171/122 139/155/122
f 142/157/192 148/169/192 144/171/192
f 143/148/126 148/164/126 142/158/126
f 143/270/153 140/301/153 146/293/153
f 143/270/47 146/293/47 147/275/47
f 145/259/127 154/256/127 155/258/127
f 145/259/194 150/257/194 154/256/194
f 145/303/75 146/293/75 140/301/75
f 145/303/78 155/300/78 151/294/78
f 147/275/123 145/303/123 149/264/123
f 147/275/155 146/293/155 145/303/155
f 149/173/132 156/218/132 153/195/132
f 149/173/29 148/164/29 143/148/29
f 149/173/30 153/195/30 148/164/30
f 149/264/125 151/294/125 152/276/125
f 149/264/143 143/270/143 147/275/143
f 149/264/146 152/276/146 156/265/146
f 149/264/193 145/303/193 151/294/193
f 150/257/145 144/254/145 154/256/145
f 150/257/26 140/253/26 139/238/26
f 150/257/27 145/259/27 140/253/27
f 152/276/128 155/300/128 156/265/128
f 152/276/195 151/294/195 155/300/195
f 155/258/131 159/252/131 161/255/131
f 155/258/197 154/256/197 159/252/197
f 156/150/130 161/188/130 158/151/130
f 156/150/196 155/189/196 161/188/196
f 156/218/136 162/217/136 153/195/136
f 156/218/200 158/230/200 162/217/200
f 157/178/133 159/203/133 154/183/133
f 157/178/198 162/214/198 159/203/198
f 157/184/129 154/197/129 144/181/129
f 157/184/144 148/164/144 153/195/144
f 157/184/28 144/181/28 148/164/28
f 157/184/36 153/195/36 162/204/36
f 158/151/134 160/185/134 163/153/134
f 158/151/199 161/188/199 160/185/199
f 158/230/138 163/229/138 162/217/138
f 159/203/37 164/223/37 129/226/37
f 159/252/135 160/232/135 161/255/135
f 162/214/137 164/223/137 159/203/137
f 162/214/201 167/222/201 164/223/201
f 163/153/166 160/185/166 165/186/166
f 163/153/64 165/186/64 166/154/64
f 163/229/139 167/199/139 162/217/139
f 166/224/171 165/234/171 128/219/171
f 166/224/69 128/219/69 132/194/69
usemtl Racing_sponsor_cyan
f 169/21/147 171/3/147 168/22/147
f 169/21/202 170/2/202 171/3/202
