# Blender 4.0.2
# www.blender.org
mtllib destructible_urn_lod1.mtl
o destructible_urn_lod1
v -0.149688 0.059137 0.038420
v -0.000000 0.058637 0.157044
v 0.144777 0.059286 0.047041
v 0.092563 0.059089 -0.127402
v -0.089381 0.059109 -0.123022
v -0.250000 0.170000 0.000000
v -0.144659 0.154223 0.199106
v 0.137463 0.146069 0.205446
v 0.250000 0.170000 0.000000
v 0.144659 0.154223 -0.199106
v -0.137463 0.146069 -0.205446
v -0.253626 0.401158 0.181045
v -0.093085 0.410855 0.296984
v 0.098787 0.399635 0.293471
v 0.253684 0.410855 0.180302
v 0.308480 0.406871 0.000000
v 0.253626 0.401158 -0.181045
v 0.093085 0.410855 -0.296984
v -0.098787 0.399635 -0.293471
v -0.253684 0.410855 -0.180302
v -0.308480 0.406871 -0.000000
v -0.240000 0.610000 0.000000
v -0.137325 0.627246 0.189012
v 0.127135 0.627393 0.200371
v 0.240000 0.610000 0.000000
v 0.137325 0.627246 -0.189012
v -0.127135 0.627393 -0.200371
v -0.118374 0.758659 -0.024491
v -0.091713 0.759685 0.073934
v 0.118374 0.758659 0.024491
v 0.091713 0.759685 -0.073934
v -0.174987 0.866909 0.000396
v -0.141335 0.866909 0.103175
v -0.053697 0.866909 0.166545
v 0.054451 0.866909 0.166301
v 0.141801 0.866909 0.102535
v 0.174987 0.866909 -0.000396
v 0.141335 0.866909 -0.103175
v 0.053697 0.866909 -0.166545
v -0.054451 0.866909 -0.166301
v -0.015559 0.754783 0.119074
v 0.076804 0.786536 0.104152
v 0.015559 0.754783 -0.119074
v -0.076804 0.786536 -0.104152
v -0.142952 0.901211 0.047978
v 0.007324 0.894650 0.137614
v 0.093057 0.901566 0.116870
v 0.142952 0.901211 -0.047978
v -0.007324 0.894650 -0.137614
v -0.093057 0.901566 -0.116870
v -0.141801 0.866909 -0.102535
v -0.069002 0.862117 0.100624
v 0.087770 0.843706 0.067463
v 0.115071 0.862340 -0.040532
v 0.035277 0.851111 -0.108571
v -0.112445 0.849277 0.007270
v -0.083485 0.849130 -0.076858
v 0.038122 -0.000866 0.148529
v -0.011677 0.044815 0.172773
v -0.122347 0.011503 0.124079
v -0.162249 0.047151 0.056829
v -0.129611 0.060722 -0.082238
v -0.161999 0.011596 -0.056980
v -0.079944 0.012913 -0.155258
v 0.011677 0.044815 -0.172773
v 0.103860 0.019012 -0.138149
v 0.163482 0.040988 -0.056086
v 0.121859 0.049629 0.124135
v 0.167260 0.013480 0.043048
v 0.036954 0.844091 0.113732
v -0.096747 0.845000 0.070290
v -0.109372 0.839000 -0.035537
v -0.067595 0.852143 -0.093037
v 0.036954 0.842500 -0.113732
v 0.119585 0.846111 0.000000
v -0.318000 0.355000 0.000000
v -0.294000 0.445000 0.024621
v -0.270000 0.355000 0.000000
v -0.209956 0.355000 0.253748
v -0.223379 0.445000 0.192728
v -0.067435 0.445000 0.287219
v -0.149815 0.355000 0.236116
v 0.067435 0.355000 0.287219
v 0.209956 0.445000 0.253748
v 0.149815 0.445000 0.236116
v 0.223379 0.355000 0.192728
v 0.318000 0.355000 0.000000
v 0.294000 0.445000 -0.024621
v 0.270000 0.355000 0.000000
v 0.209956 0.355000 -0.253748
v 0.223379 0.445000 -0.192728
v 0.067435 0.445000 -0.287219
v 0.149815 0.355000 -0.236116
v -0.067435 0.355000 -0.287219
v -0.209956 0.445000 -0.253748
v -0.149815 0.445000 -0.236116
v -0.223379 0.355000 -0.192728
v -0.035000 0.425000 0.304769
v -0.035000 0.375000 0.308103
v 0.035000 0.400000 0.306436
v 0.280622 0.400000 0.127981
v 0.300668 0.375000 0.060892
v 0.303839 0.425000 0.061922
v 0.208434 0.400000 -0.227339
v 0.150823 0.375000 -0.267136
v 0.152783 0.425000 -0.269833
v -0.150823 0.425000 -0.267136
v -0.152783 0.375000 -0.269833
v -0.208434 0.400000 -0.227339
v -0.300668 0.425000 0.060892
v -0.303839 0.375000 0.061922
v -0.280622 0.400000 0.127981
v 0.150000 0.640000 0.000000
v 0.180213 0.622564 0.015000
v 0.194183 0.718926 0.015000
v 0.180213 0.657436 -0.015000
v 0.208053 0.724671 -0.015000
v 0.221175 0.694531 0.006429
v 0.317569 0.674201 -0.000000
v 0.295104 0.579896 0.000000
v 0.295674 0.632588 -0.015000
v 0.295674 0.647412 0.015000
v 0.208053 0.555329 0.015000
v 0.221175 0.585469 -0.006429
v 0.194183 0.561074 -0.015000
v -0.317569 0.674201 -0.001364
v -0.289787 0.622564 0.015000
v -0.289787 0.657436 -0.015000
v -0.194183 0.718926 -0.015000
v -0.220419 0.711916 0.015000
v -0.150725 0.618634 0.006429
v -0.197338 0.688145 -0.015000
v -0.191538 0.588003 -0.015000
v -0.183193 0.618541 0.015000
v -0.261947 0.555329 0.015000
v -0.248825 0.585469 -0.007500
v -0.275817 0.561074 -0.015000
vn -0.3825 -0.7899 0.4794
vn -0.0330 -0.4439 0.8955
vn -0.5746 0.2683 0.7732
vn 0.5587 0.2533 0.7898
vn 0.5746 0.2683 -0.7732
vn -0.5587 0.2533 -0.7898
vn -0.3406 0.6808 0.6485
vn -0.0373 0.5076 0.8608
vn 0.7472 0.5499 0.3732
vn 0.3406 0.6808 -0.6485
vn 0.0373 0.5076 -0.8608
vn -0.7472 0.5499 -0.3732
vn 0.3540 -0.8097 0.4681
vn -0.3540 -0.8097 -0.4681
vn -0.2486 0.9055 0.3438
vn 0.6307 0.6731 -0.3861
vn -0.2286 0.6442 -0.7299
vn 0.2318 0.6165 0.7525
vn -0.0376 0.7876 -0.6151
vn 0.1828 0.6631 0.7259
vn -0.1656 -0.5971 0.7849
vn -0.8039 -0.5682 0.1758
vn -0.8595 0.4874 -0.1542
vn -0.7569 0.1753 -0.6296
vn 0.0910 -0.6672 -0.7393
vn 0.7624 0.6304 0.1459
vn 0.3436 -0.1198 0.9315
vn 0.0057 -1.0000 -0.0042
vn -0.9131 0.1385 0.3836
vn 0.5182 0.0113 -0.8552
vn -0.0000 -1.0000 -0.0000
vn 0.4630 -0.4490 0.7642
vn -0.0000 1.0000 -0.0000
vn -0.5182 0.0113 0.8552
vn -0.4630 -0.4490 -0.7642
vn -0.0000 -0.0665 -0.9978
vn 0.9489 -0.0665 0.3083
vn 0.5865 -0.0665 -0.8072
vn 0.5865 -0.0665 0.8072
vn 0.9489 -0.0665 -0.3083
vn -0.5329 0.2207 -0.8169
vn 0.3569 0.8731 0.3322
vn -0.5257 0.7626 -0.3769
vn 0.6203 0.2568 0.7411
vn -0.8143 -0.5089 0.2790
vn 0.7025 0.4641 0.5395
vn -0.2306 0.1790 0.9564
vn 0.2235 -0.6729 0.7052
vn 0.6349 0.4144 0.6521
vn 0.4493 0.0260 -0.8930
vn -0.9462 -0.0548 0.3190
vn -0.1220 0.7123 -0.6912
vn 0.6368 0.2637 0.7246
vn -0.8707 -0.3615 0.3333
vn 0.7096 0.4595 0.5342
vn -0.7513 -0.5574 0.3533
vn 0.3545 -0.8131 0.4618
vn 0.7492 -0.5657 0.3445
vn -0.0174 -0.6929 -0.7208
vn -0.6865 -0.6629 -0.2988
vn -0.8419 -0.3409 0.4184
vn -0.0037 -0.3557 0.9346
vn -0.5670 -0.1916 0.8011
vn 0.9298 -0.2296 0.2877
vn 0.5885 -0.1836 0.7874
vn 0.8419 -0.3409 -0.4184
vn 0.0037 -0.3557 -0.9346
vn 0.5670 -0.1916 -0.8011
vn -0.9298 -0.2296 -0.2877
vn -0.5885 -0.1836 -0.7874
vn -0.8179 0.4064 0.4072
vn 0.0388 0.3739 0.9266
vn 0.9123 0.3076 0.2705
vn 0.8179 0.4064 -0.4072
vn -0.0388 0.3739 -0.9266
vn -0.9123 0.3076 -0.2705
vn -0.7460 0.5643 0.3537
vn 0.7460 0.5643 -0.3537
vn 0.3634 0.7552 0.5455
vn -0.8416 -0.4646 0.2755
vn -0.3634 0.7552 -0.5455
vn -0.5257 -0.4416 0.7271
vn 0.0021 -0.3893 0.9211
vn 0.8752 -0.3929 0.2822
vn 0.5355 -0.4183 0.7336
vn 0.8416 -0.4646 -0.2755
vn 0.5257 -0.4416 -0.7271
vn -0.0021 -0.3893 -0.9211
vn -0.8752 -0.3929 -0.2822
vn -0.5355 -0.4183 -0.7336
vn 0.7058 -0.6303 -0.3235
vn -0.0537 0.9962 -0.0685
vn 0.0005 -1.0000 0.0004
vn -0.8647 0.4148 0.2831
vn 0.0016 0.7201 0.6938
vn 0.6058 0.7712 0.1953
vn 0.5284 0.4437 0.7238
vn 0.2486 0.9055 -0.3438
vn 0.8647 0.4148 -0.2831
vn -0.0016 0.7201 -0.6938
vn -0.6058 0.7712 -0.1953
vn -0.5284 0.4437 -0.7238
vn -0.9073 0.3180 -0.2753
vn 0.4953 -0.2012 -0.8451
vn -0.5133 0.0684 0.8555
vn 0.9075 0.3173 0.2754
vn -0.0053 0.9999 -0.0142
vn -0.4626 0.6399 0.6137
vn -0.3552 0.6528 -0.6691
vn 0.6036 -0.7620 -0.2345
vn 0.4021 0.7684 -0.4979
vn 0.5386 -0.6151 0.5758
vn -0.0276 0.9996 -0.0070
vn -0.0096 -0.9989 -0.0454
vn 0.7940 0.4541 -0.4041
vn 0.1179 0.1767 0.9772
vn -0.4630 0.4490 0.7642
vn 0.2166 0.3246 -0.9207
vn 0.9560 -0.0531 0.2886
vn -0.5182 -0.0113 -0.8552
vn -0.9540 0.1913 -0.2308
vn 0.9131 0.1385 -0.3836
vn -0.7940 0.4541 0.4041
vn -0.1179 0.1767 -0.9772
vn 0.4630 0.4490 -0.7642
vn -0.2166 0.3246 0.9207
vn -0.9560 -0.0531 -0.2886
vn 0.5182 -0.0113 0.8552
vn 0.9540 0.1913 0.2308
vn 0.0936 -0.2362 0.9672
vn -0.0000 0.0665 0.9978
vn -0.9490 0.0665 -0.3083
vn -0.5865 0.0665 0.8072
vn -0.5865 0.0665 -0.8072
vn -0.9489 0.0665 0.3083
vn -0.8143 0.5089 -0.2790
vn 0.7025 -0.4641 -0.5395
vn 0.0079 0.3354 -0.9420
vn 0.6203 -0.2568 -0.7411
vn -0.0091 -0.3404 0.9402
vn -0.5257 -0.7626 0.3769
vn 0.0628 -0.2739 -0.9597
vn 0.7681 -0.1830 -0.6136
vn 0.6858 -0.1634 0.7092
vn 0.2160 -0.9357 -0.2790
vn -0.0261 0.5868 0.8093
vn -0.2945 -0.2766 -0.9147
vn -0.0000 -0.0000 -1.0000
vn -0.5329 -0.2207 0.8169
vn 0.6432 -0.4994 -0.5805
vn -0.3479 0.9336 -0.0861
vn 0.2896 -0.9064 -0.3075
vn 0.3701 -0.0379 -0.9282
vn -0.8561 -0.3413 -0.3882
vn 0.2537 0.1011 0.9620
vn -0.5177 0.6450 0.5621
vn -0.1359 0.4255 -0.8947
vn 0.2384 0.0346 -0.9705
vn -0.8689 -0.3598 0.3399
vn -0.2709 0.8140 0.5138
vn 0.0372 -0.9984 -0.0435
vn -0.0466 -0.9806 -0.1904
vn 0.0122 -0.9999 -0.0032
vn -0.9126 0.1273 0.3886
vn 0.0355 -0.6138 -0.7886
vn -0.6728 -0.6958 -0.2512
vn -0.9333 -0.2304 0.2755
vn -0.0308 -0.3320 0.9428
vn 0.8436 -0.3300 0.4236
vn 0.9333 -0.2304 -0.2755
vn 0.0308 -0.3320 -0.9428
vn -0.8436 -0.3300 -0.4236
vn -0.9083 0.3062 0.2849
vn -0.0388 0.4398 0.8973
vn 0.8020 0.4303 0.4144
vn 0.9083 0.3062 -0.2849
vn 0.0388 0.4398 -0.8973
vn -0.8020 0.4303 -0.4144
vn -0.7432 0.6401 0.1946
vn 0.7432 0.6401 -0.1946
vn -0.8389 -0.4922 0.2324
vn -0.4711 -0.4749 0.7433
vn 0.3090 -0.5265 0.7920
vn 0.6642 -0.5264 0.5308
vn 0.8389 -0.4922 -0.2324
vn 0.4711 -0.4749 -0.7433
vn -0.3090 -0.5265 -0.7920
vn -0.6642 -0.5264 -0.5308
vn 0.6668 -0.7182 -0.1988
vn -0.0459 0.9929 -0.1100
vn -0.1651 0.9845 -0.0586
vn 0.1571 0.9658 0.2063
vn -0.0001 -1.0000 0.0012
vn 0.0007 -1.0000 -0.0050
vn 0.0859 0.7830 0.6161
vn 0.5861 0.7910 0.1757
vn 0.2709 0.8140 -0.5138
vn -0.0859 0.7830 -0.6161
vn -0.5861 0.7910 -0.1757
vn -0.8175 0.5655 -0.1091
vn -0.5894 0.5382 0.6024
vn 0.8718 0.3876 0.2994
vn -0.0195 0.9988 0.0454
vn 0.0526 0.9980 -0.0357
vn 0.1998 0.9696 0.1415
vn 0.0262 0.9979 -0.0597
vn -0.0341 0.9994 -0.0070
vn 0.1501 0.9346 0.3226
vn -0.0008 -0.9998 -0.0184
vn 0.3195 -0.9474 0.0156
vn -0.0747 -0.9935 0.0858
vn 0.8697 0.3319 -0.3654
vn -0.1179 -0.1767 0.9772
vn -0.2166 -0.3246 -0.9207
vn 0.8446 0.3387 0.4147
vn -0.7883 -0.4342 -0.4359
vn 0.9126 0.1273 -0.3886
vn -0.8697 0.3319 0.3654
vn 0.1179 -0.1767 -0.9772
vn 0.2166 -0.3246 0.9207
vn -0.8446 0.3387 -0.4147
vn 0.7883 -0.4342 0.4359
vn -0.2945 0.2766 0.9147
vn -0.1818 -0.6211 -0.7623
vn 0.1432 0.3918 0.9088
vn 0.1014 0.2280 -0.9684
vn -0.1007 -0.2150 0.9714
vn 0.0936 0.2362 -0.9672
vn -0.2293 0.3566 -0.9057
vn 0.4934 -0.8329 0.2509
vn 0.2440 -0.3040 0.9209
vn -0.4726 -0.0685 -0.8786
vt 0.00000 0.18753
vt 0.00000 0.74658
vt 0.00007 0.88402
vt 0.01098 0.62520
vt 0.03364 0.48411
vt 0.04018 0.12132
vt 0.04058 0.51269
vt 0.04329 0.74666
vt 0.04329 0.92245
vt 0.04346 0.82528
vt 0.05229 0.80466
vt 0.05229 0.85661
vt 0.05229 0.92376
vt 0.05229 0.97176
vt 0.06419 0.22939
vt 0.06672 0.92376
vt 0.06672 0.96491
vt 0.07511 0.86907
vt 0.07516 0.84897
vt 0.07554 0.92376
vt 0.07554 0.98189
vt 0.07598 0.79115
vt 0.08199 0.76264
vt 0.08199 0.89864
vt 0.08382 0.35706
vt 0.08559 0.95074
vt 0.08705 0.79548
vt 0.08949 0.92456
vt 0.08949 0.98268
vt 0.10139 0.98189
vt 0.10499 0.06877
vt 0.11188 0.88953
vt 0.11244 0.95079
vt 0.11534 0.98268
vt 0.12724 0.92940
vt 0.12724 0.97006
vt 0.13006 0.74658
vt 0.13006 0.77131
vt 0.13006 0.91469
vt 0.13626 0.01515
vt 0.13770 0.14664
vt 0.14414 0.92376
vt 0.14414 0.97571
vt 0.14535 0.88486
vt 0.14548 0.43492
vt 0.14548 0.72565
vt 0.14824 0.77174
vt 0.14940 0.25702
vt 0.15102 0.05901
vt 0.15296 0.92376
vt 0.16257 0.00499
vt 0.16287 0.94959
vt 0.16739 0.92376
vt 0.17381 0.37994
vt 0.17622 0.96222
vt 0.17622 0.99929
vt 0.17813 0.76264
vt 0.17813 0.89864
vt 0.18074 0.93639
vt 0.18415 0.87012
vt 0.18496 0.81230
vt 0.18496 0.84897
vt 0.18501 0.79221
vt 0.18529 0.02775
vt 0.18824 0.97134
vt 0.18969 0.08879
vt 0.19065 0.96222
vt 0.19948 0.93198
vt 0.19948 0.96222
vt 0.20027 0.99939
vt 0.20783 0.80466
vt 0.20783 0.85661
vt 0.21391 0.94054
vt 0.21478 0.99621
vt 0.21607 0.97150
vt 0.21666 0.85661
vt 0.21888 0.80540
vt 0.22078 0.26935
vt 0.22140 0.16792
vt 0.22273 0.96222
vt 0.22499 0.03779
vt 0.22692 0.93616
vt 0.23534 0.23217
vt 0.23716 0.96222
vt 0.23716 0.98365
vt 0.24233 0.88601
vt 0.24599 0.92376
vt 0.24599 0.96767
vt 0.25039 0.64788
vt 0.25733 0.67646
vt 0.25758 0.99693
vt 0.25775 0.95846
vt 0.26918 0.97171
vt 0.26951 0.92403
vt 0.27833 0.92376
vt 0.27849 0.00647
vt 0.27907 1.00000
vt 0.27999 0.53536
vt 0.28513 0.40539
vt 0.28845 0.08400
vt 0.28942 0.75139
vt 0.28959 0.35126
vt 0.29036 0.95837
vt 0.29073 0.96906
vt 0.29390 0.13370
vt 0.29945 0.90989
vt 0.30239 0.92376
vt 0.30239 0.99677
vt 0.30886 0.04542
vt 0.31077 0.62520
vt 0.31121 0.92376
vt 0.31121 0.99979
vt 0.31576 0.23790
vt 0.32323 0.96691
vt 0.32326 0.95780
vt 0.32406 0.00658
vt 0.33343 0.48411
vt 0.33526 0.92376
vt 0.33526 0.99985
vt 0.34037 0.51269
vt 0.34250 0.76264
vt 0.34250 0.89864
vt 0.34411 0.96749
vt 0.34727 0.40547
vt 0.35230 0.79332
vt 0.35553 0.06478
vt 0.35614 0.99867
vt 0.36215 0.69788
vt 0.36817 0.96744
vt 0.36865 0.85542
vt 0.37221 0.80466
vt 0.37377 0.00653
vt 0.38103 0.95520
vt 0.38245 0.85725
vt 0.39206 0.35126
vt 0.39493 0.77493
vt 0.39821 0.96481
vt 0.40284 0.99789
vt 0.40349 0.23228
vt 0.41439 0.13357
vt 0.41827 0.93425
vt 0.41828 0.90542
vt 0.42183 0.92062
vt 0.42825 0.98451
vt 0.43987 0.89801
vt 0.44208 0.98961
vt 0.44236 0.95720
vt 0.44527 0.42306
vt 0.44527 0.44679
vt 0.44527 0.71378
vt 0.44527 0.73751
vt 0.44742 0.75192
vt 0.45550 0.94370
vt 0.46433 0.92047
vt 0.46503 0.20767
vt 0.46849 0.91133
vt 0.47385 0.23269
vt 0.47600 0.92040
vt 0.47683 0.95952
vt 0.48618 0.75249
vt 0.49187 0.96841
vt 0.49908 0.92040
vt 0.50630 0.96155
vt 0.51061 0.00680
vt 0.51243 0.87848
vt 0.51512 0.96841
vt 0.52073 0.06500
vt 0.52139 0.78879
vt 0.52234 0.92040
vt 0.52333 0.35171
vt 0.52475 0.13413
vt 0.52840 0.46268
vt 0.52955 0.96255
vt 0.53347 0.83852
vt 0.53747 0.40574
vt 0.54230 0.83735
vt 0.54230 0.89165
vt 0.54230 0.96499
vt 0.55018 0.64788
vt 0.55346 0.78935
vt 0.55680 0.84056
vt 0.55712 0.67646
vt 0.55868 0.00693
vt 0.55868 0.05888
vt 0.55868 0.23771
vt 0.57978 0.53536
vt 0.58805 0.92832
vt 0.59958 0.73488
vt 0.59958 0.95443
vt 0.60001 0.52471
vt 0.60109 0.40569
vt 0.60230 0.06155
vt 0.60674 0.00680
vt 0.60969 0.87266
vt 0.61064 0.95845
vt 0.61377 0.79368
vt 0.62653 0.13404
vt 0.62791 0.99662
vt 0.62936 0.35162
vt 0.63091 0.98371
vt 0.63390 0.92178
vt 0.63553 0.93950
vt 0.64350 0.23466
vt 0.64778 0.63951
vt 0.65579 0.97545
vt 0.65863 0.70346
vt 0.66224 0.94828
vt 0.66847 0.13358
vt 0.66929 0.51814
vt 0.67065 0.71253
vt 0.67305 0.35113
vt 0.67790 0.98109
vt 0.67873 0.94519
vt 0.68074 0.42306
vt 0.68866 0.90357
vt 0.69091 0.76943
vt 0.69126 0.97580
vt 0.69592 0.23211
vt 0.70127 0.92688
vt 0.70475 0.08147
vt 0.70475 0.17850
vt 0.70480 0.31355
vt 0.70489 0.41286
vt 0.71636 0.00000
vt 0.71636 0.25404
vt 0.71828 0.98345
vt 0.72023 0.69783
vt 0.73211 0.98855
vt 0.73239 0.95614
vt 0.73463 0.93117
vt 0.73719 0.83734
vt 0.74708 0.08196
vt 0.74804 0.34619
vt 0.74818 0.26369
vt 0.74818 0.41294
vt 0.75089 0.63482
vt 0.75167 0.20881
vt 0.75199 0.42306
vt 0.75727 0.97103
vt 0.75839 0.51538
vt 0.75870 0.00049
vt 0.76752 0.00000
vt 0.76752 0.24195
vt 0.76752 0.40668
vt 0.76762 0.25113
vt 0.76768 0.33229
vt 0.76798 0.05712
vt 0.76798 0.14954
vt 0.76884 0.94901
vt 0.77522 0.70346
vt 0.78229 0.87634
vt 0.78332 0.96943
vt 0.78358 0.79996
vt 0.79240 0.86453
vt 0.79240 0.96438
vt 0.80264 0.76702
vt 0.80346 0.95271
vt 0.80369 0.92106
vt 0.81081 0.00011
vt 0.81091 0.25113
vt 0.81091 0.36165
vt 0.81109 0.18612
vt 0.81127 0.05723
vt 0.81320 0.64420
vt 0.81533 0.92767
vt 0.81687 0.82992
vt 0.82010 0.00000
vt 0.82010 0.21570
vt 0.82010 0.31288
vt 0.82018 0.40846
vt 0.82029 0.22526
vt 0.82068 0.71253
vt 0.82073 0.99088
vt 0.82373 0.97797
vt 0.82996 0.06414
vt 0.82996 0.14653
vt 0.83318 0.52471
vt 0.84060 0.95044
vt 0.84164 0.87487
vt 0.84227 0.50152
vt 0.84227 0.57999
vt 0.84266 0.42306
vt 0.84266 0.62849
vt 0.84800 0.93293
vt 0.85506 0.97392
vt 0.86243 0.21619
vt 0.86262 0.77186
vt 0.86347 0.40846
vt 0.86350 0.25984
vt 0.86633 0.02580
vt 0.86981 0.65596
vt 0.87144 0.90210
vt 0.87230 0.14702
vt 0.87416 0.38285
vt 0.87638 0.93712
vt 0.87696 0.40951
vt 0.87703 0.69710
vt 0.87854 0.32053
vt 0.88112 0.05684
vt 0.88202 0.26878
vt 0.88202 0.36125
vt 0.88424 0.64910
vt 0.88468 0.82417
vt 0.88556 0.58010
vt 0.88580 0.45414
vt 0.88583 0.39757
vt 0.88595 0.62860
vt 0.88863 0.37098
vt 0.89109 0.88253
vt 0.89114 0.22577
vt 0.89349 0.71253
vt 0.89478 0.46235
vt 0.89482 0.67045
vt 0.89762 0.69710
vt 0.89845 0.39999
vt 0.89945 0.37098
vt 0.89948 0.59607
vt 0.90482 0.51170
vt 0.90649 0.68517
vt 0.90812 0.97189
vt 0.90848 0.63152
vt 0.90903 0.54822
vt 0.90929 0.65858
vt 0.91240 0.38198
vt 0.91339 0.40939
vt 0.91487 0.43392
vt 0.91743 0.10827
vt 0.91754 0.00541
vt 0.92493 0.76525
vt 0.92947 0.24474
vt 0.93166 0.86787
vt 0.93190 0.31837
vt 0.93241 0.82297
vt 0.93729 0.27800
vt 0.94043 0.35118
vt 0.94123 0.81764
vt 0.95304 0.95747
vt 0.95326 0.85053
vt 0.96358 0.42846
vt 0.96369 0.53133
vt 0.96528 0.81758
vt 0.96625 0.01086
vt 0.97007 0.88930
vt 0.97630 0.08865
vt 0.98124 0.93877
vt 0.98634 0.03929
vt 1.00000 0.47990
s 0
usemtl ARPG_bone
f 1/227/56 7/204/56 6/236/56
f 10/170/68 18/157/68 17/185/68
f 10/54/171 11/25/171 19/48/171
f 10/54/67 19/48/67 18/78/67
f 11/188/165 10/210/165 4/216/165
f 11/188/59 4/216/59 5/196/59
f 11/25/70 20/15/70 19/48/70
f 12/209/167 21/240/167 6/236/167
f 12/209/61 6/236/61 7/204/61
f 13/139/3 23/140/3 12/155/3
f 15/218/169 8/211/169 9/199/169
f 15/218/64 9/199/64 16/203/64
f 15/83/4 24/105/4 14/113/4
f 17/185/170 16/203/170 9/199/170
f 17/185/66 9/199/66 10/170/66
f 18/157/5 26/171/5 17/185/5
f 2/124/2 8/102/2 7/135/2
f 2/124/57 3/99/57 8/102/57
f 2/206/1 7/204/1 1/227/1
f 20/15/6 27/41/6 19/48/6
f 20/277/172 11/264/172 6/236/172
f 20/277/69 6/236/69 21/240/69
f 22/238/173 21/240/173 12/209/173
f 22/238/71 12/209/71 23/214/71
f 22/287/12 28/256/12 27/272/12
f 22/6/178 27/41/178 20/15/178
f 22/6/76 20/15/76 21/1/76
f 23/279/7 41/254/7 29/266/7
f 24/105/174 23/140/174 13/139/174
f 24/105/72 13/139/72 14/113/72
f 24/105/8 41/126/8 23/140/8
f 24/303/79 30/329/79 41/333/79
f 25/197/175 24/208/175 15/218/175
f 25/197/176 16/203/176 17/185/176
f 25/197/73 15/218/73 16/203/73
f 25/197/74 17/185/74 26/171/74
f 25/311/9 30/329/9 24/303/9
f 26/171/10 43/167/10 31/184/10
f 27/177/11 43/187/11 26/178/11
f 27/41/177 26/79/177 18/78/177
f 27/41/75 18/78/75 19/48/75
f 27/41/81 28/31/81 43/66/81
f 28/31/14 44/49/14 43/66/14
f 29/266/179 28/256/179 22/287/179
f 29/266/77 22/287/77 23/279/77
f 29/332/182 41/335/182 34/301/182
f 29/332/82 34/301/82 33/298/82
f 3/231/194 2/215/194 1/194/194
f 3/231/58 9/253/58 8/251/58
f 3/231/93 1/194/93 5/196/93
f 30/100/13 42/109/13 41/126/13
f 31/184/180 30/192/180 25/197/180
f 31/184/186 43/167/186 39/164/186
f 31/184/78 25/197/78 26/171/78
f 31/184/87 39/164/87 38/183/87
f 32/300/181 28/334/181 29/332/181
f 32/300/80 29/332/80 33/298/80
f 32/72/101 50/63/101 51/71/101
f 32/72/199 45/60/199 50/63/199
f 35/24/195 47/18/195 46/32/195
f 35/24/95 46/32/95 34/39/95
f 36/43/184 42/36/184 30/35/184
f 36/43/84 30/35/84 37/42/84
f 37/11/196 48/22/196 47/18/196
f 37/11/96 47/18/96 36/12/96
f 37/193/185 30/192/185 31/184/185
f 37/193/86 31/184/86 38/183/86
f 40/57/100 49/47/100 39/37/100
f 40/57/198 50/63/198 49/47/198
f 41/126/183 42/109/183 35/116/183
f 41/126/83 35/116/83 34/132/83
f 42/109/85 36/96/85 35/116/85
f 43/66/187 44/49/187 40/64/187
f 43/66/88 40/64/88 39/81/88
f 44/49/90 51/40/90 40/64/90
f 45/60/94 32/72/94 33/58/94
f 46/249/17 47/252/17 53/239/17
f 46/32/15 33/58/15 34/39/15
f 46/32/160 45/60/160 33/58/160
f 47/18/97 35/24/97 36/12/97
f 48/22/103 53/19/103 47/18/103
f 48/22/200 54/27/200 53/19/200
f 48/22/99 37/11/99 38/23/99
f 49/47/18 50/63/18 57/61/18
f 49/47/197 48/22/197 38/23/197
f 49/47/98 38/23/98 39/37/98
f 5/196/193 4/216/193 3/231/193
f 5/250/166 1/227/166 6/236/166
f 5/250/60 6/236/60 11/264/60
f 50/51/102 40/64/102 51/40/102
f 51/310/188 44/330/188 28/334/188
f 51/310/89 28/334/89 32/300/89
f 52/343/19 46/345/19 53/337/19
f 52/343/192 53/337/192 54/320/192
f 52/44/104 45/60/104 46/32/104
f 54/320/190 55/295/190 57/309/190
f 55/295/20 49/292/20 57/309/20
f 55/38/105 48/22/105 49/47/105
f 55/38/201 54/27/201 48/22/201
f 56/62/106 50/63/106 45/60/106
f 56/62/16 45/60/16 52/44/16
f 56/62/202 57/61/202 50/63/202
f 57/309/191 56/331/191 52/343/191
f 57/309/92 52/343/92 54/320/92
f 7/135/168 8/102/168 14/113/168
f 7/135/62 14/113/62 13/139/62
f 7/204/63 13/190/63 12/209/63
f 8/102/65 15/83/65 14/113/65
f 9/199/189 3/191/189 4/175/189
f 9/199/91 4/175/91 10/170/91
usemtl ARPG_obsidian
f 59/142/27 58/145/27 68/156/27
f 60/122/108 59/106/108 61/130/108
f 60/134/163 63/136/163 64/152/163
f 60/134/21 58/145/21 59/142/21
f 61/130/203 59/106/203 68/86/203
f 61/130/23 62/125/23 63/131/23
f 63/131/24 62/125/24 64/121/24
f 63/322/22 60/321/22 61/317/22
f 64/121/109 62/125/109 65/101/109
f 64/152/161 66/168/161 69/165/161
f 65/101/205 62/125/205 61/130/205
f 66/168/25 64/152/25 65/160/25
f 66/181/111 65/176/111 67/180/111
f 67/174/110 69/165/110 66/168/110
f 67/77/26 68/86/26 69/76/26
f 68/156/112 58/145/112 69/165/112
f 68/86/107 65/101/107 61/130/107
f 68/86/204 67/77/204 65/101/204
f 69/165/162 58/145/162 60/134/162
f 69/165/28 60/134/28 64/152/28
f 76/232/164 79/237/164 80/221/164
f 76/232/29 80/221/29 77/220/29
f 78/150/31 76/151/31 97/128/31
f 78/304/115 80/280/115 82/305/115
f 78/304/212 77/281/212 80/280/212
f 79/182/31 76/151/31 78/150/31
f 79/182/31 78/150/31 82/179/31
f 79/237/117 81/225/117 80/221/117
f 81/223/118 83/233/118 82/235/118
f 81/223/214 85/222/214 83/233/214
f 81/282/30 82/305/30 80/280/30
f 81/288/116 83/269/116 84/289/116
f 81/288/213 79/270/213 83/269/213
f 83/186/31 79/182/31 82/179/31
f 84/90/33 85/89/33 81/98/33
f 84/90/33 88/46/33 85/89/33
f 85/222/120 86/234/120 83/233/120
f 86/259/119 88/247/119 84/242/119
f 86/259/215 87/263/215 88/247/215
f 86/271/32 84/289/32 83/269/32
f 86/286/121 88/276/121 89/293/121
f 86/286/216 85/268/216 88/276/216
f 87/263/122 91/248/122 88/247/122
f 87/263/217 90/262/217 91/248/217
f 89/149/31 87/148/31 86/172/31
f 89/293/123 91/275/123 93/290/123
f 89/293/218 88/276/218 91/275/218
f 90/117/31 87/148/31 89/149/31
f 90/117/31 89/149/31 93/120/31
f 90/262/125 92/243/125 91/248/125
f 92/2/124 94/10/124 95/3/124
f 92/2/219 90/8/219 94/10/219
f 92/260/126 94/246/126 93/245/126
f 92/260/220 96/261/220 94/246/220
f 92/267/34 93/290/34 91/275/34
f 94/110/31 90/117/31 93/120/31
f 95/5/33 77/45/33 96/7/33
f 95/5/33 96/7/33 92/4/33
f 96/261/128 97/244/128 94/246/128
f 97/241/127 77/220/127 95/224/127
f 97/241/221 76/232/221 77/220/221
f 97/307/129 77/281/129 78/304/129
f 97/307/222 96/283/222 77/281/222
f 97/9/35 95/3/35 94/10/35
usemtl ARPG_ember
f 70/327/113 74/328/113 72/346/113
f 70/327/207 75/299/207 74/328/207
f 71/318/114 73/326/114 75/347/114
f 71/318/210 72/312/210 73/326/210
f 72/346/206 71/344/206 70/327/206
f 73/326/211 74/339/211 75/347/211
f 74/328/208 73/342/208 72/346/208
f 75/347/209 70/340/209 71/318/209
usemtl ARPG_arcane
f 100/115/131 98/111/131 99/118/131
f 101/104/132 103/108/132 102/97/132
f 103/75/37 101/85/37 102/74/37
f 104/91/133 106/88/133 105/93/133
f 106/341/38 104/338/38 105/336/38
f 107/129/39 109/127/39 108/123/39
f 109/103/134 107/95/134 108/107/134
f 110/112/40 112/114/40 111/119/40
f 112/92/135 110/87/135 111/94/135
f 98/56/36 100/65/36 99/70/36
usemtl ARPG_obsidian_iron
f 113/153/130 118/141/130 115/143/130
f 113/153/223 114/147/223 118/141/223
f 113/26/45 125/29/45 123/21/45
f 114/147/149 113/153/149 123/146/149
f 114/147/44 123/146/44 124/144/44
f 115/20/136 117/28/136 113/26/136
f 116/294/137 118/308/137 114/306/137
f 116/294/46 114/306/46 124/296/46
f 117/258/139 118/265/139 116/257/139
f 117/258/41 116/257/41 113/255/41
f 118/141/140 119/133/140 115/143/140
f 118/141/225 122/137/225 119/133/225
f 118/265/138 119/284/138 121/278/138
f 118/265/224 117/258/224 119/284/224
f 118/52/141 121/50/141 122/53/141
f 119/284/143 120/285/143 121/278/143
f 119/297/42 117/291/42 115/302/42
f 120/138/146 124/144/146 123/146/146
f 120/138/227 122/137/227 124/144/227
f 120/285/142 124/274/142 121/278/142
f 120/285/226 125/273/226 124/274/226
f 121/55/43 124/59/43 122/67/43
f 122/137/144 120/138/144 119/133/144
f 123/163/145 125/161/145 120/162/145
f 124/274/147 113/255/147 116/257/147
f 124/274/228 125/273/228 113/255/228
f 126/33/54 137/34/54 135/30/54
f 127/229/159 126/230/159 135/228/159
f 127/229/53 135/228/53 136/226/53
f 128/195/148 129/201/148 132/202/148
f 128/195/229 126/189/229 129/201/229
f 128/313/150 130/323/150 127/319/150
f 128/313/55 127/319/55 136/314/55
f 129/201/153 131/207/153 132/202/153
f 130/173/151 129/166/151 126/169/151
f 130/219/47 126/230/47 127/229/47
f 131/159/49 129/154/49 130/158/49
f 132/324/154 134/315/154 130/316/154
f 132/68/48 130/73/48 128/69/48
f 133/13/152 135/17/152 137/14/152
f 133/13/230 131/16/230 135/17/230
f 133/205/50 132/202/50 131/207/50
f 133/325/51 134/315/51 132/324/51
f 133/80/52 136/82/52 134/84/52
f 134/217/155 131/212/155 130/213/155
f 135/228/156 134/217/156 136/226/156
f 135/228/231 131/212/231 134/217/231
f 137/198/157 136/200/157 133/205/157
f 137/198/158 128/195/158 136/200/158
f 137/198/232 126/189/232 128/195/232
