# Blender 4.0.2
# www.blender.org
mtllib destructible_urn_collision.mtl
o destructible_urn_collision
v -0.250000 0.170000 0.000000
v -0.202254 0.170000 0.146946
v -0.077254 0.170000 0.237764
v 0.077254 0.170000 0.237764
v 0.202254 0.170000 0.146946
v 0.250000 0.170000 0.000000
v 0.202254 0.170000 -0.146946
v 0.077254 0.170000 -0.237764
v -0.077254 0.170000 -0.237764
v -0.202254 0.170000 -0.146946
v -0.148971 0.900000 0.000000
v -0.170000 0.880000 0.000000
v -0.137533 0.880000 0.099923
v -0.120520 0.900000 0.087563
v -0.052533 0.880000 0.161680
v -0.046034 0.900000 0.141680
v 0.052533 0.880000 0.161680
v 0.046034 0.900000 0.141680
v 0.137533 0.880000 0.099923
v 0.120520 0.900000 0.087563
v 0.170000 0.880000 0.000000
v 0.148971 0.900000 0.000000
v 0.137533 0.880000 -0.099923
v 0.120520 0.900000 -0.087563
v 0.052533 0.880000 -0.161680
v 0.046034 0.900000 -0.141680
v -0.052533 0.880000 -0.161680
v -0.046034 0.900000 -0.141680
v -0.137533 0.880000 -0.099923
v -0.120520 0.900000 -0.087563
v 0.000000 0.000000 0.148971
v 0.000000 0.020000 0.170000
v -0.087563 0.000000 0.120520
v -0.099923 0.020000 0.137533
v -0.141680 0.000000 0.046034
v -0.161680 0.020000 0.052533
v -0.141680 0.000000 -0.046034
v -0.161680 0.020000 -0.052533
v -0.087563 0.000000 -0.120520
v -0.099923 0.020000 -0.137533
v 0.000000 0.000000 -0.148971
v 0.000000 0.020000 -0.170000
v 0.087563 0.000000 -0.120520
v 0.099923 0.020000 -0.137533
v 0.141680 0.000000 -0.046034
v 0.161680 0.020000 -0.052533
v 0.141680 0.000000 0.046034
v 0.161680 0.020000 0.052533
v 0.087563 0.000000 0.120520
v 0.099923 0.020000 0.137533
v -0.318000 0.355000 0.000000
v -0.257267 0.355000 0.186916
v -0.257267 0.445000 0.186916
v -0.098267 0.355000 0.302436
v -0.098267 0.445000 0.302436
v 0.098267 0.355000 0.302436
v 0.098267 0.445000 0.302436
v 0.257267 0.355000 0.186916
v 0.257267 0.445000 0.186916
v 0.318000 0.355000 0.000000
v 0.257267 0.355000 -0.186916
v 0.257267 0.445000 -0.186916
v 0.098267 0.355000 -0.302436
v 0.098267 0.445000 -0.302436
v -0.098267 0.355000 -0.302436
v -0.098267 0.445000 -0.302436
v -0.257267 0.355000 -0.186916
v -0.257267 0.445000 -0.186916
v -0.035000 0.375000 0.311436
v -0.035000 0.425000 0.311436
v 0.035000 0.375000 0.311436
v 0.035000 0.425000 0.311436
v 0.285378 0.375000 0.129526
v 0.285378 0.425000 0.129526
v 0.307009 0.375000 0.062952
v 0.307009 0.425000 0.062952
v 0.211373 0.375000 -0.231385
v 0.211373 0.425000 -0.231385
v 0.154742 0.375000 -0.272529
v 0.154742 0.425000 -0.272529
v -0.154742 0.375000 -0.272529
v -0.154742 0.425000 -0.272529
v -0.211373 0.375000 -0.231385
v -0.211373 0.425000 -0.231385
v -0.307009 0.375000 0.062952
v -0.307009 0.425000 0.062952
v -0.285378 0.375000 0.129526
v -0.285378 0.425000 0.129526
v 0.295104 0.700104 0.015000
v 0.295104 0.700104 -0.015000
v 0.320000 0.640000 0.015000
v 0.320000 0.640000 -0.015000
v -0.320000 0.640000 0.015000
v -0.320000 0.640000 -0.015000
v -0.295104 0.700104 0.015000
v -0.295104 0.700104 -0.015000
vn -0.9239 0.3827 -0.0000
vn -1.0000 -0.0070 -0.0000
vn -0.9841 -0.0162 0.1770
vn -0.9652 -0.0000 0.2615
vn -0.9510 0.0115 0.3090
vn -0.9057 0.0763 0.4170
vn -0.7316 0.3030 0.6107
vn -0.7062 0.3206 0.6312
vn -0.7838 0.5663 0.2547
vn -0.8210 0.5709 -0.0000
vn -0.7316 0.3030 -0.6107
vn -0.9394 -0.0000 -0.3428
vn -0.9508 -0.0229 -0.3089
vn -0.8978 -0.3300 -0.2917
vn -0.9054 -0.3328 0.2638
vn -0.8950 -0.3382 0.2908
vn -0.9511 -0.0000 0.3090
vn -0.8981 -0.0000 0.4399
vn -0.5878 -0.0000 0.8090
vn -0.5592 0.3079 0.7697
vn -0.7838 0.5663 -0.2547
vn -0.7062 0.3206 -0.6312
vn -0.4156 0.7071 0.5721
vn -0.6725 0.7071 0.2185
vn -0.6725 0.7071 -0.2185
vn -0.6959 -0.0000 -0.7182
vn -0.5879 0.3111 -0.7467
vn -0.5774 -0.3328 -0.7456
vn -0.5357 -0.4117 -0.7373
vn -0.6971 -0.5074 -0.5065
vn -0.8667 -0.4117 -0.2816
vn -0.5531 -0.3382 -0.7613
vn -0.8617 -0.5074 -0.0000
vn -0.8667 -0.4117 0.2816
vn -0.8875 -0.3328 0.3187
vn -0.5549 -0.3300 0.7637
vn -0.1408 -0.0000 0.9900
vn -0.0367 0.3111 0.9497
vn -0.4156 0.7071 -0.5721
vn -0.5583 0.3126 -0.7685
vn -0.0000 0.7071 0.7071
vn -0.0000 0.3126 0.9499
vn -0.0000 1.0000 -0.0000
vn -0.5878 -0.0000 -0.8090
vn -0.5307 -0.3328 -0.7795
vn -0.0000 -0.3300 -0.9440
vn -0.0000 -0.4117 -0.9113
vn -0.2663 -0.5074 -0.8195
vn -0.2185 -0.7071 -0.6725
vn -0.5721 -0.7071 -0.4156
vn -0.7071 -0.7071 -0.0000
vn -0.4680 -0.0000 -0.8837
vn -0.5721 -0.7071 0.4156
vn -0.6971 -0.5074 0.5065
vn -0.5357 -0.4117 0.7373
vn -0.0289 -0.3328 0.9426
vn -0.0000 -0.0000 1.0000
vn -0.0000 0.7071 -0.7071
vn -0.0000 0.3079 -0.9514
vn -0.5285 0.3111 -0.7899
vn 0.4156 0.7071 0.5721
vn 0.0367 0.3111 0.9497
vn 0.5592 0.3079 0.7697
vn -0.0000 -0.0000 -1.0000
vn 0.5307 -0.3328 -0.7795
vn 0.5531 -0.3382 -0.7613
vn 0.5357 -0.4117 -0.7373
vn 0.2663 -0.5074 -0.8195
vn 0.2185 -0.7071 -0.6725
vn -0.0000 -1.0000 -0.0000
vn -0.2185 -0.7071 0.6725
vn -0.2663 -0.5074 0.8195
vn -0.0000 -0.3382 0.9411
vn -0.0000 -0.4117 0.9113
vn 0.1408 -0.0000 0.9900
vn 0.4156 0.7071 -0.5721
vn 0.5583 0.3126 -0.7685
vn 0.5285 0.3111 -0.7899
vn 0.7838 0.5663 0.2547
vn 0.6725 0.7071 0.2185
vn 0.7062 0.3206 0.6312
vn 0.5878 -0.0000 0.8090
vn 0.4680 -0.0000 -0.8837
vn 0.5878 -0.0000 -0.8090
vn 0.8978 -0.3300 -0.2917
vn 0.8667 -0.4117 -0.2816
vn 0.6971 -0.5074 -0.5065
vn 0.5774 -0.3328 -0.7456
vn 0.5721 -0.7071 -0.4156
vn 0.2185 -0.7071 0.6725
vn 0.2663 -0.5074 0.8195
vn 0.5549 -0.3300 0.7637
vn 0.0289 -0.3328 0.9426
vn 0.5357 -0.4117 0.7373
vn 0.6725 0.7071 -0.2185
vn 0.7838 0.5663 -0.2547
vn 0.7062 0.3206 -0.6312
vn 0.5879 0.3111 -0.7467
vn 0.7316 0.3030 0.6107
vn 0.9239 0.3827 -0.0000
vn 0.8210 0.5709 -0.0000
vn 0.8981 -0.0000 0.4399
vn 0.9057 0.0763 0.4170
vn 0.6959 -0.0000 -0.7182
vn 0.9394 -0.0000 -0.3428
vn 0.9508 -0.0229 -0.3089
vn 0.9841 -0.0162 0.1770
vn 0.9054 -0.3328 0.2638
vn 1.0000 -0.0070 -0.0000
vn 0.8950 -0.3382 0.2908
vn 0.8667 -0.4117 0.2816
vn 0.8617 -0.5074 -0.0000
vn 0.7071 -0.7071 -0.0000
vn 0.5721 -0.7071 0.4156
vn 0.6971 -0.5074 0.5065
vn 0.8875 -0.3328 0.3187
vn 0.7316 0.3030 -0.6107
vn 0.9510 0.0115 0.3090
vn 0.9652 -0.0000 0.2615
vn 0.9511 -0.0000 0.3090
vt 0.00000 0.30896
vt 0.00000 0.73955
vt 0.01053 0.75152
vt 0.02480 0.70545
vt 0.03036 0.33017
vt 0.03532 0.71742
vt 0.05736 0.96694
vt 0.06771 0.37065
vt 0.06865 0.33808
vt 0.07302 0.91895
vt 0.09379 0.01459
vt 0.10286 0.97026
vt 0.10581 0.38978
vt 0.10633 0.00000
vt 0.10751 0.33116
vt 0.11157 0.94359
vt 0.11868 0.50047
vt 0.13340 0.60526
vt 0.14898 0.59287
vt 0.14990 0.98203
vt 0.15126 0.02646
vt 0.15669 0.01040
vt 0.15861 0.95537
vt 0.17140 0.58920
vt 0.18715 0.64247
vt 0.18943 1.00000
vt 0.19609 0.62548
vt 0.20509 0.95201
vt 0.22073 0.01259
vt 0.22434 0.02896
vt 0.22614 0.50414
vt 0.24177 0.58639
vt 0.24251 0.39445
vt 0.24421 0.33583
vt 0.25775 0.66014
vt 0.25796 0.64096
vt 0.27398 0.00572
vt 0.28297 0.37800
vt 0.28391 0.34543
vt 0.28511 0.02113
vt 0.31096 0.63342
vt 0.31551 0.49262
vt 0.31824 0.65153
vt 0.31824 0.93590
vt 0.32346 0.37278
vt 0.32440 0.34021
vt 0.34370 0.15416
vt 0.35619 0.19612
vt 0.35619 0.37980
vt 0.36000 0.31272
vt 0.36000 0.71276
vt 0.37291 0.36768
vt 0.37862 0.68004
vt 0.40520 0.65819
vt 0.40712 0.82262
vt 0.43394 0.60095
vt 0.43462 0.65143
vt 0.43795 0.01784
vt 0.44113 0.48012
vt 0.45285 0.26029
vt 0.46576 0.31525
vt 0.46579 0.77441
vt 0.47292 0.94413
vt 0.47714 0.89591
vt 0.48956 0.91124
vt 0.49585 0.97560
vt 0.49708 0.25978
vt 0.50425 0.29031
vt 0.50843 0.00000
vt 0.51412 0.43890
vt 0.53242 0.55642
vt 0.53403 0.87108
vt 0.53942 0.88949
vt 0.54404 0.24789
vt 0.54561 0.57028
vt 0.54958 0.99362
vt 0.55121 0.27842
vt 0.56174 0.57395
vt 0.56242 0.62443
vt 0.56626 0.75318
vt 0.58468 0.22691
vt 0.59556 0.53230
vt 0.59759 0.28187
vt 0.60095 0.54914
vt 0.60344 0.88718
vt 0.60606 0.58763
vt 0.60643 0.61567
vt 0.60709 0.86845
vt 0.61360 0.99131
vt 0.61777 0.41266
vt 0.65038 0.07447
vt 0.65312 0.59391
vt 0.65350 0.62195
vt 0.65717 0.90520
vt 0.66309 0.54054
vt 0.66345 0.96956
vt 0.66648 0.52248
vt 0.66841 0.88901
vt 0.67015 0.76704
vt 0.67076 0.10454
vt 0.68010 0.93667
vt 0.69457 0.64206
vt 0.69457 0.92492
vt 0.70829 0.54774
vt 0.71248 0.41142
vt 0.71806 0.28030
vt 0.71806 0.53070
vt 0.72187 0.05939
vt 0.72187 0.46476
vt 0.72187 0.49103
vt 0.72187 0.81947
vt 0.73500 0.31283
vt 0.73774 0.48320
vt 0.73805 0.05047
vt 0.74082 0.64721
vt 0.74215 0.10288
vt 0.74576 0.27212
vt 0.75452 0.31879
vt 0.75581 0.08858
vt 0.75961 0.01663
vt 0.76527 0.27807
vt 0.76704 0.46271
vt 0.77114 0.43645
vt 0.77807 0.76860
vt 0.79546 0.88944
vt 0.79955 0.13464
vt 0.80612 0.11641
vt 0.80863 0.90418
vt 0.81226 0.00000
vt 0.81542 0.46797
vt 0.81952 0.44171
vt 0.85105 0.86201
vt 0.85734 0.88015
vt 0.85771 0.47953
vt 0.86393 0.56394
vt 0.86508 0.43226
vt 0.86712 0.61433
vt 0.86975 0.12333
vt 0.87217 0.14253
vt 0.87589 0.00692
vt 0.87737 0.74275
vt 0.91065 0.60355
vt 0.92117 0.87488
vt 0.92240 0.10669
vt 0.92389 0.85601
vt 0.92620 0.03475
vt 0.93225 0.12355
vt 0.94396 0.07286
vt 0.95798 0.60765
vt 0.97574 0.89040
vt 0.97747 0.39676
vt 0.98183 0.75180
vt 0.98616 0.87371
vt 1.00000 0.62584
s 0
usemtl ARPG_collision
f 1/42/15 85/45/15 51/49/15
f 1/42/16 87/38/16 85/45/16
f 10/141/14 1/124/14 51/115/14
f 11/19/25 30/27/25 12/18/25
f 11/37/24 12/40/24 13/30/24
f 12/18/10 96/6/10 95/4/10
f 12/18/21 29/25/21 96/6/21
f 13/30/9 12/40/9 95/47/9
f 14/29/24 11/37/24 13/30/24
f 15/21/23 16/22/23 13/30/23
f 16/22/23 14/29/23 13/30/23
f 17/11/41 16/22/41 15/21/41
f 17/11/41 18/14/41 16/22/41
f 18/144/43 11/140/43 14/146/43
f 18/144/43 14/146/43 16/148/43
f 18/144/43 20/138/43 22/127/43
f 18/144/43 22/127/43 24/119/43
f 18/144/43 24/119/43 26/114/43
f 18/144/43 26/114/43 28/120/43
f 18/144/43 28/120/43 30/129/43
f 18/144/43 30/129/43 11/140/43
f 19/139/61 18/144/61 17/147/61
f 19/139/61 20/138/61 18/144/61
f 2/31/16 87/38/16 1/42/16
f 2/31/35 52/33/35 87/38/35
f 2/31/36 54/13/36 52/33/36
f 21/126/80 22/127/80 19/139/80
f 21/126/95 23/116/95 24/119/95
f 21/126/96 90/117/96 23/116/96
f 22/127/80 20/138/80 19/139/80
f 22/127/95 21/126/95 24/119/95
f 23/69/77 80/67/77 25/58/77
f 24/119/76 23/116/76 25/108/76
f 25/43/59 64/44/59 66/28/59
f 25/43/59 66/28/59 27/35/59
f 26/114/76 24/119/76 25/108/76
f 27/35/40 82/23/40 29/25/40
f 28/36/39 27/35/39 30/27/39
f 28/36/58 25/43/58 27/35/58
f 28/36/58 26/41/58 25/43/58
f 29/25/22 68/10/22 96/6/22
f 29/25/27 84/16/27 68/10/27
f 3/17/36 54/13/36 2/31/36
f 3/99/56 69/93/56 54/102/56
f 30/27/25 29/25/25 12/18/25
f 30/27/39 27/35/39 29/25/39
f 31/85/71 32/88/71 34/98/71
f 32/88/72 3/99/72 34/98/72
f 32/88/74 4/80/74 3/99/74
f 33/94/53 34/98/53 35/101/53
f 33/94/71 31/85/71 34/98/71
f 34/24/54 2/31/54 36/32/54
f 34/24/55 3/17/55 2/31/55
f 35/101/53 34/98/53 36/103/53
f 36/125/34 2/111/34 1/124/34
f 37/133/50 38/132/50 40/145/50
f 37/133/51 35/128/51 36/125/51
f 37/133/51 36/125/51 38/132/51
f 38/132/31 1/124/31 10/141/31
f 38/132/33 36/125/33 1/124/33
f 39/143/50 37/133/50 40/145/50
f 4/80/73 69/93/73 3/99/73
f 4/80/73 71/87/73 69/93/73
f 40/145/30 38/132/30 10/141/30
f 41/150/49 39/143/49 40/145/49
f 42/153/48 40/145/48 9/152/48
f 42/153/49 41/150/49 40/145/49
f 43/66/70 31/85/70 33/94/70
f 43/66/70 33/94/70 35/101/70
f 43/66/70 35/101/70 37/96/70
f 43/66/70 37/96/70 39/89/70
f 43/66/70 39/89/70 41/76/70
f 43/66/70 45/63/70 47/65/70
f 43/66/70 47/65/70 49/73/70
f 43/66/70 49/73/70 31/85/70
f 44/82/68 42/71/68 8/70/68
f 44/82/69 41/75/69 42/71/69
f 44/82/69 43/84/69 41/75/69
f 45/95/89 43/84/89 44/82/89
f 46/97/87 44/82/87 7/90/87
f 46/97/89 45/95/89 44/82/89
f 47/65/114 48/64/114 50/72/114
f 47/65/114 50/72/114 49/73/114
f 48/107/112 46/97/112 6/105/112
f 48/107/113 45/95/113 46/97/113
f 48/107/113 47/104/113 45/95/113
f 48/64/115 5/62/115 50/72/115
f 49/73/90 50/72/90 31/85/90
f 5/62/111 48/64/111 6/55/111
f 5/62/92 56/79/92 4/80/92
f 5/62/92 58/57/92 56/79/92
f 50/72/90 32/88/90 31/85/90
f 50/72/91 4/80/91 32/88/91
f 50/72/94 5/62/94 4/80/94
f 51/49/3 85/45/3 93/48/3
f 52/33/19 54/13/19 55/15/19
f 52/33/19 55/15/19 53/34/19
f 53/34/7 95/47/7 93/48/7
f 53/34/8 13/30/8 95/47/8
f 54/13/37 69/8/37 70/9/37
f 54/13/37 70/9/37 55/15/37
f 55/15/20 13/30/20 53/34/20
f 55/15/20 15/21/20 13/30/20
f 56/79/82 58/57/82 59/56/82
f 56/79/82 59/56/82 57/78/82
f 56/79/93 71/87/93 4/80/93
f 57/151/63 19/139/63 17/147/63
f 57/151/63 59/136/63 19/139/63
f 58/134/102 73/130/102 74/131/102
f 58/134/102 74/131/102 59/136/102
f 59/136/81 89/121/81 19/139/81
f 59/136/99 91/118/99 89/121/99
f 6/105/86 46/97/86 7/90/86
f 60/106/85 6/105/85 7/90/85
f 61/83/85 60/106/85 7/90/85
f 62/81/105 92/100/105 61/83/105
f 62/81/98 78/74/98 23/69/98
f 63/61/65 79/68/65 8/70/65
f 64/60/83 79/68/83 63/61/83
f 64/60/83 80/67/83 79/68/83
f 65/52/46 63/61/46 8/70/46
f 65/52/46 8/70/46 9/59/46
f 66/28/60 82/23/60 27/35/60
f 66/50/64 63/61/64 65/52/64
f 66/50/64 64/60/64 63/61/64
f 67/137/13 51/115/13 94/113/13
f 67/137/14 10/141/14 51/115/14
f 68/135/12 67/137/12 94/113/12
f 69/93/57 71/87/57 72/86/57
f 69/93/57 72/86/57 70/92/57
f 7/90/67 44/82/67 8/70/67
f 70/9/38 15/21/38 55/15/38
f 70/9/42 17/11/42 15/21/42
f 70/9/42 72/5/42 17/11/42
f 71/87/75 56/79/75 57/78/75
f 71/87/75 57/78/75 72/86/75
f 72/5/62 57/1/62 17/11/62
f 73/130/120 75/122/120 76/123/120
f 73/130/120 76/123/120 74/131/120
f 73/54/110 5/62/110 6/55/110
f 73/54/116 58/57/116 5/62/116
f 74/131/103 91/118/103 59/136/103
f 74/131/118 76/123/118 91/118/118
f 75/53/108 6/55/108 60/51/108
f 75/53/110 73/54/110 6/55/110
f 76/123/119 75/122/119 91/118/119
f 77/77/66 7/90/66 79/68/66
f 77/77/88 61/83/88 7/90/88
f 78/74/104 61/83/104 77/77/104
f 78/74/104 62/81/104 61/83/104
f 78/74/77 80/67/77 23/69/77
f 79/68/66 7/90/66 8/70/66
f 8/70/47 42/71/47 9/59/47
f 80/67/78 64/60/78 25/58/78
f 80/67/84 77/77/84 79/68/84
f 80/67/84 78/74/84 77/77/84
f 81/149/32 9/152/32 10/141/32
f 81/149/45 65/154/45 9/152/45
f 82/23/40 84/16/40 29/25/40
f 82/23/44 81/20/44 83/12/44
f 82/23/44 83/12/44 84/16/44
f 82/23/52 65/26/52 81/20/52
f 82/23/52 66/28/52 65/26/52
f 83/142/28 10/141/28 67/137/28
f 83/142/32 81/149/32 10/141/32
f 84/16/26 67/7/26 68/10/26
f 84/16/26 83/12/26 67/7/26
f 85/45/4 86/46/4 93/48/4
f 86/46/5 88/39/5 93/48/5
f 87/38/17 86/46/17 85/45/17
f 87/38/17 88/39/17 86/46/17
f 87/38/18 52/33/18 53/34/18
f 87/38/18 53/34/18 88/39/18
f 88/39/6 53/34/6 93/48/6
f 89/121/79 21/126/79 19/139/79
f 9/152/29 40/145/29 10/141/29
f 90/117/101 21/126/101 89/121/101
f 90/91/97 62/81/97 23/69/97
f 91/118/100 90/117/100 89/121/100
f 91/118/100 92/112/100 90/117/100
f 91/118/107 75/122/107 60/109/107
f 92/100/106 60/106/106 61/83/106
f 92/100/117 62/81/117 90/91/117
f 92/112/109 91/118/109 60/109/109
f 94/113/2 51/115/2 93/110/2
f 95/4/1 94/3/1 93/2/1
f 95/4/1 96/6/1 94/3/1
f 96/6/11 68/10/11 94/3/11
