# Blender 4.0.2
# www.blender.org
mtllib destructible_urn.mtl
o destructible_urn
v -0.150000 0.060000 0.000000
v -0.121353 0.060000 0.088168
v -0.046353 0.060000 0.142658
v 0.046353 0.060000 0.142658
v 0.121353 0.060000 0.088168
v 0.150000 0.060000 0.000000
v 0.121353 0.060000 -0.088168
v 0.046353 0.060000 -0.142658
v -0.046353 0.060000 -0.142658
v -0.121353 0.060000 -0.088168
v -0.250000 0.170000 0.000000
v -0.202254 0.170000 0.146946
v -0.077254 0.170000 0.237764
v 0.077254 0.170000 0.237764
v 0.202254 0.170000 0.146946
v 0.250000 0.170000 0.000000
v 0.202254 0.170000 -0.146946
v 0.077254 0.170000 -0.237764
v -0.077254 0.170000 -0.237764
v -0.202254 0.170000 -0.146946
v -0.300000 0.330000 0.000000
v -0.242705 0.330000 0.176336
v -0.092705 0.330000 0.285317
v 0.092705 0.330000 0.285317
v 0.242705 0.330000 0.176336
v 0.300000 0.330000 0.000000
v 0.242705 0.330000 -0.176336
v 0.092705 0.330000 -0.285317
v -0.092705 0.330000 -0.285317
v -0.242705 0.330000 -0.176336
v -0.300000 0.460000 0.000000
v -0.242705 0.460000 0.176336
v -0.092705 0.460000 0.285317
v 0.092705 0.460000 0.285317
v 0.242705 0.460000 0.176336
v 0.300000 0.460000 0.000000
v 0.242705 0.460000 -0.176336
v 0.092705 0.460000 -0.285317
v -0.092705 0.460000 -0.285317
v -0.242705 0.460000 -0.176336
v -0.240000 0.610000 0.000000
v -0.194164 0.610000 0.141068
v -0.074164 0.610000 0.228254
v 0.074164 0.610000 0.228254
v 0.194164 0.610000 0.141068
v 0.240000 0.610000 0.000000
v 0.194164 0.610000 -0.141068
v 0.074164 0.610000 -0.228254
v -0.074164 0.610000 -0.228254
v -0.194164 0.610000 -0.141068
v -0.140000 0.710000 0.000000
v -0.113262 0.710000 0.082290
v -0.043262 0.710000 0.133148
v 0.043262 0.710000 0.133148
v 0.113262 0.710000 0.082290
v 0.140000 0.710000 0.000000
v 0.113262 0.710000 -0.082290
v 0.043262 0.710000 -0.133148
v -0.043262 0.710000 -0.133148
v -0.113262 0.710000 -0.082290
v -0.170000 0.850000 0.000000
v -0.137533 0.850000 0.099923
v -0.052533 0.850000 0.161680
v 0.052533 0.850000 0.161680
v 0.137533 0.850000 0.099923
v 0.170000 0.850000 0.000000
v 0.137533 0.850000 -0.099923
v 0.052533 0.850000 -0.161680
v -0.052533 0.850000 -0.161680
v -0.137533 0.850000 -0.099923
v -0.133062 0.805674 -0.000000
v -0.124864 0.770542 0.000000
v -0.101017 0.770542 0.073393
v -0.107649 0.805674 0.078212
v -0.038585 0.770542 0.118753
v -0.041118 0.805674 0.126549
v 0.038585 0.770542 0.118753
v 0.041118 0.805674 0.126549
v 0.101017 0.770542 0.073393
v 0.107649 0.805674 0.078212
v 0.124864 0.770542 -0.000000
v 0.133062 0.805674 0.000000
v 0.101017 0.770542 -0.073393
v 0.107649 0.805674 -0.078212
v 0.038585 0.770542 -0.118753
v 0.041118 0.805674 -0.126549
v -0.038585 0.770542 -0.118753
v -0.041118 0.805674 -0.126549
v -0.101017 0.770542 -0.073393
v -0.107649 0.805674 -0.078212
v -0.148971 0.900000 0.000000
v -0.170000 0.880000 0.000000
v -0.137533 0.880000 0.099923
v -0.120520 0.900000 0.087563
v -0.052533 0.880000 0.161680
v -0.046034 0.900000 0.141680
v 0.052533 0.880000 0.161680
v 0.046034 0.900000 0.141680
v 0.137533 0.880000 0.099923
v 0.120520 0.900000 0.087563
v 0.170000 0.880000 0.000000
v 0.148971 0.900000 0.000000
v 0.137533 0.880000 -0.099923
v 0.120520 0.900000 -0.087563
v 0.052533 0.880000 -0.161680
v 0.046034 0.900000 -0.141680
v -0.052533 0.880000 -0.161680
v -0.046034 0.900000 -0.141680
v -0.137533 0.880000 -0.099923
v -0.120520 0.900000 -0.087563
v -0.120000 0.880000 0.000000
v -0.141029 0.900000 0.000000
v -0.114095 0.900000 0.082895
v -0.097082 0.880000 0.070534
v -0.043580 0.900000 0.134127
v -0.037082 0.880000 0.114127
v 0.043580 0.900000 0.134127
v 0.037082 0.880000 0.114127
v 0.114095 0.900000 0.082895
v 0.097082 0.880000 0.070534
v 0.141029 0.900000 -0.000000
v 0.120000 0.880000 0.000000
v 0.114095 0.900000 -0.082895
v 0.097082 0.880000 -0.070534
v 0.043580 0.900000 -0.134127
v 0.037082 0.880000 -0.114127
v -0.043580 0.900000 -0.134127
v -0.037082 0.880000 -0.114127
v -0.114095 0.900000 -0.082895
v -0.097082 0.880000 -0.070534
v -0.098971 0.840000 0.000000
v -0.120000 0.860000 0.000000
v -0.080069 0.840000 0.058174
v -0.097082 0.860000 0.070534
v -0.030584 0.840000 0.094127
v -0.037082 0.860000 0.114127
v 0.030584 0.840000 0.094127
v 0.037082 0.860000 0.114127
v 0.080069 0.840000 0.058174
v 0.097082 0.860000 0.070534
v 0.098971 0.840000 -0.000000
v 0.120000 0.860000 0.000000
v 0.080069 0.840000 -0.058174
v 0.097082 0.860000 -0.070534
v 0.030584 0.840000 -0.094127
v 0.037082 0.860000 -0.114127
v -0.030584 0.840000 -0.094127
v -0.037082 0.860000 -0.114127
v -0.080069 0.840000 -0.058174
v -0.097082 0.860000 -0.070534
v 0.000000 0.000000 0.148971
v 0.000000 0.020000 0.170000
v 0.000000 0.060000 0.148971
v 0.000000 0.040000 0.170000
v -0.087563 0.000000 0.120520
v -0.099923 0.020000 0.137533
v -0.087563 0.060000 0.120520
v -0.099923 0.040000 0.137533
v -0.141680 0.000000 0.046034
v -0.161680 0.020000 0.052533
v -0.141680 0.060000 0.046034
v -0.161680 0.040000 0.052533
v -0.141680 0.000000 -0.046034
v -0.161680 0.020000 -0.052533
v -0.141680 0.060000 -0.046034
v -0.161680 0.040000 -0.052533
v -0.087563 0.000000 -0.120520
v -0.099923 0.020000 -0.137533
v -0.087563 0.060000 -0.120520
v -0.099923 0.040000 -0.137533
v 0.000000 0.000000 -0.148971
v 0.000000 0.020000 -0.170000
v 0.000000 0.060000 -0.148971
v 0.000000 0.040000 -0.170000
v 0.087563 0.000000 -0.120520
v 0.099923 0.020000 -0.137533
v 0.087563 0.060000 -0.120520
v 0.099923 0.040000 -0.137533
v 0.141680 0.000000 -0.046034
v 0.161680 0.020000 -0.052533
v 0.141680 0.060000 -0.046034
v 0.161680 0.040000 -0.052533
v 0.141680 0.000000 0.046034
v 0.161680 0.020000 0.052533
v 0.141680 0.060000 0.046034
v 0.161680 0.040000 0.052533
v 0.087563 0.000000 0.120520
v 0.099923 0.020000 0.137533
v 0.087563 0.060000 0.120520
v 0.099923 0.040000 0.137533
v 0.000000 0.835000 0.115000
v 0.000000 0.855000 0.115000
v -0.067595 0.835000 0.093037
v -0.067595 0.855000 0.093037
v -0.109372 0.835000 0.035537
v -0.109372 0.855000 0.035537
v -0.109372 0.835000 -0.035537
v -0.109372 0.855000 -0.035537
v -0.067595 0.835000 -0.093037
v -0.067595 0.855000 -0.093037
v 0.000000 0.835000 -0.115000
v 0.000000 0.855000 -0.115000
v 0.067595 0.835000 -0.093037
v 0.067595 0.855000 -0.093037
v 0.109372 0.835000 -0.035537
v 0.109372 0.855000 -0.035537
v 0.109372 0.835000 0.035537
v 0.109372 0.855000 0.035537
v 0.067595 0.835000 0.093037
v 0.067595 0.855000 0.093037
v -0.318000 0.355000 0.000000
v -0.318000 0.445000 0.000000
v -0.270000 0.445000 0.000000
v -0.270000 0.355000 0.000000
v -0.257267 0.355000 0.186916
v -0.257267 0.445000 0.186916
v -0.218435 0.445000 0.158702
v -0.218435 0.355000 0.158702
v -0.098267 0.355000 0.302436
v -0.098267 0.445000 0.302436
v -0.083435 0.445000 0.256785
v -0.083435 0.355000 0.256785
v 0.098267 0.355000 0.302436
v 0.098267 0.445000 0.302436
v 0.083435 0.445000 0.256785
v 0.083435 0.355000 0.256785
v 0.257267 0.355000 0.186916
v 0.257267 0.445000 0.186916
v 0.218435 0.445000 0.158702
v 0.218435 0.355000 0.158702
v 0.318000 0.355000 0.000000
v 0.318000 0.445000 0.000000
v 0.270000 0.445000 0.000000
v 0.270000 0.355000 0.000000
v 0.257267 0.355000 -0.186916
v 0.257267 0.445000 -0.186916
v 0.218435 0.445000 -0.158702
v 0.218435 0.355000 -0.158702
v 0.098267 0.355000 -0.302436
v 0.098267 0.445000 -0.302436
v 0.083435 0.445000 -0.256785
v 0.083435 0.355000 -0.256785
v -0.098267 0.355000 -0.302436
v -0.098267 0.445000 -0.302436
v -0.083435 0.445000 -0.256785
v -0.083435 0.355000 -0.256785
v -0.257267 0.355000 -0.186916
v -0.257267 0.445000 -0.186916
v -0.218435 0.445000 -0.158702
v -0.218435 0.355000 -0.158702
v -0.035000 0.375000 0.311436
v -0.035000 0.425000 0.311436
v -0.035000 0.375000 0.301436
v -0.035000 0.425000 0.301436
v 0.035000 0.375000 0.311436
v 0.035000 0.425000 0.311436
v 0.035000 0.375000 0.301436
v 0.035000 0.425000 0.301436
v 0.285378 0.375000 0.129526
v 0.285378 0.425000 0.129526
v 0.275867 0.375000 0.126436
v 0.275867 0.425000 0.126436
v 0.307009 0.375000 0.062952
v 0.307009 0.425000 0.062952
v 0.297498 0.375000 0.059862
v 0.297498 0.425000 0.059862
v 0.211373 0.375000 -0.231385
v 0.211373 0.425000 -0.231385
v 0.205495 0.375000 -0.223294
v 0.205495 0.425000 -0.223294
v 0.154742 0.375000 -0.272529
v 0.154742 0.425000 -0.272529
v 0.148864 0.375000 -0.264439
v 0.148864 0.425000 -0.264439
v -0.154742 0.375000 -0.272529
v -0.154742 0.425000 -0.272529
v -0.148864 0.375000 -0.264439
v -0.148864 0.425000 -0.264439
v -0.211373 0.375000 -0.231385
v -0.211373 0.425000 -0.231385
v -0.205495 0.375000 -0.223294
v -0.205495 0.425000 -0.223294
v -0.307009 0.375000 0.062952
v -0.307009 0.425000 0.062952
v -0.297498 0.375000 0.059862
v -0.297498 0.425000 0.059862
v -0.285378 0.375000 0.129526
v -0.285378 0.425000 0.129526
v -0.275867 0.375000 0.126436
v -0.275867 0.425000 0.126436
v 0.150000 0.640000 0.015000
v 0.150000 0.640000 -0.015000
v 0.180000 0.640000 -0.015000
v 0.180000 0.640000 0.015000
v 0.174896 0.700104 0.015000
v 0.174896 0.700104 -0.015000
v 0.196109 0.678891 -0.015000
v 0.196109 0.678891 0.015000
v 0.235000 0.725000 0.015000
v 0.235000 0.725000 -0.015000
v 0.235000 0.695000 -0.015000
v 0.235000 0.695000 0.015000
v 0.295104 0.700104 0.015000
v 0.295104 0.700104 -0.015000
v 0.273891 0.678891 -0.015000
v 0.273891 0.678891 0.015000
v 0.320000 0.640000 0.015000
v 0.320000 0.640000 -0.015000
v 0.290000 0.640000 -0.015000
v 0.290000 0.640000 0.015000
v 0.295104 0.579896 0.015000
v 0.295104 0.579896 -0.015000
v 0.273891 0.601109 -0.015000
v 0.273891 0.601109 0.015000
v 0.235000 0.555000 0.015000
v 0.235000 0.555000 -0.015000
v 0.235000 0.585000 -0.015000
v 0.235000 0.585000 0.015000
v 0.174896 0.579896 0.015000
v 0.174896 0.579896 -0.015000
v 0.196109 0.601109 -0.015000
v 0.196109 0.601109 0.015000
v -0.320000 0.640000 0.015000
v -0.320000 0.640000 -0.015000
v -0.290000 0.640000 -0.015000
v -0.290000 0.640000 0.015000
v -0.295104 0.700104 0.015000
v -0.295104 0.700104 -0.015000
v -0.273891 0.678891 -0.015000
v -0.273891 0.678891 0.015000
v -0.235000 0.725000 0.015000
v -0.235000 0.725000 -0.015000
v -0.235000 0.695000 -0.015000
v -0.235000 0.695000 0.015000
v -0.174896 0.700104 0.015000
v -0.174896 0.700104 -0.015000
v -0.196109 0.678891 -0.015000
v -0.196109 0.678891 0.015000
v -0.150000 0.640000 0.015000
v -0.150000 0.640000 -0.015000
v -0.180000 0.640000 -0.015000
v -0.180000 0.640000 0.015000
v -0.174896 0.579896 0.015000
v -0.174896 0.579896 -0.015000
v -0.196109 0.601109 -0.015000
v -0.196109 0.601109 0.015000
v -0.235000 0.555000 0.015000
v -0.235000 0.555000 -0.015000
v -0.235000 0.585000 -0.015000
v -0.235000 0.585000 0.015000
v -0.295104 0.579896 0.015000
v -0.295104 0.579896 -0.015000
v -0.273891 0.601109 -0.015000
v -0.273891 0.601109 0.015000
vn -0.7194 -0.6540 0.2338
vn -0.4446 -0.6540 0.6120
vn -0.0000 -0.6540 0.7565
vn 0.4446 -0.6540 0.6120
vn 0.7194 -0.6540 0.2338
vn 0.7194 -0.6540 -0.2338
vn 0.4446 -0.6540 -0.6120
vn -0.0000 -0.6540 -0.7565
vn -0.4446 -0.6540 -0.6120
vn -0.7194 -0.6540 -0.2338
vn -0.9116 -0.2849 0.2962
vn -0.5634 -0.2849 0.7755
vn -0.0000 -0.2849 0.9586
vn 0.5634 -0.2849 0.7755
vn 0.9116 -0.2849 0.2962
vn 0.9116 -0.2849 -0.2962
vn 0.5634 -0.2849 -0.7755
vn -0.0000 -0.2849 -0.9586
vn -0.5634 -0.2849 -0.7755
vn -0.9116 -0.2849 -0.2962
vn -0.9511 -0.0000 0.3090
vn -0.5878 -0.0000 0.8090
vn -0.0000 -0.0000 1.0000
vn 0.5878 -0.0000 0.8090
vn 0.9511 -0.0000 0.3090
vn 0.9511 -0.0000 -0.3090
vn 0.5878 -0.0000 -0.8090
vn -0.0000 -0.0000 -1.0000
vn -0.5878 -0.0000 -0.8090
vn -0.9511 -0.0000 -0.3090
vn -0.8889 0.3556 0.2888
vn -0.5494 0.3556 0.7561
vn -0.0000 0.3556 0.9347
vn 0.5494 0.3556 0.7561
vn 0.8889 0.3556 0.2888
vn 0.8889 0.3556 -0.2888
vn 0.5494 0.3556 -0.7561
vn -0.0000 0.3556 -0.9347
vn -0.5494 0.3556 -0.7561
vn -0.8889 0.3556 -0.2888
vn -0.6892 0.6892 0.2239
vn -0.4259 0.6892 0.5862
vn -0.0000 0.6892 0.7246
vn 0.4259 0.6892 0.5862
vn 0.6892 0.6892 0.2239
vn 0.6892 0.6892 -0.2239
vn 0.4259 0.6892 -0.5862
vn -0.0000 0.6892 -0.7246
vn -0.4259 0.6892 -0.5862
vn -0.6892 0.6892 -0.2239
vn -0.7454 -0.6211 0.2422
vn -0.4607 -0.6211 0.6340
vn -0.0000 -0.6211 0.7837
vn 0.4607 -0.6211 0.6340
vn 0.7454 -0.6211 0.2422
vn 0.7454 -0.6211 -0.2422
vn 0.4607 -0.6211 -0.6340
vn -0.0000 -0.6211 -0.7837
vn -0.4607 -0.6211 -0.6340
vn -0.7454 -0.6211 -0.2422
vn -0.5718 0.2313 0.7871
vn -0.0000 0.2313 0.9729
vn 0.5718 0.2313 0.7871
vn 0.9253 0.2313 0.3006
vn 0.9253 0.2313 -0.3006
vn 0.5718 0.2313 -0.7871
vn -0.0000 0.2313 -0.9729
vn -0.5718 0.2313 -0.7871
vn -0.9253 0.2313 0.3006
vn -0.0000 1.0000 -0.0000
vn -0.0000 -1.0000 -0.0000
vn -0.9285 -0.2166 0.3017
vn -0.5738 -0.2166 0.7898
vn -0.0000 -0.2166 0.9763
vn 0.5738 -0.2166 0.7898
vn 0.9285 -0.2166 0.3017
vn 0.9285 -0.2166 -0.3017
vn 0.5738 -0.2166 -0.7898
vn -0.0000 -0.2166 -0.9763
vn -0.5738 -0.2166 -0.7898
vn -0.9285 -0.2166 -0.3017
vn -0.6725 0.7071 0.2185
vn -0.4156 0.7071 0.5721
vn -0.0000 0.7071 0.7071
vn 0.4156 0.7071 0.5721
vn 0.6725 0.7071 0.2185
vn 0.6725 0.7071 -0.2185
vn 0.4156 0.7071 -0.5721
vn -0.0000 0.7071 -0.7071
vn -0.4156 0.7071 -0.5721
vn -0.6725 0.7071 -0.2185
vn -0.9253 0.2313 -0.3006
vn 0.3090 -0.0000 0.9511
vn -1.0000 -0.0000 -0.0000
vn -0.8090 -0.0000 -0.5878
vn -0.3090 -0.0000 -0.9511
vn 0.3090 -0.0000 -0.9511
vn 0.8090 -0.0000 -0.5878
vn 1.0000 -0.0000 -0.0000
vn 0.8090 -0.0000 0.5878
vn -0.8090 -0.0000 0.5878
vn -0.3090 -0.0000 0.9511
vn -0.2185 -0.7071 0.6725
vn -0.2185 0.7071 0.6725
vn -0.5721 -0.7071 0.4156
vn -0.5721 0.7071 0.4156
vn -0.7071 -0.7071 -0.0000
vn -0.7071 0.7071 -0.0000
vn -0.5721 -0.7071 -0.4156
vn -0.5721 0.7071 -0.4156
vn -0.2185 -0.7071 -0.6725
vn -0.2185 0.7071 -0.6725
vn 0.2185 -0.7071 -0.6725
vn 0.2185 0.7071 -0.6725
vn 0.5721 -0.7071 -0.4156
vn 0.5721 0.7071 -0.4156
vn 0.7071 -0.7071 -0.0000
vn 0.7071 0.7071 -0.0000
vn 0.5721 -0.7071 0.4156
vn 0.5721 0.7071 0.4156
vn 0.2185 -0.7071 0.6725
vn 0.2185 0.7071 0.6725
vn -0.9239 0.3827 -0.0000
vn 0.9239 -0.3827 -0.0000
vn -0.3827 0.9239 -0.0000
vn 0.3827 -0.9239 -0.0000
vn 0.3827 0.9239 -0.0000
vn -0.3827 -0.9239 -0.0000
vn 0.9239 0.3827 -0.0000
vn -0.9239 -0.3827 -0.0000
vt 0.00000 0.18753
vt 0.00000 0.53170
vt 0.00000 0.62887
vt 0.00000 0.74658
vt 0.00000 0.92237
vt 0.00000 0.93152
vt 0.00000 0.96613
vt 0.00017 0.82520
vt 0.00481 0.93152
vt 0.00481 0.96613
vt 0.01363 0.93152
vt 0.01363 0.96613
vt 0.01845 0.93152
vt 0.01845 0.96613
vt 0.02196 0.53903
vt 0.02196 0.62154
vt 0.02727 0.93152
vt 0.02727 0.96613
vt 0.03208 0.93152
vt 0.03208 0.96613
vt 0.04018 0.12132
vt 0.04329 0.74666
vt 0.04329 0.92245
vt 0.04331 0.34664
vt 0.04346 0.82528
vt 0.04496 0.40286
vt 0.05229 0.80466
vt 0.05229 0.85661
vt 0.05229 0.92376
vt 0.05229 0.95348
vt 0.05229 0.98319
vt 0.05475 0.26817
vt 0.05557 0.45308
vt 0.05557 0.70749
vt 0.06191 0.80788
vt 0.06191 0.85340
vt 0.06554 0.80909
vt 0.06554 0.85218
vt 0.06672 0.92376
vt 0.06672 0.95348
vt 0.06672 0.98319
vt 0.06914 0.47228
vt 0.06914 0.68829
vt 0.06993 0.20582
vt 0.07516 0.81230
vt 0.07516 0.84897
vt 0.07554 0.92376
vt 0.07554 0.98189
vt 0.07862 0.95034
vt 0.08199 0.76264
vt 0.08199 0.89864
vt 0.08794 0.77105
vt 0.08794 0.89023
vt 0.08822 0.41399
vt 0.08949 0.92456
vt 0.08949 0.98268
vt 0.08965 0.08291
vt 0.09018 0.77423
vt 0.09018 0.88705
vt 0.09257 0.95114
vt 0.09613 0.13595
vt 0.09613 0.78264
vt 0.09613 0.87864
vt 0.10139 0.92376
vt 0.10139 0.98189
vt 0.10244 0.05532
vt 0.10447 0.95034
vt 0.11534 0.92456
vt 0.11534 0.98268
vt 0.11542 0.36518
vt 0.11842 0.95114
vt 0.12228 0.09144
vt 0.12724 0.92940
vt 0.12724 0.97006
vt 0.13006 0.74658
vt 0.13006 0.75698
vt 0.13006 0.76091
vt 0.13006 0.77131
vt 0.13006 0.88997
vt 0.13006 0.90036
vt 0.13006 0.90429
vt 0.13006 0.91469
vt 0.13154 0.06293
vt 0.13428 0.02326
vt 0.13446 0.04579
vt 0.13778 0.00887
vt 0.14128 0.29042
vt 0.14316 0.00000
vt 0.14414 0.92376
vt 0.14414 0.97571
vt 0.14548 0.42306
vt 0.14548 0.44679
vt 0.14548 0.71378
vt 0.14548 0.73751
vt 0.15296 0.92376
vt 0.15296 0.94299
vt 0.15296 0.96222
vt 0.15645 0.22807
vt 0.16266 0.10182
vt 0.16391 0.97129
vt 0.16391 0.99601
vt 0.16399 0.78264
vt 0.16399 0.87864
vt 0.16535 0.15375
vt 0.16739 0.92376
vt 0.16739 0.94299
vt 0.16739 0.96222
vt 0.16739 0.97130
vt 0.16739 0.99603
vt 0.16756 0.07219
vt 0.16994 0.77423
vt 0.16994 0.88705
vt 0.17218 0.77105
vt 0.17218 0.89023
vt 0.17283 0.05566
vt 0.17381 0.37994
vt 0.17622 0.92376
vt 0.17622 0.94299
vt 0.17622 0.96222
vt 0.17622 0.97129
vt 0.17622 0.99929
vt 0.17813 0.76264
vt 0.17813 0.89864
vt 0.18331 0.03586
vt 0.18496 0.81230
vt 0.18496 0.84897
vt 0.18613 0.01105
vt 0.18681 0.02147
vt 0.19065 0.92376
vt 0.19065 0.94299
vt 0.19065 0.96222
vt 0.19458 0.80909
vt 0.19458 0.85218
vt 0.19536 0.11009
vt 0.19672 0.07956
vt 0.19821 0.80788
vt 0.19821 0.85340
vt 0.19948 0.92376
vt 0.19948 0.94299
vt 0.19948 0.96222
vt 0.20027 0.97139
vt 0.20027 0.99939
vt 0.20391 0.06352
vt 0.20783 0.80466
vt 0.20783 0.85661
vt 0.21134 0.30813
vt 0.21348 0.97149
vt 0.21348 0.99621
vt 0.21391 0.92376
vt 0.21391 0.94299
vt 0.21391 0.96222
vt 0.21666 0.80466
vt 0.21666 0.85661
vt 0.21737 0.97151
vt 0.21737 0.99623
vt 0.22140 0.16792
vt 0.22182 0.47228
vt 0.22182 0.68829
vt 0.22273 0.92376
vt 0.22273 0.94299
vt 0.22273 0.96222
vt 0.22302 0.04590
vt 0.22628 0.80788
vt 0.22628 0.85340
vt 0.22652 0.03151
vt 0.22652 0.24578
vt 0.23534 0.20787
vt 0.23534 0.27215
vt 0.23540 0.45308
vt 0.23540 0.70749
vt 0.23716 0.92376
vt 0.23716 0.94299
vt 0.23716 0.96222
vt 0.23716 0.97129
vt 0.23716 0.99601
vt 0.24599 0.92376
vt 0.24599 0.95832
vt 0.24599 0.96767
vt 0.24599 0.99491
vt 0.24637 0.76264
vt 0.24637 0.89864
vt 0.25194 0.35117
vt 0.25231 0.77105
vt 0.25231 0.89023
vt 0.25526 0.13361
vt 0.26901 0.53903
vt 0.26901 0.62154
vt 0.26918 0.97171
vt 0.26918 0.99895
vt 0.26951 0.92403
vt 0.26951 0.95859
vt 0.27833 0.92376
vt 0.27833 0.95837
vt 0.27849 0.00000
vt 0.27849 0.01483
vt 0.27907 0.97067
vt 0.27907 1.00000
vt 0.28513 0.40539
vt 0.28845 0.08400
vt 0.29075 0.03669
vt 0.29096 0.53170
vt 0.29096 0.62887
vt 0.29347 0.05404
vt 0.29443 0.74658
vt 0.29443 0.75698
vt 0.29443 0.90429
vt 0.29443 0.91469
vt 0.29979 0.53170
vt 0.29979 0.62887
vt 0.30239 0.92376
vt 0.30239 0.95837
vt 0.30239 0.96744
vt 0.30239 0.99677
vt 0.31121 0.92376
vt 0.31121 0.96688
vt 0.31121 0.99979
vt 0.31124 0.95780
vt 0.31576 0.20805
vt 0.31576 0.27233
vt 0.31895 0.35132
vt 0.31959 0.13375
vt 0.32175 0.53903
vt 0.32175 0.62154
vt 0.32406 0.00010
vt 0.32406 0.01494
vt 0.32533 0.40548
vt 0.32597 0.08409
vt 0.32642 0.03677
vt 0.32694 0.05412
vt 0.33526 0.92376
vt 0.33526 0.96694
vt 0.33526 0.99985
vt 0.33529 0.95780
vt 0.33655 0.77105
vt 0.33655 0.89023
vt 0.34250 0.76264
vt 0.34250 0.89864
vt 0.34411 0.92376
vt 0.34411 0.95837
vt 0.34411 0.96749
vt 0.34411 0.99870
vt 0.34892 0.92376
vt 0.34892 0.95837
vt 0.35536 0.45308
vt 0.35536 0.70749
vt 0.36259 0.80788
vt 0.36259 0.85340
vt 0.36345 0.05409
vt 0.36533 0.03673
vt 0.36691 0.08405
vt 0.36740 0.92376
vt 0.36740 0.95837
vt 0.36817 0.96744
vt 0.36817 0.99865
vt 0.36893 0.47228
vt 0.36893 0.68829
vt 0.36920 0.40545
vt 0.37221 0.80466
vt 0.37221 0.85661
vt 0.37221 0.92376
vt 0.37221 0.95837
vt 0.37377 0.00006
vt 0.37377 0.01489
vt 0.38103 0.82058
vt 0.38103 0.87031
vt 0.38103 0.94285
vt 0.38103 0.97495
vt 0.38978 0.13369
vt 0.38984 0.86519
vt 0.39196 0.77214
vt 0.39206 0.35126
vt 0.39417 0.94866
vt 0.39417 0.96944
vt 0.39942 0.77917
vt 0.40284 0.92040
vt 0.40284 0.99789
vt 0.40349 0.20798
vt 0.40349 0.27225
vt 0.40829 0.93414
vt 0.40829 0.98428
vt 0.41828 0.90542
vt 0.42247 0.89597
vt 0.42825 0.93437
vt 0.42825 0.98451
vt 0.43369 0.92075
vt 0.43369 0.99825
vt 0.43596 0.74658
vt 0.43798 0.75677
vt 0.43900 0.13345
vt 0.44236 0.94921
vt 0.44236 0.96998
vt 0.44527 0.42306
vt 0.44527 0.44679
vt 0.44527 0.71378
vt 0.44527 0.73751
vt 0.45550 0.94370
vt 0.45550 0.97580
vt 0.46433 0.92047
vt 0.46433 0.97990
vt 0.46503 0.20767
vt 0.46648 0.90114
vt 0.46849 0.91133
vt 0.47137 0.95027
vt 0.47385 0.20839
vt 0.47385 0.27267
vt 0.47600 0.92040
vt 0.47600 0.97984
vt 0.48198 0.76195
vt 0.48304 0.95020
vt 0.48618 0.75249
vt 0.48799 0.35162
vt 0.49082 0.13404
vt 0.49187 0.92040
vt 0.49187 0.95012
vt 0.49187 0.97984
vt 0.50504 0.87875
vt 0.50630 0.92040
vt 0.50630 0.95012
vt 0.50630 0.97984
vt 0.51061 0.00033
vt 0.51061 0.01516
vt 0.51249 0.88578
vt 0.51462 0.79272
vt 0.51512 0.92040
vt 0.51512 0.95012
vt 0.51512 0.97984
vt 0.51626 0.40569
vt 0.51909 0.08429
vt 0.52105 0.03696
vt 0.52162 0.47228
vt 0.52162 0.68829
vt 0.52337 0.05431
vt 0.52342 0.78761
vt 0.52342 0.83733
vt 0.52955 0.92040
vt 0.52955 0.95012
vt 0.52955 0.97984
vt 0.53347 0.83852
vt 0.53519 0.45308
vt 0.53519 0.70749
vt 0.54230 0.79182
vt 0.54230 0.83735
vt 0.54230 0.89165
vt 0.54230 0.96499
vt 0.55176 0.74658
vt 0.55176 0.88258
vt 0.55199 0.78861
vt 0.55199 0.84056
vt 0.55868 0.00046
vt 0.55868 0.01529
vt 0.55868 0.03706
vt 0.55868 0.05440
vt 0.55868 0.08439
vt 0.55868 0.13422
vt 0.55868 0.20861
vt 0.55868 0.27289
vt 0.55868 0.35180
vt 0.55868 0.40580
vt 0.56138 0.74658
vt 0.56138 0.88258
vt 0.56161 0.78861
vt 0.56161 0.84056
vt 0.56880 0.53903
vt 0.56880 0.62154
vt 0.57044 0.83568
vt 0.57047 0.78419
vt 0.57055 0.88138
vt 0.57063 0.74658
vt 0.58006 0.83568
vt 0.58009 0.78419
vt 0.58017 0.88138
vt 0.58025 0.74658
vt 0.58805 0.90693
vt 0.58805 0.94971
vt 0.59076 0.53170
vt 0.59076 0.62887
vt 0.59398 0.05431
vt 0.59630 0.03696
vt 0.59826 0.08429
vt 0.59958 0.56380
vt 0.59958 0.73488
vt 0.59958 0.85782
vt 0.59958 0.93874
vt 0.59958 0.97012
vt 0.60027 0.50095
vt 0.60035 0.81199
vt 0.60109 0.40569
vt 0.60674 0.00033
vt 0.60674 0.01516
vt 0.61064 0.94596
vt 0.61064 0.96626
vt 0.61580 0.05406
vt 0.61793 0.91934
vt 0.61793 0.99510
vt 0.61889 0.64420
vt 0.61955 0.03670
vt 0.62251 0.93341
vt 0.62251 0.98243
vt 0.62272 0.08401
vt 0.62517 0.89536
vt 0.62653 0.13404
vt 0.62718 0.77538
vt 0.62936 0.35162
vt 0.63645 0.00000
vt 0.63645 0.01483
vt 0.63930 0.93597
vt 0.63930 0.98499
vt 0.64350 0.20839
vt 0.64350 0.27267
vt 0.64388 0.92330
vt 0.64388 0.99905
vt 0.65118 0.95213
vt 0.65118 0.97244
vt 0.65863 0.70346
vt 0.66224 0.94828
vt 0.66224 0.97966
vt 0.66734 0.91027
vt 0.66847 0.13358
vt 0.66891 0.55254
vt 0.66961 0.48969
vt 0.66982 0.76197
vt 0.67065 0.71253
vt 0.67106 0.94179
vt 0.67106 0.97389
vt 0.67305 0.35113
vt 0.67667 0.63482
vt 0.68074 0.42306
vt 0.68420 0.94761
vt 0.68420 0.96838
vt 0.69287 0.91934
vt 0.69287 0.99684
vt 0.69330 0.69783
vt 0.69592 0.20781
vt 0.69592 0.27208
vt 0.69832 0.93308
vt 0.69832 0.98322
vt 0.70475 0.08147
vt 0.70475 0.17850
vt 0.70475 0.34611
vt 0.70489 0.26361
vt 0.70489 0.41286
vt 0.70998 0.89687
vt 0.71199 0.77688
vt 0.71636 0.00000
vt 0.71636 0.25404
vt 0.71828 0.93331
vt 0.71828 0.98345
vt 0.72372 0.91970
vt 0.72372 0.99719
vt 0.73239 0.94816
vt 0.73239 0.96893
vt 0.73681 0.86025
vt 0.73758 0.81442
vt 0.73783 0.69783
vt 0.74553 0.94264
vt 0.74553 0.97474
vt 0.74708 0.08196
vt 0.74708 0.17900
vt 0.74804 0.34619
vt 0.74818 0.26369
vt 0.74818 0.41294
vt 0.75089 0.63482
vt 0.75199 0.42306
vt 0.75436 0.95222
vt 0.75436 0.98247
vt 0.75798 0.55254
vt 0.75867 0.48969
vt 0.75870 0.00049
vt 0.75870 0.25454
vt 0.76391 0.91934
vt 0.76403 0.94901
vt 0.76403 0.98568
vt 0.76752 0.00000
vt 0.76752 0.24195
vt 0.76752 0.40668
vt 0.76762 0.25113
vt 0.76768 0.33229
vt 0.76798 0.05712
vt 0.76798 0.14954
vt 0.77353 0.91934
vt 0.77365 0.94901
vt 0.77365 0.98568
vt 0.77522 0.70346
vt 0.78229 0.87634
vt 0.78332 0.94580
vt 0.78332 0.98889
vt 0.78358 0.79996
vt 0.79240 0.75253
vt 0.79240 0.86453
vt 0.79240 0.93300
vt 0.79240 0.96438
vt 0.80346 0.94022
vt 0.80346 0.96052
vt 0.81075 0.91360
vt 0.81075 0.98936
vt 0.81081 0.00011
vt 0.81081 0.24206
vt 0.81081 0.40668
vt 0.81091 0.25113
vt 0.81097 0.33229
vt 0.81127 0.05723
vt 0.81127 0.14965
vt 0.81320 0.64420
vt 0.81533 0.92767
vt 0.81533 0.97669
vt 0.81687 0.78714
vt 0.81687 0.82992
vt 0.82010 0.00000
vt 0.82010 0.21570
vt 0.82010 0.31288
vt 0.82018 0.40846
vt 0.82029 0.22526
vt 0.82068 0.71253
vt 0.82068 0.90453
vt 0.82996 0.06414
vt 0.82996 0.14653
vt 0.83213 0.93023
vt 0.83213 0.97924
vt 0.83275 0.56380
vt 0.83344 0.50095
vt 0.83670 0.91756
vt 0.83670 0.99331
vt 0.84227 0.50152
vt 0.84227 0.57999
vt 0.84227 0.63774
vt 0.84227 0.69717
vt 0.84266 0.42306
vt 0.84266 0.62849
vt 0.84400 0.94639
vt 0.84400 0.96670
vt 0.84931 0.66753
vt 0.85394 0.63767
vt 0.85394 0.69710
vt 0.85506 0.94254
vt 0.85506 0.97392
vt 0.86098 0.66746
vt 0.86243 0.00049
vt 0.86243 0.21619
vt 0.86262 0.77186
vt 0.86262 0.84520
vt 0.86339 0.31288
vt 0.86347 0.40846
vt 0.86358 0.22526
vt 0.86981 0.63767
vt 0.86981 0.66739
vt 0.86981 0.69710
vt 0.87144 0.78228
vt 0.87144 0.90210
vt 0.87144 0.93877
vt 0.87230 0.06463
vt 0.87230 0.14702
vt 0.87240 0.32002
vt 0.87240 0.39023
vt 0.87589 0.26827
vt 0.87589 0.36074
vt 0.87696 0.37105
vt 0.87696 0.40951
vt 0.88106 0.90531
vt 0.88106 0.93555
vt 0.88112 0.03929
vt 0.88112 0.07443
vt 0.88112 0.12279
vt 0.88112 0.21479
vt 0.88128 0.15122
vt 0.88128 0.18636
vt 0.88408 0.39016
vt 0.88424 0.63767
vt 0.88424 0.66739
vt 0.88424 0.69710
vt 0.88500 0.22526
vt 0.88556 0.50164
vt 0.88556 0.58010
vt 0.88595 0.42317
vt 0.88595 0.62860
vt 0.88647 0.32118
vt 0.88863 0.37098
vt 0.88863 0.40944
vt 0.88995 0.26943
vt 0.88995 0.36191
vt 0.89074 0.12279
vt 0.89074 0.21479
vt 0.89090 0.15122
vt 0.89090 0.18636
vt 0.89241 0.87243
vt 0.89241 0.96843
vt 0.89306 0.67783
vt 0.89349 0.71253
vt 0.89349 0.85203
vt 0.89478 0.46235
vt 0.89478 0.49749
vt 0.89478 0.59601
vt 0.89746 0.39139
vt 0.89762 0.65865
vt 0.89762 0.69710
vt 0.89804 0.54585
vt 0.89804 0.64452
vt 0.89836 0.88084
vt 0.89836 0.96002
vt 0.89907 0.22642
vt 0.89945 0.37098
vt 0.89945 0.40859
vt 0.89972 0.15766
vt 0.89972 0.19254
vt 0.89990 0.12279
vt 0.89990 0.21409
vt 0.90122 0.01086
vt 0.90122 0.10286
vt 0.90419 0.59612
vt 0.90474 0.67776
vt 0.90745 0.54595
vt 0.90745 0.64463
vt 0.90929 0.65858
vt 0.90929 0.69704
vt 0.90934 0.15769
vt 0.90934 0.19256
vt 0.90952 0.12281
vt 0.90952 0.21412
vt 0.91122 0.31663
vt 0.91140 0.39219
vt 0.91339 0.37178
vt 0.91339 0.40939
vt 0.91394 0.27613
vt 0.91394 0.34851
vt 0.91487 0.43392
vt 0.91487 0.52592
vt 0.91571 0.59569
vt 0.91812 0.67899
vt 0.91834 0.18306
vt 0.91836 0.14823
vt 0.91842 0.21398
vt 0.91847 0.12279
vt 0.91857 0.55173
vt 0.91857 0.63820
vt 0.91954 0.78228
vt 0.92011 0.65858
vt 0.92011 0.69619
vt 0.92108 0.24247
vt 0.92222 0.37098
vt 0.92222 0.40559
vt 0.92634 0.86110
vt 0.92634 0.87150
vt 0.92634 0.96937
vt 0.92634 0.97976
vt 0.92703 0.37098
vt 0.92703 0.40559
vt 0.92739 0.54585
vt 0.92739 0.64466
vt 0.92748 0.59525
vt 0.92796 0.18306
vt 0.92798 0.14823
vt 0.92804 0.21398
vt 0.92809 0.12279
vt 0.92857 0.31661
vt 0.93113 0.27859
vt 0.93113 0.34652
vt 0.93207 0.67979
vt 0.93241 0.74160
vt 0.93241 0.82297
vt 0.93373 0.00000
vt 0.93373 0.11372
vt 0.93406 0.65938
vt 0.93406 0.69699
vt 0.93586 0.37098
vt 0.93586 0.40559
vt 0.93692 0.19192
vt 0.93696 0.12279
vt 0.93699 0.15886
vt 0.93701 0.54585
vt 0.93701 0.64466
vt 0.93710 0.59525
vt 0.93783 0.24701
vt 0.94067 0.37098
vt 0.94067 0.40559
vt 0.94123 0.71253
vt 0.94123 0.80840
vt 0.94123 0.81764
vt 0.94123 0.85056
vt 0.94561 0.74104
vt 0.94561 0.77765
vt 0.94592 0.57978
vt 0.94592 0.62177
vt 0.94592 0.68862
vt 0.94598 0.65519
vt 0.94654 0.19192
vt 0.94658 0.12279
vt 0.94661 0.15886
vt 0.94739 0.42306
vt 0.94739 0.53678
vt 0.94813 0.54585
vt 0.94813 0.61259
vt 0.94949 0.37098
vt 0.94949 0.40559
vt 0.95064 0.71264
vt 0.95064 0.80851
vt 0.95430 0.37098
vt 0.95430 0.40559
vt 0.95432 0.88084
vt 0.95432 0.96002
vt 0.95502 0.74115
vt 0.95502 0.77777
vt 0.95533 0.57989
vt 0.95534 0.32153
vt 0.95543 0.12279
vt 0.95543 0.15740
vt 0.95543 0.16647
vt 0.95543 0.20108
vt 0.95554 0.62177
vt 0.95554 0.68862
vt 0.95560 0.65519
vt 0.95754 0.54595
vt 0.95754 0.61270
vt 0.95821 0.27891
vt 0.95821 0.35507
vt 0.96024 0.12279
vt 0.96024 0.15740
vt 0.96024 0.16647
vt 0.96024 0.20108
vt 0.96027 0.87243
vt 0.96027 0.96843
vt 0.96313 0.37098
vt 0.96313 0.39570
vt 0.96384 0.71253
vt 0.96384 0.73725
vt 0.96384 0.74632
vt 0.96384 0.77104
vt 0.96384 0.78013
vt 0.96384 0.80485
vt 0.96443 0.62179
vt 0.96443 0.64651
vt 0.96443 0.65560
vt 0.96443 0.68032
vt 0.96528 0.81758
vt 0.96528 0.85049
vt 0.96625 0.01086
vt 0.96625 0.10286
vt 0.96636 0.54622
vt 0.96636 0.57039
vt 0.96636 0.57947
vt 0.96636 0.60364
vt 0.96789 0.37098
vt 0.96789 0.39570
vt 0.96832 0.65558
vt 0.96832 0.68030
vt 0.96842 0.74633
vt 0.96842 0.77105
vt 0.96842 0.78012
vt 0.96842 0.80485
vt 0.96866 0.62177
vt 0.96866 0.64650
vt 0.96866 0.71253
vt 0.96866 0.73725
vt 0.97085 0.54585
vt 0.97085 0.57002
vt 0.97101 0.57973
vt 0.97101 0.60391
vt 0.97162 0.90531
vt 0.97162 0.93555
vt 0.97990 0.43392
vt 0.97990 0.52592
vt 0.98124 0.90210
vt 0.98124 0.93877
vt 0.98634 0.03929
vt 0.98634 0.07443
vt 1.00000 0.46235
vt 1.00000 0.49749
s 0
usemtl ARPG_bone
f 1/382/71 10/386/71 9/402/71
f 1/382/71 9/402/71 7/443/71
f 1/454/10 11/462/10 20/503/10
f 1/454/10 20/503/10 10/483/10
f 100/36/70 117/59/70 98/53/70
f 100/36/70 119/38/70 117/59/70
f 100/36/86 101/27/86 102/35/86
f 100/36/86 99/28/86 101/27/86
f 102/35/70 119/38/70 100/36/70
f 102/35/70 121/37/70 119/38/70
f 102/35/87 101/27/87 103/50/87
f 102/35/87 103/50/87 104/52/87
f 104/52/70 106/76/70 125/77/70
f 104/52/70 121/37/70 102/35/70
f 104/52/70 123/58/70 121/37/70
f 104/52/70 125/77/70 123/58/70
f 104/52/88 103/50/88 105/75/88
f 104/52/88 105/75/88 106/76/88
f 106/76/89 105/75/89 107/122/89
f 106/76/89 107/122/89 108/113/89
f 108/113/70 125/77/70 106/76/70
f 108/113/70 127/111/70 125/77/70
f 108/127/90 107/128/90 109/86/90
f 108/127/90 109/86/90 110/88/90
f 11/462/11 12/426/11 22/419/11
f 11/462/11 22/419/11 21/466/11
f 11/462/20 21/466/20 30/519/20
f 11/462/20 30/519/20 20/503/20
f 110/136/70 127/111/70 108/113/70
f 110/136/70 129/132/70 127/111/70
f 110/136/91 109/144/91 92/145/91
f 110/136/91 92/145/91 91/137/91
f 111/126/87 112/133/87 113/112/87
f 111/126/87 113/112/87 114/103/87
f 111/603/25 132/615/25 150/617/25
f 111/603/25 150/617/25 130/605/25
f 114/103/88 113/112/88 115/80/88
f 114/103/88 115/80/88 116/79/88
f 114/602/26 132/615/26 111/603/26
f 114/602/26 134/614/26 132/615/26
f 116/604/27 134/614/27 114/602/27
f 116/604/27 136/616/27 134/614/27
f 118/481/28 136/470/28 116/480/28
f 118/481/28 138/471/28 136/470/28
f 118/481/90 117/485/90 119/486/90
f 118/481/90 119/486/90 120/482/90
f 118/63/89 115/80/89 117/59/89
f 118/63/89 116/79/89 115/80/89
f 120/46/91 119/38/91 121/37/91
f 120/46/91 121/37/91 122/45/91
f 120/482/29 138/471/29 118/481/29
f 120/482/29 140/472/29 138/471/29
f 122/45/82 121/37/82 123/58/82
f 122/45/82 123/58/82 124/62/82
f 122/679/30 140/694/30 120/675/30
f 122/679/30 142/700/30 140/694/30
f 124/62/83 123/58/83 125/77/83
f 124/62/83 125/77/83 126/78/83
f 124/678/21 142/700/21 122/679/21
f 124/678/21 144/699/21 142/700/21
f 126/674/22 144/699/22 124/678/22
f 126/674/22 146/693/22 144/699/22
f 128/102/84 125/77/84 127/111/84
f 128/102/84 126/78/84 125/77/84
f 128/102/85 127/111/85 129/132/85
f 128/102/85 129/132/85 130/125/85
f 128/686/23 146/666/23 126/685/23
f 128/686/23 148/667/23 146/666/23
f 13/395/12 22/419/12 12/426/12
f 13/395/12 23/380/12 22/419/12
f 130/125/86 112/133/86 111/126/86
f 130/125/86 129/132/86 112/133/86
f 130/684/24 148/667/24 128/686/24
f 130/684/24 150/665/24 148/667/24
f 131/641/86 149/597/86 150/584/86
f 131/641/86 150/584/86 132/640/86
f 133/697/70 135/756/70 137/757/70
f 133/697/87 131/641/87 132/640/87
f 133/697/87 132/640/87 134/718/87
f 135/756/88 133/697/88 134/718/88
f 135/756/88 134/718/88 136/760/88
f 135/756/89 136/760/89 138/761/89
f 135/756/89 138/761/89 137/757/89
f 137/757/70 139/698/70 141/642/70
f 137/757/70 141/642/70 145/559/70
f 137/757/70 145/559/70 149/597/70
f 139/465/90 137/464/90 138/471/90
f 139/465/90 138/471/90 140/472/90
f 14/220/13 23/278/13 13/271/13
f 14/220/13 24/219/13 23/278/13
f 141/642/70 143/598/70 145/559/70
f 141/642/91 139/698/91 140/719/91
f 141/642/91 140/719/91 142/643/91
f 143/598/82 141/642/82 142/643/82
f 143/598/82 142/643/82 144/585/82
f 145/559/70 147/558/70 149/597/70
f 145/559/83 143/598/83 144/585/83
f 145/559/83 144/585/83 146/549/83
f 145/559/84 146/549/84 148/548/84
f 145/559/84 148/548/84 147/558/84
f 149/597/70 131/641/70 133/697/70
f 149/597/70 133/697/70 137/757/70
f 149/597/85 147/558/85 148/548/85
f 149/597/85 148/548/85 150/584/85
f 15/182/14 24/219/14 14/220/14
f 15/182/14 25/168/14 24/219/14
f 16/403/15 25/434/15 15/425/15
f 16/403/15 26/409/15 25/434/15
f 16/403/16 17/357/16 27/356/16
f 16/403/16 27/356/16 26/409/16
f 18/311/17 27/356/17 17/357/17
f 18/311/17 28/305/17 27/356/17
f 19/70/18 28/146/18 18/116/18
f 19/70/18 29/87/18 28/146/18
f 2/432/1 11/462/1 1/454/1
f 2/432/1 12/426/1 11/462/1
f 20/24/19 29/87/19 19/70/19
f 20/24/19 30/32/19 29/87/19
f 21/466/30 31/467/30 40/520/30
f 21/466/30 40/520/30 30/519/30
f 22/419/21 31/467/21 21/466/21
f 22/419/21 32/420/21 31/467/21
f 23/380/22 32/420/22 22/419/22
f 23/380/22 33/385/22 32/420/22
f 24/219/23 33/277/23 23/278/23
f 24/219/23 34/218/23 33/277/23
f 25/168/24 34/218/24 24/219/24
f 25/168/24 35/167/24 34/218/24
f 26/409/25 35/433/25 25/434/25
f 26/409/25 36/408/25 35/433/25
f 27/356/26 36/408/26 26/409/26
f 27/356/26 37/355/26 36/408/26
f 28/305/27 37/355/27 27/356/27
f 28/305/27 38/304/27 37/355/27
f 29/87/28 38/166/28 28/146/28
f 29/87/28 39/98/28 38/166/28
f 3/257/3 14/220/3 13/271/3
f 3/257/3 4/226/3 14/220/3
f 3/414/2 12/426/2 2/432/2
f 3/414/2 13/395/2 12/426/2
f 3/417/71 2/400/71 1/382/71
f 30/32/29 39/98/29 29/87/29
f 30/32/29 40/44/29 39/98/29
f 32/420/31 41/463/31 31/467/31
f 32/420/31 42/427/31 41/463/31
f 33/277/32 42/289/32 32/300/32
f 33/277/32 43/268/32 42/289/32
f 33/277/33 34/218/33 44/221/33
f 33/277/33 44/221/33 43/268/33
f 35/167/34 44/221/34 34/218/34
f 35/167/34 45/185/34 44/221/34
f 35/433/35 36/408/35 46/401/35
f 35/433/35 46/401/35 45/418/35
f 37/355/36 46/401/36 36/408/36
f 37/355/36 47/354/36 46/401/36
f 38/166/38 39/98/38 49/104/38
f 38/166/38 49/104/38 48/156/38
f 38/304/37 47/354/37 37/355/37
f 38/304/37 48/312/37 47/354/37
f 4/226/4 15/182/4 14/220/4
f 4/226/4 5/198/4 15/182/4
f 40/44/39 49/104/39 39/98/39
f 40/44/39 50/61/39 49/104/39
f 40/44/40 31/1/40 41/21/40
f 40/44/40 41/21/40 50/61/40
f 41/539/41 42/540/41 52/507/41
f 41/539/41 52/507/41 51/506/41
f 41/539/50 51/506/50 60/488/50
f 41/539/50 60/488/50 50/513/50
f 42/540/42 43/514/42 53/489/42
f 42/540/42 53/489/42 52/507/42
f 44/221/43 53/250/43 43/268/43
f 44/221/43 54/227/43 53/250/43
f 45/547/44 54/658/44 44/588/44
f 45/547/44 55/634/44 54/658/44
f 46/401/46 47/354/46 57/353/46
f 46/401/46 57/353/46 56/379/46
f 46/587/45 55/634/45 45/547/45
f 46/587/45 56/657/45 55/634/45
f 47/354/47 48/312/47 58/328/47
f 47/354/47 58/328/47 57/353/47
f 49/343/48 58/374/48 48/344/48
f 49/343/48 59/373/48 58/374/48
f 5/452/71 4/442/71 3/417/71
f 50/61/49 59/99/49 49/104/49
f 50/61/49 60/72/49 59/99/49
f 51/57/92 72/66/92 89/83/92
f 51/57/92 89/83/92 60/72/92
f 52/702/61 53/713/61 75/655/61
f 52/702/61 75/655/61 73/653/61
f 52/702/69 72/654/69 51/712/69
f 52/702/69 73/653/69 72/654/69
f 54/227/62 75/248/62 53/250/62
f 54/227/62 77/229/62 75/248/62
f 55/199/63 77/229/63 54/227/63
f 55/199/63 79/203/63 77/229/63
f 56/379/64 79/392/64 55/399/64
f 56/379/64 81/377/64 79/392/64
f 57/353/65 81/377/65 56/379/65
f 57/353/65 83/352/65 81/377/65
f 57/353/66 58/328/66 85/332/66
f 57/353/66 85/332/66 83/352/66
f 59/99/67 85/135/67 58/134/67
f 59/99/67 87/110/67 85/135/67
f 6/453/5 15/484/5 5/452/5
f 6/453/5 16/487/5 15/484/5
f 60/72/68 87/110/68 59/99/68
f 60/72/68 89/83/68 87/110/68
f 61/578/30 109/570/30 70/599/30
f 61/578/30 92/554/30 109/570/30
f 62/575/21 92/554/21 61/578/21
f 62/575/21 93/552/21 92/554/21
f 63/579/22 93/552/22 62/575/22
f 63/579/22 95/555/22 93/552/22
f 64/225/23 95/262/23 63/263/23
f 64/225/23 97/224/23 95/262/23
f 65/195/24 97/224/24 64/225/24
f 65/195/24 99/194/24 97/224/24
f 66/389/25 101/388/25 99/404/25
f 66/389/25 99/404/25 65/405/25
f 67/350/26 101/388/26 66/389/26
f 67/350/26 103/349/26 101/388/26
f 68/321/27 103/349/27 67/350/27
f 68/321/27 105/320/27 103/349/27
f 69/124/28 105/165/28 68/162/28
f 69/124/28 107/128/28 105/165/28
f 7/358/6 16/403/6 6/387/6
f 7/358/6 17/357/6 16/403/6
f 7/443/71 3/417/71 1/382/71
f 7/443/71 5/452/71 3/417/71
f 7/443/71 6/453/71 5/452/71
f 70/84/29 107/128/29 69/124/29
f 70/84/29 109/86/29 107/128/29
f 71/622/60 61/578/60 70/599/60
f 71/622/60 70/599/60 90/637/60
f 74/618/51 61/578/51 71/622/51
f 74/618/51 62/575/51 61/578/51
f 74/618/72 71/622/72 72/654/72
f 74/618/72 72/654/72 73/653/72
f 76/623/52 62/575/52 74/618/52
f 76/623/52 63/579/52 62/575/52
f 76/623/73 73/653/73 75/655/73
f 76/623/73 74/618/73 73/653/73
f 78/228/53 63/263/53 76/249/53
f 78/228/53 64/225/53 63/263/53
f 78/228/74 75/248/74 77/229/74
f 78/228/74 76/249/74 75/248/74
f 78/228/75 77/229/75 79/203/75
f 78/228/75 79/203/75 80/200/75
f 8/327/7 17/357/7 7/358/7
f 8/327/7 18/311/7 17/357/7
f 8/421/8 19/381/8 18/422/8
f 8/421/8 9/402/8 19/381/8
f 80/200/54 64/225/54 78/228/54
f 80/200/54 65/195/54 64/225/54
f 80/396/76 79/392/76 81/377/76
f 80/396/76 81/377/76 82/378/76
f 82/73/55 65/90/55 80/74/55
f 82/73/55 66/89/55 65/90/55
f 84/351/56 66/389/56 82/378/56
f 84/351/56 67/350/56 66/389/56
f 84/351/77 81/377/77 83/352/77
f 84/351/77 82/378/77 81/377/77
f 86/329/57 67/350/57 84/351/57
f 86/329/57 68/321/57 67/350/57
f 86/329/78 83/352/78 85/332/78
f 86/329/78 84/351/78 83/352/78
f 88/115/58 68/162/58 86/143/58
f 88/115/58 69/124/58 68/162/58
f 88/115/79 85/135/79 87/110/79
f 88/115/79 86/143/79 85/135/79
f 88/115/80 87/110/80 89/83/80
f 88/115/80 89/83/80 90/85/80
f 9/402/71 8/421/71 7/443/71
f 9/54/9 10/26/9 20/24/9
f 9/54/9 20/24/9 19/70/9
f 90/637/81 72/654/81 71/622/81
f 90/637/81 89/671/81 72/654/81
f 90/85/59 69/124/59 88/115/59
f 90/85/59 70/84/59 69/124/59
f 91/137/70 112/133/70 129/132/70
f 91/137/70 129/132/70 110/136/70
f 91/137/82 92/145/82 93/123/82
f 91/137/82 93/123/82 94/114/82
f 94/114/70 112/133/70 91/137/70
f 94/114/70 113/112/70 112/133/70
f 94/114/70 115/80/70 113/112/70
f 94/114/70 96/81/70 115/80/70
f 94/114/83 93/123/83 95/82/83
f 94/114/83 95/82/83 96/81/83
f 96/81/84 95/82/84 97/51/84
f 96/81/84 97/51/84 98/53/84
f 98/53/70 115/80/70 96/81/70
f 98/53/70 117/59/70 115/80/70
f 98/53/85 97/51/85 99/28/85
f 98/53/85 99/28/85 100/36/85
usemtl ARPG_obsidian
f 152/281/121 151/282/121 187/301/121
f 152/281/121 187/301/121 188/302/121
f 153/206/70 189/184/70 185/164/70
f 154/207/104 153/206/104 157/235/104
f 154/207/104 157/235/104 158/237/104
f 154/369/102 156/367/102 152/365/102
f 154/369/102 158/371/102 156/367/102
f 155/269/71 159/264/71 163/274/71
f 156/265/103 151/282/103 152/281/103
f 156/265/103 155/269/103 151/282/103
f 158/237/106 157/235/106 161/247/106
f 158/237/106 161/247/106 162/259/106
f 158/596/101 160/608/101 156/611/101
f 158/596/101 162/591/101 160/608/101
f 160/608/105 155/633/105 156/611/105
f 160/608/105 159/626/105 155/633/105
f 161/247/70 153/206/70 185/164/70
f 161/247/70 157/235/70 153/206/70
f 162/259/108 161/247/108 165/246/108
f 162/259/108 165/246/108 166/258/108
f 162/591/94 164/610/94 160/608/94
f 162/591/94 166/595/94 164/610/94
f 163/274/71 167/288/71 171/308/71
f 163/274/71 171/308/71 179/334/71
f 163/274/71 179/334/71 187/301/71
f 164/610/107 159/626/107 160/608/107
f 164/610/107 163/632/107 159/626/107
f 166/258/110 165/246/110 169/234/110
f 166/258/110 169/234/110 170/236/110
f 166/647/95 168/670/95 164/669/95
f 166/647/95 170/648/95 168/670/95
f 168/287/109 163/274/109 164/270/109
f 168/287/109 167/288/109 163/274/109
f 169/234/70 165/246/70 161/247/70
f 170/236/112 169/234/112 173/205/112
f 170/236/112 173/205/112 174/204/112
f 170/648/96 172/668/96 168/670/96
f 170/648/96 174/646/96 172/668/96
f 171/308/71 175/323/71 179/334/71
f 172/310/111 167/288/111 168/287/111
f 172/310/111 171/308/111 167/288/111
f 174/204/114 173/205/114 177/183/114
f 174/204/114 177/183/114 178/180/114
f 174/346/97 176/362/97 172/360/97
f 174/346/97 178/348/97 176/362/97
f 176/333/113 171/308/113 172/310/113
f 176/333/113 175/323/113 171/308/113
f 177/183/70 173/205/70 169/234/70
f 178/348/116 177/342/116 181/341/116
f 178/348/116 181/341/116 182/347/116
f 178/348/98 180/361/98 176/362/98
f 178/348/98 182/347/98 180/361/98
f 179/334/71 183/316/71 187/301/71
f 180/338/115 175/323/115 176/333/115
f 180/338/115 179/334/115 175/323/115
f 182/152/118 181/163/118 185/164/118
f 182/152/118 185/164/118 186/153/118
f 182/347/99 184/359/99 180/361/99
f 182/347/99 186/345/99 184/359/99
f 184/322/117 179/334/117 180/338/117
f 184/322/117 183/316/117 179/334/117
f 185/164/70 169/234/70 161/247/70
f 185/164/70 177/183/70 169/234/70
f 185/164/70 181/163/70 177/183/70
f 186/153/120 185/164/120 189/184/120
f 186/153/120 189/184/120 190/181/120
f 186/372/100 188/366/100 184/368/100
f 186/372/100 190/370/100 188/366/100
f 187/301/71 151/282/71 155/269/71
f 187/301/71 155/269/71 163/274/71
f 188/302/119 183/316/119 184/322/119
f 188/302/119 187/301/119 183/316/119
f 190/181/122 153/206/122 154/207/122
f 190/181/122 189/184/122 153/206/122
f 190/370/93 152/365/93 188/366/93
f 190/370/93 154/369/93 152/365/93
f 211/457/30 212/437/30 248/444/30
f 211/457/30 248/444/30 247/468/30
f 213/524/25 214/572/25 250/574/25
f 213/524/25 250/574/25 249/528/25
f 214/294/71 211/295/71 247/245/71
f 214/294/71 215/340/71 211/295/71
f 214/294/71 218/331/71 215/340/71
f 214/294/71 247/245/71 250/256/71
f 215/458/21 212/437/21 211/457/21
f 215/458/21 216/438/21 212/437/21
f 216/169/70 213/92/70 212/91/70
f 216/169/70 217/157/70 213/92/70
f 216/169/70 220/201/70 221/186/70
f 216/169/70 221/186/70 217/157/70
f 217/523/26 214/572/26 213/524/26
f 217/523/26 218/571/26 214/572/26
f 219/469/22 216/438/22 215/458/22
f 219/469/22 220/445/22 216/438/22
f 221/527/27 218/571/27 217/523/27
f 221/527/27 222/573/27 218/571/27
f 222/364/71 215/340/71 218/331/71
f 222/364/71 219/376/71 215/340/71
f 223/510/23 220/542/23 219/511/23
f 223/510/23 224/541/23 220/542/23
f 224/202/70 221/186/70 220/201/70
f 224/202/70 225/187/70 221/186/70
f 225/439/28 222/461/28 221/441/28
f 225/439/28 226/459/28 222/461/28
f 226/363/71 219/376/71 222/364/71
f 226/363/71 223/375/71 219/376/71
f 227/512/24 224/541/24 223/510/24
f 227/512/24 228/543/24 224/541/24
f 228/170/70 225/187/70 224/202/70
f 228/170/70 229/158/70 225/187/70
f 228/170/70 232/94/70 233/93/70
f 228/170/70 233/93/70 229/158/70
f 229/440/29 226/459/29 225/439/29
f 229/440/29 230/460/29 226/459/29
f 230/330/71 223/375/71 226/363/71
f 230/330/71 227/339/71 223/375/71
f 231/501/25 228/473/25 227/496/25
f 231/501/25 232/478/25 228/473/25
f 233/516/30 230/538/30 229/509/30
f 233/516/30 234/551/30 230/538/30
f 234/293/71 227/339/71 230/330/71
f 234/293/71 231/292/71 227/339/71
f 234/293/71 235/244/71 231/292/71
f 234/293/71 238/255/71 235/244/71
f 235/502/26 232/478/26 231/501/26
f 235/502/26 236/479/26 232/478/26
f 236/34/70 233/93/70 232/94/70
f 236/34/70 237/43/70 233/93/70
f 236/34/70 240/3/70 241/16/70
f 236/34/70 241/16/70 237/43/70
f 237/515/21 234/551/21 233/516/21
f 237/515/21 238/550/21 234/551/21
f 239/497/27 236/479/27 235/502/27
f 239/497/27 240/474/27 236/479/27
f 241/508/22 238/550/22 237/515/22
f 241/508/22 242/537/22 238/550/22
f 242/222/71 235/244/71 238/255/71
f 242/222/71 239/208/71 235/244/71
f 243/25/28 240/4/28 239/22/28
f 243/25/28 244/8/28 240/4/28
f 244/2/70 241/16/70 240/3/70
f 244/2/70 245/15/70 241/16/70
f 245/500/23 242/476/23 241/499/23
f 245/500/23 246/477/23 242/476/23
f 246/223/71 239/208/71 242/222/71
f 246/223/71 243/209/71 239/208/71
f 247/23/29 244/8/29 243/25/29
f 247/23/29 248/5/29 244/8/29
f 248/33/70 212/91/70 213/92/70
f 248/33/70 213/92/70 249/42/70
f 248/33/70 245/15/70 244/2/70
f 248/33/70 249/42/70 245/15/70
f 249/498/24 246/477/24 245/500/24
f 249/498/24 250/475/24 246/477/24
f 250/256/71 243/209/71 246/223/71
f 250/256/71 247/245/71 243/209/71
usemtl ARPG_ember
f 192/649/102 193/630/102 191/628/102
f 192/649/102 194/651/102 193/630/102
f 192/660/70 210/607/70 208/561/70
f 193/625/71 195/590/71 197/589/71
f 194/690/101 195/701/101 193/711/101
f 194/690/101 196/680/101 195/701/101
f 196/680/94 197/710/94 195/701/94
f 196/680/94 198/689/94 197/710/94
f 196/763/70 192/660/70 208/561/70
f 196/763/70 194/735/70 192/660/70
f 197/589/71 199/624/71 201/687/71
f 197/589/71 201/687/71 205/764/71
f 197/589/71 205/764/71 209/759/71
f 198/682/95 199/709/95 197/708/95
f 198/682/95 200/683/95 199/709/95
f 200/683/96 201/707/96 199/709/96
f 200/683/96 202/681/96 201/707/96
f 200/734/70 198/762/70 196/763/70
f 201/687/71 203/758/71 205/764/71
f 202/563/97 203/583/97 201/581/97
f 202/563/97 204/565/97 203/583/97
f 204/565/98 205/582/98 203/583/98
f 204/565/98 206/564/98 205/582/98
f 204/606/70 202/659/70 200/734/70
f 205/764/71 207/765/71 209/759/71
f 206/564/99 207/580/99 205/582/99
f 206/564/99 208/562/99 207/580/99
f 208/561/70 200/734/70 196/763/70
f 208/561/70 204/606/70 200/734/70
f 208/561/70 206/560/70 204/606/70
f 208/652/100 209/629/100 207/631/100
f 208/652/100 210/650/100 209/629/100
f 209/759/71 191/688/71 193/625/71
f 209/759/71 193/625/71 197/589/71
f 210/650/93 191/628/93 209/629/93
f 210/650/93 192/649/93 191/628/93
usemtl ARPG_arcane
f 252/738/94 253/755/94 251/739/94
f 252/738/94 254/754/94 253/755/94
f 254/121/28 257/141/28 253/142/28
f 254/121/28 258/120/28 257/141/28
f 254/17/70 252/19/70 256/20/70
f 254/17/70 256/20/70 258/18/70
f 256/217/23 251/230/23 255/233/23
f 256/217/23 252/214/23 251/230/23
f 257/11/71 251/14/71 253/12/71
f 257/11/71 255/13/71 251/14/71
f 258/730/99 255/743/99 257/731/99
f 258/730/99 256/742/99 255/743/99
f 260/728/102 261/749/102 259/729/102
f 260/728/102 262/748/102 261/749/102
f 261/639/71 263/644/71 259/645/71
f 261/639/71 265/638/71 263/644/71
f 262/212/30 265/197/30 261/196/30
f 262/212/30 266/213/30 265/197/30
f 262/243/70 260/239/70 264/238/70
f 262/243/70 264/238/70 266/242/70
f 264/154/25 259/175/25 263/155/25
f 264/154/25 260/174/25 259/175/25
f 266/147/97 263/155/97 265/148/97
f 266/147/97 264/154/97 263/155/97
f 268/100/100 269/109/100 267/101/100
f 268/100/100 270/108/100 269/109/100
f 270/179/22 273/188/22 269/189/22
f 270/179/22 274/178/22 273/188/22
f 270/261/70 268/252/70 272/251/70
f 270/261/70 272/251/70 274/260/70
f 272/732/27 267/677/27 271/676/27
f 272/732/27 268/733/27 267/677/27
f 273/703/71 267/715/71 269/704/71
f 273/703/71 271/714/71 267/715/71
f 274/724/95 271/745/95 273/725/95
f 274/724/95 272/744/95 271/745/95
f 276/722/98 277/751/98 275/723/98
f 276/722/98 278/750/98 277/751/98
f 278/253/24 281/241/24 277/240/24
f 278/253/24 282/254/24 281/241/24
f 278/705/70 276/716/70 280/717/70
f 278/705/70 280/717/70 282/706/70
f 280/193/29 275/210/29 279/211/29
f 280/193/29 276/192/29 275/210/29
f 281/10/71 275/6/71 277/9/71
f 281/10/71 279/7/71 275/6/71
f 282/736/101 279/753/101 281/737/101
f 282/736/101 280/752/101 279/753/101
f 284/726/96 285/747/96 283/727/96
f 284/726/96 286/746/96 285/747/96
f 286/216/26 289/231/26 285/232/26
f 286/216/26 290/215/26 289/231/26
f 286/691/70 284/695/70 288/696/70
f 286/691/70 288/696/70 290/692/70
f 288/177/21 283/190/21 287/191/21
f 288/177/21 284/176/21 283/190/21
f 289/673/71 283/663/71 285/672/71
f 289/673/71 287/664/71 283/663/71
f 290/720/93 287/741/93 289/721/93
f 290/720/93 288/740/93 287/741/93
usemtl ARPG_obsidian_iron
f 291/49/130 292/60/130 320/56/130
f 291/49/130 320/56/130 319/48/130
f 293/553/129 294/566/129 322/577/129
f 293/553/129 322/577/129 321/557/129
f 294/290/23 291/296/23 319/297/23
f 294/290/23 295/285/23 291/296/23
f 294/290/23 298/283/23 295/285/23
f 294/290/23 319/297/23 322/291/23
f 295/47/123 292/60/123 291/49/123
f 295/47/123 296/55/123 292/60/123
f 296/490/28 293/493/28 292/491/28
f 296/490/28 297/492/28 293/493/28
f 297/556/124 294/566/124 293/553/124
f 297/556/124 298/576/124 294/566/124
f 298/283/23 299/275/23 295/285/23
f 298/283/23 302/279/23 299/275/23
f 299/568/125 296/544/125 295/567/125
f 299/568/125 300/545/125 296/544/125
f 300/494/28 297/492/28 296/490/28
f 300/494/28 301/504/28 297/492/28
f 300/494/28 304/521/28 305/517/28
f 300/494/28 305/517/28 301/504/28
f 301/96/126 298/107/126 297/97/126
f 301/96/126 302/106/126 298/107/126
f 301/96/128 305/95/128 306/105/128
f 301/96/128 306/105/128 302/106/128
f 303/569/127 300/545/127 299/568/127
f 303/569/127 304/546/127 300/545/127
f 306/272/23 299/275/23 302/279/23
f 306/272/23 303/266/23 299/275/23
f 307/536/129 304/525/129 303/532/129
f 307/536/129 308/531/129 304/525/129
f 308/534/28 305/517/28 304/521/28
f 308/534/28 309/529/28 305/517/28
f 308/534/28 312/535/28 313/530/28
f 308/534/28 313/530/28 309/529/28
f 309/656/130 306/635/130 305/661/130
f 309/656/130 310/627/130 306/635/130
f 310/273/23 303/266/23 306/272/23
f 310/273/23 307/267/23 303/266/23
f 311/533/124 308/531/124 307/536/124
f 311/533/124 312/526/124 308/531/124
f 313/119/125 317/118/125 318/130/125
f 313/119/125 318/130/125 314/131/125
f 313/662/123 310/627/123 309/656/123
f 313/662/123 314/636/123 310/627/123
f 314/280/23 307/267/23 310/273/23
f 314/280/23 311/276/23 307/267/23
f 314/280/23 315/286/23 311/276/23
f 314/280/23 318/284/23 315/286/23
f 315/318/126 312/313/126 311/317/126
f 315/318/126 316/314/126 312/313/126
f 316/522/28 313/530/28 312/535/28
f 316/522/28 317/518/28 313/530/28
f 316/522/28 320/495/28 321/505/28
f 316/522/28 321/505/28 317/518/28
f 319/319/128 316/314/128 315/318/128
f 319/319/128 320/315/128 316/314/128
f 320/495/28 292/491/28 293/493/28
f 320/495/28 293/493/28 321/505/28
f 321/117/127 318/130/127 317/118/127
f 321/117/127 322/129/127 318/130/127
f 322/291/23 315/286/23 318/284/23
f 322/291/23 319/297/23 315/286/23
f 323/67/130 324/71/130 352/69/130
f 323/67/130 352/69/130 351/65/130
f 324/384/28 325/391/28 353/398/28
f 324/384/28 328/383/28 329/390/28
f 324/384/28 329/390/28 325/391/28
f 324/384/28 353/398/28 352/394/28
f 325/586/129 326/609/129 354/613/129
f 325/586/129 354/613/129 353/594/129
f 326/450/23 323/455/23 351/456/23
f 326/450/23 351/456/23 354/451/23
f 327/64/123 324/71/123 323/67/123
f 327/64/123 328/68/123 324/71/123
f 329/593/124 326/609/124 325/586/124
f 329/593/124 330/612/124 326/609/124
f 330/446/23 323/455/23 326/450/23
f 330/446/23 327/448/23 323/455/23
f 330/446/23 331/430/23 327/448/23
f 330/446/23 334/435/23 331/430/23
f 331/336/125 328/324/125 327/335/125
f 331/336/125 332/325/125 328/324/125
f 332/393/28 329/390/28 328/383/28
f 332/393/28 333/397/28 329/390/28
f 332/393/28 336/410/28 337/406/28
f 332/393/28 337/406/28 333/397/28
f 333/139/126 330/151/126 329/140/126
f 333/139/126 334/150/126 330/151/126
f 333/139/128 337/138/128 338/149/128
f 333/139/128 338/149/128 334/150/128
f 335/337/127 332/325/127 331/336/127
f 335/337/127 336/326/127 332/325/127
f 336/410/28 340/415/28 341/412/28
f 336/410/28 341/412/28 337/406/28
f 338/428/23 331/430/23 334/435/23
f 338/428/23 335/423/23 331/430/23
f 339/309/129 336/298/129 335/306/129
f 339/309/129 340/303/129 336/298/129
f 341/619/130 338/600/130 337/620/130
f 341/619/130 342/592/130 338/600/130
f 342/429/23 335/423/23 338/428/23
f 342/429/23 339/424/23 335/423/23
f 342/429/23 343/431/23 339/424/23
f 342/429/23 346/436/23 343/431/23
f 343/307/124 340/303/124 339/309/124
f 343/307/124 344/299/124 340/303/124
f 344/416/28 341/412/28 340/415/28
f 344/416/28 345/413/28 341/412/28
f 345/161/125 349/160/125 350/172/125
f 345/161/125 350/172/125 346/173/125
f 345/621/123 342/592/123 341/619/123
f 345/621/123 346/601/123 342/592/123
f 346/436/23 347/449/23 343/431/23
f 346/436/23 350/447/23 347/449/23
f 347/40/126 344/29/126 343/39/126
f 347/40/126 348/30/126 344/29/126
f 348/411/28 345/413/28 344/416/28
f 348/411/28 349/407/28 345/413/28
f 348/411/28 352/394/28 353/398/28
f 348/411/28 353/398/28 349/407/28
f 351/41/128 348/30/128 347/40/128
f 351/41/128 352/31/128 348/30/128
f 353/159/127 350/172/127 349/160/127
f 353/159/127 354/171/127 350/172/127
f 354/451/23 347/449/23 350/447/23
f 354/451/23 351/456/23 347/449/23
