# Blender 4.0.2
# www.blender.org
mtllib loot_pile.mtl
o loot_pile
v -0.500000 0.000000 0.000000
v -0.383022 0.000000 0.321394
v -0.086824 0.000000 0.492404
v 0.250000 0.000000 0.433013
v 0.469846 0.000000 0.171010
v 0.469846 0.000000 -0.171010
v 0.250000 0.000000 -0.433013
v -0.086824 0.000000 -0.492404
v -0.383022 0.000000 -0.321394
v -0.450818 0.088888 0.000000
v -0.339324 0.082311 0.284727
v -0.078491 0.078192 0.445145
v 0.216502 0.078054 0.374992
v 0.409633 0.074592 0.149094
v 0.428641 0.082233 -0.156012
v 0.213566 0.086192 -0.369908
v -0.077400 0.082269 -0.438957
v -0.341734 0.072132 -0.286749
v -0.322433 0.159014 0.000000
v -0.252259 0.165733 0.211670
v -0.057474 0.177645 0.325950
v 0.167273 0.160569 0.289726
v 0.329475 0.158474 0.119919
v 0.307496 0.161305 -0.111920
v 0.176989 0.160877 -0.306554
v -0.061486 0.178371 -0.348703
v -0.258378 0.175602 -0.216805
v -0.186921 0.246256 0.000000
v -0.168152 0.241729 0.141096
v -0.036267 0.261913 0.205681
v 0.105519 0.249817 0.182765
v 0.166247 0.240747 0.060509
v 0.197005 0.246346 -0.071704
v 0.094474 0.256755 -0.163634
v -0.031684 0.238830 -0.179692
v -0.162539 0.248322 -0.136387
v -0.051684 0.295739 0.000000
v -0.070963 0.295286 0.059545
v -0.011513 0.301602 0.065292
v 0.030019 0.297884 0.051995
v 0.051037 0.291365 0.018576
v 0.080824 0.303123 -0.029418
v 0.023365 0.291504 -0.040469
v -0.009192 0.294175 -0.052133
v -0.038808 0.301306 -0.032564
v -0.553843 0.021678 0.003652
v -0.556670 0.033161 0.001614
v -0.587318 0.010475 -0.013045
v -0.590145 0.021958 -0.015083
v -0.594210 0.002121 -0.050563
v -0.597037 0.013604 -0.052600
v -0.569330 0.002907 -0.080650
v -0.572157 0.014390 -0.082687
v -0.531413 0.012241 -0.080650
v -0.534239 0.023724 -0.082687
v -0.509010 0.023094 -0.050563
v -0.511837 0.034577 -0.052600
v -0.518993 0.027294 -0.013045
v -0.521820 0.038777 -0.015083
v -0.425078 0.039180 0.284184
v -0.422891 0.050712 0.281687
v -0.460301 0.042272 0.267612
v -0.458115 0.053804 0.265115
v -0.470314 0.036110 0.230374
v -0.468127 0.047642 0.227878
v -0.447577 0.025333 0.200512
v -0.445390 0.036865 0.198015
v -0.409211 0.018058 0.200512
v -0.407024 0.029589 0.198015
v -0.384107 0.019762 0.230374
v -0.381920 0.031294 0.227878
v -0.391169 0.029162 0.267612
v -0.388982 0.040694 0.265115
v -0.296438 0.056789 0.415929
v -0.297623 0.068510 0.413642
v -0.331117 0.050037 0.399297
v -0.332302 0.061757 0.397010
v -0.339032 0.041944 0.361924
v -0.340217 0.053664 0.359637
v -0.314223 0.038604 0.331954
v -0.315408 0.050324 0.329667
v -0.275372 0.042533 0.331954
v -0.276557 0.054253 0.329667
v -0.251734 0.050771 0.361924
v -0.252919 0.062492 0.359637
v -0.261109 0.057116 0.399297
v -0.262294 0.068836 0.397010
v 0.058007 0.002044 0.593826
v 0.056599 0.013499 0.597111
v 0.022521 0.002355 0.577530
v 0.021113 0.013810 0.580816
v 0.012625 0.011640 0.540914
v 0.011217 0.023096 0.544200
v 0.035770 0.022908 0.511551
v 0.034362 0.034363 0.514836
v 0.074528 0.027672 0.511551
v 0.073120 0.039128 0.514836
v 0.099713 0.022347 0.540914
v 0.098305 0.033802 0.544200
v 0.092360 0.010941 0.577530
v 0.090952 0.022396 0.580816
v 0.224648 0.004604 0.501614
v 0.221391 0.015830 0.504330
v 0.189790 -0.001516 0.485111
v 0.186533 0.009709 0.487827
v 0.179043 0.004339 0.448028
v 0.175786 0.015564 0.450745
v 0.200500 0.017761 0.418291
v 0.197243 0.028986 0.421007
v 0.238003 0.028642 0.418291
v 0.234746 0.039868 0.421007
v 0.263311 0.028790 0.448028
v 0.260054 0.040015 0.450745
v 0.257368 0.018092 0.485111
v 0.254111 0.029317 0.487827
v 0.402238 0.008901 0.336258
v 0.401610 0.020644 0.338648
v 0.366926 0.010391 0.319654
v 0.366297 0.022134 0.322045
v 0.357843 0.017500 0.282347
v 0.357215 0.029243 0.284737
v 0.381830 0.024874 0.252429
v 0.381202 0.036617 0.254819
v 0.420824 0.026961 0.252429
v 0.420196 0.038704 0.254819
v 0.445461 0.022189 0.282347
v 0.444833 0.033932 0.284737
v 0.437190 0.014152 0.319654
v 0.436561 0.025894 0.322045
v 0.557170 0.008874 0.019797
v 0.554366 0.020450 0.021261
v 0.522489 0.002602 0.002981
v 0.519686 0.014177 0.004445
v 0.512950 0.005072 -0.034805
v 0.510147 0.016648 -0.033341
v 0.535736 0.014425 -0.065107
v 0.532932 0.026001 -0.063643
v 0.573688 0.023618 -0.065107
v 0.570884 0.035193 -0.063643
v 0.598228 0.025728 -0.034805
v 0.595424 0.037303 -0.033341
v 0.590877 0.019166 0.002981
v 0.588073 0.030742 0.004445
v 0.397792 0.055767 -0.221832
v 0.399992 0.067103 -0.225096
v 0.362376 0.057943 -0.238136
v 0.364575 0.069279 -0.241400
v 0.351873 0.049431 -0.274770
v 0.354072 0.060767 -0.278035
v 0.374192 0.036640 -0.304149
v 0.376391 0.047976 -0.307413
v 0.412527 0.029202 -0.304149
v 0.414726 0.040538 -0.307413
v 0.438010 0.032718 -0.274770
v 0.440209 0.044054 -0.278035
v 0.431452 0.044540 -0.238136
v 0.433652 0.055876 -0.241400
v 0.178843 0.021551 -0.439168
v 0.178409 0.033376 -0.441160
v 0.143788 0.017450 -0.455876
v 0.143353 0.029275 -0.457868
v 0.135336 0.010817 -0.493419
v 0.134902 0.022642 -0.495410
v 0.159852 0.006647 -0.523526
v 0.159418 0.018472 -0.525517
v 0.198876 0.008079 -0.523526
v 0.198441 0.019905 -0.525517
v 0.223020 0.014036 -0.493419
v 0.222586 0.025862 -0.495410
v 0.214105 0.020031 -0.455876
v 0.213671 0.031857 -0.457868
v 0.055145 0.007344 -0.508604
v 0.055647 0.019199 -0.506809
v 0.020101 0.011367 -0.525357
v 0.020604 0.023221 -0.523561
v 0.011661 0.017427 -0.562998
v 0.012163 0.029281 -0.561203
v 0.036180 0.020961 -0.593185
v 0.036682 0.032815 -0.591389
v 0.075194 0.019309 -0.593185
v 0.075696 0.031163 -0.591389
v 0.099326 0.013713 -0.562998
v 0.099828 0.025568 -0.561203
v 0.090403 0.008389 -0.525357
v 0.090905 0.020243 -0.523561
v -0.330366 0.002625 -0.369100
v -0.333226 0.013820 -0.365858
v -0.365587 -0.001647 -0.385413
v -0.368446 0.009548 -0.382171
v -0.376551 0.006167 -0.422068
v -0.379410 0.017361 -0.418827
v -0.355002 0.020182 -0.451463
v -0.357861 0.031377 -0.448222
v -0.317167 0.029845 -0.451463
v -0.320026 0.041040 -0.448222
v -0.291537 0.027880 -0.422068
v -0.294396 0.039075 -0.418827
v -0.297411 0.015766 -0.385413
v -0.300270 0.026961 -0.382171
v -0.467483 0.004391 -0.176652
v -0.465430 0.015909 -0.173984
v -0.501459 0.014272 -0.193170
v -0.499406 0.025790 -0.190502
v -0.508528 0.024130 -0.230288
v -0.506476 0.035648 -0.227620
v -0.483368 0.026541 -0.260054
v -0.481315 0.038059 -0.257386
v -0.444924 0.019690 -0.260054
v -0.442872 0.031208 -0.257386
v -0.422146 0.008736 -0.230288
v -0.420093 0.020254 -0.227620
v -0.432185 0.001927 -0.193170
v -0.430133 0.013445 -0.190502
v -0.360000 0.048573 0.325560
v -0.356396 0.052573 0.328264
v -0.363604 0.052573 0.328264
v -0.360000 0.112573 0.325560
v -0.363604 0.108573 0.328264
v -0.356396 0.108573 0.328264
v -0.395621 0.048573 0.308406
v -0.395488 0.052573 0.312910
v -0.399982 0.052573 0.307275
v -0.395621 0.112573 0.308406
v -0.399982 0.108573 0.307275
v -0.395488 0.108573 0.312910
v -0.404418 0.048573 0.269862
v -0.407856 0.052573 0.272774
v -0.406252 0.052573 0.265747
v -0.404418 0.112573 0.269862
v -0.406252 0.108573 0.265747
v -0.407856 0.108573 0.272774
v -0.379768 0.048573 0.238952
v -0.384188 0.052573 0.238079
v -0.377694 0.052573 0.234952
v -0.379768 0.112573 0.238952
v -0.377694 0.108573 0.234952
v -0.384188 0.108573 0.238079
v -0.340232 0.048573 0.238952
v -0.342306 0.052573 0.234952
v -0.335812 0.052573 0.238079
v -0.340232 0.112573 0.238952
v -0.335812 0.108573 0.238079
v -0.342306 0.108573 0.234952
v -0.315582 0.048573 0.269862
v -0.313748 0.052573 0.265747
v -0.312144 0.052573 0.272774
v -0.315582 0.112573 0.269862
v -0.312144 0.108573 0.272774
v -0.313748 0.108573 0.265747
v -0.324380 0.048573 0.308406
v -0.320018 0.052573 0.307275
v -0.324512 0.052573 0.312910
v -0.324380 0.112573 0.308406
v -0.324512 0.108573 0.312910
v -0.320018 0.108573 0.307275
v 0.300000 0.031847 0.405560
v 0.303604 0.035847 0.408264
v 0.296396 0.035847 0.408264
v 0.300000 0.079847 0.405560
v 0.296396 0.075847 0.408264
v 0.303604 0.075847 0.408264
v 0.264380 0.031847 0.388406
v 0.264512 0.035847 0.392910
v 0.260018 0.035847 0.387275
v 0.264380 0.079847 0.388406
v 0.260018 0.075847 0.387275
v 0.264512 0.075847 0.392910
v 0.255582 0.031847 0.349862
v 0.252144 0.035847 0.352774
v 0.253748 0.035847 0.345747
v 0.255582 0.079847 0.349862
v 0.253748 0.075847 0.345747
v 0.252144 0.075847 0.352774
v 0.280232 0.031847 0.318952
v 0.275812 0.035847 0.318079
v 0.282306 0.035847 0.314952
v 0.280232 0.079847 0.318952
v 0.282306 0.075847 0.314952
v 0.275812 0.075847 0.318079
v 0.319768 0.031847 0.318952
v 0.317694 0.035847 0.314952
v 0.324188 0.035847 0.318079
v 0.319768 0.079847 0.318952
v 0.324188 0.075847 0.318079
v 0.317694 0.075847 0.314952
v 0.344418 0.031847 0.349862
v 0.346252 0.035847 0.345747
v 0.347856 0.035847 0.352774
v 0.344418 0.079847 0.349862
v 0.347856 0.075847 0.352774
v 0.346252 0.075847 0.345747
v 0.335621 0.031847 0.388406
v 0.339982 0.035847 0.387275
v 0.335488 0.035847 0.392910
v 0.335621 0.079847 0.388406
v 0.335488 0.075847 0.392910
v 0.339982 0.075847 0.387275
v -0.100000 0.076758 -0.374440
v -0.096396 0.080758 -0.371736
v -0.103604 0.080758 -0.371736
v -0.100000 0.156758 -0.374440
v -0.103604 0.152758 -0.371736
v -0.096396 0.152758 -0.371736
v -0.135621 0.076758 -0.391594
v -0.135488 0.080758 -0.387090
v -0.139982 0.080758 -0.392725
v -0.135621 0.156758 -0.391594
v -0.139982 0.152758 -0.392725
v -0.135488 0.152758 -0.387090
v -0.144418 0.076758 -0.430138
v -0.147856 0.080758 -0.427226
v -0.146252 0.080758 -0.434253
v -0.144418 0.156758 -0.430138
v -0.146252 0.152758 -0.434253
v -0.147856 0.152758 -0.427226
v -0.119768 0.076758 -0.461048
v -0.124188 0.080758 -0.461921
v -0.117694 0.080758 -0.465048
v -0.119768 0.156758 -0.461048
v -0.117694 0.152758 -0.465048
v -0.124188 0.152758 -0.461921
v -0.080232 0.076758 -0.461048
v -0.082306 0.080758 -0.465048
v -0.075812 0.080758 -0.461921
v -0.080232 0.156758 -0.461048
v -0.075812 0.152758 -0.461921
v -0.082306 0.152758 -0.465048
v -0.055582 0.076758 -0.430138
v -0.053748 0.080758 -0.434253
v -0.052144 0.080758 -0.427226
v -0.055582 0.156758 -0.430138
v -0.052144 0.152758 -0.427226
v -0.053748 0.152758 -0.434253
v -0.064379 0.076758 -0.391594
v -0.060018 0.080758 -0.392725
v -0.064512 0.080758 -0.387090
v -0.064379 0.156758 -0.391594
v -0.064512 0.152758 -0.387090
v -0.060018 0.152758 -0.392725
v -0.147371 0.201218 0.206274
v -0.201624 0.253897 0.197240
v -0.196555 0.172846 0.221469
v -0.221298 0.242548 0.203318
v -0.228116 0.163815 0.172712
v -0.233922 0.238935 0.183815
v -0.198438 0.186606 0.127383
v -0.222051 0.248052 0.165683
v -0.148535 0.209723 0.148126
v -0.202090 0.257298 0.173980
v 0.203566 0.164016 0.254953
v 0.172452 0.233387 0.250516
v 0.152399 0.154266 0.227717
v 0.151985 0.229487 0.239622
v 0.156131 0.176648 0.173494
v 0.153478 0.238439 0.217933
v 0.209605 0.200230 0.167219
v 0.174868 0.247872 0.215423
v 0.238921 0.192423 0.217564
v 0.186594 0.244749 0.235560
v -0.304683 0.142607 -0.060010
v -0.286585 0.215404 -0.073169
v -0.353781 0.164807 -0.083495
v -0.306224 0.224283 -0.082563
v -0.343647 0.175023 -0.140485
v -0.302170 0.228370 -0.105359
v -0.288286 0.159137 -0.152221
v -0.280026 0.222016 -0.110054
v -0.264205 0.139104 -0.102485
v -0.270394 0.214002 -0.090159
v 0.366774 0.104887 -0.134317
v 0.347922 0.171895 -0.165214
v 0.308437 0.101116 -0.140447
v 0.324587 0.170386 -0.167666
v 0.296471 0.096335 -0.197796
v 0.319801 0.168474 -0.190605
v 0.347412 0.097150 -0.227109
v 0.340177 0.168800 -0.202331
v 0.390861 0.102436 -0.187877
v 0.357557 0.170914 -0.186638
v -0.000847 0.115614 0.402508
v -0.002407 0.187227 0.376641
v -0.058293 0.127476 0.398743
v -0.025386 0.191972 0.375135
v -0.072623 0.130013 0.341795
v -0.031117 0.192987 0.352356
v -0.024033 0.119718 0.310363
v -0.011682 0.188869 0.339783
v 0.020326 0.110819 0.347885
v 0.006062 0.185309 0.354792
v 0.220905 0.218373 0.028712
v 0.248270 0.558078 -0.095334
v 0.172880 0.214425 -0.004947
v 0.242507 0.557604 -0.099373
v 0.189973 0.200402 -0.059409
v 0.244558 0.555921 -0.105908
v 0.248562 0.195682 -0.059409
v 0.251589 0.555355 -0.105908
v 0.267679 0.206789 -0.004947
v 0.253883 0.556688 -0.099373
v 0.297913 0.141859 0.108250
v 0.339685 0.400952 0.133980
v 0.252408 0.158374 0.074910
v 0.334224 0.402934 0.129979
v 0.272674 0.169957 0.020965
v 0.336656 0.404324 0.123506
v 0.330703 0.160601 0.020965
v 0.343620 0.403201 0.123506
v 0.346302 0.143236 0.074910
v 0.345492 0.401117 0.129979
v 0.143247 0.215786 -0.071163
v 0.075304 0.429567 -0.066966
v 0.095684 0.208443 -0.104909
v 0.069597 0.428685 -0.071016
v 0.109364 0.225368 -0.159510
v 0.071238 0.430716 -0.077568
v 0.165382 0.243171 -0.159510
v 0.077961 0.432853 -0.077568
v 0.186323 0.237249 -0.104909
v 0.080473 0.432142 -0.071016
v -0.239889 0.115561 -0.210244
v -0.244459 0.318877 -0.234278
v -0.287507 0.117904 -0.244625
v -0.250173 0.319158 -0.238404
v -0.269472 0.123831 -0.300253
v -0.248009 0.319870 -0.245079
v -0.210708 0.125152 -0.300253
v -0.240957 0.320028 -0.245079
v -0.192425 0.120041 -0.244625
v -0.238763 0.319415 -0.238404
v -0.220296 0.068081 0.462301
v -0.332973 0.105919 0.488226
v -0.242656 0.021108 0.449495
v -0.348945 0.072368 0.479079
v -0.267886 0.001652 0.406422
v -0.366966 0.058470 0.448313
v -0.281206 0.021108 0.358315
v -0.376481 0.072368 0.413950
v -0.274815 0.068081 0.333353
v -0.371915 0.105919 0.396120
v -0.252455 0.115053 0.346159
v -0.355944 0.139471 0.405267
v -0.227225 0.134510 0.389231
v -0.337923 0.153369 0.436033
v -0.213905 0.115053 0.437339
v -0.328408 0.139471 0.470396
v -0.139287 0.034234 0.458102
v -0.226694 0.065766 0.495057
v -0.147319 0.019441 0.451726
v -0.234726 0.050973 0.488681
v -0.154328 0.019441 0.435147
v -0.241736 0.050973 0.472102
v -0.153306 0.034234 0.424943
v -0.240713 0.065766 0.461899
v -0.145274 0.049027 0.431319
v -0.232681 0.080559 0.468274
v -0.138264 0.049027 0.447898
v -0.225671 0.080559 0.484853
v 0.022280 0.600572 -0.096243
v 0.014556 0.600337 -0.099748
v 0.017024 0.607073 -0.095216
v -0.046534 0.613862 -0.072015
v -0.048837 0.607108 -0.076608
v -0.052329 0.608541 -0.069008
v -0.062586 0.284890 -0.016540
v -0.070484 0.279183 -0.019158
v -0.063962 0.273237 -0.014268
v -0.073633 0.226585 -0.003583
v -0.071202 0.219649 -0.009952
v -0.073723 0.214972 -0.001806
v -0.064600 0.166119 0.002047
v -0.065617 0.159405 -0.003041
v -0.062591 0.154333 0.003050
v -0.042674 0.025212 0.014834
v -0.042590 0.046687 0.005096
v -0.040324 0.024961 0.013976
v -0.008860 0.148594 -0.016563
v -0.009537 0.153415 -0.023512
v -0.005799 0.159838 -0.019417
v 0.007678 0.206277 -0.031520
v 0.001472 0.211886 -0.036480
v 0.008645 0.217797 -0.033616
v 0.003007 0.277884 -0.040483
v 0.003310 0.266052 -0.038824
v 0.006174 0.270995 -0.047140
v 0.025806 0.601960 -0.086989
v 0.020551 0.608461 -0.085962
v 0.022313 0.603392 -0.079389
v -0.048803 0.609929 -0.059754
v -0.041079 0.610163 -0.056249
v -0.043007 0.615250 -0.062761
v -0.060435 0.274626 -0.005014
v -0.062726 0.282237 0.001201
v -0.059059 0.286278 -0.007286
v -0.070196 0.216360 0.007448
v -0.063444 0.222703 0.010407
v -0.070106 0.227973 0.005671
v -0.059064 0.155721 0.012304
v -0.057859 0.162460 0.017318
v -0.061073 0.167507 0.011301
v -0.036798 0.026349 0.023230
v -0.034832 0.049741 0.025455
v -0.039148 0.026600 0.024088
v -0.002272 0.161227 -0.010163
v -0.001779 0.156470 -0.003153
v -0.005334 0.149982 -0.007309
v 0.012171 0.219185 -0.024362
v 0.009230 0.214941 -0.016121
v 0.011204 0.207666 -0.022266
v 0.006533 0.279272 -0.031229
v 0.013932 0.274049 -0.026781
v 0.006836 0.267440 -0.029570
v 0.078601 0.598021 -0.117321
v 0.072449 0.614949 -0.139129
v 0.098195 0.615729 -0.127445
v 0.072674 0.619875 -0.139954
v 0.080626 0.642358 -0.124746
v 0.098420 0.620656 -0.128270
v 0.082127 0.599409 -0.108067
v 0.101721 0.617118 -0.118191
v 0.090080 0.621891 -0.092859
v 0.084153 0.643746 -0.115492
v 0.090305 0.626818 -0.093684
v 0.101946 0.622044 -0.119016
v -0.108335 0.617987 -0.049085
v -0.126128 0.639689 -0.045560
v -0.114487 0.634916 -0.070892
v -0.106309 0.662324 -0.056509
v -0.114262 0.639842 -0.071717
v -0.125903 0.644616 -0.046385
v -0.104809 0.619376 -0.039830
v -0.096856 0.641858 -0.024622
v -0.122602 0.641078 -0.036306
v -0.102783 0.663713 -0.047255
v -0.122377 0.646004 -0.037131
v -0.096631 0.646784 -0.025447
v -0.004138 0.653349 -0.067080
v 0.003064 0.810992 -0.093476
v -0.023854 0.653690 -0.070424
v -0.016651 0.811333 -0.096821
v -0.030906 0.650913 -0.088932
v -0.023704 0.808556 -0.115329
v -0.018243 0.647795 -0.104096
v -0.011041 0.805438 -0.130493
v 0.001472 0.647455 -0.100751
v 0.008674 0.805098 -0.127148
v 0.008525 0.650231 -0.082243
v 0.015727 0.807875 -0.108640
v 0.008128 0.808149 -0.078771
v 0.010379 0.857412 -0.087020
v -0.026374 0.808745 -0.084623
v -0.024123 0.858008 -0.092873
v -0.038716 0.803885 -0.117013
v -0.036465 0.853149 -0.125262
v -0.016556 0.798429 -0.143549
v -0.014305 0.847693 -0.151798
v 0.017946 0.797833 -0.137696
v 0.020197 0.847097 -0.145945
v 0.030288 0.802693 -0.105307
v 0.032539 0.851956 -0.113556
vn -0.8249 0.4564 0.3336
vn -0.4318 0.5483 0.7162
vn 0.2018 0.4908 0.8476
vn 0.5964 0.6278 0.5002
vn 0.7781 0.6281 -0.0000
vn 0.6387 0.4357 -0.6342
vn 0.1716 0.6282 -0.7589
vn -0.4400 0.5241 -0.7292
vn -0.7690 0.5746 -0.2799
vn -0.4693 0.8592 0.2036
vn -0.3126 0.7892 0.5286
vn 0.1611 0.7436 0.6489
vn 0.4811 0.7522 0.4502
vn 0.7321 0.6784 -0.0611
vn 0.4008 0.8301 -0.3876
vn 0.1599 0.6829 -0.7127
vn -0.3923 0.6634 -0.6372
vn -0.7137 0.6822 -0.1587
vn -0.5387 0.8367 0.0985
vn -0.3313 0.8123 0.4800
vn 0.1624 0.7944 0.5853
vn 0.4408 0.7979 0.4112
vn 0.4071 0.9037 0.1330
vn 0.4955 0.8018 -0.3340
vn -0.0432 0.8179 -0.5737
vn -0.0408 0.9430 -0.3301
vn -0.5479 0.8308 -0.0983
vn -0.3418 0.9341 -0.1035
vn -0.2760 0.9207 0.2758
vn 0.1279 0.9483 0.2906
vn 0.3776 0.9182 0.1195
vn 0.2545 0.8909 0.3762
vn 0.3390 0.8993 -0.2762
vn 0.1473 0.9709 -0.1889
vn -0.0378 0.9191 -0.3921
vn -0.3576 0.9326 -0.0498
vn -0.0000 -1.0000 -0.0000
vn 0.1455 0.9862 -0.0785
vn -0.4579 0.0448 0.8879
vn -0.9557 -0.1963 0.2193
vn -0.7339 -0.2897 -0.6144
vn 0.0406 -0.1649 -0.9855
vn 0.7845 0.0841 -0.6144
vn -0.2356 0.9569 -0.1698
vn 0.9376 0.2697 0.2193
vn 0.3847 0.2523 0.8879
vn 0.2356 -0.9569 0.1698
vn -0.3914 0.2650 0.8813
vn -0.9492 0.2271 0.2177
vn -0.7923 0.0182 -0.6098
vn -0.0388 -0.2044 -0.9781
vn 0.7440 -0.2731 -0.6098
vn 0.1822 0.9610 -0.2080
vn 0.9665 -0.1362 0.2177
vn 0.4612 0.1033 0.8813
vn -0.1822 -0.9610 0.2080
vn -0.4490 0.1272 0.8845
vn -0.9742 -0.0559 0.2184
vn -0.7659 -0.1969 -0.6121
vn 0.0192 -0.1896 -0.9817
vn 0.7898 -0.0396 -0.6121
vn -0.0988 0.9767 -0.1906
vn 0.9657 0.1403 0.2184
vn 0.4144 0.2145 0.8845
vn 0.0988 -0.9767 0.1906
vn -0.4005 -0.2978 0.8665
vn -0.9602 -0.1794 0.2140
vn -0.7968 0.0740 -0.5997
vn -0.0334 0.2717 -0.9618
vn 0.7552 0.2648 -0.5997
vn -0.1174 0.9546 0.2738
vn 0.9751 0.0585 0.2140
vn 0.4607 -0.1919 0.8665
vn 0.1174 -0.9546 -0.2738
vn -0.3599 -0.3168 0.8776
vn -0.9223 -0.3201 0.2167
vn -0.7902 -0.0823 -0.6073
vn -0.0631 0.2174 -0.9740
vn 0.7115 0.3534 -0.6073
vn -0.2714 0.9355 0.2264
vn 0.9503 0.2233 0.2167
vn 0.4735 -0.0750 0.8776
vn 0.2714 -0.9355 -0.2264
vn -0.4237 -0.2024 0.8829
vn -0.9712 -0.0964 0.2181
vn -0.7874 0.0822 -0.6110
vn -0.0106 0.1989 -0.9800
vn 0.7741 0.1658 -0.6110
vn -0.0524 0.9786 0.1992
vn 0.9759 0.0078 0.2181
vn 0.4429 -0.1560 0.8829
vn 0.0524 -0.9786 -0.1992
vn -0.3958 -0.2090 0.8942
vn -0.9411 -0.2559 0.2209
vn -0.7778 -0.1101 -0.6188
vn -0.0287 0.1186 -0.9925
vn 0.7419 0.2580 -0.6188
vn -0.2336 0.9646 0.1220
vn 0.9539 0.2031 0.2209
vn 0.4476 -0.0047 0.8942
vn 0.2336 -0.9646 -0.1220
vn -0.3793 0.3233 0.8670
vn -0.9455 0.2451 0.2141
vn -0.7998 -0.0176 -0.6000
vn -0.0518 -0.2671 -0.9623
vn 0.7352 -0.3154 -0.6000
vn 0.1833 0.9447 -0.2721
vn 0.9686 -0.1263 0.2141
vn 0.4726 0.1580 0.8670
vn -0.1833 -0.9447 0.2721
vn -0.4391 0.1335 0.8885
vn -0.9756 0.0011 0.2194
vn -0.7775 -0.1321 -0.6148
vn 0.0061 -0.1659 -0.9861
vn 0.7851 -0.0747 -0.6148
vn -0.0362 0.9855 -0.1660
vn 0.9729 0.0727 0.2194
vn 0.4281 0.1654 0.8885
vn 0.0362 -0.9855 0.1660
vn -0.4392 -0.1163 0.8908
vn -0.9755 0.0080 0.2200
vn -0.7772 0.1263 -0.6165
vn 0.0063 0.1495 -0.9887
vn 0.7851 0.0601 -0.6165
vn 0.0418 0.9879 0.1497
vn 0.9726 -0.0745 0.2200
vn 0.4278 -0.1531 0.8908
vn -0.0418 -0.9879 -0.1497
vn -0.3602 -0.3432 0.8675
vn -0.9297 -0.2995 0.2142
vn -0.7992 -0.0303 -0.6003
vn -0.0668 0.2617 -0.9628
vn 0.7158 0.3567 -0.6003
vn -0.2383 0.9329 0.2701
vn 0.9595 0.1830 0.2142
vn 0.4806 -0.1284 0.8675
vn 0.2383 -0.9329 -0.2701
vn -0.4623 -0.1211 0.8784
vn -0.9685 0.1223 0.2170
vn -0.7454 0.2736 -0.6079
vn 0.0390 0.2189 -0.9750
vn 0.7940 -0.0007 -0.6079
vn 0.1710 0.9598 0.2223
vn 0.9511 -0.2197 0.2170
vn 0.3920 -0.2733 0.8784
vn -0.1710 -0.9598 -0.2223
vn 0.4339 -0.0000 0.9010
vn -0.7818 -0.0000 -0.6235
vn -0.0000 -0.0000 -1.0000
vn 0.7818 -0.0000 -0.6235
vn 0.9749 -0.0000 0.2225
vn -0.9749 -0.0000 0.2225
vn -0.0000 1.0000 -0.0000
vn -0.4339 -0.0000 0.9010
vn -0.0000 -0.5601 0.8285
vn -0.0000 0.5601 0.8285
vn -0.6477 -0.5601 0.5165
vn -0.6477 0.5601 0.5165
vn -0.8077 -0.5601 -0.1843
vn -0.8077 0.5601 -0.1843
vn -0.3595 -0.5601 -0.7464
vn -0.3595 0.5601 -0.7464
vn 0.3595 -0.5601 -0.7464
vn 0.3595 0.5601 -0.7464
vn 0.8077 -0.5601 -0.1843
vn 0.8077 0.5601 -0.1843
vn 0.6477 -0.5601 0.5165
vn 0.6477 0.5601 0.5165
vn -0.3068 -0.7071 0.6371
vn -0.3068 0.7071 0.6371
vn -0.0000 -0.0000 1.0000
vn -0.7818 -0.0000 0.6235
vn -0.6894 -0.7071 0.1573
vn -0.6894 0.7071 0.1573
vn -0.9749 -0.0000 -0.2225
vn -0.5528 -0.7071 -0.4409
vn -0.5528 0.7071 -0.4409
vn -0.4339 -0.0000 -0.9010
vn -0.0000 -0.7071 -0.7071
vn -0.0000 0.7071 -0.7071
vn 0.4339 -0.0000 -0.9010
vn 0.5528 -0.7071 -0.4409
vn 0.5528 0.7071 -0.4409
vn 0.9749 -0.0000 -0.2225
vn 0.6894 -0.7071 0.1573
vn 0.6894 0.7071 0.1573
vn 0.7818 -0.0000 0.6235
vn 0.3068 -0.7071 0.6371
vn 0.3068 0.7071 0.6371
vn -0.0000 -0.5601 0.8284
vn -0.0000 0.5601 0.8284
vn 0.1249 0.2913 0.9484
vn -0.8180 -0.1455 0.5565
vn -0.8400 0.0152 -0.5423
vn -0.4628 0.8758 0.1373
vn 0.0894 0.5514 -0.8295
vn 0.6858 0.7220 0.0919
vn 0.4628 -0.8758 -0.1373
vn -0.4438 -0.1425 0.8847
vn -0.9978 0.0051 -0.0666
vn -0.3297 0.5418 -0.7731
vn -0.3464 0.8753 0.3374
vn 0.6372 0.7261 -0.2585
vn 0.5667 0.3032 0.7662
vn 0.3464 -0.8753 -0.3374
vn -0.3255 0.2460 0.9130
vn -0.7805 0.6245 -0.0268
vn -0.0156 0.5583 -0.8295
vn 0.3120 0.9240 0.2211
vn 0.9121 0.1388 -0.3857
vn 0.7206 -0.0542 0.6912
vn -0.3120 -0.9240 -0.2211
vn -0.1211 0.3874 0.9139
vn -0.9421 0.2875 0.1726
vn -0.4869 0.2412 -0.8395
vn -0.0569 0.9958 -0.0712
vn 0.6154 0.3124 -0.7237
vn 0.8415 0.4028 0.3600
vn 0.0569 -0.9958 0.0712
vn 0.0086 0.3399 0.9404
vn -0.8297 0.5080 0.2314
vn -0.4296 0.4174 -0.8008
vn 0.2027 0.9792 -0.0074
vn 0.6560 0.1933 -0.7296
vn 0.9267 0.1453 0.3465
vn -0.2027 -0.9792 0.0074
vn -0.5608 0.3235 0.7622
vn -0.9413 0.1024 -0.3218
vn -0.0103 -0.1281 -0.9917
vn 0.0782 0.9711 -0.2255
vn 0.9455 -0.0496 -0.3218
vn 0.6053 0.2295 0.7622
vn -0.0782 -0.9711 0.2255
vn -0.5876 0.0144 0.8091
vn -0.8966 0.3585 -0.2599
vn 0.0622 0.3858 -0.9205
vn 0.1536 0.9527 0.2623
vn 0.9639 0.0585 -0.2599
vn 0.5623 -0.1710 0.8091
vn -0.1536 -0.9527 -0.2623
vn -0.5484 -0.1903 0.8143
vn -0.9618 -0.0733 -0.2637
vn -0.1114 0.3504 -0.9300
vn -0.2958 0.9309 0.2144
vn 0.8277 0.4954 -0.2637
vn 0.5576 0.1612 0.8143
vn 0.2958 -0.9309 -0.2144
vn -0.5807 0.0827 0.8099
vn -0.9407 0.1833 -0.2854
vn -0.0061 0.2715 -0.9624
vn -0.0224 0.9949 0.0988
vn 0.9315 0.2254 -0.2854
vn 0.5764 0.1087 0.8099
vn 0.0224 -0.9949 -0.0988
vn 0.1127 -0.3109 0.9437
vn -0.2509 -0.8185 0.5167
vn -0.5455 -0.8185 -0.1800
vn -0.5985 -0.3109 -0.7384
vn -0.3788 0.4069 -0.8312
vn -0.0151 0.9145 -0.4043
vn -0.8741 0.3153 0.3696
vn 0.2795 0.9145 0.2925
vn 0.3324 0.4069 0.8508
vn 0.8741 -0.3153 -0.3696
vn 0.1920 -0.4745 0.8591
vn -0.2904 -0.9490 0.1228
vn -0.4825 -0.4745 -0.7363
vn -0.1920 0.4745 -0.8591
vn 0.2904 0.9490 -0.1228
vn 0.4825 0.4745 0.7363
vn -0.9352 0.0853 0.3436
vn -0.3526 -0.1388 -0.9254
vn -0.9146 0.2605 0.3094
vn -0.9177 -0.1421 0.3710
vn -0.9234 -0.1088 0.3682
vn 0.9045 -0.3041 -0.2990
vn 0.8959 -0.3358 -0.2910
vn 0.9294 0.0635 -0.3637
vn 0.3526 0.1388 0.9254
vn 0.0450 0.9853 -0.1650
vn 0.3633 0.4247 -0.8292
vn -0.7211 0.5406 -0.4333
vn -0.4474 0.2218 0.8664
vn -0.9476 -0.0411 -0.3168
vn -0.9265 -0.1278 0.3539
vn -0.3525 -0.3853 -0.8528
vn 0.8942 -0.3223 -0.3107
vn 0.4984 -0.1956 -0.8446
vn 0.9283 0.0749 0.3642
vn 0.7726 0.5859 0.2447
vn -0.3119 0.7017 0.6406
vn -0.9233 0.0344 -0.3825
vn -0.5011 0.1347 0.8548
vn -0.9146 -0.1231 0.3853
vn 0.3295 -0.1168 0.9369
vn 0.9062 -0.3176 -0.2793
vn 0.9448 -0.0198 0.3270
vn 0.4524 -0.1125 -0.8847
vn 0.9177 0.0398 0.3954
vn -0.2175 0.5985 -0.7710
vn -0.9107 -0.0378 -0.4114
vn -0.5110 0.1374 0.8485
vn -0.8983 -0.1987 -0.3920
vn -0.9313 -0.1669 0.3238
vn 0.3902 -0.3132 -0.8658
vn 0.8791 -0.2548 -0.4027
vn 0.4078 -0.0533 -0.9115
vn 0.9097 0.0173 0.4148
vn 0.5085 -0.1918 -0.8394
vn 0.8828 -0.1393 0.4486
vn 0.9079 -0.3450 -0.2381
vn -0.4036 0.0212 0.9147
vn -0.8922 -0.0310 0.4506
vn -0.3973 0.2823 0.8732
vn -0.9163 -0.0097 -0.4004
vn 0.2812 0.7949 0.5377
vn 0.6974 0.6204 -0.3588
vn -0.6342 0.7627 0.1272
vn -0.9287 0.1736 0.3278
vn -0.9357 0.0604 0.3475
vn -0.9207 -0.1255 0.3696
vn -0.0450 -0.9853 0.1650
vn 0.9003 -0.3200 -0.2951
vn 0.9321 -0.1391 -0.3343
vn 0.9354 -0.0255 -0.3526
vn 0.9339 -0.1143 -0.3387
vn -0.9347 0.0998 0.3412
vn 0.9347 -0.0998 -0.3412
vn 0.3101 -0.7066 -0.6360
vn 0.3620 0.4310 -0.8265
vn 0.7172 -0.5463 0.4326
vn 0.7692 0.5914 0.2420
vn -0.7692 -0.5914 -0.2420
vn -0.7172 0.5463 -0.4325
vn -0.3620 -0.4310 0.8265
vn -0.3101 0.7066 0.6360
vn 0.6291 -0.7673 -0.1246
vn 0.4116 -0.1688 -0.8956
vn 0.6927 0.6261 -0.3579
vn 0.9103 0.0276 0.4131
vn 0.2175 -0.5985 0.7710
vn -0.4116 0.1688 0.8956
vn -0.6927 -0.6261 0.3579
vn -0.6291 0.7673 0.1246
vn -0.9103 -0.0276 -0.4131
vn -0.2812 -0.7949 -0.5377
vn -0.1620 0.1702 0.9720
vn -0.7727 -0.0703 -0.6308
vn 0.1620 -0.1702 -0.9720
vn 0.7727 0.0703 0.6308
vn -0.7874 0.5457 0.2866
vn -0.4331 0.4996 0.7502
vn 0.1352 0.6278 0.7665
vn 0.5961 0.6281 0.5002
vn 0.8969 0.4372 0.0668
vn 0.5998 0.6220 -0.5033
vn 0.1476 0.5269 -0.8370
vn -0.4092 0.5746 -0.7088
vn -0.8230 0.4553 -0.3397
vn -0.6010 0.7800 0.1745
vn -0.3713 0.7441 0.5554
vn 0.1526 0.7528 0.6403
vn 0.5545 0.6911 0.4635
vn 0.5598 0.8267 0.0556
vn 0.6229 0.6606 -0.4191
vn 0.1776 0.6579 -0.7319
vn -0.3978 0.7118 -0.5789
vn -0.4668 0.8546 -0.2275
vn -0.5802 0.7972 0.1670
vn -0.3618 0.7923 0.4913
vn 0.1542 0.8006 0.5790
vn 0.4064 0.9037 0.1348
vn 0.5985 0.7998 -0.0470
vn 0.3947 0.8521 -0.3437
vn 0.1305 0.9260 -0.3543
vn -0.2953 0.8567 -0.4228
vn -0.5394 0.8379 -0.0837
vn -0.4249 0.9012 0.0854
vn -0.1261 0.9602 0.2492
vn 0.1666 0.9527 0.2540
vn 0.3828 0.9218 0.0609
vn 0.4771 0.8663 0.1477
vn -0.1244 0.9339 -0.3353
vn -0.0817 0.9195 -0.3845
vn -0.0634 0.9175 -0.3927
vn -0.3435 0.9388 0.0246
vn -0.8787 0.3854 -0.2816
vn -0.0550 0.9038 -0.4245
vn 0.8478 0.0159 0.5301
vn 0.1350 0.9790 -0.1525
vn -0.1879 0.9807 -0.0541
vn -0.0214 0.9981 0.0578
vn 0.2336 -0.9646 -0.1221
vn 0.0061 -0.1658 -0.9861
vn -0.4392 -0.1164 0.8908
vn -0.9297 -0.2995 0.2143
vn -0.9685 0.1223 0.2169
vn 0.6372 0.7261 -0.2584
vn 0.4110 -0.1790 -0.8939
vn -0.4261 0.1833 0.8859
vn -0.8960 0.0860 -0.4356
vn -0.9613 -0.0583 0.2691
vn -0.9023 -0.1751 -0.3940
vn 0.8713 -0.3594 -0.3342
vn 0.3841 -0.3356 -0.8601
vn 0.9487 -0.0185 0.3157
vn 0.4275 -0.1532 -0.8909
vn 0.9065 0.1431 0.3972
vn 0.9483 -0.2276 -0.2212
vn 0.8889 -0.1168 0.4429
vn -0.8947 -0.1525 0.4199
vn -0.3996 -0.0023 0.9167
vn -0.9512 -0.0359 -0.3066
vn -0.4120 0.1585 0.8973
vt 0.00000 0.24192
vt 0.00000 0.49586
vt 0.00000 0.77339
vt 0.00000 0.81116
vt 0.00000 0.82856
vt 0.00000 0.87732
vt 0.00000 0.93538
vt 0.00000 0.96728
vt 0.00038 0.99695
vt 0.00135 0.98131
vt 0.00155 0.80797
vt 0.00155 0.83175
vt 0.00200 0.81014
vt 0.00200 0.82957
vt 0.00324 0.78450
vt 0.00393 0.49557
vt 0.00478 0.71720
vt 0.00556 0.65782
vt 0.00586 0.68728
vt 0.00698 0.65561
vt 0.00730 0.72024
vt 0.00731 0.66135
vt 0.00771 0.71437
vt 0.00775 0.78466
vt 0.00819 0.91803
vt 0.00819 0.95210
vt 0.00844 0.49573
vt 0.00955 0.68428
vt 0.00959 0.69003
vt 0.00991 0.49622
vt 0.00991 0.77375
vt 0.01148 0.65577
vt 0.01180 0.72040
vt 0.01181 0.66152
vt 0.01222 0.71453
vt 0.01405 0.68445
vt 0.01410 0.69019
vt 0.01469 0.71756
vt 0.01525 0.79712
vt 0.01525 0.84260
vt 0.01535 0.85506
vt 0.01535 0.90145
vt 0.01547 0.65819
vt 0.01577 0.68764
vt 0.01731 0.79802
vt 0.01731 0.84169
vt 0.01873 0.79634
vt 0.01873 0.84339
vt 0.02453 0.96728
vt 0.02491 0.99695
vt 0.02588 0.98131
vt 0.02660 0.91312
vt 0.02660 0.95560
vt 0.02753 0.66094
vt 0.02806 0.69018
vt 0.03061 0.49848
vt 0.03191 0.71945
vt 0.03357 0.49557
vt 0.03389 0.49894
vt 0.03581 0.80021
vt 0.03581 0.83952
vt 0.03639 0.80234
vt 0.03639 0.83737
vt 0.03764 0.96728
vt 0.03764 0.98631
vt 0.03860 0.80242
vt 0.03860 0.83731
vt 0.04019 0.86544
vt 0.04019 0.89411
vt 0.04136 0.92435
vt 0.04136 0.94325
vt 0.04346 0.96743
vt 0.04346 0.98647
vt 0.04488 0.81986
vt 0.04571 0.77353
vt 0.04620 0.81809
vt 0.04620 0.82163
vt 0.05792 0.08401
vt 0.05792 0.39985
vt 0.05897 0.78521
vt 0.05897 0.83204
vt 0.05923 0.84372
vt 0.05923 0.87821
vt 0.05923 0.89005
vt 0.05923 0.92453
vt 0.05923 0.93636
vt 0.05923 0.97095
vt 0.06139 0.95373
vt 0.06143 0.71945
vt 0.06168 0.90665
vt 0.06237 0.86039
vt 0.06474 0.84388
vt 0.06474 0.87838
vt 0.06492 0.89019
vt 0.06492 0.92467
vt 0.06498 0.93634
vt 0.06498 0.97093
vt 0.06632 0.69018
vt 0.06703 0.49557
vt 0.06713 0.95372
vt 0.06726 0.49894
vt 0.06737 0.90679
vt 0.06788 0.66094
vt 0.06788 0.78521
vt 0.06788 0.83204
vt 0.06788 0.86055
vt 0.07964 0.66651
vt 0.07964 0.78422
vt 0.07964 0.84893
vt 0.07964 0.87132
vt 0.07964 0.89985
vt 0.07964 0.93044
vt 0.07964 0.94920
vt 0.07964 0.97723
vt 0.07964 0.98696
vt 0.08064 0.79907
vt 0.08818 0.97225
vt 0.08818 0.99173
vt 0.09344 0.68463
vt 0.09468 0.91843
vt 0.09468 0.96058
vt 0.09673 0.97702
vt 0.09673 0.98675
vt 0.09689 0.68463
vt 0.09904 0.79589
vt 0.09965 0.67265
vt 0.10457 0.86060
vt 0.10457 0.90676
vt 0.10539 0.84447
vt 0.10840 0.78422
vt 0.11344 0.92221
vt 0.11344 0.95601
vt 0.11508 0.79907
vt 0.11585 0.97225
vt 0.11585 0.99138
vt 0.11998 0.88250
vt 0.12019 0.49557
vt 0.12027 0.71564
vt 0.12027 0.73461
vt 0.12027 0.74771
vt 0.12027 0.75117
vt 0.12027 0.76676
vt 0.12028 0.68463
vt 0.12028 0.70364
vt 0.12179 0.93893
vt 0.12179 0.97227
vt 0.12179 0.99139
vt 0.12227 0.76393
vt 0.12227 0.76953
vt 0.12259 0.49631
vt 0.12357 0.74665
vt 0.12357 0.75226
vt 0.12551 0.76494
vt 0.12551 0.76840
vt 0.12561 0.74946
vt 0.12572 0.49634
vt 0.12572 0.67295
vt 0.12572 0.68496
vt 0.12572 0.70397
vt 0.12572 0.71600
vt 0.12572 0.73497
vt 0.12785 0.84893
vt 0.13174 0.90311
vt 0.13411 0.93808
vt 0.13411 0.99968
vt 0.13606 0.93633
vt 0.13606 0.93987
vt 0.13625 0.92057
vt 0.13626 0.95546
vt 0.13632 0.91832
vt 0.13748 0.67326
vt 0.13748 0.68524
vt 0.13748 0.77567
vt 0.13754 0.96713
vt 0.13961 0.79795
vt 0.13961 0.83330
vt 0.13971 0.86658
vt 0.13993 0.68493
vt 0.14183 0.79600
vt 0.14183 0.83528
vt 0.14264 0.79786
vt 0.14264 0.83320
vt 0.14405 0.87625
vt 0.14637 0.76953
vt 0.14818 0.78287
vt 0.14854 0.86060
vt 0.14865 0.96713
vt 0.14883 0.76923
vt 0.15064 0.78256
vt 0.15067 0.68862
vt 0.15166 0.49557
vt 0.15506 0.49557
vt 0.15556 0.87625
vt 0.15834 0.86658
vt 0.15957 0.77291
vt 0.16006 0.79776
vt 0.16006 0.83311
vt 0.16052 0.90311
vt 0.16129 0.79589
vt 0.16129 0.83517
vt 0.16189 0.99968
vt 0.16342 0.79782
vt 0.16342 0.83317
vt 0.16377 0.93633
vt 0.16378 0.93987
vt 0.16397 0.92057
vt 0.16398 0.95546
vt 0.16404 0.91832
vt 0.16579 0.67326
vt 0.16579 0.93808
vt 0.17755 0.67147
vt 0.17755 0.78988
vt 0.17755 0.81638
vt 0.17755 0.83378
vt 0.17755 0.87430
vt 0.17755 0.89285
vt 0.17755 0.92983
vt 0.17755 0.94861
vt 0.17755 0.97221
vt 0.17755 0.99678
vt 0.17828 0.88271
vt 0.17910 0.81319
vt 0.17910 0.83697
vt 0.17954 0.81534
vt 0.17954 0.83477
vt 0.18336 0.49557
vt 0.18627 0.68315
vt 0.18674 0.49557
vt 0.18972 0.68315
vt 0.19263 0.91832
vt 0.19263 0.96054
vt 0.19280 0.80234
vt 0.19280 0.84781
vt 0.19484 0.80322
vt 0.19484 0.84689
vt 0.19488 0.97222
vt 0.19488 0.99678
vt 0.19628 0.80155
vt 0.19628 0.84860
vt 0.20458 0.00000
vt 0.20458 0.48389
vt 0.20573 0.67147
vt 0.20629 0.78988
vt 0.20664 0.97718
vt 0.20664 0.98701
vt 0.21144 0.92277
vt 0.21144 0.95662
vt 0.21250 0.86028
vt 0.21250 0.90665
vt 0.21336 0.80542
vt 0.21336 0.84473
vt 0.21393 0.80755
vt 0.21393 0.84257
vt 0.21432 0.88131
vt 0.21505 0.97221
vt 0.21505 0.99186
vt 0.21615 0.80763
vt 0.21615 0.84252
vt 0.21749 0.66524
vt 0.21810 0.77634
vt 0.21981 0.93982
vt 0.22242 0.82506
vt 0.22346 0.97706
vt 0.22346 0.98689
vt 0.22375 0.82331
vt 0.22375 0.82685
vt 0.22800 0.67692
vt 0.23137 0.67692
vt 0.23728 0.78805
vt 0.23728 0.83422
vt 0.23728 0.86380
vt 0.23728 0.89226
vt 0.23728 0.92684
vt 0.23792 0.95583
vt 0.23897 0.49557
vt 0.23927 0.93851
vt 0.23927 0.97310
vt 0.23938 0.90974
vt 0.24036 0.84590
vt 0.24036 0.88035
vt 0.24241 0.49557
vt 0.24281 0.86399
vt 0.24304 0.89222
vt 0.24304 0.92680
vt 0.24378 0.95584
vt 0.24513 0.90971
vt 0.24513 0.93851
vt 0.24513 0.97311
vt 0.24589 0.84608
vt 0.24589 0.88054
vt 0.24619 0.66524
vt 0.24619 0.77634
vt 0.24619 0.78802
vt 0.24619 0.83418
vt 0.25795 0.64535
vt 0.25795 0.78073
vt 0.25795 0.79240
vt 0.25795 0.86952
vt 0.25795 0.89800
vt 0.25795 0.92882
vt 0.25795 0.94763
vt 0.25795 1.00000
vt 0.25920 0.49992
vt 0.26085 0.97127
vt 0.26465 0.84541
vt 0.26506 0.67391
vt 0.26847 0.67391
vt 0.27213 0.97127
vt 0.27303 0.91732
vt 0.27303 0.95959
vt 0.28223 0.84788
vt 0.28257 0.79586
vt 0.28476 0.85956
vt 0.28476 0.90564
vt 0.28616 1.00000
vt 0.28635 0.78073
vt 0.29182 0.92179
vt 0.29182 0.95570
vt 0.29792 0.97154
vt 0.29792 0.99605
vt 0.29879 0.49557
vt 0.29879 0.66223
vt 0.29966 0.84541
vt 0.30018 0.93887
vt 0.30050 0.75848
vt 0.30050 0.77812
vt 0.30132 0.88189
vt 0.30272 0.75653
vt 0.30272 0.78009
vt 0.30353 0.75838
vt 0.30353 0.77802
vt 0.30697 0.79240
vt 0.31055 0.62446
vt 0.31055 0.64700
vt 0.31055 0.74470
vt 0.31208 0.63614
vt 0.31300 0.64704
vt 0.31300 0.74474
vt 0.31308 0.85970
vt 0.31308 0.89419
vt 0.31326 0.90586
vt 0.31326 0.94045
vt 0.31453 0.63618
vt 0.31488 0.97127
vt 0.31488 0.99578
vt 0.31563 0.92308
vt 0.31568 0.87757
vt 0.31873 0.79240
vt 0.31873 0.81148
vt 0.31873 0.82336
vt 0.31873 0.84234
vt 0.31873 0.85956
vt 0.31873 0.89404
vt 0.31896 0.90588
vt 0.31896 0.94047
vt 0.32095 0.75828
vt 0.32095 0.77792
vt 0.32133 0.87743
vt 0.32133 0.92309
vt 0.32218 0.75642
vt 0.32218 0.77998
vt 0.32401 0.49557
vt 0.32431 0.64612
vt 0.32431 0.74382
vt 0.32431 0.75835
vt 0.32431 0.77798
vt 0.32437 0.79261
vt 0.32437 0.81168
vt 0.32440 0.82362
vt 0.32440 0.84260
vt 0.32747 0.49557
vt 0.33607 0.64673
vt 0.33607 0.65842
vt 0.33607 0.66412
vt 0.33607 0.67579
vt 0.33607 0.68065
vt 0.33607 0.69235
vt 0.33627 0.77161
vt 0.33627 0.79791
vt 0.33627 0.83768
vt 0.33627 0.86647
vt 0.33627 0.90945
vt 0.33627 0.95876
vt 0.33731 0.63614
vt 0.33731 0.64674
vt 0.33731 0.67582
vt 0.33731 0.68068
vt 0.33736 0.94158
vt 0.33736 0.97616
vt 0.33745 0.69593
vt 0.33881 0.66169
vt 0.33934 0.69235
vt 0.33935 0.62446
vt 0.34216 0.95875
vt 0.34325 0.94156
vt 0.34325 0.97615
vt 0.34438 0.89202
vt 0.34438 0.92630
vt 0.35111 0.62205
vt 0.35111 0.74163
vt 0.35414 0.75331
vt 0.35414 0.81681
vt 0.35706 0.49557
vt 0.36044 0.49557
vt 0.36261 0.88715
vt 0.36261 0.92989
vt 0.36392 0.82890
vt 0.36392 0.87547
vt 0.36927 0.95965
vt 0.37081 0.74101
vt 0.37136 0.02920
vt 0.37136 0.45473
vt 0.37150 0.94156
vt 0.37150 0.97594
vt 0.37355 0.63380
vt 0.37499 0.95983
vt 0.37591 0.63372
vt 0.37723 0.89849
vt 0.37723 0.91751
vt 0.37723 0.94174
vt 0.37723 0.97611
vt 0.37909 0.63380
vt 0.37928 0.62205
vt 0.37940 0.75372
vt 0.37940 0.81722
vt 0.38101 0.85225
vt 0.39104 0.62198
vt 0.39277 0.83120
vt 0.39277 0.84959
vt 0.39277 0.89760
vt 0.39277 0.94403
vt 0.39277 0.97680
vt 0.39277 0.98836
vt 0.39470 0.94225
vt 0.39470 0.94579
vt 0.39471 0.89584
vt 0.39471 0.89938
vt 0.39472 0.83152
vt 0.39472 0.84798
vt 0.39474 0.82899
vt 0.39474 0.85150
vt 0.39491 0.88008
vt 0.39492 0.91497
vt 0.39495 0.86616
vt 0.39496 0.96153
vt 0.39497 0.92664
vt 0.39498 0.87784
vt 0.39727 0.74163
vt 0.39727 0.77262
vt 0.39727 0.79892
vt 0.40379 0.97321
vt 0.40379 0.99190
vt 0.40906 0.63365
vt 0.40906 0.71226
vt 0.40906 0.72409
vt 0.40906 0.80253
vt 0.41061 0.98254
vt 0.41065 0.49557
vt 0.41400 0.49557
vt 0.41449 0.94579
vt 0.41450 0.94225
vt 0.41451 0.89584
vt 0.41451 0.89938
vt 0.41452 0.83142
vt 0.41452 0.84788
vt 0.41454 0.82890
vt 0.41454 0.85140
vt 0.41471 0.88008
vt 0.41472 0.91497
vt 0.41475 0.86606
vt 0.41475 0.96153
vt 0.41476 0.92664
vt 0.41478 0.87784
vt 0.41652 0.94403
vt 0.41653 0.83108
vt 0.41653 0.84947
vt 0.41653 0.89760
vt 0.41875 0.72394
vt 0.41875 0.80237
vt 0.41896 0.62198
vt 0.41896 0.63365
vt 0.41896 0.71226
vt 0.43072 0.61693
vt 0.43072 0.63865
vt 0.43072 0.73615
vt 0.43072 0.81569
vt 0.43072 0.85329
vt 0.43072 0.90943
vt 0.43072 0.96003
vt 0.43178 0.94288
vt 0.43178 0.97746
vt 0.43661 0.96002
vt 0.43767 0.94286
vt 0.43767 0.97745
vt 0.43771 0.75738
vt 0.43906 0.89248
vt 0.43906 0.92666
vt 0.44050 0.62870
vt 0.44050 0.74570
vt 0.44201 0.63971
vt 0.44201 0.73721
vt 0.44540 0.62861
vt 0.44691 0.63961
vt 0.44691 0.73711
vt 0.44748 0.83043
vt 0.44748 0.87690
vt 0.44943 0.96022
vt 0.45037 0.94286
vt 0.45037 0.97745
vt 0.45168 0.61216
vt 0.45521 0.75957
vt 0.45522 0.81876
vt 0.45534 0.96023
vt 0.45627 0.94287
vt 0.45627 0.97746
vt 0.45731 0.49614
vt 0.45780 0.88858
vt 0.45780 0.93119
vt 0.45867 0.63926
vt 0.45867 0.73720
vt 0.45983 0.49557
vt 0.46005 0.62861
vt 0.46290 0.49614
vt 0.46357 0.63932
vt 0.46357 0.73726
vt 0.46495 0.62867
vt 0.46803 0.96013
vt 0.46899 0.94287
vt 0.46899 0.97746
vt 0.47272 0.75738
vt 0.47283 0.90065
vt 0.47283 0.91961
vt 0.47393 0.96013
vt 0.47460 0.83991
vt 0.47460 0.86863
vt 0.47476 0.63858
vt 0.47476 0.73652
vt 0.47490 0.94286
vt 0.47490 0.97745
vt 0.47733 0.61693
vt 0.47974 0.81569
vt 0.48022 0.15795
vt 0.48022 0.32600
vt 0.49197 0.21281
vt 0.49197 0.72242
vt 0.49197 0.87950
vt 0.49197 0.90723
vt 0.49197 0.92774
vt 0.49197 0.96312
vt 0.49197 0.99039
vt 0.49225 0.55462
vt 0.49225 0.98593
vt 0.49423 0.92781
vt 0.49423 0.96319
vt 0.49462 0.85777
vt 0.49533 0.43287
vt 0.50262 0.97699
vt 0.50300 0.99450
vt 0.50328 0.99003
vt 0.50508 0.97699
vt 0.50545 0.99450
vt 0.50573 0.99003
vt 0.51011 0.92800
vt 0.51011 0.96339
vt 0.51188 0.92600
vt 0.51188 0.96532
vt 0.51368 0.92800
vt 0.51368 0.96338
vt 0.51749 0.97884
vt 0.51749 0.98366
vt 0.51914 0.86945
vt 0.51914 0.91433
vt 0.52736 0.99343
vt 0.52812 0.97699
vt 0.52812 0.98180
vt 0.52860 0.56523
vt 0.52937 0.92780
vt 0.52937 0.96318
vt 0.52983 0.99347
vt 0.53059 0.97703
vt 0.53059 0.98184
vt 0.53337 0.71489
vt 0.53593 0.89097
vt 0.53780 0.82794
vt 0.53961 0.45453
vt 0.54244 0.35407
vt 0.54314 0.07074
vt 0.54555 0.21279
vt 0.54769 0.86945
vt 0.54769 0.95676
vt 0.54769 0.98422
vt 0.54875 0.96844
vt 0.54927 0.99805
vt 0.55720 0.90261
vt 0.55753 0.92068
vt 0.56141 0.89225
vt 0.56606 0.90900
vt 0.56860 0.92068
vt 0.57215 0.98422
vt 0.57286 0.89225
vt 0.57321 0.96844
vt 0.57374 0.99805
vt 0.57537 0.95676
vt 0.57573 0.90261
vt 0.57632 0.86945
vt 0.57719 0.32495
vt 0.58111 0.58665
vt 0.58209 0.70218
vt 0.59125 0.11140
vt 0.59384 0.56343
vt 0.59384 0.87661
vt 0.59384 0.90421
vt 0.59384 0.96212
vt 0.59384 0.97380
vt 0.59384 0.99290
vt 0.59470 0.73154
vt 0.59696 0.43287
vt 0.59912 0.85856
vt 0.59979 0.97379
vt 0.59979 0.99289
vt 0.60305 0.92656
vt 0.60728 0.21299
vt 0.61467 0.92656
vt 0.62054 0.87023
vt 0.62054 0.91489
vt 0.62289 0.96212
vt 0.63184 0.57355
vt 0.63435 0.71960
vt 0.63465 0.96197
vt 0.63465 0.97364
vt 0.63465 0.99275
vt 0.63704 0.89389
vt 0.63812 0.45118
vt 0.63812 0.83776
vt 0.64059 0.97366
vt 0.64059 0.99276
vt 0.64199 0.15425
vt 0.64258 0.92656
vt 0.64261 0.27102
vt 0.64988 0.44979
vt 0.64988 0.75914
vt 0.64988 0.80819
vt 0.64988 0.82331
vt 0.64988 0.85661
vt 0.64988 0.88581
vt 0.65030 0.82016
vt 0.65245 0.86835
vt 0.65245 0.90293
vt 0.65308 0.58712
vt 0.65362 0.73380
vt 0.65417 0.92656
vt 0.65478 0.82337
vt 0.65478 0.85667
vt 0.65520 0.82022
vt 0.65554 0.88585
vt 0.65757 0.75943
vt 0.65757 0.80849
vt 0.65773 0.97364
vt 0.65773 0.99271
vt 0.65811 0.86839
vt 0.65811 0.90297
vt 0.65814 0.82320
vt 0.65814 0.85641
vt 0.66364 0.96197
vt 0.66364 0.97371
vt 0.66364 0.99278
vt 0.66532 0.75914
vt 0.66532 0.80820
vt 0.67415 0.42120
vt 0.67674 0.00000
vt 0.67846 0.84579
vt 0.67846 0.84933
vt 0.67846 0.88276
vt 0.67846 0.91051
vt 0.67846 0.95453
vt 0.67913 0.76035
vt 0.67913 0.80463
vt 0.67973 0.84756
vt 0.67987 0.93733
vt 0.67987 0.97192
vt 0.68055 0.38547
vt 0.68432 0.95452
vt 0.68572 0.93732
vt 0.68572 0.97191
vt 0.68575 0.05469
vt 0.68606 0.83011
vt 0.68606 0.86500
vt 0.68709 0.21346
vt 0.68759 0.75914
vt 0.68759 0.80341
vt 0.68822 0.83005
vt 0.68822 0.86507
vt 0.68885 0.82790
vt 0.68885 0.86721
vt 0.69196 0.23027
vt 0.69252 0.74746
vt 0.69274 0.19721
vt 0.69276 0.92565
vt 0.69425 0.43287
vt 0.69425 0.58475
vt 0.69425 0.76169
vt 0.69425 0.80597
vt 0.69447 0.10755
vt 0.69520 0.30523
vt 0.69748 0.95457
vt 0.69885 0.93733
vt 0.69885 0.97192
vt 0.70335 0.95456
vt 0.70465 0.16880
vt 0.70471 0.93732
vt 0.70471 0.97191
vt 0.70592 0.82403
vt 0.70592 0.87108
vt 0.70601 0.43316
vt 0.70601 0.62391
vt 0.70601 0.73442
vt 0.70601 0.81236
vt 0.70639 0.62967
vt 0.70730 0.82573
vt 0.70730 0.86940
vt 0.70797 0.23633
vt 0.70798 0.59698
vt 0.70940 0.82482
vt 0.70940 0.87030
vt 0.70979 0.62654
vt 0.71227 0.65337
vt 0.71361 0.65910
vt 0.71409 0.73365
vt 0.71409 0.81159
vt 0.71434 0.88898
vt 0.71434 0.90008
vt 0.71449 0.65609
vt 0.72006 0.90613
vt 0.72259 0.83785
vt 0.72259 0.85728
vt 0.72309 0.73420
vt 0.72309 0.81214
vt 0.72309 0.83567
vt 0.72309 0.85945
vt 0.72726 0.72198
vt 0.72833 0.72197
vt 0.72885 0.18562
vt 0.72896 0.71066
vt 0.73182 0.88450
vt 0.73182 0.91988
vt 0.73182 0.96783
vt 0.73182 0.98447
vt 0.73182 0.99265
vt 0.73312 0.25049
vt 0.73485 0.73365
vt 0.73485 0.73813
vt 0.73496 0.43287
vt 0.73739 0.22310
vt 0.73883 0.73387
vt 0.73918 0.97951
vt 0.73918 0.99586
vt 0.73945 0.93374
vt 0.73947 0.86766
vt 0.74009 0.65584
vt 0.74021 0.20387
vt 0.74298 0.62622
vt 0.74299 0.59664
vt 0.74655 0.98271
vt 0.74655 0.99089
vt 0.74708 0.83104
vt 0.74754 0.88477
vt 0.74754 0.92014
vt 0.74934 0.88276
vt 0.74934 0.92207
vt 0.75106 0.93374
vt 0.75111 0.88477
vt 0.75111 0.92015
vt 0.75128 0.73508
vt 0.75128 0.81280
vt 0.75135 0.84069
vt 0.75475 0.43603
vt 0.75475 0.71198
vt 0.75599 0.82508
vt 0.75713 0.65844
vt 0.75752 0.59978
vt 0.75762 0.43301
vt 0.75767 0.62921
vt 0.75792 0.72311
vt 0.75826 0.43616
vt 0.75978 0.59677
vt 0.75994 0.66119
vt 0.75995 0.60264
vt 0.76015 0.65555
vt 0.76037 0.73568
vt 0.76037 0.81340
vt 0.76083 0.96783
vt 0.76106 0.62653
vt 0.76109 0.63227
vt 0.76247 0.43287
vt 0.76277 0.72297
vt 0.76289 0.84069
vt 0.76311 0.43602
vt 0.76340 0.30369
vt 0.76463 0.59663
vt 0.76479 0.60251
vt 0.76479 0.66105
vt 0.76483 0.12545
vt 0.76499 0.65542
vt 0.76540 0.43573
vt 0.76576 0.83104
vt 0.76591 0.62640
vt 0.76593 0.63213
vt 0.76696 0.88452
vt 0.76696 0.91989
vt 0.76779 0.65814
vt 0.76817 0.59948
vt 0.76832 0.62892
vt 0.76832 0.73478
vt 0.76832 0.81250
vt 0.76832 0.86766
vt 0.78008 0.53081
vt 0.78008 0.63778
vt 0.78008 0.74024
vt 0.78008 0.81123
vt 0.78008 0.84532
vt 0.78008 0.84887
vt 0.78008 0.90446
vt 0.78008 0.97059
vt 0.78084 0.64946
vt 0.78136 0.84710
vt 0.78426 0.64946
vt 0.78531 0.54248
vt 0.78710 0.75191
vt 0.78768 0.82965
vt 0.78768 0.86454
vt 0.78794 0.88701
vt 0.78794 0.92152
vt 0.78871 0.54248
vt 0.78985 0.82959
vt 0.78985 0.86461
vt 0.79047 0.82744
vt 0.79047 0.86675
vt 0.79223 0.93701
vt 0.79229 0.35444
vt 0.79439 0.24449
vt 0.79579 0.07416
vt 0.80044 0.52991
vt 0.80251 0.43298
vt 0.80346 0.93701
vt 0.80453 0.81190
vt 0.80457 0.75238
vt 0.80496 0.43287
vt 0.80558 0.88230
vt 0.80558 0.92534
vt 0.80754 0.82357
vt 0.80754 0.87062
vt 0.80808 0.43298
vt 0.80817 0.97059
vt 0.80834 0.63778
vt 0.80865 0.74024
vt 0.80892 0.82527
vt 0.80892 0.86894
vt 0.81085 0.17937
vt 0.81102 0.82436
vt 0.81102 0.86984
vt 0.81973 0.89388
vt 0.81973 0.91304
vt 0.82010 0.55731
vt 0.82010 0.57471
vt 0.82010 0.63747
vt 0.82041 0.67121
vt 0.82041 0.67475
vt 0.82041 0.71025
vt 0.82041 0.73774
vt 0.82165 0.55412
vt 0.82165 0.57790
vt 0.82168 0.67299
vt 0.82209 0.55627
vt 0.82209 0.57571
vt 0.82212 0.75191
vt 0.82263 0.70830
vt 0.82263 0.73972
vt 0.82344 0.71015
vt 0.82344 0.73764
vt 0.82392 0.41000
vt 0.82422 0.83739
vt 0.82422 0.85682
vt 0.82471 0.83521
vt 0.82471 0.85899
vt 0.82651 0.53081
vt 0.82653 0.02340
vt 0.82801 0.65554
vt 0.82801 0.69043
vt 0.82907 0.60121
vt 0.82910 0.81123
vt 0.83017 0.65548
vt 0.83017 0.69050
vt 0.83080 0.65333
vt 0.83080 0.69264
vt 0.83535 0.54327
vt 0.83535 0.58875
vt 0.83647 0.83250
vt 0.83647 0.86140
vt 0.83647 0.89407
vt 0.83647 0.91325
vt 0.83647 0.93691
vt 0.83647 0.97135
vt 0.83739 0.54415
vt 0.83739 0.58782
vt 0.83827 0.44246
vt 0.83827 0.47120
vt 0.83827 0.49301
vt 0.83827 0.52841
vt 0.83868 0.95488
vt 0.83883 0.54248
vt 0.83883 0.58954
vt 0.84048 0.49105
vt 0.84048 0.53038
vt 0.84068 0.60121
vt 0.84081 0.49305
vt 0.84081 0.52844
vt 0.84086 0.71005
vt 0.84086 0.73755
vt 0.84086 0.77455
vt 0.84092 0.75191
vt 0.84092 0.79862
vt 0.84209 0.70819
vt 0.84209 0.73961
vt 0.84221 0.93676
vt 0.84221 0.97120
vt 0.84422 0.71012
vt 0.84422 0.73761
vt 0.84442 0.95474
vt 0.84787 0.64946
vt 0.84787 0.69651
vt 0.84912 0.63747
vt 0.84925 0.65115
vt 0.84925 0.69483
vt 0.85135 0.65025
vt 0.85135 0.69572
vt 0.85139 0.88200
vt 0.85139 0.92509
vt 0.85591 0.54636
vt 0.85591 0.58566
vt 0.85598 0.70819
vt 0.85598 0.72735
vt 0.85617 0.95421
vt 0.85648 0.54848
vt 0.85648 0.58350
vt 0.85739 0.49313
vt 0.85739 0.52852
vt 0.85777 0.93676
vt 0.85777 0.97135
vt 0.85870 0.54857
vt 0.85870 0.58346
vt 0.85901 0.49114
vt 0.85901 0.53047
vt 0.86087 0.60385
vt 0.86087 0.61950
vt 0.86087 0.62282
vt 0.86094 0.49312
vt 0.86094 0.52852
vt 0.86185 0.70824
vt 0.86185 0.72740
vt 0.86201 0.95423
vt 0.86292 0.60121
vt 0.86292 0.60657
vt 0.86361 0.93678
vt 0.86361 0.97137
vt 0.86407 0.82357
vt 0.86407 0.87033
vt 0.86410 0.61824
vt 0.86410 0.62361
vt 0.86455 0.66327
vt 0.86455 0.68271
vt 0.86497 0.56599
vt 0.86504 0.66109
vt 0.86504 0.68488
vt 0.86509 0.43287
vt 0.86509 0.47938
vt 0.86609 0.62078
vt 0.86624 0.60229
vt 0.86624 0.60561
vt 0.86630 0.56424
vt 0.86630 0.56778
vt 0.86877 0.15957
vt 0.86999 0.88612
vt 0.86999 0.92068
vt 0.87517 0.27485
vt 0.87536 0.95419
vt 0.87557 0.77517
vt 0.87560 0.76611
vt 0.87560 0.78480
vt 0.87571 0.49299
vt 0.87571 0.52838
vt 0.87680 0.67258
vt 0.87680 0.70775
vt 0.87680 0.73760
vt 0.87693 0.93676
vt 0.87693 0.97135
vt 0.87772 0.66274
vt 0.87772 0.68138
vt 0.87806 0.55503
vt 0.87806 0.57373
vt 0.87806 0.62085
vt 0.87815 0.60245
vt 0.87827 0.90333
vt 0.88002 0.61925
vt 0.88003 0.62276
vt 0.88010 0.60278
vt 0.88014 0.60026
vt 0.88016 0.63743
vt 0.88113 0.84695
vt 0.88120 0.95421
vt 0.88167 0.45569
vt 0.88277 0.93678
vt 0.88277 0.97137
vt 0.88680 0.70879
vt 0.88736 0.77331
vt 0.88736 0.80669
vt 0.88736 0.81145
vt 0.88994 0.54248
vt 0.88994 0.58763
vt 0.89003 0.90331
vt 0.89209 0.80795
vt 0.89289 0.84473
vt 0.89343 0.45356
vt 0.89343 0.50797
vt 0.89565 0.75607
vt 0.89565 0.79064
vt 0.89829 0.88611
vt 0.89829 0.92066
vt 0.90124 0.82763
vt 0.90124 0.86199
vt 0.90148 0.43659
vt 0.90148 0.47101
vt 0.90158 0.49110
vt 0.90158 0.52538
vt 0.90181 0.74021
vt 0.90362 0.97044
vt 0.90674 0.54344
vt 0.90674 0.58859
vt 0.90775 0.61925
vt 0.90775 0.62276
vt 0.90783 0.60278
vt 0.90786 0.60026
vt 0.90789 0.63743
vt 0.90916 0.67407
vt 0.90975 0.62085
vt 0.90984 0.60245
vt 0.91145 0.64946
vt 0.91145 0.69607
vt 0.91428 0.75191
vt 0.91428 0.79502
vt 0.91497 0.14385
vt 0.91497 0.28997
vt 0.91565 0.93676
vt 0.91686 0.88200
vt 0.91686 0.92508
vt 0.91862 0.55734
vt 0.91862 0.57604
vt 0.91957 0.43287
vt 0.91957 0.47579
vt 0.91990 0.48746
vt 0.91990 0.53021
vt 0.92002 0.82357
vt 0.92002 0.86642
vt 0.92321 0.66044
vt 0.92321 0.67931
vt 0.92321 0.73964
vt 0.92673 0.02065
vt 0.92673 0.06881
vt 0.92673 0.12252
vt 0.92673 0.17623
vt 0.92673 0.24190
vt 0.92673 0.28874
vt 0.92673 0.33695
vt 0.92673 0.39495
vt 0.92690 0.93676
vt 0.92922 0.76396
vt 0.92922 0.78314
vt 0.93034 0.35554
vt 0.93038 0.56213
vt 0.93038 0.60620
vt 0.93038 0.62457
vt 0.93043 0.22324
vt 0.93066 0.14123
vt 0.93100 0.19493
vt 0.93104 0.08752
vt 0.93175 0.89408
vt 0.93175 0.91326
vt 0.93175 0.97044
vt 0.93275 0.70352
vt 0.93408 0.44521
vt 0.93408 0.46431
vt 0.93459 0.49980
vt 0.93459 0.51882
vt 0.93493 0.37864
vt 0.93493 0.41214
vt 0.93507 0.27219
vt 0.93507 0.30573
vt 0.93508 0.83561
vt 0.93508 0.85468
vt 0.93510 0.00388
vt 0.93510 0.03767
vt 0.93772 0.16123
vt 0.93773 0.64946
vt 0.93773 0.69184
vt 0.93817 0.05381
vt 0.93828 0.10752
vt 0.93856 0.25687
vt 0.93866 0.54581
vt 0.93866 0.57915
vt 0.93883 0.32204
vt 0.94098 0.78758
vt 0.94351 0.89939
vt 0.94351 0.93727
vt 0.94351 0.95431
vt 0.94351 0.97765
vt 0.94351 0.98908
vt 0.94411 0.70352
vt 0.94509 0.59574
vt 0.94509 0.63703
vt 0.94544 0.89761
vt 0.94544 0.90115
vt 0.94570 0.91689
vt 0.94571 0.88200
vt 0.94584 0.44151
vt 0.94584 0.45841
vt 0.94635 0.52123
vt 0.94684 0.85723
vt 0.94688 0.21493
vt 0.94695 0.36382
vt 0.94710 0.14956
vt 0.94733 0.20325
vt 0.94786 0.09584
vt 0.95154 0.75191
vt 0.95163 0.73964
vt 0.95335 0.37549
vt 0.95335 0.41727
vt 0.95381 0.26855
vt 0.95381 0.31037
vt 0.95390 0.00000
vt 0.95390 0.04214
vt 0.95449 0.97432
vt 0.95449 0.99282
vt 0.95570 0.16123
vt 0.95584 0.65462
vt 0.95584 0.68861
vt 0.95661 0.10752
vt 0.95675 0.05381
vt 0.95702 0.25687
vt 0.95702 0.82357
vt 0.95727 0.54248
vt 0.95727 0.58407
vt 0.95753 0.32204
vt 0.95845 0.92857
vt 0.95845 0.96264
vt 0.95888 0.48746
vt 0.96081 0.43287
vt 0.96081 0.46668
vt 0.96128 0.98369
vt 0.96264 0.75191
vt 0.96339 0.70352
vt 0.96339 0.73810
vt 0.96340 0.19493
vt 0.96344 0.60108
vt 0.96344 0.63419
vt 0.96368 0.14123
vt 0.96369 0.22324
vt 0.96390 0.67205
vt 0.96404 0.35554
vt 0.96452 0.08752
vt 0.96540 0.72065
vt 0.96713 0.17623
vt 0.96792 0.12252
vt 0.96812 0.38788
vt 0.96812 0.40647
vt 0.96820 0.24190
vt 0.96847 0.06881
vt 0.96860 0.82357
vt 0.96872 0.78758
vt 0.96875 0.33695
vt 0.96884 0.28055
vt 0.96884 0.29916
vt 0.96897 0.01193
vt 0.96897 0.03068
vt 0.96915 0.70355
vt 0.96915 0.73813
vt 0.96996 0.48746
vt 0.97117 0.72067
vt 0.97160 0.61819
vt 0.97220 0.55466
vt 0.97220 0.57317
vt 0.97315 0.89761
vt 0.97315 0.90115
vt 0.97340 0.93690
vt 0.97340 0.95394
vt 0.97341 0.91689
vt 0.97342 0.88200
vt 0.97404 0.52123
vt 0.97518 0.89939
vt 0.97566 0.66686
vt 0.97578 0.85723
vt 0.97579 0.44114
vt 0.97579 0.45804
vt 0.97675 0.64946
vt 0.97675 0.68405
vt 0.97889 0.17853
vt 0.97967 0.12483
vt 0.97988 0.16123
vt 0.97988 0.19582
vt 0.97988 0.37549
vt 0.97988 0.41007
vt 0.97996 0.23235
vt 0.98023 0.05381
vt 0.98023 0.08823
vt 0.98045 0.21493
vt 0.98045 0.24952
vt 0.98047 0.39255
vt 0.98048 0.75191
vt 0.98048 0.78650
vt 0.98050 0.10752
vt 0.98050 0.14211
vt 0.98051 0.32205
vt 0.98051 0.35662
vt 0.98060 0.27580
vt 0.98060 0.31036
vt 0.98064 0.76928
vt 0.98073 0.01701
vt 0.98088 0.00000
vt 0.98088 0.03458
vt 0.98088 0.33966
vt 0.98089 0.29273
vt 0.98155 0.66687
vt 0.98186 0.07020
vt 0.98264 0.64947
vt 0.98264 0.68406
vt 0.98293 0.70352
vt 0.98293 0.73808
vt 0.98296 0.72115
vt 0.98336 0.59574
vt 0.98336 0.63011
vt 0.98395 0.54254
vt 0.98395 0.57689
vt 0.98413 0.61197
vt 0.98462 0.56069
vt 0.98479 0.17853
vt 0.98516 0.92861
vt 0.98516 0.96293
vt 0.98516 0.97928
vt 0.98516 0.98804
vt 0.98559 0.12483
vt 0.98560 0.94680
vt 0.98578 0.16123
vt 0.98578 0.19582
vt 0.98580 0.37550
vt 0.98580 0.41008
vt 0.98580 0.48746
vt 0.98580 0.52177
vt 0.98589 0.23235
vt 0.98606 0.05393
vt 0.98606 0.08834
vt 0.98624 0.50354
vt 0.98638 0.21493
vt 0.98638 0.24952
vt 0.98640 0.39256
vt 0.98641 0.10752
vt 0.98641 0.14211
vt 0.98642 0.75191
vt 0.98642 0.78650
vt 0.98645 0.32204
vt 0.98645 0.35661
vt 0.98653 0.27580
vt 0.98653 0.31037
vt 0.98658 0.76928
vt 0.98667 0.01701
vt 0.98681 0.33965
vt 0.98682 0.00000
vt 0.98682 0.03457
vt 0.98683 0.29274
vt 0.98693 0.90035
vt 0.98743 0.88200
vt 0.98743 0.91620
vt 0.98754 0.82378
vt 0.98754 0.84278
vt 0.98755 0.43304
vt 0.98755 0.45207
vt 0.98769 0.07031
vt 0.98887 0.70352
vt 0.98887 0.73808
vt 0.98890 0.72115
vt 0.98927 0.59580
vt 0.98927 0.63017
vt 0.98988 0.54248
vt 0.98988 0.57684
vt 0.99005 0.61203
vt 0.99054 0.56063
vt 0.99109 0.92857
vt 0.99109 0.96289
vt 0.99154 0.94676
vt 0.99174 0.48750
vt 0.99174 0.52180
vt 0.99218 0.50358
vt 0.99258 0.97460
vt 0.99258 0.99211
vt 0.99287 0.90040
vt 0.99329 0.82357
vt 0.99329 0.84257
vt 0.99335 0.43287
vt 0.99335 0.45191
vt 0.99336 0.88205
vt 0.99336 0.91625
vt 1.00000 0.97868
vt 1.00000 0.98743
s 0
usemtl ARPG_bone_gilt
f 1/556/359 10/585/359 18/576/359
f 1/556/9 18/576/9 9/551/9
f 1/699/1 11/649/1 10/640/1
f 1/699/351 2/700/351 11/649/351
f 1/79/37 9/1/37 8/78/37
f 100/1060/74 88/1033/74 90/1023/74
f 100/527/73 101/533/73 89/539/73
f 100/527/73 89/539/73 88/529/73
f 103/1187/80 113/1118/80 109/1079/80
f 103/1187/80 115/1163/80 113/1118/80
f 103/289/75 104/271/75 102/279/75
f 103/289/75 105/282/75 104/271/75
f 104/1094/83 106/1073/83 108/1093/83
f 104/1094/83 108/1093/83 112/1172/83
f 104/271/76 105/282/76 107/290/76
f 104/271/76 107/290/76 106/280/76
f 107/1117/80 105/1162/80 103/1187/80
f 107/1214/77 108/1256/77 106/1261/77
f 107/1214/77 109/1210/77 108/1256/77
f 108/1093/83 110/1134/83 112/1172/83
f 108/1256/78 109/1210/78 111/1213/78
f 108/1256/78 111/1213/78 110/1260/78
f 109/1079/80 107/1117/80 103/1187/80
f 11/670/10 19/609/10 10/587/10
f 11/670/360 20/685/360 19/609/360
f 111/144/79 112/158/79 110/159/79
f 111/144/79 113/143/79 112/158/79
f 112/1172/83 114/1173/83 104/1094/83
f 113/1118/80 111/1080/80 109/1079/80
f 113/1269/81 114/1229/81 112/1222/81
f 113/1269/81 115/1276/81 114/1229/81
f 114/1173/83 102/1135/83 104/1094/83
f 114/1229/82 103/1270/82 102/1223/82
f 114/1229/82 115/1276/82 103/1270/82
f 116/1258/84 117/1212/84 119/1231/84
f 116/1258/84 119/1231/84 118/1284/84
f 117/317/89 127/318/89 123/301/89
f 117/317/89 129/324/89 127/318/89
f 118/1086/92 120/1054/92 122/1027/92
f 118/1086/92 122/1027/92 126/1026/92
f 118/1284/85 119/1231/85 121/1211/85
f 118/1284/85 121/1211/85 120/1257/85
f 12/886/11 20/685/11 11/670/11
f 12/886/12 22/981/12 21/841/12
f 12/886/361 21/841/361 20/685/361
f 12/886/362 13/1050/362 22/981/362
f 120/396/86 121/389/86 123/383/86
f 120/396/86 123/383/86 122/394/86
f 121/300/89 119/309/89 117/317/89
f 122/1027/92 124/1019/92 126/1026/92
f 122/394/87 123/383/87 125/388/87
f 122/394/87 125/388/87 124/395/87
f 123/301/89 121/300/89 117/317/89
f 124/64/88 125/72/88 127/73/88
f 124/64/88 127/73/88 126/65/88
f 126/1026/92 128/1053/92 118/1086/92
f 127/1250/90 128/1204/90 126/1206/90
f 127/1250/90 129/1243/90 128/1204/90
f 127/318/89 125/310/89 123/301/89
f 128/1053/92 116/1085/92 118/1086/92
f 129/1243/91 116/1207/91 128/1204/91
f 129/1243/91 117/1251/91 116/1207/91
f 13/1050/13 23/984/13 22/981/13
f 13/1050/363 14/1051/363 23/984/363
f 130/413/93 131/420/93 133/416/93
f 130/413/93 133/416/93 132/409/93
f 131/52/98 141/71/98 137/26/98
f 131/52/98 143/70/98 141/71/98
f 132/132/101 134/121/101 136/113/101
f 132/132/101 136/113/101 140/120/101
f 132/409/94 133/416/94 135/421/94
f 132/409/94 135/421/94 134/414/94
f 134/1266/95 135/1217/95 137/1224/95
f 134/1266/95 137/1224/95 136/1271/95
f 135/7/98 133/25/98 131/52/98
f 136/113/101 138/112/101 140/120/101
f 136/1271/96 137/1224/96 139/1216/96
f 136/1271/96 139/1216/96 138/1265/96
f 137/26/98 135/7/98 131/52/98
f 138/368/97 139/349/97 141/348/97
f 138/368/97 141/348/97 140/367/97
f 14/1051/14 24/839/14 23/984/14
f 14/1051/364 15/880/364 24/839/364
f 140/120/393 142/131/393 132/132/393
f 140/1208/99 141/1252/99 143/1262/99
f 140/1208/99 143/1262/99 142/1215/99
f 141/71/98 139/53/98 137/26/98
f 142/1215/100 131/1253/100 130/1209/100
f 142/1215/100 143/1262/100 131/1253/100
f 142/131/101 130/145/101 132/132/101
f 144/339/102 145/352/102 147/358/102
f 144/339/102 147/358/102 146/347/102
f 145/1164/107 155/1082/107 151/1105/107
f 145/1164/107 157/1129/107 155/1082/107
f 146/862/110 148/849/110 150/832/110
f 146/862/110 150/832/110 154/831/110
f 147/358/103 148/340/103 146/347/103
f 147/358/103 149/353/103 148/340/103
f 149/1011/104 150/985/104 148/994/104
f 149/1011/104 151/1009/104 150/985/104
f 149/1145/107 147/1171/107 145/1164/107
f 150/832/110 152/822/110 154/831/110
f 151/1009/105 152/995/105 150/985/105
f 151/1009/105 153/1012/105 152/995/105
f 151/1105/107 149/1145/107 145/1164/107
f 153/1281/106 154/1303/106 152/1304/106
f 153/1281/106 155/1280/106 154/1303/106
f 154/1286/108 155/1235/108 157/1236/108
f 154/1286/108 157/1236/108 156/1287/108
f 154/831/110 156/848/110 146/862/110
f 155/1082/107 153/1068/107 151/1105/107
f 156/1287/109 145/1234/109 144/1285/109
f 156/1287/109 157/1236/109 145/1234/109
f 156/848/110 144/861/110 146/862/110
f 159/1002/116 169/937/116 165/899/116
f 159/1002/116 171/983/116 169/937/116
f 159/1290/111 160/1242/111 158/1239/111
f 159/1290/111 161/1293/111 160/1242/111
f 16/669/15 24/839/15 15/880/15
f 16/669/365 25/681/365 24/839/365
f 160/1242/112 161/1293/112 163/1291/112
f 160/1242/112 163/1291/112 162/1240/112
f 160/488/119 162/496/119 164/517/119
f 160/488/119 164/517/119 168/532/119
f 162/947/113 163/963/113 165/960/113
f 162/947/113 165/960/113 164/942/113
f 163/936/116 161/982/116 159/1002/116
f 164/517/119 166/531/119 168/532/119
f 164/942/114 167/964/114 166/948/114
f 164/942/394 165/960/394 167/964/394
f 165/899/116 163/936/116 159/1002/116
f 167/615/115 168/619/115 166/620/115
f 167/615/115 169/614/115 168/619/115
f 168/1264/117 169/1219/117 171/1205/117
f 168/1264/117 171/1205/117 170/1248/117
f 168/532/119 170/518/119 160/488/119
f 169/937/116 167/900/116 165/899/116
f 17/586/16 25/681/16 16/669/16
f 17/586/366 26/606/366 25/681/366
f 170/518/119 158/497/119 160/488/119
f 171/1205/118 158/1263/118 170/1248/118
f 171/1205/118 159/1218/118 158/1263/118
f 173/1075/125 183/1049/125 179/1014/125
f 173/1075/125 185/1076/125 183/1049/125
f 173/1238/120 174/1292/120 172/1289/120
f 173/1238/395 175/1241/395 174/1292/395
f 174/1098/128 176/1062/128 178/1029/128
f 174/1098/128 178/1029/128 182/1028/128
f 175/1241/121 176/1288/121 174/1292/121
f 175/1241/121 177/1237/121 176/1288/121
f 177/1024/125 175/1048/125 173/1075/125
f 177/491/122 178/492/122 176/494/122
f 177/491/122 179/489/122 178/492/122
f 178/1029/128 180/1021/128 182/1028/128
f 179/1014/125 177/1024/125 173/1075/125
f 179/489/123 180/493/123 178/492/123
f 179/489/123 181/490/123 180/493/123
f 18/544/18 19/609/18 27/588/18
f 18/544/368 10/587/368 19/609/368
f 18/576/17 26/608/17 17/582/17
f 18/576/367 27/607/367 26/608/367
f 180/658/124 181/665/124 183/666/124
f 180/658/124 183/666/124 182/659/124
f 182/1028/128 184/1061/128 174/1098/128
f 182/276/126 183/287/126 185/285/126
f 182/276/126 185/285/126 184/274/126
f 183/1049/125 181/1025/125 179/1014/125
f 184/1061/128 172/1097/128 174/1098/128
f 185/285/127 172/277/127 184/274/127
f 185/285/127 173/288/127 172/277/127
f 187/1161/134 197/1083/134 193/1101/134
f 187/1161/134 199/1130/134 197/1083/134
f 187/83/129 188/106/129 186/93/129
f 187/83/129 189/91/129 188/106/129
f 188/1064/137 190/1063/137 192/1102/137
f 188/1064/137 192/1102/137 196/1166/137
f 189/91/130 190/92/130 188/106/130
f 189/91/396 191/82/396 190/92/396
f 19/609/19 29/703/19 28/637/19
f 19/609/27 36/622/27 27/588/27
f 19/609/369 20/685/369 29/703/369
f 19/609/377 28/637/377 36/622/377
f 191/1142/134 189/1170/134 187/1161/134
f 191/509/131 192/513/131 190/515/131
f 191/509/131 193/507/131 192/513/131
f 192/1102/137 194/1143/137 196/1166/137
f 192/513/132 193/507/132 195/508/132
f 192/513/132 195/508/132 194/514/132
f 193/1101/134 191/1142/134 187/1161/134
f 194/138/133 195/160/133 197/161/133
f 194/138/133 197/161/133 196/139/133
f 196/1166/137 198/1144/137 188/1064/137
f 197/1083/134 195/1069/134 193/1101/134
f 197/1274/135 198/1225/135 196/1226/135
f 197/1274/135 199/1272/135 198/1225/135
f 198/1144/137 186/1103/137 188/1064/137
f 198/1225/136 187/1275/136 186/1227/136
f 198/1225/136 199/1272/136 187/1275/136
f 2/241/37 1/79/37 8/78/37
f 2/700/2 12/650/2 11/649/2
f 2/700/352 3/696/352 12/650/352
f 201/1178/143 211/1128/143 207/1072/143
f 201/1178/143 213/1167/143 211/1128/143
f 201/1255/138 202/1299/138 200/1298/138
f 201/1255/138 203/1259/138 202/1299/138
f 202/1131/146 204/1084/146 206/1067/146
f 202/1131/146 206/1067/146 210/1146/146
f 203/1259/139 204/1297/139 202/1299/139
f 203/1259/397 205/1254/397 204/1297/397
f 205/1109/143 203/1151/143 201/1178/143
f 205/283/140 206/278/140 204/272/140
f 205/283/140 207/286/140 206/278/140
f 206/1067/146 208/1104/146 210/1146/146
f 207/1072/143 205/1109/143 201/1178/143
f 207/286/141 208/273/141 206/278/141
f 207/286/141 209/284/141 208/273/141
f 209/635/142 210/631/142 208/630/142
f 209/635/142 211/636/142 210/631/142
f 21/841/20 29/703/20 20/685/20
f 21/841/21 31/858/21 30/802/21
f 21/841/370 30/802/370 29/703/370
f 21/841/371 22/981/371 31/858/371
f 210/1146/146 212/1175/146 202/1131/146
f 211/1128/143 209/1077/143 207/1072/143
f 211/660/144 212/645/144 210/647/144
f 211/660/144 213/655/144 212/645/144
f 212/1175/146 200/1168/146 202/1131/146
f 212/645/145 201/661/145 200/648/145
f 212/645/145 213/655/145 201/661/145
f 214/1001/155 215/1006/155 216/1005/155
f 215/837/188 214/835/188 250/857/188
f 215/837/188 250/857/188 252/851/188
f 217/1045/156 218/1040/156 219/1041/156
f 217/971/153 247/904/153 235/873/153
f 217/971/153 253/944/153 247/904/153
f 218/1040/154 221/1003/154 216/1005/154
f 218/1040/154 225/1038/154 221/1003/154
f 219/1041/171 216/1005/171 215/1006/171
f 219/1041/171 218/1040/171 216/1005/171
f 219/980/189 253/944/189 217/971/189
f 219/980/189 254/950/189 253/944/189
f 220/1000/157 221/1003/157 222/1004/157
f 220/825/37 226/834/37 232/856/37
f 220/825/37 232/856/37 244/882/37
f 221/821/169 214/835/169 216/830/169
f 221/821/169 220/825/169 214/835/169
f 222/1004/172 221/1003/172 225/1038/172
f 222/1004/172 225/1038/172 224/1039/172
f 222/820/173 226/834/173 220/825/173
f 222/820/173 227/829/173 226/834/173
f 223/1044/158 224/1039/158 225/1038/158
f 224/1039/152 227/1007/152 222/1004/152
f 224/1039/152 231/1042/152 227/1007/152
f 225/949/170 217/971/170 223/943/170
f 225/949/170 218/979/170 217/971/170
f 226/834/159 227/829/159 228/836/159
f 228/168/175 227/170/175 231/208/175
f 228/168/175 231/208/175 230/206/175
f 229/903/153 223/943/153 217/971/153
f 229/903/160 230/895/160 231/910/160
f 23/984/22 31/858/22 22/981/22
f 23/984/23 33/798/23 32/840/23
f 23/984/372 32/840/372 31/858/372
f 23/984/373 24/839/373 33/798/373
f 230/206/148 233/166/148 228/168/148
f 230/206/148 237/204/148 233/166/148
f 230/895/177 229/903/177 235/873/177
f 230/895/177 235/873/177 237/870/177
f 231/910/174 223/943/174 229/903/174
f 231/910/174 224/938/174 223/943/174
f 232/164/161 233/166/161 234/167/161
f 232/856/37 238/881/37 244/882/37
f 233/850/176 226/834/176 228/836/176
f 233/850/176 232/856/176 226/834/176
f 234/167/178 233/166/178 237/204/178
f 234/167/178 237/204/178 236/205/178
f 235/210/162 236/205/162 237/204/162
f 235/873/153 229/903/153 217/971/153
f 236/205/149 239/169/149 234/167/149
f 236/205/149 243/207/149 239/169/149
f 238/877/163 239/869/163 240/879/163
f 239/883/179 232/856/179 234/859/179
f 239/883/179 238/881/179 232/856/179
f 240/879/181 239/869/181 243/868/181
f 240/879/181 243/868/181 242/878/181
f 241/876/164 242/878/164 243/868/164
f 242/878/150 245/918/150 240/879/150
f 242/878/150 249/917/150 245/918/150
f 243/864/180 235/873/180 241/874/180
f 243/864/180 236/863/180 235/873/180
f 244/882/37 250/857/37 220/825/37
f 244/923/165 245/918/165 246/927/165
f 245/918/182 238/877/182 240/879/182
f 245/918/182 244/923/182 238/877/182
f 246/927/184 245/918/184 249/917/184
f 246/927/184 249/917/184 248/926/184
f 247/904/153 241/874/153 235/873/153
f 247/922/166 248/926/166 249/917/166
f 248/1195/151 251/1119/151 246/1122/151
f 248/1195/151 255/1190/151 251/1119/151
f 248/911/186 247/904/186 253/944/186
f 248/911/186 253/944/186 255/939/186
f 249/896/183 241/874/183 247/904/183
f 249/896/183 242/871/183 241/874/183
f 25/681/24 33/798/24 24/839/24
f 25/681/25 35/639/25 34/704/25
f 25/681/374 34/704/374 33/798/374
f 25/681/375 26/606/375 35/639/375
f 250/1111/167 251/1119/167 252/1120/167
f 250/857/37 214/835/37 220/825/37
f 251/860/185 244/882/185 246/884/185
f 251/860/185 250/857/185 244/882/185
f 252/1120/187 251/1119/187 255/1190/187
f 252/1120/187 255/1190/187 254/1191/187
f 253/1197/168 254/1191/168 255/1190/168
f 254/1191/147 215/1121/147 252/1120/147
f 254/1191/147 219/1194/147 215/1121/147
f 256/428/190 257/440/190 258/438/190
f 259/262/153 289/235/153 277/224/153
f 259/262/153 295/253/153 289/235/153
f 259/475/191 260/464/191 261/466/191
f 26/606/26 36/622/26 35/639/26
f 26/606/376 27/588/376 36/622/376
f 260/464/154 263/439/154 258/438/154
f 260/464/154 267/465/154 263/439/154
f 261/466/171 258/438/171 257/440/171
f 261/466/171 260/464/171 258/438/171
f 262/429/157 263/439/157 264/441/157
f 262/872/37 268/891/37 274/932/37
f 262/872/37 274/932/37 286/970/37
f 263/867/169 256/892/169 258/888/169
f 263/867/169 262/872/169 256/892/169
f 264/441/172 263/439/172 267/465/172
f 264/441/172 267/465/172 266/467/172
f 265/476/158 266/467/158 267/465/158
f 266/250/174 265/252/174 271/234/174
f 266/250/174 271/234/174 273/238/174
f 266/467/152 269/444/152 264/441/152
f 266/467/152 273/470/152 269/444/152
f 267/257/170 259/262/170 265/252/170
f 267/257/170 260/265/170 259/262/170
f 268/891/159 269/887/159 270/893/159
f 269/887/173 262/872/173 264/866/173
f 269/887/173 268/891/173 262/872/173
f 270/442/175 269/447/175 273/473/175
f 270/442/175 273/473/175 272/468/175
f 271/234/153 265/252/153 259/262/153
f 271/234/160 272/232/160 273/238/160
f 272/232/177 271/234/177 277/224/177
f 272/232/177 277/224/177 279/222/177
f 272/468/148 275/436/148 270/442/148
f 272/468/148 279/462/148 275/436/148
f 274/430/161 275/436/161 276/437/161
f 274/932/37 280/969/37 286/970/37
f 275/929/176 268/891/176 270/893/176
f 275/929/176 274/932/176 268/891/176
f 276/437/178 275/436/178 279/462/178
f 276/437/178 279/462/178 278/463/178
f 277/224/153 271/234/153 259/262/153
f 277/477/162 278/463/162 279/462/162
f 278/213/180 277/224/180 283/225/180
f 278/213/180 283/225/180 285/214/180
f 278/463/149 281/443/149 276/437/149
f 278/463/149 285/469/149 281/443/149
f 28/637/28 38/709/28 37/697/28
f 28/637/36 45/688/36 36/622/36
f 28/637/378 29/703/378 38/709/378
f 28/637/386 37/697/386 45/688/386
f 280/329/163 281/326/163 282/331/163
f 281/972/179 274/932/179 276/934/179
f 281/972/179 280/969/179 274/932/179
f 282/331/181 281/326/181 285/325/181
f 282/331/181 285/325/181 284/330/181
f 283/328/164 284/330/164 285/325/164
f 284/223/183 283/225/183 289/235/183
f 284/223/183 289/235/183 291/233/183
f 284/330/150 287/357/150 282/331/150
f 284/330/150 291/356/150 287/357/150
f 286/361/165 287/357/165 288/366/165
f 286/970/37 292/933/37 262/872/37
f 287/357/182 280/329/182 282/331/182
f 287/357/182 286/361/182 280/329/182
f 288/366/184 287/357/184 291/356/184
f 288/366/184 291/356/184 290/365/184
f 289/235/153 283/225/153 277/224/153
f 289/360/166 290/365/166 291/356/166
f 290/239/186 289/235/186 295/253/186
f 290/239/186 295/253/186 297/251/186
f 290/472/151 293/434/151 288/446/151
f 290/472/151 297/461/151 293/434/151
f 292/431/167 293/434/167 294/435/167
f 292/933/37 256/892/37 262/872/37
f 293/935/185 286/970/185 288/973/185
f 293/935/185 292/933/185 286/970/185
f 294/435/187 293/434/187 297/461/187
f 294/435/187 297/461/187 296/460/187
f 294/930/188 256/892/188 292/933/188
f 294/930/188 257/894/188 256/892/188
f 295/474/168 296/460/168 297/461/168
f 296/258/189 259/262/189 261/266/189
f 296/258/189 295/253/189 259/262/189
f 296/460/147 257/445/147 294/435/147
f 296/460/147 261/471/147 257/445/147
f 298/913/155 299/908/155 300/916/155
f 3/618/3 13/628/3 12/634/3
f 3/618/353 4/616/353 13/628/353
f 30/802/29 38/709/29 29/703/29
f 30/802/379 39/742/379 38/709/379
f 300/687/169 304/678/169 298/692/169
f 300/687/169 305/672/169 304/678/169
f 301/63/153 331/14/153 319/45/153
f 301/63/153 337/46/153 331/14/153
f 301/912/156 302/915/156 303/907/156
f 302/67/170 301/63/170 307/74/170
f 302/67/170 307/74/170 309/77/170
f 302/915/154 305/946/154 300/916/154
f 302/915/154 309/945/154 305/946/154
f 303/61/189 337/46/189 301/63/189
f 303/61/189 338/48/189 337/46/189
f 303/907/171 300/916/171 299/908/171
f 303/907/171 302/915/171 300/916/171
f 304/678/37 310/691/37 316/719/37
f 304/678/37 316/719/37 328/735/37
f 304/952/157 305/946/157 306/957/157
f 306/957/172 305/946/172 309/945/172
f 306/957/172 309/945/172 308/956/172
f 307/951/158 308/956/158 309/945/158
f 308/76/174 307/74/174 313/62/174
f 308/76/174 313/62/174 315/66/174
f 308/956/152 311/990/152 306/957/152
f 308/956/152 315/989/152 311/990/152
f 31/858/30 39/742/30 30/802/30
f 31/858/380 40/760/380 39/742/380
f 310/691/159 311/686/159 312/693/159
f 311/686/173 304/678/173 306/671/173
f 311/686/173 310/691/173 304/678/173
f 312/554/175 311/549/175 315/548/175
f 312/554/175 315/548/175 314/553/175
f 312/693/176 316/719/176 310/691/176
f 312/693/176 317/712/176 316/719/176
f 313/62/153 307/74/153 301/63/153
f 313/62/160 314/60/160 315/66/160
f 314/553/148 317/564/148 312/554/148
f 314/553/148 321/563/148 317/564/148
f 316/566/161 317/564/161 318/568/161
f 316/719/37 322/734/37 328/735/37
f 318/568/178 317/564/178 321/563/178
f 318/568/178 321/563/178 320/567/178
f 319/45/153 313/62/153 301/63/153
f 319/565/162 320/567/162 321/563/162
f 32/840/31 40/760/31 31/858/31
f 32/840/32 42/749/32 41/753/32
f 32/840/381 41/753/381 40/760/381
f 32/840/382 33/798/382 42/749/382
f 320/39/180 319/45/180 325/13/180
f 320/39/180 325/13/180 327/11/180
f 320/567/149 323/578/149 318/568/149
f 320/567/149 327/577/149 323/578/149
f 321/47/177 313/62/177 319/45/177
f 321/47/177 314/60/177 313/62/177
f 322/180/163 323/176/163 324/182/163
f 323/738/179 316/719/179 318/723/179
f 323/738/179 322/734/179 316/719/179
f 324/182/181 323/176/181 327/175/181
f 324/182/181 327/175/181 326/181/181
f 325/179/164 326/181/164 327/175/164
f 326/181/150 329/197/150 324/182/150
f 326/181/150 333/196/150 329/197/150
f 326/4/183 325/13/183 331/14/183
f 326/4/183 331/14/183 333/5/183
f 328/200/165 329/197/165 330/203/165
f 328/735/37 334/720/37 304/678/37
f 329/197/182 322/180/182 324/182/182
f 329/197/182 328/200/182 322/180/182
f 330/203/184 329/197/184 333/196/184
f 330/203/184 333/196/184 332/202/184
f 331/14/153 325/13/153 319/45/153
f 331/199/166 332/202/166 333/196/166
f 332/12/186 331/14/186 337/46/186
f 332/12/186 337/46/186 339/40/186
f 332/744/151 335/767/151 330/745/151
f 332/744/151 339/766/151 335/767/151
f 334/720/37 298/692/37 304/678/37
f 334/769/167 335/767/167 336/772/167
f 335/724/185 328/735/185 330/739/185
f 335/724/185 334/720/185 328/735/185
f 336/713/188 298/692/188 334/720/188
f 336/713/188 299/694/188 298/692/188
f 336/772/187 335/767/187 339/766/187
f 336/772/187 339/766/187 338/771/187
f 337/768/168 338/771/168 339/766/168
f 338/771/147 299/809/147 336/772/147
f 338/771/147 303/808/147 299/809/147
f 34/704/33 42/749/33 33/798/33
f 34/704/34 44/695/34 43/721/34
f 34/704/383 43/721/383 42/749/383
f 34/704/384 35/639/384 44/695/384
f 35/639/35 45/688/35 44/695/35
f 35/639/385 36/622/385 45/688/385
f 38/709/388 39/742/388 40/760/388
f 4/543/37 3/412/37 2/241/37
f 4/616/354 5/610/354 14/627/354
f 4/616/4 14/627/4 13/628/4
f 40/760/38 43/721/38 45/688/38
f 40/760/389 41/753/389 42/749/389
f 40/760/391 42/749/391 43/721/391
f 43/721/390 44/695/390 45/688/390
f 431/125/255 432/162/255 430/129/255
f 431/125/255 433/133/255 432/162/255
f 431/998/261 445/1017/261 443/1036/261
f 432/332/256 433/323/256 435/311/256
f 432/332/256 435/311/256 434/312/256
f 432/449/264 434/450/264 436/425/264
f 435/1018/261 431/998/261 443/1036/261
f 435/1018/261 433/999/261 431/998/261
f 435/311/257 436/297/257 434/312/257
f 435/311/257 437/305/257 436/297/257
f 436/425/264 438/402/264 440/379/264
f 436/425/264 440/379/264 444/401/264
f 436/819/258 437/828/258 439/846/258
f 436/819/258 439/846/258 438/845/258
f 439/1056/261 437/1037/261 435/1018/261
f 439/846/259 440/890/259 438/845/259
f 439/846/259 441/875/259 440/890/259
f 440/379/264 442/378/264 444/401/264
f 441/495/260 442/512/260 440/486/260
f 441/495/260 443/511/260 442/512/260
f 442/512/262 443/511/262 445/530/262
f 442/512/262 445/530/262 444/541/262
f 443/1036/261 439/1056/261 435/1018/261
f 443/1036/261 441/1055/261 439/1056/261
f 444/109/263 431/125/263 430/129/263
f 444/109/263 445/116/263 431/125/263
f 444/401/264 430/424/264 432/449/264
f 444/401/264 432/449/264 436/425/264
f 447/689/265 448/702/265 446/690/265
f 447/689/265 449/701/265 448/702/265
f 447/756/261 455/747/261 451/763/261
f 447/756/261 457/748/261 455/747/261
f 448/1310/264 450/1301/264 452/1247/264
f 448/1310/264 452/1247/264 456/1300/264
f 449/294/266 450/269/266 448/293/266
f 449/294/266 451/270/266 450/269/266
f 45/688/387 37/697/387 38/709/387
f 45/688/392 38/709/392 40/760/392
f 451/641/267 452/657/267 450/642/267
f 451/641/267 453/656/267 452/657/267
f 451/763/261 449/764/261 447/756/261
f 452/1247/264 454/1246/264 456/1300/264
f 452/657/268 453/656/268 455/667/268
f 452/657/268 455/667/268 454/668/268
f 455/747/261 453/755/261 451/763/261
f 455/80/269 456/105/269 454/81/269
f 455/80/269 457/104/269 456/105/269
f 456/1300/264 446/1309/264 448/1310/264
f 457/676/270 446/690/270 456/677/270
f 457/676/270 447/689/270 446/690/270
f 47/1057/44 57/1090/44 53/1031/44
f 47/1057/44 59/1089/44 57/1090/44
f 47/1307/39 48/1277/39 46/1278/39
f 47/1307/39 49/1302/39 48/1277/39
f 48/398/47 50/382/47 52/397/47
f 48/398/47 52/397/47 56/418/47
f 49/1302/40 50/1279/40 48/1277/40
f 49/1302/40 51/1308/40 50/1279/40
f 51/1022/44 49/1030/44 47/1057/44
f 51/342/41 52/359/41 50/355/41
f 51/342/41 53/346/41 52/359/41
f 512/500/329 513/484/329 514/498/329
f 515/573/330 516/570/330 517/575/330
f 515/573/338 514/581/338 513/579/338
f 515/573/338 517/575/338 514/581/338
f 516/364/300 515/338/300 528/337/300
f 516/364/300 528/337/300 527/363/300
f 517/575/328 519/580/328 514/581/328
f 517/575/328 523/574/328 519/580/328
f 518/195/331 519/189/331 520/188/331
f 518/503/337 512/500/337 514/498/337
f 518/503/337 514/498/337 519/502/337
f 52/397/47 54/405/47 56/418/47
f 520/188/279 522/184/279 535/172/279
f 520/188/279 535/172/279 531/178/279
f 520/188/340 519/189/340 523/185/340
f 520/188/340 523/185/340 522/184/340
f 521/173/332 522/184/332 523/185/332
f 521/525/280 516/520/280 527/519/280
f 521/525/280 527/519/280 533/524/280
f 521/569/339 517/575/339 516/570/339
f 521/569/339 523/574/339 517/575/339
f 524/501/333 525/499/333 526/485/333
f 524/501/346 513/484/346 512/500/346
f 524/501/346 526/485/346 513/484/346
f 524/550/343 530/552/343 532/559/343
f 524/550/343 532/559/343 525/558/343
f 527/363/334 528/337/334 529/343/334
f 527/519/344 529/522/344 534/526/344
f 527/519/344 534/526/344 533/524/344
f 528/337/272 513/335/272 526/334/272
f 528/337/272 515/338/272 513/335/272
f 528/337/345 525/336/345 529/343/345
f 528/337/345 526/334/345 525/336/345
f 53/1031/44 51/1022/44 47/1057/44
f 53/346/42 54/354/42 52/359/42
f 53/346/42 55/341/42 54/354/42
f 530/190/341 518/195/341 520/188/341
f 530/190/341 520/188/341 531/178/341
f 530/504/322 512/500/322 518/503/322
f 530/504/322 524/501/322 512/500/322
f 530/552/335 531/557/335 532/559/335
f 532/559/342 531/557/342 535/560/342
f 532/559/342 535/560/342 534/562/342
f 533/524/316 522/537/316 521/525/316
f 533/524/316 535/536/316 522/537/316
f 533/524/336 534/526/336 535/536/336
f 534/562/327 525/558/327 532/559/327
f 534/562/327 529/561/327 525/558/327
f 55/941/43 56/958/43 54/959/43
f 55/941/43 57/940/43 56/958/43
f 56/418/47 58/419/47 48/398/47
f 57/1090/44 55/1058/44 53/1031/44
f 57/96/45 58/88/45 56/86/45
f 57/96/45 59/100/45 58/88/45
f 58/419/47 46/406/47 48/398/47
f 58/88/46 47/97/46 46/87/46
f 58/88/46 59/100/46 47/97/46
f 6/321/356 7/322/356 16/295/356
f 6/321/6 16/295/6 15/303/6
f 6/411/37 5/542/37 4/543/37
f 6/617/355 15/633/355 14/627/355
f 6/617/5 14/627/5 5/610/5
f 61/1179/53 71/1137/53 67/1071/53
f 61/1179/53 73/1180/53 71/1137/53
f 61/924/48 62/909/48 60/901/48
f 61/924/48 63/928/48 62/909/48
f 62/1108/56 64/1078/56 66/1107/56
f 62/1108/56 66/1107/56 70/1188/56
f 63/928/49 64/902/49 62/909/49
f 63/928/49 65/925/49 64/902/49
f 65/1095/53 63/1136/53 61/1179/53
f 65/1232/50 66/1198/50 64/1202/50
f 65/1232/50 67/1230/50 66/1198/50
f 66/1107/56 68/1149/56 70/1188/56
f 67/1071/53 65/1095/53 61/1179/53
f 67/1230/51 68/1203/51 66/1198/51
f 67/1230/51 69/1233/51 68/1203/51
f 68/1306/52 69/1283/52 71/1282/52
f 68/1306/52 71/1282/52 70/1305/52
f 7/555/357 8/545/357 17/582/357
f 7/555/7 17/582/7 16/584/7
f 70/1188/56 72/1189/56 62/1108/56
f 71/1137/53 69/1096/53 67/1071/53
f 71/1221/54 72/1273/54 70/1268/54
f 71/1221/54 73/1228/54 72/1273/54
f 72/1189/56 60/1150/56 62/1108/56
f 73/1228/55 60/1267/55 72/1273/55
f 73/1228/55 61/1220/55 60/1267/55
f 75/1294/57 76/1249/57 74/1244/57
f 75/1294/57 77/1296/57 76/1249/57
f 75/230/62 85/261/62 81/231/62
f 75/230/62 87/246/62 85/261/62
f 76/1066/65 78/1099/65 80/1138/65
f 76/1066/65 80/1138/65 84/1182/65
f 76/1249/58 77/1296/58 79/1295/58
f 76/1249/58 79/1295/58 78/1245/58
f 78/1184/59 79/1160/59 81/1169/59
f 78/1184/59 81/1169/59 80/1186/59
f 79/218/62 77/217/62 75/230/62
f 8/545/358 9/551/358 18/576/358
f 8/545/8 18/576/8 17/582/8
f 8/78/37 4/543/37 2/241/37
f 8/78/37 6/411/37 4/543/37
f 8/78/37 7/240/37 6/411/37
f 80/1138/65 82/1181/65 84/1182/65
f 80/1186/60 81/1169/60 83/1159/60
f 80/1186/60 83/1159/60 82/1183/60
f 81/231/62 79/218/62 75/230/62
f 83/135/61 84/146/61 82/147/61
f 83/135/61 85/134/61 84/146/61
f 84/1182/65 86/1139/65 76/1066/65
f 85/261/62 83/247/62 81/231/62
f 85/707/63 86/708/63 84/711/63
f 85/707/63 87/705/63 86/708/63
f 86/1139/65 74/1100/65 76/1066/65
f 87/705/64 74/710/64 86/708/64
f 87/705/64 75/706/64 74/710/64
f 88/95/66 89/85/66 91/90/66
f 88/95/66 91/90/66 90/102/66
f 89/1174/71 101/1147/71 99/1106/71
f 89/1174/71 99/1106/71 95/1081/71
f 90/1023/74 92/1032/74 94/1059/74
f 90/1023/74 94/1059/74 98/1092/74
f 91/90/67 92/94/67 90/102/67
f 91/90/67 93/84/67 92/94/67
f 92/684/68 93/680/68 95/675/68
f 92/684/68 95/675/68 94/682/68
f 93/1127/71 91/1165/71 89/1174/71
f 94/1059/74 96/1091/74 98/1092/74
f 94/682/69 95/675/69 97/679/69
f 94/682/69 97/679/69 96/683/69
f 95/1081/71 93/1127/71 89/1174/71
f 96/350/70 97/369/70 99/370/70
f 96/350/70 99/370/70 98/351/70
f 98/1092/74 100/1060/74 90/1023/74
f 99/1106/71 97/1070/71 95/1081/71
f 99/538/72 100/527/72 98/528/72
f 99/538/72 101/533/72 100/527/72
usemtl ARPG_ember
f 341/193/195 347/177/195 345/186/195
f 341/193/195 349/183/195 347/177/195
f 341/992/192 342/1034/192 340/993/192
f 341/992/192 343/1013/192 342/1034/192
f 342/1065/193 343/1088/193 345/1116/193
f 342/1065/193 345/1116/193 344/1133/193
f 342/111/198 344/110/198 346/127/198
f 342/111/198 346/127/198 348/136/198
f 345/186/195 343/194/195 341/193/195
f 345/216/194 346/254/194 344/249/194
f 345/216/194 347/221/194 346/254/194
f 346/254/196 347/221/196 349/215/196
f 346/254/196 349/215/196 348/248/196
f 348/136/198 340/128/198 342/111/198
f 348/163/197 341/193/197 340/198/197
f 348/163/197 349/183/197 341/193/197
f 351/730/199 352/674/199 350/673/199
f 351/730/199 353/731/199 352/674/199
f 351/805/202 357/775/202 355/765/202
f 351/805/202 359/796/202 357/775/202
f 352/6/205 354/41/205 356/68/205
f 352/6/205 356/68/205 358/69/205
f 353/731/200 354/698/200 352/674/200
f 353/731/200 355/733/200 354/698/200
f 355/174/201 356/201/201 354/165/201
f 355/174/201 357/187/201 356/201/201
f 355/765/202 353/778/202 351/805/202
f 356/758/203 359/796/203 358/815/203
f 356/758/398 357/775/398 359/796/398
f 358/69/205 350/42/205 352/6/205
f 359/757/204 350/791/204 358/746/204
f 359/757/204 351/770/204 350/791/204
f 360/1125/206 361/1154/206 363/1185/206
f 360/1125/206 363/1185/206 362/1196/206
f 361/604/209 367/594/209 365/596/209
f 361/604/209 369/597/209 367/594/209
f 362/625/212 364/612/212 366/611/212
f 362/625/212 366/611/212 368/624/212
f 363/600/207 364/589/207 362/605/207
f 363/600/207 365/596/207 364/589/207
f 364/302/208 365/304/208 367/308/208
f 364/302/208 367/308/208 366/315/208
f 365/596/209 363/600/209 361/604/209
f 367/638/210 368/664/210 366/629/210
f 367/638/210 369/651/210 368/664/210
f 368/624/212 360/632/212 362/625/212
f 369/889/211 360/931/211 368/865/211
f 369/889/211 361/914/211 360/931/211
f 371/457/216 377/433/216 375/432/216
f 371/457/216 379/452/216 377/433/216
f 371/987/213 372/919/213 370/920/213
f 371/987/213 373/986/213 372/919/213
f 372/426/219 374/408/219 376/381/219
f 372/426/219 376/381/219 378/380/219
f 373/986/214 374/921/214 372/919/214
f 373/986/214 375/988/214 374/921/214
f 374/613/215 375/621/215 377/623/215
f 374/613/215 377/623/215 376/626/215
f 375/432/216 373/451/216 371/457/216
f 376/823/217 377/838/217 379/844/217
f 376/823/217 379/844/217 378/853/217
f 378/1035/218 371/1074/218 370/1087/218
f 378/1035/218 379/1052/218 371/1074/218
f 378/380/219 370/407/219 372/426/219
f 380/1047/220 381/997/220 383/991/220
f 380/1047/220 383/991/220 382/1043/220
f 381/1141/223 387/1114/223 385/1140/223
f 381/1141/223 389/1115/223 387/1114/223
f 382/506/226 384/487/226 386/505/226
f 382/506/226 386/505/226 388/534/226
f 383/991/221 384/1046/221 382/1043/221
f 383/991/221 385/996/221 384/1046/221
f 385/1140/223 383/1157/223 381/1141/223
f 385/1148/222 386/1199/222 384/1126/222
f 385/1148/222 387/1176/222 386/1199/222
f 387/1132/224 388/1177/224 386/1110/224
f 387/1132/224 389/1158/224 388/1177/224
f 388/534/226 380/535/226 382/506/226
f 388/590/225 381/598/225 380/603/225
f 388/590/225 389/595/225 381/598/225
f 548/8/347 549/49/347 551/51/347
f 548/8/347 551/51/347 550/10/347
f 549/1153/280 557/1112/280 553/1192/280
f 549/1153/280 559/1113/280 557/1112/280
f 550/10/327 551/51/327 553/50/327
f 550/10/327 553/50/327 552/9/327
f 550/1156/322 552/1124/322 554/1123/322
f 550/1156/322 554/1123/322 558/1200/322
f 552/592/348 553/601/348 555/599/348
f 552/592/348 555/599/348 554/591/348
f 553/1192/280 551/1193/280 549/1153/280
f 554/1123/322 556/1155/322 558/1200/322
f 555/599/349 556/593/349 554/591/349
f 555/599/349 557/602/349 556/593/349
f 556/320/328 557/319/328 559/344/328
f 556/320/328 559/344/328 558/345/328
f 557/1112/280 555/1152/280 553/1192/280
f 558/1200/322 548/1201/322 550/1156/322
f 558/220/350 549/236/350 548/237/350
f 558/220/350 559/219/350 549/236/350
usemtl ARPG_arcane
f 390/259/227 391/275/227 393/281/227
f 390/259/227 393/281/227 392/291/227
f 391/154/230 397/142/230 395/148/230
f 391/154/230 399/149/230 397/142/230
f 392/107/228 393/137/228 395/150/228
f 392/107/228 395/150/228 394/126/228
f 392/975/233 394/906/233 396/905/233
f 392/975/233 396/905/233 398/974/233
f 395/148/230 393/153/230 391/154/230
f 395/150/229 396/157/229 394/126/229
f 395/150/229 397/156/229 396/157/229
f 396/171/231 397/191/231 399/192/231
f 396/171/231 399/192/231 398/209/231
f 398/974/233 390/1010/233 392/975/233
f 399/226/232 390/242/232 398/211/232
f 399/226/232 391/228/232 390/242/232
f 401/362/234 402/393/234 400/333/234
f 401/362/234 403/371/234 402/393/234
f 401/961/237 407/978/237 405/962/237
f 401/961/237 409/977/237 407/978/237
f 402/299/240 404/298/240 406/313/240
f 402/299/240 406/313/240 408/327/240
f 402/483/235 403/516/235 405/521/235
f 402/483/235 405/521/235 404/510/235
f 404/510/236 405/521/236 407/523/236
f 404/510/236 407/523/236 406/540/236
f 405/962/237 403/953/237 401/961/237
f 407/403/238 408/423/238 406/399/238
f 407/403/238 409/404/238 408/423/238
f 408/327/240 400/314/240 402/299/240
f 409/458/239 400/480/239 408/427/239
f 409/458/239 401/459/239 400/480/239
f 411/227/241 412/243/241 410/212/241
f 411/227/241 413/229/241 412/243/241
f 411/967/244 417/968/244 415/955/244
f 411/967/244 419/976/244 417/968/244
f 412/400/242 413/415/242 415/417/242
f 412/400/242 415/417/242 414/410/242
f 412/572/247 414/547/247 416/546/247
f 412/572/247 416/546/247 418/571/247
f 415/417/243 416/448/243 414/410/243
f 415/417/243 417/422/243 416/448/243
f 415/955/244 413/954/244 411/967/244
f 416/818/245 417/824/245 419/826/245
f 416/818/245 419/826/245 418/855/245
f 418/571/247 410/583/247 412/572/247
f 419/306/246 410/316/246 418/296/246
f 419/306/246 411/307/246 410/316/246
f 421/119/248 422/130/248 420/108/248
f 421/119/248 423/124/248 422/130/248
f 421/155/251 427/141/251 425/140/251
f 421/155/251 429/152/251 427/141/251
f 422/966/254 424/898/254 426/897/254
f 422/966/254 426/897/254 428/965/254
f 423/843/249 424/842/249 422/816/249
f 423/843/249 425/847/249 424/842/249
f 425/140/251 423/151/251 421/155/251
f 425/847/250 426/885/250 424/842/250
f 425/847/250 427/852/250 426/885/250
f 426/817/252 427/827/252 429/833/252
f 426/817/252 429/833/252 428/854/252
f 428/965/254 420/1008/254 422/966/254
f 429/267/253 420/292/253 428/260/253
f 429/267/253 421/268/253 420/292/253
usemtl ARPG_obsidian_iron
f 458/784/281 459/776/281 460/781/281
f 458/784/326 485/797/326 509/799/326
f 458/784/326 509/799/326 482/785/326
f 459/776/299 482/785/299 484/780/299
f 459/776/399 458/784/399 482/785/399
f 461/58/282 462/59/282 463/56/282
f 461/643/280 486/653/280 460/644/280
f 461/643/280 490/652/280 486/653/280
f 462/30/301 464/32/301 463/27/301
f 462/30/400 465/43/400 464/32/400
f 462/59/272 459/101/272 484/103/272
f 462/59/300 460/99/300 459/101/300
f 462/59/300 461/58/300 460/99/300
f 463/27/271 464/32/271 493/20/271
f 463/27/271 493/20/271 488/16/271
f 464/32/283 465/43/283 466/34/283
f 465/54/272 462/59/272 484/103/272
f 466/34/319 491/22/319 493/20/319
f 466/34/319 493/20/319 464/32/319
f 467/36/273 491/22/273 466/34/273
f 467/36/273 496/28/273 491/22/273
f 467/373/284 468/391/284 469/374/284
f 468/44/302 466/34/302 465/43/302
f 468/44/303 470/35/303 469/37/303
f 468/44/401 467/36/401 466/34/401
f 468/44/402 471/38/402 470/35/402
f 470/35/274 494/29/274 469/37/274
f 470/35/274 499/23/274 494/29/274
f 470/35/285 471/38/285 472/33/285
f 471/57/272 468/55/272 465/54/272
f 473/24/275 497/21/275 472/33/275
f 473/24/275 502/15/275 497/21/275
f 473/372/286 474/384/286 475/385/286
f 474/31/304 472/33/304 471/38/304
f 474/31/403 473/24/403 472/33/403
f 474/777/305 476/786/305 475/783/305
f 474/777/404 477/779/404 476/786/404
f 475/386/322 500/387/322 502/376/322
f 475/386/322 502/376/322 473/375/322
f 476/786/276 500/795/276 475/783/276
f 476/786/276 505/801/276 500/795/276
f 476/786/287 477/779/287 478/788/287
f 477/89/272 474/75/272 471/57/272
f 478/788/323 503/803/323 505/801/323
f 478/788/323 505/801/323 476/786/323
f 479/793/277 503/803/277 478/788/277
f 479/793/277 508/807/277 503/803/277
f 479/793/288 480/782/288 481/792/288
f 480/782/306 478/788/306 477/779/306
f 480/782/307 483/787/307 481/792/307
f 480/782/405 479/793/405 478/788/405
f 480/782/406 484/780/406 483/787/406
f 482/1020/289 483/1016/289 484/1015/289
f 482/785/325 509/799/325 511/800/325
f 482/785/325 511/800/325 483/787/325
f 483/787/278 506/806/278 481/792/278
f 483/787/278 511/800/278 506/806/278
f 484/103/272 471/57/272 465/54/272
f 484/103/272 477/89/272 471/57/272
f 484/103/272 480/98/272 477/89/272
f 485/390/290 486/377/290 487/392/290
f 485/797/317 458/784/317 460/781/317
f 485/797/317 460/781/317 486/794/317
f 487/714/279 489/752/279 492/762/279
f 487/714/279 492/762/279 498/759/279
f 487/714/279 498/759/279 504/732/279
f 487/804/308 509/799/308 485/797/308
f 487/804/407 510/811/407 509/799/407
f 488/654/291 489/662/291 490/652/291
f 488/654/318 461/643/318 463/646/318
f 488/654/318 490/652/318 461/643/318
f 489/2/315 493/20/315 492/18/315
f 489/2/414 488/16/414 493/20/414
f 489/662/316 486/653/316 490/652/316
f 489/662/316 487/663/316 486/653/316
f 491/751/292 492/750/292 493/754/292
f 492/762/279 495/761/279 498/759/279
f 494/29/293 495/19/293 496/28/293
f 494/29/320 467/36/320 469/37/320
f 494/29/320 496/28/320 467/36/320
f 495/19/313 499/23/313 498/17/313
f 495/19/314 491/22/314 496/28/314
f 495/19/412 494/29/412 499/23/412
f 495/19/413 492/18/413 491/22/413
f 497/21/294 498/17/294 499/23/294
f 497/21/321 470/35/321 472/33/321
f 497/21/321 499/23/321 470/35/321
f 498/759/279 501/743/279 504/732/279
f 500/740/295 501/743/295 502/741/295
f 501/3/312 497/21/312 502/15/312
f 501/3/411 498/17/411 497/21/411
f 501/743/311 505/727/311 504/732/311
f 501/743/410 500/740/410 505/727/410
f 503/803/296 504/810/296 505/801/296
f 504/732/279 507/725/279 487/714/279
f 506/715/297 507/725/297 508/718/297
f 506/806/324 479/793/324 481/792/324
f 506/806/324 508/807/324 479/793/324
f 507/725/279 510/722/279 487/714/279
f 507/725/310 503/726/310 508/718/310
f 507/725/409 504/732/409 503/726/409
f 507/812/309 511/800/309 510/811/309
f 507/812/408 506/806/408 511/800/408
f 509/799/298 510/811/298 511/800/298
usemtl ARPG_obsidian
f 537/118/280 545/114/280 541/122/280
f 537/118/280 547/115/280 545/114/280
f 537/716/347 538/729/347 536/717/347
f 537/716/347 539/728/347 538/729/347
f 538/264/322 540/256/322 542/245/322
f 538/264/322 542/245/322 546/255/322
f 539/728/327 540/737/327 538/729/327
f 539/728/327 541/736/327 540/737/327
f 541/122/280 539/123/280 537/118/280
f 541/773/348 542/790/348 540/774/348
f 541/773/348 543/789/348 542/790/348
f 542/245/322 544/244/322 546/255/322
f 542/790/349 543/789/349 545/813/349
f 542/790/349 545/813/349 544/814/349
f 544/456/328 545/455/328 547/478/328
f 544/456/328 547/478/328 546/479/328
f 545/114/280 543/117/280 541/122/280
f 546/255/322 536/263/322 538/264/322
f 547/453/350 536/482/350 546/454/350
f 547/453/350 537/481/350 536/482/350
