# Blender 4.0.2
# www.blender.org
mtllib portal_gate.mtl
o portal_gate
v 1.870000 0.000000 -0.770000
v 1.870000 0.030000 -0.800000
v 1.900000 0.030000 -0.770000
v 1.870000 0.130000 -0.800000
v 1.870000 0.160000 -0.770000
v 1.900000 0.130000 -0.770000
v 1.870000 0.000000 0.770000
v 1.900000 0.030000 0.770000
v 1.870000 0.030000 0.800000
v 1.870000 0.160000 0.770000
v 1.870000 0.130000 0.800000
v 1.900000 0.130000 0.770000
v -1.870000 0.000000 -0.770000
v -1.900000 0.030000 -0.770000
v -1.870000 0.030000 -0.800000
v -1.870000 0.160000 -0.770000
v -1.870000 0.130000 -0.800000
v -1.900000 0.130000 -0.770000
v -1.870000 0.000000 0.770000
v -1.870000 0.030000 0.800000
v -1.900000 0.030000 0.770000
v -1.870000 0.160000 0.770000
v -1.900000 0.130000 0.770000
v -1.870000 0.130000 0.800000
v 1.170000 0.000000 0.820000
v 1.170000 0.030000 0.790000
v 1.200000 0.030000 0.820000
v 1.170000 0.050000 0.790000
v 1.170000 0.080000 0.820000
v 1.200000 0.050000 0.820000
v 1.170000 0.000000 1.180000
v 1.200000 0.030000 1.180000
v 1.170000 0.030000 1.210000
v 1.170000 0.080000 1.180000
v 1.170000 0.050000 1.210000
v 1.200000 0.050000 1.180000
v -1.170000 0.000000 0.820000
v -1.200000 0.030000 0.820000
v -1.170000 0.030000 0.790000
v -1.170000 0.080000 0.820000
v -1.170000 0.050000 0.790000
v -1.200000 0.050000 0.820000
v -1.170000 0.000000 1.180000
v -1.170000 0.030000 1.210000
v -1.200000 0.030000 1.180000
v -1.170000 0.080000 1.180000
v -1.200000 0.050000 1.180000
v -1.170000 0.050000 1.210000
v 0.870208 0.159500 0.306501
v 0.870208 0.169500 0.306501
v 0.887353 0.159500 0.353470
v 0.887353 0.169500 0.353470
v 0.212647 0.159500 0.546530
v 0.212647 0.169500 0.546530
v 0.229792 0.159500 0.593499
v 0.229792 0.169500 0.593499
v -0.096679 0.159500 0.659902
v -0.096679 0.169500 0.659902
v -0.120650 0.159500 0.703782
v -0.120650 0.169500 0.703782
v -0.579350 0.159500 0.396218
v -0.579350 0.169500 0.396218
v -0.603321 0.159500 0.440098
v -0.603321 0.169500 0.440098
v -0.829721 0.159500 -0.591789
v -0.829721 0.169500 -0.591789
v -0.790555 0.159500 -0.560708
v -0.790555 0.169500 -0.560708
v -1.109445 0.159500 -0.239292
v -1.109445 0.169500 -0.239292
v -1.070279 0.159500 -0.208211
v -1.070279 0.169500 -0.208211
v 1.964087 0.165000 -0.413399
v 1.964617 0.195000 -0.443395
v 1.994083 0.195000 -0.412870
v 1.964617 0.825000 -0.443395
v 1.964087 0.855000 -0.413399
v 1.994083 0.825000 -0.412870
v 1.949251 0.165000 0.426470
v 1.979246 0.195000 0.426999
v 1.948721 0.195000 0.456465
v 1.949251 0.855000 0.426470
v 1.948721 0.825000 0.456465
v 1.979246 0.825000 0.426999
v 1.224203 0.165000 -0.426470
v 1.194207 0.195000 -0.426999
v 1.224733 0.195000 -0.456465
v 1.224203 0.855000 -0.426470
v 1.224733 0.825000 -0.456465
v 1.194207 0.825000 -0.426999
v 1.209367 0.165000 0.413399
v 1.208837 0.195000 0.443395
v 1.179371 0.195000 0.412870
v 1.209367 0.855000 0.413399
v 1.179371 0.825000 0.412870
v 1.208837 0.825000 0.443395
v 1.899285 0.865000 -0.390698
v 1.899223 0.895000 -0.420698
v 1.929285 0.895000 -0.390760
v 1.899223 1.475000 -0.420698
v 1.899285 1.505000 -0.390698
v 1.929285 1.475000 -0.390760
v 1.900889 0.865000 0.389300
v 1.930889 0.895000 0.389238
v 1.900951 0.895000 0.419300
v 1.900889 1.505000 0.389300
v 1.900951 1.475000 0.419300
v 1.930889 1.475000 0.389238
v 1.219286 0.865000 -0.389300
v 1.189286 0.895000 -0.389238
v 1.219225 0.895000 -0.419300
v 1.219286 1.505000 -0.389300
v 1.219225 1.475000 -0.419300
v 1.189286 1.475000 -0.389238
v 1.220891 0.865000 0.390698
v 1.220952 0.895000 0.420698
v 1.190891 0.895000 0.390760
v 1.220891 1.505000 0.390698
v 1.190891 1.475000 0.390760
v 1.220952 1.475000 0.420698
v 1.885108 1.515000 -0.380699
v 1.884050 1.545000 -0.410680
v 1.915089 1.545000 -0.381756
v 1.884050 1.965000 -0.410680
v 1.885108 1.995000 -0.380699
v 1.915089 1.965000 -0.381756
v 1.911196 1.515000 0.358841
v 1.941177 1.545000 0.357784
v 1.912254 1.545000 0.388823
v 1.911196 1.995000 0.358841
v 1.912254 1.965000 0.388823
v 1.941177 1.965000 0.357784
v 1.265493 1.515000 -0.358841
v 1.235512 1.545000 -0.357784
v 1.264436 1.545000 -0.388823
v 1.265493 1.995000 -0.358841
v 1.264436 1.965000 -0.388823
v 1.235512 1.965000 -0.357784
v 1.291581 1.515000 0.380699
v 1.292639 1.545000 0.410680
v 1.261600 1.545000 0.381756
v 1.291581 1.995000 0.380699
v 1.261600 1.965000 0.381756
v 1.292639 1.965000 0.410680
v 1.975000 0.790000 -0.450000
v 1.975000 0.820000 -0.480000
v 2.005000 0.820000 -0.450000
v 1.975000 0.900000 -0.480000
v 1.975000 0.930000 -0.450000
v 2.005000 0.900000 -0.450000
v 1.975000 0.790000 0.450000
v 2.005000 0.820000 0.450000
v 1.975000 0.820000 0.480000
v 1.975000 0.930000 0.450000
v 1.975000 0.900000 0.480000
v 2.005000 0.900000 0.450000
v 1.175000 0.790000 -0.450000
v 1.145000 0.820000 -0.450000
v 1.175000 0.820000 -0.480000
v 1.175000 0.930000 -0.450000
v 1.175000 0.900000 -0.480000
v 1.145000 0.900000 -0.450000
v 1.175000 0.790000 0.450000
v 1.175000 0.820000 0.480000
v 1.145000 0.820000 0.450000
v 1.175000 0.930000 0.450000
v 1.145000 0.900000 0.450000
v 1.175000 0.900000 0.480000
v 1.805000 0.835000 0.479500
v 1.805000 0.885000 0.479500
v 1.805000 0.835000 0.489500
v 1.805000 0.885000 0.489500
v 1.345000 0.835000 0.479500
v 1.345000 0.885000 0.479500
v 1.345000 0.835000 0.489500
v 1.345000 0.885000 0.489500
v 1.975000 1.880000 -0.450000
v 1.975000 1.910000 -0.480000
v 2.005000 1.910000 -0.450000
v 1.975000 1.990000 -0.480000
v 1.975000 2.020000 -0.450000
v 2.005000 1.990000 -0.450000
v 1.975000 1.880000 0.450000
v 2.005000 1.910000 0.450000
v 1.975000 1.910000 0.480000
v 1.975000 2.020000 0.450000
v 1.975000 1.990000 0.480000
v 2.005000 1.990000 0.450000
v 1.175000 1.880000 -0.450000
v 1.145000 1.910000 -0.450000
v 1.175000 1.910000 -0.480000
v 1.175000 2.020000 -0.450000
v 1.175000 1.990000 -0.480000
v 1.145000 1.990000 -0.450000
v 1.175000 1.880000 0.450000
v 1.175000 1.910000 0.480000
v 1.145000 1.910000 0.450000
v 1.175000 2.020000 0.450000
v 1.145000 1.990000 0.450000
v 1.175000 1.990000 0.480000
v 1.805000 1.925000 0.479500
v 1.805000 1.975000 0.479500
v 1.805000 1.925000 0.489500
v 1.805000 1.975000 0.489500
v 1.345000 1.925000 0.479500
v 1.345000 1.975000 0.479500
v 1.345000 1.925000 0.489500
v 1.345000 1.975000 0.489500
v 1.828290 2.007918 0.252333
v 1.923860 3.187071 -0.001007
v 1.628642 2.022327 0.146821
v 1.916373 3.187612 -0.004964
v 1.731710 1.992082 -0.052333
v 1.920238 3.186477 -0.012432
v 1.931358 1.977673 0.053179
v 1.927725 3.185937 -0.008476
v 1.673717 1.988309 -0.103499
v 1.843419 2.727682 -0.108438
v 1.585227 2.026188 -0.243266
v 1.838994 2.729576 -0.115427
v 1.726284 2.011691 -0.336501
v 1.846047 2.728851 -0.120088
v 1.814773 1.973813 -0.196734
v 1.850472 2.726957 -0.113100
v 1.669479 0.171778 0.706100
v 1.672264 0.649091 0.530030
v 1.533660 0.177903 0.667168
v 1.664115 0.649458 0.527694
v 1.570521 0.148222 0.533900
v 1.666326 0.647678 0.519698
v 1.706340 0.142097 0.572832
v 1.674476 0.647310 0.522034
v -1.214152 0.165000 -0.416707
v -1.213886 0.195000 -0.446706
v -1.184153 0.195000 -0.416442
v -1.213886 0.825000 -0.446706
v -1.214152 0.855000 -0.416707
v -1.184153 0.825000 -0.416442
v -1.221590 0.165000 0.423260
v -1.191591 0.195000 0.423525
v -1.221856 0.195000 0.453259
v -1.221590 0.855000 0.423260
v -1.221856 0.825000 0.453259
v -1.191591 0.825000 0.423525
v -1.954123 0.165000 -0.423260
v -1.984122 0.195000 -0.423525
v -1.953857 0.195000 -0.453259
v -1.954123 0.855000 -0.423260
v -1.953857 0.825000 -0.453259
v -1.984122 0.825000 -0.423525
v -1.961561 0.165000 0.416707
v -1.961826 0.195000 0.446706
v -1.991560 0.195000 0.416442
v -1.961561 0.855000 0.416707
v -1.991560 0.825000 0.416442
v -1.961826 0.825000 0.446706
v -1.225376 0.865000 -0.390078
v -1.225383 0.895000 -0.420078
v -1.195376 0.895000 -0.390084
v -1.225383 1.475000 -0.420078
v -1.225376 1.505000 -0.390078
v -1.195376 1.475000 -0.390084
v -1.225198 0.865000 0.389922
v -1.195198 0.895000 0.389916
v -1.225191 0.895000 0.419922
v -1.225198 1.505000 0.389922
v -1.225191 1.475000 0.419922
v -1.195198 1.475000 0.389916
v -1.905376 0.865000 -0.389922
v -1.935376 0.895000 -0.389916
v -1.905383 0.895000 -0.419922
v -1.905376 1.505000 -0.389922
v -1.905383 1.475000 -0.419922
v -1.935376 1.475000 -0.389916
v -1.905198 0.865000 0.390078
v -1.905191 0.895000 0.420078
v -1.935198 0.895000 0.390084
v -1.905198 1.505000 0.390078
v -1.935198 1.475000 0.390084
v -1.905191 1.475000 0.420078
v -1.270569 1.515000 -0.369955
v -1.270565 1.545000 -0.399955
v -1.240569 1.545000 -0.369951
v -1.270565 1.965000 -0.399955
v -1.270569 1.995000 -0.369955
v -1.240569 1.965000 -0.369951
v -1.270676 1.515000 0.370045
v -1.240676 1.545000 0.370049
v -1.270681 1.545000 0.400045
v -1.270676 1.995000 0.370045
v -1.270681 1.965000 0.400045
v -1.240676 1.965000 0.370049
v -1.890569 1.515000 -0.370045
v -1.920569 1.545000 -0.370049
v -1.890565 1.545000 -0.400045
v -1.890569 1.995000 -0.370045
v -1.890565 1.965000 -0.400045
v -1.920569 1.965000 -0.370049
v -1.890676 1.515000 0.369955
v -1.890681 1.545000 0.399955
v -1.920676 1.545000 0.369951
v -1.890676 1.995000 0.369955
v -1.920676 1.965000 0.369951
v -1.890681 1.965000 0.399955
v -1.175000 0.790000 -0.450000
v -1.175000 0.820000 -0.480000
v -1.145000 0.820000 -0.450000
v -1.175000 0.900000 -0.480000
v -1.175000 0.930000 -0.450000
v -1.145000 0.900000 -0.450000
v -1.175000 0.790000 0.450000
v -1.145000 0.820000 0.450000
v -1.175000 0.820000 0.480000
v -1.175000 0.930000 0.450000
v -1.175000 0.900000 0.480000
v -1.145000 0.900000 0.450000
v -1.975000 0.790000 -0.450000
v -2.005000 0.820000 -0.450000
v -1.975000 0.820000 -0.480000
v -1.975000 0.930000 -0.450000
v -1.975000 0.900000 -0.480000
v -2.005000 0.900000 -0.450000
v -1.975000 0.790000 0.450000
v -1.975000 0.820000 0.480000
v -2.005000 0.820000 0.450000
v -1.975000 0.930000 0.450000
v -2.005000 0.900000 0.450000
v -1.975000 0.900000 0.480000
v -1.345000 0.835000 0.479500
v -1.345000 0.885000 0.479500
v -1.345000 0.835000 0.489500
v -1.345000 0.885000 0.489500
v -1.805000 0.835000 0.479500
v -1.805000 0.885000 0.479500
v -1.805000 0.835000 0.489500
v -1.805000 0.885000 0.489500
v -1.175000 1.880000 -0.450000
v -1.175000 1.910000 -0.480000
v -1.145000 1.910000 -0.450000
v -1.175000 1.990000 -0.480000
v -1.175000 2.020000 -0.450000
v -1.145000 1.990000 -0.450000
v -1.175000 1.880000 0.450000
v -1.145000 1.910000 0.450000
v -1.175000 1.910000 0.480000
v -1.175000 2.020000 0.450000
v -1.175000 1.990000 0.480000
v -1.145000 1.990000 0.450000
v -1.975000 1.880000 -0.450000
v -2.005000 1.910000 -0.450000
v -1.975000 1.910000 -0.480000
v -1.975000 2.020000 -0.450000
v -1.975000 1.990000 -0.480000
v -2.005000 1.990000 -0.450000
v -1.975000 1.880000 0.450000
v -1.975000 1.910000 0.480000
v -2.005000 1.910000 0.450000
v -1.975000 2.020000 0.450000
v -2.005000 1.990000 0.450000
v -1.975000 1.990000 0.480000
v -1.345000 1.925000 0.479500
v -1.345000 1.975000 0.479500
v -1.345000 1.925000 0.489500
v -1.345000 1.975000 0.489500
v -1.805000 1.925000 0.479500
v -1.805000 1.975000 0.479500
v -1.805000 1.925000 0.489500
v -1.805000 1.975000 0.489500
v -1.733842 2.007918 0.252993
v -1.955766 3.187071 0.097864
v -1.931358 1.977673 0.146821
v -1.963173 3.185937 0.093883
v -1.826158 1.992082 -0.052993
v -1.959228 3.186477 0.086390
v -1.628642 2.022327 0.053179
v -1.951821 3.187612 0.090371
v -1.721159 1.988309 -0.102460
v -1.875542 2.727682 -0.173095
v -1.814773 1.973813 -0.243266
v -1.880222 2.726957 -0.180135
v -1.678841 2.011691 -0.337540
v -1.873426 2.728851 -0.184849
v -1.585227 2.026188 -0.196734
v -1.868745 2.729576 -0.177808
v -1.574283 0.171778 0.708155
v -1.723945 0.649091 0.615368
v -1.706340 0.142097 0.667168
v -1.731869 0.647310 0.612908
v -1.665717 0.148222 0.531845
v -1.729431 0.647678 0.604789
v -1.533660 0.177903 0.572832
v -1.721508 0.649458 0.607248
v -1.670000 2.000000 -0.320000
v -1.695307 2.029631 -0.320000
v -1.664875 2.030000 -0.350000
v -1.670000 2.000000 0.320000
v -1.664875 2.030000 0.350000
v -1.695307 2.029631 0.320000
v -1.180000 2.000000 -0.320000
v -1.175622 2.030000 -0.350000
v -1.145307 2.029631 -0.320000
v -1.180000 2.000000 0.320000
v -1.145307 2.029631 0.320000
v -1.175622 2.030000 0.350000
v -1.616796 2.525329 -0.320000
v -1.587909 2.515943 -0.350000
v -1.587909 2.515943 0.350000
v -1.616796 2.525329 0.320000
v -1.122602 2.364756 -0.350000
v -1.093715 2.355370 -0.320000
v -1.093715 2.355370 0.320000
v -1.122602 2.364756 0.350000
v -1.375329 2.999235 -0.320000
v -1.350756 2.981382 -0.350000
v -1.350756 2.981382 0.350000
v -1.375329 2.999235 0.320000
v -0.954943 2.693806 -0.350000
v -0.930370 2.675953 -0.320000
v -0.930370 2.675953 0.320000
v -0.954943 2.693806 0.350000
v -0.999235 3.375329 -0.320000
v -0.981382 3.350756 -0.350000
v -0.981382 3.350756 0.350000
v -0.999235 3.375329 0.320000
v -0.693806 2.954943 -0.350000
v -0.675953 2.930370 -0.320000
v -0.675953 2.930370 0.320000
v -0.693806 2.954943 0.350000
v -0.525329 3.616796 -0.320000
v -0.515943 3.587909 -0.350000
v -0.515943 3.587909 0.350000
v -0.525329 3.616796 0.320000
v -0.364756 3.122602 -0.350000
v -0.355370 3.093715 -0.320000
v -0.355370 3.093715 0.320000
v -0.364756 3.122602 0.350000
v -0.000000 3.700000 -0.320000
v 0.000000 3.669626 -0.350000
v -0.000000 3.669626 0.350000
v -0.000000 3.700000 0.320000
v 0.000000 3.180374 -0.350000
v -0.000000 3.150000 -0.320000
v -0.000000 3.150000 0.320000
v 0.000000 3.180374 0.350000
v 0.525329 3.616796 -0.320000
v 0.515943 3.587909 -0.350000
v 0.515943 3.587909 0.350000
v 0.525329 3.616796 0.320000
v 0.364756 3.122602 -0.350000
v 0.355370 3.093715 -0.320000
v 0.355370 3.093715 0.320000
v 0.364756 3.122602 0.350000
v 0.999235 3.375329 -0.320000
v 0.981382 3.350756 -0.350000
v 0.981382 3.350756 0.350000
v 0.999235 3.375329 0.320000
v 0.693806 2.954943 -0.350000
v 0.675953 2.930370 -0.320000
v 0.675953 2.930370 0.320000
v 0.693806 2.954943 0.350000
v 1.375329 2.999235 -0.320000
v 1.350756 2.981382 -0.350000
v 1.350756 2.981382 0.350000
v 1.375329 2.999235 0.320000
v 0.954943 2.693806 -0.350000
v 0.930370 2.675953 -0.320000
v 0.930370 2.675953 0.320000
v 0.954943 2.693806 0.350000
v 1.616796 2.525329 -0.320000
v 1.587909 2.515943 -0.350000
v 1.587909 2.515943 0.350000
v 1.616796 2.525329 0.320000
v 1.122602 2.364756 -0.350000
v 1.093715 2.355370 -0.320000
v 1.093715 2.355370 0.320000
v 1.122602 2.364756 0.350000
v 1.695307 2.029631 -0.320000
v 1.670000 2.000000 -0.320000
v 1.664875 2.030000 -0.350000
v 1.670000 2.000000 0.320000
v 1.695307 2.029631 0.320000
v 1.664875 2.030000 0.350000
v 1.180000 2.000000 -0.320000
v 1.145307 2.029631 -0.320000
v 1.175622 2.030000 -0.350000
v 1.145307 2.029631 0.320000
v 1.180000 2.000000 0.320000
v 1.175622 2.030000 0.350000
v -1.440000 2.000000 -0.360000
v -1.440000 2.000000 0.360000
v -1.340000 2.000000 -0.360000
v -1.340000 2.000000 0.360000
v -1.369521 2.444984 -0.360000
v -1.369521 2.444984 0.360000
v -1.274416 2.414083 -0.360000
v -1.274416 2.414083 0.360000
v -1.164984 2.846411 -0.360000
v -1.164984 2.846411 0.360000
v -1.084083 2.787632 -0.360000
v -1.084083 2.787632 0.360000
v -0.846411 3.164984 -0.360000
v -0.846411 3.164984 0.360000
v -0.787632 3.084083 -0.360000
v -0.787632 3.084083 0.360000
v -0.444984 3.369521 -0.360000
v -0.444984 3.369521 0.360000
v -0.414083 3.274416 -0.360000
v -0.414083 3.274416 0.360000
v -0.000000 3.440000 -0.360000
v -0.000000 3.440000 0.360000
v -0.000000 3.340000 -0.360000
v -0.000000 3.340000 0.360000
v 0.444984 3.369521 -0.360000
v 0.444984 3.369521 0.360000
v 0.414083 3.274416 -0.360000
v 0.414083 3.274416 0.360000
v 0.846411 3.164984 -0.360000
v 0.846411 3.164984 0.360000
v 0.787632 3.084083 -0.360000
v 0.787632 3.084083 0.360000
v 1.164984 2.846411 -0.360000
v 1.164984 2.846411 0.360000
v 1.084083 2.787632 -0.360000
v 1.084083 2.787632 0.360000
v 1.369521 2.444984 -0.360000
v 1.369521 2.444984 0.360000
v 1.274416 2.414083 -0.360000
v 1.274416 2.414083 0.360000
v 1.440000 2.000000 -0.360000
v 1.440000 2.000000 0.360000
v 1.340000 2.000000 -0.360000
v 1.340000 2.000000 0.360000
v 0.202318 3.119865 -0.380000
v 0.182198 3.120000 -0.400000
v 0.180000 3.100000 -0.380000
v -0.180000 3.100000 -0.380000
v -0.182198 3.120000 -0.400000
v -0.202318 3.119865 -0.380000
v -0.267682 3.680135 -0.380000
v -0.248313 3.686705 -0.400000
v -0.251245 3.706946 -0.380000
v -0.018755 3.793054 -0.380000
v 0.000000 3.778672 -0.400000
v 0.018755 3.793054 -0.380000
v 0.267682 3.680135 -0.380000
v 0.251245 3.706946 -0.380000
v 0.248313 3.686705 -0.400000
v 0.202318 3.119865 0.380000
v 0.180000 3.100000 0.380000
v 0.182198 3.120000 0.400000
v -0.202318 3.119865 0.380000
v -0.182198 3.120000 0.400000
v -0.180000 3.100000 0.380000
v -0.251245 3.706946 0.380000
v -0.248313 3.686705 0.400000
v -0.267682 3.680135 0.380000
v 0.018755 3.793054 0.380000
v 0.000000 3.778672 0.400000
v -0.018755 3.793054 0.380000
v 0.267682 3.680135 0.380000
v 0.248313 3.686705 0.400000
v 0.251245 3.706946 0.380000
v 0.091924 3.720000 0.091924
v 0.004243 4.000000 0.004243
v -0.091924 3.720000 0.091924
v -0.004243 4.000000 0.004243
v -0.091924 3.720000 -0.091924
v -0.004243 4.000000 -0.004243
v 0.091924 3.720000 -0.091924
v 0.004243 4.000000 -0.004243
v 1.150000 0.160000 -0.020000
v -1.150000 0.160000 -0.020000
v -1.150000 2.000000 -0.020000
v -1.093715 2.355370 -0.020000
v -0.930370 2.675953 -0.020000
v -0.675953 2.930370 -0.020000
v -0.355370 3.093715 -0.020000
v -0.000000 3.150000 -0.020000
v 0.355370 3.093715 -0.020000
v 0.675953 2.930370 -0.020000
v 0.930370 2.675953 -0.020000
v 1.093715 2.355370 -0.020000
v 1.150000 2.000000 -0.020000
v 1.150000 0.160000 0.020000
v -1.150000 0.160000 0.020000
v -1.150000 2.000000 0.020000
v -1.093715 2.355370 0.020000
v -0.930370 2.675953 0.020000
v -0.675953 2.930370 0.020000
v -0.355370 3.093715 0.020000
v -0.000000 3.150000 0.020000
v 0.355370 3.093715 0.020000
v 0.675953 2.930370 0.020000
v 0.930370 2.675953 0.020000
v 1.093715 2.355370 0.020000
v 1.150000 2.000000 0.020000
vn -0.0000 -0.0000 -1.0000
vn -1.0000 -0.0000 -0.0000
vn -0.0000 1.0000 -0.0000
vn 1.0000 -0.0000 -0.0000
vn -0.0000 -0.0000 1.0000
vn 0.5774 -0.5773 -0.5774
vn 0.5774 0.5773 -0.5774
vn 0.5774 -0.5773 0.5774
vn 0.5774 0.5773 0.5774
vn -0.5774 -0.5773 -0.5774
vn -0.5774 0.5773 -0.5774
vn -0.5774 -0.5773 0.5774
vn -0.5774 0.5773 0.5774
vn 0.7071 -0.7071 -0.0000
vn 0.7071 -0.0000 -0.7071
vn 0.7071 0.7071 -0.0000
vn 0.7071 -0.0000 0.7071
vn -0.0000 -0.7071 0.7071
vn -0.0000 0.7071 0.7071
vn -0.7071 -0.0000 0.7071
vn -0.7071 -0.7071 -0.0000
vn -0.7071 0.7071 -0.0000
vn -0.7071 -0.0000 -0.7071
vn -0.0000 -0.7071 -0.7071
vn -0.0000 0.7071 -0.7071
vn -0.0000 -1.0000 -0.0000
vn 0.5774 -0.5774 -0.5773
vn 0.5773 0.5774 -0.5774
vn -0.5774 -0.5774 -0.5773
vn -0.5773 0.5773 -0.5774
vn 0.9394 -0.0000 -0.3429
vn 0.3429 -0.0000 0.9394
vn -0.9394 -0.0000 0.3429
vn -0.3429 -0.0000 -0.9394
vn 0.8776 -0.0000 0.4794
vn -0.4794 -0.0000 0.8776
vn -0.8776 -0.0000 -0.4794
vn 0.4794 -0.0000 -0.8776
vn 0.6216 -0.0000 -0.7833
vn 0.7833 -0.0000 0.6216
vn -0.6216 -0.0000 0.7833
vn -0.7833 -0.0000 -0.6216
vn 0.0177 -0.0000 -0.9998
vn -0.9998 -0.0000 -0.0177
vn 0.9998 -0.0000 0.0177
vn -0.0177 -0.0000 0.9998
vn 0.5875 -0.5774 -0.5671
vn 0.5875 0.5774 -0.5671
vn 0.5671 -0.5773 0.5875
vn 0.5671 0.5773 0.5875
vn -0.5671 -0.5773 -0.5875
vn -0.5671 0.5773 -0.5875
vn -0.5875 -0.5774 0.5671
vn -0.5875 0.5774 0.5671
vn 0.7070 -0.7071 0.0125
vn 0.7195 -0.0000 -0.6945
vn 0.7070 0.7071 0.0125
vn 0.6945 -0.0000 0.7195
vn -0.0125 -0.7071 0.7070
vn -0.0125 0.7071 0.7070
vn -0.7195 -0.0000 0.6945
vn -0.7070 -0.7071 -0.0125
vn -0.7070 0.7071 -0.0125
vn -0.6945 -0.0000 -0.7195
vn 0.0125 -0.7071 -0.7070
vn 0.0125 0.7071 -0.7070
vn -0.0021 -0.0000 -1.0000
vn -1.0000 -0.0000 0.0021
vn 1.0000 -0.0000 -0.0021
vn 0.0021 -0.0000 1.0000
vn 0.5762 -0.5774 -0.5785
vn 0.5762 0.5773 -0.5785
vn 0.5785 -0.5774 0.5762
vn 0.5785 0.5774 0.5762
vn -0.5785 -0.5774 -0.5762
vn -0.5785 0.5774 -0.5762
vn -0.5762 -0.5773 0.5785
vn -0.5762 0.5774 0.5785
vn 0.7071 -0.7071 -0.0015
vn 0.7057 -0.0000 -0.7086
vn 0.7071 0.7071 -0.0015
vn 0.7086 -0.0000 0.7057
vn 0.0015 -0.7071 0.7071
vn 0.0015 0.7071 0.7071
vn -0.7057 -0.0000 0.7086
vn -0.7071 -0.7071 0.0015
vn -0.7071 0.7071 0.0015
vn -0.7086 -0.0000 -0.7057
vn -0.0015 -0.7071 -0.7071
vn -0.0015 0.7071 -0.7071
vn -0.0353 -0.0000 -0.9994
vn -0.9994 -0.0000 0.0353
vn 0.9994 -0.0000 -0.0353
vn 0.0353 -0.0000 0.9994
vn 0.5566 -0.5774 -0.5973
vn 0.5566 0.5774 -0.5973
vn 0.5973 -0.5774 0.5566
vn 0.5973 0.5774 0.5566
vn -0.5973 -0.5773 -0.5566
vn -0.5973 0.5773 -0.5566
vn -0.5566 -0.5773 0.5973
vn -0.5566 0.5773 0.5973
vn 0.7067 -0.7071 -0.0249
vn 0.6817 -0.0000 -0.7316
vn 0.7067 0.7071 -0.0249
vn 0.7316 -0.0000 0.6817
vn 0.0249 -0.7071 0.7067
vn 0.0249 0.7071 0.7067
vn -0.6817 -0.0000 0.7316
vn -0.7067 -0.7071 0.0249
vn -0.7067 0.7071 0.0249
vn -0.7316 -0.0000 -0.6817
vn -0.0249 -0.7071 -0.7067
vn -0.0249 0.7071 -0.7067
vn 0.5773 -0.5774 -0.5773
vn 0.5773 -0.5774 0.5773
vn 0.5773 0.5774 0.5774
vn -0.5773 0.5774 -0.5773
vn -0.5774 -0.5774 0.5773
vn -0.5773 0.5774 0.5773
vn 0.5774 -0.5773 -0.5773
vn 0.5774 0.5773 -0.5773
vn 0.5774 -0.5773 0.5773
vn 0.5774 0.5773 0.5773
vn -0.5774 -0.5773 -0.5773
vn -0.5774 0.5774 -0.5773
vn -0.5774 -0.5773 0.5773
vn -0.5774 0.5774 0.5773
vn -0.4429 0.2225 0.8685
vn -0.8680 0.1528 -0.4724
vn 0.1184 0.9890 -0.0890
vn 0.4643 -0.0437 -0.8846
vn 0.8894 0.0260 0.4564
vn -0.1184 -0.9890 0.0889
vn -0.8058 0.1887 0.5613
vn -0.4978 0.3257 -0.8038
vn 0.1929 0.9710 0.1410
vn 0.8470 0.0188 -0.5312
vn 0.5391 -0.1182 0.8339
vn -0.1930 -0.9710 -0.1410
vn -0.2454 0.3368 0.9091
vn -0.9390 0.1716 -0.2980
vn 0.0986 0.9768 -0.1903
vn 0.2714 -0.0793 -0.9592
vn 0.9650 0.0858 0.2478
vn -0.0986 -0.9768 0.1903
vn 0.0089 -0.0000 -1.0000
vn -1.0000 -0.0000 -0.0089
vn 1.0000 -0.0000 0.0089
vn -0.0089 -0.0000 1.0000
vn 0.5824 -0.5774 -0.5722
vn 0.5824 0.5773 -0.5722
vn 0.5722 -0.5774 0.5824
vn 0.5722 0.5773 0.5824
vn -0.5722 -0.5773 -0.5824
vn -0.5722 0.5773 -0.5824
vn -0.5824 -0.5773 0.5722
vn -0.5824 0.5773 0.5722
vn 0.7071 -0.7071 0.0063
vn 0.7133 -0.0000 -0.7008
vn 0.7071 0.7071 0.0063
vn 0.7008 -0.0000 0.7133
vn -0.0063 -0.7071 0.7071
vn -0.0063 0.7071 0.7071
vn -0.7133 -0.0000 0.7008
vn -0.7071 -0.7071 -0.0063
vn -0.7071 0.7071 -0.0063
vn -0.7008 -0.0000 -0.7133
vn 0.0063 -0.7071 -0.7071
vn 0.0063 0.7071 -0.7071
vn -0.0002 -0.0000 -1.0000
vn -1.0000 -0.0000 0.0002
vn 1.0000 -0.0000 -0.0002
vn 0.0002 -0.0000 1.0000
vn 0.5772 -0.5774 -0.5775
vn 0.5772 0.5774 -0.5775
vn 0.5775 -0.5773 0.5772
vn 0.5775 0.5774 0.5772
vn -0.5775 -0.5773 -0.5772
vn -0.5775 0.5773 -0.5772
vn -0.5772 -0.5774 0.5775
vn -0.5772 0.5774 0.5775
vn 0.7071 -0.7071 -0.0002
vn 0.7069 -0.0000 -0.7073
vn 0.7071 0.7071 -0.0002
vn 0.7073 -0.0000 0.7069
vn 0.0002 -0.7071 0.7071
vn 0.0002 0.7071 0.7071
vn -0.7069 -0.0000 0.7073
vn -0.7071 -0.7071 0.0002
vn -0.7071 0.7071 0.0002
vn -0.7073 -0.0000 -0.7069
vn -0.0002 -0.7071 -0.7071
vn -0.0002 0.7071 -0.7071
vn 0.0001 -0.0000 -1.0000
vn -1.0000 -0.0000 -0.0001
vn 1.0000 -0.0000 0.0001
vn -0.0001 -0.0000 1.0000
vn 0.5773 -0.5774 0.5774
vn -0.5773 -0.5774 -0.5774
vn -0.5773 0.5774 -0.5774
vn -0.5774 0.5773 0.5773
vn 0.7071 -0.7071 0.0001
vn 0.7072 -0.0000 -0.7070
vn 0.7071 0.7071 0.0001
vn 0.7070 -0.0000 0.7072
vn -0.0001 -0.7071 0.7071
vn -0.0001 0.7071 0.7071
vn -0.7072 -0.0000 0.7070
vn -0.7071 -0.7071 -0.0001
vn -0.7071 0.7071 -0.0001
vn -0.7070 -0.0000 -0.7072
vn 0.0001 -0.7071 -0.7071
vn 0.0001 0.7071 -0.7071
vn 0.5773 0.5774 -0.5773
vn 0.5774 -0.5774 0.5773
vn 0.5773 0.5774 0.5773
vn -0.5773 -0.5774 -0.5773
vn -0.5773 -0.5774 0.5773
vn -0.5773 0.5774 0.5774
vn 0.5774 0.5774 -0.5773
vn 0.5774 0.5774 0.5773
vn -0.5774 0.5773 -0.5773
vn -0.4764 0.0260 0.8789
vn -0.8827 -0.0437 -0.4679
vn -0.1479 0.9890 -0.0066
vn 0.4497 0.1528 -0.8800
vn 0.8560 0.2225 0.4667
vn 0.1479 -0.9890 0.0066
vn -0.8213 -0.1182 0.5582
vn -0.5733 0.0188 -0.8191
vn -0.2326 0.9710 0.0547
vn 0.7715 0.3257 -0.5465
vn 0.5236 0.1887 0.8308
vn 0.2326 -0.9710 -0.0547
vn -0.3129 0.0858 0.9459
vn -0.9538 -0.0793 -0.2899
vn -0.2134 0.9768 -0.0198
vn 0.2566 0.1716 -0.9511
vn 0.8975 0.3368 0.2847
vn 0.2134 -0.9768 0.0198
vn -0.9877 0.1564 -0.0000
vn 0.9877 -0.1564 -0.0000
vn -0.8910 0.4540 -0.0000
vn 0.8910 -0.4540 -0.0000
vn -0.4540 0.8910 -0.0000
vn 0.4540 -0.8910 -0.0000
vn -0.1564 0.9877 -0.0000
vn 0.1564 -0.9877 -0.0000
vn 0.1564 0.9877 -0.0000
vn -0.1564 -0.9877 -0.0000
vn 0.4540 0.8910 -0.0000
vn -0.4540 -0.8910 -0.0000
vn 0.8910 0.4540 -0.0000
vn -0.8910 -0.4540 -0.0000
vn 0.9877 0.1564 -0.0000
vn -0.9877 -0.1564 -0.0000
vn -0.5998 -0.5122 -0.6147
vn -0.5998 -0.5122 0.6147
vn 0.5406 -0.6330 -0.5541
vn 0.5406 -0.6330 0.5541
vn 0.5998 -0.5122 -0.6147
vn 0.5998 -0.5122 0.6147
vn -0.5406 -0.6330 -0.5541
vn -0.5406 -0.6330 0.5541
vn -0.6984 0.1106 -0.7071
vn 0.6984 -0.1106 -0.7071
vn 0.6984 -0.1106 0.7071
vn -0.6984 0.1106 0.7071
vn -0.7604 -0.6494 -0.0000
vn 0.6494 -0.7604 -0.0000
vn -0.6300 0.3210 -0.7071
vn 0.6300 -0.3210 -0.7071
vn 0.6300 -0.3210 0.7071
vn -0.6300 0.3210 0.7071
vn -0.5000 0.5000 -0.7071
vn 0.5000 -0.5000 -0.7071
vn 0.5000 -0.5000 0.7071
vn -0.5000 0.5000 0.7071
vn -0.3210 0.6300 -0.7071
vn 0.3210 -0.6300 -0.7071
vn 0.3210 -0.6300 0.7071
vn -0.3210 0.6300 0.7071
vn -0.1106 0.6984 -0.7071
vn 0.1106 -0.6984 -0.7071
vn 0.1106 -0.6984 0.7071
vn -0.1106 0.6984 0.7071
vn 0.1106 0.6984 -0.7071
vn -0.1106 -0.6984 -0.7071
vn -0.1106 -0.6984 0.7071
vn 0.1106 0.6984 0.7071
vn 0.3210 0.6300 -0.7071
vn -0.3210 -0.6300 -0.7071
vn -0.3210 -0.6300 0.7071
vn 0.3210 0.6300 0.7071
vn 0.5000 0.5000 -0.7071
vn -0.5000 -0.5000 -0.7071
vn -0.5000 -0.5000 0.7071
vn 0.5000 0.5000 0.7071
vn 0.6300 0.3210 -0.7071
vn -0.6300 -0.3210 -0.7071
vn -0.6300 -0.3210 0.7071
vn 0.6300 0.3210 0.7071
vn 0.6984 0.1106 -0.7071
vn -0.6984 -0.1106 -0.7071
vn -0.6984 -0.1106 0.7071
vn 0.6984 0.1106 0.7071
vn 0.7604 -0.6494 -0.0000
vn -0.6494 -0.7604 -0.0000
vn -0.9933 -0.1159 -0.0000
vn -0.3473 0.9377 -0.0000
vn 0.3473 0.9377 -0.0000
vn 0.5514 -0.6194 -0.5588
vn -0.5514 -0.6194 -0.5588
vn -0.7135 0.4374 -0.5473
vn -0.0000 0.8119 -0.5838
vn 0.7135 0.4374 -0.5473
vn 0.5514 -0.6194 0.5588
vn -0.5514 -0.6194 0.5588
vn -0.7135 0.4374 0.5473
vn -0.0000 0.8119 0.5838
vn 0.7135 0.4374 0.5473
vn 0.7023 -0.0819 -0.7071
vn -0.7023 -0.0819 -0.7071
vn -0.2456 0.6631 -0.7071
vn 0.2456 0.6631 -0.7071
vn 0.7023 -0.0819 0.7071
vn 0.2456 0.6631 0.7071
vn -0.2456 0.6631 0.7071
vn -0.7023 -0.0819 0.7071
vn 0.6649 -0.7469 -0.0000
vn -0.6649 -0.7469 -0.0000
vn -0.8525 0.5227 -0.0000
vn 0.8525 0.5227 -0.0000
vn 0.9933 -0.1159 -0.0000
vn -0.0000 0.2988 0.9543
vn -0.9543 0.2988 -0.0000
vn -0.0000 0.2988 -0.9543
vn 0.9543 0.2988 -0.0000
vn 0.1930 0.9710 0.1410
vn 0.8471 0.0188 -0.5312
vn -0.4764 0.0260 0.8788
vn 0.6649 -0.7470 -0.0000
vn -0.6649 -0.7470 -0.0000
vt 0.00000 0.00254
vt 0.00000 0.31736
vt 0.00000 0.42951
vt 0.00000 0.58459
vt 0.00000 0.67155
vt 0.00000 0.71359
vt 0.00000 0.72873
vt 0.00000 0.80451
vt 0.00000 0.81998
vt 0.00000 0.88565
vt 0.00000 0.90119
vt 0.00000 0.96394
vt 0.00011 0.80715
vt 0.00011 0.88830
vt 0.00012 0.71599
vt 0.00055 0.90103
vt 0.00065 0.63075
vt 0.00190 0.59769
vt 0.00249 0.00002
vt 0.00249 0.31989
vt 0.00250 0.00268
vt 0.00250 0.31750
vt 0.00468 0.39955
vt 0.00665 0.72872
vt 0.00665 0.80449
vt 0.00675 0.80714
vt 0.00925 0.72883
vt 0.00925 0.80461
vt 0.01091 0.96072
vt 0.01825 0.37254
vt 0.02180 0.72873
vt 0.02180 0.80451
vt 0.02191 0.80715
vt 0.02347 0.94330
vt 0.02347 0.99477
vt 0.02348 0.95602
vt 0.02763 0.99477
vt 0.02764 0.95602
vt 0.02766 0.90103
vt 0.02835 0.90103
vt 0.02845 0.72872
vt 0.02845 0.80449
vt 0.02856 0.80714
vt 0.03105 0.72883
vt 0.03105 0.80461
vt 0.03484 0.94330
vt 0.03939 0.35111
vt 0.04361 0.79620
vt 0.04607 0.79611
vt 0.04610 0.72872
vt 0.04610 0.79872
vt 0.04740 0.93978
vt 0.04740 0.99126
vt 0.04741 0.90103
vt 0.04741 0.95251
vt 0.04818 0.81988
vt 0.04818 0.88555
vt 0.04829 0.88820
vt 0.05078 0.82000
vt 0.05078 0.88567
vt 0.05156 0.93978
vt 0.05156 0.99126
vt 0.05157 0.90103
vt 0.05157 0.95251
vt 0.05273 0.79611
vt 0.05275 0.72872
vt 0.05275 0.79872
vt 0.05316 0.67126
vt 0.05316 0.71330
vt 0.05328 0.71570
vt 0.05381 0.63046
vt 0.05506 0.59740
vt 0.05525 0.79620
vt 0.05527 0.72881
vt 0.05577 0.67193
vt 0.05577 0.71314
vt 0.06603 0.33735
vt 0.06832 0.62697
vt 0.06832 0.66175
vt 0.06832 0.71479
vt 0.06832 0.79065
vt 0.06832 0.80592
vt 0.06832 0.87673
vt 0.06832 0.88946
vt 0.06832 0.95183
vt 0.06890 0.59861
vt 0.06890 0.69953
vt 0.07068 0.71479
vt 0.07068 0.79066
vt 0.07082 0.71226
vt 0.07082 0.79318
vt 0.09557 0.33262
vt 0.11985 0.88945
vt 0.11985 0.95183
vt 0.12510 0.33737
vt 0.12812 0.62576
vt 0.12812 0.66054
vt 0.12870 0.59740
vt 0.12870 0.69832
vt 0.12983 0.80592
vt 0.12983 0.87672
vt 0.13055 0.00000
vt 0.13055 0.31987
vt 0.13056 0.00266
vt 0.13056 0.31748
vt 0.13304 0.00252
vt 0.13304 0.31734
vt 0.13712 0.71481
vt 0.13712 0.79067
vt 0.13725 0.71227
vt 0.13725 0.79319
vt 0.13974 0.71480
vt 0.13974 0.79066
vt 0.14125 0.62673
vt 0.14125 0.66130
vt 0.14186 0.59871
vt 0.14186 0.69903
vt 0.14238 0.87184
vt 0.14238 0.88716
vt 0.14238 0.94947
vt 0.14249 0.95212
vt 0.14473 0.80604
vt 0.14473 0.87172
vt 0.14487 0.87436
vt 0.14560 0.00000
vt 0.14560 0.31509
vt 0.15174 0.35115
vt 0.15246 0.71176
vt 0.15246 0.76644
vt 0.15246 0.77916
vt 0.15246 0.78337
vt 0.15329 0.71175
vt 0.15329 0.76643
vt 0.15329 0.77917
vt 0.15329 0.78338
vt 0.16584 0.78768
vt 0.16819 0.71177
vt 0.16819 0.78755
vt 0.16834 0.79019
vt 0.17288 0.37260
vt 0.17483 0.71175
vt 0.17483 0.78754
vt 0.17498 0.79018
vt 0.17727 0.88709
vt 0.17727 0.94940
vt 0.17738 0.95204
vt 0.17747 0.71186
vt 0.17747 0.78765
vt 0.17988 0.88721
vt 0.17988 0.94951
vt 0.18646 0.39963
vt 0.19002 0.78768
vt 0.19113 0.42958
vt 0.19113 0.58467
vt 0.19237 0.71177
vt 0.19237 0.78755
vt 0.19243 0.88709
vt 0.19243 0.94778
vt 0.19243 0.99926
vt 0.19246 0.96051
vt 0.19251 0.79019
vt 0.19288 0.80592
vt 0.19288 0.87159
vt 0.19302 0.87423
vt 0.19551 0.80602
vt 0.19551 0.87170
vt 0.19659 0.99926
vt 0.19662 0.96051
vt 0.19901 0.71175
vt 0.19901 0.78754
vt 0.19915 0.79018
vt 0.20073 0.88709
vt 0.20073 0.94778
vt 0.20104 0.62542
vt 0.20104 0.65998
vt 0.20165 0.59740
vt 0.20165 0.69771
vt 0.20165 0.71186
vt 0.20165 0.78765
vt 0.20452 0.33036
vt 0.20452 0.52733
vt 0.20452 0.54258
vt 0.20452 0.56158
vt 0.20701 0.32783
vt 0.20701 0.52986
vt 0.20702 0.33049
vt 0.20702 0.52746
vt 0.21545 0.65210
vt 0.21545 0.68306
vt 0.21545 0.74790
vt 0.21545 0.82376
vt 0.21545 0.84100
vt 0.21545 0.90499
vt 0.21545 0.92201
vt 0.21545 0.97596
vt 0.21547 0.62165
vt 0.21553 0.90675
vt 0.21600 0.91948
vt 0.21600 0.97848
vt 0.21781 0.74791
vt 0.21781 0.82377
vt 0.21794 0.74537
vt 0.21794 0.82629
vt 0.21795 0.65224
vt 0.21795 0.68239
vt 0.21798 0.62257
vt 0.21798 0.71010
vt 0.21802 0.59630
vt 0.21802 0.73263
vt 0.21809 0.57600
vt 0.22303 0.54289
vt 0.22303 0.56189
vt 0.23559 0.54258
vt 0.23559 0.54680
vt 0.23559 0.55953
vt 0.23559 0.56310
vt 0.23642 0.54259
vt 0.23642 0.54680
vt 0.23694 0.32783
vt 0.23695 0.33049
vt 0.23695 0.52746
vt 0.23695 0.52985
vt 0.23741 0.56126
vt 0.23944 0.33035
vt 0.23944 0.52733
vt 0.25200 0.37782
vt 0.25201 0.40795
vt 0.25242 0.35022
vt 0.25325 0.32785
vt 0.25325 0.56289
vt 0.25532 0.37780
vt 0.25534 0.40793
vt 0.25575 0.35020
vt 0.25614 0.92202
vt 0.25614 0.97597
vt 0.25657 0.32783
vt 0.25657 0.56287
vt 0.25663 0.91948
vt 0.25663 0.97849
vt 0.25915 0.92201
vt 0.25915 0.97596
vt 0.26175 0.84064
vt 0.26175 0.90463
vt 0.26237 0.83903
vt 0.26237 0.90639
vt 0.26404 0.84070
vt 0.26404 0.90469
vt 0.26913 0.37826
vt 0.26915 0.40844
vt 0.26954 0.35049
vt 0.27033 0.32785
vt 0.27033 0.56327
vt 0.27117 0.65225
vt 0.27117 0.68241
vt 0.27119 0.62258
vt 0.27119 0.71011
vt 0.27124 0.59632
vt 0.27124 0.73264
vt 0.27131 0.57602
vt 0.27170 0.92201
vt 0.27170 0.97595
vt 0.27245 0.37824
vt 0.27247 0.40842
vt 0.27286 0.35047
vt 0.27365 0.00001
vt 0.27365 0.31510
vt 0.27365 0.32783
vt 0.27365 0.56325
vt 0.27365 0.65212
vt 0.27365 0.68307
vt 0.27422 0.91948
vt 0.27422 0.97848
vt 0.27446 0.92201
vt 0.27446 0.97596
vt 0.27660 0.90158
vt 0.27894 0.83919
vt 0.27894 0.90136
vt 0.27909 0.90409
vt 0.28424 0.74792
vt 0.28424 0.82378
vt 0.28437 0.74538
vt 0.28437 0.82630
vt 0.28621 0.31514
vt 0.28621 0.52751
vt 0.28621 0.67267
vt 0.28621 0.73042
vt 0.28626 0.53012
vt 0.28636 0.33039
vt 0.28686 0.74791
vt 0.28686 0.82377
vt 0.28787 0.52751
vt 0.28793 0.53012
vt 0.28803 0.33039
vt 0.28856 0.54287
vt 0.28856 0.67255
vt 0.28868 0.31505
vt 0.28870 0.31767
vt 0.28870 0.67519
vt 0.28880 0.00000
vt 0.29042 0.52760
vt 0.29058 0.33049
vt 0.29177 0.68792
vt 0.29246 0.68792
vt 0.29686 0.54285
vt 0.29686 0.67252
vt 0.29699 0.31505
vt 0.29700 0.67517
vt 0.29702 0.31767
vt 0.29712 0.00000
vt 0.29772 0.73042
vt 0.29942 0.81285
vt 0.29949 0.54296
vt 0.29949 0.67263
vt 0.29951 0.31514
vt 0.29964 0.00009
vt 0.30189 0.81276
vt 0.30191 0.74537
vt 0.30191 0.81538
vt 0.30854 0.81276
vt 0.30856 0.74537
vt 0.30856 0.81538
vt 0.31028 0.73029
vt 0.31106 0.81285
vt 0.31109 0.74546
vt 0.31219 0.31504
vt 0.31219 0.33041
vt 0.31219 0.52763
vt 0.31219 0.54287
vt 0.31219 0.67253
vt 0.31225 0.31766
vt 0.31230 0.67518
vt 0.31244 0.00000
vt 0.31381 0.83903
vt 0.31381 0.90120
vt 0.31386 0.33039
vt 0.31395 0.90392
vt 0.31466 0.52751
vt 0.31472 0.53013
vt 0.31485 0.91948
vt 0.31485 0.97849
vt 0.31515 0.92202
vt 0.31515 0.97597
vt 0.31632 0.52749
vt 0.31638 0.33044
vt 0.31638 0.53010
vt 0.31644 0.83922
vt 0.31644 0.90139
vt 0.31645 0.68792
vt 0.31714 0.68792
vt 0.31884 0.52754
vt 0.32050 0.54285
vt 0.32050 0.67251
vt 0.32051 0.31504
vt 0.32056 0.31766
vt 0.32061 0.67516
vt 0.32075 0.00000
vt 0.32169 0.73029
vt 0.32305 0.31513
vt 0.32310 0.54297
vt 0.32310 0.67263
vt 0.32330 0.00009
vt 0.32931 0.74707
vt 0.32931 0.82293
vt 0.32931 0.83765
vt 0.32931 0.90164
vt 0.32931 0.97341
vt 0.32935 0.91613
vt 0.32936 0.97603
vt 0.32941 0.90340
vt 0.33586 0.00000
vt 0.33586 0.28102
vt 0.33586 0.29586
vt 0.33586 0.57688
vt 0.33586 0.59172
vt 0.33586 0.73433
vt 0.33591 0.62499
vt 0.33591 0.69997
vt 0.33592 0.66229
vt 0.33621 0.33707
vt 0.33622 0.04121
vt 0.33624 0.04385
vt 0.33626 0.33972
vt 0.33793 0.53512
vt 0.33796 0.23927
vt 0.33829 0.57633
vt 0.33832 0.28048
vt 0.33834 0.28313
vt 0.33834 0.57899
vt 0.36336 0.04795
vt 0.36338 0.34380
vt 0.36408 0.34127
vt 0.36409 0.04542
vt 0.36498 0.23220
vt 0.36498 0.52805
vt 0.36572 0.53039
vt 0.36575 0.23454
vt 0.37550 0.83727
vt 0.37550 0.90127
vt 0.37614 0.83566
vt 0.37614 0.90302
vt 0.37631 0.30195
vt 0.37632 0.00610
vt 0.37711 0.00375
vt 0.37712 0.29960
vt 0.37752 0.97341
vt 0.37757 0.91613
vt 0.37757 0.97603
vt 0.37781 0.83733
vt 0.37781 0.90133
vt 0.37863 0.56946
vt 0.37866 0.27362
vt 0.37949 0.57197
vt 0.37950 0.27613
vt 0.38007 0.97350
vt 0.38011 0.91622
vt 0.39014 0.06145
vt 0.39015 0.35730
vt 0.39037 0.83566
vt 0.39037 0.88201
vt 0.39151 0.21819
vt 0.39151 0.51403
vt 0.39156 0.35512
vt 0.39157 0.05928
vt 0.39295 0.51600
vt 0.39298 0.22016
vt 0.39369 0.89474
vt 0.39369 0.93349
vt 0.39369 0.94622
vt 0.39369 0.98497
vt 0.39452 0.83566
vt 0.39452 0.88201
vt 0.39452 0.89474
vt 0.39452 0.93349
vt 0.39452 0.94622
vt 0.39452 0.98497
vt 0.39573 0.59172
vt 0.39573 0.73434
vt 0.39578 0.62500
vt 0.39578 0.69998
vt 0.39579 0.66230
vt 0.39579 0.74707
vt 0.39579 0.82293
vt 0.40835 0.66648
vt 0.40835 0.70858
vt 0.40835 0.72620
vt 0.40835 0.79701
vt 0.40835 0.81480
vt 0.40835 0.88055
vt 0.40835 0.89582
vt 0.40835 0.95819
vt 0.40846 0.71095
vt 0.40898 0.62543
vt 0.41017 0.59196
vt 0.41071 0.72621
vt 0.41071 0.79702
vt 0.41071 0.81481
vt 0.41071 0.88056
vt 0.41084 0.72367
vt 0.41084 0.79954
vt 0.41084 0.81228
vt 0.41084 0.88308
vt 0.41148 0.08268
vt 0.41148 0.37852
vt 0.41247 0.49240
vt 0.41248 0.19656
vt 0.41346 0.37691
vt 0.41348 0.08107
vt 0.41447 0.49379
vt 0.41450 0.19796
vt 0.41517 0.32155
vt 0.41519 0.02571
vt 0.41669 0.02372
vt 0.41669 0.31956
vt 0.41715 0.54910
vt 0.41719 0.25327
vt 0.41871 0.55125
vt 0.41872 0.25542
vt 0.42529 0.10956
vt 0.42529 0.40540
vt 0.42581 0.46526
vt 0.42582 0.16943
vt 0.42763 0.40449
vt 0.42766 0.10866
vt 0.42817 0.46594
vt 0.42820 0.17011
vt 0.43024 0.13945
vt 0.43270 0.43517
vt 0.43273 0.13934
vt 0.44615 0.35237
vt 0.44617 0.05654
vt 0.44759 0.51769
vt 0.44763 0.22187
vt 0.44823 0.05511
vt 0.44823 0.35093
vt 0.44970 0.51927
vt 0.44971 0.22345
vt 0.45988 0.89582
vt 0.45988 0.95819
vt 0.46151 0.66624
vt 0.46151 0.70833
vt 0.46163 0.71070
vt 0.46214 0.62519
vt 0.46333 0.59171
vt 0.46412 0.66687
vt 0.46412 0.70814
vt 0.46620 0.39138
vt 0.46624 0.09556
vt 0.46696 0.47830
vt 0.46700 0.18248
vt 0.46718 0.81482
vt 0.46718 0.88057
vt 0.46731 0.81228
vt 0.46731 0.88309
vt 0.46865 0.39066
vt 0.46866 0.09484
vt 0.46942 0.47915
vt 0.46944 0.18334
vt 0.46980 0.81481
vt 0.46980 0.88056
vt 0.47216 0.72623
vt 0.47216 0.79703
vt 0.47229 0.72369
vt 0.47229 0.79955
vt 0.47243 0.94730
vt 0.47243 0.98602
vt 0.47244 0.89582
vt 0.47244 0.93457
vt 0.47327 0.89582
vt 0.47327 0.93457
vt 0.47327 0.94730
vt 0.47327 0.98602
vt 0.47337 0.43477
vt 0.47341 0.13896
vt 0.47478 0.72622
vt 0.47478 0.79702
vt 0.47596 0.43484
vt 0.47597 0.13902
vt 0.48851 0.39270
vt 0.48851 0.54775
vt 0.48851 0.64947
vt 0.48851 0.82684
vt 0.48851 0.84380
vt 0.48851 0.90786
vt 0.48851 0.92323
vt 0.48851 0.97711
vt 0.48852 0.24260
vt 0.48852 0.27932
vt 0.48853 0.23418
vt 0.48853 0.61491
vt 0.48853 0.68462
vt 0.48857 0.58430
vt 0.48857 0.71690
vt 0.48862 0.00000
vt 0.48862 0.00842
vt 0.48864 0.56064
vt 0.48864 0.74315
vt 0.48865 0.97976
vt 0.49086 0.75599
vt 0.49086 0.82675
vt 0.49100 0.82937
vt 0.49319 0.36275
vt 0.49608 0.25533
vt 0.49678 0.25533
vt 0.50379 0.27932
vt 0.50676 0.33575
vt 0.50761 0.84378
vt 0.50761 0.90784
vt 0.50921 0.84209
vt 0.50921 0.90953
vt 0.51073 0.84378
vt 0.51073 0.90784
vt 0.51538 0.92297
vt 0.51538 0.97685
vt 0.51627 0.97949
vt 0.51635 0.27924
vt 0.52296 0.22866
vt 0.52304 0.01395
vt 0.52393 0.25533
vt 0.52464 0.25533
vt 0.52553 0.23667
vt 0.52562 0.00594
vt 0.52790 0.31432
vt 0.53027 0.84380
vt 0.53027 0.90786
vt 0.53162 0.27924
vt 0.54142 0.92225
vt 0.54142 0.97614
vt 0.54283 0.84210
vt 0.54283 0.88841
vt 0.54316 0.75588
vt 0.54316 0.82663
vt 0.54330 0.82925
vt 0.54418 0.27909
vt 0.54579 0.75597
vt 0.54579 0.82672
vt 0.54699 0.84209
vt 0.54699 0.88841
vt 0.54838 0.64946
vt 0.54840 0.61490
vt 0.54840 0.68461
vt 0.54844 0.58429
vt 0.54844 0.71689
vt 0.54851 0.56063
vt 0.54851 0.74314
vt 0.55173 0.25533
vt 0.55243 0.25533
vt 0.55402 0.21262
vt 0.55410 0.02998
vt 0.55454 0.30058
vt 0.55891 0.21944
vt 0.55899 0.02317
vt 0.55946 0.27910
vt 0.56107 0.56063
vt 0.56107 0.72900
vt 0.56107 0.74426
vt 0.56107 0.81507
vt 0.56107 0.83286
vt 0.56107 0.89524
vt 0.56107 0.96777
vt 0.56111 0.91050
vt 0.56112 0.97040
vt 0.56113 0.59992
vt 0.56113 0.68843
vt 0.56115 0.64396
vt 0.56343 0.74427
vt 0.56343 0.81507
vt 0.56343 0.83287
vt 0.56343 0.89524
vt 0.56356 0.74174
vt 0.56356 0.81760
vt 0.56356 0.83033
vt 0.56356 0.89777
vt 0.57201 0.27901
vt 0.57868 0.18765
vt 0.57873 0.05495
vt 0.57956 0.25533
vt 0.58026 0.25533
vt 0.58407 0.29586
vt 0.58541 0.19260
vt 0.58546 0.05000
vt 0.58729 0.27902
vt 0.59452 0.15618
vt 0.59455 0.08642
vt 0.59984 0.25537
vt 0.59984 0.27444
vt 0.59999 0.12130
vt 0.60243 0.15879
vt 0.60246 0.08382
vt 0.60830 0.12130
vt 0.60928 0.96777
vt 0.60933 0.91050
vt 0.60934 0.97040
vt 0.61183 0.96787
vt 0.61188 0.91059
vt 0.61360 0.30063
vt 0.61428 0.56064
vt 0.61428 0.72901
vt 0.61434 0.59992
vt 0.61434 0.68844
vt 0.61436 0.64396
vt 0.61491 0.83287
vt 0.61491 0.89524
vt 0.61504 0.83034
vt 0.61504 0.89777
vt 0.61753 0.83287
vt 0.61753 0.89524
vt 0.61855 0.25533
vt 0.61855 0.27440
vt 0.62086 0.24260
vt 0.62087 0.23417
vt 0.62104 0.00842
vt 0.62105 0.00000
vt 0.62443 0.91050
vt 0.62443 0.94925
vt 0.62488 0.74428
vt 0.62488 0.81509
vt 0.62501 0.74174
vt 0.62501 0.81761
vt 0.62527 0.91050
vt 0.62527 0.94925
vt 0.62692 0.56063
vt 0.62692 0.67453
vt 0.62692 0.68726
vt 0.62692 0.72872
vt 0.62696 0.58721
vt 0.62696 0.64709
vt 0.62697 0.61700
vt 0.62750 0.74427
vt 0.62750 0.81508
vt 0.62775 0.68727
vt 0.62775 0.72873
vt 0.63025 0.56063
vt 0.63025 0.67453
vt 0.63029 0.58721
vt 0.63029 0.64709
vt 0.63030 0.61700
vt 0.63111 0.25533
vt 0.63111 0.27083
vt 0.63814 0.94682
vt 0.63814 0.96208
vt 0.63814 1.00000
vt 0.64024 0.31441
vt 0.64060 0.94678
vt 0.64062 0.88441
vt 0.64063 0.94935
vt 0.64229 0.96208
vt 0.64229 1.00000
vt 0.64239 0.86916
vt 0.64286 0.66217
vt 0.64286 0.77499
vt 0.64286 0.78773
vt 0.64286 0.78845
vt 0.64354 0.78772
vt 0.64354 0.78844
vt 0.64369 0.67489
vt 0.64433 0.67489
vt 0.64474 0.80336
vt 0.64474 0.86904
vt 0.64488 0.87168
vt 0.64638 0.25534
vt 0.64638 0.27083
vt 0.65212 0.56063
vt 0.65275 0.56063
vt 0.65485 0.96208
vt 0.65485 0.99999
vt 0.65529 0.22865
vt 0.65546 0.01395
vt 0.65610 0.78773
vt 0.65610 0.78844
vt 0.65679 0.78772
vt 0.65679 0.78844
vt 0.65786 0.23666
vt 0.65804 0.00594
vt 0.65893 0.25576
vt 0.65893 0.26998
vt 0.65900 0.96208
vt 0.65900 0.99999
vt 0.65979 0.66217
vt 0.65982 0.77499
vt 0.66139 0.33587
vt 0.67235 0.56063
vt 0.67235 0.61961
vt 0.67253 0.25533
vt 0.67253 0.26955
vt 0.67288 0.71208
vt 0.67288 0.76674
vt 0.67288 0.77946
vt 0.67288 0.78367
vt 0.67372 0.71207
vt 0.67372 0.76673
vt 0.67372 0.77947
vt 0.67372 0.78367
vt 0.67496 0.36290
vt 0.67548 0.64041
vt 0.67548 0.69934
vt 0.67651 0.56063
vt 0.67651 0.61961
vt 0.67964 0.39285
vt 0.67964 0.54790
vt 0.67964 0.64041
vt 0.67964 0.69934
vt 0.68508 0.25533
vt 0.68508 0.26963
vt 0.68627 0.71208
vt 0.68627 0.78786
vt 0.68636 0.21262
vt 0.68638 0.79050
vt 0.68650 0.02998
vt 0.69124 0.21943
vt 0.69139 0.02317
vt 0.69219 0.29586
vt 0.69219 0.49300
vt 0.69219 0.50573
vt 0.69219 0.69934
vt 0.69289 0.80323
vt 0.69289 0.86890
vt 0.69292 0.71207
vt 0.69292 0.78784
vt 0.69298 0.94678
vt 0.69300 0.88441
vt 0.69301 0.94935
vt 0.69303 0.79049
vt 0.69303 0.87155
vt 0.69551 0.94682
vt 0.69552 0.50573
vt 0.69552 0.69934
vt 0.69552 0.71218
vt 0.69552 0.78796
vt 0.69552 0.80334
vt 0.69552 0.86902
vt 0.69552 0.88445
vt 0.69891 0.25545
vt 0.69891 0.26974
vt 0.70808 0.60706
vt 0.70808 0.72106
vt 0.70808 0.73632
vt 0.70808 0.81218
vt 0.70808 0.82997
vt 0.70808 0.89235
vt 0.70808 0.96498
vt 0.71044 0.73632
vt 0.71044 0.81218
vt 0.71044 0.82998
vt 0.71044 0.89235
vt 0.71054 0.96489
vt 0.71057 0.73379
vt 0.71057 0.81471
vt 0.71057 0.82744
vt 0.71057 0.89487
vt 0.71057 0.90761
vt 0.71057 0.96751
vt 0.71102 0.18765
vt 0.71113 0.05495
vt 0.71147 0.25533
vt 0.71147 0.26723
vt 0.71147 0.28015
vt 0.71147 0.28086
vt 0.71215 0.28016
vt 0.71215 0.28088
vt 0.71287 0.61979
vt 0.71322 0.50573
vt 0.71351 0.61979
vt 0.71385 0.50573
vt 0.71775 0.19260
vt 0.71786 0.05000
vt 0.72213 0.29586
vt 0.72213 0.49301
vt 0.72283 0.25552
vt 0.72283 0.26742
vt 0.72497 0.60706
vt 0.72500 0.72106
vt 0.72687 0.15618
vt 0.72693 0.08642
vt 0.73235 0.12130
vt 0.73469 0.39694
vt 0.73469 0.41220
vt 0.73469 0.48806
vt 0.73478 0.15878
vt 0.73484 0.08382
vt 0.73539 0.25533
vt 0.73539 0.25954
vt 0.73539 0.27227
vt 0.73539 0.27648
vt 0.73622 0.25533
vt 0.73622 0.25955
vt 0.73622 0.27228
vt 0.73622 0.27649
vt 0.73705 0.41221
vt 0.73705 0.48807
vt 0.73718 0.40967
vt 0.73718 0.49059
vt 0.73753 0.60655
vt 0.73756 0.71992
vt 0.73876 0.61979
vt 0.73940 0.61979
vt 0.74066 0.12130
vt 0.74692 0.29586
vt 0.74756 0.29586
vt 0.75084 0.50573
vt 0.75148 0.50573
vt 0.75187 0.39694
vt 0.75322 0.09971
vt 0.75322 0.11244
vt 0.75322 0.18830
vt 0.75322 0.20104
vt 0.75322 0.27690
vt 0.75326 0.00000
vt 0.75390 0.00000
vt 0.75461 0.60655
vt 0.75465 0.71992
vt 0.75877 0.96489
vt 0.75879 0.90761
vt 0.75879 0.96751
vt 0.76129 0.96498
vt 0.76131 0.90770
vt 0.76192 0.82999
vt 0.76192 0.89236
vt 0.76205 0.82745
vt 0.76205 0.89488
vt 0.76443 0.29587
vt 0.76443 0.37173
vt 0.76443 0.38446
vt 0.76443 0.39638
vt 0.76454 0.82998
vt 0.76454 0.89235
vt 0.76717 0.58166
vt 0.76717 0.59690
vt 0.76717 0.60111
vt 0.76720 0.69571
vt 0.76720 0.71096
vt 0.76720 0.71517
vt 0.76800 0.59691
vt 0.76800 0.60111
vt 0.76804 0.71096
vt 0.76804 0.71517
vt 0.76951 0.50575
vt 0.76951 0.58153
vt 0.76955 0.61981
vt 0.76955 0.69559
vt 0.76966 0.58417
vt 0.76970 0.69823
vt 0.77023 0.09971
vt 0.77387 0.94636
vt 0.77387 0.99784
vt 0.77388 0.90761
vt 0.77390 0.95909
vt 0.77597 0.38447
vt 0.77597 0.39639
vt 0.77616 0.50573
vt 0.77616 0.58152
vt 0.77619 0.61979
vt 0.77619 0.69558
vt 0.77630 0.58416
vt 0.77634 0.69822
vt 0.77687 0.73633
vt 0.77687 0.81219
vt 0.77700 0.73380
vt 0.77700 0.81471
vt 0.77710 0.82744
vt 0.77710 0.86889
vt 0.77793 0.82745
vt 0.77793 0.86889
vt 0.77803 0.94636
vt 0.77803 0.99784
vt 0.77804 0.90761
vt 0.77806 0.95909
vt 0.77879 0.50584
vt 0.77879 0.58162
vt 0.77883 0.61990
vt 0.77883 0.69568
vt 0.77949 0.73633
vt 0.77949 0.81219
vt 0.78055 0.59690
vt 0.78055 0.60111
vt 0.78059 0.71098
vt 0.78059 0.71487
vt 0.78138 0.59691
vt 0.78138 0.60111
vt 0.78142 0.71096
vt 0.78142 0.71485
vt 0.78279 0.00001
vt 0.78279 0.07579
vt 0.78279 0.09118
vt 0.78279 0.09506
vt 0.78290 0.07844
vt 0.78362 0.09116
vt 0.78362 0.09505
vt 0.78853 0.38446
vt 0.78853 0.38825
vt 0.78936 0.38448
vt 0.78936 0.38827
vt 0.78944 0.00000
vt 0.78944 0.07577
vt 0.78955 0.07842
vt 0.79134 0.57658
vt 0.79138 0.69054
vt 0.79149 0.69317
vt 0.79150 0.61979
vt 0.79204 0.00012
vt 0.79204 0.07589
vt 0.79205 0.80456
vt 0.79205 0.82242
vt 0.79205 0.88816
vt 0.79205 0.96080
vt 0.79214 0.73379
vt 0.79215 0.80716
vt 0.79369 0.57651
vt 0.79380 0.50573
vt 0.79383 0.57911
vt 0.79394 0.59690
vt 0.79394 0.60069
vt 0.79398 0.71096
vt 0.79398 0.71436
vt 0.79441 0.82242
vt 0.79441 0.88817
vt 0.79451 0.96071
vt 0.79454 0.81989
vt 0.79454 0.89069
vt 0.79454 0.90343
vt 0.79454 0.96333
vt 0.79477 0.59692
vt 0.79477 0.60071
vt 0.79481 0.71098
vt 0.79481 0.71437
vt 0.79618 0.09116
vt 0.79618 0.09456
vt 0.79701 0.09117
vt 0.79701 0.09456
vt 0.80191 0.38447
vt 0.80191 0.38518
vt 0.80261 0.38446
vt 0.80261 0.38517
vt 0.80348 0.41222
vt 0.80348 0.48808
vt 0.80361 0.40968
vt 0.80361 0.49060
vt 0.80459 0.00001
vt 0.80459 0.07081
vt 0.80610 0.41221
vt 0.80610 0.48807
vt 0.80733 0.59690
vt 0.80733 0.59762
vt 0.80737 0.71096
vt 0.80737 0.71168
vt 0.80803 0.59691
vt 0.80803 0.59762
vt 0.80806 0.71096
vt 0.80806 0.71168
vt 0.80956 0.09116
vt 0.80956 0.09188
vt 0.81027 0.09116
vt 0.81027 0.09188
vt 0.81866 0.40978
vt 0.81866 0.47544
vt 0.81876 0.47809
vt 0.81971 0.11243
vt 0.81971 0.18830
vt 0.81971 0.20103
vt 0.81971 0.27689
vt 0.83092 0.29586
vt 0.83092 0.37172
vt 0.83227 0.17991
vt 0.83227 0.26265
vt 0.83473 0.17983
vt 0.83473 0.26256
vt 0.83476 0.11243
vt 0.83476 0.18244
vt 0.83476 0.19517
vt 0.83476 0.26518
vt 0.84138 0.17983
vt 0.84138 0.26256
vt 0.84141 0.11243
vt 0.84141 0.18244
vt 0.84141 0.19517
vt 0.84141 0.26518
vt 0.84274 0.96071
vt 0.84276 0.90343
vt 0.84277 0.96333
vt 0.84348 0.36325
vt 0.84353 0.29586
vt 0.84353 0.36587
vt 0.84372 0.69054
vt 0.84382 0.69317
vt 0.84384 0.61979
vt 0.84391 0.17991
vt 0.84391 0.26265
vt 0.84393 0.11252
vt 0.84393 0.19526
vt 0.84438 0.80456
vt 0.84447 0.73379
vt 0.84449 0.80716
vt 0.84526 0.96080
vt 0.84528 0.90352
vt 0.84599 0.57651
vt 0.84610 0.50573
vt 0.84613 0.57911
vt 0.84632 0.69064
vt 0.84644 0.61989
vt 0.84698 0.80463
vt 0.84708 0.73386
vt 0.84863 0.57658
vt 0.84874 0.50580
vt 0.85013 0.36325
vt 0.85018 0.29586
vt 0.85018 0.36587
vt 0.85088 0.82243
vt 0.85088 0.88818
vt 0.85101 0.81990
vt 0.85101 0.89070
vt 0.85268 0.36334
vt 0.85273 0.29595
vt 0.85350 0.82243
vt 0.85350 0.88817
vt 0.85649 0.17982
vt 0.85649 0.19943
vt 0.85649 0.26349
vt 0.85654 0.11243
vt 0.85654 0.18244
vt 0.85816 0.19774
vt 0.85816 0.26517
vt 0.85826 0.19943
vt 0.85826 0.26349
vt 0.85899 0.68718
vt 0.85905 0.61979
vt 0.85905 0.68980
vt 0.85963 0.80117
vt 0.85968 0.73379
vt 0.85968 0.80379
vt 0.86129 0.50573
vt 0.86182 0.53649
vt 0.86182 0.57112
vt 0.86314 0.17982
vt 0.86319 0.11243
vt 0.86319 0.18244
vt 0.86528 0.29586
vt 0.86565 0.68718
vt 0.86569 0.17991
vt 0.86570 0.61979
vt 0.86570 0.68980
vt 0.86574 0.11253
vt 0.86579 0.32638
vt 0.86579 0.36091
vt 0.86605 0.81990
vt 0.86605 0.88564
vt 0.86605 0.89851
vt 0.86605 0.96176
vt 0.86610 0.00000
vt 0.86610 0.07080
vt 0.86628 0.80117
vt 0.86633 0.73379
vt 0.86633 0.80379
vt 0.86661 0.89837
vt 0.86684 0.40967
vt 0.86684 0.47534
vt 0.86695 0.47799
vt 0.86819 0.68727
vt 0.86825 0.61988
vt 0.86883 0.80127
vt 0.86888 0.73388
vt 0.86944 0.40979
vt 0.86944 0.47546
vt 0.87725 0.95901
vt 0.87830 0.11244
vt 0.87830 0.17819
vt 0.87865 0.06242
vt 0.88080 0.68214
vt 0.88084 0.61979
vt 0.88086 0.68474
vt 0.88112 0.06235
vt 0.88114 0.00000
vt 0.88115 0.06495
vt 0.88144 0.79615
vt 0.88147 0.73379
vt 0.88149 0.79873
vt 0.88199 0.47220
vt 0.88434 0.40976
vt 0.88434 0.47208
vt 0.88449 0.47472
vt 0.88815 0.19944
vt 0.88815 0.26349
vt 0.88842 0.19774
vt 0.88842 0.26518
vt 0.88980 0.96172
vt 0.89009 0.19943
vt 0.89009 0.26349
vt 0.89218 0.89837
vt 0.89276 0.89837
vt 0.90129 0.96172
vt 0.90265 0.19787
vt 0.90265 0.26003
vt 0.90276 0.26276
vt 0.91385 0.89837
vt 0.91385 0.95906
vt 0.91921 0.40967
vt 0.91921 0.47198
vt 0.91935 0.47462
vt 0.92109 0.50632
vt 0.92162 0.53708
vt 0.92162 0.57171
vt 0.92184 0.40978
vt 0.92184 0.47209
vt 0.92215 0.89837
vt 0.92215 0.95906
vt 0.92257 0.81989
vt 0.92257 0.88564
vt 0.92509 0.29646
vt 0.92559 0.32698
vt 0.92559 0.36151
vt 0.93318 0.68214
vt 0.93321 0.61979
vt 0.93323 0.68474
vt 0.93350 0.06235
vt 0.93352 0.00000
vt 0.93353 0.06495
vt 0.93381 0.79615
vt 0.93384 0.73379
vt 0.93387 0.79873
vt 0.93417 0.50584
vt 0.93417 0.56961
vt 0.93440 0.47097
vt 0.93473 0.50573
vt 0.93481 0.11243
vt 0.93481 0.17818
vt 0.93512 0.88347
vt 0.93512 0.95717
vt 0.93573 0.68221
vt 0.93576 0.61986
vt 0.93602 0.06242
vt 0.93604 0.00007
vt 0.93636 0.79620
vt 0.93639 0.73383
vt 0.93754 0.19774
vt 0.93754 0.25990
vt 0.93765 0.26263
vt 0.93815 0.29601
vt 0.93815 0.35891
vt 0.93871 0.29586
vt 0.94014 0.19794
vt 0.94014 0.26010
vt 0.94072 0.81989
vt 0.94129 0.81989
vt 0.94541 0.56745
vt 0.94542 0.40967
vt 0.94571 0.89620
vt 0.94600 0.40979
vt 0.94600 0.47336
vt 0.94627 0.89633
vt 0.94627 0.95977
vt 0.94663 0.88347
vt 0.94737 0.11340
vt 0.94737 0.16729
vt 0.94754 0.16993
vt 0.94832 0.62703
vt 0.94832 0.68929
vt 0.94832 0.72011
vt 0.94850 0.62878
vt 0.94860 0.00725
vt 0.94878 0.00898
vt 0.94894 0.78610
vt 0.94915 0.68932
vt 0.94915 0.72013
vt 0.94935 0.35587
vt 0.95141 0.78601
vt 0.95143 0.73379
vt 0.95144 0.78863
vt 0.95269 0.25005
vt 0.95400 0.67654
vt 0.95428 0.05674
vt 0.95516 0.24987
vt 0.95519 0.25257
vt 0.95520 0.19774
vt 0.95797 0.55796
vt 0.95797 0.60374
vt 0.95801 0.50573
vt 0.95802 0.56058
vt 0.95855 0.46180
vt 0.95860 0.46450
vt 0.95863 0.40967
vt 0.95882 0.93840
vt 0.95882 0.99161
vt 0.95919 0.86202
vt 0.96031 0.57331
vt 0.96031 0.60362
vt 0.96046 0.60626
vt 0.96112 0.95112
vt 0.96171 0.68929
vt 0.96171 0.72007
vt 0.96181 0.95112
vt 0.96191 0.33769
vt 0.96191 0.39109
vt 0.96197 0.57331
vt 0.96197 0.60362
vt 0.96212 0.60626
vt 0.96253 0.68932
vt 0.96253 0.72011
vt 0.96282 0.89620
vt 0.96350 0.89620
vt 0.96427 0.35042
vt 0.96461 0.57341
vt 0.96461 0.60373
vt 0.96496 0.35042
vt 0.96561 0.29586
vt 0.96591 0.81989
vt 0.96630 0.29586
vt 0.96659 0.81989
vt 0.96764 0.61979
vt 0.96792 0.00000
vt 0.96914 0.62104
vt 0.96942 0.00123
vt 0.97018 0.93840
vt 0.97024 0.99161
vt 0.97060 0.86202
vt 0.97076 0.61979
vt 0.97104 0.00000
vt 0.97331 0.39109
vt 0.97337 0.33769
vt 0.97416 0.11313
vt 0.97416 0.16702
vt 0.97508 0.16966
vt 0.97716 0.57331
vt 0.97716 0.60362
vt 0.97727 0.60627
vt 0.97882 0.57331
vt 0.97882 0.60362
vt 0.97893 0.60626
vt 0.98143 0.57342
vt 0.98143 0.60373
vt 0.98273 0.93495
vt 0.98276 0.89620
vt 0.98280 0.98987
vt 0.98283 0.95112
vt 0.98316 0.81989
vt 0.98316 0.85861
vt 0.98399 0.81989
vt 0.98399 0.85861
vt 0.98428 0.67656
vt 0.98456 0.05675
vt 0.98587 0.35042
vt 0.98587 0.38914
vt 0.98593 0.29586
vt 0.98593 0.33458
vt 0.98601 0.67654
vt 0.98629 0.05675
vt 0.98633 0.78601
vt 0.98635 0.73379
vt 0.98636 0.78863
vt 0.98670 0.35042
vt 0.98670 0.38914
vt 0.98676 0.29586
vt 0.98676 0.33458
vt 0.98689 0.93495
vt 0.98692 0.89620
vt 0.98695 0.98987
vt 0.98698 0.95112
vt 0.98885 0.78610
vt 0.98887 0.73388
vt 0.98977 0.62881
vt 0.99005 0.00899
vt 0.99007 0.62707
vt 0.99008 0.24987
vt 0.99011 0.25257
vt 0.99012 0.19774
vt 0.99036 0.00727
vt 0.99144 0.62933
vt 0.99172 0.00953
vt 0.99261 0.25005
vt 0.99265 0.19792
vt 0.99288 0.55796
vt 0.99292 0.50573
vt 0.99293 0.56058
vt 0.99347 0.46180
vt 0.99352 0.46450
vt 0.99355 0.40967
vt 0.99543 0.55805
vt 0.99547 0.50582
vt 0.99602 0.46198
vt 0.99610 0.40985
vt 1.00000 0.11243
vt 1.00000 0.16633
s 0
usemtl ARPG_obsidian_slab
f 1/105/14 3/103/14 8/20/14
f 1/105/14 8/20/14 7/22/14
f 1/283/6 2/296/6 3/297/6
f 10/266/3 16/125/3 22/265/3
f 10/266/3 5/126/3 16/125/3
f 10/313/16 12/305/16 6/304/16
f 10/313/16 6/304/16 5/312/16
f 10/313/9 11/307/9 12/305/9
f 11/356/5 20/325/5 9/332/5
f 11/356/5 24/353/5 20/325/5
f 13/104/10 14/102/10 15/106/10
f 13/104/24 15/106/24 2/107/24
f 13/104/24 2/107/24 1/105/24
f 15/331/23 14/329/23 18/352/23
f 15/331/23 18/352/23 17/355/23
f 16/360/11 17/355/11 18/352/11
f 16/360/22 18/352/22 23/351/22
f 16/360/22 23/351/22 22/359/22
f 17/309/1 2/296/1 15/299/1
f 17/309/1 4/306/1 2/296/1
f 19/21/12 20/1/12 21/19/12
f 19/21/21 14/102/21 13/104/21
f 19/21/21 21/19/21 14/102/21
f 19/21/26 1/105/26 7/22/26
f 19/21/26 13/104/26 1/105/26
f 21/330/20 20/325/20 24/353/20
f 21/330/20 24/353/20 23/354/20
f 22/358/13 23/354/13 24/353/13
f 22/358/19 11/356/19 10/361/19
f 22/358/19 24/353/19 11/356/19
f 23/351/2 14/329/2 21/328/2
f 23/351/2 18/352/2 14/329/2
f 25/221/14 27/222/14 32/185/14
f 25/221/14 32/185/14 31/187/14
f 25/327/27 26/337/27 27/338/27
f 28/343/15 27/338/15 26/337/15
f 28/343/15 30/345/15 27/338/15
f 28/343/28 29/350/28 30/345/28
f 29/350/25 28/343/25 41/335/25
f 29/350/25 41/335/25 40/344/25
f 30/1251/4 32/1243/4 27/1242/4
f 30/1251/4 36/1252/4 32/1243/4
f 31/1233/8 32/1243/8 33/1244/8
f 31/187/18 33/181/18 44/180/18
f 31/187/18 44/180/18 43/186/18
f 33/1244/17 32/1243/17 36/1252/17
f 33/1244/17 36/1252/17 35/1253/17
f 34/1260/16 30/1251/16 29/1259/16
f 34/1260/16 36/1252/16 30/1251/16
f 34/1260/9 35/1253/9 36/1252/9
f 34/827/3 29/772/3 40/771/3
f 34/827/3 40/771/3 46/826/3
f 35/293/5 44/284/5 33/288/5
f 35/293/5 48/291/5 44/284/5
f 37/220/24 26/225/24 25/221/24
f 37/220/24 39/224/24 26/225/24
f 37/220/29 38/219/29 39/224/29
f 39/1282/23 38/1281/23 42/1284/23
f 39/1282/23 42/1284/23 41/1285/23
f 4/306/15 3/297/15 2/296/15
f 4/306/15 6/308/15 3/297/15
f 4/306/7 5/314/7 6/308/7
f 40/1287/22 42/1284/22 47/1283/22
f 40/1287/22 47/1283/22 46/1286/22
f 40/1287/30 41/1285/30 42/1284/30
f 41/335/1 26/337/1 39/326/1
f 41/335/1 28/343/1 26/337/1
f 43/186/12 44/180/12 45/184/12
f 43/186/21 38/219/21 37/220/21
f 43/186/21 45/184/21 38/219/21
f 43/186/26 25/221/26 31/187/26
f 43/186/26 37/220/26 25/221/26
f 45/287/20 44/284/20 48/291/20
f 45/287/20 48/291/20 47/292/20
f 46/300/13 47/292/13 48/291/13
f 46/300/19 35/293/19 34/301/19
f 46/300/19 48/291/19 35/293/19
f 47/1283/2 38/1281/2 45/1280/2
f 47/1283/2 42/1284/2 38/1281/2
f 5/314/25 17/309/25 16/315/25
f 5/314/25 4/306/25 17/309/25
f 6/304/4 12/305/4 8/295/4
f 6/304/4 8/295/4 3/294/4
f 7/22/18 20/1/18 19/21/18
f 7/22/18 9/2/18 20/1/18
f 7/285/8 8/295/8 9/298/8
f 9/298/17 12/305/17 11/307/17
f 9/298/17 8/295/17 12/305/17
usemtl ARPG_ember
f 50/939/31 51/936/31 49/935/31
f 50/939/31 52/940/31 51/936/31
f 52/749/32 55/746/32 51/745/32
f 52/749/32 56/750/32 55/746/32
f 533/1076/313 535/1082/313 534/1080/313
f 535/1082/24 536/1140/24 537/1142/24
f 535/1082/24 537/1142/24 534/1080/24
f 536/1140/314 538/1145/314 537/1142/314
f 536/1140/332 551/1144/332 538/1145/332
f 536/1140/344 553/1139/344 551/1144/344
f 537/1228/1 540/1218/1 543/1269/1
f 537/1228/1 543/1269/1 547/1318/1
f 537/197/324 538/193/324 539/243/324
f 537/197/324 539/243/324 540/245/324
f 539/243/315 541/247/315 540/245/315
f 539/243/333 554/246/333 541/247/333
f 539/243/333 556/242/333 554/246/333
f 54/132/34 49/129/34 53/128/34
f 54/132/34 50/133/34 49/129/34
f 540/1218/325 541/1217/325 542/1267/325
f 540/1218/325 542/1267/325 543/1269/325
f 542/567/3 557/570/3 544/571/3
f 542/567/3 559/566/3 557/570/3
f 542/567/316 544/571/316 543/569/316
f 544/1274/326 546/1323/326 547/1318/326
f 544/1274/326 547/1318/326 543/1269/326
f 545/1325/323 533/1303/323 534/1297/323
f 545/1325/323 534/1297/323 547/1318/323
f 545/397/317 547/399/317 546/408/317
f 546/408/334 560/398/334 545/397/334
f 546/408/334 562/409/334 560/398/334
f 547/1318/1 534/1297/1 537/1228/1
f 548/1075/318 550/1079/318 549/1081/318
f 549/1081/26 536/1140/26 535/1082/26
f 549/1081/26 553/1139/26 536/1140/26
f 549/1081/331 533/1076/331 548/1075/331
f 549/1081/343 535/1082/343 533/1076/343
f 55/754/26 49/761/26 51/755/26
f 55/754/26 53/760/26 49/761/26
f 550/1227/5 561/1216/5 558/1268/5
f 550/369/327 548/365/327 560/398/327
f 550/369/327 560/398/327 561/400/327
f 551/1144/319 553/1139/319 552/1141/319
f 551/192/310 539/243/310 538/193/310
f 551/192/310 556/242/310 539/243/310
f 553/1139/18 549/1081/18 550/1079/18
f 553/1139/18 550/1079/18 552/1141/18
f 554/246/320 556/242/320 555/244/320
f 554/542/311 542/567/311 541/543/311
f 554/542/311 559/566/311 542/567/311
f 556/1324/330 551/1302/330 552/1296/330
f 556/1324/330 552/1296/330 555/1317/330
f 557/570/312 546/584/312 544/571/312
f 557/570/312 562/583/312 546/584/312
f 557/570/321 559/566/321 558/568/321
f 558/1268/5 552/1296/5 550/1227/5
f 558/1268/5 555/1317/5 552/1296/5
f 559/1273/329 554/1319/329 555/1317/329
f 559/1273/329 555/1317/329 558/1268/329
f 56/756/3 50/742/3 54/741/3
f 56/756/3 52/757/3 50/742/3
f 56/946/33 53/944/33 55/943/33
f 56/946/33 54/947/33 53/944/33
f 560/398/322 562/409/322 561/400/322
f 560/398/335 533/364/335 545/397/335
f 560/398/335 548/365/335 533/364/335
f 561/1216/328 557/1266/328 558/1268/328
f 561/1216/328 562/1213/328 557/1266/328
f 58/949/35 59/950/35 57/951/35
f 58/949/35 60/948/35 59/950/35
f 60/431/3 58/419/3 62/418/3
f 60/431/3 62/418/3 64/430/3
f 60/684/36 63/690/36 59/691/36
f 60/684/36 64/683/36 63/690/36
f 62/920/38 57/921/38 61/922/38
f 62/920/38 58/919/38 57/921/38
f 63/588/26 57/597/26 59/589/26
f 63/588/26 61/596/26 57/597/26
f 64/971/37 61/981/37 63/982/37
f 64/971/37 62/970/37 61/981/37
f 66/986/39 67/987/39 65/988/39
f 66/986/39 68/985/39 67/987/39
f 68/1247/40 71/1254/40 67/1255/40
f 68/1247/40 72/1246/40 71/1254/40
f 70/1215/42 65/1220/42 69/1221/42
f 70/1215/42 66/1214/42 65/1220/42
f 71/724/26 65/737/26 67/725/26
f 71/724/26 69/736/26 65/737/26
f 72/706/3 66/701/3 70/700/3
f 72/706/3 68/707/3 66/701/3
f 72/973/41 69/983/41 71/984/41
f 72/973/41 70/972/41 69/983/41
usemtl ARPG_obsidian
f 100/1036/72 101/1052/72 102/1038/72
f 100/1036/80 102/1038/80 99/980/80
f 100/1036/80 99/980/80 98/976/80
f 101/1052/90 100/1036/90 113/1037/90
f 101/1052/90 113/1037/90 112/1053/90
f 102/775/69 104/718/69 99/717/69
f 102/775/69 108/776/69 104/718/69
f 103/708/73 104/718/73 105/719/73
f 103/974/83 105/977/83 116/1068/83
f 103/974/83 116/1068/83 115/1066/83
f 105/719/82 104/718/82 108/776/82
f 105/719/82 108/776/82 107/783/82
f 106/790/74 107/783/74 108/776/74
f 106/790/81 102/775/81 101/789/81
f 106/790/81 108/776/81 102/775/81
f 107/651/70 116/619/70 105/620/70
f 107/651/70 120/650/70 116/619/70
f 109/1067/75 110/1073/75 111/1069/75
f 109/1067/86 115/1066/86 117/1072/86
f 109/1067/86 117/1072/86 110/1073/86
f 109/1067/89 111/1069/89 98/978/89
f 109/1067/89 98/978/89 97/975/89
f 111/1015/88 110/1014/88 114/1114/88
f 111/1015/88 114/1114/88 113/1115/88
f 112/1121/76 113/1115/76 114/1114/76
f 112/1121/87 114/1114/87 119/1113/87
f 112/1121/87 119/1113/87 118/1120/87
f 113/1037/67 100/1036/67 98/976/67
f 113/1037/67 98/976/67 111/979/67
f 115/1066/26 109/1067/26 97/975/26
f 115/1066/26 97/975/26 103/974/26
f 115/1066/77 116/1068/77 117/1072/77
f 117/621/85 116/619/85 120/650/85
f 117/621/85 120/650/85 119/652/85
f 118/1123/3 101/1183/3 112/1124/3
f 118/1123/3 106/1182/3 101/1183/3
f 118/653/78 119/652/78 120/650/78
f 118/653/84 107/651/84 106/654/84
f 118/653/84 120/650/84 107/651/84
f 119/1113/68 110/1014/68 117/1013/68
f 119/1113/68 114/1114/68 110/1014/68
f 121/1226/95 122/1229/95 123/1230/95
f 121/628/103 123/618/103 128/617/103
f 121/628/103 128/617/103 127/627/103
f 121/628/113 133/662/113 135/664/113
f 121/628/113 135/664/113 122/632/113
f 124/1320/104 123/1230/104 122/1229/104
f 124/1320/104 126/1321/104 123/1230/104
f 124/1320/96 125/1326/96 126/1321/96
f 125/1326/114 124/1320/114 137/1322/114
f 125/1326/114 137/1322/114 136/1327/114
f 126/333/93 128/277/93 123/276/93
f 126/333/93 132/334/93 128/277/93
f 127/275/97 128/277/97 129/278/97
f 127/627/107 129/631/107 140/663/107
f 127/627/107 140/663/107 139/661/107
f 129/278/106 128/277/106 132/334/106
f 129/278/106 132/334/106 131/336/106
f 130/1337/108 142/1336/108 144/1331/108
f 130/1337/108 144/1331/108 131/1333/108
f 130/347/105 126/333/105 125/346/105
f 130/347/105 132/334/105 126/333/105
f 130/347/98 131/336/98 132/334/98
f 131/1333/94 140/1236/94 129/1238/94
f 131/1333/94 144/1331/94 140/1236/94
f 133/662/99 134/666/99 135/664/99
f 135/1151/112 134/1150/112 138/1193/112
f 135/1151/112 138/1193/112 137/1194/112
f 136/1199/100 137/1194/100 138/1193/100
f 136/1199/111 138/1193/111 143/1192/111
f 136/1199/111 143/1192/111 142/1198/111
f 137/1322/91 122/1229/91 135/1231/91
f 137/1322/91 124/1320/91 122/1229/91
f 139/661/101 140/663/101 141/665/101
f 139/661/110 134/666/110 133/662/110
f 139/661/110 141/665/110 134/666/110
f 139/661/26 121/628/26 127/627/26
f 139/661/26 133/662/26 121/628/26
f 141/1237/109 140/1236/109 144/1331/109
f 141/1237/109 144/1331/109 143/1332/109
f 142/1336/102 143/1332/102 144/1331/102
f 142/449/3 125/498/3 136/450/3
f 142/449/3 130/497/3 125/498/3
f 143/1192/92 134/1150/92 141/1149/92
f 143/1192/92 138/1193/92 134/1150/92
f 209/645/134 211/644/134 213/667/134
f 209/645/134 213/667/134 215/668/134
f 210/715/129 211/739/129 209/710/129
f 210/715/129 212/716/129 211/739/129
f 211/853/130 212/854/130 214/855/130
f 211/853/130 214/855/130 213/870/130
f 212/1005/131 210/1006/131 216/1002/131
f 212/1005/131 216/1002/131 214/1001/131
f 214/722/132 215/738/132 213/709/132
f 214/722/132 216/723/132 215/738/132
f 216/857/133 209/861/133 215/835/133
f 216/857/133 210/858/133 209/861/133
f 217/1196/135 218/1195/135 220/1197/135
f 217/1196/135 220/1197/135 219/1222/135
f 219/792/140 221/793/140 223/763/140
f 219/792/140 223/763/140 217/762/140
f 220/1105/136 221/1122/136 219/1106/136
f 220/1105/136 222/1112/136 221/1122/136
f 220/728/137 224/731/137 222/729/137
f 220/728/340 218/730/340 224/731/340
f 222/1203/138 223/1206/138 221/1180/138
f 222/1203/341 224/1205/341 223/1206/341
f 223/1143/139 218/1147/139 217/1148/139
f 223/1143/139 224/1146/139 218/1147/139
f 226/1245/141 227/1271/141 225/1240/141
f 226/1245/141 228/1248/141 227/1271/141
f 227/882/146 229/907/146 231/908/146
f 227/882/146 231/908/146 225/883/146
f 228/1007/143 226/1008/143 232/1004/143
f 228/1007/143 232/1004/143 230/1003/143
f 228/1262/142 229/1276/142 227/1249/142
f 228/1262/142 230/1264/142 229/1276/142
f 230/348/144 231/357/144 229/322/144
f 230/348/144 232/349/144 231/357/144
f 232/302/145 225/310/145 231/286/145
f 232/302/145 226/303/145 225/310/145
f 233/1125/151 234/1129/151 235/1131/151
f 233/626/159 235/616/159 240/615/159
f 233/626/159 240/615/159 239/625/159
f 233/626/169 245/676/169 247/678/169
f 233/626/169 247/678/169 234/630/169
f 236/1172/152 237/1188/152 238/1174/152
f 236/1172/160 235/1131/160 234/1129/160
f 236/1172/160 238/1174/160 235/1131/160
f 237/1188/170 236/1172/170 249/1173/170
f 237/1188/170 249/1173/170 248/1189/170
f 238/590/149 240/559/149 235/558/149
f 238/590/149 244/591/149 240/559/149
f 239/541/153 240/559/153 241/560/153
f 239/625/163 241/629/163 252/677/163
f 239/625/163 252/677/163 251/675/163
f 239/625/26 245/676/26 233/626/26
f 239/625/26 251/675/26 245/676/26
f 241/560/162 240/559/162 244/591/162
f 241/560/162 244/591/162 243/592/162
f 242/595/154 243/592/154 244/591/154
f 242/595/161 238/590/161 237/594/161
f 242/595/161 244/591/161 238/590/161
f 243/1170/150 252/1126/150 241/1127/150
f 243/1170/150 256/1169/150 252/1126/150
f 245/676/155 246/689/155 247/678/155
f 247/957/168 246/956/168 250/1042/168
f 247/957/168 250/1042/168 249/1043/168
f 248/1057/156 249/1043/156 250/1042/156
f 248/1057/167 250/1042/167 255/1044/167
f 248/1057/167 255/1044/167 254/1058/167
f 249/1173/147 234/1129/147 247/1130/147
f 249/1173/147 236/1172/147 234/1129/147
f 251/675/157 252/677/157 253/688/157
f 251/675/166 246/689/166 245/676/166
f 251/675/166 253/688/166 246/689/166
f 253/1128/165 252/1126/165 256/1169/165
f 253/1128/165 256/1169/165 255/1171/165
f 254/1186/158 255/1171/158 256/1169/158
f 254/1186/164 243/1170/164 242/1187/164
f 254/1186/164 256/1169/164 243/1170/164
f 254/997/3 237/1108/3 248/998/3
f 254/997/3 242/1107/3 237/1108/3
f 255/1044/148 246/956/148 253/958/148
f 255/1044/148 250/1042/148 246/956/148
f 257/457/183 259/448/183 264/447/183
f 257/457/183 264/447/183 263/456/183
f 257/800/175 258/805/175 259/811/175
f 260/871/176 261/874/176 262/873/176
f 260/871/184 259/811/184 258/805/184
f 260/871/184 262/873/184 259/811/184
f 262/162/173 264/123/173 259/122/173
f 262/162/173 268/163/173 264/123/173
f 263/118/177 264/123/177 265/124/177
f 263/456/187 265/460/187 276/512/187
f 263/456/187 276/512/187 275/510/187
f 265/124/186 264/123/186 268/163/186
f 265/124/186 268/163/186 267/164/186
f 266/1164/3 261/1165/3 272/1104/3
f 266/1164/3 272/1104/3 278/1103/3
f 266/166/178 267/164/178 268/163/178
f 266/166/185 262/162/185 261/165/185
f 266/166/185 268/163/185 262/162/185
f 266/415/188 278/414/188 280/405/188
f 266/415/188 280/405/188 267/406/188
f 267/406/174 276/366/174 265/367/174
f 267/406/174 280/405/174 276/366/174
f 269/511/179 270/519/179 271/513/179
f 269/511/193 258/461/193 257/457/193
f 269/511/193 271/513/193 258/461/193
f 271/14/192 270/10/192 274/57/192
f 271/14/192 274/57/192 273/58/192
f 272/60/180 273/58/180 274/57/180
f 272/60/191 274/57/191 279/56/191
f 272/60/191 279/56/191 278/59/191
f 272/875/194 260/871/194 273/872/194
f 272/875/194 261/874/194 260/871/194
f 273/872/171 258/805/171 271/810/171
f 273/872/171 260/871/171 258/805/171
f 275/510/181 276/512/181 277/518/181
f 275/510/190 270/519/190 269/511/190
f 275/510/190 277/518/190 270/519/190
f 275/510/26 257/457/26 263/456/26
f 275/510/26 269/511/26 257/457/26
f 277/368/189 276/366/189 280/405/189
f 277/368/189 280/405/189 279/407/189
f 278/414/182 279/407/182 280/405/182
f 279/56/172 270/10/172 277/9/172
f 279/56/172 274/57/172 270/10/172
f 281/1219/121 282/1223/121 283/1225/121
f 284/1304/122 285/1315/122 286/1306/122
f 284/1304/204 283/1225/204 282/1223/204
f 284/1304/204 286/1306/204 283/1225/204
f 285/1160/205 290/1161/205 292/1155/205
f 285/1160/205 292/1155/205 286/1154/205
f 285/1315/214 284/1304/214 297/1305/214
f 285/1315/214 297/1305/214 296/1316/214
f 286/1154/197 288/1137/197 283/1136/197
f 286/1154/197 292/1155/197 288/1137/197
f 287/1135/199 288/1137/199 289/1138/199
f 287/803/203 281/804/203 283/799/203
f 287/803/203 283/799/203 288/798/203
f 287/803/207 289/808/207 300/878/207
f 287/803/207 300/878/207 299/876/207
f 289/1138/206 288/1137/206 292/1155/206
f 289/1138/206 292/1155/206 291/1156/206
f 290/1161/117 291/1156/117 292/1155/117
f 290/93/3 285/94/3 296/85/3
f 290/93/3 296/85/3 302/84/3
f 291/1329/198 300/1232/198 289/1234/198
f 291/1329/198 304/1328/198 300/1232/198
f 293/877/200 294/885/200 295/879/200
f 293/877/213 282/809/213 281/804/213
f 293/877/213 295/879/213 282/809/213
f 295/121/212 294/120/212 298/145/212
f 295/121/212 298/145/212 297/146/212
f 296/150/201 297/146/201 298/145/201
f 296/150/211 298/145/211 303/144/211
f 296/150/211 303/144/211 302/149/211
f 297/1305/195 282/1223/195 295/1224/195
f 297/1305/195 284/1304/195 282/1223/195
f 299/876/119 300/878/119 301/884/119
f 299/876/210 294/885/210 293/877/210
f 299/876/210 301/884/210 294/885/210
f 299/876/26 281/804/26 287/803/26
f 299/876/26 293/877/26 281/804/26
f 301/1235/209 300/1232/209 304/1328/209
f 301/1235/209 304/1328/209 303/1330/209
f 302/1334/202 303/1330/202 304/1328/202
f 302/1334/208 291/1329/208 290/1335/208
f 302/1334/208 304/1328/208 291/1329/208
f 303/144/196 294/120/196 301/119/196
f 303/144/196 298/145/196 294/120/196
f 369/182/229 371/211/229 373/212/229
f 369/182/229 373/212/229 375/183/229
f 369/794/224 372/823/224 371/830/224
f 369/794/342 370/821/342 372/823/342
f 371/852/225 372/859/225 374/860/225
f 371/852/225 374/860/225 373/869/225
f 372/989/226 370/991/226 376/992/226
f 372/989/226 376/992/226 374/990/226
f 373/795/227 374/820/227 376/822/227
f 373/795/227 376/822/227 375/831/227
f 376/867/228 369/902/228 375/862/228
f 376/867/228 370/868/228 369/902/228
f 377/1185/230 378/1204/230 380/1207/230
f 377/1185/230 380/1207/230 379/1208/230
f 379/1179/231 380/1178/231 382/1181/231
f 379/1179/231 382/1181/231 381/1202/231
f 379/734/235 381/743/235 383/744/235
f 379/734/235 383/744/235 377/735/235
f 380/818/232 378/819/232 384/817/232
f 380/818/232 384/817/232 382/816/232
f 381/12/233 382/11/233 384/16/233
f 381/12/233 384/16/233 383/29/233
f 384/1200/234 377/1209/234 383/1184/234
f 384/1200/234 378/1201/234 377/1209/234
f 385/814/241 387/828/241 389/829/241
f 385/814/241 389/829/241 391/815/241
f 386/1256/236 387/1270/236 385/1239/236
f 386/1256/236 388/1257/236 387/1270/236
f 386/713/238 390/712/238 388/711/238
f 386/713/238 392/714/238 390/712/238
f 387/1241/237 388/1263/237 390/1265/237
f 387/1241/237 390/1265/237 389/1272/237
f 389/34/239 390/39/239 392/40/239
f 389/34/239 392/40/239 391/46/239
f 391/1250/240 386/1261/240 385/1275/240
f 391/1250/240 392/1258/240 386/1261/240
f 393/70/258 394/69/258 395/76/258
f 396/15/270 394/69/270 393/70/270
f 396/15/270 398/6/270 394/69/270
f 396/373/259 397/385/259 398/388/259
f 399/274/24 393/342/24 395/340/24
f 399/274/24 395/340/24 400/272/24
f 399/274/26 396/341/26 393/342/26
f 399/274/26 402/273/26 396/341/26
f 399/274/260 400/272/260 401/261/260
f 399/274/271 401/261/271 403/260/271
f 399/274/271 403/260/271 402/273/271
f 402/273/18 397/339/18 396/341/18
f 402/273/18 404/271/18 397/339/18
f 402/273/261 403/260/261 404/271/261
f 404/383/5 407/410/5 397/385/5
f 404/383/5 412/395/5 407/410/5
f 405/68/266 395/76/266 394/69/266
f 405/68/266 406/75/266 395/76/266
f 406/402/1 400/380/1 395/370/1
f 406/402/1 409/392/1 400/380/1
f 408/412/269 397/385/269 407/410/269
f 408/412/269 398/388/269 397/385/269
f 408/412/275 407/410/275 415/474/275
f 408/412/275 415/474/275 416/476/275
f 408/5/242 394/69/242 398/6/242
f 408/5/242 405/68/242 394/69/242
f 410/1277/243 403/1211/243 401/1210/243
f 410/1277/243 411/1278/243 403/1211/243
f 410/389/267 400/380/267 409/392/267
f 410/389/267 401/381/267 400/380/267
f 410/389/273 409/392/273 417/423/273
f 410/389/273 417/423/273 418/416/273
f 411/1278/268 404/1212/268 403/1211/268
f 411/1278/268 412/1279/268 404/1212/268
f 413/472/272 406/402/272 405/403/272
f 413/472/272 414/471/272 406/402/272
f 413/472/276 421/493/276 422/490/276
f 413/472/276 422/490/276 414/471/276
f 414/471/1 409/392/1 406/402/1
f 414/471/1 417/423/1 409/392/1
f 416/17/244 405/68/244 408/5/244
f 416/17/244 413/71/244 405/68/244
f 416/476/279 415/474/279 423/491/279
f 416/476/279 423/491/279 424/495/279
f 418/1338/245 411/1278/245 410/1277/245
f 418/1338/245 419/1339/245 411/1278/245
f 418/416/277 417/423/277 425/467/277
f 418/416/277 425/467/277 426/462/277
f 419/421/274 412/395/274 411/394/274
f 419/421/274 420/424/274 412/395/274
f 419/421/278 427/464/278 428/468/278
f 419/421/278 428/468/278 420/424/278
f 420/424/5 407/410/5 412/395/5
f 420/424/5 415/474/5 407/410/5
f 420/424/5 423/491/5 415/474/5
f 420/424/5 428/468/5 423/491/5
f 421/493/280 429/515/280 430/507/280
f 421/493/280 430/507/280 422/490/280
f 422/490/1 417/423/1 414/471/1
f 422/490/1 425/467/1 417/423/1
f 424/18/22 413/71/22 416/17/22
f 424/18/22 421/72/22 413/71/22
f 424/495/283 423/491/283 431/508/283
f 424/495/283 431/508/283 432/516/283
f 426/257/14 419/210/14 418/259/14
f 426/257/14 427/208/14 419/210/14
f 428/468/5 431/508/5 423/491/5
f 428/468/5 436/484/5 431/508/5
f 430/507/1 425/467/1 422/490/1
f 430/507/1 433/483/1 425/467/1
f 432/516/287 431/508/287 439/532/287
f 432/516/287 439/532/287 440/536/287
f 432/658/246 421/613/246 424/656/246
f 432/658/246 429/622/246 421/613/246
f 434/255/247 427/208/247 426/257/247
f 434/255/247 435/206/247 427/208/247
f 434/478/281 425/467/281 433/483/281
f 434/478/281 426/462/281 425/467/281
f 435/480/282 428/468/282 427/464/282
f 435/480/282 436/484/282 428/468/282
f 436/484/5 439/532/5 431/508/5
f 436/484/5 444/487/5 439/532/5
f 437/537/284 430/507/284 429/515/284
f 437/537/284 438/533/284 430/507/284
f 438/533/1 433/483/1 430/507/1
f 438/533/1 441/488/1 433/483/1
f 438/533/1 446/509/1 449/485/1
f 438/533/1 449/485/1 441/488/1
f 440/536/291 439/532/291 447/506/291
f 440/536/291 447/506/291 448/514/291
f 440/660/248 429/622/248 432/658/248
f 440/660/248 437/624/248 429/622/248
f 442/253/249 435/206/249 434/255/249
f 442/253/249 443/204/249 435/206/249
f 442/253/289 441/269/289 449/270/289
f 442/253/289 449/270/289 450/254/289
f 442/486/285 433/483/285 441/488/285
f 442/486/285 434/478/285 433/483/285
f 443/204/286 436/196/286 435/206/286
f 443/204/286 444/188/286 436/196/286
f 443/204/290 451/205/290 452/189/290
f 443/204/290 452/189/290 444/188/290
f 445/517/288 438/533/288 437/537/288
f 445/517/288 446/509/288 438/533/288
f 446/509/1 454/492/1 457/469/1
f 446/509/1 457/469/1 449/485/1
f 448/659/250 437/624/250 440/660/250
f 448/659/250 445/623/250 437/624/250
f 450/254/251 443/204/251 442/253/251
f 450/254/251 451/205/251 443/204/251
f 450/481/293 449/485/293 457/469/293
f 450/481/293 457/469/293 458/465/293
f 451/479/294 459/463/294 460/466/294
f 451/479/294 460/466/294 452/482/294
f 452/482/5 439/532/5 444/487/5
f 452/482/5 447/506/5 439/532/5
f 453/496/292 446/509/292 445/517/292
f 453/496/292 454/492/292 446/509/292
f 454/492/1 462/475/1 465/425/1
f 454/492/1 465/425/1 457/469/1
f 456/494/295 447/506/295 455/489/295
f 456/494/295 448/514/295 447/506/295
f 456/657/252 445/623/252 448/659/252
f 456/657/252 453/614/252 445/623/252
f 458/256/253 451/205/253 450/254/253
f 458/256/253 459/207/253 451/205/253
f 460/466/5 447/506/5 452/482/5
f 460/466/5 455/489/5 447/506/5
f 461/477/296 454/492/296 453/496/296
f 461/477/296 462/475/296 454/492/296
f 464/473/299 455/489/299 463/470/299
f 464/473/299 456/494/299 455/489/299
f 464/473/303 463/470/303 471/401/303
f 464/473/303 471/401/303 472/404/303
f 464/502/16 453/453/16 456/503/16
f 464/502/16 461/452/16 453/453/16
f 466/258/21 459/207/21 458/256/21
f 466/258/21 467/209/21 459/207/21
f 466/420/297 457/469/297 465/425/297
f 466/420/297 458/465/297 457/469/297
f 466/420/301 465/425/301 473/396/301
f 466/420/301 473/396/301 474/393/301
f 467/417/298 460/466/298 459/463/298
f 467/417/298 468/422/298 460/466/298
f 468/422/5 455/489/5 460/466/5
f 468/422/5 463/470/5 455/489/5
f 469/413/300 462/475/300 461/477/300
f 469/413/300 470/411/300 462/475/300
f 469/413/304 477/387/304 479/386/304
f 469/413/304 479/386/304 470/411/304
f 470/411/1 465/425/1 462/475/1
f 470/411/1 473/396/1 465/425/1
f 470/411/1 479/386/1 485/384/1
f 470/411/1 485/384/1 473/396/1
f 472/499/254 461/452/254 464/502/254
f 472/499/254 469/443/254 461/452/254
f 472/499/307 471/504/307 482/505/307
f 472/499/307 482/505/307 481/500/307
f 474/573/255 467/586/255 466/587/255
f 474/573/255 475/572/255 467/586/255
f 474/573/305 473/574/305 485/557/305
f 474/573/305 485/557/305 484/545/305
f 475/390/302 468/422/302 467/417/302
f 475/390/302 476/391/302 468/422/302
f 475/390/306 486/382/306 488/379/306
f 475/390/306 488/379/306 476/391/306
f 476/391/5 463/470/5 468/422/5
f 476/391/5 471/401/5 463/470/5
f 477/387/262 478/371/262 479/386/262
f 478/451/308 477/444/308 481/500/308
f 478/451/308 481/500/308 480/501/308
f 480/501/263 481/500/263 482/505/263
f 481/500/256 469/443/256 472/499/256
f 481/500/256 477/444/256 469/443/256
f 483/235/24 479/199/24 478/195/24
f 483/235/24 485/239/24 479/199/24
f 483/235/264 484/241/264 485/239/264
f 484/545/257 475/572/257 474/573/257
f 484/545/257 486/544/257 475/572/257
f 486/240/265 487/234/265 488/238/265
f 487/234/18 480/194/18 482/198/18
f 487/234/18 482/198/18 488/238/18
f 487/234/26 478/195/26 480/194/26
f 487/234/26 483/235/26 478/195/26
f 487/234/309 484/241/309 483/235/309
f 487/234/309 486/240/309 484/241/309
f 488/379/5 471/401/5 476/391/5
f 488/379/5 482/372/5 471/401/5
f 563/593/336 564/605/336 566/606/336
f 563/593/336 566/606/336 565/612/336
f 564/1011/3 568/1010/3 566/1009/3
f 564/1011/3 570/1012/3 568/1010/3
f 565/575/337 566/578/337 568/579/337
f 565/575/337 568/579/337 567/585/337
f 565/720/26 567/721/26 569/698/26
f 565/720/26 569/698/26 563/697/26
f 567/633/338 568/636/338 570/637/338
f 567/633/338 570/637/338 569/641/338
f 569/547/339 564/563/339 563/564/339
f 569/547/339 570/562/339 564/563/339
f 73/455/55 75/446/55 80/445/55
f 73/455/55 80/445/55 79/454/55
f 73/699/47 74/703/47 75/705/47
f 76/215/48 77/223/48 78/216/48
f 76/779/56 75/705/56 74/703/56
f 76/779/56 78/781/56 75/705/56
f 77/784/66 76/779/66 89/780/66
f 77/784/66 89/780/66 88/791/66
f 78/1055/45 80/967/45 75/968/45
f 78/1055/45 84/1054/45 80/967/45
f 79/955/49 80/967/49 81/969/49
f 81/969/58 80/967/58 84/1054/58
f 81/969/58 84/1054/58 83/1056/58
f 82/1061/50 83/1056/50 84/1054/50
f 82/1061/57 78/1055/57 77/1062/57
f 82/1061/57 84/1054/57 78/1055/57
f 83/1176/46 92/1132/46 81/1133/46
f 83/1176/46 96/1175/46 92/1132/46
f 85/521/51 86/535/51 87/523/51
f 85/521/65 74/459/65 73/455/65
f 85/521/65 87/523/65 74/459/65
f 87/966/64 86/961/64 90/1049/64
f 87/966/64 90/1049/64 89/1051/64
f 88/1059/52 89/1051/52 90/1049/52
f 88/1059/63 90/1049/63 95/1050/63
f 88/1059/63 95/1050/63 94/1060/63
f 89/780/43 74/703/43 87/704/43
f 89/780/43 76/779/43 74/703/43
f 91/520/26 73/455/26 79/454/26
f 91/520/26 85/521/26 73/455/26
f 91/520/53 92/522/53 93/534/53
f 91/520/59 79/454/59 81/458/59
f 91/520/59 81/458/59 92/522/59
f 91/520/62 86/535/62 85/521/62
f 91/520/62 93/534/62 86/535/62
f 93/1134/61 92/1132/61 96/1175/61
f 93/1134/61 96/1175/61 95/1177/61
f 94/1190/54 95/1177/54 96/1175/54
f 94/1190/60 83/1176/60 82/1191/60
f 94/1190/60 96/1175/60 83/1176/60
f 94/82/3 77/101/3 88/83/3
f 94/82/3 82/100/3 77/101/3
f 95/1050/44 86/961/44 93/965/44
f 95/1050/44 90/1049/44 86/961/44
f 97/964/71 98/976/71 99/980/71
f 97/975/79 104/962/79 103/974/79
f 97/975/79 99/963/79 104/962/79
usemtl ARPG_obsidian_iron
f 145/1022/115 146/1024/115 147/1027/115
f 145/802/14 147/797/14 152/796/14
f 145/802/14 152/796/14 151/801/14
f 148/1030/15 147/1027/15 146/1024/15
f 148/1030/15 150/1033/15 147/1027/15
f 148/1030/28 149/1045/28 150/1033/28
f 149/1045/25 148/1030/25 161/1032/25
f 149/1045/25 161/1032/25 160/1047/25
f 150/911/4 152/899/4 147/898/4
f 150/911/4 156/912/4 152/899/4
f 151/801/18 153/806/18 164/917/18
f 151/801/18 164/917/18 163/915/18
f 151/889/116 152/899/116 153/901/116
f 153/901/17 152/899/17 156/912/17
f 153/901/17 156/912/17 155/914/17
f 154/441/3 149/442/3 160/363/3
f 154/441/3 160/363/3 166/362/3
f 154/930/117 155/914/117 156/912/117
f 154/930/16 150/911/16 149/929/16
f 154/930/16 156/912/16 150/911/16
f 155/1064/5 164/1039/5 153/1040/5
f 155/1064/5 168/1063/5 164/1039/5
f 157/916/24 146/807/24 145/802/24
f 157/916/24 159/918/24 146/807/24
f 157/916/29 158/932/29 159/918/29
f 159/945/23 158/942/23 162/953/23
f 159/945/23 162/953/23 161/954/23
f 160/960/118 161/954/118 162/953/118
f 160/960/22 162/953/22 167/952/22
f 160/960/22 167/952/22 166/959/22
f 161/1032/1 146/1024/1 159/1026/1
f 161/1032/1 148/1030/1 146/1024/1
f 163/915/119 164/917/119 165/931/119
f 163/915/21 158/932/21 157/916/21
f 163/915/21 165/931/21 158/932/21
f 163/915/26 145/802/26 151/801/26
f 163/915/26 157/916/26 145/802/26
f 165/1041/20 164/1039/20 168/1063/20
f 165/1041/20 168/1063/20 167/1065/20
f 166/1070/120 167/1065/120 168/1063/120
f 166/1070/19 155/1064/19 154/1071/19
f 166/1070/19 168/1063/19 155/1064/19
f 167/952/2 158/942/2 165/941/2
f 167/952/2 162/953/2 158/942/2
f 177/48/121 178/49/121 179/51/121
f 177/849/14 179/837/14 184/836/14
f 177/849/14 184/836/14 183/848/14
f 180/65/122 181/73/122 182/67/122
f 180/65/15 179/51/15 178/49/15
f 180/65/15 182/67/15 179/51/15
f 181/73/25 180/65/25 193/66/25
f 181/73/25 193/66/25 192/74/25
f 182/141/4 184/138/4 179/137/4
f 182/141/4 188/142/4 184/138/4
f 183/136/123 184/138/123 185/139/123
f 183/848/18 185/850/18 196/995/18
f 183/848/18 196/995/18 195/993/18
f 185/139/17 184/138/17 188/142/17
f 185/139/17 188/142/17 187/143/17
f 186/1018/3 181/1019/3 192/866/3
f 186/1018/3 192/866/3 198/865/3
f 186/148/124 187/143/124 188/142/124
f 186/148/16 182/141/16 181/147/16
f 186/148/16 188/142/16 182/141/16
f 187/1093/5 196/1074/5 185/1077/5
f 187/1093/5 200/1092/5 196/1074/5
f 189/994/125 190/1000/125 191/996/125
f 189/994/24 178/851/24 177/849/24
f 189/994/24 191/996/24 178/851/24
f 191/33/23 190/32/23 194/42/23
f 191/33/23 194/42/23 193/43/23
f 192/45/126 193/43/126 194/42/126
f 192/45/22 194/42/22 199/41/22
f 192/45/22 199/41/22 198/44/22
f 193/66/1 178/49/1 191/50/1
f 193/66/1 180/65/1 178/49/1
f 195/993/127 196/995/127 197/999/127
f 195/993/21 190/1000/21 189/994/21
f 195/993/21 197/999/21 190/1000/21
f 195/993/26 177/849/26 183/848/26
f 195/993/26 189/994/26 177/849/26
f 197/1078/20 196/1074/20 200/1092/20
f 197/1078/20 200/1092/20 199/1094/20
f 198/1097/128 199/1094/128 200/1092/128
f 198/1097/19 187/1093/19 186/1100/19
f 198/1097/19 200/1092/19 187/1093/19
f 199/41/2 190/32/2 197/31/2
f 199/41/2 194/42/2 190/32/2
f 305/1023/27 306/1025/27 307/1029/27
f 305/89/14 307/81/14 312/80/14
f 305/89/14 312/80/14 311/88/14
f 308/1031/15 307/1029/15 306/1025/15
f 308/1031/15 310/1035/15 307/1029/15
f 308/1031/215 309/1046/215 310/1035/215
f 309/1046/25 308/1031/25 321/1034/25
f 309/1046/25 321/1034/25 320/1048/25
f 310/169/4 312/156/4 307/155/4
f 310/169/4 316/170/4 312/156/4
f 311/152/216 312/156/216 313/161/216
f 311/88/18 313/90/18 324/110/18
f 311/88/18 324/110/18 323/108/18
f 313/161/17 312/156/17 316/170/17
f 313/161/17 316/170/17 315/171/17
f 314/1020/3 309/1021/3 320/881/3
f 314/1020/3 320/881/3 326/880/3
f 314/179/16 310/169/16 309/178/16
f 314/179/16 316/170/16 310/169/16
f 314/179/217 315/171/217 316/170/217
f 315/1110/5 324/1086/5 313/1087/5
f 315/1110/5 328/1109/5 324/1086/5
f 317/109/218 318/113/218 319/111/218
f 317/109/24 306/91/24 305/89/24
f 317/109/24 319/111/24 306/91/24
f 319/767/23 318/765/23 322/778/23
f 319/767/23 322/778/23 321/782/23
f 320/788/201 321/782/201 322/778/201
f 320/788/22 322/778/22 327/777/22
f 320/788/22 327/777/22 326/787/22
f 321/1034/1 306/1025/1 319/1028/1
f 321/1034/1 308/1031/1 306/1025/1
f 323/108/21 318/113/21 317/109/21
f 323/108/21 325/112/21 318/113/21
f 323/108/219 324/110/219 325/112/219
f 323/108/26 305/89/26 311/88/26
f 323/108/26 317/109/26 305/89/26
f 325/1088/20 324/1086/20 328/1109/20
f 325/1088/20 328/1109/20 327/1111/20
f 326/1118/19 315/1110/19 314/1119/19
f 326/1118/19 328/1109/19 315/1110/19
f 326/1118/220 327/1111/220 328/1109/220
f 327/777/2 318/765/2 325/764/2
f 327/777/2 322/778/2 318/765/2
f 337/201/14 339/191/14 344/190/14
f 337/201/14 344/190/14 343/200/14
f 337/311/121 338/316/121 339/318/121
f 340/319/15 339/318/15 338/316/15
f 340/319/15 342/321/15 339/318/15
f 340/319/221 341/323/221 342/321/221
f 341/323/25 340/319/25 353/320/25
f 341/323/25 353/320/25 352/324/25
f 342/909/4 344/897/4 339/896/4
f 342/909/4 348/910/4 344/897/4
f 343/200/18 345/202/18 356/281/18
f 343/200/18 356/281/18 355/279/18
f 343/886/123 344/897/123 345/900/123
f 345/900/17 344/897/17 348/910/17
f 345/900/17 348/910/17 347/913/17
f 346/1016/3 341/1017/3 352/864/3
f 346/1016/3 352/864/3 358/863/3
f 346/928/16 342/909/16 341/927/16
f 346/928/16 348/910/16 342/909/16
f 346/928/222 347/913/222 348/910/222
f 347/1098/5 356/1083/5 345/1084/5
f 347/1098/5 360/1096/5 356/1083/5
f 349/280/125 350/290/125 351/282/125
f 349/280/24 338/203/24 337/201/24
f 349/280/24 351/282/24 338/203/24
f 351/13/23 350/8/23 354/25/23
f 351/13/23 354/25/23 353/26/23
f 352/28/22 354/25/22 359/24/22
f 352/28/22 359/24/22 358/27/22
f 352/28/223 353/26/223 354/25/223
f 353/320/1 338/316/1 351/317/1
f 353/320/1 340/319/1 338/316/1
f 355/279/127 356/281/127 357/289/127
f 355/279/21 350/290/21 349/280/21
f 355/279/21 357/289/21 350/290/21
f 355/279/26 337/201/26 343/200/26
f 355/279/26 349/280/26 337/201/26
f 357/1085/20 356/1083/20 360/1096/20
f 357/1085/20 360/1096/20 359/1099/20
f 358/1116/19 347/1098/19 346/1117/19
f 358/1116/19 360/1096/19 347/1098/19
f 358/1116/202 359/1099/202 360/1096/202
f 359/24/2 350/8/2 357/7/2
f 359/24/2 354/25/2 350/8/2
usemtl ARPG_arcane
f 170/130/4 171/135/4 169/131/4
f 170/130/4 172/134/4 171/135/4
f 172/1312/5 175/1288/5 171/1289/5
f 172/1312/5 176/1311/5 175/1288/5
f 172/529/3 170/527/3 174/526/3
f 172/529/3 174/526/3 176/528/3
f 174/925/1 169/903/1 173/905/1
f 174/925/1 170/923/1 169/903/1
f 175/1300/26 169/1310/26 171/1301/26
f 175/1300/26 173/1309/26 169/1310/26
f 176/842/2 173/847/2 175/843/2
f 176/842/2 174/846/2 173/847/2
f 202/747/4 203/752/4 201/748/4
f 202/747/4 204/751/4 203/752/4
f 204/433/3 202/427/3 206/426/3
f 204/433/3 206/426/3 208/432/3
f 204/926/5 207/904/5 203/906/5
f 204/926/5 208/924/5 207/904/5
f 206/38/1 201/35/1 205/36/1
f 206/38/1 202/37/1 201/35/1
f 207/1298/26 201/1308/26 203/1299/26
f 207/1298/26 205/1307/26 201/1308/26
f 208/887/2 205/893/2 207/888/2
f 208/887/2 206/892/2 205/893/2
f 330/890/4 331/895/4 329/891/4
f 330/890/4 332/894/4 331/895/4
f 332/1314/5 335/1290/5 331/1291/5
f 332/1314/5 336/1313/5 335/1290/5
f 332/680/3 330/674/3 334/673/3
f 332/680/3 334/673/3 336/679/3
f 334/64/1 329/53/1 333/55/1
f 334/64/1 330/62/1 329/53/1
f 335/1292/26 329/1295/26 331/1293/26
f 335/1292/26 333/1294/26 329/1295/26
f 336/213/2 333/218/2 335/214/2
f 336/213/2 334/217/2 333/218/2
f 362/933/4 363/938/4 361/934/4
f 362/933/4 364/937/4 363/938/4
f 364/168/5 367/159/5 363/160/5
f 364/168/5 368/167/5 367/159/5
f 364/435/3 362/429/3 366/428/3
f 364/435/3 366/428/3 368/434/3
f 366/63/1 361/52/1 365/54/1
f 366/63/1 362/61/1 361/52/1
f 367/524/26 361/531/26 363/525/26
f 367/524/26 365/530/26 361/531/26
f 368/840/2 365/845/2 367/841/2
f 368/840/2 366/844/2 365/845/2
f 491/1153/26 490/1162/26 489/1163/26
f 491/1153/26 492/1152/26 490/1162/26
f 492/670/5 494/732/5 490/669/5
f 492/670/5 496/726/5 494/732/5
f 493/581/1 491/554/1 489/553/1
f 493/581/1 495/577/1 491/554/1
f 494/115/242 489/177/242 490/117/242
f 494/115/242 493/175/242 489/177/242
f 495/1101/243 492/1168/243 491/1102/243
f 495/1101/243 496/1167/243 492/1168/243
f 497/611/1 495/577/1 493/581/1
f 497/611/1 499/608/1 495/577/1
f 497/611/1 501/640/1 503/635/1
f 497/611/1 503/635/1 499/608/1
f 498/114/244 493/175/244 494/115/244
f 498/114/244 497/174/244 493/175/244
f 499/1095/245 496/1167/245 495/1101/245
f 499/1095/245 500/1166/245 496/1167/245
f 500/766/5 494/732/5 496/726/5
f 500/766/5 498/769/5 494/732/5
f 501/640/1 505/648/1 507/643/1
f 501/640/1 507/643/1 503/635/1
f 502/116/22 497/174/22 498/114/22
f 502/116/22 501/176/22 497/174/22
f 503/601/14 500/555/14 499/603/14
f 503/601/14 504/551/14 500/555/14
f 504/812/5 498/769/5 500/766/5
f 504/812/5 502/824/5 498/769/5
f 506/438/246 501/374/246 502/436/246
f 506/438/246 505/376/246 501/374/246
f 507/599/247 504/551/247 503/601/247
f 507/599/247 508/549/247 504/551/247
f 508/832/5 502/824/5 504/812/5
f 508/832/5 506/838/5 502/824/5
f 509/649/1 507/643/1 505/648/1
f 509/649/1 511/646/1 507/643/1
f 510/440/248 505/376/248 506/438/248
f 510/440/248 509/378/248 505/376/248
f 511/598/249 508/549/249 507/599/249
f 511/598/249 512/540/249 508/549/249
f 512/834/5 506/838/5 508/832/5
f 512/834/5 510/856/5 506/838/5
f 513/647/1 511/646/1 509/649/1
f 513/647/1 515/642/1 511/646/1
f 514/439/250 509/378/250 510/440/250
f 514/439/250 513/377/250 509/378/250
f 515/600/251 512/540/251 511/598/251
f 515/600/251 516/550/251 512/540/251
f 516/833/5 510/856/5 512/834/5
f 516/833/5 514/839/5 510/856/5
f 516/833/5 518/825/5 514/839/5
f 516/833/5 520/813/5 518/825/5
f 517/639/1 515/642/1 513/647/1
f 517/639/1 519/634/1 515/642/1
f 518/437/252 513/377/252 514/439/252
f 518/437/252 517/375/252 513/377/252
f 519/602/253 516/550/253 515/600/253
f 519/602/253 520/552/253 516/550/253
f 520/813/5 522/770/5 518/825/5
f 520/813/5 524/768/5 522/770/5
f 521/610/1 519/634/1 517/639/1
f 521/610/1 523/607/1 519/634/1
f 522/96/16 517/86/16 518/98/16
f 522/96/16 521/78/16 517/86/16
f 523/604/21 520/552/21 519/602/21
f 523/604/21 524/556/21 520/552/21
f 525/580/1 523/607/1 521/610/1
f 525/580/1 527/576/1 523/607/1
f 525/580/1 529/546/1 531/548/1
f 525/580/1 531/548/1 527/576/1
f 526/97/254 521/78/254 522/96/254
f 526/97/254 525/79/254 521/78/254
f 527/1158/255 524/1089/255 523/1157/255
f 527/1158/255 528/1090/255 524/1089/255
f 528/727/5 522/770/5 524/768/5
f 528/727/5 526/733/5 522/770/5
f 530/99/256 525/79/256 526/97/256
f 530/99/256 529/87/256 525/79/256
f 531/1159/257 528/1090/257 527/1158/257
f 531/1159/257 532/1091/257 528/1090/257
f 532/172/26 529/158/26 530/157/26
f 532/172/26 531/173/26 529/158/26
f 532/671/5 526/733/5 528/727/5
f 532/671/5 530/672/5 526/733/5
f 572/4/1 573/3/1 574/23/1
f 572/4/1 574/23/1 576/47/1
f 572/4/1 576/47/1 580/127/1
f 574/23/1 575/30/1 576/47/1
f 576/47/1 577/77/1 578/92/1
f 576/47/1 578/92/1 580/127/1
f 578/92/1 579/95/1 580/127/1
f 580/127/1 581/140/1 582/151/1
f 580/127/1 582/151/1 572/4/1
f 582/151/1 583/153/1 572/4/1
f 583/153/1 571/154/1 572/4/1
f 584/539/5 596/538/5 595/561/5
f 584/774/26 572/785/26 571/786/26
f 584/774/26 585/773/26 572/785/26
f 585/230/2 573/232/2 572/237/2
f 585/230/2 586/227/2 573/232/2
f 585/759/5 584/539/5 595/561/5
f 586/227/242 574/231/242 573/232/242
f 586/227/242 587/226/242 574/231/242
f 587/226/244 575/233/244 574/231/244
f 587/226/244 588/228/244 575/233/244
f 587/753/5 585/759/5 595/561/5
f 587/753/5 586/758/5 585/759/5
f 588/228/22 576/236/22 575/233/22
f 588/228/22 589/229/22 576/236/22
f 589/692/246 577/685/246 576/681/246
f 589/692/246 590/694/246 577/685/246
f 589/702/5 588/740/5 587/753/5
f 590/694/248 578/687/248 577/685/248
f 590/694/248 591/696/248 578/687/248
f 591/638/5 589/702/5 587/753/5
f 591/638/5 590/655/5 589/702/5
f 591/696/250 579/686/250 578/687/250
f 591/696/250 592/695/250 579/686/250
f 592/695/252 580/682/252 579/686/252
f 592/695/252 593/693/252 580/682/252
f 593/267/16 581/250/16 580/251/16
f 593/267/16 594/264/16 581/250/16
f 593/582/5 592/609/5 591/638/5
f 594/264/254 582/248/254 581/250/254
f 594/264/254 595/262/254 582/248/254
f 595/262/256 583/249/256 582/248/256
f 595/262/256 596/263/256 583/249/256
f 595/561/5 591/638/5 587/753/5
f 595/561/5 593/582/5 591/638/5
f 595/561/5 594/565/5 593/582/5
f 596/263/4 571/252/4 583/249/4
f 596/263/4 584/268/4 571/252/4
