# Blender 4.0.2
# www.blender.org
mtllib spike_trap_lod1.mtl
o spike_trap_lod1
v 0.880000 0.010000 -0.880000
v 0.880000 0.070000 -0.880000
v 0.880000 0.010000 0.880000
v 0.880000 0.070000 0.880000
v -0.880000 0.010000 -0.880000
v -0.880000 0.070000 -0.880000
v -0.880000 0.010000 0.880000
v -0.880000 0.070000 0.880000
v 0.982500 0.012500 0.852500
v 0.988462 0.123846 0.856154
v 0.988462 0.016154 0.983846
v 0.982500 0.127500 0.987500
v -0.988462 0.016154 0.856154
v -0.982500 0.127500 0.852500
v -0.982500 0.012500 0.987500
v -0.988462 0.123846 0.983846
v 0.570000 0.142833 0.895000
v 0.570000 0.146167 0.945000
v 0.270000 0.146167 0.895000
v 0.270000 0.142833 0.945000
v -0.270000 0.142833 0.895000
v -0.270000 0.146167 0.945000
v -0.570000 0.146167 0.895000
v -0.570000 0.142833 0.945000
v 0.982500 0.012500 -0.987500
v 0.988462 0.123846 -0.983846
v 0.988462 0.016154 -0.856154
v 0.982500 0.127500 -0.852500
v -0.988462 0.016154 -0.983846
v -0.982500 0.127500 -0.987500
v -0.982500 0.012500 -0.852500
v -0.988462 0.123846 -0.856154
v 0.570000 0.142833 -0.945000
v 0.570000 0.146167 -0.895000
v 0.270000 0.146167 -0.945000
v 0.270000 0.142833 -0.895000
v -0.270000 0.142833 -0.945000
v -0.270000 0.146167 -0.895000
v -0.570000 0.146167 -0.945000
v -0.570000 0.142833 -0.895000
v -0.857500 0.012500 -0.827500
v -0.851538 0.123846 -0.823846
v -0.851538 0.016154 0.823846
v -0.857500 0.127500 0.827500
v -0.988462 0.016154 -0.823846
v -0.982500 0.127500 -0.827500
v -0.982500 0.012500 0.827500
v -0.988462 0.123846 0.823846
v -0.945000 0.144500 -0.570000
v -0.895000 0.139500 -0.570000
v -0.895000 0.149500 -0.570000
v -0.945000 0.144500 -0.270000
v -0.895000 0.144500 -0.270000
v -0.945000 0.144500 0.270000
v -0.895000 0.144500 0.270000
v -0.945000 0.139500 0.570000
v -0.945000 0.149500 0.570000
v -0.895000 0.144500 0.570000
v 0.982500 0.012500 -0.827500
v 0.988462 0.123846 -0.823846
v 0.988462 0.016154 0.823846
v 0.982500 0.127500 0.827500
v 0.851538 0.016154 -0.823846
v 0.857500 0.127500 -0.827500
v 0.857500 0.012500 0.827500
v 0.851538 0.123846 0.823846
v 0.895000 0.144500 -0.570000
v 0.945000 0.139500 -0.570000
v 0.945000 0.149500 -0.570000
v 0.895000 0.144500 -0.270000
v 0.945000 0.144500 -0.270000
v 0.895000 0.144500 0.270000
v 0.945000 0.139500 0.270000
v 0.945000 0.149500 0.270000
v 0.895000 0.144500 0.570000
v 0.945000 0.144500 0.570000
v -0.038738 0.058803 0.042233
v -0.810059 0.056527 0.042102
v -0.470576 0.052484 0.391941
v -0.045342 0.054462 0.808126
v -0.055017 0.089458 0.828220
v -0.042233 0.125210 0.038738
v -0.828198 0.094568 0.055264
v -0.808086 0.129632 0.045485
v -0.445822 0.129045 0.420800
v -0.041928 0.127429 0.810006
v -0.182124 0.046007 0.790000
v -0.447505 0.048409 0.493549
v -0.790000 0.046007 0.178241
v -0.812851 0.084340 0.124860
v -0.789077 0.086007 0.824000
v -0.790000 0.046007 0.790000
v -0.125407 0.087634 0.813044
v -0.185460 0.127724 0.787164
v -0.417874 0.088968 0.528090
v -0.498867 0.124439 0.432868
v -0.790000 0.126007 0.178241
v -0.790000 0.126007 0.790000
v -0.824000 0.086007 0.789077
v 0.799428 0.080568 0.032114
v 0.060000 0.057284 0.060000
v 0.026842 0.095705 0.060081
v 0.050572 0.080568 0.817886
v 0.823158 0.095705 0.789919
v 0.790000 0.057284 0.790000
v 0.823158 0.098863 0.060081
v 0.790000 0.137284 0.060000
v 0.050572 0.114001 0.032114
v 0.060000 0.137284 0.790000
v 0.026842 0.098863 0.789919
v 0.799428 0.114001 0.817886
v 0.811262 0.059531 -0.807767
v 0.039941 0.057256 -0.807898
v 0.021802 0.095297 -0.794736
v 0.381084 0.053215 -0.456395
v 0.804658 0.055191 -0.041875
v 0.807767 0.125939 -0.811262
v 0.041914 0.130361 -0.804515
v 0.403588 0.129781 -0.429798
v 0.794983 0.090187 -0.021780
v 0.808072 0.128158 -0.039994
v 0.667876 0.046735 -0.060000
v 0.724593 0.088363 -0.036956
v 0.408184 0.048848 -0.349172
v 0.060000 0.046735 -0.671759
v 0.037149 0.085069 -0.725140
v 0.060923 0.086735 -0.026000
v 0.060000 0.046735 -0.060000
v 0.667876 0.126735 -0.060000
v 0.465299 0.090758 -0.289367
v 0.361251 0.124120 -0.404482
v 0.060000 0.126735 -0.671759
v 0.060000 0.126735 -0.060000
v 0.026000 0.086735 -0.060923
v -0.050572 0.080243 -0.817886
v -0.790000 0.056959 -0.790000
v -0.823158 0.095380 -0.789919
v -0.799428 0.080243 -0.032114
v -0.026842 0.095380 -0.060081
v -0.060000 0.056959 -0.060000
v -0.026842 0.098538 -0.789919
v -0.060000 0.136959 -0.790000
v -0.799428 0.113676 -0.817886
v -0.790000 0.136959 -0.060000
v -0.823158 0.098538 -0.060081
v -0.050572 0.113676 -0.032114
v -0.047552 0.022939 0.027481
v -0.021810 0.182651 0.030789
v -0.034653 0.020064 -0.044964
v -0.032549 0.180487 -0.028454
v 0.047552 0.017061 -0.027481
v 0.028621 0.177728 -0.044510
v 0.027269 0.020939 0.047085
v 0.045398 0.179032 0.016514
v 0.020358 0.526234 -0.018917
v -0.038421 0.171954 -0.005611
v 0.023657 0.168129 -0.048477
v 0.030413 0.170915 0.036485
v -0.056258 0.018647 -0.612582
v -0.035625 0.181615 -0.598543
v -0.045989 0.175241 -0.657553
v 0.029929 0.016843 -0.671345
v 0.015244 0.176650 -0.673560
v 0.026969 0.025955 -0.573110
v 0.031683 0.182999 -0.612755
v -0.035149 0.172012 -0.597687
v -0.019192 0.446949 -0.660662
v -0.028779 0.164928 -0.672595
v 0.041731 0.172509 -0.634317
v 0.018233 0.179534 -0.176471
v -0.056261 0.019278 -0.227478
v -0.042984 0.178186 -0.192528
v 0.027160 0.022375 -0.267101
v -0.032400 0.180683 -0.251786
v 0.034898 0.181557 -0.237506
v 0.029772 0.019629 -0.168476
v -0.052326 0.169866 -0.215290
v 0.018401 0.172058 -0.253815
v -0.010528 0.436338 -0.207022
v 0.024494 0.170113 -0.178587
v -0.027498 0.018019 0.266913
v 0.013967 0.173922 0.281138
v -0.047182 0.027107 0.192644
v -0.031370 0.183672 0.230313
v 0.022078 0.023855 0.167851
v 0.014799 0.183095 0.191611
v 0.047182 0.012893 0.247356
v 0.058748 0.174783 0.236405
v -0.008986 0.167110 0.273720
v 0.042800 0.491671 0.268725
v -0.014330 0.175341 0.198813
v 0.061960 0.165200 0.235453
v 0.043520 0.175127 0.663481
v -0.054146 0.025476 0.620009
v -0.032993 0.184129 0.626711
v 0.029869 0.019752 0.568531
v 0.037783 0.178867 0.588188
v 0.021371 0.016188 0.672446
v 0.014295 0.167293 0.671239
v 0.038985 0.421697 0.636908
v -0.031213 0.174043 0.632424
v 0.014659 0.171043 0.581318
v 0.060251 0.165166 0.632424
v 0.590626 0.025556 0.051455
v 0.652168 0.179983 0.035351
v 0.598248 0.019763 -0.052439
v 0.589994 0.183394 -0.007526
v 0.674227 0.015490 -0.000017
v 0.658418 0.175340 -0.049653
v 0.656347 0.424061 -0.019077
v 0.585227 0.174833 -0.007105
v 0.655448 0.165869 -0.045538
v 0.661803 0.169103 0.029613
v 0.222520 0.183336 0.034554
v 0.160703 0.015104 -0.000033
v 0.160783 0.175173 -0.008311
v 0.247300 0.020316 -0.047079
v 0.229550 0.179492 -0.050428
v 0.254227 0.025893 0.044903
v 0.167153 0.166685 0.014689
v 0.180250 0.445427 -0.022195
v 0.178018 0.165467 -0.044496
v 0.244975 0.171612 -0.030251
v 0.227943 0.173868 0.030623
v -0.219877 0.018361 0.054975
v -0.274288 0.016292 0.000011
v -0.254103 0.176888 0.043332
v -0.270885 0.177233 -0.017707
v -0.220123 0.021639 -0.054975
v -0.165767 0.024440 0.000011
v -0.203825 0.182984 -0.031996
v -0.193061 0.181727 0.027273
v -0.253355 0.167249 0.043000
v -0.270137 0.167265 -0.018006
v -0.203148 0.173425 -0.032231
v -0.256504 0.506219 0.014582
v -0.192313 0.171759 0.026974
v -0.606233 0.180513 0.043876
v -0.679494 0.019181 0.000004
v -0.668446 0.179081 0.000944
v -0.592809 0.021166 -0.047129
v -0.599604 0.181111 -0.041223
v -0.585385 0.020936 0.044983
v -0.623677 0.169687 0.045883
v -0.668161 0.169321 0.000887
v -0.623690 0.170217 -0.044115
v -0.631115 0.472429 0.002667
v -0.579229 0.171505 0.000887
v -0.463924 0.173417 0.572934
v -0.554178 0.025122 0.520025
v -0.524801 0.180146 0.556922
v -0.477981 0.023277 0.467787
v -0.503068 0.184448 0.491780
v -0.446805 0.177267 0.512108
v -0.470744 0.013074 0.571362
v -0.532496 0.172880 0.539760
v -0.462067 0.171429 0.491801
v -0.464811 0.163668 0.572015
v -0.458182 0.487486 0.562755
v 0.499504 0.024182 -0.465161
v 0.480790 0.181840 -0.487385
v 0.444008 0.014401 -0.512562
v 0.435496 0.172904 -0.538397
v 0.500496 0.015818 -0.574838
v 0.481603 0.174996 -0.577120
v 0.555882 0.026524 -0.527510
v 0.526808 0.184689 -0.526167
v 0.481966 0.171939 -0.486619
v 0.436591 0.164155 -0.525425
v 0.482778 0.165095 -0.576355
v 0.526507 0.174133 -0.531515
v 0.447472 0.462546 -0.554228
v -0.577102 0.017554 -0.402872
v -0.590731 0.177240 -0.408113
v -0.579629 0.017236 -0.501540
v -0.588617 0.176975 -0.488831
v -0.494086 0.026265 -0.442505
v -0.520694 0.184162 -0.456403
v -0.611198 0.165365 -0.456372
v -0.543348 0.171850 -0.488770
v -0.592356 0.429556 -0.450692
v -0.541380 0.172695 -0.408196
v 0.428337 0.018554 0.602452
v 0.423792 0.179062 0.593143
v 0.415404 0.022600 0.505067
v 0.434457 0.182088 0.513465
v 0.506273 0.019896 0.542523
v 0.498171 0.179287 0.562498
v 0.451979 0.168080 0.600924
v 0.455915 0.462611 0.567602
v 0.407561 0.171096 0.555985
v 0.452027 0.171656 0.510996
v 0.497959 0.170303 0.549875
v -0.866588 0.131086 0.971892
v -0.972652 0.131022 0.972652
v -0.919865 0.358464 0.957388
v -0.973412 0.148914 0.868108
v -0.867348 0.148978 0.867348
v 0.971892 0.131086 0.973412
v 0.867348 0.148978 0.972652
v 0.868108 0.148914 0.866588
v 0.957388 0.358464 0.920135
v 0.972652 0.131022 0.867348
v 0.973412 0.148914 -0.868108
v 0.867348 0.148978 -0.867348
v 0.866588 0.131086 -0.971892
v 0.972652 0.131022 -0.972652
v 0.919865 0.358464 -0.957388
v -0.868108 0.148914 -0.866588
v -0.972652 0.131022 -0.867348
v -0.971892 0.131086 -0.973412
v -0.957388 0.358464 -0.920135
v -0.867348 0.148978 -0.972652
vn 1.0000 -0.0000 -0.0000
vn -1.0000 -0.0000 -0.0000
vn -0.7227 -0.0267 0.6906
vn -0.6227 -0.5040 0.5985
vn -0.5980 0.5048 0.6226
vn 0.8603 -0.0533 0.5071
vn 0.7033 -0.0879 -0.7055
vn -0.6104 -0.5048 0.6104
vn -0.6104 0.5048 0.6104
vn 0.7611 -0.0036 -0.6487
vn 0.5660 0.5147 -0.6440
vn -0.5177 -0.4453 -0.7306
vn 0.5177 -0.4453 0.7306
vn 0.5177 0.4453 -0.7306
vn -0.5177 0.4453 0.7306
vn -0.7227 -0.0275 0.6906
vn 0.8603 -0.0533 0.5070
vn 0.7059 -0.0772 -0.7041
vn 0.7358 -0.0380 -0.6761
vn 0.5742 0.5079 -0.6422
vn -0.2529 0.0207 0.9673
vn 0.2046 -0.0793 -0.9756
vn -0.5168 0.1176 0.8480
vn -0.5645 0.0627 -0.8231
vn 0.9967 0.0158 -0.0798
vn -0.4267 -0.0239 0.9041
vn -0.9954 0.0376 -0.0882
vn 0.4752 0.0211 -0.8796
vn 0.4222 0.1790 0.8886
vn -0.4257 -0.0729 -0.9019
vn -0.4309 0.0396 0.9015
vn -0.4783 0.1021 -0.8723
vn 0.9895 0.1220 -0.0770
vn -0.9650 0.0349 0.2600
vn 0.9463 -0.0886 -0.3110
vn -0.9835 0.1583 0.0876
vn 0.4425 0.1166 -0.8891
vn 0.4725 -0.0619 0.8791
vn -0.0934 -0.9948 -0.0418
vn -0.6260 0.1636 0.7624
vn -0.7203 0.2161 -0.6592
vn 0.7484 0.0736 -0.6592
vn 0.6458 0.0402 0.7624
vn -0.9970 -0.0307 -0.0714
vn 0.5491 -0.1978 -0.8120
vn 0.5108 -0.1147 0.8520
vn -0.4168 0.1619 0.8945
vn -0.4691 0.0917 -0.8784
vn 0.9964 0.0052 -0.0845
vn -0.2664 0.1387 0.9538
vn -0.9832 0.0223 -0.1809
vn 0.2008 0.0762 -0.9767
vn 0.9425 0.2153 0.2557
vn -0.7052 -0.1007 0.7019
vn 0.7102 0.0285 -0.7035
vn -0.9641 0.0133 0.2652
vn -0.2156 0.1020 -0.9711
vn 0.9686 0.1795 -0.1722
vn 0.2473 0.0832 0.9654
vn -0.7091 0.0825 0.7003
vn -0.7093 0.0908 -0.6991
vn 0.7039 0.1255 -0.6991
vn 0.7041 0.1173 0.7003
vn -0.5645 0.0349 -0.8247
vn -0.4261 0.0346 0.9040
vn -0.5500 0.1894 -0.8134
vn 0.9993 -0.0195 0.0323
vn -0.6564 0.0962 0.7482
vn -0.7399 -0.0379 -0.6717
vn 0.6956 0.1351 -0.7056
vn 0.6830 0.2414 0.6894
vn -0.5694 0.0229 0.8217
vn -0.4343 0.0503 -0.8994
vn 0.9814 0.1905 -0.0260
vn 0.0134 0.9991 0.0397
vn -0.0134 -0.9991 -0.0397
vn -0.7054 0.0890 0.7032
vn -0.7047 0.1446 -0.6947
vn 0.6423 0.1381 -0.7540
vn 0.7400 0.0658 0.6694
vn 0.0071 0.0653 0.9978
vn -0.9724 0.2288 0.0462
vn -0.0068 0.3934 -0.9193
vn 0.9727 0.2300 0.0323
vn 0.0323 0.2300 0.9727
vn -0.9193 0.3934 -0.0068
vn 0.0462 0.2288 -0.9724
vn 0.9978 0.0653 0.0071
vn 0.0068 0.3934 0.9193
vn -0.9727 0.2300 -0.0323
vn -0.0071 0.0653 -0.9978
vn 0.9724 0.2288 -0.0462
vn -0.0462 0.2288 0.9724
vn -0.9978 0.0653 -0.0071
vn -0.0323 0.2300 -0.9727
vn 0.9193 0.3934 0.0068
vn -0.0000 -0.0000 1.0000
vn -0.0000 -0.0000 -1.0000
vn -0.0000 -1.0000 -0.0000
vn -0.0000 1.0000 -0.0000
vn 0.0019 0.0327 -0.9995
vn -0.9977 0.0520 -0.0438
vn 0.0019 0.9996 -0.0277
vn 0.9977 0.0520 0.0438
vn -0.0019 0.0327 0.9995
vn -0.0019 -0.9996 -0.0277
vn -0.0111 -0.9977 0.0665
vn 0.0111 0.9977 0.0665
vn 0.0287 0.0312 -0.9991
vn -0.9986 0.0533 -0.0035
vn 0.0278 0.9996 0.0023
vn 0.9986 0.0533 0.0035
vn -0.0287 0.0312 0.9991
vn -0.0278 -0.9996 0.0023
vn 0.0995 -0.9949 -0.0166
vn 0.0995 0.9949 -0.0166
vn 0.0030 -0.9999 -0.0144
vn 0.0068 1.0000 -0.0029
vn -0.6877 -0.0506 0.7242
vn -0.0085 0.0465 -0.9989
vn 0.9986 0.0525 -0.0005
vn -0.5975 -0.5171 0.6129
vn -0.6149 0.5184 0.5943
vn -0.5105 0.0535 -0.8582
vn -0.0000 -1.0000 -0.0081
vn -0.0029 1.0000 -0.0067
vn 0.0155 -0.5004 0.8657
vn 0.7450 0.0235 -0.6667
vn -0.7619 -0.6476 -0.0000
vn 0.5786 -0.5247 -0.6245
vn 0.0017 0.6477 0.7619
vn -0.8680 0.4963 -0.0158
vn -0.0303 -0.9991 0.0303
vn 0.7476 -0.0666 -0.6607
vn 0.6033 0.5055 -0.6168
vn -0.0303 0.9991 -0.0303
vn 0.7570 -0.6534 -0.0028
vn -0.7571 -0.6534 0.0028
vn -0.0198 -0.4438 -0.8959
vn 0.7570 0.6534 0.0028
vn 0.0198 -0.4438 0.8959
vn -0.7571 0.6534 -0.0028
vn -0.0198 0.4438 0.8959
vn 0.0198 0.4438 -0.8959
vn -0.6878 -0.0494 0.7242
vn -0.5974 -0.5171 0.6129
vn -0.0000 -1.0000 -0.0073
vn 0.0087 1.0000 -0.0000
vn 0.7425 -0.0597 -0.6672
vn 0.5812 -0.5224 -0.6239
vn -0.0000 0.6476 0.7619
vn 0.5988 0.5186 -0.6102
vn 0.7571 -0.6534 -0.0028
vn -0.7570 -0.6534 0.0028
vn 0.7571 0.6534 0.0028
vn -0.7570 0.6534 -0.0028
vn -0.9838 0.0311 -0.1764
vn 0.0443 0.9980 -0.0445
vn -0.2482 0.1024 -0.9633
vn 0.9603 0.0850 -0.2658
vn -0.0376 -0.9984 0.0417
vn 0.2134 0.1618 0.9635
vn -0.2519 -0.0366 -0.9670
vn -0.0369 -0.9987 0.0357
vn -0.9809 0.1104 0.1603
vn -0.0416 0.9941 -0.1001
vn 0.9596 0.0845 -0.2683
vn -0.2542 0.0300 0.9667
vn 0.1962 0.2345 0.9521
vn 0.0430 -0.9947 0.0936
vn 0.0534 -0.9937 0.0985
vn -0.0211 0.9990 0.0383
vn -0.9783 0.1191 -0.1697
vn 0.2025 0.1695 -0.9645
vn 0.9607 0.0826 0.2651
vn -0.3292 0.1246 -0.9360
vn 0.0236 -0.9993 -0.0285
vn 0.0162 -0.9995 -0.0271
vn -0.7270 0.1319 0.6738
vn 0.0832 0.9913 0.1023
vn 0.7197 0.1345 -0.6811
vn 0.7068 -0.0026 0.7075
vn -0.0933 -0.9909 -0.0965
vn -0.4201 0.1094 0.9009
vn -0.0823 -0.9913 -0.1031
vn -0.5115 0.1304 -0.8493
vn 0.9962 -0.0399 -0.0779
vn 0.0968 0.9944 0.0420
vn -0.1116 -0.9929 -0.0419
vn -0.5736 0.0426 0.8180
vn -0.5315 0.2946 0.7942
vn -0.4952 0.2066 -0.8438
vn 0.0876 0.9950 -0.0479
vn 0.9907 0.1186 0.0664
vn -0.0897 -0.9948 0.0489
vn -0.0989 -0.9938 0.0511
vn -0.5173 -0.0756 -0.8524
vn 0.9769 0.2014 0.0717
vn -0.0948 0.9941 -0.0528
vn 0.0838 -0.9958 0.0359
vn 0.0890 -0.9946 0.0536
vn -0.2188 0.1592 -0.9627
vn -0.9630 0.0495 0.2650
vn -0.0779 0.9963 0.0353
vn 0.2433 0.1232 0.9621
vn 0.9653 0.1972 -0.1711
vn 0.0748 -0.9965 -0.0366
vn 0.0687 -0.9975 -0.0192
vn -0.5682 0.0344 0.8222
vn -0.5225 0.0093 -0.8526
vn 0.9885 0.1297 0.0779
vn -0.0264 0.9996 0.0050
vn 0.0246 -0.9996 -0.0161
vn 0.0206 -0.9998 -0.0042
vn -0.2542 0.0013 0.9671
vn 0.0918 0.9911 0.0961
vn -0.9245 0.2448 -0.2923
vn 0.3550 0.1915 -0.9150
vn 0.9624 -0.0436 0.2681
vn -0.7519 0.0665 0.6559
vn -0.0869 -0.9920 -0.0916
vn -0.0878 -0.9912 -0.0989
vn -0.6384 -0.0867 -0.7648
vn 0.7274 0.1394 -0.6719
vn -0.1258 0.9891 -0.0766
vn 0.6272 0.1812 0.7575
vn 0.1258 -0.9891 0.0766
vn 0.1046 -0.9916 0.0766
vn -0.9980 -0.0582 0.0258
vn 0.4206 0.0954 -0.9022
vn 0.5488 0.1646 0.8196
vn -0.1024 0.9947 -0.0059
vn -0.9841 0.1242 -0.1270
vn 0.1046 -0.9945 0.0005
vn 0.0989 -0.9951 0.0080
vn 0.6083 0.1291 -0.7831
vn 0.3800 0.0643 0.9228
vn 0.0042 -0.9992 -0.0397
vn -0.0006 -0.9857 -0.1687
vn -0.1687 -0.9857 -0.0006
vn 0.0006 -0.9857 0.1687
vn 0.1687 -0.9857 0.0006
vn -0.0019 -0.0327 -0.9995
vn -0.9977 -0.0520 0.0438
vn -0.0019 0.9996 0.0277
vn 0.9977 -0.0520 -0.0438
vn 0.0019 -0.0327 0.9995
vn 0.0019 -0.9996 0.0277
vn 0.0111 -0.9977 -0.0665
vn -0.0111 0.9977 -0.0665
vn -0.0287 -0.0312 -0.9991
vn -0.9986 -0.0533 0.0035
vn -0.0278 0.9996 -0.0023
vn 0.9986 -0.0533 -0.0035
vn 0.0287 -0.0312 0.9991
vn 0.0278 -0.9996 -0.0023
vn -0.0995 -0.9949 0.0166
vn -0.0995 0.9949 0.0166
vn 0.0101 -0.9999 -0.0056
vn 0.0057 1.0000 -0.0040
vn 0.0003 -0.0525 -0.9986
vn 0.9989 -0.0469 0.0083
vn 0.0070 -1.0000 -0.0000
vn 0.0054 1.0000 -0.0000
vn -0.0000 -0.6476 0.7619
vn 0.6099 -0.4832 -0.6282
vn -0.8509 -0.5252 -0.0130
vn 0.0124 0.5553 0.8315
vn -0.7619 0.6476 -0.0000
vn 0.0303 -0.9991 -0.0303
vn 0.0303 0.9991 0.0303
vn 0.6225 -0.7825 -0.0163
vn -0.6225 -0.7825 0.0163
vn 0.6225 0.7825 0.0163
vn -0.6225 0.7825 -0.0163
vn 0.0061 -1.0000 -0.0000
vn -0.0000 1.0000 -0.0076
vn 0.6092 -0.4811 -0.6304
vn 0.0127 0.5285 0.8488
vn 0.7464 0.0345 -0.6646
vn -0.9733 0.1533 0.1708
vn 0.0368 0.9988 -0.0315
vn 0.9625 -0.0591 0.2649
vn -0.0433 -0.9986 0.0319
vn -0.5552 -0.1957 -0.8083
vn -0.0467 0.9947 -0.0912
vn 0.9992 -0.0219 0.0321
vn -0.5602 -0.1330 0.8176
vn -0.0286 0.9993 0.0253
vn 0.9987 -0.0434 -0.0277
vn -0.6215 0.2420 -0.7451
vn 0.0982 0.9899 0.1023
vn 0.2407 -0.1515 0.9587
vn -0.0857 -0.9903 -0.1095
vn -0.5665 0.0408 0.8231
vn -0.4700 0.0997 -0.8770
vn 0.9881 -0.1334 0.0762
vn -0.0814 -0.9958 -0.0419
vn -0.4304 -0.0274 0.9022
vn -0.4748 -0.0452 -0.8789
vn 0.9907 0.1088 -0.0812
vn 0.1003 -0.9928 0.0649
vn -0.7080 -0.0625 -0.7035
vn -0.0723 0.9971 0.0255
vn 0.7125 0.0020 0.7017
vn 0.0748 -0.9969 -0.0232
vn 0.0824 -0.9957 -0.0431
vn -0.4299 -0.0499 0.9015
vn -0.4780 0.0382 -0.8775
vn 0.9958 0.0453 -0.0801
vn 0.0246 -0.9997 0.0044
vn -0.5318 -0.0994 0.8410
vn 0.0867 0.9924 0.0872
vn 0.9810 -0.1740 -0.0857
vn -0.6522 0.0294 0.7575
vn -0.7309 -0.1479 -0.6663
vn 0.6410 0.0651 -0.7648
vn -0.1093 0.9911 -0.0766
vn 0.7331 0.1291 0.6678
vn 0.1093 -0.9911 0.0766
vn 0.1259 -0.9891 0.0766
vn -0.9960 -0.0859 -0.0258
vn 0.5662 0.0229 -0.8239
vn 0.4243 0.0659 0.9031
vn -0.9912 -0.0205 0.1308
vn 0.3812 0.0031 -0.9245
vn 0.6089 -0.0681 0.7903
vn -0.0276 -0.9988 -0.0397
vt -0.00128 0.54124
vt 0.00000 0.00000
vt 0.00000 0.43314
vt 0.00000 0.63160
vt 0.00001 0.44983
vt 0.00661 0.44672
vt 0.00685 0.19734
vt 0.00721 0.73451
vt 0.00721 0.83548
vt 0.00721 0.88789
vt 0.00721 0.93898
vt 0.00721 0.97967
vt 0.00722 0.74192
vt 0.00745 0.63458
vt 0.00834 0.95171
vt 0.01047 0.00003
vt 0.01047 0.43317
vt 0.01082 0.73821
vt 0.01273 0.53160
vt 0.01397 0.63164
vt 0.01398 0.44987
vt 0.01594 0.83548
vt 0.01594 0.88789
vt 0.01732 0.19737
vt 0.01861 0.95171
vt 0.01975 0.97967
vt 0.02024 0.90070
vt 0.02128 0.93769
vt 0.02867 0.83548
vt 0.02867 0.88789
vt 0.03256 0.34414
vt 0.03333 0.93898
vt 0.03517 0.62507
vt 0.03531 0.00178
vt 0.03557 0.97967
vt 0.03569 0.64077
vt 0.03664 0.95171
vt 0.03741 0.83548
vt 0.03741 0.88789
vt 0.04053 0.36221
vt 0.04445 0.95172
vt 0.04798 0.97967
vt 0.04915 0.95171
vt 0.04966 0.64069
vt 0.05014 0.83548
vt 0.05014 0.88789
vt 0.05014 0.90062
vt 0.05078 0.62573
vt 0.05101 0.90800
vt 0.05188 0.90069
vt 0.05450 0.36213
vt 0.05456 0.00338
vt 0.05622 0.34415
vt 0.05887 0.83548
vt 0.05887 0.88789
vt 0.07161 0.88748
vt 0.07161 0.93862
vt 0.07161 0.97934
vt 0.07235 0.62507
vt 0.07287 0.64077
vt 0.07324 0.34414
vt 0.07599 0.00178
vt 0.07656 0.83550
vt 0.07752 0.95137
vt 0.07771 0.36221
vt 0.08118 0.88736
vt 0.08331 0.97930
vt 0.08414 0.90028
vt 0.08537 0.95140
vt 0.08593 0.93761
vt 0.08598 0.81322
vt 0.08629 0.66255
vt 0.08683 0.64069
vt 0.08796 0.62573
vt 0.08967 0.74379
vt 0.08989 0.65429
vt 0.08998 0.82196
vt 0.09167 0.36213
vt 0.09524 0.00338
vt 0.09690 0.34415
vt 0.09768 0.93862
vt 0.11142 0.79861
vt 0.11142 0.93061
vt 0.11142 0.97131
vt 0.11142 0.99304
vt 0.11250 0.81641
vt 0.11287 0.94334
vt 0.11343 0.67112
vt 0.11459 0.00391
vt 0.11489 0.34602
vt 0.11494 0.65007
vt 0.11532 0.87346
vt 0.11653 0.36402
vt 0.11668 0.88641
vt 0.11778 0.79771
vt 0.11820 0.98423
vt 0.11820 0.99985
vt 0.12046 0.67141
vt 0.12077 0.80186
vt 0.12099 0.93061
vt 0.12305 0.97142
vt 0.12367 0.94340
vt 0.12375 0.87192
vt 0.12498 0.99210
vt 0.13231 0.65032
vt 0.13387 0.36709
vt 0.13414 0.34761
vt 0.13593 0.00341
vt 0.13809 0.79861
vt 0.13809 0.93045
vt 0.14010 0.67112
vt 0.14196 0.87342
vt 0.14240 0.88618
vt 0.14270 0.81634
vt 0.14445 0.79771
vt 0.14713 0.67141
vt 0.14744 0.80186
vt 0.14835 0.93032
vt 0.15088 0.87307
vt 0.15209 0.65007
vt 0.15367 0.36402
vt 0.15527 0.00391
vt 0.15557 0.34602
vt 0.16214 0.98137
vt 0.16476 0.87514
vt 0.16476 0.91617
vt 0.16476 0.95736
vt 0.16569 0.80000
vt 0.16681 0.92943
vt 0.16732 0.88853
vt 0.16813 0.66822
vt 0.16946 0.65032
vt 0.16954 0.81631
vt 0.17102 0.36709
vt 0.17131 0.80354
vt 0.17256 0.87508
vt 0.17434 0.91669
vt 0.17461 0.97286
vt 0.17461 0.98719
vt 0.17483 0.34761
vt 0.17516 0.88896
vt 0.17646 0.92959
vt 0.17652 0.66860
vt 0.17656 0.95756
vt 0.17661 0.00341
vt 0.17726 0.87514
vt 0.17730 0.79988
vt 0.17884 0.88787
vt 0.17884 0.91536
vt 0.19278 0.00005
vt 0.19278 0.30750
vt 0.19278 0.32026
vt 0.19278 0.62773
vt 0.19278 0.72129
vt 0.19278 0.72870
vt 0.19278 0.95521
vt 0.19278 0.97319
vt 0.19278 0.99172
vt 0.19433 0.82767
vt 0.19642 0.72499
vt 0.19802 0.82244
vt 0.19802 0.96045
vt 0.19807 0.95517
vt 0.21100 0.97323
vt 0.21100 0.99176
vt 0.22373 0.97323
vt 0.22373 0.99176
vt 0.24195 0.97319
vt 0.24195 0.99172
vt 0.25469 0.97322
vt 0.25469 0.99175
vt 0.27162 0.65073
vt 0.27189 0.80064
vt 0.27299 0.97319
vt 0.27299 0.99172
vt 0.27546 0.80892
vt 0.27555 0.64125
vt 0.27669 0.73496
vt 0.28572 0.97319
vt 0.28572 0.99172
vt 0.28998 0.72870
vt 0.28999 0.72129
vt 0.29363 0.72499
vt 0.30402 0.97322
vt 0.30402 0.99175
vt 0.31675 0.97999
vt 0.32553 0.82245
vt 0.32558 0.82765
vt 0.32692 0.97515
vt 0.32692 0.98694
vt 0.32924 0.95521
vt 0.33076 0.82769
vt 0.34350 0.82244
vt 0.34350 0.87485
vt 0.34350 0.92022
vt 0.34350 0.96856
vt 0.34350 0.99326
vt 0.34511 0.94060
vt 0.34597 0.98402
vt 0.35223 0.82244
vt 0.35369 0.99527
vt 0.35519 0.96872
vt 0.35604 0.94067
vt 0.35625 0.92632
vt 0.35709 0.98549
vt 0.36497 0.87485
vt 0.36777 0.88802
vt 0.36850 0.92787
vt 0.36879 0.64998
vt 0.36910 0.80064
vt 0.37180 0.94079
vt 0.37180 0.96857
vt 0.37180 0.98549
vt 0.37267 0.80892
vt 0.37276 0.64125
vt 0.37362 0.73190
vt 0.37370 0.82244
vt 0.37370 0.87485
vt 0.37614 0.99581
vt 0.37965 0.94060
vt 0.38202 0.98353
vt 0.38298 0.96852
vt 0.38322 0.94102
vt 0.38542 0.99331
vt 0.38719 0.72147
vt 0.38720 0.72888
vt 0.39080 0.72517
vt 0.39852 0.82244
vt 0.39852 0.87485
vt 0.39852 0.92043
vt 0.39852 0.96862
vt 0.39852 0.99054
vt 0.40009 0.94065
vt 0.40529 0.98158
vt 0.40529 0.99724
vt 0.40725 0.82244
vt 0.40725 0.87485
vt 0.40783 0.94084
vt 0.41107 0.96873
vt 0.41179 0.92632
vt 0.41206 0.98934
vt 0.41288 0.94065
vt 0.41998 0.82244
vt 0.41998 0.87485
vt 0.42222 0.88784
vt 0.42347 0.92792
vt 0.42872 0.82244
vt 0.42872 0.87485
vt 0.43770 0.98640
vt 0.43795 0.92865
vt 0.43829 0.88758
vt 0.43883 0.97139
vt 0.43970 0.91566
vt 0.44145 0.82244
vt 0.44145 0.87485
vt 0.44231 0.95679
vt 0.44758 0.92877
vt 0.44793 0.88775
vt 0.45017 0.95661
vt 0.45017 0.97919
vt 0.45019 0.82244
vt 0.45019 0.87485
vt 0.45019 0.91551
vt 0.46292 0.87485
vt 0.46292 0.92657
vt 0.46292 0.96726
vt 0.46292 0.98815
vt 0.46457 0.93930
vt 0.46596 0.80018
vt 0.46627 0.64951
vt 0.46916 0.73612
vt 0.46986 0.64125
vt 0.46996 0.80892
vt 0.47165 0.82244
vt 0.47165 0.87485
vt 0.47215 0.98167
vt 0.47272 0.88758
vt 0.47308 0.99398
vt 0.47483 0.93941
vt 0.47546 0.96739
vt 0.48133 0.92657
vt 0.48439 0.73190
vt 0.48439 0.87419
vt 0.49113 0.72831
vt 0.49140 0.73569
vt 0.49312 0.82178
vt 0.49312 0.87419
vt 0.49834 0.73143
vt 0.50018 0.00000
vt 0.50018 0.30746
vt 0.50020 0.32024
vt 0.50020 0.62770
vt 0.50721 0.94629
vt 0.50999 0.91859
vt 0.51008 0.96218
vt 0.51008 0.97658
vt 0.51108 0.70320
vt 0.51108 0.77535
vt 0.51207 0.71600
vt 0.51212 0.78812
vt 0.51217 0.64052
vt 0.51292 0.00007
vt 0.51292 0.30545
vt 0.51294 0.32024
vt 0.51294 0.37265
vt 0.51294 0.38538
vt 0.51294 0.43779
vt 0.51294 0.45053
vt 0.51294 0.50294
vt 0.51294 0.51568
vt 0.51294 0.56809
vt 0.51393 0.84432
vt 0.51465 0.90574
vt 0.51476 0.85719
vt 0.51950 0.91896
vt 0.52021 0.70254
vt 0.52040 0.94651
vt 0.52121 0.77444
vt 0.52167 0.32024
vt 0.52167 0.37265
vt 0.52167 0.38539
vt 0.52167 0.43780
vt 0.52167 0.45053
vt 0.52167 0.50294
vt 0.52167 0.51568
vt 0.52167 0.56809
vt 0.52250 0.84445
vt 0.52250 0.90577
vt 0.52250 0.96812
vt 0.52338 0.00000
vt 0.52338 0.30538
vt 0.53612 0.82071
vt 0.53612 0.94824
vt 0.53612 0.97098
vt 0.53741 0.70649
vt 0.53790 0.28823
vt 0.53790 0.59445
vt 0.53878 0.80043
vt 0.53951 0.00344
vt 0.53951 0.30967
vt 0.54010 0.61550
vt 0.54129 0.82078
vt 0.54134 0.95195
vt 0.54136 0.81547
vt 0.54136 0.98366
vt 0.54737 0.96800
vt 0.55261 0.98068
vt 0.55880 0.29098
vt 0.55880 0.59721
vt 0.55883 0.00178
vt 0.55883 0.30800
vt 0.56949 0.98299
vt 0.57062 0.96796
vt 0.57857 0.28826
vt 0.57857 0.59448
vt 0.58016 0.00348
vt 0.58016 0.30969
vt 0.58190 0.97587
vt 0.59464 0.97102
vt 0.59880 0.98301
vt 0.60083 0.00317
vt 0.60083 0.30939
vt 0.60134 0.29005
vt 0.60134 0.59627
vt 0.60711 0.96863
vt 0.61128 0.98062
vt 0.61748 0.00000
vt 0.61748 0.30622
vt 0.62294 0.28782
vt 0.62294 0.59404
vt 0.62401 0.97588
vt 0.63142 0.00028
vt 0.63142 0.30650
vt 0.63378 0.70885
vt 0.63530 0.96795
vt 0.63642 0.98296
vt 0.63839 0.28872
vt 0.63839 0.59494
vt 0.65461 0.00000
vt 0.65461 0.25859
vt 0.65461 0.27174
vt 0.65461 0.48704
vt 0.65461 0.76512
vt 0.65554 0.70243
vt 0.65744 0.96860
vt 0.65744 0.98297
vt 0.65833 0.45714
vt 0.65833 0.67244
vt 0.65843 0.79880
vt 0.65902 0.78332
vt 0.65950 0.47419
vt 0.65950 0.68949
vt 0.66475 0.76426
vt 0.66507 0.00041
vt 0.66507 0.25900
vt 0.66858 0.27185
vt 0.66858 0.48715
vt 0.66880 0.94832
vt 0.66884 0.81705
vt 0.66886 0.95350
vt 0.66988 0.97717
vt 0.67346 0.47430
vt 0.67346 0.68960
vt 0.67393 0.45801
vt 0.67393 0.67331
vt 0.67410 0.82073
vt 0.67410 0.94826
vt 0.67654 0.78278
vt 0.67654 0.79673
vt 0.67780 0.25864
vt 0.67957 0.20305
vt 0.67988 0.08621
vt 0.68083 0.00192
vt 0.68261 0.18800
vt 0.68743 0.25849
vt 0.69179 0.69530
vt 0.69179 0.82282
vt 0.69179 0.94237
vt 0.69179 0.96340
vt 0.69307 0.58094
vt 0.69389 0.35774
vt 0.69446 0.67502
vt 0.69461 0.89154
vt 0.69481 0.27366
vt 0.69578 0.49009
vt 0.69660 0.45974
vt 0.69697 0.69537
vt 0.69701 0.82654
vt 0.69703 0.69006
vt 0.70196 0.25519
vt 0.70239 0.90512
vt 0.70349 0.84093
vt 0.70423 0.89238
vt 0.70427 0.95751
vt 0.70427 0.97192
vt 0.70975 0.25617
vt 0.71021 0.94237
vt 0.71288 0.20312
vt 0.71338 0.25615
vt 0.72055 0.84085
vt 0.72086 0.89205
vt 0.72611 0.25602
vt 0.72945 0.89219
vt 0.73071 0.20306
vt 0.73638 0.25584
vt 0.74218 0.89215
vt 0.74218 0.94232
vt 0.74349 0.90489
vt 0.74634 0.95746
vt 0.74634 0.97187
vt 0.74681 0.84085
vt 0.75245 0.89197
vt 0.75553 0.25594
vt 0.75624 0.20305
vt 0.75783 0.94232
vt 0.75882 0.96335
vt 0.76413 0.25571
vt 0.76770 0.89199
vt 0.77196 0.84083
vt 0.77547 0.09425
vt 0.77555 0.89199
vt 0.77915 0.89184
vt 0.78785 0.09513
vt 0.78922 0.18570
vt 0.78922 0.25879
vt 0.78923 0.00392
vt 0.78946 0.36599
vt 0.78946 0.58344
vt 0.79037 0.20234
vt 0.79188 0.94073
vt 0.79276 0.84096
vt 0.79413 0.90264
vt 0.79473 0.88970
vt 0.79569 0.97440
vt 0.79583 0.00082
vt 0.79628 0.95893
vt 0.79666 0.18867
vt 0.79929 0.25771
vt 0.80194 0.08609
vt 0.80318 0.18574
vt 0.80319 0.00396
vt 0.80325 0.88804
vt 0.80736 0.94073
vt 0.80778 0.58597
vt 0.80779 0.37067
vt 0.81046 0.37700
vt 0.81046 0.59230
vt 0.81380 0.95839
vt 0.81380 0.97234
vt 0.81598 0.88949
vt 0.81599 0.09144
vt 0.81599 0.24347
vt 0.81716 0.58810
vt 0.81717 0.37280
vt 0.82067 0.18133
vt 0.82108 0.84084
vt 0.82273 0.08785
vt 0.82300 0.09522
vt 0.82373 0.88949
vt 0.82447 0.82291
vt 0.82452 0.69164
vt 0.82454 0.82808
vt 0.82626 0.24343
vt 0.82699 0.90223
vt 0.82786 0.90961
vt 0.82873 0.88914
vt 0.82873 0.90229
vt 0.82978 0.69532
vt 0.82978 0.82284
vt 0.82989 0.61981
vt 0.82989 0.67715
vt 0.82990 0.47391
vt 0.82995 0.09097
vt 0.83054 0.42178
vt 0.83084 0.40529
vt 0.83145 0.49227
vt 0.83327 0.27351
vt 0.83513 0.48704
vt 0.83513 0.62505
vt 0.83519 0.61977
vt 0.83646 0.40884
vt 0.83774 0.47337
vt 0.83878 0.94385
vt 0.83906 0.63779
vt 0.84126 0.47184
vt 0.84166 0.27389
vt 0.84169 0.98635
vt 0.84245 0.40517
vt 0.84251 0.69006
vt 0.84251 0.87404
vt 0.84251 0.93085
vt 0.84262 0.99857
vt 0.84269 0.00000
vt 0.84302 0.97152
vt 0.84355 0.80153
vt 0.84373 0.11147
vt 0.84555 0.88679
vt 0.84761 0.81782
vt 0.84776 0.23568
vt 0.84831 0.67715
vt 0.84905 0.94372
vt 0.84915 0.80504
vt 0.84933 0.11498
vt 0.84948 0.69010
vt 0.84966 0.00004
vt 0.84972 0.24227
vt 0.85036 0.93073
vt 0.85190 0.99223
vt 0.85209 0.87393
vt 0.85393 0.93085
vt 0.85393 0.97168
vt 0.85521 0.80143
vt 0.85539 0.11137
vt 0.85659 0.23843
vt 0.86042 0.45787
vt 0.86104 0.67714
vt 0.86166 0.37967
vt 0.86362 0.38627
vt 0.86803 0.81780
vt 0.86803 0.87021
vt 0.86803 0.92781
vt 0.86803 0.96851
vt 0.86832 0.39919
vt 0.86934 0.45833
vt 0.86937 0.00000
vt 0.86937 0.05241
vt 0.86937 0.63779
vt 0.86965 0.79347
vt 0.86968 0.94055
vt 0.86978 0.23115
vt 0.86981 0.18506
vt 0.87005 0.06530
vt 0.87048 0.38243
vt 0.87142 0.98349
vt 0.87142 0.99525
vt 0.87166 0.74999
vt 0.87192 0.88298
vt 0.87328 0.11419
vt 0.87557 0.69023
vt 0.87570 0.12791
vt 0.87586 0.19216
vt 0.87662 0.79352
vt 0.87670 0.67714
vt 0.87675 0.23120
vt 0.87677 0.81780
vt 0.87677 0.87021
vt 0.87705 0.75794
vt 0.87766 0.92764
vt 0.87810 0.00000
vt 0.87810 0.05241
vt 0.87993 0.94066
vt 0.88056 0.96864
vt 0.88068 0.11253
vt 0.88160 0.98824
vt 0.88207 0.39914
vt 0.88294 0.45119
vt 0.88327 0.17373
vt 0.88356 0.69848
vt 0.88356 0.73776
vt 0.88356 0.79245
vt 0.88369 0.13616
vt 0.88369 0.22963
vt 0.88382 0.39913
vt 0.88712 0.38519
vt 0.88838 0.33654
vt 0.88943 0.67713
vt 0.88950 0.81781
vt 0.89037 0.86986
vt 0.89084 0.00001
vt 0.89124 0.81780
vt 0.89171 0.05206
vt 0.89258 0.00000
vt 0.89342 0.11335
vt 0.89573 0.38517
vt 0.89630 0.73563
vt 0.89630 0.79657
vt 0.89643 0.17438
vt 0.89643 0.23340
vt 0.89652 0.63779
vt 0.89655 0.44385
vt 0.89655 0.46586
vt 0.89736 0.06516
vt 0.89751 0.18720
vt 0.89770 0.31710
vt 0.89828 0.24777
vt 0.89915 0.25515
vt 0.90002 0.24784
vt 0.90046 0.74989
vt 0.90068 0.98238
vt 0.90116 0.12776
vt 0.90204 0.27175
vt 0.90336 0.45800
vt 0.90336 0.47373
vt 0.90357 0.11327
vt 0.90398 0.86314
vt 0.90412 0.96161
vt 0.90499 0.87599
vt 0.90513 0.81790
vt 0.90515 0.67713
vt 0.90594 0.17429
vt 0.90595 0.79640
vt 0.90605 0.23229
vt 0.90647 0.73698
vt 0.90727 0.93370
vt 0.90741 0.44521
vt 0.90749 0.97452
vt 0.90749 0.99024
vt 0.90785 0.31701
vt 0.90799 0.69015
vt 0.90858 0.39926
vt 0.90893 0.92046
vt 0.91016 0.46586
vt 0.91345 0.86208
vt 0.91430 0.98131
vt 0.91514 0.93356
vt 0.91632 0.91883
vt 0.91632 0.96151
vt 0.91789 0.67651
vt 0.92361 0.37019
vt 0.92413 0.33656
vt 0.92413 0.37691
vt 0.92536 0.37024
vt 0.92802 0.63779
vt 0.92906 0.90409
vt 0.92906 0.94515
vt 0.92906 0.97044
vt 0.92914 0.84596
vt 0.93161 0.87637
vt 0.93170 0.81821
vt 0.93338 0.96008
vt 0.93344 0.09294
vt 0.93505 0.21500
vt 0.93572 0.91776
vt 0.93614 0.15564
vt 0.93621 0.06523
vt 0.93625 0.67651
vt 0.93681 0.42707
vt 0.93729 0.00000
vt 0.93809 0.36445
vt 0.93829 0.12774
vt 0.93859 0.94591
vt 0.93866 0.39913
vt 0.93926 0.97241
vt 0.93933 0.02813
vt 0.93976 0.77812
vt 0.93978 0.25641
vt 0.94004 0.71813
vt 0.94026 0.33654
vt 0.94033 0.46439
vt 0.94086 0.90405
vt 0.94096 0.84598
vt 0.94103 0.22847
vt 0.94110 0.18734
vt 0.94126 0.87633
vt 0.94130 0.29596
vt 0.94137 0.81822
vt 0.94145 0.75023
vt 0.94192 0.44206
vt 0.94266 0.96258
vt 0.94288 0.27364
vt 0.94350 0.69027
vt 0.94428 0.91735
vt 0.94428 0.94503
vt 0.94582 0.09327
vt 0.94609 0.12814
vt 0.94634 0.06549
vt 0.94640 0.39943
vt 0.94759 0.21527
vt 0.94768 0.36489
vt 0.94811 0.00022
vt 0.94856 0.15588
vt 0.94906 0.74987
vt 0.94906 0.77767
vt 0.94993 0.22826
vt 0.94995 0.02776
vt 0.95003 0.18713
vt 0.95020 0.42720
vt 0.95043 0.33667
vt 0.95064 0.63779
vt 0.95066 0.25616
vt 0.95083 0.12774
vt 0.95103 0.69006
vt 0.95145 0.39913
vt 0.95185 0.71799
vt 0.95215 0.36445
vt 0.95371 0.66588
vt 0.95581 0.90383
vt 0.95594 0.84576
vt 0.95702 0.94536
vt 0.95743 0.81780
vt 0.95771 0.46463
vt 0.95867 0.29620
vt 0.95926 0.44513
vt 0.96004 0.96133
vt 0.96023 0.27670
vt 0.96034 0.87596
vt 0.96159 0.63786
vt 0.96201 0.91742
vt 0.96231 0.97574
vt 0.96264 0.48705
vt 0.96268 0.02806
vt 0.96269 0.49225
vt 0.96323 0.00017
vt 0.96339 0.25627
vt 0.96458 0.71809
vt 0.96462 0.66574
vt 0.96488 0.09312
vt 0.96488 0.35091
vt 0.96488 0.37632
vt 0.96490 0.69018
vt 0.96508 0.12779
vt 0.96514 0.74999
vt 0.96518 0.41348
vt 0.96636 0.61981
vt 0.96659 0.06525
vt 0.96690 0.21513
vt 0.96758 0.81788
vt 0.96761 0.90397
vt 0.96786 0.77779
vt 0.96788 0.49229
vt 0.96790 0.33958
vt 0.96818 0.40215
vt 0.96820 0.94527
vt 0.96835 0.84586
vt 0.96844 0.91769
vt 0.96895 0.87587
vt 0.96896 0.15570
vt 0.96925 0.22830
vt 0.96958 0.18718
vt 0.97168 0.36847
vt 0.97168 0.38419
vt 0.97285 0.25617
vt 0.97289 0.12774
vt 0.97365 0.96656
vt 0.97396 0.44803
vt 0.97402 0.00011
vt 0.97411 0.06544
vt 0.97430 0.02793
vt 0.97453 0.69012
vt 0.97481 0.75006
vt 0.97492 0.30912
vt 0.97603 0.18712
vt 0.97636 0.71802
vt 0.97667 0.09325
vt 0.97708 0.77793
vt 0.97711 0.22837
vt 0.97735 0.35334
vt 0.97736 0.64673
vt 0.97740 0.21508
vt 0.97756 0.41595
vt 0.97759 0.12779
vt 0.97832 0.27370
vt 0.97832 0.28549
vt 0.97849 0.37526
vt 0.97902 0.25629
vt 0.97948 0.15573
vt 0.98062 0.49599
vt 0.98062 0.52337
vt 0.98062 0.55074
vt 0.98062 0.58021
vt 0.98150 0.34136
vt 0.98168 0.40397
vt 0.98255 0.88767
vt 0.98323 0.44160
vt 0.98396 0.82562
vt 0.98400 0.60276
vt 0.98411 0.63779
vt 0.98411 0.65351
vt 0.98416 0.45392
vt 0.98419 0.30162
vt 0.98492 0.61508
vt 0.98502 0.87839
vt 0.98605 0.31342
vt 0.98618 0.93049
vt 0.98638 0.96215
vt 0.98643 0.85934
vt 0.98711 0.91929
vt 0.98736 0.84814
vt 0.98738 0.48704
vt 0.98738 0.50275
vt 0.98742 0.54394
vt 0.98742 0.55964
vt 0.98853 0.27853
vt 0.98987 0.51691
vt 0.98989 0.57381
vt 0.99072 0.97242
vt 0.99079 0.52923
vt 0.99081 0.58613
vt 0.99086 0.64563
vt 0.99273 0.88958
vt 0.99324 0.83202
vt 0.99414 0.60871
vt 0.99415 0.49594
vt 0.99417 0.81976
vt 0.99422 0.55178
vt 0.99567 0.95969
vt 0.99613 0.87976
vt 0.99730 0.92522
vt 0.99756 0.85397
vt 1.00000 0.96995
s 0
usemtl ARPG_ember
f 1/302/1 2/330/1 4/331/1
f 1/302/1 4/331/1 3/303/1
f 3/17/97 4/3/97 8/7/97
f 3/17/97 8/7/97 7/24/97
f 3/289/99 5/151/99 1/150/99
f 3/289/99 7/290/99 5/151/99
f 5/395/98 2/379/98 1/394/98
f 5/395/98 6/380/98 2/379/98
f 7/24/2 6/2/2 5/16/2
f 7/24/2 8/7/2 6/2/2
f 8/152/100 2/292/100 6/153/100
f 8/152/100 4/291/100 2/292/100
usemtl ARPG_obsidian_iron
f 11/695/104 10/735/104 12/732/104
f 11/695/246 9/700/246 10/735/246
f 13/60/102 16/74/102 14/73/102
f 13/60/244 15/59/244 16/74/244
f 14/34/103 12/53/103 10/31/103
f 14/34/245 16/52/245 12/53/245
f 147/748/161 151/801/161 153/787/161
f 147/748/284 149/761/284 151/801/284
f 147/772/157 150/786/157 149/795/157
f 147/772/281 148/768/281 150/786/281
f 148/768/21 147/772/21 153/744/21
f 15/59/105 12/78/105 16/74/105
f 15/59/247 11/65/247 12/78/247
f 150/251/159 152/258/159 149/253/159
f 152/258/22 151/263/22 149/253/22
f 154/705/160 151/674/160 152/680/160
f 154/705/162 148/721/162 153/711/162
f 154/705/283 153/711/283 151/674/283
f 154/771/158 150/770/158 148/794/158
f 154/771/282 152/749/282 150/770/282
f 160/64/165 161/69/165 159/67/165
f 160/64/26 159/67/26 164/58/26
f 162/690/163 161/668/163 163/694/163
f 162/690/285 159/664/285 161/668/285
f 164/139/170 159/124/170 162/138/170
f 165/205/166 161/197/166 160/199/166
f 165/205/286 163/201/286 161/197/286
f 165/41/167 162/35/167 163/37/167
f 165/41/169 160/43/169 164/42/169
f 165/41/287 164/42/287 162/35/287
f 171/717/173 172/707/173 174/723/173
f 171/727/30 174/736/30 173/758/30
f 172/699/172 175/666/172 174/670/172
f 172/699/289 170/683/289 175/666/289
f 172/707/168 176/677/168 170/682/168
f 172/707/288 171/717/288 176/677/288
f 173/758/174 174/736/174 175/766/174
f 176/435/177 171/419/177 173/434/177
f 176/764/175 175/730/175 170/757/175
f 176/764/290 173/728/290 175/730/290
f 182/702/182 187/681/182 188/673/182
f 182/702/293 181/703/293 187/681/293
f 182/719/179 184/737/179 181/726/179
f 183/212/176 186/220/176 185/222/176
f 183/212/291 184/211/291 186/220/291
f 183/753/183 187/802/183 181/790/183
f 183/753/294 185/762/294 187/802/294
f 184/737/34 183/746/34 181/726/34
f 186/220/181 188/223/181 185/222/181
f 186/97/180 182/96/180 188/104/180
f 186/97/292 184/85/292 182/96/292
f 188/673/35 187/681/35 185/665/35
f 193/315/187 196/293/187 197/294/187
f 193/315/297 198/317/297 196/293/297
f 193/831/188 197/805/188 195/834/188
f 194/745/186 197/779/186 196/783/186
f 194/745/296 195/750/296 197/779/296
f 195/25/184 198/12/184 193/15/184
f 195/25/295 194/26/295 198/12/295
f 196/385/39 198/401/39 194/386/39
f 204/534/44 207/541/44 206/551/44
f 205/523/191 207/541/191 204/534/191
f 205/710/46 204/715/46 208/684/46
f 206/256/192 207/250/192 209/257/192
f 206/256/45 209/257/45 208/259/45
f 207/798/193 205/824/193 209/827/193
f 208/358/195 204/352/195 206/353/195
f 209/678/194 205/710/194 208/684/194
f 215/592/190 214/569/190 216/591/190
f 215/592/299 219/562/299 214/569/299
f 216/574/199 214/594/199 218/575/199
f 217/691/197 216/669/197 218/696/197
f 217/691/300 215/667/300 216/669/300
f 219/329/201 215/296/201 217/295/201
f 219/778/198 218/743/198 214/776/198
f 219/778/301 217/741/301 218/743/301
f 225/672/54 227/693/54 226/708/54
f 225/796/205 232/773/205 227/791/205
f 225/796/305 230/767/305 232/773/305
f 226/360/207 230/365/207 225/366/207
f 226/360/306 229/359/306 230/365/306
f 226/708/203 227/693/203 228/716/203
f 228/213/204 232/224/204 231/219/204
f 228/213/304 227/221/304 232/224/304
f 229/709/202 228/688/202 231/718/202
f 229/709/303 226/679/303 228/688/303
f 229/709/55 231/718/55 230/725/55
f 231/751/206 232/773/206 230/767/206
f 239/280/209 238/268/209 240/279/209
f 239/280/308 243/266/308 238/268/308
f 240/775/212 238/804/212 242/809/212
f 241/144/210 240/129/210 242/142/210
f 241/144/309 239/127/309 240/129/309
f 243/101/211 242/87/211 238/102/211
f 243/101/310 241/84/310 242/87/310
f 243/456/214 239/450/214 241/449/214
f 25/122/106 31/140/106 29/123/106
f 25/122/248 27/145/248 31/140/248
f 25/373/101 30/370/101 26/368/101
f 25/373/243 29/378/243 30/370/243
f 250/371/221 252/375/221 255/376/221
f 251/238/215 255/231/215 249/233/215
f 251/238/217 253/242/217 250/239/217
f 251/238/312 250/239/312 255/231/312
f 251/807/216 254/808/216 253/788/216
f 251/807/313 249/829/313 254/808/313
f 253/738/218 254/765/218 252/763/218
f 253/738/64 252/763/64 250/729/64
f 255/704/219 254/675/219 249/706/219
f 255/704/314 252/671/314 254/675/314
f 260/347/227 264/334/227 266/346/227
f 260/347/320 262/345/320 264/334/320
f 260/784/226 267/755/226 261/777/226
f 260/784/319 266/747/319 267/755/319
f 262/202/220 261/198/220 263/203/220
f 262/202/315 260/196/315 261/198/315
f 264/137/223 263/130/223 265/141/223
f 264/137/316 262/126/316 263/130/316
f 265/815/225 261/840/225 267/826/225
f 265/815/318 263/836/318 261/840/318
f 266/149/224 265/141/224 267/148/224
f 266/149/317 264/137/317 265/141/317
f 27/689/104 26/733/104 28/731/104
f 27/689/246 25/698/246 26/733/246
f 273/686/229 276/714/229 275/720/229
f 273/686/322 274/692/322 276/714/322
f 274/780/231 277/759/231 278/752/231
f 274/780/324 273/785/324 277/759/324
f 274/838/232 278/814/232 276/817/232
f 277/252/234 273/260/234 275/249/234
f 278/712/230 275/685/230 276/697/230
f 278/712/323 277/713/323 275/685/323
f 283/724/237 288/701/237 284/722/237
f 283/724/327 287/687/327 288/701/327
f 283/739/76 285/734/76 287/774/76
f 284/810/75 288/813/75 286/781/75
f 285/657/233 284/644/233 286/655/233
f 285/657/325 283/636/325 284/644/325
f 287/789/236 286/769/236 288/782/236
f 287/789/326 285/756/326 286/769/326
f 29/36/102 32/48/102 30/44/102
f 29/36/244 31/33/244 32/48/244
f 295/204/82 296/207/82 297/208/82
f 296/207/81 295/204/81 294/195/81
f 296/277/84 294/281/84 298/265/84
f 296/448/83 298/455/83 297/447/83
f 297/180/239 294/184/239 295/185/239
f 297/180/239 298/179/239 294/184/239
f 299/57/85 302/68/85 300/70/85
f 30/62/103 28/80/103 26/61/103
f 30/62/245 32/79/245 28/80/245
f 301/157/240 299/165/240 300/158/240
f 301/157/240 303/164/240 299/165/240
f 302/472/87 303/483/87 301/470/87
f 302/524/88 299/540/88 303/511/88
f 302/68/86 301/81/86 300/70/86
f 306/167/241 304/168/241 305/169/241
f 306/167/241 307/166/241 304/168/241
f 307/658/92 308/663/92 304/676/92
f 308/27/89 305/28/89 304/11/89
f 308/27/90 306/32/90 305/28/90
f 308/567/91 307/583/91 306/556/91
f 31/33/105 28/51/105 32/48/105
f 31/33/247 27/40/247 28/51/247
f 311/170/242 309/175/242 310/171/242
f 311/170/242 313/174/242 309/175/242
f 311/606/95 312/619/95 313/639/95
f 312/245/93 310/240/93 309/230/93
f 312/245/94 311/246/94 310/240/94
f 312/431/96 309/437/96 313/418/96
f 41/409/109 46/390/109 42/408/109
f 41/409/251 45/389/251 46/390/251
f 43/363/114 45/356/114 41/361/114
f 43/363/256 47/354/256 45/356/256
f 43/91/112 42/106/112 44/105/112
f 43/91/254 41/93/254 42/106/254
f 45/397/110 48/388/110 46/382/110
f 45/397/252 47/405/252 48/388/252
f 47/405/113 44/392/113 48/388/113
f 47/405/255 43/403/255 44/392/255
f 48/339/111 42/348/111 46/336/111
f 48/339/253 44/350/253 42/348/253
f 59/489/109 64/476/109 60/488/109
f 59/489/251 63/474/251 64/476/251
f 61/120/112 60/134/112 62/132/112
f 61/120/254 59/121/254 60/134/254
f 61/364/114 63/357/114 59/362/114
f 61/364/256 65/355/256 63/357/256
f 63/396/110 66/387/110 64/381/110
f 63/396/252 65/404/252 66/387/252
f 65/404/113 62/391/113 66/387/113
f 65/404/255 61/402/255 62/391/255
f 66/340/111 60/349/111 64/337/111
f 66/340/253 62/351/253 60/349/253
f 9/372/101 14/369/101 10/367/101
f 9/372/243 13/377/243 14/369/243
f 9/89/106 15/107/106 13/90/106
f 9/89/248 11/108/248 15/107/248
usemtl ARPG_arcane
f 18/261/107 19/255/107 17/254/107
f 18/261/249 20/262/249 19/255/249
f 20/321/108 17/307/108 19/306/108
f 20/321/250 18/322/250 17/307/250
f 22/247/107 23/244/107 21/243/107
f 22/247/249 24/248/249 23/244/249
f 24/325/108 21/311/108 23/310/108
f 24/325/250 22/326/250 21/311/250
f 34/236/107 35/229/107 33/228/107
f 34/236/249 36/237/249 35/229/249
f 36/319/108 33/305/108 35/304/108
f 36/319/250 34/320/250 33/305/250
f 38/585/107 39/560/107 37/559/107
f 38/585/249 40/586/249 39/560/249
f 40/323/108 37/309/108 39/308/108
f 40/323/250 38/324/250 37/309/250
f 49/505/98 51/504/98 50/507/98
f 49/565/257 50/589/257 53/590/257
f 49/565/99 53/590/99 52/566/99
f 51/603/1 53/596/1 50/595/1
f 53/274/258 51/275/258 49/264/258
f 54/45/115 58/55/115 56/46/115
f 54/45/99 55/54/99 58/55/99
f 57/659/2 54/660/2 56/662/2
f 58/200/116 54/194/116 57/193/116
f 58/661/97 57/659/97 56/662/97
f 67/626/98 69/625/98 68/627/98
f 67/9/257 68/22/257 71/23/257
f 67/9/99 71/23/99 70/10/99
f 69/610/1 71/608/1 68/607/1
f 71/286/258 69/287/258 67/283/258
f 72/29/257 73/38/257 76/39/257
f 72/29/99 76/39/99 75/30/99
f 72/49/98 74/47/98 73/50/98
f 74/612/1 76/611/1 73/609/1
f 76/217/258 74/218/258 72/206/258
usemtl ARPG_obsidian_slab
f 101/427/133 105/500/133 103/428/133
f 101/427/138 110/417/138 102/416/138
f 101/427/139 108/429/139 100/501/139
f 101/427/270 100/501/270 105/500/270
f 101/427/273 103/428/273 110/417/273
f 103/484/15 109/493/15 110/487/15
f 104/95/13 111/99/13 105/82/13
f 105/500/137 106/508/137 104/509/137
f 105/500/141 111/502/141 103/428/141
f 105/500/272 100/501/272 106/508/272
f 106/519/14 100/510/14 107/520/14
f 107/520/144 100/510/144 108/516/144
f 107/98/140 104/95/140 106/88/140
f 107/98/274 111/99/274 104/95/274
f 108/539/12 101/554/12 102/546/12
f 109/742/136 107/520/136 108/516/136
f 109/742/142 102/518/142 110/740/142
f 109/742/143 103/760/143 111/754/143
f 109/742/271 111/754/271 107/520/271
f 109/742/275 108/516/275 102/518/275
f 112/460/117 115/412/117 113/413/117
f 112/460/259 116/414/259 115/412/259
f 113/481/4 115/479/4 114/475/4
f 114/543/124 118/536/124 113/553/124
f 115/479/145 119/463/145 114/475/145
f 116/480/146 120/477/146 115/479/146
f 117/374/118 119/335/118 121/341/118
f 117/374/260 118/338/260 119/335/260
f 117/533/120 113/553/120 118/536/120
f 117/533/261 112/545/261 113/553/261
f 118/466/123 114/475/123 119/463/123
f 120/477/16 119/463/16 115/479/16
f 121/464/5 119/463/5 120/477/5
f 121/528/121 112/517/121 117/526/121
f 121/528/17 120/521/17 116/515/17
f 121/528/262 116/515/262 112/517/262
f 124/576/19 131/599/19 130/587/19
f 125/270/150 126/272/150 124/271/150
f 126/579/18 131/599/18 124/576/18
f 127/182/151 129/209/151 133/183/151
f 127/182/279 123/215/279 129/209/279
f 127/226/127 122/269/127 123/273/127
f 127/226/265 128/227/265 122/269/265
f 127/497/8 134/498/8 128/491/8
f 127/497/9 133/513/9 134/498/9
f 128/227/147 124/271/147 122/269/147
f 128/227/276 125/270/276 124/271/276
f 130/587/149 122/568/149 124/576/149
f 130/587/152 129/600/152 123/582/152
f 130/587/278 123/582/278 122/568/278
f 130/587/280 131/599/280 129/600/280
f 132/598/20 131/599/20 126/579/20
f 133/183/148 131/216/148 132/210/148
f 133/183/277 129/209/277 131/216/277
f 134/181/132 132/210/132 126/214/132
f 134/181/269 133/183/269 132/210/269
f 134/225/129 125/270/129 128/227/129
f 134/225/267 126/272/267 125/270/267
f 136/342/133 140/398/133 138/343/133
f 136/342/139 143/344/139 135/399/139
f 136/342/154 145/333/154 137/332/154
f 136/342/270 135/399/270 140/398/270
f 136/342/273 138/343/273 145/333/273
f 138/485/15 144/494/15 145/486/15
f 139/115/13 146/117/13 140/109/13
f 140/398/141 146/400/141 138/343/141
f 140/398/153 141/406/153 139/407/153
f 140/398/272 135/399/272 141/406/272
f 141/162/14 135/156/14 142/163/14
f 142/116/155 139/115/155 141/111/155
f 142/116/274 146/117/274 139/115/274
f 142/163/144 135/156/144 143/159/144
f 143/557/12 136/573/12 137/558/12
f 144/188/136 142/163/136 143/159/136
f 144/188/143 138/192/143 146/191/143
f 144/188/156 137/161/156 145/187/156
f 144/188/271 146/191/271 142/163/271
f 144/188/275 143/159/275 137/161/275
f 77/467/117 79/421/117 78/424/117
f 77/467/259 80/426/259 79/421/259
f 78/21/4 79/19/4 83/6/4
f 79/19/119 85/1/119 83/6/119
f 80/20/122 81/14/122 79/19/122
f 81/14/3 85/1/3 79/19/3
f 82/468/118 85/420/118 86/425/118
f 82/468/260 84/422/260 85/420/260
f 82/529/120 78/552/120 84/535/120
f 82/529/261 77/544/261 78/552/261
f 83/542/124 84/535/124 78/552/124
f 84/5/123 83/6/123 85/1/123
f 86/147/121 77/131/121 82/143/121
f 86/147/262 80/128/262 77/131/262
f 86/147/6 81/135/6 80/128/6
f 86/4/5 85/1/5 81/14/5
f 88/571/10 96/597/10 95/581/10
f 89/72/130 90/76/130 88/75/130
f 90/580/7 96/597/7 88/571/7
f 91/13/127 87/71/127 93/77/127
f 91/13/265 92/18/265 87/71/265
f 91/154/131 94/172/131 98/160/131
f 91/154/268 93/177/268 94/172/268
f 91/284/8 99/285/8 92/282/8
f 91/284/9 98/288/9 99/285/9
f 92/18/125 88/75/125 87/71/125
f 92/18/263 89/72/263 88/75/263
f 94/602/135 93/584/135 95/581/135
f 95/581/128 87/570/128 88/571/128
f 95/581/266 93/584/266 87/570/266
f 96/178/126 98/160/126 94/172/126
f 96/178/264 97/173/264 98/160/264
f 96/597/134 94/602/134 95/581/134
f 97/601/11 96/597/11 90/580/11
f 99/155/132 97/173/132 90/176/132
f 99/155/269 98/160/269 97/173/269
f 99/8/129 89/72/129 92/18/129
f 99/8/267 90/76/267 89/72/267
usemtl ARPG_bone
f 155/301/24 157/316/24 156/297/24
f 155/384/25 158/393/25 157/383/25
f 156/800/164 157/825/164 158/828/164
f 158/492/23 155/495/23 156/503/23
f 166/313/27 167/314/27 168/328/27
f 167/572/28 169/593/28 168/578/28
f 169/604/29 167/605/29 166/614/29
f 169/839/171 166/816/171 168/818/171
f 177/616/32 179/628/32 178/641/32
f 179/630/33 180/640/33 178/617/33
f 179/649/31 177/643/31 180/615/31
f 180/823/178 177/793/178 178/792/178
f 190/114/36 191/119/36 189/112/36
f 190/300/37 192/327/37 191/312/37
f 192/527/185 189/548/185 191/532/185
f 192/92/38 190/86/38 189/103/38
f 200/537/41 202/547/41 201/531/41
f 200/94/40 201/100/40 199/83/40
f 202/547/42 200/537/42 203/550/42
f 202/819/189 199/820/189 201/797/189
f 202/819/298 203/833/298 199/820/298
f 203/651/43 200/637/43 199/656/43
f 210/113/47 211/118/47 213/110/47
f 210/638/49 213/653/49 212/635/49
f 211/561/48 210/577/48 212/588/48
f 213/276/196 211/278/196 212/267/196
f 221/471/52 223/482/52 222/473/52
f 221/496/50 220/499/50 224/490/50
f 221/496/51 222/506/51 220/499/51
f 223/613/53 221/622/53 224/634/53
f 223/837/200 220/803/200 222/812/200
f 223/837/302 224/830/302 220/803/302
f 234/298/57 236/299/57 235/318/57
f 234/822/208 237/821/208 233/835/208
f 234/822/307 235/799/307 237/821/307
f 235/125/58 236/133/58 237/136/58
f 236/563/56 234/564/56 233/555/56
f 237/136/59 236/133/59 233/146/59
f 244/442/60 247/444/60 245/445/60
f 245/621/213 248/652/213 244/633/213
f 245/621/311 246/632/311 248/652/311
f 246/436/62 247/438/62 248/439/62
f 247/438/61 246/436/61 245/430/61
f 247/454/63 244/457/63 248/453/63
f 256/811/222 257/806/222 258/832/222
f 257/465/67 259/469/67 258/478/67
f 259/411/66 257/415/66 256/410/66
f 259/538/65 256/549/65 258/530/65
f 270/234/228 268/235/228 269/232/228
f 270/234/321 271/241/321 268/235/321
f 270/522/70 272/514/70 271/525/70
f 272/440/71 268/443/71 271/441/71
f 272/514/69 270/522/69 269/512/69
f 272/63/68 269/66/68 268/56/68
f 279/618/73 281/623/73 280/642/73
f 281/631/74 282/648/74 280/624/74
f 282/190/235 279/186/235 280/189/235
f 282/620/72 281/650/72 279/645/72
f 289/446/77 290/451/77 291/452/77
f 289/647/238 292/646/238 293/654/238
f 289/647/328 291/629/328 292/646/328
f 290/432/80 289/433/80 293/423/80
f 290/459/78 292/461/78 291/458/78
f 290/459/79 293/462/79 292/461/79
