# Blender 4.0.2
# www.blender.org
mtllib spike_trap_collision.mtl
o spike_trap_collision
v 0.970000 0.000000 0.970000
v 1.000000 0.030000 0.970000
v 0.970000 0.030000 1.000000
v 0.970000 0.110000 1.000000
v 1.000000 0.110000 0.970000
v -0.970000 0.000000 0.970000
v -0.970000 0.030000 1.000000
v -1.000000 0.030000 0.970000
v -1.000000 0.110000 0.970000
v -0.970000 0.110000 1.000000
v 0.970000 0.000000 -0.970000
v 0.970000 0.030000 -1.000000
v 1.000000 0.030000 -0.970000
v 0.970000 0.110000 -1.000000
v 1.000000 0.110000 -0.970000
v -0.970000 0.000000 -0.970000
v -1.000000 0.030000 -0.970000
v -0.970000 0.030000 -1.000000
v -0.970000 0.110000 -1.000000
v -1.000000 0.110000 -0.970000
v 0.020337 0.525736 -0.012894
v 0.015141 0.525833 -0.015892
v 0.015132 0.525610 -0.021888
v 0.020320 0.525289 -0.024886
v 0.025516 0.525192 -0.021888
v 0.025525 0.525416 -0.015892
v -0.024330 0.445525 -0.663562
v -0.019126 0.445474 -0.666548
v -0.013948 0.445991 -0.663562
v 0.661447 0.422753 -0.016034
v -0.261635 0.505160 0.011560
v -0.256460 0.505638 0.008561
v -0.636288 0.471438 0.005662
v -0.636289 0.471473 -0.000338
v -0.458302 0.486151 0.568658
v -0.463453 0.486885 0.565670
v -0.463404 0.487428 0.559695
v 0.452760 0.462077 -0.557153
v 0.452706 0.462534 -0.551171
v 0.455900 0.461501 0.573562
v 0.461100 0.461789 0.564569
v 0.461097 0.461551 0.570565
v -0.915593 0.356134 0.961263
v -0.924078 0.356129 0.961324
v -0.924139 0.357560 0.952960
v 0.961263 0.356134 0.924407
v 0.952900 0.357565 0.924346
v 0.961324 0.356129 0.915922
v 0.924139 0.357560 -0.952960
v 0.915593 0.356134 -0.961263
v 0.924078 0.356129 -0.961324
v -0.961324 0.356129 -0.915922
v -0.961263 0.356134 -0.924407
v -0.952900 0.357565 -0.924346
vn 0.0070 0.1540 0.9881
vn -0.6871 0.2362 0.6871
vn -0.7071 -0.0000 0.7071
vn -0.0000 -0.0000 1.0000
vn -0.0000 0.1555 0.9878
vn 0.0017 0.9487 0.3161
vn 0.0187 0.2934 0.9558
vn 0.0056 0.9473 0.3202
vn -0.0281 0.9584 0.2840
vn -0.1328 0.9768 0.1681
vn -0.9534 0.2961 0.0576
vn -0.9947 0.1022 -0.0071
vn -0.9878 0.1555 -0.0000
vn -1.0000 -0.0000 -0.0000
vn -0.9556 0.2941 0.0188
vn -0.5774 -0.5774 0.5773
vn -0.0000 -0.7071 0.7071
vn 0.7071 -0.0000 0.7071
vn 0.6872 0.2355 0.6872
vn 0.0435 0.2947 0.9546
vn 0.0247 0.9675 0.2516
vn 0.0254 0.9801 0.1970
vn 0.1681 0.9842 0.0557
vn 0.0872 0.9820 0.1674
vn -0.2009 0.9758 0.0869
vn 0.0267 0.9957 0.0892
vn 0.0283 0.9955 0.0906
vn -0.3500 0.9367 0.0062
vn -0.2350 0.9709 0.0453
vn -0.3298 0.9440 -0.0018
vn -0.0435 0.2947 -0.9546
vn -0.6872 0.2355 -0.6872
vn -0.3485 0.9373 0.0056
vn -0.1679 0.9837 -0.0637
vn -0.7071 -0.0000 -0.7071
vn -0.7071 -0.7071 -0.0000
vn -0.0000 -1.0000 -0.0000
vn 0.5774 -0.5774 0.5773
vn 1.0000 -0.0000 -0.0000
vn 0.9878 0.1555 -0.0000
vn 0.9947 0.1022 0.0071
vn 0.0508 0.9987 -0.0002
vn 0.2282 0.9736 -0.0038
vn 0.2036 0.9790 0.0044
vn 0.1795 0.9830 0.0392
vn 0.0374 0.9960 0.0813
vn 0.0925 0.9949 0.0396
vn 0.0869 0.9953 0.0439
vn -0.0933 0.9956 -0.0021
vn -0.0895 0.9960 -0.0007
vn -0.1107 0.9938 0.0059
vn -0.0134 0.9984 0.0555
vn -0.0737 0.9973 0.0053
vn 0.0402 0.9985 -0.0373
vn 0.0401 0.9985 -0.0373
vn -0.0871 0.9919 -0.0924
vn -0.0836 0.9920 -0.0950
vn -0.0602 0.9910 -0.1200
vn -0.0599 0.9908 -0.1211
vn -0.0053 0.9522 -0.3055
vn -0.0187 0.2934 -0.9558
vn -0.0000 0.1555 -0.9878
vn -0.0000 -0.0000 -1.0000
vn -0.0897 0.9960 0.0041
vn -0.5774 -0.5774 -0.5773
vn -0.0000 -0.7071 -0.7071
vn 0.7071 -0.7071 -0.0000
vn 0.7071 -0.0000 -0.7071
vn 0.6871 0.2362 -0.6871
vn 0.9534 0.2961 -0.0576
vn 0.9556 0.2941 -0.0188
vn 0.0762 0.9827 -0.1687
vn 0.1565 0.9849 -0.0737
vn 0.2099 0.9777 -0.0092
vn 0.1891 0.9820 -0.0008
vn 0.1451 0.9894 -0.0004
vn 0.0997 0.9943 -0.0372
vn -0.0774 0.9963 -0.0371
vn 0.0591 0.9958 -0.0702
vn -0.0096 0.9924 -0.1227
vn -0.0288 0.9921 -0.1218
vn -0.0593 0.9910 -0.1200
vn 0.0082 0.9828 -0.1843
vn 0.0196 0.9725 -0.2321
vn -0.0015 0.9556 -0.2945
vn -0.0070 0.1540 -0.9881
vn 0.5774 -0.5774 -0.5773
vn 0.0527 0.9958 -0.0755
vn -0.0062 0.9924 -0.1229
vt 0.00000 0.35686
vt 0.00036 0.35841
vt 0.00246 0.71061
vt 0.00852 0.01069
vt 0.02422 0.71260
vt 0.06871 0.36342
vt 0.06985 0.35260
vt 0.07698 0.00000
vt 0.09047 0.36542
vt 0.09160 0.35460
vt 0.09874 0.00199
vt 0.09874 0.36071
vt 0.10303 0.35686
vt 0.10339 0.35841
vt 0.10549 0.71061
vt 0.11155 0.01069
vt 0.12725 0.71260
vt 0.17174 0.36342
vt 0.17288 0.35260
vt 0.18001 0.00000
vt 0.19350 0.36542
vt 0.19463 0.35460
vt 0.20177 0.00199
vt 0.20177 0.36071
vt 0.20606 0.00769
vt 0.20606 0.50489
vt 0.20606 0.51665
vt 0.20606 0.99774
vt 0.20609 0.99992
vt 0.20612 0.51879
vt 0.20838 0.51659
vt 0.20838 0.99989
vt 0.21428 0.00000
vt 0.21428 0.00769
vt 0.21428 0.50489
vt 0.21428 0.51257
vt 0.30479 0.64421
vt 0.30558 0.64286
vt 0.30722 0.64283
vt 0.31102 0.87839
vt 0.31186 0.87970
vt 0.31350 0.87965
vt 0.46261 0.82517
vt 0.46340 0.82382
vt 0.46532 0.58863
vt 0.46629 0.92119
vt 0.46776 0.75276
vt 0.46793 0.92115
vt 0.46856 0.75142
vt 0.46861 0.75408
vt 0.47020 0.75139
vt 0.47026 0.75405
vt 0.47105 0.75270
vt 0.61305 0.63936
vt 0.61469 0.63931
vt 0.64638 0.75839
vt 0.64644 0.76105
vt 0.64723 0.75970
vt 0.72077 0.51669
vt 0.72077 1.00000
vt 0.72303 0.99780
vt 0.72306 0.51667
vt 0.72309 0.51884
vt 0.72309 0.99994
vt 0.72738 0.51811
vt 0.72768 0.51659
vt 0.72768 0.86879
vt 0.73198 0.51659
vt 0.73198 0.58148
vt 0.73198 0.58549
vt 0.73198 0.65038
vt 0.73361 0.51687
vt 0.73361 0.58578
vt 0.74607 0.00000
vt 0.74607 0.00769
vt 0.74607 0.50489
vt 0.74607 0.51257
vt 0.75400 0.51811
vt 0.75429 0.00769
vt 0.75429 0.50489
vt 0.75429 0.51659
vt 0.75429 0.86879
vt 0.75858 0.33640
vt 0.75858 0.70332
vt 0.75863 0.33480
vt 0.75863 0.70172
vt 0.82381 0.35620
vt 0.82381 0.72311
vt 0.82762 0.34593
vt 0.82762 0.71284
vt 0.84445 0.36290
vt 0.84445 0.72982
vt 0.84827 0.35263
vt 0.84827 0.71955
vt 0.85367 0.00000
vt 0.85367 0.36014
vt 0.85367 0.36692
vt 0.85367 0.72706
vt 0.85796 0.00000
vt 0.85796 0.35062
vt 0.85796 0.35463
vt 0.85796 0.70526
vt 0.92659 0.00384
vt 0.92660 0.35847
vt 0.93089 0.00000
vt 0.93089 0.35220
vt 0.94001 0.34818
vt 0.94001 0.70038
vt 1.00000 0.00000
vt 1.00000 0.35220
s 0
usemtl ARPG_collision
f 1/12/38 2/9/38 3/10/38
f 11/34/67 13/33/67 2/74/67
f 11/34/67 2/74/67 1/75/67
f 12/92/87 13/94/87 11/98/87
f 13/94/68 12/92/68 14/88/68
f 13/94/68 14/88/68 15/90/68
f 14/20/63 12/23/63 18/22/63
f 14/20/63 18/22/63 19/19/63
f 14/88/69 51/84/69 15/90/69
f 15/108/40 46/106/40 5/110/40
f 15/82/41 48/78/41 46/81/41
f 16/35/37 1/75/37 6/76/37
f 16/35/37 11/34/37 1/75/37
f 17/36/36 16/35/36 6/76/36
f 17/36/36 6/76/36 8/77/36
f 18/22/65 16/24/65 17/21/65
f 18/26/66 11/34/66 16/35/66
f 18/26/66 12/25/66 11/34/66
f 19/19/32 20/18/32 53/14/32
f 19/19/35 17/21/35 20/18/35
f 19/19/35 18/22/35 17/21/35
f 2/9/39 13/5/39 15/3/39
f 2/9/39 15/3/39 5/6/39
f 20/18/14 17/21/14 8/17/14
f 20/18/14 8/17/14 9/15/14
f 21/47/27 37/42/27 36/41/27
f 21/47/52 22/50/52 37/42/52
f 22/50/53 32/44/53 37/42/53
f 22/50/78 23/52/78 32/44/78
f 23/52/58 27/57/58 54/61/58
f 24/53/55 23/52/55 22/50/55
f 24/53/80 29/56/80 23/52/80
f 24/53/88 39/54/88 38/55/88
f 25/51/54 24/53/54 22/50/54
f 25/51/55 22/50/55 21/47/55
f 26/49/48 21/47/48 42/38/48
f 26/49/54 25/51/54 21/47/54
f 27/57/59 28/58/59 54/61/59
f 28/58/60 50/63/60 54/61/60
f 28/58/82 27/57/82 23/52/82
f 29/56/81 28/58/81 23/52/81
f 29/56/83 38/55/83 28/58/83
f 29/56/89 24/53/89 38/55/89
f 3/10/18 2/9/18 5/6/18
f 3/10/18 5/6/18 4/7/18
f 30/45/44 41/39/44 46/27/44
f 31/43/50 34/48/50 37/42/50
f 31/43/64 32/44/64 34/48/64
f 32/44/49 31/43/49 37/42/49
f 32/44/57 23/52/57 54/61/57
f 33/46/28 52/60/28 45/32/28
f 33/46/30 53/64/30 52/60/30
f 33/46/33 34/48/33 53/64/33
f 34/48/34 54/61/34 53/64/34
f 34/48/51 33/46/51 37/42/51
f 34/48/56 32/44/56 54/61/56
f 35/40/6 44/29/6 43/28/6
f 35/40/9 36/41/9 44/29/9
f 36/41/10 45/32/10 44/29/10
f 37/42/25 45/32/25 36/41/25
f 37/42/29 33/46/29 45/32/29
f 38/55/73 39/54/73 49/59/73
f 38/55/84 51/62/84 28/58/84
f 39/54/74 30/45/74 49/59/74
f 39/54/75 41/39/75 30/45/75
f 39/54/76 26/49/76 41/39/76
f 39/54/77 25/51/77 26/49/77
f 39/54/79 24/53/79 25/51/79
f 4/100/5 43/99/5 10/103/5
f 4/7/7 47/1/7 43/4/7
f 40/37/22 36/41/22 35/40/22
f 40/37/26 21/47/26 36/41/26
f 41/39/45 42/38/45 46/27/45
f 41/39/47 26/49/47 42/38/47
f 42/38/24 40/37/24 47/30/24
f 42/38/46 21/47/46 40/37/46
f 43/68/1 44/72/1 10/69/1
f 44/83/2 9/89/2 10/87/2
f 45/85/11 9/89/11 44/83/11
f 45/85/15 52/95/15 9/89/15
f 46/2/20 47/1/20 4/7/20
f 46/27/23 42/38/23 47/30/23
f 47/30/21 40/37/21 35/40/21
f 47/30/8 35/40/8 43/28/8
f 48/31/42 49/59/42 46/27/42
f 49/59/43 30/45/43 46/27/43
f 49/86/71 48/97/71 15/90/71
f 5/6/19 46/2/19 4/7/19
f 50/101/62 14/104/62 19/102/62
f 50/16/61 19/19/61 54/13/61
f 51/62/72 38/55/72 49/59/72
f 51/62/85 50/63/85 28/58/85
f 51/73/86 14/71/86 50/70/86
f 51/84/70 49/86/70 15/90/70
f 52/65/12 53/66/12 9/67/12
f 53/105/13 20/109/13 9/107/13
f 54/13/31 19/19/31 53/14/31
f 6/76/17 1/75/17 3/79/17
f 6/76/17 3/79/17 7/80/17
f 7/11/4 3/10/4 4/7/4
f 7/11/4 4/7/4 10/8/4
f 8/93/16 6/96/16 7/91/16
f 9/89/3 7/91/3 10/87/3
f 9/89/3 8/93/3 7/91/3
