# Blender 4.0.2
# www.blender.org
mtllib comms_relay_collision.mtl
o comms_relay_collision
v 0.060000 0.000000 1.010000
v 0.070000 0.010000 1.010000
v 0.060000 0.010000 1.020000
v 0.060000 0.020000 1.020000
v 0.070000 0.020000 1.010000
v -0.060000 0.000000 1.010000
v -0.060000 0.010000 1.020000
v -0.070000 0.010000 1.010000
v -0.070000 0.020000 1.010000
v -0.060000 0.020000 1.020000
v 0.882724 0.000000 -0.535000
v 0.882724 0.010000 -0.545000
v 0.892724 0.010000 -0.535000
v 0.882724 0.020000 -0.545000
v 0.892724 0.020000 -0.535000
v 0.882724 0.000000 -0.415000
v 0.892724 0.010000 -0.415000
v 0.892724 0.020000 -0.415000
v -0.882724 0.000000 -0.535000
v -0.892724 0.010000 -0.535000
v -0.882724 0.010000 -0.545000
v -0.882724 0.020000 -0.545000
v -0.892724 0.020000 -0.535000
v -0.882724 0.000000 -0.415000
v -0.892724 0.010000 -0.415000
v -0.892724 0.020000 -0.415000
v 0.535000 3.495000 -0.025000
v 0.535000 3.505000 -0.015000
v 0.545000 3.495000 -0.015000
v 0.535000 3.505000 0.015000
v 0.535000 3.495000 0.025000
v 0.545000 3.495000 0.015000
v -0.535000 3.505000 -0.015000
v -0.535000 3.495000 -0.025000
v -0.545000 3.495000 -0.015000
v -0.535000 3.505000 0.015000
v -0.545000 3.495000 0.015000
v -0.535000 3.495000 0.025000
v -0.017321 2.364429 0.374417
v 0.000000 2.374119 0.371943
v 0.017321 2.364429 0.374417
v 0.025000 3.485000 -0.040000
v 0.025000 3.500000 -0.025000
v 0.025000 3.500000 0.025000
v 0.025000 3.485000 0.040000
v -0.025000 3.500000 -0.025000
v -0.025000 3.485000 -0.040000
v -0.025000 3.500000 0.025000
v -0.025000 3.485000 0.040000
vn -1.0000 -0.0000 -0.0000
vn -0.8660 -0.0000 0.5000
vn -0.8658 0.0248 0.4998
vn -0.9950 0.0996 -0.0000
vn -0.7071 -0.0000 -0.7071
vn -0.6963 0.1739 -0.6963
vn -0.7071 -0.7071 -0.0000
vn -0.6547 -0.6547 0.3780
vn -0.7071 -0.0000 0.7071
vn -0.7032 0.1052 0.7032
vn -0.5774 0.5773 0.5773
vn -0.7071 0.7071 -0.0000
vn -0.0000 -0.0000 -1.0000
vn -0.0261 0.1505 -0.9883
vn -0.0000 0.1442 -0.9895
vn -0.5774 -0.5773 -0.5773
vn -0.5774 0.5773 -0.5773
vn -0.0000 -1.0000 -0.0000
vn -0.5774 -0.5774 0.5774
vn -0.0000 -0.0000 1.0000
vn -0.0000 0.2654 0.9641
vn -0.0109 0.2657 0.9640
vn -0.0681 0.2660 0.9616
vn -0.0229 0.2856 0.9581
vn -0.0226 0.2858 0.9580
vn -0.0069 0.7071 0.7071
vn -0.0000 0.8944 0.4472
vn -0.0000 1.0000 -0.0000
vn 0.7071 -0.0000 -0.7071
vn 0.0261 0.1505 -0.9883
vn 0.6963 0.1739 -0.6963
vn -0.0000 -0.7071 -0.7071
vn -0.0069 0.7071 -0.7071
vn -0.0000 0.7071 -0.7071
vn -0.0000 0.8944 -0.4472
vn -0.0000 -0.7071 0.7071
vn 0.7071 -0.0000 0.7071
vn 0.7032 0.1052 0.7032
vn 0.0681 0.2660 0.9616
vn 0.0109 0.2657 0.9640
vn 0.0229 0.2856 0.9581
vn 0.0226 0.2858 0.9580
vn -0.0000 0.2863 0.9581
vn -0.0000 0.7071 0.7071
vn 0.0069 0.7071 0.7071
vn 0.5774 0.5773 0.5773
vn 0.7071 0.7071 -0.0000
vn 1.0000 -0.0000 -0.0000
vn 0.9950 0.0996 -0.0000
vn 0.5774 -0.5773 -0.5773
vn 0.0069 0.7071 -0.7071
vn 0.5774 0.5773 -0.5773
vn 0.7071 -0.7071 -0.0000
vn 0.6547 -0.6547 0.3780
vn 0.5774 -0.5774 0.5774
vn 0.8660 -0.0000 0.5000
vn 0.8658 0.0248 0.4998
vt 0.00000 0.00000
vt 0.00000 0.00225
vt 0.07584 0.67621
vt 0.07584 0.67803
vt 0.08143 0.00134
vt 0.08143 0.00471
vt 0.08266 0.22263
vt 0.08542 0.22076
vt 0.08819 0.22263
vt 0.08941 0.00134
vt 0.08941 0.00471
vt 0.09500 0.67621
vt 0.09500 0.67803
vt 0.17085 0.00000
vt 0.17085 0.00225
vt 0.17373 0.60798
vt 0.17373 0.66862
vt 0.17373 0.99813
vt 0.17399 0.60614
vt 0.17500 0.61011
vt 0.17532 0.66675
vt 0.17532 0.66862
vt 0.17532 0.99813
vt 0.17532 1.00000
vt 0.17560 0.60840
vt 0.17587 0.60656
vt 0.19448 0.66675
vt 0.19448 0.66862
vt 0.19448 0.99813
vt 0.19448 1.00000
vt 0.42201 0.82218
vt 0.42201 0.84457
vt 0.42212 0.66165
vt 0.42273 0.65993
vt 0.42300 0.65809
vt 0.42361 0.82218
vt 0.42361 0.84457
vt 0.43495 0.00155
vt 0.43675 0.00000
vt 0.43683 0.00197
vt 0.44118 0.66339
vt 0.44137 0.00086
vt 0.44144 0.00283
vt 0.44144 0.66155
vt 0.44432 0.00283
vt 0.44432 0.66155
vt 0.44440 0.00086
vt 0.44459 0.66339
vt 0.44893 0.00197
vt 0.44901 0.00000
vt 0.45081 0.00155
vt 0.46277 0.65809
vt 0.46303 0.65993
vt 0.46364 0.66165
vt 0.70990 0.60656
vt 0.71016 0.60840
vt 0.71076 0.61011
vt 0.71177 0.60614
vt 0.71204 0.60798
vt 0.71492 0.65686
vt 0.71492 0.65872
vt 0.71492 0.75746
vt 0.71492 0.76679
vt 0.71651 0.65705
vt 0.71651 0.65890
vt 0.71651 0.66227
vt 0.71651 0.86198
vt 0.72130 0.66227
vt 0.72130 0.86198
vt 0.72290 0.75746
vt 0.72290 0.76679
vt 0.77044 0.00186
vt 0.77204 0.00000
vt 0.77204 0.00204
vt 0.85347 0.00111
vt 0.85347 0.00417
vt 0.86145 0.00111
vt 0.86145 0.00417
vt 0.94288 0.00000
vt 0.94288 0.00204
vt 0.94448 0.00186
vt 0.99840 0.65705
vt 0.99840 0.65890
vt 1.00000 0.65686
vt 1.00000 0.65872
s 0
usemtl MMOFPS_collision
f 1/31/36 3/36/36 7/37/36
f 1/31/36 7/37/36 6/32/36
f 10/19/10 37/40/10 9/26/10
f 10/19/10 38/38/10 37/40/10
f 12/17/32 11/22/32 19/23/32
f 12/17/32 19/23/32 21/18/32
f 13/21/50 11/22/50 12/17/50
f 13/21/53 16/28/53 11/22/53
f 13/21/53 17/27/53 16/28/53
f 14/82/13 12/83/13 21/65/13
f 14/82/13 21/65/13 22/64/13
f 15/84/29 12/83/29 14/82/29
f 15/84/29 13/85/29 12/83/29
f 16/54/54 17/53/54 2/56/54
f 16/54/54 2/56/54 1/57/54
f 18/52/48 13/48/48 15/46/48
f 18/52/48 17/53/48 13/48/48
f 18/52/57 32/49/57 5/55/57
f 19/23/18 1/31/18 6/32/18
f 19/23/18 11/22/18 16/28/18
f 19/23/18 16/28/18 1/31/18
f 19/23/18 6/32/18 24/29/18
f 2/56/55 3/59/55 1/57/55
f 2/56/56 17/53/56 18/52/56
f 2/56/56 18/52/56 5/55/56
f 20/24/7 19/23/7 24/29/7
f 20/24/7 24/29/7 25/30/7
f 21/18/16 19/23/16 20/24/16
f 22/64/5 20/61/5 23/60/5
f 22/64/5 21/65/5 20/61/5
f 23/44/1 20/41/1 25/34/1
f 23/44/1 25/34/1 26/35/1
f 24/33/8 6/20/8 8/25/8
f 24/33/8 8/25/8 25/34/8
f 25/34/2 8/25/2 9/26/2
f 25/34/2 9/26/2 26/35/2
f 27/80/31 29/81/31 14/82/31
f 28/67/35 43/63/35 46/62/35
f 28/67/35 46/62/35 33/66/35
f 28/79/51 27/80/51 42/78/51
f 28/79/52 29/81/52 27/80/52
f 29/45/49 18/52/49 15/46/49
f 29/45/49 32/49/49 18/52/49
f 29/81/31 15/84/31 14/82/31
f 3/59/37 2/56/37 5/55/37
f 3/59/37 5/55/37 4/58/37
f 30/69/28 28/67/28 33/66/28
f 30/69/28 33/66/28 36/68/28
f 31/2/39 41/7/39 4/3/39
f 31/2/42 45/6/42 40/8/42
f 31/51/46 32/49/46 30/50/46
f 32/49/38 31/51/38 4/58/38
f 32/49/47 28/47/47 30/50/47
f 32/49/47 29/45/47 28/47/47
f 33/73/17 34/74/17 35/72/17
f 33/73/33 46/75/33 47/76/33
f 33/73/33 47/76/33 34/74/33
f 34/74/14 47/76/14 22/64/14
f 35/72/6 22/64/6 23/60/6
f 35/72/6 34/74/6 22/64/6
f 36/39/12 33/42/12 35/43/12
f 36/39/12 35/43/12 37/40/12
f 37/40/4 23/44/4 26/35/4
f 37/40/4 35/43/4 23/44/4
f 38/38/11 36/39/11 37/40/11
f 39/9/23 38/15/23 10/12/23
f 39/9/24 40/8/24 38/15/24
f 4/3/21 40/8/21 10/12/21
f 40/8/22 39/9/22 10/12/22
f 40/8/25 49/11/25 38/15/25
f 41/7/40 40/8/40 4/3/40
f 41/7/41 31/2/41 40/8/41
f 42/78/30 27/80/30 14/82/30
f 43/77/51 28/79/51 42/78/51
f 44/5/45 45/6/45 30/1/45
f 45/6/43 49/11/43 40/8/43
f 45/6/44 44/5/44 48/10/44
f 45/6/44 48/10/44 49/11/44
f 45/6/45 31/2/45 30/1/45
f 46/75/34 42/78/34 47/76/34
f 46/75/34 43/77/34 42/78/34
f 47/76/15 14/82/15 22/64/15
f 47/76/15 42/78/15 14/82/15
f 48/70/27 30/69/27 36/68/27
f 48/70/27 44/71/27 30/69/27
f 49/11/26 36/14/26 38/15/26
f 49/11/26 48/10/26 36/14/26
f 5/55/38 32/49/38 4/58/38
f 6/20/19 7/16/19 8/25/19
f 7/13/20 3/4/20 4/3/20
f 7/13/20 4/3/20 10/12/20
f 8/25/9 10/19/9 9/26/9
f 8/25/9 7/16/9 10/19/9
f 9/26/3 37/40/3 26/35/3
