# Blender 4.0.2
# www.blender.org
mtllib comms_relay.mtl
o comms_relay
v 0.370000 0.040000 -0.250000
v 0.370000 0.070000 -0.280000
v 0.400000 0.070000 -0.250000
v 0.370000 0.510000 -0.280000
v 0.370000 0.540000 -0.250000
v 0.400000 0.510000 -0.250000
v 0.370000 0.040000 0.250000
v 0.400000 0.070000 0.250000
v 0.370000 0.070000 0.280000
v 0.370000 0.540000 0.250000
v 0.370000 0.510000 0.280000
v 0.400000 0.510000 0.250000
v -0.370000 0.040000 -0.250000
v -0.400000 0.070000 -0.250000
v -0.370000 0.070000 -0.280000
v -0.370000 0.540000 -0.250000
v -0.370000 0.510000 -0.280000
v -0.400000 0.510000 -0.250000
v -0.370000 0.040000 0.250000
v -0.370000 0.070000 0.280000
v -0.400000 0.070000 0.250000
v -0.370000 0.540000 0.250000
v -0.400000 0.510000 0.250000
v -0.370000 0.510000 0.280000
v 0.435000 0.000000 -0.295000
v 0.435000 0.015000 -0.310000
v 0.450000 0.015000 -0.295000
v 0.435000 0.025000 -0.310000
v 0.435000 0.040000 -0.295000
v 0.450000 0.025000 -0.295000
v 0.435000 0.000000 0.295000
v 0.450000 0.015000 0.295000
v 0.435000 0.015000 0.310000
v 0.435000 0.040000 0.295000
v 0.435000 0.025000 0.310000
v 0.450000 0.025000 0.295000
v -0.435000 0.000000 -0.295000
v -0.450000 0.015000 -0.295000
v -0.435000 0.015000 -0.310000
v -0.435000 0.040000 -0.295000
v -0.435000 0.025000 -0.310000
v -0.450000 0.025000 -0.295000
v -0.435000 0.000000 0.295000
v -0.435000 0.015000 0.310000
v -0.450000 0.015000 0.295000
v -0.435000 0.040000 0.295000
v -0.450000 0.025000 0.295000
v -0.435000 0.025000 0.310000
v 0.270000 0.150000 0.280000
v 0.270000 0.160000 0.270000
v 0.280000 0.160000 0.280000
v 0.270000 0.440000 0.270000
v 0.270000 0.450000 0.280000
v 0.280000 0.440000 0.280000
v 0.270000 0.150000 0.290000
v 0.280000 0.160000 0.290000
v 0.270000 0.160000 0.300000
v 0.270000 0.450000 0.290000
v 0.270000 0.440000 0.300000
v 0.280000 0.440000 0.290000
v -0.270000 0.150000 0.280000
v -0.280000 0.160000 0.280000
v -0.270000 0.160000 0.270000
v -0.270000 0.450000 0.280000
v -0.270000 0.440000 0.270000
v -0.280000 0.440000 0.280000
v -0.270000 0.150000 0.290000
v -0.270000 0.160000 0.300000
v -0.280000 0.160000 0.290000
v -0.270000 0.450000 0.290000
v -0.280000 0.440000 0.290000
v -0.270000 0.440000 0.300000
v 0.192000 0.460000 0.280500
v 0.192000 0.468000 0.272500
v 0.200000 0.468000 0.280500
v 0.192000 0.492000 0.272500
v 0.192000 0.500000 0.280500
v 0.200000 0.492000 0.280500
v 0.192000 0.460000 0.299500
v 0.200000 0.468000 0.299500
v 0.192000 0.468000 0.307500
v 0.192000 0.500000 0.299500
v 0.192000 0.492000 0.307500
v 0.200000 0.492000 0.299500
v -0.192000 0.460000 0.280500
v -0.200000 0.468000 0.280500
v -0.192000 0.468000 0.272500
v -0.192000 0.500000 0.280500
v -0.192000 0.492000 0.272500
v -0.200000 0.492000 0.280500
v -0.192000 0.460000 0.299500
v -0.192000 0.468000 0.307500
v -0.200000 0.468000 0.299500
v -0.192000 0.500000 0.299500
v -0.200000 0.492000 0.299500
v -0.192000 0.492000 0.307500
v 0.137000 0.226000 0.296000
v 0.137000 0.334000 0.296000
v 0.137000 0.226000 0.308000
v 0.137000 0.334000 0.308000
v 0.101000 0.226000 0.296000
v 0.101000 0.334000 0.296000
v 0.101000 0.226000 0.308000
v 0.101000 0.334000 0.308000
v 0.078500 0.226000 0.296000
v 0.078500 0.334000 0.296000
v 0.078500 0.226000 0.308000
v 0.078500 0.334000 0.308000
v 0.060500 0.226000 0.296000
v 0.060500 0.334000 0.296000
v 0.060500 0.226000 0.308000
v 0.060500 0.334000 0.308000
v 0.038000 0.226000 0.296000
v 0.038000 0.334000 0.296000
v 0.038000 0.226000 0.308000
v 0.038000 0.334000 0.308000
v 0.002000 0.226000 0.296000
v 0.002000 0.334000 0.296000
v 0.002000 0.226000 0.308000
v 0.002000 0.334000 0.308000
v -0.020500 0.226000 0.296000
v -0.020500 0.334000 0.296000
v -0.020500 0.226000 0.308000
v -0.020500 0.334000 0.308000
v -0.056500 0.226000 0.296000
v -0.056500 0.334000 0.296000
v -0.056500 0.226000 0.308000
v -0.056500 0.334000 0.308000
v -0.079000 0.226000 0.296000
v -0.079000 0.334000 0.296000
v -0.079000 0.226000 0.308000
v -0.079000 0.334000 0.308000
v -0.097000 0.226000 0.296000
v -0.097000 0.334000 0.296000
v -0.097000 0.226000 0.308000
v -0.097000 0.334000 0.308000
v 0.080000 0.530000 -0.080000
v 0.080000 0.550000 -0.100000
v 0.100000 0.550000 -0.080000
v 0.080000 0.650000 -0.100000
v 0.080000 0.670000 -0.080000
v 0.100000 0.650000 -0.080000
v 0.080000 0.530000 0.080000
v 0.100000 0.550000 0.080000
v 0.080000 0.550000 0.100000
v 0.080000 0.670000 0.080000
v 0.080000 0.650000 0.100000
v 0.100000 0.650000 0.080000
v -0.080000 0.530000 -0.080000
v -0.100000 0.550000 -0.080000
v -0.080000 0.550000 -0.100000
v -0.080000 0.670000 -0.080000
v -0.080000 0.650000 -0.100000
v -0.100000 0.650000 -0.080000
v -0.080000 0.530000 0.080000
v -0.080000 0.550000 0.100000
v -0.100000 0.550000 0.080000
v -0.080000 0.670000 0.080000
v -0.100000 0.650000 0.080000
v -0.080000 0.650000 0.100000
v 0.000000 0.670000 0.055000
v 0.000000 2.170000 0.055000
v -0.038891 0.670000 0.038891
v -0.038891 2.170000 0.038891
v -0.055000 0.670000 0.000000
v -0.055000 2.170000 0.000000
v -0.038891 0.670000 -0.038891
v -0.038891 2.170000 -0.038891
v 0.000000 0.670000 -0.055000
v 0.000000 2.170000 -0.055000
v 0.038891 0.670000 -0.038891
v 0.038891 2.170000 -0.038891
v 0.055000 0.670000 0.000000
v 0.055000 2.170000 0.000000
v 0.038891 0.670000 0.038891
v 0.038891 2.170000 0.038891
v 0.000000 2.150000 0.040000
v 0.000000 3.450000 0.040000
v -0.028284 2.150000 0.028284
v -0.028284 3.450000 0.028284
v -0.040000 2.150000 0.000000
v -0.040000 3.450000 0.000000
v -0.028284 2.150000 -0.028284
v -0.028284 3.450000 -0.028284
v 0.000000 2.150000 -0.040000
v 0.000000 3.450000 -0.040000
v 0.028284 2.150000 -0.028284
v 0.028284 3.450000 -0.028284
v 0.040000 2.150000 0.000000
v 0.040000 3.450000 0.000000
v 0.028284 2.150000 0.028284
v 0.028284 3.450000 0.028284
v 0.010000 0.008464 0.942432
v 0.010000 0.010012 0.921275
v 0.025000 0.019816 0.932627
v 0.010000 1.087307 -0.009116
v 0.010000 1.108464 -0.007568
v 0.025000 1.097111 0.002236
v 0.010000 0.021536 0.957568
v 0.025000 0.032888 0.947764
v 0.010000 0.042693 0.959116
v 0.010000 1.121536 0.007568
v 0.010000 1.119988 0.028725
v 0.025000 1.110184 0.017372
v -0.010000 0.008464 0.942432
v -0.025000 0.019816 0.932627
v -0.010000 0.010012 0.921275
v -0.010000 1.108464 -0.007568
v -0.010000 1.087307 -0.009116
v -0.025000 1.097111 0.002236
v -0.010000 0.021536 0.957568
v -0.010000 0.042693 0.959116
v -0.025000 0.032888 0.947764
v -0.010000 1.121536 0.007568
v -0.025000 1.110184 0.017372
v -0.010000 1.119988 0.028725
v 0.060000 0.000000 0.890000
v 0.060000 0.010000 0.880000
v 0.070000 0.010000 0.890000
v 0.060000 0.020000 0.880000
v 0.060000 0.030000 0.890000
v 0.070000 0.020000 0.890000
v 0.060000 0.000000 1.010000
v 0.070000 0.010000 1.010000
v 0.060000 0.010000 1.020000
v 0.060000 0.030000 1.010000
v 0.060000 0.020000 1.020000
v 0.070000 0.020000 1.010000
v -0.060000 0.000000 0.890000
v -0.070000 0.010000 0.890000
v -0.060000 0.010000 0.880000
v -0.060000 0.030000 0.890000
v -0.060000 0.020000 0.880000
v -0.070000 0.020000 0.890000
v -0.060000 0.000000 1.010000
v -0.060000 0.010000 1.020000
v -0.070000 0.010000 1.010000
v -0.060000 0.030000 1.010000
v -0.070000 0.020000 1.010000
v -0.060000 0.020000 1.020000
v 0.811170 0.008464 -0.479876
v 0.792848 0.010012 -0.469298
v 0.795179 0.019816 -0.487964
v -0.012895 1.087307 -0.004102
v -0.011554 1.108464 -0.004876
v -0.010564 1.097111 -0.022769
v 0.824278 0.021536 -0.487444
v 0.808288 0.032888 -0.495533
v 0.825619 0.042693 -0.488218
v 0.001554 1.121536 -0.012444
v 0.019876 1.119988 -0.023023
v 0.002545 1.110184 -0.030337
v 0.821170 0.008464 -0.462556
v 0.820179 0.019816 -0.444663
v 0.802848 0.010012 -0.451977
v -0.001554 1.108464 0.012444
v -0.002895 1.087307 0.013218
v 0.014436 1.097111 0.020533
v 0.834278 0.021536 -0.470124
v 0.835619 0.042693 -0.470898
v 0.833288 0.032888 -0.452231
v 0.011554 1.121536 0.004876
v 0.027545 1.110184 0.012964
v 0.029876 1.119988 -0.005702
v 0.882724 0.000000 -0.535000
v 0.882724 0.010000 -0.545000
v 0.892724 0.010000 -0.535000
v 0.882724 0.020000 -0.545000
v 0.882724 0.030000 -0.535000
v 0.892724 0.020000 -0.535000
v 0.882724 0.000000 -0.415000
v 0.892724 0.010000 -0.415000
v 0.882724 0.010000 -0.405000
v 0.882724 0.030000 -0.415000
v 0.882724 0.020000 -0.405000
v 0.892724 0.020000 -0.415000
v 0.762724 0.000000 -0.535000
v 0.752724 0.010000 -0.535000
v 0.762724 0.010000 -0.545000
v 0.762724 0.030000 -0.535000
v 0.762724 0.020000 -0.545000
v 0.752724 0.020000 -0.535000
v 0.762724 0.000000 -0.415000
v 0.762724 0.010000 -0.405000
v 0.752724 0.010000 -0.415000
v 0.762724 0.030000 -0.415000
v 0.752724 0.020000 -0.415000
v 0.762724 0.020000 -0.405000
v -0.821170 0.008464 -0.462556
v -0.802848 0.010012 -0.451977
v -0.820179 0.019816 -0.444663
v 0.002895 1.087307 0.013218
v 0.001554 1.108464 0.012444
v -0.014436 1.097111 0.020533
v -0.834278 0.021536 -0.470124
v -0.833288 0.032888 -0.452231
v -0.835619 0.042693 -0.470898
v -0.011554 1.121536 0.004876
v -0.029876 1.119988 -0.005702
v -0.027545 1.110184 0.012964
v -0.811170 0.008464 -0.479876
v -0.795179 0.019816 -0.487964
v -0.792848 0.010012 -0.469298
v 0.011554 1.108464 -0.004876
v 0.012895 1.087307 -0.004102
v 0.010564 1.097111 -0.022769
v -0.824278 0.021536 -0.487444
v -0.825619 0.042693 -0.488218
v -0.808288 0.032888 -0.495533
v -0.001554 1.121536 -0.012444
v -0.002545 1.110184 -0.030337
v -0.019876 1.119988 -0.023023
v -0.762724 0.000000 -0.535000
v -0.762724 0.010000 -0.545000
v -0.752724 0.010000 -0.535000
v -0.762724 0.020000 -0.545000
v -0.762724 0.030000 -0.535000
v -0.752724 0.020000 -0.535000
v -0.762724 0.000000 -0.415000
v -0.752724 0.010000 -0.415000
v -0.762724 0.010000 -0.405000
v -0.762724 0.030000 -0.415000
v -0.762724 0.020000 -0.405000
v -0.752724 0.020000 -0.415000
v -0.882724 0.000000 -0.535000
v -0.892724 0.010000 -0.535000
v -0.882724 0.010000 -0.545000
v -0.882724 0.030000 -0.535000
v -0.882724 0.020000 -0.545000
v -0.892724 0.020000 -0.535000
v -0.882724 0.000000 -0.415000
v -0.882724 0.010000 -0.405000
v -0.892724 0.010000 -0.415000
v -0.882724 0.030000 -0.415000
v -0.892724 0.020000 -0.415000
v -0.882724 0.020000 -0.405000
v 0.535000 2.925000 -0.010000
v 0.535000 2.940000 -0.025000
v 0.550000 2.940000 -0.010000
v 0.535000 2.960000 -0.025000
v 0.535000 2.975000 -0.010000
v 0.550000 2.960000 -0.010000
v 0.535000 2.925000 0.010000
v 0.550000 2.940000 0.010000
v 0.535000 2.940000 0.025000
v 0.535000 2.975000 0.010000
v 0.535000 2.960000 0.025000
v 0.550000 2.960000 0.010000
v -0.535000 2.925000 -0.010000
v -0.550000 2.940000 -0.010000
v -0.535000 2.940000 -0.025000
v -0.535000 2.975000 -0.010000
v -0.535000 2.960000 -0.025000
v -0.550000 2.960000 -0.010000
v -0.535000 2.925000 0.010000
v -0.535000 2.940000 0.025000
v -0.550000 2.940000 0.010000
v -0.535000 2.975000 0.010000
v -0.550000 2.960000 0.010000
v -0.535000 2.960000 0.025000
v 0.520000 2.970000 0.012000
v 0.520000 3.470000 0.012000
v 0.509608 2.970000 0.006000
v 0.509608 3.470000 0.006000
v 0.509608 2.970000 -0.006000
v 0.509608 3.470000 -0.006000
v 0.520000 2.970000 -0.012000
v 0.520000 3.470000 -0.012000
v 0.530392 2.970000 -0.006000
v 0.530392 3.470000 -0.006000
v 0.530392 2.970000 0.006000
v 0.530392 3.470000 0.006000
v 0.535000 3.455000 -0.015000
v 0.535000 3.465000 -0.025000
v 0.545000 3.465000 -0.015000
v 0.535000 3.495000 -0.025000
v 0.535000 3.505000 -0.015000
v 0.545000 3.495000 -0.015000
v 0.535000 3.455000 0.015000
v 0.545000 3.465000 0.015000
v 0.535000 3.465000 0.025000
v 0.535000 3.505000 0.015000
v 0.535000 3.495000 0.025000
v 0.545000 3.495000 0.015000
v 0.505000 3.455000 -0.015000
v 0.495000 3.465000 -0.015000
v 0.505000 3.465000 -0.025000
v 0.505000 3.505000 -0.015000
v 0.505000 3.495000 -0.025000
v 0.495000 3.495000 -0.015000
v 0.505000 3.455000 0.015000
v 0.505000 3.465000 0.025000
v 0.495000 3.465000 0.015000
v 0.505000 3.505000 0.015000
v 0.495000 3.495000 0.015000
v 0.505000 3.495000 0.025000
v -0.520000 2.970000 0.012000
v -0.520000 3.470000 0.012000
v -0.530392 2.970000 0.006000
v -0.530392 3.470000 0.006000
v -0.530392 2.970000 -0.006000
v -0.530392 3.470000 -0.006000
v -0.520000 2.970000 -0.012000
v -0.520000 3.470000 -0.012000
v -0.509608 2.970000 -0.006000
v -0.509608 3.470000 -0.006000
v -0.509608 2.970000 0.006000
v -0.509608 3.470000 0.006000
v -0.505000 3.455000 -0.015000
v -0.505000 3.465000 -0.025000
v -0.495000 3.465000 -0.015000
v -0.505000 3.495000 -0.025000
v -0.505000 3.505000 -0.015000
v -0.495000 3.495000 -0.015000
v -0.505000 3.455000 0.015000
v -0.495000 3.465000 0.015000
v -0.505000 3.465000 0.025000
v -0.505000 3.505000 0.015000
v -0.505000 3.495000 0.025000
v -0.495000 3.495000 0.015000
v -0.535000 3.455000 -0.015000
v -0.545000 3.465000 -0.015000
v -0.535000 3.465000 -0.025000
v -0.535000 3.505000 -0.015000
v -0.535000 3.495000 -0.025000
v -0.545000 3.495000 -0.015000
v -0.535000 3.455000 0.015000
v -0.535000 3.465000 0.025000
v -0.545000 3.465000 0.015000
v -0.535000 3.505000 0.015000
v -0.545000 3.495000 0.015000
v -0.535000 3.495000 0.025000
v 0.000000 2.096321 0.150724
v 0.000000 1.980466 0.262874
v -0.100000 2.122283 0.144095
v -0.170000 2.024601 0.251604
v -0.173205 2.193213 0.125984
v -0.294449 2.145181 0.220815
v -0.200000 2.290104 0.101244
v -0.340000 2.309896 0.178757
v -0.173205 2.386995 0.076503
v -0.294449 2.474611 0.136698
v -0.100000 2.457924 0.058392
v -0.170000 2.595191 0.105909
v 0.000000 2.483886 0.051763
v 0.000000 2.639326 0.094639
v 0.100000 2.457924 0.058392
v 0.170000 2.595191 0.105909
v 0.173205 2.386995 0.076503
v 0.294449 2.474611 0.136698
v 0.200000 2.290104 0.101244
v 0.340000 2.309896 0.178757
v 0.173205 2.193213 0.125984
v 0.294449 2.145181 0.220815
v 0.100000 2.122283 0.144095
v 0.170000 2.024601 0.251604
v 0.000000 2.285881 0.188057
v 0.000000 2.335362 0.381839
v -0.017321 2.295570 0.185583
v -0.017321 2.345051 0.379365
v -0.017321 2.314949 0.180635
v -0.017321 2.364429 0.374417
v 0.000000 2.324638 0.178161
v 0.000000 2.374119 0.371943
v 0.017321 2.314949 0.180635
v 0.017321 2.364429 0.374417
v 0.017321 2.295570 0.185583
v 0.017321 2.345051 0.379365
v 0.025000 3.400000 -0.025000
v 0.025000 3.415000 -0.040000
v 0.040000 3.415000 -0.025000
v 0.025000 3.485000 -0.040000
v 0.025000 3.500000 -0.025000
v 0.040000 3.485000 -0.025000
v 0.025000 3.400000 0.025000
v 0.040000 3.415000 0.025000
v 0.025000 3.415000 0.040000
v 0.025000 3.500000 0.025000
v 0.025000 3.485000 0.040000
v 0.040000 3.485000 0.025000
v -0.025000 3.400000 -0.025000
v -0.040000 3.415000 -0.025000
v -0.025000 3.415000 -0.040000
v -0.025000 3.500000 -0.025000
v -0.025000 3.485000 -0.040000
v -0.040000 3.485000 -0.025000
v -0.025000 3.400000 0.025000
v -0.025000 3.415000 0.040000
v -0.040000 3.415000 0.025000
v -0.025000 3.500000 0.025000
v -0.040000 3.485000 0.025000
v -0.025000 3.485000 0.040000
vn -0.0000 -0.0000 -1.0000
vn -1.0000 -0.0000 -0.0000
vn -0.0000 1.0000 -0.0000
vn 1.0000 -0.0000 -0.0000
vn -0.0000 -0.0000 1.0000
vn 0.5774 -0.5773 -0.5773
vn 0.5774 0.5773 -0.5773
vn 0.5774 -0.5773 0.5773
vn 0.5774 0.5773 0.5773
vn -0.5774 -0.5773 -0.5773
vn -0.5774 0.5773 -0.5773
vn -0.5774 -0.5773 0.5773
vn -0.5774 0.5773 0.5773
vn 0.7071 -0.7071 -0.0000
vn 0.7071 -0.0000 -0.7071
vn 0.7071 0.7071 -0.0000
vn 0.7071 -0.0000 0.7071
vn -0.0000 -0.7071 0.7071
vn -0.0000 0.7071 0.7071
vn -0.7071 -0.0000 0.7071
vn -0.7071 -0.7071 -0.0000
vn -0.7071 0.7071 -0.0000
vn -0.7071 -0.0000 -0.7071
vn -0.0000 -0.7071 -0.7071
vn -0.0000 0.7071 -0.7071
vn -0.0000 -1.0000 -0.0000
vn 0.5774 0.5773 -0.5774
vn 0.5774 0.5773 0.5774
vn -0.5774 0.5773 -0.5774
vn -0.5774 0.5773 0.5774
vn 0.5774 -0.5773 -0.5774
vn 0.5774 0.5774 -0.5774
vn 0.5774 -0.5773 0.5774
vn 0.5774 0.5774 0.5774
vn -0.5774 -0.5773 -0.5774
vn -0.5774 0.5774 -0.5774
vn -0.5774 -0.5773 0.5774
vn -0.5774 0.5774 0.5774
vn 0.5773 -0.5774 -0.5774
vn 0.5773 0.5774 -0.5774
vn 0.5773 -0.5774 0.5774
vn 0.5773 0.5774 0.5774
vn -0.5773 -0.5774 -0.5774
vn -0.5773 0.5774 -0.5774
vn -0.5773 -0.5774 0.5774
vn -0.5773 0.5774 0.5774
vn -0.0000 0.6303 0.7764
vn -0.5490 -0.6303 0.5490
vn -0.0000 -0.6303 0.7764
vn -0.5490 0.6303 0.5490
vn -0.7764 -0.6303 -0.0000
vn -0.7764 0.6303 -0.0000
vn -0.5490 -0.6303 -0.5490
vn -0.5490 0.6303 -0.5490
vn -0.0000 -0.6303 -0.7764
vn -0.0000 0.6303 -0.7764
vn 0.5490 -0.6303 -0.5490
vn 0.5490 0.6303 -0.5490
vn 0.7764 -0.6303 -0.0000
vn 0.7764 0.6303 -0.0000
vn 0.5490 -0.6303 0.5490
vn 0.5490 0.6303 0.5490
vn -0.0000 -0.6536 -0.7568
vn -0.0000 0.7568 -0.6536
vn -0.0000 0.6536 0.7568
vn 0.5773 -0.8143 -0.0596
vn 0.5773 0.0596 -0.8143
vn 0.5774 -0.0596 0.8143
vn 0.5773 0.8143 0.0596
vn -0.5773 -0.8143 -0.0596
vn -0.5773 0.0596 -0.8143
vn -0.5774 -0.0596 0.8143
vn -0.5773 0.8143 0.0596
vn 0.7071 -0.5352 0.4622
vn 0.7071 -0.4622 -0.5352
vn 0.7071 0.5352 -0.4622
vn 0.7071 0.4622 0.5352
vn -0.0000 -0.0730 0.9973
vn -0.0000 0.9973 0.0730
vn -0.7071 0.4622 0.5352
vn -0.7071 -0.5352 0.4622
vn -0.7071 0.5352 -0.4622
vn -0.7071 -0.4622 -0.5352
vn -0.0000 -0.9973 -0.0730
vn -0.0000 0.0730 -0.9973
vn -0.0000 -0.7568 0.6536
vn 0.5774 -0.5774 -0.5774
vn 0.5774 -0.5774 0.5774
vn -0.5774 -0.5774 -0.5774
vn -0.5774 -0.5774 0.5774
vn -0.6554 -0.6536 0.3784
vn 0.5000 -0.0000 0.8660
vn -0.5661 0.7568 0.3268
vn -0.5000 -0.0000 -0.8660
vn 0.6554 0.6536 -0.3784
vn -0.3403 -0.8143 -0.4702
vn -0.9939 0.0596 -0.0928
vn 0.4165 -0.0596 -0.9072
vn -0.2371 0.8143 -0.5298
vn 0.2371 -0.8143 0.5298
vn -0.4165 0.0596 0.9072
vn 0.9939 -0.0596 0.0928
vn 0.3403 0.8143 0.4702
vn 0.0467 -0.5352 -0.8435
vn -0.8170 -0.4622 -0.3448
vn -0.7538 0.5352 -0.3813
vn 0.1099 0.4622 -0.8799
vn 0.8637 -0.0730 -0.4987
vn 0.0632 0.9973 -0.0365
vn 0.8170 0.4622 0.3448
vn 0.7538 -0.5352 0.3813
vn -0.0467 0.5352 0.8435
vn -0.1099 -0.4622 0.8799
vn -0.0632 -0.9973 0.0365
vn -0.8637 0.0730 0.4987
vn 0.5661 -0.7568 -0.3268
vn 0.6554 -0.6536 0.3784
vn 0.5000 -0.0000 -0.8660
vn 0.5661 0.7568 0.3268
vn -0.5000 -0.0000 0.8660
vn -0.6554 0.6536 -0.3784
vn -0.2371 -0.8143 0.5298
vn 0.4165 0.0596 0.9072
vn -0.9939 -0.0596 0.0928
vn -0.3403 0.8143 0.4702
vn 0.3403 -0.8143 -0.4702
vn 0.9939 0.0596 -0.0928
vn -0.4165 -0.0596 -0.9072
vn 0.2371 0.8143 -0.5298
vn -0.7538 -0.5352 0.3813
vn 0.1099 -0.4622 0.8800
vn 0.0467 0.5352 0.8435
vn -0.8170 0.4622 0.3448
vn -0.8637 -0.0730 -0.4987
vn -0.0632 0.9973 -0.0365
vn -0.1099 0.4622 -0.8799
vn -0.0467 -0.5352 -0.8435
vn 0.7538 0.5352 -0.3813
vn 0.8170 -0.4622 -0.3448
vn 0.0632 -0.9973 0.0365
vn 0.8637 0.0730 0.4987
vn -0.5661 -0.7568 -0.3268
vn 0.5773 -0.5773 0.5774
vn -0.5773 -0.5773 -0.5774
vn -0.0000 0.6100 0.7924
vn -0.6862 -0.6100 0.3962
vn -0.0000 -0.6100 0.7924
vn -0.6862 0.6100 0.3962
vn -0.6863 -0.6100 -0.3962
vn -0.6862 0.6100 -0.3962
vn -0.0000 -0.6100 -0.7924
vn -0.0000 0.6100 -0.7924
vn 0.6863 -0.6100 -0.3962
vn 0.6862 0.6100 -0.3962
vn 0.6862 -0.6100 0.3962
vn 0.6862 0.6100 0.3962
vn -0.0000 -0.8887 0.4584
vn -0.1478 -0.4845 -0.8622
vn -0.0000 -0.5228 -0.8524
vn -0.4873 -0.7622 0.4261
vn -0.2561 -0.3796 -0.8890
vn -0.9745 0.0555 0.2173
vn -0.2957 -0.2363 -0.9256
vn -0.8440 0.5276 0.0967
vn -0.2561 -0.0931 -0.9622
vn -0.4873 0.8732 0.0085
vn -0.1478 0.0118 -0.9889
vn -0.0000 0.9997 -0.0238
vn -0.0000 0.0502 -0.9987
vn 0.1478 0.0118 -0.9889
vn 0.4873 0.8732 0.0085
vn 0.2561 -0.0931 -0.9622
vn 0.8440 0.5276 0.0967
vn 0.2957 -0.2363 -0.9256
vn 0.9745 0.0555 0.2173
vn 0.2561 -0.3796 -0.8890
vn -0.0000 0.2474 0.9689
vn 0.8440 -0.4166 0.3378
vn 0.1478 -0.4845 -0.8622
vn 0.4873 -0.7622 0.4261
vn -0.0000 -0.2474 -0.9689
vn -0.0000 -0.6169 0.7871
vn -0.6862 -0.5348 -0.4930
vn -0.0000 -0.9187 -0.3950
vn -0.6862 -0.2330 0.6891
vn -0.6862 0.2330 -0.6891
vn -0.6862 0.5348 0.4930
vn -0.0000 0.6169 -0.7871
vn 0.6862 0.5348 0.4930
vn 0.6862 0.2330 -0.6891
vn 0.6862 -0.5348 -0.4930
vn 0.5774 -0.5774 -0.5773
vn 0.5774 -0.5774 0.5773
vn -0.5774 -0.5774 -0.5773
vn -0.5774 -0.5774 0.5773
vn 0.5660 0.7568 0.3268
vn 0.1099 -0.4622 0.8799
vn 0.0001 1.0000 -0.0000
vn -0.0001 1.0000 -0.0000
vn -0.0001 -1.0000 -0.0000
vn 0.0001 -1.0000 -0.0000
vn -0.8440 -0.4166 0.3378
vn -0.0000 0.9187 0.3950
vn 0.6862 -0.2330 0.6891
vt 0.00000 0.00001
vt 0.00000 0.46527
vt 0.00000 0.47623
vt 0.00000 0.63129
vt 0.00018 0.64539
vt 0.00018 0.68261
vt 0.00018 0.69977
vt 0.00018 0.73699
vt 0.00018 0.75416
vt 0.00018 0.79138
vt 0.00314 0.47627
vt 0.00314 0.63132
vt 0.00320 0.64228
vt 0.00320 0.68571
vt 0.00320 0.69667
vt 0.00320 0.74009
vt 0.00320 0.75106
vt 0.00320 0.75416
vt 0.00320 0.79138
vt 0.00320 0.79448
vt 0.00326 0.64539
vt 0.00326 0.68261
vt 0.00326 0.69977
vt 0.00326 0.73699
vt 0.00622 0.75416
vt 0.00622 0.79138
vt 0.00628 0.47623
vt 0.00628 0.63129
vt 0.00628 0.64539
vt 0.00628 0.68261
vt 0.00628 0.69977
vt 0.00628 0.73699
vt 0.01175 0.00000
vt 0.01175 0.46526
vt 0.01300 0.82073
vt 0.01300 0.87036
vt 0.01300 0.89063
vt 0.01300 0.92785
vt 0.01300 0.95115
vt 0.01300 0.96420
vt 0.01602 0.88753
vt 0.01602 0.93095
vt 0.01607 0.89063
vt 0.01607 0.92785
vt 0.01695 0.47623
vt 0.01695 0.63129
vt 0.01695 0.64228
vt 0.01695 0.79737
vt 0.01904 0.81453
vt 0.01904 0.82073
vt 0.01904 0.87036
vt 0.01904 0.87657
vt 0.02009 0.47627
vt 0.02009 0.63132
vt 0.02057 0.64228
vt 0.02057 0.79737
vt 0.02199 0.94191
vt 0.02199 0.97343
vt 0.02323 0.47623
vt 0.02323 0.63129
vt 0.02349 0.00001
vt 0.02349 0.46527
vt 0.03124 0.64228
vt 0.03124 0.67578
vt 0.03124 0.68675
vt 0.03124 0.72024
vt 0.03124 0.73120
vt 0.03124 0.76470
vt 0.03124 0.77567
vt 0.03124 0.78683
vt 0.03416 0.00000
vt 0.03416 0.46517
vt 0.03470 0.94191
vt 0.03470 0.97343
vt 0.03487 0.64228
vt 0.03487 0.67578
vt 0.03487 0.68675
vt 0.03487 0.72024
vt 0.03487 0.73120
vt 0.03487 0.76470
vt 0.03487 0.77567
vt 0.03487 0.78683
vt 0.04369 0.95114
vt 0.04369 0.96420
vt 0.04557 0.48088
vt 0.04557 0.66388
vt 0.04557 0.68198
vt 0.04557 0.80109
vt 0.04591 0.00010
vt 0.04591 0.46527
vt 0.04799 0.67950
vt 0.04799 0.80357
vt 0.04804 0.68198
vt 0.04804 0.80109
vt 0.04924 0.81453
vt 0.04924 0.82073
vt 0.04924 0.87036
vt 0.04924 0.87657
vt 0.05010 0.47623
vt 0.05010 0.48088
vt 0.05010 0.66388
vt 0.05010 0.66854
vt 0.05231 0.89063
vt 0.05231 0.92785
vt 0.05312 0.47623
vt 0.05312 0.48088
vt 0.05312 0.66388
vt 0.05312 0.66854
vt 0.05528 0.68198
vt 0.05528 0.80109
vt 0.05528 0.82073
vt 0.05528 0.87036
vt 0.05765 0.00000
vt 0.05765 0.46517
vt 0.05765 0.48088
vt 0.05765 0.66388
vt 0.06832 0.00000
vt 0.06832 0.46526
vt 0.06832 0.48087
vt 0.06832 0.75073
vt 0.06832 0.84272
vt 0.06832 0.89720
vt 0.08007 0.00000
vt 0.08007 0.46526
vt 0.09181 0.00000
vt 0.09181 0.46526
vt 0.09413 0.79512
vt 0.09413 0.94396
vt 0.10248 0.00000
vt 0.10248 0.46526
vt 0.11374 0.85483
vt 0.11374 0.88688
vt 0.11423 0.00000
vt 0.11423 0.46526
vt 0.12597 0.00000
vt 0.12597 0.46526
vt 0.12892 0.82684
vt 0.12892 0.91439
vt 0.13664 0.00465
vt 0.13664 0.44617
vt 0.13884 0.76717
vt 0.13884 0.97049
vt 0.14117 0.00000
vt 0.14117 0.00465
vt 0.14117 0.44617
vt 0.14117 0.45082
vt 0.14722 0.00000
vt 0.14722 0.00465
vt 0.14722 0.44617
vt 0.14722 0.45082
vt 0.15174 0.00465
vt 0.15174 0.44617
vt 0.15522 0.81039
vt 0.15522 0.92999
vt 0.16242 0.00465
vt 0.16242 0.44617
vt 0.16695 0.00000
vt 0.16695 0.00465
vt 0.16695 0.44617
vt 0.16695 0.45082
vt 0.17299 0.00000
vt 0.17299 0.00465
vt 0.17299 0.44617
vt 0.17299 0.45082
vt 0.17752 0.00465
vt 0.17752 0.44617
vt 0.18558 0.80991
vt 0.18558 0.92951
vt 0.18819 0.00079
vt 0.18819 0.41789
vt 0.18819 0.43932
vt 0.19046 0.76634
vt 0.19046 0.96966
vt 0.19234 0.42290
vt 0.19272 0.43467
vt 0.19272 0.43942
vt 0.19272 0.46112
vt 0.19415 0.00000
vt 0.19415 0.41710
vt 0.19788 0.42371
vt 0.19969 0.00081
vt 0.19969 0.41791
vt 0.20782 0.43467
vt 0.20782 0.43942
vt 0.20782 0.46112
vt 0.21036 0.00081
vt 0.21036 0.41791
vt 0.21188 0.82551
vt 0.21188 0.91306
vt 0.21217 0.42371
vt 0.21235 0.43932
vt 0.21590 0.00000
vt 0.21590 0.41710
vt 0.21771 0.42290
vt 0.22186 0.00079
vt 0.22186 0.41789
vt 0.22302 0.45639
vt 0.22706 0.85302
vt 0.22706 0.88506
vt 0.22755 0.43467
vt 0.22755 0.45638
vt 0.22755 0.46104
vt 0.23253 0.00584
vt 0.23253 0.42073
vt 0.23429 0.00000
vt 0.23517 0.79286
vt 0.23517 0.94170
vt 0.23810 0.00666
vt 0.23810 0.42156
vt 0.23986 0.00082
vt 0.24265 0.43467
vt 0.24265 0.45638
vt 0.24265 0.46104
vt 0.24403 0.00581
vt 0.24403 0.42071
vt 0.24647 0.48088
vt 0.24647 0.75073
vt 0.24655 0.47622
vt 0.24655 0.75538
vt 0.24718 0.45639
vt 0.25108 0.48088
vt 0.25108 0.75073
vt 0.25470 0.00581
vt 0.25470 0.42071
vt 0.25888 0.00082
vt 0.26064 0.00666
vt 0.26064 0.42156
vt 0.26098 0.83963
vt 0.26098 0.89411
vt 0.26258 0.43252
vt 0.26258 0.58761
vt 0.26258 0.59857
vt 0.26258 0.75365
vt 0.26444 0.00000
vt 0.26620 0.00584
vt 0.26620 0.42073
vt 0.26620 0.43252
vt 0.26620 0.58761
vt 0.26620 0.59857
vt 0.26620 0.75365
vt 0.27687 0.00001
vt 0.27687 0.40323
vt 0.27687 0.41885
vt 0.27687 0.60185
vt 0.27965 0.94501
vt 0.27965 0.95432
vt 0.27966 0.94191
vt 0.28140 0.41419
vt 0.28140 0.41885
vt 0.28140 0.60185
vt 0.28140 0.60650
vt 0.28268 0.61747
vt 0.28268 0.77255
vt 0.28268 0.78661
vt 0.28268 0.87346
vt 0.28268 0.89063
vt 0.28268 0.92785
vt 0.28442 0.41419
vt 0.28442 0.41885
vt 0.28442 0.60185
vt 0.28442 0.60650
vt 0.28541 0.00000
vt 0.28541 0.40323
vt 0.28570 0.78351
vt 0.28570 0.78661
vt 0.28570 0.87346
vt 0.28570 0.87657
vt 0.28570 0.88753
vt 0.28570 0.89063
vt 0.28570 0.92785
vt 0.28570 0.93095
vt 0.28581 0.61746
vt 0.28581 0.77255
vt 0.28871 0.94501
vt 0.28871 0.95432
vt 0.28872 0.78351
vt 0.28872 0.78661
vt 0.28872 0.87346
vt 0.28872 0.87657
vt 0.28872 0.88753
vt 0.28872 0.89063
vt 0.28872 0.92785
vt 0.28872 0.93095
vt 0.28872 0.94191
vt 0.28872 0.95742
vt 0.28895 0.41885
vt 0.28895 0.60185
vt 0.28895 0.61747
vt 0.28895 0.77255
vt 0.29174 0.78661
vt 0.29174 0.87346
vt 0.29174 0.89063
vt 0.29174 0.92785
vt 0.29174 0.94501
vt 0.29174 0.95432
vt 0.29396 0.00001
vt 0.29396 0.40323
vt 0.30463 0.00000
vt 0.30463 0.40323
vt 0.30463 0.68869
vt 0.30463 0.71361
vt 0.30463 0.94314
vt 0.30464 0.41884
vt 0.30916 0.69334
vt 0.30917 0.41419
vt 0.30923 0.68869
vt 0.30924 0.41884
vt 0.31317 0.00000
vt 0.31317 0.40323
vt 0.32171 0.00000
vt 0.32171 0.40323
vt 0.33238 0.00000
vt 0.33238 0.40323
vt 0.34092 0.00000
vt 0.34092 0.40323
vt 0.34947 0.00000
vt 0.34947 0.40323
vt 0.36014 0.00000
vt 0.36014 0.40314
vt 0.36868 0.00007
vt 0.36868 0.40322
vt 0.37722 0.00000
vt 0.37722 0.40314
vt 0.38789 0.00671
vt 0.38789 0.38681
vt 0.38789 0.39611
vt 0.39058 0.00075
vt 0.39091 0.38370
vt 0.39091 0.38681
vt 0.39091 0.39611
vt 0.39091 0.39921
vt 0.39272 0.00879
vt 0.39541 0.00283
vt 0.39635 0.37274
vt 0.39904 0.00000
vt 0.39906 0.00822
vt 0.39997 0.38370
vt 0.39997 0.38681
vt 0.39997 0.39611
vt 0.39997 0.39921
vt 0.40270 0.00539
vt 0.40270 0.37218
vt 0.40299 0.38681
vt 0.40299 0.39611
vt 0.41337 0.36603
vt 0.41367 0.38681
vt 0.41367 0.39611
vt 0.41606 0.37199
vt 0.41669 0.38370
vt 0.41669 0.38681
vt 0.41669 0.39611
vt 0.41669 0.39921
vt 0.41819 0.36395
vt 0.42088 0.36991
vt 0.42183 0.00000
vt 0.42451 0.37274
vt 0.42453 0.36452
vt 0.42574 0.38370
vt 0.42574 0.38681
vt 0.42574 0.39611
vt 0.42574 0.39921
vt 0.42817 0.00056
vt 0.42817 0.36735
vt 0.42877 0.38681
vt 0.42877 0.39611
vt 0.43750 0.71361
vt 0.43750 0.94314
vt 0.43752 0.70431
vt 0.43752 0.95245
vt 0.43884 0.00539
vt 0.43884 0.37218
vt 0.43944 0.38681
vt 0.43944 0.39611
vt 0.44246 0.38370
vt 0.44246 0.39921
vt 0.44248 0.00822
vt 0.44250 0.00000
vt 0.44252 0.38681
vt 0.44252 0.39611
vt 0.44519 0.37274
vt 0.44613 0.00283
vt 0.44658 0.71361
vt 0.44658 0.94314
vt 0.44882 0.00879
vt 0.45096 0.00075
vt 0.45158 0.38681
vt 0.45158 0.39611
vt 0.45364 0.00671
vt 0.45725 0.71361
vt 0.45725 0.86870
vt 0.45725 0.89207
vt 0.45725 0.92929
vt 0.45725 0.94800
vt 0.45725 0.96972
vt 0.46027 0.88897
vt 0.46027 0.93239
vt 0.46032 0.89207
vt 0.46032 0.92929
vt 0.46178 0.94335
vt 0.46178 0.94800
vt 0.46178 0.96972
vt 0.46178 0.97437
vt 0.46225 0.38681
vt 0.46225 0.39611
vt 0.46432 0.00056
vt 0.46432 0.36735
vt 0.46527 0.38370
vt 0.46527 0.39921
vt 0.46533 0.38681
vt 0.46533 0.39611
vt 0.46631 0.70431
vt 0.46631 0.71361
vt 0.46631 0.86870
vt 0.46631 0.87800
vt 0.46795 0.36452
vt 0.46797 0.37274
vt 0.47066 0.00000
vt 0.47161 0.36991
vt 0.47430 0.36395
vt 0.47439 0.38681
vt 0.47439 0.39611
vt 0.47643 0.37199
vt 0.47688 0.94335
vt 0.47688 0.94800
vt 0.47688 0.96972
vt 0.47688 0.97437
vt 0.47912 0.36603
vt 0.48141 0.94800
vt 0.48141 0.96972
vt 0.48738 0.68870
vt 0.48740 0.41885
vt 0.48979 0.34287
vt 0.49432 0.00000
vt 0.49432 0.33990
vt 0.49432 0.34645
vt 0.49655 0.92929
vt 0.49656 0.89207
vt 0.49879 0.52800
vt 0.49879 0.54207
vt 0.49879 0.60410
vt 0.49879 0.61506
vt 0.49879 0.67710
vt 0.49880 0.36051
vt 0.50036 0.00000
vt 0.50036 0.33990
vt 0.50036 0.34645
vt 0.50146 0.94645
vt 0.50146 0.95576
vt 0.50146 0.95886
vt 0.50181 0.53111
vt 0.50182 0.35741
vt 0.50186 0.52800
vt 0.50187 0.36051
vt 0.50483 0.54207
vt 0.50483 0.60410
vt 0.50483 0.61506
vt 0.50483 0.67710
vt 0.50488 0.52800
vt 0.50489 0.34287
vt 0.50489 0.36051
vt 0.50723 0.89207
vt 0.50723 0.92929
vt 0.51052 0.94335
vt 0.51052 0.94645
vt 0.51052 0.95576
vt 0.51052 0.95886
vt 0.51354 0.94645
vt 0.51354 0.95576
vt 0.51556 0.00353
vt 0.51556 0.35983
vt 0.51556 0.65469
vt 0.51556 0.66886
vt 0.51556 0.67502
vt 0.52008 0.35210
vt 0.52009 0.00000
vt 0.52009 0.00656
vt 0.52009 0.34114
vt 0.52014 0.35676
vt 0.52014 0.36333
vt 0.52069 0.66565
vt 0.52069 0.67798
vt 0.52160 0.65469
vt 0.52421 0.95007
vt 0.52421 0.95956
vt 0.52581 0.66861
vt 0.52582 0.67478
vt 0.52612 0.35210
vt 0.52613 0.00000
vt 0.52613 0.00656
vt 0.52613 0.34114
vt 0.52617 0.36333
vt 0.52618 0.35676
vt 0.53066 0.00353
vt 0.53066 0.35983
vt 0.53075 0.94335
vt 0.53075 0.96628
vt 0.53673 0.67036
vt 0.53673 0.68587
vt 0.53999 0.94335
vt 0.53999 0.96628
vt 0.54133 0.00465
vt 0.54133 0.33654
vt 0.54133 0.35215
vt 0.54133 0.64701
vt 0.54346 0.89207
vt 0.54346 0.92929
vt 0.54351 0.88897
vt 0.54351 0.93239
vt 0.54585 0.65474
vt 0.54586 0.00000
vt 0.54586 0.34119
vt 0.54591 0.64352
vt 0.54591 0.65008
vt 0.54595 0.00465
vt 0.54595 0.33654
vt 0.54653 0.89207
vt 0.54653 0.92929
vt 0.54653 0.95007
vt 0.54653 0.95956
vt 0.54737 0.35215
vt 0.55183 0.67036
vt 0.55183 0.68587
vt 0.55189 0.65475
vt 0.55190 0.66571
vt 0.55190 0.69052
vt 0.55195 0.64352
vt 0.55195 0.65009
vt 0.55199 0.00465
vt 0.55199 0.33654
vt 0.55643 0.64702
vt 0.55643 0.67036
vt 0.55643 0.68587
vt 0.55720 0.89207
vt 0.55720 0.92929
vt 0.55720 0.94800
vt 0.55720 0.96972
vt 0.56173 0.94335
vt 0.56173 0.94800
vt 0.56173 0.96972
vt 0.56173 0.97437
vt 0.56266 0.33654
vt 0.56268 0.00465
vt 0.56710 0.35525
vt 0.56710 0.52275
vt 0.56719 0.34119
vt 0.56721 0.00000
vt 0.56727 0.33654
vt 0.56728 0.00465
vt 0.56957 0.53681
vt 0.56957 0.69190
vt 0.57012 0.35525
vt 0.57012 0.52275
vt 0.57017 0.35215
vt 0.57017 0.52585
vt 0.57319 0.35525
vt 0.57319 0.52275
vt 0.57319 0.53681
vt 0.57319 0.69190
vt 0.57331 0.33654
vt 0.57332 0.00465
vt 0.57683 0.94335
vt 0.57683 0.94800
vt 0.57683 0.96972
vt 0.57683 0.97437
vt 0.58136 0.94800
vt 0.58136 0.96972
vt 0.58399 0.33654
vt 0.58399 0.64702
vt 0.58399 0.68587
vt 0.58400 0.00465
vt 0.58400 0.67036
vt 0.58847 0.65009
vt 0.58848 0.64352
vt 0.58852 0.66571
vt 0.58852 0.69052
vt 0.58853 0.65475
vt 0.58860 0.67036
vt 0.58860 0.68587
vt 0.59003 0.00465
vt 0.59003 0.33654
vt 0.59011 0.00000
vt 0.59011 0.34119
vt 0.59203 0.94645
vt 0.59203 0.95576
vt 0.59305 0.35215
vt 0.59344 0.89207
vt 0.59344 0.92929
vt 0.59349 0.88897
vt 0.59349 0.93239
vt 0.59452 0.64352
vt 0.59452 0.65008
vt 0.59457 0.65474
vt 0.59464 0.00465
vt 0.59464 0.33654
vt 0.59505 0.94335
vt 0.59505 0.94645
vt 0.59505 0.95576
vt 0.59505 0.95886
vt 0.59651 0.89207
vt 0.59651 0.92929
vt 0.59909 0.35215
vt 0.59909 0.64701
vt 0.59918 0.70431
vt 0.59918 0.71361
vt 0.59918 0.86870
vt 0.59918 0.87800
vt 0.60370 0.67036
vt 0.60370 0.68587
vt 0.60411 0.94335
vt 0.60411 0.94645
vt 0.60411 0.95576
vt 0.60411 0.95886
vt 0.60531 0.00465
vt 0.60531 0.33654
vt 0.60718 0.89207
vt 0.60718 0.92929
vt 0.60825 0.71361
vt 0.60825 0.86870
vt 0.60976 0.35988
vt 0.61020 0.88897
vt 0.61020 0.89207
vt 0.61020 0.92929
vt 0.61020 0.93239
vt 0.61135 0.00465
vt 0.61135 0.33654
vt 0.61136 0.00000
vt 0.61136 0.34119
vt 0.61322 0.88897
vt 0.61322 0.89207
vt 0.61322 0.92929
vt 0.61322 0.93239
vt 0.61425 0.35681
vt 0.61425 0.36338
vt 0.61430 0.35215
vt 0.61479 0.94335
vt 0.61479 0.95452
vt 0.61589 0.00465
vt 0.61589 0.33654
vt 0.61624 0.89207
vt 0.61624 0.92929
vt 0.61841 0.94335
vt 0.61841 0.95452
vt 0.61882 0.65474
vt 0.61943 0.66571
vt 0.61943 0.69921
vt 0.61943 0.71017
vt 0.61943 0.74367
vt 0.61943 0.75463
vt 0.61943 0.78812
vt 0.62028 0.35682
vt 0.62029 0.36338
vt 0.62034 0.35215
vt 0.62486 0.35989
vt 0.62486 0.65475
vt 0.62486 0.66571
vt 0.62486 0.69921
vt 0.62486 0.71017
vt 0.62486 0.74367
vt 0.62486 0.75463
vt 0.62486 0.78812
vt 0.62656 0.00465
vt 0.62656 0.27450
vt 0.62656 0.29322
vt 0.62656 0.33044
vt 0.62939 0.96520
vt 0.62958 0.29012
vt 0.62958 0.33354
vt 0.62964 0.29322
vt 0.62964 0.33044
vt 0.63094 0.91234
vt 0.63094 0.94583
vt 0.63109 0.00000
vt 0.63109 0.27916
vt 0.63118 0.00465
vt 0.63118 0.27450
vt 0.63262 0.95680
vt 0.63266 0.29322
vt 0.63266 0.33044
vt 0.63275 0.81142
vt 0.63275 0.89827
vt 0.63307 0.96230
vt 0.63307 0.97012
vt 0.63420 0.00465
vt 0.63420 0.27450
vt 0.63553 0.35681
vt 0.63553 0.62666
vt 0.63553 0.64227
vt 0.63553 0.79736
vt 0.63577 0.80832
vt 0.63577 0.81142
vt 0.63577 0.89827
vt 0.63577 0.90138
vt 0.63675 0.96722
vt 0.63813 0.95831
vt 0.63855 0.35681
vt 0.63855 0.62666
vt 0.63856 0.35215
vt 0.63856 0.63131
vt 0.63867 0.64227
vt 0.63867 0.79736
vt 0.63879 0.80832
vt 0.63879 0.81142
vt 0.63879 0.89827
vt 0.63879 0.90138
vt 0.64181 0.64227
vt 0.64181 0.79736
vt 0.64181 0.81142
vt 0.64181 0.89827
vt 0.64181 0.91234
vt 0.64181 0.94583
vt 0.64181 0.96323
vt 0.64181 0.96910
vt 0.64309 0.35681
vt 0.64309 0.62666
vt 0.64487 0.23883
vt 0.64487 0.26530
vt 0.64487 0.31493
vt 0.64487 0.33396
vt 0.64487 0.33768
vt 0.64488 0.00931
vt 0.64801 0.33210
vt 0.64801 0.33954
vt 0.65091 0.25910
vt 0.65091 0.32114
vt 0.65101 0.26530
vt 0.65101 0.31493
vt 0.65115 0.33396
vt 0.65115 0.33768
vt 0.65376 0.36146
vt 0.65376 0.59099
vt 0.65376 0.62056
vt 0.65376 0.85009
vt 0.65376 0.87656
vt 0.65376 0.92619
vt 0.65376 0.94335
vt 0.65376 0.94645
vt 0.65376 0.95576
vt 0.65376 0.95886
vt 0.65393 0.24814
vt 0.65394 0.00000
vt 0.65408 0.23883
vt 0.65409 0.00931
vt 0.65980 0.87035
vt 0.65980 0.93239
vt 0.65992 0.87656
vt 0.65992 0.92619
vt 0.66182 0.33396
vt 0.66182 0.33768
vt 0.66282 0.61125
vt 0.66282 0.85939
vt 0.66282 0.94335
vt 0.66282 0.94645
vt 0.66282 0.95576
vt 0.66282 0.95886
vt 0.66300 0.62056
vt 0.66300 0.85009
vt 0.66496 0.33210
vt 0.66496 0.33954
vt 0.66584 0.94645
vt 0.66584 0.95576
vt 0.66809 0.33396
vt 0.66809 0.33768
vt 0.67651 0.94774
vt 0.67651 0.95432
vt 0.67877 0.33396
vt 0.67877 0.33768
vt 0.67972 0.95103
vt 0.68078 0.94335
vt 0.68078 0.95870
vt 0.68190 0.33210
vt 0.68190 0.33954
vt 0.68399 0.94664
vt 0.68399 0.95541
vt 0.68504 0.33396
vt 0.68504 0.33768
vt 0.68719 0.94335
vt 0.68719 0.95870
vt 0.68826 0.95103
vt 0.69012 0.87656
vt 0.69012 0.92619
vt 0.69146 0.94774
vt 0.69146 0.95432
vt 0.69571 0.33396
vt 0.69571 0.33768
vt 0.69885 0.33210
vt 0.69885 0.33954
vt 0.69932 0.26531
vt 0.69932 0.31493
vt 0.70079 0.87656
vt 0.70079 0.92619
vt 0.70199 0.33396
vt 0.70199 0.33768
vt 0.70213 0.94774
vt 0.70213 0.95432
vt 0.70534 0.95103
vt 0.70640 0.94335
vt 0.70640 0.95870
vt 0.70961 0.94664
vt 0.70961 0.95541
vt 0.71000 0.26530
vt 0.71000 0.31493
vt 0.71266 0.33396
vt 0.71266 0.33954
vt 0.71281 0.94335
vt 0.71281 0.95870
vt 0.71388 0.95103
vt 0.71629 0.33396
vt 0.71629 0.33954
vt 0.71708 0.94774
vt 0.71708 0.95432
vt 0.72696 0.33396
vt 0.72696 0.33954
vt 0.72775 0.94335
vt 0.72775 0.95452
vt 0.73058 0.33396
vt 0.73058 0.33954
vt 0.73099 0.87656
vt 0.73099 0.92619
vt 0.73100 0.87035
vt 0.73100 0.93239
vt 0.73138 0.94335
vt 0.73138 0.95452
vt 0.73704 0.87656
vt 0.73704 0.92619
vt 0.74125 0.33396
vt 0.74125 0.33954
vt 0.74488 0.33396
vt 0.74488 0.33954
vt 0.74771 0.87346
vt 0.74771 0.91068
vt 0.74771 0.92474
vt 0.74771 0.95823
vt 0.75073 0.87035
vt 0.75073 0.91378
vt 0.75078 0.87346
vt 0.75078 0.91068
vt 0.75555 0.33396
vt 0.75555 0.33954
vt 0.75831 0.26530
vt 0.75831 0.31493
vt 0.75841 0.25910
vt 0.75841 0.32114
vt 0.75858 0.92474
vt 0.75858 0.95823
vt 0.75917 0.33396
vt 0.75917 0.33954
vt 0.76445 0.26530
vt 0.76445 0.31493
vt 0.76925 0.92474
vt 0.76925 0.95823
vt 0.77512 0.25910
vt 0.77512 0.31945
vt 0.78012 0.92474
vt 0.78012 0.95823
vt 0.78035 0.25982
vt 0.78035 0.32017
vt 0.78558 0.25910
vt 0.78558 0.31946
vt 0.78701 0.87346
vt 0.78701 0.91068
vt 0.79080 0.92474
vt 0.79080 0.95824
vt 0.79442 0.92474
vt 0.79442 0.95824
vt 0.79585 0.62056
vt 0.79585 0.85009
vt 0.79626 0.26220
vt 0.79626 0.29942
vt 0.79626 0.31349
vt 0.79626 0.32465
vt 0.79927 0.26220
vt 0.79927 0.29942
vt 0.79928 0.25910
vt 0.79928 0.30252
vt 0.79988 0.31349
vt 0.79988 0.32465
vt 0.80230 0.26220
vt 0.80230 0.29942
vt 0.80474 0.36146
vt 0.80474 0.59099
vt 0.80489 0.35215
vt 0.80489 0.60029
vt 0.80505 0.23884
vt 0.80506 0.00931
vt 0.80652 0.68737
vt 0.80652 0.74187
vt 0.80652 0.82940
vt 0.80652 0.99690
vt 0.81395 0.36146
vt 0.81395 0.59099
vt 0.81574 0.00931
vt 0.81574 0.16439
vt 0.81574 0.18714
vt 0.81574 0.30625
vt 0.81574 0.32279
vt 0.81574 0.33210
vt 0.81876 0.31969
vt 0.81876 0.33520
vt 0.81881 0.32279
vt 0.81881 0.33210
vt 0.82298 0.18714
vt 0.82298 0.30625
vt 0.82299 0.18466
vt 0.82299 0.30873
vt 0.82462 0.35525
vt 0.82462 0.52275
vt 0.82462 0.54302
vt 0.82462 0.59264
vt 0.82480 0.00000
vt 0.82480 0.00931
vt 0.82480 0.16439
vt 0.82480 0.17370
vt 0.82540 0.18714
vt 0.82540 0.30625
vt 0.82764 0.35215
vt 0.82764 0.52585
vt 0.82770 0.35525
vt 0.82770 0.52275
vt 0.82786 0.32279
vt 0.82786 0.33210
vt 0.83066 0.53681
vt 0.83066 0.54302
vt 0.83066 0.59264
vt 0.83066 0.59885
vt 0.83244 0.63983
vt 0.83244 0.78871
vt 0.83608 0.18714
vt 0.83608 0.30625
vt 0.83849 0.30873
vt 0.83850 0.18466
vt 0.83853 0.30625
vt 0.83854 0.18714
vt 0.83854 0.32279
vt 0.83854 0.33210
vt 0.84156 0.31969
vt 0.84156 0.33520
vt 0.84161 0.32279
vt 0.84161 0.33210
vt 0.84427 0.18714
vt 0.84427 0.30625
vt 0.85067 0.32279
vt 0.85067 0.33210
vt 0.85494 0.30625
vt 0.85495 0.18714
vt 0.86068 0.18714
vt 0.86068 0.30625
vt 0.86072 0.18466
vt 0.86072 0.30873
vt 0.86086 0.53681
vt 0.86086 0.54302
vt 0.86086 0.59264
vt 0.86086 0.59885
vt 0.86314 0.18714
vt 0.86314 0.30625
vt 0.86690 0.54302
vt 0.86690 0.59264
vt 0.87381 0.18538
vt 0.87381 0.24573
vt 0.87381 0.25979
vt 0.87381 0.29701
vt 0.87381 0.31779
vt 0.87381 0.32729
vt 0.87734 0.61196
vt 0.87734 0.81534
vt 0.87757 0.53991
vt 0.87757 0.57713
vt 0.87904 0.18466
vt 0.87904 0.24501
vt 0.88035 0.31108
vt 0.88035 0.33400
vt 0.88059 0.53681
vt 0.88059 0.53991
vt 0.88059 0.57713
vt 0.88059 0.58024
vt 0.88361 0.53681
vt 0.88361 0.53991
vt 0.88361 0.57713
vt 0.88361 0.58024
vt 0.88427 0.18538
vt 0.88427 0.24573
vt 0.88663 0.53991
vt 0.88663 0.57713
vt 0.88959 0.31108
vt 0.88959 0.33400
vt 0.89108 0.82940
vt 0.89108 0.99690
vt 0.89109 0.82630
vt 0.89109 1.00000
vt 0.89411 0.82940
vt 0.89411 0.99690
vt 0.89494 0.18776
vt 0.89494 0.22498
vt 0.89613 0.31779
vt 0.89613 0.32729
vt 0.89730 0.53991
vt 0.89730 0.57713
vt 0.89796 0.18466
vt 0.89796 0.18776
vt 0.89796 0.22498
vt 0.89796 0.22808
vt 0.90032 0.53681
vt 0.90032 0.53991
vt 0.90032 0.57713
vt 0.90032 0.58024
vt 0.90098 0.18466
vt 0.90098 0.18776
vt 0.90098 0.22498
vt 0.90098 0.22808
vt 0.90334 0.53681
vt 0.90334 0.53991
vt 0.90334 0.57713
vt 0.90334 0.58024
vt 0.90400 0.18776
vt 0.90400 0.22498
vt 0.90478 0.82940
vt 0.90478 0.86662
vt 0.90478 0.88379
vt 0.90478 0.92101
vt 0.90478 0.94430
vt 0.90478 0.95736
vt 0.90636 0.53991
vt 0.90636 0.57713
vt 0.90680 0.31108
vt 0.90680 0.32224
vt 0.90780 0.82630
vt 0.90780 0.82940
vt 0.90780 0.86662
vt 0.90780 0.86973
vt 0.90780 0.88069
vt 0.90780 0.88379
vt 0.90780 0.92101
vt 0.90780 0.92411
vt 0.91004 0.25979
vt 0.91004 0.29701
vt 0.91009 0.25669
vt 0.91009 0.30012
vt 0.91042 0.32224
vt 0.91043 0.31108
vt 0.91082 0.82630
vt 0.91082 0.82940
vt 0.91082 0.86662
vt 0.91082 0.86973
vt 0.91082 0.88379
vt 0.91082 0.92101
vt 0.91224 0.35525
vt 0.91224 0.52275
vt 0.91311 0.25979
vt 0.91311 0.29701
vt 0.91377 0.93507
vt 0.91377 0.96659
vt 0.91384 0.82940
vt 0.91384 0.86662
vt 0.91468 0.18466
vt 0.91468 0.21816
vt 0.91468 0.23222
vt 0.91468 0.24153
vt 0.91703 0.53681
vt 0.91703 0.57031
vt 0.91703 0.58437
vt 0.91703 0.59368
vt 0.92149 0.88069
vt 0.92149 0.91418
vt 0.92291 0.35215
vt 0.92291 0.38565
vt 0.92291 0.39661
vt 0.92291 0.43011
vt 0.92291 0.44107
vt 0.92291 0.47457
vt 0.92291 0.48553
vt 0.92291 0.51903
vt 0.92373 0.23222
vt 0.92373 0.24153
vt 0.92378 0.22912
vt 0.92378 0.24463
vt 0.92379 0.25669
vt 0.92379 0.29019
vt 0.92379 0.30115
vt 0.92379 0.33465
vt 0.92451 0.82630
vt 0.92451 0.85980
vt 0.92555 0.18466
vt 0.92555 0.21816
vt 0.92609 0.58437
vt 0.92609 0.59368
vt 0.92614 0.58127
vt 0.92614 0.59678
vt 0.92648 0.93507
vt 0.92648 0.96660
vt 0.92653 0.39661
vt 0.92653 0.43011
vt 0.92653 0.44107
vt 0.92653 0.47457
vt 0.92653 0.48553
vt 0.92653 0.51903
vt 0.92680 0.23222
vt 0.92680 0.24153
vt 0.92741 0.25669
vt 0.92741 0.29019
vt 0.92741 0.30115
vt 0.92741 0.33465
vt 0.92790 0.53681
vt 0.92790 0.57031
vt 0.92813 0.82630
vt 0.92813 0.85980
vt 0.92835 0.35215
vt 0.92835 0.38565
vt 0.92916 0.58437
vt 0.92916 0.59368
vt 0.92918 0.61125
vt 0.92918 0.81463
vt 0.93236 0.88069
vt 0.93236 0.91418
vt 0.93546 0.94431
vt 0.93546 0.95737
vt 0.93622 0.18958
vt 0.93721 0.39909
vt 0.93721 0.40653
vt 0.93721 0.42246
vt 0.93721 0.42990
vt 0.93721 0.44656
vt 0.93721 0.45272
vt 0.93721 0.48553
vt 0.93721 0.49669
vt 0.93944 0.19799
vt 0.93962 0.39661
vt 0.93962 0.39909
vt 0.93962 0.40653
vt 0.93962 0.40901
vt 0.93962 0.41997
vt 0.93962 0.42246
vt 0.93962 0.42990
vt 0.93962 0.43238
vt 0.93990 0.18466
vt 0.93990 0.19248
vt 0.94083 0.48553
vt 0.94083 0.49669
vt 0.94232 0.44334
vt 0.94232 0.45566
vt 0.94358 0.18756
vt 0.94496 0.19647
vt 0.94536 0.39661
vt 0.94536 0.39909
vt 0.94536 0.40653
vt 0.94536 0.40901
vt 0.94536 0.41997
vt 0.94536 0.42246
vt 0.94536 0.42990
vt 0.94536 0.43238
vt 0.94742 0.44628
vt 0.94742 0.45244
vt 0.94778 0.39909
vt 0.94778 0.40653
vt 0.94778 0.42246
vt 0.94778 0.42990
vt 0.94864 0.18568
vt 0.94864 0.19155
vt 0.95767 0.00000
vt 0.95767 0.00931
vt 0.95767 0.16439
vt 0.95767 0.17370
vt 0.96673 0.00931
vt 0.96673 0.16439
vt 0.97408 0.63789
vt 0.97408 0.78677
vt 1.00000 0.68473
vt 1.00000 0.73922
s 0
usemtl MMOFPS_olive
f 1/382/6 2/366/6 3/368/6
f 1/891/14 3/910/14 8/911/14
f 1/891/14 8/911/14 7/892/14
f 10/1162/16 12/1159/16 6/1158/16
f 10/1162/16 6/1158/16 5/1161/16
f 10/732/9 11/756/9 12/750/9
f 10/883/3 16/742/3 22/884/3
f 10/883/3 5/741/3 16/742/3
f 11/756/5 20/865/5 9/866/5
f 11/756/5 24/755/5 20/865/5
f 13/383/10 14/369/10 15/367/10
f 13/383/24 15/367/24 2/366/24
f 13/383/24 2/366/24 1/382/24
f 15/603/23 14/604/23 18/412/23
f 15/603/23 18/412/23 17/411/23
f 16/389/22 18/412/22 23/413/22
f 16/389/22 23/413/22 22/390/22
f 16/742/11 17/720/11 18/740/11
f 17/302/1 2/366/1 15/367/1
f 17/302/1 4/301/1 2/366/1
f 19/618/21 14/604/21 13/617/21
f 19/618/21 21/605/21 14/604/21
f 19/880/12 20/890/12 21/882/12
f 19/880/26 1/729/26 7/879/26
f 19/880/26 13/730/26 1/729/26
f 21/605/20 20/606/20 24/414/20
f 21/605/20 24/414/20 23/413/20
f 22/731/13 23/749/13 24/755/13
f 22/731/19 11/756/19 10/732/19
f 22/731/19 24/755/19 11/756/19
f 23/413/2 14/604/2 21/605/2
f 23/413/2 18/412/2 14/604/2
f 4/1157/15 3/910/15 2/909/15
f 4/1157/15 6/1158/15 3/910/15
f 4/715/7 5/741/7 6/739/7
f 5/741/25 17/720/25 16/742/25
f 5/741/25 4/715/25 17/720/25
f 6/1158/4 12/1159/4 8/911/4
f 6/1158/4 8/911/4 3/910/4
f 7/879/18 20/890/18 19/880/18
f 7/879/18 9/889/18 20/890/18
f 7/879/8 8/881/8 9/889/8
f 9/912/17 12/1159/17 11/1160/17
f 9/912/17 8/911/17 12/1159/17
usemtl MMOFPS_composite
f 193/1134/66 194/1140/66 195/1124/66
f 193/160/74 195/159/74 200/163/74
f 193/160/74 200/163/74 199/164/74
f 196/155/75 195/159/75 194/156/75
f 196/155/75 198/158/75 195/159/75
f 196/489/67 197/488/67 198/493/67
f 197/157/76 202/161/76 204/162/76
f 197/157/76 204/162/76 198/158/76
f 198/158/4 200/163/4 195/159/4
f 198/158/4 204/162/4 200/163/4
f 199/1115/86 205/1139/86 193/1134/86
f 199/1115/86 211/1133/86 205/1139/86
f 199/435/68 200/432/68 201/434/68
f 199/435/78 201/434/78 212/445/78
f 199/435/78 212/445/78 211/446/78
f 202/693/69 203/711/69 204/712/69
f 203/165/77 200/163/77 204/162/77
f 203/165/77 201/166/77 200/163/77
f 203/433/65 212/445/65 201/434/65
f 203/433/65 216/444/65 212/445/65
f 205/1139/70 206/1155/70 207/1156/70
f 205/1139/84 194/1140/84 193/1134/84
f 205/1139/84 207/1156/84 194/1140/84
f 205/150/81 211/146/81 213/145/81
f 205/150/81 213/145/81 206/149/81
f 207/152/83 206/149/83 210/148/83
f 207/152/83 210/148/83 209/151/83
f 208/147/82 210/148/82 215/144/82
f 208/147/82 215/144/82 214/143/82
f 208/475/71 209/476/71 210/469/71
f 208/475/85 196/489/85 209/476/85
f 208/475/85 197/488/85 196/489/85
f 209/476/63 194/490/63 207/477/63
f 209/476/63 196/489/63 194/490/63
f 211/446/72 212/445/72 213/459/72
f 213/145/2 210/148/2 206/149/2
f 213/145/2 215/144/2 210/148/2
f 213/145/80 212/140/80 216/139/80
f 213/145/80 216/139/80 215/144/80
f 214/681/64 197/682/64 208/665/64
f 214/681/64 202/693/64 197/682/64
f 214/681/73 215/676/73 216/694/73
f 214/681/79 203/711/79 202/693/79
f 214/681/79 216/694/79 203/711/79
f 241/190/104 243/187/104 248/193/104
f 241/190/104 248/193/104 247/194/104
f 241/527/114 253/513/114 255/512/114
f 241/527/114 255/512/114 242/526/114
f 241/527/96 242/526/96 243/530/96
f 244/332/105 243/342/105 242/334/105
f 244/332/105 246/336/105 243/342/105
f 244/332/97 245/333/97 246/336/97
f 245/333/115 244/332/115 257/324/115
f 245/333/115 257/324/115 256/327/115
f 246/186/94 248/193/94 243/187/94
f 246/186/94 252/192/94 248/193/94
f 247/194/98 248/193/98 249/196/98
f 249/471/95 251/479/95 264/491/95
f 249/471/95 264/491/95 260/482/95
f 25/116/14 27/107/14 32/106/14
f 25/116/14 32/106/14 31/115/14
f 25/713/6 26/695/6 27/697/6
f 250/335/106 246/336/106 245/333/106
f 250/335/106 252/341/106 246/336/106
f 250/478/109 262/492/109 264/491/109
f 250/478/109 264/491/109 251/479/109
f 250/478/99 251/479/99 252/470/99
f 251/195/107 248/193/107 252/192/107
f 251/195/107 249/196/107 248/193/107
f 253/356/111 259/354/111 261/357/111
f 253/356/111 261/357/111 254/363/111
f 253/513/100 254/504/100 255/512/100
f 255/512/91 244/520/91 242/526/91
f 255/512/91 257/503/91 244/520/91
f 256/210/101 257/214/101 258/208/101
f 256/210/112 258/208/112 263/203/112
f 256/210/112 263/203/112 262/205/112
f 257/214/113 254/209/113 258/208/113
f 257/214/113 255/215/113 254/209/113
f 259/354/102 260/353/102 261/357/102
f 259/354/108 247/348/108 249/345/108
f 259/354/108 249/345/108 260/353/108
f 259/509/116 241/527/116 247/523/116
f 259/509/116 253/513/116 241/527/116
f 261/204/92 258/208/92 254/209/92
f 261/204/92 263/203/92 258/208/92
f 261/357/110 260/353/110 264/355/110
f 261/357/110 264/355/110 263/362/110
f 262/492/103 263/494/103 264/491/103
f 262/492/93 245/474/93 256/487/93
f 262/492/93 250/478/93 245/474/93
f 28/102/15 27/107/15 26/108/15
f 28/102/15 30/101/15 27/107/15
f 28/300/27 29/306/27 30/304/27
f 289/416/130 291/406/130 296/415/130
f 289/416/130 296/415/130 295/418/130
f 289/591/122 290/590/122 291/602/122
f 29/306/25 28/300/25 41/303/25
f 29/306/25 41/303/25 40/307/25
f 292/223/123 293/225/123 294/226/123
f 292/223/131 291/227/131 290/224/131
f 292/223/197 294/226/197 291/227/197
f 293/225/132 298/234/132 300/235/132
f 293/225/132 300/235/132 294/226/132
f 294/226/120 296/236/120 291/227/120
f 294/226/120 300/235/120 296/236/120
f 295/418/124 296/415/124 297/419/124
f 295/418/134 297/419/134 308/427/134
f 295/418/134 308/427/134 307/422/134
f 297/419/133 296/415/133 300/405/133
f 297/419/133 300/405/133 299/417/133
f 298/632/119 304/652/119 310/650/119
f 298/632/125 299/633/125 300/619/125
f 298/632/196 293/634/196 304/652/196
f 299/633/121 308/654/121 297/643/121
f 299/633/121 312/651/121 308/654/121
f 30/101/4 32/106/4 27/107/4
f 30/101/4 36/100/4 32/106/4
f 301/572/126 302/568/126 303/573/126
f 301/572/140 290/590/140 289/591/140
f 301/572/140 303/573/140 290/590/140
f 304/381/127 305/384/127 306/376/127
f 304/381/138 306/376/138 311/370/138
f 304/381/138 311/370/138 310/377/138
f 304/381/141 292/388/141 305/384/141
f 304/381/141 293/385/141 292/388/141
f 305/384/139 302/371/139 306/376/139
f 305/384/139 303/380/139 302/371/139
f 305/585/117 290/590/117 303/573/117
f 305/585/117 292/601/117 290/590/117
f 307/174/128 308/170/128 309/179/128
f 307/174/137 302/182/137 301/180/137
f 307/174/137 309/179/137 302/182/137
f 307/576/142 289/591/142 295/592/142
f 307/576/142 301/572/142 289/591/142
f 309/179/136 308/170/136 312/169/136
f 309/179/136 312/169/136 311/178/136
f 31/216/18 33/221/18 44/222/18
f 31/216/18 44/222/18 43/217/18
f 31/216/8 32/218/8 33/221/8
f 310/650/129 311/653/129 312/651/129
f 310/650/135 299/633/135 298/632/135
f 310/650/135 312/651/135 299/633/135
f 311/178/118 302/182/118 309/179/118
f 311/178/118 306/181/118 302/182/118
f 33/105/17 32/106/17 36/100/17
f 33/105/17 36/100/17 35/99/17
f 337/637/6 338/624/6 339/626/6
f 337/805/14 339/799/14 344/806/14
f 337/805/14 344/806/14 343/810/14
f 34/430/3 29/306/3 40/307/3
f 34/430/3 40/307/3 46/431/3
f 34/662/28 35/675/28 36/673/28
f 34/85/16 30/101/16 29/86/16
f 34/85/16 36/100/16 30/101/16
f 340/541/7 341/547/7 342/545/7
f 340/794/15 339/799/15 338/797/15
f 340/794/15 342/795/15 339/799/15
f 341/547/25 340/541/25 353/542/25
f 341/547/25 353/542/25 352/548/25
f 342/795/4 344/806/4 339/799/4
f 342/795/4 348/798/4 344/806/4
f 343/579/143 344/581/143 345/593/143
f 343/579/18 345/593/18 356/594/18
f 343/579/18 356/594/18 355/580/18
f 345/809/17 344/806/17 348/798/17
f 345/809/17 348/798/17 347/804/17
f 346/502/9 347/515/9 348/511/9
f 346/559/3 341/547/3 352/548/3
f 346/559/3 352/548/3 358/560/3
f 346/796/16 342/795/16 341/793/16
f 346/796/16 348/798/16 342/795/16
f 347/515/5 356/528/5 345/529/5
f 347/515/5 360/514/5 356/528/5
f 349/638/144 350/627/144 351/625/144
f 349/638/24 338/624/24 337/637/24
f 349/638/24 351/625/24 338/624/24
f 35/675/5 44/683/5 33/684/5
f 35/675/5 48/674/5 44/683/5
f 351/781/23 350/778/23 354/772/23
f 351/781/23 354/772/23 353/776/23
f 352/548/11 353/542/11 354/546/11
f 352/768/22 354/772/22 359/767/22
f 352/768/22 359/767/22 358/763/22
f 353/614/1 338/624/1 351/625/1
f 353/614/1 340/613/1 338/624/1
f 355/580/12 356/594/12 357/582/12
f 355/580/26 337/570/26 343/579/26
f 355/580/26 349/567/26 337/570/26
f 355/777/21 350/778/21 349/782/21
f 355/777/21 357/773/21 350/778/21
f 357/773/20 356/769/20 360/764/20
f 357/773/20 360/764/20 359/767/20
f 358/501/13 359/510/13 360/514/13
f 358/501/19 347/515/19 346/502/19
f 358/501/19 360/514/19 347/515/19
f 359/767/2 350/778/2 357/773/2
f 359/767/2 354/772/2 350/778/2
f 37/714/10 38/698/10 39/696/10
f 37/714/24 26/695/24 25/713/24
f 37/714/24 39/696/24 26/695/24
f 39/258/23 38/259/23 42/249/23
f 39/258/23 42/249/23 41/248/23
f 40/243/22 42/249/22 47/250/22
f 40/243/22 47/250/22 46/244/22
f 40/307/29 41/303/29 42/305/29
f 41/686/1 26/695/1 39/696/1
f 41/686/1 28/685/1 26/695/1
f 43/217/12 44/222/12 45/219/12
f 43/217/26 25/119/26 31/216/26
f 43/217/26 37/120/26 25/119/26
f 43/287/21 38/259/21 37/286/21
f 43/287/21 45/260/21 38/259/21
f 45/260/20 44/261/20 48/251/20
f 45/260/20 48/251/20 47/250/20
f 46/661/19 35/675/19 34/662/19
f 46/661/19 48/674/19 35/675/19
f 46/661/30 47/672/30 48/674/30
f 47/250/2 38/259/2 45/260/2
f 47/250/2 42/249/2 38/259/2
usemtl MMOFPS_night
f 49/692/14 56/703/14 55/704/14
f 49/989/31 50/985/31 51/987/31
f 52/438/32 53/452/32 54/450/32
f 52/679/15 51/691/15 50/680/15
f 53/452/25 65/443/25 64/453/25
f 54/690/4 56/703/4 51/691/4
f 55/551/18 68/556/18 67/552/18
f 55/551/33 56/553/33 57/555/33
f 57/708/17 60/702/17 59/707/17
f 58/458/3 64/453/3 70/460/3
f 58/701/16 54/690/16 53/689/16
f 58/906/34 59/918/34 60/916/34
f 59/918/5 68/1045/5 57/1046/5
f 61/990/24 50/985/24 49/989/24
f 61/990/35 62/988/35 63/986/35
f 63/291/23 66/277/23 65/290/23
f 64/276/22 71/265/22 70/264/22
f 64/453/36 65/443/36 66/451/36
f 65/888/1 50/985/1 63/986/1
f 67/267/21 62/278/21 61/279/21
f 67/552/26 49/543/26 55/551/26
f 67/552/37 68/556/37 69/554/37
f 69/266/20 72/254/20 71/265/20
f 70/905/19 59/918/19 58/906/19
f 70/905/38 71/915/38 72/917/38
f 71/265/2 62/278/2 69/266/2
s 1
f 434/229/157 435/189/158 433/199/159
f 436/207/160 437/168/161 435/189/158
f 437/168/161 440/142/162 439/154/163
f 439/154/163 442/128/164 441/138/165
f 441/138/165 444/122/166 443/132/167
f 443/132/167 446/121/168 445/131/169
f 446/121/168 447/137/170 445/131/169
f 448/127/171 449/153/172 447/137/170
f 450/141/173 451/167/174 449/153/172
f 452/172/175 453/188/176 451/167/174
s 0
f 454/1110/177 446/885/177 438/1163/177
s 1
f 454/206/178 455/198/179 453/188/176
f 456/228/180 433/199/159 455/198/179
s 0
f 439/154/181 447/137/181 455/198/181
f 49/692/14 51/691/14 56/703/14
f 52/679/15 54/690/15 51/691/15
f 53/452/25 52/438/25 65/443/25
f 54/690/4 60/702/4 56/703/4
f 55/551/18 57/555/18 68/556/18
f 57/708/17 56/703/17 60/702/17
f 58/458/3 53/452/3 64/453/3
f 58/701/16 60/702/16 54/690/16
f 59/918/5 72/917/5 68/1045/5
f 61/990/24 63/986/24 50/985/24
f 63/291/23 62/278/23 66/277/23
f 64/276/22 66/277/22 71/265/22
f 65/888/1 52/887/1 50/985/1
f 67/267/21 69/266/21 62/278/21
f 67/552/26 61/544/26 49/543/26
f 69/266/20 68/255/20 72/254/20
f 70/905/19 72/917/19 59/918/19
f 71/265/2 66/277/2 62/278/2
s 1
f 434/229/157 436/207/160 435/189/158
f 436/207/160 438/173/202 437/168/161
f 437/168/161 438/173/202 440/142/162
f 439/154/163 440/142/162 442/128/164
f 441/138/165 442/128/164 444/122/166
f 443/132/167 444/122/166 446/121/168
f 446/121/168 448/127/171 447/137/170
f 448/127/171 450/141/173 449/153/172
f 450/141/173 452/172/175 451/167/174
f 452/172/175 454/206/178 453/188/176
s 0
f 434/1166/177 456/1164/177 454/1110/177
f 438/1163/177 434/1166/177 454/1110/177
f 438/1163/177 436/1165/177 434/1166/177
f 442/963/177 440/1109/177 438/1163/177
f 446/885/177 442/963/177 438/1163/177
f 446/885/177 444/925/177 442/963/177
f 450/926/177 448/886/177 446/885/177
f 454/1110/177 450/926/177 446/885/177
f 454/1110/177 452/964/177 450/926/177
s 1
f 454/206/178 456/228/180 455/198/179
f 456/228/180 434/229/157 433/199/159
s 0
f 435/189/181 437/168/181 439/154/181
f 439/154/181 441/138/181 443/132/181
f 439/154/181 443/132/181 447/137/181
f 443/132/181 445/131/181 447/137/181
f 447/137/181 449/153/181 451/167/181
f 447/137/181 451/167/181 455/198/181
f 451/167/181 453/188/181 455/198/181
f 455/198/181 433/199/181 435/189/181
f 455/198/181 435/189/181 439/154/181
usemtl MMOFPS_orange
f 100/1037/3 102/1023/3 104/1038/3
f 100/1037/3 98/1024/3 102/1023/3
f 100/1061/5 103/1112/5 99/1062/5
f 100/1061/5 104/1111/5 103/1112/5
f 102/1057/1 97/1102/1 101/1058/1
f 102/1057/1 98/1101/1 97/1102/1
f 103/1136/26 101/1123/26 97/1122/26
f 103/1136/26 97/1122/26 99/1135/26
f 104/63/2 101/76/2 103/64/2
f 104/63/2 102/75/2 101/76/2
f 106/67/4 107/80/4 105/68/4
f 106/67/4 108/79/4 107/80/4
f 108/1063/5 111/1106/5 107/1064/5
f 108/1063/5 112/1105/5 111/1106/5
f 108/816/3 106/812/3 110/811/3
f 108/816/3 110/811/3 112/815/3
f 110/644/1 105/656/1 109/645/1
f 110/644/1 106/655/1 105/656/1
f 111/846/26 105/837/26 107/845/26
f 111/846/26 109/838/26 105/837/26
f 112/1065/2 109/1090/2 111/1066/2
f 112/1065/2 110/1089/2 109/1090/2
f 114/1067/4 115/1092/4 113/1068/4
f 114/1067/4 116/1091/4 115/1092/4
f 116/82/3 114/70/3 118/69/3
f 116/82/3 118/69/3 120/81/3
f 116/831/5 119/844/5 115/832/5
f 116/831/5 120/843/5 119/844/5
f 118/670/1 113/710/1 117/671/1
f 118/670/1 114/709/1 113/710/1
f 119/642/26 113/635/26 115/641/26
f 119/642/26 117/636/26 113/635/26
f 120/1069/2 117/1094/2 119/1070/2
f 120/1069/2 118/1093/2 117/1094/2
f 122/1075/4 123/1098/4 121/1076/4
f 122/1075/4 124/1097/4 123/1098/4
f 124/849/5 127/854/5 123/850/5
f 124/849/5 128/853/5 127/854/5
f 124/876/3 122/870/3 126/869/3
f 124/876/3 126/869/3 128/875/3
f 126/1053/1 121/1082/1 125/1054/1
f 126/1053/1 122/1081/1 121/1082/1
f 127/822/26 121/813/26 123/821/26
f 127/822/26 125/814/26 121/813/26
f 128/1077/2 125/1100/2 127/1078/2
f 128/1077/2 126/1099/2 125/1100/2
f 130/1079/4 131/1104/4 129/1080/4
f 130/1079/4 132/1103/4 131/1104/4
f 132/648/5 135/660/5 131/649/5
f 132/648/5 136/659/5 135/660/5
f 132/808/3 130/803/3 134/802/3
f 132/808/3 134/802/3 136/807/3
f 134/646/1 129/658/1 133/647/1
f 134/646/1 130/657/1 129/658/1
f 135/828/26 129/825/26 131/827/26
f 135/828/26 133/826/26 129/825/26
f 136/861/2 133/864/2 135/862/2
f 136/861/2 134/863/2 133/864/2
f 373/331/14 375/330/14 380/339/14
f 373/331/14 380/339/14 379/340/14
f 373/467/39 374/464/39 375/463/39
f 376/325/15 375/330/15 374/326/15
f 376/325/15 378/329/15 375/330/15
f 376/896/7 377/900/7 378/898/7
f 377/900/25 376/896/25 389/895/25
f 377/900/25 389/895/25 388/899/25
f 378/329/4 380/339/4 375/330/4
f 378/329/4 384/338/4 380/339/4
f 379/1071/18 381/1095/18 392/1096/18
f 379/1071/18 392/1096/18 391/1072/18
f 379/1071/41 380/1073/41 381/1095/41
f 381/344/17 380/339/17 384/338/17
f 381/344/17 384/338/17 383/343/17
f 382/337/16 378/329/16 377/328/16
f 382/337/16 384/338/16 378/329/16
f 382/373/9 383/379/9 384/375/9
f 382/920/3 377/900/3 388/899/3
f 382/920/3 388/899/3 394/919/3
f 383/379/5 392/386/5 381/387/5
f 383/379/5 396/378/5 392/386/5
f 385/468/24 374/464/24 373/467/24
f 385/468/24 387/465/24 374/464/24
f 385/468/43 386/466/43 387/465/43
f 387/465/23 386/466/23 390/449/23
f 387/465/23 390/449/23 389/448/23
f 388/609/22 390/610/22 395/596/22
f 388/609/22 395/596/22 394/595/22
f 388/899/11 389/895/11 390/897/11
f 389/448/1 374/464/1 387/465/1
f 389/448/1 376/447/1 374/464/1
f 391/1072/26 373/1055/26 379/1071/26
f 391/1072/26 385/1056/26 373/1055/26
f 391/1072/45 392/1096/45 393/1074/45
f 391/598/21 386/611/21 385/612/21
f 391/598/21 393/597/21 386/611/21
f 393/597/20 392/584/20 396/583/20
f 393/597/20 396/583/20 395/596/20
f 394/372/13 395/374/13 396/378/13
f 394/372/19 383/379/19 382/373/19
f 394/372/19 396/378/19 383/379/19
f 395/596/2 386/611/2 393/597/2
f 395/596/2 390/610/2 386/611/2
f 409/294/39 410/274/39 411/284/39
f 409/738/14 411/737/14 416/753/14
f 409/738/14 416/753/14 415/754/14
f 412/245/15 411/284/15 410/274/15
f 412/245/15 414/247/15 411/284/15
f 412/934/7 413/938/7 414/936/7
f 413/938/25 412/934/25 425/933/25
f 413/938/25 425/933/25 424/937/25
f 414/736/4 416/753/4 411/737/4
f 414/736/4 420/752/4 416/753/4
f 415/1083/18 417/1107/18 428/1108/18
f 415/1083/18 428/1108/18 427/1084/18
f 415/1083/41 416/1085/41 417/1107/41
f 417/760/17 416/753/17 420/752/17
f 417/760/17 420/752/17 419/759/17
f 418/404/9 419/410/9 420/408/9
f 418/751/16 414/736/16 413/735/16
f 418/751/16 420/752/16 414/736/16
f 418/942/3 413/938/3 424/937/3
f 418/942/3 424/937/3 430/941/3
f 419/410/5 428/420/5 417/421/5
f 419/410/5 432/409/5 428/420/5
f 421/295/24 410/274/24 409/294/24
f 421/295/24 423/275/24 410/274/24
f 421/295/43 422/285/43 423/275/43
f 423/365/23 422/360/23 426/359/23
f 423/365/23 426/359/23 425/364/23
f 424/358/22 426/359/22 431/350/22
f 424/358/22 431/350/22 430/349/22
f 424/937/11 425/933/11 426/935/11
f 425/246/1 410/274/1 423/275/1
f 425/246/1 412/245/1 410/274/1
f 427/1084/26 409/1059/26 415/1083/26
f 427/1084/26 421/1060/26 409/1059/26
f 427/1084/45 428/1108/45 429/1086/45
f 427/352/21 422/360/21 421/361/21
f 427/352/21 429/351/21 422/360/21
f 429/351/20 428/347/20 432/346/20
f 429/351/20 432/346/20 431/350/20
f 430/403/13 431/407/13 432/409/13
f 430/403/19 419/410/19 418/404/19
f 430/403/19 432/409/19 419/410/19
f 431/350/2 422/360/2 429/351/2
f 431/350/2 426/359/2 422/360/2
f 469/213/192 470/212/192 471/220/192
f 469/540/14 471/539/14 476/563/14
f 469/540/14 476/563/14 475/564/14
f 472/535/15 471/539/15 470/536/15
f 472/535/15 474/538/15 471/539/15
f 472/569/40 473/578/40 474/575/40
f 473/578/25 472/569/25 485/571/25
f 473/578/25 485/571/25 484/577/25
f 474/538/4 476/563/4 471/539/4
f 474/538/4 480/562/4 476/563/4
f 475/521/18 477/531/18 488/532/18
f 475/521/18 488/532/18 487/522/18
f 475/521/193 476/524/193 477/531/193
f 477/566/17 476/563/17 480/562/17
f 477/566/17 480/562/17 479/565/17
f 478/175/42 479/176/42 480/171/42
f 478/561/16 474/538/16 473/537/16
f 478/561/16 480/562/16 474/538/16
f 478/608/3 473/578/3 484/577/3
f 478/608/3 484/577/3 490/607/3
f 479/176/5 488/185/5 477/177/5
f 479/176/5 492/184/5 488/185/5
f 481/202/194 482/197/194 483/201/194
f 481/202/24 470/212/24 469/213/24
f 481/202/24 483/201/24 470/212/24
f 483/429/23 482/425/23 486/424/23
f 483/429/23 486/424/23 485/428/23
f 484/423/22 486/424/22 491/400/22
f 484/423/22 491/400/22 490/399/22
f 484/577/44 485/571/44 486/574/44
f 485/200/1 470/212/1 483/201/1
f 485/200/1 472/211/1 470/212/1
f 487/402/21 482/425/21 481/426/21
f 487/402/21 489/401/21 482/425/21
f 487/522/195 488/532/195 489/525/195
f 487/522/26 469/497/26 475/521/26
f 487/522/26 481/498/26 469/497/26
f 489/401/20 488/394/20 492/393/20
f 489/401/20 492/393/20 491/400/20
f 490/183/19 479/176/19 478/175/19
f 490/183/19 492/184/19 479/176/19
f 490/183/46 491/191/46 492/184/46
f 491/400/2 482/425/2 489/401/2
f 491/400/2 486/424/2 482/425/2
f 73/1132/14 75/1131/14 80/1147/14
f 73/1132/14 80/1147/14 79/1148/14
f 73/913/31 74/901/31 75/903/31
f 76/1118/15 75/1131/15 74/1119/15
f 76/1118/15 78/1130/15 75/1131/15
f 76/928/27 77/931/27 78/929/27
f 77/931/25 76/928/25 89/927/25
f 77/931/25 89/927/25 88/932/25
f 78/1130/4 80/1147/4 75/1131/4
f 78/1130/4 84/1146/4 80/1147/4
f 79/945/18 81/953/18 92/954/18
f 79/945/18 92/954/18 91/946/18
f 79/945/33 80/947/33 81/953/33
f 81/1154/17 80/1147/17 84/1146/17
f 81/1154/17 84/1146/17 83/1153/17
f 82/1145/16 78/1130/16 77/1129/16
f 82/1145/16 84/1146/16 78/1130/16
f 82/88/28 83/94/28 84/92/28
f 82/940/3 77/931/3 88/932/3
f 82/940/3 88/932/3 94/939/3
f 83/94/5 92/109/5 81/110/5
f 83/94/5 96/93/5 92/109/5
f 85/914/24 74/901/24 73/913/24
f 85/914/24 87/902/24 74/901/24
f 85/914/35 86/904/35 87/902/35
f 87/1152/23 86/1143/23 90/1142/23
f 87/1152/23 90/1142/23 89/1151/23
f 88/1141/22 90/1142/22 95/1126/22
f 88/1141/22 95/1126/22 94/1125/22
f 88/932/29 89/927/29 90/930/29
f 89/894/1 74/901/1 87/902/1
f 89/894/1 76/893/1 74/901/1
f 91/1128/21 86/1143/21 85/1144/21
f 91/1128/21 93/1127/21 86/1143/21
f 91/946/26 73/944/26 79/945/26
f 91/946/26 85/943/26 73/944/26
f 91/946/37 92/954/37 93/948/37
f 93/1127/20 92/1117/20 96/1116/20
f 93/1127/20 96/1116/20 95/1126/20
f 94/87/19 83/94/19 82/88/19
f 94/87/19 96/93/19 83/94/19
f 94/87/30 95/91/30 96/93/30
f 95/1126/2 86/1143/2 93/1127/2
f 95/1126/2 90/1142/2 86/1143/2
f 98/65/4 100/77/4 99/78/4
f 98/65/4 99/78/4 97/66/4
usemtl MMOFPS_steel
f 137/823/39 138/817/39 139/819/39
f 137/956/14 144/950/14 143/955/14
f 140/717/40 141/726/40 142/724/40
f 140/924/15 139/951/15 138/952/15
f 141/726/25 153/716/25 152/725/25
f 142/923/4 144/950/4 139/951/4
f 143/839/18 156/848/18 155/840/18
f 143/839/41 144/841/41 145/847/41
f 145/949/17 148/922/17 147/921/17
f 146/734/42 147/746/42 148/744/42
f 146/788/3 152/725/3 158/787/3
f 146/907/16 142/923/16 141/908/16
f 147/746/5 156/779/5 145/780/5
f 149/824/24 138/817/24 137/823/24
f 149/824/43 150/820/43 151/818/43
f 151/95/23 154/50/23 153/49/23
f 152/35/22 159/51/22 158/36/22
f 152/725/44 153/716/44 154/723/44
f 153/790/1 138/817/1 151/818/1
f 155/112/21 150/96/21 149/111/21
f 155/840/26 137/800/26 143/839/26
f 155/840/45 156/848/45 157/842/45
f 157/97/20 160/52/20 159/51/20
f 158/733/19 147/746/19 146/734/19
f 158/733/46 159/743/46 160/745/46
f 159/51/2 150/96/2 157/97/2
s 1
f 162/89/47 163/114/48 161/90/49
f 164/117/50 165/124/51 163/118/48
f 166/123/52 167/126/53 165/124/51
f 168/1/54 169/34/55 167/2/53
f 170/33/56 171/62/57 169/34/55
f 172/129/58 173/134/59 171/130/57
s 0
f 174/1088/3 170/1020/3 166/1049/3
s 1
f 174/133/60 175/136/61 173/134/59
f 176/71/62 161/90/49 175/72/61
s 0
f 167/83/26 171/74/26 175/40/26
s 1
f 178/320/47 179/323/48 177/321/49
f 180/298/50 181/309/51 179/299/48
f 182/308/52 183/311/53 181/309/51
f 184/241/54 185/263/55 183/242/53
f 186/262/56 187/297/57 185/263/55
f 188/312/58 189/315/59 187/313/57
s 0
f 190/499/3 186/519/3 182/496/3
s 1
f 190/314/60 191/317/61 189/315/59
f 192/318/62 177/321/49 191/319/61
s 0
f 183/993/26 187/984/26 191/962/26
f 217/25/87 218/18/87 219/17/87
f 217/640/14 224/629/14 223/639/14
f 220/623/15 219/630/15 218/631/15
f 220/830/32 221/836/32 222/834/32
f 221/836/25 233/829/25 232/835/25
f 222/622/4 224/629/4 219/630/4
f 223/505/18 236/517/18 235/506/18
f 223/505/88 224/507/88 225/516/88
f 225/628/17 228/621/17 227/620/17
f 226/615/16 222/622/16 221/616/16
f 226/664/34 227/669/34 228/667/34
f 226/860/3 232/835/3 238/859/3
f 227/669/5 236/677/5 225/678/5
f 229/26/24 218/18/24 217/25/24
f 229/26/89 230/20/89 231/19/89
f 231/280/23 234/269/23 233/268/23
f 232/256/22 239/270/22 238/257/22
f 232/835/36 233/829/36 234/833/36
f 233/10/1 218/18/1 231/19/1
f 235/293/21 230/281/21 229/292/21
f 235/506/26 217/461/26 223/505/26
f 235/506/90 236/517/90 237/508/90
f 237/282/20 240/271/20 239/270/20
f 238/663/19 227/669/19 226/664/19
f 238/663/38 239/666/38 240/668/38
f 239/270/2 230/281/2 237/282/2
f 265/1014/14 272/1006/14 271/1013/14
f 265/877/6 266/871/6 267/873/6
f 268/1000/15 267/1007/15 266/1008/15
f 268/38/7 269/44/7 270/42/7
f 269/44/25 281/37/25 280/43/25
f 270/999/4 272/1006/4 267/1007/4
f 271/1033/18 284/1048/18 283/1034/18
f 271/1033/88 272/1035/88 273/1047/88
f 273/1005/17 276/998/17 275/997/17
f 274/104/3 280/43/3 286/103/3
f 274/6/34 275/22/34 276/14/34
f 274/991/16 270/999/16 269/992/16
f 275/22/5 284/29/5 273/30/5
f 277/878/10 278/874/10 279/872/10
f 277/878/24 266/871/24 265/877/24
f 279/975/23 282/972/23 281/971/23
f 280/43/11 281/37/11 282/41/11
f 280/965/22 287/973/22 286/966/22
f 281/868/1 266/871/1 279/872/1
f 283/1034/26 265/959/26 271/1033/26
f 283/1034/90 284/1048/90 285/1036/90
f 283/982/21 278/976/21 277/981/21
f 285/977/20 288/974/20 287/973/20
f 286/5/19 275/22/19 274/6/19
f 286/5/38 287/13/38 288/21/38
f 287/973/2 278/976/2 285/977/2
f 313/1022/14 320/1010/14 319/1021/14
f 313/1043/6 314/1030/6 315/1029/6
f 316/1004/15 315/1011/15 314/1012/15
f 316/392/7 317/398/7 318/396/7
f 317/398/25 329/391/25 328/397/25
f 318/1003/4 320/1010/4 315/1011/4
f 319/586/18 332/600/18 331/587/18
f 319/586/88 320/588/88 321/599/88
f 321/1009/17 324/1002/17 323/1001/17
f 322/436/3 328/397/3 334/437/3
f 322/8/34 323/24/34 324/16/34
f 322/995/16 318/1003/16 317/996/16
f 323/24/5 332/31/5 321/32/5
f 325/1044/10 326/1032/10 327/1031/10
f 325/1044/24 314/1030/24 313/1043/24
f 327/1039/23 330/1026/23 329/1025/23
f 328/1015/22 335/1027/22 334/1016/22
f 328/397/11 329/391/11 330/395/11
f 329/1018/1 314/1030/1 327/1031/1
f 331/1052/21 326/1040/21 325/1051/21
f 331/587/26 313/533/26 319/586/26
f 331/587/90 332/600/90 333/589/90
f 333/1041/20 336/1028/20 335/1027/20
f 334/7/19 323/24/19 322/8/19
f 334/7/38 335/15/38 336/23/38
f 335/1027/2 326/1040/2 333/1041/2
s 1
f 362/11/145 363/28/146 361/12/147
f 364/230/148 365/238/149 363/231/146
f 366/252/150 367/273/151 365/253/149
f 368/272/152 369/289/153 367/273/151
s 0
f 362/765/3 370/774/3 366/771/3
s 1
f 370/549/154 371/558/155 369/550/153
f 372/3/156 361/12/147 371/4/155
s 0
f 363/728/26 367/719/26 371/721/26
s 1
f 398/53/145 399/60/146 397/54/147
f 400/232/148 401/240/149 399/233/146
f 402/687/150 403/700/151 401/688/149
f 404/699/152 405/706/153 403/700/151
s 0
f 398/783/3 406/791/3 402/786/3
s 1
f 406/47/154 407/56/155 405/48/153
f 408/45/156 397/54/147 407/46/155
s 0
f 399/762/26 403/748/26 407/757/26
s 1
f 458/967/182 459/980/183 457/968/184
f 460/441/185 461/457/186 459/442/183
f 462/851/187 463/856/188 461/852/186
f 463/856/188 466/857/189 465/858/190
s 0
f 458/486/177 466/473/177 462/480/177
s 1
f 466/439/189 467/455/191 465/440/190
f 467/958/191 458/967/182 457/968/184
s 0
f 137/956/14 139/951/14 144/950/14
f 140/924/15 142/923/15 139/951/15
f 141/726/25 140/717/25 153/716/25
f 142/923/4 148/922/4 144/950/4
f 143/839/18 145/847/18 156/848/18
f 145/949/17 144/950/17 148/922/17
f 146/788/3 141/726/3 152/725/3
f 146/907/16 148/922/16 142/923/16
f 147/746/5 160/745/5 156/779/5
f 149/824/24 151/818/24 138/817/24
f 151/95/23 150/96/23 154/50/23
f 152/35/22 154/50/22 159/51/22
f 153/790/1 140/789/1 138/817/1
f 155/112/21 157/97/21 150/96/21
f 155/840/26 149/801/26 137/800/26
f 157/97/20 156/98/20 160/52/20
f 158/733/19 160/745/19 147/746/19
f 159/51/2 154/50/2 150/96/2
f 459/1138/181 463/1120/181 467/1149/181
s 1
f 162/89/47 164/113/50 163/114/48
f 164/117/50 166/123/52 165/124/51
f 166/123/52 168/125/54 167/126/53
f 168/1/54 170/33/56 169/34/55
f 170/33/56 172/61/58 171/62/57
f 172/129/58 174/133/60 173/134/59
s 0
f 162/1113/3 176/1114/3 174/1088/3
f 166/1049/3 162/1113/3 174/1088/3
f 166/1049/3 164/1087/3 162/1113/3
f 170/1020/3 168/1019/3 166/1049/3
f 174/1088/3 172/1050/3 170/1020/3
s 1
f 174/133/60 176/135/62 175/136/61
f 176/71/62 162/89/47 161/90/49
s 0
f 163/57/26 165/73/26 167/83/26
f 167/83/26 169/84/26 171/74/26
f 171/74/26 173/58/26 175/40/26
f 175/40/26 161/39/26 163/57/26
f 175/40/26 163/57/26 167/83/26
s 1
f 178/320/47 180/322/50 179/323/48
f 180/298/50 182/308/52 181/309/51
f 182/308/52 184/310/54 183/311/53
f 184/241/54 186/262/56 185/263/55
f 186/262/56 188/296/58 187/297/57
f 188/312/58 190/314/60 189/315/59
s 0
f 178/483/3 192/495/3 190/499/3
f 182/496/3 178/483/3 190/499/3
f 182/496/3 180/484/3 178/483/3
f 186/519/3 184/500/3 182/496/3
f 190/499/3 188/518/3 186/519/3
s 1
f 190/314/60 192/316/62 191/317/61
f 192/318/62 178/320/47 177/321/49
s 0
f 179/969/26 181/983/26 183/993/26
f 183/993/26 185/994/26 187/984/26
f 187/984/26 189/970/26 191/962/26
f 191/962/26 177/961/26 179/969/26
f 191/962/26 179/969/26 183/993/26
f 217/640/14 219/630/14 224/629/14
f 220/623/15 222/622/15 219/630/15
f 221/836/25 220/830/25 233/829/25
f 222/622/4 228/621/4 224/629/4
f 223/505/18 225/516/18 236/517/18
f 225/628/17 224/629/17 228/621/17
f 226/615/16 228/621/16 222/622/16
f 226/860/3 221/836/3 232/835/3
f 227/669/5 240/668/5 236/677/5
f 229/26/24 231/19/24 218/18/24
f 231/280/23 230/281/23 234/269/23
f 232/256/22 234/269/22 239/270/22
f 233/10/1 220/9/1 218/18/1
f 235/293/21 237/282/21 230/281/21
f 235/506/26 229/462/26 217/461/26
f 237/282/20 236/283/20 240/271/20
f 238/663/19 240/668/19 227/669/19
f 239/270/2 234/269/2 230/281/2
f 265/1014/14 267/1007/14 272/1006/14
f 268/1000/15 270/999/15 267/1007/15
f 269/44/25 268/38/25 281/37/25
f 270/999/4 276/998/4 272/1006/4
f 271/1033/18 273/1047/18 284/1048/18
f 273/1005/17 272/1006/17 276/998/17
f 274/104/3 269/44/3 280/43/3
f 274/991/16 276/998/16 270/999/16
f 275/22/5 288/21/5 284/29/5
f 277/878/24 279/872/24 266/871/24
f 279/975/23 278/976/23 282/972/23
f 280/965/22 282/972/22 287/973/22
f 281/868/1 268/867/1 266/871/1
f 283/1034/26 277/960/26 265/959/26
f 283/982/21 285/977/21 278/976/21
f 285/977/20 284/978/20 288/974/20
f 286/5/19 288/21/19 275/22/19
f 287/973/2 282/972/2 278/976/2
f 313/1022/14 315/1011/14 320/1010/14
f 316/1004/15 318/1003/15 315/1011/15
f 317/398/25 316/392/25 329/391/25
f 318/1003/4 324/1002/4 320/1010/4
f 319/586/18 321/599/18 332/600/18
f 321/1009/17 320/1010/17 324/1002/17
f 322/436/3 317/398/3 328/397/3
f 322/995/16 324/1002/16 318/1003/16
f 323/24/5 336/23/5 332/31/5
f 325/1044/24 327/1031/24 314/1030/24
f 327/1039/23 326/1040/23 330/1026/23
f 328/1015/22 330/1026/22 335/1027/22
f 329/1018/1 316/1017/1 314/1030/1
f 331/1052/21 333/1041/21 326/1040/21
f 331/587/26 325/534/26 313/533/26
f 333/1041/20 332/1042/20 336/1028/20
f 334/7/19 336/23/19 323/24/19
f 335/1027/2 330/1026/2 326/1040/2
s 1
f 362/11/145 364/27/148 363/28/146
f 364/230/148 366/237/150 365/238/149
f 366/252/150 368/272/152 367/273/151
f 368/272/152 370/288/154 369/289/153
s 0
f 362/765/199 372/770/199 370/774/199
f 366/771/198 364/766/198 362/765/198
f 370/774/3 368/775/3 366/771/3
s 1
f 370/549/154 372/557/156 371/558/155
f 372/3/156 362/11/145 361/12/147
s 0
f 363/728/200 365/722/200 367/719/200
f 367/719/201 369/718/201 371/721/201
f 371/721/26 361/727/26 363/728/26
s 1
f 398/53/145 400/59/148 399/60/146
f 400/232/148 402/239/150 401/240/149
f 402/687/150 404/699/152 403/700/151
f 404/699/152 406/705/154 405/706/153
s 0
f 398/783/199 408/785/199 406/791/199
f 402/786/198 400/784/198 398/783/198
f 406/791/3 404/792/3 402/786/3
s 1
f 406/47/154 408/55/156 407/56/155
f 408/45/156 398/53/145 397/54/147
s 0
f 399/762/200 401/758/200 403/748/200
f 403/748/201 405/747/201 407/757/201
f 407/757/26 397/761/26 399/762/26
s 1
f 458/967/182 460/979/185 459/980/183
f 460/441/185 462/456/187 461/457/186
f 462/851/187 464/855/203 463/856/188
f 463/856/188 464/855/203 466/857/189
s 0
f 458/486/177 468/481/177 466/473/177
f 462/480/177 460/485/177 458/486/177
f 466/473/177 464/472/177 462/480/177
s 1
f 466/439/189 468/454/204 467/455/191
f 467/958/191 468/957/204 458/967/182
s 0
f 459/1138/181 461/1121/181 463/1120/181
f 463/1120/181 465/1137/181 467/1149/181
f 467/1149/181 457/1150/181 459/1138/181
