# Blender 4.0.2
# www.blender.org
mtllib comms_relay_lod1.mtl
o comms_relay_lod1
v 0.370000 0.040000 -0.250000
v 0.385509 0.065245 -0.271962
v 0.376613 0.526935 -0.268548
v 0.400000 0.510000 -0.250000
v 0.400000 0.070000 0.250000
v 0.376613 0.053065 0.268548
v 0.370000 0.540000 0.250000
v 0.385509 0.514755 0.271962
v -0.400000 0.070000 -0.250000
v -0.376613 0.053065 -0.268548
v -0.370000 0.540000 -0.250000
v -0.385509 0.514755 -0.271962
v -0.370000 0.040000 0.250000
v -0.385509 0.065245 0.271962
v -0.400000 0.510000 0.250000
v -0.376613 0.526935 0.268548
v 0.439004 0.009512 -0.308801
v 0.448943 0.028358 -0.299714
v 0.448943 0.011642 0.299714
v 0.439004 0.030488 0.308801
v -0.448943 0.011642 -0.299714
v -0.439004 0.030488 -0.308801
v -0.439004 0.009512 0.308801
v -0.448943 0.028358 0.299714
v 0.279588 0.157058 0.276951
v 0.273461 0.449692 0.278508
v 0.273461 0.150308 0.291493
v 0.279588 0.442942 0.293049
v -0.273461 0.150308 0.278508
v -0.279588 0.442942 0.276951
v -0.279588 0.157058 0.293049
v -0.273461 0.449692 0.291493
v 0.195333 0.463333 0.275833
v 0.196923 0.495692 0.276808
v 0.196923 0.464308 0.303192
v 0.195333 0.496667 0.304167
v -0.196923 0.464308 0.276808
v -0.195333 0.496667 0.275833
v -0.195333 0.463333 0.304167
v -0.196923 0.495692 0.303192
v 0.137000 0.334000 0.304000
v 0.137000 0.226000 0.300000
v 0.101000 0.226000 0.304000
v 0.101000 0.334000 0.300000
v 0.069500 0.334000 0.302000
v 0.078500 0.226000 0.300000
v 0.060500 0.226000 0.304000
v 0.038000 0.334000 0.304000
v 0.038000 0.226000 0.300000
v 0.002000 0.226000 0.304000
v 0.002000 0.334000 0.300000
v -0.020500 0.334000 0.304000
v -0.020500 0.226000 0.300000
v -0.056500 0.226000 0.304000
v -0.056500 0.334000 0.300000
v -0.088000 0.334000 0.302000
v -0.079000 0.226000 0.300000
v -0.097000 0.226000 0.304000
v 0.088333 0.538333 -0.091667
v 0.092308 0.659231 -0.089231
v 0.092308 0.540769 0.089231
v 0.088333 0.661667 0.091667
v -0.092308 0.540769 -0.089231
v -0.088333 0.661667 -0.091667
v -0.088333 0.538333 0.091667
v -0.092308 0.659231 0.089231
v -0.017436 0.670000 0.054787
v 0.017436 2.170000 0.054787
v -0.054787 0.670000 -0.017436
v -0.054787 2.170000 0.017436
v 0.017436 0.670000 -0.054787
v -0.017436 2.170000 -0.054787
v 0.054787 0.670000 0.017436
v 0.054787 2.170000 -0.017436
v -0.012681 2.150000 0.039845
v 0.012681 3.450000 0.039845
v -0.039845 2.150000 -0.012681
v -0.039845 3.450000 0.012681
v 0.012681 2.150000 -0.039845
v -0.012681 3.450000 -0.039845
v 0.039845 2.150000 0.012681
v 0.039845 3.450000 -0.012681
v 0.016923 0.008543 0.930166
v 0.001579 1.085182 -0.011453
v 0.020096 1.104187 -0.005018
v 0.025000 0.032888 0.947764
v 0.016923 1.121457 0.019833
v -0.016923 0.008305 0.933421
v -0.020484 1.101176 -0.005643
v -0.000000 0.031680 0.964281
v -0.025000 0.032888 0.947764
v -0.016923 1.121695 0.016579
v 0.062942 0.006951 0.880412
v 0.069692 0.021493 0.886539
v 0.069692 0.008507 1.013461
v 0.062942 0.023049 1.019588
v -0.069692 0.008507 0.886539
v -0.062942 0.023049 0.880412
v -0.062942 0.006951 1.019588
v -0.069692 0.021493 1.013461
v 0.799905 0.008305 -0.481367
v -0.009994 1.083994 0.005770
v -0.003679 1.119919 0.002124
v 0.808288 0.032888 -0.495533
v 0.835092 0.031680 -0.482141
v 0.000104 1.113355 -0.029921
v 0.814009 0.008543 -0.450427
v 0.027196 1.116225 0.013125
v 0.833288 0.032888 -0.452231
v 0.885666 0.006951 -0.544588
v 0.892416 0.021493 -0.538461
v 0.892416 0.008507 -0.411539
v 0.885666 0.023049 -0.405412
v 0.753032 0.008507 -0.538461
v 0.759782 0.023049 -0.544588
v 0.759782 0.006951 -0.405412
v 0.753032 0.021493 -0.411539
v -0.813034 0.005624 -0.455776
v -0.827232 0.025381 -0.445089
v 0.001856 1.098022 0.017203
v -0.838313 0.032542 -0.468635
v -0.023651 1.104618 0.018859
v -0.797445 0.010052 -0.482611
v 0.016528 1.098143 -0.004891
v 0.005586 1.104084 -0.028529
v -0.823351 0.031985 -0.494125
v -0.016125 1.126932 -0.011178
v -0.759782 0.006951 -0.544588
v -0.753032 0.021493 -0.538461
v -0.753032 0.008507 -0.411539
v -0.759782 0.023049 -0.405412
v -0.892416 0.008507 -0.538461
v -0.885666 0.023049 -0.544588
v -0.885666 0.006951 -0.405412
v -0.892416 0.021493 -0.411539
v 0.536803 2.929672 -0.019754
v 0.538307 2.968468 -0.019274
v 0.556500 2.950000 0.000000
v 0.538307 2.931532 0.019274
v 0.536803 2.970328 0.019754
v -0.556500 2.950000 0.000000
v -0.538307 2.931532 -0.019274
v -0.536803 2.970328 -0.019754
v -0.536803 2.929672 0.019754
v -0.538307 2.968468 0.019274
v 0.515276 2.970000 0.011455
v 0.512442 3.470000 0.009818
v 0.512442 2.970000 -0.009818
v 0.515276 3.470000 -0.011455
v 0.532282 2.970000 -0.001636
v 0.532282 3.470000 0.001636
v 0.539167 3.459167 -0.020833
v 0.541154 3.499615 -0.019615
v 0.541154 3.460385 0.019615
v 0.539167 3.500834 0.020833
v 0.498846 3.460385 -0.019615
v 0.500833 3.500834 -0.020833
v 0.500833 3.459167 0.020833
v 0.498846 3.499615 0.019615
v -0.532282 2.970000 0.001636
v -0.527558 3.470000 0.009818
v -0.515276 2.970000 -0.011455
v -0.524724 3.470000 -0.011455
v -0.512442 2.970000 0.009818
v -0.507718 3.470000 0.001636
v -0.500833 3.459167 -0.020833
v -0.498846 3.499615 -0.019615
v -0.498846 3.460385 0.019615
v -0.500833 3.500834 0.020833
v -0.541154 3.460385 -0.019615
v -0.539167 3.500834 -0.020833
v -0.539167 3.459167 0.020833
v -0.541154 3.499615 0.019615
v -0.042866 2.096398 0.150081
v 0.072872 1.980596 0.261780
v -0.173205 2.193213 0.125984
v -0.243480 2.073844 0.238440
v -0.195009 2.351026 0.085409
v -0.340000 2.309896 0.178757
v -0.052346 2.479265 0.052422
v -0.257215 2.534831 0.119909
v 0.000000 2.639326 0.094639
v 0.137006 2.436812 0.063159
v 0.257215 2.534831 0.119909
v 0.200000 2.290104 0.101244
v 0.151570 2.157207 0.134554
v 0.330891 2.206208 0.204383
v -0.009897 2.288650 0.187350
v -0.010825 2.336573 0.381530
v -0.010825 2.323427 0.178470
v -0.009897 2.371350 0.372650
v 0.020470 2.302617 0.183783
v 0.020470 2.357383 0.376217
v 0.031250 3.406250 -0.033750
v 0.034231 3.491923 -0.031923
v 0.034231 3.408077 0.031923
v 0.031250 3.493750 0.033750
v -0.034231 3.408077 -0.031923
v -0.031250 3.493750 -0.033750
v -0.031250 3.406250 0.033750
v -0.034231 3.491923 0.031923
vn -0.0072 -0.6588 0.7523
vn 0.0072 0.6588 0.7523
vn -0.6292 0.0179 0.7770
vn 0.0072 -0.6588 -0.7523
vn -0.0072 0.6588 -0.7523
vn -0.0099 -0.9086 0.4176
vn 0.0099 0.9086 0.4176
vn -0.9248 0.0214 0.3798
vn 0.0099 -0.9086 -0.4176
vn -0.0099 0.9086 -0.4176
vn 0.2169 -0.0000 0.9762
vn -0.2169 -0.0000 -0.9762
vn -0.7745 0.5826 0.2465
vn -0.7745 -0.5826 -0.2465
vn -0.2465 -0.5826 0.7745
vn -0.2465 0.5826 -0.7745
vn 0.2465 -0.5826 -0.7745
vn 0.7745 0.5826 -0.2465
vn 0.7745 -0.5826 0.2465
vn 0.2465 0.5826 0.7745
vn -0.7750 0.5818 0.2467
vn -0.7750 -0.5818 -0.2467
vn -0.2467 -0.5818 0.7750
vn -0.2467 0.5818 -0.7750
vn 0.2467 -0.5818 -0.7750
vn 0.7750 0.5818 -0.2467
vn 0.7750 -0.5818 0.2467
vn 0.2467 0.5818 0.7750
vn -0.0676 -0.6574 -0.7505
vn 0.4548 -0.6159 0.6433
vn -0.5582 -0.5418 -0.6284
vn 0.0616 -0.8116 0.5810
vn -0.6834 -0.6579 0.3166
vn 0.3069 -0.1736 0.9358
vn -0.6669 -0.1881 -0.7210
vn -0.9766 0.1567 -0.1474
vn -0.3158 0.1506 0.9368
vn -0.0046 0.0073 -1.0000
vn 0.3518 -0.5545 -0.7541
vn 0.1789 0.9678 -0.1771
vn 0.0960 -0.3255 0.9407
vn 0.4401 0.0491 -0.8966
vn -0.6479 0.6516 -0.3945
vn -0.7570 -0.6326 0.1639
vn -0.1611 0.4953 -0.8537
vn 0.6696 0.7320 -0.1260
vn 0.7944 -0.3898 -0.4657
vn 0.7154 -0.6987 0.0057
vn 0.7178 -0.0192 -0.6960
vn 0.7154 0.6987 -0.0057
vn 0.7178 0.0192 0.6960
vn -0.7154 -0.6987 -0.0057
vn -0.7154 0.6987 0.0057
vn -0.7178 0.0192 -0.6960
vn -0.5043 0.5626 0.6551
vn -0.8195 -0.5626 0.1092
vn 0.5043 -0.5626 0.6551
vn -0.3152 0.5626 -0.7643
vn 0.3152 -0.5626 -0.7643
vn 0.8195 0.5626 0.1092
vn -0.6773 -0.6303 0.3795
vn -0.2705 -0.3763 -0.8861
vn -0.0731 -0.5484 -0.8330
vn -0.2935 -0.1435 -0.9451
vn -0.7128 0.7008 0.0292
vn -0.0796 0.0589 -0.9951
vn 0.9336 -0.2305 0.2744
vn 0.2361 -0.4662 -0.8526
vn 0.3230 -0.2054 -0.9238
vn 0.2159 -0.8756 0.4320
vn -0.9991 0.0312 -0.0275
vn 0.0169 0.9995 -0.0250
vn 0.9991 0.0312 0.0275
vn 0.0046 0.0073 1.0000
vn 0.8446 -0.5350 -0.0186
vn 0.8446 0.5350 0.0186
vn 0.6292 0.0179 -0.7770
vn -0.8446 -0.5350 0.0186
vn 0.6292 -0.0179 0.7770
vn -0.8446 0.5350 -0.0186
vn -0.0169 -0.9995 -0.0250
vn -0.6292 -0.0179 -0.7770
vn 0.0024 1.0000 -0.0035
vn -0.0024 -1.0000 -0.0035
vn 0.8870 -0.4616 -0.0129
vn 0.8870 0.4616 0.0129
vn 0.0103 -0.4299 0.9028
vn -0.0103 0.4299 0.9028
vn -0.8870 -0.4616 0.0129
vn -0.8870 0.4616 -0.0129
vn -0.0103 -0.4299 -0.9028
vn 0.0103 0.4299 -0.9028
vn -0.0029 0.0053 -1.0000
vn 0.0029 0.0053 1.0000
vn 0.0026 0.0300 -0.9995
vn 0.9248 0.0214 -0.3798
vn 0.9248 -0.0214 0.3798
vn -0.9248 -0.0214 -0.3798
vn -0.9973 0.0473 -0.0563
vn 0.0026 0.9994 -0.0354
vn 0.9973 0.0473 0.0563
vn -0.0026 0.0300 0.9995
vn -0.0026 -0.9994 -0.0354
vn 0.1104 0.0368 0.9932
vn -0.1104 0.0368 -0.9932
vn 0.0137 0.0197 -0.9997
vn -0.9992 0.0324 -0.0215
vn 0.0137 0.9998 -0.0132
vn 0.9992 0.0324 0.0215
vn -0.0137 0.0197 0.9997
vn -0.0137 -0.9998 -0.0132
vn -0.0000 1.0000 -0.0000
vn -0.0000 -1.0000 -0.0000
vn -0.9931 0.0802 0.0851
vn 0.0601 0.8233 -0.5644
vn 0.9944 0.0726 0.0765
vn 0.0122 0.9999 -0.0111
vn -0.0679 0.6540 0.7534
vn 0.6817 -0.4761 -0.5555
vn 0.4255 0.5889 0.6871
vn -0.4250 0.5902 0.6864
vn -0.4772 -0.5545 0.6817
vn -0.0099 0.3293 -0.9442
vn -0.0122 -0.9999 -0.0111
vn 0.9128 -0.4062 -0.0416
vn 0.9128 0.4062 0.0416
vn 0.0472 -0.3692 0.9282
vn -0.0472 0.3692 0.9282
vn -0.9128 -0.4062 0.0416
vn -0.9128 0.4062 -0.0416
vn -0.0472 -0.3692 -0.9282
vn 0.0472 0.3692 -0.9282
vn 0.6173 0.6573 -0.4323
vn -0.7810 -0.3555 -0.5134
vn 0.3816 0.5915 -0.7103
vn 0.8071 0.5899 0.0248
vn 0.7845 -0.6159 0.0722
vn 0.5339 -0.8116 -0.2372
vn -0.0472 -0.3692 -0.9281
vn 0.0472 0.3692 -0.9281
vn 0.6985 -0.6503 0.2985
vn -0.0360 -0.3720 0.9276
vn 0.5688 0.7285 0.3817
vn -0.8248 0.5328 0.1892
vn 0.2344 0.7514 0.6169
vn -0.4785 -0.7784 -0.4064
vn 0.0005 0.0124 -0.9999
vn 0.0017 0.9989 -0.0475
vn -0.0005 0.0124 0.9999
vn -0.0017 -0.9989 -0.0475
vn -0.7178 -0.0192 0.6960
vn -0.5061 -0.5583 -0.6574
vn -0.5061 0.5583 0.6574
vn -0.3163 0.5583 -0.7670
vn 0.8224 -0.5583 -0.1096
vn 0.8224 0.5583 0.1096
vn -0.3163 -0.5583 0.7670
vn 0.0310 0.0286 -0.9991
vn -0.9977 0.0476 -0.0476
vn 0.0310 0.9991 -0.0286
vn 0.9977 0.0476 0.0476
vn -0.0310 0.0286 0.9991
vn -0.0310 -0.9991 -0.0286
vn -0.9735 0.0322 0.2265
vn 0.1977 -0.0055 -0.9802
vn 0.0178 0.9994 -0.0311
vn 0.7436 0.6674 0.0395
vn 0.0007 0.2462 0.9692
vn -0.4361 -0.8215 -0.3675
vn -0.4361 0.8215 0.3675
vn -0.4028 0.5663 -0.7191
vn 0.0010 -0.2456 -0.9694
vn 0.8237 0.2070 0.5278
vn -0.4028 -0.5663 0.7191
vn 0.8237 -0.2070 -0.5278
vn -0.0000 0.2474 0.9689
vn 0.0285 0.0203 -0.9994
vn -0.0000 -0.2474 -0.9689
vn -0.9984 0.0338 -0.0444
vn 0.0286 0.9992 -0.0265
vn 0.9984 0.0338 0.0444
vn -0.0285 0.0203 0.9994
vn -0.0286 -0.9992 -0.0265
vn 0.0046 -0.0073 -1.0000
vn -0.9991 -0.0312 0.0275
vn -0.0169 0.9995 0.0250
vn 0.9991 -0.0312 -0.0275
vn -0.0046 -0.0073 1.0000
vn 0.5931 -0.8051 0.0127
vn 0.5931 0.8051 -0.0127
vn -0.5931 -0.8051 -0.0127
vn -0.5931 0.8051 0.0127
vn 0.0169 -0.9995 0.0250
vn -0.0024 1.0000 0.0035
vn 0.0024 -1.0000 0.0035
vn 0.0029 -0.0053 -1.0000
vn -0.0029 -0.0053 1.0000
vn -0.0026 -0.0300 -0.9995
vn -0.9973 -0.0473 0.0563
vn -0.0026 0.9994 0.0354
vn 0.9973 -0.0473 -0.0563
vn 0.0026 -0.0300 0.9995
vn 0.0026 -0.9994 0.0354
vn -0.1104 -0.0368 0.9932
vn 0.1104 -0.0368 -0.9932
vn -0.0137 -0.0197 -0.9997
vn -0.9992 -0.0324 0.0215
vn -0.0137 0.9998 0.0132
vn 0.9992 -0.0324 -0.0215
vn 0.0137 -0.0197 0.9997
vn 0.0137 -0.9998 0.0132
vn -0.9580 -0.1887 -0.2160
vn -0.0443 0.7375 -0.6739
vn 0.9639 -0.1744 -0.2011
vn -0.0122 0.9999 0.0111
vn 0.0122 -0.9999 0.0111
vn 0.6313 -0.6547 0.4156
vn 0.0661 -0.4376 0.8967
vn -0.7840 0.3858 0.4863
vn -0.6007 -0.7251 -0.3368
vn -0.0005 -0.0124 -0.9999
vn -0.0017 0.9989 0.0475
vn 0.0005 -0.0124 0.9999
vn 0.0017 -0.9989 0.0475
vn -0.0310 -0.0286 -0.9991
vn -0.9977 -0.0476 0.0476
vn -0.0310 0.9991 0.0286
vn 0.9977 -0.0476 -0.0476
vn 0.0310 -0.0286 0.9991
vn 0.0310 -0.9991 0.0286
vn 0.0109 0.2493 0.9684
vn 0.0009 0.2456 0.9694
vn 0.0066 0.2503 0.9681
vn -0.0059 0.2489 0.9685
vn -0.0016 -0.2519 -0.9677
vn -0.0016 -0.2426 -0.9701
vn -0.0066 -0.2499 -0.9683
vn 0.0003 -0.2495 -0.9684
vn -0.0284 -0.0203 -0.9994
vn -0.9984 -0.0338 0.0444
vn -0.0286 0.9992 0.0265
vn 0.9984 -0.0338 -0.0444
vn 0.0284 -0.0203 0.9994
vn 0.0286 -0.9992 0.0265
vt 0.00000 0.46527
vt 0.00000 0.47623
vt 0.00000 0.63129
vt 0.00145 0.79138
vt 0.00227 0.64324
vt 0.00227 0.69762
vt 0.00289 0.68261
vt 0.00289 0.73699
vt 0.00354 0.75416
vt 0.00413 0.79353
vt 0.00428 0.63131
vt 0.00500 0.64539
vt 0.00500 0.69977
vt 0.00514 0.47624
vt 0.00723 0.00000
vt 0.01300 0.92785
vt 0.01416 0.89063
vt 0.01514 0.87036
vt 0.01604 0.93000
vt 0.01626 0.46526
vt 0.01646 0.94759
vt 0.01695 0.47623
vt 0.01695 0.79737
vt 0.01697 0.81826
vt 0.01809 0.63130
vt 0.01853 0.96988
vt 0.01926 0.64228
vt 0.02057 0.79737
vt 0.02208 0.47624
vt 0.02323 0.63129
vt 0.02349 0.00001
vt 0.03416 0.46517
vt 0.03816 0.94546
vt 0.04023 0.96775
vt 0.04139 0.00006
vt 0.04557 0.48088
vt 0.04687 0.68198
vt 0.04718 0.80173
vt 0.04967 0.66388
vt 0.05042 0.46523
vt 0.05131 0.87284
vt 0.05231 0.89063
vt 0.05231 0.92785
vt 0.05314 0.82073
vt 0.05355 0.48088
vt 0.05528 0.68198
vt 0.05528 0.80109
vt 0.05765 0.00000
vt 0.05765 0.66388
vt 0.06832 0.46526
vt 0.06832 0.48087
vt 0.06832 0.75073
vt 0.06832 0.84272
vt 0.07555 0.00000
vt 0.08379 0.92522
vt 0.08458 0.46526
vt 0.09181 0.00000
vt 0.10248 0.46526
vt 0.10971 0.00000
vt 0.11374 0.87086
vt 0.11875 0.46526
vt 0.12093 0.77837
vt 0.12597 0.00000
vt 0.13664 0.44617
vt 0.13884 0.97049
vt 0.13945 0.82025
vt 0.13945 0.92063
vt 0.13979 0.00301
vt 0.14117 0.44617
vt 0.14117 0.45082
vt 0.14722 0.00268
vt 0.14862 0.44794
vt 0.15174 0.00465
vt 0.16242 0.00465
vt 0.16534 0.44759
vt 0.16695 0.00233
vt 0.17299 0.44617
vt 0.17299 0.45082
vt 0.17471 0.00321
vt 0.17752 0.44617
vt 0.18558 0.80991
vt 0.18558 0.92951
vt 0.18819 0.00079
vt 0.19115 0.41940
vt 0.19155 0.43776
vt 0.19272 0.46112
vt 0.19692 0.00041
vt 0.19857 0.42151
vt 0.20782 0.43717
vt 0.20782 0.46112
vt 0.21105 0.42012
vt 0.21281 0.95568
vt 0.21590 0.41710
vt 0.21609 0.00053
vt 0.21726 0.78224
vt 0.21796 0.83653
vt 0.21978 0.42039
vt 0.22098 0.89628
vt 0.22755 0.43467
vt 0.22755 0.45859
vt 0.23253 0.42073
vt 0.23531 0.00625
vt 0.23707 0.00041
vt 0.24019 0.42126
vt 0.24265 0.43467
vt 0.24382 0.45798
vt 0.24403 0.00581
vt 0.24653 0.47759
vt 0.24941 0.75073
vt 0.25108 0.48088
vt 0.25470 0.42071
vt 0.25679 0.00332
vt 0.26098 0.87229
vt 0.26258 0.43252
vt 0.26258 0.58761
vt 0.26258 0.59857
vt 0.26298 0.42121
vt 0.26386 0.00619
vt 0.26389 0.75365
vt 0.26444 0.00000
vt 0.26620 0.43252
vt 0.26620 0.58761
vt 0.26620 0.59857
vt 0.27687 0.40323
vt 0.27687 0.41885
vt 0.27965 0.94392
vt 0.27965 0.95432
vt 0.28097 0.60185
vt 0.28213 0.00000
vt 0.28268 0.78661
vt 0.28268 0.89063
vt 0.28382 0.77255
vt 0.28467 0.61746
vt 0.28486 0.41885
vt 0.28535 0.87346
vt 0.28565 0.92785
vt 0.28870 0.40323
vt 0.28876 0.89063
vt 0.28895 0.60185
vt 0.28895 0.61747
vt 0.28895 0.77255
vt 0.28906 0.78661
vt 0.28975 0.94422
vt 0.29014 0.95432
vt 0.29174 0.87346
vt 0.29174 0.92785
vt 0.29396 0.00001
vt 0.30463 0.40323
vt 0.30463 0.68869
vt 0.30463 0.71361
vt 0.30463 0.94314
vt 0.30630 0.41884
vt 0.30918 0.69198
vt 0.30989 0.00000
vt 0.31646 0.40323
vt 0.32171 0.00000
vt 0.33238 0.40323
vt 0.33764 0.00000
vt 0.34421 0.40323
vt 0.34947 0.00000
vt 0.36014 0.40314
vt 0.36540 0.00005
vt 0.37197 0.40319
vt 0.37722 0.00000
vt 0.38896 0.38681
vt 0.38971 0.39717
vt 0.39031 0.00775
vt 0.39424 0.00112
vt 0.39952 0.37246
vt 0.40118 0.38574
vt 0.40151 0.00632
vt 0.40192 0.39611
vt 0.41473 0.38681
vt 0.41548 0.39717
vt 0.41712 0.36797
vt 0.42453 0.36452
vt 0.42556 0.00033
vt 0.42644 0.36990
vt 0.42695 0.38574
vt 0.42770 0.39611
vt 0.43751 0.70996
vt 0.44066 0.00681
vt 0.44106 0.38681
vt 0.44144 0.39691
vt 0.44180 0.94314
vt 0.44250 0.00000
vt 0.44278 0.37253
vt 0.44658 0.71361
vt 0.44748 0.00581
vt 0.45158 0.38681
vt 0.45158 0.39611
vt 0.45725 0.71361
vt 0.45725 0.86870
vt 0.45725 0.92929
vt 0.45841 0.89207
vt 0.45885 0.94800
vt 0.45997 0.97131
vt 0.46028 0.93144
vt 0.46387 0.38681
vt 0.46426 0.39691
vt 0.46432 0.00056
vt 0.46585 0.36616
vt 0.46631 0.70796
vt 0.46631 0.86870
vt 0.46631 0.87800
vt 0.46797 0.37274
vt 0.47066 0.00000
vt 0.47302 0.36677
vt 0.47439 0.38681
vt 0.47439 0.39611
vt 0.47869 0.94641
vt 0.47981 0.96972
vt 0.48738 0.68870
vt 0.48740 0.41885
vt 0.49432 0.00000
vt 0.49655 0.92929
vt 0.49656 0.89207
vt 0.49734 0.34317
vt 0.49879 0.61506
vt 0.49879 0.67710
vt 0.50036 0.00000
vt 0.50069 0.35857
vt 0.50146 0.94645
vt 0.50146 0.95698
vt 0.50180 0.52800
vt 0.50362 0.36051
vt 0.50483 0.61506
vt 0.50483 0.67710
vt 0.50723 0.89207
vt 0.50723 0.92929
vt 0.51144 0.95686
vt 0.51155 0.94565
vt 0.51743 0.67610
vt 0.51749 0.00203
vt 0.51785 0.36158
vt 0.51812 0.66725
vt 0.51858 0.65469
vt 0.52009 0.34114
vt 0.52282 0.35443
vt 0.52359 0.00656
vt 0.52582 0.67170
vt 0.52613 0.34114
vt 0.52673 0.94748
vt 0.52823 0.96369
vt 0.52840 0.00176
vt 0.52881 0.36127
vt 0.53673 0.67036
vt 0.53673 0.68587
vt 0.54251 0.94593
vt 0.54350 0.88992
vt 0.54356 0.33654
vt 0.54377 0.00465
vt 0.54402 0.96214
vt 0.54435 0.35215
vt 0.54435 0.64672
vt 0.54538 0.92929
vt 0.54653 0.89207
vt 0.54887 0.65475
vt 0.55199 0.00465
vt 0.55199 0.33654
vt 0.55334 0.64710
vt 0.55368 0.68707
vt 0.55425 0.67036
vt 0.55720 0.89207
vt 0.55720 0.92929
vt 0.55880 0.94800
vt 0.55992 0.97131
vt 0.56484 0.33654
vt 0.56507 0.00465
vt 0.56837 0.52275
vt 0.57018 0.35525
vt 0.57131 0.52468
vt 0.57331 0.33654
vt 0.57332 0.00465
vt 0.57864 0.94641
vt 0.57976 0.96972
vt 0.58399 0.33654
vt 0.58400 0.00465
vt 0.58617 0.68587
vt 0.58674 0.66916
vt 0.58848 0.64680
vt 0.58853 0.65475
vt 0.59225 0.33654
vt 0.59246 0.00465
vt 0.59305 0.35215
vt 0.59310 0.94645
vt 0.59347 0.88992
vt 0.59385 0.95682
vt 0.59452 0.64693
vt 0.59457 0.65474
vt 0.59535 0.92929
vt 0.59651 0.89207
vt 0.59909 0.35215
vt 0.59918 0.70431
vt 0.59918 0.71361
vt 0.59918 0.87435
vt 0.60370 0.67036
vt 0.60370 0.68587
vt 0.60411 0.94539
vt 0.60411 0.95776
vt 0.60531 0.00465
vt 0.60531 0.33654
vt 0.60718 0.89207
vt 0.60825 0.71361
vt 0.60825 0.86870
vt 0.61015 0.92929
vt 0.61326 0.89207
vt 0.61350 0.33654
vt 0.61370 0.00465
vt 0.61430 0.35215
vt 0.61624 0.92929
vt 0.61752 0.36024
vt 0.61882 0.65474
vt 0.61943 0.69921
vt 0.61943 0.74367
vt 0.61943 0.78812
vt 0.62034 0.35215
vt 0.62214 0.66571
vt 0.62214 0.71017
vt 0.62214 0.75463
vt 0.62486 0.65475
vt 0.62486 0.69921
vt 0.62486 0.74367
vt 0.62486 0.78812
vt 0.62865 0.29107
vt 0.62927 0.33044
vt 0.62939 0.96520
vt 0.62976 0.00137
vt 0.63032 0.27450
vt 0.63094 0.91234
vt 0.63094 0.94583
vt 0.63139 0.29322
vt 0.63275 0.81142
vt 0.63293 0.00465
vt 0.63307 0.97012
vt 0.63446 0.95921
vt 0.63543 0.89827
vt 0.63553 0.79736
vt 0.63681 0.62666
vt 0.63753 0.64227
vt 0.63913 0.81142
vt 0.63938 0.35681
vt 0.63981 0.79736
vt 0.63989 0.62994
vt 0.64024 0.96629
vt 0.64181 0.64227
vt 0.64181 0.89827
vt 0.64181 0.91234
vt 0.64181 0.94583
vt 0.64601 0.33328
vt 0.64687 0.33886
vt 0.64777 0.31493
vt 0.64843 0.00565
vt 0.64853 0.26370
vt 0.64923 0.23883
vt 0.65115 0.33531
vt 0.65376 0.36146
vt 0.65376 0.59099
vt 0.65376 0.85009
vt 0.65376 0.94445
vt 0.65376 0.95682
vt 0.65409 0.00931
vt 0.65701 0.87656
vt 0.65778 0.92779
vt 0.65863 0.62056
vt 0.66182 0.33633
vt 0.66293 0.85374
vt 0.66403 0.94539
vt 0.66477 0.95576
vt 0.66610 0.33277
vt 0.66695 0.33836
vt 0.67651 0.94774
vt 0.67651 0.95432
vt 0.67877 0.33633
vt 0.68078 0.94335
vt 0.68078 0.95870
vt 0.68305 0.33277
vt 0.68390 0.33836
vt 0.68399 0.95103
vt 0.68719 0.94335
vt 0.68719 0.95870
vt 0.69012 0.87656
vt 0.69012 0.92619
vt 0.69146 0.94774
vt 0.69146 0.95432
vt 0.69571 0.33633
vt 0.69932 0.26531
vt 0.69932 0.31493
vt 0.69999 0.33277
vt 0.70079 0.87656
vt 0.70079 0.92619
vt 0.70085 0.33836
vt 0.70213 0.94774
vt 0.70213 0.95432
vt 0.70640 0.94335
vt 0.70640 0.95870
vt 0.70961 0.95103
vt 0.71000 0.26530
vt 0.71000 0.31493
vt 0.71281 0.94335
vt 0.71281 0.95870
vt 0.71708 0.94774
vt 0.71708 0.95432
vt 0.73306 0.87496
vt 0.73385 0.92619
vt 0.74771 0.91068
vt 0.74771 0.92474
vt 0.74771 0.95823
vt 0.74886 0.87346
vt 0.75074 0.91283
vt 0.75858 0.92474
vt 0.75858 0.95823
vt 0.76079 0.31653
vt 0.76154 0.26530
vt 0.76925 0.92474
vt 0.76925 0.95823
vt 0.77773 0.31981
vt 0.77774 0.25946
vt 0.78012 0.92474
vt 0.78012 0.95823
vt 0.78558 0.25910
vt 0.78558 0.31946
vt 0.78701 0.87346
vt 0.78701 0.91068
vt 0.79585 0.62056
vt 0.79585 0.85009
vt 0.79753 0.29942
vt 0.79962 0.26220
vt 0.80021 0.30157
vt 0.80474 0.59099
vt 0.80505 0.23884
vt 0.80506 0.00931
vt 0.80652 0.68737
vt 0.80652 0.82940
vt 0.80652 0.99690
vt 0.80959 0.36146
vt 0.81039 0.59464
vt 0.81574 0.00931
vt 0.81574 0.16439
vt 0.81574 0.18714
vt 0.81574 0.30625
vt 0.81719 0.33210
vt 0.81757 0.32199
vt 0.82206 0.76994
vt 0.82381 0.18650
vt 0.82413 0.30625
vt 0.82462 0.52275
vt 0.82480 0.00365
vt 0.82480 0.16439
vt 0.82480 0.17370
vt 0.82556 0.35525
vt 0.82676 0.59264
vt 0.82766 0.52468
vt 0.82786 0.32279
vt 0.82786 0.33210
vt 0.82859 0.54054
vt 0.83724 0.30625
vt 0.83755 0.18650
vt 0.83999 0.33210
vt 0.84037 0.32199
vt 0.84427 0.18714
vt 0.84427 0.30625
vt 0.85067 0.32279
vt 0.85067 0.33210
vt 0.85494 0.30625
vt 0.85495 0.18714
vt 0.85935 0.62313
vt 0.86167 0.30689
vt 0.86198 0.18714
vt 0.86293 0.59512
vt 0.86476 0.54302
vt 0.87381 0.18538
vt 0.87381 0.24573
vt 0.87381 0.25979
vt 0.87381 0.29701
vt 0.87633 0.31521
vt 0.87757 0.53991
vt 0.87783 0.33142
vt 0.88055 0.57713
vt 0.88166 0.18502
vt 0.88166 0.24537
vt 0.88365 0.53991
vt 0.88663 0.57713
vt 0.89108 0.82747
vt 0.89211 0.31366
vt 0.89318 0.99690
vt 0.89361 0.32987
vt 0.89411 0.82940
vt 0.89494 0.18776
vt 0.89730 0.53991
vt 0.89792 0.22498
vt 0.90028 0.57713
vt 0.90103 0.18776
vt 0.90338 0.53991
vt 0.90400 0.22498
vt 0.90478 0.82940
vt 0.90478 0.95234
vt 0.90605 0.92101
vt 0.90636 0.57713
vt 0.90775 0.86662
vt 0.90814 0.88379
vt 0.90842 0.81492
vt 0.90873 0.92316
vt 0.91008 0.25764
vt 0.91086 0.82940
vt 0.91196 0.29701
vt 0.91224 0.35525
vt 0.91224 0.52275
vt 0.91311 0.25979
vt 0.91384 0.86662
vt 0.91468 0.18466
vt 0.91468 0.21816
vt 0.91468 0.23222
vt 0.91468 0.24153
vt 0.91703 0.53681
vt 0.91703 0.57031
vt 0.91703 0.58437
vt 0.91703 0.59368
vt 0.91865 0.93507
vt 0.92149 0.88069
vt 0.92149 0.91418
vt 0.92159 0.96660
vt 0.92291 0.38565
vt 0.92497 0.24233
vt 0.92535 0.23222
vt 0.92555 0.18466
vt 0.92555 0.21816
vt 0.92563 0.35215
vt 0.92733 0.59448
vt 0.92771 0.58437
vt 0.92790 0.53681
vt 0.92790 0.57031
vt 0.92835 0.38565
vt 0.92918 0.61125
vt 0.93236 0.88069
vt 0.93236 0.91418
vt 0.93546 0.94933
vt 0.93721 0.44964
vt 0.93806 0.18712
vt 0.93806 0.39909
vt 0.93806 0.42246
vt 0.93866 0.40738
vt 0.93866 0.43075
vt 0.94153 0.19577
vt 0.94487 0.45405
vt 0.94557 0.44521
vt 0.94632 0.39824
vt 0.94632 0.42161
vt 0.94671 0.18821
vt 0.94692 0.40653
vt 0.94692 0.42990
vt 0.95767 0.00000
vt 0.95767 0.00931
vt 0.95767 0.17005
vt 0.96673 0.00931
vt 0.96673 0.16439
vt 0.98704 0.66131
vt 0.98962 0.75826
s 0
usemtl MMOFPS_olive
f 1/357/193 6/436/193 13/430/193
f 1/357/81 13/430/81 10/358/81
f 10/185/184 12/151/184 3/150/184
f 10/185/38 3/150/38 2/181/38
f 10/185/4 2/181/4 1/188/4
f 10/294/82 9/295/82 12/203/82
f 11/362/186 16/432/186 7/431/186
f 11/362/72 7/431/72 3/355/72
f 14/296/3 16/205/3 15/204/3
f 15/204/192 16/193/192 11/192/192
f 15/204/80 11/192/80 12/203/80
f 16/365/2 8/367/2 7/359/2
f 3/355/5 12/353/5 11/362/5
f 3/552/77 4/553/77 2/448/77
f 4/553/190 3/555/190 7/556/190
f 4/553/76 7/556/76 8/554/76
f 5/449/187 2/448/187 4/553/187
f 5/449/189 6/439/189 1/438/189
f 5/449/73 4/553/73 8/554/73
f 5/449/75 1/438/75 2/448/75
f 6/426/188 8/367/188 16/365/188
f 6/426/74 16/365/74 14/425/74
f 6/436/1 14/437/1 13/430/1
f 6/450/79 5/449/79 8/554/79
f 9/295/185 14/296/185 15/204/185
f 9/295/191 10/304/191 13/305/191
f 9/295/71 15/204/71 12/203/71
f 9/295/78 13/305/78 14/296/78
usemtl MMOFPS_composite
f 101/91/39 104/93/39 105/97/39
f 102/107/41 107/104/41 108/102/41
f 102/167/134 106/171/134 101/169/134
f 102/167/36 103/168/36 106/171/36
f 103/103/37 102/107/37 108/102/37
f 103/239/40 108/246/40 106/235/40
f 105/237/133 106/235/133 108/246/133
f 105/258/138 107/255/138 101/261/138
f 106/94/135 105/97/135 104/93/135
f 106/94/35 104/93/35 101/91/35
f 107/178/137 105/175/137 109/176/137
f 107/255/33 102/254/33 101/261/33
f 109/101/34 108/102/34 107/104/34
f 109/176/136 105/175/136 108/177/136
f 118/206/44 119/202/44 121/208/44
f 118/289/146 126/282/146 123/281/146
f 118/289/220 121/290/220 126/282/220
f 119/117/142 120/112/142 122/118/142
f 119/117/218 118/111/218 120/112/218
f 120/112/145 127/120/145 122/118/145
f 123/281/141 120/293/141 118/289/141
f 123/281/217 124/285/217 120/293/217
f 124/189/46 125/182/46 127/186/46
f 124/189/47 123/187/47 125/182/47
f 125/87/42 123/88/42 126/84/42
f 126/84/45 127/83/45 125/87/45
f 127/207/144 119/202/144 122/201/144
f 127/207/219 121/208/219 119/202/219
f 127/312/143 120/310/143 124/317/143
f 127/312/43 126/321/43 121/313/43
f 136/278/150 144/283/150 142/277/150
f 136/278/224 139/284/224 144/283/224
f 136/309/147 143/302/147 137/301/147
f 136/309/221 142/308/221 143/302/221
f 136/401/48 138/397/48 139/403/48
f 137/394/49 138/397/49 136/396/49
f 139/402/51 138/397/51 140/400/51
f 140/395/50 138/397/50 137/393/50
f 141/379/151 144/376/151 145/373/151
f 142/384/54 141/379/54 143/380/54
f 143/269/148 140/273/148 137/268/148
f 143/269/222 145/274/222 140/273/222
f 143/375/53 141/379/53 145/372/53
f 144/259/149 140/251/149 145/252/149
f 144/259/223 139/260/223 140/251/223
f 144/381/52 141/379/52 142/385/52
f 17/49/85 18/39/85 19/45/85
f 17/51/195 19/108/195 23/109/195
f 17/51/84 23/109/84 21/52/84
f 18/153/92 17/149/92 22/152/92
f 19/108/87 20/110/87 23/109/87
f 20/36/86 19/45/86 18/39/86
f 21/344/91 22/339/91 17/342/91
f 22/125/90 21/134/90 24/128/90
f 22/152/194 24/214/194 20/213/194
f 22/152/83 20/213/83 18/153/83
f 23/139/89 24/128/89 21/134/89
f 24/328/88 23/334/88 20/329/88
f 83/75/30 86/77/30 90/78/30
f 84/240/29 83/242/29 88/238/29
f 84/74/119 85/76/119 83/75/119
f 85/335/115 92/336/115 87/345/115
f 85/335/213 89/327/213 92/336/213
f 86/77/116 85/76/116 87/79/116
f 86/77/214 83/75/214 85/76/214
f 87/215/118 92/221/118 90/218/118
f 87/79/120 90/80/120 86/77/120
f 88/72/122 90/70/122 91/69/122
f 88/72/31 89/71/31 84/73/31
f 89/234/123 85/245/123 84/240/123
f 89/71/114 91/69/114 92/68/114
f 89/71/212 88/72/212 91/69/212
f 90/539/32 88/549/32 83/544/32
f 91/69/121 90/64/121 92/68/121
usemtl MMOFPS_night
f 26/225/10 30/222/10 32/226/10
f 27/271/6 31/272/6 29/270/6
f 29/486/9 25/484/9 27/488/9
f 31/135/8 32/130/8 30/142/8
f 32/451/7 28/453/7 26/447/7
s 1
f 175/113/70 174/98/63 186/96/68
f 177/92/61 176/82/62 174/98/63
f 178/67/64 181/55/65 180/60/66
f 187/95/67 186/96/68 185/81/69
s 0
f 26/333/96 28/341/96 25/337/96
f 27/347/97 25/337/97 28/341/97
f 27/508/94 32/451/94 31/507/94
f 29/145/98 31/135/98 30/142/98
f 29/486/93 26/434/93 25/484/93
s 1
f 175/113/70 177/92/61 174/98/63
f 178/67/64 179/65/164 181/55/65
f 179/65/164 176/82/62 177/92/61
f 180/60/66 181/55/65 182/53/166
f 183/66/165 182/53/166 184/62/167
f 185/81/69 184/62/167 187/95/67
s 0
f 177/557/168 187/502/168 182/433/168
s 1
f 187/95/67 175/113/70 186/96/68
s 0
f 185/81/172 174/98/172 178/67/172
f 27/508/197 28/453/197 32/451/197
f 29/486/196 30/435/196 26/434/196
s 1
f 179/65/164 178/67/64 176/82/62
f 183/66/165 180/60/66 182/53/166
f 185/81/69 183/66/165 184/62/167
s 0
f 174/98/237 176/82/237 178/67/237
f 177/557/232 175/558/232 187/502/232
f 178/67/238 180/60/238 185/81/238
f 180/60/235 183/66/235 185/81/235
f 181/467/231 179/534/231 177/557/231
f 182/433/234 181/467/234 177/557/234
f 185/81/236 186/96/236 174/98/236
f 187/502/233 184/444/233 182/433/233
usemtl MMOFPS_orange
f 152/232/158 157/224/158 153/223/158
f 152/232/225 156/231/225 157/224/225
f 152/513/163 158/524/163 156/514/163
f 152/513/230 154/525/230 158/524/230
f 154/172/161 153/165/161 155/170/161
f 154/172/228 152/166/228 153/165/228
f 156/300/159 159/286/159 157/299/159
f 156/300/226 158/288/226 159/286/226
f 157/443/160 155/455/160 153/442/160
f 157/443/227 159/454/227 155/455/227
f 158/190/162 155/184/162 159/183/162
f 158/190/229 154/191/229 155/184/229
f 166/143/158 171/127/158 167/126/158
f 166/143/225 170/144/225 171/127/225
f 166/517/163 172/529/163 170/518/163
f 166/517/230 168/530/230 172/529/230
f 168/369/161 167/360/161 169/368/161
f 168/369/228 166/361/228 167/360/228
f 170/180/159 173/173/159 171/179/159
f 170/180/226 172/174/226 173/173/226
f 171/460/160 169/464/160 167/459/160
f 171/460/227 173/463/227 169/464/227
f 172/209/162 169/200/162 173/199/162
f 172/209/229 168/210/229 169/200/229
f 194/106/177 199/99/177 195/105/177
f 194/106/239 198/100/239 199/99/239
f 194/247/183 200/262/183 198/248/183
f 194/247/244 196/263/244 200/262/244
f 196/276/181 195/266/181 197/275/181
f 196/276/242 194/267/242 195/266/242
f 198/212/179 201/196/179 199/211/179
f 198/212/240 200/197/240 201/196/240
f 199/280/180 197/298/180 195/279/180
f 199/280/241 201/297/241 197/298/241
f 200/90/182 197/85/182 201/89/182
f 200/90/243 196/86/243 197/85/243
f 33/445/198 37/446/198 38/441/198
f 33/445/95 38/441/95 34/440/95
f 33/466/103 39/468/103 37/465/103
f 33/466/203 35/469/203 39/468/203
f 35/551/101 34/541/101 36/548/101
f 35/551/201 33/543/201 34/541/201
f 37/550/199 39/542/199 40/540/199
f 37/550/99 40/540/99 38/547/99
f 38/458/100 36/462/100 34/457/100
f 38/458/200 40/461/200 36/462/200
f 39/46/102 36/38/102 40/37/102
f 39/46/202 35/47/202 36/38/202
f 42/521/104 44/535/104 43/536/104
f 42/521/204 41/520/204 44/535/204
f 43/516/105 41/531/105 42/532/105
f 43/516/205 44/515/205 41/531/205
f 45/318/12 46/322/12 47/314/12
f 45/528/11 47/533/11 46/523/11
f 49/408/104 51/411/104 50/412/104
f 49/408/204 48/407/204 51/411/204
f 50/331/105 48/348/105 49/349/105
f 50/331/205 51/330/205 48/348/205
f 53/416/104 55/419/104 54/420/104
f 53/416/204 52/415/204 55/419/204
f 54/512/105 52/526/105 53/527/105
f 54/512/205 55/511/205 52/526/205
f 56/319/12 57/323/12 58/315/12
f 56/320/11 58/324/11 57/316/11
s 1
usemtl MMOFPS_steel
f 161/29/55 160/30/56 164/25/57
f 163/340/58 162/343/59 160/338/56
f 165/27/60 164/28/57 162/23/59
f 68/35/20 67/40/15 73/32/19
f 70/54/13 69/56/14 67/50/15
f 72/15/16 71/20/17 69/1/14
f 74/59/18 73/61/19 71/58/17
f 76/162/28 75/163/23 81/161/27
f 78/154/21 77/155/22 75/148/23
f 80/129/24 79/137/25 77/124/22
f 82/158/26 81/159/27 79/157/25
s 0
f 59/398/111 65/413/111 63/399/111
f 59/404/106 64/391/106 60/390/106
f 61/471/109 60/452/109 62/456/109
f 63/44/107 66/18/107 64/24/107
f 64/354/108 62/388/108 60/352/108
f 65/382/110 62/364/110 66/363/110
f 72/497/112 68/537/112 74/522/112
s 1
f 68/35/20 70/48/13 67/40/15
f 70/54/13 72/57/16 69/56/14
f 72/15/16 74/31/18 71/20/17
s 0
f 71/34/113 67/21/113 69/33/113
s 1
f 74/59/18 68/63/20 73/61/19
s 0
f 80/253/112 76/243/112 82/249/112
s 1
f 76/162/28 78/164/21 75/163/23
f 78/154/21 80/156/24 77/155/22
f 80/129/24 82/147/26 79/137/25
s 0
f 79/487/113 75/476/113 77/485/113
s 1
f 82/158/26 76/160/28 81/159/27
s 0
f 100/325/128 99/332/128 96/326/128
f 110/474/124 116/506/124 114/475/124
f 110/495/125 111/491/125 112/493/125
f 111/19/140 110/16/140 115/17/140
f 112/504/127 113/509/127 116/506/127
f 113/489/126 112/493/126 111/491/126
f 114/429/139 115/427/139 110/428/139
f 115/17/117 113/43/117 111/19/117
f 115/477/130 114/482/130 117/479/130
f 116/483/129 117/479/129 114/482/129
f 117/5/128 116/12/128 113/7/128
f 128/264/124 134/291/124 132/265/124
f 128/499/125 129/492/125 130/494/125
f 129/198/140 128/194/140 133/195/140
f 130/287/127 131/292/127 134/291/127
f 131/490/126 130/494/126 129/492/126
f 132/503/139 133/498/139 128/501/139
f 133/195/117 131/216/117 129/198/117
f 133/496/130 132/505/130 135/500/130
f 134/510/129 135/500/129 132/505/129
f 135/6/128 134/13/128 131/8/128
f 93/229/124 99/256/124 97/230/124
f 93/311/125 94/306/125 95/307/125
f 94/410/132 93/406/132 98/409/132
f 95/250/127 96/257/127 99/256/127
f 96/303/126 95/307/126 94/306/126
f 97/10/131 98/4/131 93/9/131
f 98/131/130 97/138/130 100/136/130
f 98/409/117 96/424/117 94/410/117
f 99/146/129 100/136/129 97/138/129
s 1
f 146/11/157 151/2/156 147/14/153
f 148/122/152 147/114/153 149/121/154
f 150/141/155 149/133/154 151/140/156
s 0
f 150/350/113 146/356/113 148/351/113
f 151/377/112 149/378/112 147/374/112
s 1
f 161/116/55 163/123/58 160/119/56
f 163/340/58 165/346/60 162/343/59
s 0
f 165/389/112 163/392/112 161/386/112
s 1
f 165/22/60 161/29/55 164/25/57
s 0
f 164/370/113 160/371/113 162/366/113
s 1
f 188/220/169 191/227/170 190/228/171
f 189/480/174 192/473/175 193/472/173
f 193/421/173 190/417/171 191/418/170
s 0
f 110/474/216 112/504/216 116/506/216
f 115/17/215 117/42/215 113/43/215
f 128/264/216 130/287/216 134/291/216
f 133/195/215 135/217/215 131/216/215
f 188/545/178 190/538/178 192/546/178
f 191/236/176 189/241/176 193/233/176
f 59/398/211 61/414/211 65/413/211
f 59/404/206 63/405/206 64/391/206
f 61/471/209 59/470/209 60/452/209
f 63/44/207 65/41/207 66/18/207
f 64/354/208 66/387/208 62/388/208
f 65/382/210 61/383/210 62/364/210
f 71/34/113 73/26/113 67/21/113
f 72/497/112 70/519/112 68/537/112
f 79/487/113 81/478/113 75/476/113
f 80/253/112 78/244/112 76/243/112
f 93/229/216 95/250/216 99/256/216
f 98/409/215 100/423/215 96/424/215
s 1
f 146/11/157 150/3/155 151/2/156
f 148/122/152 146/115/157 147/114/153
f 150/141/155 148/132/152 149/133/154
f 188/220/169 189/219/174 191/227/170
f 189/480/174 188/481/169 192/473/175
f 193/421/173 192/422/175 190/417/171
