# Blender 4.0.2
# www.blender.org
mtllib supply_drop_pod.mtl
o supply_drop_pod
v -0.700000 0.030000 -0.259950
v -0.670000 -0.000000 -0.277523
v -0.678787 0.030000 -0.311163
v -0.311163 0.030000 -0.678787
v -0.277523 -0.000000 -0.670000
v -0.259950 0.030000 -0.700000
v 0.259950 0.030000 -0.700000
v 0.277523 -0.000000 -0.670000
v 0.311163 0.030000 -0.678787
v 0.678787 0.030000 -0.311163
v 0.670000 -0.000000 -0.277523
v 0.700000 0.030000 -0.259950
v 0.700000 0.030000 0.259950
v 0.670000 0.000000 0.277523
v 0.678787 0.030000 0.311163
v 0.311163 0.030000 0.678787
v 0.277523 0.000000 0.670000
v 0.259950 0.030000 0.700000
v -0.259950 0.030000 0.700000
v -0.277523 0.000000 0.670000
v -0.311163 0.030000 0.678787
v -0.700000 0.030000 0.259950
v -0.678787 0.030000 0.311163
v -0.670000 0.000000 0.277523
v -0.700000 0.250000 -0.259950
v -0.678787 0.250000 -0.311163
v -0.670000 0.280000 -0.277523
v -0.259950 0.250000 -0.700000
v -0.277523 0.280000 -0.670000
v -0.311163 0.250000 -0.678787
v 0.311163 0.250000 -0.678787
v 0.277523 0.280000 -0.670000
v 0.259950 0.250000 -0.700000
v 0.700000 0.250000 -0.259950
v 0.670000 0.280000 -0.277523
v 0.678787 0.250000 -0.311163
v 0.678787 0.250000 0.311163
v 0.670000 0.280000 0.277523
v 0.700000 0.250000 0.259950
v 0.259950 0.250000 0.700000
v 0.277523 0.280000 0.670000
v 0.311163 0.250000 0.678787
v -0.311163 0.250000 0.678787
v -0.277523 0.280000 0.670000
v -0.259950 0.250000 0.700000
v -0.700000 0.250000 0.259950
v -0.670000 0.280000 0.277523
v -0.678787 0.250000 0.311163
v -0.620000 0.310000 -0.226812
v -0.590000 0.280000 -0.244386
v -0.598787 0.310000 -0.278026
v -0.278026 0.310000 -0.598787
v -0.244386 0.280000 -0.590000
v -0.226812 0.310000 -0.620000
v 0.226812 0.310000 -0.620000
v 0.244386 0.280000 -0.590000
v 0.278026 0.310000 -0.598787
v 0.598787 0.310000 -0.278026
v 0.590000 0.280000 -0.244386
v 0.620000 0.310000 -0.226812
v 0.620000 0.310000 0.226812
v 0.590000 0.280000 0.244386
v 0.598787 0.310000 0.278026
v 0.278026 0.310000 0.598787
v 0.244386 0.280000 0.590000
v 0.226812 0.310000 0.620000
v -0.226812 0.310000 0.620000
v -0.244386 0.280000 0.590000
v -0.278026 0.310000 0.598787
v -0.620000 0.310000 0.226812
v -0.598787 0.310000 0.278026
v -0.590000 0.280000 0.244386
v -0.620000 1.830000 -0.226812
v -0.598787 1.830000 -0.278026
v -0.590000 1.860000 -0.244386
v -0.226812 1.830000 -0.620000
v -0.244386 1.860000 -0.590000
v -0.278026 1.830000 -0.598787
v 0.278026 1.830000 -0.598787
v 0.244386 1.860000 -0.590000
v 0.226812 1.830000 -0.620000
v 0.620000 1.830000 -0.226812
v 0.590000 1.860000 -0.244386
v 0.598787 1.830000 -0.278026
v 0.598787 1.830000 0.278026
v 0.590000 1.860000 0.244386
v 0.620000 1.830000 0.226812
v 0.226812 1.830000 0.620000
v 0.244386 1.860000 0.590000
v 0.278026 1.830000 0.598787
v -0.278026 1.830000 0.598787
v -0.244386 1.860000 0.590000
v -0.226812 1.830000 0.620000
v -0.620000 1.830000 0.226812
v -0.590000 1.860000 0.244386
v -0.598787 1.830000 0.278026
v -0.640000 1.380000 -0.245097
v -0.620000 1.360000 -0.256812
v -0.625858 1.380000 -0.279239
v -0.279239 1.380000 -0.625858
v -0.256812 1.360000 -0.620000
v -0.245097 1.380000 -0.640000
v 0.245097 1.380000 -0.640000
v 0.256812 1.360000 -0.620000
v 0.279239 1.380000 -0.625858
v 0.625858 1.380000 -0.279239
v 0.620000 1.360000 -0.256812
v 0.640000 1.380000 -0.245097
v 0.640000 1.380000 0.245097
v 0.620000 1.360000 0.256812
v 0.625858 1.380000 0.279239
v 0.279239 1.380000 0.625858
v 0.256812 1.360000 0.620000
v 0.245097 1.380000 0.640000
v -0.245097 1.380000 0.640000
v -0.256812 1.360000 0.620000
v -0.279239 1.380000 0.625858
v -0.640000 1.380000 0.245097
v -0.625858 1.380000 0.279239
v -0.620000 1.360000 0.256812
v -0.640000 1.480000 -0.245097
v -0.625858 1.480000 -0.279239
v -0.620000 1.500000 -0.256812
v -0.245097 1.480000 -0.640000
v -0.256812 1.500000 -0.620000
v -0.279239 1.480000 -0.625858
v 0.279239 1.480000 -0.625858
v 0.256812 1.500000 -0.620000
v 0.245097 1.480000 -0.640000
v 0.640000 1.480000 -0.245097
v 0.620000 1.500000 -0.256812
v 0.625858 1.480000 -0.279239
v 0.625858 1.480000 0.279239
v 0.620000 1.500000 0.256812
v 0.640000 1.480000 0.245097
v 0.245097 1.480000 0.640000
v 0.256812 1.500000 0.620000
v 0.279239 1.480000 0.625858
v -0.279239 1.480000 0.625858
v -0.256812 1.500000 0.620000
v -0.245097 1.480000 0.640000
v -0.640000 1.480000 0.245097
v -0.620000 1.500000 0.256812
v -0.625858 1.480000 0.279239
v -0.630000 0.730000 -0.250955
v -0.620000 0.720000 -0.256812
v -0.622929 0.730000 -0.268026
v -0.268026 0.730000 -0.622929
v -0.256812 0.720000 -0.620000
v -0.250955 0.730000 -0.630000
v 0.250955 0.730000 -0.630000
v 0.256812 0.720000 -0.620000
v 0.268026 0.730000 -0.622929
v 0.622929 0.730000 -0.268026
v 0.620000 0.720000 -0.256812
v 0.630000 0.730000 -0.250955
v 0.630000 0.730000 0.250955
v 0.620000 0.720000 0.256812
v 0.622929 0.730000 0.268026
v 0.268026 0.730000 0.622929
v 0.256812 0.720000 0.620000
v 0.250955 0.730000 0.630000
v -0.250955 0.730000 0.630000
v -0.256812 0.720000 0.620000
v -0.268026 0.730000 0.622929
v -0.630000 0.730000 0.250955
v -0.622929 0.730000 0.268026
v -0.620000 0.720000 0.256812
v -0.630000 0.750000 -0.250955
v -0.622929 0.750000 -0.268026
v -0.620000 0.760000 -0.256812
v -0.250955 0.750000 -0.630000
v -0.256812 0.760000 -0.620000
v -0.268026 0.750000 -0.622929
v 0.268026 0.750000 -0.622929
v 0.256812 0.760000 -0.620000
v 0.250955 0.750000 -0.630000
v 0.630000 0.750000 -0.250955
v 0.620000 0.760000 -0.256812
v 0.622929 0.750000 -0.268026
v 0.622929 0.750000 0.268026
v 0.620000 0.760000 0.256812
v 0.630000 0.750000 0.250955
v 0.250955 0.750000 0.630000
v 0.256812 0.760000 0.620000
v 0.268026 0.750000 0.622929
v -0.268026 0.750000 0.622929
v -0.256812 0.760000 0.620000
v -0.250955 0.750000 0.630000
v -0.630000 0.750000 0.250955
v -0.620000 0.760000 0.256812
v -0.622929 0.750000 0.268026
v -0.500000 1.890000 -0.177107
v -0.470000 1.860000 -0.194680
v -0.478787 1.890000 -0.228320
v -0.228320 1.890000 -0.478787
v -0.194680 1.860000 -0.470000
v -0.177107 1.890000 -0.500000
v 0.177107 1.890000 -0.500000
v 0.194680 1.860000 -0.470000
v 0.228320 1.890000 -0.478787
v 0.478787 1.890000 -0.228320
v 0.470000 1.860000 -0.194680
v 0.500000 1.890000 -0.177107
v 0.500000 1.890000 0.177107
v 0.470000 1.860000 0.194680
v 0.478787 1.890000 0.228320
v 0.228320 1.890000 0.478787
v 0.194680 1.860000 0.470000
v 0.177107 1.890000 0.500000
v -0.177107 1.890000 0.500000
v -0.194680 1.860000 0.470000
v -0.228320 1.890000 0.478787
v -0.500000 1.890000 0.177107
v -0.478787 1.890000 0.228320
v -0.470000 1.860000 0.194680
v -0.500000 2.070000 -0.177107
v -0.478787 2.070000 -0.228320
v -0.470000 2.100000 -0.194680
v -0.177107 2.070000 -0.500000
v -0.194680 2.100000 -0.470000
v -0.228320 2.070000 -0.478787
v 0.228320 2.070000 -0.478787
v 0.194680 2.100000 -0.470000
v 0.177107 2.070000 -0.500000
v 0.500000 2.070000 -0.177107
v 0.470000 2.100000 -0.194680
v 0.478787 2.070000 -0.228320
v 0.478787 2.070000 0.228320
v 0.470000 2.100000 0.194680
v 0.500000 2.070000 0.177107
v 0.177107 2.070000 0.500000
v 0.194680 2.100000 0.470000
v 0.228320 2.070000 0.478787
v -0.228320 2.070000 0.478787
v -0.194680 2.100000 0.470000
v -0.177107 2.070000 0.500000
v -0.500000 2.070000 0.177107
v -0.470000 2.100000 0.194680
v -0.478787 2.070000 0.228320
v -0.320000 2.130000 -0.102548
v -0.290000 2.100000 -0.120122
v -0.298787 2.130000 -0.153762
v -0.153762 2.130000 -0.298787
v -0.120122 2.100000 -0.290000
v -0.102548 2.130000 -0.320000
v 0.102548 2.130000 -0.320000
v 0.120122 2.100000 -0.290000
v 0.153762 2.130000 -0.298787
v 0.298787 2.130000 -0.153762
v 0.290000 2.100000 -0.120122
v 0.320000 2.130000 -0.102548
v 0.320000 2.130000 0.102548
v 0.290000 2.100000 0.120122
v 0.298787 2.130000 0.153762
v 0.153762 2.130000 0.298787
v 0.120122 2.100000 0.290000
v 0.102548 2.130000 0.320000
v -0.102548 2.130000 0.320000
v -0.120122 2.100000 0.290000
v -0.153762 2.130000 0.298787
v -0.320000 2.130000 0.102548
v -0.298787 2.130000 0.153762
v -0.290000 2.100000 0.120122
v -0.320000 2.230000 -0.102548
v -0.298787 2.230000 -0.153762
v -0.290000 2.260000 -0.120122
v -0.102548 2.230000 -0.320000
v -0.120122 2.260000 -0.290000
v -0.153762 2.230000 -0.298787
v 0.153762 2.230000 -0.298787
v 0.120122 2.260000 -0.290000
v 0.102548 2.230000 -0.320000
v 0.320000 2.230000 -0.102548
v 0.290000 2.260000 -0.120122
v 0.298787 2.230000 -0.153762
v 0.298787 2.230000 0.153762
v 0.290000 2.260000 0.120122
v 0.320000 2.230000 0.102548
v 0.102548 2.230000 0.320000
v 0.120122 2.260000 0.290000
v 0.153762 2.230000 0.298787
v -0.153762 2.230000 0.298787
v -0.120122 2.260000 0.290000
v -0.102548 2.230000 0.320000
v -0.320000 2.230000 0.102548
v -0.290000 2.260000 0.120122
v -0.298787 2.230000 0.153762
v 0.080000 2.260000 -0.080000
v 0.080000 2.280000 -0.100000
v 0.100000 2.280000 -0.080000
v 0.080000 2.340000 -0.100000
v 0.080000 2.360000 -0.080000
v 0.100000 2.340000 -0.080000
v 0.080000 2.260000 0.080000
v 0.100000 2.280000 0.080000
v 0.080000 2.280000 0.100000
v 0.080000 2.360000 0.080000
v 0.080000 2.340000 0.100000
v 0.100000 2.340000 0.080000
v -0.080000 2.260000 -0.080000
v -0.100000 2.280000 -0.080000
v -0.080000 2.280000 -0.100000
v -0.080000 2.360000 -0.080000
v -0.080000 2.340000 -0.100000
v -0.100000 2.340000 -0.080000
v -0.080000 2.260000 0.080000
v -0.080000 2.280000 0.100000
v -0.100000 2.280000 0.080000
v -0.080000 2.360000 0.080000
v -0.100000 2.340000 0.080000
v -0.080000 2.340000 0.100000
v 0.000000 2.360000 0.070000
v 0.000000 2.400000 0.070000
v -0.049497 2.360000 0.049497
v -0.049497 2.400000 0.049497
v -0.070000 2.360000 0.000000
v -0.070000 2.400000 0.000000
v -0.049497 2.360000 -0.049497
v -0.049497 2.400000 -0.049497
v 0.000000 2.360000 -0.070000
v 0.000000 2.400000 -0.070000
v 0.049497 2.360000 -0.049497
v 0.049497 2.400000 -0.049497
v 0.070000 2.360000 0.000000
v 0.070000 2.400000 0.000000
v 0.049497 2.360000 0.049497
v 0.049497 2.400000 0.049497
v -0.388909 0.020000 0.374767
v -0.417193 0.020000 0.374767
v -0.403051 0.000000 0.388909
v -0.558614 0.000000 0.544472
v -0.569269 0.020000 0.526842
v -0.569689 0.019524 0.555546
v -0.434403 0.880476 0.420261
v -0.434133 0.880000 0.391706
v -0.417193 0.900000 0.403051
v -0.388909 0.880000 0.374767
v -0.403051 0.900000 0.388909
v -0.417193 0.880000 0.374767
v -0.374767 0.020000 0.388909
v -0.388909 0.000000 0.403051
v -0.374767 0.020000 0.417193
v -0.555546 0.019524 0.569689
v -0.526842 0.020000 0.569269
v -0.544472 0.000000 0.558614
v -0.403051 0.900000 0.417193
v -0.391706 0.880000 0.434133
v -0.420261 0.880476 0.434403
v -0.374767 0.880000 0.388909
v -0.374767 0.880000 0.417193
v -0.388909 0.900000 0.403051
v 0.374767 0.020000 0.388909
v 0.374767 0.020000 0.417193
v 0.388909 0.000000 0.403051
v 0.544472 0.000000 0.558614
v 0.526842 0.020000 0.569269
v 0.555546 0.019524 0.569689
v 0.420261 0.880476 0.434403
v 0.391706 0.880000 0.434133
v 0.403051 0.900000 0.417193
v 0.374767 0.880000 0.388909
v 0.388909 0.900000 0.403051
v 0.374767 0.880000 0.417193
v 0.388909 0.020000 0.374767
v 0.403051 0.000000 0.388909
v 0.417193 0.020000 0.374767
v 0.569689 0.019524 0.555546
v 0.569269 0.020000 0.526842
v 0.558614 0.000000 0.544472
v 0.417193 0.900000 0.403051
v 0.434133 0.880000 0.391706
v 0.434403 0.880476 0.420261
v 0.388909 0.880000 0.374767
v 0.417193 0.880000 0.374767
v 0.403051 0.900000 0.388909
v 0.388909 0.020000 -0.374767
v 0.417193 0.020000 -0.374767
v 0.403051 0.000000 -0.388909
v 0.558614 0.000000 -0.544472
v 0.569269 0.020000 -0.526842
v 0.569689 0.019524 -0.555546
v 0.434403 0.880476 -0.420261
v 0.434133 0.880000 -0.391706
v 0.417193 0.900000 -0.403051
v 0.388909 0.880000 -0.374767
v 0.403051 0.900000 -0.388909
v 0.417193 0.880000 -0.374767
v 0.374767 0.020000 -0.388909
v 0.388909 0.000000 -0.403051
v 0.374767 0.020000 -0.417193
v 0.555547 0.019524 -0.569689
v 0.526842 0.020000 -0.569269
v 0.544472 0.000000 -0.558614
v 0.403051 0.900000 -0.417193
v 0.391706 0.880000 -0.434133
v 0.420261 0.880476 -0.434403
v 0.374767 0.880000 -0.388909
v 0.374767 0.880000 -0.417193
v 0.388909 0.900000 -0.403051
v -0.374767 0.020000 -0.388909
v -0.374767 0.020000 -0.417193
v -0.388909 0.000000 -0.403051
v -0.544472 0.000000 -0.558614
v -0.526842 0.020000 -0.569269
v -0.555546 0.019524 -0.569689
v -0.420261 0.880476 -0.434403
v -0.391706 0.880000 -0.434133
v -0.403051 0.900000 -0.417193
v -0.374767 0.880000 -0.388909
v -0.388909 0.900000 -0.403051
v -0.374767 0.880000 -0.417193
v -0.388909 0.020000 -0.374767
v -0.403051 0.000000 -0.388909
v -0.417193 0.020000 -0.374767
v -0.569689 0.019524 -0.555547
v -0.569269 0.020000 -0.526843
v -0.558614 0.000000 -0.544472
v -0.417193 0.900000 -0.403051
v -0.434133 0.880000 -0.391707
v -0.434403 0.880476 -0.420261
v -0.388909 0.880000 -0.374767
v -0.417193 0.880000 -0.374767
v -0.403051 0.900000 -0.388909
v 0.262000 0.550000 0.618000
v 0.262000 0.568000 0.600000
v 0.280000 0.568000 0.618000
v 0.262000 1.432000 0.600000
v 0.262000 1.450000 0.618000
v 0.280000 1.432000 0.618000
v 0.262000 0.550000 0.622000
v 0.280000 0.568000 0.622000
v 0.262000 0.568000 0.640000
v 0.262000 1.450000 0.622000
v 0.262000 1.432000 0.640000
v 0.280000 1.432000 0.622000
v -0.262000 0.550000 0.618000
v -0.280000 0.568000 0.618000
v -0.262000 0.568000 0.600000
v -0.262000 1.450000 0.618000
v -0.262000 1.432000 0.600000
v -0.280000 1.432000 0.618000
v -0.262000 0.550000 0.622000
v -0.262000 0.568000 0.640000
v -0.280000 0.568000 0.622000
v -0.262000 1.450000 0.622000
v -0.280000 1.432000 0.622000
v -0.262000 1.432000 0.640000
v 0.135000 0.735000 0.645000
v 0.135000 0.750000 0.630000
v 0.150000 0.750000 0.645000
v 0.135000 0.770000 0.630000
v 0.135000 0.785000 0.645000
v 0.150000 0.770000 0.645000
v 0.135000 0.735000 0.655000
v 0.150000 0.750000 0.655000
v 0.135000 0.750000 0.670000
v 0.135000 0.785000 0.655000
v 0.135000 0.770000 0.670000
v 0.150000 0.770000 0.655000
v -0.135000 0.735000 0.645000
v -0.150000 0.750000 0.645000
v -0.135000 0.750000 0.630000
v -0.135000 0.785000 0.645000
v -0.135000 0.770000 0.630000
v -0.150000 0.770000 0.645000
v -0.135000 0.735000 0.655000
v -0.135000 0.750000 0.670000
v -0.150000 0.750000 0.655000
v -0.135000 0.785000 0.655000
v -0.150000 0.770000 0.655000
v -0.135000 0.770000 0.670000
v 0.130000 1.220000 0.642000
v 0.130000 1.340000 0.642000
v 0.130000 1.220000 0.654000
v 0.130000 1.340000 0.654000
v 0.090000 1.220000 0.642000
v 0.090000 1.340000 0.642000
v 0.090000 1.220000 0.654000
v 0.090000 1.340000 0.654000
v 0.065000 1.220000 0.642000
v 0.065000 1.340000 0.642000
v 0.065000 1.220000 0.654000
v 0.065000 1.340000 0.654000
v 0.045000 1.220000 0.642000
v 0.045000 1.340000 0.642000
v 0.045000 1.220000 0.654000
v 0.045000 1.340000 0.654000
v 0.020000 1.220000 0.642000
v 0.020000 1.340000 0.642000
v 0.020000 1.220000 0.654000
v 0.020000 1.340000 0.654000
v -0.020000 1.220000 0.642000
v -0.020000 1.340000 0.642000
v -0.020000 1.220000 0.654000
v -0.020000 1.340000 0.654000
v -0.045000 1.220000 0.642000
v -0.045000 1.340000 0.642000
v -0.045000 1.220000 0.654000
v -0.045000 1.340000 0.654000
v -0.085000 1.220000 0.642000
v -0.085000 1.340000 0.642000
v -0.085000 1.220000 0.654000
v -0.085000 1.340000 0.654000
v -0.110000 1.220000 0.642000
v -0.110000 1.340000 0.642000
v -0.110000 1.220000 0.654000
v -0.110000 1.340000 0.654000
v -0.130000 1.220000 0.642000
v -0.130000 1.340000 0.642000
v -0.130000 1.220000 0.654000
v -0.130000 1.340000 0.654000
v 0.310000 0.910000 0.620000
v 0.310000 0.925000 0.605000
v 0.325000 0.925000 0.620000
v 0.310000 1.075000 0.605000
v 0.310000 1.090000 0.620000
v 0.325000 1.075000 0.620000
v 0.310000 0.910000 0.640000
v 0.325000 0.925000 0.640000
v 0.310000 0.925000 0.655000
v 0.310000 1.090000 0.640000
v 0.310000 1.075000 0.655000
v 0.325000 1.075000 0.640000
v 0.290000 0.910000 0.620000
v 0.275000 0.925000 0.620000
v 0.290000 0.925000 0.605000
v 0.290000 1.090000 0.620000
v 0.290000 1.075000 0.605000
v 0.275000 1.075000 0.620000
v 0.290000 0.910000 0.640000
v 0.290000 0.925000 0.655000
v 0.275000 0.925000 0.640000
v 0.290000 1.090000 0.640000
v 0.275000 1.075000 0.640000
v 0.290000 1.075000 0.655000
v -0.290000 0.910000 0.620000
v -0.290000 0.925000 0.605000
v -0.275000 0.925000 0.620000
v -0.290000 1.075000 0.605000
v -0.290000 1.090000 0.620000
v -0.275000 1.075000 0.620000
v -0.290000 0.910000 0.640000
v -0.275000 0.925000 0.640000
v -0.290000 0.925000 0.655000
v -0.290000 1.090000 0.640000
v -0.290000 1.075000 0.655000
v -0.275000 1.075000 0.640000
v -0.310000 0.910000 0.620000
v -0.325000 0.925000 0.620000
v -0.310000 0.925000 0.605000
v -0.310000 1.090000 0.620000
v -0.310000 1.075000 0.605000
v -0.325000 1.075000 0.620000
v -0.310000 0.910000 0.640000
v -0.310000 0.925000 0.655000
v -0.325000 0.925000 0.640000
v -0.310000 1.090000 0.640000
v -0.325000 1.075000 0.640000
v -0.310000 1.075000 0.655000
vn -0.0000 -0.0000 -1.0000
vn -0.0000 -1.0000 -0.0000
vn 0.7071 -0.0000 -0.7071
vn 1.0000 -0.0000 -0.0000
vn 0.7071 -0.0000 0.7071
vn -0.0000 -0.0000 1.0000
vn -0.7071 -0.0000 0.7071
vn -0.0000 1.0000 -0.0000
vn -0.7071 -0.0000 -0.7071
vn -0.7570 -0.5733 -0.3135
vn -0.3136 -0.5733 -0.7570
vn 0.3136 -0.5733 -0.7570
vn 0.7570 -0.5733 -0.3135
vn 0.7570 -0.5733 0.3135
vn 0.3136 -0.5733 0.7570
vn -0.3136 -0.5733 0.7570
vn -0.7570 -0.5733 0.3135
vn -0.7570 0.5733 -0.3135
vn -0.3136 0.5733 -0.7570
vn 0.3135 0.5733 -0.7570
vn 0.7570 0.5733 -0.3135
vn 0.7570 0.5733 0.3136
vn 0.3136 0.5733 0.7570
vn -0.3136 0.5733 0.7570
vn -0.7570 0.5733 0.3136
vn -0.7071 -0.7071 -0.0000
vn -0.5000 -0.7071 -0.5000
vn -0.0000 -0.7071 -0.7071
vn 0.5000 -0.7071 -0.5000
vn 0.7071 -0.7071 -0.0000
vn 0.5000 -0.7071 0.5000
vn -0.0000 -0.7071 0.7071
vn -0.5000 -0.7071 0.5000
vn -0.7071 0.7071 -0.0000
vn -0.5000 0.7071 0.5000
vn -0.0000 0.7071 0.7071
vn 0.5000 0.7071 0.5000
vn 0.7071 0.7071 -0.0000
vn 0.5000 0.7071 -0.5000
vn -0.0000 0.7071 -0.7071
vn -0.5000 0.7071 -0.5000
vn -0.9239 -0.0000 -0.3827
vn -0.3827 -0.0000 -0.9239
vn 0.3827 -0.0000 -0.9239
vn 0.9239 -0.0000 -0.3827
vn 0.9239 -0.0000 0.3827
vn 0.3827 -0.0000 0.9239
vn -0.3827 -0.0000 0.9239
vn -0.9239 -0.0000 0.3827
vn -1.0000 -0.0000 -0.0000
vn -0.3135 -0.5733 -0.7570
vn 0.3135 -0.5733 -0.7570
vn 0.3135 -0.5733 0.7570
vn -0.3135 -0.5733 0.7570
vn -0.7570 0.5733 -0.3136
vn 0.3136 0.5733 -0.7570
vn 0.7570 0.5733 -0.3136
vn 0.7570 -0.5733 0.3136
vn -0.7570 -0.5733 0.3136
vn 0.7570 0.5733 0.3135
vn 0.3135 0.5733 0.7570
vn -0.3135 0.5733 0.7570
vn -0.7570 0.5733 0.3135
vn -0.3135 0.5733 -0.7570
vn -0.7570 -0.5733 -0.3136
vn 0.7570 -0.5733 -0.3136
vn 0.5773 -0.5774 -0.5774
vn 0.5773 0.5774 -0.5774
vn 0.5773 -0.5774 0.5774
vn 0.5773 0.5774 0.5774
vn -0.5773 -0.5774 -0.5774
vn -0.5773 0.5774 -0.5774
vn -0.5773 -0.5774 0.5774
vn -0.5773 0.5774 0.5774
vn -0.0000 0.6303 0.7764
vn -0.5490 -0.6303 0.5490
vn -0.0000 -0.6303 0.7764
vn -0.5490 0.6303 0.5490
vn -0.7764 -0.6303 -0.0000
vn -0.7764 0.6303 -0.0000
vn -0.5490 -0.6303 -0.5490
vn -0.5490 0.6303 -0.5490
vn -0.0000 -0.6303 -0.7764
vn -0.0000 0.6303 -0.7764
vn 0.5490 -0.6303 -0.5490
vn 0.5490 0.6303 -0.5490
vn 0.7764 -0.6303 -0.0000
vn 0.7764 0.6303 -0.0000
vn 0.5490 -0.6303 0.5490
vn 0.5490 0.6303 0.5490
vn -0.6903 0.2169 0.6903
vn -0.0000 -0.5774 -0.8165
vn -0.8747 -0.4843 -0.0208
vn -0.7579 0.6521 -0.0180
vn -0.0000 0.5774 -0.8165
vn 0.8165 -0.5773 -0.0000
vn 0.0208 -0.4843 0.8747
vn 0.0180 0.6522 0.7579
vn 0.8165 0.5773 -0.0000
vn -0.9881 0.1534 -0.0119
vn 0.0119 0.1534 0.9881
vn -0.5516 -0.6257 0.5516
vn -0.4425 0.7800 0.4425
vn 0.6903 0.2169 0.6903
vn -0.8165 -0.5773 -0.0000
vn -0.0208 -0.4843 0.8747
vn -0.0180 0.6522 0.7579
vn -0.8165 0.5773 -0.0000
vn 0.8747 -0.4843 -0.0208
vn 0.7579 0.6522 -0.0180
vn -0.0119 0.1534 0.9881
vn 0.9881 0.1534 -0.0119
vn 0.5516 -0.6257 0.5516
vn 0.4425 0.7800 0.4425
vn 0.6903 0.2169 -0.6903
vn -0.0000 -0.5773 0.8165
vn 0.8747 -0.4843 0.0208
vn 0.7579 0.6521 0.0180
vn -0.0000 0.5773 0.8165
vn -0.8165 -0.5774 -0.0000
vn -0.0208 -0.4843 -0.8746
vn -0.0180 0.6522 -0.7579
vn -0.8165 0.5774 -0.0000
vn 0.9881 0.1534 0.0119
vn -0.0119 0.1534 -0.9881
vn 0.5516 -0.6257 -0.5516
vn 0.4425 0.7800 -0.4425
vn -0.6903 0.2169 -0.6903
vn 0.0208 -0.4843 -0.8747
vn 0.0180 0.6521 -0.7579
vn -0.0000 -0.5774 0.8165
vn -0.8747 -0.4843 0.0208
vn -0.7579 0.6522 0.0180
vn -0.0000 0.5774 0.8165
vn 0.0119 0.1534 -0.9881
vn -0.9881 0.1534 0.0119
vn -0.5516 -0.6257 -0.5516
vn -0.4425 0.7800 -0.4425
vn 0.5773 -0.5773 -0.5774
vn 0.5774 0.5773 -0.5774
vn 0.5773 -0.5773 0.5774
vn 0.5774 0.5773 0.5774
vn -0.5773 -0.5773 -0.5774
vn -0.5774 0.5773 -0.5774
vn -0.5773 -0.5773 0.5774
vn -0.5774 0.5773 0.5774
vn 0.5774 -0.5774 -0.5774
vn 0.5774 0.5774 -0.5774
vn 0.5774 -0.5774 0.5774
vn 0.5774 0.5774 0.5774
vn -0.5774 -0.5774 -0.5774
vn -0.5774 0.5774 -0.5774
vn -0.5774 -0.5774 0.5774
vn -0.5774 0.5774 0.5774
vt 0.00000 0.00481
vt 0.00000 0.25415
vt 0.00000 0.27491
vt 0.00000 0.36063
vt 0.00000 0.52431
vt 0.00000 0.61536
vt 0.00000 0.77129
vt 0.00000 0.93547
vt 0.00400 0.44859
vt 0.00412 0.44248
vt 0.00450 0.45848
vt 0.00497 0.51879
vt 0.00497 0.62088
vt 0.00498 0.26926
vt 0.00498 0.36537
vt 0.00500 0.52719
vt 0.00500 0.61248
vt 0.00503 0.27599
vt 0.00503 0.35629
vt 0.00616 0.00490
vt 0.00616 0.25424
vt 0.02797 0.63297
vt 0.03148 0.63370
vt 0.03148 0.77776
vt 0.03159 0.79439
vt 0.03225 0.79108
vt 0.03294 0.63060
vt 0.03294 0.78136
vt 0.03555 0.79108
vt 0.03555 0.79439
vt 0.03555 0.93547
vt 0.03587 0.63447
vt 0.03587 0.77870
vt 0.03886 0.79436
vt 0.03886 0.93544
vt 0.04037 0.44876
vt 0.04049 0.44265
vt 0.04087 0.45848
vt 0.04134 0.26943
vt 0.04134 0.36554
vt 0.04134 0.51879
vt 0.04134 0.62088
vt 0.04137 0.52719
vt 0.04137 0.61248
vt 0.04140 0.27616
vt 0.04140 0.35646
vt 0.04628 0.27513
vt 0.04628 0.36085
vt 0.04629 0.52431
vt 0.04629 0.61536
vt 0.05607 0.35108
vt 0.05607 0.44546
vt 0.05607 0.44874
vt 0.05607 0.46225
vt 0.05607 0.54158
vt 0.05607 0.69185
vt 0.05607 0.77611
vt 0.05607 0.84956
vt 0.05607 0.93383
vt 0.05727 0.78950
vt 0.05773 0.84772
vt 0.05773 0.93566
vt 0.05774 0.85052
vt 0.05774 0.93287
vt 0.05806 0.44546
vt 0.05806 0.44874
vt 0.05851 0.62151
vt 0.05858 0.61744
vt 0.05894 0.63130
vt 0.05939 0.68817
vt 0.05939 0.77979
vt 0.05940 0.45848
vt 0.05940 0.54473
vt 0.05941 0.69377
vt 0.05941 0.77419
vt 0.05943 0.46297
vt 0.05943 0.53867
vt 0.06058 0.78950
vt 0.06098 0.35546
vt 0.06099 0.34637
vt 0.06104 0.84772
vt 0.06104 0.93566
vt 0.06105 0.85052
vt 0.06105 0.93287
vt 0.06137 0.43575
vt 0.06148 0.26926
vt 0.06269 0.84956
vt 0.06269 0.93383
vt 0.06784 0.44546
vt 0.06784 0.44874
vt 0.06983 0.44546
vt 0.06983 0.44874
vt 0.07247 0.84956
vt 0.07247 0.93383
vt 0.07368 0.78950
vt 0.07396 0.00532
vt 0.07396 0.25466
vt 0.07413 0.84772
vt 0.07413 0.93566
vt 0.07414 0.85052
vt 0.07414 0.93287
vt 0.07504 0.62159
vt 0.07511 0.61752
vt 0.07548 0.63130
vt 0.07592 0.68817
vt 0.07592 0.77979
vt 0.07593 0.45856
vt 0.07593 0.54481
vt 0.07594 0.69377
vt 0.07594 0.77419
vt 0.07596 0.46305
vt 0.07596 0.53875
vt 0.07698 0.78950
vt 0.07744 0.84772
vt 0.07744 0.93566
vt 0.07745 0.85052
vt 0.07745 0.93287
vt 0.07871 0.00036
vt 0.07871 0.25954
vt 0.07909 0.84956
vt 0.07909 0.93383
vt 0.07922 0.46236
vt 0.07922 0.54168
vt 0.07922 0.69185
vt 0.07922 0.77611
vt 0.07962 0.44546
vt 0.07962 0.44874
vt 0.08160 0.44546
vt 0.08160 0.44874
vt 0.08311 0.00533
vt 0.08311 0.25467
vt 0.08901 0.46036
vt 0.08901 0.53969
vt 0.08901 0.70350
vt 0.08901 0.79218
vt 0.08901 0.93367
vt 0.08901 0.93685
vt 0.08980 0.61775
vt 0.08984 0.61571
vt 0.09064 0.70193
vt 0.09064 0.70496
vt 0.09066 0.45848
vt 0.09066 0.54127
vt 0.09068 0.46072
vt 0.09068 0.53824
vt 0.09101 0.78247
vt 0.09112 0.62748
vt 0.09139 0.44546
vt 0.09139 0.44874
vt 0.09231 0.79218
vt 0.09231 0.93367
vt 0.09231 0.93685
vt 0.09310 0.61777
vt 0.09314 0.61573
vt 0.09337 0.44546
vt 0.09337 0.44874
vt 0.09395 0.70193
vt 0.09395 0.70496
vt 0.09397 0.45849
vt 0.09397 0.54128
vt 0.09399 0.46074
vt 0.09399 0.53825
vt 0.09432 0.78247
vt 0.09442 0.62748
vt 0.09562 0.46039
vt 0.09562 0.53972
vt 0.09562 0.70350
vt 0.09562 0.79224
vt 0.09562 0.93356
vt 0.09735 0.34637
vt 0.09735 0.35546
vt 0.09773 0.43575
vt 0.09784 0.26926
vt 0.10236 0.35108
vt 0.10597 0.59467
vt 0.10597 0.68629
vt 0.10597 0.89963
vt 0.10694 0.59835
vt 0.10694 0.68261
vt 0.10856 0.90283
vt 0.10938 0.89958
vt 0.11214 0.27477
vt 0.11214 0.36583
vt 0.11214 0.44703
vt 0.11214 0.48413
vt 0.11667 0.52540
vt 0.11678 0.51929
vt 0.11707 0.27766
vt 0.11707 0.36295
vt 0.11709 0.26926
vt 0.11709 0.37135
vt 0.11712 0.44137
vt 0.11712 0.48887
vt 0.11717 0.44811
vt 0.11717 0.47978
vt 0.11757 0.43166
vt 0.13320 0.52548
vt 0.13331 0.51937
vt 0.13365 0.44145
vt 0.13365 0.48895
vt 0.13370 0.44819
vt 0.13370 0.47986
vt 0.13760 0.75839
vt 0.13859 0.44716
vt 0.13859 0.48426
vt 0.14097 0.75849
vt 0.14162 0.75519
vt 0.14493 0.75519
vt 0.14493 0.75849
vt 0.14493 0.89958
vt 0.14824 0.75847
vt 0.14824 0.89955
vt 0.14838 0.44383
vt 0.14838 0.48813
vt 0.14838 0.51499
vt 0.14839 0.50621
vt 0.14846 0.52150
vt 0.14847 0.50030
vt 0.15086 0.44137
vt 0.15086 0.44383
vt 0.15086 0.48813
vt 0.15086 0.49059
vt 0.15251 0.44137
vt 0.15251 0.44383
vt 0.15251 0.48813
vt 0.15251 0.49059
vt 0.15343 0.27766
vt 0.15343 0.36295
vt 0.15346 0.26926
vt 0.15346 0.37135
vt 0.15371 0.00500
vt 0.15371 0.25433
vt 0.15393 0.43166
vt 0.15477 0.00000
vt 0.15477 0.25918
vt 0.15499 0.44383
vt 0.15499 0.48813
vt 0.15499 0.51499
vt 0.15500 0.50621
vt 0.15507 0.52150
vt 0.15509 0.50030
vt 0.15802 0.75940
vt 0.15802 0.90312
vt 0.15843 0.27477
vt 0.15843 0.36583
vt 0.16050 0.00491
vt 0.16050 0.25425
vt 0.16154 0.75872
vt 0.16226 0.75519
vt 0.16327 0.53780
vt 0.16327 0.74315
vt 0.16585 0.75784
vt 0.16698 0.53877
vt 0.16698 0.74219
vt 0.16892 0.74547
vt 0.17029 0.00454
vt 0.17029 0.25388
vt 0.17029 0.27383
vt 0.17029 0.52318
vt 0.17585 0.26889
vt 0.17585 0.52809
vt 0.17875 0.27386
vt 0.17875 0.52321
vt 0.18958 0.89702
vt 0.19161 0.89992
vt 0.19389 0.89614
vt 0.20368 0.81573
vt 0.20368 0.89999
vt 0.20655 0.75519
vt 0.20699 0.81205
vt 0.20699 0.90367
vt 0.20701 0.81765
vt 0.20701 0.89807
vt 0.22308 0.75519
vt 0.22352 0.81205
vt 0.22352 0.90367
vt 0.22354 0.81765
vt 0.22354 0.89807
vt 0.22682 0.81573
vt 0.22682 0.89999
vt 0.23661 0.75519
vt 0.23661 0.75849
vt 0.23661 0.89958
vt 0.23809 0.00496
vt 0.23809 0.25430
vt 0.23992 0.75519
vt 0.24057 0.75849
vt 0.24284 0.00000
vt 0.24284 0.25918
vt 0.24394 0.75839
vt 0.24724 0.00497
vt 0.24724 0.25431
vt 0.24995 0.74547
vt 0.25189 0.53877
vt 0.25189 0.74219
vt 0.25374 0.27386
vt 0.25374 0.52321
vt 0.25560 0.53780
vt 0.25560 0.74315
vt 0.25665 0.26889
vt 0.25665 0.52809
vt 0.26221 0.27383
vt 0.26221 0.52318
vt 0.27216 0.89958
vt 0.27298 0.90283
vt 0.27557 0.89963
vt 0.28536 0.75884
vt 0.28536 0.90109
vt 0.28676 0.90414
vt 0.28834 0.75858
vt 0.28834 0.90082
vt 0.28974 0.75519
vt 0.28974 0.90388
vt 0.29275 0.75823
vt 0.29275 0.90031
vt 0.30254 0.75884
vt 0.30254 0.90109
vt 0.30394 0.90414
vt 0.30552 0.75858
vt 0.30552 0.90082
vt 0.30692 0.75519
vt 0.30692 0.90388
vt 0.30993 0.75823
vt 0.30993 0.90031
vt 0.31193 0.59835
vt 0.31193 0.68261
vt 0.31290 0.59467
vt 0.31290 0.68629
vt 0.31524 0.27342
vt 0.31524 0.52277
vt 0.31524 0.60027
vt 0.31524 0.68069
vt 0.31784 0.00464
vt 0.31784 0.25397
vt 0.32763 0.00493
vt 0.32763 0.25429
vt 0.32763 0.34110
vt 0.32763 0.42639
vt 0.32763 0.57308
vt 0.32763 0.65350
vt 0.32763 0.78097
vt 0.32763 0.83908
vt 0.32763 0.93108
vt 0.32763 0.97049
vt 0.32997 0.56748
vt 0.32997 0.65910
vt 0.33093 0.57116
vt 0.33093 0.65542
vt 0.33114 0.33270
vt 0.33114 0.43479
vt 0.33114 0.77257
vt 0.33114 0.84748
vt 0.33241 0.90177
vt 0.33259 0.33822
vt 0.33259 0.42928
vt 0.33259 0.77809
vt 0.33259 0.84196
vt 0.33260 0.92556
vt 0.33260 0.97601
vt 0.33263 0.93396
vt 0.33263 0.96761
vt 0.33319 0.00000
vt 0.33319 0.25920
vt 0.33609 0.00496
vt 0.33609 0.25431
vt 0.34894 0.90177
vt 0.34913 0.92556
vt 0.34913 0.97601
vt 0.34916 0.93396
vt 0.34916 0.96761
vt 0.35408 0.93108
vt 0.35408 0.97049
vt 0.37254 0.73148
vt 0.37254 0.88857
vt 0.37810 0.73292
vt 0.37810 0.88713
vt 0.38101 0.72800
vt 0.38101 0.89205
vt 0.38727 0.51062
vt 0.38727 0.71597
vt 0.39098 0.51158
vt 0.39098 0.71501
vt 0.39191 0.27239
vt 0.39191 0.49510
vt 0.39291 0.50830
vt 0.39291 0.71829
vt 0.39747 0.27383
vt 0.39747 0.49366
vt 0.40038 0.26891
vt 0.40038 0.49858
vt 0.41109 0.00496
vt 0.41109 0.25431
vt 0.41399 0.00000
vt 0.41399 0.25920
vt 0.41955 0.00493
vt 0.41955 0.25429
vt 0.43956 0.72800
vt 0.43956 0.89205
vt 0.44247 0.73292
vt 0.44247 0.88713
vt 0.44803 0.73148
vt 0.44803 0.88857
vt 0.47258 0.00452
vt 0.47258 0.25388
vt 0.47395 0.50830
vt 0.47395 0.71829
vt 0.47589 0.51158
vt 0.47589 0.71501
vt 0.47959 0.51062
vt 0.47959 0.71597
vt 0.48237 0.06031
vt 0.48237 0.16240
vt 0.48237 0.23823
vt 0.48382 0.06583
vt 0.48382 0.15689
vt 0.48566 0.23591
vt 0.48566 0.24055
vt 0.48580 0.25911
vt 0.48632 0.26891
vt 0.48632 0.49858
vt 0.48798 0.77809
vt 0.48798 0.84196
vt 0.48923 0.27383
vt 0.48923 0.49366
vt 0.48944 0.77257
vt 0.48944 0.84748
vt 0.49294 0.78097
vt 0.49294 0.83908
vt 0.49479 0.27239
vt 0.49479 0.49510
vt 0.49557 0.23591
vt 0.49557 0.24055
vt 0.49572 0.25911
vt 0.49890 0.23823
vt 0.50273 0.73221
vt 0.50273 0.87593
vt 0.50273 0.91495
vt 0.50273 0.95437
vt 0.50625 0.73153
vt 0.50697 0.72800
vt 0.50752 0.88564
vt 0.50770 0.90943
vt 0.50770 0.95988
vt 0.50773 0.91784
vt 0.50773 0.95148
vt 0.50869 0.23823
vt 0.51056 0.73065
vt 0.51197 0.23591
vt 0.51197 0.24055
vt 0.51212 0.25911
vt 0.52189 0.23591
vt 0.52189 0.24055
vt 0.52204 0.25911
vt 0.52405 0.88564
vt 0.52423 0.90943
vt 0.52423 0.95988
vt 0.52426 0.91784
vt 0.52426 0.95148
vt 0.52522 0.23823
vt 0.52918 0.91495
vt 0.52918 0.95437
vt 0.53429 0.86983
vt 0.53501 0.24212
vt 0.53501 0.25091
vt 0.53592 0.57116
vt 0.53592 0.65542
vt 0.53632 0.87273
vt 0.53689 0.56748
vt 0.53689 0.65910
vt 0.53860 0.86895
vt 0.53923 0.57308
vt 0.53923 0.65350
vt 0.54127 0.23591
vt 0.54127 0.25713
vt 0.54314 0.00000
vt 0.54314 0.22271
vt 0.54870 0.00144
vt 0.54870 0.22127
vt 0.54902 0.57048
vt 0.54902 0.65282
vt 0.54902 0.77734
vt 0.54902 0.86856
vt 0.55013 0.23591
vt 0.55013 0.25713
vt 0.55019 0.56768
vt 0.55019 0.65562
vt 0.55047 0.78286
vt 0.55047 0.86304
vt 0.55067 0.56952
vt 0.55067 0.65378
vt 0.55161 0.22619
vt 0.55411 0.33822
vt 0.55411 0.42928
vt 0.55556 0.33270
vt 0.55556 0.43479
vt 0.55639 0.24212
vt 0.55639 0.25091
vt 0.55907 0.34110
vt 0.55907 0.42639
vt 0.56618 0.24212
vt 0.56618 0.25091
vt 0.56886 0.32713
vt 0.56886 0.41507
vt 0.56886 0.48647
vt 0.56886 0.49115
vt 0.56934 0.32897
vt 0.56934 0.41323
vt 0.57122 0.48417
vt 0.57163 0.49396
vt 0.57168 0.48932
vt 0.57244 0.23591
vt 0.57244 0.25713
vt 0.57399 0.49166
vt 0.57404 0.48702
vt 0.57594 0.48426
vt 0.57631 0.49400
vt 0.57635 0.48936
vt 0.57867 0.49171
vt 0.58130 0.23591
vt 0.58130 0.25713
vt 0.58756 0.24212
vt 0.58756 0.25091
vt 0.58846 0.49171
vt 0.59077 0.48936
vt 0.59082 0.49400
vt 0.59118 0.48426
vt 0.59309 0.48702
vt 0.59313 0.49166
vt 0.59545 0.48932
vt 0.59549 0.49396
vt 0.59591 0.48417
vt 0.59735 0.23594
vt 0.59735 0.25562
vt 0.59827 0.48647
vt 0.59827 0.49115
vt 0.60205 0.72472
vt 0.60205 0.92119
vt 0.60357 0.23591
vt 0.60357 0.25559
vt 0.60761 0.72616
vt 0.60761 0.91974
vt 0.60805 0.48745
vt 0.60805 0.49073
vt 0.60886 0.50946
vt 0.60886 0.71384
vt 0.61051 0.92466
vt 0.61071 0.50994
vt 0.61071 0.71337
vt 0.61142 0.48417
vt 0.61142 0.49401
vt 0.61168 0.50830
vt 0.61168 0.71501
vt 0.61208 0.48745
vt 0.61208 0.49073
vt 0.61336 0.23594
vt 0.61336 0.25562
vt 0.61538 0.48745
vt 0.61538 0.49073
vt 0.61538 0.49401
vt 0.61959 0.23591
vt 0.61959 0.25559
vt 0.62517 0.49295
vt 0.62518 0.48417
vt 0.62753 0.26891
vt 0.62753 0.47330
vt 0.62938 0.23594
vt 0.62938 0.25562
vt 0.62938 0.26939
vt 0.62938 0.47282
vt 0.63035 0.47446
vt 0.63178 0.49295
vt 0.63179 0.48417
vt 0.63560 0.23591
vt 0.63560 0.25559
vt 0.63755 0.22619
vt 0.64046 0.00144
vt 0.64046 0.22127
vt 0.64158 0.48649
vt 0.64158 0.48997
vt 0.64333 0.48823
vt 0.64392 0.48417
vt 0.64392 0.49229
vt 0.64539 0.23594
vt 0.64539 0.25563
vt 0.64567 0.48591
vt 0.64567 0.49055
vt 0.64602 0.00000
vt 0.64602 0.22271
vt 0.64742 0.48417
vt 0.64742 0.49229
vt 0.64801 0.48823
vt 0.64976 0.48649
vt 0.64976 0.48997
vt 0.65007 0.23591
vt 0.65007 0.25559
vt 0.65955 0.48649
vt 0.65955 0.48997
vt 0.65985 0.23594
vt 0.65985 0.25563
vt 0.66130 0.48823
vt 0.66189 0.48417
vt 0.66189 0.49229
vt 0.66364 0.48591
vt 0.66364 0.49055
vt 0.66453 0.23591
vt 0.66453 0.25559
vt 0.66539 0.48417
vt 0.66539 0.49229
vt 0.66598 0.48823
vt 0.66773 0.48649
vt 0.66773 0.48997
vt 0.67432 0.23594
vt 0.67432 0.25563
vt 0.67752 0.48649
vt 0.67752 0.48997
vt 0.67899 0.23591
vt 0.67899 0.25559
vt 0.67927 0.48823
vt 0.67986 0.48417
vt 0.67986 0.49229
vt 0.68161 0.48591
vt 0.68161 0.49055
vt 0.68337 0.48417
vt 0.68337 0.49229
vt 0.68395 0.48823
vt 0.68550 0.92466
vt 0.68570 0.48649
vt 0.68570 0.48997
vt 0.68841 0.72616
vt 0.68841 0.91974
vt 0.68878 0.23592
vt 0.68878 0.25561
vt 0.69189 0.23591
vt 0.69189 0.25559
vt 0.69397 0.72472
vt 0.69397 0.92119
vt 0.69466 0.50830
vt 0.69466 0.71501
vt 0.69549 0.48649
vt 0.69549 0.48997
vt 0.69562 0.50994
vt 0.69562 0.71337
vt 0.69725 0.48823
vt 0.69748 0.50946
vt 0.69748 0.71384
vt 0.69783 0.48417
vt 0.69783 0.49229
vt 0.69958 0.48591
vt 0.69958 0.49055
vt 0.70134 0.48417
vt 0.70134 0.49229
vt 0.70168 0.23592
vt 0.70168 0.25561
vt 0.70192 0.48823
vt 0.70367 0.48649
vt 0.70367 0.48997
vt 0.70480 0.23591
vt 0.70480 0.25559
vt 0.70534 0.06583
vt 0.70534 0.15689
vt 0.70679 0.06031
vt 0.70679 0.16240
vt 0.71030 0.06871
vt 0.71030 0.15400
vt 0.71332 0.47446
vt 0.71346 0.48417
vt 0.71346 0.48810
vt 0.71429 0.26939
vt 0.71429 0.47282
vt 0.71615 0.26891
vt 0.71615 0.47330
vt 0.71677 0.48417
vt 0.71677 0.48745
vt 0.71677 0.49145
vt 0.72008 0.48417
vt 0.72008 0.48745
vt 0.72008 0.49145
vt 0.72009 0.06450
vt 0.72009 0.13892
vt 0.72009 0.21546
vt 0.72254 0.21629
vt 0.72256 0.21314
vt 0.72274 0.25799
vt 0.72360 0.05610
vt 0.72360 0.14732
vt 0.72505 0.06162
vt 0.72505 0.14180
vt 0.72584 0.21629
vt 0.72586 0.21314
vt 0.72604 0.25799
vt 0.72835 0.21546
vt 0.72986 0.48417
vt 0.72986 0.49073
vt 0.73185 0.48417
vt 0.73185 0.49073
vt 0.73814 0.21395
vt 0.73814 0.24923
vt 0.74145 0.21314
vt 0.74145 0.24923
vt 0.74145 0.25251
vt 0.74164 0.48417
vt 0.74164 0.49073
vt 0.74362 0.48417
vt 0.74362 0.49073
vt 0.74476 0.21314
vt 0.74476 0.24923
vt 0.74476 0.25251
vt 0.74554 0.78286
vt 0.74554 0.86304
vt 0.74700 0.77734
vt 0.74700 0.86856
vt 0.74806 0.21395
vt 0.74806 0.24923
vt 0.75050 0.78574
vt 0.75050 0.86016
vt 0.75341 0.48417
vt 0.75341 0.49073
vt 0.75539 0.48417
vt 0.75539 0.49073
vt 0.75566 0.56952
vt 0.75566 0.65378
vt 0.75615 0.56768
vt 0.75615 0.65562
vt 0.75732 0.57048
vt 0.75732 0.65282
vt 0.75785 0.21642
vt 0.75785 0.25170
vt 0.76029 0.76581
vt 0.76029 0.84072
vt 0.76029 0.93068
vt 0.76029 0.96433
vt 0.76116 0.21314
vt 0.76116 0.21642
vt 0.76116 0.25251
vt 0.76175 0.77133
vt 0.76175 0.83520
vt 0.76380 0.92228
vt 0.76380 0.97273
vt 0.76446 0.21314
vt 0.76446 0.21642
vt 0.76446 0.25251
vt 0.76518 0.48417
vt 0.76518 0.49073
vt 0.76525 0.92780
vt 0.76525 0.96721
vt 0.76711 0.58415
vt 0.76711 0.67576
vt 0.76711 0.71105
vt 0.76716 0.48417
vt 0.76716 0.49073
vt 0.76777 0.21642
vt 0.76777 0.25170
vt 0.77038 0.58101
vt 0.77038 0.58706
vt 0.77041 0.67248
vt 0.77041 0.67576
vt 0.77041 0.71186
vt 0.77074 0.66277
vt 0.77084 0.50830
vt 0.77372 0.67248
vt 0.77372 0.67576
vt 0.77372 0.71186
vt 0.77433 0.32897
vt 0.77433 0.41323
vt 0.77482 0.32713
vt 0.77482 0.41507
vt 0.77599 0.32993
vt 0.77599 0.41227
vt 0.77662 0.00348
vt 0.77662 0.19995
vt 0.77702 0.67576
vt 0.77702 0.71105
vt 0.77756 0.21395
vt 0.77756 0.24923
vt 0.78086 0.21314
vt 0.78086 0.24923
vt 0.78086 0.25251
vt 0.78218 0.00492
vt 0.78218 0.19850
vt 0.78417 0.21314
vt 0.78417 0.24923
vt 0.78417 0.25251
vt 0.78509 0.00000
vt 0.78509 0.20343
vt 0.78577 0.40960
vt 0.78577 0.43185
vt 0.78577 0.47615
vt 0.78577 0.48832
vt 0.78577 0.49489
vt 0.78681 0.67422
vt 0.78691 0.58101
vt 0.78691 0.58706
vt 0.78727 0.66277
vt 0.78737 0.50830
vt 0.78748 0.21395
vt 0.78748 0.24923
vt 0.78776 0.48832
vt 0.78776 0.49489
vt 0.78777 0.89849
vt 0.78777 0.99652
vt 0.78825 0.42939
vt 0.78825 0.43185
vt 0.78825 0.47615
vt 0.78825 0.47861
vt 0.78928 0.67248
vt 0.78928 0.67596
vt 0.78952 0.70729
vt 0.78991 0.42939
vt 0.78991 0.43185
vt 0.78991 0.47615
vt 0.78991 0.47861
vt 0.79025 0.58415
vt 0.79239 0.43185
vt 0.79239 0.47615
vt 0.79258 0.67248
vt 0.79258 0.67596
vt 0.79283 0.70729
vt 0.79334 0.89993
vt 0.79334 0.99508
vt 0.79508 0.67422
vt 0.79624 0.89501
vt 0.79624 1.00000
vt 0.79727 0.21642
vt 0.79727 0.24267
vt 0.80004 0.51126
vt 0.80004 0.65299
vt 0.80057 0.21314
vt 0.80057 0.21642
vt 0.80057 0.24267
vt 0.80057 0.24595
vt 0.80170 0.72472
vt 0.80170 0.88181
vt 0.80217 0.43186
vt 0.80217 0.45647
vt 0.80217 0.47110
vt 0.80217 0.49571
vt 0.80284 0.50830
vt 0.80284 0.65593
vt 0.80384 0.51129
vt 0.80384 0.65302
vt 0.80451 0.42939
vt 0.80451 0.45892
vt 0.80451 0.46863
vt 0.80451 0.49816
vt 0.80487 0.67576
vt 0.80487 0.70201
vt 0.80535 0.43188
vt 0.80535 0.45649
vt 0.80535 0.47113
vt 0.80535 0.49573
vt 0.80726 0.72616
vt 0.80726 0.88037
vt 0.80817 0.67248
vt 0.80817 0.67576
vt 0.80817 0.70201
vt 0.80817 0.70530
vt 0.80846 0.43187
vt 0.80846 0.45648
vt 0.80846 0.47111
vt 0.80846 0.49572
vt 0.81016 0.88529
vt 0.81375 0.27129
vt 0.81725 0.27201
vt 0.81725 0.41608
vt 0.81825 0.42941
vt 0.81825 0.44910
vt 0.81825 0.45883
vt 0.81825 0.47851
vt 0.81825 0.48823
vt 0.81825 0.49479
vt 0.81872 0.26891
vt 0.81872 0.41968
vt 0.82023 0.48823
vt 0.82023 0.49479
vt 0.82059 0.42939
vt 0.82059 0.44908
vt 0.82059 0.45881
vt 0.82059 0.47850
vt 0.82164 0.27278
vt 0.82164 0.41701
vt 0.82702 0.21314
vt 0.82702 0.21642
vt 0.82702 0.24267
vt 0.82702 0.24595
vt 0.83015 0.89501
vt 0.83015 1.00000
vt 0.83033 0.21642
vt 0.83033 0.24267
vt 0.83143 0.27188
vt 0.83143 0.41362
vt 0.83143 0.46140
vt 0.83305 0.89993
vt 0.83305 0.99508
vt 0.83354 0.26891
vt 0.83354 0.41655
vt 0.83462 0.67248
vt 0.83462 0.67576
vt 0.83462 0.70201
vt 0.83462 0.70530
vt 0.83564 0.27188
vt 0.83564 0.41362
vt 0.83634 0.46577
vt 0.83635 0.45669
vt 0.83649 0.49745
vt 0.83654 0.42627
vt 0.83793 0.67576
vt 0.83793 0.70201
vt 0.83861 0.89849
vt 0.83861 0.99652
vt 0.84012 0.21561
vt 0.84012 0.24022
vt 0.84012 0.25864
vt 0.84037 0.25565
vt 0.84245 0.21314
vt 0.84245 0.24267
vt 0.84251 0.25314
vt 0.84305 0.25790
vt 0.84329 0.21563
vt 0.84329 0.24024
vt 0.84395 0.25864
vt 0.84518 0.25539
vt 0.84546 0.25238
vt 0.84608 0.25614
vt 0.84640 0.21562
vt 0.84640 0.24022
vt 0.84772 0.67496
vt 0.84772 0.69956
vt 0.85005 0.67248
vt 0.85005 0.70201
vt 0.85089 0.67498
vt 0.85089 0.69958
vt 0.85287 0.46577
vt 0.85288 0.45669
vt 0.85302 0.49745
vt 0.85307 0.42627
vt 0.85400 0.67496
vt 0.85400 0.69957
vt 0.85587 0.25864
vt 0.85589 0.25527
vt 0.85619 0.21561
vt 0.85619 0.24022
vt 0.85788 0.46140
vt 0.85794 0.21314
vt 0.85794 0.24267
vt 0.85817 0.25290
vt 0.85817 0.25746
vt 0.85930 0.25852
vt 0.85970 0.21561
vt 0.85970 0.24022
vt 0.86008 0.00000
vt 0.86008 0.20343
vt 0.86045 0.25509
vt 0.86113 0.92780
vt 0.86113 0.96721
vt 0.86158 0.25271
vt 0.86158 0.25615
vt 0.86203 0.21560
vt 0.86203 0.24020
vt 0.86259 0.92228
vt 0.86259 0.97273
vt 0.86299 0.00492
vt 0.86299 0.19850
vt 0.86379 0.67496
vt 0.86379 0.69957
vt 0.86554 0.67248
vt 0.86554 0.70201
vt 0.86609 0.93068
vt 0.86609 0.96433
vt 0.86730 0.67496
vt 0.86730 0.69957
vt 0.86767 0.42874
vt 0.86767 0.45335
vt 0.86767 0.46798
vt 0.86767 0.49259
vt 0.86855 0.00348
vt 0.86855 0.19995
vt 0.86872 0.88529
vt 0.86942 0.42627
vt 0.86942 0.45580
vt 0.86942 0.46551
vt 0.86942 0.49504
vt 0.86964 0.67494
vt 0.86964 0.69955
vt 0.87118 0.42874
vt 0.87118 0.45335
vt 0.87118 0.46798
vt 0.87118 0.49259
vt 0.87163 0.72616
vt 0.87163 0.88037
vt 0.87182 0.21623
vt 0.87351 0.42872
vt 0.87351 0.45333
vt 0.87351 0.46797
vt 0.87351 0.49257
vt 0.87509 0.21734
vt 0.87511 0.21314
vt 0.87521 0.24205
vt 0.87588 0.91880
vt 0.87588 0.96925
vt 0.87719 0.72472
vt 0.87719 0.88181
vt 0.87733 0.92432
vt 0.87733 0.96373
vt 0.87942 0.67557
vt 0.88269 0.67668
vt 0.88271 0.67248
vt 0.88281 0.70139
vt 0.88330 0.42628
vt 0.88330 0.44596
vt 0.88330 0.45568
vt 0.88330 0.47537
vt 0.88501 0.21734
vt 0.88503 0.21314
vt 0.88512 0.24205
vt 0.88517 0.42627
vt 0.88517 0.44595
vt 0.88517 0.45567
vt 0.88517 0.47536
vt 0.88539 0.51090
vt 0.88539 0.65263
vt 0.88835 0.21623
vt 0.89261 0.67668
vt 0.89263 0.67248
vt 0.89272 0.70139
vt 0.89496 0.42628
vt 0.89496 0.44596
vt 0.89496 0.45568
vt 0.89496 0.47537
vt 0.89518 0.50830
vt 0.89518 0.51160
vt 0.89518 0.65269
vt 0.89595 0.67557
vt 0.89683 0.42627
vt 0.89683 0.44595
vt 0.89683 0.45567
vt 0.89683 0.47536
vt 0.89689 0.27141
vt 0.89689 0.41314
vt 0.89814 0.21315
vt 0.89814 0.23283
vt 0.89848 0.50830
vt 0.89914 0.51160
vt 0.89986 0.89501
vt 0.89986 0.99304
vt 0.90001 0.21314
vt 0.90001 0.23282
vt 0.90251 0.51150
vt 0.90542 0.89645
vt 0.90542 0.99160
vt 0.90574 0.67249
vt 0.90574 0.69218
vt 0.90661 0.42628
vt 0.90661 0.44596
vt 0.90661 0.45569
vt 0.90661 0.47537
vt 0.90668 0.24296
vt 0.90668 0.25920
vt 0.90668 0.27221
vt 0.90668 0.41329
vt 0.90671 0.25108
vt 0.90714 0.67248
vt 0.90714 0.69217
vt 0.90802 0.42627
vt 0.90802 0.44595
vt 0.90802 0.45568
vt 0.90802 0.47536
vt 0.90832 0.99652
vt 0.90967 0.27223
vt 0.90967 0.41330
vt 0.90980 0.21315
vt 0.90980 0.23284
vt 0.91108 0.26891
vt 0.91108 0.41654
vt 0.91120 0.21314
vt 0.91120 0.23283
vt 0.91329 0.24296
vt 0.91329 0.25920
vt 0.91332 0.25108
vt 0.91407 0.27221
vt 0.91407 0.41328
vt 0.91693 0.67249
vt 0.91693 0.69218
vt 0.91714 0.77133
vt 0.91714 0.83520
vt 0.91780 0.42627
vt 0.91780 0.44251
vt 0.91783 0.43439
vt 0.91834 0.67248
vt 0.91834 0.69217
vt 0.91859 0.76581
vt 0.91859 0.84072
vt 0.92012 0.06162
vt 0.92012 0.14180
vt 0.92157 0.05610
vt 0.92157 0.14732
vt 0.92210 0.77421
vt 0.92210 0.83232
vt 0.92386 0.27221
vt 0.92386 0.41329
vt 0.92442 0.42627
vt 0.92442 0.44251
vt 0.92444 0.43439
vt 0.92508 0.06450
vt 0.92508 0.13892
vt 0.92685 0.27223
vt 0.92685 0.41330
vt 0.92826 0.26891
vt 0.92826 0.41654
vt 0.93073 0.65269
vt 0.93125 0.27221
vt 0.93125 0.41328
vt 0.93155 0.65594
vt 0.93189 0.72769
vt 0.93189 0.86943
vt 0.93399 0.72472
vt 0.93399 0.87236
vt 0.93414 0.65274
vt 0.93487 0.00297
vt 0.93487 0.14469
vt 0.93610 0.72769
vt 0.93610 0.86943
vt 0.93656 0.72769
vt 0.93656 0.86942
vt 0.93767 0.00000
vt 0.93767 0.14763
vt 0.93867 0.00299
vt 0.93867 0.14472
vt 0.93930 0.00299
vt 0.93930 0.14472
vt 0.94104 0.26891
vt 0.94104 0.41039
vt 0.94104 0.41358
vt 0.94223 0.99652
vt 0.94392 0.50830
vt 0.94392 0.51160
vt 0.94392 0.65269
vt 0.94435 0.26891
vt 0.94435 0.41039
vt 0.94435 0.41358
vt 0.94513 0.89645
vt 0.94513 0.99160
vt 0.94635 0.72472
vt 0.94635 0.72803
vt 0.94635 0.86911
vt 0.94723 0.50830
vt 0.94723 0.51160
vt 0.94723 0.65269
vt 0.94908 0.00566
vt 0.94908 0.06579
vt 0.94908 0.19628
vt 0.94966 0.72472
vt 0.94966 0.72803
vt 0.94966 0.86911
vt 0.95054 0.51158
vt 0.95054 0.65266
vt 0.95069 0.89501
vt 0.95069 0.99304
vt 0.95296 0.72800
vt 0.95296 0.86908
vt 0.95336 0.12917
vt 0.95348 0.12306
vt 0.95399 0.20065
vt 0.95400 0.19157
vt 0.95406 0.00000
vt 0.95406 0.07052
vt 0.95411 0.00674
vt 0.95411 0.06144
vt 0.95414 0.31552
vt 0.95414 0.37939
vt 0.95414 0.39758
vt 0.95414 0.48354
vt 0.95426 0.25536
vt 0.95433 0.13903
vt 0.95711 0.39463
vt 0.95711 0.39758
vt 0.95711 0.48354
vt 0.95711 0.48650
vt 0.95777 0.39463
vt 0.95777 0.39758
vt 0.95777 0.48354
vt 0.95777 0.48650
vt 0.95878 0.26891
vt 0.95911 0.31000
vt 0.95911 0.38491
vt 0.95913 0.31840
vt 0.95913 0.37651
vt 0.96033 0.55491
vt 0.96033 0.61878
vt 0.96075 0.39758
vt 0.96075 0.48354
vt 0.96275 0.72767
vt 0.96275 0.81364
vt 0.96497 0.50830
vt 0.96530 0.54939
vt 0.96530 0.62430
vt 0.96532 0.55779
vt 0.96532 0.61590
vt 0.96573 0.72472
vt 0.96573 0.72767
vt 0.96573 0.81364
vt 0.96573 0.81659
vt 0.96639 0.72472
vt 0.96639 0.72767
vt 0.96639 0.81364
vt 0.96639 0.81659
vt 0.96937 0.72767
vt 0.96937 0.81364
vt 0.97322 0.92432
vt 0.97322 0.96373
vt 0.97467 0.91880
vt 0.97467 0.96925
vt 0.97818 0.92720
vt 0.97818 0.96085
vt 0.98311 0.12931
vt 0.98323 0.12320
vt 0.98375 0.19157
vt 0.98375 0.20065
vt 0.98382 0.00014
vt 0.98382 0.07067
vt 0.98387 0.00688
vt 0.98387 0.06158
vt 0.98401 0.25536
vt 0.98409 0.13903
vt 0.98854 0.26891
vt 0.98876 0.00585
vt 0.98876 0.06598
vt 0.98876 0.19628
vt 0.98886 0.31000
vt 0.98886 0.38491
vt 0.98889 0.31840
vt 0.98889 0.37651
vt 0.99381 0.31552
vt 0.99381 0.37939
vt 0.99473 0.50830
vt 0.99505 0.54939
vt 0.99505 0.62430
vt 0.99508 0.55779
vt 0.99508 0.61590
vt 1.00000 0.55491
vt 1.00000 0.61878
s 0
usemtl MMOFPS_composite
f 1/190/10 3/188/10 2/182/10
f 10/43/13 12/41/13 11/49/13
f 10/43/45 34/12/45 12/41/45
f 10/43/45 36/16/45 34/12/45
f 11/387/2 14/423/2 17/492/2
f 11/387/2 17/492/2 24/424/2
f 12/389/30 13/419/30 14/423/30
f 12/389/30 14/423/30 11/387/30
f 13/36/46 37/10/46 15/37/46
f 13/36/46 39/9/46 37/10/46
f 13/419/14 15/429/14 14/423/14
f 14/423/31 15/429/31 16/494/31
f 14/423/31 16/494/31 17/492/31
f 16/40/15 18/46/15 17/48/15
f 16/40/47 40/19/47 18/46/47
f 16/40/47 42/15/47 40/19/47
f 17/492/2 20/493/2 24/424/2
f 18/498/32 19/499/32 20/493/32
f 18/498/32 20/493/32 17/492/32
f 19/45/16 21/39/16 20/47/16
f 19/45/48 43/14/48 21/39/48
f 19/45/48 45/18/48 43/14/48
f 21/495/33 23/430/33 24/424/33
f 21/495/33 24/424/33 20/493/33
f 21/86/7 43/173/7 48/170/7
f 21/86/7 48/170/7 23/80/7
f 22/420/26 1/390/26 2/388/26
f 22/420/26 2/388/26 24/424/26
f 22/79/17 24/51/17 23/80/17
f 23/80/49 46/171/49 22/79/49
f 23/80/49 48/170/49 46/171/49
f 24/424/2 2/388/2 5/355/2
f 24/424/2 5/355/2 11/387/2
f 241/456/65 243/458/65 242/461/65
f 243/800/27 244/738/27 245/745/27
f 243/800/27 245/745/27 242/819/27
f 244/457/11 246/455/11 245/460/11
f 244/457/43 268/442/43 246/455/43
f 244/457/43 270/444/43 268/442/43
f 245/745/2 248/744/2 251/818/2
f 246/731/28 247/730/28 248/744/28
f 246/731/28 248/744/28 245/745/28
f 247/368/44 271/361/44 249/370/44
f 247/368/44 273/359/44 271/361/44
f 247/368/52 249/370/52 248/372/52
f 249/737/29 250/799/29 251/818/29
f 249/737/29 251/818/29 248/744/29
f 25/229/18 27/244/18 26/227/18
f 25/587/34 46/661/34 47/659/34
f 25/587/34 47/659/34 27/576/34
f 250/369/45 274/358/45 252/367/45
f 250/369/45 276/360/45 274/358/45
f 250/369/66 252/367/66 251/371/66
f 251/818/2 254/892/2 257/953/2
f 251/818/2 257/953/2 264/893/2
f 252/821/30 253/885/30 254/892/30
f 252/821/30 254/892/30 251/818/30
f 253/197/46 277/187/46 255/198/46
f 253/197/46 279/186/46 277/187/46
f 253/885/58 255/908/58 254/892/58
f 255/908/31 256/959/31 257/953/31
f 255/908/31 257/953/31 254/892/31
f 256/200/15 258/202/15 257/205/15
f 256/200/47 280/195/47 258/202/47
f 256/200/47 282/193/47 280/195/47
f 257/953/2 260/954/2 264/893/2
f 258/967/32 259/968/32 260/954/32
f 258/967/32 260/954/32 257/953/32
f 259/201/48 283/192/48 261/199/48
f 259/201/48 285/194/48 283/192/48
f 259/201/54 261/199/54 260/204/54
f 26/227/42 1/190/42 25/229/42
f 26/227/42 3/188/42 1/190/42
f 261/960/33 263/909/33 264/893/33
f 261/960/33 264/893/33 260/954/33
f 262/886/26 241/822/26 242/819/26
f 262/886/26 242/819/26 264/893/26
f 262/902/59 264/891/59 263/903/59
f 263/903/49 286/932/49 262/902/49
f 263/903/49 288/933/49 286/932/49
f 264/893/2 242/819/2 245/745/2
f 264/893/2 245/745/2 251/818/2
f 265/1156/34 286/1210/34 287/1208/34
f 265/1156/34 287/1208/34 267/1140/34
f 265/443/55 267/438/55 266/445/55
f 266/445/42 241/456/42 265/443/42
f 266/445/42 243/458/42 241/456/42
f 266/445/9 244/457/9 243/458/9
f 266/445/9 270/444/9 244/457/9
f 267/1140/8 284/1209/8 278/1049/8
f 267/1140/8 287/1208/8 284/1209/8
f 268/442/1 247/454/1 246/455/1
f 268/442/1 273/441/1 247/454/1
f 268/442/64 270/444/64 269/437/64
f 27/576/8 44/660/8 38/478/8
f 27/576/8 47/659/8 44/660/8
f 270/444/41 266/445/41 267/438/41
f 270/444/41 267/438/41 269/437/41
f 271/361/20 273/359/20 272/344/20
f 271/361/3 250/369/3 249/370/3
f 271/361/3 276/360/3 250/369/3
f 272/1002/8 269/1048/8 267/1140/8
f 273/998/40 268/1043/40 269/1048/40
f 273/998/40 269/1048/40 272/1002/40
f 274/358/4 253/366/4 252/367/4
f 274/358/4 279/353/4 253/366/4
f 274/358/57 276/360/57 275/343/57
f 276/360/39 271/361/39 272/344/39
f 276/360/39 272/344/39 275/343/39
f 277/1067/22 279/1044/22 278/1049/22
f 277/187/5 256/200/5 255/198/5
f 277/187/5 282/193/5 256/200/5
f 278/1049/8 272/1002/8 267/1140/8
f 278/1049/8 275/1003/8 272/1002/8
f 279/1044/38 274/999/38 275/1003/38
f 279/1044/38 275/1003/38 278/1049/38
f 28/230/1 33/233/1 7/196/1
f 28/230/1 7/196/1 6/191/1
f 28/230/19 30/228/19 29/245/19
f 280/195/6 259/201/6 258/202/6
f 280/195/6 285/194/6 259/201/6
f 280/195/61 282/193/61 281/185/61
f 282/1133/37 277/1067/37 278/1049/37
f 282/1133/37 278/1049/37 281/1141/37
f 283/192/62 285/194/62 284/184/62
f 283/935/7 263/903/7 261/905/7
f 283/935/7 288/933/7 263/903/7
f 284/1209/8 281/1141/8 278/1049/8
f 285/1211/36 280/1157/36 281/1141/36
f 285/1211/36 281/1141/36 284/1209/36
f 286/932/25 288/933/25 287/942/25
f 286/932/50 241/904/50 262/902/50
f 286/932/50 265/934/50 241/904/50
f 288/1212/35 283/1213/35 284/1209/35
f 288/1212/35 284/1209/35 287/1208/35
f 3/188/9 26/227/9 30/228/9
f 3/188/9 30/228/9 4/189/9
f 3/384/27 4/350/27 5/355/27
f 3/384/27 5/355/27 2/388/27
f 30/228/41 26/227/41 27/244/41
f 30/228/41 27/244/41 29/245/41
f 31/17/20 33/13/20 32/6/20
f 31/17/3 10/43/3 9/44/3
f 31/17/3 36/16/3 10/43/3
f 32/414/8 29/477/8 27/576/8
f 33/411/40 28/475/40 29/477/40
f 33/411/40 29/477/40 32/414/40
f 34/12/21 36/16/21 35/5/21
f 34/12/4 13/38/4 12/41/4
f 34/12/4 39/11/4 13/38/4
f 36/16/39 31/17/39 32/6/39
f 36/16/39 32/6/39 35/5/39
f 37/10/5 16/40/5 15/37/5
f 37/10/5 42/15/5 16/40/5
f 37/491/22 39/476/22 38/478/22
f 38/478/8 32/414/8 27/576/8
f 38/478/8 35/415/8 32/414/8
f 39/476/38 34/412/38 35/415/38
f 39/476/38 35/415/38 38/478/38
f 4/189/11 6/191/11 5/183/11
f 4/189/43 28/230/43 6/191/43
f 4/189/43 30/228/43 28/230/43
f 40/19/23 42/15/23 41/4/23
f 40/19/6 19/45/6 18/46/6
f 40/19/6 45/18/6 19/45/6
f 42/575/37 37/491/37 38/478/37
f 42/575/37 38/478/37 41/577/37
f 43/14/24 45/18/24 44/3/24
f 44/660/8 41/577/8 38/478/8
f 45/662/36 40/588/36 41/577/36
f 45/662/36 41/577/36 44/660/36
f 46/171/25 48/170/25 47/174/25
f 46/171/50 1/85/50 22/79/50
f 46/171/50 25/172/50 1/85/50
f 48/663/35 43/664/35 44/660/35
f 48/663/35 44/660/35 47/659/35
f 5/355/2 8/354/2 11/387/2
f 6/338/28 7/337/28 8/354/28
f 6/338/28 8/354/28 5/355/28
f 7/42/12 9/44/12 8/50/12
f 7/42/44 31/17/44 9/44/44
f 7/42/44 33/13/44 31/17/44
f 9/349/29 10/383/29 11/387/29
f 9/349/29 11/387/29 8/354/29
usemtl MMOFPS_olive
f 49/336/10 51/365/10 50/363/10
f 50/779/27 51/770/27 52/685/27
f 50/779/27 52/685/27 53/687/27
f 52/392/43 76/395/43 54/396/43
f 52/392/43 78/391/43 76/395/43
f 52/392/51 54/396/51 53/394/51
f 53/687/2 56/686/2 59/778/2
f 54/679/28 55/678/28 56/686/28
f 54/679/28 56/686/28 53/687/28
f 55/259/44 79/262/44 57/263/44
f 55/259/44 81/258/44 79/262/44
f 55/259/52 57/263/52 56/261/52
f 57/684/29 58/769/29 59/778/29
f 57/684/29 59/778/29 56/686/29
f 58/297/13 60/303/13 59/301/13
f 58/297/45 82/302/45 60/303/45
f 58/297/45 84/296/45 82/302/45
f 59/778/2 62/961/2 65/1092/2
f 59/778/2 65/1092/2 72/962/2
f 60/783/30 61/950/30 62/961/30
f 60/783/30 62/961/30 59/778/30
f 61/2/46 85/20/46 63/21/46
f 61/2/46 87/1/46 85/20/46
f 61/950/14 63/975/14 62/961/14
f 62/961/31 63/975/31 64/1094/31
f 62/961/31 64/1094/31 65/1092/31
f 64/97/47 88/130/47 66/131/47
f 64/97/47 90/96/47 88/130/47
f 64/97/53 66/131/53 65/119/53
f 65/1092/2 68/1093/2 72/962/2
f 66/1103/32 67/1104/32 68/1093/32
f 66/1103/32 68/1093/32 65/1092/32
f 67/232/48 91/246/48 69/247/48
f 67/232/48 93/231/48 91/246/48
f 67/232/54 69/247/54 68/235/54
f 69/1095/33 71/976/33 72/962/33
f 69/1095/33 72/962/33 68/1093/33
f 70/292/17 72/289/17 71/285/17
f 70/951/26 49/784/26 50/779/26
f 70/951/26 50/779/26 72/962/26
f 71/285/49 94/291/49 70/292/49
f 71/285/49 96/284/49 94/291/49
f 72/962/2 50/779/2 53/687/2
f 72/962/2 53/687/2 59/778/2
f 73/335/55 75/362/55 74/364/55
f 73/635/34 94/710/34 95/708/34
f 73/635/34 95/708/34 75/629/34
f 74/364/42 49/336/42 73/335/42
f 74/364/42 51/365/42 49/336/42
f 74/364/9 52/392/9 51/365/9
f 74/364/9 78/391/9 52/392/9
f 75/629/8 92/709/8 86/541/8
f 75/629/8 95/708/8 92/709/8
f 76/395/1 55/404/1 54/396/1
f 76/395/1 81/403/1 55/404/1
f 76/395/19 78/391/19 77/393/19
f 78/391/41 74/364/41 75/362/41
f 78/391/41 75/362/41 77/393/41
f 79/262/3 58/297/3 57/263/3
f 79/262/3 84/296/3 58/297/3
f 79/262/56 81/258/56 80/260/56
f 80/487/8 77/540/8 75/629/8
f 81/481/40 76/536/40 77/540/40
f 81/481/40 77/540/40 80/487/40
f 82/302/4 61/330/4 60/303/4
f 82/302/4 87/329/4 61/330/4
f 82/302/57 84/296/57 83/300/57
f 84/296/39 79/262/39 80/260/39
f 84/296/39 80/260/39 83/300/39
f 85/20/5 64/97/5 63/21/5
f 85/20/5 90/96/5 64/97/5
f 85/546/22 87/537/22 86/541/22
f 86/541/8 80/487/8 75/629/8
f 86/541/8 83/488/8 80/487/8
f 87/537/38 82/482/38 83/488/38
f 87/537/38 83/488/38 86/541/38
f 88/130/23 90/96/23 89/118/23
f 88/130/6 67/232/6 66/131/6
f 88/130/6 93/231/6 67/232/6
f 90/626/37 85/546/37 86/541/37
f 90/626/37 86/541/37 89/630/37
f 91/246/24 93/231/24 92/234/24
f 91/256/7 71/285/7 69/257/7
f 91/256/7 96/284/7 71/285/7
f 92/709/8 89/630/8 86/541/8
f 93/711/36 88/636/36 89/630/36
f 93/711/36 89/630/36 92/709/36
f 94/291/25 96/284/25 95/288/25
f 94/291/50 49/334/50 70/292/50
f 94/291/50 73/333/50 49/334/50
f 95/708/35 91/715/35 92/709/35
f 95/708/35 96/714/35 91/715/35
usemtl MMOFPS_orange
f 100/109/43 124/70/43 102/105/43
f 100/109/51 102/105/51 101/124/51
f 102/340/28 104/347/28 101/348/28
f 103/276/44 127/273/44 105/278/44
f 103/276/52 105/278/52 104/280/52
f 105/345/29 107/381/29 104/347/29
f 106/277/13 108/275/13 107/279/13
f 106/277/45 130/270/45 108/275/45
f 107/381/2 113/465/2 120/408/2
f 107/381/30 109/405/30 110/407/30
f 109/102/46 133/68/46 111/103/46
f 109/405/58 111/409/58 110/407/58
f 111/409/31 113/465/31 110/407/31
f 112/108/47 136/77/47 114/112/47
f 112/108/53 114/112/53 113/123/53
f 114/471/32 116/466/32 113/465/32
f 115/111/16 117/107/16 116/122/16
f 115/111/48 139/72/48 117/107/48
f 117/469/33 120/408/33 116/466/33
f 118/406/26 98/382/26 120/408/26
f 118/754/59 120/746/59 119/753/59
f 119/753/49 142/792/49 118/754/49
f 121/298/34 143/325/34 123/294/34
f 121/71/55 123/57/55 122/75/55
f 122/75/42 97/106/42 121/71/42
f 122/75/9 100/109/9 99/110/9
f 124/70/1 103/104/1 102/105/1
f 124/70/19 126/74/19 125/56/19
f 126/74/41 123/57/41 125/56/41
f 127/273/20 129/271/20 128/268/20
f 127/273/3 106/277/3 105/278/3
f 129/175/40 125/253/40 128/178/40
f 130/270/4 109/274/4 108/275/4
f 130/270/57 132/272/57 131/267/57
f 132/272/39 128/268/39 131/267/39
f 133/255/60 135/251/60 134/254/60
f 133/68/5 112/108/5 111/103/5
f 134/254/8 128/178/8 123/294/8
f 135/251/38 131/179/38 134/254/38
f 136/77/6 115/111/6 114/112/6
f 136/77/61 138/73/61 137/55/61
f 138/293/37 134/254/37 137/295/37
f 139/72/62 141/76/62 140/54/62
f 139/794/7 119/753/7 117/759/7
f 141/328/36 137/295/36 140/326/36
f 142/792/50 97/758/50 118/754/50
f 142/792/63 144/791/63 143/812/63
f 144/331/35 140/326/35 143/325/35
f 97/106/10 99/110/10 98/125/10
f 99/380/27 101/348/27 98/382/27
s 1
f 314/238/75 315/217/76 313/215/77
f 316/572/78 317/562/79 315/563/76
f 318/1057/80 319/1078/81 317/1077/79
f 320/1060/82 321/1076/83 319/1078/81
f 322/1086/84 323/1102/85 321/1101/83
f 324/1087/86 325/1100/87 323/1102/85
s 0
f 326/474/8 322/463/8 318/483/8
s 1
f 326/241/88 327/216/89 325/218/87
f 328/239/90 313/215/77 327/216/89
s 0
f 100/109/43 126/74/43 124/70/43
f 101/348/2 104/347/2 107/381/2
f 102/340/28 103/339/28 104/347/28
f 103/276/44 129/271/44 127/273/44
f 105/345/29 106/379/29 107/381/29
f 106/277/45 132/272/45 130/270/45
f 107/381/2 110/407/2 113/465/2
f 107/381/30 108/385/30 109/405/30
f 109/102/46 135/67/46 133/68/46
f 111/409/31 112/468/31 113/465/31
f 112/108/47 138/73/47 136/77/47
f 113/465/2 116/466/2 120/408/2
f 114/471/32 115/472/32 116/466/32
f 115/111/48 141/76/48 139/72/48
f 117/469/33 119/410/33 120/408/33
f 118/406/26 97/386/26 98/382/26
f 119/753/49 144/791/49 142/792/49
f 120/408/2 101/348/2 107/381/2
f 120/408/2 98/382/2 101/348/2
f 121/298/34 142/327/34 143/325/34
f 122/75/42 99/110/42 97/106/42
f 122/75/9 126/74/9 100/109/9
f 123/294/8 140/326/8 134/254/8
f 123/294/8 143/325/8 140/326/8
f 124/70/1 129/69/1 103/104/1
f 126/74/41 122/75/41 123/57/41
f 127/273/3 132/272/3 106/277/3
f 128/178/8 125/253/8 123/294/8
f 129/175/40 124/250/40 125/253/40
f 130/270/4 135/269/4 109/274/4
f 132/272/39 127/273/39 128/268/39
f 133/68/5 138/73/5 112/108/5
f 134/254/8 131/179/8 128/178/8
f 135/251/38 130/176/38 131/179/38
f 136/77/6 141/76/6 115/111/6
f 138/293/37 133/255/37 134/254/37
f 139/794/7 144/791/7 119/753/7
f 140/326/8 137/295/8 134/254/8
f 141/328/36 136/299/36 137/295/36
f 142/792/50 121/793/50 97/758/50
f 144/331/35 139/332/35 140/326/35
f 319/501/2 323/511/2 327/521/2
f 449/802/30 456/808/30 455/809/30
f 449/912/147 450/913/147 451/917/147
f 452/916/148 453/922/148 454/921/148
f 452/916/3 451/917/3 450/913/3
f 453/221/40 465/213/40 464/220/40
f 454/921/4 456/920/4 451/917/4
f 455/680/149 456/682/149 457/681/149
f 455/809/32 468/814/32 467/810/32
f 457/681/5 460/689/5 459/688/5
f 458/225/38 454/222/38 453/221/38
f 458/225/8 464/220/8 470/224/8
f 458/691/150 459/688/150 460/689/150
f 459/688/6 468/683/6 457/681/6
f 461/790/151 462/805/151 463/806/151
f 461/803/28 450/786/28 449/802/28
f 463/806/9 466/815/9 465/816/9
f 464/220/34 471/223/34 470/224/34
f 464/820/152 465/816/152 466/815/152
f 465/816/1 450/807/1 463/806/1
f 467/810/2 449/802/2 455/809/2
f 467/810/26 462/804/26 461/803/26
f 467/938/153 468/939/153 469/946/153
f 469/946/7 472/945/7 471/952/7
f 470/224/36 459/237/36 458/225/36
f 470/955/154 471/952/154 472/945/154
f 471/952/50 462/947/50 469/946/50
f 474/1050/4 475/1062/4 473/1051/4
f 476/532/6 479/539/6 475/533/6
f 476/704/8 478/701/8 480/703/8
f 478/583/1 473/595/1 477/584/1
f 479/695/2 473/692/2 475/694/2
f 480/1008/50 477/1016/50 479/1009/50
f 482/1081/4 483/1089/4 481/1082/4
f 484/631/6 487/634/6 483/632/6
f 484/92/8 486/89/8 488/91/8
f 486/867/1 481/878/1 485/868/1
f 487/66/2 481/52/2 483/65/2
f 488/1010/50 485/1018/50 487/1011/50
f 490/1052/4 491/1064/4 489/1053/4
f 492/555/6 495/561/6 491/556/6
f 492/750/8 494/742/8 496/749/8
f 494/612/1 489/617/1 493/613/1
f 495/719/2 489/716/2 491/718/2
f 496/1025/50 493/1034/50 495/1026/50
f 498/1054/4 499/1066/4 497/1055/4
f 500/566/6 503/574/6 499/567/6
f 500/874/8 502/869/8 504/873/8
f 502/598/1 497/606/1 501/599/1
f 503/798/2 497/788/2 499/797/2
f 504/1027/50 501/1036/50 503/1028/50
f 506/1070/4 507/1075/4 505/1071/4
f 508/156/8 510/148/8 512/155/8
f 508/652/6 511/658/6 507/653/6
f 510/865/1 505/876/1 509/866/1
f 511/129/2 505/126/2 507/128/2
f 512/1039/50 509/1046/50 511/1040/50
f 99/380/27 100/346/27 101/348/27
s 1
f 314/238/75 316/240/78 315/217/76
f 316/572/78 318/571/80 317/562/79
f 318/1057/80 320/1060/82 319/1078/81
f 320/1060/82 322/1056/84 321/1076/83
f 322/1086/84 324/1087/86 323/1102/85
f 324/1087/86 326/1085/88 325/1100/87
s 0
f 314/497/8 328/484/8 326/474/8
f 318/483/8 314/497/8 326/474/8
f 318/483/8 316/496/8 314/497/8
f 322/463/8 320/473/8 318/483/8
f 326/474/8 324/464/8 322/463/8
s 1
f 326/241/88 328/239/90 327/216/89
f 328/239/90 314/238/75 313/215/77
s 0
f 315/520/2 317/512/2 319/501/2
f 319/501/2 321/500/2 323/511/2
f 323/511/2 325/519/2 327/521/2
f 327/521/2 313/522/2 315/520/2
f 327/521/2 315/520/2 319/501/2
f 449/802/30 451/801/30 456/808/30
f 452/916/3 454/921/3 451/917/3
f 453/221/40 452/214/40 465/213/40
f 454/921/4 460/923/4 456/920/4
f 455/809/32 457/813/32 468/814/32
f 457/681/5 456/682/5 460/689/5
f 458/225/38 460/226/38 454/222/38
f 458/225/8 453/221/8 464/220/8
f 459/688/6 472/690/6 468/683/6
f 461/803/28 463/787/28 450/786/28
f 463/806/9 462/805/9 466/815/9
f 464/220/34 466/219/34 471/223/34
f 465/816/1 452/817/1 450/807/1
f 467/810/2 461/803/2 449/802/2
f 467/810/26 469/811/26 462/804/26
f 469/946/7 468/939/7 472/945/7
f 470/224/36 472/236/36 459/237/36
f 471/952/50 466/956/50 462/947/50
f 474/1050/4 476/1061/4 475/1062/4
f 476/532/6 480/538/6 479/539/6
f 476/704/8 474/702/8 478/701/8
f 478/583/1 474/594/1 473/595/1
f 479/695/2 477/693/2 473/692/2
f 480/1008/50 478/1015/50 477/1016/50
f 482/1081/4 484/1088/4 483/1089/4
f 484/631/6 488/633/6 487/634/6
f 484/92/8 482/90/8 486/89/8
f 486/867/1 482/877/1 481/878/1
f 487/66/2 485/53/2 481/52/2
f 488/1010/50 486/1017/50 485/1018/50
f 490/1052/4 492/1063/4 491/1064/4
f 492/555/6 496/560/6 495/561/6
f 492/750/8 490/743/8 494/742/8
f 494/612/1 490/616/1 489/617/1
f 495/719/2 493/717/2 489/716/2
f 496/1025/50 494/1033/50 493/1034/50
f 498/1054/4 500/1065/4 499/1066/4
f 500/566/6 504/573/6 503/574/6
f 500/874/8 498/870/8 502/869/8
f 502/598/1 498/605/1 497/606/1
f 503/798/2 501/789/2 497/788/2
f 504/1027/50 502/1035/50 501/1036/50
f 506/1070/4 508/1074/4 507/1075/4
f 508/156/8 506/149/8 510/148/8
f 508/652/6 512/657/6 511/658/6
f 510/865/1 506/875/1 505/876/1
f 511/129/2 509/127/2 505/126/2
f 512/1039/50 510/1045/50 509/1046/50
usemtl MMOFPS_night
f 145/82/10 147/84/10 146/88/10
f 146/548/27 147/545/27 148/486/27
f 146/548/27 148/486/27 149/490/27
f 148/83/43 172/61/43 150/81/43
f 148/83/43 174/63/43 172/61/43
f 148/83/51 150/81/51 149/87/51
f 149/490/2 152/489/2 155/547/2
f 150/480/28 151/479/28 152/489/28
f 150/480/28 152/489/28 149/490/28
f 151/115/44 175/101/44 153/117/44
f 151/115/44 177/99/44 175/101/44
f 151/115/52 153/117/52 152/121/52
f 153/485/29 154/544/29 155/547/29
f 153/485/29 155/547/29 152/489/29
f 154/116/13 156/114/13 155/120/13
f 154/116/45 178/98/45 156/114/45
f 154/116/45 180/100/45 178/98/45
f 155/547/2 158/641/2 161/720/2
f 155/547/2 161/720/2 168/642/2
f 156/551/30 157/637/30 158/641/30
f 156/551/30 158/641/30 155/547/30
f 157/153/46 181/139/46 159/154/46
f 157/153/46 183/138/46 181/139/46
f 157/637/14 159/644/14 158/641/14
f 159/644/31 160/722/31 161/720/31
f 159/644/31 161/720/31 158/641/31
f 160/160/15 162/162/15 161/166/15
f 160/160/47 184/145/47 162/162/47
f 160/160/47 186/143/47 184/145/47
f 161/720/2 164/721/2 168/642/2
f 162/724/32 163/725/32 164/721/32
f 162/724/32 164/721/32 161/720/32
f 163/161/16 165/159/16 164/165/16
f 163/161/48 187/142/48 165/159/48
f 163/161/48 189/144/48 187/142/48
f 165/723/33 167/645/33 168/642/33
f 165/723/33 168/642/33 164/721/33
f 166/141/17 168/134/17 167/140/17
f 166/638/26 145/552/26 146/548/26
f 166/638/26 146/548/26 168/642/26
f 167/140/49 190/158/49 166/141/49
f 167/140/49 192/157/49 190/158/49
f 168/642/2 146/548/2 149/490/2
f 168/642/2 149/490/2 155/547/2
f 169/62/18 171/59/18 170/64/18
f 169/670/34 190/765/34 191/763/34
f 169/670/34 191/763/34 171/668/34
f 170/64/42 145/82/42 169/62/42
f 170/64/42 147/84/42 145/82/42
f 170/64/9 148/83/9 147/84/9
f 170/64/9 174/63/9 148/83/9
f 171/668/8 188/764/8 182/569/8
f 171/668/8 191/763/8 188/764/8
f 172/61/1 151/78/1 150/81/1
f 172/61/1 177/60/1 151/78/1
f 172/61/64 174/63/64 173/58/64
f 174/63/41 170/64/41 171/59/41
f 174/63/41 171/59/41 173/58/41
f 175/101/20 177/99/20 176/94/20
f 175/101/3 154/116/3 153/117/3
f 175/101/3 180/100/3 154/116/3
f 176/506/8 173/568/8 171/668/8
f 177/502/40 172/564/40 173/568/40
f 177/502/40 173/568/40 176/506/40
f 178/98/21 180/100/21 179/93/21
f 178/98/4 157/113/4 156/114/4
f 178/98/4 183/95/4 157/113/4
f 180/100/39 175/101/39 176/94/39
f 180/100/39 176/94/39 179/93/39
f 181/139/5 160/160/5 159/154/5
f 181/139/5 186/143/5 160/160/5
f 181/570/60 183/565/60 182/569/60
f 182/569/8 176/506/8 171/668/8
f 182/569/8 179/507/8 176/506/8
f 183/565/38 178/503/38 179/507/38
f 183/565/38 179/507/38 182/569/38
f 184/145/6 163/161/6 162/162/6
f 184/145/6 189/144/6 163/161/6
f 184/145/61 186/143/61 185/133/61
f 186/665/37 181/570/37 182/569/37
f 186/665/37 182/569/37 185/669/37
f 187/142/62 189/144/62 188/132/62
f 187/164/7 167/140/7 165/147/7
f 187/164/7 192/157/7 167/140/7
f 188/764/8 185/669/8 182/569/8
f 189/766/36 184/671/36 185/669/36
f 189/766/36 185/669/36 188/764/36
f 190/158/50 145/146/50 166/141/50
f 190/158/50 169/163/50 145/146/50
f 190/158/63 192/157/63 191/167/63
f 191/763/35 187/768/35 188/764/35
f 191/763/35 192/767/35 187/768/35
f 193/1229/10 195/1231/10 194/1233/10
f 194/376/27 195/374/27 196/352/27
f 194/376/27 196/352/27 197/357/27
f 196/1230/11 198/1228/11 197/1232/11
f 196/1230/43 220/1183/43 198/1228/43
f 196/1230/43 222/1185/43 220/1183/43
f 197/357/2 200/356/2 203/375/2
f 198/342/28 199/341/28 200/356/28
f 198/342/28 200/356/28 197/357/28
f 199/1236/12 201/1238/12 200/1240/12
f 199/1236/44 223/1197/44 201/1238/44
f 199/1236/44 225/1195/44 223/1197/44
f 200/356/29 201/351/29 202/373/29
f 200/356/29 202/373/29 203/375/29
f 202/1237/13 204/1235/13 203/1239/13
f 202/1237/45 226/1194/45 204/1235/45
f 202/1237/45 228/1196/45 226/1194/45
f 203/375/2 206/399/2 209/421/2
f 203/375/2 209/421/2 216/400/2
f 204/377/30 205/397/30 206/399/30
f 204/377/30 206/399/30 203/375/30
f 205/1214/46 229/1161/46 207/1215/46
f 205/1214/46 231/1160/46 229/1161/46
f 205/397/14 207/401/14 206/399/14
f 206/399/31 207/401/31 208/425/31
f 206/399/31 208/425/31 209/421/31
f 208/1219/15 210/1221/15 209/1226/15
f 208/1219/47 232/1167/47 210/1221/47
f 208/1219/47 234/1165/47 232/1167/47
f 209/421/2 212/422/2 216/400/2
f 210/427/32 211/428/32 212/422/32
f 210/427/32 212/422/32 209/421/32
f 211/1220/16 213/1218/16 212/1225/16
f 211/1220/48 235/1164/48 213/1218/48
f 211/1220/48 237/1166/48 235/1164/48
f 212/422/33 213/426/33 215/402/33
f 212/422/33 215/402/33 216/400/33
f 214/1162/17 216/1150/17 215/1163/17
f 214/398/26 193/378/26 194/376/26
f 214/398/26 194/376/26 216/400/26
f 215/1163/49 238/1217/49 214/1162/49
f 215/1163/49 240/1216/49 238/1217/49
f 216/400/2 194/376/2 197/357/2
f 216/400/2 197/357/2 203/375/2
f 217/1000/34 238/1090/34 239/1083/34
f 217/1000/34 239/1083/34 219/988/34
f 217/1184/18 219/1169/18 218/1186/18
f 218/1186/42 193/1229/42 217/1184/42
f 218/1186/42 195/1231/42 193/1229/42
f 218/1186/9 196/1230/9 195/1231/9
f 218/1186/9 222/1185/9 196/1230/9
f 219/988/8 236/1084/8 230/852/8
f 219/988/8 239/1083/8 236/1084/8
f 220/1183/1 199/1224/1 198/1228/1
f 220/1183/1 225/1182/1 199/1224/1
f 220/1183/64 222/1185/64 221/1168/64
f 221/1168/41 218/1186/41 219/1169/41
f 221/1168/41 222/1185/41 218/1186/41
f 223/1197/3 202/1237/3 201/1238/3
f 223/1197/3 228/1196/3 202/1237/3
f 223/1197/56 225/1195/56 224/1188/56
f 224/735/8 221/851/8 219/988/8
f 225/728/40 220/831/40 221/851/40
f 225/728/40 221/851/40 224/735/40
f 226/1194/21 228/1196/21 227/1187/21
f 226/1194/4 205/1234/4 204/1235/4
f 226/1194/4 231/1193/4 205/1234/4
f 227/1187/39 223/1197/39 224/1188/39
f 227/1187/39 228/1196/39 223/1197/39
f 229/1161/5 208/1219/5 207/1215/5
f 229/1161/5 234/1165/5 208/1219/5
f 229/861/60 231/832/60 230/852/60
f 230/852/8 224/735/8 219/988/8
f 230/852/8 227/736/8 224/735/8
f 231/832/38 226/729/38 227/736/38
f 231/832/38 227/736/38 230/852/38
f 232/1167/6 211/1220/6 210/1221/6
f 232/1167/6 237/1166/6 211/1220/6
f 232/1167/61 234/1165/61 233/1149/61
f 233/989/37 229/861/37 230/852/37
f 233/989/37 234/977/37 229/861/37
f 235/1164/62 237/1166/62 236/1148/62
f 235/1223/7 215/1163/7 213/1173/7
f 235/1223/7 240/1216/7 215/1163/7
f 236/1084/8 233/989/8 230/852/8
f 237/1091/36 232/1001/36 233/989/36
f 237/1091/36 233/989/36 236/1084/36
f 238/1217/50 193/1172/50 214/1162/50
f 238/1217/50 217/1222/50 193/1172/50
f 238/1217/63 240/1216/63 239/1227/63
f 240/1096/35 235/1097/35 236/1084/35
f 240/1096/35 236/1084/35 239/1083/35
f 425/1116/139 426/1114/139 427/1121/139
f 425/1199/30 427/1198/30 432/1202/30
f 425/1199/30 432/1202/30 431/1203/30
f 428/1113/140 429/1115/140 430/1120/140
f 428/1113/3 427/1121/3 426/1114/3
f 428/1113/3 430/1120/3 427/1121/3
f 429/1176/40 428/1171/40 441/1170/40
f 429/1176/40 441/1170/40 440/1175/40
f 430/1120/4 432/1123/4 427/1121/4
f 430/1120/4 436/1122/4 432/1123/4
f 431/1203/32 433/1206/32 444/1207/32
f 431/1203/32 444/1207/32 443/1204/32
f 431/838/141 432/826/141 433/840/141
f 433/840/5 432/826/5 436/825/5
f 433/840/5 436/825/5 435/839/5
f 434/1180/38 430/1177/38 429/1176/38
f 434/1180/38 436/1181/38 430/1177/38
f 434/1180/8 429/1176/8 440/1175/8
f 434/1180/8 440/1175/8 446/1179/8
f 434/837/142 435/839/142 436/825/142
f 435/839/6 444/1020/6 433/840/6
f 435/839/6 448/1019/6 444/1020/6
f 437/1200/28 426/1191/28 425/1199/28
f 437/1200/28 439/1192/28 426/1191/28
f 437/895/143 438/890/143 439/901/143
f 439/901/9 438/890/9 442/889/9
f 439/901/9 442/889/9 441/900/9
f 440/1175/34 442/1174/34 447/1178/34
f 440/1175/34 447/1178/34 446/1179/34
f 440/894/144 441/900/144 442/889/144
f 441/900/1 426/1038/1 439/901/1
f 441/900/1 428/1037/1 426/1038/1
f 443/1125/145 444/1119/145 445/1127/145
f 443/1204/2 425/1199/2 431/1203/2
f 443/1204/2 437/1200/2 425/1199/2
f 443/1204/26 438/1201/26 437/1200/26
f 443/1204/26 445/1205/26 438/1201/26
f 445/1127/7 444/1119/7 448/1118/7
f 445/1127/7 448/1118/7 447/1126/7
f 446/1124/146 447/1126/146 448/1118/146
f 446/1179/36 435/1190/36 434/1180/36
f 446/1179/36 448/1189/36 435/1190/36
f 447/1126/50 438/1129/50 445/1127/50
f 447/1126/50 442/1128/50 438/1129/50
usemtl MMOFPS_steel
f 289/446/67 290/448/67 291/449/67
f 289/854/30 291/853/30 296/896/30
f 289/854/30 296/896/30 295/897/30
f 292/451/3 291/449/3 290/448/3
f 292/451/3 294/452/3 291/449/3
f 292/451/68 293/459/68 294/452/68
f 293/829/40 292/824/40 305/823/40
f 293/829/40 305/823/40 304/828/40
f 294/452/4 296/450/4 291/449/4
f 294/452/4 300/453/4 296/450/4
f 295/1004/69 296/1006/69 297/1005/69
f 295/897/32 297/906/32 308/907/32
f 295/897/32 308/907/32 307/898/32
f 297/1005/5 296/1006/5 300/1023/5
f 297/1005/5 300/1023/5 299/1022/5
f 298/1032/70 299/1022/70 300/1023/70
f 298/883/38 294/830/38 293/829/38
f 298/883/38 300/884/38 294/830/38
f 298/883/8 293/829/8 304/828/8
f 298/883/8 304/828/8 310/882/8
f 299/1022/6 308/1007/6 297/1005/6
f 299/1022/6 312/1024/6 308/1007/6
f 301/413/71 302/416/71 303/417/71
f 301/855/28 290/845/28 289/854/28
f 301/855/28 303/846/28 290/845/28
f 303/417/9 302/416/9 306/431/9
f 303/417/9 306/431/9 305/432/9
f 304/434/72 305/432/72 306/431/72
f 304/828/34 306/827/34 311/881/34
f 304/828/34 311/881/34 310/882/34
f 305/432/1 290/418/1 303/417/1
f 305/432/1 292/433/1 290/418/1
f 307/898/2 289/854/2 295/897/2
f 307/898/2 301/855/2 289/854/2
f 307/898/26 302/856/26 301/855/26
f 307/898/26 309/899/26 302/856/26
f 307/990/73 308/996/73 309/995/73
f 309/995/7 308/996/7 312/1013/7
f 309/995/7 312/1013/7 311/1012/7
f 310/1021/74 311/1012/74 312/1013/74
f 310/882/36 299/888/36 298/883/36
f 310/882/36 312/887/36 299/888/36
f 311/1012/50 302/997/50 309/995/50
f 311/1012/50 306/1014/50 302/997/50
f 329/732/92 331/733/92 330/726/92
f 330/31/9 333/8/9 336/25/9
f 330/31/9 336/25/9 340/30/9
f 331/733/27 332/734/27 333/727/27
f 331/733/27 333/727/27 330/726/27
f 332/322/102 344/317/102 334/320/102
f 332/322/102 346/318/102 344/317/102
f 332/322/93 334/320/93 333/324/93
f 333/324/100 334/320/100 335/319/100
f 333/324/100 335/319/100 336/323/100
f 335/319/94 337/321/94 336/323/94
f 335/677/103 347/673/103 337/676/103
f 335/677/103 349/674/103 347/673/103
f 337/26/41 339/29/41 340/30/41
f 337/26/41 340/30/41 336/25/41
f 338/34/1 329/35/1 330/31/1
f 338/34/1 330/31/1 340/30/1
f 338/34/95 340/30/95 339/29/95
f 339/1142/39 350/1152/39 338/1143/39
f 339/1142/39 352/1151/39 350/1152/39
f 341/1153/4 350/1152/4 351/1158/4
f 341/1153/4 351/1158/4 343/1159/4
f 341/739/29 331/733/29 329/732/29
f 341/739/29 342/740/29 331/733/29
f 341/739/96 343/751/96 342/740/96
f 342/740/2 332/734/2 331/733/2
f 342/740/2 346/741/2 332/734/2
f 344/317/91 335/319/91 334/320/91
f 344/317/91 349/316/91 335/319/91
f 344/880/97 346/872/97 345/864/97
f 345/752/31 342/740/31 343/751/31
f 345/752/31 346/741/31 342/740/31
f 347/673/8 339/675/8 337/676/8
f 347/673/8 352/672/8 339/675/8
f 347/871/98 349/879/98 348/863/98
f 348/863/5 343/785/5 351/862/5
f 348/863/5 345/864/5 343/785/5
f 349/879/101 344/880/101 345/864/101
f 349/879/101 345/864/101 348/863/101
f 350/1152/3 329/1144/3 338/1143/3
f 350/1152/3 341/1153/3 329/1144/3
f 350/1152/99 352/1151/99 351/1158/99
f 351/666/37 347/673/37 348/667/37
f 351/666/37 352/672/37 347/673/37
f 353/266/105 355/265/105 354/264/105
f 354/264/7 357/243/7 360/242/7
f 354/264/7 360/242/7 364/248/7
f 355/756/33 356/757/33 357/748/33
f 355/756/33 357/748/33 354/747/33
f 356/313/106 358/311/106 357/315/106
f 356/313/113 368/308/113 358/311/113
f 356/313/113 370/309/113 368/308/113
f 357/315/111 358/311/111 359/310/111
f 357/315/111 359/310/111 360/314/111
f 359/310/107 361/312/107 360/314/107
f 359/543/114 371/553/114 361/554/114
f 359/543/114 373/542/114 371/553/114
f 361/554/35 363/558/35 364/559/35
f 361/554/35 364/559/35 360/550/35
f 362/252/108 364/248/108 363/249/108
f 362/252/50 353/266/50 354/264/50
f 362/252/50 354/264/50 364/248/50
f 363/1134/41 374/1146/41 362/1135/41
f 363/1134/41 376/1145/41 374/1146/41
f 365/1147/1 374/1146/1 375/1154/1
f 365/1147/1 375/1154/1 367/1155/1
f 365/760/27 355/756/27 353/755/27
f 365/760/27 366/761/27 355/756/27
f 365/760/92 367/771/92 366/761/92
f 366/761/2 356/757/2 355/756/2
f 366/761/2 370/762/2 356/757/2
f 368/306/109 370/305/109 369/304/109
f 368/308/104 359/310/104 358/311/104
f 368/308/104 373/307/104 359/310/104
f 369/772/29 366/761/29 367/771/29
f 369/772/29 370/762/29 366/761/29
f 371/553/110 373/542/110 372/549/110
f 371/553/8 363/558/8 361/554/8
f 371/553/8 376/557/8 363/558/8
f 372/287/3 367/283/3 375/282/3
f 372/287/3 369/304/3 367/283/3
f 373/290/112 368/306/112 369/304/112
f 373/290/112 369/304/112 372/287/112
f 374/1146/9 353/1136/9 362/1135/9
f 374/1146/9 365/1147/9 353/1136/9
f 374/1146/95 376/1145/95 375/1154/95
f 375/282/39 371/286/39 372/287/39
f 375/282/39 376/281/39 371/286/39
f 377/470/116 379/467/116 378/462/116
f 378/462/5 381/436/5 384/435/5
f 378/462/5 384/435/5 388/439/5
f 379/781/31 380/780/31 381/795/31
f 379/781/31 381/795/31 378/796/31
f 380/152/117 382/151/117 381/169/117
f 380/152/126 392/136/126 382/151/126
f 380/152/126 394/137/126 392/136/126
f 381/169/124 382/151/124 383/150/124
f 381/169/124 383/150/124 384/168/124
f 383/504/118 385/510/118 384/505/118
f 383/504/127 395/514/127 385/510/127
f 383/504/127 397/508/127 395/514/127
f 385/510/37 387/513/37 388/509/37
f 385/510/37 388/509/37 384/505/37
f 386/447/119 388/439/119 387/440/119
f 386/447/6 377/470/6 378/462/6
f 386/447/6 378/462/6 388/439/6
f 387/513/35 398/518/35 386/516/35
f 387/513/35 400/517/35 398/518/35
f 389/1069/120 391/1080/120 390/1073/120
f 389/1069/50 398/1068/50 399/1079/50
f 389/1069/50 399/1079/50 391/1080/50
f 389/777/33 379/781/33 377/782/33
f 389/777/33 390/776/33 379/781/33
f 390/776/2 380/780/2 379/781/2
f 390/776/2 394/775/2 380/780/2
f 392/1117/121 394/1112/121 393/1109/121
f 392/136/115 383/150/115 382/151/115
f 392/136/115 397/135/115 383/150/115
f 393/773/27 390/776/27 391/774/27
f 393/773/27 394/775/27 390/776/27
f 395/514/122 397/508/122 396/515/122
f 395/514/8 387/513/8 385/510/8
f 395/514/8 400/517/8 387/513/8
f 396/1042/9 391/1031/9 399/1030/9
f 396/1042/9 393/1109/9 391/1031/9
f 397/1047/125 392/1117/125 393/1109/125
f 397/1047/125 393/1109/125 396/1042/125
f 398/1068/123 400/1072/123 399/1079/123
f 398/1068/7 377/1059/7 386/1058/7
f 398/1068/7 389/1069/7 377/1059/7
f 399/1030/41 395/1041/41 396/1042/41
f 399/1030/41 400/1029/41 395/1041/41
f 401/707/96 403/706/96 402/713/96
f 402/210/3 405/181/3 408/206/3
f 402/210/3 408/206/3 412/209/3
f 403/706/2 414/699/2 418/698/2
f 403/706/2 418/698/2 404/705/2
f 403/706/29 404/705/29 405/712/29
f 403/706/29 405/712/29 402/713/29
f 404/1139/137 416/1131/137 406/1138/137
f 404/1139/137 418/1132/137 416/1131/137
f 404/180/129 406/177/129 405/181/129
f 405/181/135 406/177/135 407/203/135
f 405/181/135 407/203/135 408/206/135
f 407/531/130 409/527/130 408/526/130
f 409/207/39 411/208/39 412/209/39
f 409/207/39 412/209/39 408/206/39
f 409/527/138 407/531/138 421/534/138
f 409/527/138 421/534/138 419/529/138
f 410/211/4 401/212/4 402/210/4
f 410/211/4 402/210/4 412/209/4
f 410/211/99 412/209/99 411/208/99
f 411/524/37 422/525/37 410/523/37
f 411/524/37 424/528/37 422/525/37
f 413/1106/131 415/1111/131 414/1108/131
f 413/1106/6 422/1105/6 423/1110/6
f 413/1106/6 423/1110/6 415/1111/6
f 413/700/31 403/706/31 401/707/31
f 413/700/31 414/699/31 403/706/31
f 416/1131/128 407/1137/128 406/1138/128
f 416/1131/128 421/1130/128 407/1137/128
f 416/33/132 418/28/132 417/24/132
f 417/696/33 414/699/33 415/697/33
f 417/696/33 418/698/33 414/699/33
f 419/27/133 421/32/133 420/23/133
f 419/529/8 411/524/8 409/527/8
f 419/529/8 424/528/8 411/524/8
f 420/23/7 415/7/7 423/22/7
f 420/23/7 417/24/7 415/7/7
f 421/32/136 416/33/136 417/24/136
f 421/32/136 417/24/136 420/23/136
f 422/1105/134 424/1107/134 423/1110/134
f 422/1105/5 401/1099/5 410/1098/5
f 422/1105/5 413/1106/5 401/1099/5
f 423/530/35 419/529/35 420/535/35
f 423/530/35 424/528/35 419/529/35
f 513/585/30 515/589/30 520/592/30
f 513/585/30 520/592/30 519/591/30
f 513/966/139 514/964/139 515/970/139
f 516/963/3 515/970/3 514/964/3
f 516/963/3 518/969/3 515/970/3
f 516/963/68 517/965/68 518/969/68
f 517/618/40 516/614/40 529/619/40
f 517/618/40 529/619/40 528/621/40
f 518/969/4 520/983/4 515/970/4
f 518/969/4 524/982/4 520/983/4
f 519/591/32 521/593/32 532/590/32
f 519/591/32 532/590/32 531/586/32
f 519/929/141 520/927/141 521/931/141
f 521/931/5 520/927/5 524/926/5
f 521/931/5 524/926/5 523/930/5
f 522/622/38 518/615/38 517/618/38
f 522/622/38 524/620/38 518/615/38
f 522/622/8 517/618/8 528/621/8
f 522/622/8 528/621/8 534/625/8
f 522/928/70 523/930/70 524/926/70
f 523/930/6 532/937/6 521/931/6
f 523/930/6 536/936/6 532/937/6
f 525/580/28 514/581/28 513/585/28
f 525/580/28 527/578/28 514/581/28
f 525/944/143 526/941/143 527/949/143
f 527/949/9 526/941/9 530/940/9
f 527/949/9 530/940/9 529/948/9
f 528/621/34 530/623/34 535/627/34
f 528/621/34 535/627/34 534/625/34
f 528/943/72 529/948/72 530/940/72
f 529/948/1 514/958/1 527/949/1
f 529/948/1 516/957/1 514/958/1
f 531/586/2 513/585/2 519/591/2
f 531/586/2 525/580/2 513/585/2
f 531/586/26 526/579/26 525/580/26
f 531/586/26 533/582/26 526/579/26
f 531/844/145 532/836/145 533/850/145
f 533/850/7 532/836/7 536/835/7
f 533/850/7 536/835/7 535/849/7
f 534/625/36 523/624/36 522/622/36
f 534/625/36 536/628/36 523/624/36
f 534/843/74 535/849/74 536/835/74
f 535/849/50 526/860/50 533/850/50
f 535/849/50 530/859/50 526/860/50
f 537/648/30 539/650/30 544/655/30
f 537/648/30 544/655/30 543/654/30
f 537/981/139 538/974/139 539/987/139
f 540/973/3 539/987/3 538/974/3
f 540/973/3 542/986/3 539/987/3
f 540/973/68 541/980/68 542/986/68
f 541/600/40 540/596/40 553/601/40
f 541/600/40 553/601/40 552/603/40
f 542/986/4 544/994/4 539/987/4
f 542/986/4 548/993/4 544/994/4
f 543/654/32 545/656/32 556/651/32
f 543/654/32 556/651/32 555/649/32
f 543/915/141 544/911/141 545/919/141
f 545/919/5 544/911/5 548/910/5
f 545/919/5 548/910/5 547/918/5
f 546/604/38 542/597/38 541/600/38
f 546/604/38 548/602/38 542/597/38
f 546/604/8 541/600/8 552/603/8
f 546/604/8 552/603/8 558/609/8
f 546/914/70 547/918/70 548/910/70
f 547/918/6 556/925/6 545/919/6
f 547/918/6 560/924/6 556/925/6
f 549/643/28 538/646/28 537/648/28
f 549/643/28 551/639/28 538/646/28
f 549/979/143 550/972/143 551/985/143
f 551/985/9 550/972/9 554/971/9
f 551/985/9 554/971/9 553/984/9
f 552/603/34 554/607/34 559/610/34
f 552/603/34 559/610/34 558/609/34
f 552/978/72 553/984/72 554/971/72
f 553/984/1 538/992/1 551/985/1
f 553/984/1 540/991/1 538/992/1
f 555/649/2 537/648/2 543/654/2
f 555/649/2 549/643/2 537/648/2
f 555/649/26 550/640/26 549/643/26
f 555/649/26 557/647/26 550/640/26
f 555/842/145 556/834/145 557/848/145
f 557/848/7 556/834/7 560/833/7
f 557/848/7 560/833/7 559/847/7
f 558/609/36 547/608/36 546/604/36
f 558/609/36 560/611/36 547/608/36
f 558/841/74 559/847/74 560/833/74
f 559/847/50 550/858/50 557/848/50
f 559/847/50 554/857/50 550/858/50
