# Blender 4.0.2
# www.blender.org
mtllib vehicle_pad_collision.mtl
o vehicle_pad_collision
v 3.000000 0.000000 -3.000000
v 3.000000 0.175000 -3.000000
v 3.000000 0.000000 3.000000
v 3.000000 0.175000 3.000000
v -3.000000 0.000000 -3.000000
v -3.000000 0.175000 -3.000000
v -3.000000 0.000000 3.000000
v -3.000000 0.175000 3.000000
vn 1.0000 -0.0000 -0.0000
vn -0.0000 -0.0000 1.0000
vn -1.0000 -0.0000 -0.0000
vn -0.0000 -0.0000 -1.0000
vn -0.0000 -1.0000 -0.0000
vn -0.0000 1.0000 -0.0000
vt 0.00000 0.00000
vt 0.00000 0.49893
vt 0.00000 0.50107
vt 0.00000 1.00000
vt 0.88196 0.00000
vt 0.88196 0.49893
vt 0.88196 0.50107
vt 0.88196 1.00000
vt 0.88575 0.00000
vt 0.88575 0.49893
vt 0.91147 0.00000
vt 0.91147 0.49893
vt 0.91526 0.00000
vt 0.91526 0.49893
vt 0.94098 0.00000
vt 0.94098 0.49893
vt 0.94477 0.00000
vt 0.94477 0.49893
vt 0.97049 0.00000
vt 0.97049 0.49893
vt 0.97428 0.00000
vt 0.97428 0.49893
vt 1.00000 0.00000
vt 1.00000 0.49893
s 0
usemtl MMOFPS_collision
f 2/10/1 3/11/1 1/12/1
f 2/10/1 4/9/1 3/11/1
f 4/14/2 7/15/2 3/16/2
f 4/14/2 8/13/2 7/15/2
f 4/4/6 2/3/6 6/7/6
f 4/4/6 6/7/6 8/8/6
f 6/22/4 1/23/4 5/24/4
f 6/22/4 2/21/4 1/23/4
f 7/2/5 1/5/5 3/6/5
f 7/2/5 5/1/5 1/5/5
f 8/18/3 5/19/3 7/20/3
f 8/18/3 6/17/3 5/19/3
