# Blender 4.0.2
# www.blender.org
mtllib vehicle_pad_lod1.mtl
o vehicle_pad_lod1
v 2.971768 0.027805 -2.998354
v 2.998769 0.085970 -2.973843
v 2.998769 0.034030 2.973843
v 2.960000 0.120000 2.960000
v 2.959838 0.063158 3.006316
v -2.998769 0.034030 -2.973843
v -2.960000 0.120000 -2.960000
v -2.959838 0.063158 -3.006316
v -2.960000 0.000000 2.960000
v -2.959838 0.056842 3.006316
v -2.998769 0.085970 2.973843
v 2.695000 0.138182 -2.695000
v 2.695000 0.141818 2.695000
v -2.695000 0.141818 -2.695000
v -2.695000 0.138182 2.695000
v 1.500000 0.158000 -2.700000
v 1.525000 0.160000 2.700000
v 1.475000 0.156000 2.700000
v 2.700000 0.158000 -1.500000
v -2.700000 0.160000 -1.525000
v -2.700000 0.156000 -1.475000
v 0.000000 0.158000 -2.700000
v 0.025000 0.160000 2.700000
v -0.025000 0.156000 2.700000
v 2.700000 0.158000 0.000000
v -2.700000 0.160000 -0.025000
v -2.700000 0.156000 0.025000
v -1.500000 0.158000 -2.700000
v -1.475000 0.160000 2.700000
v -1.525000 0.156000 2.700000
v 2.700000 0.158000 1.500000
v -2.700000 0.160000 1.475000
v -2.700000 0.156000 1.525000
v -2.600000 0.155000 1.700000
v -2.440000 0.155000 1.700000
v -2.440000 0.140000 2.440000
v -1.700000 0.155000 2.440000
v -1.700000 0.155000 2.600000
v -2.600000 0.155000 2.600000
v -2.440000 0.170000 2.440000
v 1.700000 0.155000 2.600000
v 1.700000 0.155000 2.440000
v 2.440000 0.140000 2.440000
v 2.440000 0.155000 1.700000
v 2.600000 0.155000 1.700000
v 2.600000 0.155000 2.600000
v 2.440000 0.170000 2.440000
v 2.600000 0.155000 -1.700000
v 2.440000 0.155000 -1.700000
v 2.440000 0.140000 -2.440000
v 1.700000 0.155000 -2.440000
v 1.700000 0.155000 -2.600000
v 2.600000 0.155000 -2.600000
v 2.440000 0.170000 -2.440000
v -1.700000 0.155000 -2.600000
v -1.700000 0.155000 -2.440000
v -2.440000 0.140000 -2.440000
v -2.440000 0.155000 -1.700000
v -2.600000 0.155000 -1.700000
v -2.600000 0.155000 -2.600000
v -2.440000 0.170000 -2.440000
v -0.550000 0.165000 1.050000
v -0.200000 0.155000 1.050000
v -0.200000 0.168333 -0.000000
v 0.200000 0.161667 -0.000000
v 0.200000 0.155000 1.050000
v 0.550000 0.165000 1.050000
v 0.000000 0.165000 1.700000
v -0.200000 0.175000 1.050000
v 0.200000 0.175000 1.050000
v 0.400000 0.161667 -2.050000
v 0.400000 0.168333 -1.750000
v -0.400000 0.168333 -2.050000
v -0.400000 0.161667 -1.750000
vn 0.0057 1.0000 -0.0057
vn 0.7457 0.4196 0.5176
vn -0.7457 0.4196 -0.5176
vn -0.7457 -0.4196 0.5176
vn 0.0797 -0.9968 -0.0000
vn -0.0797 0.9968 -0.0000
vn -0.0000 0.9968 0.0797
vn -1.0000 -0.0000 -0.0000
vn -0.0000 -0.0000 -1.0000
vn 0.0007 -0.6317 0.7752
vn 0.9076 -0.4198 -0.0037
vn 0.9114 0.4116 0.0036
vn -0.0007 0.6317 0.7752
vn 0.0048 0.6317 -0.7752
vn -0.9114 -0.4116 0.0036
vn -0.9114 0.4116 -0.0036
vn -0.0035 -0.7423 -0.6701
vn -0.0011 -1.0000 -0.0057
vn 0.0007 1.0000 0.0007
vn -0.0007 -1.0000 0.0007
vn -0.0000 -0.9968 -0.0797
vn -0.1133 -0.9934 -0.0201
vn 0.0201 0.9934 0.1133
vn 1.0000 -0.0000 -0.0000
vn -0.0201 -0.9934 0.1133
vn 0.1133 0.9934 -0.0201
vn 0.1133 -0.9934 0.0201
vn -0.0201 0.9934 -0.1133
vn -0.0000 -0.0000 1.0000
vn 0.0201 -0.9934 -0.1133
vn -0.1133 0.9934 0.0201
vn 0.0315 -0.9995 0.0057
vn -0.0083 -0.9997 0.0222
vn -0.0315 0.9995 0.0057
vn 0.0083 0.9997 0.0222
vn -0.0057 1.0000 0.0057
vn 0.0027 -0.7428 0.6695
vn -0.0027 0.7428 0.6695
vn 0.0001 0.3883 -0.9215
vn 0.0057 -1.0000 0.0010
vn -0.0007 1.0000 -0.0007
vn 0.0007 -1.0000 -0.0007
vn -0.0000 -1.0000 -0.0000
vn 0.0201 -0.9934 0.1133
vn -0.1133 0.9934 -0.0201
vn 0.1133 -0.9934 -0.0201
vn -0.0201 0.9934 0.1133
vn -0.0201 -0.9934 -0.1133
vn 0.1133 0.9934 0.0201
vn -0.1133 -0.9934 0.0201
vn 0.0201 0.9934 -0.1133
vn 0.0286 -0.9993 0.0242
vn -0.0286 -0.9993 0.0242
vn -0.0167 -0.9998 -0.0127
vn -0.0705 -0.9975 -0.0063
vn 0.0083 -0.9997 -0.0222
vn -0.0286 0.9993 0.0242
vn 0.0286 0.9993 0.0242
vn 0.0167 0.9998 -0.0127
vn 0.0705 0.9975 -0.0063
vn -0.0083 0.9997 -0.0222
vt 0.00000 0.00000
vt 0.00000 0.44822
vt 0.00000 0.45457
vt 0.00000 0.90279
vt 0.00000 0.90914
vt 0.00000 0.92126
vt 0.05519 0.92126
vt 0.05519 0.97729
vt 0.06712 0.90914
vt 0.06712 0.97729
vt 0.07338 0.90914
vt 0.08531 0.92126
vt 0.08531 0.97729
vt 0.14050 0.92126
vt 0.14676 0.90914
vt 0.14676 0.97729
vt 0.15869 0.92126
vt 0.15869 0.97729
vt 0.21388 0.90914
vt 0.21388 0.92126
vt 0.22014 0.92126
vt 0.27532 0.92126
vt 0.27532 0.97729
vt 0.28726 0.90914
vt 0.32750 0.90914
vt 0.32750 0.96971
vt 0.34988 0.90914
vt 0.34988 0.96971
vt 0.35614 0.90914
vt 0.35614 0.96971
vt 0.37851 0.90914
vt 0.37851 0.96971
vt 0.40027 0.90914
vt 0.40139 0.96517
vt 0.40251 0.90914
vt 0.40877 0.90914
vt 0.40989 0.96517
vt 0.41101 0.90914
vt 0.41726 0.90914
vt 0.41838 0.96517
vt 0.41950 0.90914
vt 0.42576 0.90914
vt 0.42688 0.96517
vt 0.42800 0.90914
vt 0.43426 0.90914
vt 0.43538 0.96517
vt 0.43650 0.90914
vt 0.44150 0.00000
vt 0.44150 0.44822
vt 0.44150 0.45457
vt 0.44150 0.90279
vt 0.44776 0.00303
vt 0.44776 0.46063
vt 0.44776 0.86675
vt 0.44776 0.88268
vt 0.44776 0.96648
vt 0.45070 0.45125
vt 0.45199 0.00000
vt 0.45247 0.45427
vt 0.45377 0.00303
vt 0.45671 0.45125
vt 0.46296 0.00303
vt 0.46590 0.45125
vt 0.46720 0.00000
vt 0.46897 0.00303
vt 0.46927 0.45314
vt 0.47252 0.95810
vt 0.47606 0.87311
vt 0.47817 0.00000
vt 0.47817 0.44822
vt 0.48241 0.44822
vt 0.48448 0.00000
vt 0.48712 0.44822
vt 0.49338 0.00000
vt 0.49338 0.44822
vt 0.49762 0.44822
vt 0.49809 0.00000
vt 0.50082 0.94852
vt 0.50200 1.00000
vt 0.50233 0.00000
vt 0.50233 0.44822
vt 0.50859 0.00000
vt 0.50859 0.40612
vt 0.51634 0.41248
vt 0.51709 0.43898
vt 0.51783 0.41248
vt 0.52409 0.43898
vt 0.52484 0.41248
vt 0.52558 0.43898
vt 0.52558 0.94014
vt 0.53184 0.88268
vt 0.53184 0.96648
vt 0.55660 0.95810
vt 0.56014 0.87311
vt 0.58490 0.94852
vt 0.58608 1.00000
vt 0.60967 0.94014
vt 0.61592 0.87311
vt 0.61692 0.95260
vt 0.61742 0.87311
vt 0.62368 0.87311
vt 0.62467 0.95260
vt 0.62517 0.87311
vt 0.63143 0.88522
vt 0.68661 0.88522
vt 0.68661 0.94125
vt 0.69855 0.87311
vt 0.70481 0.87311
vt 0.70481 0.88522
vt 0.75999 0.88522
vt 0.75999 0.94125
vt 0.77192 0.87311
vt 0.77192 0.94125
vt 0.77819 0.87311
vt 0.77819 0.94125
vt 0.79012 0.87311
vt 0.79012 0.92913
vt 0.84530 0.92913
vt 0.84530 0.94125
vt 0.84779 0.46063
vt 0.84779 0.86675
vt 0.85405 0.86948
vt 0.85405 0.94397
vt 0.85591 0.46063
vt 0.85777 0.86948
vt 0.86403 0.46063
vt 0.86590 0.86948
vt 0.86598 0.87583
vt 0.86598 0.93186
vt 0.86776 0.46063
vt 0.87402 0.86948
vt 0.87589 0.46063
vt 0.87775 0.86948
vt 0.88401 0.46063
vt 0.88588 0.86948
vt 0.88774 0.46063
vt 0.89400 0.86948
vt 0.89587 0.46063
vt 0.89773 0.86948
vt 0.90399 0.46063
vt 0.90585 0.86948
vt 0.90772 0.46063
vt 0.90862 0.00000
vt 0.90862 0.40612
vt 0.91398 0.86948
vt 0.91488 0.40885
vt 0.91584 0.46063
vt 0.91675 0.00000
vt 0.91771 0.86948
vt 0.91861 0.40885
vt 0.92117 0.93186
vt 0.92397 0.86948
vt 0.92487 0.40885
vt 0.92583 0.46063
vt 0.92673 0.00000
vt 0.92769 0.86948
vt 0.92860 0.40885
vt 0.93395 0.86948
vt 0.93486 0.40885
vt 0.93582 0.46063
vt 0.93672 0.00000
vt 0.93768 0.86948
vt 0.93859 0.40885
vt 0.96141 0.87583
vt 0.96141 0.93821
vt 0.96253 0.93186
vt 0.96253 0.99424
vt 0.96365 0.87583
vt 0.96365 0.93821
vt 0.96991 0.87583
vt 0.97103 0.93186
vt 0.97215 0.87583
s 0
usemtl MMOFPS_composite
f 1/50/18 9/4/18 6/3/18
f 1/50/40 3/51/40 9/4/40
f 1/66/11 2/63/11 3/65/11
f 4/62/12 3/65/12 2/63/12
f 4/62/2 5/64/2 3/65/2
f 4/75/13 10/77/13 5/76/13
f 4/75/38 11/74/38 10/77/38
f 6/73/17 8/71/17 1/72/17
f 7/48/1 4/2/1 2/1/1
f 7/48/36 11/49/36 4/2/36
f 7/52/16 6/60/16 11/57/16
f 7/52/3 8/58/3 6/60/3
f 7/70/14 1/72/14 8/71/14
f 7/70/39 2/69/39 1/72/39
f 9/61/15 11/57/15 6/60/15
f 9/61/4 10/59/4 11/57/4
f 9/80/10 5/76/10 10/77/10
f 9/80/37 3/81/37 5/76/37
usemtl MMOFPS_olive
f 13/144/20 14/82/20 12/143/20
f 13/144/42 15/83/42 14/82/42
f 15/121/19 12/53/19 14/120/19
f 15/121/41 13/54/41 12/53/41
usemtl MMOFPS_night
f 17/153/6 16/155/6 18/157/6
f 18/152/5 16/154/5 17/156/5
f 19/135/7 20/134/7 21/136/7
f 21/133/21 20/131/21 19/132/21
f 23/146/6 22/148/6 24/150/6
f 24/145/5 22/147/5 23/149/5
f 25/127/7 26/126/7 27/130/7
f 27/125/21 26/122/21 25/124/21
f 29/159/6 28/161/6 30/163/6
f 30/158/5 28/160/5 29/162/5
f 31/141/7 32/140/7 33/142/7
f 33/139/21 32/137/21 31/138/21
f 72/27/33 73/26/33 71/25/33
f 72/27/56 74/28/56 73/26/56
f 74/31/35 71/30/35 73/29/35
f 74/31/61 72/32/61 71/30/61
usemtl MMOFPS_orange
f 35/46/24 40/45/24 36/47/24
f 36/117/44 37/118/44 39/115/44
f 36/33/9 40/35/9 37/34/9
f 37/118/43 38/119/43 39/115/43
f 39/107/23 37/106/23 40/105/23
f 39/115/22 35/116/22 36/117/22
f 39/115/43 34/114/43 35/116/43
f 40/105/45 35/104/45 39/107/45
f 42/166/9 47/164/9 43/168/9
f 43/110/46 44/109/46 46/112/46
f 43/36/8 47/38/8 44/37/8
f 44/109/43 45/108/43 46/112/43
f 46/112/25 42/111/25 43/110/25
f 46/112/43 41/113/43 42/111/43
f 46/123/26 44/128/26 47/129/26
f 47/129/47 42/151/47 46/123/47
f 49/171/8 54/170/8 50/172/8
f 50/39/29 54/41/29 51/40/29
f 50/7/48 51/6/48 53/9/48
f 51/6/43 52/5/43 53/9/43
f 53/11/28 51/14/28 54/12/28
f 53/9/27 49/8/27 50/7/27
f 53/9/43 48/10/43 49/8/43
f 54/12/49 49/13/49 53/11/49
f 56/167/29 61/165/29 57/169/29
f 57/17/50 58/18/50 60/15/50
f 57/42/24 61/44/24 58/43/24
f 58/18/43 59/16/43 60/15/43
f 60/15/30 56/20/30 57/17/30
f 60/15/43 55/19/43 56/20/43
f 60/24/31 58/23/31 61/22/31
f 61/22/51 56/21/51 60/24/51
f 62/85/9 69/84/9 63/86/9
f 63/67/54 64/55/54 65/68/54
f 64/94/60 69/95/60 68/96/60
f 65/102/24 70/101/24 66/103/24
f 65/68/55 66/78/55 68/79/55
f 66/78/52 67/90/52 68/79/52
f 68/79/32 63/67/32 65/68/32
f 68/79/53 62/56/53 63/67/53
f 68/96/34 70/93/34 64/94/34
f 68/96/58 67/92/58 70/93/58
f 69/100/8 64/99/8 63/98/8
f 69/95/57 62/97/57 68/96/57
f 70/87/9 67/88/9 66/89/9
f 70/93/59 65/91/59 64/94/59
