# Blender 4.0.2
# www.blender.org
mtllib vehicle_pad.mtl
o vehicle_pad
v 2.960000 0.000000 -2.960000
v 2.960000 0.040000 -3.000000
v 3.000000 0.040000 -2.960000
v 2.960000 0.080000 -3.000000
v 2.960000 0.120000 -2.960000
v 3.000000 0.080000 -2.960000
v 2.960000 0.000000 2.960000
v 3.000000 0.040000 2.960000
v 2.960000 0.040000 3.000000
v 2.960000 0.120000 2.960000
v 2.960000 0.080000 3.000000
v 3.000000 0.080000 2.960000
v -2.960000 0.000000 -2.960000
v -3.000000 0.040000 -2.960000
v -2.960000 0.040000 -3.000000
v -2.960000 0.120000 -2.960000
v -2.960000 0.080000 -3.000000
v -3.000000 0.080000 -2.960000
v -2.960000 0.000000 2.960000
v -2.960000 0.040000 3.000000
v -3.000000 0.040000 2.960000
v -2.960000 0.120000 2.960000
v -3.000000 0.080000 2.960000
v -2.960000 0.080000 3.000000
v 2.682000 0.120000 -2.682000
v 2.682000 0.138000 -2.700000
v 2.700000 0.138000 -2.682000
v 2.682000 0.142000 -2.700000
v 2.682000 0.160000 -2.682000
v 2.700000 0.142000 -2.682000
v 2.682000 0.120000 2.682000
v 2.700000 0.138000 2.682000
v 2.682000 0.138000 2.700000
v 2.682000 0.160000 2.682000
v 2.682000 0.142000 2.700000
v 2.700000 0.142000 2.682000
v -2.682000 0.120000 -2.682000
v -2.700000 0.138000 -2.682000
v -2.682000 0.138000 -2.700000
v -2.682000 0.160000 -2.682000
v -2.682000 0.142000 -2.700000
v -2.700000 0.142000 -2.682000
v -2.682000 0.120000 2.682000
v -2.682000 0.138000 2.700000
v -2.700000 0.138000 2.682000
v -2.682000 0.160000 2.682000
v -2.700000 0.142000 2.682000
v -2.682000 0.142000 2.700000
v 1.525000 0.152000 -2.700000
v 1.525000 0.164000 -2.700000
v 1.525000 0.152000 2.700000
v 1.525000 0.164000 2.700000
v 1.475000 0.152000 -2.700000
v 1.475000 0.164000 -2.700000
v 1.475000 0.152000 2.700000
v 1.475000 0.164000 2.700000
v 2.700000 0.152000 -1.525000
v 2.700000 0.164000 -1.525000
v 2.700000 0.152000 -1.475000
v 2.700000 0.164000 -1.475000
v -2.700000 0.152000 -1.525000
v -2.700000 0.164000 -1.525000
v -2.700000 0.152000 -1.475000
v -2.700000 0.164000 -1.475000
v 0.025000 0.152000 -2.700000
v 0.025000 0.164000 -2.700000
v 0.025000 0.152000 2.700000
v 0.025000 0.164000 2.700000
v -0.025000 0.152000 -2.700000
v -0.025000 0.164000 -2.700000
v -0.025000 0.152000 2.700000
v -0.025000 0.164000 2.700000
v 2.700000 0.152000 -0.025000
v 2.700000 0.164000 -0.025000
v 2.700000 0.152000 0.025000
v 2.700000 0.164000 0.025000
v -2.700000 0.152000 -0.025000
v -2.700000 0.164000 -0.025000
v -2.700000 0.152000 0.025000
v -2.700000 0.164000 0.025000
v -1.475000 0.152000 -2.700000
v -1.475000 0.164000 -2.700000
v -1.475000 0.152000 2.700000
v -1.475000 0.164000 2.700000
v -1.525000 0.152000 -2.700000
v -1.525000 0.164000 -2.700000
v -1.525000 0.152000 2.700000
v -1.525000 0.164000 2.700000
v 2.700000 0.152000 1.475000
v 2.700000 0.164000 1.475000
v 2.700000 0.152000 1.525000
v 2.700000 0.164000 1.525000
v -2.700000 0.152000 1.475000
v -2.700000 0.164000 1.475000
v -2.700000 0.152000 1.525000
v -2.700000 0.164000 1.525000
v -2.600000 0.140000 2.600000
v -2.600000 0.140000 1.700000
v -2.440000 0.140000 1.700000
v -2.440000 0.140000 2.440000
v -1.700000 0.140000 2.440000
v -1.700000 0.140000 2.600000
v -2.600000 0.170000 2.600000
v -2.600000 0.170000 1.700000
v -2.440000 0.170000 1.700000
v -2.440000 0.170000 2.440000
v -1.700000 0.170000 2.440000
v -1.700000 0.170000 2.600000
v 2.600000 0.140000 2.600000
v 1.700000 0.140000 2.600000
v 1.700000 0.140000 2.440000
v 2.440000 0.140000 2.440000
v 2.440000 0.140000 1.700000
v 2.600000 0.140000 1.700000
v 2.600000 0.170000 2.600000
v 1.700000 0.170000 2.600000
v 1.700000 0.170000 2.440000
v 2.440000 0.170000 2.440000
v 2.440000 0.170000 1.700000
v 2.600000 0.170000 1.700000
v 2.600000 0.140000 -2.600000
v 2.600000 0.140000 -1.700000
v 2.440000 0.140000 -1.700000
v 2.440000 0.140000 -2.440000
v 1.700000 0.140000 -2.440000
v 1.700000 0.140000 -2.600000
v 2.600000 0.170000 -2.600000
v 2.600000 0.170000 -1.700000
v 2.440000 0.170000 -1.700000
v 2.440000 0.170000 -2.440000
v 1.700000 0.170000 -2.440000
v 1.700000 0.170000 -2.600000
v -2.600000 0.140000 -2.600000
v -1.700000 0.140000 -2.600000
v -1.700000 0.140000 -2.440000
v -2.440000 0.140000 -2.440000
v -2.440000 0.140000 -1.700000
v -2.600000 0.140000 -1.700000
v -2.600000 0.170000 -2.600000
v -1.700000 0.170000 -2.600000
v -1.700000 0.170000 -2.440000
v -2.440000 0.170000 -2.440000
v -2.440000 0.170000 -1.700000
v -2.600000 0.170000 -1.700000
v 0.000000 0.155000 1.700000
v -0.550000 0.155000 1.050000
v -0.200000 0.155000 1.050000
v -0.200000 0.155000 0.000000
v 0.200000 0.155000 0.000000
v 0.200000 0.155000 1.050000
v 0.550000 0.155000 1.050000
v 0.000000 0.175000 1.700000
v -0.550000 0.175000 1.050000
v -0.200000 0.175000 1.050000
v -0.200000 0.175000 0.000000
v 0.200000 0.175000 0.000000
v 0.200000 0.175000 1.050000
v 0.550000 0.175000 1.050000
v 0.400000 0.155000 -2.050000
v 0.400000 0.175000 -2.050000
v 0.400000 0.155000 -1.750000
v 0.400000 0.175000 -1.750000
v -0.400000 0.155000 -2.050000
v -0.400000 0.175000 -2.050000
v -0.400000 0.155000 -1.750000
v -0.400000 0.175000 -1.750000
vn -0.0000 -0.0000 -1.0000
vn -1.0000 -0.0000 -0.0000
vn -0.0000 1.0000 -0.0000
vn 1.0000 -0.0000 -0.0000
vn -0.0000 -0.0000 1.0000
vn 0.5774 -0.5774 -0.5774
vn 0.5774 0.5774 -0.5774
vn 0.5774 -0.5774 0.5774
vn 0.5774 0.5774 0.5774
vn -0.5774 -0.5774 -0.5774
vn -0.5774 0.5774 -0.5774
vn -0.5774 -0.5774 0.5774
vn -0.5774 0.5774 0.5774
vn 0.7071 -0.7071 -0.0000
vn 0.7071 -0.0000 -0.7071
vn 0.7071 0.7071 -0.0000
vn 0.7071 -0.0000 0.7071
vn -0.0000 -0.7071 0.7071
vn -0.0000 0.7071 0.7071
vn -0.7071 -0.0000 0.7071
vn -0.7071 -0.7071 -0.0000
vn -0.7071 0.7071 -0.0000
vn -0.7071 -0.0000 -0.7071
vn -0.0000 -0.7071 -0.7071
vn -0.0000 0.7071 -0.7071
vn -0.0000 -1.0000 -0.0000
vn 0.5774 -0.5773 -0.5774
vn 0.5774 0.5773 -0.5774
vn 0.5774 -0.5773 0.5774
vn 0.5774 0.5773 0.5774
vn -0.5774 -0.5773 -0.5774
vn -0.5774 0.5773 -0.5774
vn -0.5774 -0.5773 0.5774
vn -0.5774 0.5773 0.5774
vn -0.7634 -0.0000 0.6459
vn 0.7634 -0.0000 0.6459
vt 0.00000 0.00000
vt 0.00000 0.44822
vt 0.00000 0.45457
vt 0.00000 0.90279
vt 0.00000 0.90914
vt 0.00000 0.92126
vt 0.05519 0.92126
vt 0.05519 0.97729
vt 0.06712 0.90914
vt 0.06712 0.97729
vt 0.07338 0.90914
vt 0.07338 0.97729
vt 0.08531 0.92126
vt 0.08531 0.97729
vt 0.14050 0.90914
vt 0.14050 0.92126
vt 0.14676 0.90914
vt 0.14676 0.97729
vt 0.15869 0.92126
vt 0.15869 0.97729
vt 0.21388 0.90914
vt 0.21388 0.92126
vt 0.22014 0.90914
vt 0.22014 0.92126
vt 0.27532 0.92126
vt 0.27532 0.97729
vt 0.28726 0.90914
vt 0.28726 0.97729
vt 0.29352 0.90914
vt 0.29352 0.97729
vt 0.29575 0.90914
vt 0.29575 0.97729
vt 0.30201 0.90914
vt 0.30201 0.97729
vt 0.30425 0.90914
vt 0.30425 0.97729
vt 0.31051 0.90914
vt 0.31051 0.97729
vt 0.31275 0.90914
vt 0.31275 0.97729
vt 0.31901 0.90914
vt 0.31901 0.97729
vt 0.32124 0.90914
vt 0.32124 0.97729
vt 0.32750 0.90914
vt 0.32750 0.96971
vt 0.34988 0.90914
vt 0.34988 0.96971
vt 0.35614 0.90914
vt 0.35614 0.96971
vt 0.37851 0.90914
vt 0.37851 0.96971
vt 0.38477 0.90914
vt 0.38477 0.96971
vt 0.38626 0.90914
vt 0.38626 0.96971
vt 0.39252 0.90914
vt 0.39252 0.96971
vt 0.39401 0.90914
vt 0.39401 0.96971
vt 0.40027 0.90914
vt 0.40027 0.96517
vt 0.40251 0.90914
vt 0.40251 0.96517
vt 0.40877 0.90914
vt 0.40877 0.96517
vt 0.41101 0.90914
vt 0.41101 0.96517
vt 0.41726 0.90914
vt 0.41726 0.96517
vt 0.41950 0.90914
vt 0.41950 0.96517
vt 0.42576 0.90914
vt 0.42576 0.96517
vt 0.42800 0.90914
vt 0.42800 0.96517
vt 0.43426 0.90914
vt 0.43426 0.96517
vt 0.43650 0.90914
vt 0.43650 0.96517
vt 0.44150 0.00000
vt 0.44150 0.44822
vt 0.44150 0.45457
vt 0.44150 0.90279
vt 0.44776 0.00303
vt 0.44776 0.45125
vt 0.44776 0.46063
vt 0.44776 0.86675
vt 0.44776 0.88268
vt 0.44776 0.96648
vt 0.45074 0.00000
vt 0.45074 0.00303
vt 0.45074 0.45125
vt 0.45074 0.45427
vt 0.45372 0.00000
vt 0.45372 0.00303
vt 0.45372 0.45125
vt 0.45372 0.45427
vt 0.45671 0.00303
vt 0.45671 0.45125
vt 0.46296 0.00303
vt 0.46296 0.45125
vt 0.46595 0.00000
vt 0.46595 0.00303
vt 0.46595 0.45125
vt 0.46595 0.45427
vt 0.46893 0.00000
vt 0.46893 0.00303
vt 0.46893 0.45125
vt 0.46893 0.45427
vt 0.47191 0.00303
vt 0.47191 0.45125
vt 0.47252 0.95810
vt 0.47606 0.87311
vt 0.47817 0.00000
vt 0.47817 0.44822
vt 0.48116 0.00000
vt 0.48116 0.44822
vt 0.48414 0.00000
vt 0.48414 0.44822
vt 0.48712 0.00000
vt 0.48712 0.44822
vt 0.49338 0.00000
vt 0.49338 0.44822
vt 0.49637 0.00000
vt 0.49637 0.44822
vt 0.49935 0.00000
vt 0.49935 0.44822
vt 0.50082 0.94852
vt 0.50200 1.00000
vt 0.50233 0.00000
vt 0.50233 0.44822
vt 0.50859 0.00000
vt 0.50859 0.40612
vt 0.50859 0.41248
vt 0.50859 0.44276
vt 0.50859 0.44912
vt 0.50859 0.45290
vt 0.50949 0.44912
vt 0.50949 0.45290
vt 0.51008 0.41248
vt 0.51008 0.44276
vt 0.51575 0.44912
vt 0.51575 0.45290
vt 0.51634 0.41248
vt 0.51634 0.43898
vt 0.51664 0.44912
vt 0.51664 0.45290
vt 0.51783 0.41248
vt 0.51783 0.43898
vt 0.52290 0.44912
vt 0.52290 0.45290
vt 0.52380 0.44912
vt 0.52380 0.45290
vt 0.52409 0.41248
vt 0.52409 0.43898
vt 0.52558 0.41248
vt 0.52558 0.43898
vt 0.52558 0.94014
vt 0.53184 0.41248
vt 0.53184 0.43519
vt 0.53184 0.44155
vt 0.53184 0.45366
vt 0.53184 0.88268
vt 0.53184 0.96648
vt 0.53334 0.41248
vt 0.53334 0.43519
vt 0.53408 0.44155
vt 0.53408 0.45366
vt 0.53960 0.41248
vt 0.53960 0.43519
vt 0.54034 0.44155
vt 0.54034 0.45366
vt 0.54109 0.41248
vt 0.54109 0.43519
vt 0.54258 0.44155
vt 0.54258 0.45366
vt 0.54735 0.41248
vt 0.54735 0.42459
vt 0.54735 0.43095
vt 0.54735 0.43473
vt 0.54824 0.43095
vt 0.54824 0.43473
vt 0.54884 0.44155
vt 0.54884 0.45366
vt 0.54958 0.41248
vt 0.54958 0.42459
vt 0.55107 0.44155
vt 0.55107 0.45366
vt 0.55450 0.43095
vt 0.55450 0.43473
vt 0.55540 0.43095
vt 0.55540 0.43473
vt 0.55584 0.41248
vt 0.55584 0.42459
vt 0.55660 0.95810
vt 0.55734 0.44155
vt 0.55734 0.45366
vt 0.55808 0.41248
vt 0.55808 0.42459
vt 0.55957 0.44155
vt 0.55957 0.45366
vt 0.56014 0.87311
vt 0.56166 0.43095
vt 0.56166 0.43473
vt 0.56255 0.43095
vt 0.56255 0.43473
vt 0.56434 0.41248
vt 0.56434 0.42459
vt 0.56583 0.44155
vt 0.56583 0.45366
vt 0.56658 0.41248
vt 0.56658 0.42459
vt 0.56807 0.44155
vt 0.56807 0.45366
vt 0.56881 0.43095
vt 0.56881 0.43473
vt 0.56971 0.43095
vt 0.56971 0.43473
vt 0.57284 0.41248
vt 0.57284 0.41626
vt 0.57373 0.41248
vt 0.57373 0.41626
vt 0.57433 0.44155
vt 0.57433 0.44533
vt 0.57522 0.44155
vt 0.57522 0.44533
vt 0.57596 0.43095
vt 0.57596 0.43473
vt 0.57686 0.43095
vt 0.57686 0.43473
vt 0.57999 0.41248
vt 0.57999 0.41626
vt 0.58089 0.41248
vt 0.58089 0.41626
vt 0.58148 0.44155
vt 0.58148 0.44533
vt 0.58238 0.44155
vt 0.58238 0.44533
vt 0.58490 0.94852
vt 0.58608 1.00000
vt 0.60967 0.94014
vt 0.61592 0.87311
vt 0.61592 0.95260
vt 0.61742 0.87311
vt 0.61742 0.95260
vt 0.62368 0.87311
vt 0.62368 0.95260
vt 0.62517 0.87311
vt 0.62517 0.95260
vt 0.63143 0.87311
vt 0.63143 0.88522
vt 0.68661 0.88522
vt 0.68661 0.94125
vt 0.69855 0.87311
vt 0.69855 0.94125
vt 0.70481 0.87311
vt 0.70481 0.88522
vt 0.75999 0.88522
vt 0.75999 0.94125
vt 0.77192 0.87311
vt 0.77192 0.94125
vt 0.77819 0.87311
vt 0.77819 0.94125
vt 0.79012 0.87311
vt 0.79012 0.92913
vt 0.84530 0.92913
vt 0.84530 0.94125
vt 0.84779 0.46063
vt 0.84779 0.86675
vt 0.85405 0.46063
vt 0.85405 0.86948
vt 0.85405 0.87583
vt 0.85405 0.94397
vt 0.85777 0.46063
vt 0.85777 0.86948
vt 0.86403 0.46063
vt 0.86403 0.86948
vt 0.86598 0.87583
vt 0.86598 0.93186
vt 0.86776 0.46063
vt 0.86776 0.86948
vt 0.87402 0.46063
vt 0.87402 0.86948
vt 0.87775 0.46063
vt 0.87775 0.86948
vt 0.88401 0.46063
vt 0.88401 0.86948
vt 0.88774 0.46063
vt 0.88774 0.86948
vt 0.89400 0.46063
vt 0.89400 0.86948
vt 0.89773 0.46063
vt 0.89773 0.86948
vt 0.90399 0.46063
vt 0.90399 0.86948
vt 0.90772 0.46063
vt 0.90772 0.86948
vt 0.90862 0.00000
vt 0.90862 0.40612
vt 0.91398 0.46063
vt 0.91398 0.86948
vt 0.91488 0.00000
vt 0.91488 0.40885
vt 0.91771 0.46063
vt 0.91771 0.86948
vt 0.91861 0.00000
vt 0.91861 0.40885
vt 0.92117 0.93186
vt 0.92117 0.94397
vt 0.92397 0.46063
vt 0.92397 0.86948
vt 0.92487 0.00000
vt 0.92487 0.40885
vt 0.92743 0.87583
vt 0.92743 0.94397
vt 0.92769 0.46063
vt 0.92769 0.86948
vt 0.92860 0.00000
vt 0.92860 0.40885
vt 0.92966 0.87583
vt 0.92966 0.94397
vt 0.93395 0.46063
vt 0.93395 0.86948
vt 0.93486 0.00000
vt 0.93486 0.40885
vt 0.93592 0.87583
vt 0.93592 0.94397
vt 0.93768 0.46063
vt 0.93768 0.86948
vt 0.93816 0.87583
vt 0.93816 0.94397
vt 0.93859 0.00000
vt 0.93859 0.40885
vt 0.94394 0.46199
vt 0.94394 0.86811
vt 0.94442 0.87583
vt 0.94442 0.94397
vt 0.94485 0.00136
vt 0.94485 0.40748
vt 0.94529 0.46063
vt 0.94529 0.46199
vt 0.94529 0.86811
vt 0.94529 0.86948
vt 0.94558 0.46063
vt 0.94558 0.46199
vt 0.94558 0.86811
vt 0.94558 0.86948
vt 0.94619 0.00000
vt 0.94619 0.00136
vt 0.94619 0.40748
vt 0.94619 0.40885
vt 0.94649 0.00000
vt 0.94649 0.00136
vt 0.94649 0.40748
vt 0.94649 0.40885
vt 0.94666 0.87583
vt 0.94666 0.94397
vt 0.94693 0.46199
vt 0.94693 0.86811
vt 0.94783 0.00136
vt 0.94783 0.40748
vt 0.95292 0.87583
vt 0.95292 0.94397
vt 0.95318 0.46063
vt 0.95318 0.86948
vt 0.95408 0.46063
vt 0.95408 0.86948
vt 0.95409 0.00000
vt 0.95409 0.40885
vt 0.95498 0.00000
vt 0.95498 0.40885
vt 0.95515 0.87583
vt 0.95515 0.94397
vt 0.96034 0.46063
vt 0.96034 0.86948
vt 0.96123 0.46063
vt 0.96123 0.86948
vt 0.96124 0.00000
vt 0.96124 0.40885
vt 0.96141 0.87583
vt 0.96141 0.93186
vt 0.96141 0.93821
vt 0.96141 0.99424
vt 0.96214 0.00000
vt 0.96214 0.40885
vt 0.96365 0.87583
vt 0.96365 0.93186
vt 0.96365 0.93821
vt 0.96365 0.99424
vt 0.96749 0.46063
vt 0.96749 0.86948
vt 0.96839 0.46063
vt 0.96839 0.86948
vt 0.96840 0.00000
vt 0.96840 0.40885
vt 0.96929 0.00000
vt 0.96929 0.40885
vt 0.96991 0.87583
vt 0.96991 0.93186
vt 0.96991 0.93821
vt 0.96991 0.98743
vt 0.97140 0.93821
vt 0.97140 0.98743
vt 0.97215 0.87583
vt 0.97215 0.93186
vt 0.97465 0.46063
vt 0.97465 0.86948
vt 0.97554 0.46063
vt 0.97554 0.86948
vt 0.97555 0.00000
vt 0.97555 0.40885
vt 0.97645 0.00000
vt 0.97645 0.40885
vt 0.97766 0.93821
vt 0.97766 0.98743
vt 0.97915 0.93821
vt 0.97915 0.98743
vt 0.98180 0.46063
vt 0.98180 0.86948
vt 0.98270 0.46063
vt 0.98270 0.86948
vt 0.98271 0.00000
vt 0.98271 0.40885
vt 0.98360 0.00000
vt 0.98360 0.40885
vt 0.98896 0.46063
vt 0.98896 0.86948
vt 0.98985 0.46063
vt 0.98985 0.86948
vt 0.98986 0.00000
vt 0.98986 0.40885
vt 0.99076 0.00000
vt 0.99076 0.40885
vt 0.99611 0.46063
vt 0.99611 0.86675
vt 0.99702 0.00000
vt 0.99702 0.40612
vt 0.99745 0.46063
vt 0.99745 0.86675
vt 0.99775 0.46063
vt 0.99775 0.86675
vt 0.99836 0.00000
vt 0.99836 0.40612
vt 0.99866 0.00000
vt 0.99866 0.40612
vt 0.99909 0.46063
vt 0.99909 0.86675
vt 1.00000 0.00000
vt 1.00000 0.40612
s 0
usemtl MMOFPS_composite
f 1/112/14 3/109/14 8/108/14
f 1/112/14 8/108/14 7/111/14
f 1/112/6 2/110/6 3/109/6
f 10/101/16 12/104/16 6/105/16
f 10/101/16 6/105/16 5/102/16
f 10/101/9 11/103/9 12/104/9
f 10/2/3 16/81/3 22/82/3
f 10/2/3 5/1/3 16/81/3
f 11/126/5 20/127/5 9/128/5
f 11/126/5 24/125/5 20/127/5
f 13/122/24 15/120/24 2/119/24
f 13/122/24 2/119/24 1/121/24
f 13/99/10 14/96/10 15/95/10
f 15/95/23 14/96/23 18/92/23
f 15/95/23 18/92/23 17/91/23
f 16/85/11 17/91/11 18/92/11
f 16/85/22 18/92/22 23/93/22
f 16/85/22 23/93/22 22/86/22
f 17/118/1 2/119/1 15/120/1
f 17/118/1 4/117/1 2/119/1
f 19/100/12 20/98/12 21/97/12
f 19/100/21 14/96/21 13/99/21
f 19/100/21 21/97/21 14/96/21
f 19/4/26 1/83/26 7/84/26
f 19/4/26 13/3/26 1/83/26
f 21/97/20 20/98/20 24/94/20
f 21/97/20 24/94/20 23/93/20
f 22/123/19 11/126/19 10/124/19
f 22/123/19 24/125/19 11/126/19
f 22/86/13 23/93/13 24/94/13
f 23/93/2 14/96/2 21/97/2
f 23/93/2 18/92/2 14/96/2
f 4/106/15 3/109/15 2/110/15
f 4/106/15 6/105/15 3/109/15
f 4/106/7 5/102/7 6/105/7
f 5/115/25 17/118/25 16/116/25
f 5/115/25 4/117/25 17/118/25
f 6/105/4 12/104/4 8/108/4
f 6/105/4 8/108/4 3/109/4
f 7/111/8 8/108/8 9/107/8
f 7/132/18 20/127/18 19/131/18
f 7/132/18 9/128/18 20/127/18
f 9/107/17 12/104/17 11/103/17
f 9/107/17 8/108/17 12/104/17
usemtl MMOFPS_olive
f 25/362/14 27/355/14 32/354/14
f 25/362/14 32/354/14 31/361/14
f 25/362/27 26/356/27 27/355/27
f 28/352/15 27/355/15 26/356/15
f 28/352/15 30/351/15 27/355/15
f 28/352/28 29/340/28 30/351/28
f 29/435/25 28/439/25 41/440/25
f 29/435/25 41/440/25 40/436/25
f 30/351/4 32/354/4 27/355/4
f 30/351/4 36/350/4 32/354/4
f 31/361/29 32/354/29 33/353/29
f 31/450/18 33/446/18 44/445/18
f 31/450/18 44/445/18 43/449/18
f 33/353/17 32/354/17 36/350/17
f 33/353/17 36/350/17 35/349/17
f 34/339/16 30/351/16 29/340/16
f 34/339/16 36/350/16 30/351/16
f 34/339/30 35/349/30 36/350/30
f 34/88/3 29/87/3 40/269/3
f 34/88/3 40/269/3 46/270/3
f 35/444/5 44/445/5 33/446/5
f 35/444/5 48/443/5 44/445/5
f 37/359/31 38/346/31 39/345/31
f 37/448/24 26/441/24 25/447/24
f 37/448/24 39/442/24 26/441/24
f 39/345/23 38/346/23 42/342/23
f 39/345/23 42/342/23 41/341/23
f 40/335/22 42/342/22 47/343/22
f 40/335/22 47/343/22 46/336/22
f 40/335/32 41/341/32 42/342/32
f 41/440/1 26/441/1 39/442/1
f 41/440/1 28/439/1 26/441/1
f 43/134/26 25/299/26 31/300/26
f 43/134/26 37/133/26 25/299/26
f 43/360/21 38/346/21 37/359/21
f 43/360/21 45/347/21 38/346/21
f 43/360/33 44/348/33 45/347/33
f 45/347/20 44/348/20 48/344/20
f 45/347/20 48/344/20 47/343/20
f 46/336/34 47/343/34 48/344/34
f 46/437/19 35/444/19 34/438/19
f 46/437/19 48/443/19 35/444/19
f 47/343/2 38/346/2 45/347/2
f 47/343/2 42/342/2 38/346/2
usemtl MMOFPS_night
f 160/161/4 161/166/4 159/167/4
f 160/161/4 162/160/4 161/166/4
f 162/52/3 160/50/3 164/49/3
f 162/52/3 164/49/3 166/51/3
f 162/54/5 165/55/5 161/56/5
f 162/54/5 166/53/5 165/55/5
f 164/58/1 159/59/1 163/60/1
f 164/58/1 160/57/1 159/59/1
f 165/48/26 159/45/26 161/47/26
f 165/48/26 163/46/26 159/45/26
f 166/171/2 163/174/2 165/175/2
f 166/171/2 164/170/2 163/174/2
f 50/366/4 51/367/4 49/368/4
f 50/366/4 52/365/4 51/367/4
f 52/191/5 55/192/5 51/193/5
f 52/191/5 56/190/5 55/192/5
f 52/314/3 50/313/3 54/319/3
f 52/314/3 54/319/3 56/320/3
f 54/205/1 49/206/1 53/207/1
f 54/205/1 50/204/1 49/206/1
f 55/312/26 49/317/26 51/318/26
f 55/312/26 53/311/26 49/317/26
f 56/370/2 53/371/2 55/372/2
f 56/370/2 54/369/2 53/371/2
f 58/217/4 59/218/4 57/219/4
f 58/217/4 60/216/4 59/218/4
f 60/290/3 58/288/3 62/287/3
f 60/290/3 62/287/3 64/289/3
f 60/376/5 63/377/5 59/378/5
f 60/376/5 64/375/5 63/377/5
f 62/380/1 57/385/1 61/386/1
f 62/380/1 58/379/1 57/385/1
f 63/286/26 57/283/26 59/285/26
f 63/286/26 61/284/26 57/283/26
f 64/221/2 61/222/2 63/223/2
f 64/221/2 62/220/2 61/222/2
f 66/392/4 67/393/4 65/394/4
f 66/392/4 68/391/4 67/393/4
f 68/138/5 71/139/5 67/140/5
f 68/138/5 72/137/5 71/139/5
f 68/304/3 66/303/3 70/307/3
f 68/304/3 70/307/3 72/308/3
f 70/144/1 65/147/1 69/148/1
f 70/144/1 66/143/1 65/147/1
f 71/302/26 65/305/26 67/306/26
f 71/302/26 69/301/26 65/305/26
f 72/396/2 69/397/2 71/398/2
f 72/396/2 70/395/2 69/397/2
f 74/152/4 75/153/4 73/154/4
f 74/152/4 76/151/4 75/153/4
f 76/282/3 74/278/3 78/277/3
f 76/282/3 78/277/3 80/281/3
f 76/408/5 79/409/5 75/410/5
f 76/408/5 80/407/5 79/409/5
f 78/412/1 73/413/1 77/414/1
f 78/412/1 74/411/1 73/413/1
f 79/276/26 73/271/26 75/275/26
f 79/276/26 77/272/26 73/271/26
f 80/181/2 77/182/2 79/183/2
f 80/181/2 78/180/2 77/182/2
f 82/420/4 83/421/4 81/422/4
f 82/420/4 84/419/4 83/421/4
f 84/225/5 87/226/5 83/227/5
f 84/225/5 88/224/5 87/226/5
f 84/326/3 82/325/3 86/333/3
f 84/326/3 86/333/3 88/334/3
f 86/229/1 81/230/1 85/231/1
f 86/229/1 82/228/1 81/230/1
f 87/324/26 81/329/26 83/330/26
f 87/324/26 85/323/26 81/329/26
f 88/424/2 85/425/2 87/426/2
f 88/424/2 86/423/2 85/425/2
f 90/233/4 91/234/4 89/235/4
f 90/233/4 92/232/4 91/234/4
f 92/298/3 90/296/3 94/295/3
f 92/298/3 94/295/3 96/297/3
f 92/428/5 95/429/5 91/430/5
f 92/428/5 96/427/5 95/429/5
f 94/432/1 89/433/1 93/434/1
f 94/432/1 90/431/1 89/433/1
f 95/294/26 89/291/26 91/293/26
f 95/294/26 93/292/26 89/291/26
f 96/237/2 93/238/2 95/239/2
f 96/237/2 94/236/2 93/238/2
usemtl MMOFPS_orange
f 100/266/26 101/267/26 102/268/26
f 100/61/1 106/63/1 107/64/1
f 100/61/1 107/64/1 101/62/1
f 103/255/3 107/254/3 106/253/3
f 103/255/3 108/256/3 107/254/3
f 103/30/2 104/29/2 98/31/2
f 103/30/2 98/31/2 97/32/2
f 104/185/1 105/184/1 99/188/1
f 104/185/1 99/188/1 98/189/1
f 105/78/4 100/79/4 99/80/4
f 105/78/4 106/77/4 100/79/4
f 106/253/3 104/251/3 103/255/3
f 106/253/3 105/252/3 104/251/3
f 107/198/4 102/201/4 101/202/4
f 107/198/4 108/197/4 102/201/4
f 108/316/5 103/315/5 97/321/5
f 108/316/5 97/321/5 102/322/5
f 109/261/26 110/262/26 111/260/26
f 109/261/26 111/260/26 112/259/26
f 109/261/26 112/259/26 114/257/26
f 112/259/26 113/258/26 114/257/26
f 112/65/2 118/67/2 119/68/2
f 112/65/2 119/68/2 113/66/2
f 115/274/3 119/279/3 118/280/3
f 115/274/3 120/273/3 119/279/3
f 115/34/5 110/35/5 109/36/5
f 115/34/5 116/33/5 110/35/5
f 116/195/2 111/199/2 110/200/2
f 116/195/2 117/194/2 111/199/2
f 117/382/1 112/387/1 111/388/1
f 117/382/1 118/381/1 112/387/1
f 118/280/3 116/310/3 115/274/3
f 118/280/3 117/309/3 116/310/3
f 119/163/1 114/168/1 113/169/1
f 119/163/1 120/162/1 114/168/1
f 120/328/4 109/331/4 114/332/4
f 120/328/4 115/327/4 109/331/4
f 121/9/26 122/10/26 123/8/26
f 121/9/26 123/8/26 124/7/26
f 121/9/26 124/7/26 126/5/26
f 124/69/5 130/71/5 131/72/5
f 124/69/5 131/72/5 125/70/5
f 124/7/26 125/6/26 126/5/26
f 127/11/3 131/16/3 130/13/3
f 127/11/3 132/15/3 131/16/3
f 127/38/4 122/39/4 121/40/4
f 127/38/4 128/37/4 122/39/4
f 128/209/5 123/212/5 122/213/5
f 128/209/5 129/208/5 123/212/5
f 129/400/2 124/405/2 123/406/2
f 129/400/2 130/399/2 124/405/2
f 130/13/3 128/12/3 127/11/3
f 130/13/3 129/14/3 128/12/3
f 131/173/2 126/176/2 125/177/2
f 131/173/2 132/172/2 126/176/2
f 132/338/1 121/357/1 126/358/1
f 132/338/1 127/337/1 121/357/1
f 133/17/26 134/21/26 135/22/26
f 133/17/26 135/22/26 136/19/26
f 133/17/26 136/19/26 138/18/26
f 136/19/26 137/20/26 138/18/26
f 136/73/4 142/75/4 143/76/4
f 136/73/4 143/76/4 137/74/4
f 139/27/3 143/26/3 142/25/3
f 139/27/3 144/28/3 143/26/3
f 139/42/1 134/43/1 133/44/1
f 139/42/1 140/41/1 134/43/1
f 140/211/4 135/214/4 134/215/4
f 140/211/4 141/210/4 135/214/4
f 141/384/5 136/389/5 135/390/5
f 141/384/5 142/383/5 136/389/5
f 142/25/3 140/23/3 139/27/3
f 142/25/3 141/24/3 140/23/3
f 143/179/5 138/186/5 137/187/5
f 143/179/5 144/178/5 138/186/5
f 144/364/2 133/373/2 138/374/2
f 144/364/2 139/363/2 133/373/2
f 145/130/26 146/90/26 147/113/26
f 145/130/26 147/113/26 150/129/26
f 147/113/26 148/89/26 149/114/26
f 147/113/26 149/114/26 150/129/26
f 150/129/26 151/159/26 145/130/26
f 152/241/3 158/165/3 157/196/3
f 152/403/35 146/402/35 145/401/35
f 152/403/35 153/404/35 146/402/35
f 153/146/1 147/149/1 146/150/1
f 153/146/1 154/145/1 147/149/1
f 154/240/3 153/242/3 152/241/3
f 154/245/2 148/244/2 147/243/2
f 154/245/2 155/246/2 148/244/2
f 155/136/1 149/141/1 148/142/1
f 155/136/1 156/135/1 149/141/1
f 156/248/4 150/249/4 149/250/4
f 156/248/4 157/247/4 150/249/4
f 157/156/1 151/157/1 150/158/1
f 157/156/1 158/155/1 151/157/1
f 157/196/3 154/240/3 152/241/3
f 157/196/3 155/203/3 154/240/3
f 157/196/3 156/164/3 155/203/3
f 158/416/36 145/417/36 151/418/36
f 158/416/36 152/415/36 145/417/36
f 97/264/26 100/266/26 102/268/26
f 97/264/26 98/263/26 99/265/26
f 97/264/26 99/265/26 100/266/26
