# TERRAFRONT procedural asset — generated by Tools/assetgen (deterministic)
# Y-up, +Z forward (muzzle), units = meters, pivot at grip/origin.
# dep_ammopack — TERRAFRONT P3
mtllib tf_utility.mtl
o dep_ammopack
v -0.2700 0.0600 -0.2300
v -0.2700 0.4000 -0.2300
v 0.2700 0.4000 -0.2300
v 0.2700 0.0600 -0.2300
v 0.2700 0.0600 0.2300
v 0.2700 0.4000 0.2300
v -0.2700 0.4000 0.2300
v -0.2700 0.0600 0.2300
v -0.2700 0.4400 -0.1900
v -0.2700 0.4400 0.1900
v 0.2700 0.4400 0.1900
v 0.2700 0.4400 -0.1900
v -0.2700 0.0200 -0.1900
v 0.2700 0.0200 -0.1900
v 0.2700 0.0200 0.1900
v -0.2700 0.0200 0.1900
v 0.3100 0.0600 -0.1900
v 0.3100 0.4000 -0.1900
v 0.3100 0.4000 0.1900
v 0.3100 0.0600 0.1900
v -0.3100 0.0600 0.1900
v -0.3100 0.4000 0.1900
v -0.3100 0.4000 -0.1900
v -0.3100 0.0600 -0.1900
v -0.2700 0.4400 -0.1900
v 0.2700 0.4400 -0.1900
v 0.2700 0.4000 -0.2300
v -0.2700 0.4000 -0.2300
v 0.2700 0.4400 0.1900
v -0.2700 0.4400 0.1900
v -0.2700 0.4000 0.2300
v 0.2700 0.4000 0.2300
v 0.2700 0.0200 -0.1900
v -0.2700 0.0200 -0.1900
v -0.2700 0.0600 -0.2300
v 0.2700 0.0600 -0.2300
v -0.2700 0.0200 0.1900
v 0.2700 0.0200 0.1900
v 0.2700 0.0600 0.2300
v -0.2700 0.0600 0.2300
v 0.3100 0.4000 -0.1900
v 0.3100 0.4000 0.1900
v 0.2700 0.4400 0.1900
v 0.2700 0.4400 -0.1900
v 0.3100 0.0600 0.1900
v 0.3100 0.0600 -0.1900
v 0.2700 0.0200 -0.1900
v 0.2700 0.0200 0.1900
v -0.3100 0.4000 0.1900
v -0.3100 0.4000 -0.1900
v -0.2700 0.4400 -0.1900
v -0.2700 0.4400 0.1900
v -0.3100 0.0600 -0.1900
v -0.3100 0.0600 0.1900
v -0.2700 0.0200 0.1900
v -0.2700 0.0200 -0.1900
v 0.3100 0.4000 -0.1900
v 0.2700 0.4000 -0.2300
v 0.2700 0.0600 -0.2300
v 0.3100 0.0600 -0.1900
v 0.3100 0.0600 0.1900
v 0.2700 0.0600 0.2300
v 0.2700 0.4000 0.2300
v 0.3100 0.4000 0.1900
v -0.3100 0.0600 -0.1900
v -0.2700 0.0600 -0.2300
v -0.2700 0.4000 -0.2300
v -0.3100 0.4000 -0.1900
v -0.3100 0.4000 0.1900
v -0.2700 0.4000 0.2300
v -0.2700 0.0600 0.2300
v -0.3100 0.0600 0.1900
v 0.2700 0.4400 0.1900
v 0.3100 0.4000 0.1900
v 0.2700 0.4000 0.2300
v -0.2700 0.4000 0.2300
v -0.3100 0.4000 0.1900
v -0.2700 0.4400 0.1900
v 0.2700 0.0600 0.2300
v 0.3100 0.0600 0.1900
v 0.2700 0.0200 0.1900
v -0.2700 0.0200 0.1900
v -0.3100 0.0600 0.1900
v -0.2700 0.0600 0.2300
v 0.2700 0.4000 -0.2300
v 0.3100 0.4000 -0.1900
v 0.2700 0.4400 -0.1900
v -0.2700 0.4400 -0.1900
v -0.3100 0.4000 -0.1900
v -0.2700 0.4000 -0.2300
v 0.2700 0.0200 -0.1900
v 0.3100 0.0600 -0.1900
v 0.2700 0.0600 -0.2300
v -0.2700 0.0600 -0.2300
v -0.3100 0.0600 -0.1900
v -0.2700 0.0200 -0.1900
v -0.3000 0.2800 0.0800
v -0.3000 0.2800 -0.0800
v 0.3000 0.2800 -0.0800
v 0.3000 0.2800 0.0800
v -0.2500 0.7200 0.0500
v 0.2500 0.7200 0.0500
v 0.2500 0.7200 -0.0500
v -0.2500 0.7200 -0.0500
v -0.3000 0.2800 -0.0800
v -0.2500 0.7200 -0.0500
v 0.2500 0.7200 -0.0500
v 0.3000 0.2800 -0.0800
v -0.3000 0.2800 0.0800
v 0.3000 0.2800 0.0800
v 0.2500 0.7200 0.0500
v -0.2500 0.7200 0.0500
v 0.3000 0.2800 0.0800
v 0.3000 0.2800 -0.0800
v 0.2500 0.7200 -0.0500
v 0.2500 0.7200 0.0500
v -0.3000 0.2800 0.0800
v -0.2500 0.7200 0.0500
v -0.2500 0.7200 -0.0500
v -0.3000 0.2800 -0.0800
v -0.2250 0.4450 -0.1700
v -0.2250 0.5150 -0.1700
v -0.1350 0.5150 -0.1700
v -0.1350 0.4450 -0.1700
v -0.1350 0.4450 0.1700
v -0.1350 0.5150 0.1700
v -0.2250 0.5150 0.1700
v -0.2250 0.4450 0.1700
v -0.2250 0.5300 -0.1550
v -0.2250 0.5300 0.1550
v -0.1350 0.5300 0.1550
v -0.1350 0.5300 -0.1550
v -0.2250 0.4300 -0.1550
v -0.1350 0.4300 -0.1550
v -0.1350 0.4300 0.1550
v -0.2250 0.4300 0.1550
v -0.1200 0.4450 -0.1550
v -0.1200 0.5150 -0.1550
v -0.1200 0.5150 0.1550
v -0.1200 0.4450 0.1550
v -0.2400 0.4450 0.1550
v -0.2400 0.5150 0.1550
v -0.2400 0.5150 -0.1550
v -0.2400 0.4450 -0.1550
v -0.2250 0.5300 -0.1550
v -0.1350 0.5300 -0.1550
v -0.1350 0.5150 -0.1700
v -0.2250 0.5150 -0.1700
v -0.1350 0.5300 0.1550
v -0.2250 0.5300 0.1550
v -0.2250 0.5150 0.1700
v -0.1350 0.5150 0.1700
v -0.1350 0.4300 -0.1550
v -0.2250 0.4300 -0.1550
v -0.2250 0.4450 -0.1700
v -0.1350 0.4450 -0.1700
v -0.2250 0.4300 0.1550
v -0.1350 0.4300 0.1550
v -0.1350 0.4450 0.1700
v -0.2250 0.4450 0.1700
v -0.1200 0.5150 -0.1550
v -0.1200 0.5150 0.1550
v -0.1350 0.5300 0.1550
v -0.1350 0.5300 -0.1550
v -0.1200 0.4450 0.1550
v -0.1200 0.4450 -0.1550
v -0.1350 0.4300 -0.1550
v -0.1350 0.4300 0.1550
v -0.2400 0.5150 0.1550
v -0.2400 0.5150 -0.1550
v -0.2250 0.5300 -0.1550
v -0.2250 0.5300 0.1550
v -0.2400 0.4450 -0.1550
v -0.2400 0.4450 0.1550
v -0.2250 0.4300 0.1550
v -0.2250 0.4300 -0.1550
v -0.1200 0.5150 -0.1550
v -0.1350 0.5150 -0.1700
v -0.1350 0.4450 -0.1700
v -0.1200 0.4450 -0.1550
v -0.1200 0.4450 0.1550
v -0.1350 0.4450 0.1700
v -0.1350 0.5150 0.1700
v -0.1200 0.5150 0.1550
v -0.2400 0.4450 -0.1550
v -0.2250 0.4450 -0.1700
v -0.2250 0.5150 -0.1700
v -0.2400 0.5150 -0.1550
v -0.2400 0.5150 0.1550
v -0.2250 0.5150 0.1700
v -0.2250 0.4450 0.1700
v -0.2400 0.4450 0.1550
v -0.1350 0.5300 0.1550
v -0.1200 0.5150 0.1550
v -0.1350 0.5150 0.1700
v -0.2250 0.5150 0.1700
v -0.2400 0.5150 0.1550
v -0.2250 0.5300 0.1550
v -0.1350 0.4450 0.1700
v -0.1200 0.4450 0.1550
v -0.1350 0.4300 0.1550
v -0.2250 0.4300 0.1550
v -0.2400 0.4450 0.1550
v -0.2250 0.4450 0.1700
v -0.1350 0.5150 -0.1700
v -0.1200 0.5150 -0.1550
v -0.1350 0.5300 -0.1550
v -0.2250 0.5300 -0.1550
v -0.2400 0.5150 -0.1550
v -0.2250 0.5150 -0.1700
v -0.1350 0.4300 -0.1550
v -0.1200 0.4450 -0.1550
v -0.1350 0.4450 -0.1700
v -0.2250 0.4450 -0.1700
v -0.2400 0.4450 -0.1550
v -0.2250 0.4300 -0.1550
v -0.0450 0.4450 -0.1700
v -0.0450 0.5150 -0.1700
v 0.0450 0.5150 -0.1700
v 0.0450 0.4450 -0.1700
v 0.0450 0.4450 0.1700
v 0.0450 0.5150 0.1700
v -0.0450 0.5150 0.1700
v -0.0450 0.4450 0.1700
v -0.0450 0.5300 -0.1550
v -0.0450 0.5300 0.1550
v 0.0450 0.5300 0.1550
v 0.0450 0.5300 -0.1550
v -0.0450 0.4300 -0.1550
v 0.0450 0.4300 -0.1550
v 0.0450 0.4300 0.1550
v -0.0450 0.4300 0.1550
v 0.0600 0.4450 -0.1550
v 0.0600 0.5150 -0.1550
v 0.0600 0.5150 0.1550
v 0.0600 0.4450 0.1550
v -0.0600 0.4450 0.1550
v -0.0600 0.5150 0.1550
v -0.0600 0.5150 -0.1550
v -0.0600 0.4450 -0.1550
v -0.0450 0.5300 -0.1550
v 0.0450 0.5300 -0.1550
v 0.0450 0.5150 -0.1700
v -0.0450 0.5150 -0.1700
v 0.0450 0.5300 0.1550
v -0.0450 0.5300 0.1550
v -0.0450 0.5150 0.1700
v 0.0450 0.5150 0.1700
v 0.0450 0.4300 -0.1550
v -0.0450 0.4300 -0.1550
v -0.0450 0.4450 -0.1700
v 0.0450 0.4450 -0.1700
v -0.0450 0.4300 0.1550
v 0.0450 0.4300 0.1550
v 0.0450 0.4450 0.1700
v -0.0450 0.4450 0.1700
v 0.0600 0.5150 -0.1550
v 0.0600 0.5150 0.1550
v 0.0450 0.5300 0.1550
v 0.0450 0.5300 -0.1550
v 0.0600 0.4450 0.1550
v 0.0600 0.4450 -0.1550
v 0.0450 0.4300 -0.1550
v 0.0450 0.4300 0.1550
v -0.0600 0.5150 0.1550
v -0.0600 0.5150 -0.1550
v -0.0450 0.5300 -0.1550
v -0.0450 0.5300 0.1550
v -0.0600 0.4450 -0.1550
v -0.0600 0.4450 0.1550
v -0.0450 0.4300 0.1550
v -0.0450 0.4300 -0.1550
v 0.0600 0.5150 -0.1550
v 0.0450 0.5150 -0.1700
v 0.0450 0.4450 -0.1700
v 0.0600 0.4450 -0.1550
v 0.0600 0.4450 0.1550
v 0.0450 0.4450 0.1700
v 0.0450 0.5150 0.1700
v 0.0600 0.5150 0.1550
v -0.0600 0.4450 -0.1550
v -0.0450 0.4450 -0.1700
v -0.0450 0.5150 -0.1700
v -0.0600 0.5150 -0.1550
v -0.0600 0.5150 0.1550
v -0.0450 0.5150 0.1700
v -0.0450 0.4450 0.1700
v -0.0600 0.4450 0.1550
v 0.0450 0.5300 0.1550
v 0.0600 0.5150 0.1550
v 0.0450 0.5150 0.1700
v -0.0450 0.5150 0.1700
v -0.0600 0.5150 0.1550
v -0.0450 0.5300 0.1550
v 0.0450 0.4450 0.1700
v 0.0600 0.4450 0.1550
v 0.0450 0.4300 0.1550
v -0.0450 0.4300 0.1550
v -0.0600 0.4450 0.1550
v -0.0450 0.4450 0.1700
v 0.0450 0.5150 -0.1700
v 0.0600 0.5150 -0.1550
v 0.0450 0.5300 -0.1550
v -0.0450 0.5300 -0.1550
v -0.0600 0.5150 -0.1550
v -0.0450 0.5150 -0.1700
v 0.0450 0.4300 -0.1550
v 0.0600 0.4450 -0.1550
v 0.0450 0.4450 -0.1700
v -0.0450 0.4450 -0.1700
v -0.0600 0.4450 -0.1550
v -0.0450 0.4300 -0.1550
v 0.1350 0.4450 -0.1700
v 0.1350 0.5150 -0.1700
v 0.2250 0.5150 -0.1700
v 0.2250 0.4450 -0.1700
v 0.2250 0.4450 0.1700
v 0.2250 0.5150 0.1700
v 0.1350 0.5150 0.1700
v 0.1350 0.4450 0.1700
v 0.1350 0.5300 -0.1550
v 0.1350 0.5300 0.1550
v 0.2250 0.5300 0.1550
v 0.2250 0.5300 -0.1550
v 0.1350 0.4300 -0.1550
v 0.2250 0.4300 -0.1550
v 0.2250 0.4300 0.1550
v 0.1350 0.4300 0.1550
v 0.2400 0.4450 -0.1550
v 0.2400 0.5150 -0.1550
v 0.2400 0.5150 0.1550
v 0.2400 0.4450 0.1550
v 0.1200 0.4450 0.1550
v 0.1200 0.5150 0.1550
v 0.1200 0.5150 -0.1550
v 0.1200 0.4450 -0.1550
v 0.1350 0.5300 -0.1550
v 0.2250 0.5300 -0.1550
v 0.2250 0.5150 -0.1700
v 0.1350 0.5150 -0.1700
v 0.2250 0.5300 0.1550
v 0.1350 0.5300 0.1550
v 0.1350 0.5150 0.1700
v 0.2250 0.5150 0.1700
v 0.2250 0.4300 -0.1550
v 0.1350 0.4300 -0.1550
v 0.1350 0.4450 -0.1700
v 0.2250 0.4450 -0.1700
v 0.1350 0.4300 0.1550
v 0.2250 0.4300 0.1550
v 0.2250 0.4450 0.1700
v 0.1350 0.4450 0.1700
v 0.2400 0.5150 -0.1550
v 0.2400 0.5150 0.1550
v 0.2250 0.5300 0.1550
v 0.2250 0.5300 -0.1550
v 0.2400 0.4450 0.1550
v 0.2400 0.4450 -0.1550
v 0.2250 0.4300 -0.1550
v 0.2250 0.4300 0.1550
v 0.1200 0.5150 0.1550
v 0.1200 0.5150 -0.1550
v 0.1350 0.5300 -0.1550
v 0.1350 0.5300 0.1550
v 0.1200 0.4450 -0.1550
v 0.1200 0.4450 0.1550
v 0.1350 0.4300 0.1550
v 0.1350 0.4300 -0.1550
v 0.2400 0.5150 -0.1550
v 0.2250 0.5150 -0.1700
v 0.2250 0.4450 -0.1700
v 0.2400 0.4450 -0.1550
v 0.2400 0.4450 0.1550
v 0.2250 0.4450 0.1700
v 0.2250 0.5150 0.1700
v 0.2400 0.5150 0.1550
v 0.1200 0.4450 -0.1550
v 0.1350 0.4450 -0.1700
v 0.1350 0.5150 -0.1700
v 0.1200 0.5150 -0.1550
v 0.1200 0.5150 0.1550
v 0.1350 0.5150 0.1700
v 0.1350 0.4450 0.1700
v 0.1200 0.4450 0.1550
v 0.2250 0.5300 0.1550
v 0.2400 0.5150 0.1550
v 0.2250 0.5150 0.1700
v 0.1350 0.5150 0.1700
v 0.1200 0.5150 0.1550
v 0.1350 0.5300 0.1550
v 0.2250 0.4450 0.1700
v 0.2400 0.4450 0.1550
v 0.2250 0.4300 0.1550
v 0.1350 0.4300 0.1550
v 0.1200 0.4450 0.1550
v 0.1350 0.4450 0.1700
v 0.2250 0.5150 -0.1700
v 0.2400 0.5150 -0.1550
v 0.2250 0.5300 -0.1550
v 0.1350 0.5300 -0.1550
v 0.1200 0.5150 -0.1550
v 0.1350 0.5150 -0.1700
v 0.2250 0.4300 -0.1550
v 0.2400 0.4450 -0.1550
v 0.2250 0.4450 -0.1700
v 0.1350 0.4450 -0.1700
v 0.1200 0.4450 -0.1550
v 0.1350 0.4300 -0.1550
v -0.3200 0.4025 -0.2400
v -0.3200 0.4375 -0.2400
v 0.3200 0.4375 -0.2400
v 0.3200 0.4025 -0.2400
v 0.3200 0.4025 0.2400
v 0.3200 0.4375 0.2400
v -0.3200 0.4375 0.2400
v -0.3200 0.4025 0.2400
v -0.3200 0.4375 -0.2400
v -0.3200 0.4375 0.2400
v 0.3200 0.4375 0.2400
v 0.3200 0.4375 -0.2400
v -0.3200 0.4025 -0.2400
v 0.3200 0.4025 -0.2400
v 0.3200 0.4025 0.2400
v -0.3200 0.4025 0.2400
v 0.3200 0.4025 -0.2400
v 0.3200 0.4375 -0.2400
v 0.3200 0.4375 0.2400
v 0.3200 0.4025 0.2400
v -0.3200 0.4025 0.2400
v -0.3200 0.4375 0.2400
v -0.3200 0.4375 -0.2400
v -0.3200 0.4025 -0.2400
v -0.3200 0.1900 -0.0500
v -0.3200 0.2700 -0.0500
v 0.3200 0.2700 -0.0500
v 0.3200 0.1900 -0.0500
v 0.3200 0.1900 0.0500
v 0.3200 0.2700 0.0500
v -0.3200 0.2700 0.0500
v -0.3200 0.1900 0.0500
v -0.3200 0.2800 -0.0400
v -0.3200 0.2800 0.0400
v 0.3200 0.2800 0.0400
v 0.3200 0.2800 -0.0400
v -0.3200 0.1800 -0.0400
v 0.3200 0.1800 -0.0400
v 0.3200 0.1800 0.0400
v -0.3200 0.1800 0.0400
v 0.3300 0.1900 -0.0400
v 0.3300 0.2700 -0.0400
v 0.3300 0.2700 0.0400
v 0.3300 0.1900 0.0400
v -0.3300 0.1900 0.0400
v -0.3300 0.2700 0.0400
v -0.3300 0.2700 -0.0400
v -0.3300 0.1900 -0.0400
v -0.3200 0.2800 -0.0400
v 0.3200 0.2800 -0.0400
v 0.3200 0.2700 -0.0500
v -0.3200 0.2700 -0.0500
v 0.3200 0.2800 0.0400
v -0.3200 0.2800 0.0400
v -0.3200 0.2700 0.0500
v 0.3200 0.2700 0.0500
v 0.3200 0.1800 -0.0400
v -0.3200 0.1800 -0.0400
v -0.3200 0.1900 -0.0500
v 0.3200 0.1900 -0.0500
v -0.3200 0.1800 0.0400
v 0.3200 0.1800 0.0400
v 0.3200 0.1900 0.0500
v -0.3200 0.1900 0.0500
v 0.3300 0.2700 -0.0400
v 0.3300 0.2700 0.0400
v 0.3200 0.2800 0.0400
v 0.3200 0.2800 -0.0400
v 0.3300 0.1900 0.0400
v 0.3300 0.1900 -0.0400
v 0.3200 0.1800 -0.0400
v 0.3200 0.1800 0.0400
v -0.3300 0.2700 0.0400
v -0.3300 0.2700 -0.0400
v -0.3200 0.2800 -0.0400
v -0.3200 0.2800 0.0400
v -0.3300 0.1900 -0.0400
v -0.3300 0.1900 0.0400
v -0.3200 0.1800 0.0400
v -0.3200 0.1800 -0.0400
v 0.3300 0.2700 -0.0400
v 0.3200 0.2700 -0.0500
v 0.3200 0.1900 -0.0500
v 0.3300 0.1900 -0.0400
v 0.3300 0.1900 0.0400
v 0.3200 0.1900 0.0500
v 0.3200 0.2700 0.0500
v 0.3300 0.2700 0.0400
v -0.3300 0.1900 -0.0400
v -0.3200 0.1900 -0.0500
v -0.3200 0.2700 -0.0500
v -0.3300 0.2700 -0.0400
v -0.3300 0.2700 0.0400
v -0.3200 0.2700 0.0500
v -0.3200 0.1900 0.0500
v -0.3300 0.1900 0.0400
v 0.3200 0.2800 0.0400
v 0.3300 0.2700 0.0400
v 0.3200 0.2700 0.0500
v -0.3200 0.2700 0.0500
v -0.3300 0.2700 0.0400
v -0.3200 0.2800 0.0400
v 0.3200 0.1900 0.0500
v 0.3300 0.1900 0.0400
v 0.3200 0.1800 0.0400
v -0.3200 0.1800 0.0400
v -0.3300 0.1900 0.0400
v -0.3200 0.1900 0.0500
v 0.3200 0.2700 -0.0500
v 0.3300 0.2700 -0.0400
v 0.3200 0.2800 -0.0400
v -0.3200 0.2800 -0.0400
v -0.3300 0.2700 -0.0400
v -0.3200 0.2700 -0.0500
v 0.3200 0.1800 -0.0400
v 0.3300 0.1900 -0.0400
v 0.3200 0.1900 -0.0500
v -0.3200 0.1900 -0.0500
v -0.3300 0.1900 -0.0400
v -0.3200 0.1800 -0.0400
vt 0.0357 0.5509
vt 0.0357 0.9491
vt 0.4643 0.9491
vt 0.4643 0.5509
vt 0.4643 0.5509
vt 0.4643 0.9491
vt 0.0357 0.9491
vt 0.0357 0.5509
vt 0.0357 0.5468
vt 0.0357 0.9532
vt 0.4643 0.9532
vt 0.4643 0.5468
vt 0.0357 0.5468
vt 0.4643 0.5468
vt 0.4643 0.9532
vt 0.0357 0.9532
vt 0.0468 0.5509
vt 0.0468 0.9491
vt 0.4532 0.9491
vt 0.4532 0.5509
vt 0.4532 0.5509
vt 0.4532 0.9491
vt 0.0468 0.9491
vt 0.0468 0.5509
vt 0.0357 0.5468
vt 0.4643 0.5468
vt 0.4643 0.5040
vt 0.0357 0.5040
vt 0.4643 0.9532
vt 0.0357 0.9532
vt 0.0357 0.9960
vt 0.4643 0.9960
vt 0.4643 0.5040
vt 0.0357 0.5040
vt 0.0357 0.5509
vt 0.4643 0.5509
vt 0.0357 0.5040
vt 0.4643 0.5040
vt 0.4643 0.5509
vt 0.0357 0.5509
vt 0.0468 0.9491
vt 0.4532 0.9491
vt 0.4532 0.9960
vt 0.0468 0.9960
vt 0.4532 0.5509
vt 0.0468 0.5509
vt 0.0468 0.5040
vt 0.4532 0.5040
vt 0.4532 0.9491
vt 0.0468 0.9491
vt 0.0468 0.9960
vt 0.4532 0.9960
vt 0.0468 0.5509
vt 0.4532 0.5509
vt 0.4532 0.5040
vt 0.0468 0.5040
vt 0.0468 0.9491
vt 0.0040 0.9491
vt 0.0040 0.5509
vt 0.0468 0.5509
vt 0.4532 0.5509
vt 0.4960 0.5509
vt 0.4960 0.9491
vt 0.4532 0.9491
vt 0.0468 0.5509
vt 0.0040 0.5509
vt 0.0040 0.9491
vt 0.0468 0.9491
vt 0.4532 0.9491
vt 0.4960 0.9491
vt 0.4960 0.5509
vt 0.4532 0.5509
vt 0.4643 0.9532
vt 0.4960 0.9532
vt 0.4643 0.9960
vt 0.0357 0.9960
vt 0.0040 0.9532
vt 0.0357 0.9532
vt 0.4643 0.9960
vt 0.4960 0.9532
vt 0.4643 0.9532
vt 0.0357 0.9532
vt 0.0040 0.9532
vt 0.0357 0.9960
vt 0.4643 0.5040
vt 0.4960 0.5468
vt 0.4643 0.5468
vt 0.0357 0.5468
vt 0.0040 0.5468
vt 0.0357 0.5040
vt 0.4643 0.5468
vt 0.4960 0.5468
vt 0.4643 0.5040
vt 0.0357 0.5040
vt 0.0040 0.5468
vt 0.0357 0.5468
vt 0.5040 0.9960
vt 0.5040 0.5040
vt 0.9960 0.5040
vt 0.9960 0.9960
vt 0.5450 0.9038
vt 0.9550 0.9038
vt 0.9550 0.5963
vt 0.5450 0.5963
vt 0.5040 0.5040
vt 0.5450 0.9960
vt 0.9550 0.9960
vt 0.9960 0.5040
vt 0.5040 0.5040
vt 0.9960 0.5040
vt 0.9550 0.9960
vt 0.5450 0.9960
vt 0.9960 0.5040
vt 0.5040 0.5040
vt 0.5963 0.9960
vt 0.9038 0.9960
vt 0.9960 0.5040
vt 0.9038 0.9960
vt 0.5963 0.9960
vt 0.5040 0.5040
vt 0.0655 0.2903
vt 0.0655 0.4597
vt 0.4345 0.4597
vt 0.4345 0.2903
vt 0.4345 0.2903
vt 0.4345 0.4597
vt 0.0655 0.4597
vt 0.0655 0.2903
vt 0.0655 0.2647
vt 0.0655 0.4853
vt 0.4345 0.4853
vt 0.4345 0.2647
vt 0.0655 0.2647
vt 0.4345 0.2647
vt 0.4345 0.4853
vt 0.0655 0.4853
vt 0.0257 0.2903
vt 0.0257 0.4597
vt 0.4743 0.4597
vt 0.4743 0.2903
vt 0.4743 0.2903
vt 0.4743 0.4597
vt 0.0257 0.4597
vt 0.0257 0.2903
vt 0.0655 0.2647
vt 0.4345 0.2647
vt 0.4345 0.2540
vt 0.0655 0.2540
vt 0.4345 0.4853
vt 0.0655 0.4853
vt 0.0655 0.4960
vt 0.4345 0.4960
vt 0.4345 0.2647
vt 0.0655 0.2647
vt 0.0655 0.2540
vt 0.4345 0.2540
vt 0.0655 0.4853
vt 0.4345 0.4853
vt 0.4345 0.4960
vt 0.0655 0.4960
vt 0.4960 0.2647
vt 0.4960 0.4853
vt 0.4345 0.4853
vt 0.4345 0.2647
vt 0.4960 0.4853
vt 0.4960 0.2647
vt 0.4345 0.2647
vt 0.4345 0.4853
vt 0.4743 0.4597
vt 0.0257 0.4597
vt 0.0257 0.4960
vt 0.4743 0.4960
vt 0.0040 0.2647
vt 0.0040 0.4853
vt 0.0655 0.4853
vt 0.0655 0.2647
vt 0.4960 0.4597
vt 0.4345 0.4597
vt 0.4345 0.2903
vt 0.4960 0.2903
vt 0.4960 0.2903
vt 0.4345 0.2903
vt 0.4345 0.4597
vt 0.4960 0.4597
vt 0.0040 0.2903
vt 0.0655 0.2903
vt 0.0655 0.4597
vt 0.0040 0.4597
vt 0.0040 0.4597
vt 0.0655 0.4597
vt 0.0655 0.2903
vt 0.0040 0.2903
vt 0.4743 0.4960
vt 0.4743 0.4597
vt 0.4960 0.4597
vt 0.4960 0.4597
vt 0.4743 0.4597
vt 0.4743 0.4960
vt 0.4345 0.4960
vt 0.4960 0.4853
vt 0.4345 0.4853
vt 0.4743 0.2540
vt 0.4743 0.2903
vt 0.4960 0.2903
vt 0.0040 0.4597
vt 0.0257 0.4597
vt 0.0257 0.4960
vt 0.0257 0.4960
vt 0.0257 0.4597
vt 0.0040 0.4597
vt 0.4345 0.2647
vt 0.4960 0.2647
vt 0.4345 0.2540
vt 0.0040 0.2903
vt 0.0257 0.2903
vt 0.0257 0.2540
vt 0.0655 0.2903
vt 0.0655 0.4597
vt 0.4345 0.4597
vt 0.4345 0.2903
vt 0.4345 0.2903
vt 0.4345 0.4597
vt 0.0655 0.4597
vt 0.0655 0.2903
vt 0.0655 0.2647
vt 0.0655 0.4853
vt 0.4345 0.4853
vt 0.4345 0.2647
vt 0.0655 0.2647
vt 0.4345 0.2647
vt 0.4345 0.4853
vt 0.0655 0.4853
vt 0.0257 0.2903
vt 0.0257 0.4597
vt 0.4743 0.4597
vt 0.4743 0.2903
vt 0.4743 0.2903
vt 0.4743 0.4597
vt 0.0257 0.4597
vt 0.0257 0.2903
vt 0.0655 0.2647
vt 0.4345 0.2647
vt 0.4345 0.2540
vt 0.0655 0.2540
vt 0.4345 0.4853
vt 0.0655 0.4853
vt 0.0655 0.4960
vt 0.4345 0.4960
vt 0.4345 0.2647
vt 0.0655 0.2647
vt 0.0655 0.2540
vt 0.4345 0.2540
vt 0.0655 0.4853
vt 0.4345 0.4853
vt 0.4345 0.4960
vt 0.0655 0.4960
vt 0.0257 0.4597
vt 0.4743 0.4597
vt 0.4743 0.4960
vt 0.0257 0.4960
vt 0.4960 0.4853
vt 0.4960 0.2647
vt 0.4345 0.2647
vt 0.4345 0.4853
vt 0.4743 0.4597
vt 0.0257 0.4597
vt 0.0257 0.4960
vt 0.4743 0.4960
vt 0.0040 0.2647
vt 0.0040 0.4853
vt 0.0655 0.4853
vt 0.0655 0.2647
vt 0.4960 0.4597
vt 0.4345 0.4597
vt 0.4345 0.2903
vt 0.4960 0.2903
vt 0.4960 0.2903
vt 0.4345 0.2903
vt 0.4345 0.4597
vt 0.4960 0.4597
vt 0.0040 0.2903
vt 0.0655 0.2903
vt 0.0655 0.4597
vt 0.0040 0.4597
vt 0.0040 0.4597
vt 0.0655 0.4597
vt 0.0655 0.2903
vt 0.0040 0.2903
vt 0.4743 0.4960
vt 0.4743 0.4597
vt 0.4960 0.4597
vt 0.4960 0.4597
vt 0.4743 0.4597
vt 0.4743 0.4960
vt 0.4345 0.4960
vt 0.4960 0.4853
vt 0.4345 0.4853
vt 0.0655 0.4853
vt 0.0040 0.4853
vt 0.0655 0.4960
vt 0.0040 0.4597
vt 0.0257 0.4597
vt 0.0257 0.4960
vt 0.0257 0.4960
vt 0.0257 0.4597
vt 0.0040 0.4597
vt 0.4345 0.2647
vt 0.4960 0.2647
vt 0.4345 0.2540
vt 0.0655 0.2540
vt 0.0040 0.2647
vt 0.0655 0.2647
vt 0.0655 0.2903
vt 0.0655 0.4597
vt 0.4345 0.4597
vt 0.4345 0.2903
vt 0.4345 0.2903
vt 0.4345 0.4597
vt 0.0655 0.4597
vt 0.0655 0.2903
vt 0.0655 0.2647
vt 0.0655 0.4853
vt 0.4345 0.4853
vt 0.4345 0.2647
vt 0.0655 0.2647
vt 0.4345 0.2647
vt 0.4345 0.4853
vt 0.0655 0.4853
vt 0.0257 0.2903
vt 0.0257 0.4597
vt 0.4743 0.4597
vt 0.4743 0.2903
vt 0.4743 0.2903
vt 0.4743 0.4597
vt 0.0257 0.4597
vt 0.0257 0.2903
vt 0.0655 0.2647
vt 0.4345 0.2647
vt 0.4345 0.2540
vt 0.0655 0.2540
vt 0.4345 0.4853
vt 0.0655 0.4853
vt 0.0655 0.4960
vt 0.4345 0.4960
vt 0.4345 0.2647
vt 0.0655 0.2647
vt 0.0655 0.2540
vt 0.4345 0.2540
vt 0.0655 0.4853
vt 0.4345 0.4853
vt 0.4345 0.4960
vt 0.0655 0.4960
vt 0.0257 0.4597
vt 0.4743 0.4597
vt 0.4743 0.4960
vt 0.0257 0.4960
vt 0.4960 0.4853
vt 0.4960 0.2647
vt 0.4345 0.2647
vt 0.4345 0.4853
vt 0.0040 0.4853
vt 0.0040 0.2647
vt 0.0655 0.2647
vt 0.0655 0.4853
vt 0.0040 0.2647
vt 0.0040 0.4853
vt 0.0655 0.4853
vt 0.0655 0.2647
vt 0.4960 0.4597
vt 0.4345 0.4597
vt 0.4345 0.2903
vt 0.4960 0.2903
vt 0.4960 0.2903
vt 0.4345 0.2903
vt 0.4345 0.4597
vt 0.4960 0.4597
vt 0.0040 0.2903
vt 0.0655 0.2903
vt 0.0655 0.4597
vt 0.0040 0.4597
vt 0.0040 0.4597
vt 0.0655 0.4597
vt 0.0655 0.2903
vt 0.0040 0.2903
vt 0.4743 0.4960
vt 0.4743 0.4597
vt 0.4960 0.4597
vt 0.4960 0.4597
vt 0.4743 0.4597
vt 0.4743 0.4960
vt 0.4960 0.2903
vt 0.4743 0.2903
vt 0.4743 0.2540
vt 0.0655 0.4853
vt 0.0040 0.4853
vt 0.0655 0.4960
vt 0.0040 0.4597
vt 0.0257 0.4597
vt 0.0257 0.4960
vt 0.0257 0.4960
vt 0.0257 0.4597
vt 0.0040 0.4597
vt 0.0257 0.2540
vt 0.0257 0.2903
vt 0.0040 0.2903
vt 0.0655 0.2540
vt 0.0040 0.2647
vt 0.0655 0.2647
vt 0.2540 0.0040
vt 0.2540 0.0040
vt 0.4960 0.0040
vt 0.4960 0.0040
vt 0.4960 0.1210
vt 0.4960 0.1210
vt 0.2540 0.1210
vt 0.2540 0.1210
vt 0.2540 0.0040
vt 0.2540 0.1210
vt 0.4960 0.1210
vt 0.4960 0.0040
vt 0.2540 0.0040
vt 0.4960 0.0040
vt 0.4960 0.1210
vt 0.2540 0.1210
vt 0.4960 0.0040
vt 0.4960 0.0040
vt 0.4960 0.1210
vt 0.4960 0.1210
vt 0.2540 0.1210
vt 0.2540 0.1210
vt 0.2540 0.0040
vt 0.2540 0.0040
vt 0.5077 0.2782
vt 0.5077 0.4718
vt 0.7423 0.4718
vt 0.7423 0.2782
vt 0.7423 0.2782
vt 0.7423 0.4718
vt 0.5077 0.4718
vt 0.5077 0.2782
vt 0.5077 0.2782
vt 0.5077 0.4718
vt 0.7423 0.4718
vt 0.7423 0.2782
vt 0.5077 0.2782
vt 0.7423 0.2782
vt 0.7423 0.4718
vt 0.5077 0.4718
vt 0.5282 0.2782
vt 0.5282 0.4718
vt 0.7218 0.4718
vt 0.7218 0.2782
vt 0.7218 0.2782
vt 0.7218 0.4718
vt 0.5282 0.4718
vt 0.5282 0.2782
vt 0.5077 0.4960
vt 0.7423 0.4960
vt 0.7423 0.4718
vt 0.5077 0.4718
vt 0.7423 0.4960
vt 0.5077 0.4960
vt 0.5077 0.4718
vt 0.7423 0.4718
vt 0.7423 0.2540
vt 0.5077 0.2540
vt 0.5077 0.2782
vt 0.7423 0.2782
vt 0.5077 0.2540
vt 0.7423 0.2540
vt 0.7423 0.2782
vt 0.5077 0.2782
vt 0.7460 0.2782
vt 0.7460 0.4718
vt 0.7423 0.4718
vt 0.7423 0.2782
vt 0.7460 0.4718
vt 0.7460 0.2782
vt 0.7423 0.2782
vt 0.7423 0.4718
vt 0.5040 0.4718
vt 0.5040 0.2782
vt 0.5077 0.2782
vt 0.5077 0.4718
vt 0.5040 0.2782
vt 0.5040 0.4718
vt 0.5077 0.4718
vt 0.5077 0.2782
vt 0.7460 0.4718
vt 0.7423 0.4718
vt 0.7423 0.2782
vt 0.7460 0.2782
vt 0.7460 0.2782
vt 0.7423 0.2782
vt 0.7423 0.4718
vt 0.7460 0.4718
vt 0.5040 0.2782
vt 0.5077 0.2782
vt 0.5077 0.4718
vt 0.5040 0.4718
vt 0.5040 0.4718
vt 0.5077 0.4718
vt 0.5077 0.2782
vt 0.5040 0.2782
vt 0.7423 0.4718
vt 0.7460 0.4718
vt 0.7423 0.4960
vt 0.5077 0.4960
vt 0.5040 0.4718
vt 0.5077 0.4718
vt 0.7423 0.4960
vt 0.7460 0.4718
vt 0.7423 0.4718
vt 0.5077 0.4718
vt 0.5040 0.4718
vt 0.5077 0.4960
vt 0.7423 0.2540
vt 0.7460 0.2782
vt 0.7423 0.2782
vt 0.5077 0.2782
vt 0.5040 0.2782
vt 0.5077 0.2540
vt 0.7423 0.2782
vt 0.7460 0.2782
vt 0.7423 0.2540
vt 0.5077 0.2540
vt 0.5040 0.2782
vt 0.5077 0.2782
vn 0.0000 0.0000 -1.0000
vn 0.0000 0.0000 -1.0000
vn 0.0000 0.0000 -1.0000
vn 0.0000 0.0000 -1.0000
vn 0.0000 0.0000 1.0000
vn 0.0000 0.0000 1.0000
vn 0.0000 0.0000 1.0000
vn 0.0000 0.0000 1.0000
vn 0.0000 1.0000 0.0000
vn 0.0000 1.0000 0.0000
vn 0.0000 1.0000 0.0000
vn 0.0000 1.0000 0.0000
vn 0.0000 -1.0000 0.0000
vn 0.0000 -1.0000 0.0000
vn 0.0000 -1.0000 0.0000
vn 0.0000 -1.0000 0.0000
vn 1.0000 0.0000 0.0000
vn 1.0000 0.0000 0.0000
vn 1.0000 0.0000 0.0000
vn 1.0000 0.0000 0.0000
vn -1.0000 0.0000 0.0000
vn -1.0000 0.0000 0.0000
vn -1.0000 0.0000 0.0000
vn -1.0000 0.0000 0.0000
vn 0.0000 0.7071 -0.7071
vn 0.0000 0.7071 -0.7071
vn 0.0000 0.7071 -0.7071
vn 0.0000 0.7071 -0.7071
vn 0.0000 0.7071 0.7071
vn 0.0000 0.7071 0.7071
vn 0.0000 0.7071 0.7071
vn 0.0000 0.7071 0.7071
vn 0.0000 -0.7071 -0.7071
vn 0.0000 -0.7071 -0.7071
vn 0.0000 -0.7071 -0.7071
vn 0.0000 -0.7071 -0.7071
vn 0.0000 -0.7071 0.7071
vn 0.0000 -0.7071 0.7071
vn 0.0000 -0.7071 0.7071
vn 0.0000 -0.7071 0.7071
vn -0.7071 -0.7071 0.0000
vn -0.7071 -0.7071 0.0000
vn -0.7071 -0.7071 0.0000
vn -0.7071 -0.7071 0.0000
vn -0.7071 0.7071 0.0000
vn -0.7071 0.7071 0.0000
vn -0.7071 0.7071 0.0000
vn -0.7071 0.7071 0.0000
vn 0.7071 -0.7071 0.0000
vn 0.7071 -0.7071 0.0000
vn 0.7071 -0.7071 0.0000
vn 0.7071 -0.7071 0.0000
vn 0.7071 0.7071 0.0000
vn 0.7071 0.7071 0.0000
vn 0.7071 0.7071 0.0000
vn 0.7071 0.7071 0.0000
vn -0.7071 0.0000 0.7071
vn -0.7071 0.0000 0.7071
vn -0.7071 0.0000 0.7071
vn -0.7071 0.0000 0.7071
vn -0.7071 0.0000 -0.7071
vn -0.7071 0.0000 -0.7071
vn -0.7071 0.0000 -0.7071
vn -0.7071 0.0000 -0.7071
vn 0.7071 0.0000 0.7071
vn 0.7071 0.0000 0.7071
vn 0.7071 0.0000 0.7071
vn 0.7071 0.0000 0.7071
vn 0.7071 0.0000 -0.7071
vn 0.7071 0.0000 -0.7071
vn 0.7071 0.0000 -0.7071
vn 0.7071 0.0000 -0.7071
vn -0.5774 -0.5774 -0.5774
vn -0.5774 -0.5774 -0.5774
vn -0.5774 -0.5774 -0.5774
vn 0.5774 -0.5774 -0.5774
vn 0.5774 -0.5774 -0.5774
vn 0.5774 -0.5774 -0.5774
vn -0.5774 0.5774 -0.5774
vn -0.5774 0.5774 -0.5774
vn -0.5774 0.5774 -0.5774
vn 0.5774 0.5774 -0.5774
vn 0.5774 0.5774 -0.5774
vn 0.5774 0.5774 -0.5774
vn -0.5774 -0.5774 0.5774
vn -0.5774 -0.5774 0.5774
vn -0.5774 -0.5774 0.5774
vn 0.5774 -0.5774 0.5774
vn 0.5774 -0.5774 0.5774
vn 0.5774 -0.5774 0.5774
vn -0.5774 0.5774 0.5774
vn -0.5774 0.5774 0.5774
vn -0.5774 0.5774 0.5774
vn 0.5774 0.5774 0.5774
vn 0.5774 0.5774 0.5774
vn 0.5774 0.5774 0.5774
vn 0.0000 -1.0000 0.0000
vn 0.0000 -1.0000 0.0000
vn 0.0000 -1.0000 0.0000
vn 0.0000 -1.0000 0.0000
vn 0.0000 1.0000 0.0000
vn 0.0000 1.0000 0.0000
vn 0.0000 1.0000 0.0000
vn 0.0000 1.0000 0.0000
vn 0.0000 0.0680 -0.9977
vn 0.0000 0.0680 -0.9977
vn 0.0000 0.0680 -0.9977
vn 0.0000 0.0680 -0.9977
vn 0.0000 0.0680 0.9977
vn 0.0000 0.0680 0.9977
vn 0.0000 0.0680 0.9977
vn 0.0000 0.0680 0.9977
vn 0.9936 0.1129 0.0000
vn 0.9936 0.1129 0.0000
vn 0.9936 0.1129 0.0000
vn 0.9936 0.1129 0.0000
vn -0.9936 0.1129 0.0000
vn -0.9936 0.1129 0.0000
vn -0.9936 0.1129 0.0000
vn -0.9936 0.1129 0.0000
vn 0.0000 0.0000 -1.0000
vn 0.0000 0.0000 -1.0000
vn 0.0000 0.0000 -1.0000
vn 0.0000 0.0000 -1.0000
vn 0.0000 0.0000 1.0000
vn 0.0000 0.0000 1.0000
vn 0.0000 0.0000 1.0000
vn 0.0000 0.0000 1.0000
vn 0.0000 1.0000 0.0000
vn 0.0000 1.0000 0.0000
vn 0.0000 1.0000 0.0000
vn 0.0000 1.0000 0.0000
vn 0.0000 -1.0000 0.0000
vn 0.0000 -1.0000 0.0000
vn 0.0000 -1.0000 0.0000
vn 0.0000 -1.0000 0.0000
vn 1.0000 0.0000 0.0000
vn 1.0000 0.0000 0.0000
vn 1.0000 0.0000 0.0000
vn 1.0000 0.0000 0.0000
vn -1.0000 0.0000 0.0000
vn -1.0000 0.0000 0.0000
vn -1.0000 0.0000 0.0000
vn -1.0000 0.0000 0.0000
vn 0.0000 0.7071 -0.7071
vn 0.0000 0.7071 -0.7071
vn 0.0000 0.7071 -0.7071
vn 0.0000 0.7071 -0.7071
vn 0.0000 0.7071 0.7071
vn 0.0000 0.7071 0.7071
vn 0.0000 0.7071 0.7071
vn 0.0000 0.7071 0.7071
vn 0.0000 -0.7071 -0.7071
vn 0.0000 -0.7071 -0.7071
vn 0.0000 -0.7071 -0.7071
vn 0.0000 -0.7071 -0.7071
vn 0.0000 -0.7071 0.7071
vn 0.0000 -0.7071 0.7071
vn 0.0000 -0.7071 0.7071
vn 0.0000 -0.7071 0.7071
vn -0.7071 -0.7071 0.0000
vn -0.7071 -0.7071 0.0000
vn -0.7071 -0.7071 0.0000
vn -0.7071 -0.7071 0.0000
vn -0.7071 0.7071 0.0000
vn -0.7071 0.7071 0.0000
vn -0.7071 0.7071 0.0000
vn -0.7071 0.7071 0.0000
vn 0.7071 -0.7071 0.0000
vn 0.7071 -0.7071 0.0000
vn 0.7071 -0.7071 0.0000
vn 0.7071 -0.7071 0.0000
vn 0.7071 0.7071 0.0000
vn 0.7071 0.7071 0.0000
vn 0.7071 0.7071 0.0000
vn 0.7071 0.7071 0.0000
vn -0.7071 0.0000 0.7071
vn -0.7071 0.0000 0.7071
vn -0.7071 0.0000 0.7071
vn -0.7071 0.0000 0.7071
vn -0.7071 0.0000 -0.7071
vn -0.7071 0.0000 -0.7071
vn -0.7071 0.0000 -0.7071
vn -0.7071 0.0000 -0.7071
vn 0.7071 0.0000 0.7071
vn 0.7071 0.0000 0.7071
vn 0.7071 0.0000 0.7071
vn 0.7071 0.0000 0.7071
vn 0.7071 0.0000 -0.7071
vn 0.7071 0.0000 -0.7071
vn 0.7071 0.0000 -0.7071
vn 0.7071 0.0000 -0.7071
vn -0.5774 -0.5774 -0.5774
vn -0.5774 -0.5774 -0.5774
vn -0.5774 -0.5774 -0.5774
vn 0.5774 -0.5774 -0.5774
vn 0.5774 -0.5774 -0.5774
vn 0.5774 -0.5774 -0.5774
vn -0.5774 0.5774 -0.5774
vn -0.5774 0.5774 -0.5774
vn -0.5774 0.5774 -0.5774
vn 0.5774 0.5774 -0.5774
vn 0.5774 0.5774 -0.5774
vn 0.5774 0.5774 -0.5774
vn -0.5774 -0.5774 0.5774
vn -0.5774 -0.5774 0.5774
vn -0.5774 -0.5774 0.5774
vn 0.5774 -0.5774 0.5774
vn 0.5774 -0.5774 0.5774
vn 0.5774 -0.5774 0.5774
vn -0.5774 0.5774 0.5774
vn -0.5774 0.5774 0.5774
vn -0.5774 0.5774 0.5774
vn 0.5774 0.5774 0.5774
vn 0.5774 0.5774 0.5774
vn 0.5774 0.5774 0.5774
vn 0.0000 0.0000 -1.0000
vn 0.0000 0.0000 -1.0000
vn 0.0000 0.0000 -1.0000
vn 0.0000 0.0000 -1.0000
vn 0.0000 0.0000 1.0000
vn 0.0000 0.0000 1.0000
vn 0.0000 0.0000 1.0000
vn 0.0000 0.0000 1.0000
vn 0.0000 1.0000 0.0000
vn 0.0000 1.0000 0.0000
vn 0.0000 1.0000 0.0000
vn 0.0000 1.0000 0.0000
vn 0.0000 -1.0000 0.0000
vn 0.0000 -1.0000 0.0000
vn 0.0000 -1.0000 0.0000
vn 0.0000 -1.0000 0.0000
vn 1.0000 0.0000 0.0000
vn 1.0000 0.0000 0.0000
vn 1.0000 0.0000 0.0000
vn 1.0000 0.0000 0.0000
vn -1.0000 0.0000 0.0000
vn -1.0000 0.0000 0.0000
vn -1.0000 0.0000 0.0000
vn -1.0000 0.0000 0.0000
vn 0.0000 0.7071 -0.7071
vn 0.0000 0.7071 -0.7071
vn 0.0000 0.7071 -0.7071
vn 0.0000 0.7071 -0.7071
vn 0.0000 0.7071 0.7071
vn 0.0000 0.7071 0.7071
vn 0.0000 0.7071 0.7071
vn 0.0000 0.7071 0.7071
vn 0.0000 -0.7071 -0.7071
vn 0.0000 -0.7071 -0.7071
vn 0.0000 -0.7071 -0.7071
vn 0.0000 -0.7071 -0.7071
vn 0.0000 -0.7071 0.7071
vn 0.0000 -0.7071 0.7071
vn 0.0000 -0.7071 0.7071
vn 0.0000 -0.7071 0.7071
vn -0.7071 -0.7071 0.0000
vn -0.7071 -0.7071 0.0000
vn -0.7071 -0.7071 0.0000
vn -0.7071 -0.7071 0.0000
vn -0.7071 0.7071 0.0000
vn -0.7071 0.7071 0.0000
vn -0.7071 0.7071 0.0000
vn -0.7071 0.7071 0.0000
vn 0.7071 -0.7071 0.0000
vn 0.7071 -0.7071 0.0000
vn 0.7071 -0.7071 0.0000
vn 0.7071 -0.7071 0.0000
vn 0.7071 0.7071 0.0000
vn 0.7071 0.7071 0.0000
vn 0.7071 0.7071 0.0000
vn 0.7071 0.7071 0.0000
vn -0.7071 0.0000 0.7071
vn -0.7071 0.0000 0.7071
vn -0.7071 0.0000 0.7071
vn -0.7071 0.0000 0.7071
vn -0.7071 0.0000 -0.7071
vn -0.7071 0.0000 -0.7071
vn -0.7071 0.0000 -0.7071
vn -0.7071 0.0000 -0.7071
vn 0.7071 0.0000 0.7071
vn 0.7071 0.0000 0.7071
vn 0.7071 0.0000 0.7071
vn 0.7071 0.0000 0.7071
vn 0.7071 0.0000 -0.7071
vn 0.7071 0.0000 -0.7071
vn 0.7071 0.0000 -0.7071
vn 0.7071 0.0000 -0.7071
vn -0.5774 -0.5774 -0.5774
vn -0.5774 -0.5774 -0.5774
vn -0.5774 -0.5774 -0.5774
vn 0.5774 -0.5774 -0.5774
vn 0.5774 -0.5774 -0.5774
vn 0.5774 -0.5774 -0.5774
vn -0.5774 0.5774 -0.5774
vn -0.5774 0.5774 -0.5774
vn -0.5774 0.5774 -0.5774
vn 0.5774 0.5774 -0.5774
vn 0.5774 0.5774 -0.5774
vn 0.5774 0.5774 -0.5774
vn -0.5774 -0.5774 0.5774
vn -0.5774 -0.5774 0.5774
vn -0.5774 -0.5774 0.5774
vn 0.5774 -0.5774 0.5774
vn 0.5774 -0.5774 0.5774
vn 0.5774 -0.5774 0.5774
vn -0.5774 0.5774 0.5774
vn -0.5774 0.5774 0.5774
vn -0.5774 0.5774 0.5774
vn 0.5774 0.5774 0.5774
vn 0.5774 0.5774 0.5774
vn 0.5774 0.5774 0.5774
vn 0.0000 0.0000 -1.0000
vn 0.0000 0.0000 -1.0000
vn 0.0000 0.0000 -1.0000
vn 0.0000 0.0000 -1.0000
vn 0.0000 0.0000 1.0000
vn 0.0000 0.0000 1.0000
vn 0.0000 0.0000 1.0000
vn 0.0000 0.0000 1.0000
vn 0.0000 1.0000 0.0000
vn 0.0000 1.0000 0.0000
vn 0.0000 1.0000 0.0000
vn 0.0000 1.0000 0.0000
vn 0.0000 -1.0000 0.0000
vn 0.0000 -1.0000 0.0000
vn 0.0000 -1.0000 0.0000
vn 0.0000 -1.0000 0.0000
vn 1.0000 0.0000 0.0000
vn 1.0000 0.0000 0.0000
vn 1.0000 0.0000 0.0000
vn 1.0000 0.0000 0.0000
vn -1.0000 0.0000 0.0000
vn -1.0000 0.0000 0.0000
vn -1.0000 0.0000 0.0000
vn -1.0000 0.0000 0.0000
vn 0.0000 0.7071 -0.7071
vn 0.0000 0.7071 -0.7071
vn 0.0000 0.7071 -0.7071
vn 0.0000 0.7071 -0.7071
vn 0.0000 0.7071 0.7071
vn 0.0000 0.7071 0.7071
vn 0.0000 0.7071 0.7071
vn 0.0000 0.7071 0.7071
vn 0.0000 -0.7071 -0.7071
vn 0.0000 -0.7071 -0.7071
vn 0.0000 -0.7071 -0.7071
vn 0.0000 -0.7071 -0.7071
vn 0.0000 -0.7071 0.7071
vn 0.0000 -0.7071 0.7071
vn 0.0000 -0.7071 0.7071
vn 0.0000 -0.7071 0.7071
vn -0.7071 -0.7071 0.0000
vn -0.7071 -0.7071 0.0000
vn -0.7071 -0.7071 0.0000
vn -0.7071 -0.7071 0.0000
vn -0.7071 0.7071 0.0000
vn -0.7071 0.7071 0.0000
vn -0.7071 0.7071 0.0000
vn -0.7071 0.7071 0.0000
vn 0.7071 -0.7071 0.0000
vn 0.7071 -0.7071 0.0000
vn 0.7071 -0.7071 0.0000
vn 0.7071 -0.7071 0.0000
vn 0.7071 0.7071 0.0000
vn 0.7071 0.7071 0.0000
vn 0.7071 0.7071 0.0000
vn 0.7071 0.7071 0.0000
vn -0.7071 0.0000 0.7071
vn -0.7071 0.0000 0.7071
vn -0.7071 0.0000 0.7071
vn -0.7071 0.0000 0.7071
vn -0.7071 0.0000 -0.7071
vn -0.7071 0.0000 -0.7071
vn -0.7071 0.0000 -0.7071
vn -0.7071 0.0000 -0.7071
vn 0.7071 0.0000 0.7071
vn 0.7071 0.0000 0.7071
vn 0.7071 0.0000 0.7071
vn 0.7071 0.0000 0.7071
vn 0.7071 0.0000 -0.7071
vn 0.7071 0.0000 -0.7071
vn 0.7071 0.0000 -0.7071
vn 0.7071 0.0000 -0.7071
vn -0.5774 -0.5774 -0.5774
vn -0.5774 -0.5774 -0.5774
vn -0.5774 -0.5774 -0.5774
vn 0.5774 -0.5774 -0.5774
vn 0.5774 -0.5774 -0.5774
vn 0.5774 -0.5774 -0.5774
vn -0.5774 0.5774 -0.5774
vn -0.5774 0.5774 -0.5774
vn -0.5774 0.5774 -0.5774
vn 0.5774 0.5774 -0.5774
vn 0.5774 0.5774 -0.5774
vn 0.5774 0.5774 -0.5774
vn -0.5774 -0.5774 0.5774
vn -0.5774 -0.5774 0.5774
vn -0.5774 -0.5774 0.5774
vn 0.5774 -0.5774 0.5774
vn 0.5774 -0.5774 0.5774
vn 0.5774 -0.5774 0.5774
vn -0.5774 0.5774 0.5774
vn -0.5774 0.5774 0.5774
vn -0.5774 0.5774 0.5774
vn 0.5774 0.5774 0.5774
vn 0.5774 0.5774 0.5774
vn 0.5774 0.5774 0.5774
vn 0.0000 0.0000 -1.0000
vn 0.0000 0.0000 -1.0000
vn 0.0000 0.0000 -1.0000
vn 0.0000 0.0000 -1.0000
vn 0.0000 0.0000 1.0000
vn 0.0000 0.0000 1.0000
vn 0.0000 0.0000 1.0000
vn 0.0000 0.0000 1.0000
vn 0.0000 1.0000 0.0000
vn 0.0000 1.0000 0.0000
vn 0.0000 1.0000 0.0000
vn 0.0000 1.0000 0.0000
vn 0.0000 -1.0000 0.0000
vn 0.0000 -1.0000 0.0000
vn 0.0000 -1.0000 0.0000
vn 0.0000 -1.0000 0.0000
vn 1.0000 0.0000 0.0000
vn 1.0000 0.0000 0.0000
vn 1.0000 0.0000 0.0000
vn 1.0000 0.0000 0.0000
vn -1.0000 0.0000 0.0000
vn -1.0000 0.0000 0.0000
vn -1.0000 0.0000 0.0000
vn -1.0000 0.0000 0.0000
vn 0.0000 0.0000 -1.0000
vn 0.0000 0.0000 -1.0000
vn 0.0000 0.0000 -1.0000
vn 0.0000 0.0000 -1.0000
vn 0.0000 0.0000 1.0000
vn 0.0000 0.0000 1.0000
vn 0.0000 0.0000 1.0000
vn 0.0000 0.0000 1.0000
vn 0.0000 1.0000 0.0000
vn 0.0000 1.0000 0.0000
vn 0.0000 1.0000 0.0000
vn 0.0000 1.0000 0.0000
vn 0.0000 -1.0000 0.0000
vn 0.0000 -1.0000 0.0000
vn 0.0000 -1.0000 0.0000
vn 0.0000 -1.0000 0.0000
vn 1.0000 0.0000 0.0000
vn 1.0000 0.0000 0.0000
vn 1.0000 0.0000 0.0000
vn 1.0000 0.0000 0.0000
vn -1.0000 0.0000 0.0000
vn -1.0000 0.0000 0.0000
vn -1.0000 0.0000 0.0000
vn -1.0000 0.0000 0.0000
vn 0.0000 0.7071 -0.7071
vn 0.0000 0.7071 -0.7071
vn 0.0000 0.7071 -0.7071
vn 0.0000 0.7071 -0.7071
vn 0.0000 0.7071 0.7071
vn 0.0000 0.7071 0.7071
vn 0.0000 0.7071 0.7071
vn 0.0000 0.7071 0.7071
vn 0.0000 -0.7071 -0.7071
vn 0.0000 -0.7071 -0.7071
vn 0.0000 -0.7071 -0.7071
vn 0.0000 -0.7071 -0.7071
vn 0.0000 -0.7071 0.7071
vn 0.0000 -0.7071 0.7071
vn 0.0000 -0.7071 0.7071
vn 0.0000 -0.7071 0.7071
vn -0.7071 -0.7071 0.0000
vn -0.7071 -0.7071 0.0000
vn -0.7071 -0.7071 0.0000
vn -0.7071 -0.7071 0.0000
vn -0.7071 0.7071 0.0000
vn -0.7071 0.7071 0.0000
vn -0.7071 0.7071 0.0000
vn -0.7071 0.7071 0.0000
vn 0.7071 -0.7071 0.0000
vn 0.7071 -0.7071 0.0000
vn 0.7071 -0.7071 0.0000
vn 0.7071 -0.7071 0.0000
vn 0.7071 0.7071 0.0000
vn 0.7071 0.7071 0.0000
vn 0.7071 0.7071 0.0000
vn 0.7071 0.7071 0.0000
vn -0.7071 0.0000 0.7071
vn -0.7071 0.0000 0.7071
vn -0.7071 0.0000 0.7071
vn -0.7071 0.0000 0.7071
vn -0.7071 0.0000 -0.7071
vn -0.7071 0.0000 -0.7071
vn -0.7071 0.0000 -0.7071
vn -0.7071 0.0000 -0.7071
vn 0.7071 0.0000 0.7071
vn 0.7071 0.0000 0.7071
vn 0.7071 0.0000 0.7071
vn 0.7071 0.0000 0.7071
vn 0.7071 0.0000 -0.7071
vn 0.7071 0.0000 -0.7071
vn 0.7071 0.0000 -0.7071
vn 0.7071 0.0000 -0.7071
vn -0.5774 -0.5774 -0.5774
vn -0.5774 -0.5774 -0.5774
vn -0.5774 -0.5774 -0.5774
vn 0.5774 -0.5774 -0.5774
vn 0.5774 -0.5774 -0.5774
vn 0.5774 -0.5774 -0.5774
vn -0.5774 0.5774 -0.5774
vn -0.5774 0.5774 -0.5774
vn -0.5774 0.5774 -0.5774
vn 0.5774 0.5774 -0.5774
vn 0.5774 0.5774 -0.5774
vn 0.5774 0.5774 -0.5774
vn -0.5774 -0.5774 0.5774
vn -0.5774 -0.5774 0.5774
vn -0.5774 -0.5774 0.5774
vn 0.5774 -0.5774 0.5774
vn 0.5774 -0.5774 0.5774
vn 0.5774 -0.5774 0.5774
vn -0.5774 0.5774 0.5774
vn -0.5774 0.5774 0.5774
vn -0.5774 0.5774 0.5774
vn 0.5774 0.5774 0.5774
vn 0.5774 0.5774 0.5774
vn 0.5774 0.5774 0.5774
usemtl TF_Utility
f 1/1/1 2/2/2 3/3/3
f 1/1/1 3/3/3 4/4/4
f 5/5/5 6/6/6 7/7/7
f 5/5/5 7/7/7 8/8/8
f 9/9/9 10/10/10 11/11/11
f 9/9/9 11/11/11 12/12/12
f 13/13/13 14/14/14 15/15/15
f 13/13/13 15/15/15 16/16/16
f 17/17/17 18/18/18 19/19/19
f 17/17/17 19/19/19 20/20/20
f 21/21/21 22/22/22 23/23/23
f 21/21/21 23/23/23 24/24/24
f 25/25/25 26/26/26 27/27/27
f 25/25/25 27/27/27 28/28/28
f 29/29/29 30/30/30 31/31/31
f 29/29/29 31/31/31 32/32/32
f 33/33/33 34/34/34 35/35/35
f 33/33/33 35/35/35 36/36/36
f 37/37/37 38/38/38 39/39/39
f 37/37/37 39/39/39 40/40/40
f 41/41/41 42/42/42 43/43/43
f 41/41/41 43/43/43 44/44/44
f 45/45/45 46/46/46 47/47/47
f 45/45/45 47/47/47 48/48/48
f 49/49/49 50/50/50 51/51/51
f 49/49/49 51/51/51 52/52/52
f 53/53/53 54/54/54 55/55/55
f 53/53/53 55/55/55 56/56/56
f 57/57/57 58/58/58 59/59/59
f 57/57/57 59/59/59 60/60/60
f 61/61/61 62/62/62 63/63/63
f 61/61/61 63/63/63 64/64/64
f 65/65/65 66/66/66 67/67/67
f 65/65/65 67/67/67 68/68/68
f 69/69/69 70/70/70 71/71/71
f 69/69/69 71/71/71 72/72/72
f 73/73/73 74/74/74 75/75/75
f 76/76/76 77/77/77 78/78/78
f 79/79/79 80/80/80 81/81/81
f 82/82/82 83/83/83 84/84/84
f 85/85/85 86/86/86 87/87/87
f 88/88/88 89/89/89 90/90/90
f 91/91/91 92/92/92 93/93/93
f 94/94/94 95/95/95 96/96/96
f 97/97/97 98/98/98 99/99/99
f 97/97/97 99/99/99 100/100/100
f 101/101/101 102/102/102 103/103/103
f 101/101/101 103/103/103 104/104/104
f 105/105/105 106/106/106 107/107/107
f 105/105/105 107/107/107 108/108/108
f 109/109/109 110/110/110 111/111/111
f 109/109/109 111/111/111 112/112/112
f 113/113/113 114/114/114 115/115/115
f 113/113/113 115/115/115 116/116/116
f 117/117/117 118/118/118 119/119/119
f 117/117/117 119/119/119 120/120/120
f 121/121/121 122/122/122 123/123/123
f 121/121/121 123/123/123 124/124/124
f 125/125/125 126/126/126 127/127/127
f 125/125/125 127/127/127 128/128/128
f 129/129/129 130/130/130 131/131/131
f 129/129/129 131/131/131 132/132/132
f 133/133/133 134/134/134 135/135/135
f 133/133/133 135/135/135 136/136/136
f 137/137/137 138/138/138 139/139/139
f 137/137/137 139/139/139 140/140/140
f 141/141/141 142/142/142 143/143/143
f 141/141/141 143/143/143 144/144/144
f 145/145/145 146/146/146 147/147/147
f 145/145/145 147/147/147 148/148/148
f 149/149/149 150/150/150 151/151/151
f 149/149/149 151/151/151 152/152/152
f 153/153/153 154/154/154 155/155/155
f 153/153/153 155/155/155 156/156/156
f 157/157/157 158/158/158 159/159/159
f 157/157/157 159/159/159 160/160/160
f 161/161/161 162/162/162 163/163/163
f 161/161/161 163/163/163 164/164/164
f 165/165/165 166/166/166 167/167/167
f 165/165/165 167/167/167 168/168/168
f 169/169/169 170/170/170 171/171/171
f 169/169/169 171/171/171 172/172/172
f 173/173/173 174/174/174 175/175/175
f 173/173/173 175/175/175 176/176/176
f 177/177/177 178/178/178 179/179/179
f 177/177/177 179/179/179 180/180/180
f 181/181/181 182/182/182 183/183/183
f 181/181/181 183/183/183 184/184/184
f 185/185/185 186/186/186 187/187/187
f 185/185/185 187/187/187 188/188/188
f 189/189/189 190/190/190 191/191/191
f 189/189/189 191/191/191 192/192/192
f 193/193/193 194/194/194 195/195/195
f 196/196/196 197/197/197 198/198/198
f 199/199/199 200/200/200 201/201/201
f 202/202/202 203/203/203 204/204/204
f 205/205/205 206/206/206 207/207/207
f 208/208/208 209/209/209 210/210/210
f 211/211/211 212/212/212 213/213/213
f 214/214/214 215/215/215 216/216/216
f 217/217/217 218/218/218 219/219/219
f 217/217/217 219/219/219 220/220/220
f 221/221/221 222/222/222 223/223/223
f 221/221/221 223/223/223 224/224/224
f 225/225/225 226/226/226 227/227/227
f 225/225/225 227/227/227 228/228/228
f 229/229/229 230/230/230 231/231/231
f 229/229/229 231/231/231 232/232/232
f 233/233/233 234/234/234 235/235/235
f 233/233/233 235/235/235 236/236/236
f 237/237/237 238/238/238 239/239/239
f 237/237/237 239/239/239 240/240/240
f 241/241/241 242/242/242 243/243/243
f 241/241/241 243/243/243 244/244/244
f 245/245/245 246/246/246 247/247/247
f 245/245/245 247/247/247 248/248/248
f 249/249/249 250/250/250 251/251/251
f 249/249/249 251/251/251 252/252/252
f 253/253/253 254/254/254 255/255/255
f 253/253/253 255/255/255 256/256/256
f 257/257/257 258/258/258 259/259/259
f 257/257/257 259/259/259 260/260/260
f 261/261/261 262/262/262 263/263/263
f 261/261/261 263/263/263 264/264/264
f 265/265/265 266/266/266 267/267/267
f 265/265/265 267/267/267 268/268/268
f 269/269/269 270/270/270 271/271/271
f 269/269/269 271/271/271 272/272/272
f 273/273/273 274/274/274 275/275/275
f 273/273/273 275/275/275 276/276/276
f 277/277/277 278/278/278 279/279/279
f 277/277/277 279/279/279 280/280/280
f 281/281/281 282/282/282 283/283/283
f 281/281/281 283/283/283 284/284/284
f 285/285/285 286/286/286 287/287/287
f 285/285/285 287/287/287 288/288/288
f 289/289/289 290/290/290 291/291/291
f 292/292/292 293/293/293 294/294/294
f 295/295/295 296/296/296 297/297/297
f 298/298/298 299/299/299 300/300/300
f 301/301/301 302/302/302 303/303/303
f 304/304/304 305/305/305 306/306/306
f 307/307/307 308/308/308 309/309/309
f 310/310/310 311/311/311 312/312/312
f 313/313/313 314/314/314 315/315/315
f 313/313/313 315/315/315 316/316/316
f 317/317/317 318/318/318 319/319/319
f 317/317/317 319/319/319 320/320/320
f 321/321/321 322/322/322 323/323/323
f 321/321/321 323/323/323 324/324/324
f 325/325/325 326/326/326 327/327/327
f 325/325/325 327/327/327 328/328/328
f 329/329/329 330/330/330 331/331/331
f 329/329/329 331/331/331 332/332/332
f 333/333/333 334/334/334 335/335/335
f 333/333/333 335/335/335 336/336/336
f 337/337/337 338/338/338 339/339/339
f 337/337/337 339/339/339 340/340/340
f 341/341/341 342/342/342 343/343/343
f 341/341/341 343/343/343 344/344/344
f 345/345/345 346/346/346 347/347/347
f 345/345/345 347/347/347 348/348/348
f 349/349/349 350/350/350 351/351/351
f 349/349/349 351/351/351 352/352/352
f 353/353/353 354/354/354 355/355/355
f 353/353/353 355/355/355 356/356/356
f 357/357/357 358/358/358 359/359/359
f 357/357/357 359/359/359 360/360/360
f 361/361/361 362/362/362 363/363/363
f 361/361/361 363/363/363 364/364/364
f 365/365/365 366/366/366 367/367/367
f 365/365/365 367/367/367 368/368/368
f 369/369/369 370/370/370 371/371/371
f 369/369/369 371/371/371 372/372/372
f 373/373/373 374/374/374 375/375/375
f 373/373/373 375/375/375 376/376/376
f 377/377/377 378/378/378 379/379/379
f 377/377/377 379/379/379 380/380/380
f 381/381/381 382/382/382 383/383/383
f 381/381/381 383/383/383 384/384/384
f 385/385/385 386/386/386 387/387/387
f 388/388/388 389/389/389 390/390/390
f 391/391/391 392/392/392 393/393/393
f 394/394/394 395/395/395 396/396/396
f 397/397/397 398/398/398 399/399/399
f 400/400/400 401/401/401 402/402/402
f 403/403/403 404/404/404 405/405/405
f 406/406/406 407/407/407 408/408/408
f 409/409/409 410/410/410 411/411/411
f 409/409/409 411/411/411 412/412/412
f 413/413/413 414/414/414 415/415/415
f 413/413/413 415/415/415 416/416/416
f 417/417/417 418/418/418 419/419/419
f 417/417/417 419/419/419 420/420/420
f 421/421/421 422/422/422 423/423/423
f 421/421/421 423/423/423 424/424/424
f 425/425/425 426/426/426 427/427/427
f 425/425/425 427/427/427 428/428/428
f 429/429/429 430/430/430 431/431/431
f 429/429/429 431/431/431 432/432/432
f 433/433/433 434/434/434 435/435/435
f 433/433/433 435/435/435 436/436/436
f 437/437/437 438/438/438 439/439/439
f 437/437/437 439/439/439 440/440/440
f 441/441/441 442/442/442 443/443/443
f 441/441/441 443/443/443 444/444/444
f 445/445/445 446/446/446 447/447/447
f 445/445/445 447/447/447 448/448/448
f 449/449/449 450/450/450 451/451/451
f 449/449/449 451/451/451 452/452/452
f 453/453/453 454/454/454 455/455/455
f 453/453/453 455/455/455 456/456/456
f 457/457/457 458/458/458 459/459/459
f 457/457/457 459/459/459 460/460/460
f 461/461/461 462/462/462 463/463/463
f 461/461/461 463/463/463 464/464/464
f 465/465/465 466/466/466 467/467/467
f 465/465/465 467/467/467 468/468/468
f 469/469/469 470/470/470 471/471/471
f 469/469/469 471/471/471 472/472/472
f 473/473/473 474/474/474 475/475/475
f 473/473/473 475/475/475 476/476/476
f 477/477/477 478/478/478 479/479/479
f 477/477/477 479/479/479 480/480/480
f 481/481/481 482/482/482 483/483/483
f 481/481/481 483/483/483 484/484/484
f 485/485/485 486/486/486 487/487/487
f 485/485/485 487/487/487 488/488/488
f 489/489/489 490/490/490 491/491/491
f 489/489/489 491/491/491 492/492/492
f 493/493/493 494/494/494 495/495/495
f 493/493/493 495/495/495 496/496/496
f 497/497/497 498/498/498 499/499/499
f 497/497/497 499/499/499 500/500/500
f 501/501/501 502/502/502 503/503/503
f 501/501/501 503/503/503 504/504/504
f 505/505/505 506/506/506 507/507/507
f 508/508/508 509/509/509 510/510/510
f 511/511/511 512/512/512 513/513/513
f 514/514/514 515/515/515 516/516/516
f 517/517/517 518/518/518 519/519/519
f 520/520/520 521/521/521 522/522/522
f 523/523/523 524/524/524 525/525/525
f 526/526/526 527/527/527 528/528/528
