# TERRAFRONT procedural asset — generated by Tools/assetgen (deterministic)
# Y-up, +Z forward (muzzle), units = meters, pivot at grip/origin.
# prop_antenna_mast — TERRAFRONT P3
mtllib tf_utility.mtl
o prop_antenna_mast
v -0.3800 0.0200 -0.4000
v -0.3800 0.1800 -0.4000
v 0.3800 0.1800 -0.4000
v 0.3800 0.0200 -0.4000
v 0.3800 0.0200 0.4000
v 0.3800 0.1800 0.4000
v -0.3800 0.1800 0.4000
v -0.3800 0.0200 0.4000
v -0.3800 0.2000 -0.3800
v -0.3800 0.2000 0.3800
v 0.3800 0.2000 0.3800
v 0.3800 0.2000 -0.3800
v -0.3800 0.0000 -0.3800
v 0.3800 0.0000 -0.3800
v 0.3800 0.0000 0.3800
v -0.3800 0.0000 0.3800
v 0.4000 0.0200 -0.3800
v 0.4000 0.1800 -0.3800
v 0.4000 0.1800 0.3800
v 0.4000 0.0200 0.3800
v -0.4000 0.0200 0.3800
v -0.4000 0.1800 0.3800
v -0.4000 0.1800 -0.3800
v -0.4000 0.0200 -0.3800
v -0.3800 0.2000 -0.3800
v 0.3800 0.2000 -0.3800
v 0.3800 0.1800 -0.4000
v -0.3800 0.1800 -0.4000
v 0.3800 0.2000 0.3800
v -0.3800 0.2000 0.3800
v -0.3800 0.1800 0.4000
v 0.3800 0.1800 0.4000
v 0.3800 0.0000 -0.3800
v -0.3800 0.0000 -0.3800
v -0.3800 0.0200 -0.4000
v 0.3800 0.0200 -0.4000
v -0.3800 0.0000 0.3800
v 0.3800 0.0000 0.3800
v 0.3800 0.0200 0.4000
v -0.3800 0.0200 0.4000
v 0.4000 0.1800 -0.3800
v 0.4000 0.1800 0.3800
v 0.3800 0.2000 0.3800
v 0.3800 0.2000 -0.3800
v 0.4000 0.0200 0.3800
v 0.4000 0.0200 -0.3800
v 0.3800 0.0000 -0.3800
v 0.3800 0.0000 0.3800
v -0.4000 0.1800 0.3800
v -0.4000 0.1800 -0.3800
v -0.3800 0.2000 -0.3800
v -0.3800 0.2000 0.3800
v -0.4000 0.0200 -0.3800
v -0.4000 0.0200 0.3800
v -0.3800 0.0000 0.3800
v -0.3800 0.0000 -0.3800
v 0.4000 0.1800 -0.3800
v 0.3800 0.1800 -0.4000
v 0.3800 0.0200 -0.4000
v 0.4000 0.0200 -0.3800
v 0.4000 0.0200 0.3800
v 0.3800 0.0200 0.4000
v 0.3800 0.1800 0.4000
v 0.4000 0.1800 0.3800
v -0.4000 0.0200 -0.3800
v -0.3800 0.0200 -0.4000
v -0.3800 0.1800 -0.4000
v -0.4000 0.1800 -0.3800
v -0.4000 0.1800 0.3800
v -0.3800 0.1800 0.4000
v -0.3800 0.0200 0.4000
v -0.4000 0.0200 0.3800
v 0.3800 0.2000 0.3800
v 0.4000 0.1800 0.3800
v 0.3800 0.1800 0.4000
v -0.3800 0.1800 0.4000
v -0.4000 0.1800 0.3800
v -0.3800 0.2000 0.3800
v 0.3800 0.0200 0.4000
v 0.4000 0.0200 0.3800
v 0.3800 0.0000 0.3800
v -0.3800 0.0000 0.3800
v -0.4000 0.0200 0.3800
v -0.3800 0.0200 0.4000
v 0.3800 0.1800 -0.4000
v 0.4000 0.1800 -0.3800
v 0.3800 0.2000 -0.3800
v -0.3800 0.2000 -0.3800
v -0.4000 0.1800 -0.3800
v -0.3800 0.1800 -0.4000
v 0.3800 0.0000 -0.3800
v 0.4000 0.0200 -0.3800
v 0.3800 0.0200 -0.4000
v -0.3800 0.0200 -0.4000
v -0.4000 0.0200 -0.3800
v -0.3800 0.0000 -0.3800
v 0.0900 5.8000 -0.0000
v 0.0636 5.8000 0.0636
v 0.0354 0.2000 0.0354
v 0.0500 0.2000 0.0000
v 0.0636 5.8000 0.0636
v 0.0000 5.8000 0.0900
v 0.0000 0.2000 0.0500
v 0.0354 0.2000 0.0354
v 0.0000 5.8000 0.0900
v -0.0636 5.8000 0.0636
v -0.0354 0.2000 0.0354
v 0.0000 0.2000 0.0500
v -0.0636 5.8000 0.0636
v -0.0900 5.8000 -0.0000
v -0.0500 0.2000 0.0000
v -0.0354 0.2000 0.0354
v -0.0900 5.8000 -0.0000
v -0.0636 5.8000 -0.0636
v -0.0354 0.2000 -0.0354
v -0.0500 0.2000 0.0000
v -0.0636 5.8000 -0.0636
v -0.0000 5.8000 -0.0900
v -0.0000 0.2000 -0.0500
v -0.0354 0.2000 -0.0354
v -0.0000 5.8000 -0.0900
v 0.0636 5.8000 -0.0636
v 0.0354 0.2000 -0.0354
v -0.0000 0.2000 -0.0500
v 0.0636 5.8000 -0.0636
v 0.0900 5.8000 -0.0000
v 0.0500 0.2000 0.0000
v 0.0354 0.2000 -0.0354
v 0.0636 5.8000 -0.0636
v -0.0000 5.8000 -0.0900
v -0.0636 5.8000 -0.0636
v -0.0900 5.8000 -0.0000
v -0.0636 5.8000 0.0636
v 0.0000 5.8000 0.0900
v 0.0636 5.8000 0.0636
v 0.0900 5.8000 -0.0000
v 0.0500 0.2000 0.0000
v 0.0354 0.2000 0.0354
v 0.0000 0.2000 0.0500
v -0.0354 0.2000 0.0354
v -0.0500 0.2000 0.0000
v -0.0354 0.2000 -0.0354
v -0.0000 0.2000 -0.0500
v 0.0354 0.2000 -0.0354
v -0.4500 4.3750 -0.0250
v -0.4500 4.4250 -0.0250
v 0.4500 4.4250 -0.0250
v 0.4500 4.3750 -0.0250
v 0.4500 4.3750 0.0250
v 0.4500 4.4250 0.0250
v -0.4500 4.4250 0.0250
v -0.4500 4.3750 0.0250
v -0.4500 4.4250 -0.0250
v -0.4500 4.4250 0.0250
v 0.4500 4.4250 0.0250
v 0.4500 4.4250 -0.0250
v -0.4500 4.3750 -0.0250
v 0.4500 4.3750 -0.0250
v 0.4500 4.3750 0.0250
v -0.4500 4.3750 0.0250
v 0.4500 4.3750 -0.0250
v 0.4500 4.4250 -0.0250
v 0.4500 4.4250 0.0250
v 0.4500 4.3750 0.0250
v -0.4500 4.3750 0.0250
v -0.4500 4.4250 0.0250
v -0.4500 4.4250 -0.0250
v -0.4500 4.3750 -0.0250
v -0.3000 4.9750 -0.0250
v -0.3000 5.0250 -0.0250
v 0.3000 5.0250 -0.0250
v 0.3000 4.9750 -0.0250
v 0.3000 4.9750 0.0250
v 0.3000 5.0250 0.0250
v -0.3000 5.0250 0.0250
v -0.3000 4.9750 0.0250
v -0.3000 5.0250 -0.0250
v -0.3000 5.0250 0.0250
v 0.3000 5.0250 0.0250
v 0.3000 5.0250 -0.0250
v -0.3000 4.9750 -0.0250
v 0.3000 4.9750 -0.0250
v 0.3000 4.9750 0.0250
v -0.3000 4.9750 0.0250
v 0.3000 4.9750 -0.0250
v 0.3000 5.0250 -0.0250
v 0.3000 5.0250 0.0250
v 0.3000 4.9750 0.0250
v -0.3000 4.9750 0.0250
v -0.3000 5.0250 0.0250
v -0.3000 5.0250 -0.0250
v -0.3000 4.9750 -0.0250
v 0.0500 5.9900 -0.0000
v 0.0250 5.9900 0.0433
v 0.0150 5.8100 0.0260
v 0.0300 5.8100 0.0000
v 0.0250 5.9900 0.0433
v -0.0250 5.9900 0.0433
v -0.0150 5.8100 0.0260
v 0.0150 5.8100 0.0260
v -0.0250 5.9900 0.0433
v -0.0500 5.9900 0.0000
v -0.0300 5.8100 0.0000
v -0.0150 5.8100 0.0260
v -0.0500 5.9900 0.0000
v -0.0250 5.9900 -0.0433
v -0.0150 5.8100 -0.0260
v -0.0300 5.8100 0.0000
v -0.0250 5.9900 -0.0433
v 0.0250 5.9900 -0.0433
v 0.0150 5.8100 -0.0260
v -0.0150 5.8100 -0.0260
v 0.0250 5.9900 -0.0433
v 0.0500 5.9900 -0.0000
v 0.0300 5.8100 0.0000
v 0.0150 5.8100 -0.0260
v 0.0250 5.9900 -0.0433
v -0.0250 5.9900 -0.0433
v -0.0500 5.9900 0.0000
v -0.0250 5.9900 0.0433
v 0.0250 5.9900 0.0433
v 0.0500 5.9900 -0.0000
v 0.0300 5.8100 0.0000
v 0.0150 5.8100 0.0260
v -0.0150 5.8100 0.0260
v -0.0300 5.8100 0.0000
v -0.0150 5.8100 -0.0260
v 0.0150 5.8100 -0.0260
vt 0.5101 0.2782
vt 0.5101 0.4718
vt 0.7399 0.4718
vt 0.7399 0.2782
vt 0.7399 0.2782
vt 0.7399 0.4718
vt 0.5101 0.4718
vt 0.5101 0.2782
vt 0.5101 0.2601
vt 0.5101 0.4899
vt 0.7399 0.4899
vt 0.7399 0.2601
vt 0.5101 0.2601
vt 0.7399 0.2601
vt 0.7399 0.4899
vt 0.5101 0.4899
vt 0.5101 0.2782
vt 0.5101 0.4718
vt 0.7399 0.4718
vt 0.7399 0.2782
vt 0.7399 0.2782
vt 0.7399 0.4718
vt 0.5101 0.4718
vt 0.5101 0.2782
vt 0.5101 0.4960
vt 0.7399 0.4960
vt 0.7399 0.4718
vt 0.5101 0.4718
vt 0.7399 0.4960
vt 0.5101 0.4960
vt 0.5101 0.4718
vt 0.7399 0.4718
vt 0.7399 0.2601
vt 0.5101 0.2601
vt 0.5101 0.2540
vt 0.7399 0.2540
vt 0.5101 0.4899
vt 0.7399 0.4899
vt 0.7399 0.4960
vt 0.5101 0.4960
vt 0.7460 0.2601
vt 0.7460 0.4899
vt 0.7399 0.4899
vt 0.7399 0.2601
vt 0.7460 0.4899
vt 0.7460 0.2601
vt 0.7399 0.2601
vt 0.7399 0.4899
vt 0.5040 0.4899
vt 0.5040 0.2601
vt 0.5101 0.2601
vt 0.5101 0.4899
vt 0.5040 0.2601
vt 0.5040 0.4899
vt 0.5101 0.4899
vt 0.5101 0.2601
vt 0.7460 0.4718
vt 0.7399 0.4718
vt 0.7399 0.2782
vt 0.7460 0.2782
vt 0.7460 0.2782
vt 0.7399 0.2782
vt 0.7399 0.4718
vt 0.7460 0.4718
vt 0.5040 0.2782
vt 0.5101 0.2782
vt 0.5101 0.4718
vt 0.5040 0.4718
vt 0.5040 0.4718
vt 0.5101 0.4718
vt 0.5101 0.2782
vt 0.5040 0.2782
vt 0.7399 0.4960
vt 0.7399 0.4718
vt 0.7460 0.4718
vt 0.7460 0.4718
vt 0.7399 0.4718
vt 0.7399 0.4960
vt 0.7399 0.4960
vt 0.7460 0.4899
vt 0.7399 0.4899
vt 0.5101 0.4899
vt 0.5040 0.4899
vt 0.5101 0.4960
vt 0.5040 0.4718
vt 0.5101 0.4718
vt 0.5101 0.4960
vt 0.5101 0.4960
vt 0.5101 0.4718
vt 0.5040 0.4718
vt 0.7399 0.2601
vt 0.7460 0.2601
vt 0.7399 0.2540
vt 0.5101 0.2540
vt 0.5040 0.2601
vt 0.5101 0.2601
vt 0.8750 0.4960
vt 0.9606 0.4960
vt 0.9225 0.2540
vt 0.8750 0.2540
vt 0.9606 0.4960
vt 0.8750 0.4960
vt 0.8750 0.2540
vt 0.9225 0.2540
vt 0.8750 0.4960
vt 0.7894 0.4960
vt 0.8275 0.2540
vt 0.8750 0.2540
vt 0.9606 0.4960
vt 0.8750 0.4960
vt 0.8750 0.2540
vt 0.9225 0.2540
vt 0.8750 0.4960
vt 0.7894 0.4960
vt 0.8275 0.2540
vt 0.8750 0.2540
vt 0.7894 0.4960
vt 0.8750 0.4960
vt 0.8750 0.2540
vt 0.8275 0.2540
vt 0.8750 0.4960
vt 0.9606 0.4960
vt 0.9225 0.2540
vt 0.8750 0.2540
vt 0.7894 0.4960
vt 0.8750 0.4960
vt 0.8750 0.2540
vt 0.8275 0.2540
vt 0.9606 0.2894
vt 0.8750 0.2540
vt 0.7894 0.2894
vt 0.7540 0.3750
vt 0.7894 0.4606
vt 0.8750 0.4960
vt 0.9606 0.4606
vt 0.9960 0.3750
vt 0.9422 0.3750
vt 0.9225 0.4225
vt 0.8750 0.4422
vt 0.8275 0.4225
vt 0.8078 0.3750
vt 0.8275 0.3275
vt 0.8750 0.3078
vt 0.9225 0.3275
vt 0.0040 0.2540
vt 0.0040 0.4960
vt 0.4960 0.4960
vt 0.4960 0.2540
vt 0.4960 0.2540
vt 0.4960 0.4960
vt 0.0040 0.4960
vt 0.0040 0.2540
vt 0.0040 0.2540
vt 0.0040 0.4960
vt 0.4960 0.4960
vt 0.4960 0.2540
vt 0.0040 0.2540
vt 0.4960 0.2540
vt 0.4960 0.4960
vt 0.0040 0.4960
vt 0.0040 0.2540
vt 0.0040 0.4960
vt 0.4960 0.4960
vt 0.4960 0.2540
vt 0.4960 0.2540
vt 0.4960 0.4960
vt 0.0040 0.4960
vt 0.0040 0.2540
vt 0.0040 0.2540
vt 0.0040 0.4960
vt 0.4960 0.4960
vt 0.4960 0.2540
vt 0.4960 0.2540
vt 0.4960 0.4960
vt 0.0040 0.4960
vt 0.0040 0.2540
vt 0.0040 0.2540
vt 0.0040 0.4960
vt 0.4960 0.4960
vt 0.4960 0.2540
vt 0.0040 0.2540
vt 0.4960 0.2540
vt 0.4960 0.4960
vt 0.0040 0.4960
vt 0.0040 0.2540
vt 0.0040 0.4960
vt 0.4960 0.4960
vt 0.4960 0.2540
vt 0.4960 0.2540
vt 0.4960 0.4960
vt 0.0040 0.4960
vt 0.0040 0.2540
vt 0.3750 0.1210
vt 0.4960 0.1210
vt 0.4476 0.0040
vt 0.3750 0.0040
vt 0.4355 0.1210
vt 0.3145 0.1210
vt 0.3387 0.0040
vt 0.4113 0.0040
vt 0.4960 0.1210
vt 0.3750 0.1210
vt 0.3750 0.0040
vt 0.4476 0.0040
vt 0.3750 0.1210
vt 0.2540 0.1210
vt 0.3024 0.0040
vt 0.3750 0.0040
vt 0.3145 0.1210
vt 0.4355 0.1210
vt 0.4113 0.0040
vt 0.3387 0.0040
vt 0.2540 0.1210
vt 0.3750 0.1210
vt 0.3750 0.0040
vt 0.3024 0.0040
vt 0.4355 0.0040
vt 0.3145 0.0040
vt 0.2540 0.0625
vt 0.3145 0.1210
vt 0.4355 0.1210
vt 0.4960 0.0625
vt 0.4476 0.0625
vt 0.4113 0.0976
vt 0.3387 0.0976
vt 0.3024 0.0625
vt 0.3387 0.0274
vt 0.4113 0.0274
vn 0.0000 0.0000 -1.0000
vn 0.0000 0.0000 -1.0000
vn 0.0000 0.0000 -1.0000
vn 0.0000 0.0000 -1.0000
vn 0.0000 0.0000 1.0000
vn 0.0000 0.0000 1.0000
vn 0.0000 0.0000 1.0000
vn 0.0000 0.0000 1.0000
vn 0.0000 1.0000 0.0000
vn 0.0000 1.0000 0.0000
vn 0.0000 1.0000 0.0000
vn 0.0000 1.0000 0.0000
vn 0.0000 -1.0000 0.0000
vn 0.0000 -1.0000 0.0000
vn 0.0000 -1.0000 0.0000
vn 0.0000 -1.0000 0.0000
vn 1.0000 0.0000 0.0000
vn 1.0000 0.0000 0.0000
vn 1.0000 0.0000 0.0000
vn 1.0000 0.0000 0.0000
vn -1.0000 0.0000 0.0000
vn -1.0000 0.0000 0.0000
vn -1.0000 0.0000 0.0000
vn -1.0000 0.0000 0.0000
vn 0.0000 0.7071 -0.7071
vn 0.0000 0.7071 -0.7071
vn 0.0000 0.7071 -0.7071
vn 0.0000 0.7071 -0.7071
vn 0.0000 0.7071 0.7071
vn 0.0000 0.7071 0.7071
vn 0.0000 0.7071 0.7071
vn 0.0000 0.7071 0.7071
vn 0.0000 -0.7071 -0.7071
vn 0.0000 -0.7071 -0.7071
vn 0.0000 -0.7071 -0.7071
vn 0.0000 -0.7071 -0.7071
vn 0.0000 -0.7071 0.7071
vn 0.0000 -0.7071 0.7071
vn 0.0000 -0.7071 0.7071
vn 0.0000 -0.7071 0.7071
vn -0.7071 -0.7071 0.0000
vn -0.7071 -0.7071 0.0000
vn -0.7071 -0.7071 0.0000
vn -0.7071 -0.7071 0.0000
vn -0.7071 0.7071 0.0000
vn -0.7071 0.7071 0.0000
vn -0.7071 0.7071 0.0000
vn -0.7071 0.7071 0.0000
vn 0.7071 -0.7071 0.0000
vn 0.7071 -0.7071 0.0000
vn 0.7071 -0.7071 0.0000
vn 0.7071 -0.7071 0.0000
vn 0.7071 0.7071 0.0000
vn 0.7071 0.7071 0.0000
vn 0.7071 0.7071 0.0000
vn 0.7071 0.7071 0.0000
vn -0.7071 0.0000 0.7071
vn -0.7071 0.0000 0.7071
vn -0.7071 0.0000 0.7071
vn -0.7071 0.0000 0.7071
vn -0.7071 0.0000 -0.7071
vn -0.7071 0.0000 -0.7071
vn -0.7071 0.0000 -0.7071
vn -0.7071 0.0000 -0.7071
vn 0.7071 0.0000 0.7071
vn 0.7071 0.0000 0.7071
vn 0.7071 0.0000 0.7071
vn 0.7071 0.0000 0.7071
vn 0.7071 0.0000 -0.7071
vn 0.7071 0.0000 -0.7071
vn 0.7071 0.0000 -0.7071
vn 0.7071 0.0000 -0.7071
vn -0.5774 -0.5774 -0.5774
vn -0.5774 -0.5774 -0.5774
vn -0.5774 -0.5774 -0.5774
vn 0.5774 -0.5774 -0.5774
vn 0.5774 -0.5774 -0.5774
vn 0.5774 -0.5774 -0.5774
vn -0.5774 0.5774 -0.5774
vn -0.5774 0.5774 -0.5774
vn -0.5774 0.5774 -0.5774
vn 0.5774 0.5774 -0.5774
vn 0.5774 0.5774 -0.5774
vn 0.5774 0.5774 -0.5774
vn -0.5774 -0.5774 0.5774
vn -0.5774 -0.5774 0.5774
vn -0.5774 -0.5774 0.5774
vn 0.5774 -0.5774 0.5774
vn 0.5774 -0.5774 0.5774
vn 0.5774 -0.5774 0.5774
vn -0.5774 0.5774 0.5774
vn -0.5774 0.5774 0.5774
vn -0.5774 0.5774 0.5774
vn 0.5774 0.5774 0.5774
vn 0.5774 0.5774 0.5774
vn 0.5774 0.5774 0.5774
vn 0.9239 -0.0066 0.3827
vn 0.9239 -0.0066 0.3827
vn 0.9239 -0.0066 0.3827
vn 0.9239 -0.0066 0.3827
vn 0.3827 -0.0066 0.9239
vn 0.3827 -0.0066 0.9239
vn 0.3827 -0.0066 0.9239
vn 0.3827 -0.0066 0.9239
vn -0.3827 -0.0066 0.9239
vn -0.3827 -0.0066 0.9239
vn -0.3827 -0.0066 0.9239
vn -0.3827 -0.0066 0.9239
vn -0.9239 -0.0066 0.3827
vn -0.9239 -0.0066 0.3827
vn -0.9239 -0.0066 0.3827
vn -0.9239 -0.0066 0.3827
vn -0.9239 -0.0066 -0.3827
vn -0.9239 -0.0066 -0.3827
vn -0.9239 -0.0066 -0.3827
vn -0.9239 -0.0066 -0.3827
vn -0.3827 -0.0066 -0.9239
vn -0.3827 -0.0066 -0.9239
vn -0.3827 -0.0066 -0.9239
vn -0.3827 -0.0066 -0.9239
vn 0.3827 -0.0066 -0.9239
vn 0.3827 -0.0066 -0.9239
vn 0.3827 -0.0066 -0.9239
vn 0.3827 -0.0066 -0.9239
vn 0.9239 -0.0066 -0.3827
vn 0.9239 -0.0066 -0.3827
vn 0.9239 -0.0066 -0.3827
vn 0.9239 -0.0066 -0.3827
vn 0.0000 1.0000 0.0000
vn 0.0000 1.0000 0.0000
vn 0.0000 1.0000 0.0000
vn 0.0000 1.0000 0.0000
vn 0.0000 1.0000 0.0000
vn 0.0000 1.0000 0.0000
vn 0.0000 1.0000 0.0000
vn 0.0000 1.0000 0.0000
vn 0.0000 -1.0000 -0.0000
vn 0.0000 -1.0000 -0.0000
vn 0.0000 -1.0000 -0.0000
vn 0.0000 -1.0000 -0.0000
vn 0.0000 -1.0000 -0.0000
vn 0.0000 -1.0000 -0.0000
vn 0.0000 -1.0000 -0.0000
vn 0.0000 -1.0000 -0.0000
vn 0.0000 0.0000 -1.0000
vn 0.0000 0.0000 -1.0000
vn 0.0000 0.0000 -1.0000
vn 0.0000 0.0000 -1.0000
vn 0.0000 0.0000 1.0000
vn 0.0000 0.0000 1.0000
vn 0.0000 0.0000 1.0000
vn 0.0000 0.0000 1.0000
vn 0.0000 1.0000 0.0000
vn 0.0000 1.0000 0.0000
vn 0.0000 1.0000 0.0000
vn 0.0000 1.0000 0.0000
vn 0.0000 -1.0000 0.0000
vn 0.0000 -1.0000 0.0000
vn 0.0000 -1.0000 0.0000
vn 0.0000 -1.0000 0.0000
vn 1.0000 0.0000 0.0000
vn 1.0000 0.0000 0.0000
vn 1.0000 0.0000 0.0000
vn 1.0000 0.0000 0.0000
vn -1.0000 0.0000 0.0000
vn -1.0000 0.0000 0.0000
vn -1.0000 0.0000 0.0000
vn -1.0000 0.0000 0.0000
vn 0.0000 0.0000 -1.0000
vn 0.0000 0.0000 -1.0000
vn 0.0000 0.0000 -1.0000
vn 0.0000 0.0000 -1.0000
vn 0.0000 0.0000 1.0000
vn 0.0000 0.0000 1.0000
vn 0.0000 0.0000 1.0000
vn 0.0000 0.0000 1.0000
vn 0.0000 1.0000 0.0000
vn 0.0000 1.0000 0.0000
vn 0.0000 1.0000 0.0000
vn 0.0000 1.0000 0.0000
vn 0.0000 -1.0000 0.0000
vn 0.0000 -1.0000 0.0000
vn 0.0000 -1.0000 0.0000
vn 0.0000 -1.0000 0.0000
vn 1.0000 0.0000 0.0000
vn 1.0000 0.0000 0.0000
vn 1.0000 0.0000 0.0000
vn 1.0000 0.0000 0.0000
vn -1.0000 0.0000 0.0000
vn -1.0000 0.0000 0.0000
vn -1.0000 0.0000 0.0000
vn -1.0000 0.0000 0.0000
vn 0.8620 -0.0958 0.4977
vn 0.8620 -0.0958 0.4977
vn 0.8620 -0.0958 0.4977
vn 0.8620 -0.0958 0.4977
vn 0.0000 -0.0958 0.9954
vn 0.0000 -0.0958 0.9954
vn 0.0000 -0.0958 0.9954
vn 0.0000 -0.0958 0.9954
vn -0.8620 -0.0958 0.4977
vn -0.8620 -0.0958 0.4977
vn -0.8620 -0.0958 0.4977
vn -0.8620 -0.0958 0.4977
vn -0.8620 -0.0958 -0.4977
vn -0.8620 -0.0958 -0.4977
vn -0.8620 -0.0958 -0.4977
vn -0.8620 -0.0958 -0.4977
vn -0.0000 -0.0958 -0.9954
vn -0.0000 -0.0958 -0.9954
vn -0.0000 -0.0958 -0.9954
vn -0.0000 -0.0958 -0.9954
vn 0.8620 -0.0958 -0.4977
vn 0.8620 -0.0958 -0.4977
vn 0.8620 -0.0958 -0.4977
vn 0.8620 -0.0958 -0.4977
vn 0.0000 1.0000 -0.0000
vn 0.0000 1.0000 -0.0000
vn 0.0000 1.0000 -0.0000
vn 0.0000 1.0000 -0.0000
vn 0.0000 1.0000 -0.0000
vn 0.0000 1.0000 -0.0000
vn 0.0000 -1.0000 -0.0000
vn 0.0000 -1.0000 -0.0000
vn 0.0000 -1.0000 -0.0000
vn 0.0000 -1.0000 -0.0000
vn 0.0000 -1.0000 -0.0000
vn 0.0000 -1.0000 -0.0000
usemtl TF_Utility
f 1/1/1 2/2/2 3/3/3
f 1/1/1 3/3/3 4/4/4
f 5/5/5 6/6/6 7/7/7
f 5/5/5 7/7/7 8/8/8
f 9/9/9 10/10/10 11/11/11
f 9/9/9 11/11/11 12/12/12
f 13/13/13 14/14/14 15/15/15
f 13/13/13 15/15/15 16/16/16
f 17/17/17 18/18/18 19/19/19
f 17/17/17 19/19/19 20/20/20
f 21/21/21 22/22/22 23/23/23
f 21/21/21 23/23/23 24/24/24
f 25/25/25 26/26/26 27/27/27
f 25/25/25 27/27/27 28/28/28
f 29/29/29 30/30/30 31/31/31
f 29/29/29 31/31/31 32/32/32
f 33/33/33 34/34/34 35/35/35
f 33/33/33 35/35/35 36/36/36
f 37/37/37 38/38/38 39/39/39
f 37/37/37 39/39/39 40/40/40
f 41/41/41 42/42/42 43/43/43
f 41/41/41 43/43/43 44/44/44
f 45/45/45 46/46/46 47/47/47
f 45/45/45 47/47/47 48/48/48
f 49/49/49 50/50/50 51/51/51
f 49/49/49 51/51/51 52/52/52
f 53/53/53 54/54/54 55/55/55
f 53/53/53 55/55/55 56/56/56
f 57/57/57 58/58/58 59/59/59
f 57/57/57 59/59/59 60/60/60
f 61/61/61 62/62/62 63/63/63
f 61/61/61 63/63/63 64/64/64
f 65/65/65 66/66/66 67/67/67
f 65/65/65 67/67/67 68/68/68
f 69/69/69 70/70/70 71/71/71
f 69/69/69 71/71/71 72/72/72
f 73/73/73 74/74/74 75/75/75
f 76/76/76 77/77/77 78/78/78
f 79/79/79 80/80/80 81/81/81
f 82/82/82 83/83/83 84/84/84
f 85/85/85 86/86/86 87/87/87
f 88/88/88 89/89/89 90/90/90
f 91/91/91 92/92/92 93/93/93
f 94/94/94 95/95/95 96/96/96
f 97/97/97 98/98/98 99/99/99
f 97/97/97 99/99/99 100/100/100
f 101/101/101 102/102/102 103/103/103
f 101/101/101 103/103/103 104/104/104
f 105/105/105 106/106/106 107/107/107
f 105/105/105 107/107/107 108/108/108
f 109/109/109 110/110/110 111/111/111
f 109/109/109 111/111/111 112/112/112
f 113/113/113 114/114/114 115/115/115
f 113/113/113 115/115/115 116/116/116
f 117/117/117 118/118/118 119/119/119
f 117/117/117 119/119/119 120/120/120
f 121/121/121 122/122/122 123/123/123
f 121/121/121 123/123/123 124/124/124
f 125/125/125 126/126/126 127/127/127
f 125/125/125 127/127/127 128/128/128
f 129/129/129 130/130/130 131/131/131
f 129/129/129 131/131/131 132/132/132
f 129/129/129 132/132/132 133/133/133
f 129/129/129 133/133/133 134/134/134
f 129/129/129 134/134/134 135/135/135
f 129/129/129 135/135/135 136/136/136
f 137/137/137 138/138/138 139/139/139
f 137/137/137 139/139/139 140/140/140
f 137/137/137 140/140/140 141/141/141
f 137/137/137 141/141/141 142/142/142
f 137/137/137 142/142/142 143/143/143
f 137/137/137 143/143/143 144/144/144
f 145/145/145 146/146/146 147/147/147
f 145/145/145 147/147/147 148/148/148
f 149/149/149 150/150/150 151/151/151
f 149/149/149 151/151/151 152/152/152
f 153/153/153 154/154/154 155/155/155
f 153/153/153 155/155/155 156/156/156
f 157/157/157 158/158/158 159/159/159
f 157/157/157 159/159/159 160/160/160
f 161/161/161 162/162/162 163/163/163
f 161/161/161 163/163/163 164/164/164
f 165/165/165 166/166/166 167/167/167
f 165/165/165 167/167/167 168/168/168
f 169/169/169 170/170/170 171/171/171
f 169/169/169 171/171/171 172/172/172
f 173/173/173 174/174/174 175/175/175
f 173/173/173 175/175/175 176/176/176
f 177/177/177 178/178/178 179/179/179
f 177/177/177 179/179/179 180/180/180
f 181/181/181 182/182/182 183/183/183
f 181/181/181 183/183/183 184/184/184
f 185/185/185 186/186/186 187/187/187
f 185/185/185 187/187/187 188/188/188
f 189/189/189 190/190/190 191/191/191
f 189/189/189 191/191/191 192/192/192
f 193/193/193 194/194/194 195/195/195
f 193/193/193 195/195/195 196/196/196
f 197/197/197 198/198/198 199/199/199
f 197/197/197 199/199/199 200/200/200
f 201/201/201 202/202/202 203/203/203
f 201/201/201 203/203/203 204/204/204
f 205/205/205 206/206/206 207/207/207
f 205/205/205 207/207/207 208/208/208
f 209/209/209 210/210/210 211/211/211
f 209/209/209 211/211/211 212/212/212
f 213/213/213 214/214/214 215/215/215
f 213/213/213 215/215/215 216/216/216
f 217/217/217 218/218/218 219/219/219
f 217/217/217 219/219/219 220/220/220
f 217/217/217 220/220/220 221/221/221
f 217/217/217 221/221/221 222/222/222
f 223/223/223 224/224/224 225/225/225
f 223/223/223 225/225/225 226/226/226
f 223/223/223 226/226/226 227/227/227
f 223/223/223 227/227/227 228/228/228
