# TERRAFRONT procedural asset — generated by Tools/assetgen (deterministic)
# Y-up, +Z forward (muzzle), units = meters, pivot at grip/origin.
# prop_pallet_stack — TERRAFRONT P3
mtllib tf_utility.mtl
o prop_pallet_stack
v -0.6900 0.0100 -0.6000
v -0.6900 0.1300 -0.6000
v 0.6900 0.1300 -0.6000
v 0.6900 0.0100 -0.6000
v 0.6900 0.0100 0.6000
v 0.6900 0.1300 0.6000
v -0.6900 0.1300 0.6000
v -0.6900 0.0100 0.6000
v -0.6900 0.1400 -0.5900
v -0.6900 0.1400 0.5900
v 0.6900 0.1400 0.5900
v 0.6900 0.1400 -0.5900
v -0.6900 0.0000 -0.5900
v 0.6900 0.0000 -0.5900
v 0.6900 0.0000 0.5900
v -0.6900 0.0000 0.5900
v 0.7000 0.0100 -0.5900
v 0.7000 0.1300 -0.5900
v 0.7000 0.1300 0.5900
v 0.7000 0.0100 0.5900
v -0.7000 0.0100 0.5900
v -0.7000 0.1300 0.5900
v -0.7000 0.1300 -0.5900
v -0.7000 0.0100 -0.5900
v -0.6900 0.1400 -0.5900
v 0.6900 0.1400 -0.5900
v 0.6900 0.1300 -0.6000
v -0.6900 0.1300 -0.6000
v 0.6900 0.1400 0.5900
v -0.6900 0.1400 0.5900
v -0.6900 0.1300 0.6000
v 0.6900 0.1300 0.6000
v 0.6900 0.0000 -0.5900
v -0.6900 0.0000 -0.5900
v -0.6900 0.0100 -0.6000
v 0.6900 0.0100 -0.6000
v -0.6900 0.0000 0.5900
v 0.6900 0.0000 0.5900
v 0.6900 0.0100 0.6000
v -0.6900 0.0100 0.6000
v 0.7000 0.1300 -0.5900
v 0.7000 0.1300 0.5900
v 0.6900 0.1400 0.5900
v 0.6900 0.1400 -0.5900
v 0.7000 0.0100 0.5900
v 0.7000 0.0100 -0.5900
v 0.6900 0.0000 -0.5900
v 0.6900 0.0000 0.5900
v -0.7000 0.1300 0.5900
v -0.7000 0.1300 -0.5900
v -0.6900 0.1400 -0.5900
v -0.6900 0.1400 0.5900
v -0.7000 0.0100 -0.5900
v -0.7000 0.0100 0.5900
v -0.6900 0.0000 0.5900
v -0.6900 0.0000 -0.5900
v 0.7000 0.1300 -0.5900
v 0.6900 0.1300 -0.6000
v 0.6900 0.0100 -0.6000
v 0.7000 0.0100 -0.5900
v 0.7000 0.0100 0.5900
v 0.6900 0.0100 0.6000
v 0.6900 0.1300 0.6000
v 0.7000 0.1300 0.5900
v -0.7000 0.0100 -0.5900
v -0.6900 0.0100 -0.6000
v -0.6900 0.1300 -0.6000
v -0.7000 0.1300 -0.5900
v -0.7000 0.1300 0.5900
v -0.6900 0.1300 0.6000
v -0.6900 0.0100 0.6000
v -0.7000 0.0100 0.5900
v 0.6900 0.1400 0.5900
v 0.7000 0.1300 0.5900
v 0.6900 0.1300 0.6000
v -0.6900 0.1300 0.6000
v -0.7000 0.1300 0.5900
v -0.6900 0.1400 0.5900
v 0.6900 0.0100 0.6000
v 0.7000 0.0100 0.5900
v 0.6900 0.0000 0.5900
v -0.6900 0.0000 0.5900
v -0.7000 0.0100 0.5900
v -0.6900 0.0100 0.6000
v 0.6900 0.1300 -0.6000
v 0.7000 0.1300 -0.5900
v 0.6900 0.1400 -0.5900
v -0.6900 0.1400 -0.5900
v -0.7000 0.1300 -0.5900
v -0.6900 0.1300 -0.6000
v 0.6900 0.0000 -0.5900
v 0.7000 0.0100 -0.5900
v 0.6900 0.0100 -0.6000
v -0.6900 0.0100 -0.6000
v -0.7000 0.0100 -0.5900
v -0.6900 0.0000 -0.5900
v -0.6138 0.1700 -0.1969
v -0.6138 0.6100 -0.1969
v 0.1195 0.6100 -0.2967
v 0.1195 0.1700 -0.2967
v 0.2138 0.1700 0.3969
v 0.2138 0.6100 0.3969
v -0.5195 0.6100 0.4967
v -0.5195 0.1700 0.4967
v -0.6097 0.6400 -0.1672
v -0.5235 0.6400 0.4669
v 0.2097 0.6400 0.3672
v 0.1235 0.6400 -0.2669
v -0.6097 0.1400 -0.1672
v 0.1235 0.1400 -0.2669
v 0.2097 0.1400 0.3672
v -0.5235 0.1400 0.4669
v 0.1532 0.1700 -0.2710
v 0.1532 0.6100 -0.2710
v 0.2395 0.6100 0.3632
v 0.2395 0.1700 0.3632
v -0.5532 0.1700 0.4710
v -0.5532 0.6100 0.4710
v -0.6395 0.6100 -0.1632
v -0.6395 0.1700 -0.1632
v -0.6097 0.6400 -0.1672
v 0.1235 0.6400 -0.2669
v 0.1195 0.6100 -0.2967
v -0.6138 0.6100 -0.1969
v 0.2097 0.6400 0.3672
v -0.5235 0.6400 0.4669
v -0.5195 0.6100 0.4967
v 0.2138 0.6100 0.3969
v 0.1235 0.1400 -0.2669
v -0.6097 0.1400 -0.1672
v -0.6138 0.1700 -0.1969
v 0.1195 0.1700 -0.2967
v -0.5235 0.1400 0.4669
v 0.2097 0.1400 0.3672
v 0.2138 0.1700 0.3969
v -0.5195 0.1700 0.4967
v 0.1532 0.6100 -0.2710
v 0.2395 0.6100 0.3632
v 0.2097 0.6400 0.3672
v 0.1235 0.6400 -0.2669
v 0.2395 0.1700 0.3632
v 0.1532 0.1700 -0.2710
v 0.1235 0.1400 -0.2669
v 0.2097 0.1400 0.3672
v -0.5532 0.6100 0.4710
v -0.6395 0.6100 -0.1632
v -0.6097 0.6400 -0.1672
v -0.5235 0.6400 0.4669
v -0.6395 0.1700 -0.1632
v -0.5532 0.1700 0.4710
v -0.5235 0.1400 0.4669
v -0.6097 0.1400 -0.1672
v 0.1532 0.6100 -0.2710
v 0.1195 0.6100 -0.2967
v 0.1195 0.1700 -0.2967
v 0.1532 0.1700 -0.2710
v 0.2395 0.1700 0.3632
v 0.2138 0.1700 0.3969
v 0.2138 0.6100 0.3969
v 0.2395 0.6100 0.3632
v -0.6395 0.1700 -0.1632
v -0.6138 0.1700 -0.1969
v -0.6138 0.6100 -0.1969
v -0.6395 0.6100 -0.1632
v -0.5532 0.6100 0.4710
v -0.5195 0.6100 0.4967
v -0.5195 0.1700 0.4967
v -0.5532 0.1700 0.4710
v 0.2097 0.6400 0.3672
v 0.2395 0.6100 0.3632
v 0.2138 0.6100 0.3969
v -0.5195 0.6100 0.4967
v -0.5532 0.6100 0.4710
v -0.5235 0.6400 0.4669
v 0.2138 0.1700 0.3969
v 0.2395 0.1700 0.3632
v 0.2097 0.1400 0.3672
v -0.5235 0.1400 0.4669
v -0.5532 0.1700 0.4710
v -0.5195 0.1700 0.4967
v 0.1195 0.6100 -0.2967
v 0.1532 0.6100 -0.2710
v 0.1235 0.6400 -0.2669
v -0.6097 0.6400 -0.1672
v -0.6395 0.6100 -0.1632
v -0.6138 0.6100 -0.1969
v 0.1235 0.1400 -0.2669
v 0.1532 0.1700 -0.2710
v 0.1195 0.1700 -0.2967
v -0.6138 0.1700 -0.1969
v -0.6395 0.1700 -0.1632
v -0.6097 0.1400 -0.1672
v 0.1120 0.1700 -0.3830
v 0.1120 0.5600 -0.3830
v 0.5508 0.5600 -0.4157
v 0.5508 0.1700 -0.4157
v 0.5880 0.1700 0.0830
v 0.5880 0.5600 0.0830
v 0.1492 0.5600 0.1157
v 0.1492 0.1700 0.1157
v 0.1143 0.5900 -0.3530
v 0.1470 0.5900 0.0857
v 0.5857 0.5900 0.0530
v 0.5530 0.5900 -0.3857
v 0.1143 0.1400 -0.3530
v 0.5530 0.1400 -0.3857
v 0.5857 0.1400 0.0530
v 0.1470 0.1400 0.0857
v 0.5830 0.1700 -0.3880
v 0.5830 0.5600 -0.3880
v 0.6157 0.5600 0.0508
v 0.6157 0.1700 0.0508
v 0.1170 0.1700 0.0880
v 0.1170 0.5600 0.0880
v 0.0843 0.5600 -0.3508
v 0.0843 0.1700 -0.3508
v 0.1143 0.5900 -0.3530
v 0.5530 0.5900 -0.3857
v 0.5508 0.5600 -0.4157
v 0.1120 0.5600 -0.3830
v 0.5857 0.5900 0.0530
v 0.1470 0.5900 0.0857
v 0.1492 0.5600 0.1157
v 0.5880 0.5600 0.0830
v 0.5530 0.1400 -0.3857
v 0.1143 0.1400 -0.3530
v 0.1120 0.1700 -0.3830
v 0.5508 0.1700 -0.4157
v 0.1470 0.1400 0.0857
v 0.5857 0.1400 0.0530
v 0.5880 0.1700 0.0830
v 0.1492 0.1700 0.1157
v 0.5830 0.5600 -0.3880
v 0.6157 0.5600 0.0508
v 0.5857 0.5900 0.0530
v 0.5530 0.5900 -0.3857
v 0.6157 0.1700 0.0508
v 0.5830 0.1700 -0.3880
v 0.5530 0.1400 -0.3857
v 0.5857 0.1400 0.0530
v 0.1170 0.5600 0.0880
v 0.0843 0.5600 -0.3508
v 0.1143 0.5900 -0.3530
v 0.1470 0.5900 0.0857
v 0.0843 0.1700 -0.3508
v 0.1170 0.1700 0.0880
v 0.1470 0.1400 0.0857
v 0.1143 0.1400 -0.3530
v 0.5830 0.5600 -0.3880
v 0.5508 0.5600 -0.4157
v 0.5508 0.1700 -0.4157
v 0.5830 0.1700 -0.3880
v 0.6157 0.1700 0.0508
v 0.5880 0.1700 0.0830
v 0.5880 0.5600 0.0830
v 0.6157 0.5600 0.0508
v 0.0843 0.1700 -0.3508
v 0.1120 0.1700 -0.3830
v 0.1120 0.5600 -0.3830
v 0.0843 0.5600 -0.3508
v 0.1170 0.5600 0.0880
v 0.1492 0.5600 0.1157
v 0.1492 0.1700 0.1157
v 0.1170 0.1700 0.0880
v 0.5857 0.5900 0.0530
v 0.6157 0.5600 0.0508
v 0.5880 0.5600 0.0830
v 0.1492 0.5600 0.1157
v 0.1170 0.5600 0.0880
v 0.1470 0.5900 0.0857
v 0.5880 0.1700 0.0830
v 0.6157 0.1700 0.0508
v 0.5857 0.1400 0.0530
v 0.1470 0.1400 0.0857
v 0.1170 0.1700 0.0880
v 0.1492 0.1700 0.1157
v 0.5508 0.5600 -0.4157
v 0.5830 0.5600 -0.3880
v 0.5530 0.5900 -0.3857
v 0.1143 0.5900 -0.3530
v 0.0843 0.5600 -0.3508
v 0.1120 0.5600 -0.3830
v 0.5530 0.1400 -0.3857
v 0.5830 0.1700 -0.3880
v 0.5508 0.1700 -0.4157
v 0.1120 0.1700 -0.3830
v 0.0843 0.1700 -0.3508
v 0.1143 0.1400 -0.3530
v -0.3585 0.1700 -0.5359
v -0.3585 0.5100 -0.5359
v 0.1811 0.5100 -0.5137
v 0.1811 0.1700 -0.5137
v 0.1585 0.1700 0.0359
v 0.1585 0.5100 0.0359
v -0.3811 0.5100 0.0137
v -0.3811 0.1700 0.0137
v -0.3597 0.5400 -0.5059
v -0.3798 0.5400 -0.0163
v 0.1597 0.5400 0.0059
v 0.1798 0.5400 -0.4837
v -0.3597 0.1400 -0.5059
v 0.1798 0.1400 -0.4837
v 0.1597 0.1400 0.0059
v -0.3798 0.1400 -0.0163
v 0.2098 0.1700 -0.4825
v 0.2098 0.5100 -0.4825
v 0.1897 0.5100 0.0071
v 0.1897 0.1700 0.0071
v -0.4098 0.1700 -0.0175
v -0.4098 0.5100 -0.0175
v -0.3897 0.5100 -0.5071
v -0.3897 0.1700 -0.5071
v -0.3597 0.5400 -0.5059
v 0.1798 0.5400 -0.4837
v 0.1811 0.5100 -0.5137
v -0.3585 0.5100 -0.5359
v 0.1597 0.5400 0.0059
v -0.3798 0.5400 -0.0163
v -0.3811 0.5100 0.0137
v 0.1585 0.5100 0.0359
v 0.1798 0.1400 -0.4837
v -0.3597 0.1400 -0.5059
v -0.3585 0.1700 -0.5359
v 0.1811 0.1700 -0.5137
v -0.3798 0.1400 -0.0163
v 0.1597 0.1400 0.0059
v 0.1585 0.1700 0.0359
v -0.3811 0.1700 0.0137
v 0.2098 0.5100 -0.4825
v 0.1897 0.5100 0.0071
v 0.1597 0.5400 0.0059
v 0.1798 0.5400 -0.4837
v 0.1897 0.1700 0.0071
v 0.2098 0.1700 -0.4825
v 0.1798 0.1400 -0.4837
v 0.1597 0.1400 0.0059
v -0.4098 0.5100 -0.0175
v -0.3897 0.5100 -0.5071
v -0.3597 0.5400 -0.5059
v -0.3798 0.5400 -0.0163
v -0.3897 0.1700 -0.5071
v -0.4098 0.1700 -0.0175
v -0.3798 0.1400 -0.0163
v -0.3597 0.1400 -0.5059
v 0.2098 0.5100 -0.4825
v 0.1811 0.5100 -0.5137
v 0.1811 0.1700 -0.5137
v 0.2098 0.1700 -0.4825
v 0.1897 0.1700 0.0071
v 0.1585 0.1700 0.0359
v 0.1585 0.5100 0.0359
v 0.1897 0.5100 0.0071
v -0.3897 0.1700 -0.5071
v -0.3585 0.1700 -0.5359
v -0.3585 0.5100 -0.5359
v -0.3897 0.5100 -0.5071
v -0.4098 0.5100 -0.0175
v -0.3811 0.5100 0.0137
v -0.3811 0.1700 0.0137
v -0.4098 0.1700 -0.0175
v 0.1597 0.5400 0.0059
v 0.1897 0.5100 0.0071
v 0.1585 0.5100 0.0359
v -0.3811 0.5100 0.0137
v -0.4098 0.5100 -0.0175
v -0.3798 0.5400 -0.0163
v 0.1585 0.1700 0.0359
v 0.1897 0.1700 0.0071
v 0.1597 0.1400 0.0059
v -0.3798 0.1400 -0.0163
v -0.4098 0.1700 -0.0175
v -0.3811 0.1700 0.0137
v 0.1811 0.5100 -0.5137
v 0.2098 0.5100 -0.4825
v 0.1798 0.5400 -0.4837
v -0.3597 0.5400 -0.5059
v -0.3897 0.5100 -0.5071
v -0.3585 0.5100 -0.5359
v 0.1798 0.1400 -0.4837
v 0.2098 0.1700 -0.4825
v 0.1811 0.1700 -0.5137
v -0.3585 0.1700 -0.5359
v -0.3897 0.1700 -0.5071
v -0.3597 0.1400 -0.5059
v -0.4267 0.6700 -0.0999
v -0.4267 0.9600 -0.0999
v -0.0063 0.9600 -0.2300
v -0.0063 0.6700 -0.2300
v 0.1267 0.6700 0.1999
v 0.1267 0.9600 0.1999
v -0.2937 0.9600 0.3300
v -0.2937 0.6700 0.3300
v -0.4178 0.9900 -0.0713
v -0.3025 0.9900 0.3013
v 0.1178 0.9900 0.1713
v 0.0025 0.9900 -0.2013
v -0.4178 0.6400 -0.0713
v 0.0025 0.6400 -0.2013
v 0.1178 0.6400 0.1713
v -0.3025 0.6400 0.3013
v 0.0312 0.6700 -0.2102
v 0.0312 0.9600 -0.2102
v 0.1465 0.9600 0.1624
v 0.1465 0.6700 0.1624
v -0.3312 0.6700 0.3102
v -0.3312 0.9600 0.3102
v -0.4465 0.9600 -0.0624
v -0.4465 0.6700 -0.0624
v -0.4178 0.9900 -0.0713
v 0.0025 0.9900 -0.2013
v -0.0063 0.9600 -0.2300
v -0.4267 0.9600 -0.0999
v 0.1178 0.9900 0.1713
v -0.3025 0.9900 0.3013
v -0.2937 0.9600 0.3300
v 0.1267 0.9600 0.1999
v 0.0025 0.6400 -0.2013
v -0.4178 0.6400 -0.0713
v -0.4267 0.6700 -0.0999
v -0.0063 0.6700 -0.2300
v -0.3025 0.6400 0.3013
v 0.1178 0.6400 0.1713
v 0.1267 0.6700 0.1999
v -0.2937 0.6700 0.3300
v 0.0312 0.9600 -0.2102
v 0.1465 0.9600 0.1624
v 0.1178 0.9900 0.1713
v 0.0025 0.9900 -0.2013
v 0.1465 0.6700 0.1624
v 0.0312 0.6700 -0.2102
v 0.0025 0.6400 -0.2013
v 0.1178 0.6400 0.1713
v -0.3312 0.9600 0.3102
v -0.4465 0.9600 -0.0624
v -0.4178 0.9900 -0.0713
v -0.3025 0.9900 0.3013
v -0.4465 0.6700 -0.0624
v -0.3312 0.6700 0.3102
v -0.3025 0.6400 0.3013
v -0.4178 0.6400 -0.0713
v 0.0312 0.9600 -0.2102
v -0.0063 0.9600 -0.2300
v -0.0063 0.6700 -0.2300
v 0.0312 0.6700 -0.2102
v 0.1465 0.6700 0.1624
v 0.1267 0.6700 0.1999
v 0.1267 0.9600 0.1999
v 0.1465 0.9600 0.1624
v -0.4465 0.6700 -0.0624
v -0.4267 0.6700 -0.0999
v -0.4267 0.9600 -0.0999
v -0.4465 0.9600 -0.0624
v -0.3312 0.9600 0.3102
v -0.2937 0.9600 0.3300
v -0.2937 0.6700 0.3300
v -0.3312 0.6700 0.3102
v 0.1178 0.9900 0.1713
v 0.1465 0.9600 0.1624
v 0.1267 0.9600 0.1999
v -0.2937 0.9600 0.3300
v -0.3312 0.9600 0.3102
v -0.3025 0.9900 0.3013
v 0.1267 0.6700 0.1999
v 0.1465 0.6700 0.1624
v 0.1178 0.6400 0.1713
v -0.3025 0.6400 0.3013
v -0.3312 0.6700 0.3102
v -0.2937 0.6700 0.3300
v -0.0063 0.9600 -0.2300
v 0.0312 0.9600 -0.2102
v 0.0025 0.9900 -0.2013
v -0.4178 0.9900 -0.0713
v -0.4465 0.9600 -0.0624
v -0.4267 0.9600 -0.0999
v 0.0025 0.6400 -0.2013
v 0.0312 0.6700 -0.2102
v -0.0063 0.6700 -0.2300
v -0.4267 0.6700 -0.0999
v -0.4465 0.6700 -0.0624
v -0.4178 0.6400 -0.0713
vt 0.5057 0.2713
vt 0.5057 0.4787
vt 0.7443 0.4787
vt 0.7443 0.2713
vt 0.7443 0.2713
vt 0.7443 0.4787
vt 0.5057 0.4787
vt 0.5057 0.2713
vt 0.5057 0.2560
vt 0.5057 0.4940
vt 0.7443 0.4940
vt 0.7443 0.2560
vt 0.5057 0.2560
vt 0.7443 0.2560
vt 0.7443 0.4940
vt 0.5057 0.4940
vt 0.5060 0.2713
vt 0.5060 0.4787
vt 0.7440 0.4787
vt 0.7440 0.2713
vt 0.7440 0.2713
vt 0.7440 0.4787
vt 0.5060 0.4787
vt 0.5060 0.2713
vt 0.5057 0.2560
vt 0.7443 0.2560
vt 0.7443 0.2540
vt 0.5057 0.2540
vt 0.7443 0.4940
vt 0.5057 0.4940
vt 0.5057 0.4960
vt 0.7443 0.4960
vt 0.7443 0.2560
vt 0.5057 0.2560
vt 0.5057 0.2540
vt 0.7443 0.2540
vt 0.5057 0.4940
vt 0.7443 0.4940
vt 0.7443 0.4960
vt 0.5057 0.4960
vt 0.7460 0.2560
vt 0.7460 0.4940
vt 0.7443 0.4940
vt 0.7443 0.2560
vt 0.7460 0.4940
vt 0.7460 0.2560
vt 0.7443 0.2560
vt 0.7443 0.4940
vt 0.5040 0.4940
vt 0.5040 0.2560
vt 0.5057 0.2560
vt 0.5057 0.4940
vt 0.5040 0.2560
vt 0.5040 0.4940
vt 0.5057 0.4940
vt 0.5057 0.2560
vt 0.5060 0.4787
vt 0.5040 0.4787
vt 0.5040 0.2713
vt 0.5060 0.2713
vt 0.7440 0.2713
vt 0.7460 0.2713
vt 0.7460 0.4787
vt 0.7440 0.4787
vt 0.5060 0.2713
vt 0.5040 0.2713
vt 0.5040 0.4787
vt 0.5060 0.4787
vt 0.7440 0.4787
vt 0.7460 0.4787
vt 0.7460 0.2713
vt 0.7440 0.2713
vt 0.7443 0.4960
vt 0.7460 0.4787
vt 0.7443 0.4787
vt 0.5057 0.4787
vt 0.5040 0.4787
vt 0.5057 0.4960
vt 0.7460 0.2713
vt 0.7440 0.2713
vt 0.7440 0.2540
vt 0.7440 0.2540
vt 0.7440 0.2713
vt 0.7460 0.2713
vt 0.7443 0.4787
vt 0.7460 0.4787
vt 0.7443 0.4960
vt 0.5057 0.4960
vt 0.5040 0.4787
vt 0.5057 0.4787
vt 0.5060 0.2540
vt 0.5060 0.2713
vt 0.5040 0.2713
vt 0.5040 0.2713
vt 0.5060 0.2713
vt 0.5060 0.2540
vt 0.0184 0.5335
vt 0.0184 0.9665
vt 0.4288 0.9665
vt 0.4288 0.5335
vt 0.4816 0.5335
vt 0.4816 0.9665
vt 0.0712 0.9665
vt 0.0712 0.5335
vt 0.0206 0.5843
vt 0.0689 0.9776
vt 0.4794 0.9157
vt 0.4311 0.5224
vt 0.0206 0.5843
vt 0.4311 0.5224
vt 0.4794 0.9157
vt 0.0689 0.9776
vt 0.0199 0.5335
vt 0.0199 0.9665
vt 0.4132 0.9665
vt 0.4132 0.5335
vt 0.4801 0.5335
vt 0.4801 0.9665
vt 0.0868 0.9665
vt 0.0868 0.5335
vt 0.0206 0.5843
vt 0.4311 0.5224
vt 0.4288 0.5040
vt 0.0184 0.5658
vt 0.4794 0.9157
vt 0.0689 0.9776
vt 0.0712 0.9960
vt 0.4816 0.9342
vt 0.4311 0.5224
vt 0.0206 0.5843
vt 0.0184 0.5658
vt 0.4288 0.5040
vt 0.0689 0.9776
vt 0.4794 0.9157
vt 0.4816 0.9342
vt 0.0712 0.9960
vt 0.4477 0.5199
vt 0.4960 0.9132
vt 0.4794 0.9157
vt 0.4311 0.5224
vt 0.4960 0.9132
vt 0.4477 0.5199
vt 0.4311 0.5224
vt 0.4794 0.9157
vt 0.0523 0.9801
vt 0.0040 0.5868
vt 0.0206 0.5843
vt 0.0689 0.9776
vt 0.0040 0.5868
vt 0.0523 0.9801
vt 0.0689 0.9776
vt 0.0206 0.5843
vt 0.4477 0.9665
vt 0.4288 0.9665
vt 0.4288 0.5335
vt 0.4477 0.5335
vt 0.4132 0.5335
vt 0.4342 0.5335
vt 0.4342 0.9665
vt 0.4132 0.9665
vt 0.0868 0.5335
vt 0.0658 0.5335
vt 0.0658 0.9665
vt 0.0868 0.9665
vt 0.0523 0.9665
vt 0.0712 0.9665
vt 0.0712 0.5335
vt 0.0523 0.5335
vt 0.4157 0.9960
vt 0.4132 0.9665
vt 0.4342 0.9665
vt 0.0712 0.9665
vt 0.0523 0.9665
vt 0.0689 0.9960
vt 0.4342 0.5335
vt 0.4132 0.5335
vt 0.4157 0.5040
vt 0.0689 0.5040
vt 0.0523 0.5335
vt 0.0712 0.5335
vt 0.4288 0.9665
vt 0.4477 0.9665
vt 0.4311 0.9960
vt 0.0843 0.9960
vt 0.0868 0.9665
vt 0.0658 0.9665
vt 0.4311 0.5040
vt 0.4477 0.5335
vt 0.4288 0.5335
vt 0.0658 0.5335
vt 0.0868 0.5335
vt 0.0843 0.5040
vt 0.0296 0.5368
vt 0.0296 0.9632
vt 0.4360 0.9632
vt 0.4360 0.5368
vt 0.4704 0.5368
vt 0.4704 0.9632
vt 0.0640 0.9632
vt 0.0640 0.5368
vt 0.0317 0.5620
vt 0.0620 0.9683
vt 0.4683 0.9380
vt 0.4380 0.5317
vt 0.0317 0.5620
vt 0.4380 0.5317
vt 0.4683 0.9380
vt 0.0620 0.9683
vt 0.0296 0.5368
vt 0.0296 0.9632
vt 0.4360 0.9632
vt 0.4360 0.5368
vt 0.4704 0.5368
vt 0.4704 0.9632
vt 0.0640 0.9632
vt 0.0640 0.5368
vt 0.0317 0.5620
vt 0.4380 0.5317
vt 0.4360 0.5040
vt 0.0296 0.5343
vt 0.4683 0.9380
vt 0.0620 0.9683
vt 0.0640 0.9960
vt 0.4704 0.9657
vt 0.4380 0.5317
vt 0.0317 0.5620
vt 0.0296 0.5343
vt 0.4360 0.5040
vt 0.0620 0.9683
vt 0.4683 0.9380
vt 0.4704 0.9657
vt 0.0640 0.9960
vt 0.4657 0.5296
vt 0.4960 0.9360
vt 0.4683 0.9380
vt 0.4380 0.5317
vt 0.4960 0.9360
vt 0.4657 0.5296
vt 0.4380 0.5317
vt 0.4683 0.9380
vt 0.0343 0.9704
vt 0.0040 0.5640
vt 0.0317 0.5620
vt 0.0620 0.9683
vt 0.0040 0.5640
vt 0.0343 0.9704
vt 0.0620 0.9683
vt 0.0317 0.5620
vt 0.4657 0.9632
vt 0.4360 0.9632
vt 0.4360 0.5368
vt 0.4657 0.5368
vt 0.4360 0.5368
vt 0.4657 0.5368
vt 0.4657 0.9632
vt 0.4360 0.9632
vt 0.0640 0.5368
vt 0.0343 0.5368
vt 0.0343 0.9632
vt 0.0640 0.9632
vt 0.0343 0.9632
vt 0.0640 0.9632
vt 0.0640 0.5368
vt 0.0343 0.5368
vt 0.4380 0.9960
vt 0.4360 0.9632
vt 0.4657 0.9632
vt 0.0640 0.9632
vt 0.0343 0.9632
vt 0.0620 0.9960
vt 0.4657 0.5368
vt 0.4360 0.5368
vt 0.4380 0.5040
vt 0.0620 0.5040
vt 0.0343 0.5368
vt 0.0640 0.5368
vt 0.4360 0.9632
vt 0.4657 0.9632
vt 0.4380 0.9960
vt 0.0620 0.9960
vt 0.0640 0.9632
vt 0.0343 0.9632
vt 0.4380 0.5040
vt 0.4657 0.5368
vt 0.4360 0.5368
vt 0.0343 0.5368
vt 0.0640 0.5368
vt 0.0620 0.5040
vt 0.0448 0.5409
vt 0.0448 0.9591
vt 0.4732 0.9591
vt 0.4732 0.5409
vt 0.4552 0.5409
vt 0.4552 0.9591
vt 0.0268 0.9591
vt 0.0268 0.5409
vt 0.0438 0.5298
vt 0.0278 0.9511
vt 0.4562 0.9702
vt 0.4722 0.5489
vt 0.0438 0.5298
vt 0.4722 0.5489
vt 0.4562 0.9702
vt 0.0278 0.9511
vt 0.0499 0.5409
vt 0.0499 0.9591
vt 0.4713 0.9591
vt 0.4713 0.5409
vt 0.4501 0.5409
vt 0.4501 0.9591
vt 0.0287 0.9591
vt 0.0287 0.5409
vt 0.0438 0.5298
vt 0.4722 0.5489
vt 0.4732 0.5231
vt 0.0448 0.5040
vt 0.4562 0.9702
vt 0.0278 0.9511
vt 0.0268 0.9769
vt 0.4552 0.9960
vt 0.4722 0.5489
vt 0.0438 0.5298
vt 0.0448 0.5040
vt 0.4732 0.5231
vt 0.0278 0.9511
vt 0.4562 0.9702
vt 0.4552 0.9960
vt 0.0268 0.9769
vt 0.4960 0.5499
vt 0.4800 0.9713
vt 0.4562 0.9702
vt 0.4722 0.5489
vt 0.4800 0.9713
vt 0.4960 0.5499
vt 0.4722 0.5489
vt 0.4562 0.9702
vt 0.0040 0.9501
vt 0.0200 0.5287
vt 0.0438 0.5298
vt 0.0278 0.9511
vt 0.0200 0.5287
vt 0.0040 0.9501
vt 0.0278 0.9511
vt 0.0438 0.5298
vt 0.0499 0.9591
vt 0.0231 0.9591
vt 0.0231 0.5409
vt 0.0499 0.5409
vt 0.4800 0.5409
vt 0.4552 0.5409
vt 0.4552 0.9591
vt 0.4800 0.9591
vt 0.0200 0.5409
vt 0.0448 0.5409
vt 0.0448 0.9591
vt 0.0200 0.9591
vt 0.4501 0.9591
vt 0.4769 0.9591
vt 0.4769 0.5409
vt 0.4501 0.5409
vt 0.4562 0.9960
vt 0.4800 0.9591
vt 0.4552 0.9591
vt 0.4769 0.9591
vt 0.4501 0.9591
vt 0.4511 0.9960
vt 0.4552 0.5409
vt 0.4800 0.5409
vt 0.4562 0.5040
vt 0.4511 0.5040
vt 0.4501 0.5409
vt 0.4769 0.5409
vt 0.0231 0.9591
vt 0.0499 0.9591
vt 0.0489 0.9960
vt 0.0438 0.9960
vt 0.0200 0.9591
vt 0.0448 0.9591
vt 0.0489 0.5040
vt 0.0499 0.5409
vt 0.0231 0.5409
vt 0.0448 0.5409
vt 0.0200 0.5409
vt 0.0438 0.5040
vt 0.5204 0.5462
vt 0.5204 0.9538
vt 0.8692 0.9538
vt 0.8692 0.5462
vt 0.9796 0.5462
vt 0.9796 0.9538
vt 0.6308 0.9538
vt 0.6308 0.5462
vt 0.5278 0.6434
vt 0.6234 0.9708
vt 0.9722 0.8566
vt 0.8766 0.5292
vt 0.5278 0.6434
vt 0.8766 0.5292
vt 0.9722 0.8566
vt 0.6234 0.9708
vt 0.5214 0.5462
vt 0.5214 0.9538
vt 0.8488 0.9538
vt 0.8488 0.5462
vt 0.9786 0.5462
vt 0.9786 0.9538
vt 0.6512 0.9538
vt 0.6512 0.5462
vt 0.5278 0.6434
vt 0.8766 0.5292
vt 0.8692 0.5040
vt 0.5204 0.6183
vt 0.9722 0.8566
vt 0.6234 0.9708
vt 0.6308 0.9960
vt 0.9796 0.8817
vt 0.8766 0.5292
vt 0.5278 0.6434
vt 0.5204 0.6183
vt 0.8692 0.5040
vt 0.6234 0.9708
vt 0.9722 0.8566
vt 0.9796 0.8817
vt 0.6308 0.9960
vt 0.9004 0.5214
vt 0.9960 0.8488
vt 0.9722 0.8566
vt 0.8766 0.5292
vt 0.9960 0.8488
vt 0.9004 0.5214
vt 0.8766 0.5292
vt 0.9722 0.8566
vt 0.5996 0.9786
vt 0.5040 0.6512
vt 0.5278 0.6434
vt 0.6234 0.9708
vt 0.5040 0.6512
vt 0.5996 0.9786
vt 0.6234 0.9708
vt 0.5278 0.6434
vt 0.9004 0.9538
vt 0.8692 0.9538
vt 0.8692 0.5462
vt 0.9004 0.5462
vt 0.8488 0.5462
vt 0.8817 0.5462
vt 0.8817 0.9538
vt 0.8488 0.9538
vt 0.6512 0.5462
vt 0.6183 0.5462
vt 0.6183 0.9538
vt 0.6512 0.9538
vt 0.5996 0.9538
vt 0.6308 0.9538
vt 0.6308 0.5462
vt 0.5996 0.5462
vt 0.8566 0.9960
vt 0.8488 0.9538
vt 0.8817 0.9538
vt 0.6308 0.9538
vt 0.5996 0.9538
vt 0.6234 0.9960
vt 0.8817 0.5462
vt 0.8488 0.5462
vt 0.8566 0.5040
vt 0.6234 0.5040
vt 0.5996 0.5462
vt 0.6308 0.5462
vt 0.8692 0.9538
vt 0.9004 0.9538
vt 0.8766 0.9960
vt 0.6434 0.9960
vt 0.6512 0.9538
vt 0.6183 0.9538
vt 0.8766 0.5040
vt 0.9004 0.5462
vt 0.8692 0.5462
vt 0.6183 0.5462
vt 0.6512 0.5462
vt 0.6434 0.5040
vn 0.0000 0.0000 -1.0000
vn 0.0000 0.0000 -1.0000
vn 0.0000 0.0000 -1.0000
vn 0.0000 0.0000 -1.0000
vn 0.0000 0.0000 1.0000
vn 0.0000 0.0000 1.0000
vn 0.0000 0.0000 1.0000
vn 0.0000 0.0000 1.0000
vn 0.0000 1.0000 0.0000
vn 0.0000 1.0000 0.0000
vn 0.0000 1.0000 0.0000
vn 0.0000 1.0000 0.0000
vn 0.0000 -1.0000 0.0000
vn 0.0000 -1.0000 0.0000
vn 0.0000 -1.0000 0.0000
vn 0.0000 -1.0000 0.0000
vn 1.0000 0.0000 0.0000
vn 1.0000 0.0000 0.0000
vn 1.0000 0.0000 0.0000
vn 1.0000 0.0000 0.0000
vn -1.0000 0.0000 0.0000
vn -1.0000 0.0000 0.0000
vn -1.0000 0.0000 0.0000
vn -1.0000 0.0000 0.0000
vn 0.0000 0.7071 -0.7071
vn 0.0000 0.7071 -0.7071
vn 0.0000 0.7071 -0.7071
vn 0.0000 0.7071 -0.7071
vn 0.0000 0.7071 0.7071
vn 0.0000 0.7071 0.7071
vn 0.0000 0.7071 0.7071
vn 0.0000 0.7071 0.7071
vn 0.0000 -0.7071 -0.7071
vn 0.0000 -0.7071 -0.7071
vn 0.0000 -0.7071 -0.7071
vn 0.0000 -0.7071 -0.7071
vn 0.0000 -0.7071 0.7071
vn 0.0000 -0.7071 0.7071
vn 0.0000 -0.7071 0.7071
vn 0.0000 -0.7071 0.7071
vn -0.7071 -0.7071 0.0000
vn -0.7071 -0.7071 0.0000
vn -0.7071 -0.7071 0.0000
vn -0.7071 -0.7071 0.0000
vn -0.7071 0.7071 0.0000
vn -0.7071 0.7071 0.0000
vn -0.7071 0.7071 0.0000
vn -0.7071 0.7071 0.0000
vn 0.7071 -0.7071 0.0000
vn 0.7071 -0.7071 0.0000
vn 0.7071 -0.7071 0.0000
vn 0.7071 -0.7071 0.0000
vn 0.7071 0.7071 0.0000
vn 0.7071 0.7071 0.0000
vn 0.7071 0.7071 0.0000
vn 0.7071 0.7071 0.0000
vn -0.7071 0.0000 0.7071
vn -0.7071 0.0000 0.7071
vn -0.7071 0.0000 0.7071
vn -0.7071 0.0000 0.7071
vn -0.7071 0.0000 -0.7071
vn -0.7071 0.0000 -0.7071
vn -0.7071 0.0000 -0.7071
vn -0.7071 0.0000 -0.7071
vn 0.7071 0.0000 0.7071
vn 0.7071 0.0000 0.7071
vn 0.7071 0.0000 0.7071
vn 0.7071 0.0000 0.7071
vn 0.7071 0.0000 -0.7071
vn 0.7071 0.0000 -0.7071
vn 0.7071 0.0000 -0.7071
vn 0.7071 0.0000 -0.7071
vn -0.5774 -0.5774 -0.5774
vn -0.5774 -0.5774 -0.5774
vn -0.5774 -0.5774 -0.5774
vn 0.5774 -0.5774 -0.5774
vn 0.5774 -0.5774 -0.5774
vn 0.5774 -0.5774 -0.5774
vn -0.5774 0.5774 -0.5774
vn -0.5774 0.5774 -0.5774
vn -0.5774 0.5774 -0.5774
vn 0.5774 0.5774 -0.5774
vn 0.5774 0.5774 -0.5774
vn 0.5774 0.5774 -0.5774
vn -0.5774 -0.5774 0.5774
vn -0.5774 -0.5774 0.5774
vn -0.5774 -0.5774 0.5774
vn 0.5774 -0.5774 0.5774
vn 0.5774 -0.5774 0.5774
vn 0.5774 -0.5774 0.5774
vn -0.5774 0.5774 0.5774
vn -0.5774 0.5774 0.5774
vn -0.5774 0.5774 0.5774
vn 0.5774 0.5774 0.5774
vn 0.5774 0.5774 0.5774
vn 0.5774 0.5774 0.5774
vn -0.1348 0.0000 -0.9909
vn -0.1348 0.0000 -0.9909
vn -0.1348 0.0000 -0.9909
vn -0.1348 0.0000 -0.9909
vn 0.1348 0.0000 0.9909
vn 0.1348 0.0000 0.9909
vn 0.1348 0.0000 0.9909
vn 0.1348 0.0000 0.9909
vn 0.0000 1.0000 0.0000
vn 0.0000 1.0000 0.0000
vn 0.0000 1.0000 0.0000
vn 0.0000 1.0000 0.0000
vn 0.0000 -1.0000 -0.0000
vn 0.0000 -1.0000 -0.0000
vn 0.0000 -1.0000 -0.0000
vn 0.0000 -1.0000 -0.0000
vn 0.9909 0.0000 -0.1348
vn 0.9909 0.0000 -0.1348
vn 0.9909 0.0000 -0.1348
vn 0.9909 0.0000 -0.1348
vn -0.9909 0.0000 0.1348
vn -0.9909 0.0000 0.1348
vn -0.9909 0.0000 0.1348
vn -0.9909 0.0000 0.1348
vn -0.0953 0.7071 -0.7007
vn -0.0953 0.7071 -0.7007
vn -0.0953 0.7071 -0.7007
vn -0.0953 0.7071 -0.7007
vn 0.0953 0.7071 0.7007
vn 0.0953 0.7071 0.7007
vn 0.0953 0.7071 0.7007
vn 0.0953 0.7071 0.7007
vn -0.0953 -0.7071 -0.7007
vn -0.0953 -0.7071 -0.7007
vn -0.0953 -0.7071 -0.7007
vn -0.0953 -0.7071 -0.7007
vn 0.0953 -0.7071 0.7007
vn 0.0953 -0.7071 0.7007
vn 0.0953 -0.7071 0.7007
vn 0.0953 -0.7071 0.7007
vn -0.7007 -0.7071 0.0953
vn -0.7007 -0.7071 0.0953
vn -0.7007 -0.7071 0.0953
vn -0.7007 -0.7071 0.0953
vn -0.7007 0.7071 0.0953
vn -0.7007 0.7071 0.0953
vn -0.7007 0.7071 0.0953
vn -0.7007 0.7071 0.0953
vn 0.7007 -0.7071 -0.0953
vn 0.7007 -0.7071 -0.0953
vn 0.7007 -0.7071 -0.0953
vn 0.7007 -0.7071 -0.0953
vn 0.7007 0.7071 -0.0953
vn 0.7007 0.7071 -0.0953
vn 0.7007 0.7071 -0.0953
vn 0.7007 0.7071 -0.0953
vn -0.6054 0.0000 0.7959
vn -0.6054 0.0000 0.7959
vn -0.6054 0.0000 0.7959
vn -0.6054 0.0000 0.7959
vn -0.7959 0.0000 -0.6054
vn -0.7959 0.0000 -0.6054
vn -0.7959 0.0000 -0.6054
vn -0.7959 0.0000 -0.6054
vn 0.7959 0.0000 0.6054
vn 0.7959 0.0000 0.6054
vn 0.7959 0.0000 0.6054
vn 0.7959 0.0000 0.6054
vn 0.6054 0.0000 -0.7959
vn 0.6054 0.0000 -0.7959
vn 0.6054 0.0000 -0.7959
vn 0.6054 0.0000 -0.7959
vn -0.6499 -0.5774 -0.4943
vn -0.6499 -0.5774 -0.4943
vn -0.6499 -0.5774 -0.4943
vn 0.4943 -0.5774 -0.6499
vn 0.4943 -0.5774 -0.6499
vn 0.4943 -0.5774 -0.6499
vn -0.6499 0.5774 -0.4943
vn -0.6499 0.5774 -0.4943
vn -0.6499 0.5774 -0.4943
vn 0.4943 0.5774 -0.6499
vn 0.4943 0.5774 -0.6499
vn 0.4943 0.5774 -0.6499
vn -0.4943 -0.5774 0.6499
vn -0.4943 -0.5774 0.6499
vn -0.4943 -0.5774 0.6499
vn 0.6499 -0.5774 0.4943
vn 0.6499 -0.5774 0.4943
vn 0.6499 -0.5774 0.4943
vn -0.4943 0.5774 0.6499
vn -0.4943 0.5774 0.6499
vn -0.4943 0.5774 0.6499
vn 0.6499 0.5774 0.4943
vn 0.6499 0.5774 0.4943
vn 0.6499 0.5774 0.4943
vn -0.0743 0.0000 -0.9972
vn -0.0743 0.0000 -0.9972
vn -0.0743 0.0000 -0.9972
vn -0.0743 0.0000 -0.9972
vn 0.0743 0.0000 0.9972
vn 0.0743 0.0000 0.9972
vn 0.0743 0.0000 0.9972
vn 0.0743 0.0000 0.9972
vn 0.0000 1.0000 0.0000
vn 0.0000 1.0000 0.0000
vn 0.0000 1.0000 0.0000
vn 0.0000 1.0000 0.0000
vn 0.0000 -1.0000 0.0000
vn 0.0000 -1.0000 0.0000
vn 0.0000 -1.0000 0.0000
vn 0.0000 -1.0000 0.0000
vn 0.9972 0.0000 -0.0743
vn 0.9972 0.0000 -0.0743
vn 0.9972 0.0000 -0.0743
vn 0.9972 0.0000 -0.0743
vn -0.9972 0.0000 0.0743
vn -0.9972 0.0000 0.0743
vn -0.9972 0.0000 0.0743
vn -0.9972 0.0000 0.0743
vn -0.0526 0.7071 -0.7052
vn -0.0526 0.7071 -0.7052
vn -0.0526 0.7071 -0.7052
vn -0.0526 0.7071 -0.7052
vn 0.0526 0.7071 0.7052
vn 0.0526 0.7071 0.7052
vn 0.0526 0.7071 0.7052
vn 0.0526 0.7071 0.7052
vn -0.0526 -0.7071 -0.7052
vn -0.0526 -0.7071 -0.7052
vn -0.0526 -0.7071 -0.7052
vn -0.0526 -0.7071 -0.7052
vn 0.0526 -0.7071 0.7052
vn 0.0526 -0.7071 0.7052
vn 0.0526 -0.7071 0.7052
vn 0.0526 -0.7071 0.7052
vn -0.7052 -0.7071 0.0526
vn -0.7052 -0.7071 0.0526
vn -0.7052 -0.7071 0.0526
vn -0.7052 -0.7071 0.0526
vn -0.7052 0.7071 0.0526
vn -0.7052 0.7071 0.0526
vn -0.7052 0.7071 0.0526
vn -0.7052 0.7071 0.0526
vn 0.7052 -0.7071 -0.0526
vn 0.7052 -0.7071 -0.0526
vn 0.7052 -0.7071 -0.0526
vn 0.7052 -0.7071 -0.0526
vn 0.7052 0.7071 -0.0526
vn 0.7052 0.7071 -0.0526
vn 0.7052 0.7071 -0.0526
vn 0.7052 0.7071 -0.0526
vn -0.6526 0.0000 0.7577
vn -0.6526 0.0000 0.7577
vn -0.6526 0.0000 0.7577
vn -0.6526 0.0000 0.7577
vn -0.7577 0.0000 -0.6526
vn -0.7577 0.0000 -0.6526
vn -0.7577 0.0000 -0.6526
vn -0.7577 0.0000 -0.6526
vn 0.7577 0.0000 0.6526
vn 0.7577 0.0000 0.6526
vn 0.7577 0.0000 0.6526
vn 0.7577 0.0000 0.6526
vn 0.6526 0.0000 -0.7577
vn 0.6526 0.0000 -0.7577
vn 0.6526 0.0000 -0.7577
vn 0.6526 0.0000 -0.7577
vn -0.6187 -0.5774 -0.5328
vn -0.6187 -0.5774 -0.5328
vn -0.6187 -0.5774 -0.5328
vn 0.5328 -0.5774 -0.6187
vn 0.5328 -0.5774 -0.6187
vn 0.5328 -0.5774 -0.6187
vn -0.6187 0.5774 -0.5328
vn -0.6187 0.5774 -0.5328
vn -0.6187 0.5774 -0.5328
vn 0.5328 0.5774 -0.6187
vn 0.5328 0.5774 -0.6187
vn 0.5328 0.5774 -0.6187
vn -0.5328 -0.5774 0.6187
vn -0.5328 -0.5774 0.6187
vn -0.5328 -0.5774 0.6187
vn 0.6187 -0.5774 0.5328
vn 0.6187 -0.5774 0.5328
vn 0.6187 -0.5774 0.5328
vn -0.5328 0.5774 0.6187
vn -0.5328 0.5774 0.6187
vn -0.5328 0.5774 0.6187
vn 0.6187 0.5774 0.5328
vn 0.6187 0.5774 0.5328
vn 0.6187 0.5774 0.5328
vn 0.0411 0.0000 -0.9992
vn 0.0411 0.0000 -0.9992
vn 0.0411 0.0000 -0.9992
vn 0.0411 0.0000 -0.9992
vn -0.0411 0.0000 0.9992
vn -0.0411 0.0000 0.9992
vn -0.0411 0.0000 0.9992
vn -0.0411 0.0000 0.9992
vn 0.0000 1.0000 0.0000
vn 0.0000 1.0000 0.0000
vn 0.0000 1.0000 0.0000
vn 0.0000 1.0000 0.0000
vn 0.0000 -1.0000 -0.0000
vn 0.0000 -1.0000 -0.0000
vn 0.0000 -1.0000 -0.0000
vn 0.0000 -1.0000 -0.0000
vn 0.9992 0.0000 0.0411
vn 0.9992 0.0000 0.0411
vn 0.9992 0.0000 0.0411
vn 0.9992 0.0000 0.0411
vn -0.9992 0.0000 -0.0411
vn -0.9992 0.0000 -0.0411
vn -0.9992 0.0000 -0.0411
vn -0.9992 0.0000 -0.0411
vn 0.0290 0.7071 -0.7065
vn 0.0290 0.7071 -0.7065
vn 0.0290 0.7071 -0.7065
vn 0.0290 0.7071 -0.7065
vn -0.0290 0.7071 0.7065
vn -0.0290 0.7071 0.7065
vn -0.0290 0.7071 0.7065
vn -0.0290 0.7071 0.7065
vn 0.0290 -0.7071 -0.7065
vn 0.0290 -0.7071 -0.7065
vn 0.0290 -0.7071 -0.7065
vn 0.0290 -0.7071 -0.7065
vn -0.0290 -0.7071 0.7065
vn -0.0290 -0.7071 0.7065
vn -0.0290 -0.7071 0.7065
vn -0.0290 -0.7071 0.7065
vn -0.7065 -0.7071 -0.0290
vn -0.7065 -0.7071 -0.0290
vn -0.7065 -0.7071 -0.0290
vn -0.7065 -0.7071 -0.0290
vn -0.7065 0.7071 -0.0290
vn -0.7065 0.7071 -0.0290
vn -0.7065 0.7071 -0.0290
vn -0.7065 0.7071 -0.0290
vn 0.7065 -0.7071 0.0290
vn 0.7065 -0.7071 0.0290
vn 0.7065 -0.7071 0.0290
vn 0.7065 -0.7071 0.0290
vn 0.7065 0.7071 0.0290
vn 0.7065 0.7071 0.0290
vn 0.7065 0.7071 0.0290
vn 0.7065 0.7071 0.0290
vn -0.7355 0.0000 0.6775
vn -0.7355 0.0000 0.6775
vn -0.7355 0.0000 0.6775
vn -0.7355 0.0000 0.6775
vn -0.6775 0.0000 -0.7355
vn -0.6775 0.0000 -0.7355
vn -0.6775 0.0000 -0.7355
vn -0.6775 0.0000 -0.7355
vn 0.6775 0.0000 0.7355
vn 0.6775 0.0000 0.7355
vn 0.6775 0.0000 0.7355
vn 0.6775 0.0000 0.7355
vn 0.7355 0.0000 -0.6775
vn 0.7355 0.0000 -0.6775
vn 0.7355 0.0000 -0.6775
vn 0.7355 0.0000 -0.6775
vn -0.5532 -0.5774 -0.6006
vn -0.5532 -0.5774 -0.6006
vn -0.5532 -0.5774 -0.6006
vn 0.6006 -0.5774 -0.5532
vn 0.6006 -0.5774 -0.5532
vn 0.6006 -0.5774 -0.5532
vn -0.5532 0.5774 -0.6006
vn -0.5532 0.5774 -0.6006
vn -0.5532 0.5774 -0.6006
vn 0.6006 0.5774 -0.5532
vn 0.6006 0.5774 -0.5532
vn 0.6006 0.5774 -0.5532
vn -0.6006 -0.5774 0.5532
vn -0.6006 -0.5774 0.5532
vn -0.6006 -0.5774 0.5532
vn 0.5532 -0.5774 0.6006
vn 0.5532 -0.5774 0.6006
vn 0.5532 -0.5774 0.6006
vn -0.6006 0.5774 0.5532
vn -0.6006 0.5774 0.5532
vn -0.6006 0.5774 0.5532
vn 0.5532 0.5774 0.6006
vn 0.5532 0.5774 0.6006
vn 0.5532 0.5774 0.6006
vn -0.2955 0.0000 -0.9553
vn -0.2955 0.0000 -0.9553
vn -0.2955 0.0000 -0.9553
vn -0.2955 0.0000 -0.9553
vn 0.2955 0.0000 0.9553
vn 0.2955 0.0000 0.9553
vn 0.2955 0.0000 0.9553
vn 0.2955 0.0000 0.9553
vn 0.0000 1.0000 -0.0000
vn 0.0000 1.0000 -0.0000
vn 0.0000 1.0000 -0.0000
vn 0.0000 1.0000 -0.0000
vn 0.0000 -1.0000 0.0000
vn 0.0000 -1.0000 0.0000
vn 0.0000 -1.0000 0.0000
vn 0.0000 -1.0000 0.0000
vn 0.9553 0.0000 -0.2955
vn 0.9553 0.0000 -0.2955
vn 0.9553 0.0000 -0.2955
vn 0.9553 0.0000 -0.2955
vn -0.9553 0.0000 0.2955
vn -0.9553 0.0000 0.2955
vn -0.9553 0.0000 0.2955
vn -0.9553 0.0000 0.2955
vn -0.2090 0.7071 -0.6755
vn -0.2090 0.7071 -0.6755
vn -0.2090 0.7071 -0.6755
vn -0.2090 0.7071 -0.6755
vn 0.2090 0.7071 0.6755
vn 0.2090 0.7071 0.6755
vn 0.2090 0.7071 0.6755
vn 0.2090 0.7071 0.6755
vn -0.2090 -0.7071 -0.6755
vn -0.2090 -0.7071 -0.6755
vn -0.2090 -0.7071 -0.6755
vn -0.2090 -0.7071 -0.6755
vn 0.2090 -0.7071 0.6755
vn 0.2090 -0.7071 0.6755
vn 0.2090 -0.7071 0.6755
vn 0.2090 -0.7071 0.6755
vn -0.6755 -0.7071 0.2090
vn -0.6755 -0.7071 0.2090
vn -0.6755 -0.7071 0.2090
vn -0.6755 -0.7071 0.2090
vn -0.6755 0.7071 0.2090
vn -0.6755 0.7071 0.2090
vn -0.6755 0.7071 0.2090
vn -0.6755 0.7071 0.2090
vn 0.6755 -0.7071 -0.2090
vn 0.6755 -0.7071 -0.2090
vn 0.6755 -0.7071 -0.2090
vn 0.6755 -0.7071 -0.2090
vn 0.6755 0.7071 -0.2090
vn 0.6755 0.7071 -0.2090
vn 0.6755 0.7071 -0.2090
vn 0.6755 0.7071 -0.2090
vn -0.4666 0.0000 0.8845
vn -0.4666 0.0000 0.8845
vn -0.4666 0.0000 0.8845
vn -0.4666 0.0000 0.8845
vn -0.8845 0.0000 -0.4666
vn -0.8845 0.0000 -0.4666
vn -0.8845 0.0000 -0.4666
vn -0.8845 0.0000 -0.4666
vn 0.8845 0.0000 0.4666
vn 0.8845 0.0000 0.4666
vn 0.8845 0.0000 0.4666
vn 0.8845 0.0000 0.4666
vn 0.4666 0.0000 -0.8845
vn 0.4666 0.0000 -0.8845
vn 0.4666 0.0000 -0.8845
vn 0.4666 0.0000 -0.8845
vn -0.7222 -0.5774 -0.3809
vn -0.7222 -0.5774 -0.3809
vn -0.7222 -0.5774 -0.3809
vn 0.3809 -0.5774 -0.7222
vn 0.3809 -0.5774 -0.7222
vn 0.3809 -0.5774 -0.7222
vn -0.7222 0.5774 -0.3809
vn -0.7222 0.5774 -0.3809
vn -0.7222 0.5774 -0.3809
vn 0.3809 0.5774 -0.7222
vn 0.3809 0.5774 -0.7222
vn 0.3809 0.5774 -0.7222
vn -0.3809 -0.5774 0.7222
vn -0.3809 -0.5774 0.7222
vn -0.3809 -0.5774 0.7222
vn 0.7222 -0.5774 0.3809
vn 0.7222 -0.5774 0.3809
vn 0.7222 -0.5774 0.3809
vn -0.3809 0.5774 0.7222
vn -0.3809 0.5774 0.7222
vn -0.3809 0.5774 0.7222
vn 0.7222 0.5774 0.3809
vn 0.7222 0.5774 0.3809
vn 0.7222 0.5774 0.3809
usemtl TF_Utility
f 1/1/1 2/2/2 3/3/3
f 1/1/1 3/3/3 4/4/4
f 5/5/5 6/6/6 7/7/7
f 5/5/5 7/7/7 8/8/8
f 9/9/9 10/10/10 11/11/11
f 9/9/9 11/11/11 12/12/12
f 13/13/13 14/14/14 15/15/15
f 13/13/13 15/15/15 16/16/16
f 17/17/17 18/18/18 19/19/19
f 17/17/17 19/19/19 20/20/20
f 21/21/21 22/22/22 23/23/23
f 21/21/21 23/23/23 24/24/24
f 25/25/25 26/26/26 27/27/27
f 25/25/25 27/27/27 28/28/28
f 29/29/29 30/30/30 31/31/31
f 29/29/29 31/31/31 32/32/32
f 33/33/33 34/34/34 35/35/35
f 33/33/33 35/35/35 36/36/36
f 37/37/37 38/38/38 39/39/39
f 37/37/37 39/39/39 40/40/40
f 41/41/41 42/42/42 43/43/43
f 41/41/41 43/43/43 44/44/44
f 45/45/45 46/46/46 47/47/47
f 45/45/45 47/47/47 48/48/48
f 49/49/49 50/50/50 51/51/51
f 49/49/49 51/51/51 52/52/52
f 53/53/53 54/54/54 55/55/55
f 53/53/53 55/55/55 56/56/56
f 57/57/57 58/58/58 59/59/59
f 57/57/57 59/59/59 60/60/60
f 61/61/61 62/62/62 63/63/63
f 61/61/61 63/63/63 64/64/64
f 65/65/65 66/66/66 67/67/67
f 65/65/65 67/67/67 68/68/68
f 69/69/69 70/70/70 71/71/71
f 69/69/69 71/71/71 72/72/72
f 73/73/73 74/74/74 75/75/75
f 76/76/76 77/77/77 78/78/78
f 79/79/79 80/80/80 81/81/81
f 82/82/82 83/83/83 84/84/84
f 85/85/85 86/86/86 87/87/87
f 88/88/88 89/89/89 90/90/90
f 91/91/91 92/92/92 93/93/93
f 94/94/94 95/95/95 96/96/96
f 97/97/97 98/98/98 99/99/99
f 97/97/97 99/99/99 100/100/100
f 101/101/101 102/102/102 103/103/103
f 101/101/101 103/103/103 104/104/104
f 105/105/105 106/106/106 107/107/107
f 105/105/105 107/107/107 108/108/108
f 109/109/109 110/110/110 111/111/111
f 109/109/109 111/111/111 112/112/112
f 113/113/113 114/114/114 115/115/115
f 113/113/113 115/115/115 116/116/116
f 117/117/117 118/118/118 119/119/119
f 117/117/117 119/119/119 120/120/120
f 121/121/121 122/122/122 123/123/123
f 121/121/121 123/123/123 124/124/124
f 125/125/125 126/126/126 127/127/127
f 125/125/125 127/127/127 128/128/128
f 129/129/129 130/130/130 131/131/131
f 129/129/129 131/131/131 132/132/132
f 133/133/133 134/134/134 135/135/135
f 133/133/133 135/135/135 136/136/136
f 137/137/137 138/138/138 139/139/139
f 137/137/137 139/139/139 140/140/140
f 141/141/141 142/142/142 143/143/143
f 141/141/141 143/143/143 144/144/144
f 145/145/145 146/146/146 147/147/147
f 145/145/145 147/147/147 148/148/148
f 149/149/149 150/150/150 151/151/151
f 149/149/149 151/151/151 152/152/152
f 153/153/153 154/154/154 155/155/155
f 153/153/153 155/155/155 156/156/156
f 157/157/157 158/158/158 159/159/159
f 157/157/157 159/159/159 160/160/160
f 161/161/161 162/162/162 163/163/163
f 161/161/161 163/163/163 164/164/164
f 165/165/165 166/166/166 167/167/167
f 165/165/165 167/167/167 168/168/168
f 169/169/169 170/170/170 171/171/171
f 172/172/172 173/173/173 174/174/174
f 175/175/175 176/176/176 177/177/177
f 178/178/178 179/179/179 180/180/180
f 181/181/181 182/182/182 183/183/183
f 184/184/184 185/185/185 186/186/186
f 187/187/187 188/188/188 189/189/189
f 190/190/190 191/191/191 192/192/192
f 193/193/193 194/194/194 195/195/195
f 193/193/193 195/195/195 196/196/196
f 197/197/197 198/198/198 199/199/199
f 197/197/197 199/199/199 200/200/200
f 201/201/201 202/202/202 203/203/203
f 201/201/201 203/203/203 204/204/204
f 205/205/205 206/206/206 207/207/207
f 205/205/205 207/207/207 208/208/208
f 209/209/209 210/210/210 211/211/211
f 209/209/209 211/211/211 212/212/212
f 213/213/213 214/214/214 215/215/215
f 213/213/213 215/215/215 216/216/216
f 217/217/217 218/218/218 219/219/219
f 217/217/217 219/219/219 220/220/220
f 221/221/221 222/222/222 223/223/223
f 221/221/221 223/223/223 224/224/224
f 225/225/225 226/226/226 227/227/227
f 225/225/225 227/227/227 228/228/228
f 229/229/229 230/230/230 231/231/231
f 229/229/229 231/231/231 232/232/232
f 233/233/233 234/234/234 235/235/235
f 233/233/233 235/235/235 236/236/236
f 237/237/237 238/238/238 239/239/239
f 237/237/237 239/239/239 240/240/240
f 241/241/241 242/242/242 243/243/243
f 241/241/241 243/243/243 244/244/244
f 245/245/245 246/246/246 247/247/247
f 245/245/245 247/247/247 248/248/248
f 249/249/249 250/250/250 251/251/251
f 249/249/249 251/251/251 252/252/252
f 253/253/253 254/254/254 255/255/255
f 253/253/253 255/255/255 256/256/256
f 257/257/257 258/258/258 259/259/259
f 257/257/257 259/259/259 260/260/260
f 261/261/261 262/262/262 263/263/263
f 261/261/261 263/263/263 264/264/264
f 265/265/265 266/266/266 267/267/267
f 268/268/268 269/269/269 270/270/270
f 271/271/271 272/272/272 273/273/273
f 274/274/274 275/275/275 276/276/276
f 277/277/277 278/278/278 279/279/279
f 280/280/280 281/281/281 282/282/282
f 283/283/283 284/284/284 285/285/285
f 286/286/286 287/287/287 288/288/288
f 289/289/289 290/290/290 291/291/291
f 289/289/289 291/291/291 292/292/292
f 293/293/293 294/294/294 295/295/295
f 293/293/293 295/295/295 296/296/296
f 297/297/297 298/298/298 299/299/299
f 297/297/297 299/299/299 300/300/300
f 301/301/301 302/302/302 303/303/303
f 301/301/301 303/303/303 304/304/304
f 305/305/305 306/306/306 307/307/307
f 305/305/305 307/307/307 308/308/308
f 309/309/309 310/310/310 311/311/311
f 309/309/309 311/311/311 312/312/312
f 313/313/313 314/314/314 315/315/315
f 313/313/313 315/315/315 316/316/316
f 317/317/317 318/318/318 319/319/319
f 317/317/317 319/319/319 320/320/320
f 321/321/321 322/322/322 323/323/323
f 321/321/321 323/323/323 324/324/324
f 325/325/325 326/326/326 327/327/327
f 325/325/325 327/327/327 328/328/328
f 329/329/329 330/330/330 331/331/331
f 329/329/329 331/331/331 332/332/332
f 333/333/333 334/334/334 335/335/335
f 333/333/333 335/335/335 336/336/336
f 337/337/337 338/338/338 339/339/339
f 337/337/337 339/339/339 340/340/340
f 341/341/341 342/342/342 343/343/343
f 341/341/341 343/343/343 344/344/344
f 345/345/345 346/346/346 347/347/347
f 345/345/345 347/347/347 348/348/348
f 349/349/349 350/350/350 351/351/351
f 349/349/349 351/351/351 352/352/352
f 353/353/353 354/354/354 355/355/355
f 353/353/353 355/355/355 356/356/356
f 357/357/357 358/358/358 359/359/359
f 357/357/357 359/359/359 360/360/360
f 361/361/361 362/362/362 363/363/363
f 364/364/364 365/365/365 366/366/366
f 367/367/367 368/368/368 369/369/369
f 370/370/370 371/371/371 372/372/372
f 373/373/373 374/374/374 375/375/375
f 376/376/376 377/377/377 378/378/378
f 379/379/379 380/380/380 381/381/381
f 382/382/382 383/383/383 384/384/384
f 385/385/385 386/386/386 387/387/387
f 385/385/385 387/387/387 388/388/388
f 389/389/389 390/390/390 391/391/391
f 389/389/389 391/391/391 392/392/392
f 393/393/393 394/394/394 395/395/395
f 393/393/393 395/395/395 396/396/396
f 397/397/397 398/398/398 399/399/399
f 397/397/397 399/399/399 400/400/400
f 401/401/401 402/402/402 403/403/403
f 401/401/401 403/403/403 404/404/404
f 405/405/405 406/406/406 407/407/407
f 405/405/405 407/407/407 408/408/408
f 409/409/409 410/410/410 411/411/411
f 409/409/409 411/411/411 412/412/412
f 413/413/413 414/414/414 415/415/415
f 413/413/413 415/415/415 416/416/416
f 417/417/417 418/418/418 419/419/419
f 417/417/417 419/419/419 420/420/420
f 421/421/421 422/422/422 423/423/423
f 421/421/421 423/423/423 424/424/424
f 425/425/425 426/426/426 427/427/427
f 425/425/425 427/427/427 428/428/428
f 429/429/429 430/430/430 431/431/431
f 429/429/429 431/431/431 432/432/432
f 433/433/433 434/434/434 435/435/435
f 433/433/433 435/435/435 436/436/436
f 437/437/437 438/438/438 439/439/439
f 437/437/437 439/439/439 440/440/440
f 441/441/441 442/442/442 443/443/443
f 441/441/441 443/443/443 444/444/444
f 445/445/445 446/446/446 447/447/447
f 445/445/445 447/447/447 448/448/448
f 449/449/449 450/450/450 451/451/451
f 449/449/449 451/451/451 452/452/452
f 453/453/453 454/454/454 455/455/455
f 453/453/453 455/455/455 456/456/456
f 457/457/457 458/458/458 459/459/459
f 460/460/460 461/461/461 462/462/462
f 463/463/463 464/464/464 465/465/465
f 466/466/466 467/467/467 468/468/468
f 469/469/469 470/470/470 471/471/471
f 472/472/472 473/473/473 474/474/474
f 475/475/475 476/476/476 477/477/477
f 478/478/478 479/479/479 480/480/480
