# TERRAFRONT procedural asset — generated by Tools/assetgen (deterministic)
# Y-up, +Z forward (muzzle), units = meters, pivot at grip/origin.
# prop_rock_e — TERRAFRONT P3
mtllib tf_utility.mtl
o prop_rock_e
v 0.0135 0.0000 -0.0249
v -0.0079 0.0000 -0.0244
v -0.5030 0.2130 -1.5443
v 0.8553 0.2130 -1.5732
v -0.0079 0.0000 -0.0244
v -0.0234 0.0000 -0.0056
v -1.4826 0.2130 -0.3525
v -0.5030 0.2130 -1.5443
v -0.0234 0.0000 -0.0056
v -0.0213 0.0000 0.0175
v -1.3458 0.2130 1.1048
v -1.4826 0.2130 -0.3525
v -0.0213 0.0000 0.0175
v -0.0031 -0.0000 0.0273
v -0.1955 0.2130 1.7301
v -1.3458 0.2130 1.1048
v -0.0031 -0.0000 0.0273
v 0.0174 -0.0000 0.0166
v 1.1019 0.2130 1.0527
v -0.1955 0.2130 1.7301
v 0.0174 -0.0000 0.0166
v 0.0248 -0.0000 -0.0066
v 1.5696 0.2130 -0.4175
v 1.1019 0.2130 1.0527
v 0.0248 -0.0000 -0.0066
v 0.0135 0.0000 -0.0249
v 0.8553 0.2130 -1.5732
v 1.5696 0.2130 -0.4175
v 0.8553 0.2130 -1.5732
v -0.5030 0.2130 -1.5443
v -0.4298 0.4260 -1.3195
v 0.7308 0.4260 -1.3442
v -0.5030 0.2130 -1.5443
v -1.4826 0.2130 -0.3525
v -1.2668 0.4260 -0.3012
v -0.4298 0.4260 -1.3195
v -1.4826 0.2130 -0.3525
v -1.3458 0.2130 1.1048
v -1.1499 0.4260 0.9439
v -1.2668 0.4260 -0.3012
v -1.3458 0.2130 1.1048
v -0.1955 0.2130 1.7301
v -0.1671 0.4260 1.4783
v -1.1499 0.4260 0.9439
v -0.1955 0.2130 1.7301
v 1.1019 0.2130 1.0527
v 0.9415 0.4260 0.8994
v -0.1671 0.4260 1.4783
v 1.1019 0.2130 1.0527
v 1.5696 0.2130 -0.4175
v 1.3411 0.4260 -0.3567
v 0.9415 0.4260 0.8994
v 1.5696 0.2130 -0.4175
v 0.8553 0.2130 -1.5732
v 0.7308 0.4260 -1.3442
v 1.3411 0.4260 -0.3567
v 0.7308 0.4260 -1.3442
v -0.4298 0.4260 -1.3195
v -0.5059 0.6390 -1.5532
v 0.8603 0.6390 -1.5823
v -0.4298 0.4260 -1.3195
v -1.2668 0.4260 -0.3012
v -1.4911 0.6390 -0.3545
v -0.5059 0.6390 -1.5532
v -1.2668 0.4260 -0.3012
v -1.1499 0.4260 0.9439
v -1.3535 0.6390 1.1111
v -1.4911 0.6390 -0.3545
v -1.1499 0.4260 0.9439
v -0.1671 0.4260 1.4783
v -0.1967 0.6390 1.7400
v -1.3535 0.6390 1.1111
v -0.1671 0.4260 1.4783
v 0.9415 0.4260 0.8994
v 1.1083 0.6390 1.0587
v -0.1967 0.6390 1.7400
v 0.9415 0.4260 0.8994
v 1.3411 0.4260 -0.3567
v 1.5786 0.6390 -0.4199
v 1.1083 0.6390 1.0587
v 1.3411 0.4260 -0.3567
v 0.7308 0.4260 -1.3442
v 0.8603 0.6390 -1.5823
v 1.5786 0.6390 -0.4199
v 0.8603 0.6390 -1.5823
v -0.5059 0.6390 -1.5532
v -0.5511 0.8520 -1.6920
v 0.9371 0.8520 -1.7236
v -0.5059 0.6390 -1.5532
v -1.4911 0.6390 -0.3545
v -1.6243 0.8520 -0.3862
v -0.5511 0.8520 -1.6920
v -1.4911 0.6390 -0.3545
v -1.3535 0.6390 1.1111
v -1.4744 0.8520 1.2104
v -1.6243 0.8520 -0.3862
v -1.3535 0.6390 1.1111
v -0.1967 0.6390 1.7400
v -0.2142 0.8520 1.8955
v -1.4744 0.8520 1.2104
v -0.1967 0.6390 1.7400
v 1.1083 0.6390 1.0587
v 1.2073 0.8520 1.1533
v -0.2142 0.8520 1.8955
v 1.1083 0.6390 1.0587
v 1.5786 0.6390 -0.4199
v 1.7197 0.8520 -0.4574
v 1.2073 0.8520 1.1533
v 1.5786 0.6390 -0.4199
v 0.8603 0.6390 -1.5823
v 0.9371 0.8520 -1.7236
v 1.7197 0.8520 -0.4574
v 0.9371 0.8520 -1.7236
v -0.5511 0.8520 -1.6920
v -0.4100 1.0650 -1.2588
v 0.6972 1.0650 -1.2823
v -0.5511 0.8520 -1.6920
v -1.6243 0.8520 -0.3862
v -1.2085 1.0650 -0.2873
v -0.4100 1.0650 -1.2588
v -1.6243 0.8520 -0.3862
v -1.4744 0.8520 1.2104
v -1.0969 1.0650 0.9005
v -1.2085 1.0650 -0.2873
v -1.4744 0.8520 1.2104
v -0.2142 0.8520 1.8955
v -0.1594 1.0650 1.4102
v -1.0969 1.0650 0.9005
v -0.2142 0.8520 1.8955
v 1.2073 0.8520 1.1533
v 0.8982 1.0650 0.8580
v -0.1594 1.0650 1.4102
v 1.2073 0.8520 1.1533
v 1.7197 0.8520 -0.4574
v 1.2794 1.0650 -0.3403
v 0.8982 1.0650 0.8580
v 1.7197 0.8520 -0.4574
v 0.9371 0.8520 -1.7236
v 0.6972 1.0650 -1.2823
v 1.2794 1.0650 -0.3403
v 0.6972 1.0650 -1.2823
v -0.4100 1.0650 -1.2588
v -0.3082 1.2781 -0.9462
v 0.5241 1.2781 -0.9639
v -0.4100 1.0650 -1.2588
v -1.2085 1.0650 -0.2873
v -0.9084 1.2781 -0.2160
v -0.3082 1.2781 -0.9462
v -1.2085 1.0650 -0.2873
v -1.0969 1.0650 0.9005
v -0.8246 1.2781 0.6769
v -0.9084 1.2781 -0.2160
v -1.0969 1.0650 0.9005
v -0.1594 1.0650 1.4102
v -0.1198 1.2781 1.0601
v -0.8246 1.2781 0.6769
v -0.1594 1.0650 1.4102
v 0.8982 1.0650 0.8580
v 0.6752 1.2781 0.6450
v -0.1198 1.2781 1.0601
v 0.8982 1.0650 0.8580
v 1.2794 1.0650 -0.3403
v 0.9617 1.2781 -0.2558
v 0.6752 1.2781 0.6450
v 1.2794 1.0650 -0.3403
v 0.6972 1.0650 -1.2823
v 0.5241 1.2781 -0.9639
v 0.9617 1.2781 -0.2558
v 0.5241 1.2781 -0.9639
v -0.3082 1.2781 -0.9462
v -0.0119 1.3036 -0.0366
v 0.0203 1.3036 -0.0373
v -0.3082 1.2781 -0.9462
v -0.9084 1.2781 -0.2160
v -0.0351 1.3036 -0.0084
v -0.0119 1.3036 -0.0366
v -0.9084 1.2781 -0.2160
v -0.8246 1.2781 0.6769
v -0.0319 1.3036 0.0262
v -0.0351 1.3036 -0.0084
v -0.8246 1.2781 0.6769
v -0.1198 1.2781 1.0601
v -0.0046 1.3036 0.0410
v -0.0319 1.3036 0.0262
v -0.1198 1.2781 1.0601
v 0.6752 1.2781 0.6450
v 0.0261 1.3036 0.0250
v -0.0046 1.3036 0.0410
v 0.6752 1.2781 0.6450
v 0.9617 1.2781 -0.2558
v 0.0372 1.3036 -0.0099
v 0.0261 1.3036 0.0250
v 0.9617 1.2781 -0.2558
v 0.5241 1.2781 -0.9639
v 0.0203 1.3036 -0.0373
v 0.0372 1.3036 -0.0099
v 0.0203 1.3036 -0.0373
v -0.0119 1.3036 -0.0366
v -0.0351 1.3036 -0.0084
v -0.0319 1.3036 0.0262
v -0.0046 1.3036 0.0410
v 0.0261 1.3036 0.0250
v 0.0372 1.3036 -0.0099
vt 0.6225 0.3676
vt 0.6210 0.3676
vt 0.5851 0.2660
vt 0.6835 0.2641
vt 0.6210 0.3676
vt 0.6199 0.3689
vt 0.5143 0.3457
vt 0.5851 0.2660
vt 0.6199 0.3689
vt 0.6200 0.3704
vt 0.5242 0.4431
vt 0.5143 0.3457
vt 0.6200 0.3704
vt 0.6213 0.3711
vt 0.6074 0.4849
vt 0.5242 0.4431
vt 0.6213 0.3711
vt 0.6228 0.3704
vt 0.7013 0.4396
vt 0.6074 0.4849
vt 0.6228 0.3704
vt 0.6233 0.3688
vt 0.7351 0.3413
vt 0.7013 0.4396
vt 0.6233 0.3688
vt 0.6225 0.3676
vt 0.6835 0.2641
vt 0.7351 0.3413
vt 0.6835 0.2641
vt 0.5851 0.2660
vt 0.5904 0.2810
vt 0.6744 0.2794
vt 0.5851 0.2660
vt 0.5143 0.3457
vt 0.5299 0.3491
vt 0.5904 0.2810
vt 0.5957 0.2935
vt 0.6931 0.2935
vt 0.6824 0.3331
vt 0.5991 0.3331
vt 0.5242 0.4431
vt 0.6074 0.4849
vt 0.6095 0.4681
vt 0.5383 0.4324
vt 0.6074 0.4849
vt 0.7013 0.4396
vt 0.6897 0.4294
vt 0.6095 0.4681
vt 0.6896 0.2935
vt 0.5913 0.2935
vt 0.5954 0.3331
vt 0.6794 0.3331
vt 0.7351 0.3413
vt 0.6835 0.2641
vt 0.6744 0.2794
vt 0.7186 0.3454
vt 0.6744 0.2794
vt 0.5904 0.2810
vt 0.5849 0.2654
vt 0.6838 0.2635
vt 0.5904 0.2810
vt 0.5299 0.3491
vt 0.5136 0.3455
vt 0.5849 0.2654
vt 0.5299 0.3491
vt 0.5383 0.4324
vt 0.5236 0.4435
vt 0.5136 0.3455
vt 0.5383 0.4324
vt 0.6095 0.4681
vt 0.6073 0.4856
vt 0.5236 0.4435
vt 0.6095 0.4681
vt 0.6897 0.4294
vt 0.7018 0.4400
vt 0.6073 0.4856
vt 0.6897 0.4294
vt 0.7186 0.3454
vt 0.7358 0.3412
vt 0.7018 0.4400
vt 0.7186 0.3454
vt 0.6744 0.2794
vt 0.6838 0.2635
vt 0.7358 0.3412
vt 0.6838 0.3726
vt 0.5849 0.3726
vt 0.5817 0.4122
vt 0.6894 0.4122
vt 0.5154 0.3726
vt 0.5955 0.3726
vt 0.5934 0.4122
vt 0.5061 0.4122
vt 0.5955 0.3726
vt 0.6935 0.3726
vt 0.7002 0.4122
vt 0.5934 0.4122
vt 0.5236 0.3726
vt 0.6073 0.3726
vt 0.6060 0.4122
vt 0.5148 0.4122
vt 0.6073 0.3726
vt 0.7018 0.3726
vt 0.7089 0.4122
vt 0.6060 0.4122
vt 0.6900 0.3726
vt 0.5912 0.3726
vt 0.5887 0.4122
vt 0.6964 0.4122
vt 0.5912 0.3726
vt 0.5135 0.3726
vt 0.5040 0.4122
vt 0.5887 0.4122
vt 0.6894 0.2540
vt 0.5817 0.2561
vt 0.5919 0.2851
vt 0.6720 0.2835
vt 0.5817 0.2561
vt 0.5040 0.3434
vt 0.5341 0.3500
vt 0.5919 0.2851
vt 0.5040 0.3434
vt 0.5148 0.4502
vt 0.5422 0.4295
vt 0.5341 0.3500
vt 0.5148 0.4502
vt 0.6060 0.4960
vt 0.6100 0.4635
vt 0.5422 0.4295
vt 0.6060 0.4960
vt 0.7089 0.4464
vt 0.6865 0.4266
vt 0.6100 0.4635
vt 0.7089 0.4464
vt 0.7460 0.3387
vt 0.7141 0.3465
vt 0.6865 0.4266
vt 0.7460 0.3387
vt 0.6894 0.2540
vt 0.6720 0.2835
vt 0.7141 0.3465
vt 0.6720 0.2835
vt 0.5919 0.2851
vt 0.5992 0.3060
vt 0.6595 0.3048
vt 0.5919 0.2851
vt 0.5341 0.3500
vt 0.5558 0.3548
vt 0.5992 0.3060
vt 0.5341 0.3500
vt 0.5422 0.4295
vt 0.5619 0.4145
vt 0.5558 0.3548
vt 0.5422 0.4295
vt 0.6100 0.4635
vt 0.6129 0.4401
vt 0.5619 0.4145
vt 0.6100 0.4635
vt 0.6865 0.4266
vt 0.6704 0.4124
vt 0.6129 0.4401
vt 0.6865 0.4266
vt 0.7141 0.3465
vt 0.6911 0.3522
vt 0.6704 0.4124
vt 0.7141 0.3465
vt 0.6720 0.2835
vt 0.6595 0.3048
vt 0.6911 0.3522
vt 0.6595 0.3048
vt 0.5992 0.3060
vt 0.6207 0.3668
vt 0.6230 0.3668
vt 0.5992 0.3060
vt 0.5558 0.3548
vt 0.6190 0.3687
vt 0.6207 0.3668
vt 0.5558 0.3548
vt 0.5619 0.4145
vt 0.6192 0.3710
vt 0.6190 0.3687
vt 0.5619 0.4145
vt 0.6129 0.4401
vt 0.6212 0.3720
vt 0.6192 0.3710
vt 0.6129 0.4401
vt 0.6704 0.4124
vt 0.6234 0.3709
vt 0.6212 0.3720
vt 0.6704 0.4124
vt 0.6911 0.3522
vt 0.6242 0.3686
vt 0.6234 0.3709
vt 0.6911 0.3522
vt 0.6595 0.3048
vt 0.6230 0.3668
vt 0.6242 0.3686
vt 0.6230 0.3668
vt 0.6207 0.3668
vt 0.6190 0.3687
vt 0.6192 0.3710
vt 0.6212 0.3720
vt 0.6234 0.3709
vt 0.6242 0.3686
vn -0.0029 -0.9904 -0.1379
vn -0.0029 -0.9904 -0.1379
vn -0.0029 -0.9904 -0.1379
vn -0.0029 -0.9904 -0.1379
vn -0.1206 -0.9877 -0.0991
vn -0.1206 -0.9877 -0.0991
vn -0.1206 -0.9877 -0.0991
vn -0.1206 -0.9877 -0.0991
vn -0.1477 -0.9889 0.0139
vn -0.1477 -0.9889 0.0139
vn -0.1477 -0.9889 0.0139
vn -0.1477 -0.9889 0.0139
vn -0.0635 -0.9911 0.1168
vn -0.0635 -0.9911 0.1168
vn -0.0635 -0.9911 0.1168
vn -0.0635 -0.9911 0.1168
vn 0.0686 -0.9889 0.1315
vn 0.0686 -0.9889 0.1315
vn 0.0686 -0.9889 0.1315
vn 0.0686 -0.9889 0.1315
vn 0.1488 -0.9877 0.0473
vn 0.1488 -0.9877 0.0473
vn 0.1488 -0.9877 0.0473
vn 0.1488 -0.9877 0.0473
vn 0.1173 -0.9904 -0.0725
vn 0.1173 -0.9904 -0.0725
vn 0.1173 -0.9904 -0.0725
vn 0.1173 -0.9904 -0.0725
vn -0.0146 0.7282 -0.6852
vn -0.0146 0.7282 -0.6852
vn -0.0146 0.7282 -0.6852
vn -0.0146 0.7282 -0.6852
vn -0.5641 0.6832 -0.4637
vn -0.5641 0.6832 -0.4637
vn -0.5641 0.6832 -0.4637
vn -0.5641 0.6832 -0.4637
vn -0.7089 0.7022 0.0666
vn -0.7089 0.7022 0.0666
vn -0.7089 0.7022 0.0666
vn -0.7089 0.7022 0.0666
vn -0.3209 0.7407 0.5902
vn -0.3209 0.7407 0.5902
vn -0.3209 0.7407 0.5902
vn -0.3209 0.7407 0.5902
vn 0.3295 0.7022 0.6312
vn 0.3295 0.7022 0.6312
vn 0.3295 0.7022 0.6312
vn 0.3295 0.7022 0.6312
vn 0.6958 0.6832 0.2214
vn 0.6958 0.6832 0.2214
vn 0.6958 0.6832 0.2214
vn 0.6958 0.6832 0.2214
vn 0.5830 0.7282 -0.3603
vn 0.5830 0.7282 -0.3603
vn 0.5830 0.7282 -0.3603
vn 0.5830 0.7282 -0.3603
vn -0.0143 -0.7412 -0.6711
vn -0.0143 -0.7412 -0.6711
vn -0.0143 -0.7412 -0.6711
vn -0.0143 -0.7412 -0.6711
vn -0.5538 -0.6972 -0.4552
vn -0.5538 -0.6972 -0.4552
vn -0.5538 -0.6972 -0.4552
vn -0.5538 -0.6972 -0.4552
vn -0.6952 -0.7158 0.0653
vn -0.6952 -0.7158 0.0653
vn -0.6952 -0.7158 0.0653
vn -0.6952 -0.7158 0.0653
vn -0.3141 -0.7535 0.5776
vn -0.3141 -0.7535 0.5776
vn -0.3141 -0.7535 0.5776
vn -0.3141 -0.7535 0.5776
vn 0.3232 -0.7158 0.6190
vn 0.3232 -0.7158 0.6190
vn 0.3232 -0.7158 0.6190
vn 0.3232 -0.7158 0.6190
vn 0.6831 -0.6972 0.2173
vn 0.6831 -0.6972 0.2173
vn 0.6831 -0.6972 0.2173
vn 0.6831 -0.6972 0.2173
vn 0.5710 -0.7412 -0.3529
vn 0.5710 -0.7412 -0.3529
vn 0.5710 -0.7412 -0.3529
vn 0.5710 -0.7412 -0.3529
vn -0.0178 -0.5484 -0.8360
vn -0.0178 -0.5484 -0.8360
vn -0.0178 -0.5484 -0.8360
vn -0.0178 -0.5484 -0.8360
vn -0.6690 -0.5002 -0.5498
vn -0.6690 -0.5002 -0.5498
vn -0.6690 -0.5002 -0.5498
vn -0.6690 -0.5002 -0.5498
vn -0.8504 -0.5200 0.0799
vn -0.8504 -0.5200 0.0799
vn -0.8504 -0.5200 0.0799
vn -0.8504 -0.5200 0.0799
vn -0.3949 -0.5627 0.7263
vn -0.3949 -0.5627 0.7263
vn -0.3949 -0.5627 0.7263
vn -0.3949 -0.5627 0.7263
vn 0.3953 -0.5200 0.7572
vn 0.3953 -0.5200 0.7572
vn 0.3953 -0.5200 0.7572
vn 0.3953 -0.5200 0.7572
vn 0.8252 -0.5002 0.2625
vn 0.8252 -0.5002 0.2625
vn 0.8252 -0.5002 0.2625
vn 0.8252 -0.5002 0.2625
vn 0.7113 -0.5484 -0.4396
vn 0.7113 -0.5484 -0.4396
vn 0.7113 -0.5484 -0.4396
vn 0.7113 -0.5484 -0.4396
vn -0.0093 0.8985 -0.4388
vn -0.0093 0.8985 -0.4388
vn -0.0093 0.8985 -0.4388
vn -0.0093 0.8985 -0.4388
vn -0.3747 0.8745 -0.3080
vn -0.3747 0.8745 -0.3080
vn -0.3747 0.8745 -0.3080
vn -0.3747 0.8745 -0.3080
vn -0.4636 0.8850 0.0435
vn -0.4636 0.8850 0.0435
vn -0.4636 0.8850 0.0435
vn -0.4636 0.8850 0.0435
vn -0.2034 0.9048 0.3741
vn -0.2034 0.9048 0.3741
vn -0.2034 0.9048 0.3741
vn -0.2034 0.9048 0.3741
vn 0.2155 0.8850 0.4128
vn 0.2155 0.8850 0.4128
vn 0.2155 0.8850 0.4128
vn 0.2155 0.8850 0.4128
vn 0.4622 0.8745 0.1470
vn 0.4622 0.8745 0.1470
vn 0.4622 0.8745 0.1470
vn 0.4622 0.8745 0.1470
vn 0.3733 0.8985 -0.2307
vn 0.3733 0.8985 -0.2307
vn 0.3733 0.8985 -0.2307
vn 0.3733 0.8985 -0.2307
vn -0.0119 0.8281 -0.5605
vn -0.0119 0.8281 -0.5605
vn -0.0119 0.8281 -0.5605
vn -0.0119 0.8281 -0.5605
vn -0.4708 0.7928 -0.3870
vn -0.4708 0.7928 -0.3870
vn -0.4708 0.7928 -0.3870
vn -0.4708 0.7928 -0.3870
vn -0.5867 0.8080 0.0551
vn -0.5867 0.8080 0.0551
vn -0.5867 0.8080 0.0551
vn -0.5867 0.8080 0.0551
vn -0.2610 0.8375 0.4800
vn -0.2610 0.8375 0.4800
vn -0.2610 0.8375 0.4800
vn -0.2610 0.8375 0.4800
vn 0.2727 0.8080 0.5223
vn 0.2727 0.8080 0.5223
vn 0.2727 0.8080 0.5223
vn 0.2727 0.8080 0.5223
vn 0.5808 0.7928 0.1848
vn 0.5808 0.7928 0.1848
vn 0.5808 0.7928 0.1848
vn 0.5808 0.7928 0.1848
vn 0.4769 0.8281 -0.2947
vn 0.4769 0.8281 -0.2947
vn 0.4769 0.8281 -0.2947
vn 0.4769 0.8281 -0.2947
vn -0.0006 0.9996 -0.0279
vn -0.0006 0.9996 -0.0279
vn -0.0006 0.9996 -0.0279
vn -0.0006 0.9996 -0.0279
vn -0.0245 0.9995 -0.0201
vn -0.0245 0.9995 -0.0201
vn -0.0245 0.9995 -0.0201
vn -0.0245 0.9995 -0.0201
vn -0.0299 0.9995 0.0028
vn -0.0299 0.9995 0.0028
vn -0.0299 0.9995 0.0028
vn -0.0299 0.9995 0.0028
vn -0.0128 0.9996 0.0236
vn -0.0128 0.9996 0.0236
vn -0.0128 0.9996 0.0236
vn -0.0128 0.9996 0.0236
vn 0.0139 0.9995 0.0266
vn 0.0139 0.9995 0.0266
vn 0.0139 0.9995 0.0266
vn 0.0139 0.9995 0.0266
vn 0.0302 0.9995 0.0096
vn 0.0302 0.9995 0.0096
vn 0.0302 0.9995 0.0096
vn 0.0302 0.9995 0.0096
vn 0.0237 0.9996 -0.0147
vn 0.0237 0.9996 -0.0147
vn 0.0237 0.9996 -0.0147
vn 0.0237 0.9996 -0.0147
vn 0.0000 1.0000 0.0000
vn 0.0000 1.0000 0.0000
vn 0.0000 1.0000 0.0000
vn 0.0000 1.0000 0.0000
vn 0.0000 1.0000 0.0000
vn 0.0000 1.0000 0.0000
vn 0.0000 1.0000 0.0000
usemtl TF_Utility
f 1/1/1 2/2/2 3/3/3
f 1/1/1 3/3/3 4/4/4
f 5/5/5 6/6/6 7/7/7
f 5/5/5 7/7/7 8/8/8
f 9/9/9 10/10/10 11/11/11
f 9/9/9 11/11/11 12/12/12
f 13/13/13 14/14/14 15/15/15
f 13/13/13 15/15/15 16/16/16
f 17/17/17 18/18/18 19/19/19
f 17/17/17 19/19/19 20/20/20
f 21/21/21 22/22/22 23/23/23
f 21/21/21 23/23/23 24/24/24
f 25/25/25 26/26/26 27/27/27
f 25/25/25 27/27/27 28/28/28
f 29/29/29 30/30/30 31/31/31
f 29/29/29 31/31/31 32/32/32
f 33/33/33 34/34/34 35/35/35
f 33/33/33 35/35/35 36/36/36
f 37/37/37 38/38/38 39/39/39
f 37/37/37 39/39/39 40/40/40
f 41/41/41 42/42/42 43/43/43
f 41/41/41 43/43/43 44/44/44
f 45/45/45 46/46/46 47/47/47
f 45/45/45 47/47/47 48/48/48
f 49/49/49 50/50/50 51/51/51
f 49/49/49 51/51/51 52/52/52
f 53/53/53 54/54/54 55/55/55
f 53/53/53 55/55/55 56/56/56
f 57/57/57 58/58/58 59/59/59
f 57/57/57 59/59/59 60/60/60
f 61/61/61 62/62/62 63/63/63
f 61/61/61 63/63/63 64/64/64
f 65/65/65 66/66/66 67/67/67
f 65/65/65 67/67/67 68/68/68
f 69/69/69 70/70/70 71/71/71
f 69/69/69 71/71/71 72/72/72
f 73/73/73 74/74/74 75/75/75
f 73/73/73 75/75/75 76/76/76
f 77/77/77 78/78/78 79/79/79
f 77/77/77 79/79/79 80/80/80
f 81/81/81 82/82/82 83/83/83
f 81/81/81 83/83/83 84/84/84
f 85/85/85 86/86/86 87/87/87
f 85/85/85 87/87/87 88/88/88
f 89/89/89 90/90/90 91/91/91
f 89/89/89 91/91/91 92/92/92
f 93/93/93 94/94/94 95/95/95
f 93/93/93 95/95/95 96/96/96
f 97/97/97 98/98/98 99/99/99
f 97/97/97 99/99/99 100/100/100
f 101/101/101 102/102/102 103/103/103
f 101/101/101 103/103/103 104/104/104
f 105/105/105 106/106/106 107/107/107
f 105/105/105 107/107/107 108/108/108
f 109/109/109 110/110/110 111/111/111
f 109/109/109 111/111/111 112/112/112
f 113/113/113 114/114/114 115/115/115
f 113/113/113 115/115/115 116/116/116
f 117/117/117 118/118/118 119/119/119
f 117/117/117 119/119/119 120/120/120
f 121/121/121 122/122/122 123/123/123
f 121/121/121 123/123/123 124/124/124
f 125/125/125 126/126/126 127/127/127
f 125/125/125 127/127/127 128/128/128
f 129/129/129 130/130/130 131/131/131
f 129/129/129 131/131/131 132/132/132
f 133/133/133 134/134/134 135/135/135
f 133/133/133 135/135/135 136/136/136
f 137/137/137 138/138/138 139/139/139
f 137/137/137 139/139/139 140/140/140
f 141/141/141 142/142/142 143/143/143
f 141/141/141 143/143/143 144/144/144
f 145/145/145 146/146/146 147/147/147
f 145/145/145 147/147/147 148/148/148
f 149/149/149 150/150/150 151/151/151
f 149/149/149 151/151/151 152/152/152
f 153/153/153 154/154/154 155/155/155
f 153/153/153 155/155/155 156/156/156
f 157/157/157 158/158/158 159/159/159
f 157/157/157 159/159/159 160/160/160
f 161/161/161 162/162/162 163/163/163
f 161/161/161 163/163/163 164/164/164
f 165/165/165 166/166/166 167/167/167
f 165/165/165 167/167/167 168/168/168
f 169/169/169 170/170/170 171/171/171
f 169/169/169 171/171/171 172/172/172
f 173/173/173 174/174/174 175/175/175
f 173/173/173 175/175/175 176/176/176
f 177/177/177 178/178/178 179/179/179
f 177/177/177 179/179/179 180/180/180
f 181/181/181 182/182/182 183/183/183
f 181/181/181 183/183/183 184/184/184
f 185/185/185 186/186/186 187/187/187
f 185/185/185 187/187/187 188/188/188
f 189/189/189 190/190/190 191/191/191
f 189/189/189 191/191/191 192/192/192
f 193/193/193 194/194/194 195/195/195
f 193/193/193 195/195/195 196/196/196
f 197/197/197 198/198/198 199/199/199
f 197/197/197 199/199/199 200/200/200
f 197/197/197 200/200/200 201/201/201
f 197/197/197 201/201/201 202/202/202
f 197/197/197 202/202/202 203/203/203
