# TERRAFRONT procedural asset — generated by Tools/assetgen (deterministic)
# Y-up, +Z forward (muzzle), units = meters, pivot at grip/origin.
# prop_crate_s — TERRAFRONT P3
mtllib tf_utility.mtl
o prop_crate_s
v -0.2450 0.0300 -0.2750
v -0.2450 0.4700 -0.2750
v 0.2450 0.4700 -0.2750
v 0.2450 0.0300 -0.2750
v 0.2450 0.0300 0.2750
v 0.2450 0.4700 0.2750
v -0.2450 0.4700 0.2750
v -0.2450 0.0300 0.2750
v -0.2450 0.5000 -0.2450
v -0.2450 0.5000 0.2450
v 0.2450 0.5000 0.2450
v 0.2450 0.5000 -0.2450
v -0.2450 0.0000 -0.2450
v 0.2450 0.0000 -0.2450
v 0.2450 0.0000 0.2450
v -0.2450 0.0000 0.2450
v 0.2750 0.0300 -0.2450
v 0.2750 0.4700 -0.2450
v 0.2750 0.4700 0.2450
v 0.2750 0.0300 0.2450
v -0.2750 0.0300 0.2450
v -0.2750 0.4700 0.2450
v -0.2750 0.4700 -0.2450
v -0.2750 0.0300 -0.2450
v -0.2450 0.5000 -0.2450
v 0.2450 0.5000 -0.2450
v 0.2450 0.4700 -0.2750
v -0.2450 0.4700 -0.2750
v 0.2450 0.5000 0.2450
v -0.2450 0.5000 0.2450
v -0.2450 0.4700 0.2750
v 0.2450 0.4700 0.2750
v 0.2450 0.0000 -0.2450
v -0.2450 0.0000 -0.2450
v -0.2450 0.0300 -0.2750
v 0.2450 0.0300 -0.2750
v -0.2450 0.0000 0.2450
v 0.2450 0.0000 0.2450
v 0.2450 0.0300 0.2750
v -0.2450 0.0300 0.2750
v 0.2750 0.4700 -0.2450
v 0.2750 0.4700 0.2450
v 0.2450 0.5000 0.2450
v 0.2450 0.5000 -0.2450
v 0.2750 0.0300 0.2450
v 0.2750 0.0300 -0.2450
v 0.2450 0.0000 -0.2450
v 0.2450 0.0000 0.2450
v -0.2750 0.4700 0.2450
v -0.2750 0.4700 -0.2450
v -0.2450 0.5000 -0.2450
v -0.2450 0.5000 0.2450
v -0.2750 0.0300 -0.2450
v -0.2750 0.0300 0.2450
v -0.2450 0.0000 0.2450
v -0.2450 0.0000 -0.2450
v 0.2750 0.4700 -0.2450
v 0.2450 0.4700 -0.2750
v 0.2450 0.0300 -0.2750
v 0.2750 0.0300 -0.2450
v 0.2750 0.0300 0.2450
v 0.2450 0.0300 0.2750
v 0.2450 0.4700 0.2750
v 0.2750 0.4700 0.2450
v -0.2750 0.0300 -0.2450
v -0.2450 0.0300 -0.2750
v -0.2450 0.4700 -0.2750
v -0.2750 0.4700 -0.2450
v -0.2750 0.4700 0.2450
v -0.2450 0.4700 0.2750
v -0.2450 0.0300 0.2750
v -0.2750 0.0300 0.2450
v 0.2450 0.5000 0.2450
v 0.2750 0.4700 0.2450
v 0.2450 0.4700 0.2750
v -0.2450 0.4700 0.2750
v -0.2750 0.4700 0.2450
v -0.2450 0.5000 0.2450
v 0.2450 0.0300 0.2750
v 0.2750 0.0300 0.2450
v 0.2450 0.0000 0.2450
v -0.2450 0.0000 0.2450
v -0.2750 0.0300 0.2450
v -0.2450 0.0300 0.2750
v 0.2450 0.4700 -0.2750
v 0.2750 0.4700 -0.2450
v 0.2450 0.5000 -0.2450
v -0.2450 0.5000 -0.2450
v -0.2750 0.4700 -0.2450
v -0.2450 0.4700 -0.2750
v 0.2450 0.0000 -0.2450
v 0.2750 0.0300 -0.2450
v 0.2450 0.0300 -0.2750
v -0.2450 0.0300 -0.2750
v -0.2750 0.0300 -0.2450
v -0.2450 0.0000 -0.2450
v -0.2778 0.2350 -0.2778
v -0.2778 0.3150 -0.2778
v 0.2778 0.3150 -0.2778
v 0.2778 0.2350 -0.2778
v 0.2778 0.2350 0.2778
v 0.2778 0.3150 0.2778
v -0.2778 0.3150 0.2778
v -0.2778 0.2350 0.2778
v -0.2778 0.3150 -0.2778
v -0.2778 0.3150 0.2778
v 0.2778 0.3150 0.2778
v 0.2778 0.3150 -0.2778
v -0.2778 0.2350 -0.2778
v 0.2778 0.2350 -0.2778
v 0.2778 0.2350 0.2778
v -0.2778 0.2350 0.2778
v 0.2778 0.2350 -0.2778
v 0.2778 0.3150 -0.2778
v 0.2778 0.3150 0.2778
v 0.2778 0.2350 0.2778
v -0.2778 0.2350 0.2778
v -0.2778 0.3150 0.2778
v -0.2778 0.3150 -0.2778
v -0.2778 0.2350 -0.2778
v 0.2180 0.0180 -0.2764
v 0.2180 0.4820 -0.2764
v 0.2520 0.4820 -0.2764
v 0.2520 0.0180 -0.2764
v 0.2520 0.0180 0.2764
v 0.2520 0.4820 0.2764
v 0.2180 0.4820 0.2764
v 0.2180 0.0180 0.2764
v 0.2180 0.4900 -0.2684
v 0.2180 0.4900 0.2684
v 0.2520 0.4900 0.2684
v 0.2520 0.4900 -0.2684
v 0.2180 0.0100 -0.2684
v 0.2520 0.0100 -0.2684
v 0.2520 0.0100 0.2684
v 0.2180 0.0100 0.2684
v 0.2600 0.0180 -0.2684
v 0.2600 0.4820 -0.2684
v 0.2600 0.4820 0.2684
v 0.2600 0.0180 0.2684
v 0.2100 0.0180 0.2684
v 0.2100 0.4820 0.2684
v 0.2100 0.4820 -0.2684
v 0.2100 0.0180 -0.2684
v 0.2180 0.4900 -0.2684
v 0.2520 0.4900 -0.2684
v 0.2520 0.4820 -0.2764
v 0.2180 0.4820 -0.2764
v 0.2520 0.4900 0.2684
v 0.2180 0.4900 0.2684
v 0.2180 0.4820 0.2764
v 0.2520 0.4820 0.2764
v 0.2520 0.0100 -0.2684
v 0.2180 0.0100 -0.2684
v 0.2180 0.0180 -0.2764
v 0.2520 0.0180 -0.2764
v 0.2180 0.0100 0.2684
v 0.2520 0.0100 0.2684
v 0.2520 0.0180 0.2764
v 0.2180 0.0180 0.2764
v 0.2600 0.4820 -0.2684
v 0.2600 0.4820 0.2684
v 0.2520 0.4900 0.2684
v 0.2520 0.4900 -0.2684
v 0.2600 0.0180 0.2684
v 0.2600 0.0180 -0.2684
v 0.2520 0.0100 -0.2684
v 0.2520 0.0100 0.2684
v 0.2100 0.4820 0.2684
v 0.2100 0.4820 -0.2684
v 0.2180 0.4900 -0.2684
v 0.2180 0.4900 0.2684
v 0.2100 0.0180 -0.2684
v 0.2100 0.0180 0.2684
v 0.2180 0.0100 0.2684
v 0.2180 0.0100 -0.2684
v 0.2600 0.4820 -0.2684
v 0.2520 0.4820 -0.2764
v 0.2520 0.0180 -0.2764
v 0.2600 0.0180 -0.2684
v 0.2600 0.0180 0.2684
v 0.2520 0.0180 0.2764
v 0.2520 0.4820 0.2764
v 0.2600 0.4820 0.2684
v 0.2100 0.0180 -0.2684
v 0.2180 0.0180 -0.2764
v 0.2180 0.4820 -0.2764
v 0.2100 0.4820 -0.2684
v 0.2100 0.4820 0.2684
v 0.2180 0.4820 0.2764
v 0.2180 0.0180 0.2764
v 0.2100 0.0180 0.2684
v 0.2520 0.4900 0.2684
v 0.2600 0.4820 0.2684
v 0.2520 0.4820 0.2764
v 0.2180 0.4820 0.2764
v 0.2100 0.4820 0.2684
v 0.2180 0.4900 0.2684
v 0.2520 0.0180 0.2764
v 0.2600 0.0180 0.2684
v 0.2520 0.0100 0.2684
v 0.2180 0.0100 0.2684
v 0.2100 0.0180 0.2684
v 0.2180 0.0180 0.2764
v 0.2520 0.4820 -0.2764
v 0.2600 0.4820 -0.2684
v 0.2520 0.4900 -0.2684
v 0.2180 0.4900 -0.2684
v 0.2100 0.4820 -0.2684
v 0.2180 0.4820 -0.2764
v 0.2520 0.0100 -0.2684
v 0.2600 0.0180 -0.2684
v 0.2520 0.0180 -0.2764
v 0.2180 0.0180 -0.2764
v 0.2100 0.0180 -0.2684
v 0.2180 0.0100 -0.2684
v -0.2520 0.0180 -0.2764
v -0.2520 0.4820 -0.2764
v -0.2180 0.4820 -0.2764
v -0.2180 0.0180 -0.2764
v -0.2180 0.0180 0.2764
v -0.2180 0.4820 0.2764
v -0.2520 0.4820 0.2764
v -0.2520 0.0180 0.2764
v -0.2520 0.4900 -0.2684
v -0.2520 0.4900 0.2684
v -0.2180 0.4900 0.2684
v -0.2180 0.4900 -0.2684
v -0.2520 0.0100 -0.2684
v -0.2180 0.0100 -0.2684
v -0.2180 0.0100 0.2684
v -0.2520 0.0100 0.2684
v -0.2100 0.0180 -0.2684
v -0.2100 0.4820 -0.2684
v -0.2100 0.4820 0.2684
v -0.2100 0.0180 0.2684
v -0.2600 0.0180 0.2684
v -0.2600 0.4820 0.2684
v -0.2600 0.4820 -0.2684
v -0.2600 0.0180 -0.2684
v -0.2520 0.4900 -0.2684
v -0.2180 0.4900 -0.2684
v -0.2180 0.4820 -0.2764
v -0.2520 0.4820 -0.2764
v -0.2180 0.4900 0.2684
v -0.2520 0.4900 0.2684
v -0.2520 0.4820 0.2764
v -0.2180 0.4820 0.2764
v -0.2180 0.0100 -0.2684
v -0.2520 0.0100 -0.2684
v -0.2520 0.0180 -0.2764
v -0.2180 0.0180 -0.2764
v -0.2520 0.0100 0.2684
v -0.2180 0.0100 0.2684
v -0.2180 0.0180 0.2764
v -0.2520 0.0180 0.2764
v -0.2100 0.4820 -0.2684
v -0.2100 0.4820 0.2684
v -0.2180 0.4900 0.2684
v -0.2180 0.4900 -0.2684
v -0.2100 0.0180 0.2684
v -0.2100 0.0180 -0.2684
v -0.2180 0.0100 -0.2684
v -0.2180 0.0100 0.2684
v -0.2600 0.4820 0.2684
v -0.2600 0.4820 -0.2684
v -0.2520 0.4900 -0.2684
v -0.2520 0.4900 0.2684
v -0.2600 0.0180 -0.2684
v -0.2600 0.0180 0.2684
v -0.2520 0.0100 0.2684
v -0.2520 0.0100 -0.2684
v -0.2100 0.4820 -0.2684
v -0.2180 0.4820 -0.2764
v -0.2180 0.0180 -0.2764
v -0.2100 0.0180 -0.2684
v -0.2100 0.0180 0.2684
v -0.2180 0.0180 0.2764
v -0.2180 0.4820 0.2764
v -0.2100 0.4820 0.2684
v -0.2600 0.0180 -0.2684
v -0.2520 0.0180 -0.2764
v -0.2520 0.4820 -0.2764
v -0.2600 0.4820 -0.2684
v -0.2600 0.4820 0.2684
v -0.2520 0.4820 0.2764
v -0.2520 0.0180 0.2764
v -0.2600 0.0180 0.2684
v -0.2180 0.4900 0.2684
v -0.2100 0.4820 0.2684
v -0.2180 0.4820 0.2764
v -0.2520 0.4820 0.2764
v -0.2600 0.4820 0.2684
v -0.2520 0.4900 0.2684
v -0.2180 0.0180 0.2764
v -0.2100 0.0180 0.2684
v -0.2180 0.0100 0.2684
v -0.2520 0.0100 0.2684
v -0.2600 0.0180 0.2684
v -0.2520 0.0180 0.2764
v -0.2180 0.4820 -0.2764
v -0.2100 0.4820 -0.2684
v -0.2180 0.4900 -0.2684
v -0.2520 0.4900 -0.2684
v -0.2600 0.4820 -0.2684
v -0.2520 0.4820 -0.2764
v -0.2180 0.0100 -0.2684
v -0.2100 0.0180 -0.2684
v -0.2180 0.0180 -0.2764
v -0.2520 0.0180 -0.2764
v -0.2600 0.0180 -0.2684
v -0.2520 0.0100 -0.2684
vt 0.0308 0.5335
vt 0.0308 0.9665
vt 0.4692 0.9665
vt 0.4692 0.5335
vt 0.4692 0.5335
vt 0.4692 0.9665
vt 0.0308 0.9665
vt 0.0308 0.5335
vt 0.0308 0.5308
vt 0.0308 0.9692
vt 0.4692 0.9692
vt 0.4692 0.5308
vt 0.0308 0.5308
vt 0.4692 0.5308
vt 0.4692 0.9692
vt 0.0308 0.9692
vt 0.0308 0.5335
vt 0.0308 0.9665
vt 0.4692 0.9665
vt 0.4692 0.5335
vt 0.4692 0.5335
vt 0.4692 0.9665
vt 0.0308 0.9665
vt 0.0308 0.5335
vt 0.0308 0.9960
vt 0.4692 0.9960
vt 0.4692 0.9665
vt 0.0308 0.9665
vt 0.4692 0.9960
vt 0.0308 0.9960
vt 0.0308 0.9665
vt 0.4692 0.9665
vt 0.4692 0.5308
vt 0.0308 0.5308
vt 0.0308 0.5040
vt 0.4692 0.5040
vt 0.0308 0.9692
vt 0.4692 0.9692
vt 0.4692 0.9960
vt 0.0308 0.9960
vt 0.4960 0.5308
vt 0.4960 0.9692
vt 0.4692 0.9692
vt 0.4692 0.5308
vt 0.4960 0.9692
vt 0.4960 0.5308
vt 0.4692 0.5308
vt 0.4692 0.9692
vt 0.0040 0.9692
vt 0.0040 0.5308
vt 0.0308 0.5308
vt 0.0308 0.9692
vt 0.0040 0.5308
vt 0.0040 0.9692
vt 0.0308 0.9692
vt 0.0308 0.5308
vt 0.0308 0.9665
vt 0.0040 0.9665
vt 0.0040 0.5335
vt 0.0308 0.5335
vt 0.4692 0.5335
vt 0.4960 0.5335
vt 0.4960 0.9665
vt 0.4692 0.9665
vt 0.0308 0.5335
vt 0.0040 0.5335
vt 0.0040 0.9665
vt 0.0308 0.9665
vt 0.4692 0.9665
vt 0.4960 0.9665
vt 0.4960 0.5335
vt 0.4692 0.5335
vt 0.4692 0.9960
vt 0.4960 0.9665
vt 0.4692 0.9665
vt 0.0308 0.9665
vt 0.0040 0.9665
vt 0.0308 0.9960
vt 0.4692 0.5335
vt 0.4960 0.5335
vt 0.4692 0.5040
vt 0.0308 0.5040
vt 0.0040 0.5335
vt 0.0308 0.5335
vt 0.4692 0.9665
vt 0.4960 0.9665
vt 0.4692 0.9960
vt 0.0308 0.9960
vt 0.0040 0.9665
vt 0.0308 0.9665
vt 0.4692 0.5040
vt 0.4960 0.5335
vt 0.4692 0.5335
vt 0.0308 0.5335
vt 0.0040 0.5335
vt 0.0308 0.5040
vt 0.0040 0.0040
vt 0.0040 0.0040
vt 0.2460 0.0040
vt 0.2460 0.0040
vt 0.2460 0.2460
vt 0.2460 0.2460
vt 0.0040 0.2460
vt 0.0040 0.2460
vt 0.0040 0.0040
vt 0.0040 0.2460
vt 0.2460 0.2460
vt 0.2460 0.0040
vt 0.0040 0.0040
vt 0.2460 0.0040
vt 0.2460 0.2460
vt 0.0040 0.2460
vt 0.2460 0.0040
vt 0.2460 0.0040
vt 0.2460 0.2460
vt 0.2460 0.2460
vt 0.0040 0.2460
vt 0.0040 0.2460
vt 0.0040 0.0040
vt 0.0040 0.0040
vt 0.7540 0.2580
vt 0.7540 0.4920
vt 0.7540 0.4920
vt 0.7540 0.2580
vt 0.9960 0.2580
vt 0.9960 0.4920
vt 0.9960 0.4920
vt 0.9960 0.2580
vt 0.7575 0.4960
vt 0.9925 0.4960
vt 0.9925 0.4960
vt 0.7575 0.4960
vt 0.7575 0.2540
vt 0.7575 0.2540
vt 0.9925 0.2540
vt 0.9925 0.2540
vt 0.7575 0.2580
vt 0.7575 0.4920
vt 0.9925 0.4920
vt 0.9925 0.2580
vt 0.9925 0.2580
vt 0.9925 0.4920
vt 0.7575 0.4920
vt 0.7575 0.2580
vt 0.7575 0.4960
vt 0.7575 0.4960
vt 0.7540 0.4920
vt 0.7540 0.4920
vt 0.9925 0.4960
vt 0.9925 0.4960
vt 0.9960 0.4920
vt 0.9960 0.4920
vt 0.7575 0.2540
vt 0.7575 0.2540
vt 0.7540 0.2580
vt 0.7540 0.2580
vt 0.9925 0.2540
vt 0.9925 0.2540
vt 0.9960 0.2580
vt 0.9960 0.2580
vt 0.7575 0.4920
vt 0.9925 0.4920
vt 0.9925 0.4960
vt 0.7575 0.4960
vt 0.9925 0.2580
vt 0.7575 0.2580
vt 0.7575 0.2540
vt 0.9925 0.2540
vt 0.9925 0.4920
vt 0.7575 0.4920
vt 0.7575 0.4960
vt 0.9925 0.4960
vt 0.7575 0.2580
vt 0.9925 0.2580
vt 0.9925 0.2540
vt 0.7575 0.2540
vt 0.7575 0.4920
vt 0.7540 0.4920
vt 0.7540 0.2580
vt 0.7575 0.2580
vt 0.9925 0.2580
vt 0.9960 0.2580
vt 0.9960 0.4920
vt 0.9925 0.4920
vt 0.7575 0.2580
vt 0.7540 0.2580
vt 0.7540 0.4920
vt 0.7575 0.4920
vt 0.9925 0.4920
vt 0.9960 0.4920
vt 0.9960 0.2580
vt 0.9925 0.2580
vt 0.9925 0.4960
vt 0.9925 0.4920
vt 0.9960 0.4920
vt 0.9960 0.4920
vt 0.9925 0.4920
vt 0.9925 0.4960
vt 0.9960 0.2580
vt 0.9925 0.2580
vt 0.9925 0.2540
vt 0.9925 0.2540
vt 0.9925 0.2580
vt 0.9960 0.2580
vt 0.7540 0.4920
vt 0.7575 0.4920
vt 0.7575 0.4960
vt 0.7575 0.4960
vt 0.7575 0.4920
vt 0.7540 0.4920
vt 0.7575 0.2540
vt 0.7575 0.2580
vt 0.7540 0.2580
vt 0.7540 0.2580
vt 0.7575 0.2580
vt 0.7575 0.2540
vt 0.7540 0.2580
vt 0.7540 0.4920
vt 0.7540 0.4920
vt 0.7540 0.2580
vt 0.9960 0.2580
vt 0.9960 0.4920
vt 0.9960 0.4920
vt 0.9960 0.2580
vt 0.7575 0.4960
vt 0.9925 0.4960
vt 0.9925 0.4960
vt 0.7575 0.4960
vt 0.7575 0.2540
vt 0.7575 0.2540
vt 0.9925 0.2540
vt 0.9925 0.2540
vt 0.7575 0.2580
vt 0.7575 0.4920
vt 0.9925 0.4920
vt 0.9925 0.2580
vt 0.9925 0.2580
vt 0.9925 0.4920
vt 0.7575 0.4920
vt 0.7575 0.2580
vt 0.7575 0.4960
vt 0.7575 0.4960
vt 0.7540 0.4920
vt 0.7540 0.4920
vt 0.9925 0.4960
vt 0.9925 0.4960
vt 0.9960 0.4920
vt 0.9960 0.4920
vt 0.7575 0.2540
vt 0.7575 0.2540
vt 0.7540 0.2580
vt 0.7540 0.2580
vt 0.9925 0.2540
vt 0.9925 0.2540
vt 0.9960 0.2580
vt 0.9960 0.2580
vt 0.7575 0.4920
vt 0.9925 0.4920
vt 0.9925 0.4960
vt 0.7575 0.4960
vt 0.9925 0.2580
vt 0.7575 0.2580
vt 0.7575 0.2540
vt 0.9925 0.2540
vt 0.9925 0.4920
vt 0.7575 0.4920
vt 0.7575 0.4960
vt 0.9925 0.4960
vt 0.7575 0.2580
vt 0.9925 0.2580
vt 0.9925 0.2540
vt 0.7575 0.2540
vt 0.7575 0.4920
vt 0.7540 0.4920
vt 0.7540 0.2580
vt 0.7575 0.2580
vt 0.9925 0.2580
vt 0.9960 0.2580
vt 0.9960 0.4920
vt 0.9925 0.4920
vt 0.7575 0.2580
vt 0.7540 0.2580
vt 0.7540 0.4920
vt 0.7575 0.4920
vt 0.9925 0.4920
vt 0.9960 0.4920
vt 0.9960 0.2580
vt 0.9925 0.2580
vt 0.9925 0.4960
vt 0.9925 0.4920
vt 0.9960 0.4920
vt 0.9960 0.4920
vt 0.9925 0.4920
vt 0.9925 0.4960
vt 0.9960 0.2580
vt 0.9925 0.2580
vt 0.9925 0.2540
vt 0.9925 0.2540
vt 0.9925 0.2580
vt 0.9960 0.2580
vt 0.7540 0.4920
vt 0.7575 0.4920
vt 0.7575 0.4960
vt 0.7575 0.4960
vt 0.7575 0.4920
vt 0.7540 0.4920
vt 0.7575 0.2540
vt 0.7575 0.2580
vt 0.7540 0.2580
vt 0.7540 0.2580
vt 0.7575 0.2580
vt 0.7575 0.2540
vn 0.0000 0.0000 -1.0000
vn 0.0000 0.0000 -1.0000
vn 0.0000 0.0000 -1.0000
vn 0.0000 0.0000 -1.0000
vn 0.0000 0.0000 1.0000
vn 0.0000 0.0000 1.0000
vn 0.0000 0.0000 1.0000
vn 0.0000 0.0000 1.0000
vn 0.0000 1.0000 0.0000
vn 0.0000 1.0000 0.0000
vn 0.0000 1.0000 0.0000
vn 0.0000 1.0000 0.0000
vn 0.0000 -1.0000 0.0000
vn 0.0000 -1.0000 0.0000
vn 0.0000 -1.0000 0.0000
vn 0.0000 -1.0000 0.0000
vn 1.0000 0.0000 0.0000
vn 1.0000 0.0000 0.0000
vn 1.0000 0.0000 0.0000
vn 1.0000 0.0000 0.0000
vn -1.0000 0.0000 0.0000
vn -1.0000 0.0000 0.0000
vn -1.0000 0.0000 0.0000
vn -1.0000 0.0000 0.0000
vn 0.0000 0.7071 -0.7071
vn 0.0000 0.7071 -0.7071
vn 0.0000 0.7071 -0.7071
vn 0.0000 0.7071 -0.7071
vn 0.0000 0.7071 0.7071
vn 0.0000 0.7071 0.7071
vn 0.0000 0.7071 0.7071
vn 0.0000 0.7071 0.7071
vn 0.0000 -0.7071 -0.7071
vn 0.0000 -0.7071 -0.7071
vn 0.0000 -0.7071 -0.7071
vn 0.0000 -0.7071 -0.7071
vn 0.0000 -0.7071 0.7071
vn 0.0000 -0.7071 0.7071
vn 0.0000 -0.7071 0.7071
vn 0.0000 -0.7071 0.7071
vn -0.7071 -0.7071 0.0000
vn -0.7071 -0.7071 0.0000
vn -0.7071 -0.7071 0.0000
vn -0.7071 -0.7071 0.0000
vn -0.7071 0.7071 0.0000
vn -0.7071 0.7071 0.0000
vn -0.7071 0.7071 0.0000
vn -0.7071 0.7071 0.0000
vn 0.7071 -0.7071 0.0000
vn 0.7071 -0.7071 0.0000
vn 0.7071 -0.7071 0.0000
vn 0.7071 -0.7071 0.0000
vn 0.7071 0.7071 0.0000
vn 0.7071 0.7071 0.0000
vn 0.7071 0.7071 0.0000
vn 0.7071 0.7071 0.0000
vn -0.7071 0.0000 0.7071
vn -0.7071 0.0000 0.7071
vn -0.7071 0.0000 0.7071
vn -0.7071 0.0000 0.7071
vn -0.7071 0.0000 -0.7071
vn -0.7071 0.0000 -0.7071
vn -0.7071 0.0000 -0.7071
vn -0.7071 0.0000 -0.7071
vn 0.7071 0.0000 0.7071
vn 0.7071 0.0000 0.7071
vn 0.7071 0.0000 0.7071
vn 0.7071 0.0000 0.7071
vn 0.7071 0.0000 -0.7071
vn 0.7071 0.0000 -0.7071
vn 0.7071 0.0000 -0.7071
vn 0.7071 0.0000 -0.7071
vn -0.5774 -0.5774 -0.5774
vn -0.5774 -0.5774 -0.5774
vn -0.5774 -0.5774 -0.5774
vn 0.5774 -0.5774 -0.5774
vn 0.5774 -0.5774 -0.5774
vn 0.5774 -0.5774 -0.5774
vn -0.5774 0.5774 -0.5774
vn -0.5774 0.5774 -0.5774
vn -0.5774 0.5774 -0.5774
vn 0.5774 0.5774 -0.5774
vn 0.5774 0.5774 -0.5774
vn 0.5774 0.5774 -0.5774
vn -0.5774 -0.5774 0.5774
vn -0.5774 -0.5774 0.5774
vn -0.5774 -0.5774 0.5774
vn 0.5774 -0.5774 0.5774
vn 0.5774 -0.5774 0.5774
vn 0.5774 -0.5774 0.5774
vn -0.5774 0.5774 0.5774
vn -0.5774 0.5774 0.5774
vn -0.5774 0.5774 0.5774
vn 0.5774 0.5774 0.5774
vn 0.5774 0.5774 0.5774
vn 0.5774 0.5774 0.5774
vn 0.0000 0.0000 -1.0000
vn 0.0000 0.0000 -1.0000
vn 0.0000 0.0000 -1.0000
vn 0.0000 0.0000 -1.0000
vn 0.0000 0.0000 1.0000
vn 0.0000 0.0000 1.0000
vn 0.0000 0.0000 1.0000
vn 0.0000 0.0000 1.0000
vn 0.0000 1.0000 0.0000
vn 0.0000 1.0000 0.0000
vn 0.0000 1.0000 0.0000
vn 0.0000 1.0000 0.0000
vn 0.0000 -1.0000 0.0000
vn 0.0000 -1.0000 0.0000
vn 0.0000 -1.0000 0.0000
vn 0.0000 -1.0000 0.0000
vn 1.0000 0.0000 0.0000
vn 1.0000 0.0000 0.0000
vn 1.0000 0.0000 0.0000
vn 1.0000 0.0000 0.0000
vn -1.0000 0.0000 0.0000
vn -1.0000 0.0000 0.0000
vn -1.0000 0.0000 0.0000
vn -1.0000 0.0000 0.0000
vn 0.0000 0.0000 -1.0000
vn 0.0000 0.0000 -1.0000
vn 0.0000 0.0000 -1.0000
vn 0.0000 0.0000 -1.0000
vn 0.0000 0.0000 1.0000
vn 0.0000 0.0000 1.0000
vn 0.0000 0.0000 1.0000
vn 0.0000 0.0000 1.0000
vn 0.0000 1.0000 0.0000
vn 0.0000 1.0000 0.0000
vn 0.0000 1.0000 0.0000
vn 0.0000 1.0000 0.0000
vn 0.0000 -1.0000 0.0000
vn 0.0000 -1.0000 0.0000
vn 0.0000 -1.0000 0.0000
vn 0.0000 -1.0000 0.0000
vn 1.0000 0.0000 0.0000
vn 1.0000 0.0000 0.0000
vn 1.0000 0.0000 0.0000
vn 1.0000 0.0000 0.0000
vn -1.0000 0.0000 0.0000
vn -1.0000 0.0000 0.0000
vn -1.0000 0.0000 0.0000
vn -1.0000 0.0000 0.0000
vn 0.0000 0.7071 -0.7071
vn 0.0000 0.7071 -0.7071
vn 0.0000 0.7071 -0.7071
vn 0.0000 0.7071 -0.7071
vn 0.0000 0.7071 0.7071
vn 0.0000 0.7071 0.7071
vn 0.0000 0.7071 0.7071
vn 0.0000 0.7071 0.7071
vn 0.0000 -0.7071 -0.7071
vn 0.0000 -0.7071 -0.7071
vn 0.0000 -0.7071 -0.7071
vn 0.0000 -0.7071 -0.7071
vn 0.0000 -0.7071 0.7071
vn 0.0000 -0.7071 0.7071
vn 0.0000 -0.7071 0.7071
vn 0.0000 -0.7071 0.7071
vn -0.7071 -0.7071 0.0000
vn -0.7071 -0.7071 0.0000
vn -0.7071 -0.7071 0.0000
vn -0.7071 -0.7071 0.0000
vn -0.7071 0.7071 0.0000
vn -0.7071 0.7071 0.0000
vn -0.7071 0.7071 0.0000
vn -0.7071 0.7071 0.0000
vn 0.7071 -0.7071 0.0000
vn 0.7071 -0.7071 0.0000
vn 0.7071 -0.7071 0.0000
vn 0.7071 -0.7071 0.0000
vn 0.7071 0.7071 0.0000
vn 0.7071 0.7071 0.0000
vn 0.7071 0.7071 0.0000
vn 0.7071 0.7071 0.0000
vn -0.7071 0.0000 0.7071
vn -0.7071 0.0000 0.7071
vn -0.7071 0.0000 0.7071
vn -0.7071 0.0000 0.7071
vn -0.7071 0.0000 -0.7071
vn -0.7071 0.0000 -0.7071
vn -0.7071 0.0000 -0.7071
vn -0.7071 0.0000 -0.7071
vn 0.7071 0.0000 0.7071
vn 0.7071 0.0000 0.7071
vn 0.7071 0.0000 0.7071
vn 0.7071 0.0000 0.7071
vn 0.7071 0.0000 -0.7071
vn 0.7071 0.0000 -0.7071
vn 0.7071 0.0000 -0.7071
vn 0.7071 0.0000 -0.7071
vn -0.5774 -0.5774 -0.5774
vn -0.5774 -0.5774 -0.5774
vn -0.5774 -0.5774 -0.5774
vn 0.5774 -0.5774 -0.5774
vn 0.5774 -0.5774 -0.5774
vn 0.5774 -0.5774 -0.5774
vn -0.5774 0.5774 -0.5774
vn -0.5774 0.5774 -0.5774
vn -0.5774 0.5774 -0.5774
vn 0.5774 0.5774 -0.5774
vn 0.5774 0.5774 -0.5774
vn 0.5774 0.5774 -0.5774
vn -0.5774 -0.5774 0.5774
vn -0.5774 -0.5774 0.5774
vn -0.5774 -0.5774 0.5774
vn 0.5774 -0.5774 0.5774
vn 0.5774 -0.5774 0.5774
vn 0.5774 -0.5774 0.5774
vn -0.5774 0.5774 0.5774
vn -0.5774 0.5774 0.5774
vn -0.5774 0.5774 0.5774
vn 0.5774 0.5774 0.5774
vn 0.5774 0.5774 0.5774
vn 0.5774 0.5774 0.5774
vn 0.0000 0.0000 -1.0000
vn 0.0000 0.0000 -1.0000
vn 0.0000 0.0000 -1.0000
vn 0.0000 0.0000 -1.0000
vn 0.0000 0.0000 1.0000
vn 0.0000 0.0000 1.0000
vn 0.0000 0.0000 1.0000
vn 0.0000 0.0000 1.0000
vn 0.0000 1.0000 0.0000
vn 0.0000 1.0000 0.0000
vn 0.0000 1.0000 0.0000
vn 0.0000 1.0000 0.0000
vn 0.0000 -1.0000 0.0000
vn 0.0000 -1.0000 0.0000
vn 0.0000 -1.0000 0.0000
vn 0.0000 -1.0000 0.0000
vn 1.0000 0.0000 0.0000
vn 1.0000 0.0000 0.0000
vn 1.0000 0.0000 0.0000
vn 1.0000 0.0000 0.0000
vn -1.0000 0.0000 0.0000
vn -1.0000 0.0000 0.0000
vn -1.0000 0.0000 0.0000
vn -1.0000 0.0000 0.0000
vn 0.0000 0.7071 -0.7071
vn 0.0000 0.7071 -0.7071
vn 0.0000 0.7071 -0.7071
vn 0.0000 0.7071 -0.7071
vn 0.0000 0.7071 0.7071
vn 0.0000 0.7071 0.7071
vn 0.0000 0.7071 0.7071
vn 0.0000 0.7071 0.7071
vn 0.0000 -0.7071 -0.7071
vn 0.0000 -0.7071 -0.7071
vn 0.0000 -0.7071 -0.7071
vn 0.0000 -0.7071 -0.7071
vn 0.0000 -0.7071 0.7071
vn 0.0000 -0.7071 0.7071
vn 0.0000 -0.7071 0.7071
vn 0.0000 -0.7071 0.7071
vn -0.7071 -0.7071 0.0000
vn -0.7071 -0.7071 0.0000
vn -0.7071 -0.7071 0.0000
vn -0.7071 -0.7071 0.0000
vn -0.7071 0.7071 0.0000
vn -0.7071 0.7071 0.0000
vn -0.7071 0.7071 0.0000
vn -0.7071 0.7071 0.0000
vn 0.7071 -0.7071 0.0000
vn 0.7071 -0.7071 0.0000
vn 0.7071 -0.7071 0.0000
vn 0.7071 -0.7071 0.0000
vn 0.7071 0.7071 0.0000
vn 0.7071 0.7071 0.0000
vn 0.7071 0.7071 0.0000
vn 0.7071 0.7071 0.0000
vn -0.7071 0.0000 0.7071
vn -0.7071 0.0000 0.7071
vn -0.7071 0.0000 0.7071
vn -0.7071 0.0000 0.7071
vn -0.7071 0.0000 -0.7071
vn -0.7071 0.0000 -0.7071
vn -0.7071 0.0000 -0.7071
vn -0.7071 0.0000 -0.7071
vn 0.7071 0.0000 0.7071
vn 0.7071 0.0000 0.7071
vn 0.7071 0.0000 0.7071
vn 0.7071 0.0000 0.7071
vn 0.7071 0.0000 -0.7071
vn 0.7071 0.0000 -0.7071
vn 0.7071 0.0000 -0.7071
vn 0.7071 0.0000 -0.7071
vn -0.5774 -0.5774 -0.5774
vn -0.5774 -0.5774 -0.5774
vn -0.5774 -0.5774 -0.5774
vn 0.5774 -0.5774 -0.5774
vn 0.5774 -0.5774 -0.5774
vn 0.5774 -0.5774 -0.5774
vn -0.5774 0.5774 -0.5774
vn -0.5774 0.5774 -0.5774
vn -0.5774 0.5774 -0.5774
vn 0.5774 0.5774 -0.5774
vn 0.5774 0.5774 -0.5774
vn 0.5774 0.5774 -0.5774
vn -0.5774 -0.5774 0.5774
vn -0.5774 -0.5774 0.5774
vn -0.5774 -0.5774 0.5774
vn 0.5774 -0.5774 0.5774
vn 0.5774 -0.5774 0.5774
vn 0.5774 -0.5774 0.5774
vn -0.5774 0.5774 0.5774
vn -0.5774 0.5774 0.5774
vn -0.5774 0.5774 0.5774
vn 0.5774 0.5774 0.5774
vn 0.5774 0.5774 0.5774
vn 0.5774 0.5774 0.5774
usemtl TF_Utility
f 1/1/1 2/2/2 3/3/3
f 1/1/1 3/3/3 4/4/4
f 5/5/5 6/6/6 7/7/7
f 5/5/5 7/7/7 8/8/8
f 9/9/9 10/10/10 11/11/11
f 9/9/9 11/11/11 12/12/12
f 13/13/13 14/14/14 15/15/15
f 13/13/13 15/15/15 16/16/16
f 17/17/17 18/18/18 19/19/19
f 17/17/17 19/19/19 20/20/20
f 21/21/21 22/22/22 23/23/23
f 21/21/21 23/23/23 24/24/24
f 25/25/25 26/26/26 27/27/27
f 25/25/25 27/27/27 28/28/28
f 29/29/29 30/30/30 31/31/31
f 29/29/29 31/31/31 32/32/32
f 33/33/33 34/34/34 35/35/35
f 33/33/33 35/35/35 36/36/36
f 37/37/37 38/38/38 39/39/39
f 37/37/37 39/39/39 40/40/40
f 41/41/41 42/42/42 43/43/43
f 41/41/41 43/43/43 44/44/44
f 45/45/45 46/46/46 47/47/47
f 45/45/45 47/47/47 48/48/48
f 49/49/49 50/50/50 51/51/51
f 49/49/49 51/51/51 52/52/52
f 53/53/53 54/54/54 55/55/55
f 53/53/53 55/55/55 56/56/56
f 57/57/57 58/58/58 59/59/59
f 57/57/57 59/59/59 60/60/60
f 61/61/61 62/62/62 63/63/63
f 61/61/61 63/63/63 64/64/64
f 65/65/65 66/66/66 67/67/67
f 65/65/65 67/67/67 68/68/68
f 69/69/69 70/70/70 71/71/71
f 69/69/69 71/71/71 72/72/72
f 73/73/73 74/74/74 75/75/75
f 76/76/76 77/77/77 78/78/78
f 79/79/79 80/80/80 81/81/81
f 82/82/82 83/83/83 84/84/84
f 85/85/85 86/86/86 87/87/87
f 88/88/88 89/89/89 90/90/90
f 91/91/91 92/92/92 93/93/93
f 94/94/94 95/95/95 96/96/96
f 97/97/97 98/98/98 99/99/99
f 97/97/97 99/99/99 100/100/100
f 101/101/101 102/102/102 103/103/103
f 101/101/101 103/103/103 104/104/104
f 105/105/105 106/106/106 107/107/107
f 105/105/105 107/107/107 108/108/108
f 109/109/109 110/110/110 111/111/111
f 109/109/109 111/111/111 112/112/112
f 113/113/113 114/114/114 115/115/115
f 113/113/113 115/115/115 116/116/116
f 117/117/117 118/118/118 119/119/119
f 117/117/117 119/119/119 120/120/120
f 121/121/121 122/122/122 123/123/123
f 121/121/121 123/123/123 124/124/124
f 125/125/125 126/126/126 127/127/127
f 125/125/125 127/127/127 128/128/128
f 129/129/129 130/130/130 131/131/131
f 129/129/129 131/131/131 132/132/132
f 133/133/133 134/134/134 135/135/135
f 133/133/133 135/135/135 136/136/136
f 137/137/137 138/138/138 139/139/139
f 137/137/137 139/139/139 140/140/140
f 141/141/141 142/142/142 143/143/143
f 141/141/141 143/143/143 144/144/144
f 145/145/145 146/146/146 147/147/147
f 145/145/145 147/147/147 148/148/148
f 149/149/149 150/150/150 151/151/151
f 149/149/149 151/151/151 152/152/152
f 153/153/153 154/154/154 155/155/155
f 153/153/153 155/155/155 156/156/156
f 157/157/157 158/158/158 159/159/159
f 157/157/157 159/159/159 160/160/160
f 161/161/161 162/162/162 163/163/163
f 161/161/161 163/163/163 164/164/164
f 165/165/165 166/166/166 167/167/167
f 165/165/165 167/167/167 168/168/168
f 169/169/169 170/170/170 171/171/171
f 169/169/169 171/171/171 172/172/172
f 173/173/173 174/174/174 175/175/175
f 173/173/173 175/175/175 176/176/176
f 177/177/177 178/178/178 179/179/179
f 177/177/177 179/179/179 180/180/180
f 181/181/181 182/182/182 183/183/183
f 181/181/181 183/183/183 184/184/184
f 185/185/185 186/186/186 187/187/187
f 185/185/185 187/187/187 188/188/188
f 189/189/189 190/190/190 191/191/191
f 189/189/189 191/191/191 192/192/192
f 193/193/193 194/194/194 195/195/195
f 196/196/196 197/197/197 198/198/198
f 199/199/199 200/200/200 201/201/201
f 202/202/202 203/203/203 204/204/204
f 205/205/205 206/206/206 207/207/207
f 208/208/208 209/209/209 210/210/210
f 211/211/211 212/212/212 213/213/213
f 214/214/214 215/215/215 216/216/216
f 217/217/217 218/218/218 219/219/219
f 217/217/217 219/219/219 220/220/220
f 221/221/221 222/222/222 223/223/223
f 221/221/221 223/223/223 224/224/224
f 225/225/225 226/226/226 227/227/227
f 225/225/225 227/227/227 228/228/228
f 229/229/229 230/230/230 231/231/231
f 229/229/229 231/231/231 232/232/232
f 233/233/233 234/234/234 235/235/235
f 233/233/233 235/235/235 236/236/236
f 237/237/237 238/238/238 239/239/239
f 237/237/237 239/239/239 240/240/240
f 241/241/241 242/242/242 243/243/243
f 241/241/241 243/243/243 244/244/244
f 245/245/245 246/246/246 247/247/247
f 245/245/245 247/247/247 248/248/248
f 249/249/249 250/250/250 251/251/251
f 249/249/249 251/251/251 252/252/252
f 253/253/253 254/254/254 255/255/255
f 253/253/253 255/255/255 256/256/256
f 257/257/257 258/258/258 259/259/259
f 257/257/257 259/259/259 260/260/260
f 261/261/261 262/262/262 263/263/263
f 261/261/261 263/263/263 264/264/264
f 265/265/265 266/266/266 267/267/267
f 265/265/265 267/267/267 268/268/268
f 269/269/269 270/270/270 271/271/271
f 269/269/269 271/271/271 272/272/272
f 273/273/273 274/274/274 275/275/275
f 273/273/273 275/275/275 276/276/276
f 277/277/277 278/278/278 279/279/279
f 277/277/277 279/279/279 280/280/280
f 281/281/281 282/282/282 283/283/283
f 281/281/281 283/283/283 284/284/284
f 285/285/285 286/286/286 287/287/287
f 285/285/285 287/287/287 288/288/288
f 289/289/289 290/290/290 291/291/291
f 292/292/292 293/293/293 294/294/294
f 295/295/295 296/296/296 297/297/297
f 298/298/298 299/299/299 300/300/300
f 301/301/301 302/302/302 303/303/303
f 304/304/304 305/305/305 306/306/306
f 307/307/307 308/308/308 309/309/309
f 310/310/310 311/311/311 312/312/312
