# TERRAFRONT procedural asset — generated by Tools/assetgen (deterministic)
# Y-up, +Z forward (muzzle), units = meters, pivot at grip/origin.
# prop_wreck_apc — TERRAFRONT P3
mtllib tf_utility.mtl
o prop_wreck_apc
v -1.2559 0.0977 -2.3000
v -1.3358 1.0945 -2.3000
v 1.2559 1.3023 -2.3000
v 1.3358 0.3055 -2.3000
v -0.9632 0.2014 2.3000
v 1.0304 0.3613 2.3000
v 0.9824 0.9593 2.3000
v -1.0112 0.7995 2.3000
v -1.3358 1.0945 -2.3000
v -1.0112 0.7995 2.3000
v 0.9824 0.9593 2.3000
v 1.2559 1.3023 -2.3000
v -1.2559 0.0977 -2.3000
v 1.3358 0.3055 -2.3000
v 1.0304 0.3613 2.3000
v -0.9632 0.2014 2.3000
v 1.3358 0.3055 -2.3000
v 1.2559 1.3023 -2.3000
v 0.9824 0.9593 2.3000
v 1.0304 0.3613 2.3000
v -1.2559 0.0977 -2.3000
v -0.9632 0.2014 2.3000
v -1.0112 0.7995 2.3000
v -1.3358 1.0945 -2.3000
v -0.8648 0.1414 2.1000
v -0.9288 0.9388 2.1000
v 1.0648 1.0986 2.1000
v 1.1288 0.3012 2.1000
v -0.5618 0.1155 3.3000
v 0.8337 0.2274 3.3000
v 0.8097 0.5264 3.3000
v -0.5858 0.4145 3.3000
v -0.9288 0.9388 2.1000
v -0.5858 0.4145 3.3000
v 0.8097 0.5264 3.3000
v 1.0648 1.0986 2.1000
v -0.8648 0.1414 2.1000
v 1.1288 0.3012 2.1000
v 0.8337 0.2274 3.3000
v -0.5618 0.1155 3.3000
v 1.1288 0.3012 2.1000
v 1.0648 1.0986 2.1000
v 0.8097 0.5264 3.3000
v 0.8337 0.2274 3.3000
v -0.8648 0.1414 2.1000
v -0.5618 0.1155 3.3000
v -0.5858 0.4145 3.3000
v -0.9288 0.9388 2.1000
v -1.2569 0.7925 -1.0535
v -1.3364 1.1845 -1.0535
v -0.1629 1.4224 -1.5597
v -0.0834 1.0304 -1.5597
v 0.3364 1.1155 -0.5465
v 0.2569 1.5075 -0.5465
v -0.9166 1.2696 -0.0403
v -0.8371 0.8776 -0.0403
v -1.3273 1.2374 -1.0074
v -0.9456 1.3148 -0.0863
v 0.2279 1.5526 -0.5926
v -0.1537 1.4753 -1.5137
v -1.2279 0.7474 -1.0074
v -0.0544 0.9852 -1.5137
v 0.3273 1.0626 -0.5926
v -0.8463 0.8247 -0.0863
v -0.0192 1.0434 -1.5331
v -0.0987 1.4354 -1.5331
v 0.2830 1.5128 -0.6121
v 0.3625 1.1208 -0.6121
v -0.9013 0.8646 -0.0669
v -0.9808 1.2566 -0.0669
v -1.3625 1.1792 -0.9879
v -1.2830 0.7872 -0.9879
v -1.3273 1.2374 -1.0074
v -0.1537 1.4753 -1.5137
v -0.1629 1.4224 -1.5597
v -1.3364 1.1845 -1.0535
v 0.2279 1.5526 -0.5926
v -0.9456 1.3148 -0.0863
v -0.9166 1.2696 -0.0403
v 0.2569 1.5075 -0.5465
v -0.0544 0.9852 -1.5137
v -1.2279 0.7474 -1.0074
v -1.2569 0.7925 -1.0535
v -0.0834 1.0304 -1.5597
v -0.8463 0.8247 -0.0863
v 0.3273 1.0626 -0.5926
v 0.3364 1.1155 -0.5465
v -0.8371 0.8776 -0.0403
v -0.0987 1.4354 -1.5331
v 0.2830 1.5128 -0.6121
v 0.2279 1.5526 -0.5926
v -0.1537 1.4753 -1.5137
v 0.3625 1.1208 -0.6121
v -0.0192 1.0434 -1.5331
v -0.0544 0.9852 -1.5137
v 0.3273 1.0626 -0.5926
v -0.9808 1.2566 -0.0669
v -1.3625 1.1792 -0.9879
v -1.3273 1.2374 -1.0074
v -0.9456 1.3148 -0.0863
v -1.2830 0.7872 -0.9879
v -0.9013 0.8646 -0.0669
v -0.8463 0.8247 -0.0863
v -1.2279 0.7474 -1.0074
v -0.0987 1.4354 -1.5331
v -0.1629 1.4224 -1.5597
v -0.0834 1.0304 -1.5597
v -0.0192 1.0434 -1.5331
v 0.3625 1.1208 -0.6121
v 0.3364 1.1155 -0.5465
v 0.2569 1.5075 -0.5465
v 0.2830 1.5128 -0.6121
v -1.2830 0.7872 -0.9879
v -1.2569 0.7925 -1.0535
v -1.3364 1.1845 -1.0535
v -1.3625 1.1792 -0.9879
v -0.9808 1.2566 -0.0669
v -0.9166 1.2696 -0.0403
v -0.8371 0.8776 -0.0403
v -0.9013 0.8646 -0.0669
v 0.2279 1.5526 -0.5926
v 0.2830 1.5128 -0.6121
v 0.2569 1.5075 -0.5465
v -0.9166 1.2696 -0.0403
v -0.9808 1.2566 -0.0669
v -0.9456 1.3148 -0.0863
v 0.3364 1.1155 -0.5465
v 0.3625 1.1208 -0.6121
v 0.3273 1.0626 -0.5926
v -0.8463 0.8247 -0.0863
v -0.9013 0.8646 -0.0669
v -0.8371 0.8776 -0.0403
v -0.1629 1.4224 -1.5597
v -0.0987 1.4354 -1.5331
v -0.1537 1.4753 -1.5137
v -1.3273 1.2374 -1.0074
v -1.3625 1.1792 -0.9879
v -1.3364 1.1845 -1.0535
v -0.0544 0.9852 -1.5137
v -0.0192 1.0434 -1.5331
v -0.0834 1.0304 -1.5597
v -1.2569 0.7925 -1.0535
v -1.2830 0.7872 -0.9879
v -1.2279 0.7474 -1.0074
v 0.9584 0.0683 1.0465
v 0.9584 0.1279 1.0537
v 1.7690 0.1689 0.7134
v 1.7690 0.1093 0.7062
v 2.0416 0.0321 1.3463
v 2.0416 0.0917 1.3535
v 1.2310 0.0507 1.6938
v 1.2310 -0.0089 1.6866
v 0.9623 0.1367 1.0640
v 1.2271 0.0617 1.6858
v 2.0377 0.1027 1.3456
v 1.7729 0.1777 0.7238
v 0.9623 0.0573 1.0544
v 1.7729 0.0983 0.7142
v 2.0377 0.0233 1.3360
v 1.2271 -0.0177 1.6762
v 1.7821 0.1087 0.7115
v 1.7821 0.1683 0.7187
v 2.0469 0.0933 1.3405
v 2.0469 0.0337 1.3333
v 1.2179 -0.0083 1.6813
v 1.2179 0.0513 1.6885
v 0.9531 0.1263 1.0667
v 0.9531 0.0667 1.0595
v 0.9623 0.1367 1.0640
v 1.7729 0.1777 0.7238
v 1.7690 0.1689 0.7134
v 0.9584 0.1279 1.0537
v 2.0377 0.1027 1.3456
v 1.2271 0.0617 1.6858
v 1.2310 0.0507 1.6938
v 2.0416 0.0917 1.3535
v 1.7729 0.0983 0.7142
v 0.9623 0.0573 1.0544
v 0.9584 0.0683 1.0465
v 1.7690 0.1093 0.7062
v 1.2271 -0.0177 1.6762
v 2.0377 0.0233 1.3360
v 2.0416 0.0321 1.3463
v 1.2310 -0.0089 1.6866
v 1.7821 0.1683 0.7187
v 2.0469 0.0933 1.3405
v 2.0377 0.1027 1.3456
v 1.7729 0.1777 0.7238
v 2.0469 0.0337 1.3333
v 1.7821 0.1087 0.7115
v 1.7729 0.0983 0.7142
v 2.0377 0.0233 1.3360
v 1.2179 0.0513 1.6885
v 0.9531 0.1263 1.0667
v 0.9623 0.1367 1.0640
v 1.2271 0.0617 1.6858
v 0.9531 0.0667 1.0595
v 1.2179 -0.0083 1.6813
v 1.2271 -0.0177 1.6762
v 0.9623 0.0573 1.0544
v 1.7821 0.1683 0.7187
v 1.7690 0.1689 0.7134
v 1.7690 0.1093 0.7062
v 1.7821 0.1087 0.7115
v 2.0469 0.0337 1.3333
v 2.0416 0.0321 1.3463
v 2.0416 0.0917 1.3535
v 2.0469 0.0933 1.3405
v 0.9531 0.0667 1.0595
v 0.9584 0.0683 1.0465
v 0.9584 0.1279 1.0537
v 0.9531 0.1263 1.0667
v 1.2179 0.0513 1.6885
v 1.2310 0.0507 1.6938
v 1.2310 -0.0089 1.6866
v 1.2179 -0.0083 1.6813
v 2.0377 0.1027 1.3456
v 2.0469 0.0933 1.3405
v 2.0416 0.0917 1.3535
v 1.2310 0.0507 1.6938
v 1.2179 0.0513 1.6885
v 1.2271 0.0617 1.6858
v 2.0416 0.0321 1.3463
v 2.0469 0.0337 1.3333
v 2.0377 0.0233 1.3360
v 1.2271 -0.0177 1.6762
v 1.2179 -0.0083 1.6813
v 1.2310 -0.0089 1.6866
v 1.7690 0.1689 0.7134
v 1.7821 0.1683 0.7187
v 1.7729 0.1777 0.7238
v 0.9623 0.1367 1.0640
v 0.9531 0.1263 1.0667
v 0.9584 0.1279 1.0537
v 1.7729 0.0983 0.7142
v 1.7821 0.1087 0.7115
v 1.7690 0.1093 0.7062
v 0.9584 0.0683 1.0465
v 0.9531 0.0667 1.0595
v 0.9623 0.0573 1.0544
v -1.9169 0.1058 -0.8646
v -1.9169 0.1654 -0.8575
v -1.0762 0.1342 -0.5993
v -1.0762 0.0747 -0.6065
v -1.2831 -0.0054 0.0575
v -1.2831 0.0542 0.0646
v -2.1238 0.0853 -0.1935
v -2.1238 0.0258 -0.2007
v -1.9199 0.1742 -0.8468
v -2.1208 0.0964 -0.2018
v -1.2801 0.0653 0.0564
v -1.0792 0.1430 -0.5886
v -1.9199 0.0947 -0.8564
v -1.0792 0.0636 -0.5982
v -1.2801 -0.0142 0.0468
v -2.1208 0.0170 -0.2114
v -1.0696 0.0732 -0.5940
v -1.0696 0.1327 -0.5869
v -1.2706 0.0550 0.0581
v -1.2706 -0.0046 0.0509
v -2.1304 0.0273 -0.2131
v -2.1304 0.0868 -0.2060
v -1.9294 0.1646 -0.8509
v -1.9294 0.1050 -0.8581
v -1.9199 0.1742 -0.8468
v -1.0792 0.1430 -0.5886
v -1.0762 0.1342 -0.5993
v -1.9169 0.1654 -0.8575
v -1.2801 0.0653 0.0564
v -2.1208 0.0964 -0.2018
v -2.1238 0.0853 -0.1935
v -1.2831 0.0542 0.0646
v -1.0792 0.0636 -0.5982
v -1.9199 0.0947 -0.8564
v -1.9169 0.1058 -0.8646
v -1.0762 0.0747 -0.6065
v -2.1208 0.0170 -0.2114
v -1.2801 -0.0142 0.0468
v -1.2831 -0.0054 0.0575
v -2.1238 0.0258 -0.2007
v -1.0696 0.1327 -0.5869
v -1.2706 0.0550 0.0581
v -1.2801 0.0653 0.0564
v -1.0792 0.1430 -0.5886
v -1.2706 -0.0046 0.0509
v -1.0696 0.0732 -0.5940
v -1.0792 0.0636 -0.5982
v -1.2801 -0.0142 0.0468
v -2.1304 0.0868 -0.2060
v -1.9294 0.1646 -0.8509
v -1.9199 0.1742 -0.8468
v -2.1208 0.0964 -0.2018
v -1.9294 0.1050 -0.8581
v -2.1304 0.0273 -0.2131
v -2.1208 0.0170 -0.2114
v -1.9199 0.0947 -0.8564
v -1.0696 0.1327 -0.5869
v -1.0762 0.1342 -0.5993
v -1.0762 0.0747 -0.6065
v -1.0696 0.0732 -0.5940
v -1.2706 -0.0046 0.0509
v -1.2831 -0.0054 0.0575
v -1.2831 0.0542 0.0646
v -1.2706 0.0550 0.0581
v -1.9294 0.1050 -0.8581
v -1.9169 0.1058 -0.8646
v -1.9169 0.1654 -0.8575
v -1.9294 0.1646 -0.8509
v -2.1304 0.0868 -0.2060
v -2.1238 0.0853 -0.1935
v -2.1238 0.0258 -0.2007
v -2.1304 0.0273 -0.2131
v -1.2801 0.0653 0.0564
v -1.2706 0.0550 0.0581
v -1.2831 0.0542 0.0646
v -2.1238 0.0853 -0.1935
v -2.1304 0.0868 -0.2060
v -2.1208 0.0964 -0.2018
v -1.2831 -0.0054 0.0575
v -1.2706 -0.0046 0.0509
v -1.2801 -0.0142 0.0468
v -2.1208 0.0170 -0.2114
v -2.1304 0.0273 -0.2131
v -2.1238 0.0258 -0.2007
v -1.0762 0.1342 -0.5993
v -1.0696 0.1327 -0.5869
v -1.0792 0.1430 -0.5886
v -1.9199 0.1742 -0.8468
v -1.9294 0.1646 -0.8509
v -1.9169 0.1654 -0.8575
v -1.0792 0.0636 -0.5982
v -1.0696 0.0732 -0.5940
v -1.0762 0.0747 -0.6065
v -1.9169 0.1058 -0.8646
v -1.9294 0.1050 -0.8581
v -1.9199 0.0947 -0.8564
v 0.6523 0.0350 -1.6774
v 0.6523 0.0946 -1.6702
v 1.1993 0.1771 -2.3546
v 1.1993 0.1175 -2.3618
v 1.7477 0.0654 -1.9298
v 1.7477 0.1250 -1.9226
v 1.2007 0.0425 -1.2382
v 1.2007 -0.0171 -1.2454
v 0.6602 0.1038 -1.6629
v 1.1928 0.0532 -1.2432
v 1.7398 0.1357 -1.9276
v 1.2072 0.1863 -2.3472
v 0.6602 0.0243 -1.6724
v 1.2072 0.1068 -2.3568
v 1.7398 0.0562 -1.9371
v 1.1928 -0.0263 -1.2528
v 1.2134 0.1177 -2.3634
v 1.2134 0.1773 -2.3562
v 1.7461 0.1267 -1.9365
v 1.7461 0.0671 -1.9437
v 1.1866 -0.0173 -1.2438
v 1.1866 0.0423 -1.2366
v 0.6539 0.0929 -1.6563
v 0.6539 0.0333 -1.6635
v 0.6602 0.1038 -1.6629
v 1.2072 0.1863 -2.3472
v 1.1993 0.1771 -2.3546
v 0.6523 0.0946 -1.6702
v 1.7398 0.1357 -1.9276
v 1.1928 0.0532 -1.2432
v 1.2007 0.0425 -1.2382
v 1.7477 0.1250 -1.9226
v 1.2072 0.1068 -2.3568
v 0.6602 0.0243 -1.6724
v 0.6523 0.0350 -1.6774
v 1.1993 0.1175 -2.3618
v 1.1928 -0.0263 -1.2528
v 1.7398 0.0562 -1.9371
v 1.7477 0.0654 -1.9298
v 1.2007 -0.0171 -1.2454
v 1.2134 0.1773 -2.3562
v 1.7461 0.1267 -1.9365
v 1.7398 0.1357 -1.9276
v 1.2072 0.1863 -2.3472
v 1.7461 0.0671 -1.9437
v 1.2134 0.1177 -2.3634
v 1.2072 0.1068 -2.3568
v 1.7398 0.0562 -1.9371
v 1.1866 0.0423 -1.2366
v 0.6539 0.0929 -1.6563
v 0.6602 0.1038 -1.6629
v 1.1928 0.0532 -1.2432
v 0.6539 0.0333 -1.6635
v 1.1866 -0.0173 -1.2438
v 1.1928 -0.0263 -1.2528
v 0.6602 0.0243 -1.6724
v 1.2134 0.1773 -2.3562
v 1.1993 0.1771 -2.3546
v 1.1993 0.1175 -2.3618
v 1.2134 0.1177 -2.3634
v 1.7461 0.0671 -1.9437
v 1.7477 0.0654 -1.9298
v 1.7477 0.1250 -1.9226
v 1.7461 0.1267 -1.9365
v 0.6539 0.0333 -1.6635
v 0.6523 0.0350 -1.6774
v 0.6523 0.0946 -1.6702
v 0.6539 0.0929 -1.6563
v 1.1866 0.0423 -1.2366
v 1.2007 0.0425 -1.2382
v 1.2007 -0.0171 -1.2454
v 1.1866 -0.0173 -1.2438
v 1.7398 0.1357 -1.9276
v 1.7461 0.1267 -1.9365
v 1.7477 0.1250 -1.9226
v 1.2007 0.0425 -1.2382
v 1.1866 0.0423 -1.2366
v 1.1928 0.0532 -1.2432
v 1.7477 0.0654 -1.9298
v 1.7461 0.0671 -1.9437
v 1.7398 0.0562 -1.9371
v 1.1928 -0.0263 -1.2528
v 1.1866 -0.0173 -1.2438
v 1.2007 -0.0171 -1.2454
v 1.1993 0.1771 -2.3546
v 1.2134 0.1773 -2.3562
v 1.2072 0.1863 -2.3472
v 0.6602 0.1038 -1.6629
v 0.6539 0.0929 -1.6563
v 0.6523 0.0946 -1.6702
v 1.2072 0.1068 -2.3568
v 1.2134 0.1177 -2.3634
v 1.1993 0.1175 -2.3618
v 0.6523 0.0350 -1.6774
v 0.6539 0.0333 -1.6635
v 0.6602 0.0243 -1.6724
v -0.7769 0.9912 1.1400
v -1.0933 1.5704 1.1400
v -1.0231 1.6088 1.1400
v -0.7067 1.0296 1.1400
v -0.7067 1.0296 1.2600
v -1.0231 1.6088 1.2600
v -1.0933 1.5704 1.2600
v -0.7769 0.9912 1.2600
v -1.1029 1.5880 1.1600
v -1.1029 1.5880 1.2400
v -1.0327 1.6263 1.2400
v -1.0327 1.6263 1.1600
v -0.7673 0.9737 1.1600
v -0.6971 1.0120 1.1600
v -0.6971 1.0120 1.2400
v -0.7673 0.9737 1.2400
v -0.6891 1.0392 1.1600
v -1.0056 1.6184 1.1600
v -1.0056 1.6184 1.2400
v -0.6891 1.0392 1.2400
v -0.7944 0.9816 1.2400
v -1.1109 1.5608 1.2400
v -1.1109 1.5608 1.1600
v -0.7944 0.9816 1.1600
v -1.1029 1.5880 1.1600
v -1.0327 1.6263 1.1600
v -1.0231 1.6088 1.1400
v -1.0933 1.5704 1.1400
v -1.0327 1.6263 1.2400
v -1.1029 1.5880 1.2400
v -1.0933 1.5704 1.2600
v -1.0231 1.6088 1.2600
v -0.6971 1.0120 1.1600
v -0.7673 0.9737 1.1600
v -0.7769 0.9912 1.1400
v -0.7067 1.0296 1.1400
v -0.7673 0.9737 1.2400
v -0.6971 1.0120 1.2400
v -0.7067 1.0296 1.2600
v -0.7769 0.9912 1.2600
v -1.0056 1.6184 1.1600
v -1.0056 1.6184 1.2400
v -1.0327 1.6263 1.2400
v -1.0327 1.6263 1.1600
v -0.6891 1.0392 1.2400
v -0.6891 1.0392 1.1600
v -0.6971 1.0120 1.1600
v -0.6971 1.0120 1.2400
v -1.1109 1.5608 1.2400
v -1.1109 1.5608 1.1600
v -1.1029 1.5880 1.1600
v -1.1029 1.5880 1.2400
v -0.7944 0.9816 1.1600
v -0.7944 0.9816 1.2400
v -0.7673 0.9737 1.2400
v -0.7673 0.9737 1.1600
v -1.0056 1.6184 1.1600
v -1.0231 1.6088 1.1400
v -0.7067 1.0296 1.1400
v -0.6891 1.0392 1.1600
v -0.6891 1.0392 1.2400
v -0.7067 1.0296 1.2600
v -1.0231 1.6088 1.2600
v -1.0056 1.6184 1.2400
v -0.7944 0.9816 1.1600
v -0.7769 0.9912 1.1400
v -1.0933 1.5704 1.1400
v -1.1109 1.5608 1.1600
v -1.1109 1.5608 1.2400
v -1.0933 1.5704 1.2600
v -0.7769 0.9912 1.2600
v -0.7944 0.9816 1.2400
v -1.0327 1.6263 1.2400
v -1.0056 1.6184 1.2400
v -1.0231 1.6088 1.2600
v -1.0933 1.5704 1.2600
v -1.1109 1.5608 1.2400
v -1.1029 1.5880 1.2400
v -0.7067 1.0296 1.2600
v -0.6891 1.0392 1.2400
v -0.6971 1.0120 1.2400
v -0.7673 0.9737 1.2400
v -0.7944 0.9816 1.2400
v -0.7769 0.9912 1.2600
v -1.0231 1.6088 1.1400
v -1.0056 1.6184 1.1600
v -1.0327 1.6263 1.1600
v -1.1029 1.5880 1.1600
v -1.1109 1.5608 1.1600
v -1.0933 1.5704 1.1400
v -0.6971 1.0120 1.1600
v -0.6891 1.0392 1.1600
v -0.7067 1.0296 1.1400
v -0.7769 0.9912 1.1400
v -0.7944 0.9816 1.1600
v -0.7673 0.9737 1.1600
vt 0.7612 0.2540
vt 0.7540 0.4543
vt 0.9888 0.4960
vt 0.9960 0.2957
vt 0.7877 0.2748
vt 0.9683 0.3069
vt 0.9640 0.4271
vt 0.7834 0.3950
vt 0.7540 0.2540
vt 0.7834 0.4960
vt 0.9640 0.4960
vt 0.9888 0.2540
vt 0.7612 0.2540
vt 0.9960 0.2540
vt 0.9683 0.4960
vt 0.7877 0.4960
vt 0.7540 0.2957
vt 0.7540 0.4960
vt 0.9960 0.4271
vt 0.9960 0.3069
vt 0.7540 0.2540
vt 0.9960 0.2748
vt 0.9960 0.3950
vt 0.7540 0.4543
vt 0.7615 0.2604
vt 0.7540 0.4567
vt 0.9885 0.4960
vt 0.9960 0.2997
vt 0.7972 0.2540
vt 0.9613 0.2815
vt 0.9585 0.3551
vt 0.7943 0.3276
vt 0.7540 0.2540
vt 0.7943 0.4960
vt 0.9585 0.4960
vt 0.9885 0.2540
vt 0.7615 0.2540
vt 0.9960 0.2540
vt 0.9613 0.4960
vt 0.7972 0.4960
vt 0.7540 0.2997
vt 0.7540 0.4960
vt 0.9960 0.3551
vt 0.9960 0.2815
vt 0.7540 0.2604
vt 0.9960 0.2540
vt 0.9960 0.3276
vt 0.7540 0.4567
vt 0.0341 0.2676
vt 0.0114 0.3854
vt 0.3462 0.4569
vt 0.3688 0.3391
vt 0.4886 0.3646
vt 0.4659 0.4824
vt 0.1312 0.4109
vt 0.1538 0.2931
vt 0.0140 0.3420
vt 0.1229 0.4887
vt 0.4576 0.4080
vt 0.3488 0.2613
vt 0.0424 0.3420
vt 0.3771 0.2613
vt 0.4860 0.4080
vt 0.1512 0.4887
vt 0.0126 0.3430
vt 0.0126 0.4608
vt 0.3109 0.4840
vt 0.3109 0.3662
vt 0.4874 0.2892
vt 0.4874 0.4070
vt 0.1891 0.3838
vt 0.1891 0.2660
vt 0.0140 0.4013
vt 0.3488 0.4728
vt 0.3462 0.4569
vt 0.0114 0.3854
vt 0.4576 0.4080
vt 0.1229 0.4887
vt 0.1312 0.4960
vt 0.4659 0.4154
vt 0.3771 0.2613
vt 0.0424 0.3420
vt 0.0341 0.3346
vt 0.3688 0.2540
vt 0.1512 0.2772
vt 0.4860 0.3487
vt 0.4886 0.3646
vt 0.1538 0.2931
vt 0.3645 0.2582
vt 0.4733 0.4049
vt 0.4576 0.4080
vt 0.3488 0.2613
vt 0.3109 0.3662
vt 0.0126 0.3430
vt 0.0189 0.3255
vt 0.3172 0.3487
vt 0.4874 0.4070
vt 0.1891 0.3838
vt 0.1828 0.4013
vt 0.4811 0.4245
vt 0.0267 0.3451
vt 0.1355 0.4918
vt 0.1512 0.4887
vt 0.0424 0.3420
vt 0.3645 0.4608
vt 0.3462 0.4569
vt 0.3688 0.3391
vt 0.3871 0.3430
vt 0.3109 0.3662
vt 0.3321 0.3646
vt 0.3321 0.4824
vt 0.3109 0.4840
vt 0.1891 0.2660
vt 0.1679 0.2676
vt 0.1679 0.3854
vt 0.1891 0.3838
vt 0.1129 0.4070
vt 0.1312 0.4109
vt 0.1538 0.2931
vt 0.1355 0.2892
vt 0.4576 0.4080
vt 0.4733 0.4049
vt 0.4659 0.4154
vt 0.1312 0.4109
vt 0.1129 0.4070
vt 0.1229 0.4245
vt 0.3321 0.3646
vt 0.3109 0.3662
vt 0.3172 0.3487
vt 0.1512 0.2772
vt 0.1355 0.2892
vt 0.1538 0.2931
vt 0.3462 0.4569
vt 0.3645 0.4608
vt 0.3488 0.4728
vt 0.1828 0.4013
vt 0.1891 0.3838
vt 0.1679 0.3854
vt 0.3771 0.3255
vt 0.3871 0.3430
vt 0.3688 0.3391
vt 0.0341 0.3346
vt 0.0267 0.3451
vt 0.0424 0.3420
vt 0.5052 0.3605
vt 0.5052 0.4343
vt 0.6845 0.4851
vt 0.6845 0.4113
vt 0.7448 0.3157
vt 0.7448 0.3895
vt 0.5655 0.3387
vt 0.5655 0.2649
vt 0.5060 0.3417
vt 0.5646 0.4941
vt 0.7440 0.4107
vt 0.6854 0.2583
vt 0.5060 0.3393
vt 0.6854 0.2559
vt 0.7440 0.4083
vt 0.5646 0.4917
vt 0.5053 0.4105
vt 0.5071 0.4843
vt 0.6594 0.3914
vt 0.6577 0.3177
vt 0.7429 0.2657
vt 0.7447 0.3395
vt 0.5923 0.4323
vt 0.5906 0.3586
vt 0.5060 0.3417
vt 0.6854 0.2583
vt 0.6845 0.2558
vt 0.5052 0.3391
vt 0.7440 0.4032
vt 0.5646 0.3524
vt 0.5655 0.3387
vt 0.7448 0.3895
vt 0.6854 0.3976
vt 0.5060 0.3468
vt 0.5052 0.3605
vt 0.6845 0.4113
vt 0.5646 0.4917
vt 0.7440 0.4083
vt 0.7448 0.4109
vt 0.5655 0.4942
vt 0.6874 0.2571
vt 0.7460 0.4094
vt 0.7440 0.4107
vt 0.6854 0.2583
vt 0.7460 0.4077
vt 0.6874 0.2553
vt 0.6854 0.2559
vt 0.7440 0.4083
vt 0.5626 0.4947
vt 0.5040 0.3423
vt 0.5060 0.3417
vt 0.5646 0.4941
vt 0.5040 0.3406
vt 0.5626 0.4929
vt 0.5646 0.4917
vt 0.5060 0.3393
vt 0.6874 0.4843
vt 0.6845 0.4851
vt 0.6845 0.4113
vt 0.6874 0.4105
vt 0.6577 0.3177
vt 0.6609 0.3157
vt 0.6626 0.3895
vt 0.6594 0.3914
vt 0.5906 0.3586
vt 0.5874 0.3605
vt 0.5891 0.4343
vt 0.5923 0.4323
vt 0.5626 0.3395
vt 0.5655 0.3387
vt 0.5655 0.2649
vt 0.5626 0.2657
vt 0.6607 0.4032
vt 0.6594 0.3914
vt 0.6626 0.3895
vt 0.5655 0.3387
vt 0.5626 0.3395
vt 0.5646 0.3524
vt 0.6609 0.3157
vt 0.6577 0.3177
vt 0.6583 0.3048
vt 0.5646 0.2540
vt 0.5626 0.2657
vt 0.5655 0.2649
vt 0.6845 0.4851
vt 0.6874 0.4843
vt 0.6854 0.4960
vt 0.5917 0.4452
vt 0.5923 0.4323
vt 0.5891 0.4343
vt 0.6854 0.3976
vt 0.6874 0.4105
vt 0.6845 0.4113
vt 0.5874 0.3605
vt 0.5906 0.3586
vt 0.5893 0.3468
vt 0.5527 0.4082
vt 0.5527 0.4847
vt 0.7445 0.4447
vt 0.7445 0.3682
vt 0.6973 0.2653
vt 0.6973 0.3418
vt 0.5055 0.3818
vt 0.5055 0.3053
vt 0.5520 0.2587
vt 0.5062 0.4266
vt 0.6980 0.4938
vt 0.7438 0.3259
vt 0.5520 0.2562
vt 0.7438 0.3234
vt 0.6980 0.4913
vt 0.5062 0.4241
vt 0.5745 0.3662
vt 0.5763 0.4428
vt 0.7443 0.3428
vt 0.7424 0.2663
vt 0.6737 0.3072
vt 0.6755 0.3838
vt 0.5076 0.4837
vt 0.5057 0.4072
vt 0.5520 0.2587
vt 0.7438 0.3259
vt 0.7445 0.3231
vt 0.5527 0.2559
vt 0.6980 0.3561
vt 0.5062 0.3961
vt 0.5055 0.3818
vt 0.6973 0.3418
vt 0.7438 0.3539
vt 0.5520 0.3939
vt 0.5527 0.4082
vt 0.7445 0.3682
vt 0.5062 0.4241
vt 0.6980 0.4913
vt 0.6973 0.4941
vt 0.5055 0.4269
vt 0.7460 0.3263
vt 0.7002 0.4943
vt 0.6980 0.4938
vt 0.7438 0.3259
vt 0.7002 0.4924
vt 0.7460 0.3245
vt 0.7438 0.3234
vt 0.6980 0.4913
vt 0.5040 0.4255
vt 0.5498 0.2576
vt 0.5520 0.2587
vt 0.5062 0.4266
vt 0.5498 0.2557
vt 0.5040 0.4237
vt 0.5062 0.4241
vt 0.5520 0.2562
vt 0.5763 0.4428
vt 0.5731 0.4447
vt 0.5712 0.3682
vt 0.5745 0.3662
vt 0.7002 0.2663
vt 0.6973 0.2653
vt 0.6973 0.3418
vt 0.7002 0.3428
vt 0.5498 0.4072
vt 0.5527 0.4082
vt 0.5527 0.4847
vt 0.5498 0.4837
vt 0.6755 0.3838
vt 0.6788 0.3818
vt 0.6769 0.3053
vt 0.6737 0.3072
vt 0.6980 0.3561
vt 0.7002 0.3428
vt 0.6973 0.3418
vt 0.6788 0.3818
vt 0.6755 0.3838
vt 0.6766 0.3961
vt 0.6973 0.4941
vt 0.7002 0.4924
vt 0.6980 0.4913
vt 0.6741 0.2940
vt 0.6737 0.3072
vt 0.6769 0.3053
vt 0.5731 0.4447
vt 0.5763 0.4428
vt 0.5759 0.4560
vt 0.5520 0.2587
vt 0.5498 0.2576
vt 0.5527 0.2559
vt 0.5734 0.3539
vt 0.5745 0.3662
vt 0.5712 0.3682
vt 0.5527 0.4082
vt 0.5498 0.4072
vt 0.5520 0.3939
vt 0.6513 0.3238
vt 0.6529 0.3916
vt 0.5059 0.4855
vt 0.5043 0.4177
vt 0.5971 0.3584
vt 0.5987 0.4262
vt 0.7457 0.3323
vt 0.7441 0.2645
vt 0.5057 0.4045
vt 0.6234 0.4946
vt 0.7443 0.3476
vt 0.6266 0.2575
vt 0.5057 0.4024
vt 0.6266 0.2554
vt 0.7443 0.3455
vt 0.6234 0.4925
vt 0.6280 0.4179
vt 0.6280 0.4858
vt 0.7456 0.4282
vt 0.7456 0.3603
vt 0.6220 0.2642
vt 0.6220 0.3321
vt 0.5044 0.3897
vt 0.5044 0.3218
vt 0.5057 0.4045
vt 0.6266 0.2575
vt 0.6249 0.2559
vt 0.5040 0.4029
vt 0.7443 0.3476
vt 0.6234 0.4946
vt 0.6251 0.4957
vt 0.7460 0.3487
vt 0.6266 0.2554
vt 0.5057 0.4024
vt 0.5040 0.4013
vt 0.6249 0.2543
vt 0.6234 0.4925
vt 0.7443 0.3455
vt 0.7460 0.3471
vt 0.6251 0.4941
vt 0.6280 0.2555
vt 0.7456 0.3457
vt 0.7443 0.3476
vt 0.6266 0.2575
vt 0.7456 0.3441
vt 0.6280 0.2540
vt 0.6266 0.2554
vt 0.7443 0.3455
vt 0.6220 0.4960
vt 0.5044 0.4059
vt 0.5057 0.4045
vt 0.6234 0.4946
vt 0.5044 0.4043
vt 0.6220 0.4945
vt 0.6234 0.4925
vt 0.5057 0.4024
vt 0.6280 0.4858
vt 0.6249 0.4855
vt 0.6249 0.4177
vt 0.6280 0.4179
vt 0.5941 0.3603
vt 0.5971 0.3584
vt 0.5987 0.4262
vt 0.5957 0.4282
vt 0.6543 0.3218
vt 0.6513 0.3238
vt 0.6529 0.3916
vt 0.6559 0.3897
vt 0.6220 0.3321
vt 0.6251 0.3323
vt 0.6251 0.2645
vt 0.6220 0.2642
vt 0.5976 0.4384
vt 0.5957 0.4282
vt 0.5987 0.4262
vt 0.6251 0.3323
vt 0.6220 0.3321
vt 0.6234 0.3444
vt 0.5971 0.3584
vt 0.5941 0.3603
vt 0.5955 0.3480
vt 0.6234 0.2540
vt 0.6220 0.2642
vt 0.6251 0.2645
vt 0.6249 0.4855
vt 0.6280 0.4858
vt 0.6266 0.4960
vt 0.6545 0.4020
vt 0.6559 0.3897
vt 0.6529 0.3916
vt 0.6266 0.4056
vt 0.6280 0.4179
vt 0.6249 0.4177
vt 0.6513 0.3238
vt 0.6543 0.3218
vt 0.6524 0.3116
vt 0.9456 0.2605
vt 0.7641 0.4753
vt 0.8044 0.4895
vt 0.9859 0.2747
vt 0.9859 0.2747
vt 0.8044 0.4895
vt 0.7641 0.4753
vt 0.9456 0.2605
vt 0.7586 0.2943
vt 0.7586 0.4557
vt 0.7989 0.4557
vt 0.7989 0.2943
vt 0.9511 0.2943
vt 0.9914 0.2943
vt 0.9914 0.4557
vt 0.9511 0.4557
vt 0.7943 0.2783
vt 0.7943 0.4930
vt 0.9557 0.4930
vt 0.9557 0.2783
vt 0.9557 0.2570
vt 0.9557 0.4717
vt 0.7943 0.4717
vt 0.7943 0.2570
vt 0.7586 0.4818
vt 0.7989 0.4960
vt 0.8044 0.4895
vt 0.7641 0.4753
vt 0.7989 0.4960
vt 0.7586 0.4818
vt 0.7641 0.4753
vt 0.8044 0.4895
vt 0.9914 0.2682
vt 0.9511 0.2540
vt 0.9456 0.2605
vt 0.9859 0.2747
vt 0.9511 0.2540
vt 0.9914 0.2682
vt 0.9859 0.2747
vt 0.9456 0.2605
vt 0.8144 0.2943
vt 0.8144 0.4557
vt 0.7989 0.4557
vt 0.7989 0.2943
vt 0.9557 0.2783
vt 0.7943 0.2783
vt 0.7943 0.2682
vt 0.9557 0.2682
vt 0.9557 0.4717
vt 0.7943 0.4717
vt 0.7943 0.4818
vt 0.9557 0.4818
vt 0.9356 0.2943
vt 0.9356 0.4557
vt 0.9511 0.4557
vt 0.9511 0.2943
vt 0.8144 0.4930
vt 0.8044 0.4895
vt 0.9859 0.2747
vt 0.9960 0.2783
vt 0.9960 0.2783
vt 0.9859 0.2747
vt 0.8044 0.4895
vt 0.8144 0.4930
vt 0.9356 0.2570
vt 0.9456 0.2605
vt 0.7641 0.4753
vt 0.7540 0.4717
vt 0.7540 0.4717
vt 0.7641 0.4753
vt 0.9456 0.2605
vt 0.9356 0.2570
vt 0.7989 0.4557
vt 0.8144 0.4557
vt 0.8044 0.4960
vt 0.9960 0.4753
vt 0.9557 0.4717
vt 0.9557 0.4818
vt 0.9960 0.2747
vt 0.9557 0.2783
vt 0.9557 0.2682
vt 0.9511 0.4557
vt 0.9356 0.4557
vt 0.9456 0.4960
vt 0.8044 0.2540
vt 0.8144 0.2943
vt 0.7989 0.2943
vt 0.7943 0.4818
vt 0.7943 0.4717
vt 0.7540 0.4753
vt 0.7943 0.2682
vt 0.7943 0.2783
vt 0.7540 0.2747
vt 0.9456 0.2540
vt 0.9356 0.2943
vt 0.9511 0.2943
vn -0.0000 0.0000 -1.0000
vn -0.0000 0.0000 -1.0000
vn -0.0000 0.0000 -1.0000
vn -0.0000 0.0000 -1.0000
vn 0.0000 0.0000 1.0000
vn 0.0000 0.0000 1.0000
vn 0.0000 0.0000 1.0000
vn 0.0000 0.0000 1.0000
vn -0.0797 0.9944 0.0694
vn -0.0797 0.9944 0.0694
vn -0.0797 0.9944 0.0694
vn -0.0797 0.9944 0.0694
vn 0.0799 -0.9967 0.0174
vn 0.0799 -0.9967 0.0174
vn 0.0799 -0.9967 0.0174
vn 0.0799 -0.9967 0.0174
vn 0.9947 0.0797 0.0651
vn 0.9947 0.0797 0.0651
vn 0.9947 0.0797 0.0651
vn 0.9947 0.0797 0.0651
vn -0.9947 -0.0797 0.0651
vn -0.9947 -0.0797 0.0651
vn -0.9947 -0.0797 0.0651
vn -0.9947 -0.0797 0.0651
vn 0.0000 0.0000 -1.0000
vn 0.0000 0.0000 -1.0000
vn 0.0000 0.0000 -1.0000
vn 0.0000 0.0000 -1.0000
vn 0.0000 0.0000 1.0000
vn 0.0000 0.0000 1.0000
vn 0.0000 0.0000 1.0000
vn 0.0000 0.0000 1.0000
vn -0.0726 0.9062 0.4167
vn -0.0726 0.9062 0.4167
vn -0.0726 0.9062 0.4167
vn -0.0726 0.9062 0.4167
vn 0.0798 -0.9959 -0.0416
vn 0.0798 -0.9959 -0.0416
vn 0.0798 -0.9959 -0.0416
vn 0.0798 -0.9959 -0.0416
vn 0.9670 0.0775 0.2425
vn 0.9670 0.0775 0.2425
vn 0.9670 0.0775 0.2425
vn 0.9670 0.0775 0.2425
vn -0.9670 -0.0775 0.2425
vn -0.9670 -0.0775 0.2425
vn -0.9670 -0.0775 0.2425
vn -0.9670 -0.0775 0.2425
vn -0.3817 -0.0774 -0.9211
vn -0.3817 -0.0774 -0.9211
vn -0.3817 -0.0774 -0.9211
vn -0.3817 -0.0774 -0.9211
vn 0.3817 0.0774 0.9211
vn 0.3817 0.0774 0.9211
vn 0.3817 0.0774 0.9211
vn 0.3817 0.0774 0.9211
vn -0.1987 0.9801 0.0000
vn -0.1987 0.9801 0.0000
vn -0.1987 0.9801 0.0000
vn -0.1987 0.9801 0.0000
vn 0.1987 -0.9801 -0.0000
vn 0.1987 -0.9801 -0.0000
vn 0.1987 -0.9801 -0.0000
vn 0.1987 -0.9801 -0.0000
vn 0.9027 0.1830 -0.3894
vn 0.9027 0.1830 -0.3894
vn 0.9027 0.1830 -0.3894
vn 0.9027 0.1830 -0.3894
vn -0.9027 -0.1830 0.3894
vn -0.9027 -0.1830 0.3894
vn -0.9027 -0.1830 0.3894
vn -0.9027 -0.1830 0.3894
vn -0.4104 0.6383 -0.6513
vn -0.4104 0.6383 -0.6513
vn -0.4104 0.6383 -0.6513
vn -0.4104 0.6383 -0.6513
vn 0.1294 0.7477 0.6513
vn 0.1294 0.7477 0.6513
vn 0.1294 0.7477 0.6513
vn 0.1294 0.7477 0.6513
vn -0.1294 -0.7477 -0.6513
vn -0.1294 -0.7477 -0.6513
vn -0.1294 -0.7477 -0.6513
vn -0.1294 -0.7477 -0.6513
vn 0.4104 -0.6383 0.6513
vn 0.4104 -0.6383 0.6513
vn 0.4104 -0.6383 0.6513
vn 0.4104 -0.6383 0.6513
vn -0.4978 -0.8224 0.2754
vn -0.4978 -0.8224 0.2754
vn -0.4978 -0.8224 0.2754
vn -0.4978 -0.8224 0.2754
vn -0.7788 0.5636 0.2754
vn -0.7788 0.5636 0.2754
vn -0.7788 0.5636 0.2754
vn -0.7788 0.5636 0.2754
vn 0.7788 -0.5636 -0.2754
vn 0.7788 -0.5636 -0.2754
vn 0.7788 -0.5636 -0.2754
vn 0.7788 -0.5636 -0.2754
vn 0.4978 0.8224 -0.2754
vn 0.4978 0.8224 -0.2754
vn 0.4978 0.8224 -0.2754
vn 0.4978 0.8224 -0.2754
vn -0.3684 -0.0747 0.9266
vn -0.3684 -0.0747 0.9266
vn -0.3684 -0.0747 0.9266
vn -0.3684 -0.0747 0.9266
vn -0.9082 -0.1841 -0.3759
vn -0.9082 -0.1841 -0.3759
vn -0.9082 -0.1841 -0.3759
vn -0.9082 -0.1841 -0.3759
vn 0.9082 0.1841 0.3759
vn 0.9082 0.1841 0.3759
vn 0.9082 0.1841 0.3759
vn 0.9082 0.1841 0.3759
vn 0.3684 0.0747 -0.9266
vn 0.3684 0.0747 -0.9266
vn 0.3684 0.0747 -0.9266
vn 0.3684 0.0747 -0.9266
vn -0.6268 -0.7162 -0.3069
vn -0.6268 -0.7162 -0.3069
vn -0.6268 -0.7162 -0.3069
vn 0.4155 -0.5049 -0.7566
vn 0.4155 -0.5049 -0.7566
vn 0.4155 -0.5049 -0.7566
vn -0.8562 0.4155 -0.3069
vn -0.8562 0.4155 -0.3069
vn -0.8562 0.4155 -0.3069
vn 0.1861 0.6268 -0.7566
vn 0.1861 0.6268 -0.7566
vn 0.1861 0.6268 -0.7566
vn -0.1861 -0.6268 0.7566
vn -0.1861 -0.6268 0.7566
vn -0.1861 -0.6268 0.7566
vn 0.8562 -0.4155 0.3069
vn 0.8562 -0.4155 0.3069
vn 0.8562 -0.4155 0.3069
vn -0.4155 0.5049 0.7566
vn -0.4155 0.5049 0.7566
vn -0.4155 0.5049 0.7566
vn 0.6268 0.7162 0.3069
vn 0.6268 0.7162 0.3069
vn 0.6268 0.7162 0.3069
vn -0.3894 0.1103 -0.9144
vn -0.3894 0.1103 -0.9144
vn -0.3894 0.1103 -0.9144
vn -0.3894 0.1103 -0.9144
vn 0.3894 -0.1103 0.9144
vn 0.3894 -0.1103 0.9144
vn 0.3894 -0.1103 0.9144
vn 0.3894 -0.1103 0.9144
vn -0.0000 0.9928 0.1197
vn -0.0000 0.9928 0.1197
vn -0.0000 0.9928 0.1197
vn -0.0000 0.9928 0.1197
vn 0.0000 -0.9928 -0.1197
vn 0.0000 -0.9928 -0.1197
vn 0.0000 -0.9928 -0.1197
vn 0.0000 -0.9928 -0.1197
vn 0.9211 0.0466 -0.3866
vn 0.9211 0.0466 -0.3866
vn 0.9211 0.0466 -0.3866
vn 0.9211 0.0466 -0.3866
vn -0.9211 -0.0466 0.3866
vn -0.9211 -0.0466 0.3866
vn -0.9211 -0.0466 0.3866
vn -0.9211 -0.0466 0.3866
vn -0.2754 0.7800 -0.5620
vn -0.2754 0.7800 -0.5620
vn -0.2754 0.7800 -0.5620
vn -0.2754 0.7800 -0.5620
vn 0.2754 0.6241 0.7313
vn 0.2754 0.6241 0.7313
vn 0.2754 0.6241 0.7313
vn 0.2754 0.6241 0.7313
vn -0.2754 -0.6241 -0.7313
vn -0.2754 -0.6241 -0.7313
vn -0.2754 -0.6241 -0.7313
vn -0.2754 -0.6241 -0.7313
vn 0.2754 -0.7800 0.5620
vn 0.2754 -0.7800 0.5620
vn 0.2754 -0.7800 0.5620
vn 0.2754 -0.7800 0.5620
vn -0.6513 -0.7350 0.1887
vn -0.6513 -0.7350 0.1887
vn -0.6513 -0.7350 0.1887
vn -0.6513 -0.7350 0.1887
vn -0.6513 0.6691 0.3580
vn -0.6513 0.6691 0.3580
vn -0.6513 0.6691 0.3580
vn -0.6513 0.6691 0.3580
vn 0.6513 -0.6691 -0.3580
vn 0.6513 -0.6691 -0.3580
vn 0.6513 -0.6691 -0.3580
vn 0.6513 -0.6691 -0.3580
vn 0.6513 0.7350 -0.1887
vn 0.6513 0.7350 -0.1887
vn 0.6513 0.7350 -0.1887
vn 0.6513 0.7350 -0.1887
vn -0.3759 -0.1109 0.9200
vn -0.3759 -0.1109 0.9200
vn -0.3759 -0.1109 0.9200
vn -0.3759 -0.1109 0.9200
vn -0.9266 0.0450 -0.3732
vn -0.9266 0.0450 -0.3732
vn -0.9266 0.0450 -0.3732
vn -0.9266 0.0450 -0.3732
vn 0.9266 -0.0450 0.3732
vn 0.9266 -0.0450 0.3732
vn 0.9266 -0.0450 0.3732
vn 0.9266 -0.0450 0.3732
vn 0.3759 0.1109 -0.9200
vn 0.3759 0.1109 -0.9200
vn 0.3759 0.1109 -0.9200
vn 0.3759 0.1109 -0.9200
vn -0.7566 -0.5365 -0.3739
vn -0.7566 -0.5365 -0.3739
vn -0.7566 -0.5365 -0.3739
vn 0.3069 -0.4826 -0.8203
vn 0.3069 -0.4826 -0.8203
vn 0.3069 -0.4826 -0.8203
vn -0.7566 0.6099 -0.2356
vn -0.7566 0.6099 -0.2356
vn -0.7566 0.6099 -0.2356
vn 0.3069 0.6638 -0.6820
vn 0.3069 0.6638 -0.6820
vn 0.3069 0.6638 -0.6820
vn -0.3069 -0.6638 0.6820
vn -0.3069 -0.6638 0.6820
vn -0.3069 -0.6638 0.6820
vn 0.7566 -0.6099 0.2356
vn 0.7566 -0.6099 0.2356
vn 0.7566 -0.6099 0.2356
vn -0.3069 0.4826 0.8203
vn -0.3069 0.4826 0.8203
vn -0.3069 0.4826 0.8203
vn 0.7566 0.5365 0.3739
vn 0.7566 0.5365 0.3739
vn 0.7566 0.5365 0.3739
vn 0.2955 0.1144 -0.9485
vn 0.2955 0.1144 -0.9485
vn 0.2955 0.1144 -0.9485
vn 0.2955 0.1144 -0.9485
vn -0.2955 -0.1144 0.9485
vn -0.2955 -0.1144 0.9485
vn -0.2955 -0.1144 0.9485
vn -0.2955 -0.1144 0.9485
vn 0.0000 0.9928 0.1197
vn 0.0000 0.9928 0.1197
vn 0.0000 0.9928 0.1197
vn 0.0000 0.9928 0.1197
vn 0.0000 -0.9928 -0.1197
vn 0.0000 -0.9928 -0.1197
vn 0.0000 -0.9928 -0.1197
vn 0.0000 -0.9928 -0.1197
vn 0.9553 -0.0354 0.2934
vn 0.9553 -0.0354 0.2934
vn 0.9553 -0.0354 0.2934
vn 0.9553 -0.0354 0.2934
vn -0.9553 0.0354 -0.2934
vn -0.9553 0.0354 -0.2934
vn -0.9553 0.0354 -0.2934
vn -0.9553 0.0354 -0.2934
vn 0.2090 0.7829 -0.5860
vn 0.2090 0.7829 -0.5860
vn 0.2090 0.7829 -0.5860
vn 0.2090 0.7829 -0.5860
vn -0.2090 0.6212 0.7553
vn -0.2090 0.6212 0.7553
vn -0.2090 0.6212 0.7553
vn -0.2090 0.6212 0.7553
vn 0.2090 -0.6212 -0.7553
vn 0.2090 -0.6212 -0.7553
vn 0.2090 -0.6212 -0.7553
vn 0.2090 -0.6212 -0.7553
vn -0.2090 -0.7829 0.5860
vn -0.2090 -0.7829 0.5860
vn -0.2090 -0.7829 0.5860
vn -0.2090 -0.7829 0.5860
vn -0.6755 -0.6770 -0.2921
vn -0.6755 -0.6770 -0.2921
vn -0.6755 -0.6770 -0.2921
vn -0.6755 -0.6770 -0.2921
vn -0.6755 0.7270 -0.1228
vn -0.6755 0.7270 -0.1228
vn -0.6755 0.7270 -0.1228
vn -0.6755 0.7270 -0.1228
vn 0.6755 -0.7270 0.1228
vn 0.6755 -0.7270 0.1228
vn 0.6755 -0.7270 0.1228
vn 0.6755 -0.7270 0.1228
vn 0.6755 0.6770 0.2921
vn 0.6755 0.6770 0.2921
vn 0.6755 0.6770 0.2921
vn 0.6755 0.6770 0.2921
vn -0.8845 -0.0559 0.4632
vn -0.8845 -0.0559 0.4632
vn -0.8845 -0.0559 0.4632
vn -0.8845 -0.0559 0.4632
vn -0.4666 0.1059 -0.8781
vn -0.4666 0.1059 -0.8781
vn -0.4666 0.1059 -0.8781
vn -0.4666 0.1059 -0.8781
vn 0.4666 -0.1059 0.8781
vn 0.4666 -0.1059 0.8781
vn 0.4666 -0.1059 0.8781
vn 0.4666 -0.1059 0.8781
vn 0.8845 0.0559 -0.4632
vn 0.8845 0.0559 -0.4632
vn 0.8845 0.0559 -0.4632
vn 0.8845 0.0559 -0.4632
vn -0.3809 -0.4867 -0.7861
vn -0.3809 -0.4867 -0.7861
vn -0.3809 -0.4867 -0.7861
vn 0.7222 -0.5276 -0.4473
vn 0.7222 -0.5276 -0.4473
vn 0.7222 -0.5276 -0.4473
vn -0.3809 0.6597 -0.6479
vn -0.3809 0.6597 -0.6479
vn -0.3809 0.6597 -0.6479
vn 0.7222 0.6188 -0.3091
vn 0.7222 0.6188 -0.3091
vn 0.7222 0.6188 -0.3091
vn -0.7222 -0.6188 0.3091
vn -0.7222 -0.6188 0.3091
vn -0.7222 -0.6188 0.3091
vn 0.3809 -0.6597 0.6479
vn 0.3809 -0.6597 0.6479
vn 0.3809 -0.6597 0.6479
vn -0.7222 0.5276 0.4473
vn -0.7222 0.5276 0.4473
vn -0.7222 0.5276 0.4473
vn 0.3809 0.4867 0.7861
vn 0.3809 0.4867 0.7861
vn 0.3809 0.4867 0.7861
vn -0.7833 0.0744 -0.6171
vn -0.7833 0.0744 -0.6171
vn -0.7833 0.0744 -0.6171
vn -0.7833 0.0744 -0.6171
vn 0.7833 -0.0744 0.6171
vn 0.7833 -0.0744 0.6171
vn 0.7833 -0.0744 0.6171
vn 0.7833 -0.0744 0.6171
vn 0.0000 0.9928 0.1197
vn 0.0000 0.9928 0.1197
vn 0.0000 0.9928 0.1197
vn 0.0000 0.9928 0.1197
vn -0.0000 -0.9928 -0.1197
vn -0.0000 -0.9928 -0.1197
vn -0.0000 -0.9928 -0.1197
vn -0.0000 -0.9928 -0.1197
vn 0.6216 0.0938 -0.7777
vn 0.6216 0.0938 -0.7777
vn 0.6216 0.0938 -0.7777
vn 0.6216 0.0938 -0.7777
vn -0.6216 -0.0938 0.7777
vn -0.6216 -0.0938 0.7777
vn -0.6216 -0.0938 0.7777
vn -0.6216 -0.0938 0.7777
vn -0.5539 0.7546 -0.3517
vn -0.5539 0.7546 -0.3517
vn -0.5539 0.7546 -0.3517
vn -0.5539 0.7546 -0.3517
vn 0.5539 0.6494 0.5210
vn 0.5539 0.6494 0.5210
vn 0.5539 0.6494 0.5210
vn 0.5539 0.6494 0.5210
vn -0.5539 -0.6494 -0.5210
vn -0.5539 -0.6494 -0.5210
vn -0.5539 -0.6494 -0.5210
vn -0.5539 -0.6494 -0.5210
vn 0.5539 -0.7546 0.3517
vn 0.5539 -0.7546 0.3517
vn 0.5539 -0.7546 0.3517
vn 0.5539 -0.7546 0.3517
vn -0.4395 -0.7683 0.4653
vn -0.4395 -0.7683 0.4653
vn -0.4395 -0.7683 0.4653
vn -0.4395 -0.7683 0.4653
vn -0.4395 0.6357 0.6346
vn -0.4395 0.6357 0.6346
vn -0.4395 0.6357 0.6346
vn -0.4395 0.6357 0.6346
vn 0.4395 -0.6357 -0.6346
vn 0.4395 -0.6357 -0.6346
vn 0.4395 -0.6357 -0.6346
vn 0.4395 -0.6357 -0.6346
vn 0.4395 0.7683 -0.4653
vn 0.4395 0.7683 -0.4653
vn 0.4395 0.7683 -0.4653
vn 0.4395 0.7683 -0.4653
vn 0.1144 -0.1189 0.9863
vn 0.1144 -0.1189 0.9863
vn 0.1144 -0.1189 0.9863
vn 0.1144 -0.1189 0.9863
vn -0.9934 -0.0137 0.1135
vn -0.9934 -0.0137 0.1135
vn -0.9934 -0.0137 0.1135
vn -0.9934 -0.0137 0.1135
vn 0.9934 0.0137 -0.1135
vn 0.9934 0.0137 -0.1135
vn 0.9934 0.0137 -0.1135
vn 0.9934 0.0137 -0.1135
vn -0.1144 0.1189 -0.9863
vn -0.1144 0.1189 -0.9863
vn -0.1144 0.1189 -0.9863
vn -0.1144 0.1189 -0.9863
vn -0.8111 -0.5844 0.0236
vn -0.8111 -0.5844 0.0236
vn -0.8111 -0.5844 0.0236
vn -0.0934 -0.4761 -0.8744
vn -0.0934 -0.4761 -0.8744
vn -0.0934 -0.4761 -0.8744
vn -0.8111 0.5620 0.1618
vn -0.8111 0.5620 0.1618
vn -0.8111 0.5620 0.1618
vn -0.0934 0.6703 -0.7362
vn -0.0934 0.6703 -0.7362
vn -0.0934 0.6703 -0.7362
vn 0.0934 -0.6703 0.7362
vn 0.0934 -0.6703 0.7362
vn 0.0934 -0.6703 0.7362
vn 0.8111 -0.5620 -0.1618
vn 0.8111 -0.5620 -0.1618
vn 0.8111 -0.5620 -0.1618
vn 0.0934 0.4761 0.8744
vn 0.0934 0.4761 0.8744
vn 0.0934 0.4761 0.8744
vn 0.8111 0.5844 -0.0236
vn 0.8111 0.5844 -0.0236
vn 0.8111 0.5844 -0.0236
vn 0.0000 0.0000 -1.0000
vn 0.0000 0.0000 -1.0000
vn 0.0000 0.0000 -1.0000
vn 0.0000 0.0000 -1.0000
vn 0.0000 0.0000 1.0000
vn 0.0000 0.0000 1.0000
vn 0.0000 0.0000 1.0000
vn 0.0000 0.0000 1.0000
vn -0.4794 0.8776 0.0000
vn -0.4794 0.8776 0.0000
vn -0.4794 0.8776 0.0000
vn -0.4794 0.8776 0.0000
vn 0.4794 -0.8776 0.0000
vn 0.4794 -0.8776 0.0000
vn 0.4794 -0.8776 0.0000
vn 0.4794 -0.8776 0.0000
vn 0.8776 0.4794 0.0000
vn 0.8776 0.4794 0.0000
vn 0.8776 0.4794 0.0000
vn 0.8776 0.4794 0.0000
vn -0.8776 -0.4794 0.0000
vn -0.8776 -0.4794 0.0000
vn -0.8776 -0.4794 0.0000
vn -0.8776 -0.4794 0.0000
vn -0.3390 0.6205 -0.7071
vn -0.3390 0.6205 -0.7071
vn -0.3390 0.6205 -0.7071
vn -0.3390 0.6205 -0.7071
vn -0.3390 0.6205 0.7071
vn -0.3390 0.6205 0.7071
vn -0.3390 0.6205 0.7071
vn -0.3390 0.6205 0.7071
vn 0.3390 -0.6205 -0.7071
vn 0.3390 -0.6205 -0.7071
vn 0.3390 -0.6205 -0.7071
vn 0.3390 -0.6205 -0.7071
vn 0.3390 -0.6205 0.7071
vn 0.3390 -0.6205 0.7071
vn 0.3390 -0.6205 0.7071
vn 0.3390 -0.6205 0.7071
vn -0.2815 -0.9595 0.0000
vn -0.2815 -0.9595 0.0000
vn -0.2815 -0.9595 0.0000
vn -0.2815 -0.9595 0.0000
vn -0.9595 0.2815 0.0000
vn -0.9595 0.2815 0.0000
vn -0.9595 0.2815 0.0000
vn -0.9595 0.2815 0.0000
vn 0.9595 -0.2815 0.0000
vn 0.9595 -0.2815 0.0000
vn 0.9595 -0.2815 0.0000
vn 0.9595 -0.2815 0.0000
vn 0.2815 0.9595 0.0000
vn 0.2815 0.9595 0.0000
vn 0.2815 0.9595 0.0000
vn 0.2815 0.9595 0.0000
vn -0.6205 -0.3390 0.7071
vn -0.6205 -0.3390 0.7071
vn -0.6205 -0.3390 0.7071
vn -0.6205 -0.3390 0.7071
vn -0.6205 -0.3390 -0.7071
vn -0.6205 -0.3390 -0.7071
vn -0.6205 -0.3390 -0.7071
vn -0.6205 -0.3390 -0.7071
vn 0.6205 0.3390 0.7071
vn 0.6205 0.3390 0.7071
vn 0.6205 0.3390 0.7071
vn 0.6205 0.3390 0.7071
vn 0.6205 0.3390 -0.7071
vn 0.6205 0.3390 -0.7071
vn 0.6205 0.3390 -0.7071
vn 0.6205 0.3390 -0.7071
vn -0.2299 -0.7835 -0.5774
vn -0.2299 -0.7835 -0.5774
vn -0.2299 -0.7835 -0.5774
vn 0.7835 -0.2299 -0.5774
vn 0.7835 -0.2299 -0.5774
vn 0.7835 -0.2299 -0.5774
vn -0.7835 0.2299 -0.5774
vn -0.7835 0.2299 -0.5774
vn -0.7835 0.2299 -0.5774
vn 0.2299 0.7835 -0.5774
vn 0.2299 0.7835 -0.5774
vn 0.2299 0.7835 -0.5774
vn -0.2299 -0.7835 0.5774
vn -0.2299 -0.7835 0.5774
vn -0.2299 -0.7835 0.5774
vn 0.7835 -0.2299 0.5774
vn 0.7835 -0.2299 0.5774
vn 0.7835 -0.2299 0.5774
vn -0.7835 0.2299 0.5774
vn -0.7835 0.2299 0.5774
vn -0.7835 0.2299 0.5774
vn 0.2299 0.7835 0.5774
vn 0.2299 0.7835 0.5774
vn 0.2299 0.7835 0.5774
usemtl TF_Utility
f 1/1/1 2/2/2 3/3/3
f 1/1/1 3/3/3 4/4/4
f 5/5/5 6/6/6 7/7/7
f 5/5/5 7/7/7 8/8/8
f 9/9/9 10/10/10 11/11/11
f 9/9/9 11/11/11 12/12/12
f 13/13/13 14/14/14 15/15/15
f 13/13/13 15/15/15 16/16/16
f 17/17/17 18/18/18 19/19/19
f 17/17/17 19/19/19 20/20/20
f 21/21/21 22/22/22 23/23/23
f 21/21/21 23/23/23 24/24/24
f 25/25/25 26/26/26 27/27/27
f 25/25/25 27/27/27 28/28/28
f 29/29/29 30/30/30 31/31/31
f 29/29/29 31/31/31 32/32/32
f 33/33/33 34/34/34 35/35/35
f 33/33/33 35/35/35 36/36/36
f 37/37/37 38/38/38 39/39/39
f 37/37/37 39/39/39 40/40/40
f 41/41/41 42/42/42 43/43/43
f 41/41/41 43/43/43 44/44/44
f 45/45/45 46/46/46 47/47/47
f 45/45/45 47/47/47 48/48/48
f 49/49/49 50/50/50 51/51/51
f 49/49/49 51/51/51 52/52/52
f 53/53/53 54/54/54 55/55/55
f 53/53/53 55/55/55 56/56/56
f 57/57/57 58/58/58 59/59/59
f 57/57/57 59/59/59 60/60/60
f 61/61/61 62/62/62 63/63/63
f 61/61/61 63/63/63 64/64/64
f 65/65/65 66/66/66 67/67/67
f 65/65/65 67/67/67 68/68/68
f 69/69/69 70/70/70 71/71/71
f 69/69/69 71/71/71 72/72/72
f 73/73/73 74/74/74 75/75/75
f 73/73/73 75/75/75 76/76/76
f 77/77/77 78/78/78 79/79/79
f 77/77/77 79/79/79 80/80/80
f 81/81/81 82/82/82 83/83/83
f 81/81/81 83/83/83 84/84/84
f 85/85/85 86/86/86 87/87/87
f 85/85/85 87/87/87 88/88/88
f 89/89/89 90/90/90 91/91/91
f 89/89/89 91/91/91 92/92/92
f 93/93/93 94/94/94 95/95/95
f 93/93/93 95/95/95 96/96/96
f 97/97/97 98/98/98 99/99/99
f 97/97/97 99/99/99 100/100/100
f 101/101/101 102/102/102 103/103/103
f 101/101/101 103/103/103 104/104/104
f 105/105/105 106/106/106 107/107/107
f 105/105/105 107/107/107 108/108/108
f 109/109/109 110/110/110 111/111/111
f 109/109/109 111/111/111 112/112/112
f 113/113/113 114/114/114 115/115/115
f 113/113/113 115/115/115 116/116/116
f 117/117/117 118/118/118 119/119/119
f 117/117/117 119/119/119 120/120/120
f 121/121/121 122/122/122 123/123/123
f 124/124/124 125/125/125 126/126/126
f 127/127/127 128/128/128 129/129/129
f 130/130/130 131/131/131 132/132/132
f 133/133/133 134/134/134 135/135/135
f 136/136/136 137/137/137 138/138/138
f 139/139/139 140/140/140 141/141/141
f 142/142/142 143/143/143 144/144/144
f 145/145/145 146/146/146 147/147/147
f 145/145/145 147/147/147 148/148/148
f 149/149/149 150/150/150 151/151/151
f 149/149/149 151/151/151 152/152/152
f 153/153/153 154/154/154 155/155/155
f 153/153/153 155/155/155 156/156/156
f 157/157/157 158/158/158 159/159/159
f 157/157/157 159/159/159 160/160/160
f 161/161/161 162/162/162 163/163/163
f 161/161/161 163/163/163 164/164/164
f 165/165/165 166/166/166 167/167/167
f 165/165/165 167/167/167 168/168/168
f 169/169/169 170/170/170 171/171/171
f 169/169/169 171/171/171 172/172/172
f 173/173/173 174/174/174 175/175/175
f 173/173/173 175/175/175 176/176/176
f 177/177/177 178/178/178 179/179/179
f 177/177/177 179/179/179 180/180/180
f 181/181/181 182/182/182 183/183/183
f 181/181/181 183/183/183 184/184/184
f 185/185/185 186/186/186 187/187/187
f 185/185/185 187/187/187 188/188/188
f 189/189/189 190/190/190 191/191/191
f 189/189/189 191/191/191 192/192/192
f 193/193/193 194/194/194 195/195/195
f 193/193/193 195/195/195 196/196/196
f 197/197/197 198/198/198 199/199/199
f 197/197/197 199/199/199 200/200/200
f 201/201/201 202/202/202 203/203/203
f 201/201/201 203/203/203 204/204/204
f 205/205/205 206/206/206 207/207/207
f 205/205/205 207/207/207 208/208/208
f 209/209/209 210/210/210 211/211/211
f 209/209/209 211/211/211 212/212/212
f 213/213/213 214/214/214 215/215/215
f 213/213/213 215/215/215 216/216/216
f 217/217/217 218/218/218 219/219/219
f 220/220/220 221/221/221 222/222/222
f 223/223/223 224/224/224 225/225/225
f 226/226/226 227/227/227 228/228/228
f 229/229/229 230/230/230 231/231/231
f 232/232/232 233/233/233 234/234/234
f 235/235/235 236/236/236 237/237/237
f 238/238/238 239/239/239 240/240/240
f 241/241/241 242/242/242 243/243/243
f 241/241/241 243/243/243 244/244/244
f 245/245/245 246/246/246 247/247/247
f 245/245/245 247/247/247 248/248/248
f 249/249/249 250/250/250 251/251/251
f 249/249/249 251/251/251 252/252/252
f 253/253/253 254/254/254 255/255/255
f 253/253/253 255/255/255 256/256/256
f 257/257/257 258/258/258 259/259/259
f 257/257/257 259/259/259 260/260/260
f 261/261/261 262/262/262 263/263/263
f 261/261/261 263/263/263 264/264/264
f 265/265/265 266/266/266 267/267/267
f 265/265/265 267/267/267 268/268/268
f 269/269/269 270/270/270 271/271/271
f 269/269/269 271/271/271 272/272/272
f 273/273/273 274/274/274 275/275/275
f 273/273/273 275/275/275 276/276/276
f 277/277/277 278/278/278 279/279/279
f 277/277/277 279/279/279 280/280/280
f 281/281/281 282/282/282 283/283/283
f 281/281/281 283/283/283 284/284/284
f 285/285/285 286/286/286 287/287/287
f 285/285/285 287/287/287 288/288/288
f 289/289/289 290/290/290 291/291/291
f 289/289/289 291/291/291 292/292/292
f 293/293/293 294/294/294 295/295/295
f 293/293/293 295/295/295 296/296/296
f 297/297/297 298/298/298 299/299/299
f 297/297/297 299/299/299 300/300/300
f 301/301/301 302/302/302 303/303/303
f 301/301/301 303/303/303 304/304/304
f 305/305/305 306/306/306 307/307/307
f 305/305/305 307/307/307 308/308/308
f 309/309/309 310/310/310 311/311/311
f 309/309/309 311/311/311 312/312/312
f 313/313/313 314/314/314 315/315/315
f 316/316/316 317/317/317 318/318/318
f 319/319/319 320/320/320 321/321/321
f 322/322/322 323/323/323 324/324/324
f 325/325/325 326/326/326 327/327/327
f 328/328/328 329/329/329 330/330/330
f 331/331/331 332/332/332 333/333/333
f 334/334/334 335/335/335 336/336/336
f 337/337/337 338/338/338 339/339/339
f 337/337/337 339/339/339 340/340/340
f 341/341/341 342/342/342 343/343/343
f 341/341/341 343/343/343 344/344/344
f 345/345/345 346/346/346 347/347/347
f 345/345/345 347/347/347 348/348/348
f 349/349/349 350/350/350 351/351/351
f 349/349/349 351/351/351 352/352/352
f 353/353/353 354/354/354 355/355/355
f 353/353/353 355/355/355 356/356/356
f 357/357/357 358/358/358 359/359/359
f 357/357/357 359/359/359 360/360/360
f 361/361/361 362/362/362 363/363/363
f 361/361/361 363/363/363 364/364/364
f 365/365/365 366/366/366 367/367/367
f 365/365/365 367/367/367 368/368/368
f 369/369/369 370/370/370 371/371/371
f 369/369/369 371/371/371 372/372/372
f 373/373/373 374/374/374 375/375/375
f 373/373/373 375/375/375 376/376/376
f 377/377/377 378/378/378 379/379/379
f 377/377/377 379/379/379 380/380/380
f 381/381/381 382/382/382 383/383/383
f 381/381/381 383/383/383 384/384/384
f 385/385/385 386/386/386 387/387/387
f 385/385/385 387/387/387 388/388/388
f 389/389/389 390/390/390 391/391/391
f 389/389/389 391/391/391 392/392/392
f 393/393/393 394/394/394 395/395/395
f 393/393/393 395/395/395 396/396/396
f 397/397/397 398/398/398 399/399/399
f 397/397/397 399/399/399 400/400/400
f 401/401/401 402/402/402 403/403/403
f 401/401/401 403/403/403 404/404/404
f 405/405/405 406/406/406 407/407/407
f 405/405/405 407/407/407 408/408/408
f 409/409/409 410/410/410 411/411/411
f 412/412/412 413/413/413 414/414/414
f 415/415/415 416/416/416 417/417/417
f 418/418/418 419/419/419 420/420/420
f 421/421/421 422/422/422 423/423/423
f 424/424/424 425/425/425 426/426/426
f 427/427/427 428/428/428 429/429/429
f 430/430/430 431/431/431 432/432/432
f 433/433/433 434/434/434 435/435/435
f 433/433/433 435/435/435 436/436/436
f 437/437/437 438/438/438 439/439/439
f 437/437/437 439/439/439 440/440/440
f 441/441/441 442/442/442 443/443/443
f 441/441/441 443/443/443 444/444/444
f 445/445/445 446/446/446 447/447/447
f 445/445/445 447/447/447 448/448/448
f 449/449/449 450/450/450 451/451/451
f 449/449/449 451/451/451 452/452/452
f 453/453/453 454/454/454 455/455/455
f 453/453/453 455/455/455 456/456/456
f 457/457/457 458/458/458 459/459/459
f 457/457/457 459/459/459 460/460/460
f 461/461/461 462/462/462 463/463/463
f 461/461/461 463/463/463 464/464/464
f 465/465/465 466/466/466 467/467/467
f 465/465/465 467/467/467 468/468/468
f 469/469/469 470/470/470 471/471/471
f 469/469/469 471/471/471 472/472/472
f 473/473/473 474/474/474 475/475/475
f 473/473/473 475/475/475 476/476/476
f 477/477/477 478/478/478 479/479/479
f 477/477/477 479/479/479 480/480/480
f 481/481/481 482/482/482 483/483/483
f 481/481/481 483/483/483 484/484/484
f 485/485/485 486/486/486 487/487/487
f 485/485/485 487/487/487 488/488/488
f 489/489/489 490/490/490 491/491/491
f 489/489/489 491/491/491 492/492/492
f 493/493/493 494/494/494 495/495/495
f 493/493/493 495/495/495 496/496/496
f 497/497/497 498/498/498 499/499/499
f 497/497/497 499/499/499 500/500/500
f 501/501/501 502/502/502 503/503/503
f 501/501/501 503/503/503 504/504/504
f 505/505/505 506/506/506 507/507/507
f 508/508/508 509/509/509 510/510/510
f 511/511/511 512/512/512 513/513/513
f 514/514/514 515/515/515 516/516/516
f 517/517/517 518/518/518 519/519/519
f 520/520/520 521/521/521 522/522/522
f 523/523/523 524/524/524 525/525/525
f 526/526/526 527/527/527 528/528/528
