# TERRAFRONT procedural asset — generated by Tools/assetgen (deterministic)
# Y-up, +Z forward (muzzle), units = meters, pivot at grip/origin.
# prop_scrap_a — TERRAFRONT P3
mtllib tf_utility.mtl
o prop_scrap_a
v -0.6619 0.0546 0.2884
v -0.6664 0.0848 0.2895
v -0.8540 0.0647 0.0804
v -0.8496 0.0345 0.0794
v -0.6050 0.0784 -0.1444
v -0.6094 0.1086 -0.1433
v -0.4218 0.1287 0.0658
v -0.4173 0.0984 0.0647
v -0.6605 0.0960 0.2832
v -0.4305 0.1372 0.0728
v -0.6182 0.1171 -0.1363
v -0.8482 0.0759 0.0741
v -0.6532 0.0460 0.2814
v -0.8408 0.0259 0.0723
v -0.6109 0.0672 -0.1381
v -0.4232 0.0872 0.0710
v -0.8490 0.0351 0.0652
v -0.8534 0.0653 0.0663
v -0.6234 0.1065 -0.1441
v -0.6190 0.0763 -0.1451
v -0.4180 0.0978 0.0788
v -0.4224 0.1281 0.0799
v -0.6524 0.0869 0.2903
v -0.6479 0.0566 0.2892
v -0.6605 0.0960 0.2832
v -0.8482 0.0759 0.0741
v -0.8540 0.0647 0.0804
v -0.6664 0.0848 0.2895
v -0.6182 0.1171 -0.1363
v -0.4305 0.1372 0.0728
v -0.4218 0.1287 0.0658
v -0.6094 0.1086 -0.1433
v -0.8408 0.0259 0.0723
v -0.6532 0.0460 0.2814
v -0.6619 0.0546 0.2884
v -0.8496 0.0345 0.0794
v -0.4232 0.0872 0.0710
v -0.6109 0.0672 -0.1381
v -0.6050 0.0784 -0.1444
v -0.4173 0.0984 0.0647
v -0.8534 0.0653 0.0663
v -0.6234 0.1065 -0.1441
v -0.6182 0.1171 -0.1363
v -0.8482 0.0759 0.0741
v -0.6190 0.0763 -0.1451
v -0.8490 0.0351 0.0652
v -0.8408 0.0259 0.0723
v -0.6109 0.0672 -0.1381
v -0.4224 0.1281 0.0799
v -0.6524 0.0869 0.2903
v -0.6605 0.0960 0.2832
v -0.4305 0.1372 0.0728
v -0.6479 0.0566 0.2892
v -0.4180 0.0978 0.0788
v -0.4232 0.0872 0.0710
v -0.6532 0.0460 0.2814
v -0.8534 0.0653 0.0663
v -0.8540 0.0647 0.0804
v -0.8496 0.0345 0.0794
v -0.8490 0.0351 0.0652
v -0.6190 0.0763 -0.1451
v -0.6050 0.0784 -0.1444
v -0.6094 0.1086 -0.1433
v -0.6234 0.1065 -0.1441
v -0.6479 0.0566 0.2892
v -0.6619 0.0546 0.2884
v -0.6664 0.0848 0.2895
v -0.6524 0.0869 0.2903
v -0.4224 0.1281 0.0799
v -0.4218 0.1287 0.0658
v -0.4173 0.0984 0.0647
v -0.4180 0.0978 0.0788
v -0.6182 0.1171 -0.1363
v -0.6234 0.1065 -0.1441
v -0.6094 0.1086 -0.1433
v -0.4218 0.1287 0.0658
v -0.4224 0.1281 0.0799
v -0.4305 0.1372 0.0728
v -0.6050 0.0784 -0.1444
v -0.6190 0.0763 -0.1451
v -0.6109 0.0672 -0.1381
v -0.4232 0.0872 0.0710
v -0.4180 0.0978 0.0788
v -0.4173 0.0984 0.0647
v -0.8540 0.0647 0.0804
v -0.8534 0.0653 0.0663
v -0.8482 0.0759 0.0741
v -0.6605 0.0960 0.2832
v -0.6524 0.0869 0.2903
v -0.6664 0.0848 0.2895
v -0.8408 0.0259 0.0723
v -0.8490 0.0351 0.0652
v -0.8496 0.0345 0.0794
v -0.6619 0.0546 0.2884
v -0.6479 0.0566 0.2892
v -0.6532 0.0460 0.2814
v 0.6681 0.3928 -0.0526
v 0.6699 0.4230 -0.0514
v 0.3041 0.4458 -0.0900
v 0.3023 0.4155 -0.0912
v 0.3248 0.4223 -0.3002
v 0.3265 0.4525 -0.2990
v 0.6923 0.4298 -0.2605
v 0.6905 0.3995 -0.2616
v 0.6715 0.4333 -0.0610
v 0.6918 0.4394 -0.2501
v 0.3260 0.4622 -0.2887
v 0.3057 0.4561 -0.0995
v 0.6686 0.3831 -0.0629
v 0.3028 0.4059 -0.1015
v 0.3231 0.4120 -0.2906
v 0.6889 0.3892 -0.2521
v 0.2935 0.4165 -0.1021
v 0.2952 0.4467 -0.1010
v 0.3155 0.4528 -0.2901
v 0.3138 0.4226 -0.2913
v 0.6994 0.3986 -0.2506
v 0.7012 0.4288 -0.2495
v 0.6808 0.4227 -0.0603
v 0.6791 0.3925 -0.0615
v 0.6715 0.4333 -0.0610
v 0.3057 0.4561 -0.0995
v 0.3041 0.4458 -0.0900
v 0.6699 0.4230 -0.0514
v 0.3260 0.4622 -0.2887
v 0.6918 0.4394 -0.2501
v 0.6923 0.4298 -0.2605
v 0.3265 0.4525 -0.2990
v 0.3028 0.4059 -0.1015
v 0.6686 0.3831 -0.0629
v 0.6681 0.3928 -0.0526
v 0.3023 0.4155 -0.0912
v 0.6889 0.3892 -0.2521
v 0.3231 0.4120 -0.2906
v 0.3248 0.4223 -0.3002
v 0.6905 0.3995 -0.2616
v 0.2952 0.4467 -0.1010
v 0.3155 0.4528 -0.2901
v 0.3260 0.4622 -0.2887
v 0.3057 0.4561 -0.0995
v 0.3138 0.4226 -0.2913
v 0.2935 0.4165 -0.1021
v 0.3028 0.4059 -0.1015
v 0.3231 0.4120 -0.2906
v 0.7012 0.4288 -0.2495
v 0.6808 0.4227 -0.0603
v 0.6715 0.4333 -0.0610
v 0.6918 0.4394 -0.2501
v 0.6791 0.3925 -0.0615
v 0.6994 0.3986 -0.2506
v 0.6889 0.3892 -0.2521
v 0.6686 0.3831 -0.0629
v 0.2952 0.4467 -0.1010
v 0.3041 0.4458 -0.0900
v 0.3023 0.4155 -0.0912
v 0.2935 0.4165 -0.1021
v 0.3138 0.4226 -0.2913
v 0.3248 0.4223 -0.3002
v 0.3265 0.4525 -0.2990
v 0.3155 0.4528 -0.2901
v 0.6791 0.3925 -0.0615
v 0.6681 0.3928 -0.0526
v 0.6699 0.4230 -0.0514
v 0.6808 0.4227 -0.0603
v 0.7012 0.4288 -0.2495
v 0.6923 0.4298 -0.2605
v 0.6905 0.3995 -0.2616
v 0.6994 0.3986 -0.2506
v 0.3260 0.4622 -0.2887
v 0.3155 0.4528 -0.2901
v 0.3265 0.4525 -0.2990
v 0.6923 0.4298 -0.2605
v 0.7012 0.4288 -0.2495
v 0.6918 0.4394 -0.2501
v 0.3248 0.4223 -0.3002
v 0.3138 0.4226 -0.2913
v 0.3231 0.4120 -0.2906
v 0.6889 0.3892 -0.2521
v 0.6994 0.3986 -0.2506
v 0.6905 0.3995 -0.2616
v 0.3041 0.4458 -0.0900
v 0.2952 0.4467 -0.1010
v 0.3057 0.4561 -0.0995
v 0.6715 0.4333 -0.0610
v 0.6808 0.4227 -0.0603
v 0.6699 0.4230 -0.0514
v 0.3028 0.4059 -0.1015
v 0.2935 0.4165 -0.1021
v 0.3023 0.4155 -0.0912
v 0.6681 0.3928 -0.0526
v 0.6791 0.3925 -0.0615
v 0.6686 0.3831 -0.0629
v -0.7832 0.0347 -0.6212
v -0.7987 0.1736 -0.6089
v -0.2460 0.2612 -0.9039
v -0.2306 0.1223 -0.9161
v -0.0874 0.1147 -0.6501
v -0.1029 0.2536 -0.6379
v -0.6555 0.1660 -0.3429
v -0.6400 0.0271 -0.3552
v -0.7950 0.1832 -0.5992
v -0.6613 0.1762 -0.3508
v -0.1087 0.2638 -0.6458
v -0.2424 0.2708 -0.8942
v -0.7773 0.0245 -0.6133
v -0.2247 0.1121 -0.9082
v -0.0910 0.1050 -0.6598
v -0.6436 0.0174 -0.3649
v -0.2171 0.1234 -0.9120
v -0.2326 0.2623 -0.8997
v -0.0989 0.2553 -0.6513
v -0.0834 0.1163 -0.6636
v -0.6535 0.0260 -0.3593
v -0.6690 0.1649 -0.3471
v -0.8027 0.1720 -0.5955
v -0.7872 0.0330 -0.6077
v -0.7950 0.1832 -0.5992
v -0.2424 0.2708 -0.8942
v -0.2460 0.2612 -0.9039
v -0.7987 0.1736 -0.6089
v -0.1087 0.2638 -0.6458
v -0.6613 0.1762 -0.3508
v -0.6555 0.1660 -0.3429
v -0.1029 0.2536 -0.6379
v -0.2247 0.1121 -0.9082
v -0.7773 0.0245 -0.6133
v -0.7832 0.0347 -0.6212
v -0.2306 0.1223 -0.9161
v -0.6436 0.0174 -0.3649
v -0.0910 0.1050 -0.6598
v -0.0874 0.1147 -0.6501
v -0.6400 0.0271 -0.3552
v -0.2326 0.2623 -0.8997
v -0.0989 0.2553 -0.6513
v -0.1087 0.2638 -0.6458
v -0.2424 0.2708 -0.8942
v -0.0834 0.1163 -0.6636
v -0.2171 0.1234 -0.9120
v -0.2247 0.1121 -0.9082
v -0.0910 0.1050 -0.6598
v -0.6690 0.1649 -0.3471
v -0.8027 0.1720 -0.5955
v -0.7950 0.1832 -0.5992
v -0.6613 0.1762 -0.3508
v -0.7872 0.0330 -0.6077
v -0.6535 0.0260 -0.3593
v -0.6436 0.0174 -0.3649
v -0.7773 0.0245 -0.6133
v -0.2326 0.2623 -0.8997
v -0.2460 0.2612 -0.9039
v -0.2306 0.1223 -0.9161
v -0.2171 0.1234 -0.9120
v -0.0834 0.1163 -0.6636
v -0.0874 0.1147 -0.6501
v -0.1029 0.2536 -0.6379
v -0.0989 0.2553 -0.6513
v -0.7872 0.0330 -0.6077
v -0.7832 0.0347 -0.6212
v -0.7987 0.1736 -0.6089
v -0.8027 0.1720 -0.5955
v -0.6690 0.1649 -0.3471
v -0.6555 0.1660 -0.3429
v -0.6400 0.0271 -0.3552
v -0.6535 0.0260 -0.3593
v -0.1087 0.2638 -0.6458
v -0.0989 0.2553 -0.6513
v -0.1029 0.2536 -0.6379
v -0.6555 0.1660 -0.3429
v -0.6690 0.1649 -0.3471
v -0.6613 0.1762 -0.3508
v -0.0874 0.1147 -0.6501
v -0.0834 0.1163 -0.6636
v -0.0910 0.1050 -0.6598
v -0.6436 0.0174 -0.3649
v -0.6535 0.0260 -0.3593
v -0.6400 0.0271 -0.3552
v -0.2460 0.2612 -0.9039
v -0.2326 0.2623 -0.8997
v -0.2424 0.2708 -0.8942
v -0.7950 0.1832 -0.5992
v -0.8027 0.1720 -0.5955
v -0.7987 0.1736 -0.6089
v -0.2247 0.1121 -0.9082
v -0.2171 0.1234 -0.9120
v -0.2306 0.1223 -0.9161
v -0.7832 0.0347 -0.6212
v -0.7872 0.0330 -0.6077
v -0.7773 0.0245 -0.6133
v -0.5402 0.1417 0.0326
v -0.5340 0.2041 0.0246
v -0.6914 0.1581 -0.4563
v -0.6976 0.0957 -0.4484
v -0.2597 0.0346 -0.5859
v -0.2535 0.0969 -0.5938
v -0.0961 0.1429 -0.1129
v -0.1023 0.0806 -0.1049
v -0.5235 0.2126 0.0204
v -0.1046 0.1541 -0.1112
v -0.2620 0.1081 -0.5921
v -0.6810 0.1666 -0.4606
v -0.5317 0.1305 0.0309
v -0.6891 0.0845 -0.4501
v -0.2702 0.0260 -0.5816
v -0.1127 0.0720 -0.1007
v -0.6913 0.0935 -0.4608
v -0.6851 0.1558 -0.4688
v -0.2661 0.0973 -0.6003
v -0.2723 0.0350 -0.5923
v -0.1086 0.0828 -0.0925
v -0.1024 0.1451 -0.1005
v -0.5214 0.2036 0.0311
v -0.5276 0.1413 0.0391
v -0.5235 0.2126 0.0204
v -0.6810 0.1666 -0.4606
v -0.6914 0.1581 -0.4563
v -0.5340 0.2041 0.0246
v -0.2620 0.1081 -0.5921
v -0.1046 0.1541 -0.1112
v -0.0961 0.1429 -0.1129
v -0.2535 0.0969 -0.5938
v -0.6891 0.0845 -0.4501
v -0.5317 0.1305 0.0309
v -0.5402 0.1417 0.0326
v -0.6976 0.0957 -0.4484
v -0.1127 0.0720 -0.1007
v -0.2702 0.0260 -0.5816
v -0.2597 0.0346 -0.5859
v -0.1023 0.0806 -0.1049
v -0.6851 0.1558 -0.4688
v -0.2661 0.0973 -0.6003
v -0.2620 0.1081 -0.5921
v -0.6810 0.1666 -0.4606
v -0.2723 0.0350 -0.5923
v -0.6913 0.0935 -0.4608
v -0.6891 0.0845 -0.4501
v -0.2702 0.0260 -0.5816
v -0.1024 0.1451 -0.1005
v -0.5214 0.2036 0.0311
v -0.5235 0.2126 0.0204
v -0.1046 0.1541 -0.1112
v -0.5276 0.1413 0.0391
v -0.1086 0.0828 -0.0925
v -0.1127 0.0720 -0.1007
v -0.5317 0.1305 0.0309
v -0.6851 0.1558 -0.4688
v -0.6914 0.1581 -0.4563
v -0.6976 0.0957 -0.4484
v -0.6913 0.0935 -0.4608
v -0.2723 0.0350 -0.5923
v -0.2597 0.0346 -0.5859
v -0.2535 0.0969 -0.5938
v -0.2661 0.0973 -0.6003
v -0.5276 0.1413 0.0391
v -0.5402 0.1417 0.0326
v -0.5340 0.2041 0.0246
v -0.5214 0.2036 0.0311
v -0.1024 0.1451 -0.1005
v -0.0961 0.1429 -0.1129
v -0.1023 0.0806 -0.1049
v -0.1086 0.0828 -0.0925
v -0.2620 0.1081 -0.5921
v -0.2661 0.0973 -0.6003
v -0.2535 0.0969 -0.5938
v -0.0961 0.1429 -0.1129
v -0.1024 0.1451 -0.1005
v -0.1046 0.1541 -0.1112
v -0.2597 0.0346 -0.5859
v -0.2723 0.0350 -0.5923
v -0.2702 0.0260 -0.5816
v -0.1127 0.0720 -0.1007
v -0.1086 0.0828 -0.0925
v -0.1023 0.0806 -0.1049
v -0.6914 0.1581 -0.4563
v -0.6851 0.1558 -0.4688
v -0.6810 0.1666 -0.4606
v -0.5235 0.2126 0.0204
v -0.5214 0.2036 0.0311
v -0.5340 0.2041 0.0246
v -0.6891 0.0845 -0.4501
v -0.6913 0.0935 -0.4608
v -0.6976 0.0957 -0.4484
v -0.5402 0.1417 0.0326
v -0.5276 0.1413 0.0391
v -0.5317 0.1305 0.0309
v 0.3467 0.1895 0.3968
v 0.3676 0.3369 0.4125
v -0.2114 0.4227 0.3760
v -0.2322 0.2752 0.3602
v -0.1859 0.3326 -0.2383
v -0.1651 0.4801 -0.2225
v 0.4139 0.3943 -0.1860
v 0.3930 0.2469 -0.2017
v 0.3698 0.3477 0.4036
v 0.4145 0.4032 -0.1750
v -0.1645 0.4890 -0.2115
v -0.2092 0.4335 0.3671
v 0.3461 0.1806 0.3858
v -0.2328 0.2663 0.3492
v -0.1881 0.3218 -0.2294
v 0.3909 0.2361 -0.1928
v -0.2413 0.2776 0.3497
v -0.2205 0.4251 0.3654
v -0.1757 0.4806 -0.2132
v -0.1966 0.3331 -0.2290
v 0.4021 0.2444 -0.1912
v 0.4230 0.3919 -0.1754
v 0.3782 0.3364 0.4032
v 0.3574 0.1889 0.3875
v 0.3698 0.3477 0.4036
v -0.2092 0.4335 0.3671
v -0.2114 0.4227 0.3760
v 0.3676 0.3369 0.4125
v -0.1645 0.4890 -0.2115
v 0.4145 0.4032 -0.1750
v 0.4139 0.3943 -0.1860
v -0.1651 0.4801 -0.2225
v -0.2328 0.2663 0.3492
v 0.3461 0.1806 0.3858
v 0.3467 0.1895 0.3968
v -0.2322 0.2752 0.3602
v 0.3909 0.2361 -0.1928
v -0.1881 0.3218 -0.2294
v -0.1859 0.3326 -0.2383
v 0.3930 0.2469 -0.2017
v -0.2205 0.4251 0.3654
v -0.1757 0.4806 -0.2132
v -0.1645 0.4890 -0.2115
v -0.2092 0.4335 0.3671
v -0.1966 0.3331 -0.2290
v -0.2413 0.2776 0.3497
v -0.2328 0.2663 0.3492
v -0.1881 0.3218 -0.2294
v 0.4230 0.3919 -0.1754
v 0.3782 0.3364 0.4032
v 0.3698 0.3477 0.4036
v 0.4145 0.4032 -0.1750
v 0.3574 0.1889 0.3875
v 0.4021 0.2444 -0.1912
v 0.3909 0.2361 -0.1928
v 0.3461 0.1806 0.3858
v -0.2205 0.4251 0.3654
v -0.2114 0.4227 0.3760
v -0.2322 0.2752 0.3602
v -0.2413 0.2776 0.3497
v -0.1966 0.3331 -0.2290
v -0.1859 0.3326 -0.2383
v -0.1651 0.4801 -0.2225
v -0.1757 0.4806 -0.2132
v 0.3574 0.1889 0.3875
v 0.3467 0.1895 0.3968
v 0.3676 0.3369 0.4125
v 0.3782 0.3364 0.4032
v 0.4230 0.3919 -0.1754
v 0.4139 0.3943 -0.1860
v 0.3930 0.2469 -0.2017
v 0.4021 0.2444 -0.1912
v -0.1645 0.4890 -0.2115
v -0.1757 0.4806 -0.2132
v -0.1651 0.4801 -0.2225
v 0.4139 0.3943 -0.1860
v 0.4230 0.3919 -0.1754
v 0.4145 0.4032 -0.1750
v -0.1859 0.3326 -0.2383
v -0.1966 0.3331 -0.2290
v -0.1881 0.3218 -0.2294
v 0.3909 0.2361 -0.1928
v 0.4021 0.2444 -0.1912
v 0.3930 0.2469 -0.2017
v -0.2114 0.4227 0.3760
v -0.2205 0.4251 0.3654
v -0.2092 0.4335 0.3671
v 0.3698 0.3477 0.4036
v 0.3782 0.3364 0.4032
v 0.3676 0.3369 0.4125
v -0.2328 0.2663 0.3492
v -0.2413 0.2776 0.3497
v -0.2322 0.2752 0.3602
v 0.3467 0.1895 0.3968
v 0.3574 0.1889 0.3875
v 0.3461 0.1806 0.3858
v -0.7175 0.2123 0.6831
v -0.7086 0.3024 0.6789
v -0.6735 0.2794 0.2658
v -0.6825 0.1893 0.2701
v 0.0045 0.1244 0.3320
v 0.0134 0.2145 0.3277
v -0.0216 0.2374 0.7408
v -0.0305 0.1473 0.7451
v -0.6977 0.3114 0.6793
v -0.0305 0.2483 0.7394
v 0.0045 0.2254 0.3264
v -0.6627 0.2884 0.2663
v -0.7086 0.2014 0.6845
v -0.6735 0.1784 0.2714
v -0.0064 0.1154 0.3316
v -0.0414 0.1383 0.7446
v -0.6717 0.1878 0.2610
v -0.6628 0.2780 0.2568
v 0.0044 0.2149 0.3169
v -0.0045 0.1247 0.3211
v -0.0413 0.1488 0.7541
v -0.0324 0.2389 0.7499
v -0.6995 0.3020 0.6897
v -0.7084 0.2119 0.6940
v -0.6977 0.3114 0.6793
v -0.6627 0.2884 0.2663
v -0.6735 0.2794 0.2658
v -0.7086 0.3024 0.6789
v 0.0045 0.2254 0.3264
v -0.0305 0.2483 0.7394
v -0.0216 0.2374 0.7408
v 0.0134 0.2145 0.3277
v -0.6735 0.1784 0.2714
v -0.7086 0.2014 0.6845
v -0.7175 0.2123 0.6831
v -0.6825 0.1893 0.2701
v -0.0414 0.1383 0.7446
v -0.0064 0.1154 0.3316
v 0.0045 0.1244 0.3320
v -0.0305 0.1473 0.7451
v -0.6628 0.2780 0.2568
v 0.0044 0.2149 0.3169
v 0.0045 0.2254 0.3264
v -0.6627 0.2884 0.2663
v -0.0045 0.1247 0.3211
v -0.6717 0.1878 0.2610
v -0.6735 0.1784 0.2714
v -0.0064 0.1154 0.3316
v -0.0324 0.2389 0.7499
v -0.6995 0.3020 0.6897
v -0.6977 0.3114 0.6793
v -0.0305 0.2483 0.7394
v -0.7084 0.2119 0.6940
v -0.0413 0.1488 0.7541
v -0.0414 0.1383 0.7446
v -0.7086 0.2014 0.6845
v -0.6628 0.2780 0.2568
v -0.6735 0.2794 0.2658
v -0.6825 0.1893 0.2701
v -0.6717 0.1878 0.2610
v -0.0045 0.1247 0.3211
v 0.0045 0.1244 0.3320
v 0.0134 0.2145 0.3277
v 0.0044 0.2149 0.3169
v -0.7084 0.2119 0.6940
v -0.7175 0.2123 0.6831
v -0.7086 0.3024 0.6789
v -0.6995 0.3020 0.6897
v -0.0324 0.2389 0.7499
v -0.0216 0.2374 0.7408
v -0.0305 0.1473 0.7451
v -0.0413 0.1488 0.7541
v 0.0045 0.2254 0.3264
v 0.0044 0.2149 0.3169
v 0.0134 0.2145 0.3277
v -0.0216 0.2374 0.7408
v -0.0324 0.2389 0.7499
v -0.0305 0.2483 0.7394
v 0.0045 0.1244 0.3320
v -0.0045 0.1247 0.3211
v -0.0064 0.1154 0.3316
v -0.0414 0.1383 0.7446
v -0.0413 0.1488 0.7541
v -0.0305 0.1473 0.7451
v -0.6735 0.2794 0.2658
v -0.6628 0.2780 0.2568
v -0.6627 0.2884 0.2663
v -0.6977 0.3114 0.6793
v -0.6995 0.3020 0.6897
v -0.7086 0.3024 0.6789
v -0.6735 0.1784 0.2714
v -0.6717 0.1878 0.2610
v -0.6825 0.1893 0.2701
v -0.7175 0.2123 0.6831
v -0.7084 0.2119 0.6940
v -0.7086 0.2014 0.6845
v -0.1013 0.1486 0.6895
v -0.1115 0.2237 0.7028
v -0.3075 0.2152 0.5994
v -0.2973 0.1401 0.5862
v -0.1521 0.2093 0.3051
v -0.1623 0.2844 0.3183
v 0.0337 0.2929 0.4217
v 0.0439 0.2177 0.4085
v -0.1084 0.2356 0.6958
v 0.0279 0.3005 0.4321
v -0.1681 0.2920 0.3287
v -0.3044 0.2271 0.5924
v -0.0955 0.1409 0.6791
v -0.2915 0.1325 0.5758
v -0.1552 0.1974 0.3120
v 0.0408 0.2058 0.4154
v -0.3017 0.1418 0.5728
v -0.3119 0.2170 0.5861
v -0.1756 0.2819 0.3223
v -0.1654 0.2068 0.3091
v 0.0483 0.2160 0.4218
v 0.0381 0.2911 0.4350
v -0.0982 0.2262 0.6987
v -0.0880 0.1511 0.6855
v -0.1084 0.2356 0.6958
v -0.3044 0.2271 0.5924
v -0.3075 0.2152 0.5994
v -0.1115 0.2237 0.7028
v -0.1681 0.2920 0.3287
v 0.0279 0.3005 0.4321
v 0.0337 0.2929 0.4217
v -0.1623 0.2844 0.3183
v -0.2915 0.1325 0.5758
v -0.0955 0.1409 0.6791
v -0.1013 0.1486 0.6895
v -0.2973 0.1401 0.5862
v 0.0408 0.2058 0.4154
v -0.1552 0.1974 0.3120
v -0.1521 0.2093 0.3051
v 0.0439 0.2177 0.4085
v -0.3119 0.2170 0.5861
v -0.1756 0.2819 0.3223
v -0.1681 0.2920 0.3287
v -0.3044 0.2271 0.5924
v -0.1654 0.2068 0.3091
v -0.3017 0.1418 0.5728
v -0.2915 0.1325 0.5758
v -0.1552 0.1974 0.3120
v 0.0381 0.2911 0.4350
v -0.0982 0.2262 0.6987
v -0.1084 0.2356 0.6958
v 0.0279 0.3005 0.4321
v -0.0880 0.1511 0.6855
v 0.0483 0.2160 0.4218
v 0.0408 0.2058 0.4154
v -0.0955 0.1409 0.6791
v -0.3119 0.2170 0.5861
v -0.3075 0.2152 0.5994
v -0.2973 0.1401 0.5862
v -0.3017 0.1418 0.5728
v -0.1654 0.2068 0.3091
v -0.1521 0.2093 0.3051
v -0.1623 0.2844 0.3183
v -0.1756 0.2819 0.3223
v -0.0880 0.1511 0.6855
v -0.1013 0.1486 0.6895
v -0.1115 0.2237 0.7028
v -0.0982 0.2262 0.6987
v 0.0381 0.2911 0.4350
v 0.0337 0.2929 0.4217
v 0.0439 0.2177 0.4085
v 0.0483 0.2160 0.4218
v -0.1681 0.2920 0.3287
v -0.1756 0.2819 0.3223
v -0.1623 0.2844 0.3183
v 0.0337 0.2929 0.4217
v 0.0381 0.2911 0.4350
v 0.0279 0.3005 0.4321
v -0.1521 0.2093 0.3051
v -0.1654 0.2068 0.3091
v -0.1552 0.1974 0.3120
v 0.0408 0.2058 0.4154
v 0.0483 0.2160 0.4218
v 0.0439 0.2177 0.4085
v -0.3075 0.2152 0.5994
v -0.3119 0.2170 0.5861
v -0.3044 0.2271 0.5924
v -0.1084 0.2356 0.6958
v -0.0982 0.2262 0.6987
v -0.1115 0.2237 0.7028
v -0.2915 0.1325 0.5758
v -0.3017 0.1418 0.5728
v -0.2973 0.1401 0.5862
v -0.1013 0.1486 0.6895
v -0.0880 0.1511 0.6855
v -0.0955 0.1409 0.6791
v -0.2955 0.1225 -0.0627
v -0.2857 0.1928 -0.0509
v -0.2062 0.2824 -0.6520
v -0.2160 0.2121 -0.6638
v 0.2333 0.1411 -0.6149
v 0.2432 0.2114 -0.6032
v 0.1636 0.1218 -0.0021
v 0.1538 0.0515 -0.0138
v -0.2745 0.2010 -0.0482
v 0.1552 0.1331 -0.0015
v 0.2347 0.2227 -0.6026
v -0.1950 0.2906 -0.6493
v -0.2871 0.1112 -0.0633
v -0.2075 0.2008 -0.6644
v 0.2221 0.1329 -0.6177
v 0.1426 0.0433 -0.0165
v -0.2049 0.2120 -0.6725
v -0.1951 0.2823 -0.6608
v 0.2346 0.2144 -0.6141
v 0.2248 0.1441 -0.6258
v 0.1427 0.0516 -0.0051
v 0.1525 0.1219 0.0067
v -0.2772 0.1898 -0.0400
v -0.2870 0.1195 -0.0518
v -0.2745 0.2010 -0.0482
v -0.1950 0.2906 -0.6493
v -0.2062 0.2824 -0.6520
v -0.2857 0.1928 -0.0509
v 0.2347 0.2227 -0.6026
v 0.1552 0.1331 -0.0015
v 0.1636 0.1218 -0.0021
v 0.2432 0.2114 -0.6032
v -0.2075 0.2008 -0.6644
v -0.2871 0.1112 -0.0633
v -0.2955 0.1225 -0.0627
v -0.2160 0.2121 -0.6638
v 0.1426 0.0433 -0.0165
v 0.2221 0.1329 -0.6177
v 0.2333 0.1411 -0.6149
v 0.1538 0.0515 -0.0138
v -0.1951 0.2823 -0.6608
v 0.2346 0.2144 -0.6141
v 0.2347 0.2227 -0.6026
v -0.1950 0.2906 -0.6493
v 0.2248 0.1441 -0.6258
v -0.2049 0.2120 -0.6725
v -0.2075 0.2008 -0.6644
v 0.2221 0.1329 -0.6177
v 0.1525 0.1219 0.0067
v -0.2772 0.1898 -0.0400
v -0.2745 0.2010 -0.0482
v 0.1552 0.1331 -0.0015
v -0.2870 0.1195 -0.0518
v 0.1427 0.0516 -0.0051
v 0.1426 0.0433 -0.0165
v -0.2871 0.1112 -0.0633
v -0.1951 0.2823 -0.6608
v -0.2062 0.2824 -0.6520
v -0.2160 0.2121 -0.6638
v -0.2049 0.2120 -0.6725
v 0.2248 0.1441 -0.6258
v 0.2333 0.1411 -0.6149
v 0.2432 0.2114 -0.6032
v 0.2346 0.2144 -0.6141
v -0.2870 0.1195 -0.0518
v -0.2955 0.1225 -0.0627
v -0.2857 0.1928 -0.0509
v -0.2772 0.1898 -0.0400
v 0.1525 0.1219 0.0067
v 0.1636 0.1218 -0.0021
v 0.1538 0.0515 -0.0138
v 0.1427 0.0516 -0.0051
v 0.2347 0.2227 -0.6026
v 0.2346 0.2144 -0.6141
v 0.2432 0.2114 -0.6032
v 0.1636 0.1218 -0.0021
v 0.1525 0.1219 0.0067
v 0.1552 0.1331 -0.0015
v 0.2333 0.1411 -0.6149
v 0.2248 0.1441 -0.6258
v 0.2221 0.1329 -0.6177
v 0.1426 0.0433 -0.0165
v 0.1427 0.0516 -0.0051
v 0.1538 0.0515 -0.0138
v -0.2062 0.2824 -0.6520
v -0.1951 0.2823 -0.6608
v -0.1950 0.2906 -0.6493
v -0.2745 0.2010 -0.0482
v -0.2772 0.1898 -0.0400
v -0.2857 0.1928 -0.0509
v -0.2075 0.2008 -0.6644
v -0.2049 0.2120 -0.6725
v -0.2160 0.2121 -0.6638
v -0.2955 0.1225 -0.0627
v -0.2870 0.1195 -0.0518
v -0.2871 0.1112 -0.0633
v -0.7694 0.2093 0.0339
v -0.7658 0.2423 0.0305
v -0.5667 0.2142 -0.0344
v -0.5702 0.1811 -0.0310
v -0.3719 0.2215 0.5600
v -0.3684 0.2546 0.5566
v -0.5675 0.2827 0.6214
v -0.5711 0.2497 0.6249
v -0.7616 0.2528 0.0389
v -0.5696 0.2919 0.6109
v -0.3705 0.2638 0.5461
v -0.5625 0.2247 -0.0260
v -0.7673 0.2000 0.0444
v -0.5681 0.1719 -0.0205
v -0.3762 0.2110 0.5516
v -0.5753 0.2391 0.6165
v -0.5577 0.1804 -0.0246
v -0.5541 0.2135 -0.0280
v -0.3622 0.2526 0.5440
v -0.3657 0.2196 0.5475
v -0.5837 0.2504 0.6185
v -0.5801 0.2834 0.6151
v -0.7721 0.2443 0.0430
v -0.7756 0.2112 0.0465
v -0.7616 0.2528 0.0389
v -0.5625 0.2247 -0.0260
v -0.5667 0.2142 -0.0344
v -0.7658 0.2423 0.0305
v -0.3705 0.2638 0.5461
v -0.5696 0.2919 0.6109
v -0.5675 0.2827 0.6214
v -0.3684 0.2546 0.5566
v -0.5681 0.1719 -0.0205
v -0.7673 0.2000 0.0444
v -0.7694 0.2093 0.0339
v -0.5702 0.1811 -0.0310
v -0.5753 0.2391 0.6165
v -0.3762 0.2110 0.5516
v -0.3719 0.2215 0.5600
v -0.5711 0.2497 0.6249
v -0.5541 0.2135 -0.0280
v -0.3622 0.2526 0.5440
v -0.3705 0.2638 0.5461
v -0.5625 0.2247 -0.0260
v -0.3657 0.2196 0.5475
v -0.5577 0.1804 -0.0246
v -0.5681 0.1719 -0.0205
v -0.3762 0.2110 0.5516
v -0.5801 0.2834 0.6151
v -0.7721 0.2443 0.0430
v -0.7616 0.2528 0.0389
v -0.5696 0.2919 0.6109
v -0.7756 0.2112 0.0465
v -0.5837 0.2504 0.6185
v -0.5753 0.2391 0.6165
v -0.7673 0.2000 0.0444
v -0.5541 0.2135 -0.0280
v -0.5667 0.2142 -0.0344
v -0.5702 0.1811 -0.0310
v -0.5577 0.1804 -0.0246
v -0.3657 0.2196 0.5475
v -0.3719 0.2215 0.5600
v -0.3684 0.2546 0.5566
v -0.3622 0.2526 0.5440
v -0.7756 0.2112 0.0465
v -0.7694 0.2093 0.0339
v -0.7658 0.2423 0.0305
v -0.7721 0.2443 0.0430
v -0.5801 0.2834 0.6151
v -0.5675 0.2827 0.6214
v -0.5711 0.2497 0.6249
v -0.5837 0.2504 0.6185
v -0.3705 0.2638 0.5461
v -0.3622 0.2526 0.5440
v -0.3684 0.2546 0.5566
v -0.5675 0.2827 0.6214
v -0.5801 0.2834 0.6151
v -0.5696 0.2919 0.6109
v -0.3719 0.2215 0.5600
v -0.3657 0.2196 0.5475
v -0.3762 0.2110 0.5516
v -0.5753 0.2391 0.6165
v -0.5837 0.2504 0.6185
v -0.5711 0.2497 0.6249
v -0.5667 0.2142 -0.0344
v -0.5541 0.2135 -0.0280
v -0.5625 0.2247 -0.0260
v -0.7616 0.2528 0.0389
v -0.7721 0.2443 0.0430
v -0.7658 0.2423 0.0305
v -0.5681 0.1719 -0.0205
v -0.5577 0.1804 -0.0246
v -0.5702 0.1811 -0.0310
v -0.7694 0.2093 0.0339
v -0.7756 0.2112 0.0465
v -0.7673 0.2000 0.0444
v -0.2267 0.2905 0.7627
v -0.2514 0.3874 0.7627
v -0.3416 0.3644 0.7260
v -0.3168 0.2675 0.7260
v 0.2514 0.4126 -0.7627
v 0.2267 0.5095 -0.7627
v 0.3168 0.5325 -0.7260
v 0.3416 0.4356 -0.7260
v -0.2493 0.4086 0.7440
v 0.3048 0.5501 -0.7074
v 0.2146 0.5270 -0.7440
v -0.3394 0.3856 0.7074
v -0.2146 0.2730 0.7440
v -0.3048 0.2499 0.7074
v 0.2493 0.3914 -0.7440
v 0.3394 0.4144 -0.7074
v -0.3277 0.2647 0.7001
v -0.3525 0.3616 0.7001
v 0.2015 0.5031 -0.7514
v 0.2263 0.4062 -0.7514
v 0.3525 0.4384 -0.7001
v 0.3277 0.5353 -0.7001
v -0.2263 0.3938 0.7514
v -0.2015 0.2969 0.7514
v -0.2493 0.4086 0.7440
v -0.3394 0.3856 0.7074
v -0.3416 0.3644 0.7260
v -0.2514 0.3874 0.7627
v 0.2146 0.5270 -0.7440
v 0.3048 0.5501 -0.7074
v 0.3168 0.5325 -0.7260
v 0.2267 0.5095 -0.7627
v -0.3048 0.2499 0.7074
v -0.2146 0.2730 0.7440
v -0.2267 0.2905 0.7627
v -0.3168 0.2675 0.7260
v 0.3394 0.4144 -0.7074
v 0.2493 0.3914 -0.7440
v 0.2514 0.4126 -0.7627
v 0.3416 0.4356 -0.7260
v -0.3525 0.3616 0.7001
v 0.2015 0.5031 -0.7514
v 0.2146 0.5270 -0.7440
v -0.3394 0.3856 0.7074
v 0.2263 0.4062 -0.7514
v -0.3277 0.2647 0.7001
v -0.3048 0.2499 0.7074
v 0.2493 0.3914 -0.7440
v 0.3277 0.5353 -0.7001
v -0.2263 0.3938 0.7514
v -0.2493 0.4086 0.7440
v 0.3048 0.5501 -0.7074
v -0.2015 0.2969 0.7514
v 0.3525 0.4384 -0.7001
v 0.3394 0.4144 -0.7074
v -0.2146 0.2730 0.7440
v -0.3525 0.3616 0.7001
v -0.3416 0.3644 0.7260
v -0.3168 0.2675 0.7260
v -0.3277 0.2647 0.7001
v 0.2263 0.4062 -0.7514
v 0.2514 0.4126 -0.7627
v 0.2267 0.5095 -0.7627
v 0.2015 0.5031 -0.7514
v -0.2015 0.2969 0.7514
v -0.2267 0.2905 0.7627
v -0.2514 0.3874 0.7627
v -0.2263 0.3938 0.7514
v 0.3277 0.5353 -0.7001
v 0.3168 0.5325 -0.7260
v 0.3416 0.4356 -0.7260
v 0.3525 0.4384 -0.7001
v 0.2146 0.5270 -0.7440
v 0.2015 0.5031 -0.7514
v 0.2267 0.5095 -0.7627
v 0.3168 0.5325 -0.7260
v 0.3277 0.5353 -0.7001
v 0.3048 0.5501 -0.7074
v 0.2514 0.4126 -0.7627
v 0.2263 0.4062 -0.7514
v 0.2493 0.3914 -0.7440
v 0.3394 0.4144 -0.7074
v 0.3525 0.4384 -0.7001
v 0.3416 0.4356 -0.7260
v -0.3416 0.3644 0.7260
v -0.3525 0.3616 0.7001
v -0.3394 0.3856 0.7074
v -0.2493 0.4086 0.7440
v -0.2263 0.3938 0.7514
v -0.2514 0.3874 0.7627
v -0.3048 0.2499 0.7074
v -0.3277 0.2647 0.7001
v -0.3168 0.2675 0.7260
v -0.2267 0.2905 0.7627
v -0.2015 0.2969 0.7514
v -0.2146 0.2730 0.7440
vt 0.7450 0.3163
vt 0.7456 0.3820
vt 0.6294 0.3384
vt 0.6288 0.2727
vt 0.5044 0.3680
vt 0.5050 0.4337
vt 0.6212 0.4773
vt 0.6206 0.4116
vt 0.6113 0.4921
vt 0.7387 0.3751
vt 0.6347 0.2589
vt 0.5072 0.3759
vt 0.6153 0.4911
vt 0.5113 0.3749
vt 0.6387 0.2579
vt 0.7428 0.3741
vt 0.5068 0.2740
vt 0.5044 0.3397
vt 0.6318 0.4293
vt 0.6343 0.3636
vt 0.7456 0.4103
vt 0.7432 0.4760
vt 0.6157 0.3864
vt 0.6182 0.3207
vt 0.7421 0.4064
vt 0.6259 0.3627
vt 0.6294 0.3384
vt 0.7456 0.3820
vt 0.6347 0.2589
vt 0.7387 0.3751
vt 0.7435 0.3712
vt 0.6395 0.2550
vt 0.5113 0.3749
vt 0.6153 0.4911
vt 0.6105 0.4950
vt 0.5065 0.3788
vt 0.6241 0.3873
vt 0.5079 0.3436
vt 0.5044 0.3680
vt 0.6206 0.4116
vt 0.5044 0.3715
vt 0.6318 0.2546
vt 0.6347 0.2589
vt 0.5072 0.3759
vt 0.6343 0.2540
vt 0.5068 0.3709
vt 0.5113 0.3749
vt 0.6387 0.2579
vt 0.7432 0.3791
vt 0.6157 0.4960
vt 0.6113 0.4921
vt 0.7387 0.3751
vt 0.6182 0.4954
vt 0.7456 0.3785
vt 0.7428 0.3741
vt 0.6153 0.4911
vt 0.6215 0.3397
vt 0.6294 0.3384
vt 0.6288 0.2727
vt 0.6209 0.2740
vt 0.6343 0.3636
vt 0.6420 0.3680
vt 0.6395 0.4337
vt 0.6318 0.4293
vt 0.6182 0.3207
vt 0.6105 0.3163
vt 0.6080 0.3820
vt 0.6157 0.3864
vt 0.6291 0.4760
vt 0.6212 0.4773
vt 0.6206 0.4116
vt 0.6285 0.4103
vt 0.6347 0.4523
vt 0.6318 0.4293
vt 0.6395 0.4337
vt 0.6212 0.4773
vt 0.6291 0.4760
vt 0.6251 0.4960
vt 0.6420 0.3680
vt 0.6343 0.3636
vt 0.6387 0.3436
vt 0.6241 0.3873
vt 0.6285 0.4103
vt 0.6206 0.4116
vt 0.6294 0.3384
vt 0.6215 0.3397
vt 0.6259 0.3627
vt 0.6113 0.4064
vt 0.6157 0.3864
vt 0.6080 0.3820
vt 0.6249 0.2540
vt 0.6209 0.2740
vt 0.6288 0.2727
vt 0.6105 0.3163
vt 0.6182 0.3207
vt 0.6153 0.2977
vt 0.9764 0.2836
vt 0.9774 0.3762
vt 0.7603 0.4458
vt 0.7593 0.3532
vt 0.7726 0.3738
vt 0.7736 0.4664
vt 0.9907 0.3968
vt 0.9897 0.3042
vt 0.9784 0.4867
vt 0.9905 0.3027
vt 0.7733 0.2652
vt 0.7613 0.4492
vt 0.9767 0.4848
vt 0.7595 0.4473
vt 0.7716 0.2633
vt 0.9887 0.3008
vt 0.9467 0.3561
vt 0.9478 0.4487
vt 0.7638 0.4673
vt 0.7627 0.3747
vt 0.8022 0.3013
vt 0.8033 0.3939
vt 0.9873 0.3753
vt 0.9862 0.2827
vt 0.9784 0.4077
vt 0.7613 0.4773
vt 0.7603 0.4458
vt 0.9774 0.3762
vt 0.7733 0.2652
vt 0.9905 0.3027
vt 0.9907 0.2926
vt 0.7736 0.2551
vt 0.7595 0.4473
vt 0.9767 0.4848
vt 0.9764 0.4949
vt 0.7593 0.4574
vt 0.9887 0.2727
vt 0.7716 0.3423
vt 0.7726 0.3738
vt 0.9897 0.3042
vt 0.7550 0.4478
vt 0.7671 0.2638
vt 0.7733 0.2652
vt 0.7613 0.4492
vt 0.7627 0.3747
vt 0.9467 0.3561
vt 0.9473 0.3236
vt 0.7633 0.3423
vt 0.8033 0.3939
vt 0.9873 0.3753
vt 0.9867 0.4077
vt 0.8027 0.4264
vt 0.9829 0.4862
vt 0.9950 0.3022
vt 0.9887 0.3008
vt 0.9767 0.4848
vt 0.9478 0.4487
vt 0.9585 0.4458
vt 0.9574 0.3532
vt 0.9467 0.3561
vt 0.7661 0.3747
vt 0.7726 0.3738
vt 0.7736 0.4664
vt 0.7671 0.4673
vt 0.9829 0.2827
vt 0.9764 0.2836
vt 0.9774 0.3762
vt 0.9839 0.3753
vt 0.8033 0.3939
vt 0.7926 0.3968
vt 0.7915 0.3042
vt 0.8022 0.3013
vt 0.7733 0.2652
vt 0.7671 0.2638
vt 0.7736 0.2551
vt 0.7926 0.3968
vt 0.8033 0.3939
vt 0.8027 0.4264
vt 0.7726 0.3738
vt 0.7661 0.3747
vt 0.7716 0.3423
vt 0.8008 0.2727
vt 0.8022 0.3013
vt 0.7915 0.3042
vt 0.9585 0.4458
vt 0.9478 0.4487
vt 0.9492 0.4773
vt 0.9784 0.4077
vt 0.9839 0.3753
vt 0.9774 0.3762
vt 0.9473 0.3236
vt 0.9467 0.3561
vt 0.9574 0.3532
vt 0.9764 0.4949
vt 0.9829 0.4862
vt 0.9767 0.4848
vt 0.7606 0.2704
vt 0.7553 0.4031
vt 0.9413 0.4868
vt 0.9465 0.3541
vt 0.9947 0.3469
vt 0.9894 0.4796
vt 0.8035 0.3959
vt 0.8087 0.2632
vt 0.7566 0.3878
vt 0.8016 0.4927
vt 0.9875 0.3681
vt 0.9425 0.2633
vt 0.7625 0.3819
vt 0.9484 0.2573
vt 0.9934 0.3622
vt 0.8075 0.4867
vt 0.7557 0.3552
vt 0.7609 0.4879
vt 0.8658 0.4811
vt 0.8606 0.3484
vt 0.9891 0.2621
vt 0.9943 0.3948
vt 0.8894 0.4016
vt 0.8842 0.2689
vt 0.7566 0.3878
vt 0.9425 0.2633
vt 0.9413 0.2592
vt 0.7553 0.3837
vt 0.9875 0.4893
vt 0.8016 0.4056
vt 0.8035 0.3959
vt 0.9894 0.4796
vt 0.9484 0.3444
vt 0.7625 0.2607
vt 0.7606 0.2704
vt 0.9465 0.3541
vt 0.8075 0.4867
vt 0.9934 0.3622
vt 0.9947 0.3663
vt 0.8087 0.4908
vt 0.9458 0.2609
vt 0.9908 0.3658
vt 0.9875 0.3681
vt 0.9425 0.2633
vt 0.8606 0.3484
vt 0.7557 0.3552
vt 0.7573 0.3444
vt 0.8622 0.3377
vt 0.9943 0.3948
vt 0.8894 0.4016
vt 0.8878 0.4123
vt 0.9927 0.4056
vt 0.7592 0.3842
vt 0.8042 0.4891
vt 0.8075 0.4867
vt 0.7625 0.3819
vt 0.9458 0.4879
vt 0.9413 0.4868
vt 0.9465 0.3541
vt 0.9510 0.3552
vt 0.8606 0.3484
vt 0.8663 0.3469
vt 0.8715 0.4796
vt 0.8658 0.4811
vt 0.8842 0.2689
vt 0.8785 0.2704
vt 0.8837 0.4031
vt 0.8894 0.4016
vt 0.7990 0.3948
vt 0.8035 0.3959
vt 0.8087 0.2632
vt 0.8042 0.2621
vt 0.8681 0.4893
vt 0.8658 0.4811
vt 0.8715 0.4796
vt 0.8035 0.3959
vt 0.7990 0.3948
vt 0.8016 0.4056
vt 0.8663 0.3469
vt 0.8606 0.3484
vt 0.8622 0.3377
vt 0.8075 0.2540
vt 0.8042 0.2621
vt 0.8087 0.2632
vt 0.9413 0.4868
vt 0.9458 0.4879
vt 0.9425 0.4960
vt 0.8878 0.4123
vt 0.8894 0.4016
vt 0.8837 0.4031
vt 0.9484 0.3444
vt 0.9510 0.3552
vt 0.9465 0.3541
vt 0.8785 0.2704
vt 0.8842 0.2689
vt 0.8819 0.2607
vt 0.7435 0.4041
vt 0.7405 0.4849
vt 0.5585 0.4252
vt 0.5615 0.3444
vt 0.5095 0.2651
vt 0.5065 0.3459
vt 0.6885 0.4056
vt 0.6915 0.3248
vt 0.5740 0.4889
vt 0.7426 0.4391
vt 0.6793 0.2571
vt 0.5107 0.3069
vt 0.5707 0.4929
vt 0.5074 0.3109
vt 0.6760 0.2611
vt 0.7393 0.4431
vt 0.5066 0.3415
vt 0.5091 0.4224
vt 0.6776 0.3464
vt 0.6751 0.2656
vt 0.7409 0.3276
vt 0.7434 0.4085
vt 0.5749 0.4844
vt 0.5724 0.4036
vt 0.5740 0.4889
vt 0.5107 0.3069
vt 0.5065 0.3085
vt 0.5698 0.4905
vt 0.5071 0.3604
vt 0.6891 0.4201
vt 0.6885 0.4056
vt 0.5065 0.3459
vt 0.5609 0.3299
vt 0.7429 0.3896
vt 0.7435 0.4041
vt 0.5615 0.3444
vt 0.7393 0.4431
vt 0.6760 0.2611
vt 0.6802 0.2595
vt 0.7435 0.4415
vt 0.5091 0.4224
vt 0.6776 0.3464
vt 0.6793 0.3604
vt 0.5107 0.4363
vt 0.6751 0.2570
vt 0.5066 0.3068
vt 0.5074 0.3109
vt 0.6760 0.2611
vt 0.7434 0.4432
vt 0.5749 0.4930
vt 0.5740 0.4889
vt 0.7426 0.4391
vt 0.5724 0.4036
vt 0.7409 0.3276
vt 0.7393 0.3137
vt 0.5707 0.3896
vt 0.5538 0.4224
vt 0.5585 0.4252
vt 0.5615 0.3444
vt 0.5568 0.3415
vt 0.6751 0.2656
vt 0.6802 0.2651
vt 0.6827 0.3459
vt 0.6776 0.3464
vt 0.5724 0.4036
vt 0.5673 0.4041
vt 0.5698 0.4849
vt 0.5749 0.4844
vt 0.6932 0.4085
vt 0.6885 0.4056
vt 0.6915 0.3248
vt 0.6962 0.3276
vt 0.6793 0.3604
vt 0.6776 0.3464
vt 0.6827 0.3459
vt 0.6885 0.4056
vt 0.6932 0.4085
vt 0.6891 0.4201
vt 0.6802 0.2595
vt 0.6751 0.2570
vt 0.6760 0.2611
vt 0.6931 0.3137
vt 0.6962 0.3276
vt 0.6915 0.3248
vt 0.5585 0.4252
vt 0.5538 0.4224
vt 0.5569 0.4363
vt 0.5740 0.4889
vt 0.5749 0.4930
vt 0.5698 0.4905
vt 0.5609 0.3299
vt 0.5568 0.3415
vt 0.5615 0.3444
vt 0.5673 0.4041
vt 0.5724 0.4036
vt 0.5707 0.3896
vt 0.9682 0.2610
vt 0.9758 0.3767
vt 0.7649 0.4440
vt 0.7573 0.3283
vt 0.7742 0.3733
vt 0.7818 0.4890
vt 0.9927 0.4217
vt 0.9851 0.3060
vt 0.9766 0.4927
vt 0.9929 0.2775
vt 0.7820 0.2639
vt 0.7657 0.4791
vt 0.9680 0.4861
vt 0.7571 0.4725
vt 0.7734 0.2573
vt 0.9843 0.2709
vt 0.9726 0.3302
vt 0.9785 0.4459
vt 0.7633 0.4894
vt 0.7575 0.3737
vt 0.7715 0.3041
vt 0.7774 0.4198
vt 0.9925 0.3763
vt 0.9867 0.2606
vt 0.9766 0.3852
vt 0.7657 0.4525
vt 0.7649 0.4440
vt 0.9758 0.3767
vt 0.7820 0.2639
vt 0.9929 0.2775
vt 0.9927 0.2734
vt 0.7818 0.2599
vt 0.7571 0.4725
vt 0.9680 0.4861
vt 0.9682 0.4901
vt 0.7573 0.4766
vt 0.9843 0.2975
vt 0.7734 0.3648
vt 0.7742 0.3733
vt 0.9851 0.3060
vt 0.7616 0.4785
vt 0.7779 0.2633
vt 0.7820 0.2639
vt 0.7657 0.4791
vt 0.7575 0.3737
vt 0.9726 0.3302
vt 0.9725 0.3213
vt 0.7573 0.3648
vt 0.7774 0.4198
vt 0.9925 0.3763
vt 0.9927 0.3852
vt 0.7775 0.4287
vt 0.9721 0.4867
vt 0.9884 0.2715
vt 0.9843 0.2709
vt 0.9680 0.4861
vt 0.9785 0.4459
vt 0.9824 0.4440
vt 0.9766 0.3283
vt 0.9726 0.3302
vt 0.7703 0.3737
vt 0.7742 0.3733
vt 0.7818 0.4890
vt 0.7779 0.4894
vt 0.9721 0.2606
vt 0.9682 0.2610
vt 0.9758 0.3767
vt 0.9797 0.3763
vt 0.7774 0.4198
vt 0.7734 0.4217
vt 0.7676 0.3060
vt 0.7715 0.3041
vt 0.7820 0.2639
vt 0.7779 0.2633
vt 0.7818 0.2599
vt 0.7734 0.4217
vt 0.7774 0.4198
vt 0.7775 0.4287
vt 0.7742 0.3733
vt 0.7703 0.3737
vt 0.7734 0.3648
vt 0.9843 0.2709
vt 0.9884 0.2715
vt 0.9851 0.2676
vt 0.7649 0.4824
vt 0.7616 0.4785
vt 0.7657 0.4791
vt 0.9766 0.3852
vt 0.9797 0.3763
vt 0.9758 0.3767
vt 0.9725 0.3213
vt 0.9726 0.3302
vt 0.9766 0.3283
vt 0.9682 0.4901
vt 0.9721 0.4867
vt 0.9680 0.4861
vt 0.9615 0.3736
vt 0.9594 0.4849
vt 0.7584 0.4565
vt 0.7605 0.3453
vt 0.7906 0.2651
vt 0.7885 0.3764
vt 0.9895 0.4047
vt 0.9916 0.2935
vt 0.7606 0.4596
vt 0.9814 0.4889
vt 0.9930 0.2879
vt 0.7722 0.2586
vt 0.7570 0.4621
vt 0.7686 0.2611
vt 0.9894 0.2904
vt 0.9778 0.4914
vt 0.7692 0.3435
vt 0.7721 0.4547
vt 0.9930 0.3768
vt 0.9900 0.2656
vt 0.9779 0.2953
vt 0.9808 0.4065
vt 0.7600 0.4844
vt 0.7570 0.3732
vt 0.7606 0.4596
vt 0.7722 0.2586
vt 0.7686 0.2584
vt 0.7569 0.4594
vt 0.7879 0.3898
vt 0.9889 0.4181
vt 0.9895 0.4047
vt 0.7885 0.3764
vt 0.7611 0.3319
vt 0.9621 0.3602
vt 0.9615 0.3736
vt 0.7605 0.3453
vt 0.9778 0.4914
vt 0.9894 0.2904
vt 0.9931 0.2906
vt 0.9814 0.4916
vt 0.7721 0.4547
vt 0.9930 0.3768
vt 0.9930 0.3898
vt 0.7722 0.4677
vt 0.9900 0.2853
vt 0.7692 0.2561
vt 0.7686 0.2611
vt 0.9894 0.2904
vt 0.9808 0.4939
vt 0.7600 0.4647
vt 0.7606 0.4596
vt 0.9814 0.4889
vt 0.7570 0.3732
vt 0.9779 0.2953
vt 0.9778 0.2823
vt 0.7570 0.3602
vt 0.7721 0.4547
vt 0.7686 0.4565
vt 0.7656 0.3453
vt 0.7692 0.3435
vt 0.7853 0.2656
vt 0.7906 0.2651
vt 0.7885 0.3764
vt 0.7833 0.3768
vt 0.9667 0.3732
vt 0.9615 0.3736
vt 0.9594 0.4849
vt 0.9647 0.4844
vt 0.9808 0.4065
vt 0.9844 0.4047
vt 0.9814 0.2935
vt 0.9779 0.2953
vt 0.7879 0.3898
vt 0.7833 0.3768
vt 0.7885 0.3764
vt 0.9844 0.4047
vt 0.9808 0.4065
vt 0.9814 0.4181
vt 0.9931 0.2906
vt 0.9900 0.2853
vt 0.9894 0.2904
vt 0.9778 0.2823
vt 0.9779 0.2953
vt 0.9814 0.2935
vt 0.7686 0.4565
vt 0.7721 0.4547
vt 0.7722 0.4677
vt 0.7606 0.4596
vt 0.7600 0.4647
vt 0.7569 0.4594
vt 0.7686 0.3319
vt 0.7692 0.3435
vt 0.7656 0.3453
vt 0.9615 0.3736
vt 0.9667 0.3732
vt 0.9621 0.3602
vt 0.6455 0.2772
vt 0.6386 0.3854
vt 0.5069 0.3732
vt 0.5138 0.2650
vt 0.6114 0.3646
vt 0.6045 0.4728
vt 0.7362 0.4850
vt 0.7431 0.3768
vt 0.6407 0.4918
vt 0.7323 0.3313
vt 0.6006 0.2684
vt 0.5090 0.4289
vt 0.6494 0.4816
vt 0.5177 0.4187
vt 0.6093 0.2582
vt 0.7410 0.3211
vt 0.6669 0.2675
vt 0.6750 0.3757
vt 0.5145 0.4692
vt 0.5064 0.3610
vt 0.5750 0.3743
vt 0.5831 0.4825
vt 0.7436 0.3890
vt 0.7355 0.2808
vt 0.6407 0.4025
vt 0.5090 0.3903
vt 0.5069 0.3732
vt 0.6386 0.3854
vt 0.6006 0.2684
vt 0.7323 0.3313
vt 0.7362 0.3249
vt 0.6045 0.2620
vt 0.5177 0.4187
vt 0.6494 0.4816
vt 0.6455 0.4880
vt 0.5138 0.4251
vt 0.7410 0.3597
vt 0.6093 0.3475
vt 0.6114 0.3646
vt 0.7431 0.3768
vt 0.6750 0.3757
vt 0.5145 0.4692
vt 0.5184 0.4838
vt 0.6789 0.3903
vt 0.6024 0.2564
vt 0.5109 0.4169
vt 0.5177 0.4187
vt 0.6093 0.2582
vt 0.7391 0.3331
vt 0.6476 0.4936
vt 0.6407 0.4918
vt 0.7323 0.3313
vt 0.7355 0.2808
vt 0.5750 0.3743
vt 0.5711 0.3597
vt 0.7316 0.2662
vt 0.6750 0.3757
vt 0.6831 0.3732
vt 0.6751 0.2650
vt 0.6669 0.2675
vt 0.6024 0.3610
vt 0.6114 0.3646
vt 0.6045 0.4728
vt 0.5956 0.4692
vt 0.6544 0.2808
vt 0.6455 0.2772
vt 0.6386 0.3854
vt 0.6476 0.3890
vt 0.5831 0.4825
vt 0.5749 0.4850
vt 0.5669 0.3768
vt 0.5750 0.3743
vt 0.6006 0.4838
vt 0.5956 0.4692
vt 0.6045 0.4728
vt 0.7362 0.3249
vt 0.7391 0.3331
vt 0.7323 0.3313
vt 0.6114 0.3646
vt 0.6024 0.3610
vt 0.6093 0.3475
vt 0.5711 0.3597
vt 0.5750 0.3743
vt 0.5669 0.3768
vt 0.6831 0.3732
vt 0.6750 0.3757
vt 0.6789 0.3903
vt 0.6407 0.4025
vt 0.6476 0.3890
vt 0.6386 0.3854
vt 0.5177 0.4187
vt 0.5109 0.4169
vt 0.5138 0.4251
vt 0.6455 0.2772
vt 0.6544 0.2808
vt 0.6494 0.2662
vt 0.9713 0.3315
vt 0.9755 0.4003
vt 0.7613 0.4880
vt 0.7571 0.4192
vt 0.7745 0.3497
vt 0.7787 0.4185
vt 0.9929 0.3308
vt 0.9887 0.2620
vt 0.7634 0.4764
vt 0.9565 0.4931
vt 0.9922 0.2789
vt 0.7992 0.2623
vt 0.7578 0.4711
vt 0.7935 0.2569
vt 0.9866 0.2736
vt 0.9508 0.4877
vt 0.7947 0.4191
vt 0.7991 0.4879
vt 0.9922 0.4214
vt 0.9878 0.3526
vt 0.9509 0.2621
vt 0.9553 0.3309
vt 0.7622 0.3974
vt 0.7578 0.3286
vt 0.7634 0.4764
vt 0.7992 0.2623
vt 0.7941 0.2613
vt 0.7584 0.4755
vt 0.7789 0.4295
vt 0.9931 0.3419
vt 0.9929 0.3308
vt 0.7787 0.4185
vt 0.7569 0.4081
vt 0.9711 0.3205
vt 0.9713 0.3315
vt 0.7571 0.4192
vt 0.9508 0.4877
vt 0.9866 0.2736
vt 0.9916 0.2745
vt 0.9559 0.4887
vt 0.7991 0.2582
vt 0.9922 0.2748
vt 0.9922 0.2789
vt 0.7992 0.2623
vt 0.9878 0.3526
vt 0.7947 0.4191
vt 0.7935 0.4081
vt 0.9866 0.3416
vt 0.9553 0.3309
vt 0.7622 0.3974
vt 0.7634 0.4084
vt 0.9565 0.3419
vt 0.7578 0.4752
vt 0.9509 0.4918
vt 0.9508 0.4877
vt 0.7578 0.4711
vt 0.7991 0.4879
vt 0.7941 0.4880
vt 0.7897 0.4192
vt 0.7947 0.4191
vt 0.7706 0.3526
vt 0.7745 0.3497
vt 0.7787 0.4185
vt 0.7748 0.4214
vt 0.9752 0.3286
vt 0.9713 0.3315
vt 0.9755 0.4003
vt 0.9794 0.3974
vt 0.9553 0.3309
vt 0.9603 0.3308
vt 0.9559 0.2620
vt 0.9509 0.2621
vt 0.7789 0.4295
vt 0.7748 0.4214
vt 0.7787 0.4185
vt 0.9603 0.3308
vt 0.9553 0.3309
vt 0.9565 0.3419
vt 0.9916 0.3497
vt 0.9878 0.3526
vt 0.9866 0.3416
vt 0.9508 0.4877
vt 0.9509 0.4918
vt 0.9559 0.4887
vt 0.7941 0.2613
vt 0.7991 0.2582
vt 0.7992 0.2623
vt 0.7634 0.4084
vt 0.7622 0.3974
vt 0.7584 0.4003
vt 0.7935 0.4081
vt 0.7947 0.4191
vt 0.7897 0.4192
vt 0.9713 0.3315
vt 0.9752 0.3286
vt 0.9711 0.3205
vt 0.7577 0.3293
vt 0.7597 0.3959
vt 0.8763 0.3392
vt 0.8742 0.2726
vt 0.9903 0.3541
vt 0.9923 0.4207
vt 0.8758 0.4774
vt 0.8737 0.4108
vt 0.7622 0.2809
vt 0.8746 0.4909
vt 0.9911 0.4671
vt 0.8788 0.2571
vt 0.7589 0.2829
vt 0.8754 0.2591
vt 0.9878 0.4691
vt 0.8712 0.4929
vt 0.7576 0.2713
vt 0.7563 0.3378
vt 0.9663 0.4167
vt 0.9676 0.3501
vt 0.9937 0.4122
vt 0.9924 0.4787
vt 0.7824 0.3999
vt 0.7837 0.3333
vt 0.7622 0.4171
vt 0.8788 0.3604
vt 0.8763 0.3392
vt 0.7597 0.3959
vt 0.9911 0.4671
vt 0.8746 0.4909
vt 0.8758 0.4947
vt 0.9923 0.4709
vt 0.8754 0.2591
vt 0.7589 0.2829
vt 0.7577 0.2791
vt 0.8742 0.2553
vt 0.8712 0.3896
vt 0.9878 0.3329
vt 0.9903 0.3541
vt 0.8737 0.4108
vt 0.7563 0.3378
vt 0.9663 0.4167
vt 0.9671 0.4393
vt 0.7571 0.3604
vt 0.9939 0.4676
vt 0.8816 0.2576
vt 0.8754 0.2591
vt 0.9878 0.4691
vt 0.8684 0.4924
vt 0.7561 0.2824
vt 0.7622 0.2809
vt 0.8746 0.4909
vt 0.7837 0.3333
vt 0.9937 0.4122
vt 0.9929 0.3896
vt 0.7829 0.3107
vt 0.8836 0.3378
vt 0.8763 0.3392
vt 0.8742 0.2726
vt 0.8816 0.2713
vt 0.9676 0.3501
vt 0.9722 0.3541
vt 0.9709 0.4207
vt 0.9663 0.4167
vt 0.7837 0.3333
vt 0.7791 0.3293
vt 0.7778 0.3959
vt 0.7824 0.3999
vt 0.8684 0.4787
vt 0.8758 0.4774
vt 0.8737 0.4108
vt 0.8664 0.4122
vt 0.9671 0.4393
vt 0.9663 0.4167
vt 0.9709 0.4207
vt 0.8758 0.4947
vt 0.8684 0.4924
vt 0.8746 0.4909
vt 0.9722 0.3541
vt 0.9676 0.3501
vt 0.9691 0.3329
vt 0.8712 0.3896
vt 0.8664 0.4122
vt 0.8737 0.4108
vt 0.8763 0.3392
vt 0.8836 0.3378
vt 0.8788 0.3604
vt 0.7809 0.4171
vt 0.7824 0.3999
vt 0.7778 0.3959
vt 0.8754 0.2591
vt 0.8816 0.2576
vt 0.8742 0.2553
vt 0.7791 0.3293
vt 0.7837 0.3333
vt 0.7829 0.3107
vt 0.0918 0.2867
vt 0.0745 0.3648
vt 0.0116 0.3463
vt 0.0289 0.2682
vt 0.4255 0.3852
vt 0.4082 0.4633
vt 0.4711 0.4818
vt 0.4884 0.4037
vt 0.0760 0.4930
vt 0.4627 0.2628
vt 0.3998 0.2570
vt 0.0131 0.4872
vt 0.1002 0.4930
vt 0.0373 0.4872
vt 0.4240 0.2570
vt 0.4869 0.2628
vt 0.4758 0.2659
vt 0.4758 0.3440
vt 0.0076 0.4581
vt 0.0076 0.3800
vt 0.0242 0.4060
vt 0.0242 0.4841
vt 0.4924 0.3700
vt 0.4924 0.2919
vt 0.0760 0.3819
vt 0.0131 0.3634
vt 0.0116 0.3463
vt 0.0745 0.3648
vt 0.3998 0.2570
vt 0.4627 0.2628
vt 0.4711 0.2598
vt 0.4082 0.2540
vt 0.0373 0.4872
vt 0.1002 0.4930
vt 0.0918 0.4960
vt 0.0289 0.4902
vt 0.4869 0.3866
vt 0.4240 0.3681
vt 0.4255 0.3852
vt 0.4884 0.4037
vt 0.4758 0.3440
vt 0.0076 0.4581
vt 0.0100 0.4774
vt 0.4782 0.3634
vt 0.4079 0.2558
vt 0.0213 0.4861
vt 0.0373 0.4872
vt 0.4240 0.2570
vt 0.4787 0.2639
vt 0.0921 0.4942
vt 0.0760 0.4930
vt 0.4627 0.2628
vt 0.4924 0.2919
vt 0.0242 0.4060
vt 0.0218 0.3866
vt 0.4900 0.2726
vt 0.4758 0.3440
vt 0.4842 0.3463
vt 0.4842 0.2682
vt 0.4758 0.2659
vt 0.4079 0.3800
vt 0.4255 0.3852
vt 0.4082 0.4633
vt 0.3907 0.4581
vt 0.1093 0.2919
vt 0.0918 0.2867
vt 0.0745 0.3648
vt 0.0921 0.3700
vt 0.0242 0.4841
vt 0.0158 0.4818
vt 0.0158 0.4037
vt 0.0242 0.4060
vt 0.3998 0.4774
vt 0.3907 0.4581
vt 0.4082 0.4633
vt 0.4711 0.2598
vt 0.4787 0.2639
vt 0.4627 0.2628
vt 0.4255 0.3852
vt 0.4079 0.3800
vt 0.4240 0.3681
vt 0.0218 0.3866
vt 0.0242 0.4060
vt 0.0158 0.4037
vt 0.4842 0.3463
vt 0.4758 0.3440
vt 0.4782 0.3634
vt 0.0760 0.3819
vt 0.0921 0.3700
vt 0.0745 0.3648
vt 0.0373 0.4872
vt 0.0213 0.4861
vt 0.0289 0.4902
vt 0.0918 0.2867
vt 0.1093 0.2919
vt 0.1002 0.2726
vn -0.7315 -0.1311 0.6692
vn -0.7315 -0.1311 0.6692
vn -0.7315 -0.1311 0.6692
vn -0.7315 -0.1311 0.6692
vn 0.7315 0.1311 -0.6692
vn 0.7315 0.1311 -0.6692
vn 0.7315 0.1311 -0.6692
vn 0.7315 0.1311 -0.6692
vn -0.1450 0.9888 0.0352
vn -0.1450 0.9888 0.0352
vn -0.1450 0.9888 0.0352
vn -0.1450 0.9888 0.0352
vn 0.1450 -0.9888 -0.0352
vn 0.1450 -0.9888 -0.0352
vn 0.1450 -0.9888 -0.0352
vn 0.1450 -0.9888 -0.0352
vn -0.6663 -0.0713 -0.7423
vn -0.6663 -0.0713 -0.7423
vn -0.6663 -0.0713 -0.7423
vn -0.6663 -0.0713 -0.7423
vn 0.6663 0.0713 0.7423
vn 0.6663 0.0713 0.7423
vn 0.6663 0.0713 0.7423
vn 0.6663 0.0713 0.7423
vn -0.6198 0.6065 0.4981
vn -0.6198 0.6065 0.4981
vn -0.6198 0.6065 0.4981
vn -0.6198 0.6065 0.4981
vn 0.4147 0.7919 -0.4483
vn 0.4147 0.7919 -0.4483
vn 0.4147 0.7919 -0.4483
vn 0.4147 0.7919 -0.4483
vn -0.4147 -0.7919 0.4483
vn -0.4147 -0.7919 0.4483
vn -0.4147 -0.7919 0.4483
vn -0.4147 -0.7919 0.4483
vn 0.6198 -0.6065 -0.4981
vn 0.6198 -0.6065 -0.4981
vn 0.6198 -0.6065 -0.4981
vn 0.6198 -0.6065 -0.4981
vn 0.5737 -0.6488 0.5000
vn 0.5737 -0.6488 0.5000
vn 0.5737 -0.6488 0.5000
vn 0.5737 -0.6488 0.5000
vn 0.3686 0.7496 0.5497
vn 0.3686 0.7496 0.5497
vn 0.3686 0.7496 0.5497
vn 0.3686 0.7496 0.5497
vn -0.3686 -0.7496 -0.5497
vn -0.3686 -0.7496 -0.5497
vn -0.3686 -0.7496 -0.5497
vn -0.3686 -0.7496 -0.5497
vn -0.5737 0.6488 -0.5000
vn -0.5737 0.6488 -0.5000
vn -0.5737 0.6488 -0.5000
vn -0.5737 0.6488 -0.5000
vn 0.9884 0.1431 0.0517
vn 0.9884 0.1431 0.0517
vn 0.9884 0.1431 0.0517
vn 0.9884 0.1431 0.0517
vn -0.0461 -0.0423 0.9980
vn -0.0461 -0.0423 0.9980
vn -0.0461 -0.0423 0.9980
vn -0.0461 -0.0423 0.9980
vn 0.0461 0.0423 -0.9980
vn 0.0461 0.0423 -0.9980
vn 0.0461 0.0423 -0.9980
vn 0.0461 0.0423 -0.9980
vn -0.9884 -0.1431 -0.0517
vn -0.9884 -0.1431 -0.0517
vn -0.9884 -0.1431 -0.0517
vn -0.9884 -0.1431 -0.0517
vn 0.0461 -0.6054 0.7946
vn 0.0461 -0.6054 0.7946
vn 0.0461 -0.6054 0.7946
vn -0.7233 -0.6877 -0.0625
vn -0.7233 -0.6877 -0.0625
vn -0.7233 -0.6877 -0.0625
vn -0.1213 0.5364 0.8352
vn -0.1213 0.5364 0.8352
vn -0.1213 0.5364 0.8352
vn -0.8907 0.4540 -0.0219
vn -0.8907 0.4540 -0.0219
vn -0.8907 0.4540 -0.0219
vn 0.8907 -0.4540 0.0219
vn 0.8907 -0.4540 0.0219
vn 0.8907 -0.4540 0.0219
vn 0.1213 -0.5364 -0.8352
vn 0.1213 -0.5364 -0.8352
vn 0.1213 -0.5364 -0.8352
vn 0.7233 0.6877 0.0625
vn 0.7233 0.6877 0.0625
vn 0.7233 0.6877 0.0625
vn -0.0461 0.6054 -0.7946
vn -0.0461 0.6054 -0.7946
vn -0.0461 0.6054 -0.7946
vn -0.1067 -0.0320 0.9938
vn -0.1067 -0.0320 0.9938
vn -0.1067 -0.0320 0.9938
vn -0.1067 -0.0320 0.9938
vn 0.1067 0.0320 -0.9938
vn 0.1067 0.0320 -0.9938
vn 0.1067 0.0320 -0.9938
vn 0.1067 0.0320 -0.9938
vn 0.0580 0.9976 0.0383
vn 0.0580 0.9976 0.0383
vn 0.0580 0.9976 0.0383
vn 0.0580 0.9976 0.0383
vn -0.0580 -0.9976 -0.0383
vn -0.0580 -0.9976 -0.0383
vn -0.0580 -0.9976 -0.0383
vn -0.0580 -0.9976 -0.0383
vn -0.9926 0.0617 -0.1046
vn -0.9926 0.0617 -0.1046
vn -0.9926 0.0617 -0.1046
vn -0.9926 0.0617 -0.1046
vn 0.9926 -0.0617 0.1046
vn 0.9926 -0.0617 0.1046
vn 0.9926 -0.0617 0.1046
vn 0.9926 -0.0617 0.1046
vn -0.0345 0.6828 0.7298
vn -0.0345 0.6828 0.7298
vn -0.0345 0.6828 0.7298
vn -0.0345 0.6828 0.7298
vn 0.1165 0.7280 -0.6756
vn 0.1165 0.7280 -0.6756
vn 0.1165 0.7280 -0.6756
vn 0.1165 0.7280 -0.6756
vn -0.1165 -0.7280 0.6756
vn -0.1165 -0.7280 0.6756
vn -0.1165 -0.7280 0.6756
vn -0.1165 -0.7280 0.6756
vn 0.0345 -0.6828 -0.7298
vn 0.0345 -0.6828 -0.7298
vn 0.0345 -0.6828 -0.7298
vn 0.0345 -0.6828 -0.7298
vn 0.6609 -0.7490 0.0469
vn 0.6609 -0.7490 0.0469
vn 0.6609 -0.7490 0.0469
vn 0.6609 -0.7490 0.0469
vn 0.7429 0.6618 0.1011
vn 0.7429 0.6618 0.1011
vn 0.7429 0.6618 0.1011
vn 0.7429 0.6618 0.1011
vn -0.7429 -0.6618 -0.1011
vn -0.7429 -0.6618 -0.1011
vn -0.7429 -0.6618 -0.1011
vn -0.7429 -0.6618 -0.1011
vn -0.6609 0.7490 -0.0469
vn -0.6609 0.7490 -0.0469
vn -0.6609 0.7490 -0.0469
vn -0.6609 0.7490 -0.0469
vn 0.7773 -0.0210 -0.6287
vn 0.7773 -0.0210 -0.6287
vn 0.7773 -0.0210 -0.6287
vn 0.7773 -0.0210 -0.6287
vn 0.6264 -0.0663 0.7767
vn 0.6264 -0.0663 0.7767
vn 0.6264 -0.0663 0.7767
vn 0.6264 -0.0663 0.7767
vn -0.6264 0.0663 -0.7767
vn -0.6264 0.0663 -0.7767
vn -0.6264 0.0663 -0.7767
vn -0.6264 0.0663 -0.7767
vn -0.7773 0.0210 0.6287
vn -0.7773 0.0210 0.6287
vn -0.7773 0.0210 0.6287
vn -0.7773 0.0210 0.6287
vn 0.4780 -0.6301 0.6120
vn 0.4780 -0.6301 0.6120
vn 0.4780 -0.6301 0.6120
vn -0.6682 -0.5588 0.4912
vn -0.6682 -0.5588 0.4912
vn -0.6682 -0.5588 0.4912
vn 0.5449 0.5219 0.6563
vn 0.5449 0.5219 0.6563
vn 0.5449 0.5219 0.6563
vn -0.6012 0.5931 0.5355
vn -0.6012 0.5931 0.5355
vn -0.6012 0.5931 0.5355
vn 0.6012 -0.5931 -0.5355
vn 0.6012 -0.5931 -0.5355
vn 0.6012 -0.5931 -0.5355
vn -0.5449 -0.5219 -0.6563
vn -0.5449 -0.5219 -0.6563
vn -0.5449 -0.5219 -0.6563
vn 0.6682 0.5588 -0.4912
vn 0.6682 0.5588 -0.4912
vn 0.6682 0.5588 -0.4912
vn -0.4780 0.6301 -0.6120
vn -0.4780 0.6301 -0.6120
vn -0.4780 0.6301 -0.6120
vn -0.4738 0.0250 -0.8803
vn -0.4738 0.0250 -0.8803
vn -0.4738 0.0250 -0.8803
vn -0.4738 0.0250 -0.8803
vn 0.4738 -0.0250 0.8803
vn 0.4738 -0.0250 0.8803
vn 0.4738 -0.0250 0.8803
vn 0.4738 -0.0250 0.8803
vn -0.1103 0.9900 0.0875
vn -0.1103 0.9900 0.0875
vn -0.1103 0.9900 0.0875
vn -0.1103 0.9900 0.0875
vn 0.1103 -0.9900 -0.0875
vn 0.1103 -0.9900 -0.0875
vn 0.1103 -0.9900 -0.0875
vn 0.1103 -0.9900 -0.0875
vn 0.8737 0.1385 -0.4663
vn 0.8737 0.1385 -0.4663
vn 0.8737 0.1385 -0.4663
vn 0.8737 0.1385 -0.4663
vn -0.8737 -0.1385 0.4663
vn -0.8737 -0.1385 0.4663
vn -0.8737 -0.1385 0.4663
vn -0.8737 -0.1385 0.4663
vn -0.4130 0.7178 -0.5606
vn -0.4130 0.7178 -0.5606
vn -0.4130 0.7178 -0.5606
vn -0.4130 0.7178 -0.5606
vn 0.2571 0.6824 0.6843
vn 0.2571 0.6824 0.6843
vn 0.2571 0.6824 0.6843
vn 0.2571 0.6824 0.6843
vn -0.2571 -0.6824 -0.6843
vn -0.2571 -0.6824 -0.6843
vn -0.2571 -0.6824 -0.6843
vn -0.2571 -0.6824 -0.6843
vn 0.4130 -0.7178 0.5606
vn 0.4130 -0.7178 0.5606
vn 0.4130 -0.7178 0.5606
vn 0.4130 -0.7178 0.5606
vn -0.5398 -0.7980 0.2679
vn -0.5398 -0.7980 0.2679
vn -0.5398 -0.7980 0.2679
vn -0.5398 -0.7980 0.2679
vn -0.6958 0.6021 0.3916
vn -0.6958 0.6021 0.3916
vn -0.6958 0.6021 0.3916
vn -0.6958 0.6021 0.3916
vn 0.6958 -0.6021 -0.3916
vn 0.6958 -0.6021 -0.3916
vn 0.6958 -0.6021 -0.3916
vn 0.6958 -0.6021 -0.3916
vn 0.5398 0.7980 -0.2679
vn 0.5398 0.7980 -0.2679
vn 0.5398 0.7980 -0.2679
vn 0.5398 0.7980 -0.2679
vn -0.2828 -0.1156 0.9522
vn -0.2828 -0.1156 0.9522
vn -0.2828 -0.1156 0.9522
vn -0.2828 -0.1156 0.9522
vn -0.9528 -0.0802 -0.2927
vn -0.9528 -0.0802 -0.2927
vn -0.9528 -0.0802 -0.2927
vn -0.9528 -0.0802 -0.2927
vn 0.9528 0.0802 0.2927
vn 0.9528 0.0802 0.2927
vn 0.9528 0.0802 0.2927
vn 0.9528 0.0802 0.2927
vn 0.2828 0.1156 -0.9522
vn 0.2828 0.1156 -0.9522
vn 0.2828 0.1156 -0.9522
vn 0.2828 0.1156 -0.9522
vn -0.7143 -0.6371 -0.2895
vn -0.7143 -0.6371 -0.2895
vn -0.7143 -0.6371 -0.2895
vn 0.2945 -0.4772 -0.8280
vn 0.2945 -0.4772 -0.8280
vn 0.2945 -0.4772 -0.8280
vn -0.8416 0.5061 -0.1885
vn -0.8416 0.5061 -0.1885
vn -0.8416 0.5061 -0.1885
vn 0.1672 0.6660 -0.7270
vn 0.1672 0.6660 -0.7270
vn 0.1672 0.6660 -0.7270
vn -0.1672 -0.6660 0.7270
vn -0.1672 -0.6660 0.7270
vn -0.1672 -0.6660 0.7270
vn 0.8416 -0.5061 0.1885
vn 0.8416 -0.5061 0.1885
vn 0.8416 -0.5061 0.1885
vn -0.2945 0.4772 0.8280
vn -0.2945 0.4772 0.8280
vn -0.2945 0.4772 0.8280
vn 0.7143 0.6371 0.2895
vn 0.7143 0.6371 0.2895
vn 0.7143 0.6371 0.2895
vn -0.9457 0.1321 0.2969
vn -0.9457 0.1321 0.2969
vn -0.9457 0.1321 0.2969
vn -0.9457 0.1321 0.2969
vn 0.9457 -0.1321 -0.2969
vn 0.9457 -0.1321 -0.2969
vn 0.9457 -0.1321 -0.2969
vn 0.9457 -0.1321 -0.2969
vn 0.0981 0.9871 -0.1265
vn 0.0981 0.9871 -0.1265
vn 0.0981 0.9871 -0.1265
vn 0.0981 0.9871 -0.1265
vn -0.0981 -0.9871 0.1265
vn -0.0981 -0.9871 0.1265
vn -0.0981 -0.9871 0.1265
vn -0.0981 -0.9871 0.1265
vn -0.3098 -0.0905 -0.9465
vn -0.3098 -0.0905 -0.9465
vn -0.3098 -0.0905 -0.9465
vn -0.3098 -0.0905 -0.9465
vn 0.3098 0.0905 0.9465
vn 0.3098 0.0905 0.9465
vn 0.3098 0.0905 0.9465
vn 0.3098 0.0905 0.9465
vn -0.5993 0.7914 0.1205
vn -0.5993 0.7914 0.1205
vn -0.5993 0.7914 0.1205
vn -0.5993 0.7914 0.1205
vn 0.7381 0.6046 -0.2995
vn 0.7381 0.6046 -0.2995
vn 0.7381 0.6046 -0.2995
vn 0.7381 0.6046 -0.2995
vn -0.7381 -0.6046 0.2995
vn -0.7381 -0.6046 0.2995
vn -0.7381 -0.6046 0.2995
vn -0.7381 -0.6046 0.2995
vn 0.5993 -0.7914 -0.1205
vn 0.5993 -0.7914 -0.1205
vn 0.5993 -0.7914 -0.1205
vn 0.5993 -0.7914 -0.1205
vn 0.1497 -0.6340 0.7587
vn 0.1497 -0.6340 0.7587
vn 0.1497 -0.6340 0.7587
vn 0.1497 -0.6340 0.7587
vn 0.2885 0.7620 0.5798
vn 0.2885 0.7620 0.5798
vn 0.2885 0.7620 0.5798
vn 0.2885 0.7620 0.5798
vn -0.2885 -0.7620 -0.5798
vn -0.2885 -0.7620 -0.5798
vn -0.2885 -0.7620 -0.5798
vn -0.2885 -0.7620 -0.5798
vn -0.1497 0.6340 -0.7587
vn -0.1497 0.6340 -0.7587
vn -0.1497 0.6340 -0.7587
vn -0.1497 0.6340 -0.7587
vn 0.8878 -0.0294 0.4593
vn 0.8878 -0.0294 0.4593
vn 0.8878 -0.0294 0.4593
vn 0.8878 -0.0294 0.4593
vn -0.4496 0.1574 0.8792
vn -0.4496 0.1574 0.8792
vn -0.4496 0.1574 0.8792
vn -0.4496 0.1574 0.8792
vn 0.4496 -0.1574 -0.8792
vn 0.4496 -0.1574 -0.8792
vn 0.4496 -0.1574 -0.8792
vn 0.4496 -0.1574 -0.8792
vn -0.8878 0.0294 -0.4593
vn -0.8878 0.0294 -0.4593
vn -0.8878 0.0294 -0.4593
vn -0.8878 0.0294 -0.4593
vn -0.4238 -0.4414 0.7909
vn -0.4238 -0.4414 0.7909
vn -0.4238 -0.4414 0.7909
vn -0.7816 -0.5459 -0.3019
vn -0.7816 -0.5459 -0.3019
vn -0.7816 -0.5459 -0.3019
vn -0.3105 0.6984 0.6448
vn -0.3105 0.6984 0.6448
vn -0.3105 0.6984 0.6448
vn -0.6682 0.5939 -0.4481
vn -0.6682 0.5939 -0.4481
vn -0.6682 0.5939 -0.4481
vn 0.6682 -0.5939 0.4481
vn 0.6682 -0.5939 0.4481
vn 0.6682 -0.5939 0.4481
vn 0.3105 -0.6984 -0.6448
vn 0.3105 -0.6984 -0.6448
vn 0.3105 -0.6984 -0.6448
vn 0.7816 0.5459 0.3019
vn 0.7816 0.5459 0.3019
vn 0.7816 0.5459 0.3019
vn 0.4238 0.4414 -0.7909
vn 0.4238 0.4414 -0.7909
vn 0.4238 0.4414 -0.7909
vn -0.0767 -0.0952 0.9925
vn -0.0767 -0.0952 0.9925
vn -0.0767 -0.0952 0.9925
vn -0.0767 -0.0952 0.9925
vn 0.0767 0.0952 -0.9925
vn 0.0767 0.0952 -0.9925
vn 0.0767 0.0952 -0.9925
vn 0.0767 0.0952 -0.9925
vn 0.1392 0.9847 0.1052
vn 0.1392 0.9847 0.1052
vn 0.1392 0.9847 0.1052
vn 0.1392 0.9847 0.1052
vn -0.1392 -0.9847 -0.1052
vn -0.1392 -0.9847 -0.1052
vn -0.1392 -0.9847 -0.1052
vn -0.1392 -0.9847 -0.1052
vn -0.9873 0.1462 -0.0623
vn -0.9873 0.1462 -0.0623
vn -0.9873 0.1462 -0.0623
vn -0.9873 0.1462 -0.0623
vn 0.9873 -0.1462 0.0623
vn 0.9873 -0.1462 0.0623
vn 0.9873 -0.1462 0.0623
vn 0.9873 -0.1462 0.0623
vn 0.0442 0.6290 0.7762
vn 0.0442 0.6290 0.7762
vn 0.0442 0.6290 0.7762
vn 0.0442 0.6290 0.7762
vn 0.1527 0.7636 -0.6274
vn 0.1527 0.7636 -0.6274
vn 0.1527 0.7636 -0.6274
vn 0.1527 0.7636 -0.6274
vn -0.1527 -0.7636 0.6274
vn -0.1527 -0.7636 0.6274
vn -0.1527 -0.7636 0.6274
vn -0.1527 -0.7636 0.6274
vn -0.0442 -0.6290 -0.7762
vn -0.0442 -0.6290 -0.7762
vn -0.0442 -0.6290 -0.7762
vn -0.0442 -0.6290 -0.7762
vn 0.5997 -0.7997 -0.0303
vn 0.5997 -0.7997 -0.0303
vn 0.5997 -0.7997 -0.0303
vn 0.5997 -0.7997 -0.0303
vn 0.7966 0.5929 0.1184
vn 0.7966 0.5929 0.1184
vn 0.7966 0.5929 0.1184
vn 0.7966 0.5929 0.1184
vn -0.7966 -0.5929 -0.1184
vn -0.7966 -0.5929 -0.1184
vn -0.7966 -0.5929 -0.1184
vn -0.7966 -0.5929 -0.1184
vn -0.5997 0.7997 0.0303
vn -0.5997 0.7997 0.0303
vn -0.5997 0.7997 0.0303
vn -0.5997 0.7997 0.0303
vn 0.7524 -0.0361 -0.6577
vn 0.7524 -0.0361 -0.6577
vn 0.7524 -0.0361 -0.6577
vn 0.7524 -0.0361 -0.6577
vn 0.6439 -0.1707 0.7459
vn 0.6439 -0.1707 0.7459
vn 0.6439 -0.1707 0.7459
vn 0.6439 -0.1707 0.7459
vn -0.6439 0.1707 -0.7459
vn -0.6439 0.1707 -0.7459
vn -0.6439 0.1707 -0.7459
vn -0.6439 0.1707 -0.7459
vn -0.7524 0.0361 0.6577
vn -0.7524 0.0361 0.6577
vn -0.7524 0.0361 0.6577
vn -0.7524 0.0361 0.6577
vn 0.4453 -0.7079 0.5483
vn 0.4453 -0.7079 0.5483
vn 0.4453 -0.7079 0.5483
vn -0.6947 -0.5390 0.4763
vn -0.6947 -0.5390 0.4763
vn -0.6947 -0.5390 0.4763
vn 0.6061 0.4291 0.6697
vn 0.6061 0.4291 0.6697
vn 0.6061 0.4291 0.6697
vn -0.5339 0.5980 0.5978
vn -0.5339 0.5980 0.5978
vn -0.5339 0.5980 0.5978
vn 0.5339 -0.5980 -0.5978
vn 0.5339 -0.5980 -0.5978
vn 0.5339 -0.5980 -0.5978
vn -0.6061 -0.4291 -0.6697
vn -0.6061 -0.4291 -0.6697
vn -0.6061 -0.4291 -0.6697
vn 0.6947 0.5390 -0.4763
vn 0.6947 0.5390 -0.4763
vn 0.6947 0.5390 -0.4763
vn -0.4453 0.7079 -0.5483
vn -0.4453 0.7079 -0.5483
vn -0.4453 0.7079 -0.5483
vn -0.9916 0.0938 -0.0893
vn -0.9916 0.0938 -0.0893
vn -0.9916 0.0938 -0.0893
vn -0.9916 0.0938 -0.0893
vn 0.9916 -0.0938 0.0893
vn 0.9916 -0.0938 0.0893
vn 0.9916 -0.0938 0.0893
vn 0.9916 -0.0938 0.0893
vn 0.0982 0.9941 -0.0469
vn 0.0982 0.9941 -0.0469
vn 0.0982 0.9941 -0.0469
vn 0.0982 0.9941 -0.0469
vn -0.0982 -0.9941 0.0469
vn -0.0982 -0.9941 0.0469
vn -0.0982 -0.9941 0.0469
vn -0.0982 -0.9941 0.0469
vn 0.0844 -0.0553 -0.9949
vn 0.0844 -0.0553 -0.9949
vn 0.0844 -0.0553 -0.9949
vn 0.0844 -0.0553 -0.9949
vn -0.0844 0.0553 0.9949
vn -0.0844 0.0553 0.9949
vn -0.0844 0.0553 0.9949
vn -0.0844 0.0553 0.9949
vn -0.6317 0.7692 -0.0964
vn -0.6317 0.7692 -0.0964
vn -0.6317 0.7692 -0.0964
vn -0.6317 0.7692 -0.0964
vn 0.7706 0.6366 0.0300
vn 0.7706 0.6366 0.0300
vn 0.7706 0.6366 0.0300
vn 0.7706 0.6366 0.0300
vn -0.7706 -0.6366 -0.0300
vn -0.7706 -0.6366 -0.0300
vn -0.7706 -0.6366 -0.0300
vn -0.7706 -0.6366 -0.0300
vn 0.6317 -0.7692 0.0964
vn 0.6317 -0.7692 0.0964
vn 0.6317 -0.7692 0.0964
vn 0.6317 -0.7692 0.0964
vn -0.1292 -0.6638 0.7367
vn -0.1292 -0.6638 0.7367
vn -0.1292 -0.6638 0.7367
vn -0.1292 -0.6638 0.7367
vn 0.0098 0.7420 0.6703
vn 0.0098 0.7420 0.6703
vn 0.0098 0.7420 0.6703
vn 0.0098 0.7420 0.6703
vn -0.0098 -0.7420 -0.6703
vn -0.0098 -0.7420 -0.6703
vn -0.0098 -0.7420 -0.6703
vn -0.0098 -0.7420 -0.6703
vn 0.1292 0.6638 -0.7367
vn 0.1292 0.6638 -0.7367
vn 0.1292 0.6638 -0.7367
vn 0.1292 0.6638 -0.7367
vn 0.6415 -0.0272 0.7667
vn 0.6415 -0.0272 0.7667
vn 0.6415 -0.0272 0.7667
vn 0.6415 -0.0272 0.7667
vn -0.7608 0.1054 0.6403
vn -0.7608 0.1054 0.6403
vn -0.7608 0.1054 0.6403
vn -0.7608 0.1054 0.6403
vn 0.7608 -0.1054 -0.6403
vn 0.7608 -0.1054 -0.6403
vn 0.7608 -0.1054 -0.6403
vn 0.7608 -0.1054 -0.6403
vn -0.6415 0.0272 -0.7667
vn -0.6415 0.0272 -0.7667
vn -0.6415 0.0272 -0.7667
vn -0.6415 0.0272 -0.7667
vn -0.6779 -0.4878 0.5499
vn -0.6779 -0.4878 0.5499
vn -0.6779 -0.4878 0.5499
vn -0.5805 -0.5517 -0.5989
vn -0.5805 -0.5517 -0.5989
vn -0.5805 -0.5517 -0.5989
vn -0.5645 0.6600 0.4957
vn -0.5645 0.6600 0.4957
vn -0.5645 0.6600 0.4957
vn -0.4670 0.5961 -0.6531
vn -0.4670 0.5961 -0.6531
vn -0.4670 0.5961 -0.6531
vn 0.4670 -0.5961 0.6531
vn 0.4670 -0.5961 0.6531
vn 0.4670 -0.5961 0.6531
vn 0.5645 -0.6600 -0.4957
vn 0.5645 -0.6600 -0.4957
vn 0.5645 -0.6600 -0.4957
vn 0.5805 0.5517 0.5989
vn 0.5805 0.5517 0.5989
vn 0.5805 0.5517 0.5989
vn 0.6779 0.4878 -0.5499
vn 0.6779 0.4878 -0.5499
vn 0.6779 0.4878 -0.5499
vn -0.4485 -0.2136 0.8679
vn -0.4485 -0.2136 0.8679
vn -0.4485 -0.2136 0.8679
vn -0.4485 -0.2136 0.8679
vn 0.4485 0.2136 -0.8679
vn 0.4485 0.2136 -0.8679
vn 0.4485 0.2136 -0.8679
vn 0.4485 0.2136 -0.8679
vn -0.1327 0.9762 0.1717
vn -0.1327 0.9762 0.1717
vn -0.1327 0.9762 0.1717
vn -0.1327 0.9762 0.1717
vn 0.1327 -0.9762 -0.1717
vn 0.1327 -0.9762 -0.1717
vn 0.1327 -0.9762 -0.1717
vn 0.1327 -0.9762 -0.1717
vn -0.8839 -0.0382 -0.4661
vn -0.8839 -0.0382 -0.4661
vn -0.8839 -0.0382 -0.4661
vn -0.8839 -0.0382 -0.4661
vn 0.8839 0.0382 0.4661
vn 0.8839 0.0382 0.4661
vn 0.8839 0.0382 0.4661
vn 0.8839 0.0382 0.4661
vn -0.4110 0.5392 0.7351
vn -0.4110 0.5392 0.7351
vn -0.4110 0.5392 0.7351
vn -0.4110 0.5392 0.7351
vn 0.2233 0.8413 -0.4923
vn 0.2233 0.8413 -0.4923
vn 0.2233 0.8413 -0.4923
vn 0.2233 0.8413 -0.4923
vn -0.2233 -0.8413 0.4923
vn -0.2233 -0.8413 0.4923
vn -0.2233 -0.8413 0.4923
vn -0.2233 -0.8413 0.4923
vn 0.4110 -0.5392 -0.7351
vn 0.4110 -0.5392 -0.7351
vn 0.4110 -0.5392 -0.7351
vn 0.4110 -0.5392 -0.7351
vn 0.7189 -0.6632 0.2082
vn 0.7189 -0.6632 0.2082
vn 0.7189 -0.6632 0.2082
vn 0.7189 -0.6632 0.2082
vn 0.5312 0.7173 0.4510
vn 0.5312 0.7173 0.4510
vn 0.5312 0.7173 0.4510
vn 0.5312 0.7173 0.4510
vn -0.5312 -0.7173 -0.4510
vn -0.5312 -0.7173 -0.4510
vn -0.5312 -0.7173 -0.4510
vn -0.5312 -0.7173 -0.4510
vn -0.7189 0.6632 -0.2082
vn -0.7189 0.6632 -0.2082
vn -0.7189 0.6632 -0.2082
vn -0.7189 0.6632 -0.2082
vn 0.9421 0.1781 -0.2841
vn 0.9421 0.1781 -0.2841
vn 0.9421 0.1781 -0.2841
vn 0.9421 0.1781 -0.2841
vn 0.3079 -0.1240 0.9433
vn 0.3079 -0.1240 0.9433
vn 0.3079 -0.1240 0.9433
vn 0.3079 -0.1240 0.9433
vn -0.3079 0.1240 -0.9433
vn -0.3079 0.1240 -0.9433
vn -0.3079 0.1240 -0.9433
vn -0.3079 0.1240 -0.9433
vn -0.9421 -0.1781 0.2841
vn -0.9421 -0.1781 0.2841
vn -0.9421 -0.1781 0.2841
vn -0.9421 -0.1781 0.2841
vn 0.3280 -0.6649 0.6711
vn 0.3280 -0.6649 0.6711
vn 0.3280 -0.6649 0.6711
vn -0.6926 -0.7090 0.1328
vn -0.6926 -0.7090 0.1328
vn -0.6926 -0.7090 0.1328
vn 0.1748 0.4623 0.8693
vn 0.1748 0.4623 0.8693
vn 0.1748 0.4623 0.8693
vn -0.8459 0.4182 0.3311
vn -0.8459 0.4182 0.3311
vn -0.8459 0.4182 0.3311
vn 0.8459 -0.4182 -0.3311
vn 0.8459 -0.4182 -0.3311
vn 0.8459 -0.4182 -0.3311
vn -0.1748 -0.4623 -0.8693
vn -0.1748 -0.4623 -0.8693
vn -0.1748 -0.4623 -0.8693
vn 0.6926 0.7090 -0.1328
vn 0.6926 0.7090 -0.1328
vn 0.6926 0.7090 -0.1328
vn -0.3280 0.6649 -0.6711
vn -0.3280 0.6649 -0.6711
vn -0.3280 0.6649 -0.6711
vn -0.9821 0.1552 -0.1068
vn -0.9821 0.1552 -0.1068
vn -0.9821 0.1552 -0.1068
vn -0.9821 0.1552 -0.1068
vn 0.9821 -0.1552 0.1068
vn 0.9821 -0.1552 0.1068
vn 0.9821 -0.1552 0.1068
vn 0.9821 -0.1552 0.1068
vn 0.1366 0.9770 0.1636
vn 0.1366 0.9770 0.1636
vn 0.1366 0.9770 0.1636
vn 0.1366 0.9770 0.1636
vn -0.1366 -0.9770 -0.1636
vn -0.1366 -0.9770 -0.1636
vn -0.1366 -0.9770 -0.1636
vn -0.1366 -0.9770 -0.1636
vn 0.1297 0.1461 -0.9807
vn 0.1297 0.1461 -0.9807
vn 0.1297 0.1461 -0.9807
vn 0.1297 0.1461 -0.9807
vn -0.1297 -0.1461 0.9807
vn -0.1297 -0.1461 0.9807
vn -0.1297 -0.1461 0.9807
vn -0.1297 -0.1461 0.9807
vn -0.5978 0.8006 0.0402
vn -0.5978 0.8006 0.0402
vn -0.5978 0.8006 0.0402
vn -0.5978 0.8006 0.0402
vn 0.7910 0.5811 0.1912
vn 0.7910 0.5811 0.1912
vn 0.7910 0.5811 0.1912
vn 0.7910 0.5811 0.1912
vn -0.7910 -0.5811 -0.1912
vn -0.7910 -0.5811 -0.1912
vn -0.7910 -0.5811 -0.1912
vn -0.7910 -0.5811 -0.1912
vn 0.5978 -0.8006 -0.0402
vn 0.5978 -0.8006 -0.0402
vn 0.5978 -0.8006 -0.0402
vn 0.5978 -0.8006 -0.0402
vn -0.1883 -0.7942 0.5778
vn -0.1883 -0.7942 0.5778
vn -0.1883 -0.7942 0.5778
vn -0.1883 -0.7942 0.5778
vn 0.0049 0.5875 0.8092
vn 0.0049 0.5875 0.8092
vn 0.0049 0.5875 0.8092
vn 0.0049 0.5875 0.8092
vn -0.0049 -0.5875 -0.8092
vn -0.0049 -0.5875 -0.8092
vn -0.0049 -0.5875 -0.8092
vn -0.0049 -0.5875 -0.8092
vn 0.1883 0.7942 -0.5778
vn 0.1883 0.7942 -0.5778
vn 0.1883 0.7942 -0.5778
vn 0.1883 0.7942 -0.5778
vn 0.6027 -0.2131 0.7690
vn 0.6027 -0.2131 0.7690
vn 0.6027 -0.2131 0.7690
vn 0.6027 -0.2131 0.7690
vn -0.7862 0.0064 0.6180
vn -0.7862 0.0064 0.6180
vn -0.7862 0.0064 0.6180
vn -0.7862 0.0064 0.6180
vn 0.7862 -0.0064 -0.6180
vn 0.7862 -0.0064 -0.6180
vn 0.7862 -0.0064 -0.6180
vn 0.7862 -0.0064 -0.6180
vn -0.6027 0.2131 -0.7690
vn -0.6027 0.2131 -0.7690
vn -0.6027 0.2131 -0.7690
vn -0.6027 0.2131 -0.7690
vn -0.7208 -0.5588 0.4101
vn -0.7208 -0.5588 0.4101
vn -0.7208 -0.5588 0.4101
vn -0.5710 -0.3901 -0.7223
vn -0.5710 -0.3901 -0.7223
vn -0.5710 -0.3901 -0.7223
vn -0.5630 0.5693 0.5990
vn -0.5630 0.5693 0.5990
vn -0.5630 0.5693 0.5990
vn -0.4132 0.7380 -0.5334
vn -0.4132 0.7380 -0.5334
vn -0.4132 0.7380 -0.5334
vn 0.4132 -0.7380 0.5334
vn 0.4132 -0.7380 0.5334
vn 0.4132 -0.7380 0.5334
vn 0.5630 -0.5693 -0.5990
vn 0.5630 -0.5693 -0.5990
vn 0.5630 -0.5693 -0.5990
vn 0.5710 0.3901 0.7223
vn 0.5710 0.3901 0.7223
vn 0.5710 0.3901 0.7223
vn 0.7208 0.5588 -0.4101
vn 0.7208 0.5588 -0.4101
vn 0.7208 0.5588 -0.4101
vn -0.3175 -0.0647 -0.9461
vn -0.3175 -0.0647 -0.9461
vn -0.3175 -0.0647 -0.9461
vn -0.3175 -0.0647 -0.9461
vn 0.3175 0.0647 0.9461
vn 0.3175 0.0647 0.9461
vn 0.3175 0.0647 0.9461
vn 0.3175 0.0647 0.9461
vn 0.1061 0.9890 -0.1032
vn 0.1061 0.9890 -0.1032
vn 0.1061 0.9890 -0.1032
vn 0.1061 0.9890 -0.1032
vn -0.1061 -0.9890 0.1032
vn -0.1061 -0.9890 0.1032
vn -0.1061 -0.9890 0.1032
vn -0.1061 -0.9890 0.1032
vn 0.9423 -0.1332 -0.3071
vn 0.9423 -0.1332 -0.3071
vn 0.9423 -0.1332 -0.3071
vn 0.9423 -0.1332 -0.3071
vn -0.9423 0.1332 0.3071
vn -0.9423 0.1332 0.3071
vn -0.9423 0.1332 0.3071
vn -0.9423 0.1332 0.3071
vn -0.1494 0.6536 -0.7420
vn -0.1494 0.6536 -0.7420
vn -0.1494 0.6536 -0.7420
vn -0.1494 0.6536 -0.7420
vn 0.2995 0.7451 0.5960
vn 0.2995 0.7451 0.5960
vn 0.2995 0.7451 0.5960
vn 0.2995 0.7451 0.5960
vn -0.2995 -0.7451 -0.5960
vn -0.2995 -0.7451 -0.5960
vn -0.2995 -0.7451 -0.5960
vn -0.2995 -0.7451 -0.5960
vn 0.1494 -0.6536 0.7420
vn 0.1494 -0.6536 0.7420
vn 0.1494 -0.6536 0.7420
vn 0.1494 -0.6536 0.7420
vn -0.7414 -0.6052 0.2901
vn -0.7414 -0.6052 0.2901
vn -0.7414 -0.6052 0.2901
vn -0.7414 -0.6052 0.2901
vn -0.5913 0.7935 0.1441
vn -0.5913 0.7935 0.1441
vn -0.5913 0.7935 0.1441
vn -0.5913 0.7935 0.1441
vn 0.5913 -0.7935 -0.1441
vn 0.5913 -0.7935 -0.1441
vn 0.5913 -0.7935 -0.1441
vn 0.5913 -0.7935 -0.1441
vn 0.7414 0.6052 -0.2901
vn 0.7414 0.6052 -0.2901
vn 0.7414 0.6052 -0.2901
vn 0.7414 0.6052 -0.2901
vn -0.4418 0.1399 0.8861
vn -0.4418 0.1399 0.8861
vn -0.4418 0.1399 0.8861
vn -0.4418 0.1399 0.8861
vn -0.8908 0.0484 -0.4518
vn -0.8908 0.0484 -0.4518
vn -0.8908 0.0484 -0.4518
vn -0.8908 0.0484 -0.4518
vn 0.8908 -0.0484 0.4518
vn 0.8908 -0.0484 0.4518
vn 0.8908 -0.0484 0.4518
vn 0.8908 -0.0484 0.4518
vn 0.4418 -0.1399 -0.8861
vn 0.4418 -0.1399 -0.8861
vn 0.4418 -0.1399 -0.8861
vn 0.4418 -0.1399 -0.8861
vn -0.7886 -0.5315 -0.3093
vn -0.7886 -0.5315 -0.3093
vn -0.7886 -0.5315 -0.3093
vn 0.2995 -0.6852 -0.6639
vn 0.2995 -0.6852 -0.6639
vn 0.2995 -0.6852 -0.6639
vn -0.6661 0.6105 -0.4285
vn -0.6661 0.6105 -0.4285
vn -0.6661 0.6105 -0.4285
vn 0.4220 0.4568 -0.7831
vn 0.4220 0.4568 -0.7831
vn 0.4220 0.4568 -0.7831
vn -0.4220 -0.4568 0.7831
vn -0.4220 -0.4568 0.7831
vn -0.4220 -0.4568 0.7831
vn 0.6661 -0.6105 0.4285
vn 0.6661 -0.6105 0.4285
vn 0.6661 -0.6105 0.4285
vn -0.2995 0.6852 0.6639
vn -0.2995 0.6852 0.6639
vn -0.2995 0.6852 0.6639
vn 0.7886 0.5315 0.3093
vn 0.7886 0.5315 0.3093
vn 0.7886 0.5315 0.3093
vn -0.3551 -0.0907 0.9304
vn -0.3551 -0.0907 0.9304
vn -0.3551 -0.0907 0.9304
vn -0.3551 -0.0907 0.9304
vn 0.3551 0.0907 -0.9304
vn 0.3551 0.0907 -0.9304
vn 0.3551 0.0907 -0.9304
vn 0.3551 0.0907 -0.9304
vn -0.2474 0.9689 0.0000
vn -0.2474 0.9689 0.0000
vn -0.2474 0.9689 0.0000
vn -0.2474 0.9689 0.0000
vn 0.2474 -0.9689 -0.0000
vn 0.2474 -0.9689 -0.0000
vn 0.2474 -0.9689 -0.0000
vn 0.2474 -0.9689 -0.0000
vn -0.9015 -0.2302 -0.3665
vn -0.9015 -0.2302 -0.3665
vn -0.9015 -0.2302 -0.3665
vn -0.9015 -0.2302 -0.3665
vn 0.9015 0.2302 0.3665
vn 0.9015 0.2302 0.3665
vn 0.9015 0.2302 0.3665
vn 0.9015 0.2302 0.3665
vn -0.4261 0.6210 0.6579
vn -0.4261 0.6210 0.6579
vn -0.4261 0.6210 0.6579
vn -0.4261 0.6210 0.6579
vn 0.0762 0.7492 -0.6579
vn 0.0762 0.7492 -0.6579
vn 0.0762 0.7492 -0.6579
vn 0.0762 0.7492 -0.6579
vn -0.0762 -0.7492 0.6579
vn -0.0762 -0.7492 0.6579
vn -0.0762 -0.7492 0.6579
vn -0.0762 -0.7492 0.6579
vn 0.4261 -0.6210 -0.6579
vn 0.4261 -0.6210 -0.6579
vn 0.4261 -0.6210 -0.6579
vn 0.4261 -0.6210 -0.6579
vn 0.8124 -0.5224 0.2592
vn 0.8124 -0.5224 0.2592
vn 0.8124 -0.5224 0.2592
vn 0.8124 -0.5224 0.2592
vn 0.4625 0.8479 0.2592
vn 0.4625 0.8479 0.2592
vn 0.4625 0.8479 0.2592
vn 0.4625 0.8479 0.2592
vn -0.4625 -0.8479 -0.2592
vn -0.4625 -0.8479 -0.2592
vn -0.4625 -0.8479 -0.2592
vn -0.4625 -0.8479 -0.2592
vn -0.8124 0.5224 -0.2592
vn -0.8124 0.5224 -0.2592
vn -0.8124 0.5224 -0.2592
vn -0.8124 0.5224 -0.2592
vn 0.8886 0.2269 -0.3987
vn 0.8886 0.2269 -0.3987
vn 0.8886 0.2269 -0.3987
vn 0.8886 0.2269 -0.3987
vn 0.3863 0.0986 0.9171
vn 0.3863 0.0986 0.9171
vn 0.3863 0.0986 0.9171
vn 0.3863 0.0986 0.9171
vn -0.3863 -0.0986 -0.9171
vn -0.3863 -0.0986 -0.9171
vn -0.3863 -0.0986 -0.9171
vn -0.3863 -0.0986 -0.9171
vn -0.8886 -0.2269 0.3987
vn -0.8886 -0.2269 0.3987
vn -0.8886 -0.2269 0.3987
vn -0.8886 -0.2269 0.3987
vn 0.4583 -0.4789 0.7488
vn 0.4583 -0.4789 0.7488
vn 0.4583 -0.4789 0.7488
vn -0.5827 -0.7447 0.3256
vn -0.5827 -0.7447 0.3256
vn -0.5827 -0.7447 0.3256
vn 0.1726 0.6399 0.7488
vn 0.1726 0.6399 0.7488
vn 0.1726 0.6399 0.7488
vn -0.8683 0.3741 0.3256
vn -0.8683 0.3741 0.3256
vn -0.8683 0.3741 0.3256
vn 0.8683 -0.3741 -0.3256
vn 0.8683 -0.3741 -0.3256
vn 0.8683 -0.3741 -0.3256
vn -0.1726 -0.6399 -0.7488
vn -0.1726 -0.6399 -0.7488
vn -0.1726 -0.6399 -0.7488
vn 0.5827 0.7447 -0.3256
vn 0.5827 0.7447 -0.3256
vn 0.5827 0.7447 -0.3256
vn -0.4583 0.4789 -0.7488
vn -0.4583 0.4789 -0.7488
vn -0.4583 0.4789 -0.7488
usemtl TF_Utility
f 1/1/1 2/2/2 3/3/3
f 1/1/1 3/3/3 4/4/4
f 5/5/5 6/6/6 7/7/7
f 5/5/5 7/7/7 8/8/8
f 9/9/9 10/10/10 11/11/11
f 9/9/9 11/11/11 12/12/12
f 13/13/13 14/14/14 15/15/15
f 13/13/13 15/15/15 16/16/16
f 17/17/17 18/18/18 19/19/19
f 17/17/17 19/19/19 20/20/20
f 21/21/21 22/22/22 23/23/23
f 21/21/21 23/23/23 24/24/24
f 25/25/25 26/26/26 27/27/27
f 25/25/25 27/27/27 28/28/28
f 29/29/29 30/30/30 31/31/31
f 29/29/29 31/31/31 32/32/32
f 33/33/33 34/34/34 35/35/35
f 33/33/33 35/35/35 36/36/36
f 37/37/37 38/38/38 39/39/39
f 37/37/37 39/39/39 40/40/40
f 41/41/41 42/42/42 43/43/43
f 41/41/41 43/43/43 44/44/44
f 45/45/45 46/46/46 47/47/47
f 45/45/45 47/47/47 48/48/48
f 49/49/49 50/50/50 51/51/51
f 49/49/49 51/51/51 52/52/52
f 53/53/53 54/54/54 55/55/55
f 53/53/53 55/55/55 56/56/56
f 57/57/57 58/58/58 59/59/59
f 57/57/57 59/59/59 60/60/60
f 61/61/61 62/62/62 63/63/63
f 61/61/61 63/63/63 64/64/64
f 65/65/65 66/66/66 67/67/67
f 65/65/65 67/67/67 68/68/68
f 69/69/69 70/70/70 71/71/71
f 69/69/69 71/71/71 72/72/72
f 73/73/73 74/74/74 75/75/75
f 76/76/76 77/77/77 78/78/78
f 79/79/79 80/80/80 81/81/81
f 82/82/82 83/83/83 84/84/84
f 85/85/85 86/86/86 87/87/87
f 88/88/88 89/89/89 90/90/90
f 91/91/91 92/92/92 93/93/93
f 94/94/94 95/95/95 96/96/96
f 97/97/97 98/98/98 99/99/99
f 97/97/97 99/99/99 100/100/100
f 101/101/101 102/102/102 103/103/103
f 101/101/101 103/103/103 104/104/104
f 105/105/105 106/106/106 107/107/107
f 105/105/105 107/107/107 108/108/108
f 109/109/109 110/110/110 111/111/111
f 109/109/109 111/111/111 112/112/112
f 113/113/113 114/114/114 115/115/115
f 113/113/113 115/115/115 116/116/116
f 117/117/117 118/118/118 119/119/119
f 117/117/117 119/119/119 120/120/120
f 121/121/121 122/122/122 123/123/123
f 121/121/121 123/123/123 124/124/124
f 125/125/125 126/126/126 127/127/127
f 125/125/125 127/127/127 128/128/128
f 129/129/129 130/130/130 131/131/131
f 129/129/129 131/131/131 132/132/132
f 133/133/133 134/134/134 135/135/135
f 133/133/133 135/135/135 136/136/136
f 137/137/137 138/138/138 139/139/139
f 137/137/137 139/139/139 140/140/140
f 141/141/141 142/142/142 143/143/143
f 141/141/141 143/143/143 144/144/144
f 145/145/145 146/146/146 147/147/147
f 145/145/145 147/147/147 148/148/148
f 149/149/149 150/150/150 151/151/151
f 149/149/149 151/151/151 152/152/152
f 153/153/153 154/154/154 155/155/155
f 153/153/153 155/155/155 156/156/156
f 157/157/157 158/158/158 159/159/159
f 157/157/157 159/159/159 160/160/160
f 161/161/161 162/162/162 163/163/163
f 161/161/161 163/163/163 164/164/164
f 165/165/165 166/166/166 167/167/167
f 165/165/165 167/167/167 168/168/168
f 169/169/169 170/170/170 171/171/171
f 172/172/172 173/173/173 174/174/174
f 175/175/175 176/176/176 177/177/177
f 178/178/178 179/179/179 180/180/180
f 181/181/181 182/182/182 183/183/183
f 184/184/184 185/185/185 186/186/186
f 187/187/187 188/188/188 189/189/189
f 190/190/190 191/191/191 192/192/192
f 193/193/193 194/194/194 195/195/195
f 193/193/193 195/195/195 196/196/196
f 197/197/197 198/198/198 199/199/199
f 197/197/197 199/199/199 200/200/200
f 201/201/201 202/202/202 203/203/203
f 201/201/201 203/203/203 204/204/204
f 205/205/205 206/206/206 207/207/207
f 205/205/205 207/207/207 208/208/208
f 209/209/209 210/210/210 211/211/211
f 209/209/209 211/211/211 212/212/212
f 213/213/213 214/214/214 215/215/215
f 213/213/213 215/215/215 216/216/216
f 217/217/217 218/218/218 219/219/219
f 217/217/217 219/219/219 220/220/220
f 221/221/221 222/222/222 223/223/223
f 221/221/221 223/223/223 224/224/224
f 225/225/225 226/226/226 227/227/227
f 225/225/225 227/227/227 228/228/228
f 229/229/229 230/230/230 231/231/231
f 229/229/229 231/231/231 232/232/232
f 233/233/233 234/234/234 235/235/235
f 233/233/233 235/235/235 236/236/236
f 237/237/237 238/238/238 239/239/239
f 237/237/237 239/239/239 240/240/240
f 241/241/241 242/242/242 243/243/243
f 241/241/241 243/243/243 244/244/244
f 245/245/245 246/246/246 247/247/247
f 245/245/245 247/247/247 248/248/248
f 249/249/249 250/250/250 251/251/251
f 249/249/249 251/251/251 252/252/252
f 253/253/253 254/254/254 255/255/255
f 253/253/253 255/255/255 256/256/256
f 257/257/257 258/258/258 259/259/259
f 257/257/257 259/259/259 260/260/260
f 261/261/261 262/262/262 263/263/263
f 261/261/261 263/263/263 264/264/264
f 265/265/265 266/266/266 267/267/267
f 268/268/268 269/269/269 270/270/270
f 271/271/271 272/272/272 273/273/273
f 274/274/274 275/275/275 276/276/276
f 277/277/277 278/278/278 279/279/279
f 280/280/280 281/281/281 282/282/282
f 283/283/283 284/284/284 285/285/285
f 286/286/286 287/287/287 288/288/288
f 289/289/289 290/290/290 291/291/291
f 289/289/289 291/291/291 292/292/292
f 293/293/293 294/294/294 295/295/295
f 293/293/293 295/295/295 296/296/296
f 297/297/297 298/298/298 299/299/299
f 297/297/297 299/299/299 300/300/300
f 301/301/301 302/302/302 303/303/303
f 301/301/301 303/303/303 304/304/304
f 305/305/305 306/306/306 307/307/307
f 305/305/305 307/307/307 308/308/308
f 309/309/309 310/310/310 311/311/311
f 309/309/309 311/311/311 312/312/312
f 313/313/313 314/314/314 315/315/315
f 313/313/313 315/315/315 316/316/316
f 317/317/317 318/318/318 319/319/319
f 317/317/317 319/319/319 320/320/320
f 321/321/321 322/322/322 323/323/323
f 321/321/321 323/323/323 324/324/324
f 325/325/325 326/326/326 327/327/327
f 325/325/325 327/327/327 328/328/328
f 329/329/329 330/330/330 331/331/331
f 329/329/329 331/331/331 332/332/332
f 333/333/333 334/334/334 335/335/335
f 333/333/333 335/335/335 336/336/336
f 337/337/337 338/338/338 339/339/339
f 337/337/337 339/339/339 340/340/340
f 341/341/341 342/342/342 343/343/343
f 341/341/341 343/343/343 344/344/344
f 345/345/345 346/346/346 347/347/347
f 345/345/345 347/347/347 348/348/348
f 349/349/349 350/350/350 351/351/351
f 349/349/349 351/351/351 352/352/352
f 353/353/353 354/354/354 355/355/355
f 353/353/353 355/355/355 356/356/356
f 357/357/357 358/358/358 359/359/359
f 357/357/357 359/359/359 360/360/360
f 361/361/361 362/362/362 363/363/363
f 364/364/364 365/365/365 366/366/366
f 367/367/367 368/368/368 369/369/369
f 370/370/370 371/371/371 372/372/372
f 373/373/373 374/374/374 375/375/375
f 376/376/376 377/377/377 378/378/378
f 379/379/379 380/380/380 381/381/381
f 382/382/382 383/383/383 384/384/384
f 385/385/385 386/386/386 387/387/387
f 385/385/385 387/387/387 388/388/388
f 389/389/389 390/390/390 391/391/391
f 389/389/389 391/391/391 392/392/392
f 393/393/393 394/394/394 395/395/395
f 393/393/393 395/395/395 396/396/396
f 397/397/397 398/398/398 399/399/399
f 397/397/397 399/399/399 400/400/400
f 401/401/401 402/402/402 403/403/403
f 401/401/401 403/403/403 404/404/404
f 405/405/405 406/406/406 407/407/407
f 405/405/405 407/407/407 408/408/408
f 409/409/409 410/410/410 411/411/411
f 409/409/409 411/411/411 412/412/412
f 413/413/413 414/414/414 415/415/415
f 413/413/413 415/415/415 416/416/416
f 417/417/417 418/418/418 419/419/419
f 417/417/417 419/419/419 420/420/420
f 421/421/421 422/422/422 423/423/423
f 421/421/421 423/423/423 424/424/424
f 425/425/425 426/426/426 427/427/427
f 425/425/425 427/427/427 428/428/428
f 429/429/429 430/430/430 431/431/431
f 429/429/429 431/431/431 432/432/432
f 433/433/433 434/434/434 435/435/435
f 433/433/433 435/435/435 436/436/436
f 437/437/437 438/438/438 439/439/439
f 437/437/437 439/439/439 440/440/440
f 441/441/441 442/442/442 443/443/443
f 441/441/441 443/443/443 444/444/444
f 445/445/445 446/446/446 447/447/447
f 445/445/445 447/447/447 448/448/448
f 449/449/449 450/450/450 451/451/451
f 449/449/449 451/451/451 452/452/452
f 453/453/453 454/454/454 455/455/455
f 453/453/453 455/455/455 456/456/456
f 457/457/457 458/458/458 459/459/459
f 460/460/460 461/461/461 462/462/462
f 463/463/463 464/464/464 465/465/465
f 466/466/466 467/467/467 468/468/468
f 469/469/469 470/470/470 471/471/471
f 472/472/472 473/473/473 474/474/474
f 475/475/475 476/476/476 477/477/477
f 478/478/478 479/479/479 480/480/480
f 481/481/481 482/482/482 483/483/483
f 481/481/481 483/483/483 484/484/484
f 485/485/485 486/486/486 487/487/487
f 485/485/485 487/487/487 488/488/488
f 489/489/489 490/490/490 491/491/491
f 489/489/489 491/491/491 492/492/492
f 493/493/493 494/494/494 495/495/495
f 493/493/493 495/495/495 496/496/496
f 497/497/497 498/498/498 499/499/499
f 497/497/497 499/499/499 500/500/500
f 501/501/501 502/502/502 503/503/503
f 501/501/501 503/503/503 504/504/504
f 505/505/505 506/506/506 507/507/507
f 505/505/505 507/507/507 508/508/508
f 509/509/509 510/510/510 511/511/511
f 509/509/509 511/511/511 512/512/512
f 513/513/513 514/514/514 515/515/515
f 513/513/513 515/515/515 516/516/516
f 517/517/517 518/518/518 519/519/519
f 517/517/517 519/519/519 520/520/520
f 521/521/521 522/522/522 523/523/523
f 521/521/521 523/523/523 524/524/524
f 525/525/525 526/526/526 527/527/527
f 525/525/525 527/527/527 528/528/528
f 529/529/529 530/530/530 531/531/531
f 529/529/529 531/531/531 532/532/532
f 533/533/533 534/534/534 535/535/535
f 533/533/533 535/535/535 536/536/536
f 537/537/537 538/538/538 539/539/539
f 537/537/537 539/539/539 540/540/540
f 541/541/541 542/542/542 543/543/543
f 541/541/541 543/543/543 544/544/544
f 545/545/545 546/546/546 547/547/547
f 545/545/545 547/547/547 548/548/548
f 549/549/549 550/550/550 551/551/551
f 549/549/549 551/551/551 552/552/552
f 553/553/553 554/554/554 555/555/555
f 556/556/556 557/557/557 558/558/558
f 559/559/559 560/560/560 561/561/561
f 562/562/562 563/563/563 564/564/564
f 565/565/565 566/566/566 567/567/567
f 568/568/568 569/569/569 570/570/570
f 571/571/571 572/572/572 573/573/573
f 574/574/574 575/575/575 576/576/576
f 577/577/577 578/578/578 579/579/579
f 577/577/577 579/579/579 580/580/580
f 581/581/581 582/582/582 583/583/583
f 581/581/581 583/583/583 584/584/584
f 585/585/585 586/586/586 587/587/587
f 585/585/585 587/587/587 588/588/588
f 589/589/589 590/590/590 591/591/591
f 589/589/589 591/591/591 592/592/592
f 593/593/593 594/594/594 595/595/595
f 593/593/593 595/595/595 596/596/596
f 597/597/597 598/598/598 599/599/599
f 597/597/597 599/599/599 600/600/600
f 601/601/601 602/602/602 603/603/603
f 601/601/601 603/603/603 604/604/604
f 605/605/605 606/606/606 607/607/607
f 605/605/605 607/607/607 608/608/608
f 609/609/609 610/610/610 611/611/611
f 609/609/609 611/611/611 612/612/612
f 613/613/613 614/614/614 615/615/615
f 613/613/613 615/615/615 616/616/616
f 617/617/617 618/618/618 619/619/619
f 617/617/617 619/619/619 620/620/620
f 621/621/621 622/622/622 623/623/623
f 621/621/621 623/623/623 624/624/624
f 625/625/625 626/626/626 627/627/627
f 625/625/625 627/627/627 628/628/628
f 629/629/629 630/630/630 631/631/631
f 629/629/629 631/631/631 632/632/632
f 633/633/633 634/634/634 635/635/635
f 633/633/633 635/635/635 636/636/636
f 637/637/637 638/638/638 639/639/639
f 637/637/637 639/639/639 640/640/640
f 641/641/641 642/642/642 643/643/643
f 641/641/641 643/643/643 644/644/644
f 645/645/645 646/646/646 647/647/647
f 645/645/645 647/647/647 648/648/648
f 649/649/649 650/650/650 651/651/651
f 652/652/652 653/653/653 654/654/654
f 655/655/655 656/656/656 657/657/657
f 658/658/658 659/659/659 660/660/660
f 661/661/661 662/662/662 663/663/663
f 664/664/664 665/665/665 666/666/666
f 667/667/667 668/668/668 669/669/669
f 670/670/670 671/671/671 672/672/672
f 673/673/673 674/674/674 675/675/675
f 673/673/673 675/675/675 676/676/676
f 677/677/677 678/678/678 679/679/679
f 677/677/677 679/679/679 680/680/680
f 681/681/681 682/682/682 683/683/683
f 681/681/681 683/683/683 684/684/684
f 685/685/685 686/686/686 687/687/687
f 685/685/685 687/687/687 688/688/688
f 689/689/689 690/690/690 691/691/691
f 689/689/689 691/691/691 692/692/692
f 693/693/693 694/694/694 695/695/695
f 693/693/693 695/695/695 696/696/696
f 697/697/697 698/698/698 699/699/699
f 697/697/697 699/699/699 700/700/700
f 701/701/701 702/702/702 703/703/703
f 701/701/701 703/703/703 704/704/704
f 705/705/705 706/706/706 707/707/707
f 705/705/705 707/707/707 708/708/708
f 709/709/709 710/710/710 711/711/711
f 709/709/709 711/711/711 712/712/712
f 713/713/713 714/714/714 715/715/715
f 713/713/713 715/715/715 716/716/716
f 717/717/717 718/718/718 719/719/719
f 717/717/717 719/719/719 720/720/720
f 721/721/721 722/722/722 723/723/723
f 721/721/721 723/723/723 724/724/724
f 725/725/725 726/726/726 727/727/727
f 725/725/725 727/727/727 728/728/728
f 729/729/729 730/730/730 731/731/731
f 729/729/729 731/731/731 732/732/732
f 733/733/733 734/734/734 735/735/735
f 733/733/733 735/735/735 736/736/736
f 737/737/737 738/738/738 739/739/739
f 737/737/737 739/739/739 740/740/740
f 741/741/741 742/742/742 743/743/743
f 741/741/741 743/743/743 744/744/744
f 745/745/745 746/746/746 747/747/747
f 748/748/748 749/749/749 750/750/750
f 751/751/751 752/752/752 753/753/753
f 754/754/754 755/755/755 756/756/756
f 757/757/757 758/758/758 759/759/759
f 760/760/760 761/761/761 762/762/762
f 763/763/763 764/764/764 765/765/765
f 766/766/766 767/767/767 768/768/768
f 769/769/769 770/770/770 771/771/771
f 769/769/769 771/771/771 772/772/772
f 773/773/773 774/774/774 775/775/775
f 773/773/773 775/775/775 776/776/776
f 777/777/777 778/778/778 779/779/779
f 777/777/777 779/779/779 780/780/780
f 781/781/781 782/782/782 783/783/783
f 781/781/781 783/783/783 784/784/784
f 785/785/785 786/786/786 787/787/787
f 785/785/785 787/787/787 788/788/788
f 789/789/789 790/790/790 791/791/791
f 789/789/789 791/791/791 792/792/792
f 793/793/793 794/794/794 795/795/795
f 793/793/793 795/795/795 796/796/796
f 797/797/797 798/798/798 799/799/799
f 797/797/797 799/799/799 800/800/800
f 801/801/801 802/802/802 803/803/803
f 801/801/801 803/803/803 804/804/804
f 805/805/805 806/806/806 807/807/807
f 805/805/805 807/807/807 808/808/808
f 809/809/809 810/810/810 811/811/811
f 809/809/809 811/811/811 812/812/812
f 813/813/813 814/814/814 815/815/815
f 813/813/813 815/815/815 816/816/816
f 817/817/817 818/818/818 819/819/819
f 817/817/817 819/819/819 820/820/820
f 821/821/821 822/822/822 823/823/823
f 821/821/821 823/823/823 824/824/824
f 825/825/825 826/826/826 827/827/827
f 825/825/825 827/827/827 828/828/828
f 829/829/829 830/830/830 831/831/831
f 829/829/829 831/831/831 832/832/832
f 833/833/833 834/834/834 835/835/835
f 833/833/833 835/835/835 836/836/836
f 837/837/837 838/838/838 839/839/839
f 837/837/837 839/839/839 840/840/840
f 841/841/841 842/842/842 843/843/843
f 844/844/844 845/845/845 846/846/846
f 847/847/847 848/848/848 849/849/849
f 850/850/850 851/851/851 852/852/852
f 853/853/853 854/854/854 855/855/855
f 856/856/856 857/857/857 858/858/858
f 859/859/859 860/860/860 861/861/861
f 862/862/862 863/863/863 864/864/864
f 865/865/865 866/866/866 867/867/867
f 865/865/865 867/867/867 868/868/868
f 869/869/869 870/870/870 871/871/871
f 869/869/869 871/871/871 872/872/872
f 873/873/873 874/874/874 875/875/875
f 873/873/873 875/875/875 876/876/876
f 877/877/877 878/878/878 879/879/879
f 877/877/877 879/879/879 880/880/880
f 881/881/881 882/882/882 883/883/883
f 881/881/881 883/883/883 884/884/884
f 885/885/885 886/886/886 887/887/887
f 885/885/885 887/887/887 888/888/888
f 889/889/889 890/890/890 891/891/891
f 889/889/889 891/891/891 892/892/892
f 893/893/893 894/894/894 895/895/895
f 893/893/893 895/895/895 896/896/896
f 897/897/897 898/898/898 899/899/899
f 897/897/897 899/899/899 900/900/900
f 901/901/901 902/902/902 903/903/903
f 901/901/901 903/903/903 904/904/904
f 905/905/905 906/906/906 907/907/907
f 905/905/905 907/907/907 908/908/908
f 909/909/909 910/910/910 911/911/911
f 909/909/909 911/911/911 912/912/912
f 913/913/913 914/914/914 915/915/915
f 913/913/913 915/915/915 916/916/916
f 917/917/917 918/918/918 919/919/919
f 917/917/917 919/919/919 920/920/920
f 921/921/921 922/922/922 923/923/923
f 921/921/921 923/923/923 924/924/924
f 925/925/925 926/926/926 927/927/927
f 925/925/925 927/927/927 928/928/928
f 929/929/929 930/930/930 931/931/931
f 929/929/929 931/931/931 932/932/932
f 933/933/933 934/934/934 935/935/935
f 933/933/933 935/935/935 936/936/936
f 937/937/937 938/938/938 939/939/939
f 940/940/940 941/941/941 942/942/942
f 943/943/943 944/944/944 945/945/945
f 946/946/946 947/947/947 948/948/948
f 949/949/949 950/950/950 951/951/951
f 952/952/952 953/953/953 954/954/954
f 955/955/955 956/956/956 957/957/957
f 958/958/958 959/959/959 960/960/960
