# TERRAFRONT procedural asset — generated by Tools/assetgen (deterministic)
# Y-up, +Z forward (muzzle), units = meters, pivot at grip/origin.
# prop_rock_c — TERRAFRONT P3
mtllib tf_utility.mtl
o prop_rock_c
v 0.0185 0.0000 -0.0160
v 0.0024 0.0000 -0.0259
v 0.0929 0.1970 -1.0028
v 0.7171 0.1970 -0.6198
v 0.0024 0.0000 -0.0259
v -0.0149 0.0000 -0.0237
v -0.5747 0.1970 -0.9166
v 0.0929 0.1970 -1.0028
v -0.0149 0.0000 -0.0237
v -0.0252 0.0000 -0.0104
v -0.9734 0.1970 -0.4015
v -0.5747 0.1970 -0.9166
v -0.0252 0.0000 -0.0104
v -0.0237 0.0000 0.0078
v -0.9167 0.1970 0.3014
v -0.9734 0.1970 -0.4015
v -0.0237 0.0000 0.0078
v -0.0111 -0.0000 0.0223
v -0.4310 0.1970 0.8634
v -0.9167 0.1970 0.3014
v -0.0111 -0.0000 0.0223
v 0.0066 -0.0000 0.0264
v 0.2564 0.1970 1.0213
v -0.4310 0.1970 0.8634
v 0.0066 -0.0000 0.0264
v 0.0213 -0.0000 0.0181
v 0.8238 0.1970 0.7014
v 0.2564 0.1970 1.0213
v 0.0213 -0.0000 0.0181
v 0.0260 -0.0000 0.0014
v 1.0057 0.1970 0.0533
v 0.8238 0.1970 0.7014
v 0.0260 -0.0000 0.0014
v 0.0185 0.0000 -0.0160
v 0.7171 0.1970 -0.6198
v 1.0057 0.1970 0.0533
v 0.7171 0.1970 -0.6198
v 0.0929 0.1970 -1.0028
v 0.1467 0.3940 -1.5834
v 1.1322 0.3940 -0.9786
v 0.0929 0.1970 -1.0028
v -0.5747 0.1970 -0.9166
v -0.9075 0.3940 -1.4473
v 0.1467 0.3940 -1.5834
v -0.5747 0.1970 -0.9166
v -0.9734 0.1970 -0.4015
v -1.5370 0.3940 -0.6340
v -0.9075 0.3940 -1.4473
v -0.9734 0.1970 -0.4015
v -0.9167 0.1970 0.3014
v -1.4474 0.3940 0.4759
v -1.5370 0.3940 -0.6340
v -0.9167 0.1970 0.3014
v -0.4310 0.1970 0.8634
v -0.6805 0.3940 1.3632
v -1.4474 0.3940 0.4759
v -0.4310 0.1970 0.8634
v 0.2564 0.1970 1.0213
v 0.4048 0.3940 1.6126
v -0.6805 0.3940 1.3632
v 0.2564 0.1970 1.0213
v 0.8238 0.1970 0.7014
v 1.3007 0.3940 1.1075
v 0.4048 0.3940 1.6126
v 0.8238 0.1970 0.7014
v 1.0057 0.1970 0.0533
v 1.5880 0.3940 0.0841
v 1.3007 0.3940 1.1075
v 1.0057 0.1970 0.0533
v 0.7171 0.1970 -0.6198
v 1.1322 0.3940 -0.9786
v 1.5880 0.3940 0.0841
v 1.1322 0.3940 -0.9786
v 0.1467 0.3940 -1.5834
v 0.1867 0.5910 -2.0155
v 1.4412 0.5910 -1.2456
v 0.1467 0.3940 -1.5834
v -0.9075 0.3940 -1.4473
v -1.1551 0.5910 -1.8423
v 0.1867 0.5910 -2.0155
v -0.9075 0.3940 -1.4473
v -1.5370 0.3940 -0.6340
v -1.9565 0.5910 -0.8070
v -1.1551 0.5910 -1.8423
v -1.5370 0.3940 -0.6340
v -1.4474 0.3940 0.4759
v -1.8423 0.5910 0.6058
v -1.9565 0.5910 -0.8070
v -1.4474 0.3940 0.4759
v -0.6805 0.3940 1.3632
v -0.8662 0.5910 1.7352
v -1.8423 0.5910 0.6058
v -0.6805 0.3940 1.3632
v 0.4048 0.3940 1.6126
v 0.5153 0.5910 2.0527
v -0.8662 0.5910 1.7352
v 0.4048 0.3940 1.6126
v 1.3007 0.3940 1.1075
v 1.6556 0.5910 1.4097
v 0.5153 0.5910 2.0527
v 1.3007 0.3940 1.1075
v 1.5880 0.3940 0.0841
v 2.0213 0.5910 0.1071
v 1.6556 0.5910 1.4097
v 1.5880 0.3940 0.0841
v 1.1322 0.3940 -0.9786
v 1.4412 0.5910 -1.2456
v 2.0213 0.5910 0.1071
v 1.4412 0.5910 -1.2456
v 0.1867 0.5910 -2.0155
v 0.1331 0.7881 -1.4366
v 1.0272 0.7881 -0.8879
v 0.1867 0.5910 -2.0155
v -1.1551 0.5910 -1.8423
v -0.8234 0.7881 -1.3132
v 0.1331 0.7881 -1.4366
v -1.1551 0.5910 -1.8423
v -1.9565 0.5910 -0.8070
v -1.3945 0.7881 -0.5752
v -0.8234 0.7881 -1.3132
v -1.9565 0.5910 -0.8070
v -1.8423 0.5910 0.6058
v -1.3132 0.7881 0.4318
v -1.3945 0.7881 -0.5752
v -1.8423 0.5910 0.6058
v -0.8662 0.5910 1.7352
v -0.6174 0.7881 1.2368
v -1.3132 0.7881 0.4318
v -0.8662 0.5910 1.7352
v 0.5153 0.5910 2.0527
v 0.3673 0.7881 1.4631
v -0.6174 0.7881 1.2368
v 0.5153 0.5910 2.0527
v 1.6556 0.5910 1.4097
v 1.1801 0.7881 1.0048
v 0.3673 0.7881 1.4631
v 1.6556 0.5910 1.4097
v 2.0213 0.5910 0.1071
v 1.4407 0.7881 0.0763
v 1.1801 0.7881 1.0048
v 2.0213 0.5910 0.1071
v 1.4412 0.5910 -1.2456
v 1.0272 0.7881 -0.8879
v 1.4407 0.7881 0.0763
v 1.0272 0.7881 -0.8879
v 0.1331 0.7881 -1.4366
v 0.1282 0.9851 -1.3836
v 0.9893 0.9851 -0.8551
v 0.1331 0.7881 -1.4366
v -0.8234 0.7881 -1.3132
v -0.7929 0.9851 -1.2646
v 0.1282 0.9851 -1.3836
v -0.8234 0.7881 -1.3132
v -1.3945 0.7881 -0.5752
v -1.3430 0.9851 -0.5540
v -0.7929 0.9851 -1.2646
v -1.3945 0.7881 -0.5752
v -1.3132 0.7881 0.4318
v -1.2647 0.9851 0.4159
v -1.3430 0.9851 -0.5540
v -1.3132 0.7881 0.4318
v -0.6174 0.7881 1.2368
v -0.5946 0.9851 1.1911
v -1.2647 0.9851 0.4159
v -0.6174 0.7881 1.2368
v 0.3673 0.7881 1.4631
v 0.3537 0.9851 1.4091
v -0.5946 0.9851 1.1911
v 0.3673 0.7881 1.4631
v 1.1801 0.7881 1.0048
v 1.1365 0.9851 0.9677
v 0.3537 0.9851 1.4091
v 1.1801 0.7881 1.0048
v 1.4407 0.7881 0.0763
v 1.3875 0.9851 0.0735
v 1.1365 0.9851 0.9677
v 1.4407 0.7881 0.0763
v 1.0272 0.7881 -0.8879
v 0.9893 0.9851 -0.8551
v 1.3875 0.9851 0.0735
v 0.9893 0.9851 -0.8551
v 0.1282 0.9851 -1.3836
v 0.0962 1.1821 -1.0385
v 0.7425 1.1821 -0.6418
v 0.1282 0.9851 -1.3836
v -0.7929 0.9851 -1.2646
v -0.5952 1.1821 -0.9492
v 0.0962 1.1821 -1.0385
v -0.7929 0.9851 -1.2646
v -1.3430 0.9851 -0.5540
v -1.0080 1.1821 -0.4158
v -0.5952 1.1821 -0.9492
v -1.3430 0.9851 -0.5540
v -1.2647 0.9851 0.4159
v -0.9492 1.1821 0.3121
v -1.0080 1.1821 -0.4158
v -1.2647 0.9851 0.4159
v -0.5946 0.9851 1.1911
v -0.4463 1.1821 0.8941
v -0.9492 1.1821 0.3121
v -0.5946 0.9851 1.1911
v 0.3537 0.9851 1.4091
v 0.2655 1.1821 1.0576
v -0.4463 1.1821 0.8941
v 0.3537 0.9851 1.4091
v 1.1365 0.9851 0.9677
v 0.8531 1.1821 0.7263
v 0.2655 1.1821 1.0576
v 1.1365 0.9851 0.9677
v 1.3875 0.9851 0.0735
v 1.0415 1.1821 0.0552
v 0.8531 1.1821 0.7263
v 1.3875 0.9851 0.0735
v 0.9893 0.9851 -0.8551
v 0.7425 1.1821 -0.6418
v 1.0415 1.1821 0.0552
v 0.7425 1.1821 -0.6418
v 0.0962 1.1821 -1.0385
v 0.0036 1.2057 -0.0389
v 0.0278 1.2057 -0.0240
v 0.0962 1.1821 -1.0385
v -0.5952 1.1821 -0.9492
v -0.0223 1.2057 -0.0356
v 0.0036 1.2057 -0.0389
v -0.5952 1.1821 -0.9492
v -1.0080 1.1821 -0.4158
v -0.0378 1.2057 -0.0156
v -0.0223 1.2057 -0.0356
v -1.0080 1.1821 -0.4158
v -0.9492 1.1821 0.3121
v -0.0356 1.2057 0.0117
v -0.0378 1.2057 -0.0156
v -0.9492 1.1821 0.3121
v -0.4463 1.1821 0.8941
v -0.0167 1.2057 0.0335
v -0.0356 1.2057 0.0117
v -0.4463 1.1821 0.8941
v 0.2655 1.1821 1.0576
v 0.0099 1.2057 0.0396
v -0.0167 1.2057 0.0335
v 0.2655 1.1821 1.0576
v 0.8531 1.1821 0.7263
v 0.0320 1.2057 0.0272
v 0.0099 1.2057 0.0396
v 0.8531 1.1821 0.7263
v 1.0415 1.1821 0.0552
v 0.0390 1.2057 0.0021
v 0.0320 1.2057 0.0272
v 1.0415 1.1821 0.0552
v 0.7425 1.1821 -0.6418
v 0.0278 1.2057 -0.0240
v 0.0390 1.2057 0.0021
v 0.0278 1.2057 -0.0240
v 0.0036 1.2057 -0.0389
v -0.0223 1.2057 -0.0356
v -0.0378 1.2057 -0.0156
v -0.0356 1.2057 0.0117
v -0.0167 1.2057 0.0335
v 0.0099 1.2057 0.0396
v 0.0320 1.2057 0.0272
v 0.0390 1.2057 0.0021
vt 0.6242 0.3729
vt 0.6232 0.3724
vt 0.6287 0.3142
vt 0.6667 0.3370
vt 0.6232 0.3724
vt 0.6221 0.3725
vt 0.5881 0.3194
vt 0.6287 0.3142
vt 0.6221 0.3725
vt 0.6215 0.3733
vt 0.5638 0.3500
vt 0.5881 0.3194
vt 0.6215 0.3733
vt 0.6216 0.3744
vt 0.5673 0.3918
vt 0.5638 0.3500
vt 0.6216 0.3744
vt 0.6223 0.3752
vt 0.5968 0.4253
vt 0.5673 0.3918
vt 0.6223 0.3752
vt 0.6234 0.3755
vt 0.6386 0.4346
vt 0.5968 0.4253
vt 0.6234 0.3755
vt 0.6243 0.3750
vt 0.6731 0.4156
vt 0.6386 0.4346
vt 0.6243 0.3750
vt 0.6246 0.3740
vt 0.6842 0.3771
vt 0.6731 0.4156
vt 0.6246 0.3740
vt 0.6242 0.3729
vt 0.6667 0.3370
vt 0.6842 0.3771
vt 0.6667 0.3370
vt 0.6287 0.3142
vt 0.6320 0.2797
vt 0.6919 0.3157
vt 0.6287 0.3142
vt 0.5881 0.3194
vt 0.5678 0.2878
vt 0.6320 0.2797
vt 0.5881 0.3194
vt 0.5638 0.3500
vt 0.5295 0.3362
vt 0.5678 0.2878
vt 0.5638 0.3500
vt 0.5673 0.3918
vt 0.5350 0.4022
vt 0.5295 0.3362
vt 0.5673 0.3918
vt 0.5968 0.4253
vt 0.5816 0.4550
vt 0.5350 0.4022
vt 0.5968 0.4253
vt 0.6386 0.4346
vt 0.6477 0.4698
vt 0.5816 0.4550
vt 0.6386 0.4346
vt 0.6731 0.4156
vt 0.7022 0.4398
vt 0.6477 0.4698
vt 0.6731 0.4156
vt 0.6842 0.3771
vt 0.7196 0.3789
vt 0.7022 0.4398
vt 0.6842 0.3771
vt 0.6667 0.3370
vt 0.6919 0.3157
vt 0.7196 0.3789
vt 0.6919 0.3157
vt 0.6320 0.2797
vt 0.6344 0.2540
vt 0.7107 0.2998
vt 0.6320 0.2797
vt 0.5678 0.2878
vt 0.5528 0.2643
vt 0.6344 0.2540
vt 0.5678 0.2878
vt 0.5295 0.3362
vt 0.5040 0.3259
vt 0.5528 0.2643
vt 0.5295 0.3362
vt 0.5350 0.4022
vt 0.5109 0.4099
vt 0.5040 0.3259
vt 0.5350 0.4022
vt 0.5816 0.4550
vt 0.5703 0.4771
vt 0.5109 0.4099
vt 0.5816 0.4550
vt 0.6477 0.4698
vt 0.6544 0.4960
vt 0.5703 0.4771
vt 0.6477 0.4698
vt 0.7022 0.4398
vt 0.7238 0.4578
vt 0.6544 0.4960
vt 0.7022 0.4398
vt 0.7196 0.3789
vt 0.7460 0.3803
vt 0.7238 0.4578
vt 0.7196 0.3789
vt 0.6919 0.3157
vt 0.7107 0.2998
vt 0.7460 0.3803
vt 0.7107 0.2998
vt 0.6344 0.2540
vt 0.6311 0.2884
vt 0.6855 0.3211
vt 0.6344 0.2540
vt 0.5528 0.2643
vt 0.5729 0.2958
vt 0.6311 0.2884
vt 0.5528 0.2643
vt 0.5040 0.3259
vt 0.5382 0.3397
vt 0.5729 0.2958
vt 0.5040 0.3259
vt 0.5109 0.4099
vt 0.5431 0.3996
vt 0.5382 0.3397
vt 0.5109 0.4099
vt 0.5703 0.4771
vt 0.5855 0.4475
vt 0.5431 0.3996
vt 0.5703 0.4771
vt 0.6544 0.4960
vt 0.6454 0.4609
vt 0.5855 0.4475
vt 0.6544 0.4960
vt 0.7238 0.4578
vt 0.6948 0.4337
vt 0.6454 0.4609
vt 0.7238 0.4578
vt 0.7460 0.3803
vt 0.7107 0.3784
vt 0.6948 0.4337
vt 0.7460 0.3803
vt 0.7107 0.2998
vt 0.6855 0.3211
vt 0.7107 0.3784
vt 0.6855 0.4122
vt 0.6311 0.4122
vt 0.6308 0.4517
vt 0.6832 0.4517
vt 0.6311 0.4122
vt 0.5729 0.4122
vt 0.5748 0.4517
vt 0.6308 0.4517
vt 0.5458 0.4122
vt 0.5897 0.4122
vt 0.5909 0.4517
vt 0.5487 0.4517
vt 0.5897 0.4122
vt 0.6496 0.4122
vt 0.6486 0.4517
vt 0.5909 0.4517
vt 0.6496 0.4122
vt 0.6975 0.4122
vt 0.6948 0.4517
vt 0.6486 0.4517
vt 0.5855 0.4122
vt 0.6454 0.4122
vt 0.6445 0.4517
vt 0.5869 0.4517
vt 0.6454 0.4122
vt 0.6948 0.4122
vt 0.6922 0.4517
vt 0.6445 0.4517
vt 0.6837 0.4122
vt 0.6284 0.4122
vt 0.6283 0.4517
vt 0.6815 0.4517
vt 0.6284 0.4122
vt 0.5711 0.4122
vt 0.5730 0.4517
vt 0.6283 0.4517
vt 0.6832 0.3230
vt 0.6308 0.2916
vt 0.6289 0.3121
vt 0.6682 0.3357
vt 0.6308 0.2916
vt 0.5748 0.2987
vt 0.5868 0.3174
vt 0.6289 0.3121
vt 0.5748 0.2987
vt 0.5413 0.3409
vt 0.5617 0.3492
vt 0.5868 0.3174
vt 0.5413 0.3409
vt 0.5461 0.3986
vt 0.5653 0.3925
vt 0.5617 0.3492
vt 0.5461 0.3986
vt 0.5869 0.4448
vt 0.5959 0.4271
vt 0.5653 0.3925
vt 0.5869 0.4448
vt 0.6445 0.4577
vt 0.6392 0.4368
vt 0.5959 0.4271
vt 0.6445 0.4577
vt 0.6922 0.4315
vt 0.6749 0.4171
vt 0.6392 0.4368
vt 0.6922 0.4315
vt 0.7074 0.3783
vt 0.6864 0.3772
vt 0.6749 0.4171
vt 0.7074 0.3783
vt 0.6832 0.3230
vt 0.6682 0.3357
vt 0.6864 0.3772
vt 0.6682 0.3357
vt 0.6289 0.3121
vt 0.6232 0.3716
vt 0.6247 0.3725
vt 0.6289 0.3121
vt 0.5868 0.3174
vt 0.6217 0.3718
vt 0.6232 0.3716
vt 0.5868 0.3174
vt 0.5617 0.3492
vt 0.6207 0.3730
vt 0.6217 0.3718
vt 0.5617 0.3492
vt 0.5653 0.3925
vt 0.6209 0.3746
vt 0.6207 0.3730
vt 0.5653 0.3925
vt 0.5959 0.4271
vt 0.6220 0.3759
vt 0.6209 0.3746
vt 0.5959 0.4271
vt 0.6392 0.4368
vt 0.6236 0.3763
vt 0.6220 0.3759
vt 0.6392 0.4368
vt 0.6749 0.4171
vt 0.6250 0.3755
vt 0.6236 0.3763
vt 0.6749 0.4171
vt 0.6864 0.3772
vt 0.6254 0.3740
vt 0.6250 0.3755
vt 0.6864 0.3772
vt 0.6682 0.3357
vt 0.6247 0.3725
vt 0.6254 0.3740
vt 0.6247 0.3725
vt 0.6232 0.3716
vt 0.6217 0.3718
vt 0.6207 0.3730
vt 0.6209 0.3746
vt 0.6220 0.3759
vt 0.6236 0.3763
vt 0.6250 0.3755
vt 0.6254 0.3740
vn 0.1143 -0.9758 -0.1862
vn 0.1143 -0.9758 -0.1862
vn 0.1143 -0.9758 -0.1862
vn 0.1143 -0.9758 -0.1862
vn -0.0258 -0.9795 -0.1999
vn -0.0258 -0.9795 -0.1999
vn -0.0258 -0.9795 -0.1999
vn -0.0258 -0.9795 -0.1999
vn -0.1544 -0.9807 -0.1196
vn -0.1544 -0.9807 -0.1196
vn -0.1544 -0.9807 -0.1196
vn -0.1544 -0.9807 -0.1196
vn -0.2101 -0.9775 0.0170
vn -0.2101 -0.9775 0.0170
vn -0.2101 -0.9775 0.0170
vn -0.2101 -0.9775 0.0170
vn -0.1675 -0.9752 0.1448
vn -0.1675 -0.9752 0.1448
vn -0.1675 -0.9752 0.1448
vn -0.1675 -0.9752 0.1448
vn -0.0472 -0.9775 0.2054
vn -0.0472 -0.9775 0.2054
vn -0.0472 -0.9775 0.2054
vn -0.0472 -0.9775 0.2054
vn 0.0959 -0.9807 0.1701
vn 0.0959 -0.9807 0.1701
vn 0.0959 -0.9807 0.1701
vn 0.0959 -0.9807 0.1701
vn 0.1941 -0.9795 0.0545
vn 0.1941 -0.9795 0.0545
vn 0.1941 -0.9795 0.0545
vn 0.1941 -0.9795 0.0545
vn 0.2008 -0.9758 -0.0861
vn 0.2008 -0.9758 -0.0861
vn 0.2008 -0.9758 -0.0861
vn 0.2008 -0.9758 -0.0861
vn 0.1844 -0.9358 -0.3005
vn 0.1844 -0.9358 -0.3005
vn 0.1844 -0.9358 -0.3005
vn 0.1844 -0.9358 -0.3005
vn -0.0419 -0.9450 -0.3245
vn -0.0419 -0.9450 -0.3245
vn -0.0419 -0.9450 -0.3245
vn -0.0419 -0.9450 -0.3245
vn -0.2512 -0.9482 -0.1945
vn -0.2512 -0.9482 -0.1945
vn -0.2512 -0.9482 -0.1945
vn -0.2512 -0.9482 -0.1945
vn -0.3399 -0.9400 0.0275
vn -0.3399 -0.9400 0.0275
vn -0.3399 -0.9400 0.0275
vn -0.3399 -0.9400 0.0275
vn -0.2700 -0.9341 0.2334
vn -0.2700 -0.9341 0.2334
vn -0.2700 -0.9341 0.2334
vn -0.2700 -0.9341 0.2334
vn -0.0764 -0.9400 0.3324
vn -0.0764 -0.9400 0.3324
vn -0.0764 -0.9400 0.3324
vn -0.0764 -0.9400 0.3324
vn 0.1560 -0.9482 0.2767
vn 0.1560 -0.9482 0.2767
vn 0.1560 -0.9482 0.2767
vn 0.1560 -0.9482 0.2767
vn 0.3150 -0.9450 0.0884
vn 0.3150 -0.9450 0.0884
vn 0.3150 -0.9450 0.0884
vn 0.3150 -0.9450 0.0884
vn 0.3240 -0.9358 -0.1389
vn 0.3240 -0.9358 -0.1389
vn 0.3240 -0.9358 -0.1389
vn 0.3240 -0.9358 -0.1389
vn 0.2362 -0.8922 -0.3849
vn 0.2362 -0.8922 -0.3849
vn 0.2362 -0.8922 -0.3849
vn 0.2362 -0.8922 -0.3849
vn -0.0540 -0.9066 -0.4184
vn -0.0540 -0.9066 -0.4184
vn -0.0540 -0.9066 -0.4184
vn -0.0540 -0.9066 -0.4184
vn -0.3247 -0.9118 -0.2513
vn -0.3247 -0.9118 -0.2513
vn -0.3247 -0.9118 -0.2513
vn -0.3247 -0.9118 -0.2513
vn -0.4368 -0.8989 0.0353
vn -0.4368 -0.8989 0.0353
vn -0.4368 -0.8989 0.0353
vn -0.4368 -0.8989 0.0353
vn -0.3456 -0.8896 0.2987
vn -0.3456 -0.8896 0.2987
vn -0.3456 -0.8896 0.2987
vn -0.3456 -0.8896 0.2987
vn -0.0981 -0.8989 0.4271
vn -0.0981 -0.8989 0.4271
vn -0.0981 -0.8989 0.4271
vn -0.0981 -0.8989 0.4271
vn 0.2017 -0.9118 0.3576
vn 0.2017 -0.9118 0.3576
vn 0.2017 -0.9118 0.3576
vn 0.2017 -0.9118 0.3576
vn 0.4062 -0.9066 0.1140
vn 0.4062 -0.9066 0.1140
vn 0.4062 -0.9066 0.1140
vn 0.4062 -0.9066 0.1140
vn 0.4151 -0.8922 -0.1780
vn 0.4151 -0.8922 -0.1780
vn 0.4151 -0.8922 -0.1780
vn 0.4151 -0.8922 -0.1780
vn 0.1849 0.9355 -0.3012
vn 0.1849 0.9355 -0.3012
vn 0.1849 0.9355 -0.3012
vn 0.1849 0.9355 -0.3012
vn -0.0420 0.9446 -0.3254
vn -0.0420 0.9446 -0.3254
vn -0.0420 0.9446 -0.3254
vn -0.0420 0.9446 -0.3254
vn -0.2519 0.9479 -0.1950
vn -0.2519 0.9479 -0.1950
vn -0.2519 0.9479 -0.1950
vn -0.2519 0.9479 -0.1950
vn -0.3408 0.9397 0.0275
vn -0.3408 0.9397 0.0275
vn -0.3408 0.9397 0.0275
vn -0.3408 0.9397 0.0275
vn -0.2707 0.9338 0.2340
vn -0.2707 0.9338 0.2340
vn -0.2707 0.9338 0.2340
vn -0.2707 0.9338 0.2340
vn -0.0766 0.9397 0.3333
vn -0.0766 0.9397 0.3333
vn -0.0766 0.9397 0.3333
vn -0.0766 0.9397 0.3333
vn 0.1565 0.9479 0.2775
vn 0.1565 0.9479 0.2775
vn 0.1565 0.9479 0.2775
vn 0.1565 0.9479 0.2775
vn 0.3159 0.9446 0.0887
vn 0.3159 0.9446 0.0887
vn 0.3159 0.9446 0.0887
vn 0.3159 0.9446 0.0887
vn 0.3248 0.9355 -0.1393
vn 0.3248 0.9355 -0.1393
vn 0.3248 0.9355 -0.1393
vn 0.3248 0.9355 -0.1393
vn 0.5083 0.2358 -0.8283
vn 0.5083 0.2358 -0.8283
vn 0.5083 0.2358 -0.8283
vn 0.5083 0.2358 -0.8283
vn -0.1238 0.2552 -0.9589
vn -0.1238 0.2552 -0.9589
vn -0.1238 0.2552 -0.9589
vn -0.1238 0.2552 -0.9589
vn -0.7629 0.2631 -0.5905
vn -0.7629 0.2631 -0.5905
vn -0.7629 0.2631 -0.5905
vn -0.7629 0.2631 -0.5905
vn -0.9666 0.2443 0.0781
vn -0.9666 0.2443 0.0781
vn -0.9666 0.2443 0.0781
vn -0.9666 0.2443 0.0781
vn -0.7358 0.2326 0.6360
vn -0.7358 0.2326 0.6360
vn -0.7358 0.2326 0.6360
vn -0.7358 0.2326 0.6360
vn -0.2172 0.2443 0.9451
vn -0.2172 0.2443 0.9451
vn -0.2172 0.2443 0.9451
vn -0.2172 0.2443 0.9451
vn 0.4739 0.2631 0.8404
vn 0.4739 0.2631 0.8404
vn 0.4739 0.2631 0.8404
vn 0.4739 0.2631 0.8404
vn 0.9309 0.2552 0.2613
vn 0.9309 0.2552 0.2613
vn 0.9309 0.2552 0.2613
vn 0.9309 0.2552 0.2613
vn 0.8931 0.2358 -0.3830
vn 0.8931 0.2358 -0.3830
vn 0.8931 0.2358 -0.3830
vn 0.8931 0.2358 -0.3830
vn 0.2800 0.8446 -0.4563
vn 0.2800 0.8446 -0.4563
vn 0.2800 0.8446 -0.4563
vn 0.2800 0.8446 -0.4563
vn -0.0645 0.8640 -0.4993
vn -0.0645 0.8640 -0.4993
vn -0.0645 0.8640 -0.4993
vn -0.0645 0.8640 -0.4993
vn -0.3883 0.8711 -0.3006
vn -0.3883 0.8711 -0.3006
vn -0.3883 0.8711 -0.3006
vn -0.3883 0.8711 -0.3006
vn -0.5193 0.8536 0.0419
vn -0.5193 0.8536 0.0419
vn -0.5193 0.8536 0.0419
vn -0.5193 0.8536 0.0419
vn -0.4091 0.8412 0.3536
vn -0.4091 0.8412 0.3536
vn -0.4091 0.8412 0.3536
vn -0.4091 0.8412 0.3536
vn -0.1167 0.8536 0.5078
vn -0.1167 0.8536 0.5078
vn -0.1167 0.8536 0.5078
vn -0.1167 0.8536 0.5078
vn 0.2412 0.8711 0.4278
vn 0.2412 0.8711 0.4278
vn 0.2412 0.8711 0.4278
vn 0.2412 0.8711 0.4278
vn 0.4847 0.8640 0.1361
vn 0.4847 0.8640 0.1361
vn 0.4847 0.8640 0.1361
vn 0.4847 0.8640 0.1361
vn 0.4920 0.8446 -0.2110
vn 0.4920 0.8446 -0.2110
vn 0.4920 0.8446 -0.2110
vn 0.4920 0.8446 -0.2110
vn 0.0137 0.9997 -0.0224
vn 0.0137 0.9997 -0.0224
vn 0.0137 0.9997 -0.0224
vn 0.0137 0.9997 -0.0224
vn -0.0031 0.9997 -0.0239
vn -0.0031 0.9997 -0.0239
vn -0.0031 0.9997 -0.0239
vn -0.0031 0.9997 -0.0239
vn -0.0185 0.9997 -0.0143
vn -0.0185 0.9997 -0.0143
vn -0.0185 0.9997 -0.0143
vn -0.0185 0.9997 -0.0143
vn -0.0252 0.9997 0.0020
vn -0.0252 0.9997 0.0020
vn -0.0252 0.9997 0.0020
vn -0.0252 0.9997 0.0020
vn -0.0201 0.9996 0.0174
vn -0.0201 0.9996 0.0174
vn -0.0201 0.9996 0.0174
vn -0.0201 0.9996 0.0174
vn -0.0057 0.9997 0.0246
vn -0.0057 0.9997 0.0246
vn -0.0057 0.9997 0.0246
vn -0.0057 0.9997 0.0246
vn 0.0115 0.9997 0.0203
vn 0.0115 0.9997 0.0203
vn 0.0115 0.9997 0.0203
vn 0.0115 0.9997 0.0203
vn 0.0232 0.9997 0.0065
vn 0.0232 0.9997 0.0065
vn 0.0232 0.9997 0.0065
vn 0.0232 0.9997 0.0065
vn 0.0241 0.9997 -0.0103
vn 0.0241 0.9997 -0.0103
vn 0.0241 0.9997 -0.0103
vn 0.0241 0.9997 -0.0103
vn 0.0000 1.0000 0.0000
vn 0.0000 1.0000 0.0000
vn 0.0000 1.0000 0.0000
vn 0.0000 1.0000 0.0000
vn 0.0000 1.0000 0.0000
vn 0.0000 1.0000 0.0000
vn 0.0000 1.0000 0.0000
vn 0.0000 1.0000 0.0000
vn 0.0000 1.0000 0.0000
usemtl TF_Utility
f 1/1/1 2/2/2 3/3/3
f 1/1/1 3/3/3 4/4/4
f 5/5/5 6/6/6 7/7/7
f 5/5/5 7/7/7 8/8/8
f 9/9/9 10/10/10 11/11/11
f 9/9/9 11/11/11 12/12/12
f 13/13/13 14/14/14 15/15/15
f 13/13/13 15/15/15 16/16/16
f 17/17/17 18/18/18 19/19/19
f 17/17/17 19/19/19 20/20/20
f 21/21/21 22/22/22 23/23/23
f 21/21/21 23/23/23 24/24/24
f 25/25/25 26/26/26 27/27/27
f 25/25/25 27/27/27 28/28/28
f 29/29/29 30/30/30 31/31/31
f 29/29/29 31/31/31 32/32/32
f 33/33/33 34/34/34 35/35/35
f 33/33/33 35/35/35 36/36/36
f 37/37/37 38/38/38 39/39/39
f 37/37/37 39/39/39 40/40/40
f 41/41/41 42/42/42 43/43/43
f 41/41/41 43/43/43 44/44/44
f 45/45/45 46/46/46 47/47/47
f 45/45/45 47/47/47 48/48/48
f 49/49/49 50/50/50 51/51/51
f 49/49/49 51/51/51 52/52/52
f 53/53/53 54/54/54 55/55/55
f 53/53/53 55/55/55 56/56/56
f 57/57/57 58/58/58 59/59/59
f 57/57/57 59/59/59 60/60/60
f 61/61/61 62/62/62 63/63/63
f 61/61/61 63/63/63 64/64/64
f 65/65/65 66/66/66 67/67/67
f 65/65/65 67/67/67 68/68/68
f 69/69/69 70/70/70 71/71/71
f 69/69/69 71/71/71 72/72/72
f 73/73/73 74/74/74 75/75/75
f 73/73/73 75/75/75 76/76/76
f 77/77/77 78/78/78 79/79/79
f 77/77/77 79/79/79 80/80/80
f 81/81/81 82/82/82 83/83/83
f 81/81/81 83/83/83 84/84/84
f 85/85/85 86/86/86 87/87/87
f 85/85/85 87/87/87 88/88/88
f 89/89/89 90/90/90 91/91/91
f 89/89/89 91/91/91 92/92/92
f 93/93/93 94/94/94 95/95/95
f 93/93/93 95/95/95 96/96/96
f 97/97/97 98/98/98 99/99/99
f 97/97/97 99/99/99 100/100/100
f 101/101/101 102/102/102 103/103/103
f 101/101/101 103/103/103 104/104/104
f 105/105/105 106/106/106 107/107/107
f 105/105/105 107/107/107 108/108/108
f 109/109/109 110/110/110 111/111/111
f 109/109/109 111/111/111 112/112/112
f 113/113/113 114/114/114 115/115/115
f 113/113/113 115/115/115 116/116/116
f 117/117/117 118/118/118 119/119/119
f 117/117/117 119/119/119 120/120/120
f 121/121/121 122/122/122 123/123/123
f 121/121/121 123/123/123 124/124/124
f 125/125/125 126/126/126 127/127/127
f 125/125/125 127/127/127 128/128/128
f 129/129/129 130/130/130 131/131/131
f 129/129/129 131/131/131 132/132/132
f 133/133/133 134/134/134 135/135/135
f 133/133/133 135/135/135 136/136/136
f 137/137/137 138/138/138 139/139/139
f 137/137/137 139/139/139 140/140/140
f 141/141/141 142/142/142 143/143/143
f 141/141/141 143/143/143 144/144/144
f 145/145/145 146/146/146 147/147/147
f 145/145/145 147/147/147 148/148/148
f 149/149/149 150/150/150 151/151/151
f 149/149/149 151/151/151 152/152/152
f 153/153/153 154/154/154 155/155/155
f 153/153/153 155/155/155 156/156/156
f 157/157/157 158/158/158 159/159/159
f 157/157/157 159/159/159 160/160/160
f 161/161/161 162/162/162 163/163/163
f 161/161/161 163/163/163 164/164/164
f 165/165/165 166/166/166 167/167/167
f 165/165/165 167/167/167 168/168/168
f 169/169/169 170/170/170 171/171/171
f 169/169/169 171/171/171 172/172/172
f 173/173/173 174/174/174 175/175/175
f 173/173/173 175/175/175 176/176/176
f 177/177/177 178/178/178 179/179/179
f 177/177/177 179/179/179 180/180/180
f 181/181/181 182/182/182 183/183/183
f 181/181/181 183/183/183 184/184/184
f 185/185/185 186/186/186 187/187/187
f 185/185/185 187/187/187 188/188/188
f 189/189/189 190/190/190 191/191/191
f 189/189/189 191/191/191 192/192/192
f 193/193/193 194/194/194 195/195/195
f 193/193/193 195/195/195 196/196/196
f 197/197/197 198/198/198 199/199/199
f 197/197/197 199/199/199 200/200/200
f 201/201/201 202/202/202 203/203/203
f 201/201/201 203/203/203 204/204/204
f 205/205/205 206/206/206 207/207/207
f 205/205/205 207/207/207 208/208/208
f 209/209/209 210/210/210 211/211/211
f 209/209/209 211/211/211 212/212/212
f 213/213/213 214/214/214 215/215/215
f 213/213/213 215/215/215 216/216/216
f 217/217/217 218/218/218 219/219/219
f 217/217/217 219/219/219 220/220/220
f 221/221/221 222/222/222 223/223/223
f 221/221/221 223/223/223 224/224/224
f 225/225/225 226/226/226 227/227/227
f 225/225/225 227/227/227 228/228/228
f 229/229/229 230/230/230 231/231/231
f 229/229/229 231/231/231 232/232/232
f 233/233/233 234/234/234 235/235/235
f 233/233/233 235/235/235 236/236/236
f 237/237/237 238/238/238 239/239/239
f 237/237/237 239/239/239 240/240/240
f 241/241/241 242/242/242 243/243/243
f 241/241/241 243/243/243 244/244/244
f 245/245/245 246/246/246 247/247/247
f 245/245/245 247/247/247 248/248/248
f 249/249/249 250/250/250 251/251/251
f 249/249/249 251/251/251 252/252/252
f 253/253/253 254/254/254 255/255/255
f 253/253/253 255/255/255 256/256/256
f 253/253/253 256/256/256 257/257/257
f 253/253/253 257/257/257 258/258/258
f 253/253/253 258/258/258 259/259/259
f 253/253/253 259/259/259 260/260/260
f 253/253/253 260/260/260 261/261/261
