# TERRAFRONT procedural asset — generated by Tools/assetgen (deterministic)
# Y-up, +Z forward (muzzle), units = meters, pivot at grip/origin.
# prop_rock_b — TERRAFRONT P3
mtllib tf_utility.mtl
o prop_rock_b
v 0.0180 0.0000 -0.0117
v 0.0022 0.0000 -0.0213
v 0.0581 0.1246 -0.5664
v 0.4801 0.1246 -0.3108
v 0.0022 0.0000 -0.0213
v -0.0153 0.0000 -0.0149
v -0.4076 0.1246 -0.3955
v 0.0581 0.1246 -0.5664
v -0.0153 0.0000 -0.0149
v -0.0213 0.0000 0.0028
v -0.5664 0.1246 0.0733
v -0.4076 0.1246 -0.3955
v -0.0213 0.0000 0.0028
v -0.0112 -0.0000 0.0183
v -0.2987 0.1246 0.4868
v -0.5664 0.1246 0.0733
v -0.0112 -0.0000 0.0183
v 0.0073 -0.0000 0.0201
v 0.1940 0.1246 0.5338
v -0.2987 0.1246 0.4868
v 0.0073 -0.0000 0.0201
v 0.0203 -0.0000 0.0067
v 0.5406 0.1246 0.1788
v 0.1940 0.1246 0.5338
v 0.0203 -0.0000 0.0067
v 0.0180 0.0000 -0.0117
v 0.4801 0.1246 -0.3108
v 0.5406 0.1246 0.1788
v 0.4801 0.1246 -0.3108
v 0.0581 0.1246 -0.5664
v 0.0782 0.2492 -0.7618
v 0.6457 0.2492 -0.4180
v 0.0581 0.1246 -0.5664
v -0.4076 0.1246 -0.3955
v -0.5483 0.2492 -0.5319
v 0.0782 0.2492 -0.7618
v -0.4076 0.1246 -0.3955
v -0.5664 0.1246 0.0733
v -0.7618 0.2492 0.0985
v -0.5483 0.2492 -0.5319
v -0.5664 0.1246 0.0733
v -0.2987 0.1246 0.4868
v -0.4017 0.2492 0.6548
v -0.7618 0.2492 0.0985
v -0.2987 0.1246 0.4868
v 0.1940 0.1246 0.5338
v 0.2609 0.2492 0.7179
v -0.4017 0.2492 0.6548
v 0.1940 0.1246 0.5338
v 0.5406 0.1246 0.1788
v 0.7270 0.2492 0.2405
v 0.2609 0.2492 0.7179
v 0.5406 0.1246 0.1788
v 0.4801 0.1246 -0.3108
v 0.6457 0.2492 -0.4180
v 0.7270 0.2492 0.2405
v 0.6457 0.2492 -0.4180
v 0.0782 0.2492 -0.7618
v 0.1074 0.3738 -1.0464
v 0.8870 0.3738 -0.5742
v 0.0782 0.2492 -0.7618
v -0.5483 0.2492 -0.5319
v -0.7531 0.3738 -0.7306
v 0.1074 0.3738 -1.0464
v -0.5483 0.2492 -0.5319
v -0.7618 0.2492 0.0985
v -1.0465 0.3738 0.1354
v -0.7531 0.3738 -0.7306
v -0.7618 0.2492 0.0985
v -0.4017 0.2492 0.6548
v -0.5519 0.3738 0.8994
v -1.0465 0.3738 0.1354
v -0.4017 0.2492 0.6548
v 0.2609 0.2492 0.7179
v 0.3583 0.3738 0.9862
v -0.5519 0.3738 0.8994
v 0.2609 0.2492 0.7179
v 0.7270 0.2492 0.2405
v 0.9987 0.3738 0.3304
v 0.3583 0.3738 0.9862
v 0.7270 0.2492 0.2405
v 0.6457 0.2492 -0.4180
v 0.8870 0.3738 -0.5742
v 0.9987 0.3738 0.3304
v 0.8870 0.3738 -0.5742
v 0.1074 0.3738 -1.0464
v 0.0816 0.4985 -0.7948
v 0.6737 0.4985 -0.4362
v 0.1074 0.3738 -1.0464
v -0.7531 0.3738 -0.7306
v -0.5720 0.4985 -0.5549
v 0.0816 0.4985 -0.7948
v -0.7531 0.3738 -0.7306
v -1.0465 0.3738 0.1354
v -0.7949 0.4985 0.1028
v -0.5720 0.4985 -0.5549
v -1.0465 0.3738 0.1354
v -0.5519 0.3738 0.8994
v -0.4192 0.4985 0.6831
v -0.7949 0.4985 0.1028
v -0.5519 0.3738 0.8994
v 0.3583 0.3738 0.9862
v 0.2722 0.4985 0.7490
v -0.4192 0.4985 0.6831
v 0.3583 0.3738 0.9862
v 0.9987 0.3738 0.3304
v 0.7586 0.4985 0.2509
v 0.2722 0.4985 0.7490
v 0.9987 0.3738 0.3304
v 0.8870 0.3738 -0.5742
v 0.6737 0.4985 -0.4362
v 0.7586 0.4985 0.2509
v 0.6737 0.4985 -0.4362
v 0.0816 0.4985 -0.7948
v 0.0741 0.6231 -0.7218
v 0.6119 0.6231 -0.3961
v 0.0816 0.4985 -0.7948
v -0.5720 0.4985 -0.5549
v -0.5195 0.6231 -0.5040
v 0.0741 0.6231 -0.7218
v -0.5720 0.4985 -0.5549
v -0.7949 0.4985 0.1028
v -0.7219 0.6231 0.0934
v -0.5195 0.6231 -0.5040
v -0.7949 0.4985 0.1028
v -0.4192 0.4985 0.6831
v -0.3807 0.6231 0.6204
v -0.7219 0.6231 0.0934
v -0.4192 0.4985 0.6831
v 0.2722 0.4985 0.7490
v 0.2472 0.6231 0.6803
v -0.3807 0.6231 0.6204
v 0.2722 0.4985 0.7490
v 0.7586 0.4985 0.2509
v 0.6889 0.6231 0.2279
v 0.2472 0.6231 0.6803
v 0.7586 0.4985 0.2509
v 0.6737 0.4985 -0.4362
v 0.6119 0.6231 -0.3961
v 0.6889 0.6231 0.2279
v 0.6119 0.6231 -0.3961
v 0.0741 0.6231 -0.7218
v 0.0525 0.7477 -0.5113
v 0.4334 0.7477 -0.2806
v 0.0741 0.6231 -0.7218
v -0.5195 0.6231 -0.5040
v -0.3679 0.7477 -0.3570
v 0.0525 0.7477 -0.5113
v -0.5195 0.6231 -0.5040
v -0.7219 0.6231 0.0934
v -0.5113 0.7477 0.0661
v -0.3679 0.7477 -0.3570
v -0.7219 0.6231 0.0934
v -0.3807 0.6231 0.6204
v -0.2696 0.7477 0.4394
v -0.5113 0.7477 0.0661
v -0.3807 0.6231 0.6204
v 0.2472 0.6231 0.6803
v 0.1751 0.7477 0.4818
v -0.2696 0.7477 0.4394
v 0.2472 0.6231 0.6803
v 0.6889 0.6231 0.2279
v 0.4879 0.7477 0.1614
v 0.1751 0.7477 0.4818
v 0.6889 0.6231 0.2279
v 0.6119 0.6231 -0.3961
v 0.4334 0.7477 -0.2806
v 0.4879 0.7477 0.1614
v 0.4334 0.7477 -0.2806
v 0.0525 0.7477 -0.5113
v 0.0033 0.7627 -0.0319
v 0.0271 0.7627 -0.0175
v 0.0525 0.7477 -0.5113
v -0.3679 0.7477 -0.3570
v -0.0230 0.7627 -0.0223
v 0.0033 0.7627 -0.0319
v -0.3679 0.7477 -0.3570
v -0.5113 0.7477 0.0661
v -0.0319 0.7627 0.0041
v -0.0230 0.7627 -0.0223
v -0.5113 0.7477 0.0661
v -0.2696 0.7477 0.4394
v -0.0168 0.7627 0.0275
v -0.0319 0.7627 0.0041
v -0.2696 0.7477 0.4394
v 0.1751 0.7477 0.4818
v 0.0109 0.7627 0.0301
v -0.0168 0.7627 0.0275
v 0.1751 0.7477 0.4818
v 0.4879 0.7477 0.1614
v 0.0305 0.7627 0.0101
v 0.0109 0.7627 0.0301
v 0.4879 0.7477 0.1614
v 0.4334 0.7477 -0.2806
v 0.0271 0.7627 -0.0175
v 0.0305 0.7627 0.0101
v 0.0271 0.7627 -0.0175
v 0.0033 0.7627 -0.0319
v -0.0230 0.7627 -0.0223
v -0.0319 0.7627 0.0041
v -0.0168 0.7627 0.0275
v 0.0109 0.7627 0.0301
v 0.0305 0.7627 0.0101
vt 0.6300 0.3772
vt 0.6281 0.3761
vt 0.6347 0.3111
vt 0.6846 0.3416
vt 0.6281 0.3761
vt 0.6260 0.3768
vt 0.5796 0.3315
vt 0.6347 0.3111
vt 0.6260 0.3768
vt 0.6253 0.3789
vt 0.5608 0.3873
vt 0.5796 0.3315
vt 0.6253 0.3789
vt 0.6265 0.3808
vt 0.5925 0.4365
vt 0.5608 0.3873
vt 0.6265 0.3808
vt 0.6287 0.3810
vt 0.6508 0.4421
vt 0.5925 0.4365
vt 0.6287 0.3810
vt 0.6302 0.3794
vt 0.6918 0.3999
vt 0.6508 0.4421
vt 0.6302 0.3794
vt 0.6300 0.3772
vt 0.6846 0.3416
vt 0.6918 0.3999
vt 0.6846 0.3416
vt 0.6347 0.3111
vt 0.6371 0.2879
vt 0.7042 0.3288
vt 0.6347 0.3111
vt 0.5796 0.3315
vt 0.5630 0.3153
vt 0.6371 0.2879
vt 0.5796 0.3315
vt 0.5608 0.3873
vt 0.5377 0.3903
vt 0.5630 0.3153
vt 0.5608 0.3873
vt 0.5925 0.4365
vt 0.5803 0.4565
vt 0.5377 0.3903
vt 0.5925 0.4365
vt 0.6508 0.4421
vt 0.6587 0.4641
vt 0.5803 0.4565
vt 0.6508 0.4421
vt 0.6918 0.3999
vt 0.7139 0.4072
vt 0.6587 0.4641
vt 0.6918 0.3999
vt 0.6846 0.3416
vt 0.7042 0.3288
vt 0.7139 0.4072
vt 0.7042 0.3288
vt 0.6371 0.2879
vt 0.6405 0.2540
vt 0.7328 0.3102
vt 0.6371 0.2879
vt 0.5630 0.3153
vt 0.5387 0.2916
vt 0.6405 0.2540
vt 0.5630 0.3153
vt 0.5377 0.3903
vt 0.5040 0.3947
vt 0.5387 0.2916
vt 0.5377 0.3903
vt 0.5803 0.4565
vt 0.5625 0.4857
vt 0.5040 0.3947
vt 0.5803 0.4565
vt 0.6587 0.4641
vt 0.6702 0.4960
vt 0.5625 0.4857
vt 0.6587 0.4641
vt 0.7139 0.4072
vt 0.7460 0.4179
vt 0.6702 0.4960
vt 0.7139 0.4072
vt 0.7042 0.3288
vt 0.7328 0.3102
vt 0.7460 0.4179
vt 0.7328 0.3102
vt 0.6405 0.2540
vt 0.6375 0.2840
vt 0.7075 0.3267
vt 0.6405 0.2540
vt 0.5387 0.2916
vt 0.5601 0.3125
vt 0.6375 0.2840
vt 0.5387 0.2916
vt 0.5040 0.3947
vt 0.5338 0.3908
vt 0.5601 0.3125
vt 0.5040 0.3947
vt 0.5625 0.4857
vt 0.5782 0.4599
vt 0.5338 0.3908
vt 0.5625 0.4857
vt 0.6702 0.4960
vt 0.6600 0.4678
vt 0.5782 0.4599
vt 0.6702 0.4960
vt 0.7460 0.4179
vt 0.7176 0.4085
vt 0.6600 0.4678
vt 0.7460 0.4179
vt 0.7328 0.3102
vt 0.7075 0.3267
vt 0.7176 0.4085
vt 0.7075 0.4122
vt 0.6375 0.4122
vt 0.6366 0.4517
vt 0.7002 0.4517
vt 0.6375 0.4122
vt 0.5601 0.4122
vt 0.5664 0.4517
vt 0.6366 0.4517
vt 0.5625 0.4122
vt 0.6408 0.4122
vt 0.6397 0.4517
vt 0.5686 0.4517
vt 0.6408 0.4122
vt 0.7099 0.4122
vt 0.7025 0.4517
vt 0.6397 0.4517
vt 0.5782 0.4122
vt 0.6600 0.4122
vt 0.6571 0.4517
vt 0.5828 0.4517
vt 0.7178 0.4122
vt 0.6585 0.4122
vt 0.6557 0.4517
vt 0.7096 0.4517
vt 0.6585 0.4122
vt 0.5767 0.4122
vt 0.5814 0.4517
vt 0.6557 0.4517
vt 0.7002 0.3314
vt 0.6366 0.2926
vt 0.6340 0.3177
vt 0.6791 0.3452
vt 0.6366 0.2926
vt 0.5664 0.3186
vt 0.5843 0.3361
vt 0.6340 0.3177
vt 0.5664 0.3186
vt 0.5424 0.3897
vt 0.5673 0.3865
vt 0.5843 0.3361
vt 0.5424 0.3897
vt 0.5828 0.4525
vt 0.5959 0.4309
vt 0.5673 0.3865
vt 0.5828 0.4525
vt 0.6571 0.4596
vt 0.6485 0.4360
vt 0.5959 0.4309
vt 0.6571 0.4596
vt 0.7093 0.4057
vt 0.6856 0.3978
vt 0.6485 0.4360
vt 0.7093 0.4057
vt 0.7002 0.3314
vt 0.6791 0.3452
vt 0.6856 0.3978
vt 0.6791 0.3452
vt 0.6340 0.3177
vt 0.6282 0.3748
vt 0.6310 0.3765
vt 0.6340 0.3177
vt 0.5843 0.3361
vt 0.6251 0.3759
vt 0.6282 0.3748
vt 0.5843 0.3361
vt 0.5673 0.3865
vt 0.6240 0.3791
vt 0.6251 0.3759
vt 0.5673 0.3865
vt 0.5959 0.4309
vt 0.6258 0.3819
vt 0.6240 0.3791
vt 0.5959 0.4309
vt 0.6485 0.4360
vt 0.6291 0.3822
vt 0.6258 0.3819
vt 0.6485 0.4360
vt 0.6856 0.3978
vt 0.6314 0.3798
vt 0.6291 0.3822
vt 0.6856 0.3978
vt 0.6791 0.3452
vt 0.6310 0.3765
vt 0.6314 0.3798
vt 0.6310 0.3765
vt 0.6282 0.3748
vt 0.6251 0.3759
vt 0.6240 0.3791
vt 0.6258 0.3819
vt 0.6291 0.3822
vt 0.6314 0.3798
vn 0.1264 -0.9698 -0.2087
vn 0.1264 -0.9698 -0.2087
vn 0.1264 -0.9698 -0.2087
vn 0.1264 -0.9698 -0.2087
vn -0.0845 -0.9694 -0.2303
vn -0.0845 -0.9694 -0.2303
vn -0.0845 -0.9694 -0.2303
vn -0.0845 -0.9694 -0.2303
vn -0.2318 -0.9696 -0.0785
vn -0.2318 -0.9696 -0.0785
vn -0.2318 -0.9696 -0.0785
vn -0.2318 -0.9696 -0.0785
vn -0.2046 -0.9699 0.1324
vn -0.2046 -0.9699 0.1324
vn -0.2046 -0.9699 0.1324
vn -0.2046 -0.9699 0.1324
vn -0.0232 -0.9696 0.2436
vn -0.0232 -0.9696 0.2436
vn -0.0232 -0.9696 0.2436
vn -0.0232 -0.9696 0.2436
vn 0.1755 -0.9694 0.1714
vn 0.1755 -0.9694 0.1714
vn 0.1755 -0.9694 0.1714
vn 0.1755 -0.9694 0.1714
vn 0.2422 -0.9698 -0.0299
vn 0.2422 -0.9698 -0.0299
vn 0.2422 -0.9698 -0.0299
vn 0.2422 -0.9698 -0.0299
vn 0.2977 -0.8184 -0.4915
vn 0.2977 -0.8184 -0.4915
vn 0.2977 -0.8184 -0.4915
vn 0.2977 -0.8184 -0.4915
vn -0.1987 -0.8169 -0.5414
vn -0.1987 -0.8169 -0.5414
vn -0.1987 -0.8169 -0.5414
vn -0.1987 -0.8169 -0.5414
vn -0.5453 -0.8176 -0.1848
vn -0.5453 -0.8176 -0.1848
vn -0.5453 -0.8176 -0.1848
vn -0.5453 -0.8176 -0.1848
vn -0.4819 -0.8188 0.3120
vn -0.4819 -0.8188 0.3120
vn -0.4819 -0.8188 0.3120
vn -0.4819 -0.8188 0.3120
vn -0.0547 -0.8176 0.5732
vn -0.0547 -0.8176 0.5732
vn -0.0547 -0.8176 0.5732
vn -0.0547 -0.8176 0.5732
vn 0.4127 -0.8169 0.4029
vn 0.4127 -0.8169 0.4029
vn 0.4127 -0.8169 0.4029
vn 0.4127 -0.8169 0.4029
vn 0.5703 -0.8184 -0.0704
vn 0.5703 -0.8184 -0.0704
vn 0.5703 -0.8184 -0.0704
vn 0.5703 -0.8184 -0.0704
vn 0.2249 -0.9009 -0.3713
vn 0.2249 -0.9009 -0.3713
vn 0.2249 -0.9009 -0.3713
vn 0.2249 -0.9009 -0.3713
vn -0.1503 -0.8999 -0.4094
vn -0.1503 -0.8999 -0.4094
vn -0.1503 -0.8999 -0.4094
vn -0.1503 -0.8999 -0.4094
vn -0.4122 -0.9003 -0.1397
vn -0.4122 -0.9003 -0.1397
vn -0.4122 -0.9003 -0.1397
vn -0.4122 -0.9003 -0.1397
vn -0.3640 -0.9011 0.2357
vn -0.3640 -0.9011 0.2357
vn -0.3640 -0.9011 0.2357
vn -0.3640 -0.9011 0.2357
vn -0.0413 -0.9003 0.4333
vn -0.0413 -0.9003 0.4333
vn -0.0413 -0.9003 0.4333
vn -0.0413 -0.9003 0.4333
vn 0.3120 -0.8999 0.3047
vn 0.3120 -0.8999 0.3047
vn 0.3120 -0.8999 0.3047
vn 0.3120 -0.8999 0.3047
vn 0.4309 -0.9009 -0.0532
vn 0.4309 -0.9009 -0.0532
vn 0.4309 -0.9009 -0.0532
vn 0.4309 -0.9009 -0.0532
vn 0.2480 0.8780 -0.4094
vn 0.2480 0.8780 -0.4094
vn 0.2480 0.8780 -0.4094
vn 0.2480 0.8780 -0.4094
vn -0.1656 0.8769 -0.4513
vn -0.1656 0.8769 -0.4513
vn -0.1656 0.8769 -0.4513
vn -0.1656 0.8769 -0.4513
vn -0.4544 0.8774 -0.1540
vn -0.4544 0.8774 -0.1540
vn -0.4544 0.8774 -0.1540
vn -0.4544 0.8774 -0.1540
vn -0.4013 0.8783 0.2598
vn -0.4013 0.8783 0.2598
vn -0.4013 0.8783 0.2598
vn -0.4013 0.8783 0.2598
vn -0.0455 0.8774 0.4776
vn -0.0455 0.8774 0.4776
vn -0.0455 0.8774 0.4776
vn -0.0455 0.8774 0.4776
vn 0.3439 0.8769 0.3358
vn 0.3439 0.8769 0.3358
vn 0.3439 0.8769 0.3358
vn 0.3439 0.8769 0.3358
vn 0.4750 0.8780 -0.0586
vn 0.4750 0.8780 -0.0586
vn 0.4750 0.8780 -0.0586
vn 0.4750 0.8780 -0.0586
vn 0.4573 0.4697 -0.7551
vn 0.4573 0.4697 -0.7551
vn 0.4573 0.4697 -0.7551
vn 0.4573 0.4697 -0.7551
vn -0.3045 0.4676 -0.8298
vn -0.3045 0.4676 -0.8298
vn -0.3045 0.4676 -0.8298
vn -0.3045 0.4676 -0.8298
vn -0.8367 0.4685 -0.2835
vn -0.8367 0.4685 -0.2835
vn -0.8367 0.4685 -0.2835
vn -0.8367 0.4685 -0.2835
vn -0.7409 0.4702 0.4796
vn -0.7409 0.4702 0.4796
vn -0.7409 0.4702 0.4796
vn -0.7409 0.4702 0.4796
vn -0.0839 0.4685 0.8795
vn -0.0839 0.4685 0.8795
vn -0.0839 0.4685 0.8795
vn -0.0839 0.4685 0.8795
vn 0.6325 0.4676 0.6175
vn 0.6325 0.4676 0.6175
vn 0.6325 0.4676 0.6175
vn 0.6325 0.4676 0.6175
vn 0.8762 0.4697 -0.1082
vn 0.8762 0.4697 -0.1082
vn 0.8762 0.4697 -0.1082
vn 0.8762 0.4697 -0.1082
vn 0.2827 0.8379 -0.4669
vn 0.2827 0.8379 -0.4669
vn 0.2827 0.8379 -0.4669
vn 0.2827 0.8379 -0.4669
vn -0.1888 0.8365 -0.5144
vn -0.1888 0.8365 -0.5144
vn -0.1888 0.8365 -0.5144
vn -0.1888 0.8365 -0.5144
vn -0.5181 0.8371 -0.1755
vn -0.5181 0.8371 -0.1755
vn -0.5181 0.8371 -0.1755
vn -0.5181 0.8371 -0.1755
vn -0.4577 0.8383 0.2963
vn -0.4577 0.8383 0.2963
vn -0.4577 0.8383 0.2963
vn -0.4577 0.8383 0.2963
vn -0.0519 0.8371 0.5445
vn -0.0519 0.8371 0.5445
vn -0.0519 0.8371 0.5445
vn -0.0519 0.8371 0.5445
vn 0.3921 0.8365 0.3828
vn 0.3921 0.8365 0.3828
vn 0.3921 0.8365 0.3828
vn 0.3921 0.8365 0.3828
vn 0.5417 0.8379 -0.0669
vn 0.5417 0.8379 -0.0669
vn 0.5417 0.8379 -0.0669
vn 0.5417 0.8379 -0.0669
vn 0.0178 0.9994 -0.0294
vn 0.0178 0.9994 -0.0294
vn 0.0178 0.9994 -0.0294
vn 0.0178 0.9994 -0.0294
vn -0.0119 0.9994 -0.0324
vn -0.0119 0.9994 -0.0324
vn -0.0119 0.9994 -0.0324
vn -0.0119 0.9994 -0.0324
vn -0.0326 0.9994 -0.0110
vn -0.0326 0.9994 -0.0110
vn -0.0326 0.9994 -0.0110
vn -0.0326 0.9994 -0.0110
vn -0.0288 0.9994 0.0186
vn -0.0288 0.9994 0.0186
vn -0.0288 0.9994 0.0186
vn -0.0288 0.9994 0.0186
vn -0.0033 0.9994 0.0343
vn -0.0033 0.9994 0.0343
vn -0.0033 0.9994 0.0343
vn -0.0033 0.9994 0.0343
vn 0.0247 0.9994 0.0241
vn 0.0247 0.9994 0.0241
vn 0.0247 0.9994 0.0241
vn 0.0247 0.9994 0.0241
vn 0.0341 0.9994 -0.0042
vn 0.0341 0.9994 -0.0042
vn 0.0341 0.9994 -0.0042
vn 0.0341 0.9994 -0.0042
vn 0.0000 1.0000 -0.0000
vn 0.0000 1.0000 -0.0000
vn 0.0000 1.0000 -0.0000
vn 0.0000 1.0000 -0.0000
vn 0.0000 1.0000 -0.0000
vn 0.0000 1.0000 -0.0000
vn 0.0000 1.0000 -0.0000
usemtl TF_Utility
f 1/1/1 2/2/2 3/3/3
f 1/1/1 3/3/3 4/4/4
f 5/5/5 6/6/6 7/7/7
f 5/5/5 7/7/7 8/8/8
f 9/9/9 10/10/10 11/11/11
f 9/9/9 11/11/11 12/12/12
f 13/13/13 14/14/14 15/15/15
f 13/13/13 15/15/15 16/16/16
f 17/17/17 18/18/18 19/19/19
f 17/17/17 19/19/19 20/20/20
f 21/21/21 22/22/22 23/23/23
f 21/21/21 23/23/23 24/24/24
f 25/25/25 26/26/26 27/27/27
f 25/25/25 27/27/27 28/28/28
f 29/29/29 30/30/30 31/31/31
f 29/29/29 31/31/31 32/32/32
f 33/33/33 34/34/34 35/35/35
f 33/33/33 35/35/35 36/36/36
f 37/37/37 38/38/38 39/39/39
f 37/37/37 39/39/39 40/40/40
f 41/41/41 42/42/42 43/43/43
f 41/41/41 43/43/43 44/44/44
f 45/45/45 46/46/46 47/47/47
f 45/45/45 47/47/47 48/48/48
f 49/49/49 50/50/50 51/51/51
f 49/49/49 51/51/51 52/52/52
f 53/53/53 54/54/54 55/55/55
f 53/53/53 55/55/55 56/56/56
f 57/57/57 58/58/58 59/59/59
f 57/57/57 59/59/59 60/60/60
f 61/61/61 62/62/62 63/63/63
f 61/61/61 63/63/63 64/64/64
f 65/65/65 66/66/66 67/67/67
f 65/65/65 67/67/67 68/68/68
f 69/69/69 70/70/70 71/71/71
f 69/69/69 71/71/71 72/72/72
f 73/73/73 74/74/74 75/75/75
f 73/73/73 75/75/75 76/76/76
f 77/77/77 78/78/78 79/79/79
f 77/77/77 79/79/79 80/80/80
f 81/81/81 82/82/82 83/83/83
f 81/81/81 83/83/83 84/84/84
f 85/85/85 86/86/86 87/87/87
f 85/85/85 87/87/87 88/88/88
f 89/89/89 90/90/90 91/91/91
f 89/89/89 91/91/91 92/92/92
f 93/93/93 94/94/94 95/95/95
f 93/93/93 95/95/95 96/96/96
f 97/97/97 98/98/98 99/99/99
f 97/97/97 99/99/99 100/100/100
f 101/101/101 102/102/102 103/103/103
f 101/101/101 103/103/103 104/104/104
f 105/105/105 106/106/106 107/107/107
f 105/105/105 107/107/107 108/108/108
f 109/109/109 110/110/110 111/111/111
f 109/109/109 111/111/111 112/112/112
f 113/113/113 114/114/114 115/115/115
f 113/113/113 115/115/115 116/116/116
f 117/117/117 118/118/118 119/119/119
f 117/117/117 119/119/119 120/120/120
f 121/121/121 122/122/122 123/123/123
f 121/121/121 123/123/123 124/124/124
f 125/125/125 126/126/126 127/127/127
f 125/125/125 127/127/127 128/128/128
f 129/129/129 130/130/130 131/131/131
f 129/129/129 131/131/131 132/132/132
f 133/133/133 134/134/134 135/135/135
f 133/133/133 135/135/135 136/136/136
f 137/137/137 138/138/138 139/139/139
f 137/137/137 139/139/139 140/140/140
f 141/141/141 142/142/142 143/143/143
f 141/141/141 143/143/143 144/144/144
f 145/145/145 146/146/146 147/147/147
f 145/145/145 147/147/147 148/148/148
f 149/149/149 150/150/150 151/151/151
f 149/149/149 151/151/151 152/152/152
f 153/153/153 154/154/154 155/155/155
f 153/153/153 155/155/155 156/156/156
f 157/157/157 158/158/158 159/159/159
f 157/157/157 159/159/159 160/160/160
f 161/161/161 162/162/162 163/163/163
f 161/161/161 163/163/163 164/164/164
f 165/165/165 166/166/166 167/167/167
f 165/165/165 167/167/167 168/168/168
f 169/169/169 170/170/170 171/171/171
f 169/169/169 171/171/171 172/172/172
f 173/173/173 174/174/174 175/175/175
f 173/173/173 175/175/175 176/176/176
f 177/177/177 178/178/178 179/179/179
f 177/177/177 179/179/179 180/180/180
f 181/181/181 182/182/182 183/183/183
f 181/181/181 183/183/183 184/184/184
f 185/185/185 186/186/186 187/187/187
f 185/185/185 187/187/187 188/188/188
f 189/189/189 190/190/190 191/191/191
f 189/189/189 191/191/191 192/192/192
f 193/193/193 194/194/194 195/195/195
f 193/193/193 195/195/195 196/196/196
f 197/197/197 198/198/198 199/199/199
f 197/197/197 199/199/199 200/200/200
f 197/197/197 200/200/200 201/201/201
f 197/197/197 201/201/201 202/202/202
f 197/197/197 202/202/202 203/203/203
