# TERRAFRONT procedural asset — generated by Tools/assetgen (deterministic)
# Y-up, +Z forward (muzzle), units = meters, pivot at grip/origin.
# prop_floodlight — TERRAFRONT P3
mtllib tf_utility.mtl
o prop_floodlight
v -0.4300 0.0200 -0.4500
v -0.4300 0.1600 -0.4500
v 0.4300 0.1600 -0.4500
v 0.4300 0.0200 -0.4500
v 0.4300 0.0200 0.4500
v 0.4300 0.1600 0.4500
v -0.4300 0.1600 0.4500
v -0.4300 0.0200 0.4500
v -0.4300 0.1800 -0.4300
v -0.4300 0.1800 0.4300
v 0.4300 0.1800 0.4300
v 0.4300 0.1800 -0.4300
v -0.4300 0.0000 -0.4300
v 0.4300 0.0000 -0.4300
v 0.4300 0.0000 0.4300
v -0.4300 0.0000 0.4300
v 0.4500 0.0200 -0.4300
v 0.4500 0.1600 -0.4300
v 0.4500 0.1600 0.4300
v 0.4500 0.0200 0.4300
v -0.4500 0.0200 0.4300
v -0.4500 0.1600 0.4300
v -0.4500 0.1600 -0.4300
v -0.4500 0.0200 -0.4300
v -0.4300 0.1800 -0.4300
v 0.4300 0.1800 -0.4300
v 0.4300 0.1600 -0.4500
v -0.4300 0.1600 -0.4500
v 0.4300 0.1800 0.4300
v -0.4300 0.1800 0.4300
v -0.4300 0.1600 0.4500
v 0.4300 0.1600 0.4500
v 0.4300 0.0000 -0.4300
v -0.4300 0.0000 -0.4300
v -0.4300 0.0200 -0.4500
v 0.4300 0.0200 -0.4500
v -0.4300 0.0000 0.4300
v 0.4300 0.0000 0.4300
v 0.4300 0.0200 0.4500
v -0.4300 0.0200 0.4500
v 0.4500 0.1600 -0.4300
v 0.4500 0.1600 0.4300
v 0.4300 0.1800 0.4300
v 0.4300 0.1800 -0.4300
v 0.4500 0.0200 0.4300
v 0.4500 0.0200 -0.4300
v 0.4300 0.0000 -0.4300
v 0.4300 0.0000 0.4300
v -0.4500 0.1600 0.4300
v -0.4500 0.1600 -0.4300
v -0.4300 0.1800 -0.4300
v -0.4300 0.1800 0.4300
v -0.4500 0.0200 -0.4300
v -0.4500 0.0200 0.4300
v -0.4300 0.0000 0.4300
v -0.4300 0.0000 -0.4300
v 0.4500 0.1600 -0.4300
v 0.4300 0.1600 -0.4500
v 0.4300 0.0200 -0.4500
v 0.4500 0.0200 -0.4300
v 0.4500 0.0200 0.4300
v 0.4300 0.0200 0.4500
v 0.4300 0.1600 0.4500
v 0.4500 0.1600 0.4300
v -0.4500 0.0200 -0.4300
v -0.4300 0.0200 -0.4500
v -0.4300 0.1600 -0.4500
v -0.4500 0.1600 -0.4300
v -0.4500 0.1600 0.4300
v -0.4300 0.1600 0.4500
v -0.4300 0.0200 0.4500
v -0.4500 0.0200 0.4300
v 0.4300 0.1800 0.4300
v 0.4500 0.1600 0.4300
v 0.4300 0.1600 0.4500
v -0.4300 0.1600 0.4500
v -0.4500 0.1600 0.4300
v -0.4300 0.1800 0.4300
v 0.4300 0.0200 0.4500
v 0.4500 0.0200 0.4300
v 0.4300 0.0000 0.4300
v -0.4300 0.0000 0.4300
v -0.4500 0.0200 0.4300
v -0.4300 0.0200 0.4500
v 0.4300 0.1600 -0.4500
v 0.4500 0.1600 -0.4300
v 0.4300 0.1800 -0.4300
v -0.4300 0.1800 -0.4300
v -0.4500 0.1600 -0.4300
v -0.4300 0.1600 -0.4500
v 0.4300 0.0000 -0.4300
v 0.4500 0.0200 -0.4300
v 0.4300 0.0200 -0.4500
v -0.4300 0.0200 -0.4500
v -0.4500 0.0200 -0.4300
v -0.4300 0.0000 -0.4300
v 0.0800 4.4000 -0.0000
v 0.0566 4.4000 0.0566
v 0.0424 0.2000 0.0424
v 0.0600 0.2000 0.0000
v 0.0566 4.4000 0.0566
v 0.0000 4.4000 0.0800
v 0.0000 0.2000 0.0600
v 0.0424 0.2000 0.0424
v 0.0000 4.4000 0.0800
v -0.0566 4.4000 0.0566
v -0.0424 0.2000 0.0424
v 0.0000 0.2000 0.0600
v -0.0566 4.4000 0.0566
v -0.0800 4.4000 -0.0000
v -0.0600 0.2000 0.0000
v -0.0424 0.2000 0.0424
v -0.0800 4.4000 -0.0000
v -0.0566 4.4000 -0.0566
v -0.0424 0.2000 -0.0424
v -0.0600 0.2000 0.0000
v -0.0566 4.4000 -0.0566
v -0.0000 4.4000 -0.0800
v -0.0000 0.2000 -0.0600
v -0.0424 0.2000 -0.0424
v -0.0000 4.4000 -0.0800
v 0.0566 4.4000 -0.0566
v 0.0424 0.2000 -0.0424
v -0.0000 0.2000 -0.0600
v 0.0566 4.4000 -0.0566
v 0.0800 4.4000 -0.0000
v 0.0600 0.2000 0.0000
v 0.0424 0.2000 -0.0424
v 0.0566 4.4000 -0.0566
v -0.0000 4.4000 -0.0800
v -0.0566 4.4000 -0.0566
v -0.0800 4.4000 -0.0000
v -0.0566 4.4000 0.0566
v 0.0000 4.4000 0.0800
v 0.0566 4.4000 0.0566
v 0.0800 4.4000 -0.0000
v 0.0600 0.2000 0.0000
v 0.0424 0.2000 0.0424
v 0.0000 0.2000 0.0600
v -0.0424 0.2000 0.0424
v -0.0600 0.2000 0.0000
v -0.0424 0.2000 -0.0424
v -0.0000 0.2000 -0.0600
v 0.0424 0.2000 -0.0424
v -0.4200 4.4046 -0.0672
v -0.4200 4.6152 0.0478
v 0.4200 4.6152 0.0478
v 0.4200 4.4046 -0.0672
v 0.4200 4.2848 0.1522
v 0.4200 4.4954 0.2672
v -0.4200 4.4954 0.2672
v -0.4200 4.2848 0.1522
v -0.4200 4.6272 0.0885
v -0.4200 4.5361 0.2553
v 0.4200 4.5361 0.2553
v 0.4200 4.6272 0.0885
v -0.4200 4.3639 -0.0553
v 0.4200 4.3639 -0.0553
v 0.4200 4.2728 0.1115
v -0.4200 4.2728 0.1115
v 0.4500 4.3902 -0.0409
v 0.4500 4.6009 0.0742
v 0.4500 4.5098 0.2409
v 0.4500 4.2991 0.1258
v -0.4500 4.2991 0.1258
v -0.4500 4.5098 0.2409
v -0.4500 4.6009 0.0742
v -0.4500 4.3902 -0.0409
v -0.4200 4.6272 0.0885
v 0.4200 4.6272 0.0885
v 0.4200 4.6152 0.0478
v -0.4200 4.6152 0.0478
v 0.4200 4.5361 0.2553
v -0.4200 4.5361 0.2553
v -0.4200 4.4954 0.2672
v 0.4200 4.4954 0.2672
v 0.4200 4.3639 -0.0553
v -0.4200 4.3639 -0.0553
v -0.4200 4.4046 -0.0672
v 0.4200 4.4046 -0.0672
v -0.4200 4.2728 0.1115
v 0.4200 4.2728 0.1115
v 0.4200 4.2848 0.1522
v -0.4200 4.2848 0.1522
v 0.4500 4.6009 0.0742
v 0.4500 4.5098 0.2409
v 0.4200 4.5361 0.2553
v 0.4200 4.6272 0.0885
v 0.4500 4.2991 0.1258
v 0.4500 4.3902 -0.0409
v 0.4200 4.3639 -0.0553
v 0.4200 4.2728 0.1115
v -0.4500 4.5098 0.2409
v -0.4500 4.6009 0.0742
v -0.4200 4.6272 0.0885
v -0.4200 4.5361 0.2553
v -0.4500 4.3902 -0.0409
v -0.4500 4.2991 0.1258
v -0.4200 4.2728 0.1115
v -0.4200 4.3639 -0.0553
v 0.4500 4.6009 0.0742
v 0.4200 4.6152 0.0478
v 0.4200 4.4046 -0.0672
v 0.4500 4.3902 -0.0409
v 0.4500 4.2991 0.1258
v 0.4200 4.2848 0.1522
v 0.4200 4.4954 0.2672
v 0.4500 4.5098 0.2409
v -0.4500 4.3902 -0.0409
v -0.4200 4.4046 -0.0672
v -0.4200 4.6152 0.0478
v -0.4500 4.6009 0.0742
v -0.4500 4.5098 0.2409
v -0.4200 4.4954 0.2672
v -0.4200 4.2848 0.1522
v -0.4500 4.2991 0.1258
v 0.4200 4.5361 0.2553
v 0.4500 4.5098 0.2409
v 0.4200 4.4954 0.2672
v -0.4200 4.4954 0.2672
v -0.4500 4.5098 0.2409
v -0.4200 4.5361 0.2553
v 0.4200 4.2848 0.1522
v 0.4500 4.2991 0.1258
v 0.4200 4.2728 0.1115
v -0.4200 4.2728 0.1115
v -0.4500 4.2991 0.1258
v -0.4200 4.2848 0.1522
v 0.4200 4.6152 0.0478
v 0.4500 4.6009 0.0742
v 0.4200 4.6272 0.0885
v -0.4200 4.6272 0.0885
v -0.4500 4.6009 0.0742
v -0.4200 4.6152 0.0478
v 0.4200 4.3639 -0.0553
v 0.4500 4.3902 -0.0409
v 0.4200 4.4046 -0.0672
v -0.4200 4.4046 -0.0672
v -0.4500 4.3902 -0.0409
v -0.4200 4.3639 -0.0553
v -0.4000 4.3466 0.1457
v -0.4000 4.5221 0.2416
v 0.4000 4.5221 0.2416
v 0.4000 4.3466 0.1457
v 0.4000 4.3179 0.1984
v 0.4000 4.4934 0.2943
v -0.4000 4.4934 0.2943
v -0.4000 4.3179 0.1984
v -0.4000 4.5221 0.2416
v -0.4000 4.4934 0.2943
v 0.4000 4.4934 0.2943
v 0.4000 4.5221 0.2416
v -0.4000 4.3466 0.1457
v 0.4000 4.3466 0.1457
v 0.4000 4.3179 0.1984
v -0.4000 4.3179 0.1984
v 0.4000 4.3466 0.1457
v 0.4000 4.5221 0.2416
v 0.4000 4.4934 0.2943
v 0.4000 4.3179 0.1984
v -0.4000 4.3179 0.1984
v -0.4000 4.4934 0.2943
v -0.4000 4.5221 0.2416
v -0.4000 4.3466 0.1457
vt 0.5094 0.2809
vt 0.5094 0.4691
vt 0.7406 0.4691
vt 0.7406 0.2809
vt 0.7406 0.2809
vt 0.7406 0.4691
vt 0.5094 0.4691
vt 0.5094 0.2809
vt 0.5094 0.2594
vt 0.5094 0.4906
vt 0.7406 0.4906
vt 0.7406 0.2594
vt 0.5094 0.2594
vt 0.7406 0.2594
vt 0.7406 0.4906
vt 0.5094 0.4906
vt 0.5094 0.2809
vt 0.5094 0.4691
vt 0.7406 0.4691
vt 0.7406 0.2809
vt 0.7406 0.2809
vt 0.7406 0.4691
vt 0.5094 0.4691
vt 0.5094 0.2809
vt 0.5094 0.4960
vt 0.7406 0.4960
vt 0.7406 0.4691
vt 0.5094 0.4691
vt 0.7406 0.4960
vt 0.5094 0.4960
vt 0.5094 0.4691
vt 0.7406 0.4691
vt 0.7406 0.2594
vt 0.5094 0.2594
vt 0.5094 0.2540
vt 0.7406 0.2540
vt 0.5094 0.4906
vt 0.7406 0.4906
vt 0.7406 0.4960
vt 0.5094 0.4960
vt 0.7460 0.2594
vt 0.7460 0.4906
vt 0.7406 0.4906
vt 0.7406 0.2594
vt 0.7460 0.4906
vt 0.7460 0.2594
vt 0.7406 0.2594
vt 0.7406 0.4906
vt 0.5040 0.4906
vt 0.5040 0.2594
vt 0.5094 0.2594
vt 0.5094 0.4906
vt 0.5040 0.2594
vt 0.5040 0.4906
vt 0.5094 0.4906
vt 0.5094 0.2594
vt 0.5094 0.4691
vt 0.5040 0.4691
vt 0.5040 0.2809
vt 0.5094 0.2809
vt 0.7406 0.2809
vt 0.7460 0.2809
vt 0.7460 0.4691
vt 0.7406 0.4691
vt 0.5094 0.2809
vt 0.5040 0.2809
vt 0.5040 0.4691
vt 0.5094 0.4691
vt 0.7406 0.4691
vt 0.7460 0.4691
vt 0.7460 0.2809
vt 0.7406 0.2809
vt 0.7406 0.4960
vt 0.7406 0.4691
vt 0.7460 0.4691
vt 0.7460 0.4691
vt 0.7406 0.4691
vt 0.7406 0.4960
vt 0.7460 0.2809
vt 0.7406 0.2809
vt 0.7406 0.2540
vt 0.7406 0.2540
vt 0.7406 0.2809
vt 0.7460 0.2809
vt 0.5040 0.4691
vt 0.5094 0.4691
vt 0.5094 0.4960
vt 0.5094 0.4960
vt 0.5094 0.4691
vt 0.5040 0.4691
vt 0.5094 0.2540
vt 0.5094 0.2809
vt 0.5040 0.2809
vt 0.5040 0.2809
vt 0.5094 0.2809
vt 0.5094 0.2540
vt 0.8750 0.4960
vt 0.9606 0.4960
vt 0.9392 0.2540
vt 0.8750 0.2540
vt 0.9606 0.4960
vt 0.8750 0.4960
vt 0.8750 0.2540
vt 0.9392 0.2540
vt 0.8750 0.4960
vt 0.7894 0.4960
vt 0.8108 0.2540
vt 0.8750 0.2540
vt 0.9606 0.4960
vt 0.8750 0.4960
vt 0.8750 0.2540
vt 0.9392 0.2540
vt 0.8750 0.4960
vt 0.7894 0.4960
vt 0.8108 0.2540
vt 0.8750 0.2540
vt 0.7894 0.4960
vt 0.8750 0.4960
vt 0.8750 0.2540
vt 0.8108 0.2540
vt 0.8750 0.4960
vt 0.9606 0.4960
vt 0.9392 0.2540
vt 0.8750 0.2540
vt 0.7894 0.4960
vt 0.8750 0.4960
vt 0.8750 0.2540
vt 0.8108 0.2540
vt 0.9606 0.2894
vt 0.8750 0.2540
vt 0.7894 0.2894
vt 0.7540 0.3750
vt 0.7894 0.4606
vt 0.8750 0.4960
vt 0.9606 0.4606
vt 0.9960 0.3750
vt 0.9657 0.3750
vt 0.9392 0.4392
vt 0.8750 0.4658
vt 0.8108 0.4392
vt 0.7843 0.3750
vt 0.8108 0.3108
vt 0.8750 0.2843
vt 0.9392 0.3108
vt 0.5204 0.6870
vt 0.5204 0.9794
vt 0.9796 0.9794
vt 0.9796 0.6870
vt 0.9796 0.5206
vt 0.9796 0.8130
vt 0.5204 0.8130
vt 0.5204 0.5206
vt 0.5204 0.7331
vt 0.5204 0.9784
vt 0.9796 0.9784
vt 0.9796 0.7331
vt 0.5204 0.5216
vt 0.9796 0.5216
vt 0.9796 0.7669
vt 0.5204 0.7669
vt 0.5427 0.6670
vt 0.7120 0.9594
vt 0.9573 0.8330
vt 0.7880 0.5406
vt 0.7880 0.5406
vt 0.9573 0.8330
vt 0.7120 0.9594
vt 0.5427 0.6670
vt 0.5204 0.7331
vt 0.9796 0.7331
vt 0.9796 0.6733
vt 0.5204 0.6733
vt 0.9796 0.8695
vt 0.5204 0.8695
vt 0.5204 0.8130
vt 0.9796 0.8130
vt 0.9796 0.6305
vt 0.5204 0.6305
vt 0.5204 0.6870
vt 0.9796 0.6870
vt 0.5204 0.7669
vt 0.9796 0.7669
vt 0.9796 0.8267
vt 0.5204 0.8267
vt 0.7120 0.9594
vt 0.9573 0.8330
vt 0.9784 0.8695
vt 0.7331 0.9960
vt 0.7880 0.5406
vt 0.5427 0.6670
vt 0.5216 0.6305
vt 0.7669 0.5040
vt 0.9573 0.8330
vt 0.7120 0.9594
vt 0.7331 0.9960
vt 0.9784 0.8695
vt 0.5427 0.6670
vt 0.7880 0.5406
vt 0.7669 0.5040
vt 0.5216 0.6305
vt 0.7120 0.9594
vt 0.6733 0.9794
vt 0.5040 0.6870
vt 0.5427 0.6670
vt 0.7880 0.5406
vt 0.8267 0.5206
vt 0.9960 0.8130
vt 0.9573 0.8330
vt 0.5427 0.6670
vt 0.5040 0.6870
vt 0.6733 0.9794
vt 0.7120 0.9594
vt 0.9573 0.8330
vt 0.9960 0.8130
vt 0.8267 0.5206
vt 0.7880 0.5406
vt 0.9796 0.8695
vt 0.9960 0.8330
vt 0.9796 0.8130
vt 0.5204 0.8130
vt 0.5040 0.8330
vt 0.5204 0.8695
vt 0.9796 0.8267
vt 0.9960 0.7880
vt 0.9796 0.7669
vt 0.5204 0.7669
vt 0.5040 0.7880
vt 0.5204 0.8267
vt 0.9796 0.6733
vt 0.9960 0.7120
vt 0.9796 0.7331
vt 0.5204 0.7331
vt 0.5040 0.7120
vt 0.5204 0.6733
vt 0.9796 0.6305
vt 0.9960 0.6670
vt 0.9796 0.6870
vt 0.5204 0.6870
vt 0.5040 0.6670
vt 0.5204 0.6305
vt 0.2540 0.0205
vt 0.2540 0.1210
vt 0.4960 0.1210
vt 0.4960 0.0205
vt 0.4960 0.0040
vt 0.4960 0.1045
vt 0.2540 0.1045
vt 0.2540 0.0040
vt 0.2540 0.1210
vt 0.2540 0.1045
vt 0.4960 0.1045
vt 0.4960 0.1210
vt 0.2540 0.0205
vt 0.4960 0.0205
vt 0.4960 0.0040
vt 0.2540 0.0040
vt 0.4960 0.0205
vt 0.4960 0.1210
vt 0.4960 0.1045
vt 0.4960 0.0040
vt 0.2540 0.0040
vt 0.2540 0.1045
vt 0.2540 0.1210
vt 0.2540 0.0205
vn 0.0000 0.0000 -1.0000
vn 0.0000 0.0000 -1.0000
vn 0.0000 0.0000 -1.0000
vn 0.0000 0.0000 -1.0000
vn 0.0000 0.0000 1.0000
vn 0.0000 0.0000 1.0000
vn 0.0000 0.0000 1.0000
vn 0.0000 0.0000 1.0000
vn 0.0000 1.0000 0.0000
vn 0.0000 1.0000 0.0000
vn 0.0000 1.0000 0.0000
vn 0.0000 1.0000 0.0000
vn 0.0000 -1.0000 0.0000
vn 0.0000 -1.0000 0.0000
vn 0.0000 -1.0000 0.0000
vn 0.0000 -1.0000 0.0000
vn 1.0000 0.0000 0.0000
vn 1.0000 0.0000 0.0000
vn 1.0000 0.0000 0.0000
vn 1.0000 0.0000 0.0000
vn -1.0000 0.0000 0.0000
vn -1.0000 0.0000 0.0000
vn -1.0000 0.0000 0.0000
vn -1.0000 0.0000 0.0000
vn 0.0000 0.7071 -0.7071
vn 0.0000 0.7071 -0.7071
vn 0.0000 0.7071 -0.7071
vn 0.0000 0.7071 -0.7071
vn 0.0000 0.7071 0.7071
vn 0.0000 0.7071 0.7071
vn 0.0000 0.7071 0.7071
vn 0.0000 0.7071 0.7071
vn 0.0000 -0.7071 -0.7071
vn 0.0000 -0.7071 -0.7071
vn 0.0000 -0.7071 -0.7071
vn 0.0000 -0.7071 -0.7071
vn 0.0000 -0.7071 0.7071
vn 0.0000 -0.7071 0.7071
vn 0.0000 -0.7071 0.7071
vn 0.0000 -0.7071 0.7071
vn -0.7071 -0.7071 0.0000
vn -0.7071 -0.7071 0.0000
vn -0.7071 -0.7071 0.0000
vn -0.7071 -0.7071 0.0000
vn -0.7071 0.7071 0.0000
vn -0.7071 0.7071 0.0000
vn -0.7071 0.7071 0.0000
vn -0.7071 0.7071 0.0000
vn 0.7071 -0.7071 0.0000
vn 0.7071 -0.7071 0.0000
vn 0.7071 -0.7071 0.0000
vn 0.7071 -0.7071 0.0000
vn 0.7071 0.7071 0.0000
vn 0.7071 0.7071 0.0000
vn 0.7071 0.7071 0.0000
vn 0.7071 0.7071 0.0000
vn -0.7071 0.0000 0.7071
vn -0.7071 0.0000 0.7071
vn -0.7071 0.0000 0.7071
vn -0.7071 0.0000 0.7071
vn -0.7071 0.0000 -0.7071
vn -0.7071 0.0000 -0.7071
vn -0.7071 0.0000 -0.7071
vn -0.7071 0.0000 -0.7071
vn 0.7071 0.0000 0.7071
vn 0.7071 0.0000 0.7071
vn 0.7071 0.0000 0.7071
vn 0.7071 0.0000 0.7071
vn 0.7071 0.0000 -0.7071
vn 0.7071 0.0000 -0.7071
vn 0.7071 0.0000 -0.7071
vn 0.7071 0.0000 -0.7071
vn -0.5774 -0.5774 -0.5774
vn -0.5774 -0.5774 -0.5774
vn -0.5774 -0.5774 -0.5774
vn 0.5774 -0.5774 -0.5774
vn 0.5774 -0.5774 -0.5774
vn 0.5774 -0.5774 -0.5774
vn -0.5774 0.5774 -0.5774
vn -0.5774 0.5774 -0.5774
vn -0.5774 0.5774 -0.5774
vn 0.5774 0.5774 -0.5774
vn 0.5774 0.5774 -0.5774
vn 0.5774 0.5774 -0.5774
vn -0.5774 -0.5774 0.5774
vn -0.5774 -0.5774 0.5774
vn -0.5774 -0.5774 0.5774
vn 0.5774 -0.5774 0.5774
vn 0.5774 -0.5774 0.5774
vn 0.5774 -0.5774 0.5774
vn -0.5774 0.5774 0.5774
vn -0.5774 0.5774 0.5774
vn -0.5774 0.5774 0.5774
vn 0.5774 0.5774 0.5774
vn 0.5774 0.5774 0.5774
vn 0.5774 0.5774 0.5774
vn 0.9239 -0.0044 0.3827
vn 0.9239 -0.0044 0.3827
vn 0.9239 -0.0044 0.3827
vn 0.9239 -0.0044 0.3827
vn 0.3827 -0.0044 0.9239
vn 0.3827 -0.0044 0.9239
vn 0.3827 -0.0044 0.9239
vn 0.3827 -0.0044 0.9239
vn -0.3827 -0.0044 0.9239
vn -0.3827 -0.0044 0.9239
vn -0.3827 -0.0044 0.9239
vn -0.3827 -0.0044 0.9239
vn -0.9239 -0.0044 0.3827
vn -0.9239 -0.0044 0.3827
vn -0.9239 -0.0044 0.3827
vn -0.9239 -0.0044 0.3827
vn -0.9239 -0.0044 -0.3827
vn -0.9239 -0.0044 -0.3827
vn -0.9239 -0.0044 -0.3827
vn -0.9239 -0.0044 -0.3827
vn -0.3827 -0.0044 -0.9239
vn -0.3827 -0.0044 -0.9239
vn -0.3827 -0.0044 -0.9239
vn -0.3827 -0.0044 -0.9239
vn 0.3827 -0.0044 -0.9239
vn 0.3827 -0.0044 -0.9239
vn 0.3827 -0.0044 -0.9239
vn 0.3827 -0.0044 -0.9239
vn 0.9239 -0.0044 -0.3827
vn 0.9239 -0.0044 -0.3827
vn 0.9239 -0.0044 -0.3827
vn 0.9239 -0.0044 -0.3827
vn 0.0000 1.0000 -0.0000
vn 0.0000 1.0000 -0.0000
vn 0.0000 1.0000 -0.0000
vn 0.0000 1.0000 -0.0000
vn 0.0000 1.0000 -0.0000
vn 0.0000 1.0000 -0.0000
vn 0.0000 1.0000 -0.0000
vn 0.0000 1.0000 -0.0000
vn 0.0000 -1.0000 0.0000
vn 0.0000 -1.0000 0.0000
vn 0.0000 -1.0000 0.0000
vn 0.0000 -1.0000 0.0000
vn 0.0000 -1.0000 0.0000
vn 0.0000 -1.0000 0.0000
vn 0.0000 -1.0000 0.0000
vn 0.0000 -1.0000 0.0000
vn 0.0000 0.4794 -0.8776
vn 0.0000 0.4794 -0.8776
vn 0.0000 0.4794 -0.8776
vn 0.0000 0.4794 -0.8776
vn 0.0000 -0.4794 0.8776
vn 0.0000 -0.4794 0.8776
vn 0.0000 -0.4794 0.8776
vn 0.0000 -0.4794 0.8776
vn 0.0000 0.8776 0.4794
vn 0.0000 0.8776 0.4794
vn 0.0000 0.8776 0.4794
vn 0.0000 0.8776 0.4794
vn 0.0000 -0.8776 -0.4794
vn 0.0000 -0.8776 -0.4794
vn 0.0000 -0.8776 -0.4794
vn 0.0000 -0.8776 -0.4794
vn 1.0000 -0.0000 0.0000
vn 1.0000 -0.0000 0.0000
vn 1.0000 -0.0000 0.0000
vn 1.0000 -0.0000 0.0000
vn -1.0000 0.0000 0.0000
vn -1.0000 0.0000 0.0000
vn -1.0000 0.0000 0.0000
vn -1.0000 0.0000 0.0000
vn 0.0000 0.9595 -0.2815
vn 0.0000 0.9595 -0.2815
vn 0.0000 0.9595 -0.2815
vn 0.0000 0.9595 -0.2815
vn 0.0000 0.2815 0.9595
vn 0.0000 0.2815 0.9595
vn 0.0000 0.2815 0.9595
vn 0.0000 0.2815 0.9595
vn 0.0000 -0.2815 -0.9595
vn 0.0000 -0.2815 -0.9595
vn 0.0000 -0.2815 -0.9595
vn 0.0000 -0.2815 -0.9595
vn 0.0000 -0.9595 0.2815
vn 0.0000 -0.9595 0.2815
vn 0.0000 -0.9595 0.2815
vn 0.0000 -0.9595 0.2815
vn -0.7071 -0.6205 -0.3390
vn -0.7071 -0.6205 -0.3390
vn -0.7071 -0.6205 -0.3390
vn -0.7071 -0.6205 -0.3390
vn -0.7071 0.6205 0.3390
vn -0.7071 0.6205 0.3390
vn -0.7071 0.6205 0.3390
vn -0.7071 0.6205 0.3390
vn 0.7071 -0.6205 -0.3390
vn 0.7071 -0.6205 -0.3390
vn 0.7071 -0.6205 -0.3390
vn 0.7071 -0.6205 -0.3390
vn 0.7071 0.6205 0.3390
vn 0.7071 0.6205 0.3390
vn 0.7071 0.6205 0.3390
vn 0.7071 0.6205 0.3390
vn -0.7071 -0.3390 0.6205
vn -0.7071 -0.3390 0.6205
vn -0.7071 -0.3390 0.6205
vn -0.7071 -0.3390 0.6205
vn -0.7071 0.3390 -0.6205
vn -0.7071 0.3390 -0.6205
vn -0.7071 0.3390 -0.6205
vn -0.7071 0.3390 -0.6205
vn 0.7071 -0.3390 0.6205
vn 0.7071 -0.3390 0.6205
vn 0.7071 -0.3390 0.6205
vn 0.7071 -0.3390 0.6205
vn 0.7071 0.3390 -0.6205
vn 0.7071 0.3390 -0.6205
vn 0.7071 0.3390 -0.6205
vn 0.7071 0.3390 -0.6205
vn -0.5774 -0.2299 -0.7835
vn -0.5774 -0.2299 -0.7835
vn -0.5774 -0.2299 -0.7835
vn 0.5774 -0.2299 -0.7835
vn 0.5774 -0.2299 -0.7835
vn 0.5774 -0.2299 -0.7835
vn -0.5774 0.7835 -0.2299
vn -0.5774 0.7835 -0.2299
vn -0.5774 0.7835 -0.2299
vn 0.5774 0.7835 -0.2299
vn 0.5774 0.7835 -0.2299
vn 0.5774 0.7835 -0.2299
vn -0.5774 -0.7835 0.2299
vn -0.5774 -0.7835 0.2299
vn -0.5774 -0.7835 0.2299
vn 0.5774 -0.7835 0.2299
vn 0.5774 -0.7835 0.2299
vn 0.5774 -0.7835 0.2299
vn -0.5774 0.2299 0.7835
vn -0.5774 0.2299 0.7835
vn -0.5774 0.2299 0.7835
vn 0.5774 0.2299 0.7835
vn 0.5774 0.2299 0.7835
vn 0.5774 0.2299 0.7835
vn 0.0000 0.4794 -0.8776
vn 0.0000 0.4794 -0.8776
vn 0.0000 0.4794 -0.8776
vn 0.0000 0.4794 -0.8776
vn 0.0000 -0.4794 0.8776
vn 0.0000 -0.4794 0.8776
vn 0.0000 -0.4794 0.8776
vn 0.0000 -0.4794 0.8776
vn 0.0000 0.8776 0.4794
vn 0.0000 0.8776 0.4794
vn 0.0000 0.8776 0.4794
vn 0.0000 0.8776 0.4794
vn 0.0000 -0.8776 -0.4794
vn 0.0000 -0.8776 -0.4794
vn 0.0000 -0.8776 -0.4794
vn 0.0000 -0.8776 -0.4794
vn 1.0000 -0.0000 0.0000
vn 1.0000 -0.0000 0.0000
vn 1.0000 -0.0000 0.0000
vn 1.0000 -0.0000 0.0000
vn -1.0000 0.0000 0.0000
vn -1.0000 0.0000 0.0000
vn -1.0000 0.0000 0.0000
vn -1.0000 0.0000 0.0000
usemtl TF_Utility
f 1/1/1 2/2/2 3/3/3
f 1/1/1 3/3/3 4/4/4
f 5/5/5 6/6/6 7/7/7
f 5/5/5 7/7/7 8/8/8
f 9/9/9 10/10/10 11/11/11
f 9/9/9 11/11/11 12/12/12
f 13/13/13 14/14/14 15/15/15
f 13/13/13 15/15/15 16/16/16
f 17/17/17 18/18/18 19/19/19
f 17/17/17 19/19/19 20/20/20
f 21/21/21 22/22/22 23/23/23
f 21/21/21 23/23/23 24/24/24
f 25/25/25 26/26/26 27/27/27
f 25/25/25 27/27/27 28/28/28
f 29/29/29 30/30/30 31/31/31
f 29/29/29 31/31/31 32/32/32
f 33/33/33 34/34/34 35/35/35
f 33/33/33 35/35/35 36/36/36
f 37/37/37 38/38/38 39/39/39
f 37/37/37 39/39/39 40/40/40
f 41/41/41 42/42/42 43/43/43
f 41/41/41 43/43/43 44/44/44
f 45/45/45 46/46/46 47/47/47
f 45/45/45 47/47/47 48/48/48
f 49/49/49 50/50/50 51/51/51
f 49/49/49 51/51/51 52/52/52
f 53/53/53 54/54/54 55/55/55
f 53/53/53 55/55/55 56/56/56
f 57/57/57 58/58/58 59/59/59
f 57/57/57 59/59/59 60/60/60
f 61/61/61 62/62/62 63/63/63
f 61/61/61 63/63/63 64/64/64
f 65/65/65 66/66/66 67/67/67
f 65/65/65 67/67/67 68/68/68
f 69/69/69 70/70/70 71/71/71
f 69/69/69 71/71/71 72/72/72
f 73/73/73 74/74/74 75/75/75
f 76/76/76 77/77/77 78/78/78
f 79/79/79 80/80/80 81/81/81
f 82/82/82 83/83/83 84/84/84
f 85/85/85 86/86/86 87/87/87
f 88/88/88 89/89/89 90/90/90
f 91/91/91 92/92/92 93/93/93
f 94/94/94 95/95/95 96/96/96
f 97/97/97 98/98/98 99/99/99
f 97/97/97 99/99/99 100/100/100
f 101/101/101 102/102/102 103/103/103
f 101/101/101 103/103/103 104/104/104
f 105/105/105 106/106/106 107/107/107
f 105/105/105 107/107/107 108/108/108
f 109/109/109 110/110/110 111/111/111
f 109/109/109 111/111/111 112/112/112
f 113/113/113 114/114/114 115/115/115
f 113/113/113 115/115/115 116/116/116
f 117/117/117 118/118/118 119/119/119
f 117/117/117 119/119/119 120/120/120
f 121/121/121 122/122/122 123/123/123
f 121/121/121 123/123/123 124/124/124
f 125/125/125 126/126/126 127/127/127
f 125/125/125 127/127/127 128/128/128
f 129/129/129 130/130/130 131/131/131
f 129/129/129 131/131/131 132/132/132
f 129/129/129 132/132/132 133/133/133
f 129/129/129 133/133/133 134/134/134
f 129/129/129 134/134/134 135/135/135
f 129/129/129 135/135/135 136/136/136
f 137/137/137 138/138/138 139/139/139
f 137/137/137 139/139/139 140/140/140
f 137/137/137 140/140/140 141/141/141
f 137/137/137 141/141/141 142/142/142
f 137/137/137 142/142/142 143/143/143
f 137/137/137 143/143/143 144/144/144
f 145/145/145 146/146/146 147/147/147
f 145/145/145 147/147/147 148/148/148
f 149/149/149 150/150/150 151/151/151
f 149/149/149 151/151/151 152/152/152
f 153/153/153 154/154/154 155/155/155
f 153/153/153 155/155/155 156/156/156
f 157/157/157 158/158/158 159/159/159
f 157/157/157 159/159/159 160/160/160
f 161/161/161 162/162/162 163/163/163
f 161/161/161 163/163/163 164/164/164
f 165/165/165 166/166/166 167/167/167
f 165/165/165 167/167/167 168/168/168
f 169/169/169 170/170/170 171/171/171
f 169/169/169 171/171/171 172/172/172
f 173/173/173 174/174/174 175/175/175
f 173/173/173 175/175/175 176/176/176
f 177/177/177 178/178/178 179/179/179
f 177/177/177 179/179/179 180/180/180
f 181/181/181 182/182/182 183/183/183
f 181/181/181 183/183/183 184/184/184
f 185/185/185 186/186/186 187/187/187
f 185/185/185 187/187/187 188/188/188
f 189/189/189 190/190/190 191/191/191
f 189/189/189 191/191/191 192/192/192
f 193/193/193 194/194/194 195/195/195
f 193/193/193 195/195/195 196/196/196
f 197/197/197 198/198/198 199/199/199
f 197/197/197 199/199/199 200/200/200
f 201/201/201 202/202/202 203/203/203
f 201/201/201 203/203/203 204/204/204
f 205/205/205 206/206/206 207/207/207
f 205/205/205 207/207/207 208/208/208
f 209/209/209 210/210/210 211/211/211
f 209/209/209 211/211/211 212/212/212
f 213/213/213 214/214/214 215/215/215
f 213/213/213 215/215/215 216/216/216
f 217/217/217 218/218/218 219/219/219
f 220/220/220 221/221/221 222/222/222
f 223/223/223 224/224/224 225/225/225
f 226/226/226 227/227/227 228/228/228
f 229/229/229 230/230/230 231/231/231
f 232/232/232 233/233/233 234/234/234
f 235/235/235 236/236/236 237/237/237
f 238/238/238 239/239/239 240/240/240
f 241/241/241 242/242/242 243/243/243
f 241/241/241 243/243/243 244/244/244
f 245/245/245 246/246/246 247/247/247
f 245/245/245 247/247/247 248/248/248
f 249/249/249 250/250/250 251/251/251
f 249/249/249 251/251/251 252/252/252
f 253/253/253 254/254/254 255/255/255
f 253/253/253 255/255/255 256/256/256
f 257/257/257 258/258/258 259/259/259
f 257/257/257 259/259/259 260/260/260
f 261/261/261 262/262/262 263/263/263
f 261/261/261 263/263/263 264/264/264
