# TERRAFRONT procedural asset — generated by Tools/assetgen (deterministic)
# Y-up, +Z forward (muzzle), units = meters, pivot at grip/origin.
# prop_scrap_b — TERRAFRONT P3
mtllib tf_utility.mtl
o prop_scrap_b
v 0.2178 0.3299 -0.3966
v 0.2133 0.3642 -0.4019
v 0.2438 0.2945 -0.8738
v 0.2483 0.2602 -0.8684
v 0.8595 0.3446 -0.8414
v 0.8550 0.3789 -0.8467
v 0.8245 0.4486 -0.3749
v 0.8290 0.4143 -0.3695
v 0.2219 0.3754 -0.4030
v 0.8133 0.4571 -0.3769
v 0.8438 0.3874 -0.8487
v 0.2524 0.3057 -0.8749
v 0.2290 0.3214 -0.3946
v 0.2595 0.2517 -0.8664
v 0.8509 0.3334 -0.8403
v 0.8204 0.4031 -0.3684
v 0.2588 0.2601 -0.8778
v 0.2543 0.2944 -0.8832
v 0.8457 0.3761 -0.8570
v 0.8503 0.3417 -0.8517
v 0.8185 0.4144 -0.3601
v 0.8140 0.4487 -0.3655
v 0.2226 0.3671 -0.3916
v 0.2271 0.3327 -0.3863
v 0.2219 0.3754 -0.4030
v 0.2524 0.3057 -0.8749
v 0.2438 0.2945 -0.8738
v 0.2133 0.3642 -0.4019
v 0.8438 0.3874 -0.8487
v 0.8133 0.4571 -0.3769
v 0.8245 0.4486 -0.3749
v 0.8550 0.3789 -0.8467
v 0.2595 0.2517 -0.8664
v 0.2290 0.3214 -0.3946
v 0.2178 0.3299 -0.3966
v 0.2483 0.2602 -0.8684
v 0.8204 0.4031 -0.3684
v 0.8509 0.3334 -0.8403
v 0.8595 0.3446 -0.8414
v 0.8290 0.4143 -0.3695
v 0.2543 0.2944 -0.8832
v 0.8457 0.3761 -0.8570
v 0.8438 0.3874 -0.8487
v 0.2524 0.3057 -0.8749
v 0.8503 0.3417 -0.8517
v 0.2588 0.2601 -0.8778
v 0.2595 0.2517 -0.8664
v 0.8509 0.3334 -0.8403
v 0.8140 0.4487 -0.3655
v 0.2226 0.3671 -0.3916
v 0.2219 0.3754 -0.4030
v 0.8133 0.4571 -0.3769
v 0.2271 0.3327 -0.3863
v 0.8185 0.4144 -0.3601
v 0.8204 0.4031 -0.3684
v 0.2290 0.3214 -0.3946
v 0.2543 0.2944 -0.8832
v 0.2438 0.2945 -0.8738
v 0.2483 0.2602 -0.8684
v 0.2588 0.2601 -0.8778
v 0.8503 0.3417 -0.8517
v 0.8595 0.3446 -0.8414
v 0.8550 0.3789 -0.8467
v 0.8457 0.3761 -0.8570
v 0.2271 0.3327 -0.3863
v 0.2178 0.3299 -0.3966
v 0.2133 0.3642 -0.4019
v 0.2226 0.3671 -0.3916
v 0.8140 0.4487 -0.3655
v 0.8245 0.4486 -0.3749
v 0.8290 0.4143 -0.3695
v 0.8185 0.4144 -0.3601
v 0.8438 0.3874 -0.8487
v 0.8457 0.3761 -0.8570
v 0.8550 0.3789 -0.8467
v 0.8245 0.4486 -0.3749
v 0.8140 0.4487 -0.3655
v 0.8133 0.4571 -0.3769
v 0.8595 0.3446 -0.8414
v 0.8503 0.3417 -0.8517
v 0.8509 0.3334 -0.8403
v 0.8204 0.4031 -0.3684
v 0.8185 0.4144 -0.3601
v 0.8290 0.4143 -0.3695
v 0.2438 0.2945 -0.8738
v 0.2543 0.2944 -0.8832
v 0.2524 0.3057 -0.8749
v 0.2219 0.3754 -0.4030
v 0.2226 0.3671 -0.3916
v 0.2133 0.3642 -0.4019
v 0.2595 0.2517 -0.8664
v 0.2588 0.2601 -0.8778
v 0.2483 0.2602 -0.8684
v 0.2178 0.3299 -0.3966
v 0.2271 0.3327 -0.3863
v 0.2290 0.3214 -0.3946
v -0.9043 0.0536 -0.4512
v -0.9000 0.1922 -0.4407
v -0.8954 0.2153 -0.7463
v -0.8997 0.0767 -0.7568
v -0.3497 0.0590 -0.7498
v -0.3453 0.1976 -0.7393
v -0.3500 0.1746 -0.4336
v -0.3543 0.0359 -0.4442
v -0.8897 0.2019 -0.4398
v -0.3597 0.1848 -0.4330
v -0.3550 0.2079 -0.7386
v -0.8851 0.2249 -0.7454
v -0.8947 0.0433 -0.4518
v -0.8900 0.0664 -0.7575
v -0.3600 0.0493 -0.7507
v -0.3646 0.0263 -0.4451
v -0.8895 0.0771 -0.7667
v -0.8852 0.2157 -0.7561
v -0.3552 0.1987 -0.7494
v -0.3595 0.0600 -0.7599
v -0.3645 0.0355 -0.4343
v -0.3601 0.1741 -0.4238
v -0.8902 0.1912 -0.4306
v -0.8945 0.0525 -0.4411
v -0.8897 0.2019 -0.4398
v -0.8851 0.2249 -0.7454
v -0.8954 0.2153 -0.7463
v -0.9000 0.1922 -0.4407
v -0.3550 0.2079 -0.7386
v -0.3597 0.1848 -0.4330
v -0.3500 0.1746 -0.4336
v -0.3453 0.1976 -0.7393
v -0.8900 0.0664 -0.7575
v -0.8947 0.0433 -0.4518
v -0.9043 0.0536 -0.4512
v -0.8997 0.0767 -0.7568
v -0.3646 0.0263 -0.4451
v -0.3600 0.0493 -0.7507
v -0.3497 0.0590 -0.7498
v -0.3543 0.0359 -0.4442
v -0.8852 0.2157 -0.7561
v -0.3552 0.1987 -0.7494
v -0.3550 0.2079 -0.7386
v -0.8851 0.2249 -0.7454
v -0.3595 0.0600 -0.7599
v -0.8895 0.0771 -0.7667
v -0.8900 0.0664 -0.7575
v -0.3600 0.0493 -0.7507
v -0.3601 0.1741 -0.4238
v -0.8902 0.1912 -0.4306
v -0.8897 0.2019 -0.4398
v -0.3597 0.1848 -0.4330
v -0.8945 0.0525 -0.4411
v -0.3645 0.0355 -0.4343
v -0.3646 0.0263 -0.4451
v -0.8947 0.0433 -0.4518
v -0.8852 0.2157 -0.7561
v -0.8954 0.2153 -0.7463
v -0.8997 0.0767 -0.7568
v -0.8895 0.0771 -0.7667
v -0.3595 0.0600 -0.7599
v -0.3497 0.0590 -0.7498
v -0.3453 0.1976 -0.7393
v -0.3552 0.1987 -0.7494
v -0.8945 0.0525 -0.4411
v -0.9043 0.0536 -0.4512
v -0.9000 0.1922 -0.4407
v -0.8902 0.1912 -0.4306
v -0.3601 0.1741 -0.4238
v -0.3500 0.1746 -0.4336
v -0.3543 0.0359 -0.4442
v -0.3645 0.0355 -0.4343
v -0.3550 0.2079 -0.7386
v -0.3552 0.1987 -0.7494
v -0.3453 0.1976 -0.7393
v -0.3500 0.1746 -0.4336
v -0.3601 0.1741 -0.4238
v -0.3597 0.1848 -0.4330
v -0.3497 0.0590 -0.7498
v -0.3595 0.0600 -0.7599
v -0.3600 0.0493 -0.7507
v -0.3646 0.0263 -0.4451
v -0.3645 0.0355 -0.4343
v -0.3543 0.0359 -0.4442
v -0.8954 0.2153 -0.7463
v -0.8852 0.2157 -0.7561
v -0.8851 0.2249 -0.7454
v -0.8897 0.2019 -0.4398
v -0.8902 0.1912 -0.4306
v -0.9000 0.1922 -0.4407
v -0.8900 0.0664 -0.7575
v -0.8895 0.0771 -0.7667
v -0.8997 0.0767 -0.7568
v -0.9043 0.0536 -0.4512
v -0.8945 0.0525 -0.4411
v -0.8947 0.0433 -0.4518
v -0.8180 0.1090 -0.7339
v -0.8089 0.1990 -0.7416
v -0.3480 0.1455 -0.8260
v -0.3571 0.0555 -0.8184
v -0.2100 0.1064 -0.0480
v -0.2009 0.1964 -0.0557
v -0.6618 0.2500 0.0288
v -0.6709 0.1600 0.0365
v -0.8060 0.2096 -0.7326
v -0.6627 0.2593 0.0181
v -0.2018 0.2057 -0.0663
v -0.3452 0.1561 -0.8171
v -0.8171 0.0998 -0.7233
v -0.3562 0.0462 -0.8077
v -0.2129 0.0959 -0.0570
v -0.6737 0.1494 0.0275
v -0.3454 0.0550 -0.8103
v -0.3364 0.1450 -0.8180
v -0.1930 0.1947 -0.0673
v -0.2021 0.1047 -0.0596
v -0.6825 0.1605 0.0284
v -0.6735 0.2505 0.0208
v -0.8168 0.2008 -0.7300
v -0.8259 0.1108 -0.7223
v -0.8060 0.2096 -0.7326
v -0.3452 0.1561 -0.8171
v -0.3480 0.1455 -0.8260
v -0.8089 0.1990 -0.7416
v -0.2018 0.2057 -0.0663
v -0.6627 0.2593 0.0181
v -0.6618 0.2500 0.0288
v -0.2009 0.1964 -0.0557
v -0.3562 0.0462 -0.8077
v -0.8171 0.0998 -0.7233
v -0.8180 0.1090 -0.7339
v -0.3571 0.0555 -0.8184
v -0.6737 0.1494 0.0275
v -0.2129 0.0959 -0.0570
v -0.2100 0.1064 -0.0480
v -0.6709 0.1600 0.0365
v -0.3364 0.1450 -0.8180
v -0.1930 0.1947 -0.0673
v -0.2018 0.2057 -0.0663
v -0.3452 0.1561 -0.8171
v -0.2021 0.1047 -0.0596
v -0.3454 0.0550 -0.8103
v -0.3562 0.0462 -0.8077
v -0.2129 0.0959 -0.0570
v -0.6735 0.2505 0.0208
v -0.8168 0.2008 -0.7300
v -0.8060 0.2096 -0.7326
v -0.6627 0.2593 0.0181
v -0.8259 0.1108 -0.7223
v -0.6825 0.1605 0.0284
v -0.6737 0.1494 0.0275
v -0.8171 0.0998 -0.7233
v -0.3364 0.1450 -0.8180
v -0.3480 0.1455 -0.8260
v -0.3571 0.0555 -0.8184
v -0.3454 0.0550 -0.8103
v -0.2021 0.1047 -0.0596
v -0.2100 0.1064 -0.0480
v -0.2009 0.1964 -0.0557
v -0.1930 0.1947 -0.0673
v -0.8259 0.1108 -0.7223
v -0.8180 0.1090 -0.7339
v -0.8089 0.1990 -0.7416
v -0.8168 0.2008 -0.7300
v -0.6735 0.2505 0.0208
v -0.6618 0.2500 0.0288
v -0.6709 0.1600 0.0365
v -0.6825 0.1605 0.0284
v -0.2018 0.2057 -0.0663
v -0.1930 0.1947 -0.0673
v -0.2009 0.1964 -0.0557
v -0.6618 0.2500 0.0288
v -0.6735 0.2505 0.0208
v -0.6627 0.2593 0.0181
v -0.2100 0.1064 -0.0480
v -0.2021 0.1047 -0.0596
v -0.2129 0.0959 -0.0570
v -0.6737 0.1494 0.0275
v -0.6825 0.1605 0.0284
v -0.6709 0.1600 0.0365
v -0.3480 0.1455 -0.8260
v -0.3364 0.1450 -0.8180
v -0.3452 0.1561 -0.8171
v -0.8060 0.2096 -0.7326
v -0.8168 0.2008 -0.7300
v -0.8089 0.1990 -0.7416
v -0.3562 0.0462 -0.8077
v -0.3454 0.0550 -0.8103
v -0.3571 0.0555 -0.8184
v -0.8180 0.1090 -0.7339
v -0.8259 0.1108 -0.7223
v -0.8171 0.0998 -0.7233
v -0.6043 0.2431 -0.2433
v -0.5943 0.3705 -0.2379
v -0.5798 0.3772 -0.4230
v -0.5898 0.2498 -0.4284
v -0.0803 0.2081 -0.3899
v -0.0703 0.3355 -0.3844
v -0.0848 0.3288 -0.1994
v -0.0948 0.2014 -0.2048
v -0.5836 0.3796 -0.2367
v -0.0940 0.3395 -0.1997
v -0.0794 0.3463 -0.3848
v -0.5691 0.3863 -0.4218
v -0.5952 0.2323 -0.2430
v -0.5806 0.2391 -0.4281
v -0.0910 0.1990 -0.3910
v -0.1056 0.1922 -0.2060
v -0.5791 0.2494 -0.4376
v -0.5691 0.3768 -0.4322
v -0.0794 0.3367 -0.3952
v -0.0895 0.2093 -0.4006
v -0.1056 0.2018 -0.1956
v -0.0956 0.3292 -0.1901
v -0.5852 0.3693 -0.2272
v -0.5952 0.2419 -0.2326
v -0.5836 0.3796 -0.2367
v -0.5691 0.3863 -0.4218
v -0.5798 0.3772 -0.4230
v -0.5943 0.3705 -0.2379
v -0.0794 0.3463 -0.3848
v -0.0940 0.3395 -0.1997
v -0.0848 0.3288 -0.1994
v -0.0703 0.3355 -0.3844
v -0.5806 0.2391 -0.4281
v -0.5952 0.2323 -0.2430
v -0.6043 0.2431 -0.2433
v -0.5898 0.2498 -0.4284
v -0.1056 0.1922 -0.2060
v -0.0910 0.1990 -0.3910
v -0.0803 0.2081 -0.3899
v -0.0948 0.2014 -0.2048
v -0.5691 0.3768 -0.4322
v -0.0794 0.3367 -0.3952
v -0.0794 0.3463 -0.3848
v -0.5691 0.3863 -0.4218
v -0.0895 0.2093 -0.4006
v -0.5791 0.2494 -0.4376
v -0.5806 0.2391 -0.4281
v -0.0910 0.1990 -0.3910
v -0.0956 0.3292 -0.1901
v -0.5852 0.3693 -0.2272
v -0.5836 0.3796 -0.2367
v -0.0940 0.3395 -0.1997
v -0.5952 0.2419 -0.2326
v -0.1056 0.2018 -0.1956
v -0.1056 0.1922 -0.2060
v -0.5952 0.2323 -0.2430
v -0.5691 0.3768 -0.4322
v -0.5798 0.3772 -0.4230
v -0.5898 0.2498 -0.4284
v -0.5791 0.2494 -0.4376
v -0.0895 0.2093 -0.4006
v -0.0803 0.2081 -0.3899
v -0.0703 0.3355 -0.3844
v -0.0794 0.3367 -0.3952
v -0.5952 0.2419 -0.2326
v -0.6043 0.2431 -0.2433
v -0.5943 0.3705 -0.2379
v -0.5852 0.3693 -0.2272
v -0.0956 0.3292 -0.1901
v -0.0848 0.3288 -0.1994
v -0.0948 0.2014 -0.2048
v -0.1056 0.2018 -0.1956
v -0.0794 0.3463 -0.3848
v -0.0794 0.3367 -0.3952
v -0.0703 0.3355 -0.3844
v -0.0848 0.3288 -0.1994
v -0.0956 0.3292 -0.1901
v -0.0940 0.3395 -0.1997
v -0.0803 0.2081 -0.3899
v -0.0895 0.2093 -0.4006
v -0.0910 0.1990 -0.3910
v -0.1056 0.1922 -0.2060
v -0.1056 0.2018 -0.1956
v -0.0948 0.2014 -0.2048
v -0.5798 0.3772 -0.4230
v -0.5691 0.3768 -0.4322
v -0.5691 0.3863 -0.4218
v -0.5836 0.3796 -0.2367
v -0.5852 0.3693 -0.2272
v -0.5943 0.3705 -0.2379
v -0.5806 0.2391 -0.4281
v -0.5791 0.2494 -0.4376
v -0.5898 0.2498 -0.4284
v -0.6043 0.2431 -0.2433
v -0.5952 0.2419 -0.2326
v -0.5952 0.2323 -0.2430
v -0.4574 0.2795 -0.2847
v -0.4447 0.3617 -0.2881
v -0.6322 0.3643 -0.9384
v -0.6449 0.2821 -0.9350
v -0.0993 0.1913 -1.0927
v -0.0866 0.2735 -1.0961
v 0.1009 0.2709 -0.4458
v 0.0882 0.1887 -0.4424
v -0.4336 0.3700 -0.2912
v 0.0930 0.2824 -0.4434
v -0.0946 0.2850 -1.0937
v -0.6212 0.3726 -0.9415
v -0.4494 0.2680 -0.2871
v -0.6369 0.2706 -0.9374
v -0.1103 0.1830 -1.0896
v 0.0772 0.1804 -0.4393
v -0.6382 0.2805 -0.9474
v -0.6255 0.3627 -0.9507
v -0.0989 0.2751 -1.1029
v -0.1116 0.1929 -1.0996
v 0.0815 0.1903 -0.4301
v 0.0942 0.2725 -0.4334
v -0.4324 0.3601 -0.2812
v -0.4451 0.2779 -0.2779
v -0.4336 0.3700 -0.2912
v -0.6212 0.3726 -0.9415
v -0.6322 0.3643 -0.9384
v -0.4447 0.3617 -0.2881
v -0.0946 0.2850 -1.0937
v 0.0930 0.2824 -0.4434
v 0.1009 0.2709 -0.4458
v -0.0866 0.2735 -1.0961
v -0.6369 0.2706 -0.9374
v -0.4494 0.2680 -0.2871
v -0.4574 0.2795 -0.2847
v -0.6449 0.2821 -0.9350
v 0.0772 0.1804 -0.4393
v -0.1103 0.1830 -1.0896
v -0.0993 0.1913 -1.0927
v 0.0882 0.1887 -0.4424
v -0.6255 0.3627 -0.9507
v -0.0989 0.2751 -1.1029
v -0.0946 0.2850 -1.0937
v -0.6212 0.3726 -0.9415
v -0.1116 0.1929 -1.0996
v -0.6382 0.2805 -0.9474
v -0.6369 0.2706 -0.9374
v -0.1103 0.1830 -1.0896
v 0.0942 0.2725 -0.4334
v -0.4324 0.3601 -0.2812
v -0.4336 0.3700 -0.2912
v 0.0930 0.2824 -0.4434
v -0.4451 0.2779 -0.2779
v 0.0815 0.1903 -0.4301
v 0.0772 0.1804 -0.4393
v -0.4494 0.2680 -0.2871
v -0.6255 0.3627 -0.9507
v -0.6322 0.3643 -0.9384
v -0.6449 0.2821 -0.9350
v -0.6382 0.2805 -0.9474
v -0.1116 0.1929 -1.0996
v -0.0993 0.1913 -1.0927
v -0.0866 0.2735 -1.0961
v -0.0989 0.2751 -1.1029
v -0.4451 0.2779 -0.2779
v -0.4574 0.2795 -0.2847
v -0.4447 0.3617 -0.2881
v -0.4324 0.3601 -0.2812
v 0.0942 0.2725 -0.4334
v 0.1009 0.2709 -0.4458
v 0.0882 0.1887 -0.4424
v 0.0815 0.1903 -0.4301
v -0.0946 0.2850 -1.0937
v -0.0989 0.2751 -1.1029
v -0.0866 0.2735 -1.0961
v 0.1009 0.2709 -0.4458
v 0.0942 0.2725 -0.4334
v 0.0930 0.2824 -0.4434
v -0.0993 0.1913 -1.0927
v -0.1116 0.1929 -1.0996
v -0.1103 0.1830 -1.0896
v 0.0772 0.1804 -0.4393
v 0.0815 0.1903 -0.4301
v 0.0882 0.1887 -0.4424
v -0.6322 0.3643 -0.9384
v -0.6255 0.3627 -0.9507
v -0.6212 0.3726 -0.9415
v -0.4336 0.3700 -0.2912
v -0.4324 0.3601 -0.2812
v -0.4447 0.3617 -0.2881
v -0.6369 0.2706 -0.9374
v -0.6382 0.2805 -0.9474
v -0.6449 0.2821 -0.9350
v -0.4574 0.2795 -0.2847
v -0.4451 0.2779 -0.2779
v -0.4494 0.2680 -0.2871
v -0.5632 0.1308 0.6071
v -0.5599 0.1755 0.6128
v -0.5234 0.2779 -0.2116
v -0.5267 0.2332 -0.2173
v 0.2147 0.1758 -0.1916
v 0.2179 0.2204 -0.1859
v 0.1814 0.1180 0.6384
v 0.1782 0.0734 0.6327
v -0.5492 0.1846 0.6144
v 0.1722 0.1287 0.6394
v 0.2087 0.2311 -0.1850
v -0.5127 0.2870 -0.2100
v -0.5539 0.1202 0.6062
v -0.5175 0.2225 -0.2182
v 0.2040 0.1666 -0.1932
v 0.1675 0.0643 0.6311
v -0.5163 0.2337 -0.2269
v -0.5130 0.2783 -0.2212
v 0.2084 0.2224 -0.1962
v 0.2051 0.1778 -0.2019
v 0.1678 0.0729 0.6423
v 0.1710 0.1176 0.6480
v -0.5504 0.1735 0.6230
v -0.5537 0.1288 0.6173
v -0.5492 0.1846 0.6144
v -0.5127 0.2870 -0.2100
v -0.5234 0.2779 -0.2116
v -0.5599 0.1755 0.6128
v 0.2087 0.2311 -0.1850
v 0.1722 0.1287 0.6394
v 0.1814 0.1180 0.6384
v 0.2179 0.2204 -0.1859
v -0.5175 0.2225 -0.2182
v -0.5539 0.1202 0.6062
v -0.5632 0.1308 0.6071
v -0.5267 0.2332 -0.2173
v 0.1675 0.0643 0.6311
v 0.2040 0.1666 -0.1932
v 0.2147 0.1758 -0.1916
v 0.1782 0.0734 0.6327
v -0.5130 0.2783 -0.2212
v 0.2084 0.2224 -0.1962
v 0.2087 0.2311 -0.1850
v -0.5127 0.2870 -0.2100
v 0.2051 0.1778 -0.2019
v -0.5163 0.2337 -0.2269
v -0.5175 0.2225 -0.2182
v 0.2040 0.1666 -0.1932
v 0.1710 0.1176 0.6480
v -0.5504 0.1735 0.6230
v -0.5492 0.1846 0.6144
v 0.1722 0.1287 0.6394
v -0.5537 0.1288 0.6173
v 0.1678 0.0729 0.6423
v 0.1675 0.0643 0.6311
v -0.5539 0.1202 0.6062
v -0.5130 0.2783 -0.2212
v -0.5234 0.2779 -0.2116
v -0.5267 0.2332 -0.2173
v -0.5163 0.2337 -0.2269
v 0.2051 0.1778 -0.2019
v 0.2147 0.1758 -0.1916
v 0.2179 0.2204 -0.1859
v 0.2084 0.2224 -0.1962
v -0.5537 0.1288 0.6173
v -0.5632 0.1308 0.6071
v -0.5599 0.1755 0.6128
v -0.5504 0.1735 0.6230
v 0.1710 0.1176 0.6480
v 0.1814 0.1180 0.6384
v 0.1782 0.0734 0.6327
v 0.1678 0.0729 0.6423
v 0.2087 0.2311 -0.1850
v 0.2084 0.2224 -0.1962
v 0.2179 0.2204 -0.1859
v 0.1814 0.1180 0.6384
v 0.1710 0.1176 0.6480
v 0.1722 0.1287 0.6394
v 0.2147 0.1758 -0.1916
v 0.2051 0.1778 -0.2019
v 0.2040 0.1666 -0.1932
v 0.1675 0.0643 0.6311
v 0.1678 0.0729 0.6423
v 0.1782 0.0734 0.6327
v -0.5234 0.2779 -0.2116
v -0.5130 0.2783 -0.2212
v -0.5127 0.2870 -0.2100
v -0.5492 0.1846 0.6144
v -0.5504 0.1735 0.6230
v -0.5599 0.1755 0.6128
v -0.5175 0.2225 -0.2182
v -0.5163 0.2337 -0.2269
v -0.5267 0.2332 -0.2173
v -0.5632 0.1308 0.6071
v -0.5537 0.1288 0.6173
v -0.5539 0.1202 0.6062
v -0.3056 0.2046 0.1986
v -0.3139 0.2836 0.1922
v -0.4681 0.2059 -0.5615
v -0.4598 0.1269 -0.5551
v -0.0374 0.1640 -0.6453
v -0.0457 0.2429 -0.6517
v 0.1085 0.3206 0.1020
v 0.1168 0.2416 0.1084
v -0.3052 0.2943 0.1893
v 0.0977 0.3297 0.1033
v -0.0565 0.2520 -0.6504
v -0.4594 0.2167 -0.5644
v -0.2948 0.1955 0.1974
v -0.4490 0.1179 -0.5563
v -0.0461 0.1532 -0.6424
v 0.1081 0.2309 0.1113
v -0.4520 0.1268 -0.5669
v -0.4603 0.2057 -0.5733
v -0.0574 0.2411 -0.6594
v -0.0491 0.1621 -0.6529
v 0.1090 0.2418 0.1203
v 0.1007 0.3207 0.1138
v -0.3022 0.2854 0.1999
v -0.2939 0.2065 0.2063
v -0.3052 0.2943 0.1893
v -0.4594 0.2167 -0.5644
v -0.4681 0.2059 -0.5615
v -0.3139 0.2836 0.1922
v -0.0565 0.2520 -0.6504
v 0.0977 0.3297 0.1033
v 0.1085 0.3206 0.1020
v -0.0457 0.2429 -0.6517
v -0.4490 0.1179 -0.5563
v -0.2948 0.1955 0.1974
v -0.3056 0.2046 0.1986
v -0.4598 0.1269 -0.5551
v 0.1081 0.2309 0.1113
v -0.0461 0.1532 -0.6424
v -0.0374 0.1640 -0.6453
v 0.1168 0.2416 0.1084
v -0.4603 0.2057 -0.5733
v -0.0574 0.2411 -0.6594
v -0.0565 0.2520 -0.6504
v -0.4594 0.2167 -0.5644
v -0.0491 0.1621 -0.6529
v -0.4520 0.1268 -0.5669
v -0.4490 0.1179 -0.5563
v -0.0461 0.1532 -0.6424
v 0.1007 0.3207 0.1138
v -0.3022 0.2854 0.1999
v -0.3052 0.2943 0.1893
v 0.0977 0.3297 0.1033
v -0.2939 0.2065 0.2063
v 0.1090 0.2418 0.1203
v 0.1081 0.2309 0.1113
v -0.2948 0.1955 0.1974
v -0.4603 0.2057 -0.5733
v -0.4681 0.2059 -0.5615
v -0.4598 0.1269 -0.5551
v -0.4520 0.1268 -0.5669
v -0.0491 0.1621 -0.6529
v -0.0374 0.1640 -0.6453
v -0.0457 0.2429 -0.6517
v -0.0574 0.2411 -0.6594
v -0.2939 0.2065 0.2063
v -0.3056 0.2046 0.1986
v -0.3139 0.2836 0.1922
v -0.3022 0.2854 0.1999
v 0.1007 0.3207 0.1138
v 0.1085 0.3206 0.1020
v 0.1168 0.2416 0.1084
v 0.1090 0.2418 0.1203
v -0.0565 0.2520 -0.6504
v -0.0574 0.2411 -0.6594
v -0.0457 0.2429 -0.6517
v 0.1085 0.3206 0.1020
v 0.1007 0.3207 0.1138
v 0.0977 0.3297 0.1033
v -0.0374 0.1640 -0.6453
v -0.0491 0.1621 -0.6529
v -0.0461 0.1532 -0.6424
v 0.1081 0.2309 0.1113
v 0.1090 0.2418 0.1203
v 0.1168 0.2416 0.1084
v -0.4681 0.2059 -0.5615
v -0.4603 0.2057 -0.5733
v -0.4594 0.2167 -0.5644
v -0.3052 0.2943 0.1893
v -0.3022 0.2854 0.1999
v -0.3139 0.2836 0.1922
v -0.4490 0.1179 -0.5563
v -0.4520 0.1268 -0.5669
v -0.4598 0.1269 -0.5551
v -0.3056 0.2046 0.1986
v -0.2939 0.2065 0.2063
v -0.2948 0.1955 0.1974
v 0.0883 0.1511 0.3207
v 0.0874 0.2568 0.3212
v -0.3347 0.2545 0.0309
v -0.3338 0.1488 0.0305
v -0.0351 0.1532 -0.4040
v -0.0360 0.2590 -0.4035
v 0.3861 0.2613 -0.1133
v 0.3870 0.1555 -0.1137
v 0.0930 0.2669 0.3130
v 0.3803 0.2712 -0.1050
v -0.0418 0.2689 -0.3952
v -0.3291 0.2646 0.0227
v 0.0940 0.1412 0.3124
v -0.3281 0.1389 0.0222
v -0.0407 0.1431 -0.3958
v 0.3814 0.1454 -0.1055
v -0.3364 0.1488 0.0166
v -0.3373 0.2546 0.0170
v -0.0499 0.2588 -0.4009
v -0.0490 0.1531 -0.4014
v 0.3896 0.1555 -0.0998
v 0.3887 0.2612 -0.0994
v 0.1013 0.2570 0.3186
v 0.1022 0.1512 0.3181
v 0.0930 0.2669 0.3130
v -0.3291 0.2646 0.0227
v -0.3347 0.2545 0.0309
v 0.0874 0.2568 0.3212
v -0.0418 0.2689 -0.3952
v 0.3803 0.2712 -0.1050
v 0.3861 0.2613 -0.1133
v -0.0360 0.2590 -0.4035
v -0.3281 0.1389 0.0222
v 0.0940 0.1412 0.3124
v 0.0883 0.1511 0.3207
v -0.3338 0.1488 0.0305
v 0.3814 0.1454 -0.1055
v -0.0407 0.1431 -0.3958
v -0.0351 0.1532 -0.4040
v 0.3870 0.1555 -0.1137
v -0.3373 0.2546 0.0170
v -0.0499 0.2588 -0.4009
v -0.0418 0.2689 -0.3952
v -0.3291 0.2646 0.0227
v -0.0490 0.1531 -0.4014
v -0.3364 0.1488 0.0166
v -0.3281 0.1389 0.0222
v -0.0407 0.1431 -0.3958
v 0.3887 0.2612 -0.0994
v 0.1013 0.2570 0.3186
v 0.0930 0.2669 0.3130
v 0.3803 0.2712 -0.1050
v 0.1022 0.1512 0.3181
v 0.3896 0.1555 -0.0998
v 0.3814 0.1454 -0.1055
v 0.0940 0.1412 0.3124
v -0.3373 0.2546 0.0170
v -0.3347 0.2545 0.0309
v -0.3338 0.1488 0.0305
v -0.3364 0.1488 0.0166
v -0.0490 0.1531 -0.4014
v -0.0351 0.1532 -0.4040
v -0.0360 0.2590 -0.4035
v -0.0499 0.2588 -0.4009
v 0.1022 0.1512 0.3181
v 0.0883 0.1511 0.3207
v 0.0874 0.2568 0.3212
v 0.1013 0.2570 0.3186
v 0.3887 0.2612 -0.0994
v 0.3861 0.2613 -0.1133
v 0.3870 0.1555 -0.1137
v 0.3896 0.1555 -0.0998
v -0.0418 0.2689 -0.3952
v -0.0499 0.2588 -0.4009
v -0.0360 0.2590 -0.4035
v 0.3861 0.2613 -0.1133
v 0.3887 0.2612 -0.0994
v 0.3803 0.2712 -0.1050
v -0.0351 0.1532 -0.4040
v -0.0490 0.1531 -0.4014
v -0.0407 0.1431 -0.3958
v 0.3814 0.1454 -0.1055
v 0.3896 0.1555 -0.0998
v 0.3870 0.1555 -0.1137
v -0.3347 0.2545 0.0309
v -0.3373 0.2546 0.0170
v -0.3291 0.2646 0.0227
v 0.0930 0.2669 0.3130
v 0.1013 0.2570 0.3186
v 0.0874 0.2568 0.3212
v -0.3281 0.1389 0.0222
v -0.3364 0.1488 0.0166
v -0.3338 0.1488 0.0305
v 0.0883 0.1511 0.3207
v 0.1022 0.1512 0.3181
v 0.0940 0.1412 0.3124
v -0.8940 0.2548 0.0097
v -0.8786 0.3548 -0.0077
v -0.8101 0.2414 -0.5994
v -0.8256 0.1414 -0.5820
v -0.4225 0.0890 -0.5253
v -0.4071 0.1890 -0.5427
v -0.4755 0.3024 0.0490
v -0.4910 0.2024 0.0663
v -0.8672 0.3633 -0.0080
v -0.4839 0.3134 0.0459
v -0.4154 0.2000 -0.5458
v -0.7988 0.2498 -0.5997
v -0.8857 0.2438 0.0127
v -0.8172 0.1304 -0.5789
v -0.4339 0.0805 -0.5250
v -0.5023 0.1939 0.0667
v -0.8146 0.1382 -0.5904
v -0.7992 0.2382 -0.6078
v -0.4158 0.1884 -0.5539
v -0.4312 0.0884 -0.5365
v -0.5019 0.2055 0.0747
v -0.4865 0.3055 0.0573
v -0.8699 0.3554 0.0034
v -0.8853 0.2554 0.0208
v -0.8672 0.3633 -0.0080
v -0.7988 0.2498 -0.5997
v -0.8101 0.2414 -0.5994
v -0.8786 0.3548 -0.0077
v -0.4154 0.2000 -0.5458
v -0.4839 0.3134 0.0459
v -0.4755 0.3024 0.0490
v -0.4071 0.1890 -0.5427
v -0.8172 0.1304 -0.5789
v -0.8857 0.2438 0.0127
v -0.8940 0.2548 0.0097
v -0.8256 0.1414 -0.5820
v -0.5023 0.1939 0.0667
v -0.4339 0.0805 -0.5250
v -0.4225 0.0890 -0.5253
v -0.4910 0.2024 0.0663
v -0.7992 0.2382 -0.6078
v -0.4158 0.1884 -0.5539
v -0.4154 0.2000 -0.5458
v -0.7988 0.2498 -0.5997
v -0.4312 0.0884 -0.5365
v -0.8146 0.1382 -0.5904
v -0.8172 0.1304 -0.5789
v -0.4339 0.0805 -0.5250
v -0.4865 0.3055 0.0573
v -0.8699 0.3554 0.0034
v -0.8672 0.3633 -0.0080
v -0.4839 0.3134 0.0459
v -0.8853 0.2554 0.0208
v -0.5019 0.2055 0.0747
v -0.5023 0.1939 0.0667
v -0.8857 0.2438 0.0127
v -0.7992 0.2382 -0.6078
v -0.8101 0.2414 -0.5994
v -0.8256 0.1414 -0.5820
v -0.8146 0.1382 -0.5904
v -0.4312 0.0884 -0.5365
v -0.4225 0.0890 -0.5253
v -0.4071 0.1890 -0.5427
v -0.4158 0.1884 -0.5539
v -0.8853 0.2554 0.0208
v -0.8940 0.2548 0.0097
v -0.8786 0.3548 -0.0077
v -0.8699 0.3554 0.0034
v -0.4865 0.3055 0.0573
v -0.4755 0.3024 0.0490
v -0.4910 0.2024 0.0663
v -0.5019 0.2055 0.0747
v -0.4154 0.2000 -0.5458
v -0.4158 0.1884 -0.5539
v -0.4071 0.1890 -0.5427
v -0.4755 0.3024 0.0490
v -0.4865 0.3055 0.0573
v -0.4839 0.3134 0.0459
v -0.4225 0.0890 -0.5253
v -0.4312 0.0884 -0.5365
v -0.4339 0.0805 -0.5250
v -0.5023 0.1939 0.0667
v -0.5019 0.2055 0.0747
v -0.4910 0.2024 0.0663
v -0.8101 0.2414 -0.5994
v -0.7992 0.2382 -0.6078
v -0.7988 0.2498 -0.5997
v -0.8672 0.3633 -0.0080
v -0.8699 0.3554 0.0034
v -0.8786 0.3548 -0.0077
v -0.8172 0.1304 -0.5789
v -0.8146 0.1382 -0.5904
v -0.8256 0.1414 -0.5820
v -0.8940 0.2548 0.0097
v -0.8853 0.2554 0.0208
v -0.8857 0.2438 0.0127
v -0.7568 0.1551 -0.1108
v -0.7816 0.2520 -0.1108
v -0.7622 0.2570 -0.2088
v -0.7375 0.1601 -0.2088
v 0.7816 0.5480 0.1108
v 0.7568 0.6449 0.1108
v 0.7375 0.6399 0.2088
v 0.7622 0.5430 0.2088
v -0.7675 0.2763 -0.1068
v 0.7135 0.6544 0.2048
v 0.7329 0.6594 0.1068
v -0.7482 0.2812 -0.2048
v -0.7329 0.1406 -0.1068
v -0.7135 0.1456 -0.2048
v 0.7675 0.5237 0.1068
v 0.7482 0.5188 0.2048
v -0.7146 0.1659 -0.2244
v -0.7394 0.2628 -0.2244
v 0.7417 0.6410 0.0872
v 0.7664 0.5441 0.0872
v 0.7394 0.5372 0.2244
v 0.7146 0.6341 0.2244
v -0.7664 0.2559 -0.0872
v -0.7417 0.1590 -0.0872
v -0.7675 0.2763 -0.1068
v -0.7482 0.2812 -0.2048
v -0.7622 0.2570 -0.2088
v -0.7816 0.2520 -0.1108
v 0.7329 0.6594 0.1068
v 0.7135 0.6544 0.2048
v 0.7375 0.6399 0.2088
v 0.7568 0.6449 0.1108
v -0.7135 0.1456 -0.2048
v -0.7329 0.1406 -0.1068
v -0.7568 0.1551 -0.1108
v -0.7375 0.1601 -0.2088
v 0.7482 0.5188 0.2048
v 0.7675 0.5237 0.1068
v 0.7816 0.5480 0.1108
v 0.7622 0.5430 0.2088
v -0.7394 0.2628 -0.2244
v 0.7417 0.6410 0.0872
v 0.7329 0.6594 0.1068
v -0.7482 0.2812 -0.2048
v 0.7664 0.5441 0.0872
v -0.7146 0.1659 -0.2244
v -0.7135 0.1456 -0.2048
v 0.7675 0.5237 0.1068
v 0.7146 0.6341 0.2244
v -0.7664 0.2559 -0.0872
v -0.7675 0.2763 -0.1068
v 0.7135 0.6544 0.2048
v -0.7417 0.1590 -0.0872
v 0.7394 0.5372 0.2244
v 0.7482 0.5188 0.2048
v -0.7329 0.1406 -0.1068
v -0.7394 0.2628 -0.2244
v -0.7622 0.2570 -0.2088
v -0.7375 0.1601 -0.2088
v -0.7146 0.1659 -0.2244
v 0.7664 0.5441 0.0872
v 0.7816 0.5480 0.1108
v 0.7568 0.6449 0.1108
v 0.7417 0.6410 0.0872
v -0.7417 0.1590 -0.0872
v -0.7568 0.1551 -0.1108
v -0.7816 0.2520 -0.1108
v -0.7664 0.2559 -0.0872
v 0.7146 0.6341 0.2244
v 0.7375 0.6399 0.2088
v 0.7622 0.5430 0.2088
v 0.7394 0.5372 0.2244
v 0.7329 0.6594 0.1068
v 0.7417 0.6410 0.0872
v 0.7568 0.6449 0.1108
v 0.7375 0.6399 0.2088
v 0.7146 0.6341 0.2244
v 0.7135 0.6544 0.2048
v 0.7816 0.5480 0.1108
v 0.7664 0.5441 0.0872
v 0.7675 0.5237 0.1068
v 0.7482 0.5188 0.2048
v 0.7394 0.5372 0.2244
v 0.7622 0.5430 0.2088
v -0.7622 0.2570 -0.2088
v -0.7394 0.2628 -0.2244
v -0.7482 0.2812 -0.2048
v -0.7675 0.2763 -0.1068
v -0.7664 0.2559 -0.0872
v -0.7816 0.2520 -0.1108
v -0.7135 0.1456 -0.2048
v -0.7146 0.1659 -0.2244
v -0.7375 0.1601 -0.2088
v -0.7568 0.1551 -0.1108
v -0.7417 0.1590 -0.0872
v -0.7329 0.1406 -0.1068
vt 0.7291 0.3461
vt 0.7266 0.3866
vt 0.5084 0.3044
vt 0.5108 0.2639
vt 0.5234 0.3634
vt 0.5209 0.4039
vt 0.7392 0.4861
vt 0.7416 0.4456
vt 0.5072 0.4761
vt 0.7287 0.4882
vt 0.7401 0.2700
vt 0.5186 0.2579
vt 0.5099 0.4800
vt 0.5213 0.2618
vt 0.7428 0.2739
vt 0.7314 0.4921
vt 0.5211 0.2638
vt 0.5194 0.3043
vt 0.7408 0.4006
vt 0.7425 0.3601
vt 0.7306 0.4457
vt 0.7289 0.4862
vt 0.5075 0.3899
vt 0.5092 0.3494
vt 0.7261 0.3997
vt 0.5079 0.3176
vt 0.5084 0.3044
vt 0.7266 0.3866
vt 0.7401 0.2700
vt 0.7287 0.4882
vt 0.7329 0.4892
vt 0.7443 0.2709
vt 0.5213 0.2618
vt 0.5099 0.4800
vt 0.5057 0.4791
vt 0.5171 0.2608
vt 0.7421 0.4324
vt 0.5239 0.3503
vt 0.5234 0.3634
vt 0.7416 0.4456
vt 0.5194 0.3043
vt 0.7408 0.4006
vt 0.7401 0.4138
vt 0.5186 0.3176
vt 0.7425 0.2686
vt 0.5211 0.2565
vt 0.5213 0.2618
vt 0.7428 0.2739
vt 0.7289 0.4935
vt 0.5075 0.4814
vt 0.5072 0.4761
vt 0.7287 0.4882
vt 0.5092 0.3494
vt 0.7306 0.4457
vt 0.7314 0.4324
vt 0.5099 0.3362
vt 0.5194 0.3043
vt 0.5154 0.3044
vt 0.5171 0.2639
vt 0.5211 0.2638
vt 0.5186 0.3601
vt 0.5234 0.3634
vt 0.5209 0.4039
vt 0.5161 0.4006
vt 0.7339 0.3494
vt 0.7291 0.3461
vt 0.7266 0.3866
vt 0.7314 0.3899
vt 0.7289 0.4862
vt 0.7329 0.4861
vt 0.7346 0.4456
vt 0.7306 0.4457
vt 0.7401 0.4138
vt 0.7408 0.4006
vt 0.7443 0.4039
vt 0.7329 0.4892
vt 0.7289 0.4935
vt 0.7287 0.4882
vt 0.5234 0.3634
vt 0.5186 0.3601
vt 0.5239 0.3503
vt 0.7314 0.4324
vt 0.7306 0.4457
vt 0.7346 0.4456
vt 0.5154 0.3044
vt 0.5194 0.3043
vt 0.5186 0.3176
vt 0.7261 0.3997
vt 0.7314 0.3899
vt 0.7266 0.3866
vt 0.5213 0.2618
vt 0.5211 0.2565
vt 0.5171 0.2608
vt 0.5057 0.3461
vt 0.5092 0.3494
vt 0.5099 0.3362
vt 0.9767 0.2873
vt 0.9841 0.4562
vt 0.7684 0.4843
vt 0.7609 0.3154
vt 0.7659 0.2938
vt 0.7733 0.4627
vt 0.9891 0.4346
vt 0.9816 0.2657
vt 0.7603 0.4847
vt 0.9898 0.4895
vt 0.9918 0.2738
vt 0.7623 0.2690
vt 0.7582 0.4762
vt 0.7602 0.2605
vt 0.9897 0.2653
vt 0.9877 0.4810
vt 0.7604 0.3159
vt 0.7623 0.4848
vt 0.9917 0.4640
vt 0.9899 0.2951
vt 0.9877 0.2652
vt 0.9896 0.4341
vt 0.7601 0.4549
vt 0.7583 0.2860
vt 0.7603 0.4847
vt 0.7623 0.2690
vt 0.7579 0.2684
vt 0.7559 0.4841
vt 0.7738 0.4753
vt 0.9895 0.4472
vt 0.9891 0.4346
vt 0.7733 0.4627
vt 0.7605 0.3028
vt 0.9762 0.2747
vt 0.9767 0.2873
vt 0.7609 0.3154
vt 0.9877 0.4810
vt 0.9897 0.2653
vt 0.9941 0.2659
vt 0.9921 0.4816
vt 0.7623 0.2614
vt 0.9917 0.2662
vt 0.9918 0.2738
vt 0.7623 0.2690
vt 0.9899 0.2951
vt 0.7604 0.3159
vt 0.7602 0.3028
vt 0.9897 0.2821
vt 0.9896 0.4341
vt 0.7601 0.4549
vt 0.7603 0.4679
vt 0.9898 0.4472
vt 0.7583 0.4838
vt 0.9877 0.4886
vt 0.9877 0.4810
vt 0.7582 0.4762
vt 0.7623 0.4848
vt 0.7579 0.4843
vt 0.7560 0.3154
vt 0.7604 0.3159
vt 0.7588 0.2951
vt 0.7659 0.2938
vt 0.7733 0.4627
vt 0.7662 0.4640
vt 0.9838 0.2860
vt 0.9767 0.2873
vt 0.9841 0.4562
vt 0.9912 0.4549
vt 0.9896 0.4341
vt 0.9940 0.4346
vt 0.9921 0.2657
vt 0.9877 0.2652
vt 0.7738 0.4753
vt 0.7662 0.4640
vt 0.7733 0.4627
vt 0.9940 0.4346
vt 0.9896 0.4341
vt 0.9898 0.4472
vt 0.9941 0.2938
vt 0.9899 0.2951
vt 0.9897 0.2821
vt 0.9877 0.4810
vt 0.9877 0.4886
vt 0.9921 0.4816
vt 0.7579 0.2684
vt 0.7623 0.2614
vt 0.7623 0.2690
vt 0.7603 0.4679
vt 0.7601 0.4549
vt 0.7559 0.4562
vt 0.7602 0.3028
vt 0.7604 0.3159
vt 0.7560 0.3154
vt 0.9767 0.2873
vt 0.9838 0.2860
vt 0.9762 0.2747
vt 0.7570 0.3254
vt 0.7605 0.4276
vt 0.9367 0.3668
vt 0.9333 0.2645
vt 0.9895 0.3224
vt 0.9930 0.4246
vt 0.8167 0.4855
vt 0.8133 0.3832
vt 0.7616 0.2802
vt 0.8164 0.4909
vt 0.9926 0.4672
vt 0.9378 0.2565
vt 0.7574 0.2828
vt 0.9336 0.2591
vt 0.9884 0.4698
vt 0.8122 0.4935
vt 0.7584 0.2640
vt 0.7562 0.3662
vt 0.9669 0.4226
vt 0.9690 0.3204
vt 0.9938 0.3838
vt 0.9916 0.4860
vt 0.7810 0.4296
vt 0.7831 0.3274
vt 0.7616 0.4396
vt 0.9378 0.3788
vt 0.9367 0.3668
vt 0.7605 0.4276
vt 0.9926 0.4672
vt 0.8164 0.4909
vt 0.8167 0.4938
vt 0.9930 0.4701
vt 0.9336 0.2591
vt 0.7574 0.2828
vt 0.7570 0.2799
vt 0.9333 0.2562
vt 0.8122 0.3712
vt 0.9884 0.3104
vt 0.9895 0.3224
vt 0.8133 0.3832
vt 0.7562 0.3662
vt 0.9669 0.4226
vt 0.9672 0.4352
vt 0.7565 0.3788
vt 0.9925 0.4690
vt 0.9377 0.2584
vt 0.9336 0.2591
vt 0.9884 0.4698
vt 0.8123 0.4916
vt 0.7575 0.2810
vt 0.7616 0.2802
vt 0.8164 0.4909
vt 0.7831 0.3274
vt 0.9938 0.3838
vt 0.9935 0.3712
vt 0.7828 0.3148
vt 0.9412 0.3662
vt 0.9367 0.3668
vt 0.9333 0.2645
vt 0.9377 0.2640
vt 0.9690 0.3204
vt 0.9723 0.3224
vt 0.9701 0.4246
vt 0.9669 0.4226
vt 0.7831 0.3274
vt 0.7799 0.3254
vt 0.7777 0.4276
vt 0.7810 0.4296
vt 0.8123 0.4860
vt 0.8167 0.4855
vt 0.8133 0.3832
vt 0.8088 0.3838
vt 0.9672 0.4352
vt 0.9669 0.4226
vt 0.9701 0.4246
vt 0.8167 0.4938
vt 0.8123 0.4916
vt 0.8164 0.4909
vt 0.9723 0.3224
vt 0.9690 0.3204
vt 0.9698 0.3104
vt 0.8122 0.3712
vt 0.8088 0.3838
vt 0.8133 0.3832
vt 0.9367 0.3668
vt 0.9412 0.3662
vt 0.9378 0.3788
vt 0.7802 0.4396
vt 0.7810 0.4296
vt 0.7777 0.4276
vt 0.9336 0.2591
vt 0.9377 0.2584
vt 0.9333 0.2562
vt 0.7799 0.3254
vt 0.7831 0.3274
vt 0.7828 0.3148
vt 0.6940 0.3174
vt 0.6993 0.4762
vt 0.5183 0.4846
vt 0.5130 0.3258
vt 0.5507 0.2738
vt 0.5560 0.4326
vt 0.7370 0.4242
vt 0.7317 0.2654
vt 0.5134 0.4505
vt 0.7353 0.4867
vt 0.7419 0.3057
vt 0.5200 0.2695
vt 0.5081 0.4443
vt 0.5147 0.2633
vt 0.7366 0.2995
vt 0.7300 0.4805
vt 0.5154 0.3252
vt 0.5200 0.4840
vt 0.7419 0.4341
vt 0.7373 0.2753
vt 0.7300 0.2660
vt 0.7346 0.4248
vt 0.5127 0.4747
vt 0.5081 0.3159
vt 0.5134 0.4505
vt 0.5200 0.2695
vt 0.5151 0.2683
vt 0.5085 0.4493
vt 0.5557 0.4460
vt 0.7367 0.4376
vt 0.7370 0.4242
vt 0.5560 0.4326
vt 0.5133 0.3124
vt 0.6943 0.3040
vt 0.6940 0.3174
vt 0.5130 0.3258
vt 0.7300 0.4805
vt 0.7366 0.2995
vt 0.7415 0.3007
vt 0.7349 0.4817
vt 0.5200 0.2593
vt 0.7419 0.2955
vt 0.7419 0.3057
vt 0.5200 0.2695
vt 0.7373 0.2753
vt 0.5154 0.3252
vt 0.5147 0.3124
vt 0.7366 0.2624
vt 0.7346 0.4248
vt 0.5127 0.4747
vt 0.5134 0.4876
vt 0.7353 0.4376
vt 0.5081 0.4545
vt 0.7300 0.4907
vt 0.7300 0.4805
vt 0.5081 0.4443
vt 0.5200 0.4840
vt 0.5151 0.4846
vt 0.5106 0.3258
vt 0.5154 0.3252
vt 0.5402 0.2753
vt 0.5507 0.2738
vt 0.5560 0.4326
vt 0.5455 0.4341
vt 0.7045 0.3159
vt 0.6940 0.3174
vt 0.6993 0.4762
vt 0.7098 0.4747
vt 0.7346 0.4248
vt 0.7394 0.4242
vt 0.7349 0.2654
vt 0.7300 0.2660
vt 0.5557 0.4460
vt 0.5455 0.4341
vt 0.5560 0.4326
vt 0.7394 0.4242
vt 0.7346 0.4248
vt 0.7353 0.4376
vt 0.7415 0.3007
vt 0.7373 0.2902
vt 0.7366 0.2995
vt 0.7300 0.4805
vt 0.7300 0.4907
vt 0.7349 0.4817
vt 0.5151 0.2683
vt 0.5200 0.2593
vt 0.5200 0.2695
vt 0.5134 0.4505
vt 0.5127 0.4598
vt 0.5085 0.4493
vt 0.5147 0.3124
vt 0.5154 0.3252
vt 0.5106 0.3258
vt 0.6940 0.3174
vt 0.7045 0.3159
vt 0.6943 0.3040
vt 0.9940 0.3788
vt 0.9930 0.4823
vt 0.8023 0.4856
vt 0.8032 0.3820
vt 0.7570 0.2677
vt 0.7560 0.3712
vt 0.9468 0.3680
vt 0.9477 0.2644
vt 0.8225 0.4921
vt 0.9934 0.4474
vt 0.9326 0.2567
vt 0.7617 0.3013
vt 0.8174 0.4933
vt 0.7566 0.3026
vt 0.9275 0.2579
vt 0.9883 0.4487
vt 0.7562 0.3801
vt 0.7603 0.4836
vt 0.9312 0.3733
vt 0.9270 0.2697
vt 0.9897 0.2664
vt 0.9938 0.3699
vt 0.8230 0.4803
vt 0.8188 0.3767
vt 0.8225 0.4921
vt 0.7617 0.3013
vt 0.7581 0.3023
vt 0.8190 0.4930
vt 0.7567 0.3857
vt 0.9474 0.3824
vt 0.9468 0.3680
vt 0.7560 0.3712
vt 0.8026 0.3676
vt 0.9933 0.3643
vt 0.9940 0.3788
vt 0.8032 0.3820
vt 0.9883 0.4487
vt 0.9275 0.2579
vt 0.9310 0.2570
vt 0.9919 0.4477
vt 0.7603 0.4836
vt 0.9312 0.3733
vt 0.9326 0.3857
vt 0.7617 0.4960
vt 0.9270 0.2550
vt 0.7562 0.2996
vt 0.7566 0.3026
vt 0.9275 0.2579
vt 0.9938 0.4504
vt 0.8230 0.4950
vt 0.8225 0.4921
vt 0.9934 0.4474
vt 0.8188 0.3767
vt 0.9897 0.2664
vt 0.9883 0.2540
vt 0.8174 0.3643
vt 0.7986 0.4836
vt 0.8023 0.4856
vt 0.8032 0.3820
vt 0.7996 0.3801
vt 0.9270 0.2697
vt 0.9310 0.2677
vt 0.9351 0.3712
vt 0.9312 0.3733
vt 0.8188 0.3767
vt 0.8149 0.3788
vt 0.8190 0.4823
vt 0.8230 0.4803
vt 0.9504 0.3699
vt 0.9468 0.3680
vt 0.9477 0.2644
vt 0.9514 0.2664
vt 0.9326 0.3857
vt 0.9312 0.3733
vt 0.9351 0.3712
vt 0.9468 0.3680
vt 0.9504 0.3699
vt 0.9474 0.3824
vt 0.9310 0.2677
vt 0.9270 0.2697
vt 0.9275 0.2573
vt 0.9883 0.4487
vt 0.9897 0.4514
vt 0.9919 0.4477
vt 0.7581 0.3023
vt 0.7603 0.2986
vt 0.7617 0.3013
vt 0.8225 0.4927
vt 0.8230 0.4803
vt 0.8190 0.4823
vt 0.8026 0.3676
vt 0.7996 0.3801
vt 0.8032 0.3820
vt 0.8149 0.3788
vt 0.8188 0.3767
vt 0.8174 0.3643
vt 0.9847 0.3263
vt 0.9863 0.3749
vt 0.7582 0.4861
vt 0.7566 0.4376
vt 0.7637 0.3751
vt 0.7653 0.4237
vt 0.9934 0.3124
vt 0.9918 0.2639
vt 0.7583 0.4867
vt 0.9818 0.4936
vt 0.9931 0.2656
vt 0.7696 0.2587
vt 0.7569 0.4844
vt 0.7682 0.2564
vt 0.9917 0.2633
vt 0.9804 0.4913
vt 0.7685 0.4381
vt 0.7695 0.4866
vt 0.9930 0.4259
vt 0.9920 0.3773
vt 0.9805 0.2634
vt 0.9815 0.3119
vt 0.7580 0.3727
vt 0.7570 0.3241
vt 0.7583 0.4867
vt 0.7696 0.2587
vt 0.7663 0.2582
vt 0.7550 0.4863
vt 0.7656 0.4353
vt 0.9936 0.3240
vt 0.9934 0.3124
vt 0.7653 0.4237
vt 0.7564 0.4260
vt 0.9844 0.3147
vt 0.9847 0.3263
vt 0.7566 0.4376
vt 0.9804 0.4913
vt 0.9917 0.2633
vt 0.9950 0.2637
vt 0.9837 0.4918
vt 0.7695 0.2556
vt 0.9930 0.2625
vt 0.9931 0.2656
vt 0.7696 0.2587
vt 0.9920 0.3773
vt 0.7685 0.4381
vt 0.7682 0.4260
vt 0.9917 0.3652
vt 0.9815 0.3119
vt 0.7580 0.3727
vt 0.7583 0.3848
vt 0.9818 0.3240
vt 0.7570 0.4875
vt 0.9805 0.4944
vt 0.9804 0.4913
vt 0.7569 0.4844
vt 0.7695 0.4866
vt 0.7663 0.4861
vt 0.7653 0.4376
vt 0.7685 0.4381
vt 0.7609 0.3773
vt 0.7637 0.3751
vt 0.7653 0.4237
vt 0.7625 0.4259
vt 0.9875 0.3241
vt 0.9847 0.3263
vt 0.9863 0.3749
vt 0.9891 0.3727
vt 0.9815 0.3119
vt 0.9847 0.3124
vt 0.9837 0.2639
vt 0.9805 0.2634
vt 0.7656 0.4353
vt 0.7625 0.4259
vt 0.7653 0.4237
vt 0.9847 0.3124
vt 0.9815 0.3119
vt 0.9818 0.3240
vt 0.9950 0.3751
vt 0.9920 0.3773
vt 0.9917 0.3652
vt 0.9804 0.4913
vt 0.9805 0.4944
vt 0.9837 0.4918
vt 0.7663 0.2582
vt 0.7695 0.2556
vt 0.7696 0.2587
vt 0.7583 0.3848
vt 0.7580 0.3727
vt 0.7550 0.3749
vt 0.7682 0.4260
vt 0.7685 0.4381
vt 0.7653 0.4376
vt 0.9847 0.3263
vt 0.9875 0.3241
vt 0.9844 0.3147
vt 0.7439 0.3531
vt 0.7421 0.4433
vt 0.5314 0.3546
vt 0.5332 0.2644
vt 0.5079 0.3067
vt 0.5061 0.3969
vt 0.7168 0.4856
vt 0.7186 0.3954
vt 0.5714 0.4912
vt 0.7381 0.4672
vt 0.6743 0.2565
vt 0.5076 0.2806
vt 0.5757 0.4935
vt 0.5119 0.2828
vt 0.6786 0.2588
vt 0.7424 0.4694
vt 0.5106 0.2642
vt 0.5072 0.3544
vt 0.6739 0.3948
vt 0.6774 0.3045
vt 0.7428 0.3956
vt 0.7394 0.4858
vt 0.5726 0.4455
vt 0.5761 0.3552
vt 0.7412 0.4556
vt 0.5306 0.3669
vt 0.5314 0.3546
vt 0.7421 0.4433
vt 0.6743 0.2565
vt 0.7381 0.4672
vt 0.7426 0.4668
vt 0.6788 0.2561
vt 0.5119 0.2828
vt 0.5757 0.4935
vt 0.5712 0.4939
vt 0.5074 0.2832
vt 0.7194 0.3831
vt 0.5088 0.2944
vt 0.5079 0.3067
vt 0.7186 0.3954
vt 0.5072 0.3544
vt 0.6739 0.3948
vt 0.6743 0.4072
vt 0.5076 0.3669
vt 0.6774 0.2558
vt 0.5106 0.2799
vt 0.5119 0.2828
vt 0.6786 0.2588
vt 0.7394 0.4701
vt 0.5726 0.4942
vt 0.5714 0.4912
vt 0.7381 0.4672
vt 0.5761 0.3552
vt 0.7428 0.3956
vt 0.7424 0.3831
vt 0.5757 0.3428
vt 0.5281 0.3544
vt 0.5314 0.3546
vt 0.5332 0.2644
vt 0.5299 0.2642
vt 0.6774 0.3045
vt 0.6822 0.3067
vt 0.6788 0.3969
vt 0.6739 0.3948
vt 0.5761 0.3552
vt 0.5712 0.3531
vt 0.5678 0.4433
vt 0.5726 0.4455
vt 0.7201 0.4858
vt 0.7168 0.4856
vt 0.7186 0.3954
vt 0.7219 0.3956
vt 0.6743 0.4072
vt 0.6739 0.3948
vt 0.6788 0.3969
vt 0.7426 0.4668
vt 0.7394 0.4701
vt 0.7381 0.4672
vt 0.6822 0.3067
vt 0.6774 0.3045
vt 0.6786 0.2944
vt 0.7194 0.3831
vt 0.7219 0.3956
vt 0.7186 0.3954
vt 0.5314 0.3546
vt 0.5281 0.3544
vt 0.5306 0.3669
vt 0.5714 0.4556
vt 0.5726 0.4455
vt 0.5678 0.4433
vt 0.5119 0.2828
vt 0.5106 0.2799
vt 0.5074 0.2832
vt 0.5712 0.3531
vt 0.5761 0.3552
vt 0.5757 0.3428
vt 0.8957 0.2763
vt 0.8954 0.4698
vt 0.7549 0.4656
vt 0.7552 0.2721
vt 0.8546 0.2802
vt 0.8543 0.4737
vt 0.9948 0.4779
vt 0.9951 0.2844
vt 0.8973 0.4933
vt 0.9929 0.3538
vt 0.8524 0.2569
vt 0.7567 0.3964
vt 0.8976 0.4931
vt 0.7571 0.3962
vt 0.8527 0.2567
vt 0.9933 0.3536
vt 0.8943 0.2722
vt 0.8945 0.4656
vt 0.7550 0.4734
vt 0.7549 0.2800
vt 0.8555 0.2844
vt 0.8557 0.4778
vt 0.9951 0.4700
vt 0.9950 0.2766
vt 0.8973 0.4933
vt 0.7567 0.3964
vt 0.7549 0.3991
vt 0.8954 0.4960
vt 0.8524 0.2569
vt 0.9929 0.3538
vt 0.9948 0.3510
vt 0.8543 0.2542
vt 0.7571 0.3962
vt 0.8976 0.4931
vt 0.8957 0.4958
vt 0.7552 0.3990
vt 0.9933 0.3536
vt 0.8527 0.2567
vt 0.8546 0.2540
vt 0.9951 0.3509
vt 0.7540 0.3945
vt 0.8497 0.2550
vt 0.8524 0.2569
vt 0.7567 0.3964
vt 0.8500 0.2549
vt 0.7543 0.3943
vt 0.7571 0.3962
vt 0.8527 0.2567
vt 0.9957 0.3557
vt 0.9000 0.4951
vt 0.8973 0.4933
vt 0.9929 0.3538
vt 0.9003 0.4950
vt 0.9960 0.3555
vt 0.9933 0.3536
vt 0.8976 0.4931
vt 0.8945 0.4656
vt 0.8991 0.4656
vt 0.8990 0.2721
vt 0.8943 0.2722
vt 0.8500 0.2800
vt 0.8546 0.2802
vt 0.8543 0.4737
vt 0.8497 0.4734
vt 0.9003 0.2766
vt 0.8957 0.2763
vt 0.8954 0.4698
vt 0.9000 0.4700
vt 0.8557 0.4778
vt 0.8510 0.4779
vt 0.8509 0.2844
vt 0.8555 0.2844
vt 0.8524 0.4918
vt 0.8497 0.4734
vt 0.8543 0.4737
vt 0.8510 0.4779
vt 0.8557 0.4778
vt 0.8538 0.4960
vt 0.8546 0.2802
vt 0.8500 0.2800
vt 0.8527 0.2618
vt 0.8536 0.2660
vt 0.8555 0.2844
vt 0.8509 0.2844
vt 0.8991 0.4656
vt 0.8945 0.4656
vt 0.8964 0.4840
vt 0.8973 0.4882
vt 0.9000 0.4700
vt 0.8954 0.4698
vt 0.8962 0.2540
vt 0.8943 0.2722
vt 0.8990 0.2721
vt 0.8957 0.2763
vt 0.9003 0.2766
vt 0.8976 0.2582
vt 0.9729 0.4032
vt 0.9668 0.4888
vt 0.7570 0.3917
vt 0.7631 0.3061
vt 0.7832 0.2612
vt 0.7771 0.3468
vt 0.9869 0.4439
vt 0.9930 0.3583
vt 0.7673 0.4667
vt 0.9578 0.4858
vt 0.9919 0.2760
vt 0.8013 0.2569
vt 0.7581 0.4740
vt 0.7922 0.2642
vt 0.9827 0.2833
vt 0.9487 0.4931
vt 0.7935 0.3034
vt 0.8011 0.3890
vt 0.9917 0.3463
vt 0.9840 0.2607
vt 0.9489 0.3610
vt 0.9565 0.4466
vt 0.7660 0.4893
vt 0.7583 0.4037
vt 0.7673 0.4667
vt 0.8013 0.2569
vt 0.7957 0.2570
vt 0.7617 0.4668
vt 0.7760 0.3563
vt 0.9858 0.4533
vt 0.9869 0.4439
vt 0.7771 0.3468
vt 0.7642 0.2967
vt 0.9740 0.3937
vt 0.9729 0.4032
vt 0.7631 0.3061
vt 0.9487 0.4931
vt 0.9827 0.2833
vt 0.9883 0.2832
vt 0.9543 0.4930
vt 0.8011 0.3890
vt 0.9917 0.3463
vt 0.9919 0.3563
vt 0.8013 0.3989
vt 0.9840 0.2793
vt 0.7935 0.2602
vt 0.7922 0.2642
vt 0.9827 0.2833
vt 0.9565 0.4898
vt 0.7660 0.4707
vt 0.7673 0.4667
vt 0.9578 0.4858
vt 0.7583 0.4037
vt 0.9489 0.3610
vt 0.9487 0.3511
vt 0.7581 0.3937
vt 0.8011 0.3890
vt 0.7957 0.3917
vt 0.7880 0.3061
vt 0.7935 0.3034
vt 0.7793 0.2607
vt 0.7832 0.2612
vt 0.7771 0.3468
vt 0.7731 0.3463
vt 0.9769 0.4037
vt 0.9729 0.4032
vt 0.9668 0.4888
vt 0.9707 0.4893
vt 0.9565 0.4466
vt 0.9620 0.4439
vt 0.9543 0.3583
vt 0.9489 0.3610
vt 0.7760 0.3563
vt 0.7731 0.3463
vt 0.7771 0.3468
vt 0.9620 0.4869
vt 0.9565 0.4898
vt 0.9578 0.4858
vt 0.9883 0.2832
vt 0.9840 0.2793
vt 0.9827 0.2833
vt 0.9487 0.3511
vt 0.9489 0.3610
vt 0.9543 0.3583
vt 0.7957 0.3917
vt 0.8011 0.3890
vt 0.8013 0.3989
vt 0.7673 0.4667
vt 0.7660 0.4707
vt 0.7617 0.4668
vt 0.7922 0.2642
vt 0.7935 0.2602
vt 0.7880 0.2631
vt 0.9729 0.4032
vt 0.9769 0.4037
vt 0.9740 0.3937
vt 0.1285 0.2608
vt 0.1285 0.3060
vt 0.0211 0.3083
vt 0.0211 0.2631
vt 0.3715 0.4440
vt 0.3715 0.4892
vt 0.4789 0.4869
vt 0.4789 0.4417
vt 0.0084 0.3174
vt 0.4746 0.4854
vt 0.4807 0.4326
vt 0.0145 0.2646
vt 0.0193 0.3174
vt 0.0254 0.2646
vt 0.4916 0.4326
vt 0.4855 0.4854
vt 0.0251 0.2658
vt 0.0173 0.3110
vt 0.4835 0.4874
vt 0.4912 0.4422
vt 0.4827 0.4390
vt 0.4749 0.4842
vt 0.0088 0.3078
vt 0.0165 0.2626
vt 0.1329 0.3173
vt 0.0255 0.3196
vt 0.0211 0.3083
vt 0.1285 0.3060
vt 0.4807 0.4326
vt 0.4746 0.4854
vt 0.4821 0.4876
vt 0.4882 0.4347
vt 0.0254 0.2646
vt 0.0193 0.3174
vt 0.0118 0.3153
vt 0.0179 0.2624
vt 0.4745 0.4304
vt 0.3671 0.4327
vt 0.3715 0.4440
vt 0.4789 0.4417
vt 0.0173 0.2540
vt 0.4835 0.4220
vt 0.4807 0.4326
vt 0.0145 0.2646
vt 0.4912 0.4422
vt 0.0251 0.2658
vt 0.0254 0.2563
vt 0.4916 0.4327
vt 0.4749 0.4842
vt 0.0088 0.3078
vt 0.0084 0.3173
vt 0.4746 0.4937
vt 0.0165 0.3280
vt 0.4827 0.4960
vt 0.4855 0.4854
vt 0.0193 0.3174
vt 0.0173 0.3110
vt 0.0101 0.3083
vt 0.0179 0.2631
vt 0.0251 0.2658
vt 0.3456 0.4422
vt 0.3715 0.4440
vt 0.3715 0.4892
vt 0.3456 0.4874
vt 0.1544 0.2626
vt 0.1285 0.2608
vt 0.1285 0.3060
vt 0.1544 0.3078
vt 0.4749 0.4842
vt 0.4821 0.4869
vt 0.4899 0.4417
vt 0.4827 0.4390
vt 0.4807 0.4326
vt 0.4835 0.4220
vt 0.4882 0.4347
vt 0.4821 0.4869
vt 0.4749 0.4842
vt 0.4746 0.4937
vt 0.3715 0.4440
vt 0.3456 0.4422
vt 0.3671 0.4327
vt 0.4855 0.4304
vt 0.4827 0.4390
vt 0.4899 0.4417
vt 0.0101 0.3083
vt 0.0173 0.3110
vt 0.0145 0.3196
vt 0.1329 0.3173
vt 0.1544 0.3078
vt 0.1285 0.3060
vt 0.0254 0.2563
vt 0.0251 0.2658
vt 0.0179 0.2631
vt 0.0118 0.3153
vt 0.0165 0.3280
vt 0.0193 0.3174
vn -0.9896 -0.1367 -0.0438
vn -0.9896 -0.1367 -0.0438
vn -0.9896 -0.1367 -0.0438
vn -0.9896 -0.1367 -0.0438
vn 0.9896 0.1367 0.0438
vn 0.9896 0.1367 0.0438
vn 0.9896 0.1367 0.0438
vn 0.9896 0.1367 0.0438
vn -0.1285 0.9798 -0.1531
vn -0.1285 0.9798 -0.1531
vn -0.1285 0.9798 -0.1531
vn -0.1285 0.9798 -0.1531
vn 0.1285 -0.9798 0.1531
vn 0.1285 -0.9798 0.1531
vn 0.1285 -0.9798 0.1531
vn 0.1285 -0.9798 0.1531
vn 0.0638 -0.1459 -0.9872
vn 0.0638 -0.1459 -0.9872
vn 0.0638 -0.1459 -0.9872
vn 0.0638 -0.1459 -0.9872
vn -0.0638 0.1459 0.9872
vn -0.0638 0.1459 0.9872
vn -0.0638 0.1459 0.9872
vn -0.0638 0.1459 0.9872
vn -0.7907 0.5962 -0.1392
vn -0.7907 0.5962 -0.1392
vn -0.7907 0.5962 -0.1392
vn -0.7907 0.5962 -0.1392
vn 0.6089 0.7895 -0.0773
vn 0.6089 0.7895 -0.0773
vn 0.6089 0.7895 -0.0773
vn 0.6089 0.7895 -0.0773
vn -0.6089 -0.7895 0.0773
vn -0.6089 -0.7895 0.0773
vn -0.6089 -0.7895 0.0773
vn -0.6089 -0.7895 0.0773
vn 0.7907 -0.5962 0.1392
vn 0.7907 -0.5962 0.1392
vn 0.7907 -0.5962 0.1392
vn 0.7907 -0.5962 0.1392
vn 0.0458 -0.5897 0.8063
vn 0.0458 -0.5897 0.8063
vn 0.0458 -0.5897 0.8063
vn 0.0458 -0.5897 0.8063
vn -0.1360 0.7960 0.5898
vn -0.1360 0.7960 0.5898
vn -0.1360 0.7960 0.5898
vn -0.1360 0.7960 0.5898
vn 0.1360 -0.7960 -0.5898
vn 0.1360 -0.7960 -0.5898
vn 0.1360 -0.7960 -0.5898
vn 0.1360 -0.7960 -0.5898
vn -0.0458 0.5897 -0.8063
vn -0.0458 0.5897 -0.8063
vn -0.0458 0.5897 -0.8063
vn -0.0458 0.5897 -0.8063
vn 0.6547 0.1998 0.7290
vn 0.6547 0.1998 0.7290
vn 0.6547 0.1998 0.7290
vn 0.6547 0.1998 0.7290
vn -0.7449 0.0065 0.6671
vn -0.7449 0.0065 0.6671
vn -0.7449 0.0065 0.6671
vn -0.7449 0.0065 0.6671
vn 0.7449 -0.0065 -0.6671
vn 0.7449 -0.0065 -0.6671
vn 0.7449 -0.0065 -0.6671
vn 0.7449 -0.0065 -0.6671
vn -0.6547 -0.1998 -0.7290
vn -0.6547 -0.1998 -0.7290
vn -0.6547 -0.1998 -0.7290
vn -0.6547 -0.1998 -0.7290
vn -0.5340 -0.5604 0.6331
vn -0.5340 -0.5604 0.6331
vn -0.5340 -0.5604 0.6331
vn -0.4603 -0.7288 -0.5069
vn -0.4603 -0.7288 -0.5069
vn -0.4603 -0.7288 -0.5069
vn -0.6824 0.5710 0.4563
vn -0.6824 0.5710 0.4563
vn -0.6824 0.5710 0.4563
vn -0.6087 0.4026 -0.6836
vn -0.6087 0.4026 -0.6836
vn -0.6087 0.4026 -0.6836
vn 0.6087 -0.4026 0.6836
vn 0.6087 -0.4026 0.6836
vn 0.6087 -0.4026 0.6836
vn 0.6824 -0.5710 -0.4563
vn 0.6824 -0.5710 -0.4563
vn 0.6824 -0.5710 -0.4563
vn 0.4603 0.7288 0.5069
vn 0.4603 0.7288 0.5069
vn 0.4603 0.7288 0.5069
vn 0.5340 0.5604 -0.6331
vn 0.5340 0.5604 -0.6331
vn 0.5340 0.5604 -0.6331
vn -0.9994 0.0321 -0.0128
vn -0.9994 0.0321 -0.0128
vn -0.9994 0.0321 -0.0128
vn -0.9994 0.0321 -0.0128
vn 0.9994 -0.0321 0.0128
vn 0.9994 -0.0321 0.0128
vn 0.9994 -0.0321 0.0128
vn 0.9994 -0.0321 0.0128
vn 0.0311 0.9966 0.0757
vn 0.0311 0.9966 0.0757
vn 0.0311 0.9966 0.0757
vn 0.0311 0.9966 0.0757
vn -0.0311 -0.9966 -0.0757
vn -0.0311 -0.9966 -0.0757
vn -0.0311 -0.9966 -0.0757
vn -0.0311 -0.9966 -0.0757
vn 0.0152 0.0752 -0.9971
vn 0.0152 0.0752 -0.9971
vn 0.0152 0.0752 -0.9971
vn 0.0152 0.0752 -0.9971
vn -0.0152 -0.0752 0.9971
vn -0.0152 -0.0752 0.9971
vn -0.0152 -0.0752 0.9971
vn -0.0152 -0.0752 0.9971
vn -0.6847 0.7274 0.0445
vn -0.6847 0.7274 0.0445
vn -0.6847 0.7274 0.0445
vn -0.6847 0.7274 0.0445
vn 0.7286 0.6820 0.0626
vn 0.7286 0.6820 0.0626
vn 0.7286 0.6820 0.0626
vn 0.7286 0.6820 0.0626
vn -0.7286 -0.6820 -0.0626
vn -0.7286 -0.6820 -0.0626
vn -0.7286 -0.6820 -0.0626
vn -0.7286 -0.6820 -0.0626
vn 0.6847 -0.7274 -0.0445
vn 0.6847 -0.7274 -0.0445
vn 0.6847 -0.7274 -0.0445
vn 0.6847 -0.7274 -0.0445
vn -0.0327 -0.7579 0.6515
vn -0.0327 -0.7579 0.6515
vn -0.0327 -0.7579 0.6515
vn -0.0327 -0.7579 0.6515
vn 0.0112 0.6515 0.7585
vn 0.0112 0.6515 0.7585
vn 0.0112 0.6515 0.7585
vn 0.0112 0.6515 0.7585
vn -0.0112 -0.6515 -0.7585
vn -0.0112 -0.6515 -0.7585
vn -0.0112 -0.6515 -0.7585
vn -0.0112 -0.6515 -0.7585
vn 0.0327 0.7579 -0.6515
vn 0.0327 0.7579 -0.6515
vn 0.0327 0.7579 -0.6515
vn 0.0327 0.7579 -0.6515
vn 0.6959 -0.0759 0.7141
vn 0.6959 -0.0759 0.7141
vn 0.6959 -0.0759 0.7141
vn 0.6959 -0.0759 0.7141
vn -0.7174 -0.0305 0.6960
vn -0.7174 -0.0305 0.6960
vn -0.7174 -0.0305 0.6960
vn -0.7174 -0.0305 0.6960
vn 0.7174 0.0305 -0.6960
vn 0.7174 0.0305 -0.6960
vn 0.7174 0.0305 -0.6960
vn 0.7174 0.0305 -0.6960
vn -0.6959 0.0759 -0.7141
vn -0.6959 0.0759 -0.7141
vn -0.6959 0.0759 -0.7141
vn -0.6959 0.0759 -0.7141
vn -0.6037 -0.6003 0.5246
vn -0.6037 -0.6003 0.5246
vn -0.6037 -0.6003 0.5246
vn -0.5862 -0.5134 -0.6267
vn -0.5862 -0.5134 -0.6267
vn -0.5862 -0.5134 -0.6267
vn -0.5678 0.5505 0.6119
vn -0.5678 0.5505 0.6119
vn -0.5678 0.5505 0.6119
vn -0.5503 0.6374 -0.5393
vn -0.5503 0.6374 -0.5393
vn -0.5503 0.6374 -0.5393
vn 0.5503 -0.6374 0.5393
vn 0.5503 -0.6374 0.5393
vn 0.5503 -0.6374 0.5393
vn 0.5678 -0.5505 -0.6119
vn 0.5678 -0.5505 -0.6119
vn 0.5678 -0.5505 -0.6119
vn 0.5862 0.5134 0.6267
vn 0.5862 0.5134 0.6267
vn 0.5862 0.5134 0.6267
vn 0.6037 0.6003 -0.5246
vn 0.6037 0.6003 -0.5246
vn 0.6037 0.6003 -0.5246
vn -0.1872 -0.0648 -0.9802
vn -0.1872 -0.0648 -0.9802
vn -0.1872 -0.0648 -0.9802
vn -0.1872 -0.0648 -0.9802
vn 0.1872 0.0648 0.9802
vn 0.1872 0.0648 0.9802
vn 0.1872 0.0648 0.9802
vn 0.1872 0.0648 0.9802
vn 0.0997 0.9914 -0.0846
vn 0.0997 0.9914 -0.0846
vn 0.0997 0.9914 -0.0846
vn 0.0997 0.9914 -0.0846
vn -0.0997 -0.9914 0.0846
vn -0.0997 -0.9914 0.0846
vn -0.0997 -0.9914 0.0846
vn -0.0997 -0.9914 0.0846
vn 0.9773 -0.1135 -0.1791
vn 0.9773 -0.1135 -0.1791
vn 0.9773 -0.1135 -0.1791
vn 0.9773 -0.1135 -0.1791
vn -0.9773 0.1135 0.1791
vn -0.9773 0.1135 0.1791
vn -0.9773 0.1135 0.1791
vn -0.9773 0.1135 0.1791
vn -0.0619 0.6552 -0.7529
vn -0.0619 0.6552 -0.7529
vn -0.0619 0.6552 -0.7529
vn -0.0619 0.6552 -0.7529
vn 0.2028 0.7469 0.6333
vn 0.2028 0.7469 0.6333
vn 0.2028 0.7469 0.6333
vn 0.2028 0.7469 0.6333
vn -0.2028 -0.7469 -0.6333
vn -0.2028 -0.7469 -0.6333
vn -0.2028 -0.7469 -0.6333
vn -0.2028 -0.7469 -0.6333
vn 0.0619 -0.6552 0.7529
vn 0.0619 -0.6552 0.7529
vn 0.0619 -0.6552 0.7529
vn 0.0619 -0.6552 0.7529
vn -0.7615 -0.6208 0.1865
vn -0.7615 -0.6208 0.1865
vn -0.7615 -0.6208 0.1865
vn -0.7615 -0.6208 0.1865
vn -0.6205 0.7813 0.0668
vn -0.6205 0.7813 0.0668
vn -0.6205 0.7813 0.0668
vn -0.6205 0.7813 0.0668
vn 0.6205 -0.7813 -0.0668
vn 0.6205 -0.7813 -0.0668
vn 0.6205 -0.7813 -0.0668
vn 0.6205 -0.7813 -0.0668
vn 0.7615 0.6208 -0.1865
vn 0.7615 0.6208 -0.1865
vn 0.7615 0.6208 -0.1865
vn 0.7615 0.6208 -0.1865
vn -0.5587 0.1261 0.8197
vn -0.5587 0.1261 0.8197
vn -0.5587 0.1261 0.8197
vn -0.5587 0.1261 0.8197
vn -0.8234 0.0344 -0.5665
vn -0.8234 0.0344 -0.5665
vn -0.8234 0.0344 -0.5665
vn -0.8234 0.0344 -0.5665
vn 0.8234 -0.0344 0.5665
vn 0.8234 -0.0344 0.5665
vn 0.8234 -0.0344 0.5665
vn 0.8234 -0.0344 0.5665
vn 0.5587 -0.1261 -0.8197
vn 0.5587 -0.1261 -0.8197
vn 0.5587 -0.1261 -0.8197
vn 0.5587 -0.1261 -0.8197
vn -0.7298 -0.5443 -0.4137
vn -0.7298 -0.5443 -0.4137
vn -0.7298 -0.5443 -0.4137
vn 0.3986 -0.6754 -0.6205
vn 0.3986 -0.6754 -0.6205
vn 0.3986 -0.6754 -0.6205
vn -0.6147 0.6005 -0.5114
vn -0.6147 0.6005 -0.5114
vn -0.6147 0.6005 -0.5114
vn 0.5137 0.4694 -0.7182
vn 0.5137 0.4694 -0.7182
vn 0.5137 0.4694 -0.7182
vn -0.5137 -0.4694 0.7182
vn -0.5137 -0.4694 0.7182
vn -0.5137 -0.4694 0.7182
vn 0.6147 -0.6005 0.5114
vn 0.6147 -0.6005 0.5114
vn 0.6147 -0.6005 0.5114
vn -0.3986 0.6754 0.6205
vn -0.3986 0.6754 0.6205
vn -0.3986 0.6754 0.6205
vn 0.7298 0.5443 0.4137
vn 0.7298 0.5443 0.4137
vn 0.7298 0.5443 0.4137
vn -0.9938 0.0814 -0.0751
vn -0.9938 0.0814 -0.0751
vn -0.9938 0.0814 -0.0751
vn -0.9938 0.0814 -0.0751
vn 0.9938 -0.0814 0.0751
vn 0.9938 -0.0814 0.0751
vn 0.9938 -0.0814 0.0751
vn 0.9938 -0.0814 0.0751
vn 0.0783 0.9960 0.0424
vn 0.0783 0.9960 0.0424
vn 0.0783 0.9960 0.0424
vn 0.0783 0.9960 0.0424
vn -0.0783 -0.9960 -0.0424
vn -0.0783 -0.9960 -0.0424
vn -0.0783 -0.9960 -0.0424
vn -0.0783 -0.9960 -0.0424
vn 0.0783 0.0363 -0.9963
vn 0.0783 0.0363 -0.9963
vn 0.0783 0.0363 -0.9963
vn 0.0783 0.0363 -0.9963
vn -0.0783 -0.0363 0.9963
vn -0.0783 -0.0363 0.9963
vn -0.0783 -0.0363 0.9963
vn -0.0783 -0.0363 0.9963
vn -0.6474 0.7618 -0.0231
vn -0.6474 0.7618 -0.0231
vn -0.6474 0.7618 -0.0231
vn -0.6474 0.7618 -0.0231
vn 0.7581 0.6468 0.0831
vn 0.7581 0.6468 0.0831
vn 0.7581 0.6468 0.0831
vn 0.7581 0.6468 0.0831
vn -0.7581 -0.6468 -0.0831
vn -0.7581 -0.6468 -0.0831
vn -0.7581 -0.6468 -0.0831
vn -0.7581 -0.6468 -0.0831
vn 0.6474 -0.7618 0.0231
vn 0.6474 -0.7618 0.0231
vn 0.6474 -0.7618 0.0231
vn 0.6474 -0.7618 0.0231
vn -0.1108 -0.7299 0.6745
vn -0.1108 -0.7299 0.6745
vn -0.1108 -0.7299 0.6745
vn -0.1108 -0.7299 0.6745
vn 0.0000 0.6787 0.7345
vn 0.0000 0.6787 0.7345
vn 0.0000 0.6787 0.7345
vn 0.0000 0.6787 0.7345
vn -0.0000 -0.6787 -0.7345
vn -0.0000 -0.6787 -0.7345
vn -0.0000 -0.6787 -0.7345
vn -0.0000 -0.6787 -0.7345
vn 0.1108 0.7299 -0.6745
vn 0.1108 0.7299 -0.6745
vn 0.1108 0.7299 -0.6745
vn 0.1108 0.7299 -0.6745
vn 0.6474 -0.0832 0.7576
vn 0.6474 -0.0832 0.7576
vn 0.6474 -0.0832 0.7576
vn 0.6474 -0.0832 0.7576
vn -0.7581 0.0319 0.6513
vn -0.7581 0.0319 0.6513
vn -0.7581 0.0319 0.6513
vn -0.7581 0.0319 0.6513
vn 0.7581 -0.0319 -0.6513
vn 0.7581 -0.0319 -0.6513
vn 0.7581 -0.0319 -0.6513
vn 0.7581 -0.0319 -0.6513
vn -0.6474 0.0832 -0.7576
vn -0.6474 0.0832 -0.7576
vn -0.6474 0.0832 -0.7576
vn -0.6474 0.0832 -0.7576
vn -0.6642 -0.5490 0.5073
vn -0.6642 -0.5490 0.5073
vn -0.6642 -0.5490 0.5073
vn -0.5738 -0.5071 -0.6431
vn -0.5738 -0.5071 -0.6431
vn -0.5738 -0.5071 -0.6431
vn -0.5738 0.6011 0.5563
vn -0.5738 0.6011 0.5563
vn -0.5738 0.6011 0.5563
vn -0.4834 0.6430 -0.5941
vn -0.4834 0.6430 -0.5941
vn -0.4834 0.6430 -0.5941
vn 0.4834 -0.6430 0.5941
vn 0.4834 -0.6430 0.5941
vn 0.4834 -0.6430 0.5941
vn 0.5738 -0.6011 -0.5563
vn 0.5738 -0.6011 -0.5563
vn 0.5738 -0.6011 -0.5563
vn 0.5738 0.5071 0.6431
vn 0.5738 0.5071 0.6431
vn 0.5738 0.5071 0.6431
vn 0.6642 0.5490 -0.5073
vn 0.6642 0.5490 -0.5073
vn 0.6642 0.5490 -0.5073
vn -0.9486 0.1578 0.2742
vn -0.9486 0.1578 0.2742
vn -0.9486 0.1578 0.2742
vn -0.9486 0.1578 0.2742
vn 0.9486 -0.1578 -0.2742
vn 0.9486 -0.1578 -0.2742
vn 0.9486 -0.1578 -0.2742
vn 0.9486 -0.1578 -0.2742
vn 0.1527 0.9875 -0.0401
vn 0.1527 0.9875 -0.0401
vn 0.1527 0.9875 -0.0401
vn 0.1527 0.9875 -0.0401
vn -0.1527 -0.9875 0.0401
vn -0.1527 -0.9875 0.0401
vn -0.1527 -0.9875 0.0401
vn -0.1527 -0.9875 0.0401
vn -0.2771 0.0038 -0.9608
vn -0.2771 0.0038 -0.9608
vn -0.2771 0.0038 -0.9608
vn -0.2771 0.0038 -0.9608
vn 0.2771 -0.0038 0.9608
vn 0.2771 -0.0038 0.9608
vn 0.2771 -0.0038 0.9608
vn 0.2771 -0.0038 0.9608
vn -0.5628 0.8098 0.1655
vn -0.5628 0.8098 0.1655
vn -0.5628 0.8098 0.1655
vn -0.5628 0.8098 0.1655
vn 0.7788 0.5866 -0.2222
vn 0.7788 0.5866 -0.2222
vn 0.7788 0.5866 -0.2222
vn 0.7788 0.5866 -0.2222
vn -0.7788 -0.5866 0.2222
vn -0.7788 -0.5866 0.2222
vn -0.7788 -0.5866 0.2222
vn -0.7788 -0.5866 0.2222
vn 0.5628 -0.8098 -0.1655
vn 0.5628 -0.8098 -0.1655
vn 0.5628 -0.8098 -0.1655
vn 0.5628 -0.8098 -0.1655
vn 0.0880 -0.7009 0.7078
vn 0.0880 -0.7009 0.7078
vn 0.0880 -0.7009 0.7078
vn 0.0880 -0.7009 0.7078
vn 0.3039 0.6955 0.6511
vn 0.3039 0.6955 0.6511
vn 0.3039 0.6955 0.6511
vn 0.3039 0.6955 0.6511
vn -0.3039 -0.6955 -0.6511
vn -0.3039 -0.6955 -0.6511
vn -0.3039 -0.6955 -0.6511
vn -0.3039 -0.6955 -0.6511
vn -0.0880 0.7009 -0.7078
vn -0.0880 0.7009 -0.7078
vn -0.0880 0.7009 -0.7078
vn -0.0880 0.7009 -0.7078
vn 0.8667 -0.1143 0.4855
vn 0.8667 -0.1143 0.4855
vn 0.8667 -0.1143 0.4855
vn 0.8667 -0.1143 0.4855
vn -0.4749 0.1089 0.8733
vn -0.4749 0.1089 0.8733
vn -0.4749 0.1089 0.8733
vn -0.4749 0.1089 0.8733
vn 0.4749 -0.1089 -0.8733
vn 0.4749 -0.1089 -0.8733
vn 0.4749 -0.1089 -0.8733
vn 0.4749 -0.1089 -0.8733
vn -0.8667 0.1143 -0.4855
vn -0.8667 0.1143 -0.4855
vn -0.8667 0.1143 -0.4855
vn -0.8667 0.1143 -0.4855
vn -0.4759 -0.4812 0.7362
vn -0.4759 -0.4812 0.7362
vn -0.4759 -0.4812 0.7362
vn -0.7958 -0.4768 -0.3733
vn -0.7958 -0.4768 -0.3733
vn -0.7958 -0.4768 -0.3733
vn -0.2996 0.6590 0.6899
vn -0.2996 0.6590 0.6899
vn -0.2996 0.6590 0.6899
vn -0.6195 0.6634 -0.4196
vn -0.6195 0.6634 -0.4196
vn -0.6195 0.6634 -0.4196
vn 0.6195 -0.6634 0.4196
vn 0.6195 -0.6634 0.4196
vn 0.6195 -0.6634 0.4196
vn 0.2996 -0.6590 -0.6899
vn 0.2996 -0.6590 -0.6899
vn 0.2996 -0.6590 -0.6899
vn 0.7958 0.4768 0.3733
vn 0.7958 0.4768 0.3733
vn 0.7958 0.4768 0.3733
vn 0.4759 0.4812 -0.7362
vn 0.4759 0.4812 -0.7362
vn 0.4759 0.4812 -0.7362
vn -0.9964 0.0772 -0.0345
vn -0.9964 0.0772 -0.0345
vn -0.9964 0.0772 -0.0345
vn -0.9964 0.0772 -0.0345
vn 0.9964 -0.0772 0.0345
vn 0.9964 -0.0772 0.0345
vn 0.9964 -0.0772 0.0345
vn 0.9964 -0.0772 0.0345
vn 0.0723 0.9894 0.1261
vn 0.0723 0.9894 0.1261
vn 0.0723 0.9894 0.1261
vn 0.0723 0.9894 0.1261
vn -0.0723 -0.9894 -0.1261
vn -0.0723 -0.9894 -0.1261
vn -0.0723 -0.9894 -0.1261
vn -0.0723 -0.9894 -0.1261
vn 0.0439 0.1231 -0.9914
vn 0.0439 0.1231 -0.9914
vn 0.0439 0.1231 -0.9914
vn 0.0439 0.1231 -0.9914
vn -0.0439 -0.1231 0.9914
vn -0.0439 -0.1231 0.9914
vn -0.0439 -0.1231 0.9914
vn -0.0439 -0.1231 0.9914
vn -0.6535 0.7542 0.0648
vn -0.6535 0.7542 0.0648
vn -0.6535 0.7542 0.0648
vn -0.6535 0.7542 0.0648
vn 0.7557 0.6450 0.1136
vn 0.7557 0.6450 0.1136
vn 0.7557 0.6450 0.1136
vn 0.7557 0.6450 0.1136
vn -0.7557 -0.6450 -0.1136
vn -0.7557 -0.6450 -0.1136
vn -0.7557 -0.6450 -0.1136
vn -0.7557 -0.6450 -0.1136
vn 0.6535 -0.7542 -0.0648
vn 0.6535 -0.7542 -0.0648
vn 0.6535 -0.7542 -0.0648
vn 0.6535 -0.7542 -0.0648
vn -0.0822 -0.7867 0.6119
vn -0.0822 -0.7867 0.6119
vn -0.0822 -0.7867 0.6119
vn -0.0822 -0.7867 0.6119
vn 0.0201 0.6125 0.7902
vn 0.0201 0.6125 0.7902
vn 0.0201 0.6125 0.7902
vn 0.0201 0.6125 0.7902
vn -0.0201 -0.6125 -0.7902
vn -0.0201 -0.6125 -0.7902
vn -0.0201 -0.6125 -0.7902
vn -0.0201 -0.6125 -0.7902
vn 0.0822 0.7867 -0.6119
vn 0.0822 0.7867 -0.6119
vn 0.0822 0.7867 -0.6119
vn 0.0822 0.7867 -0.6119
vn 0.6735 -0.1417 0.7254
vn 0.6735 -0.1417 0.7254
vn 0.6735 -0.1417 0.7254
vn 0.6735 -0.1417 0.7254
vn -0.7356 -0.0325 0.6766
vn -0.7356 -0.0325 0.6766
vn -0.7356 -0.0325 0.6766
vn -0.7356 -0.0325 0.6766
vn 0.7356 0.0325 -0.6766
vn 0.7356 0.0325 -0.6766
vn 0.7356 0.0325 -0.6766
vn 0.7356 0.0325 -0.6766
vn -0.6735 0.1417 -0.7254
vn -0.6735 0.1417 -0.7254
vn -0.6735 0.1417 -0.7254
vn -0.6735 0.1417 -0.7254
vn -0.6424 -0.5977 0.4797
vn -0.6424 -0.5977 0.4797
vn -0.6424 -0.5977 0.4797
vn -0.5917 -0.4555 -0.6651
vn -0.5917 -0.4555 -0.6651
vn -0.5917 -0.4555 -0.6651
vn -0.5589 0.5447 0.6253
vn -0.5589 0.5447 0.6253
vn -0.5589 0.5447 0.6253
vn -0.5082 0.6869 -0.5195
vn -0.5082 0.6869 -0.5195
vn -0.5082 0.6869 -0.5195
vn 0.5082 -0.6869 0.5195
vn 0.5082 -0.6869 0.5195
vn 0.5082 -0.6869 0.5195
vn 0.5589 -0.5447 -0.6253
vn 0.5589 -0.5447 -0.6253
vn 0.5589 -0.5447 -0.6253
vn 0.5917 0.4555 0.6651
vn 0.5917 0.4555 0.6651
vn 0.5917 0.4555 0.6651
vn 0.6424 0.5977 -0.4797
vn 0.6424 0.5977 -0.4797
vn 0.6424 0.5977 -0.4797
vn -0.9744 -0.0854 0.2081
vn -0.9744 -0.0854 0.2081
vn -0.9744 -0.0854 0.2081
vn -0.9744 -0.0854 0.2081
vn 0.9744 0.0854 -0.2081
vn 0.9744 0.0854 -0.2081
vn 0.9744 0.0854 -0.2081
vn 0.9744 0.0854 -0.2081
vn -0.1042 0.9913 -0.0809
vn -0.1042 0.9913 -0.0809
vn -0.1042 0.9913 -0.0809
vn -0.1042 0.9913 -0.0809
vn 0.1042 -0.9913 0.0809
vn 0.1042 -0.9913 0.0809
vn 0.1042 -0.9913 0.0809
vn 0.1042 -0.9913 0.0809
vn -0.1994 -0.1005 -0.9748
vn -0.1994 -0.1005 -0.9748
vn -0.1994 -0.1005 -0.9748
vn -0.1994 -0.1005 -0.9748
vn 0.1994 0.1005 0.9748
vn 0.1994 0.1005 0.9748
vn 0.1994 0.1005 0.9748
vn 0.1994 0.1005 0.9748
vn -0.7626 0.6405 0.0900
vn -0.7626 0.6405 0.0900
vn -0.7626 0.6405 0.0900
vn -0.7626 0.6405 0.0900
vn 0.6153 0.7613 -0.2043
vn 0.6153 0.7613 -0.2043
vn 0.6153 0.7613 -0.2043
vn 0.6153 0.7613 -0.2043
vn -0.6153 -0.7613 0.2043
vn -0.6153 -0.7613 0.2043
vn -0.6153 -0.7613 0.2043
vn -0.6153 -0.7613 0.2043
vn 0.7626 -0.6405 -0.0900
vn 0.7626 -0.6405 -0.0900
vn 0.7626 -0.6405 -0.0900
vn 0.7626 -0.6405 -0.0900
vn 0.2146 -0.6299 0.7464
vn 0.2146 -0.6299 0.7464
vn 0.2146 -0.6299 0.7464
vn 0.2146 -0.6299 0.7464
vn 0.0673 0.7720 0.6321
vn 0.0673 0.7720 0.6321
vn 0.0673 0.7720 0.6321
vn 0.0673 0.7720 0.6321
vn -0.0673 -0.7720 -0.6321
vn -0.0673 -0.7720 -0.6321
vn -0.0673 -0.7720 -0.6321
vn -0.0673 -0.7720 -0.6321
vn -0.2146 0.6299 -0.7464
vn -0.2146 0.6299 -0.7464
vn -0.2146 0.6299 -0.7464
vn -0.2146 0.6299 -0.7464
vn 0.8300 0.1314 0.5421
vn 0.8300 0.1314 0.5421
vn 0.8300 0.1314 0.5421
vn 0.8300 0.1314 0.5421
vn -0.5480 0.0106 0.8364
vn -0.5480 0.0106 0.8364
vn -0.5480 0.0106 0.8364
vn -0.5480 0.0106 0.8364
vn 0.5480 -0.0106 -0.8364
vn 0.5480 -0.0106 -0.8364
vn 0.5480 -0.0106 -0.8364
vn 0.5480 -0.0106 -0.8364
vn -0.8300 -0.1314 -0.5421
vn -0.8300 -0.1314 -0.5421
vn -0.8300 -0.1314 -0.5421
vn -0.8300 -0.1314 -0.5421
vn -0.3873 -0.5636 0.7296
vn -0.3873 -0.5636 0.7296
vn -0.3873 -0.5636 0.7296
vn -0.6175 -0.6796 -0.3960
vn -0.6175 -0.6796 -0.3960
vn -0.6175 -0.6796 -0.3960
vn -0.5076 0.5810 0.6362
vn -0.5076 0.5810 0.6362
vn -0.5076 0.5810 0.6362
vn -0.7378 0.4650 -0.4893
vn -0.7378 0.4650 -0.4893
vn -0.7378 0.4650 -0.4893
vn 0.7378 -0.4650 0.4893
vn 0.7378 -0.4650 0.4893
vn 0.7378 -0.4650 0.4893
vn 0.5076 -0.5810 -0.6362
vn 0.5076 -0.5810 -0.6362
vn 0.5076 -0.5810 -0.6362
vn 0.6175 0.6796 0.3960
vn 0.6175 0.6796 0.3960
vn 0.6175 0.6796 0.3960
vn 0.3873 0.5636 -0.7296
vn 0.3873 0.5636 -0.7296
vn 0.3873 0.5636 -0.7296
vn -0.5665 -0.0084 0.8240
vn -0.5665 -0.0084 0.8240
vn -0.5665 -0.0084 0.8240
vn -0.5665 -0.0084 0.8240
vn 0.5665 0.0084 -0.8240
vn 0.5665 0.0084 -0.8240
vn 0.5665 0.0084 -0.8240
vn 0.5665 0.0084 -0.8240
vn -0.0085 1.0000 0.0044
vn -0.0085 1.0000 0.0044
vn -0.0085 1.0000 0.0044
vn -0.0085 1.0000 0.0044
vn 0.0085 -1.0000 -0.0044
vn 0.0085 -1.0000 -0.0044
vn 0.0085 -1.0000 -0.0044
vn 0.0085 -1.0000 -0.0044
vn -0.8240 -0.0045 -0.5666
vn -0.8240 -0.0045 -0.5666
vn -0.8240 -0.0045 -0.5666
vn -0.8240 -0.0045 -0.5666
vn 0.8240 0.0045 0.5666
vn 0.8240 0.0045 0.5666
vn 0.8240 0.0045 0.5666
vn 0.8240 0.0045 0.5666
vn -0.4066 0.7011 0.5858
vn -0.4066 0.7011 0.5858
vn -0.4066 0.7011 0.5858
vn -0.4066 0.7011 0.5858
vn 0.3946 0.7130 -0.5796
vn 0.3946 0.7130 -0.5796
vn 0.3946 0.7130 -0.5796
vn 0.3946 0.7130 -0.5796
vn -0.3946 -0.7130 0.5796
vn -0.3946 -0.7130 0.5796
vn -0.3946 -0.7130 0.5796
vn -0.3946 -0.7130 0.5796
vn 0.4066 -0.7011 -0.5858
vn 0.4066 -0.7011 -0.5858
vn 0.4066 -0.7011 -0.5858
vn 0.4066 -0.7011 -0.5858
vn 0.5886 -0.7039 0.3975
vn 0.5886 -0.7039 0.3975
vn 0.5886 -0.7039 0.3975
vn 0.5886 -0.7039 0.3975
vn 0.5767 0.7102 0.4037
vn 0.5767 0.7102 0.4037
vn 0.5767 0.7102 0.4037
vn 0.5767 0.7102 0.4037
vn -0.5767 -0.7102 -0.4037
vn -0.5767 -0.7102 -0.4037
vn -0.5767 -0.7102 -0.4037
vn -0.5767 -0.7102 -0.4037
vn -0.5886 0.7039 -0.3975
vn -0.5886 0.7039 -0.3975
vn -0.5886 0.7039 -0.3975
vn -0.5886 0.7039 -0.3975
vn 0.9833 0.0091 -0.1820
vn 0.9833 0.0091 -0.1820
vn 0.9833 0.0091 -0.1820
vn 0.9833 0.0091 -0.1820
vn 0.1821 -0.0028 0.9833
vn 0.1821 -0.0028 0.9833
vn 0.1821 -0.0028 0.9833
vn 0.1821 -0.0028 0.9833
vn -0.1821 0.0028 -0.9833
vn -0.1821 0.0028 -0.9833
vn -0.1821 0.0028 -0.9833
vn -0.1821 0.0028 -0.9833
vn -0.9833 -0.0091 0.1820
vn -0.9833 -0.0091 0.1820
vn -0.9833 -0.0091 0.1820
vn -0.9833 -0.0091 0.1820
vn 0.1535 -0.5796 0.8003
vn 0.1535 -0.5796 0.8003
vn 0.1535 -0.5796 0.8003
vn -0.7979 -0.5848 0.1461
vn -0.7979 -0.5848 0.1461
vn -0.7979 -0.5848 0.1461
vn 0.1438 0.5751 0.8054
vn 0.1438 0.5751 0.8054
vn 0.1438 0.5751 0.8054
vn -0.8077 0.5699 0.1512
vn -0.8077 0.5699 0.1512
vn -0.8077 0.5699 0.1512
vn 0.8077 -0.5699 -0.1512
vn 0.8077 -0.5699 -0.1512
vn 0.8077 -0.5699 -0.1512
vn -0.1438 -0.5751 -0.8054
vn -0.1438 -0.5751 -0.8054
vn -0.1438 -0.5751 -0.8054
vn 0.7979 0.5848 -0.1461
vn 0.7979 0.5848 -0.1461
vn 0.7979 0.5848 -0.1461
vn -0.1535 0.5796 -0.8003
vn -0.1535 0.5796 -0.8003
vn -0.1535 0.5796 -0.8003
vn -0.9821 0.1278 -0.1381
vn -0.9821 0.1278 -0.1381
vn -0.9821 0.1278 -0.1381
vn -0.9821 0.1278 -0.1381
vn 0.9821 -0.1278 0.1381
vn 0.9821 -0.1278 0.1381
vn 0.9821 -0.1278 0.1381
vn 0.9821 -0.1278 0.1381
vn 0.1505 0.9740 -0.1693
vn 0.1505 0.9740 -0.1693
vn 0.1505 0.9740 -0.1693
vn 0.1505 0.9740 -0.1693
vn -0.1505 -0.9740 0.1693
vn -0.1505 -0.9740 0.1693
vn -0.1505 -0.9740 0.1693
vn -0.1505 -0.9740 0.1693
vn 0.1129 -0.1870 -0.9758
vn 0.1129 -0.1870 -0.9758
vn 0.1129 -0.1870 -0.9758
vn 0.1129 -0.1870 -0.9758
vn -0.1129 0.1870 0.9758
vn -0.1129 0.1870 0.9758
vn -0.1129 0.1870 0.9758
vn -0.1129 0.1870 0.9758
vn -0.5880 0.7791 -0.2174
vn -0.5880 0.7791 -0.2174
vn -0.5880 0.7791 -0.2174
vn -0.5880 0.7791 -0.2174
vn 0.8009 0.5984 -0.0220
vn 0.8009 0.5984 -0.0220
vn 0.8009 0.5984 -0.0220
vn 0.8009 0.5984 -0.0220
vn -0.8009 -0.5984 0.0220
vn -0.8009 -0.5984 0.0220
vn -0.8009 -0.5984 0.0220
vn -0.8009 -0.5984 0.0220
vn 0.5880 -0.7791 0.2174
vn 0.5880 -0.7791 0.2174
vn 0.5880 -0.7791 0.2174
vn 0.5880 -0.7791 0.2174
vn -0.1863 -0.5565 0.8097
vn -0.1863 -0.5565 0.8097
vn -0.1863 -0.5565 0.8097
vn -0.1863 -0.5565 0.8097
vn 0.0266 0.8210 0.5703
vn 0.0266 0.8210 0.5703
vn 0.0266 0.8210 0.5703
vn 0.0266 0.8210 0.5703
vn -0.0266 -0.8210 -0.5703
vn -0.0266 -0.8210 -0.5703
vn -0.0266 -0.8210 -0.5703
vn -0.0266 -0.8210 -0.5703
vn 0.1863 0.5565 -0.8097
vn 0.1863 0.5565 -0.8097
vn 0.1863 0.5565 -0.8097
vn 0.1863 0.5565 -0.8097
vn 0.6146 0.0419 0.7877
vn 0.6146 0.0419 0.7877
vn 0.6146 0.0419 0.7877
vn 0.6146 0.0419 0.7877
vn -0.7743 0.2226 0.5924
vn -0.7743 0.2226 0.5924
vn -0.7743 0.2226 0.5924
vn -0.7743 0.2226 0.5924
vn 0.7743 -0.2226 -0.5924
vn 0.7743 -0.2226 -0.5924
vn 0.7743 -0.2226 -0.5924
vn 0.7743 -0.2226 -0.5924
vn -0.6146 -0.0419 -0.7877
vn -0.6146 -0.0419 -0.7877
vn -0.6146 -0.0419 -0.7877
vn -0.6146 -0.0419 -0.7877
vn -0.7191 -0.3806 0.5814
vn -0.7191 -0.3806 0.5814
vn -0.7191 -0.3806 0.5814
vn -0.5888 -0.5966 -0.5454
vn -0.5888 -0.5966 -0.5454
vn -0.5888 -0.5966 -0.5454
vn -0.5453 0.7441 0.3859
vn -0.5453 0.7441 0.3859
vn -0.5453 0.7441 0.3859
vn -0.4150 0.5281 -0.7409
vn -0.4150 0.5281 -0.7409
vn -0.4150 0.5281 -0.7409
vn 0.4150 -0.5281 0.7409
vn 0.4150 -0.5281 0.7409
vn 0.4150 -0.5281 0.7409
vn 0.5453 -0.7441 -0.3859
vn 0.5453 -0.7441 -0.3859
vn 0.5453 -0.7441 -0.3859
vn 0.5888 0.5966 0.5454
vn 0.5888 0.5966 0.5454
vn 0.5888 0.5966 0.5454
vn 0.7191 0.3806 -0.5814
vn 0.7191 0.3806 -0.5814
vn 0.7191 0.3806 -0.5814
vn -0.9494 -0.2424 -0.1997
vn -0.9494 -0.2424 -0.1997
vn -0.9494 -0.2424 -0.1997
vn -0.9494 -0.2424 -0.1997
vn 0.9494 0.2424 0.1997
vn 0.9494 0.2424 0.1997
vn 0.9494 0.2424 0.1997
vn 0.9494 0.2424 0.1997
vn -0.2474 0.9689 0.0000
vn -0.2474 0.9689 0.0000
vn -0.2474 0.9689 0.0000
vn -0.2474 0.9689 0.0000
vn 0.2474 -0.9689 0.0000
vn 0.2474 -0.9689 0.0000
vn 0.2474 -0.9689 0.0000
vn 0.2474 -0.9689 0.0000
vn 0.1935 0.0494 -0.9799
vn 0.1935 0.0494 -0.9799
vn 0.1935 0.0494 -0.9799
vn 0.1935 0.0494 -0.9799
vn -0.1935 -0.0494 0.9799
vn -0.1935 -0.0494 0.9799
vn -0.1935 -0.0494 0.9799
vn -0.1935 -0.0494 0.9799
vn -0.8463 0.5137 -0.1412
vn -0.8463 0.5137 -0.1412
vn -0.8463 0.5137 -0.1412
vn -0.8463 0.5137 -0.1412
vn 0.4964 0.8565 0.1412
vn 0.4964 0.8565 0.1412
vn 0.4964 0.8565 0.1412
vn 0.4964 0.8565 0.1412
vn -0.4964 -0.8565 -0.1412
vn -0.4964 -0.8565 -0.1412
vn -0.4964 -0.8565 -0.1412
vn -0.4964 -0.8565 -0.1412
vn 0.8463 -0.5137 0.1412
vn 0.8463 -0.5137 0.1412
vn 0.8463 -0.5137 0.1412
vn 0.8463 -0.5137 0.1412
vn 0.0381 -0.7201 0.6929
vn 0.0381 -0.7201 0.6929
vn 0.0381 -0.7201 0.6929
vn 0.0381 -0.7201 0.6929
vn -0.3118 0.6502 0.6929
vn -0.3118 0.6502 0.6929
vn -0.3118 0.6502 0.6929
vn -0.3118 0.6502 0.6929
vn 0.3118 -0.6502 -0.6929
vn 0.3118 -0.6502 -0.6929
vn 0.3118 -0.6502 -0.6929
vn 0.3118 -0.6502 -0.6929
vn -0.0381 0.7201 -0.6929
vn -0.0381 0.7201 -0.6929
vn -0.0381 0.7201 -0.6929
vn -0.0381 0.7201 -0.6929
vn 0.5345 0.1365 0.8341
vn 0.5345 0.1365 0.8341
vn 0.5345 0.1365 0.8341
vn 0.5345 0.1365 0.8341
vn -0.8081 -0.2064 0.5516
vn -0.8081 -0.2064 0.5516
vn -0.8081 -0.2064 0.5516
vn -0.8081 -0.2064 0.5516
vn 0.8081 0.2064 -0.5516
vn 0.8081 0.2064 -0.5516
vn 0.8081 0.2064 -0.5516
vn 0.8081 0.2064 -0.5516
vn -0.5345 -0.1365 -0.8341
vn -0.5345 -0.1365 -0.8341
vn -0.5345 -0.1365 -0.8341
vn -0.5345 -0.1365 -0.8341
vn -0.5170 -0.7279 0.4504
vn -0.5170 -0.7279 0.4504
vn -0.5170 -0.7279 0.4504
vn -0.2936 -0.6708 -0.6810
vn -0.2936 -0.6708 -0.6810
vn -0.2936 -0.6708 -0.6810
vn -0.8027 0.3909 0.4504
vn -0.8027 0.3909 0.4504
vn -0.8027 0.3909 0.4504
vn -0.5793 0.4480 -0.6810
vn -0.5793 0.4480 -0.6810
vn -0.5793 0.4480 -0.6810
vn 0.5793 -0.4480 0.6810
vn 0.5793 -0.4480 0.6810
vn 0.5793 -0.4480 0.6810
vn 0.8027 -0.3909 -0.4504
vn 0.8027 -0.3909 -0.4504
vn 0.8027 -0.3909 -0.4504
vn 0.2936 0.6708 0.6810
vn 0.2936 0.6708 0.6810
vn 0.2936 0.6708 0.6810
vn 0.5170 0.7279 -0.4504
vn 0.5170 0.7279 -0.4504
vn 0.5170 0.7279 -0.4504
usemtl TF_Utility
f 1/1/1 2/2/2 3/3/3
f 1/1/1 3/3/3 4/4/4
f 5/5/5 6/6/6 7/7/7
f 5/5/5 7/7/7 8/8/8
f 9/9/9 10/10/10 11/11/11
f 9/9/9 11/11/11 12/12/12
f 13/13/13 14/14/14 15/15/15
f 13/13/13 15/15/15 16/16/16
f 17/17/17 18/18/18 19/19/19
f 17/17/17 19/19/19 20/20/20
f 21/21/21 22/22/22 23/23/23
f 21/21/21 23/23/23 24/24/24
f 25/25/25 26/26/26 27/27/27
f 25/25/25 27/27/27 28/28/28
f 29/29/29 30/30/30 31/31/31
f 29/29/29 31/31/31 32/32/32
f 33/33/33 34/34/34 35/35/35
f 33/33/33 35/35/35 36/36/36
f 37/37/37 38/38/38 39/39/39
f 37/37/37 39/39/39 40/40/40
f 41/41/41 42/42/42 43/43/43
f 41/41/41 43/43/43 44/44/44
f 45/45/45 46/46/46 47/47/47
f 45/45/45 47/47/47 48/48/48
f 49/49/49 50/50/50 51/51/51
f 49/49/49 51/51/51 52/52/52
f 53/53/53 54/54/54 55/55/55
f 53/53/53 55/55/55 56/56/56
f 57/57/57 58/58/58 59/59/59
f 57/57/57 59/59/59 60/60/60
f 61/61/61 62/62/62 63/63/63
f 61/61/61 63/63/63 64/64/64
f 65/65/65 66/66/66 67/67/67
f 65/65/65 67/67/67 68/68/68
f 69/69/69 70/70/70 71/71/71
f 69/69/69 71/71/71 72/72/72
f 73/73/73 74/74/74 75/75/75
f 76/76/76 77/77/77 78/78/78
f 79/79/79 80/80/80 81/81/81
f 82/82/82 83/83/83 84/84/84
f 85/85/85 86/86/86 87/87/87
f 88/88/88 89/89/89 90/90/90
f 91/91/91 92/92/92 93/93/93
f 94/94/94 95/95/95 96/96/96
f 97/97/97 98/98/98 99/99/99
f 97/97/97 99/99/99 100/100/100
f 101/101/101 102/102/102 103/103/103
f 101/101/101 103/103/103 104/104/104
f 105/105/105 106/106/106 107/107/107
f 105/105/105 107/107/107 108/108/108
f 109/109/109 110/110/110 111/111/111
f 109/109/109 111/111/111 112/112/112
f 113/113/113 114/114/114 115/115/115
f 113/113/113 115/115/115 116/116/116
f 117/117/117 118/118/118 119/119/119
f 117/117/117 119/119/119 120/120/120
f 121/121/121 122/122/122 123/123/123
f 121/121/121 123/123/123 124/124/124
f 125/125/125 126/126/126 127/127/127
f 125/125/125 127/127/127 128/128/128
f 129/129/129 130/130/130 131/131/131
f 129/129/129 131/131/131 132/132/132
f 133/133/133 134/134/134 135/135/135
f 133/133/133 135/135/135 136/136/136
f 137/137/137 138/138/138 139/139/139
f 137/137/137 139/139/139 140/140/140
f 141/141/141 142/142/142 143/143/143
f 141/141/141 143/143/143 144/144/144
f 145/145/145 146/146/146 147/147/147
f 145/145/145 147/147/147 148/148/148
f 149/149/149 150/150/150 151/151/151
f 149/149/149 151/151/151 152/152/152
f 153/153/153 154/154/154 155/155/155
f 153/153/153 155/155/155 156/156/156
f 157/157/157 158/158/158 159/159/159
f 157/157/157 159/159/159 160/160/160
f 161/161/161 162/162/162 163/163/163
f 161/161/161 163/163/163 164/164/164
f 165/165/165 166/166/166 167/167/167
f 165/165/165 167/167/167 168/168/168
f 169/169/169 170/170/170 171/171/171
f 172/172/172 173/173/173 174/174/174
f 175/175/175 176/176/176 177/177/177
f 178/178/178 179/179/179 180/180/180
f 181/181/181 182/182/182 183/183/183
f 184/184/184 185/185/185 186/186/186
f 187/187/187 188/188/188 189/189/189
f 190/190/190 191/191/191 192/192/192
f 193/193/193 194/194/194 195/195/195
f 193/193/193 195/195/195 196/196/196
f 197/197/197 198/198/198 199/199/199
f 197/197/197 199/199/199 200/200/200
f 201/201/201 202/202/202 203/203/203
f 201/201/201 203/203/203 204/204/204
f 205/205/205 206/206/206 207/207/207
f 205/205/205 207/207/207 208/208/208
f 209/209/209 210/210/210 211/211/211
f 209/209/209 211/211/211 212/212/212
f 213/213/213 214/214/214 215/215/215
f 213/213/213 215/215/215 216/216/216
f 217/217/217 218/218/218 219/219/219
f 217/217/217 219/219/219 220/220/220
f 221/221/221 222/222/222 223/223/223
f 221/221/221 223/223/223 224/224/224
f 225/225/225 226/226/226 227/227/227
f 225/225/225 227/227/227 228/228/228
f 229/229/229 230/230/230 231/231/231
f 229/229/229 231/231/231 232/232/232
f 233/233/233 234/234/234 235/235/235
f 233/233/233 235/235/235 236/236/236
f 237/237/237 238/238/238 239/239/239
f 237/237/237 239/239/239 240/240/240
f 241/241/241 242/242/242 243/243/243
f 241/241/241 243/243/243 244/244/244
f 245/245/245 246/246/246 247/247/247
f 245/245/245 247/247/247 248/248/248
f 249/249/249 250/250/250 251/251/251
f 249/249/249 251/251/251 252/252/252
f 253/253/253 254/254/254 255/255/255
f 253/253/253 255/255/255 256/256/256
f 257/257/257 258/258/258 259/259/259
f 257/257/257 259/259/259 260/260/260
f 261/261/261 262/262/262 263/263/263
f 261/261/261 263/263/263 264/264/264
f 265/265/265 266/266/266 267/267/267
f 268/268/268 269/269/269 270/270/270
f 271/271/271 272/272/272 273/273/273
f 274/274/274 275/275/275 276/276/276
f 277/277/277 278/278/278 279/279/279
f 280/280/280 281/281/281 282/282/282
f 283/283/283 284/284/284 285/285/285
f 286/286/286 287/287/287 288/288/288
f 289/289/289 290/290/290 291/291/291
f 289/289/289 291/291/291 292/292/292
f 293/293/293 294/294/294 295/295/295
f 293/293/293 295/295/295 296/296/296
f 297/297/297 298/298/298 299/299/299
f 297/297/297 299/299/299 300/300/300
f 301/301/301 302/302/302 303/303/303
f 301/301/301 303/303/303 304/304/304
f 305/305/305 306/306/306 307/307/307
f 305/305/305 307/307/307 308/308/308
f 309/309/309 310/310/310 311/311/311
f 309/309/309 311/311/311 312/312/312
f 313/313/313 314/314/314 315/315/315
f 313/313/313 315/315/315 316/316/316
f 317/317/317 318/318/318 319/319/319
f 317/317/317 319/319/319 320/320/320
f 321/321/321 322/322/322 323/323/323
f 321/321/321 323/323/323 324/324/324
f 325/325/325 326/326/326 327/327/327
f 325/325/325 327/327/327 328/328/328
f 329/329/329 330/330/330 331/331/331
f 329/329/329 331/331/331 332/332/332
f 333/333/333 334/334/334 335/335/335
f 333/333/333 335/335/335 336/336/336
f 337/337/337 338/338/338 339/339/339
f 337/337/337 339/339/339 340/340/340
f 341/341/341 342/342/342 343/343/343
f 341/341/341 343/343/343 344/344/344
f 345/345/345 346/346/346 347/347/347
f 345/345/345 347/347/347 348/348/348
f 349/349/349 350/350/350 351/351/351
f 349/349/349 351/351/351 352/352/352
f 353/353/353 354/354/354 355/355/355
f 353/353/353 355/355/355 356/356/356
f 357/357/357 358/358/358 359/359/359
f 357/357/357 359/359/359 360/360/360
f 361/361/361 362/362/362 363/363/363
f 364/364/364 365/365/365 366/366/366
f 367/367/367 368/368/368 369/369/369
f 370/370/370 371/371/371 372/372/372
f 373/373/373 374/374/374 375/375/375
f 376/376/376 377/377/377 378/378/378
f 379/379/379 380/380/380 381/381/381
f 382/382/382 383/383/383 384/384/384
f 385/385/385 386/386/386 387/387/387
f 385/385/385 387/387/387 388/388/388
f 389/389/389 390/390/390 391/391/391
f 389/389/389 391/391/391 392/392/392
f 393/393/393 394/394/394 395/395/395
f 393/393/393 395/395/395 396/396/396
f 397/397/397 398/398/398 399/399/399
f 397/397/397 399/399/399 400/400/400
f 401/401/401 402/402/402 403/403/403
f 401/401/401 403/403/403 404/404/404
f 405/405/405 406/406/406 407/407/407
f 405/405/405 407/407/407 408/408/408
f 409/409/409 410/410/410 411/411/411
f 409/409/409 411/411/411 412/412/412
f 413/413/413 414/414/414 415/415/415
f 413/413/413 415/415/415 416/416/416
f 417/417/417 418/418/418 419/419/419
f 417/417/417 419/419/419 420/420/420
f 421/421/421 422/422/422 423/423/423
f 421/421/421 423/423/423 424/424/424
f 425/425/425 426/426/426 427/427/427
f 425/425/425 427/427/427 428/428/428
f 429/429/429 430/430/430 431/431/431
f 429/429/429 431/431/431 432/432/432
f 433/433/433 434/434/434 435/435/435
f 433/433/433 435/435/435 436/436/436
f 437/437/437 438/438/438 439/439/439
f 437/437/437 439/439/439 440/440/440
f 441/441/441 442/442/442 443/443/443
f 441/441/441 443/443/443 444/444/444
f 445/445/445 446/446/446 447/447/447
f 445/445/445 447/447/447 448/448/448
f 449/449/449 450/450/450 451/451/451
f 449/449/449 451/451/451 452/452/452
f 453/453/453 454/454/454 455/455/455
f 453/453/453 455/455/455 456/456/456
f 457/457/457 458/458/458 459/459/459
f 460/460/460 461/461/461 462/462/462
f 463/463/463 464/464/464 465/465/465
f 466/466/466 467/467/467 468/468/468
f 469/469/469 470/470/470 471/471/471
f 472/472/472 473/473/473 474/474/474
f 475/475/475 476/476/476 477/477/477
f 478/478/478 479/479/479 480/480/480
f 481/481/481 482/482/482 483/483/483
f 481/481/481 483/483/483 484/484/484
f 485/485/485 486/486/486 487/487/487
f 485/485/485 487/487/487 488/488/488
f 489/489/489 490/490/490 491/491/491
f 489/489/489 491/491/491 492/492/492
f 493/493/493 494/494/494 495/495/495
f 493/493/493 495/495/495 496/496/496
f 497/497/497 498/498/498 499/499/499
f 497/497/497 499/499/499 500/500/500
f 501/501/501 502/502/502 503/503/503
f 501/501/501 503/503/503 504/504/504
f 505/505/505 506/506/506 507/507/507
f 505/505/505 507/507/507 508/508/508
f 509/509/509 510/510/510 511/511/511
f 509/509/509 511/511/511 512/512/512
f 513/513/513 514/514/514 515/515/515
f 513/513/513 515/515/515 516/516/516
f 517/517/517 518/518/518 519/519/519
f 517/517/517 519/519/519 520/520/520
f 521/521/521 522/522/522 523/523/523
f 521/521/521 523/523/523 524/524/524
f 525/525/525 526/526/526 527/527/527
f 525/525/525 527/527/527 528/528/528
f 529/529/529 530/530/530 531/531/531
f 529/529/529 531/531/531 532/532/532
f 533/533/533 534/534/534 535/535/535
f 533/533/533 535/535/535 536/536/536
f 537/537/537 538/538/538 539/539/539
f 537/537/537 539/539/539 540/540/540
f 541/541/541 542/542/542 543/543/543
f 541/541/541 543/543/543 544/544/544
f 545/545/545 546/546/546 547/547/547
f 545/545/545 547/547/547 548/548/548
f 549/549/549 550/550/550 551/551/551
f 549/549/549 551/551/551 552/552/552
f 553/553/553 554/554/554 555/555/555
f 556/556/556 557/557/557 558/558/558
f 559/559/559 560/560/560 561/561/561
f 562/562/562 563/563/563 564/564/564
f 565/565/565 566/566/566 567/567/567
f 568/568/568 569/569/569 570/570/570
f 571/571/571 572/572/572 573/573/573
f 574/574/574 575/575/575 576/576/576
f 577/577/577 578/578/578 579/579/579
f 577/577/577 579/579/579 580/580/580
f 581/581/581 582/582/582 583/583/583
f 581/581/581 583/583/583 584/584/584
f 585/585/585 586/586/586 587/587/587
f 585/585/585 587/587/587 588/588/588
f 589/589/589 590/590/590 591/591/591
f 589/589/589 591/591/591 592/592/592
f 593/593/593 594/594/594 595/595/595
f 593/593/593 595/595/595 596/596/596
f 597/597/597 598/598/598 599/599/599
f 597/597/597 599/599/599 600/600/600
f 601/601/601 602/602/602 603/603/603
f 601/601/601 603/603/603 604/604/604
f 605/605/605 606/606/606 607/607/607
f 605/605/605 607/607/607 608/608/608
f 609/609/609 610/610/610 611/611/611
f 609/609/609 611/611/611 612/612/612
f 613/613/613 614/614/614 615/615/615
f 613/613/613 615/615/615 616/616/616
f 617/617/617 618/618/618 619/619/619
f 617/617/617 619/619/619 620/620/620
f 621/621/621 622/622/622 623/623/623
f 621/621/621 623/623/623 624/624/624
f 625/625/625 626/626/626 627/627/627
f 625/625/625 627/627/627 628/628/628
f 629/629/629 630/630/630 631/631/631
f 629/629/629 631/631/631 632/632/632
f 633/633/633 634/634/634 635/635/635
f 633/633/633 635/635/635 636/636/636
f 637/637/637 638/638/638 639/639/639
f 637/637/637 639/639/639 640/640/640
f 641/641/641 642/642/642 643/643/643
f 641/641/641 643/643/643 644/644/644
f 645/645/645 646/646/646 647/647/647
f 645/645/645 647/647/647 648/648/648
f 649/649/649 650/650/650 651/651/651
f 652/652/652 653/653/653 654/654/654
f 655/655/655 656/656/656 657/657/657
f 658/658/658 659/659/659 660/660/660
f 661/661/661 662/662/662 663/663/663
f 664/664/664 665/665/665 666/666/666
f 667/667/667 668/668/668 669/669/669
f 670/670/670 671/671/671 672/672/672
f 673/673/673 674/674/674 675/675/675
f 673/673/673 675/675/675 676/676/676
f 677/677/677 678/678/678 679/679/679
f 677/677/677 679/679/679 680/680/680
f 681/681/681 682/682/682 683/683/683
f 681/681/681 683/683/683 684/684/684
f 685/685/685 686/686/686 687/687/687
f 685/685/685 687/687/687 688/688/688
f 689/689/689 690/690/690 691/691/691
f 689/689/689 691/691/691 692/692/692
f 693/693/693 694/694/694 695/695/695
f 693/693/693 695/695/695 696/696/696
f 697/697/697 698/698/698 699/699/699
f 697/697/697 699/699/699 700/700/700
f 701/701/701 702/702/702 703/703/703
f 701/701/701 703/703/703 704/704/704
f 705/705/705 706/706/706 707/707/707
f 705/705/705 707/707/707 708/708/708
f 709/709/709 710/710/710 711/711/711
f 709/709/709 711/711/711 712/712/712
f 713/713/713 714/714/714 715/715/715
f 713/713/713 715/715/715 716/716/716
f 717/717/717 718/718/718 719/719/719
f 717/717/717 719/719/719 720/720/720
f 721/721/721 722/722/722 723/723/723
f 721/721/721 723/723/723 724/724/724
f 725/725/725 726/726/726 727/727/727
f 725/725/725 727/727/727 728/728/728
f 729/729/729 730/730/730 731/731/731
f 729/729/729 731/731/731 732/732/732
f 733/733/733 734/734/734 735/735/735
f 733/733/733 735/735/735 736/736/736
f 737/737/737 738/738/738 739/739/739
f 737/737/737 739/739/739 740/740/740
f 741/741/741 742/742/742 743/743/743
f 741/741/741 743/743/743 744/744/744
f 745/745/745 746/746/746 747/747/747
f 748/748/748 749/749/749 750/750/750
f 751/751/751 752/752/752 753/753/753
f 754/754/754 755/755/755 756/756/756
f 757/757/757 758/758/758 759/759/759
f 760/760/760 761/761/761 762/762/762
f 763/763/763 764/764/764 765/765/765
f 766/766/766 767/767/767 768/768/768
f 769/769/769 770/770/770 771/771/771
f 769/769/769 771/771/771 772/772/772
f 773/773/773 774/774/774 775/775/775
f 773/773/773 775/775/775 776/776/776
f 777/777/777 778/778/778 779/779/779
f 777/777/777 779/779/779 780/780/780
f 781/781/781 782/782/782 783/783/783
f 781/781/781 783/783/783 784/784/784
f 785/785/785 786/786/786 787/787/787
f 785/785/785 787/787/787 788/788/788
f 789/789/789 790/790/790 791/791/791
f 789/789/789 791/791/791 792/792/792
f 793/793/793 794/794/794 795/795/795
f 793/793/793 795/795/795 796/796/796
f 797/797/797 798/798/798 799/799/799
f 797/797/797 799/799/799 800/800/800
f 801/801/801 802/802/802 803/803/803
f 801/801/801 803/803/803 804/804/804
f 805/805/805 806/806/806 807/807/807
f 805/805/805 807/807/807 808/808/808
f 809/809/809 810/810/810 811/811/811
f 809/809/809 811/811/811 812/812/812
f 813/813/813 814/814/814 815/815/815
f 813/813/813 815/815/815 816/816/816
f 817/817/817 818/818/818 819/819/819
f 817/817/817 819/819/819 820/820/820
f 821/821/821 822/822/822 823/823/823
f 821/821/821 823/823/823 824/824/824
f 825/825/825 826/826/826 827/827/827
f 825/825/825 827/827/827 828/828/828
f 829/829/829 830/830/830 831/831/831
f 829/829/829 831/831/831 832/832/832
f 833/833/833 834/834/834 835/835/835
f 833/833/833 835/835/835 836/836/836
f 837/837/837 838/838/838 839/839/839
f 837/837/837 839/839/839 840/840/840
f 841/841/841 842/842/842 843/843/843
f 844/844/844 845/845/845 846/846/846
f 847/847/847 848/848/848 849/849/849
f 850/850/850 851/851/851 852/852/852
f 853/853/853 854/854/854 855/855/855
f 856/856/856 857/857/857 858/858/858
f 859/859/859 860/860/860 861/861/861
f 862/862/862 863/863/863 864/864/864
f 865/865/865 866/866/866 867/867/867
f 865/865/865 867/867/867 868/868/868
f 869/869/869 870/870/870 871/871/871
f 869/869/869 871/871/871 872/872/872
f 873/873/873 874/874/874 875/875/875
f 873/873/873 875/875/875 876/876/876
f 877/877/877 878/878/878 879/879/879
f 877/877/877 879/879/879 880/880/880
f 881/881/881 882/882/882 883/883/883
f 881/881/881 883/883/883 884/884/884
f 885/885/885 886/886/886 887/887/887
f 885/885/885 887/887/887 888/888/888
f 889/889/889 890/890/890 891/891/891
f 889/889/889 891/891/891 892/892/892
f 893/893/893 894/894/894 895/895/895
f 893/893/893 895/895/895 896/896/896
f 897/897/897 898/898/898 899/899/899
f 897/897/897 899/899/899 900/900/900
f 901/901/901 902/902/902 903/903/903
f 901/901/901 903/903/903 904/904/904
f 905/905/905 906/906/906 907/907/907
f 905/905/905 907/907/907 908/908/908
f 909/909/909 910/910/910 911/911/911
f 909/909/909 911/911/911 912/912/912
f 913/913/913 914/914/914 915/915/915
f 913/913/913 915/915/915 916/916/916
f 917/917/917 918/918/918 919/919/919
f 917/917/917 919/919/919 920/920/920
f 921/921/921 922/922/922 923/923/923
f 921/921/921 923/923/923 924/924/924
f 925/925/925 926/926/926 927/927/927
f 925/925/925 927/927/927 928/928/928
f 929/929/929 930/930/930 931/931/931
f 929/929/929 931/931/931 932/932/932
f 933/933/933 934/934/934 935/935/935
f 933/933/933 935/935/935 936/936/936
f 937/937/937 938/938/938 939/939/939
f 940/940/940 941/941/941 942/942/942
f 943/943/943 944/944/944 945/945/945
f 946/946/946 947/947/947 948/948/948
f 949/949/949 950/950/950 951/951/951
f 952/952/952 953/953/953 954/954/954
f 955/955/955 956/956/956 957/957/957
f 958/958/958 959/959/959 960/960/960
