# TERRAFRONT procedural asset — generated by Tools/assetgen (deterministic)
# Y-up, +Z forward (muzzle), units = meters, pivot at grip/origin.
# prop_rock_d — TERRAFRONT P3
mtllib tf_utility.mtl
o prop_rock_d
v -0.0176 0.0000 -0.0099
v -0.0224 0.0000 0.0141
v -0.6951 0.0845 0.4366
v -0.5454 0.0845 -0.3080
v -0.0224 0.0000 0.0141
v -0.0103 0.0000 0.0274
v -0.3214 0.0845 0.8524
v -0.6951 0.0845 0.4366
v -0.0103 0.0000 0.0274
v 0.0095 0.0000 0.0202
v 0.2944 0.0845 0.6264
v -0.3214 0.0845 0.8524
v 0.0095 0.0000 0.0202
v 0.0222 -0.0000 -0.0023
v 0.6884 0.0845 -0.0713
v 0.2944 0.0845 0.6264
v 0.0222 -0.0000 -0.0023
v 0.0182 -0.0000 -0.0230
v 0.5641 0.0845 -0.7153
v 0.6884 0.0845 -0.0713
v 0.0182 -0.0000 -0.0230
v 0.0005 -0.0000 -0.0264
v 0.0150 0.0845 -0.8207
v 0.5641 0.0845 -0.7153
v 0.0005 -0.0000 -0.0264
v -0.0176 0.0000 -0.0099
v -0.5454 0.0845 -0.3080
v 0.0150 0.0845 -0.8207
v -0.5454 0.0845 -0.3080
v -0.6951 0.0845 0.4366
v -0.7926 0.1690 0.4978
v -0.6219 0.1690 -0.3513
v -0.6951 0.0845 0.4366
v -0.3214 0.0845 0.8524
v -0.3665 0.1690 0.9721
v -0.7926 0.1690 0.4978
v -0.3214 0.0845 0.8524
v 0.2944 0.0845 0.6264
v 0.3357 0.1690 0.7143
v -0.3665 0.1690 0.9721
v 0.2944 0.0845 0.6264
v 0.6884 0.0845 -0.0713
v 0.7850 0.1690 -0.0813
v 0.3357 0.1690 0.7143
v 0.6884 0.0845 -0.0713
v 0.5641 0.0845 -0.7153
v 0.6433 0.1690 -0.8157
v 0.7850 0.1690 -0.0813
v 0.5641 0.0845 -0.7153
v 0.0150 0.0845 -0.8207
v 0.0171 0.1690 -0.9359
v 0.6433 0.1690 -0.8157
v 0.0150 0.0845 -0.8207
v -0.5454 0.0845 -0.3080
v -0.6219 0.1690 -0.3513
v 0.0171 0.1690 -0.9359
v -0.6219 0.1690 -0.3513
v -0.7926 0.1690 0.4978
v -0.8167 0.2535 0.5130
v -0.6408 0.2535 -0.3620
v -0.7926 0.1690 0.4978
v -0.3665 0.1690 0.9721
v -0.3776 0.2535 1.0016
v -0.8167 0.2535 0.5130
v -0.3665 0.1690 0.9721
v 0.3357 0.1690 0.7143
v 0.3459 0.2535 0.7360
v -0.3776 0.2535 1.0016
v 0.3357 0.1690 0.7143
v 0.7850 0.1690 -0.0813
v 0.8089 0.2535 -0.0838
v 0.3459 0.2535 0.7360
v 0.7850 0.1690 -0.0813
v 0.6433 0.1690 -0.8157
v 0.6628 0.2535 -0.8405
v 0.8089 0.2535 -0.0838
v 0.6433 0.1690 -0.8157
v 0.0171 0.1690 -0.9359
v 0.0176 0.2535 -0.9643
v 0.6628 0.2535 -0.8405
v 0.0171 0.1690 -0.9359
v -0.6219 0.1690 -0.3513
v -0.6408 0.2535 -0.3620
v 0.0176 0.2535 -0.9643
v -0.6408 0.2535 -0.3620
v -0.8167 0.2535 0.5130
v -0.8291 0.3380 0.5207
v -0.6505 0.3380 -0.3674
v -0.8167 0.2535 0.5130
v -0.3776 0.2535 1.0016
v -0.3833 0.3380 1.0168
v -0.8291 0.3380 0.5207
v -0.3776 0.2535 1.0016
v 0.3459 0.2535 0.7360
v 0.3511 0.3380 0.7472
v -0.3833 0.3380 1.0168
v 0.3459 0.2535 0.7360
v 0.8089 0.2535 -0.0838
v 0.8211 0.3380 -0.0851
v 0.3511 0.3380 0.7472
v 0.8089 0.2535 -0.0838
v 0.6628 0.2535 -0.8405
v 0.6728 0.3380 -0.8532
v 0.8211 0.3380 -0.0851
v 0.6628 0.2535 -0.8405
v 0.0176 0.2535 -0.9643
v 0.0179 0.3380 -0.9789
v 0.6728 0.3380 -0.8532
v 0.0176 0.2535 -0.9643
v -0.6408 0.2535 -0.3620
v -0.6505 0.3380 -0.3674
v 0.0179 0.3380 -0.9789
v -0.6505 0.3380 -0.3674
v -0.8291 0.3380 0.5207
v -0.6958 0.4225 0.4370
v -0.5459 0.4225 -0.3083
v -0.8291 0.3380 0.5207
v -0.3833 0.3380 1.0168
v -0.3217 0.4225 0.8533
v -0.6958 0.4225 0.4370
v -0.3833 0.3380 1.0168
v 0.3511 0.3380 0.7472
v 0.2946 0.4225 0.6270
v -0.3217 0.4225 0.8533
v 0.3511 0.3380 0.7472
v 0.8211 0.3380 -0.0851
v 0.6891 0.4225 -0.0714
v 0.2946 0.4225 0.6270
v 0.8211 0.3380 -0.0851
v 0.6728 0.3380 -0.8532
v 0.5646 0.4225 -0.7160
v 0.6891 0.4225 -0.0714
v 0.6728 0.3380 -0.8532
v 0.0179 0.3380 -0.9789
v 0.0150 0.4225 -0.8215
v 0.5646 0.4225 -0.7160
v 0.0179 0.3380 -0.9789
v -0.6505 0.3380 -0.3674
v -0.5459 0.4225 -0.3083
v 0.0150 0.4225 -0.8215
v -0.5459 0.4225 -0.3083
v -0.6958 0.4225 0.4370
v -0.6359 0.5070 0.3994
v -0.4989 0.5070 -0.2818
v -0.6958 0.4225 0.4370
v -0.3217 0.4225 0.8533
v -0.2940 0.5070 0.7798
v -0.6359 0.5070 0.3994
v -0.3217 0.4225 0.8533
v 0.2946 0.4225 0.6270
v 0.2693 0.5070 0.5730
v -0.2940 0.5070 0.7798
v 0.2946 0.4225 0.6270
v 0.6891 0.4225 -0.0714
v 0.6298 0.5070 -0.0652
v 0.2693 0.5070 0.5730
v 0.6891 0.4225 -0.0714
v 0.5646 0.4225 -0.7160
v 0.5160 0.5070 -0.6544
v 0.6298 0.5070 -0.0652
v 0.5646 0.4225 -0.7160
v 0.0150 0.4225 -0.8215
v 0.0137 0.5070 -0.7508
v 0.5160 0.5070 -0.6544
v 0.0150 0.4225 -0.8215
v -0.5459 0.4225 -0.3083
v -0.4989 0.5070 -0.2818
v 0.0137 0.5070 -0.7508
v -0.4989 0.5070 -0.2818
v -0.6359 0.5070 0.3994
v -0.4882 0.5914 0.3066
v -0.3831 0.5914 -0.2164
v -0.6359 0.5070 0.3994
v -0.2940 0.5070 0.7798
v -0.2257 0.5914 0.5987
v -0.4882 0.5914 0.3066
v -0.2940 0.5070 0.7798
v 0.2693 0.5070 0.5730
v 0.2067 0.5914 0.4400
v -0.2257 0.5914 0.5987
v 0.2693 0.5070 0.5730
v 0.6298 0.5070 -0.0652
v 0.4835 0.5914 -0.0501
v 0.2067 0.5914 0.4400
v 0.6298 0.5070 -0.0652
v 0.5160 0.5070 -0.6544
v 0.3962 0.5914 -0.5024
v 0.4835 0.5914 -0.0501
v 0.5160 0.5070 -0.6544
v 0.0137 0.5070 -0.7508
v 0.0105 0.5914 -0.5764
v 0.3962 0.5914 -0.5024
v 0.0137 0.5070 -0.7508
v -0.4989 0.5070 -0.2818
v -0.3831 0.5914 -0.2164
v 0.0105 0.5914 -0.5764
v -0.3831 0.5914 -0.2164
v -0.4882 0.5914 0.3066
v -0.0336 0.6033 0.0211
v -0.0263 0.6033 -0.0149
v -0.4882 0.5914 0.3066
v -0.2257 0.5914 0.5987
v -0.0155 0.6033 0.0412
v -0.0336 0.6033 0.0211
v -0.2257 0.5914 0.5987
v 0.2067 0.5914 0.4400
v 0.0142 0.6033 0.0303
v -0.0155 0.6033 0.0412
v 0.2067 0.5914 0.4400
v 0.4835 0.5914 -0.0501
v 0.0333 0.6033 -0.0034
v 0.0142 0.6033 0.0303
v 0.4835 0.5914 -0.0501
v 0.3962 0.5914 -0.5024
v 0.0272 0.6033 -0.0346
v 0.0333 0.6033 -0.0034
v 0.3962 0.5914 -0.5024
v 0.0105 0.5914 -0.5764
v 0.0007 0.6033 -0.0396
v 0.0272 0.6033 -0.0346
v 0.0105 0.5914 -0.5764
v -0.3831 0.5914 -0.2164
v -0.0263 0.6033 -0.0149
v 0.0007 0.6033 -0.0396
v -0.0263 0.6033 -0.0149
v -0.0336 0.6033 0.0211
v -0.0155 0.6033 0.0412
v 0.0142 0.6033 0.0303
v 0.0333 0.6033 -0.0034
v 0.0272 0.6033 -0.0346
v 0.0007 0.6033 -0.0396
vt 0.6230 0.3715
vt 0.6223 0.3744
vt 0.5236 0.4256
vt 0.5456 0.3353
vt 0.6223 0.3744
vt 0.6241 0.3760
vt 0.5785 0.4761
vt 0.5236 0.4256
vt 0.6241 0.3760
vt 0.6270 0.3752
vt 0.6687 0.4487
vt 0.5785 0.4761
vt 0.6270 0.3752
vt 0.6288 0.3724
vt 0.7265 0.3641
vt 0.6687 0.4487
vt 0.6288 0.3724
vt 0.6282 0.3699
vt 0.7083 0.2860
vt 0.7265 0.3641
vt 0.6282 0.3699
vt 0.6257 0.3695
vt 0.6278 0.2732
vt 0.7083 0.2860
vt 0.6257 0.3695
vt 0.6230 0.3715
vt 0.5456 0.3353
vt 0.6278 0.2732
vt 0.5456 0.3353
vt 0.5236 0.4256
vt 0.5093 0.4331
vt 0.5344 0.3301
vt 0.5236 0.4256
vt 0.5785 0.4761
vt 0.5718 0.4906
vt 0.5093 0.4331
vt 0.5785 0.4761
vt 0.6687 0.4487
vt 0.6748 0.4593
vt 0.5718 0.4906
vt 0.6687 0.4487
vt 0.7265 0.3641
vt 0.7407 0.3628
vt 0.6748 0.4593
vt 0.7265 0.3641
vt 0.7083 0.2860
vt 0.7199 0.2738
vt 0.7407 0.3628
vt 0.7083 0.2860
vt 0.6278 0.2732
vt 0.6281 0.2592
vt 0.7199 0.2738
vt 0.6278 0.2732
vt 0.5456 0.3353
vt 0.5344 0.3301
vt 0.6281 0.2592
vt 0.5801 0.3218
vt 0.6831 0.3218
vt 0.6849 0.3557
vt 0.5788 0.3557
vt 0.6831 0.3218
vt 0.7406 0.3218
vt 0.7442 0.3557
vt 0.6849 0.3557
vt 0.5718 0.3218
vt 0.6748 0.3218
vt 0.6763 0.3557
vt 0.5702 0.3557
vt 0.7093 0.3218
vt 0.6128 0.3218
vt 0.6125 0.3557
vt 0.7120 0.3557
vt 0.6128 0.3218
vt 0.5238 0.3218
vt 0.5208 0.3557
vt 0.6125 0.3557
vt 0.7199 0.3218
vt 0.6281 0.3218
vt 0.6282 0.3557
vt 0.7228 0.3557
vt 0.6281 0.3218
vt 0.5344 0.3218
vt 0.5316 0.3557
vt 0.6282 0.3557
vt 0.5788 0.3557
vt 0.6849 0.3557
vt 0.6858 0.3896
vt 0.5781 0.3896
vt 0.6849 0.3557
vt 0.7442 0.3557
vt 0.7460 0.3896
vt 0.6858 0.3896
vt 0.5702 0.3557
vt 0.6763 0.3557
vt 0.6771 0.3896
vt 0.5694 0.3896
vt 0.7120 0.3557
vt 0.6125 0.3557
vt 0.6124 0.3896
vt 0.7133 0.3896
vt 0.6125 0.3557
vt 0.5208 0.3557
vt 0.5192 0.3896
vt 0.6124 0.3896
vt 0.7228 0.3557
vt 0.6282 0.3557
vt 0.6282 0.3896
vt 0.7243 0.3896
vt 0.6282 0.3557
vt 0.5316 0.3557
vt 0.5302 0.3896
vt 0.6282 0.3896
vt 0.5302 0.3281
vt 0.5040 0.4358
vt 0.5236 0.4257
vt 0.5455 0.3353
vt 0.5040 0.4358
vt 0.5694 0.4960
vt 0.5784 0.4762
vt 0.5236 0.4257
vt 0.5694 0.4960
vt 0.6771 0.4633
vt 0.6688 0.4487
vt 0.5784 0.4762
vt 0.6771 0.4633
vt 0.7460 0.3624
vt 0.7266 0.3640
vt 0.6688 0.4487
vt 0.7460 0.3624
vt 0.7243 0.2692
vt 0.7084 0.2859
vt 0.7266 0.3640
vt 0.7243 0.2692
vt 0.6282 0.2540
vt 0.6278 0.2731
vt 0.7084 0.2859
vt 0.6282 0.2540
vt 0.5302 0.3281
vt 0.5455 0.3353
vt 0.6278 0.2731
vt 0.5853 0.4235
vt 0.6757 0.4235
vt 0.6711 0.4574
vt 0.5885 0.4574
vt 0.5236 0.4257
vt 0.5784 0.4762
vt 0.5825 0.4673
vt 0.5323 0.4211
vt 0.5784 0.4235
vt 0.6688 0.4235
vt 0.6651 0.4574
vt 0.5825 0.4574
vt 0.6987 0.4235
vt 0.6140 0.4235
vt 0.6148 0.4574
vt 0.6922 0.4574
vt 0.6140 0.4235
vt 0.5359 0.4235
vt 0.5434 0.4574
vt 0.6148 0.4574
vt 0.7084 0.4235
vt 0.6278 0.4235
vt 0.6276 0.4574
vt 0.7013 0.4574
vt 0.6278 0.4235
vt 0.5455 0.4235
vt 0.5524 0.4574
vt 0.6276 0.4574
vt 0.5524 0.3385
vt 0.5323 0.4211
vt 0.5540 0.4099
vt 0.5694 0.3465
vt 0.5323 0.4211
vt 0.5825 0.4673
vt 0.5925 0.4453
vt 0.5540 0.4099
vt 0.5825 0.4673
vt 0.6651 0.4422
vt 0.6559 0.4261
vt 0.5925 0.4453
vt 0.6651 0.4422
vt 0.7179 0.3648
vt 0.6965 0.3666
vt 0.6559 0.4261
vt 0.7179 0.3648
vt 0.7013 0.2934
vt 0.6837 0.3118
vt 0.6965 0.3666
vt 0.7013 0.2934
vt 0.6276 0.2817
vt 0.6271 0.3028
vt 0.6837 0.3118
vt 0.6276 0.2817
vt 0.5524 0.3385
vt 0.5694 0.3465
vt 0.6271 0.3028
vt 0.5694 0.3465
vt 0.5540 0.4099
vt 0.6207 0.3753
vt 0.6217 0.3709
vt 0.5540 0.4099
vt 0.5925 0.4453
vt 0.6233 0.3777
vt 0.6207 0.3753
vt 0.5925 0.4453
vt 0.6559 0.4261
vt 0.6277 0.3764
vt 0.6233 0.3777
vt 0.6559 0.4261
vt 0.6965 0.3666
vt 0.6305 0.3723
vt 0.6277 0.3764
vt 0.6965 0.3666
vt 0.6837 0.3118
vt 0.6296 0.3685
vt 0.6305 0.3723
vt 0.6837 0.3118
vt 0.6271 0.3028
vt 0.6257 0.3679
vt 0.6296 0.3685
vt 0.6271 0.3028
vt 0.5694 0.3465
vt 0.6217 0.3709
vt 0.6257 0.3679
vt 0.6217 0.3709
vt 0.6207 0.3753
vt 0.6233 0.3777
vt 0.6277 0.3764
vt 0.6305 0.3723
vt 0.6296 0.3685
vt 0.6257 0.3679
vn -0.1422 -0.9894 -0.0286
vn -0.1422 -0.9894 -0.0286
vn -0.1422 -0.9894 -0.0286
vn -0.1422 -0.9894 -0.0286
vn -0.0798 -0.9942 0.0717
vn -0.0798 -0.9942 0.0717
vn -0.0798 -0.9942 0.0717
vn -0.0798 -0.9942 0.0717
vn 0.0433 -0.9921 0.1179
vn 0.0433 -0.9921 0.1179
vn 0.0433 -0.9921 0.1179
vn 0.0433 -0.9921 0.1179
vn 0.1331 -0.9882 0.0752
vn 0.1331 -0.9882 0.0752
vn 0.1331 -0.9882 0.0752
vn 0.1331 -0.9882 0.0752
vn 0.1233 -0.9921 -0.0238
vn 0.1233 -0.9921 -0.0238
vn 0.1233 -0.9921 -0.0238
vn 0.1233 -0.9921 -0.0238
vn 0.0202 -0.9942 -0.1054
vn 0.0202 -0.9942 -0.1054
vn 0.0202 -0.9942 -0.1054
vn 0.0202 -0.9942 -0.1054
vn -0.0979 -0.9894 -0.1070
vn -0.0979 -0.9894 -0.1070
vn -0.0979 -0.9894 -0.1070
vn -0.0979 -0.9894 -0.1070
vn -0.6971 -0.7031 -0.1402
vn -0.6971 -0.7031 -0.1402
vn -0.6971 -0.7031 -0.1402
vn -0.6971 -0.7031 -0.1402
vn -0.4442 -0.8021 0.3992
vn -0.4442 -0.8021 0.3992
vn -0.4442 -0.8021 0.3992
vn -0.4442 -0.8021 0.3992
vn 0.2267 -0.7532 0.6175
vn 0.2267 -0.7532 0.6175
vn 0.2267 -0.7532 0.6175
vn 0.2267 -0.7532 0.6175
vn 0.6353 -0.6838 0.3588
vn 0.6353 -0.6838 0.3588
vn 0.6353 -0.6838 0.3588
vn 0.6353 -0.6838 0.3588
vn 0.6459 -0.7532 -0.1247
vn 0.6459 -0.7532 -0.1247
vn 0.6459 -0.7532 -0.1247
vn 0.6459 -0.7532 -0.1247
vn 0.1125 -0.8021 -0.5865
vn 0.1125 -0.8021 -0.5865
vn 0.1125 -0.8021 -0.5865
vn 0.1125 -0.8021 -0.5865
vn -0.4799 -0.7031 -0.5247
vn -0.4799 -0.7031 -0.5247
vn -0.4799 -0.7031 -0.5247
vn -0.4799 -0.7031 -0.5247
vn -0.9524 -0.2373 -0.1915
vn -0.9524 -0.2373 -0.1915
vn -0.9524 -0.2373 -0.1915
vn -0.9524 -0.2373 -0.1915
vn -0.7059 -0.3150 0.6344
vn -0.7059 -0.3150 0.6344
vn -0.7059 -0.3150 0.6344
vn -0.7059 -0.3150 0.6344
vn 0.3316 -0.2722 0.9033
vn 0.3316 -0.2722 0.9033
vn 0.3316 -0.2722 0.9033
vn 0.3316 -0.2722 0.9033
vn 0.8483 -0.2256 0.4791
vn 0.8483 -0.2256 0.4791
vn 0.8483 -0.2256 0.4791
vn 0.8483 -0.2256 0.4791
vn 0.9448 -0.2722 -0.1824
vn 0.9448 -0.2722 -0.1824
vn 0.9448 -0.2722 -0.1824
vn 0.9448 -0.2722 -0.1824
vn 0.1788 -0.3150 -0.9321
vn 0.1788 -0.3150 -0.9321
vn 0.1788 -0.3150 -0.9321
vn 0.1788 -0.3150 -0.9321
vn -0.6557 -0.2373 -0.7168
vn -0.6557 -0.2373 -0.7168
vn -0.6557 -0.2373 -0.7168
vn -0.6557 -0.2373 -0.7168
vn -0.9728 -0.1243 -0.1956
vn -0.9728 -0.1243 -0.1956
vn -0.9728 -0.1243 -0.1956
vn -0.9728 -0.1243 -0.1956
vn -0.7332 -0.1678 0.6589
vn -0.7332 -0.1678 0.6589
vn -0.7332 -0.1678 0.6589
vn -0.7332 -0.1678 0.6589
vn 0.3410 -0.1436 0.9290
vn 0.3410 -0.1436 0.9290
vn 0.3410 -0.1436 0.9290
vn 0.3410 -0.1436 0.9290
vn 0.8646 -0.1179 0.4884
vn 0.8646 -0.1179 0.4884
vn 0.8646 -0.1179 0.4884
vn 0.8646 -0.1179 0.4884
vn 0.9717 -0.1436 -0.1876
vn 0.9717 -0.1436 -0.1876
vn 0.9717 -0.1436 -0.1876
vn 0.9717 -0.1436 -0.1876
vn 0.1858 -0.1678 -0.9682
vn 0.1858 -0.1678 -0.9682
vn 0.1858 -0.1678 -0.9682
vn 0.1858 -0.1678 -0.9682
vn -0.6697 -0.1243 -0.7321
vn -0.6697 -0.1243 -0.7321
vn -0.6697 -0.1243 -0.7321
vn -0.6697 -0.1243 -0.7321
vn -0.5831 0.8039 -0.1172
vn -0.5831 0.8039 -0.1172
vn -0.5831 0.8039 -0.1172
vn -0.5831 0.8039 -0.1172
vn -0.3557 0.8782 0.3197
vn -0.3557 0.8782 0.3197
vn -0.3557 0.8782 0.3197
vn -0.3557 0.8782 0.3197
vn 0.1855 0.8427 0.5054
vn 0.1855 0.8427 0.5054
vn 0.1855 0.8427 0.5054
vn 0.1855 0.8427 0.5054
vn 0.5358 0.7883 0.3026
vn 0.5358 0.7883 0.3026
vn 0.5358 0.7883 0.3026
vn 0.5358 0.7883 0.3026
vn 0.5286 0.8427 -0.1021
vn 0.5286 0.8427 -0.1021
vn 0.5286 0.8427 -0.1021
vn 0.5286 0.8427 -0.1021
vn 0.0901 0.8782 -0.4697
vn 0.0901 0.8782 -0.4697
vn 0.0901 0.8782 -0.4697
vn 0.0901 0.8782 -0.4697
vn -0.4014 0.8039 -0.4388
vn -0.4014 0.8039 -0.4388
vn -0.4014 0.8039 -0.4388
vn -0.4014 0.8039 -0.4388
vn -0.8380 0.5190 -0.1685
vn -0.8380 0.5190 -0.1685
vn -0.8380 0.5190 -0.1685
vn -0.8380 0.5190 -0.1685
vn -0.5738 0.6363 0.5157
vn -0.5738 0.6363 0.5157
vn -0.5738 0.6363 0.5157
vn -0.5738 0.6363 0.5157
vn 0.2819 0.5752 0.7679
vn 0.2819 0.5752 0.7679
vn 0.2819 0.5752 0.7679
vn 0.2819 0.5752 0.7679
vn 0.7547 0.4988 0.4262
vn 0.7547 0.4988 0.4262
vn 0.7547 0.4988 0.4262
vn 0.7547 0.4988 0.4262
vn 0.8032 0.5752 -0.1551
vn 0.8032 0.5752 -0.1551
vn 0.8032 0.5752 -0.1551
vn 0.8032 0.5752 -0.1551
vn 0.1454 0.6363 -0.7576
vn 0.1454 0.6363 -0.7576
vn 0.1454 0.6363 -0.7576
vn 0.1454 0.6363 -0.7576
vn -0.5769 0.5190 -0.6307
vn -0.5769 0.5190 -0.6307
vn -0.5769 0.5190 -0.6307
vn -0.5769 0.5190 -0.6307
vn -0.5445 0.8316 -0.1095
vn -0.5445 0.8316 -0.1095
vn -0.5445 0.8316 -0.1095
vn -0.5445 0.8316 -0.1095
vn -0.3282 0.8974 0.2949
vn -0.3282 0.8974 0.2949
vn -0.3282 0.8974 0.2949
vn -0.3282 0.8974 0.2949
vn 0.1722 0.8662 0.4691
vn 0.1722 0.8662 0.4691
vn 0.1722 0.8662 0.4691
vn 0.1722 0.8662 0.4691
vn 0.5016 0.8174 0.2833
vn 0.5016 0.8174 0.2833
vn 0.5016 0.8174 0.2833
vn 0.5016 0.8174 0.2833
vn 0.4906 0.8662 -0.0947
vn 0.4906 0.8662 -0.0947
vn 0.4906 0.8662 -0.0947
vn 0.4906 0.8662 -0.0947
vn 0.0831 0.8974 -0.4333
vn 0.0831 0.8974 -0.4333
vn 0.0831 0.8974 -0.4333
vn 0.0831 0.8974 -0.4333
vn -0.3749 0.8316 -0.4098
vn -0.3749 0.8316 -0.4098
vn -0.3749 0.8316 -0.4098
vn -0.3749 0.8316 -0.4098
vn -0.0298 0.9995 -0.0060
vn -0.0298 0.9995 -0.0060
vn -0.0298 0.9995 -0.0060
vn -0.0298 0.9995 -0.0060
vn -0.0166 0.9998 0.0149
vn -0.0166 0.9998 0.0149
vn -0.0166 0.9998 0.0149
vn -0.0166 0.9998 0.0149
vn 0.0090 0.9997 0.0246
vn 0.0090 0.9997 0.0246
vn 0.0090 0.9997 0.0246
vn 0.0090 0.9997 0.0246
vn 0.0279 0.9995 0.0158
vn 0.0279 0.9995 0.0158
vn 0.0279 0.9995 0.0158
vn 0.0279 0.9995 0.0158
vn 0.0257 0.9997 -0.0050
vn 0.0257 0.9997 -0.0050
vn 0.0257 0.9997 -0.0050
vn 0.0257 0.9997 -0.0050
vn 0.0042 0.9998 -0.0220
vn 0.0042 0.9998 -0.0220
vn 0.0042 0.9998 -0.0220
vn 0.0042 0.9998 -0.0220
vn -0.0205 0.9995 -0.0224
vn -0.0205 0.9995 -0.0224
vn -0.0205 0.9995 -0.0224
vn -0.0205 0.9995 -0.0224
vn 0.0000 1.0000 0.0000
vn 0.0000 1.0000 0.0000
vn 0.0000 1.0000 0.0000
vn 0.0000 1.0000 0.0000
vn 0.0000 1.0000 0.0000
vn 0.0000 1.0000 0.0000
vn 0.0000 1.0000 0.0000
usemtl TF_Utility
f 1/1/1 2/2/2 3/3/3
f 1/1/1 3/3/3 4/4/4
f 5/5/5 6/6/6 7/7/7
f 5/5/5 7/7/7 8/8/8
f 9/9/9 10/10/10 11/11/11
f 9/9/9 11/11/11 12/12/12
f 13/13/13 14/14/14 15/15/15
f 13/13/13 15/15/15 16/16/16
f 17/17/17 18/18/18 19/19/19
f 17/17/17 19/19/19 20/20/20
f 21/21/21 22/22/22 23/23/23
f 21/21/21 23/23/23 24/24/24
f 25/25/25 26/26/26 27/27/27
f 25/25/25 27/27/27 28/28/28
f 29/29/29 30/30/30 31/31/31
f 29/29/29 31/31/31 32/32/32
f 33/33/33 34/34/34 35/35/35
f 33/33/33 35/35/35 36/36/36
f 37/37/37 38/38/38 39/39/39
f 37/37/37 39/39/39 40/40/40
f 41/41/41 42/42/42 43/43/43
f 41/41/41 43/43/43 44/44/44
f 45/45/45 46/46/46 47/47/47
f 45/45/45 47/47/47 48/48/48
f 49/49/49 50/50/50 51/51/51
f 49/49/49 51/51/51 52/52/52
f 53/53/53 54/54/54 55/55/55
f 53/53/53 55/55/55 56/56/56
f 57/57/57 58/58/58 59/59/59
f 57/57/57 59/59/59 60/60/60
f 61/61/61 62/62/62 63/63/63
f 61/61/61 63/63/63 64/64/64
f 65/65/65 66/66/66 67/67/67
f 65/65/65 67/67/67 68/68/68
f 69/69/69 70/70/70 71/71/71
f 69/69/69 71/71/71 72/72/72
f 73/73/73 74/74/74 75/75/75
f 73/73/73 75/75/75 76/76/76
f 77/77/77 78/78/78 79/79/79
f 77/77/77 79/79/79 80/80/80
f 81/81/81 82/82/82 83/83/83
f 81/81/81 83/83/83 84/84/84
f 85/85/85 86/86/86 87/87/87
f 85/85/85 87/87/87 88/88/88
f 89/89/89 90/90/90 91/91/91
f 89/89/89 91/91/91 92/92/92
f 93/93/93 94/94/94 95/95/95
f 93/93/93 95/95/95 96/96/96
f 97/97/97 98/98/98 99/99/99
f 97/97/97 99/99/99 100/100/100
f 101/101/101 102/102/102 103/103/103
f 101/101/101 103/103/103 104/104/104
f 105/105/105 106/106/106 107/107/107
f 105/105/105 107/107/107 108/108/108
f 109/109/109 110/110/110 111/111/111
f 109/109/109 111/111/111 112/112/112
f 113/113/113 114/114/114 115/115/115
f 113/113/113 115/115/115 116/116/116
f 117/117/117 118/118/118 119/119/119
f 117/117/117 119/119/119 120/120/120
f 121/121/121 122/122/122 123/123/123
f 121/121/121 123/123/123 124/124/124
f 125/125/125 126/126/126 127/127/127
f 125/125/125 127/127/127 128/128/128
f 129/129/129 130/130/130 131/131/131
f 129/129/129 131/131/131 132/132/132
f 133/133/133 134/134/134 135/135/135
f 133/133/133 135/135/135 136/136/136
f 137/137/137 138/138/138 139/139/139
f 137/137/137 139/139/139 140/140/140
f 141/141/141 142/142/142 143/143/143
f 141/141/141 143/143/143 144/144/144
f 145/145/145 146/146/146 147/147/147
f 145/145/145 147/147/147 148/148/148
f 149/149/149 150/150/150 151/151/151
f 149/149/149 151/151/151 152/152/152
f 153/153/153 154/154/154 155/155/155
f 153/153/153 155/155/155 156/156/156
f 157/157/157 158/158/158 159/159/159
f 157/157/157 159/159/159 160/160/160
f 161/161/161 162/162/162 163/163/163
f 161/161/161 163/163/163 164/164/164
f 165/165/165 166/166/166 167/167/167
f 165/165/165 167/167/167 168/168/168
f 169/169/169 170/170/170 171/171/171
f 169/169/169 171/171/171 172/172/172
f 173/173/173 174/174/174 175/175/175
f 173/173/173 175/175/175 176/176/176
f 177/177/177 178/178/178 179/179/179
f 177/177/177 179/179/179 180/180/180
f 181/181/181 182/182/182 183/183/183
f 181/181/181 183/183/183 184/184/184
f 185/185/185 186/186/186 187/187/187
f 185/185/185 187/187/187 188/188/188
f 189/189/189 190/190/190 191/191/191
f 189/189/189 191/191/191 192/192/192
f 193/193/193 194/194/194 195/195/195
f 193/193/193 195/195/195 196/196/196
f 197/197/197 198/198/198 199/199/199
f 197/197/197 199/199/199 200/200/200
f 201/201/201 202/202/202 203/203/203
f 201/201/201 203/203/203 204/204/204
f 205/205/205 206/206/206 207/207/207
f 205/205/205 207/207/207 208/208/208
f 209/209/209 210/210/210 211/211/211
f 209/209/209 211/211/211 212/212/212
f 213/213/213 214/214/214 215/215/215
f 213/213/213 215/215/215 216/216/216
f 217/217/217 218/218/218 219/219/219
f 217/217/217 219/219/219 220/220/220
f 221/221/221 222/222/222 223/223/223
f 221/221/221 223/223/223 224/224/224
f 225/225/225 226/226/226 227/227/227
f 225/225/225 227/227/227 228/228/228
f 225/225/225 228/228/228 229/229/229
f 225/225/225 229/229/229 230/230/230
f 225/225/225 230/230/230 231/231/231
