# Blender 4.0.2
# www.blender.org
mtllib ammo_crate_collision.mtl
o ammo_crate_collision
v 0.300000 0.000000 -0.200000
v 0.300000 0.350000 -0.200000
v 0.300000 0.000000 0.200000
v 0.300000 0.350000 0.200000
v -0.300000 0.000000 -0.200000
v -0.300000 0.350000 -0.200000
v -0.300000 0.000000 0.200000
v -0.300000 0.350000 0.200000
vn 1.0000 -0.0000 -0.0000
vn -0.0000 -0.0000 1.0000
vn -1.0000 -0.0000 -0.0000
vn -0.0000 -0.0000 -1.0000
vn -0.0000 -1.0000 -0.0000
vn -0.0000 1.0000 -0.0000
vt 0.00000 0.00000
vt 0.00000 0.49824
vt 0.00000 0.50176
vt 0.00000 1.00000
vt 0.30212 0.50176
vt 0.30212 1.00000
vt 0.30578 0.50176
vt 0.30578 0.83392
vt 0.34529 0.00000
vt 0.34529 0.49824
vt 0.34894 0.00000
vt 0.34894 0.49824
vt 0.60790 0.50176
vt 0.60790 0.83392
vt 0.61155 0.50176
vt 0.61155 0.83392
vt 0.69422 0.00000
vt 0.69422 0.49824
vt 0.69788 0.00000
vt 0.69788 0.49824
vt 0.91368 0.50176
vt 0.91368 0.83392
vt 1.00000 0.00000
vt 1.00000 0.49824
s 0
usemtl FPS_collision
f 2/8/1 3/13/1 1/14/1
f 2/8/1 4/7/1 3/13/1
f 4/18/6 2/12/6 6/11/6
f 4/18/6 6/11/6 8/17/6
f 4/20/2 7/23/2 3/24/2
f 4/20/2 8/19/2 7/23/2
f 6/4/4 1/5/4 5/6/4
f 6/4/4 2/3/4 1/5/4
f 7/10/5 1/1/5 3/9/5
f 7/10/5 5/2/5 1/1/5
f 8/16/3 5/21/3 7/22/3
f 8/16/3 6/15/3 5/21/3
