# Blender 4.0.2
# www.blender.org
mtllib ammo_crate_lod1.mtl
o ammo_crate_lod1
v 0.272942 0.006951 0.100412
v 0.279692 0.021493 0.106539
v 0.279692 0.008507 0.153461
v 0.272942 0.023049 0.159588
v -0.279692 0.008507 0.106539
v -0.272942 0.023049 0.100412
v -0.272942 0.006951 0.159588
v -0.279692 0.021493 0.153461
v 0.272942 0.006951 -0.159588
v 0.279692 0.021493 -0.153461
v 0.279692 0.008507 -0.106539
v 0.272942 0.023049 -0.100412
v -0.279692 0.008507 -0.153461
v -0.272942 0.023049 -0.159588
v -0.272942 0.006951 -0.100412
v -0.279692 0.021493 -0.106539
v 0.255000 0.020000 -0.165000
v 0.267925 0.041038 -0.183302
v 0.260511 0.279113 -0.180457
v 0.280000 0.265000 -0.165000
v 0.280000 0.045000 0.165000
v 0.260511 0.030887 0.180457
v 0.255000 0.290000 0.165000
v 0.267925 0.268962 0.183302
v -0.280000 0.045000 -0.165000
v -0.260511 0.030887 -0.180457
v -0.255000 0.290000 -0.165000
v -0.267925 0.268962 -0.183302
v -0.255000 0.020000 0.165000
v -0.267925 0.041038 0.183302
v -0.280000 0.265000 0.165000
v -0.260511 0.279113 0.180457
v 0.274493 0.314595 -0.202014
v 0.289539 0.286889 -0.189364
v 0.302014 0.315405 -0.174493
v 0.289706 0.342243 -0.189940
v 0.302014 0.314595 0.174493
v 0.287543 0.286526 0.189010
v 0.288502 0.344358 0.186960
v 0.289425 0.316377 0.198331
v -0.302014 0.314595 -0.174493
v -0.287543 0.286526 -0.189010
v -0.288502 0.344358 -0.186960
v -0.289425 0.316377 -0.198331
v -0.274493 0.314595 0.202014
v -0.289539 0.286889 0.189364
v -0.302014 0.315405 0.174493
v -0.289706 0.342243 0.189940
v 0.217083 0.122083 -0.192917
v 0.218077 0.197308 -0.192308
v 0.218077 0.122692 0.192308
v 0.217083 0.197917 0.192917
v -0.218077 0.122692 -0.192308
v -0.217083 0.197917 -0.192917
v -0.217083 0.122083 0.192917
v -0.218077 0.197308 0.192308
v 0.198333 0.120000 -0.198000
v 0.106667 0.200000 -0.198000
v 0.210000 0.120000 0.198000
v 0.175000 0.120000 0.198000
v 0.095000 0.200000 0.198000
v 0.130000 0.200000 0.198000
v 0.098333 0.120000 -0.198000
v -0.005000 0.200000 -0.198000
v 0.030000 0.200000 -0.198000
v 0.110000 0.120000 0.198000
v 0.075000 0.120000 0.198000
v -0.005000 0.200000 0.198000
v 0.030000 0.200000 0.198000
v 0.010000 0.120000 -0.198000
v -0.025000 0.120000 -0.198000
v -0.105000 0.200000 -0.198000
v -0.070000 0.200000 -0.198000
v 0.010000 0.120000 0.198000
v -0.025000 0.120000 0.198000
v -0.105000 0.200000 0.198000
v -0.070000 0.200000 0.198000
v -0.101667 0.120000 -0.198000
v -0.193333 0.200000 -0.198000
v -0.090000 0.120000 0.198000
v -0.125000 0.120000 0.198000
v -0.205000 0.200000 0.198000
v -0.170000 0.200000 0.198000
v 0.044205 0.265974 0.184829
v 0.039387 0.319277 0.185910
v 0.039387 0.260723 0.194090
v 0.044205 0.314026 0.195171
v -0.039387 0.260723 0.185910
v -0.044205 0.314026 0.184829
v -0.044205 0.265974 0.195171
v -0.039387 0.319277 0.194090
v 0.294090 0.193223 -0.074387
v 0.295171 0.221526 -0.079205
v 0.295171 0.198474 0.079205
v 0.294090 0.226777 0.074387
v 0.284829 0.198474 -0.079205
v 0.285910 0.226777 -0.074387
v 0.285910 0.193223 0.074387
v 0.284829 0.221526 0.079205
v -0.285910 0.193223 -0.074387
v -0.284829 0.221526 -0.079205
v -0.284829 0.198474 0.079205
v -0.285910 0.226777 0.074387
v -0.295171 0.198474 -0.079205
v -0.294090 0.226777 -0.074387
v -0.294090 0.193223 0.074387
v -0.295171 0.221526 0.079205
vn -0.0086 -0.6593 0.7518
vn 0.0086 0.6593 0.7518
vn -0.6339 0.0290 0.7728
vn 0.0086 -0.6593 -0.7518
vn -0.0086 0.6593 -0.7518
vn 0.8711 0.2093 0.4444
vn -0.8711 0.2093 -0.4444
vn 0.7744 -0.0089 -0.6326
vn -0.6327 -0.0100 0.7743
vn -0.0491 -0.8796 0.4732
vn 0.0491 0.8796 0.4732
vn -0.9035 0.0902 0.4190
vn 0.0491 -0.8796 -0.4732
vn -0.0491 0.8796 -0.4732
vn 0.4826 -0.8754 0.0265
vn 0.3776 -0.1694 -0.9103
vn 0.4826 0.8754 -0.0265
vn 0.3776 0.1694 0.9103
vn -0.4826 -0.8754 -0.0265
vn -0.4826 0.8754 0.0265
vn -0.3776 0.1694 -0.9103
vn -0.0031 -0.9996 -0.0289
vn 0.9182 -0.3817 -0.1056
vn 0.9182 0.3817 0.1056
vn 0.0113 -0.3838 0.9233
vn -0.0113 0.3838 0.9233
vn -0.9182 -0.3817 0.1056
vn -0.9182 0.3817 -0.1056
vn -0.0113 -0.3838 -0.9233
vn 0.0113 0.3838 -0.9233
vn 0.0031 0.9996 -0.0289
vn -0.0056 0.0118 -0.9999
vn -0.9981 0.0510 -0.0340
vn 0.0202 0.9993 -0.0312
vn 0.9981 0.0510 0.0340
vn 0.0056 0.0118 0.9999
vn 0.8427 -0.5378 -0.0231
vn 0.8427 0.5378 0.0231
vn 0.6339 0.0290 -0.7728
vn -0.8427 -0.5378 0.0231
vn 0.6339 -0.0290 0.7728
vn -0.8427 0.5378 -0.0231
vn -0.0202 -0.9993 -0.0312
vn -0.6339 -0.0290 -0.7728
vn 0.0036 1.0000 -0.0056
vn 0.8886 -0.4587 -0.0011
vn 0.8600 -0.2007 0.4692
vn -0.8600 -0.2007 -0.4692
vn 0.9107 0.4130 0.0010
vn 0.6327 -0.0100 -0.7743
vn 0.0072 -0.2985 0.9544
vn 0.0049 0.3766 0.9264
vn -0.8886 -0.4587 0.0011
vn -0.7744 -0.0089 0.6326
vn -0.9107 0.4130 -0.0010
vn -0.0072 -0.2985 -0.9544
vn -0.0049 0.3766 -0.9264
vn 0.0006 -1.0000 -0.0010
vn 0.0014 0.0081 -1.0000
vn -0.9999 0.0132 -0.0026
vn 0.0014 1.0000 -0.0016
vn 0.9999 0.0132 0.0026
vn -0.0014 0.0081 1.0000
vn -0.0014 -1.0000 -0.0016
vn -0.0000 -0.0000 1.0000
vn -0.7070 -0.7070 -0.0208
vn -0.0000 -1.0000 -0.0000
vn 0.7070 0.7070 -0.0208
vn -0.0000 1.0000 -0.0000
vn -0.0000 -0.0000 -1.0000
vn -0.7071 -0.7071 -0.0000
vn 0.7071 0.7071 -0.0000
vn -0.0141 0.0190 -0.9997
vn 0.0141 0.0190 0.9997
vn -0.9993 0.0368 0.0083
vn 0.9035 0.0902 -0.4190
vn 0.9035 -0.0902 0.4190
vn -0.9035 -0.0902 -0.4190
vn 0.9993 0.0368 -0.0083
vn -0.3776 -0.1694 0.9103
vn 0.0031 -0.9996 0.0289
vn -0.0031 0.9996 0.0289
vn 0.0056 -0.0118 -0.9999
vn -0.9981 -0.0510 0.0340
vn -0.0202 0.9993 0.0312
vn 0.9981 -0.0510 -0.0340
vn -0.0056 -0.0118 0.9999
vn 0.5947 -0.8038 0.0158
vn 0.5946 0.8038 -0.0158
vn -0.5947 -0.8038 -0.0158
vn -0.5946 0.8038 0.0158
vn 0.0202 -0.9993 0.0312
vn -0.0036 1.0000 0.0056
vn 0.9153 -0.4027 0.0044
vn 0.9088 0.4171 0.0006
vn 0.0003 -0.4155 0.9096
vn 0.0033 0.4017 0.9158
vn -0.9153 -0.4027 -0.0044
vn -0.9088 0.4171 -0.0006
vn -0.0003 -0.4155 -0.9096
vn -0.0033 0.4017 -0.9158
vn -0.0006 -1.0000 0.0010
vn -0.0014 -0.0081 -1.0000
vn -0.9999 -0.0132 0.0026
vn -0.0014 1.0000 0.0016
vn 0.9999 -0.0132 -0.0026
vn 0.0014 -0.0081 1.0000
vn 0.0014 -1.0000 0.0016
vn -0.6570 -0.7529 -0.0387
vn 0.6570 0.7529 -0.0387
vn -0.6118 -0.7902 -0.0360
vn 0.7604 0.6495 -0.0000
vn 0.0141 -0.0190 -0.9997
vn -0.0141 -0.0190 0.9997
vn -0.9993 -0.0368 -0.0083
vn 0.9993 -0.0368 0.0083
vt 0.00000 0.64218
vt 0.00000 0.87680
vt 0.00321 0.31651
vt 0.00386 0.00379
vt 0.00524 0.33629
vt 0.00632 0.61992
vt 0.01336 0.34165
vt 0.01336 0.63356
vt 0.18975 0.32801
vt 0.18975 0.61992
vt 0.19679 0.34165
vt 0.19787 0.62528
vt 0.20212 0.31561
vt 0.20277 0.00288
vt 0.20311 0.64218
vt 0.20311 0.87680
vt 0.21155 0.64218
vt 0.21155 0.85825
vt 0.21629 0.86892
vt 0.21680 0.33629
vt 0.21682 0.89415
vt 0.21741 0.00302
vt 0.21748 0.31580
vt 0.21788 0.61992
vt 0.22232 0.87232
vt 0.22285 0.89755
vt 0.22492 0.34165
vt 0.22492 0.63356
vt 0.25431 0.64218
vt 0.25431 0.85825
vt 0.26275 0.64218
vt 0.26275 0.85825
vt 0.30551 0.64218
vt 0.30551 0.85825
vt 0.31395 0.64218
vt 0.31395 0.85825
vt 0.35671 0.64218
vt 0.35671 0.85825
vt 0.36515 0.64218
vt 0.36515 0.85825
vt 0.40131 0.32801
vt 0.40131 0.61992
vt 0.40791 0.64218
vt 0.40791 0.85825
vt 0.40835 0.34165
vt 0.40942 0.62528
vt 0.41635 0.64218
vt 0.41635 0.85825
vt 0.41733 0.00359
vt 0.41740 0.31637
vt 0.42311 0.32801
vt 0.42311 0.34165
vt 0.42311 0.62528
vt 0.43023 0.31610
vt 0.43115 0.00301
vt 0.44356 0.31673
vt 0.44384 0.00965
vt 0.45553 0.00284
vt 0.45715 0.31550
vt 0.45911 0.64218
vt 0.45911 0.85825
vt 0.46755 0.85825
vt 0.46826 0.31610
vt 0.46917 0.00301
vt 0.48002 0.64218
vt 0.48159 0.31673
vt 0.48187 0.00965
vt 0.48626 0.85825
vt 0.49356 0.00284
vt 0.49470 0.64218
vt 0.49470 0.85825
vt 0.49518 0.31550
vt 0.50488 0.00000
vt 0.50488 0.01364
vt 0.50488 0.29727
vt 0.51340 0.64218
vt 0.51340 0.85825
vt 0.52199 0.85825
vt 0.53446 0.64218
vt 0.54070 0.33629
vt 0.54070 0.61992
vt 0.54070 0.63356
vt 0.54070 0.85825
vt 0.54914 0.62265
vt 0.55074 0.63329
vt 0.55090 0.86958
vt 0.55115 0.32801
vt 0.55448 0.62265
vt 0.57586 0.32801
vt 0.57920 0.62265
vt 0.58121 0.32801
vt 0.58965 0.62265
vt 0.59166 0.32801
vt 0.59499 0.62265
vt 0.61637 0.32801
vt 0.61971 0.62265
vt 0.62172 0.32801
vt 0.62248 0.00829
vt 0.62248 0.29192
vt 0.62248 0.30556
vt 0.63016 0.62265
vt 0.63092 0.29464
vt 0.63216 0.32801
vt 0.63292 0.00000
vt 0.63550 0.62265
vt 0.63626 0.29464
vt 0.65688 0.32801
vt 0.65764 0.00000
vt 0.66022 0.62265
vt 0.66098 0.29464
vt 0.66223 0.32801
vt 0.66299 0.00000
vt 0.69823 0.32977
vt 0.69823 0.56643
vt 0.69899 0.00176
vt 0.69899 0.23842
vt 0.69899 0.29344
vt 0.70022 0.25306
vt 0.70327 0.24869
vt 0.70327 0.29626
vt 0.72413 0.57875
vt 0.72465 0.60398
vt 0.72679 0.25023
vt 0.72679 0.29780
vt 0.72984 0.29344
vt 0.73015 0.58216
vt 0.73068 0.60739
vt 0.73106 0.25306
vt 0.73647 0.56632
vt 0.73656 0.33003
vt 0.73723 0.23832
vt 0.73732 0.00202
vt 0.74676 0.32801
vt 0.74676 0.54408
vt 0.74676 0.59744
vt 0.74752 0.00000
vt 0.74752 0.21607
vt 0.74752 0.30762
vt 0.74799 0.55706
vt 0.74874 0.22905
vt 0.75104 0.55269
vt 0.75104 0.60026
vt 0.75179 0.22469
vt 0.75179 0.31045
vt 0.75583 0.63303
vt 0.75599 0.86932
vt 0.76195 0.22623
vt 0.76195 0.31199
vt 0.76500 0.30762
vt 0.76604 0.63126
vt 0.76604 0.84734
vt 0.76604 0.86945
vt 0.76604 0.93119
vt 0.76623 0.22905
vt 0.77455 0.55423
vt 0.77455 0.60180
vt 0.77467 0.30762
vt 0.77589 0.22905
vt 0.77760 0.59744
vt 0.77883 0.55706
vt 0.77894 0.22469
vt 0.77894 0.31045
vt 0.77926 0.85595
vt 0.77926 0.91768
vt 0.78910 0.22623
vt 0.78910 0.31199
vt 0.78952 0.54408
vt 0.79028 0.00000
vt 0.79028 0.21607
vt 0.79201 0.55474
vt 0.79215 0.30762
vt 0.79253 0.57998
vt 0.79337 0.22905
vt 0.79804 0.55815
vt 0.79856 0.58338
vt 0.79872 0.00000
vt 0.79872 0.21607
vt 0.80181 0.30762
vt 0.80199 0.32801
vt 0.80304 0.22905
vt 0.80609 0.22469
vt 0.80609 0.31045
vt 0.80823 0.54408
vt 0.80880 0.63126
vt 0.80880 0.84734
vt 0.81624 0.22623
vt 0.81624 0.31199
vt 0.81648 0.55474
vt 0.81667 0.32801
vt 0.81667 0.54408
vt 0.81701 0.57998
vt 0.81723 0.84734
vt 0.81723 0.86945
vt 0.81723 0.93119
vt 0.81743 0.00000
vt 0.81743 0.21607
vt 0.81929 0.30762
vt 0.82052 0.22905
vt 0.82251 0.55815
vt 0.82304 0.58338
vt 0.82586 0.21607
vt 0.82896 0.30762
vt 0.82971 0.63126
vt 0.83018 0.22905
vt 0.83046 0.85595
vt 0.83046 0.91768
vt 0.83323 0.22469
vt 0.83323 0.31045
vt 0.83537 0.32801
vt 0.83537 0.54408
vt 0.83594 0.84734
vt 0.83834 0.00000
vt 0.84339 0.22623
vt 0.84339 0.31199
vt 0.84381 0.54688
vt 0.84438 0.86365
vt 0.84438 0.92538
vt 0.84457 0.21607
vt 0.84524 0.33118
vt 0.84581 0.63444
vt 0.84630 0.53519
vt 0.84644 0.30762
vt 0.84687 0.83845
vt 0.84767 0.22905
vt 0.85263 0.61762
vt 0.85301 0.00000
vt 0.85301 0.20734
vt 0.85704 0.56039
vt 0.85761 0.85014
vt 0.85761 0.91187
vt 0.85839 0.52863
vt 0.85861 0.32801
vt 0.85882 0.33765
vt 0.85896 0.83188
vt 0.85918 0.63126
vt 0.85939 0.64091
vt 0.86548 0.56039
vt 0.86548 0.62212
vt 0.87057 0.53529
vt 0.87114 0.83855
vt 0.87207 0.33160
vt 0.87264 0.63486
vt 0.87871 0.54688
vt 0.87871 0.60862
vt 0.88184 0.32801
vt 0.88184 0.53535
vt 0.88241 0.63126
vt 0.88241 0.81132
vt 0.88241 0.81994
vt 0.88241 1.00000
vt 0.88715 0.54688
vt 0.88715 0.60862
vt 0.89134 0.20734
vt 0.89215 0.00000
vt 0.90038 0.56039
vt 0.90038 0.62212
vt 0.92017 0.53535
vt 0.92098 0.32801
vt 1.00000 0.63126
vt 1.00000 0.81132
vt 1.00000 0.81994
vt 1.00000 1.00000
s 0
usemtl FPS_gunmetal
f 1/175/23 2/172/23 3/174/23
f 1/93/22 7/96/22 5/94/22
f 1/93/81 3/95/81 7/96/81
f 10/105/30 9/101/30 14/103/30
f 100/222/116 101/208/116 103/204/116
f 100/222/15 102/213/15 106/224/15
f 100/222/79 103/204/79 102/213/79
f 101/208/16 100/222/16 104/214/16
f 102/213/18 103/204/18 107/207/18
f 103/204/17 101/208/17 105/202/17
f 104/186/21 105/180/21 101/181/21
f 105/180/20 107/182/20 103/178/20
f 106/197/115 107/182/115 105/180/115
f 106/197/19 104/186/19 100/198/19
f 106/197/75 105/180/75 104/186/75
f 106/197/80 102/187/80 107/182/80
f 11/108/25 12/112/25 15/110/25
f 12/19/24 11/25/24 10/21/24
f 13/106/29 14/102/29 9/104/29
f 14/103/31 12/109/31 10/105/31
f 14/103/82 16/107/82 12/109/82
f 14/188/28 13/199/28 16/191/28
f 15/200/27 16/191/27 13/199/27
f 16/107/26 15/111/26 12/109/26
f 2/88/30 1/84/30 6/87/30
f 3/95/25 4/97/25 7/96/25
f 33/57/100 34/58/100 42/59/100
f 33/57/50 36/55/50 34/58/50
f 33/57/56 42/59/56 44/56/56
f 35/234/49 39/220/49 37/236/49
f 35/234/95 36/223/95 39/220/95
f 36/223/8 35/234/8 34/240/8
f 37/236/47 40/235/47 38/242/47
f 37/236/6 39/220/6 40/235/6
f 38/242/46 35/234/46 37/236/46
f 38/242/94 34/240/94 35/234/94
f 38/49/102 46/50/102 42/23/102
f 38/49/58 42/23/58 34/22/58
f 39/63/52 45/67/52 40/66/52
f 39/63/97 48/64/97 45/67/97
f 4/170/24 3/174/24 2/172/24
f 41/233/48 44/232/48 42/241/48
f 41/233/7 43/219/7 44/232/7
f 42/241/53 47/231/53 41/233/53
f 42/241/98 46/239/98 47/231/98
f 43/4/45 39/13/45 36/3/45
f 43/4/93 48/14/93 39/13/93
f 43/54/101 36/55/101 33/57/101
f 43/54/57 33/57/57 44/56/57
f 45/67/51 38/72/51 40/66/51
f 45/67/96 46/69/96 38/72/96
f 46/69/9 45/67/9 48/64/9
f 47/231/54 46/239/54 48/221/54
f 47/231/55 43/219/55 41/233/55
f 47/231/99 48/221/99 43/219/99
f 5/94/29 6/92/29 1/93/29
f 6/121/28 5/126/28 8/122/28
f 6/87/31 4/90/31 2/88/31
f 6/87/82 8/89/82 4/90/82
f 7/127/27 8/122/27 5/126/27
f 8/89/26 7/91/26 4/90/26
f 9/104/22 15/110/22 13/106/22
f 9/104/81 11/108/81 15/110/81
f 9/26/23 10/21/23 11/25/23
f 92/171/116 93/162/116 95/158/116
f 92/171/15 94/165/15 98/173/15
f 92/171/79 95/158/79 94/165/79
f 93/162/16 92/171/16 96/166/16
f 94/165/18 95/158/18 99/161/18
f 95/158/17 93/162/17 97/157/17
f 96/147/21 97/140/21 93/143/21
f 97/140/20 99/144/20 95/138/20
f 98/149/115 99/144/115 97/140/115
f 98/149/19 96/147/19 92/154/19
f 98/149/75 97/140/75 96/147/75
f 98/149/80 94/148/80 99/144/80
usemtl FPS_gunmetal_paint
f 17/27/43 29/42/43 26/24/43
f 17/27/92 22/45/92 29/42/92
f 19/52/39 20/51/39 18/80/39
f 19/6/5 28/5/5 27/7/5
f 20/8/38 23/10/38 24/12/38
f 20/8/89 19/6/89 23/10/89
f 21/261/35 20/250/35 24/249/35
f 21/261/86 18/262/86 20/250/86
f 21/41/37 17/27/37 18/20/37
f 21/41/88 22/45/88 17/27/88
f 22/45/1 30/46/1 29/42/1
f 22/99/36 32/74/36 30/98/36
f 22/99/41 21/100/41 24/75/41
f 22/99/87 24/75/87 32/74/87
f 25/259/33 31/248/33 28/247/33
f 25/259/84 30/260/84 31/248/84
f 25/28/40 29/42/40 30/46/40
f 25/28/90 26/24/90 29/42/90
f 26/24/4 18/20/4 17/27/4
f 26/81/32 19/52/32 18/80/32
f 26/81/44 25/82/44 28/53/44
f 26/81/83 28/53/83 19/52/83
f 27/7/34 23/10/34 19/6/34
f 27/7/85 32/11/85 23/10/85
f 30/98/3 32/74/3 31/73/3
f 31/9/42 27/7/42 28/5/42
f 31/9/91 32/11/91 27/7/91
f 32/11/2 24/12/2 23/10/2
f 57/185/110 58/151/110 62/150/110
f 57/185/68 62/150/68 59/184/68
f 58/136/109 57/168/109 60/169/109
f 58/136/66 60/169/66 61/137/66
f 59/211/67 60/192/67 57/203/67
f 60/206/65 59/194/65 62/193/65
f 60/206/65 62/193/65 61/205/65
f 61/68/69 62/62/69 58/65/69
f 63/225/70 64/215/70 65/228/70
f 63/30/112 65/18/112 69/17/112
f 63/30/68 69/17/68 66/29/68
f 64/133/111 63/179/111 67/167/111
f 64/133/71 67/167/71 68/134/71
f 64/195/69 68/196/69 69/177/69
f 64/195/69 69/177/69 65/176/69
f 66/183/67 67/167/67 63/179/67
f 67/244/65 66/238/65 69/237/65
f 67/244/65 69/237/65 68/243/65
f 70/209/67 74/210/67 75/190/67
f 70/209/67 75/190/67 71/189/67
f 71/33/71 75/34/71 76/32/71
f 71/33/71 76/32/71 72/31/71
f 72/76/69 76/77/69 77/71/69
f 72/76/69 77/71/69 73/70/69
f 73/255/70 70/256/70 71/252/70
f 73/255/70 71/252/70 72/251/70
f 73/36/72 74/37/72 70/38/72
f 73/36/72 77/35/72 74/37/72
f 75/230/65 74/217/65 77/216/65
f 75/230/65 77/216/65 76/229/65
f 78/61/110 79/48/110 83/47/110
f 78/61/68 83/47/68 80/60/68
f 79/39/109 78/43/109 81/44/109
f 79/39/66 81/44/66 82/40/66
f 80/83/67 81/78/67 78/79/67
f 81/164/65 80/153/65 83/152/65
f 81/164/65 83/152/65 82/163/65
f 82/218/69 83/201/69 79/212/69
usemtl FPS_hazard
f 49/1/108 51/15/108 55/16/108
f 49/1/64 55/16/64 53/2/64
f 49/130/103 53/129/103 54/114/103
f 49/130/59 54/114/59 50/113/59
f 51/258/106 49/257/106 50/246/106
f 51/258/62 50/246/62 52/245/62
f 53/254/104 55/253/104 56/227/104
f 53/254/60 56/227/60 54/226/60
f 54/85/105 56/145/105 52/146/105
f 54/85/61 52/146/61 50/86/61
f 55/132/107 51/131/107 52/116/107
f 55/132/63 52/116/63 56/115/63
usemtl FPS_signal
f 85/125/14 89/123/14 91/128/14
f 85/125/76 87/124/76 84/120/76
f 86/139/10 90/142/10 88/135/10
f 86/139/114 87/155/114 91/159/114
f 86/139/74 91/159/74 90/142/74
f 86/139/77 84/141/77 87/155/77
f 88/118/113 89/123/113 85/125/113
f 88/118/13 84/120/13 86/117/13
f 88/118/73 85/125/73 84/120/73
f 88/118/78 90/119/78 89/123/78
f 90/142/12 91/159/12 89/156/12
f 91/159/11 87/155/11 85/160/11
