# Blender 4.0.2
# www.blender.org
mtllib spawn_pad.mtl
o spawn_pad
v 0.000000 0.000000 1.000000
v 0.000000 0.100000 1.000000
v -0.195090 0.000000 0.980785
v -0.195090 0.100000 0.980785
v -0.382683 0.000000 0.923880
v -0.382683 0.100000 0.923880
v -0.555570 0.000000 0.831470
v -0.555570 0.100000 0.831470
v -0.707107 0.000000 0.707107
v -0.707107 0.100000 0.707107
v -0.831470 0.000000 0.555570
v -0.831470 0.100000 0.555570
v -0.923880 0.000000 0.382683
v -0.923880 0.100000 0.382683
v -0.980785 0.000000 0.195090
v -0.980785 0.100000 0.195090
v -1.000000 0.000000 0.000000
v -1.000000 0.100000 0.000000
v -0.980785 0.000000 -0.195090
v -0.980785 0.100000 -0.195090
v -0.923880 0.000000 -0.382683
v -0.923880 0.100000 -0.382683
v -0.831470 0.000000 -0.555570
v -0.831470 0.100000 -0.555570
v -0.707107 0.000000 -0.707107
v -0.707107 0.100000 -0.707107
v -0.555570 0.000000 -0.831470
v -0.555570 0.100000 -0.831470
v -0.382683 0.000000 -0.923880
v -0.382683 0.100000 -0.923880
v -0.195090 0.000000 -0.980785
v -0.195090 0.100000 -0.980785
v 0.000000 0.000000 -1.000000
v 0.000000 0.100000 -1.000000
v 0.195090 0.000000 -0.980785
v 0.195090 0.100000 -0.980785
v 0.382683 0.000000 -0.923880
v 0.382683 0.100000 -0.923880
v 0.555570 0.000000 -0.831470
v 0.555570 0.100000 -0.831470
v 0.707107 0.000000 -0.707107
v 0.707107 0.100000 -0.707107
v 0.831470 0.000000 -0.555570
v 0.831470 0.100000 -0.555570
v 0.923880 0.000000 -0.382683
v 0.923880 0.100000 -0.382683
v 0.980785 0.000000 -0.195090
v 0.980785 0.100000 -0.195090
v 1.000000 0.000000 0.000000
v 1.000000 0.100000 0.000000
v 0.980785 0.000000 0.195090
v 0.980785 0.100000 0.195090
v 0.923880 0.000000 0.382683
v 0.923880 0.100000 0.382683
v 0.831470 0.000000 0.555570
v 0.831470 0.100000 0.555570
v 0.707107 0.000000 0.707107
v 0.707107 0.100000 0.707107
v 0.555570 0.000000 0.831470
v 0.555570 0.100000 0.831470
v 0.382683 0.000000 0.923880
v 0.382683 0.100000 0.923880
v 0.195090 0.000000 0.980785
v 0.195090 0.100000 0.980785
v 0.000000 0.100000 1.000000
v 0.000000 0.130000 0.970000
v -0.195090 0.100000 0.980785
v -0.189238 0.130000 0.951362
v -0.382683 0.100000 0.923880
v -0.371203 0.130000 0.896163
v -0.555570 0.100000 0.831470
v -0.538903 0.130000 0.806526
v -0.707107 0.100000 0.707107
v -0.685894 0.130000 0.685894
v -0.831470 0.100000 0.555570
v -0.806526 0.130000 0.538903
v -0.923880 0.100000 0.382683
v -0.896163 0.130000 0.371203
v -0.980785 0.100000 0.195090
v -0.951362 0.130000 0.189238
v -1.000000 0.100000 0.000000
v -0.970000 0.130000 0.000000
v -0.980785 0.100000 -0.195090
v -0.951362 0.130000 -0.189238
v -0.923880 0.100000 -0.382683
v -0.896163 0.130000 -0.371203
v -0.831470 0.100000 -0.555570
v -0.806526 0.130000 -0.538903
v -0.707107 0.100000 -0.707107
v -0.685894 0.130000 -0.685894
v -0.555570 0.100000 -0.831470
v -0.538903 0.130000 -0.806526
v -0.382683 0.100000 -0.923880
v -0.371203 0.130000 -0.896163
v -0.195090 0.100000 -0.980785
v -0.189238 0.130000 -0.951362
v 0.000000 0.100000 -1.000000
v 0.000000 0.130000 -0.970000
v 0.195090 0.100000 -0.980785
v 0.189238 0.130000 -0.951362
v 0.382683 0.100000 -0.923880
v 0.371203 0.130000 -0.896163
v 0.555570 0.100000 -0.831470
v 0.538903 0.130000 -0.806526
v 0.707107 0.100000 -0.707107
v 0.685894 0.130000 -0.685894
v 0.831470 0.100000 -0.555570
v 0.806526 0.130000 -0.538903
v 0.923880 0.100000 -0.382683
v 0.896163 0.130000 -0.371203
v 0.980785 0.100000 -0.195090
v 0.951362 0.130000 -0.189238
v 1.000000 0.100000 0.000000
v 0.970000 0.130000 0.000000
v 0.980785 0.100000 0.195090
v 0.951362 0.130000 0.189238
v 0.923880 0.100000 0.382683
v 0.896163 0.130000 0.371203
v 0.831470 0.100000 0.555570
v 0.806526 0.130000 0.538903
v 0.707107 0.100000 0.707107
v 0.685894 0.130000 0.685894
v 0.555570 0.100000 0.831470
v 0.538903 0.130000 0.806526
v 0.382683 0.100000 0.923880
v 0.371203 0.130000 0.896163
v 0.195090 0.100000 0.980785
v 0.189238 0.130000 0.951362
v -0.900000 0.125000 0.000000
v -0.900000 0.145000 0.000000
v -0.760000 0.145000 0.000000
v -0.760000 0.125000 0.000000
v -0.882707 0.125000 0.175581
v -0.882707 0.145000 0.175581
v -0.745397 0.145000 0.148269
v -0.745397 0.125000 0.148269
v -0.831492 0.125000 0.344415
v -0.831492 0.145000 0.344415
v -0.702148 0.145000 0.290839
v -0.702148 0.125000 0.290839
v -0.748323 0.125000 0.500013
v -0.748323 0.145000 0.500013
v -0.631917 0.145000 0.422233
v -0.631917 0.125000 0.422233
v -0.636396 0.125000 0.636396
v -0.636396 0.145000 0.636396
v -0.537401 0.145000 0.537401
v -0.537401 0.125000 0.537401
v -0.500013 0.125000 0.748323
v -0.500013 0.145000 0.748323
v -0.422233 0.145000 0.631917
v -0.422233 0.125000 0.631917
v -0.344415 0.125000 0.831492
v -0.344415 0.145000 0.831492
v -0.290839 0.145000 0.702148
v -0.290839 0.125000 0.702148
v -0.175581 0.125000 0.882707
v -0.175581 0.145000 0.882707
v -0.148269 0.145000 0.745397
v -0.148269 0.125000 0.745397
v -0.000000 0.125000 0.900000
v -0.000000 0.145000 0.900000
v -0.000000 0.145000 0.760000
v -0.000000 0.125000 0.760000
v 0.175581 0.125000 0.882707
v 0.175581 0.145000 0.882707
v 0.148269 0.145000 0.745397
v 0.148269 0.125000 0.745397
v 0.344415 0.125000 0.831492
v 0.344415 0.145000 0.831492
v 0.290839 0.145000 0.702148
v 0.290839 0.125000 0.702148
v 0.500013 0.125000 0.748323
v 0.500013 0.145000 0.748323
v 0.422233 0.145000 0.631917
v 0.422233 0.125000 0.631917
v 0.636396 0.125000 0.636396
v 0.636396 0.145000 0.636396
v 0.537401 0.145000 0.537401
v 0.537401 0.125000 0.537401
v 0.748323 0.125000 0.500013
v 0.748323 0.145000 0.500013
v 0.631917 0.145000 0.422233
v 0.631917 0.125000 0.422233
v 0.831492 0.125000 0.344415
v 0.831492 0.145000 0.344415
v 0.702148 0.145000 0.290839
v 0.702148 0.125000 0.290839
v 0.882707 0.125000 0.175581
v 0.882707 0.145000 0.175581
v 0.745397 0.145000 0.148269
v 0.745397 0.125000 0.148269
v 0.900000 0.125000 0.000000
v 0.900000 0.145000 0.000000
v 0.760000 0.145000 0.000000
v 0.760000 0.125000 0.000000
v 0.882707 0.125000 -0.175581
v 0.882707 0.145000 -0.175581
v 0.745397 0.145000 -0.148269
v 0.745397 0.125000 -0.148269
v 0.831492 0.125000 -0.344415
v 0.831492 0.145000 -0.344415
v 0.702148 0.145000 -0.290839
v 0.702148 0.125000 -0.290839
v 0.748323 0.125000 -0.500013
v 0.748323 0.145000 -0.500013
v 0.631917 0.145000 -0.422233
v 0.631917 0.125000 -0.422233
v 0.636396 0.125000 -0.636396
v 0.636396 0.145000 -0.636396
v 0.537401 0.145000 -0.537401
v 0.537401 0.125000 -0.537401
v 0.500013 0.125000 -0.748323
v 0.500013 0.145000 -0.748323
v 0.422233 0.145000 -0.631917
v 0.422233 0.125000 -0.631917
v 0.344415 0.125000 -0.831492
v 0.344415 0.145000 -0.831492
v 0.290839 0.145000 -0.702148
v 0.290839 0.125000 -0.702148
v 0.175581 0.125000 -0.882707
v 0.175581 0.145000 -0.882707
v 0.148269 0.145000 -0.745397
v 0.148269 0.125000 -0.745397
v 0.000000 0.125000 -0.900000
v 0.000000 0.145000 -0.900000
v 0.000000 0.145000 -0.760000
v 0.000000 0.125000 -0.760000
v -0.175581 0.125000 -0.882707
v -0.175581 0.145000 -0.882707
v -0.148269 0.145000 -0.745397
v -0.148269 0.125000 -0.745397
v -0.344415 0.125000 -0.831492
v -0.344415 0.145000 -0.831492
v -0.290839 0.145000 -0.702148
v -0.290839 0.125000 -0.702148
v -0.500013 0.125000 -0.748323
v -0.500013 0.145000 -0.748323
v -0.422233 0.145000 -0.631917
v -0.422233 0.125000 -0.631917
v -0.636396 0.125000 -0.636396
v -0.636396 0.145000 -0.636396
v -0.537401 0.145000 -0.537401
v -0.537401 0.125000 -0.537401
v -0.748323 0.125000 -0.500013
v -0.748323 0.145000 -0.500013
v -0.631917 0.145000 -0.422233
v -0.631917 0.125000 -0.422233
v -0.831492 0.125000 -0.344415
v -0.831492 0.145000 -0.344415
v -0.702148 0.145000 -0.290839
v -0.702148 0.125000 -0.290839
v -0.882707 0.125000 -0.175581
v -0.882707 0.145000 -0.175581
v -0.745397 0.145000 -0.148269
v -0.745397 0.125000 -0.148269
v -0.894386 0.125000 0.091239
v -0.894386 0.149000 0.091239
v -0.766883 0.125000 0.065877
v -0.766883 0.149000 0.065877
v -0.861220 0.125000 0.257973
v -0.861220 0.149000 0.257973
v -0.733718 0.125000 0.232611
v -0.733718 0.149000 0.232611
v -0.791389 0.125000 0.426560
v -0.791389 0.149000 0.426560
v -0.683298 0.125000 0.354336
v -0.683298 0.149000 0.354336
v -0.696942 0.125000 0.567910
v -0.696942 0.149000 0.567910
v -0.588851 0.125000 0.495686
v -0.588851 0.149000 0.495686
v -0.567910 0.125000 0.696942
v -0.567910 0.149000 0.696942
v -0.495686 0.125000 0.588851
v -0.495686 0.149000 0.588851
v -0.426560 0.125000 0.791389
v -0.426560 0.149000 0.791389
v -0.354336 0.125000 0.683298
v -0.354336 0.149000 0.683298
v -0.257973 0.125000 0.861220
v -0.257973 0.149000 0.861220
v -0.232611 0.125000 0.733718
v -0.232611 0.149000 0.733718
v -0.091239 0.125000 0.894386
v -0.091239 0.149000 0.894386
v -0.065877 0.125000 0.766883
v -0.065877 0.149000 0.766883
v 0.091239 0.125000 0.894386
v 0.091239 0.149000 0.894386
v 0.065877 0.125000 0.766883
v 0.065877 0.149000 0.766883
v 0.257973 0.125000 0.861220
v 0.257973 0.149000 0.861220
v 0.232611 0.125000 0.733718
v 0.232611 0.149000 0.733718
v 0.426560 0.125000 0.791389
v 0.426560 0.149000 0.791389
v 0.354336 0.125000 0.683298
v 0.354336 0.149000 0.683298
v 0.567910 0.125000 0.696942
v 0.567910 0.149000 0.696942
v 0.495686 0.125000 0.588851
v 0.495686 0.149000 0.588851
v 0.696942 0.125000 0.567910
v 0.696942 0.149000 0.567910
v 0.588851 0.125000 0.495686
v 0.588851 0.149000 0.495686
v 0.791389 0.125000 0.426560
v 0.791389 0.149000 0.426560
v 0.683298 0.125000 0.354336
v 0.683298 0.149000 0.354336
v 0.861220 0.125000 0.257973
v 0.861220 0.149000 0.257973
v 0.733718 0.125000 0.232611
v 0.733718 0.149000 0.232611
v 0.894386 0.125000 0.091239
v 0.894386 0.149000 0.091239
v 0.766883 0.125000 0.065877
v 0.766883 0.149000 0.065877
v 0.894386 0.125000 -0.091239
v 0.894386 0.149000 -0.091239
v 0.766883 0.125000 -0.065877
v 0.766883 0.149000 -0.065877
v 0.861220 0.125000 -0.257973
v 0.861220 0.149000 -0.257973
v 0.733718 0.125000 -0.232611
v 0.733718 0.149000 -0.232611
v 0.791389 0.125000 -0.426560
v 0.791389 0.149000 -0.426560
v 0.683298 0.125000 -0.354336
v 0.683298 0.149000 -0.354336
v 0.696942 0.125000 -0.567910
v 0.696942 0.149000 -0.567910
v 0.588851 0.125000 -0.495686
v 0.588851 0.149000 -0.495686
v 0.567910 0.125000 -0.696942
v 0.567910 0.149000 -0.696942
v 0.495686 0.125000 -0.588851
v 0.495686 0.149000 -0.588851
v 0.426560 0.125000 -0.791389
v 0.426560 0.149000 -0.791389
v 0.354336 0.125000 -0.683298
v 0.354336 0.149000 -0.683298
v 0.257973 0.125000 -0.861220
v 0.257973 0.149000 -0.861220
v 0.232611 0.125000 -0.733718
v 0.232611 0.149000 -0.733718
v 0.091239 0.125000 -0.894386
v 0.091239 0.149000 -0.894386
v 0.065877 0.125000 -0.766883
v 0.065877 0.149000 -0.766883
v -0.091239 0.125000 -0.894386
v -0.091239 0.149000 -0.894386
v -0.065877 0.125000 -0.766883
v -0.065877 0.149000 -0.766883
v -0.257973 0.125000 -0.861220
v -0.257973 0.149000 -0.861220
v -0.232611 0.125000 -0.733718
v -0.232611 0.149000 -0.733718
v -0.426560 0.125000 -0.791389
v -0.426560 0.149000 -0.791389
v -0.354336 0.125000 -0.683298
v -0.354336 0.149000 -0.683298
v -0.567910 0.125000 -0.696942
v -0.567910 0.149000 -0.696942
v -0.495686 0.125000 -0.588851
v -0.495686 0.149000 -0.588851
v -0.696942 0.125000 -0.567910
v -0.696942 0.149000 -0.567910
v -0.588851 0.125000 -0.495686
v -0.588851 0.149000 -0.495686
v -0.791389 0.125000 -0.426560
v -0.791389 0.149000 -0.426560
v -0.683298 0.125000 -0.354336
v -0.683298 0.149000 -0.354336
v -0.861220 0.125000 -0.257973
v -0.861220 0.149000 -0.257973
v -0.733718 0.125000 -0.232611
v -0.733718 0.149000 -0.232611
v -0.894386 0.125000 -0.091239
v -0.894386 0.149000 -0.091239
v -0.766883 0.125000 -0.065877
v -0.766883 0.149000 -0.065877
v 0.000000 0.120000 0.420000
v 0.000000 0.160000 0.420000
v -0.108704 0.120000 0.405689
v -0.108704 0.160000 0.405689
v -0.210000 0.120000 0.363731
v -0.210000 0.160000 0.363731
v -0.296985 0.120000 0.296985
v -0.296985 0.160000 0.296985
v -0.363731 0.120000 0.210000
v -0.363731 0.160000 0.210000
v -0.405689 0.120000 0.108704
v -0.405689 0.160000 0.108704
v -0.420000 0.120000 0.000000
v -0.420000 0.160000 0.000000
v -0.405689 0.120000 -0.108704
v -0.405689 0.160000 -0.108704
v -0.363731 0.120000 -0.210000
v -0.363731 0.160000 -0.210000
v -0.296985 0.120000 -0.296985
v -0.296985 0.160000 -0.296985
v -0.210000 0.120000 -0.363731
v -0.210000 0.160000 -0.363731
v -0.108704 0.120000 -0.405689
v -0.108704 0.160000 -0.405689
v 0.000000 0.120000 -0.420000
v 0.000000 0.160000 -0.420000
v 0.108704 0.120000 -0.405689
v 0.108704 0.160000 -0.405689
v 0.210000 0.120000 -0.363731
v 0.210000 0.160000 -0.363731
v 0.296985 0.120000 -0.296985
v 0.296985 0.160000 -0.296985
v 0.363731 0.120000 -0.210000
v 0.363731 0.160000 -0.210000
v 0.405689 0.120000 -0.108704
v 0.405689 0.160000 -0.108704
v 0.420000 0.120000 0.000000
v 0.420000 0.160000 0.000000
v 0.405689 0.120000 0.108704
v 0.405689 0.160000 0.108704
v 0.363731 0.120000 0.210000
v 0.363731 0.160000 0.210000
v 0.296985 0.120000 0.296985
v 0.296985 0.160000 0.296985
v 0.210000 0.120000 0.363731
v 0.210000 0.160000 0.363731
v 0.108704 0.120000 0.405689
v 0.108704 0.160000 0.405689
v -0.300000 0.158000 0.000000
v -0.300000 0.174000 0.000000
v -0.240000 0.174000 0.000000
v -0.240000 0.158000 0.000000
v -0.289778 0.158000 0.077646
v -0.289778 0.174000 0.077646
v -0.231822 0.174000 0.062117
v -0.231822 0.158000 0.062117
v -0.259808 0.158000 0.150000
v -0.259808 0.174000 0.150000
v -0.207846 0.174000 0.120000
v -0.207846 0.158000 0.120000
v -0.212132 0.158000 0.212132
v -0.212132 0.174000 0.212132
v -0.169706 0.174000 0.169706
v -0.169706 0.158000 0.169706
v -0.150000 0.158000 0.259808
v -0.150000 0.174000 0.259808
v -0.120000 0.174000 0.207846
v -0.120000 0.158000 0.207846
v -0.077646 0.158000 0.289778
v -0.077646 0.174000 0.289778
v -0.062117 0.174000 0.231822
v -0.062117 0.158000 0.231822
v -0.000000 0.158000 0.300000
v -0.000000 0.174000 0.300000
v -0.000000 0.174000 0.240000
v -0.000000 0.158000 0.240000
v 0.077646 0.158000 0.289778
v 0.077646 0.174000 0.289778
v 0.062117 0.174000 0.231822
v 0.062117 0.158000 0.231822
v 0.150000 0.158000 0.259808
v 0.150000 0.174000 0.259808
v 0.120000 0.174000 0.207846
v 0.120000 0.158000 0.207846
v 0.212132 0.158000 0.212132
v 0.212132 0.174000 0.212132
v 0.169706 0.174000 0.169706
v 0.169706 0.158000 0.169706
v 0.259808 0.158000 0.150000
v 0.259808 0.174000 0.150000
v 0.207846 0.174000 0.120000
v 0.207846 0.158000 0.120000
v 0.289778 0.158000 0.077646
v 0.289778 0.174000 0.077646
v 0.231822 0.174000 0.062117
v 0.231822 0.158000 0.062117
v 0.300000 0.158000 0.000000
v 0.300000 0.174000 0.000000
v 0.240000 0.174000 0.000000
v 0.240000 0.158000 0.000000
v 0.289778 0.158000 -0.077646
v 0.289778 0.174000 -0.077646
v 0.231822 0.174000 -0.062117
v 0.231822 0.158000 -0.062117
v 0.259808 0.158000 -0.150000
v 0.259808 0.174000 -0.150000
v 0.207846 0.174000 -0.120000
v 0.207846 0.158000 -0.120000
v 0.212132 0.158000 -0.212132
v 0.212132 0.174000 -0.212132
v 0.169706 0.174000 -0.169706
v 0.169706 0.158000 -0.169706
v 0.150000 0.158000 -0.259808
v 0.150000 0.174000 -0.259808
v 0.120000 0.174000 -0.207846
v 0.120000 0.158000 -0.207846
v 0.077646 0.158000 -0.289778
v 0.077646 0.174000 -0.289778
v 0.062117 0.174000 -0.231822
v 0.062117 0.158000 -0.231822
v 0.000000 0.158000 -0.300000
v 0.000000 0.174000 -0.300000
v 0.000000 0.174000 -0.240000
v 0.000000 0.158000 -0.240000
v -0.077646 0.158000 -0.289778
v -0.077646 0.174000 -0.289778
v -0.062117 0.174000 -0.231822
v -0.062117 0.158000 -0.231822
v -0.150000 0.158000 -0.259808
v -0.150000 0.174000 -0.259808
v -0.120000 0.174000 -0.207846
v -0.120000 0.158000 -0.207846
v -0.212132 0.158000 -0.212132
v -0.212132 0.174000 -0.212132
v -0.169706 0.174000 -0.169706
v -0.169706 0.158000 -0.169706
v -0.259808 0.158000 -0.150000
v -0.259808 0.174000 -0.150000
v -0.207846 0.174000 -0.120000
v -0.207846 0.158000 -0.120000
v -0.289778 0.158000 -0.077646
v -0.289778 0.174000 -0.077646
v -0.231822 0.174000 -0.062117
v -0.231822 0.158000 -0.062117
v 0.000000 0.130000 0.620000
v -0.160000 0.130000 0.480000
v -0.070000 0.130000 0.480000
v -0.070000 0.130000 0.360000
v 0.070000 0.130000 0.360000
v 0.070000 0.130000 0.480000
v 0.160000 0.130000 0.480000
v 0.000000 0.150000 0.620000
v -0.160000 0.150000 0.480000
v -0.070000 0.150000 0.480000
v -0.070000 0.150000 0.360000
v 0.070000 0.150000 0.360000
v 0.070000 0.150000 0.480000
v 0.160000 0.150000 0.480000
vn -0.0000 0.6857 0.7279
vn -0.1420 -0.6857 0.7139
vn -0.0000 -0.6857 0.7279
vn -0.1420 0.6857 0.7139
vn -0.2786 -0.6857 0.6725
vn -0.2786 0.6857 0.6725
vn -0.4044 -0.6857 0.6052
vn -0.4044 0.6857 0.6052
vn -0.5147 -0.6857 0.5147
vn -0.5147 0.6857 0.5147
vn -0.6052 -0.6857 0.4044
vn -0.6052 0.6857 0.4044
vn -0.6725 -0.6857 0.2786
vn -0.6725 0.6857 0.2786
vn -0.7139 -0.6857 0.1420
vn -0.7139 0.6857 0.1420
vn -0.7279 -0.6857 -0.0000
vn -0.7279 0.6857 -0.0000
vn -0.7139 -0.6857 -0.1420
vn -0.7139 0.6857 -0.1420
vn -0.6725 -0.6857 -0.2786
vn -0.6725 0.6857 -0.2786
vn -0.6052 -0.6857 -0.4044
vn -0.6052 0.6857 -0.4044
vn -0.5147 -0.6857 -0.5147
vn -0.5147 0.6857 -0.5147
vn -0.4044 -0.6857 -0.6052
vn -0.4044 0.6857 -0.6052
vn -0.2786 -0.6857 -0.6725
vn -0.2786 0.6857 -0.6725
vn -0.1420 -0.6857 -0.7139
vn -0.1420 0.6857 -0.7139
vn -0.0000 -0.6857 -0.7279
vn -0.0000 0.6857 -0.7279
vn 0.1420 -0.6857 -0.7139
vn 0.1420 0.6857 -0.7139
vn 0.2786 -0.6857 -0.6725
vn 0.2786 0.6857 -0.6725
vn 0.4044 -0.6857 -0.6052
vn 0.4044 0.6857 -0.6052
vn 0.5147 -0.6857 -0.5147
vn 0.5147 0.6857 -0.5147
vn 0.6052 -0.6857 -0.4044
vn 0.6052 0.6857 -0.4044
vn 0.6725 -0.6857 -0.2786
vn 0.6725 0.6857 -0.2786
vn 0.7139 -0.6857 -0.1420
vn 0.7139 0.6857 -0.1420
vn 0.7279 -0.6857 -0.0000
vn 0.7279 0.6857 -0.0000
vn 0.7139 -0.6857 0.1420
vn 0.7139 0.6857 0.1420
vn 0.6725 -0.6857 0.2786
vn 0.6725 0.6857 0.2786
vn 0.6052 -0.6857 0.4044
vn 0.6052 0.6857 0.4044
vn 0.5147 -0.6857 0.5147
vn 0.5147 0.6857 0.5147
vn 0.4044 -0.6857 0.6052
vn 0.4044 0.6857 0.6052
vn 0.2786 -0.6857 0.6725
vn -0.0000 1.0000 -0.0000
vn 0.2786 0.6857 0.6725
vn 0.1420 -0.6857 0.7139
vn 0.1420 0.6857 0.7139
vn -0.0000 -1.0000 -0.0000
vn -0.0000 0.9153 0.4027
vn -0.1817 -0.3637 0.9136
vn -0.0000 -0.3637 0.9315
vn -0.1541 0.9153 0.3721
vn -0.3565 -0.3637 0.8606
vn -0.5175 -0.3637 0.7745
vn -0.2237 0.9153 0.3349
vn -0.6587 -0.3637 0.6587
vn -0.2848 0.9153 0.2848
vn -0.7745 -0.3637 0.5175
vn -0.3349 0.9153 0.2237
vn -0.8606 -0.3637 0.3565
vn -0.3721 0.9153 0.1541
vn -0.9136 -0.3637 0.1817
vn -0.3950 0.9153 0.0786
vn -0.9315 -0.3637 -0.0000
vn -0.4027 0.9153 -0.0000
vn -0.9136 -0.3637 -0.1817
vn -0.3721 0.9153 -0.1541
vn -0.8606 -0.3637 -0.3565
vn -0.7745 -0.3637 -0.5175
vn -0.3349 0.9153 -0.2237
vn -0.6587 -0.3637 -0.6587
vn -0.2848 0.9153 -0.2848
vn -0.5175 -0.3637 -0.7745
vn -0.2237 0.9153 -0.3349
vn -0.3565 -0.3637 -0.8606
vn -0.1541 0.9153 -0.3721
vn -0.1817 -0.3637 -0.9136
vn -0.0786 0.9153 -0.3950
vn -0.0000 -0.3637 -0.9315
vn -0.0000 0.9153 -0.4027
vn 0.1817 -0.3637 -0.9136
vn 0.1541 0.9153 -0.3721
vn 0.3565 -0.3637 -0.8606
vn 0.5175 -0.3637 -0.7745
vn 0.2237 0.9153 -0.3349
vn 0.6587 -0.3637 -0.6587
vn 0.2848 0.9153 -0.2848
vn 0.7745 -0.3637 -0.5175
vn 0.3349 0.9153 -0.2237
vn 0.8606 -0.3637 -0.3565
vn 0.3721 0.9153 -0.1541
vn 0.9136 -0.3637 -0.1817
vn 0.3950 0.9153 -0.0786
vn 0.9315 -0.3637 -0.0000
vn 0.4027 0.9153 -0.0000
vn 0.9136 -0.3637 0.1817
vn 0.3721 0.9153 0.1541
vn 0.8606 -0.3637 0.3565
vn 0.7745 -0.3637 0.5175
vn 0.3349 0.9153 0.2237
vn 0.6587 -0.3637 0.6587
vn 0.2848 0.9153 0.2848
vn 0.5175 -0.3637 0.7745
vn 0.2237 0.9153 0.3349
vn 0.3565 -0.3637 0.8606
vn 0.1541 0.9153 0.3721
vn 0.1817 -0.3637 0.9136
vn 0.0786 0.9153 0.3950
vn 0.6705 0.7298 -0.1334
vn 0.6836 0.7298 -0.0000
vn 0.6836 -0.7298 -0.0000
vn 0.6705 -0.7298 -0.1334
vn 0.6316 0.7298 -0.2616
vn 0.6316 -0.7298 -0.2616
vn 0.5684 0.7298 -0.3798
vn 0.5684 -0.7298 -0.3798
vn 0.4834 0.7298 -0.4834
vn 0.4834 -0.7298 -0.4834
vn 0.3798 0.7298 -0.5684
vn 0.3798 -0.7298 -0.5684
vn 0.2616 0.7298 -0.6316
vn 0.1334 0.7298 -0.6705
vn 0.2616 -0.7298 -0.6316
vn -0.0000 0.7298 -0.6836
vn 0.1334 -0.7298 -0.6705
vn -0.0000 -0.7298 -0.6836
vn -0.1334 0.7298 -0.6705
vn -0.1334 -0.7298 -0.6705
vn -0.2616 0.7298 -0.6316
vn -0.2616 -0.7298 -0.6316
vn -0.3798 0.7298 -0.5684
vn -0.3798 -0.7298 -0.5684
vn -0.4834 0.7298 -0.4834
vn -0.4834 -0.7298 -0.4834
vn -0.5684 0.7298 -0.3798
vn -0.5684 -0.7298 -0.3798
vn -0.6316 0.7298 -0.2616
vn -0.6705 0.7298 -0.1334
vn -0.6316 -0.7298 -0.2616
vn -0.6836 0.7298 -0.0000
vn -0.6705 -0.7298 -0.1334
vn -0.6836 -0.7298 -0.0000
vn -0.6705 0.7298 0.1334
vn -0.6705 -0.7298 0.1334
vn -0.6316 0.7298 0.2616
vn -0.6316 -0.7298 0.2616
vn -0.5684 0.7298 0.3798
vn -0.5684 -0.7298 0.3798
vn -0.4834 0.7298 0.4834
vn -0.4834 -0.7298 0.4834
vn -0.3798 0.7298 0.5684
vn -0.3798 -0.7298 0.5684
vn -0.2616 0.7298 0.6316
vn -0.1334 0.7298 0.6705
vn -0.2616 -0.7298 0.6316
vn -0.0000 0.7298 0.6836
vn -0.1334 -0.7298 0.6705
vn -0.0000 -0.7298 0.6836
vn 0.1334 0.7298 0.6705
vn 0.1334 -0.7298 0.6705
vn 0.2616 0.7298 0.6316
vn 0.2616 -0.7298 0.6316
vn 0.3798 0.7298 0.5684
vn 0.3798 -0.7298 0.5684
vn 0.4834 0.7298 0.4834
vn 0.4834 -0.7298 0.4834
vn 0.5684 0.7298 0.3798
vn 0.5684 -0.7298 0.3798
vn 0.6316 0.7298 0.2616
vn 0.6705 0.7298 0.1334
vn 0.6316 -0.7298 0.2616
vn 0.6705 -0.7298 0.1334
vn -0.1951 -0.0000 -0.9808
vn 0.9808 -0.0000 -0.1951
vn 0.1951 -0.0000 0.9808
vn -0.9808 -0.0000 0.1951
vn -0.5556 -0.0000 -0.8315
vn 0.8315 -0.0000 -0.5556
vn 0.5556 -0.0000 0.8315
vn -0.8315 -0.0000 0.5556
vn -0.8315 -0.0000 -0.5556
vn 0.5556 -0.0000 -0.8315
vn 0.8315 -0.0000 0.5556
vn -0.5556 -0.0000 0.8315
vn -0.9808 -0.0000 -0.1951
vn 0.1951 -0.0000 -0.9808
vn 0.9808 -0.0000 0.1951
vn -0.1951 -0.0000 0.9808
vn -0.0000 0.6789 0.7343
vn -0.1900 -0.6789 0.7092
vn -0.0000 -0.6789 0.7343
vn -0.1900 0.6789 0.7092
vn -0.3671 -0.6789 0.6359
vn -0.3671 0.6789 0.6359
vn -0.5192 -0.6789 0.5192
vn -0.5192 0.6789 0.5192
vn -0.6359 -0.6789 0.3671
vn -0.6359 0.6789 0.3671
vn -0.7092 -0.6789 0.1900
vn -0.7092 0.6789 0.1900
vn -0.7343 -0.6789 -0.0000
vn -0.7343 0.6789 -0.0000
vn -0.7092 -0.6789 -0.1900
vn -0.7092 0.6789 -0.1900
vn -0.6359 -0.6789 -0.3671
vn -0.6359 0.6789 -0.3671
vn -0.5192 -0.6789 -0.5192
vn -0.5192 0.6789 -0.5192
vn -0.3671 -0.6789 -0.6359
vn -0.3671 0.6789 -0.6359
vn -0.1900 -0.6789 -0.7092
vn -0.1900 0.6789 -0.7092
vn -0.0000 -0.6789 -0.7343
vn -0.0000 0.6789 -0.7343
vn 0.1900 -0.6789 -0.7092
vn 0.1900 0.6789 -0.7092
vn 0.3671 -0.6789 -0.6359
vn 0.3671 0.6789 -0.6359
vn 0.5192 -0.6789 -0.5192
vn 0.5192 0.6789 -0.5192
vn 0.6359 -0.6789 -0.3671
vn 0.6359 0.6789 -0.3671
vn 0.7092 -0.6789 -0.1900
vn 0.7092 0.6789 -0.1900
vn 0.7343 -0.6789 -0.0000
vn 0.7343 0.6789 -0.0000
vn 0.7092 -0.6789 0.1900
vn 0.7092 0.6789 0.1900
vn 0.6359 -0.6789 0.3671
vn 0.6359 0.6789 0.3671
vn 0.5192 -0.6789 0.5192
vn 0.5192 0.6789 0.5192
vn 0.3671 -0.6789 0.6359
vn 0.3671 0.6789 0.6359
vn 0.1900 -0.6789 0.7092
vn 0.1900 0.6789 0.7092
vn 0.6751 0.7377 -0.0000
vn 0.6521 0.7377 -0.1747
vn 0.6751 -0.7377 -0.0000
vn 0.5847 0.7377 -0.3376
vn 0.6521 -0.7377 -0.1747
vn 0.4774 0.7377 -0.4774
vn 0.5847 -0.7377 -0.3376
vn 0.4774 -0.7377 -0.4774
vn 0.3376 0.7377 -0.5847
vn 0.3376 -0.7377 -0.5847
vn 0.1747 0.7377 -0.6521
vn 0.1747 -0.7377 -0.6521
vn -0.0000 0.7377 -0.6751
vn -0.0000 -0.7377 -0.6751
vn -0.1747 0.7377 -0.6521
vn -0.3376 0.7377 -0.5847
vn -0.1747 -0.7377 -0.6521
vn -0.4774 0.7377 -0.4774
vn -0.3376 -0.7377 -0.5847
vn -0.4774 -0.7377 -0.4774
vn -0.5847 0.7377 -0.3376
vn -0.5847 -0.7377 -0.3376
vn -0.6521 0.7377 -0.1747
vn -0.6521 -0.7377 -0.1747
vn -0.6751 0.7377 -0.0000
vn -0.6751 -0.7377 -0.0000
vn -0.6521 0.7377 0.1747
vn -0.5847 0.7377 0.3376
vn -0.6521 -0.7377 0.1747
vn -0.4774 0.7377 0.4774
vn -0.5847 -0.7377 0.3376
vn -0.4774 -0.7377 0.4774
vn -0.3376 0.7377 0.5847
vn -0.3376 -0.7377 0.5847
vn -0.1747 0.7377 0.6521
vn -0.1747 -0.7377 0.6521
vn -0.0000 0.7377 0.6751
vn -0.0000 -0.7377 0.6751
vn 0.1747 0.7377 0.6521
vn 0.3376 0.7377 0.5847
vn 0.1747 -0.7377 0.6521
vn 0.4774 0.7377 0.4774
vn 0.3376 -0.7377 0.5847
vn 0.4774 -0.7377 0.4774
vn 0.5847 0.7377 0.3376
vn 0.5847 -0.7377 0.3376
vn 0.6521 0.7377 0.1747
vn 0.6521 -0.7377 0.1747
vn -0.6585 -0.0000 0.7526
vn -0.0000 -0.0000 -1.0000
vn -1.0000 -0.0000 -0.0000
vn 1.0000 -0.0000 -0.0000
vn 0.6585 -0.0000 0.7526
vn -0.0786 0.9153 0.3950
vn -0.3950 0.9153 -0.0786
vn 0.0786 0.9153 -0.3950
vn 0.3950 0.9153 0.0786
vt 0.00000 0.15307
vt 0.00000 0.18652
vt 0.00000 0.50026
vt 0.00000 0.53370
vt 0.00000 0.83213
vt 0.00000 0.86223
vt 0.00587 0.80261
vt 0.00587 0.89176
vt 0.00653 0.12027
vt 0.00653 0.21933
vt 0.00653 0.46745
vt 0.00653 0.56651
vt 0.01739 0.77479
vt 0.01739 0.91957
vt 0.01932 0.08937
vt 0.01932 0.25023
vt 0.01932 0.43655
vt 0.01932 0.59741
vt 0.02377 0.83447
vt 0.02377 0.85989
vt 0.02873 0.80954
vt 0.02873 0.88482
vt 0.03412 0.74976
vt 0.03412 0.94460
vt 0.03791 0.06156
vt 0.03791 0.27804
vt 0.03791 0.40874
vt 0.03791 0.62522
vt 0.03846 0.78605
vt 0.03846 0.90831
vt 0.05258 0.76492
vt 0.05258 0.92944
vt 0.05540 0.72848
vt 0.05540 0.96588
vt 0.06156 0.03791
vt 0.06156 0.30169
vt 0.06156 0.38509
vt 0.06156 0.64887
vt 0.07056 0.74694
vt 0.07056 0.94742
vt 0.08043 0.71175
vt 0.08043 0.98261
vt 0.08937 0.01932
vt 0.08937 0.32027
vt 0.08937 0.36651
vt 0.08937 0.66745
vt 0.09169 0.73282
vt 0.09169 0.96154
vt 0.10824 0.70023
vt 0.10824 0.99413
vt 0.11518 0.72309
vt 0.11518 0.97127
vt 0.12027 0.00653
vt 0.12027 0.33307
vt 0.12027 0.35371
vt 0.12027 0.68025
vt 0.13777 0.69436
vt 0.13777 1.00000
vt 0.14011 0.71813
vt 0.14011 0.97623
vt 0.15307 0.00000
vt 0.15307 0.33960
vt 0.15307 0.34718
vt 0.15307 0.68678
vt 0.16553 0.71813
vt 0.16553 0.97623
vt 0.16787 0.69436
vt 0.16787 1.00000
vt 0.18652 0.00000
vt 0.18652 0.33960
vt 0.18652 0.34718
vt 0.18652 0.68678
vt 0.19046 0.72309
vt 0.19046 0.97127
vt 0.19739 0.70023
vt 0.19739 0.99413
vt 0.21395 0.73282
vt 0.21395 0.96154
vt 0.21933 0.00653
vt 0.21933 0.33307
vt 0.21933 0.35371
vt 0.21933 0.68025
vt 0.22521 0.71175
vt 0.22521 0.98261
vt 0.23508 0.74694
vt 0.23508 0.94742
vt 0.25023 0.01932
vt 0.25023 0.32027
vt 0.25023 0.36651
vt 0.25023 0.66745
vt 0.25024 0.72848
vt 0.25024 0.96588
vt 0.25306 0.76492
vt 0.25306 0.92944
vt 0.26718 0.78605
vt 0.26718 0.90831
vt 0.27152 0.74976
vt 0.27152 0.94460
vt 0.27691 0.80954
vt 0.27691 0.88482
vt 0.27804 0.03791
vt 0.27804 0.30169
vt 0.27804 0.38509
vt 0.27804 0.64887
vt 0.28187 0.83447
vt 0.28187 0.85989
vt 0.28825 0.77479
vt 0.28825 0.91957
vt 0.29977 0.80261
vt 0.29977 0.89176
vt 0.30169 0.06156
vt 0.30169 0.27804
vt 0.30169 0.40874
vt 0.30169 0.62522
vt 0.30564 0.83213
vt 0.30564 0.86223
vt 0.31322 0.75606
vt 0.31322 0.77476
vt 0.31322 0.84404
vt 0.31322 0.87304
vt 0.31322 0.88063
vt 0.31322 0.90137
vt 0.31732 0.88063
vt 0.31732 0.90137
vt 0.31806 0.73799
vt 0.31806 0.79283
vt 0.32027 0.08937
vt 0.32027 0.25023
vt 0.32027 0.43655
vt 0.32027 0.59741
vt 0.32490 0.88063
vt 0.32490 0.90115
vt 0.32742 0.72179
vt 0.32742 0.80903
vt 0.32899 0.88063
vt 0.32899 0.90115
vt 0.33307 0.12027
vt 0.33307 0.21933
vt 0.33307 0.46745
vt 0.33307 0.56651
vt 0.33540 0.84404
vt 0.33540 0.87304
vt 0.33658 0.88063
vt 0.33658 0.90115
vt 0.33960 0.15307
vt 0.33960 0.18652
vt 0.33960 0.50026
vt 0.33960 0.53370
vt 0.34064 0.70856
vt 0.34064 0.82226
vt 0.34067 0.88063
vt 0.34067 0.90115
vt 0.34298 0.84404
vt 0.34298 0.87304
vt 0.34718 0.15307
vt 0.34718 0.18652
vt 0.34718 0.50026
vt 0.34718 0.53370
vt 0.34825 0.88063
vt 0.34825 0.90109
vt 0.35228 0.15358
vt 0.35228 0.18602
vt 0.35235 0.88063
vt 0.35235 0.90109
vt 0.35371 0.12027
vt 0.35371 0.21933
vt 0.35371 0.46745
vt 0.35371 0.56651
vt 0.35685 0.69920
vt 0.35685 0.83161
vt 0.35860 0.12176
vt 0.35860 0.21784
vt 0.35993 0.88063
vt 0.35993 0.90109
vt 0.36402 0.88063
vt 0.36402 0.90109
vt 0.36517 0.84404
vt 0.36517 0.87304
vt 0.36651 0.08937
vt 0.36651 0.25023
vt 0.36651 0.43655
vt 0.36651 0.59741
vt 0.37102 0.09178
vt 0.37102 0.24782
vt 0.37275 0.84404
vt 0.37275 0.87304
vt 0.37275 0.88063
vt 0.37275 0.90092
vt 0.37491 0.69436
vt 0.37491 0.83646
vt 0.37616 0.88063
vt 0.37616 0.90092
vt 0.38374 0.88063
vt 0.38374 0.90085
vt 0.38509 0.06156
vt 0.38509 0.27804
vt 0.38509 0.40874
vt 0.38509 0.62522
vt 0.38784 0.88063
vt 0.38784 0.90085
vt 0.38904 0.06481
vt 0.38904 0.27479
vt 0.39362 0.69436
vt 0.39362 0.83646
vt 0.39493 0.84404
vt 0.39493 0.87304
vt 0.39542 0.88063
vt 0.39542 0.90085
vt 0.39951 0.88063
vt 0.39951 0.90085
vt 0.40251 0.84404
vt 0.40251 0.87304
vt 0.40710 0.88063
vt 0.40710 0.90055
vt 0.40874 0.03791
vt 0.40874 0.30169
vt 0.40874 0.38509
vt 0.40874 0.64887
vt 0.41119 0.88063
vt 0.41119 0.90055
vt 0.41169 0.69920
vt 0.41169 0.83161
vt 0.41199 0.04186
vt 0.41199 0.29773
vt 0.41877 0.88063
vt 0.41877 0.90055
vt 0.42287 0.88063
vt 0.42287 0.90055
vt 0.42469 0.84404
vt 0.42469 0.87304
vt 0.42789 0.70856
vt 0.42789 0.82226
vt 0.43045 0.88063
vt 0.43045 0.90051
vt 0.43227 0.84404
vt 0.43227 0.87304
vt 0.43455 0.88063
vt 0.43455 0.90051
vt 0.43655 0.01932
vt 0.43655 0.32027
vt 0.43655 0.36651
vt 0.43655 0.66745
vt 0.43896 0.02384
vt 0.43896 0.31576
vt 0.44112 0.72179
vt 0.44112 0.80903
vt 0.44213 0.88063
vt 0.44213 0.90051
vt 0.44622 0.88063
vt 0.44622 0.90051
vt 0.45047 0.73799
vt 0.45047 0.79283
vt 0.45445 0.84404
vt 0.45445 0.87304
vt 0.45532 0.75606
vt 0.45532 0.77476
vt 0.46290 0.75606
vt 0.46290 0.77476
vt 0.46290 0.84404
vt 0.46290 0.87304
vt 0.46290 0.88063
vt 0.46290 0.90040
vt 0.46631 0.88063
vt 0.46631 0.90040
vt 0.46745 0.00653
vt 0.46745 0.33307
vt 0.46745 0.35371
vt 0.46745 0.68025
vt 0.46774 0.73799
vt 0.46774 0.79283
vt 0.46894 0.01142
vt 0.46894 0.32817
vt 0.47389 0.88063
vt 0.47389 0.89725
vt 0.47709 0.72179
vt 0.47709 0.80903
vt 0.47799 0.88063
vt 0.47799 0.89725
vt 0.48508 0.84404
vt 0.48508 0.87304
vt 0.49032 0.70856
vt 0.49032 0.82226
vt 0.49266 0.84404
vt 0.49266 0.87304
vt 0.49266 0.88063
vt 0.49266 0.89725
vt 0.49676 0.88063
vt 0.49676 0.89725
vt 0.50026 0.00000
vt 0.50026 0.33960
vt 0.50026 0.34718
vt 0.50026 0.68678
vt 0.50076 0.00509
vt 0.50076 0.33450
vt 0.50434 0.88063
vt 0.50434 0.89568
vt 0.50652 0.69920
vt 0.50652 0.83161
vt 0.50775 0.88063
vt 0.50775 0.89568
vt 0.51484 0.84404
vt 0.51484 0.87304
vt 0.51533 0.88063
vt 0.51533 0.89568
vt 0.51875 0.88063
vt 0.51875 0.89568
vt 0.52243 0.84404
vt 0.52243 0.87304
vt 0.52459 0.69436
vt 0.52459 0.83646
vt 0.53320 0.00509
vt 0.53320 0.33450
vt 0.53370 0.00000
vt 0.53370 0.33960
vt 0.53370 0.34718
vt 0.53370 0.68678
vt 0.54330 0.69436
vt 0.54330 0.83646
vt 0.54461 0.84404
vt 0.54461 0.87304
vt 0.55219 0.84404
vt 0.55219 0.87304
vt 0.56137 0.69920
vt 0.56137 0.83161
vt 0.56502 0.01142
vt 0.56502 0.32817
vt 0.56651 0.00653
vt 0.56651 0.33307
vt 0.56651 0.35371
vt 0.56651 0.68025
vt 0.57437 0.84404
vt 0.57437 0.87304
vt 0.57757 0.70856
vt 0.57757 0.82226
vt 0.58195 0.84404
vt 0.58195 0.87304
vt 0.59080 0.72179
vt 0.59080 0.80903
vt 0.59500 0.02384
vt 0.59500 0.31576
vt 0.59741 0.01932
vt 0.59741 0.32027
vt 0.59741 0.36651
vt 0.59741 0.66745
vt 0.60015 0.73799
vt 0.60015 0.79283
vt 0.60413 0.84404
vt 0.60413 0.87304
vt 0.60499 0.75606
vt 0.60499 0.77476
vt 0.61258 0.69436
vt 0.61258 0.70497
vt 0.61258 0.71732
vt 0.61258 0.73057
vt 0.61258 0.74381
vt 0.61258 0.75615
vt 0.61258 0.76675
vt 0.61531 0.69436
vt 0.61531 0.70497
vt 0.61531 0.71732
vt 0.61531 0.73057
vt 0.61531 0.74381
vt 0.61531 0.75615
vt 0.61531 0.76675
vt 0.62092 0.83032
vt 0.62092 0.84369
vt 0.62197 0.04186
vt 0.62197 0.29773
vt 0.62289 0.69436
vt 0.62289 0.70467
vt 0.62289 0.71683
vt 0.62289 0.73001
vt 0.62289 0.74331
vt 0.62289 0.75583
vt 0.62289 0.76671
vt 0.62438 0.81742
vt 0.62438 0.85659
vt 0.62522 0.03791
vt 0.62522 0.30169
vt 0.62522 0.38509
vt 0.62522 0.64887
vt 0.62562 0.69436
vt 0.62562 0.70467
vt 0.62562 0.71683
vt 0.62562 0.73001
vt 0.62562 0.74331
vt 0.62562 0.75583
vt 0.62562 0.76671
vt 0.63106 0.80585
vt 0.63106 0.86817
vt 0.63107 0.83166
vt 0.63107 0.84235
vt 0.63320 0.69436
vt 0.63320 0.70444
vt 0.63320 0.71645
vt 0.63320 0.72957
vt 0.63320 0.74289
vt 0.63320 0.75553
vt 0.63320 0.76661
vt 0.63384 0.82134
vt 0.63384 0.85268
vt 0.63593 0.69436
vt 0.63593 0.70444
vt 0.63593 0.71645
vt 0.63593 0.72957
vt 0.63593 0.74289
vt 0.63593 0.75553
vt 0.63593 0.76661
vt 0.63918 0.81208
vt 0.63918 0.86193
vt 0.64051 0.79640
vt 0.64051 0.87761
vt 0.64351 0.69436
vt 0.64351 0.70384
vt 0.64351 0.71544
vt 0.64351 0.72836
vt 0.64351 0.74172
vt 0.64351 0.75461
vt 0.64351 0.76616
vt 0.64492 0.06481
vt 0.64492 0.27479
vt 0.64624 0.69436
vt 0.64624 0.70384
vt 0.64624 0.71544
vt 0.64624 0.72836
vt 0.64624 0.74172
vt 0.64624 0.75461
vt 0.64624 0.76616
vt 0.64674 0.80452
vt 0.64674 0.86949
vt 0.64887 0.06156
vt 0.64887 0.27804
vt 0.64887 0.40874
vt 0.64887 0.62522
vt 0.65208 0.78971
vt 0.65208 0.88430
vt 0.65383 0.69436
vt 0.65383 0.70284
vt 0.65383 0.71271
vt 0.65383 0.72331
vt 0.65383 0.73391
vt 0.65383 0.74379
vt 0.65383 0.75227
vt 0.65383 0.75985
vt 0.65383 0.77654
vt 0.65600 0.79917
vt 0.65600 0.87484
vt 0.65656 0.69436
vt 0.65656 0.70284
vt 0.65656 0.71271
vt 0.65656 0.72331
vt 0.65656 0.73391
vt 0.65656 0.74379
vt 0.65656 0.75227
vt 0.65792 0.75985
vt 0.65792 0.77654
vt 0.66294 0.09178
vt 0.66294 0.24782
vt 0.66414 0.69436
vt 0.66414 0.70306
vt 0.66414 0.71308
vt 0.66414 0.72372
vt 0.66414 0.73426
vt 0.66414 0.74399
vt 0.66414 0.75224
vt 0.66499 0.78626
vt 0.66499 0.88775
vt 0.66632 0.79641
vt 0.66632 0.87760
vt 0.66687 0.69436
vt 0.66687 0.70306
vt 0.66687 0.71308
vt 0.66687 0.72372
vt 0.66687 0.73426
vt 0.66687 0.74399
vt 0.66687 0.75224
vt 0.66745 0.08937
vt 0.66745 0.25023
vt 0.66745 0.43655
vt 0.66745 0.59741
vt 0.67445 0.69436
vt 0.67445 0.70323
vt 0.67445 0.71334
vt 0.67445 0.72400
vt 0.67445 0.73449
vt 0.67445 0.74410
vt 0.67445 0.75216
vt 0.67445 0.75975
vt 0.67445 0.77643
vt 0.67536 0.12176
vt 0.67536 0.21784
vt 0.67702 0.79641
vt 0.67702 0.87760
vt 0.67718 0.69436
vt 0.67718 0.70323
vt 0.67718 0.71334
vt 0.67718 0.72400
vt 0.67718 0.73449
vt 0.67718 0.74410
vt 0.67718 0.75216
vt 0.67835 0.78626
vt 0.67835 0.88775
vt 0.67855 0.75975
vt 0.67855 0.77643
vt 0.68025 0.12027
vt 0.68025 0.21933
vt 0.68025 0.46745
vt 0.68025 0.56651
vt 0.68168 0.15358
vt 0.68168 0.18602
vt 0.68678 0.15307
vt 0.68678 0.18652
vt 0.68678 0.50026
vt 0.68678 0.53370
vt 0.68734 0.79917
vt 0.68734 0.87484
vt 0.69126 0.78971
vt 0.69126 0.88430
vt 0.69368 0.75297
vt 0.69368 0.77516
vt 0.69436 0.13777
vt 0.69436 0.16787
vt 0.69436 0.31322
vt 0.69436 0.33916
vt 0.69436 0.36872
vt 0.69436 0.40076
vt 0.69436 0.43406
vt 0.69436 0.46734
vt 0.69436 0.49930
vt 0.69436 0.52874
vt 0.69436 0.55451
vt 0.69436 0.56210
vt 0.69436 0.58124
vt 0.69436 0.60328
vt 0.69436 0.62737
vt 0.69436 0.65258
vt 0.69436 0.67794
vt 0.69436 0.70248
vt 0.69436 0.72526
vt 0.69436 0.74539
vt 0.69660 0.80452
vt 0.69660 0.86949
vt 0.69777 0.56210
vt 0.69777 0.58124
vt 0.69777 0.60328
vt 0.69777 0.62737
vt 0.69777 0.65258
vt 0.69777 0.67794
vt 0.69777 0.70248
vt 0.69777 0.72526
vt 0.69777 0.74539
vt 0.69777 0.75297
vt 0.69777 0.77516
vt 0.70023 0.10824
vt 0.70023 0.19739
vt 0.70283 0.79640
vt 0.70283 0.87761
vt 0.70416 0.81208
vt 0.70416 0.86193
vt 0.70536 0.56210
vt 0.70536 0.58271
vt 0.70536 0.60582
vt 0.70536 0.63056
vt 0.70536 0.65596
vt 0.70536 0.68106
vt 0.70536 0.70488
vt 0.70536 0.72651
vt 0.70536 0.74513
vt 0.70536 0.75271
vt 0.70536 0.77612
vt 0.70877 0.56210
vt 0.70877 0.58271
vt 0.70877 0.60582
vt 0.70877 0.63056
vt 0.70877 0.65596
vt 0.70877 0.68106
vt 0.70877 0.70488
vt 0.70877 0.72651
vt 0.70877 0.74513
vt 0.70877 0.75271
vt 0.70877 0.77612
vt 0.70950 0.82134
vt 0.70950 0.85268
vt 0.71142 0.31322
vt 0.71142 0.33916
vt 0.71142 0.36872
vt 0.71142 0.40076
vt 0.71142 0.43406
vt 0.71142 0.46734
vt 0.71142 0.49930
vt 0.71142 0.52874
vt 0.71142 0.55451
vt 0.71175 0.08043
vt 0.71175 0.22521
vt 0.71227 0.83166
vt 0.71227 0.84235
vt 0.71228 0.80585
vt 0.71228 0.86817
vt 0.71813 0.14011
vt 0.71813 0.16553
vt 0.71896 0.81742
vt 0.71896 0.85659
vt 0.71901 0.31322
vt 0.71901 0.33971
vt 0.71901 0.36968
vt 0.71901 0.40197
vt 0.71901 0.43534
vt 0.71901 0.46852
vt 0.71901 0.50021
vt 0.71901 0.52921
vt 0.71901 0.55440
vt 0.71901 0.56198
vt 0.71901 0.58646
vt 0.71901 0.61389
vt 0.71901 0.64321
vt 0.71901 0.67330
vt 0.71901 0.70300
vt 0.71901 0.73116
vt 0.71901 0.75672
vt 0.71901 0.77868
vt 0.72242 0.56198
vt 0.72242 0.58646
vt 0.72242 0.61389
vt 0.72242 0.64321
vt 0.72242 0.67330
vt 0.72242 0.70300
vt 0.72242 0.73116
vt 0.72242 0.75672
vt 0.72242 0.77868
vt 0.72242 0.83032
vt 0.72242 0.84369
vt 0.72309 0.11518
vt 0.72309 0.19046
vt 0.72848 0.05540
vt 0.72848 0.25024
vt 0.73000 0.56198
vt 0.73000 0.58157
vt 0.73000 0.60394
vt 0.73000 0.62824
vt 0.73000 0.65353
vt 0.73000 0.67883
vt 0.73000 0.70319
vt 0.73000 0.72565
vt 0.73000 0.74537
vt 0.73000 0.75295
vt 0.73000 0.77513
vt 0.73046 0.80429
vt 0.73046 0.83691
vt 0.73046 0.86592
vt 0.73046 0.87350
vt 0.73046 0.89532
vt 0.73282 0.09169
vt 0.73282 0.21395
vt 0.73341 0.56198
vt 0.73341 0.58157
vt 0.73341 0.60394
vt 0.73341 0.62824
vt 0.73341 0.65353
vt 0.73341 0.67883
vt 0.73341 0.70319
vt 0.73341 0.72565
vt 0.73341 0.74537
vt 0.73410 0.75295
vt 0.73410 0.77513
vt 0.73455 0.87350
vt 0.73455 0.89532
vt 0.73575 0.82933
vt 0.73607 0.31322
vt 0.73607 0.33971
vt 0.73607 0.36968
vt 0.73607 0.40197
vt 0.73607 0.43534
vt 0.73607 0.46852
vt 0.73607 0.50021
vt 0.73607 0.52921
vt 0.73607 0.55440
vt 0.74213 0.87350
vt 0.74213 0.89524
vt 0.74365 0.31322
vt 0.74365 0.33771
vt 0.74365 0.36618
vt 0.74365 0.39752
vt 0.74365 0.43054
vt 0.74365 0.46397
vt 0.74365 0.49651
vt 0.74365 0.52693
vt 0.74365 0.55405
vt 0.74365 0.56163
vt 0.74365 0.58548
vt 0.74365 0.61245
vt 0.74365 0.64151
vt 0.74365 0.67155
vt 0.74365 0.70140
vt 0.74365 0.72992
vt 0.74365 0.75602
vt 0.74365 0.77870
vt 0.74587 0.81778
vt 0.74619 0.78632
vt 0.74623 0.87350
vt 0.74623 0.89524
vt 0.74694 0.07056
vt 0.74694 0.23508
vt 0.74706 0.56163
vt 0.74706 0.58548
vt 0.74706 0.61245
vt 0.74706 0.64151
vt 0.74706 0.67155
vt 0.74706 0.70140
vt 0.74706 0.72992
vt 0.74706 0.75602
vt 0.74706 0.77870
vt 0.74976 0.03412
vt 0.74976 0.27152
vt 0.75264 0.83691
vt 0.75264 0.86592
vt 0.75465 0.56163
vt 0.75465 0.58368
vt 0.75465 0.60930
vt 0.75465 0.63751
vt 0.75465 0.66722
vt 0.75465 0.69731
vt 0.75465 0.72660
vt 0.75465 0.75397
vt 0.75465 0.77838
vt 0.75806 0.56163
vt 0.75806 0.58368
vt 0.75806 0.60930
vt 0.75806 0.63751
vt 0.75806 0.66722
vt 0.75806 0.69731
vt 0.75806 0.72660
vt 0.75806 0.75397
vt 0.75806 0.77838
vt 0.76022 0.83691
vt 0.76022 0.86592
vt 0.76022 0.87350
vt 0.76022 0.89532
vt 0.76071 0.31322
vt 0.76071 0.33771
vt 0.76071 0.36618
vt 0.76071 0.39752
vt 0.76071 0.43054
vt 0.76071 0.46397
vt 0.76071 0.49651
vt 0.76071 0.52693
vt 0.76071 0.55405
vt 0.76160 0.79980
vt 0.76431 0.87350
vt 0.76431 0.89532
vt 0.76432 0.83691
vt 0.76432 0.86592
vt 0.76492 0.05258
vt 0.76492 0.25306
vt 0.76829 0.31322
vt 0.76829 0.34042
vt 0.76829 0.37090
vt 0.76829 0.40347
vt 0.76829 0.43690
vt 0.76829 0.46990
vt 0.76829 0.50120
vt 0.76829 0.52959
vt 0.76829 0.55399
vt 0.76829 0.56157
vt 0.76829 0.58491
vt 0.76829 0.61152
vt 0.76829 0.64036
vt 0.76829 0.67033
vt 0.76829 0.70027
vt 0.76829 0.72905
vt 0.76829 0.75554
vt 0.76829 0.77873
vt 0.77171 0.56157
vt 0.77171 0.58491
vt 0.77171 0.61152
vt 0.77171 0.64036
vt 0.77171 0.67033
vt 0.77171 0.70027
vt 0.77171 0.72905
vt 0.77171 0.75554
vt 0.77171 0.77873
vt 0.77171 0.78824
vt 0.77171 0.82452
vt 0.77479 0.01739
vt 0.77479 0.28825
vt 0.77929 0.56157
vt 0.77929 0.58011
vt 0.77929 0.60169
vt 0.77929 0.62548
vt 0.77929 0.65055
vt 0.77929 0.67596
vt 0.77929 0.70072
vt 0.77929 0.72388
vt 0.77929 0.74455
vt 0.77929 0.79620
vt 0.77929 0.80957
vt 0.77929 0.86122
vt 0.77929 0.89022
vt 0.78270 0.56157
vt 0.78270 0.58011
vt 0.78270 0.60169
vt 0.78270 0.62548
vt 0.78270 0.65055
vt 0.78270 0.67596
vt 0.78270 0.70072
vt 0.78270 0.72388
vt 0.78270 0.74455
vt 0.78275 0.78330
vt 0.78275 0.82247
vt 0.78536 0.31322
vt 0.78536 0.34042
vt 0.78536 0.37090
vt 0.78536 0.40347
vt 0.78536 0.43690
vt 0.78536 0.46990
vt 0.78536 0.50120
vt 0.78536 0.52959
vt 0.78536 0.55399
vt 0.78605 0.03846
vt 0.78605 0.26718
vt 0.78943 0.77172
vt 0.78943 0.83405
vt 0.78944 0.79754
vt 0.78944 0.80823
vt 0.79029 0.56157
vt 0.79029 0.57642
vt 0.79029 0.59371
vt 0.79029 0.61226
vt 0.79029 0.63080
vt 0.79029 0.64808
vt 0.79029 0.66291
vt 0.79029 0.67050
vt 0.79029 0.67974
vt 0.79029 0.69005
vt 0.79029 0.70074
vt 0.79029 0.71108
vt 0.79029 0.72035
vt 0.79029 0.72794
vt 0.79221 0.78721
vt 0.79221 0.81856
vt 0.79294 0.31322
vt 0.79294 0.32766
vt 0.79294 0.34468
vt 0.79294 0.36313
vt 0.79294 0.38175
vt 0.79294 0.39927
vt 0.79294 0.41450
vt 0.79294 0.42209
vt 0.79294 0.43620
vt 0.79294 0.45301
vt 0.79294 0.47137
vt 0.79294 0.49003
vt 0.79294 0.50772
vt 0.79294 0.52324
vt 0.79294 0.53082
vt 0.79294 0.55299
vt 0.79302 0.67050
vt 0.79302 0.67974
vt 0.79302 0.69005
vt 0.79302 0.70074
vt 0.79302 0.71108
vt 0.79302 0.72035
vt 0.79302 0.72794
vt 0.79704 0.53082
vt 0.79704 0.55299
vt 0.79711 0.56157
vt 0.79711 0.57642
vt 0.79711 0.59371
vt 0.79711 0.61226
vt 0.79711 0.63080
vt 0.79711 0.64808
vt 0.79711 0.66291
vt 0.79755 0.77796
vt 0.79755 0.82781
vt 0.79888 0.76228
vt 0.79888 0.84349
vt 0.79976 0.31322
vt 0.79976 0.32766
vt 0.79976 0.34468
vt 0.79976 0.36313
vt 0.79976 0.38175
vt 0.79976 0.39927
vt 0.79976 0.41450
vt 0.79976 0.42209
vt 0.79976 0.43620
vt 0.79976 0.45301
vt 0.79976 0.47137
vt 0.79976 0.49003
vt 0.79976 0.50772
vt 0.79976 0.52324
vt 0.80060 0.68847
vt 0.80060 0.72110
vt 0.80060 0.74326
vt 0.80147 0.86122
vt 0.80147 0.89022
vt 0.80261 0.00587
vt 0.80261 0.29977
vt 0.80462 0.53082
vt 0.80462 0.55296
vt 0.80469 0.56157
vt 0.80469 0.57485
vt 0.80469 0.59108
vt 0.80469 0.60916
vt 0.80469 0.62787
vt 0.80469 0.64592
vt 0.80469 0.66209
vt 0.80469 0.72110
vt 0.80469 0.74326
vt 0.80511 0.77040
vt 0.80511 0.83537
vt 0.80589 0.71351
vt 0.80735 0.31322
vt 0.80735 0.33381
vt 0.80735 0.34943
vt 0.80735 0.35702
vt 0.80735 0.37761
vt 0.80735 0.39323
vt 0.80735 0.40081
vt 0.80735 0.41656
vt 0.80735 0.43699
vt 0.80735 0.44457
vt 0.80735 0.46031
vt 0.80735 0.48074
vt 0.80735 0.48899
vt 0.80735 0.52142
vt 0.80871 0.53082
vt 0.80871 0.55296
vt 0.80905 0.86122
vt 0.80905 0.89022
vt 0.80954 0.02873
vt 0.80954 0.27691
vt 0.81045 0.75560
vt 0.81045 0.85018
vt 0.81144 0.31322
vt 0.81144 0.33381
vt 0.81144 0.34943
vt 0.81144 0.35702
vt 0.81144 0.37761
vt 0.81144 0.39323
vt 0.81144 0.40081
vt 0.81144 0.41656
vt 0.81144 0.43699
vt 0.81144 0.44457
vt 0.81144 0.46031
vt 0.81144 0.48074
vt 0.81152 0.56157
vt 0.81152 0.57485
vt 0.81152 0.59108
vt 0.81152 0.60916
vt 0.81152 0.62787
vt 0.81152 0.64592
vt 0.81152 0.66209
vt 0.81227 0.72110
vt 0.81227 0.74323
vt 0.81247 0.48833
vt 0.81247 0.52176
vt 0.81437 0.76505
vt 0.81437 0.84072
vt 0.81601 0.70196
vt 0.81633 0.67050
vt 0.81637 0.72110
vt 0.81637 0.74323
vt 0.81902 0.31354
vt 0.81902 0.34596
vt 0.81902 0.35786
vt 0.81902 0.39023
vt 0.81902 0.39895
vt 0.81902 0.43125
vt 0.81902 0.44457
vt 0.81902 0.47654
vt 0.81910 0.56157
vt 0.81910 0.59172
vt 0.81910 0.59930
vt 0.81910 0.62831
vt 0.81910 0.63589
vt 0.81910 0.66273
vt 0.82005 0.48833
vt 0.82005 0.51733
vt 0.82005 0.52491
vt 0.82005 0.55392
vt 0.82244 0.44457
vt 0.82244 0.47654
vt 0.82251 0.56157
vt 0.82251 0.59172
vt 0.82320 0.63589
vt 0.82320 0.66273
vt 0.82336 0.75214
vt 0.82336 0.85363
vt 0.82395 0.72110
vt 0.82395 0.74323
vt 0.82414 0.31322
vt 0.82414 0.34665
vt 0.82414 0.35702
vt 0.82414 0.39039
vt 0.82414 0.39797
vt 0.82414 0.43127
vt 0.82469 0.76229
vt 0.82469 0.84348
vt 0.82805 0.72110
vt 0.82805 0.74323
vt 0.83002 0.44457
vt 0.83002 0.47357
vt 0.83010 0.56157
vt 0.83010 0.59058
vt 0.83078 0.63589
vt 0.83078 0.66273
vt 0.83123 0.86122
vt 0.83123 0.89022
vt 0.83173 0.31322
vt 0.83173 0.34223
vt 0.83173 0.35423
vt 0.83173 0.38323
vt 0.83173 0.39082
vt 0.83173 0.41982
vt 0.83174 0.68398
vt 0.83213 0.00000
vt 0.83213 0.30564
vt 0.83447 0.02377
vt 0.83447 0.28187
vt 0.83487 0.63589
vt 0.83487 0.66273
vt 0.83538 0.76229
vt 0.83538 0.84348
vt 0.83563 0.72110
vt 0.83563 0.74323
vt 0.83672 0.75214
vt 0.83672 0.85363
vt 0.83882 0.86122
vt 0.83882 0.89022
vt 0.83972 0.72110
vt 0.83972 0.74323
vt 0.84128 0.59930
vt 0.84128 0.62831
vt 0.84185 0.67242
vt 0.84185 0.70870
vt 0.84223 0.48833
vt 0.84223 0.51733
vt 0.84223 0.52491
vt 0.84223 0.55392
vt 0.84245 0.63589
vt 0.84245 0.66265
vt 0.84571 0.76505
vt 0.84571 0.84072
vt 0.84655 0.63589
vt 0.84655 0.66265
vt 0.84886 0.59930
vt 0.84886 0.62831
vt 0.84943 0.67050
vt 0.84943 0.69950
vt 0.84943 0.70708
vt 0.84943 0.73609
vt 0.84963 0.75560
vt 0.84963 0.85018
vt 0.84981 0.48833
vt 0.84981 0.51733
vt 0.84981 0.52491
vt 0.84981 0.55392
vt 0.85220 0.44457
vt 0.85220 0.47357
vt 0.85228 0.56157
vt 0.85228 0.59058
vt 0.85391 0.31322
vt 0.85391 0.34223
vt 0.85391 0.35423
vt 0.85391 0.38323
vt 0.85391 0.39082
vt 0.85391 0.41982
vt 0.85413 0.63589
vt 0.85413 0.66265
vt 0.85497 0.77040
vt 0.85497 0.83537
vt 0.85823 0.63589
vt 0.85823 0.66265
vt 0.85978 0.44457
vt 0.85978 0.47357
vt 0.85986 0.56157
vt 0.85986 0.59058
vt 0.85989 0.02377
vt 0.85989 0.28187
vt 0.86100 0.86122
vt 0.86100 0.89022
vt 0.86120 0.76228
vt 0.86120 0.84349
vt 0.86149 0.31322
vt 0.86149 0.34223
vt 0.86149 0.34981
vt 0.86149 0.37881
vt 0.86149 0.39082
vt 0.86149 0.41982
vt 0.86223 0.00000
vt 0.86223 0.30564
vt 0.86252 0.77796
vt 0.86252 0.82781
vt 0.86581 0.63589
vt 0.86581 0.66234
vt 0.86787 0.78721
vt 0.86787 0.81856
vt 0.86858 0.86122
vt 0.86858 0.89016
vt 0.86990 0.63589
vt 0.86990 0.66234
vt 0.87064 0.79754
vt 0.87064 0.80823
vt 0.87065 0.77172
vt 0.87065 0.83405
vt 0.87104 0.59930
vt 0.87104 0.62831
vt 0.87161 0.67050
vt 0.87161 0.69950
vt 0.87161 0.70708
vt 0.87161 0.73609
vt 0.87199 0.48833
vt 0.87199 0.51733
vt 0.87199 0.52491
vt 0.87199 0.55392
vt 0.87267 0.86122
vt 0.87267 0.89016
vt 0.87733 0.78330
vt 0.87733 0.82247
vt 0.87749 0.63589
vt 0.87749 0.66234
vt 0.87863 0.59930
vt 0.87863 0.62831
vt 0.87919 0.67050
vt 0.87919 0.69949
vt 0.87919 0.70707
vt 0.87919 0.73606
vt 0.87957 0.48833
vt 0.87957 0.51728
vt 0.87957 0.52491
vt 0.87957 0.55386
vt 0.88026 0.86122
vt 0.88026 0.89016
vt 0.88079 0.79620
vt 0.88079 0.80957
vt 0.88158 0.63589
vt 0.88158 0.66234
vt 0.88196 0.44457
vt 0.88196 0.47357
vt 0.88204 0.56157
vt 0.88204 0.59058
vt 0.88272 0.59930
vt 0.88272 0.62831
vt 0.88329 0.67050
vt 0.88329 0.69949
vt 0.88329 0.70707
vt 0.88329 0.73606
vt 0.88367 0.31322
vt 0.88367 0.34223
vt 0.88367 0.34981
vt 0.88367 0.37881
vt 0.88367 0.39082
vt 0.88367 0.41982
vt 0.88367 0.48833
vt 0.88367 0.51728
vt 0.88367 0.52491
vt 0.88367 0.55386
vt 0.88435 0.86122
vt 0.88435 0.89016
vt 0.88482 0.02873
vt 0.88482 0.27691
vt 0.88837 0.75214
vt 0.88837 0.77961
vt 0.88837 0.78719
vt 0.88837 0.81466
vt 0.88837 0.82225
vt 0.88837 0.84968
vt 0.88916 0.63589
vt 0.88916 0.66195
vt 0.88955 0.44457
vt 0.88955 0.47200
vt 0.88962 0.56157
vt 0.88962 0.58870
vt 0.89030 0.59930
vt 0.89030 0.62643
vt 0.89087 0.67050
vt 0.89087 0.69656
vt 0.89087 0.70707
vt 0.89087 0.73308
vt 0.89125 0.31322
vt 0.89125 0.33923
vt 0.89125 0.34981
vt 0.89125 0.37155
vt 0.89125 0.37913
vt 0.89125 0.40014
vt 0.89125 0.40772
vt 0.89125 0.42873
vt 0.89125 0.48833
vt 0.89125 0.50931
vt 0.89125 0.51689
vt 0.89125 0.53787
vt 0.89176 0.00587
vt 0.89176 0.29977
vt 0.89193 0.86122
vt 0.89193 0.88196
vt 0.89246 0.75214
vt 0.89246 0.77961
vt 0.89246 0.78719
vt 0.89246 0.81466
vt 0.89246 0.82225
vt 0.89246 0.84968
vt 0.89326 0.63589
vt 0.89326 0.66195
vt 0.89364 0.44457
vt 0.89364 0.47200
vt 0.89372 0.56157
vt 0.89372 0.58870
vt 0.89440 0.59930
vt 0.89440 0.62643
vt 0.89497 0.67050
vt 0.89497 0.69656
vt 0.89497 0.70707
vt 0.89497 0.73308
vt 0.89535 0.31322
vt 0.89535 0.33923
vt 0.89535 0.34981
vt 0.89535 0.37155
vt 0.89535 0.37913
vt 0.89535 0.40014
vt 0.89535 0.40772
vt 0.89535 0.42873
vt 0.89535 0.48833
vt 0.89535 0.50931
vt 0.89535 0.51689
vt 0.89535 0.53787
vt 0.89603 0.86122
vt 0.89603 0.88196
vt 0.90831 0.03846
vt 0.90831 0.26718
vt 0.91957 0.01739
vt 0.91957 0.28825
vt 0.92944 0.05258
vt 0.92944 0.25306
vt 0.94460 0.03412
vt 0.94460 0.27152
vt 0.94742 0.07056
vt 0.94742 0.23508
vt 0.96154 0.09169
vt 0.96154 0.21395
vt 0.96588 0.05540
vt 0.96588 0.25024
vt 0.97127 0.11518
vt 0.97127 0.19046
vt 0.97623 0.14011
vt 0.97623 0.16553
vt 0.98261 0.08043
vt 0.98261 0.22521
vt 0.99413 0.10824
vt 0.99413 0.19739
vt 1.00000 0.13777
vt 1.00000 0.16787
s 1
usemtl FPS_concrete
f 10/604/10 11/668/11 9/669/9
f 12/687/12 13/745/13 11/746/11
f 14/686/14 15/744/15 13/745/13
f 16/685/16 17/743/17 15/744/15
f 18/684/18 19/742/19 17/743/17
f 2/608/1 3/672/2 1/673/3
f 20/683/20 21/741/21 19/742/19
f 22/682/22 23/740/23 21/741/21
f 24/681/24 25/739/25 23/740/23
f 26/680/26 27/738/27 25/739/25
f 28/531/28 29/591/29 27/592/27
f 30/530/30 31/590/31 29/591/29
f 32/529/32 33/589/33 31/590/31
f 34/528/34 35/588/35 33/589/33
f 36/527/36 37/587/37 35/588/35
f 38/526/38 39/586/39 37/587/37
f 4/607/4 5/671/5 3/672/2
f 40/525/40 41/585/41 39/586/39
f 42/524/42 43/584/43 41/585/41
f 44/762/44 45/816/45 43/817/43
f 46/761/46 47/815/47 45/816/45
f 48/760/48 49/814/49 47/815/47
f 50/759/50 51/813/51 49/814/49
f 52/758/52 53/812/53 51/813/51
f 54/757/54 55/811/55 53/812/53
f 56/756/56 57/810/57 55/811/55
f 58/755/58 59/809/59 57/810/57
f 6/606/6 7/670/7 5/671/5
f 60/611/60 61/675/61 59/676/59
f 8/605/8 9/669/9 7/670/7
s 0
f 38/10/62 22/53/62 6/137/62
s 1
f 62/610/63 63/674/64 61/675/61
f 64/609/65 1/673/3 63/674/64
s 0
f 31/4/66 47/63/66 63/147/66
s 1
f 102/172/100 103/180/102 101/166/101
f 104/184/103 105/196/104 103/180/102
f 106/202/105 107/216/106 105/196/104
f 108/224/107 109/240/108 107/216/106
f 110/244/109 111/266/110 109/240/108
f 112/272/111 113/290/112 111/266/110
f 114/294/113 115/314/114 113/290/112
f 115/955/114 118/923/115 117/954/116
f 118/326/115 119/342/117 117/328/116
f 120/340/118 121/379/119 119/342/117
f 122/368/120 123/432/121 121/379/119
f 124/421/122 125/478/123 123/432/121
f 66/510/67 67/511/68 65/512/69
f 67/993/68 70/964/70 69/992/71
f 70/490/70 71/477/72 69/505/71
f 72/457/73 73/431/74 71/477/72
f 74/420/75 75/378/76 73/431/74
f 76/367/77 77/341/78 75/378/76
f 78/339/79 79/327/80 77/341/78
f 80/325/81 81/313/82 79/327/80
f 82/963/83 83/990/84 81/991/82
f 83/289/84 86/271/85 85/265/86
f 86/271/85 87/239/87 85/265/86
f 88/243/88 89/215/89 87/239/87
f 90/223/90 91/195/91 89/215/89
f 92/201/92 93/179/93 91/195/91
f 94/183/94 95/165/95 93/179/93
f 96/171/96 97/155/97 95/165/95
f 98/161/98 99/156/99 97/155/97
f 99/995/99 102/966/100 101/994/101
s 0
f 102/172/62 86/271/62 70/490/62
s 1
f 126/458/124 127/506/125 125/478/123
f 128/491/126 65/512/69 127/506/125
s 0
f 95/158/66 111/291/66 127/513/66
s 1
f 10/604/10 12/603/12 11/668/11
f 12/687/12 14/686/14 13/745/13
f 14/686/14 16/685/16 15/744/15
f 16/685/16 18/684/18 17/743/17
f 18/684/18 20/683/20 19/742/19
f 2/608/1 4/607/4 3/672/2
f 20/683/20 22/682/22 21/741/21
f 22/682/22 24/681/24 23/740/23
f 24/681/24 26/680/26 25/739/25
f 26/680/26 28/679/28 27/738/27
f 28/531/28 30/530/30 29/591/29
f 30/530/30 32/529/32 31/590/31
f 32/529/32 34/528/34 33/589/33
f 34/528/34 36/527/36 35/588/35
f 36/527/36 38/526/38 37/587/37
f 38/526/38 40/525/40 39/586/39
f 4/607/4 6/606/6 5/671/5
f 40/525/40 42/524/42 41/585/41
f 42/524/42 44/523/44 43/584/43
f 44/762/44 46/761/46 45/816/45
f 46/761/46 48/760/48 47/815/47
f 48/760/48 50/759/50 49/814/49
f 50/759/50 52/758/52 51/813/51
f 52/758/52 54/757/54 53/812/53
f 54/757/54 56/756/56 55/811/55
f 56/756/56 58/755/58 57/810/57
f 58/755/58 60/754/60 59/809/59
f 6/606/6 8/605/8 7/670/7
f 60/611/60 62/610/63 61/675/61
f 8/605/8 10/604/10 9/669/9
s 0
f 10/111/62 8/127/62 6/137/62
f 14/87/62 10/111/62 6/137/62
f 14/87/62 12/101/62 10/111/62
f 18/69/62 16/79/62 14/87/62
f 2/146/62 64/138/62 62/128/62
f 22/53/62 14/87/62 6/137/62
f 22/53/62 18/69/62 14/87/62
f 22/53/62 20/61/62 18/69/62
f 26/35/62 24/43/62 22/53/62
f 30/15/62 26/35/62 22/53/62
f 30/15/62 28/25/62 26/35/62
f 34/1/62 32/9/62 30/15/62
f 38/10/62 30/15/62 22/53/62
f 38/10/62 34/1/62 30/15/62
f 38/10/62 36/2/62 34/1/62
f 42/26/62 40/16/62 38/10/62
f 46/44/62 42/26/62 38/10/62
f 46/44/62 44/36/62 42/26/62
f 50/62/62 48/54/62 46/44/62
f 54/80/62 46/44/62 38/10/62
f 54/80/62 50/62/62 46/44/62
f 54/80/62 52/70/62 50/62/62
f 58/102/62 56/88/62 54/80/62
f 6/137/62 2/146/62 62/128/62
f 6/137/62 4/145/62 2/146/62
f 6/137/62 54/80/62 38/10/62
f 6/137/62 62/128/62 54/80/62
f 62/128/62 58/102/62 54/80/62
f 62/128/62 60/112/62 58/102/62
s 1
f 62/610/63 64/609/65 63/674/64
f 64/609/65 2/608/1 1/673/3
s 0
f 11/90/66 13/82/66 15/72/66
f 15/72/66 17/64/66 19/56/66
f 15/72/66 19/56/66 23/38/66
f 15/72/66 23/38/66 31/4/66
f 19/56/66 21/46/66 23/38/66
f 23/38/66 25/28/66 27/18/66
f 23/38/66 27/18/66 31/4/66
f 27/18/66 29/12/66 31/4/66
f 3/140/66 5/130/66 7/114/66
f 31/4/66 33/3/66 35/11/66
f 31/4/66 35/11/66 39/27/66
f 31/4/66 39/27/66 47/63/66
f 35/11/66 37/17/66 39/27/66
f 39/27/66 41/37/66 43/45/66
f 39/27/66 43/45/66 47/63/66
f 43/45/66 45/55/66 47/63/66
f 47/63/66 49/71/66 51/81/66
f 47/63/66 51/81/66 55/103/66
f 47/63/66 55/103/66 63/147/66
f 51/81/66 53/89/66 55/103/66
f 55/103/66 57/113/66 59/129/66
f 55/103/66 59/129/66 63/147/66
f 59/129/66 61/139/66 63/147/66
f 63/147/66 1/148/66 3/140/66
f 63/147/66 15/72/66 31/4/66
f 63/147/66 3/140/66 7/114/66
f 63/147/66 7/114/66 15/72/66
f 7/114/66 11/90/66 15/72/66
f 7/114/66 9/104/66 11/90/66
s 1
f 102/172/100 104/184/103 103/180/102
f 104/184/103 106/202/105 105/196/104
f 106/202/105 108/224/107 107/216/106
f 108/224/107 110/244/109 109/240/108
f 110/244/109 112/272/111 111/266/110
f 112/272/111 114/294/113 113/290/112
f 114/294/113 116/312/311 115/314/114
f 115/955/114 116/924/311 118/923/115
f 118/326/115 120/340/118 119/342/117
f 120/340/118 122/368/120 121/379/119
f 122/368/120 124/421/122 123/432/121
f 124/421/122 126/458/124 125/478/123
f 66/510/67 68/509/308 67/511/68
f 67/993/68 68/965/308 70/964/70
f 70/490/70 72/457/73 71/477/72
f 72/457/73 74/420/75 73/431/74
f 74/420/75 76/367/77 75/378/76
f 76/367/77 78/339/79 77/341/78
f 78/339/79 80/325/81 79/327/80
f 80/325/81 82/311/83 81/313/82
f 82/963/83 84/962/309 83/990/84
f 83/289/84 84/293/309 86/271/85
f 86/271/85 88/243/88 87/239/87
f 88/243/88 90/223/90 89/215/89
f 90/223/90 92/201/92 91/195/91
f 92/201/92 94/183/94 93/179/93
f 94/183/94 96/171/96 95/165/95
f 96/171/96 98/161/98 97/155/97
f 98/161/98 100/162/310 99/156/99
f 99/995/99 100/967/310 102/966/100
s 0
f 102/172/62 100/162/62 98/161/62
f 102/172/62 94/183/62 86/271/62
f 102/172/62 98/161/62 94/183/62
f 106/202/62 104/184/62 102/172/62
f 110/244/62 106/202/62 102/172/62
f 110/244/62 108/224/62 106/202/62
f 114/294/62 112/272/62 110/244/62
f 118/326/62 110/244/62 102/172/62
f 118/326/62 114/294/62 110/244/62
f 118/326/62 116/312/62 114/294/62
f 122/368/62 120/340/62 118/326/62
f 126/458/62 122/368/62 118/326/62
f 126/458/62 124/421/62 122/368/62
f 66/510/62 128/491/62 126/458/62
f 70/490/62 118/326/62 102/172/62
f 70/490/62 126/458/62 118/326/62
f 70/490/62 66/510/62 126/458/62
f 70/490/62 68/509/62 66/510/62
f 74/420/62 72/457/62 70/490/62
f 78/339/62 74/420/62 70/490/62
f 78/339/62 76/367/62 74/420/62
f 82/311/62 80/325/62 78/339/62
f 86/271/62 78/339/62 70/490/62
f 86/271/62 82/311/62 78/339/62
f 86/271/62 84/293/62 82/311/62
f 90/223/62 88/243/62 86/271/62
f 94/183/62 90/223/62 86/271/62
f 94/183/62 92/201/62 90/223/62
f 98/161/62 96/171/62 94/183/62
s 1
f 126/458/124 128/491/126 127/506/125
f 128/491/126 66/510/67 65/512/69
s 0
f 103/197/66 105/217/66 107/241/66
f 103/197/66 107/241/66 111/291/66
f 107/241/66 109/267/66 111/291/66
f 111/291/66 113/315/66 115/329/66
f 111/291/66 115/329/66 119/380/66
f 111/291/66 119/380/66 127/513/66
f 115/329/66 117/343/66 119/380/66
f 119/380/66 121/433/66 123/479/66
f 119/380/66 123/479/66 127/513/66
f 123/479/66 125/507/66 127/513/66
f 127/513/66 65/514/66 67/508/66
f 127/513/66 67/508/66 71/434/66
f 127/513/66 71/434/66 79/316/66
f 127/513/66 79/316/66 95/158/66
f 67/508/66 69/480/66 71/434/66
f 71/434/66 73/381/66 75/344/66
f 71/434/66 75/344/66 79/316/66
f 75/344/66 77/330/66 79/316/66
f 79/316/66 81/292/66 83/268/66
f 79/316/66 83/268/66 87/218/66
f 79/316/66 87/218/66 95/158/66
f 83/268/66 85/242/66 87/218/66
f 87/218/66 89/198/66 91/182/66
f 87/218/66 91/182/66 95/158/66
f 91/182/66 93/168/66 95/158/66
f 95/158/66 103/197/66 111/291/66
f 95/158/66 97/157/66 99/167/66
f 95/158/66 99/167/66 103/197/66
f 99/167/66 101/181/66 103/197/66
s 1
usemtl FPS_gunmetal_paint
f 129/730/17 130/721/18 254/720/20
f 129/730/17 254/720/20 253/729/19
f 130/92/18 131/86/128 255/94/188
f 130/92/18 134/84/16 135/78/127
f 130/92/18 135/78/127 131/86/128
f 130/92/18 255/94/188 254/98/20
f 131/788/128 132/801/129 256/802/190
f 131/788/128 256/802/190 255/789/188
f 132/752/129 129/712/17 253/783/19
f 132/752/129 253/783/19 256/818/190
f 133/731/15 130/721/18 129/730/17
f 133/731/15 134/722/16 130/721/18
f 134/84/16 138/76/14 139/74/131
f 134/84/16 139/74/131 135/78/127
f 135/787/127 132/801/129 131/788/128
f 135/787/127 136/800/130 132/801/129
f 136/701/130 129/712/17 132/752/129
f 136/701/130 133/634/15 129/712/17
f 137/732/13 134/722/16 133/731/15
f 137/732/13 138/723/14 134/722/16
f 138/76/14 142/68/12 143/66/133
f 138/76/14 143/66/133 139/74/131
f 139/786/131 136/800/130 135/787/127
f 139/786/131 140/799/132 136/800/130
f 140/652/132 133/634/15 136/701/130
f 140/652/132 137/593/13 133/634/15
f 141/733/11 138/723/14 137/732/13
f 141/733/11 142/724/12 138/723/14
f 143/785/133 140/799/132 139/786/131
f 143/785/133 144/798/134 140/799/132
f 144/632/134 137/593/13 140/652/132
f 144/632/134 141/554/11 137/593/13
f 145/704/9 142/688/12 141/703/11
f 145/704/9 146/689/10 142/688/12
f 146/58/10 143/66/133 142/68/12
f 146/58/10 147/60/135 143/66/133
f 147/643/135 144/662/134 143/644/133
f 147/643/135 148/661/136 144/662/134
f 148/599/136 141/554/11 144/632/134
f 148/599/136 145/521/9 141/554/11
f 149/705/7 146/689/10 145/704/9
f 149/705/7 150/690/8 146/689/10
f 150/50/8 147/60/135 146/58/10
f 150/50/8 151/52/137 147/60/135
f 151/642/137 148/661/136 147/643/135
f 151/642/137 152/660/138 148/661/136
f 152/600/138 145/521/9 148/599/136
f 152/600/138 149/522/7 145/521/9
f 152/600/138 153/555/5 149/522/7
f 152/600/138 156/633/141 153/555/5
f 153/706/5 150/690/8 149/705/7
f 153/706/5 154/691/6 150/690/8
f 154/42/6 151/52/137 150/50/8
f 154/42/6 155/48/139 151/52/137
f 155/641/139 152/660/138 151/642/137
f 155/641/139 156/659/141 152/660/138
f 156/633/141 157/594/2 153/555/5
f 156/633/141 160/653/143 157/594/2
f 157/707/2 154/691/6 153/706/5
f 157/707/2 158/692/4 154/691/6
f 158/34/4 155/48/139 154/42/6
f 158/34/4 159/40/140 155/48/139
f 159/640/140 156/659/141 155/641/139
f 159/640/140 160/658/143 156/659/141
f 161/708/3 158/692/4 157/707/2
f 161/708/3 162/693/1 158/692/4
f 162/24/1 159/40/140 158/34/4
f 162/24/1 163/32/142 159/40/140
f 162/24/1 166/14/65 167/30/145
f 162/24/1 167/30/145 163/32/142
f 163/639/142 160/658/143 159/640/140
f 163/639/142 164/657/144 160/658/143
f 164/702/144 157/594/2 160/653/143
f 164/702/144 161/635/3 157/594/2
f 165/709/64 162/693/1 161/708/3
f 165/709/64 166/694/65 162/693/1
f 166/14/65 170/8/63 171/22/147
f 166/14/65 171/22/147 167/30/145
f 167/638/145 164/657/144 163/639/142
f 167/638/145 168/656/146 164/657/144
f 168/753/146 161/635/3 164/702/144
f 168/753/146 165/713/64 161/635/3
f 169/710/61 166/694/65 165/709/64
f 169/710/61 170/695/63 166/694/65
f 170/8/63 174/6/60 175/20/149
f 170/8/63 175/20/149 171/22/147
f 171/637/147 168/656/146 167/638/145
f 171/637/147 172/655/148 168/656/146
f 172/819/148 165/713/64 168/753/146
f 172/819/148 169/784/61 165/713/64
f 173/711/59 170/695/63 169/710/61
f 173/711/59 174/696/60 170/695/63
f 175/636/149 172/655/148 171/637/147
f 175/636/149 176/654/150 172/655/148
f 176/930/150 169/784/61 172/819/148
f 176/930/150 173/896/59 169/784/61
f 177/622/57 174/612/60 173/621/59
f 177/622/57 178/613/58 174/612/60
f 178/5/58 175/20/149 174/6/60
f 178/5/58 179/19/151 175/20/149
f 179/567/151 176/579/150 175/568/149
f 179/567/151 180/578/152 176/579/150
f 180/1018/152 173/896/59 176/930/150
f 180/1018/152 177/1016/57 173/896/59
f 181/623/55 178/613/58 177/622/57
f 181/623/55 182/614/56 178/613/58
f 182/7/56 179/19/151 178/5/58
f 182/7/56 183/21/153 179/19/151
f 183/566/153 180/578/152 179/567/151
f 183/566/153 184/577/154 180/578/152
f 184/1078/154 177/1016/57 180/1018/152
f 184/1078/154 181/1090/55 177/1016/57
f 184/1078/154 185/1192/53 181/1090/55
f 184/1078/154 188/1160/157 185/1192/53
f 185/624/53 182/614/56 181/623/55
f 185/624/53 186/615/54 182/614/56
f 186/13/54 183/21/153 182/7/56
f 186/13/54 187/29/155 183/21/153
f 187/565/155 184/577/154 183/566/153
f 187/565/155 188/576/157 184/577/154
f 188/1160/157 189/1230/51 185/1192/53
f 188/1160/157 192/1228/159 189/1230/51
f 189/625/51 186/615/54 185/624/53
f 189/625/51 190/616/52 186/615/54
f 190/23/52 187/29/155 186/13/54
f 190/23/52 191/31/156 187/29/155
f 191/564/156 188/576/157 187/565/155
f 191/564/156 192/575/159 188/576/157
f 193/626/49 190/616/52 189/625/51
f 193/626/49 194/617/50 190/616/52
f 194/33/50 191/31/156 190/23/52
f 194/33/50 195/39/158 191/31/156
f 194/33/50 198/41/48 199/47/161
f 194/33/50 199/47/161 195/39/158
f 195/563/158 192/575/159 191/564/156
f 195/563/158 196/574/160 192/575/159
f 196/1232/160 189/1230/51 192/1228/159
f 196/1232/160 193/1234/49 189/1230/51
f 197/627/47 194/617/50 193/626/49
f 197/627/47 198/618/48 194/617/50
f 198/41/48 202/49/46 203/51/163
f 198/41/48 203/51/163 199/47/161
f 199/562/161 196/574/160 195/563/158
f 199/562/161 200/573/162 196/574/160
f 200/1236/162 193/1234/49 196/1232/160
f 200/1236/162 197/1240/47 193/1234/49
f 201/628/45 198/618/48 197/627/47
f 201/628/45 202/619/46 198/618/48
f 202/49/46 206/57/44 207/59/165
f 202/49/46 207/59/165 203/51/163
f 203/561/163 200/573/162 199/562/161
f 203/561/163 204/572/164 200/573/162
f 204/1238/164 197/1240/47 200/1236/162
f 204/1238/164 201/1246/45 197/1240/47
f 205/629/43 202/619/46 201/628/45
f 205/629/43 206/620/44 202/619/46
f 207/560/165 204/572/164 203/561/163
f 207/560/165 208/571/166 204/572/164
f 208/1242/166 201/1246/45 204/1238/164
f 208/1242/166 205/1248/43 201/1246/45
f 209/773/41 206/763/44 205/772/43
f 209/773/41 210/764/42 206/763/44
f 210/67/42 207/59/165 206/57/44
f 210/67/42 211/65/167 207/59/165
f 211/539/167 208/551/166 207/540/165
f 211/539/167 212/550/168 208/551/166
f 212/1244/168 205/1248/43 208/1242/166
f 212/1244/168 209/1250/41 205/1248/43
f 213/774/39 210/764/42 209/773/41
f 213/774/39 214/765/40 210/764/42
f 214/75/40 211/65/167 210/67/42
f 214/75/40 215/73/169 211/65/167
f 215/538/169 212/550/168 211/539/167
f 215/538/169 216/549/170 212/550/168
f 216/1243/170 209/1250/41 212/1244/168
f 216/1243/170 213/1249/39 209/1250/41
f 216/1243/170 217/1247/37 213/1249/39
f 216/1243/170 220/1241/173 217/1247/37
f 217/775/37 214/765/40 213/774/39
f 217/775/37 218/766/38 214/765/40
f 218/83/38 215/73/169 214/75/40
f 218/83/38 219/77/171 215/73/169
f 219/537/171 216/549/170 215/538/169
f 219/537/171 220/548/173 216/549/170
f 220/1241/173 221/1245/35 217/1247/37
f 220/1241/173 224/1237/175 221/1245/35
f 221/776/35 218/766/38 217/775/37
f 221/776/35 222/767/36 218/766/38
f 222/91/36 219/77/171 218/83/38
f 222/91/36 223/85/172 219/77/171
f 223/536/172 220/548/173 219/537/171
f 223/536/172 224/547/175 220/548/173
f 225/777/33 222/767/36 221/776/35
f 225/777/33 226/768/34 222/767/36
f 226/97/34 223/85/172 222/91/36
f 226/97/34 227/93/174 223/85/172
f 226/97/34 230/107/32 231/95/177
f 226/97/34 231/95/177 227/93/174
f 227/535/174 224/547/175 223/536/172
f 227/535/174 228/546/176 224/547/175
f 228/1235/176 221/1245/35 224/1237/175
f 228/1235/176 225/1239/33 221/1245/35
f 229/778/31 226/768/34 225/777/33
f 229/778/31 230/769/32 226/768/34
f 230/107/32 234/109/30 235/99/179
f 230/107/32 235/99/179 231/95/177
f 231/534/177 228/546/176 227/535/174
f 231/534/177 232/545/178 228/546/176
f 232/1231/178 225/1239/33 228/1235/176
f 232/1231/178 229/1233/31 225/1239/33
f 233/779/29 230/769/32 229/778/31
f 233/779/29 234/770/30 230/769/32
f 234/109/30 238/115/28 239/105/181
f 234/109/30 239/105/181 235/99/179
f 235/533/179 232/545/178 231/534/177
f 235/533/179 236/544/180 232/545/178
f 236/1227/180 229/1233/31 232/1231/178
f 236/1227/180 233/1229/29 229/1233/31
f 237/780/27 234/770/30 233/779/29
f 237/780/27 238/771/28 234/770/30
f 239/532/181 236/544/180 235/533/179
f 239/532/181 240/543/182 236/544/180
f 240/1159/182 233/1229/29 236/1227/180
f 240/1159/182 237/1191/27 233/1229/29
f 241/726/25 238/716/28 237/725/27
f 241/726/25 242/717/26 238/716/28
f 242/116/26 239/105/181 238/115/28
f 242/116/26 243/106/183 239/105/181
f 243/792/183 240/806/182 239/793/181
f 243/792/183 244/805/184 240/806/182
f 244/1077/184 237/1191/27 240/1159/182
f 244/1077/184 241/1089/25 237/1191/27
f 245/727/23 242/717/26 241/726/25
f 245/727/23 246/718/24 242/717/26
f 246/110/24 243/106/183 242/116/26
f 246/110/24 247/100/185 243/106/183
f 247/791/185 244/805/184 243/792/183
f 247/791/185 248/804/186 244/805/184
f 248/1017/186 241/1089/25 244/1077/184
f 248/1017/186 245/1015/23 241/1089/25
f 248/1017/186 249/895/21 245/1015/23
f 248/1017/186 252/929/189 249/895/21
f 249/728/21 246/718/24 245/727/23
f 249/728/21 250/719/22 246/718/24
f 250/108/22 247/100/185 246/110/24
f 250/108/22 251/96/187 247/100/185
f 251/790/187 248/804/186 247/791/185
f 251/790/187 252/803/189 248/804/186
f 252/929/189 253/783/19 249/895/21
f 252/929/189 256/818/190 253/783/19
f 253/729/19 250/719/22 249/728/21
f 253/729/19 254/720/20 250/719/22
f 254/98/20 251/96/187 250/108/22
f 254/98/20 255/94/188 251/96/187
f 255/789/188 252/803/189 251/790/187
f 255/789/188 256/802/190 252/803/189
s 0
usemtl FPS_hazard
f 258/174/191 259/175/191 257/176/191
f 258/174/191 260/173/191 259/175/191
f 260/1178/192 263/1211/192 259/1212/192
f 260/1178/192 264/1177/192 263/1211/192
f 260/153/62 258/177/62 262/178/62
f 260/153/62 262/178/62 264/154/62
f 262/1170/194 257/1203/194 261/1204/194
f 262/1170/194 258/1169/194 257/1203/194
f 263/1152/66 257/1087/66 259/1151/66
f 263/1152/66 261/1088/66 257/1087/66
f 264/194/193 261/199/193 263/200/193
f 264/194/193 262/193/193 261/199/193
f 266/913/195 267/934/195 265/935/195
f 266/913/195 268/912/195 267/934/195
f 268/1002/62 266/1059/62 270/1060/62
f 268/1002/62 270/1060/62 272/1003/62
f 268/912/196 271/933/196 267/934/196
f 268/912/196 272/911/196 271/933/196
f 270/1182/198 265/1215/198 269/1216/198
f 270/1182/198 266/1181/198 265/1215/198
f 271/206/66 265/185/66 267/205/66
f 271/206/66 269/186/66 265/185/66
f 272/489/197 269/503/197 271/504/197
f 272/489/197 270/488/197 269/503/197
f 274/214/199 275/219/199 273/220/199
f 274/214/199 276/213/199 275/219/199
f 276/1008/62 274/1061/62 278/1062/62
f 276/1008/62 278/1062/62 280/1009/62
f 276/975/200 279/984/200 275/985/200
f 276/975/200 280/974/200 279/984/200
f 278/1174/202 273/1207/202 277/1208/202
f 278/1174/202 274/1173/202 273/1207/202
f 279/1032/66 273/972/66 275/1031/66
f 279/1032/66 277/973/66 273/972/66
f 280/1184/201 277/1217/201 279/1218/201
f 280/1184/201 278/1183/201 277/1217/201
f 282/898/203 283/925/203 281/926/203
f 282/898/203 284/897/203 283/925/203
f 284/235/62 282/253/62 286/254/62
f 284/235/62 286/254/62 288/236/62
f 284/735/204 287/750/204 283/751/204
f 284/735/204 288/734/204 287/750/204
f 286/1124/206 281/1143/206 285/1144/206
f 286/1124/206 282/1123/206 281/1143/206
f 287/230/66 281/211/66 283/229/66
f 287/230/66 285/212/66 281/211/66
f 288/1024/205 285/1029/205 287/1030/205
f 288/1024/205 286/1023/205 285/1029/205
f 290/1190/194 291/1223/194 289/1224/194
f 290/1190/194 292/1189/194 291/1223/194
f 292/1068/191 295/1071/191 291/1072/191
f 292/1068/191 296/1067/191 295/1071/191
f 292/302/62 290/284/62 294/283/62
f 292/302/62 294/283/62 296/301/62
f 294/1094/193 289/1099/193 293/1100/193
f 294/1094/193 290/1093/193 289/1099/193
f 295/259/66 289/280/66 291/260/66
f 295/259/66 293/279/66 289/280/66
f 296/248/192 293/249/192 295/250/192
f 296/248/192 294/247/192 293/249/192
f 298/274/198 299/277/198 297/278/198
f 298/274/198 300/273/198 299/277/198
f 299/1050/66 301/1109/66 297/1110/66
f 299/1050/66 303/1049/66 301/1109/66
f 300/1112/62 298/1054/62 302/1053/62
f 300/1112/62 302/1053/62 304/1111/62
f 300/922/195 303/943/195 299/944/195
f 300/922/195 304/921/195 303/943/195
f 302/737/197 297/748/197 301/749/197
f 302/737/197 298/736/197 297/748/197
f 304/921/196 301/942/196 303/943/196
f 304/921/196 302/920/196 301/942/196
f 306/1194/202 307/1225/202 305/1226/202
f 306/1194/202 308/1193/202 307/1225/202
f 308/1176/199 311/1209/199 307/1210/199
f 308/1176/199 312/1175/199 311/1209/199
f 310/1162/201 305/1195/201 309/1196/201
f 310/1162/201 306/1161/201 305/1195/201
f 311/1055/66 305/1114/66 307/1056/66
f 311/1055/66 309/1113/66 305/1114/66
f 312/1079/62 306/1028/62 310/1027/62
f 312/1079/62 308/1080/62 306/1028/62
f 312/132/200 309/135/200 311/136/200
f 312/132/200 310/131/200 309/135/200
f 314/855/206 315/863/206 313/864/206
f 314/855/206 316/854/206 315/863/206
f 316/1128/203 319/1153/203 315/1154/203
f 316/1128/203 320/1127/203 319/1153/203
f 316/894/62 314/797/62 318/796/62
f 316/894/62 318/796/62 320/893/62
f 318/1132/205 313/1157/205 317/1158/205
f 318/1132/205 314/1131/205 313/1157/205
f 319/307/66 313/320/66 315/308/66
f 319/307/66 317/319/66 313/320/66
f 320/520/204 317/552/204 319/553/204
f 320/520/204 318/519/204 317/552/204
f 322/208/193 323/209/193 321/210/193
f 322/208/193 324/207/193 323/209/193
f 324/1166/194 327/1199/194 323/1200/194
f 324/1166/194 328/1165/194 327/1199/194
f 324/332/62 322/322/62 326/321/62
f 324/332/62 326/321/62 328/331/62
f 326/1180/192 321/1213/192 325/1214/192
f 326/1180/192 322/1179/192 321/1213/192
f 327/927/66 321/1007/66 323/928/66
f 327/927/66 325/1006/66 321/1007/66
f 328/160/191 325/163/191 327/164/191
f 328/160/191 326/159/191 325/163/191
f 330/445/197 331/455/197 329/456/197
f 330/445/197 332/444/197 331/455/197
f 332/142/62 330/120/62 334/119/62
f 332/142/62 334/119/62 336/141/62
f 332/678/198 335/699/198 331/700/198
f 332/678/198 336/677/198 335/699/198
f 334/915/196 329/936/196 333/937/196
f 334/915/196 330/914/196 329/936/196
f 335/976/66 329/1036/66 331/977/66
f 335/976/66 333/1035/66 329/1036/66
f 336/916/195 333/937/195 335/938/195
f 336/916/195 334/915/195 333/937/195
f 338/1186/201 339/1219/201 337/1220/201
f 338/1186/201 340/1185/201 339/1219/201
f 340/1172/202 343/1205/202 339/1206/202
f 340/1172/202 344/1171/202 343/1205/202
f 342/1005/200 337/1019/200 341/1020/200
f 342/1005/200 338/1004/200 337/1019/200
f 343/978/66 337/1038/66 339/979/66
f 343/978/66 341/1037/66 337/1038/66
f 344/1063/62 338/1011/62 342/1010/62
f 344/1063/62 340/1064/62 338/1011/62
f 344/226/199 341/227/199 343/228/199
f 344/226/199 342/225/199 341/227/199
f 346/989/205 347/998/205 345/999/205
f 346/989/205 348/988/205 347/998/205
f 348/1126/206 351/1145/206 347/1146/206
f 348/1126/206 352/1125/206 351/1145/206
f 348/1138/62 346/1074/62 350/1073/62
f 348/1138/62 350/1073/62 352/1137/62
f 350/1122/204 345/1141/204 349/1142/204
f 350/1122/204 346/1121/204 345/1141/204
f 351/335/66 345/348/66 347/336/66
f 351/335/66 349/347/66 345/348/66
f 352/953/203 349/960/203 351/961/203
f 352/953/203 350/952/203 349/960/203
f 354/234/192 355/237/192 353/238/192
f 354/234/192 356/233/192 355/237/192
f 356/1083/62 354/1147/62 358/1148/62
f 356/1083/62 358/1148/62 360/1084/62
f 356/1120/193 359/1135/193 355/1136/193
f 356/1120/193 360/1119/193 359/1135/193
f 358/1040/191 353/1043/191 357/1044/191
f 358/1040/191 354/1039/191 353/1043/191
f 359/1140/66 353/1075/66 355/1139/66
f 359/1140/66 357/1076/66 353/1075/66
f 360/1188/194 357/1221/194 359/1222/194
f 360/1188/194 358/1187/194 357/1221/194
f 362/918/196 363/939/196 361/940/196
f 362/918/196 364/917/196 363/939/196
f 364/1000/62 362/1057/62 366/1058/62
f 364/1000/62 366/1058/62 368/1001/62
f 364/651/197 367/665/197 363/666/197
f 364/651/197 368/650/197 367/665/197
f 366/919/195 361/940/195 365/941/195
f 366/919/195 362/918/195 361/940/195
f 367/1066/66 361/1012/66 363/1065/66
f 367/1066/66 365/1013/66 361/1012/66
f 368/286/198 365/287/198 367/288/198
f 368/286/198 366/285/198 365/287/198
f 370/144/200 371/151/200 369/152/200
f 370/144/200 372/143/200 371/151/200
f 372/1085/62 370/1149/62 374/1150/62
f 372/1085/62 374/1150/62 376/1086/62
f 372/1164/201 375/1197/201 371/1198/201
f 372/1164/201 376/1163/201 375/1197/201
f 374/1168/199 369/1201/199 373/1202/199
f 374/1168/199 370/1167/199 369/1201/199
f 375/715/66 369/648/66 371/714/66
f 375/715/66 373/649/66 369/648/66
f 376/122/202 373/123/202 375/124/202
f 376/122/202 374/121/202 373/123/202
f 378/646/204 379/663/204 377/664/204
f 378/646/204 380/645/204 379/663/204
f 380/1098/205 383/1115/205 379/1116/205
f 380/1098/205 384/1097/205 383/1115/205
f 382/1130/203 377/1155/203 381/1156/203
f 382/1130/203 378/1129/203 377/1155/203
f 383/1106/66 377/1045/66 379/1105/66
f 383/1106/66 381/1046/66 377/1045/66
f 384/1048/62 378/1107/62 382/1108/62
f 384/1048/62 380/1047/62 378/1107/62
f 384/892/206 381/906/206 383/907/206
f 384/892/206 382/891/206 381/906/206
s 1
usemtl FPS_gunmetal
f 386/844/207 387/879/208 385/880/209
f 388/843/210 389/878/211 387/879/208
f 390/842/212 391/877/213 389/878/211
f 392/841/214 393/876/215 391/877/213
f 394/905/216 395/950/217 393/951/215
f 396/904/218 397/949/219 395/950/217
f 398/903/220 399/948/221 397/949/219
f 400/902/222 401/947/223 399/948/221
f 402/901/224 403/946/225 401/947/223
f 404/900/226 405/945/227 403/946/225
f 406/853/228 407/888/229 405/889/227
f 408/852/230 409/887/231 407/888/229
f 410/851/232 411/886/233 409/887/231
f 412/850/234 413/885/235 411/886/233
f 414/849/236 415/884/237 413/885/235
f 416/848/238 417/883/239 415/884/237
f 418/830/240 419/870/241 417/871/239
f 420/829/242 421/869/243 419/870/241
f 422/828/244 423/868/245 421/869/243
f 424/827/246 425/867/247 423/868/245
f 426/826/248 427/866/249 425/867/247
f 428/825/250 429/865/251 427/866/249
s 0
f 422/190/62 406/133/62 390/251/62
s 1
f 430/846/252 431/881/253 429/882/251
f 432/845/254 385/880/209 431/881/253
s 0
f 399/298/66 415/281/66 431/349/66
s 1
f 386/844/207 388/843/210 387/879/208
f 388/843/210 390/842/212 389/878/211
f 390/842/212 392/841/214 391/877/213
f 392/841/214 394/840/216 393/876/215
f 394/905/216 396/904/218 395/950/217
f 396/904/218 398/903/220 397/949/219
f 398/903/220 400/902/222 399/948/221
f 400/902/222 402/901/224 401/947/223
f 402/901/224 404/900/226 403/946/225
f 404/900/226 406/899/228 405/945/227
f 406/853/228 408/852/230 407/888/229
f 408/852/230 410/851/232 409/887/231
f 410/851/232 412/850/234 411/886/233
f 412/850/234 414/849/236 413/885/235
f 414/849/236 416/848/238 415/884/237
f 416/848/238 418/847/240 417/883/239
f 418/830/240 420/829/242 419/870/241
f 420/829/242 422/828/244 421/869/243
f 422/828/244 424/827/246 423/868/245
f 424/827/246 426/826/248 425/867/247
f 426/826/248 428/825/250 427/866/249
f 428/825/250 430/824/252 429/865/251
s 0
f 386/256/62 432/252/62 430/246/62
f 390/251/62 386/256/62 430/246/62
f 390/251/62 388/255/62 386/256/62
f 390/251/62 430/246/62 422/190/62
f 394/231/62 392/245/62 390/251/62
f 398/203/62 394/231/62 390/251/62
f 398/203/62 396/221/62 394/231/62
f 402/169/62 400/189/62 398/203/62
f 406/133/62 398/203/62 390/251/62
f 406/133/62 402/169/62 398/203/62
f 406/133/62 404/149/62 402/169/62
f 410/117/62 408/125/62 406/133/62
f 414/126/62 410/117/62 406/133/62
f 414/126/62 412/118/62 410/117/62
f 418/150/62 416/134/62 414/126/62
f 422/190/62 414/126/62 406/133/62
f 422/190/62 418/150/62 414/126/62
f 422/190/62 420/170/62 418/150/62
f 426/222/62 424/204/62 422/190/62
f 430/246/62 426/222/62 422/190/62
f 430/246/62 428/232/62 426/222/62
s 1
f 430/846/252 432/845/254 431/881/253
f 432/845/254 386/844/207 385/880/209
s 0
f 387/346/66 389/338/66 391/334/66
f 391/334/66 393/324/66 395/318/66
f 391/334/66 395/318/66 399/298/66
f 395/318/66 397/310/66 399/298/66
f 399/298/66 401/282/66 403/276/66
f 399/298/66 403/276/66 407/258/66
f 399/298/66 407/258/66 415/281/66
f 403/276/66 405/270/66 407/258/66
f 407/258/66 409/257/66 411/269/66
f 407/258/66 411/269/66 415/281/66
f 411/269/66 413/275/66 415/281/66
f 415/281/66 417/297/66 419/309/66
f 415/281/66 419/309/66 423/323/66
f 415/281/66 423/323/66 431/349/66
f 419/309/66 421/317/66 423/323/66
f 423/323/66 425/333/66 427/337/66
f 423/323/66 427/337/66 431/349/66
f 427/337/66 429/345/66 431/349/66
f 431/349/66 385/350/66 387/346/66
f 431/349/66 387/346/66 391/334/66
f 431/349/66 391/334/66 399/298/66
s 1
usemtl FPS_signal
f 433/426/219 526/416/222 525/425/221
f 435/439/255 528/451/302 527/440/301
f 436/429/257 437/389/217 433/411/219
f 436/429/257 525/435/221 528/446/302
f 437/427/217 434/417/220 433/426/219
f 438/1052/218 435/1070/255 434/1082/220
f 439/438/256 436/450/257 435/439/255
f 440/409/259 441/376/215 437/389/217
f 441/428/215 438/418/218 437/427/217
f 442/1026/216 439/1042/256 438/1052/218
f 442/1026/216 447/997/260 443/1022/258
f 443/437/258 440/449/259 439/438/256
f 445/383/213 442/369/216 441/382/215
f 447/486/260 444/500/261 443/487/258
f 448/391/262 441/376/215 444/400/261
f 449/384/211 446/370/214 445/383/213
f 450/932/212 447/997/260 446/987/214
f 450/932/212 455/909/265 451/957/263
f 451/485/263 448/499/262 447/486/260
f 452/392/264 445/365/213 448/391/262
f 453/385/208 450/371/212 449/384/211
f 454/875/210 459/873/267 455/909/265
f 455/484/265 452/498/264 451/485/263
f 456/401/266 449/366/211 452/392/264
f 457/386/209 454/372/210 453/385/208
f 459/483/267 456/497/266 455/484/265
f 460/410/268 453/377/208 456/401/266
f 460/410/268 461/412/253 457/390/209
f 461/387/253 458/373/207 457/386/209
f 462/808/254 459/873/267 458/821/207
f 463/482/269 460/496/268 459/483/267
f 464/430/271 465/436/251 461/412/253
f 465/388/251 462/374/254 461/387/253
f 466/795/252 463/839/269 462/808/254
f 466/795/252 471/822/272 467/823/270
f 467/481/270 464/495/271 463/482/269
f 469/359/249 466/351/252 465/358/251
f 471/836/272 468/862/273 467/837/270
f 472/469/274 465/436/251 468/447/273
f 473/360/247 470/352/250 469/359/249
f 474/807/248 471/822/272 470/794/250
f 474/807/248 479/872/277 475/838/275
f 475/835/275 472/861/274 471/836/272
f 476/493/276 469/467/249 472/469/274
f 477/361/245 474/353/248 473/360/247
f 478/820/246 483/908/279 479/872/277
f 479/834/277 476/860/276 475/835/275
f 480/516/278 473/502/247 476/493/276
f 481/362/243 478/354/246 477/361/245
f 483/833/279 480/859/278 479/834/277
f 484/542/280 477/518/245 480/516/278
f 484/542/280 485/598/241 481/557/243
f 485/363/241 482/355/244 481/362/243
f 486/931/242 483/908/279 482/874/244
f 487/832/281 484/858/280 483/833/279
f 488/559/283 489/602/239 485/598/241
f 489/364/239 486/356/242 485/363/241
f 490/986/240 487/956/281 486/931/242
f 490/986/240 495/1021/284 491/996/282
f 491/831/282 488/857/283 487/832/281
f 493/403/237 490/393/240 489/402/239
f 495/464/284 492/476/285 491/465/282
f 496/596/286 489/602/239 492/583/285
f 497/404/235 494/394/238 493/403/237
f 498/1051/236 495/1021/284 494/1025/238
f 498/1051/236 503/1069/289 499/1041/287
f 499/463/287 496/475/286 495/464/284
f 500/595/288 493/631/237 496/596/286
f 501/405/233 498/395/236 497/404/235
f 502/1081/234 507/1091/291 503/1069/289
f 503/462/289 500/474/288 499/463/287
f 504/582/290 497/630/235 500/595/288
f 505/406/231 502/396/234 501/405/233
f 507/461/291 504/473/290 503/462/289
f 508/558/292 501/601/233 504/582/290
f 508/558/292 509/556/229 505/597/231
f 509/407/229 506/397/232 505/406/231
f 510/1117/230 507/1091/291 506/1103/232
f 511/460/293 508/472/292 507/461/291
f 512/541/295 513/517/227 509/556/229
f 513/408/227 510/398/230 509/407/229
f 514/1133/228 511/1095/293 510/1117/230
f 514/1133/228 519/1102/296 515/1101/294
f 515/459/294 512/471/295 511/460/293
f 517/423/225 514/413/228 513/422/227
f 519/442/296 516/454/297 515/443/294
f 520/492/298 513/517/227 516/515/297
f 521/424/223 518/414/226 517/423/225
f 522/1118/224 519/1102/296 518/1134/226
f 522/1118/224 527/1092/301 523/1096/299
f 523/441/299 520/453/298 519/442/296
f 524/468/300 517/501/225 520/492/298
f 525/425/221 522/415/224 521/424/223
f 526/1104/222 435/1070/255 527/1092/301
f 527/440/301 524/452/300 523/441/299
f 528/446/302 521/466/223 524/468/300
s 0
f 529/782/66 531/697/66 534/747/66
f 536/969/303 530/980/303 529/981/303
f 537/304/304 531/305/304 530/306/304
f 538/188/305 532/191/305 531/192/305
f 539/570/304 533/580/304 532/581/304
f 540/262/306 534/263/306 533/264/306
f 541/296/304 535/299/304 534/300/304
f 541/958/62 538/1014/62 536/1034/62
f 542/971/307 529/982/307 535/983/307
s 1
f 433/426/219 434/417/220 526/416/222
f 435/439/255 436/450/257 528/451/302
f 436/429/257 433/411/219 525/435/221
f 436/429/257 440/409/259 437/389/217
f 437/427/217 438/418/218 434/417/220
f 438/1052/218 439/1042/256 435/1070/255
f 439/438/256 440/449/259 436/450/257
f 440/409/259 444/400/261 441/376/215
f 441/428/215 442/419/216 438/418/218
f 442/1026/216 443/1022/258 439/1042/256
f 442/1026/216 446/987/214 447/997/260
f 443/437/258 444/448/261 440/449/259
f 445/383/213 446/370/214 442/369/216
f 447/486/260 448/499/262 444/500/261
f 448/391/262 445/365/213 441/376/215
f 449/384/211 450/371/212 446/370/214
f 450/932/212 451/957/263 447/997/260
f 450/932/212 454/875/210 455/909/265
f 451/485/263 452/498/264 448/499/262
f 452/392/264 449/366/211 445/365/213
f 453/385/208 454/372/210 450/371/212
f 454/875/210 458/821/207 459/873/267
f 455/484/265 456/497/266 452/498/264
f 456/401/266 453/377/208 449/366/211
f 457/386/209 458/373/207 454/372/210
f 459/483/267 460/496/268 456/497/266
f 460/410/268 457/390/209 453/377/208
f 460/410/268 464/430/271 461/412/253
f 461/387/253 462/374/254 458/373/207
f 462/808/254 463/839/269 459/873/267
f 463/482/269 464/495/271 460/496/268
f 464/430/271 468/447/273 465/436/251
f 465/388/251 466/375/252 462/374/254
f 466/795/252 467/823/270 463/839/269
f 466/795/252 470/794/250 471/822/272
f 467/481/270 468/494/273 464/495/271
f 469/359/249 470/352/250 466/351/252
f 471/836/272 472/861/274 468/862/273
f 472/469/274 469/467/249 465/436/251
f 473/360/247 474/353/248 470/352/250
f 474/807/248 475/838/275 471/822/272
f 474/807/248 478/820/246 479/872/277
f 475/835/275 476/860/276 472/861/274
f 476/493/276 473/502/247 469/467/249
f 477/361/245 478/354/246 474/353/248
f 478/820/246 482/874/244 483/908/279
f 479/834/277 480/859/278 476/860/276
f 480/516/278 477/518/245 473/502/247
f 481/362/243 482/355/244 478/354/246
f 483/833/279 484/858/280 480/859/278
f 484/542/280 481/557/243 477/518/245
f 484/542/280 488/559/283 485/598/241
f 485/363/241 486/356/242 482/355/244
f 486/931/242 487/956/281 483/908/279
f 487/832/281 488/857/283 484/858/280
f 488/559/283 492/583/285 489/602/239
f 489/364/239 490/357/240 486/356/242
f 490/986/240 491/996/282 487/956/281
f 490/986/240 494/1025/238 495/1021/284
f 491/831/282 492/856/285 488/857/283
f 493/403/237 494/394/238 490/393/240
f 495/464/284 496/475/286 492/476/285
f 496/596/286 493/631/237 489/602/239
f 497/404/235 498/395/236 494/394/238
f 498/1051/236 499/1041/287 495/1021/284
f 498/1051/236 502/1081/234 503/1069/289
f 499/463/287 500/474/288 496/475/286
f 500/595/288 497/630/235 493/631/237
f 501/405/233 502/396/234 498/395/236
f 502/1081/234 506/1103/232 507/1091/291
f 503/462/289 504/473/290 500/474/288
f 504/582/290 501/601/233 497/630/235
f 505/406/231 506/397/232 502/396/234
f 507/461/291 508/472/292 504/473/290
f 508/558/292 505/597/231 501/601/233
f 508/558/292 512/541/295 509/556/229
f 509/407/229 510/398/230 506/397/232
f 510/1117/230 511/1095/293 507/1091/291
f 511/460/293 512/471/295 508/472/292
f 512/541/295 516/515/297 513/517/227
f 513/408/227 514/399/228 510/398/230
f 514/1133/228 515/1101/294 511/1095/293
f 514/1133/228 518/1134/226 519/1102/296
f 515/459/294 516/470/297 512/471/295
f 517/423/225 518/414/226 514/413/228
f 519/442/296 520/453/298 516/454/297
f 520/492/298 517/501/225 513/517/227
f 521/424/223 522/415/224 518/414/226
f 522/1118/224 523/1096/299 519/1102/296
f 522/1118/224 526/1104/222 527/1092/301
f 523/441/299 524/452/300 520/453/298
f 524/468/300 521/466/223 517/501/225
f 525/425/221 526/416/222 522/415/224
f 526/1104/222 434/1082/220 435/1070/255
f 527/440/301 528/451/302 524/452/300
f 528/446/302 525/435/221 521/466/223
s 0
f 529/782/66 530/667/66 531/697/66
f 531/697/66 532/647/66 533/698/66
f 531/697/66 533/698/66 534/747/66
f 534/747/66 535/781/66 529/782/66
f 536/1034/62 542/910/62 541/958/62
f 536/969/303 537/968/303 530/980/303
f 537/304/304 538/303/304 531/305/304
f 538/1014/62 537/1033/62 536/1034/62
f 538/188/305 539/187/305 532/191/305
f 539/570/304 540/569/304 533/580/304
f 540/262/306 541/261/306 534/263/306
f 541/296/304 542/295/304 535/299/304
f 541/958/62 539/959/62 538/1014/62
f 541/958/62 540/890/62 539/959/62
f 542/971/307 536/970/307 529/982/307
