# Blender 4.0.2
# www.blender.org
mtllib spawn_pad_lod1.mtl
o spawn_pad_lod1
v -0.025176 0.100000 1.011830
v -0.541210 0.000000 0.855293
v -0.488896 0.100000 0.877298
v -0.855293 0.100000 0.541210
v -0.877298 0.000000 0.488896
v -1.011830 0.000000 0.025176
v -1.011830 0.100000 -0.025176
v -0.855293 0.000000 -0.541210
v -0.877298 0.100000 -0.488896
v -0.541210 0.100000 -0.855293
v -0.488896 0.000000 -0.877298
v -0.025176 0.000000 -1.011830
v 0.025176 0.100000 -1.011830
v 0.541210 0.000000 -0.855293
v 0.488896 0.100000 -0.877298
v 0.855293 0.100000 -0.541210
v 0.877298 0.000000 -0.488896
v 1.011830 0.000000 -0.025176
v 1.011830 0.100000 0.025176
v 0.855293 0.000000 0.541210
v 0.877298 0.100000 0.488896
v 0.541210 0.100000 0.855293
v 0.488896 0.000000 0.877298
v 0.025176 0.000000 1.011830
v -0.363894 0.100157 0.944295
v -0.460047 0.130031 0.860689
v -0.764974 0.115069 0.627798
v -0.934955 0.125771 0.292880
v -0.944295 0.100157 -0.363894
v -1.001224 0.108320 0.025355
v -0.860686 0.130035 -0.460046
v -0.627798 0.115069 -0.764974
v -0.292721 0.126300 -0.934448
v 0.363894 0.100157 -0.944295
v -0.025328 0.109347 -1.000187
v 0.460044 0.130039 -0.860682
v 0.764974 0.115069 -0.627798
v 0.934448 0.126300 -0.292721
v 0.944295 0.100157 0.363894
v 0.999400 0.110126 -0.025308
v 0.860677 0.130045 0.460041
v 0.627798 0.115069 0.764974
v 0.025372 0.107627 1.001924
v 0.292880 0.125771 0.934955
v -0.897982 0.140385 -0.146669
v -0.758183 0.145000 -0.088125
v -0.760808 0.125000 -0.061483
v -0.865332 0.135000 0.262496
v -0.726423 0.125000 0.234346
v -0.748323 0.133000 0.500013
v -0.717777 0.145000 0.276603
v -0.573662 0.135909 0.699010
v -0.581447 0.125000 0.494497
v -0.494497 0.145000 0.581447
v -0.277515 0.125000 0.860238
v -0.338265 0.131000 0.682948
v -0.146669 0.140385 0.897982
v -0.088125 0.145000 0.758183
v -0.061483 0.125000 0.760808
v 0.262496 0.135000 0.865332
v 0.234346 0.125000 0.726423
v 0.500013 0.133000 0.748323
v 0.276603 0.145000 0.717777
v 0.699010 0.135909 0.573662
v 0.494497 0.125000 0.581447
v 0.581447 0.145000 0.494497
v 0.860238 0.125000 0.277515
v 0.682948 0.131000 0.338265
v 0.897982 0.140385 0.146669
v 0.758183 0.145000 0.088125
v 0.760808 0.125000 0.061483
v 0.865332 0.135000 -0.262496
v 0.726423 0.125000 -0.234346
v 0.748323 0.133000 -0.500013
v 0.717777 0.145000 -0.276603
v 0.573662 0.135909 -0.699010
v 0.581447 0.125000 -0.494497
v 0.494497 0.145000 -0.581447
v 0.277515 0.125000 -0.860238
v 0.338265 0.131000 -0.682948
v 0.146669 0.140385 -0.897982
v 0.088125 0.145000 -0.758183
v 0.061483 0.125000 -0.760808
v -0.262496 0.135000 -0.865332
v -0.234346 0.125000 -0.726423
v -0.500013 0.133000 -0.748323
v -0.276603 0.145000 -0.717777
v -0.699010 0.135909 -0.573662
v -0.494497 0.125000 -0.581447
v -0.581447 0.145000 -0.494497
v -0.860238 0.125000 -0.277515
v -0.682948 0.131000 -0.338265
v -0.894386 0.133000 0.091239
v -0.766883 0.141000 0.065877
v -0.861220 0.141000 0.257973
v -0.733718 0.133000 0.232611
v -0.791389 0.133000 0.426560
v -0.683298 0.141000 0.354336
v -0.696942 0.141000 0.567910
v -0.588851 0.133000 0.495686
v -0.567910 0.133000 0.696942
v -0.495686 0.141000 0.588851
v -0.426560 0.141000 0.791389
v -0.354336 0.133000 0.683298
v -0.257973 0.133000 0.861220
v -0.232611 0.141000 0.733718
v -0.091239 0.141000 0.894386
v -0.065877 0.133000 0.766883
v 0.091239 0.133000 0.894386
v 0.065877 0.141000 0.766883
v 0.257973 0.141000 0.861220
v 0.232611 0.133000 0.733718
v 0.426560 0.137000 0.791389
v 0.354336 0.137000 0.683298
v 0.567910 0.125000 0.696942
v 0.567910 0.149000 0.696942
v 0.495686 0.137000 0.588851
v 0.696942 0.125000 0.567910
v 0.696942 0.149000 0.567910
v 0.588851 0.137000 0.495686
v 0.791389 0.137000 0.426560
v 0.683298 0.137000 0.354336
v 0.861220 0.133000 0.257973
v 0.733718 0.141000 0.232611
v 0.894386 0.141000 0.091239
v 0.766883 0.133000 0.065877
v 0.894386 0.133000 -0.091239
v 0.766883 0.141000 -0.065877
v 0.861220 0.141000 -0.257973
v 0.733718 0.133000 -0.232611
v 0.791389 0.133000 -0.426560
v 0.683298 0.141000 -0.354336
v 0.696942 0.141000 -0.567910
v 0.588851 0.133000 -0.495686
v 0.567910 0.125000 -0.696942
v 0.567910 0.149000 -0.696942
v 0.495686 0.137000 -0.588851
v 0.426560 0.137000 -0.791389
v 0.354336 0.137000 -0.683298
v 0.257973 0.133000 -0.861220
v 0.232611 0.141000 -0.733718
v 0.091239 0.141000 -0.894386
v 0.065877 0.133000 -0.766883
v -0.091239 0.133000 -0.894386
v -0.065877 0.141000 -0.766883
v -0.257973 0.141000 -0.861220
v -0.232611 0.133000 -0.733718
v -0.426560 0.133000 -0.791389
v -0.354336 0.141000 -0.683298
v -0.567910 0.141000 -0.696942
v -0.495686 0.133000 -0.588851
v -0.696942 0.133000 -0.567910
v -0.588851 0.141000 -0.495686
v -0.791389 0.141000 -0.426560
v -0.683298 0.133000 -0.354336
v -0.861220 0.137000 -0.257973
v -0.733718 0.137000 -0.232611
v -0.894386 0.137000 -0.091239
v -0.766883 0.125000 -0.065877
v -0.766883 0.149000 -0.065877
v 0.000000 0.140000 0.424545
v -0.249621 0.120000 0.341722
v -0.171129 0.160000 0.387040
v -0.367667 0.140000 0.212272
v -0.420751 0.120000 -0.045317
v -0.420751 0.160000 0.045317
v -0.367667 0.137143 -0.212272
v -0.171129 0.120000 -0.387040
v -0.249621 0.160000 -0.341722
v 0.000000 0.137143 -0.424545
v 0.249621 0.120000 -0.341722
v 0.171129 0.160000 -0.387040
v 0.367667 0.140000 -0.212272
v 0.420751 0.120000 0.045317
v 0.420751 0.160000 -0.045317
v 0.367667 0.135000 0.212272
v 0.171129 0.120000 0.387040
v 0.249621 0.160000 0.341722
v -0.300536 0.174000 -0.032370
v -0.254676 0.158000 0.180481
v -0.239928 0.166000 0.031587
v -0.240247 0.174000 0.199286
v -0.046518 0.158000 0.298674
v -0.152138 0.166000 0.198269
v -0.032370 0.174000 0.300536
v 0.180481 0.158000 0.254676
v 0.031587 0.166000 0.239928
v 0.147319 0.166727 0.191990
v 0.199286 0.174000 0.240247
v 0.298674 0.158000 0.046518
v 0.223577 0.165273 0.092609
v 0.300536 0.174000 0.032370
v 0.254676 0.158000 -0.180481
v 0.239928 0.166000 -0.031587
v 0.240247 0.174000 -0.199286
v 0.046518 0.158000 -0.298674
v 0.152138 0.166000 -0.198269
v 0.032370 0.174000 -0.300536
v -0.180481 0.158000 -0.254676
v -0.031587 0.166000 -0.239928
v -0.199286 0.174000 -0.240247
v -0.298674 0.158000 -0.046518
v -0.198269 0.166000 -0.152138
v -0.114336 0.133333 0.490134
v -0.070000 0.143333 0.360000
v 0.070000 0.136667 0.360000
v 0.070000 0.130000 0.480000
v 0.114336 0.146667 0.490134
v 0.000000 0.140000 0.620000
v -0.070000 0.150000 0.480000
vn -0.6539 0.6189 0.4353
vn -0.6799 -0.6639 0.3115
vn -0.4353 -0.6189 0.6539
vn -0.4353 0.6189 -0.6539
vn -0.3115 -0.6639 -0.6799
vn -0.6539 -0.6189 -0.4353
vn 0.6539 0.6189 -0.4353
vn 0.6799 -0.6639 -0.3115
vn 0.4353 -0.6189 -0.6539
vn 0.4353 0.6189 0.6539
vn 0.3115 -0.6639 0.6799
vn 0.6539 -0.6189 0.4353
vn -0.3303 0.8469 0.4168
vn -0.6688 0.0116 -0.7433
vn -0.2169 -0.2540 0.9426
vn -0.4183 0.8457 -0.3313
vn 0.8233 0.0121 -0.5675
vn -0.9419 -0.2550 -0.2184
vn 0.3328 0.8441 -0.4204
vn 0.5742 0.0121 0.8187
vn 0.2193 -0.2563 -0.9414
vn 0.4220 0.8429 0.3340
vn -0.7397 0.0112 0.6729
vn 0.9409 -0.2567 0.2207
vn 0.2381 0.9298 -0.2807
vn 0.2943 -0.9319 -0.2119
vn 0.3877 0.9025 -0.1875
vn 0.1321 -0.0281 -0.9908
vn -0.4702 0.0062 0.8826
vn -0.3963 -0.3053 0.8659
vn -0.2807 0.9298 -0.2381
vn -0.2119 -0.9319 -0.2943
vn -0.1875 0.9025 -0.3877
vn -0.9908 -0.0281 -0.1321
vn 0.8826 0.0062 0.4702
vn 0.8659 -0.3053 0.3963
vn -0.2381 0.9298 0.2807
vn -0.2943 -0.9319 0.2119
vn -0.3877 0.9025 0.1875
vn -0.1321 -0.0281 0.9908
vn 0.4702 0.0062 -0.8826
vn 0.3963 -0.3053 -0.8659
vn 0.2807 0.9298 0.2381
vn 0.2119 -0.9319 0.2943
vn 0.1875 0.9025 0.3877
vn 0.9908 -0.0281 0.1321
vn -0.8826 0.0062 -0.4702
vn -0.8659 -0.3053 -0.3963
vn 0.5556 -0.0000 0.8315
vn -0.5556 -0.0000 0.8315
vn 0.8315 -0.0000 0.5556
vn -0.1951 -0.0000 0.9808
vn -0.1818 0.6501 0.7378
vn -0.5481 -0.6501 0.5264
vn 0.4944 0.0006 0.8692
vn -0.7238 0.6574 0.2095
vn -0.7439 -0.6356 -0.2067
vn -0.8198 0.0038 0.5726
vn -0.5407 0.6709 -0.5075
vn -0.1943 -0.6278 -0.7538
vn -0.8463 -0.0260 -0.5321
vn 0.1705 0.6637 -0.7283
vn 0.5528 -0.6425 -0.5307
vn 0.2909 -0.0526 -0.9553
vn 0.7193 0.6629 -0.2080
vn 0.7544 -0.6242 0.2033
vn -0.5400 -0.0130 0.8416
vn 0.5437 0.6735 0.5008
vn 0.1843 -0.6367 0.7487
vn -0.6907 -0.0763 -0.7191
vn -0.5143 0.5361 0.6694
vn 0.9852 -0.0009 -0.1715
vn -0.7743 0.6323 0.0246
vn -0.7761 -0.5361 0.3320
vn -0.7423 -0.6324 -0.2217
vn 0.0246 0.6323 0.7743
vn -0.1627 -0.0010 -0.9867
vn 0.5237 0.0113 -0.8518
vn -0.2217 -0.6324 0.7423
vn 0.6673 0.5355 0.5176
vn 0.3251 -0.5391 0.7769
vn -0.9037 -0.0164 -0.4278
vn -0.6194 0.0201 -0.7848
vn 0.7705 0.6371 -0.0226
vn -0.9821 -0.0006 0.1882
vn 0.7417 -0.6332 0.2210
vn 0.5143 0.5361 -0.6694
vn 0.7761 -0.5361 -0.3320
vn -0.0246 0.6323 -0.7743
vn 0.1715 -0.0009 0.9852
vn -0.5237 0.0113 0.8518
vn 0.2217 -0.6324 -0.7423
vn -0.6694 0.5361 -0.5143
vn -0.3320 -0.5361 -0.7761
vn 0.8518 0.0113 0.5237
vn -0.3617 0.9308 -0.0517
vn -0.7714 0.6331 -0.0642
vn -0.7714 -0.6331 0.0642
vn -0.3115 0.6639 0.6799
vn -0.6799 0.6639 -0.3115
vn 0.0642 0.6331 -0.7714
vn -0.0642 -0.6331 -0.7714
vn 0.3115 0.6639 -0.6799
vn 0.7714 0.6331 0.0642
vn 0.7714 -0.6331 -0.0642
vn 0.6799 0.6639 0.3115
vn -0.0642 0.6331 0.7714
vn 0.0642 -0.6331 0.7714
vn -0.0000 1.0000 -0.0000
vn -0.0000 -1.0000 -0.0000
vn 0.2595 0.0756 -0.9628
vn 0.9564 0.0698 0.2836
vn -0.3149 0.0635 0.9470
vn -0.9335 0.0568 -0.3541
vn 0.0002 -1.0000 -0.0003
vn 0.5771 0.8096 0.1072
vn -0.9680 0.0009 0.2509
vn 0.5922 -0.8002 -0.0947
vn 0.5502 -0.8349 -0.0154
vn -0.9934 0.0841 0.0787
vn -0.8241 -0.0126 0.5662
vn 0.0787 0.0841 0.9934
vn 0.1072 0.8096 -0.5771
vn 0.2509 0.0009 0.9680
vn -0.0154 -0.8349 -0.5502
vn -0.0947 -0.8002 -0.5922
vn 0.5662 -0.0126 0.8241
vn 0.9934 0.0841 -0.0787
vn -0.5771 0.8096 -0.1072
vn 0.9680 0.0009 -0.2509
vn -0.5502 -0.8349 0.0154
vn -0.5922 -0.8002 0.0947
vn 0.8241 -0.0126 -0.5662
vn -0.0787 0.0841 -0.9934
vn -0.1072 0.8096 0.5771
vn -0.2509 0.0009 -0.9680
vn 0.0154 -0.8349 0.5502
vn 0.0947 -0.8002 0.5922
vn -0.5662 -0.0126 -0.8241
vn -0.0510 -0.9970 0.0580
vn 0.0771 -0.9970 0.0049
vn 0.0049 -0.9970 0.0771
vn 0.0580 -0.9970 -0.0510
vn -0.0340 0.9970 -0.0693
vn 0.0340 -0.9970 -0.0693
vn -0.0580 0.9970 -0.0510
vn -0.1092 -0.9933 -0.0373
vn 0.8315 -0.0000 -0.5556
vn -0.1092 0.9933 -0.0373
vn -0.0373 -0.9933 -0.1092
vn -0.0373 0.9933 -0.1092
vn -0.0510 -0.9970 -0.0580
vn 0.0510 -0.9970 -0.0580
vn -0.0771 -0.9970 -0.0049
vn -0.1092 -0.9933 0.0373
vn 0.5556 -0.0000 -0.8315
vn -0.1092 0.9933 0.0373
vn -0.0580 -0.9970 0.0510
vn 0.0340 0.9970 0.0693
vn -0.0340 -0.9970 0.0693
vn 0.0580 0.9970 0.0510
vn -0.0049 -0.9970 0.0771
vn -0.0771 -0.9970 0.0049
vn 0.9808 -0.0000 0.1951
vn 0.0068 1.0000 -0.0006
vn 0.0039 -1.0000 0.0022
vn -0.0211 -0.9982 -0.0555
vn 0.1089 0.9939 0.0166
vn 0.3617 -0.9308 -0.0517
vn -0.0958 0.9774 0.1882
vn 0.1438 0.9273 0.3457
vn 0.1931 0.9761 0.0996
vn 0.3466 0.9265 -0.1463
vn 0.1022 0.9752 -0.1964
vn -0.1520 0.9215 -0.3575
vn -0.1846 0.9784 -0.0929
vn -0.3335 0.9327 0.1374
vn 0.0019 0.9998 -0.0194
vn -0.0228 0.9997 -0.0022
vn -0.0025 0.9997 0.0251
vn 0.0168 0.9999 0.0017
vn -0.0381 -0.9941 0.1016
vn 0.0179 -0.9995 0.0245
vn -0.0902 -0.9952 -0.0383
vn -0.0218 -0.9996 0.0199
vn 0.0370 -0.9920 -0.1211
vn -0.0199 -0.9996 -0.0218
vn 0.1116 -0.9931 0.0371
vn 0.0245 -0.9995 -0.0179
vn -0.0386 -0.9965 0.0738
vn -0.0730 -0.9966 -0.0386
vn 0.0378 -0.9967 -0.0724
vn 0.0731 -0.9966 0.0378
vn -0.0049 -0.9970 -0.0771
vn 0.0510 -0.9970 0.0580
vn 0.0049 -0.9970 -0.0771
vn 0.0771 -0.9970 -0.0049
vn -0.0762 -0.9933 -0.0867
vn -0.0762 0.9933 -0.0867
vn 0.1763 0.9358 -0.3053
vn -0.1897 0.9173 -0.3501
vn -0.3823 0.9240 0.0109
vn -0.1948 0.9254 0.3250
vn 0.1977 0.9185 0.3425
vn 0.3697 0.9291 -0.0063
vn 0.0068 0.9999 -0.0118
vn -0.0146 0.9998 0.0118
vn -0.0039 1.0000 -0.0067
vn -0.3044 -0.9525 -0.0112
vn -0.1705 -0.9468 -0.2730
vn 0.1763 -0.9358 -0.3053
vn 0.3254 -0.9456 0.0064
vn 0.1537 -0.9516 0.2661
vn -0.1620 -0.9422 0.2933
vn -0.0204 -0.9997 -0.0118
vn -0.0039 -1.0000 0.0067
vn 0.0039 -1.0000 0.0067
vn 0.0582 -0.9983 -0.0000
vn -0.0474 -0.9946 -0.0926
vn 0.0340 -0.5838 0.8112
vn -0.2998 0.9291 0.2163
vn -0.1043 0.9937 -0.0408
vn 0.0475 0.9973 -0.0554
vt 0.00000 0.86223
vt 0.00166 0.15742
vt 0.00166 0.50460
vt 0.00346 0.81471
vt 0.01060 0.90316
vt 0.01408 0.23755
vt 0.01408 0.58474
vt 0.02581 0.82425
vt 0.03116 0.88739
vt 0.03693 0.06641
vt 0.03693 0.41359
vt 0.03846 0.78605
vt 0.03893 0.74694
vt 0.05258 0.96107
vt 0.05995 0.75755
vt 0.06318 0.94005
vt 0.06641 0.30267
vt 0.06641 0.64985
vt 0.09169 0.96154
vt 0.09684 0.70496
vt 0.10204 0.01408
vt 0.10204 0.36126
vt 0.11261 0.72552
vt 0.12035 0.99654
vt 0.12988 0.97419
vt 0.13777 0.69436
vt 0.15742 0.33794
vt 0.15742 0.68512
vt 0.16787 1.00000
vt 0.17575 0.72017
vt 0.18218 0.00166
vt 0.18218 0.34884
vt 0.18529 0.69783
vt 0.19303 0.96884
vt 0.20880 0.98940
vt 0.21395 0.73282
vt 0.23755 0.32552
vt 0.23755 0.67270
vt 0.24246 0.75432
vt 0.24568 0.93682
vt 0.25305 0.73329
vt 0.26671 0.94742
vt 0.26718 0.90831
vt 0.27319 0.03693
vt 0.27319 0.38411
vt 0.27448 0.80697
vt 0.27983 0.87012
vt 0.29504 0.79120
vt 0.30217 0.87965
vt 0.30267 0.27319
vt 0.30267 0.62037
vt 0.30564 0.83213
vt 0.31520 0.74867
vt 0.31608 0.78544
vt 0.32552 0.10204
vt 0.32552 0.44922
vt 0.33282 0.71638
vt 0.33524 0.81685
vt 0.33794 0.18218
vt 0.33794 0.52936
vt 0.34718 0.51999
vt 0.35155 0.14876
vt 0.35371 0.56651
vt 0.36011 0.23478
vt 0.36423 0.69722
vt 0.36431 0.10505
vt 0.36481 0.23283
vt 0.36659 0.44131
vt 0.36753 0.83448
vt 0.37275 0.84404
vt 0.37275 0.87304
vt 0.37275 0.90092
vt 0.37389 0.88063
vt 0.37616 0.90092
vt 0.37747 0.61381
vt 0.39493 0.84404
vt 0.39493 0.87304
vt 0.39866 0.28803
vt 0.39875 0.05148
vt 0.40101 0.69634
vt 0.40251 0.84404
vt 0.40251 0.87304
vt 0.40430 0.83359
vt 0.42015 0.37747
vt 0.42469 0.84404
vt 0.42469 0.87304
vt 0.43227 0.84404
vt 0.43227 0.87304
vt 0.43330 0.71397
vt 0.43571 0.81444
vt 0.44131 0.66737
vt 0.45223 0.32247
vt 0.45245 0.74537
vt 0.45334 0.78215
vt 0.45395 0.01763
vt 0.45445 0.84404
vt 0.45445 0.87304
vt 0.46290 0.84404
vt 0.46290 0.87304
vt 0.46290 0.88063
vt 0.46488 0.74867
vt 0.46517 0.90040
vt 0.46576 0.78544
vt 0.46631 0.88063
vt 0.46745 0.35371
vt 0.47211 0.00754
vt 0.48250 0.71638
vt 0.48491 0.81685
vt 0.48508 0.84404
vt 0.48508 0.87304
vt 0.49266 0.84404
vt 0.49266 0.87304
vt 0.49598 0.33523
vt 0.51391 0.69722
vt 0.51397 0.34718
vt 0.51484 0.84404
vt 0.51484 0.87304
vt 0.51720 0.83448
vt 0.51999 0.68678
vt 0.52243 0.84404
vt 0.52243 0.87304
vt 0.53807 0.00437
vt 0.54461 0.84404
vt 0.54461 0.87304
vt 0.55069 0.69634
vt 0.55398 0.83359
vt 0.56651 0.68025
vt 0.58001 0.32197
vt 0.58177 0.01714
vt 0.58195 0.84404
vt 0.58195 0.87304
vt 0.58196 0.32667
vt 0.58298 0.71397
vt 0.58539 0.81444
vt 0.59265 0.36659
vt 0.60213 0.74537
vt 0.60301 0.78215
vt 0.60413 0.84404
vt 0.60413 0.87304
vt 0.61258 0.70383
vt 0.61258 0.73840
vt 0.61258 0.76242
vt 0.61381 0.65649
vt 0.61531 0.70174
vt 0.61531 0.73598
vt 0.61531 0.76049
vt 0.62289 0.70361
vt 0.62289 0.73787
vt 0.62289 0.76226
vt 0.62484 0.82246
vt 0.62562 0.70156
vt 0.62562 0.73545
vt 0.62562 0.76028
vt 0.62711 0.86133
vt 0.63245 0.83795
vt 0.63320 0.70344
vt 0.63320 0.73744
vt 0.63320 0.76208
vt 0.63521 0.28812
vt 0.63530 0.05157
vt 0.63593 0.70143
vt 0.63593 0.73501
vt 0.63593 0.76006
vt 0.64227 0.80899
vt 0.64351 0.70300
vt 0.64351 0.73626
vt 0.64351 0.76144
vt 0.64365 0.86640
vt 0.64624 0.70107
vt 0.64624 0.73382
vt 0.64624 0.75934
vt 0.64735 0.79245
vt 0.65649 0.42015
vt 0.65712 0.88384
vt 0.66210 0.87647
vt 0.66737 0.59265
vt 0.66915 0.10677
vt 0.66964 0.23459
vt 0.67073 0.79779
vt 0.67385 0.10482
vt 0.68025 0.46745
vt 0.68241 0.19092
vt 0.68312 0.87597
vt 0.68622 0.79017
vt 0.68678 0.51397
vt 0.69436 0.15011
vt 0.69436 0.32071
vt 0.69436 0.38186
vt 0.69436 0.46285
vt 0.69436 0.53931
vt 0.69436 0.58473
vt 0.69436 0.64224
vt 0.69436 0.71592
vt 0.69436 0.74539
vt 0.69599 0.88156
vt 0.69716 0.68619
vt 0.69777 0.56210
vt 0.69777 0.59028
vt 0.69777 0.63771
vt 0.69777 0.73352
vt 0.69969 0.80761
vt 0.70023 0.10824
vt 0.70107 0.86502
vt 0.70496 0.20880
vt 0.70536 0.58623
vt 0.70536 0.64554
vt 0.70536 0.71764
vt 0.70536 0.74513
vt 0.70815 0.68907
vt 0.70877 0.56210
vt 0.70877 0.59219
vt 0.70877 0.64098
vt 0.70877 0.73415
vt 0.71089 0.83606
vt 0.71142 0.31322
vt 0.71142 0.37364
vt 0.71142 0.47100
vt 0.71142 0.54394
vt 0.71623 0.81268
vt 0.71850 0.85155
vt 0.71901 0.32087
vt 0.71901 0.38293
vt 0.71901 0.46400
vt 0.71901 0.53954
vt 0.71961 0.67839
vt 0.72017 0.12988
vt 0.72067 0.60024
vt 0.72106 0.18024
vt 0.72162 0.06567
vt 0.72242 0.65555
vt 0.72848 0.25024
vt 0.73000 0.58507
vt 0.73000 0.64316
vt 0.73000 0.71644
vt 0.73000 0.74537
vt 0.73046 0.80429
vt 0.73046 0.83691
vt 0.73046 0.86592
vt 0.73280 0.68702
vt 0.73341 0.56198
vt 0.73341 0.59075
vt 0.73341 0.63861
vt 0.73341 0.73374
vt 0.73607 0.31322
vt 0.73607 0.37459
vt 0.73607 0.47210
vt 0.73607 0.54407
vt 0.73861 0.08302
vt 0.74090 0.82345
vt 0.74115 0.22641
vt 0.74365 0.32029
vt 0.74365 0.37903
vt 0.74365 0.45957
vt 0.74365 0.53806
vt 0.74426 0.67672
vt 0.74531 0.59903
vt 0.74619 0.78632
vt 0.74706 0.65383
vt 0.74976 0.03412
vt 0.75264 0.83691
vt 0.75264 0.86592
vt 0.75525 0.67257
vt 0.75631 0.59655
vt 0.75806 0.64970
vt 0.76003 0.27838
vt 0.76022 0.89532
vt 0.76071 0.31322
vt 0.76071 0.37112
vt 0.76071 0.46781
vt 0.76071 0.54293
vt 0.76160 0.79980
vt 0.76227 0.87350
vt 0.76431 0.89532
vt 0.76829 0.32107
vt 0.76829 0.38426
vt 0.76829 0.46535
vt 0.76829 0.53960
vt 0.76890 0.67555
vt 0.76996 0.59828
vt 0.77171 0.65265
vt 0.77171 0.78824
vt 0.77171 0.82452
vt 0.77359 0.04679
vt 0.77738 0.26139
vt 0.77929 0.58358
vt 0.77929 0.64027
vt 0.77929 0.71438
vt 0.77929 0.74455
vt 0.78104 0.80096
vt 0.78209 0.68428
vt 0.78270 0.56157
vt 0.78270 0.58896
vt 0.78270 0.63576
vt 0.78270 0.73236
vt 0.78536 0.31322
vt 0.78536 0.37578
vt 0.78536 0.47338
vt 0.78536 0.54398
vt 0.78944 0.80386
vt 0.79029 0.56764
vt 0.79029 0.63787
vt 0.79120 0.01060
vt 0.79294 0.35223
vt 0.79294 0.41450
vt 0.79294 0.46052
vt 0.79294 0.52324
vt 0.79329 0.83791
vt 0.79370 0.65988
vt 0.79384 0.59367
vt 0.79439 0.78343
vt 0.79502 0.76614
vt 0.79537 0.82403
vt 0.79635 0.31617
vt 0.79635 0.38153
vt 0.79635 0.42497
vt 0.79643 0.48966
vt 0.79711 0.56157
vt 0.79711 0.62322
vt 0.79976 0.33772
vt 0.79976 0.40828
vt 0.79976 0.44614
vt 0.79976 0.51689
vt 0.80060 0.68847
vt 0.80060 0.74326
vt 0.80261 0.29977
vt 0.80265 0.72110
vt 0.80469 0.56700
vt 0.80469 0.63525
vt 0.80469 0.74326
vt 0.80735 0.44457
vt 0.80735 0.48899
vt 0.80735 0.52142
vt 0.80810 0.65879
vt 0.80818 0.59129
vt 0.80890 0.76821
vt 0.80905 0.86122
vt 0.80905 0.89022
vt 0.80939 0.46031
vt 0.81104 0.70763
vt 0.81144 0.44457
vt 0.81152 0.56157
vt 0.81152 0.62022
vt 0.81247 0.50226
vt 0.81633 0.67050
vt 0.81902 0.35786
vt 0.81902 0.39023
vt 0.81902 0.39895
vt 0.81902 0.43125
vt 0.81910 0.59930
vt 0.81910 0.62831
vt 0.81976 0.02670
vt 0.82005 0.48833
vt 0.82005 0.51733
vt 0.82005 0.52491
vt 0.82005 0.55392
vt 0.82080 0.84101
vt 0.82414 0.37092
vt 0.82414 0.41184
vt 0.82425 0.27983
vt 0.82811 0.85189
vt 0.83078 0.63589
vt 0.83123 0.86122
vt 0.83123 0.89022
vt 0.83173 0.35423
vt 0.83173 0.38323
vt 0.83173 0.39082
vt 0.83173 0.41982
vt 0.83174 0.68398
vt 0.83197 0.75388
vt 0.83283 0.66273
vt 0.83487 0.63589
vt 0.83882 0.86122
vt 0.83882 0.89022
vt 0.83928 0.76476
vt 0.84128 0.59930
vt 0.84128 0.62831
vt 0.84185 0.67242
vt 0.84185 0.70870
vt 0.84223 0.48833
vt 0.84223 0.51733
vt 0.84223 0.52491
vt 0.84223 0.55392
vt 0.84448 0.30564
vt 0.84886 0.59930
vt 0.84886 0.62831
vt 0.84943 0.67050
vt 0.84943 0.69950
vt 0.84943 0.70708
vt 0.84943 0.73609
vt 0.84981 0.48833
vt 0.84981 0.51733
vt 0.84981 0.52491
vt 0.84981 0.55392
vt 0.84989 0.00000
vt 0.85118 0.83756
vt 0.85391 0.38323
vt 0.85391 0.39082
vt 0.85391 0.41982
vt 0.85978 0.44457
vt 0.85978 0.47357
vt 0.85986 0.56157
vt 0.85986 0.59058
vt 0.86100 0.89022
vt 0.86149 0.31322
vt 0.86149 0.34223
vt 0.86149 0.39082
vt 0.86149 0.41982
vt 0.86471 0.78174
vt 0.86506 0.83963
vt 0.86678 0.76786
vt 0.86816 0.81213
vt 0.86858 0.86122
vt 0.87012 0.02581
vt 0.87063 0.89016
vt 0.87104 0.59930
vt 0.87104 0.62831
vt 0.87161 0.69950
vt 0.87161 0.70708
vt 0.87161 0.73609
vt 0.87199 0.48833
vt 0.87199 0.52491
vt 0.87199 0.55392
vt 0.87267 0.86122
vt 0.87460 0.27894
vt 0.87904 0.80481
vt 0.88196 0.44457
vt 0.88196 0.47357
vt 0.88204 0.56157
vt 0.88204 0.59058
vt 0.88367 0.31322
vt 0.88367 0.34223
vt 0.88367 0.39082
vt 0.88367 0.41982
vt 0.88837 0.75214
vt 0.89042 0.77961
vt 0.89125 0.42873
vt 0.89176 0.00587
vt 0.89193 0.88196
vt 0.89246 0.75214
vt 0.89330 0.40772
vt 0.89398 0.86122
vt 0.89535 0.42873
vt 0.89603 0.88196
vt 0.90316 0.29504
vt 0.91698 0.04425
vt 0.92078 0.25885
vt 0.93433 0.02726
vt 0.94460 0.27152
vt 0.95321 0.07923
vt 0.95575 0.22262
vt 0.96588 0.05540
vt 0.97274 0.23997
vt 0.97330 0.12540
vt 0.97419 0.17575
vt 0.98940 0.09684
vt 0.99413 0.19739
vt 1.00000 0.15552
s 1
usemtl FPS_concrete
f 10/251/4 11/267/5 8/268/6
f 11/218/5 13/189/101 12/217/102
f 12/217/102 15/188/103 14/216/9
f 15/188/103 16/187/7 14/216/9
f 16/187/7 17/215/8 14/216/9
f 17/298/8 19/276/104 18/297/105
f 18/297/105 21/275/106 20/296/12
f 21/275/106 22/274/10 20/296/12
f 22/274/10 23/295/11 20/296/12
f 23/247/11 1/223/107 24/246/108
f 26/177/13 27/160/14 25/180/15
f 3/222/99 4/221/1 2/245/3
f 31/95/16 32/79/17 29/106/18
f 36/67/19 37/78/20 34/64/21
f 4/221/1 5/244/2 2/245/3
f 41/128/22 42/159/23 39/132/24
f 5/270/2 7/253/97 6/269/98
f 6/269/98 9/252/100 8/268/6
f 9/252/100 10/251/4 8/268/6
s 0
f 18/32/110 2/51/110 11/7/110
f 3/55/109 19/27/109 10/10/109
s 1
f 25/357/15 43/346/111 26/345/13
f 29/106/18 30/122/112 31/95/16
f 34/358/21 35/348/113 36/347/19
f 39/343/24 40/332/114 41/331/22
s 0
f 27/160/109 42/159/109 37/78/109
f 44/181/115 28/127/115 33/63/115
s 1
f 11/218/5 10/190/4 13/189/101
f 12/217/102 13/189/101 15/188/103
f 17/298/8 16/277/7 19/276/104
f 18/297/105 19/276/104 21/275/106
f 23/247/11 22/224/10 1/223/107
f 24/246/108 3/222/99 2/245/3
f 5/270/2 4/254/1 7/253/97
f 6/269/98 7/253/97 9/252/100
s 0
f 10/10/109 7/31/109 3/55/109
f 10/10/109 9/21/109 7/31/109
f 11/7/110 12/3/110 14/11/110
f 11/7/110 14/11/110 18/32/110
f 14/11/110 17/22/110 18/32/110
f 15/6/109 13/2/109 10/10/109
f 18/32/110 20/45/110 23/56/110
f 18/32/110 23/56/110 2/51/110
f 19/27/109 15/6/109 10/10/109
f 19/27/109 16/17/109 15/6/109
f 2/51/110 5/38/110 6/28/110
f 2/51/110 6/28/110 11/7/110
f 22/50/109 21/37/109 19/27/109
f 23/56/110 24/60/110 2/51/110
f 25/176/187 27/143/187 28/127/187
f 27/160/174 26/177/174 43/182/174
f 27/160/180 43/182/180 42/159/180
f 28/127/188 30/119/188 29/91/188
f 28/127/193 29/91/193 33/63/193
f 29/91/189 32/75/189 33/63/189
f 3/55/109 1/59/109 22/50/109
f 3/55/109 22/50/109 19/27/109
f 30/122/173 28/129/173 27/160/173
f 32/79/172 31/95/172 30/122/172
f 32/79/179 30/122/179 27/160/179
f 33/63/115 38/105/115 44/181/115
f 33/63/182 35/61/182 34/68/182
f 33/63/190 34/68/190 38/105/190
f 34/68/183 37/84/183 38/105/183
f 35/62/171 33/66/171 32/79/171
f 37/78/109 32/79/109 27/160/109
f 37/78/170 36/67/170 35/62/170
f 37/78/178 35/62/178 32/79/178
f 38/105/184 40/115/184 39/135/184
f 38/105/191 39/135/191 44/181/191
f 39/135/185 42/173/185 44/181/185
f 40/113/177 38/92/177 37/78/177
f 42/159/176 41/128/176 40/113/176
f 42/159/181 40/113/181 37/78/181
f 43/182/175 44/178/175 42/159/175
f 44/181/186 43/185/186 25/176/186
f 44/181/192 25/176/192 28/127/192
f 6/28/110 8/18/110 11/7/110
f 7/31/109 4/44/109 3/55/109
s 1
f 24/246/108 1/223/107 3/222/99
usemtl FPS_gunmetal_paint
f 45/42/120 46/40/116 92/43/46
f 46/286/116 47/293/119 92/290/46
f 46/286/116 49/292/118 47/293/119
f 46/286/116 51/285/27 49/292/118
f 46/40/116 45/42/120 48/35/117
f 46/40/116 48/35/117 51/34/27
f 47/283/119 45/259/120 91/302/48
f 47/283/119 48/229/117 45/259/120
f 47/283/119 49/248/118 48/229/117
f 48/35/117 50/29/121 51/34/27
f 49/248/118 50/202/121 48/229/117
f 49/248/118 53/226/26 50/202/121
f 50/29/121 52/24/29 54/25/25
f 50/29/121 54/25/25 51/34/27
f 51/285/27 53/291/26 49/292/118
f 52/24/29 56/19/28 54/25/25
f 52/24/29 57/14/122 56/19/28
f 53/226/26 52/186/29 50/202/121
f 54/234/25 53/243/26 51/235/27
f 54/234/25 56/239/28 53/243/26
f 55/258/30 57/255/122 52/256/29
f 56/228/28 52/186/29 53/226/26
f 56/228/28 55/204/30 52/186/29
f 56/228/28 59/250/125 55/204/30
f 57/14/122 58/16/123 56/19/28
f 58/16/123 57/14/122 60/5/124
f 58/16/123 60/5/124 63/9/33
f 58/233/123 59/242/125 56/239/28
f 58/233/123 61/241/126 59/242/125
f 58/233/123 63/232/33 61/241/126
f 59/250/125 57/231/122 55/204/30
f 59/250/125 60/265/124 57/231/122
f 59/250/125 61/284/126 60/265/124
f 60/5/124 62/1/127 63/9/33
f 61/284/126 62/325/127 60/265/124
f 61/284/126 65/359/32 62/325/127
f 62/1/127 64/4/35 66/8/31
f 62/1/127 66/8/31 63/9/33
f 63/232/33 65/240/32 61/241/126
f 64/4/35 68/12/34 66/8/31
f 64/4/35 69/13/128 68/12/34
f 65/359/32 64/383/35 62/325/127
f 66/207/31 65/213/32 63/208/33
f 66/207/31 68/209/34 65/213/32
f 67/230/36 69/225/128 64/227/35
f 68/424/34 64/383/35 65/359/32
f 68/424/34 67/444/36 64/383/35
f 68/424/34 71/446/131 67/444/36
f 69/13/128 70/15/129 68/12/34
f 70/15/129 69/13/128 72/20/130
f 70/15/129 72/20/130 75/23/39
f 70/206/129 71/212/131 68/209/34
f 70/206/129 73/211/132 71/212/131
f 70/206/129 75/205/39 73/211/132
f 71/446/131 69/448/128 67/444/36
f 71/446/131 72/452/130 69/448/128
f 71/446/131 73/450/132 72/452/130
f 72/20/130 74/26/133 75/23/39
f 73/450/132 74/456/133 72/452/130
f 73/450/132 77/454/38 74/456/133
f 74/26/133 76/33/41 78/30/37
f 74/26/133 78/30/37 75/23/39
f 75/205/39 77/210/38 73/211/132
f 76/33/41 80/36/40 78/30/37
f 76/33/41 81/41/134 80/36/40
f 77/454/38 76/457/41 74/456/133
f 78/193/37 77/200/38 75/194/39
f 78/193/37 80/196/40 77/200/38
f 79/280/42 81/278/134 76/279/41
f 80/453/40 76/457/41 77/454/38
f 80/453/40 79/455/42 76/457/41
f 80/453/40 83/449/137 79/455/42
f 81/41/134 82/39/135 80/36/40
f 82/192/135 83/199/137 80/196/40
f 82/192/135 85/198/138 83/199/137
f 82/192/135 87/191/45 85/198/138
f 82/39/135 81/41/134 84/48/136
f 82/39/135 84/48/136 87/46/45
f 83/449/137 81/451/134 79/455/42
f 83/449/137 84/447/136 81/451/134
f 83/449/137 85/445/138 84/447/136
f 84/48/136 86/52/139 87/46/45
f 85/445/138 86/437/139 84/447/136
f 85/445/138 89/413/44 86/437/139
f 86/52/139 88/49/47 90/47/43
f 86/52/139 90/47/43 87/46/45
f 87/191/45 89/197/44 85/198/138
f 88/49/47 45/42/120 92/43/46
f 88/49/47 92/43/46 90/47/43
f 89/413/44 88/394/47 86/437/139
f 90/287/43 89/294/44 87/288/45
f 90/287/43 92/290/46 89/294/44
f 91/264/48 45/262/120 88/263/47
f 92/351/46 47/283/119 91/302/48
f 92/351/46 88/394/47 89/413/44
f 92/351/46 91/302/48 88/394/47
s 0
usemtl FPS_hazard
f 101/349/142 104/376/142 103/350/142
f 101/349/194 102/375/194 104/376/194
f 106/85/143 107/82/143 105/81/143
f 106/85/158 108/86/158 107/82/158
f 108/88/144 105/96/144 107/97/144
f 108/88/159 106/87/159 105/96/159
f 110/99/145 111/109/145 109/110/145
f 110/99/160 112/98/160 111/109/160
f 112/116/146 109/112/146 111/111/146
f 112/116/161 110/117/161 109/112/161
f 113/419/110 114/389/110 117/388/110
f 113/419/147 117/388/147 115/418/147
f 116/266/49 113/272/49 115/273/49
f 117/338/148 116/330/148 115/340/148
f 117/420/149 113/391/149 116/390/149
f 119/438/50 120/441/50 118/443/50
f 120/393/110 122/392/110 121/421/110
f 120/393/150 121/421/150 118/422/150
f 121/372/151 120/403/151 119/373/151
f 121/435/51 119/434/51 118/439/51
f 124/121/152 125/123/152 123/124/152
f 124/121/195 126/120/195 125/123/195
f 127/363/140 128/337/140 130/336/140
f 127/363/153 130/336/153 129/362/153
f 132/353/141 134/352/141 133/379/141
f 132/353/154 133/379/154 131/380/154
f 136/436/51 137/440/51 135/442/51
f 137/355/110 139/354/110 138/381/110
f 137/355/155 138/381/155 135/382/155
f 138/364/157 137/396/157 136/365/157
f 138/370/156 136/361/156 135/371/156
f 141/131/143 143/130/143 142/138/143
f 141/131/158 142/138/158 140/139/158
f 143/426/144 141/427/144 140/400/144
f 143/426/159 140/400/159 142/399/159
f 145/428/145 147/429/145 146/402/145
f 145/428/160 146/402/160 144/401/160
f 147/405/146 145/404/146 144/430/146
f 147/405/161 144/430/161 146/431/161
f 149/397/162 150/367/162 148/366/162
f 149/397/196 151/398/196 150/367/196
f 152/237/163 155/261/163 154/238/163
f 152/237/197 153/260/197 155/261/197
f 157/414/164 160/412/164 159/423/164
f 157/415/110 158/385/110 156/384/110
f 157/415/198 159/416/198 158/385/198
f 158/417/199 160/387/199 157/386/199
f 160/324/52 158/326/52 159/329/52
f 93/406/140 96/433/140 95/407/140
f 93/406/153 94/432/153 96/433/153
f 98/76/141 99/71/141 97/70/141
f 98/76/154 100/77/154 99/71/154
s 1
usemtl FPS_gunmetal
f 163/303/53 162/319/54 161/314/55
f 163/303/53 164/313/58 162/319/54
f 166/328/56 165/342/57 164/333/58
f 166/328/56 167/334/61 165/342/57
f 169/306/59 170/316/64 168/322/60
f 169/327/59 168/341/60 167/334/61
f 172/305/62 171/321/63 170/316/64
f 172/305/62 173/315/67 171/321/63
f 175/301/65 174/318/66 173/308/67
f 175/301/65 176/309/70 174/318/66
f 178/300/68 177/317/69 176/309/70
s 0
f 176/83/165 170/53/165 164/89/165
s 1
f 178/304/68 161/314/55 177/320/69
s 0
f 161/137/166 167/108/166 173/114/166
f 161/137/211 162/134/211 164/126/211
f 161/137/216 164/126/216 167/108/216
f 161/94/201 178/90/201 176/83/201
f 164/126/212 165/118/212 167/108/212
f 164/89/200 163/93/200 161/94/200
f 164/89/206 161/94/206 176/83/206
f 167/108/213 168/103/213 170/101/213
f 167/108/217 170/101/217 173/114/217
f 167/65/205 166/80/205 164/89/205
f 170/101/214 171/107/214 173/114/214
f 170/53/204 169/57/204 167/65/204
f 170/53/208 167/65/208 164/89/208
f 173/114/209 174/125/209 176/133/209
f 173/114/215 176/133/215 161/137/215
f 173/58/203 172/54/203 170/53/203
f 176/133/210 177/136/210 161/137/210
f 176/83/202 175/69/202 173/58/202
f 176/83/207 173/58/207 170/53/207
s 1
usemtl FPS_signal
f 179/409/73 181/395/72 203/411/95
f 181/164/72 180/150/74 202/172/75
f 181/164/72 202/172/75 203/179/95
f 182/360/71 181/395/72 179/409/73
f 185/307/76 187/312/77 184/356/78
f 187/168/77 183/154/79 184/155/78
f 187/168/77 186/174/81 183/154/79
f 189/289/80 187/312/77 185/307/76
f 191/183/82 186/174/81 188/175/83
f 192/311/84 194/335/85 191/310/82
f 194/203/85 190/195/86 191/183/82
f 194/203/85 193/220/88 190/195/86
f 195/369/87 194/335/85 192/311/84
f 198/410/89 200/408/90 197/374/91
f 200/201/90 196/219/92 197/214/91
f 200/201/90 199/184/94 196/219/92
f 201/425/93 200/408/90 198/410/89
s 0
f 210/72/96 205/73/96 204/74/96
s 1
f 179/166/73 180/171/74 182/167/71
f 181/164/72 184/155/78 180/150/74
f 182/147/71 183/152/79 185/148/76
f 182/360/71 184/356/78 181/395/72
f 182/360/71 185/307/76 184/356/78
f 184/155/78 183/154/79 180/150/74
f 185/148/76 186/153/81 189/149/80
f 187/168/77 188/175/83 186/174/81
f 189/140/80 190/145/86 192/141/84
f 189/289/80 188/299/83 187/312/77
f 189/289/80 191/310/82 188/299/83
f 189/289/80 192/311/84 191/310/82
f 191/183/82 190/195/86 186/174/81
f 192/141/84 193/146/88 195/142/87
f 194/203/85 197/214/91 193/220/88
f 195/156/87 196/162/92 198/157/89
f 195/369/87 197/374/91 194/335/85
f 195/369/87 198/410/89 197/374/91
f 197/214/91 196/219/92 193/220/88
f 198/157/89 199/163/94 201/158/93
f 200/201/90 203/179/95 199/184/94
f 201/165/93 202/170/75 179/166/73
f 201/425/93 179/409/73 203/411/95
f 201/425/93 203/411/95 200/408/90
f 203/179/95 202/172/75 199/184/94
s 0
f 204/249/167 206/257/167 207/271/167
f 206/102/169 208/100/169 207/104/169
f 210/368/168 209/378/168 206/323/168
s 1
f 179/166/73 202/170/75 180/171/74
f 182/147/71 180/151/74 183/152/79
f 185/148/76 183/152/79 186/153/81
f 189/140/80 186/144/81 190/145/86
f 192/141/84 190/145/86 193/146/88
f 195/156/87 193/161/88 196/162/92
f 198/157/89 196/162/92 199/163/94
f 201/165/93 199/169/94 202/170/75
s 0
f 204/249/219 205/236/219 206/257/219
f 206/323/223 205/344/223 210/368/223
f 207/271/220 208/281/220 204/249/220
f 208/281/218 209/282/218 204/249/218
f 209/378/222 208/339/222 206/323/222
f 210/368/221 204/377/221 209/378/221
