# Blender 4.0.2
# www.blender.org
mtllib target_dummy.mtl
o target_dummy
v 0.000000 0.000000 0.340000
v 0.000000 0.080000 0.340000
v -0.105066 0.000000 0.323359
v -0.105066 0.080000 0.323359
v -0.199847 0.000000 0.275066
v -0.199847 0.080000 0.275066
v -0.275066 0.000000 0.199847
v -0.275066 0.080000 0.199847
v -0.323359 0.000000 0.105066
v -0.323359 0.080000 0.105066
v -0.340000 0.000000 0.000000
v -0.340000 0.080000 0.000000
v -0.323359 0.000000 -0.105066
v -0.323359 0.080000 -0.105066
v -0.275066 0.000000 -0.199847
v -0.275066 0.080000 -0.199847
v -0.199847 0.000000 -0.275066
v -0.199847 0.080000 -0.275066
v -0.105066 0.000000 -0.323359
v -0.105066 0.080000 -0.323359
v 0.000000 0.000000 -0.340000
v 0.000000 0.080000 -0.340000
v 0.105066 0.000000 -0.323359
v 0.105066 0.080000 -0.323359
v 0.199847 0.000000 -0.275066
v 0.199847 0.080000 -0.275066
v 0.275066 0.000000 -0.199847
v 0.275066 0.080000 -0.199847
v 0.323359 0.000000 -0.105066
v 0.323359 0.080000 -0.105066
v 0.340000 0.000000 0.000000
v 0.340000 0.080000 0.000000
v 0.323359 0.000000 0.105066
v 0.323359 0.080000 0.105066
v 0.275066 0.000000 0.199847
v 0.275066 0.080000 0.199847
v 0.199847 0.000000 0.275066
v 0.199847 0.080000 0.275066
v 0.105066 0.000000 0.323359
v 0.105066 0.080000 0.323359
v 0.000000 0.080000 0.340000
v 0.000000 0.110000 0.310000
v -0.105066 0.080000 0.323359
v -0.095795 0.110000 0.294828
v -0.199847 0.080000 0.275066
v -0.182213 0.110000 0.250795
v -0.275066 0.080000 0.199847
v -0.250795 0.110000 0.182213
v -0.323359 0.080000 0.105066
v -0.294828 0.110000 0.095795
v -0.340000 0.080000 0.000000
v -0.310000 0.110000 0.000000
v -0.323359 0.080000 -0.105066
v -0.294828 0.110000 -0.095795
v -0.275066 0.080000 -0.199847
v -0.250795 0.110000 -0.182213
v -0.199847 0.080000 -0.275066
v -0.182213 0.110000 -0.250795
v -0.105066 0.080000 -0.323359
v -0.095795 0.110000 -0.294828
v 0.000000 0.080000 -0.340000
v 0.000000 0.110000 -0.310000
v 0.105066 0.080000 -0.323359
v 0.095795 0.110000 -0.294828
v 0.199847 0.080000 -0.275066
v 0.182213 0.110000 -0.250795
v 0.275066 0.080000 -0.199847
v 0.250795 0.110000 -0.182213
v 0.323359 0.080000 -0.105066
v 0.294828 0.110000 -0.095795
v 0.340000 0.080000 0.000000
v 0.310000 0.110000 0.000000
v 0.323359 0.080000 0.105066
v 0.294828 0.110000 0.095795
v 0.275066 0.080000 0.199847
v 0.250795 0.110000 0.182213
v 0.199847 0.080000 0.275066
v 0.182213 0.110000 0.250795
v 0.105066 0.080000 0.323359
v 0.095795 0.110000 0.294828
v 0.000000 0.100000 0.045000
v 0.000000 0.920000 0.045000
v -0.026450 0.100000 0.036406
v -0.026450 0.920000 0.036406
v -0.042798 0.100000 0.013906
v -0.042798 0.920000 0.013906
v -0.042798 0.100000 -0.013906
v -0.042798 0.920000 -0.013906
v -0.026450 0.100000 -0.036406
v -0.026450 0.920000 -0.036406
v 0.000000 0.100000 -0.045000
v 0.000000 0.920000 -0.045000
v 0.026450 0.100000 -0.036406
v 0.026450 0.920000 -0.036406
v 0.042798 0.100000 -0.013906
v 0.042798 0.920000 -0.013906
v 0.042798 0.100000 0.013906
v 0.042798 0.920000 0.013906
v 0.026450 0.100000 0.036406
v 0.026450 0.920000 0.036406
v 0.060000 0.840000 -0.030000
v 0.060000 0.860000 -0.050000
v 0.080000 0.860000 -0.030000
v 0.060000 0.900000 -0.050000
v 0.060000 0.920000 -0.030000
v 0.080000 0.900000 -0.030000
v 0.060000 0.840000 0.030000
v 0.080000 0.860000 0.030000
v 0.060000 0.860000 0.050000
v 0.060000 0.920000 0.030000
v 0.060000 0.900000 0.050000
v 0.080000 0.900000 0.030000
v -0.060000 0.840000 -0.030000
v -0.080000 0.860000 -0.030000
v -0.060000 0.860000 -0.050000
v -0.060000 0.920000 -0.030000
v -0.060000 0.900000 -0.050000
v -0.080000 0.900000 -0.030000
v -0.060000 0.840000 0.030000
v -0.060000 0.860000 0.050000
v -0.080000 0.860000 0.030000
v -0.060000 0.920000 0.030000
v -0.080000 0.900000 0.030000
v -0.060000 0.900000 0.050000
v 0.202967 0.919779 -0.020000
v 0.182776 0.920000 -0.040000
v 0.180000 0.900000 -0.020000
v -0.180000 0.900000 -0.020000
v -0.182776 0.920000 -0.040000
v -0.202967 0.919779 -0.020000
v -0.257033 1.280221 -0.020000
v -0.239752 1.299835 -0.040000
v -0.256712 1.319728 -0.020000
v -0.243288 1.400272 -0.020000
v -0.222092 1.405795 -0.040000
v -0.221538 1.427692 -0.020000
v -0.138462 1.462308 -0.020000
v -0.116000 1.450000 -0.040000
v -0.100000 1.470000 -0.020000
v 0.100000 1.470000 -0.020000
v 0.116000 1.450000 -0.040000
v 0.138462 1.462308 -0.020000
v 0.221538 1.427692 -0.020000
v 0.222092 1.405795 -0.040000
v 0.243288 1.400272 -0.020000
v 0.257033 1.280221 -0.020000
v 0.256712 1.319728 -0.020000
v 0.239752 1.299835 -0.040000
v 0.202967 0.919779 0.020000
v 0.180000 0.900000 0.020000
v 0.182776 0.920000 0.040000
v -0.202967 0.919779 0.020000
v -0.182776 0.920000 0.040000
v -0.180000 0.900000 0.020000
v -0.256712 1.319728 0.020000
v -0.239752 1.299835 0.040000
v -0.257033 1.280221 0.020000
v -0.221538 1.427692 0.020000
v -0.222092 1.405795 0.040000
v -0.243288 1.400272 0.020000
v -0.100000 1.470000 0.020000
v -0.116000 1.450000 0.040000
v -0.138462 1.462308 0.020000
v 0.138462 1.462308 0.020000
v 0.116000 1.450000 0.040000
v 0.100000 1.470000 0.020000
v 0.243288 1.400272 0.020000
v 0.222092 1.405795 0.040000
v 0.221538 1.427692 0.020000
v 0.257033 1.280221 0.020000
v 0.239752 1.299835 0.040000
v 0.256712 1.319728 0.020000
v 0.180000 0.930000 -0.042000
v 0.145000 0.930000 -0.042000
v 0.075000 1.000000 -0.042000
v 0.110000 1.000000 -0.042000
v 0.180000 0.930000 0.042000
v 0.145000 0.930000 0.042000
v 0.075000 1.000000 0.042000
v 0.110000 1.000000 0.042000
v 0.090000 0.930000 -0.042000
v 0.055000 0.930000 -0.042000
v -0.015000 1.000000 -0.042000
v 0.020000 1.000000 -0.042000
v 0.090000 0.930000 0.042000
v 0.055000 0.930000 0.042000
v -0.015000 1.000000 0.042000
v 0.020000 1.000000 0.042000
v 0.000000 0.930000 -0.042000
v -0.035000 0.930000 -0.042000
v -0.105000 1.000000 -0.042000
v -0.070000 1.000000 -0.042000
v 0.000000 0.930000 0.042000
v -0.035000 0.930000 0.042000
v -0.105000 1.000000 0.042000
v -0.070000 1.000000 0.042000
v 0.294717 0.959116 -0.015000
v 0.297111 0.978972 -0.035000
v 0.316967 0.976578 -0.015000
v 0.342602 1.356239 -0.035000
v 0.344996 1.376096 -0.015000
v 0.362458 1.353845 -0.015000
v 0.294717 0.959116 0.015000
v 0.316967 0.976578 0.015000
v 0.297111 0.978972 0.035000
v 0.344996 1.376096 0.015000
v 0.342602 1.356239 0.035000
v 0.362458 1.353845 0.015000
v 0.255004 0.963904 -0.015000
v 0.237542 0.986155 -0.015000
v 0.257399 0.983761 -0.035000
v 0.305283 1.380884 -0.015000
v 0.302889 1.361028 -0.035000
v 0.283033 1.363422 -0.015000
v 0.255004 0.963904 0.015000
v 0.257399 0.983761 0.035000
v 0.237542 0.986155 0.015000
v 0.305283 1.380884 0.015000
v 0.283033 1.363422 0.015000
v 0.302889 1.361028 0.035000
v -0.255004 0.963904 -0.015000
v -0.257399 0.983761 -0.035000
v -0.237542 0.986155 -0.015000
v -0.302889 1.361028 -0.035000
v -0.305283 1.380884 -0.015000
v -0.283033 1.363422 -0.015000
v -0.255004 0.963904 0.015000
v -0.237542 0.986155 0.015000
v -0.257399 0.983761 0.035000
v -0.305283 1.380884 0.015000
v -0.302889 1.361028 0.035000
v -0.283033 1.363422 0.015000
v -0.294717 0.959116 -0.015000
v -0.316967 0.976578 -0.015000
v -0.297111 0.978972 -0.035000
v -0.344996 1.376096 -0.015000
v -0.342602 1.356239 -0.035000
v -0.362458 1.353845 -0.015000
v -0.294717 0.959116 0.015000
v -0.297111 0.978972 0.035000
v -0.316967 0.976578 0.015000
v -0.344996 1.376096 0.015000
v -0.362458 1.353845 0.015000
v -0.342602 1.356239 0.035000
v 0.000000 1.450000 0.040000
v 0.000000 1.570000 0.040000
v -0.023511 1.450000 0.032361
v -0.023511 1.570000 0.032361
v -0.038042 1.450000 0.012361
v -0.038042 1.570000 0.012361
v -0.038042 1.450000 -0.012361
v -0.038042 1.570000 -0.012361
v -0.023511 1.450000 -0.032361
v -0.023511 1.570000 -0.032361
v 0.000000 1.450000 -0.040000
v 0.000000 1.570000 -0.040000
v 0.023511 1.450000 -0.032361
v 0.023511 1.570000 -0.032361
v 0.038042 1.450000 -0.012361
v 0.038042 1.570000 -0.012361
v 0.038042 1.450000 0.012361
v 0.038042 1.570000 0.012361
v 0.023511 1.450000 0.032361
v 0.023511 1.570000 0.032361
v 0.080000 1.560000 -0.010000
v 0.080000 1.590000 -0.040000
v 0.110000 1.590000 -0.010000
v 0.080000 1.770000 -0.040000
v 0.080000 1.800000 -0.010000
v 0.110000 1.770000 -0.010000
v 0.080000 1.560000 0.010000
v 0.110000 1.590000 0.010000
v 0.080000 1.590000 0.040000
v 0.080000 1.800000 0.010000
v 0.080000 1.770000 0.040000
v 0.110000 1.770000 0.010000
v -0.080000 1.560000 -0.010000
v -0.110000 1.590000 -0.010000
v -0.080000 1.590000 -0.040000
v -0.080000 1.800000 -0.010000
v -0.080000 1.770000 -0.040000
v -0.110000 1.770000 -0.010000
v -0.080000 1.560000 0.010000
v -0.080000 1.590000 0.040000
v -0.110000 1.590000 0.010000
v -0.080000 1.800000 0.010000
v -0.110000 1.770000 0.010000
v -0.080000 1.770000 0.040000
v 0.070000 1.680000 -0.033000
v 0.070000 1.690000 -0.043000
v 0.080000 1.690000 -0.033000
v 0.070000 1.710000 -0.043000
v 0.070000 1.720000 -0.033000
v 0.080000 1.710000 -0.033000
v 0.070000 1.680000 0.033000
v 0.080000 1.690000 0.033000
v 0.070000 1.690000 0.043000
v 0.070000 1.720000 0.033000
v 0.070000 1.710000 0.043000
v 0.080000 1.710000 0.033000
v -0.070000 1.680000 -0.033000
v -0.080000 1.690000 -0.033000
v -0.070000 1.690000 -0.043000
v -0.070000 1.720000 -0.033000
v -0.070000 1.710000 -0.043000
v -0.080000 1.710000 -0.033000
v -0.070000 1.680000 0.033000
v -0.070000 1.690000 0.043000
v -0.080000 1.690000 0.033000
v -0.070000 1.720000 0.033000
v -0.080000 1.710000 0.033000
v -0.070000 1.710000 0.043000
v -0.120000 1.200000 0.050000
v -0.120000 1.200000 0.038000
v -0.085000 1.200000 0.038000
v -0.085000 1.200000 0.050000
v -0.114127 1.237082 0.050000
v -0.114127 1.237082 0.038000
v -0.080840 1.226267 0.038000
v -0.080840 1.226267 0.050000
v -0.097082 1.270534 0.050000
v -0.097082 1.270534 0.038000
v -0.068766 1.249962 0.038000
v -0.068766 1.249962 0.050000
v -0.070534 1.297082 0.050000
v -0.070534 1.297082 0.038000
v -0.049962 1.268767 0.038000
v -0.049962 1.268767 0.050000
v -0.037082 1.314127 0.050000
v -0.037082 1.314127 0.038000
v -0.026266 1.280840 0.038000
v -0.026266 1.280840 0.050000
v -0.000000 1.320000 0.050000
v -0.000000 1.320000 0.038000
v -0.000000 1.285000 0.038000
v -0.000000 1.285000 0.050000
v 0.037082 1.314127 0.050000
v 0.037082 1.314127 0.038000
v 0.026266 1.280840 0.038000
v 0.026266 1.280840 0.050000
v 0.070534 1.297082 0.050000
v 0.070534 1.297082 0.038000
v 0.049962 1.268767 0.038000
v 0.049962 1.268767 0.050000
v 0.097082 1.270534 0.050000
v 0.097082 1.270534 0.038000
v 0.068766 1.249962 0.038000
v 0.068766 1.249962 0.050000
v 0.114127 1.237082 0.050000
v 0.114127 1.237082 0.038000
v 0.080840 1.226267 0.038000
v 0.080840 1.226267 0.050000
v 0.120000 1.200000 0.050000
v 0.120000 1.200000 0.038000
v 0.085000 1.200000 0.038000
v 0.085000 1.200000 0.050000
v 0.114127 1.162918 0.050000
v 0.114127 1.162918 0.038000
v 0.080840 1.173734 0.038000
v 0.080840 1.173734 0.050000
v 0.097082 1.129466 0.050000
v 0.097082 1.129466 0.038000
v 0.068766 1.150038 0.038000
v 0.068766 1.150038 0.050000
v 0.070534 1.102918 0.050000
v 0.070534 1.102918 0.038000
v 0.049962 1.131234 0.038000
v 0.049962 1.131234 0.050000
v 0.037082 1.085873 0.050000
v 0.037082 1.085873 0.038000
v 0.026266 1.119160 0.038000
v 0.026266 1.119160 0.050000
v 0.000000 1.080000 0.050000
v 0.000000 1.080000 0.038000
v 0.000000 1.115000 0.038000
v 0.000000 1.115000 0.050000
v -0.037082 1.085873 0.050000
v -0.037082 1.085873 0.038000
v -0.026266 1.119160 0.038000
v -0.026266 1.119160 0.050000
v -0.070534 1.102918 0.050000
v -0.070534 1.102918 0.038000
v -0.049962 1.131234 0.038000
v -0.049962 1.131234 0.050000
v -0.097082 1.129466 0.050000
v -0.097082 1.129466 0.038000
v -0.068766 1.150038 0.038000
v -0.068766 1.150038 0.050000
v -0.114127 1.162918 0.050000
v -0.114127 1.162918 0.038000
v -0.080840 1.173734 0.038000
v -0.080840 1.173734 0.050000
v 0.000000 1.240000 0.050000
v 0.000000 1.240000 0.038000
v -0.020000 1.234641 0.050000
v -0.020000 1.234641 0.038000
v -0.034641 1.220000 0.050000
v -0.034641 1.220000 0.038000
v -0.040000 1.200000 0.050000
v -0.040000 1.200000 0.038000
v -0.034641 1.180000 0.050000
v -0.034641 1.180000 0.038000
v -0.020000 1.165359 0.050000
v -0.020000 1.165359 0.038000
v 0.000000 1.160000 0.050000
v 0.000000 1.160000 0.038000
v 0.020000 1.165359 0.050000
v 0.020000 1.165359 0.038000
v 0.034641 1.180000 0.050000
v 0.034641 1.180000 0.038000
v 0.040000 1.200000 0.050000
v 0.040000 1.200000 0.038000
v 0.034641 1.220000 0.050000
v 0.034641 1.220000 0.038000
v 0.020000 1.234641 0.050000
v 0.020000 1.234641 0.038000
vn -0.0000 0.6735 0.7392
vn -0.2284 -0.6735 0.7030
vn -0.0000 -0.6735 0.7392
vn -0.2284 0.6735 0.7030
vn -0.4345 -0.6735 0.5980
vn -0.4345 0.6735 0.5980
vn -0.5980 -0.6735 0.4345
vn -0.5980 0.6735 0.4345
vn -0.7030 -0.6735 0.2284
vn -0.7030 0.6735 0.2284
vn -0.7392 -0.6735 -0.0000
vn -0.7392 0.6735 -0.0000
vn -0.7030 -0.6735 -0.2284
vn -0.7030 0.6735 -0.2284
vn -0.5980 -0.6735 -0.4345
vn -0.5980 0.6735 -0.4345
vn -0.4345 -0.6735 -0.5980
vn -0.4345 0.6735 -0.5980
vn -0.2284 -0.6735 -0.7030
vn -0.2284 0.6735 -0.7030
vn -0.0000 -0.6735 -0.7392
vn -0.0000 0.6735 -0.7392
vn 0.2284 -0.6735 -0.7030
vn 0.2284 0.6735 -0.7030
vn 0.4345 -0.6735 -0.5980
vn 0.4345 0.6735 -0.5980
vn 0.5980 -0.6735 -0.4345
vn 0.5980 0.6735 -0.4345
vn 0.7030 -0.6735 -0.2284
vn 0.7030 0.6735 -0.2284
vn 0.7392 -0.6735 -0.0000
vn 0.7392 0.6735 -0.0000
vn 0.7030 -0.6735 0.2284
vn 0.7030 0.6735 0.2284
vn 0.5980 -0.6735 0.4345
vn 0.5980 0.6735 0.4345
vn 0.4345 -0.6735 0.5980
vn -0.0000 1.0000 -0.0000
vn 0.4345 0.6735 0.5980
vn 0.2284 -0.6735 0.7030
vn 0.2284 0.6735 0.7030
vn -0.0000 -1.0000 -0.0000
vn -0.0000 0.9101 0.4144
vn -0.2891 -0.3536 0.8896
vn -0.0000 -0.3536 0.9354
vn -0.1280 0.9101 0.3941
vn -0.5498 -0.3536 0.7568
vn -0.2436 0.9101 0.3352
vn -0.7568 -0.3536 0.5498
vn -0.3352 0.9101 0.2436
vn -0.8896 -0.3536 0.2891
vn -0.3941 0.9101 0.1280
vn -0.9354 -0.3536 -0.0000
vn -0.4144 0.9101 -0.0000
vn -0.8896 -0.3536 -0.2891
vn -0.3941 0.9101 -0.1280
vn -0.7568 -0.3536 -0.5498
vn -0.3352 0.9101 -0.2436
vn -0.5498 -0.3536 -0.7568
vn -0.2436 0.9101 -0.3352
vn -0.2891 -0.3536 -0.8896
vn -0.1280 0.9101 -0.3941
vn -0.0000 -0.3536 -0.9354
vn -0.0000 0.9101 -0.4144
vn 0.2891 -0.3536 -0.8896
vn 0.1280 0.9101 -0.3941
vn 0.5498 -0.3536 -0.7568
vn 0.2436 0.9101 -0.3352
vn 0.7568 -0.3536 -0.5498
vn 0.3352 0.9101 -0.2436
vn 0.8896 -0.3536 -0.2891
vn 0.3941 0.9101 -0.1280
vn 0.9354 -0.3536 -0.0000
vn 0.4144 0.9101 -0.0000
vn 0.8896 -0.3536 0.2891
vn 0.3941 0.9101 0.1280
vn 0.7568 -0.3536 0.5498
vn 0.3352 0.9101 0.2436
vn 0.5498 -0.3536 0.7568
vn 0.2436 0.9101 0.3352
vn 0.2891 -0.3536 0.8896
vn 0.1280 0.9101 0.3941
vn -0.0000 0.6437 0.7653
vn -0.4498 -0.6437 0.6191
vn -0.0000 -0.6437 0.7653
vn -0.4498 0.6437 0.6191
vn -0.7278 -0.6437 0.2365
vn -0.7278 0.6437 0.2365
vn -0.7278 -0.6437 -0.2365
vn -0.7278 0.6437 -0.2365
vn -0.4498 -0.6437 -0.6191
vn -0.4498 0.6437 -0.6191
vn -0.0000 -0.6437 -0.7653
vn -0.0000 0.6437 -0.7653
vn 0.4498 -0.6437 -0.6191
vn 0.4498 0.6437 -0.6191
vn 0.7278 -0.6437 -0.2365
vn 0.7278 0.6437 -0.2365
vn 0.7278 -0.6437 0.2365
vn 0.7278 0.6437 0.2365
vn 0.4498 -0.6437 0.6191
vn 0.4498 0.6437 0.6191
vn -0.0000 -0.0000 -1.0000
vn -1.0000 -0.0000 -0.0000
vn 1.0000 -0.0000 -0.0000
vn -0.0000 -0.0000 1.0000
vn 0.5773 -0.5774 -0.5774
vn 0.5773 0.5774 -0.5774
vn 0.5773 -0.5774 0.5774
vn 0.5773 0.5774 0.5774
vn -0.5773 -0.5774 -0.5774
vn -0.5773 0.5774 -0.5774
vn -0.5773 -0.5774 0.5774
vn -0.5773 0.5774 0.5774
vn 0.7071 -0.7071 -0.0000
vn 0.7071 -0.0000 -0.7071
vn 0.7071 0.7071 -0.0000
vn 0.7071 -0.0000 0.7071
vn -0.0000 -0.7071 0.7071
vn -0.0000 0.7071 0.7071
vn -0.7071 -0.0000 0.7071
vn -0.7071 -0.7071 -0.0000
vn -0.7071 0.7071 -0.0000
vn -0.7071 -0.0000 -0.7071
vn -0.0000 -0.7071 -0.7071
vn -0.0000 0.7071 -0.7071
vn -0.9889 -0.1483 -0.0000
vn -0.9864 0.1644 -0.0000
vn -0.3846 0.9231 -0.0000
vn 0.3846 0.9231 -0.0000
vn 0.9864 0.1644 -0.0000
vn 0.5428 -0.6303 -0.5550
vn -0.5428 -0.6303 -0.5550
vn -0.7596 0.0062 -0.6503
vn -0.6543 0.5190 -0.5501
vn -0.1514 0.7569 -0.6358
vn 0.1514 0.7569 -0.6358
vn 0.6543 0.5190 -0.5501
vn 0.7596 0.0062 -0.6503
vn 0.5428 -0.6303 0.5550
vn -0.5428 -0.6303 0.5550
vn -0.7596 0.0062 0.6503
vn -0.6543 0.5190 0.5501
vn -0.1514 0.7569 0.6358
vn 0.1514 0.7569 0.6358
vn 0.6543 0.5190 0.5501
vn 0.7596 0.0062 0.6503
vn 0.6993 -0.1049 -0.7071
vn -0.6993 -0.1049 -0.7071
vn -0.6975 0.1162 -0.7071
vn -0.2720 0.6527 -0.7071
vn 0.2720 0.6527 -0.7071
vn 0.6975 0.1162 -0.7071
vn 0.6993 -0.1049 0.7071
vn 0.6975 0.1162 0.7071
vn 0.2720 0.6527 0.7071
vn -0.2720 0.6527 0.7071
vn -0.6975 0.1162 0.7071
vn -0.6993 -0.1049 0.7071
vn 0.6526 -0.7577 -0.0000
vn -0.6526 -0.7577 -0.0000
vn -1.0000 0.0081 -0.0000
vn -0.7835 0.6214 -0.0000
vn -0.1961 0.9806 -0.0000
vn 0.1961 0.9806 -0.0000
vn 0.7835 0.6214 -0.0000
vn 1.0000 0.0081 -0.0000
vn 0.9889 -0.1483 -0.0000
vn -0.9928 0.1197 -0.0000
vn 0.1197 0.9928 -0.0000
vn 0.9928 -0.1197 -0.0000
vn 0.5041 -0.6423 -0.5773
vn 0.6423 0.5041 -0.5773
vn 0.5041 -0.6423 0.5773
vn 0.6423 0.5041 0.5773
vn -0.6423 -0.5041 -0.5774
vn -0.5041 0.6423 -0.5773
vn -0.6423 -0.5041 0.5774
vn -0.5041 0.6423 0.5773
vn 0.6174 -0.7867 -0.0000
vn 0.7020 -0.0846 -0.7071
vn 0.7867 0.6174 -0.0000
vn 0.7020 -0.0846 0.7071
vn -0.0846 -0.7020 0.7071
vn 0.0847 0.7020 0.7071
vn -0.7020 0.0846 0.7071
vn -0.7867 -0.6174 -0.0000
vn -0.6174 0.7867 -0.0000
vn -0.7020 0.0846 -0.7071
vn -0.0846 -0.7020 -0.7071
vn 0.0846 0.7020 -0.7071
vn -0.1197 -0.9928 -0.0000
vn -0.9928 -0.1197 -0.0000
vn -0.1197 0.9928 -0.0000
vn 0.9928 0.1197 -0.0000
vn 0.6423 -0.5041 -0.5774
vn 0.5041 0.6423 -0.5773
vn 0.6423 -0.5041 0.5774
vn 0.5041 0.6423 0.5773
vn -0.5041 -0.6423 -0.5773
vn -0.6423 0.5041 -0.5773
vn -0.5041 -0.6423 0.5773
vn -0.6423 0.5041 0.5773
vn 0.7867 -0.6174 -0.0000
vn 0.7020 0.0846 -0.7071
vn 0.6174 0.7867 -0.0000
vn 0.7020 0.0846 0.7071
vn 0.0846 -0.7020 0.7071
vn -0.0846 0.7020 0.7071
vn -0.7020 -0.0846 0.7071
vn -0.6174 -0.7867 -0.0000
vn -0.7867 0.6174 -0.0000
vn -0.7020 -0.0846 -0.7071
vn 0.0846 -0.7020 -0.7071
vn -0.0847 0.7020 -0.7071
vn 0.1197 -0.9928 -0.0000
vn 0.5774 -0.5774 -0.5773
vn 0.5774 0.5774 -0.5773
vn 0.5774 -0.5774 0.5773
vn 0.5774 0.5774 0.5773
vn -0.5774 -0.5774 -0.5773
vn -0.5774 0.5774 -0.5773
vn -0.5774 -0.5774 0.5773
vn -0.5774 0.5774 0.5773
vn 0.5774 0.5773 -0.5773
vn 0.5774 0.5773 0.5773
vn -0.5774 0.5773 -0.5773
vn -0.5774 0.5773 0.5773
vn -0.7030 0.2284 0.6735
vn -0.7392 -0.0000 -0.6735
vn -0.7392 -0.0000 0.6735
vn 0.6354 -0.2065 -0.7441
vn 0.6681 -0.0000 -0.7441
vn 0.6681 -0.0000 0.7441
vn 0.6354 -0.2065 0.7441
vn -0.5980 0.4345 0.6735
vn -0.7030 0.2284 -0.6735
vn -0.5980 0.4345 -0.6735
vn 0.5405 -0.3927 -0.7441
vn 0.5405 -0.3927 0.7441
vn -0.4345 0.5980 0.6735
vn -0.4345 0.5980 -0.6735
vn 0.3927 -0.5405 -0.7441
vn -0.2284 0.7030 0.6735
vn -0.2284 0.7030 -0.6735
vn 0.2065 -0.6354 -0.7441
vn 0.3927 -0.5405 0.7441
vn -0.0000 0.7392 0.6735
vn -0.0000 -0.6681 -0.7441
vn 0.2065 -0.6354 0.7441
vn -0.0000 -0.6681 0.7441
vn 0.2284 0.7030 0.6735
vn -0.0000 0.7392 -0.6735
vn 0.2284 0.7030 -0.6735
vn -0.2065 -0.6354 -0.7441
vn 0.4345 0.5980 -0.6735
vn -0.3927 -0.5405 -0.7441
vn -0.2065 -0.6354 0.7441
vn -0.3927 -0.5405 0.7441
vn 0.5980 0.4345 0.6735
vn 0.4345 0.5980 0.6735
vn -0.5405 -0.3927 -0.7441
vn -0.5405 -0.3927 0.7441
vn 0.7030 0.2284 0.6735
vn 0.5980 0.4345 -0.6735
vn 0.7030 0.2284 -0.6735
vn -0.6354 -0.2065 -0.7441
vn -0.6354 -0.2065 0.7441
vn 0.7392 -0.0000 -0.6735
vn -0.6681 -0.0000 -0.7441
vn 0.7392 -0.0000 0.6735
vn 0.7030 -0.2284 -0.6735
vn -0.6354 0.2065 -0.7441
vn -0.6354 0.2065 0.7441
vn -0.6681 -0.0000 0.7441
vn 0.7030 -0.2284 0.6735
vn 0.5980 -0.4345 -0.6735
vn -0.5405 0.3927 -0.7441
vn -0.5405 0.3927 0.7441
vn 0.4345 -0.5980 0.6735
vn 0.5980 -0.4345 0.6735
vn 0.4345 -0.5980 -0.6735
vn -0.3927 0.5405 -0.7441
vn 0.2284 -0.7030 0.6735
vn 0.2284 -0.7030 -0.6735
vn -0.2065 0.6354 -0.7441
vn -0.3927 0.5405 0.7441
vn -0.0000 -0.7392 0.6735
vn -0.0000 0.6681 -0.7441
vn -0.2065 0.6354 0.7441
vn -0.0000 0.6681 0.7441
vn -0.2284 -0.7030 0.6735
vn -0.0000 -0.7392 -0.6735
vn -0.2284 -0.7030 -0.6735
vn 0.2065 0.6354 -0.7441
vn -0.4345 -0.5980 0.6735
vn 0.3927 0.5405 -0.7441
vn 0.2065 0.6354 0.7441
vn 0.3927 0.5405 0.7441
vn -0.5980 -0.4345 0.6735
vn -0.4345 -0.5980 -0.6735
vn 0.5405 0.3927 -0.7441
vn 0.5405 0.3927 0.7441
vn -0.7030 -0.2284 0.6735
vn -0.5980 -0.4345 -0.6735
vn -0.7030 -0.2284 -0.6735
vn 0.6354 0.2065 -0.7441
vn 0.6354 0.2065 0.7441
vn -0.0000 0.7572 -0.6532
vn -0.3786 0.6557 0.6532
vn -0.0000 0.7572 0.6532
vn -0.3786 0.6557 -0.6532
vn -0.6557 0.3786 0.6532
vn -0.6557 0.3786 -0.6532
vn -0.7572 -0.0000 0.6532
vn -0.7572 -0.0000 -0.6532
vn -0.6557 -0.3786 0.6532
vn -0.6557 -0.3786 -0.6532
vn -0.3786 -0.6557 0.6532
vn -0.3786 -0.6557 -0.6532
vn -0.0000 -0.7572 0.6532
vn -0.0000 -0.7572 -0.6532
vn 0.3786 -0.6557 0.6532
vn 0.3786 -0.6557 -0.6532
vn 0.6557 -0.3786 0.6532
vn 0.6557 -0.3786 -0.6532
vn 0.7572 -0.0000 0.6532
vn 0.7572 -0.0000 -0.6532
vn 0.6557 0.3786 0.6532
vn 0.6557 0.3786 -0.6532
vn 0.3786 0.6557 0.6532
vn 0.3786 0.6557 -0.6532
vn 0.0846 0.7020 0.7071
vn 0.0847 0.7020 -0.7071
vn -0.0847 0.7020 0.7071
vn -0.0846 0.7020 -0.7071
vt 0.00000 0.00000
vt 0.00000 0.38410
vt 0.00000 0.39369
vt 0.00000 0.42892
vt 0.00000 0.47331
vt 0.00000 0.52253
vt 0.00000 0.57174
vt 0.00000 0.61614
vt 0.00000 0.65137
vt 0.00000 0.67032
vt 0.00000 0.84832
vt 0.00000 0.91399
vt 0.00000 0.93158
vt 0.00553 0.89727
vt 0.00553 0.94830
vt 0.00953 0.66095
vt 0.00953 0.67032
vt 0.00953 0.84832
vt 0.00953 0.85769
vt 0.01072 0.00001
vt 0.01072 0.38410
vt 0.01605 0.88304
vt 0.01605 0.96253
vt 0.01647 0.91656
vt 0.01647 0.92901
vt 0.02039 0.90471
vt 0.02039 0.94086
vt 0.02398 0.00001
vt 0.02398 0.38410
vt 0.02784 0.89463
vt 0.02784 0.95094
vt 0.02859 0.66095
vt 0.02859 0.67032
vt 0.02859 0.84832
vt 0.02859 0.85769
vt 0.03052 0.87270
vt 0.03052 0.97287
vt 0.03470 0.00000
vt 0.03470 0.38410
vt 0.03809 0.88731
vt 0.03809 0.95826
vt 0.03812 0.39369
vt 0.03812 0.42892
vt 0.03812 0.47331
vt 0.03812 0.52253
vt 0.03812 0.57174
vt 0.03812 0.61614
vt 0.03812 0.65137
vt 0.03812 0.67032
vt 0.03812 0.84832
vt 0.04445 0.00000
vt 0.04445 0.38410
vt 0.04754 0.86727
vt 0.04754 0.97830
vt 0.04787 0.39369
vt 0.04787 0.40613
vt 0.04787 0.42181
vt 0.04787 0.43918
vt 0.04787 0.45655
vt 0.04787 0.47221
vt 0.04787 0.48179
vt 0.04787 0.49424
vt 0.04787 0.50992
vt 0.04787 0.52729
vt 0.04787 0.54466
vt 0.04787 0.56032
vt 0.04787 0.56990
vt 0.04787 0.58557
vt 0.04787 0.60294
vt 0.04787 0.62031
vt 0.04787 0.63598
vt 0.04787 0.64556
vt 0.04787 0.65665
vt 0.04787 0.66895
vt 0.04787 0.68126
vt 0.04787 0.69237
vt 0.04787 0.70118
vt 0.05015 0.88346
vt 0.05015 0.96211
vt 0.05053 0.71771
vt 0.05053 0.72708
vt 0.05053 0.78329
vt 0.05053 0.79266
vt 0.05053 0.81161
vt 0.05053 0.83971
vt 0.05359 0.39369
vt 0.05359 0.40613
vt 0.05359 0.42181
vt 0.05359 0.43918
vt 0.05359 0.45655
vt 0.05359 0.47221
vt 0.05359 0.48179
vt 0.05359 0.49424
vt 0.05359 0.50992
vt 0.05359 0.52729
vt 0.05359 0.54466
vt 0.05359 0.56032
vt 0.05359 0.56990
vt 0.05359 0.58557
vt 0.05359 0.60294
vt 0.05359 0.62031
vt 0.05359 0.63598
vt 0.05359 0.64556
vt 0.05359 0.65665
vt 0.05359 0.66895
vt 0.05359 0.68126
vt 0.05359 0.69237
vt 0.05359 0.70118
vt 0.05517 0.00001
vt 0.05517 0.38410
vt 0.06006 0.80224
vt 0.06006 0.84908
vt 0.06007 0.81161
vt 0.06007 0.83971
vt 0.06282 0.88346
vt 0.06282 0.96211
vt 0.06483 0.39803
vt 0.06483 0.44290
vt 0.06483 0.48777
vt 0.06483 0.50604
vt 0.06483 0.55091
vt 0.06483 0.59578
vt 0.06483 0.61405
vt 0.06483 0.65892
vt 0.06483 0.70379
vt 0.06543 0.86727
vt 0.06543 0.97830
vt 0.06842 0.00001
vt 0.06842 0.38410
vt 0.07487 0.88731
vt 0.07487 0.95826
vt 0.07912 0.60970
vt 0.07912 0.65892
vt 0.07912 0.70813
vt 0.07912 0.71771
vt 0.07912 0.72708
vt 0.07912 0.78329
vt 0.07912 0.79266
vt 0.07913 0.81161
vt 0.07913 0.83971
vt 0.07914 0.39369
vt 0.07914 0.49211
vt 0.07914 0.50170
vt 0.07914 0.60012
vt 0.07915 0.00000
vt 0.07915 0.38410
vt 0.07915 0.44290
vt 0.07915 0.55091
vt 0.08245 0.87270
vt 0.08245 0.97287
vt 0.08513 0.89463
vt 0.08513 0.95094
vt 0.08889 0.00000
vt 0.08889 0.38410
vt 0.08889 0.39368
vt 0.08889 0.42891
vt 0.08889 0.47331
vt 0.08889 0.52252
vt 0.08889 0.57173
vt 0.08889 0.61613
vt 0.08889 0.65136
vt 0.08889 0.67031
vt 0.08889 0.84831
vt 0.09258 0.90471
vt 0.09258 0.94086
vt 0.09649 0.91656
vt 0.09649 0.92901
vt 0.09692 0.88304
vt 0.09692 0.96253
vt 0.09842 0.66095
vt 0.09842 0.67031
vt 0.09842 0.84831
vt 0.09842 0.85768
vt 0.10150 0.00000
vt 0.10150 0.38410
vt 0.10744 0.89727
vt 0.10744 0.94830
vt 0.11296 0.91399
vt 0.11296 0.93158
vt 0.11410 0.00000
vt 0.11410 0.38410
vt 0.11749 0.66095
vt 0.11749 0.67031
vt 0.11749 0.84831
vt 0.11749 0.85768
vt 0.12385 0.00000
vt 0.12385 0.38410
vt 0.12702 0.39368
vt 0.12702 0.42891
vt 0.12702 0.47331
vt 0.12702 0.52252
vt 0.12702 0.57173
vt 0.12702 0.61613
vt 0.12702 0.65136
vt 0.12702 0.67031
vt 0.12702 0.84831
vt 0.13188 0.93990
vt 0.13188 0.97925
vt 0.13646 0.00000
vt 0.13646 0.38410
vt 0.13677 0.39368
vt 0.13677 0.40611
vt 0.13677 0.42178
vt 0.13677 0.43915
vt 0.13677 0.45652
vt 0.13677 0.47219
vt 0.13677 0.48463
vt 0.13677 0.49421
vt 0.13677 0.49889
vt 0.13677 0.56447
vt 0.13677 0.56915
vt 0.13677 0.57873
vt 0.13677 0.58342
vt 0.13677 0.64900
vt 0.13677 0.65368
vt 0.13677 0.66326
vt 0.13677 0.67207
vt 0.13677 0.68317
vt 0.13677 0.69547
vt 0.13677 0.70778
vt 0.13677 0.71888
vt 0.13677 0.72768
vt 0.13677 0.73727
vt 0.13677 0.78364
vt 0.13677 0.80481
vt 0.13677 0.85118
vt 0.13677 0.87235
vt 0.13677 0.91873
vt 0.14249 0.39368
vt 0.14249 0.40611
vt 0.14249 0.42178
vt 0.14249 0.43915
vt 0.14249 0.45652
vt 0.14249 0.47219
vt 0.14249 0.48463
vt 0.14249 0.66326
vt 0.14249 0.67207
vt 0.14249 0.68317
vt 0.14249 0.69547
vt 0.14249 0.70778
vt 0.14249 0.71888
vt 0.14249 0.72768
vt 0.14630 0.49421
vt 0.14630 0.49889
vt 0.14630 0.56447
vt 0.14630 0.56915
vt 0.14630 0.57873
vt 0.14630 0.58342
vt 0.14630 0.64900
vt 0.14630 0.65368
vt 0.14856 0.74886
vt 0.14856 0.79523
vt 0.14856 0.81640
vt 0.14856 0.86277
vt 0.14856 0.88395
vt 0.14856 0.93032
vt 0.14856 0.93990
vt 0.14856 0.97925
vt 0.14906 0.00000
vt 0.14906 0.38410
vt 0.15881 0.13239
vt 0.15881 0.18221
vt 0.15881 0.45656
vt 0.15881 0.50639
vt 0.15881 0.73365
vt 0.15881 0.91207
vt 0.15881 0.92846
vt 0.15881 0.96125
vt 0.15896 0.71514
vt 0.16536 0.67742
vt 0.16705 0.72446
vt 0.17448 0.08500
vt 0.17448 0.22960
vt 0.17448 0.40918
vt 0.17448 0.55378
vt 0.17546 0.67483
vt 0.17573 0.66457
vt 0.18458 0.90248
vt 0.19420 0.90238
vt 0.19884 0.91207
vt 0.19884 0.92846
vt 0.19884 0.96125
vt 0.20427 0.04469
vt 0.20427 0.26991
vt 0.20427 0.36886
vt 0.20427 0.59409
vt 0.20859 0.91207
vt 0.20859 0.92846
vt 0.20859 0.96125
vt 0.21532 0.64836
vt 0.22602 0.65412
vt 0.24529 0.01540
vt 0.24529 0.29920
vt 0.24529 0.33958
vt 0.24529 0.62338
vt 0.24862 0.91207
vt 0.24862 0.92846
vt 0.24862 0.96125
vt 0.25837 0.92143
vt 0.25837 0.94954
vt 0.26790 0.91207
vt 0.26790 0.95891
vt 0.26791 0.92143
vt 0.26791 0.94954
vt 0.28697 0.92143
vt 0.28697 0.94954
vt 0.29350 0.00000
vt 0.29350 0.31460
vt 0.29350 0.32418
vt 0.29350 0.63878
vt 0.29672 0.92663
vt 0.29672 0.93966
vt 0.29672 0.97705
vt 0.29672 0.98675
vt 0.30165 0.96865
vt 0.30165 0.99515
vt 0.30451 0.91609
vt 0.30451 0.95020
vt 0.31020 0.96380
vt 0.31020 1.00000
vt 0.31712 0.91207
vt 0.31712 0.95422
vt 0.32007 0.96380
vt 0.32007 1.00000
vt 0.32861 0.96865
vt 0.32861 0.99515
vt 0.32972 0.91609
vt 0.32972 0.95020
vt 0.33355 0.97705
vt 0.33355 0.98675
vt 0.33658 0.65412
vt 0.33751 0.92663
vt 0.33751 0.93966
vt 0.34419 0.00000
vt 0.34419 0.31460
vt 0.34419 0.32418
vt 0.34419 0.63878
vt 0.34726 0.92663
vt 0.34726 0.93966
vt 0.34726 0.97378
vt 0.34729 0.64836
vt 0.35478 0.99432
vt 0.35505 0.91609
vt 0.35505 0.95020
vt 0.35733 0.96380
vt 0.36069 0.98688
vt 0.36766 0.91207
vt 0.36766 0.95422
vt 0.36821 0.99423
vt 0.36840 0.90238
vt 0.37076 0.97691
vt 0.37803 0.90248
vt 0.37829 0.97105
vt 0.37829 0.98425
vt 0.38026 0.91609
vt 0.38026 0.95020
vt 0.38688 0.66457
vt 0.38714 0.67483
vt 0.38805 0.92663
vt 0.38805 0.93966
vt 0.39240 0.01540
vt 0.39240 0.29920
vt 0.39240 0.33958
vt 0.39240 0.62338
vt 0.39556 0.72446
vt 0.39724 0.67742
vt 0.39807 0.91207
vt 0.39807 0.91893
vt 0.39807 0.92830
vt 0.39807 0.93767
vt 0.40364 0.71514
vt 0.40379 0.73365
vt 0.40379 0.91207
vt 0.40379 0.91893
vt 0.40379 0.92830
vt 0.40379 0.93767
vt 0.41354 0.65773
vt 0.41354 0.83572
vt 0.41354 0.86872
vt 0.41354 0.94367
vt 0.42307 0.64836
vt 0.42307 0.65773
vt 0.42307 0.83572
vt 0.42307 0.84509
vt 0.42784 0.85467
vt 0.42784 0.86872
vt 0.42784 0.94367
vt 0.42784 0.95772
vt 0.43342 0.04469
vt 0.43342 0.26991
vt 0.43342 0.36886
vt 0.43342 0.59409
vt 0.43737 0.85467
vt 0.43737 0.86872
vt 0.43737 0.94367
vt 0.43737 0.95772
vt 0.44213 0.64836
vt 0.44213 0.65773
vt 0.44213 0.83572
vt 0.44213 0.84509
vt 0.45166 0.65773
vt 0.45166 0.83572
vt 0.45166 0.86872
vt 0.45166 0.94367
vt 0.46141 0.65270
vt 0.46141 0.69757
vt 0.46141 0.74244
vt 0.46141 0.76796
vt 0.46141 0.81433
vt 0.46141 0.83550
vt 0.46141 0.88187
vt 0.46141 0.89614
vt 0.46141 0.92705
vt 0.46321 0.08500
vt 0.46321 0.22960
vt 0.46321 0.40918
vt 0.46321 0.55378
vt 0.46618 0.89146
vt 0.46618 0.89614
vt 0.46618 0.92705
vt 0.46618 0.93174
vt 0.47321 0.75637
vt 0.47321 0.80274
vt 0.47321 0.82391
vt 0.47321 0.87028
vt 0.47571 0.64836
vt 0.47571 0.69757
vt 0.47571 0.74679
vt 0.47571 0.89614
vt 0.47571 0.92705
vt 0.47888 0.13239
vt 0.47888 0.18221
vt 0.47888 0.45656
vt 0.47888 0.50639
vt 0.48863 0.13239
vt 0.48863 0.18221
vt 0.48863 0.42643
vt 0.48863 0.52486
vt 0.48863 0.72198
vt 0.48863 0.90040
vt 0.48863 0.95661
vt 0.48863 0.97344
vt 0.48863 0.98664
vt 0.48878 0.70348
vt 0.49499 0.47564
vt 0.49518 0.66575
vt 0.49615 0.97930
vt 0.49686 0.71279
vt 0.49816 0.90041
vt 0.49816 0.95661
vt 0.49870 0.99662
vt 0.50222 0.43077
vt 0.50222 0.52051
vt 0.50429 0.08500
vt 0.50429 0.22960
vt 0.50528 0.66316
vt 0.50554 0.65290
vt 0.50622 0.98927
vt 0.50958 0.96620
vt 0.50994 0.90041
vt 0.50994 0.95661
vt 0.51164 0.38203
vt 0.51164 0.56925
vt 0.51213 0.99671
vt 0.51439 0.89082
vt 0.51947 0.90040
vt 0.51947 0.95661
vt 0.51965 0.97617
vt 0.52321 0.39029
vt 0.52321 0.56099
vt 0.52401 0.89071
vt 0.52922 0.90040
vt 0.52922 0.95661
vt 0.53409 0.04469
vt 0.53409 0.26991
vt 0.53875 0.90041
vt 0.53875 0.95661
vt 0.54513 0.63669
vt 0.54749 0.34680
vt 0.54749 0.60449
vt 0.55053 0.90041
vt 0.55053 0.95661
vt 0.55584 0.64245
vt 0.55589 0.35817
vt 0.55589 0.59312
vt 0.56006 0.90040
vt 0.56006 0.95661
vt 0.56981 0.90040
vt 0.56981 0.95661
vt 0.56981 0.97344
vt 0.56981 0.98664
vt 0.57510 0.01540
vt 0.57510 0.29920
vt 0.57734 0.97929
vt 0.57988 0.99661
vt 0.58741 0.98927
vt 0.59076 0.96619
vt 0.59266 0.32418
vt 0.59266 0.62711
vt 0.59331 0.99670
vt 0.59707 0.33754
vt 0.59707 0.61374
vt 0.59840 0.90040
vt 0.59840 0.95661
vt 0.60084 0.97616
vt 0.60815 0.90040
vt 0.60815 0.95661
vt 0.61936 0.90040
vt 0.61936 0.95661
vt 0.62331 0.00000
vt 0.62331 0.31460
vt 0.63056 0.90040
vt 0.63056 0.95661
vt 0.63169 0.97616
vt 0.63921 0.99670
vt 0.64031 0.90040
vt 0.64031 0.95661
vt 0.64176 0.96619
vt 0.64272 0.33044
vt 0.64272 0.62085
vt 0.64512 0.98927
vt 0.65151 0.90040
vt 0.65151 0.95661
vt 0.65265 0.99661
vt 0.65519 0.97929
vt 0.66272 0.90040
vt 0.66272 0.95661
vt 0.66272 0.97344
vt 0.66272 0.98664
vt 0.66640 0.64245
vt 0.67247 0.90040
vt 0.67247 0.91679
vt 0.67247 0.94958
vt 0.67247 0.97241
vt 0.67247 0.98211
vt 0.67401 0.00000
vt 0.67401 0.31460
vt 0.67710 0.63669
vt 0.67740 0.96401
vt 0.67740 0.99051
vt 0.68595 0.95916
vt 0.68595 0.99536
vt 0.68838 0.33754
vt 0.68838 0.61374
vt 0.69280 0.32418
vt 0.69280 0.62711
vt 0.69581 0.95916
vt 0.69581 0.99536
vt 0.69822 0.89071
vt 0.70436 0.96401
vt 0.70436 0.99051
vt 0.70784 0.89082
vt 0.70929 0.97241
vt 0.70929 0.98211
vt 0.71250 0.90040
vt 0.71250 0.91679
vt 0.71250 0.94958
vt 0.71669 0.65290
vt 0.71696 0.66316
vt 0.72222 0.01540
vt 0.72222 0.29920
vt 0.72225 0.90040
vt 0.72225 0.90726
vt 0.72225 0.91662
vt 0.72225 0.92599
vt 0.72225 0.93285
vt 0.72537 0.71279
vt 0.72706 0.66575
vt 0.72796 0.90040
vt 0.72796 0.90726
vt 0.72796 0.91662
vt 0.72796 0.92599
vt 0.72796 0.93285
vt 0.72956 0.35817
vt 0.72956 0.59312
vt 0.73345 0.70348
vt 0.73361 0.72198
vt 0.73796 0.34680
vt 0.73796 0.60449
vt 0.74336 0.64606
vt 0.74336 0.82405
vt 0.74336 0.84300
vt 0.74336 0.85706
vt 0.74336 0.93200
vt 0.74336 0.94605
vt 0.74336 0.96858
vt 0.74336 0.98016
vt 0.75028 0.95921
vt 0.75028 0.98953
vt 0.75289 0.63669
vt 0.75289 0.64606
vt 0.75289 0.82405
vt 0.75289 0.83342
vt 0.76148 0.95564
vt 0.76148 0.99311
vt 0.76224 0.39029
vt 0.76224 0.56099
vt 0.76323 0.04469
vt 0.76323 0.26991
vt 0.77195 0.63669
vt 0.77195 0.64606
vt 0.77195 0.82405
vt 0.77195 0.83342
vt 0.77269 0.95921
vt 0.77269 0.98953
vt 0.77381 0.38203
vt 0.77381 0.56925
vt 0.77961 0.96858
vt 0.77961 0.98016
vt 0.78148 0.64606
vt 0.78148 0.82405
vt 0.78323 0.43077
vt 0.78323 0.52051
vt 0.78936 0.96858
vt 0.78936 0.98016
vt 0.79046 0.47564
vt 0.79303 0.08500
vt 0.79303 0.22960
vt 0.79629 0.95921
vt 0.79629 0.98953
vt 0.79682 0.42643
vt 0.79682 0.52486
vt 0.80657 0.33444
vt 0.80657 0.38408
vt 0.80657 0.58192
vt 0.80657 0.63156
vt 0.80749 0.95564
vt 0.80749 0.99311
vt 0.80869 0.13239
vt 0.80869 0.18221
vt 0.81610 0.32418
vt 0.81610 0.33703
vt 0.81610 0.37477
vt 0.81610 0.39327
vt 0.81610 0.56208
vt 0.81610 0.57166
vt 0.81610 0.58452
vt 0.81610 0.62225
vt 0.81610 0.64076
vt 0.81610 0.80957
vt 0.81844 0.04943
vt 0.81844 0.15811
vt 0.81844 0.22649
vt 0.81844 0.28270
vt 0.81870 0.95921
vt 0.81870 0.98953
vt 0.82562 0.96858
vt 0.82562 0.98016
vt 0.82797 0.00000
vt 0.82797 0.03891
vt 0.82797 0.05693
vt 0.82797 0.15061
vt 0.82797 0.16863
vt 0.82797 0.20754
vt 0.82797 0.21712
vt 0.82797 0.22649
vt 0.82797 0.28270
vt 0.82797 0.29207
vt 0.82914 0.84300
vt 0.82914 0.85706
vt 0.82914 0.93200
vt 0.82914 0.94605
vt 0.83517 0.32418
vt 0.83517 0.33703
vt 0.83517 0.37477
vt 0.83517 0.39327
vt 0.83517 0.56208
vt 0.83517 0.57166
vt 0.83517 0.58452
vt 0.83517 0.62225
vt 0.83517 0.64076
vt 0.83517 0.80957
vt 0.83898 0.81915
vt 0.83898 0.83024
vt 0.83898 0.84254
vt 0.83898 0.85485
vt 0.83898 0.86595
vt 0.83898 0.87477
vt 0.83898 0.88435
vt 0.83898 0.89545
vt 0.83898 0.90775
vt 0.83898 0.92006
vt 0.83898 0.93116
vt 0.84470 0.33444
vt 0.84470 0.38408
vt 0.84470 0.58192
vt 0.84470 0.63156
vt 0.84470 0.81915
vt 0.84470 0.83024
vt 0.84470 0.84254
vt 0.84470 0.85485
vt 0.84470 0.86595
vt 0.84470 0.87477
vt 0.84470 0.88435
vt 0.84470 0.89545
vt 0.84470 0.90775
vt 0.84470 0.92006
vt 0.84470 0.93116
vt 0.84704 0.00000
vt 0.84704 0.03891
vt 0.84704 0.05693
vt 0.84704 0.15061
vt 0.84704 0.16863
vt 0.84704 0.20754
vt 0.84704 0.21712
vt 0.84704 0.22649
vt 0.84704 0.28270
vt 0.84704 0.29207
vt 0.85444 0.33364
vt 0.85444 0.50487
vt 0.85444 0.52390
vt 0.85444 0.71112
vt 0.85444 0.89856
vt 0.85444 0.91744
vt 0.85444 0.95679
vt 0.85447 0.56830
vt 0.85447 0.66673
vt 0.85448 0.61751
vt 0.85657 0.04943
vt 0.85657 0.15811
vt 0.85657 0.22649
vt 0.85657 0.28270
vt 0.86398 0.32418
vt 0.86398 0.33494
vt 0.86398 0.50356
vt 0.86398 0.51432
vt 0.86398 0.72071
vt 0.86398 0.89744
vt 0.86398 0.90786
vt 0.86631 0.00000
vt 0.86631 0.18722
vt 0.86631 0.24353
vt 0.86631 0.26111
vt 0.86634 0.04440
vt 0.86634 0.14282
vt 0.86635 0.09361
vt 0.87184 0.22680
vt 0.87184 0.27784
vt 0.87827 0.72071
vt 0.87827 0.89744
vt 0.87827 0.90786
vt 0.88236 0.21257
vt 0.88236 0.29207
vt 0.88279 0.24609
vt 0.88279 0.25855
vt 0.88304 0.32418
vt 0.88304 0.33494
vt 0.88304 0.50356
vt 0.88304 0.51432
vt 0.88671 0.23424
vt 0.88671 0.27039
vt 0.88780 0.89856
vt 0.88784 0.91744
vt 0.88784 0.95679
vt 0.89257 0.33364
vt 0.89257 0.50487
vt 0.89257 0.52390
vt 0.89257 0.71112
vt 0.89259 0.56830
vt 0.89259 0.66673
vt 0.89260 0.61751
vt 0.89416 0.22417
vt 0.89416 0.28047
vt 0.89684 0.20224
vt 0.89684 0.30240
vt 0.89755 0.89856
vt 0.89759 0.92212
vt 0.89759 0.95304
vt 0.90232 0.33348
vt 0.90235 0.53320
vt 0.90235 0.91744
vt 0.90235 0.95772
vt 0.90236 0.92212
vt 0.90236 0.95304
vt 0.90441 0.21684
vt 0.90441 0.28780
vt 0.90444 0.00000
vt 0.90444 0.18722
vt 0.90446 0.04440
vt 0.90446 0.14282
vt 0.90447 0.09361
vt 0.90708 0.72071
vt 0.90708 0.89744
vt 0.90708 0.90786
vt 0.91185 0.32418
vt 0.91185 0.33461
vt 0.91185 0.51130
vt 0.91188 0.52390
vt 0.91188 0.53434
vt 0.91188 0.71103
vt 0.91189 0.92212
vt 0.91189 0.95304
vt 0.91385 0.19680
vt 0.91385 0.30784
vt 0.91422 0.00000
vt 0.91422 0.01405
vt 0.91422 0.08900
vt 0.91422 0.10305
vt 0.91422 0.11263
vt 0.91422 0.17821
vt 0.91646 0.21299
vt 0.91646 0.29164
vt 0.91899 0.11263
vt 0.91899 0.17821
vt 0.92138 0.72071
vt 0.92138 0.89744
vt 0.92138 0.90786
vt 0.92614 0.32418
vt 0.92614 0.33461
vt 0.92614 0.51130
vt 0.92618 0.52390
vt 0.92618 0.53434
vt 0.92618 0.71103
vt 0.92913 0.21299
vt 0.92913 0.29164
vt 0.93091 0.89856
vt 0.93174 0.19680
vt 0.93174 0.30784
vt 0.93568 0.33348
vt 0.93571 0.53320
vt 0.94066 0.73842
vt 0.94066 0.84658
vt 0.94066 0.93703
vt 0.94066 0.97638
vt 0.94119 0.21684
vt 0.94119 0.28780
vt 0.94542 0.32886
vt 0.94542 0.39444
vt 0.94542 0.41807
vt 0.94542 0.47428
vt 0.94542 0.49323
vt 0.94542 0.50260
vt 0.94542 0.51197
vt 0.94546 0.52390
vt 0.94546 0.59885
vt 0.94546 0.62002
vt 0.94546 0.66639
vt 0.94546 0.67598
vt 0.94546 0.68284
vt 0.94546 0.69221
vt 0.94546 0.70158
vt 0.94876 0.20224
vt 0.94876 0.30240
vt 0.95019 0.32418
vt 0.95019 0.32886
vt 0.95019 0.39444
vt 0.95019 0.39912
vt 0.95044 0.11263
vt 0.95044 0.17821
vt 0.95114 0.49323
vt 0.95114 0.50260
vt 0.95114 0.51197
vt 0.95117 0.67598
vt 0.95117 0.68284
vt 0.95117 0.69221
vt 0.95117 0.70158
vt 0.95144 0.22417
vt 0.95144 0.28047
vt 0.95241 0.72225
vt 0.95241 0.83041
vt 0.95476 0.73612
vt 0.95476 0.84429
vt 0.95495 0.40871
vt 0.95495 0.41807
vt 0.95495 0.47428
vt 0.95495 0.48365
vt 0.95520 0.11263
vt 0.95520 0.17821
vt 0.95725 0.60843
vt 0.95725 0.65480
vt 0.95889 0.23424
vt 0.95889 0.27039
vt 0.95975 0.52390
vt 0.95975 0.59885
vt 0.96181 0.72071
vt 0.96181 0.82887
vt 0.96281 0.24609
vt 0.96281 0.25855
vt 0.96323 0.21257
vt 0.96323 0.29207
vt 0.96417 0.73458
vt 0.96417 0.84275
vt 0.96495 0.11263
vt 0.96495 0.15198
vt 0.96700 0.60843
vt 0.96700 0.64778
vt 0.96700 0.65736
vt 0.96700 0.69671
vt 0.96886 0.81929
vt 0.96886 0.92745
vt 0.96928 0.52390
vt 0.96928 0.59885
vt 0.97375 0.22680
vt 0.97375 0.27784
vt 0.97402 0.40871
vt 0.97402 0.41807
vt 0.97402 0.47428
vt 0.97402 0.48365
vt 0.97405 0.93703
vt 0.97405 0.97638
vt 0.97827 0.73226
vt 0.97827 0.81775
vt 0.97827 0.84042
vt 0.97827 0.92591
vt 0.97928 0.24353
vt 0.97928 0.26111
vt 0.98164 0.32418
vt 0.98164 0.32886
vt 0.98164 0.39444
vt 0.98164 0.39912
vt 0.98355 0.41807
vt 0.98355 0.47428
vt 0.98358 0.52390
vt 0.98358 0.59885
vt 0.98368 0.60843
vt 0.98368 0.64778
vt 0.98368 0.65736
vt 0.98368 0.69671
vt 0.98641 0.32886
vt 0.98641 0.39444
vt 0.99835 0.11263
vt 0.99835 0.15198
vt 1.00000 0.00000
vt 1.00000 0.01405
vt 1.00000 0.08900
vt 1.00000 0.10305
s 1
usemtl FPS_concrete
f 10/717/10 11/761/11 9/760/9
f 12/718/12 13/759/13 11/761/11
f 14/716/14 15/757/15 13/759/13
f 16/161/16 17/193/17 15/194/15
f 18/160/18 19/192/19 17/193/17
f 2/6/1 3/44/2 1/45/3
f 20/159/20 21/191/21 19/192/19
f 22/158/22 23/190/23 21/191/21
f 24/157/24 25/189/25 23/190/23
f 26/156/26 27/188/27 25/189/25
f 28/731/28 29/780/29 27/778/27
f 30/735/30 31/781/31 29/780/29
f 32/736/32 33/779/33 31/781/31
f 34/734/34 35/777/35 33/779/33
f 36/9/36 37/47/37 35/48/35
f 4/5/4 5/43/5 3/44/2
f 6/4/6 7/42/7 5/43/5
f 8/712/8 9/760/9 7/758/7
s 0
f 30/307/38 14/390/38 6/293/38
s 1
f 38/8/39 39/46/40 37/47/37
f 40/7/41 1/45/3 39/46/40
s 0
f 15/336/42 31/364/42 39/286/42
s 1
f 42/124/43 43/132/44 41/133/45
f 44/612/46 45/606/47 43/621/44
f 46/596/48 47/578/49 45/606/47
f 48/574/50 49/545/51 47/578/49
f 50/119/52 51/147/53 49/142/51
f 52/118/54 53/141/55 51/147/53
f 54/501/56 55/479/57 53/498/55
f 56/484/58 57/462/59 55/479/57
f 58/469/60 59/437/61 57/462/59
f 60/407/62 61/427/63 59/428/61
f 62/406/64 63/426/65 61/427/63
f 64/453/66 65/463/67 63/438/65
f 66/470/68 67/480/69 65/463/67
f 68/485/70 69/499/71 67/480/69
f 70/122/72 71/148/73 69/144/71
f 72/121/74 73/143/75 71/148/73
f 74/544/76 75/579/77 73/546/75
f 76/575/78 77/607/79 75/579/77
s 0
f 70/502/38 54/501/38 46/596/38
s 1
f 78/597/80 79/622/81 77/607/79
f 80/125/82 41/133/45 79/134/81
s 0
f 55/536/42 71/561/42 79/475/42
s 1
f 10/717/10 12/718/12 11/761/11
f 12/718/12 14/716/14 13/759/13
f 14/716/14 16/711/16 15/757/15
f 16/161/16 18/160/18 17/193/17
f 18/160/18 20/159/20 19/192/19
f 2/6/1 4/5/4 3/44/2
f 20/159/20 22/158/22 21/191/21
f 22/158/22 24/157/24 23/190/23
f 24/157/24 26/156/26 25/189/25
f 26/156/26 28/155/28 27/188/27
f 28/731/28 30/735/30 29/780/29
f 30/735/30 32/736/32 31/781/31
f 32/736/32 34/734/34 33/779/33
f 34/734/34 36/730/36 35/777/35
f 36/9/36 38/8/39 37/47/37
f 4/5/4 6/4/6 5/43/5
f 6/4/6 8/3/8 7/42/7
f 8/712/8 10/717/10 9/760/9
s 0
f 10/335/38 8/308/38 6/293/38
f 14/390/38 10/335/38 6/293/38
f 14/390/38 12/362/38 10/335/38
f 18/432/38 16/415/38 14/390/38
f 2/273/38 40/262/38 38/261/38
f 22/414/38 18/432/38 14/390/38
f 22/414/38 20/431/38 18/432/38
f 26/361/38 24/389/38 22/414/38
f 30/307/38 22/414/38 14/390/38
f 30/307/38 26/361/38 22/414/38
f 30/307/38 28/334/38 26/361/38
f 34/283/38 32/292/38 30/307/38
f 38/261/38 34/283/38 30/307/38
f 38/261/38 36/272/38 34/283/38
f 6/293/38 2/273/38 38/261/38
f 6/293/38 38/261/38 30/307/38
f 6/293/38 4/284/38 2/273/38
s 1
f 38/8/39 40/7/41 39/46/40
f 40/7/41 2/6/1 1/45/3
s 0
f 11/294/42 13/309/42 15/336/42
f 15/336/42 17/363/42 19/391/42
f 15/336/42 19/391/42 23/433/42
f 15/336/42 23/433/42 31/364/42
f 19/391/42 21/416/42 23/433/42
f 23/433/42 25/434/42 27/417/42
f 23/433/42 27/417/42 31/364/42
f 27/417/42 29/392/42 31/364/42
f 3/264/42 5/263/42 7/274/42
f 31/364/42 33/337/42 35/310/42
f 31/364/42 35/310/42 39/286/42
f 35/310/42 37/295/42 39/286/42
f 39/286/42 1/275/42 3/264/42
f 39/286/42 3/264/42 7/274/42
f 39/286/42 7/274/42 15/336/42
f 7/274/42 11/294/42 15/336/42
f 7/274/42 9/285/42 11/294/42
s 1
f 42/124/43 44/123/46 43/132/44
f 44/612/46 46/596/48 45/606/47
f 46/596/48 48/574/50 47/578/49
f 48/574/50 50/543/52 49/545/51
f 50/119/52 52/118/54 51/147/53
f 52/118/54 54/117/56 53/141/55
f 54/501/56 56/484/58 55/479/57
f 56/484/58 58/469/60 57/462/59
f 58/469/60 60/452/62 59/437/61
f 60/407/62 62/406/64 61/427/63
f 62/406/64 64/405/66 63/426/65
f 64/453/66 66/470/68 65/463/67
f 66/470/68 68/485/70 67/480/69
f 68/485/70 70/502/72 69/499/71
f 70/122/72 72/121/74 71/148/73
f 72/121/74 74/120/76 73/143/75
f 74/544/76 76/575/78 75/579/77
f 76/575/78 78/597/80 77/607/79
s 0
f 42/616/38 80/613/38 78/597/38
f 46/596/38 42/616/38 78/597/38
f 46/596/38 44/612/38 42/616/38
f 46/596/38 78/597/38 70/502/38
f 50/543/38 48/574/38 46/596/38
f 54/501/38 50/543/38 46/596/38
f 54/501/38 52/519/38 50/543/38
f 58/469/38 56/484/38 54/501/38
f 62/445/38 58/469/38 54/501/38
f 62/445/38 60/452/38 58/469/38
f 66/470/38 64/453/38 62/445/38
f 70/502/38 62/445/38 54/501/38
f 70/502/38 66/470/38 62/445/38
f 70/502/38 68/485/38 66/470/38
f 74/544/38 72/520/38 70/502/38
f 78/597/38 74/544/38 70/502/38
f 78/597/38 76/575/38 74/544/38
s 1
f 78/597/80 80/613/82 79/622/81
f 80/125/82 42/124/43 41/133/45
s 0
f 43/436/42 45/435/42 47/454/42
f 47/454/42 49/474/42 51/492/42
f 47/454/42 51/492/42 55/536/42
f 51/492/42 53/510/42 55/536/42
f 55/536/42 57/560/42 59/598/42
f 55/536/42 59/598/42 63/629/42
f 55/536/42 63/629/42 71/561/42
f 59/598/42 61/617/42 63/629/42
f 63/629/42 65/630/42 67/618/42
f 63/629/42 67/618/42 71/561/42
f 67/618/42 69/599/42 71/561/42
f 71/561/42 73/537/42 75/511/42
f 71/561/42 75/511/42 79/475/42
f 75/511/42 77/493/42 79/475/42
f 79/475/42 41/455/42 43/436/42
f 79/475/42 43/436/42 47/454/42
f 79/475/42 47/454/42 55/536/42
s 1
usemtl FPS_gunmetal
f 82/174/83 83/181/84 81/175/85
f 84/1/86 85/21/87 83/2/84
f 86/20/88 87/29/89 85/21/87
f 88/28/90 89/39/91 87/29/89
f 90/186/92 91/200/93 89/187/91
f 92/199/94 93/260/95 91/200/93
f 94/51/96 95/110/97 93/52/95
f 96/109/98 97/129/99 95/110/97
s 0
f 98/322/38 90/317/38 86/327/38
s 1
f 100/153/102 81/175/85 99/154/101
f 98/128/100 99/146/101 97/129/99
s 0
f 101/721/107 102/706/107 103/705/107
f 101/81/115 108/135/115 107/136/115
f 104/302/108 105/300/108 106/304/108
f 104/656/116 103/705/116 102/706/116
f 105/643/126 117/657/126 116/644/126
f 106/304/105 108/305/105 103/306/105
f 107/912/109 108/898/109 109/897/109
f 107/912/119 120/896/119 119/911/119
f 109/897/118 112/866/118 111/865/118
f 110/299/110 111/301/110 112/303/110
f 110/299/117 106/304/117 105/300/117
f 110/504/38 116/488/38 122/503/38
f 111/865/106 120/896/106 109/897/106
f 113/722/111 114/708/111 115/707/111
f 113/722/125 102/706/125 101/721/125
f 115/707/124 118/658/124 117/657/124
f 116/84/112 117/111/112 118/113/112
f 116/84/123 123/114/123 122/85/123
f 117/657/103 102/706/103 115/707/103
f 119/137/122 114/83/122 113/82/122
f 119/137/42 101/81/42 107/136/42
f 119/911/113 120/896/113 121/895/113
f 121/895/121 124/864/121 123/863/121
f 122/829/120 111/865/120 110/830/120
f 122/85/114 123/114/114 124/112/114
f 123/114/104 114/139/104 121/140/104
f 87/344/42 95/347/42 99/359/42
s 1
f 246/508/83 247/513/84 245/509/85
f 248/440/86 249/450/87 247/441/84
f 250/449/88 251/461/89 249/450/87
f 252/460/90 253/467/91 251/461/89
f 254/516/92 255/523/93 253/517/91
f 256/522/94 257/527/95 255/523/93
f 258/472/96 259/477/97 257/473/95
f 260/476/98 261/482/99 259/477/97
s 0
f 262/587/38 254/604/38 250/609/38
s 1
f 262/481/100 263/487/101 261/482/99
f 264/506/102 245/509/85 263/507/101
s 0
f 251/614/42 259/647/42 263/646/42
f 289/845/107 290/827/107 291/844/107
f 289/845/115 296/907/115 295/908/115
f 292/209/116 291/243/116 290/244/116
f 292/772/225 293/768/225 294/774/225
f 293/804/126 305/799/126 304/803/126
f 294/774/105 296/791/105 291/792/105
f 295/908/109 296/907/109 297/919/109
f 295/908/119 308/920/119 307/909/119
f 297/249/118 300/215/118 299/214/118
f 298/767/117 294/774/117 293/768/117
f 298/767/226 299/771/226 300/773/226
f 298/849/38 304/803/38 310/848/38
f 299/214/106 308/248/106 297/249/106
f 301/846/111 302/847/111 303/828/111
f 301/846/125 290/827/125 289/845/125
f 303/245/124 306/211/124 305/210/124
f 304/412/123 311/420/123 310/413/123
f 304/412/227 305/418/227 306/419/227
f 305/210/103 290/244/103 303/245/103
f 307/909/113 308/920/113 309/910/113
f 307/909/122 302/847/122 301/846/122
f 307/909/42 289/845/42 295/908/42
f 309/247/121 312/213/121 311/212/121
f 310/413/228 311/420/228 312/421/228
f 310/848/120 299/868/120 298/849/120
f 311/420/104 302/429/104 309/430/104
s 1
f 82/174/83 84/180/86 83/181/84
f 84/1/86 86/20/88 85/21/87
f 86/20/88 88/28/90 87/29/89
f 88/28/90 90/38/92 89/39/91
f 90/186/92 92/199/94 91/200/93
f 92/199/94 94/259/96 93/260/95
f 94/51/96 96/109/98 95/110/97
f 96/109/98 98/128/100 97/129/99
s 0
f 82/333/38 100/328/38 98/322/38
f 86/327/38 82/333/38 98/322/38
f 86/327/38 84/332/38 82/333/38
f 90/317/38 88/321/38 86/327/38
f 94/312/38 92/311/38 90/317/38
f 98/322/38 94/312/38 90/317/38
f 98/322/38 96/318/38 94/312/38
s 1
f 100/153/102 82/174/83 81/175/85
f 98/128/100 100/145/102 99/146/101
s 0
f 101/81/115 103/80/115 108/135/115
f 104/656/116 106/655/116 103/705/116
f 105/643/126 104/656/126 117/657/126
f 106/304/105 112/303/105 108/305/105
f 107/912/119 109/897/119 120/896/119
f 109/897/118 108/898/118 112/866/118
f 110/299/117 112/303/117 106/304/117
f 110/504/38 105/489/38 116/488/38
f 111/865/106 124/864/106 120/896/106
f 113/722/125 115/707/125 102/706/125
f 115/707/124 114/708/124 118/658/124
f 116/84/123 118/113/123 123/114/123
f 117/657/103 104/656/103 102/706/103
f 119/137/122 121/138/122 114/83/122
f 119/137/42 113/82/42 101/81/42
f 121/895/121 120/896/121 124/864/121
f 122/829/120 124/864/120 111/865/120
f 123/114/104 118/113/104 114/139/104
f 83/356/42 85/348/42 87/344/42
f 87/344/42 89/339/42 91/338/42
f 87/344/42 91/338/42 95/347/42
f 91/338/42 93/343/42 95/347/42
f 95/347/42 97/355/42 99/359/42
f 99/359/42 81/360/42 83/356/42
f 99/359/42 83/356/42 87/344/42
s 1
f 246/508/83 248/512/86 247/513/84
f 248/440/86 250/449/88 249/450/87
f 250/449/88 252/460/90 251/461/89
f 252/460/90 254/466/92 253/467/91
f 254/516/92 256/522/94 255/523/93
f 256/522/94 258/526/96 257/527/95
f 258/472/96 260/476/98 259/477/97
f 260/476/98 262/481/100 261/482/99
s 0
f 246/595/38 264/589/38 262/587/38
f 250/609/38 246/595/38 262/587/38
f 250/609/38 248/605/38 246/595/38
f 254/604/38 252/608/38 250/609/38
f 258/588/38 256/594/38 254/604/38
f 262/587/38 258/588/38 254/604/38
f 262/587/38 260/586/38 258/588/38
s 1
f 262/481/100 264/486/102 263/487/101
f 264/506/102 246/508/83 245/509/85
s 0
f 247/620/42 249/615/42 251/614/42
f 251/614/42 253/619/42 255/627/42
f 251/614/42 255/627/42 259/647/42
f 255/627/42 257/645/42 259/647/42
f 259/647/42 261/648/42 263/646/42
f 263/646/42 245/628/42 247/620/42
f 263/646/42 247/620/42 251/614/42
f 289/845/115 291/844/115 296/907/115
f 292/209/116 294/208/116 291/243/116
f 293/804/126 292/800/126 305/799/126
f 294/774/105 300/773/105 296/791/105
f 295/908/119 297/919/119 308/920/119
f 297/249/118 296/250/118 300/215/118
f 298/767/117 300/773/117 294/774/117
f 298/849/38 293/804/38 304/803/38
f 299/214/106 312/213/106 308/248/106
f 301/846/125 303/828/125 290/827/125
f 303/245/124 302/246/124 306/211/124
f 304/412/123 306/419/123 311/420/123
f 305/210/103 292/209/103 290/244/103
f 307/909/122 309/910/122 302/847/122
f 307/909/42 301/846/42 289/845/42
f 309/247/121 308/248/121 312/213/121
f 310/848/120 312/867/120 299/868/120
f 311/420/104 306/419/104 302/429/104
usemtl FPS_hazard
f 125/723/132 127/724/132 126/709/132
f 127/724/125 128/725/125 129/710/125
f 127/724/125 129/710/125 126/709/125
f 128/725/133 130/726/133 129/710/133
f 128/725/161 152/749/161 130/726/161
f 128/725/161 154/748/161 152/749/161
f 129/471/103 132/448/103 135/456/103
f 129/471/149 130/465/149 131/439/149
f 129/471/149 131/439/149 132/448/149
f 131/666/134 133/665/134 132/685/134
f 131/666/162 155/633/162 133/665/162
f 131/666/162 157/634/162 155/633/162
f 133/444/150 134/446/150 135/456/150
f 133/444/150 135/456/150 132/448/150
f 134/664/135 136/663/135 135/684/135
f 134/664/163 158/631/163 136/663/163
f 134/664/163 160/632/163 158/631/163
f 135/456/103 138/483/103 141/530/103
f 135/456/103 141/530/103 148/567/103
f 135/456/151 136/457/151 137/478/151
f 135/456/151 137/478/151 138/483/151
f 137/650/136 139/651/136 138/641/136
f 137/650/164 161/701/164 139/651/164
f 137/650/164 163/700/164 161/701/164
f 139/651/126 140/652/126 141/642/126
f 139/651/126 141/642/126 138/641/126
f 140/652/137 142/653/137 141/642/137
f 140/652/165 164/703/165 142/653/165
f 140/652/165 166/702/165 164/703/165
f 141/530/103 144/559/103 148/567/103
f 142/538/152 143/558/152 144/559/152
f 142/538/152 144/559/152 141/530/152
f 143/636/138 145/637/138 144/625/138
f 143/636/166 167/669/166 145/637/166
f 143/636/166 169/668/166 167/669/166
f 144/559/153 145/568/153 147/576/153
f 144/559/153 147/576/153 148/567/153
f 146/577/148 125/552/148 126/549/148
f 146/577/148 126/549/148 148/567/148
f 146/639/139 148/626/139 147/638/139
f 147/638/167 170/671/167 146/639/167
f 147/638/167 172/670/167 170/671/167
f 148/567/103 126/549/103 129/471/103
f 148/567/103 129/471/103 135/456/103
f 149/746/140 151/755/140 150/747/140
f 150/747/160 125/723/160 149/746/160
f 150/747/160 127/724/160 125/723/160
f 150/747/42 128/725/42 127/724/42
f 150/747/42 154/748/42 128/725/42
f 151/279/106 168/276/106 162/331/106
f 151/279/106 171/271/106 168/276/106
f 151/279/154 149/278/154 170/265/154
f 151/279/154 170/265/154 171/271/154
f 152/635/127 131/666/127 130/667/127
f 152/635/127 157/634/127 131/666/127
f 152/749/141 154/748/141 153/756/141
f 154/748/119 150/747/119 151/755/119
f 154/748/119 151/755/119 153/756/119
f 155/633/128 134/664/128 133/665/128
f 155/633/128 160/632/128 134/664/128
f 155/633/142 157/634/142 156/624/142
f 156/365/106 153/350/106 151/279/106
f 157/372/159 152/352/159 153/350/159
f 157/372/159 153/350/159 156/365/159
f 158/631/143 160/632/143 159/623/143
f 158/699/129 137/650/129 136/649/129
f 158/699/129 163/700/129 137/650/129
f 159/358/158 155/371/158 156/365/158
f 159/358/158 160/366/158 155/371/158
f 161/701/144 163/700/144 162/719/144
f 161/701/38 140/652/38 139/651/38
f 161/701/38 166/702/38 140/652/38
f 162/331/106 156/365/106 151/279/106
f 162/331/106 159/358/106 156/365/106
f 163/341/157 158/357/157 159/358/157
f 163/341/157 159/358/157 162/331/157
f 164/703/130 143/654/130 142/653/130
f 164/703/130 169/704/130 143/654/130
f 164/703/145 166/702/145 165/720/145
f 166/702/120 161/701/120 162/719/120
f 166/702/120 162/719/120 165/720/120
f 167/669/131 147/638/131 145/637/131
f 167/669/131 172/670/131 147/638/131
f 167/669/146 169/668/146 168/686/146
f 168/276/106 165/291/106 162/331/106
f 168/276/156 164/290/156 165/291/156
f 168/276/156 169/277/156 164/290/156
f 170/671/147 172/670/147 171/687/147
f 170/671/168 125/640/168 146/639/168
f 170/671/168 149/672/168 125/640/168
f 172/269/155 167/270/155 168/276/155
f 172/269/155 168/276/155 171/271/155
f 265/386/115 267/385/115 272/393/115
f 265/386/115 272/393/115 271/394/115
f 265/386/217 266/379/217 267/385/217
f 268/583/116 267/659/116 266/660/116
f 268/583/116 270/582/116 267/659/116
f 268/822/218 269/860/218 270/862/218
f 269/874/126 268/835/126 281/834/126
f 269/874/126 281/834/126 280/873/126
f 270/862/105 272/904/105 267/890/105
f 270/862/105 276/882/105 272/904/105
f 271/394/119 273/403/119 284/404/119
f 271/394/119 284/404/119 283/395/119
f 271/394/219 272/393/219 273/403/219
f 271/394/42 277/387/42 265/386/42
f 271/394/42 283/395/42 277/387/42
f 273/925/118 272/926/118 276/798/118
f 273/925/118 276/798/118 275/797/118
f 274/876/117 270/862/117 269/860/117
f 274/876/117 276/882/117 270/862/117
f 274/876/220 275/903/220 276/882/220
f 275/797/106 284/924/106 273/925/106
f 275/797/106 288/796/106 284/924/106
f 277/387/125 266/379/125 265/386/125
f 277/387/125 279/380/125 266/379/125
f 277/387/221 278/388/221 279/380/221
f 279/661/124 278/662/124 282/585/124
f 279/661/124 282/585/124 281/584/124
f 280/875/123 282/881/123 287/861/123
f 280/875/123 287/861/123 286/859/123
f 280/875/222 281/901/222 282/881/222
f 281/584/103 266/660/103 279/661/103
f 281/584/103 268/583/103 266/660/103
f 283/395/122 278/388/122 277/387/122
f 283/395/122 285/396/122 278/388/122
f 283/395/223 284/404/223 285/396/223
f 285/923/121 284/924/121 288/796/121
f 285/923/121 288/796/121 287/795/121
f 286/859/224 287/861/224 288/821/224
f 286/891/120 275/914/120 274/892/120
f 286/891/120 288/913/120 275/914/120
f 286/891/38 269/874/38 280/873/38
f 286/891/38 274/892/38 269/874/38
f 287/861/104 278/902/104 285/889/104
f 287/861/104 282/881/104 278/902/104
usemtl FPS_gunmetal_paint
f 174/224/103 175/223/103 176/251/103
f 174/224/103 176/251/103 173/252/103
f 177/555/42 174/532/42 173/531/42
f 177/555/42 178/556/42 174/532/42
f 178/556/122 175/533/122 174/532/122
f 178/556/122 179/557/122 175/533/122
f 179/918/38 176/887/38 175/917/38
f 179/918/38 180/888/38 176/887/38
f 180/408/106 178/423/106 177/409/106
f 180/408/106 179/422/106 178/423/106
f 180/823/117 173/900/117 176/824/117
f 180/823/117 177/899/117 173/900/117
f 182/228/103 183/227/103 184/255/103
f 182/228/103 184/255/103 181/256/103
f 185/280/42 182/267/42 181/266/42
f 185/280/42 186/281/42 182/267/42
f 186/281/122 183/268/122 182/267/122
f 186/281/122 187/282/122 183/268/122
f 187/916/38 184/885/38 183/915/38
f 187/916/38 188/886/38 184/885/38
f 188/714/117 181/754/117 184/715/117
f 188/714/117 185/753/117 181/754/117
f 188/836/106 186/870/106 185/837/106
f 188/836/106 187/869/106 186/870/106
f 190/226/103 191/225/103 192/253/103
f 190/226/103 192/253/103 189/254/103
f 193/296/42 190/288/42 189/287/42
f 193/296/42 194/297/42 190/288/42
f 194/297/122 191/289/122 190/288/122
f 194/297/122 195/298/122 191/289/122
f 195/258/38 192/197/38 191/257/38
f 195/258/38 196/198/38 192/197/38
f 196/410/106 194/425/106 193/411/106
f 196/410/106 195/424/106 194/425/106
f 196/883/117 189/922/117 192/884/117
f 196/883/117 193/921/117 189/922/117
f 197/351/172 198/353/172 199/354/172
f 197/351/180 199/354/180 204/349/180
f 197/351/180 204/349/180 203/346/180
f 198/602/181 200/601/181 202/610/181
f 198/602/181 202/610/181 199/611/181
f 200/769/173 201/785/173 202/786/173
f 201/600/191 213/591/191 212/590/191
f 201/600/334 200/601/334 213/591/334
f 202/786/171 204/810/171 199/787/171
f 202/786/171 208/809/171 204/810/171
f 203/346/174 204/349/174 205/342/174
f 205/383/183 204/378/183 208/377/183
f 205/383/183 208/377/183 207/382/183
f 206/381/185 220/398/185 207/382/185
f 206/381/333 218/397/333 220/398/333
f 206/514/170 201/518/170 212/525/170
f 206/514/170 212/525/170 218/521/170
f 206/808/175 207/819/175 208/809/175
f 206/808/182 202/786/182 201/785/182
f 206/808/182 208/809/182 202/786/182
f 207/382/106 216/399/106 205/383/106
f 207/382/106 220/398/106 216/399/106
f 209/593/190 198/602/190 197/603/190
f 209/593/190 211/592/190 198/602/190
f 209/741/176 210/740/176 211/752/176
f 211/592/103 200/601/103 198/602/103
f 211/592/103 213/591/103 200/601/103
f 211/592/189 210/581/189 214/580/189
f 211/592/189 214/580/189 213/591/189
f 212/525/177 213/528/177 214/529/177
f 212/525/188 214/529/188 219/524/188
f 212/525/188 219/524/188 218/521/188
f 215/340/192 197/351/192 203/346/192
f 215/340/192 209/345/192 197/351/192
f 215/400/184 203/384/184 205/383/184
f 215/400/184 205/383/184 216/399/184
f 215/729/178 216/713/178 217/728/178
f 215/729/187 210/740/187 209/741/187
f 215/729/187 217/728/187 210/740/187
f 218/521/179 219/524/179 220/515/179
f 219/401/186 216/399/186 220/398/186
f 219/401/186 217/402/186 216/399/186
f 219/727/169 210/740/169 217/728/169
f 219/727/169 214/739/169 210/740/169
f 221/185/214 233/173/214 235/172/214
f 221/185/214 235/172/214 222/184/214
f 221/784/196 222/766/196 223/783/196
f 221/784/204 223/783/204 228/806/204
f 221/784/204 228/806/204 227/807/204
f 222/184/205 224/183/205 226/195/205
f 222/184/205 226/195/205 223/196/205
f 224/442/197 225/447/197 226/443/197
f 226/782/195 228/806/195 223/783/195
f 226/782/195 232/805/195 228/806/195
f 227/19/208 229/18/208 240/34/208
f 227/19/208 240/34/208 239/35/208
f 227/807/198 228/806/198 229/816/198
f 229/18/106 231/17/106 244/33/106
f 229/18/106 244/33/106 240/34/106
f 229/18/207 228/11/207 232/10/207
f 229/18/207 232/10/207 231/17/207
f 230/458/194 225/447/194 236/459/194
f 230/458/194 236/459/194 242/468/194
f 230/458/199 231/464/199 232/451/199
f 230/458/206 226/443/206 225/447/206
f 230/458/206 232/451/206 226/443/206
f 233/494/200 234/491/200 235/490/200
f 235/172/213 234/163/213 238/162/213
f 235/172/213 238/162/213 237/171/213
f 236/170/215 224/183/215 237/171/215
f 236/170/336 225/182/336 224/183/336
f 236/811/201 237/820/201 238/812/201
f 236/811/212 238/812/212 243/789/212
f 236/811/212 243/789/212 242/788/212
f 237/171/103 222/184/103 235/172/103
f 237/171/103 224/183/103 222/184/103
f 239/496/202 240/500/202 241/495/202
f 239/496/211 234/491/211 233/494/211
f 239/496/211 241/495/211 234/491/211
f 239/496/216 221/497/216 227/505/216
f 239/496/216 233/494/216 221/497/216
f 241/50/210 240/34/210 244/33/210
f 241/50/210 244/33/210 243/49/210
f 242/32/209 231/17/209 230/16/209
f 242/32/335 244/33/335 231/17/335
f 242/788/203 243/789/203 244/770/203
f 243/789/193 234/813/193 241/790/193
f 243/789/193 238/812/193 234/813/193
s 1
usemtl FPS_signal
f 313/58/231 390/90/306 389/59/304
f 314/742/230 319/775/232 315/762/233
f 314/742/230 391/750/307 390/737/306
f 315/74/233 392/106/308 391/75/307
f 317/57/229 314/89/230 313/58/231
f 319/73/232 316/105/234 315/74/233
f 320/165/235 313/169/231 316/152/234
f 321/56/236 318/88/237 317/57/229
f 322/793/238 319/775/232 318/764/237
f 323/72/239 320/104/235 319/73/232
f 324/167/240 317/177/229 320/165/235
f 324/167/240 325/178/241 321/179/236
f 325/55/241 322/87/238 321/56/236
f 326/817/242 323/801/239 322/793/238
f 327/221/243 324/242/240 323/222/239
f 328/166/247 329/176/244 325/178/241
f 329/99/244 326/67/242 325/98/241
f 330/842/245 327/814/243 326/817/242
f 330/842/245 335/857/249 331/825/246
f 331/220/246 328/241/247 327/221/243
f 333/100/248 330/68/245 329/99/244
f 335/219/249 332/240/250 331/220/246
f 336/151/251 329/176/244 332/164/250
f 336/151/251 337/149/252 333/168/248
f 337/101/252 334/69/253 333/100/248
f 337/101/252 342/71/256 338/70/254
f 338/893/254 335/857/249 334/879/253
f 338/893/254 343/877/257 339/871/255
f 339/218/255 336/239/251 335/219/249
f 342/905/256 347/878/262 343/877/257
f 343/217/257 340/238/258 339/218/255
f 344/115/259 337/149/252 340/130/258
f 345/93/260 342/61/256 341/92/261
f 347/216/262 344/237/259 343/217/257
f 348/78/263 341/126/261 344/115/259
f 349/94/264 346/62/265 345/93/260
f 349/94/264 354/64/269 350/63/266
f 350/894/266 347/878/262 346/906/265
f 351/689/267 348/673/263 347/688/262
f 352/40/268 345/53/260 348/78/263
f 352/40/268 353/22/271 349/36/264
f 353/95/271 358/65/272 354/64/269
f 354/880/269 351/872/267 350/894/266
f 354/880/269 359/826/273 355/858/270
f 355/690/270 352/674/268 351/689/267
f 355/690/270 360/676/274 356/675/275
f 357/96/276 362/66/277 358/65/272
f 360/26/274 353/22/271 356/30/275
f 362/818/277 359/826/273 358/843/272
f 363/692/278 360/676/274 359/691/273
f 364/24/279 357/14/276 360/26/274
f 364/24/279 365/13/280 361/12/281
f 365/230/280 362/201/277 361/229/281
f 366/794/282 363/815/278 362/818/277
f 367/693/283 364/677/279 363/692/278
f 368/25/287 369/15/284 365/13/280
f 369/231/284 366/202/282 365/230/280
f 370/765/285 367/802/283 366/794/282
f 370/765/285 375/763/289 371/776/286
f 371/682/286 368/698/287 367/683/283
f 373/232/288 370/203/285 369/231/284
f 375/681/289 372/697/290 371/682/286
f 376/31/291 369/15/284 372/27/290
f 376/31/291 377/37/292 373/23/288
f 377/233/292 374/204/293 373/232/288
f 378/738/294 375/763/289 374/743/293
f 378/738/294 383/745/297 379/751/295
f 379/680/295 376/696/291 375/681/289
f 381/234/296 378/205/294 377/233/292
f 382/733/301 387/744/302 383/745/297
f 383/679/297 380/695/298 379/680/295
f 384/79/299 377/37/292 380/41/298
f 385/235/300 382/206/301 381/234/296
f 387/76/302 384/108/299 383/77/297
f 388/116/303 381/54/296 384/79/299
f 389/59/304 386/91/305 385/60/300
f 390/737/306 387/744/302 386/732/305
f 391/75/307 388/107/303 387/76/302
f 392/131/308 313/169/231 389/150/304
f 392/131/308 385/127/300 388/116/303
f 394/832/309 395/850/310 393/851/311
f 396/853/312 397/839/313 395/838/310
f 398/854/314 399/840/315 397/839/313
f 400/855/316 401/841/317 399/840/315
f 402/566/318 403/572/319 401/573/317
f 404/565/320 405/571/321 403/572/319
f 406/564/322 407/570/323 405/571/321
f 408/563/324 409/569/325 407/570/323
f 410/370/326 411/375/327 409/376/325
f 412/369/328 413/374/329 411/375/327
s 0
f 414/541/103 406/554/103 398/540/103
s 1
f 414/368/330 415/373/331 413/374/329
f 416/833/332 393/851/311 415/852/331
s 0
f 399/323/106 407/326/106 415/314/106
s 1
f 313/58/231 314/89/230 390/90/306
f 314/742/230 315/762/233 391/750/307
f 314/742/230 318/764/237 319/775/232
f 315/74/233 316/105/234 392/106/308
f 317/57/229 318/88/237 314/89/230
f 319/73/232 320/104/235 316/105/234
f 320/165/235 317/177/229 313/169/231
f 321/56/236 322/87/238 318/88/237
f 322/793/238 323/801/239 319/775/232
f 323/72/239 324/103/240 320/104/235
f 324/167/240 321/179/236 317/177/229
f 324/167/240 328/166/247 325/178/241
f 325/55/241 326/86/242 322/87/238
f 326/817/242 327/814/243 323/801/239
f 327/221/243 328/241/247 324/242/240
f 328/166/247 332/164/250 329/176/244
f 329/99/244 330/68/245 326/67/242
f 330/842/245 331/825/246 327/814/243
f 330/842/245 334/879/253 335/857/249
f 331/220/246 332/240/250 328/241/247
f 333/100/248 334/69/253 330/68/245
f 335/219/249 336/239/251 332/240/250
f 336/151/251 333/168/248 329/176/244
f 336/151/251 340/130/258 337/149/252
f 337/101/252 338/70/254 334/69/253
f 337/101/252 341/102/261 342/71/256
f 338/893/254 339/871/255 335/857/249
f 338/893/254 342/905/256 343/877/257
f 339/218/255 340/238/258 336/239/251
f 342/905/256 346/906/265 347/878/262
f 343/217/257 344/237/259 340/238/258
f 344/115/259 341/126/261 337/149/252
f 345/93/260 346/62/265 342/61/256
f 347/216/262 348/236/263 344/237/259
f 348/78/263 345/53/260 341/126/261
f 349/94/264 350/63/266 346/62/265
f 349/94/264 353/95/271 354/64/269
f 350/894/266 351/872/267 347/878/262
f 351/689/267 352/674/268 348/673/263
f 352/40/268 349/36/264 345/53/260
f 352/40/268 356/30/275 353/22/271
f 353/95/271 357/96/276 358/65/272
f 354/880/269 355/858/270 351/872/267
f 354/880/269 358/843/272 359/826/273
f 355/690/270 356/675/275 352/674/268
f 355/690/270 359/691/273 360/676/274
f 357/96/276 361/97/281 362/66/277
f 360/26/274 357/14/276 353/22/271
f 362/818/277 363/815/278 359/826/273
f 363/692/278 364/677/279 360/676/274
f 364/24/279 361/12/281 357/14/276
f 364/24/279 368/25/287 365/13/280
f 365/230/280 366/202/282 362/201/277
f 366/794/282 367/802/283 363/815/278
f 367/693/283 368/678/287 364/677/279
f 368/25/287 372/27/290 369/15/284
f 369/231/284 370/203/285 366/202/282
f 370/765/285 371/776/286 367/802/283
f 370/765/285 374/743/293 375/763/289
f 371/682/286 372/697/290 368/698/287
f 373/232/288 374/204/293 370/203/285
f 375/681/289 376/696/291 372/697/290
f 376/31/291 373/23/288 369/15/284
f 376/31/291 380/41/298 377/37/292
f 377/233/292 378/205/294 374/204/293
f 378/738/294 379/751/295 375/763/289
f 378/738/294 382/733/301 383/745/297
f 379/680/295 380/695/298 376/696/291
f 381/234/296 382/206/301 378/205/294
f 382/733/301 386/732/305 387/744/302
f 383/679/297 384/694/299 380/695/298
f 384/79/299 381/54/296 377/37/292
f 385/235/300 386/207/305 382/206/301
f 387/76/302 388/107/303 384/108/299
f 388/116/303 385/127/300 381/54/296
f 389/59/304 390/90/306 386/91/305
f 390/737/306 391/750/307 387/744/302
f 391/75/307 392/106/308 388/107/303
f 392/131/308 316/152/234 313/169/231
f 392/131/308 389/150/304 385/127/300
f 394/832/309 396/831/312 395/850/310
f 396/853/312 398/854/314 397/839/313
f 398/854/314 400/855/316 399/840/315
f 400/855/316 402/856/318 401/841/317
f 402/566/318 404/565/320 403/572/319
f 404/565/320 406/564/322 405/571/321
f 406/564/322 408/563/324 407/570/323
f 408/563/324 410/562/326 409/569/325
f 410/370/326 412/369/328 411/375/327
f 412/369/328 414/368/330 413/374/329
s 0
f 394/534/103 416/539/103 414/541/103
f 398/540/103 394/534/103 414/541/103
f 398/540/103 396/535/103 394/534/103
f 402/548/103 400/542/103 398/540/103
f 406/554/103 402/548/103 398/540/103
f 406/554/103 404/551/103 402/548/103
f 410/550/103 408/553/103 406/554/103
f 414/541/103 410/550/103 406/554/103
f 414/541/103 412/547/103 410/550/103
s 1
f 414/368/330 416/367/332 415/373/331
f 416/833/332 394/832/309 393/851/311
s 0
f 395/315/106 397/319/106 399/323/106
f 399/323/106 401/325/106 403/329/106
f 399/323/106 403/329/106 407/326/106
f 403/329/106 405/330/106 407/326/106
f 407/326/106 409/324/106 411/320/106
f 407/326/106 411/320/106 415/314/106
f 411/320/106 413/316/106 415/314/106
f 415/314/106 393/313/106 395/315/106
f 415/314/106 395/315/106 399/323/106
