# Blender 4.0.2
# www.blender.org
mtllib target_dummy_lod1.mtl
o target_dummy_lod1
v 0.000000 0.000000 0.340000
v 0.000000 0.080000 0.340000
v -0.147197 0.000000 0.310537
v -0.164710 0.080000 0.301613
v -0.301613 0.000000 0.164710
v -0.310537 0.080000 0.147197
v -0.340000 0.000000 0.000000
v -0.340000 0.080000 0.000000
v -0.310537 0.000000 -0.147197
v -0.301613 0.080000 -0.164710
v -0.164710 0.000000 -0.301613
v -0.147197 0.080000 -0.310537
v 0.000000 0.000000 -0.340000
v 0.000000 0.080000 -0.340000
v 0.147197 0.000000 -0.310537
v 0.164710 0.080000 -0.301613
v 0.301613 0.000000 -0.164710
v 0.310537 0.080000 -0.147197
v 0.340000 0.000000 0.000000
v 0.340000 0.080000 0.000000
v 0.310537 0.000000 0.147197
v 0.301613 0.080000 0.164710
v 0.164710 0.000000 0.301613
v 0.147197 0.080000 0.310537
v 0.040128 0.110135 0.310616
v -0.147111 0.080198 0.310356
v -0.150133 0.110090 0.274920
v -0.275066 0.080000 0.199847
v -0.337602 0.080149 0.063417
v -0.283013 0.110135 0.134150
v -0.310477 0.080066 -0.147168
v -0.307881 0.110068 -0.057834
v -0.164614 0.080198 -0.301438
v -0.176725 0.110583 -0.265278
v 0.000000 0.080000 -0.340000
v 0.110830 0.110324 -0.299150
v 0.147145 0.080119 -0.310428
v 0.301482 0.080149 -0.164638
v 0.283066 0.110077 -0.134175
v 0.340739 0.080085 0.044020
v 0.307814 0.110135 0.057821
v 0.249743 0.080149 0.235850
v 0.215080 0.110077 0.227749
v 0.063429 0.080085 0.337665
v -0.045357 0.100000 0.019405
v -0.032471 0.920000 0.037140
v -0.017160 0.100000 -0.043331
v -0.035908 0.920000 -0.029711
v 0.035908 0.100000 -0.029711
v 0.032471 0.920000 -0.037140
v 0.032471 0.100000 0.037140
v 0.035908 0.920000 0.029711
v 0.068333 0.848333 -0.041667
v 0.072308 0.909231 -0.039231
v 0.072308 0.850769 0.039231
v 0.068333 0.911667 0.041667
v -0.072308 0.850769 -0.039231
v -0.068333 0.911667 -0.041667
v -0.068333 0.848333 0.041667
v -0.072308 0.909231 0.039231
v 0.194001 0.910482 -0.029200
v -0.189659 0.908170 -0.031691
v -0.236667 1.405782 -0.035897
v -0.258318 1.297839 -0.020684
v -0.123686 1.463210 -0.029726
v 0.113158 1.464482 -0.031651
v 0.232928 1.395067 -0.040566
v 0.233403 1.418342 -0.021385
v 0.258283 1.302133 -0.020684
v 0.189659 0.908170 0.031691
v -0.194001 0.910482 0.029200
v -0.258283 1.302133 0.020684
v -0.232928 1.395067 0.040566
v -0.233403 1.418342 0.021385
v -0.113158 1.464482 0.031651
v 0.123686 1.463210 0.029726
v 0.236667 1.405782 0.035897
v 0.258318 1.297839 0.020684
v 0.168333 0.930000 -0.042000
v 0.086667 1.000000 -0.042000
v 0.156667 0.930000 0.042000
v 0.098333 1.000000 0.042000
v 0.078333 0.930000 -0.042000
v -0.003333 1.000000 -0.042000
v 0.066667 0.930000 0.042000
v 0.008333 1.000000 0.042000
v -0.011667 0.930000 -0.042000
v -0.093333 1.000000 -0.042000
v -0.023333 0.930000 0.042000
v -0.081667 1.000000 0.042000
v 0.304802 0.965648 -0.024231
v 0.355182 1.363116 -0.026667
v 0.308225 0.968334 0.024231
v 0.352272 1.366825 0.026667
v 0.244818 0.976884 -0.026667
v 0.295198 1.374352 -0.024231
v 0.247728 0.973175 0.026667
v 0.291775 1.371666 0.024231
v -0.247728 0.973175 -0.026667
v -0.291775 1.371666 -0.024231
v -0.244818 0.976884 0.026667
v -0.295198 1.374352 0.024231
v -0.308225 0.968334 -0.024231
v -0.352272 1.366825 -0.026667
v -0.304802 0.965648 0.024231
v -0.355182 1.363116 0.026667
v -0.022479 1.450000 0.037652
v -0.034980 1.570000 0.022195
v -0.034980 1.450000 -0.022195
v -0.022479 1.570000 -0.037652
v 0.022479 1.450000 -0.037652
v 0.034980 1.570000 -0.022195
v 0.034980 1.450000 0.022195
v 0.022479 1.570000 0.037652
v 0.080000 1.590000 -0.040000
v 0.113158 1.590081 -0.001579
v 0.080000 1.770000 -0.040000
v 0.079919 1.803158 -0.001579
v 0.079919 1.556842 0.001579
v 0.080000 1.590000 0.040000
v 0.080000 1.770000 0.040000
v 0.113158 1.769919 0.001579
v -0.079919 1.556842 -0.001579
v -0.080000 1.590000 -0.040000
v -0.080000 1.770000 -0.040000
v -0.113158 1.769919 -0.001579
v -0.080000 1.590000 0.040000
v -0.113158 1.590081 0.001579
v -0.079919 1.803158 0.001579
v -0.080000 1.770000 0.040000
v 0.074167 1.684167 -0.038833
v 0.076154 1.714615 -0.037615
v 0.076154 1.685385 0.037615
v 0.074167 1.715833 0.038833
v -0.076154 1.685385 -0.037615
v -0.074167 1.715833 -0.038833
v -0.074167 1.684167 0.038833
v -0.076154 1.714615 0.037615
v -0.115568 1.252328 0.050000
v -0.126082 1.185946 0.038000
v -0.084947 1.213454 0.043455
v -0.000000 1.324580 0.050000
v -0.068539 1.302882 0.038000
v -0.044440 1.278103 0.038000
v -0.037065 1.281861 0.050000
v 0.103375 1.266261 0.045385
v 0.042947 1.315922 0.038000
v 0.039046 1.276631 0.044000
v 0.075403 1.241178 0.038000
v 0.082712 1.226875 0.050000
v 0.119925 1.181006 0.044462
v 0.078020 1.105321 0.045200
v 0.084310 1.176347 0.038000
v 0.076908 1.160814 0.050000
v 0.000000 1.078177 0.044000
v 0.030421 1.117889 0.038000
v 0.023653 1.115690 0.050000
v -0.096977 1.123333 0.050000
v -0.058133 1.093548 0.038000
v -0.039046 1.123369 0.044000
v -0.076631 1.160954 0.044000
v -0.022675 1.236535 0.044000
v -0.038548 1.182902 0.046571
v 0.004467 1.158068 0.043600
v 0.039795 1.189337 0.043143
v 0.030475 1.227547 0.050000
v 0.018760 1.238678 0.038000
vn -0.4261 0.8812 0.2049
vn -0.9471 -0.2870 0.1434
vn -0.7285 -0.3196 0.6060
vn -0.5317 0.8427 -0.0842
vn -0.8480 -0.2667 -0.4580
vn -0.3219 0.8524 -0.4120
vn -0.3851 -0.3490 -0.8543
vn 0.1610 0.8660 -0.4734
vn 0.5077 -0.3413 -0.7911
vn -0.0748 -0.2565 -0.9637
vn -0.5271 0.5799 0.6212
vn -0.7321 -0.5760 0.3636
vn 0.4968 -0.5743 0.6507
vn -0.6161 0.5871 -0.5251
vn -0.3481 -0.5917 -0.7271
vn 0.5309 0.5788 -0.6190
vn 0.6503 -0.5912 -0.4770
vn -0.0126 -0.0026 0.9999
vn 0.4739 -0.0587 -0.8786
vn -0.4092 -0.0464 -0.9113
vn 0.4092 -0.0464 0.9113
vn -0.4739 -0.0587 0.8786
vn -0.4229 0.5981 -0.6807
vn 0.4229 -0.5981 -0.6807
vn -0.6813 -0.6063 -0.4103
vn 0.4229 0.5981 0.6807
vn -0.4229 -0.5981 0.6807
vn 0.6813 -0.6063 0.4103
vn 0.5861 -0.6340 -0.5045
vn 0.6340 0.5861 -0.5045
vn 0.6340 -0.5861 0.5045
vn 0.5861 0.6340 0.5045
vn -0.6340 -0.5861 -0.5045
vn -0.5861 0.6340 -0.5045
vn -0.5861 -0.6340 0.5045
vn -0.6340 0.5861 0.5045
vn 0.1503 -0.4865 0.8606
vn -0.8694 0.3871 0.3070
vn 0.9653 -0.2595 -0.0293
vn -0.0346 0.9224 0.3846
vn -0.5333 0.7902 -0.3020
vn -0.0693 -0.9976 0.0023
vn 0.2857 -0.4111 -0.8657
vn -0.4367 -0.0918 0.8949
vn 0.7463 0.6642 0.0422
vn -0.3914 0.0642 -0.9180
vn -0.3652 -0.2405 -0.8993
vn 0.9902 -0.1389 0.0118
vn -0.3546 0.2770 0.8930
vn 0.6560 -0.7543 0.0260
vn -0.1993 -0.9799 -0.0043
vn -0.2205 0.4085 -0.8857
vn 0.6323 0.7745 0.0176
vn -0.0964 0.4629 0.8812
vn -0.7138 -0.5646 0.4144
vn -0.2875 -0.8582 -0.4253
vn 0.8953 0.4454 0.0085
vn -0.9374 -0.1362 -0.3207
vn 0.2628 0.8405 -0.4739
vn -0.8463 0.5321 0.0258
vn 0.7116 0.4386 0.5488
vn -0.6538 -0.6473 0.3919
vn -0.3919 0.6473 0.6538
vn -0.6841 0.6511 0.3287
vn -0.7464 -0.6655 0.0037
vn -0.7464 0.6655 -0.0037
vn -0.6841 -0.6511 -0.3287
vn -0.6538 0.6473 -0.3919
vn -0.3919 -0.6473 -0.6538
vn -0.3287 0.6511 -0.6841
vn -0.0037 -0.6655 -0.7464
vn 0.0037 0.6655 -0.7464
vn 0.3287 -0.6511 -0.6841
vn 0.3919 0.6473 -0.6538
vn 0.6538 -0.6473 -0.3919
vn 0.6841 0.6511 -0.3287
vn 0.7464 -0.6655 -0.0037
vn 0.7464 0.6655 0.0037
vn 0.6841 -0.6511 0.3287
vn 0.6538 0.6473 0.3919
vn 0.3919 -0.6473 0.6538
vn 0.3287 0.6511 0.6841
vn -0.0000 1.0000 -0.0000
vn 0.0037 -0.6655 0.7464
vn -0.0037 0.6655 0.7464
vn -0.3578 -0.3254 0.8753
vn 0.0283 0.8922 0.4508
vn -0.2264 0.8970 0.3796
vn -0.0000 -1.0000 -0.0000
vn 0.4184 0.8910 -0.1762
vn 0.8013 -0.3170 -0.5073
vn 0.9420 -0.3248 0.0846
vn 0.4376 0.8921 0.1124
vn 0.7126 -0.3242 0.6222
vn 0.2882 0.8919 0.3485
vn 0.0001 1.0000 0.0005
vn 0.2105 -0.3250 0.9220
vn 0.6191 0.5834 0.5257
vn -0.0000 -1.0000 0.0001
vn 0.0180 0.0388 -0.9991
vn -0.9969 0.0632 -0.0471
vn 0.0178 0.9994 -0.0292
vn 0.9969 0.0632 0.0471
vn -0.0180 0.0388 0.9991
vn -0.0178 -0.9994 -0.0292
vn -0.9867 -0.1616 0.0176
vn 0.0126 -0.0026 -0.9999
vn -0.9778 0.2093 0.0098
vn -0.3611 0.9316 0.0426
vn 0.0055 0.9998 0.0198
vn 0.4393 0.8824 0.1684
vn 0.9808 0.1940 0.0193
vn -0.0063 -0.9993 0.0375
vn 0.9831 -0.1714 0.0636
vn -0.3287 -0.6511 0.6841
vn 0.2950 0.6041 -0.7403
vn 0.9428 0.2003 -0.2663
vn -0.2950 0.6041 0.7403
vn -0.9428 0.2003 0.2663
vn -0.7639 -0.6366 0.1061
vn 0.7639 0.6366 0.1061
vn -0.6481 -0.7562 0.0900
vn -0.0385 0.0110 -0.9992
vn -0.9900 0.1259 -0.0630
vn 0.1815 0.9817 -0.0584
vn 0.9920 -0.1100 0.0618
vn 0.0404 0.0016 0.9992
vn -0.1815 -0.9817 -0.0584
vn -0.0404 0.0016 -0.9992
vn -0.9920 -0.1100 -0.0618
vn -0.0772 0.9952 -0.0606
vn 0.9900 0.1259 0.0630
vn 0.0385 0.0110 0.9992
vn 0.0772 -0.9952 -0.0606
vn -0.6813 0.6063 0.4103
vn 0.6813 0.6063 -0.4103
vn -0.0000 -0.0000 -1.0000
vn -0.0000 -0.0000 1.0000
vn 0.7818 0.0109 -0.6234
vn 0.7818 -0.0109 0.6234
vn -0.0000 -0.7571 0.6533
vn -0.0000 0.7571 0.6533
vn -0.7571 -0.0000 0.6534
vn -0.7818 -0.0109 -0.6234
vn -0.0000 -0.7571 -0.6533
vn -0.0000 0.7571 -0.6533
vn 0.0084 0.0394 -0.9992
vn -0.9976 0.0641 -0.0249
vn 0.0082 0.9998 -0.0157
vn 0.9976 0.0641 0.0249
vn -0.0084 0.0394 0.9992
vn -0.0082 -0.9998 -0.0157
vn 0.5261 0.7667 -0.3679
vn 0.8176 -0.5702 -0.0800
vn -0.0338 -0.1178 -0.9925
vn -0.1198 -0.0465 0.9917
vn 0.0838 -0.0166 0.9963
vn -0.0065 -0.0078 0.9999
vn 0.0087 0.1238 0.9923
vn -0.0037 1.0000 0.0001
vn -0.0004 1.0000 0.0007
vn 0.0007 1.0000 0.0007
vn 0.0020 1.0000 -0.0006
vn 0.0011 1.0000 0.0014
vn -0.0010 -1.0000 -0.0001
vn -0.0004 -1.0000 -0.0013
vn 0.0041 -1.0000 -0.0030
vn 0.0015 -1.0000 0.0006
vn -0.0001 -1.0000 0.0046
vn 0.0002 -1.0000 -0.0000
vn -0.0001 -1.0000 0.0003
vn -0.0003 -1.0000 -0.0003
vn -0.0180 -0.0388 -0.9991
vn -0.9969 -0.0632 0.0471
vn -0.0178 0.9994 0.0292
vn 0.9969 -0.0632 -0.0471
vn 0.0180 -0.0388 0.9991
vn 0.0178 -0.9994 0.0292
vn -0.9831 -0.1714 -0.0636
vn 0.0065 -0.0078 -0.9999
vn -0.0087 0.1238 -0.9923
vn -0.0838 -0.0166 -0.9963
vn -0.9808 0.1940 -0.0193
vn -0.4393 0.8824 -0.1684
vn -0.0055 0.9998 -0.0198
vn 0.3611 0.9316 -0.0426
vn 0.9778 0.2093 -0.0098
vn 0.0063 -0.9993 -0.0375
vn 0.9867 -0.1616 -0.0176
vn -0.6481 -0.7562 -0.0900
vn 0.6481 0.7562 -0.0900
vn -0.7639 -0.6366 -0.1061
vn 0.0385 -0.0110 -0.9992
vn -0.9920 0.1100 0.0618
vn 0.0772 0.9952 0.0606
vn 0.9900 -0.1259 -0.0630
vn -0.0404 -0.0016 0.9992
vn -0.0772 -0.9952 0.0606
vn 0.0404 -0.0016 -0.9992
vn -0.9900 -0.1259 0.0630
vn -0.1815 0.9817 0.0584
vn 0.9920 0.1100 -0.0618
vn -0.0385 -0.0110 0.9992
vn 0.1815 -0.9817 0.0584
vn 0.7571 -0.0000 -0.6534
vn 0.7571 -0.0000 0.6533
vn -0.0123 -0.7818 0.6234
vn 0.0123 0.7818 0.6234
vn -0.7818 0.0109 0.6234
vn -0.7571 -0.0000 -0.6533
vn 0.0123 -0.7818 -0.6234
vn -0.0123 0.7818 -0.6234
vn -0.0084 -0.0394 -0.9992
vn -0.9976 -0.0641 0.0249
vn -0.0082 0.9998 0.0157
vn 0.9976 -0.0641 -0.0249
vn 0.0084 -0.0394 0.9992
vn 0.0082 -0.9998 0.0157
vn -0.0468 0.0383 -0.9982
vn -0.1430 -0.0051 -0.9897
vn 0.0823 0.0234 0.9963
vn 0.1385 -0.1421 0.9801
vt 0.00000 0.39369
vt 0.00000 0.44701
vt 0.00000 0.52253
vt 0.00000 0.58984
vt 0.00000 0.65137
vt 0.00182 0.93118
vt 0.00405 0.00000
vt 0.00626 0.85073
vt 0.00662 0.66701
vt 0.00982 0.89147
vt 0.00993 0.38410
vt 0.01843 0.91063
vt 0.02195 0.96674
vt 0.02222 0.94167
vt 0.03047 0.00000
vt 0.03151 0.85163
vt 0.03186 0.66791
vt 0.03470 0.38410
vt 0.03812 0.39369
vt 0.03812 0.45522
vt 0.03812 0.52253
vt 0.03812 0.59804
vt 0.03812 0.65137
vt 0.03862 0.88850
vt 0.04523 0.96054
vt 0.04566 0.86953
vt 0.04787 0.41750
vt 0.04787 0.46583
vt 0.04787 0.57918
vt 0.04787 0.62177
vt 0.04787 0.64556
vt 0.04849 0.00000
vt 0.04868 0.38410
vt 0.05051 0.66289
vt 0.05053 0.72093
vt 0.05053 0.78660
vt 0.05359 0.39722
vt 0.05359 0.44491
vt 0.05359 0.56990
vt 0.05359 0.60278
vt 0.05359 0.63598
vt 0.05359 0.64556
vt 0.05679 0.80787
vt 0.05715 0.84290
vt 0.06297 0.97693
vt 0.06483 0.41632
vt 0.06483 0.48777
vt 0.06483 0.52433
vt 0.06483 0.59578
vt 0.06483 0.61405
vt 0.06483 0.67721
vt 0.06773 0.88503
vt 0.06996 0.95983
vt 0.07491 0.00000
vt 0.07510 0.38410
vt 0.07912 0.60970
vt 0.07912 0.68807
vt 0.07912 0.72377
vt 0.07912 0.78945
vt 0.07913 0.81161
vt 0.07913 0.83971
vt 0.07914 0.39369
vt 0.07914 0.47205
vt 0.07914 0.53085
vt 0.07914 0.60012
vt 0.08889 0.00000
vt 0.08889 0.39368
vt 0.08889 0.44701
vt 0.08889 0.52252
vt 0.08889 0.58983
vt 0.08889 0.65136
vt 0.08954 0.94497
vt 0.09208 0.90951
vt 0.09387 0.38410
vt 0.09505 0.85118
vt 0.09557 0.88460
vt 0.09595 0.66693
vt 0.10674 0.94153
vt 0.10913 0.00000
vt 0.11410 0.38410
vt 0.11997 0.85169
vt 0.12111 0.66741
vt 0.12385 0.00000
vt 0.12702 0.39368
vt 0.12702 0.45521
vt 0.12702 0.52252
vt 0.12702 0.59803
vt 0.12702 0.65136
vt 0.12883 0.38410
vt 0.13677 0.46580
vt 0.13677 0.48463
vt 0.13677 0.49723
vt 0.13677 0.56631
vt 0.13677 0.58176
vt 0.13677 0.65084
vt 0.13677 0.66326
vt 0.13677 0.71406
vt 0.13963 0.43915
vt 0.13963 0.67762
vt 0.14249 0.47992
vt 0.14249 0.66326
vt 0.14249 0.71083
vt 0.14409 0.00000
vt 0.14630 0.49705
vt 0.14630 0.56613
vt 0.14630 0.58158
vt 0.14630 0.65065
vt 0.14906 0.38410
vt 0.15881 0.16190
vt 0.15881 0.48608
vt 0.15881 0.73365
vt 0.15881 0.91753
vt 0.15881 0.96125
vt 0.17071 0.67925
vt 0.17448 0.22960
vt 0.17448 0.55378
vt 0.18662 0.06857
vt 0.18662 0.39274
vt 0.18818 0.90245
vt 0.19884 0.92300
vt 0.19884 0.96125
vt 0.20859 0.91753
vt 0.20859 0.96125
vt 0.21884 0.65026
vt 0.22857 0.28726
vt 0.22857 0.61144
vt 0.24529 0.01540
vt 0.24529 0.33958
vt 0.24862 0.92300
vt 0.24862 0.96125
vt 0.26463 0.91769
vt 0.26499 0.95273
vt 0.28697 0.92143
vt 0.28697 0.94954
vt 0.29966 0.94043
vt 0.29968 0.99179
vt 0.30480 0.96844
vt 0.30949 0.91450
vt 0.31416 0.00000
vt 0.31416 0.32418
vt 0.31612 1.00000
vt 0.32353 0.31460
vt 0.32353 0.63878
vt 0.32475 0.95178
vt 0.32621 0.96881
vt 0.33157 0.99011
vt 0.33457 0.92585
vt 0.34291 0.65072
vt 0.34726 0.93452
vt 0.34726 0.97378
vt 0.35733 0.96380
vt 0.36002 0.91450
vt 0.36134 0.99201
vt 0.36931 0.95171
vt 0.37181 0.90242
vt 0.37562 0.97716
vt 0.38511 0.92585
vt 0.38688 0.66457
vt 0.38811 0.68054
vt 0.39240 0.29920
vt 0.39240 0.62338
vt 0.39724 0.67742
vt 0.39807 0.91393
vt 0.40057 0.93286
vt 0.40364 0.71514
vt 0.40379 0.73365
vt 0.40379 0.91618
vt 0.40912 0.02734
vt 0.40912 0.35151
vt 0.41354 0.86872
vt 0.41354 0.94367
vt 0.41970 0.83859
vt 0.42059 0.65434
vt 0.43185 0.85467
vt 0.43185 0.94367
vt 0.43335 0.86872
vt 0.43335 0.95772
vt 0.44461 0.83910
vt 0.44575 0.65482
vt 0.45107 0.24603
vt 0.45107 0.57021
vt 0.45166 0.86872
vt 0.45166 0.94367
vt 0.46141 0.66544
vt 0.46141 0.74244
vt 0.46321 0.08500
vt 0.46321 0.40918
vt 0.46454 0.89427
vt 0.46472 0.92865
vt 0.47571 0.64836
vt 0.47571 0.69757
vt 0.47571 0.74679
vt 0.47571 0.89614
vt 0.47571 0.92705
vt 0.47888 0.15269
vt 0.47888 0.47687
vt 0.48863 0.16190
vt 0.48863 0.72198
vt 0.49096 0.98028
vt 0.49114 0.95661
vt 0.49440 0.90040
vt 0.49801 0.54295
vt 0.50052 0.66758
vt 0.50226 0.40013
vt 0.50429 0.08500
vt 0.50593 0.99405
vt 0.50907 0.52494
vt 0.50958 0.96620
vt 0.51370 0.95661
vt 0.51695 0.90040
vt 0.51799 0.89078
vt 0.51965 0.97617
vt 0.52194 0.25348
vt 0.52360 0.39833
vt 0.53173 0.95661
vt 0.53499 0.90040
vt 0.54866 0.63859
vt 0.55081 0.03275
vt 0.55429 0.95661
vt 0.55755 0.90040
vt 0.56590 0.61371
vt 0.56981 0.90040
vt 0.56981 0.95661
vt 0.57211 0.97990
vt 0.57424 0.33340
vt 0.58029 0.60534
vt 0.58712 0.99404
vt 0.59076 0.96619
vt 0.59840 0.90040
vt 0.59840 0.95661
vt 0.60084 0.97616
vt 0.60366 0.30832
vt 0.60815 0.95661
vt 0.61493 0.90040
vt 0.61568 0.33465
vt 0.62378 0.95661
vt 0.63056 0.90040
vt 0.63169 0.97616
vt 0.64031 0.95661
vt 0.64176 0.96619
vt 0.64398 0.00000
vt 0.64615 0.99436
vt 0.64709 0.90040
vt 0.65594 0.95661
vt 0.66006 0.97954
vt 0.66272 0.90040
vt 0.66977 0.61664
vt 0.67247 0.90586
vt 0.67247 0.94958
vt 0.67273 0.63905
vt 0.67543 0.98715
vt 0.67756 0.96637
vt 0.69187 0.99536
vt 0.69280 0.32418
vt 0.69280 0.62711
vt 0.69923 0.96110
vt 0.70163 0.89075
vt 0.70257 0.30548
vt 0.70517 0.34595
vt 0.70854 0.97741
vt 0.71250 0.91133
vt 0.71250 0.94958
vt 0.71669 0.65290
vt 0.71792 0.66887
vt 0.72706 0.66575
vt 0.73345 0.70348
vt 0.73361 0.72198
vt 0.73796 0.34680
vt 0.73894 0.02734
vt 0.74336 0.84300
vt 0.74336 0.85706
vt 0.74336 0.93200
vt 0.74336 0.94605
vt 0.74609 0.96488
vt 0.74892 0.57409
vt 0.74962 0.82647
vt 0.74997 0.64274
vt 0.75258 0.59012
vt 0.75345 0.98865
vt 0.76952 0.96009
vt 0.77080 0.40679
vt 0.77486 0.82737
vt 0.77539 0.64362
vt 0.77688 0.98386
vt 0.78088 0.24603
vt 0.78744 0.40833
vt 0.78751 0.49394
vt 0.79209 0.96488
vt 0.79303 0.08500
vt 0.79682 0.52486
vt 0.79945 0.98865
vt 0.80869 0.15270
vt 0.81553 0.96009
vt 0.81610 0.32958
vt 0.81610 0.38301
vt 0.81610 0.56208
vt 0.81610 0.57706
vt 0.81610 0.63050
vt 0.81610 0.80957
vt 0.82289 0.98386
vt 0.82408 0.15857
vt 0.82471 0.28512
vt 0.82483 0.04775
vt 0.82506 0.22318
vt 0.82797 0.00000
vt 0.82797 0.20754
vt 0.82914 0.84300
vt 0.82914 0.85706
vt 0.82914 0.93200
vt 0.82914 0.94605
vt 0.83517 0.33164
vt 0.83517 0.38503
vt 0.83517 0.56208
vt 0.83517 0.57912
vt 0.83517 0.63251
vt 0.83517 0.80957
vt 0.83898 0.83072
vt 0.83898 0.86040
vt 0.83898 0.87477
vt 0.83898 0.92127
vt 0.84184 0.88990
vt 0.84470 0.82367
vt 0.84470 0.85296
vt 0.84470 0.87477
vt 0.84470 0.91821
vt 0.84704 0.00000
vt 0.84704 0.20754
vt 0.84995 0.28602
vt 0.85018 0.15979
vt 0.85030 0.22408
vt 0.85093 0.04897
vt 0.85445 0.54200
vt 0.85446 0.68483
vt 0.85448 0.61751
vt 0.86036 0.90162
vt 0.86041 0.50682
vt 0.86064 0.33067
vt 0.86398 0.72071
vt 0.86633 0.01810
vt 0.86633 0.16092
vt 0.86635 0.09361
vt 0.86857 0.26793
vt 0.87827 0.72071
vt 0.88089 0.21923
vt 0.88208 0.90057
vt 0.88439 0.24126
vt 0.88511 0.26557
vt 0.88637 0.50783
vt 0.88661 0.33169
vt 0.88826 0.29628
vt 0.89258 0.55020
vt 0.89258 0.69303
vt 0.89260 0.61751
vt 0.89833 0.22118
vt 0.90072 0.92025
vt 0.90090 0.95463
vt 0.90347 0.90162
vt 0.90445 0.02630
vt 0.90445 0.16912
vt 0.90447 0.09361
vt 0.90661 0.28735
vt 0.90708 0.72071
vt 0.90807 0.53119
vt 0.90824 0.33147
vt 0.91185 0.51130
vt 0.91188 0.71103
vt 0.91189 0.92212
vt 0.91189 0.95304
vt 0.91422 0.00000
vt 0.91422 0.01405
vt 0.91422 0.08900
vt 0.91422 0.10305
vt 0.91585 0.11263
vt 0.91648 0.17821
vt 0.92138 0.72071
vt 0.92280 0.30784
vt 0.92518 0.90057
vt 0.92614 0.51130
vt 0.92618 0.71103
vt 0.92976 0.33042
vt 0.92979 0.53014
vt 0.93280 0.21621
vt 0.93389 0.19911
vt 0.94066 0.73842
vt 0.94066 0.84658
vt 0.94066 0.93703
vt 0.94066 0.97638
vt 0.94195 0.28587
vt 0.94542 0.50635
vt 0.94546 0.52390
vt 0.94546 0.59885
vt 0.94811 0.49587
vt 0.94829 0.32765
vt 0.94857 0.39610
vt 0.95114 0.51197
vt 0.95169 0.47670
vt 0.95204 0.41476
vt 0.95295 0.11263
vt 0.95357 0.17821
vt 0.95637 0.72160
vt 0.95637 0.82976
vt 0.95734 0.29628
vt 0.96021 0.73523
vt 0.96021 0.84339
vt 0.96049 0.23907
vt 0.96121 0.26338
vt 0.96377 0.59885
vt 0.96495 0.11263
vt 0.96495 0.15198
vt 0.96527 0.52390
vt 0.97299 0.22962
vt 0.97405 0.93703
vt 0.97405 0.97638
vt 0.97652 0.26948
vt 0.97693 0.47760
vt 0.97729 0.41566
vt 0.97827 0.73226
vt 0.97827 0.84042
vt 0.98326 0.32721
vt 0.98355 0.39565
vt 0.98358 0.52390
vt 0.98358 0.59885
vt 0.99835 0.11263
vt 0.99835 0.15198
vt 1.00000 0.00000
vt 1.00000 0.01405
vt 1.00000 0.08900
vt 1.00000 0.10305
s 1
usemtl FPS_concrete
f 11/87/69 10/71/68 12/70/70
f 13/86/71 12/70/70 14/69/72
f 15/85/73 14/69/72 16/68/74
f 17/84/75 16/68/74 18/67/76
f 19/360/77 18/340/76 20/341/78
f 21/358/79 20/341/78 22/339/80
f 23/22/81 22/5/80 24/4/82
f 30/259/1 29/254/2 28/268/3
f 32/46/4 31/62/5 29/63/2
f 34/214/6 33/204/7 31/225/5
f 36/184/8 37/190/9 35/191/10
f 5/19/62 4/2/63 6/1/64
f 7/353/65 6/333/64 8/334/66
f 9/351/67 8/334/66 10/332/68
s 0
f 4/125/83 20/127/83 12/195/83
s 1
f 1/21/84 24/4/82 2/3/85
f 26/56/86 25/51/87 27/50/88
s 0
f 1/116/89 9/140/89 17/181/89
s 1
f 28/268/3 27/281/88 30/259/1
f 30/47/1 32/46/4 29/63/2
f 32/235/4 34/214/6 31/225/5
f 35/191/10 34/185/6 36/184/8
f 37/202/9 39/226/90 38/221/91
f 40/64/92 39/49/90 41/48/93
f 42/278/94 41/247/93 43/275/95
s 0
f 30/259/96 41/247/96 36/207/96
s 1
f 44/290/97 43/275/95 25/287/87
s 0
f 42/232/99 29/218/99 37/292/99
s 1
f 11/87/69 9/88/67 10/71/68
f 13/86/71 11/87/69 12/70/70
f 15/85/73 13/86/71 14/69/72
f 17/84/75 15/85/73 16/68/74
f 19/360/77 17/359/75 18/340/76
f 21/358/79 19/360/77 20/341/78
f 23/22/81 21/23/79 22/5/80
f 3/20/115 2/3/85 4/2/63
f 5/19/62 3/20/115 4/2/63
f 7/353/65 5/352/62 6/333/64
f 9/351/67 7/353/65 8/334/66
s 0
f 12/195/83 10/180/83 8/160/83
f 12/195/83 8/160/83 4/125/83
f 16/168/83 14/186/83 12/195/83
f 20/127/83 16/168/83 12/195/83
f 20/127/83 18/139/83 16/168/83
f 24/109/83 22/117/83 20/127/83
f 4/125/83 2/115/83 24/109/83
f 4/125/83 24/109/83 20/127/83
f 8/160/83 6/142/83 4/125/83
s 1
f 1/21/84 23/22/81 24/4/82
f 26/56/86 44/57/97 25/51/87
s 0
f 1/116/89 3/110/89 5/118/89
f 1/116/89 5/118/89 9/140/89
f 13/187/89 15/196/89 17/181/89
f 17/181/89 19/161/89 21/143/89
f 17/181/89 21/143/89 1/116/89
f 21/143/89 23/126/89 1/116/89
f 5/118/89 7/128/89 9/140/89
f 9/140/89 11/169/89 13/187/89
f 9/140/89 13/187/89 17/181/89
s 1
f 28/268/3 26/286/86 27/281/88
f 35/191/10 33/192/7 34/185/6
f 37/202/9 36/207/8 39/226/90
f 40/64/92 38/65/91 39/49/90
f 42/278/94 40/255/92 41/247/93
s 0
f 25/287/162 43/275/162 41/247/162
f 30/259/161 27/281/161 25/287/161
f 30/259/83 25/287/83 41/247/83
f 34/214/160 32/235/160 30/259/160
f 36/207/164 34/214/164 30/259/164
f 41/247/163 39/226/163 36/207/163
s 1
f 44/290/97 42/278/94 43/275/95
s 0
f 26/197/167 28/205/167 29/218/167
f 29/218/168 31/241/168 33/269/168
f 29/218/172 33/269/172 37/292/172
f 33/269/169 35/289/169 37/292/169
f 37/292/170 38/285/170 42/232/170
f 38/285/165 40/258/165 42/232/165
f 42/232/166 44/213/166 26/197/166
f 42/232/171 26/197/171 29/218/171
s 1
f 3/20/115 1/21/84 2/3/85
usemtl FPS_gunmetal
f 110/243/23 111/244/24 109/239/25
f 114/234/26 107/236/27 113/233/28
f 46/7/11 48/15/14 45/11/12
f 46/79/11 45/80/12 51/74/13
f 48/15/14 47/18/15 45/11/12
f 48/83/14 50/103/16 47/89/15
f 49/33/17 52/54/98 51/55/13
f 50/103/16 49/108/17 47/89/15
s 0
f 48/138/83 52/144/83 50/135/83
f 49/152/89 45/154/89 47/149/89
s 1
f 52/66/98 46/79/11 51/74/13
s 0
f 53/330/100 58/302/100 54/304/100
f 53/35/105 59/59/105 57/36/105
f 55/133/103 54/132/103 56/131/103
f 57/60/101 60/44/101 58/43/101
f 58/222/102 56/230/102 54/223/102
f 59/416/104 56/396/104 60/397/104
s 1
f 109/209/25 108/201/135 110/210/23
f 110/243/23 112/246/136 111/244/24
f 113/219/28 112/216/136 114/220/26
f 114/234/26 108/237/135 107/236/27
s 0
f 108/284/83 112/274/83 110/280/83
f 109/288/89 113/300/89 107/291/89
f 131/104/147 136/93/147 132/92/147
f 131/393/152 137/420/152 135/394/152
f 133/367/150 132/356/150 134/355/150
f 135/193/148 138/189/148 136/188/148
f 136/373/149 134/399/149 132/374/149
f 137/106/151 134/95/151 138/94/151
s 1
f 49/33/17 50/32/16 52/54/98
s 0
f 48/138/83 46/147/83 52/144/83
f 49/152/89 51/157/89 45/154/89
f 53/330/173 57/328/173 58/302/173
f 53/35/178 55/58/178 59/59/178
f 55/133/176 53/134/176 54/132/176
f 57/60/174 59/61/174 60/44/174
f 58/222/175 60/229/175 56/230/175
f 59/416/177 55/415/177 56/396/177
s 1
f 109/209/25 107/200/27 108/201/135
f 113/219/28 111/215/24 112/216/136
s 0
f 108/284/83 114/279/83 112/274/83
f 109/288/89 111/293/89 113/300/89
f 131/104/213 135/105/213 136/93/213
f 131/393/218 133/419/218 137/420/218
f 133/367/216 131/368/216 132/356/216
f 135/193/214 137/194/214 138/189/214
f 136/373/215 138/398/215 134/399/215
f 137/106/217 133/107/217 134/95/217
usemtl FPS_hazard
f 115/170/145 123/175/145 124/171/145
f 115/170/211 119/176/211 123/175/211
f 116/307/139 117/271/139 122/270/139
f 116/307/205 115/308/205 117/271/205
f 117/385/30 118/401/30 122/404/30
f 118/401/32 121/418/32 122/404/32
f 119/176/29 115/170/29 116/174/29
f 119/176/31 116/174/31 120/182/31
f 120/427/138 121/371/138 130/370/138
f 120/427/138 130/370/138 127/426/138
f 121/422/142 129/410/142 130/421/142
f 121/422/208 118/407/208 129/410/208
f 122/372/140 120/427/140 116/428/140
f 122/372/206 121/371/206 120/427/206
f 123/175/33 128/177/33 124/171/33
f 123/175/35 127/183/35 128/177/35
f 124/309/137 117/271/137 115/308/137
f 124/309/137 125/272/137 117/271/137
f 125/390/146 118/407/146 117/391/146
f 125/390/212 129/410/212 118/407/212
f 126/273/144 124/309/144 128/310/144
f 126/273/210 125/272/210 124/309/210
f 127/183/141 119/176/141 120/182/141
f 127/183/207 123/175/207 119/176/207
f 129/400/34 125/417/34 126/403/34
f 129/400/36 126/403/36 130/384/36
f 130/370/143 128/425/143 127/426/143
f 130/370/209 126/369/209 128/425/209
f 61/257/180 62/211/180 63/203/180
f 61/299/114 78/315/114 70/316/114
f 61/299/189 69/298/189 78/315/189
f 62/211/20 64/198/20 63/203/20
f 62/336/113 70/349/113 71/348/113
f 62/336/188 61/337/188 70/349/188
f 63/203/107 66/250/107 61/257/107
f 63/203/181 65/217/181 66/250/181
f 63/311/108 72/295/108 74/294/108
f 63/311/183 64/312/183 72/295/183
f 64/312/106 71/296/106 72/295/106
f 64/312/179 62/313/179 71/296/179
f 65/303/109 74/326/109 75/331/109
f 65/303/184 63/305/184 74/326/184
f 66/250/116 68/263/116 67/264/116
f 66/250/182 67/264/182 61/257/182
f 66/301/110 75/331/110 76/329/110
f 66/301/185 65/303/185 75/331/185
f 67/264/117 68/265/117 69/266/117
f 68/306/111 76/329/111 77/327/111
f 68/306/186 66/301/186 76/329/186
f 69/267/19 61/257/19 67/264/19
f 69/298/112 77/314/112 78/315/112
f 69/298/187 68/297/187 77/314/187
f 70/119/21 78/111/21 77/114/21
f 71/155/158 70/119/158 77/114/158
f 71/155/18 77/114/18 75/148/18
f 72/166/22 71/155/22 73/159/22
f 73/159/119 74/162/119 72/165/119
f 75/148/118 74/158/118 73/159/118
f 75/148/157 73/159/157 71/155/157
f 77/114/159 76/124/159 75/148/159
usemtl FPS_gunmetal_paint
f 101/377/132 100/362/132 102/375/132
f 101/377/202 99/357/202 100/362/202
f 103/379/130 106/363/130 104/381/130
f 103/379/200 105/366/200 106/363/200
f 103/75/129 100/82/129 99/81/129
f 103/75/199 104/77/199 100/82/199
f 104/208/131 102/206/131 100/199/131
f 104/208/201 106/212/201 102/206/201
f 106/17/133 101/8/133 102/9/133
f 106/17/203 105/16/203 101/8/203
f 79/413/121 82/386/121 81/412/121
f 79/413/191 80/387/191 82/386/191
f 80/249/120 81/261/120 82/262/120
f 80/249/190 79/248/190 81/261/190
f 83/112/122 86/121/122 84/113/122
f 83/112/192 85/120/192 86/121/192
f 87/424/121 90/408/121 89/423/121
f 87/424/191 88/409/191 90/408/191
f 88/123/120 89/129/120 90/130/120
f 88/123/190 87/122/190 89/129/190
f 91/156/128 97/150/128 95/151/128
f 91/156/198 93/153/198 97/150/198
f 92/283/123 95/276/123 96/277/123
f 92/283/193 91/282/193 95/276/193
f 93/172/127 98/179/127 97/178/127
f 93/172/197 94/173/197 98/179/197
f 93/378/126 92/364/126 94/380/126
f 93/378/196 91/365/196 92/364/196
f 95/345/124 98/338/124 96/343/124
f 95/345/194 97/335/194 98/338/194
f 96/245/125 94/238/125 92/240/125
f 96/245/195 98/242/195 94/238/195
f 99/228/134 105/227/134 103/224/134
f 99/228/204 101/231/204 105/227/204
s 1
usemtl FPS_signal
f 139/27/38 140/38/58 158/28/55
f 139/27/38 143/37/41 140/38/58
f 140/344/58 141/354/39 161/346/57
f 141/354/39 143/383/41 144/382/43
f 142/40/40 143/29/41 139/39/38
f 142/40/40 146/41/45 147/30/153
f 142/40/40 147/30/153 143/29/41
f 143/383/41 147/411/153 144/382/43
f 144/31/43 145/42/37 141/34/39
f 145/73/37 139/78/38 141/72/39
f 145/73/37 142/76/40 139/78/38
f 145/73/37 148/52/42 142/76/40
f 147/411/153 148/405/42 144/382/43
f 148/405/42 146/414/45 149/406/47
f 148/52/42 146/26/45 142/76/40
f 148/99/42 145/102/37 144/97/43
f 149/406/47 151/402/48 153/388/46
f 149/96/47 150/101/44 148/99/42
f 150/24/44 146/26/45 148/52/42
f 150/24/44 151/10/48 146/26/45
f 152/376/50 153/388/46 151/402/48
f 152/376/50 156/361/52 153/388/46
f 153/323/46 150/317/44 149/322/47
f 153/323/46 154/318/49 150/317/44
f 154/12/49 151/10/48 150/24/44
f 154/12/49 152/6/50 151/10/48
f 154/12/49 157/14/54 152/6/50
f 154/318/49 156/324/52 157/319/54
f 155/350/51 156/361/52 152/376/50
f 155/350/51 160/347/53 156/361/52
f 157/14/54 155/13/51 152/6/50
f 157/14/54 160/25/53 155/13/51
f 158/100/55 140/91/58 159/90/56
f 158/100/55 159/90/56 155/98/51
f 158/45/55 141/72/39 139/78/38
f 160/25/53 158/45/55 155/13/51
f 160/321/53 157/325/54 156/320/52
f 161/346/57 159/342/56 140/344/58
f 161/53/57 158/45/55 160/25/53
f 165/164/154 167/163/59 166/167/61
f 167/389/59 162/392/60 166/395/61
s 0
f 163/253/155 167/252/155 165/256/155
f 164/146/156 166/136/156 162/137/156
s 1
f 141/354/39 140/344/58 143/383/41
f 148/405/42 147/411/153 146/414/45
f 149/406/47 146/414/45 151/402/48
f 154/318/49 153/323/46 156/324/52
f 155/350/51 159/342/56 160/347/53
f 158/45/55 161/53/57 141/72/39
f 161/346/57 160/347/53 159/342/56
s 0
f 162/137/221 163/145/221 164/146/221
f 163/253/220 162/251/220 167/252/220
f 164/146/222 165/141/222 166/136/222
f 165/256/219 164/260/219 163/253/219
