# Blender 4.0.2
# www.blender.org
mtllib target_dummy_collision.mtl
o target_dummy_collision
v 0.000000 0.000000 0.340000
v -0.105066 0.000000 0.323359
v -0.199847 0.000000 0.275066
v -0.199847 0.080000 0.275066
v -0.275066 0.000000 0.199847
v -0.323359 0.000000 0.105066
v -0.340000 0.000000 0.000000
v -0.323359 0.000000 -0.105066
v -0.323359 0.080000 -0.105066
v -0.275066 0.000000 -0.199847
v -0.199847 0.000000 -0.275066
v -0.199847 0.080000 -0.275066
v -0.105066 0.000000 -0.323359
v -0.105066 0.080000 -0.323359
v 0.000000 0.000000 -0.340000
v 0.105066 0.000000 -0.323359
v 0.199847 0.000000 -0.275066
v 0.275066 0.000000 -0.199847
v 0.323359 0.000000 -0.105066
v 0.340000 0.000000 0.000000
v 0.323359 0.000000 0.105066
v 0.275066 0.000000 0.199847
v 0.275066 0.080000 0.199847
v 0.199847 0.000000 0.275066
v 0.199847 0.080000 0.275066
v 0.105066 0.000000 0.323359
v 0.000000 0.080000 0.340000
v -0.105066 0.080000 0.323359
v -0.275066 0.080000 0.199847
v -0.323359 0.080000 0.105066
v -0.275066 0.080000 -0.199847
v 0.000000 0.080000 -0.340000
v 0.105066 0.080000 -0.323359
v 0.199847 0.080000 -0.275066
v 0.275066 0.080000 -0.199847
v 0.323359 0.080000 -0.105066
v 0.323359 0.080000 0.105066
v 0.105066 0.080000 0.323359
v 0.342602 1.356239 -0.035000
v 0.362458 1.353845 -0.015000
v 0.342602 1.356239 0.035000
v 0.362458 1.353845 0.015000
v -0.342602 1.356239 -0.035000
v -0.362458 1.353845 -0.015000
v -0.362458 1.353845 0.015000
v -0.342602 1.356239 0.035000
v 0.080000 1.770000 -0.040000
v 0.080000 1.800000 -0.010000
v 0.110000 1.770000 -0.010000
v 0.080000 1.800000 0.010000
v 0.080000 1.770000 0.040000
v 0.110000 1.770000 0.010000
v -0.080000 1.800000 -0.010000
v -0.080000 1.770000 -0.040000
v -0.110000 1.770000 -0.010000
v -0.080000 1.800000 0.010000
v -0.110000 1.770000 0.010000
v -0.080000 1.770000 0.040000
vn -0.6703 0.4140 0.6159
vn -0.8550 0.5187 -0.0000
vn -0.9999 -0.0166 -0.0000
vn -0.9875 -0.0181 0.1564
vn -0.9173 -0.0000 0.3982
vn -0.8910 0.0048 0.4540
vn -0.7118 0.0528 0.7004
vn -0.6472 0.4029 0.6472
vn -0.7061 0.0538 0.7061
vn -0.4509 0.1160 0.8850
vn -0.2748 0.1630 0.9476
vn -0.5774 0.5774 0.5773
vn -0.7071 0.7071 -0.0000
vn -0.6703 0.4140 -0.6159
vn -0.7118 0.0528 -0.7004
vn -0.8910 0.0048 -0.4540
vn -0.9173 -0.0000 -0.3982
vn -0.9875 -0.0181 -0.1564
vn -0.0000 -1.0000 -0.0000
vn -0.8910 -0.0000 0.4540
vn -0.7071 -0.0000 0.7071
vn -0.0000 0.7071 0.7071
vn -0.1543 0.1656 0.9741
vn -0.0000 0.1748 0.9846
vn -0.4540 -0.0000 0.8910
vn -0.1564 -0.0000 0.9877
vn -0.0000 1.0000 -0.0000
vn -0.5774 0.5774 -0.5773
vn -0.6472 0.4029 -0.6472
vn -0.2748 0.1630 -0.9476
vn -0.4509 0.1160 -0.8850
vn -0.7061 0.0538 -0.7061
vn -0.7071 -0.0000 -0.7071
vn -0.8910 -0.0000 -0.4540
vn 0.6472 0.4029 0.6472
vn 0.5774 0.5774 0.5773
vn 0.1543 0.1656 0.9741
vn 0.2748 0.1630 0.9476
vn 0.1564 -0.0000 0.9877
vn -0.0000 0.7071 -0.7071
vn 0.7071 0.7071 -0.0000
vn -0.0000 0.1748 -0.9846
vn -0.1543 0.1656 -0.9741
vn -0.1564 -0.0000 -0.9877
vn -0.4540 -0.0000 -0.8910
vn 0.6703 0.4140 0.6159
vn 0.4509 0.1160 0.8850
vn 0.7061 0.0538 0.7061
vn 0.7118 0.0528 0.7004
vn 0.8550 0.5187 -0.0000
vn 0.4540 -0.0000 0.8910
vn 0.5774 0.5774 -0.5773
vn 0.6472 0.4029 -0.6472
vn 0.2748 0.1630 -0.9476
vn 0.1543 0.1656 -0.9741
vn 0.1564 -0.0000 -0.9877
vn 0.8910 0.0048 0.4540
vn 0.9173 -0.0000 0.3982
vn 0.9875 -0.0181 0.1564
vn 0.9999 -0.0166 -0.0000
vn 0.7071 -0.0000 0.7071
vn 0.8910 -0.0000 0.4540
vn 0.6703 0.4140 -0.6159
vn 0.7118 0.0528 -0.7004
vn 0.7061 0.0538 -0.7061
vn 0.4509 0.1160 -0.8850
vn 0.4540 -0.0000 -0.8910
vn 0.9875 -0.0181 -0.1564
vn 0.9173 -0.0000 -0.3982
vn 0.8910 0.0048 -0.4540
vn 0.8910 -0.0000 -0.4540
vn 0.7071 -0.0000 -0.7071
vt 0.00000 0.17765
vt 0.03411 0.70014
vt 0.03460 0.73228
vt 0.06598 0.70251
vt 0.06647 0.73464
vt 0.10249 0.01317
vt 0.10610 0.70375
vt 0.10620 0.00000
vt 0.10659 0.73589
vt 0.15055 0.70375
vt 0.15104 0.73589
vt 0.16688 0.01412
vt 0.17060 0.00095
vt 0.18286 0.01317
vt 0.19497 0.70251
vt 0.19546 0.73464
vt 0.23502 0.70014
vt 0.23551 0.73228
vt 0.27577 0.18170
vt 0.28637 0.18203
vt 0.28965 0.17928
vt 0.28965 0.73792
vt 0.28965 0.75003
vt 0.28965 0.81459
vt 0.28965 0.82669
vt 0.29811 0.73792
vt 0.29811 0.75003
vt 0.29811 0.81459
vt 0.29811 0.82669
vt 0.34296 0.70047
vt 0.34328 0.73264
vt 0.38038 0.70208
vt 0.38070 0.73424
vt 0.39801 0.01306
vt 0.39937 0.00000
vt 0.42368 0.70263
vt 0.42401 0.73480
vt 0.46521 0.01306
vt 0.46658 0.00000
vt 0.46864 0.70208
vt 0.46897 0.73424
vt 0.47930 0.01206
vt 0.51084 0.70047
vt 0.51117 0.73264
vt 0.54616 0.69796
vt 0.54649 0.73013
vt 0.57746 0.17928
vt 0.58680 0.17957
vt 0.59008 0.69360
vt 0.59008 0.72588
vt 0.59008 0.84304
vt 0.59008 0.88596
vt 0.60398 0.80222
vt 0.60398 0.92678
vt 0.62586 0.69344
vt 0.62586 0.72571
vt 0.63043 0.76750
vt 0.63043 0.96151
vt 0.66038 0.17932
vt 0.66683 0.74227
vt 0.66683 0.98674
vt 0.66832 0.72562
vt 0.67286 0.17931
vt 0.68158 0.01204
vt 0.68269 0.17838
vt 0.68990 0.01203
vt 0.69218 0.00000
vt 0.70466 0.01209
vt 0.70962 0.72900
vt 0.70962 1.00000
vt 0.71330 0.69334
vt 0.71330 0.72562
vt 0.75461 0.72900
vt 0.75461 1.00000
vt 0.75640 0.69342
vt 0.75640 0.72570
vt 0.79340 0.69357
vt 0.79340 0.72585
vt 0.79668 0.69360
vt 0.79668 0.72588
vt 0.79740 0.74227
vt 0.79740 0.98674
vt 0.83246 0.69344
vt 0.83246 0.72571
vt 0.83380 0.76750
vt 0.83381 0.96151
vt 0.86025 0.80222
vt 0.86025 0.92678
vt 0.86698 0.17932
vt 0.87416 0.84304
vt 0.87416 0.88596
vt 0.87492 0.72562
vt 0.87946 0.17931
vt 0.88818 0.01204
vt 0.88929 0.17838
vt 0.89650 0.01203
vt 0.89877 0.00000
vt 0.91126 0.01209
vt 0.91990 0.69334
vt 0.91990 0.72562
vt 0.96300 0.69342
vt 0.96300 0.72570
vt 1.00000 0.69357
vt 1.00000 0.72585
s 0
usemtl FPS_collision
f 1/9/39 26/5/39 38/4/39
f 1/9/39 38/4/39 27/7/39
f 10/76/34 8/72/34 9/71/34
f 10/76/34 9/71/34 31/75/34
f 12/77/32 31/75/32 43/65/32
f 12/77/33 10/76/33 31/75/33
f 12/77/33 11/78/33 10/76/33
f 13/33/45 11/31/45 12/30/45
f 13/33/45 12/30/45 14/32/45
f 14/32/31 12/30/31 43/21/31
f 18/46/72 17/44/72 34/43/72
f 18/46/72 34/43/72 35/45/72
f 19/84/69 36/83/69 40/89/69
f 2/11/26 1/9/26 27/7/26
f 2/11/26 27/7/26 28/10/26
f 20/92/60 40/89/60 42/93/60
f 20/92/68 19/84/68 40/89/68
f 21/100/59 20/92/59 42/93/59
f 22/102/62 21/100/62 37/99/62
f 22/102/62 37/99/62 23/101/62
f 23/101/49 42/93/49 41/95/49
f 23/101/57 37/99/57 42/93/57
f 24/104/61 22/102/61 23/101/61
f 24/104/61 23/101/61 25/103/61
f 25/103/48 23/101/48 41/95/48
f 26/5/51 24/3/51 25/2/51
f 26/5/51 25/2/51 38/4/51
f 27/7/24 51/6/24 58/12/24
f 27/7/37 38/4/37 51/6/37
f 28/10/11 58/12/11 46/19/11
f 28/10/23 27/7/23 58/12/23
f 29/17/7 46/19/7 45/20/7
f 29/17/9 4/15/9 46/19/9
f 3/16/25 2/11/25 28/10/25
f 3/16/25 28/10/25 4/15/25
f 30/55/6 29/49/6 45/59/6
f 31/75/16 9/71/16 44/63/16
f 32/36/43 14/32/43 54/34/43
f 32/36/44 13/33/44 14/32/44
f 32/36/44 15/37/44 13/33/44
f 33/40/55 32/36/55 47/38/55
f 33/40/56 15/37/56 32/36/56
f 33/40/56 16/41/56 15/37/56
f 34/43/66 33/40/66 39/47/66
f 34/43/67 16/41/67 33/40/67
f 34/43/67 17/44/67 16/41/67
f 35/45/65 34/43/65 39/47/65
f 36/83/70 35/79/70 40/89/70
f 36/83/71 18/80/71 35/79/71
f 36/83/71 19/84/71 18/80/71
f 37/99/58 21/100/58 42/93/58
f 38/4/38 41/1/38 51/6/38
f 38/4/47 25/2/47 41/1/47
f 39/47/54 33/40/54 47/38/54
f 4/15/10 28/10/10 46/19/10
f 40/48/63 39/47/63 49/42/63
f 40/48/64 35/45/64 39/47/64
f 41/95/35 52/96/35 51/98/35
f 42/93/46 52/96/46 41/95/46
f 42/93/50 40/89/50 49/94/50
f 42/93/50 49/94/50 52/96/50
f 43/65/15 31/75/15 44/63/15
f 44/63/3 7/62/3 45/59/3
f 46/19/1 57/14/1 45/20/1
f 47/38/42 32/36/42 54/34/42
f 48/39/40 47/38/40 54/34/40
f 48/39/40 54/34/40 53/35/40
f 49/42/52 47/38/52 48/39/52
f 49/42/53 39/47/53 47/38/53
f 5/18/21 3/16/21 4/15/21
f 5/18/21 4/15/21 29/17/21
f 5/50/20 29/49/20 30/55/20
f 5/50/20 30/55/20 6/56/20
f 50/28/27 48/24/27 53/23/27
f 50/28/27 53/23/27 56/27/27
f 51/6/22 50/8/22 56/13/22
f 51/6/22 56/13/22 58/12/22
f 52/29/41 48/24/41 50/28/41
f 52/29/41 49/25/41 48/24/41
f 52/96/36 50/97/36 51/98/36
f 53/67/28 54/68/28 55/66/28
f 54/34/30 14/32/30 43/21/30
f 54/68/29 43/65/29 55/66/29
f 55/66/14 43/65/14 44/63/14
f 56/27/13 53/23/13 55/22/13
f 56/27/13 55/22/13 57/26/13
f 57/64/2 44/63/2 45/59/2
f 57/64/2 55/66/2 44/63/2
f 58/12/12 56/13/12 57/14/12
f 58/12/8 57/14/8 46/19/8
f 6/56/5 30/55/5 45/59/5
f 7/62/4 6/56/4 45/59/4
f 8/69/19 1/54/19 2/52/19
f 8/69/19 10/73/19 11/81/19
f 8/69/19 11/81/19 13/85/19
f 8/69/19 13/85/19 15/87/19
f 8/69/19 15/87/19 16/90/19
f 8/69/19 16/90/19 17/91/19
f 8/69/19 17/91/19 18/88/19
f 8/69/19 18/88/19 19/86/19
f 8/69/19 19/86/19 20/82/19
f 8/69/19 2/52/19 3/51/19
f 8/69/19 20/82/19 21/74/19
f 8/69/19 21/74/19 22/70/19
f 8/69/19 22/70/19 24/61/19
f 8/69/19 24/61/19 26/58/19
f 8/69/19 26/58/19 1/54/19
f 8/69/19 3/51/19 5/53/19
f 8/69/19 5/53/19 6/57/19
f 8/69/19 6/57/19 7/60/19
f 8/72/18 7/62/18 44/63/18
f 9/71/17 8/72/17 44/63/17
