# Blender 4.0.2
# www.blender.org
mtllib weapon_rack.mtl
o weapon_rack
v 0.770000 0.000000 -0.210000
v 0.770000 0.030000 -0.240000
v 0.800000 0.030000 -0.210000
v 0.770000 0.110000 -0.240000
v 0.770000 0.140000 -0.210000
v 0.800000 0.110000 -0.210000
v 0.770000 0.000000 0.210000
v 0.800000 0.030000 0.210000
v 0.770000 0.030000 0.240000
v 0.770000 0.140000 0.210000
v 0.770000 0.110000 0.240000
v 0.800000 0.110000 0.210000
v -0.770000 0.000000 -0.210000
v -0.800000 0.030000 -0.210000
v -0.770000 0.030000 -0.240000
v -0.770000 0.140000 -0.210000
v -0.770000 0.110000 -0.240000
v -0.800000 0.110000 -0.210000
v -0.770000 0.000000 0.210000
v -0.770000 0.030000 0.240000
v -0.800000 0.030000 0.210000
v -0.770000 0.140000 0.210000
v -0.800000 0.110000 0.210000
v -0.770000 0.110000 0.240000
v 0.760000 0.030000 -0.245000
v 0.700000 0.030000 -0.245000
v 0.620000 0.110000 -0.245000
v 0.680000 0.110000 -0.245000
v 0.760000 0.030000 0.245000
v 0.700000 0.030000 0.245000
v 0.620000 0.110000 0.245000
v 0.680000 0.110000 0.245000
v 0.580000 0.030000 -0.245000
v 0.520000 0.030000 -0.245000
v 0.440000 0.110000 -0.245000
v 0.500000 0.110000 -0.245000
v 0.580000 0.030000 0.245000
v 0.520000 0.030000 0.245000
v 0.440000 0.110000 0.245000
v 0.500000 0.110000 0.245000
v 0.400000 0.030000 -0.245000
v 0.340000 0.030000 -0.245000
v 0.260000 0.110000 -0.245000
v 0.320000 0.110000 -0.245000
v 0.400000 0.030000 0.245000
v 0.340000 0.030000 0.245000
v 0.260000 0.110000 0.245000
v 0.320000 0.110000 0.245000
v 0.220000 0.030000 -0.245000
v 0.160000 0.030000 -0.245000
v 0.080000 0.110000 -0.245000
v 0.140000 0.110000 -0.245000
v 0.220000 0.030000 0.245000
v 0.160000 0.030000 0.245000
v 0.080000 0.110000 0.245000
v 0.140000 0.110000 0.245000
v 0.040000 0.030000 -0.245000
v -0.020000 0.030000 -0.245000
v -0.100000 0.110000 -0.245000
v -0.040000 0.110000 -0.245000
v 0.040000 0.030000 0.245000
v -0.020000 0.030000 0.245000
v -0.100000 0.110000 0.245000
v -0.040000 0.110000 0.245000
v -0.140000 0.030000 -0.245000
v -0.200000 0.030000 -0.245000
v -0.280000 0.110000 -0.245000
v -0.220000 0.110000 -0.245000
v -0.140000 0.030000 0.245000
v -0.200000 0.030000 0.245000
v -0.280000 0.110000 0.245000
v -0.220000 0.110000 0.245000
v -0.320000 0.030000 -0.245000
v -0.380000 0.030000 -0.245000
v -0.460000 0.110000 -0.245000
v -0.400000 0.110000 -0.245000
v -0.320000 0.030000 0.245000
v -0.380000 0.030000 0.245000
v -0.460000 0.110000 0.245000
v -0.400000 0.110000 0.245000
v -0.500000 0.030000 -0.245000
v -0.560000 0.030000 -0.245000
v -0.640000 0.110000 -0.245000
v -0.580000 0.110000 -0.245000
v -0.500000 0.030000 0.245000
v -0.560000 0.030000 0.245000
v -0.640000 0.110000 0.245000
v -0.580000 0.110000 0.245000
v 0.780000 0.140000 -0.030000
v 0.780000 0.160000 -0.050000
v 0.800000 0.160000 -0.030000
v 0.780000 1.140000 -0.050000
v 0.780000 1.160000 -0.030000
v 0.800000 1.140000 -0.030000
v 0.780000 0.140000 0.030000
v 0.800000 0.160000 0.030000
v 0.780000 0.160000 0.050000
v 0.780000 1.160000 0.030000
v 0.780000 1.140000 0.050000
v 0.800000 1.140000 0.030000
v 0.740000 0.140000 -0.030000
v 0.720000 0.160000 -0.030000
v 0.740000 0.160000 -0.050000
v 0.740000 1.160000 -0.030000
v 0.740000 1.140000 -0.050000
v 0.720000 1.140000 -0.030000
v 0.740000 0.140000 0.030000
v 0.740000 0.160000 0.050000
v 0.720000 0.160000 0.030000
v 0.740000 1.160000 0.030000
v 0.720000 1.140000 0.030000
v 0.740000 1.140000 0.050000
v 0.779000 1.025000 0.056000
v 0.779000 1.031000 0.050000
v 0.785000 1.031000 0.056000
v 0.779000 1.069000 0.050000
v 0.779000 1.075000 0.056000
v 0.785000 1.069000 0.056000
v 0.779000 1.025000 0.064000
v 0.785000 1.031000 0.064000
v 0.779000 1.031000 0.070000
v 0.779000 1.075000 0.064000
v 0.779000 1.069000 0.070000
v 0.785000 1.069000 0.064000
v 0.741000 1.025000 0.056000
v 0.735000 1.031000 0.056000
v 0.741000 1.031000 0.050000
v 0.741000 1.075000 0.056000
v 0.741000 1.069000 0.050000
v 0.735000 1.069000 0.056000
v 0.741000 1.025000 0.064000
v 0.741000 1.031000 0.070000
v 0.735000 1.031000 0.064000
v 0.741000 1.075000 0.064000
v 0.735000 1.069000 0.064000
v 0.741000 1.069000 0.070000
v -0.740000 0.140000 -0.030000
v -0.740000 0.160000 -0.050000
v -0.720000 0.160000 -0.030000
v -0.740000 1.140000 -0.050000
v -0.740000 1.160000 -0.030000
v -0.720000 1.140000 -0.030000
v -0.740000 0.140000 0.030000
v -0.720000 0.160000 0.030000
v -0.740000 0.160000 0.050000
v -0.740000 1.160000 0.030000
v -0.740000 1.140000 0.050000
v -0.720000 1.140000 0.030000
v -0.780000 0.140000 -0.030000
v -0.800000 0.160000 -0.030000
v -0.780000 0.160000 -0.050000
v -0.780000 1.160000 -0.030000
v -0.780000 1.140000 -0.050000
v -0.800000 1.140000 -0.030000
v -0.780000 0.140000 0.030000
v -0.780000 0.160000 0.050000
v -0.800000 0.160000 0.030000
v -0.780000 1.160000 0.030000
v -0.800000 1.140000 0.030000
v -0.780000 1.140000 0.050000
v -0.741000 1.025000 0.056000
v -0.741000 1.031000 0.050000
v -0.735000 1.031000 0.056000
v -0.741000 1.069000 0.050000
v -0.741000 1.075000 0.056000
v -0.735000 1.069000 0.056000
v -0.741000 1.025000 0.064000
v -0.735000 1.031000 0.064000
v -0.741000 1.031000 0.070000
v -0.741000 1.075000 0.064000
v -0.741000 1.069000 0.070000
v -0.735000 1.069000 0.064000
v -0.779000 1.025000 0.056000
v -0.785000 1.031000 0.056000
v -0.779000 1.031000 0.050000
v -0.779000 1.075000 0.056000
v -0.779000 1.069000 0.050000
v -0.785000 1.069000 0.056000
v -0.779000 1.025000 0.064000
v -0.779000 1.031000 0.070000
v -0.785000 1.031000 0.064000
v -0.779000 1.075000 0.064000
v -0.785000 1.069000 0.064000
v -0.779000 1.069000 0.070000
v 0.780000 1.140000 -0.040000
v 0.780000 1.160000 -0.060000
v 0.800000 1.160000 -0.040000
v 0.780000 1.180000 -0.060000
v 0.780000 1.200000 -0.040000
v 0.800000 1.180000 -0.040000
v 0.780000 1.140000 0.040000
v 0.800000 1.160000 0.040000
v 0.780000 1.160000 0.060000
v 0.780000 1.200000 0.040000
v 0.780000 1.180000 0.060000
v 0.800000 1.180000 0.040000
v -0.780000 1.140000 -0.040000
v -0.800000 1.160000 -0.040000
v -0.780000 1.160000 -0.060000
v -0.780000 1.200000 -0.040000
v -0.780000 1.180000 -0.060000
v -0.800000 1.180000 -0.040000
v -0.780000 1.140000 0.040000
v -0.780000 1.160000 0.060000
v -0.800000 1.160000 0.040000
v -0.780000 1.200000 0.040000
v -0.800000 1.180000 0.040000
v -0.780000 1.180000 0.060000
v 0.710000 0.200000 -0.085000
v 0.710000 0.210000 -0.095000
v 0.720000 0.210000 -0.085000
v 0.710000 1.050000 -0.095000
v 0.710000 1.060000 -0.085000
v 0.720000 1.050000 -0.085000
v 0.710000 0.200000 -0.075000
v 0.720000 0.210000 -0.075000
v 0.710000 0.210000 -0.065000
v 0.710000 1.060000 -0.075000
v 0.710000 1.050000 -0.065000
v 0.720000 1.050000 -0.075000
v -0.710000 0.200000 -0.085000
v -0.720000 0.210000 -0.085000
v -0.710000 0.210000 -0.095000
v -0.710000 1.060000 -0.085000
v -0.710000 1.050000 -0.095000
v -0.720000 1.050000 -0.085000
v -0.710000 0.200000 -0.075000
v -0.710000 0.210000 -0.065000
v -0.720000 0.210000 -0.075000
v -0.710000 1.060000 -0.075000
v -0.720000 1.050000 -0.075000
v -0.710000 1.050000 -0.065000
v 0.700000 0.140000 -0.090000
v 0.700000 0.160000 -0.110000
v 0.720000 0.160000 -0.090000
v 0.700000 0.170000 -0.110000
v 0.700000 0.190000 -0.090000
v 0.720000 0.170000 -0.090000
v 0.700000 0.140000 0.130000
v 0.720000 0.160000 0.130000
v 0.700000 0.160000 0.150000
v 0.700000 0.190000 0.130000
v 0.700000 0.170000 0.150000
v 0.720000 0.170000 0.130000
v -0.700000 0.140000 -0.090000
v -0.720000 0.160000 -0.090000
v -0.700000 0.160000 -0.110000
v -0.700000 0.190000 -0.090000
v -0.700000 0.170000 -0.110000
v -0.720000 0.170000 -0.090000
v -0.700000 0.140000 0.130000
v -0.700000 0.160000 0.150000
v -0.720000 0.160000 0.130000
v -0.700000 0.190000 0.130000
v -0.720000 0.170000 0.130000
v -0.700000 0.170000 0.150000
v 0.700000 0.855000 0.000000
v 0.700000 0.875000 -0.020000
v 0.720000 0.875000 0.000000
v 0.700000 0.885000 -0.020000
v 0.700000 0.905000 0.000000
v 0.720000 0.885000 0.000000
v 0.700000 0.855000 0.040000
v 0.720000 0.875000 0.040000
v 0.700000 0.875000 0.060000
v 0.700000 0.905000 0.040000
v 0.700000 0.885000 0.060000
v 0.720000 0.885000 0.040000
v -0.700000 0.855000 0.000000
v -0.720000 0.875000 0.000000
v -0.700000 0.875000 -0.020000
v -0.700000 0.905000 0.000000
v -0.700000 0.885000 -0.020000
v -0.720000 0.885000 0.000000
v -0.700000 0.855000 0.040000
v -0.700000 0.875000 0.060000
v -0.720000 0.875000 0.040000
v -0.700000 0.905000 0.040000
v -0.720000 0.885000 0.040000
v -0.700000 0.885000 0.060000
v 0.647000 0.890000 -0.012000
v 0.647000 0.898000 -0.020000
v 0.655000 0.898000 -0.012000
v 0.647000 0.962000 -0.020000
v 0.647000 0.970000 -0.012000
v 0.655000 0.962000 -0.012000
v 0.647000 0.890000 0.072000
v 0.655000 0.898000 0.072000
v 0.647000 0.898000 0.080000
v 0.647000 0.970000 0.072000
v 0.647000 0.962000 0.080000
v 0.655000 0.962000 0.072000
v 0.633000 0.890000 -0.012000
v 0.625000 0.898000 -0.012000
v 0.633000 0.898000 -0.020000
v 0.633000 0.970000 -0.012000
v 0.633000 0.962000 -0.020000
v 0.625000 0.962000 -0.012000
v 0.633000 0.890000 0.072000
v 0.633000 0.898000 0.080000
v 0.625000 0.898000 0.072000
v 0.633000 0.970000 0.072000
v 0.625000 0.962000 0.072000
v 0.633000 0.962000 0.080000
v 0.487000 0.890000 -0.012000
v 0.487000 0.898000 -0.020000
v 0.495000 0.898000 -0.012000
v 0.487000 0.962000 -0.020000
v 0.487000 0.970000 -0.012000
v 0.495000 0.962000 -0.012000
v 0.487000 0.890000 0.072000
v 0.495000 0.898000 0.072000
v 0.487000 0.898000 0.080000
v 0.487000 0.970000 0.072000
v 0.487000 0.962000 0.080000
v 0.495000 0.962000 0.072000
v 0.473000 0.890000 -0.012000
v 0.465000 0.898000 -0.012000
v 0.473000 0.898000 -0.020000
v 0.473000 0.970000 -0.012000
v 0.473000 0.962000 -0.020000
v 0.465000 0.962000 -0.012000
v 0.473000 0.890000 0.072000
v 0.473000 0.898000 0.080000
v 0.465000 0.898000 0.072000
v 0.473000 0.970000 0.072000
v 0.465000 0.962000 0.072000
v 0.473000 0.962000 0.080000
v 0.327000 0.890000 -0.012000
v 0.327000 0.898000 -0.020000
v 0.335000 0.898000 -0.012000
v 0.327000 0.962000 -0.020000
v 0.327000 0.970000 -0.012000
v 0.335000 0.962000 -0.012000
v 0.327000 0.890000 0.072000
v 0.335000 0.898000 0.072000
v 0.327000 0.898000 0.080000
v 0.327000 0.970000 0.072000
v 0.327000 0.962000 0.080000
v 0.335000 0.962000 0.072000
v 0.313000 0.890000 -0.012000
v 0.305000 0.898000 -0.012000
v 0.313000 0.898000 -0.020000
v 0.313000 0.970000 -0.012000
v 0.313000 0.962000 -0.020000
v 0.305000 0.962000 -0.012000
v 0.313000 0.890000 0.072000
v 0.313000 0.898000 0.080000
v 0.305000 0.898000 0.072000
v 0.313000 0.970000 0.072000
v 0.305000 0.962000 0.072000
v 0.313000 0.962000 0.080000
v 0.167000 0.890000 -0.012000
v 0.167000 0.898000 -0.020000
v 0.175000 0.898000 -0.012000
v 0.167000 0.962000 -0.020000
v 0.167000 0.970000 -0.012000
v 0.175000 0.962000 -0.012000
v 0.167000 0.890000 0.072000
v 0.175000 0.898000 0.072000
v 0.167000 0.898000 0.080000
v 0.167000 0.970000 0.072000
v 0.167000 0.962000 0.080000
v 0.175000 0.962000 0.072000
v 0.153000 0.890000 -0.012000
v 0.145000 0.898000 -0.012000
v 0.153000 0.898000 -0.020000
v 0.153000 0.970000 -0.012000
v 0.153000 0.962000 -0.020000
v 0.145000 0.962000 -0.012000
v 0.153000 0.890000 0.072000
v 0.153000 0.898000 0.080000
v 0.145000 0.898000 0.072000
v 0.153000 0.970000 0.072000
v 0.145000 0.962000 0.072000
v 0.153000 0.962000 0.080000
v 0.007000 0.890000 -0.012000
v 0.007000 0.898000 -0.020000
v 0.015000 0.898000 -0.012000
v 0.007000 0.962000 -0.020000
v 0.007000 0.970000 -0.012000
v 0.015000 0.962000 -0.012000
v 0.007000 0.890000 0.072000
v 0.015000 0.898000 0.072000
v 0.007000 0.898000 0.080000
v 0.007000 0.970000 0.072000
v 0.007000 0.962000 0.080000
v 0.015000 0.962000 0.072000
v -0.007000 0.890000 -0.012000
v -0.015000 0.898000 -0.012000
v -0.007000 0.898000 -0.020000
v -0.007000 0.970000 -0.012000
v -0.007000 0.962000 -0.020000
v -0.015000 0.962000 -0.012000
v -0.007000 0.890000 0.072000
v -0.007000 0.898000 0.080000
v -0.015000 0.898000 0.072000
v -0.007000 0.970000 0.072000
v -0.015000 0.962000 0.072000
v -0.007000 0.962000 0.080000
v -0.153000 0.890000 -0.012000
v -0.153000 0.898000 -0.020000
v -0.145000 0.898000 -0.012000
v -0.153000 0.962000 -0.020000
v -0.153000 0.970000 -0.012000
v -0.145000 0.962000 -0.012000
v -0.153000 0.890000 0.072000
v -0.145000 0.898000 0.072000
v -0.153000 0.898000 0.080000
v -0.153000 0.970000 0.072000
v -0.153000 0.962000 0.080000
v -0.145000 0.962000 0.072000
v -0.167000 0.890000 -0.012000
v -0.175000 0.898000 -0.012000
v -0.167000 0.898000 -0.020000
v -0.167000 0.970000 -0.012000
v -0.167000 0.962000 -0.020000
v -0.175000 0.962000 -0.012000
v -0.167000 0.890000 0.072000
v -0.167000 0.898000 0.080000
v -0.175000 0.898000 0.072000
v -0.167000 0.970000 0.072000
v -0.175000 0.962000 0.072000
v -0.167000 0.962000 0.080000
v -0.313000 0.890000 -0.012000
v -0.313000 0.898000 -0.020000
v -0.305000 0.898000 -0.012000
v -0.313000 0.962000 -0.020000
v -0.313000 0.970000 -0.012000
v -0.305000 0.962000 -0.012000
v -0.313000 0.890000 0.072000
v -0.305000 0.898000 0.072000
v -0.313000 0.898000 0.080000
v -0.313000 0.970000 0.072000
v -0.313000 0.962000 0.080000
v -0.305000 0.962000 0.072000
v -0.327000 0.890000 -0.012000
v -0.335000 0.898000 -0.012000
v -0.327000 0.898000 -0.020000
v -0.327000 0.970000 -0.012000
v -0.327000 0.962000 -0.020000
v -0.335000 0.962000 -0.012000
v -0.327000 0.890000 0.072000
v -0.327000 0.898000 0.080000
v -0.335000 0.898000 0.072000
v -0.327000 0.970000 0.072000
v -0.335000 0.962000 0.072000
v -0.327000 0.962000 0.080000
v -0.473000 0.890000 -0.012000
v -0.473000 0.898000 -0.020000
v -0.465000 0.898000 -0.012000
v -0.473000 0.962000 -0.020000
v -0.473000 0.970000 -0.012000
v -0.465000 0.962000 -0.012000
v -0.473000 0.890000 0.072000
v -0.465000 0.898000 0.072000
v -0.473000 0.898000 0.080000
v -0.473000 0.970000 0.072000
v -0.473000 0.962000 0.080000
v -0.465000 0.962000 0.072000
v -0.487000 0.890000 -0.012000
v -0.495000 0.898000 -0.012000
v -0.487000 0.898000 -0.020000
v -0.487000 0.970000 -0.012000
v -0.487000 0.962000 -0.020000
v -0.495000 0.962000 -0.012000
v -0.487000 0.890000 0.072000
v -0.487000 0.898000 0.080000
v -0.495000 0.898000 0.072000
v -0.487000 0.970000 0.072000
v -0.495000 0.962000 0.072000
v -0.487000 0.962000 0.080000
v -0.633000 0.890000 -0.012000
v -0.633000 0.898000 -0.020000
v -0.625000 0.898000 -0.012000
v -0.633000 0.962000 -0.020000
v -0.633000 0.970000 -0.012000
v -0.625000 0.962000 -0.012000
v -0.633000 0.890000 0.072000
v -0.625000 0.898000 0.072000
v -0.633000 0.898000 0.080000
v -0.633000 0.970000 0.072000
v -0.633000 0.962000 0.080000
v -0.625000 0.962000 0.072000
v -0.647000 0.890000 -0.012000
v -0.655000 0.898000 -0.012000
v -0.647000 0.898000 -0.020000
v -0.647000 0.970000 -0.012000
v -0.647000 0.962000 -0.020000
v -0.655000 0.962000 -0.012000
v -0.647000 0.890000 0.072000
v -0.647000 0.898000 0.080000
v -0.655000 0.898000 0.072000
v -0.647000 0.970000 0.072000
v -0.655000 0.962000 0.072000
v -0.647000 0.962000 0.080000
vn -0.0000 -0.0000 -1.0000
vn -1.0000 -0.0000 -0.0000
vn -0.0000 1.0000 -0.0000
vn 1.0000 -0.0000 -0.0000
vn -0.0000 -0.0000 1.0000
vn 0.5774 -0.5773 -0.5774
vn 0.5774 0.5773 -0.5774
vn 0.5774 -0.5773 0.5774
vn 0.5774 0.5773 0.5774
vn -0.5774 -0.5773 -0.5774
vn -0.5774 0.5773 -0.5774
vn -0.5774 -0.5773 0.5774
vn -0.5774 0.5773 0.5774
vn 0.7071 -0.7071 -0.0000
vn 0.7071 -0.0000 -0.7071
vn 0.7071 0.7071 -0.0000
vn 0.7071 -0.0000 0.7071
vn -0.0000 -0.7071 0.7071
vn -0.0000 0.7071 0.7071
vn -0.7071 -0.0000 0.7071
vn -0.7071 -0.7071 -0.0000
vn -0.7071 0.7071 -0.0000
vn -0.7071 -0.0000 -0.7071
vn -0.0000 -0.7071 -0.7071
vn -0.0000 0.7071 -0.7071
vn -0.0000 -1.0000 -0.0000
vn 0.5773 -0.5774 -0.5774
vn 0.5773 0.5774 -0.5774
vn 0.5773 -0.5774 0.5774
vn 0.5773 0.5774 0.5773
vn -0.5773 -0.5774 -0.5774
vn -0.5773 0.5774 -0.5773
vn -0.5773 -0.5774 0.5774
vn -0.5773 0.5774 0.5774
vn 0.5774 -0.5774 -0.5773
vn 0.5774 0.5774 -0.5773
vn 0.5774 -0.5774 0.5773
vn 0.5774 0.5774 0.5773
vn -0.5774 -0.5774 -0.5773
vn -0.5774 0.5774 -0.5773
vn -0.5774 -0.5774 0.5773
vn -0.5774 0.5774 0.5773
vn 0.5773 0.5773 -0.5774
vn 0.5773 0.5773 0.5774
vn -0.5773 0.5773 -0.5774
vn -0.5773 0.5773 0.5774
vn 0.5774 -0.5773 0.5773
vn 0.5774 0.5773 0.5773
vn -0.5774 -0.5773 -0.5773
vn -0.5774 0.5773 -0.5773
vn -0.5774 0.5773 0.5773
vn 0.5774 -0.5774 -0.5774
vn 0.5774 0.5774 -0.5774
vn 0.5774 -0.5774 0.5774
vn 0.5774 0.5774 0.5774
vn -0.5774 -0.5774 -0.5774
vn -0.5774 0.5774 -0.5774
vn -0.5774 -0.5774 0.5774
vn -0.5774 0.5774 0.5774
vn -0.5773 -0.5773 -0.5774
vn 0.5774 -0.5773 -0.5773
vn 0.5774 0.5773 -0.5773
vn -0.5774 -0.5773 0.5773
vt 0.00000 0.00933
vt 0.00000 0.48812
vt 0.00000 0.51455
vt 0.00000 0.81924
vt 0.00000 0.83634
vt 0.00000 0.98869
vt 0.00616 0.50833
vt 0.00616 0.51455
vt 0.00616 0.81924
vt 0.00616 0.82546
vt 0.00924 0.00000
vt 0.00924 0.00933
vt 0.00924 0.48812
vt 0.00924 0.49745
vt 0.01848 0.50833
vt 0.01848 0.51455
vt 0.01848 0.81924
vt 0.01848 0.82546
vt 0.02465 0.51455
vt 0.02465 0.81924
vt 0.03389 0.00000
vt 0.03389 0.00933
vt 0.03389 0.48812
vt 0.03389 0.49745
vt 0.03485 0.83634
vt 0.03485 0.98869
vt 0.03543 0.51455
vt 0.03543 0.81924
vt 0.04159 0.50833
vt 0.04159 0.51455
vt 0.04159 0.81924
vt 0.04159 0.82546
vt 0.04313 0.00933
vt 0.04313 0.48812
vt 0.04792 0.83634
vt 0.04792 0.98869
vt 0.05392 0.00933
vt 0.05392 0.48812
vt 0.05392 0.50833
vt 0.05392 0.51455
vt 0.05392 0.81924
vt 0.05392 0.82546
vt 0.05871 0.83634
vt 0.05871 0.98869
vt 0.06008 0.51455
vt 0.06008 0.81924
vt 0.06316 0.00000
vt 0.06316 0.00933
vt 0.06316 0.48812
vt 0.06316 0.49745
vt 0.07087 0.51455
vt 0.07087 0.81924
vt 0.07703 0.50833
vt 0.07703 0.51455
vt 0.07703 0.81924
vt 0.07703 0.82546
vt 0.08780 0.00000
vt 0.08780 0.00933
vt 0.08780 0.48812
vt 0.08780 0.49745
vt 0.08935 0.50833
vt 0.08935 0.51455
vt 0.08935 0.81924
vt 0.08935 0.82546
vt 0.09357 0.83634
vt 0.09357 0.98869
vt 0.09551 0.51455
vt 0.09551 0.81924
vt 0.09705 0.00933
vt 0.09705 0.48812
vt 0.10630 0.82051
vt 0.10664 0.83634
vt 0.10664 0.98869
vt 0.10783 0.00622
vt 0.10783 0.49123
vt 0.11246 0.50833
vt 0.11246 0.81611
vt 0.11246 0.82491
vt 0.11399 0.00000
vt 0.11399 0.00622
vt 0.11399 0.49123
vt 0.11399 0.49745
vt 0.11787 0.83579
vt 0.11787 0.87097
vt 0.11787 0.89505
vt 0.11787 0.93022
vt 0.11787 0.95679
vt 0.11787 0.98290
vt 0.12016 0.00000
vt 0.12016 0.00622
vt 0.12016 0.49123
vt 0.12016 0.49745
vt 0.12092 0.95679
vt 0.12092 0.98290
vt 0.12267 0.95430
vt 0.12267 0.98539
vt 0.12441 0.95679
vt 0.12441 0.98290
vt 0.12478 0.50833
vt 0.12478 0.81611
vt 0.12478 0.82491
vt 0.12632 0.00622
vt 0.12632 0.49123
vt 0.13094 0.82051
vt 0.13094 0.84898
vt 0.13094 0.88416
vt 0.13094 0.90824
vt 0.13094 0.94341
vt 0.13711 0.00622
vt 0.13711 0.49123
vt 0.13737 0.95680
vt 0.13737 0.98292
vt 0.14173 0.50836
vt 0.14173 0.82276
vt 0.14173 0.84900
vt 0.14173 0.88418
vt 0.14173 0.90825
vt 0.14173 0.94343
vt 0.14327 0.00000
vt 0.14327 0.00622
vt 0.14327 0.49123
vt 0.14327 0.49745
vt 0.14479 0.82053
vt 0.14481 0.50833
vt 0.14483 0.82492
vt 0.14787 0.82050
vt 0.14791 0.82489
vt 0.14943 0.00000
vt 0.14943 0.00622
vt 0.14943 0.49123
vt 0.14943 0.49745
vt 0.15097 0.82266
vt 0.15132 0.95680
vt 0.15132 0.98292
vt 0.15306 0.95431
vt 0.15306 0.98540
vt 0.15480 0.83581
vt 0.15480 0.87099
vt 0.15480 0.89506
vt 0.15480 0.93024
vt 0.15480 0.95680
vt 0.15480 0.98292
vt 0.15559 0.00622
vt 0.15559 0.49123
vt 0.16638 0.00311
vt 0.16638 0.44459
vt 0.16638 0.80374
vt 0.16638 0.82122
vt 0.16638 0.97357
vt 0.16638 0.98632
vt 0.16638 0.99813
vt 0.16823 0.98445
vt 0.16823 0.98632
vt 0.16823 0.99813
vt 0.16823 1.00000
vt 0.16946 0.00000
vt 0.16946 0.00311
vt 0.16946 0.44459
vt 0.16946 0.44770
vt 0.17562 0.45859
vt 0.17562 0.79715
vt 0.17562 0.81034
vt 0.17993 0.98445
vt 0.17993 0.98632
vt 0.17993 0.99813
vt 0.17993 1.00000
vt 0.18178 0.98632
vt 0.18178 0.99813
vt 0.19257 0.98632
vt 0.19257 0.99813
vt 0.19442 0.98445
vt 0.19442 0.98632
vt 0.19442 0.99813
vt 0.19442 1.00000
vt 0.20123 0.82122
vt 0.20123 0.97357
vt 0.20612 0.98445
vt 0.20612 0.98632
vt 0.20612 0.99813
vt 0.20612 1.00000
vt 0.20797 0.98632
vt 0.20797 0.99813
vt 0.21430 0.82122
vt 0.21430 0.97357
vt 0.21876 0.98577
vt 0.22061 0.98445
vt 0.22061 0.98709
vt 0.22061 0.99545
vt 0.22307 0.98445
vt 0.22307 0.98709
vt 0.22307 0.99545
vt 0.22492 0.98577
vt 0.22509 0.82122
vt 0.22509 0.97357
vt 0.23571 0.98577
vt 0.23755 0.98445
vt 0.23755 0.98709
vt 0.23755 0.99545
vt 0.23816 0.82122
vt 0.23816 0.97357
vt 0.24002 0.98445
vt 0.24002 0.98709
vt 0.24002 0.99545
vt 0.24187 0.98577
vt 0.25266 0.98577
vt 0.25450 0.98445
vt 0.25450 0.98709
vt 0.25450 0.99545
vt 0.25697 0.98445
vt 0.25697 0.98709
vt 0.25697 0.99545
vt 0.25882 0.98577
vt 0.27301 0.82122
vt 0.27301 0.97357
vt 0.28380 0.82122
vt 0.28380 0.97357
vt 0.28380 0.99413
vt 0.28565 0.98445
vt 0.28565 0.99281
vt 0.28565 0.99545
vt 0.28811 0.98445
vt 0.28811 0.99281
vt 0.28811 0.99545
vt 0.28996 0.99413
vt 0.30075 0.99413
vt 0.30260 0.98445
vt 0.30260 0.99281
vt 0.30260 0.99545
vt 0.30501 0.45859
vt 0.30501 0.79715
vt 0.30501 0.81034
vt 0.30506 0.98445
vt 0.30506 0.99281
vt 0.30506 0.99545
vt 0.30691 0.99413
vt 0.31425 0.80374
vt 0.31865 0.82122
vt 0.31865 0.97357
vt 0.32504 0.46519
vt 0.33172 0.82122
vt 0.33172 0.97357
vt 0.33428 0.45859
vt 0.33428 0.47178
vt 0.33428 0.81034
vt 0.34251 0.82122
vt 0.34251 0.97357
vt 0.35558 0.82122
vt 0.35558 0.97357
vt 0.39044 0.82122
vt 0.39044 0.97357
vt 0.40122 0.82122
vt 0.40122 0.97357
vt 0.42824 0.00000
vt 0.42824 0.00311
vt 0.42824 0.44459
vt 0.42824 0.44770
vt 0.43132 0.00311
vt 0.43132 0.44459
vt 0.43608 0.82122
vt 0.43608 0.97357
vt 0.44210 0.00311
vt 0.44210 0.44459
vt 0.44518 0.00000
vt 0.44518 0.00311
vt 0.44518 0.44459
vt 0.44518 0.44770
vt 0.44915 0.82122
vt 0.44915 0.97357
vt 0.46202 0.82744
vt 0.46202 0.89584
vt 0.46202 0.91543
vt 0.46202 0.94155
vt 0.46202 0.95741
vt 0.46202 0.98353
vt 0.46367 0.45859
vt 0.46367 0.47178
vt 0.46367 0.81034
vt 0.46507 0.91543
vt 0.46507 0.94155
vt 0.46507 0.95741
vt 0.46507 0.98353
vt 0.46637 0.82122
vt 0.46637 0.90206
vt 0.46681 0.91295
vt 0.46681 0.94404
vt 0.46681 0.95492
vt 0.46681 0.98601
vt 0.46855 0.91543
vt 0.46855 0.94155
vt 0.46855 0.95741
vt 0.46855 0.98353
vt 0.47073 0.82744
vt 0.47073 0.89584
vt 0.47291 0.46519
vt 0.47291 0.82744
vt 0.47291 0.89584
vt 0.48370 0.80594
vt 0.48370 0.82122
vt 0.48370 0.97357
vt 0.48986 0.45859
vt 0.48986 0.80154
vt 0.48986 0.81034
vt 0.49677 0.82122
vt 0.49677 0.97357
vt 0.51450 0.45859
vt 0.51450 0.80154
vt 0.51450 0.81034
vt 0.52067 0.80594
vt 0.53145 0.46299
vt 0.53162 0.82122
vt 0.53162 0.97357
vt 0.53761 0.45859
vt 0.53761 0.46738
vt 0.53761 0.81034
vt 0.54241 0.82744
vt 0.54241 0.89584
vt 0.54241 0.92614
vt 0.54241 0.96131
vt 0.54241 0.97469
vt 0.54241 0.99458
vt 0.54459 0.82744
vt 0.54459 0.89584
vt 0.54487 0.97220
vt 0.54487 0.97469
vt 0.54487 0.99458
vt 0.54487 0.99707
vt 0.54895 0.82122
vt 0.54895 0.90206
vt 0.54919 0.97220
vt 0.54919 0.97469
vt 0.54919 0.99458
vt 0.54919 0.99707
vt 0.55165 0.97469
vt 0.55165 0.99458
vt 0.55330 0.82744
vt 0.55330 0.89584
vt 0.55548 0.91295
vt 0.55548 0.94812
vt 0.56226 0.45859
vt 0.56226 0.46738
vt 0.56226 0.81034
vt 0.56842 0.46299
vt 0.57921 0.77077
vt 0.57921 0.78605
vt 0.57921 0.93839
vt 0.57921 0.95177
vt 0.57921 0.97788
vt 0.58095 0.94928
vt 0.58095 0.98037
vt 0.58269 0.95177
vt 0.58269 0.97788
vt 0.58537 0.45859
vt 0.58537 0.76637
vt 0.58537 0.77516
vt 0.59228 0.78605
vt 0.59228 0.93839
vt 0.59664 0.95177
vt 0.59664 0.97788
vt 0.60742 0.95177
vt 0.60742 0.97788
vt 0.60917 0.94928
vt 0.60917 0.98037
vt 0.61091 0.95177
vt 0.61091 0.97788
vt 0.62485 0.95177
vt 0.62485 0.97788
vt 0.62713 0.78605
vt 0.62713 0.93839
vt 0.63564 0.95177
vt 0.63564 0.97788
vt 0.63738 0.94928
vt 0.63738 0.98037
vt 0.63792 0.78605
vt 0.63792 0.93839
vt 0.63912 0.95177
vt 0.63912 0.97788
vt 0.65099 0.78605
vt 0.65099 0.93839
vt 0.65307 0.95177
vt 0.65307 0.97788
vt 0.65315 0.45859
vt 0.65315 0.76637
vt 0.65315 0.77516
vt 0.65931 0.77077
vt 0.66385 0.95177
vt 0.66385 0.97788
vt 0.67009 0.46299
vt 0.67626 0.45859
vt 0.67626 0.46738
vt 0.67626 0.77516
vt 0.67779 0.95177
vt 0.67779 0.97788
vt 0.67954 0.94928
vt 0.67954 0.98037
vt 0.68128 0.95177
vt 0.68128 0.97788
vt 0.68585 0.78605
vt 0.68585 0.93839
vt 0.69663 0.78605
vt 0.69663 0.93839
vt 0.69663 0.95177
vt 0.69663 0.97788
vt 0.69837 0.94928
vt 0.69837 0.98037
vt 0.70012 0.95177
vt 0.70012 0.97788
vt 0.70396 0.00000
vt 0.70396 0.00311
vt 0.70396 0.44459
vt 0.70396 0.44770
vt 0.70704 0.00311
vt 0.70704 0.44459
vt 0.71406 0.95177
vt 0.71406 0.97788
vt 0.71783 0.00622
vt 0.71783 0.44149
vt 0.72399 0.00000
vt 0.72399 0.00622
vt 0.72399 0.44149
vt 0.72399 0.44770
vt 0.72485 0.95177
vt 0.72485 0.97788
vt 0.72659 0.94928
vt 0.72659 0.98037
vt 0.72707 0.00000
vt 0.72707 0.00622
vt 0.72707 0.44149
vt 0.72707 0.44770
vt 0.72833 0.95177
vt 0.72833 0.97788
vt 0.73149 0.78605
vt 0.73149 0.93839
vt 0.73323 0.00622
vt 0.73323 0.44149
vt 0.74227 0.95177
vt 0.74227 0.97788
vt 0.74402 0.00622
vt 0.74402 0.44149
vt 0.74403 0.45859
vt 0.74403 0.46738
vt 0.74403 0.77516
vt 0.74456 0.78605
vt 0.74456 0.93839
vt 0.75018 0.00000
vt 0.75018 0.00622
vt 0.75018 0.44149
vt 0.75018 0.44770
vt 0.75019 0.46299
vt 0.75326 0.00000
vt 0.75326 0.00622
vt 0.75326 0.44149
vt 0.75326 0.44770
vt 0.75943 0.00622
vt 0.75943 0.44149
vt 0.76098 0.46481
vt 0.76098 0.76949
vt 0.76098 0.78660
vt 0.76098 0.93894
vt 0.76098 0.95232
vt 0.76098 0.97843
vt 0.76714 0.45859
vt 0.76714 0.46481
vt 0.76714 0.76949
vt 0.76714 0.77571
vt 0.77021 0.00622
vt 0.77021 0.44149
vt 0.77405 0.78660
vt 0.77405 0.93894
vt 0.77492 0.95232
vt 0.77492 0.97843
vt 0.77637 0.00000
vt 0.77637 0.00622
vt 0.77637 0.44149
vt 0.77637 0.44770
vt 0.77666 0.94983
vt 0.77666 0.98092
vt 0.77841 0.95232
vt 0.77841 0.97843
vt 0.77945 0.00000
vt 0.77945 0.00622
vt 0.77945 0.44149
vt 0.77945 0.44770
vt 0.77946 0.45859
vt 0.77946 0.46481
vt 0.77946 0.76949
vt 0.77946 0.77571
vt 0.78562 0.00622
vt 0.78562 0.44149
vt 0.78563 0.46481
vt 0.78563 0.76949
vt 0.78919 0.95232
vt 0.78919 0.97843
vt 0.79640 0.00622
vt 0.79640 0.44149
vt 0.79641 0.46299
vt 0.80256 0.00000
vt 0.80256 0.00622
vt 0.80256 0.44149
vt 0.80256 0.44770
vt 0.80257 0.45859
vt 0.80257 0.46738
vt 0.80257 0.77516
vt 0.80314 0.95232
vt 0.80314 0.97843
vt 0.80488 0.94983
vt 0.80488 0.98092
vt 0.80564 0.00000
vt 0.80564 0.00622
vt 0.80564 0.44149
vt 0.80564 0.44770
vt 0.80662 0.95232
vt 0.80662 0.97843
vt 0.80890 0.78660
vt 0.80890 0.93894
vt 0.81181 0.00622
vt 0.81181 0.44149
vt 0.81490 0.45859
vt 0.81490 0.46738
vt 0.81490 0.77516
vt 0.82106 0.46299
vt 0.82259 0.00226
vt 0.82259 0.32996
vt 0.82259 0.35608
vt 0.82259 0.37194
vt 0.82259 0.39806
vt 0.82259 0.41392
vt 0.82259 0.44003
vt 0.82564 0.32996
vt 0.82564 0.35608
vt 0.82564 0.37194
vt 0.82564 0.39806
vt 0.82564 0.41392
vt 0.82564 0.44003
vt 0.82565 0.00003
vt 0.82570 0.00443
vt 0.82739 0.32748
vt 0.82739 0.35857
vt 0.82739 0.36945
vt 0.82739 0.40054
vt 0.82739 0.41143
vt 0.82739 0.44252
vt 0.82873 0.00000
vt 0.82876 0.31659
vt 0.82878 0.00440
vt 0.82913 0.32996
vt 0.82913 0.35608
vt 0.82913 0.37194
vt 0.82913 0.39806
vt 0.82913 0.41392
vt 0.82913 0.44003
vt 0.83183 0.00217
vt 0.83183 0.31656
vt 0.83184 0.67843
vt 0.83184 0.69811
vt 0.83184 0.93133
vt 0.83184 0.95745
vt 0.83184 0.97331
vt 0.83184 0.99320
vt 0.83359 0.92884
vt 0.83359 0.95993
vt 0.83431 0.97082
vt 0.83431 0.97331
vt 0.83431 0.99320
vt 0.83431 0.99569
vt 0.83533 0.93133
vt 0.83533 0.95745
vt 0.83801 0.45859
vt 0.83801 0.67404
vt 0.83801 0.68283
vt 0.83801 0.69372
vt 0.83801 0.70251
vt 0.83801 0.91796
vt 0.83862 0.97082
vt 0.83862 0.97331
vt 0.83862 0.99320
vt 0.83862 0.99569
vt 0.84109 0.97331
vt 0.84109 0.99320
vt 0.84262 0.00440
vt 0.84262 0.23518
vt 0.84262 0.42207
vt 0.84262 0.43642
vt 0.84447 0.43510
vt 0.84447 0.43774
vt 0.84447 0.44610
vt 0.84567 0.41982
vt 0.84570 0.23513
vt 0.84574 0.42422
vt 0.84694 0.43510
vt 0.84694 0.43774
vt 0.84694 0.44610
vt 0.84875 0.41977
vt 0.84878 0.00000
vt 0.84878 0.00879
vt 0.84878 0.22424
vt 0.84878 0.43642
vt 0.84882 0.42417
vt 0.84927 0.93133
vt 0.84927 0.95745
vt 0.85186 0.42191
vt 0.85188 0.97331
vt 0.85188 0.99320
vt 0.85434 0.97082
vt 0.85434 0.97331
vt 0.85434 0.99320
vt 0.85434 0.99569
vt 0.85649 0.45859
vt 0.85649 0.67404
vt 0.85649 0.68283
vt 0.85649 0.69372
vt 0.85649 0.70251
vt 0.85649 0.91796
vt 0.85865 0.97082
vt 0.85865 0.97331
vt 0.85865 0.99320
vt 0.85865 0.99569
vt 0.85957 0.44478
vt 0.86112 0.97331
vt 0.86112 0.99320
vt 0.86142 0.43510
vt 0.86142 0.44346
vt 0.86142 0.44610
vt 0.86265 0.23743
vt 0.86265 0.67843
vt 0.86265 0.69811
vt 0.86388 0.43510
vt 0.86388 0.44346
vt 0.86388 0.44610
vt 0.86569 0.23518
vt 0.86573 0.44478
vt 0.86577 0.23957
vt 0.86727 0.00000
vt 0.86727 0.00879
vt 0.86727 0.22424
vt 0.86877 0.23513
vt 0.86881 0.42422
vt 0.86885 0.23952
vt 0.87189 0.23727
vt 0.87189 0.42417
vt 0.87343 0.00440
vt 0.87344 0.67843
vt 0.87344 0.69372
vt 0.87344 0.84606
vt 0.87344 0.87014
vt 0.87344 0.90531
vt 0.87344 0.92242
vt 0.87344 0.94729
vt 0.87344 0.96688
vt 0.87344 0.99300
vt 0.87780 0.91620
vt 0.87780 0.95351
vt 0.87960 0.45859
vt 0.87960 0.67404
vt 0.87960 0.68283
vt 0.88215 0.92242
vt 0.88215 0.94729
vt 0.88268 0.23513
vt 0.88268 0.38747
vt 0.88268 0.39836
vt 0.88268 0.43353
vt 0.88422 0.00000
vt 0.88422 0.15234
vt 0.88422 0.16323
vt 0.88422 0.19840
vt 0.88651 0.69372
vt 0.88651 0.84606
vt 0.88651 0.85695
vt 0.88651 0.89212
vt 0.88651 0.92242
vt 0.88651 0.94729
vt 0.88738 0.96688
vt 0.88738 0.99300
vt 0.88912 0.96439
vt 0.88912 0.99548
vt 0.89087 0.96688
vt 0.89087 0.99300
vt 0.89575 0.41155
vt 0.89575 0.44672
vt 0.89729 0.17642
vt 0.89729 0.21160
vt 0.89730 0.87014
vt 0.89730 0.90531
vt 0.89730 0.92242
vt 0.89730 0.94729
vt 0.89809 0.45859
vt 0.89809 0.67404
vt 0.89809 0.68283
vt 0.90165 0.92242
vt 0.90165 0.94729
vt 0.90165 0.97407
vt 0.90350 0.96439
vt 0.90350 0.97275
vt 0.90350 0.97538
vt 0.90425 0.67843
vt 0.90597 0.96439
vt 0.90597 0.97275
vt 0.90597 0.97538
vt 0.90601 0.91620
vt 0.90601 0.95351
vt 0.90654 0.39836
vt 0.90654 0.43353
vt 0.90782 0.97407
vt 0.90807 0.17642
vt 0.90807 0.21160
vt 0.91037 0.85695
vt 0.91037 0.89212
vt 0.91037 0.92242
vt 0.91037 0.94729
vt 0.91503 0.45859
vt 0.91503 0.61093
vt 0.91503 0.62182
vt 0.91503 0.65699
vt 0.91753 0.23513
vt 0.91753 0.38747
vt 0.91907 0.00000
vt 0.91907 0.15234
vt 0.91961 0.41155
vt 0.91961 0.44672
vt 0.92114 0.16323
vt 0.92114 0.19840
vt 0.92115 0.87014
vt 0.92115 0.90531
vt 0.92115 0.92242
vt 0.92115 0.94107
vt 0.92115 0.96066
vt 0.92115 0.98678
vt 0.92136 0.69372
vt 0.92136 0.84606
vt 0.92810 0.45859
vt 0.92810 0.61093
vt 0.92810 0.63501
vt 0.92810 0.67019
vt 0.92987 0.92242
vt 0.92987 0.94107
vt 0.93039 0.39836
vt 0.93039 0.43353
vt 0.93060 0.23513
vt 0.93060 0.38747
vt 0.93193 0.17642
vt 0.93193 0.21160
vt 0.93214 0.00000
vt 0.93214 0.15234
vt 0.93215 0.70304
vt 0.93215 0.83362
vt 0.93422 0.85695
vt 0.93422 0.89212
vt 0.93422 0.91620
vt 0.93422 0.94729
vt 0.93510 0.96066
vt 0.93510 0.98678
vt 0.93684 0.95817
vt 0.93684 0.98926
vt 0.93858 0.92242
vt 0.93858 0.94107
vt 0.93858 0.96066
vt 0.93858 0.98678
vt 0.93869 0.69372
vt 0.93869 0.84295
vt 0.93889 0.62182
vt 0.93889 0.65699
vt 0.94139 0.24445
vt 0.94139 0.37503
vt 0.94293 0.00249
vt 0.94293 0.02860
vt 0.94293 0.04446
vt 0.94293 0.07058
vt 0.94293 0.08644
vt 0.94293 0.11256
vt 0.94293 0.13215
vt 0.94293 0.14458
vt 0.94346 0.41155
vt 0.94346 0.44672
vt 0.94467 0.04198
vt 0.94467 0.07307
vt 0.94467 0.08395
vt 0.94467 0.11504
vt 0.94500 0.16323
vt 0.94500 0.19840
vt 0.94501 0.86316
vt 0.94501 0.88182
vt 0.94511 0.13215
vt 0.94511 0.14458
vt 0.94522 0.70304
vt 0.94522 0.83362
vt 0.94641 0.04446
vt 0.94641 0.07058
vt 0.94641 0.08644
vt 0.94641 0.11256
vt 0.94937 0.91868
vt 0.94937 0.94480
vt 0.94937 0.96066
vt 0.94937 0.98678
vt 0.94946 0.12593
vt 0.94946 0.15080
vt 0.95111 0.91620
vt 0.95111 0.94729
vt 0.95196 0.63501
vt 0.95196 0.67019
vt 0.95285 0.91868
vt 0.95285 0.94480
vt 0.95373 0.86316
vt 0.95373 0.88182
vt 0.95382 0.13215
vt 0.95382 0.14458
vt 0.95425 0.40457
vt 0.95425 0.42323
vt 0.95579 0.16945
vt 0.95579 0.18810
vt 0.95579 0.20707
vt 0.95579 0.21889
vt 0.95687 0.00249
vt 0.95687 0.02860
vt 0.95764 0.20521
vt 0.95764 0.20707
vt 0.95764 0.21889
vt 0.95764 0.22075
vt 0.95808 0.85695
vt 0.95808 0.88804
vt 0.95861 0.00000
vt 0.95861 0.03109
vt 0.95861 0.39836
vt 0.95861 0.42945
vt 0.95882 0.24445
vt 0.95882 0.37503
vt 0.96015 0.16323
vt 0.96015 0.19432
vt 0.96035 0.00249
vt 0.96035 0.02860
vt 0.96035 0.04446
vt 0.96035 0.07058
vt 0.96035 0.08644
vt 0.96035 0.11256
vt 0.96244 0.86316
vt 0.96244 0.88182
vt 0.96265 0.70304
vt 0.96265 0.83362
vt 0.96275 0.62431
vt 0.96275 0.65042
vt 0.96275 0.66566
vt 0.96275 0.67748
vt 0.96296 0.40457
vt 0.96296 0.42323
vt 0.96296 0.45859
vt 0.96296 0.61093
vt 0.96331 0.96066
vt 0.96331 0.98678
vt 0.96450 0.16945
vt 0.96450 0.18810
vt 0.96460 0.66380
vt 0.96460 0.66566
vt 0.96460 0.67748
vt 0.96460 0.67934
vt 0.96461 0.13215
vt 0.96461 0.14458
vt 0.96505 0.95817
vt 0.96505 0.98926
vt 0.96535 0.23513
vt 0.96535 0.38436
vt 0.96680 0.91868
vt 0.96680 0.94480
vt 0.96680 0.96066
vt 0.96680 0.98678
vt 0.96896 0.12593
vt 0.96896 0.15080
vt 0.96935 0.20521
vt 0.96935 0.20707
vt 0.96935 0.21889
vt 0.96935 0.22075
vt 0.97114 0.00249
vt 0.97114 0.02860
vt 0.97114 0.04446
vt 0.97114 0.07058
vt 0.97114 0.08644
vt 0.97114 0.11256
vt 0.97119 0.20707
vt 0.97119 0.21889
vt 0.97168 0.40457
vt 0.97168 0.42323
vt 0.97189 0.24445
vt 0.97189 0.37503
vt 0.97322 0.16945
vt 0.97322 0.18810
vt 0.97323 0.85943
vt 0.97323 0.88555
vt 0.97332 0.13215
vt 0.97332 0.14458
vt 0.97344 0.69620
vt 0.97344 0.72232
vt 0.97344 0.73818
vt 0.97344 0.76430
vt 0.97344 0.78016
vt 0.97344 0.80627
vt 0.97344 0.82213
vt 0.97344 0.84203
vt 0.97374 0.46108
vt 0.97374 0.48719
vt 0.97374 0.50305
vt 0.97374 0.52917
vt 0.97374 0.54503
vt 0.97374 0.57115
vt 0.97374 0.58701
vt 0.97374 0.60691
vt 0.97419 0.00249
vt 0.97419 0.02860
vt 0.97419 0.04446
vt 0.97419 0.07058
vt 0.97419 0.08644
vt 0.97419 0.11256
vt 0.97497 0.85695
vt 0.97497 0.88804
vt 0.97518 0.69372
vt 0.97518 0.72481
vt 0.97518 0.73569
vt 0.97518 0.76678
vt 0.97518 0.77767
vt 0.97518 0.80876
vt 0.97549 0.45859
vt 0.97549 0.48968
vt 0.97549 0.50057
vt 0.97549 0.53166
vt 0.97549 0.54254
vt 0.97549 0.57363
vt 0.97550 0.13215
vt 0.97550 0.14458
vt 0.97590 0.81965
vt 0.97590 0.82213
vt 0.97590 0.84203
vt 0.97590 0.84452
vt 0.97593 0.00000
vt 0.97593 0.03109
vt 0.97593 0.04198
vt 0.97593 0.07307
vt 0.97593 0.08395
vt 0.97593 0.11504
vt 0.97621 0.58452
vt 0.97621 0.58701
vt 0.97621 0.60691
vt 0.97621 0.60939
vt 0.97630 0.66380
vt 0.97630 0.66566
vt 0.97630 0.67748
vt 0.97630 0.67934
vt 0.97669 0.62431
vt 0.97669 0.65042
vt 0.97671 0.85943
vt 0.97671 0.88555
vt 0.97692 0.69620
vt 0.97692 0.72232
vt 0.97692 0.73818
vt 0.97692 0.76430
vt 0.97692 0.78016
vt 0.97692 0.80627
vt 0.97723 0.46108
vt 0.97723 0.48719
vt 0.97723 0.50305
vt 0.97723 0.52917
vt 0.97723 0.54503
vt 0.97723 0.57115
vt 0.97758 0.91868
vt 0.97758 0.94480
vt 0.97758 0.96066
vt 0.97758 0.98678
vt 0.97768 0.00249
vt 0.97768 0.02860
vt 0.97768 0.04446
vt 0.97768 0.07058
vt 0.97768 0.08644
vt 0.97768 0.11256
vt 0.97815 0.66566
vt 0.97815 0.67748
vt 0.97843 0.62182
vt 0.97843 0.65291
vt 0.97933 0.91620
vt 0.97933 0.94729
vt 0.97933 0.95817
vt 0.97933 0.98926
vt 0.97976 0.85943
vt 0.97976 0.88555
vt 0.97997 0.69620
vt 0.97997 0.72232
vt 0.97997 0.73818
vt 0.97997 0.76430
vt 0.97997 0.78016
vt 0.97997 0.80627
vt 0.98018 0.62431
vt 0.98018 0.65042
vt 0.98021 0.81965
vt 0.98021 0.82213
vt 0.98021 0.84203
vt 0.98021 0.84452
vt 0.98028 0.46108
vt 0.98028 0.48719
vt 0.98028 0.50305
vt 0.98028 0.52917
vt 0.98028 0.54503
vt 0.98028 0.57115
vt 0.98052 0.58452
vt 0.98052 0.58701
vt 0.98052 0.60691
vt 0.98052 0.60939
vt 0.98107 0.91868
vt 0.98107 0.94480
vt 0.98107 0.96066
vt 0.98107 0.98678
vt 0.98247 0.40084
vt 0.98247 0.42074
vt 0.98267 0.23761
vt 0.98267 0.25751
vt 0.98267 0.27337
vt 0.98267 0.29327
vt 0.98267 0.30913
vt 0.98267 0.32903
vt 0.98267 0.34489
vt 0.98267 0.36479
vt 0.98268 0.82213
vt 0.98268 0.84203
vt 0.98299 0.58701
vt 0.98299 0.60691
vt 0.98400 0.16572
vt 0.98400 0.18562
vt 0.98400 0.20148
vt 0.98400 0.22137
vt 0.98412 0.91868
vt 0.98412 0.94480
vt 0.98412 0.96066
vt 0.98412 0.98678
vt 0.98493 0.39836
vt 0.98493 0.40084
vt 0.98493 0.42074
vt 0.98493 0.42323
vt 0.98514 0.23513
vt 0.98514 0.23761
vt 0.98514 0.25751
vt 0.98514 0.26000
vt 0.98514 0.27088
vt 0.98514 0.27337
vt 0.98514 0.29327
vt 0.98514 0.29576
vt 0.98514 0.30664
vt 0.98514 0.30913
vt 0.98514 0.32903
vt 0.98514 0.33152
vt 0.98514 0.34240
vt 0.98514 0.34489
vt 0.98514 0.36479
vt 0.98514 0.36728
vt 0.98629 0.12842
vt 0.98629 0.14832
vt 0.98647 0.16323
vt 0.98647 0.16572
vt 0.98647 0.18562
vt 0.98647 0.18810
vt 0.98647 0.19899
vt 0.98647 0.20148
vt 0.98647 0.22137
vt 0.98647 0.22386
vt 0.98847 0.00249
vt 0.98847 0.02238
vt 0.98847 0.04446
vt 0.98847 0.06436
vt 0.98847 0.08022
vt 0.98847 0.10012
vt 0.98875 0.12593
vt 0.98875 0.12842
vt 0.98875 0.14832
vt 0.98875 0.15080
vt 0.98924 0.39836
vt 0.98924 0.40084
vt 0.98924 0.42074
vt 0.98924 0.42323
vt 0.98945 0.23513
vt 0.98945 0.23761
vt 0.98945 0.25751
vt 0.98945 0.26000
vt 0.98945 0.27088
vt 0.98945 0.27337
vt 0.98945 0.29327
vt 0.98945 0.29576
vt 0.98945 0.30664
vt 0.98945 0.30913
vt 0.98945 0.32903
vt 0.98945 0.33152
vt 0.98945 0.34240
vt 0.98945 0.34489
vt 0.98945 0.36479
vt 0.98945 0.36728
vt 0.99055 0.85943
vt 0.99055 0.87933
vt 0.99076 0.69620
vt 0.99076 0.71610
vt 0.99078 0.16323
vt 0.99078 0.16572
vt 0.99078 0.18562
vt 0.99078 0.18810
vt 0.99078 0.19899
vt 0.99078 0.20148
vt 0.99078 0.22137
vt 0.99078 0.22386
vt 0.99093 0.00000
vt 0.99093 0.00249
vt 0.99093 0.02238
vt 0.99093 0.02487
vt 0.99093 0.04198
vt 0.99093 0.04446
vt 0.99093 0.06436
vt 0.99093 0.06685
vt 0.99093 0.07774
vt 0.99093 0.08022
vt 0.99093 0.10012
vt 0.99093 0.10261
vt 0.99171 0.40084
vt 0.99171 0.42074
vt 0.99192 0.23761
vt 0.99192 0.25751
vt 0.99192 0.27337
vt 0.99192 0.29327
vt 0.99192 0.30913
vt 0.99192 0.32903
vt 0.99192 0.34489
vt 0.99192 0.36479
vt 0.99301 0.85695
vt 0.99301 0.85943
vt 0.99301 0.87933
vt 0.99301 0.88182
vt 0.99306 0.12593
vt 0.99306 0.12842
vt 0.99306 0.14832
vt 0.99306 0.15080
vt 0.99322 0.69372
vt 0.99322 0.69620
vt 0.99322 0.71610
vt 0.99322 0.71859
vt 0.99325 0.16572
vt 0.99325 0.18562
vt 0.99325 0.20148
vt 0.99325 0.22137
vt 0.99524 0.00000
vt 0.99524 0.00249
vt 0.99524 0.02238
vt 0.99524 0.02487
vt 0.99524 0.04198
vt 0.99524 0.04446
vt 0.99524 0.06436
vt 0.99524 0.06685
vt 0.99524 0.07774
vt 0.99524 0.08022
vt 0.99524 0.10012
vt 0.99524 0.10261
vt 0.99553 0.12842
vt 0.99553 0.14832
vt 0.99733 0.85695
vt 0.99733 0.85943
vt 0.99733 0.87933
vt 0.99733 0.88182
vt 0.99753 0.69372
vt 0.99753 0.69620
vt 0.99753 0.71610
vt 0.99753 0.71859
vt 0.99771 0.00249
vt 0.99771 0.02238
vt 0.99771 0.04446
vt 0.99771 0.06436
vt 0.99771 0.08022
vt 0.99771 0.10012
vt 0.99979 0.85943
vt 0.99979 0.87933
vt 1.00000 0.69620
vt 1.00000 0.71610
s 0
usemtl FPS_concrete
f 1/880/14 3/824/14 8/823/14
f 1/880/14 8/823/14 7/879/14
f 1/880/6 2/858/6 3/824/6
f 10/230/16 12/231/16 6/162/16
f 10/230/16 6/162/16 5/161/16
f 10/230/3 16/160/3 22/229/3
f 10/230/3 5/161/3 16/160/3
f 10/230/9 11/236/9 12/231/9
f 11/49/5 20/58/5 9/59/5
f 11/49/5 24/48/5 20/58/5
f 13/276/10 14/275/10 15/294/10
f 13/34/24 15/23/24 2/22/24
f 13/34/24 2/22/24 1/33/24
f 15/23/23 14/24/23 18/14/23
f 15/23/23 18/14/23 17/13/23
f 16/743/11 17/757/11 18/783/11
f 16/743/22 18/783/22 23/784/22
f 16/743/22 23/784/22 22/744/22
f 17/13/1 2/22/1 15/23/1
f 17/13/1 4/12/1 2/22/1
f 19/243/12 20/239/12 21/242/12
f 19/243/21 14/275/21 13/276/21
f 19/243/21 21/242/21 14/275/21
f 19/243/26 1/277/26 7/244/26
f 19/243/26 13/276/26 1/277/26
f 21/57/20 20/58/20 24/48/20
f 21/57/20 24/48/20 23/47/20
f 22/37/19 11/49/19 10/38/19
f 22/37/19 24/48/19 11/49/19
f 22/744/13 23/784/13 24/758/13
f 23/784/2 14/835/2 21/836/2
f 23/784/2 18/783/2 14/835/2
f 4/12/15 3/21/15 2/22/15
f 4/12/15 6/11/15 3/21/15
f 4/147/7 5/161/7 6/162/7
f 5/1/25 17/13/25 16/2/25
f 5/1/25 4/12/25 17/13/25
f 6/762/4 12/761/4 8/823/4
f 6/762/4 8/823/4 3/824/4
f 7/70/18 20/58/18 19/69/18
f 7/70/18 9/59/18 20/58/18
f 7/879/8 8/823/8 9/857/8
f 9/59/17 12/50/17 11/49/17
f 9/59/17 8/60/17 12/50/17
usemtl FPS_hazard
f 257/804/14 259/782/14 264/781/14
f 257/804/14 264/781/14 263/803/14
f 257/804/52 258/794/52 259/782/52
f 26/84/1 27/83/1 28/105/1
f 26/84/1 28/105/1 25/106/1
f 260/472/15 259/479/15 258/480/15
f 260/472/15 262/471/15 259/479/15
f 260/71/53 261/77/53 262/78/53
f 261/465/25 260/472/25 273/473/25
f 261/465/25 273/473/25 272/466/25
f 262/770/4 264/781/4 259/782/4
f 262/770/4 268/769/4 264/781/4
f 263/516/18 265/509/18 276/508/18
f 263/516/18 276/508/18 275/515/18
f 263/803/54 264/781/54 265/793/54
f 265/509/17 264/510/17 268/499/17
f 265/509/17 268/499/17 267/498/17
f 266/100/16 262/78/16 261/77/16
f 266/100/16 268/101/16 262/78/16
f 266/100/3 261/77/3 272/76/3
f 266/100/3 272/76/3 278/99/3
f 266/100/55 267/104/55 268/101/55
f 267/498/5 276/508/5 265/509/5
f 267/498/5 280/497/5 276/508/5
f 269/488/24 258/480/24 257/487/24
f 269/488/24 271/481/24 258/480/24
f 269/518/56 270/517/56 271/520/56
f 271/481/23 270/482/23 274/474/23
f 271/481/23 274/474/23 273/473/23
f 272/853/22 274/885/22 279/886/22
f 272/853/22 279/886/22 278/854/22
f 272/853/57 273/863/57 274/885/57
f 273/473/1 258/480/1 271/481/1
f 273/473/1 260/472/1 258/480/1
f 275/501/21 270/517/21 269/518/21
f 275/501/21 277/500/21 270/517/21
f 275/501/26 257/519/26 263/502/26
f 275/501/26 269/518/26 257/519/26
f 275/501/58 276/495/58 277/500/58
f 277/507/20 276/508/20 280/497/20
f 277/507/20 280/497/20 279/496/20
f 278/493/19 267/498/19 266/494/19
f 278/493/19 280/497/19 267/498/19
f 278/854/59 279/886/59 280/864/59
f 279/886/2 270/923/2 277/924/2
f 279/886/2 274/885/2 270/923/2
f 29/742/26 26/715/26 25/741/26
f 29/742/26 30/716/26 26/715/26
f 30/716/21 27/661/21 26/715/21
f 30/716/21 31/662/21 27/661/21
f 31/457/3 28/468/3 27/458/3
f 31/457/3 32/467/3 28/468/3
f 32/115/5 30/138/5 29/116/5
f 32/115/5 31/137/5 30/138/5
f 32/467/16 25/514/16 28/468/16
f 32/467/16 29/513/16 25/514/16
f 34/736/1 35/735/1 36/771/1
f 34/736/1 36/771/1 33/772/1
f 37/268/26 34/259/26 33/267/26
f 37/268/26 38/260/26 34/259/26
f 38/260/21 35/251/21 34/259/21
f 38/260/21 39/252/21 35/251/21
f 39/298/3 36/304/3 35/299/3
f 39/298/3 40/303/3 36/304/3
f 40/303/16 33/311/16 36/304/16
f 40/303/16 37/310/16 33/311/16
f 40/739/5 38/778/5 37/740/5
f 40/739/5 39/777/5 38/778/5
f 42/660/1 43/659/1 44/677/1
f 42/660/1 44/677/1 41/678/1
f 45/36/26 42/25/26 41/35/26
f 45/36/26 46/26/26 42/25/26
f 46/26/21 43/5/21 42/25/21
f 46/26/21 47/6/21 43/5/21
f 47/642/3 44/666/3 43/643/3
f 47/642/3 48/665/3 44/666/3
f 48/644/5 46/668/5 45/645/5
f 48/644/5 47/667/5 46/668/5
f 48/665/16 41/728/16 44/666/16
f 48/665/16 45/727/16 41/728/16
f 50/712/1 51/711/1 52/731/1
f 50/712/1 52/731/1 49/732/1
f 53/73/26 50/65/26 49/72/26
f 53/73/26 54/66/26 50/65/26
f 54/66/21 51/43/21 50/65/21
f 54/66/21 55/44/21 51/43/21
f 55/193/3 52/200/3 51/194/3
f 55/193/3 56/199/3 52/200/3
f 56/199/16 49/214/16 52/200/16
f 56/199/16 53/213/16 49/214/16
f 56/721/5 54/746/5 53/722/5
f 56/721/5 55/745/5 54/746/5
f 58/86/1 59/85/1 60/107/1
f 58/86/1 60/107/1 57/108/1
f 61/709/26 58/730/26 57/710/26
f 61/709/26 62/729/26 58/730/26
f 62/729/21 59/844/21 58/730/21
f 62/729/21 63/843/21 59/844/21
f 63/184/3 60/175/3 59/183/3
f 63/184/3 64/176/3 60/175/3
f 64/117/5 62/140/5 61/118/5
f 64/117/5 63/139/5 62/140/5
f 64/176/16 57/148/16 60/175/16
f 64/176/16 61/149/16 57/148/16
f 66/701/1 67/700/1 68/717/1
f 66/701/1 68/717/1 65/718/1
f 69/344/26 66/356/26 65/345/26
f 69/344/26 70/355/26 66/356/26
f 70/355/21 67/368/21 66/356/21
f 70/355/21 71/367/21 67/368/21
f 71/443/3 68/431/3 67/442/3
f 71/443/3 72/432/3 68/431/3
f 72/432/16 65/399/16 68/431/16
f 72/432/16 69/400/16 65/399/16
f 72/703/5 70/720/5 69/704/5
f 72/703/5 71/719/5 70/720/5
f 74/664/1 75/663/1 76/679/1
f 74/664/1 76/679/1 73/680/1
f 77/241/26 74/237/26 73/240/26
f 77/241/26 78/238/26 74/237/26
f 78/238/21 75/215/21 74/237/21
f 78/238/21 79/216/21 75/215/21
f 79/245/3 76/248/3 75/246/3
f 79/245/3 80/247/3 76/248/3
f 80/247/16 73/250/16 76/248/16
f 80/247/16 77/249/16 73/250/16
f 80/681/5 78/706/5 77/682/5
f 80/681/5 79/705/5 78/706/5
f 82/760/1 83/759/1 84/797/1
f 82/760/1 84/797/1 81/798/1
f 85/738/26 82/713/26 81/737/26
f 85/738/26 86/714/26 82/713/26
f 86/714/21 83/657/21 82/713/21
f 86/714/21 87/658/21 83/657/21
f 87/373/3 84/378/3 83/374/3
f 87/373/3 88/377/3 84/378/3
f 88/317/5 86/338/5 85/318/5
f 88/317/5 87/337/5 86/338/5
f 88/377/16 81/398/16 84/378/16
f 88/377/16 85/397/16 81/398/16
usemtl FPS_gunmetal
f 101/464/24 103/463/24 90/485/24
f 101/464/24 90/485/24 89/486/24
f 101/841/31 102/805/31 103/821/31
f 103/463/23 102/456/23 106/455/23
f 103/463/23 106/455/23 105/462/23
f 104/610/22 106/611/22 111/571/22
f 104/610/22 111/571/22 110/570/22
f 104/610/32 105/625/32 106/611/32
f 105/462/1 90/485/1 103/463/1
f 105/462/1 92/484/1 90/485/1
f 107/842/21 102/805/21 101/841/21
f 107/842/21 109/806/21 102/805/21
f 107/842/26 101/841/26 89/877/26
f 107/842/26 89/877/26 95/878/26
f 107/842/33 108/822/33 109/806/33
f 109/20/20 108/17/20 112/16/20
f 109/20/20 112/16/20 111/19/20
f 110/15/19 112/16/19 99/8/19
f 110/15/19 99/8/19 98/7/19
f 110/570/34 111/571/34 112/554/34
f 111/571/2 102/612/2 109/572/2
f 111/571/2 106/611/2 102/612/2
f 137/654/14 139/653/14 144/686/14
f 137/654/14 144/686/14 143/687/14
f 137/654/27 138/641/27 139/653/27
f 140/40/15 139/46/15 138/41/15
f 140/40/15 142/45/15 139/46/15
f 140/748/28 141/734/28 142/754/28
f 141/39/25 140/40/25 153/30/25
f 141/39/25 153/30/25 152/29/25
f 142/652/4 144/686/4 139/653/4
f 142/652/4 148/685/4 144/686/4
f 143/56/18 145/55/18 156/63/18
f 143/56/18 156/63/18 155/64/18
f 143/687/29 144/686/29 145/694/29
f 145/55/17 144/52/17 148/51/17
f 145/55/17 148/51/17 147/54/17
f 146/733/16 142/754/16 141/734/16
f 146/733/16 148/753/16 142/754/16
f 146/733/3 141/734/3 152/724/3
f 146/733/3 152/724/3 158/723/3
f 146/733/30 147/747/30 148/753/30
f 147/54/5 156/63/5 145/55/5
f 147/54/5 160/62/5 156/63/5
f 149/32/24 138/41/24 137/42/24
f 149/32/24 151/31/24 138/41/24
f 149/847/31 150/807/31 151/825/31
f 151/31/23 150/28/23 154/27/23
f 151/31/23 154/27/23 153/30/23
f 152/632/22 154/633/22 159/594/22
f 152/632/22 159/594/22 158/593/22
f 152/632/32 153/640/32 154/633/32
f 153/30/1 138/41/1 151/31/1
f 153/30/1 140/40/1 138/41/1
f 155/848/21 150/807/21 149/847/21
f 155/848/21 157/808/21 150/807/21
f 155/848/26 137/881/26 143/882/26
f 155/848/26 149/847/26 137/881/26
f 155/848/33 156/826/33 157/808/33
f 157/68/20 156/63/20 160/62/20
f 157/68/20 160/62/20 159/67/20
f 158/593/34 159/594/34 160/579/34
f 158/61/19 147/54/19 146/53/19
f 158/61/19 160/62/19 147/54/19
f 159/594/2 150/634/2 157/595/2
f 159/594/2 154/633/2 150/634/2
f 185/708/14 187/689/14 192/688/14
f 185/708/14 192/688/14 191/707/14
f 185/708/6 186/699/6 187/689/6
f 188/297/43 189/301/43 190/302/43
f 188/80/15 187/89/15 186/90/15
f 188/80/15 190/79/15 187/89/15
f 189/74/25 188/80/25 201/81/25
f 189/74/25 201/81/25 200/75/25
f 190/684/4 192/688/4 187/689/4
f 190/684/4 196/683/4 192/688/4
f 191/144/18 193/130/18 204/129/18
f 191/144/18 204/129/18 203/143/18
f 191/707/8 192/688/8 193/698/8
f 193/130/17 192/131/17 196/122/17
f 193/130/17 196/122/17 195/121/17
f 194/306/16 190/302/16 189/301/16
f 194/306/16 196/307/16 190/302/16
f 194/306/3 189/301/3 200/300/3
f 194/306/3 200/300/3 206/305/3
f 194/306/44 195/308/44 196/307/44
f 195/121/5 204/129/5 193/130/5
f 195/121/5 208/120/5 204/129/5
f 197/103/24 186/90/24 185/102/24
f 197/103/24 199/91/24 186/90/24
f 197/340/10 198/339/10 199/342/10
f 199/91/23 198/92/23 202/82/23
f 199/91/23 202/82/23 201/81/23
f 200/646/22 202/655/22 207/656/22
f 200/646/22 207/656/22 206/647/22
f 200/646/45 201/650/45 202/655/45
f 201/81/1 186/90/1 199/91/1
f 201/81/1 188/80/1 186/90/1
f 203/313/12 204/309/12 205/312/12
f 203/313/21 198/339/21 197/340/21
f 203/313/21 205/312/21 198/339/21
f 203/313/26 185/341/26 191/314/26
f 203/313/26 197/340/26 185/341/26
f 205/128/20 204/129/20 208/120/20
f 205/128/20 208/120/20 207/119/20
f 206/109/19 195/121/19 194/110/19
f 206/109/19 208/120/19 195/121/19
f 206/647/46 207/656/46 208/651/46
f 207/656/2 198/669/2 205/670/2
f 207/656/2 202/655/2 198/669/2
f 233/336/14 235/322/14 240/321/14
f 233/336/14 240/321/14 239/335/14
f 233/336/35 234/328/35 235/322/35
f 236/343/36 237/353/36 238/354/36
f 236/418/15 235/425/15 234/426/15
f 236/418/15 238/417/15 235/425/15
f 237/415/25 236/418/25 249/419/25
f 237/415/25 249/419/25 248/416/25
f 238/316/4 240/321/4 235/322/4
f 238/316/4 244/315/4 240/321/4
f 239/335/37 240/321/37 241/327/37
f 239/454/18 241/451/18 252/450/18
f 239/454/18 252/450/18 251/453/18
f 241/451/17 240/452/17 244/447/17
f 241/451/17 244/447/17 243/446/17
f 242/382/16 238/354/16 237/353/16
f 242/382/16 244/383/16 238/354/16
f 242/382/3 237/353/3 248/352/3
f 242/382/3 248/352/3 254/381/3
f 242/382/48 243/384/48 244/383/48
f 243/446/5 252/450/5 241/451/5
f 243/446/5 256/445/5 252/450/5
f 245/434/24 234/426/24 233/433/24
f 245/434/24 247/427/24 234/426/24
f 245/440/39 246/439/39 247/448/39
f 247/427/23 246/428/23 250/420/23
f 247/427/23 250/420/23 249/419/23
f 248/269/22 250/292/22 255/293/22
f 248/269/22 255/293/22 254/270/22
f 248/269/40 249/282/40 250/292/40
f 249/419/1 234/426/1 247/427/1
f 249/419/1 236/418/1 234/426/1
f 251/389/21 246/439/21 245/440/21
f 251/389/21 253/388/21 246/439/21
f 251/389/26 233/441/26 239/390/26
f 251/389/26 245/440/26 233/441/26
f 251/389/41 252/387/41 253/388/41
f 253/449/20 252/450/20 256/445/20
f 253/449/20 256/445/20 255/444/20
f 254/270/51 255/293/51 256/283/51
f 254/437/19 243/446/19 242/438/19
f 254/437/19 256/445/19 243/446/19
f 255/293/2 246/295/2 253/296/2
f 255/293/2 250/292/2 246/295/2
f 281/1074/24 293/1034/24 295/1033/24
f 281/1074/24 295/1033/24 282/1073/24
f 281/828/6 282/820/6 283/812/6
f 284/1072/15 283/1114/15 282/1073/15
f 284/1072/15 286/1113/15 283/1114/15
f 284/541/43 285/533/43 286/550/43
f 286/764/4 288/811/4 283/812/4
f 286/764/4 292/763/4 288/811/4
f 287/827/14 281/828/14 283/812/14
f 287/827/14 283/812/14 288/811/14
f 287/827/8 288/811/8 289/819/8
f 289/1037/17 288/1010/17 292/1009/17
f 289/1037/17 292/1009/17 291/1036/17
f 290/1035/19 302/1075/19 304/1076/19
f 290/1035/19 304/1076/19 291/1036/19
f 290/532/16 286/550/16 285/533/16
f 290/532/16 292/549/16 286/550/16
f 290/532/3 285/533/3 296/527/3
f 290/532/3 296/527/3 302/526/3
f 290/532/9 291/540/9 292/549/9
f 291/1036/5 300/1077/5 289/1037/5
f 291/1036/5 304/1076/5 300/1077/5
f 293/945/60 294/883/60 295/909/60
f 295/1033/23 294/1008/23 298/1007/23
f 295/1033/23 298/1007/23 297/1032/23
f 296/1031/25 284/1072/25 297/1032/25
f 296/1031/25 285/1071/25 284/1072/25
f 296/555/11 297/559/11 298/565/11
f 296/555/22 298/565/22 303/566/22
f 296/555/22 303/566/22 302/556/22
f 297/1032/1 282/1073/1 295/1033/1
f 297/1032/1 284/1072/1 282/1073/1
f 299/1078/18 287/1038/18 289/1037/18
f 299/1078/18 289/1037/18 300/1077/18
f 299/946/12 300/910/12 301/884/12
f 299/946/21 294/883/21 293/945/21
f 299/946/21 301/884/21 294/883/21
f 299/946/26 281/977/26 287/978/26
f 299/946/26 293/945/26 281/977/26
f 301/1116/20 300/1077/20 304/1076/20
f 301/1116/20 304/1076/20 303/1115/20
f 302/556/13 303/566/13 304/560/13
f 303/566/2 294/598/2 301/599/2
f 303/566/2 298/565/2 294/598/2
f 305/142/14 307/134/14 312/133/14
f 305/142/14 312/133/14 311/141/14
f 305/142/6 306/136/6 307/134/6
f 308/1080/15 307/1118/15 306/1081/15
f 308/1080/15 310/1117/15 307/1118/15
f 308/285/7 309/279/7 310/289/7
f 309/1079/25 308/1080/25 321/1040/25
f 309/1079/25 321/1040/25 320/1039/25
f 310/112/4 312/133/4 307/134/4
f 310/112/4 316/111/4 312/133/4
f 311/1046/18 313/1045/18 324/1085/18
f 311/1046/18 324/1085/18 323/1086/18
f 311/141/8 312/133/8 313/135/8
f 313/1045/17 312/1014/17 316/1013/17
f 313/1045/17 316/1013/17 315/1044/17
f 314/278/16 310/289/16 309/279/16
f 314/278/16 316/288/16 310/289/16
f 314/278/3 309/279/3 320/272/3
f 314/278/3 320/272/3 326/271/3
f 314/278/9 315/284/9 316/288/9
f 315/1044/5 324/1085/5 313/1045/5
f 315/1044/5 328/1084/5 324/1085/5
f 317/1042/24 306/1081/24 305/1082/24
f 317/1042/24 319/1041/24 306/1081/24
f 317/947/10 318/887/10 319/911/10
f 319/1041/23 318/1012/23 322/1011/23
f 319/1041/23 322/1011/23 321/1040/23
f 320/765/11 321/773/11 322/785/11
f 320/765/22 322/785/22 327/786/22
f 320/765/22 327/786/22 326/766/22
f 321/1040/1 306/1081/1 319/1041/1
f 321/1040/1 308/1080/1 306/1081/1
f 323/948/12 324/912/12 325/888/12
f 323/948/21 318/887/21 317/947/21
f 323/948/21 325/888/21 318/887/21
f 323/948/26 305/979/26 311/980/26
f 323/948/26 317/947/26 305/979/26
f 325/1120/20 324/1085/20 328/1084/20
f 325/1120/20 328/1084/20 327/1119/20
f 326/1083/19 315/1044/19 314/1043/19
f 326/1083/19 328/1084/19 315/1044/19
f 326/766/13 327/786/13 328/774/13
f 327/786/2 318/829/2 325/830/2
f 327/786/2 322/785/2 318/829/2
f 329/986/14 331/944/14 336/943/14
f 329/986/14 336/943/14 335/985/14
f 329/986/61 330/972/61 331/944/61
f 332/1092/15 331/1134/15 330/1093/15
f 332/1092/15 334/1133/15 331/1134/15
f 332/96/62 333/94/62 334/98/62
f 333/1091/25 332/1092/25 345/1050/25
f 333/1091/25 345/1050/25 344/1049/25
f 334/838/4 336/943/4 331/944/4
f 334/838/4 340/837/4 336/943/4
f 335/1056/18 337/1055/18 348/1097/18
f 335/1056/18 348/1097/18 347/1098/18
f 335/985/47 336/943/47 337/971/47
f 337/1055/17 336/1022/17 340/1021/17
f 337/1055/17 340/1021/17 339/1054/17
f 338/93/16 334/98/16 333/94/16
f 338/93/16 340/97/16 334/98/16
f 338/93/3 333/94/3 344/88/3
f 338/93/3 344/88/3 350/87/3
f 338/93/48 339/95/48 340/97/48
f 339/1054/5 348/1097/5 337/1055/5
f 339/1054/5 352/1096/5 348/1097/5
f 341/1052/24 330/1093/24 329/1094/24
f 341/1052/24 343/1051/24 330/1093/24
f 341/949/49 342/889/49 343/913/49
f 343/1051/23 342/1020/23 346/1019/23
f 343/1051/23 346/1019/23 345/1050/23
f 344/789/22 346/799/22 351/800/22
f 344/789/22 351/800/22 350/790/22
f 344/789/50 345/795/50 346/799/50
f 345/1050/1 330/1093/1 343/1051/1
f 345/1050/1 332/1092/1 330/1093/1
f 347/950/21 342/889/21 341/949/21
f 347/950/21 349/890/21 342/889/21
f 347/950/26 329/981/26 335/982/26
f 347/950/26 341/949/26 329/981/26
f 347/950/63 348/914/63 349/890/63
f 349/1136/20 348/1097/20 352/1096/20
f 349/1136/20 352/1096/20 351/1135/20
f 350/1095/19 339/1054/19 338/1053/19
f 350/1095/19 352/1096/19 339/1054/19
f 350/790/51 351/800/51 352/796/51
f 351/800/2 342/859/2 349/860/2
f 351/800/2 346/799/2 342/859/2
f 353/756/14 355/750/14 360/749/14
f 353/756/14 360/749/14 359/755/14
f 353/756/6 354/752/6 355/750/6
f 356/287/7 357/281/7 358/291/7
f 356/988/15 355/1016/15 354/989/15
f 356/988/15 358/1015/15 355/1016/15
f 357/987/25 356/988/25 369/926/25
f 357/987/25 369/926/25 368/925/25
f 358/726/4 360/749/4 355/750/4
f 358/726/4 364/725/4 360/749/4
f 359/755/8 360/749/8 361/751/8
f 359/938/18 361/937/18 372/999/18
f 359/938/18 372/999/18 371/1000/18
f 361/937/17 360/902/17 364/901/17
f 361/937/17 364/901/17 363/936/17
f 362/280/16 358/291/16 357/281/16
f 362/280/16 364/290/16 358/291/16
f 362/280/3 357/281/3 368/274/3
f 362/280/3 368/274/3 374/273/3
f 362/280/9 363/286/9 364/290/9
f 363/936/5 372/999/5 361/937/5
f 363/936/5 376/998/5 372/999/5
f 365/928/24 354/989/24 353/990/24
f 365/928/24 367/927/24 354/989/24
f 365/951/10 366/891/10 367/915/10
f 367/927/23 366/894/23 370/893/23
f 367/927/23 370/893/23 369/926/23
f 368/346/11 369/348/11 370/350/11
f 368/346/22 370/350/22 375/351/22
f 368/346/22 375/351/22 374/347/22
f 369/926/1 354/989/1 367/927/1
f 369/926/1 356/988/1 354/989/1
f 371/952/12 372/916/12 373/892/12
f 371/952/21 366/891/21 365/951/21
f 371/952/21 373/892/21 366/891/21
f 371/952/26 353/983/26 359/984/26
f 371/952/26 365/951/26 353/983/26
f 373/1018/20 372/999/20 376/998/20
f 373/1018/20 376/998/20 375/1017/20
f 374/347/13 375/351/13 376/349/13
f 374/997/19 363/936/19 362/935/19
f 374/997/19 376/998/19 363/936/19
f 375/351/2 366/357/2 373/358/2
f 375/351/2 370/350/2 366/357/2
f 377/862/14 379/846/14 384/845/14
f 377/862/14 384/845/14 383/861/14
f 377/862/61 378/856/61 379/846/61
f 380/574/15 379/578/15 378/575/15
f 380/574/15 382/577/15 379/578/15
f 380/930/62 381/904/62 382/964/62
f 381/573/25 380/574/25 393/562/25
f 381/573/25 393/562/25 392/561/25
f 382/792/4 384/845/4 379/846/4
f 382/792/4 388/791/4 384/845/4
f 383/606/18 385/605/18 396/615/18
f 383/606/18 396/615/18 395/616/18
f 383/861/47 384/845/47 385/855/47
f 385/605/17 384/602/17 388/601/17
f 385/605/17 388/601/17 387/604/17
f 386/903/16 382/964/16 381/904/16
f 386/903/16 388/963/16 382/964/16
f 386/903/3 381/904/3 392/870/3
f 386/903/3 392/870/3 398/869/3
f 386/903/48 387/929/48 388/963/48
f 387/604/5 396/615/5 385/605/5
f 387/604/5 400/614/5 396/615/5
f 389/564/24 378/575/24 377/576/24
f 389/564/24 391/563/24 378/575/24
f 389/953/49 390/895/49 391/917/49
f 391/563/23 390/558/23 394/557/23
f 391/563/23 394/557/23 393/562/23
f 392/359/22 394/363/22 399/364/22
f 392/359/22 399/364/22 398/360/22
f 392/359/50 393/361/50 394/363/50
f 393/562/1 378/575/1 391/563/1
f 393/562/1 380/574/1 378/575/1
f 395/954/21 390/895/21 389/953/21
f 395/954/21 397/896/21 390/895/21
f 395/954/26 377/991/26 383/992/26
f 395/954/26 389/953/26 377/991/26
f 395/954/63 396/918/63 397/896/63
f 397/619/20 396/615/20 400/614/20
f 397/619/20 400/614/20 399/618/20
f 398/360/51 399/364/51 400/362/51
f 398/613/19 387/604/19 386/603/19
f 398/613/19 400/614/19 387/604/19
f 399/364/2 390/365/2 397/366/2
f 399/364/2 394/363/2 390/365/2
f 401/396/14 403/392/14 408/391/14
f 401/396/14 408/391/14 407/395/14
f 401/396/6 402/394/6 403/392/6
f 404/330/15 403/334/15 402/331/15
f 404/330/15 406/333/15 403/334/15
f 404/932/7 405/906/7 406/966/7
f 405/329/25 404/330/25 417/324/25
f 405/329/25 417/324/25 416/323/25
f 406/386/4 408/391/4 403/392/4
f 406/386/4 412/385/4 408/391/4
f 407/1030/18 409/1029/18 420/1069/18
f 407/1030/18 420/1069/18 419/1070/18
f 407/395/8 408/391/8 409/393/8
f 409/1029/17 408/1006/17 412/1005/17
f 409/1029/17 412/1005/17 411/1028/17
f 410/905/16 406/966/16 405/906/16
f 410/905/16 412/965/16 406/966/16
f 410/905/3 405/906/3 416/872/3
f 410/905/3 416/872/3 422/871/3
f 410/905/9 411/931/9 412/965/9
f 411/1028/5 420/1069/5 409/1029/5
f 411/1028/5 424/1068/5 420/1069/5
f 413/1003/10 414/961/10 415/975/10
f 413/326/24 402/331/24 401/332/24
f 413/326/24 415/325/24 402/331/24
f 415/325/23 414/320/23 418/319/23
f 415/325/23 418/319/23 417/324/23
f 416/369/11 417/371/11 418/375/11
f 416/369/22 418/375/22 423/376/22
f 416/369/22 423/376/22 422/370/22
f 417/324/1 402/331/1 415/325/1
f 417/324/1 404/330/1 402/331/1
f 419/1004/12 420/976/12 421/962/12
f 419/1004/21 414/961/21 413/1003/21
f 419/1004/21 421/962/21 414/961/21
f 419/1004/26 401/1025/26 407/1026/26
f 419/1004/26 413/1003/26 401/1025/26
f 421/1112/20 420/1069/20 424/1068/20
f 421/1112/20 424/1068/20 423/1111/20
f 422/1067/19 411/1028/19 410/1027/19
f 422/1067/19 424/1068/19 411/1028/19
f 422/370/13 423/376/13 424/372/13
f 423/376/2 414/379/2 421/380/2
f 423/376/2 418/375/2 414/379/2
f 425/676/14 427/672/14 432/671/14
f 425/676/14 432/671/14 431/675/14
f 425/676/61 426/674/61 427/672/61
f 428/1126/15 427/1150/15 426/1127/15
f 428/1126/15 430/1149/15 427/1150/15
f 428/934/62 429/908/62 430/968/62
f 429/1125/25 428/1126/25 441/1064/25
f 429/1125/25 441/1064/25 440/1063/25
f 430/649/4 432/671/4 427/672/4
f 430/649/4 436/648/4 432/671/4
f 431/1102/18 433/1101/18 444/1139/18
f 431/1102/18 444/1139/18 443/1140/18
f 431/675/47 432/671/47 433/673/47
f 433/1101/17 432/1058/17 436/1057/17
f 433/1101/17 436/1057/17 435/1100/17
f 434/907/16 430/968/16 429/908/16
f 434/907/16 436/967/16 430/968/16
f 434/907/3 429/908/3 440/874/3
f 434/907/3 440/874/3 446/873/3
f 434/907/48 435/933/48 436/967/48
f 435/1100/5 444/1139/5 433/1101/5
f 435/1100/5 448/1138/5 444/1139/5
f 437/1066/24 426/1127/24 425/1128/24
f 437/1066/24 439/1065/24 426/1127/24
f 437/955/49 438/897/49 439/919/49
f 439/1065/23 438/1048/23 442/1047/23
f 439/1065/23 442/1047/23 441/1064/23
f 440/401/22 442/405/22 447/406/22
f 440/401/22 447/406/22 446/402/22
f 440/401/50 441/403/50 442/405/50
f 441/1064/1 426/1127/1 439/1065/1
f 441/1064/1 428/1126/1 426/1127/1
f 443/956/21 438/897/21 437/955/21
f 443/956/21 445/898/21 438/897/21
f 443/956/26 425/993/26 431/994/26
f 443/956/26 437/955/26 425/993/26
f 443/956/63 444/920/63 445/898/63
f 445/1160/20 444/1139/20 448/1138/20
f 445/1160/20 448/1138/20 447/1159/20
f 446/1137/19 435/1100/19 434/1099/19
f 446/1137/19 448/1138/19 435/1100/19
f 446/402/51 447/406/51 448/404/51
f 447/406/2 438/413/2 445/414/2
f 447/406/2 442/405/2 438/413/2
f 449/478/14 451/470/14 456/469/14
f 449/478/14 456/469/14 455/477/14
f 449/478/6 450/476/6 451/470/6
f 452/1142/15 451/1162/15 450/1143/15
f 452/1142/15 454/1161/15 451/1162/15
f 452/537/7 453/529/7 454/546/7
f 453/1141/25 452/1142/25 465/1104/25
f 453/1141/25 465/1104/25 464/1103/25
f 454/460/4 456/469/4 451/470/4
f 454/460/4 460/459/4 456/469/4
f 455/1110/18 457/1109/18 468/1147/18
f 455/1110/18 468/1147/18 467/1148/18
f 455/477/8 456/469/8 457/475/8
f 457/1109/17 456/1062/17 460/1061/17
f 457/1109/17 460/1061/17 459/1108/17
f 458/528/16 454/546/16 453/529/16
f 458/528/16 460/545/16 454/546/16
f 458/528/3 453/529/3 464/523/3
f 458/528/3 464/523/3 470/522/3
f 458/528/9 459/536/9 460/545/9
f 459/1108/5 468/1147/5 457/1109/5
f 459/1108/5 472/1146/5 468/1147/5
f 461/1106/24 450/1143/24 449/1144/24
f 461/1106/24 463/1105/24 450/1143/24
f 461/957/10 462/899/10 463/921/10
f 463/1105/23 462/1060/23 466/1059/23
f 463/1105/23 466/1059/23 465/1104/23
f 464/767/11 465/775/11 466/787/11
f 464/767/22 466/787/22 471/788/22
f 464/767/22 471/788/22 470/768/22
f 465/1104/1 450/1143/1 463/1105/1
f 465/1104/1 452/1142/1 450/1143/1
f 467/958/12 468/922/12 469/900/12
f 467/958/21 462/899/21 461/957/21
f 467/958/21 469/900/21 462/899/21
f 467/958/26 449/995/26 455/996/26
f 467/958/26 461/957/26 449/995/26
f 469/1164/20 468/1147/20 472/1146/20
f 469/1164/20 472/1146/20 471/1163/20
f 470/1145/19 459/1108/19 458/1107/19
f 470/1145/19 472/1146/19 459/1108/19
f 470/768/13 471/788/13 472/776/13
f 471/788/2 462/831/2 469/832/2
f 471/788/2 466/787/2 462/831/2
f 473/1154/24 485/1124/24 487/1123/24
f 473/1154/24 487/1123/24 474/1153/24
f 473/512/14 475/504/14 480/503/14
f 473/512/14 480/503/14 479/511/14
f 473/512/6 474/506/6 475/504/6
f 476/1152/15 475/1166/15 474/1153/15
f 476/1152/15 478/1165/15 475/1166/15
f 476/539/43 477/531/43 478/548/43
f 477/531/16 482/530/16 484/547/16
f 477/531/16 484/547/16 478/548/16
f 478/492/4 480/503/4 475/504/4
f 478/492/4 484/491/4 480/503/4
f 479/511/8 480/503/8 481/505/8
f 481/1131/17 480/1090/17 484/1089/17
f 481/1131/17 484/1089/17 483/1130/17
f 482/1129/19 494/1155/19 496/1156/19
f 482/1129/19 496/1156/19 483/1130/19
f 482/530/3 477/531/3 488/525/3
f 482/530/3 488/525/3 494/524/3
f 482/530/9 483/538/9 484/547/9
f 483/1130/5 492/1157/5 481/1131/5
f 483/1130/5 496/1156/5 492/1157/5
f 485/1001/21 491/1002/21 493/960/21
f 485/1001/21 493/960/21 486/959/21
f 485/1001/60 486/959/60 487/973/60
f 487/1123/23 486/1088/23 490/1087/23
f 487/1123/23 490/1087/23 489/1122/23
f 488/1121/25 476/1152/25 489/1122/25
f 488/1121/25 477/1151/25 476/1152/25
f 488/421/11 489/423/11 490/429/11
f 488/421/22 490/429/22 495/430/22
f 488/421/22 495/430/22 494/422/22
f 489/1122/1 474/1153/1 487/1123/1
f 489/1122/1 476/1152/1 474/1153/1
f 491/1002/12 492/974/12 493/960/12
f 491/1002/26 473/1023/26 479/1024/26
f 491/1002/26 485/1001/26 473/1023/26
f 491/1158/18 479/1132/18 481/1131/18
f 491/1158/18 481/1131/18 492/1157/18
f 493/1168/20 492/1157/20 496/1156/20
f 493/1168/20 496/1156/20 495/1167/20
f 494/422/13 495/430/13 496/424/13
f 495/430/2 486/435/2 493/436/2
f 495/430/2 490/429/2 486/435/2
f 89/569/14 91/568/14 96/608/14
f 89/569/14 96/608/14 95/609/14
f 89/569/27 90/553/27 91/568/27
f 92/484/15 91/490/15 90/485/15
f 92/484/15 94/489/15 91/490/15
f 92/818/28 93/802/28 94/834/28
f 93/483/25 105/462/25 104/461/25
f 93/483/25 92/484/25 105/462/25
f 94/567/4 100/607/4 96/608/4
f 94/567/4 96/608/4 91/568/4
f 95/10/18 108/17/18 107/18/18
f 95/10/18 97/9/18 108/17/18
f 95/609/29 96/608/29 97/624/29
f 97/9/17 100/3/17 99/8/17
f 97/9/17 96/4/17 100/3/17
f 98/801/16 100/833/16 94/834/16
f 98/801/16 94/834/16 93/802/16
f 98/801/3 104/780/3 110/779/3
f 98/801/3 93/802/3 104/780/3
f 98/801/30 99/817/30 100/833/30
f 99/8/5 108/17/5 97/9/5
f 99/8/5 112/16/5 108/17/5
usemtl FPS_signal
f 113/622/14 115/621/14 120/627/14
f 113/622/14 120/627/14 119/628/14
f 113/622/35 114/617/35 115/621/35
f 116/217/36 117/219/36 118/220/36
f 116/814/15 115/865/15 114/866/15
f 116/814/15 118/813/15 115/865/15
f 117/809/25 116/814/25 129/815/25
f 117/809/25 129/815/25 128/810/25
f 118/620/4 120/627/4 115/621/4
f 118/620/4 124/626/4 120/627/4
f 119/628/37 120/627/37 121/630/37
f 119/970/18 121/941/18 132/940/18
f 119/970/18 132/940/18 131/969/18
f 121/941/17 120/942/17 124/852/17
f 121/941/17 124/852/17 123/851/17
f 122/222/16 118/220/16 117/219/16
f 122/222/16 124/223/16 118/220/16
f 122/222/3 117/219/3 128/218/3
f 122/222/3 128/218/3 134/221/3
f 122/222/38 123/224/38 124/223/38
f 123/851/5 132/940/5 121/941/5
f 123/851/5 136/850/5 132/940/5
f 125/202/39 126/201/39 127/204/39
f 125/876/24 114/866/24 113/875/24
f 125/876/24 127/867/24 114/866/24
f 127/867/23 126/868/23 130/816/23
f 127/867/23 130/816/23 129/815/23
f 128/589/22 130/590/22 135/584/22
f 128/589/22 135/584/22 134/583/22
f 128/589/40 129/596/40 130/590/40
f 129/815/1 114/866/1 127/867/1
f 129/815/1 116/814/1 114/866/1
f 131/197/21 126/201/21 125/202/21
f 131/197/21 133/196/21 126/201/21
f 131/197/26 113/203/26 119/198/26
f 131/197/26 125/202/26 113/203/26
f 131/197/41 132/195/41 133/196/41
f 133/939/20 132/940/20 136/850/20
f 133/939/20 136/850/20 135/849/20
f 134/583/42 135/584/42 136/582/42
f 134/839/19 123/851/19 122/840/19
f 134/839/19 136/850/19 123/851/19
f 135/584/2 126/591/2 133/585/2
f 135/584/2 130/590/2 126/591/2
f 161/693/14 163/692/14 168/696/14
f 161/693/14 168/696/14 167/697/14
f 161/693/35 162/690/35 163/692/35
f 164/153/15 163/163/15 162/164/15
f 164/153/15 166/152/15 163/163/15
f 164/225/36 165/227/36 166/228/36
f 165/150/25 164/153/25 177/154/25
f 165/150/25 177/154/25 176/151/25
f 166/691/4 168/696/4 163/692/4
f 166/691/4 172/695/4 168/696/4
f 167/182/18 169/179/18 180/178/18
f 167/182/18 180/178/18 179/181/18
f 167/697/37 168/696/37 169/702/37
f 169/179/17 168/180/17 172/174/17
f 169/179/17 172/174/17 171/173/17
f 170/233/16 166/228/16 165/227/16
f 170/233/16 172/234/16 166/228/16
f 170/233/3 165/227/3 176/226/3
f 170/233/3 176/226/3 182/232/3
f 170/233/38 171/235/38 172/234/38
f 171/173/5 180/178/5 169/179/5
f 171/173/5 184/172/5 180/178/5
f 173/168/24 162/164/24 161/167/24
f 173/168/24 175/165/24 162/164/24
f 173/190/39 174/189/39 175/192/39
f 175/165/23 174/166/23 178/155/23
f 175/165/23 178/155/23 177/154/23
f 176/209/22 178/210/22 183/207/22
f 176/209/22 183/207/22 182/206/22
f 176/209/40 177/212/40 178/210/40
f 177/154/1 162/164/1 175/165/1
f 177/154/1 164/153/1 162/164/1
f 179/187/21 174/189/21 173/190/21
f 179/187/21 181/186/21 174/189/21
f 179/187/26 161/191/26 167/188/26
f 179/187/26 173/190/26 161/191/26
f 179/187/41 180/185/41 181/186/41
f 181/177/20 180/178/20 184/172/20
f 181/177/20 184/172/20 183/171/20
f 182/169/19 171/173/19 170/170/19
f 182/169/19 184/172/19 171/173/19
f 182/206/42 183/207/42 184/205/42
f 183/207/2 174/211/2 181/208/2
f 183/207/2 178/210/2 174/211/2
usemtl FPS_gunmetal_paint
f 209/588/14 211/586/14 216/592/14
f 209/588/14 216/592/14 215/597/14
f 209/588/35 210/581/35 211/586/35
f 212/114/28 213/123/28 214/125/28
f 212/255/15 211/159/15 210/158/15
f 212/255/15 214/256/15 211/159/15
f 213/258/25 212/255/25 225/254/25
f 213/258/25 225/254/25 224/257/25
f 214/580/4 216/592/4 211/586/4
f 214/580/4 220/587/4 216/592/4
f 215/261/18 217/264/18 228/265/18
f 215/261/18 228/265/18 227/262/18
f 215/597/47 216/592/47 217/600/47
f 217/264/17 216/263/17 220/407/17
f 217/264/17 220/407/17 219/408/17
f 218/126/16 214/125/16 213/123/16
f 218/126/16 220/127/16 214/125/16
f 218/126/3 213/123/3 224/113/3
f 218/126/3 224/113/3 230/124/3
f 218/126/48 219/132/48 220/127/48
f 219/408/5 228/265/5 217/264/5
f 219/408/5 232/409/5 228/265/5
f 221/145/24 210/158/24 209/146/24
f 221/145/24 223/157/24 210/158/24
f 221/544/49 222/542/49 223/551/49
f 223/157/23 222/156/23 226/253/23
f 223/157/23 226/253/23 225/254/23
f 224/635/22 226/637/22 231/631/22
f 224/635/22 231/631/22 230/629/22
f 224/635/50 225/638/50 226/637/50
f 225/254/1 210/158/1 223/157/1
f 225/254/1 212/255/1 210/158/1
f 227/535/21 222/542/21 221/544/21
f 227/535/21 229/534/21 222/542/21
f 227/535/26 209/552/26 215/543/26
f 227/535/26 221/544/26 209/552/26
f 227/535/41 228/521/41 229/534/41
f 229/266/20 228/265/20 232/409/20
f 229/266/20 232/409/20 231/410/20
f 230/412/19 219/408/19 218/411/19
f 230/412/19 232/409/19 219/408/19
f 230/629/42 231/631/42 232/623/42
f 231/631/2 222/639/2 229/636/2
f 231/631/2 226/637/2 222/639/2
