# Blender 4.0.2
# www.blender.org
mtllib weapon_rack_lod1.mtl
o weapon_rack_lod1
v 0.770000 0.000000 -0.210000
v 0.785510 0.025245 -0.231962
v 0.776613 0.126935 -0.228548
v 0.800000 0.110000 -0.210000
v 0.788462 0.016154 0.223846
v 0.770000 0.140000 0.210000
v 0.785510 0.114755 0.231962
v -0.800000 0.030000 -0.210000
v -0.776613 0.013065 -0.228548
v -0.770000 0.140000 -0.210000
v -0.785510 0.114755 -0.231962
v -0.770000 0.000000 0.210000
v -0.785510 0.025245 0.231962
v -0.800000 0.110000 0.210000
v -0.776613 0.126935 0.228548
v 0.760000 0.030000 -0.245000
v 0.700000 0.030000 -0.245000
v 0.620000 0.110000 -0.245000
v 0.680000 0.110000 -0.245000
v 0.760000 0.030000 0.245000
v 0.700000 0.030000 0.245000
v 0.620000 0.110000 0.245000
v 0.680000 0.110000 0.245000
v 0.580000 0.030000 -0.245000
v 0.520000 0.030000 -0.245000
v 0.440000 0.110000 -0.245000
v 0.500000 0.110000 -0.245000
v 0.580000 0.030000 0.245000
v 0.520000 0.030000 0.245000
v 0.440000 0.110000 0.245000
v 0.500000 0.110000 0.245000
v 0.400000 0.030000 -0.245000
v 0.340000 0.030000 -0.245000
v 0.260000 0.110000 -0.245000
v 0.320000 0.110000 -0.245000
v 0.400000 0.030000 0.245000
v 0.340000 0.030000 0.245000
v 0.260000 0.110000 0.245000
v 0.320000 0.110000 0.245000
v 0.220000 0.030000 -0.245000
v 0.160000 0.030000 -0.245000
v 0.080000 0.110000 -0.245000
v 0.140000 0.110000 -0.245000
v 0.220000 0.030000 0.245000
v 0.160000 0.030000 0.245000
v 0.080000 0.110000 0.245000
v 0.140000 0.110000 0.245000
v 0.040000 0.030000 -0.245000
v -0.020000 0.030000 -0.245000
v -0.100000 0.110000 -0.245000
v -0.040000 0.110000 -0.245000
v 0.040000 0.030000 0.245000
v -0.020000 0.030000 0.245000
v -0.100000 0.110000 0.245000
v -0.040000 0.110000 0.245000
v -0.140000 0.030000 -0.245000
v -0.200000 0.030000 -0.245000
v -0.280000 0.110000 -0.245000
v -0.220000 0.110000 -0.245000
v -0.140000 0.030000 0.245000
v -0.200000 0.030000 0.245000
v -0.280000 0.110000 0.245000
v -0.220000 0.110000 0.245000
v -0.320000 0.030000 -0.245000
v -0.380000 0.030000 -0.245000
v -0.460000 0.110000 -0.245000
v -0.400000 0.110000 -0.245000
v -0.320000 0.030000 0.245000
v -0.380000 0.030000 0.245000
v -0.460000 0.110000 0.245000
v -0.400000 0.110000 0.245000
v -0.500000 0.030000 -0.245000
v -0.560000 0.030000 -0.245000
v -0.640000 0.110000 -0.245000
v -0.580000 0.110000 -0.245000
v -0.500000 0.030000 0.245000
v -0.560000 0.030000 0.245000
v -0.640000 0.110000 0.245000
v -0.580000 0.110000 0.245000
v 0.788333 0.148333 -0.041667
v 0.792308 1.149231 -0.039231
v 0.792308 0.150769 0.039231
v 0.788333 1.151667 0.041667
v 0.727692 0.150769 -0.039231
v 0.731667 1.151667 -0.041667
v 0.731667 0.148333 0.041667
v 0.727692 1.149231 0.039231
v 0.784375 1.025625 0.059091
v 0.784375 1.074375 0.060909
v 0.735625 1.074375 0.059091
v 0.735625 1.025625 0.060909
v -0.731667 0.148333 -0.041667
v -0.727692 1.149231 -0.039231
v -0.727692 0.150769 0.039231
v -0.731667 1.151667 0.041667
v -0.792308 0.150769 -0.039231
v -0.788333 1.151667 -0.041667
v -0.788333 0.148333 0.041667
v -0.792308 1.149231 0.039231
v -0.735625 1.025625 0.059091
v -0.735625 1.074375 0.060909
v -0.784375 1.074375 0.059091
v -0.784375 1.025625 0.060909
v 0.780000 1.140000 -0.040000
v 0.779919 1.168421 -0.063158
v 0.799384 1.182985 -0.046922
v 0.799384 1.157015 0.046922
v 0.780000 1.200000 0.040000
v 0.779919 1.171579 0.063158
v -0.799384 1.157015 -0.046922
v -0.780000 1.200000 -0.040000
v -0.779919 1.171579 -0.063158
v -0.780000 1.140000 0.040000
v -0.779919 1.168421 0.063158
v -0.799384 1.182985 0.046922
v 0.719588 0.207058 -0.088049
v 0.713461 1.059692 -0.086493
v 0.713461 0.200308 -0.073507
v 0.719588 1.052942 -0.071951
v -0.713461 0.200308 -0.086493
v -0.719588 1.052942 -0.088049
v -0.719588 0.207058 -0.071951
v -0.713461 1.059692 -0.073507
v 0.705066 0.152073 -0.108013
v 0.718193 0.175224 -0.095967
v 0.718193 0.154776 0.135967
v 0.705066 0.177927 0.148013
v -0.718193 0.154776 -0.095967
v -0.705066 0.177927 -0.108013
v -0.705066 0.152073 0.148013
v -0.718193 0.175224 0.135967
v 0.714494 0.880000 -0.014494
v 0.699838 0.911316 0.016842
v 0.699838 0.848684 0.023158
v 0.714494 0.880000 0.054494
v -0.699838 0.848684 0.016842
v -0.714494 0.880000 -0.014494
v -0.714494 0.880000 0.054494
v -0.699838 0.911316 0.023158
v 0.650333 0.893333 -0.016667
v 0.651923 0.965692 -0.015692
v 0.651923 0.894308 0.075692
v 0.650333 0.966667 0.076667
v 0.628077 0.894308 -0.015692
v 0.629667 0.966667 -0.016667
v 0.629667 0.893333 0.076667
v 0.628077 0.965692 0.075692
v 0.490333 0.893333 -0.016667
v 0.491923 0.965692 -0.015692
v 0.491923 0.894308 0.075692
v 0.490333 0.966667 0.076667
v 0.468077 0.894308 -0.015692
v 0.469667 0.966667 -0.016667
v 0.469667 0.893333 0.076667
v 0.468077 0.965692 0.075692
v 0.330333 0.893333 -0.016667
v 0.331923 0.965692 -0.015692
v 0.331923 0.894308 0.075692
v 0.330333 0.966667 0.076667
v 0.308077 0.894308 -0.015692
v 0.309667 0.966667 -0.016667
v 0.309667 0.893333 0.076667
v 0.308077 0.965692 0.075692
v 0.170333 0.893333 -0.016667
v 0.171923 0.965692 -0.015692
v 0.171923 0.894308 0.075692
v 0.170333 0.966667 0.076667
v 0.148077 0.894308 -0.015692
v 0.149667 0.966667 -0.016667
v 0.149667 0.893333 0.076667
v 0.148077 0.965692 0.075692
v 0.010333 0.893333 -0.016667
v 0.011923 0.965692 -0.015692
v 0.011923 0.894308 0.075692
v 0.010333 0.966667 0.076667
v -0.011923 0.894308 -0.015692
v -0.010333 0.966667 -0.016667
v -0.010333 0.893333 0.076667
v -0.011923 0.965692 0.075692
v -0.149667 0.893333 -0.016667
v -0.148077 0.965692 -0.015692
v -0.148077 0.894308 0.075692
v -0.149667 0.966667 0.076667
v -0.171923 0.894308 -0.015692
v -0.170333 0.966667 -0.016667
v -0.170333 0.893333 0.076667
v -0.171923 0.965692 0.075692
v -0.309667 0.893333 -0.016667
v -0.308077 0.965692 -0.015692
v -0.308077 0.894308 0.075692
v -0.309667 0.966667 0.076667
v -0.331923 0.894308 -0.015692
v -0.330333 0.966667 -0.016667
v -0.330333 0.893333 0.076667
v -0.331923 0.965692 0.075692
v -0.469667 0.893333 -0.016667
v -0.468077 0.965692 -0.015692
v -0.468077 0.894308 0.075692
v -0.469667 0.966667 0.076667
v -0.491923 0.894308 -0.015692
v -0.490333 0.966667 -0.016667
v -0.490333 0.893333 0.076667
v -0.491923 0.965692 0.075692
v -0.629667 0.893333 -0.016667
v -0.628077 0.965692 -0.015692
v -0.628077 0.894308 0.075692
v -0.629667 0.966667 0.076667
v -0.651923 0.894308 -0.015692
v -0.650333 0.966667 -0.016667
v -0.650333 0.893333 0.076667
v -0.651923 0.965692 0.075692
vn 0.0001 -0.6563 0.7545
vn 0.0035 0.6576 0.7534
vn -0.6553 0.0825 0.7509
vn 0.0035 -0.6576 -0.7534
vn -0.0035 0.6576 -0.7534
vn 0.7457 -0.4196 -0.5176
vn 0.7457 0.4196 0.5176
vn -0.7457 0.4196 -0.5176
vn -0.7457 -0.4196 0.5176
vn -0.0038 -0.9076 0.4197
vn 0.0038 0.9076 0.4197
vn -0.9227 0.0073 0.3854
vn 0.0038 -0.9076 -0.4197
vn -0.0038 0.9076 -0.4197
vn -0.9865 0.1607 -0.0306
vn 0.0081 0.9995 -0.0297
vn 0.9991 0.0272 0.0325
vn 0.0053 0.0331 0.9994
vn 0.8432 0.5371 0.0219
vn 0.8456 -0.5335 -0.0161
vn 0.6553 0.0825 -0.7509
vn -0.8432 -0.5371 0.0219
vn -0.0024 0.0333 -0.9994
vn -0.8432 0.5371 -0.0219
vn -0.0081 -0.9995 -0.0297
vn -0.6553 -0.0825 -0.7509
vn -0.0000 -0.0000 -1.0000
vn -0.0000 -0.0000 1.0000
vn -0.0000 -1.0000 -0.0000
vn -0.7071 -0.7071 -0.0000
vn -0.0000 1.0000 -0.0000
vn 0.7071 0.7071 -0.0000
vn -0.0400 0.0026 -0.9992
vn -0.9988 0.0038 -0.0490
vn 0.0412 0.9988 -0.0280
vn 0.9988 0.0038 0.0490
vn 0.0400 0.0026 0.9992
vn -0.0412 -0.9988 -0.0280
vn -0.0372 0.0372 -0.9986
vn 0.0372 0.0372 0.9986
vn 0.0097 0.9817 -0.1900
vn 0.0013 -0.6317 0.7752
vn 0.8981 -0.4239 -0.1173
vn 0.8981 0.4239 0.1173
vn -0.0013 0.6317 0.7752
vn -0.0013 -0.6317 -0.7752
vn -0.8981 -0.4239 0.1173
vn -0.8981 0.4239 -0.1173
vn 0.0013 0.6317 -0.7752
vn -0.0097 -0.9817 -0.1900
vn -0.0011 0.0018 -1.0000
vn 0.0011 0.0018 1.0000
vn 0.0020 0.9999 -0.0110
vn 0.9227 0.0073 -0.3854
vn 0.9227 -0.0073 0.3854
vn -0.9227 -0.0073 -0.3854
vn -0.0020 -0.9999 -0.0110
vn 0.8783 -0.4762 -0.0420
vn 0.8783 0.4762 0.0420
vn 0.0084 -0.4578 0.8890
vn -0.0084 0.4578 0.8890
vn -0.8783 -0.4762 0.0420
vn -0.8783 0.4762 -0.0420
vn -0.0084 -0.4578 -0.8890
vn 0.0084 0.4578 -0.8890
vn -0.0000 -0.7073 0.7069
vn 0.9057 -0.4239 -0.0000
vn 0.9057 0.4239 -0.0000
vn -0.0000 0.7073 0.7069
vn -0.0000 -0.7073 -0.7069
vn -0.9057 -0.4239 -0.0000
vn -0.9057 0.4239 -0.0000
vn -0.0000 0.7073 -0.7069
vn -0.0431 0.0144 -0.9990
vn -0.9996 0.0217 -0.0170
vn 0.0432 0.9990 0.0113
vn 0.9996 0.0217 0.0170
vn 0.0431 0.0144 0.9990
vn -0.0432 -0.9990 0.0113
vn -0.9865 -0.1607 0.0306
vn -0.0081 0.9995 0.0297
vn 0.9861 -0.1661 -0.0097
vn -0.0028 -0.0821 0.9966
vn 0.5942 0.8042 -0.0150
vn -0.5942 -0.8042 -0.0150
vn 0.0024 -0.0333 -0.9994
vn -0.5942 0.8042 0.0150
vn 0.0100 -0.9993 0.0368
vn 0.0400 -0.0026 -0.9992
vn -0.9988 -0.0038 0.0490
vn -0.0412 0.9988 0.0280
vn 0.9988 -0.0038 -0.0490
vn -0.0400 -0.0026 0.9992
vn 0.0412 -0.9988 0.0280
vn 0.0372 -0.0372 -0.9986
vn -0.0372 -0.0372 0.9986
vn -0.0097 0.9817 0.1900
vn 0.0050 -0.7414 0.6711
vn -0.0050 0.7414 0.6711
vn -0.0050 -0.7414 -0.6711
vn 0.0050 0.7414 -0.6711
vn 0.0097 -0.9817 0.1900
vn 0.0011 -0.0018 -1.0000
vn -0.0011 -0.0018 1.0000
vn -0.0020 0.9999 0.0110
vn 0.0020 -0.9999 0.0110
vn -0.0029 -0.7694 0.6388
vn 0.0029 0.7694 0.6388
vn 0.0029 -0.7694 -0.6388
vn -0.0029 0.7694 -0.6388
vn 0.0431 -0.0144 -0.9990
vn -0.9996 -0.0217 0.0170
vn -0.0432 0.9990 -0.0113
vn 0.9996 -0.0217 -0.0170
vn -0.0431 -0.0144 0.9990
vn 0.0432 -0.9990 -0.0113
vt 0.00000 0.48812
vt 0.00000 0.83634
vt 0.00000 0.98869
vt 0.00398 0.82114
vt 0.00457 0.51242
vt 0.00487 0.00933
vt 0.00924 0.00000
vt 0.00924 0.49178
vt 0.02007 0.82137
vt 0.02066 0.51265
vt 0.03389 0.00567
vt 0.03389 0.49745
vt 0.03485 0.83634
vt 0.03485 0.98869
vt 0.03826 0.48812
vt 0.03941 0.82114
vt 0.04000 0.51242
vt 0.04313 0.00933
vt 0.04792 0.83634
vt 0.04792 0.98869
vt 0.05392 0.48812
vt 0.05551 0.82137
vt 0.05610 0.51265
vt 0.05871 0.83634
vt 0.05871 0.98869
vt 0.05879 0.00933
vt 0.06316 0.00000
vt 0.06316 0.49178
vt 0.07485 0.82114
vt 0.07544 0.51242
vt 0.08780 0.00567
vt 0.09063 0.49142
vt 0.09094 0.82137
vt 0.09153 0.51265
vt 0.09357 0.83634
vt 0.09357 0.98869
vt 0.09705 0.00933
vt 0.10664 0.83634
vt 0.10664 0.98869
vt 0.10783 0.00622
vt 0.10783 0.49123
vt 0.10938 0.82271
vt 0.11659 0.49123
vt 0.11756 0.00622
vt 0.11765 0.81611
vt 0.11787 0.83579
vt 0.11787 0.87097
vt 0.11787 0.89505
vt 0.11787 0.93022
vt 0.11787 0.95679
vt 0.11787 0.98290
vt 0.12252 0.95579
vt 0.12275 0.98375
vt 0.12632 0.00622
vt 0.12632 0.49123
vt 0.12786 0.82271
vt 0.13094 0.84898
vt 0.13094 0.88416
vt 0.13094 0.90824
vt 0.13094 0.94341
vt 0.13711 0.00622
vt 0.13711 0.49123
vt 0.13737 0.95680
vt 0.13737 0.98292
vt 0.14173 0.84900
vt 0.14173 0.88418
vt 0.14173 0.90825
vt 0.14173 0.94343
vt 0.14586 0.49123
vt 0.14683 0.00622
vt 0.15297 0.95595
vt 0.15321 0.98391
vt 0.15480 0.83581
vt 0.15480 0.87099
vt 0.15480 0.89506
vt 0.15480 0.93024
vt 0.15559 0.00622
vt 0.15559 0.49123
vt 0.16638 0.44459
vt 0.16638 0.82122
vt 0.16638 0.97357
vt 0.16732 0.00311
vt 0.16783 0.98530
vt 0.16788 0.99933
vt 0.16946 0.00000
vt 0.16946 0.44653
vt 0.17075 0.80062
vt 0.17562 0.45859
vt 0.17562 0.81034
vt 0.18027 0.98512
vt 0.18033 0.99915
vt 0.19402 0.98530
vt 0.19407 0.99933
vt 0.20123 0.82122
vt 0.20123 0.97357
vt 0.20647 0.98512
vt 0.20652 0.99915
vt 0.21430 0.82122
vt 0.21430 0.97357
vt 0.22509 0.82122
vt 0.22509 0.97357
vt 0.23816 0.82122
vt 0.23816 0.97357
vt 0.27301 0.82122
vt 0.27301 0.97357
vt 0.28380 0.82122
vt 0.28380 0.97357
vt 0.30501 0.45859
vt 0.30501 0.79715
vt 0.31062 0.80633
vt 0.31865 0.82122
vt 0.31865 0.97357
vt 0.32866 0.46260
vt 0.33172 0.82122
vt 0.33172 0.97357
vt 0.33428 0.47178
vt 0.33428 0.81034
vt 0.34251 0.82122
vt 0.34251 0.97357
vt 0.35558 0.82122
vt 0.35558 0.97357
vt 0.39044 0.82122
vt 0.39044 0.97357
vt 0.40122 0.82122
vt 0.40122 0.97357
vt 0.42824 0.00117
vt 0.42824 0.44770
vt 0.43037 0.44459
vt 0.43132 0.00311
vt 0.43608 0.82122
vt 0.43608 0.97357
vt 0.44210 0.44459
vt 0.44305 0.00311
vt 0.44518 0.00000
vt 0.44518 0.44653
vt 0.44915 0.82122
vt 0.44915 0.97357
vt 0.46202 0.91543
vt 0.46202 0.94155
vt 0.46202 0.95741
vt 0.46202 0.98353
vt 0.46367 0.45859
vt 0.46367 0.81034
vt 0.46484 0.82342
vt 0.46666 0.91444
vt 0.46666 0.95642
vt 0.46690 0.94240
vt 0.46690 0.98437
vt 0.46854 0.46831
vt 0.46889 0.89584
vt 0.47199 0.82744
vt 0.48370 0.82122
vt 0.48370 0.97357
vt 0.48986 0.45859
vt 0.48986 0.80764
vt 0.49677 0.82122
vt 0.49677 0.97357
vt 0.51450 0.45859
vt 0.51450 0.80154
vt 0.51450 0.81034
vt 0.52067 0.80594
vt 0.53145 0.46299
vt 0.53162 0.82122
vt 0.53162 0.97357
vt 0.53761 0.45859
vt 0.53761 0.46738
vt 0.53761 0.81034
vt 0.54241 0.92614
vt 0.54241 0.96131
vt 0.54333 0.89584
vt 0.54400 0.99534
vt 0.54424 0.97383
vt 0.54643 0.82744
vt 0.54982 0.99544
vt 0.55006 0.97393
vt 0.55048 0.89987
vt 0.55548 0.91295
vt 0.55548 0.94812
vt 0.56226 0.46129
vt 0.56226 0.81034
vt 0.57921 0.78605
vt 0.57921 0.93839
vt 0.58080 0.95077
vt 0.58103 0.97873
vt 0.58537 0.45859
vt 0.58537 0.77264
vt 0.59228 0.78605
vt 0.59228 0.93839
vt 0.59664 0.95177
vt 0.59664 0.97788
vt 0.60902 0.95077
vt 0.60925 0.97873
vt 0.62485 0.95177
vt 0.62485 0.97788
vt 0.62713 0.78605
vt 0.62713 0.93839
vt 0.63723 0.95077
vt 0.63746 0.97873
vt 0.63792 0.78605
vt 0.63792 0.93839
vt 0.65099 0.78605
vt 0.65099 0.93839
vt 0.65307 0.95177
vt 0.65307 0.97788
vt 0.65315 0.45859
vt 0.65315 0.77516
vt 0.65713 0.76922
vt 0.66385 0.95177
vt 0.66385 0.97788
vt 0.67227 0.46454
vt 0.67626 0.45859
vt 0.67626 0.77516
vt 0.67945 0.95092
vt 0.67968 0.97888
vt 0.68585 0.78605
vt 0.68585 0.93839
vt 0.69663 0.78605
vt 0.69663 0.93839
vt 0.69823 0.95077
vt 0.69846 0.97873
vt 0.70396 0.00117
vt 0.70396 0.44770
vt 0.70610 0.44459
vt 0.70704 0.00311
vt 0.71406 0.95177
vt 0.71406 0.97788
vt 0.71783 0.00622
vt 0.72266 0.44149
vt 0.72641 0.95083
vt 0.72667 0.97873
vt 0.72841 0.00622
vt 0.73149 0.78605
vt 0.73149 0.93839
vt 0.73323 0.44149
vt 0.74227 0.95177
vt 0.74227 0.97788
vt 0.74402 0.00622
vt 0.74403 0.46111
vt 0.74403 0.77516
vt 0.74456 0.78605
vt 0.74456 0.93839
vt 0.74885 0.44149
vt 0.75460 0.00622
vt 0.75943 0.44149
vt 0.76098 0.78660
vt 0.76098 0.93894
vt 0.76098 0.95232
vt 0.76098 0.97843
vt 0.76496 0.77140
vt 0.76555 0.46268
vt 0.77021 0.00622
vt 0.77021 0.44149
vt 0.77405 0.78660
vt 0.77405 0.93894
vt 0.77658 0.95147
vt 0.77681 0.97942
vt 0.77767 0.44149
vt 0.77816 0.00622
vt 0.78105 0.77163
vt 0.78164 0.46291
vt 0.78562 0.00622
vt 0.78562 0.44149
vt 0.78919 0.95232
vt 0.78919 0.97843
vt 0.79640 0.00622
vt 0.79640 0.44149
vt 0.79949 0.46079
vt 0.80386 0.44149
vt 0.80435 0.00622
vt 0.80479 0.95147
vt 0.80505 0.97937
vt 0.80890 0.78660
vt 0.80890 0.93894
vt 0.80971 0.46738
vt 0.81181 0.00622
vt 0.81181 0.44149
vt 0.81798 0.46079
vt 0.82259 0.32996
vt 0.82259 0.35608
vt 0.82259 0.37194
vt 0.82259 0.39806
vt 0.82259 0.41392
vt 0.82259 0.44003
vt 0.82721 0.41297
vt 0.82724 0.32897
vt 0.82733 0.37099
vt 0.82738 0.39889
vt 0.82747 0.35693
vt 0.82747 0.44088
vt 0.83341 0.93039
vt 0.83344 0.99396
vt 0.83367 0.95829
vt 0.83367 0.97245
vt 0.83555 0.67881
vt 0.83591 0.69832
vt 0.83801 0.45859
vt 0.83801 0.91796
vt 0.83926 0.99406
vt 0.83949 0.97255
vt 0.84669 0.00461
vt 0.84878 0.22424
vt 0.84927 0.93133
vt 0.84927 0.95745
vt 0.85347 0.99396
vt 0.85370 0.97245
vt 0.85649 0.45859
vt 0.85649 0.91796
vt 0.85859 0.67822
vt 0.85895 0.69774
vt 0.85929 0.99406
vt 0.85952 0.97255
vt 0.86727 0.22424
vt 0.86973 0.00402
vt 0.87344 0.69372
vt 0.87344 0.84606
vt 0.87344 0.87014
vt 0.87344 0.90531
vt 0.87344 0.92242
vt 0.87344 0.96688
vt 0.87344 0.99300
vt 0.87714 0.67881
vt 0.87780 0.91620
vt 0.87960 0.45859
vt 0.88075 0.94729
vt 0.88268 0.23513
vt 0.88268 0.38747
vt 0.88268 0.39836
vt 0.88268 0.43353
vt 0.88422 0.00000
vt 0.88422 0.15234
vt 0.88422 0.16323
vt 0.88422 0.19840
vt 0.88467 0.92242
vt 0.88651 0.69372
vt 0.88651 0.84606
vt 0.88651 0.85695
vt 0.88651 0.89212
vt 0.88904 0.96603
vt 0.88927 0.99399
vt 0.89575 0.41155
vt 0.89575 0.44672
vt 0.89729 0.17642
vt 0.89729 0.21160
vt 0.89730 0.87014
vt 0.89730 0.90531
vt 0.89809 0.45859
vt 0.89913 0.94729
vt 0.90018 0.67822
vt 0.90305 0.92242
vt 0.90601 0.95351
vt 0.90654 0.39836
vt 0.90654 0.43353
vt 0.90807 0.17642
vt 0.90807 0.21160
vt 0.91037 0.85695
vt 0.91037 0.89212
vt 0.91037 0.94729
vt 0.91503 0.45859
vt 0.91503 0.61093
vt 0.91503 0.62182
vt 0.91503 0.65699
vt 0.91753 0.23513
vt 0.91753 0.38747
vt 0.91907 0.00000
vt 0.91907 0.15234
vt 0.91961 0.41155
vt 0.91961 0.44672
vt 0.92114 0.16323
vt 0.92114 0.19840
vt 0.92115 0.87014
vt 0.92115 0.90531
vt 0.92115 0.92242
vt 0.92115 0.94107
vt 0.92115 0.96066
vt 0.92115 0.98678
vt 0.92136 0.69372
vt 0.92136 0.84606
vt 0.92810 0.45859
vt 0.92810 0.61093
vt 0.92810 0.63501
vt 0.92810 0.67019
vt 0.93039 0.39836
vt 0.93039 0.43353
vt 0.93060 0.23513
vt 0.93060 0.38747
vt 0.93193 0.17642
vt 0.93193 0.21160
vt 0.93214 0.00000
vt 0.93214 0.15234
vt 0.93215 0.70304
vt 0.93385 0.91993
vt 0.93422 0.85695
vt 0.93422 0.89212
vt 0.93443 0.94319
vt 0.93559 0.83854
vt 0.93676 0.95981
vt 0.93699 0.98777
vt 0.93889 0.62182
vt 0.93889 0.65699
vt 0.94125 0.69738
vt 0.94139 0.24445
vt 0.94139 0.37503
vt 0.94293 0.00249
vt 0.94293 0.02860
vt 0.94346 0.41155
vt 0.94346 0.44672
vt 0.94452 0.04347
vt 0.94452 0.08545
vt 0.94476 0.07143
vt 0.94476 0.11340
vt 0.94500 0.16323
vt 0.94500 0.19840
vt 0.94501 0.86316
vt 0.94501 0.88182
vt 0.94522 0.83362
vt 0.94666 0.14769
vt 0.94683 0.12904
vt 0.94937 0.96066
vt 0.94937 0.98678
vt 0.95096 0.91769
vt 0.95120 0.94565
vt 0.95196 0.63501
vt 0.95196 0.67019
vt 0.95382 0.13739
vt 0.95724 0.20606
vt 0.95730 0.22009
vt 0.95771 0.86068
vt 0.95829 0.88394
vt 0.95840 0.40246
vt 0.95862 0.00165
vt 0.95866 0.02955
vt 0.95898 0.42571
vt 0.95994 0.16733
vt 0.96035 0.04446
vt 0.96035 0.07058
vt 0.96035 0.08644
vt 0.96035 0.11256
vt 0.96052 0.19059
vt 0.96265 0.70304
vt 0.96265 0.83362
vt 0.96275 0.62431
vt 0.96275 0.65042
vt 0.96279 0.38070
vt 0.96296 0.45859
vt 0.96296 0.61093
vt 0.96420 0.66465
vt 0.96425 0.67868
vt 0.96461 0.13935
vt 0.96497 0.95981
vt 0.96504 0.24128
vt 0.96520 0.98777
vt 0.96680 0.91868
vt 0.96680 0.94480
vt 0.96969 0.20587
vt 0.96974 0.21990
vt 0.97114 0.00249
vt 0.97114 0.02860
vt 0.97114 0.04446
vt 0.97114 0.07058
vt 0.97114 0.08644
vt 0.97114 0.11256
vt 0.97160 0.14769
vt 0.97168 0.40457
vt 0.97168 0.42323
vt 0.97177 0.12904
vt 0.97189 0.37503
vt 0.97322 0.16945
vt 0.97322 0.18810
vt 0.97489 0.85859
vt 0.97503 0.84279
vt 0.97510 0.69536
vt 0.97510 0.73733
vt 0.97510 0.77931
vt 0.97515 0.88649
vt 0.97527 0.82128
vt 0.97533 0.72331
vt 0.97533 0.76529
vt 0.97533 0.80727
vt 0.97534 0.60767
vt 0.97540 0.46023
vt 0.97540 0.50221
vt 0.97540 0.54418
vt 0.97557 0.58615
vt 0.97564 0.48819
vt 0.97564 0.53016
vt 0.97564 0.57214
vt 0.97579 0.00149
vt 0.97579 0.04347
vt 0.97579 0.08545
vt 0.97602 0.02945
vt 0.97602 0.07143
vt 0.97602 0.11340
vt 0.97665 0.66446
vt 0.97670 0.67849
vt 0.97835 0.62346
vt 0.97858 0.65142
vt 0.97924 0.95981
vt 0.97933 0.91785
vt 0.97938 0.94575
vt 0.97947 0.98777
vt 0.97976 0.85943
vt 0.97976 0.88555
vt 0.97997 0.69620
vt 0.97997 0.72232
vt 0.97997 0.73818
vt 0.97997 0.76430
vt 0.97997 0.78016
vt 0.97997 0.80627
vt 0.98028 0.46108
vt 0.98028 0.48719
vt 0.98028 0.50305
vt 0.98028 0.52917
vt 0.98028 0.54503
vt 0.98028 0.57115
vt 0.98085 0.84288
vt 0.98108 0.82137
vt 0.98116 0.60776
vt 0.98140 0.58625
vt 0.98406 0.42150
vt 0.98412 0.91868
vt 0.98412 0.94480
vt 0.98412 0.96066
vt 0.98412 0.98678
vt 0.98427 0.25827
vt 0.98427 0.32979
vt 0.98427 0.36555
vt 0.98430 0.39999
vt 0.98433 0.29410
vt 0.98450 0.23672
vt 0.98450 0.27248
vt 0.98450 0.30828
vt 0.98450 0.34404
vt 0.98560 0.18638
vt 0.98560 0.22213
vt 0.98583 0.16486
vt 0.98583 0.20062
vt 0.98788 0.14908
vt 0.98812 0.12757
vt 0.98988 0.42159
vt 0.99006 0.02315
vt 0.99006 0.06512
vt 0.99006 0.10088
vt 0.99009 0.29417
vt 0.99009 0.32988
vt 0.99009 0.36564
vt 0.99011 0.40008
vt 0.99018 0.25832
vt 0.99029 0.00163
vt 0.99029 0.04361
vt 0.99029 0.07937
vt 0.99032 0.23685
vt 0.99032 0.27261
vt 0.99032 0.30837
vt 0.99032 0.34413
vt 0.99142 0.18647
vt 0.99142 0.22223
vt 0.99165 0.16496
vt 0.99165 0.20072
vt 0.99220 0.88016
vt 0.99235 0.71686
vt 0.99237 0.85854
vt 0.99250 0.69539
vt 0.99370 0.14917
vt 0.99394 0.12766
vt 0.99588 0.02324
vt 0.99588 0.06521
vt 0.99588 0.10097
vt 0.99611 0.00173
vt 0.99611 0.04370
vt 0.99611 0.07946
vt 0.99797 0.88023
vt 0.99814 0.85860
vt 0.99826 0.71691
vt 0.99841 0.69544
s 0
usemtl FPS_concrete
f 1/143/25 12/116/25 9/149/25
f 1/143/88 5/117/88 12/116/88
f 1/466/20 2/443/20 5/450/20
f 10/88/16 6/109/16 3/87/16
f 10/88/81 15/108/81 6/109/81
f 13/31/3 15/26/3 14/27/3
f 14/415/24 10/390/24 11/400/24
f 14/415/87 15/395/87 10/390/87
f 15/26/2 7/28/2 6/21/2
f 3/6/21 4/7/21 2/11/21
f 3/6/5 11/8/5 10/1/5
f 4/89/19 6/109/19 7/110/19
f 4/89/84 3/87/84 6/109/84
f 5/32/1 13/31/1 12/37/1
f 5/32/18 15/26/18 13/31/18
f 5/32/83 7/28/83 15/26/83
f 5/450/17 4/402/17 7/401/17
f 5/450/82 2/443/82 4/402/82
f 8/142/22 12/116/22 13/113/22
f 8/142/85 9/149/85 12/116/85
f 8/439/15 14/415/15 11/400/15
f 8/439/80 13/440/80 14/415/80
f 9/15/23 3/6/23 2/11/23
f 9/15/26 8/12/26 11/8/26
f 9/15/4 2/11/4 1/18/4
f 9/15/86 11/8/86 3/6/86
usemtl FPS_hazard
f 132/258/109 134/261/109 136/262/109
f 132/258/70 136/262/70 137/257/70
f 133/45/68 135/56/68 132/42/68
f 134/424/67 132/416/67 135/417/67
f 135/268/108 133/266/108 139/265/108
f 135/268/69 139/265/69 138/269/69
f 136/274/71 138/267/71 137/277/71
f 137/257/110 139/252/110 133/251/110
f 137/257/73 133/251/73 132/258/73
f 138/269/107 136/275/107 134/276/107
f 138/269/66 134/276/66 135/268/66
f 139/448/72 137/465/72 138/462/72
f 16/388/29 20/389/29 21/365/29
f 16/388/29 21/365/29 17/364/29
f 17/364/30 21/365/30 22/330/30
f 17/364/30 22/330/30 18/329/30
f 18/246/31 22/245/31 23/253/31
f 18/246/31 23/253/31 19/254/31
f 19/254/32 20/272/32 16/273/32
f 19/254/32 23/253/32 20/272/32
f 19/57/27 16/58/27 17/47/27
f 19/57/27 17/47/27 18/46/27
f 21/74/28 20/66/28 23/65/28
f 21/74/28 23/65/28 22/73/28
f 24/136/29 28/137/29 29/131/29
f 24/136/29 29/131/29 25/130/29
f 25/130/30 29/131/30 30/125/30
f 25/130/30 30/125/30 26/124/30
f 26/153/31 30/152/31 31/156/31
f 26/153/31 31/156/31 27/157/31
f 27/157/32 28/163/32 24/164/32
f 27/157/32 31/156/32 28/163/32
f 27/405/27 24/406/27 25/383/27
f 27/405/27 25/383/27 26/382/27
f 29/412/28 28/387/28 31/386/28
f 29/412/28 31/386/28 30/411/28
f 32/19/29 36/20/29 37/14/29
f 32/19/29 37/14/29 33/13/29
f 33/13/30 37/14/30 38/3/30
f 33/13/30 38/3/30 34/2/30
f 34/315/31 38/314/31 39/334/31
f 34/315/31 39/334/31 35/335/31
f 35/335/32 36/376/32 32/377/32
f 35/335/32 39/334/32 36/376/32
f 35/340/27 32/341/27 33/328/27
f 35/340/27 33/328/27 34/327/27
f 37/337/28 36/317/28 39/316/28
f 37/337/28 39/316/28 38/336/28
f 40/38/29 44/39/29 45/36/29
f 40/38/29 45/36/29 41/35/29
f 41/35/30 45/36/30 46/25/30
f 41/35/30 46/25/30 42/24/30
f 42/101/31 46/100/31 47/102/31
f 42/101/31 47/102/31 43/103/31
f 43/103/32 44/104/32 40/105/32
f 43/103/32 47/102/32 44/104/32
f 43/380/27 40/381/27 41/361/27
f 43/380/27 41/361/27 42/360/27
f 45/393/28 44/371/28 47/370/28
f 45/393/28 47/370/28 46/392/28
f 48/359/29 52/358/29 53/378/29
f 48/359/29 53/378/29 49/379/29
f 49/379/30 53/378/30 54/444/30
f 49/379/30 54/444/30 50/445/30
f 50/98/31 54/99/31 55/95/31
f 50/98/31 55/95/31 51/94/31
f 51/59/27 48/60/27 49/49/27
f 51/59/27 49/49/27 50/48/27
f 51/94/32 52/81/32 48/80/32
f 51/94/32 55/95/32 52/81/32
f 53/76/28 52/68/28 55/67/28
f 53/76/28 55/67/28 54/75/28
f 56/182/29 60/181/29 61/187/29
f 56/182/29 61/187/29 57/188/29
f 57/188/30 61/187/30 62/195/30
f 57/188/30 62/195/30 58/196/30
f 58/240/31 62/241/31 63/233/31
f 58/240/31 63/233/31 59/232/31
f 59/232/32 60/218/32 56/217/32
f 59/232/32 63/233/32 60/218/32
f 59/366/27 56/367/27 57/352/27
f 59/366/27 57/352/27 58/351/27
f 61/369/28 60/354/28 63/353/28
f 61/369/28 63/353/28 62/368/28
f 64/114/29 68/115/29 69/112/29
f 64/114/29 69/112/29 65/111/29
f 65/111/30 69/112/30 70/107/30
f 65/111/30 70/107/30 66/106/30
f 66/119/31 70/118/31 71/120/31
f 66/119/31 71/120/31 67/121/31
f 67/121/32 68/122/32 64/123/32
f 67/121/32 71/120/32 68/122/32
f 67/342/27 64/343/27 65/332/27
f 67/342/27 65/332/27 66/331/27
f 69/356/28 68/345/28 71/344/28
f 69/356/28 71/344/28 70/355/28
f 72/384/29 76/385/29 77/363/29
f 72/384/29 77/363/29 73/362/29
f 73/362/30 77/363/30 78/326/30
f 73/362/30 78/326/30 74/325/30
f 74/200/31 78/199/31 79/201/31
f 74/200/31 79/201/31 75/202/31
f 75/202/32 76/215/32 72/216/32
f 75/202/32 79/201/32 76/215/32
f 75/422/27 72/423/27 73/399/27
f 75/422/27 73/399/27 74/398/27
f 77/178/28 76/169/28 79/168/28
f 77/178/28 79/168/28 78/177/28
usemtl FPS_gunmetal
f 104/180/102 107/167/102 113/166/102
f 104/180/50 113/166/50 110/179/50
f 104/357/43 106/347/43 107/349/43
f 104/357/6 105/350/6 106/347/6
f 104/54/100 110/55/100 112/43/100
f 104/54/46 112/43/46 105/44/46
f 108/159/44 107/160/44 106/155/44
f 108/159/7 109/161/7 107/160/7
f 108/62/45 114/70/45 109/69/45
f 108/62/99 115/61/99 114/70/99
f 111/154/41 108/159/41 106/155/41
f 111/154/97 115/158/97 108/159/97
f 111/318/48 110/333/48 115/324/48
f 111/318/8 112/322/8 110/333/8
f 111/41/101 106/40/101 105/44/101
f 111/41/49 105/44/49 112/43/49
f 113/166/47 115/165/47 110/179/47
f 113/166/9 114/162/9 115/165/9
f 113/77/42 109/69/42 114/70/42
f 113/77/98 107/78/98 109/69/98
f 124/176/58 125/170/58 126/173/58
f 124/239/106 126/212/106 130/210/106
f 124/239/57 130/210/57 128/238/57
f 125/227/65 124/231/65 129/228/65
f 126/244/60 127/242/60 130/243/60
f 127/207/59 126/206/59 125/186/59
f 128/234/64 129/228/64 124/231/64
f 129/144/63 128/151/63 131/150/63
f 129/185/105 131/205/105 127/207/105
f 129/185/53 127/207/53 125/186/53
f 130/210/62 131/211/62 128/238/62
f 131/237/61 130/243/61 127/242/61
f 142/430/114 140/431/114 141/404/114
f 142/430/77 141/404/77 143/403/77
f 142/502/116 146/474/116 144/469/116
f 142/502/79 144/469/79 140/501/79
f 142/528/115 143/530/115 147/552/115
f 142/528/78 147/552/78 146/543/78
f 144/302/112 146/303/112 147/292/112
f 144/302/75 147/292/75 145/290/75
f 144/524/111 145/529/111 141/551/111
f 144/524/74 141/551/74 140/547/74
f 147/282/113 143/284/113 141/289/113
f 147/282/76 141/289/76 145/283/76
f 150/504/116 154/476/116 152/471/116
f 150/504/79 152/471/79 148/503/79
f 150/526/115 151/532/115 155/554/115
f 150/526/78 155/554/78 154/545/78
f 150/71/114 148/72/114 149/64/114
f 150/71/77 149/64/77 151/63/77
f 152/434/112 154/435/112 155/409/112
f 152/434/75 155/409/75 153/407/75
f 152/525/111 153/531/111 149/553/111
f 152/525/74 149/553/74 148/544/74
f 155/138/113 151/145/113 149/147/113
f 155/138/76 149/147/76 153/139/76
f 158/495/114 156/496/114 157/442/114
f 158/495/77 157/442/77 159/441/77
f 158/506/116 162/477/116 160/472/116
f 158/506/79 160/472/79 156/505/79
f 158/534/115 159/536/115 163/558/115
f 158/534/78 163/558/78 162/556/78
f 160/452/112 162/453/112 163/421/112
f 160/452/75 163/421/75 161/420/75
f 160/533/111 161/535/111 157/557/111
f 160/533/74 157/557/74 156/555/74
f 163/50/113 159/52/113 157/53/113
f 163/50/76 157/53/76 161/51/76
f 166/396/114 164/397/114 165/375/114
f 166/396/77 165/375/77 167/374/77
f 166/479/115 167/483/115 171/518/115
f 166/479/78 171/518/78 170/517/78
f 166/508/116 170/478/116 168/473/116
f 166/508/79 168/473/79 164/507/79
f 168/189/112 170/190/112 171/184/112
f 168/189/75 171/184/75 169/183/75
f 168/470/111 169/475/111 165/516/111
f 168/470/74 165/516/74 164/515/74
f 171/140/113 167/146/113 165/148/113
f 171/140/76 165/148/76 169/141/76
f 174/304/115 175/305/115 179/311/115
f 174/304/78 179/311/78 178/310/78
f 174/449/114 172/451/114 173/419/114
f 174/449/77 173/419/77 175/418/77
f 174/510/116 178/484/116 176/480/116
f 174/510/79 176/480/79 172/509/79
f 176/193/112 178/194/112 179/192/112
f 176/193/75 179/192/75 177/191/75
f 176/291/111 177/293/111 173/299/111
f 176/291/74 173/299/74 172/298/74
f 179/456/113 175/487/113 173/490/113
f 179/456/76 173/490/76 177/457/76
f 182/213/114 180/214/114 181/209/114
f 182/213/77 181/209/77 183/208/77
f 182/519/115 183/527/115 187/546/115
f 182/519/78 187/546/78 186/539/78
f 182/523/116 186/500/116 184/497/116
f 182/523/79 184/497/79 180/522/79
f 184/171/111 185/172/111 181/175/111
f 184/171/74 181/175/74 180/174/74
f 184/203/112 186/204/112 187/198/112
f 184/203/75 187/198/75 185/197/75
f 187/458/113 183/488/113 181/491/113
f 187/458/76 181/491/76 185/459/76
f 190/338/114 188/339/114 189/320/114
f 190/338/77 189/320/77 191/319/77
f 190/512/116 194/485/116 192/481/116
f 190/512/79 192/481/79 188/511/79
f 190/540/115 191/548/115 195/568/115
f 190/540/78 195/568/78 194/565/78
f 192/225/112 194/226/112 195/220/112
f 192/225/75 195/220/75 193/219/75
f 192/537/111 193/538/111 189/564/111
f 192/537/74 189/564/74 188/563/74
f 195/460/113 191/489/113 189/492/113
f 195/460/76 189/492/76 193/461/76
f 198/255/114 196/256/114 197/248/114
f 198/255/77 197/248/77 199/247/77
f 198/514/116 202/486/116 200/482/116
f 198/514/79 200/482/79 196/513/79
f 198/542/115 199/550/115 203/570/115
f 198/542/78 203/570/78 202/567/78
f 200/436/112 202/437/112 203/410/112
f 200/436/75 203/410/75 201/408/75
f 200/541/111 201/549/111 197/569/111
f 200/541/74 197/569/74 196/566/74
f 203/278/113 199/285/113 197/288/113
f 203/278/76 197/288/76 201/279/76
f 206/270/114 204/271/114 205/264/114
f 206/270/77 205/264/77 207/263/77
f 206/521/116 210/499/116 208/498/116
f 206/521/79 208/498/79 204/520/79
f 206/560/115 207/562/115 211/574/115
f 206/560/78 211/574/78 210/573/78
f 208/235/112 210/236/112 211/230/112
f 208/235/75 211/230/75 209/229/75
f 208/559/111 209/561/111 205/572/111
f 208/559/74 205/572/74 204/571/74
f 211/280/113 207/286/113 205/287/113
f 211/280/76 205/287/76 209/281/76
f 80/463/38 86/432/38 84/429/38
f 80/463/94 82/464/94 86/432/94
f 82/308/36 81/296/36 83/306/36
f 82/308/92 80/294/92 81/296/92
f 82/4/37 87/10/37 86/9/37
f 82/4/93 83/5/93 87/10/93
f 84/249/33 81/260/33 80/259/33
f 84/249/89 85/250/89 81/260/89
f 84/307/34 87/295/34 85/309/34
f 84/307/90 86/297/90 87/295/90
f 85/414/35 83/427/35 81/428/35
f 85/414/91 87/413/91 83/427/91
f 92/467/38 98/438/38 96/433/38
f 92/467/94 94/468/94 98/438/94
f 94/29/37 99/34/37 98/33/37
f 94/29/93 95/30/93 99/34/93
f 94/348/36 93/323/36 95/346/36
f 94/348/92 92/321/92 93/323/92
f 96/16/33 93/23/33 92/22/33
f 96/16/89 97/17/89 93/23/89
f 96/312/34 99/300/34 97/313/34
f 96/312/90 98/301/90 99/300/90
f 97/373/35 95/391/35 93/394/35
f 97/373/91 99/372/91 95/391/91
usemtl FPS_signal
f 100/97/40 102/92/40 103/96/40
f 100/97/96 101/93/96 102/92/96
f 103/91/39 101/83/39 100/90/39
f 103/91/95 102/84/95 101/83/95
f 88/494/40 90/446/40 91/493/40
f 88/494/96 89/447/96 90/446/96
f 91/455/39 89/425/39 88/454/39
f 91/455/95 90/426/95 89/425/95
usemtl FPS_gunmetal_paint
f 117/128/14 121/126/14 123/129/14
f 117/128/54 119/127/54 116/86/54
f 118/133/10 122/135/10 120/132/10
f 118/133/104 119/221/104 123/223/104
f 118/133/52 123/223/52 122/135/52
f 118/133/55 116/134/55 119/221/55
f 120/82/103 121/126/103 117/128/103
f 120/82/13 116/86/13 118/79/13
f 120/82/51 117/128/51 116/86/51
f 120/82/56 122/85/56 121/126/56
f 122/135/12 123/223/12 121/222/12
f 123/223/11 119/221/11 117/224/11
