# Blender 5.2.0 LTS
# www.blender.org
mtllib arcane_loot_chest_lod1.mtl
g arpg_chest_lod1_body_Cube.140
v 0.515000 0.000000 -0.305000
v 0.515000 0.025000 -0.330000
v 0.540000 0.025000 -0.305000
v 0.515000 0.007322 -0.322678
v 0.529434 0.010566 -0.319434
v 0.532678 0.025000 -0.322678
v 0.532678 0.007322 -0.305000
v 0.515000 0.475000 -0.330000
v 0.515000 0.500000 -0.305000
v 0.540000 0.475000 -0.305000
v 0.515000 0.492678 -0.322678
v 0.529434 0.489434 -0.319434
v 0.532678 0.492678 -0.305000
v 0.532678 0.475000 -0.322678
v 0.515000 0.000000 0.305000
v 0.540000 0.025000 0.305000
v 0.515000 0.025000 0.330000
v 0.532678 0.007322 0.305000
v 0.529434 0.010566 0.319434
v 0.532678 0.025000 0.322678
v 0.515000 0.007322 0.322678
v 0.515000 0.500000 0.305000
v 0.515000 0.475000 0.330000
v 0.540000 0.475000 0.305000
v 0.515000 0.492678 0.322678
v 0.529434 0.489434 0.319434
v 0.532678 0.475000 0.322678
v 0.532678 0.492678 0.305000
v -0.515000 0.000000 -0.305000
v -0.540000 0.025000 -0.305000
v -0.515000 0.025000 -0.330000
v -0.532678 0.007322 -0.305000
v -0.529434 0.010566 -0.319434
v -0.532678 0.025000 -0.322678
v -0.515000 0.007322 -0.322678
v -0.515000 0.500000 -0.305000
v -0.515000 0.475000 -0.330000
v -0.540000 0.475000 -0.305000
v -0.515000 0.492678 -0.322678
v -0.529434 0.489434 -0.319434
v -0.532678 0.475000 -0.322678
v -0.532678 0.492678 -0.305000
v -0.515000 0.000000 0.305000
v -0.515000 0.025000 0.330000
v -0.540000 0.025000 0.305000
v -0.515000 0.007322 0.322678
v -0.529434 0.010566 0.319434
v -0.532678 0.025000 0.322678
v -0.532678 0.007322 0.305000
v -0.515000 0.500000 0.305000
v -0.540000 0.475000 0.305000
v -0.515000 0.475000 0.330000
v -0.532678 0.492678 0.305000
v -0.529434 0.489434 0.319434
v -0.532678 0.475000 0.322678
v -0.515000 0.492678 0.322678
vn 0.3672 -0.8865 -0.2817
vn 0.2817 -0.3672 -0.8865
vn 0.8865 -0.2817 -0.3672
vn 0.3672 0.2817 -0.8865
vn 0.2817 0.8865 -0.3672
vn 0.8865 0.3672 -0.2817
vn 0.2817 -0.8865 0.3672
vn 0.8865 -0.3672 0.2817
vn 0.3672 -0.2817 0.8865
vn 0.3672 0.8865 0.2817
vn 0.2817 0.3672 0.8865
vn 0.8865 0.2817 0.3672
vn -0.2817 -0.8865 -0.3672
vn -0.8865 -0.3672 -0.2817
vn -0.3672 -0.2817 -0.8865
vn -0.3672 0.8865 -0.2817
vn -0.2817 0.3672 -0.8865
vn -0.8865 0.2817 -0.3672
vn -0.3672 -0.8865 0.2817
vn -0.2817 -0.3672 0.8865
vn -0.8865 -0.2817 0.3672
vn -0.2817 0.8865 0.3672
vn -0.8865 0.3672 0.2817
vn -0.3672 0.2817 0.8865
vn 0.3827 -0.9239 -0.0000
vn 0.9239 -0.3827 -0.0000
vn 0.3827 -0.0000 -0.9239
vn 0.9239 -0.0000 -0.3827
vn 0.3827 0.9239 -0.0000
vn 0.9239 0.3827 -0.0000
vn 0.3827 -0.0000 0.9239
vn 0.9239 -0.0000 0.3827
vn -0.0000 -0.9239 0.3827
vn -0.0000 -0.3827 0.9239
vn -0.0000 0.9239 0.3827
vn -0.0000 0.3827 0.9239
vn -0.9239 -0.0000 0.3827
vn -0.3827 -0.0000 0.9239
vn -0.3827 -0.9239 -0.0000
vn -0.9239 -0.3827 -0.0000
vn -0.3827 0.9239 -0.0000
vn -0.9239 0.3827 -0.0000
vn -0.3827 -0.0000 -0.9239
vn -0.9239 -0.0000 -0.3827
vn -0.0000 -0.9239 -0.3827
vn -0.0000 -0.3827 -0.9239
vn -0.0000 0.9239 -0.3827
vn -0.0000 0.3827 -0.9239
vn -0.0000 -1.0000 -0.0000
vn 1.0000 -0.0000 -0.0000
vn -0.0000 -0.0000 -1.0000
vn -0.0000 1.0000 -0.0000
vn -0.0000 -0.0000 1.0000
vn -1.0000 -0.0000 -0.0000
vn 0.2817 -0.8865 -0.3672
vn 0.3672 -0.2817 -0.8865
vn 0.8865 -0.3672 -0.2817
vn 0.2817 0.3672 -0.8865
vn 0.3672 0.8865 -0.2817
vn 0.8865 0.2817 -0.3672
vn 0.3672 -0.8865 0.2817
vn 0.8865 -0.2817 0.3672
vn 0.2817 -0.3672 0.8865
vn 0.2817 0.8865 0.3672
vn 0.3672 0.2817 0.8865
vn 0.8865 0.3672 0.2817
vn -0.3672 -0.8865 -0.2817
vn -0.8865 -0.2817 -0.3672
vn -0.2817 -0.3672 -0.8865
vn -0.2817 0.8865 -0.3672
vn -0.3672 0.2817 -0.8865
vn -0.8865 0.3672 -0.2817
vn -0.2817 -0.8865 0.3672
vn -0.3672 -0.2817 0.8865
vn -0.8865 -0.3672 0.2817
vn -0.3672 0.8865 0.2817
vn -0.8865 0.2817 0.3672
vn -0.2817 0.3672 0.8865
vt 0.12500 0.50400
vt 0.12500 0.50544
vt 0.12500 0.50947
vt 0.12500 0.51287
vt 0.12500 0.51761
vt 0.12500 0.54167
vt 0.12500 0.70833
vt 0.12500 0.73713
vt 0.12500 0.74053
vt 0.12745 0.75000
vt 0.12836 0.75000
vt 0.12980 0.75000
vt 0.13079 0.50000
vt 0.13079 0.50947
vt 0.13079 0.74053
vt 0.13079 0.75000
vt 0.13295 0.50000
vt 0.13295 0.51287
vt 0.13295 0.73713
vt 0.13295 0.75000
vt 0.13636 0.50000
vt 0.13636 0.54167
vt 0.13636 0.70833
vt 0.13636 0.75000
vt 0.36364 0.54167
vt 0.36364 0.70833
vt 0.36705 0.51287
vt 0.36705 0.73713
vt 0.36921 0.50947
vt 0.36921 0.74053
vt 0.36932 0.49432
vt 0.36932 0.75568
vt 0.37102 0.49602
vt 0.37102 0.75398
vt 0.37211 0.49711
vt 0.37211 0.75289
vt 0.37481 0.50587
vt 0.37500 0.00400
vt 0.37500 0.00544
vt 0.37500 0.00947
vt 0.37500 0.01287
vt 0.37500 0.01761
vt 0.37500 0.04167
vt 0.37500 0.20833
vt 0.37500 0.23713
vt 0.37500 0.24053
vt 0.37500 0.25579
vt 0.37500 0.25795
vt 0.37500 0.26136
vt 0.37500 0.50947
vt 0.37500 0.51287
vt 0.37500 0.54167
vt 0.37500 0.70833
vt 0.37500 0.73713
vt 0.37500 0.74053
vt 0.37500 0.98864
vt 0.37500 0.99204
vt 0.37500 0.99421
vt 0.37595 0.50133
vt 0.37641 0.74573
vt 0.37676 0.74948
vt 0.37711 0.25240
vt 0.37764 0.25122
vt 0.37828 0.50181
vt 0.37923 1.00000
vt 0.37940 0.74931
vt 0.38028 1.00000
vt 0.38160 0.25168
vt 0.38500 0.00000
vt 0.38500 0.04167
vt 0.38500 0.20833
vt 0.38500 0.25000
vt 0.38500 0.26136
vt 0.38500 0.48864
vt 0.38500 0.50000
vt 0.38500 0.54167
vt 0.38500 0.70833
vt 0.38500 0.75000
vt 0.38500 0.76136
vt 0.38500 0.98864
vt 0.38500 1.00000
vt 0.38750 0.00000
vt 0.38750 0.00947
vt 0.38750 0.24053
vt 0.38750 0.25000
vt 0.38750 0.25579
vt 0.38750 0.49421
vt 0.38750 0.50000
vt 0.38750 0.50947
vt 0.38750 0.74053
vt 0.38750 0.75000
vt 0.38750 0.75579
vt 0.38750 0.99421
vt 0.38750 1.00000
vt 0.38821 1.00000
vt 0.40625 0.00000
vt 0.40625 0.01287
vt 0.40625 0.23713
vt 0.40625 0.25000
vt 0.40625 0.25795
vt 0.40625 0.49205
vt 0.40625 0.50000
vt 0.40625 0.51287
vt 0.40625 0.73713
vt 0.40625 0.75000
vt 0.40625 0.75795
vt 0.40625 0.99204
vt 0.40625 1.00000
vt 0.59375 0.00000
vt 0.59375 0.01287
vt 0.59375 0.23713
vt 0.59375 0.25000
vt 0.59375 0.25795
vt 0.59375 0.49205
vt 0.59375 0.50000
vt 0.59375 0.51287
vt 0.59375 0.73713
vt 0.59375 0.75000
vt 0.59375 0.75795
vt 0.59375 0.99205
vt 0.59375 1.00000
vt 0.61179 0.00000
vt 0.61250 0.00000
vt 0.61250 0.00947
vt 0.61250 0.24053
vt 0.61250 0.25000
vt 0.61250 0.25579
vt 0.61250 0.49421
vt 0.61250 0.50000
vt 0.61250 0.50947
vt 0.61250 0.74053
vt 0.61250 0.75000
vt 0.61250 0.75579
vt 0.61250 0.99421
vt 0.61250 1.00000
vt 0.61500 0.00000
vt 0.61500 0.04167
vt 0.61500 0.20833
vt 0.61500 0.25000
vt 0.61500 0.26136
vt 0.61500 0.48864
vt 0.61500 0.50000
vt 0.61500 0.54167
vt 0.61500 0.70833
vt 0.61500 0.75000
vt 0.61500 0.76136
vt 0.61500 0.98864
vt 0.61500 1.00000
vt 0.61840 0.24728
vt 0.61972 0.00000
vt 0.62060 0.50069
vt 0.62077 0.00000
vt 0.62172 0.74819
vt 0.62236 0.24800
vt 0.62289 0.24119
vt 0.62324 0.50052
vt 0.62359 0.50427
vt 0.62405 0.74867
vt 0.62500 0.00947
vt 0.62500 0.01287
vt 0.62500 0.04167
vt 0.62500 0.20833
vt 0.62500 0.23713
vt 0.62500 0.24053
vt 0.62500 0.25579
vt 0.62500 0.25795
vt 0.62500 0.26136
vt 0.62500 0.50947
vt 0.62500 0.51287
vt 0.62500 0.54167
vt 0.62500 0.70833
vt 0.62500 0.73713
vt 0.62500 0.74053
vt 0.62500 0.98864
vt 0.62500 0.99204
vt 0.62500 0.99421
vt 0.62500 0.99520
vt 0.62500 0.99664
vt 0.62500 0.99755
vt 0.62519 0.74413
vt 0.62789 0.49711
vt 0.62789 0.75289
vt 0.62898 0.49602
vt 0.62898 0.75398
vt 0.63068 0.49432
vt 0.63068 0.75568
vt 0.63079 0.50947
vt 0.63079 0.74053
vt 0.63295 0.73713
vt 0.63296 0.51287
vt 0.63636 0.54167
vt 0.63636 0.70833
vt 0.86364 0.50000
vt 0.86364 0.54167
vt 0.86364 0.70833
vt 0.86364 0.75000
vt 0.86704 0.51287
vt 0.86704 0.73713
vt 0.86705 0.50000
vt 0.86705 0.75000
vt 0.86921 0.50000
vt 0.86921 0.50947
vt 0.86921 0.74053
vt 0.86921 0.75000
vt 0.87020 0.50000
vt 0.87164 0.50000
vt 0.87255 0.50000
vt 0.87500 0.50947
vt 0.87500 0.51287
vt 0.87500 0.54167
vt 0.87500 0.70833
vt 0.87500 0.73239
vt 0.87500 0.73713
vt 0.87500 0.74053
vt 0.87500 0.74456
vt 0.87500 0.74600
s 0
g arpg_chest_lod1_body_M_brown
usemtl M_brown
f 1/15/1 5/10/1 7/9/1
f 1/15/25 18/3/25 15/14/25
f 1/15/25 7/9/25 18/3/25
f 1/15/55 4/16/55 5/10/55
f 10/124/50 16/84/50 3/83/50
f 10/124/50 24/125/50 16/84/50
f 10/124/6 12/150/6 13/159/6
f 10/124/60 14/123/60 12/150/60
f 11/176/48 37/133/48 39/182/48
f 11/176/48 8/134/48 37/133/48
f 14/123/28 10/124/28 3/83/28
f 14/123/28 3/83/28 6/82/28
f 15/14/33 21/13/33 46/35/33
f 15/14/33 46/35/33 43/29/33
f 15/14/61 18/3/61 19/1/61
f 15/14/7 19/1/7 21/13/7
f 16/84/62 20/85/62 19/63/62
f 16/84/8 19/63/8 18/46/8
f 17/86/31 20/85/31 27/126/31
f 17/86/31 27/126/31 23/127/31
f 17/86/63 21/47/63 19/63/63
f 17/86/9 19/63/9 20/85/9
f 2/93/2 5/67/2 4/58/2
f 2/93/56 6/94/56 5/67/56
f 20/85/32 16/84/32 24/125/32
f 20/85/32 24/125/32 27/126/32
f 21/47/34 17/86/34 44/87/34
f 21/47/34 44/87/34 46/35/34
f 22/202/10 26/207/10 28/208/10
f 22/202/29 13/214/29 9/203/29
f 22/202/29 28/208/29 13/214/29
f 22/202/52 36/188/52 50/187/52
f 22/202/52 9/203/52 36/188/52
f 22/202/64 25/201/64 26/207/64
f 23/127/11 26/154/11 25/165/11
f 23/127/53 44/87/53 17/86/53
f 23/127/53 52/128/53 44/87/53
f 23/127/65 27/126/65 26/154/65
f 24/125/12 26/154/12 27/126/12
f 24/125/66 28/164/66 26/154/66
f 28/164/30 10/124/30 13/159/30
f 28/164/30 24/125/30 10/124/30
f 29/30/13 33/61/13 35/36/13
f 29/30/45 35/36/45 4/16/45
f 29/30/45 4/16/45 1/15/45
f 29/30/67 32/55/67 33/61/67
f 3/83/3 5/38/3 6/82/3
f 3/83/57 7/40/57 5/38/57
f 30/90/14 33/61/14 32/55/14
f 30/90/68 34/91/68 33/61/68
f 31/92/15 33/61/15 34/91/15
f 31/92/43 34/91/43 41/132/43
f 31/92/43 41/132/43 37/133/43
f 31/92/69 35/36/69 33/61/69
f 34/91/44 30/90/44 38/131/44
f 34/91/44 38/131/44 41/132/44
f 35/36/46 2/93/46 4/58/46
f 35/36/46 31/92/46 2/93/46
f 36/188/16 40/158/16 42/173/16
f 36/188/41 42/173/41 53/168/41
f 36/188/41 53/168/41 50/187/41
f 36/188/70 39/182/70 40/158/70
f 37/133/17 40/158/17 39/182/17
f 37/133/51 2/93/51 31/92/51
f 37/133/51 8/134/51 2/93/51
f 37/133/71 41/132/71 40/158/71
f 38/131/18 40/158/18 41/132/18
f 38/131/72 42/173/72 40/158/72
f 42/173/42 38/131/42 51/130/42
f 42/173/42 51/130/42 53/168/42
f 43/29/19 47/59/19 49/50/19
f 43/29/39 32/55/39 29/30/39
f 43/29/39 49/50/39 32/55/39
f 43/29/49 1/15/49 15/14/49
f 43/29/49 29/30/49 1/15/49
f 43/29/73 46/35/73 47/59/73
f 44/87/20 47/59/20 46/35/20
f 44/87/74 48/88/74 47/59/74
f 45/89/21 47/59/21 48/88/21
f 45/89/37 48/88/37 55/129/37
f 45/89/37 55/129/37 51/130/37
f 45/89/75 49/50/75 47/59/75
f 48/88/38 44/87/38 52/128/38
f 48/88/38 52/128/38 55/129/38
f 49/50/40 30/90/40 32/55/40
f 49/50/40 45/89/40 30/90/40
f 50/187/22 54/156/22 56/181/22
f 50/187/35 25/201/35 22/202/35
f 50/187/35 56/181/35 25/201/35
f 50/187/76 53/168/76 54/156/76
f 51/130/23 54/156/23 53/168/23
f 51/130/54 30/90/54 45/89/54
f 51/130/54 38/131/54 30/90/54
f 51/130/77 55/129/77 54/156/77
f 52/128/24 54/156/24 55/129/24
f 52/128/78 56/181/78 54/156/78
f 56/181/36 23/127/36 25/165/36
f 56/181/36 52/128/36 23/127/36
f 7/40/26 16/84/26 18/46/26
f 7/40/26 3/83/26 16/84/26
f 8/134/27 14/135/27 6/94/27
f 8/134/27 6/94/27 2/93/27
f 8/134/4 12/179/4 14/135/4
f 8/134/58 11/176/58 12/179/58
f 9/203/47 11/204/47 39/182/47
f 9/203/47 39/182/47 36/188/47
f 9/203/5 12/216/5 11/204/5
f 9/203/59 13/214/59 12/216/59
g arpg_chest_lod1_lid_Cube.141
v 0.515000 0.500000 -0.305000
v 0.515000 0.535000 -0.340000
v 0.550000 0.535000 -0.305000
v 0.515000 0.510251 -0.329749
v 0.535207 0.514793 -0.325207
v 0.539749 0.535000 -0.329749
v 0.539749 0.510251 -0.305000
v 0.515000 0.745000 -0.340000
v 0.515000 0.780000 -0.305000
v 0.550000 0.745000 -0.305000
v 0.515000 0.769749 -0.329749
v 0.535207 0.765207 -0.325207
v 0.539749 0.769749 -0.305000
v 0.539749 0.745000 -0.329749
v 0.515000 0.500000 0.305000
v 0.550000 0.535000 0.305000
v 0.515000 0.535000 0.340000
v 0.539749 0.510251 0.305000
v 0.535207 0.514793 0.325207
v 0.539749 0.535000 0.329749
v 0.515000 0.510251 0.329749
v 0.515000 0.780000 0.305000
v 0.515000 0.745000 0.340000
v 0.550000 0.745000 0.305000
v 0.515000 0.769749 0.329749
v 0.535207 0.765207 0.325207
v 0.539749 0.745000 0.329749
v 0.539749 0.769749 0.305000
v -0.515000 0.500000 -0.305000
v -0.550000 0.535000 -0.305000
v -0.515000 0.535000 -0.340000
v -0.539749 0.510251 -0.305000
v -0.535207 0.514793 -0.325207
v -0.539749 0.535000 -0.329749
v -0.515000 0.510251 -0.329749
v -0.515000 0.780000 -0.305000
v -0.515000 0.745000 -0.340000
v -0.550000 0.745000 -0.305000
v -0.515000 0.769749 -0.329749
v -0.535207 0.765207 -0.325207
v -0.539749 0.745000 -0.329749
v -0.539749 0.769749 -0.305000
v -0.515000 0.500000 0.305000
v -0.515000 0.535000 0.340000
v -0.550000 0.535000 0.305000
v -0.515000 0.510251 0.329749
v -0.535207 0.514793 0.325207
v -0.539749 0.535000 0.329749
v -0.539749 0.510251 0.305000
v -0.515000 0.780000 0.305000
v -0.550000 0.745000 0.305000
v -0.515000 0.745000 0.340000
v -0.539749 0.769749 0.305000
v -0.535207 0.765207 0.325207
v -0.539749 0.745000 0.329749
v -0.515000 0.769749 0.329749
vn 0.3672 -0.8865 -0.2817
vn 0.2817 -0.3672 -0.8865
vn 0.8865 -0.2817 -0.3672
vn 0.3672 0.2818 -0.8865
vn 0.2817 0.8865 -0.3672
vn 0.8865 0.3672 -0.2818
vn 0.2817 -0.8865 0.3672
vn 0.8865 -0.3672 0.2818
vn 0.3672 -0.2818 0.8865
vn 0.3672 0.8865 0.2817
vn 0.2817 0.3672 0.8865
vn 0.8865 0.2817 0.3672
vn -0.2817 -0.8865 -0.3672
vn -0.8865 -0.3672 -0.2818
vn -0.3672 -0.2818 -0.8865
vn -0.3672 0.8865 -0.2817
vn -0.2817 0.3672 -0.8865
vn -0.8865 0.2817 -0.3672
vn -0.3672 -0.8865 0.2817
vn -0.2817 -0.3672 0.8865
vn -0.8865 -0.2817 0.3672
vn -0.2817 0.8865 0.3672
vn -0.8865 0.3672 0.2818
vn -0.3672 0.2818 0.8865
vn 0.3827 -0.9239 -0.0000
vn 0.9239 -0.3827 -0.0000
vn 0.3827 -0.0000 -0.9239
vn 0.9239 -0.0000 -0.3827
vn 0.3827 0.9239 -0.0000
vn 0.9239 0.3827 -0.0000
vn 0.3827 -0.0000 0.9239
vn 0.9239 -0.0000 0.3827
vn -0.0000 -0.9239 0.3827
vn -0.0000 -0.3827 0.9239
vn -0.0000 0.9239 0.3827
vn -0.0000 0.3827 0.9239
vn -0.9239 -0.0000 0.3827
vn -0.3827 -0.0000 0.9239
vn -0.3827 -0.9239 -0.0000
vn -0.9239 -0.3827 -0.0000
vn -0.3827 0.9239 -0.0000
vn -0.9239 0.3827 -0.0000
vn -0.3827 -0.0000 -0.9239
vn -0.9239 -0.0000 -0.3827
vn -0.0000 -0.9239 -0.3827
vn -0.0000 -0.3827 -0.9239
vn -0.0000 0.9239 -0.3827
vn -0.0000 0.3827 -0.9239
vn -0.0000 -1.0000 -0.0000
vn 1.0000 -0.0000 -0.0000
vn -0.0000 -0.0000 -1.0000
vn -0.0000 1.0000 -0.0000
vn -0.0000 -0.0000 1.0000
vn -1.0000 -0.0000 -0.0000
vn 0.2817 -0.8865 -0.3672
vn 0.3672 -0.2818 -0.8865
vn 0.8865 -0.3672 -0.2818
vn 0.2817 0.3672 -0.8865
vn 0.3672 0.8865 -0.2817
vn 0.8865 0.2817 -0.3672
vn 0.3672 -0.8865 0.2817
vn 0.8865 -0.2817 0.3672
vn 0.2817 -0.3672 0.8865
vn 0.2817 0.8865 0.3672
vn 0.3672 0.2818 0.8865
vn 0.8865 0.3672 0.2818
vn -0.3672 -0.8865 -0.2817
vn -0.8865 -0.2817 -0.3672
vn -0.2817 -0.3672 -0.8865
vn -0.2817 0.8865 -0.3672
vn -0.3672 0.2818 -0.8865
vn -0.8865 0.3672 -0.2818
vn -0.2817 -0.8865 0.3672
vn -0.3672 -0.2818 0.8865
vn -0.8865 -0.3672 0.2818
vn -0.3672 0.8865 0.2817
vn -0.8865 0.2817 0.3672
vn -0.2817 0.3672 0.8865
s 0
g arpg_chest_lod1_lid_M_wood
usemtl M_wood
f 100/101/152 104/102/152 103/64/152
f 100/101/98 103/64/98 102/33/98
f 101/103/115 104/102/115 111/115/115
f 101/103/115 111/115/115 107/116/115
f 101/103/153 105/51/153 103/64/153
f 101/103/99 103/64/99 104/102/99
f 104/102/116 100/101/116 108/114/116
f 104/102/116 108/114/116 111/115/116
f 105/51/118 101/103/118 86/104/118
f 105/51/118 86/104/118 88/54/118
f 106/190/100 110/151/100 112/183/100
f 106/190/113 112/183/113 81/199/113
f 106/190/113 81/199/113 78/197/113
f 106/190/154 109/169/154 110/151/154
f 107/116/101 110/151/101 109/169/101
f 107/116/132 86/104/132 101/103/132
f 107/116/132 94/117/132 86/104/132
f 107/116/155 111/115/155 110/151/155
f 108/114/102 110/151/102 111/115/102
f 108/114/156 112/183/156 110/151/156
f 112/183/114 108/114/114 79/113/114
f 112/183/114 79/113/114 81/166/114
f 57/19/103 63/8/103 74/4/103
f 57/19/103 74/4/103 71/18/103
f 57/19/133 60/20/133 61/11/133
f 57/19/79 61/11/79 63/8/79
f 58/107/134 62/108/134 61/95/134
f 58/107/80 61/95/80 60/57/80
f 59/97/135 63/41/135 61/39/135
f 59/97/81 61/39/81 62/96/81
f 63/41/104 59/97/104 72/98/104
f 63/41/104 72/98/104 74/45/104
f 64/120/105 62/108/105 58/107/105
f 64/120/105 70/121/105 62/108/105
f 64/120/136 67/175/136 68/178/136
f 64/120/82 68/178/82 70/121/82
f 65/198/125 67/200/125 95/184/125
f 65/198/125 95/184/125 92/189/125
f 65/198/137 69/213/137 68/215/137
f 65/198/83 68/215/83 67/200/83
f 66/110/128 72/98/128 59/97/128
f 66/110/128 80/111/128 72/98/128
f 66/110/138 70/109/138 68/122/138
f 66/110/84 68/122/84 69/160/84
f 67/175/126 64/120/126 93/119/126
f 67/175/126 93/119/126 95/184/126
f 70/109/106 59/97/106 62/96/106
f 70/109/106 66/110/106 59/97/106
f 71/18/111 102/33/111 99/27/111
f 71/18/111 77/17/111 102/33/111
f 71/18/139 74/4/139 75/2/139
f 71/18/85 75/2/85 77/17/85
f 72/98/140 76/99/140 75/68/140
f 72/98/86 75/68/86 74/45/86
f 73/100/109 76/99/109 83/112/109
f 73/100/109 83/112/109 79/113/109
f 73/100/141 77/48/141 75/68/141
f 73/100/87 75/68/87 76/99/87
f 76/99/110 72/98/110 80/111/110
f 76/99/110 80/111/110 83/112/110
f 77/48/112 100/101/112 102/33/112
f 77/48/112 73/100/112 100/101/112
f 78/197/107 69/213/107 65/198/107
f 78/197/107 84/209/107 69/213/107
f 78/197/130 65/198/130 92/189/130
f 78/197/130 92/189/130 106/190/130
f 78/197/142 81/199/142 82/206/142
f 78/197/88 82/206/88 84/209/88
f 79/113/131 100/101/131 73/100/131
f 79/113/131 108/114/131 100/101/131
f 79/113/143 83/112/143 82/149/143
f 79/113/89 82/149/89 81/166/89
f 80/111/144 84/163/144 82/149/144
f 80/111/90 82/149/90 83/112/90
f 84/163/108 66/110/108 69/160/108
f 84/163/108 80/111/108 66/110/108
f 85/28/123 60/20/123 57/19/123
f 85/28/123 91/34/123 60/20/123
f 85/28/145 88/54/145 89/66/145
f 85/28/91 89/66/91 91/34/91
f 86/104/146 90/105/146 89/66/146
f 86/104/92 89/66/92 88/54/92
f 87/106/121 90/105/121 97/118/121
f 87/106/121 97/118/121 93/119/121
f 87/106/147 91/34/147 89/66/147
f 87/106/93 89/66/93 90/105/93
f 90/105/122 86/104/122 94/117/122
f 90/105/122 94/117/122 97/118/122
f 91/34/124 58/107/124 60/57/124
f 91/34/124 87/106/124 58/107/124
f 92/189/119 109/169/119 106/190/119
f 92/189/119 98/172/119 109/169/119
f 92/189/148 95/184/148 96/153/148
f 92/189/94 96/153/94 98/172/94
f 93/119/129 58/107/129 87/106/129
f 93/119/129 64/120/129 58/107/129
f 93/119/149 97/118/149 96/153/149
f 93/119/95 96/153/95 95/184/95
f 94/117/150 98/172/150 96/153/150
f 94/117/96 96/153/96 97/118/96
f 98/172/120 107/116/120 109/169/120
f 98/172/120 94/117/120 107/116/120
f 99/27/117 105/51/117 88/54/117
f 99/27/117 88/54/117 85/28/117
f 99/27/127 57/19/127 71/18/127
f 99/27/127 85/28/127 57/19/127
f 99/27/151 102/33/151 103/64/151
f 99/27/97 103/64/97 105/51/97
g arpg_chest_lod1_lock_Cube.142
v 0.100000 0.315000 -0.380000
v 0.100000 0.325000 -0.390000
v 0.110000 0.325000 -0.380000
v 0.100000 0.317929 -0.387071
v 0.105774 0.319227 -0.385774
v 0.107071 0.325000 -0.387071
v 0.107071 0.317929 -0.380000
v 0.100000 0.555000 -0.390000
v 0.100000 0.565000 -0.380000
v 0.110000 0.555000 -0.380000
v 0.100000 0.562071 -0.387071
v 0.105774 0.560773 -0.385774
v 0.107071 0.562071 -0.380000
v 0.107071 0.555000 -0.387071
v 0.100000 0.315000 -0.340000
v 0.110000 0.325000 -0.340000
v 0.100000 0.325000 -0.330000
v 0.107071 0.317929 -0.340000
v 0.105774 0.319227 -0.334227
v 0.107071 0.325000 -0.332929
v 0.100000 0.317929 -0.332929
v 0.100000 0.565000 -0.340000
v 0.100000 0.555000 -0.330000
v 0.110000 0.555000 -0.340000
v 0.100000 0.562071 -0.332929
v 0.105774 0.560773 -0.334227
v 0.107071 0.555000 -0.332929
v 0.107071 0.562071 -0.340000
v -0.100000 0.315000 -0.380000
v -0.110000 0.325000 -0.380000
v -0.100000 0.325000 -0.390000
v -0.107071 0.317929 -0.380000
v -0.105774 0.319227 -0.385774
v -0.107071 0.325000 -0.387071
v -0.100000 0.317929 -0.387071
v -0.100000 0.565000 -0.380000
v -0.100000 0.555000 -0.390000
v -0.110000 0.555000 -0.380000
v -0.100000 0.562071 -0.387071
v -0.105774 0.560773 -0.385774
v -0.107071 0.555000 -0.387071
v -0.107071 0.562071 -0.380000
v -0.100000 0.315000 -0.340000
v -0.100000 0.325000 -0.330000
v -0.110000 0.325000 -0.340000
v -0.100000 0.317929 -0.332929
v -0.105774 0.319227 -0.334227
v -0.107071 0.325000 -0.332929
v -0.107071 0.317929 -0.340000
v -0.100000 0.565000 -0.340000
v -0.110000 0.555000 -0.340000
v -0.100000 0.555000 -0.330000
v -0.107071 0.562071 -0.340000
v -0.105774 0.560773 -0.334227
v -0.107071 0.555000 -0.332929
v -0.100000 0.562071 -0.332929
vn 0.3672 -0.8865 -0.2817
vn 0.2817 -0.3672 -0.8865
vn 0.8865 -0.2817 -0.3672
vn 0.3672 0.2817 -0.8865
vn 0.2817 0.8865 -0.3672
vn 0.8865 0.3672 -0.2817
vn 0.2817 -0.8865 0.3672
vn 0.8865 -0.3672 0.2817
vn 0.3672 -0.2817 0.8865
vn 0.3672 0.8865 0.2817
vn 0.2817 0.3672 0.8865
vn 0.8865 0.2817 0.3672
vn -0.2817 -0.8865 -0.3672
vn -0.8865 -0.3672 -0.2817
vn -0.3672 -0.2817 -0.8865
vn -0.3672 0.8865 -0.2817
vn -0.2817 0.3672 -0.8865
vn -0.8865 0.2817 -0.3672
vn -0.3672 -0.8865 0.2817
vn -0.2817 -0.3672 0.8865
vn -0.8865 -0.2817 0.3672
vn -0.2817 0.8865 0.3672
vn -0.8865 0.3672 0.2817
vn -0.3672 0.2817 0.8865
vn 0.3827 -0.9239 -0.0000
vn 0.9239 -0.3827 -0.0000
vn 0.3827 -0.0000 -0.9239
vn 0.9239 -0.0000 -0.3827
vn 0.3827 0.9239 -0.0000
vn 0.9239 0.3827 -0.0000
vn 0.3827 -0.0000 0.9239
vn 0.9239 -0.0000 0.3827
vn -0.0000 -0.9239 0.3827
vn -0.0000 -0.3827 0.9239
vn -0.0000 0.9239 0.3827
vn -0.0000 0.3827 0.9239
vn -0.9239 -0.0000 0.3827
vn -0.3827 -0.0000 0.9239
vn -0.3827 -0.9239 -0.0000
vn -0.9239 -0.3827 -0.0000
vn -0.3827 0.9239 -0.0000
vn -0.9239 0.3827 -0.0000
vn -0.3827 -0.0000 -0.9239
vn -0.9239 -0.0000 -0.3827
vn -0.0000 -0.9239 -0.3827
vn -0.0000 -0.3827 -0.9239
vn -0.0000 0.9239 -0.3827
vn -0.0000 0.3827 -0.9239
vn -0.0000 -1.0000 -0.0000
vn 1.0000 -0.0000 -0.0000
vn -0.0000 -0.0000 -1.0000
vn -0.0000 1.0000 -0.0000
vn -0.0000 -0.0000 1.0000
vn -1.0000 -0.0000 -0.0000
vn 0.2817 -0.8865 -0.3672
vn 0.3672 -0.2817 -0.8865
vn 0.8865 -0.3672 -0.2817
vn 0.2817 0.3672 -0.8865
vn 0.3672 0.8865 -0.2817
vn 0.8865 0.2817 -0.3672
vn 0.3672 -0.8865 0.2817
vn 0.8865 -0.2817 0.3672
vn 0.2817 -0.3672 0.8865
vn 0.2817 0.8865 0.3672
vn 0.3672 0.2817 0.8865
vn 0.8865 0.3672 0.2817
vn -0.3672 -0.8865 -0.2817
vn -0.8865 -0.2817 -0.3672
vn -0.2817 -0.3672 -0.8865
vn -0.2817 0.8865 -0.3672
vn -0.3672 0.2817 -0.8865
vn -0.8865 0.3672 -0.2817
vn -0.2817 -0.8865 0.3672
vn -0.3672 -0.2817 0.8865
vn -0.8865 -0.3672 0.2817
vn -0.3672 0.8865 0.2817
vn -0.8865 0.2817 0.3672
vn -0.2817 0.3672 0.8865
s 0
g arpg_chest_lod1_lock_M_gold
usemtl M_gold
f 113/23/157 117/12/157 119/7/157
f 113/23/211 116/24/211 117/12/211
f 114/80/158 117/65/158 116/56/158
f 114/80/212 118/81/212 117/65/212
f 115/70/159 117/42/159 118/69/159
f 115/70/213 119/43/213 117/42/213
f 119/43/182 115/70/182 128/71/182
f 119/43/182 128/71/182 130/44/182
f 120/147/160 124/177/160 126/148/160
f 120/147/183 118/81/183 114/80/183
f 120/147/183 126/148/183 118/81/183
f 120/147/214 123/174/214 124/177/214
f 121/195/161 124/212/161 123/196/161
f 121/195/203 123/196/203 151/186/203
f 121/195/203 151/186/203 148/192/203
f 121/195/215 125/211/215 124/212/215
f 122/137/162 124/152/162 125/161/162
f 122/137/206 128/71/206 115/70/206
f 122/137/206 136/138/206 128/71/206
f 122/137/216 126/136/216 124/152/216
f 123/174/204 120/147/204 149/146/204
f 123/174/204 149/146/204 151/186/204
f 126/136/184 115/70/184 118/69/184
f 126/136/184 122/137/184 115/70/184
f 127/22/163 131/5/163 133/21/163
f 127/22/181 113/23/181 119/7/181
f 127/22/181 119/7/181 130/6/181
f 127/22/189 133/21/189 158/31/189
f 127/22/189 158/31/189 155/25/189
f 127/22/217 130/6/217 131/5/217
f 128/71/164 131/62/164 130/44/164
f 128/71/218 132/72/218 131/62/218
f 129/73/165 131/62/165 132/72/165
f 129/73/187 132/72/187 139/139/187
f 129/73/187 139/139/187 135/140/187
f 129/73/219 133/49/219 131/62/219
f 132/72/188 128/71/188 136/138/188
f 132/72/188 136/138/188 139/139/188
f 133/49/190 129/73/190 156/74/190
f 133/49/190 156/74/190 158/31/190
f 134/194/166 138/205/166 140/210/166
f 134/194/185 125/211/185 121/195/185
f 134/194/185 140/210/185 125/211/185
f 134/194/208 121/195/208 148/192/208
f 134/194/208 148/192/208 162/191/208
f 134/194/220 137/193/220 138/205/220
f 135/140/167 138/155/167 137/167/167
f 135/140/209 156/74/209 129/73/209
f 135/140/209 164/141/209 156/74/209
f 135/140/221 139/139/221 138/155/221
f 136/138/168 138/155/168 139/139/168
f 136/138/222 140/162/222 138/155/222
f 140/162/186 122/137/186 125/161/186
f 140/162/186 136/138/186 122/137/186
f 141/26/169 145/60/169 147/32/169
f 141/26/195 155/25/195 161/52/195
f 141/26/195 161/52/195 144/53/195
f 141/26/201 116/24/201 113/23/201
f 141/26/201 147/32/201 116/24/201
f 141/26/223 144/53/223 145/60/223
f 142/77/170 145/60/170 144/53/170
f 142/77/224 146/78/224 145/60/224
f 143/79/171 145/60/171 146/78/171
f 143/79/199 146/78/199 153/145/199
f 143/79/199 153/145/199 149/146/199
f 143/79/225 147/32/225 145/60/225
f 146/78/200 142/77/200 150/144/200
f 146/78/200 150/144/200 153/145/200
f 147/32/202 114/80/202 116/56/202
f 147/32/202 143/79/202 114/80/202
f 148/192/172 152/180/172 154/171/172
f 148/192/226 151/186/226 152/180/226
f 149/146/173 152/180/173 151/186/173
f 149/146/207 114/80/207 143/79/207
f 149/146/207 120/147/207 114/80/207
f 149/146/227 153/145/227 152/180/227
f 150/144/174 152/180/174 153/145/174
f 150/144/228 154/171/228 152/180/228
f 154/171/198 150/144/198 163/143/198
f 154/171/198 163/143/198 165/170/198
f 155/25/175 159/37/175 161/52/175
f 155/25/205 113/23/205 127/22/205
f 155/25/205 141/26/205 113/23/205
f 155/25/229 158/31/229 159/37/229
f 156/74/176 159/37/176 158/31/176
f 156/74/230 160/75/230 159/37/230
f 157/76/177 159/37/177 160/75/177
f 157/76/193 160/75/193 167/142/193
f 157/76/193 167/142/193 163/143/193
f 157/76/231 161/52/231 159/37/231
f 160/75/194 156/74/194 164/141/194
f 160/75/194 164/141/194 167/142/194
f 161/52/196 142/77/196 144/53/196
f 161/52/196 157/76/196 142/77/196
f 162/191/178 166/157/178 168/185/178
f 162/191/191 137/193/191 134/194/191
f 162/191/191 168/185/191 137/193/191
f 162/191/197 148/192/197 154/171/197
f 162/191/197 154/171/197 165/170/197
f 162/191/232 165/170/232 166/157/232
f 163/143/179 166/157/179 165/170/179
f 163/143/210 142/77/210 157/76/210
f 163/143/210 150/144/210 142/77/210
f 163/143/233 167/142/233 166/157/233
f 164/141/180 166/157/180 167/142/180
f 164/141/234 168/185/234 166/157/234
f 168/185/192 135/140/192 137/167/192
f 168/185/192 164/141/192 135/140/192
