# Blender 5.2.0 LTS
# www.blender.org
mtllib summoner_ritual_brazier.mtl
g arpg_brazier_foot_Cylinder.068
v 0.000000 0.000000 0.406541
v 0.000000 0.013000 0.420000
v 0.000000 0.003808 0.416058
v 0.000000 0.130000 0.406541
v 0.000000 0.117000 0.420000
v 0.000000 0.126192 0.416058
v -0.203271 0.000000 0.352075
v -0.210000 0.013000 0.363731
v -0.208029 0.003808 0.360317
v -0.203271 0.130000 0.352075
v -0.210000 0.117000 0.363731
v -0.208029 0.126192 0.360317
v -0.352075 0.000000 0.203271
v -0.363731 0.013000 0.210000
v -0.360317 0.003808 0.208029
v -0.352075 0.130000 0.203271
v -0.363731 0.117000 0.210000
v -0.360317 0.126192 0.208029
v -0.406541 0.000000 0.000000
v -0.420000 0.013000 0.000000
v -0.416058 0.003808 0.000000
v -0.406541 0.130000 0.000000
v -0.420000 0.117000 0.000000
v -0.416058 0.126192 0.000000
v -0.352075 0.000000 -0.203271
v -0.363731 0.013000 -0.210000
v -0.360317 0.003808 -0.208029
v -0.352075 0.130000 -0.203271
v -0.363731 0.117000 -0.210000
v -0.360317 0.126192 -0.208029
v -0.203271 0.000000 -0.352075
v -0.210000 0.013000 -0.363731
v -0.208029 0.003808 -0.360317
v -0.203271 0.130000 -0.352075
v -0.210000 0.117000 -0.363731
v -0.208029 0.126192 -0.360317
v 0.000000 0.000000 -0.406541
v 0.000000 0.013000 -0.420000
v 0.000000 0.003808 -0.416058
v 0.000000 0.130000 -0.406541
v 0.000000 0.117000 -0.420000
v 0.000000 0.126192 -0.416058
v 0.203271 0.000000 -0.352075
v 0.210000 0.013000 -0.363731
v 0.208029 0.003808 -0.360317
v 0.203271 0.130000 -0.352075
v 0.210000 0.117000 -0.363731
v 0.208029 0.126192 -0.360317
v 0.352075 0.000000 -0.203271
v 0.363731 0.013000 -0.210000
v 0.360317 0.003808 -0.208029
v 0.352075 0.130000 -0.203271
v 0.363731 0.117000 -0.210000
v 0.360317 0.126192 -0.208029
v 0.406541 0.000000 0.000000
v 0.420000 0.013000 0.000000
v 0.416058 0.003808 0.000000
v 0.406541 0.130000 0.000000
v 0.420000 0.117000 0.000000
v 0.416058 0.126192 0.000000
v 0.352075 0.000000 0.203271
v 0.363731 0.013000 0.210000
v 0.360317 0.003808 0.208029
v 0.352075 0.130000 0.203271
v 0.363731 0.117000 0.210000
v 0.360317 0.126192 0.208029
v 0.203271 0.000000 0.352075
v 0.210000 0.013000 0.363731
v 0.208029 0.003808 0.360317
v 0.203271 0.130000 0.352075
v 0.210000 0.117000 0.363731
v 0.208029 0.126192 0.360317
vn -0.2391 -0.3827 0.8924
vn -0.0990 -0.9239 0.3696
vn -0.2391 0.3827 0.8924
vn -0.0990 0.9239 0.3696
vn -0.6533 -0.3827 0.6533
vn -0.2706 -0.9239 0.2706
vn -0.6533 0.3827 0.6533
vn -0.2706 0.9239 0.2706
vn -0.8924 -0.3827 0.2391
vn -0.3696 -0.9239 0.0990
vn -0.8924 0.3827 0.2391
vn -0.3696 0.9239 0.0990
vn -0.8924 -0.3827 -0.2391
vn -0.3696 -0.9239 -0.0990
vn -0.8924 0.3827 -0.2391
vn -0.3696 0.9239 -0.0990
vn -0.6533 -0.3827 -0.6533
vn -0.2706 -0.9239 -0.2706
vn -0.6533 0.3827 -0.6533
vn -0.2706 0.9239 -0.2706
vn -0.2391 -0.3827 -0.8924
vn -0.0990 -0.9239 -0.3696
vn -0.2391 0.3827 -0.8924
vn -0.0990 0.9239 -0.3696
vn 0.2391 -0.3827 -0.8924
vn 0.0990 -0.9239 -0.3696
vn 0.2391 0.3827 -0.8924
vn 0.0990 0.9239 -0.3696
vn 0.6533 -0.3827 -0.6533
vn 0.2706 -0.9239 -0.2706
vn 0.6533 0.3827 -0.6533
vn 0.2706 0.9239 -0.2706
vn 0.8924 -0.3827 -0.2391
vn 0.3696 -0.9239 -0.0990
vn 0.8924 0.3827 -0.2391
vn 0.3696 0.9239 -0.0990
vn 0.8924 -0.3827 0.2391
vn 0.3696 -0.9239 0.0990
vn 0.8924 0.3827 0.2391
vn 0.3696 0.9239 0.0990
vn 0.6533 -0.3827 0.6533
vn 0.2706 -0.9239 0.2706
vn 0.6533 0.3827 0.6533
vn 0.2706 0.9239 0.2706
vn 0.2391 -0.3827 0.8924
vn 0.0990 -0.9239 0.3696
vn 0.2391 0.3827 0.8924
vn 0.0990 0.9239 0.3696
vn -0.0000 -1.0000 -0.0000
vn -0.2588 -0.0000 0.9659
vn 0.2588 -0.0000 0.9659
vn -0.0000 1.0000 -0.0000
vn -0.7071 -0.0000 0.7071
vn -0.9659 -0.0000 0.2588
vn -0.9659 -0.0000 -0.2588
vn -0.7071 -0.0000 -0.7071
vn -0.2588 -0.0000 -0.9659
vn 0.2588 -0.0000 -0.9659
vn 0.7071 -0.0000 -0.7071
vn 0.9659 -0.0000 -0.2588
vn 0.9659 -0.0000 0.2588
vn 0.7071 -0.0000 0.7071
vt 0.00000 0.00000
vt 0.00000 0.12500
vt 0.00000 0.25000
vt 0.00000 0.37500
vt 0.00000 0.50000
vt 0.00000 0.54167
vt 0.00000 0.55000
vt 0.00000 0.62500
vt 0.00000 0.75000
vt 0.00000 0.87500
vt 0.00000 0.95000
vt 0.00000 0.95833
vt 0.00000 1.00000
vt 0.00029 0.50000
vt 0.00029 1.00000
vt 0.00039 0.50000
vt 0.00039 1.00000
vt 0.01000 0.25000
vt 0.01009 0.25000
vt 0.01015 0.25000
vt 0.01365 0.29168
vt 0.01602 0.19659
vt 0.01765 0.25000
vt 0.01769 0.25000
vt 0.02835 0.15819
vt 0.02835 0.34181
vt 0.03533 0.16108
vt 0.03533 0.33892
vt 0.04215 0.13000
vt 0.04229 0.13007
vt 0.04229 0.36993
vt 0.04881 0.13384
vt 0.04881 0.36616
vt 0.05000 0.00000
vt 0.05000 0.12500
vt 0.05000 0.25000
vt 0.05000 0.37500
vt 0.05000 0.50000
vt 0.05000 0.62500
vt 0.05000 0.75000
vt 0.05000 0.87500
vt 0.05000 1.00000
vt 0.06236 0.39964
vt 0.06250 0.50000
vt 0.06250 0.54167
vt 0.06250 0.95833
vt 0.06250 1.00000
vt 0.08029 0.08029
vt 0.08029 0.41971
vt 0.08035 0.08035
vt 0.08035 0.41964
vt 0.08333 0.50000
vt 0.08333 0.55000
vt 0.08333 0.95000
vt 0.08333 1.00000
vt 0.08570 0.08570
vt 0.08570 0.41430
vt 0.09573 0.43385
vt 0.10000 0.00000
vt 0.10000 0.12500
vt 0.10000 0.25000
vt 0.10000 0.37500
vt 0.10000 0.50000
vt 0.10000 0.62500
vt 0.10000 0.75000
vt 0.10000 0.87500
vt 0.10000 1.00000
vt 0.11111 0.50000
vt 0.11111 1.00000
vt 0.12500 0.50000
vt 0.12500 0.51761
vt 0.12500 0.54167
vt 0.12500 0.70833
vt 0.12500 0.95833
vt 0.12500 1.00000
vt 0.13007 0.04229
vt 0.13007 0.45771
vt 0.13384 0.04881
vt 0.13384 0.45119
vt 0.14261 0.75000
vt 0.14587 0.03377
vt 0.15000 0.00000
vt 0.15000 0.12500
vt 0.15000 0.25000
vt 0.15000 0.37500
vt 0.15000 0.50000
vt 0.15000 0.62500
vt 0.15000 0.75000
vt 0.15000 0.87500
vt 0.15000 1.00000
vt 0.15819 0.02835
vt 0.15819 0.47165
vt 0.16108 0.03533
vt 0.16108 0.46467
vt 0.16667 0.50000
vt 0.16667 0.54167
vt 0.16667 0.55000
vt 0.16667 0.70833
vt 0.16667 0.75000
vt 0.16667 0.95000
vt 0.16667 1.00000
vt 0.16792 0.02447
vt 0.18750 0.50000
vt 0.18750 0.54167
vt 0.18750 0.95833
vt 0.18750 1.00000
vt 0.20000 0.00000
vt 0.20000 0.12500
vt 0.20000 0.25000
vt 0.20000 0.37500
vt 0.20000 0.50000
vt 0.20000 0.62500
vt 0.20000 0.75000
vt 0.20000 0.87500
vt 0.20000 1.00000
vt 0.22222 0.50000
vt 0.22222 1.00000
vt 0.25000 0.00000
vt 0.25000 0.01000
vt 0.25000 0.01009
vt 0.25000 0.01015
vt 0.25000 0.01765
vt 0.25000 0.01769
vt 0.25000 0.12500
vt 0.25000 0.25000
vt 0.25000 0.37500
vt 0.25000 0.48231
vt 0.25000 0.48235
vt 0.25000 0.48985
vt 0.25000 0.48991
vt 0.25000 0.49000
vt 0.25000 0.50000
vt 0.25000 0.54167
vt 0.25000 0.55000
vt 0.25000 0.62500
vt 0.25000 0.75000
vt 0.25000 0.87500
vt 0.25000 0.95000
vt 0.25000 0.95833
vt 0.25000 1.00000
vt 0.30000 0.00000
vt 0.30000 0.12500
vt 0.30000 0.25000
vt 0.30000 0.37500
vt 0.30000 0.50000
vt 0.30000 0.62500
vt 0.30000 0.75000
vt 0.30000 0.87500
vt 0.30000 1.00000
vt 0.31250 0.50000
vt 0.31250 0.54167
vt 0.31250 0.95833
vt 0.31250 1.00000
vt 0.33209 0.02447
vt 0.33333 0.50000
vt 0.33333 0.54167
vt 0.33333 0.55000
vt 0.33333 0.70833
vt 0.33333 0.95000
vt 0.33333 1.00000
vt 0.33892 0.03533
vt 0.33892 0.46467
vt 0.34181 0.02835
vt 0.34181 0.47165
vt 0.35000 0.00000
vt 0.35000 0.12500
vt 0.35000 0.25000
vt 0.35000 0.37500
vt 0.35000 0.50000
vt 0.35000 0.62500
vt 0.35000 0.75000
vt 0.35000 0.87500
vt 0.35000 1.00000
vt 0.35413 0.03377
vt 0.35417 0.47917
vt 0.35417 0.77083
vt 0.36616 0.04881
vt 0.36616 0.45119
vt 0.36993 0.04229
vt 0.36993 0.45771
vt 0.37011 0.50587
vt 0.37500 0.01761
vt 0.37500 0.04167
vt 0.37500 0.20833
vt 0.37500 0.29167
vt 0.37500 0.50000
vt 0.37500 0.54167
vt 0.37500 0.70833
vt 0.37500 0.95833
vt 0.37500 1.00000
vt 0.37598 0.75000
vt 0.37647 0.25881
vt 0.37794 1.00000
vt 0.38194 0.00000
vt 0.38194 0.04167
vt 0.38194 0.20833
vt 0.38194 0.25000
vt 0.38194 0.29167
vt 0.38194 0.45833
vt 0.38194 0.50000
vt 0.38194 0.54167
vt 0.38194 0.70833
vt 0.38194 0.75000
vt 0.38194 0.79167
vt 0.38194 0.95833
vt 0.38194 1.00000
vt 0.40000 0.00000
vt 0.40000 0.12500
vt 0.40000 0.25000
vt 0.40000 0.37500
vt 0.40000 0.50000
vt 0.40000 0.62500
vt 0.40000 0.75000
vt 0.40000 0.87500
vt 0.40000 1.00000
vt 0.40427 0.43385
vt 0.41430 0.08570
vt 0.41430 0.41430
vt 0.41667 0.50000
vt 0.41667 0.55000
vt 0.41667 0.95000
vt 0.41667 1.00000
vt 0.41964 0.08035
vt 0.41964 0.41964
vt 0.41971 0.08029
vt 0.41971 0.41971
vt 0.43750 0.50000
vt 0.43750 0.54167
vt 0.43750 0.95833
vt 0.43750 1.00000
vt 0.43764 0.39964
vt 0.44444 0.50000
vt 0.44444 1.00000
vt 0.45000 0.00000
vt 0.45000 0.12500
vt 0.45000 0.25000
vt 0.45000 0.37500
vt 0.45000 0.50000
vt 0.45000 0.62500
vt 0.45000 0.75000
vt 0.45000 0.87500
vt 0.45000 1.00000
vt 0.45119 0.13384
vt 0.45119 0.36616
vt 0.45771 0.13007
vt 0.45771 0.36993
vt 0.45785 0.13000
vt 0.46467 0.16108
vt 0.46467 0.33892
vt 0.47165 0.15819
vt 0.47165 0.34181
vt 0.48231 0.25000
vt 0.48235 0.25000
vt 0.48398 0.19659
vt 0.48635 0.29168
vt 0.48985 0.25000
vt 0.48991 0.25000
vt 0.49000 0.25000
vt 0.50000 0.00000
vt 0.50000 0.12500
vt 0.50000 0.25000
vt 0.50000 0.37500
vt 0.50000 0.50000
vt 0.50000 0.54167
vt 0.50000 0.55000
vt 0.50000 0.62500
vt 0.50000 0.75000
vt 0.50000 0.87500
vt 0.50000 0.95000
vt 0.50000 0.95833
vt 0.50000 1.00000
vt 0.51000 0.25000
vt 0.51009 0.25000
vt 0.51015 0.25000
vt 0.51365 0.29168
vt 0.51602 0.19659
vt 0.51765 0.25000
vt 0.51769 0.25000
vt 0.52835 0.15819
vt 0.52835 0.34181
vt 0.53533 0.16108
vt 0.53533 0.33892
vt 0.54215 0.13000
vt 0.54229 0.13007
vt 0.54229 0.36993
vt 0.54881 0.13384
vt 0.54881 0.36616
vt 0.55000 0.00000
vt 0.55000 0.12500
vt 0.55000 0.25000
vt 0.55000 0.37500
vt 0.55000 0.50000
vt 0.55000 0.62500
vt 0.55000 0.75000
vt 0.55000 0.87500
vt 0.55000 1.00000
vt 0.55556 0.50000
vt 0.55556 1.00000
vt 0.56236 0.39964
vt 0.56250 0.50000
vt 0.56250 0.54167
vt 0.56250 0.95833
vt 0.56250 1.00000
vt 0.58029 0.08029
vt 0.58029 0.41971
vt 0.58035 0.08035
vt 0.58035 0.41964
vt 0.58333 0.50000
vt 0.58333 0.55000
vt 0.58333 0.95000
vt 0.58333 1.00000
vt 0.58570 0.08570
vt 0.58570 0.41430
vt 0.59573 0.43385
vt 0.60000 0.00000
vt 0.60000 0.12500
vt 0.60000 0.25000
vt 0.60000 0.37500
vt 0.60000 0.50000
vt 0.60000 0.62500
vt 0.60000 0.75000
vt 0.60000 0.87500
vt 0.60000 1.00000
vt 0.61806 0.00000
vt 0.61806 0.04167
vt 0.61806 0.20833
vt 0.61806 0.25000
vt 0.61806 0.29167
vt 0.61806 0.45833
vt 0.61806 0.50000
vt 0.61806 0.54167
vt 0.61806 0.70833
vt 0.61806 0.75000
vt 0.61806 0.79167
vt 0.61806 0.95833
vt 0.61806 1.00000
vt 0.62206 0.00000
vt 0.62353 0.24119
vt 0.62402 0.50000
vt 0.62500 0.04167
vt 0.62500 0.20833
vt 0.62500 0.29167
vt 0.62500 0.50000
vt 0.62500 0.54167
vt 0.62500 0.70833
vt 0.62500 0.95833
vt 0.62500 0.98239
vt 0.62500 1.00000
vt 0.62989 0.74413
vt 0.63008 0.04229
vt 0.63008 0.45771
vt 0.63384 0.04881
vt 0.63384 0.45119
vt 0.64583 0.47917
vt 0.64583 0.77083
vt 0.64587 0.03377
vt 0.65000 0.00000
vt 0.65000 0.12500
vt 0.65000 0.25000
vt 0.65000 0.37500
vt 0.65000 0.50000
vt 0.65000 0.62500
vt 0.65000 0.75000
vt 0.65000 0.87500
vt 0.65000 1.00000
vt 0.65819 0.02835
vt 0.65819 0.47165
vt 0.66108 0.03533
vt 0.66108 0.46467
vt 0.66667 0.50000
vt 0.66667 0.54167
vt 0.66667 0.55000
vt 0.66667 0.70833
vt 0.66667 0.95000
vt 0.66667 1.00000
vt 0.66792 0.02447
vt 0.68750 0.50000
vt 0.68750 0.54167
vt 0.68750 0.95833
vt 0.68750 1.00000
vt 0.70000 0.00000
vt 0.70000 0.12500
vt 0.70000 0.25000
vt 0.70000 0.37500
vt 0.70000 0.50000
vt 0.70000 0.62500
vt 0.70000 0.75000
vt 0.70000 0.87500
vt 0.70000 1.00000
vt 0.75000 0.00000
vt 0.75000 0.01000
vt 0.75000 0.01009
vt 0.75000 0.01015
vt 0.75000 0.01765
vt 0.75000 0.01769
vt 0.75000 0.12500
vt 0.75000 0.25000
vt 0.75000 0.37500
vt 0.75000 0.48231
vt 0.75000 0.48235
vt 0.75000 0.48985
vt 0.75000 0.48991
vt 0.75000 0.49000
vt 0.75000 0.50000
vt 0.75000 0.54167
vt 0.75000 0.55000
vt 0.75000 0.62500
vt 0.75000 0.75000
vt 0.75000 0.87500
vt 0.75000 0.95000
vt 0.75000 0.95833
vt 0.75000 1.00000
vt 0.77778 0.50000
vt 0.77778 1.00000
vt 0.80000 0.00000
vt 0.80000 0.12500
vt 0.80000 0.25000
vt 0.80000 0.37500
vt 0.80000 0.50000
vt 0.80000 0.62500
vt 0.80000 0.75000
vt 0.80000 0.87500
vt 0.80000 1.00000
vt 0.81250 0.50000
vt 0.81250 0.54167
vt 0.81250 0.95833
vt 0.81250 1.00000
vt 0.83208 0.02447
vt 0.83333 0.50000
vt 0.83333 0.54167
vt 0.83333 0.55000
vt 0.83333 0.70833
vt 0.83333 0.75000
vt 0.83333 0.95000
vt 0.83333 1.00000
vt 0.83892 0.03533
vt 0.83892 0.46467
vt 0.84181 0.02835
vt 0.84181 0.47165
vt 0.85000 0.00000
vt 0.85000 0.12500
vt 0.85000 0.25000
vt 0.85000 0.37500
vt 0.85000 0.50000
vt 0.85000 0.62500
vt 0.85000 0.75000
vt 0.85000 0.87500
vt 0.85000 1.00000
vt 0.85413 0.03377
vt 0.85739 0.50000
vt 0.86616 0.04881
vt 0.86616 0.45119
vt 0.86992 0.04229
vt 0.86992 0.45771
vt 0.87500 0.50000
vt 0.87500 0.54167
vt 0.87500 0.70833
vt 0.87500 0.73239
vt 0.87500 0.95833
vt 0.87500 1.00000
vt 0.88889 0.50000
vt 0.88889 1.00000
vt 0.90000 0.00000
vt 0.90000 0.12500
vt 0.90000 0.25000
vt 0.90000 0.37500
vt 0.90000 0.50000
vt 0.90000 0.62500
vt 0.90000 0.75000
vt 0.90000 0.87500
vt 0.90000 1.00000
vt 0.90427 0.43385
vt 0.91430 0.08570
vt 0.91430 0.41430
vt 0.91667 0.50000
vt 0.91667 0.55000
vt 0.91667 0.95000
vt 0.91667 1.00000
vt 0.91965 0.08035
vt 0.91965 0.41964
vt 0.91971 0.08029
vt 0.91971 0.41971
vt 0.93750 0.50000
vt 0.93750 0.54167
vt 0.93750 0.95833
vt 0.93750 1.00000
vt 0.93764 0.39964
vt 0.95000 0.00000
vt 0.95000 0.12500
vt 0.95000 0.25000
vt 0.95000 0.37500
vt 0.95000 0.50000
vt 0.95000 0.62500
vt 0.95000 0.75000
vt 0.95000 0.87500
vt 0.95000 1.00000
vt 0.95119 0.13384
vt 0.95119 0.36616
vt 0.95771 0.13007
vt 0.95771 0.36993
vt 0.95785 0.13000
vt 0.96467 0.16108
vt 0.96467 0.33892
vt 0.97165 0.15819
vt 0.97165 0.34181
vt 0.98231 0.25000
vt 0.98235 0.25000
vt 0.98398 0.19659
vt 0.98635 0.29168
vt 0.98985 0.25000
vt 0.98991 0.25000
vt 0.99000 0.25000
vt 0.99961 0.50000
vt 0.99961 1.00000
vt 0.99971 0.50000
vt 0.99971 1.00000
vt 1.00000 0.00000
vt 1.00000 0.12500
vt 1.00000 0.25000
vt 1.00000 0.37500
vt 1.00000 0.50000
vt 1.00000 0.54167
vt 1.00000 0.55000
vt 1.00000 0.62500
vt 1.00000 0.75000
vt 1.00000 0.87500
vt 1.00000 0.95000
vt 1.00000 0.95833
vt 1.00000 1.00000
s 0
g arpg_brazier_foot_M_gunmetal
usemtl M_gunmetal
f 11/477/53 14/431/53 8/476/53
f 11/477/53 17/434/53 14/431/53
f 11/477/7 12/478/7 18/435/7
f 11/477/7 18/435/7 17/434/7
f 12/180/4 4/127/4 10/178/4
f 12/180/4 6/129/4 4/127/4
f 12/180/8 10/178/8 16/244/8
f 12/180/8 16/244/8 18/246/8
f 14/431/5 15/429/5 9/475/5
f 14/431/5 9/475/5 8/476/5
f 15/500/10 19/506/10 13/498/10
f 15/500/10 21/510/10 19/506/10
f 15/500/6 13/498/6 7/452/6
f 15/500/6 7/452/6 9/454/6
f 16/244/52 10/178/52 4/127/52
f 16/244/52 4/127/52 64/33/52
f 17/434/11 18/435/11 24/412/11
f 17/434/11 24/412/11 23/410/11
f 17/434/54 20/406/54 14/431/54
f 17/434/54 23/410/54 20/406/54
f 18/246/12 16/244/12 22/252/12
f 18/246/12 22/252/12 24/256/12
f 19/506/49 25/497/49 31/451/49
f 19/506/49 31/451/49 43/352/49
f 19/506/49 43/352/49 67/353/49
f 2/7/45 3/16/45 69/52/45
f 2/7/45 69/52/45 68/53/45
f 20/406/9 15/429/9 14/431/9
f 20/406/9 21/404/9 15/429/9
f 23/410/15 24/412/15 30/375/15
f 23/410/15 30/375/15 29/374/15
f 23/410/55 26/372/55 20/406/55
f 23/410/55 29/374/55 26/372/55
f 26/372/13 21/404/13 20/406/13
f 26/372/13 27/370/13 21/404/13
f 27/499/14 19/506/14 21/510/14
f 27/499/14 25/497/14 19/506/14
f 28/243/52 22/252/52 16/244/52
f 29/374/19 30/375/19 36/311/19
f 29/374/19 36/311/19 35/310/19
f 29/374/56 32/309/56 26/372/56
f 29/374/56 35/310/56 32/309/56
f 30/245/16 22/252/16 28/243/16
f 30/245/16 24/256/16 22/252/16
f 30/245/20 28/243/20 34/177/20
f 30/245/20 34/177/20 36/179/20
f 31/451/49 37/395/49 43/352/49
f 32/309/17 27/370/17 26/372/17
f 32/309/17 33/308/17 27/370/17
f 33/453/18 25/497/18 27/499/18
f 33/453/18 31/451/18 25/497/18
f 33/453/22 37/395/22 31/451/22
f 33/453/22 39/393/22 37/395/22
f 35/310/23 36/311/23 42/271/23
f 35/310/23 42/271/23 41/269/23
f 35/310/57 38/265/57 32/309/57
f 35/310/57 41/269/57 38/265/57
f 36/179/24 34/177/24 40/123/24
f 36/179/24 40/123/24 42/121/24
f 38/265/21 33/308/21 32/309/21
f 38/265/21 39/263/21 33/308/21
f 4/127/52 70/79/52 64/33/52
f 40/123/52 28/243/52 16/244/52
f 40/123/52 34/177/52 28/243/52
f 41/269/27 42/271/27 48/222/27
f 41/269/27 48/222/27 47/221/27
f 41/269/58 44/220/58 38/265/58
f 41/269/58 47/221/58 44/220/58
f 43/352/49 49/286/49 55/278/49
f 43/352/49 55/278/49 67/353/49
f 44/220/25 39/263/25 38/265/25
f 44/220/25 45/219/25 39/263/25
f 45/350/26 37/395/26 39/393/26
f 45/350/26 43/352/26 37/395/26
f 47/221/31 48/222/31 54/160/31
f 47/221/31 54/160/31 53/159/31
f 47/221/59 50/157/59 44/220/59
f 47/221/59 53/159/59 50/157/59
f 48/76/28 40/123/28 46/78/28
f 48/76/28 42/121/28 40/123/28
f 48/76/32 46/78/32 52/32/32
f 48/76/32 52/32/32 54/30/32
f 5/527/3 12/478/3 11/477/3
f 5/527/3 6/514/3 12/478/3
f 5/527/50 11/477/50 8/476/50
f 5/527/50 8/476/50 2/523/50
f 50/157/29 45/219/29 44/220/29
f 50/157/29 51/155/29 45/219/29
f 51/284/30 43/352/30 45/350/30
f 51/284/30 49/286/30 43/352/30
f 51/284/34 55/278/34 49/286/34
f 51/284/34 57/274/34 55/278/34
f 52/32/52 46/78/52 40/123/52
f 53/159/35 54/160/35 60/140/35
f 53/159/35 60/140/35 59/138/35
f 53/159/60 56/134/60 50/157/60
f 53/159/60 59/138/60 56/134/60
f 54/30/36 52/32/36 58/24/36
f 54/30/36 58/24/36 60/20/36
f 55/278/49 61/287/49 67/353/49
f 56/134/33 51/155/33 50/157/33
f 56/134/33 57/132/33 51/155/33
f 59/138/39 60/140/39 66/101/39
f 59/138/39 66/101/39 65/100/39
f 59/138/61 62/97/61 56/134/61
f 59/138/61 65/100/61 62/97/61
f 62/97/37 57/132/37 56/134/37
f 62/97/37 63/95/37 57/132/37
f 63/285/38 55/278/38 57/274/38
f 63/285/38 61/287/38 55/278/38
f 64/33/52 40/123/52 16/244/52
f 64/33/52 52/32/52 40/123/52
f 64/33/52 58/24/52 52/32/52
f 65/100/43 66/101/43 72/55/43
f 65/100/43 72/55/43 71/54/43
f 65/100/62 68/53/62 62/97/62
f 65/100/62 71/54/62 68/53/62
f 66/31/40 58/24/40 64/33/40
f 66/31/40 60/20/40 58/24/40
f 66/31/44 64/33/44 70/79/44
f 66/31/44 70/79/44 72/77/44
f 67/353/49 1/399/49 7/452/49
f 67/353/49 7/452/49 19/506/49
f 68/53/41 63/95/41 62/97/41
f 68/53/41 69/52/41 63/95/41
f 69/351/42 61/287/42 63/285/42
f 69/351/42 67/353/42 61/287/42
f 69/351/46 1/399/46 67/353/46
f 69/351/46 3/401/46 1/399/46
f 7/452/49 13/498/49 19/506/49
f 71/54/47 6/17/47 5/11/47
f 71/54/47 72/55/47 6/17/47
f 71/54/51 2/7/51 68/53/51
f 71/54/51 5/11/51 2/7/51
f 72/77/48 4/127/48 6/129/48
f 72/77/48 70/79/48 4/127/48
f 8/476/1 3/513/1 2/523/1
f 8/476/1 9/475/1 3/513/1
f 9/454/2 1/399/2 3/401/2
f 9/454/2 7/452/2 1/399/2
g arpg_brazier_stem_Cone.027
v 0.000000 0.110000 0.200000
v 0.000000 0.730000 0.120000
v -0.141421 0.110000 0.141421
v -0.084853 0.730000 0.084853
v -0.200000 0.110000 0.000000
v -0.120000 0.730000 0.000000
v -0.141421 0.110000 -0.141421
v -0.084853 0.730000 -0.084853
v 0.000000 0.110000 -0.200000
v 0.000000 0.730000 -0.120000
v 0.141421 0.110000 -0.141421
v 0.084853 0.730000 -0.084853
v 0.200000 0.110000 0.000000
v 0.120000 0.730000 0.000000
v 0.141421 0.110000 0.141421
v 0.084853 0.730000 0.084853
vn -0.3800 0.1184 0.9174
vn -0.9174 0.1184 0.3800
vn -0.9174 0.1184 -0.3800
vn -0.3800 0.1184 -0.9174
vn 0.3800 0.1184 -0.9174
vn 0.9174 0.1184 -0.3800
vn -0.0000 1.0000 -0.0000
vn 0.9174 0.1184 0.3800
vn 0.3800 0.1184 0.9174
vn -0.0000 -1.0000 -0.0000
s 0
g arpg_brazier_stem_M_steel
usemtl M_steel
f 74/131/69 88/49/69 86/18/69
f 74/529/63 75/455/63 73/521/63
f 74/529/63 76/460/63 75/455/63
f 75/482/72 77/512/72 79/481/72
f 76/460/64 77/404/64 75/455/64
f 76/460/64 78/412/64 77/404/64
f 78/258/69 74/131/69 86/18/69
f 78/258/69 76/226/69 74/131/69
f 78/412/65 79/343/65 77/404/65
f 78/412/65 80/348/65 79/343/65
f 79/481/72 81/391/72 83/304/72
f 79/481/72 83/304/72 87/305/72
f 80/348/66 81/263/66 79/343/66
f 80/348/66 82/271/66 81/263/66
f 82/119/69 80/225/69 78/258/69
f 82/271/67 83/186/67 81/263/67
f 82/271/67 84/190/67 83/186/67
f 83/304/72 85/272/72 87/305/72
f 84/190/68 85/132/68 83/186/68
f 84/190/68 86/140/68 85/132/68
f 86/140/70 87/70/70 85/132/70
f 86/140/70 88/75/70 87/70/70
f 86/18/69 82/119/69 78/258/69
f 86/18/69 84/48/69 82/119/69
f 87/305/72 73/403/72 75/482/72
f 87/305/72 75/482/72 79/481/72
f 88/75/71 73/5/71 87/70/71
f 88/75/71 74/13/71 73/5/71
g arpg_brazier_bowl_Cylinder.069
v 0.000000 0.700000 0.464706
v 0.000000 0.715000 0.480000
v 0.000000 0.704393 0.475520
v 0.000000 0.880000 0.464706
v 0.000000 0.865000 0.480000
v 0.000000 0.875607 0.475520
v -0.177835 0.700000 0.429332
v -0.183688 0.715000 0.443462
v -0.181974 0.704393 0.439324
v -0.177835 0.880000 0.429332
v -0.183688 0.865000 0.443462
v -0.181974 0.875607 0.439324
v -0.328597 0.700000 0.328597
v -0.339411 0.715000 0.339411
v -0.336244 0.704393 0.336244
v -0.328597 0.880000 0.328597
v -0.339411 0.865000 0.339411
v -0.336244 0.875607 0.336244
v -0.429332 0.700000 0.177835
v -0.443462 0.715000 0.183688
v -0.439324 0.704393 0.181974
v -0.429332 0.880000 0.177835
v -0.443462 0.865000 0.183688
v -0.439324 0.875607 0.181974
v -0.464706 0.700000 0.000000
v -0.480000 0.715000 0.000000
v -0.475520 0.704393 0.000000
v -0.464706 0.880000 0.000000
v -0.480000 0.865000 0.000000
v -0.475520 0.875607 0.000000
v -0.429332 0.700000 -0.177835
v -0.443462 0.715000 -0.183688
v -0.439324 0.704393 -0.181974
v -0.429332 0.880000 -0.177835
v -0.443462 0.865000 -0.183688
v -0.439324 0.875607 -0.181974
v -0.328597 0.700000 -0.328597
v -0.339411 0.715000 -0.339411
v -0.336244 0.704393 -0.336244
v -0.328597 0.880000 -0.328597
v -0.339411 0.865000 -0.339411
v -0.336244 0.875607 -0.336244
v -0.177835 0.700000 -0.429332
v -0.183688 0.715000 -0.443462
v -0.181974 0.704393 -0.439324
v -0.177835 0.880000 -0.429332
v -0.183688 0.865000 -0.443462
v -0.181974 0.875607 -0.439324
v 0.000000 0.700000 -0.464706
v 0.000000 0.715000 -0.480000
v 0.000000 0.704393 -0.475520
v 0.000000 0.880000 -0.464706
v 0.000000 0.865000 -0.480000
v 0.000000 0.875607 -0.475520
v 0.177835 0.700000 -0.429332
v 0.183688 0.715000 -0.443462
v 0.181974 0.704393 -0.439324
v 0.177835 0.880000 -0.429332
v 0.183688 0.865000 -0.443462
v 0.181974 0.875607 -0.439324
v 0.328597 0.700000 -0.328597
v 0.339411 0.715000 -0.339411
v 0.336244 0.704393 -0.336244
v 0.328597 0.880000 -0.328597
v 0.339411 0.865000 -0.339411
v 0.336244 0.875607 -0.336244
v 0.429332 0.700000 -0.177835
v 0.443462 0.715000 -0.183688
v 0.439324 0.704393 -0.181974
v 0.429332 0.880000 -0.177835
v 0.443462 0.865000 -0.183688
v 0.439324 0.875607 -0.181974
v 0.464706 0.700000 0.000000
v 0.480000 0.715000 0.000000
v 0.475520 0.704393 0.000000
v 0.464706 0.880000 0.000000
v 0.480000 0.865000 0.000000
v 0.475520 0.875607 0.000000
v 0.429332 0.700000 0.177835
v 0.443462 0.715000 0.183688
v 0.439324 0.704393 0.181974
v 0.429332 0.880000 0.177835
v 0.443462 0.865000 0.183688
v 0.439324 0.875607 0.181974
v 0.328597 0.700000 0.328597
v 0.339411 0.715000 0.339411
v 0.336244 0.704393 0.336244
v 0.328597 0.880000 0.328597
v 0.339411 0.865000 0.339411
v 0.336244 0.875607 0.336244
v 0.177835 0.700000 0.429332
v 0.183688 0.715000 0.443462
v 0.181974 0.704393 0.439324
v 0.177835 0.880000 0.429332
v 0.183688 0.865000 0.443462
v 0.181974 0.875607 0.439324
vn -0.1802 -0.3827 0.9061
vn -0.0747 -0.9239 0.3753
vn -0.1802 0.3827 0.9061
vn -0.0747 0.9239 0.3753
vn -0.5133 -0.3827 0.7682
vn -0.2126 -0.9239 0.3182
vn -0.5133 0.3827 0.7682
vn -0.2126 0.9239 0.3182
vn -0.7682 -0.3827 0.5133
vn -0.3182 -0.9239 0.2126
vn -0.7682 0.3827 0.5133
vn -0.3182 0.9239 0.2126
vn -0.9061 -0.3827 0.1802
vn -0.3753 -0.9239 0.0747
vn -0.9061 0.3827 0.1802
vn -0.3753 0.9239 0.0747
vn -0.9061 -0.3827 -0.1802
vn -0.3753 -0.9239 -0.0747
vn -0.9061 0.3827 -0.1802
vn -0.3753 0.9239 -0.0747
vn -0.7682 -0.3827 -0.5133
vn -0.3182 -0.9239 -0.2126
vn -0.7682 0.3827 -0.5133
vn -0.3182 0.9239 -0.2126
vn -0.5133 -0.3827 -0.7682
vn -0.2126 -0.9239 -0.3182
vn -0.5133 0.3827 -0.7682
vn -0.2126 0.9239 -0.3182
vn -0.1802 -0.3827 -0.9061
vn -0.0747 -0.9239 -0.3753
vn -0.1802 0.3827 -0.9061
vn -0.0747 0.9239 -0.3753
vn 0.1802 -0.3827 -0.9061
vn 0.0747 -0.9239 -0.3753
vn 0.1802 0.3827 -0.9061
vn 0.0747 0.9239 -0.3753
vn 0.5133 -0.3827 -0.7682
vn 0.2126 -0.9239 -0.3182
vn 0.5133 0.3827 -0.7682
vn 0.2126 0.9239 -0.3182
vn 0.7682 -0.3827 -0.5133
vn 0.3182 -0.9239 -0.2126
vn 0.7682 0.3827 -0.5133
vn 0.3182 0.9239 -0.2126
vn 0.9061 -0.3827 -0.1802
vn 0.3753 -0.9239 -0.0747
vn 0.9061 0.3827 -0.1802
vn 0.3753 0.9239 -0.0747
vn 0.9061 -0.3827 0.1802
vn 0.3753 -0.9239 0.0747
vn 0.9061 0.3827 0.1802
vn 0.3753 0.9239 0.0747
vn 0.7682 -0.3827 0.5133
vn 0.3182 -0.9239 0.2126
vn 0.7682 0.3827 0.5133
vn 0.3182 0.9239 0.2126
vn 0.5133 -0.3827 0.7682
vn 0.2126 -0.9239 0.3182
vn 0.5133 0.3827 0.7682
vn 0.2126 0.9239 0.3182
vn 0.1802 -0.3827 0.9061
vn 0.0747 -0.9239 0.3753
vn 0.1802 0.3827 0.9061
vn 0.0747 0.9239 0.3753
vn -0.0000 -1.0000 -0.0000
vn -0.1951 -0.0000 0.9808
vn 0.1951 -0.0000 0.9808
vn -0.0000 1.0000 -0.0000
vn -0.5556 -0.0000 0.8315
vn -0.8315 -0.0000 0.5556
vn -0.9808 -0.0000 0.1951
vn -0.9808 -0.0000 -0.1951
vn -0.8315 -0.0000 -0.5556
vn -0.5556 -0.0000 -0.8315
vn -0.1951 -0.0000 -0.9808
vn 0.1951 -0.0000 -0.9808
vn 0.5556 -0.0000 -0.8315
vn 0.8315 -0.0000 -0.5556
vn 0.9808 -0.0000 -0.1951
vn 0.9808 -0.0000 0.1951
vn 0.8315 -0.0000 0.5556
vn 0.5556 -0.0000 0.8315
s 0
g arpg_brazier_bowl_M_gunmetal
usemtl M_gunmetal
f 100/164/80 104/218/80 106/224/80
f 100/164/80 98/162/80 104/218/80
f 102/456/77 103/455/77 97/483/77
f 102/456/77 97/483/77 96/484/77
f 104/218/140 176/57/140 152/56/140
f 104/218/140 92/128/140 176/57/140
f 104/218/140 98/162/140 92/128/140
f 105/459/142 108/425/142 102/456/142
f 105/459/142 111/426/142 108/425/142
f 105/459/83 106/460/83 112/427/83
f 105/459/83 112/427/83 111/426/83
f 107/503/137 113/507/137 119/502/137
f 107/503/137 119/502/137 131/436/137
f 108/425/81 103/455/81 102/456/81
f 108/425/81 109/424/81 103/455/81
f 109/505/82 101/474/82 103/480/82
f 109/505/82 107/503/82 101/474/82
f 111/426/143 114/405/143 108/425/143
f 111/426/143 117/411/143 114/405/143
f 112/251/84 104/218/84 110/249/84
f 112/251/84 106/224/84 104/218/84
f 112/251/88 110/249/88 116/253/88
f 112/251/88 116/253/88 118/257/88
f 114/405/85 109/424/85 108/425/85
f 114/405/85 115/404/85 109/424/85
f 114/405/89 120/378/89 121/377/89
f 114/405/89 121/377/89 115/404/89
f 115/511/86 107/503/86 109/505/86
f 115/511/86 113/507/86 107/503/86
f 116/253/140 110/249/140 104/218/140
f 117/411/144 120/378/144 114/405/144
f 117/411/144 123/379/144 120/378/144
f 117/411/87 111/426/87 112/427/87
f 117/411/87 112/427/87 118/412/87
f 117/411/91 118/412/91 124/380/91
f 117/411/91 124/380/91 123/379/91
f 118/257/92 116/253/92 122/248/92
f 118/257/92 122/248/92 124/250/92
f 119/502/137 125/473/137 131/436/137
f 121/504/90 113/507/90 115/511/90
f 121/504/90 119/502/90 113/507/90
f 121/504/94 125/473/94 119/502/94
f 121/504/94 127/479/94 125/473/94
f 123/379/145 126/344/145 120/378/145
f 123/379/145 129/346/145 126/344/145
f 123/379/95 124/380/95 130/348/95
f 123/379/95 130/348/95 129/346/95
f 124/250/96 122/248/96 128/217/96
f 124/250/96 128/217/96 130/223/96
f 126/344/93 121/377/93 120/378/93
f 126/344/93 127/343/93 121/377/93
f 128/217/140 116/253/140 104/218/140
f 128/217/140 122/248/140 116/253/140
f 129/346/146 132/301/146 126/344/146
f 129/346/146 135/302/146 132/301/146
f 129/346/99 130/348/99 136/303/99
f 129/346/99 136/303/99 135/302/99
f 131/436/137 137/394/137 143/368/137
f 131/436/137 143/368/137 155/281/137
f 131/436/137 155/281/137 179/369/137
f 132/301/97 127/343/97 126/344/97
f 132/301/97 133/300/97 127/343/97
f 133/438/98 125/473/98 127/479/98
f 133/438/98 131/436/98 125/473/98
f 135/302/147 138/264/147 132/301/147
f 135/302/147 141/270/147 138/264/147
f 136/163/100 128/217/100 134/161/100
f 136/163/100 130/223/100 128/217/100
f 136/163/104 134/161/104 140/122/104
f 136/163/104 140/122/104 142/120/104
f 138/264/101 133/300/101 132/301/101
f 138/264/101 139/263/101 133/300/101
f 138/264/105 144/228/105 145/227/105
f 138/264/105 145/227/105 139/263/105
f 139/392/102 131/436/102 133/438/102
f 139/392/102 137/394/102 131/436/102
f 140/122/140 134/161/140 128/217/140
f 141/270/103 135/302/103 136/303/103
f 141/270/103 136/303/103 142/271/103
f 141/270/107 142/271/107 148/230/107
f 141/270/107 148/230/107 147/229/107
f 141/270/148 144/228/148 138/264/148
f 141/270/148 147/229/148 144/228/148
f 142/120/108 140/122/108 146/93/108
f 142/120/108 146/93/108 148/91/108
f 143/368/137 149/312/137 155/281/137
f 145/366/106 137/394/106 139/392/106
f 145/366/106 143/368/106 137/394/106
f 145/366/110 149/312/110 143/368/110
f 145/366/110 151/306/110 149/312/110
f 147/229/111 148/230/111 154/190/111
f 147/229/111 154/190/111 153/189/111
f 147/229/149 150/187/149 144/228/149
f 147/229/149 153/189/149 150/187/149
f 148/91/112 146/93/112 152/56/112
f 148/91/112 152/56/112 154/50/112
f 150/187/109 145/227/109 144/228/109
f 150/187/109 151/186/109 145/227/109
f 152/56/140 128/217/140 104/218/140
f 152/56/140 140/122/140 128/217/140
f 152/56/140 146/93/140 140/122/140
f 153/189/115 154/190/115 160/153/115
f 153/189/115 160/153/115 159/152/115
f 153/189/150 156/151/150 150/187/150
f 153/189/150 159/152/150 156/151/150
f 155/281/137 161/277/137 167/282/137
f 155/281/137 167/282/137 179/369/137
f 156/151/113 151/186/113 150/187/113
f 156/151/113 157/150/113 151/186/113
f 157/279/114 149/312/114 151/306/114
f 157/279/114 155/281/114 149/312/114
f 159/152/151 162/133/151 156/151/151
f 159/152/151 165/139/151 162/133/151
f 160/25/116 152/56/116 158/27/116
f 160/25/116 154/50/116 152/56/116
f 160/25/120 158/27/120 164/23/120
f 160/25/120 164/23/120 166/19/120
f 162/133/117 157/150/117 156/151/117
f 162/133/117 163/132/117 157/150/117
f 162/133/121 168/104/121 169/103/121
f 162/133/121 169/103/121 163/132/121
f 163/273/118 155/281/118 157/279/118
f 163/273/118 161/277/118 155/281/118
f 164/23/140 158/27/140 152/56/140
f 165/139/119 159/152/119 160/153/119
f 165/139/119 160/153/119 166/140/119
f 165/139/123 166/140/123 172/106/123
f 165/139/123 172/106/123 171/105/123
f 165/139/152 168/104/152 162/133/152
f 165/139/152 171/105/152 168/104/152
f 166/19/124 164/23/124 170/28/124
f 166/19/124 170/28/124 172/26/124
f 167/282/137 173/313/137 179/369/137
f 169/280/122 161/277/122 163/273/122
f 169/280/122 167/282/122 161/277/122
f 169/280/126 173/313/126 167/282/126
f 169/280/126 175/307/126 173/313/126
f 171/105/127 172/106/127 178/75/127
f 171/105/127 178/75/127 177/74/127
f 171/105/153 174/72/153 168/104/153
f 171/105/153 177/74/153 174/72/153
f 172/26/128 170/28/128 176/57/128
f 172/26/128 176/57/128 178/51/128
f 174/72/125 169/103/125 168/104/125
f 174/72/125 175/70/125 169/103/125
f 176/57/140 164/23/140 152/56/140
f 176/57/140 170/28/140 164/23/140
f 177/74/131 178/75/131 184/47/131
f 177/74/131 184/47/131 183/46/131
f 177/74/154 180/45/154 174/72/154
f 177/74/154 183/46/154 180/45/154
f 179/369/137 107/503/137 131/436/137
f 179/369/137 89/400/137 95/437/137
f 179/369/137 95/437/137 107/503/137
f 180/45/129 175/70/129 174/72/129
f 180/45/129 181/44/129 175/70/129
f 181/367/130 173/313/130 175/307/130
f 181/367/130 179/369/130 173/313/130
f 183/46/139 90/6/139 180/45/139
f 183/46/139 93/12/139 90/6/139
f 184/92/132 176/57/132 182/94/132
f 184/92/132 178/51/132 176/57/132
f 184/92/136 182/94/136 92/128/136
f 184/92/136 92/128/136 94/130/136
f 90/522/73 96/484/73 97/483/73
f 90/522/73 97/483/73 91/515/73
f 90/6/133 181/44/133 180/45/133
f 90/6/133 91/14/133 181/44/133
f 91/402/134 179/369/134 181/367/134
f 91/402/134 89/400/134 179/369/134
f 92/128/140 182/94/140 176/57/140
f 93/12/135 183/46/135 184/47/135
f 93/12/135 184/47/135 94/15/135
f 93/528/138 96/484/138 90/522/138
f 93/528/138 99/485/138 96/484/138
f 93/528/75 100/486/75 99/485/75
f 93/528/75 94/516/75 100/486/75
f 94/130/76 92/128/76 98/162/76
f 94/130/76 98/162/76 100/164/76
f 95/437/137 101/474/137 107/503/137
f 97/439/74 89/400/74 91/402/74
f 97/439/74 95/437/74 89/400/74
f 97/439/78 101/474/78 95/437/78
f 97/439/78 103/480/78 101/474/78
f 99/485/141 102/456/141 96/484/141
f 99/485/141 105/459/141 102/456/141
f 99/485/79 100/486/79 106/460/79
f 99/485/79 106/460/79 105/459/79
g arpg_brazier_rim_Torus.016
v -0.485000 0.900000 0.000000
v -0.468891 0.938891 0.000000
v -0.430000 0.955000 0.000000
v -0.391109 0.938891 0.000000
v -0.375000 0.900000 0.000000
v -0.391109 0.861109 0.000000
v -0.430000 0.845000 0.000000
v -0.468891 0.861109 0.000000
v -0.461262 0.900000 0.149873
v -0.445942 0.938891 0.144895
v -0.408954 0.955000 0.132877
v -0.371967 0.938891 0.120859
v -0.356646 0.900000 0.115881
v -0.371967 0.861109 0.120859
v -0.408954 0.845000 0.132877
v -0.445942 0.861109 0.144895
v -0.392373 0.900000 0.285076
v -0.379341 0.938891 0.275607
v -0.347877 0.955000 0.252748
v -0.316414 0.938891 0.229888
v -0.303381 0.900000 0.220419
v -0.316414 0.861109 0.229888
v -0.347877 0.845000 0.252748
v -0.379341 0.861109 0.275607
v -0.285076 0.900000 0.392373
v -0.275607 0.938891 0.379341
v -0.252748 0.955000 0.347877
v -0.229888 0.938891 0.316414
v -0.220419 0.900000 0.303381
v -0.229888 0.861109 0.316414
v -0.252748 0.845000 0.347877
v -0.275607 0.861109 0.379341
v -0.149873 0.900000 0.461262
v -0.144895 0.938891 0.445942
v -0.132877 0.955000 0.408954
v -0.120859 0.938891 0.371967
v -0.115881 0.900000 0.356646
v -0.120859 0.861109 0.371967
v -0.132877 0.845000 0.408954
v -0.144895 0.861109 0.445942
v -0.000000 0.900000 0.485000
v -0.000000 0.938891 0.468891
v -0.000000 0.955000 0.430000
v -0.000000 0.938891 0.391109
v -0.000000 0.900000 0.375000
v -0.000000 0.861109 0.391109
v -0.000000 0.845000 0.430000
v -0.000000 0.861109 0.468891
v 0.149873 0.900000 0.461262
v 0.144895 0.938891 0.445942
v 0.132877 0.955000 0.408954
v 0.120859 0.938891 0.371967
v 0.115881 0.900000 0.356646
v 0.120859 0.861109 0.371967
v 0.132877 0.845000 0.408954
v 0.144895 0.861109 0.445942
v 0.285076 0.900000 0.392373
v 0.275607 0.938891 0.379341
v 0.252748 0.955000 0.347877
v 0.229888 0.938891 0.316414
v 0.220420 0.900000 0.303381
v 0.229888 0.861109 0.316414
v 0.252748 0.845000 0.347877
v 0.275607 0.861109 0.379341
v 0.392373 0.900000 0.285076
v 0.379341 0.938891 0.275607
v 0.347877 0.955000 0.252748
v 0.316414 0.938891 0.229888
v 0.303381 0.900000 0.220419
v 0.316414 0.861109 0.229888
v 0.347877 0.845000 0.252748
v 0.379341 0.861109 0.275607
v 0.461262 0.900000 0.149873
v 0.445942 0.938891 0.144895
v 0.408954 0.955000 0.132877
v 0.371967 0.938891 0.120859
v 0.356646 0.900000 0.115881
v 0.371967 0.861109 0.120859
v 0.408954 0.845000 0.132877
v 0.445942 0.861109 0.144895
v 0.485000 0.900000 0.000000
v 0.468891 0.938891 0.000000
v 0.430000 0.955000 0.000000
v 0.391109 0.938891 0.000000
v 0.375000 0.900000 0.000000
v 0.391109 0.861109 0.000000
v 0.430000 0.845000 0.000000
v 0.468891 0.861109 0.000000
v 0.461262 0.900000 -0.149873
v 0.445942 0.938891 -0.144895
v 0.408954 0.955000 -0.132877
v 0.371967 0.938891 -0.120859
v 0.356646 0.900000 -0.115881
v 0.371967 0.861109 -0.120859
v 0.408954 0.845000 -0.132877
v 0.445942 0.861109 -0.144895
v 0.392373 0.900000 -0.285076
v 0.379341 0.938891 -0.275607
v 0.347877 0.955000 -0.252748
v 0.316414 0.938891 -0.229888
v 0.303381 0.900000 -0.220419
v 0.316414 0.861109 -0.229888
v 0.347877 0.845000 -0.252748
v 0.379341 0.861109 -0.275607
v 0.285076 0.900000 -0.392373
v 0.275607 0.938891 -0.379341
v 0.252748 0.955000 -0.347877
v 0.229888 0.938891 -0.316414
v 0.220420 0.900000 -0.303381
v 0.229888 0.861109 -0.316414
v 0.252748 0.845000 -0.347877
v 0.275607 0.861109 -0.379341
v 0.149873 0.900000 -0.461262
v 0.144895 0.938891 -0.445942
v 0.132877 0.955000 -0.408954
v 0.120859 0.938891 -0.371967
v 0.115881 0.900000 -0.356646
v 0.120859 0.861109 -0.371967
v 0.132877 0.845000 -0.408954
v 0.144895 0.861109 -0.445942
v -0.000000 0.900000 -0.485000
v -0.000000 0.938891 -0.468891
v -0.000000 0.955000 -0.430000
v -0.000000 0.938891 -0.391109
v -0.000000 0.900000 -0.375000
v -0.000000 0.861109 -0.391109
v -0.000000 0.845000 -0.430000
v -0.000000 0.861109 -0.468891
v -0.149873 0.900000 -0.461262
v -0.144895 0.938891 -0.445942
v -0.132877 0.955000 -0.408954
v -0.120859 0.938891 -0.371967
v -0.115881 0.900000 -0.356646
v -0.120859 0.861109 -0.371967
v -0.132877 0.845000 -0.408954
v -0.144895 0.861109 -0.445942
v -0.285076 0.900000 -0.392373
v -0.275607 0.938891 -0.379341
v -0.252747 0.955000 -0.347877
v -0.229888 0.938891 -0.316414
v -0.220419 0.900000 -0.303382
v -0.229888 0.861109 -0.316414
v -0.252747 0.845000 -0.347877
v -0.275607 0.861109 -0.379341
v -0.392373 0.900000 -0.285076
v -0.379341 0.938891 -0.275607
v -0.347877 0.955000 -0.252748
v -0.316414 0.938891 -0.229888
v -0.303381 0.900000 -0.220420
v -0.316414 0.861109 -0.229888
v -0.347877 0.845000 -0.252748
v -0.379341 0.861109 -0.275607
v -0.461262 0.900000 -0.149873
v -0.445942 0.938891 -0.144895
v -0.408954 0.955000 -0.132877
v -0.371967 0.938891 -0.120860
v -0.356646 0.900000 -0.115882
v -0.371967 0.861109 -0.120860
v -0.408954 0.845000 -0.132877
v -0.445942 0.861109 -0.144895
vn -1.0000 -0.0000 -0.0000
vn -0.7252 0.6885 -0.0000
vn -0.0382 0.9993 -0.0000
vn 0.6870 0.7267 -0.0000
vn 1.0000 -0.0000 -0.0000
vn 0.6870 -0.7267 -0.0000
vn -0.0382 -0.9993 -0.0000
vn -0.7252 -0.6885 -0.0000
vn -0.9511 -0.0000 0.3090
vn -0.6897 0.6885 0.2241
vn -0.0364 0.9993 0.0118
vn 0.6533 0.7267 -0.2123
vn 0.9511 -0.0000 -0.3090
vn 0.6533 -0.7267 -0.2123
vn -0.0363 -0.9993 0.0118
vn -0.6897 -0.6885 0.2241
vn -0.8090 -0.0000 0.5878
vn -0.5867 0.6885 0.4263
vn -0.0309 0.9993 0.0225
vn 0.5558 0.7267 -0.4038
vn 0.8090 -0.0000 -0.5878
vn 0.5558 -0.7267 -0.4038
vn -0.0309 -0.9993 0.0225
vn -0.5867 -0.6885 0.4263
vn -0.5878 -0.0000 0.8090
vn -0.4263 0.6885 0.5867
vn -0.0225 0.9993 0.0309
vn 0.4038 0.7267 -0.5558
vn 0.5878 -0.0000 -0.8090
vn 0.4038 -0.7267 -0.5558
vn -0.0225 -0.9993 0.0309
vn -0.4263 -0.6885 0.5867
vn -0.3090 -0.0000 0.9511
vn -0.2241 0.6885 0.6897
vn -0.0118 0.9993 0.0363
vn 0.2123 0.7267 -0.6533
vn 0.3090 -0.0000 -0.9511
vn 0.2123 -0.7267 -0.6533
vn -0.0118 -0.9993 0.0363
vn -0.2241 -0.6885 0.6897
vn -0.0000 -0.0000 1.0000
vn -0.0000 0.6885 0.7252
vn -0.0000 0.9993 0.0382
vn -0.0000 0.7267 -0.6870
vn -0.0000 -0.0000 -1.0000
vn -0.0000 -0.7267 -0.6870
vn -0.0000 -0.9993 0.0382
vn -0.0000 -0.6885 0.7252
vn 0.3090 -0.0000 0.9511
vn 0.2241 0.6885 0.6897
vn 0.0118 0.9993 0.0364
vn -0.2123 0.7267 -0.6533
vn -0.3090 -0.0000 -0.9511
vn -0.2123 -0.7267 -0.6533
vn 0.0118 -0.9993 0.0364
vn 0.2241 -0.6885 0.6897
vn 0.5878 -0.0000 0.8090
vn 0.4263 0.6885 0.5867
vn 0.0225 0.9993 0.0309
vn -0.4038 0.7267 -0.5558
vn -0.5878 -0.0000 -0.8090
vn -0.4038 -0.7267 -0.5558
vn 0.0225 -0.9993 0.0309
vn 0.4263 -0.6885 0.5867
vn 0.8090 -0.0000 0.5878
vn 0.5867 0.6885 0.4263
vn 0.0309 0.9993 0.0225
vn -0.5558 0.7267 -0.4038
vn -0.8090 -0.0000 -0.5878
vn -0.5558 -0.7267 -0.4038
vn 0.0309 -0.9993 0.0225
vn 0.5867 -0.6885 0.4263
vn 0.9511 -0.0000 0.3090
vn 0.6897 0.6885 0.2241
vn 0.0363 0.9993 0.0118
vn -0.6533 0.7267 -0.2123
vn -0.9511 -0.0000 -0.3090
vn -0.6533 -0.7267 -0.2123
vn 0.0364 -0.9993 0.0118
vn 0.6897 -0.6885 0.2241
vn 0.7252 0.6885 -0.0000
vn 0.0382 0.9993 -0.0000
vn -0.6870 0.7267 -0.0000
vn -0.6869 -0.7267 -0.0000
vn 0.0382 -0.9993 -0.0000
vn 0.7252 -0.6885 -0.0000
vn 0.6897 0.6885 -0.2241
vn 0.0363 0.9993 -0.0118
vn -0.6533 0.7267 0.2123
vn -0.6533 -0.7267 0.2123
vn 0.0363 -0.9993 -0.0118
vn 0.6897 -0.6885 -0.2241
vn 0.5867 0.6885 -0.4263
vn 0.0309 0.9993 -0.0225
vn -0.5558 0.7267 0.4038
vn -0.5558 -0.7267 0.4038
vn 0.0309 -0.9993 -0.0225
vn 0.5867 -0.6885 -0.4263
vn 0.4263 0.6885 -0.5867
vn 0.0225 0.9993 -0.0309
vn -0.4038 0.7267 0.5558
vn -0.4038 -0.7267 0.5558
vn 0.0225 -0.9993 -0.0309
vn 0.4263 -0.6885 -0.5867
vn 0.2241 0.6885 -0.6897
vn 0.0118 0.9993 -0.0364
vn -0.2123 0.7267 0.6533
vn -0.2123 -0.7267 0.6533
vn 0.0118 -0.9993 -0.0364
vn 0.2241 -0.6885 -0.6897
vn -0.0000 0.6885 -0.7252
vn -0.0000 0.9993 -0.0382
vn -0.0000 0.7267 0.6869
vn -0.0000 -0.7267 0.6870
vn -0.0000 -0.9993 -0.0382
vn -0.0000 -0.6885 -0.7252
vn -0.2241 0.6885 -0.6897
vn -0.0118 0.9993 -0.0363
vn 0.2123 0.7267 0.6533
vn 0.2123 -0.7267 0.6533
vn -0.0118 -0.9993 -0.0363
vn -0.2241 -0.6885 -0.6897
vn -0.4263 0.6885 -0.5867
vn -0.0225 0.9993 -0.0309
vn 0.4038 0.7267 0.5558
vn 0.4038 -0.7267 0.5558
vn -0.0225 -0.9993 -0.0309
vn -0.4263 -0.6885 -0.5867
vn -0.5867 0.6885 -0.4263
vn -0.0309 0.9993 -0.0225
vn 0.5558 0.7267 0.4038
vn 0.5558 -0.7267 0.4038
vn -0.0309 -0.9993 -0.0225
vn -0.5867 -0.6885 -0.4263
vn -0.6897 0.6885 -0.2241
vn -0.0363 0.9993 -0.0118
vn 0.6533 0.7267 0.2123
vn 0.6533 -0.7267 0.2123
vn -0.0363 -0.9993 -0.0118
vn -0.6897 -0.6885 -0.2241
s 1
g arpg_brazier_rim_M_gold
usemtl M_gold
f 185/292/155 186/293/156 338/266/289
f 185/292/155 193/319/163 194/320/164
f 185/292/155 194/320/164 186/293/156
f 185/292/155 338/266/289 337/263/231
f 186/293/156 187/294/157 339/267/290
f 186/293/156 339/267/290 338/266/289
f 187/294/157 188/295/158 340/268/291
f 187/294/157 340/268/291 339/267/290
f 188/295/158 189/296/159 341/271/227
f 188/295/158 341/271/227 340/268/291
f 189/288/159 190/289/160 342/260/292
f 189/288/159 197/315/167 198/316/168
f 189/288/159 198/316/168 190/289/160
f 189/288/159 342/260/292 341/259/227
f 191/290/161 192/291/162 344/262/294
f 191/290/161 344/262/294 343/261/293
f 192/291/162 185/292/155 337/263/231
f 192/291/162 337/263/231 344/262/294
f 194/320/164 187/294/157 186/293/156
f 194/320/164 195/321/165 187/294/157
f 195/321/165 188/295/158 187/294/157
f 195/321/165 196/322/166 188/295/158
f 195/321/165 203/363/173 204/364/174
f 195/321/165 204/364/174 196/322/166
f 196/322/166 189/296/159 188/295/158
f 196/322/166 197/323/167 189/296/159
f 198/316/168 191/290/161 190/289/160
f 198/316/168 199/317/169 191/290/161
f 199/317/169 192/291/162 191/290/161
f 199/317/169 200/318/170 192/291/162
f 200/318/170 185/292/155 192/291/162
f 200/318/170 193/319/163 185/292/155
f 201/361/171 194/320/164 193/319/163
f 201/361/171 202/362/172 194/320/164
f 202/362/172 195/321/165 194/320/164
f 202/362/172 203/363/173 195/321/165
f 204/364/174 197/323/167 196/322/166
f 204/364/174 205/365/175 197/323/167
f 204/364/174 212/388/182 213/389/183
f 204/364/174 213/389/183 205/365/175
f 205/357/175 198/316/168 197/315/167
f 205/357/175 206/358/176 198/316/168
f 206/358/176 199/317/169 198/316/168
f 206/358/176 207/359/177 199/317/169
f 207/359/177 200/318/170 199/317/169
f 207/359/177 208/360/178 200/318/170
f 208/360/178 193/319/163 200/318/170
f 208/360/178 201/361/171 193/319/163
f 208/360/178 209/385/179 201/361/171
f 208/360/178 216/384/186 209/385/179
f 209/385/179 202/362/172 201/361/171
f 209/385/179 210/386/180 202/362/172
f 210/386/180 203/363/173 202/362/172
f 210/386/180 211/387/181 203/363/173
f 211/387/181 204/364/174 203/363/173
f 211/387/181 212/388/182 204/364/174
f 213/381/183 206/358/176 205/357/175
f 213/381/183 214/382/184 206/358/176
f 214/382/184 207/359/177 206/358/176
f 214/382/184 215/383/185 207/359/177
f 215/383/185 208/360/178 207/359/177
f 215/383/185 216/384/186 208/360/178
f 215/383/185 223/397/193 224/398/194
f 215/383/185 224/398/194 216/384/186
f 217/404/187 210/386/180 209/385/179
f 217/404/187 218/407/188 210/386/180
f 217/404/187 225/419/195 226/420/196
f 217/404/187 226/420/196 218/407/188
f 218/407/188 211/387/181 210/386/180
f 218/407/188 219/408/189 211/387/181
f 219/408/189 212/388/182 211/387/181
f 219/408/189 220/409/190 212/388/182
f 220/409/190 213/389/183 212/388/182
f 220/409/190 221/412/191 213/389/183
f 221/390/191 214/382/184 213/381/183
f 221/390/191 222/396/192 214/382/184
f 222/396/192 215/383/185 214/382/184
f 222/396/192 223/397/193 215/383/185
f 223/397/193 231/417/201 232/418/202
f 223/397/193 232/418/202 224/398/194
f 224/398/194 209/385/179 216/384/186
f 224/398/194 217/404/187 209/385/179
f 226/420/196 219/408/189 218/407/188
f 226/420/196 227/421/197 219/408/189
f 226/420/196 234/445/204 235/446/205
f 226/420/196 235/446/205 227/421/197
f 227/421/197 220/409/190 219/408/189
f 227/421/197 228/422/198 220/409/190
f 228/422/198 221/412/191 220/409/190
f 228/422/198 229/423/199 221/412/191
f 229/415/199 222/396/192 221/390/191
f 229/415/199 230/416/200 222/396/192
f 230/416/200 223/397/193 222/396/192
f 230/416/200 231/417/201 223/397/193
f 230/416/200 238/441/208 239/442/209
f 230/416/200 239/442/209 231/417/201
f 232/418/202 217/404/187 224/398/194
f 232/418/202 225/419/195 217/404/187
f 233/444/203 226/420/196 225/419/195
f 233/444/203 234/445/204 226/420/196
f 234/445/204 242/468/212 243/469/213
f 234/445/204 243/469/213 235/446/205
f 235/446/205 228/422/198 227/421/197
f 235/446/205 236/447/206 228/422/198
f 235/446/205 243/469/213 244/470/214
f 235/446/205 244/470/214 236/447/206
f 236/447/206 229/423/199 228/422/198
f 236/447/206 237/448/207 229/423/199
f 237/440/207 230/416/200 229/415/199
f 237/440/207 238/441/208 230/416/200
f 239/442/209 232/418/202 231/417/201
f 239/442/209 240/443/210 232/418/202
f 240/443/210 225/419/195 232/418/202
f 240/443/210 233/444/203 225/419/195
f 241/467/211 234/445/204 233/444/203
f 241/467/211 242/468/212 234/445/204
f 244/470/214 237/448/207 236/447/206
f 244/470/214 245/471/215 237/448/207
f 245/463/215 238/441/208 237/440/207
f 245/463/215 246/464/216 238/441/208
f 246/464/216 239/442/209 238/441/208
f 246/464/216 247/465/217 239/442/209
f 247/465/217 240/443/210 239/442/209
f 247/465/217 248/466/218 240/443/210
f 247/465/217 255/490/225 256/491/226
f 247/465/217 256/491/226 248/466/218
f 248/466/218 233/444/203 240/443/210
f 248/466/218 241/467/211 233/444/203
f 249/492/219 242/468/212 241/467/211
f 249/492/219 250/493/220 242/468/212
f 250/493/220 243/469/213 242/468/212
f 250/493/220 251/494/221 243/469/213
f 251/494/221 244/470/214 243/469/213
f 251/494/221 252/495/222 244/470/214
f 252/495/222 245/471/215 244/470/214
f 252/495/222 253/496/223 245/471/215
f 252/495/222 260/526/230 261/529/231
f 252/495/222 261/529/231 253/496/223
f 253/488/223 246/464/216 245/463/215
f 253/488/223 254/489/224 246/464/216
f 254/489/224 247/465/217 246/464/216
f 254/489/224 255/490/225 247/465/217
f 254/489/224 262/518/232 263/519/233
f 254/489/224 263/519/233 255/490/225
f 255/490/225 263/519/233 264/520/234
f 255/490/225 264/520/234 256/491/226
f 256/491/226 241/467/211 248/466/218
f 256/491/226 249/492/219 241/467/211
f 257/5/227 265/38/159 266/39/235
f 257/5/227 266/39/235 258/8/228
f 257/521/227 250/493/220 249/492/219
f 257/521/227 258/524/228 250/493/220
f 258/524/228 251/494/221 250/493/220
f 258/524/228 259/525/229 251/494/221
f 259/525/229 252/495/222 251/494/221
f 259/525/229 260/526/230 252/495/222
f 261/1/231 269/34/155 270/35/238
f 261/1/231 270/35/238 262/2/232
f 261/517/231 254/489/224 253/488/223
f 261/517/231 262/518/232 254/489/224
f 264/520/234 249/492/219 256/491/226
f 264/520/234 257/521/227 249/492/219
f 266/39/235 259/9/229 258/8/228
f 266/39/235 267/40/236 259/9/229
f 267/40/236 260/10/230 259/9/229
f 267/40/236 268/41/237 260/10/230
f 267/40/236 275/65/242 276/66/243
f 267/40/236 276/66/243 268/41/237
f 268/41/237 261/13/231 260/10/230
f 268/41/237 269/42/155 261/13/231
f 270/35/238 263/3/233 262/2/232
f 270/35/238 271/36/239 263/3/233
f 271/36/239 264/4/234 263/3/233
f 271/36/239 272/37/240 264/4/234
f 272/37/240 257/5/227 264/4/234
f 272/37/240 265/38/159 257/5/227
f 273/63/167 266/39/235 265/38/159
f 273/63/167 274/64/241 266/39/235
f 274/64/241 267/40/236 266/39/235
f 274/64/241 275/65/242 267/40/236
f 276/66/243 269/42/155 268/41/237
f 276/66/243 277/67/163 269/42/155
f 277/59/163 270/35/238 269/34/155
f 277/59/163 278/60/244 270/35/238
f 277/59/163 285/82/171 286/83/250
f 277/59/163 286/83/250 278/60/244
f 278/60/244 271/36/239 270/35/238
f 278/60/244 279/61/245 271/36/239
f 279/61/245 272/37/240 271/36/239
f 279/61/245 280/62/246 272/37/240
f 280/62/246 265/38/159 272/37/240
f 280/62/246 273/63/167 265/38/159
f 281/86/175 274/64/241 273/63/167
f 281/86/175 282/87/247 274/64/241
f 282/87/247 275/65/242 274/64/241
f 282/87/247 283/88/248 275/65/242
f 283/88/248 276/66/243 275/65/242
f 283/88/248 284/89/249 276/66/243
f 284/89/249 277/67/163 276/66/243
f 284/89/249 285/90/171 277/67/163
f 286/83/250 279/61/245 278/60/244
f 286/83/250 287/84/251 279/61/245
f 287/84/251 280/62/246 279/61/245
f 287/84/251 288/85/252 280/62/246
f 288/85/252 273/63/167 280/62/246
f 288/85/252 281/86/175 273/63/167
f 289/111/183 282/87/247 281/86/175
f 289/111/183 290/112/253 282/87/247
f 290/112/253 283/88/248 282/87/247
f 290/112/253 291/113/254 283/88/248
f 291/113/254 284/89/249 283/88/248
f 291/113/254 292/114/255 284/89/249
f 292/114/255 285/90/171 284/89/249
f 292/114/255 293/115/179 285/90/171
f 293/107/179 286/83/250 285/82/171
f 293/107/179 294/108/256 286/83/250
f 294/108/256 287/84/251 286/83/250
f 294/108/256 295/109/257 287/84/251
f 294/108/256 302/124/262 303/125/263
f 294/108/256 303/125/263 295/109/257
f 295/109/257 288/85/252 287/84/251
f 295/109/257 296/110/258 288/85/252
f 295/109/257 303/125/263 304/126/264
f 295/109/257 304/126/264 296/110/258
f 296/110/258 281/86/175 288/85/252
f 296/110/258 289/111/183 281/86/175
f 297/132/191 290/112/253 289/111/183
f 297/132/191 298/135/259 290/112/253
f 298/135/259 291/113/254 290/112/253
f 298/135/259 299/136/260 291/113/254
f 299/136/260 292/114/255 291/113/254
f 299/136/260 300/137/261 292/114/255
f 299/136/260 307/147/266 308/148/267
f 299/136/260 308/148/267 300/137/261
f 300/137/261 293/115/179 292/114/255
f 300/137/261 301/140/187 293/115/179
f 301/118/187 294/108/256 293/107/179
f 301/118/187 302/124/262 294/108/256
f 304/126/264 289/111/183 296/110/258
f 304/126/264 297/132/191 289/111/183
f 305/145/199 298/135/259 297/132/191
f 305/145/199 306/146/265 298/135/259
f 306/146/265 299/136/260 298/135/259
f 306/146/265 307/147/266 299/136/260
f 306/146/265 314/170/271 315/171/272
f 306/146/265 315/171/272 307/147/266
f 308/148/267 301/140/187 300/137/261
f 308/148/267 309/149/195 301/140/187
f 308/148/267 316/172/273 317/173/203
f 308/148/267 317/173/203 309/149/195
f 309/141/195 302/124/262 301/118/187
f 309/141/195 310/142/268 302/124/262
f 310/142/268 303/125/263 302/124/262
f 310/142/268 311/143/269 303/125/263
f 311/143/269 304/126/264 303/125/263
f 311/143/269 312/144/270 304/126/264
f 312/144/270 297/132/191 304/126/264
f 312/144/270 305/145/199 297/132/191
f 313/169/207 306/146/265 305/145/199
f 313/169/207 314/170/271 306/146/265
f 313/169/207 321/211/215 322/212/277
f 313/169/207 322/212/277 314/170/271
f 315/171/272 308/148/267 307/147/266
f 315/171/272 316/172/273 308/148/267
f 317/165/203 310/142/268 309/141/195
f 317/165/203 318/166/274 310/142/268
f 318/166/274 311/143/269 310/142/268
f 318/166/274 319/167/275 311/143/269
f 319/167/275 312/144/270 311/143/269
f 319/167/275 320/168/276 312/144/270
f 319/167/275 327/209/281 328/210/282
f 319/167/275 328/210/282 320/168/276
f 320/168/276 305/145/199 312/144/270
f 320/168/276 313/169/207 305/145/199
f 322/212/277 315/171/272 314/170/271
f 322/212/277 323/213/278 315/171/272
f 323/213/278 316/172/273 315/171/272
f 323/213/278 324/214/279 316/172/273
f 324/214/279 317/173/203 316/172/273
f 324/214/279 325/215/211 317/173/203
f 325/207/211 318/166/274 317/165/203
f 325/207/211 326/208/280 318/166/274
f 325/207/211 333/234/219 334/235/286
f 325/207/211 334/235/286 326/208/280
f 326/208/280 319/167/275 318/166/274
f 326/208/280 327/209/281 319/167/275
f 326/208/280 334/235/286 335/236/287
f 326/208/280 335/236/287 327/209/281
f 327/209/281 335/236/287 336/237/288
f 327/209/281 336/237/288 328/210/282
f 328/210/282 313/169/207 320/168/276
f 328/210/282 321/211/215 313/169/207
f 329/238/223 322/212/277 321/211/215
f 329/238/223 330/239/283 322/212/277
f 330/239/283 323/213/278 322/212/277
f 330/239/283 331/240/284 323/213/278
f 331/240/284 324/214/279 323/213/278
f 331/240/284 332/241/285 324/214/279
f 332/241/285 325/215/211 324/214/279
f 332/241/285 333/242/219 325/215/211
f 332/241/285 340/268/291 341/271/227
f 332/241/285 341/271/227 333/242/219
f 333/234/219 341/259/227 342/260/292
f 333/234/219 342/260/292 334/235/286
f 336/237/288 321/211/215 328/210/282
f 336/237/288 329/238/223 321/211/215
f 337/263/231 330/239/283 329/238/223
f 337/263/231 338/266/289 330/239/283
f 338/266/289 331/240/284 330/239/283
f 338/266/289 339/267/290 331/240/284
f 339/267/290 332/241/285 331/240/284
f 339/267/290 340/268/291 332/241/285
f 342/260/292 190/289/160 191/290/161
f 342/260/292 191/290/161 343/261/293
f 342/260/292 335/236/287 334/235/286
f 342/260/292 343/261/293 335/236/287
f 343/261/293 336/237/288 335/236/287
f 343/261/293 344/262/294 336/237/288
f 344/262/294 329/238/223 336/237/288
f 344/262/294 337/263/231 329/238/223
g arpg_brazier_flame_outer_Cone.028
v 0.000000 0.870000 0.310000
v 0.000000 1.610000 0.020000
v -0.199264 0.870000 0.237474
v -0.012856 1.610000 0.015321
v -0.305290 0.870000 0.053831
v -0.019696 1.610000 0.003473
v -0.268468 0.870000 -0.155000
v -0.017321 1.610000 -0.010000
v -0.106026 0.870000 -0.291305
v -0.006840 1.610000 -0.018794
v 0.106026 0.870000 -0.291305
v 0.006840 1.610000 -0.018794
v 0.268468 0.870000 -0.155000
v 0.017321 1.610000 -0.010000
v 0.305290 0.870000 0.053831
v 0.019696 1.610000 0.003473
v 0.199264 0.870000 0.237474
v 0.012856 1.610000 0.015321
vn -0.3209 0.3456 0.8818
vn -0.8127 0.3456 0.4692
vn -0.9241 0.3456 -0.1630
vn -0.6032 0.3456 -0.7189
vn -0.0000 0.3456 -0.9384
vn 0.6032 0.3456 -0.7189
vn 0.9241 0.3456 -0.1630
vn -0.0000 1.0000 -0.0000
vn 0.8127 0.3456 0.4692
vn 0.3209 0.3456 0.8818
vn -0.0000 -1.0000 -0.0000
vn 0.9241 0.3456 -0.1629
s 0
g arpg_brazier_flame_outer_M_orange
usemtl M_orange
f 346/131/302 356/102/302 352/247/302
f 346/131/302 360/21/302 356/102/302
f 346/131/302 362/58/302 360/21/302
f 346/529/295 347/461/295 345/521/295
f 346/529/295 348/462/295 347/461/295
f 347/472/305 349/509/305 351/501/305
f 347/472/305 351/501/305 355/376/305
f 347/472/305 355/376/305 359/275/305
f 348/462/296 349/413/296 347/461/296
f 348/462/296 350/414/296 349/413/296
f 350/255/302 348/216/302 346/131/302
f 350/414/297 351/370/297 349/413/297
f 350/414/297 352/375/297 351/370/297
f 351/501/305 353/428/305 355/376/305
f 352/247/302 350/255/302 346/131/302
f 352/375/298 353/297/298 351/370/298
f 352/375/298 354/298/298 353/297/298
f 354/298/299 355/232/299 353/297/299
f 354/298/299 356/233/299 355/232/299
f 355/376/305 357/283/305 359/275/305
f 356/102/302 354/154/302 352/247/302
f 356/233/300 357/155/300 355/232/300
f 356/233/300 358/160/300 357/155/300
f 358/160/301 359/116/301 357/155/301
f 358/160/306 360/117/306 359/116/306
f 359/275/305 361/314/305 347/472/305
f 360/117/303 361/68/303 359/116/303
f 360/117/303 362/69/303 361/68/303
f 360/21/302 358/29/302 356/102/302
f 361/314/305 345/403/305 347/472/305
f 362/69/304 345/5/304 361/68/304
f 362/69/304 346/13/304 345/5/304
g arpg_brazier_flame_inner_Cone.029
v 0.000000 1.020000 0.140000
v -0.132911 1.020000 0.075993
v -0.165738 1.020000 -0.067829
v -0.073760 1.020000 -0.183165
v 0.073760 1.020000 -0.183165
v 0.165738 1.020000 -0.067829
v 0.132911 1.020000 0.075993
v 0.000000 1.520000 -0.030000
vn -0.4149 0.2929 0.8615
vn -0.9322 0.2929 0.2128
vn -0.7475 0.2929 -0.5961
vn -0.0000 0.2929 -0.9561
vn 0.7475 0.2929 -0.5961
vn -0.0000 -1.0000 -0.0000
vn 0.9322 0.2929 0.2128
vn 0.4149 0.2929 0.8615
s 0
g arpg_brazier_flame_inner_M_gold
usemtl M_gold
f 363/131/307 370/125/307 364/231/307
f 364/231/308 370/125/308 365/254/308
f 364/487/312 365/508/312 366/449/312
f 364/487/312 366/449/312 368/276/312
f 365/254/309 370/125/309 366/174/309
f 366/174/310 370/125/310 367/81/310
f 366/449/312 367/356/312 368/276/312
f 367/81/311 370/125/311 368/22/311
f 368/22/313 370/125/313 369/43/313
f 368/276/312 369/299/312 364/487/312
f 369/299/312 363/403/312 364/487/312
f 369/43/314 370/125/314 363/131/314
g arpg_brazier_leg_0_Cube.144
v -0.214519 0.092137 -0.030000
v -0.217638 0.106810 -0.045000
v -0.202966 0.109928 -0.030000
v -0.215433 0.096435 -0.040607
v -0.207367 0.100139 -0.038660
v -0.207263 0.109015 -0.040607
v -0.205058 0.098640 -0.030000
v -0.323673 0.605665 -0.045000
v -0.326792 0.620337 -0.030000
v -0.309001 0.608784 -0.030000
v -0.325878 0.616040 -0.040607
v -0.317003 0.615937 -0.038660
v -0.315503 0.618245 -0.030000
v -0.313298 0.607870 -0.040607
v -0.214519 0.092137 0.030000
v -0.202966 0.109928 0.030000
v -0.217638 0.106810 0.045000
v -0.205058 0.098640 0.030000
v -0.207367 0.100139 0.038660
v -0.207263 0.109015 0.040607
v -0.215433 0.096435 0.040607
v -0.326792 0.620337 0.030000
v -0.323673 0.605665 0.045000
v -0.309001 0.608784 0.030000
v -0.325878 0.616040 0.040607
v -0.317003 0.615937 0.038660
v -0.313298 0.607870 0.040607
v -0.315503 0.618245 0.030000
v -0.273208 0.079663 -0.030000
v -0.290999 0.091216 -0.030000
v -0.276327 0.094335 -0.045000
v -0.284497 0.081755 -0.030000
v -0.282997 0.084063 -0.038660
v -0.286702 0.092130 -0.040607
v -0.274122 0.083960 -0.040607
v -0.385481 0.607862 -0.030000
v -0.382362 0.593190 -0.045000
v -0.397034 0.590072 -0.030000
v -0.384567 0.603565 -0.040607
v -0.392633 0.599861 -0.038660
v -0.392737 0.590985 -0.040607
v -0.394942 0.601360 -0.030000
v -0.273208 0.079663 0.030000
v -0.276327 0.094335 0.045000
v -0.290999 0.091216 0.030000
v -0.274122 0.083960 0.040607
v -0.282997 0.084063 0.038660
v -0.286702 0.092130 0.040607
v -0.284497 0.081755 0.030000
v -0.385481 0.607862 0.030000
v -0.397034 0.590072 0.030000
v -0.382362 0.593190 0.045000
v -0.394942 0.601360 0.030000
v -0.392633 0.599861 0.038660
v -0.392737 0.590985 0.040607
v -0.384567 0.603565 0.040607
vn 0.5435 -0.7907 -0.2817
vn 0.3519 -0.3006 -0.8865
vn 0.9257 -0.0913 -0.3672
vn 0.3006 0.3519 -0.8865
vn 0.0913 0.9257 -0.3672
vn 0.7907 0.5435 -0.2817
vn 0.4599 -0.8085 0.3672
vn 0.9434 -0.1749 0.2817
vn 0.4177 -0.1993 0.8865
vn 0.1748 0.9434 0.2817
vn 0.1992 0.4177 0.8865
vn 0.8085 0.4599 0.3672
vn -0.0913 -0.9257 -0.3672
vn -0.7907 -0.5435 -0.2817
vn -0.3006 -0.3519 -0.8865
vn -0.5435 0.7907 -0.2817
vn -0.3519 0.3006 -0.8865
vn -0.9257 0.0913 -0.3672
vn -0.1748 -0.9434 0.2817
vn -0.1992 -0.4177 0.8865
vn -0.8085 -0.4599 0.3672
vn -0.4599 0.8085 0.3672
vn -0.9434 0.1749 0.2817
vn -0.4177 0.1993 0.8865
vn 0.5664 -0.8241 -0.0000
vn 0.9833 -0.1822 -0.0000
vn 0.3743 0.0796 -0.9239
vn 0.9037 0.1921 -0.3827
vn 0.1822 0.9833 -0.0000
vn 0.8241 0.5664 -0.0000
vn 0.3743 0.0796 0.9239
vn 0.9037 0.1921 0.3827
vn 0.1921 -0.9037 0.3827
vn 0.0796 -0.3743 0.9239
vn -0.1921 0.9037 0.3827
vn -0.0796 0.3743 0.9239
vn -0.9037 -0.1921 0.3827
vn -0.3743 -0.0796 0.9239
vn -0.1822 -0.9833 -0.0000
vn -0.8241 -0.5664 -0.0000
vn -0.5664 0.8241 -0.0000
vn -0.9833 0.1822 -0.0000
vn -0.3743 -0.0796 -0.9239
vn -0.9037 -0.1921 -0.3827
vn 0.1921 -0.9037 -0.3827
vn 0.0796 -0.3743 -0.9239
vn -0.1921 0.9037 -0.3827
vn -0.0796 0.3743 -0.9239
vn 0.2079 -0.9781 -0.0000
vn 0.9781 0.2079 -0.0000
vn -0.0000 -0.0000 -1.0000
vn -0.2079 0.9781 -0.0000
vn -0.0000 -0.0000 1.0000
vn -0.9781 -0.2079 -0.0000
vn 0.4599 -0.8085 -0.3672
vn 0.4177 -0.1993 -0.8865
vn 0.9434 -0.1749 -0.2817
vn 0.1992 0.4177 -0.8865
vn 0.1748 0.9434 -0.2817
vn 0.8085 0.4599 -0.3672
vn 0.5435 -0.7907 0.2817
vn 0.9257 -0.0913 0.3672
vn 0.3519 -0.3006 0.8865
vn 0.0913 0.9257 0.3672
vn 0.3006 0.3519 0.8865
vn 0.7907 0.5435 0.2817
vn -0.1748 -0.9434 -0.2817
vn -0.8085 -0.4599 -0.3672
vn -0.1992 -0.4177 -0.8865
vn -0.4599 0.8085 -0.3672
vn -0.4177 0.1993 -0.8865
vn -0.9434 0.1749 -0.2817
vn -0.0913 -0.9257 0.3672
vn -0.3006 -0.3519 0.8865
vn -0.7907 -0.5435 0.2817
vn -0.5435 0.7907 0.2817
vn -0.9257 0.0913 0.3672
vn -0.3519 0.3006 0.8865
s 0
g arpg_brazier_leg_0_M_steel
usemtl M_steel
f 371/98/315 375/80/315 377/73/315
f 371/98/339 377/73/339 388/72/339
f 371/98/339 388/72/339 385/96/339
f 371/98/369 374/99/369 375/80/369
f 372/205/316 375/193/316 374/189/316
f 372/205/370 376/206/370 375/193/370
f 373/195/317 375/182/317 376/194/317
f 373/195/371 377/183/371 375/182/371
f 377/183/340 373/195/340 386/196/340
f 377/183/340 386/196/340 388/184/340
f 378/335/318 382/347/318 384/336/318
f 378/335/341 376/206/341 372/205/341
f 378/335/341 384/336/341 376/206/341
f 378/335/372 381/346/372 382/347/372
f 379/432/319 382/458/319 381/433/319
f 379/432/361 381/433/361 409/355/361
f 379/432/361 409/355/361 406/373/361
f 379/432/373 383/457/373 382/458/373
f 380/325/320 382/337/320 383/340/320
f 380/325/364 386/196/364 373/195/364
f 380/325/364 394/326/364 386/196/364
f 380/325/374 384/324/374 382/337/374
f 381/346/362 378/335/362 407/334/362
f 381/346/362 407/334/362 409/355/362
f 384/324/342 373/195/342 376/194/342
f 384/324/342 380/325/342 373/195/342
f 385/96/321 389/71/321 391/95/321
f 385/96/347 391/95/347 416/175/347
f 385/96/347 416/175/347 413/156/347
f 385/96/375 388/72/375 389/71/375
f 386/196/322 389/192/322 388/184/322
f 386/196/376 390/197/376 389/192/376
f 387/198/323 389/192/323 390/197/323
f 387/198/345 390/197/345 397/327/345
f 387/198/345 397/327/345 393/328/345
f 387/198/377 391/185/377 389/192/377
f 390/197/346 386/196/346 394/326/346
f 390/197/346 394/326/346 397/327/346
f 391/185/348 387/198/348 414/199/348
f 391/185/348 414/199/348 416/175/348
f 392/430/324 396/450/324 398/456/324
f 392/430/343 383/457/343 379/432/343
f 392/430/343 398/456/343 383/457/343
f 392/430/366 379/432/366 406/373/366
f 392/430/366 406/373/366 420/371/366
f 392/430/378 395/429/378 396/450/378
f 393/328/325 396/338/325 395/342/325
f 393/328/367 414/199/367 387/198/367
f 393/328/367 422/329/367 414/199/367
f 393/328/379 397/327/379 396/338/379
f 394/326/326 396/338/326 397/327/326
f 394/326/380 398/341/380 396/338/380
f 398/341/344 380/325/344 383/340/344
f 398/341/344 394/326/344 380/325/344
f 399/158/327 403/191/327 405/176/327
f 399/158/359 374/99/359 371/98/359
f 399/158/359 405/176/359 374/99/359
f 399/158/381 402/188/381 403/191/381
f 400/202/328 403/191/328 402/188/328
f 400/202/382 404/203/382 403/191/382
f 401/204/329 403/191/329 404/203/329
f 401/204/357 404/203/357 411/333/357
f 401/204/357 411/333/357 407/334/357
f 401/204/383 405/176/383 403/191/383
f 404/203/358 400/202/358 408/332/358
f 404/203/358 408/332/358 411/333/358
f 405/176/360 372/205/360 374/189/360
f 405/176/360 401/204/360 372/205/360
f 406/373/330 410/349/330 412/345/330
f 406/373/355 412/345/355 423/344/355
f 406/373/355 423/344/355 420/371/355
f 406/373/384 409/355/384 410/349/384
f 407/334/331 410/349/331 409/355/331
f 407/334/365 372/205/365 401/204/365
f 407/334/365 378/335/365 372/205/365
f 407/334/385 411/333/385 410/349/385
f 408/332/332 410/349/332 411/333/332
f 408/332/386 412/345/386 410/349/386
f 412/345/356 408/332/356 421/331/356
f 412/345/356 421/331/356 423/344/356
f 413/156/333 417/181/333 419/187/333
f 413/156/353 402/188/353 399/158/353
f 413/156/353 419/187/353 402/188/353
f 413/156/363 371/98/363 385/96/363
f 413/156/363 399/158/363 371/98/363
f 413/156/387 416/175/387 417/181/387
f 414/199/334 417/181/334 416/175/334
f 414/199/388 418/200/388 417/181/388
f 415/201/335 417/181/335 418/200/335
f 415/201/351 418/200/351 425/330/351
f 415/201/351 425/330/351 421/331/351
f 415/201/389 419/187/389 417/181/389
f 418/200/352 414/199/352 422/329/352
f 418/200/352 422/329/352 425/330/352
f 419/187/354 400/202/354 402/188/354
f 419/187/354 415/201/354 400/202/354
f 420/371/336 424/339/336 426/354/336
f 420/371/349 395/429/349 392/430/349
f 420/371/349 426/354/349 395/429/349
f 420/371/390 423/344/390 424/339/390
f 421/331/337 424/339/337 423/344/337
f 421/331/368 400/202/368 415/201/368
f 421/331/368 408/332/368 400/202/368
f 421/331/391 425/330/391 424/339/391
f 422/329/338 424/339/338 425/330/338
f 422/329/392 426/354/392 424/339/392
f 426/354/350 393/328/350 395/342/350
f 426/354/350 422/329/350 393/328/350
g arpg_brazier_leg_1_Cube.145
v 0.081279 0.092137 0.200779
v 0.069848 0.106810 0.210980
v 0.075502 0.109928 0.190774
v 0.072550 0.096435 0.206874
v 0.070202 0.100139 0.198915
v 0.068465 0.109015 0.199799
v 0.076548 0.098640 0.192585
v 0.122865 0.605665 0.302809
v 0.137415 0.620337 0.298010
v 0.128520 0.608784 0.282603
v 0.127773 0.616040 0.302522
v 0.125021 0.615937 0.293862
v 0.131771 0.618245 0.288234
v 0.121483 0.607870 0.291628
v 0.133240 0.092137 0.170779
v 0.127464 0.109928 0.160774
v 0.147790 0.106810 0.165980
v 0.128510 0.098640 0.162585
v 0.137164 0.100139 0.160255
v 0.138798 0.109015 0.159192
v 0.142883 0.096435 0.166267
v 0.189377 0.620337 0.268010
v 0.200808 0.605665 0.257809
v 0.180481 0.608784 0.252603
v 0.198105 0.616040 0.261916
v 0.191982 0.615937 0.255202
v 0.191815 0.607870 0.251021
v 0.183732 0.618245 0.258234
v 0.110623 0.079663 0.251605
v 0.119519 0.091216 0.267013
v 0.099192 0.094335 0.261806
v 0.116268 0.081755 0.261381
v 0.108018 0.084063 0.264413
v 0.108185 0.092130 0.268594
v 0.101895 0.083960 0.257700
v 0.166760 0.607862 0.348836
v 0.152210 0.593190 0.353635
v 0.172536 0.590072 0.358842
v 0.157117 0.603565 0.353348
v 0.162836 0.599861 0.359361
v 0.161202 0.590985 0.360423
v 0.171490 0.601360 0.357030
v 0.162585 0.079663 0.221605
v 0.177135 0.094335 0.216806
v 0.171480 0.091216 0.237013
v 0.172227 0.083960 0.217093
v 0.174979 0.084063 0.225753
v 0.178517 0.092130 0.227988
v 0.168229 0.081755 0.231381
v 0.218721 0.607862 0.318836
v 0.224498 0.590072 0.328842
v 0.230152 0.593190 0.308635
v 0.223452 0.601360 0.327030
v 0.229798 0.599861 0.320700
v 0.231535 0.590985 0.319817
v 0.227450 0.603565 0.312742
vn -0.5157 -0.7907 -0.3298
vn -0.9437 -0.3006 0.1384
vn -0.7808 -0.0913 -0.6181
vn -0.9180 0.3519 0.1829
vn -0.3636 0.9257 0.1045
vn -0.6394 0.5435 -0.5439
vn 0.0880 -0.8085 -0.5819
vn -0.2277 -0.1749 -0.9579
vn 0.5588 -0.1993 -0.8050
vn 0.1566 0.9434 -0.2923
vn 0.6681 0.4177 -0.6158
vn -0.0863 0.4599 -0.8838
vn -0.2723 -0.9257 0.2626
vn 0.1514 -0.5435 0.8257
vn -0.6174 -0.3519 0.7035
vn 0.0277 0.7907 0.6115
vn -0.5917 0.3006 0.7480
vn 0.1448 0.0913 0.9852
vn 0.3314 -0.9434 0.0105
vn 0.8673 -0.4177 -0.2707
vn 0.7222 -0.4599 0.5166
vn 0.5479 0.8085 0.2147
vn 0.7157 0.1749 0.6762
vn 0.9766 0.1993 -0.0815
vn -0.2832 -0.8241 -0.4905
vn -0.4916 -0.1822 -0.8515
vn -0.9873 0.0796 0.1378
vn -0.7833 0.1921 -0.5913
vn -0.0911 0.9833 -0.1578
vn -0.4121 0.5664 -0.7137
vn 0.6129 0.0796 -0.7861
vn -0.1204 0.1921 -0.9740
vn 0.2354 -0.9037 -0.3577
vn 0.7603 -0.3743 -0.5308
vn 0.4275 0.9037 -0.0250
vn 0.8399 0.3743 -0.3930
vn 0.7833 -0.1921 0.5913
vn 0.9873 -0.0796 -0.1378
vn 0.0911 -0.9833 0.1578
vn 0.4121 -0.5664 0.7137
vn 0.2832 0.8241 0.4905
vn 0.4916 0.1822 0.8515
vn -0.6129 -0.0796 0.7861
vn 0.1204 -0.1921 0.9740
vn -0.4275 -0.9037 0.0250
vn -0.8399 -0.3743 0.3930
vn -0.2354 0.9037 0.3577
vn -0.7603 0.3743 0.5308
vn -0.1040 -0.9781 -0.1801
vn -0.4891 0.2079 -0.8471
vn -0.8660 -0.0000 0.5000
vn 0.1040 0.9781 0.1801
vn 0.8660 -0.0000 -0.5000
vn 0.4891 -0.2079 0.8471
vn -0.5479 -0.8085 -0.2147
vn -0.9766 -0.1993 0.0815
vn -0.7157 -0.1749 -0.6762
vn -0.8673 0.4177 0.2707
vn -0.3314 0.9434 -0.0105
vn -0.7222 0.4599 -0.5166
vn -0.0277 -0.7907 -0.6115
vn -0.1448 -0.0913 -0.9852
vn 0.5917 -0.3006 -0.7480
vn 0.2723 0.9257 -0.2626
vn 0.6174 0.3519 -0.7035
vn -0.1514 0.5435 -0.8257
vn -0.1566 -0.9434 0.2923
vn 0.0863 -0.4599 0.8838
vn -0.6681 -0.4177 0.6158
vn -0.0880 0.8085 0.5819
vn -0.5588 0.1993 0.8050
vn 0.2277 0.1749 0.9579
vn 0.3636 -0.9257 -0.1045
vn 0.9180 -0.3519 -0.1829
vn 0.6394 -0.5435 0.5439
vn 0.5157 0.7907 0.3298
vn 0.7808 0.0913 0.6181
vn 0.9437 0.3006 -0.1384
s 0
g arpg_brazier_leg_1_M_steel
usemtl M_steel
f 427/98/393 431/80/393 433/73/393
f 427/98/417 433/73/417 444/72/417
f 427/98/417 444/72/417 441/96/417
f 427/98/447 430/99/447 431/80/447
f 428/205/394 431/193/394 430/189/394
f 428/205/448 432/206/448 431/193/448
f 429/195/395 431/182/395 432/194/395
f 429/195/449 433/183/449 431/182/449
f 433/183/418 429/195/418 442/196/418
f 433/183/418 442/196/418 444/184/418
f 434/335/396 438/347/396 440/336/396
f 434/335/419 432/206/419 428/205/419
f 434/335/419 440/336/419 432/206/419
f 434/335/450 437/346/450 438/347/450
f 435/432/397 438/458/397 437/433/397
f 435/432/439 437/433/439 465/355/439
f 435/432/439 465/355/439 462/373/439
f 435/432/451 439/457/451 438/458/451
f 436/325/398 438/337/398 439/340/398
f 436/325/442 442/196/442 429/195/442
f 436/325/442 450/326/442 442/196/442
f 436/325/452 440/324/452 438/337/452
f 437/346/440 434/335/440 463/334/440
f 437/346/440 463/334/440 465/355/440
f 440/324/420 429/195/420 432/194/420
f 440/324/420 436/325/420 429/195/420
f 441/96/399 445/71/399 447/95/399
f 441/96/425 447/95/425 472/175/425
f 441/96/425 472/175/425 469/156/425
f 441/96/453 444/72/453 445/71/453
f 442/196/400 445/192/400 444/184/400
f 442/196/454 446/197/454 445/192/454
f 443/198/401 445/192/401 446/197/401
f 443/198/423 446/197/423 453/327/423
f 443/198/423 453/327/423 449/328/423
f 443/198/455 447/185/455 445/192/455
f 446/197/424 442/196/424 450/326/424
f 446/197/424 450/326/424 453/327/424
f 447/185/426 443/198/426 470/199/426
f 447/185/426 470/199/426 472/175/426
f 448/430/402 452/450/402 454/456/402
f 448/430/421 439/457/421 435/432/421
f 448/430/421 454/456/421 439/457/421
f 448/430/456 451/429/456 452/450/456
f 449/328/403 452/338/403 451/342/403
f 449/328/445 470/199/445 443/198/445
f 449/328/445 478/329/445 470/199/445
f 449/328/457 453/327/457 452/338/457
f 450/326/404 452/338/404 453/327/404
f 450/326/458 454/341/458 452/338/458
f 454/341/422 436/325/422 439/340/422
f 454/341/422 450/326/422 436/325/422
f 455/158/405 459/191/405 461/176/405
f 455/158/437 430/99/437 427/98/437
f 455/158/437 461/176/437 430/99/437
f 455/158/459 458/188/459 459/191/459
f 456/202/406 459/191/406 458/188/406
f 456/202/460 460/203/460 459/191/460
f 457/204/407 459/191/407 460/203/407
f 457/204/435 460/203/435 467/333/435
f 457/204/435 467/333/435 463/334/435
f 457/204/461 461/176/461 459/191/461
f 460/203/436 456/202/436 464/332/436
f 460/203/436 464/332/436 467/333/436
f 461/176/438 428/205/438 430/189/438
f 461/176/438 457/204/438 428/205/438
f 462/373/408 466/349/408 468/345/408
f 462/373/433 468/345/433 479/344/433
f 462/373/433 479/344/433 476/371/433
f 462/373/462 465/355/462 466/349/462
f 463/334/409 466/349/409 465/355/409
f 463/334/443 428/205/443 457/204/443
f 463/334/443 434/335/443 428/205/443
f 463/334/463 467/333/463 466/349/463
f 464/332/410 466/349/410 467/333/410
f 464/332/464 468/345/464 466/349/464
f 468/345/434 464/332/434 477/331/434
f 468/345/434 477/331/434 479/344/434
f 469/156/411 473/181/411 475/187/411
f 469/156/431 458/188/431 455/158/431
f 469/156/431 475/187/431 458/188/431
f 469/156/441 427/98/441 441/96/441
f 469/156/441 455/158/441 427/98/441
f 469/156/465 472/175/465 473/181/465
f 470/199/412 473/181/412 472/175/412
f 470/199/466 474/200/466 473/181/466
f 471/201/413 473/181/413 474/200/413
f 471/201/467 475/187/467 473/181/467
f 474/200/430 470/199/430 478/329/430
f 474/200/430 478/329/430 481/330/430
f 475/187/432 456/202/432 458/188/432
f 475/187/432 471/201/432 456/202/432
f 476/371/414 480/339/414 482/354/414
f 476/371/427 451/429/427 448/430/427
f 476/371/427 482/354/427 451/429/427
f 476/371/444 435/432/444 462/373/444
f 476/371/444 448/430/444 435/432/444
f 476/371/468 479/344/468 480/339/468
f 477/331/415 480/339/415 479/344/415
f 477/331/429 471/201/429 474/200/429
f 477/331/429 474/200/429 481/330/429
f 477/331/446 456/202/446 471/201/446
f 477/331/446 464/332/446 456/202/446
f 477/331/469 481/330/469 480/339/469
f 478/329/416 480/339/416 481/330/416
f 478/329/470 482/354/470 480/339/470
f 482/354/428 449/328/428 451/342/428
f 482/354/428 478/329/428 449/328/428
g arpg_brazier_leg_2_Cube.146
v 0.133240 0.092138 -0.170779
v 0.147790 0.106810 -0.165980
v 0.127464 0.109928 -0.160774
v 0.142883 0.096435 -0.166267
v 0.137164 0.100139 -0.160255
v 0.138798 0.109015 -0.159192
v 0.128510 0.098640 -0.162585
v 0.200808 0.605665 -0.257809
v 0.189377 0.620337 -0.268010
v 0.180481 0.608784 -0.252603
v 0.198105 0.616040 -0.261916
v 0.191982 0.615937 -0.255202
v 0.183732 0.618245 -0.258234
v 0.191815 0.607870 -0.251021
v 0.081279 0.092138 -0.200779
v 0.075502 0.109928 -0.190774
v 0.069848 0.106810 -0.210980
v 0.076548 0.098640 -0.192585
v 0.070203 0.100139 -0.198915
v 0.068465 0.109015 -0.199799
v 0.072550 0.096435 -0.206874
v 0.137415 0.620337 -0.298010
v 0.122865 0.605665 -0.302809
v 0.128520 0.608784 -0.282603
v 0.127773 0.616040 -0.302522
v 0.125021 0.615937 -0.293862
v 0.121483 0.607870 -0.291628
v 0.131771 0.618245 -0.288234
v 0.162585 0.079663 -0.221605
v 0.171480 0.091216 -0.237013
v 0.177135 0.094335 -0.216806
v 0.168229 0.081755 -0.231381
v 0.174979 0.084063 -0.225753
v 0.178517 0.092130 -0.227988
v 0.172227 0.083960 -0.217093
v 0.218721 0.607862 -0.318836
v 0.230152 0.593190 -0.308635
v 0.224498 0.590072 -0.328842
v 0.227450 0.603565 -0.312742
v 0.229797 0.599861 -0.320700
v 0.231535 0.590985 -0.319817
v 0.223452 0.601360 -0.327030
v 0.110623 0.079663 -0.251605
v 0.099192 0.094335 -0.261806
v 0.119519 0.091216 -0.267013
v 0.101895 0.083960 -0.257700
v 0.108018 0.084063 -0.264413
v 0.108185 0.092130 -0.268594
v 0.116268 0.081755 -0.261381
v 0.166760 0.607862 -0.348836
v 0.172536 0.590072 -0.358842
v 0.152210 0.593190 -0.353635
v 0.171490 0.601360 -0.357030
v 0.162836 0.599861 -0.359361
v 0.161202 0.590985 -0.360423
v 0.157117 0.603565 -0.353348
vn -0.0277 -0.7907 0.6115
vn 0.5917 -0.3006 0.7480
vn -0.1448 -0.0913 0.9852
vn 0.6174 0.3519 0.7035
vn 0.2723 0.9257 0.2626
vn -0.1514 0.5435 0.8257
vn -0.5479 -0.8085 0.2147
vn -0.7157 -0.1749 0.6762
vn -0.9766 -0.1992 -0.0815
vn -0.3314 0.9434 0.0106
vn -0.8673 0.4177 -0.2707
vn -0.7222 0.4599 0.5166
vn 0.3636 -0.9257 0.1045
vn 0.6394 -0.5435 -0.5439
vn 0.9180 -0.3519 0.1829
vn 0.5157 0.7907 -0.3298
vn 0.9437 0.3006 0.1384
vn 0.7808 0.0913 -0.6181
vn -0.1566 -0.9434 -0.2923
vn -0.6681 -0.4177 -0.6158
vn 0.0863 -0.4599 -0.8838
vn -0.0880 0.8085 -0.5819
vn 0.2277 0.1749 -0.9579
vn -0.5588 0.1992 -0.8050
vn -0.2832 -0.8241 0.4905
vn -0.4916 -0.1822 0.8515
vn 0.6129 0.0796 0.7861
vn -0.1204 0.1921 0.9740
vn -0.0911 0.9833 0.1578
vn -0.4121 0.5664 0.7137
vn -0.9873 0.0796 -0.1378
vn -0.7833 0.1921 0.5913
vn -0.4275 -0.9037 -0.0250
vn -0.8399 -0.3743 -0.3930
vn -0.2354 0.9037 -0.3577
vn -0.7603 0.3743 -0.5308
vn 0.1204 -0.1921 -0.9740
vn -0.6129 -0.0796 -0.7861
vn 0.0911 -0.9833 -0.1578
vn 0.4121 -0.5664 -0.7137
vn 0.2832 0.8241 -0.4905
vn 0.4916 0.1822 -0.8515
vn 0.9873 -0.0796 0.1378
vn 0.7833 -0.1921 -0.5913
vn 0.2354 -0.9037 0.3577
vn 0.7603 -0.3743 0.5308
vn 0.4275 0.9037 0.0250
vn 0.8399 0.3743 0.3930
vn -0.1040 -0.9781 0.1801
vn -0.4891 0.2079 0.8471
vn 0.8660 -0.0000 0.5000
vn 0.1040 0.9781 -0.1801
vn -0.8660 -0.0000 -0.5000
vn 0.4891 -0.2079 -0.8471
vn 0.0880 -0.8085 0.5819
vn 0.5588 -0.1992 0.8050
vn -0.2277 -0.1749 0.9579
vn 0.6681 0.4177 0.6158
vn 0.1566 0.9434 0.2923
vn -0.0863 0.4599 0.8838
vn -0.5157 -0.7907 0.3298
vn -0.7808 -0.0913 0.6181
vn -0.9437 -0.3006 -0.1384
vn -0.3636 0.9257 -0.1045
vn -0.9180 0.3519 -0.1829
vn -0.6394 0.5435 0.5439
vn 0.3314 -0.9434 -0.0106
vn 0.7222 -0.4599 -0.5166
vn 0.8673 -0.4177 0.2707
vn 0.5479 0.8085 -0.2147
vn 0.9766 0.1992 0.0815
vn 0.7157 0.1749 -0.6762
vn -0.2723 -0.9257 -0.2626
vn -0.6174 -0.3519 -0.7035
vn 0.1514 -0.5435 -0.8257
vn 0.0277 0.7907 -0.6115
vn 0.1448 0.0913 -0.9852
vn -0.5917 0.3006 -0.7480
s 0
g arpg_brazier_leg_2_M_steel
usemtl M_steel
f 483/98/471 487/80/471 489/73/471
f 483/98/495 489/73/495 500/72/495
f 483/98/495 500/72/495 497/96/495
f 483/98/525 486/99/525 487/80/525
f 484/205/472 487/193/472 486/189/472
f 484/205/526 488/206/526 487/193/526
f 485/195/473 487/182/473 488/194/473
f 485/195/527 489/183/527 487/182/527
f 488/194/498 492/325/498 485/195/498
f 488/194/498 496/324/498 492/325/498
f 489/183/496 485/195/496 498/196/496
f 489/183/496 498/196/496 500/184/496
f 490/335/474 494/347/474 496/336/474
f 490/335/497 488/206/497 484/205/497
f 490/335/497 496/336/497 488/206/497
f 490/335/528 493/346/528 494/347/528
f 491/432/475 494/458/475 493/433/475
f 491/432/517 493/433/517 521/355/517
f 491/432/517 521/355/517 518/373/517
f 491/432/529 495/457/529 494/458/529
f 492/325/476 494/337/476 495/340/476
f 492/325/520 498/196/520 485/195/520
f 492/325/520 506/326/520 498/196/520
f 492/325/530 496/324/530 494/337/530
f 493/346/518 490/335/518 519/334/518
f 493/346/518 519/334/518 521/355/518
f 497/96/477 501/71/477 503/95/477
f 497/96/503 503/95/503 528/175/503
f 497/96/503 528/175/503 525/156/503
f 497/96/519 511/158/519 483/98/519
f 497/96/519 525/156/519 511/158/519
f 497/96/531 500/72/531 501/71/531
f 498/196/478 501/192/478 500/184/478
f 498/196/532 502/197/532 501/192/532
f 499/198/479 501/192/479 502/197/479
f 499/198/501 502/197/501 509/327/501
f 499/198/501 509/327/501 505/328/501
f 499/198/533 503/185/533 501/192/533
f 503/185/504 499/198/504 526/199/504
f 503/185/504 526/199/504 528/175/504
f 504/430/480 508/450/480 510/456/480
f 504/430/499 495/457/499 491/432/499
f 504/430/499 510/456/499 495/457/499
f 504/430/534 507/429/534 508/450/534
f 505/328/481 508/338/481 507/342/481
f 505/328/523 526/199/523 499/198/523
f 505/328/523 534/329/523 526/199/523
f 505/328/535 509/327/535 508/338/535
f 506/326/482 508/338/482 509/327/482
f 506/326/536 510/341/536 508/338/536
f 509/327/502 498/196/502 506/326/502
f 509/327/502 502/197/502 498/196/502
f 510/341/500 492/325/500 495/340/500
f 510/341/500 506/326/500 492/325/500
f 511/158/483 515/191/483 517/176/483
f 511/158/515 486/99/515 483/98/515
f 511/158/515 517/176/515 486/99/515
f 511/158/537 514/188/537 515/191/537
f 512/202/484 515/191/484 514/188/484
f 512/202/538 516/203/538 515/191/538
f 513/204/485 515/191/485 516/203/485
f 513/204/513 516/203/513 523/333/513
f 513/204/513 523/333/513 519/334/513
f 513/204/539 517/176/539 515/191/539
f 517/176/516 484/205/516 486/189/516
f 517/176/516 513/204/516 484/205/516
f 518/373/486 522/349/486 524/345/486
f 518/373/511 524/345/511 535/344/511
f 518/373/511 535/344/511 532/371/511
f 518/373/540 521/355/540 522/349/540
f 519/334/487 522/349/487 521/355/487
f 519/334/521 484/205/521 513/204/521
f 519/334/521 490/335/521 484/205/521
f 519/334/541 523/333/541 522/349/541
f 520/332/488 522/349/488 523/333/488
f 520/332/542 524/345/542 522/349/542
f 523/333/514 512/202/514 520/332/514
f 523/333/514 516/203/514 512/202/514
f 524/345/512 520/332/512 533/331/512
f 524/345/512 533/331/512 535/344/512
f 525/156/489 529/181/489 531/187/489
f 525/156/509 514/188/509 511/158/509
f 525/156/509 531/187/509 514/188/509
f 525/156/543 528/175/543 529/181/543
f 526/199/490 529/181/490 528/175/490
f 526/199/544 530/200/544 529/181/544
f 527/201/491 529/181/491 530/200/491
f 527/201/507 530/200/507 537/330/507
f 527/201/507 537/330/507 533/331/507
f 527/201/545 531/187/545 529/181/545
f 530/200/508 526/199/508 534/329/508
f 530/200/508 534/329/508 537/330/508
f 531/187/510 512/202/510 514/188/510
f 531/187/510 527/201/510 512/202/510
f 532/371/492 536/339/492 538/354/492
f 532/371/505 507/429/505 504/430/505
f 532/371/505 538/354/505 507/429/505
f 532/371/522 491/432/522 518/373/522
f 532/371/522 504/430/522 491/432/522
f 532/371/546 535/344/546 536/339/546
f 533/331/493 536/339/493 535/344/493
f 533/331/524 512/202/524 527/201/524
f 533/331/524 520/332/524 512/202/524
f 533/331/547 537/330/547 536/339/547
f 534/329/494 536/339/494 537/330/494
f 534/329/548 538/354/548 536/339/548
f 538/354/506 505/328/506 507/342/506
f 538/354/506 534/329/506 505/328/506
