# Blender 5.2.0 LTS
# www.blender.org
mtllib summoner_ritual_brazier_lod1.mtl
g arpg_brazier_lod1_stand_Cone.030
v 0.000000 0.000000 0.400000
v 0.000000 0.800000 0.200000
v -0.282843 0.000000 0.282843
v -0.141421 0.800000 0.141421
v -0.400000 0.000000 0.000000
v -0.200000 0.800000 0.000000
v -0.282843 0.000000 -0.282843
v -0.141421 0.800000 -0.141421
v 0.000000 0.000000 -0.400000
v 0.000000 0.800000 -0.200000
v 0.282843 0.000000 -0.282843
v 0.141421 0.800000 -0.141421
v 0.400000 0.000000 0.000000
v 0.200000 0.800000 0.000000
v 0.282843 0.000000 0.282843
v 0.141421 0.800000 0.141421
vn -0.3729 0.2250 0.9002
vn -0.9002 0.2250 0.3729
vn -0.9002 0.2250 -0.3729
vn -0.3729 0.2250 -0.9002
vn 0.3729 0.2250 -0.9002
vn 0.9002 0.2250 -0.3729
vn -0.0000 1.0000 -0.0000
vn 0.9002 0.2250 0.3729
vn 0.3729 0.2250 0.9002
vn -0.0000 -1.0000 -0.0000
vt 0.00000 0.50000
vt 0.00000 0.51761
vt 0.00000 0.54167
vt 0.00000 0.95833
vt 0.00000 1.00000
vt 0.00052 1.00000
vt 0.00349 0.50000
vt 0.00349 1.00000
vt 0.00528 0.54167
vt 0.00528 0.95833
vt 0.01000 0.25000
vt 0.01602 0.19659
vt 0.02175 0.17660
vt 0.02175 0.18102
vt 0.02175 0.31898
vt 0.02220 0.32478
vt 0.02479 0.17164
vt 0.02479 0.32836
vt 0.02957 0.17838
vt 0.02957 0.32162
vt 0.06236 0.39964
vt 0.08029 0.08029
vt 0.08029 0.41971
vt 0.09472 0.54167
vt 0.09472 0.95833
vt 0.09650 0.50000
vt 0.09650 1.00000
vt 0.09974 0.50880
vt 0.10000 0.54167
vt 0.10000 0.95833
vt 0.10026 0.99120
vt 0.10350 0.50000
vt 0.10350 1.00000
vt 0.10528 0.54167
vt 0.10528 0.95833
vt 0.10588 0.06003
vt 0.10588 0.43997
vt 0.10848 0.05645
vt 0.10966 0.44440
vt 0.11377 0.06249
vt 0.11377 0.43751
vt 0.11386 0.05423
vt 0.11386 0.44577
vt 0.12500 0.50000
vt 0.12500 1.00000
vt 0.14587 0.03377
vt 0.19472 0.54167
vt 0.19472 0.95833
vt 0.19651 0.50000
vt 0.19651 1.00000
vt 0.19974 0.50880
vt 0.20000 0.54167
vt 0.20000 0.95833
vt 0.20026 0.99120
vt 0.20350 0.50000
vt 0.20350 1.00000
vt 0.20528 0.54167
vt 0.20528 0.95833
vt 0.24507 0.01160
vt 0.24507 0.48840
vt 0.24927 0.01024
vt 0.25000 0.01000
vt 0.25000 0.01823
vt 0.25000 0.25000
vt 0.25000 0.48177
vt 0.25000 0.49000
vt 0.25000 0.50000
vt 0.25000 1.00000
vt 0.25073 0.48976
vt 0.25493 0.01160
vt 0.25493 0.48840
vt 0.29472 0.54167
vt 0.29472 0.95833
vt 0.29651 0.50000
vt 0.29651 1.00000
vt 0.29974 0.50880
vt 0.30000 0.54167
vt 0.30000 0.95833
vt 0.30026 0.99120
vt 0.30350 0.50000
vt 0.30350 1.00000
vt 0.30528 0.54167
vt 0.30528 0.95833
vt 0.35413 0.03377
vt 0.37500 0.50000
vt 0.37500 1.00000
vt 0.38614 0.05423
vt 0.38614 0.44577
vt 0.38623 0.06249
vt 0.38623 0.43751
vt 0.39034 0.05560
vt 0.39152 0.44355
vt 0.39412 0.06003
vt 0.39412 0.43997
vt 0.39472 0.54167
vt 0.39472 0.95833
vt 0.39650 0.50000
vt 0.39650 1.00000
vt 0.39974 0.50880
vt 0.40000 0.54167
vt 0.40000 0.95833
vt 0.40026 0.99120
vt 0.40349 0.50000
vt 0.40349 1.00000
vt 0.40528 0.54167
vt 0.40528 0.95833
vt 0.41971 0.08029
vt 0.41971 0.41971
vt 0.43764 0.39964
vt 0.47043 0.17838
vt 0.47043 0.32162
vt 0.47521 0.17164
vt 0.47521 0.32836
vt 0.47780 0.17522
vt 0.47825 0.18102
vt 0.47825 0.31898
vt 0.47825 0.32340
vt 0.48398 0.19659
vt 0.49000 0.25000
vt 0.49472 0.54167
vt 0.49472 0.95833
vt 0.49650 0.50000
vt 0.49650 1.00000
vt 0.49974 0.50880
vt 0.50000 0.50000
vt 0.50000 0.54167
vt 0.50000 0.95833
vt 0.50000 1.00000
vt 0.50026 0.99120
vt 0.50350 0.50000
vt 0.50350 1.00000
vt 0.50528 0.54167
vt 0.50528 0.95833
vt 0.51000 0.25000
vt 0.51602 0.19659
vt 0.52175 0.18102
vt 0.52175 0.31898
vt 0.52175 0.32340
vt 0.52220 0.17522
vt 0.52479 0.17164
vt 0.52479 0.32836
vt 0.52957 0.17838
vt 0.52957 0.32162
vt 0.56236 0.39964
vt 0.58029 0.08029
vt 0.58029 0.41971
vt 0.59472 0.54167
vt 0.59472 0.95833
vt 0.59650 0.50000
vt 0.59650 1.00000
vt 0.59974 0.50880
vt 0.60000 0.54167
vt 0.60000 0.95833
vt 0.60026 0.99120
vt 0.60350 0.50000
vt 0.60350 1.00000
vt 0.60528 0.54167
vt 0.60528 0.95833
vt 0.60588 0.06003
vt 0.60588 0.43997
vt 0.60848 0.44355
vt 0.60966 0.05560
vt 0.61377 0.06249
vt 0.61377 0.43751
vt 0.61386 0.05423
vt 0.61386 0.44577
vt 0.62500 0.50000
vt 0.62500 1.00000
vt 0.64587 0.03377
vt 0.69472 0.54167
vt 0.69472 0.95833
vt 0.69651 0.50000
vt 0.69651 1.00000
vt 0.69974 0.50880
vt 0.70000 0.54167
vt 0.70000 0.95833
vt 0.70026 0.99120
vt 0.70349 0.50000
vt 0.70349 1.00000
vt 0.70528 0.54167
vt 0.70528 0.95833
vt 0.74507 0.01160
vt 0.74507 0.48840
vt 0.74927 0.48976
vt 0.75000 0.01000
vt 0.75000 0.01823
vt 0.75000 0.48177
vt 0.75000 0.49000
vt 0.75000 0.50000
vt 0.75000 1.00000
vt 0.75073 0.01024
vt 0.75493 0.01160
vt 0.75493 0.48840
vt 0.79472 0.54167
vt 0.79472 0.95833
vt 0.79651 0.50000
vt 0.79651 1.00000
vt 0.79974 0.50880
vt 0.80000 0.54167
vt 0.80000 0.95833
vt 0.80026 0.99120
vt 0.80349 0.50000
vt 0.80349 1.00000
vt 0.80528 0.54167
vt 0.80528 0.95833
vt 0.85413 0.03377
vt 0.87500 0.50000
vt 0.87500 1.00000
vt 0.88614 0.05423
vt 0.88614 0.44577
vt 0.88623 0.06249
vt 0.88623 0.43751
vt 0.89034 0.44440
vt 0.89152 0.05645
vt 0.89412 0.06003
vt 0.89412 0.43997
vt 0.89472 0.54167
vt 0.89472 0.95833
vt 0.89650 0.50000
vt 0.89650 1.00000
vt 0.89974 0.50880
vt 0.90000 0.54167
vt 0.90000 0.95833
vt 0.90026 0.99120
vt 0.90350 0.50000
vt 0.90350 1.00000
vt 0.90528 0.54167
vt 0.90528 0.95833
vt 0.91971 0.08029
vt 0.91971 0.41971
vt 0.93764 0.39964
vt 0.97043 0.17838
vt 0.97043 0.32162
vt 0.97521 0.17164
vt 0.97521 0.32836
vt 0.97780 0.32478
vt 0.97825 0.17660
vt 0.97825 0.18102
vt 0.97825 0.31898
vt 0.98398 0.19659
vt 0.99000 0.25000
vt 0.99472 0.54167
vt 0.99472 0.95833
vt 0.99650 0.50000
vt 0.99650 1.00000
vt 0.99948 0.50000
vt 1.00000 0.50000
vt 1.00000 0.54167
vt 1.00000 0.95833
vt 1.00000 0.98239
vt 1.00000 1.00000
s 0
g arpg_brazier_lod1_stand_M_gunmetal
usemtl M_gunmetal
f 1/247/1 2/251/1 4/208/1
f 1/247/1 4/208/1 3/207/1
f 10/62/7 8/107/7 6/119/7
f 11/145/10 13/134/10 15/146/10
f 11/85/6 12/86/6 14/68/6
f 11/85/6 14/68/6 13/67/6
f 13/67/8 14/68/8 16/45/8
f 13/67/8 16/45/8 15/44/8
f 14/11/7 10/62/7 6/119/7
f 14/11/7 12/22/7 10/62/7
f 15/146/10 1/188/10 3/230/10
f 15/146/10 3/230/10 7/229/10
f 15/44/9 16/45/9 2/5/9
f 15/44/9 2/5/9 1/1/9
f 2/66/7 16/23/7 14/11/7
f 3/207/2 4/208/2 6/190/2
f 3/207/2 6/190/2 5/189/2
f 3/230/10 5/241/10 7/229/10
f 5/189/3 6/190/3 8/168/3
f 5/189/3 8/168/3 7/167/3
f 6/119/7 2/66/7 14/11/7
f 6/119/7 4/108/7 2/66/7
f 7/167/4 10/128/4 9/125/4
f 7/167/4 8/168/4 10/128/4
f 7/229/10 11/145/10 15/146/10
f 7/229/10 9/185/10 11/145/10
f 9/125/5 10/128/5 12/86/5
f 9/125/5 12/86/5 11/85/5
g arpg_brazier_lod1_bowl_Cylinder.070
v 0.000000 0.730000 0.444228
v 0.014266 0.745000 0.455365
v -0.014266 0.745000 0.455365
v 0.008093 0.734393 0.452751
v -0.000000 0.736340 0.455257
v -0.000000 0.745000 0.457285
v -0.008093 0.734393 0.452751
v -0.000000 0.910000 0.444228
v -0.014266 0.895000 0.455365
v 0.014266 0.895000 0.455365
v -0.008093 0.905607 0.452751
v 0.000000 0.903660 0.455257
v 0.000000 0.895000 0.457285
v 0.008093 0.905607 0.452751
v -0.261111 0.730000 0.359388
v -0.256115 0.745000 0.376783
v -0.279198 0.745000 0.360013
v -0.259573 0.734393 0.371040
v -0.267593 0.736340 0.368311
v -0.268785 0.745000 0.369951
v -0.272668 0.734393 0.361526
v -0.261111 0.910000 0.359388
v -0.279198 0.895000 0.360013
v -0.256115 0.895000 0.376783
v -0.272668 0.905607 0.361526
v -0.267593 0.903660 0.368311
v -0.268785 0.895000 0.369951
v -0.259573 0.905607 0.371040
v -0.422486 0.730000 0.137274
v -0.428669 0.745000 0.154283
v -0.437486 0.745000 0.127148
v -0.428091 0.734393 0.147605
v -0.432975 0.736340 0.140682
v -0.434904 0.745000 0.141309
v -0.433093 0.734393 0.132211
v -0.422486 0.910000 0.137274
v -0.437486 0.895000 0.127148
v -0.428669 0.895000 0.154283
v -0.433093 0.905607 0.132211
v -0.432975 0.903660 0.140682
v -0.434904 0.895000 0.141309
v -0.428091 0.905607 0.147605
v -0.422486 0.730000 -0.137274
v -0.437486 0.745000 -0.127148
v -0.428669 0.745000 -0.154283
v -0.433093 0.734393 -0.132211
v -0.432975 0.736340 -0.140682
v -0.434904 0.745000 -0.141309
v -0.428091 0.734393 -0.147605
v -0.422486 0.910000 -0.137274
v -0.428669 0.895000 -0.154283
v -0.437486 0.895000 -0.127148
v -0.428091 0.905607 -0.147605
v -0.432975 0.903660 -0.140682
v -0.434904 0.895000 -0.141309
v -0.433093 0.905607 -0.132211
v -0.261111 0.730000 -0.359388
v -0.279198 0.745000 -0.360013
v -0.256115 0.745000 -0.376783
v -0.272668 0.734393 -0.361526
v -0.267593 0.736340 -0.368311
v -0.268785 0.745000 -0.369951
v -0.259573 0.734393 -0.371040
v -0.261111 0.910000 -0.359388
v -0.256115 0.895000 -0.376783
v -0.279198 0.895000 -0.360013
v -0.259573 0.905607 -0.371040
v -0.267593 0.903660 -0.368311
v -0.268785 0.895000 -0.369951
v -0.272668 0.905607 -0.361526
v -0.000000 0.730000 -0.444228
v -0.014266 0.745000 -0.455365
v 0.014266 0.745000 -0.455365
v -0.008093 0.734393 -0.452751
v 0.000000 0.736340 -0.455257
v 0.000000 0.745000 -0.457285
v 0.008093 0.734393 -0.452751
v 0.000000 0.910000 -0.444228
v 0.014266 0.895000 -0.455365
v -0.014266 0.895000 -0.455365
v 0.008093 0.905607 -0.452751
v -0.000000 0.903660 -0.455257
v -0.000000 0.895000 -0.457285
v -0.008093 0.905607 -0.452751
v 0.261111 0.730000 -0.359388
v 0.256115 0.745000 -0.376783
v 0.279198 0.745000 -0.360013
v 0.259573 0.734393 -0.371040
v 0.267593 0.736340 -0.368311
v 0.268785 0.745000 -0.369951
v 0.272668 0.734393 -0.361526
v 0.261111 0.910000 -0.359388
v 0.279198 0.895000 -0.360013
v 0.256115 0.895000 -0.376783
v 0.272668 0.905607 -0.361526
v 0.267593 0.903660 -0.368311
v 0.268785 0.895000 -0.369951
v 0.259573 0.905607 -0.371040
v 0.422486 0.730000 -0.137274
v 0.428669 0.745000 -0.154283
v 0.437486 0.745000 -0.127148
v 0.428091 0.734393 -0.147605
v 0.432975 0.736340 -0.140682
v 0.434904 0.745000 -0.141309
v 0.433093 0.734393 -0.132211
v 0.422486 0.910000 -0.137274
v 0.437486 0.895000 -0.127148
v 0.428669 0.895000 -0.154283
v 0.433093 0.905607 -0.132211
v 0.432975 0.903660 -0.140682
v 0.434904 0.895000 -0.141309
v 0.428091 0.905607 -0.147605
v 0.422486 0.730000 0.137274
v 0.437486 0.745000 0.127148
v 0.428669 0.745000 0.154283
v 0.433093 0.734393 0.132211
v 0.432975 0.736340 0.140682
v 0.434904 0.745000 0.141309
v 0.428091 0.734393 0.147605
v 0.422486 0.910000 0.137274
v 0.428669 0.895000 0.154283
v 0.437486 0.895000 0.127148
v 0.428091 0.905607 0.147605
v 0.432975 0.903660 0.140682
v 0.434904 0.895000 0.141309
v 0.433093 0.905607 0.132211
v 0.261111 0.730000 0.359388
v 0.279198 0.745000 0.360013
v 0.256115 0.745000 0.376783
v 0.272668 0.734393 0.361526
v 0.267593 0.736340 0.368311
v 0.268785 0.745000 0.369951
v 0.259573 0.734393 0.371040
v 0.261111 0.910000 0.359388
v 0.256115 0.895000 0.376783
v 0.279198 0.895000 0.360013
v 0.259573 0.905607 0.371040
v 0.267593 0.903660 0.368311
v 0.268785 0.895000 0.369951
v 0.272668 0.905607 0.361526
vn 0.0541 -0.8657 0.4976
vn 0.1270 -0.3064 0.9434
vn -0.1270 -0.3064 0.9434
vn -0.0541 0.8657 0.4976
vn -0.1270 0.3064 0.9434
vn 0.1270 0.3064 0.9434
vn -0.2487 -0.8657 0.4344
vn -0.4518 -0.3064 0.8379
vn -0.6572 -0.3064 0.6886
vn -0.3363 0.8657 0.3708
vn -0.6572 0.3064 0.6886
vn -0.4518 0.3064 0.8379
vn -0.4565 -0.8657 0.2052
vn -0.8580 -0.3064 0.4123
vn -0.9365 -0.3064 0.1708
vn -0.4900 0.8657 0.1023
vn -0.9365 0.3064 0.1708
vn -0.8580 0.3064 0.4123
vn -0.4900 -0.8657 -0.1023
vn -0.9365 -0.3064 -0.1708
vn -0.8580 -0.3064 -0.4123
vn -0.4565 0.8657 -0.2052
vn -0.8580 0.3064 -0.4123
vn -0.9365 0.3064 -0.1708
vn -0.3363 -0.8657 -0.3708
vn -0.6572 -0.3064 -0.6886
vn -0.4518 -0.3064 -0.8379
vn -0.2487 0.8657 -0.4344
vn -0.4518 0.3064 -0.8379
vn -0.6572 0.3064 -0.6886
vn -0.0541 -0.8657 -0.4976
vn -0.1270 -0.3064 -0.9434
vn 0.1270 -0.3064 -0.9434
vn 0.0541 0.8657 -0.4976
vn 0.1270 0.3064 -0.9434
vn -0.1270 0.3064 -0.9434
vn 0.2487 -0.8657 -0.4344
vn 0.4518 -0.3064 -0.8379
vn 0.6572 -0.3064 -0.6886
vn 0.3363 0.8657 -0.3708
vn 0.6572 0.3064 -0.6886
vn 0.4518 0.3064 -0.8379
vn 0.4565 -0.8657 -0.2052
vn 0.8580 -0.3064 -0.4123
vn 0.9365 -0.3064 -0.1708
vn 0.4900 0.8657 -0.1023
vn 0.9365 0.3064 -0.1708
vn 0.8580 0.3064 -0.4123
vn 0.4900 -0.8657 0.1023
vn 0.9365 -0.3064 0.1708
vn 0.8580 -0.3064 0.4123
vn 0.4565 0.8657 0.2052
vn 0.8580 0.3064 0.4123
vn 0.9365 0.3064 0.1708
vn 0.3363 -0.8657 0.3708
vn 0.6572 -0.3064 0.6886
vn 0.4518 -0.3064 0.8379
vn 0.2487 0.8657 0.4344
vn 0.4518 0.3064 0.8379
vn 0.6572 0.3064 0.6886
vn -0.2855 -0.3827 0.8787
vn -0.1183 -0.9239 0.3640
vn -0.2855 0.3827 0.8787
vn -0.1183 0.9239 0.3640
vn 0.1334 -0.0000 0.9911
vn -0.1334 -0.0000 0.9911
vn -0.6904 -0.0000 0.7234
vn -0.4746 -0.0000 0.8802
vn -0.7474 -0.3827 0.5430
vn -0.3096 -0.9239 0.2249
vn -0.7474 0.3827 0.5430
vn -0.3096 0.9239 0.2249
vn -0.9838 -0.0000 0.1794
vn -0.9013 -0.0000 0.4331
vn -0.9239 -0.3827 -0.0000
vn -0.3827 -0.9239 -0.0000
vn -0.9239 0.3827 -0.0000
vn -0.3827 0.9239 -0.0000
vn -0.9013 -0.0000 -0.4331
vn -0.9838 -0.0000 -0.1794
vn -0.7474 -0.3827 -0.5430
vn -0.3096 -0.9239 -0.2249
vn -0.7474 0.3827 -0.5430
vn -0.3096 0.9239 -0.2249
vn -0.4746 -0.0000 -0.8802
vn -0.6904 -0.0000 -0.7234
vn -0.2855 -0.3827 -0.8787
vn -0.1183 -0.9239 -0.3640
vn -0.2855 0.3827 -0.8787
vn -0.1183 0.9239 -0.3640
vn 0.1334 -0.0000 -0.9911
vn -0.1334 -0.0000 -0.9911
vn 0.2855 -0.3827 -0.8787
vn 0.1183 -0.9239 -0.3640
vn 0.2855 0.3827 -0.8787
vn 0.1183 0.9239 -0.3640
vn 0.6904 -0.0000 -0.7234
vn 0.4746 -0.0000 -0.8802
vn 0.7474 -0.3827 -0.5430
vn 0.3096 -0.9239 -0.2249
vn 0.7474 0.3827 -0.5430
vn 0.3096 0.9239 -0.2249
vn 0.9838 -0.0000 -0.1794
vn 0.9013 -0.0000 -0.4331
vn 0.9239 -0.3827 -0.0000
vn 0.3827 -0.9239 -0.0000
vn 0.9239 0.3827 -0.0000
vn 0.3827 0.9239 -0.0000
vn 0.9013 -0.0000 0.4331
vn 0.9838 -0.0000 0.1794
vn 0.7474 -0.3827 0.5430
vn 0.3096 -0.9239 0.2249
vn 0.7474 0.3827 0.5430
vn 0.3096 0.9239 0.2249
vn 0.4746 -0.0000 0.8802
vn 0.6904 -0.0000 0.7234
vn 0.2855 -0.3827 0.8787
vn 0.1183 -0.9239 0.3640
vn 0.2855 0.3827 0.8787
vn 0.1183 0.9239 0.3640
vn -0.0000 -1.0000 -0.0000
vn -0.3090 -0.0000 0.9511
vn 0.3090 -0.0000 0.9511
vn -0.0000 1.0000 -0.0000
vn -0.8090 -0.0000 0.5878
vn -1.0000 -0.0000 -0.0000
vn -0.8090 -0.0000 -0.5878
vn -0.3090 -0.0000 -0.9511
vn 0.3090 -0.0000 -0.9511
vn 0.8090 -0.0000 -0.5878
vn 1.0000 -0.0000 -0.0000
vn 0.8090 -0.0000 0.5878
vn -0.0541 -0.8657 0.4976
vn 0.2395 -0.2213 0.9453
vn -0.2395 -0.2213 0.9453
vn 0.0541 0.8657 0.4976
vn -0.2395 0.2213 0.9453
vn 0.2395 0.2213 0.9453
vn -0.3363 -0.8657 0.3708
vn -0.3619 -0.2213 0.9056
vn -0.7494 -0.2213 0.6240
vn -0.2487 0.8657 0.4344
vn -0.7494 0.2213 0.6240
vn -0.3619 0.2213 0.9056
vn -0.4900 -0.8657 0.1023
vn -0.8250 -0.2213 0.5199
vn -0.9731 -0.2213 0.0643
vn -0.4566 0.8657 0.2052
vn -0.9731 0.2213 0.0643
vn -0.8251 0.2213 0.5199
vn -0.4566 -0.8657 -0.2052
vn -0.9731 -0.2213 -0.0643
vn -0.8251 -0.2213 -0.5199
vn -0.4900 0.8657 -0.1023
vn -0.8250 0.2213 -0.5199
vn -0.9731 0.2213 -0.0643
vn -0.2487 -0.8657 -0.4344
vn -0.7494 -0.2213 -0.6240
vn -0.3619 -0.2213 -0.9056
vn -0.3363 0.8657 -0.3708
vn -0.3619 0.2213 -0.9056
vn -0.7494 0.2213 -0.6240
vn 0.0541 -0.8657 -0.4976
vn -0.2395 -0.2213 -0.9453
vn 0.2395 -0.2213 -0.9453
vn -0.0541 0.8657 -0.4976
vn 0.2395 0.2213 -0.9453
vn -0.2395 0.2213 -0.9453
vn 0.3363 -0.8657 -0.3708
vn 0.3619 -0.2213 -0.9056
vn 0.7494 -0.2213 -0.6240
vn 0.2487 0.8657 -0.4344
vn 0.7494 0.2213 -0.6240
vn 0.3619 0.2213 -0.9056
vn 0.4900 -0.8657 -0.1023
vn 0.8250 -0.2213 -0.5199
vn 0.9731 -0.2213 -0.0643
vn 0.4566 0.8657 -0.2052
vn 0.9731 0.2213 -0.0643
vn 0.8251 0.2213 -0.5199
vn 0.4566 -0.8657 0.2052
vn 0.9731 -0.2213 0.0643
vn 0.8251 -0.2213 0.5199
vn 0.4900 0.8657 0.1023
vn 0.8250 0.2213 0.5199
vn 0.9731 0.2213 0.0643
vn 0.2487 -0.8657 0.4344
vn 0.7494 -0.2213 0.6240
vn 0.3619 -0.2213 0.9056
vn 0.3363 0.8657 0.3708
vn 0.3619 0.2213 0.9056
vn 0.7494 0.2213 0.6240
s 0
g arpg_brazier_lod1_bowl_M_steel
usemtl M_steel
f 100/131/178 98/129/178 99/127/178
f 100/131/46 99/127/46 96/133/46
f 100/70/100 80/89/100 94/63/100
f 100/70/100 83/87/100 80/89/100
f 101/163/179 104/165/179 105/162/179
f 101/163/47 105/162/47 107/159/47
f 102/105/103 104/103/103 93/122/103
f 102/105/103 93/122/103 89/120/103
f 106/100/108 102/105/108 110/106/108
f 106/100/108 110/106/108 113/101/108
f 106/100/180 105/99/180 104/103/180
f 106/100/48 104/103/48 102/105/48
f 107/159/110 115/142/110 101/163/110
f 107/159/110 118/140/110 115/142/110
f 107/97/181 105/99/181 106/100/181
f 107/97/49 106/100/49 103/95/49
f 108/40/134 94/63/134 80/89/134
f 108/40/182 111/36/182 112/38/182
f 108/40/50 112/38/50 114/42/50
f 109/96/107 103/95/107 106/100/107
f 109/96/107 106/100/107 113/101/107
f 109/96/111 111/98/111 128/81/111
f 109/96/111 128/81/111 124/83/111
f 109/96/140 116/82/140 103/95/140
f 109/96/140 124/83/140 116/82/140
f 111/36/112 108/40/112 122/19/112
f 111/36/112 122/19/112 128/17/112
f 113/101/183 112/102/183 111/98/183
f 113/101/51 111/98/51 109/96/51
f 114/104/184 112/102/184 113/101/184
f 114/104/52 113/101/52 110/106/52
f 115/142/131 129/143/131 143/164/131
f 115/142/185 118/140/185 119/139/185
f 115/142/53 119/139/53 121/136/53
f 116/82/109 107/97/109 103/95/109
f 116/82/109 118/80/109 107/97/109
f 117/72/113 120/77/113 127/78/113
f 117/72/113 127/78/113 123/73/113
f 120/77/114 116/82/114 124/83/114
f 120/77/114 124/83/114 127/78/114
f 120/77/186 119/76/186 118/80/186
f 120/77/54 118/80/54 116/82/54
f 121/136/116 129/143/116 115/142/116
f 121/136/116 132/137/116 129/143/116
f 121/74/187 119/76/187 120/77/187
f 121/74/55 120/77/55 117/72/55
f 122/19/188 125/14/188 126/13/188
f 122/19/56 126/13/56 128/17/56
f 123/73/117 125/75/117 142/56/117
f 123/73/117 142/56/117 138/58/117
f 123/73/141 130/57/141 117/72/141
f 123/73/141 138/58/141 130/57/141
f 127/78/189 126/79/189 125/75/189
f 127/78/57 125/75/57 123/73/57
f 128/81/190 126/79/190 127/78/190
f 128/81/58 127/78/58 124/83/58
f 129/143/191 132/137/191 133/138/191
f 129/143/59 133/138/59 135/141/59
f 130/57/115 121/74/115 117/72/115
f 130/57/115 132/55/115 121/74/115
f 131/47/119 134/52/119 141/53/119
f 131/47/119 141/53/119 137/48/119
f 134/52/120 130/57/120 138/58/120
f 134/52/120 138/58/120 141/53/120
f 134/52/192 133/51/192 132/55/192
f 134/52/60 132/55/60 130/57/60
f 135/49/193 133/51/193 134/52/193
f 135/49/61 134/52/61 131/47/61
f 136/20/134 108/40/134 80/89/134
f 136/20/134 122/19/134 108/40/134
f 136/20/134 80/89/134 52/111/134
f 136/20/194 139/18/194 140/16/194
f 136/20/62 140/16/62 142/15/62
f 137/48/123 139/50/123 156/33/123
f 137/48/123 156/33/123 152/35/123
f 137/48/142 144/34/142 131/47/142
f 137/48/142 152/35/142 144/34/142
f 141/53/195 140/54/195 139/50/195
f 141/53/63 139/50/63 137/48/63
f 142/15/118 122/19/118 136/20/118
f 142/15/118 125/14/118 122/19/118
f 142/56/196 140/54/196 141/53/196
f 142/56/64 141/53/64 138/58/64
f 143/164/131 17/187/131 31/212/131
f 143/164/131 31/212/131 59/232/131
f 143/164/197 146/160/197 147/161/197
f 143/164/65 147/161/65 149/166/65
f 144/34/121 135/49/121 131/47/121
f 144/34/121 146/32/121 135/49/121
f 145/24/125 148/29/125 155/30/125
f 145/24/125 155/30/125 151/25/125
f 146/160/122 129/143/122 135/141/122
f 146/160/122 143/164/122 129/143/122
f 148/29/126 144/34/126 152/35/126
f 148/29/126 152/35/126 155/30/126
f 148/29/198 147/28/198 146/32/198
f 148/29/66 146/32/66 144/34/66
f 149/26/199 147/28/199 148/29/199
f 149/26/67 148/29/67 145/24/67
f 150/41/200 153/43/200 154/39/200
f 150/41/68 154/39/68 156/37/68
f 151/25/129 153/27/129 30/8/129
f 151/25/129 30/8/129 26/10/129
f 151/25/133 18/9/133 145/24/133
f 151/25/133 26/10/133 18/9/133
f 155/30/201 154/31/201 153/27/201
f 155/30/69 153/27/69 151/25/69
f 156/33/202 154/31/202 155/30/202
f 156/33/70 155/30/70 152/35/70
f 156/37/124 136/20/124 150/41/124
f 156/37/124 139/18/124 136/20/124
f 17/187/11 21/184/11 23/193/11
f 17/187/143 20/183/143 21/184/143
f 18/9/127 149/26/127 145/24/127
f 18/9/127 20/7/127 149/26/127
f 20/183/128 143/164/128 149/166/128
f 20/183/128 17/187/128 143/164/128
f 22/3/12 20/7/12 18/9/12
f 22/3/144 21/2/144 20/7/144
f 23/193/72 31/212/72 17/187/72
f 23/193/72 34/210/72 31/212/72
f 23/244/13 22/248/13 19/242/13
f 23/244/145 21/246/145 22/248/145
f 24/65/134 150/41/134 136/20/134
f 24/65/14 28/69/14 30/60/14
f 24/65/146 27/71/146 28/69/146
f 25/243/132 32/227/132 19/242/132
f 25/243/132 40/228/132 32/227/132
f 25/243/73 27/245/73 44/226/73
f 25/243/73 44/226/73 40/228/73
f 26/10/75 22/3/75 18/9/75
f 26/10/75 29/4/75 22/3/75
f 27/71/74 24/65/74 38/90/74
f 27/71/74 38/90/74 44/88/74
f 29/249/147 28/250/147 27/245/147
f 29/249/15 27/245/15 25/243/15
f 29/249/76 19/242/76 22/248/76
f 29/249/76 25/243/76 19/242/76
f 30/60/130 150/41/130 24/65/130
f 30/60/130 153/43/130 150/41/130
f 30/8/148 28/6/148 29/4/148
f 30/8/16 29/4/16 26/10/16
f 31/212/131 45/233/131 59/232/131
f 31/212/149 34/210/149 35/213/149
f 31/212/17 35/213/17 37/216/17
f 32/227/71 23/244/71 19/242/71
f 32/227/71 34/225/71 23/244/71
f 36/222/150 35/221/150 34/225/150
f 36/222/18 34/225/18 32/227/18
f 36/222/78 32/227/78 40/228/78
f 36/222/78 40/228/78 43/223/78
f 37/216/80 45/233/80 31/212/80
f 37/216/80 48/235/80 45/233/80
f 37/219/151 35/221/151 36/222/151
f 37/219/19 36/222/19 33/217/19
f 38/90/152 41/94/152 42/92/152
f 38/90/20 42/92/20 44/88/20
f 39/218/135 46/204/135 33/217/135
f 39/218/135 54/205/135 46/204/135
f 39/218/77 33/217/77 36/222/77
f 39/218/77 36/222/77 43/223/77
f 39/218/81 41/220/81 58/203/81
f 39/218/81 58/203/81 54/205/81
f 41/94/82 38/90/82 52/111/82
f 41/94/82 52/111/82 58/113/82
f 43/223/153 42/224/153 41/220/153
f 43/223/21 41/220/21 39/218/21
f 44/226/154 42/224/154 43/223/154
f 44/226/22 43/223/22 40/228/22
f 45/233/155 48/235/155 49/236/155
f 45/233/23 49/236/23 51/239/23
f 46/204/79 37/219/79 33/217/79
f 46/204/79 48/202/79 37/219/79
f 47/194/83 50/199/83 57/200/83
f 47/194/83 57/200/83 53/195/83
f 50/199/156 49/198/156 48/202/156
f 50/199/24 48/202/24 46/204/24
f 50/199/84 46/204/84 54/205/84
f 50/199/84 54/205/84 57/200/84
f 51/196/157 49/198/157 50/199/157
f 51/196/25 50/199/25 47/194/25
f 51/239/86 59/232/86 45/233/86
f 51/239/86 62/238/86 59/232/86
f 52/111/134 24/65/134 136/20/134
f 52/111/134 38/90/134 24/65/134
f 52/111/158 55/116/158 56/117/158
f 52/111/26 56/117/26 58/113/26
f 53/195/136 60/180/136 47/194/136
f 53/195/136 68/181/136 60/180/136
f 53/195/87 55/197/87 72/179/87
f 53/195/87 72/179/87 68/181/87
f 57/200/159 56/201/159 55/197/159
f 57/200/27 55/197/27 53/195/27
f 58/203/160 56/201/160 57/200/160
f 58/203/28 57/200/28 54/205/28
f 59/232/131 115/142/131 143/164/131
f 59/232/131 73/211/131 87/186/131
f 59/232/131 87/186/131 115/142/131
f 59/232/161 62/238/161 63/237/161
f 59/232/29 63/237/29 65/234/29
f 60/180/85 51/196/85 47/194/85
f 60/180/85 62/178/85 51/196/85
f 61/170/89 64/175/89 71/176/89
f 61/170/89 71/176/89 67/171/89
f 64/175/162 63/174/162 62/178/162
f 64/175/30 62/178/30 60/180/30
f 64/175/90 60/180/90 68/181/90
f 64/175/90 68/181/90 71/176/90
f 65/172/163 63/174/163 64/175/163
f 65/172/31 64/175/31 61/170/31
f 66/110/164 69/112/164 70/114/164
f 66/110/32 70/114/32 72/115/32
f 67/171/137 74/157/137 61/170/137
f 67/171/137 82/158/137 74/157/137
f 67/171/93 69/173/93 86/156/93
f 67/171/93 86/156/93 82/158/93
f 71/176/165 70/177/165 69/173/165
f 71/176/33 69/173/33 67/171/33
f 72/115/88 52/111/88 66/110/88
f 72/115/88 55/116/88 52/111/88
f 72/179/166 70/177/166 71/176/166
f 72/179/34 71/176/34 68/181/34
f 73/211/167 76/215/167 77/214/167
f 73/211/35 77/214/35 79/209/35
f 74/157/91 65/172/91 61/170/91
f 74/157/91 76/155/91 65/172/91
f 75/147/95 78/152/95 85/153/95
f 75/147/95 85/153/95 81/148/95
f 76/215/92 59/232/92 65/234/92
f 76/215/92 73/211/92 59/232/92
f 78/152/168 77/151/168 76/155/168
f 78/152/36 76/155/36 74/157/36
f 78/152/96 74/157/96 82/158/96
f 78/152/96 82/158/96 85/153/96
f 79/149/169 77/151/169 78/152/169
f 79/149/37 78/152/37 75/147/37
f 80/89/134 66/110/134 52/111/134
f 80/89/170 83/87/170 84/91/170
f 80/89/38 84/91/38 86/93/38
f 81/148/138 88/132/138 75/147/138
f 81/148/138 96/133/138 88/132/138
f 81/148/99 100/131/99 96/133/99
f 81/148/99 83/150/99 100/131/99
f 85/153/171 84/154/171 83/150/171
f 85/153/39 83/150/39 81/148/39
f 86/156/172 84/154/172 85/153/172
f 86/156/40 85/153/40 82/158/40
f 86/93/94 66/110/94 80/89/94
f 86/93/94 69/112/94 66/110/94
f 87/186/131 101/163/131 115/142/131
f 87/186/173 90/192/173 91/191/173
f 87/186/41 91/191/41 93/182/41
f 88/132/97 79/149/97 75/147/97
f 88/132/97 90/130/97 79/149/97
f 89/120/101 92/126/101 99/127/101
f 89/120/101 99/127/101 95/121/101
f 90/192/98 73/211/98 79/209/98
f 90/192/98 87/186/98 73/211/98
f 92/126/102 88/132/102 96/133/102
f 92/126/102 96/133/102 99/127/102
f 92/126/174 91/124/174 90/130/174
f 92/126/42 90/130/42 88/132/42
f 93/122/175 91/124/175 92/126/175
f 93/122/43 92/126/43 89/120/43
f 93/182/104 101/163/104 87/186/104
f 93/182/104 104/165/104 101/163/104
f 94/63/176 97/59/176 98/61/176
f 94/63/44 98/61/44 100/70/44
f 95/121/105 114/104/105 110/106/105
f 95/121/105 97/123/105 114/104/105
f 95/121/139 102/105/139 89/120/139
f 95/121/139 110/106/139 102/105/139
f 97/59/106 108/40/106 114/42/106
f 97/59/106 94/63/106 108/40/106
f 99/127/177 98/129/177 97/123/177
f 99/127/45 97/123/45 95/121/45
g arpg_brazier_lod1_flame_Cone.031
v 0.000000 0.890000 0.280000
v -0.218913 0.890000 0.174577
v -0.272980 0.890000 -0.062306
v -0.121487 0.890000 -0.252271
v 0.121487 0.890000 -0.252271
v 0.272980 0.890000 -0.062306
v 0.218913 0.890000 0.174577
v 0.000000 1.550000 0.000000
vn -0.4053 0.3570 0.8416
vn -0.9107 0.3570 0.2079
vn -0.7303 0.3570 -0.5824
vn -0.0000 0.3570 -0.9341
vn 0.7303 0.3570 -0.5824
vn -0.0000 -1.0000 -0.0000
vn 0.9107 0.3570 0.2079
vn 0.4053 0.3570 0.8416
s 0
g arpg_brazier_lod1_flame_M_orange
usemtl M_orange
f 157/66/203 164/64/203 158/109/203
f 158/109/204 164/64/204 159/118/204
f 158/231/208 159/240/208 160/206/208
f 158/231/208 160/206/208 162/135/208
f 159/118/205 164/64/205 160/84/205
f 160/206/208 161/169/208 162/135/208
f 160/84/206 164/64/206 161/46/206
f 161/46/207 164/64/207 162/12/207
f 162/12/209 164/64/209 163/21/209
f 162/135/208 163/144/208 158/231/208
f 163/144/208 157/188/208 158/231/208
f 163/21/210 164/64/210 157/66/210
