# Blender 5.2.0 LTS
# www.blender.org
mtllib platform_straight.mtl
g platform_rock_Cube.066
v 0.435000 0.000000 -0.325000
v 0.435000 0.055000 -0.380000
v 0.490000 0.055000 -0.325000
v 0.435000 0.016109 -0.363891
v 0.466754 0.023246 -0.356754
v 0.473891 0.055000 -0.363891
v 0.473891 0.016109 -0.325000
v 0.435000 0.285000 -0.380000
v 0.435000 0.340000 -0.325000
v 0.490000 0.285000 -0.325000
v 0.435000 0.323891 -0.363891
v 0.466754 0.316754 -0.356754
v 0.473891 0.323891 -0.325000
v 0.473891 0.285000 -0.363891
v 0.435000 0.000000 0.325000
v 0.490000 0.055000 0.325000
v 0.435000 0.055000 0.380000
v 0.473891 0.016109 0.325000
v 0.466754 0.023246 0.356754
v 0.473891 0.055000 0.363891
v 0.435000 0.016109 0.363891
v 0.435000 0.340000 0.325000
v 0.435000 0.285000 0.380000
v 0.490000 0.285000 0.325000
v 0.435000 0.323891 0.363891
v 0.466754 0.316754 0.356754
v 0.473891 0.285000 0.363891
v 0.473891 0.323891 0.325000
v -0.435000 0.000000 -0.325000
v -0.490000 0.055000 -0.325000
v -0.435000 0.055000 -0.380000
v -0.473891 0.016109 -0.325000
v -0.466754 0.023246 -0.356754
v -0.473891 0.055000 -0.363891
v -0.435000 0.016109 -0.363891
v -0.435000 0.340000 -0.325000
v -0.435000 0.285000 -0.380000
v -0.490000 0.285000 -0.325000
v -0.435000 0.323891 -0.363891
v -0.466754 0.316754 -0.356754
v -0.473891 0.285000 -0.363891
v -0.473891 0.323891 -0.325000
v -0.435000 0.000000 0.325000
v -0.435000 0.055000 0.380000
v -0.490000 0.055000 0.325000
v -0.435000 0.016109 0.363891
v -0.466754 0.023246 0.356754
v -0.473891 0.055000 0.363891
v -0.473891 0.016109 0.325000
v -0.435000 0.340000 0.325000
v -0.490000 0.285000 0.325000
v -0.435000 0.285000 0.380000
v -0.473891 0.323891 0.325000
v -0.466754 0.316754 0.356754
v -0.473891 0.285000 0.363891
v -0.435000 0.323891 0.363891
vn 0.3672 -0.8865 -0.2817
vn 0.2817 -0.3672 -0.8865
vn 0.8865 -0.2817 -0.3672
vn 0.3672 0.2817 -0.8865
vn 0.2817 0.8865 -0.3672
vn 0.8865 0.3672 -0.2817
vn 0.2817 -0.8865 0.3672
vn 0.8865 -0.3672 0.2817
vn 0.3672 -0.2817 0.8865
vn 0.3672 0.8865 0.2817
vn 0.2817 0.3672 0.8865
vn 0.8865 0.2817 0.3672
vn -0.2817 -0.8865 -0.3672
vn -0.8865 -0.3672 -0.2817
vn -0.3672 -0.2817 -0.8865
vn -0.3672 0.8865 -0.2817
vn -0.2817 0.3672 -0.8865
vn -0.8865 0.2817 -0.3672
vn -0.3672 -0.8865 0.2817
vn -0.2817 -0.3672 0.8865
vn -0.8865 -0.2817 0.3672
vn -0.2817 0.8865 0.3672
vn -0.8865 0.3672 0.2817
vn -0.3672 0.2817 0.8865
vn 0.3827 -0.9239 -0.0000
vn 0.9239 -0.3827 -0.0000
vn 0.3827 -0.0000 -0.9239
vn 0.9239 -0.0000 -0.3827
vn 0.3827 0.9239 -0.0000
vn 0.9239 0.3827 -0.0000
vn 0.3827 -0.0000 0.9239
vn 0.9239 -0.0000 0.3827
vn -0.0000 -0.9239 0.3827
vn -0.0000 -0.3827 0.9239
vn -0.0000 0.9239 0.3827
vn -0.0000 0.3827 0.9239
vn -0.9239 -0.0000 0.3827
vn -0.3827 -0.0000 0.9239
vn -0.3827 -0.9239 -0.0000
vn -0.9239 -0.3827 -0.0000
vn -0.3827 0.9239 -0.0000
vn -0.9239 0.3827 -0.0000
vn -0.3827 -0.0000 -0.9239
vn -0.9239 -0.0000 -0.3827
vn -0.0000 -0.9239 -0.3827
vn -0.0000 -0.3827 -0.9239
vn -0.0000 0.9239 -0.3827
vn -0.0000 0.3827 -0.9239
vn -0.0000 -1.0000 -0.0000
vn 1.0000 -0.0000 -0.0000
vn -0.0000 -0.0000 -1.0000
vn -0.0000 1.0000 -0.0000
vn -0.0000 -0.0000 1.0000
vn -1.0000 -0.0000 -0.0000
vn 0.2817 -0.8865 -0.3672
vn 0.3672 -0.2817 -0.8865
vn 0.8865 -0.3672 -0.2817
vn 0.2817 0.3672 -0.8865
vn 0.3672 0.8865 -0.2817
vn 0.8865 0.2817 -0.3672
vn 0.3672 -0.8865 0.2817
vn 0.8865 -0.2817 0.3672
vn 0.2817 -0.3672 0.8865
vn 0.2817 0.8865 0.3672
vn 0.3672 0.2817 0.8865
vn 0.8865 0.3672 0.2817
vn -0.3672 -0.8865 -0.2817
vn -0.8865 -0.2817 -0.3672
vn -0.2817 -0.3672 -0.8865
vn -0.2817 0.8865 -0.3672
vn -0.3672 0.2817 -0.8865
vn -0.8865 0.3672 -0.2817
vn -0.2817 -0.8865 0.3672
vn -0.3672 -0.2817 0.8865
vn -0.8865 -0.3672 0.2817
vn -0.3672 0.8865 0.2817
vn -0.8865 0.2817 0.3672
vn -0.2817 0.3672 0.8865
vt 0.12500 0.50293
vt 0.12500 0.50692
vt 0.12500 0.50765
vt 0.12500 0.51809
vt 0.12500 0.51902
vt 0.12500 0.54500
vt 0.12500 0.70500
vt 0.12500 0.73191
vt 0.12500 0.74308
vt 0.12593 0.75000
vt 0.12720 0.50000
vt 0.12720 0.54500
vt 0.12720 0.70500
vt 0.12720 0.75000
vt 0.12728 0.75000
vt 0.13040 0.50000
vt 0.13040 0.50692
vt 0.13040 0.74308
vt 0.13040 0.75000
vt 0.13093 0.75000
vt 0.13903 0.50000
vt 0.13903 0.51809
vt 0.13903 0.73191
vt 0.13903 0.75000
vt 0.36097 0.51809
vt 0.36097 0.73191
vt 0.36799 0.49299
vt 0.36799 0.75701
vt 0.36960 0.50692
vt 0.36960 0.74308
vt 0.37230 0.49730
vt 0.37230 0.75270
vt 0.37280 0.54500
vt 0.37280 0.70500
vt 0.37390 0.49890
vt 0.37390 0.75110
vt 0.37500 0.00293
vt 0.37500 0.00692
vt 0.37500 0.00765
vt 0.37500 0.01809
vt 0.37500 0.01902
vt 0.37500 0.04500
vt 0.37500 0.20500
vt 0.37500 0.23191
vt 0.37500 0.24308
vt 0.37500 0.25220
vt 0.37500 0.25540
vt 0.37500 0.26403
vt 0.37500 0.50692
vt 0.37500 0.51809
vt 0.37500 0.54500
vt 0.37500 0.70500
vt 0.37500 0.73191
vt 0.37500 0.74308
vt 0.37500 0.98597
vt 0.37500 0.99460
vt 0.37500 0.99781
vt 0.37786 0.50634
vt 0.37817 0.74397
vt 0.37872 0.50255
vt 0.37976 0.25046
vt 0.38058 0.50097
vt 0.38070 0.74943
vt 0.38134 0.74979
vt 0.38355 0.25296
vt 0.38451 0.25114
vt 0.38451 1.00000
vt 0.39209 1.00000
vt 0.39402 1.00000
vt 0.39750 0.00000
vt 0.39750 0.04500
vt 0.39750 0.20500
vt 0.39750 0.25000
vt 0.39750 0.25220
vt 0.39750 0.49780
vt 0.39750 0.50000
vt 0.39750 0.54500
vt 0.39750 0.70500
vt 0.39750 0.75000
vt 0.39750 0.75219
vt 0.39750 0.99781
vt 0.39750 1.00000
vt 0.41544 0.00000
vt 0.41544 0.01809
vt 0.41544 0.23191
vt 0.41544 0.25000
vt 0.41544 0.26403
vt 0.41544 0.48597
vt 0.41544 0.50000
vt 0.41544 0.51809
vt 0.41544 0.73191
vt 0.41544 0.75000
vt 0.41544 0.76403
vt 0.41544 0.98597
vt 0.41544 1.00000
vt 0.42000 0.00000
vt 0.42000 0.00692
vt 0.42000 0.24308
vt 0.42000 0.25000
vt 0.42000 0.25540
vt 0.42000 0.49460
vt 0.42000 0.50000
vt 0.42000 0.50692
vt 0.42000 0.74308
vt 0.42000 0.75000
vt 0.42000 0.75540
vt 0.42000 0.99460
vt 0.42000 1.00000
vt 0.58000 0.00000
vt 0.58000 0.00692
vt 0.58000 0.24308
vt 0.58000 0.25000
vt 0.58000 0.25540
vt 0.58000 0.49460
vt 0.58000 0.50000
vt 0.58000 0.50692
vt 0.58000 0.74308
vt 0.58000 0.75000
vt 0.58000 0.75540
vt 0.58000 0.99460
vt 0.58000 1.00000
vt 0.58456 0.00000
vt 0.58456 0.01809
vt 0.58456 0.23191
vt 0.58456 0.25000
vt 0.58456 0.26403
vt 0.58456 0.48597
vt 0.58456 0.50000
vt 0.58456 0.51809
vt 0.58456 0.73191
vt 0.58456 0.75000
vt 0.58456 0.76403
vt 0.58456 0.98597
vt 0.58456 1.00000
vt 0.60250 0.00000
vt 0.60250 0.04500
vt 0.60250 0.20500
vt 0.60250 0.25000
vt 0.60250 0.25220
vt 0.60250 0.49780
vt 0.60250 0.50000
vt 0.60250 0.54500
vt 0.60250 0.70500
vt 0.60250 0.75000
vt 0.60250 0.75219
vt 0.60250 0.99781
vt 0.60250 1.00000
vt 0.60598 0.00000
vt 0.60791 0.00000
vt 0.61549 0.00000
vt 0.61549 0.24854
vt 0.61645 0.24618
vt 0.61866 0.50021
vt 0.61930 0.50057
vt 0.61942 0.74903
vt 0.62025 0.24049
vt 0.62128 0.74745
vt 0.62183 0.50603
vt 0.62214 0.74366
vt 0.62500 0.00692
vt 0.62500 0.01809
vt 0.62500 0.04500
vt 0.62500 0.20500
vt 0.62500 0.23191
vt 0.62500 0.24308
vt 0.62500 0.25220
vt 0.62500 0.25540
vt 0.62500 0.26403
vt 0.62500 0.50692
vt 0.62500 0.51809
vt 0.62500 0.54500
vt 0.62500 0.70500
vt 0.62500 0.73191
vt 0.62500 0.74308
vt 0.62500 0.98597
vt 0.62500 0.99407
vt 0.62500 0.99460
vt 0.62500 0.99772
vt 0.62500 0.99781
vt 0.62500 0.99907
vt 0.62610 0.49890
vt 0.62610 0.75110
vt 0.62719 0.54500
vt 0.62719 0.70500
vt 0.62770 0.49730
vt 0.62770 0.75270
vt 0.63040 0.50692
vt 0.63040 0.74308
vt 0.63201 0.49299
vt 0.63201 0.75701
vt 0.63903 0.51809
vt 0.63903 0.73191
vt 0.86097 0.50000
vt 0.86097 0.51809
vt 0.86097 0.73191
vt 0.86097 0.75000
vt 0.86907 0.50000
vt 0.86960 0.50000
vt 0.86960 0.50692
vt 0.86960 0.74308
vt 0.86960 0.75000
vt 0.87272 0.50000
vt 0.87281 0.50000
vt 0.87281 0.54500
vt 0.87281 0.70500
vt 0.87281 0.75000
vt 0.87407 0.50000
vt 0.87500 0.50692
vt 0.87500 0.51809
vt 0.87500 0.54500
vt 0.87500 0.70500
vt 0.87500 0.73098
vt 0.87500 0.73191
vt 0.87500 0.74235
vt 0.87500 0.74308
vt 0.87500 0.74707
s 0
g platform_rock_M_stone
usemtl M_stone
f 1/23/1 5/20/1 7/8/1
f 1/23/25 18/4/25 15/22/25
f 1/23/25 7/8/25 18/4/25
f 1/23/55 4/24/55 5/20/55
f 10/123/50 16/85/50 3/84/50
f 10/123/50 24/124/50 16/85/50
f 10/123/6 12/149/6 13/161/6
f 10/123/60 14/122/60 12/149/60
f 11/175/48 37/132/48 39/190/48
f 11/175/48 8/133/48 37/132/48
f 14/122/28 10/123/28 3/84/28
f 14/122/28 3/84/28 6/83/28
f 15/22/33 21/21/33 46/27/33
f 15/22/33 46/27/33 43/25/33
f 15/22/61 18/4/61 19/3/61
f 15/22/7 19/3/7 21/21/7
f 16/85/62 20/86/62 19/65/62
f 16/85/8 19/65/8 18/44/8
f 17/87/31 20/86/31 27/125/31
f 17/87/31 27/125/31 23/126/31
f 17/87/63 21/48/63 19/65/63
f 17/87/9 19/65/9 20/86/9
f 2/94/2 5/68/2 4/55/2
f 2/94/56 6/95/56 5/68/56
f 20/86/32 16/85/32 24/124/32
f 20/86/32 24/124/32 27/125/32
f 21/48/34 17/87/34 44/88/34
f 21/48/34 44/88/34 46/27/34
f 22/194/10 26/197/10 28/209/10
f 22/194/29 13/213/29 9/195/29
f 22/194/29 28/209/29 13/213/29
f 22/194/52 36/192/52 50/191/52
f 22/194/52 9/195/52 36/192/52
f 22/194/64 25/193/64 26/197/64
f 23/126/11 26/152/11 25/168/11
f 23/126/53 44/88/53 17/87/53
f 23/126/53 52/127/53 44/88/53
f 23/126/65 27/125/65 26/152/65
f 24/124/12 26/152/12 27/125/12
f 24/124/66 28/164/66 26/152/66
f 28/164/30 10/123/30 13/161/30
f 28/164/30 24/124/30 10/123/30
f 29/26/13 33/63/13 35/28/13
f 29/26/45 35/28/45 4/24/45
f 29/26/45 4/24/45 1/23/45
f 29/26/67 32/53/67 33/63/67
f 3/84/3 5/39/3 6/83/3
f 3/84/57 7/40/57 5/39/57
f 30/91/14 33/63/14 32/53/14
f 30/91/68 34/92/68 33/63/68
f 31/93/15 33/63/15 34/92/15
f 31/93/43 34/92/43 41/131/43
f 31/93/43 41/131/43 37/132/43
f 31/93/69 35/28/69 33/63/69
f 34/92/44 30/91/44 38/130/44
f 34/92/44 38/130/44 41/131/44
f 35/28/46 2/94/46 4/55/46
f 35/28/46 31/93/46 2/94/46
f 36/192/16 40/157/16 42/173/16
f 36/192/41 42/173/41 53/170/41
f 36/192/41 53/170/41 50/191/41
f 36/192/70 39/190/70 40/157/70
f 37/132/17 40/157/17 39/190/17
f 37/132/51 2/94/51 31/93/51
f 37/132/51 8/133/51 2/94/51
f 37/132/71 41/131/71 40/157/71
f 38/130/18 40/157/18 41/131/18
f 38/130/72 42/173/72 40/157/72
f 42/173/42 38/130/42 51/129/42
f 42/173/42 51/129/42 53/170/42
f 43/25/19 47/60/19 49/50/19
f 43/25/39 32/53/39 29/26/39
f 43/25/39 49/50/39 32/53/39
f 43/25/49 1/23/49 15/22/49
f 43/25/49 29/26/49 1/23/49
f 43/25/73 46/27/73 47/60/73
f 44/88/20 47/60/20 46/27/20
f 44/88/74 48/89/74 47/60/74
f 45/90/21 47/60/21 48/89/21
f 45/90/37 48/89/37 55/128/37
f 45/90/37 55/128/37 51/129/37
f 45/90/75 49/50/75 47/60/75
f 48/89/38 44/88/38 52/127/38
f 48/89/38 52/127/38 55/128/38
f 49/50/40 30/91/40 32/53/40
f 49/50/40 45/90/40 30/91/40
f 50/191/22 54/154/22 56/189/22
f 50/191/35 25/193/35 22/194/35
f 50/191/35 56/189/35 25/193/35
f 50/191/76 53/170/76 54/154/76
f 51/129/23 54/154/23 53/170/23
f 51/129/54 30/91/54 45/90/54
f 51/129/54 38/130/54 30/91/54
f 51/129/77 55/128/77 54/154/77
f 52/127/24 54/154/24 55/128/24
f 52/127/78 56/189/78 54/154/78
f 56/189/36 23/126/36 25/168/36
f 56/189/36 52/127/36 23/126/36
f 7/40/26 16/85/26 18/44/26
f 7/40/26 3/84/26 16/85/26
f 8/133/27 14/134/27 6/95/27
f 8/133/27 6/95/27 2/94/27
f 8/133/4 12/176/4 14/134/4
f 8/133/58 11/175/58 12/176/58
f 9/195/47 11/196/47 39/190/47
f 9/195/47 39/190/47 36/192/47
f 9/195/5 12/214/5 11/196/5
f 9/195/59 13/213/59 12/214/59
g platform_grass_Cube.067
v 0.478400 0.340000 -0.368400
v 0.478400 0.361600 -0.390000
v 0.500000 0.361600 -0.368400
v 0.478400 0.346327 -0.383673
v 0.490871 0.349129 -0.380871
v 0.493674 0.361600 -0.383673
v 0.493674 0.346327 -0.368400
v 0.478400 0.438400 -0.390000
v 0.478400 0.460000 -0.368400
v 0.500000 0.438400 -0.368400
v 0.478400 0.453674 -0.383673
v 0.490871 0.450871 -0.380871
v 0.493674 0.453674 -0.368400
v 0.493674 0.438400 -0.383673
v 0.478400 0.340000 0.368400
v 0.500000 0.361600 0.368400
v 0.478400 0.361600 0.390000
v 0.493674 0.346327 0.368400
v 0.490871 0.349129 0.380871
v 0.493674 0.361600 0.383673
v 0.478400 0.346327 0.383673
v 0.478400 0.460000 0.368400
v 0.478400 0.438400 0.390000
v 0.500000 0.438400 0.368400
v 0.478400 0.453674 0.383673
v 0.490871 0.450871 0.380871
v 0.493674 0.438400 0.383673
v 0.493674 0.453674 0.368400
v -0.478400 0.340000 -0.368400
v -0.500000 0.361600 -0.368400
v -0.478400 0.361600 -0.390000
v -0.493674 0.346327 -0.368400
v -0.490871 0.349129 -0.380871
v -0.493674 0.361600 -0.383673
v -0.478400 0.346327 -0.383673
v -0.478400 0.460000 -0.368400
v -0.478400 0.438400 -0.390000
v -0.500000 0.438400 -0.368400
v -0.478400 0.453674 -0.383673
v -0.490871 0.450871 -0.380871
v -0.493674 0.438400 -0.383673
v -0.493674 0.453674 -0.368400
v -0.478400 0.340000 0.368400
v -0.478400 0.361600 0.390000
v -0.500000 0.361600 0.368400
v -0.478400 0.346327 0.383673
v -0.490871 0.349129 0.380871
v -0.493674 0.361600 0.383673
v -0.493674 0.346327 0.368400
v -0.478400 0.460000 0.368400
v -0.500000 0.438400 0.368400
v -0.478400 0.438400 0.390000
v -0.493674 0.453674 0.368400
v -0.490871 0.450871 0.380871
v -0.493674 0.438400 0.383673
v -0.478400 0.453674 0.383673
vn 0.3672 -0.8865 -0.2817
vn 0.2817 -0.3672 -0.8865
vn 0.8865 -0.2817 -0.3672
vn 0.3672 0.2817 -0.8865
vn 0.2817 0.8865 -0.3672
vn 0.8865 0.3672 -0.2817
vn 0.2817 -0.8865 0.3672
vn 0.8865 -0.3672 0.2817
vn 0.3672 -0.2817 0.8865
vn 0.3672 0.8865 0.2817
vn 0.2817 0.3672 0.8865
vn 0.8865 0.2817 0.3672
vn -0.2817 -0.8865 -0.3672
vn -0.8865 -0.3672 -0.2817
vn -0.3672 -0.2817 -0.8865
vn -0.3672 0.8865 -0.2817
vn -0.2817 0.3672 -0.8865
vn -0.8865 0.2817 -0.3672
vn -0.3672 -0.8865 0.2817
vn -0.2817 -0.3672 0.8865
vn -0.8865 -0.2817 0.3672
vn -0.2817 0.8865 0.3672
vn -0.8865 0.3672 0.2817
vn -0.3672 0.2817 0.8865
vn 0.3827 -0.9239 -0.0000
vn 0.9239 -0.3827 -0.0000
vn 0.3827 -0.0000 -0.9239
vn 0.9239 -0.0000 -0.3827
vn 0.3827 0.9239 -0.0000
vn 0.9239 0.3827 -0.0000
vn 0.3827 -0.0000 0.9239
vn 0.9239 -0.0000 0.3827
vn -0.0000 -0.9239 0.3827
vn -0.0000 -0.3827 0.9239
vn -0.0000 0.9239 0.3827
vn -0.0000 0.3827 0.9239
vn -0.9239 -0.0000 0.3827
vn -0.3827 -0.0000 0.9239
vn -0.3827 -0.9239 -0.0000
vn -0.9239 -0.3827 -0.0000
vn -0.3827 0.9239 -0.0000
vn -0.9239 0.3827 -0.0000
vn -0.3827 -0.0000 -0.9239
vn -0.9239 -0.0000 -0.3827
vn -0.0000 -0.9239 -0.3827
vn -0.0000 -0.3827 -0.9239
vn -0.0000 0.9239 -0.3827
vn -0.0000 0.3827 -0.9239
vn -0.0000 -1.0000 -0.0000
vn 1.0000 -0.0000 -0.0000
vn -0.0000 -0.0000 -1.0000
vn -0.0000 1.0000 -0.0000
vn -0.0000 -0.0000 1.0000
vn -1.0000 -0.0000 -0.0000
vn 0.2817 -0.8865 -0.3672
vn 0.3672 -0.2817 -0.8865
vn 0.8865 -0.3672 -0.2817
vn 0.2817 0.3672 -0.8865
vn 0.3672 0.8865 -0.2817
vn 0.8865 0.2817 -0.3672
vn 0.3672 -0.8865 0.2817
vn 0.8865 -0.2817 0.3672
vn 0.2817 -0.3672 0.8865
vn 0.2817 0.8865 0.3672
vn 0.3672 0.2817 0.8865
vn 0.8865 0.3672 0.2817
vn -0.3672 -0.8865 -0.2817
vn -0.8865 -0.2817 -0.3672
vn -0.2817 -0.3672 -0.8865
vn -0.2817 0.8865 -0.3672
vn -0.3672 0.2817 -0.8865
vn -0.8865 0.3672 -0.2817
vn -0.2817 -0.8865 0.3672
vn -0.3672 -0.2817 0.8865
vn -0.8865 -0.3672 0.2817
vn -0.3672 0.8865 0.2817
vn -0.8865 0.2817 0.3672
vn -0.2817 0.3672 0.8865
s 0
g platform_grass_M_grass
usemtl M_grass
f 100/101/152 104/102/152 103/62/152
f 100/101/98 103/62/98 102/31/98
f 101/103/115 104/102/115 111/115/115
f 101/103/115 111/115/115 107/116/115
f 101/103/153 105/49/153 103/62/153
f 101/103/99 103/62/99 104/102/99
f 104/102/116 100/101/116 108/114/116
f 104/102/116 108/114/116 111/115/116
f 105/49/118 101/103/118 86/104/118
f 105/49/118 86/104/118 88/54/118
f 106/187/100 110/153/100 112/185/100
f 106/187/113 112/185/113 81/198/113
f 106/187/113 81/198/113 78/199/113
f 106/187/154 109/169/154 110/153/154
f 107/116/101 110/153/101 109/169/101
f 107/116/132 86/104/132 101/103/132
f 107/116/132 94/117/132 86/104/132
f 107/116/155 111/115/155 110/153/155
f 108/114/102 110/153/102 111/115/102
f 108/114/156 112/185/156 110/153/156
f 112/185/114 108/114/114 79/113/114
f 112/185/114 79/113/114 81/167/114
f 57/18/103 63/9/103 74/2/103
f 57/18/103 74/2/103 71/17/103
f 57/18/133 60/19/133 61/15/133
f 57/18/79 61/15/79 63/9/79
f 58/107/134 62/108/134 61/69/134
f 58/107/80 61/69/80 60/56/80
f 59/97/135 63/38/135 61/37/135
f 59/97/81 61/37/81 62/96/81
f 63/38/104 59/97/104 72/98/104
f 63/38/104 72/98/104 74/45/104
f 64/120/105 62/108/105 58/107/105
f 64/120/105 70/121/105 62/108/105
f 64/120/136 67/177/136 68/178/136
f 64/120/82 68/178/82 70/121/82
f 65/200/125 67/201/125 95/186/125
f 65/200/125 95/186/125 92/188/125
f 65/200/137 69/215/137 68/216/137
f 65/200/83 68/216/83 67/201/83
f 66/110/128 72/98/128 59/97/128
f 66/110/128 80/111/128 72/98/128
f 66/110/138 70/109/138 68/148/138
f 66/110/84 68/148/84 69/160/84
f 67/177/126 64/120/126 93/119/126
f 67/177/126 93/119/126 95/186/126
f 70/109/106 59/97/106 62/96/106
f 70/109/106 66/110/106 59/97/106
f 71/17/111 102/31/111 99/29/111
f 71/17/111 77/16/111 102/31/111
f 71/17/139 74/2/139 75/1/139
f 71/17/85 75/1/85 77/16/85
f 72/98/140 76/99/140 75/66/140
f 72/98/86 75/66/86 74/45/86
f 73/100/109 76/99/109 83/112/109
f 73/100/109 83/112/109 79/113/109
f 73/100/141 77/47/141 75/66/141
f 73/100/87 75/66/87 76/99/87
f 76/99/110 72/98/110 80/111/110
f 76/99/110 80/111/110 83/112/110
f 77/47/112 100/101/112 102/31/112
f 77/47/112 73/100/112 100/101/112
f 78/199/107 69/215/107 65/200/107
f 78/199/107 84/208/107 69/215/107
f 78/199/130 65/200/130 92/188/130
f 78/199/130 92/188/130 106/187/130
f 78/199/142 81/198/142 82/202/142
f 78/199/88 82/202/88 84/208/88
f 79/113/131 100/101/131 73/100/131
f 79/113/131 108/114/131 100/101/131
f 79/113/143 83/112/143 82/151/143
f 79/113/89 82/151/89 81/167/89
f 80/111/144 84/165/144 82/151/144
f 80/111/90 82/151/90 83/112/90
f 84/165/108 66/110/108 69/160/108
f 84/165/108 80/111/108 66/110/108
f 85/30/123 60/19/123 57/18/123
f 85/30/123 91/32/123 60/19/123
f 85/30/145 88/54/145 89/64/145
f 85/30/91 89/64/91 91/32/91
f 86/104/146 90/105/146 89/64/146
f 86/104/92 89/64/92 88/54/92
f 87/106/121 90/105/121 97/118/121
f 87/106/121 97/118/121 93/119/121
f 87/106/147 91/32/147 89/64/147
f 87/106/93 89/64/93 90/105/93
f 90/105/122 86/104/122 94/117/122
f 90/105/122 94/117/122 97/118/122
f 91/32/124 58/107/124 60/56/124
f 91/32/124 87/106/124 58/107/124
f 92/188/119 109/169/119 106/187/119
f 92/188/119 98/174/119 109/169/119
f 92/188/148 95/186/148 96/155/148
f 92/188/94 96/155/94 98/174/94
f 93/119/129 58/107/129 87/106/129
f 93/119/129 64/120/129 58/107/129
f 93/119/149 97/118/149 96/155/149
f 93/119/95 96/155/95 95/186/95
f 94/117/150 98/174/150 96/155/150
f 94/117/96 96/155/96 97/118/96
f 98/174/120 107/116/120 109/169/120
f 98/174/120 94/117/120 107/116/120
f 99/29/117 105/49/117 88/54/117
f 99/29/117 88/54/117 85/30/117
f 99/29/127 57/18/127 71/17/127
f 99/29/127 85/30/127 57/18/127
f 99/29/151 102/31/151 103/62/151
f 99/29/97 103/62/97 105/49/97
g platform_trim_Cube.068
v 0.402800 0.300000 -0.417800
v 0.402800 0.307200 -0.425000
v 0.410000 0.307200 -0.417800
v 0.402800 0.302109 -0.422891
v 0.406957 0.303043 -0.421957
v 0.407891 0.307200 -0.422891
v 0.407891 0.302109 -0.417800
v 0.402800 0.372800 -0.425000
v 0.402800 0.380000 -0.417800
v 0.410000 0.372800 -0.417800
v 0.402800 0.377891 -0.422891
v 0.406957 0.376957 -0.421957
v 0.407891 0.377891 -0.417800
v 0.407891 0.372800 -0.422891
v 0.402800 0.300000 -0.392200
v 0.410000 0.307200 -0.392200
v 0.402800 0.307200 -0.385000
v 0.407891 0.302109 -0.392200
v 0.406957 0.303043 -0.388043
v 0.407891 0.307200 -0.387109
v 0.402800 0.302109 -0.387109
v 0.402800 0.380000 -0.392200
v 0.402800 0.372800 -0.385000
v 0.410000 0.372800 -0.392200
v 0.402800 0.377891 -0.387109
v 0.406957 0.376957 -0.388043
v 0.407891 0.372800 -0.387109
v 0.407891 0.377891 -0.392200
v -0.402800 0.300000 -0.417800
v -0.410000 0.307200 -0.417800
v -0.402800 0.307200 -0.425000
v -0.407891 0.302109 -0.417800
v -0.406957 0.303043 -0.421957
v -0.407891 0.307200 -0.422891
v -0.402800 0.302109 -0.422891
v -0.402800 0.380000 -0.417800
v -0.402800 0.372800 -0.425000
v -0.410000 0.372800 -0.417800
v -0.402800 0.377891 -0.422891
v -0.406957 0.376957 -0.421957
v -0.407891 0.372800 -0.422891
v -0.407891 0.377891 -0.417800
v -0.402800 0.300000 -0.392200
v -0.402800 0.307200 -0.385000
v -0.410000 0.307200 -0.392200
v -0.402800 0.302109 -0.387109
v -0.406957 0.303043 -0.388043
v -0.407891 0.307200 -0.387109
v -0.407891 0.302109 -0.392200
v -0.402800 0.380000 -0.392200
v -0.410000 0.372800 -0.392200
v -0.402800 0.372800 -0.385000
v -0.407891 0.377891 -0.392200
v -0.406957 0.376957 -0.388043
v -0.407891 0.372800 -0.387109
v -0.402800 0.377891 -0.387109
vn 0.3672 -0.8865 -0.2818
vn 0.2817 -0.3672 -0.8865
vn 0.8865 -0.2817 -0.3672
vn 0.3672 0.2817 -0.8865
vn 0.2817 0.8865 -0.3672
vn 0.8865 0.3672 -0.2818
vn 0.2817 -0.8865 0.3672
vn 0.8865 -0.3672 0.2818
vn 0.3672 -0.2817 0.8865
vn 0.3672 0.8865 0.2818
vn 0.2817 0.3672 0.8865
vn 0.8865 0.2817 0.3672
vn -0.2817 -0.8865 -0.3672
vn -0.8865 -0.3672 -0.2818
vn -0.3672 -0.2817 -0.8865
vn -0.3672 0.8865 -0.2818
vn -0.2817 0.3672 -0.8865
vn -0.8865 0.2817 -0.3672
vn -0.3672 -0.8865 0.2818
vn -0.2817 -0.3672 0.8865
vn -0.8865 -0.2817 0.3672
vn -0.2817 0.8865 0.3672
vn -0.8865 0.3672 0.2818
vn -0.3672 0.2817 0.8865
vn 0.3827 -0.9239 -0.0000
vn 0.9239 -0.3827 -0.0000
vn 0.3827 -0.0000 -0.9239
vn 0.9239 -0.0000 -0.3827
vn 0.3827 0.9239 -0.0000
vn 0.9239 0.3827 -0.0000
vn 0.3827 -0.0000 0.9239
vn 0.9239 -0.0000 0.3827
vn -0.0000 -0.9239 0.3827
vn -0.0000 -0.3827 0.9239
vn -0.0000 0.9239 0.3827
vn -0.0000 0.3827 0.9239
vn -0.9239 -0.0000 0.3827
vn -0.3827 -0.0000 0.9239
vn -0.3827 -0.9239 -0.0000
vn -0.9239 -0.3827 -0.0000
vn -0.3827 0.9239 -0.0000
vn -0.9239 0.3827 -0.0000
vn -0.3827 -0.0000 -0.9239
vn -0.9239 -0.0000 -0.3827
vn -0.0000 -0.9239 -0.3827
vn -0.0000 -0.3827 -0.9239
vn -0.0000 0.9239 -0.3827
vn -0.0000 0.3827 -0.9239
vn -0.0000 -1.0000 -0.0000
vn 1.0000 -0.0000 -0.0000
vn -0.0000 -0.0000 -1.0000
vn -0.0000 1.0000 -0.0000
vn -0.0000 -0.0000 1.0000
vn -1.0000 -0.0000 -0.0000
vn 0.2817 -0.8865 -0.3672
vn 0.3672 -0.2817 -0.8865
vn 0.8865 -0.3672 -0.2818
vn 0.2817 0.3672 -0.8865
vn 0.3672 0.8865 -0.2818
vn 0.8865 0.2817 -0.3672
vn 0.3672 -0.8865 0.2818
vn 0.8865 -0.2817 0.3672
vn 0.2817 -0.3672 0.8865
vn 0.2817 0.8865 0.3672
vn 0.3672 0.2817 0.8865
vn 0.8865 0.3672 0.2818
vn -0.3672 -0.8865 -0.2818
vn -0.8865 -0.2817 -0.3672
vn -0.2817 -0.3672 -0.8865
vn -0.2817 0.8865 -0.3672
vn -0.3672 0.2817 -0.8865
vn -0.8865 0.3672 -0.2818
vn -0.2817 -0.8865 0.3672
vn -0.3672 -0.2817 0.8865
vn -0.8865 -0.3672 0.2818
vn -0.3672 0.8865 0.2818
vn -0.8865 0.2817 0.3672
vn -0.2817 0.3672 0.8865
s 0
g platform_trim_M_gold
usemtl M_gold
f 113/13/157 117/10/157 119/7/157
f 113/13/181 119/7/181 130/6/181
f 113/13/181 130/6/181 127/12/181
f 113/13/211 116/14/211 117/10/211
f 114/81/158 117/67/158 116/57/158
f 114/81/212 118/82/212 117/67/212
f 115/71/159 117/41/159 118/70/159
f 115/71/213 119/42/213 117/41/213
f 119/42/182 115/71/182 128/72/182
f 119/42/182 128/72/182 130/43/182
f 120/146/160 124/180/160 126/147/160
f 120/146/183 118/82/183 114/81/183
f 120/146/183 126/147/183 118/82/183
f 120/146/214 123/179/214 124/180/214
f 121/205/161 124/212/161 123/206/161
f 121/205/203 123/206/203 151/182/203
f 121/205/203 151/182/203 148/184/203
f 121/205/215 125/211/215 124/212/215
f 122/136/162 124/150/162 125/162/162
f 122/136/206 128/72/206 115/71/206
f 122/136/206 136/137/206 128/72/206
f 122/136/216 126/135/216 124/150/216
f 123/179/204 120/146/204 149/145/204
f 123/179/204 149/145/204 151/182/204
f 126/135/184 115/71/184 118/70/184
f 126/135/184 122/136/184 115/71/184
f 127/12/163 131/5/163 133/11/163
f 127/12/189 133/11/189 158/35/189
f 127/12/189 158/35/189 155/33/189
f 127/12/217 130/6/217 131/5/217
f 128/72/164 131/61/164 130/43/164
f 128/72/218 132/73/218 131/61/218
f 129/74/165 131/61/165 132/73/165
f 129/74/187 132/73/187 139/138/187
f 129/74/187 139/138/187 135/139/187
f 129/74/219 133/46/219 131/61/219
f 132/73/188 128/72/188 136/137/188
f 132/73/188 136/137/188 139/138/188
f 133/46/190 129/74/190 156/75/190
f 133/46/190 156/75/190 158/35/190
f 134/204/166 138/207/166 140/210/166
f 134/204/185 125/211/185 121/205/185
f 134/204/185 140/210/185 125/211/185
f 134/204/208 121/205/208 148/184/208
f 134/204/208 148/184/208 162/183/208
f 134/204/220 137/203/220 138/207/220
f 135/139/167 138/156/167 137/166/167
f 135/139/209 156/75/209 129/74/209
f 135/139/209 164/140/209 156/75/209
f 135/139/221 139/138/221 138/156/221
f 136/137/168 138/156/168 139/138/168
f 136/137/222 140/163/222 138/156/222
f 140/163/186 122/136/186 125/162/186
f 140/163/186 136/137/186 122/136/186
f 141/34/169 145/59/169 147/36/169
f 141/34/201 116/14/201 113/13/201
f 141/34/201 147/36/201 116/14/201
f 141/34/223 144/52/223 145/59/223
f 142/78/170 145/59/170 144/52/170
f 142/78/224 146/79/224 145/59/224
f 143/80/171 145/59/171 146/79/171
f 143/80/199 146/79/199 153/144/199
f 143/80/199 153/144/199 149/145/199
f 143/80/225 147/36/225 145/59/225
f 146/79/200 142/78/200 150/143/200
f 146/79/200 150/143/200 153/144/200
f 147/36/202 114/81/202 116/57/202
f 147/36/202 143/80/202 114/81/202
f 148/184/172 152/159/172 154/172/172
f 148/184/197 154/172/197 165/171/197
f 148/184/197 165/171/197 162/183/197
f 148/184/226 151/182/226 152/159/226
f 149/145/173 152/159/173 151/182/173
f 149/145/207 114/81/207 143/80/207
f 149/145/207 120/146/207 114/81/207
f 149/145/227 153/144/227 152/159/227
f 150/143/174 152/159/174 153/144/174
f 150/143/228 154/172/228 152/159/228
f 154/172/198 150/143/198 163/142/198
f 154/172/198 163/142/198 165/171/198
f 155/33/175 159/58/175 161/51/175
f 155/33/195 144/52/195 141/34/195
f 155/33/195 161/51/195 144/52/195
f 155/33/205 113/13/205 127/12/205
f 155/33/205 141/34/205 113/13/205
f 155/33/229 158/35/229 159/58/229
f 156/75/176 159/58/176 158/35/176
f 156/75/230 160/76/230 159/58/230
f 157/77/177 159/58/177 160/76/177
f 157/77/193 160/76/193 167/141/193
f 157/77/193 167/141/193 163/142/193
f 157/77/231 161/51/231 159/58/231
f 160/76/194 156/75/194 164/140/194
f 160/76/194 164/140/194 167/141/194
f 161/51/196 142/78/196 144/52/196
f 161/51/196 157/77/196 142/78/196
f 162/183/178 166/158/178 168/181/178
f 162/183/191 137/203/191 134/204/191
f 162/183/191 168/181/191 137/203/191
f 162/183/232 165/171/232 166/158/232
f 163/142/179 166/158/179 165/171/179
f 163/142/210 142/78/210 157/77/210
f 163/142/210 150/143/210 142/78/210
f 163/142/233 167/141/233 166/158/233
f 164/140/180 166/158/180 167/141/180
f 164/140/234 168/181/234 166/158/234
f 168/181/192 135/139/192 137/166/192
f 168/181/192 164/140/192 135/139/192
