# Blender 5.2.0 LTS
# www.blender.org
mtllib spike_hazard.mtl
g spike_base_Cube.071
v 0.453400 0.000000 -0.338400
v 0.453400 0.021600 -0.360000
v 0.475000 0.021600 -0.338400
v 0.453400 0.006327 -0.353674
v 0.465871 0.009129 -0.350871
v 0.468673 0.021600 -0.353674
v 0.468673 0.006326 -0.338400
v 0.453400 0.098400 -0.360000
v 0.453400 0.120000 -0.338400
v 0.475000 0.098400 -0.338400
v 0.453400 0.113674 -0.353674
v 0.465871 0.110871 -0.350871
v 0.468673 0.113673 -0.338400
v 0.468673 0.098400 -0.353674
v 0.453400 0.000000 0.338400
v 0.475000 0.021600 0.338400
v 0.453400 0.021600 0.360000
v 0.468673 0.006327 0.338400
v 0.465871 0.009129 0.350871
v 0.468673 0.021600 0.353674
v 0.453400 0.006326 0.353674
v 0.453400 0.120000 0.338400
v 0.453400 0.098400 0.360000
v 0.475000 0.098400 0.338400
v 0.453400 0.113673 0.353674
v 0.465871 0.110871 0.350871
v 0.468673 0.098400 0.353674
v 0.468673 0.113674 0.338400
v -0.453400 0.000000 -0.338400
v -0.475000 0.021600 -0.338400
v -0.453400 0.021600 -0.360000
v -0.468673 0.006327 -0.338400
v -0.465871 0.009129 -0.350871
v -0.468673 0.021600 -0.353674
v -0.453400 0.006326 -0.353674
v -0.453400 0.120000 -0.338400
v -0.453400 0.098400 -0.360000
v -0.475000 0.098400 -0.338400
v -0.453400 0.113673 -0.353674
v -0.465871 0.110871 -0.350871
v -0.468673 0.098400 -0.353674
v -0.468673 0.113674 -0.338400
v -0.453400 0.000000 0.338400
v -0.453400 0.021600 0.360000
v -0.475000 0.021600 0.338400
v -0.453400 0.006327 0.353674
v -0.465871 0.009129 0.350871
v -0.468673 0.021600 0.353674
v -0.468673 0.006326 0.338400
v -0.453400 0.120000 0.338400
v -0.475000 0.098400 0.338400
v -0.453400 0.098400 0.360000
v -0.468673 0.113673 0.338400
v -0.465871 0.110871 0.350871
v -0.468673 0.098400 0.353674
v -0.453400 0.113674 0.353674
vn 0.3672 -0.8865 -0.2817
vn 0.2817 -0.3672 -0.8865
vn 0.8865 -0.2817 -0.3672
vn 0.3672 0.2817 -0.8865
vn 0.2817 0.8865 -0.3672
vn 0.8865 0.3672 -0.2817
vn 0.2817 -0.8865 0.3672
vn 0.8865 -0.3672 0.2817
vn 0.3672 -0.2817 0.8865
vn 0.3672 0.8865 0.2817
vn 0.2817 0.3672 0.8865
vn 0.8865 0.2817 0.3672
vn -0.2817 -0.8865 -0.3672
vn -0.8865 -0.3672 -0.2817
vn -0.3672 -0.2817 -0.8865
vn -0.3672 0.8865 -0.2817
vn -0.2817 0.3672 -0.8865
vn -0.8865 0.2817 -0.3672
vn -0.3672 -0.8865 0.2817
vn -0.2817 -0.3672 0.8865
vn -0.8865 -0.2817 0.3672
vn -0.2817 0.8865 0.3672
vn -0.8865 0.3672 0.2817
vn -0.3672 0.2817 0.8865
vn 0.3827 -0.9239 -0.0000
vn 0.9239 -0.3827 -0.0000
vn 0.3827 -0.0000 -0.9239
vn 0.9239 -0.0000 -0.3827
vn 0.3827 0.9239 -0.0000
vn 0.9239 0.3827 -0.0000
vn 0.3827 -0.0000 0.9239
vn 0.9239 -0.0000 0.3827
vn -0.0000 -0.9239 0.3827
vn -0.0000 -0.3827 0.9239
vn -0.0000 0.9239 0.3827
vn -0.0000 0.3827 0.9239
vn -0.9239 -0.0000 0.3827
vn -0.3827 -0.0000 0.9239
vn -0.3827 -0.9239 -0.0000
vn -0.9239 -0.3827 -0.0000
vn -0.3827 0.9239 -0.0000
vn -0.9239 0.3827 -0.0000
vn -0.3827 -0.0000 -0.9239
vn -0.9239 -0.0000 -0.3827
vn -0.0000 -0.9239 -0.3827
vn -0.0000 -0.3827 -0.9239
vn -0.0000 0.9239 -0.3827
vn -0.0000 0.3827 -0.9239
vn -0.0000 -1.0000 -0.0000
vn 1.0000 -0.0000 -0.0000
vn -0.0000 -0.0000 -1.0000
vn -0.0000 1.0000 -0.0000
vn -0.0000 -0.0000 1.0000
vn -1.0000 -0.0000 -0.0000
vn 0.2817 -0.8865 -0.3672
vn 0.3672 -0.2817 -0.8865
vn 0.8865 -0.3672 -0.2817
vn 0.2817 0.3672 -0.8865
vn 0.3672 0.8865 -0.2817
vn 0.8865 0.2817 -0.3672
vn 0.3672 -0.8865 0.2817
vn 0.8865 -0.2817 0.3672
vn 0.2817 -0.3672 0.8865
vn 0.2817 0.8865 0.3672
vn 0.3672 0.2817 0.8865
vn 0.8865 0.3672 0.2817
vn -0.3672 -0.8865 -0.2817
vn -0.8865 -0.2817 -0.3672
vn -0.2817 -0.3672 -0.8865
vn -0.2817 0.8865 -0.3672
vn -0.3672 0.2817 -0.8865
vn -0.8865 0.3672 -0.2817
vn -0.2817 -0.8865 0.3672
vn -0.3672 -0.2817 0.8865
vn -0.8865 -0.3672 0.2817
vn -0.3672 0.8865 0.2817
vn -0.8865 0.2817 0.3672
vn -0.2817 0.3672 0.8865
vt 0.01000 0.25000
vt 0.08029 0.08029
vt 0.08029 0.41971
vt 0.12500 0.50317
vt 0.12500 0.50750
vt 0.12500 0.74250
vt 0.12740 0.75000
vt 0.13068 0.50000
vt 0.13068 0.50750
vt 0.13068 0.74250
vt 0.13068 0.75000
vt 0.25000 0.01000
vt 0.25000 0.25000
vt 0.25000 0.49000
vt 0.36932 0.50750
vt 0.36932 0.74250
vt 0.37216 0.49716
vt 0.37216 0.75284
vt 0.37500 0.00317
vt 0.37500 0.00750
vt 0.37500 0.24250
vt 0.37500 0.25568
vt 0.37500 0.50750
vt 0.37500 0.74250
vt 0.37500 0.99432
vt 0.38054 0.50106
vt 0.38134 0.74974
vt 0.38451 0.25120
vt 0.39402 1.00000
vt 0.41971 0.08029
vt 0.41971 0.41971
vt 0.42000 0.00000
vt 0.42000 0.00750
vt 0.42000 0.24250
vt 0.42000 0.25000
vt 0.42000 0.25568
vt 0.42000 0.49432
vt 0.42000 0.50000
vt 0.42000 0.50750
vt 0.42000 0.74250
vt 0.42000 0.75000
vt 0.42000 0.75568
vt 0.42000 0.99432
vt 0.42000 1.00000
vt 0.49000 0.25000
vt 0.51000 0.25000
vt 0.58000 0.00000
vt 0.58000 0.00750
vt 0.58000 0.24250
vt 0.58000 0.25000
vt 0.58000 0.25568
vt 0.58000 0.49432
vt 0.58000 0.50000
vt 0.58000 0.50750
vt 0.58000 0.74250
vt 0.58000 0.75000
vt 0.58000 0.75568
vt 0.58000 0.99432
vt 0.58000 1.00000
vt 0.58029 0.08029
vt 0.58029 0.41971
vt 0.60598 0.00000
vt 0.61549 0.24841
vt 0.61866 0.50026
vt 0.61946 0.74894
vt 0.62500 0.00750
vt 0.62500 0.24250
vt 0.62500 0.25568
vt 0.62500 0.50750
vt 0.62500 0.74250
vt 0.62500 0.99432
vt 0.62500 0.99760
vt 0.62784 0.49716
vt 0.62784 0.75284
vt 0.63068 0.50750
vt 0.63068 0.74250
vt 0.75000 0.01000
vt 0.75000 0.49000
vt 0.86932 0.50000
vt 0.86932 0.50750
vt 0.86932 0.74250
vt 0.86932 0.75000
vt 0.87260 0.50000
vt 0.87500 0.50750
vt 0.87500 0.74250
vt 0.87500 0.74683
vt 0.91971 0.08029
vt 0.91971 0.41971
vt 0.99000 0.25000
s 0
g spike_base_M_gunmetal
usemtl M_gunmetal
f 1/10/1 5/7/1 7/6/1
f 1/10/25 18/5/25 15/9/25
f 1/10/25 7/6/25 18/5/25
f 1/10/55 4/11/55 5/7/55
f 10/48/50 16/34/50 3/33/50
f 10/48/50 24/49/50 16/34/50
f 10/48/6 12/62/6 13/66/6
f 10/48/60 14/47/60 12/62/60
f 11/71/48 37/57/48 39/74/48
f 11/71/48 8/58/48 37/57/48
f 15/9/33 21/8/33 46/17/33
f 15/9/33 46/17/33 43/15/33
f 15/9/61 18/5/61 19/4/61
f 15/9/7 19/4/7 21/8/7
f 16/34/62 20/35/62 19/28/62
f 16/34/8 19/28/8 18/21/8
f 17/36/31 20/35/31 27/50/31
f 17/36/31 27/50/31 23/51/31
f 17/36/53 23/51/53 52/52/53
f 17/36/53 52/52/53 44/37/53
f 17/36/63 21/22/63 19/28/63
f 17/36/9 19/28/9 20/35/9
f 2/43/2 5/29/2 4/25/2
f 2/43/56 6/44/56 5/29/56
f 21/22/34 17/36/34 44/37/34
f 21/22/34 44/37/34 46/17/34
f 22/80/10 26/83/10 28/84/10
f 22/80/29 13/85/29 9/81/29
f 22/80/29 28/84/29 13/85/29
f 22/80/52 36/76/52 50/75/52
f 22/80/52 9/81/52 36/76/52
f 22/80/64 25/79/64 26/83/64
f 23/51/11 26/63/11 25/68/11
f 23/51/65 27/50/65 26/63/65
f 24/49/12 26/63/12 27/50/12
f 24/49/66 28/67/66 26/63/66
f 27/50/32 16/34/32 24/49/32
f 27/50/32 20/35/32 16/34/32
f 28/67/30 10/48/30 13/66/30
f 28/67/30 24/49/30 10/48/30
f 29/16/13 33/27/13 35/18/13
f 29/16/45 35/18/45 4/11/45
f 29/16/45 4/11/45 1/10/45
f 29/16/67 32/24/67 33/27/67
f 3/33/3 5/19/3 6/32/3
f 3/33/57 7/20/57 5/19/57
f 30/40/14 33/27/14 32/24/14
f 30/40/68 34/41/68 33/27/68
f 31/42/15 33/27/15 34/41/15
f 31/42/43 34/41/43 41/56/43
f 31/42/43 41/56/43 37/57/43
f 31/42/51 37/57/51 8/58/51
f 31/42/51 8/58/51 2/43/51
f 31/42/69 35/18/69 33/27/69
f 35/18/46 2/43/46 4/25/46
f 35/18/46 31/42/46 2/43/46
f 36/76/16 40/65/16 42/70/16
f 36/76/41 42/70/41 53/69/41
f 36/76/41 53/69/41 50/75/41
f 36/76/70 39/74/70 40/65/70
f 37/57/17 40/65/17 39/74/17
f 37/57/71 41/56/71 40/65/71
f 38/55/18 40/65/18 41/56/18
f 38/55/72 42/70/72 40/65/72
f 41/56/44 30/40/44 38/55/44
f 41/56/44 34/41/44 30/40/44
f 42/70/42 38/55/42 51/54/42
f 42/70/42 51/54/42 53/69/42
f 43/15/19 47/26/19 49/23/19
f 43/15/39 32/24/39 29/16/39
f 43/15/39 49/23/39 32/24/39
f 43/15/49 1/10/49 15/9/49
f 43/15/49 29/16/49 1/10/49
f 43/15/73 46/17/73 47/26/73
f 44/37/20 47/26/20 46/17/20
f 44/37/74 48/38/74 47/26/74
f 45/39/21 47/26/21 48/38/21
f 45/39/75 49/23/75 47/26/75
f 48/38/38 44/37/38 52/52/38
f 48/38/38 52/52/38 55/53/38
f 49/23/40 30/40/40 32/24/40
f 49/23/40 45/39/40 30/40/40
f 50/75/22 54/64/22 56/73/22
f 50/75/35 25/79/35 22/80/35
f 50/75/35 56/73/35 25/79/35
f 50/75/76 53/69/76 54/64/76
f 51/54/23 54/64/23 53/69/23
f 51/54/37 45/39/37 48/38/37
f 51/54/37 48/38/37 55/53/37
f 51/54/54 30/40/54 45/39/54
f 51/54/54 38/55/54 30/40/54
f 51/54/77 55/53/77 54/64/77
f 52/52/24 54/64/24 55/53/24
f 52/52/78 56/73/78 54/64/78
f 56/73/36 23/51/36 25/68/36
f 56/73/36 52/52/36 23/51/36
f 6/32/28 10/48/28 3/33/28
f 6/32/28 14/47/28 10/48/28
f 7/20/26 16/34/26 18/21/26
f 7/20/26 3/33/26 16/34/26
f 8/58/27 14/59/27 6/44/27
f 8/58/27 6/44/27 2/43/27
f 8/58/4 12/72/4 14/59/4
f 8/58/58 11/71/58 12/72/58
f 9/81/47 11/82/47 39/74/47
f 9/81/47 39/74/47 36/76/47
f 9/81/5 12/86/5 11/82/5
f 9/81/59 13/85/59 12/86/59
g spike_-0.32_Cone.005
v 0.320000 0.120000 0.105000
v 0.245754 0.120000 0.074246
v 0.215000 0.120000 0.000000
v 0.245754 0.120000 -0.074246
v 0.320000 0.120000 -0.105000
v 0.394246 0.120000 -0.074246
v 0.425000 0.120000 0.000000
v 0.394246 0.120000 0.074246
v 0.320000 0.620000 0.000000
vn -0.3757 0.1905 0.9070
vn -0.9070 0.1905 0.3757
vn -0.9070 0.1905 -0.3757
vn -0.3757 0.1905 -0.9070
vn 0.3757 0.1905 -0.9070
vn 0.9070 0.1905 -0.3757
vn -0.0000 -1.0000 -0.0000
vn 0.9070 0.1905 0.3757
vn 0.3757 0.1905 0.9070
s 0
g spike_-0.32_M_red
usemtl M_red
f 57/14/79 65/13/79 58/31/79
f 58/31/80 65/13/80 59/45/80
f 58/88/85 59/89/85 60/87/85
f 59/45/81 65/13/81 60/30/81
f 60/30/82 65/13/82 61/12/82
f 60/87/85 61/77/85 62/60/85
f 60/87/85 62/60/85 64/61/85
f 61/12/83 65/13/83 62/2/83
f 62/2/84 65/13/84 63/1/84
f 62/60/85 63/46/85 64/61/85
f 63/1/86 65/13/86 64/3/86
f 64/3/87 65/13/87 57/14/87
f 64/61/85 57/78/85 58/88/85
f 64/61/85 58/88/85 60/87/85
g spike_-0.105_Cone.006
v 0.105000 0.120000 0.105000
v 0.030754 0.120000 0.074246
v 0.000000 0.120000 0.000000
v 0.030754 0.120000 -0.074246
v 0.105000 0.120000 -0.105000
v 0.179246 0.120000 -0.074246
v 0.210000 0.120000 0.000000
v 0.179246 0.120000 0.074246
v 0.105000 0.620000 0.000000
vn -0.3757 0.1905 0.9070
vn -0.9070 0.1905 0.3757
vn -0.9070 0.1905 -0.3757
vn -0.3757 0.1905 -0.9070
vn 0.3757 0.1905 -0.9070
vn 0.9070 0.1905 -0.3757
vn -0.0000 -1.0000 -0.0000
vn 0.9070 0.1905 0.3757
vn 0.3757 0.1905 0.9070
s 0
g spike_-0.105_M_red
usemtl M_red
f 66/14/88 74/13/88 67/31/88
f 67/31/89 74/13/89 68/45/89
f 67/88/94 68/89/94 69/87/94
f 68/45/90 74/13/90 69/30/90
f 69/30/91 74/13/91 70/12/91
f 69/87/94 70/77/94 71/60/94
f 69/87/94 71/60/94 73/61/94
f 70/12/92 74/13/92 71/2/92
f 71/2/93 74/13/93 72/1/93
f 71/60/94 72/46/94 73/61/94
f 72/1/95 74/13/95 73/3/95
f 73/3/96 74/13/96 66/14/96
f 73/61/94 66/78/94 67/88/94
f 73/61/94 67/88/94 69/87/94
g spike_0.105_Cone.007
v -0.105000 0.120000 0.105000
v -0.179246 0.120000 0.074246
v -0.210000 0.120000 0.000000
v -0.179246 0.120000 -0.074246
v -0.105000 0.120000 -0.105000
v -0.030754 0.120000 -0.074246
v 0.000000 0.120000 0.000000
v -0.030754 0.120000 0.074246
v -0.105000 0.620000 0.000000
vn -0.3757 0.1905 0.9070
vn -0.9070 0.1905 0.3757
vn -0.9070 0.1905 -0.3757
vn -0.3757 0.1905 -0.9070
vn 0.3757 0.1905 -0.9070
vn 0.9070 0.1905 -0.3757
vn -0.0000 -1.0000 -0.0000
vn 0.9070 0.1905 0.3757
vn 0.3757 0.1905 0.9070
s 0
g spike_0.105_M_red
usemtl M_red
f 75/14/97 83/13/97 76/31/97
f 76/31/98 83/13/98 77/45/98
f 76/88/103 77/89/103 78/87/103
f 77/45/99 83/13/99 78/30/99
f 78/30/100 83/13/100 79/12/100
f 78/87/103 79/77/103 80/60/103
f 78/87/103 80/60/103 82/61/103
f 79/12/101 83/13/101 80/2/101
f 80/2/102 83/13/102 81/1/102
f 80/60/103 81/46/103 82/61/103
f 81/1/104 83/13/104 82/3/104
f 82/3/105 83/13/105 75/14/105
f 82/61/103 75/78/103 76/88/103
f 82/61/103 76/88/103 78/87/103
g spike_0.32_Cone.008
v -0.320000 0.120000 0.105000
v -0.394246 0.120000 0.074246
v -0.425000 0.120000 0.000000
v -0.394246 0.120000 -0.074246
v -0.320000 0.120000 -0.105000
v -0.245754 0.120000 -0.074246
v -0.215000 0.120000 0.000000
v -0.245754 0.120000 0.074246
v -0.320000 0.620000 0.000000
vn -0.3757 0.1905 0.9070
vn -0.9070 0.1905 0.3757
vn -0.9070 0.1905 -0.3757
vn -0.3757 0.1905 -0.9070
vn 0.3757 0.1905 -0.9070
vn 0.9070 0.1905 -0.3757
vn -0.0000 -1.0000 -0.0000
vn 0.9070 0.1905 0.3757
vn 0.3757 0.1905 0.9070
s 0
g spike_0.32_M_red
usemtl M_red
f 84/14/106 92/13/106 85/31/106
f 85/31/107 92/13/107 86/45/107
f 85/88/112 86/89/112 87/87/112
f 86/45/108 92/13/108 87/30/108
f 87/30/109 92/13/109 88/12/109
f 87/87/112 88/77/112 89/60/112
f 87/87/112 89/60/112 91/61/112
f 88/12/110 92/13/110 89/2/110
f 89/2/111 92/13/111 90/1/111
f 89/60/112 90/46/112 91/61/112
f 90/1/113 92/13/113 91/3/113
f 91/3/114 92/13/114 84/14/114
f 91/61/112 84/78/112 85/88/112
f 91/61/112 85/88/112 87/87/112
