# Blender 4.0.2
# www.blender.org
mtllib bridge_segment_lod1.mtl
o bridge_segment_lod1
v 2.970000 0.000000 -1.170000
v 2.985510 0.025245 -1.191962
v 2.988462 0.483846 -1.183846
v 2.988462 0.016154 1.183846
v 2.970000 0.500000 1.170000
v 2.985510 0.474755 1.191962
v 2.011539 0.016154 -1.183846
v 2.030000 0.500000 -1.170000
v 2.014491 0.474755 -1.191962
v 2.030000 0.000000 1.170000
v 2.014491 0.025245 1.191962
v 2.011539 0.483846 1.183846
v 2.904689 0.530000 -1.105094
v 2.921929 0.509310 -1.081200
v 2.923380 0.943846 -1.089206
v 2.965775 0.530000 1.064254
v 2.943971 0.512353 1.082215
v 2.935778 0.960000 1.064684
v 2.951601 0.934755 1.086421
v 2.055206 0.530000 -1.062919
v 2.078325 0.513065 -1.081801
v 2.085203 0.960000 -1.063349
v 2.069380 0.934755 -1.085087
v 2.115862 0.500000 1.076432
v 2.100108 0.526393 1.098299
v 2.085865 0.930000 1.076861
v 2.109516 0.946936 1.095073
v 2.688517 0.960000 -0.922135
v 2.704298 0.985245 -0.943903
v 2.707149 1.083846 -0.935751
v 2.683968 0.976154 0.931798
v 2.665680 1.100000 0.917723
v 2.680916 1.074755 0.939877
v 2.230263 0.976154 -0.941670
v 2.248551 1.100000 -0.927596
v 2.233315 1.074755 -0.949749
v 2.225714 0.960000 0.912262
v 2.209933 0.985245 0.934031
v 2.207082 1.083846 0.925879
v 2.880054 0.010769 0.371968
v 2.882613 0.089231 0.375488
v 2.791910 0.008333 0.945885
v 2.788098 0.091667 0.948658
v 2.108090 0.008333 0.254115
v 2.111903 0.091667 0.251342
v 2.019947 0.010769 0.828032
v 2.017387 0.089231 0.824513
v -2.030000 0.000000 -1.170000
v -2.014491 0.025245 -1.191962
v -2.011539 0.483846 -1.183846
v -2.011539 0.016154 1.183846
v -2.030000 0.500000 1.170000
v -2.014491 0.474755 1.191962
v -2.988462 0.016154 -1.183846
v -2.970000 0.500000 -1.170000
v -2.985510 0.474755 -1.191962
v -2.970000 0.000000 1.170000
v -2.985510 0.025245 1.191962
v -2.988462 0.483846 1.183846
v -2.081261 0.530000 -1.067201
v -2.064770 0.509310 -1.042785
v -2.063071 0.943846 -1.050742
v -2.099236 0.516154 1.116649
v -2.117464 0.960000 1.102497
v -2.102323 0.934755 1.124715
v -2.919876 0.516154 -1.065038
v -2.901647 0.960000 -1.050886
v -2.916789 0.934755 -1.073104
v -2.937350 0.500000 1.088817
v -2.953774 0.526393 1.110185
v -2.967345 0.930000 1.088316
v -2.944271 0.946936 1.107252
v -2.206812 0.960000 -0.922080
v -2.190892 0.985245 -0.943746
v -2.199851 1.086936 -0.940501
v -2.176817 1.070000 -0.921515
v -2.223277 0.976154 0.931785
v -2.241475 1.100000 0.917593
v -2.225820 1.073606 0.939532
v -2.664932 0.976154 -0.944560
v -2.646734 1.100000 -0.930369
v -2.661827 1.074755 -0.952619
v -2.681397 0.960000 0.909305
v -2.697317 0.985245 0.930971
v -2.711391 1.070000 0.908739
v -2.688358 1.086936 0.927725
v -2.108243 0.010769 -0.946621
v -2.104745 0.089231 -0.944033
v -2.020022 0.008333 -0.372716
v -2.022826 0.091667 -0.368927
v -2.879978 0.008333 -0.827284
v -2.877174 0.091667 -0.831073
v -2.791758 0.010769 -0.253379
v -2.795255 0.089231 -0.255967
v 2.797403 0.507073 0.208111
v 2.809879 0.532927 0.221513
v 2.786067 0.509776 0.892123
v 2.773412 0.530224 0.903905
v 2.453933 0.509776 0.207877
v 2.466588 0.530224 0.196095
v 2.442597 0.507073 0.891889
v 2.430121 0.532927 0.878487
v 0.220000 0.000000 -0.970000
v 0.235509 0.025245 -0.991962
v 0.238462 0.183846 -0.983846
v 0.238462 0.016154 0.983846
v 0.220000 0.200000 0.970000
v 0.235509 0.174755 0.991962
v -0.238462 0.016154 -0.983846
v -0.220000 0.200000 -0.970000
v -0.235509 0.174755 -0.991962
v -0.220000 0.000000 0.970000
v -0.235509 0.025245 0.991962
v -0.238462 0.183846 0.983846
v 0.060000 0.200000 -0.860000
v 0.075509 0.225245 -0.881962
v 0.078462 0.963846 -0.873846
v 0.078462 0.216154 -0.726154
v 0.060000 0.980000 -0.740000
v 0.075509 0.954755 -0.718038
v -0.078462 0.216154 -0.873846
v -0.060000 0.980000 -0.860000
v -0.075509 0.954755 -0.881962
v -0.060000 0.200000 -0.740000
v -0.075509 0.225245 -0.718038
v -0.078462 0.963846 -0.726154
v 0.060000 0.200000 0.740000
v 0.075509 0.225245 0.718038
v 0.078462 0.963846 0.726154
v 0.078462 0.216154 0.873846
v 0.060000 0.980000 0.860000
v 0.075509 0.954755 0.881962
v -0.078462 0.216154 0.726154
v -0.060000 0.980000 0.740000
v -0.075509 0.954755 0.718038
v -0.060000 0.200000 0.860000
v -0.075509 0.225245 0.881962
v -0.078462 0.963846 0.873846
v 0.040909 0.229513 -0.816309
v 0.040000 0.324317 -0.850889
v 0.040000 0.855683 0.850889
v 0.040909 0.950487 0.816309
v -0.042308 0.231674 -0.815327
v -0.038333 0.325292 -0.853035
v -0.038333 0.854708 0.853035
v -0.042308 0.948326 0.815327
v 2.920000 0.980000 -0.870000
v 2.935510 1.005245 -0.891962
v 2.926613 1.226936 -0.888548
v 2.950000 1.210000 -0.870000
v 2.950000 1.010000 -0.730000
v 2.926613 0.993065 -0.711452
v 2.920000 1.240000 -0.730000
v 2.935509 1.214755 -0.708038
v -2.950000 1.010000 -0.870000
v -2.926613 0.993065 -0.888548
v -2.920000 1.240000 -0.870000
v -2.935510 1.214755 -0.891962
v -2.920000 0.980000 -0.730000
v -2.935509 1.005245 -0.708038
v -2.950000 1.210000 -0.730000
v -2.926613 1.226936 -0.711452
v 2.920000 0.980000 0.730000
v 2.935509 1.005245 0.708038
v 2.926613 1.226936 0.711452
v 2.950000 1.210000 0.730000
v 2.950000 1.010000 0.870000
v 2.926613 0.993065 0.888548
v 2.920000 1.240000 0.870000
v 2.935510 1.214755 0.891962
v -2.950000 1.010000 0.730000
v -2.926613 0.993065 0.711452
v -2.920000 1.240000 0.730000
v -2.935509 1.214755 0.708038
v -2.920000 0.980000 0.870000
v -2.935510 1.005245 0.891962
v -2.950000 1.210000 0.870000
v -2.926613 1.226936 0.888548
v 2.961563 1.243507 -1.077926
v 2.964661 1.301968 -1.074871
v 2.979296 1.241071 1.102644
v 2.975986 1.304404 1.106001
v 2.520704 1.241071 -1.070859
v 2.524014 1.304404 -1.074216
v 2.538437 1.243506 1.109711
v 2.535339 1.301968 1.106656
v 2.462645 1.241974 -1.074270
v 2.466632 1.302871 -1.071854
v 2.477978 1.244410 1.106578
v 2.474016 1.305307 1.109034
v 2.022023 1.244410 -1.069539
v 2.025984 1.305307 -1.071995
v 2.037355 1.241974 1.111308
v 2.033368 1.302871 1.108893
v 1.983711 1.243111 -1.072741
v 1.987650 1.304008 -1.070249
v 1.956921 1.245547 1.107996
v 1.952913 1.306444 1.110375
v 1.543079 1.245547 -1.076521
v 1.547088 1.306444 -1.078901
v 1.516289 1.243111 1.104216
v 1.512350 1.304008 1.101724
v 1.464244 1.243521 -1.111526
v 1.468228 1.304419 -1.109105
v 1.476385 1.245957 1.069341
v 1.472419 1.306855 1.071792
v 1.023616 1.245957 -1.107440
v 1.027581 1.306855 -1.109891
v 1.035756 1.243521 1.073427
v 1.031772 1.304419 1.071006
v 0.988757 1.251318 -1.063298
v 0.992027 1.314652 -1.059903
v 0.951852 1.253754 1.117291
v 0.948718 1.312216 1.120310
v 0.548148 1.253754 -1.069122
v 0.551282 1.312216 -1.072141
v 0.511243 1.251318 1.111467
v 0.507973 1.314652 1.108072
v 0.463055 1.243262 -1.071989
v 0.467041 1.304160 -1.069573
v 0.477569 1.245698 1.108864
v 0.473607 1.306596 1.111319
v 0.022431 1.245698 -1.067424
v 0.026393 1.306596 -1.069879
v 0.036945 1.243262 1.113429
v 0.032959 1.304160 1.111012
v -0.035360 1.238582 -1.108191
v -0.031377 1.299480 -1.105769
v -0.024010 1.241018 1.072681
v -0.027976 1.301916 1.075130
v -0.475990 1.241018 -1.104265
v -0.472024 1.301916 -1.106714
v -0.464640 1.238582 1.076607
v -0.468623 1.299480 1.074184
v -0.538877 1.246047 -1.104895
v -0.534887 1.306945 -1.102485
v -0.520508 1.248483 1.075929
v -0.524466 1.309381 1.078391
v -0.979492 1.248483 -1.099550
v -0.975534 1.309381 -1.102012
v -0.961123 1.246047 1.081274
v -0.965113 1.306945 1.078864
v -1.037506 1.252185 -1.083584
v -1.033518 1.313082 -1.081169
v -1.021873 1.254621 1.097262
v -1.025834 1.315518 1.099719
v -1.478127 1.254621 -1.078792
v -1.474166 1.315518 -1.081249
v -1.462494 1.252185 1.102053
v -1.466482 1.313082 1.099638
v -1.536987 1.255112 -1.077975
v -1.533001 1.316010 -1.075558
v -1.522389 1.257548 1.102878
v -1.526351 1.318446 1.105333
v -1.977611 1.257548 -1.073392
v -1.973649 1.318446 -1.075847
v -1.963013 1.255112 1.107460
v -1.966999 1.316010 1.105044
v -2.017218 1.248527 -1.116606
v -2.013276 1.309424 -1.114117
v -2.042148 1.250963 1.064153
v -2.046154 1.311860 1.066536
v -2.457852 1.250963 -1.120010
v -2.453846 1.311860 -1.122393
v -2.482783 1.248527 1.060749
v -2.486724 1.309424 1.058260
v -2.522692 1.258145 -1.100563
v -2.519638 1.316607 -1.097464
v -2.536393 1.255710 1.080036
v -2.539751 1.319043 1.083345
v -2.963607 1.255710 -1.099852
v -2.960249 1.319043 -1.103160
v -2.977308 1.258145 1.080748
v -2.980362 1.316607 1.077648
v 2.640000 1.320000 -1.140000
v 2.655509 1.345245 -1.161962
v 2.658461 2.303846 -1.153846
v 2.658461 1.336154 -1.046154
v 2.640000 2.320000 -1.060000
v 2.655509 2.294755 -1.038038
v 2.541539 1.336154 -1.153846
v 2.560000 2.320000 -1.140000
v 2.544491 2.294755 -1.161962
v 2.560000 1.320000 -1.060000
v 2.544491 1.345245 -1.038038
v 2.541539 2.303846 -1.046154
v 2.688333 2.328333 -1.191667
v 2.692307 2.389231 -1.189231
v 2.692307 2.330769 -1.010769
v 2.688333 2.391667 -1.008333
v 2.507692 2.330769 -1.189231
v 2.511667 2.391667 -1.191667
v 2.511667 2.328333 -1.008333
v 2.507692 2.389231 -1.010769
v 0.040000 1.320000 -1.140000
v 0.055509 1.345245 -1.161962
v 0.058461 2.303846 -1.153846
v 0.058462 1.336154 -1.046154
v 0.040000 2.320000 -1.060000
v 0.055509 2.294755 -1.038038
v -0.058462 1.336154 -1.153846
v -0.040000 2.320000 -1.140000
v -0.055509 2.294755 -1.161962
v -0.040000 1.320000 -1.060000
v -0.055509 1.345245 -1.038038
v -0.058462 2.303846 -1.046154
v 0.088333 2.328333 -1.191667
v 0.092308 2.389231 -1.189231
v 0.092308 2.330769 -1.010769
v 0.088333 2.391667 -1.008333
v -0.092308 2.330769 -1.189231
v -0.088333 2.391667 -1.191667
v -0.088333 2.328333 -1.008333
v -0.092308 2.389231 -1.010769
v -2.560000 1.320000 -1.140000
v -2.544491 1.345245 -1.161962
v -2.541539 2.303846 -1.153846
v -2.541539 1.336154 -1.046154
v -2.560000 2.320000 -1.060000
v -2.544491 2.294755 -1.038038
v -2.658461 1.336154 -1.153846
v -2.640000 2.320000 -1.140000
v -2.655509 2.294755 -1.161962
v -2.640000 1.320000 -1.060000
v -2.655509 1.345245 -1.038038
v -2.658461 2.303846 -1.046154
v -2.511667 2.328333 -1.191667
v -2.507692 2.389231 -1.189231
v -2.507692 2.330769 -1.010769
v -2.511667 2.391667 -1.008333
v -2.692307 2.330769 -1.189231
v -2.688333 2.391667 -1.191667
v -2.688333 2.328333 -1.008333
v -2.692307 2.389231 -1.010769
v 2.658333 2.178333 -1.141667
v 2.662308 2.259231 -1.139231
v 2.662308 2.180769 -1.060769
v 2.658333 2.261667 -1.058333
v -2.662308 2.180769 -1.139231
v -2.658333 2.261667 -1.141667
v -2.658333 2.178333 -1.058333
v -2.662308 2.259231 -1.060769
v 2.658334 1.768333 -1.131667
v 2.662308 1.829231 -1.129231
v 2.662308 1.770769 -1.070769
v 2.658333 1.831667 -1.068334
v -2.662308 1.770769 -1.129231
v -2.658333 1.831667 -1.131667
v -2.658334 1.768333 -1.068334
v -2.662308 1.829231 -1.070769
v 2.640000 1.320000 1.060000
v 2.655509 1.345245 1.038038
v 2.658461 2.303846 1.046154
v 2.658461 1.336154 1.153846
v 2.640000 2.320000 1.140000
v 2.655509 2.294755 1.161962
v 2.541539 1.336154 1.046154
v 2.560000 2.320000 1.060000
v 2.544491 2.294755 1.038038
v 2.560000 1.320000 1.140000
v 2.544491 1.345245 1.161962
v 2.541539 2.303846 1.153846
v 2.688333 2.328333 1.008333
v 2.692307 2.389231 1.010769
v 2.692307 2.330769 1.189231
v 2.688333 2.391667 1.191667
v 2.507692 2.330769 1.010769
v 2.511667 2.391667 1.008333
v 2.511667 2.328333 1.191667
v 2.507692 2.389231 1.189231
v 0.040000 1.320000 1.060000
v 0.055509 1.345245 1.038038
v 0.058462 2.303846 1.046154
v 0.058462 1.336154 1.153846
v 0.040000 2.320000 1.140000
v 0.055509 2.294755 1.161962
v -0.058462 1.336154 1.046154
v -0.040000 2.320000 1.060000
v -0.055509 2.294755 1.038038
v -0.040000 1.320000 1.140000
v -0.055509 1.345245 1.161962
v -0.058462 2.303846 1.153846
v 0.088333 2.328333 1.008333
v 0.092308 2.389231 1.010769
v 0.092308 2.330769 1.189231
v 0.088333 2.391667 1.191667
v -0.092308 2.330769 1.010769
v -0.088333 2.391667 1.008333
v -0.088333 2.328333 1.191667
v -0.092308 2.389231 1.189231
v -2.560000 1.320000 1.060000
v -2.544491 1.345245 1.038038
v -2.541539 2.303846 1.046154
v -2.541539 1.336154 1.153846
v -2.560000 2.320000 1.140000
v -2.544491 2.294755 1.161962
v -2.658461 1.336154 1.046154
v -2.640000 2.320000 1.060000
v -2.655509 2.294755 1.038038
v -2.640000 1.320000 1.140000
v -2.655509 1.345245 1.161962
v -2.658461 2.303846 1.153846
v -2.511667 2.328333 1.008333
v -2.507692 2.389231 1.010769
v -2.507692 2.330769 1.189231
v -2.511667 2.391667 1.191667
v -2.692307 2.330769 1.010769
v -2.688333 2.391667 1.008333
v -2.688333 2.328333 1.191667
v -2.692307 2.389231 1.189231
v 2.658333 2.178333 1.058333
v 2.662308 2.259231 1.060769
v 2.662308 2.180769 1.139231
v 2.658333 2.261667 1.141667
v -2.662308 2.180769 1.060769
v -2.658333 2.261667 1.058333
v -2.658333 2.178333 1.141667
v -2.662308 2.259231 1.139231
v 2.658334 1.768333 1.068334
v 2.662308 1.829231 1.070769
v 2.662308 1.770769 1.129231
v 2.658333 1.831667 1.131667
v -2.662308 1.770769 1.070769
v -2.658333 1.831667 1.068334
v -2.658334 1.768333 1.131667
v -2.662308 1.829231 1.129231
vn 0.0002 -0.6563 0.7545
vn -0.0002 0.6563 0.7545
vn -0.0002 -0.6563 -0.7545
vn 0.0002 0.6563 -0.7545
vn 0.6265 -0.7794 -0.0053
vn 0.8052 -0.0136 -0.5928
vn 0.0041 -0.6365 0.7712
vn 0.0173 0.6586 0.7523
vn -0.6189 0.0199 0.7852
vn -0.0029 -0.7570 -0.6534
vn -0.0106 0.6563 -0.7544
vn -0.0090 -0.6562 0.7545
vn -0.0097 0.6562 0.7545
vn 0.0090 -0.6562 -0.7545
vn 0.0097 0.6562 -0.7545
vn 0.8232 -0.0136 -0.5676
vn -0.0134 -0.6342 0.7730
vn -0.0061 0.6586 0.7525
vn -0.6429 0.0199 0.7657
vn 0.0109 -0.7593 -0.6507
vn 0.0128 0.6563 -0.7544
vn -0.0139 -0.6562 0.7544
vn -0.0012 0.6388 0.7694
vn -0.6693 0.0825 0.7384
vn 0.0139 -0.6562 -0.7544
vn 0.0023 0.6604 -0.7509
vn 0.0003 -0.6562 0.7546
vn -0.0003 0.6562 0.7546
vn -0.0003 -0.6562 -0.7546
vn 0.0003 0.6562 -0.7546
vn 0.0011 -0.6560 0.7548
vn -0.0011 0.6560 0.7548
vn -0.0011 -0.6560 -0.7548
vn 0.0011 0.6560 -0.7548
vn -0.0009 -0.6567 0.7542
vn 0.0009 0.6567 0.7542
vn -0.6375 0.0374 0.7696
vn 0.0009 -0.6567 -0.7542
vn -0.0009 0.6567 -0.7542
vn 0.0014 -0.6558 0.7549
vn -0.0014 0.6558 0.7549
vn -0.0014 -0.6558 -0.7549
vn 0.0014 0.6558 -0.7549
vn -1.0000 0.0064 -0.0013
vn 0.0168 0.9998 -0.0067
vn 1.0000 0.0064 0.0013
vn -0.0082 0.0176 0.9998
vn -0.0168 -0.9998 -0.0067
vn 0.8509 -0.5254 -0.0031
vn 0.8509 0.5254 0.0031
vn -0.8509 -0.5254 0.0031
vn -0.8509 0.5254 -0.0031
vn -0.0052 0.0386 -0.9992
vn -0.9993 0.0354 0.0077
vn 0.0190 0.9998 -0.0076
vn 0.9993 0.0357 -0.0128
vn 0.0192 0.0072 0.9998
vn -0.8524 -0.5227 0.0168
vn 0.8507 0.5256 -0.0088
vn 0.6449 -0.0193 0.7640
vn -0.8502 0.5263 0.0076
vn -0.0044 -1.0000 -0.0060
vn -0.6410 -0.0196 -0.7673
vn 0.0279 0.0816 -0.9963
vn -0.9995 0.0298 -0.0141
vn 0.0351 0.9994 -0.0079
vn 0.9995 0.0298 0.0141
vn -0.0279 0.0816 0.9963
vn -0.0349 -0.9994 -0.0088
vn 0.8505 -0.5259 0.0067
vn 0.8504 0.5259 0.0144
vn -0.8505 -0.5259 -0.0067
vn -0.8504 0.5259 -0.0144
vn 0.1590 0.0391 -0.9865
vn -0.9859 0.0397 -0.1624
vn 0.0037 1.0000 -0.0036
vn 0.9859 0.0397 0.1624
vn -0.1590 0.0391 0.9865
vn -0.0037 -1.0000 0.0037
vn 0.0082 0.0176 -0.9998
vn 0.0258 0.0386 -0.9989
vn -0.9997 0.0069 -0.0234
vn 0.0193 0.9998 -0.0070
vn 0.9998 0.0070 0.0181
vn -0.0206 0.0074 0.9998
vn -0.8501 0.5263 -0.0187
vn 0.8506 0.5256 0.0175
vn -0.8529 -0.5220 -0.0108
vn -0.0078 -0.9999 -0.0076
vn 0.0011 0.0320 -0.9995
vn -0.9992 0.0293 -0.0265
vn 0.0291 0.9996 -0.0064
vn 0.9994 0.0240 0.0263
vn -0.0011 0.0320 0.9995
vn 0.8520 0.5231 0.0214
vn 0.8505 -0.5259 0.0121
vn 0.6693 0.0825 -0.7384
vn -0.8497 0.5268 -0.0213
vn -0.8505 -0.5259 -0.0121
vn -0.0348 -0.9994 -0.0090
vn -0.1445 0.0391 -0.9887
vn -0.9892 0.0397 0.1411
vn 0.0025 1.0000 -0.0046
vn 0.9892 0.0397 -0.1411
vn 0.1445 0.0391 0.9887
vn -0.0024 -1.0000 0.0046
vn 0.0075 1.0000 0.0044
vn -0.0079 -1.0000 0.0038
vn 0.8971 -0.4415 0.0166
vn 0.8615 0.5055 0.0480
vn 0.0033 -0.4977 0.8674
vn -0.0631 0.4351 0.8982
vn -0.8971 -0.4415 -0.0166
vn -0.8615 0.5055 -0.0480
vn -0.0033 -0.4977 -0.8674
vn 0.0631 0.4351 -0.8982
vn 0.0161 0.0508 -0.9986
vn -0.9998 0.0185 -0.0016
vn 0.0350 0.9994 -0.0079
vn 0.9998 0.0185 0.0016
vn -0.0161 0.0508 0.9986
vn -0.0350 -0.9994 -0.0079
vn 0.8506 -0.5258 -0.0037
vn 0.8506 0.5258 0.0037
vn -0.8506 -0.5258 0.0037
vn -0.8506 0.5258 -0.0037
vn 0.0520 0.0108 -0.9986
vn -0.9998 0.0042 0.0187
vn 0.1049 0.9889 -0.1049
vn 0.9998 0.0042 -0.0187
vn -0.0520 0.0108 0.9986
vn -0.1049 -0.9889 -0.1049
vn 0.8319 -0.5529 -0.0480
vn 0.8319 0.5529 0.0480
vn -0.8319 -0.5529 0.0480
vn -0.8319 0.5529 -0.0480
vn -0.0200 -0.3428 -0.9392
vn -0.9992 0.0360 -0.0158
vn 0.0212 0.9366 -0.3497
vn 1.0000 -0.0086 0.0027
vn 0.0207 0.3743 0.9271
vn -0.0202 -0.9360 0.3515
vn -0.0006 0.0154 -0.9999
vn -0.9943 0.0610 -0.0872
vn 0.0020 0.9966 -0.0820
vn 0.9943 0.0610 0.0872
vn 0.0006 0.0154 0.9999
vn 0.8275 -0.5585 -0.0576
vn 0.8275 0.5585 0.0576
vn 0.6375 0.0374 -0.7696
vn -0.8275 -0.5585 0.0576
vn 0.6375 -0.0374 0.7696
vn -0.8275 0.5585 -0.0576
vn -0.0020 -0.9966 -0.0820
vn -0.6375 -0.0374 -0.7696
vn -0.0012 0.0523 -0.9986
vn -0.9986 0.0525 0.0052
vn 0.0055 1.0000 0.0011
vn 0.9986 0.0525 -0.0052
vn 0.0012 0.0523 0.9986
vn -0.0055 -1.0000 0.0012
vn 0.0005 0.0396 -0.9992
vn -0.9979 0.0651 0.0035
vn 0.9979 0.0651 -0.0035
vn -0.0005 0.0396 0.9992
vn 0.0198 0.0396 -0.9990
vn -0.9978 0.0651 -0.0158
vn 0.0055 1.0000 0.0012
vn 0.9978 0.0651 0.0158
vn -0.0198 0.0396 0.9990
vn -0.0055 -1.0000 0.0010
vn 0.0020 0.0396 -0.9992
vn -0.9979 0.0651 0.0020
vn 0.9979 0.0651 -0.0020
vn -0.0020 0.0396 0.9992
vn -0.0055 -1.0000 0.0011
vn 0.0274 0.0521 -0.9983
vn -0.9984 0.0525 -0.0199
vn 0.9984 0.0525 0.0199
vn -0.0274 0.0521 0.9983
vn 0.0009 0.0396 -0.9992
vn -0.9979 0.0651 0.0031
vn 0.9979 0.0651 -0.0031
vn -0.0009 0.0396 0.9992
vn 0.0024 0.0396 -0.9992
vn -0.9979 0.0651 0.0016
vn 0.9979 0.0651 -0.0016
vn -0.0024 0.0396 0.9992
vn -0.0009 0.0396 -0.9992
vn -0.9979 0.0651 0.0048
vn 0.9979 0.0651 -0.0048
vn 0.0009 0.0396 0.9992
vn 0.0004 0.0396 -0.9992
vn -0.9979 0.0651 0.0036
vn 0.9979 0.0651 -0.0036
vn -0.0004 0.0396 0.9992
vn 0.0190 0.0396 -0.9990
vn -0.9978 0.0651 -0.0150
vn 0.9978 0.0651 0.0150
vn -0.0190 0.0396 0.9990
vn 0.0132 0.0523 -0.9985
vn -0.9986 0.0525 -0.0092
vn 0.9986 0.0525 0.0092
vn -0.0132 0.0523 0.9985
vn 0.0704 0.0082 -0.9975
vn -0.9997 0.0033 0.0252
vn 0.1410 0.9799 -0.1409
vn 0.9997 0.0033 -0.0252
vn -0.0704 0.0082 0.9975
vn -0.1410 -0.9799 -0.1410
vn 0.8239 -0.5629 -0.0652
vn 0.8239 0.5629 0.0652
vn -0.8240 -0.5629 0.0652
vn -0.8239 0.5629 -0.0652
vn 0.0140 0.0390 -0.9991
vn -0.9977 0.0643 -0.0211
vn 0.0137 0.9998 -0.0132
vn 0.9977 0.0643 0.0211
vn -0.0140 0.0391 0.9991
vn -0.0137 -0.9998 -0.0132
vn 0.1409 0.9799 -0.1409
vn -0.1410 -0.9799 -0.1409
vn -0.8239 -0.5629 0.0652
vn 0.0140 0.0391 -0.9991
vn 0.0005 0.0301 -0.9995
vn -0.9977 0.0476 -0.0476
vn 0.0005 0.9995 -0.0301
vn 0.9977 0.0476 0.0476
vn -0.0005 0.0301 0.9995
vn -0.0005 -0.9995 -0.0301
vn 0.0005 0.0399 -0.9992
vn -0.9961 0.0625 -0.0625
vn 0.0005 0.9992 -0.0399
vn 0.9961 0.0625 0.0625
vn -0.0005 0.0399 0.9992
vn -0.0005 -0.9992 -0.0399
vn -0.0140 0.0390 0.9991
vn 0.8240 -0.5629 -0.0652
vn -1.0000 -0.0064 0.0013
vn -0.0168 0.9998 0.0067
vn 1.0000 -0.0064 -0.0013
vn 0.0082 -0.0176 0.9998
vn 0.0168 -0.9998 0.0067
vn -0.0280 -0.0084 -0.9996
vn -0.9992 -0.0342 0.0207
vn -0.0156 0.9999 0.0062
vn 0.9998 -0.0037 -0.0204
vn 0.0101 -0.0101 0.9999
vn -0.5881 -0.8088 0.0053
vn -0.5880 0.8088 0.0115
vn 0.0149 -0.9999 0.0013
vn -0.0031 -0.0816 -0.9967
vn -0.9995 -0.0298 -0.0107
vn -0.0351 0.9994 0.0079
vn 0.9995 -0.0298 0.0107
vn 0.0031 -0.0816 0.9967
vn 0.0349 -0.9994 0.0088
vn 0.1509 -0.0398 -0.9877
vn -0.9877 -0.0390 -0.1515
vn -0.0037 1.0000 0.0036
vn 0.9877 -0.0390 0.1515
vn -0.1509 -0.0398 0.9877
vn 0.0037 -1.0000 -0.0037
vn -0.0082 -0.0176 -0.9998
vn -0.0023 -0.0192 -0.9998
vn -0.9993 -0.0344 -0.0154
vn -0.0158 0.9999 0.0057
vn 0.9999 -0.0036 0.0160
vn -0.0078 -0.0193 0.9998
vn -0.5881 0.8088 -0.0067
vn 0.0192 -0.9998 0.0035
vn 0.0283 -0.0823 -0.9962
vn -0.9857 -0.1679 -0.0162
vn -0.0291 0.9996 0.0064
vn 0.9857 -0.1679 0.0162
vn -0.0277 -0.0799 0.9964
vn 0.5883 0.8086 0.0075
vn -0.5883 0.8086 -0.0075
vn 0.0348 -0.9994 0.0090
vn -0.1526 -0.0398 -0.9875
vn -0.9876 -0.0390 0.1520
vn -0.0025 1.0000 0.0046
vn 0.9876 -0.0390 -0.1520
vn 0.1526 -0.0398 0.9875
vn 0.0024 -1.0000 -0.0046
vn -0.0076 1.0000 -0.0044
vn 0.0079 -1.0000 -0.0038
vn -0.0161 -0.0508 -0.9986
vn -0.9998 -0.0185 0.0016
vn -0.0350 0.9994 0.0079
vn 0.9998 -0.0185 -0.0016
vn 0.0161 -0.0508 0.9986
vn 0.0350 -0.9994 0.0079
vn -0.0520 -0.0108 -0.9986
vn -0.9998 -0.0042 -0.0187
vn -0.1049 0.9889 0.1049
vn 0.9998 -0.0042 0.0187
vn 0.0520 -0.0108 0.9986
vn 0.1049 -0.9889 0.1049
vn 0.0207 -0.3743 -0.9271
vn -0.9992 -0.0360 0.0158
vn -0.0202 0.9360 -0.3515
vn 1.0000 0.0086 -0.0027
vn -0.0200 0.3428 0.9392
vn 0.0212 -0.9366 0.3497
vn 0.0006 -0.0154 -0.9999
vn -0.9943 -0.0610 0.0872
vn -0.0020 0.9966 0.0820
vn 0.9943 -0.0610 -0.0872
vn -0.0006 -0.0154 0.9999
vn 0.6067 -0.7939 0.0401
vn 0.6067 0.7939 -0.0401
vn -0.6067 -0.7939 -0.0401
vn -0.6067 0.7939 0.0401
vn 0.0020 -0.9966 0.0820
vn -0.0157 -0.0521 -0.9985
vn -0.9986 -0.0525 0.0082
vn -0.0055 1.0000 -0.0011
vn 0.9986 -0.0525 -0.0082
vn 0.0157 -0.0521 0.9985
vn 0.0055 -1.0000 -0.0012
vn -0.0109 -0.0396 -0.9992
vn -0.9979 -0.0651 0.0069
vn 0.9979 -0.0651 -0.0069
vn 0.0109 -0.0396 0.9992
vn 0.0084 -0.0396 -0.9992
vn -0.9978 -0.0651 -0.0123
vn -0.0055 1.0000 -0.0012
vn 0.9978 -0.0651 0.0123
vn -0.0084 -0.0396 0.9992
vn 0.0055 -1.0000 -0.0010
vn -0.0095 -0.0396 -0.9992
vn -0.9979 -0.0651 0.0055
vn 0.9979 -0.0651 -0.0055
vn 0.0095 -0.0396 0.9992
vn 0.0055 -1.0000 -0.0011
vn 0.0129 -0.0522 -0.9986
vn -0.9985 -0.0525 -0.0170
vn 0.9985 -0.0525 0.0170
vn -0.0129 -0.0523 0.9986
vn -0.0106 -0.0396 -0.9992
vn -0.9979 -0.0651 0.0066
vn 0.9979 -0.0651 -0.0066
vn 0.0106 -0.0396 0.9992
vn -0.0091 -0.0396 -0.9992
vn -0.9979 -0.0651 0.0051
vn 0.9979 -0.0651 -0.0051
vn 0.0091 -0.0396 0.9992
vn -0.0123 -0.0396 -0.9991
vn -0.9978 -0.0651 0.0083
vn 0.9978 -0.0651 -0.0083
vn 0.0123 -0.0396 0.9991
vn -0.0111 -0.0396 -0.9992
vn -0.9979 -0.0651 0.0071
vn 0.9979 -0.0651 -0.0071
vn 0.0111 -0.0396 0.9992
vn 0.0075 -0.0396 -0.9992
vn -0.9978 -0.0651 -0.0115
vn 0.9978 -0.0651 0.0115
vn -0.0075 -0.0396 0.9992
vn -0.0013 -0.0521 -0.9986
vn -0.9986 -0.0525 -0.0062
vn 0.9986 -0.0525 0.0062
vn 0.0013 -0.0521 0.9986
vn -0.0704 -0.0082 -0.9975
vn -0.9997 -0.0033 -0.0252
vn -0.1409 0.9799 0.1409
vn 0.9997 -0.0033 0.0252
vn 0.0704 -0.0082 0.9975
vn 0.1410 -0.9799 0.1409
vn -0.0140 -0.0391 -0.9991
vn -0.9977 -0.0643 0.0211
vn -0.0137 0.9998 0.0132
vn 0.9977 -0.0643 -0.0211
vn 0.0140 -0.0391 0.9991
vn 0.0137 -0.9998 0.0132
vn -0.0140 -0.0390 -0.9991
vn 0.1410 -0.9799 0.1410
vn -0.0005 -0.0301 -0.9995
vn -0.9977 -0.0476 0.0476
vn -0.0005 0.9995 0.0301
vn 0.9977 -0.0476 -0.0476
vn 0.0005 -0.0301 0.9995
vn 0.0005 -0.9995 0.0301
vn -0.0005 -0.0399 -0.9992
vn -0.9961 -0.0625 0.0625
vn -0.0005 0.9992 0.0399
vn 0.9961 -0.0625 -0.0625
vn 0.0005 -0.0399 0.9992
vn 0.0005 -0.9992 0.0399
vn 0.1409 -0.9799 0.1409
vn 0.0140 -0.0390 0.9991
vt 0.00000 0.00000
vt 0.00000 0.00217
vt 0.00000 0.42374
vt 0.00000 0.42590
vt 0.00000 0.59646
vt 0.00000 0.98245
vt 0.00000 0.98678
vt 0.00093 0.61038
vt 0.00098 0.78259
vt 0.00100 0.92650
vt 0.00108 0.91066
vt 0.00140 0.44124
vt 0.00144 0.76725
vt 0.00144 0.96709
vt 0.00217 0.59646
vt 0.00483 0.98722
vt 0.00521 0.98245
vt 0.00577 0.96709
vt 0.00622 0.92652
vt 0.00722 0.78206
vt 0.00820 0.91015
vt 0.01011 0.00000
vt 0.01011 0.42374
vt 0.01011 0.42590
vt 0.01125 0.00217
vt 0.01228 0.42374
vt 0.02258 0.78242
vt 0.02258 0.85168
vt 0.02258 0.86915
vt 0.02258 0.93778
vt 0.02358 0.95263
vt 0.02402 0.98346
vt 0.02704 0.00132
vt 0.02721 0.42374
vt 0.02735 0.95264
vt 0.02740 0.98346
vt 0.02835 0.42590
vt 0.02836 0.00217
vt 0.02836 0.78165
vt 0.02909 0.85234
vt 0.02967 0.78382
vt 0.03228 0.76679
vt 0.03271 0.61038
vt 0.03846 0.00000
vt 0.03846 0.00217
vt 0.03846 0.42374
vt 0.03846 0.42590
vt 0.04370 0.95169
vt 0.04370 0.98258
vt 0.04443 0.85168
vt 0.04444 0.78242
vt 0.04703 0.98252
vt 0.04709 0.95169
vt 0.04761 0.61182
vt 0.04780 0.76774
vt 0.05021 0.78165
vt 0.05095 0.85234
vt 0.05153 0.78382
vt 0.05237 0.00217
vt 0.05237 0.42374
vt 0.05238 0.00000
vt 0.05238 0.42590
vt 0.05434 0.86907
vt 0.05537 0.93778
vt 0.05651 0.86992
vt 0.06136 0.43982
vt 0.06208 0.59646
vt 0.06231 0.44198
vt 0.06248 0.00000
vt 0.06248 0.42374
vt 0.06248 0.42590
vt 0.06362 0.00217
vt 0.06465 0.42374
vt 0.06629 0.78242
vt 0.06629 0.85168
vt 0.07207 0.78165
vt 0.07280 0.85234
vt 0.07338 0.78382
vt 0.07876 0.88143
vt 0.07876 0.95005
vt 0.07938 0.61131
vt 0.07941 0.00132
vt 0.07959 0.42374
vt 0.07976 0.96490
vt 0.07983 0.76774
vt 0.08000 0.59507
vt 0.08001 0.58873
vt 0.08020 0.99574
vt 0.08073 0.00217
vt 0.08073 0.42590
vt 0.08073 0.44068
vt 0.08073 0.57482
vt 0.08359 0.96504
vt 0.08378 0.99573
vt 0.08434 0.58873
vt 0.08471 0.59491
vt 0.08650 0.44202
vt 0.08650 0.57482
vt 0.08753 0.44084
vt 0.09083 0.00000
vt 0.09083 0.42590
vt 0.09084 0.00217
vt 0.09084 0.42374
vt 0.09934 0.99472
vt 0.09989 0.96396
vt 0.10322 0.99480
vt 0.10327 0.96397
vt 0.10475 0.00000
vt 0.10475 0.42242
vt 0.10475 0.79470
vt 0.10475 0.86395
vt 0.10527 0.78002
vt 0.10568 0.62360
vt 0.10625 0.60731
vt 0.10691 0.43765
vt 0.11053 0.79393
vt 0.11053 0.88135
vt 0.11127 0.86462
vt 0.11155 0.95005
vt 0.11184 0.79610
vt 0.11270 0.88219
vt 0.11919 0.00000
vt 0.11919 0.42374
vt 0.12021 0.42157
vt 0.12136 0.00000
vt 0.12661 0.79470
vt 0.12661 0.86395
vt 0.12661 0.88003
vt 0.12661 0.88220
vt 0.12661 0.95005
vt 0.12805 0.96396
vt 0.12805 0.99485
vt 0.13138 0.99480
vt 0.13143 0.96397
vt 0.13239 0.79393
vt 0.13312 0.86462
vt 0.13315 0.88153
vt 0.13323 0.95005
vt 0.13370 0.79610
vt 0.13527 0.00000
vt 0.13527 0.42242
vt 0.13651 0.62317
vt 0.13703 0.78002
vt 0.13868 0.43765
vt 0.13868 0.60789
vt 0.14971 0.00000
vt 0.14971 0.42374
vt 0.15073 0.42157
vt 0.15187 0.78023
vt 0.15187 0.91305
vt 0.15187 0.97677
vt 0.15188 0.00000
vt 0.15238 0.92913
vt 0.15331 0.97780
vt 0.15404 0.78022
vt 0.15404 0.91305
vt 0.15404 0.91522
vt 0.15523 0.76630
vt 0.15525 0.59502
vt 0.15569 0.43861
vt 0.15572 0.60989
vt 0.16579 0.00000
vt 0.16579 0.00217
vt 0.16579 0.42374
vt 0.17641 0.92913
vt 0.17641 0.97821
vt 0.17735 0.97677
vt 0.17786 0.92913
vt 0.18023 0.00132
vt 0.18125 0.42374
vt 0.18240 0.00217
vt 0.18580 0.78022
vt 0.18580 0.91419
vt 0.18652 0.43815
vt 0.18695 0.60991
vt 0.18700 0.76630
vt 0.18703 0.59502
vt 0.18797 0.78023
vt 0.18797 0.91305
vt 0.19631 0.00000
vt 0.19631 0.00217
vt 0.19631 0.42374
vt 0.19697 0.97146
vt 0.19705 0.98390
vt 0.20288 0.76536
vt 0.20288 0.91589
vt 0.20332 0.43765
vt 0.20332 0.59414
vt 0.20332 0.60894
vt 0.20332 0.78115
vt 0.20332 0.90098
vt 0.20332 0.95648
vt 0.20621 0.43765
vt 0.20621 0.59443
vt 0.20621 0.60894
vt 0.20621 0.76574
vt 0.20765 0.78119
vt 0.20765 0.90098
vt 0.20765 0.95648
vt 0.20809 0.91591
vt 0.20910 0.97132
vt 0.20910 0.98433
vt 0.21075 0.00132
vt 0.21178 0.42374
vt 0.21292 0.00217
vt 0.22394 0.89066
vt 0.22394 0.96379
vt 0.22394 0.97986
vt 0.22394 0.98564
vt 0.22394 0.98781
vt 0.22509 0.90458
vt 0.22534 0.75710
vt 0.22611 0.89066
vt 0.22611 0.96462
vt 0.22683 0.56831
vt 0.22770 0.00107
vt 0.22776 0.58439
vt 0.22778 0.38455
vt 0.22823 0.39939
vt 0.22827 0.74126
vt 0.22900 0.56831
vt 0.22900 0.57048
vt 0.22972 0.97986
vt 0.22972 0.98678
vt 0.23261 0.00093
vt 0.23261 0.38499
vt 0.24580 0.97986
vt 0.24580 0.98564
vt 0.24580 0.98781
vt 0.24652 0.00049
vt 0.24652 0.38455
vt 0.25134 0.00093
vt 0.25157 0.97986
vt 0.25157 0.98678
vt 0.25180 0.38404
vt 0.25499 0.90457
vt 0.25565 0.96454
vt 0.25787 0.75567
vt 0.25787 0.75784
vt 0.25864 0.89066
vt 0.25910 0.74080
vt 0.25954 0.58439
vt 0.26004 0.75783
vt 0.26621 0.00049
vt 0.26621 0.38455
vt 0.27103 0.00093
vt 0.27149 0.38404
vt 0.27395 0.90675
vt 0.27395 0.95873
vt 0.27495 0.74081
vt 0.27495 0.98685
vt 0.27539 0.58439
vt 0.27539 0.97480
vt 0.27612 0.75653
vt 0.27612 0.89068
vt 0.27828 0.58439
vt 0.27828 0.74119
vt 0.27828 0.97480
vt 0.27828 0.98723
vt 0.28189 0.89068
vt 0.28255 0.75711
vt 0.28335 0.95939
vt 0.28393 0.90675
vt 0.28676 0.00107
vt 0.28685 0.38455
vt 0.29167 0.00093
vt 0.29167 0.38499
vt 0.29364 0.64740
vt 0.29364 0.65952
vt 0.29364 0.67431
vt 0.29364 0.68643
vt 0.29364 0.70215
vt 0.29364 0.71422
vt 0.29364 0.72813
vt 0.29364 0.74024
vt 0.29364 0.97625
vt 0.29364 0.97913
vt 0.29686 0.39939
vt 0.29697 0.65947
vt 0.29697 0.68637
vt 0.29697 0.74019
vt 0.29702 0.64741
vt 0.29702 0.67431
vt 0.29702 0.70229
vt 0.29702 0.72813
vt 0.29702 0.97958
vt 0.29721 0.71421
vt 0.29740 0.97625
vt 0.29762 0.56905
vt 0.29902 0.39939
vt 0.30645 0.00107
vt 0.30654 0.38455
vt 0.30992 0.00093
vt 0.30992 0.38499
vt 0.31293 0.88850
vt 0.31293 0.96592
vt 0.31293 0.97987
vt 0.31293 0.98564
vt 0.31293 0.98781
vt 0.31387 0.58439
vt 0.31433 0.75567
vt 0.31438 0.74126
vt 0.31438 0.90603
vt 0.31444 0.56905
vt 0.31510 0.39939
vt 0.31510 0.88849
vt 0.31510 0.89066
vt 0.31510 0.96596
vt 0.31871 0.97987
vt 0.31871 0.98678
vt 0.32470 0.00107
vt 0.32478 0.38455
vt 0.32816 0.00093
vt 0.32816 0.38499
vt 0.33479 0.97987
vt 0.33479 0.98564
vt 0.33479 0.98781
vt 0.34056 0.97987
vt 0.34056 0.98678
vt 0.34208 0.00049
vt 0.34208 0.38455
vt 0.34398 0.90591
vt 0.34398 0.96596
vt 0.34521 0.74081
vt 0.34546 0.00093
vt 0.34565 0.58439
vt 0.34591 0.38404
vt 0.34686 0.39939
vt 0.34686 0.56963
vt 0.34686 0.75567
vt 0.34763 0.88923
vt 0.34903 0.75567
vt 0.35664 0.97987
vt 0.35664 0.98564
vt 0.35664 0.98781
vt 0.36005 0.66040
vt 0.36005 0.68731
vt 0.36005 0.71422
vt 0.36005 0.72813
vt 0.36006 0.64834
vt 0.36006 0.67525
vt 0.36006 0.70215
vt 0.36006 0.74024
vt 0.36006 0.90457
vt 0.36006 0.91669
vt 0.36006 0.93241
vt 0.36006 0.94447
vt 0.36006 0.95983
vt 0.36006 0.96272
vt 0.36032 0.00049
vt 0.36032 0.38455
vt 0.36241 0.97987
vt 0.36241 0.98678
vt 0.36339 0.74019
vt 0.36339 0.91663
vt 0.36344 0.64848
vt 0.36344 0.67539
vt 0.36344 0.70229
vt 0.36344 0.72813
vt 0.36344 0.90457
vt 0.36344 0.93255
vt 0.36344 0.96316
vt 0.36363 0.66040
vt 0.36363 0.68731
vt 0.36363 0.71422
vt 0.36363 0.94447
vt 0.36370 0.00093
vt 0.36382 0.95983
vt 0.36416 0.38404
vt 0.37856 0.56687
vt 0.37856 0.89427
vt 0.37856 0.98345
vt 0.37856 0.98778
vt 0.37857 0.00093
vt 0.37857 0.38404
vt 0.37906 0.74031
vt 0.37906 0.91179
vt 0.37950 0.58390
vt 0.37952 0.96716
vt 0.37996 0.39795
vt 0.37996 0.75423
vt 0.38073 0.56687
vt 0.38073 0.56903
vt 0.38073 0.89427
vt 0.38073 0.89644
vt 0.38339 0.00107
vt 0.38339 0.98822
vt 0.38358 0.38404
vt 0.38378 0.98345
vt 0.39826 0.00093
vt 0.39826 0.38404
vt 0.39826 0.98345
vt 0.39826 0.98778
vt 0.40308 0.00107
vt 0.40308 0.98822
vt 0.40327 0.38404
vt 0.40347 0.98345
vt 0.41033 0.58344
vt 0.41084 0.74031
vt 0.41250 0.75423
vt 0.41326 0.89501
vt 0.41466 0.75423
vt 0.41795 0.00000
vt 0.41795 0.38316
vt 0.42089 0.91124
vt 0.42139 0.96665
vt 0.42272 0.38310
vt 0.42277 0.00000
vt 0.42665 0.58295
vt 0.42713 0.73984
vt 0.42857 0.89643
vt 0.42997 0.75565
vt 0.43074 0.89644
vt 0.43579 0.98014
vt 0.43579 0.98592
vt 0.43579 0.98809
vt 0.43675 0.96521
vt 0.43723 0.91035
vt 0.43764 0.00000
vt 0.43764 0.38316
vt 0.44156 0.91035
vt 0.44157 0.98014
vt 0.44157 0.98706
vt 0.44201 0.96524
vt 0.44241 0.38310
vt 0.44246 0.00000
vt 0.44859 0.39795
vt 0.44936 0.56761
vt 0.45076 0.39795
vt 0.45733 0.00000
vt 0.45733 0.38316
vt 0.45796 0.73936
vt 0.45836 0.98156
vt 0.45836 0.98589
vt 0.45837 0.58295
vt 0.45837 0.91099
vt 0.45838 0.96620
vt 0.46066 0.38310
vt 0.46071 0.00000
vt 0.46250 0.75639
vt 0.46270 0.91135
vt 0.46271 0.96620
vt 0.46319 0.98633
vt 0.46327 0.89644
vt 0.46335 0.75508
vt 0.46358 0.98156
vt 0.46467 0.56903
vt 0.46607 0.39938
vt 0.46684 0.56903
vt 0.47333 0.74031
vt 0.47374 0.58390
vt 0.47557 0.00093
vt 0.47557 0.38404
vt 0.47858 0.98345
vt 0.47858 0.98634
vt 0.47896 0.00107
vt 0.47914 0.38404
vt 0.47948 0.91134
vt 0.48003 0.96760
vt 0.48008 0.89501
vt 0.48075 0.75423
vt 0.48196 0.98678
vt 0.48235 0.98345
vt 0.49085 0.75423
vt 0.49085 0.89559
vt 0.49382 0.00000
vt 0.49382 0.38316
vt 0.49683 0.98345
vt 0.49683 0.98634
vt 0.49715 0.38310
vt 0.49720 0.00000
vt 0.50021 0.98678
vt 0.50059 0.98345
vt 0.50457 0.58342
vt 0.50505 0.74031
vt 0.51206 0.00093
vt 0.51206 0.38404
vt 0.51545 0.00107
vt 0.51564 0.38404
vt 0.52045 0.91082
vt 0.52093 0.73936
vt 0.52093 0.96714
vt 0.52137 0.58295
vt 0.52209 0.75509
vt 0.52209 0.88924
vt 0.52426 0.58295
vt 0.52426 0.73975
vt 0.52787 0.75643
vt 0.52787 0.88924
vt 0.52889 0.75526
vt 0.53031 0.17108
vt 0.53031 0.37000
vt 0.53031 0.37216
vt 0.53031 0.38159
vt 0.53171 0.00143
vt 0.53181 0.35465
vt 0.53248 0.17109
vt 0.53248 0.18500
vt 0.53470 0.40012
vt 0.53546 0.56903
vt 0.53555 0.39880
vt 0.53897 0.38082
vt 0.53898 0.38299
vt 0.53971 0.37139
vt 0.54114 0.38082
vt 0.55077 0.88922
vt 0.55171 0.58295
vt 0.55178 0.99047
vt 0.55191 0.90531
vt 0.55217 0.75566
vt 0.55222 0.73982
vt 0.55222 0.97843
vt 0.55228 0.56761
vt 0.55294 0.39795
vt 0.55294 0.88922
vt 0.55294 0.90313
vt 0.55294 0.96452
vt 0.55511 0.97843
vt 0.55511 0.99086
vt 0.55590 0.37131
vt 0.55648 0.38159
vt 0.55722 0.37216
vt 0.56424 0.18500
vt 0.56424 0.35523
vt 0.56588 0.37139
vt 0.56588 0.38082
vt 0.56588 0.38299
vt 0.57146 0.99047
vt 0.57190 0.97843
vt 0.57479 0.97843
vt 0.57479 0.99086
vt 0.58032 0.33948
vt 0.58150 0.35603
vt 0.58172 0.18500
vt 0.58182 0.90443
vt 0.58248 0.33948
vt 0.58248 0.34165
vt 0.58268 0.35702
vt 0.58289 0.38013
vt 0.58290 0.96450
vt 0.58305 0.73936
vt 0.58349 0.58295
vt 0.58398 0.90529
vt 0.58471 0.39795
vt 0.58471 0.56818
vt 0.58471 0.75423
vt 0.58471 0.75640
vt 0.58547 0.88922
vt 0.58687 0.75639
vt 0.59115 0.99047
vt 0.59159 0.97843
vt 0.59448 0.97843
vt 0.59448 0.99086
vt 0.59908 0.37864
vt 0.59927 0.35556
vt 0.60034 0.00217
vt 0.60078 0.55243
vt 0.60110 0.17109
vt 0.60113 0.35562
vt 0.60119 0.00085
vt 0.60128 0.72588
vt 0.60171 0.56946
vt 0.60174 0.89620
vt 0.60218 0.39795
vt 0.60223 0.73979
vt 0.60295 0.55243
vt 0.60295 0.55460
vt 0.60511 0.73979
vt 0.60511 0.89659
vt 0.61086 0.91252
vt 0.61131 0.96789
vt 0.61535 0.35772
vt 0.61535 0.37216
vt 0.61641 0.00217
vt 0.61641 0.15665
vt 0.61858 0.00103
vt 0.61858 0.15665
vt 0.62191 0.74036
vt 0.62191 0.89716
vt 0.62480 0.89716
vt 0.62524 0.74075
vt 0.62545 0.37216
vt 0.62660 0.37318
vt 0.62677 0.35772
vt 0.63297 0.56948
vt 0.63302 0.72588
vt 0.64168 0.18500
vt 0.64168 0.34062
vt 0.64385 0.18500
vt 0.64385 0.33948
vt 0.64935 0.56851
vt 0.64935 0.72500
vt 0.64935 0.74037
vt 0.64935 0.89717
vt 0.65223 0.56851
vt 0.65223 0.72529
vt 0.65223 0.89717
vt 0.65268 0.74075
vt 0.65272 0.91201
vt 0.65318 0.96738
vt 0.65776 0.35844
vt 0.65776 0.37288
vt 0.65869 0.18500
vt 0.65920 0.34187
vt 0.66215 0.39795
vt 0.66215 0.55357
vt 0.66431 0.39795
vt 0.66431 0.55243
vt 0.66787 0.37288
vt 0.66901 0.37390
vt 0.66919 0.35844
vt 0.67778 0.00000
vt 0.67778 0.15665
vt 0.67822 0.91179
vt 0.67823 0.96479
vt 0.67872 0.55532
vt 0.67873 0.00217
vt 0.67907 0.98116
vt 0.67916 0.39890
vt 0.67916 0.56923
vt 0.67923 0.89693
vt 0.67965 0.98855
vt 0.67967 0.72608
vt 0.67967 0.74051
vt 0.67994 0.15665
vt 0.68039 0.98201
vt 0.68256 0.74051
vt 0.68256 0.89731
vt 0.68395 0.35844
vt 0.68395 0.37288
vt 0.68617 0.98125
vt 0.68617 0.98779
vt 0.68617 0.98995
vt 0.68689 0.96594
vt 0.68765 0.91179
vt 0.68774 0.96377
vt 0.69003 0.34141
vt 0.69047 0.18500
vt 0.69405 0.37288
vt 0.69479 0.00000
vt 0.69520 0.37390
vt 0.69530 0.15687
vt 0.69537 0.35844
vt 0.69891 0.89693
vt 0.69935 0.74051
vt 0.70093 0.98116
vt 0.70151 0.98855
vt 0.70224 0.74051
vt 0.70224 0.89731
vt 0.70225 0.98201
vt 0.70297 0.91179
vt 0.70297 0.96479
vt 0.70537 0.18500
vt 0.70583 0.34143
vt 0.70802 0.98125
vt 0.70802 0.98779
vt 0.70802 0.98995
vt 0.70999 0.39844
vt 0.71014 0.35844
vt 0.71014 0.37288
vt 0.71050 0.55532
vt 0.71050 0.72565
vt 0.71091 0.56923
vt 0.71164 0.96594
vt 0.71240 0.91179
vt 0.71248 0.96377
vt 0.71855 0.74051
vt 0.71860 0.89693
vt 0.72024 0.37288
vt 0.72139 0.37390
vt 0.72156 0.35844
vt 0.72193 0.74051
vt 0.72237 0.89695
vt 0.72279 0.98116
vt 0.72336 0.98855
vt 0.72410 0.98201
vt 0.72584 0.55532
vt 0.72584 0.72660
vt 0.72613 0.15642
vt 0.72628 0.39890
vt 0.72628 0.57018
vt 0.72654 0.00000
vt 0.72771 0.91396
vt 0.72771 0.96594
vt 0.72772 0.91179
vt 0.72988 0.98125
vt 0.72988 0.98779
vt 0.72988 0.98995
vt 0.73633 0.35677
vt 0.73633 0.36978
vt 0.73715 0.91330
vt 0.73723 0.96593
vt 0.73740 0.18500
vt 0.73759 0.34092
vt 0.73821 0.89788
vt 0.73829 0.74144
vt 0.74162 0.89788
vt 0.74191 0.00000
vt 0.74206 0.74146
vt 0.74242 0.15685
vt 0.74837 0.35721
vt 0.74883 0.36927
vt 0.75250 0.34236
vt 0.75293 0.18595
vt 0.75697 0.91179
vt 0.75697 0.91396
vt 0.75697 0.96593
vt 0.75711 0.39844
vt 0.75711 0.56972
vt 0.75762 0.55532
vt 0.75762 0.72660
vt 0.75797 0.99189
vt 0.75841 0.74108
vt 0.75841 0.89788
vt 0.75841 0.97984
vt 0.76130 0.74140
vt 0.76130 0.89788
vt 0.76130 0.97984
vt 0.76130 0.99227
vt 0.76410 0.35735
vt 0.76419 0.36978
vt 0.76640 0.91329
vt 0.76649 0.96593
vt 0.77299 0.57067
vt 0.77315 0.72660
vt 0.77325 0.15642
vt 0.77340 0.39795
vt 0.77366 0.00000
vt 0.77391 0.55482
vt 0.77623 0.35721
vt 0.77623 0.37022
vt 0.77751 0.98116
vt 0.77755 0.74149
vt 0.77809 0.98855
vt 0.77810 0.89788
vt 0.77883 0.98201
vt 0.78099 0.74140
vt 0.78099 0.89788
vt 0.78172 0.91179
vt 0.78172 0.92391
vt 0.78172 0.93963
vt 0.78172 0.95169
vt 0.78377 0.18549
vt 0.78428 0.34237
vt 0.78460 0.98124
vt 0.78460 0.98778
vt 0.78460 0.98995
vt 0.78505 0.92385
vt 0.78510 0.91179
vt 0.78510 0.93977
vt 0.78529 0.95169
vt 0.78903 0.00000
vt 0.78954 0.15685
vt 0.79014 0.35677
vt 0.79014 0.36978
vt 0.79732 0.86023
vt 0.79735 0.88722
vt 0.79779 0.74051
vt 0.79779 0.87518
vt 0.80068 0.87518
vt 0.80068 0.88760
vt 0.80122 0.91204
vt 0.80129 0.18589
vt 0.80129 0.34166
vt 0.80173 0.96834
vt 0.80212 0.74051
vt 0.80212 0.86038
vt 0.80219 0.35721
vt 0.80264 0.36927
vt 0.80423 0.57016
vt 0.80423 0.72660
vt 0.80474 0.55437
vt 0.80518 0.39795
vt 0.81792 0.35735
vt 0.81800 0.36978
vt 0.81909 0.57141
vt 0.81914 0.89622
vt 0.81958 0.73980
vt 0.81986 0.00000
vt 0.81986 0.15669
vt 0.82031 0.56923
vt 0.82031 0.72589
vt 0.82073 0.55358
vt 0.82175 0.39795
vt 0.82175 0.55241
vt 0.82247 0.73980
vt 0.82247 0.89658
vt 0.83005 0.35721
vt 0.83005 0.37022
vt 0.83016 0.18719
vt 0.83016 0.34166
vt 0.83119 0.18602
vt 0.83486 0.15558
vt 0.83594 0.00000
vt 0.83594 0.15446
vt 0.83883 0.89622
vt 0.83927 0.73980
vt 0.84216 0.73980
vt 0.84216 0.89658
vt 0.84216 0.91158
vt 0.84267 0.96788
vt 0.84624 0.35678
vt 0.84624 0.36979
vt 0.84724 0.34142
vt 0.84768 0.18500
vt 0.84918 0.72589
vt 0.84985 0.57067
vt 0.85057 0.18500
vt 0.85057 0.34180
vt 0.85063 0.39795
vt 0.85063 0.55375
vt 0.85828 0.35722
vt 0.85874 0.36928
vt 0.86482 0.00000
vt 0.86482 0.15580
vt 0.86613 0.97301
vt 0.86621 0.95680
vt 0.86621 0.98544
vt 0.86626 0.72565
vt 0.86670 0.56923
vt 0.86676 0.88130
vt 0.86693 0.34142
vt 0.86737 0.18500
vt 0.86742 0.95582
vt 0.86743 0.74051
vt 0.86743 0.89664
vt 0.86815 0.39783
vt 0.86815 0.55461
vt 0.86959 0.56923
vt 0.86959 0.72601
vt 0.87026 0.18500
vt 0.87026 0.34174
vt 0.87104 0.55461
vt 0.87148 0.39819
vt 0.87402 0.35735
vt 0.87410 0.36979
vt 0.87753 0.74051
vt 0.87753 0.88187
vt 0.87826 0.97287
vt 0.87826 0.98587
vt 0.88234 0.00064
vt 0.88234 0.15737
vt 0.88522 0.15737
vt 0.88567 0.00096
vt 0.88595 0.72565
vt 0.88614 0.35722
vt 0.88614 0.37022
vt 0.88639 0.56923
vt 0.88662 0.34142
vt 0.88706 0.18500
vt 0.88735 0.55365
vt 0.88784 0.39724
vt 0.88928 0.56923
vt 0.88928 0.72603
vt 0.88994 0.18500
vt 0.88994 0.34180
vt 0.89072 0.39724
vt 0.89072 0.55404
vt 0.89302 0.97325
vt 0.89360 0.98353
vt 0.89434 0.97410
vt 0.89578 0.74137
vt 0.89578 0.87552
vt 0.89630 0.89664
vt 0.89697 0.95661
vt 0.89847 0.89667
vt 0.90153 0.00087
vt 0.90155 0.87552
vt 0.90158 0.15589
vt 0.90202 0.12939
vt 0.90202 0.14385
vt 0.90221 0.74195
vt 0.90300 0.97333
vt 0.90300 0.98276
vt 0.90300 0.98493
vt 0.90463 0.63925
vt 0.90463 0.65533
vt 0.90463 0.72403
vt 0.90464 0.57000
vt 0.90491 0.14385
vt 0.90491 0.15628
vt 0.90530 0.18576
vt 0.90530 0.25502
vt 0.90530 0.27186
vt 0.90530 0.34112
vt 0.90530 0.35769
vt 0.90530 0.37070
vt 0.90608 0.39800
vt 0.90608 0.46726
vt 0.90608 0.48333
vt 0.90608 0.55204
vt 0.90780 0.00051
vt 0.90835 0.12901
vt 0.91041 0.56923
vt 0.91108 0.18500
vt 0.91108 0.27109
vt 0.91115 0.63991
vt 0.91173 0.57139
vt 0.91182 0.25568
vt 0.91182 0.34178
vt 0.91186 0.39724
vt 0.91239 0.18716
vt 0.91239 0.27326
vt 0.91259 0.46792
vt 0.91317 0.39940
vt 0.91734 0.35813
vt 0.91763 0.74128
vt 0.91763 0.81054
vt 0.91763 0.82738
vt 0.91763 0.89663
vt 0.91780 0.37018
vt 0.91814 0.99999
vt 0.91855 0.96913
vt 0.91907 0.91271
vt 0.91907 0.95332
vt 0.92196 0.96909
vt 0.92196 1.00000
vt 0.92315 0.07002
vt 0.92315 0.08827
vt 0.92315 0.15612
vt 0.92316 0.00077
vt 0.92316 0.08610
vt 0.92340 0.91271
vt 0.92340 0.95368
vt 0.92341 0.74051
vt 0.92341 0.82661
vt 0.92414 0.81120
vt 0.92414 0.89729
vt 0.92472 0.74268
vt 0.92472 0.82878
vt 0.92649 0.57140
vt 0.92649 0.63925
vt 0.92650 0.56923
vt 0.92716 0.18500
vt 0.92716 0.18717
vt 0.92716 0.25502
vt 0.92716 0.26893
vt 0.92716 0.27110
vt 0.92716 0.33896
vt 0.92793 0.39940
vt 0.92793 0.46726
vt 0.92794 0.39724
vt 0.92893 0.00000
vt 0.92967 0.07068
vt 0.92970 0.08760
vt 0.92978 0.15612
vt 0.93025 0.00217
vt 0.93304 0.57073
vt 0.93312 0.63925
vt 0.93370 0.18650
vt 0.93370 0.27044
vt 0.93378 0.25502
vt 0.93378 0.33896
vt 0.93448 0.39874
vt 0.93456 0.46726
vt 0.93640 0.65533
vt 0.93706 0.72395
vt 0.93784 0.48333
vt 0.93851 0.55196
vt 0.93857 0.65533
vt 0.93949 0.74051
vt 0.93949 0.80939
vt 0.93949 0.82661
vt 0.93949 0.89549
vt 0.94001 0.48334
vt 0.94055 0.98134
vt 0.94092 0.96640
vt 0.94093 0.91119
vt 0.94093 0.98758
vt 0.94501 0.00000
vt 0.94501 0.06888
vt 0.94501 0.08610
vt 0.94501 0.15498
vt 0.94525 0.96640
vt 0.94526 0.91155
vt 0.94526 0.98758
vt 0.94527 0.81054
vt 0.94527 0.89663
vt 0.94583 0.98151
vt 0.94603 0.74051
vt 0.94603 0.82661
vt 0.94611 0.80837
vt 0.94611 0.89447
vt 0.94835 0.56923
vt 0.94835 0.63811
vt 0.94902 0.18500
vt 0.94902 0.25388
vt 0.94902 0.27110
vt 0.94902 0.32307
vt 0.94979 0.39940
vt 0.94979 0.45138
vt 0.95046 0.33915
vt 0.95046 0.37983
vt 0.95079 0.07003
vt 0.95079 0.15612
vt 0.95155 0.00000
vt 0.95155 0.08610
vt 0.95164 0.06786
vt 0.95164 0.15396
vt 0.95248 0.65749
vt 0.95248 0.70947
vt 0.95413 0.63925
vt 0.95479 0.25502
vt 0.95479 0.33915
vt 0.95479 0.38011
vt 0.95489 0.56923
vt 0.95492 0.53815
vt 0.95498 0.63709
vt 0.95538 0.48333
vt 0.95556 0.18500
vt 0.95564 0.25285
vt 0.95842 0.32373
vt 0.95900 0.27110
vt 0.95920 0.45204
vt 0.95971 0.48333
vt 0.95977 0.39940
vt 0.96015 0.53827
vt 0.96062 0.95963
vt 0.96103 0.91199
vt 0.96134 0.74192
vt 0.96134 0.77445
vt 0.96134 0.78836
vt 0.96134 0.82097
vt 0.96134 0.86799
vt 0.96162 0.98559
vt 0.96188 0.71013
vt 0.96206 0.91055
vt 0.96206 0.95964
vt 0.96206 0.97354
vt 0.96219 0.88538
vt 0.96246 0.65749
vt 0.96249 0.83622
vt 0.96277 0.89277
vt 0.96351 0.86882
vt 0.96351 0.88623
vt 0.96495 0.97354
vt 0.96495 0.98597
vt 0.96687 0.03392
vt 0.96687 0.08180
vt 0.96687 0.12751
vt 0.96774 0.14466
vt 0.96782 0.15709
vt 0.96801 0.09574
vt 0.96837 0.00141
vt 0.96837 0.04928
vt 0.96904 0.03396
vt 0.96904 0.08182
vt 0.96904 0.12835
vt 0.96928 0.89417
vt 0.96929 0.83620
vt 0.96929 0.88547
vt 0.96929 0.89201
vt 0.96995 0.86875
vt 0.97021 0.61542
vt 0.97021 0.62843
vt 0.97087 0.23118
vt 0.97087 0.24419
vt 0.97110 0.33916
vt 0.97115 0.36997
vt 0.97116 0.60100
vt 0.97117 0.57020
vt 0.97145 0.74183
vt 0.97145 0.78836
vt 0.97182 0.21677
vt 0.97188 0.18594
vt 0.97211 0.82089
vt 0.97248 0.77444
vt 0.97362 0.74268
vt 0.97362 0.78836
vt 0.97448 0.33915
vt 0.97452 0.26894
vt 0.97454 0.44292
vt 0.97454 0.44509
vt 0.97454 0.45452
vt 0.97454 0.60101
vt 0.97461 0.31594
vt 0.97468 0.29963
vt 0.97481 0.00130
vt 0.97481 0.03396
vt 0.97481 0.04920
vt 0.97481 0.08182
vt 0.97481 0.09573
vt 0.97492 0.36999
vt 0.97498 0.57019
vt 0.97519 0.32333
vt 0.97520 0.18588
vt 0.97520 0.21677
vt 0.97530 0.39724
vt 0.97547 0.12827
vt 0.97549 0.42793
vt 0.97593 0.31678
vt 0.97598 0.51510
vt 0.97601 0.48430
vt 0.97606 0.54106
vt 0.97650 0.52902
vt 0.97809 0.26893
vt 0.97823 0.68614
vt 0.97823 0.71305
vt 0.97853 0.29977
vt 0.97867 0.65533
vt 0.97867 0.70101
vt 0.97887 0.39724
vt 0.97931 0.42807
vt 0.97939 0.48422
vt 0.97939 0.51511
vt 0.97939 0.52902
vt 0.97939 0.54145
vt 0.97986 0.14452
vt 0.97986 0.15753
vt 0.98131 0.98559
vt 0.98156 0.70101
vt 0.98156 0.71344
vt 0.98170 0.31602
vt 0.98170 0.32256
vt 0.98170 0.32473
vt 0.98175 0.97354
vt 0.98200 0.68616
vt 0.98208 0.65533
vt 0.98225 0.61585
vt 0.98271 0.62792
vt 0.98292 0.23162
vt 0.98320 0.45375
vt 0.98320 0.45592
vt 0.98337 0.24368
vt 0.98394 0.44432
vt 0.98464 0.97354
vt 0.98464 0.98597
vt 0.98516 0.91105
vt 0.98537 0.45375
vt 0.98619 0.95963
vt 0.98636 0.83714
vt 0.98637 0.89393
vt 0.98661 0.91199
vt 0.98680 0.86797
vt 0.98681 0.88188
vt 0.98853 0.74145
vt 0.98897 0.77228
vt 0.98897 0.78620
vt 0.98897 0.81710
vt 0.98969 0.88188
vt 0.98969 0.89431
vt 0.99019 0.83727
vt 0.99038 0.86797
vt 0.99089 0.57017
vt 0.99128 0.33915
vt 0.99128 0.37004
vt 0.99133 0.60100
vt 0.99156 0.18593
vt 0.99189 0.04662
vt 0.99189 0.09666
vt 0.99200 0.21677
vt 0.99230 0.81703
vt 0.99233 0.00000
vt 0.99233 0.03089
vt 0.99233 0.07745
vt 0.99233 0.12750
vt 0.99236 0.78620
vt 0.99238 0.74159
vt 0.99254 0.77228
vt 0.99465 0.36995
vt 0.99468 0.33915
vt 0.99472 0.57030
vt 0.99489 0.26893
vt 0.99489 0.29982
vt 0.99491 0.60100
vt 0.99499 0.39724
vt 0.99517 0.42793
vt 0.99536 0.18602
vt 0.99561 0.21676
vt 0.99566 0.03083
vt 0.99571 0.04675
vt 0.99571 0.09680
vt 0.99574 0.00000
vt 0.99590 0.07745
vt 0.99590 0.12749
vt 0.99822 0.29977
vt 0.99827 0.26893
vt 0.99856 0.39724
vt 0.99856 0.42841
s 0
usemtl OpenWorld_stone
f 1/499/243 4/500/243 10/449/243
f 1/499/48 10/449/48 7/448/48
f 1/499/49 2/501/49 4/500/49
f 10/449/51 11/447/51 7/448/51
f 103/440/122 112/413/122 109/412/122
f 103/440/123 104/445/123 106/444/123
f 103/440/293 106/444/293 112/413/293
f 104/1023/117 111/1063/117 105/1066/117
f 104/1023/288 109/1022/288 111/1063/288
f 105/1066/30 111/1063/30 110/1069/30
f 106/1067/27 113/1062/27 112/1068/27
f 106/460/120 105/464/120 108/465/120
f 106/460/291 104/461/291 105/464/291
f 107/384/124 108/371/124 105/381/124
f 109/412/29 104/445/29 103/440/29
f 109/821/118 114/837/118 111/838/118
f 109/821/289 113/825/289 114/837/289
f 11/63/242 4/64/242 6/30/242
f 11/63/47 6/30/47 12/29/47
f 110/400/119 107/384/119 105/381/119
f 110/400/126 111/402/126 114/401/126
f 110/400/290 114/401/290 107/384/290
f 112/413/125 113/411/125 109/412/125
f 113/1062/121 108/1021/121 114/1020/121
f 113/1062/292 106/1067/292 108/1021/292
f 114/401/28 108/385/28 107/384/28
f 12/428/2 6/383/2 5/382/2
f 13/824/244 21/826/244 23/864/244
f 13/824/53 23/864/53 15/865/53
f 14/617/251 17/613/251 24/577/251
f 14/617/62 24/577/62 21/576/62
f 15/865/11 23/864/11 22/866/11
f 15/865/6 14/817/6 13/824/6
f 16/795/247 14/794/247 15/814/247
f 16/795/56 15/814/56 19/815/56
f 17/540/248 19/517/248 27/509/248
f 17/540/57 27/509/57 25/535/57
f 17/613/5 14/617/5 16/625/5
f 17/793/60 16/795/60 19/815/60
f 18/566/59 19/557/59 15/564/59
f 2/891/264 7/890/264 9/958/264
f 2/891/80 9/958/80 3/959/80
f 20/574/249 21/576/249 24/577/249
f 20/574/58 24/577/58 25/575/58
f 20/785/245 25/784/245 26/810/245
f 20/785/54 26/810/54 23/811/54
f 21/576/10 13/612/10 14/617/10
f 21/783/63 20/785/63 23/811/63
f 22/605/246 27/606/246 18/566/246
f 22/605/55 18/566/55 15/564/55
f 24/543/7 17/540/7 25/535/7
f 25/535/9 27/509/9 26/516/9
f 26/608/250 27/606/250 22/605/250
f 26/608/61 22/605/61 23/607/61
f 27/606/8 19/567/8 18/566/8
f 3/959/4 9/958/4 8/965/4
f 4/304/241 2/305/241 3/328/241
f 4/304/46 3/328/46 6/329/46
f 4/64/1 11/63/1 10/65/1
f 48/556/243 51/558/243 57/497/243
f 48/556/48 57/497/48 54/495/48
f 48/556/49 49/560/49 51/558/49
f 49/878/264 54/877/264 56/956/264
f 49/878/80 56/956/80 50/957/80
f 5/382/50 6/370/50 3/380/50
f 50/957/4 56/956/4 55/960/4
f 51/114/241 49/115/241 50/144/241
f 51/114/46 50/144/46 53/145/46
f 51/119/1 58/117/1 57/121/1
f 52/221/50 53/215/50 50/219/50
f 54/495/3 49/560/3 48/556/3
f 54/513/239 58/514/239 59/544/239
f 54/513/44 59/544/44 56/545/44
f 55/278/240 59/289/240 52/221/240
f 55/278/45 52/221/45 50/219/45
f 55/278/52 56/290/52 59/289/52
f 57/497/51 58/491/51 54/495/51
f 58/117/242 51/119/242 53/80/242
f 58/117/47 53/80/47 59/79/47
f 59/289/2 53/222/2 52/221/2
f 60/236/265 66/237/265 68/214/265
f 60/236/81 68/214/81 62/211/81
f 61/68/271 63/67/271 69/15/271
f 61/68/89 69/15/89 66/12/89
f 62/211/21 68/214/21 67/207/21
f 62/807/16 61/776/16 60/781/16
f 63/782/268 61/776/268 62/807/268
f 63/782/84 62/807/84 65/806/84
f 64/536/87 65/532/87 62/534/87
f 66/12/20 60/66/20 61/68/20
f 66/764/266 70/763/266 71/790/266
f 66/764/82 71/790/82 68/791/82
f 67/587/267 72/588/267 64/536/267
f 67/587/83 64/536/83 62/534/83
f 69/15/88 70/5/88 66/12/88
f 69/296/17 63/303/17 70/308/17
f 7/448/3 2/501/3 1/499/3
f 7/496/239 11/498/239 12/523/239
f 7/496/44 12/523/44 9/524/44
f 70/308/269 63/303/269 65/322/269
f 70/308/85 65/322/85 72/323/85
f 70/763/19 72/792/19 71/790/19
f 71/590/270 72/588/270 67/587/270
f 71/590/86 67/587/86 68/589/86
f 72/588/18 65/537/18 64/536/18
f 8/427/240 12/428/240 5/382/240
f 8/427/45 5/382/45 3/380/45
f 8/427/52 9/429/52 12/428/52
usemtl OpenWorld_stone_dressed
f 28/547/257 31/548/257 37/515/257
f 28/547/69 37/515/69 34/510/69
f 28/547/70 29/549/70 31/548/70
f 29/1082/252 34/1089/252 36/1048/252
f 29/1082/64 36/1048/64 30/1043/64
f 30/1043/15 36/1048/15 35/1040/15
f 31/1045/12 38/1047/12 37/1039/12
f 31/863/255 29/862/255 30/872/255
f 31/863/67 30/872/67 33/868/67
f 32/306/71 33/295/71 30/301/71
f 34/255/253 38/254/253 39/261/253
f 34/255/65 39/261/65 36/260/65
f 34/510/14 29/546/14 28/547/14
f 35/330/254 39/331/254 32/306/254
f 35/330/66 32/306/66 30/301/66
f 35/330/73 36/332/73 39/331/73
f 37/515/72 38/506/72 34/510/72
f 38/1047/256 31/1045/256 33/1080/256
f 38/1047/68 33/1080/68 39/1081/68
f 39/331/13 33/307/13 32/306/13
f 73/239/100 83/213/100 80/212/100
f 73/239/279 77/240/279 83/213/279
f 73/239/96 74/243/96 77/240/96
f 75/1032/26 82/1034/26 81/1024/26
f 75/490/97 76/488/97 74/484/97
f 76/149/277 75/155/277 78/156/277
f 76/149/95 78/156/95 79/150/95
f 77/1044/22 84/1046/22 83/1038/22
f 77/1044/276 79/1078/276 86/1079/276
f 77/1044/94 86/1079/94 84/1046/94
f 77/485/275 74/484/275 76/488/275
f 77/485/93 76/488/93 79/489/93
f 78/156/23 86/173/23 79/157/23
f 80/1053/272 82/1034/272 75/1032/272
f 80/1053/90 75/1032/90 74/1050/90
f 80/212/25 74/238/25 73/239/25
f 80/92/273 84/91/273 85/97/273
f 80/92/91 85/97/91 82/98/91
f 81/172/274 86/173/274 78/156/274
f 81/172/92 78/156/92 75/155/92
f 83/213/99 84/206/99 80/212/99
f 84/91/24 86/99/24 85/97/24
f 85/179/278 86/173/278 81/172/278
f 85/179/98 81/172/98 82/178/98
usemtl OpenWorld_moss
f 100/165/114 99/168/114 102/167/114
f 101/1028/113 102/1018/113 99/1019/113
f 102/167/112 101/166/112 98/154/112
f 40/437/258 44/436/258 45/441/258
f 40/437/74 45/441/74 41/442/74
f 42/14/261 40/10/261 41/19/261
f 42/14/77 41/19/77 43/18/77
f 44/192/259 46/186/259 47/200/259
f 44/192/75 47/200/75 45/199/75
f 44/800/263 40/801/263 42/765/263
f 44/800/79 42/765/79 46/762/79
f 45/570/260 47/599/260 43/600/260
f 45/570/76 43/600/76 41/571/76
f 46/967/262 42/968/262 43/975/262
f 46/967/78 43/975/78 47/974/78
f 87/1007/101 92/1015/101 88/1017/101
f 87/1007/280 91/1009/280 92/1015/280
f 89/993/104 88/1004/104 90/1005/104
f 89/993/283 87/992/283 88/1004/283
f 91/459/106 89/480/106 93/482/106
f 91/459/285 87/458/285 89/480/285
f 91/915/102 94/923/102 92/924/102
f 91/915/281 93/914/281 94/923/281
f 92/406/103 90/377/103 88/405/103
f 92/406/282 94/379/282 90/377/282
f 93/417/105 90/421/105 94/424/105
f 93/417/284 89/418/284 90/421/284
f 95/1128/109 96/1133/109 97/1130/109
f 96/153/107 102/167/107 98/154/107
f 96/153/286 100/165/286 102/167/286
f 96/555/116 95/559/116 100/554/116
f 97/1130/108 99/1019/108 95/1128/108
f 97/1130/287 101/1028/287 99/1019/287
f 97/533/111 98/538/111 101/539/111
f 98/154/110 97/151/110 96/153/110
f 99/1019/115 100/1027/115 95/1128/115
usemtl OpenWorld_pine
f 115/861/132 124/874/132 121/860/132
f 115/861/133 116/859/133 118/873/133
f 115/861/299 118/873/299 124/874/299
f 116/692/127 123/683/127 117/691/127
f 116/692/294 121/684/294 123/683/294
f 116/991/130 120/1016/130 118/1014/130
f 116/991/297 117/990/297 120/1016/297
f 117/691/34 123/683/34 122/685/34
f 118/615/31 125/636/31 124/634/31
f 119/502/134 120/503/134 117/494/134
f 121/860/33 116/859/33 115/861/33
f 122/493/129 119/502/129 117/494/129
f 122/493/136 123/492/136 126/504/136
f 122/493/296 126/504/296 119/502/296
f 124/874/135 125/875/135 121/860/135
f 125/636/131 120/614/131 126/635/131
f 125/636/298 118/615/298 120/614/298
f 125/989/128 123/1013/128 121/1012/128
f 125/989/295 126/988/295 123/1013/295
f 126/504/32 120/505/32 119/502/32
f 127/522/132 136/526/132 133/521/132
f 127/522/133 128/520/133 130/525/133
f 127/522/299 130/525/299 136/526/299
f 128/1001/130 132/1031/130 130/1026/130
f 128/1001/297 129/1000/297 132/1031/297
f 128/723/127 135/706/127 129/722/127
f 128/723/294 133/707/294 135/706/294
f 129/722/34 135/706/34 134/705/34
f 130/652/31 137/666/31 136/664/31
f 131/1122/134 132/1123/134 129/1074/134
f 133/521/33 128/520/33 127/522/33
f 134/1073/129 131/1122/129 129/1074/129
f 134/1073/136 135/1072/136 138/1125/136
f 134/1073/296 138/1125/296 131/1122/296
f 136/526/135 137/527/135 133/521/135
f 137/249/128 135/263/128 133/262/128
f 137/249/295 138/248/295 135/263/295
f 137/666/131 132/651/131 138/665/131
f 137/666/298 130/652/298 132/651/298
f 138/1125/32 132/1129/32 131/1122/32
f 141/198/142 143/190/142 139/197/142
f 141/198/305 145/191/305 143/190/305
f 141/20/140 140/11/140 142/9/140
f 141/20/303 139/21/303 140/11/303
f 141/86/141 146/95/141 145/96/141
f 141/86/304 142/87/304 146/95/304
f 143/870/138 146/892/138 144/893/138
f 143/870/301 145/867/301 146/892/301
f 143/969/137 140/979/137 139/976/137
f 143/969/300 144/966/300 140/979/300
f 146/767/139 140/758/139 144/766/139
f 146/767/302 142/756/302 140/758/302
f 147/38/154 159/46/154 156/34/154
f 147/38/315 152/45/315 159/46/315
f 149/124/150 150/123/150 148/109/150
f 149/124/39 158/122/39 157/125/39
f 150/4/149 153/23/149 154/24/149
f 150/4/312 149/3/312 153/23/312
f 151/44/148 147/38/148 148/33/148
f 151/44/311 152/45/311 147/38/311
f 151/609/146 150/601/146 154/611/146
f 151/609/309 148/602/309 150/601/309
f 152/204/147 162/181/147 160/203/147
f 152/204/310 154/182/310 162/181/310
f 152/204/35 160/203/35 159/205/35
f 152/610/152 151/609/152 154/611/152
f 155/37/151 159/46/151 160/47/151
f 155/37/313 156/34/313 159/46/313
f 155/582/144 161/572/144 158/584/144
f 155/582/307 160/573/307 161/572/307
f 156/108/143 149/124/143 148/109/143
f 156/108/306 158/122/306 149/124/306
f 156/34/38 148/33/38 147/38/38
f 156/583/155 155/582/155 158/584/155
f 157/2/145 153/23/145 149/3/145
f 157/2/308 162/25/308 153/23/308
f 160/203/37 162/181/37 161/180/37
f 161/22/153 157/2/153 158/1/153
f 161/22/314 162/25/314 157/2/314
f 162/25/36 154/26/36 153/23/36
f 163/89/154 175/103/154 172/83/154
f 163/89/315 168/102/315 175/103/315
f 165/148/150 166/147/150 164/141/150
f 165/148/39 174/146/39 173/152/39
f 166/62/149 169/70/149 170/71/149
f 166/62/312 165/60/312 169/70/312
f 167/100/148 163/89/148 164/82/148
f 167/100/311 168/102/311 163/89/311
f 167/669/146 166/659/146 170/671/146
f 167/669/309 164/660/309 166/659/309
f 168/170/147 178/163/147 176/169/147
f 168/170/310 170/164/310 178/163/310
f 168/170/35 176/169/35 175/171/35
f 168/670/152 167/669/152 170/671/152
f 171/639/144 177/629/144 174/643/144
f 171/639/307 176/630/307 177/629/307
f 171/90/151 175/103/151 176/101/151
f 171/90/313 172/83/313 175/103/313
f 172/140/143 165/148/143 164/141/143
f 172/140/306 174/146/306 165/148/306
f 172/641/155 171/639/155 174/643/155
f 172/83/38 164/82/38 163/89/38
f 173/59/145 169/70/145 165/60/145
f 173/59/308 178/72/308 169/70/308
f 176/169/37 178/163/37 177/162/37
f 177/69/153 173/59/153 174/61/153
f 177/69/314 178/72/314 173/59/314
f 178/72/36 170/73/36 169/70/36
f 179/1097/156 184/1118/156 180/1117/156
f 179/1097/316 183/1100/316 184/1118/316
f 181/592/159 180/595/159 182/596/159
f 181/592/319 179/591/319 180/595/319
f 183/188/157 186/193/157 184/194/157
f 183/188/317 185/187/317 186/193/317
f 183/54/161 181/85/161 185/55/161
f 183/54/321 179/81/321 181/85/321
f 185/35/160 182/32/160 186/31/160
f 185/35/320 181/36/320 182/32/320
f 186/662/158 180/620/158 184/663/158
f 186/662/318 182/623/318 180/620/318
f 187/1146/162 192/1161/162 188/1160/162
f 187/1146/322 191/1145/322 192/1161/322
f 189/710/161 191/680/161 187/708/161
f 189/710/321 193/677/321 191/680/321
f 189/822/164 188/831/164 190/832/164
f 189/822/324 187/823/324 188/831/324
f 191/819/163 194/829/163 192/830/163
f 191/819/323 193/820/323 194/829/323
f 193/1162/165 190/1147/165 194/1144/165
f 193/1162/325 189/1165/325 190/1147/325
f 194/432/158 188/409/158 192/435/158
f 194/432/318 190/410/318 188/409/318
f 195/1096/166 200/1077/166 196/1071/166
f 195/1096/326 199/1099/326 200/1077/326
f 197/177/171 199/160/171 195/174/171
f 197/177/331 201/159/331 199/160/331
f 197/579/169 196/581/169 198/580/169
f 197/579/329 195/578/329 196/581/329
f 199/594/167 202/598/167 200/597/167
f 199/594/327 201/593/327 202/598/327
f 201/1064/170 198/1086/170 202/1087/170
f 201/1064/330 197/1065/330 198/1086/330
f 202/679/168 196/640/168 200/682/168
f 202/679/328 198/642/328 196/640/328
f 203/1154/172 208/1173/172 204/1170/172
f 203/1154/332 207/1153/332 208/1173/332
f 205/744/176 207/704/176 203/743/176
f 205/744/336 209/703/336 207/704/336
f 205/796/174 204/798/174 206/799/174
f 205/796/334 203/797/334 204/798/334
f 207/777/173 210/786/173 208/787/173
f 207/777/333 209/778/333 210/786/333
f 209/1171/175 206/1155/175 210/1149/175
f 209/1171/335 205/1174/335 206/1155/335
f 210/726/158 204/698/158 208/728/158
f 210/726/318 206/700/318 204/698/318
f 211/1070/177 216/1059/177 212/1058/177
f 211/1070/337 215/1083/337 216/1059/337
f 212/653/168 218/694/168 214/654/168
f 212/653/328 216/693/328 218/694/328
f 213/586/171 215/562/171 211/585/171
f 213/586/331 217/561/331 215/562/331
f 213/735/179 212/737/179 214/738/179
f 213/735/339 211/733/339 212/737/339
f 215/714/178 218/716/178 216/717/178
f 215/714/338 217/713/338 218/716/338
f 217/1060/180 214/1084/180 218/1075/180
f 217/1060/340 213/1061/340 214/1084/340
f 219/104/181 224/107/181 220/106/181
f 219/104/341 223/105/341 224/107/341
f 221/176/161 223/161/161 219/175/161
f 221/176/321 225/158/321 223/161/321
f 221/563/183 220/568/183 222/569/183
f 221/563/343 219/565/343 220/568/343
f 223/851/182 226/857/182 224/858/182
f 223/851/342 225/852/342 226/857/342
f 225/1168/184 222/1151/184 226/1148/184
f 225/1168/344 221/1169/344 222/1151/344
f 226/241/158 220/217/158 224/242/158
f 226/241/318 222/220/318 220/217/318
f 227/1164/185 232/1177/185 228/1176/185
f 227/1164/345 231/1163/345 232/1177/345
f 229/621/187 228/627/187 230/628/187
f 229/621/347 227/624/347 228/627/347
f 229/711/176 231/681/176 227/709/176
f 229/711/336 233/678/336 231/681/336
f 231/644/186 234/648/186 232/649/186
f 231/644/346 233/645/346 234/648/346
f 233/1172/188 230/1156/188 234/1150/188
f 233/1172/348 229/1175/348 230/1156/348
f 234/541/158 228/507/158 232/542/158
f 234/541/318 230/511/318 228/507/318
f 235/49/189 240/53/189 236/52/189
f 235/49/349 239/48/349 240/53/349
f 237/399/161 239/378/161 235/398/161
f 237/399/321 241/376/321 239/378/321
f 237/481/191 236/486/191 238/487/191
f 237/481/351 235/483/351 236/486/351
f 239/250/190 242/256/190 240/257/190
f 239/250/350 241/252/350 242/256/350
f 241/1142/192 238/1134/192 242/1131/192
f 241/1142/352 237/1143/352 238/1134/352
f 242/324/158 236/300/158 240/326/158
f 242/324/318 238/302/318 236/300/318
f 243/1139/193 248/1157/193 244/1152/193
f 243/1139/353 247/1138/353 248/1157/353
f 245/143/161 247/113/161 243/142/161
f 245/143/321 249/112/321 247/113/321
f 245/804/195 244/808/195 246/809/195
f 245/804/355 243/805/355 244/808/355
f 247/185/194 250/195/194 248/196/194
f 247/185/354 249/189/354 250/195/354
f 249/1158/196 246/1137/196 250/1136/196
f 249/1158/356 245/1159/356 246/1137/356
f 250/772/158 244/727/158 248/773/158
f 250/772/318 246/729/318 244/727/318
f 251/132/181 256/134/181 252/133/181
f 251/132/341 255/131/341 256/134/341
f 253/661/161 255/619/161 251/658/161
f 253/661/321 257/616/321 255/619/321
f 253/849/183 252/855/183 254/856/183
f 253/849/343 251/850/343 252/855/343
f 255/845/182 258/853/182 256/854/182
f 255/845/342 257/848/342 258/853/342
f 257/93/184 254/88/184 258/84/184
f 257/93/344 253/94/344 254/88/344
f 258/637/158 252/603/158 256/638/158
f 258/637/318 254/604/318 252/603/318
f 259/1102/197 264/1090/197 260/1088/197
f 259/1102/357 263/1103/357 264/1090/357
f 261/475/176 263/451/176 259/474/176
f 261/475/336 265/450/336 263/451/336
f 261/842/199 260/844/199 262/843/199
f 261/842/359 259/841/359 260/844/359
f 263/828/198 266/834/198 264/833/198
f 263/828/358 265/827/358 266/834/358
f 265/1092/200 262/1104/200 266/1105/200
f 265/1092/360 261/1093/360 262/1104/360
f 266/42/168 260/8/168 264/43/168
f 266/42/328 262/13/328 260/8/328
f 267/1178/201 272/1167/201 268/1166/201
f 267/1178/361 271/1179/361 272/1167/361
f 269/695/203 268/699/203 270/697/203
f 269/695/363 267/696/363 268/699/363
f 271/672/202 274/668/202 272/667/202
f 271/672/362 273/673/362 274/668/362
f 271/724/176 269/771/176 273/725/176
f 271/724/336 267/770/336 269/771/336
f 273/912/204 270/916/204 274/917/204
f 273/912/364 269/913/364 270/916/364
f 274/780/168 268/752/168 272/779/168
f 274/780/328 270/753/328 268/752/328
f 275/736/210 284/746/210 281/734/210
f 275/736/211 276/732/211 278/745/211
f 275/736/370 278/745/370 284/746/370
f 276/138/205 283/129/205 277/137/205
f 276/138/365 281/130/365 283/129/365
f 276/50/208 280/58/208 278/57/208
f 276/50/368 277/51/368 280/58/368
f 277/137/43 283/129/43 282/128/43
f 278/973/40 285/999/40 284/995/40
f 279/56/212 280/58/212 277/51/212
f 281/734/42 276/732/42 275/736/42
f 282/309/207 279/298/207 277/297/207
f 282/309/367 286/310/367 279/298/367
f 282/39/214 283/41/214 286/27/214
f 284/746/213 285/747/213 281/734/213
f 285/28/206 283/41/206 281/40/206
f 285/28/366 286/27/366 283/41/366
f 285/999/209 280/972/209 286/997/209
f 285/999/369 278/973/369 280/972/369
f 286/310/41 280/299/41 279/298/41
f 295/1035/211 296/1030/211 298/1051/211
f 295/1035/222 304/1052/222 301/1033/222
f 295/1035/370 298/1051/370 304/1052/370
f 296/111/208 300/120/208 298/118/208
f 296/111/368 297/110/368 300/120/368
f 296/953/205 303/938/205 297/951/205
f 296/953/365 301/939/365 303/938/365
f 297/951/43 303/938/43 302/937/43
f 298/985/40 305/1008/40 304/1002/40
f 299/116/212 300/120/212 297/110/212
f 301/1033/42 296/1030/42 295/1035/42
f 302/223/221 299/209/221 297/208/221
f 302/223/367 306/224/367 299/209/367
f 302/76/214 303/78/214 306/74/214
f 304/1052/223 305/1049/223 301/1033/223
f 305/1008/209 300/984/209 306/1006/209
f 305/1008/369 298/985/369 300/984/369
f 305/75/206 303/78/206 301/77/206
f 305/75/366 306/74/366 303/78/366
f 306/224/41 300/210/41 299/209/41
f 315/626/211 316/618/211 318/631/211
f 315/626/222 324/632/222 321/622/222
f 315/626/378 318/631/378 324/632/378
f 316/876/208 320/898/208 318/897/208
f 316/876/368 317/879/368 320/898/368
f 316/955/205 323/940/205 317/954/205
f 316/955/365 321/941/365 323/940/365
f 317/954/43 323/940/43 322/942/43
f 318/987/40 325/1011/40 324/1003/40
f 319/894/212 320/898/212 317/879/212
f 321/622/42 316/618/42 315/626/42
f 322/135/214 323/139/214 326/126/214
f 322/318/207 319/316/207 317/315/207
f 322/318/367 326/319/367 319/316/367
f 324/632/223 325/633/223 321/622/223
f 325/1011/209 320/986/209 326/1010/209
f 325/1011/369 318/987/369 320/986/369
f 325/127/206 323/139/206 321/136/206
f 325/127/366 326/126/366 323/139/366
f 326/319/41 320/317/41 319/316/41
f 335/216/230 341/226/230 339/218/230
f 335/216/384 337/225/384 341/226/384
f 335/404/225 340/408/225 336/407/225
f 335/404/379 339/403/379 340/408/379
f 337/387/228 336/372/228 338/389/228
f 337/387/382 335/373/382 336/372/382
f 339/443/226 342/433/226 340/446/226
f 339/443/380 341/434/380 342/433/380
f 340/244/227 338/247/227 336/245/227
f 340/244/381 342/246/381 338/247/381
f 341/394/229 338/391/229 342/390/229
f 341/394/383 337/396/383 338/391/383
f 343/291/236 349/294/236 347/292/236
f 343/291/390 345/293/390 349/294/390
f 343/431/231 348/439/231 344/438/231
f 343/431/385 347/430/385 348/439/385
f 345/286/234 344/276/234 346/288/234
f 345/286/388 343/277/388 344/276/388
f 347/362/232 350/348/232 348/368/232
f 347/362/386 349/349/386 350/348/386
f 348/320/233 346/327/233 344/321/233
f 348/320/387 350/325/387 346/327/387
f 349/456/235 346/453/235 350/452/235
f 349/456/389 345/457/389 346/453/389
f 351/650/210 360/656/210 357/647/210
f 351/650/211 352/646/211 354/655/211
f 351/650/391 354/655/391 360/656/391
f 352/885/208 356/903/208 354/900/208
f 352/885/368 353/884/368 356/903/368
f 352/952/205 359/935/205 353/950/205
f 352/952/365 357/936/365 359/935/365
f 353/950/43 359/935/43 358/934/43
f 354/962/40 361/982/40 360/977/40
f 355/896/212 356/903/212 353/884/212
f 357/647/42 352/646/42 351/650/42
f 358/352/221 355/334/221 353/333/221
f 358/352/367 362/353/367 355/334/367
f 358/895/214 359/902/214 362/882/214
f 360/656/223 361/657/223 357/647/223
f 361/883/206 359/902/206 357/899/206
f 361/883/366 362/882/366 359/902/366
f 361/982/209 356/961/209 362/980/209
f 361/982/369 354/962/369 356/961/369
f 362/353/41 356/335/41 355/334/41
f 371/1091/211 372/1076/211 374/1113/211
f 371/1091/222 380/1114/222 377/1085/222
f 371/1091/391 374/1113/391 380/1114/391
f 372/908/208 376/929/208 374/927/208
f 372/908/368 373/907/368 376/929/368
f 372/946/205 379/919/205 373/945/205
f 372/946/365 377/920/365 379/919/365
f 373/945/43 379/919/43 378/922/43
f 374/964/40 381/983/40 380/978/40
f 375/925/212 376/929/212 373/907/212
f 377/1085/42 372/1076/42 371/1091/42
f 378/233/221 375/228/221 373/227/221
f 378/233/367 382/234/367 375/228/367
f 378/901/214 379/905/214 382/888/214
f 380/1114/223 381/1115/223 377/1085/223
f 381/889/206 379/905/206 377/904/206
f 381/889/366 382/888/366 379/905/366
f 381/983/209 376/963/209 382/981/209
f 381/983/369 374/964/369 376/963/369
f 382/234/41 376/229/41 375/228/41
f 391/676/222 400/687/222 397/675/222
f 391/676/238 392/674/238 394/686/238
f 391/676/378 394/686/378 400/687/378
f 392/918/208 396/947/208 394/944/208
f 392/918/368 393/921/368 396/947/368
f 392/949/205 399/931/205 393/948/205
f 392/949/365 397/932/365 399/931/365
f 393/948/43 399/931/43 398/933/43
f 394/971/40 401/998/40 400/994/40
f 395/943/212 396/947/212 393/921/212
f 397/675/42 392/674/42 391/676/42
f 398/422/207 395/415/207 393/414/207
f 398/422/367 402/423/367 395/415/367
f 398/926/214 399/930/214 402/909/214
f 400/687/223 401/688/223 397/675/223
f 401/910/206 399/930/206 397/928/206
f 401/910/366 402/909/366 399/930/366
f 401/998/209 396/970/209 402/996/209
f 401/998/369 394/971/369 396/970/369
f 402/423/41 396/416/41 395/415/41
f 411/264/230 417/267/230 415/265/230
f 411/264/384 413/266/384 417/267/384
f 411/420/225 416/426/225 412/425/225
f 411/420/379 415/419/379 416/426/379
f 413/16/228 412/6/228 414/17/228
f 413/16/382 411/7/382 412/6/382
f 415/395/226 418/392/226 416/397/226
f 415/395/380 417/393/380 418/392/380
f 416/230/227 414/235/227 412/231/227
f 416/230/381 418/232/381 414/235/381
f 417/386/229 414/375/229 418/374/229
f 417/386/383 413/388/383 414/375/383
f 419/311/236 425/314/236 423/312/236
f 419/311/390 421/313/390 425/314/390
f 419/467/231 424/471/231 420/470/231
f 419/467/385 423/466/385 424/471/385
f 421/472/234 420/468/234 422/473/234
f 421/472/388 419/469/388 420/468/388
f 423/462/232 426/454/232 424/463/232
f 423/462/386 425/455/386 426/454/386
f 424/350/233 422/369/233 420/351/233
f 424/350/387 426/367/387 422/369/387
f 425/478/235 422/477/235 426/476/235
f 425/478/389 421/479/389 422/477/389
usemtl OpenWorld_clay
f 287/345/215 292/360/215 288/355/215
f 287/345/371 291/344/371 292/360/371
f 287/835/220 293/847/220 291/836/220
f 287/835/376 289/846/376 293/847/376
f 289/869/218 288/880/218 290/881/218
f 289/869/374 287/871/374 288/880/374
f 291/757/216 294/760/216 292/761/216
f 291/757/372 293/759/372 294/760/372
f 292/802/217 290/813/217 288/803/217
f 292/802/373 294/812/373 290/813/373
f 293/284/219 290/273/219 294/272/219
f 293/284/375 289/287/375 290/273/375
f 307/269/215 312/282/215 308/279/215
f 307/269/377 311/268/377 312/282/377
f 307/720/220 313/731/220 311/721/220
f 307/720/376 309/730/376 313/731/376
f 309/1098/218 308/1111/218 310/1112/218
f 309/1098/374 307/1101/374 308/1111/374
f 311/1094/216 314/1106/216 312/1107/216
f 311/1094/372 313/1095/372 314/1106/372
f 312/689/217 310/702/217 308/690/217
f 312/689/373 314/701/373 310/702/373
f 313/356/219 310/336/219 314/340/219
f 313/356/375 309/363/375 310/336/375
f 327/1041/220 333/1109/220 331/1042/220
f 327/1041/376 329/1108/376 333/1109/376
f 327/740/224 332/749/224 328/748/224
f 327/740/371 331/739/371 332/749/371
f 329/550/218 328/552/218 330/553/218
f 329/550/374 327/551/374 328/552/374
f 331/1025/216 334/1036/216 332/1037/216
f 331/1025/372 333/1029/372 334/1036/372
f 332/886/217 330/911/217 328/887/217
f 332/886/373 334/906/373 330/911/373
f 333/358/219 330/338/219 334/342/219
f 333/358/375 329/365/375 330/338/375
f 363/183/220 369/202/220 367/184/220
f 363/183/376 365/201/376 369/202/376
f 363/275/224 368/285/224 364/281/224
f 363/275/371 367/274/371 368/285/371
f 365/1110/218 364/1126/218 366/1127/218
f 365/1110/374 363/1116/374 364/1126/374
f 367/712/216 370/718/216 368/719/216
f 367/712/372 369/715/372 370/718/372
f 368/1054/217 366/1120/217 364/1055/217
f 368/1054/373 370/1119/373 366/1120/373
f 369/361/219 366/347/219 370/346/219
f 369/361/375 365/366/375 366/347/375
f 383/271/224 388/283/224 384/280/224
f 383/271/371 387/270/371 388/283/371
f 383/774/220 389/789/220 387/775/220
f 383/774/376 385/788/376 389/789/376
f 385/1132/218 384/1140/218 386/1141/218
f 385/1132/374 383/1135/374 384/1140/374
f 387/251/216 390/258/216 388/259/216
f 387/251/372 389/253/372 390/258/372
f 388/754/217 386/769/217 384/755/217
f 388/754/373 390/768/373 386/769/373
f 389/357/237 386/337/237 390/341/237
f 389/357/392 385/364/392 386/337/392
f 403/343/224 408/359/224 404/354/224
f 403/343/371 407/339/371 408/359/371
f 403/816/220 409/840/220 407/818/220
f 403/816/376 405/839/376 409/840/376
f 405/528/218 404/530/218 406/531/218
f 405/528/374 403/529/374 404/530/374
f 407/508/216 410/518/216 408/519/216
f 407/508/372 409/512/372 410/518/372
f 408/1056/217 406/1124/217 404/1057/217
f 408/1056/373 410/1121/373 406/1124/373
f 409/750/237 406/742/237 410/741/237
f 409/750/375 405/751/375 406/742/375
