# Blender 4.0.2
# www.blender.org
mtllib bridge_segment_collision.mtl
o bridge_segment_collision
v 3.000000 0.000000 -1.200000
v 3.000000 2.400000 -1.200000
v 3.000000 0.000000 1.200000
v 3.000000 2.400000 1.200000
v -3.000000 0.000000 -1.200000
v -3.000000 2.400000 -1.200000
v -3.000000 0.000000 1.200000
v -3.000000 2.400000 1.200000
vn 1.0000 -0.0000 -0.0000
vn -0.0000 -0.0000 1.0000
vn -1.0000 -0.0000 -0.0000
vn -0.0000 -0.0000 -1.0000
vn -0.0000 -1.0000 -0.0000
vn -0.0000 1.0000 -0.0000
vt 0.00000 0.00000
vt 0.00000 0.71158
vt 0.00000 0.71537
vt 0.00000 1.00000
vt 0.24753 0.00000
vt 0.24753 0.71158
vt 0.24753 0.71537
vt 0.24753 1.00000
vt 0.25082 0.00000
vt 0.25082 0.71158
vt 0.25082 0.71537
vt 0.25082 1.00000
vt 0.49835 0.00000
vt 0.49835 0.71158
vt 0.49835 0.71537
vt 0.49835 1.00000
vt 0.50165 0.00000
vt 0.50165 0.71158
vt 0.74918 0.00000
vt 0.74918 0.71158
vt 0.75247 0.00000
vt 0.75247 0.71158
vt 1.00000 0.00000
vt 1.00000 0.71158
s 0
usemtl OpenWorld_collision
f 2/4/1 3/7/1 1/8/1
f 2/4/1 4/3/1 3/7/1
f 4/2/2 7/5/2 3/6/2
f 4/2/2 8/1/2 7/5/2
f 4/24/6 2/22/6 6/21/6
f 4/24/6 6/21/6 8/23/6
f 6/10/4 1/13/4 5/14/4
f 6/10/4 2/9/4 1/13/4
f 7/20/5 1/17/5 3/19/5
f 7/20/5 5/18/5 1/17/5
f 8/12/3 5/15/3 7/16/3
f 8/12/3 6/11/3 5/15/3
