# Blender 4.0.2
# www.blender.org
mtllib watchtower_collision.mtl
o watchtower_collision
v 1.505440 0.010000 -1.397452
v 1.395271 0.010000 1.540483
v 1.425250 0.040000 1.541607
v 1.394147 0.040000 1.570462
v -1.432496 0.010000 -1.507620
v -1.462475 0.040000 -1.508744
v -1.542664 0.010000 1.430315
v -1.576815 0.035000 1.475692
v -1.577358 0.065000 1.505687
v 1.587127 0.035000 -1.534452
v 1.586562 0.065000 -1.564447
v 1.617122 0.065000 -1.535018
v 1.546132 0.765000 1.473452
v -1.593087 0.765000 -1.521396
v -2.131098 0.000000 0.824573
v -2.149813 0.020000 0.831628
v -2.149813 0.100000 0.831628
v -1.986483 0.000000 1.208222
v -2.005198 0.020000 1.215276
v 2.046160 0.000000 -0.776347
v 2.066088 0.020000 -0.774655
v 2.066088 0.100000 -0.774655
v 2.011474 0.000000 -0.367817
v 2.031402 0.020000 -0.366125
v 2.031402 0.100000 -0.366125
v -0.578980 0.000000 -1.938794
v -0.579827 0.020000 -1.958776
v -0.579827 0.100000 -1.958776
v -1.238387 0.000000 -1.910838
v -1.258369 0.020000 -1.909991
v -1.239234 0.020000 -1.930820
v -1.239234 0.100000 -1.930820
v 0.430000 0.000000 1.540000
v 0.430000 0.020000 1.560000
v -0.430000 0.000000 1.540000
v -0.430000 0.020000 1.560000
v 0.620000 1.650000 1.670000
v -0.620000 1.650000 1.670000
v 1.822620 6.400000 1.822620
v 1.828731 6.418148 1.790382
v 1.790382 6.418148 1.828731
v -1.822620 6.400000 1.822620
v -1.790382 6.418148 1.828731
v -1.828731 6.418148 1.790382
v -1.822620 6.400000 -1.822620
v -1.828731 6.418148 -1.790382
v -1.790382 6.418148 -1.828731
v 1.822620 6.400000 -1.822620
v 1.790382 6.418148 -1.828731
v 1.828731 6.418148 -1.790382
v 0.000000 8.000000 0.046906
v -0.040622 8.000000 0.023453
v -0.040622 8.000000 -0.023453
v -0.000000 8.000000 -0.046906
v 0.040622 8.000000 -0.023453
v 0.040622 8.000000 0.023453
vn -0.9496 -0.0000 0.3135
vn -0.9802 0.0199 0.1970
vn -0.9987 0.0508 -0.0000
vn -0.9926 -0.0000 -0.1216
vn -0.7498 -0.6221 -0.2255
vn -0.6617 -0.7071 0.2494
vn -0.9357 -0.0068 0.3527
vn -0.9845 -0.0220 -0.1743
vn -0.9679 -0.0526 -0.2457
vn -0.9443 -0.1750 -0.2788
vn -0.4955 0.7134 0.4955
vn -0.5560 -0.0630 0.8288
vn -0.1558 -0.0554 0.9862
vn -0.3766 0.8464 0.3766
vn -0.6626 0.7490 -0.0000
vn -0.3766 0.8464 -0.3766
vn -0.4955 0.7134 -0.4955
vn -0.6787 -0.6648 -0.3121
vn -0.6680 -0.6789 -0.3047
vn -0.6878 -0.6952 -0.2090
vn -0.8822 -0.1666 -0.4404
vn -0.1577 -0.9861 -0.0515
vn -0.0000 -1.0000 -0.0000
vn -0.3984 -0.6133 0.6820
vn -0.1861 -0.0004 -0.9825
vn -0.7353 -0.0558 -0.6755
vn -0.8135 -0.0640 -0.5780
vn -0.0000 0.7478 0.6639
vn -0.2721 0.8389 0.4713
vn -0.0824 -0.0534 0.9952
vn -0.0000 -0.0333 0.9994
vn -0.3703 -0.6601 0.6535
vn -0.0611 -0.7063 0.7053
vn -0.0611 -0.7058 0.7058
vn -0.0500 -0.0730 0.9961
vn -0.0000 1.0000 -0.0000
vn -0.2721 0.8389 -0.4713
vn -0.0000 0.7478 -0.6639
vn -0.0000 0.0206 -0.9998
vn -0.0424 0.0124 -0.9990
vn -0.1821 -0.0000 -0.9833
vn -0.6013 -0.5774 -0.5524
vn -0.0300 -0.7071 -0.7065
vn -0.0167 -0.9968 0.0782
vn -0.1676 -0.9114 0.3760
vn -0.0424 -0.0000 -0.9991
vn 0.4955 0.7134 0.4955
vn 0.3766 0.8464 0.3766
vn 0.2721 0.8389 0.4713
vn 0.0392 -0.0429 0.9983
vn 0.1589 -0.0498 0.9860
vn -0.0050 -0.0679 0.9977
vn -0.0000 -0.0617 0.9981
vn -0.0525 -0.8908 0.4513
vn -0.0000 -0.7071 0.7071
vn -0.0000 -0.4635 0.8861
vn 0.2721 0.8389 -0.4713
vn 0.3766 0.8464 -0.3766
vn 0.4955 0.7134 -0.4955
vn 0.1640 -0.0407 -0.9856
vn 0.0548 -0.0000 -0.9985
vn 0.0116 -0.9996 -0.0262
vn 0.1425 -0.6965 -0.7032
vn 0.1422 -0.6985 -0.7013
vn 0.0446 -0.9871 -0.1535
vn 0.1798 -0.0467 -0.9826
vn 0.6782 -0.0747 0.7311
vn 0.7960 -0.0763 0.6005
vn 0.9582 -0.0643 0.2788
vn 0.9848 -0.0267 0.1717
vn 0.6626 0.7490 -0.0000
vn 0.9956 -0.0000 0.0936
vn 0.9964 0.0031 0.0846
vn 0.9993 0.0375 -0.0000
vn 0.0070 -0.7067 0.7075
vn 0.5553 -0.5774 0.5986
vn 0.0104 -0.9999 0.0086
vn 0.0070 -0.7071 0.7071
vn 0.9818 0.0064 -0.1897
vn 0.9741 -0.0000 -0.2263
vn 0.8586 -0.0510 -0.5100
vn 0.6926 -0.0551 -0.7192
vn 0.1120 -0.9872 -0.1134
vn 0.7046 -0.7071 0.0598
vn 0.6389 -0.6466 -0.4167
vn 0.6587 -0.6204 -0.4257
vn 0.5664 -0.5773 -0.5881
vn 0.6850 -0.6930 0.2248
vn 0.6809 -0.6974 0.2237
vn 0.9447 -0.1292 0.3015
vn 0.9964 -0.0000 0.0846
vt 0.00000 0.00136
vt 0.00000 0.50825
vt 0.00229 0.50685
vt 0.00230 0.00000
vt 0.01391 0.49061
vt 0.01597 0.49297
vt 0.01600 0.49046
vt 0.04146 0.99231
vt 0.04146 0.99845
vt 0.04151 1.00000
vt 0.07426 0.36832
vt 0.08422 0.49418
vt 0.08426 0.49585
vt 0.08825 0.99230
vt 0.08825 0.99844
vt 0.08830 0.99999
vt 0.14509 0.49606
vt 0.14512 0.49774
vt 0.16202 0.37104
vt 0.22662 0.49553
vt 0.22663 0.49804
vt 0.24160 0.99518
vt 0.24162 0.99750
vt 0.24375 0.99520
vt 0.25572 0.00784
vt 0.25626 0.50687
vt 0.25663 0.50356
vt 0.25798 0.00934
vt 0.25798 0.50202
vt 0.25854 0.50827
vt 0.26102 0.27728
vt 0.26158 0.50835
vt 0.26228 0.27977
vt 0.26386 0.50694
vt 0.26589 0.00247
vt 0.26724 0.00000
vt 0.28222 0.99537
vt 0.28229 0.99772
vt 0.33553 0.99965
vt 0.33563 0.99194
vt 0.33563 0.99808
vt 0.36454 0.99970
vt 0.36464 0.99198
vt 0.36464 0.99813
vt 0.49566 0.94163
vt 0.50059 0.99987
vt 0.50064 0.99752
vt 0.51781 0.50685
vt 0.52011 0.50825
vt 0.66678 0.03144
vt 0.70905 0.21504
vt 0.71463 0.24411
vt 0.71472 0.21517
vt 0.71620 0.21460
vt 0.71852 0.03313
vt 0.72073 0.03317
vt 0.72108 0.00167
vt 0.72117 0.00000
vt 0.72256 0.00156
vt 0.72560 0.23133
vt 0.72560 0.27811
vt 0.72560 0.55327
vt 0.72603 0.27564
vt 0.72603 0.55575
vt 0.72682 0.23046
vt 0.72832 0.27517
vt 0.72832 0.55622
vt 0.74070 0.25823
vt 0.74193 0.25737
vt 0.74500 0.04464
vt 0.75326 0.01143
vt 0.77397 0.27187
vt 0.77577 0.26788
vt 0.79886 0.00000
vt 0.85243 0.41389
vt 0.85243 0.41750
vt 0.85477 0.26039
vt 0.85531 0.41209
vt 0.85531 0.41930
vt 0.85820 0.41389
vt 0.85820 0.41750
vt 0.91472 0.24824
vt 0.95124 0.01141
vt 0.95513 0.00000
vt 0.98201 0.23466
vt 0.98231 0.27517
vt 0.98231 0.55622
vt 0.98459 0.27564
vt 0.98459 0.55575
vt 0.98503 0.27811
vt 0.98503 0.55327
vt 0.99707 0.05060
vt 1.00000 0.08191
s 0
usemtl OpenWorld_collision
f 1/83/62 20/92/62 26/74/62
f 10/38/85 12/37/85 20/39/85
f 10/84/65 1/83/65 26/74/65
f 10/84/83 20/92/83 1/83/83
f 11/22/64 10/23/64 26/16/64
f 12/24/82 11/22/82 48/30/82
f 12/24/87 10/23/87 11/22/87
f 12/37/86 21/41/86 20/39/86
f 13/45/69 24/44/69 39/49/69
f 14/50/10 6/55/10 16/53/10
f 14/50/21 30/57/21 6/55/21
f 15/65/6 18/69/6 19/68/6
f 15/65/6 19/68/6 16/60/6
f 16/53/1 42/33/1 17/51/1
f 18/27/24 9/20/24 19/29/24
f 18/27/32 8/21/32 9/20/32
f 19/29/12 9/20/12 42/28/12
f 19/52/7 42/33/7 16/53/7
f 2/46/88 23/42/88 3/47/88
f 2/6/76 3/5/76 4/7/76
f 2/6/78 34/12/78 33/13/78
f 21/41/81 12/37/81 48/32/81
f 21/41/84 23/42/84 20/39/84
f 21/41/84 24/44/84 23/42/84
f 21/41/91 22/40/91 25/43/91
f 21/41/91 25/43/91 24/44/91
f 22/40/74 50/34/74 40/48/74
f 22/40/79 48/32/79 50/34/79
f 22/40/80 21/41/80 48/32/80
f 23/42/89 24/44/89 3/47/89
f 23/93/77 2/85/77 33/82/77
f 24/44/70 40/48/70 39/49/70
f 24/44/72 25/43/72 40/48/72
f 24/44/90 13/45/90 3/47/90
f 25/43/73 22/40/73 40/48/73
f 27/15/61 28/14/61 49/26/61
f 27/15/63 11/22/63 26/16/63
f 28/14/40 32/8/40 47/3/40
f 29/59/19 5/56/19 6/55/19
f 29/71/23 18/69/23 15/65/23
f 29/71/23 20/92/23 23/93/23
f 29/71/23 23/93/23 33/82/23
f 29/71/23 26/74/23 20/92/23
f 29/71/23 33/82/23 35/77/23
f 29/71/23 35/77/23 18/69/23
f 3/47/68 13/45/68 39/49/68
f 30/57/18 29/59/18 6/55/18
f 30/57/27 14/50/27 45/36/27
f 31/58/26 30/57/26 45/36/26
f 31/58/42 29/59/42 30/57/42
f 31/9/43 26/16/43 29/10/43
f 31/9/43 27/15/43 26/16/43
f 32/8/41 31/9/41 47/3/41
f 32/8/46 27/15/46 31/9/46
f 32/8/46 28/14/46 27/15/46
f 33/13/55 34/12/55 36/17/55
f 33/13/55 36/17/55 35/18/55
f 34/12/56 4/7/56 36/17/56
f 34/12/75 2/6/75 4/7/75
f 35/18/34 36/17/34 9/20/34
f 35/77/44 7/73/44 18/69/44
f 36/17/35 38/19/35 9/20/35
f 36/17/52 4/7/52 38/19/52
f 37/11/50 4/7/50 41/4/50
f 38/19/31 37/11/31 41/4/31
f 38/19/31 41/4/31 43/25/31
f 39/88/47 40/90/47 41/86/47
f 4/7/51 39/1/51 41/4/51
f 4/7/53 37/11/53 38/19/53
f 4/7/67 3/5/67 39/1/67
f 40/90/48 56/80/48 41/86/48
f 41/86/28 51/78/28 43/66/28
f 42/33/2 44/31/2 17/51/2
f 43/66/11 44/61/11 42/63/11
f 43/66/14 52/75/14 44/61/14
f 44/31/3 46/35/3 17/51/3
f 45/36/9 14/50/9 16/53/9
f 46/35/4 16/53/4 17/51/4
f 46/35/8 45/36/8 16/53/8
f 47/3/25 31/9/25 45/2/25
f 47/67/17 45/64/17 46/62/17
f 48/30/60 27/15/60 49/26/60
f 48/30/66 11/22/66 27/15/66
f 49/26/39 28/14/39 47/3/39
f 5/56/20 15/54/20 6/55/20
f 5/70/22 29/71/22 15/65/22
f 50/91/59 48/89/59 49/87/59
f 50/91/71 55/81/71 56/80/71
f 50/91/71 56/80/71 40/90/71
f 51/78/29 52/75/29 43/66/29
f 51/78/36 53/76/36 52/75/36
f 51/78/36 54/79/36 53/76/36
f 51/78/36 55/81/36 54/79/36
f 51/78/36 56/80/36 55/81/36
f 52/75/15 46/62/15 44/61/15
f 52/75/15 53/76/15 46/62/15
f 53/76/16 47/67/16 46/62/16
f 54/79/37 47/67/37 53/76/37
f 54/79/38 49/87/38 47/67/38
f 55/81/57 49/87/57 54/79/57
f 55/81/58 50/91/58 49/87/58
f 56/80/49 51/78/49 41/86/49
f 6/55/5 15/54/5 16/53/5
f 7/73/45 8/72/45 18/69/45
f 7/73/54 35/77/54 8/72/54
f 8/21/33 35/18/33 9/20/33
f 9/20/13 43/25/13 42/28/13
f 9/20/30 38/19/30 43/25/30
