# Blender 4.0.2
# www.blender.org
mtllib lever_collision.mtl
o lever_collision
v -0.310000 0.030000 -0.200000
v -0.310000 0.030000 0.200000
v -0.310000 0.050000 -0.200000
v -0.310000 0.050000 0.200000
v -0.280000 0.000000 -0.200000
v -0.280000 0.000000 0.200000
v -0.280000 0.030000 -0.230000
v -0.280000 0.030000 0.230000
v -0.280000 0.050000 -0.230000
v -0.280000 0.050000 0.230000
v -0.155000 0.500000 -0.090000
v -0.135000 0.500000 -0.110000
v -0.050000 1.127572 0.269717
v -0.035355 1.140817 0.236936
v -0.033611 1.175581 0.284701
v -0.023766 1.175581 0.260935
v -0.023766 1.175581 0.308467
v -0.020772 1.193251 0.284701
v -0.014688 1.193251 0.270013
v -0.014688 1.193251 0.299389
v 0.000000 1.108842 0.316076
v 0.000000 1.146303 0.223358
v 0.000000 1.153739 0.318312
v 0.000000 1.175581 0.318312
v 0.000000 1.193251 0.263929
v 0.000000 1.193251 0.305474
v 0.000000 1.200000 0.284701
v 0.014688 1.193251 0.270013
v 0.014688 1.193251 0.299389
v 0.020772 1.193251 0.284701
v 0.023766 1.175581 0.260935
v 0.023766 1.175581 0.308467
v 0.033611 1.175581 0.284701
v 0.035355 1.140817 0.236936
v 0.050000 1.127572 0.269717
v 0.135000 0.500000 -0.110000
v 0.155000 0.500000 -0.090000
v 0.280000 0.000000 -0.200000
v 0.280000 0.000000 0.200000
v 0.280000 0.030000 -0.230000
v 0.280000 0.030000 0.230000
v 0.280000 0.050000 -0.230000
v 0.280000 0.050000 0.230000
v 0.310000 0.030000 -0.200000
v 0.310000 0.030000 0.200000
v 0.310000 0.050000 -0.200000
v 0.310000 0.050000 0.200000
vn -1.0000 -0.0000 -0.0000
vn -0.9721 0.2346 -0.0000
vn -0.9091 0.1956 0.3678
vn -0.9063 0.1943 0.3754
vn -0.9033 0.3349 -0.2682
vn -0.8918 0.3808 -0.2445
vn -0.8019 0.4966 -0.3322
vn -0.7926 0.3880 -0.4704
vn -0.7671 0.5573 -0.3177
vn -0.7671 0.5573 0.3177
vn -0.7071 -0.7071 -0.0000
vn -0.7071 -0.0000 -0.7071
vn -0.7071 -0.0000 0.7071
vn -0.7027 0.1110 0.7027
vn -0.6528 0.3844 -0.6528
vn -0.6343 0.4420 -0.6343
vn -0.5774 -0.5773 -0.5774
vn -0.5774 -0.5773 0.5774
vn -0.5660 0.5878 -0.5781
vn -0.3826 0.0227 0.9236
vn -0.3781 0.4855 -0.7882
vn -0.3669 0.5955 -0.7147
vn -0.3177 0.5573 0.7671
vn -0.3065 0.9434 -0.1270
vn -0.3065 0.9434 0.1270
vn -0.3008 -0.0000 0.9537
vn -0.2991 0.6239 -0.7220
vn -0.1270 0.9434 -0.3065
vn -0.1270 0.9434 0.3065
vn -0.1146 -0.0494 0.9922
vn -0.0000 -1.0000 -0.0000
vn -0.0000 -0.7071 -0.7071
vn -0.0000 -0.7071 0.7071
vn -0.0000 -0.0795 0.9968
vn -0.0000 -0.0000 -1.0000
vn -0.0000 0.2577 -0.9662
vn -0.0000 0.4584 -0.8887
vn 0.1146 -0.0494 0.9922
vn 0.1270 0.9434 -0.3065
vn 0.1270 0.9434 0.3065
vn 0.2991 0.6239 -0.7220
vn 0.3008 -0.0000 0.9537
vn 0.3065 0.9434 -0.1270
vn 0.3065 0.9434 0.1270
vn 0.3177 0.5573 0.7671
vn 0.3669 0.5955 -0.7147
vn 0.3781 0.4855 -0.7882
vn 0.3826 0.0227 0.9236
vn 0.5660 0.5878 -0.5781
vn 0.5773 -0.5773 -0.5774
vn 0.5774 -0.5773 0.5774
vn 0.6343 0.4420 -0.6343
vn 0.6528 0.3844 -0.6528
vn 0.7027 0.1110 0.7027
vn 0.7071 -0.7071 -0.0000
vn 0.7071 -0.0000 -0.7071
vn 0.7071 -0.0000 0.7071
vn 0.7671 0.5573 -0.3177
vn 0.7671 0.5573 0.3177
vn 0.7926 0.3880 -0.4704
vn 0.8019 0.4966 -0.3322
vn 0.8918 0.3808 -0.2445
vn 0.9033 0.3349 -0.2682
vn 0.9063 0.1943 0.3754
vn 0.9091 0.1956 0.3678
vn 0.9721 0.2346 -0.0000
vn 1.0000 -0.0000 -0.0000
vt 0.00000 0.65399
vt 0.00000 0.66456
vt 0.01428 0.65719
vt 0.01428 0.66776
vt 0.07377 0.40457
vt 0.08329 0.40671
vt 0.13071 0.03122
vt 0.13622 0.01030
vt 0.14054 0.00000
vt 0.14753 0.00065
vt 0.14753 0.02977
vt 0.15452 0.00000
vt 0.15884 0.01030
vt 0.16436 0.03122
vt 0.21178 0.40671
vt 0.22130 0.40457
vt 0.28079 0.65719
vt 0.28079 0.66776
vt 0.29507 0.65399
vt 0.29507 0.66456
vt 0.29792 0.57038
vt 0.29792 0.67232
vt 0.29792 0.68088
vt 0.30320 0.66626
vt 0.30320 0.68694
vt 0.30746 0.67660
vt 0.30832 0.58997
vt 0.31066 0.66626
vt 0.31066 0.68694
vt 0.31183 0.57405
vt 0.31413 0.56359
vt 0.31593 0.67232
vt 0.31593 0.68088
vt 0.56227 0.00798
vt 0.56556 0.04591
vt 0.56690 0.66303
vt 0.56848 0.00000
vt 0.57041 0.64711
vt 0.57074 0.02242
vt 0.57272 0.63665
vt 0.57326 0.01100
vt 0.57527 0.00187
vt 0.58204 0.00383
vt 0.58421 0.01418
vt 0.58421 0.65126
vt 0.58707 0.00996
vt 0.58707 0.64384
vt 0.58707 0.68208
vt 0.58707 0.98383
vt 0.58776 0.63330
vt 0.59190 0.00000
vt 0.59844 0.01189
vt 0.59893 0.00119
vt 0.60134 0.66591
vt 0.60134 0.68208
vt 0.60134 0.98383
vt 0.60134 1.00000
vt 0.60159 0.64818
vt 0.60228 0.63765
vt 0.60404 0.03949
vt 0.60584 0.00106
vt 0.60962 0.01168
vt 0.61992 0.03212
vt 0.75401 0.39439
vt 0.79141 0.66268
vt 0.79171 0.66591
vt 0.79171 0.68208
vt 0.79171 0.98383
vt 0.79171 1.00000
vt 0.79211 0.65215
vt 0.79496 0.65215
vt 0.79565 0.66268
vt 0.83305 0.39439
vt 0.96715 0.03212
vt 0.97744 0.01168
vt 0.98123 0.00106
vt 0.98302 0.03949
vt 0.98478 0.63765
vt 0.98548 0.64818
vt 0.98814 0.00119
vt 0.98863 0.01189
vt 0.99517 0.00000
vt 0.99931 0.63330
vt 1.00000 0.00996
vt 1.00000 0.64384
s 0
usemtl VisualScript_collision
f 1/57/11 5/56/11 6/68/11
f 1/57/11 6/68/11 2/69/11
f 10/50/14 17/46/14 4/59/14
f 11/5/15 12/6/15 3/1/15
f 12/6/15 9/3/15 3/1/15
f 12/6/16 11/5/16 14/7/16
f 12/6/36 36/15/36 42/17/36
f 12/6/36 42/17/36 9/3/36
f 13/60/2 3/70/2 4/59/2
f 13/60/5 14/63/5 3/70/5
f 14/63/6 13/60/6 15/52/6
f 14/63/8 11/64/8 3/70/8
f 15/52/3 13/60/3 4/59/3
f 16/62/7 14/63/7 15/52/7
f 16/8/19 19/9/19 14/7/19
f 17/46/4 15/52/4 4/59/4
f 18/53/9 16/62/9 15/52/9
f 19/61/9 16/62/9 18/53/9
f 19/9/22 22/11/22 14/7/22
f 2/58/13 10/50/13 4/59/13
f 2/58/13 8/47/13 10/50/13
f 20/51/10 15/52/10 17/46/10
f 20/51/10 18/53/10 15/52/10
f 21/35/30 23/39/30 8/38/30
f 22/11/21 12/6/21 14/7/21
f 22/11/37 36/15/37 12/6/37
f 23/39/38 21/35/38 41/30/38
f 23/39/42 41/30/42 43/31/42
f 23/39/42 43/31/42 24/41/42
f 24/41/20 17/44/20 10/40/20
f 24/41/23 20/43/23 17/44/23
f 25/10/27 22/11/27 19/9/27
f 25/10/41 28/12/41 22/11/41
f 26/23/29 27/26/29 20/25/29
f 26/42/23 20/43/23 24/41/23
f 27/26/24 19/33/24 18/29/24
f 27/26/25 18/29/25 20/25/25
f 27/26/28 25/32/28 19/33/28
f 27/26/40 26/23/40 29/22/40
f 28/12/46 34/14/46 22/11/46
f 28/28/39 25/32/39 27/26/39
f 29/37/45 26/42/45 24/41/45
f 3/70/1 1/65/1 2/58/1
f 3/70/1 2/58/1 4/59/1
f 30/24/43 28/28/43 27/26/43
f 30/24/44 27/26/44 29/22/44
f 30/80/58 31/75/58 28/76/58
f 31/13/49 34/14/49 28/12/49
f 31/75/58 30/80/58 33/81/58
f 31/75/61 33/81/61 34/74/61
f 32/34/45 29/37/45 24/41/45
f 33/81/59 29/82/59 32/84/59
f 33/81/59 30/80/59 29/82/59
f 33/81/62 35/77/62 34/74/62
f 34/14/47 36/15/47 22/11/47
f 34/14/52 37/16/52 36/15/52
f 34/74/63 35/77/63 46/71/63
f 35/77/66 47/78/66 46/71/66
f 36/15/53 46/19/53 42/17/53
f 37/16/53 46/19/53 36/15/53
f 37/73/60 34/74/60 46/71/60
f 38/55/55 44/54/55 45/66/55
f 38/55/55 45/66/55 39/67/55
f 39/27/33 41/30/33 8/38/33
f 39/27/33 8/38/33 6/36/33
f 40/48/32 38/55/32 5/56/32
f 40/48/32 5/56/32 7/49/32
f 41/30/34 21/35/34 8/38/34
f 42/17/35 40/18/35 7/4/35
f 42/17/35 7/4/35 9/3/35
f 43/31/48 32/34/48 24/41/48
f 43/83/54 47/78/54 32/84/54
f 44/54/50 38/55/50 40/48/50
f 45/21/51 41/30/51 39/27/51
f 45/79/57 43/83/57 41/85/57
f 45/79/57 47/78/57 43/83/57
f 46/19/56 40/18/56 42/17/56
f 46/19/56 44/20/56 40/18/56
f 47/78/64 33/81/64 32/84/64
f 47/78/65 35/77/65 33/81/65
f 47/78/67 44/72/67 46/71/67
f 47/78/67 45/79/67 44/72/67
f 5/56/31 38/55/31 39/67/31
f 5/56/31 39/67/31 6/68/31
f 6/36/18 8/38/18 2/45/18
f 7/49/17 5/56/17 1/57/17
f 8/38/26 23/39/26 24/41/26
f 8/38/26 24/41/26 10/40/26
f 9/3/12 1/2/12 3/1/12
f 9/3/12 7/4/12 1/2/12
