# Blender 4.0.2
# www.blender.org
mtllib lever.mtl
o lever
v -0.310000 0.030000 -0.200000
v -0.310000 0.030000 0.200000
v -0.310000 0.050000 -0.200000
v -0.310000 0.050000 0.200000
v -0.280000 0.000000 -0.200000
v -0.280000 0.000000 0.200000
v -0.280000 0.030000 -0.230000
v -0.280000 0.030000 0.230000
v -0.280000 0.050000 -0.230000
v -0.280000 0.050000 0.230000
v -0.280000 0.080000 -0.200000
v -0.280000 0.080000 0.200000
v -0.170000 0.110000 -0.120000
v -0.170000 0.110000 0.080000
v -0.170000 0.310000 -0.120000
v -0.170000 0.310000 0.080000
v -0.170000 0.436648 -0.000000
v -0.170000 0.443488 -0.016512
v -0.170000 0.443488 0.016512
v -0.170000 0.460000 -0.023352
v -0.170000 0.460000 0.023352
v -0.170000 0.476512 -0.016512
v -0.170000 0.476512 0.016512
v -0.170000 0.483352 0.000000
v -0.155000 0.340000 -0.090000
v -0.155000 0.340000 0.090000
v -0.155000 0.500000 -0.090000
v -0.155000 0.500000 0.090000
v -0.150000 0.415000 0.000000
v -0.150000 0.428180 -0.031820
v -0.150000 0.428180 0.031820
v -0.150000 0.460000 -0.045000
v -0.150000 0.460000 0.045000
v -0.150000 0.491820 -0.031820
v -0.150000 0.491820 0.031820
v -0.150000 0.505000 0.000000
v -0.140000 0.080000 -0.120000
v -0.140000 0.080000 0.080000
v -0.140000 0.110000 -0.150000
v -0.140000 0.110000 0.110000
v -0.140000 0.310000 -0.150000
v -0.140000 0.310000 0.110000
v -0.140000 0.340000 -0.120000
v -0.140000 0.340000 0.080000
v -0.135000 0.320000 -0.090000
v -0.135000 0.320000 0.090000
v -0.135000 0.340000 -0.110000
v -0.135000 0.340000 0.110000
v -0.135000 0.500000 -0.110000
v -0.135000 0.500000 0.110000
v -0.135000 0.520000 -0.090000
v -0.135000 0.520000 0.090000
v -0.125000 0.320000 -0.090000
v -0.125000 0.320000 0.090000
v -0.125000 0.340000 -0.110000
v -0.125000 0.340000 0.110000
v -0.125000 0.500000 -0.110000
v -0.125000 0.500000 0.110000
v -0.125000 0.520000 -0.090000
v -0.125000 0.520000 0.090000
v -0.122798 0.226094 0.115000
v -0.122798 0.226094 0.125000
v -0.122798 0.253906 0.115000
v -0.122798 0.253906 0.125000
v -0.106450 0.203594 0.115000
v -0.106450 0.203594 0.125000
v -0.106450 0.276406 0.115000
v -0.106450 0.276406 0.125000
v -0.105000 0.340000 -0.090000
v -0.105000 0.340000 0.090000
v -0.105000 0.500000 -0.090000
v -0.105000 0.500000 0.090000
v -0.102798 0.232593 0.095000
v -0.102798 0.232593 0.145000
v -0.102798 0.247407 0.095000
v -0.102798 0.247407 0.145000
v -0.094090 0.220607 0.095000
v -0.094090 0.220607 0.145000
v -0.094090 0.259393 0.095000
v -0.094090 0.259393 0.145000
v -0.080000 0.195000 0.115000
v -0.080000 0.195000 0.125000
v -0.080000 0.216029 0.095000
v -0.080000 0.216029 0.145000
v -0.080000 0.263971 0.095000
v -0.080000 0.263971 0.145000
v -0.080000 0.285000 0.115000
v -0.080000 0.285000 0.125000
v -0.065910 0.220607 0.095000
v -0.065910 0.220607 0.145000
v -0.065910 0.259393 0.095000
v -0.065910 0.259393 0.145000
v -0.057202 0.232593 0.095000
v -0.057202 0.232593 0.145000
v -0.057202 0.247407 0.095000
v -0.057202 0.247407 0.145000
v -0.053550 0.203594 0.115000
v -0.053550 0.203594 0.125000
v -0.053550 0.276406 0.115000
v -0.053550 0.276406 0.125000
v -0.050000 0.942136 0.194795
v -0.050000 1.127572 0.269717
v -0.037202 0.226094 0.115000
v -0.037202 0.226094 0.125000
v -0.037202 0.253906 0.115000
v -0.037202 0.253906 0.125000
v -0.035355 0.928891 0.227576
v -0.035355 0.955380 0.162015
v -0.035355 1.114328 0.302498
v -0.035355 1.140817 0.236936
v -0.033611 1.153739 0.284701
v -0.033611 1.175581 0.284701
v -0.030000 0.474798 0.016764
v -0.030000 0.482290 -0.001780
v -0.030000 0.901302 0.189083
v -0.030000 0.908794 0.170539
v -0.028352 0.923592 0.187303
v -0.028352 1.146116 0.277209
v -0.023766 1.153739 0.260935
v -0.023766 1.153739 0.308467
v -0.023766 1.175581 0.260935
v -0.023766 1.175581 0.308467
v -0.020772 1.136069 0.284701
v -0.020772 1.193251 0.284701
v -0.020048 0.916082 0.205891
v -0.020048 0.931102 0.168715
v -0.020048 1.138606 0.295797
v -0.020048 1.153626 0.258621
v -0.014688 1.136069 0.270013
v -0.014688 1.136069 0.299389
v -0.014688 1.193251 0.270013
v -0.014688 1.193251 0.299389
v -0.010000 0.456254 0.009272
v -0.010000 0.463746 -0.009272
v -0.010000 0.467305 0.035308
v -0.010000 0.489782 -0.020323
v -0.010000 0.893810 0.207627
v -0.010000 0.916286 0.151996
v -0.010000 0.919846 0.196575
v -0.010000 0.927338 0.178031
v -0.000000 0.912971 0.213591
v 0.000000 0.923405 0.241155
v 0.000000 0.934213 0.161016
v 0.000000 0.960866 0.148436
v 0.000000 1.108842 0.316076
v 0.000000 1.129319 0.284701
v 0.000000 1.135495 0.303497
v 0.000000 1.136069 0.263929
v 0.000000 1.136069 0.305474
v 0.000000 1.146303 0.223358
v 0.000000 1.153739 0.251090
v 0.000000 1.153739 0.318312
v -0.000000 1.156737 0.250921
v 0.000000 1.175581 0.251090
v 0.000000 1.175581 0.318312
v 0.000000 1.193251 0.263929
v 0.000000 1.193251 0.305474
v 0.000000 1.200000 0.284701
v 0.010000 0.456254 0.009272
v 0.010000 0.463746 -0.009272
v 0.010000 0.467305 0.035308
v 0.010000 0.489782 -0.020323
v 0.010000 0.893810 0.207627
v 0.010000 0.916286 0.151996
v 0.010000 0.919846 0.196575
v 0.010000 0.927338 0.178031
v 0.014688 1.136069 0.270013
v 0.014688 1.136069 0.299389
v 0.014688 1.193251 0.270013
v 0.014688 1.193251 0.299389
v 0.020048 0.916082 0.205891
v 0.020048 0.931102 0.168715
v 0.020048 1.138606 0.295797
v 0.020048 1.153626 0.258621
v 0.020772 1.136069 0.284701
v 0.020772 1.193251 0.284701
v 0.023766 1.153739 0.260935
v 0.023766 1.153739 0.308467
v 0.023766 1.175581 0.260935
v 0.023766 1.175581 0.308467
v 0.028352 0.923592 0.187303
v 0.028352 1.146116 0.277209
v 0.030000 0.474798 0.016764
v 0.030000 0.482290 -0.001780
v 0.030000 0.901302 0.189083
v 0.030000 0.908794 0.170539
v 0.033611 1.153739 0.284701
v 0.033611 1.175581 0.284701
v 0.035355 0.928891 0.227576
v 0.035355 0.955380 0.162015
v 0.035355 1.114328 0.302498
v 0.035355 1.140817 0.236936
v 0.037202 0.226094 0.115000
v 0.037202 0.226094 0.125000
v 0.037202 0.253906 0.115000
v 0.037202 0.253906 0.125000
v 0.050000 0.942136 0.194795
v 0.050000 1.127572 0.269717
v 0.053550 0.203594 0.115000
v 0.053550 0.203594 0.125000
v 0.053550 0.276406 0.115000
v 0.053550 0.276406 0.125000
v 0.057202 0.232593 0.095000
v 0.057202 0.232593 0.145000
v 0.057202 0.247407 0.095000
v 0.057202 0.247407 0.145000
v 0.065910 0.220607 0.095000
v 0.065910 0.220607 0.145000
v 0.065910 0.259393 0.095000
v 0.065910 0.259393 0.145000
v 0.080000 0.195000 0.115000
v 0.080000 0.195000 0.125000
v 0.080000 0.216029 0.095000
v 0.080000 0.216029 0.145000
v 0.080000 0.263971 0.095000
v 0.080000 0.263971 0.145000
v 0.080000 0.285000 0.115000
v 0.080000 0.285000 0.125000
v 0.094090 0.220607 0.095000
v 0.094090 0.220607 0.145000
v 0.094090 0.259393 0.095000
v 0.094090 0.259393 0.145000
v 0.102798 0.232593 0.095000
v 0.102798 0.232593 0.145000
v 0.102798 0.247407 0.095000
v 0.102798 0.247407 0.145000
v 0.105000 0.340000 -0.090000
v 0.105000 0.340000 0.090000
v 0.105000 0.500000 -0.090000
v 0.105000 0.500000 0.090000
v 0.106450 0.203594 0.115000
v 0.106450 0.203594 0.125000
v 0.106450 0.276406 0.115000
v 0.106450 0.276406 0.125000
v 0.122798 0.226094 0.115000
v 0.122798 0.226094 0.125000
v 0.122798 0.253906 0.115000
v 0.122798 0.253906 0.125000
v 0.125000 0.320000 -0.090000
v 0.125000 0.320000 0.090000
v 0.125000 0.340000 -0.110000
v 0.125000 0.340000 0.110000
v 0.125000 0.500000 -0.110000
v 0.125000 0.500000 0.110000
v 0.125000 0.520000 -0.090000
v 0.125000 0.520000 0.090000
v 0.135000 0.320000 -0.090000
v 0.135000 0.320000 0.090000
v 0.135000 0.340000 -0.110000
v 0.135000 0.340000 0.110000
v 0.135000 0.500000 -0.110000
v 0.135000 0.500000 0.110000
v 0.135000 0.520000 -0.090000
v 0.135000 0.520000 0.090000
v 0.140000 0.080000 -0.120000
v 0.140000 0.080000 0.080000
v 0.140000 0.110000 -0.150000
v 0.140000 0.110000 0.110000
v 0.140000 0.310000 -0.150000
v 0.140000 0.310000 0.110000
v 0.140000 0.340000 -0.120000
v 0.140000 0.340000 0.080000
v 0.150000 0.415000 0.000000
v 0.150000 0.428180 -0.031820
v 0.150000 0.428180 0.031820
v 0.150000 0.460000 -0.045000
v 0.150000 0.460000 0.045000
v 0.150000 0.491820 -0.031820
v 0.150000 0.491820 0.031820
v 0.150000 0.505000 0.000000
v 0.155000 0.340000 -0.090000
v 0.155000 0.340000 0.090000
v 0.155000 0.500000 -0.090000
v 0.155000 0.500000 0.090000
v 0.170000 0.110000 -0.120000
v 0.170000 0.110000 0.080000
v 0.170000 0.310000 -0.120000
v 0.170000 0.310000 0.080000
v 0.170000 0.436648 0.000000
v 0.170000 0.443488 -0.016512
v 0.170000 0.443488 0.016512
v 0.170000 0.460000 -0.023352
v 0.170000 0.460000 0.023352
v 0.170000 0.476512 -0.016512
v 0.170000 0.476512 0.016512
v 0.170000 0.483352 -0.000000
v 0.280000 0.000000 -0.200000
v 0.280000 0.000000 0.200000
v 0.280000 0.030000 -0.230000
v 0.280000 0.030000 0.230000
v 0.280000 0.050000 -0.230000
v 0.280000 0.050000 0.230000
v 0.280000 0.080000 -0.200000
v 0.280000 0.080000 0.200000
v 0.310000 0.030000 -0.200000
v 0.310000 0.030000 0.200000
v 0.310000 0.050000 -0.200000
v 0.310000 0.050000 0.200000
vn -1.0000 -0.0000 -0.0000
vn -0.9239 -0.1434 0.3548
vn -0.9239 -0.0000 -0.3827
vn -0.9239 -0.0000 0.3827
vn -0.9239 0.1434 -0.3548
vn -0.8090 -0.5878 -0.0000
vn -0.8090 0.5878 -0.0000
vn -0.7671 -0.5573 -0.3177
vn -0.7671 -0.5573 0.3177
vn -0.7671 0.5573 -0.3177
vn -0.7671 0.5573 0.3177
vn -0.7071 -0.7071 -0.0000
vn -0.7071 -0.6556 -0.2649
vn -0.7071 -0.6533 -0.2706
vn -0.7071 -0.6533 0.2706
vn -0.7071 -0.2706 -0.6533
vn -0.7071 -0.2706 0.6533
vn -0.7071 -0.2649 0.6556
vn -0.7071 -0.0000 -0.7071
vn -0.7071 -0.0000 0.7071
vn -0.7071 0.2649 -0.6556
vn -0.7071 0.2706 -0.6533
vn -0.7071 0.2706 0.6533
vn -0.7071 0.6533 -0.2706
vn -0.7071 0.6533 0.2706
vn -0.7071 0.6556 0.2649
vn -0.7071 0.7071 -0.0000
vn -0.6533 -0.7570 -0.0140
vn -0.6533 -0.5543 -0.5158
vn -0.6533 0.5542 0.5158
vn -0.6533 0.5543 0.5158
vn -0.6533 0.7570 0.0140
vn -0.5774 -0.5774 -0.5773
vn -0.5774 -0.5774 0.5773
vn -0.5774 -0.5774 0.5774
vn -0.5774 -0.5773 -0.5774
vn -0.5774 -0.5773 0.5774
vn -0.5774 0.3190 0.7516
vn -0.5774 0.5773 -0.5774
vn -0.5774 0.5773 0.5774
vn -0.5774 0.5774 -0.5773
vn -0.5774 0.5774 0.5773
vn -0.5774 0.7516 -0.3190
vn -0.5773 -0.7516 0.3190
vn -0.5773 -0.3190 -0.7516
vn -0.5773 0.5774 -0.5774
vn -0.5773 0.5774 0.5774
vn -0.5721 -0.4156 -0.7071
vn -0.5721 -0.4156 0.7071
vn -0.5721 0.4156 -0.7071
vn -0.5721 0.4156 0.7071
vn -0.3827 -0.3461 0.8566
vn -0.3827 -0.0000 -0.9239
vn -0.3827 -0.0000 0.9239
vn -0.3827 0.3461 -0.8566
vn -0.3177 -0.5573 -0.7671
vn -0.3177 -0.5573 0.7671
vn -0.3177 0.5573 -0.7671
vn -0.3177 0.5573 0.7671
vn -0.3090 -0.9511 -0.0000
vn -0.3090 0.9511 -0.0000
vn -0.3065 -0.9434 -0.1270
vn -0.3065 -0.9434 0.1270
vn -0.3065 0.9434 -0.1270
vn -0.3065 0.9434 0.1270
vn -0.2706 -0.9003 0.3408
vn -0.2706 -0.4109 -0.8706
vn -0.2706 0.4109 0.8706
vn -0.2706 0.9003 -0.3408
vn -0.2185 -0.6725 -0.7071
vn -0.2185 -0.6725 0.7071
vn -0.2185 0.6725 -0.7071
vn -0.2185 0.6725 0.7071
vn -0.1270 -0.9434 -0.3065
vn -0.1270 -0.9434 0.3065
vn -0.1270 0.9434 -0.3065
vn -0.1270 0.9434 0.3065
vn -0.0000 -1.0000 -0.0000
vn -0.0000 -0.9272 -0.3746
vn -0.0000 -0.9239 -0.3827
vn -0.0000 -0.9239 0.3827
vn -0.0000 -0.9205 0.3907
vn -0.0000 -0.7071 -0.7071
vn -0.0000 -0.7071 0.7071
vn -0.0000 -0.3907 -0.9205
vn -0.0000 -0.3827 -0.9239
vn -0.0000 -0.3827 0.9239
vn -0.0000 -0.3746 0.9272
vn -0.0000 -0.0000 -1.0000
vn -0.0000 -0.0000 1.0000
vn -0.0000 0.3746 -0.9272
vn -0.0000 0.3827 -0.9239
vn -0.0000 0.3827 0.9239
vn -0.0000 0.3907 0.9205
vn -0.0000 0.7071 -0.7071
vn -0.0000 0.7071 0.7071
vn -0.0000 0.9205 -0.3907
vn -0.0000 0.9239 -0.3827
vn -0.0000 0.9239 0.3827
vn -0.0000 0.9272 0.3746
vn -0.0000 1.0000 -0.0000
vn 0.1270 -0.9434 -0.3065
vn 0.1270 -0.9434 0.3065
vn 0.1270 0.9434 -0.3065
vn 0.1270 0.9434 0.3065
vn 0.2185 -0.6725 -0.7071
vn 0.2185 -0.6725 0.7071
vn 0.2185 0.6725 -0.7071
vn 0.2185 0.6725 0.7071
vn 0.2706 -0.9003 0.3408
vn 0.2706 -0.4109 -0.8706
vn 0.2706 0.4109 0.8706
vn 0.2706 0.9003 -0.3408
vn 0.3065 -0.9434 -0.1270
vn 0.3065 -0.9434 0.1270
vn 0.3065 0.9434 -0.1270
vn 0.3065 0.9434 0.1270
vn 0.3090 -0.9511 -0.0000
vn 0.3090 0.9511 -0.0000
vn 0.3177 -0.5573 -0.7671
vn 0.3177 -0.5573 0.7671
vn 0.3177 0.5573 -0.7671
vn 0.3177 0.5573 0.7671
vn 0.3827 -0.3461 0.8566
vn 0.3827 -0.0000 -0.9239
vn 0.3827 -0.0000 0.9239
vn 0.3827 0.3461 -0.8566
vn 0.5721 -0.4156 -0.7071
vn 0.5721 -0.4156 0.7071
vn 0.5721 0.4156 -0.7071
vn 0.5721 0.4156 0.7071
vn 0.5773 -0.7516 0.3190
vn 0.5773 -0.3190 -0.7516
vn 0.5773 0.5774 -0.5774
vn 0.5773 0.5774 0.5774
vn 0.5774 -0.5774 -0.5774
vn 0.5774 -0.5774 -0.5773
vn 0.5774 -0.5774 0.5773
vn 0.5774 -0.5773 -0.5774
vn 0.5774 -0.5773 0.5774
vn 0.5774 0.3190 0.7516
vn 0.5774 0.5773 -0.5774
vn 0.5774 0.5773 0.5774
vn 0.5774 0.5774 -0.5773
vn 0.5774 0.5774 0.5773
vn 0.5774 0.7516 -0.3190
vn 0.6533 -0.7570 -0.0140
vn 0.6533 -0.5543 -0.5158
vn 0.6533 0.5542 0.5158
vn 0.6533 0.5543 0.5158
vn 0.6533 0.7570 0.0140
vn 0.7071 -0.7071 -0.0000
vn 0.7071 -0.6556 -0.2649
vn 0.7071 -0.6533 -0.2706
vn 0.7071 -0.6533 0.2706
vn 0.7071 -0.2706 -0.6533
vn 0.7071 -0.2706 0.6533
vn 0.7071 -0.2649 0.6556
vn 0.7071 -0.0000 -0.7071
vn 0.7071 -0.0000 0.7071
vn 0.7071 0.2649 -0.6556
vn 0.7071 0.2706 -0.6533
vn 0.7071 0.2706 0.6533
vn 0.7071 0.6533 -0.2706
vn 0.7071 0.6533 0.2706
vn 0.7071 0.6556 0.2649
vn 0.7071 0.7071 -0.0000
vn 0.7671 -0.5573 -0.3177
vn 0.7671 -0.5573 0.3177
vn 0.7671 0.5573 -0.3177
vn 0.7671 0.5573 0.3177
vn 0.8090 -0.5878 -0.0000
vn 0.8090 0.5878 -0.0000
vn 0.9239 -0.1434 0.3548
vn 0.9239 -0.0000 -0.3827
vn 0.9239 -0.0000 0.3827
vn 0.9239 0.1434 -0.3548
vn 1.0000 -0.0000 -0.0000
vt 0.00000 0.02038
vt 0.00000 0.40078
vt 0.00000 0.45039
vt 0.00000 0.72211
vt 0.00000 0.76492
vt 0.00000 0.88720
vt 0.00000 0.92618
vt 0.00000 0.94957
vt 0.01389 0.75134
vt 0.01389 0.76492
vt 0.01389 0.88720
vt 0.01389 0.90078
vt 0.01389 0.93180
vt 0.01389 0.94395
vt 0.01691 0.90963
vt 0.01691 0.96612
vt 0.02084 0.43001
vt 0.02084 0.45039
vt 0.02084 0.72211
vt 0.02084 0.74249
vt 0.02267 0.92322
vt 0.02267 0.95253
vt 0.03473 0.43001
vt 0.03473 0.45039
vt 0.03473 0.72211
vt 0.03473 0.74249
vt 0.03508 0.92322
vt 0.03508 0.95253
vt 0.04083 0.90963
vt 0.04083 0.96612
vt 0.04386 0.93180
vt 0.04386 0.94395
vt 0.05556 0.45039
vt 0.05556 0.72211
vt 0.05775 0.92618
vt 0.05775 0.94957
vt 0.06461 0.45039
vt 0.06461 0.72211
vt 0.06680 0.92642
vt 0.06680 0.95035
vt 0.07251 0.95421
vt 0.07264 0.91814
vt 0.07567 0.93777
vt 0.08139 0.94162
vt 0.08545 0.43001
vt 0.08545 0.45039
vt 0.08545 0.72211
vt 0.08545 0.74249
vt 0.08664 0.92222
vt 0.09235 0.92607
vt 0.09538 0.94570
vt 0.09551 0.90963
vt 0.09934 0.43001
vt 0.09934 0.45039
vt 0.09934 0.72211
vt 0.09934 0.74249
vt 0.10123 0.91349
vt 0.10123 0.93742
vt 0.11027 0.91349
vt 0.11027 0.93742
vt 0.11599 0.90963
vt 0.11612 0.94570
vt 0.11915 0.92607
vt 0.12017 0.45039
vt 0.12017 0.72211
vt 0.12487 0.92222
vt 0.12501 0.75134
vt 0.12501 0.76492
vt 0.12501 0.88720
vt 0.12501 0.90078
vt 0.12922 0.43064
vt 0.12922 0.72474
vt 0.13011 0.94162
vt 0.13583 0.93777
vt 0.13886 0.91814
vt 0.13890 0.76492
vt 0.13890 0.88720
vt 0.13899 0.95421
vt 0.14285 0.71890
vt 0.14310 0.43001
vt 0.14369 0.73664
vt 0.14470 0.92642
vt 0.14470 0.95035
vt 0.15673 0.71827
vt 0.15757 0.73601
vt 0.16378 0.91670
vt 0.16378 0.94010
vt 0.17085 0.72285
vt 0.17242 0.76203
vt 0.17242 0.88749
vt 0.17767 0.92233
vt 0.17767 0.93447
vt 0.17990 0.44380
vt 0.18069 0.90016
vt 0.18069 0.95664
vt 0.18305 0.74549
vt 0.18644 0.91375
vt 0.18644 0.94306
vt 0.19318 0.43064
vt 0.19402 0.44838
vt 0.19697 0.74766
vt 0.19697 0.76584
vt 0.19697 0.89131
vt 0.19886 0.91375
vt 0.19886 0.94306
vt 0.20461 0.90016
vt 0.20461 0.95664
vt 0.20706 0.43001
vt 0.20763 0.92233
vt 0.20763 0.93447
vt 0.20765 0.73664
vt 0.20789 0.44775
vt 0.21089 0.74549
vt 0.22152 0.44192
vt 0.22152 0.73601
vt 0.22152 0.76203
vt 0.22152 0.88749
vt 0.22152 0.91670
vt 0.22152 0.94010
vt 0.23057 0.45039
vt 0.23057 0.64059
vt 0.23057 0.69020
vt 0.23057 0.82606
vt 0.23057 0.85613
vt 0.23057 0.96579
vt 0.23747 0.85529
vt 0.24434 0.96398
vt 0.24608 0.97759
vt 0.25123 0.96313
vt 0.25141 0.66982
vt 0.25141 0.69020
vt 0.25141 0.82606
vt 0.25141 0.84644
vt 0.25297 0.97675
vt 0.26503 0.96158
vt 0.27408 0.87641
vt 0.27408 0.89530
vt 0.27408 0.93728
vt 0.27408 0.95212
vt 0.27778 0.02038
vt 0.27778 0.40078
vt 0.27809 0.00000
vt 0.27809 0.42116
vt 0.28039 0.92528
vt 0.28039 0.96412
vt 0.28543 0.86113
vt 0.28543 0.91059
vt 0.28789 0.88093
vt 0.28789 0.89099
vt 0.29059 0.92528
vt 0.29059 0.93728
vt 0.29059 0.95212
vt 0.29059 0.96412
vt 0.29394 0.87279
vt 0.29394 0.89914
vt 0.29892 0.02038
vt 0.29892 0.40078
vt 0.30079 0.92528
vt 0.30079 0.96412
vt 0.30373 0.86968
vt 0.30373 0.90225
vt 0.30380 0.85529
vt 0.30380 0.91643
vt 0.30709 0.93728
vt 0.30709 0.95212
vt 0.30797 0.02038
vt 0.30797 0.40078
vt 0.31351 0.87279
vt 0.31351 0.89914
vt 0.31614 0.93728
vt 0.31614 0.95212
vt 0.31956 0.88093
vt 0.31956 0.89100
vt 0.32217 0.86113
vt 0.32217 0.91059
vt 0.32245 0.92528
vt 0.32245 0.96412
vt 0.33265 0.92528
vt 0.33265 0.93728
vt 0.33265 0.95212
vt 0.33265 0.96412
vt 0.33353 0.87641
vt 0.33353 0.89530
vt 0.34258 0.87641
vt 0.34258 0.89530
vt 0.34285 0.92528
vt 0.34285 0.96412
vt 0.34916 0.93728
vt 0.34916 0.95212
vt 0.35393 0.86113
vt 0.35393 0.91059
vt 0.35655 0.88072
vt 0.35655 0.89078
vt 0.35820 0.92734
vt 0.35820 0.94582
vt 0.36260 0.87258
vt 0.36260 0.89892
vt 0.36762 0.95581
vt 0.36946 0.45039
vt 0.36946 0.64059
vt 0.36977 0.43001
vt 0.36977 0.66097
vt 0.37158 0.93376
vt 0.37230 0.85529
vt 0.37230 0.91643
vt 0.37238 0.86947
vt 0.37238 0.90203
vt 0.38100 0.92528
vt 0.38100 0.94375
vt 0.38216 0.87258
vt 0.38216 0.89892
vt 0.38644 0.95732
vt 0.38821 0.88072
vt 0.38821 0.89078
vt 0.39031 0.66982
vt 0.39031 0.69020
vt 0.39031 0.82606
vt 0.39031 0.84644
vt 0.39041 0.93527
vt 0.39060 0.45039
vt 0.39060 0.64059
vt 0.39067 0.86113
vt 0.39067 0.91059
vt 0.39946 0.93291
vt 0.39946 0.94371
vt 0.39965 0.45039
vt 0.39965 0.64059
vt 0.40202 0.87641
vt 0.40202 0.89530
vt 0.40727 0.92528
vt 0.40727 0.95135
vt 0.41107 0.87641
vt 0.41107 0.89531
vt 0.41115 0.69020
vt 0.41115 0.82606
vt 0.41285 0.93829
vt 0.41831 0.92528
vt 0.41831 0.95135
vt 0.42020 0.69020
vt 0.42020 0.82606
vt 0.42243 0.86113
vt 0.42243 0.91059
vt 0.42488 0.88072
vt 0.42488 0.89078
vt 0.42612 0.93291
vt 0.42612 0.94371
vt 0.43093 0.87258
vt 0.43093 0.89892
vt 0.43517 0.93291
vt 0.43517 0.94371
vt 0.44072 0.86947
vt 0.44072 0.90203
vt 0.44080 0.85529
vt 0.44080 0.91643
vt 0.44103 0.66982
vt 0.44103 0.69020
vt 0.44103 0.82606
vt 0.44103 0.84644
vt 0.44297 0.92528
vt 0.44297 0.95135
vt 0.44856 0.93834
vt 0.45050 0.87258
vt 0.45050 0.89892
vt 0.45401 0.92528
vt 0.45401 0.95135
vt 0.45655 0.88072
vt 0.45655 0.89078
vt 0.45917 0.86113
vt 0.45917 0.91059
vt 0.46182 0.93291
vt 0.46182 0.94371
vt 0.47052 0.87641
vt 0.47052 0.89530
vt 0.47957 0.87641
vt 0.47957 0.89530
vt 0.49092 0.86113
vt 0.49092 0.91059
vt 0.49338 0.88093
vt 0.49338 0.89099
vt 0.49943 0.87279
vt 0.49943 0.89914
vt 0.50921 0.86968
vt 0.50921 0.90225
vt 0.50929 0.85529
vt 0.50929 0.91643
vt 0.51900 0.87279
vt 0.51900 0.89914
vt 0.52505 0.88093
vt 0.52505 0.89100
vt 0.52766 0.86113
vt 0.52766 0.91059
vt 0.53854 0.45039
vt 0.53854 0.64059
vt 0.53885 0.43001
vt 0.53885 0.66097
vt 0.53902 0.87641
vt 0.53902 0.89530
vt 0.54807 0.89142
vt 0.54807 0.93440
vt 0.54807 0.94924
vt 0.55437 0.92234
vt 0.55437 0.96118
vt 0.55720 0.86731
vt 0.55838 0.91349
vt 0.55968 0.45039
vt 0.55968 0.64059
vt 0.56457 0.92238
vt 0.56457 0.93446
vt 0.56457 0.94930
vt 0.56457 0.96122
vt 0.56650 0.89339
vt 0.56873 0.43001
vt 0.56873 0.63380
vt 0.57168 0.87972
vt 0.57235 0.90590
vt 0.57477 0.92234
vt 0.57477 0.96118
vt 0.57994 0.66982
vt 0.57994 0.69020
vt 0.57994 0.82606
vt 0.57994 0.84644
vt 0.58043 0.85529
vt 0.58108 0.93440
vt 0.58108 0.94924
vt 0.58485 0.87290
vt 0.58574 0.02038
vt 0.58574 0.40078
vt 0.58580 0.90993
vt 0.58605 0.00000
vt 0.58605 0.42116
vt 0.59074 0.43001
vt 0.59074 0.63380
vt 0.59830 0.87693
vt 0.59897 0.90311
vt 0.60077 0.69020
vt 0.60077 0.82606
vt 0.60415 0.86239
vt 0.60415 0.88944
vt 0.60689 0.02038
vt 0.60689 0.40078
vt 0.61293 0.43001
vt 0.61293 0.63380
vt 0.61594 0.02038
vt 0.61594 0.40078
vt 0.62198 0.43001
vt 0.62198 0.63380
vt 0.62198 0.65624
vt 0.62198 0.79210
vt 0.62198 0.81528
vt 0.62198 0.93849
vt 0.62888 0.81453
vt 0.63261 0.80568
vt 0.63576 0.93680
vt 0.63677 0.00000
vt 0.63677 0.42116
vt 0.63697 0.02038
vt 0.63697 0.40078
vt 0.63732 0.95050
vt 0.64267 0.93605
vt 0.64399 0.43001
vt 0.64399 0.63380
vt 0.64422 0.94975
vt 0.64653 0.64265
vt 0.64653 0.65624
vt 0.64653 0.79210
vt 0.64653 0.80568
vt 0.65086 0.02038
vt 0.65086 0.40078
vt 0.65649 0.93475
vt 0.65991 0.02038
vt 0.65991 0.40078
vt 0.66046 0.64265
vt 0.66618 0.43001
vt 0.66618 0.63380
vt 0.67109 0.65624
vt 0.67109 0.79210
vt 0.67380 0.02038
vt 0.67380 0.40078
vt 0.67400 0.00000
vt 0.67400 0.42116
vt 0.67523 0.44798
vt 0.67523 0.49277
vt 0.67523 0.53755
vt 0.67523 0.58234
vt 0.67531 0.43001
vt 0.67531 0.46595
vt 0.67531 0.47480
vt 0.67531 0.51073
vt 0.67531 0.51958
vt 0.67531 0.55552
vt 0.67531 0.56437
vt 0.67531 0.60031
vt 0.68217 0.44798
vt 0.68217 0.49277
vt 0.68217 0.53755
vt 0.68217 0.58234
vt 0.68226 0.43001
vt 0.68226 0.46595
vt 0.68226 0.47480
vt 0.68226 0.51073
vt 0.68226 0.51958
vt 0.68226 0.55552
vt 0.68226 0.56437
vt 0.68226 0.60031
vt 0.69484 0.02038
vt 0.69484 0.40078
vt 0.69645 0.70081
vt 0.69645 0.82628
vt 0.69645 0.85250
vt 0.69645 0.96216
vt 0.70334 0.85166
vt 0.70389 0.01359
vt 0.70389 0.32606
vt 0.70389 0.36208
vt 0.70389 0.67456
vt 0.70708 0.84281
vt 0.71022 0.96035
vt 0.71196 0.97396
vt 0.71711 0.95951
vt 0.71778 0.00000
vt 0.71778 0.01359
vt 0.71778 0.32606
vt 0.71778 0.33965
vt 0.71778 0.34850
vt 0.71778 0.36208
vt 0.71778 0.67456
vt 0.71778 0.68814
vt 0.71885 0.97312
vt 0.72101 0.69700
vt 0.72101 0.82246
vt 0.72101 0.84065
vt 0.73091 0.95796
vt 0.73167 0.00000
vt 0.73167 0.01359
vt 0.73167 0.32606
vt 0.73167 0.33965
vt 0.73167 0.34850
vt 0.73167 0.36208
vt 0.73167 0.67456
vt 0.73167 0.68814
vt 0.73493 0.84281
vt 0.74556 0.01359
vt 0.74556 0.32606
vt 0.74556 0.36208
vt 0.74556 0.67456
vt 0.74556 0.70081
vt 0.74556 0.82628
vt 0.74764 0.88819
vt 0.74764 0.91524
vt 0.75281 0.87452
vt 0.75348 0.90070
vt 0.75461 0.02038
vt 0.75461 0.21058
vt 0.75461 0.26019
vt 0.75461 0.45039
vt 0.75461 0.47962
vt 0.75461 0.68341
vt 0.75461 0.70585
vt 0.75461 0.84170
vt 0.76524 0.69226
vt 0.76599 0.86770
vt 0.76694 0.90473
vt 0.77136 0.92234
vt 0.77544 0.23981
vt 0.77544 0.47077
vt 0.77565 0.26019
vt 0.77565 0.45039
vt 0.77657 0.47962
vt 0.77657 0.68341
vt 0.77916 0.69226
vt 0.77916 0.70585
vt 0.77916 0.84170
vt 0.77916 0.85529
vt 0.77944 0.87172
vt 0.78011 0.89791
vt 0.78529 0.88424
vt 0.79309 0.85529
vt 0.79340 0.86414
vt 0.79459 0.91031
vt 0.79880 0.47962
vt 0.79880 0.68341
vt 0.80372 0.70585
vt 0.80372 0.84170
vt 0.80372 0.88621
vt 0.80785 0.47962
vt 0.80785 0.68341
vt 0.81277 0.70585
vt 0.81277 0.82812
vt 0.81277 0.86414
vt 0.81277 0.98641
vt 0.82666 0.69226
vt 0.82666 0.70585
vt 0.82666 0.82812
vt 0.82666 0.84170
vt 0.82666 0.85056
vt 0.82666 0.86414
vt 0.82666 0.98641
vt 0.82666 1.00000
vt 0.82981 0.47962
vt 0.82981 0.68341
vt 0.85205 0.47962
vt 0.85205 0.68341
vt 0.86110 0.49321
vt 0.86110 0.61548
vt 0.86110 0.65470
vt 0.86110 0.67863
vt 0.86681 0.68249
vt 0.86694 0.64642
vt 0.86997 0.66605
vt 0.87499 0.47962
vt 0.87499 0.49321
vt 0.87499 0.61548
vt 0.87499 0.62907
vt 0.87569 0.66991
vt 0.88094 0.65050
vt 0.88665 0.65436
vt 0.88968 0.67399
vt 0.88981 0.63792
vt 0.89351 0.02038
vt 0.89351 0.21058
vt 0.89371 0.00000
vt 0.89371 0.23096
vt 0.89553 0.64177
vt 0.89553 0.66570
vt 0.90457 0.64177
vt 0.90457 0.66570
vt 0.91029 0.63792
vt 0.91042 0.67399
vt 0.91345 0.65436
vt 0.91454 0.02038
vt 0.91454 0.21058
vt 0.91454 0.26019
vt 0.91454 0.45039
vt 0.91916 0.65050
vt 0.92359 0.01575
vt 0.92359 0.14556
vt 0.92359 0.26878
vt 0.92359 0.30163
vt 0.92359 0.42485
vt 0.92359 0.44594
vt 0.92359 0.46442
vt 0.92441 0.66991
vt 0.93013 0.66605
vt 0.93050 0.14482
vt 0.93050 0.42560
vt 0.93301 0.43595
vt 0.93316 0.64642
vt 0.93329 0.68249
vt 0.93587 0.00075
vt 0.93697 0.45800
vt 0.93738 0.26708
vt 0.93738 0.30333
vt 0.93742 0.01445
vt 0.93778 0.69226
vt 0.93778 0.70585
vt 0.93778 0.82812
vt 0.93778 0.84170
vt 0.93778 0.85056
vt 0.93778 0.86414
vt 0.93778 0.98641
vt 0.93778 1.00000
vt 0.93893 0.28078
vt 0.93893 0.28963
vt 0.93900 0.65470
vt 0.93900 0.67863
vt 0.94277 0.00000
vt 0.94428 0.26633
vt 0.94428 0.30408
vt 0.94432 0.01370
vt 0.94583 0.28003
vt 0.94583 0.29038
vt 0.94639 0.44801
vt 0.94639 0.46649
vt 0.94805 0.64990
vt 0.94805 0.66474
vt 0.95120 0.13597
vt 0.95167 0.70585
vt 0.95167 0.82812
vt 0.95167 0.86414
vt 0.95167 0.98641
vt 0.95183 0.43445
vt 0.95436 0.63796
vt 0.95436 0.67680
vt 0.95580 0.45650
vt 0.95811 0.01200
vt 0.95811 0.13522
vt 0.95811 0.26503
vt 0.95811 0.30538
vt 0.96072 0.70406
vt 0.96072 0.81372
vt 0.96072 0.83941
vt 0.96456 0.63792
vt 0.96456 0.64984
vt 0.96456 0.66467
vt 0.96456 0.67676
vt 0.96761 0.81456
vt 0.97278 0.82425
vt 0.97449 0.70587
vt 0.97452 0.83786
vt 0.97476 0.63796
vt 0.97476 0.67680
vt 0.97623 0.69226
vt 0.97968 0.82341
vt 0.98106 0.64990
vt 0.98106 0.66474
vt 0.98138 0.70671
vt 0.98141 0.83702
vt 0.98312 0.69310
vt 0.98611 0.47962
vt 0.98611 0.49321
vt 0.98611 0.61548
vt 0.98611 0.62906
vt 0.98829 0.94571
vt 0.99518 0.70827
vt 0.99518 0.83521
vt 0.99518 0.94486
vt 1.00000 0.49321
vt 1.00000 0.61548
s 0
usemtl VisualScript_navy
f 11/3/27 3/18/27 4/19/27
f 11/3/27 4/19/27 12/4/27
f 11/327/39 9/340/39 3/330/39
f 12/343/40 4/354/40 10/356/40
f 12/343/96 10/356/96 292/357/96
f 12/343/96 292/357/96 294/344/96
f 14/217/20 40/218/20 42/133/20
f 14/217/20 42/133/20 16/132/20
f 16/132/1 13/216/1 14/217/1
f 16/132/1 15/131/1 13/216/1
f 2/25/20 10/20/20 4/19/20
f 2/25/20 8/26/20 10/20/20
f 255/336/152 275/320/152 276/319/152
f 255/336/152 276/319/152 256/335/152
f 255/530/137 257/519/137 275/521/137
f 256/199/138 276/201/138 258/220/138
f 256/199/84 258/220/84 40/221/84
f 256/199/84 40/221/84 38/200/84
f 258/318/160 276/319/160 278/256/160
f 258/318/160 278/256/160 260/255/160
f 259/258/159 275/320/159 257/321/159
f 259/258/159 277/257/159 275/320/159
f 259/305/144 261/292/144 277/294/144
f 260/467/90 40/532/90 258/533/90
f 260/467/90 42/466/90 40/532/90
f 261/292/95 259/305/95 41/306/95
f 261/292/95 41/306/95 43/293/95
f 262/226/101 261/292/101 43/293/101
f 262/226/101 43/293/101 44/227/101
f 262/239/167 277/257/167 261/240/167
f 262/239/167 278/256/167 277/257/167
f 262/455/145 260/467/145 278/465/145
f 277/257/178 276/319/178 275/320/178
f 277/257/178 278/256/178 276/319/178
f 287/405/139 289/377/139 295/379/139
f 287/65/152 295/55/152 296/54/152
f 287/65/152 296/54/152 288/64/152
f 288/140/140 296/142/140 290/156/140
f 288/140/84 290/156/84 8/157/84
f 288/140/84 8/157/84 6/141/84
f 290/53/160 296/54/160 298/46/160
f 290/53/160 298/46/160 292/45/160
f 291/339/142 293/326/142 297/329/142
f 291/48/159 295/55/159 289/56/159
f 291/48/159 297/47/159 295/55/159
f 292/357/90 10/356/90 8/367/90
f 292/357/90 8/367/90 290/368/90
f 293/326/95 291/339/95 9/340/95
f 293/326/95 9/340/95 11/327/95
f 294/166/101 11/327/101 12/167/101
f 294/166/101 293/326/101 11/327/101
f 294/344/143 292/357/143 298/355/143
f 294/37/167 297/47/167 293/38/167
f 294/37/167 298/46/167 297/47/167
f 297/47/178 296/54/178 295/55/178
f 297/47/178 298/46/178 296/54/178
f 37/531/33 13/522/33 39/520/33
f 37/531/83 257/519/83 255/530/83
f 37/531/83 39/520/83 257/519/83
f 38/200/34 40/221/34 14/202/34
f 38/200/78 255/120/78 256/199/78
f 38/200/78 37/121/78 255/120/78
f 38/235/12 13/216/12 37/234/12
f 38/235/12 14/217/12 13/216/12
f 39/215/19 13/216/19 15/131/19
f 39/215/19 15/131/19 41/130/19
f 4/19/1 1/24/1 2/25/1
f 4/19/1 3/18/1 1/24/1
f 41/453/89 257/519/89 39/520/89
f 41/453/89 259/452/89 257/519/89
f 43/122/27 15/131/27 16/132/27
f 43/122/27 16/132/27 44/123/27
f 43/293/41 41/306/41 15/295/41
f 44/454/42 16/464/42 42/466/42
f 44/454/96 260/467/96 262/455/96
f 44/454/96 42/466/96 260/467/96
f 5/406/36 1/380/36 7/378/36
f 5/406/83 289/377/83 287/405/83
f 5/406/83 7/378/83 289/377/83
f 6/141/37 8/157/37 2/143/37
f 6/141/78 287/1/78 288/140/78
f 6/141/78 5/2/78 287/1/78
f 6/34/12 1/24/12 5/33/12
f 6/34/12 2/25/12 1/24/12
f 7/23/19 1/24/19 3/18/19
f 7/23/19 3/18/19 9/17/19
f 9/371/89 289/377/89 7/378/89
f 9/371/89 291/370/89 289/377/89
usemtl VisualScript_grey_steel
f 113/422/18 135/413/18 137/412/18
f 113/422/18 137/412/18 115/421/18
f 115/421/1 114/435/1 113/422/1
f 115/421/1 116/434/1 114/435/1
f 133/423/13 113/422/13 114/435/13
f 133/423/13 114/435/13 134/436/13
f 133/572/44 135/546/44 113/581/44
f 133/572/79 134/584/79 160/573/79
f 133/572/79 160/573/79 159/550/79
f 134/81/45 114/72/45 136/79/45
f 134/81/85 136/79/85 162/84/85
f 134/81/85 162/84/85 160/85/85
f 136/443/21 114/435/21 116/434/21
f 136/443/21 116/434/21 138/442/21
f 138/71/91 162/84/91 136/79/91
f 138/71/91 164/80/91 162/84/91
f 139/108/38 115/114/38 137/112/38
f 139/108/94 137/112/94 163/100/94
f 139/108/94 163/100/94 165/99/94
f 139/420/26 116/434/26 115/421/26
f 139/420/26 140/433/26 116/434/26
f 140/203/43 138/195/43 116/194/43
f 159/440/153 160/427/153 184/426/153
f 159/440/153 184/426/153 183/439/153
f 159/550/132 183/541/132 161/540/132
f 159/550/82 135/546/82 133/572/82
f 159/550/82 161/540/82 135/546/82
f 160/85/133 162/84/133 184/88/133
f 163/100/88 135/115/88 161/111/88
f 163/100/88 137/112/88 135/115/88
f 163/444/158 161/445/158 183/439/158
f 163/444/158 183/439/158 185/438/158
f 164/198/146 166/209/146 186/212/146
f 164/414/161 184/426/161 162/415/161
f 164/414/161 186/425/161 184/426/161
f 165/219/100 140/203/100 139/208/100
f 165/219/100 166/209/100 140/203/100
f 165/437/166 185/438/166 186/425/166
f 165/437/166 186/425/166 166/424/166
f 165/99/141 163/100/141 185/93/141
f 166/209/97 138/195/97 140/203/97
f 166/209/97 164/198/97 138/195/97
f 17/110/1 19/105/1 21/98/1
f 17/110/1 21/98/1 24/91/1
f 184/426/178 185/438/178 183/439/178
f 184/426/178 186/425/178 185/438/178
f 20/104/1 18/109/1 17/110/1
f 21/98/1 23/92/1 24/91/1
f 228/69/20 242/70/20 244/12/20
f 228/69/20 244/12/20 230/11/20
f 230/11/1 227/68/1 228/69/1
f 230/11/1 229/10/1 227/68/1
f 239/418/33 227/410/33 241/417/33
f 239/418/83 241/417/83 249/419/83
f 239/418/83 249/419/83 247/428/83
f 24/91/1 20/104/1 17/110/1
f 24/91/1 22/97/1 20/104/1
f 240/569/35 242/566/35 228/585/35
f 240/77/12 227/68/12 239/76/12
f 240/77/12 228/69/12 227/68/12
f 241/67/19 227/68/19 229/10/19
f 241/67/19 229/10/19 243/9/19
f 243/409/89 249/419/89 241/417/89
f 243/409/89 251/411/89 249/419/89
f 245/5/27 229/10/27 230/11/27
f 245/5/27 230/11/27 246/6/27
f 245/551/46 243/562/46 229/537/46
f 246/536/101 253/567/101 245/551/101
f 246/536/101 254/544/101 253/567/101
f 246/608/47 230/614/47 244/606/47
f 246/608/96 244/606/96 252/598/96
f 246/608/96 252/598/96 254/602/96
f 247/428/137 249/419/137 271/432/137
f 247/578/152 271/556/152 272/555/152
f 247/578/152 272/555/152 248/577/152
f 248/553/138 272/535/138 250/549/138
f 248/553/78 239/586/78 247/576/78
f 248/553/78 240/569/78 239/586/78
f 248/553/84 242/566/84 240/569/84
f 248/553/84 250/549/84 242/566/84
f 250/554/160 272/555/160 274/492/160
f 250/554/160 274/492/160 252/491/160
f 251/494/159 271/556/159 249/557/159
f 251/494/159 273/493/159 271/556/159
f 251/570/134 253/567/134 273/587/134
f 252/598/90 242/596/90 250/590/90
f 252/598/90 244/606/90 242/596/90
f 253/567/95 243/562/95 245/551/95
f 253/567/95 251/570/95 243/562/95
f 254/487/167 273/493/167 253/488/167
f 254/487/167 274/492/167 273/493/167
f 254/602/135 252/598/135 274/589/135
f 26/611/20 48/612/20 50/513/20
f 26/611/20 50/513/20 28/512/20
f 264/8/154 279/22/154 263/16/154
f 264/8/154 280/14/154 279/22/154
f 265/30/155 263/16/155 279/22/155
f 265/30/155 279/22/155 281/28/155
f 265/30/157 281/28/157 283/32/157
f 265/30/157 283/32/157 267/36/157
f 266/7/156 280/14/156 264/8/156
f 266/7/156 282/13/156 280/14/156
f 267/36/163 283/32/163 285/31/163
f 267/36/163 285/31/163 269/35/163
f 268/15/162 282/13/162 266/7/162
f 268/15/162 284/21/162 282/13/162
f 269/35/165 285/31/165 286/27/165
f 269/35/165 286/27/165 270/29/165
f 270/29/164 284/21/164 268/15/164
f 270/29/164 286/27/164 284/21/164
f 273/493/178 272/555/178 271/556/178
f 273/493/178 274/492/178 272/555/178
f 28/512/1 25/610/1 26/611/1
f 28/512/1 27/511/1 25/610/1
f 280/14/178 282/13/178 284/21/178
f 280/14/178 284/21/178 285/31/178
f 281/28/178 279/22/178 280/14/178
f 284/21/178 286/27/178 285/31/178
f 285/31/178 281/28/178 280/14/178
f 285/31/178 283/32/178 281/28/178
f 29/469/80 264/456/80 263/468/80
f 29/469/80 30/457/80 264/456/80
f 30/118/14 17/110/14 18/109/14
f 30/118/14 29/119/14 17/110/14
f 30/118/16 18/109/16 20/104/16
f 30/118/16 20/104/16 32/106/16
f 30/374/86 266/360/86 264/373/86
f 30/374/86 32/361/86 266/360/86
f 31/107/15 17/110/15 29/119/15
f 31/107/15 19/105/15 17/110/15
f 31/481/81 263/468/81 265/480/81
f 31/481/81 29/469/81 263/468/81
f 32/106/22 20/104/22 22/97/22
f 32/106/22 22/97/22 34/94/22
f 32/361/92 268/345/92 266/360/92
f 32/361/92 34/346/92 268/345/92
f 33/332/87 265/312/87 267/331/87
f 33/332/87 31/313/87 265/312/87
f 33/95/17 19/105/17 31/107/17
f 33/95/17 21/98/17 19/105/17
f 34/502/98 270/499/98 268/501/98
f 34/502/98 36/500/98 270/499/98
f 34/94/24 22/97/24 24/91/24
f 34/94/24 24/91/24 36/86/24
f 35/342/93 267/331/93 269/341/93
f 35/342/93 33/332/93 267/331/93
f 35/87/23 21/98/23 33/95/23
f 35/87/23 23/92/23 21/98/23
f 35/87/25 24/91/25 23/92/25
f 35/87/25 36/86/25 24/91/25
f 36/500/99 269/485/99 270/499/99
f 36/500/99 35/486/99 269/485/99
f 45/128/33 25/125/33 47/127/33
f 45/128/83 47/127/83 55/129/83
f 45/128/83 55/129/83 53/134/83
f 46/568/34 48/571/34 26/588/34
f 46/618/12 25/610/12 45/617/12
f 46/618/12 26/611/12 25/610/12
f 47/609/19 25/610/19 27/511/19
f 47/609/19 27/511/19 49/510/19
f 49/124/89 55/129/89 47/127/89
f 49/124/89 57/126/89 55/129/89
f 51/353/46 49/358/46 27/350/46
f 51/503/27 27/511/27 28/512/27
f 51/503/27 28/512/27 52/504/27
f 52/349/101 59/359/101 51/353/101
f 52/349/101 60/351/101 59/359/101
f 52/603/47 28/615/47 50/607/47
f 52/603/96 50/607/96 58/599/96
f 52/603/96 58/599/96 60/597/96
f 53/134/136 55/129/136 69/135/136
f 53/580/152 69/560/152 70/559/152
f 53/580/152 70/559/152 54/579/152
f 54/552/138 70/538/138 56/563/138
f 54/552/78 45/545/78 53/539/78
f 54/552/78 46/568/78 45/545/78
f 54/552/84 48/571/84 46/568/84
f 54/552/84 56/563/84 48/571/84
f 56/558/160 70/559/160 72/496/160
f 56/558/160 72/496/160 58/495/160
f 57/362/134 59/359/134 71/369/134
f 57/498/159 69/560/159 55/561/159
f 57/498/159 71/497/159 69/560/159
f 58/599/90 48/616/90 56/613/90
f 58/599/90 50/607/90 48/616/90
f 59/359/95 49/358/95 51/353/95
f 59/359/95 57/362/95 49/358/95
f 60/489/167 71/497/167 59/490/167
f 60/489/167 72/496/167 71/497/167
f 60/597/135 58/599/135 72/591/135
f 71/497/178 70/559/178 69/560/178
f 71/497/178 72/496/178 70/559/178
usemtl VisualScript_cyan
f 101/472/29 108/483/29 126/477/29
f 101/472/29 126/477/29 117/473/29
f 102/449/32 118/451/32 128/462/32
f 102/449/32 128/462/32 110/463/32
f 102/471/30 127/460/30 118/470/30
f 102/471/31 109/458/31 127/460/31
f 102/471/5 108/483/5 101/472/5
f 102/471/5 110/482/5 108/483/5
f 107/322/28 101/337/28 117/333/28
f 107/322/28 117/333/28 125/325/28
f 108/408/55 110/407/55 150/429/55
f 108/408/55 150/429/55 144/430/55
f 108/408/67 143/431/67 126/416/67
f 108/408/67 144/430/67 143/431/67
f 109/458/2 101/472/2 107/459/2
f 109/458/2 102/471/2 101/472/2
f 110/463/69 128/462/69 153/475/69
f 110/463/69 153/475/69 150/479/69
f 111/152/8 119/165/8 129/159/8
f 111/152/8 129/159/8 123/153/8
f 112/151/3 119/165/3 111/152/3
f 112/151/3 121/164/3 119/165/3
f 118/451/100 127/448/100 147/450/100
f 118/451/100 147/450/100 182/474/100
f 119/575/56 148/595/56 129/583/56
f 119/575/56 151/594/56 148/595/56
f 120/139/9 111/152/9 123/153/9
f 120/139/9 123/153/9 130/145/9
f 121/574/53 151/594/53 119/575/53
f 121/574/53 154/593/53 151/594/53
f 122/138/4 111/152/4 120/139/4
f 122/138/4 112/151/4 111/152/4
f 124/150/10 121/164/10 112/151/10
f 124/150/10 131/158/10 121/164/10
f 124/230/64 158/236/64 131/224/64
f 125/325/79 117/333/79 126/338/79
f 126/338/79 143/334/79 172/328/79
f 126/338/79 172/328/79 171/311/79
f 131/224/76 158/236/76 156/225/76
f 131/582/58 154/593/58 121/574/58
f 131/582/58 156/592/58 154/593/58
f 132/144/11 112/151/11 122/138/11
f 132/144/11 124/150/11 112/151/11
f 132/237/65 158/236/65 124/230/65
f 142/103/52 109/116/52 107/117/52
f 142/103/52 145/102/52 109/116/52
f 142/303/110 141/314/110 171/311/110
f 142/303/110 171/311/110 189/298/110
f 142/303/66 107/322/66 125/325/66
f 142/303/66 125/325/66 141/314/66
f 145/102/112 173/96/112 147/101/112
f 145/102/112 191/89/112 173/96/112
f 145/102/68 127/113/68 109/116/68
f 145/102/68 147/101/68 127/113/68
f 146/261/102 148/271/102 167/265/102
f 146/261/103 168/250/103 149/249/103
f 146/261/114 167/265/114 175/260/114
f 146/261/115 175/260/115 168/250/115
f 146/261/62 123/264/62 129/270/62
f 146/261/63 130/259/63 123/264/63
f 146/261/74 129/270/74 148/271/74
f 146/261/75 149/249/75 130/259/75
f 147/450/100 173/461/100 182/474/100
f 149/310/57 120/324/57 130/317/57
f 149/310/57 152/309/57 120/324/57
f 150/429/127 190/447/127 144/430/127
f 150/429/127 192/446/127 190/447/127
f 150/479/113 153/475/113 174/476/113
f 150/479/113 174/476/113 192/484/113
f 151/594/120 167/601/120 148/595/120
f 151/594/120 177/605/120 167/601/120
f 153/475/100 128/462/100 118/451/100
f 154/593/125 177/605/125 151/594/125
f 154/593/125 179/604/125 177/605/125
f 155/308/54 120/324/54 152/309/54
f 155/308/54 122/323/54 120/324/54
f 156/225/104 158/236/104 169/231/104
f 156/592/122 169/600/122 179/604/122
f 156/592/122 179/604/122 154/593/122
f 157/245/77 158/236/77 132/237/77
f 157/307/59 122/323/59 155/308/59
f 157/307/59 132/316/59 122/323/59
f 169/176/170 176/178/170 188/179/170
f 169/176/170 188/179/170 179/170/170
f 169/231/116 158/236/116 176/238/116
f 170/246/105 158/236/105 157/245/105
f 171/311/79 125/325/79 126/338/79
f 171/311/79 141/314/79 125/325/79
f 172/328/79 181/315/79 171/311/79
f 176/178/171 170/186/171 180/188/171
f 176/178/171 180/188/171 188/179/171
f 176/238/117 158/236/117 170/246/117
f 177/171/168 175/181/168 167/177/168
f 177/171/168 187/180/168 175/181/168
f 178/300/121 149/310/121 168/302/121
f 178/300/121 152/309/121 149/310/121
f 179/170/175 187/180/175 177/171/175
f 179/170/175 188/179/175 187/180/175
f 180/299/123 157/307/123 155/308/123
f 180/299/123 170/301/123 157/307/123
f 180/299/126 152/309/126 178/300/126
f 180/299/126 155/308/126 152/309/126
f 182/474/100 153/475/100 118/451/100
f 182/474/100 174/476/100 153/475/100
f 187/180/169 168/187/169 175/181/169
f 187/180/169 178/189/169 168/187/169
f 188/179/176 178/189/176 187/180/176
f 188/179/176 180/188/176 178/189/176
f 189/298/147 171/311/147 181/315/147
f 189/298/147 181/315/147 197/304/147
f 190/447/111 143/431/111 144/430/111
f 190/447/111 172/441/111 143/431/111
f 191/89/124 142/103/124 189/90/124
f 191/89/124 145/102/124 142/103/124
f 192/347/177 197/365/177 190/348/177
f 192/347/177 198/364/177 197/365/177
f 197/365/148 172/352/148 190/348/148
f 197/365/148 181/366/148 172/352/148
f 197/365/174 191/375/174 189/376/174
f 197/365/174 198/364/174 191/375/174
f 198/364/149 182/363/149 173/372/149
f 198/364/150 173/372/150 191/375/150
f 198/478/151 174/476/151 182/474/151
f 198/478/151 192/484/151 174/476/151
usemtl VisualScript_green
f 103/542/159 93/528/159 95/526/159
f 103/542/159 95/526/159 105/529/159
f 103/542/178 105/529/178 106/534/178
f 103/542/178 106/534/178 104/543/178
f 104/136/129 90/149/129 98/137/129
f 104/136/129 94/148/129 90/149/129
f 105/229/130 91/213/130 99/228/130
f 105/229/130 95/214/130 91/213/130
f 105/529/173 100/527/173 106/534/173
f 105/529/173 99/525/173 100/527/173
f 106/146/131 100/162/131 92/160/131
f 106/146/131 92/160/131 96/154/131
f 106/534/160 94/564/160 104/543/160
f 106/534/160 96/547/160 94/564/160
f 61/184/48 73/192/48 77/193/48
f 61/184/48 77/193/48 65/185/48
f 61/514/6 65/507/6 66/506/6
f 61/514/6 66/506/6 62/509/6
f 62/175/49 66/163/49 78/161/49
f 62/175/49 78/161/49 74/169/49
f 62/509/20 74/505/20 76/508/20
f 62/509/20 76/508/20 64/515/20
f 63/190/50 67/204/50 79/206/50
f 63/190/50 79/206/50 75/196/50
f 63/516/1 61/514/1 62/509/1
f 63/516/1 62/509/1 64/515/1
f 63/516/19 73/517/19 61/514/19
f 63/516/19 75/524/19 73/517/19
f 64/183/51 76/173/51 80/172/51
f 64/183/51 80/172/51 68/182/51
f 65/386/60 81/381/60 82/393/60
f 65/386/60 82/393/60 66/398/60
f 66/163/71 82/147/71 84/155/71
f 66/163/71 84/155/71 78/161/71
f 67/204/72 85/210/72 79/206/72
f 67/204/72 87/222/72 85/210/72
f 67/523/7 63/516/7 64/515/7
f 67/523/7 64/515/7 68/518/7
f 68/182/73 80/172/73 86/168/73
f 68/182/73 86/168/73 88/174/73
f 74/169/90 78/161/90 84/155/90
f 74/169/90 84/155/90 94/148/90
f 74/169/90 94/148/90 92/160/90
f 75/196/89 79/206/89 85/210/89
f 75/196/89 85/210/89 95/214/89
f 77/193/89 73/192/89 75/196/89
f 80/172/90 76/173/90 74/169/90
f 81/191/106 83/197/106 89/207/106
f 81/191/106 89/207/106 97/205/106
f 81/191/70 65/185/70 77/193/70
f 81/191/70 77/193/70 83/197/70
f 81/381/118 97/385/118 98/397/118
f 81/381/118 98/397/118 82/393/118
f 84/155/90 90/149/90 94/148/90
f 85/210/89 91/213/89 95/214/89
f 87/394/61 67/400/61 68/388/61
f 87/394/61 68/388/61 88/382/61
f 88/174/109 86/168/109 92/160/109
f 88/174/109 92/160/109 100/162/109
f 89/207/89 83/197/89 77/193/89
f 92/160/90 80/172/90 74/169/90
f 92/160/90 86/168/90 80/172/90
f 94/148/90 96/154/90 92/160/90
f 95/214/89 77/193/89 75/196/89
f 95/214/89 89/207/89 77/193/89
f 95/214/89 93/211/89 89/207/89
f 97/205/128 89/207/128 93/211/128
f 97/205/128 93/211/128 103/223/128
f 97/548/172 103/542/172 104/543/172
f 97/548/172 104/543/172 98/565/172
f 98/137/107 84/155/107 82/147/107
f 98/137/107 90/149/107 84/155/107
f 99/228/108 85/210/108 87/222/108
f 99/228/108 91/213/108 85/210/108
f 99/399/119 87/394/119 88/382/119
f 99/399/119 88/382/119 100/387/119
usemtl VisualScript_grey
f 193/242/48 203/248/48 207/252/48
f 193/242/48 207/252/48 199/254/48
f 193/44/19 195/50/19 205/58/19
f 193/44/19 205/58/19 203/51/19
f 193/44/6 199/41/6 200/40/6
f 193/44/6 200/40/6 194/43/6
f 194/291/49 200/285/49 208/283/49
f 194/291/49 208/283/49 204/287/49
f 194/43/20 204/39/20 206/42/20
f 194/43/20 206/42/20 196/49/20
f 195/50/1 193/44/1 194/43/1
f 195/50/1 194/43/1 196/49/1
f 196/297/51 206/289/51 210/288/51
f 196/297/51 210/288/51 202/296/51
f 199/254/70 207/252/70 213/263/70
f 199/254/70 213/263/70 211/269/70
f 199/392/60 211/384/60 212/396/60
f 199/392/60 212/396/60 200/404/60
f 201/232/50 205/244/50 195/233/50
f 201/232/50 209/243/50 205/244/50
f 201/232/72 215/247/72 209/243/72
f 201/232/72 217/241/72 215/247/72
f 201/57/7 195/50/7 196/49/7
f 201/57/7 196/49/7 202/52/7
f 202/296/73 210/288/73 216/286/73
f 202/296/73 216/286/73 218/290/73
f 204/287/90 208/283/90 214/281/90
f 204/287/90 214/281/90 224/278/90
f 204/287/90 224/278/90 222/282/90
f 205/244/89 209/243/89 215/247/89
f 205/244/89 215/247/89 225/262/89
f 207/252/89 203/248/89 205/244/89
f 210/288/90 206/289/90 204/287/90
f 211/269/106 213/263/106 219/267/106
f 211/269/106 219/267/106 231/273/106
f 211/384/118 231/391/118 232/403/118
f 211/384/118 232/403/118 212/396/118
f 212/277/71 208/283/71 200/285/71
f 212/277/71 214/281/71 208/283/71
f 214/281/90 220/279/90 224/278/90
f 215/247/89 221/251/89 225/262/89
f 217/395/61 201/402/61 202/390/61
f 217/395/61 202/390/61 218/383/61
f 219/267/89 213/263/89 207/252/89
f 222/282/90 210/288/90 204/287/90
f 222/282/90 216/286/90 210/288/90
f 224/278/90 226/280/90 222/282/90
f 225/262/89 207/252/89 205/244/89
f 225/262/89 219/267/89 207/252/89
f 225/262/89 223/266/89 219/267/89
f 231/273/128 219/267/128 223/266/128
f 231/273/128 223/266/128 235/272/128
f 231/78/172 235/73/172 236/74/172
f 231/78/172 236/74/172 232/83/172
f 232/275/107 214/281/107 212/277/107
f 232/275/107 220/279/107 214/281/107
f 233/253/108 215/247/108 217/241/108
f 233/253/108 221/251/108 215/247/108
f 233/401/119 217/395/119 218/383/119
f 233/401/119 218/383/119 234/389/119
f 234/284/109 216/286/109 222/282/109
f 234/284/109 218/290/109 216/286/109
f 235/73/159 223/62/159 225/60/159
f 235/73/159 225/60/159 237/63/159
f 235/73/178 237/63/178 238/66/178
f 235/73/178 238/66/178 236/74/178
f 236/274/129 220/279/129 232/275/129
f 236/274/129 224/278/129 220/279/129
f 237/268/130 221/251/130 233/253/130
f 237/268/130 225/262/130 221/251/130
f 237/63/173 233/59/173 234/61/173
f 237/63/173 234/61/173 238/66/173
f 238/276/131 222/282/131 226/280/131
f 238/276/131 234/284/131 222/282/131
f 238/66/160 224/82/160 236/74/160
f 238/66/160 226/75/160 224/82/160
