# Blender 4.0.2
# www.blender.org
mtllib signal_lamp.mtl
o signal_lamp
v -0.250000 0.030000 -0.220000
v -0.250000 0.030000 0.220000
v -0.250000 0.090000 -0.220000
v -0.250000 0.090000 0.220000
v -0.220000 0.000000 -0.220000
v -0.220000 0.000000 0.220000
v -0.220000 0.030000 -0.250000
v -0.220000 0.030000 0.250000
v -0.220000 0.090000 -0.250000
v -0.220000 0.090000 0.250000
v -0.220000 0.120000 -0.220000
v -0.220000 0.120000 0.220000
v -0.180000 2.378000 -0.132000
v -0.180000 2.378000 0.132000
v -0.180000 2.382000 -0.132000
v -0.180000 2.382000 0.132000
v -0.162000 2.360000 -0.132000
v -0.162000 2.360000 0.132000
v -0.162000 2.378000 -0.150000
v -0.162000 2.378000 0.150000
v -0.162000 2.382000 -0.150000
v -0.162000 2.382000 0.150000
v -0.162000 2.400000 -0.132000
v -0.162000 2.400000 0.132000
v -0.150000 1.870000 -0.090000
v -0.150000 1.870000 0.090000
v -0.150000 2.350000 -0.090000
v -0.150000 2.350000 0.090000
v -0.120000 0.140000 0.000000
v -0.120000 0.200000 0.000000
v -0.120000 1.840000 -0.090000
v -0.120000 1.840000 0.090000
v -0.120000 1.870000 -0.120000
v -0.120000 1.870000 0.120000
v -0.120000 2.087000 0.132000
v -0.120000 2.087000 0.208000
v -0.120000 2.093000 0.132000
v -0.120000 2.093000 0.208000
v -0.120000 2.327000 0.132000
v -0.120000 2.327000 0.208000
v -0.120000 2.333000 0.132000
v -0.120000 2.333000 0.208000
v -0.120000 2.350000 -0.120000
v -0.120000 2.350000 0.120000
v -0.120000 2.380000 -0.090000
v -0.120000 2.380000 0.090000
v -0.108000 2.075000 0.132000
v -0.108000 2.075000 0.208000
v -0.108000 2.087000 0.120000
v -0.108000 2.087000 0.220000
v -0.108000 2.093000 0.120000
v -0.108000 2.093000 0.220000
v -0.108000 2.105000 0.132000
v -0.108000 2.105000 0.208000
v -0.108000 2.315000 0.132000
v -0.108000 2.315000 0.208000
v -0.108000 2.327000 0.120000
v -0.108000 2.327000 0.220000
v -0.108000 2.333000 0.120000
v -0.108000 2.333000 0.220000
v -0.108000 2.345000 0.132000
v -0.108000 2.345000 0.208000
v -0.100000 0.970000 -0.070000
v -0.100000 0.970000 0.070000
v -0.100000 1.130000 -0.070000
v -0.100000 1.130000 0.070000
v -0.098352 0.120000 0.000000
v -0.098352 0.220000 0.000000
v -0.085595 1.952188 0.135000
v -0.085595 1.952188 0.145000
v -0.085595 2.007812 0.135000
v -0.085595 2.007812 0.145000
v -0.085595 2.192189 0.135000
v -0.085595 2.192189 0.145000
v -0.085595 2.247812 0.135000
v -0.085595 2.247812 0.145000
v -0.084853 0.140000 -0.084853
v -0.084853 0.140000 0.084853
v -0.084853 0.200000 -0.084853
v -0.084853 0.200000 0.084853
v -0.070000 0.940000 -0.070000
v -0.070000 0.940000 0.070000
v -0.070000 0.970000 -0.100000
v -0.070000 0.970000 0.100000
v -0.070000 1.130000 -0.100000
v -0.070000 1.130000 0.100000
v -0.070000 1.160000 -0.070000
v -0.070000 1.160000 0.070000
v -0.069545 0.120000 -0.069545
v -0.069545 0.120000 0.069545
v -0.069545 0.220000 -0.069545
v -0.069545 0.220000 0.069545
v -0.065595 1.958687 0.115000
v -0.065595 1.958687 0.165000
v -0.065595 2.001313 0.115000
v -0.065595 2.001313 0.165000
v -0.065595 2.198687 0.115000
v -0.065595 2.198687 0.165000
v -0.065595 2.241313 0.115000
v -0.065595 2.241313 0.165000
v -0.060000 0.220000 0.000000
v -0.060000 1.840000 0.000000
v -0.052901 1.907189 0.135000
v -0.052901 1.907189 0.145000
v -0.052901 2.052812 0.135000
v -0.052901 2.052812 0.145000
v -0.052901 2.147188 0.135000
v -0.052901 2.147188 0.145000
v -0.052901 2.292812 0.135000
v -0.052901 2.292812 0.145000
v -0.042426 0.220000 -0.042426
v -0.042426 0.220000 0.042426
v -0.042426 1.840000 -0.042426
v -0.042426 1.840000 0.042426
v -0.040540 1.924201 0.115000
v -0.040540 1.924201 0.165000
v -0.040540 2.035799 0.115000
v -0.040540 2.035799 0.165000
v -0.040540 2.164201 0.115000
v -0.040540 2.164201 0.165000
v -0.040540 2.275799 0.115000
v -0.040540 2.275799 0.165000
v 0.000000 0.120000 -0.098352
v 0.000000 0.120000 0.098352
v 0.000000 0.140000 -0.120000
v 0.000000 0.140000 0.120000
v 0.000000 0.200000 -0.120000
v 0.000000 0.200000 0.120000
v 0.000000 0.220000 -0.098352
v 0.000000 0.220000 -0.060000
v 0.000000 0.220000 0.060000
v 0.000000 0.220000 0.098352
v 0.000000 1.840000 -0.060000
v 0.000000 1.840000 0.060000
v 0.000000 1.890000 0.135000
v 0.000000 1.890000 0.145000
v 0.000000 1.911029 0.115000
v -0.000000 1.911029 0.165000
v -0.000000 2.048971 0.115000
v 0.000000 2.048971 0.165000
v 0.000000 2.070000 0.135000
v 0.000000 2.070000 0.145000
v 0.000000 2.130000 0.135000
v 0.000000 2.130000 0.145000
v 0.000000 2.151029 0.115000
v -0.000000 2.151029 0.165000
v -0.000000 2.288971 0.115000
v 0.000000 2.288971 0.165000
v 0.000000 2.310000 0.135000
v 0.000000 2.310000 0.145000
v 0.040540 1.924201 0.115000
v 0.040540 1.924201 0.165000
v 0.040540 2.035799 0.115000
v 0.040540 2.035799 0.165000
v 0.040540 2.164201 0.115000
v 0.040540 2.164201 0.165000
v 0.040540 2.275799 0.115000
v 0.040540 2.275799 0.165000
v 0.042426 0.220000 -0.042426
v 0.042426 0.220000 0.042426
v 0.042426 1.840000 -0.042426
v 0.042426 1.840000 0.042426
v 0.052901 1.907189 0.135000
v 0.052901 1.907189 0.145000
v 0.052901 2.052812 0.135000
v 0.052901 2.052812 0.145000
v 0.052901 2.147188 0.135000
v 0.052901 2.147188 0.145000
v 0.052901 2.292812 0.135000
v 0.052901 2.292812 0.145000
v 0.060000 0.220000 0.000000
v 0.060000 1.840000 0.000000
v 0.065595 1.958687 0.115000
v 0.065595 1.958687 0.165000
v 0.065595 2.001313 0.115000
v 0.065595 2.001313 0.165000
v 0.065595 2.198687 0.115000
v 0.065595 2.198687 0.165000
v 0.065595 2.241313 0.115000
v 0.065595 2.241313 0.165000
v 0.069545 0.120000 -0.069545
v 0.069545 0.120000 0.069545
v 0.069545 0.220000 -0.069545
v 0.069545 0.220000 0.069545
v 0.070000 0.940000 -0.070000
v 0.070000 0.940000 0.070000
v 0.070000 0.970000 -0.100000
v 0.070000 0.970000 0.100000
v 0.070000 1.130000 -0.100000
v 0.070000 1.130000 0.100000
v 0.070000 1.160000 -0.070000
v 0.070000 1.160000 0.070000
v 0.084853 0.140000 -0.084853
v 0.084853 0.140000 0.084853
v 0.084853 0.200000 -0.084853
v 0.084853 0.200000 0.084853
v 0.085595 1.952188 0.135000
v 0.085595 1.952188 0.145000
v 0.085595 2.007812 0.135000
v 0.085595 2.007812 0.145000
v 0.085595 2.192189 0.135000
v 0.085595 2.192189 0.145000
v 0.085595 2.247812 0.135000
v 0.085595 2.247812 0.145000
v 0.098352 0.120000 0.000000
v 0.098352 0.220000 0.000000
v 0.100000 0.970000 -0.070000
v 0.100000 0.970000 0.070000
v 0.100000 1.130000 -0.070000
v 0.100000 1.130000 0.070000
v 0.108000 2.075000 0.132000
v 0.108000 2.075000 0.208000
v 0.108000 2.087000 0.120000
v 0.108000 2.087000 0.220000
v 0.108000 2.093000 0.120000
v 0.108000 2.093000 0.220000
v 0.108000 2.105000 0.132000
v 0.108000 2.105000 0.208000
v 0.108000 2.315000 0.132000
v 0.108000 2.315000 0.208000
v 0.108000 2.327000 0.120000
v 0.108000 2.327000 0.220000
v 0.108000 2.333000 0.120000
v 0.108000 2.333000 0.220000
v 0.108000 2.345000 0.132000
v 0.108000 2.345000 0.208000
v 0.120000 0.140000 0.000000
v 0.120000 0.200000 0.000000
v 0.120000 1.840000 -0.090000
v 0.120000 1.840000 0.090000
v 0.120000 1.870000 -0.120000
v 0.120000 1.870000 0.120000
v 0.120000 2.087000 0.132000
v 0.120000 2.087000 0.208000
v 0.120000 2.093000 0.132000
v 0.120000 2.093000 0.208000
v 0.120000 2.327000 0.132000
v 0.120000 2.327000 0.208000
v 0.120000 2.333000 0.132000
v 0.120000 2.333000 0.208000
v 0.120000 2.350000 -0.120000
v 0.120000 2.350000 0.120000
v 0.120000 2.380000 -0.090000
v 0.120000 2.380000 0.090000
v 0.150000 1.870000 -0.090000
v 0.150000 1.870000 0.090000
v 0.150000 2.350000 -0.090000
v 0.150000 2.350000 0.090000
v 0.162000 2.360000 -0.132000
v 0.162000 2.360000 0.132000
v 0.162000 2.378000 -0.150000
v 0.162000 2.378000 0.150000
v 0.162000 2.382000 -0.150000
v 0.162000 2.382000 0.150000
v 0.162000 2.400000 -0.132000
v 0.162000 2.400000 0.132000
v 0.180000 2.378000 -0.132000
v 0.180000 2.378000 0.132000
v 0.180000 2.382000 -0.132000
v 0.180000 2.382000 0.132000
v 0.220000 0.000000 -0.220000
v 0.220000 0.000000 0.220000
v 0.220000 0.030000 -0.250000
v 0.220000 0.030000 0.250000
v 0.220000 0.090000 -0.250000
v 0.220000 0.090000 0.250000
v 0.220000 0.120000 -0.220000
v 0.220000 0.120000 0.220000
v 0.250000 0.030000 -0.220000
v 0.250000 0.030000 0.220000
v 0.250000 0.090000 -0.220000
v 0.250000 0.090000 0.220000
vn -1.0000 -0.0000 -0.0000
vn -0.9239 -0.0000 -0.3827
vn -0.9239 -0.0000 0.3827
vn -0.8090 -0.5878 -0.0000
vn -0.8090 0.5878 -0.0000
vn -0.7071 -0.7071 -0.0000
vn -0.7071 -0.0000 -0.7071
vn -0.7071 -0.0000 0.7071
vn -0.7071 0.7071 -0.0000
vn -0.6533 -0.7071 -0.2706
vn -0.6533 -0.7071 0.2706
vn -0.6533 0.7071 -0.2706
vn -0.6533 0.7071 0.2706
vn -0.5774 -0.5774 -0.5774
vn -0.5774 -0.5774 -0.5773
vn -0.5774 -0.5774 0.5773
vn -0.5774 -0.5774 0.5774
vn -0.5774 -0.5773 -0.5774
vn -0.5774 -0.5773 -0.5773
vn -0.5774 -0.5773 0.5773
vn -0.5774 -0.5773 0.5774
vn -0.5774 0.5773 -0.5774
vn -0.5774 0.5773 -0.5773
vn -0.5774 0.5773 0.5773
vn -0.5774 0.5773 0.5774
vn -0.5774 0.5774 -0.5774
vn -0.5774 0.5774 -0.5773
vn -0.5774 0.5774 0.5773
vn -0.5774 0.5774 0.5774
vn -0.5773 0.5774 -0.5774
vn -0.5773 0.5774 0.5774
vn -0.5721 -0.4156 -0.7071
vn -0.5721 -0.4156 0.7071
vn -0.5721 0.4156 -0.7071
vn -0.5721 0.4156 0.7071
vn -0.3827 -0.0000 -0.9239
vn -0.3827 -0.0000 0.9239
vn -0.3090 -0.9511 -0.0000
vn -0.3090 0.9511 -0.0000
vn -0.2706 -0.7071 -0.6533
vn -0.2706 -0.7071 0.6533
vn -0.2706 0.7071 -0.6533
vn -0.2706 0.7071 0.6533
vn -0.2185 -0.6725 -0.7071
vn -0.2185 -0.6725 0.7071
vn -0.2185 0.6725 -0.7071
vn -0.2185 0.6725 0.7071
vn -0.0000 -1.0000 -0.0000
vn -0.0000 -0.7071 -0.7071
vn -0.0000 -0.7071 0.7071
vn -0.0000 -0.0000 -1.0000
vn -0.0000 -0.0000 1.0000
vn -0.0000 0.7071 -0.7071
vn -0.0000 0.7071 0.7071
vn -0.0000 1.0000 -0.0000
vn 0.2185 -0.6725 -0.7071
vn 0.2185 -0.6725 0.7071
vn 0.2185 0.6725 -0.7071
vn 0.2185 0.6725 0.7071
vn 0.2706 -0.7071 -0.6533
vn 0.2706 -0.7071 0.6533
vn 0.2706 0.7071 -0.6533
vn 0.2706 0.7071 0.6533
vn 0.3090 -0.9511 -0.0000
vn 0.3090 0.9511 -0.0000
vn 0.3827 -0.0000 -0.9239
vn 0.3827 -0.0000 0.9239
vn 0.5721 -0.4156 -0.7071
vn 0.5721 -0.4156 0.7071
vn 0.5721 0.4156 -0.7071
vn 0.5721 0.4156 0.7071
vn 0.5773 0.5774 -0.5774
vn 0.5773 0.5774 0.5774
vn 0.5774 -0.5774 -0.5774
vn 0.5774 -0.5774 -0.5773
vn 0.5774 -0.5774 0.5773
vn 0.5774 -0.5774 0.5774
vn 0.5774 -0.5773 -0.5774
vn 0.5774 -0.5773 -0.5773
vn 0.5774 -0.5773 0.5773
vn 0.5774 -0.5773 0.5774
vn 0.5774 0.5773 -0.5774
vn 0.5774 0.5773 -0.5773
vn 0.5774 0.5773 0.5773
vn 0.5774 0.5773 0.5774
vn 0.5774 0.5774 -0.5774
vn 0.5774 0.5774 -0.5773
vn 0.5774 0.5774 0.5773
vn 0.5774 0.5774 0.5774
vn 0.6533 -0.7071 -0.2706
vn 0.6533 -0.7071 0.2706
vn 0.6533 0.7071 -0.2706
vn 0.6533 0.7071 0.2706
vn 0.7071 -0.7071 -0.0000
vn 0.7071 -0.0000 -0.7071
vn 0.7071 -0.0000 0.7071
vn 0.7071 0.7071 -0.0000
vn 0.8090 -0.5878 -0.0000
vn 0.8090 0.5878 -0.0000
vn 0.9239 -0.0000 -0.3827
vn 0.9239 -0.0000 0.3827
vn 1.0000 -0.0000 -0.0000
vt 0.00000 0.00000
vt 0.00000 0.84267
vt 0.00000 0.86780
vt 0.00000 0.94063
vt 0.01579 0.85220
vt 0.01579 0.86780
vt 0.01579 0.94063
vt 0.01579 0.95623
vt 0.02233 0.00000
vt 0.02233 0.84267
vt 0.04466 0.00000
vt 0.04466 0.84267
vt 0.05430 0.00000
vt 0.05430 0.84267
vt 0.07685 0.00000
vt 0.07685 0.84267
vt 0.08947 0.85220
vt 0.08947 0.86780
vt 0.08947 0.94063
vt 0.08947 0.95623
vt 0.09894 0.00000
vt 0.09894 0.84267
vt 0.09911 0.88753
vt 0.09911 0.91553
vt 0.10859 0.00000
vt 0.10859 0.84267
vt 0.11271 0.89231
vt 0.11271 0.91376
vt 0.11517 0.86334
vt 0.11517 0.93664
vt 0.12502 0.87377
vt 0.12502 0.92994
vt 0.13068 0.00000
vt 0.13068 0.84267
vt 0.14116 0.85220
vt 0.14494 0.86523
vt 0.14494 0.93466
vt 0.15323 0.00000
vt 0.15323 0.84267
vt 0.16287 0.00000
vt 0.16287 0.84267
vt 0.16485 0.86995
vt 0.16485 0.92613
vt 0.16715 0.85836
vt 0.17716 0.88613
vt 0.17716 0.90759
vt 0.18680 0.87560
vt 0.18680 0.90454
vt 0.18701 0.00000
vt 0.18701 0.84267
vt 0.19043 0.87560
vt 0.19043 0.90454
vt 0.19665 0.00000
vt 0.19665 0.84267
vt 0.20290 0.85220
vt 0.20290 0.92795
vt 0.20531 0.87899
vt 0.20531 0.90116
vt 0.21487 0.86105
vt 0.21487 0.91910
vt 0.22079 0.00000
vt 0.22079 0.84267
vt 0.23043 0.01561
vt 0.23043 0.26528
vt 0.23043 0.30602
vt 0.23043 0.55570
vt 0.23043 0.58708
vt 0.23043 0.69944
vt 0.23043 0.70896
vt 0.23043 0.82132
vt 0.23043 0.83709
vt 0.23043 0.92032
vt 0.23043 0.93592
vt 0.23675 0.58084
vt 0.23675 0.58708
vt 0.23675 0.69944
vt 0.23675 0.70896
vt 0.23675 0.82132
vt 0.23675 0.82756
vt 0.27674 0.58084
vt 0.27674 0.58708
vt 0.27674 0.69944
vt 0.27674 0.70896
vt 0.27674 0.82132
vt 0.27674 0.82756
vt 0.28306 0.58708
vt 0.28306 0.69944
vt 0.28306 0.70896
vt 0.28306 0.82132
vt 0.29270 0.59644
vt 0.29270 0.67967
vt 0.29270 0.71006
vt 0.29270 0.81441
vt 0.29573 0.30602
vt 0.29573 0.55570
vt 0.29585 0.81459
vt 0.29884 0.71310
vt 0.29935 0.70480
vt 0.30200 0.71329
vt 0.30250 0.70499
vt 0.30358 0.58084
vt 0.30358 0.69527
vt 0.30411 0.83709
vt 0.30411 0.92032
vt 0.30411 0.93592
vt 0.30716 0.29042
vt 0.30716 0.57131
vt 0.30846 0.71099
vt 0.31502 0.59644
vt 0.31502 0.67967
vt 0.31805 0.30602
vt 0.31805 0.55570
vt 0.32769 0.30602
vt 0.32769 0.53490
vt 0.32769 0.56939
vt 0.32769 0.73793
vt 0.32769 0.79060
vt 0.32769 0.83838
vt 0.32769 0.90280
vt 0.32769 0.93080
vt 0.33716 0.56003
vt 0.33716 0.56939
vt 0.33716 0.73793
vt 0.33716 0.74729
vt 0.33821 0.79491
vt 0.33821 0.83407
vt 0.34129 0.90456
vt 0.34129 0.92602
vt 0.34348 0.29042
vt 0.34348 0.30602
vt 0.34348 0.53490
vt 0.34348 0.55050
vt 0.34375 0.88169
vt 0.34375 0.95498
vt 0.34452 0.01561
vt 0.34452 0.26528
vt 0.35129 0.00000
vt 0.35129 0.28089
vt 0.35360 0.88838
vt 0.35360 0.94455
vt 0.36187 0.75682
vt 0.36187 0.87216
vt 0.36556 0.01561
vt 0.36556 0.26528
vt 0.36623 0.76722
vt 0.36623 0.86175
vt 0.36974 0.96613
vt 0.37351 0.88366
vt 0.37351 0.95309
vt 0.37520 0.01561
vt 0.37520 0.26528
vt 0.38946 0.00000
vt 0.38946 0.28089
vt 0.39343 0.89220
vt 0.39343 0.94837
vt 0.39573 0.95997
vt 0.39623 0.01561
vt 0.39623 0.26528
vt 0.40574 0.91074
vt 0.40574 0.93219
vt 0.40585 0.76722
vt 0.40585 0.86175
vt 0.41021 0.75682
vt 0.41021 0.87216
vt 0.41538 0.91074
vt 0.41538 0.93219
vt 0.42539 0.95997
vt 0.42769 0.89220
vt 0.42769 0.94837
vt 0.43386 0.79491
vt 0.43386 0.83407
vt 0.44439 0.79060
vt 0.44439 0.83837
vt 0.44760 0.88366
vt 0.44760 0.95309
vt 0.45138 0.96613
vt 0.45403 0.79060
vt 0.45403 0.83838
vt 0.46455 0.79491
vt 0.46455 0.83407
vt 0.46752 0.88838
vt 0.46752 0.94455
vt 0.47611 0.56003
vt 0.47611 0.56939
vt 0.47611 0.73793
vt 0.47611 0.74729
vt 0.47737 0.88169
vt 0.47737 0.95498
vt 0.47983 0.90456
vt 0.47983 0.92602
vt 0.48558 0.56939
vt 0.48558 0.73793
vt 0.48821 0.75682
vt 0.48821 0.87216
vt 0.49257 0.76722
vt 0.49257 0.86175
vt 0.49343 0.90280
vt 0.49343 0.93080
vt 0.49522 0.72909
vt 0.50307 0.90509
vt 0.50307 0.93403
vt 0.50670 0.90509
vt 0.50670 0.93403
vt 0.51032 0.01561
vt 0.51032 0.26528
vt 0.51101 0.56003
vt 0.51101 0.71778
vt 0.51101 0.73984
vt 0.51917 0.88169
vt 0.51917 0.95743
vt 0.51997 0.01561
vt 0.51997 0.26528
vt 0.52158 0.90847
vt 0.52158 0.93065
vt 0.53085 0.00000
vt 0.53085 0.28089
vt 0.53114 0.89054
vt 0.53114 0.94859
vt 0.53218 0.76722
vt 0.53218 0.86175
vt 0.53654 0.75682
vt 0.53654 0.87216
vt 0.54078 0.89054
vt 0.54078 0.94859
vt 0.54229 0.01561
vt 0.54229 0.26528
vt 0.54259 0.56003
vt 0.54259 0.71778
vt 0.54259 0.73984
vt 0.55033 0.90847
vt 0.55033 0.93065
vt 0.55193 0.01561
vt 0.55193 0.24448
vt 0.55275 0.88169
vt 0.55275 0.95743
vt 0.55838 0.72909
vt 0.56020 0.79491
vt 0.56020 0.83407
vt 0.56521 0.90509
vt 0.56521 0.93403
vt 0.56772 0.00000
vt 0.56772 0.01561
vt 0.56772 0.24448
vt 0.56772 0.26008
vt 0.56802 0.56003
vt 0.56802 0.58344
vt 0.56802 0.61237
vt 0.56802 0.63578
vt 0.56802 0.64531
vt 0.56802 0.66872
vt 0.56802 0.69765
vt 0.56802 0.72106
vt 0.56802 0.74322
vt 0.56820 0.73564
vt 0.57005 0.73312
vt 0.57072 0.79060
vt 0.57072 0.83838
vt 0.57328 0.56003
vt 0.57328 0.58344
vt 0.57328 0.61237
vt 0.57328 0.63578
vt 0.57328 0.64531
vt 0.57328 0.66872
vt 0.57328 0.69765
vt 0.57328 0.72106
vt 0.57505 0.29042
vt 0.57505 0.30602
vt 0.57505 0.53490
vt 0.57505 0.55050
vt 0.57543 0.74082
vt 0.57728 0.73059
vt 0.57728 0.73829
vt 0.58037 0.76946
vt 0.58055 0.76188
vt 0.58240 0.75935
vt 0.58778 0.76706
vt 0.58873 0.56003
vt 0.58873 0.69735
vt 0.58907 0.86742
vt 0.58907 0.94024
vt 0.58963 0.75682
vt 0.58963 0.76453
vt 0.59084 0.30602
vt 0.59084 0.53490
vt 0.59084 0.56003
vt 0.59084 0.69735
vt 0.60048 0.29042
vt 0.60048 0.54010
vt 0.60048 0.54963
vt 0.60048 0.77850
vt 0.60048 0.78803
vt 0.60048 0.83574
vt 0.60486 0.85181
vt 0.60486 0.86742
vt 0.60486 0.94024
vt 0.60486 0.95585
vt 0.63206 0.54963
vt 0.63206 0.77850
vt 0.63206 0.78803
vt 0.63206 0.83574
vt 0.64170 0.55751
vt 0.64170 0.71403
vt 0.64170 0.72993
vt 0.64170 0.84228
vt 0.64380 0.71416
vt 0.64802 0.72369
vt 0.64802 0.72993
vt 0.64802 0.84228
vt 0.65091 0.56208
vt 0.65167 0.54963
vt 0.65301 0.56220
vt 0.65377 0.54975
vt 0.66271 0.55875
vt 0.67236 0.55875
vt 0.67854 0.85181
vt 0.67854 0.86742
vt 0.67854 0.94024
vt 0.67854 0.95585
vt 0.68130 0.54975
vt 0.68205 0.56220
vt 0.68340 0.54963
vt 0.68416 0.56208
vt 0.68801 0.72369
vt 0.68801 0.72993
vt 0.68801 0.84228
vt 0.69127 0.71416
vt 0.69337 0.55751
vt 0.69337 0.71403
vt 0.69433 0.72993
vt 0.69433 0.84228
vt 0.69433 0.86742
vt 0.69433 0.94024
vt 0.69521 0.29042
vt 0.69521 0.54010
vt 0.70486 0.50384
vt 0.70486 0.54156
vt 0.70486 0.77070
vt 0.70486 0.91135
vt 0.70486 0.93244
vt 0.71082 0.76470
vt 0.71132 0.77300
vt 0.71397 0.76451
vt 0.71447 0.77281
vt 0.71538 0.88383
vt 0.71538 0.91135
vt 0.71538 0.93887
vt 0.71538 0.95587
vt 0.71746 0.87430
vt 0.72062 0.76977
vt 0.72062 0.87412
vt 0.72064 0.29042
vt 0.72064 0.49715
vt 0.72064 0.51794
vt 0.72064 0.52747
vt 0.72064 0.54826
vt 0.72064 0.75498
vt 0.72064 0.88383
vt 0.72064 0.91135
vt 0.72064 0.93887
vt 0.72064 0.95587
vt 0.73026 0.76977
vt 0.73026 0.87412
vt 0.73117 0.91135
vt 0.73117 0.93244
vt 0.73341 0.87430
vt 0.73640 0.77281
vt 0.73690 0.76451
vt 0.73955 0.77300
vt 0.74006 0.76470
vt 0.74081 0.91135
vt 0.74081 0.93244
vt 0.74602 0.77070
vt 0.75134 0.88383
vt 0.75134 0.91135
vt 0.75134 0.93887
vt 0.75134 0.95587
vt 0.75222 0.29042
vt 0.75222 0.49715
vt 0.75222 0.51794
vt 0.75222 0.52747
vt 0.75222 0.54826
vt 0.75222 0.75498
vt 0.75660 0.88383
vt 0.75660 0.91135
vt 0.75660 0.93887
vt 0.75660 0.95587
vt 0.76713 0.91135
vt 0.76713 0.93244
vt 0.76801 0.50384
vt 0.76801 0.54156
vt 0.77765 0.29978
vt 0.77765 0.46831
vt 0.77765 0.50281
vt 0.77765 0.62765
vt 0.77765 0.66839
vt 0.77765 0.79323
vt 0.77765 0.83397
vt 0.77765 0.91720
vt 0.77765 0.95922
vt 0.77765 0.98311
vt 0.78713 0.29042
vt 0.78713 0.29978
vt 0.78713 0.46831
vt 0.78713 0.47768
vt 0.79191 0.81837
vt 0.79191 0.93280
vt 0.79344 0.48721
vt 0.79344 0.50281
vt 0.79344 0.62765
vt 0.79344 0.64326
vt 0.79344 0.65279
vt 0.79344 0.66839
vt 0.79344 0.79323
vt 0.79344 0.80884
vt 0.79474 0.94233
vt 0.79474 1.00000
vt 0.79869 0.83397
vt 0.79869 0.91720
vt 0.79929 0.00000
vt 0.79929 0.01561
vt 0.79929 0.24448
vt 0.79929 0.26008
vt 0.81508 0.01561
vt 0.81508 0.24448
vt 0.81891 0.94233
vt 0.81891 1.00000
vt 0.82472 0.00000
vt 0.82472 0.11236
vt 0.82472 0.14373
vt 0.82472 0.22696
vt 0.82472 0.26894
vt 0.82499 0.25757
vt 0.82622 0.25589
vt 0.83103 0.00000
vt 0.83103 0.11236
vt 0.83103 0.11860
vt 0.83584 0.26534
vt 0.83600 0.95922
vt 0.83600 0.98311
vt 0.83707 0.25209
vt 0.83707 0.26365
vt 0.86524 0.83397
vt 0.86524 0.91720
vt 0.87103 0.00000
vt 0.87103 0.11236
vt 0.87103 0.11860
vt 0.87488 0.83397
vt 0.87488 0.91720
vt 0.87735 0.00000
vt 0.87735 0.11236
vt 0.88699 0.00619
vt 0.88818 0.48721
vt 0.88818 0.50281
vt 0.88818 0.62765
vt 0.88818 0.64326
vt 0.88818 0.65279
vt 0.88818 0.66839
vt 0.88818 0.79323
vt 0.88818 0.80884
vt 0.89127 0.14373
vt 0.89127 0.22696
vt 0.89295 0.00019
vt 0.89346 0.00849
vt 0.89611 0.00000
vt 0.89661 0.00830
vt 0.89805 0.12813
vt 0.89805 0.24256
vt 0.89960 0.10979
vt 0.90275 0.00526
vt 0.90275 0.10960
vt 0.90397 0.50281
vt 0.90397 0.62765
vt 0.90397 0.66839
vt 0.90397 0.79323
vt 0.91231 0.14373
vt 0.91231 0.22696
vt 0.91239 0.00557
vt 0.91239 0.10743
vt 0.91361 0.48721
vt 0.91361 0.53134
vt 0.91361 0.57548
vt 0.91361 0.58501
vt 0.91361 0.62868
vt 0.91361 0.67326
vt 0.91361 0.68279
vt 0.91361 0.72646
vt 0.91361 0.77104
vt 0.91449 0.10762
vt 0.92120 0.01318
vt 0.92195 0.15718
vt 0.92195 0.17863
vt 0.92195 0.23899
vt 0.92195 0.26288
vt 0.92243 0.00000
vt 0.92329 0.01337
vt 0.92452 0.00019
vt 0.92567 0.83397
vt 0.92567 0.91720
vt 0.92607 0.29042
vt 0.92607 0.29978
vt 0.92607 0.46831
vt 0.92607 0.47768
vt 0.93196 0.20641
vt 0.93336 0.00748
vt 0.93426 0.13864
vt 0.93426 0.19481
vt 0.93554 0.29978
vt 0.93554 0.46831
vt 0.93711 0.81837
vt 0.93711 0.93280
vt 0.93904 0.22210
vt 0.93904 0.27977
vt 0.94300 0.00885
vt 0.94300 0.06690
vt 0.94518 0.31385
vt 0.94518 0.33494
vt 0.94518 0.39543
vt 0.94518 0.41651
vt 0.94518 0.48721
vt 0.94518 0.53134
vt 0.94518 0.57548
vt 0.94518 0.58501
vt 0.94518 0.62868
vt 0.94518 0.67326
vt 0.94518 0.68279
vt 0.94518 0.72646
vt 0.94518 0.77104
vt 0.94799 0.83397
vt 0.94799 0.91720
vt 0.95255 0.02679
vt 0.95255 0.04896
vt 0.95417 0.13010
vt 0.95417 0.19953
vt 0.95483 0.50281
vt 0.95483 0.53402
vt 0.95483 0.55916
vt 0.95483 0.60687
vt 0.95483 0.61640
vt 0.95483 0.65593
vt 0.95483 0.66546
vt 0.95483 0.70499
vt 0.95483 0.71512
vt 0.95483 0.74750
vt 0.95483 0.76065
vt 0.95483 0.79303
vt 0.95497 0.00000
vt 0.95497 0.07575
vt 0.95571 0.29042
vt 0.95571 0.30743
vt 0.95571 0.33494
vt 0.95571 0.36246
vt 0.95571 0.37199
vt 0.95571 0.38899
vt 0.95571 0.41651
vt 0.95571 0.44403
vt 0.95792 0.71452
vt 0.95792 0.76005
vt 0.95795 0.21257
vt 0.96014 0.74186
vt 0.96014 0.78739
vt 0.96097 0.29042
vt 0.96097 0.30743
vt 0.96097 0.33494
vt 0.96097 0.36246
vt 0.96097 0.37199
vt 0.96097 0.38899
vt 0.96097 0.41651
vt 0.96097 0.44403
vt 0.96114 0.61640
vt 0.96114 0.65593
vt 0.96114 0.66546
vt 0.96114 0.70499
vt 0.96186 0.75052
vt 0.96186 0.79605
vt 0.96321 0.22210
vt 0.96321 0.27977
vt 0.96324 0.74126
vt 0.96324 0.78679
vt 0.96430 0.61640
vt 0.96430 0.65593
vt 0.96430 0.66546
vt 0.96430 0.70499
vt 0.96496 0.74992
vt 0.96496 0.79545
vt 0.96571 0.48721
vt 0.96571 0.54963
vt 0.96743 0.02341
vt 0.96743 0.05234
vt 0.97032 0.74449
vt 0.97032 0.79002
vt 0.97062 0.61640
vt 0.97062 0.65593
vt 0.97062 0.66546
vt 0.97062 0.70499
vt 0.97150 0.31385
vt 0.97150 0.33494
vt 0.97150 0.39543
vt 0.97150 0.41651
vt 0.97409 0.13482
vt 0.97409 0.19099
vt 0.97715 0.50281
vt 0.97715 0.53402
vt 0.98030 0.23899
vt 0.98030 0.26288
vt 0.98394 0.12813
vt 0.98394 0.20143
vt 0.98640 0.15100
vt 0.98640 0.17246
vt 0.98640 0.55916
vt 0.98640 0.60687
vt 1.00000 0.14924
vt 1.00000 0.17724
s 0
usemtl VisualScript_navy
f 11/130/9 3/129/9 4/266/9
f 11/130/9 4/266/9 12/267/9
f 11/236/26 9/229/26 3/228/26
f 12/267/54 10/283/54 266/284/54
f 12/267/54 266/284/54 268/268/54
f 12/585/29 4/601/29 10/534/29
f 14/437/8 20/432/8 22/433/8
f 14/437/8 22/433/8 16/441/8
f 16/478/1 13/495/1 14/488/1
f 16/478/1 15/489/1 13/495/1
f 17/403/49 19/392/49 251/391/49
f 17/403/49 251/391/49 249/402/49
f 17/504/19 13/495/19 19/496/19
f 18/431/20 20/432/20 14/437/20
f 18/501/48 17/403/48 249/402/48
f 18/501/48 249/402/48 250/500/48
f 18/501/6 13/404/6 17/403/6
f 18/501/6 14/502/6 13/404/6
f 19/496/7 13/495/7 15/489/7
f 19/496/7 15/489/7 21/494/7
f 2/602/8 10/534/8 4/601/8
f 2/602/8 8/535/8 10/534/8
f 21/302/51 251/311/51 19/305/51
f 21/302/51 253/309/51 251/311/51
f 229/138/75 231/136/75 245/144/75
f 229/412/94 245/411/94 246/456/94
f 229/412/94 246/456/94 230/457/94
f 23/122/9 15/121/9 16/183/9
f 23/122/9 16/183/9 24/184/9
f 23/477/23 21/494/23 15/489/23
f 230/153/76 246/151/76 232/158/76
f 230/457/50 232/473/50 34/474/50
f 230/457/50 34/474/50 32/458/50
f 232/158/96 246/151/96 248/150/96
f 232/158/96 248/150/96 242/157/96
f 24/184/54 22/191/54 254/192/54
f 24/184/54 254/192/54 256/185/54
f 24/440/24 16/441/24 22/433/24
f 241/135/72 243/137/72 247/143/72
f 241/135/95 245/144/95 231/136/95
f 241/135/95 247/143/95 245/144/95
f 242/157/52 34/205/52 232/158/52
f 242/157/52 44/204/52 34/205/52
f 243/409/53 241/394/53 43/393/53
f 243/409/53 43/393/53 45/408/53
f 244/152/73 242/157/73 248/150/73
f 244/454/55 243/409/55 45/408/55
f 244/454/55 45/408/55 46/453/55
f 244/454/97 247/410/97 243/409/97
f 244/454/97 248/455/97 247/410/97
f 247/287/102 246/334/102 245/288/102
f 247/287/102 248/333/102 246/334/102
f 249/313/79 251/311/79 257/312/79
f 249/402/94 257/401/94 258/499/94
f 249/402/94 258/499/94 250/500/94
f 250/314/80 258/319/80 252/320/80
f 250/500/50 20/508/50 18/501/50
f 250/500/50 252/507/50 20/508/50
f 252/320/96 258/319/96 260/321/96
f 252/320/96 260/321/96 254/322/96
f 253/309/83 255/301/83 259/310/83
f 253/309/95 257/312/95 251/311/95
f 253/309/95 259/310/95 257/312/95
f 254/322/52 20/326/52 252/320/52
f 254/322/52 22/328/52 20/326/52
f 255/123/53 21/115/53 23/122/53
f 255/123/53 253/116/53 21/115/53
f 256/185/55 23/122/55 24/184/55
f 256/185/55 255/123/55 23/122/55
f 256/185/97 259/124/97 255/123/97
f 256/185/97 260/186/97 259/124/97
f 256/327/84 254/322/84 260/321/84
f 259/278/102 258/285/102 257/286/102
f 259/278/102 260/277/102 258/285/102
f 26/226/8 34/212/8 44/211/8
f 26/226/8 44/211/8 28/225/8
f 261/242/94 269/241/94 270/419/94
f 261/242/94 270/419/94 262/420/94
f 261/335/74 263/352/74 269/353/74
f 262/336/77 270/354/77 264/355/77
f 262/420/50 264/423/50 8/424/50
f 262/420/50 8/424/50 6/421/50
f 264/355/96 270/354/96 272/380/96
f 264/355/96 272/380/96 266/381/96
f 265/378/86 267/389/86 271/379/86
f 265/378/95 269/353/95 263/352/95
f 265/378/95 271/379/95 269/353/95
f 266/381/52 10/382/52 8/356/52
f 266/381/52 8/356/52 264/355/52
f 267/131/53 265/114/53 9/113/53
f 267/131/53 9/113/53 11/130/53
f 268/268/55 11/130/55 12/267/55
f 268/268/55 267/131/55 11/130/55
f 268/268/97 271/132/97 267/131/97
f 268/268/97 272/269/97 271/132/97
f 268/390/89 266/381/89 272/380/89
f 271/290/102 270/297/102 269/298/102
f 271/290/102 272/289/102 270/297/102
f 28/65/1 25/95/1 26/66/1
f 28/65/1 27/94/1 25/95/1
f 31/107/15 25/95/15 33/112/15
f 31/413/49 231/395/49 229/412/49
f 31/413/49 33/396/49 231/395/49
f 32/216/16 34/212/16 26/226/16
f 32/458/48 229/412/48 230/457/48
f 32/458/48 31/413/48 229/412/48
f 32/458/6 25/414/6 31/413/6
f 32/458/6 26/459/6 25/414/6
f 33/112/7 25/95/7 27/94/7
f 33/112/7 27/94/7 43/111/7
f 4/227/1 1/207/1 2/206/1
f 4/227/1 3/228/1 1/207/1
f 43/63/51 231/136/51 33/64/51
f 43/63/51 241/135/51 231/136/51
f 45/106/30 43/111/30 27/94/30
f 45/408/9 27/407/9 28/452/9
f 45/408/9 28/452/9 46/453/9
f 46/215/31 28/225/31 44/211/31
f 46/453/54 242/472/54 244/454/54
f 46/453/54 44/471/54 242/472/54
f 5/199/14 1/207/14 7/208/14
f 5/243/49 263/232/49 261/242/49
f 5/243/49 7/233/49 263/232/49
f 6/421/48 261/242/48 262/420/48
f 6/421/48 5/243/48 261/242/48
f 6/421/6 1/244/6 5/243/6
f 6/421/6 2/422/6 1/244/6
f 6/586/17 8/535/17 2/602/17
f 7/208/7 1/207/7 3/228/7
f 7/208/7 3/228/7 9/229/7
f 9/377/51 263/352/51 7/351/51
f 9/377/51 265/378/51 263/352/51
usemtl VisualScript_grey_steel
f 102/25/2 111/34/2 101/26/2
f 102/25/2 113/33/2 111/34/2
f 102/575/55 114/603/55 134/604/55
f 102/575/55 134/604/55 172/512/55
f 111/400/48 130/399/48 159/415/48
f 111/400/48 159/415/48 160/438/48
f 112/426/48 101/416/48 111/400/48
f 113/33/36 130/39/36 111/34/36
f 113/33/36 133/38/36 130/39/36
f 114/15/3 101/22/3 112/16/3
f 114/15/3 102/21/3 101/22/3
f 127/537/66 193/609/66 125/610/66
f 127/537/66 195/536/66 193/609/66
f 128/487/37 78/526/37 126/527/37
f 128/487/37 80/486/37 78/526/37
f 129/170/55 91/171/55 68/162/55
f 132/126/55 184/125/55 206/145/55
f 133/40/66 159/50/66 130/41/66
f 133/40/66 161/49/66 159/50/66
f 133/492/55 113/511/55 102/575/55
f 134/13/37 112/16/37 131/14/37
f 134/13/37 114/15/37 112/16/37
f 134/604/55 162/576/55 172/512/55
f 159/415/48 171/425/48 160/438/48
f 160/438/48 112/426/48 111/400/48
f 160/438/48 131/439/48 112/426/48
f 161/1/100 171/10/100 159/2/100
f 161/1/100 172/9/100 171/10/100
f 162/53/67 131/62/67 160/54/67
f 162/53/67 134/61/67 131/62/67
f 172/512/55 133/492/55 102/575/55
f 172/512/55 161/493/55 133/492/55
f 172/9/101 160/12/101 171/10/101
f 172/9/101 162/11/101 160/12/101
f 181/238/48 205/220/48 182/196/48
f 182/196/48 124/180/48 90/179/48
f 182/196/48 90/179/48 89/219/48
f 193/257/60 123/237/60 125/256/60
f 193/257/60 181/238/60 123/237/60
f 193/257/90 205/220/90 181/238/90
f 193/257/90 227/222/90 205/220/90
f 194/194/61 124/180/61 182/196/61
f 194/194/61 126/178/61 124/180/61
f 194/194/91 182/196/91 205/220/91
f 194/194/91 205/220/91 227/222/91
f 195/163/62 127/172/62 129/170/62
f 195/163/62 129/170/62 183/161/62
f 195/163/92 183/161/92 206/145/92
f 195/163/92 206/145/92 228/141/92
f 195/481/100 227/520/100 193/521/100
f 195/481/100 228/480/100 227/520/100
f 196/117/63 132/126/63 128/118/63
f 196/117/63 184/125/63 132/126/63
f 196/117/93 206/145/93 184/125/93
f 196/117/93 228/141/93 206/145/93
f 196/292/67 126/299/67 194/300/67
f 196/292/67 128/291/67 126/299/67
f 206/145/55 129/170/55 68/162/55
f 206/145/55 183/161/55 129/170/55
f 211/372/78 213/368/78 233/369/78
f 211/594/94 233/582/94 234/581/94
f 211/594/94 234/581/94 212/593/94
f 212/444/50 214/449/50 50/450/50
f 212/444/50 50/450/50 48/445/50
f 212/451/81 234/462/81 214/463/81
f 214/463/96 234/462/96 236/464/96
f 214/463/96 236/464/96 216/465/96
f 215/366/82 217/361/82 235/367/82
f 215/366/95 233/369/95 213/368/95
f 215/366/95 235/367/95 233/369/95
f 216/465/52 50/468/52 214/463/52
f 216/465/52 52/470/52 50/468/52
f 217/308/53 215/304/53 51/303/53
f 217/308/53 51/303/53 53/307/53
f 218/325/55 217/308/55 53/307/55
f 218/325/55 53/307/55 54/324/55
f 218/469/85 216/465/85 236/464/85
f 218/540/97 235/572/97 217/541/97
f 218/540/97 236/571/97 235/572/97
f 219/108/78 221/99/78 237/100/78
f 219/592/94 237/580/94 238/579/94
f 219/592/94 238/579/94 220/591/94
f 220/337/81 238/340/81 222/341/81
f 220/83/50 222/88/50 58/89/50
f 220/83/50 58/89/50 56/84/50
f 222/341/96 238/340/96 240/342/96
f 222/341/96 240/342/96 224/343/96
f 223/97/82 225/92/82 239/98/82
f 223/97/95 237/100/95 221/99/95
f 223/97/95 239/98/95 237/100/95
f 224/343/52 58/348/52 222/341/52
f 224/343/52 60/350/52 58/348/52
f 225/76/53 223/68/53 59/67/53
f 225/76/53 59/67/53 61/75/53
f 226/349/85 224/343/85 240/342/85
f 226/538/97 239/570/97 225/539/97
f 226/538/97 240/569/97 239/570/97
f 226/82/55 225/76/55 61/75/55
f 226/82/55 61/75/55 62/81/55
f 228/480/101 194/519/101 227/520/101
f 228/480/101 196/479/101 194/519/101
f 235/572/102 234/581/102 233/582/102
f 235/572/102 236/571/102 234/581/102
f 239/570/102 238/579/102 237/580/102
f 239/570/102 240/569/102 238/579/102
f 30/522/2 77/483/2 29/482/2
f 30/522/2 79/523/2 77/483/2
f 36/276/8 50/274/8 52/275/8
f 36/276/8 52/275/8 38/282/8
f 38/557/1 35/560/1 36/544/1
f 38/557/1 37/578/1 35/560/1
f 40/270/8 58/254/8 60/255/8
f 40/270/8 60/255/8 42/272/8
f 42/556/1 39/559/1 40/542/1
f 42/556/1 41/577/1 39/559/1
f 47/435/49 213/427/49 211/434/49
f 47/435/49 49/428/49 213/427/49
f 47/545/18 35/560/18 49/574/18
f 48/273/21 50/274/21 36/276/21
f 48/445/48 211/434/48 212/444/48
f 48/445/48 47/435/48 211/434/48
f 48/445/6 35/436/6 47/435/6
f 48/445/6 36/446/6 35/436/6
f 49/574/7 35/560/7 37/578/7
f 49/574/7 37/578/7 51/584/7
f 51/362/51 213/368/51 49/365/51
f 51/362/51 215/366/51 213/368/51
f 53/307/9 37/306/9 38/323/9
f 53/307/9 38/323/9 54/324/9
f 53/590/22 51/584/22 37/578/22
f 54/281/25 38/282/25 52/275/25
f 54/324/54 216/330/54 218/325/54
f 54/324/54 52/329/54 216/330/54
f 55/543/18 39/559/18 57/573/18
f 55/78/49 221/69/49 219/77/49
f 55/78/49 57/70/49 221/69/49
f 56/253/21 58/254/21 40/270/21
f 56/84/48 219/77/48 220/83/48
f 56/84/48 55/78/48 219/77/48
f 56/84/6 39/79/6 55/78/6
f 56/84/6 40/85/6 39/79/6
f 57/573/7 39/559/7 41/577/7
f 57/573/7 41/577/7 59/583/7
f 59/93/51 221/99/51 57/96/51
f 59/93/51 223/97/51 221/99/51
f 61/589/22 59/583/22 41/577/22
f 61/75/9 41/74/9 42/80/9
f 61/75/9 42/80/9 62/81/9
f 62/271/25 42/272/25 60/255/25
f 62/81/54 224/87/54 226/82/54
f 62/81/54 60/86/54 224/87/54
f 68/162/55 132/126/55 206/145/55
f 68/162/55 92/146/55 132/126/55
f 77/221/10 67/195/10 29/193/10
f 77/221/10 89/219/10 67/195/10
f 77/221/40 123/237/40 89/219/40
f 77/221/40 125/256/40 123/237/40
f 78/177/11 29/193/11 67/195/11
f 78/177/11 67/195/11 90/179/11
f 78/177/41 124/180/41 126/178/41
f 78/177/41 90/179/41 124/180/41
f 79/173/12 30/164/12 68/162/12
f 79/173/12 68/162/12 91/171/12
f 79/173/42 129/170/42 127/172/42
f 79/173/42 91/171/42 129/170/42
f 79/523/36 125/484/36 77/483/36
f 79/523/36 127/524/36 125/484/36
f 80/142/13 68/162/13 30/164/13
f 80/142/13 92/146/13 68/162/13
f 80/142/43 128/118/43 132/126/43
f 80/142/43 132/126/43 92/146/43
f 80/486/3 29/525/3 78/526/3
f 80/486/3 30/485/3 29/525/3
f 89/219/48 123/237/48 181/238/48
f 89/219/48 181/238/48 182/196/48
f 90/179/48 67/195/48 89/219/48
usemtl VisualScript_cyan
f 185/467/79 187/461/79 207/476/79
f 185/73/94 207/72/94 208/104/94
f 185/73/94 208/104/94 186/105/94
f 186/19/50 188/20/50 84/8/50
f 186/19/50 84/8/50 82/7/50
f 186/406/80 208/398/80 188/418/80
f 188/418/96 208/398/96 210/397/96
f 188/418/96 210/397/96 190/417/96
f 189/460/87 191/466/87 209/475/87
f 189/460/95 207/476/95 187/461/95
f 189/460/95 209/475/95 207/476/95
f 190/417/52 84/443/52 188/418/52
f 190/417/52 86/442/52 84/443/52
f 191/295/53 189/280/53 85/279/53
f 191/295/53 85/279/53 87/294/53
f 192/317/55 191/295/55 87/294/55
f 192/317/55 87/294/55 88/316/55
f 192/317/97 209/296/97 191/295/97
f 192/317/97 210/318/97 209/296/97
f 192/405/88 190/417/88 210/397/88
f 209/71/102 208/104/102 207/72/102
f 209/71/102 210/103/102 208/104/102
f 64/110/8 84/91/8 86/90/8
f 64/110/8 86/90/8 66/109/8
f 66/447/1 63/498/1 64/448/1
f 66/447/1 65/497/1 63/498/1
f 81/510/19 63/498/19 83/529/19
f 81/6/49 187/17/49 185/18/49
f 81/6/49 83/5/49 187/17/49
f 82/102/20 84/91/20 64/110/20
f 82/7/48 185/18/48 186/19/48
f 82/7/48 81/6/48 185/18/48
f 82/7/6 63/3/6 81/6/6
f 82/7/6 64/4/6 63/3/6
f 83/529/7 63/498/7 65/497/7
f 83/529/7 65/497/7 85/528/7
f 85/429/51 187/461/51 83/430/51
f 85/429/51 189/460/51 187/461/51
f 87/294/9 65/293/9 66/315/9
f 87/294/9 66/315/9 88/316/9
f 87/509/27 85/528/27 65/497/27
f 88/101/28 66/109/28 86/90/28
f 88/316/54 190/332/54 192/317/54
f 88/316/54 86/331/54 190/332/54
usemtl VisualScript_green
f 107/346/38 143/345/38 144/358/38
f 107/346/38 144/358/38 108/359/38
f 107/346/44 119/339/44 145/338/44
f 107/346/44 145/338/44 143/345/44
f 107/56/32 73/52/32 97/58/32
f 107/56/32 97/58/32 119/60/32
f 108/547/33 120/514/33 98/531/33
f 108/547/33 98/531/33 74/588/33
f 109/549/5 75/548/5 76/561/5
f 109/549/5 76/561/5 110/562/5
f 109/55/34 121/59/34 99/57/34
f 109/55/34 99/57/34 75/51/34
f 119/166/51 97/165/51 99/168/51
f 122/45/52 100/46/52 98/43/52
f 143/345/64 167/344/64 168/357/64
f 143/345/64 168/357/64 144/358/64
f 144/30/57 156/28/57 146/32/57
f 144/30/57 168/24/57 156/28/57
f 144/358/45 120/364/45 108/359/45
f 144/358/45 146/363/45 120/364/45
f 146/32/52 156/28/52 178/27/52
f 147/181/51 157/189/51 179/190/51
f 149/187/58 157/189/58 147/181/58
f 149/187/58 169/197/58 157/189/58
f 149/550/39 109/549/39 110/562/39
f 149/550/39 110/562/39 150/563/39
f 149/550/46 121/515/46 109/549/46
f 149/550/46 147/516/46 121/515/46
f 150/44/59 148/42/59 158/36/59
f 150/44/59 158/36/59 170/35/59
f 150/563/47 110/562/47 122/595/47
f 150/563/47 122/595/47 148/596/47
f 155/175/51 145/169/51 119/166/51
f 158/36/52 122/45/52 98/43/52
f 158/36/52 148/42/52 122/45/52
f 167/176/56 143/167/56 145/169/56
f 167/176/56 145/169/56 155/175/56
f 167/176/68 155/175/68 177/182/68
f 167/176/68 177/182/68 201/188/68
f 167/248/98 201/247/98 202/260/98
f 167/248/98 202/260/98 168/261/98
f 168/24/69 178/27/69 156/28/69
f 168/24/69 202/23/69 178/27/69
f 169/197/70 179/190/70 157/189/70
f 169/197/70 203/198/70 179/190/70
f 169/551/65 149/550/65 150/563/65
f 169/551/65 150/563/65 170/564/65
f 178/27/52 180/31/52 158/36/52
f 179/190/51 119/166/51 99/168/51
f 179/190/51 155/175/51 119/166/51
f 179/190/51 177/182/51 155/175/51
f 201/188/95 177/182/95 179/190/95
f 201/188/95 179/190/95 203/198/95
f 201/247/102 203/246/102 204/259/102
f 201/247/102 204/259/102 202/260/102
f 202/23/96 180/31/96 178/27/96
f 202/23/96 204/29/96 180/31/96
f 203/246/99 169/245/99 170/258/99
f 203/246/99 170/258/99 204/259/99
f 204/29/71 158/36/71 180/31/71
f 204/29/71 170/35/71 158/36/71
f 73/347/4 107/346/4 108/359/4
f 73/347/4 108/359/4 74/360/4
f 74/588/8 100/530/8 76/587/8
f 74/588/8 98/531/8 100/530/8
f 75/51/1 73/52/1 74/48/1
f 75/51/1 74/48/1 76/47/1
f 75/51/7 97/58/7 73/52/7
f 75/51/7 99/57/7 97/58/7
f 76/587/35 100/530/35 122/513/35
f 76/587/35 122/513/35 110/546/35
f 98/43/52 120/37/52 146/32/52
f 98/43/52 146/32/52 178/27/52
f 98/43/52 178/27/52 158/36/52
f 99/168/51 121/174/51 147/181/51
f 99/168/51 147/181/51 179/190/51
usemtl VisualScript_grey
f 103/210/32 69/203/32 93/214/32
f 103/210/32 93/214/32 115/218/32
f 103/375/38 135/374/38 136/384/38
f 103/375/38 136/384/38 104/385/38
f 104/235/33 116/224/33 94/231/33
f 104/235/33 94/231/33 70/240/33
f 105/553/5 71/552/5 72/565/5
f 105/553/5 72/565/5 106/566/5
f 115/491/51 93/490/51 95/505/51
f 118/148/52 96/154/52 94/159/52
f 135/374/44 103/375/44 115/371/44
f 135/374/44 115/371/44 137/370/44
f 135/374/64 163/373/64 164/383/64
f 135/374/64 164/383/64 136/384/64
f 135/503/56 137/506/56 151/533/56
f 135/503/56 151/533/56 163/558/56
f 136/384/45 116/388/45 104/385/45
f 136/384/45 138/387/45 116/388/45
f 138/155/52 152/149/52 174/140/52
f 139/599/51 153/607/51 175/608/51
f 141/554/39 105/553/39 106/566/39
f 141/554/39 106/566/39 142/567/39
f 141/554/46 117/517/46 105/553/46
f 141/554/46 139/518/46 117/517/46
f 141/605/58 153/607/58 139/599/58
f 141/605/58 165/611/58 153/607/58
f 142/133/59 140/139/59 154/127/59
f 142/133/59 154/127/59 166/119/59
f 142/567/47 106/566/47 118/597/47
f 142/567/47 118/597/47 140/598/47
f 151/533/51 137/506/51 115/491/51
f 154/127/52 118/148/52 94/159/52
f 154/127/52 140/139/52 118/148/52
f 163/558/68 151/533/68 173/600/68
f 163/558/68 173/600/68 197/606/68
f 164/147/57 138/155/57 136/156/57
f 164/147/57 152/149/57 138/155/57
f 164/265/98 163/252/98 197/251/98
f 164/265/98 197/251/98 198/264/98
f 165/555/65 141/554/65 142/567/65
f 165/555/65 142/567/65 166/568/65
f 174/140/52 176/128/52 154/127/52
f 175/608/51 115/491/51 95/505/51
f 175/608/51 151/533/51 115/491/51
f 175/608/51 173/600/51 151/533/51
f 197/251/102 199/250/102 200/263/102
f 197/251/102 200/263/102 198/264/102
f 197/606/95 173/600/95 175/608/95
f 197/606/95 175/608/95 199/612/95
f 198/134/69 152/149/69 164/147/69
f 198/134/69 174/140/69 152/149/69
f 198/134/96 176/128/96 174/140/96
f 198/134/96 200/120/96 176/128/96
f 199/250/99 165/249/99 166/262/99
f 199/250/99 166/262/99 200/263/99
f 199/612/70 153/607/70 165/611/70
f 199/612/70 175/608/70 153/607/70
f 200/120/71 154/127/71 176/128/71
f 200/120/71 166/119/71 154/127/71
f 69/376/4 103/375/4 104/385/4
f 69/376/4 104/385/4 70/386/4
f 70/240/8 94/231/8 96/230/8
f 70/240/8 96/230/8 72/239/8
f 71/202/1 69/203/1 70/201/1
f 71/202/1 70/201/1 72/200/1
f 71/202/34 105/209/34 117/217/34
f 71/202/34 117/217/34 95/213/34
f 71/202/7 93/214/7 69/203/7
f 71/202/7 95/213/7 93/214/7
f 72/239/35 118/223/35 106/234/35
f 72/239/35 96/230/35 118/223/35
f 94/159/52 116/160/52 138/155/52
f 94/159/52 138/155/52 174/140/52
f 94/159/52 174/140/52 154/127/52
f 95/505/51 117/532/51 139/599/51
f 95/505/51 139/599/51 175/608/51
