# Blender 4.0.2
# www.blender.org
mtllib sliding_door_lod1.mtl
o sliding_door_lod1
v -1.000000 0.030000 -0.120000
v -1.000000 2.780000 -0.120000
v -0.988462 2.733846 0.133846
v -0.988462 2.983846 0.133846
v -0.985509 0.025245 0.141962
v -0.985509 2.724755 -0.141962
v -0.985509 2.775245 0.141962
v -0.985509 2.974755 -0.141962
v -0.976613 0.013065 -0.138548
v -0.976613 2.763065 -0.138548
v -0.972308 2.630769 0.160769
v -0.972308 2.689231 0.219231
v -0.970000 0.000000 0.120000
v -0.970000 2.750000 -0.120000
v -0.970000 2.750000 0.120000
v -0.970000 3.000000 -0.120000
v -0.968333 2.628334 0.221667
v -0.968333 2.691667 0.158333
v -0.830000 0.000000 -0.120000
v -0.830000 2.750000 0.120000
v -0.823387 0.013065 0.138548
v -0.823158 0.100081 0.201579
v -0.823158 2.559919 0.198421
v -0.814490 0.025245 -0.141962
v -0.814490 2.724755 0.141962
v -0.811538 2.733846 -0.133846
v -0.800000 0.030000 0.120000
v -0.797779 0.012179 0.163107
v -0.797779 0.027821 0.236893
v -0.790000 0.100000 0.160000
v -0.790000 0.100000 0.240000
v -0.790000 2.560000 0.160000
v -0.790000 2.560000 0.240000
v -0.789919 0.066842 0.198421
v -0.789919 2.593158 0.201579
v -0.786150 0.009951 0.247630
v -0.786150 0.030049 0.152370
v -0.746250 1.843750 0.251364
v -0.746250 1.956250 0.248636
v -0.627308 0.760769 0.255769
v -0.627308 1.439231 0.304231
v -0.623387 0.768763 0.222473
v -0.623387 0.791237 0.267527
v -0.623387 1.408763 0.222473
v -0.623387 1.431237 0.267527
v -0.623333 0.758333 0.306667
v -0.623333 1.441667 0.253333
v -0.622353 2.660000 0.209130
v -0.611803 0.759672 0.269754
v -0.611803 0.800328 0.220246
v -0.611803 1.399672 0.269754
v -0.611803 1.440328 0.220246
v -0.603371 2.609401 0.200000
v -0.603371 2.710599 0.200000
v -0.597139 2.679526 0.169099
v -0.588197 0.759672 0.220246
v -0.588197 0.800328 0.269754
v -0.588197 1.399672 0.220246
v -0.588197 1.440328 0.269754
v -0.587630 2.503850 0.210049
v -0.587630 2.616150 0.189951
v -0.576893 2.492222 0.192179
v -0.576893 2.627779 0.207821
v -0.576667 0.758333 0.253333
v -0.576667 1.441667 0.306667
v -0.576613 0.768763 0.267527
v -0.576613 0.791237 0.222473
v -0.576613 1.408763 0.267527
v -0.576613 1.431237 0.222473
v -0.572692 0.760769 0.304231
v -0.572692 1.439231 0.255769
v -0.568567 2.704824 0.230707
v -0.551012 2.586090 0.200968
v -0.551012 2.733911 0.200968
v -0.550000 2.611122 0.167277
v -0.543822 2.609426 0.232317
v -0.523107 2.492222 0.207821
v -0.523107 2.627779 0.192179
v -0.512370 2.503850 0.189951
v -0.512370 2.616150 0.210049
v -0.509870 2.691392 0.167683
v -0.505803 2.682857 0.230696
v -0.498148 2.608148 0.197692
v -0.497022 2.711547 0.199032
v -0.476925 2.659109 0.201364
v -0.074257 2.876052 0.170989
v -0.052749 2.875000 0.142744
v -0.042391 2.901897 0.195472
v -0.041755 2.933536 0.169516
v -0.027059 2.829675 0.195780
v -0.025061 2.804761 0.170000
v 0.023947 2.945298 0.169011
v 0.026614 2.830422 0.143466
v 0.026866 2.920002 0.196106
v 0.031659 2.918574 0.143941
v 0.042381 2.816668 0.170000
v 0.042498 2.848035 0.195355
v 0.074257 2.876052 0.170989
v 0.476482 2.658040 0.200000
v 0.497022 2.711547 0.199032
v 0.498958 2.607699 0.198636
v 0.502462 2.644871 0.169418
v 0.502861 2.640475 0.230901
v 0.512370 2.503850 0.210049
v 0.512370 2.616150 0.189951
v 0.523107 2.492222 0.192179
v 0.523107 2.627779 0.207821
v 0.531434 2.704824 0.230707
v 0.531531 2.704589 0.169062
v 0.551012 2.586090 0.200968
v 0.551012 2.733911 0.200968
v 0.564935 2.613073 0.168851
v 0.568567 2.615176 0.230707
v 0.576893 2.492222 0.207821
v 0.576893 2.627779 0.192179
v 0.587630 2.503850 0.189951
v 0.587630 2.616150 0.210049
v 0.597139 2.679526 0.230901
v 0.597298 2.679591 0.169246
v 0.603371 2.609401 0.200000
v 0.603371 2.710599 0.200000
v 0.622706 2.660000 0.200000
v 0.746250 1.843750 0.248636
v 0.746250 1.956250 0.251364
v 0.786150 0.009951 0.152370
v 0.786150 0.030049 0.247630
v 0.789919 0.066842 0.201579
v 0.789919 2.593158 0.198421
v 0.790000 0.100000 0.160000
v 0.790000 0.100000 0.240000
v 0.790000 2.560000 0.160000
v 0.790000 2.560000 0.240000
v 0.797779 0.012179 0.236893
v 0.797779 0.027821 0.163107
v 0.800000 0.030000 -0.120000
v 0.811538 2.733846 0.133846
v 0.814490 0.025245 0.141962
v 0.814490 2.724755 -0.141962
v 0.823158 0.100081 0.198421
v 0.823158 2.559919 0.201579
v 0.823387 0.013065 -0.138548
v 0.830000 0.000000 0.120000
v 0.830000 2.750000 -0.120000
v 0.968333 2.628334 0.158333
v 0.968333 2.691667 0.221667
v 0.970000 0.000000 -0.120000
v 0.970000 2.750000 -0.120000
v 0.970000 2.750000 0.120000
v 0.970000 3.000000 0.120000
v 0.972308 2.630769 0.219231
v 0.972308 2.689231 0.160769
v 0.976613 2.763065 0.138548
v 0.985509 0.025245 -0.141962
v 0.985509 2.724755 0.141962
v 0.985509 2.775245 -0.141962
v 0.985509 2.974755 0.141962
v 0.988462 0.016154 0.133846
v 0.988462 2.733846 -0.133846
v 0.988462 2.983846 -0.133846
v 1.000000 2.780000 0.120000
vn -0.9999 -0.0011 -0.0107
vn -0.9985 0.0058 0.0553
vn -0.9984 -0.0120 0.0550
vn -0.9973 0.0727 -0.0131
vn -0.9970 -0.0055 0.0776
vn -0.9970 0.0055 -0.0776
vn -0.9961 -0.0625 0.0625
vn -0.9961 0.0625 -0.0625
vn -0.9297 -0.3296 0.1644
vn -0.9297 0.3296 -0.1644
vn -0.8774 -0.0845 -0.4722
vn -0.8774 0.0845 0.4722
vn -0.8696 0.2493 -0.4261
vn -0.8613 -0.4971 0.1054
vn -0.8613 0.4971 -0.1054
vn -0.8412 0.5401 -0.0268
vn -0.8371 -0.5459 0.0364
vn -0.7999 -0.3699 0.4726
vn -0.7867 -0.1891 -0.5877
vn -0.7843 -0.3360 -0.5216
vn -0.7818 -0.0008 -0.6235
vn -0.7818 0.0008 0.6235
vn -0.7571 -0.0000 -0.6533
vn -0.7571 -0.0000 0.6533
vn -0.7432 0.4333 0.5099
vn -0.7363 -0.5142 0.4399
vn -0.7238 0.3948 -0.5659
vn -0.7064 -0.4802 -0.5200
vn -0.6824 0.2495 -0.6871
vn -0.6418 0.2871 0.7111
vn -0.6382 -0.0392 -0.7689
vn -0.6340 -0.5861 -0.5045
vn -0.6340 0.5861 0.5045
vn -0.6276 0.2542 0.7358
vn -0.6227 -0.0030 -0.7824
vn -0.5993 -0.8001 -0.0251
vn -0.5951 0.2852 -0.7514
vn -0.5861 -0.6340 0.5045
vn -0.5861 0.6340 -0.5045
vn -0.5859 0.3516 0.7302
vn -0.5464 -0.1125 0.8299
vn -0.4887 -0.3151 -0.8136
vn -0.4518 -0.3198 0.8328
vn -0.3504 0.7646 0.5410
vn -0.3399 0.7744 0.5336
vn -0.3314 -0.7189 0.6111
vn -0.3253 -0.7543 -0.5702
vn -0.3224 -0.0677 0.9442
vn -0.3067 0.7867 -0.5358
vn -0.2982 -0.5723 -0.7639
vn -0.2817 -0.5976 0.7507
vn -0.2760 0.6494 -0.7086
vn -0.2555 -0.9591 -0.1218
vn -0.2555 0.9591 0.1218
vn -0.2533 -0.6632 0.7043
vn -0.2532 -0.6838 -0.6843
vn -0.2339 -0.4305 -0.8718
vn -0.2144 0.4393 -0.8724
vn -0.1709 0.6270 0.7601
vn -0.1395 -0.8662 0.4798
vn -0.1395 0.8662 -0.4798
vn -0.1238 0.6597 -0.7413
vn -0.1234 0.7187 0.6843
vn -0.0964 0.9938 0.0562
vn -0.0894 0.5589 -0.8244
vn -0.0826 -0.9954 -0.0482
vn -0.0742 -0.0431 -0.9963
vn -0.0742 0.0431 0.9963
vn -0.0501 -0.9978 -0.0438
vn -0.0501 0.9978 0.0438
vn -0.0479 -0.0039 0.9988
vn -0.0479 0.0039 -0.9988
vn -0.0464 0.0029 0.9989
vn -0.0345 -0.6679 0.7434
vn -0.0308 -0.0206 -0.9993
vn -0.0308 0.0206 0.9993
vn -0.0210 -0.0013 -0.9998
vn -0.0181 0.0141 -0.9997
vn -0.0097 -0.0012 -1.0000
vn -0.0078 0.9980 0.0629
vn -0.0065 -0.5119 -0.8590
vn -0.0065 0.5119 0.8590
vn -0.0062 -0.9987 -0.0503
vn -0.0061 -0.0118 0.9999
vn -0.0042 -0.0159 0.9999
vn -0.0035 -0.0015 1.0000
vn -0.0028 -0.6573 0.7536
vn -0.0020 0.0389 -0.9992
vn -0.0018 -0.0242 0.9997
vn -0.0018 0.0242 -0.9997
vn -0.0016 -0.9997 -0.0261
vn -0.0016 0.9997 0.0261
vn -0.0013 -0.9992 -0.0399
vn -0.0013 -0.0399 -0.9992
vn -0.0013 0.0399 0.9992
vn -0.0013 0.9992 0.0399
vn -0.0012 -0.7818 0.6235
vn -0.0012 0.7818 -0.6235
vn -0.0009 0.6560 0.7547
vn -0.0001 0.6563 0.7545
vn -0.0000 -0.7571 -0.6533
vn -0.0000 -0.7571 0.6533
vn -0.0000 -0.0000 -1.0000
vn -0.0000 -0.0000 1.0000
vn -0.0000 0.7571 -0.6534
vn -0.0000 0.7571 0.6534
vn 0.0001 0.6563 -0.7545
vn 0.0009 -0.6560 0.7547
vn 0.0009 0.6560 -0.7547
vn 0.0012 -0.7818 -0.6235
vn 0.0012 0.7818 0.6235
vn 0.0013 -0.9992 0.0399
vn 0.0013 -0.0399 0.9992
vn 0.0013 0.0399 -0.9992
vn 0.0013 0.9992 -0.0399
vn 0.0016 -0.9997 0.0261
vn 0.0016 0.9997 -0.0261
vn 0.0018 -0.0242 -0.9997
vn 0.0018 0.0242 0.9997
vn 0.0020 0.0389 0.9992
vn 0.0028 -0.6573 -0.7536
vn 0.0035 0.0015 1.0000
vn 0.0042 -0.0159 -0.9999
vn 0.0043 0.0039 -1.0000
vn 0.0047 0.0053 1.0000
vn 0.0062 -0.9987 0.0503
vn 0.0065 -0.5119 0.8590
vn 0.0065 0.5119 -0.8590
vn 0.0067 0.0186 0.9998
vn 0.0078 0.9980 -0.0629
vn 0.0117 0.0047 -0.9999
vn 0.0210 -0.0013 0.9998
vn 0.0308 -0.0206 0.9993
vn 0.0308 0.0206 -0.9993
vn 0.0345 -0.6679 -0.7434
vn 0.0464 -0.0029 0.9989
vn 0.0464 0.0029 -0.9989
vn 0.0479 -0.0039 -0.9988
vn 0.0479 0.0039 0.9988
vn 0.0501 -0.9978 0.0438
vn 0.0501 0.9978 -0.0438
vn 0.0742 -0.0431 0.9963
vn 0.0742 0.0431 -0.9963
vn 0.0826 -0.9954 0.0482
vn 0.0964 -0.9938 0.0562
vn 0.0964 0.9938 -0.0562
vn 0.1251 -0.7086 0.6945
vn 0.1395 -0.8662 -0.4798
vn 0.1395 0.8662 0.4798
vn 0.1482 -0.8393 -0.5231
vn 0.1683 -0.6201 0.7663
vn 0.2203 0.6292 0.7454
vn 0.2340 0.6136 0.7542
vn 0.2515 0.6563 -0.7114
vn 0.2555 -0.9591 0.1218
vn 0.2555 0.9591 -0.1218
vn 0.2644 0.6243 -0.7351
vn 0.2875 -0.7729 -0.5656
vn 0.2881 0.7474 -0.5986
vn 0.2989 0.6421 0.7060
vn 0.2997 0.6642 0.6849
vn 0.3410 -0.7873 -0.5136
vn 0.3504 -0.7646 0.5409
vn 0.3592 -0.7862 0.5029
vn 0.4815 -0.2364 -0.8440
vn 0.5179 -0.0250 -0.8551
vn 0.5427 0.1092 0.8328
vn 0.5558 -0.2876 0.7800
vn 0.5748 -0.2807 0.7686
vn 0.5861 -0.6340 -0.5045
vn 0.5861 0.6340 0.5045
vn 0.5878 -0.2815 -0.7585
vn 0.5993 -0.8001 0.0251
vn 0.6014 -0.1946 -0.7749
vn 0.6203 -0.2370 0.7477
vn 0.6227 -0.0030 0.7824
vn 0.6340 -0.5861 0.5045
vn 0.6340 0.5861 -0.5045
vn 0.6382 -0.0392 0.7689
vn 0.6412 -0.2868 0.7118
vn 0.6608 -0.2525 -0.7068
vn 0.7034 -0.3674 -0.6085
vn 0.7262 0.5398 0.4257
vn 0.7551 -0.4138 0.5084
vn 0.7571 -0.0000 -0.6534
vn 0.7571 -0.0000 0.6533
vn 0.7637 0.5450 -0.3460
vn 0.7818 -0.0008 0.6235
vn 0.7818 0.0008 -0.6235
vn 0.7922 0.3265 0.5156
vn 0.8077 0.2866 -0.5153
vn 0.8194 0.3131 0.4801
vn 0.8204 0.3135 -0.4781
vn 0.8371 -0.5459 -0.0364
vn 0.8412 -0.5401 -0.0268
vn 0.8412 0.5401 0.0268
vn 0.8613 -0.4971 -0.1054
vn 0.8613 0.4971 0.1054
vn 0.8774 -0.0845 0.4722
vn 0.8774 0.0845 -0.4722
vn 0.9297 -0.3296 -0.1644
vn 0.9297 0.3296 0.1644
vn 0.9961 -0.0625 -0.0625
vn 0.9961 0.0625 0.0625
vn 0.9970 -0.0055 -0.0776
vn 0.9970 0.0055 0.0776
vn 0.9973 0.0727 0.0131
vn 0.9984 -0.0120 -0.0550
vn 0.9985 0.0058 -0.0553
vn 0.9999 -0.0011 0.0107
vn 0.9999 0.0011 -0.0107
vt 0.00000 0.60056
vt 0.00124 0.62000
vt 0.00368 0.61582
vt 0.00368 0.93778
vt 0.00373 0.00662
vt 0.00613 0.00000
vt 0.00613 0.60369
vt 0.01676 0.61725
vt 0.01676 0.93778
vt 0.02381 0.94642
vt 0.02531 0.95656
vt 0.03197 0.95052
vt 0.03211 0.61582
vt 0.03211 0.93635
vt 0.03335 0.96076
vt 0.03474 0.60718
vt 0.03691 0.00460
vt 0.03715 0.60056
vt 0.04519 0.61582
vt 0.04519 0.93778
vt 0.04763 0.93360
vt 0.05259 0.00662
vt 0.05283 0.60259
vt 0.05500 0.00000
vt 0.05856 0.92801
vt 0.06081 0.94478
vt 0.06239 0.93065
vt 0.07099 0.94478
vt 0.07099 0.96732
vt 0.07241 0.93065
vt 0.07264 0.95980
vt 0.07429 0.96891
vt 0.07449 0.94741
vt 0.08361 0.60718
vt 0.08511 0.78563
vt 0.08511 0.86050
vt 0.08511 0.93712
vt 0.08511 0.94895
vt 0.08578 0.00460
vt 0.08602 0.60056
vt 0.08668 0.97358
vt 0.08775 0.76731
vt 0.08814 0.61872
vt 0.08817 0.96754
vt 0.08853 0.91752
vt 0.08963 0.84088
vt 0.09110 0.78161
vt 0.09187 0.95001
vt 0.09189 0.85701
vt 0.09226 0.96769
vt 0.09226 0.97539
vt 0.09285 0.92875
vt 0.09285 0.95731
vt 0.09317 0.91350
vt 0.09626 0.93482
vt 0.09638 0.76747
vt 0.09677 0.61888
vt 0.09774 0.60056
vt 0.10146 0.00662
vt 0.10380 0.92875
vt 0.10380 0.95731
vt 0.10387 0.00000
vt 0.10387 0.60369
vt 0.10439 0.96754
vt 0.10439 0.97524
vt 0.10574 0.94620
vt 0.10848 0.97539
vt 0.10997 0.96936
vt 0.11005 0.76731
vt 0.11044 0.61872
vt 0.11154 0.93712
vt 0.11154 0.94895
vt 0.11868 0.76747
vt 0.11907 0.61888
vt 0.11942 0.86050
vt 0.11942 0.91350
vt 0.12077 0.78563
vt 0.12077 0.83862
vt 0.12971 0.61582
vt 0.12971 0.76154
vt 0.12971 0.77680
vt 0.12971 0.85167
vt 0.13239 0.83382
vt 0.13239 0.90869
vt 0.13248 0.60718
vt 0.13465 0.00460
vt 0.13489 0.60056
vt 0.13584 0.61582
vt 0.13584 0.76154
vt 0.13613 0.77331
vt 0.13613 0.84818
vt 0.13838 0.82979
vt 0.13838 0.90466
vt 0.14661 0.60056
vt 0.14661 0.73458
vt 0.14661 0.79587
vt 0.14661 0.81348
vt 0.14661 0.86647
vt 0.14661 0.88835
vt 0.14661 0.94134
vt 0.14661 0.96148
vt 0.14930 0.61907
vt 0.15033 0.00662
vt 0.15069 0.72335
vt 0.15075 0.95660
vt 0.15162 0.96849
vt 0.15274 0.00000
vt 0.15274 0.60369
vt 0.15682 0.72335
vt 0.15750 0.96089
vt 0.15846 0.61865
vt 0.16821 0.96574
vt 0.16890 0.71763
vt 0.17014 0.69466
vt 0.17158 0.67946
vt 0.17258 0.69069
vt 0.17258 0.72052
vt 0.17285 0.81348
vt 0.17285 0.88835
vt 0.17306 0.62019
vt 0.17409 0.95814
vt 0.17496 0.97003
vt 0.17653 0.86872
vt 0.17653 0.94359
vt 0.17750 0.80945
vt 0.17750 0.88433
vt 0.17758 0.67543
vt 0.17910 0.96515
vt 0.18135 0.60718
vt 0.18158 0.69178
vt 0.18158 0.72160
vt 0.18352 0.00460
vt 0.18376 0.60056
vt 0.18402 0.71763
vt 0.18526 0.69466
vt 0.18544 0.73198
vt 0.18544 0.73860
vt 0.18544 0.79562
vt 0.19547 0.00000
vt 0.19547 0.59394
vt 0.19547 0.94413
vt 0.19547 0.95850
vt 0.19689 0.93179
vt 0.19726 0.60403
vt 0.20365 0.94396
vt 0.20365 0.95833
vt 0.21822 0.93231
vt 0.21859 0.60454
vt 0.22799 0.92534
vt 0.23579 0.92253
vt 0.23660 0.93123
vt 0.24434 0.92498
vt 0.24452 0.00000
vt 0.24452 0.59394
vt 0.25233 0.60887
vt 0.25252 0.00000
vt 0.25252 0.59394
vt 0.25496 0.97384
vt 0.25601 0.94257
vt 0.25639 0.95467
vt 0.25645 0.96781
vt 0.26007 0.60262
vt 0.26054 0.96796
vt 0.26054 0.97566
vt 0.26088 0.61132
vt 0.26484 0.94433
vt 0.26484 0.95316
vt 0.26868 0.60851
vt 0.27808 0.93078
vt 0.27845 0.60403
vt 0.29979 0.60454
vt 0.30044 0.93078
vt 0.30157 0.00000
vt 0.30157 0.59394
vt 0.30956 0.00000
vt 0.30956 0.00662
vt 0.30956 0.54978
vt 0.30956 0.55640
vt 0.30956 1.00000
vt 0.31382 0.56932
vt 0.31569 1.00000
vt 0.35452 0.56906
vt 0.35743 1.00000
vt 0.36066 0.57166
vt 0.36865 0.99338
vt 0.37188 0.56504
vt 0.37478 0.99598
vt 0.41361 0.56504
vt 0.41361 1.00000
vt 0.41651 0.99338
vt 0.41974 0.56504
vt 0.43042 0.99338
vt 0.43057 0.56789
vt 0.44140 0.56831
vt 0.44193 0.99338
vt 0.45423 0.56504
vt 0.45477 0.99010
vt 0.46559 0.99052
vt 0.46574 0.56504
vt 0.48047 0.56992
vt 0.48255 0.98721
vt 0.53160 0.56504
vt 0.53160 0.98721
vt 0.53533 0.57151
vt 0.54977 0.56992
vt 0.55186 0.98721
vt 0.60091 0.56504
vt 0.60091 0.98721
vt 0.60464 0.57151
vt 0.61744 0.56873
vt 0.62117 0.57375
vt 0.62117 0.96663
vt 0.63248 0.00000
vt 0.63248 0.00662
vt 0.63248 0.54978
vt 0.63248 0.55640
vt 0.63861 0.00662
vt 0.63861 0.54978
vt 0.64661 0.00662
vt 0.64661 0.54978
vt 0.65274 0.00000
vt 0.65274 0.00662
vt 0.65274 0.54978
vt 0.65274 0.55640
vt 0.67022 0.56504
vt 0.67022 0.96663
vt 0.67345 0.57236
vt 0.68839 0.96190
vt 0.69047 0.56504
vt 0.73952 0.56504
vt 0.73952 0.95792
vt 0.74325 0.96294
vt 0.75611 0.56864
vt 0.75774 0.95968
vt 0.76591 0.95968
vt 0.76730 0.56819
vt 0.78069 0.95652
vt 0.78208 0.56504
vt 0.79026 0.56504
vt 0.79189 0.95607
vt 0.80234 0.56983
vt 0.81011 0.56508
vt 0.81091 0.57443
vt 0.81868 0.56952
vt 0.82668 0.56901
vt 0.82934 0.91433
vt 0.83218 0.56901
vt 0.83485 0.91433
vt 0.84284 0.56901
vt 0.84284 0.93531
vt 0.84284 0.94713
vt 0.84417 0.97517
vt 0.84551 0.91433
vt 0.84711 0.96973
vt 0.84835 0.56901
vt 0.84900 0.94754
vt 0.85021 0.93359
vt 0.85036 0.97517
vt 0.85059 0.92694
vt 0.85059 0.95550
vt 0.85102 0.91433
vt 0.85901 0.57166
vt 0.85901 0.65059
vt 0.85901 0.69969
vt 0.85901 0.74594
vt 0.85901 0.78548
vt 0.85901 0.82503
vt 0.85901 0.84600
vt 0.85901 0.85783
vt 0.85901 0.88319
vt 0.85901 0.89502
vt 0.85968 0.96573
vt 0.85968 0.97343
vt 0.86025 0.72297
vt 0.86025 0.76252
vt 0.86025 0.80207
vt 0.86136 0.66363
vt 0.86154 0.92694
vt 0.86154 0.95550
vt 0.86170 0.68613
vt 0.86243 0.62867
vt 0.86252 0.93424
vt 0.86252 0.94819
vt 0.86269 0.71900
vt 0.86269 0.74882
vt 0.86269 0.75855
vt 0.86269 0.78837
vt 0.86269 0.79809
vt 0.86269 0.82791
vt 0.86310 0.69421
vt 0.86377 0.97358
vt 0.86421 0.64286
vt 0.86462 0.85414
vt 0.86525 0.96754
vt 0.86577 0.88213
vt 0.86577 0.89608
vt 0.86579 0.56817
vt 0.86620 0.65038
vt 0.86675 0.83764
vt 0.86675 0.86620
vt 0.86675 0.87483
vt 0.86675 0.90339
vt 0.86708 0.62465
vt 0.86881 0.70903
vt 0.86928 0.93531
vt 0.86928 0.94713
vt 0.87168 0.72009
vt 0.87168 0.74991
vt 0.87168 0.75963
vt 0.87168 0.78946
vt 0.87168 0.79918
vt 0.87168 0.82900
vt 0.87183 0.66471
vt 0.87184 0.70425
vt 0.87262 0.63991
vt 0.87262 0.67082
vt 0.87309 0.84205
vt 0.87340 0.68557
vt 0.87412 0.74594
vt 0.87412 0.78548
vt 0.87412 0.82503
vt 0.87536 0.72297
vt 0.87536 0.76252
vt 0.87536 0.80207
vt 0.87656 0.68084
vt 0.87738 0.86536
vt 0.87770 0.83764
vt 0.87770 0.87483
vt 0.87770 0.90339
vt 0.87868 0.88213
vt 0.87868 0.89608
vt 0.88073 0.65234
vt 0.88103 0.70741
vt 0.88136 0.85192
vt 0.88214 0.69561
vt 0.88372 0.66386
vt 0.88379 0.64697
vt 0.88545 0.84600
vt 0.88545 0.85783
vt 0.88545 0.88319
vt 0.88545 0.89502
vt 0.88622 0.69013
vt 0.88622 0.69969
vt 0.89332 0.57166
vt 0.89332 0.62465
vt 0.89339 0.82040
vt 0.89344 0.84095
vt 0.89344 0.84757
vt 0.89344 0.87814
vt 0.89344 0.88477
vt 0.89344 0.90665
vt 0.89513 0.81288
vt 0.89518 0.89913
vt 0.89524 0.64163
vt 0.89524 0.68117
vt 0.89543 0.72893
vt 0.89684 0.82200
vt 0.89689 0.90824
vt 0.89709 0.72141
vt 0.89748 0.65074
vt 0.89748 0.69029
vt 0.89777 0.83936
vt 0.89777 0.87655
vt 0.89874 0.73053
vt 0.89948 0.84847
vt 0.89948 0.88566
vt 0.90020 0.64322
vt 0.90020 0.68277
vt 0.90117 0.81378
vt 0.90117 0.82040
vt 0.90122 0.84095
vt 0.90122 0.87814
vt 0.90122 0.90002
vt 0.90122 0.90665
vt 0.97566 0.00000
vt 0.97566 0.00662
vt 0.97566 0.54978
vt 0.97566 0.55640
vt 0.98365 0.00000
vt 0.98365 0.54315
vt 0.99150 0.54315
vt 0.99215 0.00000
vt 1.00000 0.00000
vt 1.00000 0.54315
s 0
usemtl VisualScript_navy_steel
f 1/262/17 13/303/17 5/281/17
f 1/262/36 9/297/36 13/303/36
f 10/136/31 2/137/31 8/95/31
f 10/183/121 155/182/121 147/184/121
f 10/183/123 8/181/123 159/180/123
f 10/183/88 159/180/88 155/182/88
f 135/36/17 142/54/17 137/45/17
f 135/36/36 141/49/36 142/54/36
f 136/39/99 154/22/99 148/24/99
f 137/140/1 136/139/1 138/153/1
f 137/140/2 138/153/2 135/154/2
f 137/40/136 157/23/136 154/22/136
f 137/40/73 154/22/73 136/39/73
f 14/119/146 20/100/146 26/99/146
f 14/119/16 6/126/16 3/124/16
f 14/119/64 3/124/64 20/100/64
f 141/7/135 153/18/135 146/16/135
f 141/7/35 135/1/35 138/5/35
f 143/118/146 148/98/146 158/97/146
f 143/118/16 138/125/16 136/123/16
f 143/118/64 136/123/64 148/98/64
f 146/127/195 153/115/195 157/120/195
f 146/75/145 157/76/145 142/54/145
f 146/75/66 142/54/66 141/49/66
f 147/226/126 152/212/126 15/211/126
f 147/226/83 15/211/83 10/227/83
f 148/202/196 154/204/196 158/200/196
f 149/35/196 156/47/196 159/46/196
f 152/190/120 4/186/120 7/188/120
f 152/190/179 160/189/179 156/187/179
f 152/190/85 156/187/85 4/186/85
f 152/190/87 7/188/87 15/191/87
f 153/18/137 138/5/137 158/17/137
f 153/18/77 141/7/77 138/5/77
f 153/201/210 158/200/210 154/204/210
f 153/201/211 154/204/211 157/203/211
f 157/23/108 137/40/108 142/34/108
f 158/17/109 138/5/109 143/6/109
f 159/180/107 8/181/107 16/179/107
f 16/231/130 149/229/130 159/230/130
f 16/231/16 8/232/16 4/228/16
f 16/231/80 4/228/80 149/229/80
f 160/77/207 159/46/207 156/47/207
f 160/77/208 155/78/208 159/46/208
f 160/82/173 152/91/173 147/93/173
f 160/82/194 147/93/194 155/84/194
f 19/344/144 21/345/144 13/303/144
f 19/344/66 13/303/66 9/297/66
f 2/137/3 7/138/3 4/96/3
f 2/137/4 4/96/4 8/95/4
f 2/225/17 15/211/17 7/210/17
f 2/225/36 10/227/36 15/211/36
f 20/207/196 25/209/196 26/205/196
f 21/108/176 27/94/176 25/103/176
f 21/108/74 5/133/74 13/129/74
f 24/206/209 25/209/209 27/208/209
f 24/206/210 26/205/210 25/209/210
f 24/87/137 6/59/137 26/86/137
f 24/87/77 9/63/77 6/59/77
f 26/86/109 6/59/109 14/62/109
f 27/81/173 21/90/173 19/92/173
f 27/81/194 19/92/194 24/83/194
f 3/132/99 25/103/99 20/107/99
f 4/186/100 156/187/100 149/185/100
f 5/133/132 21/108/132 25/103/132
f 5/133/73 25/103/73 3/132/73
f 5/157/1 3/156/1 6/173/1
f 5/157/2 6/173/2 1/174/2
f 9/63/135 24/87/135 19/85/135
f 9/63/35 1/58/35 6/59/35
usemtl VisualScript_grey_steel
f 100/278/49 111/305/49 109/282/49
f 101/340/51 110/341/51 113/331/51
f 101/340/55 113/331/55 103/330/55
f 102/257/29 99/259/29 100/278/29
f 102/257/37 100/278/37 109/282/37
f 104/319/12 107/307/12 105/322/12
f 104/319/133 114/285/133 117/274/133
f 104/319/76 117/274/76 107/307/76
f 106/117/11 104/113/11 105/114/11
f 106/117/148 116/134/148 114/131/148
f 107/307/149 117/274/149 115/284/149
f 108/295/30 99/328/30 103/330/30
f 108/295/34 100/301/34 99/328/34
f 109/282/124 119/283/124 112/256/124
f 109/282/154 121/306/154 119/283/154
f 109/282/157 111/305/157 121/306/157
f 109/282/79 112/256/79 102/257/79
f 11/145/7 17/146/7 12/142/7
f 11/145/8 12/142/8 18/141/8
f 110/251/162 112/256/162 120/260/162
f 110/341/163 120/329/163 113/331/163
f 111/270/45 100/301/45 108/295/45
f 112/256/50 101/250/50 102/257/50
f 112/256/56 110/251/56 101/250/56
f 113/331/122 108/295/122 103/330/122
f 113/331/175 120/329/175 122/302/175
f 113/331/180 122/302/180 118/296/180
f 113/331/86 118/296/86 108/295/86
f 114/285/199 116/265/199 117/274/199
f 114/285/60 104/319/60 106/308/60
f 115/130/200 117/135/200 116/134/200
f 115/130/61 105/114/61 107/116/61
f 116/134/134 105/114/134 115/130/134
f 116/134/75 106/117/75 105/114/75
f 118/296/153 111/270/153 108/295/153
f 118/296/160 121/271/160 111/270/160
f 119/283/172 120/260/172 112/256/172
f 119/283/181 122/279/181 120/260/181
f 121/271/192 118/296/192 122/302/192
f 121/306/193 122/279/193 119/283/193
f 125/33/197 134/28/197 133/30/197
f 125/9/116 133/4/116 36/2/116
f 125/9/91 36/2/91 28/8/91
f 126/25/198 133/27/198 134/26/198
f 133/261/127 126/253/127 36/255/127
f 134/245/128 125/247/128 37/246/128
f 144/194/114 18/192/114 151/193/114
f 144/194/94 11/195/94 18/192/94
f 144/235/112 150/234/112 17/233/112
f 144/235/93 17/233/93 11/236/93
f 150/166/203 144/167/203 151/160/203
f 150/166/204 151/160/204 145/159/204
f 17/199/113 150/198/113 145/197/113
f 17/199/95 145/197/95 12/196/95
f 18/240/115 145/238/115 151/239/115
f 18/240/96 12/237/96 145/238/96
f 28/248/81 37/246/81 125/247/81
f 29/249/82 36/255/82 126/253/82
f 36/2/14 29/3/14 28/8/14
f 37/21/117 126/13/117 134/19/117
f 37/21/15 28/20/15 29/14/15
f 37/21/92 29/14/92 126/13/92
f 49/358/9 43/351/9 42/353/9
f 49/51/142 66/41/142 57/44/142
f 49/51/68 57/44/68 43/50/68
f 50/362/10 42/371/10 43/365/10
f 50/362/156 57/348/156 67/347/156
f 50/362/54 43/365/54 57/348/54
f 51/164/142 68/158/142 59/161/142
f 51/164/68 59/161/68 45/163/68
f 51/357/9 45/346/9 44/352/9
f 52/363/10 44/372/10 45/366/10
f 52/363/156 59/350/156 69/349/156
f 52/363/54 45/366/54 59/350/54
f 53/300/43 76/293/43 48/326/43
f 54/339/40 48/326/40 72/334/40
f 54/38/13 55/48/13 48/53/13
f 55/48/19 53/61/19 48/53/19
f 55/48/42 75/66/42 53/61/42
f 55/48/52 54/38/52 74/37/52
f 55/48/65 74/37/65 81/55/65
f 56/291/143 50/272/143 67/294/143
f 56/291/67 42/273/67 50/272/67
f 56/32/201 67/29/201 66/31/201
f 56/373/155 66/374/155 49/358/155
f 56/373/53 49/358/53 42/353/53
f 57/354/202 66/367/202 67/360/202
f 58/364/201 69/356/201 68/359/201
f 58/369/155 68/370/155 51/357/155
f 58/369/53 51/357/53 44/352/53
f 58/67/143 52/64/143 69/68/143
f 58/67/67 44/65/67 52/64/67
f 59/355/202 68/368/202 69/361/202
f 60/321/12 63/311/12 61/324/12
f 60/321/133 77/289/133 80/276/133
f 60/321/76 80/276/76 63/311/76
f 62/287/11 60/266/11 61/275/11
f 62/287/148 79/320/148 77/310/148
f 63/311/149 80/276/149 78/288/149
f 72/334/129 76/293/129 82/317/129
f 72/334/48 48/326/48 76/293/48
f 73/269/164 83/268/164 76/293/164
f 73/269/46 76/293/46 53/300/46
f 73/72/47 53/61/47 75/66/47
f 74/338/44 54/339/44 72/334/44
f 75/66/78 55/48/78 81/55/78
f 77/289/199 79/267/199 80/276/199
f 77/289/60 60/321/60 62/312/60
f 78/309/200 80/323/200 79/320/200
f 78/309/61 61/275/61 63/286/61
f 79/320/134 61/275/134 78/309/134
f 79/320/75 62/287/75 61/275/75
f 81/55/165 83/71/165 75/66/165
f 81/55/174 85/60/174 83/71/174
f 82/317/152 74/338/152 72/334/152
f 82/317/161 84/327/161 74/338/161
f 83/268/168 85/299/168 82/317/168
f 83/268/169 82/317/169 76/293/169
f 83/71/158 73/72/158 75/66/158
f 84/327/190 82/317/190 85/299/190
f 84/52/159 81/55/159 74/37/159
f 84/52/191 85/60/191 81/55/191
f 99/259/20 102/257/20 101/250/20
f 99/328/18 101/340/18 103/330/18
usemtl VisualScript_navy
f 127/11/170 129/10/170 139/12/170
f 127/11/177 139/12/177 130/15/177
f 128/242/171 132/244/171 140/243/171
f 129/215/101 34/178/101 30/177/101
f 129/215/110 127/216/110 34/178/110
f 130/223/104 132/222/104 33/376/104
f 130/223/104 33/376/104 31/377/104
f 131/241/178 128/242/178 140/243/178
f 132/222/106 35/375/106 33/376/106
f 132/222/111 128/221/111 35/375/111
f 139/218/185 129/215/185 131/214/185
f 139/218/189 131/214/189 140/217/189
f 140/219/186 132/222/186 130/223/186
f 140/219/188 130/223/188 139/220/188
f 23/382/21 30/384/21 22/381/21
f 23/382/23 32/383/23 30/384/23
f 30/177/103 131/214/103 129/215/103
f 30/177/103 32/176/103 131/214/103
f 31/377/102 127/224/102 130/223/102
f 31/377/97 34/378/97 127/224/97
f 32/176/105 128/213/105 131/214/105
f 32/176/98 35/175/98 128/213/98
f 33/379/22 23/382/22 22/381/22
f 33/379/24 22/381/24 31/380/24
f 34/165/32 22/162/32 30/168/32
f 34/165/38 31/155/38 22/162/38
f 35/150/33 23/151/33 33/149/33
f 35/150/39 32/152/39 23/151/39
usemtl VisualScript_cyan
f 123/147/119 39/144/119 38/148/119
f 123/147/89 124/143/89 39/144/89
f 38/172/118 39/169/118 124/170/118
f 38/172/90 124/170/90 123/171/90
f 40/42/138 47/43/138 71/57/138
f 40/42/72 71/57/72 64/56/72
f 40/89/5 46/80/5 41/79/5
f 40/89/6 41/79/6 47/88/6
f 47/110/141 65/101/141 71/105/141
f 47/110/70 41/106/70 65/101/70
f 64/128/140 70/122/140 46/112/140
f 64/128/69 46/112/69 40/121/69
f 70/109/205 64/104/205 71/102/205
f 70/109/206 71/102/206 65/111/206
f 70/69/139 41/74/139 46/73/139
f 70/69/71 65/70/71 41/74/71
usemtl VisualScript_green
f 86/254/41 90/258/41 88/252/41
f 86/343/25 88/335/25 89/342/25
f 88/335/125 90/314/125 97/290/125
f 88/335/84 97/290/84 94/318/84
f 89/315/27 87/298/27 86/292/27
f 90/314/147 91/304/147 96/264/147
f 90/314/151 96/264/151 97/290/151
f 91/277/28 86/263/28 87/298/28
f 91/277/57 87/298/57 93/313/57
f 91/304/26 90/314/26 86/333/26
f 92/337/187 98/336/187 95/332/187
f 93/313/131 87/298/131 95/332/131
f 94/318/59 89/342/59 88/335/59
f 94/318/63 92/325/63 89/342/63
f 95/332/58 87/298/58 89/315/58
f 95/332/62 89/315/62 92/337/62
f 96/264/184 98/280/184 97/290/184
f 96/316/150 91/277/150 93/313/150
f 96/316/182 93/313/182 98/336/182
f 98/280/167 94/318/167 97/290/167
f 98/280/183 92/325/183 94/318/183
f 98/336/166 93/313/166 95/332/166
