# Blender 4.0.2
# www.blender.org
mtllib sliding_door_collision.mtl
o sliding_door_collision
v -1.000000 0.000000 -0.150000
v -1.000000 0.000000 0.315000
v -1.000000 3.000000 -0.150000
v -1.000000 3.000000 0.315000
v 1.000000 0.000000 -0.150000
v 1.000000 0.000000 0.315000
v 1.000000 3.000000 -0.150000
v 1.000000 3.000000 0.315000
vn -1.0000 -0.0000 -0.0000
vn -0.0000 -1.0000 -0.0000
vn -0.0000 -0.0000 -1.0000
vn -0.0000 -0.0000 1.0000
vn -0.0000 1.0000 -0.0000
vn 1.0000 -0.0000 -0.0000
vt 0.00000 0.00000
vt 0.00000 0.59824
vt 0.00000 0.60117
vt 0.00000 1.00000
vt 0.09348 0.60117
vt 0.09348 1.00000
vt 0.09644 0.60117
vt 0.09644 1.00000
vt 0.18992 0.60117
vt 0.18992 1.00000
vt 0.40208 0.00000
vt 0.40208 0.59824
vt 0.40504 0.00000
vt 0.40504 0.59824
vt 0.80712 0.00000
vt 0.80712 0.59824
vt 0.81008 0.00000
vt 0.81008 0.59824
vt 0.90356 0.00000
vt 0.90356 0.59824
vt 0.90652 0.00000
vt 0.90652 0.59824
vt 1.00000 0.00000
vt 1.00000 0.59824
s 0
usemtl VisualScript_collision
f 2/6/2 1/4/2 5/3/2
f 2/6/2 5/3/2 6/5/2
f 3/13/3 5/16/3 1/14/3
f 3/13/3 7/15/3 5/16/3
f 4/21/1 1/24/1 2/22/1
f 4/21/1 3/23/1 1/24/1
f 7/17/6 6/20/6 5/18/6
f 7/17/6 8/19/6 6/20/6
f 8/1/4 2/12/4 6/2/4
f 8/1/4 4/11/4 2/12/4
f 8/10/5 3/7/5 4/9/5
f 8/10/5 7/8/5 3/7/5
