# Blender 4.0.2
# www.blender.org
mtllib barrel_collision.mtl
o barrel_collision
v 0.000000 0.000000 0.300000
v -0.150000 0.000000 0.259808
v -0.259808 0.000000 0.150000
v -0.300000 0.000000 0.000000
v -0.259808 0.000000 -0.150000
v -0.150000 0.000000 -0.259808
v 0.000000 0.000000 -0.300000
v 0.150000 0.000000 -0.259808
v 0.259808 0.000000 -0.150000
v 0.300000 0.000000 0.000000
v 0.259808 0.000000 0.150000
v 0.150000 0.000000 0.259808
v -0.322000 0.052500 0.000000
v -0.278860 0.052500 0.161000
v -0.161000 0.052500 0.278860
v -0.000000 0.052500 0.322000
v 0.161000 0.052500 0.278860
v 0.278860 0.052500 0.161000
v 0.322000 0.052500 0.000000
v 0.278860 0.052500 -0.161000
v 0.161000 0.052500 -0.278860
v 0.000000 0.052500 -0.322000
v -0.161000 0.052500 -0.278860
v -0.278860 0.052500 -0.161000
v -0.372000 0.252500 0.000000
v -0.322161 0.252500 0.186000
v -0.186000 0.252500 0.322161
v -0.000000 0.252500 0.372000
v 0.186000 0.252500 0.322161
v 0.322161 0.252500 0.186000
v 0.372000 0.252500 0.000000
v 0.322161 0.252500 -0.186000
v 0.186000 0.252500 -0.322161
v 0.000000 0.252500 -0.372000
v -0.186000 0.252500 -0.322161
v -0.322161 0.252500 -0.186000
v -0.372000 0.647500 0.000000
v -0.322161 0.647500 0.186000
v -0.186000 0.647500 0.322161
v -0.000000 0.647500 0.372000
v 0.186000 0.647500 0.322161
v 0.322161 0.647500 0.186000
v 0.372000 0.647500 0.000000
v 0.322161 0.647500 -0.186000
v 0.186000 0.647500 -0.322161
v 0.000000 0.647500 -0.372000
v -0.186000 0.647500 -0.322161
v -0.322161 0.647500 -0.186000
v -0.322000 0.847500 0.000000
v -0.278860 0.847500 0.161000
v -0.161000 0.847500 0.278860
v -0.000000 0.847500 0.322000
v 0.161000 0.847500 0.278860
v 0.278860 0.847500 0.161000
v 0.322000 0.847500 0.000000
v 0.278860 0.847500 -0.161000
v 0.161000 0.847500 -0.278860
v 0.000000 0.847500 -0.322000
v -0.161000 0.847500 -0.278860
v -0.278860 0.847500 -0.161000
v 0.000000 0.885000 0.274647
v -0.137324 0.885000 0.237851
v -0.237851 0.885000 0.137324
v -0.274647 0.885000 0.000000
v -0.237851 0.885000 -0.137324
v -0.137324 0.885000 -0.237851
v -0.000000 0.885000 -0.274647
v 0.137324 0.885000 -0.237851
v 0.237851 0.885000 -0.137324
v 0.274647 0.885000 -0.000000
v 0.237851 0.885000 0.137324
v 0.137324 0.885000 0.237851
v -0.140000 0.895000 0.110000
v -0.165981 0.895000 0.095000
v -0.165981 0.895000 0.065000
v -0.140000 0.895000 0.050000
v -0.114019 0.895000 0.065000
v -0.114019 0.895000 0.095000
vn -0.9389 0.2347 0.2516
vn -0.9389 0.2347 -0.2516
vn -0.9659 -0.0000 -0.2588
vn -0.9659 -0.0000 0.2588
vn -0.6874 0.2347 0.6873
vn -0.6873 0.2347 0.6874
vn -0.7071 -0.0000 0.7071
vn -0.4483 0.7733 0.4483
vn -0.6124 0.7733 0.1641
vn -0.6124 0.7733 -0.1641
vn -0.6873 0.2347 -0.6874
vn -0.6873 0.2347 -0.6873
vn -0.4483 0.7733 -0.4483
vn -0.7071 -0.0000 -0.7071
vn -0.9389 -0.2347 -0.2516
vn -0.9389 -0.2347 0.2516
vn -0.2516 0.2347 0.9389
vn -0.2588 -0.0000 0.9659
vn -0.6873 -0.2347 0.6873
vn -0.6873 -0.2347 0.6874
vn -0.1641 0.7733 0.6124
vn -0.0869 0.9924 0.0869
vn -0.1193 0.9923 0.0320
vn -0.0916 0.9958 -0.0000
vn -0.0790 0.9966 -0.0212
vn -0.1641 0.7733 -0.6124
vn -0.2516 0.2347 -0.9389
vn -0.0364 0.9987 -0.0364
vn -0.2588 -0.0000 -0.9659
vn -0.6873 -0.2347 -0.6873
vn -0.6873 -0.2347 -0.6874
vn -0.6554 -0.3752 -0.6554
vn -0.8954 -0.3752 -0.2399
vn -0.8954 -0.3752 0.2399
vn -0.6554 -0.3752 0.6554
vn 0.2516 0.2347 0.9389
vn 0.2588 -0.0000 0.9659
vn -0.2516 -0.2347 0.9389
vn 0.0132 0.9987 0.0494
vn -0.0210 0.9967 0.0784
vn 0.1641 0.7733 0.6124
vn -0.0455 0.9958 0.0788
vn -0.0000 1.0000 -0.0000
vn -0.0201 0.9992 -0.0349
vn -0.0093 0.9994 -0.0348
vn 0.0074 0.9996 -0.0276
vn 0.1641 0.7733 -0.6124
vn 0.2516 0.2347 -0.9389
vn 0.2588 -0.0000 -0.9659
vn -0.2516 -0.2347 -0.9389
vn -0.2399 -0.3752 -0.8954
vn -0.0000 -1.0000 -0.0000
vn -0.2399 -0.3752 0.8954
vn 0.6874 0.2347 0.6873
vn 0.6873 0.2347 0.6874
vn 0.7071 -0.0000 0.7071
vn 0.4483 0.7733 0.4483
vn 0.2516 -0.2347 0.9389
vn 0.0254 0.9994 0.0254
vn 0.0200 0.9992 0.0347
vn 0.0129 0.9997 -0.0223
vn 0.0180 0.9997 -0.0180
vn 0.4483 0.7733 -0.4483
vn 0.6873 0.2347 -0.6874
vn 0.6874 0.2347 -0.6873
vn 0.7071 -0.0000 -0.7071
vn 0.2516 -0.2347 -0.9389
vn 0.2399 -0.3752 -0.8954
vn 0.2399 -0.3752 0.8954
vn 0.9389 0.2347 0.2516
vn 0.9659 -0.0000 0.2588
vn 0.6873 -0.2347 0.6873
vn 0.6873 -0.2347 0.6874
vn 0.6124 0.7733 0.1641
vn 0.6554 -0.3752 0.6554
vn 0.0275 0.9996 0.0074
vn 0.0257 0.9997 -0.0000
vn 0.0246 0.9997 -0.0066
vn 0.6124 0.7733 -0.1641
vn 0.9389 0.2347 -0.2516
vn 0.9659 -0.0000 -0.2588
vn 0.6873 -0.2347 -0.6873
vn 0.6873 -0.2347 -0.6874
vn 0.6554 -0.3752 -0.6554
vn 0.9389 -0.2347 0.2516
vn 0.8954 -0.3752 0.2399
vn 0.9389 -0.2347 -0.2516
vn 0.8954 -0.3752 -0.2399
vt 0.00000 0.11817
vt 0.00000 0.34923
vt 0.00000 0.61999
vt 0.00000 0.85105
vt 0.02032 0.00204
vt 0.02032 0.46709
vt 0.02032 0.50386
vt 0.02032 0.96891
vt 0.02926 0.49818
vt 0.02926 1.00000
vt 0.09584 0.11581
vt 0.09584 0.34688
vt 0.09584 0.61763
vt 0.09584 0.84869
vt 0.10328 0.00000
vt 0.10328 0.46505
vt 0.10328 0.50182
vt 0.10328 0.96687
vt 0.10655 0.49628
vt 0.10655 0.99810
vt 0.19580 0.49628
vt 0.19580 0.99810
vt 0.19907 0.00000
vt 0.19907 0.46505
vt 0.19907 0.50182
vt 0.19907 0.96687
vt 0.20651 0.11581
vt 0.20651 0.34688
vt 0.20651 0.61763
vt 0.20651 0.84869
vt 0.27309 0.49818
vt 0.27309 1.00000
vt 0.28203 0.00204
vt 0.28203 0.46709
vt 0.28203 0.50386
vt 0.28203 0.96891
vt 0.30235 0.11817
vt 0.30235 0.34923
vt 0.30235 0.61999
vt 0.30235 0.85105
vt 0.30591 0.11817
vt 0.30591 0.34923
vt 0.30591 0.63514
vt 0.30591 0.73273
vt 0.32623 0.00204
vt 0.32623 0.46709
vt 0.33183 0.64222
vt 0.33183 0.72545
vt 0.33517 0.49818
vt 0.35380 0.55062
vt 0.35380 0.81724
vt 0.37268 0.57013
vt 0.37268 0.79753
vt 0.40175 0.11581
vt 0.40175 0.34688
vt 0.40919 0.00000
vt 0.40919 0.46505
vt 0.41246 0.49628
vt 0.43675 0.50182
vt 0.43675 0.86602
vt 0.44342 0.52850
vt 0.44342 0.83915
vt 0.50171 0.49628
vt 0.50498 0.00000
vt 0.50498 0.46505
vt 0.51242 0.11581
vt 0.51242 0.34688
vt 0.52512 0.52850
vt 0.52512 0.83914
vt 0.53253 0.50182
vt 0.53253 0.86602
vt 0.55713 0.70327
vt 0.56159 0.72024
vt 0.56932 0.69085
vt 0.57824 0.72478
vt 0.57900 0.49818
vt 0.58597 0.69540
vt 0.58794 0.00204
vt 0.58794 0.46709
vt 0.59043 0.71236
vt 0.59586 0.57011
vt 0.59586 0.79752
vt 0.60826 0.11817
vt 0.60826 0.34923
vt 0.61182 0.11817
vt 0.61182 0.34923
vt 0.61547 0.55060
vt 0.61547 0.81722
vt 0.63214 0.00204
vt 0.63214 0.46709
vt 0.63671 0.64219
vt 0.63671 0.72543
vt 0.64108 0.49818
vt 0.66336 0.63511
vt 0.66336 0.73270
vt 0.66693 0.62602
vt 0.66693 0.71694
vt 0.70766 0.11581
vt 0.70766 0.34688
vt 0.71155 0.54728
vt 0.71155 0.79568
vt 0.71510 0.00000
vt 0.71510 0.46505
vt 0.71837 0.49628
vt 0.78884 0.50182
vt 0.78884 0.84114
vt 0.80762 0.49628
vt 0.81089 0.00000
vt 0.81089 0.46505
vt 0.81833 0.11581
vt 0.81833 0.34688
vt 0.87809 0.50182
vt 0.87809 0.84114
vt 0.88491 0.49818
vt 0.89385 0.00204
vt 0.89385 0.46709
vt 0.91417 0.11817
vt 0.91417 0.34923
vt 0.95538 0.54728
vt 0.95538 0.79568
vt 1.00000 0.62602
vt 1.00000 0.71694
s 0
usemtl RPG_collision
f 1/9/53 16/6/53 15/16/53
f 10/10/86 19/8/86 18/18/86
f 10/114/88 9/107/88 20/109/88
f 11/20/86 10/10/86 18/18/86
f 12/22/69 17/26/69 1/32/69
f 12/22/75 11/20/75 18/18/75
f 12/22/75 18/18/75 17/26/75
f 13/34/16 14/24/16 25/38/16
f 14/24/16 26/28/16 25/38/16
f 14/24/19 15/16/19 27/12/19
f 14/24/20 27/12/20 26/28/20
f 15/16/38 28/2/38 27/12/38
f 16/36/58 17/26/58 28/40/58
f 16/6/38 28/2/38 15/16/38
f 17/26/58 29/30/58 28/40/58
f 17/26/69 16/36/69 1/32/69
f 17/26/72 18/18/72 30/14/72
f 17/26/73 30/14/73 29/30/73
f 18/18/85 31/4/85 30/14/85
f 19/116/88 10/114/88 20/109/88
f 19/8/85 31/4/85 18/18/85
f 2/19/53 1/9/53 15/16/53
f 20/109/84 8/104/84 21/103/84
f 20/109/84 9/107/84 8/104/84
f 21/103/67 22/90/67 34/86/67
f 21/103/68 7/93/68 22/90/68
f 21/103/68 8/104/68 7/93/68
f 22/79/51 7/76/51 23/65/51
f 23/65/32 5/58/32 24/57/32
f 23/65/32 6/63/32 5/58/32
f 24/57/15 13/46/15 25/42/15
f 25/38/4 26/28/4 38/27/4
f 25/38/4 38/27/4 37/37/4
f 26/28/7 27/12/7 39/11/7
f 26/28/7 39/11/7 38/27/7
f 27/12/18 28/2/18 40/1/18
f 27/12/18 40/1/18 39/11/18
f 28/40/37 29/30/37 41/29/37
f 28/40/37 41/29/37 40/39/37
f 29/30/56 30/14/56 42/13/56
f 29/30/56 42/13/56 41/29/56
f 3/21/35 15/16/35 14/24/35
f 3/21/35 2/19/35 15/16/35
f 30/14/71 31/4/71 43/3/71
f 30/14/71 43/3/71 42/13/71
f 31/118/87 19/116/87 20/109/87
f 31/118/87 20/109/87 32/111/87
f 32/111/82 20/109/82 21/103/82
f 32/111/83 21/103/83 33/99/83
f 33/99/67 21/103/67 34/86/67
f 34/84/50 22/79/50 23/65/50
f 34/84/50 23/65/50 35/67/50
f 35/67/30 23/65/30 24/57/30
f 35/67/31 24/57/31 36/55/31
f 36/55/15 24/57/15 25/42/15
f 38/27/1 50/23/1 37/37/1
f 39/11/5 51/15/5 50/23/5
f 39/11/6 50/23/6 38/27/6
f 4/31/34 14/24/34 13/34/34
f 4/31/34 3/21/34 14/24/34
f 4/49/33 13/46/33 24/57/33
f 40/1/17 51/15/17 39/11/17
f 40/1/17 52/5/17 51/15/17
f 41/29/36 53/25/36 40/39/36
f 42/13/54 54/17/54 53/25/54
f 42/13/55 53/25/55 41/29/55
f 43/117/80 44/110/80 56/108/80
f 43/117/81 31/118/81 32/111/81
f 43/117/81 32/111/81 44/110/81
f 43/3/70 54/17/70 42/13/70
f 43/3/70 55/7/70 54/17/70
f 44/110/66 32/111/66 33/99/66
f 44/110/66 33/99/66 45/98/66
f 45/98/49 33/99/49 34/86/49
f 45/98/49 34/86/49 46/85/49
f 46/83/27 47/66/27 59/64/27
f 46/83/29 34/84/29 35/67/29
f 46/83/29 35/67/29 47/66/29
f 47/66/14 35/67/14 36/55/14
f 47/66/14 36/55/14 48/54/14
f 48/54/3 25/42/3 37/41/3
f 48/54/3 36/55/3 25/42/3
f 49/45/2 60/56/2 37/41/2
f 5/58/33 4/49/33 24/57/33
f 50/23/1 49/33/1 37/37/1
f 51/88/8 62/82/8 63/92/8
f 51/88/8 63/92/8 50/95/8
f 52/71/21 61/69/21 51/88/21
f 52/71/41 53/60/41 61/69/41
f 53/25/36 52/35/36 40/39/36
f 53/60/41 72/62/41 61/69/41
f 54/51/57 71/53/57 72/62/57
f 54/51/57 72/62/57 53/60/57
f 55/115/80 43/117/80 56/108/80
f 55/44/74 70/48/74 54/51/74
f 56/108/64 44/110/64 45/98/64
f 56/108/65 45/98/65 57/102/65
f 57/102/48 45/98/48 46/85/48
f 57/102/48 46/85/48 58/89/48
f 57/50/47 58/59/47 67/61/47
f 58/78/27 46/83/27 59/64/27
f 59/64/11 47/66/11 48/54/11
f 59/64/12 48/54/12 60/56/12
f 6/97/52 1/122/52 2/120/52
f 6/97/52 10/112/52 11/119/52
f 6/97/52 11/119/52 12/121/52
f 6/97/52 12/121/52 1/122/52
f 6/97/52 2/120/52 3/113/52
f 6/97/52 3/113/52 4/106/52
f 6/97/52 4/106/52 5/101/52
f 6/97/52 7/96/52 8/100/52
f 6/97/52 8/100/52 9/105/52
f 6/97/52 9/105/52 10/112/52
f 60/56/2 48/54/2 37/41/2
f 61/69/21 62/82/21 51/88/21
f 62/82/22 74/80/22 63/92/22
f 63/92/9 64/91/9 50/95/9
f 64/91/10 60/87/10 49/94/10
f 64/91/10 65/81/10 60/87/10
f 64/91/9 49/94/9 50/95/9
f 65/81/13 59/70/13 60/87/13
f 65/81/13 66/68/13 59/70/13
f 66/68/26 67/61/26 59/70/26
f 67/61/26 58/59/26 59/70/26
f 68/52/47 57/50/47 67/61/47
f 69/47/63 56/43/63 57/50/63
f 69/47/63 57/50/63 68/52/63
f 7/76/51 6/63/51 23/65/51
f 70/48/74 71/53/74 54/51/74
f 70/48/76 78/73/76 71/53/76
f 70/48/77 77/72/77 78/73/77
f 70/48/78 69/47/78 77/72/78
f 70/48/79 55/44/79 56/43/79
f 70/48/79 56/43/79 69/47/79
f 71/53/59 78/73/59 72/62/59
f 72/62/39 73/75/39 61/69/39
f 73/75/40 62/82/40 61/69/40
f 73/75/42 74/80/42 62/82/42
f 73/75/43 75/77/43 74/80/43
f 73/75/43 76/74/43 75/77/43
f 73/75/43 77/72/43 76/74/43
f 73/75/43 78/73/43 77/72/43
f 74/80/23 64/91/23 63/92/23
f 74/80/24 75/77/24 64/91/24
f 75/77/25 65/81/25 64/91/25
f 75/77/28 66/68/28 65/81/28
f 76/74/44 66/68/44 75/77/44
f 76/74/45 67/61/45 66/68/45
f 76/74/46 68/52/46 67/61/46
f 77/72/61 68/52/61 76/74/61
f 77/72/62 69/47/62 68/52/62
f 78/73/60 73/75/60 72/62/60
