# Blender 4.0.2
# www.blender.org
mtllib quest_signpost.mtl
o quest_signpost
v 0.170000 0.000000 -0.170000
v 0.170000 0.030000 -0.200000
v 0.200000 0.030000 -0.170000
v 0.170000 0.150000 -0.200000
v 0.170000 0.180000 -0.170000
v 0.200000 0.150000 -0.170000
v 0.170000 0.000000 0.170000
v 0.200000 0.030000 0.170000
v 0.170000 0.030000 0.200000
v 0.170000 0.180000 0.170000
v 0.170000 0.150000 0.200000
v 0.200000 0.150000 0.170000
v -0.170000 0.000000 -0.170000
v -0.200000 0.030000 -0.170000
v -0.170000 0.030000 -0.200000
v -0.170000 0.180000 -0.170000
v -0.170000 0.150000 -0.200000
v -0.200000 0.150000 -0.170000
v -0.170000 0.000000 0.170000
v -0.170000 0.030000 0.200000
v -0.200000 0.030000 0.170000
v -0.170000 0.180000 0.170000
v -0.200000 0.150000 0.170000
v -0.170000 0.150000 0.200000
v 0.000000 0.180000 0.048352
v 0.000000 0.200000 0.070000
v -0.000000 2.040000 0.048352
v 0.000000 2.020000 0.070000
v -0.034190 0.180000 0.034190
v -0.049497 0.200000 0.049497
v -0.034190 2.040000 0.034190
v -0.049497 2.020000 0.049497
v -0.048352 0.180000 0.000000
v -0.070000 0.200000 0.000000
v -0.048352 2.040000 -0.000000
v -0.070000 2.020000 0.000000
v -0.034190 0.180000 -0.034190
v -0.049497 0.200000 -0.049497
v -0.034190 2.040000 -0.034190
v -0.049497 2.020000 -0.049497
v -0.000000 0.180000 -0.048352
v 0.000000 0.200000 -0.070000
v 0.000000 2.040000 -0.048352
v 0.000000 2.020000 -0.070000
v 0.034190 0.180000 -0.034190
v 0.049497 0.200000 -0.049497
v 0.034190 2.040000 -0.034190
v 0.049497 2.020000 -0.049497
v 0.048352 0.180000 -0.000000
v 0.070000 0.200000 0.000000
v 0.048352 2.040000 0.000000
v 0.070000 2.020000 0.000000
v 0.034190 0.180000 0.034190
v 0.049497 0.200000 0.049497
v 0.034190 2.040000 0.034190
v 0.049497 2.020000 0.049497
v -0.078000 0.215000 0.000000
v -0.078000 0.265000 0.000000
v -0.066000 0.265000 0.000000
v -0.066000 0.215000 0.000000
v -0.055154 0.215000 0.055154
v -0.055154 0.265000 0.055154
v -0.046669 0.265000 0.046669
v -0.046669 0.215000 0.046669
v -0.000000 0.215000 0.078000
v -0.000000 0.265000 0.078000
v -0.000000 0.265000 0.066000
v -0.000000 0.215000 0.066000
v 0.055154 0.215000 0.055154
v 0.055154 0.265000 0.055154
v 0.046669 0.265000 0.046669
v 0.046669 0.215000 0.046669
v 0.078000 0.215000 0.000000
v 0.078000 0.265000 0.000000
v 0.066000 0.265000 0.000000
v 0.066000 0.215000 0.000000
v 0.055154 0.215000 -0.055154
v 0.055154 0.265000 -0.055154
v 0.046669 0.265000 -0.046669
v 0.046669 0.215000 -0.046669
v 0.000000 0.215000 -0.078000
v 0.000000 0.265000 -0.078000
v 0.000000 0.265000 -0.066000
v 0.000000 0.215000 -0.066000
v -0.055154 0.215000 -0.055154
v -0.055154 0.265000 -0.055154
v -0.046669 0.265000 -0.046669
v -0.046669 0.215000 -0.046669
v 0.037519 1.760000 -0.014741
v 0.013193 1.760000 -0.029171
v 0.018141 1.740000 -0.009793
v -0.505072 1.740000 0.123805
v -0.523531 1.760000 0.107877
v -0.540573 1.751094 0.132871
v -0.624596 1.808906 0.154325
v -0.610733 1.820000 0.130144
v -0.624596 1.831094 0.154325
v -0.540573 1.888906 0.132871
v -0.523531 1.880000 0.107877
v -0.505072 1.900000 0.123805
v 0.037519 1.880000 -0.014741
v 0.018141 1.900000 -0.009793
v 0.013193 1.880000 -0.029171
v 0.039994 1.760000 -0.005052
v 0.020615 1.740000 -0.000104
v 0.025563 1.760000 0.019275
v -0.538099 1.751094 0.142560
v -0.511160 1.760000 0.156323
v -0.502597 1.740000 0.133495
v -0.622122 1.831094 0.164014
v -0.598363 1.820000 0.178589
v -0.622121 1.808906 0.164014
v -0.502597 1.900000 0.133495
v -0.511160 1.880000 0.156323
v -0.538099 1.888906 0.142560
v 0.039994 1.880000 -0.005052
v 0.025563 1.880000 0.019275
v 0.020615 1.900000 -0.000104
v -0.035860 1.660000 -0.018413
v -0.010215 1.660000 -0.030342
v -0.017073 1.680000 -0.011555
v 0.490188 1.680000 0.173610
v 0.510145 1.660000 0.159604
v 0.524608 1.668906 0.186174
v 0.606068 1.611094 0.215910
v 0.594689 1.600000 0.190465
v 0.606068 1.588906 0.215910
v 0.524608 1.531094 0.186174
v 0.510145 1.540000 0.159604
v 0.490188 1.520000 0.173610
v -0.035860 1.540000 -0.018413
v -0.017073 1.520000 -0.011555
v -0.010215 1.540000 -0.030342
v -0.039289 1.660000 -0.009019
v -0.020502 1.680000 -0.002161
v -0.027360 1.660000 0.016626
v 0.521179 1.668906 0.195568
v 0.493000 1.660000 0.206573
v 0.486759 1.680000 0.183004
v 0.602639 1.588906 0.225303
v 0.577544 1.600000 0.237434
v 0.602639 1.611094 0.225303
v 0.486759 1.520000 0.183004
v 0.493000 1.540000 0.206573
v 0.521179 1.531094 0.195568
v -0.039289 1.540000 -0.009019
v -0.027360 1.540000 0.016626
v -0.020502 1.520000 -0.002161
v 0.020948 1.320000 -0.034441
v -0.007151 1.320000 -0.031207
v 0.008516 1.300000 -0.018775
v -0.327154 1.300000 0.404222
v -0.351488 1.320000 0.402713
v -0.349930 1.311094 0.432924
v -0.403835 1.368906 0.500852
v -0.407433 1.380000 0.473212
v -0.403835 1.391094 0.500852
v -0.349930 1.448906 0.432924
v -0.351488 1.440000 0.402713
v -0.327154 1.460000 0.404222
v 0.020948 1.440000 -0.034441
v 0.008516 1.460000 -0.018775
v -0.007151 1.440000 -0.031207
v 0.028781 1.320000 -0.028225
v 0.016349 1.300000 -0.012558
v 0.032015 1.320000 -0.000126
v -0.342097 1.311094 0.439140
v -0.312322 1.320000 0.433793
v -0.319321 1.300000 0.410438
v -0.396002 1.391094 0.507069
v -0.368267 1.380000 0.504293
v -0.396002 1.368906 0.507069
v -0.319321 1.460000 0.410438
v -0.312322 1.440000 0.433793
v -0.342097 1.448906 0.439140
v 0.028781 1.440000 -0.028225
v 0.032015 1.440000 -0.000126
v 0.016349 1.460000 -0.012558
v 0.172000 0.870000 0.088000
v 0.172000 0.888000 0.070000
v 0.190000 0.888000 0.088000
v 0.172000 1.152000 0.070000
v 0.172000 1.170000 0.088000
v 0.190000 1.152000 0.088000
v 0.172000 0.870000 0.092000
v 0.190000 0.888000 0.092000
v 0.172000 0.888000 0.110000
v 0.172000 1.170000 0.092000
v 0.172000 1.152000 0.110000
v 0.190000 1.152000 0.092000
v -0.172000 0.870000 0.088000
v -0.190000 0.888000 0.088000
v -0.172000 0.888000 0.070000
v -0.172000 1.170000 0.088000
v -0.172000 1.152000 0.070000
v -0.190000 1.152000 0.088000
v -0.172000 0.870000 0.092000
v -0.172000 0.888000 0.110000
v -0.190000 0.888000 0.092000
v -0.172000 1.170000 0.092000
v -0.190000 1.152000 0.092000
v -0.172000 1.152000 0.110000
v 0.140000 0.910000 0.108000
v 0.140000 1.130000 0.108000
v 0.140000 0.910000 0.120000
v 0.140000 1.130000 0.120000
v -0.140000 0.910000 0.108000
v -0.140000 1.130000 0.108000
v -0.140000 0.910000 0.120000
v -0.140000 1.130000 0.120000
v -0.070000 0.980000 0.134000
v -0.070000 0.980000 0.114000
v -0.091213 0.971213 0.134000
v -0.091213 0.971213 0.114000
v -0.100000 0.950000 0.134000
v -0.100000 0.950000 0.114000
v -0.091213 0.928787 0.134000
v -0.091213 0.928787 0.114000
v -0.070000 0.920000 0.134000
v -0.070000 0.920000 0.114000
v -0.048787 0.928787 0.134000
v -0.048787 0.928787 0.114000
v -0.040000 0.950000 0.134000
v -0.040000 0.950000 0.114000
v -0.048787 0.971213 0.134000
v -0.048787 0.971213 0.114000
v 0.110000 2.008528 0.016383
v 0.110000 2.036383 0.011472
v 0.130000 2.024911 0.027855
v 0.110000 2.021439 0.008158
v 0.121547 2.022076 0.011773
v 0.124142 2.033023 0.016270
v 0.124142 2.013327 0.019743
v 0.110000 2.052766 0.022943
v 0.110000 2.057678 0.050798
v 0.130000 2.041295 0.039326
v 0.110000 2.060991 0.035853
v 0.121547 2.057376 0.036490
v 0.124142 2.052879 0.047438
v 0.124142 2.049406 0.027742
v 0.110000 1.919438 0.143617
v 0.130000 1.935821 0.155088
v 0.110000 1.924350 0.171472
v 0.124142 1.924237 0.146977
v 0.121547 1.919739 0.157924
v 0.124142 1.927710 0.166673
v 0.110000 1.916125 0.158561
v 0.110000 1.968587 0.178032
v 0.110000 1.940733 0.182943
v 0.130000 1.952204 0.166560
v 0.110000 1.955677 0.186256
v 0.121547 1.955040 0.182642
v 0.124142 1.944093 0.178145
v 0.124142 1.963789 0.174672
v -0.110000 2.008528 0.016383
v -0.130000 2.024911 0.027855
v -0.110000 2.036383 0.011472
v -0.124142 2.013327 0.019743
v -0.121547 2.022076 0.011773
v -0.124142 2.033023 0.016270
v -0.110000 2.021439 0.008158
v -0.110000 2.057678 0.050798
v -0.110000 2.052766 0.022943
v -0.130000 2.041295 0.039326
v -0.110000 2.060991 0.035853
v -0.121547 2.057376 0.036490
v -0.124142 2.049406 0.027742
v -0.124142 2.052879 0.047438
v -0.110000 1.919438 0.143617
v -0.110000 1.924350 0.171472
v -0.130000 1.935821 0.155088
v -0.110000 1.916125 0.158561
v -0.121547 1.919739 0.157924
v -0.124142 1.927710 0.166673
v -0.124142 1.924237 0.146977
v -0.110000 1.968587 0.178032
v -0.130000 1.952204 0.166560
v -0.110000 1.940733 0.182943
v -0.124142 1.963789 0.174672
v -0.121547 1.955040 0.182642
v -0.124142 1.944093 0.178145
v -0.110000 1.955677 0.186256
v 0.110000 1.919438 -0.143617
v 0.110000 1.924350 -0.171472
v 0.130000 1.935821 -0.155088
v 0.110000 1.916125 -0.158561
v 0.121547 1.919739 -0.157924
v 0.124142 1.927710 -0.166673
v 0.124142 1.924237 -0.146977
v 0.110000 1.940733 -0.182943
v 0.110000 1.968587 -0.178032
v 0.130000 1.952204 -0.166560
v 0.110000 1.955677 -0.186256
v 0.121547 1.955040 -0.182642
v 0.124142 1.963789 -0.174672
v 0.124142 1.944093 -0.178145
v 0.110000 2.008528 -0.016383
v 0.130000 2.024911 -0.027855
v 0.110000 2.036383 -0.011472
v 0.124142 2.013327 -0.019743
v 0.121547 2.022076 -0.011773
v 0.124142 2.033023 -0.016270
v 0.110000 2.021439 -0.008158
v 0.110000 2.057678 -0.050798
v 0.110000 2.052766 -0.022943
v 0.130000 2.041295 -0.039326
v 0.110000 2.060991 -0.035853
v 0.121547 2.057376 -0.036490
v 0.124142 2.049406 -0.027742
v 0.124142 2.052879 -0.047438
v -0.110000 1.919438 -0.143617
v -0.130000 1.935821 -0.155088
v -0.110000 1.924350 -0.171472
v -0.124142 1.924237 -0.146977
v -0.121547 1.919739 -0.157924
v -0.124142 1.927710 -0.166673
v -0.110000 1.916125 -0.158561
v -0.110000 1.968587 -0.178032
v -0.110000 1.940733 -0.182943
v -0.130000 1.952204 -0.166560
v -0.110000 1.955677 -0.186256
v -0.121547 1.955040 -0.182642
v -0.124142 1.944093 -0.178145
v -0.124142 1.963789 -0.174672
v -0.110000 2.008528 -0.016383
v -0.110000 2.036383 -0.011472
v -0.130000 2.024911 -0.027855
v -0.110000 2.021439 -0.008158
v -0.121547 2.022076 -0.011773
v -0.124142 2.033023 -0.016270
v -0.124142 2.013327 -0.019743
v -0.110000 2.057678 -0.050798
v -0.130000 2.041295 -0.039326
v -0.110000 2.052766 -0.022943
v -0.124142 2.052879 -0.047438
v -0.121547 2.057376 -0.036490
v -0.124142 2.049406 -0.027742
v -0.110000 2.060991 -0.035853
v 0.150000 2.050000 0.030000
v -0.150000 2.050000 0.030000
v 0.150000 2.024019 0.015000
v -0.150000 2.024019 0.015000
v 0.150000 2.024019 -0.015000
v -0.150000 2.024019 -0.015000
v 0.150000 2.050000 -0.030000
v -0.150000 2.050000 -0.030000
v 0.150000 2.075981 -0.015000
v -0.150000 2.075981 -0.015000
v 0.150000 2.075981 0.015000
v -0.150000 2.075981 0.015000
vn -0.0000 -0.0000 -1.0000
vn -1.0000 -0.0000 -0.0000
vn -0.0000 1.0000 -0.0000
vn 1.0000 -0.0000 -0.0000
vn -0.0000 -0.0000 1.0000
vn 0.5774 -0.5774 -0.5774
vn 0.5774 0.5774 -0.5774
vn 0.5774 -0.5774 0.5774
vn 0.5774 0.5774 0.5774
vn -0.5774 -0.5774 -0.5774
vn -0.5774 0.5774 -0.5774
vn -0.5774 -0.5774 0.5774
vn -0.5774 0.5774 0.5774
vn 0.7071 -0.7071 -0.0000
vn 0.7071 -0.0000 -0.7071
vn 0.7071 0.7071 -0.0000
vn 0.7071 -0.0000 0.7071
vn -0.0000 -0.7071 0.7071
vn -0.0000 0.7071 0.7071
vn -0.7071 -0.0000 0.7071
vn -0.7071 -0.7071 -0.0000
vn -0.7071 0.7071 -0.0000
vn -0.7071 -0.0000 -0.7071
vn -0.0000 -0.7071 -0.7071
vn -0.0000 0.7071 -0.7071
vn -0.0000 -1.0000 -0.0000
vn 0.3827 -0.0000 0.9239
vn -0.9239 -0.0000 -0.3827
vn -0.3827 -0.0000 -0.9239
vn 0.3827 -0.0000 -0.9239
vn 0.9239 -0.0000 -0.3827
vn 0.9239 -0.0000 0.3827
vn -0.9239 -0.0000 0.3827
vn -0.3827 -0.0000 0.9239
vn -0.2706 -0.7071 0.6533
vn -0.2706 0.7071 0.6533
vn -0.6533 -0.7071 0.2706
vn -0.6533 0.7071 0.2706
vn -0.6533 -0.7071 -0.2706
vn -0.6533 0.7071 -0.2706
vn -0.2706 -0.7071 -0.6533
vn -0.2706 0.7071 -0.6533
vn 0.2706 -0.7071 -0.6533
vn 0.2706 0.7071 -0.6533
vn 0.6533 -0.7071 -0.2706
vn 0.6533 0.7071 -0.2706
vn 0.6533 -0.7071 0.2706
vn 0.6533 0.7071 0.2706
vn 0.2706 -0.7071 0.6533
vn 0.2706 0.7071 0.6533
vn -0.5375 -0.8321 0.1372
vn -0.2474 -0.0000 -0.9689
vn -0.5375 0.8321 0.1372
vn 0.2474 -0.0000 0.9689
vn 0.4166 -0.5773 -0.7022
vn -0.3732 -0.7638 -0.5266
vn -0.8675 -0.0000 -0.4974
vn -0.3732 0.7638 -0.5266
vn 0.4166 0.5773 -0.7022
vn 0.7022 -0.5773 0.4166
vn -0.0750 -0.7638 0.6411
vn -0.5229 -0.0000 0.8524
vn -0.0750 0.7638 0.6411
vn 0.7022 0.5773 0.4166
vn 0.5102 -0.0000 -0.8601
vn -0.1749 -0.7071 -0.6851
vn -0.5550 -0.5883 -0.5881
vn -0.5550 0.5883 -0.5881
vn -0.1749 0.7071 -0.6851
vn 0.8601 -0.0000 0.5102
vn 0.1749 0.7071 0.6851
vn -0.2051 0.5883 0.7822
vn -0.2051 -0.5883 0.7822
vn 0.1749 -0.7071 0.6851
vn 0.6851 -0.7071 -0.1749
vn -0.2808 -0.9571 0.0717
vn -0.9689 -0.0000 0.2474
vn -0.2808 0.9571 0.0717
vn 0.6851 0.7071 -0.1749
vn 0.9689 -0.0000 -0.2474
vn 0.5211 0.8321 0.1902
vn 0.3429 -0.0000 -0.9394
vn 0.5211 -0.8320 0.1902
vn -0.3429 -0.0000 0.9394
vn -0.3444 0.5773 -0.7403
vn 0.4239 0.7638 -0.4867
vn 0.9129 -0.0000 -0.4083
vn 0.4239 -0.7638 -0.4867
vn -0.3444 -0.5773 -0.7403
vn -0.7403 0.5773 0.3444
vn 0.0106 0.7638 0.6453
vn 0.4352 -0.0000 0.9003
vn 0.0106 -0.7638 0.6453
vn -0.7403 -0.5773 0.3444
vn -0.4218 -0.0000 -0.9067
vn 0.2425 0.7071 -0.6642
vn 0.6109 0.5883 -0.5297
vn 0.6109 -0.5883 -0.5297
vn 0.2425 -0.7071 -0.6642
vn -0.9067 -0.0000 0.4218
vn -0.2425 -0.7071 0.6642
vn 0.1260 -0.5883 0.7987
vn 0.1260 0.5883 0.7987
vn -0.2425 0.7071 0.6642
vn -0.6642 0.7071 -0.2425
vn 0.2722 0.9571 0.0994
vn 0.9394 -0.0000 0.3429
vn 0.2722 -0.9571 0.0994
vn -0.6642 -0.7071 -0.2425
vn -0.9394 -0.0000 -0.3429
vn -0.3448 -0.8321 0.4345
vn -0.7833 -0.0000 -0.6216
vn -0.3448 0.8321 0.4345
vn 0.7833 -0.0000 0.6216
vn -0.0934 -0.5773 -0.8111
vn -0.6158 -0.7638 -0.1934
vn -0.9916 -0.0000 0.1291
vn -0.6158 0.7638 -0.1934
vn -0.0934 0.5773 -0.8111
vn 0.8111 -0.5773 -0.0934
vn 0.3283 -0.7638 0.5557
vn 0.0996 -0.0000 0.9950
vn 0.3283 0.7638 0.5557
vn 0.8111 0.5773 -0.0934
vn -0.1144 -0.0000 -0.9934
vn -0.5539 -0.7071 -0.4395
vn -0.7977 -0.5883 -0.1323
vn -0.7977 0.5883 -0.1323
vn -0.5539 0.7071 -0.4395
vn 0.9934 -0.0000 -0.1144
vn 0.5539 0.7071 0.4395
vn 0.3101 0.5883 0.7468
vn 0.3101 -0.5883 0.7468
vn 0.5539 -0.7071 0.4395
vn 0.4395 -0.7071 -0.5539
vn -0.1802 -0.9571 0.2270
vn -0.6216 -0.0000 0.7833
vn -0.1801 0.9571 0.2270
vn 0.4395 0.7071 -0.5539
vn 0.6216 -0.0000 -0.7833
vn 0.5773 -0.5774 -0.5774
vn 0.5773 0.5774 -0.5774
vn 0.5773 -0.5774 0.5774
vn 0.5773 0.5774 0.5774
vn -0.5773 -0.5774 -0.5774
vn -0.5773 0.5774 -0.5774
vn -0.5773 -0.5774 0.5774
vn -0.5773 0.5774 0.5774
vn -0.3827 0.9239 -0.0000
vn -0.9239 0.3827 -0.0000
vn -0.9239 -0.3827 -0.0000
vn -0.3827 -0.9239 -0.0000
vn 0.3827 -0.9239 -0.0000
vn 0.9239 -0.3827 -0.0000
vn 0.9239 0.3827 -0.0000
vn 0.3827 0.9239 -0.0000
vn -0.0000 0.5736 -0.8192
vn -0.0000 0.8192 0.5736
vn -0.0000 -0.5736 0.8192
vn 0.3672 -0.5645 -0.7392
vn 0.2817 0.2077 -0.9367
vn 0.8865 -0.0202 -0.4624
vn 0.3672 0.7392 -0.5645
vn 0.2817 0.9368 0.2077
vn 0.8865 0.4624 -0.0202
vn 0.2817 -0.9367 -0.2077
vn 0.8865 -0.4624 0.0202
vn 0.3672 -0.7392 0.5645
vn 0.3672 0.5645 0.7392
vn 0.2817 -0.2077 0.9367
vn 0.8865 0.0202 0.4624
vn -0.2817 -0.5155 -0.8092
vn -0.8865 -0.1392 -0.4414
vn -0.3672 0.2777 -0.8877
vn -0.3672 0.8877 0.2777
vn -0.2817 0.8092 -0.5155
vn -0.8865 0.4414 -0.1392
vn -0.3672 -0.8877 -0.2777
vn -0.2817 -0.8092 0.5155
vn -0.8865 -0.4414 0.1392
vn -0.2817 0.5155 0.8092
vn -0.8864 0.1392 0.4414
vn -0.3672 -0.2777 0.8877
vn 0.3827 -0.7568 -0.5299
vn 0.9239 -0.3135 -0.2195
vn 0.3827 0.5299 -0.7568
vn 0.9239 0.2195 -0.3135
vn 0.3827 0.7568 0.5299
vn 0.9239 0.3135 0.2195
vn 0.3827 -0.5299 0.7568
vn 0.9239 -0.2195 0.3135
vn -0.0000 -0.9763 -0.2164
vn -0.0000 -0.8434 0.5373
vn -0.0000 0.5373 0.8434
vn -0.0000 -0.2164 0.9763
vn -0.9239 -0.2195 0.3135
vn -0.3827 -0.5299 0.7568
vn -0.3827 -0.7568 -0.5299
vn -0.9239 -0.3135 -0.2195
vn -0.3827 0.7568 0.5299
vn -0.9239 0.3135 0.2195
vn -0.3827 0.5299 -0.7568
vn -0.9239 0.2195 -0.3135
vn -0.0000 -0.5373 -0.8434
vn -0.0000 0.2164 -0.9763
vn -0.0000 0.9763 0.2164
vn -0.0000 0.8434 -0.5373
vn -0.0000 -0.8192 -0.5736
vn -0.0000 -0.5736 -0.8192
vn -0.0000 0.8192 -0.5736
vn -0.0000 0.5736 0.8192
vn 0.3672 -0.8877 0.2777
vn 0.2817 -0.8092 -0.5155
vn 0.8865 -0.4414 -0.1392
vn 0.3672 -0.2777 -0.8877
vn 0.2817 0.5155 -0.8092
vn 0.8864 0.1392 -0.4414
vn 0.2817 -0.5155 0.8092
vn 0.8865 -0.1392 0.4414
vn 0.3672 0.2777 0.8877
vn 0.3672 0.8877 -0.2777
vn 0.2817 0.8092 0.5155
vn 0.8865 0.4414 0.1392
vn -0.2817 -0.9367 0.2077
vn -0.8865 -0.4624 -0.0202
vn -0.3672 -0.7392 -0.5645
vn -0.3672 0.5645 -0.7392
vn -0.2817 -0.2077 -0.9367
vn -0.8865 0.0202 -0.4624
vn -0.3672 -0.5645 0.7392
vn -0.2817 0.2077 0.9367
vn -0.8865 -0.0202 0.4624
vn -0.2817 0.9368 -0.2077
vn -0.8865 0.4624 0.0202
vn -0.3672 0.7392 0.5645
vn 0.3827 -0.7568 0.5299
vn 0.9239 -0.3135 0.2195
vn 0.3827 -0.5299 -0.7568
vn 0.9239 -0.2195 -0.3135
vn 0.3827 0.7568 -0.5299
vn 0.9239 0.3135 -0.2195
vn 0.3827 0.5299 0.7568
vn 0.9239 0.2195 0.3135
vn -0.0000 -0.5373 0.8434
vn -0.0000 0.2164 0.9763
vn -0.0000 0.9763 -0.2164
vn -0.0000 0.8434 0.5373
vn -0.9239 0.2195 0.3135
vn -0.3827 0.5299 0.7568
vn -0.3827 -0.7568 0.5299
vn -0.9239 -0.3135 0.2195
vn -0.3827 0.7568 -0.5299
vn -0.9239 0.3135 -0.2195
vn -0.3827 -0.5299 -0.7568
vn -0.9239 -0.2195 -0.3135
vn -0.0000 -0.9763 0.2164
vn -0.0000 -0.8434 -0.5373
vn -0.0000 0.5373 -0.8434
vn -0.0000 -0.2164 -0.9763
vn -0.0000 -0.8192 0.5736
vn -0.0000 -0.5000 0.8660
vn -0.0000 -0.5000 -0.8660
vn -0.0000 0.5000 -0.8660
vn -0.0000 0.5000 0.8660
vn -0.5375 0.8320 0.1372
vn -0.2051 0.5884 0.7822
vn -0.2051 -0.5884 0.7822
vn 0.5211 -0.8321 0.1902
vn 0.3101 -0.5884 0.7468
vn -0.1801 -0.9571 0.2270
vn -0.1802 0.9571 0.2270
vn 0.2817 -0.5155 -0.8092
vn 0.3672 0.2777 -0.8877
vn 0.8865 -0.1392 -0.4414
vn 0.2817 0.8092 -0.5155
vn 0.3672 0.8877 0.2777
vn 0.8865 0.4414 -0.1392
vn 0.3672 -0.8877 -0.2777
vn 0.8865 -0.4414 0.1392
vn 0.2817 -0.8092 0.5155
vn 0.2817 0.5155 0.8092
vn 0.3672 -0.2777 0.8877
vn 0.8864 0.1392 0.4414
vn -0.3672 -0.5645 -0.7392
vn -0.8865 -0.0202 -0.4624
vn -0.2817 0.2077 -0.9367
vn -0.2817 0.9368 0.2077
vn -0.3672 0.7392 -0.5645
vn -0.8865 0.4624 -0.0202
vn -0.2817 -0.9367 -0.2077
vn -0.3672 -0.7392 0.5645
vn -0.8865 -0.4624 0.0202
vn -0.3672 0.5645 0.7392
vn -0.8865 0.0202 0.4624
vn -0.2817 -0.2077 0.9367
vn 0.2817 -0.9367 0.2077
vn 0.3672 -0.7392 -0.5645
vn 0.8865 -0.4624 -0.0202
vn 0.2817 -0.2077 -0.9367
vn 0.3672 0.5645 -0.7392
vn 0.8865 0.0202 -0.4624
vn 0.3672 -0.5645 0.7392
vn 0.8865 -0.0202 0.4624
vn 0.2817 0.2077 0.9367
vn 0.2817 0.9368 -0.2077
vn 0.3672 0.7392 0.5645
vn 0.8865 0.4624 0.0202
vn -0.3672 -0.8877 0.2777
vn -0.8865 -0.4414 -0.1392
vn -0.2817 -0.8092 -0.5155
vn -0.2817 0.5155 -0.8092
vn -0.3672 -0.2777 -0.8877
vn -0.8864 0.1392 -0.4414
vn -0.2817 -0.5155 0.8092
vn -0.3672 0.2777 0.8877
vn -0.8865 -0.1392 0.4414
vn -0.3672 0.8877 -0.2777
vn -0.8865 0.4414 0.1392
vn -0.2817 0.8092 0.5155
vt 0.00000 0.01016
vt 0.00000 0.93478
vt 0.02152 0.01016
vt 0.02152 0.93478
vt 0.02501 0.00000
vt 0.02501 0.94494
vt 0.04445 0.00000
vt 0.04445 0.94494
vt 0.04966 0.01016
vt 0.04966 0.93478
vt 0.05969 0.00000
vt 0.05969 0.92462
vt 0.05969 0.95354
vt 0.05969 0.98075
vt 0.07040 0.95775
vt 0.07040 0.97655
vt 0.07965 0.93429
vt 0.07965 1.00000
vt 0.08418 0.94446
vt 0.08418 0.98985
vt 0.08576 0.00000
vt 0.08576 0.92462
vt 0.10368 0.94446
vt 0.10368 0.98985
vt 0.10788 0.93429
vt 0.10788 1.00000
vt 0.11186 0.00000
vt 0.11186 0.92462
vt 0.11747 0.95775
vt 0.11747 0.97655
vt 0.12189 0.00000
vt 0.12189 0.92462
vt 0.12784 0.95354
vt 0.12784 0.98075
vt 0.13788 0.93429
vt 0.13788 0.94507
vt 0.13788 0.95584
vt 0.14434 0.00000
vt 0.14434 0.92462
vt 0.14842 0.93429
vt 0.14842 0.94507
vt 0.14842 0.95584
vt 0.17232 0.00000
vt 0.17232 0.92462
vt 0.18236 0.01196
vt 0.18236 0.91002
vt 0.18236 0.92203
vt 0.18236 0.94761
vt 0.18236 0.96717
vt 0.19023 0.00020
vt 0.20842 0.00181
vt 0.20869 0.01429
vt 0.20869 0.91236
vt 0.20871 0.92203
vt 0.20871 0.94761
vt 0.20871 0.96717
vt 0.21874 0.93281
vt 0.21992 0.92203
vt 0.21992 0.94359
vt 0.22625 0.00000
vt 0.22893 0.93281
vt 0.23011 0.92203
vt 0.23011 0.94359
vt 0.23451 0.01167
vt 0.23451 0.90974
vt 0.24454 0.06262
vt 0.24454 0.33676
vt 0.24454 0.66043
vt 0.24454 0.84851
vt 0.24454 0.88310
vt 0.24454 0.93339
vt 0.24530 0.90818
vt 0.25039 0.04402
vt 0.25276 0.89081
vt 0.25276 0.92555
vt 0.25508 0.05515
vt 0.25508 0.33636
vt 0.25508 0.34691
vt 0.25508 0.39848
vt 0.25508 0.65636
vt 0.25508 0.66974
vt 0.26035 0.67941
vt 0.26035 0.84384
vt 0.26035 0.86302
vt 0.27062 0.87269
vt 0.27062 0.94381
vt 0.27077 0.88362
vt 0.27077 0.93275
vt 0.28086 0.00000
vt 0.28670 0.00946
vt 0.28670 0.35658
vt 0.28879 0.89082
vt 0.28879 0.92555
vt 0.29255 0.00000
vt 0.29625 0.90819
vt 0.29671 0.88311
vt 0.29671 0.93340
vt 0.30751 0.90825
vt 0.31754 0.87269
vt 0.31754 0.89309
vt 0.31754 0.91853
vt 0.31754 0.92820
vt 0.31754 0.94975
vt 0.31761 0.93895
vt 0.31832 0.05515
vt 0.31832 0.33636
vt 0.31832 0.34691
vt 0.31832 0.39848
vt 0.31832 0.65636
vt 0.31832 0.66974
vt 0.32301 0.04402
vt 0.32359 0.67941
vt 0.32359 0.84384
vt 0.32359 0.86302
vt 0.32808 0.92820
vt 0.32808 0.94975
vt 0.32815 0.93895
vt 0.32886 0.06262
vt 0.32886 0.33676
vt 0.32886 0.66043
vt 0.33889 0.00977
vt 0.33889 0.33735
vt 0.33889 0.35728
vt 0.33889 0.50965
vt 0.33899 0.05596
vt 0.33940 0.84851
vt 0.34367 0.52660
vt 0.34367 0.63833
vt 0.34389 0.87269
vt 0.34389 0.89309
vt 0.34389 0.91853
vt 0.34570 0.51946
vt 0.34570 0.64557
vt 0.34943 0.34751
vt 0.34946 0.00000
vt 0.34947 0.33750
vt 0.34955 0.04450
vt 0.34956 0.06320
vt 0.35118 0.52072
vt 0.35118 0.64418
vt 0.35131 0.52654
vt 0.35131 0.63828
vt 0.35397 0.66679
vt 0.35397 0.84151
vt 0.35397 0.87053
vt 0.35397 0.93149
vt 0.35407 0.35718
vt 0.35407 0.50955
vt 0.35470 0.34751
vt 0.35473 0.00000
vt 0.35474 0.33750
vt 0.35482 0.04450
vt 0.35483 0.06320
vt 0.35622 0.51948
vt 0.35622 0.64558
vt 0.35854 0.52662
vt 0.35854 0.63836
vt 0.36317 0.51966
vt 0.36317 0.64576
vt 0.36318 0.65770
vt 0.36318 0.85070
vt 0.36387 0.86037
vt 0.36387 0.94166
vt 0.36524 0.33735
vt 0.36534 0.05596
vt 0.36544 0.66663
vt 0.36544 0.84135
vt 0.36549 0.35742
vt 0.36549 0.50979
vt 0.36549 0.52679
vt 0.36549 0.63853
vt 0.36748 0.87053
vt 0.36748 0.93149
vt 0.37243 0.87053
vt 0.37243 0.93149
vt 0.37537 0.01016
vt 0.37537 0.29155
vt 0.38064 0.36633
vt 0.38064 0.54108
vt 0.38064 0.57006
vt 0.38064 0.63102
vt 0.38246 0.88182
vt 0.38246 0.91215
vt 0.38524 0.57006
vt 0.38524 0.63102
vt 0.38582 0.34751
vt 0.38591 0.00000
vt 0.38593 0.30301
vt 0.38595 0.01000
vt 0.38595 0.28431
vt 0.38830 0.88415
vt 0.38830 0.90981
vt 0.39013 0.35718
vt 0.39013 0.55023
vt 0.39026 0.36639
vt 0.39026 0.54114
vt 0.39038 0.55990
vt 0.39038 0.64119
vt 0.39109 0.34751
vt 0.39118 0.00000
vt 0.39120 0.30301
vt 0.39122 0.01000
vt 0.39122 0.28431
vt 0.39223 0.35718
vt 0.39223 0.55023
vt 0.39237 0.36639
vt 0.39237 0.54114
vt 0.39958 0.57006
vt 0.39958 0.63102
vt 0.40172 0.01016
vt 0.40172 0.29155
vt 0.40172 0.36632
vt 0.40172 0.54108
vt 0.40470 0.86037
vt 0.40470 0.93359
vt 0.40712 0.86600
vt 0.40712 0.92796
vt 0.41175 0.05584
vt 0.41175 0.33724
vt 0.41625 0.63942
vt 0.42198 0.00000
vt 0.42229 0.34740
vt 0.42235 0.04435
vt 0.42242 0.06302
vt 0.42242 0.33734
vt 0.42679 0.39578
vt 0.42679 0.63401
vt 0.42679 0.64802
vt 0.42725 0.00000
vt 0.42756 0.34740
vt 0.42762 0.04435
vt 0.42769 0.06302
vt 0.42769 0.33734
vt 0.43374 0.86600
vt 0.43374 0.92796
vt 0.43616 0.86037
vt 0.43616 0.93359
vt 0.43772 0.00980
vt 0.43810 0.05583
vt 0.43810 0.33724
vt 0.44813 0.29105
vt 0.45256 0.88415
vt 0.45256 0.90981
vt 0.45625 0.34691
vt 0.45830 0.00980
vt 0.45832 0.30294
vt 0.45840 0.88182
vt 0.45840 0.91214
vt 0.45841 0.35708
vt 0.45908 0.28435
vt 0.46152 0.34708
vt 0.46359 0.30311
vt 0.46435 0.28452
vt 0.46843 0.90817
vt 0.46843 0.94211
vt 0.46843 0.95375
vt 0.46899 0.01018
vt 0.46920 0.00000
vt 0.47212 0.86037
vt 0.47426 0.01035
vt 0.47446 0.00018
vt 0.47446 0.29194
vt 0.47537 0.92186
vt 0.47676 0.93375
vt 0.47676 0.96184
vt 0.47892 0.92389
vt 0.48295 0.91371
vt 0.48449 0.00000
vt 0.48449 0.34740
vt 0.48463 0.01006
vt 0.48482 0.30306
vt 0.48488 0.28438
vt 0.48651 0.86765
vt 0.48651 0.91574
vt 0.48854 0.93357
vt 0.48854 0.96166
vt 0.48976 0.00000
vt 0.48976 0.34740
vt 0.48990 0.01006
vt 0.49002 0.39578
vt 0.49002 0.63401
vt 0.49002 0.64802
vt 0.49009 0.30305
vt 0.49015 0.28438
vt 0.49687 0.94166
vt 0.49687 0.95330
vt 0.49707 0.86986
vt 0.49707 0.89356
vt 0.49707 0.91728
vt 0.50022 0.33759
vt 0.50031 0.01015
vt 0.50056 0.29156
vt 0.50056 0.63942
vt 0.50056 0.66737
vt 0.50056 0.84209
vt 0.51060 0.00000
vt 0.51060 0.34713
vt 0.51077 0.33696
vt 0.51102 0.04401
vt 0.51109 0.06262
vt 0.51282 0.92695
vt 0.51282 0.94851
vt 0.51288 0.93776
vt 0.51515 0.35681
vt 0.51515 0.54986
vt 0.51515 0.55953
vt 0.51515 0.70178
vt 0.51515 0.71145
vt 0.51515 0.85369
vt 0.51529 0.36589
vt 0.51529 0.54065
vt 0.51587 0.00001
vt 0.51587 0.34714
vt 0.51604 0.33696
vt 0.51629 0.04402
vt 0.51636 0.06263
vt 0.51726 0.35681
vt 0.51726 0.54986
vt 0.51739 0.36589
vt 0.51739 0.54065
vt 0.52147 0.55953
vt 0.52147 0.70178
vt 0.52147 0.71145
vt 0.52147 0.85369
vt 0.52336 0.92695
vt 0.52336 0.94851
vt 0.52342 0.86986
vt 0.52342 0.89356
vt 0.52342 0.91728
vt 0.52342 0.93776
vt 0.52674 0.05557
vt 0.52674 0.36595
vt 0.52674 0.54071
vt 0.53345 0.67458
vt 0.53345 0.69322
vt 0.53345 0.86019
vt 0.53345 0.89131
vt 0.53345 0.92164
vt 0.53678 0.00363
vt 0.53678 0.29194
vt 0.53678 0.60185
vt 0.53849 0.34534
vt 0.53866 0.27828
vt 0.53929 0.89364
vt 0.53929 0.91930
vt 0.54231 0.61980
vt 0.54962 0.60598
vt 0.55138 0.34285
vt 0.55570 0.86986
vt 0.55570 0.94308
vt 0.55812 0.87550
vt 0.55812 0.93745
vt 0.56661 0.33318
vt 0.56963 0.32109
vt 0.57148 0.66382
vt 0.57794 0.33251
vt 0.57990 0.65168
vt 0.58278 0.66491
vt 0.58473 0.87550
vt 0.58473 0.93745
vt 0.58715 0.86986
vt 0.58715 0.94308
vt 0.59669 0.67458
vt 0.59669 0.69322
vt 0.59669 0.86019
vt 0.59808 0.00000
vt 0.59997 0.27465
vt 0.60355 0.89364
vt 0.60355 0.91930
vt 0.60718 0.28776
vt 0.60940 0.89131
vt 0.60940 0.92164
vt 0.61074 0.61186
vt 0.61088 0.00153
vt 0.61250 0.34873
vt 0.61250 0.62655
vt 0.61250 0.68932
vt 0.61272 0.26926
vt 0.62253 0.37740
vt 0.62253 0.62309
vt 0.62253 0.82630
vt 0.62253 0.83598
vt 0.62253 0.97139
vt 0.62276 0.01526
vt 0.62276 0.18799
vt 0.62276 0.21290
vt 0.62276 0.32466
vt 0.62276 0.63823
vt 0.62276 0.81095
vt 0.62723 0.39275
vt 0.62723 0.61342
vt 0.62908 0.21290
vt 0.62908 0.32466
vt 0.63857 0.00002
vt 0.63857 0.20322
vt 0.63879 0.01536
vt 0.63879 0.18809
vt 0.63911 0.21290
vt 0.63911 0.32466
vt 0.64523 0.21290
vt 0.64523 0.32466
vt 0.65300 0.34285
vt 0.65526 0.22008
vt 0.65526 0.29899
vt 0.65526 0.32814
vt 0.65526 0.33306
vt 0.65663 0.21422
vt 0.65663 0.30486
vt 0.65885 0.35689
vt 0.66111 0.31585
vt 0.66271 0.21290
vt 0.66271 0.22008
vt 0.66271 0.29899
vt 0.66271 0.30617
vt 0.66469 0.34285
vt 0.66695 0.32814
vt 0.66695 0.33306
vt 0.67325 0.21290
vt 0.67325 0.22008
vt 0.67325 0.29899
vt 0.67325 0.30617
vt 0.67699 0.31585
vt 0.67699 0.32091
vt 0.67934 0.21422
vt 0.67934 0.30486
vt 0.68071 0.22008
vt 0.68071 0.29899
vt 0.68283 0.33192
vt 0.68868 0.31585
vt 0.68868 0.32091
vt 0.69046 0.39275
vt 0.69046 0.61342
vt 0.69074 0.22008
vt 0.69074 0.29899
vt 0.69211 0.21421
vt 0.69211 0.30486
vt 0.69516 0.37740
vt 0.69819 0.21290
vt 0.69819 0.22008
vt 0.69819 0.29899
vt 0.69819 0.30617
vt 0.70519 0.53082
vt 0.70519 0.55574
vt 0.70519 0.61176
vt 0.70805 0.58349
vt 0.70873 0.21290
vt 0.70873 0.22008
vt 0.70873 0.29899
vt 0.70873 0.30617
vt 0.71482 0.21421
vt 0.71482 0.30486
vt 0.71618 0.22008
vt 0.71618 0.29899
vt 0.72100 0.34285
vt 0.72100 0.35807
vt 0.72100 0.53080
vt 0.72100 0.54607
vt 0.72622 0.22047
vt 0.72622 0.29762
vt 0.72777 0.21496
vt 0.72777 0.30359
vt 0.73078 0.55588
vt 0.73078 0.61190
vt 0.73312 0.21962
vt 0.73312 0.29678
vt 0.73358 0.21322
vt 0.73358 0.30442
vt 0.73365 0.58363
vt 0.73847 0.83598
vt 0.73847 0.97139
vt 0.74354 0.21930
vt 0.74354 0.29646
vt 0.74368 0.55574
vt 0.74368 0.58377
vt 0.74368 0.61178
vt 0.74400 0.21290
vt 0.74400 0.30410
vt 0.74850 0.84357
vt 0.74850 0.94996
vt 0.75023 0.21427
vt 0.75023 0.30290
vt 0.75027 0.83598
vt 0.75027 0.95606
vt 0.75137 0.21970
vt 0.75137 0.29685
vt 0.75714 0.84536
vt 0.75714 0.95175
vt 0.75891 0.83777
vt 0.75891 0.95784
vt 0.76140 0.21970
vt 0.76140 0.29685
vt 0.76296 0.21373
vt 0.76296 0.30235
vt 0.76467 0.83973
vt 0.76467 0.95729
vt 0.76501 0.84587
vt 0.76501 0.95227
vt 0.76831 0.22054
vt 0.76831 0.29769
vt 0.76877 0.21290
vt 0.76877 0.30410
vt 0.76928 0.83723
vt 0.76928 0.95730
vt 0.77003 0.55574
vt 0.77003 0.58377
vt 0.77003 0.61178
vt 0.77181 0.84459
vt 0.77181 0.95098
vt 0.77873 0.22086
vt 0.77873 0.29801
vt 0.77919 0.21322
vt 0.77919 0.30442
vt 0.78006 0.55574
vt 0.78006 0.58580
vt 0.78006 0.60991
vt 0.78185 0.84459
vt 0.78185 0.95098
vt 0.78424 0.34285
vt 0.78424 0.35807
vt 0.78424 0.53080
vt 0.78424 0.54607
vt 0.78438 0.83723
vt 0.78438 0.95730
vt 0.78541 0.21442
vt 0.78541 0.30304
vt 0.78656 0.22047
vt 0.78656 0.29762
vt 0.78865 0.84587
vt 0.78865 0.95227
vt 0.78899 0.83973
vt 0.78899 0.95729
vt 0.79475 0.83777
vt 0.79475 0.95784
vt 0.79653 0.84536
vt 0.79653 0.95175
vt 0.79659 0.22306
vt 0.79659 0.28402
vt 0.79659 0.31271
vt 0.79659 0.32429
vt 0.80005 0.53082
vt 0.80169 0.62310
vt 0.80169 0.82631
vt 0.80191 0.63824
vt 0.80191 0.81097
vt 0.80339 0.83598
vt 0.80339 0.95606
vt 0.80480 0.30424
vt 0.80480 0.33221
vt 0.80516 0.84357
vt 0.80516 0.94996
vt 0.80641 0.55574
vt 0.80641 0.58580
vt 0.80641 0.60991
vt 0.80646 0.21290
vt 0.80646 0.29418
vt 0.81008 0.35801
vt 0.81008 0.53069
vt 0.81017 0.22306
vt 0.81017 0.28402
vt 0.81510 0.22306
vt 0.81510 0.28402
vt 0.81639 0.30385
vt 0.81639 0.33182
vt 0.81644 0.55574
vt 0.81644 0.58597
vt 0.81644 0.60908
vt 0.81749 0.63835
vt 0.81749 0.81107
vt 0.81772 0.00000
vt 0.81772 0.20321
vt 0.81794 0.18807
vt 0.81795 0.01534
vt 0.82459 0.31177
vt 0.82459 0.32335
vt 0.82543 0.34285
vt 0.82543 0.54601
vt 0.82753 0.79225
vt 0.82753 0.81063
vt 0.82753 0.95284
vt 0.82920 0.35775
vt 0.82920 0.53043
vt 0.83353 0.01524
vt 0.83353 0.18797
vt 0.83701 0.62309
vt 0.83701 0.78945
vt 0.83701 0.80095
vt 0.84279 0.55574
vt 0.84279 0.58597
vt 0.84279 0.60908
vt 0.84356 0.00915
vt 0.84356 0.14327
vt 0.84356 0.16208
vt 0.84356 0.31449
vt 0.85283 0.57966
vt 0.85303 0.00915
vt 0.85303 0.14327
vt 0.85514 0.00915
vt 0.85514 0.14327
vt 0.85515 0.00000
vt 0.85515 0.15241
vt 0.85525 0.55574
vt 0.85525 0.60314
vt 0.85937 0.16208
vt 0.85937 0.31449
vt 0.86464 0.00915
vt 0.86464 0.14327
vt 0.86940 0.16208
vt 0.86940 0.31449
vt 0.87467 0.00000
vt 0.87467 0.14508
vt 0.87842 0.57980
vt 0.88084 0.55588
vt 0.88084 0.60328
vt 0.88521 0.16208
vt 0.88521 0.31449
vt 0.88836 0.00233
vt 0.88836 0.14742
vt 0.89062 0.35808
vt 0.89062 0.53077
vt 0.89524 0.16208
vt 0.89524 0.29620
vt 0.89728 0.16208
vt 0.89728 0.29620
vt 0.89971 0.30535
vt 0.90065 0.35005
vt 0.90065 0.46182
vt 0.90065 0.48642
vt 0.90065 0.59819
vt 0.90206 0.00000
vt 0.90206 0.14508
vt 0.90238 0.34285
vt 0.90238 0.46899
vt 0.90238 0.47926
vt 0.90238 0.60539
vt 0.90888 0.16208
vt 0.90888 0.29620
vt 0.91209 0.00750
vt 0.91209 0.11926
vt 0.91459 0.00030
vt 0.91459 0.12643
vt 0.91891 0.16926
vt 0.91891 0.28103
vt 0.91891 0.30582
vt 0.91891 0.32106
vt 0.91895 0.00752
vt 0.91895 0.11929
vt 0.91926 0.00164
vt 0.91926 0.12514
vt 0.92141 0.16209
vt 0.92141 0.28823
vt 0.92500 0.00031
vt 0.92500 0.12644
vt 0.92578 0.16924
vt 0.92578 0.28100
vt 0.92608 0.16338
vt 0.92608 0.28688
vt 0.92680 0.00751
vt 0.92680 0.11928
vt 0.93182 0.16208
vt 0.93182 0.28821
vt 0.93260 0.29820
vt 0.93260 0.32868
vt 0.93362 0.16925
vt 0.93362 0.28101
vt 0.94013 0.81124
vt 0.94013 0.95345
vt 0.94629 0.30582
vt 0.94629 0.32106
vt 0.95017 0.81783
vt 0.95017 0.92957
vt 0.95128 0.81071
vt 0.95128 0.93681
vt 0.95633 0.30556
vt 0.95633 0.32030
vt 0.95999 0.81775
vt 0.95999 0.92948
vt 0.96111 0.81063
vt 0.96111 0.93673
vt 0.96727 0.81192
vt 0.96727 0.93539
vt 0.96805 0.81775
vt 0.96805 0.92949
vt 0.96836 0.35035
vt 0.96836 0.46212
vt 0.96836 0.48612
vt 0.96836 0.59789
vt 0.97002 0.29820
vt 0.97002 0.32766
vt 0.97009 0.34315
vt 0.97009 0.46929
vt 0.97009 0.47896
vt 0.97009 0.60509
vt 0.97075 0.81072
vt 0.97075 0.93682
vt 0.97363 0.81788
vt 0.97363 0.92962
vt 0.97590 0.34448
vt 0.97590 0.46798
vt 0.97590 0.48026
vt 0.97590 0.60376
vt 0.97614 0.62309
vt 0.97614 0.78945
vt 0.97614 0.80095
vt 0.97626 0.35036
vt 0.97626 0.46213
vt 0.97626 0.48612
vt 0.97626 0.59788
vt 0.98045 0.34314
vt 0.98045 0.46927
vt 0.98045 0.47897
vt 0.98045 0.60510
vt 0.98300 0.35034
vt 0.98300 0.46210
vt 0.98300 0.48614
vt 0.98300 0.59791
vt 0.98371 0.30556
vt 0.98371 0.32030
vt 0.98562 0.79225
vt 0.99137 0.00000
vt 0.99137 0.12613
vt 0.99318 0.00720
vt 0.99318 0.11897
vt 0.99819 0.16239
vt 0.99819 0.28853
vt 1.00000 0.16956
vt 1.00000 0.28132
s 0
usemtl RPG_stone
f 1/571/14 3/570/14 8/395/14
f 1/571/14 8/395/14 7/397/14
f 1/69/6 2/83/6 3/84/6
f 10/388/16 12/380/16 6/541/16
f 10/388/16 6/541/16 5/543/16
f 10/388/3 16/544/3 22/389/3
f 10/388/3 5/543/3 16/544/3
f 10/557/9 11/581/9 12/576/9
f 11/581/5 20/618/5 9/619/5
f 11/581/5 24/580/5 20/618/5
f 13/442/10 14/456/10 15/457/10
f 13/572/24 15/582/24 2/583/24
f 13/572/24 2/583/24 1/571/24
f 15/457/23 14/456/23 18/520/23
f 15/457/23 18/520/23 17/521/23
f 16/540/11 17/521/11 18/520/11
f 16/544/22 18/542/22 23/381/22
f 16/544/22 23/381/22 22/389/22
f 17/112/1 2/83/1 15/82/1
f 17/112/1 4/113/1 2/83/1
f 19/396/12 20/384/12 21/394/12
f 19/396/21 14/569/21 13/572/21
f 19/396/21 21/394/21 14/569/21
f 19/396/26 1/571/26 7/397/26
f 19/396/26 13/572/26 1/571/26
f 21/455/20 20/454/20 24/518/20
f 21/455/20 24/518/20 23/519/20
f 22/556/13 23/575/13 24/580/13
f 22/556/19 11/581/19 10/557/19
f 22/556/19 24/580/19 11/581/19
f 23/519/2 14/456/2 21/455/2
f 23/519/2 18/520/2 14/456/2
f 4/113/15 3/84/15 2/83/15
f 4/113/15 6/114/15 3/84/15
f 4/113/7 5/126/7 6/114/7
f 5/543/25 17/568/25 16/544/25
f 5/543/25 4/567/25 17/568/25
f 6/336/4 12/335/4 8/364/4
f 6/336/4 8/364/4 3/365/4
f 7/377/8 8/364/8 9/363/8
f 7/397/18 20/384/18 19/396/18
f 7/397/18 9/385/18 20/384/18
f 9/363/17 12/335/17 11/334/17
f 9/363/17 8/364/17 12/335/17
usemtl RPG_timber
f 100/284/3 113/272/3 118/270/3
f 100/284/3 118/270/3 102/279/3
f 100/284/69 102/279/69 103/291/69
f 100/284/69 103/291/69 99/292/69
f 100/284/78 115/271/78 113/272/78
f 100/284/78 98/283/78 115/271/78
f 101/282/59 103/281/59 102/293/59
f 101/282/65 89/228/65 90/227/65
f 101/282/65 90/227/65 103/281/65
f 102/279/79 116/268/79 101/277/79
f 102/279/79 118/270/79 116/268/79
f 103/281/52 90/227/52 93/226/52
f 104/185/60 106/209/60 105/198/60
f 104/185/70 116/184/70 117/208/70
f 104/185/70 117/208/70 106/209/70
f 105/225/75 89/230/75 104/222/75
f 105/225/75 91/233/75 89/230/75
f 106/339/54 117/366/54 114/367/54
f 107/223/61 109/224/61 108/218/61
f 109/224/74 105/225/74 106/219/74
f 109/224/74 106/219/74 108/218/74
f 110/356/62 112/353/62 111/354/62
f 111/354/267 112/353/267 107/340/267
f 111/354/73 107/340/73 108/343/73
f 113/378/63 115/370/63 114/367/63
f 114/367/54 108/343/54 106/339/54
f 114/367/54 111/354/54 108/343/54
f 115/370/266 110/356/266 111/354/266
f 115/370/72 111/354/72 114/367/72
f 116/184/64 118/197/64 117/208/64
f 116/184/80 104/185/80 89/181/80
f 116/184/80 89/181/80 101/180/80
f 117/366/71 113/378/71 114/367/71
f 117/366/71 118/374/71 113/378/71
f 119/78/85 121/67/85 120/77/85
f 120/77/96 121/67/96 122/66/96
f 120/77/96 122/66/96 123/76/96
f 122/316/106 137/299/106 124/315/106
f 122/316/106 139/300/106 137/299/106
f 122/316/86 124/315/86 123/331/86
f 123/76/82 126/90/82 129/105/82
f 123/76/82 129/105/82 133/106/82
f 124/315/81 137/299/81 142/296/81
f 124/315/81 142/296/81 125/312/81
f 124/73/97 125/89/97 126/90/97
f 124/73/97 126/90/97 123/76/97
f 125/423/107 140/429/107 127/430/107
f 125/423/107 142/422/107 140/429/107
f 125/423/87 127/430/87 126/428/87
f 126/90/98 127/94/98 128/111/98
f 126/90/98 128/111/98 129/105/98
f 128/252/108 143/250/108 130/253/108
f 128/252/108 145/246/108 143/250/108
f 128/252/88 130/253/88 129/262/88
f 130/118/99 132/119/99 133/106/99
f 130/118/99 133/106/99 129/105/99
f 131/107/89 133/106/89 132/119/89
f 131/107/95 119/78/95 120/77/95
f 131/107/95 120/77/95 133/106/95
f 131/261/109 132/260/109 148/257/109
f 131/261/109 148/257/109 146/258/109
f 133/106/82 120/77/82 123/76/82
f 134/172/100 146/173/100 147/146/100
f 134/172/100 147/146/100 136/145/100
f 134/172/90 136/145/90 135/162/90
f 135/298/105 119/313/105 134/297/105
f 135/298/105 121/314/105 119/313/105
f 135/298/3 122/316/3 121/314/3
f 135/298/3 139/300/3 122/316/3
f 136/348/84 147/375/84 144/373/84
f 137/346/91 139/341/91 138/347/91
f 139/341/104 135/342/104 136/348/104
f 139/341/104 136/348/104 138/347/104
f 140/244/268 145/246/268 128/252/268
f 140/244/83 128/252/83 127/251/83
f 140/358/92 142/355/92 141/357/92
f 141/357/103 137/346/103 138/347/103
f 141/357/103 142/355/103 137/346/103
f 143/250/26 132/260/26 130/253/26
f 143/250/26 148/257/26 132/260/26
f 143/250/93 145/246/93 144/241/93
f 144/373/84 138/347/84 136/348/84
f 144/373/84 141/357/84 138/347/84
f 145/376/102 140/358/102 141/357/102
f 145/376/102 141/357/102 144/373/102
f 146/173/110 119/174/110 131/175/110
f 146/173/110 134/172/110 119/174/110
f 146/173/94 148/163/94 147/146/94
f 147/245/101 143/250/101 144/241/101
f 147/245/101 148/257/101 143/250/101
f 149/559/115 151/555/115 150/537/115
f 150/164/126 151/151/126 152/153/126
f 150/164/126 152/153/126 153/165/126
f 151/151/26 165/136/26 169/138/26
f 151/151/26 169/138/26 152/153/26
f 152/153/116 154/152/116 153/165/116
f 153/390/112 156/409/112 159/431/112
f 153/390/112 159/431/112 163/432/112
f 154/152/136 169/138/136 167/137/136
f 154/152/270 152/153/270 169/138/270
f 154/379/127 155/402/127 156/409/127
f 154/379/127 156/409/127 153/390/127
f 155/266/137 170/267/137 157/274/137
f 155/266/137 172/263/137 170/267/137
f 155/402/117 157/415/117 156/409/117
f 156/409/128 157/415/128 158/437/128
f 156/409/128 158/437/128 159/431/128
f 157/199/113 170/186/113 175/188/113
f 157/199/113 175/188/113 158/201/113
f 158/201/118 160/203/118 159/211/118
f 158/201/138 173/190/138 160/203/138
f 158/201/271 175/188/271 173/190/271
f 160/203/129 162/202/129 163/210/129
f 160/203/129 163/210/129 159/211/129
f 161/558/119 163/536/119 162/554/119
f 161/558/125 149/559/125 150/537/125
f 161/558/125 150/537/125 163/536/125
f 162/202/139 176/187/139 161/200/139
f 162/202/139 178/189/139 176/187/139
f 163/432/112 150/391/112 153/390/112
f 164/110/120 166/109/120 165/120/120
f 164/110/130 176/81/130 177/80/130
f 164/110/130 177/80/130 166/109/130
f 164/134/135 151/151/135 149/149/135
f 164/134/135 165/136/135 151/151/135
f 166/109/114 177/80/114 174/79/114
f 167/137/111 155/150/111 154/152/111
f 167/137/111 172/135/111 155/150/111
f 167/137/121 169/138/121 168/125/121
f 169/138/134 165/136/134 166/122/134
f 169/138/134 166/122/134 168/125/134
f 170/267/122 172/263/122 171/254/122
f 171/121/133 167/137/133 168/125/133
f 171/121/269 172/135/269 167/137/269
f 173/190/123 175/188/123 174/177/123
f 173/190/3 162/202/3 160/203/3
f 173/190/3 178/189/3 162/202/3
f 174/79/114 168/108/114 166/109/114
f 174/79/114 171/91/114 168/108/114
f 175/273/132 170/267/132 171/254/132
f 175/273/132 171/254/132 174/259/132
f 176/560/140 149/559/140 161/558/140
f 176/560/140 164/561/140 149/559/140
f 176/81/124 178/68/124 177/80/124
f 177/176/131 173/190/131 174/177/131
f 177/176/131 178/189/131 173/190/131
f 179/207/14 181/205/14 186/194/14
f 179/207/14 186/194/14 185/196/14
f 179/577/141 180/585/141 181/586/141
f 182/702/142 183/718/142 184/703/142
f 182/702/15 181/586/15 180/585/15
f 182/702/15 184/703/15 181/586/15
f 183/319/25 182/332/25 195/333/25
f 183/319/25 195/333/25 194/320/25
f 184/620/4 186/623/4 181/621/4
f 184/620/4 190/622/4 186/623/4
f 185/196/18 187/179/18 198/178/18
f 185/196/18 198/178/18 197/195/18
f 185/624/143 186/623/143 187/636/143
f 187/636/17 186/623/17 190/622/17
f 187/636/17 190/622/17 189/635/17
f 188/144/144 189/167/144 190/161/144
f 188/310/16 184/317/16 183/319/16
f 188/310/16 190/304/16 184/317/16
f 188/310/3 183/319/3 194/320/3
f 188/310/3 194/320/3 200/311/3
f 189/167/5 198/294/5 187/295/5
f 189/167/5 202/166/5 198/294/5
f 191/206/24 180/213/24 179/207/24
f 191/206/24 193/212/24 180/213/24
f 191/600/145 192/598/145 193/606/145
f 193/606/23 192/598/23 196/597/23
f 193/606/23 196/597/23 195/605/23
f 194/320/22 196/318/22 201/305/22
f 194/320/22 201/305/22 200/311/22
f 194/599/146 195/605/146 196/597/146
f 195/701/1 180/585/1 193/584/1
f 195/701/1 182/702/1 180/585/1
f 197/195/147 198/178/147 199/193/147
f 197/195/21 192/204/21 191/206/21
f 197/195/21 199/193/21 192/204/21
f 197/195/26 179/207/26 185/196/26
f 197/195/26 191/206/26 179/207/26
f 199/596/20 198/591/20 202/590/20
f 199/596/20 202/590/20 201/595/20
f 200/143/148 201/160/148 202/166/148
f 200/143/19 189/167/19 188/144/19
f 200/143/19 202/166/19 189/167/19
f 201/595/2 192/598/2 199/596/2
f 201/595/2 196/597/2 192/598/2
f 26/14/35 29/15/35 25/16/35
f 26/14/35 30/13/35 29/15/35
f 27/72/3 55/74/3 51/87/3
f 28/52/34 30/65/34 26/53/34
f 28/52/34 32/64/34 30/65/34
f 28/52/36 27/51/36 31/60/36
f 28/52/36 31/60/36 32/64/36
f 28/52/50 55/50/50 27/51/50
f 28/52/50 56/45/50 55/50/50
f 29/15/26 33/19/26 37/23/26
f 30/13/37 33/19/37 29/15/37
f 30/13/37 34/17/37 33/19/37
f 32/11/33 34/22/33 30/12/33
f 32/11/33 36/21/33 34/22/33
f 34/17/39 37/23/39 33/19/39
f 34/17/39 38/25/39 37/23/39
f 35/88/3 27/72/3 51/87/3
f 35/88/3 31/75/3 27/72/3
f 36/21/28 38/28/28 34/22/28
f 36/21/28 40/27/28 38/28/28
f 36/86/38 31/75/38 35/88/38
f 36/86/38 32/71/38 31/75/38
f 36/86/40 35/88/40 39/93/40
f 36/86/40 39/93/40 40/97/40
f 37/23/26 41/29/26 45/30/26
f 37/23/26 45/30/26 53/20/26
f 38/25/41 41/29/41 37/23/41
f 38/25/41 42/33/41 41/29/41
f 40/1/29 42/4/29 38/2/29
f 40/1/29 44/3/29 42/4/29
f 42/4/43 45/8/43 41/6/43
f 42/4/43 46/10/43 45/8/43
f 43/95/3 39/93/3 35/88/3
f 44/3/30 46/10/30 42/4/30
f 44/3/30 48/9/30 46/10/30
f 44/3/44 43/5/44 47/7/44
f 44/3/44 47/7/44 48/9/44
f 44/98/42 39/93/42 43/95/42
f 44/98/42 40/97/42 39/93/42
f 45/30/26 49/24/26 53/20/26
f 46/34/45 49/24/45 45/30/45
f 46/34/45 50/26/45 49/24/45
f 48/31/31 50/39/31 46/32/31
f 48/31/31 52/38/31 50/39/31
f 50/26/47 53/20/47 49/24/47
f 50/26/47 54/18/47 53/20/47
f 51/87/3 43/95/3 35/88/3
f 51/87/3 47/92/3 43/95/3
f 52/38/32 54/44/32 50/39/32
f 52/38/32 56/43/32 54/44/32
f 52/85/46 47/92/46 51/87/46
f 52/85/46 48/96/46 47/92/46
f 52/85/48 51/87/48 55/74/48
f 52/85/48 55/74/48 56/70/48
f 53/20/26 25/16/26 29/15/26
f 53/20/26 29/15/26 37/23/26
f 54/18/49 25/16/49 53/20/49
f 54/18/49 26/14/49 25/16/49
f 56/45/27 26/53/27 54/46/27
f 56/45/27 28/52/27 26/53/27
f 89/228/55 91/220/55 90/227/55
f 90/240/66 91/233/66 92/232/66
f 90/240/66 92/232/66 93/239/66
f 91/233/26 105/225/26 109/224/26
f 91/233/26 109/224/26 92/232/26
f 92/232/56 94/231/56 93/239/56
f 92/232/76 107/223/76 94/231/76
f 92/232/76 109/224/76 107/223/76
f 93/226/52 96/249/52 99/280/52
f 93/226/52 99/280/52 103/281/52
f 94/231/51 107/223/51 112/221/51
f 94/231/51 112/221/51 95/229/51
f 94/231/67 95/229/67 96/238/67
f 94/231/67 96/238/67 93/239/67
f 95/416/57 97/405/57 96/410/57
f 95/416/77 110/406/77 97/405/77
f 95/416/77 112/417/77 110/406/77
f 96/290/68 97/278/68 98/283/68
f 96/290/68 98/283/68 99/292/68
f 97/278/265 110/269/265 115/271/265
f 97/278/53 115/271/53 98/283/53
f 98/283/58 100/284/58 99/292/58
usemtl RPG_iron
f 57/505/28 58/474/28 86/473/28
f 57/505/28 86/473/28 85/504/28
f 58/350/3 59/352/3 87/360/3
f 58/350/3 87/360/3 86/362/3
f 59/100/32 60/130/32 88/131/32
f 59/100/32 88/131/32 87/101/32
f 60/216/26 57/214/26 85/236/26
f 60/216/26 85/236/26 88/234/26
f 61/506/33 58/474/33 57/505/33
f 61/506/33 62/475/33 58/474/33
f 62/338/3 59/352/3 58/350/3
f 62/338/3 63/345/3 59/352/3
f 63/99/31 60/130/31 59/100/31
f 63/99/31 64/129/31 60/130/31
f 64/191/26 57/214/26 60/216/26
f 64/191/26 61/182/26 57/214/26
f 65/468/34 62/443/34 61/462/34
f 65/468/34 66/445/34 62/443/34
f 66/337/3 63/345/3 62/338/3
f 66/337/3 67/344/3 63/345/3
f 67/55/30 64/47/30 63/54/30
f 67/55/30 68/48/30 64/47/30
f 68/192/26 61/182/26 64/191/26
f 68/192/26 65/183/26 61/182/26
f 69/463/27 66/445/27 65/468/27
f 69/463/27 70/444/27 66/445/27
f 70/349/3 67/344/3 66/337/3
f 70/349/3 71/351/3 67/344/3
f 71/56/29 68/48/29 67/55/29
f 71/56/29 72/49/29 68/48/29
f 72/217/26 65/183/26 68/192/26
f 72/217/26 69/215/26 65/183/26
f 73/552/32 70/513/32 69/551/32
f 73/552/32 74/514/32 70/513/32
f 74/361/3 71/351/3 70/349/3
f 74/361/3 75/359/3 71/351/3
f 75/288/28 72/329/28 71/289/28
f 75/288/28 76/328/28 72/329/28
f 76/235/26 69/215/26 72/217/26
f 76/235/26 73/237/26 69/215/26
f 77/553/31 74/514/31 73/552/31
f 77/553/31 78/515/31 74/514/31
f 78/371/3 75/359/3 74/361/3
f 78/371/3 79/368/3 75/359/3
f 79/287/33 76/328/33 75/288/33
f 79/287/33 80/327/33 76/328/33
f 80/243/26 73/237/26 76/235/26
f 80/243/26 77/248/26 73/237/26
f 81/588/30 78/564/30 77/587/30
f 81/588/30 82/565/30 78/564/30
f 82/372/3 79/368/3 78/371/3
f 82/372/3 83/369/3 79/368/3
f 83/594/34 80/613/34 79/602/34
f 83/594/34 84/611/34 80/613/34
f 84/242/26 77/248/26 80/243/26
f 84/242/26 81/247/26 77/248/26
f 85/589/29 82/565/29 81/588/29
f 85/589/29 86/566/29 82/565/29
f 86/362/3 83/369/3 82/372/3
f 86/362/3 87/360/3 83/369/3
f 87/601/27 84/611/27 83/594/27
f 87/601/27 88/612/27 84/611/27
f 88/234/26 81/247/26 84/242/26
f 88/234/26 85/236/26 81/247/26
usemtl RPG_thatch
f 204/398/4 205/401/4 203/399/4
f 204/398/4 206/400/4 205/401/4
f 206/308/3 204/323/3 208/324/3
f 206/308/3 208/324/3 210/309/3
f 206/579/5 209/665/5 205/666/5
f 206/579/5 210/578/5 209/665/5
f 208/469/1 203/383/1 207/382/1
f 208/469/1 204/470/1 203/383/1
f 209/306/26 203/322/26 205/307/26
f 209/306/26 207/321/26 203/322/26
f 210/386/2 207/393/2 209/387/2
f 210/386/2 208/392/2 207/393/2
f 227/507/160 231/494/160 233/502/160
f 227/507/272 230/496/272 231/494/272
f 228/486/161 231/494/161 230/496/161
f 228/486/273 232/488/273 231/494/273
f 229/464/162 231/460/162 232/466/162
f 229/464/274 233/458/274 231/460/274
f 229/464/4 236/471/4 250/472/4
f 229/464/4 250/472/4 242/465/4
f 234/478/186 232/488/186 228/486/186
f 234/478/186 240/482/186 232/488/186
f 234/714/163 238/699/163 240/710/163
f 234/714/275 237/706/275 238/699/275
f 235/685/164 238/699/164 237/706/164
f 235/685/206 237/706/206 265/707/206
f 235/685/206 265/707/206 262/686/206
f 235/685/276 239/691/276 238/699/276
f 236/471/165 238/480/165 239/484/165
f 236/471/277 240/476/277 238/480/277
f 237/706/207 234/714/207 263/715/207
f 237/706/207 263/715/207 265/707/207
f 239/484/189 250/472/189 236/471/189
f 239/484/189 254/485/189 250/472/189
f 240/476/187 229/464/187 232/466/187
f 240/476/187 236/471/187 229/464/187
f 241/658/166 245/648/166 247/646/166
f 241/658/184 227/722/184 233/720/184
f 241/658/184 233/720/184 244/652/184
f 241/658/192 247/646/192 272/645/192
f 241/658/192 272/645/192 269/657/192
f 241/658/278 244/652/278 245/648/278
f 242/465/167 245/461/167 244/459/167
f 242/465/279 246/467/279 245/461/279
f 243/171/190 246/159/190 253/155/190
f 243/171/190 253/155/190 249/157/190
f 243/638/168 245/648/168 246/640/168
f 243/638/280 247/646/280 245/648/280
f 244/459/185 229/464/185 242/465/185
f 244/459/185 233/458/185 229/464/185
f 246/467/191 242/465/191 250/472/191
f 246/467/191 250/472/191 253/477/191
f 247/646/193 243/638/193 270/637/193
f 247/646/193 270/637/193 272/645/193
f 248/128/169 252/140/169 254/133/169
f 248/128/281 251/142/281 252/140/281
f 248/627/158 235/685/158 262/686/158
f 248/627/158 262/686/158 276/628/158
f 248/627/188 239/691/188 235/685/188
f 248/627/188 254/633/188 239/691/188
f 249/157/159 270/170/159 243/171/159
f 249/157/159 278/156/159 270/170/159
f 249/157/170 252/140/170 251/142/170
f 249/157/282 253/155/282 252/140/282
f 250/472/171 252/481/171 253/477/171
f 250/472/283 254/485/283 252/481/283
f 255/508/172 259/495/172 261/497/172
f 255/508/204 230/496/204 227/507/204
f 255/508/204 261/497/204 230/496/204
f 255/508/284 258/503/284 259/495/284
f 256/447/173 259/450/173 258/452/173
f 256/447/285 260/446/285 259/450/285
f 257/487/174 259/495/174 260/489/174
f 257/487/286 261/497/286 259/495/286
f 260/446/203 256/447/203 264/439/203
f 260/446/203 264/439/203 267/438/203
f 261/497/205 228/486/205 230/496/205
f 261/497/205 257/487/205 228/486/205
f 262/686/175 266/700/175 268/692/175
f 262/686/200 268/692/200 279/634/200
f 262/686/200 279/634/200 276/628/200
f 262/686/287 265/707/287 266/700/287
f 263/479/157 228/486/157 257/487/157
f 263/479/157 234/478/157 228/486/157
f 263/479/202 257/487/202 260/489/202
f 263/479/202 260/489/202 267/483/202
f 263/715/176 266/700/176 265/707/176
f 263/715/288 267/711/288 266/700/288
f 264/439/177 266/435/177 267/438/177
f 264/439/289 268/433/289 266/435/289
f 269/657/178 273/647/178 275/651/178
f 269/657/198 258/719/198 255/721/198
f 269/657/198 275/651/198 258/719/198
f 269/657/208 227/722/208 241/658/208
f 269/657/208 255/721/208 227/722/208
f 269/657/290 272/645/290 273/647/290
f 270/637/179 273/647/179 272/645/179
f 270/637/291 274/639/291 273/647/291
f 271/448/180 273/451/180 274/449/180
f 271/448/292 275/453/292 273/451/292
f 275/453/199 256/447/199 258/452/199
f 275/453/199 271/448/199 256/447/199
f 276/127/181 280/139/181 282/141/181
f 276/127/194 251/142/194 248/128/194
f 276/127/194 282/141/194 251/142/194
f 276/127/293 279/132/293 280/139/293
f 277/440/182 280/436/182 279/434/182
f 277/440/196 271/448/196 274/449/196
f 277/440/196 274/449/196 281/441/196
f 277/440/2 256/447/2 271/448/2
f 277/440/2 264/439/2 256/447/2
f 277/440/294 281/441/294 280/436/294
f 278/156/183 280/139/183 281/154/183
f 278/156/295 282/141/295 280/139/295
f 279/434/201 264/439/201 277/440/201
f 279/434/201 268/433/201 264/439/201
f 281/154/197 270/170/197 278/156/197
f 281/154/197 274/158/197 270/170/197
f 282/141/195 249/157/195 251/142/195
f 282/141/195 278/156/195 249/157/195
f 283/684/212 287/698/212 289/690/212
f 283/684/236 289/690/236 300/632/236
f 283/684/236 300/632/236 297/626/236
f 283/684/296 286/705/296 287/698/296
f 284/549/238 290/534/238 296/532/238
f 284/549/238 296/532/238 288/545/238
f 284/713/213 287/698/213 286/705/213
f 284/713/297 288/709/297 287/698/297
f 285/510/214 287/525/214 288/512/214
f 285/510/298 289/527/298 287/525/298
f 288/512/239 292/499/239 285/510/239
f 288/512/239 296/501/239 292/499/239
f 289/527/237 285/510/237 298/509/237
f 289/527/237 298/509/237 300/526/237
f 290/534/215 294/530/215 296/532/215
f 290/534/299 293/528/299 294/530/299
f 291/516/216 294/530/216 293/528/216
f 291/516/258 293/528/258 321/529/258
f 291/516/258 321/529/258 318/517/258
f 291/516/300 295/522/300 294/530/300
f 292/499/217 294/493/217 295/491/217
f 292/499/301 296/501/301 294/493/301
f 292/499/4 298/509/4 285/510/4
f 292/499/4 306/498/4 298/509/4
f 293/528/259 290/534/259 319/535/259
f 293/528/259 319/535/259 321/529/259
f 295/491/241 306/498/241 292/499/241
f 295/491/241 310/490/241 306/498/241
f 297/696/218 301/680/218 303/682/218
f 297/696/244 303/682/244 328/681/244
f 297/696/244 328/681/244 325/695/244
f 297/696/302 300/694/302 301/680/302
f 298/509/219 301/524/219 300/526/219
f 298/509/303 302/511/303 301/524/303
f 299/676/220 301/680/220 302/678/220
f 299/676/304 303/682/304 301/680/304
f 302/511/243 298/509/243 306/498/243
f 302/511/243 306/498/243 309/500/243
f 303/682/245 299/676/245 326/675/245
f 303/682/245 326/675/245 328/681/245
f 304/663/210 291/725/210 318/726/210
f 304/663/210 318/726/210 332/664/210
f 304/663/221 308/655/221 310/659/221
f 304/663/240 295/723/240 291/725/240
f 304/663/240 310/659/240 295/723/240
f 304/663/305 307/653/305 308/655/305
f 305/641/222 308/655/222 307/653/222
f 305/641/306 309/649/306 308/655/306
f 305/670/211 326/675/211 299/676/211
f 305/670/211 334/669/211 326/675/211
f 305/670/242 299/676/242 302/678/242
f 305/670/242 302/678/242 309/672/242
f 306/498/223 308/492/223 309/500/223
f 306/498/307 310/490/307 308/492/307
f 311/683/224 315/697/224 317/704/224
f 311/683/250 325/625/250 331/631/250
f 311/683/250 331/631/250 314/689/250
f 311/683/256 286/705/256 283/684/256
f 311/683/256 317/704/256 286/705/256
f 311/683/308 314/689/308 315/697/308
f 312/413/225 315/408/225 314/404/225
f 312/413/309 316/414/309 315/408/309
f 313/550/254 316/546/254 323/533/254
f 313/550/254 323/533/254 319/535/254
f 313/712/226 315/697/226 316/708/226
f 313/712/310 317/704/310 315/697/310
f 314/404/251 327/412/251 312/413/251
f 314/404/251 331/403/251 327/412/251
f 316/414/255 312/413/255 320/420/255
f 316/414/255 320/420/255 323/421/255
f 317/704/257 284/713/257 286/705/257
f 317/704/257 313/712/257 284/713/257
f 318/517/227 322/531/227 324/523/227
f 318/517/311 321/529/311 322/531/311
f 318/726/252 324/724/252 335/660/252
f 318/726/252 335/660/252 332/664/252
f 319/535/209 284/549/209 313/550/209
f 319/535/209 290/534/209 284/549/209
f 319/535/228 322/531/228 321/529/228
f 319/535/312 323/533/312 322/531/312
f 320/420/229 322/425/229 323/421/229
f 320/420/313 324/427/313 322/425/313
f 325/625/260 283/684/260 297/626/260
f 325/625/260 311/683/260 283/684/260
f 325/695/230 329/679/230 331/693/230
f 325/695/314 328/681/314 329/679/314
f 326/675/231 329/679/231 328/681/231
f 326/675/315 330/677/315 329/679/315
f 327/412/2 320/420/2 312/413/2
f 327/412/2 333/419/2 320/420/2
f 327/412/232 329/407/232 330/411/232
f 327/412/248 330/411/248 337/418/248
f 327/412/248 337/418/248 333/419/248
f 327/412/316 331/403/316 329/407/316
f 330/677/249 326/675/249 334/669/249
f 330/677/249 334/669/249 337/671/249
f 332/664/233 336/656/233 338/654/233
f 332/664/246 307/653/246 304/663/246
f 332/664/246 338/654/246 307/653/246
f 332/664/317 335/660/317 336/656/317
f 333/419/234 336/424/234 335/426/234
f 333/419/318 337/418/318 336/424/318
f 334/642/235 336/656/235 337/650/235
f 334/642/319 338/654/319 336/656/319
f 335/426/253 320/420/253 333/419/253
f 335/426/253 324/427/253 320/420/253
f 338/654/247 305/641/247 307/653/247
f 338/654/247 334/642/247 305/641/247
f 340/147/261 341/169/261 339/148/261
f 340/147/261 342/168/261 341/169/261
f 340/644/2 348/661/2 344/668/2
f 340/644/2 350/643/2 348/661/2
f 341/716/4 343/717/4 345/688/4
f 341/716/4 345/688/4 349/673/4
f 342/607/26 343/615/26 341/608/26
f 342/607/26 344/614/26 343/615/26
f 344/630/262 345/616/262 343/629/262
f 344/630/262 346/617/262 345/616/262
f 344/668/2 342/662/2 340/644/2
f 345/688/4 347/674/4 349/673/4
f 346/617/263 347/609/263 345/616/263
f 346/617/263 348/610/263 347/609/263
f 348/604/3 349/592/3 347/603/3
f 348/604/3 350/593/3 349/592/3
f 348/661/2 346/667/2 344/668/2
f 349/673/4 339/687/4 341/716/4
f 350/123/264 339/148/264 349/124/264
f 350/123/264 340/147/264 339/148/264
usemtl RPG_flame
f 212/117/149 213/103/149 211/104/149
f 212/117/149 214/116/149 213/103/149
f 212/562/1 226/573/1 224/574/1
f 213/264/5 215/275/5 217/285/5
f 214/40/150 215/36/150 213/35/150
f 214/40/150 216/41/150 215/36/150
f 216/41/151 217/37/151 215/36/151
f 216/41/151 218/42/151 217/37/151
f 216/538/1 212/562/1 224/574/1
f 216/538/1 214/547/1 212/562/1
f 217/285/5 219/286/5 221/276/5
f 217/285/5 221/276/5 225/256/5
f 218/325/152 219/303/152 217/301/152
f 218/325/152 220/330/152 219/303/152
f 220/330/153 221/302/153 219/303/153
f 220/330/153 222/326/153 221/302/153
f 220/548/1 218/539/1 216/538/1
f 221/276/5 223/265/5 225/256/5
f 222/59/154 223/61/154 221/63/154
f 222/59/154 224/57/154 223/61/154
f 224/57/155 225/62/155 223/61/155
f 224/57/155 226/58/155 225/62/155
f 224/574/1 220/548/1 216/538/1
f 224/574/1 222/563/1 220/548/1
f 225/256/5 211/255/5 213/264/5
f 225/256/5 213/264/5 217/285/5
f 226/115/156 211/104/156 225/102/156
f 226/115/156 212/117/156 211/104/156
