# Blender 4.0.2
# www.blender.org
mtllib quest_signpost_lod1.mtl
o quest_signpost_lod1
v 0.170000 0.000000 -0.170000
v 0.185509 0.025245 -0.191962
v 0.176613 0.166935 -0.188548
v 0.200000 0.150000 -0.170000
v 0.200000 0.030000 0.170000
v 0.176613 0.013065 0.188548
v 0.170000 0.180000 0.170000
v 0.185509 0.154755 0.191962
v -0.200000 0.030000 -0.170000
v -0.176613 0.013065 -0.188548
v -0.170000 0.180000 -0.170000
v -0.185509 0.154755 -0.191962
v -0.170000 0.000000 0.170000
v -0.185509 0.025245 0.191962
v -0.200000 0.150000 0.170000
v -0.176613 0.166935 0.188548
v 0.022857 0.179304 0.044197
v 0.000000 0.200000 0.070000
v 0.000000 2.020000 0.070000
v -0.049497 0.200000 0.049497
v -0.049374 2.036719 0.035263
v -0.060018 0.183753 0.014236
v -0.070000 2.020000 0.000000
v -0.049497 0.200000 -0.049497
v -0.035856 2.034701 -0.050459
v -0.022857 0.179304 -0.044197
v 0.000000 0.200000 -0.070000
v 0.000000 2.020000 -0.070000
v 0.049497 0.200000 -0.049497
v 0.049374 2.036719 -0.035263
v 0.060018 0.183753 -0.014236
v 0.070000 2.020000 0.000000
v 0.049497 0.200000 0.049497
v 0.035856 2.034701 0.050459
v -0.078000 0.215000 0.000000
v -0.072000 0.265000 0.004828
v -0.065745 0.215000 -0.020924
v -0.055154 0.215000 0.055154
v -0.047497 0.265000 0.054326
v -0.000000 0.215000 0.078000
v 0.004828 0.265000 0.072000
v -0.020924 0.215000 0.065745
v 0.055154 0.215000 0.055154
v 0.054326 0.265000 0.047497
v 0.078000 0.215000 0.000000
v 0.072000 0.265000 -0.004828
v 0.065745 0.215000 0.020924
v 0.055154 0.215000 -0.055154
v 0.047497 0.265000 -0.054326
v 0.000000 0.215000 -0.078000
v -0.004828 0.265000 -0.072000
v 0.020924 0.215000 -0.065745
v -0.055154 0.215000 -0.055154
v -0.054326 0.265000 -0.047497
v 0.022630 1.741807 -0.016330
v -0.523531 1.760000 0.107877
v -0.628451 1.827128 0.150766
v -0.523531 1.880000 0.107877
v 0.040091 1.879960 -0.011052
v 0.013193 1.880000 -0.029171
v 0.040030 1.754934 0.003120
v -0.511160 1.760000 0.156323
v -0.522883 1.741123 0.133514
v -0.623799 1.812872 0.168986
v -0.511160 1.880000 0.156323
v -0.522883 1.898877 0.133514
v 0.027689 1.898193 0.003482
v -0.020887 1.678194 -0.018508
v 0.510145 1.660000 0.159604
v 0.610260 1.592872 0.212754
v 0.510145 1.540000 0.159604
v 0.506941 1.521123 0.185048
v -0.031276 1.534934 -0.025178
v -0.040141 1.665066 -0.000892
v 0.493000 1.660000 0.206573
v 0.506942 1.678877 0.185048
v 0.603812 1.607129 0.230418
v 0.493000 1.540000 0.206573
v -0.027898 1.521807 0.000700
v 0.008133 1.301807 -0.026696
v -0.351488 1.320000 0.402713
v -0.394329 1.387128 0.512042
v -0.351488 1.440000 0.402713
v -0.335458 1.458877 0.422730
v 0.013503 1.445066 -0.037812
v 0.033755 1.314934 -0.021741
v -0.312322 1.320000 0.433793
v -0.335458 1.301123 0.422730
v -0.409058 1.372872 0.500353
v -0.312322 1.440000 0.433793
v 0.024150 1.458193 -0.013985
v 0.187630 0.883850 0.079951
v 0.176893 1.167779 0.082179
v 0.176893 0.872221 0.097821
v 0.187630 1.156150 0.100049
v -0.176893 0.872221 0.082179
v -0.187630 1.156150 0.079951
v -0.187630 0.883850 0.100049
v -0.176893 1.167779 0.097821
v 0.140000 1.130000 0.116000
v 0.140000 0.910000 0.112000
v -0.140000 0.910000 0.116000
v -0.140000 1.130000 0.112000
v -0.079511 0.979884 0.134000
v -0.060489 0.979884 0.114000
v -0.099884 0.959511 0.114000
v -0.099035 0.936420 0.130667
v -0.060489 0.920116 0.134000
v -0.040116 0.959511 0.134000
v -0.043739 0.929457 0.114000
v 0.109529 2.045398 0.015325
v 0.123955 2.019721 0.011248
v 0.123261 2.058784 0.037788
v 0.122946 1.918315 0.155839
v 0.120062 1.959279 0.183570
v 0.125723 1.938189 0.177989
v -0.127374 2.043628 0.020538
v -0.120035 2.019233 0.010196
v -0.120062 2.059698 0.040156
v -0.120802 1.917648 0.154043
v -0.126452 1.933107 0.174123
v -0.120826 1.957944 0.183954
v 0.120802 1.917648 -0.154043
v 0.126452 1.933107 -0.174123
v 0.120826 1.957944 -0.183954
v 0.127374 2.043628 -0.020538
v 0.120035 2.019233 -0.010196
v 0.120062 2.059698 -0.040156
v -0.122946 1.918315 -0.155839
v -0.120062 1.959279 -0.183570
v -0.125723 1.938189 -0.177989
v -0.109529 2.045398 -0.015325
v -0.123955 2.019721 -0.011248
v -0.123261 2.058784 -0.037788
v -0.150000 2.061809 0.028636
v 0.150000 2.019295 0.004091
v -0.150000 2.019295 -0.004091
v 0.150000 2.061809 -0.028636
v -0.150000 2.068895 -0.024545
v 0.150000 2.068895 0.024545
vn -0.0152 -0.6616 0.7497
vn 0.0152 0.6616 0.7497
vn -0.6462 0.0589 0.7609
vn 0.0152 -0.6616 -0.7497
vn -0.0152 0.6616 -0.7497
vn 0.3197 -0.0462 -0.9464
vn -0.9464 -0.0462 -0.3197
vn -0.3197 -0.0462 0.9464
vn 0.9464 -0.0462 0.3197
vn 0.3877 0.7212 -0.5740
vn -0.1591 -0.7969 -0.5828
vn -0.5436 0.6824 -0.4887
vn 0.1398 0.7969 0.5877
vn -0.2428 -0.6824 0.6895
vn -0.0102 0.0234 -0.9997
vn 0.2165 0.7969 -0.5640
vn 0.5897 -0.6824 -0.4320
vn -0.1978 -0.7969 0.5708
vn 0.1727 0.6824 0.7103
vn -0.4793 -0.7969 -0.3677
vn -0.7285 -0.6824 -0.0601
vn 0.4670 0.7969 0.3833
vn 0.2240 0.6824 0.6958
vn -0.0237 -0.8444 0.5352
vn 0.0237 0.8444 0.5352
vn -0.8670 0.0367 0.4970
vn 0.0237 -0.8444 -0.5352
vn -0.0237 0.8444 -0.5352
vn -0.8078 0.3252 0.4916
vn 0.7850 -0.4060 0.4678
vn 0.4209 0.8140 0.4003
vn -0.6176 0.4495 0.6454
vn 1.0000 -0.0000 -0.0000
vn -0.9933 0.1086 -0.0383
vn 0.0357 0.9987 -0.0357
vn 0.9933 0.1086 0.0383
vn 0.0102 0.0234 0.9997
vn 0.8413 -0.5400 -0.0266
vn 0.8413 0.5400 0.0266
vn 0.6462 0.0589 -0.7609
vn -0.8413 -0.5400 0.0266
vn 0.6462 -0.0589 0.7609
vn -0.8413 0.5400 -0.0266
vn -0.0357 -0.9987 -0.0357
vn -0.6462 -0.0589 -0.7609
vn 0.3827 -0.0000 0.9239
vn -0.8290 0.0059 -0.5592
vn -0.3827 -0.0000 -0.9239
vn 0.5739 0.0064 -0.8189
vn 0.9579 -0.0030 -0.2872
vn 0.8290 0.0059 0.5592
vn -0.9579 -0.0030 0.2872
vn 0.0189 0.9995 0.0265
vn -0.5739 0.0064 0.8189
vn -0.2128 -0.8618 0.4606
vn 0.2128 -0.8618 -0.4606
vn -0.0712 0.8555 0.5129
vn -0.5504 -0.7828 -0.2904
vn -0.5160 0.8505 -0.1014
vn -0.3092 -0.5892 -0.7465
vn -0.0658 -0.9972 0.0341
vn 0.0712 0.8555 -0.5129
vn 0.5504 -0.7828 0.2904
vn 0.5160 0.8505 0.1014
vn 0.3092 -0.5892 0.7465
vn -0.8870 0.1431 0.4391
vn 0.8338 0.3447 -0.4312
vn -0.0000 -1.0000 -0.0000
vn -0.3167 0.1431 0.9377
vn 0.4391 0.1431 0.8870
vn -0.4312 0.3447 -0.8338
vn 0.9377 0.1431 0.3167
vn 0.8870 0.1431 -0.4391
vn -0.8338 0.3447 0.4312
vn 0.3167 0.1431 -0.9377
vn -0.4391 0.1431 -0.8870
vn 0.4312 0.3447 0.8338
vn -0.9377 0.1431 -0.3167
vn -0.2790 0.1680 -0.9455
vn 0.2221 -0.1923 0.9559
vn 0.7488 -0.0104 -0.6627
vn -0.6041 -0.6952 -0.3897
vn -0.1135 0.8885 -0.4446
vn -0.3433 0.6952 0.6316
vn 0.7991 0.0673 0.5974
vn 0.1244 -0.8705 0.4762
vn 0.3565 -0.1923 -0.9143
vn -0.3164 0.1923 0.9289
vn 0.6399 0.6952 -0.3275
vn -0.7032 0.0839 -0.7061
vn 0.1663 -0.8705 -0.4633
vn 0.2785 -0.6951 0.6627
vn -0.9927 -0.0839 0.0870
vn -0.1713 0.8705 0.4614
vn -0.7807 0.2260 -0.5827
vn 0.7448 -0.2260 0.6279
vn -0.7672 0.6414 0.0095
vn 0.2304 -0.0839 -0.9695
vn -0.3839 0.8705 -0.3081
vn 0.1650 -0.6414 0.7493
vn 0.8918 0.0839 -0.4447
vn 0.3872 -0.8705 0.3039
vn -0.0064 0.0076 -1.0000
vn 0.0064 0.0076 1.0000
vn 0.0143 0.0182 0.9997
vn 0.8670 0.0367 -0.4970
vn 0.8670 -0.0367 0.4970
vn -0.8670 -0.0367 -0.4970
vn -0.0143 0.0182 -0.9997
vn -0.3025 -0.5651 -0.7675
vn -0.4209 0.8140 -0.4003
vn -0.2725 -0.7639 -0.5850
vn -0.0994 -0.0316 0.9945
vn 0.7973 0.2648 -0.5424
vn 0.0086 0.8258 0.5639
vn 0.9957 -0.0611 -0.0700
vn 0.0066 -0.7915 0.6112
vn 0.6176 0.4494 -0.6454
vn 0.9624 0.2141 0.1672
vn -0.0096 -0.2582 0.9660
vn -0.9736 -0.1879 -0.1293
vn -0.9586 0.2284 0.1701
vn -0.0232 0.3843 -0.9229
vn -0.0197 0.7770 -0.6292
vn 0.0041 -0.8187 -0.5742
vn -0.9957 -0.0611 0.0700
vn 0.0036 0.8163 -0.5776
vn 0.9736 -0.1879 0.1293
vn 0.9586 0.2284 -0.1701
vn 0.0232 0.3843 0.9229
vn 0.0197 0.7770 0.6292
vn -0.0066 -0.7915 -0.6112
vn -0.9624 0.2141 -0.1672
vn 0.0096 -0.2582 -0.9660
vn -0.0065 -0.8168 0.5768
vn -0.0216 -0.6099 0.7922
vn -0.0216 -0.3812 -0.9243
vn -0.0216 0.9910 0.1320
vn -1.0000 -0.0000 -0.0000
vn 0.0102 -0.0234 -0.9997
vn -0.9933 -0.1086 0.0383
vn -0.0357 0.9987 0.0357
vn 0.9933 -0.1086 -0.0383
vn -0.0102 -0.0234 0.9997
vn 0.5959 -0.8029 0.0183
vn 0.5959 0.8029 -0.0183
vn -0.5959 -0.8029 -0.0183
vn -0.5959 0.8029 0.0183
vn 0.0357 -0.9987 0.0357
vn 0.4776 0.0031 0.8786
vn -0.9864 -0.0066 -0.1645
vn -0.4776 0.0031 -0.8786
vn 0.3827 -0.0000 -0.9239
vn 0.8640 0.0040 -0.5035
vn 0.9864 -0.0066 0.1645
vn -0.8640 0.0040 0.5035
vn -0.0189 0.9995 -0.0265
vn -0.3827 -0.0000 0.9239
vn -0.2052 -0.8441 0.4953
vn 0.2052 -0.8441 -0.4953
vn 0.0658 -0.9972 -0.0341
vn -0.9214 0.0737 0.3816
vn 0.8483 0.3224 -0.4200
vn -0.3816 0.0737 0.9214
vn 0.3816 0.0737 0.9214
vn -0.4200 0.3224 -0.8483
vn 0.9214 0.0737 0.3816
vn 0.9214 0.0737 -0.3816
vn -0.8483 0.3224 0.4200
vn 0.3816 0.0737 -0.9214
vn -0.3816 0.0737 -0.9214
vn 0.4200 0.3224 0.8483
vn -0.9214 0.0737 -0.3816
vn -0.2373 -0.2830 -0.9293
vn -0.2239 -0.1053 -0.9689
vn 0.2558 0.3272 0.9097
vn 0.2722 0.0210 0.9620
vn 0.5561 -0.0939 -0.8258
vn -0.6165 -0.6414 -0.4567
vn -0.1372 0.7993 -0.5851
vn -0.3221 0.6414 0.6964
vn 0.1601 -0.7993 0.5792
vn 0.3025 0.3272 -0.8952
vn 0.3186 0.0210 -0.9477
vn -0.3454 -0.3272 0.8796
vn -0.3668 -0.0210 0.9300
vn 0.6590 0.6414 -0.3929
vn 0.1949 -0.7993 -0.5685
vn 0.2510 -0.6414 0.7250
vn -0.2171 0.7993 0.5603
vn -0.7416 -0.2621 -0.6175
vn -0.7669 -0.0210 -0.6414
vn 0.7698 0.2621 0.5819
vn 0.7989 0.0210 0.6011
vn -0.7167 0.6951 0.0553
vn -0.4633 0.7993 -0.3827
vn 0.1090 -0.6952 0.7106
vn 0.4780 -0.7993 0.3642
vn 0.0064 -0.0076 -1.0000
vn -0.0064 -0.0076 1.0000
vn -0.0143 -0.0182 0.9997
vn 0.0143 -0.0182 -0.9997
vn -0.0000 -0.0000 -1.0000
vn -0.0000 -0.0000 1.0000
vn -0.0036 0.8163 0.5776
vn 0.9999 0.0088 0.0132
vn -0.0029 -0.7441 0.6680
vn 0.0035 -0.3687 0.9295
vn -0.9618 -0.2210 -0.1612
vn -0.9775 0.1746 0.1184
vn 0.0039 0.1590 -0.9873
vn -0.0017 0.8595 -0.5111
vn 0.0065 -0.8168 -0.5768
vn -0.9999 0.0088 -0.0132
vn -0.0086 0.8258 -0.5639
vn 0.9618 -0.2210 0.1612
vn 0.9775 0.1746 -0.1184
vn -0.0039 0.1590 0.9873
vn 0.0017 0.8595 0.5111
vn 0.0029 -0.7441 -0.6680
vn -0.0035 -0.3687 -0.9295
vn -0.0041 -0.8187 0.5742
vn 0.0216 -0.3812 0.9243
vn 0.0216 -0.6099 -0.7922
vn 0.0216 0.9910 -0.1320
vt 0.00000 0.01016
vt 0.00000 0.93478
vt 0.02152 0.01016
vt 0.02152 0.93478
vt 0.02501 0.00000
vt 0.02501 0.94494
vt 0.04445 0.94494
vt 0.04641 0.00381
vt 0.04966 0.93478
vt 0.05969 0.00000
vt 0.05969 0.92462
vt 0.05969 0.95354
vt 0.05969 0.98075
vt 0.07743 0.94467
vt 0.07886 0.98471
vt 0.07965 1.00000
vt 0.08576 0.00000
vt 0.08576 0.92462
vt 0.10788 0.93429
vt 0.10901 0.94959
vt 0.11029 0.98963
vt 0.11186 0.00000
vt 0.11186 0.92462
vt 0.12189 0.00000
vt 0.12189 0.92462
vt 0.12784 0.95354
vt 0.13788 0.93429
vt 0.13998 0.95053
vt 0.14434 0.00000
vt 0.14434 0.92462
vt 0.14842 0.94092
vt 0.17232 0.00000
vt 0.17232 0.92462
vt 0.18236 0.91002
vt 0.18236 0.93777
vt 0.18236 0.96717
vt 0.19069 0.00573
vt 0.20869 0.01429
vt 0.20869 0.91236
vt 0.20871 0.92203
vt 0.20871 0.94761
vt 0.20871 0.96717
vt 0.21947 0.93948
vt 0.21992 0.92203
vt 0.22935 0.00438
vt 0.22938 0.92866
vt 0.23011 0.94359
vt 0.23451 0.90974
vt 0.24454 0.06262
vt 0.24752 0.89117
vt 0.24766 0.33664
vt 0.24766 0.65923
vt 0.25039 0.04402
vt 0.25402 0.93023
vt 0.25508 0.05515
vt 0.25508 0.34691
vt 0.25508 0.39848
vt 0.25508 0.66974
vt 0.26035 0.67941
vt 0.26035 0.85137
vt 0.27062 0.87269
vt 0.27062 0.94381
vt 0.28086 0.00000
vt 0.28670 0.35658
vt 0.28741 0.88619
vt 0.29129 0.00204
vt 0.29390 0.92525
vt 0.31754 0.87269
vt 0.31754 0.89309
vt 0.31754 0.91853
vt 0.31754 0.92820
vt 0.31758 0.94310
vt 0.31832 0.05515
vt 0.31832 0.34319
vt 0.31832 0.39848
vt 0.31832 0.66502
vt 0.32301 0.04402
vt 0.32359 0.67941
vt 0.32359 0.86302
vt 0.32808 0.94975
vt 0.32812 0.93481
vt 0.32886 0.06262
vt 0.32886 0.33676
vt 0.33107 0.84605
vt 0.33889 0.00977
vt 0.33889 0.33735
vt 0.33899 0.05596
vt 0.34389 0.87269
vt 0.34389 0.90288
vt 0.34441 0.50961
vt 0.34855 0.35722
vt 0.34937 0.64274
vt 0.34947 0.52175
vt 0.35209 0.00000
vt 0.35219 0.05385
vt 0.35397 0.84151
vt 0.35600 0.33746
vt 0.35711 0.66675
vt 0.36010 0.64432
vt 0.36018 0.52098
vt 0.36094 0.93865
vt 0.36394 0.84755
vt 0.36406 0.87053
vt 0.36534 0.05596
vt 0.36549 0.35742
vt 0.36549 0.50979
vt 0.37034 0.93149
vt 0.37537 0.29155
vt 0.38246 0.88182
vt 0.38246 0.91215
vt 0.38258 0.57006
vt 0.38467 0.01005
vt 0.38752 0.36026
vt 0.38827 0.54113
vt 0.38830 0.89994
vt 0.38857 0.29366
vt 0.38905 0.63102
vt 0.39310 0.56291
vt 0.39428 0.36637
vt 0.40172 0.01016
vt 0.40172 0.29155
vt 0.40172 0.54108
vt 0.40470 0.86037
vt 0.40470 0.93359
vt 0.41175 0.05584
vt 0.41175 0.33724
vt 0.41736 0.86600
vt 0.41937 0.63782
vt 0.42350 0.92796
vt 0.42461 0.00000
vt 0.42502 0.05368
vt 0.42679 0.39578
vt 0.42679 0.64802
vt 0.42892 0.33731
vt 0.43616 0.86037
vt 0.43616 0.93359
vt 0.43772 0.00980
vt 0.43810 0.05583
vt 0.44813 0.29105
vt 0.45256 0.89402
vt 0.45840 0.88182
vt 0.45840 0.91214
vt 0.45841 0.35708
vt 0.46133 0.29373
vt 0.46768 0.01013
vt 0.47164 0.93890
vt 0.47212 0.86037
vt 0.47356 0.95873
vt 0.48122 0.91331
vt 0.48651 0.86765
vt 0.48727 0.01006
vt 0.48749 0.29372
vt 0.48995 0.34529
vt 0.49002 0.39578
vt 0.49002 0.63401
vt 0.49002 0.64802
vt 0.49174 0.93668
vt 0.49367 0.95651
vt 0.49707 0.86986
vt 0.49707 0.89356
vt 0.49707 0.91728
vt 0.50031 0.01015
vt 0.50056 0.29156
vt 0.50056 0.63942
vt 0.50056 0.66737
vt 0.50056 0.84209
vt 0.51286 0.94190
vt 0.51491 0.92695
vt 0.51617 0.54065
vt 0.51931 0.36591
vt 0.52338 0.94437
vt 0.52342 0.86986
vt 0.52342 0.90268
vt 0.52674 0.54071
vt 0.53345 0.68190
vt 0.53345 0.86019
vt 0.53678 0.00363
vt 0.53678 0.29194
vt 0.53849 0.34534
vt 0.53866 0.27828
vt 0.53954 0.61082
vt 0.54962 0.60598
vt 0.55138 0.34285
vt 0.56726 0.33058
vt 0.57329 0.66121
vt 0.57794 0.33251
vt 0.58278 0.66491
vt 0.59669 0.69322
vt 0.59669 0.86019
vt 0.59997 0.27465
vt 0.60417 0.68155
vt 0.60709 0.00107
vt 0.60995 0.27851
vt 0.61074 0.61186
vt 0.61250 0.34873
vt 0.61250 0.62655
vt 0.62253 0.37740
vt 0.62253 0.62309
vt 0.62253 0.82630
vt 0.62253 0.83598
vt 0.62253 0.97139
vt 0.62276 0.63823
vt 0.62276 0.81095
vt 0.62723 0.39275
vt 0.62723 0.61342
vt 0.62896 0.00928
vt 0.63034 0.18803
vt 0.63857 0.20322
vt 0.63879 0.01536
vt 0.65426 0.34588
vt 0.65674 0.30311
vt 0.65777 0.21586
vt 0.66469 0.34285
vt 0.66959 0.30399
vt 0.67829 0.21557
vt 0.67960 0.30373
vt 0.69046 0.39275
vt 0.69046 0.61342
vt 0.69171 0.30314
vt 0.69184 0.21535
vt 0.69516 0.37740
vt 0.70342 0.21437
vt 0.70354 0.30429
vt 0.70519 0.55574
vt 0.70519 0.61176
vt 0.70805 0.58349
vt 0.71352 0.53885
vt 0.71513 0.30350
vt 0.71519 0.21582
vt 0.72100 0.34883
vt 0.72100 0.53080
vt 0.72779 0.30175
vt 0.72876 0.21635
vt 0.73078 0.55588
vt 0.73078 0.61190
vt 0.73365 0.58363
vt 0.73847 0.83598
vt 0.73847 0.97139
vt 0.74024 0.30189
vt 0.74368 0.55574
vt 0.74368 0.58377
vt 0.74368 0.61178
vt 0.74907 0.21548
vt 0.75027 0.83598
vt 0.75045 0.30173
vt 0.75299 0.84450
vt 0.75404 0.95522
vt 0.76251 0.30074
vt 0.76266 0.21488
vt 0.76499 0.84044
vt 0.76618 0.95599
vt 0.77003 0.55574
vt 0.77003 0.58377
vt 0.77003 0.61178
vt 0.77385 0.21463
vt 0.77394 0.30258
vt 0.78006 0.55574
vt 0.78006 0.58580
vt 0.78006 0.60991
vt 0.78424 0.34285
vt 0.78424 0.35807
vt 0.78424 0.54008
vt 0.78568 0.30179
vt 0.78573 0.21608
vt 0.78729 0.95571
vt 0.78742 0.84046
vt 0.79659 0.32429
vt 0.79937 0.95582
vt 0.79946 0.83837
vt 0.79975 0.30945
vt 0.80169 0.62310
vt 0.80169 0.82631
vt 0.80191 0.81097
vt 0.80354 0.29117
vt 0.80641 0.55574
vt 0.80641 0.58580
vt 0.80641 0.60991
vt 0.80672 0.22306
vt 0.81008 0.53069
vt 0.81012 0.63830
vt 0.81302 0.28402
vt 0.81644 0.55574
vt 0.81644 0.58597
vt 0.81644 0.60908
vt 0.81676 0.32869
vt 0.81749 0.81107
vt 0.81772 0.00000
vt 0.81772 0.20321
vt 0.81794 0.18807
vt 0.81955 0.30690
vt 0.82015 0.35787
vt 0.82615 0.01529
vt 0.82753 0.81063
vt 0.82753 0.95284
vt 0.82772 0.53655
vt 0.83353 0.18797
vt 0.83701 0.62309
vt 0.83701 0.79708
vt 0.84279 0.55574
vt 0.84279 0.58597
vt 0.84279 0.60908
vt 0.84356 0.00915
vt 0.84356 0.16208
vt 0.84356 0.31449
vt 0.85043 0.14327
vt 0.85283 0.57966
vt 0.85525 0.55574
vt 0.85525 0.60314
vt 0.85775 0.00915
vt 0.85775 0.14991
vt 0.85937 0.16208
vt 0.85937 0.31449
vt 0.87935 0.58883
vt 0.87965 0.14593
vt 0.88084 0.55588
vt 0.88338 0.00149
vt 0.89062 0.35808
vt 0.89062 0.53077
vt 0.89610 0.29620
vt 0.90062 0.16208
vt 0.90188 0.34495
vt 0.90193 0.46711
vt 0.90202 0.60386
vt 0.90206 0.00000
vt 0.90206 0.14508
vt 0.90214 0.48027
vt 0.90222 0.30284
vt 0.91410 0.00172
vt 0.91412 0.12509
vt 0.91891 0.28103
vt 0.91891 0.31552
vt 0.92071 0.16411
vt 0.92122 0.00293
vt 0.92173 0.12410
vt 0.92691 0.28641
vt 0.92791 0.16483
vt 0.93758 0.30097
vt 0.94013 0.81124
vt 0.94013 0.95345
vt 0.94131 0.32383
vt 0.95128 0.81071
vt 0.95528 0.81779
vt 0.95582 0.93473
vt 0.96130 0.30289
vt 0.96504 0.32499
vt 0.96743 0.81288
vt 0.96857 0.93427
vt 0.97342 0.34552
vt 0.97393 0.46669
vt 0.97407 0.60231
vt 0.97504 0.48074
vt 0.97614 0.62309
vt 0.97614 0.80095
vt 0.98092 0.34448
vt 0.98095 0.46786
vt 0.98116 0.60308
vt 0.98300 0.48614
vt 0.98303 0.79148
vt 0.98371 0.31092
vt 0.99184 0.00188
vt 0.99190 0.12405
vt 0.99845 0.28751
vt 0.99858 0.16392
s 0
usemtl RPG_stone
f 1/289/149 6/207/149 13/209/149
f 1/289/44 13/209/44 10/292/44
f 10/227/45 9/231/45 12/262/45
f 10/292/4 2/296/4 1/289/4
f 10/59/140 12/78/140 3/84/140
f 10/59/15 3/84/15 2/60/15
f 11/273/142 16/203/142 7/202/142
f 11/273/35 7/202/35 3/280/35
f 14/230/3 16/260/3 15/261/3
f 15/199/148 16/203/148 11/273/148
f 15/199/43 11/273/43 12/272/43
f 16/291/2 8/295/2 7/279/2
f 3/280/5 12/286/5 11/273/5
f 3/84/40 4/79/40 2/60/40
f 4/271/146 3/280/146 7/202/146
f 4/271/39 7/202/39 8/198/39
f 5/188/143 2/189/143 4/176/143
f 5/188/36 4/176/36 8/175/36
f 5/208/145 6/207/145 1/289/145
f 5/208/38 1/289/38 2/288/38
f 6/191/42 5/188/42 8/175/42
f 6/207/1 14/206/1 13/209/1
f 6/318/144 8/295/144 16/291/144
f 6/318/37 16/291/37 14/317/37
f 9/231/141 14/230/141 15/261/141
f 9/231/34 15/261/34 12/262/34
f 9/287/147 10/292/147 13/209/147
f 9/287/41 13/209/41 14/206/41
usemtl RPG_timber
f 17/15/159 18/13/159 20/12/159
f 17/15/55 20/12/55 22/14/55
f 19/38/57 34/37/57 21/45/57
f 20/11/156 21/10/156 23/17/156
f 20/11/52 23/17/52 22/18/52
f 20/48/158 18/39/158 19/38/158
f 20/48/54 19/38/54 21/45/54
f 22/14/58 24/19/58 26/20/58
f 23/62/59 21/54/59 25/67/59
f 24/19/60 27/26/60 26/20/60
f 24/2/152 25/1/152 28/3/152
f 24/2/48 28/3/48 27/4/48
f 24/23/151 22/18/151 23/17/151
f 24/23/47 23/17/47 25/22/47
f 26/20/161 31/21/161 17/15/161
f 26/20/61 17/15/61 22/14/61
f 26/6/160 27/4/160 29/9/160
f 26/6/56 29/9/56 31/7/56
f 28/3/62 25/5/62 30/8/62
f 29/25/154 30/24/154 32/29/154
f 29/25/50 32/29/50 31/30/50
f 29/9/153 27/4/153 28/3/153
f 29/9/49 28/3/49 30/8/49
f 30/65/157 25/67/157 21/54/157
f 30/65/53 21/54/53 34/50/53
f 31/21/63 33/16/63 17/15/63
f 32/61/64 30/65/64 34/50/64
f 33/16/65 18/13/65 17/15/65
f 33/33/155 31/30/155 32/29/155
f 33/33/51 32/29/51 34/32/51
f 33/34/150 34/37/150 19/38/150
f 33/34/46 19/38/46 18/39/46
f 55/134/11 63/131/11 56/138/11
f 56/138/179 63/131/179 64/130/179
f 56/138/82 64/130/82 57/137/82
f 57/143/174 58/154/174 60/155/174
f 57/153/12 66/152/12 58/163/12
f 58/163/180 66/152/180 67/151/180
f 58/163/83 67/151/83 60/162/83
f 59/156/10 60/155/10 67/164/10
f 60/155/175 55/128/175 56/132/175
f 60/155/178 59/156/178 61/133/178
f 60/155/79 56/132/79 57/143/79
f 60/155/81 61/133/81 55/128/81
f 61/117/85 59/111/85 67/118/85
f 61/177/177 67/192/177 65/190/177
f 61/177/80 65/190/80 64/184/80
f 62/125/182 63/131/182 55/134/182
f 62/125/86 55/134/86 61/126/86
f 64/184/14 63/178/14 62/180/14
f 64/184/176 62/180/176 61/177/176
f 65/190/181 66/193/181 57/186/181
f 65/190/84 57/186/84 64/184/84
f 67/192/13 66/193/13 65/190/13
f 68/51/16 76/49/16 69/55/16
f 69/55/187 76/53/187 77/63/187
f 69/55/89 77/63/89 70/66/89
f 70/66/17 72/77/17 71/73/17
f 70/66/183 71/73/183 73/74/183
f 71/73/188 72/82/188 79/83/188
f 71/73/91 79/83/91 73/74/91
f 73/74/184 68/51/184 69/55/184
f 73/74/87 69/55/87 70/66/87
f 73/74/90 74/56/90 68/51/90
f 74/103/93 73/107/93 79/101/93
f 74/183/186 79/195/186 78/194/186
f 74/183/88 78/194/88 77/185/88
f 75/182/190 76/181/190 68/179/190
f 75/182/94 68/179/94 74/183/94
f 77/185/185 75/182/185 74/183/185
f 77/185/19 76/181/19 75/182/19
f 78/194/189 72/196/189 70/187/189
f 78/194/92 70/187/92 77/185/92
f 79/145/18 72/144/18 78/139/18
f 80/97/20 88/95/20 81/104/20
f 82/64/193 87/75/193 86/76/193
f 83/121/196 84/116/196 91/112/196
f 83/121/99 91/112/99 85/120/99
f 83/217/195 89/210/195 82/213/195
f 83/217/97 82/213/97 84/221/97
f 84/150/23 82/149/23 90/147/23
f 85/218/192 80/205/192 81/204/192
f 85/218/95 81/204/95 89/210/95
f 85/278/98 86/281/98 80/274/98
f 86/76/101 85/58/101 91/52/101
f 86/76/194 91/52/194 90/57/194
f 86/76/96 90/57/96 82/64/96
f 87/87/100 89/94/100 88/95/100
f 87/87/102 80/97/102 86/86/102
f 87/87/197 82/85/197 89/94/197
f 87/87/198 88/95/198 80/97/198
f 88/197/21 89/210/21 81/204/21
f 89/210/191 83/217/191 85/218/191
f 91/112/22 84/116/22 90/108/22
f 93/170/28 97/174/28 99/169/28
f 93/358/106 95/353/106 92/298/106
f 94/114/24 98/113/24 96/119/24
f 94/166/104 99/98/104 98/165/104
f 94/166/200 95/102/200 99/98/200
f 94/327/107 92/319/107 95/320/107
f 96/119/27 92/122/27 94/114/27
f 96/297/103 93/358/103 92/298/103
f 96/297/199 97/352/199 93/358/199
f 96/310/108 98/305/108 97/309/108
f 98/305/26 99/302/26 97/309/26
f 99/98/25 95/102/25 93/96/25
usemtl RPG_iron
f 36/241/162 35/253/162 38/254/162
f 36/241/66 38/254/66 39/242/66
f 36/69/9 37/89/9 54/70/9
f 37/127/68 35/123/68 53/135/68
f 37/127/68 38/109/68 35/123/68
f 37/127/68 42/115/68 38/109/68
f 37/89/163 36/69/163 39/68/163
f 37/89/67 39/68/67 42/88/67
f 39/224/164 38/234/164 40/236/164
f 39/224/69 40/236/69 41/226/69
f 41/226/165 40/236/165 43/235/165
f 41/226/70 43/235/70 44/225/70
f 41/41/6 42/35/6 39/40/6
f 42/115/68 40/110/68 38/109/68
f 42/115/68 43/124/68 40/110/68
f 42/115/68 47/129/68 43/124/68
f 42/35/166 41/41/166 44/42/166
f 42/35/71 44/42/71 47/36/71
f 44/257/167 43/275/167 45/276/167
f 44/257/72 45/276/72 46/258/72
f 46/160/7 47/173/7 44/161/7
f 46/258/168 45/276/168 48/277/168
f 46/258/73 48/277/73 49/259/73
f 47/129/68 45/136/68 43/124/68
f 47/129/68 48/142/68 45/136/68
f 47/129/68 52/140/68 48/142/68
f 47/173/169 46/160/169 49/159/169
f 47/173/74 49/159/74 52/172/74
f 49/282/170 48/299/170 50/300/170
f 49/282/75 50/300/75 51/283/75
f 51/283/171 50/300/171 53/301/171
f 51/283/76 53/301/76 54/284/76
f 51/306/8 52/313/8 49/308/8
f 52/140/68 37/127/68 53/135/68
f 52/140/68 50/141/68 48/142/68
f 52/140/68 53/135/68 50/141/68
f 52/313/172 51/306/172 54/307/172
f 52/313/77 54/307/77 37/315/77
f 54/240/173 53/252/173 35/253/173
f 54/240/78 35/253/78 36/241/78
usemtl RPG_thatch
f 101/339/105 103/293/105 102/338/105
f 101/339/201 100/294/201 103/293/201
f 102/200/109 100/238/109 101/201/109
f 102/200/202 103/237/202 100/238/202
f 111/246/118 113/244/118 112/250/118
f 111/246/123 118/251/123 117/247/123
f 111/246/211 112/250/211 118/251/211
f 113/243/119 115/245/119 116/239/119
f 114/232/116 113/243/116 116/239/116
f 114/232/206 112/233/206 113/243/206
f 114/334/125 118/360/125 112/361/125
f 114/334/213 120/333/213 118/360/213
f 115/92/120 121/100/120 116/99/120
f 115/92/208 122/93/208 121/100/208
f 117/222/121 120/228/121 121/223/121
f 117/222/209 118/229/209 120/228/209
f 119/350/115 115/326/115 113/351/115
f 119/350/124 111/357/124 117/356/124
f 119/350/205 122/323/205 115/326/205
f 119/350/212 113/351/212 111/357/212
f 120/333/117 116/329/117 121/328/117
f 120/333/207 114/334/207 116/329/207
f 121/223/122 119/220/122 117/222/122
f 121/223/210 122/219/210 119/220/210
f 123/349/132 131/354/132 124/355/132
f 123/349/220 129/348/220 131/354/220
f 124/256/129 128/249/129 126/255/129
f 124/256/217 125/248/217 128/249/217
f 126/255/128 123/263/128 124/256/128
f 126/255/216 127/264/216 123/263/216
f 127/322/135 129/348/135 123/349/135
f 127/322/222 133/321/222 129/348/222
f 128/336/131 132/330/131 126/332/131
f 128/336/219 134/335/219 132/330/219
f 129/211/126 134/215/126 131/214/126
f 129/211/214 133/212/214 134/215/214
f 130/265/134 124/269/134 131/268/134
f 130/265/221 125/266/221 124/269/221
f 130/362/127 128/336/127 125/363/127
f 130/362/215 134/335/215 128/336/215
f 132/342/130 127/347/130 126/343/130
f 132/342/218 133/346/218 127/347/218
f 133/346/32 132/342/32 134/341/32
f 134/215/133 130/216/133 131/214/133
f 136/106/136 135/91/136 137/105/136
f 136/106/223 140/90/223 135/91/223
f 137/340/139 135/331/139 139/337/139
f 138/316/137 137/325/137 139/314/137
f 138/316/224 136/324/224 137/325/224
f 138/345/33 140/344/33 136/359/33
f 140/303/138 139/312/138 135/304/138
f 140/303/225 138/311/225 139/312/225
usemtl RPG_flame
f 105/81/111 106/80/111 104/72/111
f 105/81/31 104/72/31 109/71/31
f 106/270/110 110/285/110 107/267/110
f 106/270/203 105/290/203 110/285/203
f 106/31/29 107/28/29 104/27/29
f 107/168/112 110/171/112 108/167/112
f 108/158/113 104/146/113 107/157/113
f 108/158/204 109/148/204 104/146/204
f 110/43/114 105/44/114 109/46/114
f 110/43/30 109/46/30 108/47/30
