# Blender 4.0.2
# www.blender.org
mtllib treasure_chest_lod1.mtl
o treasure_chest_lod1
v 0.390000 0.000000 -0.250000
v 0.405509 0.025245 -0.271962
v 0.396613 0.286936 -0.268548
v 0.420000 0.270000 -0.250000
v 0.420000 0.030000 0.250000
v 0.396613 0.013065 0.268548
v 0.390000 0.300000 0.250000
v 0.405509 0.274755 0.271962
v -0.420000 0.030000 -0.250000
v -0.396613 0.013065 -0.268548
v -0.390000 0.300000 -0.250000
v -0.405509 0.274755 -0.271962
v -0.390000 0.000000 0.250000
v -0.405509 0.025245 0.271962
v -0.420000 0.270000 0.250000
v -0.396613 0.286936 0.268548
v -0.414438 0.311433 0.266068
v -0.408140 0.402214 0.256112
v -0.400000 0.497990 0.197990
v -0.400000 0.558686 0.107151
v -0.420235 0.517834 0.145552
v -0.413462 0.572941 0.005914
v -0.400000 0.558686 -0.107151
v -0.415450 0.509936 -0.174222
v -0.408140 0.408822 -0.253375
v -0.420000 0.320000 -0.255630
v -0.401287 0.306850 -0.271653
v 0.420000 0.320000 0.255630
v 0.401287 0.306850 0.271653
v 0.408140 0.408822 0.253375
v 0.415450 0.509936 0.174222
v 0.400000 0.558686 0.107151
v 0.413462 0.572941 -0.005914
v 0.400000 0.558686 -0.107151
v 0.420235 0.517834 -0.145552
v 0.400000 0.497990 -0.197990
v 0.408140 0.402214 -0.256112
v 0.414438 0.311433 -0.266068
v 0.422942 0.291951 -0.289588
v 0.429692 0.306493 -0.283461
v 0.429692 0.293507 0.283461
v 0.422942 0.308049 0.289588
v -0.429692 0.293507 -0.283461
v -0.422942 0.308049 -0.289588
v -0.422942 0.291951 0.289588
v -0.429692 0.306493 0.283461
v 0.293125 0.011875 0.289091
v 0.246875 0.011875 0.290909
v 0.244779 0.303509 0.293926
v 0.285292 0.384312 0.269195
v 0.295146 0.288114 0.295463
v 0.245212 0.416275 0.270891
v 0.254095 0.375725 0.272050
v 0.294788 0.409331 0.273768
v 0.253000 0.512132 0.212132
v 0.245212 0.504347 0.199033
v 0.295904 0.499136 0.210986
v 0.244519 0.572942 0.108855
v 0.253000 0.558686 0.107151
v 0.295904 0.567092 0.115168
v 0.244096 0.590000 0.000000
v 0.287000 0.580000 -0.000000
v 0.294788 0.594767 0.003758
v 0.244096 0.567092 -0.115168
v 0.287000 0.558686 -0.107151
v 0.295196 0.572573 -0.110874
v 0.244096 0.499136 -0.210986
v 0.287000 0.512132 -0.212132
v 0.294788 0.504347 -0.199033
v 0.245212 0.409331 -0.273768
v 0.285905 0.375725 -0.272050
v 0.294788 0.416275 -0.270891
v 0.244854 0.288114 -0.295463
v 0.254709 0.384312 -0.269195
v 0.295222 0.303509 -0.293926
v 0.246875 0.011875 -0.289091
v 0.293125 0.011875 -0.290909
v 0.444000 0.140000 0.000000
v 0.426000 0.147500 0.006036
v 0.444000 0.155000 0.000000
v 0.444000 0.171188 0.055713
v 0.426000 0.167145 0.041391
v 0.426000 0.206036 0.052500
v 0.444000 0.185734 0.044826
v 0.426000 0.242426 0.042426
v 0.426000 0.231820 0.031820
v 0.444000 0.232855 0.041391
v 0.444000 0.260000 0.000000
v 0.426000 0.252500 -0.006036
v 0.444000 0.245000 0.000000
v 0.444000 0.241391 -0.032855
v 0.426000 0.219021 -0.059768
v 0.426000 0.221609 -0.041784
v 0.444000 0.206036 -0.052500
v 0.426000 0.157574 -0.042426
v 0.426000 0.168180 -0.031820
v 0.444000 0.167145 -0.041391
v -0.246875 0.011875 0.289091
v -0.293125 0.011875 0.290909
v -0.295222 0.303509 0.293926
v -0.254709 0.384312 0.269195
v -0.244854 0.288114 0.295463
v -0.294788 0.416275 0.270891
v -0.285905 0.375725 0.272050
v -0.245212 0.409331 0.273768
v -0.287000 0.512132 0.212132
v -0.294788 0.504347 0.199033
v -0.244096 0.499136 0.210986
v -0.295196 0.572573 0.110874
v -0.287000 0.558686 0.107151
v -0.244096 0.567092 0.115168
v -0.294788 0.594767 -0.003758
v -0.287000 0.580000 0.000000
v -0.244096 0.590000 0.000000
v -0.295904 0.567092 -0.115168
v -0.253000 0.558686 -0.107151
v -0.244519 0.572942 -0.108855
v -0.295904 0.499136 -0.210986
v -0.253000 0.512132 -0.212132
v -0.245212 0.504347 -0.199033
v -0.294788 0.409331 -0.273768
v -0.254095 0.375725 -0.272050
v -0.245212 0.416275 -0.270891
v -0.295146 0.288114 -0.295463
v -0.285292 0.384312 -0.269195
v -0.244779 0.303509 -0.293926
v -0.293125 0.011875 -0.289091
v -0.246875 0.011875 -0.290909
v -0.426000 0.147500 -0.006036
v -0.444000 0.140232 -0.019021
v -0.444000 0.158216 -0.021609
v -0.426000 0.171188 0.055713
v -0.444000 0.167145 0.041391
v -0.444000 0.206036 0.052500
v -0.426000 0.185734 0.044826
v -0.426000 0.232855 0.041391
v -0.444000 0.259768 0.019021
v -0.444000 0.241784 0.021609
v -0.426000 0.252500 0.006036
v -0.426000 0.241391 -0.032855
v -0.444000 0.219021 -0.059768
v -0.444000 0.221609 -0.041784
v -0.426000 0.206036 -0.052500
v -0.426000 0.167145 -0.041391
v -0.327058 0.006951 0.180412
v -0.320308 0.021493 0.186539
v -0.320308 0.008507 0.273461
v -0.327058 0.023049 0.279588
v -0.419692 0.008507 0.186539
v -0.412942 0.023049 0.180412
v -0.412942 0.006951 0.279588
v -0.419692 0.021493 0.273461
v 0.412942 0.006951 0.180412
v 0.419692 0.021493 0.186539
v 0.419692 0.008507 0.273461
v 0.412942 0.023049 0.279588
v 0.320308 0.008507 0.186539
v 0.327058 0.023049 0.180412
v 0.327058 0.006951 0.279588
v 0.320308 0.021493 0.273461
v 0.412942 0.006951 -0.279588
v 0.419692 0.021493 -0.273461
v 0.419692 0.008507 -0.186539
v 0.412942 0.023049 -0.180412
v 0.320308 0.008507 -0.273461
v 0.327058 0.023049 -0.279588
v 0.327058 0.006951 -0.180412
v 0.320308 0.021493 -0.186539
v -0.327058 0.006951 -0.279588
v -0.320308 0.021493 -0.273461
v -0.320308 0.008507 -0.186539
v -0.327058 0.023049 -0.180412
v -0.419692 0.008507 -0.273461
v -0.412942 0.023049 -0.279588
v -0.412942 0.006951 -0.180412
v -0.419692 0.021493 -0.186539
v 0.062000 0.362000 0.291091
v 0.062000 0.218000 0.288909
v -0.062000 0.218000 0.291091
v -0.062000 0.362000 0.288909
v -0.005530 0.291812 0.305857
v -0.021915 0.263025 0.311000
v -0.021915 0.276975 0.299000
v -0.006975 0.248085 0.299000
v 0.009959 0.248708 0.308600
v 0.021371 0.278852 0.303800
vn -0.0068 -0.6587 0.7524
vn 0.0068 0.6587 0.7524
vn -0.6351 0.0317 0.7718
vn 0.0068 -0.6587 -0.7524
vn -0.0068 0.6587 -0.7524
vn 0.0057 -0.9999 -0.0084
vn -0.5791 -0.8152 -0.0072
vn -0.5296 0.7053 0.4713
vn -0.7992 0.5714 0.1867
vn 0.5791 -0.8152 0.0072
vn 0.5296 0.7053 -0.4713
vn 0.7992 0.5714 -0.1867
vn -0.9171 -0.0025 -0.3987
vn -0.6114 -0.1561 -0.7758
vn 0.8890 -0.2698 -0.3701
vn -0.8766 0.3797 0.2955
vn -0.8263 -0.4513 -0.3369
vn 0.8512 -0.4170 0.3187
vn 0.8769 0.3781 -0.2967
vn -0.8890 -0.2698 0.3701
vn 0.6114 -0.1561 0.7758
vn 0.9171 -0.0025 0.3987
vn -0.0997 0.2733 -0.9568
vn 1.0000 -0.0000 -0.0000
vn -1.0000 -0.0000 -0.0000
vn 0.5753 0.3973 -0.7150
vn -0.8769 0.3781 0.2967
vn -0.8512 -0.4170 -0.3187
vn 0.8263 -0.4513 0.3369
vn 0.8766 0.3797 -0.2955
vn 0.5753 0.7150 0.3973
vn 0.5753 -0.7150 -0.3973
vn -0.6722 0.4829 0.5613
vn -0.2985 -0.7611 0.5759
vn 0.1222 0.1067 0.9867
vn -0.9980 0.0566 -0.0272
vn 0.0160 0.9996 -0.0250
vn 0.9980 0.0566 0.0272
vn 0.0045 0.0129 0.9999
vn 0.8446 -0.5350 -0.0186
vn 0.8446 0.5350 0.0186
vn 0.6351 0.0317 -0.7718
vn -0.8446 -0.5350 0.0186
vn 0.6351 -0.0317 0.7718
vn -0.8446 0.5350 -0.0186
vn -0.0160 -0.9996 -0.0250
vn -0.6351 -0.0317 -0.7718
vn 0.0019 0.1763 0.9843
vn 0.0139 0.6157 0.7878
vn -0.0000 0.8315 0.5556
vn 0.0018 0.9921 0.1253
vn -0.0000 0.9902 -0.1394
vn -0.0053 0.8095 -0.5871
vn 0.0013 0.5189 -0.8548
vn 0.0062 0.1094 -0.9940
vn 0.9997 0.0151 -0.0208
vn -0.9997 0.0151 0.0208
vn -0.8259 0.3422 0.4482
vn -0.8527 0.4959 -0.1641
vn -0.6053 0.1009 -0.7896
vn 0.8259 0.3422 -0.4482
vn 0.8527 0.4959 0.1641
vn -0.0045 0.0129 -0.9999
vn 0.6053 0.1009 0.7896
vn 0.0018 1.0000 -0.0027
vn -0.0018 -1.0000 -0.0027
vn 0.9085 -0.4177 -0.0096
vn 0.9085 0.4177 0.0096
vn 0.0073 -0.3854 0.9227
vn -0.0073 0.3854 0.9227
vn -0.9085 -0.4177 0.0096
vn -0.9085 0.4177 -0.0096
vn -0.0073 -0.3854 -0.9227
vn 0.0073 0.3854 -0.9227
vn -0.0337 -0.0106 0.9994
vn -0.0760 -0.0548 -0.9956
vn -0.0288 0.2002 0.9793
vn 0.1753 0.5041 0.8457
vn 0.1591 -0.4581 -0.8746
vn 0.0362 0.8625 0.5048
vn 0.0525 -0.8146 -0.5777
vn -0.1038 0.9825 0.1544
vn -0.2194 -0.9412 -0.2568
vn -0.0885 0.9769 -0.1943
vn -0.2229 -0.9561 0.1902
vn -0.2539 0.7889 -0.5595
vn -0.2539 -0.8418 0.4763
vn -0.0326 0.5724 -0.8193
vn -0.0553 -0.4900 0.8699
vn -0.0238 0.1762 -0.9841
vn -0.0393 -0.0233 -0.9990
vn 0.0392 -0.0509 0.9979
vn 0.8683 -0.4865 0.0968
vn 0.9377 0.0012 -0.3475
vn 0.6815 -0.1270 -0.7207
vn -0.8884 0.2902 0.3557
vn -0.9412 -0.2137 -0.2619
vn -0.8609 -0.5031 -0.0755
vn 0.8904 -0.4395 -0.1181
vn -0.1974 -0.8569 0.4761
vn 0.9412 -0.2137 0.2619
vn 0.8884 0.2902 -0.3557
vn -0.6815 -0.1270 0.7207
vn -0.9377 0.0012 0.3475
vn -0.5968 0.6618 -0.4537
vn 0.1936 0.2617 0.9455
vn -0.5753 -0.2247 0.7865
vn -0.4523 -0.0648 -0.8895
vn -0.4299 0.8840 0.1837
vn 0.2007 -0.9400 -0.2758
vn -0.2554 0.8206 -0.5113
vn -0.4110 -0.9062 0.0995
vn 0.1892 -0.2667 -0.9450
vn 0.0997 -0.4833 0.8698
vn 0.4663 0.2430 0.8506
vn -0.4299 -0.8840 -0.1837
vn 0.2007 0.9400 0.2758
vn 0.1753 0.5041 0.8456
vn 0.0494 0.8594 0.5090
vn 0.0780 0.9787 0.1898
vn 0.2229 -0.9561 -0.1902
vn -0.0807 0.9675 -0.2395
vn -0.2132 -0.9690 0.1251
vn -0.8683 -0.4865 -0.0968
vn 0.0750 -0.9109 0.4058
vn -0.8904 -0.4395 0.1181
vn 0.8609 -0.5031 0.0755
vn -0.5794 0.6515 -0.4898
vn -0.2554 0.5113 0.8206
vn -0.3849 0.8198 -0.4240
vn 0.0997 -0.8698 -0.4833
vn 0.6294 -0.7472 0.2134
vn -0.3849 -0.4240 -0.8198
vn 0.6294 0.2134 0.7472
vn 0.0178 0.9997 -0.0154
vn 0.0997 0.8698 0.4833
vn -0.0178 -0.9997 -0.0154
vn 0.9148 -0.3995 -0.0597
vn 0.9148 0.3995 0.0597
vn 0.0676 -0.3606 0.9303
vn -0.0676 0.3606 0.9303
vn -0.9148 -0.3995 0.0597
vn -0.9148 0.3995 -0.0597
vn -0.0676 -0.3606 -0.9303
vn 0.0676 0.3606 -0.9303
vn -0.0176 0.0151 -0.9997
vn 0.0176 0.0151 0.9997
vn -0.7835 -0.4052 -0.4710
vn 0.1165 -0.1991 -0.9730
vn -0.0057 -0.9999 0.0084
vn 0.1277 0.1086 0.9858
vn -0.9980 -0.0566 0.0272
vn -0.0160 0.9996 0.0250
vn 0.9980 -0.0566 -0.0272
vn -0.0045 -0.0129 0.9999
vn 0.5931 -0.8051 0.0127
vn 0.5931 0.8051 -0.0127
vn -0.5931 -0.8051 -0.0127
vn -0.5931 0.8051 0.0127
vn 0.0160 -0.9996 0.0250
vn -0.0062 0.1094 0.9940
vn -0.0013 0.5189 0.8548
vn 0.0053 0.8095 0.5871
vn -0.0000 0.9902 0.1394
vn -0.0018 0.9921 -0.1253
vn -0.0000 0.8315 -0.5556
vn -0.0139 0.6157 -0.7878
vn -0.0019 0.1763 -0.9843
vn 0.9967 0.0797 0.0169
vn 0.9563 0.1343 0.2599
vn 0.9974 0.0705 -0.0118
vn 0.9932 -0.1154 0.0120
vn -0.9967 0.0797 -0.0169
vn -0.9563 0.1343 -0.2599
vn -0.9974 0.0705 0.0118
vn -0.9932 -0.1154 -0.0120
vn 0.0045 -0.0129 -0.9999
vn -0.0018 1.0000 0.0027
vn 0.0018 -1.0000 0.0027
vn 0.0393 -0.0233 0.9990
vn -0.0392 -0.0509 -0.9979
vn 0.0238 0.1762 0.9841
vn 0.0326 0.5724 0.8193
vn 0.0553 -0.4900 -0.8699
vn 0.2539 0.7889 0.5595
vn 0.2539 -0.8418 -0.4763
vn 0.0807 0.9675 0.2395
vn 0.2132 -0.9690 -0.1251
vn -0.0780 0.9787 -0.1898
vn -0.2228 -0.9561 0.1902
vn -0.0494 0.8594 -0.5090
vn -0.0525 -0.8146 0.5777
vn -0.1753 0.5041 -0.8457
vn -0.1591 -0.4581 0.8746
vn 0.0288 0.2002 -0.9793
vn 0.0337 -0.0106 -0.9994
vn 0.0760 -0.0548 0.9956
vn 0.8700 -0.4834 0.0967
vn -0.1892 -0.8568 0.4796
vn -0.4663 0.7733 -0.4297
vn 0.2554 0.2187 0.9418
vn 0.4110 -0.5704 -0.7112
vn 0.4299 0.7550 0.4951
vn -0.2007 -0.8597 -0.4697
vn -0.1936 0.8537 -0.4835
vn 0.4523 -0.6748 0.5831
vn 0.1974 -0.2693 -0.9426
vn 0.5968 0.1471 0.7888
vn 0.4299 -0.7550 -0.4951
vn -0.2007 0.8597 0.4697
vn 0.0885 0.9769 0.1943
vn 0.1038 0.9825 -0.1544
vn 0.2194 -0.9412 0.2568
vn -0.0362 0.8625 -0.5048
vn -0.8700 -0.4834 -0.0967
vn -0.0750 -0.9310 0.3572
vn 0.5794 0.8070 -0.1144
vn 0.4523 -0.5831 -0.6748
vn 0.1868 0.9446 -0.2698
vn 0.6676 -0.7094 0.2258
vn 0.1868 -0.2698 -0.9446
vn 0.6676 0.2258 0.7094
vn -0.0178 0.9997 0.0154
vn 0.0178 -0.9997 0.0154
vn 0.0176 -0.0151 -0.9997
vn -0.0176 -0.0151 0.9997
vn 0.4715 0.2438 -0.8475
vn 0.0895 0.3347 -0.9381
vt 0.00000 0.30811
vt 0.00000 0.33146
vt 0.00000 0.69819
vt 0.00000 0.94914
vt 0.00144 0.00363
vt 0.00146 0.91608
vt 0.00382 0.00000
vt 0.00382 0.31063
vt 0.00542 0.61420
vt 0.01146 0.32058
vt 0.01146 0.33146
vt 0.01146 0.62507
vt 0.01220 0.69914
vt 0.01772 0.95402
vt 0.01796 0.66288
vt 0.02186 0.97408
vt 0.02389 0.87799
vt 0.02693 0.66290
vt 0.03108 0.66557
vt 0.05601 0.64161
vt 0.05673 0.98872
vt 0.06600 0.85639
vt 0.09131 0.99238
vt 0.09649 0.85379
vt 0.10581 0.88641
vt 0.10725 0.85741
vt 0.10963 0.85379
vt 0.10963 0.88892
vt 0.14019 0.85490
vt 0.14019 0.89004
vt 0.14257 0.88641
vt 0.14329 0.66591
vt 0.14401 0.85741
vt 0.15333 0.88641
vt 0.15477 0.85741
vt 0.15715 0.85379
vt 0.15715 0.88892
vt 0.15827 0.70944
vt 0.16167 0.69933
vt 0.16593 0.84180
vt 0.16824 0.73986
vt 0.18711 0.69914
vt 0.18771 0.85490
vt 0.18771 0.89004
vt 0.19009 0.88641
vt 0.19153 0.85741
vt 0.20084 0.88641
vt 0.20185 0.66290
vt 0.20228 0.85741
vt 0.20244 0.32058
vt 0.20244 0.61420
vt 0.20244 0.62507
vt 0.20466 0.85379
vt 0.20466 0.88892
vt 0.20595 0.66551
vt 0.20848 0.33146
vt 0.21390 0.61420
vt 0.21772 0.00111
vt 0.21772 0.31174
vt 0.22011 0.30811
vt 0.22154 0.00363
vt 0.22322 0.33146
vt 0.22864 0.61420
vt 0.23086 0.30811
vt 0.23117 0.64186
vt 0.23230 0.00363
vt 0.23468 0.00000
vt 0.23468 0.31063
vt 0.23468 0.32058
vt 0.23468 0.33146
vt 0.23468 0.62507
vt 0.23522 0.85490
vt 0.23522 0.89004
vt 0.23761 0.88641
vt 0.23904 0.85741
vt 0.24836 0.88641
vt 0.24979 0.85741
vt 0.25218 0.85379
vt 0.25218 0.88892
vt 0.28274 0.85490
vt 0.28274 0.89004
vt 0.28512 0.88641
vt 0.28656 0.85741
vt 0.29587 0.88641
vt 0.29731 0.85741
vt 0.29969 0.85379
vt 0.29969 0.88892
vt 0.31820 0.66591
vt 0.33025 0.85490
vt 0.33025 0.89004
vt 0.33264 0.88641
vt 0.33318 0.70944
vt 0.33407 0.85741
vt 0.33659 0.69933
vt 0.34085 0.84180
vt 0.34316 0.73986
vt 0.36203 0.69914
vt 0.37676 0.66290
vt 0.38091 0.66557
vt 0.39142 0.90021
vt 0.39313 0.89511
vt 0.39609 0.88805
vt 0.39959 0.90281
vt 0.40210 0.89090
vt 0.40450 0.89974
vt 0.40584 0.64161
vt 0.41564 0.89702
vt 0.42219 0.88843
vt 0.42253 0.90290
vt 0.42567 0.32058
vt 0.42567 0.61420
vt 0.42567 0.62507
vt 0.42865 0.89613
vt 0.43170 0.33146
vt 0.43712 0.61420
vt 0.44178 0.88935
vt 0.44178 0.90139
vt 0.44633 0.89268
vt 0.44858 0.00111
vt 0.44858 0.31174
vt 0.44952 0.61782
vt 0.45097 0.30811
vt 0.45164 0.32474
vt 0.45240 0.00363
vt 0.45426 0.62507
vt 0.45565 0.88935
vt 0.45565 0.90139
vt 0.46020 0.89268
vt 0.46172 0.00725
vt 0.46172 0.29724
vt 0.48342 0.89586
vt 0.48696 0.89074
vt 0.48800 0.89933
vt 0.49312 0.66591
vt 0.49642 0.00725
vt 0.49642 0.29724
vt 0.49940 0.00000
vt 0.49940 0.30449
vt 0.50810 0.70944
vt 0.51150 0.69933
vt 0.51576 0.84180
vt 0.51807 0.73986
vt 0.52846 0.84273
vt 0.53345 0.99628
vt 0.53735 0.00358
vt 0.53735 0.30091
vt 0.53866 0.85359
vt 0.53888 0.98462
vt 0.54035 0.84435
vt 0.55253 0.74233
vt 0.55720 0.70117
vt 0.56512 0.74487
vt 0.56906 0.70298
vt 0.57530 0.00000
vt 0.57530 0.30449
vt 0.57828 0.00725
vt 0.57828 0.29724
vt 0.57943 0.84273
vt 0.59132 0.84435
vt 0.59880 0.66383
vt 0.60350 0.74233
vt 0.60817 0.70117
vt 0.61111 0.66470
vt 0.61298 0.00725
vt 0.61298 0.29724
vt 0.61608 0.74487
vt 0.62003 0.70298
vt 0.62428 0.27776
vt 0.62623 0.05703
vt 0.62926 0.04845
vt 0.62935 0.82731
vt 0.62993 0.75151
vt 0.63024 0.71081
vt 0.63028 0.66998
vt 0.63033 0.85359
vt 0.63055 0.99397
vt 0.63159 0.26701
vt 0.63234 0.80602
vt 0.63241 0.30354
vt 0.63241 0.63391
vt 0.63241 0.78770
vt 0.63323 0.27222
vt 0.63410 0.79655
vt 0.63410 0.82731
vt 0.63895 0.81193
vt 0.64309 0.30347
vt 0.64391 0.27215
vt 0.64473 0.30868
vt 0.64539 0.63391
vt 0.64539 0.78770
vt 0.64759 0.71081
vt 0.64775 0.75155
vt 0.64787 0.67011
vt 0.64827 0.79655
vt 0.64827 0.81193
vt 0.64827 0.82731
vt 0.64827 0.83615
vt 0.64827 0.84202
vt 0.64955 0.32058
vt 0.65006 0.28908
vt 0.65087 0.25816
vt 0.65132 0.86477
vt 0.65132 0.89096
vt 0.65146 0.84062
vt 0.65217 0.62091
vt 0.65402 0.29319
vt 0.65429 0.32783
vt 0.65515 0.79655
vt 0.65515 0.81193
vt 0.65515 0.82731
vt 0.65587 0.85359
vt 0.65587 0.86964
vt 0.65587 0.87978
vt 0.65587 0.89583
vt 0.66178 0.04824
vt 0.66668 0.65186
vt 0.67062 0.37761
vt 0.67273 0.95015
vt 0.67366 0.36903
vt 0.67793 0.80746
vt 0.67816 0.93850
vt 0.67888 0.65282
vt 0.68370 0.25057
vt 0.68464 0.61655
vt 0.68496 0.27215
vt 0.68496 0.30607
vt 0.69111 0.28908
vt 0.69362 0.61657
vt 0.69507 0.29319
vt 0.69526 0.57875
vt 0.69679 0.02142
vt 0.69772 0.61919
vt 0.70439 0.29777
vt 0.70617 0.36882
vt 0.70738 0.27648
vt 0.70914 0.26701
vt 0.70914 0.29777
vt 0.71400 0.28239
vt 0.71665 0.23156
vt 0.72294 0.59554
vt 0.72776 0.27140
vt 0.72793 0.22347
vt 0.72809 0.57115
vt 0.73707 0.00000
vt 0.73744 0.20137
vt 0.74118 0.34200
vt 0.76040 0.22343
vt 0.76040 0.26997
vt 0.76104 0.55214
vt 0.76961 0.80746
vt 0.76983 0.94784
vt 0.77036 0.57276
vt 0.77151 0.27140
vt 0.77169 0.22347
vt 0.77179 0.54376
vt 0.77418 0.54014
vt 0.77418 0.57527
vt 0.78146 0.32058
vt 0.78183 0.52195
vt 0.79059 0.81835
vt 0.79059 0.86791
vt 0.79423 0.85639
vt 0.79423 0.87945
vt 0.79646 0.82166
vt 0.79674 0.87235
vt 0.79872 0.84502
vt 0.79898 0.85638
vt 0.80303 0.80746
vt 0.80416 0.22343
vt 0.80416 0.26997
vt 0.80473 0.54125
vt 0.80473 0.57639
vt 0.80623 0.84051
vt 0.80712 0.57276
vt 0.80712 0.80977
vt 0.80757 0.81449
vt 0.80830 0.86791
vt 0.80855 0.54376
vt 0.80997 0.61959
vt 0.81032 0.84281
vt 0.81077 0.84754
vt 0.81194 0.85639
vt 0.81194 0.87945
vt 0.81445 0.87235
vt 0.81556 0.83234
vt 0.81669 0.85638
vt 0.81787 0.57276
vt 0.81917 0.81228
vt 0.81931 0.54376
vt 0.82153 0.82746
vt 0.82169 0.54014
vt 0.82169 0.57527
vt 0.82478 0.83066
vt 0.82495 0.66312
vt 0.82601 0.85638
vt 0.82601 0.86791
vt 0.82601 0.87945
vt 0.82835 0.65301
vt 0.82875 0.00000
vt 0.82911 0.21071
vt 0.83262 0.79548
vt 0.83288 0.85638
vt 0.83288 0.86791
vt 0.83288 0.87945
vt 0.83453 0.19906
vt 0.83493 0.69353
vt 0.84427 0.90731
vt 0.84573 0.87424
vt 0.85225 0.54125
vt 0.85225 0.57639
vt 0.85463 0.57276
vt 0.85607 0.54376
vt 0.86199 0.91219
vt 0.86539 0.57276
vt 0.86609 0.79641
vt 0.86612 0.93225
vt 0.86682 0.54376
vt 0.86816 0.83616
vt 0.86921 0.54014
vt 0.86921 0.57527
vt 0.87170 0.20882
vt 0.87314 0.32058
vt 0.87350 0.53129
vt 0.87798 0.79803
vt 0.87892 0.51964
vt 0.88208 0.23769
vt 0.88208 0.27572
vt 0.88208 0.29110
vt 0.88208 0.30648
vt 0.88359 0.21044
vt 0.88437 0.25462
vt 0.88794 0.24100
vt 0.88895 0.27572
vt 0.88895 0.29110
vt 0.88895 0.30648
vt 0.89016 0.69600
vt 0.89107 0.02991
vt 0.89394 0.26677
vt 0.89427 0.38362
vt 0.89452 0.22680
vt 0.89483 0.65485
vt 0.89577 0.10841
vt 0.89607 0.42367
vt 0.89772 0.25985
vt 0.89790 0.26210
vt 0.89827 0.28518
vt 0.89827 0.30648
vt 0.89915 0.39599
vt 0.89977 0.54125
vt 0.89977 0.57639
vt 0.90044 0.06726
vt 0.90099 0.94689
vt 0.90215 0.57276
vt 0.90275 0.69854
vt 0.90295 0.23388
vt 0.90338 0.03079
vt 0.90358 0.54376
vt 0.90514 0.27572
vt 0.90514 0.29110
vt 0.90514 0.30648
vt 0.90582 0.34773
vt 0.90669 0.65666
vt 0.90691 0.22922
vt 0.90705 0.25168
vt 0.90782 0.39118
vt 0.90836 0.11095
vt 0.91027 0.81456
vt 0.91230 0.06907
vt 0.91290 0.54014
vt 0.91290 0.55551
vt 0.91290 0.57089
vt 0.91301 0.24680
vt 0.91601 0.65063
vt 0.91626 0.25000
vt 0.91742 0.52519
vt 0.91750 0.34714
vt 0.91782 0.69068
vt 0.91978 0.54014
vt 0.91978 0.56143
vt 0.92089 0.66300
vt 0.92162 0.06304
vt 0.92343 0.10308
vt 0.92561 0.32058
vt 0.92650 0.07541
vt 0.92756 0.61474
vt 0.92810 0.22680
vt 0.92810 0.23834
vt 0.92810 0.24987
vt 0.92907 0.32274
vt 0.92907 0.52207
vt 0.92910 0.54014
vt 0.92910 0.55167
vt 0.92910 0.56320
vt 0.92956 0.65819
vt 0.93313 0.02713
vt 0.93497 0.22680
vt 0.93497 0.23834
vt 0.93497 0.24987
vt 0.93510 0.27572
vt 0.93510 0.29435
vt 0.93517 0.07060
vt 0.93557 0.95055
vt 0.93597 0.54457
vt 0.93597 0.56320
vt 0.93838 0.38362
vt 0.93917 0.79220
vt 0.93924 0.61415
vt 0.94019 0.42367
vt 0.94076 0.81196
vt 0.94198 0.27572
vt 0.94198 0.28725
vt 0.94198 0.29879
vt 0.94327 0.39599
vt 0.94478 0.20461
vt 0.94485 0.02655
vt 0.94736 0.58759
vt 0.94989 0.34771
vt 0.95081 0.58975
vt 0.95081 0.78908
vt 0.95193 0.39118
vt 0.95297 0.00000
vt 0.95642 0.00216
vt 0.95642 0.20149
vt 0.96071 0.70518
vt 0.96083 0.62374
vt 0.96099 0.66448
vt 0.96154 0.52519
vt 0.96161 0.34714
vt 0.96318 0.58759
vt 0.96318 0.74138
vt 0.96574 0.27252
vt 0.96638 0.19281
vt 0.96653 0.23255
vt 0.96879 0.16078
vt 0.96879 0.27139
vt 0.96879 0.30432
vt 0.96973 0.32058
vt 0.97318 0.32274
vt 0.97318 0.52207
vt 0.97617 0.58759
vt 0.97617 0.74138
vt 0.97830 0.70531
vt 0.97833 0.66448
vt 0.97864 0.62379
vt 0.98090 0.82199
vt 0.98090 0.86196
vt 0.98155 0.78226
vt 0.98178 0.16078
vt 0.98178 0.19370
vt 0.98178 0.23255
vt 0.98178 0.30432
vt 0.98396 0.75022
vt 0.98396 0.82199
vt 0.98396 0.86083
vt 0.98396 0.89376
vt 0.98419 0.27228
vt 0.98484 0.19257
vt 0.98484 0.23255
vt 0.99694 0.75022
vt 0.99694 0.78315
vt 0.99694 0.89376
vt 0.99921 0.82199
vt 0.99935 0.86172
vt 1.00000 0.78202
s 0
usemtl RPG_timber
f 1/70/160 6/114/160 13/111/160
f 1/70/46 13/111/46 10/63/46
f 10/305/177 12/245/177 3/244/177
f 10/305/47 9/300/47 12/245/47
f 10/305/63 3/244/63 2/299/63
f 10/63/4 2/62/4 1/70/4
f 11/11/153 16/56/153 7/51/153
f 11/11/37 7/51/37 3/9/37
f 14/251/3 16/218/3 15/221/3
f 15/50/159 16/56/159 11/11/159
f 15/50/45 11/11/45 12/10/45
f 16/56/2 8/57/2 7/51/2
f 3/144/42 4/148/42 2/176/42
f 3/9/5 12/2/5 11/11/5
f 4/12/157 3/9/157 7/51/157
f 4/12/41 7/51/41 8/52/41
f 5/110/156 6/114/156 1/70/156
f 5/110/40 1/70/40 2/69/40
f 5/175/154 2/176/154 4/148/154
f 5/175/38 4/148/38 8/147/38
f 6/114/1 14/115/1 13/111/1
f 6/325/155 8/259/155 16/258/155
f 6/325/39 16/258/39 14/322/39
f 6/325/44 5/323/44 8/259/44
f 9/250/152 14/251/152 15/221/152
f 9/250/36 15/221/36 12/220/36
f 9/71/158 10/63/158 13/111/158
f 9/71/43 13/111/43 14/112/43
usemtl RPG_endgrain
f 17/205/7 26/125/7 27/121/7
f 18/223/161 17/201/161 29/169/161
f 18/223/48 29/169/48 30/215/48
f 18/352/176 21/313/176 24/318/176
f 19/130/163 31/129/163 32/135/163
f 19/130/50 32/135/50 20/136/50
f 19/239/162 18/223/162 30/215/162
f 19/239/49 30/215/49 31/231/49
f 19/316/58 21/313/58 18/352/58
f 20/136/9 22/146/9 21/138/9
f 20/307/8 21/313/8 19/316/8
f 21/313/173 22/308/173 24/318/173
f 22/146/164 20/136/164 32/135/164
f 22/146/51 32/135/51 33/145/51
f 23/157/165 22/146/165 33/145/165
f 23/157/166 34/156/166 36/164/166
f 23/157/52 33/145/52 34/156/52
f 23/157/53 36/164/53 24/165/53
f 23/157/59 24/155/59 22/146/59
f 24/318/174 25/367/174 26/409/174
f 24/318/57 26/409/57 18/352/57
f 25/234/167 24/246/167 36/249/167
f 25/234/54 36/249/54 37/243/54
f 25/234/60 27/217/60 26/219/60
f 26/409/175 17/402/175 18/352/175
f 27/217/168 25/234/168 37/243/168
f 27/217/55 37/243/55 38/230/55
f 28/24/171 38/23/171 37/21/171
f 29/207/150 17/205/150 27/121/150
f 29/207/6 27/121/6 38/123/6
f 30/215/64 29/169/64 28/170/64
f 31/17/170 30/22/170 28/24/170
f 31/17/56 28/24/56 37/21/56
f 32/135/62 31/137/62 33/145/62
f 34/156/12 33/145/12 35/154/12
f 34/4/11 35/14/11 36/16/11
f 35/14/169 33/6/169 31/17/169
f 36/16/61 35/14/61 37/21/61
f 37/21/172 35/14/172 31/17/172
f 38/123/10 28/199/10 29/207/10
usemtl RPG_iron
f 100/354/182 102/336/182 105/341/182
f 100/354/77 105/341/77 103/362/77
f 101/394/184 104/380/184 107/385/184
f 101/394/79 107/385/79 108/407/79
f 101/92/15 108/88/15 105/94/15
f 101/92/94 102/96/94 98/95/94
f 101/92/95 105/94/95 102/96/95
f 103/13/118 108/15/118 106/18/118
f 103/13/183 105/3/183 108/15/183
f 104/380/13 99/406/13 100/377/13
f 104/380/14 100/377/14 103/373/14
f 104/380/97 103/373/97 107/385/97
f 106/18/27 109/20/27 107/19/27
f 106/18/96 107/19/96 103/13/96
f 106/441/119 111/424/119 109/442/119
f 106/441/185 108/430/185 111/424/185
f 107/455/186 110/454/186 111/463/186
f 107/455/81 111/463/81 108/461/81
f 109/442/120 114/426/120 112/443/120
f 109/442/211 111/424/211 114/426/211
f 109/446/124 113/453/124 110/454/124
f 109/446/215 112/445/215 113/453/215
f 110/418/28 107/385/28 109/416/28
f 112/443/122 117/425/122 115/444/122
f 112/443/212 114/426/212 117/425/212
f 113/453/126 112/445/126 115/447/126
f 114/462/121 110/454/121 113/453/121
f 114/462/121 111/463/121 110/454/121
f 114/462/127 116/460/127 117/464/127
f 115/444/214 117/425/214 119/429/214
f 115/444/86 119/429/86 118/440/86
f 115/447/192 118/452/192 120/459/192
f 115/447/87 120/459/87 116/460/87
f 116/460/123 113/453/123 115/447/123
f 116/460/213 114/462/213 113/453/213
f 118/337/193 119/356/193 123/368/193
f 118/337/88 123/368/88 121/351/88
f 119/48/102 120/55/102 123/42/102
f 119/48/30 117/65/30 120/55/30
f 120/417/194 118/428/194 125/420/194
f 120/417/29 117/437/29 116/438/29
f 120/417/89 125/420/89 122/413/89
f 121/351/195 123/368/195 126/366/195
f 121/351/90 126/366/90 124/342/90
f 122/413/101 123/405/101 120/417/101
f 122/413/197 125/420/197 127/439/197
f 122/413/21 126/408/21 123/405/21
f 122/413/22 128/427/22 126/408/22
f 122/413/92 127/439/92 128/427/92
f 124/342/196 126/366/196 128/330/196
f 124/342/91 128/330/91 127/321/91
f 125/38/103 121/39/103 124/41/103
f 125/38/104 124/41/104 127/40/104
f 125/38/20 118/32/20 121/39/20
f 129/359/125 133/347/125 130/346/125
f 129/359/216 132/360/216 133/347/216
f 129/359/32 130/346/32 144/358/32
f 129/392/128 133/404/128 135/393/128
f 129/392/217 131/403/217 133/404/217
f 131/403/136 129/392/136 144/391/136
f 132/203/107 134/213/107 133/214/107
f 133/331/25 131/345/25 130/338/25
f 134/261/108 136/267/108 135/265/108
f 134/261/218 138/262/218 136/267/218
f 134/261/23 135/265/23 133/263/23
f 134/332/129 136/340/129 137/363/129
f 134/332/201 132/326/201 136/340/201
f 135/227/24 132/229/24 129/226/24
f 135/227/24 136/225/24 132/229/24
f 137/363/25 138/355/25 134/332/25
f 137/363/25 141/374/25 142/372/25
f 137/363/25 142/372/25 138/355/25
f 137/379/130 140/369/130 141/378/130
f 137/379/219 139/370/219 140/369/219
f 138/400/131 139/411/131 136/412/131
f 138/400/132 140/410/132 139/411/132
f 138/400/220 142/399/220 140/410/220
f 139/370/31 137/379/31 136/371/31
f 141/178/133 144/184/133 130/171/133
f 141/178/221 143/185/221 144/184/221
f 141/374/25 130/338/25 131/345/25
f 141/374/25 131/345/25 142/372/25
f 142/118/114 143/117/114 140/116/114
f 142/372/134 144/344/134 143/364/134
f 142/372/222 131/345/222 144/344/222
f 143/185/26 141/178/26 140/183/26
f 145/289/137 151/311/137 149/292/137
f 145/289/138 146/291/138 147/309/138
f 145/289/224 147/309/224 151/311/224
f 146/257/145 145/252/145 150/255/145
f 147/309/140 148/312/140 151/311/140
f 148/274/139 147/272/139 146/257/139
f 149/292/144 150/287/144 145/289/144
f 150/255/135 148/274/135 146/257/135
f 150/255/143 149/256/143 152/271/143
f 150/255/223 152/271/223 148/274/223
f 151/311/142 152/310/142 149/292/142
f 152/271/141 151/278/141 148/274/141
f 153/26/137 159/31/137 157/28/137
f 153/26/138 154/27/138 155/29/138
f 153/26/224 155/29/224 159/31/224
f 154/320/145 153/314/145 158/317/145
f 155/29/140 156/33/140 159/31/140
f 156/353/139 155/350/139 154/320/139
f 157/28/144 158/25/144 153/26/144
f 158/317/135 156/353/135 154/320/135
f 158/317/143 157/319/143 160/349/143
f 158/317/223 160/349/223 156/353/223
f 159/31/142 160/30/142 157/28/142
f 160/349/141 159/357/141 156/353/141
f 161/49/137 167/74/137 165/54/137
f 161/49/138 162/53/138 163/72/138
f 161/49/224 163/72/224 167/74/224
f 162/37/145 161/34/145 166/35/145
f 163/72/140 164/75/140 167/74/140
f 164/45/139 163/44/139 162/37/139
f 165/54/144 166/47/144 161/49/144
f 166/35/135 164/45/135 162/37/135
f 166/35/143 165/36/143 168/43/143
f 166/35/223 168/43/223 164/45/223
f 167/74/142 168/73/142 165/54/142
f 168/43/141 167/46/141 164/45/141
f 169/85/137 175/91/137 173/87/137
f 169/85/138 170/86/138 171/89/138
f 169/85/224 171/89/224 175/91/224
f 170/79/145 169/76/145 174/77/145
f 171/89/140 172/93/140 175/91/140
f 172/82/139 171/81/139 170/79/139
f 173/87/144 174/84/144 169/85/144
f 174/77/135 172/82/135 170/79/135
f 174/77/143 173/78/143 176/80/143
f 174/77/223 176/80/223 172/82/223
f 175/91/142 176/90/142 173/87/142
f 176/80/141 175/83/141 172/82/141
f 183/101/148 184/103/148 182/100/148
f 183/101/149 186/104/149 185/105/149
f 183/101/228 181/102/228 186/104/228
f 183/204/33 182/198/33 181/197/33
f 184/131/34 185/132/34 182/133/34
f 185/105/227 184/103/227 183/101/227
f 185/109/151 186/107/151 181/108/151
f 185/109/35 181/108/35 182/113/35
f 39/66/179 41/119/179 45/122/179
f 39/66/66 45/122/66 43/68/66
f 39/66/67 40/67/67 41/119/67
f 40/8/74 39/1/74 44/5/74
f 41/119/69 42/124/69 45/122/69
f 42/60/68 41/59/68 40/8/68
f 43/68/73 44/64/73 39/66/73
f 44/5/178 46/58/178 42/60/178
f 44/5/65 42/60/65 40/8/65
f 44/5/72 43/7/72 46/58/72
f 45/122/71 46/120/71 43/68/71
f 46/58/70 45/61/70 42/60/70
f 47/423/181 48/414/181 53/384/181
f 47/423/76 53/384/76 50/401/76
f 48/149/180 47/143/180 51/150/180
f 48/149/75 51/150/75 49/152/75
f 49/152/182 51/150/182 54/151/182
f 49/152/77 54/151/77 52/153/77
f 50/139/15 57/134/15 54/140/15
f 50/139/94 51/142/94 47/141/94
f 50/139/95 54/140/95 51/142/95
f 50/401/184 53/384/184 56/395/184
f 50/401/79 56/395/79 57/415/79
f 52/222/183 54/216/183 57/224/183
f 52/222/78 57/224/78 55/228/78
f 53/384/13 48/414/13 49/382/13
f 53/384/14 49/382/14 52/381/14
f 53/384/97 52/381/97 56/395/97
f 55/190/185 57/181/185 60/172/185
f 55/190/80 60/172/80 58/192/80
f 55/228/16 58/240/16 56/232/16
f 55/228/96 56/232/96 52/222/96
f 56/395/17 58/421/17 59/422/17
f 56/436/186 59/435/186 60/456/186
f 56/436/81 60/456/81 57/451/81
f 58/192/187 60/172/187 63/173/187
f 58/192/82 63/173/82 61/191/82
f 61/191/189 63/173/189 66/174/189
f 61/191/84 66/174/84 64/193/84
f 61/433/98 59/435/98 58/431/98
f 62/450/188 60/456/188 59/435/188
f 62/450/83 59/435/83 61/433/83
f 62/450/99 63/458/99 60/456/99
f 64/193/191 66/174/191 68/180/191
f 64/193/86 68/180/86 67/189/86
f 64/432/192 67/434/192 69/448/192
f 64/432/87 69/448/87 65/449/87
f 65/389/18 69/361/18 66/383/18
f 65/449/190 62/450/190 61/433/190
f 65/449/85 61/433/85 64/432/85
f 66/457/198 63/458/198 62/450/198
f 66/457/93 62/450/93 65/449/93
f 67/160/193 68/163/193 72/167/193
f 67/160/88 72/167/88 70/162/88
f 68/98/102 69/99/102 72/97/102
f 68/98/19 66/106/19 69/99/19
f 69/361/194 67/376/194 74/365/194
f 69/361/89 74/365/89 71/348/89
f 70/162/195 72/167/195 75/166/195
f 70/162/90 75/166/90 73/161/90
f 71/348/101 72/339/101 69/361/101
f 71/348/197 74/365/197 76/390/197
f 71/348/21 75/343/21 72/339/21
f 71/348/22 77/375/22 75/343/22
f 71/348/92 76/390/92 77/375/92
f 73/161/196 75/166/196 77/159/196
f 73/161/91 77/159/91 76/158/91
f 74/294/103 70/298/103 73/306/103
f 74/294/104 73/306/104 76/301/104
f 74/294/20 67/279/20 70/298/20
f 78/209/100 82/196/100 79/195/100
f 78/209/199 81/210/199 82/196/199
f 79/266/25 96/280/25 95/281/25
f 80/186/24 78/188/24 97/179/24
f 80/186/24 81/206/24 78/188/24
f 80/186/24 84/200/24 81/206/24
f 80/296/105 82/304/105 84/297/105
f 80/296/200 79/303/200 82/304/200
f 81/202/107 83/211/107 82/212/107
f 83/264/106 87/268/106 85/275/106
f 83/264/201 81/260/201 87/268/201
f 83/277/108 87/286/108 84/284/108
f 83/277/202 86/282/202 87/286/202
f 83/277/23 84/284/23 82/283/23
f 84/200/24 87/187/24 81/206/24
f 85/275/25 86/276/25 83/264/25
f 85/335/109 88/328/109 89/334/109
f 85/335/203 87/329/203 88/328/203
f 86/388/110 90/397/110 87/398/110
f 86/388/204 89/387/204 90/397/204
f 89/288/25 86/276/25 85/275/25
f 89/334/111 91/327/111 92/333/111
f 89/334/205 88/328/205 91/327/205
f 89/387/112 91/396/112 90/397/112
f 89/387/206 93/386/206 91/396/206
f 90/182/24 88/177/24 87/187/24
f 91/168/24 88/177/24 90/182/24
f 92/293/25 93/290/25 89/288/25
f 92/293/25 95/281/25 96/280/25
f 92/293/25 96/280/25 93/290/25
f 93/128/114 94/127/114 91/126/114
f 94/238/113 95/233/113 92/235/113
f 94/238/207 97/237/207 95/233/207
f 94/238/26 92/235/26 91/236/26
f 94/285/115 96/280/115 97/273/115
f 94/285/208 93/290/208 96/280/208
f 95/194/116 78/209/116 79/195/116
f 95/194/209 97/208/209 78/209/209
f 96/302/117 80/296/117 97/295/117
f 96/302/210 79/303/210 80/296/210
f 98/419/181 99/406/181 104/380/181
f 98/419/76 104/380/76 101/394/76
f 99/324/180 98/315/180 102/336/180
f 99/324/75 102/336/75 100/354/75
usemtl RPG_brass
f 178/241/147 180/247/147 179/248/147
f 178/241/226 177/242/226 180/247/226
f 179/253/146 177/269/146 178/270/146
f 179/253/225 180/254/225 177/269/225
