# Blender 4.0.2
# www.blender.org
mtllib village_well_collision.mtl
o village_well_collision
v -0.761635 0.000000 0.192979
v -0.791634 0.030000 0.192705
v -0.758126 0.000000 -0.191735
v -0.788125 0.030000 -0.192008
v -0.460085 0.000000 0.618988
v -0.482945 0.030000 0.638416
v -0.709235 0.000000 0.325830
v -0.732094 0.030000 0.345258
v 0.079677 0.000000 0.772066
v 0.075917 0.030000 0.801829
v -0.302019 0.000000 0.723844
v -0.305779 0.030000 0.753607
v 0.561432 0.000000 0.546819
v 0.576892 0.030000 0.572529
v 0.231724 0.000000 0.745085
v 0.247184 0.030000 0.770795
v 0.763261 0.000000 0.084635
v 0.791631 0.030000 0.094390
v 0.638149 0.000000 0.448453
v 0.666519 0.030000 0.458209
v 0.620659 0.000000 -0.456297
v 0.648082 0.030000 -0.468461
v 0.776656 0.000000 -0.104613
v 0.804079 0.030000 -0.116777
v 0.188784 0.000000 -0.755184
v 0.202312 0.030000 -0.781961
v 0.532178 0.000000 -0.581699
v 0.545706 0.030000 -0.608476
v -0.302211 0.000000 -0.707762
v -0.306999 0.030000 -0.737377
v 0.077587 0.000000 -0.769168
v 0.072799 0.030000 -0.798783
v -0.687210 0.000000 -0.351280
v -0.710203 0.030000 -0.370550
v -0.440083 0.000000 -0.646145
v -0.463076 0.030000 -0.665415
v 0.960000 2.359935 0.105400
v -0.960000 2.359935 0.105400
v 0.960000 2.359935 -0.105400
v -0.960000 2.359935 -0.105400
v 1.020000 2.350000 0.060000
v -1.020000 2.350000 0.060000
v 1.020000 2.298038 0.030000
v -1.020000 2.298038 0.030000
v 1.020000 2.298038 -0.030000
v -1.020000 2.298038 -0.030000
v 1.020000 2.350000 -0.060000
v -1.020000 2.350000 -0.060000
v 1.020000 2.401962 -0.030000
v -1.020000 2.401961 -0.030000
v 1.020000 2.401962 0.030000
v -1.020000 2.401961 0.030000
v 1.010000 1.607779 1.030000
v -1.010000 1.607779 1.030000
v 1.010000 1.538497 0.990000
v -1.010000 1.538497 0.990000
v 1.010000 1.677061 0.990000
v -1.010000 1.677061 0.990000
v 1.010000 1.538497 -0.990000
v -1.010000 1.538497 -0.990000
v 1.010000 1.607779 -1.030000
v -1.010000 1.607779 -1.030000
v 1.010000 1.677061 -0.990000
v -1.010000 1.677061 -0.990000
vn -0.0000 0.5000 -0.8660
vn 0.9998 0.0107 -0.0185
vn 1.0000 -0.0041 -0.0071
vn 1.0000 -0.0041 -0.0072
vn 0.6742 -0.3693 -0.6396
vn 0.4227 -0.3480 -0.8368
vn 0.1257 -0.2166 -0.9681
vn -0.0000 -0.1450 -0.9894
vn -1.0000 -0.0041 -0.0072
vn -1.0000 -0.0041 -0.0071
vn -0.9998 0.0107 -0.0185
vn -0.1547 -0.2464 -0.9568
vn -0.3946 -0.3345 -0.8558
vn -0.6543 -0.3781 -0.6550
vn -0.0000 0.7916 -0.6111
vn 0.1967 0.7815 -0.5921
vn -0.0000 0.8735 -0.4869
vn -0.0000 1.0000 -0.0000
vn 1.0000 -0.0000 -0.0000
vn 0.9999 -0.0132 -0.0000
vn 0.9908 -0.1353 -0.0000
vn 0.8602 -0.3383 -0.3816
vn 0.7501 -0.3696 -0.5484
vn 0.6028 -0.6652 -0.4407
vn 0.3189 -0.7071 -0.6311
vn 0.0937 -0.6861 -0.7214
vn 0.0900 -0.6924 -0.7159
vn -0.1129 -0.7071 -0.6980
vn -0.9999 -0.0132 -0.0000
vn -0.7076 -0.3842 -0.5930
vn -0.8660 -0.3273 -0.3780
vn -0.9886 -0.1502 -0.0090
vn -0.9897 -0.1433 -0.0000
vn -1.0000 -0.0000 -0.0000
vn -0.1967 0.7815 -0.5921
vn -0.2934 -0.6949 -0.6565
vn -0.3106 -0.6707 -0.6736
vn -0.5419 -0.7071 -0.4542
vn -0.0000 0.8735 0.4869
vn 0.1967 0.7815 0.5921
vn 0.9998 0.0107 0.0185
vn 1.0000 -0.0041 0.0071
vn 1.0000 -0.0041 0.0072
vn 0.6717 -0.3704 0.6416
vn 0.7315 -0.3687 0.5735
vn 0.8980 -0.3133 0.3088
vn 0.9826 -0.1766 0.0579
vn 0.7462 -0.6643 0.0440
vn 0.6464 -0.7071 -0.2867
vn 0.5834 -0.7002 -0.4116
vn -0.0000 -1.0000 -0.0000
vn -1.0000 -0.0041 0.0072
vn -0.8854 -0.3108 0.3456
vn -0.7032 -0.3850 0.5977
vn -0.6491 -0.3803 0.6588
vn -0.6588 -0.6930 -0.2928
vn -0.6744 -0.6771 -0.2944
vn -0.7071 -0.7071 -0.0064
vn -0.6828 -0.6803 0.2665
vn -1.0000 -0.0041 0.0071
vn -0.9998 0.0107 0.0185
vn -0.1967 0.7815 0.5921
vn -0.0000 0.7916 0.6111
vn -0.0000 0.5000 0.8660
vn 0.1731 -0.2406 0.9551
vn 0.4801 -0.3633 0.7984
vn -0.0000 -0.1431 0.9897
vn 0.3644 -0.7071 0.6060
vn 0.5750 -0.6827 0.4508
vn 0.5729 -0.6871 0.4468
vn 0.6687 -0.7071 0.2299
vn 0.7173 -0.6949 0.0508
vn -0.5078 -0.3635 0.7810
vn -0.1222 -0.2239 0.9669
vn -0.6756 -0.6874 0.2665
vn -0.5388 -0.7071 0.4579
vn -0.3986 -0.6929 0.6009
vn -0.4052 -0.6690 0.6231
vn -0.0886 -0.7071 0.7015
vn 0.1264 -0.6906 0.7121
vn 0.1302 -0.6830 0.7187
vt 0.00000 0.14956
vt 0.00000 0.50981
vt 0.00000 0.63379
vt 0.00206 0.15941
vt 0.00695 0.62888
vt 0.01266 0.89383
vt 0.01622 0.68650
vt 0.01710 0.16331
vt 0.01960 0.71590
vt 0.02003 0.89671
vt 0.02221 0.82061
vt 0.02298 0.79689
vt 0.02317 0.68159
vt 0.02712 0.71488
vt 0.02957 0.82349
vt 0.03050 0.79587
vt 0.06632 0.00446
vt 0.06787 0.01185
vt 0.07606 0.00000
vt 0.07915 0.01478
vt 0.08735 0.00293
vt 0.08889 0.01031
vt 0.23275 0.48738
vt 0.23761 0.51478
vt 0.24097 0.41758
vt 0.24128 0.48880
vt 0.24551 0.51317
vt 0.24950 0.41900
vt 0.25984 0.37828
vt 0.26668 0.38378
vt 0.27735 0.55561
vt 0.29323 0.56160
vt 0.30768 0.31325
vt 0.31451 0.31875
vt 0.32134 0.00225
vt 0.33249 0.29157
vt 0.33612 0.29978
vt 0.33638 0.00615
vt 0.33720 0.99574
vt 0.33722 0.56498
vt 0.33844 0.01600
vt 0.35215 0.55624
vt 0.35300 0.99574
vt 0.35302 0.56498
vt 0.35625 0.56498
vt 0.35625 1.00000
vt 0.36652 0.56498
vt 0.36652 1.00000
vt 0.38285 0.54448
vt 0.38408 0.57777
vt 0.38408 0.98720
vt 0.39493 0.26356
vt 0.39855 0.27176
vt 0.42382 0.26380
vt 0.42438 0.27220
vt 0.44009 0.49126
vt 0.46053 0.46658
vt 0.47198 0.29313
vt 0.48184 0.31246
vt 0.48903 0.39410
vt 0.49141 0.37378
vt 0.49464 0.21482
vt 0.49529 0.22748
vt 0.50461 0.20826
vt 0.50590 0.23359
vt 0.51522 0.21437
vt 0.51586 0.22704
vt 0.61117 0.56711
vt 0.61117 0.99787
vt 0.62570 0.56711
vt 0.62570 0.99787
vt 0.62829 0.00874
vt 0.62892 0.99787
vt 0.62893 0.56711
vt 0.64157 0.00000
vt 0.64434 0.56711
vt 0.64434 0.99787
vt 0.64963 0.42672
vt 0.65572 0.00815
vt 0.66378 0.43486
vt 0.67706 0.42612
vt 0.87184 0.57777
vt 0.87184 0.98720
vt 0.88907 0.56498
vt 0.88907 1.00000
vt 0.97442 0.18418
vt 0.97611 0.22913
vt 0.97646 0.10364
vt 0.97949 0.07683
vt 0.98182 0.18527
vt 0.98322 0.22562
vt 0.98385 0.10472
vt 0.98644 0.08167
vt 0.98732 0.29871
vt 0.99305 0.02512
vt 0.99370 0.32521
vt 0.99444 0.29519
vt 1.00000 0.02996
vt 1.00000 0.31902
s 0
usemtl RPG_collision
f 1/37/59 8/33/59 2/36/59
f 1/37/75 7/34/75 8/33/75
f 10/23/65 16/24/65 53/2/65
f 11/28/78 12/25/78 6/29/78
f 12/25/74 10/23/74 54/4/74
f 12/25/79 11/28/79 9/26/79
f 12/25/79 9/26/79 10/23/79
f 13/93/69 20/88/69 14/89/69
f 13/93/70 19/92/70 20/88/70
f 14/89/45 20/88/45 55/79/45
f 15/27/81 16/24/81 10/23/81
f 15/98/68 13/93/68 14/89/68
f 16/95/66 14/89/66 53/75/66
f 16/95/68 15/98/68 14/89/68
f 17/90/72 23/91/72 18/86/72
f 18/86/47 24/87/47 55/79/47
f 18/86/48 23/91/48 24/87/48
f 19/92/71 17/90/71 18/86/71
f 19/92/71 18/86/71 20/88/71
f 2/36/33 56/8/33 60/41/33
f 2/36/53 8/33/53 56/8/53
f 20/88/46 18/86/46 55/79/46
f 21/56/51 1/37/51 3/53/51
f 21/56/51 11/28/51 5/30/51
f 21/56/51 13/31/51 15/27/51
f 21/56/51 15/27/51 9/26/51
f 21/56/51 17/42/51 19/32/51
f 21/56/51 19/32/51 13/31/51
f 21/56/51 23/49/51 17/42/51
f 21/56/51 25/60/51 27/57/51
f 21/56/51 29/59/51 31/61/51
f 21/56/51 3/53/51 33/55/51
f 21/56/51 31/61/51 25/60/51
f 21/56/51 33/55/51 35/58/51
f 21/56/51 35/58/51 29/59/51
f 21/56/51 5/30/51 7/34/51
f 21/56/51 7/34/51 1/37/51
f 21/56/51 9/26/51 11/28/51
f 21/97/50 27/99/50 22/94/50
f 22/94/23 28/96/23 59/81/23
f 22/94/24 27/99/24 28/96/24
f 23/91/49 21/97/49 22/94/49
f 23/91/49 22/94/49 24/87/49
f 24/87/22 22/94/22 59/81/22
f 25/11/25 26/15/25 28/10/25
f 25/11/26 32/16/26 26/15/26
f 25/11/27 31/12/27 32/16/27
f 26/15/7 32/16/7 61/43/7
f 27/6/25 25/11/25 28/10/25
f 28/10/6 26/15/6 61/43/6
f 29/9/36 35/7/36 30/14/36
f 3/53/57 4/52/57 34/54/57
f 3/53/58 1/37/58 2/36/58
f 3/53/58 2/36/58 4/52/58
f 30/14/13 36/13/13 62/44/13
f 31/12/28 29/9/28 30/14/28
f 31/12/28 30/14/28 32/16/28
f 32/16/12 30/14/12 62/44/12
f 32/16/8 62/44/8 61/43/8
f 33/3/38 34/5/38 36/13/38
f 33/55/56 3/53/56 34/54/56
f 34/54/31 4/52/31 60/41/31
f 35/7/37 36/13/37 30/14/37
f 35/7/38 33/3/38 36/13/38
f 36/13/14 60/40/14 62/44/14
f 36/13/30 34/5/30 60/40/30
f 37/82/40 57/76/40 51/84/40
f 38/83/39 37/82/39 51/84/39
f 39/50/16 49/47/16 63/68/16
f 39/50/17 40/51/17 49/47/17
f 4/52/32 2/36/32 60/41/32
f 40/51/17 50/48/17 49/47/17
f 40/51/35 64/69/35 50/48/35
f 41/64/42 53/75/42 43/66/42
f 42/18/61 54/4/61 52/17/61
f 43/66/20 55/79/20 59/81/20
f 43/66/20 59/81/20 45/67/20
f 44/20/34 42/18/34 52/17/34
f 44/20/34 48/21/34 46/22/34
f 44/20/34 50/19/34 48/21/34
f 44/20/34 52/17/34 50/19/34
f 45/67/4 59/81/4 61/80/4
f 46/22/10 48/21/10 62/38/10
f 47/65/3 45/67/3 61/80/3
f 48/21/11 50/19/11 62/38/11
f 49/63/2 47/65/2 61/80/2
f 5/30/76 6/29/76 8/33/76
f 5/30/77 11/28/77 6/29/77
f 50/19/11 64/35/11 62/38/11
f 50/48/18 51/45/18 49/47/18
f 50/48/18 52/46/18 51/45/18
f 51/62/19 41/64/19 43/66/19
f 51/62/19 43/66/19 45/67/19
f 51/62/19 45/67/19 47/65/19
f 51/62/19 47/65/19 49/63/19
f 52/85/39 38/83/39 51/84/39
f 53/75/41 41/64/41 51/62/41
f 53/75/43 55/79/43 43/66/43
f 53/75/44 14/89/44 55/79/44
f 54/4/52 44/20/52 56/8/52
f 54/4/60 42/18/60 44/20/60
f 54/4/61 58/1/61 52/17/61
f 54/4/67 10/23/67 53/2/67
f 55/79/21 24/87/21 59/81/21
f 56/8/29 44/20/29 46/22/29
f 56/8/29 46/22/29 60/41/29
f 57/72/41 53/75/41 51/62/41
f 58/77/62 38/83/62 52/85/62
f 58/77/63 37/82/63 38/83/63
f 58/77/63 57/76/63 37/82/63
f 58/77/64 53/74/64 57/76/64
f 58/77/64 54/73/64 53/74/64
f 59/39/5 28/10/5 61/43/5
f 6/29/55 54/4/55 56/8/55
f 6/29/73 12/25/73 54/4/73
f 60/41/9 46/22/9 62/38/9
f 62/71/1 63/68/1 61/70/1
f 62/71/1 64/69/1 63/68/1
f 63/78/2 49/63/2 61/80/2
f 64/69/15 39/50/15 63/68/15
f 64/69/15 40/51/15 39/50/15
f 7/34/76 5/30/76 8/33/76
f 8/33/54 6/29/54 56/8/54
f 9/26/80 15/27/80 10/23/80
