# Blender 4.0.2
# www.blender.org
mtllib wall_sconce_collision.mtl
o wall_sconce_collision
v 0.051000 0.049000 0.000000
v 0.060000 0.049000 0.009000
v 0.051000 0.311000 0.000000
v 0.060000 0.311000 0.009000
v 0.060000 0.049000 0.011000
v -0.060000 0.049000 0.009000
v -0.051000 0.049000 0.000000
v -0.051000 0.311000 0.000000
v -0.060000 0.311000 0.009000
v -0.060000 0.049000 0.011000
v 0.000000 0.000000 0.048072
v -0.019981 0.000000 0.036536
v -0.019981 0.000000 0.013464
v -0.019221 0.005807 0.007840
v 0.000000 0.000000 0.001928
v -0.005251 0.005807 -0.000226
v 0.005251 0.005807 -0.000226
v 0.019981 0.000000 0.013464
v 0.019221 0.005807 0.007840
v 0.019981 0.000000 0.036536
v 0.000000 0.234611 0.242990
v -0.030399 0.234611 0.230399
v 0.030399 0.234611 0.230399
v -0.074000 0.300000 0.200000
v -0.074000 0.320000 0.200000
v -0.052326 0.300000 0.252326
v -0.000000 0.300000 0.274000
v 0.052326 0.300000 0.252326
v 0.052326 0.320000 0.252326
v 0.074000 0.300000 0.200000
v 0.074000 0.320000 0.200000
v 0.000000 0.169322 0.202940
v 0.006928 0.176515 0.209240
v -0.006928 0.176515 0.209240
v -0.015588 0.177211 0.204289
v 0.015588 0.177211 0.204289
v 0.000000 0.518257 0.275423
v -0.039837 0.521458 0.252647
v -0.039837 0.527860 0.207095
v 0.039837 0.527860 0.207095
v 0.039837 0.521458 0.252647
v 0.000000 0.480000 0.282000
v 0.045033 0.480000 0.256000
v 0.000000 0.600000 0.230000
v -0.015955 0.488773 0.278839
v -0.049853 0.494688 0.271114
v -0.055330 0.484691 0.237740
vn -0.0000 0.0007 -1.0000
vn 0.0049 -0.0000 -1.0000
vn 0.4427 -0.4649 -0.7668
vn 0.3955 -0.6118 -0.6851
vn -0.0000 -0.3478 -0.9376
vn -0.3955 -0.6118 -0.6851
vn -0.4427 -0.4649 -0.7668
vn -0.0049 -0.0000 -1.0000
vn -0.0000 0.6227 -0.7825
vn 0.5827 0.5665 -0.5827
vn 0.7071 -0.0000 -0.7071
vn 0.5951 -0.5402 -0.5951
vn 0.5691 -0.5324 -0.6266
vn -0.0000 -1.0000 -0.0000
vn -0.5691 -0.5324 -0.6266
vn -0.5951 -0.5402 -0.5951
vn -0.7071 -0.0000 -0.7071
vn -0.5827 0.5665 -0.5827
vn -0.8822 0.4663 0.0655
vn -0.8239 0.4966 0.2731
vn -0.2919 0.4646 0.8360
vn 0.4185 0.4412 0.7939
vn 0.8822 0.4663 0.0655
vn 0.6698 0.5338 -0.5162
vn -0.6698 0.5338 -0.5162
vn 0.9832 0.1643 -0.0798
vn 0.9973 -0.0000 -0.0731
vn 0.7745 -0.6326 -0.0000
vn 0.9984 -0.0557 -0.0000
vn -0.7745 -0.6326 -0.0000
vn -0.9984 -0.0557 -0.0000
vn -0.9973 -0.0000 -0.0731
vn -0.9884 0.1301 -0.0786
vn -0.9597 0.2328 -0.1572
vn -0.9301 0.3646 0.0434
vn -0.9225 0.3822 0.0537
vn -0.1823 0.2099 0.9606
vn -0.9872 0.0803 0.1379
vn -0.9469 -0.0000 0.3215
vn -0.9236 -0.0252 0.3826
vn -0.3813 -0.0840 0.9206
vn -0.2293 -0.0443 0.9723
vn 0.4818 0.1485 0.8636
vn -0.1016 0.1685 0.9804
vn 0.4957 0.1315 0.8585
vn 0.9829 0.1335 0.1271
vn 0.9866 0.1614 0.0227
vn 0.9234 0.0333 0.3825
vn 0.9239 -0.0000 0.3827
vn 0.8748 -0.3216 0.3623
vn 0.7916 -0.4108 0.4524
vn 0.4278 -0.6158 0.6617
vn 0.3885 -0.6296 0.6728
vn 0.7861 -0.4146 0.4585
vn -0.3885 -0.6296 0.6728
vn -0.4278 -0.6158 0.6617
vn -0.7861 -0.4146 0.4585
vn -0.7916 -0.4108 0.4524
vn -0.8748 -0.3216 0.3623
vn -0.2170 -0.0433 0.9752
vn -0.7618 -0.4207 0.4927
vn -0.3505 -0.4013 0.8462
vn 0.3505 -0.4013 0.8462
vn 0.3824 -0.0410 0.9231
vn 0.4933 -0.0000 0.8699
vn 0.5000 0.0029 0.8660
vn 0.7618 -0.4207 0.4927
vn 0.4677 -0.4631 0.7529
vn 0.0297 -0.6746 0.7376
vn 0.3435 -0.4408 0.8293
vn -0.0000 -0.5023 0.8647
vn -0.0000 -0.6589 0.7523
vn -0.0297 -0.6746 0.7376
vn -0.3435 -0.4408 0.8293
vn -0.4677 -0.4631 0.7529
vt 0.00000 0.37549
vt 0.00034 0.34903
vt 0.01337 0.13420
vt 0.02136 0.08251
vt 0.02960 0.48233
vt 0.03787 0.98911
vt 0.03814 0.96824
vt 0.04925 0.58222
vt 0.06152 0.57886
vt 0.06595 1.00000
vt 0.06648 0.95827
vt 0.07111 0.59423
vt 0.07266 0.47164
vt 0.07412 0.35710
vt 0.07724 0.11173
vt 0.07781 0.06707
vt 0.07866 0.00000
vt 0.08108 0.57918
vt 0.09326 0.58294
vt 0.09429 0.99003
vt 0.09455 0.96917
vt 0.09988 0.10335
vt 0.11543 0.48373
vt 0.14774 0.10330
vt 0.14774 0.37791
vt 0.15059 0.39247
vt 0.15059 0.39570
vt 0.15059 0.88474
vt 0.20047 0.25374
vt 0.22422 0.29005
vt 0.22459 0.50253
vt 0.23976 0.55241
vt 0.25694 0.35298
vt 0.25725 0.43901
vt 0.26765 0.24473
vt 0.28082 0.52054
vt 0.40720 0.80300
vt 0.40720 0.96647
vt 0.41196 0.78858
vt 0.41196 0.98089
vt 0.44738 0.08886
vt 0.46927 0.06870
vt 0.46961 0.72312
vt 0.49703 0.15637
vt 0.49752 0.63757
vt 0.51892 0.13621
vt 0.51941 0.65753
vt 0.55591 0.02730
vt 0.55596 0.76084
vt 0.63860 0.78535
vt 0.63877 0.00000
vt 0.67084 0.38241
vt 0.67095 0.40700
vt 0.67702 0.39247
vt 0.67702 0.39570
vt 0.75016 0.80300
vt 0.75016 0.96647
vt 0.75492 0.78858
vt 0.75492 0.98089
vt 0.80658 0.87632
vt 0.80658 0.89315
vt 0.81085 0.85393
vt 0.81085 0.91554
vt 0.81532 0.88474
vt 0.82143 0.85271
vt 0.82143 0.91676
vt 0.95586 0.67094
vt 0.95593 0.11579
vt 0.95760 0.66843
vt 0.95768 0.11827
vt 0.97942 0.75180
vt 0.97988 0.02986
vt 0.99951 0.72287
vt 1.00000 0.05847
s 0
usemtl RPG_collision
f 1/56/3 19/62/3 17/60/3
f 10/67/31 24/47/31 6/69/31
f 11/11/55 34/18/55 12/21/55
f 12/71/30 10/67/30 6/69/30
f 12/71/30 6/69/30 13/73/30
f 13/66/15 7/57/15 14/63/15
f 13/66/16 6/59/16 7/57/16
f 13/66/6 14/63/6 15/64/6
f 14/63/7 7/57/7 16/61/7
f 15/64/5 16/61/5 17/60/5
f 15/64/6 14/63/6 16/61/6
f 16/61/1 3/37/1 17/60/1
f 16/61/1 8/38/1 3/37/1
f 18/6/14 11/11/14 12/21/14
f 18/6/14 12/21/14 13/20/14
f 18/6/14 13/20/14 15/10/14
f 18/6/14 20/7/14 11/11/14
f 18/65/13 19/62/13 1/56/13
f 18/65/4 15/64/4 19/62/4
f 19/62/4 15/64/4 17/60/4
f 2/58/12 18/65/12 1/56/12
f 21/13/63 23/5/63 27/14/63
f 21/13/71 34/18/71 33/9/71
f 21/13/74 22/23/74 34/18/74
f 22/23/62 21/13/62 27/14/62
f 22/23/62 27/14/62 26/25/62
f 22/23/75 35/19/75 34/18/75
f 23/48/67 36/51/67 28/42/67
f 23/5/63 28/1/63 27/14/63
f 23/5/68 33/9/68 36/8/68
f 23/5/70 21/13/70 33/9/70
f 24/47/32 25/45/32 9/53/32
f 24/47/32 9/53/32 6/69/32
f 24/47/40 26/43/40 46/32/40
f 25/45/33 47/36/33 9/53/33
f 25/45/39 24/47/39 46/32/39
f 26/25/41 27/14/41 46/24/41
f 26/43/58 10/67/58 12/71/58
f 26/43/59 24/47/59 10/67/59
f 27/14/42 45/22/42 46/24/42
f 27/14/60 42/15/60 45/22/60
f 28/1/64 42/15/64 27/14/64
f 28/1/65 29/2/65 42/15/65
f 28/42/51 20/72/51 5/68/51
f 28/42/54 36/51/54 20/72/54
f 29/2/66 43/3/66 42/15/66
f 29/41/49 28/42/49 30/46/49
f 29/41/49 30/46/49 31/44/49
f 3/37/2 1/56/2 17/60/2
f 30/46/29 5/68/29 2/70/29
f 30/46/50 28/42/50 5/68/50
f 31/44/27 2/70/27 4/52/27
f 31/44/27 30/46/27 2/70/27
f 31/44/47 40/33/47 41/30/47
f 32/12/69 11/11/69 33/9/69
f 32/12/73 34/18/73 11/11/73
f 33/9/53 11/11/53 20/7/53
f 34/18/56 35/19/56 12/21/56
f 34/18/72 32/12/72 33/9/72
f 35/50/57 26/43/57 12/71/57
f 35/50/61 22/49/61 26/43/61
f 36/8/52 33/9/52 20/7/52
f 37/29/22 41/30/22 44/26/22
f 38/31/20 46/32/20 44/27/20
f 39/34/19 38/31/19 44/27/19
f 4/39/11 1/56/11 3/37/11
f 4/39/11 2/58/11 1/56/11
f 40/33/24 4/52/24 44/26/24
f 40/33/26 31/44/26 4/52/26
f 41/30/23 40/33/23 44/26/23
f 42/15/43 41/4/43 37/16/43
f 42/15/45 43/3/45 41/4/45
f 43/35/46 31/44/46 41/30/46
f 43/35/48 29/41/48 31/44/48
f 44/26/10 4/52/10 3/54/10
f 45/22/37 37/16/37 46/24/37
f 45/22/44 42/15/44 37/16/44
f 46/24/21 37/16/21 44/17/21
f 46/32/36 38/31/36 39/34/36
f 47/36/34 39/34/34 9/53/34
f 47/36/35 46/32/35 39/34/35
f 47/36/38 25/45/38 46/32/38
f 5/68/28 18/74/28 2/70/28
f 5/68/28 20/72/28 18/74/28
f 6/59/17 8/38/17 7/57/17
f 6/59/17 9/40/17 8/38/17
f 7/57/8 8/38/8 16/61/8
f 8/38/9 44/28/9 3/37/9
f 9/53/18 44/27/18 8/55/18
f 9/53/25 39/34/25 44/27/25
