# Blender 4.0.2
# www.blender.org
mtllib wall_sconce_lod1.mtl
o wall_sconce_lod1
v 0.057500 0.317500 0.010909
v 0.057500 0.042500 0.009091
v -0.057500 0.042500 0.010909
v -0.057500 0.317500 0.009091
v 0.000000 0.003693 0.051425
v -0.000526 0.058276 0.035174
v -0.028032 0.001714 0.025000
v -0.009000 0.058311 0.019941
v -0.000843 0.002201 -0.000929
v 0.022322 0.003418 0.011313
v 0.009322 0.058223 0.020088
v 0.022877 0.002201 0.037234
v 0.000000 0.150970 0.034179
v 0.018710 0.179495 0.017802
v 0.022526 0.225972 0.194022
v -0.001131 0.248321 0.193514
v -0.008564 0.163581 0.013407
v -0.016077 0.187883 0.020681
v 0.000000 0.206413 0.200930
v 0.001674 0.230804 0.210224
v -0.023200 0.226965 0.192991
v 0.017277 0.227039 0.234642
v -0.001172 0.310595 0.263160
v -0.035511 0.228098 0.217541
v -0.045641 0.308959 0.244504
v -0.062459 0.312570 0.198383
v -0.017277 0.227039 0.165358
v -0.044504 0.308959 0.154359
v 0.001384 0.311534 0.137173
v 0.035511 0.228098 0.182459
v 0.045641 0.308959 0.155496
v 0.062827 0.311534 0.201384
v 0.043832 0.310595 0.245490
v -0.074000 0.300000 0.200000
v -0.067000 0.320000 0.205633
v -0.060000 0.300000 0.200000
v -0.052326 0.320000 0.252326
v -0.042426 0.320000 0.242426
v -0.051359 0.300000 0.243393
v -0.000000 0.300000 0.274000
v 0.005633 0.320000 0.267000
v 0.052326 0.300000 0.252326
v 0.051359 0.320000 0.243393
v 0.028812 0.300000 0.255713
v 0.074000 0.320000 0.200000
v 0.060000 0.320000 0.200000
v 0.067000 0.300000 0.205633
v 0.052326 0.300000 0.147674
v 0.043393 0.320000 0.148641
v 0.042426 0.300000 0.157574
v 0.000000 0.320000 0.126000
v 0.005633 0.300000 0.133000
v -0.052326 0.320000 0.147674
v -0.019021 0.320000 0.140232
v -0.043393 0.300000 0.148641
v -0.011203 0.504238 0.251486
v 0.011346 0.497214 0.253222
v -0.018852 0.171992 0.200695
v -0.019115 0.507495 0.219095
v -0.002830 0.177795 0.163265
v 0.021331 0.506722 0.233185
v 0.012445 0.502949 0.212415
v 0.021385 0.173307 0.185977
v 0.012445 0.177051 0.207585
v -0.019779 0.450211 0.254004
v 0.000000 0.518257 0.275423
v -0.039837 0.521458 0.252647
v -0.034641 0.458124 0.200324
v -0.039837 0.527860 0.207095
v 0.025168 0.459431 0.187688
v 0.000000 0.531061 0.184319
v 0.039837 0.527860 0.207095
v 0.034641 0.452557 0.239934
v 0.039837 0.521458 0.252647
v 0.000000 0.480000 0.282000
v -0.045033 0.480000 0.256000
v -0.045033 0.480000 0.204000
v 0.000000 0.480000 0.178000
v 0.045033 0.480000 0.204000
v 0.045033 0.480000 0.256000
v 0.000000 0.600000 0.230000
v -0.033062 0.494914 0.278106
v -0.041423 0.479652 0.227151
v -0.000481 0.475121 0.250240
v -0.010713 0.556826 0.227446
vn 0.5223 0.2480 0.8159
vn -0.6822 0.1657 -0.7122
vn 0.4432 0.2433 -0.8628
vn 0.9726 0.2323 -0.0099
vn 0.0048 1.0000 -0.0004
vn -0.6792 0.2034 0.7052
vn -0.8277 0.3196 0.4612
vn 0.0092 0.3498 -0.9368
vn 0.7860 0.3468 0.5118
vn -0.9525 -0.3033 0.0294
vn 0.4754 -0.6513 -0.5914
vn 0.5290 -0.3336 0.7803
vn 0.5681 0.6139 0.5481
vn -0.5190 -0.2730 0.8100
vn -0.5349 0.5368 0.6525
vn -0.6806 0.7080 -0.1887
vn -0.0110 0.2836 -0.9589
vn -0.0000 -1.0000 -0.0000
vn -0.0000 1.0000 -0.0000
vn -0.4585 -0.0302 -0.8882
vn -0.9717 -0.0137 0.2359
vn -0.1831 0.1553 -0.9707
vn -0.4681 0.3514 0.8108
vn -0.9362 0.3514 -0.0000
vn -0.4681 0.3514 -0.8108
vn 0.4681 0.3514 -0.8108
vn 0.9362 0.3514 -0.0000
vn 0.4681 0.3514 0.8108
vn -0.9284 0.3693 0.0417
vn 0.4675 -0.1827 -0.8649
vn 0.7152 0.2695 0.6448
vn 0.0158 0.0066 0.9999
vn -0.0470 -0.9985 0.0292
vn 0.8593 -0.4988 0.1129
vn 0.1940 0.9207 -0.3387
vn -0.6882 -0.6884 0.2289
vn 0.6749 0.7098 -0.2018
vn -0.8810 -0.3373 -0.3317
vn 0.3556 -0.2306 0.9057
vn 0.3436 -0.3355 -0.8771
vn -0.3297 -0.2324 -0.9150
vn 0.8712 -0.3247 0.3683
vn 0.9165 -0.2251 -0.3306
vn -0.9216 -0.2217 0.3187
vn -0.3539 -0.3355 0.8730
vn -0.0239 -0.9996 0.0119
vn -0.9389 -0.1772 0.2951
vn 0.9111 0.3700 -0.1814
vn -0.2272 0.3781 0.8974
vn 0.1224 0.5916 -0.7969
vn 0.4231 0.3865 0.8195
vn 0.8726 -0.1772 0.4553
vn -0.7047 0.4634 -0.5373
vn 0.7953 0.3781 -0.4739
vn -0.8758 -0.1804 0.4478
vn 0.4553 -0.1772 -0.8726
vn -0.5160 0.3700 0.7726
vn -0.3741 -0.2107 -0.9031
vn -0.8974 0.3781 -0.2272
vn 0.3038 0.0302 0.9523
vn 0.9239 0.2392 0.2987
vn -0.1214 -0.1473 0.9816
vn -0.0173 0.9944 0.1042
vn 0.6896 0.0765 -0.7201
vn -0.0158 0.0066 -0.9999
vn -0.9203 0.0207 -0.3907
vn 0.0941 0.9717 -0.2168
vn 0.9192 -0.0551 0.3899
vn -0.9973 -0.0733 -0.0103
vn 0.1099 -0.9707 0.2137
vn 0.2209 0.8339 0.5058
vn -0.0281 -0.9859 -0.1649
vn -0.5000 -0.1244 0.8570
vn -0.4986 0.0469 -0.8655
vn 0.4999 0.1354 -0.8554
vn -0.0000 0.9903 0.1392
vn 0.9973 -0.0733 -0.0103
vn 0.4986 -0.1935 0.8449
vn 0.0046 -0.9891 -0.1471
vn -0.2792 -0.9063 0.3173
vn -0.0158 -0.0066 0.9999
vn 0.0444 -0.9986 0.0277
vn 0.0779 -0.9958 -0.0484
vn 0.6773 -0.6981 0.2321
vn -0.8858 -0.4556 0.0886
vn -0.8861 -0.3513 -0.3025
vn 0.2940 -0.3602 -0.8853
vn 0.8838 -0.3577 0.3015
vn -0.0178 0.9988 -0.0452
vn -0.0957 0.9952 -0.0200
vn -0.0018 0.9897 0.1434
vn 0.2032 0.9791 0.0026
vn -0.0181 0.9997 -0.0185
vn -0.2934 -0.3662 0.8831
vn 0.0239 -0.9996 -0.0119
vn -0.8726 0.1772 0.4553
vn 0.7726 -0.3700 -0.5160
vn -0.4739 -0.3781 0.7953
vn 0.4420 -0.2392 -0.8645
vn 0.3741 0.2107 0.9031
vn 0.9389 0.1772 0.2951
vn -0.9111 -0.3700 -0.1814
vn 0.8974 -0.3781 -0.2272
vn -0.9359 0.1804 0.3026
vn 0.2951 0.1772 -0.9389
vn -0.1183 -0.4634 0.8782
vn -0.2803 -0.3865 -0.8787
vn -0.7953 -0.3781 -0.4739
vn 0.6500 -0.5916 0.4769
vn -0.1914 -0.1392 0.9716
vn 0.9141 0.0570 -0.4014
vn 0.0158 -0.0066 -0.9999
vn 0.9041 -0.0572 0.4234
vn -0.9397 -0.2603 0.2218
vn -0.2028 -0.1170 -0.9722
vn 0.9688 -0.1522 -0.1957
vn 0.2483 -0.3558 0.9010
vn -0.0057 -0.9916 -0.1294
vt 0.00000 0.68735
vt 0.00557 0.49791
vt 0.00719 0.01231
vt 0.02416 0.71340
vt 0.02416 0.84122
vt 0.02416 0.94717
vt 0.02914 0.50510
vt 0.02987 0.00485
vt 0.07472 0.51843
vt 0.07472 0.70461
vt 0.07472 0.82980
vt 0.07493 0.85000
vt 0.07493 0.95812
vt 0.07909 0.00538
vt 0.08431 0.79843
vt 0.08550 0.49616
vt 0.08971 0.64265
vt 0.09084 0.55438
vt 0.09384 0.71736
vt 0.10338 0.79038
vt 0.10412 0.89294
vt 0.10418 0.01130
vt 0.10797 0.96840
vt 0.11913 0.51515
vt 0.11913 0.64265
vt 0.12096 0.57890
vt 0.12958 0.59809
vt 0.13593 0.51795
vt 0.13609 0.41186
vt 0.13839 0.00687
vt 0.14730 0.66288
vt 0.14730 0.84889
vt 0.16191 0.60961
vt 0.16427 0.52519
vt 0.16427 0.59177
vt 0.16891 0.44613
vt 0.16891 0.64437
vt 0.17418 0.46331
vt 0.17786 0.88574
vt 0.18150 0.96127
vt 0.19616 0.46856
vt 0.21894 0.67259
vt 0.22191 0.43964
vt 0.22191 0.61913
vt 0.22684 0.65316
vt 0.22684 0.85860
vt 0.24653 0.63297
vt 0.24840 0.80915
vt 0.25118 0.55391
vt 0.25753 0.48155
vt 0.26388 0.55788
vt 0.27634 0.71736
vt 0.28587 0.48102
vt 0.28587 0.56313
vt 0.28587 0.79843
vt 0.29773 0.41373
vt 0.30001 0.00876
vt 0.31506 0.69671
vt 0.31506 0.75016
vt 0.31506 0.82829
vt 0.31506 0.87614
vt 0.31506 0.99585
vt 0.31740 0.93599
vt 0.32154 0.41082
vt 0.32383 0.00674
vt 0.34223 0.43223
vt 0.34481 0.45129
vt 0.34481 0.70225
vt 0.37403 0.44547
vt 0.37403 0.69643
vt 0.38145 0.71109
vt 0.38145 0.86735
vt 0.38265 0.42844
vt 0.38265 0.61524
vt 0.38973 0.62402
vt 0.39838 0.70046
vt 0.41772 0.98804
vt 0.41873 0.90997
vt 0.43373 0.96337
vt 0.44660 0.89174
vt 0.44749 0.87788
vt 0.44783 0.75015
vt 0.44783 0.82828
vt 0.45676 0.81382
vt 0.45700 0.71109
vt 0.45725 0.70046
vt 0.45742 0.59815
vt 0.45742 0.62402
vt 0.46186 0.88350
vt 0.47133 0.96414
vt 0.48321 0.41259
vt 0.48550 0.00858
vt 0.48593 0.77425
vt 0.48643 0.83856
vt 0.48648 0.71109
vt 0.50060 0.70683
vt 0.50060 0.75734
vt 0.50060 0.97048
vt 0.50535 0.03714
vt 0.50994 0.45073
vt 0.51139 0.42832
vt 0.51251 0.00899
vt 0.51528 0.41406
vt 0.52598 0.89537
vt 0.53169 0.70974
vt 0.53189 0.71889
vt 0.53315 0.03530
vt 0.53701 0.79578
vt 0.53709 0.44162
vt 0.53732 0.87138
vt 0.54019 0.41911
vt 0.54944 0.00655
vt 0.56249 0.03230
vt 0.56522 0.41076
vt 0.56634 0.66061
vt 0.56983 0.98894
vt 0.58441 0.69072
vt 0.59478 0.64888
vt 0.59620 0.87138
vt 0.59959 0.71889
vt 0.60214 0.90968
vt 0.60472 0.79578
vt 0.61186 0.69485
vt 0.62156 0.01235
vt 0.62244 0.43428
vt 0.62689 0.88663
vt 0.63468 0.40364
vt 0.63595 0.96400
vt 0.63601 0.75734
vt 0.64229 0.69883
vt 0.64288 0.89146
vt 0.64815 0.42029
vt 0.65853 0.02077
vt 0.66201 0.44056
vt 0.67659 0.40249
vt 0.67844 0.44836
vt 0.67844 0.78833
vt 0.67844 0.91192
vt 0.67926 0.84926
vt 0.68259 0.50197
vt 0.69409 0.40860
vt 0.70082 0.37890
vt 0.70954 0.58974
vt 0.71353 0.41738
vt 0.72324 0.17709
vt 0.72324 0.18587
vt 0.72324 0.34305
vt 0.72616 0.39792
vt 0.73418 0.36452
vt 0.74167 0.53223
vt 0.74352 0.26373
vt 0.74398 0.60888
vt 0.74565 0.78758
vt 0.74602 0.18643
vt 0.74602 0.34360
vt 0.76630 0.26428
vt 0.77404 0.60009
vt 0.77492 0.18587
vt 0.77492 0.34312
vt 0.77578 0.41738
vt 0.77718 0.26449
vt 0.78805 0.93292
vt 0.78963 0.00000
vt 0.78963 0.17433
vt 0.78984 0.80067
vt 0.79172 0.86624
vt 0.80433 0.18587
vt 0.80433 0.34312
vt 0.80659 0.26449
vt 0.80807 0.91138
vt 0.80833 0.84859
vt 0.80852 0.53360
vt 0.81119 0.78839
vt 0.81521 0.34308
vt 0.81528 0.18587
vt 0.81588 0.26518
vt 0.82873 0.44836
vt 0.83130 0.61125
vt 0.83130 0.74454
vt 0.84136 0.49216
vt 0.84318 0.67727
vt 0.84469 0.34308
vt 0.84476 0.18587
vt 0.84537 0.26518
vt 0.84998 0.41738
vt 0.85398 0.25019
vt 0.85602 0.17709
vt 0.86468 0.00803
vt 0.86635 0.09341
vt 0.87043 0.18587
vt 0.87043 0.31331
vt 0.87387 0.54058
vt 0.87677 0.25074
vt 0.89321 0.18643
vt 0.89321 0.31387
vt 0.90200 0.63475
vt 0.90519 0.35719
vt 0.90568 0.19078
vt 0.90645 0.27507
vt 0.90855 0.70046
vt 0.91687 0.93283
vt 0.91693 0.79951
vt 0.91927 0.19076
vt 0.92034 0.86672
vt 0.92240 0.71979
vt 0.92313 0.75939
vt 0.92599 0.51458
vt 0.92945 0.66518
vt 0.93551 0.36576
vt 0.93674 0.26543
vt 0.94534 0.43937
vt 0.94619 0.77414
vt 0.95182 0.48006
vt 0.96096 0.29405
vt 0.96338 0.37948
vt 0.96558 0.25313
vt 0.96722 0.11968
vt 0.96727 0.00000
vt 0.96857 0.70707
vt 0.97264 0.06058
vt 0.97971 0.43109
vt 0.98083 0.62444
vt 0.98131 0.75446
vt 0.98164 0.47302
vt 0.98445 0.69036
s 0
usemtl RPG_iron
f 11/203/3 10/216/3 9/210/3
f 11/203/8 9/210/8 8/198/8
f 11/80/4 12/90/4 10/79/4
f 12/90/9 11/80/9 6/89/9
f 13/67/11 17/66/11 14/69/11
f 14/117/17 17/115/17 18/118/17
f 15/70/34 13/67/34 14/69/34
f 15/70/84 19/68/84 13/67/84
f 16/125/13 20/132/13 15/134/13
f 16/125/35 14/130/35 18/123/35
f 16/125/37 15/134/37 14/130/37
f 18/105/16 21/100/16 16/109/16
f 19/148/12 15/141/12 20/142/12
f 19/148/14 20/142/14 21/149/14
f 2/64/32 4/92/32 3/91/32
f 2/64/81 1/65/81 4/92/81
f 21/100/10 18/105/10 17/96/10
f 21/100/15 20/101/15 16/109/15
f 21/58/36 13/67/36 19/68/36
f 21/58/85 17/66/85 13/67/85
f 22/157/42 32/150/42 33/172/42
f 22/157/88 30/143/88 32/150/88
f 24/138/45 23/166/45 25/162/45
f 24/138/94 22/139/94 23/166/94
f 25/177/89 23/180/89 33/172/89
f 25/177/93 33/172/93 31/140/93
f 25/179/44 26/181/44 24/200/44
f 27/196/38 26/181/38 28/178/38
f 27/196/86 24/200/86 26/181/86
f 27/21/46 22/40/46 24/23/46
f 27/21/95 30/39/95 22/40/95
f 28/144/92 26/160/92 25/177/92
f 28/202/41 29/204/41 27/171/41
f 3/29/112 4/30/112 1/57/112
f 3/29/65 1/57/65 2/56/65
f 30/170/40 29/204/40 31/201/40
f 30/170/87 27/171/87 29/204/87
f 31/140/19 28/144/19 25/177/19
f 31/140/43 32/150/43 30/143/43
f 31/140/91 29/136/91 28/144/91
f 33/165/39 23/166/39 22/139/39
f 33/172/90 32/150/90 31/140/90
f 35/151/47 39/155/47 37/147/47
f 35/151/96 34/156/96 39/155/96
f 35/28/19 54/33/19 53/27/19
f 35/28/48 39/41/48 36/34/48
f 35/28/97 38/38/97 39/41/97
f 36/20/18 34/15/18 55/19/18
f 36/20/18 39/32/18 34/15/18
f 37/168/49 40/161/49 41/169/49
f 37/168/98 39/159/98 40/161/98
f 37/36/19 38/38/19 35/28/19
f 39/32/18 44/48/18 40/46/18
f 39/85/50 41/93/50 44/84/50
f 39/85/99 38/95/99 41/93/99
f 41/169/100 40/161/100 42/158/100
f 41/169/51 42/158/51 43/167/51
f 41/43/19 38/38/19 37/36/19
f 43/191/102 46/186/102 47/193/102
f 43/191/53 47/193/53 44/195/53
f 43/50/101 42/53/101 47/54/101
f 43/50/19 45/51/19 46/49/19
f 43/50/52 47/54/52 45/51/52
f 43/94/20 44/84/20 41/93/20
f 44/48/18 42/55/18 40/46/18
f 45/51/103 47/54/103 48/47/103
f 45/51/54 48/47/54 49/44/54
f 46/186/104 49/190/104 50/194/104
f 46/186/55 50/194/55 47/193/55
f 47/52/18 42/55/18 44/48/18
f 49/17/106 54/18/106 52/26/106
f 49/17/57 52/26/57 50/25/57
f 49/182/105 48/174/105 52/176/105
f 49/182/56 52/176/56 51/184/56
f 49/44/19 46/49/19 45/51/19
f 49/44/19 51/37/19 54/33/19
f 5/205/82 7/219/82 9/223/82
f 5/209/6 6/214/6 7/215/6
f 50/42/18 48/45/18 47/52/18
f 51/184/107 52/176/107 55/175/107
f 51/184/58 55/175/58 53/183/58
f 52/31/18 48/45/18 50/42/18
f 53/146/108 55/154/108 34/156/108
f 53/146/59 34/156/59 35/151/59
f 53/27/19 54/33/19 51/37/19
f 54/18/60 55/24/60 52/26/60
f 55/35/109 54/33/109 35/28/109
f 55/35/61 35/28/61 36/34/61
f 6/214/1 5/209/1 12/197/1
f 6/89/5 11/80/5 8/81/5
f 8/131/7 7/128/7 6/126/7
f 8/198/2 9/210/2 7/199/2
f 9/223/33 12/206/33 5/205/33
f 9/223/83 10/212/83 12/206/83
usemtl RPG_timber
f 57/113/71 61/107/71 56/112/71
f 58/127/21 56/124/21 59/133/21
f 58/7/110 64/2/110 57/3/110
f 58/7/62 57/3/62 56/8/62
f 59/102/63 56/112/63 61/107/63
f 60/135/66 58/127/66 59/133/66
f 60/16/22 59/14/22 62/22/22
f 60/221/72 63/224/72 58/211/72
f 61/107/113 57/113/113 64/114/113
f 61/107/68 64/114/68 63/111/68
f 62/99/111 61/107/111 63/111/111
f 62/99/64 63/111/64 60/103/64
f 62/99/67 59/102/67 61/107/67
f 64/213/70 58/211/70 63/224/70
usemtl RPG_thatch
f 66/63/117 65/78/117 73/77/117
f 66/63/73 67/61/73 65/78/73
f 66/63/78 73/77/78 74/62/78
f 67/120/76 66/129/76 74/122/76
f 67/120/76 74/122/76 71/97/76
f 68/121/118 70/116/118 73/98/118
f 68/121/79 73/98/79 65/104/79
f 68/86/114 65/76/114 67/75/114
f 68/86/69 67/75/69 69/88/69
f 71/220/115 70/189/115 68/188/115
f 71/220/74 68/188/74 69/218/74
f 71/220/75 72/217/75 70/189/75
f 71/97/76 69/106/76 67/120/76
f 73/119/116 70/110/116 72/108/116
f 73/119/77 72/108/77 74/122/77
f 74/122/76 72/108/76 71/97/76
usemtl RPG_flame
f 75/164/23 81/163/23 76/187/23
f 75/72/18 76/60/18 77/59/18
f 75/72/18 77/59/18 79/82/18
f 76/74/24 81/73/24 77/87/24
f 77/137/25 81/152/25 78/153/25
f 77/59/18 78/71/18 79/82/18
f 78/153/26 81/152/26 79/173/26
f 79/1/27 81/9/27 80/10/27
f 79/82/18 80/83/18 75/72/18
f 80/145/28 81/163/28 75/164/28
f 82/208/80 83/222/80 84/225/80
f 82/5/29 85/4/29 83/11/29
f 83/192/30 85/185/30 84/207/30
f 84/6/31 85/12/31 82/13/31
