# Blender 4.0.2
# www.blender.org
mtllib wall_sconce.mtl
o wall_sconce
v 0.051000 0.040000 0.009000
v 0.051000 0.049000 0.000000
v 0.060000 0.049000 0.009000
v 0.051000 0.311000 0.000000
v 0.051000 0.320000 0.009000
v 0.060000 0.311000 0.009000
v 0.051000 0.040000 0.011000
v 0.060000 0.049000 0.011000
v 0.051000 0.049000 0.020000
v 0.051000 0.320000 0.011000
v 0.051000 0.311000 0.020000
v 0.060000 0.311000 0.011000
v -0.051000 0.040000 0.009000
v -0.060000 0.049000 0.009000
v -0.051000 0.049000 0.000000
v -0.051000 0.320000 0.009000
v -0.051000 0.311000 0.000000
v -0.060000 0.311000 0.009000
v -0.051000 0.040000 0.011000
v -0.051000 0.049000 0.020000
v -0.060000 0.049000 0.011000
v -0.051000 0.320000 0.011000
v -0.060000 0.311000 0.011000
v -0.051000 0.311000 0.020000
v 0.000000 0.000000 0.048072
v 0.005251 0.005807 0.050226
v -0.005251 0.005807 0.050226
v -0.000000 0.060000 0.030072
v -0.005251 0.054193 0.035711
v 0.005251 0.054193 0.035711
v -0.019981 0.000000 0.036536
v -0.019221 0.005807 0.042160
v -0.024472 0.005807 0.033066
v -0.004392 0.060000 0.027536
v -0.011901 0.054193 0.025808
v -0.006650 0.054193 0.034903
v -0.019981 0.000000 0.013464
v -0.024472 0.005807 0.016934
v -0.019221 0.005807 0.007840
v -0.004392 0.060000 0.022464
v -0.006650 0.054193 0.015097
v -0.011901 0.054193 0.024192
v 0.000000 0.000000 0.001928
v -0.005251 0.005807 -0.000226
v 0.005251 0.005807 -0.000226
v 0.000000 0.060000 0.019928
v 0.005251 0.054193 0.014289
v -0.005251 0.054193 0.014289
v 0.019981 0.000000 0.013464
v 0.019221 0.005807 0.007840
v 0.024472 0.005807 0.016934
v 0.004392 0.060000 0.022464
v 0.011901 0.054193 0.024192
v 0.006650 0.054193 0.015097
v 0.019981 0.000000 0.036536
v 0.024472 0.005807 0.033066
v 0.019221 0.005807 0.042160
v 0.004392 0.060000 0.027536
v 0.006650 0.054193 0.034903
v 0.011901 0.054193 0.025808
v 0.008000 0.153785 0.032487
v 0.008000 0.161490 0.017366
v 0.020000 0.165198 0.028779
v 0.008000 0.176707 0.012422
v 0.008000 0.191828 0.020127
v 0.020000 0.180415 0.023835
v 0.008000 0.208172 0.199873
v 0.020000 0.219585 0.196165
v 0.008000 0.223293 0.207578
v 0.008000 0.246215 0.187513
v 0.008000 0.238510 0.202634
v 0.020000 0.234802 0.191221
v -0.008000 0.153785 0.032487
v -0.020000 0.165198 0.028779
v -0.008000 0.161490 0.017366
v -0.008000 0.191828 0.020127
v -0.008000 0.176707 0.012422
v -0.020000 0.180415 0.023835
v -0.008000 0.208172 0.199873
v -0.008000 0.223293 0.207578
v -0.020000 0.219585 0.196165
v -0.008000 0.246215 0.187513
v -0.020000 0.234802 0.191221
v -0.008000 0.238510 0.202634
v 0.000000 0.225000 0.229176
v 0.000000 0.234611 0.242990
v -0.000000 0.315000 0.257176
v -0.000000 0.305389 0.265010
v -0.020631 0.225000 0.220631
v -0.030399 0.234611 0.230399
v -0.040430 0.315000 0.240430
v -0.045969 0.305389 0.245969
v -0.029176 0.225000 0.200000
v -0.042990 0.234611 0.200000
v -0.057176 0.315000 0.200000
v -0.065010 0.305389 0.200000
v -0.020631 0.225000 0.179369
v -0.030399 0.234611 0.169601
v -0.040430 0.315000 0.159570
v -0.045969 0.305389 0.154031
v 0.000000 0.225000 0.170824
v 0.000000 0.234611 0.157010
v 0.000000 0.315000 0.142824
v 0.000000 0.305389 0.134990
v 0.020631 0.225000 0.179369
v 0.030399 0.234611 0.169601
v 0.040430 0.315000 0.159570
v 0.045969 0.305389 0.154031
v 0.029176 0.225000 0.200000
v 0.042990 0.234611 0.200000
v 0.057176 0.315000 0.200000
v 0.065010 0.305389 0.200000
v 0.020631 0.225000 0.220631
v 0.030399 0.234611 0.230399
v 0.040430 0.315000 0.240430
v 0.045969 0.305389 0.245969
v -0.074000 0.300000 0.200000
v -0.074000 0.320000 0.200000
v -0.060000 0.320000 0.200000
v -0.060000 0.300000 0.200000
v -0.052326 0.300000 0.252326
v -0.052326 0.320000 0.252326
v -0.042426 0.320000 0.242426
v -0.042426 0.300000 0.242426
v -0.000000 0.300000 0.274000
v -0.000000 0.320000 0.274000
v -0.000000 0.320000 0.260000
v -0.000000 0.300000 0.260000
v 0.052326 0.300000 0.252326
v 0.052326 0.320000 0.252326
v 0.042426 0.320000 0.242426
v 0.042426 0.300000 0.242426
v 0.074000 0.300000 0.200000
v 0.074000 0.320000 0.200000
v 0.060000 0.320000 0.200000
v 0.060000 0.300000 0.200000
v 0.052326 0.300000 0.147674
v 0.052326 0.320000 0.147674
v 0.042426 0.320000 0.157574
v 0.042426 0.300000 0.157574
v 0.000000 0.300000 0.126000
v 0.000000 0.320000 0.126000
v 0.000000 0.320000 0.140000
v 0.000000 0.300000 0.140000
v -0.052326 0.300000 0.147674
v -0.052326 0.320000 0.147674
v -0.042426 0.320000 0.157574
v -0.042426 0.300000 0.157574
v 0.000000 0.169322 0.202940
v 0.006928 0.176515 0.209240
v -0.006928 0.176515 0.209240
v -0.000000 0.506013 0.250259
v -0.006928 0.497362 0.254332
v 0.006928 0.497362 0.254332
v -0.014517 0.170488 0.194640
v -0.015588 0.177211 0.204289
v -0.022517 0.178881 0.192405
v -0.014517 0.507179 0.241959
v -0.022517 0.499728 0.237497
v -0.015588 0.498057 0.249381
v -0.014517 0.172821 0.178041
v -0.022517 0.180272 0.182503
v -0.015588 0.181943 0.170619
v -0.014517 0.509512 0.225360
v -0.015588 0.502789 0.215711
v -0.022517 0.501119 0.227595
v -0.000000 0.173987 0.169741
v -0.006928 0.182638 0.165668
v 0.006928 0.182638 0.165668
v 0.000000 0.510678 0.217060
v 0.006928 0.503485 0.210760
v -0.006928 0.503485 0.210760
v 0.014517 0.172821 0.178041
v 0.015588 0.181943 0.170619
v 0.022517 0.180272 0.182503
v 0.014517 0.509512 0.225360
v 0.022517 0.501119 0.227595
v 0.015588 0.502789 0.215711
v 0.014517 0.170488 0.194640
v 0.022517 0.178881 0.192405
v 0.015588 0.177211 0.204289
v 0.014517 0.507179 0.241959
v 0.015588 0.498057 0.249381
v 0.022517 0.499728 0.237497
v 0.000000 0.449774 0.259740
v 0.000000 0.518257 0.275423
v -0.034641 0.452557 0.239934
v -0.039837 0.521458 0.252647
v -0.034641 0.458124 0.200324
v -0.039837 0.527860 0.207095
v 0.000000 0.460908 0.180518
v 0.000000 0.531061 0.184319
v 0.034641 0.458124 0.200324
v 0.039837 0.527860 0.207095
v 0.034641 0.452557 0.239934
v 0.039837 0.521458 0.252647
v 0.000000 0.480000 0.282000
v -0.045033 0.480000 0.256000
v -0.045033 0.480000 0.204000
v 0.000000 0.480000 0.178000
v 0.045033 0.480000 0.204000
v 0.045033 0.480000 0.256000
v 0.000000 0.600000 0.230000
v -0.015955 0.488773 0.278839
v -0.049853 0.494688 0.271114
v -0.055330 0.484691 0.237740
v -0.024816 0.472598 0.224839
v -0.000481 0.475121 0.250240
v -0.010713 0.556826 0.227446
vn -0.0000 -0.0000 -1.0000
vn -1.0000 -0.0000 -0.0000
vn -0.0000 1.0000 -0.0000
vn 1.0000 -0.0000 -0.0000
vn -0.0000 -0.0000 1.0000
vn 0.5773 -0.5774 -0.5774
vn 0.5773 0.5774 -0.5774
vn 0.5774 -0.5773 0.5774
vn 0.5773 0.5774 0.5774
vn -0.5774 -0.5773 -0.5774
vn -0.5773 0.5774 -0.5774
vn -0.5774 -0.5774 0.5774
vn -0.5773 0.5774 0.5774
vn 0.7071 -0.7071 -0.0000
vn 0.7071 -0.0000 -0.7071
vn 0.7071 0.7071 -0.0000
vn 0.7071 -0.0000 0.7071
vn -0.0000 -0.7071 0.7071
vn -0.0000 0.7071 0.7071
vn -0.7071 -0.0000 0.7071
vn -0.7071 -0.7071 -0.0000
vn -0.7071 0.7071 -0.0000
vn -0.7071 -0.0000 -0.7071
vn -0.0000 -0.7071 -0.7071
vn -0.0000 0.7071 -0.7071
vn -0.0000 -1.0000 -0.0000
vn 0.4839 0.2515 0.8382
vn -0.4839 0.2515 -0.8382
vn 0.4839 0.2515 -0.8382
vn 0.9679 0.2515 -0.0000
vn -0.9679 0.2515 -0.0000
vn -0.4839 0.2515 0.8382
vn -0.0000 -0.3478 0.9376
vn -0.0000 0.6966 0.7174
vn -0.8119 -0.3478 0.4688
vn -0.6213 0.6966 0.3587
vn -0.8119 -0.3478 -0.4688
vn -0.6213 0.6966 -0.3587
vn -0.0000 -0.3478 -0.9376
vn -0.0000 0.6966 -0.7174
vn 0.8119 -0.3478 -0.4688
vn 0.6213 0.6966 -0.3587
vn 0.8119 -0.3478 0.4688
vn 0.6213 0.6966 0.3587
vn -0.3955 -0.6118 0.6851
vn -0.3059 0.7910 0.5298
vn -0.0000 0.2873 0.9578
vn -0.8295 0.2873 0.4789
vn -0.7910 -0.6118 -0.0000
vn -0.6118 0.7910 -0.0000
vn -0.8295 0.2873 -0.4789
vn -0.3955 -0.6118 -0.6851
vn -0.3059 0.7910 -0.5298
vn -0.0000 0.2873 -0.9578
vn 0.3955 -0.6118 -0.6851
vn 0.3059 0.7910 -0.5298
vn 0.8295 0.2873 -0.4789
vn 0.7910 -0.6118 -0.0000
vn 0.6118 0.7910 -0.0000
vn 0.8295 0.2873 0.4789
vn 0.3955 -0.6118 0.6851
vn 0.3059 0.7910 0.5298
vn -0.0000 -0.3090 -0.9511
vn -0.0000 0.9511 -0.3090
vn -0.0000 0.3090 0.9511
vn 0.5773 -0.7275 -0.3707
vn 0.5774 0.3707 -0.7275
vn 0.5773 -0.3707 0.7275
vn 0.5773 0.7275 0.3707
vn -0.5774 -0.7275 -0.3707
vn -0.5774 0.3707 -0.7275
vn -0.5773 -0.3707 0.7275
vn -0.5773 0.7275 0.3707
vn 0.7071 -0.6725 0.2185
vn 0.7071 -0.2185 -0.6725
vn 0.7071 0.6725 -0.2185
vn 0.7071 0.2185 0.6725
vn -0.0000 -0.4540 0.8910
vn -0.0000 0.8910 0.4540
vn -0.7071 0.2185 0.6725
vn -0.7071 -0.6725 0.2185
vn -0.7071 0.6725 -0.2185
vn -0.7071 -0.2185 -0.6725
vn -0.0000 -0.8910 -0.4540
vn -0.0000 0.4540 -0.8910
vn -0.0000 -0.9511 0.3090
vn 0.3678 -0.2762 0.8879
vn -0.8879 -0.2762 -0.3678
vn -0.3678 -0.2762 -0.8879
vn 0.3678 -0.2762 -0.8879
vn 0.8879 -0.2762 -0.3678
vn 0.8879 -0.2762 0.3678
vn -0.8879 -0.2762 0.3678
vn -0.3678 -0.2762 0.8879
vn -0.2302 -0.7988 0.5558
vn -0.3057 0.6016 0.7380
vn -0.5558 -0.7988 0.2302
vn -0.7380 0.6016 0.3057
vn -0.5558 -0.7988 -0.2302
vn -0.7380 0.6016 -0.3057
vn -0.2302 -0.7988 -0.5558
vn -0.3057 0.6016 -0.7380
vn 0.2302 -0.7988 -0.5558
vn 0.3057 0.6016 -0.7380
vn 0.5558 -0.7988 -0.2302
vn 0.7380 0.6016 -0.3057
vn 0.5558 -0.7988 0.2302
vn 0.7380 0.6016 0.3057
vn 0.2302 -0.7988 0.5558
vn 0.3057 0.6016 0.7380
vn -0.9239 -0.0000 0.3827
vn 0.9239 -0.0000 -0.3827
vn -0.3827 -0.0000 0.9239
vn 0.3827 -0.0000 -0.9239
vn 0.3827 -0.0000 0.9239
vn -0.3827 -0.0000 -0.9239
vn 0.9239 -0.0000 0.3827
vn -0.9239 -0.0000 -0.3827
vn 0.5000 -0.1205 0.8576
vn -0.5000 0.1205 -0.8576
vn 0.5000 0.1205 -0.8576
vn -0.0000 0.9903 0.1392
vn -0.5000 -0.1205 0.8576
vn -0.0000 -0.6589 0.7523
vn -0.0000 0.4260 0.9047
vn -0.7246 -0.6006 0.3380
vn -0.7246 0.4842 0.4905
vn -0.7246 -0.4842 -0.4905
vn -0.7246 0.6006 -0.3380
vn -0.0000 -0.4260 -0.9047
vn -0.0000 0.6589 -0.7523
vn 0.7246 -0.4842 -0.4905
vn 0.7246 0.6006 -0.3380
vn 0.7246 -0.6006 0.3380
vn 0.7246 0.4842 0.4905
vn -0.3536 -0.7855 0.5080
vn -0.3536 0.6150 0.7048
vn -0.0000 -0.1392 0.9903
vn -0.8660 -0.0696 0.4951
vn -0.7071 -0.7002 -0.0984
vn -0.7071 0.7002 0.0984
vn -0.8660 0.0696 -0.4951
vn -0.3536 -0.6150 -0.7048
vn -0.3536 0.7854 -0.5080
vn -0.0000 0.1392 -0.9903
vn 0.3536 -0.6150 -0.7048
vn 0.3535 0.7855 -0.5080
vn 0.8660 0.0696 -0.4951
vn 0.7071 -0.7002 -0.0984
vn 0.7071 0.7002 0.0984
vn 0.8660 -0.0696 0.4951
vn 0.3535 -0.7855 0.5080
vn 0.3536 0.6150 0.7048
vn -0.0000 -0.9903 -0.1392
vn -0.4986 -0.1935 0.8449
vn -0.9973 -0.0733 -0.0103
vn -0.4986 0.0469 -0.8655
vn 0.4986 0.0469 -0.8655
vn 0.9973 -0.0733 -0.0103
vn 0.4986 -0.1935 0.8449
vn -0.4681 0.3514 0.8108
vn -0.9362 0.3514 -0.0000
vn -0.4681 0.3514 -0.8108
vn 0.4681 0.3514 -0.8108
vn 0.9362 0.3514 -0.0000
vn 0.4681 0.3514 0.8108
vn -0.0752 0.6046 0.7929
vn -0.8514 0.5242 -0.0173
vn -0.3579 0.0887 -0.9296
vn -0.2322 -0.9206 0.3139
vn 0.7234 -0.1000 -0.6831
vn 0.8981 0.2189 0.3814
vn -0.3535 0.7855 -0.5080
vn 0.3536 0.7854 -0.5080
vn 0.3536 -0.7854 0.5080
vt 0.00000 0.01202
vt 0.00000 0.49768
vt 0.00000 0.68735
vt 0.01277 0.01253
vt 0.01277 0.49820
vt 0.02298 0.00000
vt 0.02298 0.50965
vt 0.02416 0.71340
vt 0.02416 0.84122
vt 0.02416 0.94717
vt 0.03320 0.01253
vt 0.03320 0.49820
vt 0.04596 0.01202
vt 0.04596 0.49768
vt 0.05458 0.49529
vt 0.06373 0.01180
vt 0.06517 0.49242
vt 0.06652 0.50635
vt 0.07472 0.51843
vt 0.07472 0.70461
vt 0.07472 0.82980
vt 0.07493 0.85000
vt 0.07493 0.95812
vt 0.07665 0.01061
vt 0.07810 0.49123
vt 0.08431 0.71333
vt 0.08431 0.79843
vt 0.08431 0.90235
vt 0.08431 0.95178
vt 0.08666 0.00000
vt 0.08818 0.50436
vt 0.08971 0.51515
vt 0.08971 0.64265
vt 0.09155 0.57890
vt 0.09708 0.01062
vt 0.09852 0.49124
vt 0.10334 0.91030
vt 0.10334 0.94385
vt 0.10338 0.72138
vt 0.10338 0.79038
vt 0.10931 0.50637
vt 0.10968 0.01182
vt 0.11113 0.49244
vt 0.11861 0.86739
vt 0.11861 0.98674
vt 0.11913 0.51515
vt 0.11913 0.64265
vt 0.12096 0.49532
vt 0.12096 0.57890
vt 0.12662 0.88658
vt 0.12662 0.96758
vt 0.12958 0.01351
vt 0.12958 0.40710
vt 0.12958 0.51597
vt 0.12958 0.59809
vt 0.14228 0.51994
vt 0.14228 0.58652
vt 0.14284 0.00000
vt 0.14284 0.42062
vt 0.14313 0.01325
vt 0.14313 0.40683
vt 0.14335 0.65316
vt 0.14335 0.85861
vt 0.15124 0.67259
vt 0.15124 0.83917
vt 0.15954 0.88658
vt 0.15954 0.96758
vt 0.16427 0.52519
vt 0.16427 0.59177
vt 0.16711 0.86739
vt 0.16711 0.98674
vt 0.16891 0.44613
vt 0.16891 0.64437
vt 0.17418 0.46331
vt 0.17418 0.62405
vt 0.18281 0.91030
vt 0.18281 0.94385
vt 0.19616 0.46856
vt 0.20141 0.90235
vt 0.20141 0.95178
vt 0.21003 0.96397
vt 0.21717 0.86739
vt 0.21894 0.67259
vt 0.21894 0.83917
vt 0.21928 0.44980
vt 0.21928 0.61054
vt 0.22455 0.42947
vt 0.22455 0.62772
vt 0.22684 0.65316
vt 0.22684 0.85860
vt 0.24653 0.63297
vt 0.25118 0.48733
vt 0.25118 0.55391
vt 0.26062 0.96397
vt 0.26388 0.47576
vt 0.26388 0.55788
vt 0.26681 0.72138
vt 0.26681 0.79038
vt 0.28587 0.48102
vt 0.28587 0.56313
vt 0.28587 0.71333
vt 0.28587 0.79843
vt 0.29318 0.00007
vt 0.29318 0.42069
vt 0.29347 0.01332
vt 0.29347 0.40690
vt 0.30645 0.01359
vt 0.30645 0.40718
vt 0.31506 0.01349
vt 0.31506 0.40617
vt 0.31506 0.44574
vt 0.31506 0.69671
vt 0.31506 0.75016
vt 0.31506 0.82829
vt 0.31506 0.87614
vt 0.31506 0.99585
vt 0.31740 0.93599
vt 0.32833 0.00000
vt 0.32833 0.01253
vt 0.32833 0.40521
vt 0.32833 0.41966
vt 0.33275 0.42855
vt 0.33301 0.45134
vt 0.33301 0.70231
vt 0.35634 0.42844
vt 0.35660 0.45123
vt 0.35660 0.70220
vt 0.37403 0.44547
vt 0.37403 0.69643
vt 0.38145 0.71109
vt 0.38145 0.86735
vt 0.38265 0.42844
vt 0.38265 0.61524
vt 0.38973 0.62402
vt 0.39838 0.70046
vt 0.41772 0.88394
vt 0.41772 0.98804
vt 0.41974 0.93599
vt 0.42836 0.96130
vt 0.43688 0.89214
vt 0.43801 0.89349
vt 0.44157 0.96638
vt 0.44520 0.88038
vt 0.44783 0.75015
vt 0.44783 0.82828
vt 0.44877 0.88463
vt 0.44910 0.87614
vt 0.45122 0.89856
vt 0.45360 0.89856
vt 0.45625 0.88463
vt 0.45645 0.77425
vt 0.45657 0.87614
vt 0.45695 0.83856
vt 0.45700 0.71109
vt 0.45725 0.70046
vt 0.45742 0.59815
vt 0.45742 0.62402
vt 0.46015 0.88038
vt 0.46534 0.96638
vt 0.46720 0.89349
vt 0.46844 0.89214
vt 0.47871 0.00000
vt 0.47871 0.01253
vt 0.47871 0.40521
vt 0.47871 0.41966
vt 0.47893 0.96130
vt 0.48593 0.77425
vt 0.48643 0.83856
vt 0.48648 0.71109
vt 0.49198 0.01349
vt 0.49198 0.40617
vt 0.50060 0.03273
vt 0.50060 0.44909
vt 0.50060 0.70683
vt 0.50060 0.75734
vt 0.50060 0.91057
vt 0.50060 0.97048
vt 0.50726 0.01636
vt 0.50903 0.04055
vt 0.51139 0.42832
vt 0.51528 0.41406
vt 0.51775 0.00163
vt 0.51929 0.45237
vt 0.51929 0.71011
vt 0.52140 0.02946
vt 0.52752 0.04603
vt 0.53008 0.43160
vt 0.53189 0.71889
vt 0.53378 0.41954
vt 0.53701 0.79578
vt 0.53732 0.87138
vt 0.54221 0.04506
vt 0.54238 0.00000
vt 0.54410 0.45163
vt 0.54410 0.70937
vt 0.54602 0.02784
vt 0.54847 0.41857
vt 0.55137 0.88017
vt 0.55137 1.00000
vt 0.55651 0.01311
vt 0.55859 0.68208
vt 0.55861 0.65804
vt 0.55897 0.03725
vt 0.56371 0.69973
vt 0.56374 0.63964
vt 0.56522 0.02846
vt 0.56522 0.41076
vt 0.57384 0.10749
vt 0.57384 0.41835
vt 0.57384 0.44105
vt 0.57384 0.59429
vt 0.57393 0.42734
vt 0.57393 0.60762
vt 0.57678 0.41856
vt 0.57679 0.44105
vt 0.57679 0.59429
vt 0.57688 0.42734
vt 0.57688 0.60762
vt 0.58117 0.68224
vt 0.58118 0.65820
vt 0.58615 0.11708
vt 0.58629 0.69989
vt 0.58632 0.63981
vt 0.58749 0.09808
vt 0.58909 0.11729
vt 0.59043 0.09829
vt 0.59620 0.87138
vt 0.59796 0.00000
vt 0.59959 0.71889
vt 0.60090 0.00021
vt 0.60214 0.90968
vt 0.60214 0.96960
vt 0.60323 0.68199
vt 0.60324 0.10957
vt 0.60324 0.65795
vt 0.60472 0.79578
vt 0.61075 0.96142
vt 0.61186 0.01568
vt 0.61186 0.43749
vt 0.61186 0.69485
vt 0.61841 0.02410
vt 0.62001 0.00000
vt 0.62111 0.89192
vt 0.62235 0.89325
vt 0.62433 0.96643
vt 0.62577 0.41738
vt 0.62643 0.44183
vt 0.62643 0.69919
vt 0.62657 0.40114
vt 0.62941 0.88017
vt 0.63099 0.01412
vt 0.63329 0.88436
vt 0.63542 0.03116
vt 0.63593 0.89826
vt 0.63601 0.75734
vt 0.63831 0.89826
vt 0.64034 0.42173
vt 0.64076 0.88436
vt 0.64358 0.40820
vt 0.64436 0.88017
vt 0.64810 0.96643
vt 0.65014 0.03156
vt 0.65127 0.44253
vt 0.65127 0.69989
vt 0.65154 0.89325
vt 0.65268 0.89192
vt 0.65565 0.01479
vt 0.65829 0.40860
vt 0.65889 0.41831
vt 0.66133 0.96142
vt 0.66843 0.02546
vt 0.66932 0.00134
vt 0.66982 0.43912
vt 0.66982 0.69648
vt 0.67659 0.01743
vt 0.67659 0.40249
vt 0.67844 0.44836
vt 0.67844 0.78833
vt 0.67844 0.82057
vt 0.67844 0.91192
vt 0.67916 0.50593
vt 0.67975 0.86624
vt 0.68521 0.01152
vt 0.68521 0.37562
vt 0.68742 0.57680
vt 0.69107 0.49216
vt 0.69409 0.40860
vt 0.69802 0.00020
vt 0.69929 0.01919
vt 0.70096 0.00000
vt 0.70124 0.35799
vt 0.70124 0.39077
vt 0.70223 0.01899
vt 0.71168 0.32320
vt 0.71353 0.41738
vt 0.71462 0.00956
vt 0.71462 0.32300
vt 0.71728 0.37314
vt 0.71814 0.40673
vt 0.72324 0.17709
vt 0.72324 0.18587
vt 0.72324 0.34305
vt 0.72723 0.60009
vt 0.73418 0.36452
vt 0.73418 0.38910
vt 0.73936 0.54116
vt 0.74352 0.26373
vt 0.74398 0.60888
vt 0.74402 0.52314
vt 0.74565 0.78758
vt 0.74602 0.18643
vt 0.74602 0.34360
vt 0.76630 0.26428
vt 0.77404 0.60009
vt 0.77492 0.18587
vt 0.77492 0.34312
vt 0.77578 0.41738
vt 0.77718 0.26449
vt 0.78415 0.79717
vt 0.78415 0.93531
vt 0.78613 0.86624
vt 0.78963 0.00000
vt 0.78963 0.17433
vt 0.79770 0.80550
vt 0.79770 0.92699
vt 0.79945 0.86624
vt 0.80433 0.18587
vt 0.80433 0.34312
vt 0.80627 0.52314
vt 0.80659 0.26449
vt 0.80807 0.91138
vt 0.80811 0.82005
vt 0.80846 0.86613
vt 0.81015 0.54116
vt 0.81119 0.78839
vt 0.81521 0.34308
vt 0.81528 0.18587
vt 0.81588 0.26518
vt 0.81981 0.61712
vt 0.81981 0.73856
vt 0.82873 0.44836
vt 0.83548 0.67727
vt 0.83594 0.60888
vt 0.83594 0.74696
vt 0.84136 0.49216
vt 0.84469 0.34308
vt 0.84476 0.18587
vt 0.84537 0.26518
vt 0.84998 0.41738
vt 0.84998 0.54521
vt 0.85376 0.67727
vt 0.85398 0.25019
vt 0.85602 0.17709
vt 0.86464 0.11210
vt 0.86468 0.00803
vt 0.86935 0.06071
vt 0.87043 0.18587
vt 0.87043 0.31331
vt 0.87677 0.25074
vt 0.89321 0.18643
vt 0.89321 0.31387
vt 0.89775 0.53596
vt 0.90183 0.19732
vt 0.90183 0.27484
vt 0.90183 0.35255
vt 0.90200 0.63475
vt 0.90200 0.72606
vt 0.90378 0.19656
vt 0.90522 0.36271
vt 0.90797 0.18587
vt 0.90927 0.27176
vt 0.90942 0.35437
vt 0.91107 0.28056
vt 0.91284 0.93528
vt 0.91290 0.79717
vt 0.91344 0.86685
vt 0.91378 0.67998
vt 0.91831 0.19111
vt 0.92023 0.19041
vt 0.92240 0.64000
vt 0.92240 0.71979
vt 0.92240 0.75445
vt 0.92363 0.76282
vt 0.92599 0.51458
vt 0.92685 0.92678
vt 0.92690 0.80531
vt 0.92737 0.86659
vt 0.92875 0.26418
vt 0.92904 0.36082
vt 0.93328 0.37193
vt 0.93461 0.45765
vt 0.93466 0.44265
vt 0.93649 0.69036
vt 0.93894 0.26972
vt 0.94328 0.25873
vt 0.94357 0.36628
vt 0.94422 0.77495
vt 0.94469 0.47576
vt 0.94486 0.42475
vt 0.94774 0.46220
vt 0.94783 0.43705
vt 0.95114 0.29357
vt 0.95186 0.70246
vt 0.95186 0.77179
vt 0.95311 0.29422
vt 0.95734 0.48339
vt 0.95756 0.41738
vt 0.95971 0.69914
vt 0.96050 0.38346
vt 0.96165 0.60888
vt 0.96244 0.25179
vt 0.96261 0.37433
vt 0.96312 0.28934
vt 0.96634 0.25980
vt 0.96722 0.11968
vt 0.96727 0.00000
vt 0.96764 0.29967
vt 0.96894 0.47500
vt 0.96911 0.42470
vt 0.96952 0.24943
vt 0.96954 0.30048
vt 0.96954 0.37797
vt 0.97264 0.06058
vt 0.97761 0.48360
vt 0.98030 0.71127
vt 0.98131 0.71979
vt 0.98131 0.75446
vt 0.98445 0.69036
vt 0.99023 0.46264
vt 0.99031 0.43749
vt 0.99031 0.47623
vt 1.00000 0.64000
s 0
usemtl RPG_iron
f 1/104/6 2/106/6 3/108/6
f 1/216/14 3/218/14 8/213/14
f 1/216/14 8/213/14 7/211/14
f 10/226/16 12/225/16 6/221/16
f 10/226/16 6/221/16 5/224/16
f 10/226/3 16/228/3 22/230/3
f 10/226/3 5/224/3 16/228/3
f 10/226/9 11/234/9 12/225/9
f 100/375/102 103/387/102 104/376/102
f 100/375/102 99/386/102 103/387/102
f 100/375/89 102/333/89 98/332/89
f 100/375/89 104/376/89 102/333/89
f 102/44/101 101/50/101 97/37/101
f 102/44/101 97/37/101 98/28/101
f 103/277/3 99/295/3 95/317/3
f 104/376/104 103/387/104 107/385/104
f 104/376/104 107/385/104 108/374/104
f 104/376/90 106/331/90 102/333/90
f 104/376/90 108/374/90 106/331/90
f 105/66/26 109/76/26 113/77/26
f 106/70/103 101/50/103 102/44/103
f 106/70/103 105/66/103 101/50/103
f 108/281/91 110/303/91 106/285/91
f 108/281/91 112/306/91 110/303/91
f 11/119/5 20/164/5 9/120/5
f 11/119/5 24/163/5 20/164/5
f 110/79/105 105/66/105 106/70/105
f 110/79/105 109/76/105 105/66/105
f 110/79/107 113/77/107 109/76/107
f 110/79/107 114/80/107 113/77/107
f 111/309/3 103/277/3 95/317/3
f 111/309/3 107/286/3 103/277/3
f 112/306/106 107/286/106 111/309/106
f 112/306/106 108/281/106 107/286/106
f 112/306/108 111/309/108 115/329/108
f 112/306/108 115/329/108 116/334/108
f 112/306/92 114/314/92 110/303/92
f 112/306/92 116/334/92 114/314/92
f 113/77/26 85/67/26 89/51/26
f 113/77/26 89/51/26 97/37/26
f 114/80/109 85/67/109 113/77/109
f 114/80/109 86/71/109 85/67/109
f 116/319/110 115/324/110 87/326/110
f 116/319/110 87/326/110 88/321/110
f 116/319/87 86/282/87 114/279/87
f 116/319/87 88/321/87 86/282/87
f 117/313/118 118/307/118 146/301/118
f 117/313/118 146/301/118 145/311/118
f 118/54/3 119/56/3 147/57/3
f 118/54/3 147/57/3 146/55/3
f 119/56/117 120/68/117 148/69/117
f 119/56/117 148/69/117 147/57/117
f 120/40/26 117/27/26 145/26/26
f 120/40/26 121/63/26 117/27/26
f 120/40/26 124/65/26 121/63/26
f 120/40/26 145/26/26 148/39/26
f 121/312/111 118/307/111 117/313/111
f 121/312/111 122/302/111 118/307/111
f 122/72/3 119/56/3 118/54/3
f 122/72/3 123/74/3 119/56/3
f 123/74/112 120/68/112 119/56/112
f 123/74/112 124/78/112 120/68/112
f 124/65/26 125/90/26 121/63/26
f 124/65/26 128/84/26 125/90/26
f 125/318/113 122/328/113 121/316/113
f 125/318/113 126/330/113 122/328/113
f 126/87/3 123/74/3 122/72/3
f 126/87/3 127/85/3 123/74/3
f 126/87/3 130/95/3 131/92/3
f 126/87/3 131/92/3 127/85/3
f 127/167/114 124/154/114 123/169/114
f 127/167/114 128/151/114 124/154/114
f 129/315/115 126/330/115 125/318/115
f 129/315/115 130/327/115 126/330/115
f 13/59/10 14/53/10 15/61/10
f 13/59/24 15/61/24 2/106/24
f 13/59/24 2/106/24 1/104/24
f 130/95/3 134/96/3 135/93/3
f 130/95/3 135/93/3 131/92/3
f 131/168/116 128/151/116 127/167/116
f 131/168/116 132/153/116 128/151/116
f 132/98/26 125/90/26 128/84/26
f 132/98/26 129/102/26 125/90/26
f 133/100/117 130/95/117 129/99/117
f 133/100/117 134/96/117 130/95/117
f 135/352/118 132/361/118 131/358/118
f 135/352/118 136/359/118 132/361/118
f 136/97/26 129/102/26 132/98/26
f 136/97/26 133/101/26 129/102/26
f 137/91/112 134/96/112 133/100/112
f 137/91/112 138/88/112 134/96/112
f 138/88/3 135/93/3 134/96/3
f 138/88/3 139/86/3 135/93/3
f 138/88/3 142/73/3 143/75/3
f 138/88/3 143/75/3 139/86/3
f 139/357/111 136/359/111 135/352/111
f 139/357/111 140/360/111 136/359/111
f 140/83/26 133/101/26 136/97/26
f 140/83/26 137/89/26 133/101/26
f 141/338/114 138/346/114 137/336/114
f 141/338/114 142/348/114 138/346/114
f 143/34/113 140/47/113 139/33/113
f 143/34/113 144/49/113 140/47/113
f 144/64/26 137/89/26 140/83/26
f 144/64/26 141/62/26 137/89/26
f 145/337/116 142/348/116 141/338/116
f 145/337/116 146/347/116 142/348/116
f 146/55/3 143/75/3 142/73/3
f 146/55/3 147/57/3 143/75/3
f 147/32/115 144/49/115 143/34/115
f 147/32/115 148/46/115 144/49/115
f 148/39/26 141/62/26 144/64/26
f 148/39/26 145/26/26 141/62/26
f 15/61/23 14/53/23 18/52/23
f 15/61/23 18/52/23 17/60/23
f 16/290/11 17/296/11 18/293/11
f 16/290/22 18/293/22 23/289/22
f 16/290/22 23/289/22 22/288/22
f 17/60/1 2/106/1 15/61/1
f 17/60/1 4/105/1 2/106/1
f 19/165/12 20/164/12 21/171/12
f 19/210/21 14/217/21 13/215/21
f 19/210/21 21/212/21 14/217/21
f 19/210/26 1/216/26 7/211/26
f 19/210/26 13/215/26 1/216/26
f 21/171/20 20/164/20 24/163/20
f 21/171/20 24/163/20 23/170/20
f 22/162/19 11/119/19 10/118/19
f 22/162/19 24/163/19 11/119/19
f 22/288/13 23/289/13 24/283/13
f 23/289/2 14/297/2 21/294/2
f 23/289/2 18/293/2 14/297/2
f 25/390/33 26/389/33 27/396/33
f 27/396/32 29/417/32 36/421/32
f 27/396/32 36/421/32 32/412/32
f 28/158/3 52/146/3 40/147/3
f 28/158/3 58/150/3 52/146/3
f 28/413/34 29/417/34 30/405/34
f 29/243/46 28/250/46 34/252/46
f 29/243/46 34/252/46 36/244/46
f 30/405/47 27/396/47 26/389/47
f 30/405/47 29/417/47 27/396/47
f 31/403/26 37/426/26 43/427/26
f 31/403/26 43/427/26 55/382/26
f 31/409/35 32/412/35 33/422/35
f 32/412/45 25/390/45 27/396/45
f 32/412/45 31/409/45 25/390/45
f 34/252/36 35/254/36 36/244/36
f 35/254/31 38/261/31 33/245/31
f 35/254/31 42/256/31 38/261/31
f 35/254/48 32/237/48 36/244/48
f 35/254/48 33/245/48 32/237/48
f 35/254/50 34/252/50 40/258/50
f 35/254/50 40/258/50 42/256/50
f 37/373/37 38/364/37 39/371/37
f 38/425/49 31/403/49 33/408/49
f 38/425/49 37/426/49 31/403/49
f 39/270/51 38/261/51 42/256/51
f 39/270/51 42/256/51 41/265/51
f 39/371/52 43/394/52 37/373/52
f 39/371/52 44/388/52 43/394/52
f 4/105/15 3/108/15 2/106/15
f 4/105/15 6/107/15 3/108/15
f 4/208/7 5/224/7 6/221/7
f 40/147/3 34/152/3 28/158/3
f 40/258/38 41/265/38 42/256/38
f 41/265/53 40/258/53 46/260/53
f 41/265/53 46/260/53 48/266/53
f 41/363/28 44/388/28 39/371/28
f 41/363/28 48/368/28 44/388/28
f 43/394/39 44/388/39 45/395/39
f 43/427/26 49/404/26 55/382/26
f 46/370/40 47/378/40 48/368/40
f 47/140/56 46/143/56 52/146/56
f 47/140/56 52/146/56 54/141/56
f 47/378/29 50/411/29 45/395/29
f 47/378/29 54/379/29 50/411/29
f 47/378/54 44/388/54 48/368/54
f 47/378/54 45/395/54 44/388/54
f 49/414/41 50/411/41 51/420/41
f 5/103/25 17/60/25 16/58/25
f 5/103/25 4/105/25 17/60/25
f 50/411/55 43/394/55 45/395/55
f 50/411/55 49/414/55 43/394/55
f 51/142/57 50/139/57 54/141/57
f 51/142/57 54/141/57 53/148/57
f 52/146/3 46/143/3 40/147/3
f 52/146/42 53/148/42 54/141/42
f 53/148/30 56/159/30 51/142/30
f 53/148/30 60/149/30 56/159/30
f 53/148/59 52/146/59 58/150/59
f 53/148/59 58/150/59 60/149/59
f 55/369/43 56/365/43 57/372/43
f 55/382/26 25/381/26 31/403/26
f 56/383/58 49/404/58 51/397/58
f 56/383/58 55/382/58 49/404/58
f 57/166/60 56/159/60 60/149/60
f 57/166/60 60/149/60 59/160/60
f 57/372/61 25/390/61 55/369/61
f 57/372/61 26/389/61 25/390/61
f 58/150/44 59/160/44 60/149/44
f 59/160/62 28/158/62 30/161/62
f 59/160/62 58/150/62 28/158/62
f 59/402/27 26/389/27 57/372/27
f 59/402/27 30/405/27 26/389/27
f 6/221/4 12/225/4 8/214/4
f 6/221/4 8/214/4 3/209/4
f 61/126/66 62/125/66 63/128/66
f 61/126/74 63/128/74 68/129/74
f 61/126/74 68/129/74 67/127/74
f 64/219/67 65/233/67 66/222/67
f 64/219/75 63/204/75 62/201/75
f 64/219/75 66/222/75 63/204/75
f 65/233/85 64/219/85 77/220/85
f 65/233/85 77/220/85 76/235/85
f 66/264/4 68/273/4 63/274/4
f 66/264/4 72/263/4 68/273/4
f 67/299/68 68/287/68 69/292/68
f 67/299/78 69/292/78 80/298/78
f 67/299/78 80/298/78 79/305/78
f 69/269/77 68/273/77 72/263/77
f 69/269/77 72/263/77 71/257/77
f 7/121/18 20/164/18 19/165/18
f 7/121/18 9/120/18 20/164/18
f 7/121/8 8/110/8 9/120/8
f 70/247/64 65/248/64 76/240/64
f 70/247/64 76/240/64 82/239/64
f 70/247/69 71/257/69 72/263/69
f 70/247/76 66/264/76 65/248/76
f 70/247/76 72/263/76 66/264/76
f 71/284/65 80/298/65 69/292/65
f 71/284/65 84/291/65 80/298/65
f 73/123/70 74/111/70 75/122/70
f 73/123/81 79/124/81 81/112/81
f 73/123/81 81/112/81 74/111/81
f 73/123/84 62/125/84 61/126/84
f 73/123/84 75/122/84 62/125/84
f 76/195/82 78/184/82 83/183/82
f 76/195/82 83/183/82 82/194/82
f 76/235/71 77/220/71 78/223/71
f 77/220/63 62/201/63 75/202/63
f 77/220/63 64/219/63 62/201/63
f 77/220/83 74/205/83 78/223/83
f 77/220/83 75/202/83 74/205/83
f 79/124/86 61/126/86 67/127/86
f 79/124/86 73/123/86 61/126/86
f 79/305/72 80/298/72 81/304/72
f 81/173/2 78/184/2 74/174/2
f 81/173/2 83/183/2 78/184/2
f 82/194/73 83/183/73 84/187/73
f 82/239/79 71/257/79 70/247/79
f 82/239/79 84/246/79 71/257/79
f 83/183/80 80/180/80 84/187/80
f 83/183/80 81/173/80 80/180/80
f 87/345/3 115/329/3 111/309/3
f 88/321/94 90/280/94 86/282/94
f 88/321/94 92/320/94 90/280/94
f 88/321/96 87/326/96 91/325/96
f 88/321/96 91/325/96 92/320/96
f 89/51/26 93/38/26 97/37/26
f 9/120/17 12/109/17 11/119/17
f 9/120/17 8/110/17 12/109/17
f 90/45/95 85/67/95 86/71/95
f 90/45/95 89/51/95 85/67/95
f 92/344/93 94/377/93 90/367/93
f 92/344/93 96/351/93 94/377/93
f 94/29/97 89/51/97 90/45/97
f 94/29/97 93/38/97 89/51/97
f 94/29/99 97/37/99 93/38/99
f 94/29/99 98/28/99 97/37/99
f 95/317/3 87/345/3 111/309/3
f 95/317/3 91/341/3 87/345/3
f 96/351/100 95/342/100 99/339/100
f 96/351/100 99/339/100 100/343/100
f 96/351/88 100/343/88 98/366/88
f 96/351/88 98/366/88 94/377/88
f 96/351/98 91/340/98 95/342/98
f 96/351/98 92/344/98 91/340/98
f 97/37/26 101/50/26 105/66/26
f 97/37/26 105/66/26 113/77/26
usemtl RPG_timber
f 149/7/124 150/5/124 151/12/124
f 150/398/152 179/418/152 181/406/152
f 150/398/175 149/400/175 179/418/175
f 152/200/122 176/185/122 164/182/122
f 152/200/122 182/196/122 176/185/122
f 152/6/125 153/11/125 154/4/125
f 153/11/123 156/14/123 151/12/123
f 153/11/123 160/13/123 156/14/123
f 154/4/138 151/12/138 150/5/138
f 154/4/138 153/11/138 151/12/138
f 155/401/126 156/392/126 157/399/126
f 155/401/154 161/419/154 167/430/154
f 155/401/154 167/430/154 179/418/154
f 156/392/136 149/400/136 151/391/136
f 156/392/136 155/401/136 149/400/136
f 157/259/139 156/249/139 160/241/139
f 157/259/139 160/241/139 159/253/139
f 158/251/127 159/253/127 160/241/127
f 159/253/2 162/268/2 157/259/2
f 159/253/2 166/262/2 162/268/2
f 160/241/137 152/242/137 158/251/137
f 160/241/137 153/238/137 152/242/137
f 161/18/128 162/15/128 163/17/128
f 162/407/140 155/401/140 157/399/140
f 162/407/140 161/419/140 155/401/140
f 163/17/143 167/31/143 161/18/143
f 163/17/143 168/25/143 167/31/143
f 163/276/142 162/268/142 166/262/142
f 163/276/142 166/262/142 165/271/142
f 164/182/122 158/193/122 152/200/122
f 164/267/129 165/271/129 166/262/129
f 165/16/120 168/25/120 163/17/120
f 165/16/120 172/24/120 168/25/120
f 165/271/144 170/272/144 172/275/144
f 165/271/173 164/267/173 170/272/173
f 166/262/141 158/251/141 164/267/141
f 166/262/141 159/253/141 158/251/141
f 167/31/130 168/25/130 169/36/130
f 167/430/154 173/429/154 179/418/154
f 169/36/145 168/25/145 172/24/145
f 169/36/145 172/24/145 171/35/145
f 169/36/146 173/41/146 167/31/146
f 169/36/146 174/43/146 173/41/146
f 170/30/131 171/35/131 172/24/131
f 171/172/147 176/185/147 178/179/147
f 171/172/174 170/178/174 176/185/174
f 171/35/121 174/43/121 169/36/121
f 171/35/121 178/42/121 174/43/121
f 173/41/132 174/43/132 175/48/132
f 175/189/148 174/181/148 178/179/148
f 175/189/148 178/179/148 177/186/148
f 175/189/4 177/186/4 184/192/4
f 175/189/4 184/192/4 180/197/4
f 175/431/149 179/418/149 173/429/149
f 175/431/149 180/424/149 179/418/149
f 176/185/122 170/178/122 164/182/122
f 176/185/133 177/186/133 178/179/133
f 177/186/150 176/185/150 182/196/150
f 177/186/150 182/196/150 184/192/150
f 179/418/134 180/424/134 181/406/134
f 179/418/154 149/400/154 155/401/154
f 181/207/151 180/197/151 184/192/151
f 181/207/151 184/192/151 183/203/151
f 182/196/135 183/203/135 184/192/135
f 183/1/119 150/5/119 181/2/119
f 183/1/119 154/4/119 150/5/119
f 183/203/153 152/200/153 154/206/153
f 183/203/153 182/196/153 152/200/153
usemtl RPG_thatch
f 186/117/155 187/136/155 185/138/155
f 186/117/155 188/115/155 187/136/155
f 186/255/122 194/190/122 190/188/122
f 186/255/122 196/236/122 194/190/122
f 187/198/154 189/231/154 191/232/154
f 187/198/154 191/232/154 195/177/154
f 188/134/156 189/155/156 187/135/156
f 188/134/156 190/157/156 189/155/156
f 189/355/157 190/416/157 192/423/157
f 189/355/157 192/423/157 191/356/157
f 190/188/122 188/229/122 186/255/122
f 191/232/154 193/199/154 195/177/154
f 192/423/158 193/354/158 191/356/158
f 192/423/158 194/415/158 193/354/158
f 193/191/159 194/190/159 196/236/159
f 193/191/159 196/236/159 195/227/159
f 194/190/122 192/175/122 190/188/122
f 195/137/160 186/117/160 185/138/160
f 195/137/160 196/116/160 186/117/160
f 195/177/154 185/176/154 187/198/154
usemtl RPG_flame
f 197/323/161 203/322/161 198/353/161
f 198/114/26 199/113/26 200/130/26
f 198/114/26 200/130/26 202/145/26
f 198/133/162 203/132/162 199/156/162
f 199/278/163 203/308/163 200/310/163
f 200/130/26 201/144/26 202/145/26
f 200/310/164 203/308/164 201/335/164
f 201/3/165 203/19/165 202/20/165
f 202/145/26 197/131/26 198/114/26
f 202/300/166 203/322/166 197/323/166
f 204/81/167 209/82/167 205/94/167
f 205/380/170 206/410/170 207/432/170
f 205/380/170 207/432/170 208/428/170
f 205/9/168 209/8/168 206/21/168
f 206/350/169 209/349/169 207/362/169
f 207/362/171 209/349/171 208/384/171
f 208/10/172 209/22/172 204/23/172
f 208/428/170 204/393/170 205/380/170
